<svg xmlns="http://www.w3.org/2000/svg" xmlns:xlink="http://www.w3.org/1999/xlink" id="body_1" preserveAspectRatio="xMinYMin meet" viewBox="0 0 793 1123"><defs><clipPath id="1"><path id="" clip-rule="evenodd" transform="matrix(1 0 0 1 0 0)" d="M0 842L0 -0.250061L0 -0.250061L595.5 -0.250061L595.5 -0.250061L595.5 842L595.5 842L0 842z" /></clipPath><clipPath id="2"><path id="" clip-rule="evenodd" transform="matrix(1 0 0 1 0 0)" d="M0 -0.25L595.5 -0.25L595.5 -0.25L595.5 842.0012L595.5 842.0012L0 842.0012z" /></clipPath><clipPath id="3"><path id="" clip-rule="evenodd" transform="matrix(1 0 0 1 0 0)" d="M0 -0.25L595.5 -0.25L595.5 -0.25L595.5 842.0012L595.5 842.0012L0 842.0012z" /></clipPath><clipPath id="4"><path id="" clip-rule="evenodd" transform="matrix(1 0 0 1 0 0)" d="M0 -0.25L595.68 -0.25L595.68 -0.25L595.68 842.15L595.68 842.15L0 842.15z" /></clipPath><clipPath id="5"><path id="" clip-rule="evenodd" transform="matrix(1 0 0 1 0 0)" d="M0 -0.25L595.5 -0.25L595.5 -0.25L595.5 842.0012L595.5 842.0012L0 842.0012z" /></clipPath><clipPath id="6"><path id="" clip-rule="evenodd" transform="matrix(1 0 0 1 0 0)" d="M75.59999 30.71002L519.12 30.71002L519.12 30.71002L519.12 810.95L519.12 810.95L75.59999 810.95z" /></clipPath><clipPath id="7"><path id="" clip-rule="evenodd" transform="matrix(1 0 0 1 0 0)" d="M76.4271 30.75177L518.9271 30.75177L518.9271 30.75177L518.9271 810.7518L518.9271 810.7518L76.4271 810.7518z" /></clipPath><clipPath id="8"><path id="" clip-rule="evenodd" transform="matrix(1 0 0 1 0 0)" d="M489.6168 19.31152L581.8668 19.31152L581.8668 19.31152L581.8668 71.81152L581.8668 71.81152L489.6168 71.81152z" /></clipPath><clipPath id="9"><path id="" clip-rule="evenodd" transform="matrix(1 0 0 1 0 0)" d="M0 -0.25L595.5 -0.25L595.5 -0.25L595.5 842.0012L595.5 842.0012L0 842.0012z" /></clipPath><clipPath id="10"><path id="" clip-rule="evenodd" transform="matrix(1 0 0 1 0 0)" d="M13.44 190.79L585.84 190.79L585.84 190.79L585.84 436.55L585.84 436.55L13.44 436.55z" /></clipPath><clipPath id="11"><path id="" clip-rule="evenodd" transform="matrix(1 0 0 1 0 0)" d="M27.61099 204.8494L573.287 204.8494L573.287 204.8494L573.287 423.4619L573.287 423.4619L27.61099 423.4619z" /></clipPath><clipPath id="12"><path id="" clip-rule="evenodd" transform="matrix(1 0 0 1 0 0)" d="M56.86104 204.8494L543.9168 204.8494C 551.676 204.8494 559.116 207.9312 564.6 213.4166C 570.0864 218.902 573.168 226.342 573.168 234.0995L573.168 234.0995L573.168 394.2116C 573.168 401.9694 570.0864 409.4092 564.6 414.8946C 559.116 420.38 551.676 423.4616 543.9168 423.4616L543.9168 423.4616L56.86104 423.4616C 49.10352 423.4616 41.66352 420.38 36.17813 414.8946C 30.69269 409.4092 27.61099 401.9694 27.61099 394.2116L27.61099 394.2116L27.61099 234.0995C 27.61099 226.342 30.69269 218.902 36.17813 213.4166C 41.66352 207.9312 49.10352 204.8494 56.86104 204.8494z" /></clipPath><clipPath id="13"><path id="" clip-rule="evenodd" transform="matrix(1 0 0 1 0 0)" d="M27.61099 204.8494L572.8622 204.8494L572.8622 204.8494L572.8622 423.0994L572.8622 423.0994L27.61099 423.0994z" /></clipPath><clipPath id="14"><path id="" clip-rule="evenodd" transform="matrix(1 0 0 1 0 0)" d="M27.62345 204.8494L574.5066 204.8494L574.5066 204.8494L574.5066 425.2765L574.5066 425.2765L27.62345 425.2765z" /></clipPath><clipPath id="15"><path id="" clip-rule="evenodd" transform="matrix(1 0 0 1 0 0)" d="M56.87208 204.8494L543.9048 204.8494C 551.6616 204.8494 559.1016 207.931 564.5856 213.4161C 570.072 218.9012 573.1536 226.3408 573.1536 234.098L573.1536 234.098L573.1536 394.2025C 573.1536 401.9595 570.072 409.399 564.5856 414.8843C 559.1016 420.3695 551.6616 423.4511 543.9048 423.4511L543.9048 423.4511L56.87208 423.4511C 49.1148 423.4511 41.67528 420.3695 36.19015 414.8843C 30.70498 409.399 27.62345 401.9595 27.62345 394.2025L27.62345 394.2025L27.62345 234.098C 27.62345 226.3408 30.70498 218.9012 36.19015 213.4161C 41.67528 207.931 49.1148 204.8494 56.87208 204.8494z" /></clipPath><clipPath id="16"><path id="" clip-rule="evenodd" transform="matrix(1 0 0 1 0 0)" d="M388.3464 204.8494L572.8464 204.8494L572.8464 204.8494L572.8464 389.3495L572.8464 389.3495L388.3464 389.3495z" /></clipPath><clipPath id="17"><path id="" clip-rule="evenodd" transform="matrix(1 0 0 1 0 0)" d="M0 -0.25L595.5 -0.25L595.5 -0.25L595.5 842.0012L595.5 842.0012L0 842.0012z" /></clipPath><clipPath id="18"><path id="" clip-rule="evenodd" transform="matrix(1 0 0 1 0 0)" d="M7.92 458.15L585.84 458.15L585.84 458.15L585.84 745.67L585.84 745.67L7.92 745.67z" /></clipPath><clipPath id="19"><path id="" clip-rule="evenodd" transform="matrix(1 0 0 1 0 0)" d="M22.10801 472.2117L573.1768 472.2117L573.1768 472.2117L573.1768 733.4589L573.1768 733.4589L22.10801 733.4589z" /></clipPath><clipPath id="20"><path id="" clip-rule="evenodd" transform="matrix(1 0 0 1 0 0)" d="M51.35808 472.2117L543.9168 472.2117C 551.676 472.2117 559.116 475.2934 564.6 480.7788C 570.0864 486.2643 573.168 493.7041 573.168 501.4616L573.168 501.4616L573.168 704.21C 573.168 711.9668 570.0864 719.4067 564.6 724.8932C 559.116 730.3772 551.676 733.4588 543.9168 733.4588L543.9168 733.4588L51.35808 733.4588C 43.60032 733.4588 36.16056 730.3772 30.67512 724.8932C 25.18968 719.4067 22.10801 711.9668 22.10801 704.21L22.10801 704.21L22.10801 501.4616C 22.10801 493.7041 25.18968 486.2643 30.67512 480.7788C 36.16056 475.2934 43.60032 472.2117 51.35808 472.2117z" /></clipPath><clipPath id="21"><path id="" clip-rule="evenodd" transform="matrix(1 0 0 1 0 0)" d="M22.10801 472.2117L573.3591 472.2117L573.3591 472.2117L573.3591 733.2117L573.3591 733.2117L22.10801 733.2117z" /></clipPath><clipPath id="22"><path id="" clip-rule="evenodd" transform="matrix(1 0 0 1 0 0)" d="M22.10801 472.2129L574.5904 472.2129L574.5904 472.2129L574.5904 734.5017L574.5904 734.5017L22.10801 734.5017z" /></clipPath><clipPath id="23"><path id="" clip-rule="evenodd" transform="matrix(1 0 0 1 0 0)" d="M51.3576 472.2129L543.9096 472.2129C 551.6664 472.2129 559.1064 475.2945 564.5928 480.7799C 570.0768 486.2653 573.1583 493.705 573.1583 501.4626L573.1583 501.4626L573.1583 704.2076C 573.1583 711.9644 570.0768 719.4044 564.5928 724.8884C 559.1064 730.3748 551.6664 733.4564 543.9096 733.4564L543.9096 733.4564L51.3576 733.4564C 43.60008 733.4564 36.16032 730.3748 30.67498 724.8884C 25.18963 719.4044 22.10801 711.9644 22.10801 704.2076L22.10801 704.2076L22.10801 501.4626C 22.10801 493.705 25.18963 486.2653 30.67498 480.7799C 36.16032 475.2945 43.60008 472.2129 51.3576 472.2129z" /></clipPath><clipPath id="24"><path id="" clip-rule="evenodd" transform="matrix(1 0 0 1 0 0)" d="M39.17952 539.99L248.4295 539.99L248.4295 539.99L248.4295 708.74L248.4295 708.74L39.17952 708.74z" /></clipPath><clipPath id="25"><path id="" clip-rule="evenodd" transform="matrix(1 0 0 1 0 0)" d="M0 -0.25L595.5 -0.25L595.5 -0.25L595.5 842.0012L595.5 842.0012L0 842.0012z" /></clipPath></defs><g transform="matrix(1.333333 0 0 1.333333 0 0)"><g clip-path="url(#1)"><g clip-path="url(#2)"><path id="1" transform="matrix(1 0 0 -1 0 842)" d="M0 842.25L595.4999 842.25L595.4999 0L0 0z" stroke="none" fill="#FFFFFF" fill-rule="nonzero" /></g><g clip-path="url(#3)"><path id="2" transform="matrix(1 0 0 -1 0 842)" d="M0 842.25L595.4999 842.25L595.4999 0L0 0z" stroke="none" fill="#FFFFFF" fill-rule="nonzero" /><g><g clip-path="url(#4)"><g transform="matrix(0.9295319 0 0 0.9558346 -446.1624 -9.249939)"><g transform="matrix(1 0 0 1 0 0)"><image x="0" y="0" xlink:href="img_01.png" width="1600" height="900" /></g></g></g></g></g><g clip-path="url(#5)"><g><g clip-path="url(#6)"><g clip-path="url(#7)"><g transform="matrix(0 0.5128205 -0.5127462 0 518.9271 30.75183)"><g transform="matrix(1 0 0 1 0 0)"><image x="0" y="0" xlink:href="img_02.png" width="1521" height="863" /></g></g></g></g></g></g><g clip-path="url(#8)"><g transform="matrix(0.06065089 0 0 0.06083429 489.6168 19.31146)"><g transform="matrix(1 0 0 1 0 0)"><image x="0" y="0" xlink:href="img_03.png" width="1521" height="863" /></g></g></g><g clip-path="url(#9)"><g><g clip-path="url(#10)"><g clip-path="url(#11)"><g clip-path="url(#12)"><path id="37" transform="matrix(1 0 0 -1 0 842)" d="M27.61099 637.1505L573.2873 637.1505L573.2873 418.5384L27.61099 418.5384z" stroke="none" fill="#8CD5FF" fill-rule="nonzero" fill-opacity="0.1764706" /></g></g><g clip-path="url(#13)"><g clip-path="url(#14)"><g clip-path="url(#15)"><path id="38" transform="matrix(1 0 0 -1 0 842)" d="M56.87202 637.1505L543.9047 637.1505C 551.6619 637.1505 559.1012 634.069 564.5867 628.5838C 570.0714 623.0986 573.1532 615.6592 573.1532 607.9019L573.1532 607.9019L573.1532 447.7973C 573.1532 440.04 570.0714 432.6008 564.5867 427.116C 559.1012 421.6305 551.6619 418.5488 543.9047 418.5488L543.9047 418.5488L56.87202 418.5488C 49.11477 418.5488 41.67529 421.6305 36.19017 427.116C 30.70498 432.6008 27.62345 440.04 27.62345 447.7973L27.62345 447.7973L27.62345 607.9019C 27.62345 615.6592 30.70498 623.0986 36.19017 628.5838C 41.67529 634.069 49.11477 637.1505 56.87202 637.1505z" stroke="#000000" stroke-width="6" fill="none" /></g></g></g></g></g></g><g clip-path="url(#16)"><g transform="matrix(0.6149999 0 0 0.6149999 388.3464 204.8492)"><g transform="matrix(1 0 0 1 0 0)"><image x="0" y="0" xlink:href="img_04.png" width="300" height="300" /></g></g></g><g clip-path="url(#17)"><g><g clip-path="url(#18)"><g clip-path="url(#19)"><g clip-path="url(#20)"><path id="222" transform="matrix(1 0 0 -1 0 842)" d="M22.10801 369.7883L573.1776 369.7883L573.1776 108.5405L22.10801 108.5405z" stroke="none" fill="#8CD5FF" fill-rule="nonzero" fill-opacity="0.1764706" /></g></g><g clip-path="url(#21)"><g clip-path="url(#22)"><g clip-path="url(#23)"><path id="223" transform="matrix(1 0 0 -1 0 842)" d="M51.35755 369.7871L543.9092 369.7871C 551.6665 369.7871 559.1065 366.7054 564.592 361.2201C 570.0775 355.7347 573.1585 348.295 573.1585 340.5375L573.1585 340.5375L573.1585 137.7933C 573.1585 130.0353 570.0775 122.5961 564.592 117.1106C 559.1065 111.6251 551.6665 108.5433 543.9092 108.5433L543.9092 108.5433L51.35755 108.5433C 43.60008 108.5433 36.16038 111.6251 30.67503 117.1106C 25.18964 122.5961 22.10801 130.0353 22.10801 137.7933L22.10801 137.7933L22.10801 340.5375C 22.10801 348.295 25.18964 355.7347 30.67503 361.2201C 36.16038 366.7054 43.60008 369.7871 51.35755 369.7871z" stroke="#000000" stroke-width="6" fill="none" /></g></g></g></g></g></g><g clip-path="url(#24)"><g transform="matrix(0.5365384 0 0 0.5357143 39.17952 539.9912)"><g transform="matrix(1 0 0 1 0 0)"><image x="0" y="0" xlink:href="img_05.png" width="390" height="315" /></g></g></g><g clip-path="url(#25)"></g></g></g></svg>