<svg xmlns="http://www.w3.org/2000/svg" xmlns:xlink="http://www.w3.org/1999/xlink" id="body_1" preserveAspectRatio="xMinYMin meet" viewBox="0 0 793 1123"><defs><clipPath id="1"><path id="" clip-rule="evenodd" transform="matrix(1 0 0 1 0 0)" d="M0 842L0 -0.25L0 -0.25L595.5 -0.25L595.5 -0.25L595.5 842L595.5 842L0 842z" /></clipPath><clipPath id="2"><path id="" clip-rule="evenodd" transform="matrix(1 0 0 1 0 0)" d="M0 -0.249939L595.5 -0.249939L595.5 -0.249939L595.5 842.0001L595.5 842.0001L0 842.0001z" /></clipPath><clipPath id="3"><path id="" clip-rule="evenodd" transform="matrix(1 0 0 1 0 0)" d="M0 -0.249939L595.5 -0.249939L595.5 -0.249939L595.5 842.0001L595.5 842.0001L0 842.0001z" /></clipPath><clipPath id="4"><path id="" clip-rule="evenodd" transform="matrix(1 0 0 1 0 0)" d="M0 -0.249939L595.5 -0.249939L595.5 -0.249939L595.5 842.0001L595.5 842.0001L0 842.0001z" /></clipPath><clipPath id="5"><path id="" clip-rule="evenodd" transform="matrix(1 0 0 1 0 0)" d="M81.84 -0.249939L538.08 -0.249939L538.08 -0.249939L538.08 803.7501L538.08 803.7501L81.84 803.7501z" /></clipPath><clipPath id="6"><path id="" clip-rule="evenodd" transform="matrix(1 0 0 1 0 0)" d="M81.99223 -0.2544556L537.9922 -0.2544556L537.9922 -0.2544556L537.9922 802.9955L537.9922 802.9955L81.99223 802.9955z" /></clipPath><clipPath id="7"><path id="" clip-rule="evenodd" transform="matrix(1 0 0 1 0 0)" d="M492.7907 11.00061L577.5407 11.00061L577.5407 11.00061L577.5407 59.00061L577.5407 59.00061L492.7907 59.00061z" /></clipPath><clipPath id="8"><path id="" clip-rule="evenodd" transform="matrix(1 0 0 1 0 0)" d="M0 -0.249939L595.5 -0.249939L595.5 -0.249939L595.5 842.0001L595.5 842.0001L0 842.0001z" /></clipPath><clipPath id="9"><path id="" clip-rule="evenodd" transform="matrix(1 0 0 1 0 0)" d="M0 -0.249939L595.5 -0.249939L595.5 -0.249939L595.5 842.0001L595.5 842.0001L0 842.0001z" /></clipPath><clipPath id="10"><path id="" clip-rule="evenodd" transform="matrix(1 0 0 1 0 0)" d="M310.0695 216.0992L567.3196 216.0992L567.3196 216.0992L567.3196 430.5992L567.3196 430.5992L310.0695 430.5992z" /></clipPath><clipPath id="11"><path id="" clip-rule="evenodd" transform="matrix(1 0 0 1 0 0)" d="M310.0695 249.0991L310.0695 396.9014C 310.0695 415.1268 324.8441 429.9015 343.0695 429.9015L343.0695 429.9015L534.0089 429.9015C 552.2343 429.9015 567.0089 415.1268 567.0089 396.9014L567.0089 396.9014L567.0089 249.0991C 567.0089 230.8738 552.2343 216.0992 534.0089 216.0992L534.0089 216.0992L343.0695 216.0992C 324.8441 216.0992 310.0695 230.8738 310.0695 249.0991z" /></clipPath><clipPath id="12"><path id="" clip-rule="evenodd" transform="matrix(1 0 0 1 0 0)" d="M310.0695 216.0992L567.3196 216.0992L567.3196 216.0992L567.3196 429.8492L567.3196 429.8492L310.0695 429.8492z" /></clipPath><clipPath id="13"><path id="" clip-rule="evenodd" transform="matrix(1 0 0 1 0 0)" d="M323.8805 681.1063L567.0026 681.1063L567.0026 681.1063L567.0026 735.338L567.0026 735.338L323.8805 735.338z" /></clipPath><clipPath id="14"><path id="" clip-rule="evenodd" transform="matrix(1 0 0 1 0 0)" d="M0 -0.249939L595.5 -0.249939L595.5 -0.249939L595.5 842.0001L595.5 842.0001L0 842.0001z" /></clipPath><clipPath id="15"><path id="" clip-rule="evenodd" transform="matrix(1 0 0 1 0 0)" d="M528.2845 715.499L567.0214 715.499L567.0214 715.499L567.0214 772.8296L567.0214 772.8296L528.2845 772.8296z" /></clipPath><clipPath id="16"><path id="" clip-rule="evenodd" transform="matrix(1 0 0 1 0 0)" d="M0 -0.249939L595.5 -0.249939L595.5 -0.249939L595.5 842.0001L595.5 842.0001L0 842.0001z" /></clipPath><clipPath id="17"><path id="" clip-rule="evenodd" transform="matrix(1 0 0 1 0 0)" d="M0 -0.249939L595.5 -0.249939L595.5 -0.249939L595.5 842.0001L595.5 842.0001L0 842.0001z" /></clipPath><clipPath id="18"><path id="" clip-rule="evenodd" transform="matrix(1 0 0 1 0 0)" d="M0 -0.249939L595.5 -0.249939L595.5 -0.249939L595.5 842.0001L595.5 842.0001L0 842.0001z" /></clipPath><clipPath id="19"><path id="" clip-rule="evenodd" transform="matrix(1 0 0 1 0 0)" d="M18.05204 457.6514L424.0106 457.6514L424.0106 457.6514L424.0106 615.3531L424.0106 615.3531L18.05204 615.3531z" /></clipPath><clipPath id="20"><path id="" clip-rule="evenodd" transform="matrix(1 0 0 1 0 0)" d="M85.55203 457.6514L356.2975 457.6514C 393.5767 457.6514 423.7975 487.8722 423.7975 525.1514L423.7975 525.1514L423.7975 547.8531C 423.7975 585.1323 393.5767 615.3531 356.2975 615.3531L356.2975 615.3531L85.55203 615.3531C 48.27282 615.3531 18.05204 585.1323 18.05204 547.8531L18.05204 547.8531L18.05204 525.1514C 18.05204 487.8722 48.27282 457.6514 85.55203 457.6514z" /></clipPath><clipPath id="21"><path id="" clip-rule="evenodd" transform="matrix(1 0 0 1 0 0)" d="M45.37868 469.6548L172.7662 469.6548L172.7662 469.6548L172.7662 591.4692L172.7662 591.4692L45.37868 591.4692z" /></clipPath><clipPath id="22"><path id="" clip-rule="evenodd" transform="matrix(1 0 0 1 0 0)" d="M0 -0.249939L595.5 -0.249939L595.5 -0.249939L595.5 842.0001L595.5 842.0001L0 842.0001z" /></clipPath></defs><g transform="matrix(1.333333 0 0 1.333333 0 0)"><g clip-path="url(#1)"><g clip-path="url(#2)"><path id="1" transform="matrix(1 0 0 -1 0 842)" d="M0 842.2499L595.4999 842.2499L595.4999 -6.103516E-05L0 -6.103516E-05z" stroke="none" fill="#FFFFFF" fill-rule="nonzero" /></g><g clip-path="url(#3)"><path id="2" transform="matrix(1 0 0 -1 0 842)" d="M0 842.2499L595.4999 842.2499L595.4999 -6.103516E-05L0 -6.103516E-05z" stroke="none" fill="#FFFFFF" fill-rule="nonzero" /></g><g clip-path="url(#4)"><g><g clip-path="url(#5)"><g clip-path="url(#6)"><g transform="matrix(0 0.5281065 -0.5283893 0 537.9922 -0.2543945)"><g transform="matrix(1 0 0 1 0 0)"><image x="0" y="0" xlink:href="img_01.png" width="1521" height="863" /></g></g></g></g></g></g><g clip-path="url(#7)"><g transform="matrix(0.05571992 0 0 0.05561992 492.7907 11.00061)"><g transform="matrix(1 0 0 1 0 0)"><image x="0" y="0" xlink:href="img_02.png" width="1521" height="863" /></g></g></g><g clip-path="url(#8)"><g clip-path="url(#9)"><g clip-path="url(#10)"><g clip-path="url(#11)"><g clip-path="url(#12)"><g transform="matrix(0.655102 1.015515E-17 -1.016403E-17 0.6556748 310.0695 216.0992)"><g transform="matrix(1 0 0 1 0 0)"><image x="0" y="0" xlink:href="img_03.png" width="490" height="326" /></g></g></g></g></g></g></g><g clip-path="url(#13)"><path id="6" transform="matrix(1 0 0 -1 0 842)" d="M563.8431 107.7306C 566.5466 110.4336 567.0026 115.2353 567.0026 124.9759L567.0026 124.9759L567.0026 139.4042C 567.0026 149.1449 566.5466 153.9465 563.8431 156.6496C 563.2411 157.2518 562.5349 157.7424 561.6931 158.1414L561.6931 158.1414L561.6852 158.1451L561.6852 158.1451L554.3973 161.5904L554.3973 161.5904L554.3894 161.5941C 551.452 162.9826 546.8665 163.2577 539.3027 163.2577L539.3027 163.2577L344.2838 163.2577C 334.5439 163.2577 329.7426 162.8016 327.0396 160.0987C 326.6258 159.685 326.2647 159.2221 325.9499 158.6999C 324.2076 155.8105 323.8805 151.104 323.8805 142.8552L323.8805 142.8552L323.8805 128.4284C 323.8805 118.6888 324.3366 113.8876 327.0396 111.1849C 327.6398 110.5849 328.3434 110.0954 329.1817 109.697C 329.1844 109.6959 329.1869 109.6944 329.1896 109.6933L329.1896 109.6933L336.4456 106.2465L336.4456 106.2465L336.4535 106.2428L336.4535 106.2428L336.4614 106.2386C 339.3987 104.8471 343.9861 104.5712 351.5573 104.5712L351.5573 104.5712L546.5969 104.5712C 556.338 104.5712 561.1396 105.0272 563.8431 107.7306z" stroke="none" fill="#000000" fill-rule="nonzero" /><path id="7" transform="matrix(1 0 0 -1 0 842)" d="M539.3032 162.8786C 557.874 162.8786 559.3273 161.4253 559.3273 142.8552L559.3273 142.8552L559.3273 128.4284C 559.3273 109.8582 557.874 108.4049 539.3032 108.4049L539.3032 108.4049L344.2839 108.4049C 325.713 108.4049 324.2596 109.8582 324.2596 128.4284L324.2596 128.4284L324.2596 142.8552C 324.2596 161.4253 325.713 162.8786 344.2839 162.8786L344.2839 162.8786L539.3032 162.8786z" stroke="none" fill="#7ED957" fill-rule="nonzero" /><path id="8" transform="matrix(1 0 0 -1 0 842)" d="M539.3032 162.8786C 557.874 162.8786 559.3273 161.4253 559.3273 142.8552L559.3273 142.8552L559.3273 128.4284C 559.3273 109.8582 557.874 108.4049 539.3032 108.4049L539.3032 108.4049L344.2839 108.4049C 325.713 108.4049 324.2596 109.8582 324.2596 128.4284L324.2596 128.4284L324.2596 142.8552C 324.2596 161.4253 325.713 162.8786 344.2839 162.8786L344.2839 162.8786L539.3032 162.8786z" stroke="#000000" stroke-width="0.5235187" fill="none" /></g><g clip-path="url(#14)"></g><g clip-path="url(#15)"><path id="37" transform="matrix(1 0 0 -1 0 842)" d="M550.9706 113.53C 550.8505 114.0842 551.2015 114.6313 551.7552 114.7516L551.7552 114.7516L556.5785 115.8034C 557.1322 115.9237 557.6789 115.5723 557.7991 115.0181C 557.9193 114.4639 557.5681 113.9168 557.0144 113.7965L557.0144 113.7965L552.1912 112.7447C 551.6375 112.6221 551.0908 112.9758 550.9706 113.53zM547.5093 118.4753C 547.0286 118.7772 546.8825 119.4092 547.1841 119.8903L547.1841 119.8903L549.8066 124.0762C 550.1082 124.5573 550.7397 124.7035 551.2204 124.4016C 551.701 124.0998 551.8472 123.4678 551.5455 122.9867L551.5455 122.9867L548.9254 118.8008C 548.6238 118.3197 547.9899 118.1734 547.5093 118.4753zM535.2308 109.7992C 535.351 109.245 534.9999 108.6979 534.4462 108.5776L534.4462 108.5776L529.6229 107.5258C 529.0692 107.4056 528.5225 107.757 528.4023 108.3111C 528.2822 108.8653 528.6332 109.4125 529.187 109.5327L529.187 109.5327L534.0103 110.5845C 534.564 110.7048 535.1106 110.3534 535.2308 109.7992zM536.1992 116.0416C 535.8976 115.5605 535.2661 115.4143 534.7855 115.7161L534.7855 115.7161L530.6007 118.3409C 530.1201 118.6427 529.974 119.2748 530.2756 119.7559C 530.5771 120.2369 531.2087 120.3831 531.6893 120.0813L531.6893 120.0813L535.8717 117.4589C 536.3547 117.157 536.4985 116.5227 536.1992 116.0416zM541.3594 119.5483C 540.8057 119.428 540.259 119.7794 540.1389 120.3336L540.1389 120.3336L539.0903 125.161C 538.9702 125.7152 539.3213 126.2623 539.875 126.3826C 540.4287 126.5029 540.9753 126.1515 541.0955 125.5973L541.0955 125.5973L542.1464 120.7699C 542.2642 120.2157 541.9131 119.6686 541.3594 119.5483zM565.4687 76.46501C 564.8537 74.00061 562.8839 71.8593 560.4946 71.00561C 559.1209 70.51509 557.6341 70.4184 556.1874 70.43962C 554.6534 70.46085 553.1172 70.58348 551.5856 70.6731C 550.808 70.7179 550.0305 70.76507 549.2552 70.81695C 548.5225 70.86647 547.7826 70.88062 547.0521 70.95137C 546.4702 71.00797 545.9211 71.15891 545.4617 71.53622C 544.9669 71.94185 544.538 72.4418 544.0856 72.89459C 541.8849 75.09721 539.6841 77.29985 537.4834 79.50247C 535.5253 81.4622 533.5673 83.42192 531.6092 85.38165C 531.35 85.64106 531.0956 85.88867 530.907 86.2094C 530.6573 86.63625 530.5324 87.12206 530.5371 87.61729C 530.5489 88.6738 531.2205 89.73267 532.2454 90.06754C 532.8604 90.27036 533.5272 90.25385 534.1281 90.01094C 534.4391 89.88595 534.7313 89.68785 535.0211 89.52042C 535.3156 89.35062 535.6102 89.18082 535.9047 89.00867C 537.0804 88.32948 538.2538 87.65031 539.4296 86.97112C 539.5239 86.91689 539.6182 86.86264 539.7124 86.8084C 540.0988 86.58437 540.5983 86.86972 540.5983 87.31779C 540.5983 87.89085 540.5983 88.46391 540.5983 89.03697C 540.5983 90.47552 540.5983 91.91643 540.5983 93.35497C 540.5983 95.24159 540.5983 97.13057 540.5983 99.01718C 540.5983 100.9345 540.5983 102.8517 540.5983 104.7667C 540.5983 106.2877 540.5983 107.8088 540.5983 109.3299C 540.5983 110.0539 540.596 110.7779 540.5983 111.5019C 540.6031 112.3674 540.9824 113.188 541.6799 113.7116C 542.7755 114.5299 544.3425 114.3837 545.2803 113.3932C 545.8363 112.806 546.0107 112.0679 546.0107 111.2849C 546.0107 110.7378 546.0107 110.1907 546.0107 109.6436C 546.0107 107.7923 546.0107 105.9411 546.0107 104.0922C 546.0107 102.6937 546.0107 101.2953 546.0107 99.89682C 546.0107 99.82372 546.0107 99.74825 546.0107 99.67514C 546.0107 98.91578 547.1794 98.91578 547.1888 99.67514C 547.21 101.4179 548.8759 102.7527 550.5842 102.2975C 551.522 102.0476 552.2642 101.3047 552.5116 100.3685C 552.6483 99.85437 552.6011 99.29074 552.6011 98.76485C 552.6011 98.22952 552.6011 97.69655 552.6011 97.16122C 552.6011 96.40186 553.7698 96.40186 553.7793 97.16122C 553.8005 98.90634 555.4664 100.2317 557.177 99.78127C 558.1124 99.53365 558.857 98.78607 559.1044 97.8522C 559.2387 97.34988 559.1916 96.80512 559.1916 96.29102C 559.1916 95.75098 559.1916 95.21093 559.1916 94.67088C 559.1916 93.91151 560.3603 93.91151 560.3698 94.67088C 560.3862 96.01274 561.3923 97.20839 562.7472 97.36403C 564.3565 97.54797 565.7585 96.27923 565.782 94.67088C 565.782 91.58154 565.782 88.49457 565.782 85.40523C 565.782 83.82282 565.782 82.23807 565.782 80.65566C 565.7844 79.25249 565.8104 77.83046 565.4687 76.46501zM566.9625 82.47626C 566.9625 85.73539 566.9625 88.99216 566.9625 92.2513C 566.9625 93.05547 566.9625 93.862 566.9625 94.66617C 566.9366 96.40186 565.7773 97.97247 564.0809 98.4229C 562.7425 98.77664 561.3217 98.37574 560.3533 97.42535C 560.3297 97.76259 560.2755 98.09982 560.16 98.42526C 559.7288 99.62798 558.7345 100.5831 557.4927 100.9132C 556.4065 101.201 555.1883 101.0029 554.2717 100.3449C 554.0903 100.2152 553.923 100.0713 553.7675 99.91569C 553.744 100.2624 553.6898 100.6067 553.5719 100.9415C 553.1454 102.1325 552.1747 103.0734 550.9494 103.4177C 549.8514 103.7243 548.612 103.5262 547.6837 102.8612C 547.5093 102.7362 547.3467 102.597 547.1959 102.4485C 547.1959 102.59 547.1959 102.7291 547.1959 102.8706C 547.1959 104.8067 547.1959 106.7429 547.1959 108.6767C 547.1959 109.3936 547.1959 110.1081 547.1959 110.8251C 547.1959 111.2944 547.2076 111.7542 547.1323 112.2188C 546.8589 113.9262 545.3839 115.2138 543.6968 115.4001C 542.2313 115.5628 540.768 114.8129 539.9975 113.563C 539.399 112.5914 539.4273 111.5514 539.4273 110.4713C 539.4273 109.1578 539.4273 107.8419 539.4273 106.5283C 539.4273 104.6487 539.4273 102.7692 539.4273 100.892C 539.4273 98.90399 539.4273 96.91596 539.4273 94.92558C 539.4273 93.28423 539.4273 91.64522 539.4273 90.00386C 539.4273 89.44967 539.4178 88.89076 539.4178 88.33656C 538.6686 88.77048 537.9169 89.20441 537.1677 89.63597C 536.7624 89.86945 536.3571 90.10527 535.9495 90.33873C 535.285 90.72313 534.6299 91.16177 533.8641 91.30327C 532.3656 91.57919 530.8976 90.99669 530.0305 89.73973C 529.3448 88.74925 529.1752 87.39561 529.5923 86.26363C 529.915 85.38872 530.53 84.79207 531.171 84.15062C 532.2784 83.04223 533.3882 81.93148 534.4957 80.82309C 536.8142 78.50255 539.1304 76.18437 541.449 73.86383C 542.0262 73.28606 542.6012 72.71063 543.1785 72.13286C 543.6591 71.65177 544.1163 71.13058 544.637 70.69196C 545.1766 70.23917 545.7774 69.95381 546.4725 69.83826C 547.2407 69.71091 548.0229 69.71327 548.7982 69.65903C 550.4286 69.54584 552.0616 69.45386 553.6945 69.36424C 555.2661 69.27699 556.8401 69.1685 558.4093 69.34773C 559.9174 69.51989 561.3617 69.92551 562.6459 70.75091C 563.8005 71.49376 564.7806 72.4866 565.5205 73.64215C 566.3311 74.90854 566.7387 76.31407 566.8848 77.80215C 567.0285 79.35626 566.9625 80.92686 566.9625 82.47626z" stroke="none" fill="#000000" fill-rule="nonzero" /></g><g clip-path="url(#16)"></g><g clip-path="url(#17)"><g clip-path="url(#18)"><g clip-path="url(#19)"><g clip-path="url(#20)"><path id="132" transform="matrix(1 0 0 -1 0 842)" d="M18.05204 384.3486L424.0106 384.3486L424.0106 226.6469L18.05204 226.6469z" stroke="none" fill="#235B91" fill-rule="nonzero" /></g></g></g></g><g clip-path="url(#21)"><g transform="matrix(0.4976076 0 0 0.4976076 45.37867 466.8184)"><g transform="matrix(1 0 0 1 0 0)"><image x="0" y="0" xlink:href="img_04.png" width="256" height="256" /></g></g></g><g clip-path="url(#22)"><path id="488" transform="matrix(1 0 0 -1 0 842)" d="M220.9248 226.6469L220.9248 156.1602C 220.9248 143.7338 230.9984 133.6602 243.4248 133.6602L243.4248 133.6602L311.5052 133.6602" stroke="#000000" stroke-width="4.5" fill="none" /><path id="489" transform="matrix(1 0 0 -1 0 842)" d="M312.6302 140.4102L321.6302 133.6602L312.6302 126.9102L312.6302 140.4102z" stroke="none" fill="#000000" fill-rule="nonzero" /><path id="490" transform="matrix(1 0 0 -1 0 842)" d="M312.6302 140.4102L321.6302 133.6602L321.6302 133.6602L312.6302 126.9102L312.6302 126.9102L312.6302 140.4102z" stroke="#000000" stroke-width="4.5" stroke-linecap="round" fill="none" /></g></g></g></svg>