<svg xmlns="http://www.w3.org/2000/svg" xmlns:xlink="http://www.w3.org/1999/xlink" id="body_1" preserveAspectRatio="xMinYMin meet" viewBox="0 0 793 1123"><defs><clipPath id="1"><path id="" clip-rule="evenodd" transform="matrix(1 0 0 1 0 0)" d="M0 842L0 -0.250061L0 -0.250061L595.5 -0.250061L595.5 -0.250061L595.5 842L595.5 842L0 842z" /></clipPath><clipPath id="2"><path id="" clip-rule="evenodd" transform="matrix(1 0 0 1 0 0)" d="M0 -0.25L595.5 -0.25L595.5 -0.25L595.5 842.0012L595.5 842.0012L0 842.0012z" /></clipPath><clipPath id="3"><path id="" clip-rule="evenodd" transform="matrix(1 0 0 1 0 0)" d="M0 -0.25L595.5 -0.25L595.5 -0.25L595.5 842.0012L595.5 842.0012L0 842.0012z" /></clipPath><clipPath id="4"><path id="" clip-rule="evenodd" transform="matrix(1 0 0 1 0 0)" d="M0 -0.25L595.5 -0.25L595.5 -0.25L595.5 842.0012L595.5 842.0012L0 842.0012z" /></clipPath><clipPath id="5"><path id="" clip-rule="evenodd" transform="matrix(1 0 0 1 0 0)" d="M92.39999 34.31006L535.92 34.31006L535.92 34.31006L535.92 814.55L535.92 814.55L92.39999 814.55z" /></clipPath><clipPath id="6"><path id="" clip-rule="evenodd" transform="matrix(1 0 0 1 0 0)" d="M93.24462 34.37628L535.7446 34.37628L535.7446 34.37628L535.7446 814.3763L535.7446 814.3763L93.24462 814.3763z" /></clipPath><clipPath id="7"><path id="" clip-rule="evenodd" transform="matrix(1 0 0 1 0 0)" d="M0 -0.25L595.5 -0.25L595.5 -0.25L595.5 842.0012L595.5 842.0012L0 842.0012z" /></clipPath><clipPath id="8"><path id="" clip-rule="evenodd" transform="matrix(1 0 0 1 0 0)" d="M0 -0.25L595.5 -0.25L595.5 -0.25L595.5 842.0012L595.5 842.0012L0 842.0012z" /></clipPath><clipPath id="9"><path id="" clip-rule="evenodd" transform="matrix(1 0 0 1 0 0)" d="M36.06024 27.12726L309.7346 27.12726L309.7346 27.12726L309.7346 246.7537L309.7346 246.7537L36.06024 246.7537z" /></clipPath><clipPath id="10"><path id="" clip-rule="evenodd" transform="matrix(1 0 0 1 0 0)" d="M63.81024 27.12726L281.952 27.12726C 289.3128 27.12726 296.3712 30.05096 301.5744 35.25513C 306.7776 40.45929 309.7032 47.5177 309.7032 54.87726L309.7032 54.87726L309.7032 219.0037C 309.7032 226.3635 306.7776 233.4219 301.5744 238.6261C 296.3712 243.83 289.3128 246.7532 281.952 246.7532L281.952 246.7532L63.81024 246.7532C 56.4504 246.7532 49.39224 243.83 44.18808 238.6261C 38.98392 233.4219 36.06024 226.3635 36.06024 219.0037L36.06024 219.0037L36.06024 54.87726C 36.06024 47.5177 38.98392 40.45929 44.18808 35.25513C 49.39224 30.05096 56.4504 27.12726 63.81024 27.12726z" /></clipPath><clipPath id="11"><path id="" clip-rule="evenodd" transform="matrix(1 0 0 1 0 0)" d="M53.82624 219.5631L291.5762 219.5631L291.5762 219.5631L291.5762 224.8131L291.5762 224.8131L53.82624 224.8131z" /></clipPath><clipPath id="12"><path id="" clip-rule="evenodd" transform="matrix(1 0 0 1 0 0)" d="M53.76 219.59L291.6 219.59L291.6 219.59L291.6 224.8701L291.6 224.8701L53.76 224.8701z" /></clipPath><mask id="m1"><clipPath id="13"><path id="" clip-rule="evenodd" transform="matrix(1 0 0 1 0 0)" d="M53.76 219.59L291.6 219.59L291.6 219.59L291.6 224.8701L291.6 224.8701L53.76 224.8701z" /></clipPath><g><g><g clip-path="url(#13)"><path id="5" transform="matrix(1 0 0 -1 0 842)" d="M53.76 622.41L291.6 622.41L291.6 617.1299L53.76 617.1299z" stroke="none" fill="#000000" fill-rule="nonzero" /></g></g></g></mask><clipPath id="14"><path id="" clip-rule="evenodd" transform="matrix(1 0 0 1 0 0)" d="M53.76 219.59L291.6 219.59L291.6 219.59L291.6 224.8701L291.6 224.8701L53.76 224.8701z" /></clipPath><clipPath id="15"><path id="" clip-rule="evenodd" transform="matrix(1 0 0 1 0 0)" d="M53.52 219.6453L291.84 219.6453L291.84 219.6453L291.84 224.9066L291.84 224.9066L53.52 224.9066z" /></clipPath><mask id="m2"><clipPath id="16"><path id="" clip-rule="evenodd" transform="matrix(1 0 0 1 0 0)" d="M53.76 219.59L291.6 219.59L291.6 219.59L291.6 224.8701L291.6 224.8701L53.76 224.8701z" /></clipPath><clipPath id="17"><path id="" clip-rule="evenodd" transform="matrix(1 0 0 1 0 0)" d="M53.76 219.59L291.6 219.59L291.6 219.59L291.6 224.8701L291.6 224.8701L53.76 224.8701z" /></clipPath><clipPath id="18"><path id="" clip-rule="evenodd" transform="matrix(1 0 0 1 0 0)" d="M53.84866 219.6453L291.564 219.6453L291.564 219.6453L291.564 224.6961L291.564 224.6961L53.84866 224.6961z" /></clipPath><g><g><g clip-path="url(#16)"><g><g clip-path="url(#17)"><g clip-path="url(#18)"><g transform="matrix(0.24 0 0 0.24 53.76 219.59)"><g transform="matrix(1 0 0 1 0 0)"><image x="0" y="0" xlink:href="img_02.png" width="991" height="22" /></g></g></g></g></g></g></g></g></mask><clipPath id="19"><path id="" clip-rule="evenodd" transform="matrix(1 0 0 1 0 0)" d="M53.76 219.59L291.6 219.59L291.6 219.59L291.6 224.8701L291.6 224.8701L53.76 224.8701z" /></clipPath><clipPath id="20"><path id="" clip-rule="evenodd" transform="matrix(1 0 0 1 0 0)" d="M53.52 219.6453L291.84 219.6453L291.84 219.6453L291.84 224.9066L291.84 224.9066L53.52 224.9066z" /></clipPath><clipPath id="21"><path id="" clip-rule="evenodd" transform="matrix(1 0 0 1 0 0)" d="M0 -0.25L595.5 -0.25L595.5 -0.25L595.5 842.0012L595.5 842.0012L0 842.0012z" /></clipPath><clipPath id="22"><path id="" clip-rule="evenodd" transform="matrix(1 0 0 1 0 0)" d="M0 -0.25L595.5 -0.25L595.5 -0.25L595.5 842.0012L595.5 842.0012L0 842.0012z" /></clipPath><clipPath id="23"><path id="" clip-rule="evenodd" transform="matrix(1 0 0 1 0 0)" d="M50.81736 85.76025L172.9459 85.76025L172.9459 85.76025L172.9459 185.9681L172.9459 185.9681L50.81736 185.9681z" /></clipPath><clipPath id="24"><path id="" clip-rule="evenodd" transform="matrix(1 0 0 1 0 0)" d="M63.56736 85.76025L160.1313 85.76025C 167.173 85.76025 172.8813 91.46863 172.8813 98.51025L172.8813 98.51025L172.8813 173.2184C 172.8813 180.26 167.173 185.9684 160.1313 185.9684L160.1313 185.9684L63.56736 185.9684C 56.52576 185.9684 50.81736 180.26 50.81736 173.2184L50.81736 173.2184L50.81736 98.51025C 50.81736 91.46863 56.52576 85.76025 63.56736 85.76025z" /></clipPath><clipPath id="25"><path id="" clip-rule="evenodd" transform="matrix(1 0 0 1 0 0)" d="M50.81736 85.76025L172.9459 85.76025L172.9459 85.76025L172.9459 185.9681L172.9459 185.9681L50.81736 185.9681z" /></clipPath><clipPath id="26"><path id="" clip-rule="evenodd" transform="matrix(1 0 0 1 0 0)" d="M0 -0.25L595.5 -0.25L595.5 -0.25L595.5 842.0012L595.5 842.0012L0 842.0012z" /></clipPath><clipPath id="27"><path id="" clip-rule="evenodd" transform="matrix(1 0 0 1 0 0)" d="M0 -0.25L595.5 -0.25L595.5 -0.25L595.5 842.0012L595.5 842.0012L0 842.0012z" /></clipPath><clipPath id="28"><path id="" clip-rule="evenodd" transform="matrix(1 0 0 1 0 0)" d="M179.2135 110.8844L296.9923 110.8844L296.9923 110.8844L296.9923 195.5792L296.9923 195.5792L179.2135 195.5792z" /></clipPath><clipPath id="29"><path id="" clip-rule="evenodd" transform="matrix(1 0 0 1 0 0)" d="M191.9635 110.8844L284.1528 110.8844C 291.1944 110.8844 296.904 116.5928 296.904 123.6344L296.904 123.6344L296.904 182.8292C 296.904 189.8708 291.1944 195.5792 284.1528 195.5792L284.1528 195.5792L191.9635 195.5792C 184.9219 195.5792 179.2135 189.8708 179.2135 182.8292L179.2135 182.8292L179.2135 123.6344C 179.2135 116.5928 184.9219 110.8844 191.9635 110.8844z" /></clipPath><clipPath id="30"><path id="" clip-rule="evenodd" transform="matrix(1 0 0 1 0 0)" d="M179.2135 110.8844L296.9923 110.8844L296.9923 110.8844L296.9923 195.5792L296.9923 195.5792L179.2135 195.5792z" /></clipPath><clipPath id="31"><path id="" clip-rule="evenodd" transform="matrix(1 0 0 1 0 0)" d="M0 -0.25L595.5 -0.25L595.5 -0.25L595.5 842.0012L595.5 842.0012L0 842.0012z" /></clipPath><clipPath id="32"><path id="" clip-rule="evenodd" transform="matrix(1 0 0 1 0 0)" d="M0 -0.25L595.5 -0.25L595.5 -0.25L595.5 842.0012L595.5 842.0012L0 842.0012z" /></clipPath><clipPath id="33"><path id="" clip-rule="evenodd" transform="matrix(1 0 0 1 0 0)" d="M36.06024 270.7532L279.1971 270.7532L279.1971 270.7532L279.1971 512.0036L279.1971 512.0036L36.06024 512.0036z" /></clipPath><clipPath id="34"><path id="" clip-rule="evenodd" transform="matrix(1 0 0 1 0 0)" d="M63.81024 270.7532L250.9272 270.7532C 258.288 270.7532 265.3464 273.6764 270.5496 278.882C 275.7528 284.0852 278.6784 291.1436 278.6784 298.5044L278.6784 298.5044L278.6784 484.2548C 278.6784 491.6156 275.7528 498.674 270.5496 503.8772C 265.3464 509.0804 258.288 512.0035 250.9272 512.0035L250.9272 512.0035L63.81024 512.0035C 56.4504 512.0035 49.39224 509.0804 44.18808 503.8772C 38.98392 498.674 36.06024 491.6156 36.06024 484.2548L36.06024 484.2548L36.06024 298.5044C 36.06024 291.1436 38.98392 284.0852 44.18808 278.882C 49.39224 273.6764 56.4504 270.7532 63.81024 270.7532z" /></clipPath><clipPath id="35"><path id="" clip-rule="evenodd" transform="matrix(1 0 0 1 0 0)" d="M44.85672 476.8196L278.1067 476.8196L278.1067 476.8196L278.1067 482.0696L278.1067 482.0696L44.85672 482.0696z" /></clipPath><clipPath id="36"><path id="" clip-rule="evenodd" transform="matrix(1 0 0 1 0 0)" d="M44.64 476.87L278.16 476.87L278.16 476.87L278.16 482.15L278.16 482.15L44.64 482.15z" /></clipPath><mask id="m3"><clipPath id="37"><path id="" clip-rule="evenodd" transform="matrix(1 0 0 1 0 0)" d="M44.64 476.87L278.16 476.87L278.16 476.87L278.16 482.15L278.16 482.15L44.64 482.15z" /></clipPath><g><g><g clip-path="url(#37)"><path id="12" transform="matrix(1 0 0 -1 0 842)" d="M44.64 365.13L278.16 365.13L278.16 359.85L44.64 359.85z" stroke="none" fill="#000000" fill-rule="nonzero" /></g></g></g></mask><clipPath id="38"><path id="" clip-rule="evenodd" transform="matrix(1 0 0 1 0 0)" d="M44.64 476.87L278.16 476.87L278.16 476.87L278.16 482.15L278.16 482.15L44.64 482.15z" /></clipPath><clipPath id="39"><path id="" clip-rule="evenodd" transform="matrix(1 0 0 1 0 0)" d="M44.39999 476.9005L278.4 476.9005L278.4 476.9005L278.4 482.1644L278.4 482.1644L44.39999 482.1644z" /></clipPath><mask id="m4"><clipPath id="40"><path id="" clip-rule="evenodd" transform="matrix(1 0 0 1 0 0)" d="M44.64 476.87L278.16 476.87L278.16 476.87L278.16 482.15L278.16 482.15L44.64 482.15z" /></clipPath><clipPath id="41"><path id="" clip-rule="evenodd" transform="matrix(1 0 0 1 0 0)" d="M44.64 476.87L278.16 476.87L278.16 476.87L278.16 482.15L278.16 482.15L44.64 482.15z" /></clipPath><clipPath id="42"><path id="" clip-rule="evenodd" transform="matrix(1 0 0 1 0 0)" d="M44.87891 476.9005L278.0949 476.9005L278.0949 476.9005L278.0949 481.9538L278.0949 481.9538L44.87891 481.9538z" /></clipPath><g><g><g clip-path="url(#40)"><g><g clip-path="url(#41)"><g clip-path="url(#42)"><g transform="matrix(0.24 0 0 0.24 44.64 476.87)"><g transform="matrix(1 0 0 1 0 0)"><image x="0" y="0" xlink:href="img_05.png" width="973" height="22" /></g></g></g></g></g></g></g></g></mask><clipPath id="43"><path id="" clip-rule="evenodd" transform="matrix(1 0 0 1 0 0)" d="M44.64 476.87L278.16 476.87L278.16 476.87L278.16 482.15L278.16 482.15L44.64 482.15z" /></clipPath><clipPath id="44"><path id="" clip-rule="evenodd" transform="matrix(1 0 0 1 0 0)" d="M44.39999 476.9005L278.4 476.9005L278.4 476.9005L278.4 482.1644L278.4 482.1644L44.39999 482.1644z" /></clipPath><clipPath id="45"><path id="" clip-rule="evenodd" transform="matrix(1 0 0 1 0 0)" d="M0 -0.25L595.5 -0.25L595.5 -0.25L595.5 842.0012L595.5 842.0012L0 842.0012z" /></clipPath><clipPath id="46"><path id="" clip-rule="evenodd" transform="matrix(1 0 0 1 0 0)" d="M0 -0.25L595.5 -0.25L595.5 -0.25L595.5 842.0012L595.5 842.0012L0 842.0012z" /></clipPath><clipPath id="47"><path id="" clip-rule="evenodd" transform="matrix(1 0 0 1 0 0)" d="M71.61432 338.762L251.9246 338.762L251.9246 338.762L251.9246 474.9255L251.9246 474.9255L71.61432 474.9255z" /></clipPath><clipPath id="48"><path id="" clip-rule="evenodd" transform="matrix(1 0 0 1 0 0)" d="M84.36432 338.762L238.7301 338.762C 245.772 338.762 251.4792 344.4716 251.4792 351.5132L251.4792 351.5132L251.4792 462.1772C 251.4792 469.2188 245.772 474.926 238.7301 474.926L238.7301 474.926L84.36432 474.926C 77.32272 474.926 71.61432 469.2188 71.61432 462.1772L71.61432 462.1772L71.61432 351.5132C 71.61432 344.4716 77.32272 338.762 84.36432 338.762z" /></clipPath><clipPath id="49"><path id="" clip-rule="evenodd" transform="matrix(1 0 0 1 0 0)" d="M71.61432 338.762L251.3925 338.762L251.3925 338.762L251.3925 474.9255L251.3925 474.9255L71.61432 474.9255z" /></clipPath><clipPath id="50"><path id="" clip-rule="evenodd" transform="matrix(1 0 0 1 0 0)" d="M0 -0.25L595.5 -0.25L595.5 -0.25L595.5 842.0012L595.5 842.0012L0 842.0012z" /></clipPath><clipPath id="51"><path id="" clip-rule="evenodd" transform="matrix(1 0 0 1 0 0)" d="M0 -0.25L595.5 -0.25L595.5 -0.25L595.5 842.0012L595.5 842.0012L0 842.0012z" /></clipPath><clipPath id="52"><path id="" clip-rule="evenodd" transform="matrix(1 0 0 1 0 0)" d="M34.81296 542.0035L282.3466 542.0035L282.3466 542.0035L282.3466 814.6771L282.3466 814.6771L34.81296 814.6771z" /></clipPath><clipPath id="53"><path id="" clip-rule="evenodd" transform="matrix(1 0 0 1 0 0)" d="M62.56295 542.0035L254.5968 542.0035C 261.9576 542.0035 269.016 544.9292 274.2192 550.1324C 279.4224 555.3356 282.348 562.394 282.348 569.7548L282.348 569.7548L282.348 786.5132C 282.348 793.8716 279.4224 800.93 274.2192 806.1356C 269.016 811.3388 261.9576 814.262 254.5968 814.262L254.5968 814.262L62.56295 814.262C 55.20312 814.262 48.14496 811.3388 42.9408 806.1356C 37.73664 800.93 34.81296 793.8716 34.81296 786.5132L34.81296 786.5132L34.81296 569.7548C 34.81296 562.394 37.73664 555.3356 42.9408 550.1324C 48.14496 544.9292 55.20312 542.0035 62.56295 542.0035z" /></clipPath><clipPath id="54"><path id="" clip-rule="evenodd" transform="matrix(1 0 0 1 0 0)" d="M36.06024 772.7516L273.8102 772.7516L273.8102 772.7516L273.8102 778.0016L273.8102 778.0016L36.06024 778.0016z" /></clipPath><clipPath id="55"><path id="" clip-rule="evenodd" transform="matrix(1 0 0 1 0 0)" d="M36 772.79L273.84 772.79L273.84 772.79L273.84 778.07L273.84 778.07L36 778.07z" /></clipPath><mask id="m5"><clipPath id="56"><path id="" clip-rule="evenodd" transform="matrix(1 0 0 1 0 0)" d="M36 772.79L273.84 772.79L273.84 772.79L273.84 778.07L273.84 778.07L36 778.07z" /></clipPath><g><g><g clip-path="url(#56)"><path id="18" transform="matrix(1 0 0 -1 0 842)" d="M36 69.21001L273.84 69.21001L273.84 63.93002L36 63.93002z" stroke="none" fill="#000000" fill-rule="nonzero" /></g></g></g></mask><clipPath id="57"><path id="" clip-rule="evenodd" transform="matrix(1 0 0 1 0 0)" d="M36 772.79L273.84 772.79L273.84 772.79L273.84 778.07L273.84 778.07L36 778.07z" /></clipPath><clipPath id="58"><path id="" clip-rule="evenodd" transform="matrix(1 0 0 1 0 0)" d="M35.75999 772.8337L274.08 772.8337L274.08 772.8337L274.08 778.0949L274.08 778.0949L35.75999 778.0949z" /></clipPath><mask id="m6"><clipPath id="59"><path id="" clip-rule="evenodd" transform="matrix(1 0 0 1 0 0)" d="M36 772.79L273.84 772.79L273.84 772.79L273.84 778.07L273.84 778.07L36 778.07z" /></clipPath><clipPath id="60"><path id="" clip-rule="evenodd" transform="matrix(1 0 0 1 0 0)" d="M36 772.79L273.84 772.79L273.84 772.79L273.84 778.07L273.84 778.07L36 778.07z" /></clipPath><clipPath id="61"><path id="" clip-rule="evenodd" transform="matrix(1 0 0 1 0 0)" d="M36.08272 772.8337L273.7981 772.8337L273.7981 772.8337L273.7981 777.8845L273.7981 777.8845L36.08272 777.8845z" /></clipPath><g><g><g clip-path="url(#59)"><g><g clip-path="url(#60)"><g clip-path="url(#61)"><g transform="matrix(0.24 0 0 0.24 36 772.79)"><g transform="matrix(1 0 0 1 0 0)"><image x="0" y="0" xlink:href="img_07.png" width="991" height="22" /></g></g></g></g></g></g></g></g></mask><clipPath id="62"><path id="" clip-rule="evenodd" transform="matrix(1 0 0 1 0 0)" d="M36 772.79L273.84 772.79L273.84 772.79L273.84 778.07L273.84 778.07L36 778.07z" /></clipPath><clipPath id="63"><path id="" clip-rule="evenodd" transform="matrix(1 0 0 1 0 0)" d="M35.75999 772.8337L274.08 772.8337L274.08 772.8337L274.08 778.0949L274.08 778.0949L35.75999 778.0949z" /></clipPath><clipPath id="64"><path id="" clip-rule="evenodd" transform="matrix(1 0 0 1 0 0)" d="M0 -0.25L595.5 -0.25L595.5 -0.25L595.5 842.0012L595.5 842.0012L0 842.0012z" /></clipPath><clipPath id="65"><path id="" clip-rule="evenodd" transform="matrix(1 0 0 1 0 0)" d="M0 -0.25L595.5 -0.25L595.5 -0.25L595.5 842.0012L595.5 842.0012L0 842.0012z" /></clipPath><clipPath id="66"><path id="" clip-rule="evenodd" transform="matrix(1 0 0 1 0 0)" d="M53.40744 598.1588L270.0622 598.1588L270.0622 598.1588L270.0622 762.2524L270.0622 762.2524L53.40744 762.2524z" /></clipPath><clipPath id="67"><path id="" clip-rule="evenodd" transform="matrix(1 0 0 1 0 0)" d="M66.15744 598.1588L256.9368 598.1588C 260.3184 598.1588 263.5608 599.5004 265.9536 601.8932C 268.344 604.2836 269.688 607.5259 269.688 610.9076L269.688 610.9076L269.688 749.5004C 269.688 752.882 268.344 756.1268 265.9536 758.5172C 263.5608 760.9076 260.3184 762.2516 256.9368 762.2516L256.9368 762.2516L66.15744 762.2516C 62.77607 762.2516 59.53296 760.9076 57.14184 758.5172C 54.75072 756.1268 53.40744 752.882 53.40744 749.5004L53.40744 749.5004L53.40744 610.9076C 53.40744 607.5259 54.75072 604.2836 57.14184 601.8932C 59.53296 599.5004 62.77607 598.1588 66.15744 598.1588z" /></clipPath><clipPath id="68"><path id="" clip-rule="evenodd" transform="matrix(1 0 0 1 0 0)" d="M53.40744 598.1588L269.4214 598.1588L269.4214 598.1588L269.4214 762.2524L269.4214 762.2524L53.40744 762.2524z" /></clipPath><clipPath id="69"><path id="" clip-rule="evenodd" transform="matrix(1 0 0 1 0 0)" d="M0 -0.25L595.5 -0.25L595.5 -0.25L595.5 842.0012L595.5 842.0012L0 842.0012z" /></clipPath><clipPath id="70"><path id="" clip-rule="evenodd" transform="matrix(1 0 0 1 0 0)" d="M0 -0.25L595.5 -0.25L595.5 -0.25L595.5 842.0012L595.5 842.0012L0 842.0012z" /></clipPath><clipPath id="71"><path id="" clip-rule="evenodd" transform="matrix(1 0 0 1 0 0)" d="M0 -0.25L595.5 -0.25L595.5 -0.25L595.5 842.0012L595.5 842.0012L0 842.0012z" /></clipPath><clipPath id="72"><path id="" clip-rule="evenodd" transform="matrix(1 0 0 1 0 0)" d="M312.1608 181.2731L554.9568 181.2731L554.9568 181.2731L554.9568 418.5087L554.9568 418.5087L312.1608 418.5087z" /></clipPath><clipPath id="73"><path id="" clip-rule="evenodd" transform="matrix(1 0 0 1 0 0)" d="M339.9096 181.2731L527.028 181.2731C 534.3888 181.2731 541.4448 184.1967 546.6504 189.4009C 551.8536 194.605 554.7768 201.6635 554.7768 209.0231L554.7768 209.0231L554.7768 390.758C 554.7768 398.1188 551.8536 405.1772 546.6504 410.3804C 541.4448 415.586 534.3888 418.5092 527.028 418.5092L527.028 418.5092L339.9096 418.5092C 332.5512 418.5092 325.4928 415.586 320.2896 410.3804C 315.084 405.1772 312.1608 398.1188 312.1608 390.758L312.1608 390.758L312.1608 209.0231C 312.1608 201.6635 315.084 194.605 320.2896 189.4009C 325.4928 184.1967 332.5512 181.2731 339.9096 181.2731z" /></clipPath><clipPath id="74"><path id="" clip-rule="evenodd" transform="matrix(1 0 0 1 0 0)" d="M320.9568 383.3228L554.2067 383.3228L554.2067 383.3228L554.2067 388.5728L554.2067 388.5728L320.9568 388.5728z" /></clipPath><clipPath id="75"><path id="" clip-rule="evenodd" transform="matrix(1 0 0 1 0 0)" d="M320.88 383.27L554.4 383.27L554.4 383.27L554.4 388.79L554.4 388.79L320.88 388.79z" /></clipPath><mask id="m7"><clipPath id="76"><path id="" clip-rule="evenodd" transform="matrix(1 0 0 1 0 0)" d="M320.88 383.27L554.4 383.27L554.4 383.27L554.4 388.79L554.4 388.79L320.88 388.79z" /></clipPath><g><g><g clip-path="url(#76)"><path id="234" transform="matrix(1 0 0 -1 0 842)" d="M320.88 458.73L554.4 458.73L554.4 453.21L320.88 453.21z" stroke="none" fill="#000000" fill-rule="nonzero" /></g></g></g></mask><clipPath id="77"><path id="" clip-rule="evenodd" transform="matrix(1 0 0 1 0 0)" d="M320.88 383.27L554.4 383.27L554.4 383.27L554.4 388.79L554.4 388.79L320.88 388.79z" /></clipPath><clipPath id="78"><path id="" clip-rule="evenodd" transform="matrix(1 0 0 1 0 0)" d="M320.64 383.4048L554.64 383.4048L554.64 383.4048L554.64 388.6686L554.64 388.6686L320.64 388.6686z" /></clipPath><mask id="m8"><clipPath id="79"><path id="" clip-rule="evenodd" transform="matrix(1 0 0 1 0 0)" d="M320.88 383.27L554.4 383.27L554.4 383.27L554.4 388.79L554.4 388.79L320.88 388.79z" /></clipPath><clipPath id="80"><path id="" clip-rule="evenodd" transform="matrix(1 0 0 1 0 0)" d="M320.88 383.27L554.4 383.27L554.4 383.27L554.4 388.79L554.4 388.79L320.88 388.79z" /></clipPath><clipPath id="81"><path id="" clip-rule="evenodd" transform="matrix(1 0 0 1 0 0)" d="M320.9793 383.4048L554.1953 383.4048L554.1953 383.4048L554.1953 388.458L554.1953 388.458L320.9793 388.458z" /></clipPath><g><g><g clip-path="url(#79)"><g><g clip-path="url(#80)"><g clip-path="url(#81)"><g transform="matrix(0.24 0 0 0.24 320.88 383.2701)"><g transform="matrix(1 0 0 1 0 0)"><image x="0" y="0" xlink:href="img_09.png" width="973" height="22" /></g></g></g></g></g></g></g></g></mask><clipPath id="82"><path id="" clip-rule="evenodd" transform="matrix(1 0 0 1 0 0)" d="M320.88 383.27L554.4 383.27L554.4 383.27L554.4 388.79L554.4 388.79L320.88 388.79z" /></clipPath><clipPath id="83"><path id="" clip-rule="evenodd" transform="matrix(1 0 0 1 0 0)" d="M320.64 383.4048L554.64 383.4048L554.64 383.4048L554.64 388.6686L554.64 388.6686L320.64 388.6686z" /></clipPath><clipPath id="84"><path id="" clip-rule="evenodd" transform="matrix(1 0 0 1 0 0)" d="M0 -0.25L595.5 -0.25L595.5 -0.25L595.5 842.0012L595.5 842.0012L0 842.0012z" /></clipPath><clipPath id="85"><path id="" clip-rule="evenodd" transform="matrix(1 0 0 1 0 0)" d="M0 -0.25L595.5 -0.25L595.5 -0.25L595.5 842.0012L595.5 842.0012L0 842.0012z" /></clipPath><clipPath id="86"><path id="" clip-rule="evenodd" transform="matrix(1 0 0 1 0 0)" d="M351.1992 245.2676L516.0847 245.2676L516.0847 245.2676L516.0847 381.4311L516.0847 381.4311L351.1992 381.4311z" /></clipPath><clipPath id="87"><path id="" clip-rule="evenodd" transform="matrix(1 0 0 1 0 0)" d="M363.9504 245.2676L502.9896 245.2676C 510.0312 245.2676 515.7383 250.9748 515.7383 258.0164L515.7383 258.0164L515.7383 368.6804C 515.7383 375.722 510.0312 381.4292 502.9896 381.4292L502.9896 381.4292L363.9504 381.4292C 356.9088 381.4292 351.1992 375.722 351.1992 368.6804L351.1992 368.6804L351.1992 258.0164C 351.1992 250.9748 356.9088 245.2676 363.9504 245.2676z" /></clipPath><clipPath id="88"><path id="" clip-rule="evenodd" transform="matrix(1 0 0 1 0 0)" d="M351.1992 245.2676L515.5529 245.2676L515.5529 245.2676L515.5529 381.4311L515.5529 381.4311L351.1992 381.4311z" /></clipPath><clipPath id="89"><path id="" clip-rule="evenodd" transform="matrix(1 0 0 1 0 0)" d="M0 -0.25L595.5 -0.25L595.5 -0.25L595.5 842.0012L595.5 842.0012L0 842.0012z" /></clipPath><clipPath id="90"><path id="" clip-rule="evenodd" transform="matrix(1 0 0 1 0 0)" d="M0 -0.25L595.5 -0.25L595.5 -0.25L595.5 842.0012L595.5 842.0012L0 842.0012z" /></clipPath><clipPath id="91"><path id="" clip-rule="evenodd" transform="matrix(1 0 0 1 0 0)" d="M309.7032 451.2668L557.2368 451.2668L557.2368 451.2668L557.2368 756.8156L557.2368 756.8156L309.7032 756.8156z" /></clipPath><clipPath id="92"><path id="" clip-rule="evenodd" transform="matrix(1 0 0 1 0 0)" d="M337.452 451.2668L529.4856 451.2668C 536.8464 451.2668 543.9048 454.19 549.108 459.3956C 554.3135 464.5988 557.2368 471.6572 557.2368 479.018L557.2368 479.018L557.2368 728.7644C 557.2368 736.1252 554.3135 743.1835 549.108 748.3868C 543.9048 753.59 536.8464 756.5132 529.4856 756.5132L529.4856 756.5132L337.452 756.5132C 330.0936 756.5132 323.0352 753.59 317.8296 748.3868C 312.6264 743.1835 309.7032 736.1252 309.7032 728.7644L309.7032 728.7644L309.7032 479.018C 309.7032 471.6572 312.6264 464.5988 317.8296 459.3956C 323.0352 454.19 330.0936 451.2668 337.452 451.2668z" /></clipPath><clipPath id="93"><path id="" clip-rule="evenodd" transform="matrix(1 0 0 1 0 0)" d="M314.6832 717.4964L552.4332 717.4964L552.4332 717.4964L552.4332 722.7464L552.4332 722.7464L314.6832 722.7464z" /></clipPath><clipPath id="94"><path id="" clip-rule="evenodd" transform="matrix(1 0 0 1 0 0)" d="M314.64 717.35L552.48 717.35L552.48 717.35L552.48 722.87L552.48 722.87L314.64 722.87z" /></clipPath><mask id="m9"><clipPath id="95"><path id="" clip-rule="evenodd" transform="matrix(1 0 0 1 0 0)" d="M314.64 717.35L552.48 717.35L552.48 717.35L552.48 722.87L552.48 722.87L314.64 722.87z" /></clipPath><g><g><g clip-path="url(#95)"><path id="240" transform="matrix(1 0 0 -1 0 842)" d="M314.64 124.65L552.48 124.65L552.48 119.13L314.64 119.13z" stroke="none" fill="#000000" fill-rule="nonzero" /></g></g></g></mask><clipPath id="96"><path id="" clip-rule="evenodd" transform="matrix(1 0 0 1 0 0)" d="M314.64 717.35L552.48 717.35L552.48 717.35L552.48 722.87L552.48 722.87L314.64 722.87z" /></clipPath><clipPath id="97"><path id="" clip-rule="evenodd" transform="matrix(1 0 0 1 0 0)" d="M314.4 717.5789L552.72 717.5789L552.72 717.5789L552.72 722.8401L552.72 722.8401L314.4 722.8401z" /></clipPath><mask id="m10"><clipPath id="98"><path id="" clip-rule="evenodd" transform="matrix(1 0 0 1 0 0)" d="M314.64 717.35L552.48 717.35L552.48 717.35L552.48 722.87L552.48 722.87L314.64 722.87z" /></clipPath><clipPath id="99"><path id="" clip-rule="evenodd" transform="matrix(1 0 0 1 0 0)" d="M314.64 717.35L552.48 717.35L552.48 717.35L552.48 722.87L552.48 722.87L314.64 722.87z" /></clipPath><clipPath id="100"><path id="" clip-rule="evenodd" transform="matrix(1 0 0 1 0 0)" d="M314.7062 717.5789L552.4216 717.5789L552.4216 717.5789L552.4216 722.6296L552.4216 722.6296L314.7062 722.6296z" /></clipPath><g><g><g clip-path="url(#98)"><g><g clip-path="url(#99)"><g clip-path="url(#100)"><g transform="matrix(0.24 0 0 0.24 314.64 717.35)"><g transform="matrix(1 0 0 1 0 0)"><image x="0" y="0" xlink:href="img_11.png" width="991" height="22" /></g></g></g></g></g></g></g></g></mask><clipPath id="101"><path id="" clip-rule="evenodd" transform="matrix(1 0 0 1 0 0)" d="M314.64 717.35L552.48 717.35L552.48 717.35L552.48 722.87L552.48 722.87L314.64 722.87z" /></clipPath><clipPath id="102"><path id="" clip-rule="evenodd" transform="matrix(1 0 0 1 0 0)" d="M314.4 717.5789L552.72 717.5789L552.72 717.5789L552.72 722.8401L552.72 722.8401L314.4 722.8401z" /></clipPath><clipPath id="103"><path id="" clip-rule="evenodd" transform="matrix(1 0 0 1 0 0)" d="M0 -0.25L595.5 -0.25L595.5 -0.25L595.5 842.0012L595.5 842.0012L0 842.0012z" /></clipPath><clipPath id="104"><path id="" clip-rule="evenodd" transform="matrix(1 0 0 1 0 0)" d="M0 -0.25L595.5 -0.25L595.5 -0.25L595.5 842.0012L595.5 842.0012L0 842.0012z" /></clipPath><clipPath id="105"><path id="" clip-rule="evenodd" transform="matrix(1 0 0 1 0 0)" d="M328.2984 541.9628L521.533 541.9628L521.533 541.9628L521.533 706.3085L521.533 706.3085L328.2984 706.3085z" /></clipPath><clipPath id="106"><path id="" clip-rule="evenodd" transform="matrix(1 0 0 1 0 0)" d="M341.0472 541.9628L508.4352 541.9628C 515.4768 541.9628 521.1864 547.6724 521.1864 554.714L521.1864 554.714L521.1864 693.5588C 521.1864 700.6004 515.4768 706.31 508.4352 706.31L508.4352 706.31L341.0472 706.31C 334.0056 706.31 328.2984 700.6004 328.2984 693.5588L328.2984 693.5588L328.2984 554.714C 328.2984 547.6724 334.0056 541.9628 341.0472 541.9628z" /></clipPath><clipPath id="107"><path id="" clip-rule="evenodd" transform="matrix(1 0 0 1 0 0)" d="M328.2984 541.9628L520.8909 541.9628L520.8909 541.9628L520.8909 706.3085L520.8909 706.3085L328.2984 706.3085z" /></clipPath><clipPath id="108"><path id="" clip-rule="evenodd" transform="matrix(1 0 0 1 0 0)" d="M0 -0.25L595.5 -0.25L595.5 -0.25L595.5 842.0012L595.5 842.0012L0 842.0012z" /></clipPath><clipPath id="109"><path id="" clip-rule="evenodd" transform="matrix(1 0 0 1 0 0)" d="M489.3888 8.540771L589.1388 8.540771L589.1388 8.540771L589.1388 64.79077L589.1388 64.79077L489.3888 64.79077z" /></clipPath><clipPath id="110"><path id="" clip-rule="evenodd" transform="matrix(1 0 0 1 0 0)" d="M0 -0.25L595.5 -0.25L595.5 -0.25L595.5 842.0012L595.5 842.0012L0 842.0012z" /></clipPath></defs><g transform="matrix(1.333333 0 0 1.333333 0 0)"><g clip-path="url(#1)"><g clip-path="url(#2)"><path id="1" transform="matrix(1 0 0 -1 0 842)" d="M0 842.25L595.4999 842.25L595.4999 0L0 0z" stroke="none" fill="#FFFFFF" fill-rule="nonzero" /></g><g clip-path="url(#3)"><path id="2" transform="matrix(1 0 0 -1 0 842)" d="M0 842.25L595.4999 842.25L595.4999 0L0 0z" stroke="none" fill="#FFFFFF" fill-rule="nonzero" /></g><g clip-path="url(#4)"><g><g clip-path="url(#5)"><g clip-path="url(#6)"><g transform="matrix(0 0.975 -0.9768211 0 535.7446 34.37634)"><g transform="matrix(1 0 0 1 0 0)"><image x="0" y="0" xlink:href="img_01.png" width="800" height="453" /></g></g></g></g></g></g><g clip-path="url(#7)"><g clip-path="url(#8)"><g clip-path="url(#9)"><g clip-path="url(#10)"><path id="4" transform="matrix(1 0 0 -1 0 842)" d="M36.06024 814.8727L309.7354 814.8727L309.7354 595.2462L36.06024 595.2462z" stroke="none" fill="#1D70B7" fill-rule="nonzero" /></g></g></g></g><g clip-path="url(#11)"><g><g clip-path="url(#12)"><g mask="url(#m1)"><g><g clip-path="url(#14)"><g clip-path="url(#15)"><path id="6" transform="matrix(1 0 0 -1 0 842)" d="M53.84866 622.3546L291.564 622.3546L291.564 617.3038L53.84866 617.3038z" stroke="none" fill="#000000" fill-rule="nonzero" /></g></g></g></g><g mask="url(#m2)"><g><g clip-path="url(#19)"><g clip-path="url(#20)"><path id="8" transform="matrix(1 0 0 -1 0 842)" d="M53.84866 622.3546L291.564 622.3546L291.564 617.3038L53.84866 617.3038z" stroke="none" fill="#000000" fill-rule="nonzero" /></g></g></g></g></g></g></g><g clip-path="url(#21)"><g clip-path="url(#22)"><g clip-path="url(#23)"><g clip-path="url(#24)"><g clip-path="url(#25)"><g transform="matrix(0.4752083 0 0 0.4754369 50.81736 80.54962)"><g transform="matrix(1 0 0 1 0 0)"><image x="0" y="0" xlink:href="img_03.png" width="257" height="233" /></g></g></g></g></g></g></g><g clip-path="url(#26)"><g clip-path="url(#27)"><g clip-path="url(#28)"><g clip-path="url(#29)"><g clip-path="url(#30)"><g transform="matrix(0.4927983 0 0 0.4942334 179.2135 92.75647)"><g transform="matrix(1 0 0 1 0 0)"><image x="0" y="0" xlink:href="img_04.png" width="239" height="245" /></g></g></g></g></g></g></g><g clip-path="url(#31)"><g clip-path="url(#32)"><g clip-path="url(#33)"><g clip-path="url(#34)"><path id="11" transform="matrix(1 0 0 -1 0 842)" d="M36.06024 571.2468L278.2535 571.2468L278.2535 329.9958L36.06024 329.9958z" stroke="none" fill="#1D70B7" fill-rule="nonzero" /></g></g></g></g><g clip-path="url(#35)"><g><g clip-path="url(#36)"><g mask="url(#m3)"><g><g clip-path="url(#38)"><g clip-path="url(#39)"><path id="13" transform="matrix(1 0 0 -1 0 842)" d="M44.87892 365.0994L278.095 365.0994L278.095 360.0462L44.87892 360.0462z" stroke="none" fill="#000000" fill-rule="nonzero" /></g></g></g></g><g mask="url(#m4)"><g><g clip-path="url(#43)"><g clip-path="url(#44)"><path id="15" transform="matrix(1 0 0 -1 0 842)" d="M44.87892 365.0994L278.095 365.0994L278.095 360.0462L44.87892 360.0462z" stroke="none" fill="#000000" fill-rule="nonzero" /></g></g></g></g></g></g></g><g clip-path="url(#45)"><g clip-path="url(#46)"><g clip-path="url(#47)"><g clip-path="url(#48)"><g clip-path="url(#49)"><g transform="matrix(0.711912 0 0 0.712898 68.87039 338.7625)"><g transform="matrix(1 0 0 1 0 0)"><image x="0" y="0" xlink:href="img_06.png" width="260" height="191" /></g></g></g></g></g></g></g><g clip-path="url(#50)"><g clip-path="url(#51)"><g clip-path="url(#52)"><g clip-path="url(#53)"><path id="17" transform="matrix(1 0 0 -1 0 842)" d="M34.81296 299.9964L282.3467 299.9964L282.3467 27.32251L34.81296 27.32251z" stroke="none" fill="#1D70B7" fill-rule="nonzero" /></g></g></g></g><g clip-path="url(#54)"><g><g clip-path="url(#55)"><g mask="url(#m5)"><g><g clip-path="url(#57)"><g clip-path="url(#58)"><path id="19" transform="matrix(1 0 0 -1 0 842)" d="M36.08273 69.1663L273.7981 69.1663L273.7981 64.11552L36.08273 64.11552z" stroke="none" fill="#000000" fill-rule="nonzero" /></g></g></g></g><g mask="url(#m6)"><g><g clip-path="url(#62)"><g clip-path="url(#63)"><path id="21" transform="matrix(1 0 0 -1 0 842)" d="M36.08273 69.1663L273.7981 69.1663L273.7981 64.11552L36.08273 64.11552z" stroke="none" fill="#000000" fill-rule="nonzero" /></g></g></g></g></g></g></g><g clip-path="url(#64)"><g clip-path="url(#65)"><g clip-path="url(#66)"><g clip-path="url(#67)"><g clip-path="url(#68)"><g transform="matrix(0.4576566 0 0 0.4583426 53.40744 594.9762)"><g transform="matrix(1 0 0 1 0 0)"><image x="0" y="0" xlink:href="img_08.png" width="472" height="372" /></g></g></g></g></g></g></g><g clip-path="url(#69)"></g><g clip-path="url(#70)"><g clip-path="url(#71)"><g clip-path="url(#72)"><g clip-path="url(#73)"><path id="233" transform="matrix(1 0 0 -1 0 842)" d="M312.1608 660.7269L554.9568 660.7269L554.9568 423.4911L312.1608 423.4911z" stroke="none" fill="#1D70B7" fill-rule="nonzero" /></g></g></g></g><g clip-path="url(#74)"><g><g clip-path="url(#75)"><g mask="url(#m7)"><g><g clip-path="url(#77)"><g clip-path="url(#78)"><path id="235" transform="matrix(1 0 0 -1 0 842)" d="M320.9793 458.5952L554.1954 458.5952L554.1954 453.542L320.9793 453.542z" stroke="none" fill="#000000" fill-rule="nonzero" /></g></g></g></g><g mask="url(#m8)"><g><g clip-path="url(#82)"><g clip-path="url(#83)"><path id="237" transform="matrix(1 0 0 -1 0 842)" d="M320.9793 458.5952L554.1954 458.5952L554.1954 453.542L320.9793 453.542z" stroke="none" fill="#000000" fill-rule="nonzero" /></g></g></g></g></g></g></g><g clip-path="url(#84)"><g clip-path="url(#85)"><g clip-path="url(#86)"><g clip-path="url(#87)"><g clip-path="url(#88)"><g transform="matrix(0.6633663 0 0 0.6642123 344.796 245.2657)"><g transform="matrix(1 0 0 1 0 0)"><image x="0" y="0" xlink:href="img_10.png" width="267" height="205" /></g></g></g></g></g></g></g><g clip-path="url(#89)"><g clip-path="url(#90)"><g clip-path="url(#91)"><g clip-path="url(#92)"><path id="239" transform="matrix(1 0 0 -1 0 842)" d="M309.7032 390.7332L557.2369 390.7332L557.2369 85.18372L309.7032 85.18372z" stroke="none" fill="#939CAB" fill-rule="nonzero" /></g></g></g></g><g clip-path="url(#93)"><g><g clip-path="url(#94)"><g mask="url(#m9)"><g><g clip-path="url(#96)"><g clip-path="url(#97)"><path id="241" transform="matrix(1 0 0 -1 0 842)" d="M314.7062 124.4211L552.4216 124.4211L552.4216 119.3704L314.7062 119.3704z" stroke="none" fill="#000000" fill-rule="nonzero" /></g></g></g></g><g mask="url(#m10)"><g><g clip-path="url(#101)"><g clip-path="url(#102)"><path id="243" transform="matrix(1 0 0 -1 0 842)" d="M314.7062 124.4211L552.4216 124.4211L552.4216 119.3704L314.7062 119.3704z" stroke="none" fill="#000000" fill-rule="nonzero" /></g></g></g></g></g></g></g><g clip-path="url(#103)"><g clip-path="url(#104)"><g clip-path="url(#105)"><g clip-path="url(#106)"><g clip-path="url(#107)"><g transform="matrix(0.535989 0 0 0.5353281 311.244 541.9642)"><g transform="matrix(1 0 0 1 0 0)"><image x="0" y="0" xlink:href="img_12.png" width="424" height="307" /></g></g></g></g></g></g></g><g clip-path="url(#108)"></g><g clip-path="url(#109)"><g transform="matrix(0.1246875 0 0 0.1241722 489.3888 8.540771)"><g transform="matrix(1 0 0 1 0 0)"><image x="0" y="0" xlink:href="img_13.png" width="800" height="453" /></g></g></g><g clip-path="url(#110)"></g></g></g></svg>