<svg xmlns="http://www.w3.org/2000/svg" xmlns:xlink="http://www.w3.org/1999/xlink" id="body_1" preserveAspectRatio="xMinYMin meet" viewBox="0 0 793 1123"><defs><clipPath id="1"><path id="" clip-rule="evenodd" transform="matrix(1 0 0 1 0 0)" d="M0 842L0 -0.25L0 -0.25L595.5 -0.25L595.5 -0.25L595.5 842L595.5 842L0 842z" /></clipPath><clipPath id="2"><path id="" clip-rule="evenodd" transform="matrix(1 0 0 1 0 0)" d="M0 -0.249939L595.5 -0.249939L595.5 -0.249939L595.5 842.0001L595.5 842.0001L0 842.0001z" /></clipPath><clipPath id="3"><path id="" clip-rule="evenodd" transform="matrix(1 0 0 1 0 0)" d="M0 -0.249939L595.5 -0.249939L595.5 -0.249939L595.5 842.0001L595.5 842.0001L0 842.0001z" /></clipPath><clipPath id="4"><path id="" clip-rule="evenodd" transform="matrix(1 0 0 1 0 0)" d="M0 -0.249939L595.5 -0.249939L595.5 -0.249939L595.5 842.0001L595.5 842.0001L0 842.0001z" /></clipPath><clipPath id="5"><path id="" clip-rule="evenodd" transform="matrix(1 0 0 1 0 0)" d="M78.71999 30.71008L522.24 30.71008L522.24 30.71008L522.24 810.9501L522.24 810.9501L78.71999 810.9501z" /></clipPath><clipPath id="6"><path id="" clip-rule="evenodd" transform="matrix(1 0 0 1 0 0)" d="M79.51787 30.75183L522.0178 30.75183L522.0178 30.75183L522.0178 810.7518L522.0178 810.7518L79.51787 810.7518z" /></clipPath><clipPath id="7"><path id="" clip-rule="evenodd" transform="matrix(1 0 0 1 0 0)" d="M0 -0.249939L595.5 -0.249939L595.5 -0.249939L595.5 842.0001L595.5 842.0001L0 842.0001z" /></clipPath><clipPath id="8"><path id="" clip-rule="evenodd" transform="matrix(1 0 0 1 0 0)" d="M0 -0.249939L595.5 -0.249939L595.5 -0.249939L595.5 842.0001L595.5 842.0001L0 842.0001z" /></clipPath><clipPath id="9"><path id="" clip-rule="evenodd" transform="matrix(1 0 0 1 0 0)" d="M457.6323 392.1324L169.3516 436.9908L169.3516 436.9908L137.8699 234.6755L137.8699 234.6755L426.1507 189.8171L426.1507 189.8171L457.6323 392.1324z" /></clipPath><clipPath id="10"><path id="" clip-rule="evenodd" transform="matrix(1 0 0 1 0 0)" d="M457.6323 392.1324L169.3516 436.9908L169.3516 436.9908L137.8699 234.6755L137.8699 234.6755L426.1507 189.8171L426.1507 189.8171L457.6323 392.1324z" /></clipPath><clipPath id="11"><path id="" clip-rule="evenodd" transform="matrix(1 0 0 1 0 0)" d="M0 -0.249939L595.5 -0.249939L595.5 -0.249939L595.5 842.0001L595.5 842.0001L0 842.0001z" /></clipPath><clipPath id="12"><path id="" clip-rule="evenodd" transform="matrix(1 0 0 1 0 0)" d="M0 -0.249939L595.5 -0.249939L595.5 -0.249939L595.5 842.0001L595.5 842.0001L0 842.0001z" /></clipPath><clipPath id="13"><path id="" clip-rule="evenodd" transform="matrix(1 0 0 1 0 0)" d="M137.6378 375.6947L413.6378 375.6947L413.6378 375.6947L413.6378 474.6947L413.6378 474.6947L137.6378 474.6947z" /></clipPath><clipPath id="14"><path id="" clip-rule="evenodd" transform="matrix(1 0 0 1 0 0)" d="M137.6378 424.8518C 137.6378 437.8891 142.8168 450.3924 152.0356 459.6111C 161.2543 468.8298 173.7576 474.0089 186.7948 474.0089L186.7948 474.0089L364.4503 474.0089C 377.4875 474.0089 389.9908 468.8298 399.2095 459.6111C 408.4283 450.3924 413.6073 437.8891 413.6073 424.8518C 413.6073 411.8145 408.4283 399.3112 399.2095 390.0925C 389.9908 380.8738 377.4875 375.6947 364.4503 375.6947L364.4503 375.6947L186.7948 375.6947C 173.7576 375.6947 161.2543 380.8738 152.0356 390.0925C 142.8168 399.3112 137.6378 411.8145 137.6378 424.8518z" /></clipPath><clipPath id="15"><path id="" clip-rule="evenodd" transform="matrix(1 0 0 1 0 0)" d="M138.3878 376.4447L412.8878 376.4447L412.8878 376.4447L412.8878 473.1947L412.8878 473.1947L138.3878 473.1947z" /></clipPath><clipPath id="16"><path id="" clip-rule="evenodd" transform="matrix(1 0 0 1 0 0)" d="M186.7948 376.5947L364.4503 376.5947C 377.2488 376.5947 389.5232 381.6789 398.5732 390.7289C 407.6231 399.7788 412.7073 412.0532 412.7073 424.8518C 412.7073 437.6504 407.6231 449.9247 398.5732 458.9747C 389.5232 468.0247 377.2488 473.1089 364.4503 473.1089L364.4503 473.1089L186.7948 473.1089C 173.9963 473.1089 161.7219 468.0247 152.672 458.9747C 143.622 449.9247 138.5378 437.6504 138.5378 424.8518C 138.5378 412.0532 143.622 399.7788 152.672 390.7289C 161.7219 381.6789 173.9963 376.5947 186.7948 376.5947z" /></clipPath><clipPath id="17"><path id="" clip-rule="evenodd" transform="matrix(1 0 0 1 0 0)" d="M137.6378 375.6947L413.6378 375.6947L413.6378 375.6947L413.6378 473.9447L413.6378 473.9447L137.6378 473.9447z" /></clipPath><clipPath id="18"><path id="" clip-rule="evenodd" transform="matrix(1 0 0 1 0 0)" d="M0 -0.249939L595.5 -0.249939L595.5 -0.249939L595.5 842.0001L595.5 842.0001L0 842.0001z" /></clipPath><clipPath id="19"><path id="" clip-rule="evenodd" transform="matrix(1 0 0 1 0 0)" d="M0 -0.249939L595.5 -0.249939L595.5 -0.249939L595.5 842.0001L595.5 842.0001L0 842.0001z" /></clipPath><clipPath id="20"><path id="" clip-rule="evenodd" transform="matrix(1 0 0 1 0 0)" d="M137.6378 375.6947L413.6378 375.6947L413.6378 375.6947L413.6378 474.6947L413.6378 474.6947L137.6378 474.6947z" /></clipPath><clipPath id="21"><path id="" clip-rule="evenodd" transform="matrix(1 0 0 1 0 0)" d="M137.6378 424.8518C 137.6378 437.8891 142.8168 450.3924 152.0356 459.6111C 161.2543 468.8298 173.7576 474.0089 186.7948 474.0089L186.7948 474.0089L364.4503 474.0089C 377.4875 474.0089 389.9908 468.8298 399.2095 459.6111C 408.4283 450.3924 413.6073 437.8891 413.6073 424.8518C 413.6073 411.8145 408.4283 399.3112 399.2095 390.0925C 389.9908 380.8738 377.4875 375.6947 364.4503 375.6947L364.4503 375.6947L186.7948 375.6947C 173.7576 375.6947 161.2543 380.8738 152.0356 390.0925C 142.8168 399.3112 137.6378 411.8145 137.6378 424.8518z" /></clipPath><clipPath id="22"><path id="" clip-rule="evenodd" transform="matrix(1 0 0 1 0 0)" d="M137.6378 375.6947L413.6378 375.6947L413.6378 375.6947L413.6378 473.9447L413.6378 473.9447L137.6378 473.9447z" /></clipPath><clipPath id="23"><path id="" clip-rule="evenodd" transform="matrix(1 0 0 1 0 0)" d="M137.6378 375.6947L413.6331 375.6947L413.6331 375.6947L413.6331 474.6891L413.6331 474.6891L137.6378 474.6891z" /></clipPath><clipPath id="24"><path id="" clip-rule="evenodd" transform="matrix(1 0 0 1 0 0)" d="M137.6378 424.849C 137.6378 437.8856 142.8167 450.3881 152.0353 459.6064C 161.2539 468.8246 173.757 474.0033 186.794 474.0033L186.794 474.0033L364.4464 474.0033C 377.4834 474.0033 389.9865 468.8246 399.2051 459.6064C 408.4237 450.3881 413.6026 437.8856 413.6026 424.849C 413.6026 411.8125 408.4237 399.3099 399.2051 390.0917C 389.9865 380.8735 377.4834 375.6947 364.4464 375.6947L364.4464 375.6947L186.794 375.6947C 173.757 375.6947 161.2539 380.8735 152.0353 390.0917C 142.8167 399.3099 137.6378 411.8125 137.6378 424.849z" /></clipPath><clipPath id="25"><path id="" clip-rule="evenodd" transform="matrix(1 0 0 1 0 0)" d="M173.3841 532.8851L393.1341 532.8851L393.1341 532.8851L393.1341 790.8851L393.1341 790.8851L173.3841 790.8851z" /></clipPath><clipPath id="26"><path id="" clip-rule="evenodd" transform="matrix(1 0 0 1 0 0)" d="M430.4334 81.18683L572.9334 81.18683L572.9334 81.18683L572.9334 174.1868L572.9334 174.1868L430.4334 174.1868z" /></clipPath><clipPath id="27"><path id="" clip-rule="evenodd" transform="matrix(1 0 0 1 0 0)" d="M416.0543 79.70905L595.5 79.70905L595.5 79.70905L595.5 82.67883L595.5 82.67883L416.0543 82.67883z" /></clipPath><clipPath id="28"><path id="" clip-rule="evenodd" transform="matrix(1 0 0 1 0 0)" d="M0 -0.249939L595.5 -0.249939L595.5 -0.249939L595.5 842.0001L595.5 842.0001L0 842.0001z" /></clipPath><clipPath id="29"><path id="" clip-rule="evenodd" transform="matrix(1 0 0 1 0 0)" d="M0 -0.249939L595.5 -0.249939L595.5 -0.249939L595.5 842.0001L595.5 842.0001L0 842.0001z" /></clipPath><clipPath id="30"><path id="" clip-rule="evenodd" transform="matrix(1 0 0 1 0 0)" d="M406.3477 76.68115L415.3601 76.68115L415.3601 76.68115L415.3601 85.69354L415.3601 85.69354L406.3477 85.69354z" /></clipPath><clipPath id="31"><path id="" clip-rule="evenodd" transform="matrix(1 0 0 1 0 0)" d="M406.4058 81.18738C 406.4058 78.7323 408.3989 76.72607 410.8671 76.72607C 413.3353 76.72607 415.3284 78.71912 415.3284 81.18738C 415.3284 83.65558 413.3353 85.64862 410.8671 85.64862C 408.3989 85.64862 406.4058 83.64233 406.4058 81.18738" /></clipPath><clipPath id="32"><path id="" clip-rule="evenodd" transform="matrix(1 0 0 1 0 0)" d="M0 -0.249939L595.5 -0.249939L595.5 -0.249939L595.5 842.0001L595.5 842.0001L0 842.0001z" /></clipPath><clipPath id="33"><path id="" clip-rule="evenodd" transform="matrix(1 0 0 1 0 0)" d="M0 -0.249939L595.5 -0.249939L595.5 -0.249939L595.5 842.0001L595.5 842.0001L0 842.0001z" /></clipPath><clipPath id="34"><path id="" clip-rule="evenodd" transform="matrix(1 0 0 1 0 0)" d="M404.8783 75.21167L416.8295 75.21167L416.8295 75.21167L416.8295 87.16296L416.8295 87.16296L404.8783 87.16296z" /></clipPath><clipPath id="35"><path id="" clip-rule="evenodd" transform="matrix(1 0 0 1 0 0)" d="M404.9144 81.18738C 404.9144 77.90082 407.5674 75.2478 410.8539 75.2478L410.8539 75.2478L410.8539 76.72607L410.8539 76.72607L410.8539 75.2478C 414.1405 75.2478 416.7935 77.90082 416.7935 81.18738L416.7935 81.18738L415.3152 81.18738L415.3152 81.18738L416.7935 81.18738C 416.7935 84.47388 414.1405 87.12689 410.8539 87.12689C 407.5674 87.12689 404.9144 84.47388 404.9144 81.18738L404.9144 81.18738L405.5743 79.70905C 407.211 79.70905 407.8841 80.36902 407.8841 81.18738C 407.8841 82.82404 409.2172 84.1571 410.8539 84.1571C 412.4906 84.1571 413.8237 82.82404 413.8237 81.18738C 413.8237 79.55066 412.4906 78.21759 410.8539 78.21759C 409.2172 78.21759 407.8841 79.55066 407.8841 81.18738L407.8841 81.18738L407.2242 82.66565C 405.5743 82.66565 404.9144 82.00568 404.9144 81.18738z" /></clipPath><clipPath id="36"><path id="" clip-rule="evenodd" transform="matrix(1 0 0 1 0 0)" d="M0 -0.249939L595.5 -0.249939L595.5 -0.249939L595.5 842.0001L595.5 842.0001L0 842.0001z" /></clipPath><clipPath id="37"><path id="" clip-rule="evenodd" transform="matrix(1 0 0 1 0 0)" d="M0 -0.249939L595.5 -0.249939L595.5 -0.249939L595.5 842.0001L595.5 842.0001L0 842.0001z" /></clipPath><clipPath id="38"><path id="" clip-rule="evenodd" transform="matrix(1 0 0 1 0 0)" d="M0 -0.249939L595.5 -0.249939L595.5 -0.249939L595.5 842.0001L595.5 842.0001L0 842.0001z" /></clipPath><clipPath id="39"><path id="" clip-rule="evenodd" transform="matrix(1 0 0 1 0 0)" d="M43.63329 30.75183L75.88329 30.75183L75.88329 30.75183L75.88329 63.00183L75.88329 63.00183L43.63329 63.00183z" /></clipPath><clipPath id="40"><path id="" clip-rule="evenodd" transform="matrix(1 0 0 1 0 0)" d="M43.63329 46.64612L43.63329 46.64868C 43.63329 50.86414 45.30786 54.90686 48.28861 57.88763C 51.26936 60.86841 55.31214 62.54297 59.52756 62.54297C 63.74297 62.54297 67.78574 60.86841 70.76649 57.88763C 73.74725 54.90686 75.42182 50.86414 75.42182 46.64868L75.42182 46.64868L75.42182 46.64612C 75.42182 42.43066 73.74725 38.38794 70.76649 35.40717C 67.78574 32.42639 63.74297 30.75183 59.52756 30.75183C 55.31214 30.75183 51.26936 32.42639 48.28861 35.40717C 45.30786 38.38794 43.63329 42.43066 43.63329 46.64612z" /></clipPath><clipPath id="41"><path id="" clip-rule="evenodd" transform="matrix(1 0 0 1 0 0)" d="M44.38329 31.50183L75.13329 31.50183L75.13329 31.50183L75.13329 62.25183L75.13329 62.25183L44.38329 62.25183z" /></clipPath><clipPath id="42"><path id="" clip-rule="evenodd" transform="matrix(1 0 0 1 0 0)" d="M59.52756 31.65186C 63.50428 31.65186 67.31813 33.23157 70.1301 36.04358C 72.94207 38.85553 74.52181 42.66937 74.52181 46.64612L74.52181 46.64612L74.52181 46.64868C 74.52181 50.62543 72.94207 54.43927 70.1301 57.25122C 67.31813 60.06323 63.50428 61.64294 59.52756 61.64294C 55.55083 61.64294 51.73698 60.06323 48.92501 57.25122C 46.11304 54.43927 44.53329 50.62543 44.53329 46.64868L44.53329 46.64868L44.53329 46.64612C 44.53329 42.66937 46.11304 38.85553 48.92501 36.04358C 51.73698 33.23157 55.55083 31.65186 59.52756 31.65186z" /></clipPath><clipPath id="43"><path id="" clip-rule="evenodd" transform="matrix(1 0 0 1 0 0)" d="M44.38199 31.50183L75.132 31.50183L75.132 31.50183L75.132 62.25183L75.132 62.25183L44.38199 62.25183z" /></clipPath><clipPath id="44"><path id="" clip-rule="evenodd" transform="matrix(1 0 0 1 0 0)" d="M43.62529 30.74512L75.12529 30.74512L75.12529 30.74512L75.12529 62.24512L75.12529 62.24512L43.62529 62.24512z" /></clipPath><clipPath id="45"><path id="" clip-rule="evenodd" transform="matrix(1 0 0 1 0 0)" d="M0 -0.249939L595.5 -0.249939L595.5 -0.249939L595.5 842.0001L595.5 842.0001L0 842.0001z" /></clipPath><clipPath id="46"><path id="" clip-rule="evenodd" transform="matrix(1 0 0 1 0 0)" d="M0 -0.249939L595.5 -0.249939L595.5 -0.249939L595.5 842.0001L595.5 842.0001L0 842.0001z" /></clipPath><clipPath id="47"><path id="" clip-rule="evenodd" transform="matrix(1 0 0 1 0 0)" d="M43.63329 30.75183L75.88329 30.75183L75.88329 30.75183L75.88329 63.00183L75.88329 63.00183L43.63329 63.00183z" /></clipPath><clipPath id="48"><path id="" clip-rule="evenodd" transform="matrix(1 0 0 1 0 0)" d="M43.63329 46.64612L43.63329 46.64868C 43.63329 50.86414 45.30786 54.90686 48.28861 57.88763C 51.26936 60.86841 55.31214 62.54297 59.52756 62.54297C 63.74297 62.54297 67.78574 60.86841 70.76649 57.88763C 73.74725 54.90686 75.42182 50.86414 75.42182 46.64868L75.42182 46.64868L75.42182 46.64612C 75.42182 42.43066 73.74725 38.38794 70.76649 35.40717C 67.78574 32.42639 63.74297 30.75183 59.52756 30.75183C 55.31214 30.75183 51.26936 32.42639 48.28861 35.40717C 45.30786 38.38794 43.63329 42.43066 43.63329 46.64612z" /></clipPath><clipPath id="49"><path id="" clip-rule="evenodd" transform="matrix(1 0 0 1 0 0)" d="M43.63329 30.75183L75.13329 30.75183L75.13329 30.75183L75.13329 62.25183L75.13329 62.25183L43.63329 62.25183z" /></clipPath><clipPath id="50"><path id="" clip-rule="evenodd" transform="matrix(1 0 0 1 0 0)" d="M43.63329 30.75183L75.87591 30.75183L75.87591 30.75183L75.87591 62.99182L75.87591 62.99182L43.63329 62.99182z" /></clipPath><clipPath id="51"><path id="" clip-rule="evenodd" transform="matrix(1 0 0 1 0 0)" d="M43.63329 46.64117L43.63329 46.64374C 43.63329 50.85785 45.30748 54.89941 48.28755 57.87921C 51.26762 60.85901 55.30946 62.53308 59.52392 62.53308C 63.73837 62.53308 67.78021 60.85901 70.76028 57.87921C 73.74035 54.89941 75.41454 50.85785 75.41454 46.64374L75.41454 46.64374L75.41454 46.64117C 75.41454 42.42706 73.74035 38.38556 70.76028 35.4057C 67.78021 32.4259 63.73837 30.75183 59.52392 30.75183C 55.30946 30.75183 51.26762 32.4259 48.28755 35.4057C 45.30748 38.38556 43.63329 42.42706 43.63329 46.64117z" /></clipPath><clipPath id="52"><path id="" clip-rule="evenodd" transform="matrix(1 0 0 1 0 0)" d="M0 -0.249939L595.5 -0.249939L595.5 -0.249939L595.5 842.0001L595.5 842.0001L0 842.0001z" /></clipPath><clipPath id="53"><path id="" clip-rule="evenodd" transform="matrix(1 0 0 1 0 0)" d="M0 -0.249939L595.5 -0.249939L595.5 -0.249939L595.5 842.0001L595.5 842.0001L0 842.0001z" /></clipPath><clipPath id="54"><path id="" clip-rule="evenodd" transform="matrix(1 0 0 1 0 0)" d="M0 -0.249939L595.5 -0.249939L595.5 -0.249939L595.5 842.0001L595.5 842.0001L0 842.0001z" /></clipPath><clipPath id="55"><path id="" clip-rule="evenodd" transform="matrix(1 0 0 1 0 0)" d="M350.4611 453.9365L403.8094 424.8758L403.8094 424.8758L446.8622 503.9104L446.8622 503.9104L393.5139 532.971L393.5139 532.971L350.4611 453.9365z" /></clipPath><clipPath id="56"><path id="" clip-rule="evenodd" transform="matrix(1 0 0 1 0 0)" d="M350.4611 453.9365L403.8094 424.8758L403.8094 424.8758L446.8622 503.9104L446.8622 503.9104L393.5139 532.971L393.5139 532.971L350.4611 453.9365z" /></clipPath><clipPath id="57"><path id="" clip-rule="evenodd" transform="matrix(1 0 0 1 0 0)" d="M350.4611 453.9365L403.8094 424.8758L403.8094 424.8758L446.8622 503.9104L446.8622 503.9104L393.5139 532.971L393.5139 532.971L350.4611 453.9365z" /></clipPath><clipPath id="58"><path id="" clip-rule="evenodd" transform="matrix(1 0 0 1 0 0)" d="M0 -0.249939L595.5 -0.249939L595.5 -0.249939L595.5 842.0001L595.5 842.0001L0 842.0001z" /></clipPath></defs><g transform="matrix(1.333333 0 0 1.333333 0 0)"><g clip-path="url(#1)"><g clip-path="url(#2)"><path id="1" transform="matrix(1 0 0 -1 0 842)" d="M0 842.2499L595.4999 842.2499L595.4999 -6.103516E-05L0 -6.103516E-05z" stroke="none" fill="#FFFFFF" fill-rule="nonzero" /></g><g clip-path="url(#3)"><path id="2" transform="matrix(1 0 0 -1 0 842)" d="M0 842.2499L595.4999 842.2499L595.4999 -6.103516E-05L0 -6.103516E-05z" stroke="none" fill="#FAFBFF" fill-rule="nonzero" /></g><g clip-path="url(#4)"><g><g clip-path="url(#5)"><g clip-path="url(#6)"><g transform="matrix(0 0.5128205 -0.5127462 0 522.0178 30.75189)"><g transform="matrix(1 0 0 1 0 0)"><image x="0" y="0" xlink:href="img_01.png" width="1521" height="863" /></g></g></g></g></g></g><g clip-path="url(#7)"><g clip-path="url(#8)"><g clip-path="url(#9)"><g clip-path="url(#10)"><path id="4" transform="matrix(1 0 0 -1 0 842)" d="M272.7081 431.7901C 272.1772 431.6396 271.6304 431.3735 271.0622 431.172C 270.494 430.9705 269.9241 430.7799 269.3788 430.6498C 271.6508 431.388 273.3873 430.6967 272.6988 431.7773L272.6988 431.7773L272.7081 431.7901zM246.8978 431.4729L246.4393 431.7296C 246.565 431.2854 246.6941 430.819 246.8453 430.3561L246.8453 430.3561L246.8978 431.4729zM231.8442 459.006L231.5296 459.138C 231.3332 458.655 231.4499 458.051 231.7086 456.8242L231.7086 456.8242L231.8553 459.0077L231.8553 459.0077L231.8442 459.006zM390.0296 625.1475L389.7016 626.0919L389.7016 626.0919L387.8711 626.0786C 388.468 625.8774 389.6381 625.4825 390.0186 625.1458L390.0186 625.1458L390.0296 625.1475zM395.3908 623.8438L392.9027 625.2213L394.3995 624.108L395.3908 623.8438zM166.4524 585.2556C 166.7001 585.5543 166.9553 585.8768 167.2164 586.2343C 166.755 585.71 166.5592 585.4419 166.4524 585.2556zM165.5486 582.5584C 167.0585 583.687 167.0656 584.0049 167.0251 584.3379C 166.999 584.6506 166.9288 584.9564 168.4596 585.8055C 168.9033 586.7343 165.9542 584.3862 166.4431 585.2429C 164.9473 583.3698 163.9567 582.684 165.5392 582.5457L165.5392 582.5457L165.5486 582.5584zM206.3286 593.2479L207.1739 592.9044L207.7972 594.6416L206.3396 593.2496L206.3286 593.2479zM258.1166 580.0848C 257.9185 579.6128 253.1563 577.5031 257.7435 579.0652C 258.0164 579.4923 261.4385 581.0542 258.1166 580.0848zM267.7229 585.0864C 266.7708 584.7347 266.616 584.8576 265.9837 584.8497L265.9837 584.8497L266.4376 583.8231C 266.8847 584.2207 267.2902 584.6684 267.7228 585.0864L267.7228 585.0864L267.7229 585.0864zM256.8122 582.5063C 255.7372 581.9996 254.6229 581.6 253.512 581.1783C 253.2467 580.775 254.2417 580.8506 255.4714 581.3813C 256.2405 581.8178 257.4122 582.43 256.8011 582.5046L256.8011 582.5046L256.8122 582.5063zM294.6375 609.9305L293.7919 609.4031L292.0533 607.8542L294.6375 609.9305zM288.4305 605.4014C 289.2009 606.1208 289.9143 606.8427 290.2415 607.3574C 289.8292 606.9539 288.9596 606.072 288.4305 605.4014zM285.462 602.4508L288.0061 604.5661C 287.8709 604.6356 288.1082 605.0005 288.4305 605.4014C 286.9508 604.006 285.2136 602.5931 285.462 602.4508zM297.8 613.1603L296.6406 613.3418L296.6406 613.3418L296.257 612.0265C 296.7646 612.3995 297.2687 612.7947 297.789 613.1585L297.789 613.1585L297.8 613.1603zM278.172 600.5924C 279.0082 601.1072 277.9797 601.6824 278.5786 601.8322C 278.7462 603.2271 274.6332 596.7273 278.172 600.5924zM298.7109 616.6843C 299.1861 617.1202 299.6816 617.5707 300.2019 617.9344C 300.1281 618.4094 299.5339 617.5024 298.7109 616.6843zM294.9443 613.847C 295.6036 613.4633 296.8282 614.8981 298.3546 616.3574C 298.2544 616.2739 298.1653 616.1922 298.0635 616.1198C 297.8796 617.3016 296.3707 615.5848 294.9443 613.847zM315.3031 624.9901C 315.6442 625.2695 316.1088 625.4097 316.4645 625.6686L316.4645 625.6686L316.1886 625.9877C 314.5277 625.1749 313.5332 624.2962 315.3031 624.9902L315.3031 624.9902L315.3031 624.9901zM290.9335 614.1053L288.8935 611.8761C 289.9209 612.907 290.4304 613.1221 291.0688 613.5269C 290.8825 613.6335 290.2539 613.4566 290.9446 614.1071L290.9446 614.1071L290.9335 614.1053zM209.9933 588.1621C 209.2198 588.6979 208.836 589.0566 208.5984 589.3478C 208.4568 589.1674 208.7641 588.8645 209.9933 588.1621zM290.533 440.7515L290.6442 440.8367C 290.6746 440.9319 290.666 440.9872 290.6575 441.0424L290.6575 441.0424L290.5348 440.7405L290.5348 440.7405L290.533 440.7515zM192.0849 506.1674C 192.3028 505.9299 192.3082 505.7497 192.3136 505.5696C 192.7326 505.5669 192.7986 505.7242 192.0849 506.1674zM374.72 505.0053L375.6328 504.955C 376.1345 505.2933 376.6396 505.6095 374.72 505.0053zM272.4177 595.2626C 273.3326 595.9254 274.0947 596.553 274.1833 596.9288C 274.4042 596.9631 274.5063 596.8885 274.2486 596.5091C 273.3503 595.5209 272.7983 595.288 272.4177 595.2626L272.4177 595.2626L272.4177 595.2626zM270.5035 593.9694C 270.5035 593.9694 270.5391 594.0314 270.5561 594.068C 269.2928 593.3171 268.6076 592.9956 270.5035 593.9694zM186.3295 506.8782C 185.2591 507.6506 184.2893 508.2123 183.5159 508.239C 184.4791 507.5744 185.4375 507.158 186.3295 506.8782zM232.7257 448.0345C 232.9843 448.844 231.8675 450.4236 231.4359 451.3067C 231.6223 449.6728 231.4523 448.7301 232.7257 448.0345zM261.3417 427.3404C 263.3879 426.9122 265.4126 427.2046 267.0875 427.782C 267.9214 428.0927 268.7002 428.3949 269.3676 428.7589L269.3676 428.7589L271.0986 429.7749C 272.6876 429.8864 270.4215 427.656 274.5978 429.4597C 277.4908 430.8601 277.0033 431.1575 276.2808 431.294C 275.5582 431.4304 274.5936 431.45 276.2289 432.2814C 277.2207 432.2321 278.1699 432.3119 279.1845 432.334C 280.1682 433.064 281.0287 433.7862 281.926 434.3444C 282.8112 434.9798 283.6975 435.5363 284.5651 436.0672C 286.2935 437.1733 288.0024 438.1858 289.6412 439.5042C 290.2901 440.2047 290.5554 440.6079 290.6408 440.8588C 294.3738 443.4759 296.4296 448.3659 298.9122 450.7318C 298.5931 449.9469 300.752 451.776 301.2514 451.9103C 302.3624 453.7122 303.4479 455.5326 304.5079 457.3718C 303.0759 454.9431 303.7027 454.6221 303.9327 453.7981C 305.0806 455.436 305.3373 456.4036 306.0645 457.5461C 305.7727 456.7315 305.4826 455.9058 306.3517 456.5727C 307.3714 458.5979 308.3655 460.6417 309.3563 462.7077C 309.0338 462.4539 308.553 461.8361 308.1451 461.3314C 309.1192 462.7047 310.8558 465.9387 312.7208 467.6203C 312.8182 467.2848 312.5392 466.4609 312.646 466.1381C 310.8465 464.9079 310.7239 463.5879 310.5423 462.4284C 313.1386 466.3166 311.36 463.2796 313.0621 464.8454C 314.9347 467.5689 314.9599 469.2244 313.9781 468.8454C 316.3619 471.7729 317.1873 472.6479 318.92 476.1981L318.92 476.1981L319.2457 475.0497C 319.8669 476.0739 320.4898 477.0872 321.1365 478.0927C 320.8629 477.0886 320.5875 476.0956 320.3377 475.0838C 324.9572 480.1465 319.7198 477.0918 324.8863 482.7826L324.8863 482.7826L325.5424 482.2738C 326.3332 483.5168 326.6475 484.5498 327.0446 485.4148C 327.4417 486.2798 327.896 486.9952 329.0483 487.5139C 330.6281 490.0109 324.8305 484.5952 329.3044 489.7936C 330.4557 490.3913 332.4712 492.0511 334.0319 493.2894C 335.369 495.0925 332.1214 492.845 331.2183 491.743C 332.9885 493.67 334.3345 494.7618 335.4313 495.4189C 336.5154 496.0853 337.3121 496.345 338.0919 496.5682C 339.6496 497.0255 340.9099 497.5045 344.4383 500.5648C 342.9445 499.9138 343.2646 500.6197 343.1892 500.9586C 343.1283 501.2772 342.5572 501.3128 339.5052 498.9714C 340.1627 499.6167 340.9037 500.1618 341.677 500.6442C 342.4759 501.1078 343.3089 501.4976 344.1385 501.9095C 344.9553 502.3307 345.83 502.6705 346.6272 503.1452C 347.4244 503.6199 348.2292 504.1185 348.9767 504.7665C 348.3975 504.0541 347.8242 503.3767 347.3071 502.6288C 348.4761 503.3311 349.6888 504.3343 350.282 504.8112L350.282 504.8112L350.3736 503.9318C 351.2304 504.823 352.2467 505.3431 353.2113 505.8326C 354.1886 506.3127 355.1645 506.6569 356.0861 506.9135C 357.0153 507.1938 357.8783 507.4638 358.6357 507.8305C 359.3931 508.1973 360.0553 508.5944 360.5861 509.2539C 359.183 507.2935 363.8637 510.3635 365.7949 510.1663C 364.9442 509.6719 363.8706 509.3012 362.7325 508.9092C 361.5979 508.4951 360.3994 508.1276 359.3097 507.7883C 357.1364 506.9977 355.3751 506.2485 355.395 505.5389C 357.187 505.7273 358.4205 506.9599 360.1565 507.0717C 359.0815 506.5651 357.6172 505.5793 357.2933 505.1895C 362.8745 506.3974 365.5851 508.6064 368.9068 509.7229C 367.9283 509.4688 366.9421 509.1909 365.9721 508.8817C 364.9911 508.5706 364.0143 508.3055 363.0494 507.963C 363.1701 509.4411 365.6577 508.8666 367.0812 510.3325C 368.6687 510.308 369.9717 510.6578 371.222 511.056C 372.4664 511.4193 373.6317 511.7816 374.8852 511.7957C 374.2352 511.6833 374.2227 511.5456 373.5728 511.4331C 380.0693 512.6476 382.204 510.7061 384.763 511.1269C 387.3035 511.3752 391.8677 513.0129 390.0435 513.2495C 391.0125 513.6378 388.9467 513.1014 387.018 512.8466C 385.0911 512.5806 383.3354 512.5224 384.9965 513.6971C 386.9922 513.0122 388.8337 513.5363 391.1406 514.2686C 393.4678 515.0154 396.2162 515.9634 400.1553 516.384C 397.0375 514.7563 402.4431 515.8577 399.6113 514.5007C 401.4186 515.0987 402.2966 515.5634 402.9308 515.9222C 403.5632 516.2922 403.929 516.6318 404.584 517.2202L404.584 517.2202L405.8539 517.0558C 407.8807 518.5703 407.9427 519.0438 408.3924 519.4984C 408.6061 519.7239 408.8955 519.9725 409.5194 520.3977C 410.1612 520.7804 411.049 521.4728 412.457 522.529C 410.6531 520.8909 415.3885 523.2454 414.0641 521.942C 414.9063 522.4916 415.6683 523.1192 416.3658 523.7255C 416.7018 524.038 417.043 524.3173 417.3203 524.6432C 417.5848 524.9785 417.829 525.2993 418.0401 525.615L418.0401 525.615L417.8978 525.3666C 418.546 525.9991 419.1085 526.5278 419.604 526.9783C 420.114 527.4083 420.4608 527.8695 420.8392 528.1999C 421.5562 528.8997 422.1035 529.3807 422.6414 529.8491C 423.1394 530.3564 423.5915 530.8679 424.1655 531.6134C 424.447 531.9852 424.7548 532.4064 425.104 532.9246C 425.4039 533.469 425.7343 534.1086 426.1044 534.8563L426.1044 534.8563L425.4481 534.494C 427.3883 538.3818 429.3531 542.8391 430.6613 547.5902C 432.0061 552.3243 432.6298 557.3309 432.3875 561.7954C 432.2568 560.7457 432.1702 559.7028 432.0139 558.6717C 432.1567 559.1351 432.0003 560.6492 431.9489 562.3607C 431.9287 563.2172 431.7878 564.1229 431.7642 565.0016C 431.7185 565.8768 431.7808 566.7123 431.7975 567.405C 431.9386 566.8613 432.1196 565.9166 432.1103 565.3948C 432.501 565.5009 433.116 566.6373 432.8896 568.8192L432.8896 568.8192L432.1626 569.5658L432.1626 569.5658L432.5255 570.5046C 431.897 573.744 431.8577 569.4166 431.2123 572.6193C 431.5233 573.1654 431.6113 574.3443 431.2851 575.7867C 431.1385 576.5105 430.9468 577.3065 430.7261 578.1432C 430.4833 578.9764 430.1342 579.8384 429.8293 580.7073C 429.5227 581.5872 429.1941 582.4636 428.8077 583.2745C 428.4528 584.1016 428.1123 584.9084 427.8246 585.6667C 427.166 587.1367 426.6998 588.3877 426.6942 589.2239C 425.6026 589.9138 426.3223 588.4873 427.0241 587.1033C 427.7701 585.7262 428.3393 584.3215 427.3197 585.2036C 427.0529 586.1915 427.0197 586.6954 426.0798 588.6645L426.0798 588.6645L425.7765 587.6332C 425.2596 588.7744 424.6732 589.7805 424.1523 590.7288L424.1523 590.7288L423.3936 592.1153C 423.1429 592.5627 422.855 592.9591 422.6189 593.3861L422.6189 593.3861L421.1667 595.7394L421.1667 595.7394L419.6844 597.8503L419.6844 597.8503L418.9476 598.8782L418.9476 598.8782L418.1496 599.8626L418.1496 599.8626L416.4677 601.8746C 415.223 603.1855 413.8821 604.6058 412.1544 606.1129L412.1544 606.1129L412.526 605.9785C 411.431 607.1995 410.5253 608.0767 409.6642 608.6666C 408.8236 609.2711 408.098 609.6447 407.36 609.8805C 407.0367 610.5768 408.9384 609.1872 408.1319 610.2268C 406.7321 610.7896 405.4995 611.514 404.4008 612.3951C 403.2649 613.2251 402.2197 614.1259 401.2443 615.0148C 399.2282 616.7034 397.3907 618.2613 395.5715 618.6117C 396.0518 619.0145 394.7755 620.4562 393.6569 621.5377C 392.5663 622.6577 391.72 623.5893 393.4023 623.3194C 392.6336 623.6071 391.8801 623.9423 391.0944 624.1933C 391.626 624.4117 393.3942 623.5896 395.2304 622.7667C 397.042 621.8835 398.9081 620.9409 399.7502 620.9814L399.7502 620.9814L402.9377 618.672C 403.9784 617.8724 404.9911 617.0345 406.0004 616.2187C 405.9717 616.6215 407.3506 616.3383 406.3388 617.0972C 407.9926 616.0649 409.3991 615.0959 407.5722 616.9497C 414.824 610.8383 421.7767 604.2505 427.3565 596.4537C 430.1336 592.5645 432.5695 588.3961 434.4204 583.9895C 436.2585 579.5923 437.4241 574.8642 437.778 570.1907C 438.0385 568.953 438.304 569.7183 438.4714 570.2421C 437.9735 566.6804 439.3846 566.9905 439.6505 565.0636C 439.4463 564.1947 439.3084 563.3361 439.0456 562.4808L439.0456 562.4808L438.2851 559.9529C 438.6745 557.8868 439.1417 559.4641 439.4267 559.3047C 439.3484 554.4283 438.2755 549.6913 436.8434 545.3734C 435.356 541.0469 433.4896 537.1932 431.9688 533.5176C 430.201 531.6475 431.282 534.5872 429.3991 531.93C 430.3037 532.659 430.4731 532.5157 430.266 531.8839C 430.0333 531.2708 429.4991 530.1243 428.725 529.0649L428.725 529.0649L426.7363 526.1423C 426.2344 525.4421 426.1093 525.0833 426.7987 525.4507C 425.9478 525.1033 425.0048 524.4023 424.0697 523.5781L424.0697 523.5781L421.0892 521.2139C 420.1804 520.439 419.2014 519.9698 418.5593 519.7342C 417.9027 519.5189 417.4887 519.6355 417.4536 520.2975C 415.8961 519.1841 415.3131 518.6409 415.3095 518.3009C 415.3041 517.972 415.8531 517.933 416.3975 518.1422L416.3975 518.1422L413.5866 516.5057C 412.7003 515.9492 411.7866 515.5695 410.9452 515.0879C 409.2532 514.1119 407.6075 513.3468 406.0031 512.3166C 405.3915 512.1762 403.8506 511.7554 401.8624 511.084C 399.8493 510.4993 397.3512 509.7599 394.7891 509.2142C 389.6624 508.0657 384.3437 507.3513 382.3058 507.8712C 385.1011 507.2089 382.1964 507.266 379.7938 506.3491L379.7938 506.3491L382.204 505.7626L382.204 505.7626L376.5933 504.8896C 375.4891 504.5707 375.1636 504.554 375.1499 504.6423C 374.2076 504.5183 375.2704 505.2493 372.8351 505.0514C 369.0912 504.3217 369.019 503.7675 367.152 502.753L367.152 502.753L367.7401 502.754L367.7401 502.754L365.3049 502.0471C 363.4606 501.613 371.4999 504.6174 365.4101 503.6245C 365.3595 503.3678 362.3194 501.0961 360.5735 501.2656C 363.5107 502.1638 362.9778 502.6804 361.7737 502.6401C 360.3492 502.2714 359.0108 501.7124 357.6204 501.2698L357.6204 501.2698L359.4028 500.5743C 358.6869 500.3046 357.9402 500.0866 357.2405 499.7854L357.2405 499.7854L355.1285 498.8911C 354.4143 498.6103 353.7053 498.2964 353.0252 497.9417C 352.3451 497.587 351.6343 497.2841 350.9594 496.8962C 348.2093 495.4502 345.577 493.6832 343.0054 491.7445C 337.8748 487.858 333.2083 483.0255 328.9828 477.6847C 328.6141 478.0912 327.0834 476.224 325.6563 474.4182C 324.2036 472.6311 322.8255 470.9461 322.5255 471.9288L322.5255 471.9288L322.9592 472.2678C 324.8384 475.0941 321.3233 472.2395 319.8716 469.8643C 321.9723 471.9219 318.197 464.7055 322.4672 470.2682L322.4672 470.2682L319.9669 465.3995C 320.7721 461.1696 311.5435 453.5231 306.9896 446.3666C 307.2785 446.9093 307.2441 447.1302 307.2142 447.2499C 305.2643 444.0053 302.2944 440.9188 299.6231 438.6027C 298.3148 437.4149 297.0255 436.4677 296.0649 435.6621C 295.0642 434.8955 294.365 434.3003 294.1201 433.9115L294.1201 433.9115L293.0566 434.1306C 290.9891 431.5691 289.7006 430.1808 288.1144 428.9612C 287.3013 428.3708 286.4822 427.7457 285.3088 427.1445L285.3088 427.1445L283.3831 426.1435C 282.6537 425.8151 281.8342 425.4839 280.9094 425.1025C 280.9499 425.2784 281.6567 425.8975 280.4617 425.5079C 279.0142 424.1967 277.4888 422.6584 272.1363 421.3618L272.1363 421.3618L272.2794 421.6781C 269.5435 420.8678 266.7229 420.3837 263.8672 420.0524C 263.7697 421.406 260.2494 420.6207 256.1974 420.6349C 254.1791 420.5924 252.0499 420.8267 250.3367 421.2954C 249.4813 421.5582 248.733 421.8603 248.1486 422.1992C 247.5641 422.5381 247.1758 422.9981 247.0043 423.4465C 246.5446 423.4202 245.8271 423.5235 244.9489 423.7149C 244.0953 423.9667 243.1181 424.3576 242.0934 424.7638C 241.0856 425.2065 240.1107 425.8014 239.175 426.2893C 238.2563 426.8138 237.4981 427.3971 236.8609 427.7844C 236.9245 427.8848 236.8587 428.0895 236.5691 428.4969C 234.8021 429.093 233.0677 431.0064 231.8343 433.19C 230.5567 435.3668 229.6688 437.7286 228.8001 439.3129C 227.4413 441.2847 227.4644 440.191 227.5106 439.0217C 226.9557 441.4241 225.4373 444.276 224.1862 446.8641C 222.9146 449.4377 221.8086 451.6751 221.8437 452.5403C 221.1216 455.799 222.5558 453.9973 222.9272 455.0279C 221.5348 459.6868 220.6834 453.672 220.2727 460.237C 220.5518 459.5338 220.962 458.2063 220.9993 458.7664C 220.673 461.2269 222.7754 466.1808 221.5606 468.3899L221.5606 468.3899L221.4691 466.7241C 220.6039 468.7953 220.4982 471.4373 220.2625 473.6064C 220.0378 475.7773 219.7086 477.4569 218.7126 477.4603L218.7126 477.4603L218.0381 476.7784C 217.6738 478.6109 217.3362 479.6895 217.0572 480.3927C 216.7891 481.0976 216.5778 481.438 216.3461 481.764C 215.8716 482.4141 215.5466 483.1215 213.9491 486.4815L213.9491 486.4815L214.1182 486.4852C 212.1864 489.0126 211.64 490.9977 209.5552 491.0919C 209.7911 490.8118 209.9973 490.5045 210.2035 490.1973C 208.7862 491.5265 207.9497 492.1769 207.1098 492.8494C 206.7038 493.2047 206.2495 493.5073 205.7134 493.899C 205.1867 494.3035 204.5223 494.7205 203.6698 495.2552C 203.1954 495.3964 201.3712 496.1419 200.976 496.646C 200.631 496.1738 198.4708 497.1159 196.0301 498.1162C 193.5697 499.17 190.9172 500.2957 190.0446 500.669C 193.2808 499.6454 191.9576 500.6613 191.2126 501.4503C 189.0128 501.2664 187.6515 501.6541 185.2785 503.3097C 184.8291 502.7081 184.3228 502.1089 183.2677 501.9108C 182.2126 501.7127 180.5848 501.9232 177.8836 503.1432C 178.806 502.9586 180.1606 502.4681 179.7399 502.9908C 179.3192 503.5136 177.9565 503.7654 177.4931 503.9082C 177.1056 504.4361 178.8904 503.7976 178.5254 504.5439C 177.4977 504.6781 176.5854 504.9434 175.7274 505.2963C 174.8769 505.673 174.101 506.1519 173.2741 506.668C 172.4658 507.2096 171.6455 507.8286 170.6969 508.4728C 169.7872 509.157 168.7306 509.8411 167.5208 510.637C 169.2251 509.8615 168.1463 511.051 167.9436 511.8453C 167.2672 511.3215 165.938 512.8115 164.9321 514.1143C 163.9076 515.3915 163.1714 516.4873 163.2174 514.9561C 159.5253 519.2004 155.1248 524.7261 152.2479 530.2739C 149.332 535.7817 147.9301 541.0839 148.1693 543.327C 148.2444 543.6442 148.2046 544.0452 148.0976 544.515C 148.0126 544.9882 147.8511 545.5173 147.6751 546.0668C 147.2882 547.1718 146.9283 548.3941 146.8026 549.3474L146.8026 549.3474L147.5448 549.1575C 147.0497 550.4492 146.8594 551.3811 146.678 552.1108C 146.4949 552.8515 146.4311 553.4072 146.3842 553.9995C 146.2555 555.1898 146.1096 556.4907 145.7624 559.7398C 146.0103 558.3644 146.368 557.9562 146.6556 558.2159C 146.9433 558.4756 147.3114 559.3813 147.8064 560.6348C 147.6343 561.3772 147.5064 562.1266 147.3878 562.8887C 147.282 563.6414 147.1268 564.4204 147.0634 565.1911L147.0634 565.1911L148.3414 565.7746C 148.3237 566.6881 148.4938 567.6309 148.8032 568.55C 149.0872 569.4879 149.4646 570.4064 149.9135 571.302C 149.5912 570.3921 149.859 570.8523 150.0757 570.8408C 149.7946 571.193 149.762 571.9119 149.8802 572.824C 150.035 573.7191 150.3518 574.8091 150.7146 575.895C 151.1394 576.9452 151.559 578.0286 151.9434 578.903C 152.3404 579.7679 152.6163 580.4669 152.6275 580.8307C 153.7757 581.3034 154.497 582.4111 155.1486 583.5306C 155.8785 584.5831 156.5386 585.6473 157.5575 585.7155C 157.8453 586.3372 158.2962 587.0747 158.832 587.8481C 157.7064 587.5938 156.8986 587.8414 158.434 588.9514L158.434 588.9514L158.7351 589.2697L158.7351 589.2697L159.914 589.1816C 160.5153 589.8974 161.1659 590.5869 161.8117 591.1625C 162.4574 591.738 163.0258 592.3016 163.5479 592.6544C 163.0324 592.4045 162.4373 592.0856 161.7783 591.8134C 162.4829 592.2285 163.1647 592.5721 163.8424 592.8699C 164.0461 593.0146 164.2498 593.1595 164.3941 593.2498C 164.3178 593.1588 164.2066 593.0736 164.0861 592.9756C 164.6125 593.2272 165.1245 593.4993 165.6576 593.8536C 166.2052 594.1877 166.7645 594.5916 167.3806 595.1399C 170.5035 596.2253 173.5052 598.163 176.9579 599.6732C 180.3666 601.1764 184.2705 602.259 187.9651 601.4877C 186.8746 601.5895 185.3068 601.5605 184.9352 601.1859C 187.9531 601.5651 191.0086 601.3392 193.6992 600.8416C 195.0491 600.5991 196.3176 600.2988 197.4729 600.0713C 198.6147 599.7852 199.6713 599.6102 200.6241 599.5209L200.6241 599.5209L200.5818 600.3741C 204.9522 599.5496 208.1487 598.418 211.2292 596.9404L211.2292 596.9404L211.7923 597.6841C 214.003 596.4896 217.5239 594.9448 220.6259 593.4026C 223.7296 591.8494 226.4388 590.3591 227.2707 588.9388C 228.5622 589.0719 232.7474 586.239 235.1284 585.8403L235.1284 585.8403L235.5089 584.9945C 236.2462 584.6907 236.9298 584.5143 237.5495 584.3845C 238.1803 584.2563 238.7593 584.0976 239.2956 584.0679C 240.3792 584.0103 241.3099 583.9175 242.2115 584.0126C 245.2189 583.0779 248.361 583.3858 251.1963 584.2116C 254.0647 585.0425 256.6553 586.3506 259.2479 587.5007L259.2479 587.5007L259.3858 587.3411C 261.0523 588.3358 262.6898 589.3711 264.2608 590.5432C 263.2671 589.2234 265.0445 591.4683 266.5735 592.3284C 267.9438 593.6276 270.4938 595.2687 272.5103 596.3404C 273.5092 597.118 274.4774 597.9474 275.4584 598.7675C 272.5285 595.6418 276.3433 598.1699 277.0722 597.7742L277.0722 597.7742L278.5013 599.931C 279.5145 600.3262 277.7383 598.3643 279.2244 599.5005C 280.1882 600.9401 283.8272 604.3796 284.386 606.0956C 284.0623 606.0678 283.4968 605.7762 282.8363 605.368C 282.7185 605.18 282.7151 605.2021 282.7735 605.3356L282.7735 605.3356L282.6181 605.2435L282.6181 605.2435L282.7904 605.3722C 282.8937 605.5806 283.0351 605.908 283.0645 606.0822C 285.4685 608.1531 284.4021 607.5912 284.0695 607.7657C 287.5417 609.3694 288.4441 611.4216 291.5037 612.2596C 289.541 611.5696 291.0707 613.0068 292.7745 614.5615C 294.4783 616.1162 296.4105 617.7291 294.9696 617.5388C 297.9119 618.4039 296.4802 618.7354 298.5473 619.0457C 295.2521 616.8135 293.182 613.324 291.3209 610.8172L291.3209 610.8172L294.0624 612.3185C 293.5847 609.9364 288.7515 608.0645 287.8025 606.4575C 288.4372 607.5404 290.6252 609.1818 290.9246 609.0021L290.9246 609.0021L289.5747 609.2446C 286.1553 606.5745 284.335 603.5876 282.5147 601.1098C 284.8412 602.8066 280.4478 598.2542 282.4876 599.1033L282.4876 599.1033L284.0399 600.7589C 285.059 601.189 283.7023 599.4394 282.9937 598.3224C 280.1072 596.1537 276.2871 592.7878 272.6272 590.1368C 268.9801 587.4766 265.5408 585.5161 264.2027 585.3192C 265.628 585.7559 267.8211 587.3641 268.6846 588.3582C 267.6758 587.8619 266.6475 587.4191 265.6301 586.978C 267.9018 588.3722 270.2527 588.7493 273.2589 591.4569C 272.3179 591.6159 273.9912 594.0934 271.0398 593.0686C 269.3782 592.1879 268.3155 591.4569 267.4923 590.7858C 266.6819 590.1054 266.1383 589.4552 265.5539 588.7761C 264.9713 588.0858 264.3386 587.3539 263.3414 586.5652C 262.8517 586.1497 262.2465 585.7501 261.507 585.3409C 260.7837 584.9003 259.9083 584.4926 258.8527 584.0795C 258.5098 583.8112 258.8234 584.2672 258.7083 584.4982C 258.5804 584.7385 258.0289 584.7205 255.8848 583.7421C 253.2152 582.433 250.829 581.3378 249.0546 580.3829C 247.2936 579.4867 246.1648 578.5984 246.212 577.8591C 246.8899 578.0098 247.7231 578.2526 248.6057 578.4691C 249.4866 578.6967 250.3979 579.0195 251.2584 579.2326C 252.9657 579.7471 254.4506 580.0913 255.0087 579.7031C 254.4025 579.3824 253.6441 579.0947 252.8636 578.8036C 252.0866 578.4904 251.2678 578.2273 250.5101 578.0076C 249.0179 577.4926 247.7666 577.1734 247.678 576.7977C 246.1764 577.288 247.4873 577.5146 248.6563 577.7078C 249.8347 577.9138 250.8574 578.1747 248.9577 578.3882C 247.0715 578.1512 246.2905 577.6451 245.3859 577.4251C 246.64 578.0162 243.6339 578.2158 243.0885 578.5948C 240.0349 578.6626 237.6824 579.3146 235.3595 579.9939C 233.0636 580.7905 230.7539 581.6754 227.852 583.0225C 227.6127 583.3246 227.1382 583.9748 227.4344 584.1793C 224.4967 585.1022 219.6418 585.478 220.3103 584.2358C 217.0092 585.8942 217.1356 586.5359 214.2222 587.6663C 218.0657 584.3391 213.446 588.2922 212.4133 587.4414C 209.5641 588.7401 211.7113 588.4634 210.5522 589.369C 210.0226 589.5015 208.7306 589.6625 208.5126 589.391C 207.8526 590.2159 208.9478 590.375 210.0284 590.5544C 211.0998 590.7212 212.1694 590.8989 211.379 591.9072C 210.8127 592.5657 209.1277 593.9437 207.4329 595.094C 205.7643 596.2936 204.0486 597.2145 203.8334 597.3619C 201.9875 596.939 201.1696 592.6714 202.6254 590.6582C 202.3888 590.3612 201.8145 590.7809 201.1388 591.3431C 200.4554 591.8816 199.6444 592.5133 199.0424 592.7477C 197.3996 593.7816 195.9215 593.9023 194.5765 593.7496C 193.907 593.6907 193.2612 593.6241 192.5968 593.532C 191.9307 593.451 191.266 593.506 190.5154 593.6041C 191.2824 593.8365 192.0573 593.9458 192.855 594.1265C 192.7401 594.2104 192.3584 594.2642 191.8553 594.299C 191.3504 594.3448 190.7164 594.348 190.0724 594.2704C 189.4266 594.2039 188.7902 594.1501 188.2669 594.0234C 187.7454 593.8857 187.336 593.7542 187.173 593.6383C 186.9879 594.028 189.4229 595.9001 187.9512 596.2707C 184.9998 596.2639 182.2474 595.1229 180.4911 593.9786C 179.6152 593.3559 178.9474 592.7769 178.5667 592.2425C 178.1877 591.6971 178.0746 591.261 178.2502 591.0055C 180.703 592.326 183.3424 593.3929 186.1107 594.1404C 186.3078 593.6733 184.8657 593.2001 183.4763 592.6784C 182.7876 592.379 182.1099 592.0812 181.6472 591.783C 181.1846 591.4847 180.9532 591.1546 181.1083 590.8846C 178.6863 590.3833 176.3338 589.5082 174.0479 588.4964C 174.8398 589.0043 177.4294 590.3914 176.1512 590.4639C 173.1554 589.0702 174.5408 589.908 172.3255 589.3143C 173.6852 590.8268 175.7321 593.0118 177.9883 595.0145C 179.1305 595.9614 180.2659 596.9526 181.3345 597.7184C 182.3817 598.5488 183.3461 599.1853 184.0166 599.6743C 182.4868 599.2552 181.0286 598.6663 179.5909 598.0919L179.5909 598.0919L178.32 598.3353C 176.895 597.7516 175.6609 596.813 174.5722 595.8856C 173.5228 594.8513 172.6024 593.8597 171.9346 592.7716C 170.5249 590.7084 169.9249 588.7485 169.6042 587.9746C 166.9945 586.426 166.5307 588.752 166.9363 589.5617C 164.2795 587.7343 163.6417 586.0174 163.0495 584.4434C 162.488 582.8175 161.9756 581.3124 160.0616 579.001C 160.6003 579.5374 161.2428 579.988 161.8122 580.4725C 161.6325 580.1731 161.2747 579.7102 160.8558 579.2038L160.8558 579.2038L159.6044 577.5045C 158.8075 576.3738 158.2398 575.3691 158.5447 575.5184C 157.4309 574.8247 155.7558 574.3944 156.0542 575.8209C 155.9369 574.8298 155.7813 573.8667 155.7048 572.9045C 155.6648 571.9255 155.5628 570.982 155.5764 570.0226C 155.6531 570.8377 153.8521 570.9986 153.6932 571.4377C 152.8139 569.3099 154.3039 567.2228 155.0097 568.4299C 153.7848 566.6329 153.4037 565.8836 153.0971 565.2363C 152.7923 564.5781 152.3844 564.0734 151.3819 562.4468C 151.2779 561.1523 153.2213 562.2579 153.5538 563.1016C 153.5384 561.6738 153.3907 560.5875 153.2852 559.6661C 153.1559 558.7523 152.9642 558.0211 152.8506 557.3699C 152.6461 559.7024 151.7946 560.1581 150.7119 560.1367C 149.6531 560.1077 148.4728 559.5507 147.8651 560.1122C 149.1499 556.2172 150.8905 552.6645 152.9592 549.5475C 152.6078 549.8435 150.8764 550.5017 150.6827 550.4376C 151.085 550.2513 151.4927 549.3759 151.8723 548.1001C 152.296 546.8312 152.7356 545.1688 153.2953 543.3894C 154.3595 539.822 156.0422 535.8417 157.2899 533.2758C 157.1492 533.5253 157.0307 533.7784 156.8994 534.0408C 156.4278 534.4538 156.5587 533.4673 157.1557 532.248C 157.6898 530.9963 158.6646 529.5304 159.4306 528.8238C 158.9927 528.9479 158.8212 529.3964 158.3457 530.1255C 158.8556 528.1574 160.1196 527.4491 161.2774 526.7695C 162.5108 526.113 163.6286 525.4725 164.4094 523.5804C 163.2921 524.9451 162.5744 525.7044 162.0469 526.0409C 161.5084 526.3756 161.1822 526.2909 160.9957 526.0356C 162.1022 525.0314 163.6164 523.1516 165.0344 521.8904C 166.4209 520.6129 167.6212 519.9513 167.7399 521.0784C 168.7853 519.5215 170.2239 518.6368 169.5026 518.0381C 170.4989 517.3787 171.5808 516.8231 172.6109 516.2368C 173.6877 515.7143 174.7179 515.128 175.8175 514.6769C 175.2785 514.7966 174.5853 514.5983 176.2794 513.38C 174.662 514.5424 172.8402 515.3448 171.3209 516.2396C 169.7847 517.0979 168.5746 518.0408 168.1732 519.1661C 167.3289 518.4126 168.0938 516.9139 165.9783 517.5689C 169.1373 515.0062 172.0596 513.6736 174.6853 512.7926C 177.3129 511.9006 179.7184 511.5622 182.1429 511.1024C 184.0503 509.8947 186.1003 508.7883 188.1834 507.6871L188.1834 507.6871L188.645 508.0644L188.645 508.0644L189.3311 506.4178C 190.2643 506.382 190.8914 506.423 191.0218 506.2397C 191.1376 506.0767 190.8683 505.9895 190.469 505.9387C 191.1909 505.7343 191.8786 505.6038 192.2627 505.607C 192.2861 504.8753 190.8274 504.5804 189.3167 504.4019L189.3167 504.4019L187.7363 505.7623C 186.2025 505.6594 185.009 505.4058 186.6859 504.298C 186.9723 504.2747 187.3395 504.2413 187.7194 504.1986C 186.7109 504.0643 186.0475 503.8932 186.5981 503.4811L186.5981 503.4811L191.9534 502.1425C 191.4301 502.5249 190.693 503.1907 189.8138 503.9702C 193.3123 503.587 197.3795 503.1113 194.7962 505.0283C 196.0195 504.2911 197.2445 503.5428 198.4637 502.7596C 201.0231 502.3774 202.1011 502.1379 203.2736 501.8C 203.8636 501.6429 204.4751 501.4213 205.328 501.1016C 206.1775 500.8039 207.255 500.3494 208.7748 499.6696C 208.8276 499.1122 207.1728 499.7144 207.9681 498.8201C 210.3445 498.1604 212.4542 495.9435 213.8454 493.9088L213.8454 493.9088L214.7963 492.4505C 215.0614 491.9827 215.3196 491.5591 215.5548 491.211C 216.0361 490.5167 216.4041 490.0423 216.8137 490.0269C 218.0756 488.6056 218.4499 488.381 218.8392 488.3511C 219.186 488.3032 219.4926 488.4414 220.2667 487.4646C 220.0814 487.4923 219.7328 487.5512 220.0569 486.9229C 220.8195 486.2384 221.5414 485.5249 222.2336 484.7842C 222.4633 483.5983 220.4717 486.8743 221.5724 483.799C 224.486 479.1053 225.8356 476.1027 226.5842 471.7282C 228.3588 465.7035 227.7015 474.798 228.8271 469.5999C 228.2823 468.6667 227.5946 467.7791 228.2128 464.6061C 229.0967 463.0694 229.6205 463.4111 230.5744 460.6976L230.5744 460.6976L229.4103 460.6182C 230.0461 458.0588 230.7565 456.1105 229.9215 455.8788C 230.9243 453.9421 231.2216 452.5403 231.3586 451.4418C 232.2089 449.6849 232.549 450.5524 232.7183 451.9362C 232.8876 453.32 232.9326 455.284 233.0372 455.7754C 233.1458 451.8783 234.3955 449.6632 233.8294 447.2674C 233.351 448.2337 232.9116 449.24 232.4722 450.2463C 232.882 446.6675 233.9314 445.3036 234.6434 444.3624C 235.3683 443.4119 235.7855 442.9112 235.4557 440.9594C 234.4137 443.0032 232.7677 445.4393 232.7381 443.8849L232.7381 443.8849L233.7349 442.4224L233.7349 442.4224L234.7783 441.0237C 234.6993 440.5137 233.6843 442.6747 234.1102 441.1007C 234.7744 440.3217 236.3141 438.9324 237.1104 438.468L237.1104 438.468L237.0331 438.456C 238.2068 436.874 239.4994 435.4009 240.9557 434.1117C 240.2183 434.9245 239.712 434.8344 240.4749 434.0029C 240.9795 433.595 241.5757 433.3258 242.1159 432.98C 242.6655 432.6469 243.1819 432.3087 243.784 432.0744C 242.6581 432.4761 243.4347 431.5562 244.7879 430.4207C 245.8428 429.7477 246.6906 429.4611 247.3673 429.3288C 248.0779 429.2697 248.6174 429.365 249.0999 429.4627C 249.5934 429.5621 250.0038 429.6147 250.5198 429.5705C 251.0467 429.5281 251.6326 429.3251 252.4647 428.7758C 251.9502 428.956 251.8204 428.8453 251.2949 429.0237C 251.8759 428.7068 252.4375 428.2965 253.0668 428.0324C 253.297 428.5886 254.1202 428.7507 255.2131 428.7058C 255.7664 428.7127 256.4114 428.7112 257.0743 428.6674C 257.7407 428.6013 258.4665 428.5899 259.1888 428.6005C 260.6251 428.5298 262.0789 428.7108 263.1782 428.9158C 264.2765 429.1998 265.0032 429.6183 265.0243 430.2099C 267.8763 429.6921 265.3663 429.5391 261.8035 428.2268L261.8035 428.2268L263.3481 427.9694L263.3481 427.9694L264.9103 427.8166C 263.665 427.5323 262.6135 427.6741 261.278 427.3871L261.278 427.3871L261.3417 427.3404zM153.4636 552.7029C 152.4473 554.5809 152.5737 555.7318 152.8831 557.16C 152.1046 556.7109 151.3185 556.2379 150.5375 555.7317C 151.5201 554.6516 152.4464 553.6419 153.4636 552.7029L153.4636 552.7029L153.4636 552.7029zM152.957 557.1942C 152.9484 557.2494 152.9433 557.2825 152.9347 557.3378L152.9347 557.3378L152.8959 557.1508L152.8959 557.1508L152.9698 557.1848L152.9698 557.1848L152.957 557.1942zM360.1854 507.031C 360.2848 507.0464 360.3842 507.0619 360.4998 507.046C 361.7589 507.7509 361.1831 507.5256 360.1854 507.031zM279.6377 602.7322C 280.1874 603.2703 280.7289 603.7166 281.2703 604.1628C 281.0445 604.0145 280.9374 603.9752 280.9603 604.0466L280.9603 604.0466L279.636 602.7433L279.636 602.7433L279.6377 602.7322zM282.2193 605.2607L283.1188 606.0228C 283.1524 606.243 282.9809 606.1824 282.2193 605.2607zM282.6724 605.1841C 282.2412 604.9021 281.7633 604.5563 281.2703 604.1628C 281.5071 604.3127 281.946 604.6186 282.6724 605.1841zM227.9284 582.9666L227.8187 583.0173C 228.1371 582.7162 228.0826 582.7756 227.9284 582.9666zM287.8603 606.376C 287.7086 606.1149 287.6325 605.8768 287.7356 605.7231C 287.6902 605.9423 287.7366 606.1531 287.8603 606.376zM280.9731 604.0374C 281.9079 605.0086 281.0653 604.244 280.9731 604.0374zM404.2095 618.3495C 404.7522 618.0607 405.6047 617.5259 406.406 617.0284C 406.0342 617.3099 405.3715 617.7158 404.2095 618.3495zM431.8443 567.3218C 431.8568 567.4595 431.8531 567.6285 431.8657 567.7662C 431.7704 567.7966 431.7886 567.6072 431.8443 567.3218zM241.447 584.199C 241.7157 584.0712 241.9801 584.0444 242.2547 583.9514C 242.8359 583.9966 243.4112 584.007 244.0069 584.0317C 244.6085 584.0914 245.2484 584.1232 245.9503 584.1193C 245.2464 584.2813 244.4976 584.3683 243.748 584.3874C 243.0008 584.4634 242.2336 584.378 241.4376 584.1863L241.4376 584.1863L241.447 584.199zM235.5377 428.2912C 236.3859 427.7105 236.8366 427.577 236.9154 427.725C 236.0281 428.2657 235.504 428.58 235.5377 428.2912zM249.9572 584.1771C 248.3085 584.1581 247.0592 584.19 245.9486 584.1303C 246.9083 583.9968 247.8103 583.7978 248.5191 583.7498C 249.2339 583.7365 249.753 583.8173 249.9444 584.1865L249.9444 584.1865L249.9572 584.1771zM290.6668 441.0551C 290.9005 441.5892 291.0958 442.1513 291.3056 442.693C 289.523 440.9903 290.5556 441.479 290.6668 441.0551zM192.4149 506.445L194.8709 504.9833C 194.3459 505.3767 193.5479 505.8521 192.4149 506.445zM189.8774 503.9235L189.3787 504.3662L187.7813 504.163L189.8774 503.9235zM161.814 591.7284L160.1046 591.0099C 159.567 590.7566 159.0533 590.4957 158.6246 590.2706C 157.7798 589.811 157.296 589.4304 157.6855 589.2534L157.6855 589.2534L158.7692 589.1958C 159.318 589.8129 159.8508 590.3143 160.3387 590.7409C 160.8522 591.1489 161.3462 591.4633 161.8123 591.7394L161.8123 591.7394L161.814 591.7284zM237.593 438.4187L237.1868 438.412C 237.5773 438.156 237.7899 438.0986 237.593 438.4187zM243.8494 432.0167L244.9813 431.5027C 244.4642 431.7729 244.124 431.9236 243.8494 432.0167zM300.7287 621.4553L300.5031 622.1781C 300.1011 621.7083 299.7357 621.2216 299.3464 620.7425L299.3464 620.7425L300.727 621.4664L300.727 621.4664L300.7287 621.4553zM306.2772 625.4182L306.4377 626.4952C 305.7721 625.6111 305.1013 624.7601 304.4944 623.8625C 305.0663 624.404 305.6653 624.9158 306.2755 625.4293L306.2755 625.4293L306.2772 625.4182zM333.4643 633.0989C 331.8206 632.6848 330.1873 632.2044 328.5811 631.6943C 329.4615 631.7068 330.3574 631.62 331.2336 631.5867L331.2336 631.5867L331.0298 631.9509C 333.8573 632.3909 333.1752 632.7032 333.4661 633.0879L333.4661 633.0879L333.4643 633.0989zM347.5963 632.9337C 348.0313 633.0467 348.3911 633.3516 349.8053 633.2775C 351.0286 633.0493 349.7957 632.9027 349.8574 632.6521C 350.7068 632.8635 352.8512 633.1859 350.1761 633.584L350.1761 633.584L349.7523 633.4728C 347.3518 633.7781 344.1645 634.5604 344.5849 634.6937C 345.3348 634.0185 345.9823 633.5649 347.5981 632.9227L347.5981 632.9227L347.5963 632.9337zM350.0557 632.468C 349.8745 632.5416 349.8787 632.5875 349.8701 632.6428C 349.4887 632.5495 349.341 632.4812 350.0557 632.468zM319.4028 631.2842C 318.6713 630.2427 315.9366 628.6973 318.0111 628.6694C 321.527 630.0649 320.257 630.2294 322.3194 631.2969C 316.5394 629.04 323.8541 632.3389 319.4812 631.2172C 320.5952 631.7639 321.6253 632.1957 322.6173 632.5084C 321.5104 632.2796 320.4435 632.0118 319.4266 631.7856L319.4266 631.7856L319.5847 631.7876L319.5847 631.7876L319.6068 631.7911C 319.9008 631.7916 319.9961 631.7611 319.6978 631.7147C 319.6775 631.7003 319.6147 631.6678 319.5833 631.6517C 319.5783 631.5378 319.5089 631.4025 319.4156 631.2749C 317.6462 630.796 319.073 631.3687 319.5833 631.6517C 319.5874 631.6976 319.6247 631.7487 319.6196 631.7817L319.6196 631.7817L319.5975 631.7783C 317.6553 630.9557 315.7831 629.9744 313.9238 628.9837C 314.5386 629.249 315.2469 629.495 316.1258 629.8806C 317.0064 630.2552 318.0483 630.7567 319.4267 631.2766L319.4267 631.2766L319.4028 631.2842zM312.7479 628.3256L313.8999 628.9913C 313.1968 628.7122 312.5589 628.5224 311.8513 628.3444C 311.1309 628.1758 310.3426 628.0079 309.3326 627.7375C 307.5385 626.3271 307.2928 625.8704 307.2806 625.5857C 309.1832 626.6623 311.1096 627.7313 313.0966 628.6287L313.0966 628.6287L312.7351 628.3349L312.7351 628.3349L312.7479 628.3256zM305.565 618.5088C 305.308 619.2155 307.8207 621.8236 310.8396 622.6327C 313.1445 624.5411 310.3839 625.7066 307.3046 625.431C 307.4003 625.1066 307.501 624.896 305.0928 622.7792C 305.6441 622.9442 307.2583 623.6931 308.4761 624.1541C 309.723 624.5743 310.5624 624.705 309.5748 623.7821C 306.246 621.3297 306.5844 622.2081 304.6974 621.3942C 305.6635 621.5106 304.7432 620.5189 303.8469 619.3727C 302.9344 618.2578 302.046 616.9884 302.7968 616.7432C 303.6145 617.5945 304.4851 618.3973 305.3394 619.2316C 305.507 619.0994 304.6802 618.0884 305.565 618.5089L305.565 618.5089L305.565 618.5088zM333.0192 635.4505C 332.3278 635.2411 331.8117 634.9232 331.2887 634.6495C 332.0999 634.8889 332.8685 635.1104 333.514 635.3239C 333.3398 635.3533 333.151 635.4031 333.0175 635.4615L333.0175 635.4615L333.0192 635.4505zM333.0192 635.4505L333.2239 635.5163C 332.747 635.6005 332.8143 635.5317 333.0192 635.4505zM316.9774 631.314L319.4139 631.795C 318.6584 631.7792 317.1315 631.6321 316.9774 631.314zM328.3991 633.7361C 329.7866 633.9068 330.5602 634.2421 331.2904 634.6385C 330.2856 634.3351 329.2135 634.1004 328.0727 633.7985C 327.9922 633.6615 327.9804 633.5918 328.4102 633.7378L328.4102 633.7378L328.3991 633.7361zM306.9919 625.405L307.2936 625.4293C 307.2936 625.4293 307.2781 625.5287 307.2712 625.5729L307.2712 625.5729L306.9826 625.3923L306.9826 625.3923L306.9919 625.405zM333.8181 635.4052L333.5157 635.3129C 333.7138 635.2758 333.8702 635.2888 333.8181 635.4052zM327.0038 634.1978C 326.3661 633.861 325.6723 633.5946 324.9308 633.3435C 324.2056 633.0609 323.4199 632.803 322.6046 632.5177L322.6046 632.5177L325.3535 633.1717C 326.2726 633.3713 327.179 633.5802 328.0599 633.8077C 328.2506 634.1089 328.9354 634.7245 327.0021 634.2087L327.0021 634.2087L327.0038 634.1978zM342.4673 635.1447C 342.9812 635.2586 343.49 635.4056 344.0074 635.4974C 343.6088 635.5146 343.2171 635.4876 342.8219 635.4827L342.8219 635.4827L342.4673 635.1447zM344.0074 635.4974L347.1935 635.4503C 347.1277 635.655 346.5425 635.9259 347.4089 636.1738L347.4089 636.1738L344.0057 635.5085L344.0057 635.5085L344.0074 635.4974zM355.2012 635.5311C 353.4112 635.1848 349.7907 634.825 353.2687 634.0653C 354.54 634.5459 352.5345 635.0031 355.2012 635.5311zM342.4711 636.3557L342.1695 636.3314C 342.2937 636.2602 342.3634 636.2484 342.4711 636.3557zM341.0198 636.2317L340.9722 636.2469C 339.6815 636.1818 338.7834 636.0647 338.4044 636.0283C 338.7392 636.0578 339.5268 636.1577 341.0215 636.2206L341.0215 636.2206L341.0198 636.2317zM342.1695 636.3314C 341.9211 636.4738 341.4402 636.874 339.7133 636.922L339.7133 636.922L340.9833 636.2486L340.9833 636.2486L342.1805 636.3331L342.1805 636.3331L342.1695 636.3314zM321.382 633.3229C 322.1708 633.7059 322.979 634.1823 323.8594 634.7039C 323.0043 634.3107 322.1671 633.875 321.382 633.3229zM329.7789 635.9191C 330.9579 636.7021 327.8345 636.4197 329.1218 637.016C 328.0642 636.7609 327.1301 636.3667 326.2546 635.959C 325.3919 635.5419 324.592 635.1573 323.8611 634.6929C 324.6721 635.0792 325.5419 635.3051 326.5145 635.5243C 327.4872 635.7435 328.551 635.8864 329.7806 635.9081L329.7806 635.9081L329.7789 635.9191zM337.5014 637.3244L339.1809 638.1627L336.1969 636.8386L337.5124 637.3262L337.5014 637.3244zM362.9174 634.1414C 364.5727 634.2632 366.2297 634.3739 367.8893 634.3947C 365.9287 634.4176 363.9412 634.3232 361.985 634.2451L361.985 634.2451L362.9174 634.1414L362.9174 634.1414L362.9174 634.1414zM350.3557 636.9377L347.3294 636.4669C 350.0302 636.412 350.527 636.6364 350.3557 636.9377zM349.2261 638.0176C 349.054 637.742 350.1536 637.2909 350.3557 636.9377C 351.0294 637.0426 351.7065 637.1254 352.3837 637.2081C 351.3499 637.4545 349.3594 637.5972 349.2167 638.0049L349.2167 638.0049L349.2261 638.0176zM381.8385 628.8616C 382.4381 628.5703 383.0471 628.2917 383.6484 627.9894L383.6484 627.9894L385.4026 627.9117C 384.534 627.9688 381.8284 629.2899 381.8368 628.8727L381.8368 628.8727L381.8385 628.8616zM369.6373 634.9381C 371.083 634.3712 372.957 633.8145 370.2272 633.91C 372.768 633.5022 373.8948 633.5305 373.7542 633.7801C 373.6212 634.0535 372.1927 634.5099 369.639 634.9271L369.639 634.9271L369.6373 634.9381zM368.0015 635.4188C 367.0003 635.4554 366.0085 635.5047 364.9921 635.4936C 365.3495 635.2324 365.334 634.8228 366.3698 635.4364C 366.0721 635.096 366.709 635.3648 368.0015 635.4188L368.0015 635.4188L368.0015 635.4188zM363.5661 635.4979L364.9921 635.4936C 364.7641 635.6504 364.3994 635.7407 363.5661 635.4979zM366.259 636.0753L369.0227 636.0529C 368.5104 636.437 366.1157 636.9241 367.0461 636.9783C 364.2218 637.1724 364.7596 636.7696 366.2701 636.077L366.2701 636.077L366.259 636.0753zM375.6642 634.5184C 377.6866 634.0979 374.435 635.2208 375.6642 634.5184zM373.7249 634.986C 374.2529 634.3554 371.4379 635.0712 376.0606 634.2974C 375.8411 634.3989 375.7884 634.4473 375.6531 634.5167C 375.2442 634.6002 374.6686 634.7369 373.7139 634.9842L373.7139 634.9842L373.7249 634.986zM383.0988 629.8495C 384.5031 628.1676 389.8061 628.1105 392.8801 626.53L392.8801 626.53L393.3219 626.0897L393.3219 626.0897L395.0701 626.4861C 391.1366 627.7745 385.8066 628.7324 383.0988 629.8495zM401.1597 623.7007L401.5835 623.8119C 400.5838 623.9844 399.5765 624.1331 398.5692 624.2817L398.5692 624.2817L401.1614 623.6896L401.1614 623.6896L401.1597 623.7007zM421.2783 616.8313C 421.0837 616.8463 421.299 616.1897 420.2119 616.7785C 420.2104 616.6425 419.381 617.6107 421.2783 616.8313z" stroke="none" fill="#FF914D" fill-rule="nonzero" /></g></g></g></g><g clip-path="url(#11)"><g clip-path="url(#12)"><g clip-path="url(#13)"><g clip-path="url(#14)"><g clip-path="url(#15)"><g clip-path="url(#16)"><g clip-path="url(#17)"><path id="5" transform="matrix(1 0 0 -1 0 842)" d="M413.6026 417.2433C 413.6026 390.4596 391.9909 368.8479 365.2072 368.8479L365.2072 368.8479L186.0332 368.8479C 159.2495 368.6631 137.6378 390.4596 137.6378 417.2433C 137.6378 444.0271 159.2495 465.6388 186.0332 465.6388L186.0332 465.6388L365.0225 465.6388C 391.9909 465.6388 413.6026 444.0271 413.6026 417.2433z" stroke="none" fill="#FF914D" fill-rule="nonzero" /></g></g></g></g></g></g></g><g clip-path="url(#18)"><g clip-path="url(#19)"><g clip-path="url(#20)"><g clip-path="url(#21)"><g clip-path="url(#22)"><g clip-path="url(#23)"><g clip-path="url(#24)"><path id="6" transform="matrix(1 0 0 -1 0 842)" d="M137.6378 417.151C 137.6378 404.1144 142.8167 391.6118 152.0353 382.3936C 161.2539 373.1754 173.757 367.9967 186.794 367.9967L186.794 367.9967L364.4464 367.9967C 377.4834 367.9967 389.9865 373.1754 399.2051 382.3936C 408.4236 391.6118 413.6026 404.1144 413.6026 417.151C 413.6026 430.1875 408.4236 442.6901 399.2051 451.9083C 389.9865 461.1265 377.4834 466.3053 364.4464 466.3053L364.4464 466.3053L186.794 466.3053C 173.757 466.3053 161.2539 461.1265 152.0353 451.9083C 142.8167 442.6901 137.6378 430.1875 137.6378 417.151z" stroke="#000000" stroke-width="3" fill="none" /></g></g></g></g></g></g></g><g clip-path="url(#25)"><g transform="matrix(0.24069 0 0 0.24 173.3841 532.8851)"><g transform="matrix(1 0 0 1 0 0)"><image x="0" y="0" xlink:href="img_02.png" width="913" height="1075" /></g></g></g><g clip-path="url(#26)"><g transform="matrix(0.6597221 0 0 0.6549295 430.4334 81.18689)"><g transform="matrix(1 0 0 1 0 0)"><image x="0" y="0" xlink:href="img_03.png" width="216" height="142" /></g></g></g><g clip-path="url(#27)"><path id="9" transform="matrix(1 0 0 -1 0 842)" d="M398.3148 773.3517L603.5439 773.3517L603.5439 748.2736L398.3148 748.2736z" stroke="none" fill="#000000" fill-rule="nonzero" /></g><g clip-path="url(#28)"><g clip-path="url(#29)"><g clip-path="url(#30)"><g clip-path="url(#31)"><path id="10" transform="matrix(1 0 0 -1 0 842)" d="M398.3148 773.3517L603.5439 773.3517L603.5439 748.2736L398.3148 748.2736z" stroke="none" fill="#000000" fill-rule="nonzero" /></g></g></g></g><g clip-path="url(#32)"><g clip-path="url(#33)"><g clip-path="url(#34)"><g clip-path="url(#35)"><path id="11" transform="matrix(1 0 0 -1 0 842)" d="M398.3148 773.3517L603.5439 773.3517L603.5439 748.2736L398.3148 748.2736z" stroke="none" fill="#000000" fill-rule="nonzero" /></g></g></g></g><g clip-path="url(#36)"></g><g clip-path="url(#37)"><g clip-path="url(#38)"><g clip-path="url(#39)"><g clip-path="url(#40)"><g clip-path="url(#41)"><g clip-path="url(#42)"><g clip-path="url(#43)"><g clip-path="url(#44)"><path id="22" transform="matrix(1 0 0 -1 0 842)" d="M59.37529 811.022C 50.81754 811.022 43.85805 804.0626 43.85805 795.5048C 43.85805 786.9471 50.81754 779.9875 59.37529 779.9875C 67.93305 779.9875 74.89253 786.9471 74.89253 795.5048C 74.89253 804.0626 67.93305 811.022 59.37529 811.022zM59.37529 779.7548C 50.6934 779.7548 43.62529 786.8229 43.62529 795.5048C 43.62529 804.1867 50.6934 811.2548 59.37529 811.2548C 68.05719 811.2548 75.12529 804.1867 75.12529 795.5048C 75.12529 786.8229 68.05719 779.7548 59.37529 779.7548z" stroke="none" fill="#000000" fill-rule="nonzero" /></g></g></g></g></g></g></g></g><g clip-path="url(#45)"><g clip-path="url(#46)"><g clip-path="url(#47)"><g clip-path="url(#48)"><g clip-path="url(#49)"><g clip-path="url(#50)"><g clip-path="url(#51)"><path id="23" transform="matrix(1 0 0 -1 0 842)" d="M43.63329 795.3588L43.63329 795.3562C 43.63329 791.1421 45.30748 787.1006 48.28754 784.1207C 51.26762 781.1409 55.30946 779.4669 59.52391 779.4669C 63.73837 779.4669 67.78021 781.1409 70.76028 784.1207C 73.74035 787.1006 75.41454 791.1421 75.41454 795.3562L75.41454 795.3562L75.41454 795.3588C 75.41454 799.5729 73.74035 803.6144 70.76028 806.5942C 67.78021 809.574 63.73837 811.2481 59.52391 811.2481C 55.30946 811.2481 51.26762 809.574 48.28754 806.5942C 45.30748 803.6144 43.63329 799.5729 43.63329 795.3588z" stroke="#000000" stroke-width="1.5" fill="none" /></g></g></g></g></g></g></g><g clip-path="url(#52)"></g><g clip-path="url(#53)"><g clip-path="url(#54)"><g clip-path="url(#55)"><g clip-path="url(#56)"><g clip-path="url(#57)"><path id="25" transform="matrix(1 0 0 -1 0 842)" d="M391.4443 387.2014C 390.8627 387.8753 390.9353 388.8929 391.6075 389.4741L391.6075 389.4741L397.4597 394.5423C 398.1319 395.1234 399.1486 395.0491 399.7303 394.3752C 400.312 393.7014 400.2393 392.6837 399.5671 392.1026L399.5671 392.1026L393.7149 387.0344C 393.0444 386.45 392.026 386.5276 391.4443 387.2014zM382.964 391.4225C 382.0753 391.478 381.3995 392.2397 381.4536 393.1292L381.4536 393.1292L381.9215 400.8672C 381.9756 401.7567 382.7354 402.432 383.624 402.3764C 384.5126 402.3208 385.1884 401.5591 385.1344 400.6696L385.1344 400.6696L384.6697 392.9334C 384.6156 392.0439 383.8526 391.3669 382.964 391.4225zM372.5708 370.2509C 373.1525 369.577 373.0799 368.5594 372.4077 367.9782L372.4077 367.9782L366.5554 362.9101C 365.8832 362.3289 364.8665 362.4032 364.2849 363.0771C 363.7032 363.7509 363.7758 364.7686 364.448 365.3498L364.448 365.3498L370.3003 370.4179C 370.9725 370.9991 371.9891 370.9248 372.5708 370.2509zM369.2166 379.5831C 369.1625 378.6936 368.4027 378.0183 367.5141 378.0739L367.5141 378.0739L359.7802 378.5532C 358.8916 378.6088 358.2158 379.3705 358.2699 380.2599C 358.3239 381.1494 359.0837 381.8247 359.9724 381.7691L359.9724 381.7691L367.7012 381.2913C 368.5931 381.2375 369.2674 380.4708 369.2166 379.5831zM373.6892 388.2884C 373.017 387.7072 372.0004 387.7816 371.4187 388.4554L371.4187 388.4554L366.3495 394.3239C 365.7679 394.9978 365.8405 396.0154 366.5127 396.5966C 367.1849 397.1777 368.2016 397.1034 368.7832 396.4295L368.7832 396.4295L373.8556 390.5628C 374.4341 389.8872 374.3615 388.8696 373.6892 388.2884zM439.2443 346.9794C 440.248 343.1207 439.1435 338.691 436.4943 335.7218C 434.971 334.0151 432.9961 332.7665 430.9879 331.7105C 428.8596 330.5891 426.6519 329.6057 424.4755 328.5803C 423.371 328.0588 422.2648 327.5405 421.1583 327.0305C 420.112 326.5491 419.0825 326.0136 418.0235 325.5632C 417.1795 325.2046 416.3102 325.0009 415.394 325.1763C 414.4081 325.3643 413.442 325.7319 412.479 326.0167C 407.7943 327.4024 403.1095 328.788 398.4247 330.1736C 394.2567 331.4065 390.0885 332.6393 385.9204 333.8722C 385.3687 334.0354 384.8323 334.1858 384.3318 334.4866C 383.6673 334.8877 383.1305 335.4637 382.7651 336.15C 381.9879 337.6153 382.1175 339.5788 383.2775 340.8094C 383.9721 341.5503 384.9028 342.0277 385.9126 342.1436C 386.4348 342.2046 386.9859 342.1507 387.5108 342.1373C 388.0439 342.1241 388.577 342.111 389.1119 342.0946C 391.2411 342.0403 393.367 341.9843 395.4962 341.9299C 395.6667 341.9258 395.8373 341.9218 396.0078 341.9177C 396.7082 341.8987 397.1818 342.6668 396.8453 343.2845C 396.415 344.0746 395.9846 344.8646 395.5543 345.6546C 394.474 347.6378 393.3919 349.6242 392.3116 351.6074C 390.8948 354.2083 389.4762 356.8124 388.0594 359.4133C 386.6196 362.0565 385.1798 364.6996 383.7418 367.3395C 382.5995 369.4365 381.4572 371.5334 380.3149 373.6304C 379.7712 374.6285 379.2242 375.6248 378.6838 376.6247C 378.0403 377.8214 377.9464 379.2373 378.5137 380.4823C 379.408 382.4323 381.6756 383.4062 383.7109 382.7442C 384.9176 382.3518 385.7121 381.465 386.3 380.3857C 386.7109 379.6314 387.1218 378.8771 387.5327 378.1229C 388.9229 375.5708 390.3131 373.0186 391.7015 370.4698C 392.7517 368.5419 393.8019 366.614 394.8521 364.686C 394.907 364.5853 394.9637 364.4812 395.0186 364.3804C 395.5889 363.3336 397.1983 364.2103 396.641 365.2642C 395.3615 367.6827 396.6531 370.7725 399.3474 371.4265C 400.8266 371.7854 402.4066 371.318 403.4503 370.213C 404.0246 369.6067 404.383 368.7943 404.7779 368.0693C 405.1799 367.3314 405.5802 366.5966 405.9822 365.8586C 406.5525 364.8117 408.1619 365.6884 407.6046 366.7424C 406.3233 369.1641 407.622 372.2409 410.316 372.9032C 411.7902 373.2635 413.3769 372.7915 414.4189 371.6896C 414.9811 371.0979 415.3253 370.3115 415.7114 369.6028C 416.1169 368.8583 416.5225 368.1138 416.9281 367.3693C 417.4983 366.3224 419.1077 367.1991 418.5505 368.2531C 417.5655 370.1153 418.0531 372.5183 419.802 373.7493C 421.8801 375.2101 424.7635 374.5127 426.0038 372.3131C 428.3238 368.0541 430.642 363.7984 432.962 359.5395C 434.1503 357.358 435.3404 355.1732 436.5287 352.9918C 437.5858 351.0591 438.6894 349.1181 439.2443 346.9794zM436.7872 356.3871C 434.3397 360.8802 431.894 365.37 429.4464 369.863C 428.8425 370.9716 428.2368 372.0835 427.6329 373.1922C 426.2938 375.5655 423.5179 376.8611 420.8434 376.2095C 418.7347 375.6932 417.0791 374.0746 416.4592 372.038C 416.1735 372.4852 415.8456 372.9095 415.4423 373.2715C 413.9453 374.6061 411.8587 375.1769 409.9008 374.7006C 408.1888 374.2823 406.66 373.0954 405.8919 371.5008C 405.7395 371.1859 405.6171 370.8621 405.5198 370.5308C 405.2271 370.9911 404.8939 371.4251 404.4802 371.7984C 402.9985 373.1202 400.955 373.6892 399.0092 373.2448C 397.2668 372.8437 395.7089 371.6409 394.9298 370.0276C 394.7836 369.7245 394.6642 369.4108 394.5681 369.0928C 394.4618 369.2879 394.3573 369.4797 394.2511 369.6748C 392.7971 372.3439 391.3431 375.0131 389.8909 377.679C 389.3525 378.6674 388.8159 379.6524 388.2775 380.6408C 387.9251 381.2878 387.5959 381.9305 387.1432 382.5145C 385.4846 384.6632 382.4865 385.3318 380.0233 384.3231C 377.8828 383.448 376.4309 381.3165 376.3085 379.0154C 376.214 377.227 377.0339 375.8145 377.8451 374.3255C 378.8315 372.5146 379.8197 370.7005 380.8062 368.8896C 382.2177 366.2985 383.6291 363.7074 385.0388 361.1195C 386.5318 358.3788 388.0247 355.6381 389.5194 352.8942C 390.752 350.6314 391.9829 348.3719 393.2155 346.1091C 393.6317 345.3451 394.0384 344.5675 394.4546 343.8035C 393.0969 343.8396 391.736 343.874 390.38 343.9068C 389.6466 343.9247 388.9114 343.9458 388.1747 343.9618C 386.971 343.9933 385.7395 344.1066 384.5787 343.7272C 382.3078 342.9835 380.7238 341.0793 380.4736 338.696C 380.2732 336.8161 381.0561 334.8227 382.4805 333.575C 383.5821 332.611 384.877 332.2498 386.2413 331.8463C 388.5988 331.149 390.9612 330.4503 393.3186 329.753C 398.2542 328.2932 403.1847 326.8348 408.1202 325.375C 409.3491 325.0116 410.5729 324.6496 411.8018 324.2861C 412.825 323.9835 413.8459 323.6078 414.8924 323.3938C 415.9755 323.1743 417.0172 323.2317 418.0612 323.5938C 419.2146 323.9945 420.2901 324.5845 421.3984 325.0913C 423.7288 326.1584 426.0465 327.2565 428.3625 328.3579C 430.5923 329.4166 432.8412 330.4477 434.8677 331.872C 436.8151 333.2406 438.4995 334.8833 439.6481 336.9845C 440.6802 338.8747 441.2845 340.9787 441.4355 343.1267C 441.6007 345.4806 441.1066 347.7241 440.1902 349.8851C 439.2211 352.1354 437.9507 354.2512 436.7872 356.3871z" stroke="none" fill="#000000" fill-rule="nonzero" /></g></g></g></g></g><g clip-path="url(#58)"></g></g></g></svg>