<svg xmlns="http://www.w3.org/2000/svg" xmlns:xlink="http://www.w3.org/1999/xlink" id="body_1" preserveAspectRatio="xMinYMin meet" viewBox="0 0 793 1123"><defs><clipPath id="1"><path id="" clip-rule="evenodd" transform="matrix(1 0 0 1 0 0)" d="M0 842L0 -0.25L0 -0.25L595.5 -0.25L595.5 -0.25L595.5 842L595.5 842L0 842z" /></clipPath><clipPath id="2"><path id="" clip-rule="evenodd" transform="matrix(1 0 0 1 0 0)" d="M0 -0.249939L595.5 -0.249939L595.5 -0.249939L595.5 842.0001L595.5 842.0001L0 842.0001z" /></clipPath><clipPath id="3"><path id="" clip-rule="evenodd" transform="matrix(1 0 0 1 0 0)" d="M0 -0.249939L595.5 -0.249939L595.5 -0.249939L595.5 842.0001L595.5 842.0001L0 842.0001z" /></clipPath><clipPath id="4"><path id="" clip-rule="evenodd" transform="matrix(1 0 0 1 0 0)" d="M0 -0.249939L595.5 -0.249939L595.5 -0.249939L595.5 842.0001L595.5 842.0001L0 842.0001z" /></clipPath><clipPath id="5"><path id="" clip-rule="evenodd" transform="matrix(1 0 0 1 0 0)" d="M78.71999 30.71008L522.24 30.71008L522.24 30.71008L522.24 810.9501L522.24 810.9501L78.71999 810.9501z" /></clipPath><clipPath id="6"><path id="" clip-rule="evenodd" transform="matrix(1 0 0 1 0 0)" d="M79.51787 30.75183L522.0178 30.75183L522.0178 30.75183L522.0178 810.7518L522.0178 810.7518L79.51787 810.7518z" /></clipPath><clipPath id="7"><path id="" clip-rule="evenodd" transform="matrix(1 0 0 1 0 0)" d="M0 -0.249939L595.5 -0.249939L595.5 -0.249939L595.5 842.0001L595.5 842.0001L0 842.0001z" /></clipPath><clipPath id="8"><path id="" clip-rule="evenodd" transform="matrix(1 0 0 1 0 0)" d="M0 -0.249939L595.5 -0.249939L595.5 -0.249939L595.5 842.0001L595.5 842.0001L0 842.0001z" /></clipPath><clipPath id="9"><path id="" clip-rule="evenodd" transform="matrix(1 0 0 1 0 0)" d="M-2.23459 -14.49628L130.3679 -14.49628L130.3679 -14.49628L130.3679 170.9478L130.3679 170.9478L-2.23459 170.9478z" /></clipPath><clipPath id="10"><path id="" clip-rule="evenodd" transform="matrix(1 0 0 1 0 0)" d="M118.4139 -13.60992C 120.6839 -3.399902 121.8839 7.070068 121.9539 17.55005C 122.0839 36.91998 118.394 56.32996 111.0839 74.30994C 103.804 92.30994 92.88396 108.8299 79.21402 122.6999C 65.53403 136.5598 49.12406 147.7498 31.1341 155.3298C 20.6041 159.7798 9.544116 162.9998 -1.745859 164.9298L-1.745859 164.9298L-1.745859 170.2098C 10.25413 168.3898 22.0541 165.1698 33.31408 160.5898C 52.10405 152.9798 69.354 141.5698 83.81398 127.2998C 98.27398 113.0299 109.9539 95.88989 117.8539 77.10992C 125.784 58.33997 129.9539 37.96997 130.0939 17.55005C 130.1639 7.110046 129.1739 -3.349915 127.1639 -13.60992L127.1639 -13.60992L118.4139 -13.60992zM96.07399 -13.60992C 98.74396 -3.4599 100.154 7.030029 100.244 17.55005C 100.384 34.07001 97.24399 50.63995 91.02396 65.99994C 84.82399 81.36993 75.52402 95.47992 63.85403 107.3499C 52.18405 119.1998 38.18408 128.7798 22.81411 135.2698C 14.91412 138.6199 6.664131 141.1599 -1.75585 142.8499L-1.75585 142.8499L-1.75585 148.2198C 7.384116 146.5999 16.37411 144.0398 24.9941 140.5399C 41.15407 134.0098 56.00405 124.2098 68.45401 111.9598C 80.90401 99.7099 90.96397 84.96991 97.78399 68.80994C 104.624 52.65997 108.2339 35.14001 108.374 17.56006C 108.454 7.100037 107.304 -3.379944 104.964 -13.59991L104.964 -13.59991L96.07399 -13.60992zM73.464 -13.60992C 76.714 -3.579895 78.43399 6.970032 78.534 17.55005C 78.66399 31.22998 76.104 44.96002 70.96402 57.69C 65.85403 70.42993 58.16404 82.13995 48.50405 91.99994C 38.84407 101.8599 27.2441 109.7999 14.50412 115.2098C 9.244131 117.4499 3.804126 119.2599 -1.75585 120.6099L-1.75585 120.6099L-1.75585 126.0999C 4.534131 124.7598 10.71412 122.8799 16.6841 120.4698C 30.21409 115.0298 42.66407 106.8399 53.10406 96.59991C 63.54404 86.35992 71.99401 74.01996 77.72401 60.48999C 83.47401 46.96997 86.52399 32.29004 86.66401 17.55005C 86.76397 7.060059 85.384 -3.46991 82.57399 -13.60992L82.57399 -13.60992L73.464 -13.60992zM50.32406 -13.60992C 54.47405 -3.809937 56.70404 6.840027 56.83403 17.55005C 56.96405 28.39001 54.96404 39.28003 50.91405 49.38C 46.88405 59.48999 40.80407 68.79993 33.16408 76.63995C 25.5241 84.47992 16.32412 90.81995 6.214116 95.13989C 3.614121 96.24988 0.9641455 97.23993 -1.735855 98.0799L-1.735855 98.0799L-1.735855 103.7799C 1.704141 102.8599 5.084136 101.7399 8.394126 100.4099C 19.30411 96.04993 29.34409 89.47992 37.77409 81.24994C 46.20406 73.01996 53.04406 63.08997 57.68404 52.17999C 62.34404 41.28003 64.83403 29.44 64.97404 17.55005C 65.09404 7.000061 63.36404 -3.599915 59.86403 -13.60992L59.86403 -13.60992L50.32406 -13.60992zM25.9341 -13.60992C 27.52409 -11.06989 28.92409 -8.419922 30.1141 -5.669922C 33.27409 1.610046 34.99409 9.550049 35.13407 17.54004C 35.27408 25.53003 33.82409 33.58002 30.87409 41.07001C 27.9241 48.56 23.4641 55.45996 17.83411 61.28998C 12.28412 67.01996 5.624121 71.69995 -1.72585 74.92993L-1.72585 74.92993L-1.72585 81.03992C -1.115859 80.81995 -0.5058545 80.58997 0.09413086 80.34991C 8.374116 77.07996 16.01413 72.11993 22.4341 65.89996C 28.8541 59.67999 34.07408 52.14996 37.64407 43.87C 41.22407 35.60004 43.14406 26.60004 43.28407 17.54004C 43.42406 8.480042 41.76407 -0.6199341 38.40407 -9.099915C 37.80408 -10.62988 37.13408 -12.13989 36.42407 -13.61993L36.42407 -13.61993L25.9341 -13.60992zM-1.735855 -13.60992L-1.735855 -12.29993C -0.6758496 -11.48993 0.3441504 -10.61993 1.324131 -9.69989C 4.984131 -6.2099 7.974126 -2.009949 10.05413 2.640076C 12.13412 7.290039 13.29412 12.39008 13.42412 17.54004C 13.55411 22.69 12.67411 27.90002 10.80412 32.75C 8.934112 37.59998 6.094131 42.10999 2.474121 45.92999C 1.164141 47.29999 -0.245874 48.58997 -1.735855 49.76996L-1.735855 49.76996L-1.735855 57.14996C 1.444131 55.29999 4.404126 53.07996 7.074126 50.52997C 11.47412 46.31 15.08411 41.19 17.56412 35.54004C 20.0441 29.89001 21.4141 23.74005 21.55411 17.53003C 21.6941 11.32007 20.59411 5.050049 18.31411 -0.7999268C 16.52411 -5.419922 13.99411 -9.759888 10.85413 -13.62988L10.85413 -13.62988L-1.735855 -13.60992zM-1.735855 7.520081L-1.735855 25.44C -0.7958496 22.93005 -0.245874 20.25006 -0.1458545 17.54004C -0.01586426 14.17004 -0.5458593 10.74005 -1.735855 7.520081z" /></clipPath><clipPath id="11"><path id="" clip-rule="evenodd" transform="matrix(1 0 0 1 0 0)" d="M46.227 183.4985L293.727 183.4985L293.727 183.4985L293.727 448.9986L293.727 448.9986L46.227 448.9986z" /></clipPath><clipPath id="12"><path id="" clip-rule="evenodd" transform="matrix(1 0 0 1 0 0)" d="M317.5095 388.7496L565.0095 388.7496L565.0095 388.7496L565.0095 672.2496L565.0095 672.2496L317.5095 672.2496z" /></clipPath><clipPath id="13"><path id="" clip-rule="evenodd" transform="matrix(1 0 0 1 0 0)" d="M51.99975 411.7498L280.7498 411.7498L280.7498 411.7498L280.7498 415.4998L280.7498 415.4998L51.99975 415.4998z" /></clipPath><clipPath id="14"><path id="" clip-rule="evenodd" transform="matrix(1 0 0 1 0 0)" d="M323.0002 637.7503L551.7502 637.7503L551.7502 637.7503L551.7502 641.5003L551.7502 641.5003L323.0002 641.5003z" /></clipPath><clipPath id="15"><path id="" clip-rule="evenodd" transform="matrix(1 0 0 1 0 0)" d="M0 -0.249939L595.5 -0.249939L595.5 -0.249939L595.5 842.0001L595.5 842.0001L0 842.0001z" /></clipPath><clipPath id="16"><path id="" clip-rule="evenodd" transform="matrix(1 0 0 1 0 0)" d="M0 -0.249939L595.5 -0.249939L595.5 -0.249939L595.5 842.0001L595.5 842.0001L0 842.0001z" /></clipPath><clipPath id="17"><path id="" clip-rule="evenodd" transform="matrix(1 0 0 1 0 0)" d="M66.28424 277.1405L282.6161 277.1405L282.6161 277.1405L282.6161 401.0353L282.6161 401.0353L66.28424 401.0353z" /></clipPath><clipPath id="18"><path id="" clip-rule="evenodd" transform="matrix(1 0 0 1 0 0)" d="M79.03424 277.1405C 75.65174 277.1405 72.41174 278.483 70.01924 280.8755C 67.62675 283.2681 66.28424 286.5081 66.28424 289.8905L66.28424 289.8905L66.28424 388.2831C 66.28424 391.6655 67.62675 394.9055 70.01924 397.298C 72.41174 399.6906 75.65174 401.0331 79.03424 401.0331L79.03424 401.0331L269.8117 401.0331C 273.1942 401.0331 276.4342 399.6906 278.8267 397.298C 281.2192 394.9055 282.5617 391.6655 282.5617 388.2831L282.5617 388.2831L282.5617 289.8905C 282.5617 286.5081 281.2192 283.2681 278.8267 280.8755C 276.4342 278.483 273.1942 277.1405 269.8117 277.1405L269.8117 277.1405L79.03424 277.1405z" /></clipPath><clipPath id="19"><path id="" clip-rule="evenodd" transform="matrix(1 0 0 1 0 0)" d="M66.28424 277.1405L282.6161 277.1405L282.6161 277.1405L282.6161 401.0353L282.6161 401.0353L66.28424 401.0353z" /></clipPath><clipPath id="20"><path id="" clip-rule="evenodd" transform="matrix(1 0 0 1 0 0)" d="M0 -0.249939L595.5 -0.249939L595.5 -0.249939L595.5 842.0001L595.5 842.0001L0 842.0001z" /></clipPath><clipPath id="21"><path id="" clip-rule="evenodd" transform="matrix(1 0 0 1 0 0)" d="M0 -0.249939L595.5 -0.249939L595.5 -0.249939L595.5 842.0001L595.5 842.0001L0 842.0001z" /></clipPath><clipPath id="22"><path id="" clip-rule="evenodd" transform="matrix(1 0 0 1 0 0)" d="M330.9472 468.4438L547.0956 468.4438L547.0956 468.4438L547.0956 617.3718L547.0956 617.3718L330.9472 617.3718z" /></clipPath><clipPath id="23"><path id="" clip-rule="evenodd" transform="matrix(1 0 0 1 0 0)" d="M343.6972 468.4438C 340.3148 468.4438 337.0747 469.7863 334.6823 472.1788C 332.2897 474.5713 330.9472 477.8113 330.9472 481.1938L330.9472 481.1938L330.9472 604.0438C 330.9472 607.4263 332.2897 610.6663 334.6823 613.0588C 337.0747 615.4513 340.3148 616.7938 343.6972 616.7938L343.6972 616.7938L534.4748 616.7938C 537.8573 616.7938 541.0973 615.4513 543.4897 613.0588C 545.4473 611.1013 546.6997 608.5738 547.0897 605.8663L547.0897 605.8663L547.0897 479.3713C 546.6997 476.6638 545.4473 474.1363 543.4897 472.1788C 541.1048 469.7863 537.8573 468.4438 534.4748 468.4438L534.4748 468.4438L343.6972 468.4438z" /></clipPath><clipPath id="24"><path id="" clip-rule="evenodd" transform="matrix(1 0 0 1 0 0)" d="M330.9472 468.4438L547.0956 468.4438L547.0956 468.4438L547.0956 616.7923L547.0956 616.7923L330.9472 616.7923z" /></clipPath><clipPath id="25"><path id="" clip-rule="evenodd" transform="matrix(1 0 0 1 0 0)" d="M41.51475 508.0858L289.0147 508.0858L289.0147 508.0858L289.0147 819.3358L289.0147 819.3358L41.51475 819.3358z" /></clipPath><clipPath id="26"><path id="" clip-rule="evenodd" transform="matrix(1 0 0 1 0 0)" d="M50.00025 786.7498L280.2502 786.7498L280.2502 786.7498L280.2502 789.7498L280.2502 789.7498L50.00025 789.7498z" /></clipPath><clipPath id="27"><path id="" clip-rule="evenodd" transform="matrix(1 0 0 1 0 0)" d="M0 -0.249939L595.5 -0.249939L595.5 -0.249939L595.5 842.0001L595.5 842.0001L0 842.0001z" /></clipPath><clipPath id="28"><path id="" clip-rule="evenodd" transform="matrix(1 0 0 1 0 0)" d="M0 -0.249939L595.5 -0.249939L595.5 -0.249939L595.5 842.0001L595.5 842.0001L0 842.0001z" /></clipPath><clipPath id="29"><path id="" clip-rule="evenodd" transform="matrix(1 0 0 1 0 0)" d="M56.73825 600.6298L273.2428 600.6298L273.2428 600.6298L273.2428 767.5731L273.2428 767.5731L56.73825 767.5731z" /></clipPath><clipPath id="30"><path id="" clip-rule="evenodd" transform="matrix(1 0 0 1 0 0)" d="M69.48824 600.6298C 66.10574 600.6298 62.86575 601.9723 60.47325 604.3647C 58.08075 606.7573 56.73825 609.9973 56.73825 613.3798L56.73825 613.3798L56.73825 754.8223C 56.73825 758.2048 58.08075 761.4448 60.47325 763.8373C 62.86575 766.2298 66.10574 767.5723 69.48824 767.5723L69.48824 767.5723L260.2657 767.5723C 263.6483 767.5723 266.8882 766.2298 269.2808 763.8373C 271.6732 761.4448 273.0157 758.2048 273.0157 754.8223L273.0157 754.8223L273.0157 613.3798C 273.0157 609.9973 271.6732 606.7573 269.2808 604.3647C 266.8882 601.9723 263.6483 600.6298 260.2657 600.6298L260.2657 600.6298L69.48824 600.6298z" /></clipPath><clipPath id="31"><path id="" clip-rule="evenodd" transform="matrix(1 0 0 1 0 0)" d="M56.73825 600.6298L273.2428 600.6298L273.2428 600.6298L273.2428 767.5731L273.2428 767.5731L56.73825 767.5731z" /></clipPath><clipPath id="32"><path id="" clip-rule="evenodd" transform="matrix(1 0 0 1 0 0)" d="M0 -0.249939L595.5 -0.249939L595.5 -0.249939L595.5 842.0001L595.5 842.0001L0 842.0001z" /></clipPath><clipPath id="33"><path id="" clip-rule="evenodd" transform="matrix(1 0 0 1 0 0)" d="M321.075 110.5048L568.575 110.5048L568.575 110.5048L568.575 355.0048L568.575 355.0048L321.075 355.0048z" /></clipPath><clipPath id="34"><path id="" clip-rule="evenodd" transform="matrix(1 0 0 1 0 0)" d="M330.9998 323.2483L559.7497 323.2483L559.7497 323.2483L559.7497 326.9983L559.7497 326.9983L330.9998 326.9983z" /></clipPath><clipPath id="35"><path id="" clip-rule="evenodd" transform="matrix(1 0 0 1 0 0)" d="M0 -0.249939L595.5 -0.249939L595.5 -0.249939L595.5 842.0001L595.5 842.0001L0 842.0001z" /></clipPath><clipPath id="36"><path id="" clip-rule="evenodd" transform="matrix(1 0 0 1 0 0)" d="M0 -0.249939L595.5 -0.249939L595.5 -0.249939L595.5 842.0001L595.5 842.0001L0 842.0001z" /></clipPath><clipPath id="37"><path id="" clip-rule="evenodd" transform="matrix(1 0 0 1 0 0)" d="M336.0187 184.7495L552.3505 184.7495L552.3505 184.7495L552.3505 308.6443L552.3505 308.6443L336.0187 308.6443z" /></clipPath><clipPath id="38"><path id="" clip-rule="evenodd" transform="matrix(1 0 0 1 0 0)" d="M348.7687 184.7495C 345.3862 184.7495 342.1462 186.092 339.7538 188.4846C 337.3612 190.8771 336.0187 194.1171 336.0187 197.4995L336.0187 197.4995L336.0187 295.892C 336.0187 299.2745 337.3612 302.5145 339.7538 304.907C 342.1462 307.2996 345.3862 308.642 348.7687 308.642L348.7687 308.642L539.5463 308.642C 542.9287 308.642 546.1688 307.2996 548.5612 304.907C 550.9537 302.5145 552.2963 299.2745 552.2963 295.892L552.2963 295.892L552.2963 197.4995C 552.2963 194.1171 550.9537 190.8771 548.5612 188.4846C 546.1688 186.092 542.9287 184.7495 539.5463 184.7495L539.5463 184.7495L348.7687 184.7495z" /></clipPath><clipPath id="39"><path id="" clip-rule="evenodd" transform="matrix(1 0 0 1 0 0)" d="M336.0187 184.7495L552.3505 184.7495L552.3505 184.7495L552.3505 308.6443L552.3505 308.6443L336.0187 308.6443z" /></clipPath><clipPath id="40"><path id="" clip-rule="evenodd" transform="matrix(1 0 0 1 0 0)" d="M0 -0.249939L595.5 -0.249939L595.5 -0.249939L595.5 842.0001L595.5 842.0001L0 842.0001z" /></clipPath><clipPath id="41"><path id="" clip-rule="evenodd" transform="matrix(1 0 0 1 0 0)" d="M492.1142 11.48047L579.1142 11.48047L579.1142 11.48047L579.1142 60.98047L579.1142 60.98047L492.1142 60.98047z" /></clipPath><clipPath id="42"><path id="" clip-rule="evenodd" transform="matrix(1 0 0 1 0 0)" d="M0 -0.249939L595.5 -0.249939L595.5 -0.249939L595.5 842.0001L595.5 842.0001L0 842.0001z" /></clipPath><clipPath id="43"><path id="" clip-rule="evenodd" transform="matrix(1 0 0 1 0 0)" d="M0 -0.249939L595.5 -0.249939L595.5 -0.249939L595.5 842.0001L595.5 842.0001L0 842.0001z" /></clipPath><clipPath id="44"><path id="" clip-rule="evenodd" transform="matrix(1 0 0 1 0 0)" d="M9.726222 11.48047L41.97622 11.48047L41.97622 11.48047L41.97622 43.73047L41.97622 43.73047L9.726222 43.73047z" /></clipPath><clipPath id="45"><path id="" clip-rule="evenodd" transform="matrix(1 0 0 1 0 0)" d="M9.726222 27.37469L9.726222 27.37732C 9.726222 31.59271 11.40079 35.6355 14.38154 38.61627C 17.3623 41.59698 21.40507 43.27155 25.62049 43.27155C 29.83591 43.27155 33.87867 41.59698 36.85943 38.61627C 39.84018 35.6355 41.51475 31.59271 41.51475 27.37732L41.51475 27.37732L41.51475 27.37469C 41.51475 23.1593 39.84018 19.11652 36.85943 16.13574C 33.87867 13.15503 29.83591 11.48047 25.62049 11.48047C 21.40507 11.48047 17.3623 13.15503 14.38154 16.13574C 11.40079 19.11652 9.726222 23.1593 9.726222 27.37469z" /></clipPath><clipPath id="46"><path id="" clip-rule="evenodd" transform="matrix(1 0 0 1 0 0)" d="M10.47622 12.23047L41.22622 12.23047L41.22622 12.23047L41.22622 42.98047L41.22622 42.98047L10.47622 42.98047z" /></clipPath><clipPath id="47"><path id="" clip-rule="evenodd" transform="matrix(1 0 0 1 0 0)" d="M25.62049 12.38043C 29.59721 12.38043 33.41106 13.96021 36.22303 16.77216C 39.035 19.58411 40.61475 23.39795 40.61475 27.37469L40.61475 27.37469L40.61475 27.37732C 40.61475 31.354 39.035 35.16791 36.22303 37.97986C 33.41106 40.79181 29.59721 42.37158 25.62049 42.37158C 21.64376 42.37158 17.82991 40.79181 15.01794 37.97986C 12.20597 35.16791 10.62622 31.354 10.62622 27.37732L10.62622 27.37732L10.62622 27.37469C 10.62622 23.39795 12.20597 19.58411 15.01794 16.77216C 17.82991 13.96021 21.64376 12.38043 25.62049 12.38043z" /></clipPath><clipPath id="48"><path id="" clip-rule="evenodd" transform="matrix(1 0 0 1 0 0)" d="M10.47492 12.23047L41.22492 12.23047L41.22492 12.23047L41.22492 42.98047L41.22492 42.98047L10.47492 42.98047z" /></clipPath><clipPath id="49"><path id="" clip-rule="evenodd" transform="matrix(1 0 0 1 0 0)" d="M9.718224 11.47375L41.21822 11.47375L41.21822 11.47375L41.21822 42.97375L41.21822 42.97375L9.718224 42.97375z" /></clipPath><clipPath id="50"><path id="" clip-rule="evenodd" transform="matrix(1 0 0 1 0 0)" d="M0 -0.249939L595.5 -0.249939L595.5 -0.249939L595.5 842.0001L595.5 842.0001L0 842.0001z" /></clipPath><clipPath id="51"><path id="" clip-rule="evenodd" transform="matrix(1 0 0 1 0 0)" d="M0 -0.249939L595.5 -0.249939L595.5 -0.249939L595.5 842.0001L595.5 842.0001L0 842.0001z" /></clipPath><clipPath id="52"><path id="" clip-rule="evenodd" transform="matrix(1 0 0 1 0 0)" d="M9.726222 11.48047L41.97622 11.48047L41.97622 11.48047L41.97622 43.73047L41.97622 43.73047L9.726222 43.73047z" /></clipPath><clipPath id="53"><path id="" clip-rule="evenodd" transform="matrix(1 0 0 1 0 0)" d="M9.726222 27.37469L9.726222 27.37732C 9.726222 31.59271 11.40079 35.6355 14.38154 38.61627C 17.3623 41.59698 21.40507 43.27155 25.62049 43.27155C 29.83591 43.27155 33.87867 41.59698 36.85943 38.61627C 39.84018 35.6355 41.51475 31.59271 41.51475 27.37732L41.51475 27.37732L41.51475 27.37469C 41.51475 23.1593 39.84018 19.11652 36.85943 16.13574C 33.87867 13.15503 29.83591 11.48047 25.62049 11.48047C 21.40507 11.48047 17.3623 13.15503 14.38154 16.13574C 11.40079 19.11652 9.726222 23.1593 9.726222 27.37469z" /></clipPath><clipPath id="54"><path id="" clip-rule="evenodd" transform="matrix(1 0 0 1 0 0)" d="M9.726222 11.48047L41.22622 11.48047L41.22622 11.48047L41.22622 42.98047L41.22622 42.98047L9.726222 42.98047z" /></clipPath><clipPath id="55"><path id="" clip-rule="evenodd" transform="matrix(1 0 0 1 0 0)" d="M9.726222 11.48047L41.96884 11.48047L41.96884 11.48047L41.96884 43.7204L41.96884 43.7204L9.726222 43.7204z" /></clipPath><clipPath id="56"><path id="" clip-rule="evenodd" transform="matrix(1 0 0 1 0 0)" d="M9.726222 27.36975L9.726222 27.37238C 9.726222 31.58649 11.40041 35.62799 14.38048 38.60779C 17.36055 41.58765 21.40239 43.26172 25.61685 43.26172C 29.8313 43.26172 33.87314 41.58765 36.85321 38.60779C 39.83328 35.62799 41.50747 31.58649 41.50747 27.37238L41.50747 27.37238L41.50747 27.36975C 41.50747 23.15564 39.83328 19.11414 36.85321 16.13434C 33.87314 13.15448 29.8313 11.48047 25.61685 11.48047C 21.40239 11.48047 17.36055 13.15448 14.38048 16.13434C 11.40041 19.11414 9.726222 23.15564 9.726222 27.36975z" /></clipPath><clipPath id="57"><path id="" clip-rule="evenodd" transform="matrix(1 0 0 1 0 0)" d="M0 -0.249939L595.5 -0.249939L595.5 -0.249939L595.5 842.0001L595.5 842.0001L0 842.0001z" /></clipPath><clipPath id="58"><path id="" clip-rule="evenodd" transform="matrix(1 0 0 1 0 0)" d="M0 -0.249939L595.5 -0.249939L595.5 -0.249939L595.5 842.0001L595.5 842.0001L0 842.0001z" /></clipPath><clipPath id="59"><path id="" clip-rule="evenodd" transform="matrix(1 0 0 1 0 0)" d="M0 -0.249939L595.5 -0.249939L595.5 -0.249939L595.5 842.0001L595.5 842.0001L0 842.0001z" /></clipPath><clipPath id="60"><path id="" clip-rule="evenodd" transform="matrix(1 0 0 1 0 0)" d="M336.0187 391.851L366.0187 391.851L366.0187 391.851L366.0187 416.601L366.0187 416.601L336.0187 416.601z" /></clipPath><clipPath id="61"><path id="" clip-rule="evenodd" transform="matrix(1 0 0 1 0 0)" d="M336.0187 404.2177C 336.0187 411.0475 341.5555 416.5843 348.3854 416.5843L348.3854 416.5843L353.4326 416.5843C 360.2625 416.5843 365.7992 411.0475 365.7992 404.2177C 365.7992 397.3877 360.2625 391.851 353.4326 391.851L353.4326 391.851L348.3854 391.851C 341.5555 391.851 336.0187 397.3877 336.0187 404.2177z" /></clipPath><clipPath id="62"><path id="" clip-rule="evenodd" transform="matrix(1 0 0 1 0 0)" d="M336.7687 392.601L365.2687 392.601L365.2687 392.601L365.2687 415.851L365.2687 415.851L336.7687 415.851z" /></clipPath><clipPath id="63"><path id="" clip-rule="evenodd" transform="matrix(1 0 0 1 0 0)" d="M348.3854 392.751L353.4326 392.751C 359.7654 392.751 364.8992 397.8848 364.8992 404.2177C 364.8992 410.5505 359.7654 415.6843 353.4326 415.6843L353.4326 415.6843L348.3854 415.6843C 342.0525 415.6843 336.9187 410.5505 336.9187 404.2177C 336.9187 397.8848 342.0525 392.751 348.3854 392.751z" /></clipPath><clipPath id="64"><path id="" clip-rule="evenodd" transform="matrix(1 0 0 1 0 0)" d="M336.7687 392.3274L365.2687 392.3274L365.2687 392.3274L365.2687 416.3274L365.2687 416.3274L336.7687 416.3274z" /></clipPath><clipPath id="65"><path id="" clip-rule="evenodd" transform="matrix(1 0 0 1 0 0)" d="M336.0243 389.3496L366.0243 389.3496L366.0243 389.3496L366.0243 419.3496L366.0243 419.3496L336.0243 419.3496z" /></clipPath><clipPath id="66"><path id="" clip-rule="evenodd" transform="matrix(1 0 0 1 0 0)" d="M0 -0.249939L595.5 -0.249939L595.5 -0.249939L595.5 842.0001L595.5 842.0001L0 842.0001z" /></clipPath><clipPath id="67"><path id="" clip-rule="evenodd" transform="matrix(1 0 0 1 0 0)" d="M0 -0.249939L595.5 -0.249939L595.5 -0.249939L595.5 842.0001L595.5 842.0001L0 842.0001z" /></clipPath><clipPath id="68"><path id="" clip-rule="evenodd" transform="matrix(1 0 0 1 0 0)" d="M336.0187 391.851L366.0187 391.851L366.0187 391.851L366.0187 416.601L366.0187 416.601L336.0187 416.601z" /></clipPath><clipPath id="69"><path id="" clip-rule="evenodd" transform="matrix(1 0 0 1 0 0)" d="M336.0187 404.2177C 336.0187 411.0475 341.5555 416.5843 348.3854 416.5843L348.3854 416.5843L353.4326 416.5843C 360.2625 416.5843 365.7992 411.0475 365.7992 404.2177C 365.7992 397.3877 360.2625 391.851 353.4326 391.851L353.4326 391.851L348.3854 391.851C 341.5555 391.851 336.0187 397.3877 336.0187 404.2177z" /></clipPath><clipPath id="70"><path id="" clip-rule="evenodd" transform="matrix(1 0 0 1 0 0)" d="M336.0187 391.851L366.0187 391.851L366.0187 391.851L366.0187 416.601L366.0187 416.601L336.0187 416.601z" /></clipPath><clipPath id="71"><path id="" clip-rule="evenodd" transform="matrix(1 0 0 1 0 0)" d="M336.0187 391.851L366.0156 391.851L366.0156 391.851L366.0156 416.5942L366.0156 416.5942L336.0187 416.5942z" /></clipPath><clipPath id="72"><path id="" clip-rule="evenodd" transform="matrix(1 0 0 1 0 0)" d="M336.0187 404.2143C 336.0187 411.0423 341.5549 416.5775 348.3841 416.5775L348.3841 416.5775L353.4308 416.5775C 360.2599 416.5775 365.7961 411.0423 365.7961 404.2143C 365.7961 397.3862 360.2599 391.851 353.4308 391.851L353.4308 391.851L348.3841 391.851C 341.5549 391.851 336.0187 397.3862 336.0187 404.2143z" /></clipPath><clipPath id="73"><path id="" clip-rule="evenodd" transform="matrix(1 0 0 1 0 0)" d="M0 -0.249939L595.5 -0.249939L595.5 -0.249939L595.5 842.0001L595.5 842.0001L0 842.0001z" /></clipPath><clipPath id="74"><path id="" clip-rule="evenodd" transform="matrix(1 0 0 1 0 0)" d="M0 -0.249939L595.5 -0.249939L595.5 -0.249939L595.5 842.0001L595.5 842.0001L0 842.0001z" /></clipPath><clipPath id="75"><path id="" clip-rule="evenodd" transform="matrix(1 0 0 1 0 0)" d="M0 -0.249939L595.5 -0.249939L595.5 -0.249939L595.5 842.0001L595.5 842.0001L0 842.0001z" /></clipPath><clipPath id="76"><path id="" clip-rule="evenodd" transform="matrix(1 0 0 1 0 0)" d="M59.52756 515.6243L89.52756 515.6243L89.52756 515.6243L89.52756 540.3743L89.52756 540.3743L59.52756 540.3743z" /></clipPath><clipPath id="77"><path id="" clip-rule="evenodd" transform="matrix(1 0 0 1 0 0)" d="M59.52756 527.9908C 59.52756 534.8208 65.06429 540.3575 71.8942 540.3575L71.8942 540.3575L76.94139 540.3575C 83.7713 540.3575 89.30804 534.8208 89.30804 527.9908C 89.30804 521.161 83.7713 515.6243 76.94139 515.6243L76.94139 515.6243L71.8942 515.6243C 65.06429 515.6243 59.52756 521.161 59.52756 527.9908z" /></clipPath><clipPath id="78"><path id="" clip-rule="evenodd" transform="matrix(1 0 0 1 0 0)" d="M60.27756 516.3743L88.77756 516.3743L88.77756 516.3743L88.77756 539.6243L88.77756 539.6243L60.27756 539.6243z" /></clipPath><clipPath id="79"><path id="" clip-rule="evenodd" transform="matrix(1 0 0 1 0 0)" d="M71.8942 516.5242L76.94139 516.5242C 83.27425 516.5242 88.40804 521.6581 88.40804 527.9908C 88.40804 534.3237 83.27425 539.4575 76.94139 539.4575L76.94139 539.4575L71.8942 539.4575C 65.56135 539.4575 60.42756 534.3237 60.42756 527.9908C 60.42756 521.6581 65.56135 516.5242 71.8942 516.5242z" /></clipPath><clipPath id="80"><path id="" clip-rule="evenodd" transform="matrix(1 0 0 1 0 0)" d="M60.27756 516.1006L88.77756 516.1006L88.77756 516.1006L88.77756 540.1006L88.77756 540.1006L60.27756 540.1006z" /></clipPath><clipPath id="81"><path id="" clip-rule="evenodd" transform="matrix(1 0 0 1 0 0)" d="M59.53312 513.1229L89.53312 513.1229L89.53312 513.1229L89.53312 543.1229L89.53312 543.1229L59.53312 543.1229z" /></clipPath><clipPath id="82"><path id="" clip-rule="evenodd" transform="matrix(1 0 0 1 0 0)" d="M0 -0.249939L595.5 -0.249939L595.5 -0.249939L595.5 842.0001L595.5 842.0001L0 842.0001z" /></clipPath><clipPath id="83"><path id="" clip-rule="evenodd" transform="matrix(1 0 0 1 0 0)" d="M0 -0.249939L595.5 -0.249939L595.5 -0.249939L595.5 842.0001L595.5 842.0001L0 842.0001z" /></clipPath><clipPath id="84"><path id="" clip-rule="evenodd" transform="matrix(1 0 0 1 0 0)" d="M59.52756 515.6243L89.52756 515.6243L89.52756 515.6243L89.52756 540.3743L89.52756 540.3743L59.52756 540.3743z" /></clipPath><clipPath id="85"><path id="" clip-rule="evenodd" transform="matrix(1 0 0 1 0 0)" d="M59.52756 527.9908C 59.52756 534.8208 65.06429 540.3575 71.8942 540.3575L71.8942 540.3575L76.94139 540.3575C 83.7713 540.3575 89.30804 534.8208 89.30804 527.9908C 89.30804 521.161 83.7713 515.6243 76.94139 515.6243L76.94139 515.6243L71.8942 515.6243C 65.06429 515.6243 59.52756 521.161 59.52756 527.9908z" /></clipPath><clipPath id="86"><path id="" clip-rule="evenodd" transform="matrix(1 0 0 1 0 0)" d="M59.52756 515.6243L89.52756 515.6243L89.52756 515.6243L89.52756 540.3743L89.52756 540.3743L59.52756 540.3743z" /></clipPath><clipPath id="87"><path id="" clip-rule="evenodd" transform="matrix(1 0 0 1 0 0)" d="M59.52756 515.6243L89.5244 515.6243L89.5244 515.6243L89.5244 540.3675L89.5244 540.3675L59.52756 540.3675z" /></clipPath><clipPath id="88"><path id="" clip-rule="evenodd" transform="matrix(1 0 0 1 0 0)" d="M59.52756 527.9875C 59.52756 534.8156 65.06371 540.3508 71.8929 540.3508L71.8929 540.3508L76.93956 540.3508C 83.76875 540.3508 89.3049 534.8156 89.3049 527.9875C 89.3049 521.1595 83.76875 515.6243 76.93956 515.6243L76.93956 515.6243L71.8929 515.6243C 65.06371 515.6243 59.52756 521.1595 59.52756 527.9875z" /></clipPath><clipPath id="89"><path id="" clip-rule="evenodd" transform="matrix(1 0 0 1 0 0)" d="M0 -0.249939L595.5 -0.249939L595.5 -0.249939L595.5 842.0001L595.5 842.0001L0 842.0001z" /></clipPath><clipPath id="90"><path id="" clip-rule="evenodd" transform="matrix(1 0 0 1 0 0)" d="M0 -0.249939L595.5 -0.249939L595.5 -0.249939L595.5 842.0001L595.5 842.0001L0 842.0001z" /></clipPath><clipPath id="91"><path id="" clip-rule="evenodd" transform="matrix(1 0 0 1 0 0)" d="M0 -0.249939L595.5 -0.249939L595.5 -0.249939L595.5 842.0001L595.5 842.0001L0 842.0001z" /></clipPath><clipPath id="92"><path id="" clip-rule="evenodd" transform="matrix(1 0 0 1 0 0)" d="M331.548 123.5693L361.548 123.5693L361.548 123.5693L361.548 148.3193L361.548 148.3193L331.548 148.3193z" /></clipPath><clipPath id="93"><path id="" clip-rule="evenodd" transform="matrix(1 0 0 1 0 0)" d="M331.548 135.934C 331.548 139.2133 332.8507 142.3583 335.1695 144.6771C 337.4883 146.996 340.6334 148.2987 343.9127 148.2987L343.9127 148.2987L348.9638 148.2987C 352.2431 148.2987 355.3881 146.996 357.7069 144.6771C 360.0258 142.3583 361.3285 139.2133 361.3285 135.934C 361.3285 132.6547 360.0258 129.5096 357.7069 127.1908C 355.3881 124.872 352.2431 123.5693 348.9638 123.5693L348.9638 123.5693L343.9127 123.5693C 340.6334 123.5693 337.4883 124.872 335.1695 127.1908C 332.8507 129.5096 331.548 132.6547 331.548 135.934z" /></clipPath><clipPath id="94"><path id="" clip-rule="evenodd" transform="matrix(1 0 0 1 0 0)" d="M332.298 124.3193L360.798 124.3193L360.798 124.3193L360.798 147.5693L360.798 147.5693L332.298 147.5693z" /></clipPath><clipPath id="95"><path id="" clip-rule="evenodd" transform="matrix(1 0 0 1 0 0)" d="M343.9127 124.4693L348.9638 124.4693C 352.0044 124.4693 354.9205 125.6772 357.0705 127.8272C 359.2206 129.9773 360.4285 132.8934 360.4285 135.934C 360.4285 138.9746 359.2206 141.8907 357.0705 144.0408C 354.9205 146.1908 352.0044 147.3987 348.9638 147.3987L348.9638 147.3987L343.9127 147.3987C 340.872 147.3987 337.956 146.1908 335.8059 144.0408C 333.6559 141.8907 332.448 138.9746 332.448 135.934C 332.448 132.8934 333.6559 129.9773 335.8059 127.8272C 337.956 125.6772 340.872 124.4693 343.9127 124.4693z" /></clipPath><clipPath id="96"><path id="" clip-rule="evenodd" transform="matrix(1 0 0 1 0 0)" d="M332.298 124.0437L360.798 124.0437L360.798 124.0437L360.798 148.0437L360.798 148.0437L332.298 148.0437z" /></clipPath><clipPath id="97"><path id="" clip-rule="evenodd" transform="matrix(1 0 0 1 0 0)" d="M331.5536 121.066L361.5536 121.066L361.5536 121.066L361.5536 151.066L361.5536 151.066L331.5536 151.066z" /></clipPath><clipPath id="98"><path id="" clip-rule="evenodd" transform="matrix(1 0 0 1 0 0)" d="M0 -0.249939L595.5 -0.249939L595.5 -0.249939L595.5 842.0001L595.5 842.0001L0 842.0001z" /></clipPath><clipPath id="99"><path id="" clip-rule="evenodd" transform="matrix(1 0 0 1 0 0)" d="M0 -0.249939L595.5 -0.249939L595.5 -0.249939L595.5 842.0001L595.5 842.0001L0 842.0001z" /></clipPath><clipPath id="100"><path id="" clip-rule="evenodd" transform="matrix(1 0 0 1 0 0)" d="M331.548 123.5693L361.548 123.5693L361.548 123.5693L361.548 148.3193L361.548 148.3193L331.548 148.3193z" /></clipPath><clipPath id="101"><path id="" clip-rule="evenodd" transform="matrix(1 0 0 1 0 0)" d="M331.548 135.934C 331.548 139.2133 332.8507 142.3583 335.1695 144.6771C 337.4883 146.996 340.6334 148.2987 343.9127 148.2987L343.9127 148.2987L348.9638 148.2987C 352.2431 148.2987 355.3881 146.996 357.7069 144.6771C 360.0258 142.3583 361.3285 139.2133 361.3285 135.934C 361.3285 132.6547 360.0258 129.5096 357.7069 127.1908C 355.3881 124.872 352.2431 123.5693 348.9638 123.5693L348.9638 123.5693L343.9127 123.5693C 340.6334 123.5693 337.4883 124.872 335.1695 127.1908C 332.8507 129.5096 331.548 132.6547 331.548 135.934z" /></clipPath><clipPath id="102"><path id="" clip-rule="evenodd" transform="matrix(1 0 0 1 0 0)" d="M331.548 123.5693L361.548 123.5693L361.548 123.5693L361.548 148.3193L361.548 148.3193L331.548 148.3193z" /></clipPath><clipPath id="103"><path id="" clip-rule="evenodd" transform="matrix(1 0 0 1 0 0)" d="M331.548 123.5693L361.5448 123.5693L361.5448 123.5693L361.5448 148.3165L361.5448 148.3165L331.548 148.3165z" /></clipPath><clipPath id="104"><path id="" clip-rule="evenodd" transform="matrix(1 0 0 1 0 0)" d="M331.548 135.9326C 331.548 139.2115 332.8506 142.3561 335.1691 144.6747C 337.4877 146.9933 340.6324 148.2958 343.9114 148.2958L343.9114 148.2958L348.9619 148.2958C 352.2409 148.2958 355.3856 146.9933 357.7042 144.6747C 360.0228 142.3561 361.3253 139.2115 361.3253 135.9326C 361.3253 132.6536 360.0228 129.509 357.7042 127.1904C 355.3856 124.8718 352.2409 123.5693 348.9619 123.5693L348.9619 123.5693L343.9114 123.5693C 340.6324 123.5693 337.4877 124.8718 335.1691 127.1904C 332.8506 129.509 331.548 132.6536 331.548 135.9326z" /></clipPath><clipPath id="105"><path id="" clip-rule="evenodd" transform="matrix(1 0 0 1 0 0)" d="M0 -0.249939L595.5 -0.249939L595.5 -0.249939L595.5 842.0001L595.5 842.0001L0 842.0001z" /></clipPath><clipPath id="106"><path id="" clip-rule="evenodd" transform="matrix(1 0 0 1 0 0)" d="M0 -0.249939L595.5 -0.249939L595.5 -0.249939L595.5 842.0001L595.5 842.0001L0 842.0001z" /></clipPath><clipPath id="107"><path id="" clip-rule="evenodd" transform="matrix(1 0 0 1 0 0)" d="M0 -0.249939L595.5 -0.249939L595.5 -0.249939L595.5 842.0001L595.5 842.0001L0 842.0001z" /></clipPath><clipPath id="108"><path id="" clip-rule="evenodd" transform="matrix(1 0 0 1 0 0)" d="M59.52756 200.8481L89.52756 200.8481L89.52756 200.8481L89.52756 225.5981L89.52756 225.5981L59.52756 225.5981z" /></clipPath><clipPath id="109"><path id="" clip-rule="evenodd" transform="matrix(1 0 0 1 0 0)" d="M59.52756 213.2147C 59.52756 220.0447 65.06429 225.5814 71.8942 225.5814L71.8942 225.5814L76.94139 225.5814C 83.7713 225.5814 89.30804 220.0447 89.30804 213.2147C 89.30804 206.3848 83.7713 200.8481 76.94139 200.8481L76.94139 200.8481L71.8942 200.8481C 65.06429 200.8481 59.52756 206.3848 59.52756 213.2147z" /></clipPath><clipPath id="110"><path id="" clip-rule="evenodd" transform="matrix(1 0 0 1 0 0)" d="M60.27756 201.5981L88.77756 201.5981L88.77756 201.5981L88.77756 224.8481L88.77756 224.8481L60.27756 224.8481z" /></clipPath><clipPath id="111"><path id="" clip-rule="evenodd" transform="matrix(1 0 0 1 0 0)" d="M71.8942 201.748L76.94139 201.748C 83.27425 201.748 88.40804 206.8819 88.40804 213.2147C 88.40804 219.5476 83.27425 224.6814 76.94139 224.6814L76.94139 224.6814L71.8942 224.6814C 65.56135 224.6814 60.42756 219.5476 60.42756 213.2147C 60.42756 206.8819 65.56135 201.748 71.8942 201.748z" /></clipPath><clipPath id="112"><path id="" clip-rule="evenodd" transform="matrix(1 0 0 1 0 0)" d="M60.27756 201.3245L88.77756 201.3245L88.77756 201.3245L88.77756 225.3245L88.77756 225.3245L60.27756 225.3245z" /></clipPath><clipPath id="113"><path id="" clip-rule="evenodd" transform="matrix(1 0 0 1 0 0)" d="M59.53312 198.3467L89.53312 198.3467L89.53312 198.3467L89.53312 228.3467L89.53312 228.3467L59.53312 228.3467z" /></clipPath><clipPath id="114"><path id="" clip-rule="evenodd" transform="matrix(1 0 0 1 0 0)" d="M0 -0.249939L595.5 -0.249939L595.5 -0.249939L595.5 842.0001L595.5 842.0001L0 842.0001z" /></clipPath><clipPath id="115"><path id="" clip-rule="evenodd" transform="matrix(1 0 0 1 0 0)" d="M0 -0.249939L595.5 -0.249939L595.5 -0.249939L595.5 842.0001L595.5 842.0001L0 842.0001z" /></clipPath><clipPath id="116"><path id="" clip-rule="evenodd" transform="matrix(1 0 0 1 0 0)" d="M59.52756 200.8481L89.52756 200.8481L89.52756 200.8481L89.52756 225.5981L89.52756 225.5981L59.52756 225.5981z" /></clipPath><clipPath id="117"><path id="" clip-rule="evenodd" transform="matrix(1 0 0 1 0 0)" d="M59.52756 213.2147C 59.52756 220.0447 65.06429 225.5814 71.8942 225.5814L71.8942 225.5814L76.94139 225.5814C 83.7713 225.5814 89.30804 220.0447 89.30804 213.2147C 89.30804 206.3848 83.7713 200.8481 76.94139 200.8481L76.94139 200.8481L71.8942 200.8481C 65.06429 200.8481 59.52756 206.3848 59.52756 213.2147z" /></clipPath><clipPath id="118"><path id="" clip-rule="evenodd" transform="matrix(1 0 0 1 0 0)" d="M59.52756 200.8481L89.52756 200.8481L89.52756 200.8481L89.52756 225.5981L89.52756 225.5981L59.52756 225.5981z" /></clipPath><clipPath id="119"><path id="" clip-rule="evenodd" transform="matrix(1 0 0 1 0 0)" d="M59.52756 200.8481L89.5244 200.8481L89.5244 200.8481L89.5244 225.5913L89.5244 225.5913L59.52756 225.5913z" /></clipPath><clipPath id="120"><path id="" clip-rule="evenodd" transform="matrix(1 0 0 1 0 0)" d="M59.52756 213.2114C 59.52756 220.0394 65.06371 225.5746 71.8929 225.5746L71.8929 225.5746L76.93956 225.5746C 83.76875 225.5746 89.3049 220.0394 89.3049 213.2114C 89.3049 206.3833 83.76875 200.8481 76.93956 200.8481L76.93956 200.8481L71.8929 200.8481C 65.06371 200.8481 59.52756 206.3833 59.52756 213.2114z" /></clipPath><clipPath id="121"><path id="" clip-rule="evenodd" transform="matrix(1 0 0 1 0 0)" d="M0 -0.249939L595.5 -0.249939L595.5 -0.249939L595.5 842.0001L595.5 842.0001L0 842.0001z" /></clipPath></defs><g transform="matrix(1.333333 0 0 1.333333 0 0)"><g clip-path="url(#1)"><g clip-path="url(#2)"><path id="1" transform="matrix(1 0 0 -1 0 842)" d="M0 842.2499L595.4999 842.2499L595.4999 -6.103516E-05L0 -6.103516E-05z" stroke="none" fill="#FFFFFF" fill-rule="nonzero" /></g><g clip-path="url(#3)"><path id="2" transform="matrix(1 0 0 -1 0 842)" d="M0 842.2499L595.4999 842.2499L595.4999 -6.103516E-05L0 -6.103516E-05z" stroke="none" fill="#FFFFFF" fill-rule="nonzero" /></g><g clip-path="url(#4)"><g><g clip-path="url(#5)"><g clip-path="url(#6)"><g transform="matrix(0 0.5128205 -0.5127462 0 522.0178 30.75189)"><g transform="matrix(1 0 0 1 0 0)"><image x="0" y="0" xlink:href="img_01.png" width="1521" height="863" /></g></g></g></g></g></g><g clip-path="url(#7)"><g clip-path="url(#8)"><g clip-path="url(#9)"><g clip-path="url(#10)"><path id="4" transform="matrix(1 0 0 -1 0 842)" d="M-178.7056 982.1197L130.3679 982.1197L130.3679 670.0552L-178.7056 670.0552z" stroke="none" fill="#D9D9D9" fill-rule="nonzero" /></g></g></g></g><g clip-path="url(#11)"><g transform="matrix(0.2400582 0 0 0.2400542 46.227 183.4986)"><g transform="matrix(1 0 0 1 0 0)"><image x="0" y="0" xlink:href="img_02.png" width="1031" height="1106" /></g></g></g><g clip-path="url(#12)"><g transform="matrix(0.2400582 0 0 0.2406621 317.5095 388.7496)"><g transform="matrix(1 0 0 1 0 0)"><image x="0" y="0" xlink:href="img_03.png" width="1031" height="1178" /></g></g></g><g clip-path="url(#13)"><g transform="matrix(0.9989082 0 0 0.9374999 51.99974 411.7498)"><g transform="matrix(1 0 0 1 0 0)"><image x="0" y="0" xlink:href="img_04.png" width="229" height="4" /></g></g></g><g clip-path="url(#14)"><g transform="matrix(0.9989082 0 0 0.9374999 323.0002 637.7503)"><g transform="matrix(1 0 0 1 0 0)"><image x="0" y="0" xlink:href="img_05.png" width="229" height="4" /></g></g></g><g clip-path="url(#15)"><g clip-path="url(#16)"><g clip-path="url(#17)"><g clip-path="url(#18)"><g clip-path="url(#19)"><g transform="matrix(0.5753506 0 0 0.5730617 66.28424 270.5031)"><g transform="matrix(1 0 0 1 0 0)"><image x="0" y="0" xlink:href="img_06.png" width="376" height="239" /></g></g></g></g></g></g></g><g clip-path="url(#20)"><g clip-path="url(#21)"><g clip-path="url(#22)"><g clip-path="url(#23)"><g clip-path="url(#24)"><g transform="matrix(0.6301702 0 0 0.6304812 330.9472 463.8988)"><g transform="matrix(1 0 0 1 0 0)"><image x="0" y="0" xlink:href="img_07.png" width="343" height="250" /></g></g></g></g></g></g></g><g clip-path="url(#25)"><g transform="matrix(0.2400582 0 0 0.2399768 41.51475 508.0858)"><g transform="matrix(1 0 0 1 0 0)"><image x="0" y="0" xlink:href="img_08.png" width="1031" height="1297" /></g></g></g><g clip-path="url(#26)"><g transform="matrix(1.001087 0 0 1 50.00025 786.7498)"><g transform="matrix(1 0 0 1 0 0)"><image x="0" y="0" xlink:href="img_09.png" width="230" height="3" /></g></g></g><g clip-path="url(#27)"><g clip-path="url(#28)"><g clip-path="url(#29)"><g clip-path="url(#30)"><g clip-path="url(#31)"><g transform="matrix(0.6221394 0 0 0.6209698 56.73825 586.5267)"><g transform="matrix(1 0 0 1 0 0)"><image x="0" y="0" xlink:href="img_10.png" width="348" height="314" /></g></g></g></g></g></g></g><g clip-path="url(#32)"></g><g clip-path="url(#33)"><g transform="matrix(0.2400582 0 0 0.2407045 321.075 109.7541)"><g transform="matrix(1 0 0 1 0 0)"><image x="0" y="0" xlink:href="img_11.png" width="1031" height="1022" /></g></g></g><g clip-path="url(#34)"><g transform="matrix(0.9989082 0 0 0.9374999 330.9997 323.2483)"><g transform="matrix(1 0 0 1 0 0)"><image x="0" y="0" xlink:href="img_12.png" width="229" height="4" /></g></g></g><g clip-path="url(#35)"><g clip-path="url(#36)"><g clip-path="url(#37)"><g clip-path="url(#38)"><g clip-path="url(#39)"><g transform="matrix(0.5692943 0 0 0.5698621 336.0187 180.9509)"><g transform="matrix(1 0 0 1 0 0)"><image x="0" y="0" xlink:href="img_13.png" width="380" height="231" /></g></g></g></g></g></g></g><g clip-path="url(#40)"></g><g clip-path="url(#41)"><g transform="matrix(0.05719921 0 0 0.05735804 492.1142 11.48047)"><g transform="matrix(1 0 0 1 0 0)"><image x="0" y="0" xlink:href="img_14.png" width="1521" height="863" /></g></g></g><g clip-path="url(#42)"><g clip-path="url(#43)"><g clip-path="url(#44)"><g clip-path="url(#45)"><g clip-path="url(#46)"><g clip-path="url(#47)"><g clip-path="url(#48)"><g clip-path="url(#49)"><path id="396" transform="matrix(1 0 0 -1 0 842)" d="M25.46822 830.2935C 16.91047 830.2935 9.950982 823.334 9.950982 814.7762C 9.950982 806.2185 16.91047 799.259 25.46822 799.259C 34.02598 799.259 40.98547 806.2185 40.98547 814.7762C 40.98547 823.334 34.02598 830.2935 25.46822 830.2935zM25.46822 799.0262C 16.78633 799.0262 9.718224 806.0944 9.718224 814.7762C 9.718224 823.4581 16.78633 830.5262 25.46822 830.5262C 34.15012 830.5262 41.21822 823.4581 41.21822 814.7762C 41.21822 806.0944 34.15012 799.0262 25.46822 799.0262z" stroke="none" fill="#000000" fill-rule="nonzero" /></g></g></g></g></g></g></g></g><g clip-path="url(#50)"><g clip-path="url(#51)"><g clip-path="url(#52)"><g clip-path="url(#53)"><g clip-path="url(#54)"><g clip-path="url(#55)"><g clip-path="url(#56)"><path id="397" transform="matrix(1 0 0 -1 0 842)" d="M9.726221 814.6302L9.726221 814.6276C 9.726221 810.4135 11.40041 806.372 14.38048 803.3922C 17.36055 800.4124 21.40239 798.7383 25.61684 798.7383C 29.8313 798.7383 33.87314 800.4124 36.85321 803.3922C 39.83328 806.372 41.50747 810.4135 41.50747 814.6276L41.50747 814.6276L41.50747 814.6302C 41.50747 818.8443 39.83328 822.8858 36.85321 825.8657C 33.87314 828.8455 29.8313 830.5195 25.61684 830.5195C 21.40239 830.5195 17.36055 828.8455 14.38048 825.8657C 11.40041 822.8858 9.726221 818.8443 9.726221 814.6302z" stroke="#000000" stroke-width="1.5" fill="none" /></g></g></g></g></g></g></g><g clip-path="url(#57)"></g><g clip-path="url(#58)"><g clip-path="url(#59)"><g clip-path="url(#60)"><g clip-path="url(#61)"><g clip-path="url(#62)"><g clip-path="url(#63)"><g clip-path="url(#64)"><g clip-path="url(#65)"><path id="399" transform="matrix(1 0 0 -1 0 842)" d="M351.0243 452.4286C 342.8741 452.4286 336.246 445.8006 336.246 437.6503C 336.246 429.5001 342.8741 422.872 351.0243 422.872C 359.1745 422.872 365.8026 429.5001 365.8026 437.6503C 365.8026 445.8006 359.1745 452.4286 351.0243 452.4286zM351.0243 422.6503C 342.7558 422.6503 336.0243 429.3819 336.0243 437.6503C 336.0243 445.9188 342.7558 452.6503 351.0243 452.6503C 359.2928 452.6503 366.0243 445.9188 366.0243 437.6503C 366.0243 429.3819 359.2928 422.6503 351.0243 422.6503z" stroke="none" fill="#000000" fill-rule="nonzero" /></g></g></g></g></g></g></g></g><g clip-path="url(#66)"><g clip-path="url(#67)"><g clip-path="url(#68)"><g clip-path="url(#69)"><g clip-path="url(#70)"><g clip-path="url(#71)"><g clip-path="url(#72)"><path id="400" transform="matrix(1 0 0 -1 0 842)" d="M336.0187 437.7857C 336.0187 430.9576 341.5549 425.4224 348.3841 425.4224L348.3841 425.4224L353.4307 425.4224C 360.2599 425.4224 365.7961 430.9576 365.7961 437.7857C 365.7961 444.6138 360.2599 450.149 353.4307 450.149L353.4307 450.149L348.3841 450.149C 341.5549 450.149 336.0187 444.6138 336.0187 437.7857z" stroke="#000000" stroke-width="1.5" fill="none" /></g></g></g></g></g></g></g><g clip-path="url(#73)"></g><g clip-path="url(#74)"><g clip-path="url(#75)"><g clip-path="url(#76)"><g clip-path="url(#77)"><g clip-path="url(#78)"><g clip-path="url(#79)"><g clip-path="url(#80)"><g clip-path="url(#81)"><path id="402" transform="matrix(1 0 0 -1 0 842)" d="M74.53312 328.6554C 66.38287 328.6554 59.7548 322.0273 59.7548 313.8771C 59.7548 305.7269 66.38287 299.0988 74.53312 299.0988C 82.68336 299.0988 89.31145 305.7269 89.31145 313.8771C 89.31145 322.0273 82.68336 328.6554 74.53312 328.6554zM74.53312 298.8771C 66.26465 298.8771 59.53312 305.6086 59.53312 313.8771C 59.53312 322.1456 66.26465 328.8771 74.53312 328.8771C 82.80159 328.8771 89.53312 322.1456 89.53312 313.8771C 89.53312 305.6086 82.80159 298.8771 74.53312 298.8771z" stroke="none" fill="#000000" fill-rule="nonzero" /></g></g></g></g></g></g></g></g><g clip-path="url(#82)"><g clip-path="url(#83)"><g clip-path="url(#84)"><g clip-path="url(#85)"><g clip-path="url(#86)"><g clip-path="url(#87)"><g clip-path="url(#88)"><path id="403" transform="matrix(1 0 0 -1 0 842)" d="M59.52755 314.0125C 59.52755 307.1844 65.06371 301.6492 71.8929 301.6492L71.8929 301.6492L76.93955 301.6492C 83.76875 301.6492 89.30489 307.1844 89.30489 314.0125C 89.30489 320.8405 83.76875 326.3757 76.93955 326.3757L76.93955 326.3757L71.8929 326.3757C 65.06371 326.3757 59.52755 320.8405 59.52755 314.0125z" stroke="#000000" stroke-width="1.5" fill="none" /></g></g></g></g></g></g></g><g clip-path="url(#89)"></g><g clip-path="url(#90)"><g clip-path="url(#91)"><g clip-path="url(#92)"><g clip-path="url(#93)"><g clip-path="url(#94)"><g clip-path="url(#95)"><g clip-path="url(#96)"><g clip-path="url(#97)"><path id="405" transform="matrix(1 0 0 -1 0 842)" d="M346.5535 720.7123C 338.4033 720.7123 331.7752 714.0842 331.7752 705.934C 331.7752 697.7837 338.4033 691.1556 346.5535 691.1556C 354.7038 691.1556 361.3318 697.7837 361.3318 705.934C 361.3318 714.0842 354.7038 720.7123 346.5535 720.7123zM346.5535 690.934C 338.2851 690.934 331.5535 697.6655 331.5535 705.934C 331.5535 714.2025 338.2851 720.934 346.5535 720.934C 354.822 720.934 361.5535 714.2025 361.5535 705.934C 361.5535 697.6655 354.822 690.934 346.5535 690.934z" stroke="none" fill="#000000" fill-rule="nonzero" /></g></g></g></g></g></g></g></g><g clip-path="url(#98)"><g clip-path="url(#99)"><g clip-path="url(#100)"><g clip-path="url(#101)"><g clip-path="url(#102)"><g clip-path="url(#103)"><g clip-path="url(#104)"><path id="406" transform="matrix(1 0 0 -1 0 842)" d="M331.548 706.0674C 331.548 702.7885 332.8506 699.6438 335.1691 697.3252C 337.4877 695.0067 340.6324 693.7041 343.9114 693.7041L343.9114 693.7041L348.9619 693.7041C 352.2409 693.7041 355.3856 695.0067 357.7042 697.3252C 360.0227 699.6438 361.3253 702.7885 361.3253 706.0674C 361.3253 709.3463 360.0227 712.491 357.7042 714.8096C 355.3856 717.1281 352.2409 718.4307 348.9619 718.4307L348.9619 718.4307L343.9114 718.4307C 340.6324 718.4307 337.4877 717.1281 335.1691 714.8096C 332.8506 712.491 331.548 709.3463 331.548 706.0674z" stroke="#000000" stroke-width="1.5" fill="none" /></g></g></g></g></g></g></g><g clip-path="url(#105)"></g><g clip-path="url(#106)"><g clip-path="url(#107)"><g clip-path="url(#108)"><g clip-path="url(#109)"><g clip-path="url(#110)"><g clip-path="url(#111)"><g clip-path="url(#112)"><g clip-path="url(#113)"><path id="408" transform="matrix(1 0 0 -1 0 842)" d="M74.53312 643.4315C 66.38287 643.4315 59.7548 636.8035 59.7548 628.6532C 59.7548 620.5029 66.38287 613.8749 74.53312 613.8749C 82.68336 613.8749 89.31145 620.5029 89.31145 628.6532C 89.31145 636.8035 82.68336 643.4315 74.53312 643.4315zM74.53312 613.6532C 66.26465 613.6532 59.53312 620.3847 59.53312 628.6532C 59.53312 636.9217 66.26465 643.6532 74.53312 643.6532C 82.80159 643.6532 89.53312 636.9217 89.53312 628.6532C 89.53312 620.3847 82.80159 613.6532 74.53312 613.6532z" stroke="none" fill="#000000" fill-rule="nonzero" /></g></g></g></g></g></g></g></g><g clip-path="url(#114)"><g clip-path="url(#115)"><g clip-path="url(#116)"><g clip-path="url(#117)"><g clip-path="url(#118)"><g clip-path="url(#119)"><g clip-path="url(#120)"><path id="409" transform="matrix(1 0 0 -1 0 842)" d="M59.52755 628.7886C 59.52755 621.9605 65.06371 616.4253 71.8929 616.4253L71.8929 616.4253L76.93955 616.4253C 83.76875 616.4253 89.30489 621.9605 89.30489 628.7886C 89.30489 635.6166 83.76875 641.1519 76.93955 641.1519L76.93955 641.1519L71.8929 641.1519C 65.06371 641.1519 59.52755 635.6166 59.52755 628.7886z" stroke="#000000" stroke-width="1.5" fill="none" /></g></g></g></g></g></g></g><g clip-path="url(#121)"></g></g></g></svg>