<svg xmlns="http://www.w3.org/2000/svg" xmlns:xlink="http://www.w3.org/1999/xlink" id="body_1" preserveAspectRatio="xMinYMin meet" viewBox="0 0 793 1123"><defs><clipPath id="1"><path id="" clip-rule="evenodd" transform="matrix(1 0 0 1 0 0)" d="M0 842L0 -0.25L0 -0.25L595.5 -0.25L595.5 -0.25L595.5 842L595.5 842L0 842z" /></clipPath><clipPath id="2"><path id="" clip-rule="evenodd" transform="matrix(1 0 0 1 0 0)" d="M0 -0.249939L595.5 -0.249939L595.5 -0.249939L595.5 842.0001L595.5 842.0001L0 842.0001z" /></clipPath><clipPath id="3"><path id="" clip-rule="evenodd" transform="matrix(1 0 0 1 0 0)" d="M0 -0.249939L595.5 -0.249939L595.5 -0.249939L595.5 842.0001L595.5 842.0001L0 842.0001z" /></clipPath><clipPath id="4"><path id="" clip-rule="evenodd" transform="matrix(1 0 0 1 0 0)" d="M0 -0.249939L595.5 -0.249939L595.5 -0.249939L595.5 842.0001L595.5 842.0001L0 842.0001z" /></clipPath><clipPath id="5"><path id="" clip-rule="evenodd" transform="matrix(1 0 0 1 0 0)" d="M78.71999 30.71008L522.24 30.71008L522.24 30.71008L522.24 810.9501L522.24 810.9501L78.71999 810.9501z" /></clipPath><clipPath id="6"><path id="" clip-rule="evenodd" transform="matrix(1 0 0 1 0 0)" d="M79.51787 30.75183L522.0178 30.75183L522.0178 30.75183L522.0178 810.7518L522.0178 810.7518L79.51787 810.7518z" /></clipPath><clipPath id="7"><path id="" clip-rule="evenodd" transform="matrix(1 0 0 1 0 0)" d="M485.9258 11.00061L570.6758 11.00061L570.6758 11.00061L570.6758 59.00061L570.6758 59.00061L485.9258 59.00061z" /></clipPath><clipPath id="8"><path id="" clip-rule="evenodd" transform="matrix(1 0 0 1 0 0)" d="M0 -0.249939L595.5 -0.249939L595.5 -0.249939L595.5 842.0001L595.5 842.0001L0 842.0001z" /></clipPath><clipPath id="9"><path id="" clip-rule="evenodd" transform="matrix(1 0 0 1 0 0)" d="M0 -0.249939L595.5 -0.249939L595.5 -0.249939L595.5 842.0001L595.5 842.0001L0 842.0001z" /></clipPath><clipPath id="10"><path id="" clip-rule="evenodd" transform="matrix(1 0 0 1 0 0)" d="M321.4157 202.3303L577.1658 202.3303L577.1658 202.3303L577.1658 372.5803L577.1658 372.5803L321.4157 372.5803z" /></clipPath><clipPath id="11"><path id="" clip-rule="evenodd" transform="matrix(1 0 0 1 0 0)" d="M321.4157 224.0803L321.4157 350.7275C 321.4157 362.7397 331.1536 372.4775 343.1657 372.4775L343.1657 372.4775L555.0461 372.4775C 567.0584 372.4775 576.7961 362.7397 576.7961 350.7275L576.7961 350.7275L576.7961 224.0803C 576.7961 212.0681 567.0584 202.3303 555.0461 202.3303L555.0461 202.3303L343.1657 202.3303C 331.1536 202.3303 321.4157 212.0681 321.4157 224.0803z" /></clipPath><clipPath id="12"><path id="" clip-rule="evenodd" transform="matrix(1 0 0 1 0 0)" d="M321.4157 202.3303L577.1658 202.3303L577.1658 202.3303L577.1658 372.5803L577.1658 372.5803L321.4157 372.5803z" /></clipPath><clipPath id="13"><path id="" clip-rule="evenodd" transform="matrix(1 0 0 1 0 0)" d="M0 -0.249939L595.5 -0.249939L595.5 -0.249939L595.5 842.0001L595.5 842.0001L0 842.0001z" /></clipPath><clipPath id="14"><path id="" clip-rule="evenodd" transform="matrix(1 0 0 1 0 0)" d="M0 -0.249939L595.5 -0.249939L595.5 -0.249939L595.5 842.0001L595.5 842.0001L0 842.0001z" /></clipPath><clipPath id="15"><path id="" clip-rule="evenodd" transform="matrix(1 0 0 1 0 0)" d="M40.31608 517.9604L289.3161 517.9604L289.3161 517.9604L289.3161 684.4604L289.3161 684.4604L40.31608 684.4604z" /></clipPath><clipPath id="16"><path id="" clip-rule="evenodd" transform="matrix(1 0 0 1 0 0)" d="M40.31608 538.9604L40.31608 662.8246C 40.31608 674.4225 49.7181 683.8246 61.31608 683.8246L61.31608 683.8246L267.9348 683.8246C 279.5327 683.8246 288.9348 674.4225 288.9348 662.8246L288.9348 662.8246L288.9348 538.9604C 288.9348 527.3624 279.5327 517.9604 267.9348 517.9604L267.9348 517.9604L61.31608 517.9604C 49.7181 517.9604 40.31608 527.3624 40.31608 538.9604z" /></clipPath><clipPath id="17"><path id="" clip-rule="evenodd" transform="matrix(1 0 0 1 0 0)" d="M40.31608 517.9604L288.5661 517.9604L288.5661 517.9604L288.5661 683.7104L288.5661 683.7104L40.31608 683.7104z" /></clipPath><clipPath id="18"><path id="" clip-rule="evenodd" transform="matrix(1 0 0 1 0 0)" d="M0 -0.249939L595.5 -0.249939L595.5 -0.249939L595.5 842.0001L595.5 842.0001L0 842.0001z" /></clipPath></defs><g transform="matrix(1.333333 0 0 1.333333 0 0)"><g clip-path="url(#1)"><g clip-path="url(#2)"><path id="1" transform="matrix(1 0 0 -1 0 842)" d="M0 842.2499L595.4999 842.2499L595.4999 -6.103516E-05L0 -6.103516E-05z" stroke="none" fill="#FFFFFF" fill-rule="nonzero" /></g><g clip-path="url(#3)"><path id="2" transform="matrix(1 0 0 -1 0 842)" d="M0 842.2499L595.4999 842.2499L595.4999 -6.103516E-05L0 -6.103516E-05z" stroke="none" fill="#E9FCFF" fill-rule="nonzero" /></g><g clip-path="url(#4)"><g><g clip-path="url(#5)"><g clip-path="url(#6)"><g transform="matrix(0 0.5128205 -0.5127462 0 522.0178 30.75189)"><g transform="matrix(1 0 0 1 0 0)"><image x="0" y="0" xlink:href="img_01.png" width="1521" height="863" /></g></g></g></g></g></g><g clip-path="url(#7)"><g transform="matrix(0.05571992 0 0 0.05561992 485.9258 11.00061)"><g transform="matrix(1 0 0 1 0 0)"><image x="0" y="0" xlink:href="img_02.png" width="1521" height="863" /></g></g></g><g clip-path="url(#8)"><g clip-path="url(#9)"><g clip-path="url(#10)"><g clip-path="url(#11)"><g clip-path="url(#12)"><g transform="matrix(0.4736111 0 0 0.4729166 321.4157 202.3303)"><g transform="matrix(1 0 0 1 0 0)"><image x="0" y="0" xlink:href="img_03.png" width="540" height="360" /></g></g></g></g></g></g></g><g clip-path="url(#13)"><g clip-path="url(#14)"><g clip-path="url(#15)"><g clip-path="url(#16)"><g clip-path="url(#17)"><g transform="matrix(0.5910714 0 0 0.5898575 40.31607 517.9604)"><g transform="matrix(1 0 0 1 0 0)"><image x="0" y="0" xlink:href="img_04.png" width="420" height="281" /></g></g></g></g></g></g></g><g clip-path="url(#18)"><path id="7" transform="matrix(1 0 0 -1 0 842)" d="M33.60969 649.5173C 33.60969 649.219 33.5526 648.9319 33.43842 648.6563C 33.32423 648.3806 33.16165 648.1373 32.95068 647.9263C 32.7397 647.7154 32.49638 647.5528 32.22073 647.4386C 31.94507 647.3244 31.65806 647.2673 31.35969 647.2673C 31.06132 647.2673 30.77431 647.3244 30.49865 647.4386C 30.22299 647.5528 29.97968 647.7154 29.7687 647.9263C 29.55772 648.1373 29.39514 648.3806 29.28096 648.6563C 29.16678 648.9319 29.10969 649.219 29.10969 649.5173C 29.10969 649.8157 29.16678 650.1027 29.28096 650.3784C 29.39514 650.6541 29.55772 650.8973 29.7687 651.1083C 29.97968 651.3193 30.22299 651.4819 30.49865 651.5961C 30.77431 651.7103 31.06132 651.7673 31.35969 651.7673C 31.65806 651.7673 31.94507 651.7103 32.22073 651.5961C 32.49638 651.4819 32.7397 651.3193 32.95068 651.1083C 33.16165 650.8973 33.32423 650.6541 33.43842 650.3784C 33.5526 650.1027 33.60969 649.8157 33.60969 649.5173z" stroke="none" fill="#000000" fill-rule="nonzero" /><path id="100" transform="matrix(1 0 0 -1 0 842)" d="M33.60969 563.2673C 33.60969 562.969 33.5526 562.6819 33.43842 562.4063C 33.32423 562.1306 33.16165 561.8873 32.95068 561.6763C 32.7397 561.4654 32.49638 561.3028 32.22073 561.1886C 31.94507 561.0745 31.65806 561.0173 31.35969 561.0173C 31.06132 561.0173 30.77431 561.0745 30.49865 561.1886C 30.22299 561.3028 29.97968 561.4654 29.7687 561.6763C 29.55772 561.8873 29.39514 562.1306 29.28096 562.4063C 29.16678 562.6819 29.10969 562.969 29.10969 563.2673C 29.10969 563.5657 29.16678 563.8527 29.28096 564.1284C 29.39514 564.4041 29.55772 564.6473 29.7687 564.8583C 29.97968 565.0693 30.22299 565.2319 30.49865 565.3461C 30.77431 565.4603 31.06132 565.5173 31.35969 565.5173C 31.65806 565.5173 31.94507 565.4603 32.22073 565.3461C 32.49638 565.2319 32.7397 565.0693 32.95068 564.8583C 33.16165 564.6473 33.32423 564.4041 33.43842 564.1284C 33.5526 563.8527 33.60969 563.5657 33.60969 563.2673z" stroke="none" fill="#000000" fill-rule="nonzero" /><path id="142" transform="matrix(1 0 0 -1 0 842)" d="M33.60969 511.5173C 33.60969 511.219 33.5526 510.932 33.43842 510.6563C 33.32423 510.3807 33.16165 510.1373 32.95068 509.9264C 32.7397 509.7154 32.49638 509.5528 32.22073 509.4386C 31.94507 509.3244 31.65806 509.2673 31.35969 509.2673C 31.06132 509.2673 30.77431 509.3244 30.49865 509.4386C 30.22299 509.5528 29.97968 509.7154 29.7687 509.9264C 29.55772 510.1373 29.39514 510.3807 29.28096 510.6563C 29.16678 510.932 29.10969 511.219 29.10969 511.5173C 29.10969 511.8157 29.16678 512.1027 29.28096 512.3784C 29.39514 512.6541 29.55772 512.8973 29.7687 513.1083C 29.97968 513.3193 30.22299 513.4819 30.49865 513.5961C 30.77431 513.7103 31.06132 513.7673 31.35969 513.7673C 31.65806 513.7673 31.94507 513.7103 32.22073 513.5961C 32.49638 513.4819 32.7397 513.3193 32.95068 513.1083C 33.16165 512.8973 33.32423 512.6541 33.43842 512.3784C 33.5526 512.1027 33.60969 511.8157 33.60969 511.5173z" stroke="none" fill="#000000" fill-rule="nonzero" /><path id="238" transform="matrix(1 0 0 -1 0 842)" d="M33.60969 425.2673C 33.60969 424.969 33.5526 424.682 33.43842 424.4063C 33.32423 424.1307 33.16165 423.8874 32.95068 423.6764C 32.7397 423.4654 32.49638 423.3028 32.22073 423.1886C 31.94507 423.0744 31.65806 423.0174 31.35969 423.0173C 31.06132 423.0174 30.77431 423.0744 30.49865 423.1886C 30.22299 423.3028 29.97968 423.4654 29.7687 423.6764C 29.55772 423.8874 29.39514 424.1307 29.28096 424.4063C 29.16678 424.682 29.10969 424.969 29.10969 425.2673C 29.10969 425.5657 29.16678 425.8528 29.28096 426.1284C 29.39514 426.4041 29.55772 426.6474 29.7687 426.8583C 29.97968 427.0693 30.22299 427.2319 30.49865 427.3461C 30.77431 427.4603 31.06132 427.5173 31.35969 427.5173C 31.65806 427.5173 31.94507 427.4603 32.22073 427.3461C 32.49638 427.2319 32.7397 427.0693 32.95068 426.8583C 33.16165 426.6474 33.32423 426.4041 33.43842 426.1284C 33.5526 425.8528 33.60969 425.5657 33.60969 425.2673z" stroke="none" fill="#000000" fill-rule="nonzero" /><path id="400" transform="matrix(1 0 0 -1 0 842)" d="M335.6657 413.7625C 335.6657 413.4641 335.6086 413.1771 335.4945 412.9015C 335.3803 412.6258 335.2177 412.3825 335.0067 412.1715C 334.7957 411.9605 334.5524 411.7979 334.2768 411.6837C 334.0011 411.5696 333.7141 411.5125 333.4157 411.5125C 333.1174 411.5125 332.8304 411.5696 332.5547 411.6837C 332.2791 411.7979 332.0357 411.9605 331.8247 412.1715C 331.6138 412.3825 331.4512 412.6258 331.337 412.9015C 331.2228 413.1771 331.1657 413.4641 331.1657 413.7625C 331.1657 414.0609 331.2228 414.3479 331.337 414.6235C 331.4512 414.8992 331.6138 415.1425 331.8247 415.3535C 332.0357 415.5645 332.2791 415.7271 332.5547 415.8412C 332.8304 415.9554 333.1174 416.0125 333.4157 416.0125C 333.7141 416.0125 334.0011 415.9554 334.2768 415.8412C 334.5524 415.7271 334.7957 415.5645 335.0067 415.3535C 335.2177 415.1425 335.3803 414.8992 335.4945 414.6235C 335.6086 414.3479 335.6657 414.0609 335.6657 413.7625z" stroke="none" fill="#000000" fill-rule="nonzero" /><path id="447" transform="matrix(1 0 0 -1 0 842)" d="M335.6657 344.7625C 335.6657 344.4641 335.6086 344.1771 335.4945 343.9015C 335.3803 343.6258 335.2177 343.3825 335.0067 343.1715C 334.7957 342.9605 334.5524 342.798 334.2768 342.6838C 334.0011 342.5696 333.7141 342.5125 333.4157 342.5125C 333.1174 342.5125 332.8304 342.5696 332.5547 342.6838C 332.2791 342.798 332.0357 342.9605 331.8247 343.1715C 331.6138 343.3825 331.4512 343.6258 331.337 343.9015C 331.2228 344.1771 331.1657 344.4641 331.1657 344.7625C 331.1657 345.0609 331.2228 345.3479 331.337 345.6235C 331.4512 345.8992 331.6138 346.1425 331.8247 346.3535C 332.0357 346.5645 332.2791 346.7271 332.5547 346.8412C 332.8304 346.9554 333.1174 347.0125 333.4157 347.0125C 333.7141 347.0125 334.0011 346.9554 334.2768 346.8412C 334.5524 346.7271 334.7957 346.5645 335.0067 346.3535C 335.2177 346.1425 335.3803 345.8992 335.4945 345.6235C 335.6086 345.3479 335.6657 345.0609 335.6657 344.7625z" stroke="none" fill="#000000" fill-rule="nonzero" /><path id="537" transform="matrix(1 0 0 -1 0 842)" d="M335.6657 241.2625C 335.6657 240.9641 335.6086 240.6771 335.4945 240.4015C 335.3803 240.1258 335.2177 239.8825 335.0067 239.6715C 334.7957 239.4605 334.5524 239.298 334.2768 239.1838C 334.0011 239.0696 333.7141 239.0125 333.4157 239.0125C 333.1174 239.0125 332.8304 239.0696 332.5547 239.1838C 332.2791 239.298 332.0357 239.4605 331.8247 239.6715C 331.6138 239.8825 331.4512 240.1258 331.337 240.4015C 331.2228 240.6771 331.1657 240.9641 331.1657 241.2625C 331.1657 241.5609 331.2228 241.8479 331.337 242.1235C 331.4512 242.3992 331.6138 242.6425 331.8247 242.8535C 332.0357 243.0645 332.2791 243.2271 332.5547 243.3412C 332.8304 243.4554 333.1174 243.5125 333.4157 243.5125C 333.7141 243.5125 334.0011 243.4554 334.2768 243.3412C 334.5524 243.2271 334.7957 243.0645 335.0067 242.8535C 335.2177 242.6425 335.3803 242.3992 335.4945 242.1235C 335.6086 241.8479 335.6657 241.5609 335.6657 241.2625z" stroke="none" fill="#000000" fill-rule="nonzero" /></g></g></g></svg>