<svg xmlns="http://www.w3.org/2000/svg" xmlns:xlink="http://www.w3.org/1999/xlink" id="body_1" preserveAspectRatio="xMinYMin meet" viewBox="0 0 793 1123"><defs><clipPath id="1"><path id="" clip-rule="evenodd" transform="matrix(1 0 0 1 0 0)" d="M0 842L0 -0.25L0 -0.25L595.5 -0.25L595.5 -0.25L595.5 842L595.5 842L0 842z" /></clipPath><clipPath id="2"><path id="" clip-rule="evenodd" transform="matrix(1 0 0 1 0 0)" d="M0 -0.249939L595.5 -0.249939L595.5 -0.249939L595.5 842.0001L595.5 842.0001L0 842.0001z" /></clipPath><clipPath id="3"><path id="" clip-rule="evenodd" transform="matrix(1 0 0 1 0 0)" d="M0 -0.249939L595.5 -0.249939L595.5 -0.249939L595.5 842.0001L595.5 842.0001L0 842.0001z" /></clipPath><clipPath id="4"><path id="" clip-rule="evenodd" transform="matrix(1 0 0 1 0 0)" d="M0 -0.249939L595.5 -0.249939L595.5 -0.249939L595.5 842.0001L595.5 842.0001L0 842.0001z" /></clipPath><clipPath id="5"><path id="" clip-rule="evenodd" transform="matrix(1 0 0 1 0 0)" d="M69.35999 59.27008L525.6 59.27008L525.6 59.27008L525.6 842.1501L525.6 842.1501L69.35999 842.1501z" /></clipPath><clipPath id="6"><path id="" clip-rule="evenodd" transform="matrix(1 0 0 1 0 0)" d="M69.56044 59.27313L525.5604 59.27313L525.5604 59.27313L525.5604 842.3901L525.5604 842.3901L69.56044 842.3901z" /></clipPath><clipPath id="7"><path id="" clip-rule="evenodd" transform="matrix(1 0 0 1 0 0)" d="M28.78263 391.1321L566.4929 391.1321L566.4929 391.1321L566.4929 815.3455L566.4929 815.3455L28.78263 815.3455z" /></clipPath><clipPath id="8"><path id="" clip-rule="evenodd" transform="matrix(1 0 0 1 0 0)" d="M29.53263 391.8821L565.7827 391.8821L565.7827 391.8821L565.7827 413.6321L565.7827 413.6321L29.53263 413.6321z" /></clipPath><clipPath id="9"><path id="" clip-rule="evenodd" transform="matrix(1 0 0 1 0 0)" d="M29.53263 414.3821L53.53263 414.3821L53.53263 414.3821L53.53263 433.1321L53.53263 433.1321L29.53263 433.1321z" /></clipPath><clipPath id="10"><path id="" clip-rule="evenodd" transform="matrix(1 0 0 1 0 0)" d="M54.01058 414.3821L106.5106 414.3821L106.5106 414.3821L106.5106 433.1321L106.5106 433.1321L54.01058 433.1321z" /></clipPath><clipPath id="11"><path id="" clip-rule="evenodd" transform="matrix(1 0 0 1 0 0)" d="M106.9403 414.3821L565.9403 414.3821L565.9403 414.3821L565.9403 433.1321L565.9403 433.1321L106.9403 433.1321z" /></clipPath><clipPath id="12"><path id="" clip-rule="evenodd" transform="matrix(1 0 0 1 0 0)" d="M29.53263 433.8821L53.53263 433.8821L53.53263 433.8821L53.53263 452.6321L53.53263 452.6321L29.53263 452.6321z" /></clipPath><clipPath id="13"><path id="" clip-rule="evenodd" transform="matrix(1 0 0 1 0 0)" d="M54.01058 433.8821L106.5106 433.8821L106.5106 433.8821L106.5106 452.6321L106.5106 452.6321L54.01058 452.6321z" /></clipPath><clipPath id="14"><path id="" clip-rule="evenodd" transform="matrix(1 0 0 1 0 0)" d="M106.9403 433.8821L565.9403 433.8821L565.9403 433.8821L565.9403 452.6321L565.9403 452.6321L106.9403 452.6321z" /></clipPath><clipPath id="15"><path id="" clip-rule="evenodd" transform="matrix(1 0 0 1 0 0)" d="M29.53263 453.3821L53.53263 453.3821L53.53263 453.3821L53.53263 484.8821L53.53263 484.8821L29.53263 484.8821z" /></clipPath><clipPath id="16"><path id="" clip-rule="evenodd" transform="matrix(1 0 0 1 0 0)" d="M54.01058 453.3821L106.5106 453.3821L106.5106 453.3821L106.5106 484.8821L106.5106 484.8821L54.01058 484.8821z" /></clipPath><clipPath id="17"><path id="" clip-rule="evenodd" transform="matrix(1 0 0 1 0 0)" d="M106.9403 453.3821L565.9403 453.3821L565.9403 453.3821L565.9403 484.8821L565.9403 484.8821L106.9403 484.8821z" /></clipPath><clipPath id="18"><path id="" clip-rule="evenodd" transform="matrix(1 0 0 1 0 0)" d="M29.53263 485.6321L53.53263 485.6321L53.53263 485.6321L53.53263 506.6322L53.53263 506.6322L29.53263 506.6322z" /></clipPath><clipPath id="19"><path id="" clip-rule="evenodd" transform="matrix(1 0 0 1 0 0)" d="M54.01058 485.6321L106.5106 485.6321L106.5106 485.6321L106.5106 506.6322L106.5106 506.6322L54.01058 506.6322z" /></clipPath><clipPath id="20"><path id="" clip-rule="evenodd" transform="matrix(1 0 0 1 0 0)" d="M106.9403 485.6321L565.9403 485.6321L565.9403 485.6321L565.9403 506.6322L565.9403 506.6322L106.9403 506.6322z" /></clipPath><clipPath id="21"><path id="" clip-rule="evenodd" transform="matrix(1 0 0 1 0 0)" d="M29.53263 507.6175L53.53263 507.6175L53.53263 507.6175L53.53263 526.3676L53.53263 526.3676L29.53263 526.3676z" /></clipPath><clipPath id="22"><path id="" clip-rule="evenodd" transform="matrix(1 0 0 1 0 0)" d="M54.01058 507.6175L106.5106 507.6175L106.5106 507.6175L106.5106 526.3676L106.5106 526.3676L54.01058 526.3676z" /></clipPath><clipPath id="23"><path id="" clip-rule="evenodd" transform="matrix(1 0 0 1 0 0)" d="M106.9403 507.6175L565.9403 507.6175L565.9403 507.6175L565.9403 526.3676L565.9403 526.3676L106.9403 526.3676z" /></clipPath><clipPath id="24"><path id="" clip-rule="evenodd" transform="matrix(1 0 0 1 0 0)" d="M29.53263 527.1176L53.53263 527.1176L53.53263 527.1176L53.53263 548.1176L53.53263 548.1176L29.53263 548.1176z" /></clipPath><clipPath id="25"><path id="" clip-rule="evenodd" transform="matrix(1 0 0 1 0 0)" d="M54.01058 527.1176L106.5106 527.1176L106.5106 527.1176L106.5106 548.1176L106.5106 548.1176L54.01058 548.1176z" /></clipPath><clipPath id="26"><path id="" clip-rule="evenodd" transform="matrix(1 0 0 1 0 0)" d="M106.9403 527.1176L565.9403 527.1176L565.9403 527.1176L565.9403 548.1176L565.9403 548.1176L106.9403 548.1176z" /></clipPath><clipPath id="27"><path id="" clip-rule="evenodd" transform="matrix(1 0 0 1 0 0)" d="M29.53263 549.103L53.53263 549.103L53.53263 549.103L53.53263 567.853L53.53263 567.853L29.53263 567.853z" /></clipPath><clipPath id="28"><path id="" clip-rule="evenodd" transform="matrix(1 0 0 1 0 0)" d="M54.01058 549.103L106.5106 549.103L106.5106 549.103L106.5106 567.853L106.5106 567.853L54.01058 567.853z" /></clipPath><clipPath id="29"><path id="" clip-rule="evenodd" transform="matrix(1 0 0 1 0 0)" d="M106.9403 549.103L565.9403 549.103L565.9403 549.103L565.9403 567.853L565.9403 567.853L106.9403 567.853z" /></clipPath><clipPath id="30"><path id="" clip-rule="evenodd" transform="matrix(1 0 0 1 0 0)" d="M29.53263 568.603L53.53263 568.603L53.53263 568.603L53.53263 589.603L53.53263 589.603L29.53263 589.603z" /></clipPath><clipPath id="31"><path id="" clip-rule="evenodd" transform="matrix(1 0 0 1 0 0)" d="M54.01058 568.603L106.5106 568.603L106.5106 568.603L106.5106 589.603L106.5106 589.603L54.01058 589.603z" /></clipPath><clipPath id="32"><path id="" clip-rule="evenodd" transform="matrix(1 0 0 1 0 0)" d="M106.9403 568.603L565.9403 568.603L565.9403 568.603L565.9403 589.603L565.9403 589.603L106.9403 589.603z" /></clipPath><clipPath id="33"><path id="" clip-rule="evenodd" transform="matrix(1 0 0 1 0 0)" d="M29.53263 590.5884L53.53263 590.5884L53.53263 590.5884L53.53263 622.0884L53.53263 622.0884L29.53263 622.0884z" /></clipPath><clipPath id="34"><path id="" clip-rule="evenodd" transform="matrix(1 0 0 1 0 0)" d="M54.01058 590.5884L106.5106 590.5884L106.5106 590.5884L106.5106 622.0884L106.5106 622.0884L54.01058 622.0884z" /></clipPath><clipPath id="35"><path id="" clip-rule="evenodd" transform="matrix(1 0 0 1 0 0)" d="M106.9403 590.5884L565.9403 590.5884L565.9403 590.5884L565.9403 622.0884L565.9403 622.0884L106.9403 622.0884z" /></clipPath><clipPath id="36"><path id="" clip-rule="evenodd" transform="matrix(1 0 0 1 0 0)" d="M29.53263 622.8384L53.53263 622.8384L53.53263 622.8384L53.53263 643.8384L53.53263 643.8384L29.53263 643.8384z" /></clipPath><clipPath id="37"><path id="" clip-rule="evenodd" transform="matrix(1 0 0 1 0 0)" d="M54.01058 622.8384L106.5106 622.8384L106.5106 622.8384L106.5106 643.8384L106.5106 643.8384L54.01058 643.8384z" /></clipPath><clipPath id="38"><path id="" clip-rule="evenodd" transform="matrix(1 0 0 1 0 0)" d="M106.9403 622.8384L565.9403 622.8384L565.9403 622.8384L565.9403 643.8384L565.9403 643.8384L106.9403 643.8384z" /></clipPath><clipPath id="39"><path id="" clip-rule="evenodd" transform="matrix(1 0 0 1 0 0)" d="M29.53263 644.8239L53.53263 644.8239L53.53263 644.8239L53.53263 665.8239L53.53263 665.8239L29.53263 665.8239z" /></clipPath><clipPath id="40"><path id="" clip-rule="evenodd" transform="matrix(1 0 0 1 0 0)" d="M54.01058 644.8239L106.5106 644.8239L106.5106 644.8239L106.5106 665.8239L106.5106 665.8239L54.01058 665.8239z" /></clipPath><clipPath id="41"><path id="" clip-rule="evenodd" transform="matrix(1 0 0 1 0 0)" d="M106.9403 644.8239L565.9403 644.8239L565.9403 644.8239L565.9403 665.8239L565.9403 665.8239L106.9403 665.8239z" /></clipPath><clipPath id="42"><path id="" clip-rule="evenodd" transform="matrix(1 0 0 1 0 0)" d="M29.53263 666.8093L53.53263 666.8093L53.53263 666.8093L53.53263 692.3093L53.53263 692.3093L29.53263 692.3093z" /></clipPath><clipPath id="43"><path id="" clip-rule="evenodd" transform="matrix(1 0 0 1 0 0)" d="M54.01058 666.8093L106.5106 666.8093L106.5106 666.8093L106.5106 692.3093L106.5106 692.3093L54.01058 692.3093z" /></clipPath><clipPath id="44"><path id="" clip-rule="evenodd" transform="matrix(1 0 0 1 0 0)" d="M106.9403 666.8093L565.9403 666.8093L565.9403 666.8093L565.9403 692.3093L565.9403 692.3093L106.9403 692.3093z" /></clipPath><clipPath id="45"><path id="" clip-rule="evenodd" transform="matrix(1 0 0 1 0 0)" d="M29.53263 692.78L53.53263 692.78L53.53263 692.78L53.53263 717.53L53.53263 717.53L29.53263 717.53z" /></clipPath><clipPath id="46"><path id="" clip-rule="evenodd" transform="matrix(1 0 0 1 0 0)" d="M54.01058 692.78L106.5106 692.78L106.5106 692.78L106.5106 717.53L106.5106 717.53L54.01058 717.53z" /></clipPath><clipPath id="47"><path id="" clip-rule="evenodd" transform="matrix(1 0 0 1 0 0)" d="M106.9403 692.78L565.9403 692.78L565.9403 692.78L565.9403 717.53L565.9403 717.53L106.9403 717.53z" /></clipPath><clipPath id="48"><path id="" clip-rule="evenodd" transform="matrix(1 0 0 1 0 0)" d="M29.53263 718.5955L53.53263 718.5955L53.53263 718.5955L53.53263 750.0955L53.53263 750.0955L29.53263 750.0955z" /></clipPath><clipPath id="49"><path id="" clip-rule="evenodd" transform="matrix(1 0 0 1 0 0)" d="M54.01058 718.5955L106.5106 718.5955L106.5106 718.5955L106.5106 750.0955L106.5106 750.0955L54.01058 750.0955z" /></clipPath><clipPath id="50"><path id="" clip-rule="evenodd" transform="matrix(1 0 0 1 0 0)" d="M106.9403 718.5955L565.9403 718.5955L565.9403 718.5955L565.9403 750.0955L565.9403 750.0955L106.9403 750.0955z" /></clipPath><clipPath id="51"><path id="" clip-rule="evenodd" transform="matrix(1 0 0 1 0 0)" d="M29.53263 750.8455L53.53263 750.8455L53.53263 750.8455L53.53263 782.3455L53.53263 782.3455L29.53263 782.3455z" /></clipPath><clipPath id="52"><path id="" clip-rule="evenodd" transform="matrix(1 0 0 1 0 0)" d="M54.01058 750.8455L106.5106 750.8455L106.5106 750.8455L106.5106 782.3455L106.5106 782.3455L54.01058 782.3455z" /></clipPath><clipPath id="53"><path id="" clip-rule="evenodd" transform="matrix(1 0 0 1 0 0)" d="M106.9403 750.8455L565.9403 750.8455L565.9403 750.8455L565.9403 782.3455L565.9403 782.3455L106.9403 782.3455z" /></clipPath><clipPath id="54"><path id="" clip-rule="evenodd" transform="matrix(1 0 0 1 0 0)" d="M29.53263 783.0955L53.53263 783.0955L53.53263 783.0955L53.53263 814.5955L53.53263 814.5955L29.53263 814.5955z" /></clipPath><clipPath id="55"><path id="" clip-rule="evenodd" transform="matrix(1 0 0 1 0 0)" d="M54.01058 783.0955L106.5106 783.0955L106.5106 783.0955L106.5106 814.5955L106.5106 814.5955L54.01058 814.5955z" /></clipPath><clipPath id="56"><path id="" clip-rule="evenodd" transform="matrix(1 0 0 1 0 0)" d="M106.9403 783.0955L565.9403 783.0955L565.9403 783.0955L565.9403 814.5955L565.9403 814.5955L106.9403 814.5955z" /></clipPath><clipPath id="57"><path id="" clip-rule="evenodd" transform="matrix(1 0 0 1 0 0)" d="M28.78263 391.1321L566.5327 391.1321L566.5327 391.1321L566.5327 815.6321L566.5327 815.6321L28.78263 815.6321z" /></clipPath><clipPath id="58"><path id="" clip-rule="evenodd" transform="matrix(1 0 0 1 0 0)" d="M493.2132 19.06012L577.9632 19.06012L577.9632 19.06012L577.9632 67.06006L577.9632 67.06006L493.2132 67.06006z" /></clipPath><clipPath id="59"><path id="" clip-rule="evenodd" transform="matrix(1 0 0 1 0 0)" d="M0 -0.249939L595.5 -0.249939L595.5 -0.249939L595.5 842.0001L595.5 842.0001L0 842.0001z" /></clipPath><clipPath id="60"><path id="" clip-rule="evenodd" transform="matrix(1 0 0 1 0 0)" d="M0 -0.249939L595.5 -0.249939L595.5 -0.249939L595.5 842.0001L595.5 842.0001L0 842.0001z" /></clipPath><clipPath id="61"><path id="" clip-rule="evenodd" transform="matrix(1 0 0 1 0 0)" d="M170.4176 237.313L425.1942 237.313L425.1942 237.313L425.1942 382.5754L425.1942 382.5754L170.4176 382.5754z" /></clipPath><clipPath id="62"><path id="" clip-rule="evenodd" transform="matrix(1 0 0 1 0 0)" d="M183.1676 237.313L412.1079 237.313C 415.4894 237.313 418.7325 238.6564 421.1236 241.0474C 423.5147 243.4385 424.8579 246.6815 424.8579 250.063L424.8579 250.063L424.8579 369.8254C 424.8579 373.2069 423.5147 376.45 421.1236 378.841C 418.7325 381.2321 415.4894 382.5754 412.1079 382.5754L412.1079 382.5754L183.1676 382.5754C 179.7861 382.5754 176.5431 381.2321 174.152 378.841C 171.7609 376.45 170.4176 373.2069 170.4176 369.8254L170.4176 369.8254L170.4176 250.063C 170.4176 246.6815 171.7609 243.4385 174.152 241.0474C 176.5431 238.6564 179.7861 237.313 183.1676 237.313z" /></clipPath><clipPath id="63"><path id="" clip-rule="evenodd" transform="matrix(1 0 0 1 0 0)" d="M170.4176 237.313L424.6268 237.313L424.6268 237.313L424.6268 382.5754L424.6268 382.5754L170.4176 382.5754z" /></clipPath><clipPath id="64"><path id="" clip-rule="evenodd" transform="matrix(1 0 0 1 0 0)" d="M0 -0.249939L595.5 -0.249939L595.5 -0.249939L595.5 842.0001L595.5 842.0001L0 842.0001z" /></clipPath><clipPath id="65"><path id="" clip-rule="evenodd" transform="matrix(1 0 0 1 0 0)" d="M0 -0.249939L595.5 -0.249939L595.5 -0.249939L595.5 842.0001L595.5 842.0001L0 842.0001z" /></clipPath><clipPath id="66"><path id="" clip-rule="evenodd" transform="matrix(1 0 0 1 0 0)" d="M33.90809 104.4369L450.07 104.4369L450.07 104.4369L450.07 216.313L450.07 216.313L33.90809 216.313z" /></clipPath><clipPath id="67"><path id="" clip-rule="evenodd" transform="matrix(1 0 0 1 0 0)" d="M45.59341 104.8722L438.7159 104.8722C 441.6996 104.8722 444.5611 106.0575 446.6709 108.1672C 448.7807 110.277 449.9659 113.1385 449.9659 116.1222L449.9659 116.1222L449.9659 205.063C 449.9659 208.0468 448.7807 210.9082 446.6709 213.018C 444.5611 215.1278 441.6996 216.313 438.7159 216.313L438.7159 216.313L45.59341 216.313C 42.60972 216.313 39.74824 215.1278 37.63845 213.018C 35.52867 210.9082 34.34341 208.0468 34.34341 205.063L34.34341 205.063L34.34341 116.1222C 34.34341 113.1385 35.52867 110.277 37.63845 108.1672C 39.74824 106.0575 42.60972 104.8722 45.59341 104.8722z" /></clipPath><clipPath id="68"><path id="" clip-rule="evenodd" transform="matrix(1 0 0 1 0 0)" d="M0 -0.249939L595.5 -0.249939L595.5 -0.249939L595.5 842.0001L595.5 842.0001L0 842.0001z" /></clipPath><clipPath id="69"><path id="" clip-rule="evenodd" transform="matrix(1 0 0 1 0 0)" d="M0 -0.249939L595.5 -0.249939L595.5 -0.249939L595.5 842.0001L595.5 842.0001L0 842.0001z" /></clipPath><clipPath id="70"><path id="" clip-rule="evenodd" transform="matrix(1 0 0 1 0 0)" d="M34.34341 104.8722L449.8434 104.8722L449.8434 104.8722L449.8434 216.6222L449.8434 216.6222L34.34341 216.6222z" /></clipPath><clipPath id="71"><path id="" clip-rule="evenodd" transform="matrix(1 0 0 1 0 0)" d="M34.35426 104.8722L450.09 104.8722L450.09 104.8722L450.09 216.4791L450.09 216.4791L34.35426 216.4791z" /></clipPath><clipPath id="72"><path id="" clip-rule="evenodd" transform="matrix(1 0 0 1 0 0)" d="M45.60353 104.8722L438.7004 104.8722C 441.684 104.8722 444.5452 106.0574 446.6549 108.1671C 448.7645 110.2767 449.9497 113.138 449.9497 116.1215L449.9497 116.1215L449.9497 205.0565C 449.9497 208.04 448.7645 210.9013 446.6549 213.0109C 444.5452 215.1206 441.684 216.3058 438.7004 216.3058L438.7004 216.3058L45.60353 216.3058C 42.62004 216.3058 39.75874 215.1206 37.64909 213.0109C 35.53945 210.9013 34.35426 208.04 34.35426 205.0565L34.35426 205.0565L34.35426 116.1215C 34.35426 113.138 35.53945 110.2767 37.64909 108.1671C 39.75874 106.0574 42.62004 104.8722 45.60353 104.8722z" /></clipPath><clipPath id="73"><path id="" clip-rule="evenodd" transform="matrix(1 0 0 1 0 0)" d="M0 -0.249939L595.5 -0.249939L595.5 -0.249939L595.5 842.0001L595.5 842.0001L0 842.0001z" /></clipPath></defs><g transform="matrix(1.333333 0 0 1.333333 0 0)"><g clip-path="url(#1)"><g clip-path="url(#2)"><path id="1" transform="matrix(1 0 0 -1 0 842)" d="M0 842.2499L595.4999 842.2499L595.4999 -6.103516E-05L0 -6.103516E-05z" stroke="none" fill="#FFFFFF" fill-rule="nonzero" /></g><g clip-path="url(#3)"><path id="2" transform="matrix(1 0 0 -1 0 842)" d="M0 842.2499L595.4999 842.2499L595.4999 -6.103516E-05L0 -6.103516E-05z" stroke="none" fill="#E9FCFF" fill-rule="nonzero" /></g><g clip-path="url(#4)"><g><g clip-path="url(#5)"><g clip-path="url(#6)"><g transform="matrix(0 0.5281065 -0.5283893 0 525.5604 59.27319)"><g transform="matrix(1 0 0 1 0 0)"><image x="0" y="0" xlink:href="img_01.png" width="1521" height="863" /></g></g></g></g></g></g><g clip-path="url(#7)"><path id="4" transform="matrix(1 0 0 -1 0 842)" d="M28.78263 450.8679L565.6777 450.8679L565.6777 26.65448L28.78263 26.65448z" stroke="none" fill="#FFFFFF" fill-rule="nonzero" /></g><g clip-path="url(#8)"></g><g clip-path="url(#9)"></g><g clip-path="url(#10)"></g><g clip-path="url(#11)"></g><g clip-path="url(#12)"></g><g clip-path="url(#13)"></g><g clip-path="url(#14)"></g><g clip-path="url(#15)"></g><g clip-path="url(#16)"></g><g clip-path="url(#17)"></g><g clip-path="url(#18)"></g><g clip-path="url(#19)"></g><g clip-path="url(#20)"></g><g clip-path="url(#21)"></g><g clip-path="url(#22)"></g><g clip-path="url(#23)"></g><g clip-path="url(#24)"></g><g clip-path="url(#25)"></g><g clip-path="url(#26)"></g><g clip-path="url(#27)"></g><g clip-path="url(#28)"></g><g clip-path="url(#29)"></g><g clip-path="url(#30)"></g><g clip-path="url(#31)"></g><g clip-path="url(#32)"></g><g clip-path="url(#33)"></g><g clip-path="url(#34)"></g><g clip-path="url(#35)"></g><g clip-path="url(#36)"></g><g clip-path="url(#37)"></g><g clip-path="url(#38)"></g><g clip-path="url(#39)"></g><g clip-path="url(#40)"></g><g clip-path="url(#41)"></g><g clip-path="url(#42)"></g><g clip-path="url(#43)"></g><g clip-path="url(#44)"></g><g clip-path="url(#45)"></g><g clip-path="url(#46)"></g><g clip-path="url(#47)"></g><g clip-path="url(#48)"></g><g clip-path="url(#49)"></g><g clip-path="url(#50)"></g><g clip-path="url(#51)"></g><g clip-path="url(#52)"></g><g clip-path="url(#53)"></g><g clip-path="url(#54)"></g><g clip-path="url(#55)"></g><g clip-path="url(#56)"></g><g clip-path="url(#57)"><path id="1359" transform="matrix(1 0 0 -1 0 842)" d="M28.78263 27.02951L566.493 27.02951M28.78263 59.27951L566.493 59.27951M28.78263 91.52951L566.493 91.52951M28.78263 123.7795L566.493 123.7795M28.78263 149.5949L566.493 149.5949M28.78263 175.5656L566.493 175.5656M28.78263 197.5511L566.493 197.5511M28.78263 219.5365L566.493 219.5365M28.78263 251.7865L566.493 251.7865M28.78263 273.772L566.493 273.772M28.78263 293.272L566.493 293.272M28.78263 315.2574L566.493 315.2574M28.78263 334.7574L566.493 334.7574M28.78263 356.7429L566.493 356.7429M28.78263 388.9929L566.493 388.9929M28.78263 408.4929L566.493 408.4929M28.78263 427.9929L566.493 427.9929M28.78263 450.4929L566.493 450.4929M566.118 450.1179L566.118 27.40451M106.5653 427.6179L106.5653 27.40451M53.63557 427.6179L53.63557 27.40451M29.15763 450.1179L29.15763 27.40451" stroke="none" fill="#000000" fill-rule="nonzero" /><path id="1360" transform="matrix(1 0 0 -1 0 842)" d="M28.78263 27.02951L566.493 27.02951M28.78263 59.27951L566.493 59.27951M28.78263 91.52951L566.493 91.52951M28.78263 123.7795L566.493 123.7795M28.78263 149.5949L566.493 149.5949M28.78263 175.5656L566.493 175.5656M28.78263 197.5511L566.493 197.5511M28.78263 219.5365L566.493 219.5365M28.78263 251.7865L566.493 251.7865M28.78263 273.772L566.493 273.772M28.78263 293.272L566.493 293.272M28.78263 315.2574L566.493 315.2574M28.78263 334.7574L566.493 334.7574M28.78263 356.7429L566.493 356.7429M28.78263 388.9929L566.493 388.9929M28.78263 408.4929L566.493 408.4929M28.78263 427.9929L566.493 427.9929M28.78263 450.4929L566.493 450.4929M566.118 450.1179L566.118 27.40451M106.5653 427.6179L106.5653 27.40451M53.63557 427.6179L53.63557 27.40451M29.15763 450.1179L29.15763 27.40451" stroke="#000000" stroke-width="0.7499999" fill="none" /></g><g clip-path="url(#58)"><g transform="matrix(0.05571992 0 0 0.05561992 493.2132 19.06012)"><g transform="matrix(1 0 0 1 0 0)"><image x="0" y="0" xlink:href="img_02.png" width="1521" height="863" /></g></g></g><g clip-path="url(#59)"><g clip-path="url(#60)"><g clip-path="url(#61)"><g clip-path="url(#62)"><g clip-path="url(#63)"><g transform="matrix(0.3650095 0 0 0.3648644 170.3083 237.313)"><g transform="matrix(1 0 0 1 0 0)"><image x="0" y="0" xlink:href="img_03.png" width="698" height="465" /></g></g></g></g></g></g></g><g clip-path="url(#64)"><g clip-path="url(#65)"><g clip-path="url(#66)"><g clip-path="url(#67)"><path id="1363" transform="matrix(1 0 0 -1 0 842)" d="M34.34341 737.1277L450.07 737.1277L450.07 625.6869L34.34341 625.6869z" stroke="none" fill="#F9F0DE" fill-rule="nonzero" /></g></g></g></g><g clip-path="url(#68)"><g clip-path="url(#69)"><g clip-path="url(#70)"><g clip-path="url(#71)"><g clip-path="url(#72)"><path id="1364" transform="matrix(1 0 0 -1 0 842)" d="M45.60352 737.1277L438.7004 737.1277C 441.6839 737.1277 444.5452 735.9426 446.6548 733.8329C 448.7645 731.7233 449.9497 728.862 449.9497 725.8785L449.9497 725.8785L449.9497 636.9434C 449.9497 633.96 448.7645 631.0986 446.6548 628.989C 444.5452 626.8793 441.6839 625.6942 438.7004 625.6942L438.7004 625.6942L45.60352 625.6942C 42.62003 625.6942 39.75874 626.8793 37.64909 628.989C 35.53945 631.0986 34.35426 633.96 34.35426 636.9434L34.35426 636.9434L34.35426 725.8785C 34.35426 728.862 35.53945 731.7233 37.64909 733.8329C 39.75874 735.9426 42.62003 737.1277 45.60352 737.1277z" stroke="#000000" stroke-width="4.5" fill="none" /></g></g></g></g></g><g clip-path="url(#73)"></g></g></g></svg>