<svg xmlns="http://www.w3.org/2000/svg" xmlns:xlink="http://www.w3.org/1999/xlink" id="body_1" preserveAspectRatio="xMinYMin meet" viewBox="0 0 793 1123"><defs><clipPath id="1"><path id="" clip-rule="evenodd" transform="matrix(1 0 0 1 0 0)" d="M0 842L0 -0.25L0 -0.25L595.5 -0.25L595.5 -0.25L595.5 842L595.5 842L0 842z" /></clipPath><clipPath id="2"><path id="" clip-rule="evenodd" transform="matrix(1 0 0 1 0 0)" d="M0 -0.249939L595.5 -0.249939L595.5 -0.249939L595.5 842.0001L595.5 842.0001L0 842.0001z" /></clipPath><clipPath id="3"><path id="" clip-rule="evenodd" transform="matrix(1 0 0 1 0 0)" d="M0 -0.249939L595.5 -0.249939L595.5 -0.249939L595.5 842.0001L595.5 842.0001L0 842.0001z" /></clipPath><clipPath id="4"><path id="" clip-rule="evenodd" transform="matrix(1 0 0 1 0 0)" d="M0 -0.249939L595.5 -0.249939L595.5 -0.249939L595.5 842.0001L595.5 842.0001L0 842.0001z" /></clipPath><clipPath id="5"><path id="" clip-rule="evenodd" transform="matrix(1 0 0 1 0 0)" d="M88.07999 52.55011L544.32 52.55011L544.32 52.55011L544.32 842.1501L544.32 842.1501L88.07999 842.1501z" /></clipPath><clipPath id="6"><path id="" clip-rule="evenodd" transform="matrix(1 0 0 1 0 0)" d="M88.28455 52.56403L544.2845 52.56403L544.2845 52.56403L544.2845 842.3901L544.2845 842.3901L88.28455 842.3901z" /></clipPath><clipPath id="7"><path id="" clip-rule="evenodd" transform="matrix(1 0 0 1 0 0)" d="M41.89594 228.3629L245.1459 228.3629L245.1459 228.3629L245.1459 284.6129L245.1459 284.6129L41.89594 284.6129z" /></clipPath><clipPath id="8"><path id="" clip-rule="evenodd" transform="matrix(1 0 0 1 0 0)" d="M41.89594 305.9708L553.3959 305.9708L553.3959 305.9708L553.3959 418.4708L553.3959 418.4708L41.89594 418.4708z" /></clipPath><clipPath id="9"><path id="" clip-rule="evenodd" transform="matrix(1 0 0 1 0 0)" d="M42.96556 130.5449L245.4656 130.5449L245.4656 130.5449L245.4656 202.5449L245.4656 202.5449L42.96556 202.5449z" /></clipPath><clipPath id="10"><path id="" clip-rule="evenodd" transform="matrix(1 0 0 1 0 0)" d="M0 -0.249939L595.5 -0.249939L595.5 -0.249939L595.5 842.0001L595.5 842.0001L0 842.0001z" /></clipPath><clipPath id="11"><path id="" clip-rule="evenodd" transform="matrix(1 0 0 1 0 0)" d="M0 -0.249939L595.5 -0.249939L595.5 -0.249939L595.5 842.0001L595.5 842.0001L0 842.0001z" /></clipPath><clipPath id="12"><path id="" clip-rule="evenodd" transform="matrix(1 0 0 1 0 0)" d="M314.3038 518.3522L571.5538 518.3522L571.5538 518.3522L571.5538 749.3522L571.5538 749.3522L314.3038 749.3522z" /></clipPath><clipPath id="13"><path id="" clip-rule="evenodd" transform="matrix(1 0 0 1 0 0)" d="M314.3038 535.6022L314.3038 731.671C 314.3038 741.1978 322.0269 748.921 331.5538 748.921L331.5538 748.921L553.6667 748.921C 563.1936 748.921 570.9167 741.1978 570.9167 731.671L570.9167 731.671L570.9167 535.6022C 570.9167 526.0753 563.1936 518.3522 553.6667 518.3522L553.6667 518.3522L331.5538 518.3522C 322.0269 518.3522 314.3038 526.0753 314.3038 535.6022z" /></clipPath><clipPath id="14"><path id="" clip-rule="evenodd" transform="matrix(1 0 0 1 0 0)" d="M315.0538 519.1022L570.0538 519.1022L570.0538 519.1022L570.0538 748.6022L570.0538 748.6022L315.0538 748.6022z" /></clipPath><clipPath id="15"><path id="" clip-rule="evenodd" transform="matrix(1 0 0 1 0 0)" d="M332.4538 519.2522L552.7667 519.2522C 562.2936 519.2522 570.0167 526.9753 570.0167 536.5022L570.0167 536.5022L570.0167 730.7709C 570.0167 740.2978 562.2936 748.0209 552.7667 748.0209L552.7667 748.0209L332.4538 748.0209C 322.9269 748.0209 315.2038 740.2978 315.2038 730.7709L315.2038 730.7709L315.2038 536.5022C 315.2038 526.9753 322.9269 519.2522 332.4538 519.2522z" /></clipPath><clipPath id="16"><path id="" clip-rule="evenodd" transform="matrix(1 0 0 1 0 0)" d="M0 -0.249939L595.5 -0.249939L595.5 -0.249939L595.5 842.0001L595.5 842.0001L0 842.0001z" /></clipPath><clipPath id="17"><path id="" clip-rule="evenodd" transform="matrix(1 0 0 1 0 0)" d="M0 -0.249939L595.5 -0.249939L595.5 -0.249939L595.5 842.0001L595.5 842.0001L0 842.0001z" /></clipPath><clipPath id="18"><path id="" clip-rule="evenodd" transform="matrix(1 0 0 1 0 0)" d="M314.3038 518.3522L571.5538 518.3522L571.5538 518.3522L571.5538 749.3522L571.5538 749.3522L314.3038 749.3522z" /></clipPath><clipPath id="19"><path id="" clip-rule="evenodd" transform="matrix(1 0 0 1 0 0)" d="M314.3038 535.6022L314.3038 731.671C 314.3038 741.1978 322.0269 748.921 331.5538 748.921L331.5538 748.921L553.6667 748.921C 563.1936 748.921 570.9167 741.1978 570.9167 731.671L570.9167 731.671L570.9167 535.6022C 570.9167 526.0753 563.1936 518.3522 553.6667 518.3522L553.6667 518.3522L331.5538 518.3522C 322.0269 518.3522 314.3038 526.0753 314.3038 535.6022z" /></clipPath><clipPath id="20"><path id="" clip-rule="evenodd" transform="matrix(1 0 0 1 0 0)" d="M314.3038 518.3522L570.8038 518.3522L570.8038 518.3522L570.8038 748.6022L570.8038 748.6022L314.3038 748.6022z" /></clipPath><clipPath id="21"><path id="" clip-rule="evenodd" transform="matrix(1 0 0 1 0 0)" d="M314.3038 518.3522L571.5464 518.3522L571.5464 518.3522L571.5464 749.3499L571.5464 749.3499L314.3038 749.3499z" /></clipPath><clipPath id="22"><path id="" clip-rule="evenodd" transform="matrix(1 0 0 1 0 0)" d="M314.3038 535.6021L314.3038 731.6688C 314.3038 741.1956 322.0267 748.9186 331.5533 748.9186L331.5533 748.9186L553.6599 748.9186C 563.1865 748.9186 570.9093 741.1956 570.9093 731.6688L570.9093 731.6688L570.9093 535.6021C 570.9093 526.0752 563.1865 518.3522 553.6599 518.3522L553.6599 518.3522L331.5533 518.3522C 322.0267 518.3522 314.3038 526.0752 314.3038 535.6021z" /></clipPath><clipPath id="23"><path id="" clip-rule="evenodd" transform="matrix(1 0 0 1 0 0)" d="M191.5426 770.0834L252.2926 770.0834L252.2926 770.0834L252.2926 827.8334L252.2926 827.8334L191.5426 827.8334z" /></clipPath><clipPath id="24"><path id="" clip-rule="evenodd" transform="matrix(1 0 0 1 0 0)" d="M371.6506 765.9917L442.9006 765.9917L442.9006 765.9917L442.9006 822.2417L442.9006 822.2417L371.6506 822.2417z" /></clipPath><clipPath id="25"><path id="" clip-rule="evenodd" transform="matrix(1 0 0 1 0 0)" d="M464.3603 765.0109L516.1103 765.0109L516.1103 765.0109L516.1103 828.0109L516.1103 828.0109L464.3603 828.0109z" /></clipPath><clipPath id="26"><path id="" clip-rule="evenodd" transform="matrix(1 0 0 1 0 0)" d="M529.7134 765.0109L582.9634 765.0109L582.9634 765.0109L582.9634 828.0109L582.9634 828.0109L529.7134 828.0109z" /></clipPath><clipPath id="27"><path id="" clip-rule="evenodd" transform="matrix(1 0 0 1 0 0)" d="M287.0744 765.0109L350.0744 765.0109L350.0744 765.0109L350.0744 828.0109L350.0744 828.0109L287.0744 828.0109z" /></clipPath><clipPath id="28"><path id="" clip-rule="evenodd" transform="matrix(1 0 0 1 0 0)" d="M0 -0.249939L595.5 -0.249939L595.5 -0.249939L595.5 842.0001L595.5 842.0001L0 842.0001z" /></clipPath><clipPath id="29"><path id="" clip-rule="evenodd" transform="matrix(1 0 0 1 0 0)" d="M13.4738 770.0834L92.97379 770.0834L92.97379 770.0834L92.97379 818.0834L92.97379 818.0834L13.4738 818.0834z" /></clipPath><clipPath id="30"><path id="" clip-rule="evenodd" transform="matrix(1 0 0 1 0 0)" d="M98.59071 770.0834L178.0907 770.0834L178.0907 770.0834L178.0907 818.0834L178.0907 818.0834L98.59071 818.0834z" /></clipPath><clipPath id="31"><path id="" clip-rule="evenodd" transform="matrix(1 0 0 1 0 0)" d="M0 -0.249939L595.5 -0.249939L595.5 -0.249939L595.5 842.0001L595.5 842.0001L0 842.0001z" /></clipPath><clipPath id="32"><path id="" clip-rule="evenodd" transform="matrix(1 0 0 1 0 0)" d="M35.52 431.5101L560.64 431.5101L560.64 431.5101L560.64 443.7501L560.64 443.7501L35.52 443.7501z" /></clipPath><clipPath id="33"><path id="" clip-rule="evenodd" transform="matrix(1 0 0 1 0 0)" d="M499.6608 11.00061L584.4108 11.00061L584.4108 11.00061L584.4108 59.00061L584.4108 59.00061L499.6608 59.00061z" /></clipPath><clipPath id="34"><path id="" clip-rule="evenodd" transform="matrix(1 0 0 1 0 0)" d="M6.042091 6.794739L79.54209 6.794739L79.54209 6.794739L79.54209 72.04474L79.54209 72.04474L6.042091 72.04474z" /></clipPath></defs><g transform="matrix(1.333333 0 0 1.333333 0 0)"><g clip-path="url(#1)"><g clip-path="url(#2)"><path id="1" transform="matrix(1 0 0 -1 0 842)" d="M0 842.2499L595.4999 842.2499L595.4999 -6.103516E-05L0 -6.103516E-05z" stroke="none" fill="#FFFFFF" fill-rule="nonzero" /></g><g clip-path="url(#3)"><path id="2" transform="matrix(1 0 0 -1 0 842)" d="M0 842.2499L595.4999 842.2499L595.4999 -6.103516E-05L0 -6.103516E-05z" stroke="none" fill="#FFFFFF" fill-rule="nonzero" /></g><g clip-path="url(#4)"><g><g clip-path="url(#5)"><g clip-path="url(#6)"><g transform="matrix(0 0.5281065 -0.5283893 0 544.2845 52.56403)"><g transform="matrix(1 0 0 1 0 0)"><image x="0" y="0" xlink:href="img_01.png" width="1521" height="863" /></g></g></g></g></g></g><g clip-path="url(#7)"><g transform="matrix(0.4881235 0 0 0.4875 41.89594 227.4552)"><g transform="matrix(1 0 0 1 0 0)"><image x="0" y="0" xlink:href="img_02.png" width="421" height="120" /></g></g></g><g clip-path="url(#8)"><g transform="matrix(0.6082045 0 0 0.6056485 41.89594 291.7509)"><g transform="matrix(1 0 0 1 0 0)"><image x="0" y="0" xlink:href="img_03.png" width="841" height="239" /></g></g></g><g clip-path="url(#9)"><g transform="matrix(0.5486936 0 0 0.544014 23.60116 130.5449)"><g transform="matrix(1 0 0 1 0 0)"><image x="0" y="0" xlink:href="img_04.png" width="421" height="142" /></g></g></g><g clip-path="url(#10)"><g clip-path="url(#11)"><g clip-path="url(#12)"><g clip-path="url(#13)"><g clip-path="url(#14)"><g clip-path="url(#15)"><g transform="matrix(0.5629032 0 0 0.563397 308.8312 514.9761)"><g transform="matrix(1 0 0 1 0 0)"><image x="0" y="0" xlink:href="img_05.png" width="465" height="418" /></g></g></g></g></g></g></g></g><g clip-path="url(#16)"><g clip-path="url(#17)"><g clip-path="url(#18)"><g clip-path="url(#19)"><g clip-path="url(#20)"><g clip-path="url(#21)"><g clip-path="url(#22)"><path id="222" transform="matrix(1 0 0 -1 0 842)" d="M314.3038 306.398L314.3038 110.3312C 314.3038 100.8044 322.0267 93.08139 331.5533 93.08139L331.5533 93.08139L553.6598 93.08139C 563.1864 93.08139 570.9093 100.8044 570.9093 110.3312L570.9093 110.3312L570.9093 306.398C 570.9093 315.9248 563.1864 323.6478 553.6598 323.6478L553.6598 323.6478L331.5533 323.6478C 322.0267 323.6478 314.3038 315.9248 314.3038 306.398z" stroke="#000000" stroke-width="1.5" fill="none" /></g></g></g></g></g></g></g><g clip-path="url(#23)"><g transform="matrix(0.3773292 0 0 0.375 191.5426 770.0834)"><g transform="matrix(1 0 0 1 0 0)"><image x="0" y="0" xlink:href="img_06.png" width="161" height="154" /></g></g></g><g clip-path="url(#24)"><g transform="matrix(0.5782442 0 0 0.5792079 369.826 763.6931)"><g transform="matrix(1 0 0 1 0 0)"><image x="0" y="0" xlink:href="img_07.png" width="131" height="101" /></g></g></g><g clip-path="url(#25)"><g transform="matrix(0.5447368 0 0 0.5478261 464.3603 765.0109)"><g transform="matrix(1 0 0 1 0 0)"><image x="0" y="0" xlink:href="img_08.png" width="95" height="115" /></g></g></g><g clip-path="url(#26)"><g transform="matrix(0.5526316 0 0 0.5478261 524.9916 765.0109)"><g transform="matrix(1 0 0 1 0 0)"><image x="0" y="0" xlink:href="img_09.png" width="114" height="115" /></g></g></g><g clip-path="url(#27)"><g transform="matrix(0.5526316 0 0 0.5478261 287.0744 765.0109)"><g transform="matrix(1 0 0 1 0 0)"><image x="0" y="0" xlink:href="img_10.png" width="114" height="115" /></g></g></g><g clip-path="url(#28)"></g><g clip-path="url(#29)"><g transform="matrix(0.5488281 0 0 0.546875 13.47379 768.9395)"><g transform="matrix(1 0 0 1 0 0)"><image x="0" y="0" xlink:href="img_11.png" width="384" height="96" /></g></g></g><g clip-path="url(#30)"><g transform="matrix(0.5488281 0 0 0.546875 -32.71331 768.9395)"><g transform="matrix(1 0 0 1 0 0)"><image x="0" y="0" xlink:href="img_11.png" width="384" height="96" /></g></g></g><g clip-path="url(#31)"><g><g clip-path="url(#32)"><path id="526" transform="matrix(1 0 0 -1 0 842)" d="M46.81106 404.4825L549.0428 404.4825" stroke="#000000" stroke-width="3" fill="none" /><path id="527" transform="matrix(1 0 0 -1 0 842)" d="M37.06106 404.4825C 37.06106 406.9678 39.07578 408.9825 41.56106 408.9825C 44.04634 408.9825 46.06106 406.9678 46.06106 404.4825C 46.06106 401.9972 44.04634 399.9825 41.56106 399.9825C 39.07578 399.9825 37.06106 401.9972 37.06106 404.4825" stroke="#000000" stroke-width="3" stroke-linecap="round" fill="none" /><path id="528" transform="matrix(1 0 0 -1 0 842)" d="M558.7928 404.4825C 558.7928 401.9972 556.7781 399.9825 554.2928 399.9825C 551.8075 399.9825 549.7928 401.9972 549.7928 404.4825C 549.7928 406.9678 551.8075 408.9825 554.2928 408.9825C 556.7781 408.9825 558.7928 406.9678 558.7928 404.4825" stroke="#000000" stroke-width="3" stroke-linecap="round" fill="none" /></g></g></g><g clip-path="url(#33)"><g transform="matrix(0.05571992 0 0 0.05561992 499.6608 11.00061)"><g transform="matrix(1 0 0 1 0 0)"><image x="0" y="0" xlink:href="img_12.png" width="1521" height="863" /></g></g></g><g clip-path="url(#34)"><g transform="matrix(0.459375 0 0 0.4627659 6.042091 6.7948)"><g transform="matrix(1 0 0 1 0 0)"><image x="0" y="0" xlink:href="img_13.png" width="160" height="141" /></g></g></g></g></g></svg>