<svg xmlns="http://www.w3.org/2000/svg" xmlns:xlink="http://www.w3.org/1999/xlink" id="body_1" preserveAspectRatio="xMinYMin meet" viewBox="0 0 793 1123"><defs><clipPath id="1"><path id="" clip-rule="evenodd" transform="matrix(1 0 0 1 0 0)" d="M0 842L0 -0.25L0 -0.25L595.5 -0.25L595.5 -0.25L595.5 842L595.5 842L0 842z" /></clipPath><clipPath id="2"><path id="" clip-rule="evenodd" transform="matrix(1 0 0 1 0 0)" d="M0 -0.249939L595.5 -0.249939L595.5 -0.249939L595.5 842.0001L595.5 842.0001L0 842.0001z" /></clipPath><clipPath id="3"><path id="" clip-rule="evenodd" transform="matrix(1 0 0 1 0 0)" d="M0 -0.249939L595.5 -0.249939L595.5 -0.249939L595.5 842.0001L595.5 842.0001L0 842.0001z" /></clipPath><clipPath id="4"><path id="" clip-rule="evenodd" transform="matrix(1 0 0 1 0 0)" d="M0 -0.249939L595.5 -0.249939L595.5 -0.249939L595.5 842.0001L595.5 842.0001L0 842.0001z" /></clipPath><clipPath id="5"><path id="" clip-rule="evenodd" transform="matrix(1 0 0 1 0 0)" d="M78.71999 30.71008L522.24 30.71008L522.24 30.71008L522.24 810.9501L522.24 810.9501L78.71999 810.9501z" /></clipPath><clipPath id="6"><path id="" clip-rule="evenodd" transform="matrix(1 0 0 1 0 0)" d="M79.51787 30.75183L522.0178 30.75183L522.0178 30.75183L522.0178 810.7518L522.0178 810.7518L79.51787 810.7518z" /></clipPath><clipPath id="7"><path id="" clip-rule="evenodd" transform="matrix(1 0 0 1 0 0)" d="M0 -0.249939L595.5 -0.249939L595.5 -0.249939L595.5 842.0001L595.5 842.0001L0 842.0001z" /></clipPath><clipPath id="8"><path id="" clip-rule="evenodd" transform="matrix(1 0 0 1 0 0)" d="M0 -0.249939L595.5 -0.249939L595.5 -0.249939L595.5 842.0001L595.5 842.0001L0 842.0001z" /></clipPath><clipPath id="9"><path id="" clip-rule="evenodd" transform="matrix(1 0 0 1 0 0)" d="M-0.4945312 -1.129761L132.1079 -1.129761L132.1079 -1.129761L132.1079 184.3143L132.1079 184.3143L-0.4945312 184.3143z" /></clipPath><clipPath id="10"><path id="" clip-rule="evenodd" transform="matrix(1 0 0 1 0 0)" d="M120.154 -0.2434082C 122.424 9.966614 123.624 20.43658 123.694 30.91656C 123.824 50.2865 120.134 69.69647 112.824 87.67645C 105.544 105.6764 94.62402 122.1964 80.95408 136.0664C 67.27409 149.9263 50.86412 161.1163 32.87415 168.6963C 22.34415 173.1463 11.28417 176.3663 -0.005800781 178.2963L-0.005800781 178.2963L-0.005800781 183.5763C 11.99418 181.7563 23.79416 178.5363 35.05413 173.9563C 53.84411 166.3463 71.09406 154.9363 85.55404 140.6663C 100.014 126.3964 111.694 109.2564 119.594 90.47644C 127.524 71.70648 131.694 51.33649 131.834 30.91656C 131.904 20.47656 130.914 10.0166 128.904 -0.2434082L128.904 -0.2434082L120.154 -0.2434082zM97.81405 -0.2434082C 100.484 9.906555 101.894 20.39655 101.984 30.91656C 102.124 47.43652 98.98405 64.00647 92.76402 79.36646C 86.56405 94.73645 77.26408 108.8464 65.59409 120.7164C 53.92411 132.5664 39.92414 142.1464 24.55416 148.6364C 16.65417 151.9863 8.404189 154.5264 -0.01579102 156.2164L-0.01579102 156.2164L-0.01579102 161.5863C 9.124175 159.9663 18.11417 157.4063 26.73416 153.9064C 42.89413 147.3763 57.74411 137.5764 70.19407 125.3264C 82.64407 113.0764 92.70403 98.33643 99.52405 82.17645C 106.364 66.02649 109.974 48.50653 110.114 30.92657C 110.194 20.46655 109.044 9.986572 106.704 -0.2333984L106.704 -0.2333984L97.81405 -0.2434082zM75.20406 -0.2434082C 78.45406 9.78656 80.17405 20.33655 80.27406 30.91656C 80.40405 44.5965 77.84406 58.32654 72.70408 71.05652C 67.59409 83.79645 59.90409 95.50647 50.24411 105.3665C 40.58413 115.2264 28.98416 123.1664 16.24418 128.5764C 10.98419 130.8164 5.544185 132.6263 -0.01579102 133.9764L-0.01579102 133.9764L-0.01579102 139.4664C 6.274189 138.1263 12.45417 136.2464 18.42416 133.8364C 31.95415 128.3964 44.40413 120.2064 54.84412 109.9664C 65.2841 99.72644 73.73406 87.38647 79.46407 73.85645C 85.21407 60.33649 88.26405 45.65656 88.40407 30.91656C 88.50403 20.42657 87.12405 9.896606 84.31405 -0.2434082L84.31405 -0.2434082L75.20406 -0.2434082zM52.06412 -0.2434082C 56.21411 9.55658 58.4441 20.20654 58.57409 30.91656C 58.70411 41.75653 56.7041 52.64655 52.65411 62.74652C 48.62411 72.85651 42.54413 82.16644 34.90414 90.00647C 27.26415 97.84644 18.06417 104.1864 7.954175 108.5064C 5.354179 109.6164 2.704204 110.6064 0.004204101 111.4464L0.004204101 111.4464L0.004204101 117.1464C 3.444199 116.2264 6.824194 115.1064 10.13418 113.7764C 21.04416 109.4164 31.08414 102.8464 39.51414 94.61646C 47.94411 86.38647 54.78411 76.45648 59.4241 65.54651C 64.0841 54.64648 66.57409 42.80652 66.7141 30.91656C 66.8341 20.36658 65.1041 9.766602 61.60409 -0.2434082L61.60409 -0.2434082L52.06412 -0.2434082zM27.67416 -0.2434082C 29.26415 2.296631 30.66414 4.946594 31.85415 7.696594C 35.01414 14.97656 36.73415 22.91656 36.87413 30.90656C 37.01414 38.89655 35.56415 46.94653 32.61414 54.43652C 29.66415 61.92651 25.20416 68.82648 19.57417 74.65649C 14.02418 80.38647 7.36418 85.06647 0.01420898 88.29645L0.01420898 88.29645L0.01420898 94.40643C 0.6241992 94.18646 1.234204 93.95642 1.834189 93.71643C 10.11417 90.44647 17.75418 85.48645 24.17415 79.26648C 30.59415 73.04651 35.81414 65.51648 39.38412 57.23651C 42.96413 48.96655 44.88411 39.96655 45.02412 30.90656C 45.16412 21.84656 43.50413 12.74658 40.14413 4.266602C 39.54414 2.736572 38.87414 1.226624 38.16413 -0.253418L38.16413 -0.253418L27.67416 -0.2434082zM0.004204101 -0.2434082L0.004204101 1.066589C 1.064209 1.876587 2.084209 2.746582 3.064189 3.666626C 6.724189 7.156616 9.714185 11.35657 11.79419 16.00659C 13.87418 20.65656 15.03417 25.75653 15.16418 30.90656C 15.29417 36.05652 14.41416 41.26654 12.54417 46.11652C 10.67417 50.96649 7.834189 55.4765 4.21418 59.29651C 2.904199 60.6665 1.494184 61.95648 0.004204101 63.13647L0.004204101 63.13647L0.004204101 70.51648C 3.184189 68.6665 6.144185 66.44647 8.814184 63.89648C 13.21418 59.67651 16.82417 54.55652 19.30418 48.90649C 21.78416 43.25653 23.15415 37.10651 23.29416 30.89655C 23.43416 24.68658 22.33416 18.41656 20.05416 12.56659C 18.26417 7.946594 15.73416 3.606628 12.59418 -0.2634277L12.59418 -0.2634277L0.004204101 -0.2434082zM0.004204101 20.8866L0.004204101 38.80652C 0.944209 36.29657 1.494184 33.61652 1.594204 30.90656C 1.724194 27.53656 1.194199 24.10657 0.004204101 20.8866z" /></clipPath><clipPath id="11"><path id="" clip-rule="evenodd" transform="matrix(1 0 0 1 0 0)" d="M0 -0.249939L595.5 -0.249939L595.5 -0.249939L595.5 842.0001L595.5 842.0001L0 842.0001z" /></clipPath><clipPath id="12"><path id="" clip-rule="evenodd" transform="matrix(1 0 0 1 0 0)" d="M46.227 183.4985L293.727 183.4985L293.727 183.4985L293.727 448.9986L293.727 448.9986L46.227 448.9986z" /></clipPath><clipPath id="13"><path id="" clip-rule="evenodd" transform="matrix(1 0 0 1 0 0)" d="M51.99975 411.7498L280.7498 411.7498L280.7498 411.7498L280.7498 415.4998L280.7498 415.4998L51.99975 415.4998z" /></clipPath><clipPath id="14"><path id="" clip-rule="evenodd" transform="matrix(1 0 0 1 0 0)" d="M0 -0.249939L595.5 -0.249939L595.5 -0.249939L595.5 842.0001L595.5 842.0001L0 842.0001z" /></clipPath><clipPath id="15"><path id="" clip-rule="evenodd" transform="matrix(1 0 0 1 0 0)" d="M0 -0.249939L595.5 -0.249939L595.5 -0.249939L595.5 842.0001L595.5 842.0001L0 842.0001z" /></clipPath><clipPath id="16"><path id="" clip-rule="evenodd" transform="matrix(1 0 0 1 0 0)" d="M66.28424 277.1405L282.6161 277.1405L282.6161 277.1405L282.6161 401.0353L282.6161 401.0353L66.28424 401.0353z" /></clipPath><clipPath id="17"><path id="" clip-rule="evenodd" transform="matrix(1 0 0 1 0 0)" d="M79.03424 277.1405C 75.65174 277.1405 72.41174 278.483 70.01924 280.8755C 67.62675 283.2681 66.28424 286.5081 66.28424 289.8905L66.28424 289.8905L66.28424 388.2831C 66.28424 391.6655 67.62675 394.9055 70.01924 397.298C 72.41174 399.6906 75.65174 401.0331 79.03424 401.0331L79.03424 401.0331L269.8117 401.0331C 273.1942 401.0331 276.4342 399.6906 278.8267 397.298C 281.2192 394.9055 282.5617 391.6655 282.5617 388.2831L282.5617 388.2831L282.5617 289.8905C 282.5617 286.5081 281.2192 283.2681 278.8267 280.8755C 276.4342 278.483 273.1942 277.1405 269.8117 277.1405L269.8117 277.1405L79.03424 277.1405z" /></clipPath><clipPath id="18"><path id="" clip-rule="evenodd" transform="matrix(1 0 0 1 0 0)" d="M66.28424 277.1405L282.6161 277.1405L282.6161 277.1405L282.6161 401.0353L282.6161 401.0353L66.28424 401.0353z" /></clipPath><clipPath id="19"><path id="" clip-rule="evenodd" transform="matrix(1 0 0 1 0 0)" d="M0 -0.249939L595.5 -0.249939L595.5 -0.249939L595.5 842.0001L595.5 842.0001L0 842.0001z" /></clipPath><clipPath id="20"><path id="" clip-rule="evenodd" transform="matrix(1 0 0 1 0 0)" d="M321.075 110.5048L568.575 110.5048L568.575 110.5048L568.575 355.0048L568.575 355.0048L321.075 355.0048z" /></clipPath><clipPath id="21"><path id="" clip-rule="evenodd" transform="matrix(1 0 0 1 0 0)" d="M330.9998 323.2568L559.7497 323.2568L559.7497 323.2568L559.7497 327.0068L559.7497 327.0068L330.9998 327.0068z" /></clipPath><clipPath id="22"><path id="" clip-rule="evenodd" transform="matrix(1 0 0 1 0 0)" d="M0 -0.249939L595.5 -0.249939L595.5 -0.249939L595.5 842.0001L595.5 842.0001L0 842.0001z" /></clipPath><clipPath id="23"><path id="" clip-rule="evenodd" transform="matrix(1 0 0 1 0 0)" d="M0 -0.249939L595.5 -0.249939L595.5 -0.249939L595.5 842.0001L595.5 842.0001L0 842.0001z" /></clipPath><clipPath id="24"><path id="" clip-rule="evenodd" transform="matrix(1 0 0 1 0 0)" d="M336.0187 184.7581L552.3505 184.7581L552.3505 184.7581L552.3505 308.6528L552.3505 308.6528L336.0187 308.6528z" /></clipPath><clipPath id="25"><path id="" clip-rule="evenodd" transform="matrix(1 0 0 1 0 0)" d="M348.7687 184.7581C 345.3862 184.7581 342.1462 186.1006 339.7538 188.493C 337.3612 190.8856 336.0187 194.1255 336.0187 197.5081L336.0187 197.5081L336.0187 295.9006C 336.0187 299.2831 337.3612 302.5231 339.7538 304.9155C 342.1462 307.3081 345.3862 308.6506 348.7687 308.6506L348.7687 308.6506L539.5463 308.6506C 542.9287 308.6506 546.1688 307.3081 548.5612 304.9155C 550.9537 302.5231 552.2963 299.2831 552.2963 295.9006L552.2963 295.9006L552.2963 197.5081C 552.2963 194.1255 550.9537 190.8856 548.5612 188.493C 546.1688 186.1006 542.9287 184.7581 539.5463 184.7581L539.5463 184.7581L348.7687 184.7581z" /></clipPath><clipPath id="26"><path id="" clip-rule="evenodd" transform="matrix(1 0 0 1 0 0)" d="M336.0187 184.7581L552.3505 184.7581L552.3505 184.7581L552.3505 308.6528L552.3505 308.6528L336.0187 308.6528z" /></clipPath><clipPath id="27"><path id="" clip-rule="evenodd" transform="matrix(1 0 0 1 0 0)" d="M0 -0.249939L595.5 -0.249939L595.5 -0.249939L595.5 842.0001L595.5 842.0001L0 842.0001z" /></clipPath><clipPath id="28"><path id="" clip-rule="evenodd" transform="matrix(1 0 0 1 0 0)" d="M317.5095 388.7496L565.0095 388.7496L565.0095 388.7496L565.0095 672.2496L565.0095 672.2496L317.5095 672.2496z" /></clipPath><clipPath id="29"><path id="" clip-rule="evenodd" transform="matrix(1 0 0 1 0 0)" d="M323.0002 637.7461L551.7502 637.7461L551.7502 637.7461L551.7502 641.4961L551.7502 641.4961L323.0002 641.4961z" /></clipPath><clipPath id="30"><path id="" clip-rule="evenodd" transform="matrix(1 0 0 1 0 0)" d="M0 -0.249939L595.5 -0.249939L595.5 -0.249939L595.5 842.0001L595.5 842.0001L0 842.0001z" /></clipPath><clipPath id="31"><path id="" clip-rule="evenodd" transform="matrix(1 0 0 1 0 0)" d="M0 -0.249939L595.5 -0.249939L595.5 -0.249939L595.5 842.0001L595.5 842.0001L0 842.0001z" /></clipPath><clipPath id="32"><path id="" clip-rule="evenodd" transform="matrix(1 0 0 1 0 0)" d="M330.9472 468.4396L547.0956 468.4396L547.0956 468.4396L547.0956 617.3677L547.0956 617.3677L330.9472 617.3677z" /></clipPath><clipPath id="33"><path id="" clip-rule="evenodd" transform="matrix(1 0 0 1 0 0)" d="M343.6972 468.4396C 340.3148 468.4396 337.0747 469.7821 334.6823 472.1747C 332.2897 474.5671 330.9472 477.8071 330.9472 481.1896L330.9472 481.1896L330.9472 604.0396C 330.9472 607.4221 332.2897 610.6621 334.6823 613.0546C 337.0747 615.4471 340.3148 616.7896 343.6972 616.7896L343.6972 616.7896L534.4748 616.7896C 537.8573 616.7896 541.0973 615.4471 543.4897 613.0546C 545.4473 611.0971 546.6997 608.5696 547.0897 605.8621L547.0897 605.8621L547.0897 479.3671C 546.6997 476.6596 545.4473 474.1321 543.4897 472.1747C 541.1048 469.7821 537.8573 468.4396 534.4748 468.4396L534.4748 468.4396L343.6972 468.4396z" /></clipPath><clipPath id="34"><path id="" clip-rule="evenodd" transform="matrix(1 0 0 1 0 0)" d="M330.9472 468.4396L547.0956 468.4396L547.0956 468.4396L547.0956 616.7881L547.0956 616.7881L330.9472 616.7881z" /></clipPath><clipPath id="35"><path id="" clip-rule="evenodd" transform="matrix(1 0 0 1 0 0)" d="M0 -0.249939L595.5 -0.249939L595.5 -0.249939L595.5 842.0001L595.5 842.0001L0 842.0001z" /></clipPath><clipPath id="36"><path id="" clip-rule="evenodd" transform="matrix(1 0 0 1 0 0)" d="M41.51475 508.0858L289.0147 508.0858L289.0147 508.0858L289.0147 819.3358L289.0147 819.3358L41.51475 819.3358z" /></clipPath><clipPath id="37"><path id="" clip-rule="evenodd" transform="matrix(1 0 0 1 0 0)" d="M50.00025 786.7673L280.2502 786.7673L280.2502 786.7673L280.2502 789.7673L280.2502 789.7673L50.00025 789.7673z" /></clipPath><clipPath id="38"><path id="" clip-rule="evenodd" transform="matrix(1 0 0 1 0 0)" d="M0 -0.249939L595.5 -0.249939L595.5 -0.249939L595.5 842.0001L595.5 842.0001L0 842.0001z" /></clipPath><clipPath id="39"><path id="" clip-rule="evenodd" transform="matrix(1 0 0 1 0 0)" d="M0 -0.249939L595.5 -0.249939L595.5 -0.249939L595.5 842.0001L595.5 842.0001L0 842.0001z" /></clipPath><clipPath id="40"><path id="" clip-rule="evenodd" transform="matrix(1 0 0 1 0 0)" d="M56.73825 600.6473L273.2428 600.6473L273.2428 600.6473L273.2428 767.5906L273.2428 767.5906L56.73825 767.5906z" /></clipPath><clipPath id="41"><path id="" clip-rule="evenodd" transform="matrix(1 0 0 1 0 0)" d="M69.48824 600.6473C 66.10574 600.6473 62.86575 601.9899 60.47325 604.3823C 58.08075 606.7748 56.73825 610.0148 56.73825 613.3973L56.73825 613.3973L56.73825 754.8398C 56.73825 758.2224 58.08075 761.4623 60.47325 763.8549C 62.86575 766.2474 66.10574 767.5898 69.48824 767.5898L69.48824 767.5898L260.2657 767.5898C 263.6483 767.5898 266.8882 766.2474 269.2808 763.8549C 271.6732 761.4623 273.0157 758.2224 273.0157 754.8398L273.0157 754.8398L273.0157 613.3973C 273.0157 610.0148 271.6732 606.7748 269.2808 604.3823C 266.8882 601.9899 263.6483 600.6473 260.2657 600.6473L260.2657 600.6473L69.48824 600.6473z" /></clipPath><clipPath id="42"><path id="" clip-rule="evenodd" transform="matrix(1 0 0 1 0 0)" d="M56.73825 600.6473L273.2428 600.6473L273.2428 600.6473L273.2428 767.5906L273.2428 767.5906L56.73825 767.5906z" /></clipPath><clipPath id="43"><path id="" clip-rule="evenodd" transform="matrix(1 0 0 1 0 0)" d="M0 -0.249939L595.5 -0.249939L595.5 -0.249939L595.5 842.0001L595.5 842.0001L0 842.0001z" /></clipPath><clipPath id="44"><path id="" clip-rule="evenodd" transform="matrix(1 0 0 1 0 0)" d="M474.0103 25.09363L564.7603 25.09363L564.7603 25.09363L564.7603 76.84363L564.7603 76.84363L474.0103 76.84363z" /></clipPath><clipPath id="45"><path id="" clip-rule="evenodd" transform="matrix(1 0 0 1 0 0)" d="M0 -0.249939L595.5 -0.249939L595.5 -0.249939L595.5 842.0001L595.5 842.0001L0 842.0001z" /></clipPath><clipPath id="46"><path id="" clip-rule="evenodd" transform="matrix(1 0 0 1 0 0)" d="M0 -0.249939L595.5 -0.249939L595.5 -0.249939L595.5 842.0001L595.5 842.0001L0 842.0001z" /></clipPath><clipPath id="47"><path id="" clip-rule="evenodd" transform="matrix(1 0 0 1 0 0)" d="M45.96948 27.40582L79.71948 27.40582L79.71948 27.40582L79.71948 61.15582L79.71948 61.15582L45.96948 61.15582z" /></clipPath><clipPath id="48"><path id="" clip-rule="evenodd" transform="matrix(1 0 0 1 0 0)" d="M45.96948 44.13904C 45.96948 48.57697 47.73244 52.83313 50.87052 55.97119C 54.00861 59.10925 58.26476 60.87225 62.70268 60.87225C 67.14059 60.87225 71.39674 59.10925 74.53483 55.97119C 77.67291 52.83313 79.43587 48.57697 79.43587 44.13904C 79.43587 39.70111 77.67291 35.44495 74.53483 32.30688C 71.39674 29.16882 67.14059 27.40582 62.70268 27.40582C 58.26476 27.40582 54.00861 29.16882 50.87052 32.30688C 47.73244 35.44495 45.96948 39.70111 45.96948 44.13904z" /></clipPath><clipPath id="49"><path id="" clip-rule="evenodd" transform="matrix(1 0 0 1 0 0)" d="M46.71948 28.15582L78.96948 28.15582L78.96948 28.15582L78.96948 60.40582L78.96948 60.40582L46.71948 60.40582z" /></clipPath><clipPath id="50"><path id="" clip-rule="evenodd" transform="matrix(1 0 0 1 0 0)" d="M62.70268 28.30585C 66.9019 28.30585 70.92913 29.974 73.89844 32.9433C 76.86773 35.9126 78.53587 39.93982 78.53587 44.13904C 78.53587 48.33826 76.86773 52.36548 73.89844 55.33478C 70.92913 58.30408 66.9019 59.97223 62.70268 59.97223C 58.50345 59.97223 54.47622 58.30408 51.50692 55.33478C 48.53762 52.36548 46.86948 48.33826 46.86948 44.13904C 46.86948 39.93982 48.53762 35.9126 51.50692 32.9433C 54.47622 29.974 58.50345 28.30585 62.70268 28.30585z" /></clipPath><clipPath id="51"><path id="" clip-rule="evenodd" transform="matrix(1 0 0 1 0 0)" d="M46.71948 28.15582L78.96948 28.15582L78.96948 28.15582L78.96948 60.40582L78.96948 60.40582L46.71948 60.40582z" /></clipPath><clipPath id="52"><path id="" clip-rule="evenodd" transform="matrix(1 0 0 1 0 0)" d="M45.97599 27.41235L79.726 27.41235L79.726 27.41235L79.726 61.16235L79.726 61.16235L45.97599 61.16235z" /></clipPath><clipPath id="53"><path id="" clip-rule="evenodd" transform="matrix(1 0 0 1 0 0)" d="M0 -0.249939L595.5 -0.249939L595.5 -0.249939L595.5 842.0001L595.5 842.0001L0 842.0001z" /></clipPath><clipPath id="54"><path id="" clip-rule="evenodd" transform="matrix(1 0 0 1 0 0)" d="M0 -0.249939L595.5 -0.249939L595.5 -0.249939L595.5 842.0001L595.5 842.0001L0 842.0001z" /></clipPath><clipPath id="55"><path id="" clip-rule="evenodd" transform="matrix(1 0 0 1 0 0)" d="M45.96948 27.40582L79.71948 27.40582L79.71948 27.40582L79.71948 61.15582L79.71948 61.15582L45.96948 61.15582z" /></clipPath><clipPath id="56"><path id="" clip-rule="evenodd" transform="matrix(1 0 0 1 0 0)" d="M45.96948 44.13904C 45.96948 48.57697 47.73244 52.83313 50.87052 55.97119C 54.00861 59.10925 58.26476 60.87225 62.70268 60.87225C 67.14059 60.87225 71.39674 59.10925 74.53483 55.97119C 77.67291 52.83313 79.43587 48.57697 79.43587 44.13904C 79.43587 39.70111 77.67291 35.44495 74.53483 32.30688C 71.39674 29.16882 67.14059 27.40582 62.70268 27.40582C 58.26476 27.40582 54.00861 29.16882 50.87052 32.30688C 47.73244 35.44495 45.96948 39.70111 45.96948 44.13904z" /></clipPath><clipPath id="57"><path id="" clip-rule="evenodd" transform="matrix(1 0 0 1 0 0)" d="M45.96948 27.40582L79.71948 27.40582L79.71948 27.40582L79.71948 61.15582L79.71948 61.15582L45.96948 61.15582z" /></clipPath><clipPath id="58"><path id="" clip-rule="evenodd" transform="matrix(1 0 0 1 0 0)" d="M45.96948 27.40582L79.71005 27.40582L79.71005 27.40582L79.71005 61.14642L79.71005 61.14642L45.96948 61.14642z" /></clipPath><clipPath id="59"><path id="" clip-rule="evenodd" transform="matrix(1 0 0 1 0 0)" d="M45.96948 44.13434C 45.96948 48.57104 47.73195 52.82599 50.86915 55.9632C 54.00636 59.1004 58.26132 60.86285 62.698 60.86285C 67.13468 60.86285 71.38964 59.1004 74.52685 55.9632C 77.66405 52.82599 79.42651 48.57104 79.42651 44.13434C 79.42651 39.69769 77.66405 35.44275 74.52685 32.30554C 71.38964 29.16833 67.13468 27.40582 62.698 27.40582C 58.26132 27.40582 54.00636 29.16833 50.86915 32.30554C 47.73195 35.44275 45.96948 39.69769 45.96948 44.13434z" /></clipPath><clipPath id="60"><path id="" clip-rule="evenodd" transform="matrix(1 0 0 1 0 0)" d="M0 -0.249939L595.5 -0.249939L595.5 -0.249939L595.5 842.0001L595.5 842.0001L0 842.0001z" /></clipPath><clipPath id="61"><path id="" clip-rule="evenodd" transform="matrix(1 0 0 1 0 0)" d="M0 -0.249939L595.5 -0.249939L595.5 -0.249939L595.5 842.0001L595.5 842.0001L0 842.0001z" /></clipPath><clipPath id="62"><path id="" clip-rule="evenodd" transform="matrix(1 0 0 1 0 0)" d="M0 -0.249939L595.5 -0.249939L595.5 -0.249939L595.5 842.0001L595.5 842.0001L0 842.0001z" /></clipPath><clipPath id="63"><path id="" clip-rule="evenodd" transform="matrix(1 0 0 1 0 0)" d="M331.6262 127.2975L361.6262 127.2975L361.6262 127.2975L361.6262 152.0475L361.6262 152.0475L331.6262 152.0475z" /></clipPath><clipPath id="64"><path id="" clip-rule="evenodd" transform="matrix(1 0 0 1 0 0)" d="M331.6262 139.6642C 331.6262 146.4941 337.163 152.0308 343.9929 152.0308L343.9929 152.0308L349.0401 152.0308C 355.87 152.0308 361.4067 146.4941 361.4067 139.6642C 361.4067 132.8342 355.87 127.2975 349.0401 127.2975L349.0401 127.2975L343.9929 127.2975C 337.163 127.2975 331.6262 132.8342 331.6262 139.6642z" /></clipPath><clipPath id="65"><path id="" clip-rule="evenodd" transform="matrix(1 0 0 1 0 0)" d="M332.3762 128.0475L360.8762 128.0475L360.8762 128.0475L360.8762 151.2975L360.8762 151.2975L332.3762 151.2975z" /></clipPath><clipPath id="66"><path id="" clip-rule="evenodd" transform="matrix(1 0 0 1 0 0)" d="M343.9929 128.1975L349.0401 128.1975C 355.3729 128.1975 360.5067 133.3313 360.5067 139.6642C 360.5067 145.997 355.3729 151.1308 349.0401 151.1308L349.0401 151.1308L343.9929 151.1308C 337.66 151.1308 332.5262 145.997 332.5262 139.6642C 332.5262 133.3313 337.66 128.1975 343.9929 128.1975z" /></clipPath><clipPath id="67"><path id="" clip-rule="evenodd" transform="matrix(1 0 0 1 0 0)" d="M332.3762 127.7739L360.8762 127.7739L360.8762 127.7739L360.8762 151.7739L360.8762 151.7739L332.3762 151.7739z" /></clipPath><clipPath id="68"><path id="" clip-rule="evenodd" transform="matrix(1 0 0 1 0 0)" d="M331.6318 124.7962L361.6318 124.7962L361.6318 124.7962L361.6318 154.7962L361.6318 154.7962L331.6318 154.7962z" /></clipPath><clipPath id="69"><path id="" clip-rule="evenodd" transform="matrix(1 0 0 1 0 0)" d="M0 -0.249939L595.5 -0.249939L595.5 -0.249939L595.5 842.0001L595.5 842.0001L0 842.0001z" /></clipPath><clipPath id="70"><path id="" clip-rule="evenodd" transform="matrix(1 0 0 1 0 0)" d="M0 -0.249939L595.5 -0.249939L595.5 -0.249939L595.5 842.0001L595.5 842.0001L0 842.0001z" /></clipPath><clipPath id="71"><path id="" clip-rule="evenodd" transform="matrix(1 0 0 1 0 0)" d="M331.6262 127.2975L361.6262 127.2975L361.6262 127.2975L361.6262 152.0475L361.6262 152.0475L331.6262 152.0475z" /></clipPath><clipPath id="72"><path id="" clip-rule="evenodd" transform="matrix(1 0 0 1 0 0)" d="M331.6262 139.6642C 331.6262 146.4941 337.163 152.0308 343.9929 152.0308L343.9929 152.0308L349.0401 152.0308C 355.87 152.0308 361.4067 146.4941 361.4067 139.6642C 361.4067 132.8342 355.87 127.2975 349.0401 127.2975L349.0401 127.2975L343.9929 127.2975C 337.163 127.2975 331.6262 132.8342 331.6262 139.6642z" /></clipPath><clipPath id="73"><path id="" clip-rule="evenodd" transform="matrix(1 0 0 1 0 0)" d="M331.6262 127.2975L361.6262 127.2975L361.6262 127.2975L361.6262 152.0475L361.6262 152.0475L331.6262 152.0475z" /></clipPath><clipPath id="74"><path id="" clip-rule="evenodd" transform="matrix(1 0 0 1 0 0)" d="M331.6262 127.2975L361.6231 127.2975L361.6231 127.2975L361.6231 152.0408L361.6231 152.0408L331.6262 152.0408z" /></clipPath><clipPath id="75"><path id="" clip-rule="evenodd" transform="matrix(1 0 0 1 0 0)" d="M331.6262 139.6608C 331.6262 146.4888 337.1624 152.024 343.9916 152.024L343.9916 152.024L349.0382 152.024C 355.8674 152.024 361.4036 146.4888 361.4036 139.6608C 361.4036 132.8328 355.8674 127.2975 349.0382 127.2975L349.0382 127.2975L343.9916 127.2975C 337.1624 127.2975 331.6262 132.8328 331.6262 139.6608z" /></clipPath><clipPath id="76"><path id="" clip-rule="evenodd" transform="matrix(1 0 0 1 0 0)" d="M0 -0.249939L595.5 -0.249939L595.5 -0.249939L595.5 842.0001L595.5 842.0001L0 842.0001z" /></clipPath><clipPath id="77"><path id="" clip-rule="evenodd" transform="matrix(1 0 0 1 0 0)" d="M0 -0.249939L595.5 -0.249939L595.5 -0.249939L595.5 842.0001L595.5 842.0001L0 842.0001z" /></clipPath><clipPath id="78"><path id="" clip-rule="evenodd" transform="matrix(1 0 0 1 0 0)" d="M0 -0.249939L595.5 -0.249939L595.5 -0.249939L595.5 842.0001L595.5 842.0001L0 842.0001z" /></clipPath><clipPath id="79"><path id="" clip-rule="evenodd" transform="matrix(1 0 0 1 0 0)" d="M328.6577 395.9616L358.6577 395.9616L358.6577 395.9616L358.6577 420.7116L358.6577 420.7116L328.6577 420.7116z" /></clipPath><clipPath id="80"><path id="" clip-rule="evenodd" transform="matrix(1 0 0 1 0 0)" d="M328.6577 408.3322C 328.6577 411.613 329.9611 414.7596 332.281 417.0795C 334.601 419.3994 337.7474 420.7027 341.0283 420.7027L341.0283 420.7027L346.0677 420.7027C 349.3486 420.7027 352.4951 419.3994 354.815 417.0795C 357.1349 414.7596 358.4382 411.613 358.4382 408.3322C 358.4382 405.0513 357.1349 401.9048 354.815 399.5849C 352.4951 397.265 349.3486 395.9616 346.0677 395.9616L346.0677 395.9616L341.0283 395.9616C 337.7474 395.9616 334.601 397.265 332.281 399.5849C 329.9611 401.9048 328.6577 405.0513 328.6577 408.3322z" /></clipPath><clipPath id="81"><path id="" clip-rule="evenodd" transform="matrix(1 0 0 1 0 0)" d="M329.4077 396.7116L357.9077 396.7116L357.9077 396.7116L357.9077 419.9616L357.9077 419.9616L329.4077 419.9616z" /></clipPath><clipPath id="82"><path id="" clip-rule="evenodd" transform="matrix(1 0 0 1 0 0)" d="M341.0283 396.8616L346.0677 396.8616C 349.1099 396.8616 352.0274 398.0701 354.1786 400.2213C 356.3297 402.3724 357.5382 405.29 357.5382 408.3322C 357.5382 411.3744 356.3297 414.292 354.1786 416.4431C 352.0274 418.5942 349.1099 419.8027 346.0677 419.8027L346.0677 419.8027L341.0283 419.8027C 337.9861 419.8027 335.0685 418.5942 332.9174 416.4431C 330.7663 414.292 329.5578 411.3744 329.5578 408.3322C 329.5578 405.29 330.7663 402.3724 332.9174 400.2213C 335.0685 398.0701 337.9861 396.8616 341.0283 396.8616z" /></clipPath><clipPath id="83"><path id="" clip-rule="evenodd" transform="matrix(1 0 0 1 0 0)" d="M329.4077 396.442L357.9077 396.442L357.9077 396.442L357.9077 420.442L357.9077 420.442L329.4077 420.442z" /></clipPath><clipPath id="84"><path id="" clip-rule="evenodd" transform="matrix(1 0 0 1 0 0)" d="M328.6633 393.4642L358.6633 393.4642L358.6633 393.4642L358.6633 423.4642L358.6633 423.4642L328.6633 423.4642z" /></clipPath><clipPath id="85"><path id="" clip-rule="evenodd" transform="matrix(1 0 0 1 0 0)" d="M0 -0.249939L595.5 -0.249939L595.5 -0.249939L595.5 842.0001L595.5 842.0001L0 842.0001z" /></clipPath><clipPath id="86"><path id="" clip-rule="evenodd" transform="matrix(1 0 0 1 0 0)" d="M0 -0.249939L595.5 -0.249939L595.5 -0.249939L595.5 842.0001L595.5 842.0001L0 842.0001z" /></clipPath><clipPath id="87"><path id="" clip-rule="evenodd" transform="matrix(1 0 0 1 0 0)" d="M328.6577 395.9616L358.6577 395.9616L358.6577 395.9616L358.6577 420.7116L358.6577 420.7116L328.6577 420.7116z" /></clipPath><clipPath id="88"><path id="" clip-rule="evenodd" transform="matrix(1 0 0 1 0 0)" d="M328.6577 408.3322C 328.6577 411.613 329.9611 414.7596 332.281 417.0795C 334.601 419.3994 337.7474 420.7027 341.0283 420.7027L341.0283 420.7027L346.0677 420.7027C 349.3486 420.7027 352.4951 419.3994 354.815 417.0795C 357.1349 414.7596 358.4382 411.613 358.4382 408.3322C 358.4382 405.0513 357.1349 401.9048 354.815 399.5849C 352.4951 397.265 349.3486 395.9616 346.0677 395.9616L346.0677 395.9616L341.0283 395.9616C 337.7474 395.9616 334.601 397.265 332.281 399.5849C 329.9611 401.9048 328.6577 405.0513 328.6577 408.3322z" /></clipPath><clipPath id="89"><path id="" clip-rule="evenodd" transform="matrix(1 0 0 1 0 0)" d="M328.6577 395.9616L358.6577 395.9616L358.6577 395.9616L358.6577 420.7116L358.6577 420.7116L328.6577 420.7116z" /></clipPath><clipPath id="90"><path id="" clip-rule="evenodd" transform="matrix(1 0 0 1 0 0)" d="M328.6577 395.9616L358.6546 395.9616L358.6546 395.9616L358.6546 420.7088L358.6546 420.7088L328.6577 420.7088z" /></clipPath><clipPath id="91"><path id="" clip-rule="evenodd" transform="matrix(1 0 0 1 0 0)" d="M328.6577 408.3308C 328.6577 411.6113 329.9609 414.7574 332.2806 417.0771C 334.6003 419.3967 337.7465 420.6999 341.027 420.6999L341.027 420.6999L346.0659 420.6999C 349.3464 420.6999 352.4926 419.3967 354.8122 417.0771C 357.1319 414.7574 358.4351 411.6113 358.4351 408.3308C 358.4351 405.0503 357.1319 401.9041 354.8122 399.5845C 352.4926 397.2648 349.3464 395.9616 346.0659 395.9616L346.0659 395.9616L341.027 395.9616C 337.7465 395.9616 334.6003 397.2648 332.2806 399.5845C 329.9609 401.9041 328.6577 405.0503 328.6577 408.3308z" /></clipPath><clipPath id="92"><path id="" clip-rule="evenodd" transform="matrix(1 0 0 1 0 0)" d="M0 -0.249939L595.5 -0.249939L595.5 -0.249939L595.5 842.0001L595.5 842.0001L0 842.0001z" /></clipPath><clipPath id="93"><path id="" clip-rule="evenodd" transform="matrix(1 0 0 1 0 0)" d="M0 -0.249939L595.5 -0.249939L595.5 -0.249939L595.5 842.0001L595.5 842.0001L0 842.0001z" /></clipPath><clipPath id="94"><path id="" clip-rule="evenodd" transform="matrix(1 0 0 1 0 0)" d="M0 -0.249939L595.5 -0.249939L595.5 -0.249939L595.5 842.0001L595.5 842.0001L0 842.0001z" /></clipPath><clipPath id="95"><path id="" clip-rule="evenodd" transform="matrix(1 0 0 1 0 0)" d="M59.52756 517.8806L89.52756 517.8806L89.52756 517.8806L89.52756 542.6306L89.52756 542.6306L59.52756 542.6306z" /></clipPath><clipPath id="96"><path id="" clip-rule="evenodd" transform="matrix(1 0 0 1 0 0)" d="M59.52756 530.2512C 59.52756 533.5321 60.83088 536.6786 63.1508 538.9985C 65.47073 541.3184 68.61723 542.6217 71.89811 542.6217L71.89811 542.6217L76.93748 542.6217C 80.21836 542.6217 83.36485 541.3184 85.68479 538.9985C 88.00471 536.6786 89.30804 533.5321 89.30804 530.2512C 89.30804 526.9703 88.00471 523.8238 85.68479 521.5039C 83.36485 519.184 80.21836 517.8806 76.93748 517.8806L76.93748 517.8806L71.89811 517.8806C 68.61723 517.8806 65.47073 519.184 63.1508 521.5039C 60.83088 523.8238 59.52756 526.9703 59.52756 530.2512z" /></clipPath><clipPath id="97"><path id="" clip-rule="evenodd" transform="matrix(1 0 0 1 0 0)" d="M60.27756 518.6306L88.77756 518.6306L88.77756 518.6306L88.77756 541.8806L88.77756 541.8806L60.27756 541.8806z" /></clipPath><clipPath id="98"><path id="" clip-rule="evenodd" transform="matrix(1 0 0 1 0 0)" d="M71.89811 518.7806L76.93748 518.7806C 79.97967 518.7806 82.89725 519.9891 85.04839 522.1403C 87.19954 524.2914 88.40804 527.209 88.40804 530.2512C 88.40804 533.2934 87.19954 536.2109 85.04839 538.3621C 82.89725 540.5132 79.97967 541.7217 76.93748 541.7217L76.93748 541.7217L71.89811 541.7217C 68.85593 541.7217 65.93835 540.5132 63.7872 538.3621C 61.63606 536.2109 60.42756 533.2934 60.42756 530.2512C 60.42756 527.209 61.63606 524.2914 63.7872 522.1403C 65.93835 519.9891 68.85593 518.7806 71.89811 518.7806z" /></clipPath><clipPath id="99"><path id="" clip-rule="evenodd" transform="matrix(1 0 0 1 0 0)" d="M60.27756 518.361L88.77756 518.361L88.77756 518.361L88.77756 542.361L88.77756 542.361L60.27756 542.361z" /></clipPath><clipPath id="100"><path id="" clip-rule="evenodd" transform="matrix(1 0 0 1 0 0)" d="M59.53312 515.3832L89.53312 515.3832L89.53312 515.3832L89.53312 545.3832L89.53312 545.3832L59.53312 545.3832z" /></clipPath><clipPath id="101"><path id="" clip-rule="evenodd" transform="matrix(1 0 0 1 0 0)" d="M0 -0.249939L595.5 -0.249939L595.5 -0.249939L595.5 842.0001L595.5 842.0001L0 842.0001z" /></clipPath><clipPath id="102"><path id="" clip-rule="evenodd" transform="matrix(1 0 0 1 0 0)" d="M0 -0.249939L595.5 -0.249939L595.5 -0.249939L595.5 842.0001L595.5 842.0001L0 842.0001z" /></clipPath><clipPath id="103"><path id="" clip-rule="evenodd" transform="matrix(1 0 0 1 0 0)" d="M59.52756 517.8806L89.52756 517.8806L89.52756 517.8806L89.52756 542.6306L89.52756 542.6306L59.52756 542.6306z" /></clipPath><clipPath id="104"><path id="" clip-rule="evenodd" transform="matrix(1 0 0 1 0 0)" d="M59.52756 530.2512C 59.52756 533.5321 60.83088 536.6786 63.1508 538.9985C 65.47073 541.3184 68.61723 542.6217 71.89811 542.6217L71.89811 542.6217L76.93748 542.6217C 80.21836 542.6217 83.36485 541.3184 85.68479 538.9985C 88.00471 536.6786 89.30804 533.5321 89.30804 530.2512C 89.30804 526.9703 88.00471 523.8238 85.68479 521.5039C 83.36485 519.184 80.21836 517.8806 76.93748 517.8806L76.93748 517.8806L71.89811 517.8806C 68.61723 517.8806 65.47073 519.184 63.1508 521.5039C 60.83088 523.8238 59.52756 526.9703 59.52756 530.2512z" /></clipPath><clipPath id="105"><path id="" clip-rule="evenodd" transform="matrix(1 0 0 1 0 0)" d="M59.52756 517.8806L89.52756 517.8806L89.52756 517.8806L89.52756 542.6306L89.52756 542.6306L59.52756 542.6306z" /></clipPath><clipPath id="106"><path id="" clip-rule="evenodd" transform="matrix(1 0 0 1 0 0)" d="M59.52756 517.8806L89.5244 517.8806L89.5244 517.8806L89.5244 542.6278L89.5244 542.6278L59.52756 542.6278z" /></clipPath><clipPath id="107"><path id="" clip-rule="evenodd" transform="matrix(1 0 0 1 0 0)" d="M59.52756 530.2498C 59.52756 533.5303 60.83074 536.6764 63.15042 538.9961C 65.47012 541.3157 68.61627 542.6189 71.8968 542.6189L71.8968 542.6189L76.93565 542.6189C 80.21618 542.6189 83.36235 541.3157 85.68204 538.9961C 88.00172 536.6764 89.3049 533.5303 89.3049 530.2498C 89.3049 526.9693 88.00172 523.8232 85.68204 521.5035C 83.36235 519.1838 80.21618 517.8806 76.93565 517.8806L76.93565 517.8806L71.8968 517.8806C 68.61627 517.8806 65.47012 519.1838 63.15042 521.5035C 60.83074 523.8232 59.52756 526.9693 59.52756 530.2498z" /></clipPath><clipPath id="108"><path id="" clip-rule="evenodd" transform="matrix(1 0 0 1 0 0)" d="M0 -0.249939L595.5 -0.249939L595.5 -0.249939L595.5 842.0001L595.5 842.0001L0 842.0001z" /></clipPath><clipPath id="109"><path id="" clip-rule="evenodd" transform="matrix(1 0 0 1 0 0)" d="M0 -0.249939L595.5 -0.249939L595.5 -0.249939L595.5 842.0001L595.5 842.0001L0 842.0001z" /></clipPath><clipPath id="110"><path id="" clip-rule="evenodd" transform="matrix(1 0 0 1 0 0)" d="M0 -0.249939L595.5 -0.249939L595.5 -0.249939L595.5 842.0001L595.5 842.0001L0 842.0001z" /></clipPath><clipPath id="111"><path id="" clip-rule="evenodd" transform="matrix(1 0 0 1 0 0)" d="M64.54563 200.1148L94.54563 200.1148L94.54563 200.1148L94.54563 224.8648L94.54563 224.8648L64.54563 224.8648z" /></clipPath><clipPath id="112"><path id="" clip-rule="evenodd" transform="matrix(1 0 0 1 0 0)" d="M64.54563 212.4814C 64.54563 219.3114 70.08237 224.8481 76.91227 224.8481L76.91227 224.8481L81.95947 224.8481C 88.78937 224.8481 94.3261 219.3114 94.3261 212.4814C 94.3261 205.6516 88.78937 200.1148 81.95947 200.1148L81.95947 200.1148L76.91227 200.1148C 70.08237 200.1148 64.54563 205.6516 64.54563 212.4814z" /></clipPath><clipPath id="113"><path id="" clip-rule="evenodd" transform="matrix(1 0 0 1 0 0)" d="M65.29563 200.8648L93.79563 200.8648L93.79563 200.8648L93.79563 224.1148L93.79563 224.1148L65.29563 224.1148z" /></clipPath><clipPath id="114"><path id="" clip-rule="evenodd" transform="matrix(1 0 0 1 0 0)" d="M76.91227 201.0148L81.95947 201.0148C 88.29232 201.0148 93.42611 206.1486 93.42611 212.4814C 93.42611 218.8143 88.29232 223.9481 81.95947 223.9481L81.95947 223.9481L76.91227 223.9481C 70.57942 223.9481 65.44563 218.8143 65.44563 212.4814C 65.44563 206.1486 70.57942 201.0148 76.91227 201.0148z" /></clipPath><clipPath id="115"><path id="" clip-rule="evenodd" transform="matrix(1 0 0 1 0 0)" d="M65.29563 200.5912L93.79563 200.5912L93.79563 200.5912L93.79563 224.5912L93.79563 224.5912L65.29563 224.5912z" /></clipPath><clipPath id="116"><path id="" clip-rule="evenodd" transform="matrix(1 0 0 1 0 0)" d="M64.55119 197.6135L94.55119 197.6135L94.55119 197.6135L94.55119 227.6135L94.55119 227.6135L64.55119 227.6135z" /></clipPath><clipPath id="117"><path id="" clip-rule="evenodd" transform="matrix(1 0 0 1 0 0)" d="M0 -0.249939L595.5 -0.249939L595.5 -0.249939L595.5 842.0001L595.5 842.0001L0 842.0001z" /></clipPath><clipPath id="118"><path id="" clip-rule="evenodd" transform="matrix(1 0 0 1 0 0)" d="M0 -0.249939L595.5 -0.249939L595.5 -0.249939L595.5 842.0001L595.5 842.0001L0 842.0001z" /></clipPath><clipPath id="119"><path id="" clip-rule="evenodd" transform="matrix(1 0 0 1 0 0)" d="M64.54563 200.1148L94.54563 200.1148L94.54563 200.1148L94.54563 224.8648L94.54563 224.8648L64.54563 224.8648z" /></clipPath><clipPath id="120"><path id="" clip-rule="evenodd" transform="matrix(1 0 0 1 0 0)" d="M64.54563 212.4814C 64.54563 219.3114 70.08237 224.8481 76.91227 224.8481L76.91227 224.8481L81.95947 224.8481C 88.78937 224.8481 94.3261 219.3114 94.3261 212.4814C 94.3261 205.6516 88.78937 200.1148 81.95947 200.1148L81.95947 200.1148L76.91227 200.1148C 70.08237 200.1148 64.54563 205.6516 64.54563 212.4814z" /></clipPath><clipPath id="121"><path id="" clip-rule="evenodd" transform="matrix(1 0 0 1 0 0)" d="M64.54563 200.1148L94.54563 200.1148L94.54563 200.1148L94.54563 224.8648L94.54563 224.8648L64.54563 224.8648z" /></clipPath><clipPath id="122"><path id="" clip-rule="evenodd" transform="matrix(1 0 0 1 0 0)" d="M64.54563 200.1148L94.54247 200.1148L94.54247 200.1148L94.54247 224.8581L94.54247 224.8581L64.54563 224.8581z" /></clipPath><clipPath id="123"><path id="" clip-rule="evenodd" transform="matrix(1 0 0 1 0 0)" d="M64.54563 212.4781C 64.54563 219.3062 70.08178 224.8414 76.91096 224.8414L76.91096 224.8414L81.95763 224.8414C 88.78682 224.8414 94.32298 219.3062 94.32298 212.4781C 94.32298 205.65 88.78682 200.1148 81.95763 200.1148L81.95763 200.1148L76.91096 200.1148C 70.08178 200.1148 64.54563 205.65 64.54563 212.4781z" /></clipPath><clipPath id="124"><path id="" clip-rule="evenodd" transform="matrix(1 0 0 1 0 0)" d="M0 -0.249939L595.5 -0.249939L595.5 -0.249939L595.5 842.0001L595.5 842.0001L0 842.0001z" /></clipPath></defs><g transform="matrix(1.333333 0 0 1.333333 0 0)"><g clip-path="url(#1)"><g clip-path="url(#2)"><path id="1" transform="matrix(1 0 0 -1 0 842)" d="M0 842.2499L595.4999 842.2499L595.4999 -6.103516E-05L0 -6.103516E-05z" stroke="none" fill="#FFFFFF" fill-rule="nonzero" /></g><g clip-path="url(#3)"><path id="2" transform="matrix(1 0 0 -1 0 842)" d="M0 842.2499L595.4999 842.2499L595.4999 -6.103516E-05L0 -6.103516E-05z" stroke="none" fill="#FFFFFF" fill-rule="nonzero" /></g><g clip-path="url(#4)"><g><g clip-path="url(#5)"><g clip-path="url(#6)"><g transform="matrix(0 0.5128205 -0.5127462 0 522.0178 30.75189)"><g transform="matrix(1 0 0 1 0 0)"><image x="0" y="0" xlink:href="img_01.png" width="1521" height="863" /></g></g></g></g></g></g><g clip-path="url(#7)"><g clip-path="url(#8)"><g clip-path="url(#9)"><g clip-path="url(#10)"><path id="4" transform="matrix(1 0 0 -1 0 842)" d="M-176.9655 968.7532L132.1079 968.7532L132.1079 656.6887L-176.9655 656.6887z" stroke="none" fill="#D9D9D9" fill-rule="nonzero" /></g></g></g></g><g clip-path="url(#11)"></g><g clip-path="url(#12)"><g transform="matrix(0.2400582 0 0 0.2400542 46.227 183.4986)"><g transform="matrix(1 0 0 1 0 0)"><image x="0" y="0" xlink:href="img_02.png" width="1031" height="1106" /></g></g></g><g clip-path="url(#13)"><g transform="matrix(0.9989082 0 0 0.9374999 51.99974 411.7498)"><g transform="matrix(1 0 0 1 0 0)"><image x="0" y="0" xlink:href="img_03.png" width="229" height="4" /></g></g></g><g clip-path="url(#14)"><g clip-path="url(#15)"><g clip-path="url(#16)"><g clip-path="url(#17)"><g clip-path="url(#18)"><g transform="matrix(0.5753506 0 0 0.5730617 66.28424 270.5031)"><g transform="matrix(1 0 0 1 0 0)"><image x="0" y="0" xlink:href="img_04.png" width="376" height="239" /></g></g></g></g></g></g></g><g clip-path="url(#19)"></g><g clip-path="url(#20)"><g transform="matrix(0.2400582 0 0 0.2407045 321.075 109.7583)"><g transform="matrix(1 0 0 1 0 0)"><image x="0" y="0" xlink:href="img_05.png" width="1031" height="1022" /></g></g></g><g clip-path="url(#21)"><g transform="matrix(0.9989082 0 0 0.9374999 330.9997 323.2568)"><g transform="matrix(1 0 0 1 0 0)"><image x="0" y="0" xlink:href="img_06.png" width="229" height="4" /></g></g></g><g clip-path="url(#22)"><g clip-path="url(#23)"><g clip-path="url(#24)"><g clip-path="url(#25)"><g clip-path="url(#26)"><g transform="matrix(0.5692943 0 0 0.5698621 336.0187 180.9594)"><g transform="matrix(1 0 0 1 0 0)"><image x="0" y="0" xlink:href="img_07.png" width="380" height="231" /></g></g></g></g></g></g></g><g clip-path="url(#27)"></g><g clip-path="url(#28)"><g transform="matrix(0.2400582 0 0 0.2406621 317.5095 388.7475)"><g transform="matrix(1 0 0 1 0 0)"><image x="0" y="0" xlink:href="img_08.png" width="1031" height="1178" /></g></g></g><g clip-path="url(#29)"><g transform="matrix(0.9989082 0 0 0.9374999 323.0002 637.7461)"><g transform="matrix(1 0 0 1 0 0)"><image x="0" y="0" xlink:href="img_09.png" width="229" height="4" /></g></g></g><g clip-path="url(#30)"><g clip-path="url(#31)"><g clip-path="url(#32)"><g clip-path="url(#33)"><g clip-path="url(#34)"><g transform="matrix(0.6301702 0 0 0.6304812 330.9472 463.8947)"><g transform="matrix(1 0 0 1 0 0)"><image x="0" y="0" xlink:href="img_10.png" width="343" height="250" /></g></g></g></g></g></g></g><g clip-path="url(#35)"></g><g clip-path="url(#36)"><g transform="matrix(0.2400582 0 0 0.2399768 41.50776 508.0858)"><g transform="matrix(1 0 0 1 0 0)"><image x="0" y="0" xlink:href="img_11.png" width="1031" height="1297" /></g></g></g><g clip-path="url(#37)"><g transform="matrix(1.001087 0 0 1 50.00025 786.7673)"><g transform="matrix(1 0 0 1 0 0)"><image x="0" y="0" xlink:href="img_12.png" width="230" height="3" /></g></g></g><g clip-path="url(#38)"><g clip-path="url(#39)"><g clip-path="url(#40)"><g clip-path="url(#41)"><g clip-path="url(#42)"><g transform="matrix(0.6221394 0 0 0.6209698 56.73825 586.5443)"><g transform="matrix(1 0 0 1 0 0)"><image x="0" y="0" xlink:href="img_13.png" width="348" height="314" /></g></g></g></g></g></g></g><g clip-path="url(#43)"></g><g clip-path="url(#44)"><g transform="matrix(0.05966469 0 0 0.05996523 474.0102 25.09363)"><g transform="matrix(1 0 0 1 0 0)"><image x="0" y="0" xlink:href="img_14.png" width="1521" height="863" /></g></g></g><g clip-path="url(#45)"><g clip-path="url(#46)"><g clip-path="url(#47)"><g clip-path="url(#48)"><g clip-path="url(#49)"><g clip-path="url(#50)"><g clip-path="url(#51)"><g clip-path="url(#52)"><path id="389" transform="matrix(1 0 0 -1 0 842)" d="M62.85099 814.3382C 53.68197 814.3382 46.22538 806.8816 46.22538 797.7126C 46.22538 788.5436 53.68197 781.087 62.85099 781.087C 72.02002 781.087 79.47661 788.5436 79.47661 797.7126C 79.47661 806.8816 72.02002 814.3382 62.85099 814.3382zM62.85099 780.8376C 53.54896 780.8376 45.97599 788.4105 45.97599 797.7126C 45.97599 807.0146 53.54896 814.5876 62.85099 814.5876C 72.15303 814.5876 79.726 807.0146 79.726 797.7126C 79.726 788.4105 72.15303 780.8376 62.85099 780.8376z" stroke="none" fill="#000000" fill-rule="nonzero" /></g></g></g></g></g></g></g></g><g clip-path="url(#53)"><g clip-path="url(#54)"><g clip-path="url(#55)"><g clip-path="url(#56)"><g clip-path="url(#57)"><g clip-path="url(#58)"><g clip-path="url(#59)"><path id="390" transform="matrix(1 0 0 -1 0 842)" d="M45.96948 797.8656C 45.96948 793.4289 47.73195 789.174 50.86915 786.0367C 54.00636 782.8995 58.26132 781.1371 62.698 781.1371C 67.13467 781.1371 71.38963 782.8995 74.52684 786.0367C 77.66405 789.174 79.42651 793.4289 79.42651 797.8656C 79.42651 802.3023 77.66405 806.5573 74.52684 809.6945C 71.38963 812.8317 67.13467 814.5941 62.698 814.5941C 58.26132 814.5941 54.00636 812.8317 50.86915 809.6945C 47.73195 806.5573 45.96948 802.3023 45.96948 797.8656z" stroke="#000000" stroke-width="1.5" fill="none" /></g></g></g></g></g></g></g><g clip-path="url(#60)"></g><g clip-path="url(#61)"><g clip-path="url(#62)"><g clip-path="url(#63)"><g clip-path="url(#64)"><g clip-path="url(#65)"><g clip-path="url(#66)"><g clip-path="url(#67)"><g clip-path="url(#68)"><path id="392" transform="matrix(1 0 0 -1 0 842)" d="M346.6318 716.9821C 338.4815 716.9821 331.8535 710.3541 331.8535 702.2038C 331.8535 694.0535 338.4815 687.4255 346.6318 687.4255C 354.782 687.4255 361.4101 694.0535 361.4101 702.2038C 361.4101 710.3541 354.782 716.9821 346.6318 716.9821zM346.6318 687.2038C 338.3633 687.2038 331.6318 693.9353 331.6318 702.2038C 331.6318 710.4723 338.3633 717.2038 346.6318 717.2038C 354.9002 717.2038 361.6318 710.4723 361.6318 702.2038C 361.6318 693.9353 354.9002 687.2038 346.6318 687.2038z" stroke="none" fill="#000000" fill-rule="nonzero" /></g></g></g></g></g></g></g></g><g clip-path="url(#69)"><g clip-path="url(#70)"><g clip-path="url(#71)"><g clip-path="url(#72)"><g clip-path="url(#73)"><g clip-path="url(#74)"><g clip-path="url(#75)"><path id="393" transform="matrix(1 0 0 -1 0 842)" d="M331.6262 702.3392C 331.6262 695.5111 337.1624 689.9759 343.9916 689.9759L343.9916 689.9759L349.0382 689.9759C 355.8674 689.9759 361.4036 695.5111 361.4036 702.3392C 361.4036 709.1672 355.8674 714.7025 349.0382 714.7025L349.0382 714.7025L343.9916 714.7025C 337.1624 714.7025 331.6262 709.1672 331.6262 702.3392z" stroke="#000000" stroke-width="1.5" fill="none" /></g></g></g></g></g></g></g><g clip-path="url(#76)"></g><g clip-path="url(#77)"><g clip-path="url(#78)"><g clip-path="url(#79)"><g clip-path="url(#80)"><g clip-path="url(#81)"><g clip-path="url(#82)"><g clip-path="url(#83)"><g clip-path="url(#84)"><path id="395" transform="matrix(1 0 0 -1 0 842)" d="M343.6633 448.3141C 335.5131 448.3141 328.885 441.686 328.885 433.5358C 328.885 425.3855 335.5131 418.7574 343.6633 418.7574C 351.8135 418.7574 358.4416 425.3855 358.4416 433.5358C 358.4416 441.686 351.8135 448.3141 343.6633 448.3141zM343.6633 418.5358C 335.3948 418.5358 328.6633 425.2673 328.6633 433.5358C 328.6633 441.8042 335.3948 448.5358 343.6633 448.5358C 351.9318 448.5358 358.6633 441.8042 358.6633 433.5358C 358.6633 425.2673 351.9318 418.5358 343.6633 418.5358z" stroke="none" fill="#000000" fill-rule="nonzero" /></g></g></g></g></g></g></g></g><g clip-path="url(#85)"><g clip-path="url(#86)"><g clip-path="url(#87)"><g clip-path="url(#88)"><g clip-path="url(#89)"><g clip-path="url(#90)"><g clip-path="url(#91)"><path id="396" transform="matrix(1 0 0 -1 0 842)" d="M328.6577 433.6692C 328.6577 430.3887 329.9609 427.2426 332.2806 424.9229C 334.6003 422.6032 337.7465 421.3001 341.027 421.3001L341.027 421.3001L346.0658 421.3001C 349.3464 421.3001 352.4925 422.6032 354.8122 424.9229C 357.1319 427.2426 358.4351 430.3887 358.4351 433.6692C 358.4351 436.9497 357.1319 440.0959 354.8122 442.4155C 352.4925 444.7352 349.3464 446.0384 346.0658 446.0384L346.0658 446.0384L341.027 446.0384C 337.7465 446.0384 334.6003 444.7352 332.2806 442.4155C 329.9609 440.0959 328.6577 436.9497 328.6577 433.6692z" stroke="#000000" stroke-width="1.5" fill="none" /></g></g></g></g></g></g></g><g clip-path="url(#92)"></g><g clip-path="url(#93)"><g clip-path="url(#94)"><g clip-path="url(#95)"><g clip-path="url(#96)"><g clip-path="url(#97)"><g clip-path="url(#98)"><g clip-path="url(#99)"><g clip-path="url(#100)"><path id="398" transform="matrix(1 0 0 -1 0 842)" d="M74.53312 326.3951C 66.38287 326.3951 59.7548 319.767 59.7548 311.6167C 59.7548 303.4665 66.38287 296.8384 74.53312 296.8384C 82.68336 296.8384 89.31145 303.4665 89.31145 311.6167C 89.31145 319.767 82.68336 326.3951 74.53312 326.3951zM74.53312 296.6167C 66.26465 296.6167 59.53312 303.3483 59.53312 311.6167C 59.53312 319.8852 66.26465 326.6167 74.53312 326.6167C 82.80159 326.6167 89.53312 319.8852 89.53312 311.6167C 89.53312 303.3483 82.80159 296.6167 74.53312 296.6167z" stroke="none" fill="#000000" fill-rule="nonzero" /></g></g></g></g></g></g></g></g><g clip-path="url(#101)"><g clip-path="url(#102)"><g clip-path="url(#103)"><g clip-path="url(#104)"><g clip-path="url(#105)"><g clip-path="url(#106)"><g clip-path="url(#107)"><path id="399" transform="matrix(1 0 0 -1 0 842)" d="M59.52755 311.7502C 59.52755 308.4697 60.83074 305.3236 63.15042 303.0039C 65.47011 300.6842 68.61627 299.3811 71.8968 299.3811L71.8968 299.3811L76.93565 299.3811C 80.21618 299.3811 83.36234 300.6842 85.68203 303.0039C 88.00171 305.3236 89.30489 308.4697 89.30489 311.7502C 89.30489 315.0307 88.00171 318.1768 85.68203 320.4965C 83.36234 322.8162 80.21618 324.1194 76.93565 324.1194L76.93565 324.1194L71.8968 324.1194C 68.61627 324.1194 65.47011 322.8162 63.15042 320.4965C 60.83074 318.1768 59.52755 315.0307 59.52755 311.7502z" stroke="#000000" stroke-width="1.5" fill="none" /></g></g></g></g></g></g></g><g clip-path="url(#108)"></g><g clip-path="url(#109)"><g clip-path="url(#110)"><g clip-path="url(#111)"><g clip-path="url(#112)"><g clip-path="url(#113)"><g clip-path="url(#114)"><g clip-path="url(#115)"><g clip-path="url(#116)"><path id="401" transform="matrix(1 0 0 -1 0 842)" d="M79.55119 644.1648C 71.40095 644.1648 64.77287 637.5367 64.77287 629.3865C 64.77287 621.2362 71.40095 614.6082 79.55119 614.6082C 87.70144 614.6082 94.32951 621.2362 94.32951 629.3865C 94.32951 637.5367 87.70144 644.1648 79.55119 644.1648zM79.55119 614.3865C 71.28272 614.3865 64.55119 621.118 64.55119 629.3865C 64.55119 637.655 71.28272 644.3865 79.55119 644.3865C 87.81966 644.3865 94.55119 637.655 94.55119 629.3865C 94.55119 621.118 87.81966 614.3865 79.55119 614.3865z" stroke="none" fill="#000000" fill-rule="nonzero" /></g></g></g></g></g></g></g></g><g clip-path="url(#117)"><g clip-path="url(#118)"><g clip-path="url(#119)"><g clip-path="url(#120)"><g clip-path="url(#121)"><g clip-path="url(#122)"><g clip-path="url(#123)"><path id="402" transform="matrix(1 0 0 -1 0 842)" d="M64.54562 629.5219C 64.54562 622.6938 70.08177 617.1586 76.91096 617.1586L76.91096 617.1586L81.95763 617.1586C 88.78681 617.1586 94.32297 622.6938 94.32297 629.5219C 94.32297 636.3499 88.78681 641.8851 81.95763 641.8851L81.95763 641.8851L76.91096 641.8851C 70.08177 641.8851 64.54562 636.3499 64.54562 629.5219z" stroke="#000000" stroke-width="1.5" fill="none" /></g></g></g></g></g></g></g><g clip-path="url(#124)"></g></g></g></svg>