<svg xmlns="http://www.w3.org/2000/svg" xmlns:xlink="http://www.w3.org/1999/xlink" id="body_1" preserveAspectRatio="xMinYMin meet" viewBox="0 0 793 1123"><defs><clipPath id="1"><path id="" clip-rule="evenodd" transform="matrix(1 0 0 1 0 0)" d="M0 842L0 -0.25L0 -0.25L595.5 -0.25L595.5 -0.25L595.5 842L595.5 842L0 842z" /></clipPath><clipPath id="2"><path id="" clip-rule="evenodd" transform="matrix(1 0 0 1 0 0)" d="M0 -0.249939L595.5 -0.249939L595.5 -0.249939L595.5 842.0001L595.5 842.0001L0 842.0001z" /></clipPath><clipPath id="3"><path id="" clip-rule="evenodd" transform="matrix(1 0 0 1 0 0)" d="M0 -0.249939L595.5 -0.249939L595.5 -0.249939L595.5 842.0001L595.5 842.0001L0 842.0001z" /></clipPath><clipPath id="4"><path id="" clip-rule="evenodd" transform="matrix(1 0 0 1 0 0)" d="M0 -0.249939L595.5 -0.249939L595.5 -0.249939L595.5 842.0001L595.5 842.0001L0 842.0001z" /></clipPath><clipPath id="5"><path id="" clip-rule="evenodd" transform="matrix(1 0 0 1 0 0)" d="M78.71999 30.71008L522.24 30.71008L522.24 30.71008L522.24 810.9501L522.24 810.9501L78.71999 810.9501z" /></clipPath><clipPath id="6"><path id="" clip-rule="evenodd" transform="matrix(1 0 0 1 0 0)" d="M79.51787 30.75183L522.0178 30.75183L522.0178 30.75183L522.0178 810.7518L522.0178 810.7518L79.51787 810.7518z" /></clipPath><clipPath id="7"><path id="" clip-rule="evenodd" transform="matrix(1 0 0 1 0 0)" d="M29.445 321.4768L276.945 321.4768L276.945 321.4768L276.945 736.2268L276.945 736.2268L29.445 736.2268z" /></clipPath><clipPath id="8"><path id="" clip-rule="evenodd" transform="matrix(1 0 0 1 0 0)" d="M297.6375 119.7253L571.3875 119.7253L571.3875 119.7253L571.3875 431.7253L571.3875 431.7253L297.6375 431.7253z" /></clipPath><clipPath id="9"><path id="" clip-rule="evenodd" transform="matrix(1 0 0 1 0 0)" d="M318.9998 406.7503L547.7497 406.7503L547.7497 406.7503L547.7497 410.5003L547.7497 410.5003L318.9998 410.5003z" /></clipPath><clipPath id="10"><path id="" clip-rule="evenodd" transform="matrix(1 0 0 1 0 0)" d="M36 714.7498L266.25 714.7498L266.25 714.7498L266.25 718.4998L266.25 718.4998L36 718.4998z" /></clipPath><clipPath id="11"><path id="" clip-rule="evenodd" transform="matrix(1 0 0 1 0 0)" d="M0 -0.249939L595.5 -0.249939L595.5 -0.249939L595.5 842.0001L595.5 842.0001L0 842.0001z" /></clipPath><clipPath id="12"><path id="" clip-rule="evenodd" transform="matrix(1 0 0 1 0 0)" d="M0 -0.249939L595.5 -0.249939L595.5 -0.249939L595.5 842.0001L595.5 842.0001L0 842.0001z" /></clipPath><clipPath id="13"><path id="" clip-rule="evenodd" transform="matrix(1 0 0 1 0 0)" d="M312.3945 206.2783L422.451 206.2783L422.451 206.2783L422.451 339.9798L422.451 339.9798L312.3945 339.9798z" /></clipPath><clipPath id="14"><path id="" clip-rule="evenodd" transform="matrix(1 0 0 1 0 0)" d="M325.1145 206.2783C 318.087 206.2933 312.3945 211.9933 312.3945 219.0283L312.3945 219.0283L312.3945 327.2983C 312.3945 333.8833 317.382 339.2983 323.787 339.9733L323.787 339.9733L411.057 339.9733C 417.462 339.2983 422.4495 333.8758 422.4495 327.2983L422.4495 327.2983L422.4495 219.0283C 422.4495 211.9933 416.757 206.2933 409.7295 206.2783L409.7295 206.2783L325.1145 206.2783z" /></clipPath><clipPath id="15"><path id="" clip-rule="evenodd" transform="matrix(1 0 0 1 0 0)" d="M312.3945 206.2783L422.451 206.2783L422.451 206.2783L422.451 339.9798L422.451 339.9798L312.3945 339.9798z" /></clipPath><clipPath id="16"><path id="" clip-rule="evenodd" transform="matrix(1 0 0 1 0 0)" d="M20.898 -0.249939L272.898 -0.249939L272.898 -0.249939L272.898 282.5953L272.898 282.5953L20.898 282.5953z" /></clipPath><clipPath id="17"><path id="" clip-rule="evenodd" transform="matrix(1 0 0 1 0 0)" d="M27.99975 234.7498L256.7498 234.7498L256.7498 234.7498L256.7498 238.4998L256.7498 238.4998L27.99975 238.4998z" /></clipPath><clipPath id="18"><path id="" clip-rule="evenodd" transform="matrix(1 0 0 1 0 0)" d="M0 -0.249939L595.5 -0.249939L595.5 -0.249939L595.5 842.0001L595.5 842.0001L0 842.0001z" /></clipPath><clipPath id="19"><path id="" clip-rule="evenodd" transform="matrix(1 0 0 1 0 0)" d="M0 -0.249939L595.5 -0.249939L595.5 -0.249939L595.5 842.0001L595.5 842.0001L0 842.0001z" /></clipPath><clipPath id="20"><path id="" clip-rule="evenodd" transform="matrix(1 0 0 1 0 0)" d="M64.74075 68.94055L227.0459 68.94055L227.0459 68.94055L227.0459 211.3038L227.0459 211.3038L64.74075 211.3038z" /></clipPath><clipPath id="21"><path id="" clip-rule="evenodd" transform="matrix(1 0 0 1 0 0)" d="M77.49075 68.94055C 70.44824 68.94055 64.74075 74.64807 64.74075 81.69055L64.74075 81.69055L64.74075 198.0005C 64.74075 205.043 70.44824 210.7505 77.49075 210.7505L77.49075 210.7505L214.2607 210.7505C 221.3032 210.7505 227.0108 205.043 227.0108 198.0005L227.0108 198.0005L227.0108 81.69055C 227.0108 74.64807 221.3032 68.94055 214.2607 68.94055L214.2607 68.94055L77.49075 68.94055z" /></clipPath><clipPath id="22"><path id="" clip-rule="evenodd" transform="matrix(1 0 0 1 0 0)" d="M64.74075 68.94055L227.0459 68.94055L227.0459 68.94055L227.0459 210.7498L227.0459 210.7498L64.74075 210.7498z" /></clipPath><clipPath id="23"><path id="" clip-rule="evenodd" transform="matrix(1 0 0 1 0 0)" d="M0 -0.249939L595.5 -0.249939L595.5 -0.249939L595.5 842.0001L595.5 842.0001L0 842.0001z" /></clipPath><clipPath id="24"><path id="" clip-rule="evenodd" transform="matrix(1 0 0 1 0 0)" d="M0 -0.249939L595.5 -0.249939L595.5 -0.249939L595.5 842.0001L595.5 842.0001L0 842.0001z" /></clipPath><clipPath id="25"><path id="" clip-rule="evenodd" transform="matrix(1 0 0 1 0 0)" d="M40.911 409.9655L159.923 409.9655L159.923 409.9655L159.923 500.912L159.923 500.912L40.911 500.912z" /></clipPath><clipPath id="26"><path id="" clip-rule="evenodd" transform="matrix(1 0 0 1 0 0)" d="M53.661 409.9655C 46.6185 409.9655 40.911 415.673 40.911 422.7155L40.911 422.7155L40.911 488.1606C 40.911 495.203 46.6185 500.9106 53.661 500.9106L53.661 500.9106L147.216 500.9106C 153.906 500.9106 159.3885 495.7655 159.921 489.218L159.921 489.218L159.921 421.6581C 159.3885 415.1105 153.906 409.9655 147.216 409.9655L147.216 409.9655L53.661 409.9655z" /></clipPath><clipPath id="27"><path id="" clip-rule="evenodd" transform="matrix(1 0 0 1 0 0)" d="M40.911 409.9655L159.923 409.9655L159.923 409.9655L159.923 500.912L159.923 500.912L40.911 500.912z" /></clipPath><clipPath id="28"><path id="" clip-rule="evenodd" transform="matrix(1 0 0 1 0 0)" d="M0 -0.249939L595.5 -0.249939L595.5 -0.249939L595.5 842.0001L595.5 842.0001L0 842.0001z" /></clipPath><clipPath id="29"><path id="" clip-rule="evenodd" transform="matrix(1 0 0 1 0 0)" d="M0 -0.249939L595.5 -0.249939L595.5 -0.249939L595.5 842.0001L595.5 842.0001L0 842.0001z" /></clipPath><clipPath id="30"><path id="" clip-rule="evenodd" transform="matrix(1 0 0 1 0 0)" d="M174.5655 409.9655L265.512 409.9655L265.512 409.9655L265.512 500.912L265.512 500.912L174.5655 500.912z" /></clipPath><clipPath id="31"><path id="" clip-rule="evenodd" transform="matrix(1 0 0 1 0 0)" d="M187.3155 409.9655C 180.273 409.9655 174.5655 415.673 174.5655 422.7155L174.5655 422.7155L174.5655 488.1606C 174.5655 495.203 180.273 500.9106 187.3155 500.9106L187.3155 500.9106L252.7605 500.9106C 259.803 500.9106 265.5105 495.203 265.5105 488.1606L265.5105 488.1606L265.5105 422.7155C 265.5105 415.673 259.803 409.9655 252.7605 409.9655L252.7605 409.9655L187.3155 409.9655z" /></clipPath><clipPath id="32"><path id="" clip-rule="evenodd" transform="matrix(1 0 0 1 0 0)" d="M174.5655 409.9655L265.512 409.9655L265.512 409.9655L265.512 500.912L265.512 500.912L174.5655 500.912z" /></clipPath><clipPath id="33"><path id="" clip-rule="evenodd" transform="matrix(1 0 0 1 0 0)" d="M0 -0.249939L595.5 -0.249939L595.5 -0.249939L595.5 842.0001L595.5 842.0001L0 842.0001z" /></clipPath><clipPath id="34"><path id="" clip-rule="evenodd" transform="matrix(1 0 0 1 0 0)" d="M0 -0.249939L595.5 -0.249939L595.5 -0.249939L595.5 842.0001L595.5 842.0001L0 842.0001z" /></clipPath><clipPath id="35"><path id="" clip-rule="evenodd" transform="matrix(1 0 0 1 0 0)" d="M40.911 514.3521L131.8575 514.3521L131.8575 514.3521L131.8575 605.2986L131.8575 605.2986L40.911 605.2986z" /></clipPath><clipPath id="36"><path id="" clip-rule="evenodd" transform="matrix(1 0 0 1 0 0)" d="M53.661 514.3521C 46.6185 514.3521 40.911 520.0596 40.911 527.1021L40.911 527.1021L40.911 592.5471C 40.911 599.5895 46.6185 605.2971 53.661 605.2971L53.661 605.2971L119.106 605.2971C 126.1485 605.2971 131.856 599.5895 131.856 592.5471L131.856 592.5471L131.856 527.1021C 131.856 520.0596 126.1485 514.3521 119.106 514.3521L119.106 514.3521L53.661 514.3521z" /></clipPath><clipPath id="37"><path id="" clip-rule="evenodd" transform="matrix(1 0 0 1 0 0)" d="M40.911 514.3521L131.8575 514.3521L131.8575 514.3521L131.8575 605.2986L131.8575 605.2986L40.911 605.2986z" /></clipPath><clipPath id="38"><path id="" clip-rule="evenodd" transform="matrix(1 0 0 1 0 0)" d="M0 -0.249939L595.5 -0.249939L595.5 -0.249939L595.5 842.0001L595.5 842.0001L0 842.0001z" /></clipPath><clipPath id="39"><path id="" clip-rule="evenodd" transform="matrix(1 0 0 1 0 0)" d="M0 -0.249939L595.5 -0.249939L595.5 -0.249939L595.5 842.0001L595.5 842.0001L0 842.0001z" /></clipPath><clipPath id="40"><path id="" clip-rule="evenodd" transform="matrix(1 0 0 1 0 0)" d="M162.8865 514.3521L253.833 514.3521L253.833 514.3521L253.833 605.2986L253.833 605.2986L162.8865 605.2986z" /></clipPath><clipPath id="41"><path id="" clip-rule="evenodd" transform="matrix(1 0 0 1 0 0)" d="M175.614 514.3521C 168.579 514.3671 162.8865 520.0671 162.8865 527.1021L162.8865 527.1021L162.8865 592.5471C 162.8865 599.5895 168.594 605.2971 175.6365 605.2971L175.6365 605.2971L241.0815 605.2971C 248.124 605.2971 253.8315 599.5895 253.8315 592.5471L253.8315 592.5471L253.8315 527.1021C 253.8315 520.0671 248.139 514.3671 241.104 514.3521L241.104 514.3521L175.614 514.3521z" /></clipPath><clipPath id="42"><path id="" clip-rule="evenodd" transform="matrix(1 0 0 1 0 0)" d="M162.8865 514.3521L253.833 514.3521L253.833 514.3521L253.833 605.2986L253.833 605.2986L162.8865 605.2986z" /></clipPath><clipPath id="43"><path id="" clip-rule="evenodd" transform="matrix(1 0 0 1 0 0)" d="M0 -0.249939L595.5 -0.249939L595.5 -0.249939L595.5 842.0001L595.5 842.0001L0 842.0001z" /></clipPath><clipPath id="44"><path id="" clip-rule="evenodd" transform="matrix(1 0 0 1 0 0)" d="M0 -0.249939L595.5 -0.249939L595.5 -0.249939L595.5 842.0001L595.5 842.0001L0 842.0001z" /></clipPath><clipPath id="45"><path id="" clip-rule="evenodd" transform="matrix(1 0 0 1 0 0)" d="M86.38425 614.2783L210.0146 614.2783L210.0146 614.2783L210.0146 705.2248L210.0146 705.2248L86.38425 705.2248z" /></clipPath><clipPath id="46"><path id="" clip-rule="evenodd" transform="matrix(1 0 0 1 0 0)" d="M99.13425 614.2783C 92.09175 614.2783 86.38425 619.9858 86.38425 627.0283L86.38425 627.0283L86.38425 692.4733C 86.38425 699.5157 92.09175 705.2233 99.13425 705.2233L99.13425 705.2233L197.2643 705.2233C 204.3067 705.2233 210.0143 699.5157 210.0143 692.4733L210.0143 692.4733L210.0143 627.0283C 210.0143 619.9858 204.3067 614.2783 197.2643 614.2783L197.2643 614.2783L99.13425 614.2783z" /></clipPath><clipPath id="47"><path id="" clip-rule="evenodd" transform="matrix(1 0 0 1 0 0)" d="M86.38425 614.2783L210.0146 614.2783L210.0146 614.2783L210.0146 705.2248L210.0146 705.2248L86.38425 705.2248z" /></clipPath><clipPath id="48"><path id="" clip-rule="evenodd" transform="matrix(1 0 0 1 0 0)" d="M0 -0.249939L595.5 -0.249939L595.5 -0.249939L595.5 842.0001L595.5 842.0001L0 842.0001z" /></clipPath><clipPath id="49"><path id="" clip-rule="evenodd" transform="matrix(1 0 0 1 0 0)" d="M0 -0.249939L595.5 -0.249939L595.5 -0.249939L595.5 842.0001L595.5 842.0001L0 842.0001z" /></clipPath><clipPath id="50"><path id="" clip-rule="evenodd" transform="matrix(1 0 0 1 0 0)" d="M166.9135 648.536L197.3151 648.536L197.3151 648.536L197.3151 658.0366L197.3151 658.0366L166.9135 658.0366z" /></clipPath><clipPath id="51"><path id="" clip-rule="evenodd" transform="matrix(1 0 0 1 0 0)" d="M166.9207 648.546C 167.5207 651.2559 167.6307 653.8759 167.2607 656.4558L167.2607 656.4558L167.2607 656.5158L167.2607 656.5158L167.5807 656.9758C 167.5907 656.9758 167.5907 656.9758 167.6007 656.9758C 169.6907 656.9758 171.6406 657.3258 173.4706 658.0358L173.4706 658.0358L173.8906 657.7158L173.8906 657.7158L173.5506 657.5858C 171.8806 656.9358 170.1307 656.5458 168.3507 656.4558C 171.2306 653.7059 174.7505 651.676 178.5204 650.5059C 180.9704 649.756 183.5503 649.336 186.1202 649.336C 187.6902 649.336 189.2502 649.486 190.7801 649.816C 192.9601 650.286 195.2 651.1959 196.52 653.1259L196.52 653.1259L197.2899 653.4159C 195.82 651.266 193.9 650.2159 191.9201 649.616C 189.9601 649.036 187.8902 648.816 185.8602 648.816C 185.7602 648.816 185.6602 648.816 185.5503 648.816C 181.2304 648.856 176.9305 650.006 173.1206 652.1059C 171.2706 653.1259 169.5507 654.3759 168.0007 655.8259C 168.2307 653.5059 168.0907 651.166 167.5807 648.886L167.5807 648.886L167.3807 648.586L167.3807 648.586L166.9207 648.546z" /></clipPath><clipPath id="52"><path id="" clip-rule="evenodd" transform="matrix(1 0 0 1 0 0)" d="M0 -0.249939L595.5 -0.249939L595.5 -0.249939L595.5 842.0001L595.5 842.0001L0 842.0001z" /></clipPath><clipPath id="53"><path id="" clip-rule="evenodd" transform="matrix(1 0 0 1 0 0)" d="M0 -0.249939L595.5 -0.249939L595.5 -0.249939L595.5 842.0001L595.5 842.0001L0 842.0001z" /></clipPath><clipPath id="54"><path id="" clip-rule="evenodd" transform="matrix(1 0 0 1 0 0)" d="M186.8793 565.4293L210.973 565.4293L210.973 565.4293L210.973 589.9863L210.973 589.9863L186.8793 589.9863z" /></clipPath><clipPath id="55"><path id="" clip-rule="evenodd" transform="matrix(1 0 0 1 0 0)" d="M193.572 565.4593L193.022 565.5293L193.022 565.5293L192.972 565.5693C 191.312 567.5893 189.312 569.2693 186.892 570.6493L186.892 570.6493L187.232 570.9692L187.232 570.9692L187.592 570.9092C 189.622 569.7493 191.452 568.2793 193.012 566.5393C 192.992 568.6592 193.222 570.7793 193.712 572.8393C 194.722 577.0693 196.772 581.0193 199.652 584.2493C 201.072 585.8393 202.702 587.3193 204.532 588.4193C 205.992 589.2993 207.652 589.9293 209.632 589.9293C 210.062 589.9293 210.502 589.8993 210.962 589.8393L210.962 589.8393L210.232 589.4593C 209.942 589.4993 209.662 589.5193 209.382 589.5193C 207.382 589.5193 205.512 588.5793 203.922 587.4393C 200.572 585.0392 197.922 581.6293 196.172 577.9093C 194.492 574.3393 193.622 570.3593 193.712 566.3793C 194.982 567.6393 196.452 568.6693 198.052 569.4692L198.052 569.4692L198.382 569.6293L198.382 569.6293L198.362 569.3693L198.362 569.3693L197.732 568.7793C 196.202 567.9493 194.822 566.8393 193.572 565.4593z" /></clipPath><clipPath id="56"><path id="" clip-rule="evenodd" transform="matrix(1 0 0 1 0 0)" d="M0 -0.249939L595.5 -0.249939L595.5 -0.249939L595.5 842.0001L595.5 842.0001L0 842.0001z" /></clipPath><clipPath id="57"><path id="" clip-rule="evenodd" transform="matrix(1 0 0 1 0 0)" d="M0 -0.249939L595.5 -0.249939L595.5 -0.249939L595.5 842.0001L595.5 842.0001L0 842.0001z" /></clipPath><clipPath id="58"><path id="" clip-rule="evenodd" transform="matrix(1 0 0 1 0 0)" d="M440.7585 254.8138L558.9074 254.8138L558.9074 254.8138L558.9074 388.5934L558.9074 388.5934L440.7585 388.5934z" /></clipPath><clipPath id="59"><path id="" clip-rule="evenodd" transform="matrix(1 0 0 1 0 0)" d="M453.5085 254.8138C 446.466 254.8138 440.7585 260.5213 440.7585 267.5638L440.7585 267.5638L440.7585 375.8338C 440.7585 382.8763 446.466 388.5838 453.5085 388.5838L453.5085 388.5838L545.6985 388.5838C 552.741 388.5838 558.4485 382.8763 558.4485 375.8338L558.4485 375.8338L558.4485 267.5638C 558.4485 260.5213 552.741 254.8138 545.6985 254.8138L545.6985 254.8138L453.5085 254.8138z" /></clipPath><clipPath id="60"><path id="" clip-rule="evenodd" transform="matrix(1 0 0 1 0 0)" d="M440.7585 254.8138L558.4477 254.8138L558.4477 254.8138L558.4477 388.5934L558.4477 388.5934L440.7585 388.5934z" /></clipPath><clipPath id="61"><path id="" clip-rule="evenodd" transform="matrix(1 0 0 1 0 0)" d="M313.1557 539.9938L560.6557 539.9938L560.6557 539.9938L560.6557 826.4938L560.6557 826.4938L313.1557 826.4938z" /></clipPath><clipPath id="62"><path id="" clip-rule="evenodd" transform="matrix(1 0 0 1 0 0)" d="M327.9998 790.7503L556.7497 790.7503L556.7497 790.7503L556.7497 794.5003L556.7497 794.5003L327.9998 794.5003z" /></clipPath><clipPath id="63"><path id="" clip-rule="evenodd" transform="matrix(1 0 0 1 0 0)" d="M0 -0.249939L595.5 -0.249939L595.5 -0.249939L595.5 842.0001L595.5 842.0001L0 842.0001z" /></clipPath><clipPath id="64"><path id="" clip-rule="evenodd" transform="matrix(1 0 0 1 0 0)" d="M0 -0.249939L595.5 -0.249939L595.5 -0.249939L595.5 842.0001L595.5 842.0001L0 842.0001z" /></clipPath><clipPath id="65"><path id="" clip-rule="evenodd" transform="matrix(1 0 0 1 0 0)" d="M328.1595 640.0528L544.6832 640.0528L544.6832 640.0528L544.6832 778.9753L544.6832 778.9753L328.1595 778.9753z" /></clipPath><clipPath id="66"><path id="" clip-rule="evenodd" transform="matrix(1 0 0 1 0 0)" d="M340.9095 640.0528C 337.527 640.0528 334.287 641.3953 331.8945 643.7878C 329.502 646.1803 328.1595 649.4203 328.1595 652.8028L328.1595 652.8028L328.1595 766.2253C 328.1595 769.6078 329.502 772.8478 331.8945 775.2403C 334.287 777.6328 337.512 778.9678 340.887 778.9753L340.887 778.9753L531.7094 778.9753C 535.0844 778.9678 538.317 777.6253 540.702 775.2403C 543.0869 772.8553 544.437 769.6078 544.437 766.2253L544.437 766.2253L544.437 652.8028C 544.437 649.4203 543.0945 646.1803 540.702 643.7878C 538.3094 641.3953 535.0695 640.0528 531.687 640.0528L531.687 640.0528L340.9095 640.0528z" /></clipPath><clipPath id="67"><path id="" clip-rule="evenodd" transform="matrix(1 0 0 1 0 0)" d="M328.1595 640.0528L544.6832 640.0528L544.6832 640.0528L544.6832 778.9753L544.6832 778.9753L328.1595 778.9753z" /></clipPath><clipPath id="68"><path id="" clip-rule="evenodd" transform="matrix(1 0 0 1 0 0)" d="M0 -0.249939L595.5 -0.249939L595.5 -0.249939L595.5 842.0001L595.5 842.0001L0 842.0001z" /></clipPath><clipPath id="69"><path id="" clip-rule="evenodd" transform="matrix(1 0 0 1 0 0)" d="M493.1609 10.02655L580.1608 10.02655L580.1608 10.02655L580.1608 59.52655L580.1608 59.52655L493.1609 59.52655z" /></clipPath><clipPath id="70"><path id="" clip-rule="evenodd" transform="matrix(1 0 0 1 0 0)" d="M0 -0.249939L595.5 -0.249939L595.5 -0.249939L595.5 842.0001L595.5 842.0001L0 842.0001z" /></clipPath><clipPath id="71"><path id="" clip-rule="evenodd" transform="matrix(1 0 0 1 0 0)" d="M0 -0.249939L595.5 -0.249939L595.5 -0.249939L595.5 842.0001L595.5 842.0001L0 842.0001z" /></clipPath><clipPath id="72"><path id="" clip-rule="evenodd" transform="matrix(1 0 0 1 0 0)" d="M41.58401 327.6127L71.58401 327.6127L71.58401 327.6127L71.58401 352.3627L71.58401 352.3627L41.58401 352.3627z" /></clipPath><clipPath id="73"><path id="" clip-rule="evenodd" transform="matrix(1 0 0 1 0 0)" d="M41.58401 339.9793C 41.58401 346.8092 47.12075 352.346 53.95065 352.346L53.95065 352.346L58.99785 352.346C 65.82775 352.346 71.36449 346.8092 71.36449 339.9793C 71.36449 333.1494 65.82775 327.6127 58.99785 327.6127L58.99785 327.6127L53.95065 327.6127C 47.12075 327.6127 41.58401 333.1494 41.58401 339.9793z" /></clipPath><clipPath id="74"><path id="" clip-rule="evenodd" transform="matrix(1 0 0 1 0 0)" d="M42.33401 328.3627L70.83401 328.3627L70.83401 328.3627L70.83401 351.6127L70.83401 351.6127L42.33401 351.6127z" /></clipPath><clipPath id="75"><path id="" clip-rule="evenodd" transform="matrix(1 0 0 1 0 0)" d="M53.95065 328.5127L58.99785 328.5127C 65.3307 328.5127 70.46449 333.6465 70.46449 339.9793C 70.46449 346.3122 65.3307 351.446 58.99785 351.446L58.99785 351.446L53.95065 351.446C 47.6178 351.446 42.48401 346.3122 42.48401 339.9793C 42.48401 333.6465 47.6178 328.5127 53.95065 328.5127z" /></clipPath><clipPath id="76"><path id="" clip-rule="evenodd" transform="matrix(1 0 0 1 0 0)" d="M42.33401 328.0891L70.83401 328.0891L70.83401 328.0891L70.83401 352.0891L70.83401 352.0891L42.33401 352.0891z" /></clipPath><clipPath id="77"><path id="" clip-rule="evenodd" transform="matrix(1 0 0 1 0 0)" d="M41.58958 325.1113L71.58958 325.1113L71.58958 325.1113L71.58958 355.1113L71.58958 355.1113L41.58958 355.1113z" /></clipPath><clipPath id="78"><path id="" clip-rule="evenodd" transform="matrix(1 0 0 1 0 0)" d="M0 -0.249939L595.5 -0.249939L595.5 -0.249939L595.5 842.0001L595.5 842.0001L0 842.0001z" /></clipPath><clipPath id="79"><path id="" clip-rule="evenodd" transform="matrix(1 0 0 1 0 0)" d="M0 -0.249939L595.5 -0.249939L595.5 -0.249939L595.5 842.0001L595.5 842.0001L0 842.0001z" /></clipPath><clipPath id="80"><path id="" clip-rule="evenodd" transform="matrix(1 0 0 1 0 0)" d="M41.58401 327.6127L71.58401 327.6127L71.58401 327.6127L71.58401 352.3627L71.58401 352.3627L41.58401 352.3627z" /></clipPath><clipPath id="81"><path id="" clip-rule="evenodd" transform="matrix(1 0 0 1 0 0)" d="M41.58401 339.9793C 41.58401 346.8092 47.12075 352.346 53.95065 352.346L53.95065 352.346L58.99785 352.346C 65.82775 352.346 71.36449 346.8092 71.36449 339.9793C 71.36449 333.1494 65.82775 327.6127 58.99785 327.6127L58.99785 327.6127L53.95065 327.6127C 47.12075 327.6127 41.58401 333.1494 41.58401 339.9793z" /></clipPath><clipPath id="82"><path id="" clip-rule="evenodd" transform="matrix(1 0 0 1 0 0)" d="M41.58401 327.6127L71.58401 327.6127L71.58401 327.6127L71.58401 352.3627L71.58401 352.3627L41.58401 352.3627z" /></clipPath><clipPath id="83"><path id="" clip-rule="evenodd" transform="matrix(1 0 0 1 0 0)" d="M41.58401 327.6127L71.58085 327.6127L71.58085 327.6127L71.58085 352.3559L71.58085 352.3559L41.58401 352.3559z" /></clipPath><clipPath id="84"><path id="" clip-rule="evenodd" transform="matrix(1 0 0 1 0 0)" d="M41.58401 339.976C 41.58401 346.804 47.12016 352.3392 53.94935 352.3392L53.94935 352.3392L58.99601 352.3392C 65.8252 352.3392 71.36136 346.804 71.36136 339.976C 71.36136 333.1479 65.8252 327.6127 58.99601 327.6127L58.99601 327.6127L53.94935 327.6127C 47.12016 327.6127 41.58401 333.1479 41.58401 339.976z" /></clipPath><clipPath id="85"><path id="" clip-rule="evenodd" transform="matrix(1 0 0 1 0 0)" d="M0 -0.249939L595.5 -0.249939L595.5 -0.249939L595.5 842.0001L595.5 842.0001L0 842.0001z" /></clipPath><clipPath id="86"><path id="" clip-rule="evenodd" transform="matrix(1 0 0 1 0 0)" d="M0 -0.249939L595.5 -0.249939L595.5 -0.249939L595.5 842.0001L595.5 842.0001L0 842.0001z" /></clipPath><clipPath id="87"><path id="" clip-rule="evenodd" transform="matrix(1 0 0 1 0 0)" d="M0 -0.249939L595.5 -0.249939L595.5 -0.249939L595.5 842.0001L595.5 842.0001L0 842.0001z" /></clipPath><clipPath id="88"><path id="" clip-rule="evenodd" transform="matrix(1 0 0 1 0 0)" d="M319.548 131.636L349.548 131.636L349.548 131.636L349.548 156.386L349.548 156.386L319.548 156.386z" /></clipPath><clipPath id="89"><path id="" clip-rule="evenodd" transform="matrix(1 0 0 1 0 0)" d="M319.548 144.0027C 319.548 150.8326 325.0847 156.3693 331.9146 156.3693L331.9146 156.3693L336.9618 156.3693C 343.7917 156.3693 349.3285 150.8326 349.3285 144.0027C 349.3285 137.1728 343.7917 131.636 336.9618 131.636L336.9618 131.636L331.9146 131.636C 325.0847 131.636 319.548 137.1728 319.548 144.0027z" /></clipPath><clipPath id="90"><path id="" clip-rule="evenodd" transform="matrix(1 0 0 1 0 0)" d="M320.298 132.386L348.798 132.386L348.798 132.386L348.798 155.636L348.798 155.636L320.298 155.636z" /></clipPath><clipPath id="91"><path id="" clip-rule="evenodd" transform="matrix(1 0 0 1 0 0)" d="M331.9146 132.5361L336.9618 132.5361C 343.2947 132.5361 348.4285 137.6699 348.4285 144.0027C 348.4285 150.3356 343.2947 155.4694 336.9618 155.4694L336.9618 155.4694L331.9146 155.4694C 325.5818 155.4694 320.448 150.3356 320.448 144.0027C 320.448 137.6699 325.5818 132.5361 331.9146 132.5361z" /></clipPath><clipPath id="92"><path id="" clip-rule="evenodd" transform="matrix(1 0 0 1 0 0)" d="M320.298 132.1124L348.798 132.1124L348.798 132.1124L348.798 156.1124L348.798 156.1124L320.298 156.1124z" /></clipPath><clipPath id="93"><path id="" clip-rule="evenodd" transform="matrix(1 0 0 1 0 0)" d="M319.5536 129.1347L349.5536 129.1347L349.5536 129.1347L349.5536 159.1347L349.5536 159.1347L319.5536 159.1347z" /></clipPath><clipPath id="94"><path id="" clip-rule="evenodd" transform="matrix(1 0 0 1 0 0)" d="M0 -0.249939L595.5 -0.249939L595.5 -0.249939L595.5 842.0001L595.5 842.0001L0 842.0001z" /></clipPath><clipPath id="95"><path id="" clip-rule="evenodd" transform="matrix(1 0 0 1 0 0)" d="M0 -0.249939L595.5 -0.249939L595.5 -0.249939L595.5 842.0001L595.5 842.0001L0 842.0001z" /></clipPath><clipPath id="96"><path id="" clip-rule="evenodd" transform="matrix(1 0 0 1 0 0)" d="M319.548 131.636L349.548 131.636L349.548 131.636L349.548 156.386L349.548 156.386L319.548 156.386z" /></clipPath><clipPath id="97"><path id="" clip-rule="evenodd" transform="matrix(1 0 0 1 0 0)" d="M319.548 144.0027C 319.548 150.8326 325.0847 156.3693 331.9146 156.3693L331.9146 156.3693L336.9618 156.3693C 343.7917 156.3693 349.3285 150.8326 349.3285 144.0027C 349.3285 137.1728 343.7917 131.636 336.9618 131.636L336.9618 131.636L331.9146 131.636C 325.0847 131.636 319.548 137.1728 319.548 144.0027z" /></clipPath><clipPath id="98"><path id="" clip-rule="evenodd" transform="matrix(1 0 0 1 0 0)" d="M319.548 131.636L349.548 131.636L349.548 131.636L349.548 156.386L349.548 156.386L319.548 156.386z" /></clipPath><clipPath id="99"><path id="" clip-rule="evenodd" transform="matrix(1 0 0 1 0 0)" d="M319.548 131.636L349.5448 131.636L349.5448 131.636L349.5448 156.3793L349.5448 156.3793L319.548 156.3793z" /></clipPath><clipPath id="100"><path id="" clip-rule="evenodd" transform="matrix(1 0 0 1 0 0)" d="M319.548 143.9993C 319.548 150.8274 325.0841 156.3626 331.9133 156.3626L331.9133 156.3626L336.96 156.3626C 343.7892 156.3626 349.3253 150.8274 349.3253 143.9993C 349.3253 137.1713 343.7892 131.636 336.96 131.636L336.96 131.636L331.9133 131.636C 325.0841 131.636 319.548 137.1713 319.548 143.9993z" /></clipPath><clipPath id="101"><path id="" clip-rule="evenodd" transform="matrix(1 0 0 1 0 0)" d="M0 -0.249939L595.5 -0.249939L595.5 -0.249939L595.5 842.0001L595.5 842.0001L0 842.0001z" /></clipPath><clipPath id="102"><path id="" clip-rule="evenodd" transform="matrix(1 0 0 1 0 0)" d="M0 -0.249939L595.5 -0.249939L595.5 -0.249939L595.5 842.0001L595.5 842.0001L0 842.0001z" /></clipPath><clipPath id="103"><path id="" clip-rule="evenodd" transform="matrix(1 0 0 1 0 0)" d="M0 -0.249939L595.5 -0.249939L595.5 -0.249939L595.5 842.0001L595.5 842.0001L0 842.0001z" /></clipPath><clipPath id="104"><path id="" clip-rule="evenodd" transform="matrix(1 0 0 1 0 0)" d="M29.74708 6.391174L59.74707 6.391174L59.74707 6.391174L59.74707 31.14117L59.74707 31.14117L29.74708 31.14117z" /></clipPath><clipPath id="105"><path id="" clip-rule="evenodd" transform="matrix(1 0 0 1 0 0)" d="M29.74708 18.75781C 29.74708 25.58771 35.28381 31.12445 42.11372 31.12445L42.11372 31.12445L47.16092 31.12445C 53.99082 31.12445 59.52755 25.58771 59.52755 18.75781C 59.52755 11.92792 53.99082 6.391174 47.16092 6.391174L47.16092 6.391174L42.11372 6.391174C 35.28381 6.391174 29.74708 11.92792 29.74708 18.75781z" /></clipPath><clipPath id="106"><path id="" clip-rule="evenodd" transform="matrix(1 0 0 1 0 0)" d="M30.49708 7.141174L58.99707 7.141174L58.99707 7.141174L58.99707 30.39117L58.99707 30.39117L30.49708 30.39117z" /></clipPath><clipPath id="107"><path id="" clip-rule="evenodd" transform="matrix(1 0 0 1 0 0)" d="M42.11372 7.291199L47.16092 7.291199C 53.49376 7.291199 58.62756 12.42499 58.62756 18.75781C 58.62756 25.0907 53.49376 30.22449 47.16092 30.22449L47.16092 30.22449L42.11372 30.22449C 35.78086 30.22449 30.64708 25.0907 30.64708 18.75781C 30.64708 12.42499 35.78086 7.291199 42.11372 7.291199z" /></clipPath><clipPath id="108"><path id="" clip-rule="evenodd" transform="matrix(1 0 0 1 0 0)" d="M30.49708 6.867554L58.99707 6.867554L58.99707 6.867554L58.99707 30.86755L58.99707 30.86755L30.49708 30.86755z" /></clipPath><clipPath id="109"><path id="" clip-rule="evenodd" transform="matrix(1 0 0 1 0 0)" d="M29.75264 3.889832L59.75264 3.889832L59.75264 3.889832L59.75264 33.88983L59.75264 33.88983L29.75264 33.88983z" /></clipPath><clipPath id="110"><path id="" clip-rule="evenodd" transform="matrix(1 0 0 1 0 0)" d="M0 -0.249939L595.5 -0.249939L595.5 -0.249939L595.5 842.0001L595.5 842.0001L0 842.0001z" /></clipPath><clipPath id="111"><path id="" clip-rule="evenodd" transform="matrix(1 0 0 1 0 0)" d="M0 -0.249939L595.5 -0.249939L595.5 -0.249939L595.5 842.0001L595.5 842.0001L0 842.0001z" /></clipPath><clipPath id="112"><path id="" clip-rule="evenodd" transform="matrix(1 0 0 1 0 0)" d="M29.74708 6.391174L59.74707 6.391174L59.74707 6.391174L59.74707 31.14117L59.74707 31.14117L29.74708 31.14117z" /></clipPath><clipPath id="113"><path id="" clip-rule="evenodd" transform="matrix(1 0 0 1 0 0)" d="M29.74708 18.75781C 29.74708 25.58771 35.28381 31.12445 42.11372 31.12445L42.11372 31.12445L47.16092 31.12445C 53.99082 31.12445 59.52755 25.58771 59.52755 18.75781C 59.52755 11.92792 53.99082 6.391174 47.16092 6.391174L47.16092 6.391174L42.11372 6.391174C 35.28381 6.391174 29.74708 11.92792 29.74708 18.75781z" /></clipPath><clipPath id="114"><path id="" clip-rule="evenodd" transform="matrix(1 0 0 1 0 0)" d="M29.74708 6.391174L59.74707 6.391174L59.74707 6.391174L59.74707 31.14117L59.74707 31.14117L29.74708 31.14117z" /></clipPath><clipPath id="115"><path id="" clip-rule="evenodd" transform="matrix(1 0 0 1 0 0)" d="M29.74708 6.391174L59.74392 6.391174L59.74392 6.391174L59.74392 31.13446L59.74392 31.13446L29.74708 31.13446z" /></clipPath><clipPath id="116"><path id="" clip-rule="evenodd" transform="matrix(1 0 0 1 0 0)" d="M29.74708 18.75446C 29.74708 25.58252 35.28323 31.11774 42.11242 31.11774L42.11242 31.11774L47.15908 31.11774C 53.98827 31.11774 59.52442 25.58252 59.52442 18.75446C 59.52442 11.92639 53.98827 6.391174 47.15908 6.391174L47.15908 6.391174L42.11242 6.391174C 35.28323 6.391174 29.74708 11.92639 29.74708 18.75446z" /></clipPath><clipPath id="117"><path id="" clip-rule="evenodd" transform="matrix(1 0 0 1 0 0)" d="M0 -0.249939L595.5 -0.249939L595.5 -0.249939L595.5 842.0001L595.5 842.0001L0 842.0001z" /></clipPath><clipPath id="118"><path id="" clip-rule="evenodd" transform="matrix(1 0 0 1 0 0)" d="M0 -0.249939L595.5 -0.249939L595.5 -0.249939L595.5 842.0001L595.5 842.0001L0 842.0001z" /></clipPath><clipPath id="119"><path id="" clip-rule="evenodd" transform="matrix(1 0 0 1 0 0)" d="M0 -0.249939L595.5 -0.249939L595.5 -0.249939L595.5 842.0001L595.5 842.0001L0 842.0001z" /></clipPath><clipPath id="120"><path id="" clip-rule="evenodd" transform="matrix(1 0 0 1 0 0)" d="M331.7287 547.4586L361.7287 547.4586L361.7287 547.4586L361.7287 572.2086L361.7287 572.2086L331.7287 572.2086z" /></clipPath><clipPath id="121"><path id="" clip-rule="evenodd" transform="matrix(1 0 0 1 0 0)" d="M331.7287 559.8253C 331.7287 566.6552 337.2655 572.192 344.0954 572.192L344.0954 572.192L349.1426 572.192C 355.9725 572.192 361.5092 566.6552 361.5092 559.8253C 361.5092 552.9954 355.9725 547.4586 349.1426 547.4586L349.1426 547.4586L344.0954 547.4586C 337.2655 547.4586 331.7287 552.9954 331.7287 559.8253z" /></clipPath><clipPath id="122"><path id="" clip-rule="evenodd" transform="matrix(1 0 0 1 0 0)" d="M332.4787 548.2086L360.9787 548.2086L360.9787 548.2086L360.9787 571.4586L360.9787 571.4586L332.4787 571.4586z" /></clipPath><clipPath id="123"><path id="" clip-rule="evenodd" transform="matrix(1 0 0 1 0 0)" d="M344.0954 548.3586L349.1426 548.3586C 355.4754 548.3586 360.6092 553.4924 360.6092 559.8253C 360.6092 566.1581 355.4754 571.2919 349.1426 571.2919L349.1426 571.2919L344.0954 571.2919C 337.7625 571.2919 332.6288 566.1581 332.6288 559.8253C 332.6288 553.4924 337.7625 548.3586 344.0954 548.3586z" /></clipPath><clipPath id="124"><path id="" clip-rule="evenodd" transform="matrix(1 0 0 1 0 0)" d="M332.4787 547.935L360.9787 547.935L360.9787 547.935L360.9787 571.935L360.9787 571.935L332.4787 571.935z" /></clipPath><clipPath id="125"><path id="" clip-rule="evenodd" transform="matrix(1 0 0 1 0 0)" d="M331.7343 544.9573L361.7343 544.9573L361.7343 544.9573L361.7343 574.9573L361.7343 574.9573L331.7343 574.9573z" /></clipPath><clipPath id="126"><path id="" clip-rule="evenodd" transform="matrix(1 0 0 1 0 0)" d="M0 -0.249939L595.5 -0.249939L595.5 -0.249939L595.5 842.0001L595.5 842.0001L0 842.0001z" /></clipPath><clipPath id="127"><path id="" clip-rule="evenodd" transform="matrix(1 0 0 1 0 0)" d="M0 -0.249939L595.5 -0.249939L595.5 -0.249939L595.5 842.0001L595.5 842.0001L0 842.0001z" /></clipPath><clipPath id="128"><path id="" clip-rule="evenodd" transform="matrix(1 0 0 1 0 0)" d="M331.7287 547.4586L361.7287 547.4586L361.7287 547.4586L361.7287 572.2086L361.7287 572.2086L331.7287 572.2086z" /></clipPath><clipPath id="129"><path id="" clip-rule="evenodd" transform="matrix(1 0 0 1 0 0)" d="M331.7287 559.8253C 331.7287 566.6552 337.2655 572.192 344.0954 572.192L344.0954 572.192L349.1426 572.192C 355.9725 572.192 361.5092 566.6552 361.5092 559.8253C 361.5092 552.9954 355.9725 547.4586 349.1426 547.4586L349.1426 547.4586L344.0954 547.4586C 337.2655 547.4586 331.7287 552.9954 331.7287 559.8253z" /></clipPath><clipPath id="130"><path id="" clip-rule="evenodd" transform="matrix(1 0 0 1 0 0)" d="M331.7287 547.4586L361.7287 547.4586L361.7287 547.4586L361.7287 572.2086L361.7287 572.2086L331.7287 572.2086z" /></clipPath><clipPath id="131"><path id="" clip-rule="evenodd" transform="matrix(1 0 0 1 0 0)" d="M331.7287 547.4586L361.7256 547.4586L361.7256 547.4586L361.7256 572.2019L361.7256 572.2019L331.7287 572.2019z" /></clipPath><clipPath id="132"><path id="" clip-rule="evenodd" transform="matrix(1 0 0 1 0 0)" d="M331.7287 559.8219C 331.7287 566.65 337.2649 572.1852 344.0941 572.1852L344.0941 572.1852L349.1407 572.1852C 355.9699 572.1852 361.5061 566.65 361.5061 559.8219C 361.5061 552.9939 355.9699 547.4586 349.1407 547.4586L349.1407 547.4586L344.0941 547.4586C 337.2649 547.4586 331.7287 552.9939 331.7287 559.8219z" /></clipPath><clipPath id="133"><path id="" clip-rule="evenodd" transform="matrix(1 0 0 1 0 0)" d="M0 -0.249939L595.5 -0.249939L595.5 -0.249939L595.5 842.0001L595.5 842.0001L0 842.0001z" /></clipPath><clipPath id="134"><path id="" clip-rule="evenodd" transform="matrix(1 0 0 1 0 0)" d="M0 -0.249939L595.5 -0.249939L595.5 -0.249939L595.5 842.0001L595.5 842.0001L0 842.0001z" /></clipPath><clipPath id="135"><path id="" clip-rule="evenodd" transform="matrix(1 0 0 1 0 0)" d="M0 -0.249939L595.5 -0.249939L595.5 -0.249939L595.5 842.0001L595.5 842.0001L0 842.0001z" /></clipPath><clipPath id="136"><path id="" clip-rule="evenodd" transform="matrix(1 0 0 1 0 0)" d="M442.4996 16.8512L474.7496 16.8512L474.7496 16.8512L474.7496 49.1012L474.7496 49.1012L442.4996 49.1012z" /></clipPath><clipPath id="137"><path id="" clip-rule="evenodd" transform="matrix(1 0 0 1 0 0)" d="M442.4996 32.74542L442.4996 32.74805C 442.4996 36.96344 444.1742 41.00623 447.155 43.987C 450.1357 46.96771 454.1785 48.64233 458.3939 48.64233C 462.6093 48.64233 466.6521 46.96771 469.6328 43.987C 472.6136 41.00623 474.2881 36.96344 474.2881 32.74805L474.2881 32.74805L474.2881 32.74542C 474.2881 28.53003 472.6136 24.48724 469.6328 21.50647C 466.6521 18.52576 462.6093 16.8512 458.3939 16.8512C 454.1785 16.8512 450.1357 18.52576 447.155 21.50647C 444.1742 24.48724 442.4996 28.53003 442.4996 32.74542z" /></clipPath><clipPath id="138"><path id="" clip-rule="evenodd" transform="matrix(1 0 0 1 0 0)" d="M443.2496 17.6012L473.9996 17.6012L473.9996 17.6012L473.9996 48.3512L473.9996 48.3512L443.2496 48.3512z" /></clipPath><clipPath id="139"><path id="" clip-rule="evenodd" transform="matrix(1 0 0 1 0 0)" d="M458.3939 17.75116C 462.3706 17.75116 466.1844 19.33093 468.9964 22.14288C 471.8084 24.95483 473.3882 28.76874 473.3882 32.74542L473.3882 32.74542L473.3882 32.74805C 473.3882 36.72479 471.8084 40.53864 468.9964 43.35059C 466.1844 46.16254 462.3706 47.74231 458.3939 47.74231C 454.4172 47.74231 450.6033 46.16254 447.7914 43.35059C 444.9794 40.53864 443.3996 36.72479 443.3996 32.74805L443.3996 32.74805L443.3996 32.74542C 443.3996 28.76874 444.9794 24.95483 447.7914 22.14288C 450.6033 19.33093 454.4172 17.75116 458.3939 17.75116z" /></clipPath><clipPath id="140"><path id="" clip-rule="evenodd" transform="matrix(1 0 0 1 0 0)" d="M443.2484 17.6012L473.9984 17.6012L473.9984 17.6012L473.9984 48.3512L473.9984 48.3512L443.2484 48.3512z" /></clipPath><clipPath id="141"><path id="" clip-rule="evenodd" transform="matrix(1 0 0 1 0 0)" d="M442.4916 16.84448L473.9916 16.84448L473.9916 16.84448L473.9916 48.34448L473.9916 48.34448L442.4916 48.34448z" /></clipPath><clipPath id="142"><path id="" clip-rule="evenodd" transform="matrix(1 0 0 1 0 0)" d="M0 -0.249939L595.5 -0.249939L595.5 -0.249939L595.5 842.0001L595.5 842.0001L0 842.0001z" /></clipPath><clipPath id="143"><path id="" clip-rule="evenodd" transform="matrix(1 0 0 1 0 0)" d="M0 -0.249939L595.5 -0.249939L595.5 -0.249939L595.5 842.0001L595.5 842.0001L0 842.0001z" /></clipPath><clipPath id="144"><path id="" clip-rule="evenodd" transform="matrix(1 0 0 1 0 0)" d="M442.4996 16.8512L474.7496 16.8512L474.7496 16.8512L474.7496 49.1012L474.7496 49.1012L442.4996 49.1012z" /></clipPath><clipPath id="145"><path id="" clip-rule="evenodd" transform="matrix(1 0 0 1 0 0)" d="M442.4996 32.74542L442.4996 32.74805C 442.4996 36.96344 444.1742 41.00623 447.155 43.987C 450.1357 46.96771 454.1785 48.64233 458.3939 48.64233C 462.6093 48.64233 466.6521 46.96771 469.6328 43.987C 472.6136 41.00623 474.2881 36.96344 474.2881 32.74805L474.2881 32.74805L474.2881 32.74542C 474.2881 28.53003 472.6136 24.48724 469.6328 21.50647C 466.6521 18.52576 462.6093 16.8512 458.3939 16.8512C 454.1785 16.8512 450.1357 18.52576 447.155 21.50647C 444.1742 24.48724 442.4996 28.53003 442.4996 32.74542z" /></clipPath><clipPath id="146"><path id="" clip-rule="evenodd" transform="matrix(1 0 0 1 0 0)" d="M442.4996 16.8512L473.9996 16.8512L473.9996 16.8512L473.9996 48.3512L473.9996 48.3512L442.4996 48.3512z" /></clipPath><clipPath id="147"><path id="" clip-rule="evenodd" transform="matrix(1 0 0 1 0 0)" d="M442.4996 16.8512L474.7422 16.8512L474.7422 16.8512L474.7422 49.09113L474.7422 49.09113L442.4996 49.09113z" /></clipPath><clipPath id="148"><path id="" clip-rule="evenodd" transform="matrix(1 0 0 1 0 0)" d="M442.4996 32.74048L442.4996 32.7431C 442.4996 36.95721 444.1738 40.99872 447.1539 43.97858C 450.134 46.95837 454.1758 48.63245 458.3903 48.63245C 462.6047 48.63245 466.6466 46.95837 469.6266 43.97858C 472.6067 40.99872 474.2809 36.95721 474.2809 32.7431L474.2809 32.7431L474.2809 32.74048C 474.2809 28.52637 472.6067 24.48486 469.6266 21.50507C 466.6466 18.52521 462.6047 16.8512 458.3903 16.8512C 454.1758 16.8512 450.134 18.52521 447.1539 21.50507C 444.1738 24.48486 442.4996 28.52637 442.4996 32.74048z" /></clipPath><clipPath id="149"><path id="" clip-rule="evenodd" transform="matrix(1 0 0 1 0 0)" d="M0 -0.249939L595.5 -0.249939L595.5 -0.249939L595.5 842.0001L595.5 842.0001L0 842.0001z" /></clipPath></defs><g transform="matrix(1.333333 0 0 1.333333 0 0)"><g clip-path="url(#1)"><g clip-path="url(#2)"><path id="1" transform="matrix(1 0 0 -1 0 842)" d="M0 842.2499L595.4999 842.2499L595.4999 -6.103516E-05L0 -6.103516E-05z" stroke="none" fill="#FFFFFF" fill-rule="nonzero" /></g><g clip-path="url(#3)"><path id="2" transform="matrix(1 0 0 -1 0 842)" d="M0 842.2499L595.4999 842.2499L595.4999 -6.103516E-05L0 -6.103516E-05z" stroke="none" fill="#FFFFFF" fill-rule="nonzero" /></g><g clip-path="url(#4)"><g><g clip-path="url(#5)"><g clip-path="url(#6)"><g transform="matrix(0 0.5128205 -0.5127462 0 522.0178 30.75189)"><g transform="matrix(1 0 0 1 0 0)"><image x="0" y="0" xlink:href="img_01.png" width="1521" height="863" /></g></g></g></g></g></g><g clip-path="url(#7)"><g transform="matrix(0.2400582 0 0 0.2400173 29.445 321.4768)"><g transform="matrix(1 0 0 1 0 0)"><image x="0" y="0" xlink:href="img_02.png" width="1031" height="1728" /></g></g></g><g clip-path="url(#8)"><g transform="matrix(0.2405536 0 0 0.2405551 297.6375 119.7253)"><g transform="matrix(1 0 0 1 0 0)"><image x="0" y="0" xlink:href="img_03.png" width="1138" height="1297" /></g></g></g><g clip-path="url(#9)"><g transform="matrix(0.9989082 0 0 0.9374999 318.9997 406.7503)"><g transform="matrix(1 0 0 1 0 0)"><image x="0" y="0" xlink:href="img_04.png" width="229" height="4" /></g></g></g><g clip-path="url(#10)"><g transform="matrix(1.001087 0 0 0.9374999 36 714.7498)"><g transform="matrix(1 0 0 1 0 0)"><image x="0" y="0" xlink:href="img_05.png" width="230" height="4" /></g></g></g><g clip-path="url(#11)"><g clip-path="url(#12)"><g clip-path="url(#13)"><g clip-path="url(#14)"><g clip-path="url(#15)"><g transform="matrix(0.636966 0 0 0.6336561 289.467 206.2783)"><g transform="matrix(1 0 0 1 0 0)"><image x="0" y="0" xlink:href="img_06.png" width="245" height="211" /></g></g></g></g></g></g></g><g clip-path="url(#16)"><g transform="matrix(0.2406877 0 0 0.2406621 20.898 -0.9046631)"><g transform="matrix(1 0 0 1 0 0)"><image x="0" y="0" xlink:href="img_07.png" width="1047" height="1178" /></g></g></g><g clip-path="url(#17)"><g transform="matrix(0.9989082 0 0 0.9374999 27.99975 234.7498)"><g transform="matrix(1 0 0 1 0 0)"><image x="0" y="0" xlink:href="img_08.png" width="229" height="4" /></g></g></g><g clip-path="url(#18)"><g clip-path="url(#19)"><g clip-path="url(#20)"><g clip-path="url(#21)"><g clip-path="url(#22)"><g transform="matrix(0.5989119 0 0 0.6001042 64.74075 67.83282)"><g transform="matrix(1 0 0 1 0 0)"><image x="0" y="0" xlink:href="img_09.png" width="271" height="240" /></g></g></g></g></g></g></g><g clip-path="url(#23)"><g clip-path="url(#24)"><g clip-path="url(#25)"><g clip-path="url(#26)"><g clip-path="url(#27)"><g transform="matrix(0.6268195 0 0 0.6272172 40.51274 409.9656)"><g transform="matrix(1 0 0 1 0 0)"><image x="0" y="0" xlink:href="img_10.png" width="191" height="145" /></g></g></g></g></g></g></g><g clip-path="url(#28)"><g clip-path="url(#29)"><g clip-path="url(#30)"><g clip-path="url(#31)"><g clip-path="url(#32)"><g transform="matrix(0.6086784 0 0 0.6103792 174.4275 409.9656)"><g transform="matrix(1 0 0 1 0 0)"><image x="0" y="0" xlink:href="img_11.png" width="150" height="149" /></g></g></g></g></g></g></g><g clip-path="url(#33)"><g clip-path="url(#34)"><g clip-path="url(#35)"><g clip-path="url(#36)"><g clip-path="url(#37)"><g transform="matrix(0.6404682 0 0 0.6414412 40.911 513.5811)"><g transform="matrix(1 0 0 1 0 0)"><image x="0" y="0" xlink:href="img_12.png" width="142" height="144" /></g></g></g></g></g></g></g><g clip-path="url(#38)"><g clip-path="url(#39)"><g clip-path="url(#40)"><g clip-path="url(#41)"><g clip-path="url(#42)"><g transform="matrix(0.622858 0 0 0.6229212 160.485 514.3521)"><g transform="matrix(1 0 0 1 0 0)"><image x="0" y="0" xlink:href="img_13.png" width="154" height="146" /></g></g></g></g></g></g></g><g clip-path="url(#43)"><g clip-path="url(#44)"><g clip-path="url(#45)"><g clip-path="url(#46)"><g clip-path="url(#47)"><g transform="matrix(0.5543965 0 0 0.5564309 86.38425 613.595)"><g transform="matrix(1 0 0 1 0 0)"><image x="0" y="0" xlink:href="img_14.png" width="223" height="166" /></g></g></g></g></g></g></g><g clip-path="url(#48)"><g clip-path="url(#49)"><g clip-path="url(#50)"><g clip-path="url(#51)"><path id="17" transform="matrix(1 0 0 -1 0 842)" d="M166.9507 193.464L197.0915 193.464L197.0915 183.9262L166.9507 183.9262z" stroke="none" fill="#000000" fill-rule="nonzero" /></g></g></g></g><g clip-path="url(#52)"><g clip-path="url(#53)"><g clip-path="url(#54)"><g clip-path="url(#55)"><path id="18" transform="matrix(1 0 0 -1 0 842)" d="M186.972 276.5707L210.695 276.5707L210.695 252.0137L186.972 252.0137z" stroke="none" fill="#000000" fill-rule="nonzero" /></g></g></g></g><g clip-path="url(#56)"><g clip-path="url(#57)"><g clip-path="url(#58)"><g clip-path="url(#59)"><g clip-path="url(#60)"><g transform="matrix(0.6318575 0 0 0.6310358 430.4872 254.8138)"><g transform="matrix(1 0 0 1 0 0)"><image x="0" y="0" xlink:href="img_15.png" width="219" height="212" /></g></g></g></g></g></g></g><g clip-path="url(#61)"><g transform="matrix(0.2400582 0 0 0.2399497 313.1557 539.9938)"><g transform="matrix(1 0 0 1 0 0)"><image x="0" y="0" xlink:href="img_16.png" width="1031" height="1194" /></g></g></g><g clip-path="url(#62)"><g transform="matrix(0.9989082 0 0 0.9374999 327.9997 790.7503)"><g transform="matrix(1 0 0 1 0 0)"><image x="0" y="0" xlink:href="img_17.png" width="229" height="4" /></g></g></g><g clip-path="url(#63)"><g clip-path="url(#64)"><g clip-path="url(#65)"><g clip-path="url(#66)"><g clip-path="url(#67)"><g transform="matrix(0.5941384 0 0 0.5936859 326.6092 640.0529)"><g transform="matrix(1 0 0 1 0 0)"><image x="0" y="0" xlink:href="img_18.png" width="369" height="234" /></g></g></g></g></g></g></g><g clip-path="url(#68)"></g><g clip-path="url(#69)"><g transform="matrix(0.05719921 0 0 0.05735804 493.1608 10.02655)"><g transform="matrix(1 0 0 1 0 0)"><image x="0" y="0" xlink:href="img_19.png" width="1521" height="863" /></g></g></g><g clip-path="url(#70)"><g clip-path="url(#71)"><g clip-path="url(#72)"><g clip-path="url(#73)"><g clip-path="url(#74)"><g clip-path="url(#75)"><g clip-path="url(#76)"><g clip-path="url(#77)"><path id="569" transform="matrix(1 0 0 -1 0 842)" d="M56.58957 516.6669C 48.43933 516.6669 41.81125 510.0388 41.81125 501.8886C 41.81125 493.7384 48.43933 487.1103 56.58957 487.1103C 64.73981 487.1103 71.3679 493.7384 71.3679 501.8886C 71.3679 510.0388 64.73981 516.6669 56.58957 516.6669zM56.58957 486.8886C 48.3211 486.8886 41.58957 493.6201 41.58957 501.8886C 41.58957 510.1571 48.3211 516.8886 56.58957 516.8886C 64.85805 516.8886 71.58957 510.1571 71.58957 501.8886C 71.58957 493.6201 64.85805 486.8886 56.58957 486.8886z" stroke="none" fill="#000000" fill-rule="nonzero" /></g></g></g></g></g></g></g></g><g clip-path="url(#78)"><g clip-path="url(#79)"><g clip-path="url(#80)"><g clip-path="url(#81)"><g clip-path="url(#82)"><g clip-path="url(#83)"><g clip-path="url(#84)"><path id="570" transform="matrix(1 0 0 -1 0 842)" d="M41.58401 502.024C 41.58401 495.196 47.12016 489.6608 53.94935 489.6608L53.94935 489.6608L58.99601 489.6608C 65.8252 489.6608 71.36135 495.196 71.36135 502.024C 71.36135 508.8521 65.8252 514.3873 58.99601 514.3873L58.99601 514.3873L53.94935 514.3873C 47.12016 514.3873 41.58401 508.8521 41.58401 502.024z" stroke="#000000" stroke-width="1.5" fill="none" /></g></g></g></g></g></g></g><g clip-path="url(#85)"></g><g clip-path="url(#86)"><g clip-path="url(#87)"><g clip-path="url(#88)"><g clip-path="url(#89)"><g clip-path="url(#90)"><g clip-path="url(#91)"><g clip-path="url(#92)"><g clip-path="url(#93)"><path id="572" transform="matrix(1 0 0 -1 0 842)" d="M334.5535 712.6436C 326.4033 712.6436 319.7752 706.0155 319.7752 697.8652C 319.7752 689.715 326.4033 683.0869 334.5535 683.0869C 342.7038 683.0869 349.3318 689.715 349.3318 697.8652C 349.3318 706.0155 342.7038 712.6436 334.5535 712.6436zM334.5535 682.8652C 326.2851 682.8652 319.5535 689.5967 319.5535 697.8652C 319.5535 706.1337 326.2851 712.8652 334.5535 712.8652C 342.822 712.8652 349.5535 706.1337 349.5535 697.8652C 349.5535 689.5967 342.822 682.8652 334.5535 682.8652z" stroke="none" fill="#000000" fill-rule="nonzero" /></g></g></g></g></g></g></g></g><g clip-path="url(#94)"><g clip-path="url(#95)"><g clip-path="url(#96)"><g clip-path="url(#97)"><g clip-path="url(#98)"><g clip-path="url(#99)"><g clip-path="url(#100)"><path id="573" transform="matrix(1 0 0 -1 0 842)" d="M319.548 698.0006C 319.548 691.1725 325.0841 685.6373 331.9133 685.6373L331.9133 685.6373L336.96 685.6373C 343.7892 685.6373 349.3253 691.1725 349.3253 698.0006C 349.3253 704.8287 343.7892 710.3639 336.96 710.3639L336.96 710.3639L331.9133 710.3639C 325.0841 710.3639 319.548 704.8287 319.548 698.0006z" stroke="#000000" stroke-width="1.5" fill="none" /></g></g></g></g></g></g></g><g clip-path="url(#101)"></g><g clip-path="url(#102)"><g clip-path="url(#103)"><g clip-path="url(#104)"><g clip-path="url(#105)"><g clip-path="url(#106)"><g clip-path="url(#107)"><g clip-path="url(#108)"><g clip-path="url(#109)"><path id="575" transform="matrix(1 0 0 -1 0 842)" d="M44.75264 837.8884C 36.60239 837.8884 29.97432 831.2604 29.97432 823.1101C 29.97432 814.9598 36.60239 808.3318 44.75264 808.3318C 52.90289 808.3318 59.53096 814.9598 59.53096 823.1101C 59.53096 831.2604 52.90289 837.8884 44.75264 837.8884zM44.75264 808.1101C 36.48417 808.1101 29.75264 814.8416 29.75264 823.1101C 29.75264 831.3786 36.48417 838.1101 44.75264 838.1101C 53.02111 838.1101 59.75264 831.3786 59.75264 823.1101C 59.75264 814.8416 53.02111 808.1101 44.75264 808.1101z" stroke="none" fill="#000000" fill-rule="nonzero" /></g></g></g></g></g></g></g></g><g clip-path="url(#110)"><g clip-path="url(#111)"><g clip-path="url(#112)"><g clip-path="url(#113)"><g clip-path="url(#114)"><g clip-path="url(#115)"><g clip-path="url(#116)"><path id="576" transform="matrix(1 0 0 -1 0 842)" d="M29.74707 823.2455C 29.74707 816.4175 35.28323 810.8823 42.11242 810.8823L42.11242 810.8823L47.15907 810.8823C 53.98827 810.8823 59.52441 816.4175 59.52441 823.2455C 59.52441 830.0736 53.98827 835.6088 47.15907 835.6088L47.15907 835.6088L42.11242 835.6088C 35.28323 835.6088 29.74707 830.0736 29.74707 823.2455z" stroke="#000000" stroke-width="1.5" fill="none" /></g></g></g></g></g></g></g><g clip-path="url(#117)"></g><g clip-path="url(#118)"><g clip-path="url(#119)"><g clip-path="url(#120)"><g clip-path="url(#121)"><g clip-path="url(#122)"><g clip-path="url(#123)"><g clip-path="url(#124)"><g clip-path="url(#125)"><path id="578" transform="matrix(1 0 0 -1 0 842)" d="M346.7343 296.821C 338.584 296.821 331.956 290.1929 331.956 282.0427C 331.956 273.8925 338.584 267.2644 346.7343 267.2644C 354.8845 267.2644 361.5126 273.8925 361.5126 282.0427C 361.5126 290.1929 354.8845 296.821 346.7343 296.821zM346.7343 267.0427C 338.4658 267.0427 331.7343 273.7742 331.7343 282.0427C 331.7343 290.3112 338.4658 297.0427 346.7343 297.0427C 355.0027 297.0427 361.7343 290.3112 361.7343 282.0427C 361.7343 273.7742 355.0027 267.0427 346.7343 267.0427z" stroke="none" fill="#000000" fill-rule="nonzero" /></g></g></g></g></g></g></g></g><g clip-path="url(#126)"><g clip-path="url(#127)"><g clip-path="url(#128)"><g clip-path="url(#129)"><g clip-path="url(#130)"><g clip-path="url(#131)"><g clip-path="url(#132)"><path id="579" transform="matrix(1 0 0 -1 0 842)" d="M331.7287 282.1781C 331.7287 275.35 337.2649 269.8148 344.0941 269.8148L344.0941 269.8148L349.1407 269.8148C 355.9699 269.8148 361.5061 275.35 361.5061 282.1781C 361.5061 289.0061 355.9699 294.5414 349.1407 294.5414L349.1407 294.5414L344.0941 294.5414C 337.2649 294.5414 331.7287 289.0061 331.7287 282.1781z" stroke="#000000" stroke-width="1.5" fill="none" /></g></g></g></g></g></g></g><g clip-path="url(#133)"></g><g clip-path="url(#134)"><g clip-path="url(#135)"><g clip-path="url(#136)"><g clip-path="url(#137)"><g clip-path="url(#138)"><g clip-path="url(#139)"><g clip-path="url(#140)"><g clip-path="url(#141)"><path id="581" transform="matrix(1 0 0 -1 0 842)" d="M458.2416 824.9227C 449.6839 824.9227 442.7244 817.9633 442.7244 809.4055C 442.7244 800.8478 449.6839 793.8883 458.2416 793.8883C 466.7994 793.8883 473.7589 800.8478 473.7589 809.4055C 473.7589 817.9633 466.7994 824.9227 458.2416 824.9227zM458.2416 793.6555C 449.5598 793.6555 442.4916 800.7236 442.4916 809.4055C 442.4916 818.0874 449.5598 825.1555 458.2416 825.1555C 466.9235 825.1555 473.9916 818.0874 473.9916 809.4055C 473.9916 800.7236 466.9235 793.6555 458.2416 793.6555z" stroke="none" fill="#000000" fill-rule="nonzero" /></g></g></g></g></g></g></g></g><g clip-path="url(#142)"><g clip-path="url(#143)"><g clip-path="url(#144)"><g clip-path="url(#145)"><g clip-path="url(#146)"><g clip-path="url(#147)"><g clip-path="url(#148)"><path id="582" transform="matrix(1 0 0 -1 0 842)" d="M442.4996 809.2595L442.4996 809.2569C 442.4996 805.0428 444.1738 801.0013 447.1539 798.0214C 450.134 795.0416 454.1758 793.3676 458.3903 793.3676C 462.6047 793.3676 466.6465 795.0416 469.6266 798.0214C 472.6067 801.0013 474.2809 805.0428 474.2809 809.2569L474.2809 809.2569L474.2809 809.2595C 474.2809 813.4736 472.6067 817.5151 469.6266 820.4949C 466.6465 823.4747 462.6047 825.1488 458.3903 825.1488C 454.1758 825.1488 450.134 823.4747 447.1539 820.4949C 444.1738 817.5151 442.4996 813.4736 442.4996 809.2595z" stroke="#000000" stroke-width="1.5" fill="none" /></g></g></g></g></g></g></g><g clip-path="url(#149)"></g></g></g></svg>