<svg xmlns="http://www.w3.org/2000/svg" xmlns:xlink="http://www.w3.org/1999/xlink" id="body_1" preserveAspectRatio="xMinYMin meet" viewBox="0 0 793 1123"><defs><clipPath id="1"><path id="" clip-rule="evenodd" transform="matrix(1 0 0 1 0 0)" d="M0 842L0 -0.250061L0 -0.250061L595.5 -0.250061L595.5 -0.250061L595.5 842L595.5 842L0 842z" /></clipPath><clipPath id="2"><path id="" clip-rule="evenodd" transform="matrix(1 0 0 1 0 0)" d="M0 -0.25L595.5 -0.25L595.5 -0.25L595.5 842.0012L595.5 842.0012L0 842.0012z" /></clipPath><clipPath id="3"><path id="" clip-rule="evenodd" transform="matrix(1 0 0 1 0 0)" d="M0 -0.25L595.5 -0.25L595.5 -0.25L595.5 842.0012L595.5 842.0012L0 842.0012z" /></clipPath><clipPath id="4"><path id="" clip-rule="evenodd" transform="matrix(1 0 0 1 0 0)" d="M0 -0.25L595.68 -0.25L595.68 -0.25L595.68 842.15L595.68 842.15L0 842.15z" /></clipPath><clipPath id="5"><path id="" clip-rule="evenodd" transform="matrix(1 0 0 1 0 0)" d="M0 -0.25L595.5 -0.25L595.5 -0.25L595.5 842.0012L595.5 842.0012L0 842.0012z" /></clipPath><clipPath id="6"><path id="" clip-rule="evenodd" transform="matrix(1 0 0 1 0 0)" d="M75.59999 30.71002L519.12 30.71002L519.12 30.71002L519.12 810.95L519.12 810.95L75.59999 810.95z" /></clipPath><clipPath id="7"><path id="" clip-rule="evenodd" transform="matrix(1 0 0 1 0 0)" d="M76.4271 30.75177L518.9271 30.75177L518.9271 30.75177L518.9271 810.7518L518.9271 810.7518L76.4271 810.7518z" /></clipPath><clipPath id="8"><path id="" clip-rule="evenodd" transform="matrix(1 0 0 1 0 0)" d="M7.92 204.71L585.84 204.71L585.84 204.71L585.84 492.47L585.84 492.47L7.92 492.47z" /></clipPath><clipPath id="9"><path id="" clip-rule="evenodd" transform="matrix(1 0 0 1 0 0)" d="M22.10801 218.8455L573.1768 218.8455L573.1768 218.8455L573.1768 480.0927L573.1768 480.0927L22.10801 480.0927z" /></clipPath><clipPath id="10"><path id="" clip-rule="evenodd" transform="matrix(1 0 0 1 0 0)" d="M51.35808 218.8455L543.9168 218.8455C 551.676 218.8455 559.116 221.9272 564.6 227.4126C 570.0864 232.898 573.168 240.3378 573.168 248.0955L573.168 248.0955L573.168 450.8444C 573.168 458.6012 570.0864 466.0412 564.6 471.5252C 559.116 477.0116 551.676 480.0932 543.9168 480.0932L543.9168 480.0932L51.35808 480.0932C 43.60032 480.0932 36.16056 477.0116 30.67512 471.5252C 25.18968 466.0412 22.10801 458.6012 22.10801 450.8444L22.10801 450.8444L22.10801 248.0955C 22.10801 240.3378 25.18968 232.898 30.67512 227.4126C 36.16056 221.9272 43.60032 218.8455 51.35808 218.8455z" /></clipPath><clipPath id="11"><path id="" clip-rule="evenodd" transform="matrix(1 0 0 1 0 0)" d="M22.10801 218.8455L573.3591 218.8455L573.3591 218.8455L573.3591 479.8455L573.3591 479.8455L22.10801 479.8455z" /></clipPath><clipPath id="12"><path id="" clip-rule="evenodd" transform="matrix(1 0 0 1 0 0)" d="M22.10801 218.8467L574.5904 218.8467L574.5904 218.8467L574.5904 481.1355L574.5904 481.1355L22.10801 481.1355z" /></clipPath><clipPath id="13"><path id="" clip-rule="evenodd" transform="matrix(1 0 0 1 0 0)" d="M51.3576 218.8467L543.9096 218.8467C 551.6664 218.8467 559.1064 221.9283 564.5928 227.4137C 570.0768 232.899 573.1583 240.3387 573.1583 248.0963L573.1583 248.0963L573.1583 450.8396C 573.1583 458.5988 570.0768 466.0388 564.5928 471.5228C 559.1064 477.0092 551.6664 480.0908 543.9096 480.0908L543.9096 480.0908L51.3576 480.0908C 43.60008 480.0908 36.16032 477.0092 30.67498 471.5228C 25.18963 466.0388 22.10801 458.5988 22.10801 450.8396L22.10801 450.8396L22.10801 248.0963C 22.10801 240.3387 25.18963 232.899 30.67498 227.4137C 36.16032 221.9283 43.60008 218.8467 51.3576 218.8467z" /></clipPath><clipPath id="14"><path id="" clip-rule="evenodd" transform="matrix(1 0 0 1 0 0)" d="M0 -0.25L595.5 -0.25L595.5 -0.25L595.5 842.0012L595.5 842.0012L0 842.0012z" /></clipPath><clipPath id="15"><path id="" clip-rule="evenodd" transform="matrix(1 0 0 1 0 0)" d="M0 -0.25L595.5 -0.25L595.5 -0.25L595.5 842.0012L595.5 842.0012L0 842.0012z" /></clipPath><clipPath id="16"><path id="" clip-rule="evenodd" transform="matrix(1 0 0 1 0 0)" d="M35.53608 230.4594L279.9568 230.4594L279.9568 230.4594L279.9568 267.2446L279.9568 267.2446L35.53608 267.2446z" /></clipPath><clipPath id="17"><path id="" clip-rule="evenodd" transform="matrix(1 0 0 1 0 0)" d="M53.92872 230.4594L261.4824 230.4594C 266.3592 230.4594 271.0368 232.3971 274.488 235.8464C 277.9368 239.2957 279.8736 243.974 279.8736 248.8508C 279.8736 253.73 277.9368 258.4076 274.488 261.8564C 271.0368 265.3076 266.3592 267.2444 261.4824 267.2444L261.4824 267.2444L53.92872 267.2444C 49.05072 267.2444 44.3724 265.3076 40.92312 261.8564C 37.47384 258.4076 35.53608 253.73 35.53608 248.8508C 35.53608 243.974 37.47384 239.2957 40.92312 235.8464C 44.3724 232.3971 49.05072 230.4594 53.92872 230.4594z" /></clipPath><clipPath id="18"><path id="" clip-rule="evenodd" transform="matrix(1 0 0 1 0 0)" d="M0 -0.25L595.5 -0.25L595.5 -0.25L595.5 842.0012L595.5 842.0012L0 842.0012z" /></clipPath><clipPath id="19"><path id="" clip-rule="evenodd" transform="matrix(1 0 0 1 0 0)" d="M35.52 280.55L197.04 280.55L197.04 280.55L197.04 314.15L197.04 314.15L35.52 314.15z" /></clipPath><clipPath id="20"><path id="" clip-rule="evenodd" transform="matrix(1 0 0 1 0 0)" d="M35.53602 280.7447L196.9958 280.7447L196.9958 280.7447L196.9958 314.0514L196.9958 314.0514L35.53602 314.0514z" /></clipPath><clipPath id="21"><path id="" clip-rule="evenodd" transform="matrix(1 0 0 1 0 0)" d="M52.18941 280.7447L180.3254 280.7447C 189.5227 280.7447 196.9788 288.2007 196.9788 297.3981C 196.9788 306.5956 189.5227 314.0514 180.3254 314.0514L180.3254 314.0514L52.18941 314.0514C 42.99199 314.0514 35.53602 306.5956 35.53602 297.3981C 35.53602 288.2007 42.99199 280.7447 52.18941 280.7447z" /></clipPath><clipPath id="22"><path id="" clip-rule="evenodd" transform="matrix(1 0 0 1 0 0)" d="M306 280.55L529.2 280.55L529.2 280.55L529.2 312.9501L529.2 312.9501L306 312.9501z" /></clipPath><clipPath id="23"><path id="" clip-rule="evenodd" transform="matrix(1 0 0 1 0 0)" d="M306.0686 280.7447L529.1133 280.7447L529.1133 280.7447L529.1133 312.8411L529.1133 312.8411L306.0686 312.8411z" /></clipPath><clipPath id="24"><path id="" clip-rule="evenodd" transform="matrix(1 0 0 1 0 0)" d="M322.1168 280.7447L512.9592 280.7447C 517.2156 280.7447 521.2975 282.4355 524.3071 285.4451C 527.3167 288.4547 529.0074 292.5366 529.0074 296.7929C 529.0074 301.0491 527.3167 305.1311 524.3071 308.1407C 521.2975 311.1503 517.2156 312.8411 512.9592 312.8411L512.9592 312.8411L322.1168 312.8411C 317.8605 312.8411 313.7786 311.1503 310.769 308.1407C 307.7594 305.1311 306.0686 301.0491 306.0686 296.7929C 306.0686 292.5366 307.7594 288.4547 310.769 285.4451C 313.7786 282.4355 317.8605 280.7447 322.1168 280.7447z" /></clipPath><clipPath id="25"><path id="" clip-rule="evenodd" transform="matrix(1 0 0 1 0 0)" d="M7.92 496.31L585.84 496.31L585.84 496.31L585.84 784.0699L585.84 784.0699L7.92 784.0699z" /></clipPath><clipPath id="26"><path id="" clip-rule="evenodd" transform="matrix(1 0 0 1 0 0)" d="M22.10801 510.3959L573.1768 510.3959L573.1768 510.3959L573.1768 771.6431L573.1768 771.6431L22.10801 771.6431z" /></clipPath><clipPath id="27"><path id="" clip-rule="evenodd" transform="matrix(1 0 0 1 0 0)" d="M51.35808 510.3959L543.9168 510.3959C 551.676 510.3959 559.116 513.4775 564.6 518.963C 570.0864 524.4485 573.168 531.8883 573.168 539.6459L573.168 539.6459L573.168 742.394C 573.168 750.1508 570.0864 757.5908 564.6 763.0772C 559.116 768.5612 551.676 771.6428 543.9168 771.6428L543.9168 771.6428L51.35808 771.6428C 43.60032 771.6428 36.16056 768.5612 30.67512 763.0772C 25.18968 757.5908 22.10801 750.1508 22.10801 742.394L22.10801 742.394L22.10801 539.6459C 22.10801 531.8883 25.18968 524.4485 30.67512 518.963C 36.16056 513.4775 43.60032 510.3959 51.35808 510.3959z" /></clipPath><clipPath id="28"><path id="" clip-rule="evenodd" transform="matrix(1 0 0 1 0 0)" d="M22.10801 510.3959L572.6224 510.3959L572.6224 510.3959L572.6224 772.0271L572.6224 772.0271L22.10801 772.0271z" /></clipPath><clipPath id="29"><path id="" clip-rule="evenodd" transform="matrix(1 0 0 1 0 0)" d="M22.10887 510.3959L574.5817 510.3959L574.5817 510.3959L574.5817 772.6799L574.5817 772.6799L22.10887 772.6799z" /></clipPath><clipPath id="30"><path id="" clip-rule="evenodd" transform="matrix(1 0 0 1 0 0)" d="M51.35784 510.3959L543.9023 510.3959C 551.6592 510.3959 559.0992 513.4774 564.5831 518.9628C 570.0696 524.4481 573.1511 531.8876 573.1511 539.6449L573.1511 539.6449L573.1511 742.3868C 573.1511 750.1436 570.0696 757.5836 564.5831 763.0676C 559.0992 768.554 551.6592 771.6356 543.9023 771.6356L543.9023 771.6356L51.35784 771.6356C 43.60056 771.6356 36.16104 768.554 30.67572 763.0676C 25.19047 757.5836 22.10887 750.1436 22.10887 742.3868L22.10887 742.3868L22.10887 539.6449C 22.10887 531.8876 25.19047 524.4481 30.67572 518.9628C 36.16104 513.4774 43.60056 510.3959 51.35784 510.3959z" /></clipPath><clipPath id="31"><path id="" clip-rule="evenodd" transform="matrix(1 0 0 1 0 0)" d="M0 -0.25L595.5 -0.25L595.5 -0.25L595.5 842.0012L595.5 842.0012L0 842.0012z" /></clipPath><clipPath id="32"><path id="" clip-rule="evenodd" transform="matrix(1 0 0 1 0 0)" d="M0 -0.25L595.5 -0.25L595.5 -0.25L595.5 842.0012L595.5 842.0012L0 842.0012z" /></clipPath><clipPath id="33"><path id="" clip-rule="evenodd" transform="matrix(1 0 0 1 0 0)" d="M31.51536 526.0364L287.5617 526.0364L287.5617 526.0364L287.5617 568.7665L287.5617 568.7665L31.51536 568.7665z" /></clipPath><clipPath id="34"><path id="" clip-rule="evenodd" transform="matrix(1 0 0 1 0 0)" d="M52.88016 526.0364L266.1264 526.0364C 277.9272 526.0364 287.4912 535.6004 287.4912 547.4012C 287.4912 559.1996 277.9272 568.766 266.1264 568.766L266.1264 568.766L52.88016 568.766C 41.0808 568.766 31.51536 559.1996 31.51536 547.4012C 31.51536 535.6004 41.0808 526.0364 52.88016 526.0364z" /></clipPath><clipPath id="35"><path id="" clip-rule="evenodd" transform="matrix(1 0 0 1 0 0)" d="M0 -0.25L595.5 -0.25L595.5 -0.25L595.5 842.0012L595.5 842.0012L0 842.0012z" /></clipPath><clipPath id="36"><path id="" clip-rule="evenodd" transform="matrix(1 0 0 1 0 0)" d="M35.04 587.51L251.52 587.51L251.52 587.51L251.52 621.59L251.52 621.59L35.04 621.59z" /></clipPath><clipPath id="37"><path id="" clip-rule="evenodd" transform="matrix(1 0 0 1 0 0)" d="M35.19694 587.5155L251.5181 587.5155L251.5181 587.5155L251.5181 621.5317L251.5181 621.5317L35.19694 621.5317z" /></clipPath><clipPath id="38"><path id="" clip-rule="evenodd" transform="matrix(1 0 0 1 0 0)" d="M52.20499 587.5155L234.4332 587.5155C 238.944 587.5155 243.27 589.3074 246.4596 592.4971C 249.6492 595.6866 251.4413 600.0127 251.4413 604.5236C 251.4413 609.0344 249.6492 613.3604 246.4596 616.55C 243.27 619.7396 238.944 621.5317 234.4332 621.5317L234.4332 621.5317L52.20499 621.5317C 47.69416 621.5317 43.36812 619.7396 40.17849 616.55C 36.98885 613.3604 35.19694 609.0344 35.19694 604.5236C 35.19694 600.0127 36.98885 595.6866 40.17849 592.4971C 43.36812 589.3074 47.69416 587.5155 52.20499 587.5155z" /></clipPath><clipPath id="39"><path id="" clip-rule="evenodd" transform="matrix(1 0 0 1 0 0)" d="M287.28 588.23L530.16 588.23L530.16 588.23L530.16 621.59L530.16 621.59L287.28 621.59z" /></clipPath><clipPath id="40"><path id="" clip-rule="evenodd" transform="matrix(1 0 0 1 0 0)" d="M287.4922 588.2917L530.1298 588.2917L530.1298 588.2917L530.1298 621.5085L530.1298 621.5085L287.4922 621.5085z" /></clipPath><clipPath id="41"><path id="" clip-rule="evenodd" transform="matrix(1 0 0 1 0 0)" d="M304.1006 588.2917L513.4797 588.2917C 517.8845 588.2917 522.1089 590.0416 525.2236 593.1563C 528.3384 596.2709 530.088 600.4954 530.088 604.9001C 530.088 609.305 528.3384 613.5294 525.2236 616.644C 522.1089 619.7588 517.8845 621.5087 513.4797 621.5087L513.4797 621.5087L304.1006 621.5087C 299.6958 621.5087 295.4713 619.7588 292.3567 616.644C 289.242 613.5294 287.4922 609.305 287.4922 604.9001C 287.4922 600.4954 289.242 596.2709 292.3567 593.1563C 295.4713 590.0416 299.6958 588.2917 304.1006 588.2917z" /></clipPath><clipPath id="42"><path id="" clip-rule="evenodd" transform="matrix(1 0 0 1 0 0)" d="M489.6168 18.18408L581.8668 18.18408L581.8668 18.18408L581.8668 70.68408L581.8668 70.68408L489.6168 70.68408z" /></clipPath></defs><g transform="matrix(1.333333 0 0 1.333333 0 0)"><g clip-path="url(#1)"><g clip-path="url(#2)"><path id="1" transform="matrix(1 0 0 -1 0 842)" d="M0 842.25L595.4999 842.25L595.4999 0L0 0z" stroke="none" fill="#FFFFFF" fill-rule="nonzero" /></g><g clip-path="url(#3)"><path id="2" transform="matrix(1 0 0 -1 0 842)" d="M0 842.25L595.4999 842.25L595.4999 0L0 0z" stroke="none" fill="#FFFFFF" fill-rule="nonzero" /><g><g clip-path="url(#4)"><g transform="matrix(0.9295319 0 0 0.9558346 -446.1624 -9.249939)"><g transform="matrix(1 0 0 1 0 0)"><image x="0" y="0" xlink:href="img_01.png" width="1600" height="900" /></g></g></g></g></g><g clip-path="url(#5)"><g><g clip-path="url(#6)"><g clip-path="url(#7)"><g transform="matrix(0 0.5128205 -0.5127462 0 518.9271 30.75183)"><g transform="matrix(1 0 0 1 0 0)"><image x="0" y="0" xlink:href="img_02.png" width="1521" height="863" /></g></g></g></g></g><g><g clip-path="url(#8)"><g clip-path="url(#9)"><g clip-path="url(#10)"><path id="28" transform="matrix(1 0 0 -1 0 842)" d="M22.10801 623.1545L573.1776 623.1545L573.1776 361.9067L22.10801 361.9067z" stroke="none" fill="#8CD5FF" fill-rule="nonzero" fill-opacity="0.1764706" /></g></g><g clip-path="url(#11)"><g clip-path="url(#12)"><g clip-path="url(#13)"><path id="29" transform="matrix(1 0 0 -1 0 842)" d="M51.35755 623.1533L543.9092 623.1533C 551.6665 623.1533 559.1065 620.0716 564.592 614.5862C 570.0775 609.1009 573.1585 601.6612 573.1585 593.9037L573.1585 593.9037L573.1585 391.1595C 573.1585 383.4015 570.0775 375.9622 564.592 370.4767C 559.1065 364.9913 551.6665 361.9095 543.9092 361.9095L543.9092 361.9095L51.35755 361.9095C 43.60008 361.9095 36.16038 364.9913 30.67503 370.4767C 25.18964 375.9622 22.10801 383.4015 22.10801 391.1595L22.10801 391.1595L22.10801 593.9037C 22.10801 601.6612 25.18964 609.1009 30.67503 614.5862C 36.16038 620.0716 43.60008 623.1533 51.35755 623.1533z" stroke="#000000" stroke-width="6" fill="none" /></g></g></g></g></g></g><g clip-path="url(#14)"><g clip-path="url(#15)"><g clip-path="url(#16)"><g clip-path="url(#17)"><path id="30" transform="matrix(1 0 0 -1 0 842)" d="M35.53608 611.5406L279.8138 611.5406L279.8138 574.7552L35.53608 574.7552z" stroke="none" fill="#3779E3" fill-rule="nonzero" /></g></g></g></g><g clip-path="url(#18)"><g><g clip-path="url(#19)"><g clip-path="url(#20)"><g clip-path="url(#21)"><path id="48" transform="matrix(1 0 0 -1 0 842)" d="M35.53602 561.2552L196.996 561.2552L196.996 527.9484L35.53602 527.9484z" stroke="none" fill="#38B6FF" fill-rule="nonzero" fill-opacity="0.4588235" /></g></g></g></g><path id="62" transform="matrix(1 0 0 -1 0 842)" d="M43.87488 506.7576C 43.87488 506.4592 43.8178 506.1722 43.70358 505.8966C 43.58943 505.6209 43.42683 505.3776 43.21585 505.1666C 43.00488 504.9556 42.76158 504.793 42.48588 504.6789C 42.21025 504.5646 41.92323 504.5076 41.62488 504.5076C 41.32653 504.5076 41.0395 504.5646 40.7638 504.6789C 40.48818 504.793 40.24488 504.9556 40.0339 505.1666C 39.82293 505.3776 39.66033 505.6209 39.54618 505.8966C 39.43195 506.1722 39.37488 506.4592 39.37488 506.7576C 39.37488 507.0559 39.43195 507.343 39.54618 507.6187C 39.66033 507.8943 39.82293 508.1376 40.0339 508.3485C 40.24488 508.5595 40.48818 508.7221 40.7638 508.8363C 41.0395 508.9505 41.32653 509.0076 41.62488 509.0076C 41.92323 509.0076 42.21025 508.9505 42.48588 508.8363C 42.76158 508.7221 43.00488 508.5595 43.21585 508.3485C 43.42683 508.1376 43.58943 507.8943 43.70358 507.6187C 43.8178 507.343 43.87488 507.0559 43.87488 506.7576z" stroke="none" fill="#000000" fill-rule="nonzero" /><path id="122" transform="matrix(1 0 0 -1 0 842)" d="M43.87488 448.2576C 43.87488 447.9592 43.8178 447.6722 43.70358 447.3966C 43.58943 447.1208 43.42683 446.8776 43.21585 446.6666C 43.00488 446.4556 42.76158 446.293 42.48588 446.1789C 42.21025 446.0646 41.92323 446.0076 41.62488 446.0076C 41.32653 446.0076 41.0395 446.0646 40.7638 446.1789C 40.48818 446.293 40.24488 446.4556 40.0339 446.6666C 39.82293 446.8776 39.66033 447.1208 39.54618 447.3966C 39.43195 447.6722 39.37488 447.9592 39.37488 448.2576C 39.37488 448.5559 39.43195 448.843 39.54618 449.1187C 39.66033 449.3943 39.82293 449.6376 40.0339 449.8485C 40.24488 450.0595 40.48818 450.2221 40.7638 450.3363C 41.0395 450.4505 41.32653 450.5076 41.62488 450.5076C 41.92323 450.5076 42.21025 450.4505 42.48588 450.3363C 42.76158 450.2221 43.00488 450.0595 43.21585 449.8485C 43.42683 449.6376 43.58943 449.3943 43.70358 449.1187C 43.8178 448.843 43.87488 448.5559 43.87488 448.2576z" stroke="none" fill="#000000" fill-rule="nonzero" /><path id="160" transform="matrix(1 0 0 -1 0 842)" d="M43.87488 409.2576C 43.87488 408.9591 43.8178 408.6718 43.70358 408.3966C 43.58943 408.1205 43.42683 407.8776 43.21585 407.6668C 43.00488 407.4553 42.76158 407.2933 42.48588 407.1786C 42.21025 407.0646 41.92323 407.0076 41.62488 407.0076C 41.32653 407.0076 41.0395 407.0646 40.7638 407.1786C 40.48818 407.2933 40.24488 407.4553 40.0339 407.6668C 39.82293 407.8776 39.66033 408.1205 39.54618 408.3966C 39.43195 408.6718 39.37488 408.9591 39.37488 409.2576C 39.37488 409.5561 39.43195 409.8433 39.54618 410.1186C 39.66033 410.3946 39.82293 410.6376 40.0339 410.8483C 40.24488 411.0598 40.48818 411.2218 40.7638 411.3366C 41.0395 411.4506 41.32653 411.5076 41.62488 411.5076C 41.92323 411.5076 42.21025 411.4506 42.48588 411.3366C 42.76158 411.2218 43.00488 411.0598 43.21585 410.8483C 43.42683 410.6376 43.58943 410.3946 43.70358 410.1186C 43.8178 409.8433 43.87488 409.5561 43.87488 409.2576z" stroke="none" fill="#000000" fill-rule="nonzero" /><path id="182" transform="matrix(1 0 0 -1 0 842)" d="M43.87488 389.7576C 43.87488 389.4591 43.8178 389.1726 43.70358 388.8966C 43.58943 388.6205 43.42683 388.3776 43.21585 388.1668C 43.00488 387.9553 42.76158 387.7933 42.48588 387.6786C 42.21025 387.5646 41.92323 387.5076 41.62488 387.5076C 41.32653 387.5076 41.0395 387.5646 40.7638 387.6786C 40.48818 387.7933 40.24488 387.9553 40.0339 388.1668C 39.82293 388.3776 39.66033 388.6205 39.54618 388.8966C 39.43195 389.1726 39.37488 389.4591 39.37488 389.7576C 39.37488 390.0561 39.43195 390.3433 39.54618 390.6186C 39.66033 390.8946 39.82293 391.1376 40.0339 391.3483C 40.24488 391.5598 40.48818 391.7218 40.7638 391.8366C 41.0395 391.9506 41.32653 392.0076 41.62488 392.0076C 41.92323 392.0076 42.21025 391.9506 42.48588 391.8366C 42.76158 391.7218 43.00488 391.5598 43.21585 391.3483C 43.42683 391.1376 43.58943 390.8946 43.70358 390.6186C 43.8178 390.3433 43.87488 390.0561 43.87488 389.7576z" stroke="none" fill="#000000" fill-rule="nonzero" /><g><g clip-path="url(#22)"><g clip-path="url(#23)"><g clip-path="url(#24)"><path id="202" transform="matrix(1 0 0 -1 0 842)" d="M306.0686 561.2552L528.9879 561.2552L528.9879 529.1589L306.0686 529.1589z" stroke="none" fill="#38B6FF" fill-rule="nonzero" fill-opacity="0.4784314" /></g></g></g></g><path id="223" transform="matrix(1 0 0 -1 0 842)" d="M321.9396 513.0096C 321.9396 512.7112 321.8825 512.4242 321.7683 512.1486C 321.6541 511.8729 321.4915 511.6296 321.2805 511.4186C 321.0696 511.2076 320.8263 511.045 320.5506 510.9309C 320.275 510.8167 319.9879 510.7596 319.6896 510.7596C 319.3912 510.7596 319.1042 510.8167 318.8285 510.9309C 318.5529 511.045 318.3096 511.2076 318.0986 511.4186C 317.8876 511.6296 317.725 511.8729 317.6109 512.1486C 317.4966 512.4242 317.4396 512.7112 317.4396 513.0096C 317.4396 513.3079 317.4966 513.595 317.6109 513.8707C 317.725 514.1463 317.8876 514.3896 318.0986 514.6006C 318.3096 514.8115 318.5529 514.9741 318.8285 515.0883C 319.1042 515.2025 319.3912 515.2596 319.6896 515.2596C 319.9879 515.2596 320.275 515.2025 320.5506 515.0883C 320.8263 514.9741 321.0696 514.8115 321.2805 514.6006C 321.4915 514.3896 321.6541 514.1463 321.7683 513.8707C 321.8825 513.595 321.9396 513.3079 321.9396 513.0096z" stroke="none" fill="#000000" fill-rule="nonzero" /><path id="244" transform="matrix(1 0 0 -1 0 842)" d="M321.9396 493.5096C 321.9396 493.2112 321.8825 492.9242 321.7683 492.6486C 321.6541 492.3729 321.4915 492.1296 321.2805 491.9186C 321.0696 491.7076 320.8263 491.545 320.5506 491.4309C 320.275 491.3167 319.9879 491.2596 319.6896 491.2596C 319.3912 491.2596 319.1042 491.3167 318.8285 491.4309C 318.5529 491.545 318.3096 491.7076 318.0986 491.9186C 317.8876 492.1296 317.725 492.3729 317.6109 492.6486C 317.4966 492.9242 317.4396 493.2112 317.4396 493.5096C 317.4396 493.8079 317.4966 494.095 317.6109 494.3707C 317.725 494.6463 317.8876 494.8896 318.0986 495.1006C 318.3096 495.3115 318.5529 495.4741 318.8285 495.5883C 319.1042 495.7025 319.3912 495.7596 319.6896 495.7596C 319.9879 495.7596 320.275 495.7025 320.5506 495.5883C 320.8263 495.4741 321.0696 495.3115 321.2805 495.1006C 321.4915 494.8896 321.6541 494.6463 321.7683 494.3707C 321.8825 494.095 321.9396 493.8079 321.9396 493.5096z" stroke="none" fill="#000000" fill-rule="nonzero" /><path id="274" transform="matrix(1 0 0 -1 0 842)" d="M321.9396 454.5096C 321.9396 454.2112 321.8825 453.9242 321.7683 453.6486C 321.6541 453.3729 321.4915 453.1296 321.2805 452.9186C 321.0696 452.7076 320.8263 452.545 320.5506 452.4309C 320.275 452.3167 319.9879 452.2596 319.6896 452.2596C 319.3912 452.2596 319.1042 452.3167 318.8285 452.4309C 318.5529 452.545 318.3096 452.7076 318.0986 452.9186C 317.8876 453.1296 317.725 453.3729 317.6109 453.6486C 317.4966 453.9242 317.4396 454.2112 317.4396 454.5096C 317.4396 454.8079 317.4966 455.095 317.6109 455.3707C 317.725 455.6463 317.8876 455.8896 318.0986 456.1006C 318.3096 456.3115 318.5529 456.4741 318.8285 456.5883C 319.1042 456.7025 319.3912 456.7596 319.6896 456.7596C 319.9879 456.7596 320.275 456.7025 320.5506 456.5883C 320.8263 456.4741 321.0696 456.3115 321.2805 456.1006C 321.4915 455.8896 321.6541 455.6463 321.7683 455.3707C 321.8825 455.095 321.9396 454.8079 321.9396 454.5096z" stroke="none" fill="#000000" fill-rule="nonzero" /><g><g clip-path="url(#25)"><g clip-path="url(#26)"><g clip-path="url(#27)"><path id="441" transform="matrix(1 0 0 -1 0 842)" d="M22.10801 331.6041L573.1776 331.6041L573.1776 70.35629L22.10801 70.35629z" stroke="none" fill="#8CD5FF" fill-rule="nonzero" fill-opacity="0.1764706" /></g></g><g clip-path="url(#28)"><g clip-path="url(#29)"><g clip-path="url(#30)"><path id="442" transform="matrix(1 0 0 -1 0 842)" d="M51.35794 331.6041L543.902 331.6041C 551.6593 331.6041 559.0984 328.5225 564.5839 323.0372C 570.0695 317.552 573.1512 310.1124 573.1512 302.355L573.1512 302.355L573.1512 99.61343C 573.1512 91.85608 570.0695 84.41702 564.5839 78.93149C 559.0984 73.44595 551.6593 70.36414 543.902 70.36414L543.902 70.36414L51.35794 70.36414C 43.60057 70.36414 36.16098 73.44595 30.67572 78.93149C 25.19046 84.41702 22.10887 91.85608 22.10887 99.61343L22.10887 99.61343L22.10887 302.355C 22.10887 310.1124 25.19046 317.552 30.67572 323.0372C 36.16098 328.5225 43.60057 331.6041 51.35794 331.6041z" stroke="#000000" stroke-width="6.000001" fill="none" /></g></g></g></g></g></g><g clip-path="url(#31)"><g clip-path="url(#32)"><g clip-path="url(#33)"><g clip-path="url(#34)"><path id="443" transform="matrix(1 0 0 -1 0 842)" d="M31.51536 315.9636L287.5618 315.9636L287.5618 273.2335L31.51536 273.2335z" stroke="none" fill="#3779E3" fill-rule="nonzero" /></g></g></g></g><g clip-path="url(#35)"><path id="463" transform="matrix(1 0 0 -1 0 842)" d="M57.40416 198.6408C 57.40416 198.3424 57.34708 198.0554 57.23286 197.7798C 57.11871 197.5041 56.95611 197.2608 56.74513 197.0498C 56.53416 196.8388 56.29086 196.6762 56.01516 196.5621C 55.73953 196.4479 55.45251 196.3908 55.15416 196.3908C 54.85581 196.3908 54.56878 196.4479 54.29308 196.5621C 54.01746 196.6762 53.77416 196.8388 53.56318 197.0498C 53.35221 197.2608 53.18961 197.5041 53.07546 197.7798C 52.96124 198.0554 52.90416 198.3424 52.90416 198.6408C 52.90416 198.9391 52.96124 199.2262 53.07546 199.5019C 53.18961 199.7775 53.35221 200.0208 53.56318 200.2318C 53.77416 200.4427 54.01746 200.6053 54.29308 200.7195C 54.56878 200.8337 54.85581 200.8908 55.15416 200.8908C 55.45251 200.8908 55.73953 200.8337 56.01516 200.7195C 56.29086 200.6053 56.53416 200.4427 56.74513 200.2318C 56.95611 200.0208 57.11871 199.7775 57.23286 199.5019C 57.34708 199.2262 57.40416 198.9391 57.40416 198.6408z" stroke="none" fill="#000000" fill-rule="nonzero" /><path id="493" transform="matrix(1 0 0 -1 0 842)" d="M57.40416 159.6408C 57.40416 159.3424 57.34708 159.0554 57.23286 158.7798C 57.11871 158.5041 56.95611 158.2608 56.74513 158.0498C 56.53416 157.8388 56.29086 157.6762 56.01516 157.5621C 55.73953 157.4479 55.45251 157.3908 55.15416 157.3908C 54.85581 157.3908 54.56878 157.4479 54.29308 157.5621C 54.01746 157.6762 53.77416 157.8388 53.56318 158.0498C 53.35221 158.2608 53.18961 158.5041 53.07546 158.7798C 52.96124 159.0554 52.90416 159.3424 52.90416 159.6408C 52.90416 159.9391 52.96124 160.2262 53.07546 160.5019C 53.18961 160.7775 53.35221 161.0208 53.56318 161.2318C 53.77416 161.4427 54.01746 161.6053 54.29308 161.7195C 54.56878 161.8337 54.85581 161.8908 55.15416 161.8908C 55.45251 161.8908 55.73953 161.8337 56.01516 161.7195C 56.29086 161.6053 56.53416 161.4427 56.74513 161.2318C 56.95611 161.0208 57.11871 160.7775 57.23286 160.5019C 57.34708 160.2262 57.40416 159.9391 57.40416 159.6408z" stroke="none" fill="#000000" fill-rule="nonzero" /><path id="503" transform="matrix(1 0 0 -1 0 842)" d="M57.40416 140.1408C 57.40416 139.8424 57.34708 139.5554 57.23286 139.2798C 57.11871 139.0041 56.95611 138.7608 56.74513 138.5498C 56.53416 138.3388 56.29086 138.1762 56.01516 138.0621C 55.73953 137.9479 55.45251 137.8908 55.15416 137.8908C 54.85581 137.8908 54.56878 137.9479 54.29308 138.0621C 54.01746 138.1762 53.77416 138.3388 53.56318 138.5498C 53.35221 138.7608 53.18961 139.0041 53.07546 139.2798C 52.96124 139.5554 52.90416 139.8424 52.90416 140.1408C 52.90416 140.4391 52.96124 140.7262 53.07546 141.0019C 53.18961 141.2775 53.35221 141.5208 53.56318 141.7318C 53.77416 141.9427 54.01746 142.1053 54.29308 142.2195C 54.56878 142.3337 54.85581 142.3908 55.15416 142.3908C 55.45251 142.3908 55.73953 142.3337 56.01516 142.2195C 56.29086 142.1053 56.53416 141.9427 56.74513 141.7318C 56.95611 141.5208 57.11871 141.2775 57.23286 141.0019C 57.34708 140.7262 57.40416 140.4391 57.40416 140.1408z" stroke="none" fill="#000000" fill-rule="nonzero" /><g><g clip-path="url(#36)"><g clip-path="url(#37)"><g clip-path="url(#38)"><path id="521" transform="matrix(1 0 0 -1 0 842)" d="M35.19694 254.4845L251.385 254.4845L251.385 220.4684L35.19694 220.4684z" stroke="none" fill="#38B6FF" fill-rule="nonzero" fill-opacity="0.4588235" /></g></g></g></g><g><g clip-path="url(#39)"><g clip-path="url(#40)"><g clip-path="url(#41)"><path id="538" transform="matrix(1 0 0 -1 0 842)" d="M287.4922 253.7082L530.1309 253.7082L530.1309 220.4914L287.4922 220.4914z" stroke="none" fill="#38B6FF" fill-rule="nonzero" fill-opacity="0.3176471" /></g></g></g></g><path id="555" transform="matrix(1 0 0 -1 0 842)" d="M304.8804 198.6408C 304.8804 198.3424 304.8233 198.0554 304.7091 197.7798C 304.5949 197.5041 304.4323 197.2608 304.2213 197.0498C 304.0104 196.8388 303.7671 196.6762 303.4914 196.5621C 303.2158 196.4479 302.9287 196.3908 302.6304 196.3908C 302.332 196.3908 302.045 196.4479 301.7693 196.5621C 301.4937 196.6762 301.2504 196.8388 301.0394 197.0498C 300.8284 197.2608 300.6658 197.5041 300.5517 197.7798C 300.4374 198.0554 300.3804 198.3424 300.3804 198.6408C 300.3804 198.9391 300.4374 199.2262 300.5517 199.5019C 300.6658 199.7775 300.8284 200.0208 301.0394 200.2318C 301.2504 200.4427 301.4937 200.6053 301.7693 200.7195C 302.045 200.8337 302.332 200.8908 302.6304 200.8908C 302.9287 200.8908 303.2158 200.8337 303.4914 200.7195C 303.7671 200.6053 304.0104 200.4427 304.2213 200.2318C 304.4323 200.0208 304.5949 199.7775 304.7091 199.5019C 304.8233 199.2262 304.8804 198.9391 304.8804 198.6408z" stroke="none" fill="#000000" fill-rule="nonzero" /><path id="608" transform="matrix(1 0 0 -1 0 842)" d="M304.8804 159.6408C 304.8804 159.3424 304.8233 159.0554 304.7091 158.7798C 304.5949 158.5041 304.4323 158.2608 304.2213 158.0498C 304.0104 157.8388 303.7671 157.6762 303.4914 157.5621C 303.2158 157.4479 302.9287 157.3908 302.6304 157.3908C 302.332 157.3908 302.045 157.4479 301.7693 157.5621C 301.4937 157.6762 301.2504 157.8388 301.0394 158.0498C 300.8284 158.2608 300.6658 158.5041 300.5517 158.7798C 300.4374 159.0554 300.3804 159.3424 300.3804 159.6408C 300.3804 159.9391 300.4374 160.2262 300.5517 160.5019C 300.6658 160.7775 300.8284 161.0208 301.0394 161.2318C 301.2504 161.4427 301.4937 161.6053 301.7693 161.7195C 302.045 161.8337 302.332 161.8908 302.6304 161.8908C 302.9287 161.8908 303.2158 161.8337 303.4914 161.7195C 303.7671 161.6053 304.0104 161.4427 304.2213 161.2318C 304.4323 161.0208 304.5949 160.7775 304.7091 160.5019C 304.8233 160.2262 304.8804 159.9391 304.8804 159.6408z" stroke="none" fill="#000000" fill-rule="nonzero" /></g><g clip-path="url(#42)"><g transform="matrix(0.06065089 0 0 0.06083429 489.6168 18.1842)"><g transform="matrix(1 0 0 1 0 0)"><image x="0" y="0" xlink:href="img_03.png" width="1521" height="863" /></g></g></g></g></g></svg>