<svg xmlns="http://www.w3.org/2000/svg" xmlns:xlink="http://www.w3.org/1999/xlink" id="body_1" preserveAspectRatio="xMinYMin meet" viewBox="0 0 793 1123"><defs><clipPath id="1"><path id="" clip-rule="evenodd" transform="matrix(1 0 0 1 0 0)" d="M0 842L0 -0.25L0 -0.25L595.5 -0.25L595.5 -0.25L595.5 842L595.5 842L0 842z" /></clipPath><clipPath id="2"><path id="" clip-rule="evenodd" transform="matrix(1 0 0 1 0 0)" d="M0 -0.249939L595.5 -0.249939L595.5 -0.249939L595.5 842.0001L595.5 842.0001L0 842.0001z" /></clipPath><clipPath id="3"><path id="" clip-rule="evenodd" transform="matrix(1 0 0 1 0 0)" d="M0 -0.249939L595.5 -0.249939L595.5 -0.249939L595.5 842.0001L595.5 842.0001L0 842.0001z" /></clipPath><clipPath id="4"><path id="" clip-rule="evenodd" transform="matrix(1 0 0 1 0 0)" d="M0 -0.249939L595.5 -0.249939L595.5 -0.249939L595.5 842.0001L595.5 842.0001L0 842.0001z" /></clipPath><clipPath id="5"><path id="" clip-rule="evenodd" transform="matrix(1 0 0 1 0 0)" d="M78.71999 30.71008L522.24 30.71008L522.24 30.71008L522.24 810.9501L522.24 810.9501L78.71999 810.9501z" /></clipPath><clipPath id="6"><path id="" clip-rule="evenodd" transform="matrix(1 0 0 1 0 0)" d="M79.51787 30.75183L522.0178 30.75183L522.0178 30.75183L522.0178 810.7518L522.0178 810.7518L79.51787 810.7518z" /></clipPath><clipPath id="7"><path id="" clip-rule="evenodd" transform="matrix(1 0 0 1 0 0)" d="M33.6 159.3501L561.6 159.3501L561.6 159.3501L561.6 282.4701L561.6 282.4701L33.6 282.4701z" /></clipPath><clipPath id="8"><path id="" clip-rule="evenodd" transform="matrix(1 0 0 1 0 0)" d="M33.77331 159.4801L561.5535 159.4801L561.5535 159.4801L561.5535 282.309L561.5535 282.309L33.77331 282.309z" /></clipPath><clipPath id="9"><path id="" clip-rule="evenodd" transform="matrix(1 0 0 1 0 0)" d="M58.52331 159.4801L536.7523 159.4801C 550.4213 159.4801 561.5023 170.561 561.5023 184.2301L561.5023 184.2301L561.5023 257.5589C 561.5023 271.228 550.4213 282.309 536.7523 282.309L536.7523 282.309L58.52331 282.309C 44.85426 282.309 33.77331 271.228 33.77331 257.5589L33.77331 257.5589L33.77331 184.2301C 33.77331 170.561 44.85426 159.4801 58.52331 159.4801z" /></clipPath><clipPath id="10"><path id="" clip-rule="evenodd" transform="matrix(1 0 0 1 0 0)" d="M0 -0.249939L595.5 -0.249939L595.5 -0.249939L595.5 842.0001L595.5 842.0001L0 842.0001z" /></clipPath><clipPath id="11"><path id="" clip-rule="evenodd" transform="matrix(1 0 0 1 0 0)" d="M0 -0.249939L595.5 -0.249939L595.5 -0.249939L595.5 842.0001L595.5 842.0001L0 842.0001z" /></clipPath><clipPath id="12"><path id="" clip-rule="evenodd" transform="matrix(1 0 0 1 0 0)" d="M57.80947 168.2192L156.0595 168.2192L156.0595 168.2192L156.0595 266.4692L156.0595 266.4692L57.80947 266.4692z" /></clipPath><clipPath id="13"><path id="" clip-rule="evenodd" transform="matrix(1 0 0 1 0 0)" d="M57.80947 195.9692L57.80947 238.3639C 57.80947 253.6898 70.23357 266.1139 85.55947 266.1139L85.55947 266.1139L127.9542 266.1139C 143.2801 266.1139 155.7042 253.6898 155.7042 238.3639L155.7042 238.3639L155.7042 195.9692C 155.7042 180.6433 143.2801 168.2192 127.9542 168.2192L127.9542 168.2192L85.55947 168.2192C 70.23357 168.2192 57.80947 180.6433 57.80947 195.9692z" /></clipPath><clipPath id="14"><path id="" clip-rule="evenodd" transform="matrix(1 0 0 1 0 0)" d="M57.80947 168.2192L156.0595 168.2192L156.0595 168.2192L156.0595 266.4692L156.0595 266.4692L57.80947 266.4692z" /></clipPath><clipPath id="15"><path id="" clip-rule="evenodd" transform="matrix(1 0 0 1 0 0)" d="M0 -0.249939L595.5 -0.249939L595.5 -0.249939L595.5 842.0001L595.5 842.0001L0 842.0001z" /></clipPath><clipPath id="16"><path id="" clip-rule="evenodd" transform="matrix(1 0 0 1 0 0)" d="M35.28 295.6701L563.28 295.6701L563.28 295.6701L563.28 407.5101L563.28 407.5101L35.28 407.5101z" /></clipPath><clipPath id="17"><path id="" clip-rule="evenodd" transform="matrix(1 0 0 1 0 0)" d="M35.3187 295.8089L563.2073 295.8089L563.2073 295.8089L563.2073 407.3101L563.2073 407.3101L35.3187 407.3101z" /></clipPath><clipPath id="18"><path id="" clip-rule="evenodd" transform="matrix(1 0 0 1 0 0)" d="M60.0687 295.8089L538.2976 295.8089C 551.9667 295.8089 563.0476 306.8899 563.0476 320.5589L563.0476 320.5589L563.0476 382.5602C 563.0476 396.2292 551.9667 407.3101 538.2976 407.3101L538.2976 407.3101L60.0687 407.3101C 46.39965 407.3101 35.3187 396.2292 35.3187 382.5602L35.3187 382.5602L35.3187 320.5589C 35.3187 306.8899 46.39965 295.8089 60.0687 295.8089z" /></clipPath><clipPath id="19"><path id="" clip-rule="evenodd" transform="matrix(1 0 0 1 0 0)" d="M0 -0.249939L595.5 -0.249939L595.5 -0.249939L595.5 842.0001L595.5 842.0001L0 842.0001z" /></clipPath><clipPath id="20"><path id="" clip-rule="evenodd" transform="matrix(1 0 0 1 0 0)" d="M0 -0.249939L595.5 -0.249939L595.5 -0.249939L595.5 842.0001L595.5 842.0001L0 842.0001z" /></clipPath><clipPath id="21"><path id="" clip-rule="evenodd" transform="matrix(1 0 0 1 0 0)" d="M462.5553 301.7867L548.8054 301.7867L548.8054 301.7867L548.8054 388.0368L548.8054 388.0368L462.5553 388.0368z" /></clipPath><clipPath id="22"><path id="" clip-rule="evenodd" transform="matrix(1 0 0 1 0 0)" d="M462.5553 329.5367L462.5553 359.847C 462.5553 375.1729 474.9794 387.597 490.3053 387.597L490.3053 387.597L520.6155 387.597C 535.9414 387.597 548.3655 375.1729 548.3655 359.847L548.3655 359.847L548.3655 329.5367C 548.3655 314.2109 535.9414 301.7867 520.6155 301.7867L520.6155 301.7867L490.3053 301.7867C 474.9794 301.7867 462.5553 314.2109 462.5553 329.5367z" /></clipPath><clipPath id="23"><path id="" clip-rule="evenodd" transform="matrix(1 0 0 1 0 0)" d="M462.5553 301.7867L548.0554 301.7867L548.0554 301.7867L548.0554 387.2868L548.0554 387.2868L462.5553 387.2868z" /></clipPath><clipPath id="24"><path id="" clip-rule="evenodd" transform="matrix(1 0 0 1 0 0)" d="M0 -0.249939L595.5 -0.249939L595.5 -0.249939L595.5 842.0001L595.5 842.0001L0 842.0001z" /></clipPath><clipPath id="25"><path id="" clip-rule="evenodd" transform="matrix(1 0 0 1 0 0)" d="M33.6 420.7101L564.72 420.7101L564.72 420.7101L564.72 540.7101L564.72 540.7101L33.6 540.7101z" /></clipPath><clipPath id="26"><path id="" clip-rule="evenodd" transform="matrix(1 0 0 1 0 0)" d="M33.77331 420.8101L564.6716 420.8101L564.6716 420.8101L564.6716 540.5546L564.6716 540.5546L33.77331 540.5546z" /></clipPath><clipPath id="27"><path id="" clip-rule="evenodd" transform="matrix(1 0 0 1 0 0)" d="M58.52331 420.8101L539.8431 420.8101C 553.512 420.8101 564.593 431.8911 564.593 445.5601L564.593 445.5601L564.593 515.8046C 564.593 529.4736 553.512 540.5546 539.8431 540.5546L539.8431 540.5546L58.52331 540.5546C 44.85426 540.5546 33.77331 529.4736 33.77331 515.8046L33.77331 515.8046L33.77331 445.5601C 33.77331 431.8911 44.85426 420.8101 58.52331 420.8101z" /></clipPath><clipPath id="28"><path id="" clip-rule="evenodd" transform="matrix(1 0 0 1 0 0)" d="M0 -0.249939L595.5 -0.249939L595.5 -0.249939L595.5 842.0001L595.5 842.0001L0 842.0001z" /></clipPath><clipPath id="29"><path id="" clip-rule="evenodd" transform="matrix(1 0 0 1 0 0)" d="M0 -0.249939L595.5 -0.249939L595.5 -0.249939L595.5 842.0001L595.5 842.0001L0 842.0001z" /></clipPath><clipPath id="30"><path id="" clip-rule="evenodd" transform="matrix(1 0 0 1 0 0)" d="M58.45147 438.5793L147.7015 438.5793L147.7015 438.5793L147.7015 527.8293L147.7015 527.8293L58.45147 527.8293z" /></clipPath><clipPath id="31"><path id="" clip-rule="evenodd" transform="matrix(1 0 0 1 0 0)" d="M58.45147 466.3293L58.45147 499.5353C 58.45147 514.8613 70.87556 527.2853 86.20147 527.2853L86.20147 527.2853L119.4075 527.2853C 134.7334 527.2853 147.1575 514.8613 147.1575 499.5353L147.1575 499.5353L147.1575 466.3293C 147.1575 451.0034 134.7334 438.5793 119.4075 438.5793L119.4075 438.5793L86.20147 438.5793C 70.87556 438.5793 58.45147 451.0034 58.45147 466.3293z" /></clipPath><clipPath id="32"><path id="" clip-rule="evenodd" transform="matrix(1 0 0 1 0 0)" d="M58.45147 438.5793L146.9515 438.5793L146.9515 438.5793L146.9515 527.0793L146.9515 527.0793L58.45147 527.0793z" /></clipPath><clipPath id="33"><path id="" clip-rule="evenodd" transform="matrix(1 0 0 1 0 0)" d="M0 -0.249939L595.5 -0.249939L595.5 -0.249939L595.5 842.0001L595.5 842.0001L0 842.0001z" /></clipPath><clipPath id="34"><path id="" clip-rule="evenodd" transform="matrix(1 0 0 1 0 0)" d="M33.6 558.4701L562.08 558.4701L562.08 558.4701L562.08 680.6301L562.08 680.6301L33.6 680.6301z" /></clipPath><clipPath id="35"><path id="" clip-rule="evenodd" transform="matrix(1 0 0 1 0 0)" d="M33.77331 558.5546L561.9695 558.5546L561.9695 558.5546L561.9695 680.5927L561.9695 680.5927L33.77331 680.5927z" /></clipPath><clipPath id="36"><path id="" clip-rule="evenodd" transform="matrix(1 0 0 1 0 0)" d="M58.52331 558.5546L536.7523 558.5546C 550.4213 558.5546 561.5023 569.6355 561.5023 583.3046L561.5023 583.3046L561.5023 655.8427C 561.5023 669.5117 550.4213 680.5927 536.7523 680.5927L536.7523 680.5927L58.52331 680.5927C 44.85426 680.5927 33.77331 669.5117 33.77331 655.8427L33.77331 655.8427L33.77331 583.3046C 33.77331 569.6355 44.85426 558.5546 58.52331 558.5546z" /></clipPath><clipPath id="37"><path id="" clip-rule="evenodd" transform="matrix(1 0 0 1 0 0)" d="M0 -0.249939L595.5 -0.249939L595.5 -0.249939L595.5 842.0001L595.5 842.0001L0 842.0001z" /></clipPath><clipPath id="38"><path id="" clip-rule="evenodd" transform="matrix(1 0 0 1 0 0)" d="M0 -0.249939L595.5 -0.249939L595.5 -0.249939L595.5 842.0001L595.5 842.0001L0 842.0001z" /></clipPath><clipPath id="39"><path id="" clip-rule="evenodd" transform="matrix(1 0 0 1 0 0)" d="M447.3275 569.0546L548.5775 569.0546L548.5775 569.0546L548.5775 670.3046L548.5775 670.3046L447.3275 670.3046z" /></clipPath><clipPath id="40"><path id="" clip-rule="evenodd" transform="matrix(1 0 0 1 0 0)" d="M447.3275 596.8046L447.3275 642.3427C 447.3275 657.6686 459.7516 670.0927 475.0775 670.0927L475.0775 670.0927L520.6156 670.0927C 535.9415 670.0927 548.3656 657.6686 548.3656 642.3427L548.3656 642.3427L548.3656 596.8046C 548.3656 581.4786 535.9415 569.0546 520.6156 569.0546L520.6156 569.0546L475.0775 569.0546C 459.7516 569.0546 447.3275 581.4786 447.3275 596.8046z" /></clipPath><clipPath id="41"><path id="" clip-rule="evenodd" transform="matrix(1 0 0 1 0 0)" d="M447.3275 569.0546L548.5775 569.0546L548.5775 569.0546L548.5775 670.3046L548.5775 670.3046L447.3275 670.3046z" /></clipPath><clipPath id="42"><path id="" clip-rule="evenodd" transform="matrix(1 0 0 1 0 0)" d="M0 -0.249939L595.5 -0.249939L595.5 -0.249939L595.5 842.0001L595.5 842.0001L0 842.0001z" /></clipPath><clipPath id="43"><path id="" clip-rule="evenodd" transform="matrix(1 0 0 1 0 0)" d="M33.6 694.55L562.08 694.55L562.08 694.55L562.08 824.15L562.08 824.15L33.6 824.15z" /></clipPath><clipPath id="44"><path id="" clip-rule="evenodd" transform="matrix(1 0 0 1 0 0)" d="M33.26835 694.2434L561.9556 694.2434L561.9556 694.2434L561.9556 824.0167L561.9556 824.0167L33.26835 824.0167z" /></clipPath><clipPath id="45"><path id="" clip-rule="evenodd" transform="matrix(1 0 0 1 0 0)" d="M58.52331 694.7484L536.7523 694.7484C 550.4213 694.7484 561.5023 705.8293 561.5023 719.4984L561.5023 719.4984L561.5023 799.2667C 561.5023 812.9358 550.4213 824.0167 536.7523 824.0167L536.7523 824.0167L58.52331 824.0167C 44.85426 824.0167 33.77331 812.9358 33.77331 799.2667L33.77331 799.2667L33.77331 719.4984C 33.77331 705.8293 44.85426 694.7484 58.52331 694.7484z" /></clipPath><clipPath id="46"><path id="" clip-rule="evenodd" transform="matrix(1 0 0 1 0 0)" d="M0 -0.249939L595.5 -0.249939L595.5 -0.249939L595.5 842.0001L595.5 842.0001L0 842.0001z" /></clipPath><clipPath id="47"><path id="" clip-rule="evenodd" transform="matrix(1 0 0 1 0 0)" d="M0 -0.249939L595.5 -0.249939L595.5 -0.249939L595.5 842.0001L595.5 842.0001L0 842.0001z" /></clipPath><clipPath id="48"><path id="" clip-rule="evenodd" transform="matrix(1 0 0 1 0 0)" d="M51.41678 714.8973L147.4168 714.8973L147.4168 714.8973L147.4168 810.8973L147.4168 810.8973L51.41678 810.8973z" /></clipPath><clipPath id="49"><path id="" clip-rule="evenodd" transform="matrix(1 0 0 1 0 0)" d="M51.41678 742.6473L51.41678 782.8881C 51.41678 798.2139 63.84088 810.6381 79.16678 810.6381L79.16678 810.6381L119.4075 810.6381C 134.7334 810.6381 147.1575 798.2139 147.1575 782.8881L147.1575 782.8881L147.1575 742.6473C 147.1575 727.3215 134.7334 714.8973 119.4075 714.8973L119.4075 714.8973L79.16678 714.8973C 63.84088 714.8973 51.41678 727.3215 51.41678 742.6473z" /></clipPath><clipPath id="50"><path id="" clip-rule="evenodd" transform="matrix(1 0 0 1 0 0)" d="M51.41678 714.8973L147.4168 714.8973L147.4168 714.8973L147.4168 810.8973L147.4168 810.8973L51.41678 810.8973z" /></clipPath><clipPath id="51"><path id="" clip-rule="evenodd" transform="matrix(1 0 0 1 0 0)" d="M0 -0.249939L595.5 -0.249939L595.5 -0.249939L595.5 842.0001L595.5 842.0001L0 842.0001z" /></clipPath><clipPath id="52"><path id="" clip-rule="evenodd" transform="matrix(1 0 0 1 0 0)" d="M499.6608 11.00061L584.4108 11.00061L584.4108 11.00061L584.4108 59.00061L584.4108 59.00061L499.6608 59.00061z" /></clipPath><clipPath id="53"><path id="" clip-rule="evenodd" transform="matrix(1 0 0 1 0 0)" d="M6.042091 6.794739L79.54209 6.794739L79.54209 6.794739L79.54209 72.04474L79.54209 72.04474L6.042091 72.04474z" /></clipPath></defs><g transform="matrix(1.333333 0 0 1.333333 0 0)"><g clip-path="url(#1)"><g clip-path="url(#2)"><path id="1" transform="matrix(1 0 0 -1 0 842)" d="M0 842.2499L595.4999 842.2499L595.4999 -6.103516E-05L0 -6.103516E-05z" stroke="none" fill="#FFFFFF" fill-rule="nonzero" /></g><g clip-path="url(#3)"><path id="2" transform="matrix(1 0 0 -1 0 842)" d="M0 842.2499L595.4999 842.2499L595.4999 -6.103516E-05L0 -6.103516E-05z" stroke="none" fill="#FFFFFF" fill-rule="nonzero" /></g><g clip-path="url(#4)"><g><g clip-path="url(#5)"><g clip-path="url(#6)"><g transform="matrix(0 0.5128205 -0.5127462 0 522.0178 30.75189)"><g transform="matrix(1 0 0 1 0 0)"><image x="0" y="0" xlink:href="img_01.png" width="1521" height="863" /></g></g></g></g></g><g><g clip-path="url(#7)"><g clip-path="url(#8)"><g clip-path="url(#9)"><path id="4" transform="matrix(1 0 0 -1 0 842)" d="M33.7733 682.5199L561.5535 682.5199L561.5535 559.691L33.7733 559.691z" stroke="none" fill="#FF914D" fill-rule="nonzero" fill-opacity="0.3490196" /></g></g></g></g></g><g clip-path="url(#10)"><g clip-path="url(#11)"><g clip-path="url(#12)"><g clip-path="url(#13)"><g clip-path="url(#14)"><g transform="matrix(0.3032407 0 0 0.3032407 57.80947 168.2192)"><g transform="matrix(1 0 0 1 0 0)"><image x="0" y="0" xlink:href="img_02.png" width="324" height="324" /></g></g></g></g></g></g></g><g clip-path="url(#15)"><g><g clip-path="url(#16)"><g clip-path="url(#17)"><g clip-path="url(#18)"><path id="149" transform="matrix(1 0 0 -1 0 842)" d="M35.3187 546.191L563.2073 546.191L563.2073 434.6898L35.3187 434.6898z" stroke="none" fill="#FF914D" fill-rule="nonzero" fill-opacity="0.3490196" /></g></g></g></g></g><g clip-path="url(#19)"><g clip-path="url(#20)"><g clip-path="url(#21)"><g clip-path="url(#22)"><g clip-path="url(#23)"><g transform="matrix(0.2638889 0 0 0.2638889 462.5553 301.7868)"><g transform="matrix(1 0 0 1 0 0)"><image x="0" y="0" xlink:href="img_03.png" width="324" height="324" /></g></g></g></g></g></g></g><g clip-path="url(#24)"><g><g clip-path="url(#25)"><g clip-path="url(#26)"><g clip-path="url(#27)"><path id="224" transform="matrix(1 0 0 -1 0 842)" d="M33.7733 421.1899L564.6716 421.1899L564.6716 301.4454L33.7733 301.4454z" stroke="none" fill="#FF914D" fill-rule="nonzero" fill-opacity="0.3490196" /></g></g></g></g></g><g clip-path="url(#28)"><g clip-path="url(#29)"><g clip-path="url(#30)"><g clip-path="url(#31)"><g clip-path="url(#32)"><g transform="matrix(0.4916666 0 0 0.4916666 58.45146 438.5793)"><g transform="matrix(1 0 0 1 0 0)"><image x="0" y="0" xlink:href="img_04.png" width="180" height="180" /></g></g></g></g></g></g></g><g clip-path="url(#33)"><g><g clip-path="url(#34)"><g clip-path="url(#35)"><g clip-path="url(#36)"><path id="467" transform="matrix(1 0 0 -1 0 842)" d="M33.7733 283.4454L561.4927 283.4454L561.4927 161.4073L33.7733 161.4073z" stroke="none" fill="#FF914D" fill-rule="nonzero" fill-opacity="0.3490196" /></g></g></g></g></g><g clip-path="url(#37)"><g clip-path="url(#38)"><g clip-path="url(#39)"><g clip-path="url(#40)"><g clip-path="url(#41)"><g transform="matrix(0.3124999 0 0 0.3124999 447.3275 569.0546)"><g transform="matrix(1 0 0 1 0 0)"><image x="0" y="0" xlink:href="img_05.png" width="324" height="324" /></g></g></g></g></g></g></g><g clip-path="url(#42)"><g><g clip-path="url(#43)"><g clip-path="url(#44)"><g clip-path="url(#45)"><path id="646" transform="matrix(1 0 0 -1 0 842)" d="M33.7733 147.2516L561.4507 147.2516L561.4507 17.98326L33.7733 17.98326z" stroke="none" fill="#FF914D" fill-rule="nonzero" fill-opacity="0.3490196" /></g></g></g></g></g><g clip-path="url(#46)"><g clip-path="url(#47)"><g clip-path="url(#48)"><g clip-path="url(#49)"><g clip-path="url(#50)"><g transform="matrix(0.6075949 0 0 0.6075949 51.41678 714.8974)"><g transform="matrix(1 0 0 1 0 0)"><image x="0" y="0" xlink:href="img_06.png" width="158" height="158" /></g></g></g></g></g></g></g><g clip-path="url(#51)"></g><g clip-path="url(#52)"><g transform="matrix(0.05571992 0 0 0.05561992 499.6608 11.00061)"><g transform="matrix(1 0 0 1 0 0)"><image x="0" y="0" xlink:href="img_07.png" width="1521" height="863" /></g></g></g><g clip-path="url(#53)"><g transform="matrix(0.459375 0 0 0.4627659 6.042091 6.7948)"><g transform="matrix(1 0 0 1 0 0)"><image x="0" y="0" xlink:href="img_08.png" width="160" height="141" /></g></g></g></g></g></svg>