<svg xmlns="http://www.w3.org/2000/svg" xmlns:xlink="http://www.w3.org/1999/xlink" id="body_1" preserveAspectRatio="xMinYMin meet" viewBox="0 0 793 1123"><defs><clipPath id="1"><path id="" clip-rule="evenodd" transform="matrix(1 0 0 1 0 0)" d="M0 842L0 -0.250061L0 -0.250061L595.5 -0.250061L595.5 -0.250061L595.5 842L595.5 842L0 842z" /></clipPath><clipPath id="2"><path id="" clip-rule="evenodd" transform="matrix(1 0 0 1 0 0)" d="M0 -0.25L595.5 -0.25L595.5 -0.25L595.5 842.0012L595.5 842.0012L0 842.0012z" /></clipPath><clipPath id="3"><path id="" clip-rule="evenodd" transform="matrix(1 0 0 1 0 0)" d="M0 -0.25L595.5 -0.25L595.5 -0.25L595.5 842.0012L595.5 842.0012L0 842.0012z" /></clipPath><clipPath id="4"><path id="" clip-rule="evenodd" transform="matrix(1 0 0 1 0 0)" d="M0 -0.25L595.5 -0.25L595.5 -0.25L595.5 842.0012L595.5 842.0012L0 842.0012z" /></clipPath><clipPath id="5"><path id="" clip-rule="evenodd" transform="matrix(1 0 0 1 0 0)" d="M78.71999 30.71002L522.24 30.71002L522.24 30.71002L522.24 810.95L522.24 810.95L78.71999 810.95z" /></clipPath><clipPath id="6"><path id="" clip-rule="evenodd" transform="matrix(1 0 0 1 0 0)" d="M79.51786 30.75177L522.0178 30.75177L522.0178 30.75177L522.0178 810.7518L522.0178 810.7518L79.51786 810.7518z" /></clipPath><clipPath id="7"><path id="" clip-rule="evenodd" transform="matrix(1 0 0 1 0 0)" d="M0 -0.25L595.5 -0.25L595.5 -0.25L595.5 842.0012L595.5 842.0012L0 842.0012z" /></clipPath><clipPath id="8"><path id="" clip-rule="evenodd" transform="matrix(1 0 0 1 0 0)" d="M0 -0.25L595.5 -0.25L595.5 -0.25L595.5 842.0012L595.5 842.0012L0 842.0012z" /></clipPath><clipPath id="9"><path id="" clip-rule="evenodd" transform="matrix(1 0 0 1 0 0)" d="M46.848 8.540771L286.7124 8.540771L286.7124 8.540771L286.7124 279.3256L286.7124 279.3256L46.848 279.3256z" /></clipPath><clipPath id="10"><path id="" clip-rule="evenodd" transform="matrix(1 0 0 1 0 0)" d="M74.598 8.540771L258.9624 8.540771C 274.2888 8.540771 286.7112 20.96484 286.7112 36.29071L286.7112 36.29071L286.7112 250.9604C 286.7112 266.2867 274.2888 278.7115 258.9624 278.7115L258.9624 278.7115L74.598 278.7115C 59.27208 278.7115 46.848 266.2867 46.848 250.9604L46.848 250.9604L46.848 36.29071C 46.848 20.96484 59.27208 8.540771 74.598 8.540771z" /></clipPath><clipPath id="11"><path id="" clip-rule="evenodd" transform="matrix(1 0 0 1 0 0)" d="M48.58416 236.3696L278.9676 236.3696L278.9676 236.3696L278.9676 241.4569L278.9676 241.4569L48.58416 241.4569z" /></clipPath><clipPath id="12"><path id="" clip-rule="evenodd" transform="matrix(1 0 0 1 0 0)" d="M48.48 236.39L279.12 236.39L279.12 236.39L279.12 241.67L279.12 241.67L48.48 241.67z" /></clipPath><mask id="m1"><clipPath id="13"><path id="" clip-rule="evenodd" transform="matrix(1 0 0 1 0 0)" d="M48.48 236.39L279.12 236.39L279.12 236.39L279.12 241.67L279.12 241.67L48.48 241.67z" /></clipPath><g><g><g clip-path="url(#13)"><path id="5" transform="matrix(1 0 0 -1 0 842)" d="M48.48 605.61L279.12 605.61L279.12 600.33L48.48 600.33z" stroke="none" fill="#000000" fill-rule="nonzero" /></g></g></g></mask><clipPath id="14"><path id="" clip-rule="evenodd" transform="matrix(1 0 0 1 0 0)" d="M48.48 236.39L279.12 236.39L279.12 236.39L279.12 241.67L279.12 241.67L48.48 241.67z" /></clipPath><clipPath id="15"><path id="" clip-rule="evenodd" transform="matrix(1 0 0 1 0 0)" d="M48.23999 236.4491L279.36 236.4491L279.36 236.4491L279.36 241.5474L279.36 241.5474L48.23999 241.5474z" /></clipPath><mask id="m2"><clipPath id="16"><path id="" clip-rule="evenodd" transform="matrix(1 0 0 1 0 0)" d="M48.48 236.39L279.12 236.39L279.12 236.39L279.12 241.67L279.12 241.67L48.48 241.67z" /></clipPath><clipPath id="17"><path id="" clip-rule="evenodd" transform="matrix(1 0 0 1 0 0)" d="M48.48 236.39L279.12 236.39L279.12 236.39L279.12 241.67L279.12 241.67L48.48 241.67z" /></clipPath><clipPath id="18"><path id="" clip-rule="evenodd" transform="matrix(1 0 0 1 0 0)" d="M48.60608 236.4491L278.956 236.4491L278.956 236.4491L278.956 241.3434L278.956 241.3434L48.60608 241.3434z" /></clipPath><g><g><g clip-path="url(#16)"><g><g clip-path="url(#17)"><g clip-path="url(#18)"><g transform="matrix(0.24 0 0 0.24 48.48 236.3901)"><g transform="matrix(1 0 0 1 0 0)"><image x="0" y="0" xlink:href="img_02.png" width="961" height="21" /></g></g></g></g></g></g></g></g></mask><clipPath id="19"><path id="" clip-rule="evenodd" transform="matrix(1 0 0 1 0 0)" d="M48.48 236.39L279.12 236.39L279.12 236.39L279.12 241.67L279.12 241.67L48.48 241.67z" /></clipPath><clipPath id="20"><path id="" clip-rule="evenodd" transform="matrix(1 0 0 1 0 0)" d="M48.23999 236.4491L279.36 236.4491L279.36 236.4491L279.36 241.5474L279.36 241.5474L48.23999 241.5474z" /></clipPath><clipPath id="21"><path id="" clip-rule="evenodd" transform="matrix(1 0 0 1 0 0)" d="M0 -0.25L595.5 -0.25L595.5 -0.25L595.5 842.0012L595.5 842.0012L0 842.0012z" /></clipPath><clipPath id="22"><path id="" clip-rule="evenodd" transform="matrix(1 0 0 1 0 0)" d="M0 -0.25L595.5 -0.25L595.5 -0.25L595.5 842.0012L595.5 842.0012L0 842.0012z" /></clipPath><clipPath id="23"><path id="" clip-rule="evenodd" transform="matrix(1 0 0 1 0 0)" d="M60.86352 93.08051L266.4487 93.08051L266.4487 93.08051L266.4487 218.0919L266.4487 218.0919L60.86352 218.0919z" /></clipPath><clipPath id="24"><path id="" clip-rule="evenodd" transform="matrix(1 0 0 1 0 0)" d="M73.61352 93.08051L253.6416 93.08051C 260.6856 93.08051 266.3928 98.78888 266.3928 105.8305L266.3928 105.8305L266.3928 205.3419C 266.3928 212.3838 260.6856 218.0919 253.6416 218.0919L253.6416 218.0919L73.61352 218.0919C 66.57191 218.0919 60.86352 212.3838 60.86352 205.3419L60.86352 205.3419L60.86352 105.8305C 60.86352 98.78888 66.57191 93.08051 73.61352 93.08051z" /></clipPath><clipPath id="25"><path id="" clip-rule="evenodd" transform="matrix(1 0 0 1 0 0)" d="M60.86352 93.08051L266.4487 93.08051L266.4487 93.08051L266.4487 218.0919L266.4487 218.0919L60.86352 218.0919z" /></clipPath><clipPath id="26"><path id="" clip-rule="evenodd" transform="matrix(1 0 0 1 0 0)" d="M0 -0.25L595.5 -0.25L595.5 -0.25L595.5 842.0012L595.5 842.0012L0 842.0012z" /></clipPath><clipPath id="27"><path id="" clip-rule="evenodd" transform="matrix(1 0 0 1 0 0)" d="M0 -0.25L595.5 -0.25L595.5 -0.25L595.5 842.0012L595.5 842.0012L0 842.0012z" /></clipPath><clipPath id="28"><path id="" clip-rule="evenodd" transform="matrix(1 0 0 1 0 0)" d="M0 -0.25L595.5 -0.25L595.5 -0.25L595.5 842.0012L595.5 842.0012L0 842.0012z" /></clipPath><clipPath id="29"><path id="" clip-rule="evenodd" transform="matrix(1 0 0 1 0 0)" d="M312.3504 101.3448L586.8071 101.3448L586.8071 101.3448L586.8071 360.6121L586.8071 360.6121L312.3504 360.6121z" /></clipPath><clipPath id="30"><path id="" clip-rule="evenodd" transform="matrix(1 0 0 1 0 0)" d="M340.0992 101.3448L558.2424 101.3448C 565.6008 101.3448 572.6592 104.2686 577.8648 109.4727C 583.068 114.6769 585.9911 121.7353 585.9911 129.0948L585.9911 129.0948L585.9911 332.8604C 585.9911 340.2212 583.068 347.2796 577.8648 352.4828C 572.6592 357.6884 565.6008 360.6116 558.2424 360.6116L558.2424 360.6116L340.0992 360.6116C 332.7408 360.6116 325.6824 357.6884 320.4768 352.4828C 315.2736 347.2796 312.3504 340.2212 312.3504 332.8604L312.3504 332.8604L312.3504 129.0948C 312.3504 121.7353 315.2736 114.6769 320.4768 109.4727C 325.6824 104.2686 332.7408 101.3448 340.0992 101.3448z" /></clipPath><clipPath id="31"><path id="" clip-rule="evenodd" transform="matrix(1 0 0 1 0 0)" d="M330.1152 335.9204L567.8652 335.9204L567.8652 335.9204L567.8652 341.1704L567.8652 341.1704L330.1152 341.1704z" /></clipPath><clipPath id="32"><path id="" clip-rule="evenodd" transform="matrix(1 0 0 1 0 0)" d="M330 335.99L568.08 335.99L568.08 335.99L568.08 341.27L568.08 341.27L330 341.27z" /></clipPath><mask id="m3"><clipPath id="33"><path id="" clip-rule="evenodd" transform="matrix(1 0 0 1 0 0)" d="M330 335.99L568.08 335.99L568.08 335.99L568.08 341.27L568.08 341.27L330 341.27z" /></clipPath><g><g><g clip-path="url(#33)"><path id="128" transform="matrix(1 0 0 -1 0 842)" d="M330 506.01L568.08 506.01L568.08 500.73L330 500.73z" stroke="none" fill="#000000" fill-rule="nonzero" /></g></g></g></mask><clipPath id="34"><path id="" clip-rule="evenodd" transform="matrix(1 0 0 1 0 0)" d="M330 335.99L568.08 335.99L568.08 335.99L568.08 341.27L568.08 341.27L330 341.27z" /></clipPath><clipPath id="35"><path id="" clip-rule="evenodd" transform="matrix(1 0 0 1 0 0)" d="M329.76 336.0023L568.3199 336.0023L568.3199 336.0023L568.3199 341.2635L568.3199 341.2635L329.76 341.2635z" /></clipPath><mask id="m4"><clipPath id="36"><path id="" clip-rule="evenodd" transform="matrix(1 0 0 1 0 0)" d="M330 335.99L568.08 335.99L568.08 335.99L568.08 341.27L568.08 341.27L330 341.27z" /></clipPath><clipPath id="37"><path id="" clip-rule="evenodd" transform="matrix(1 0 0 1 0 0)" d="M330 335.99L568.08 335.99L568.08 335.99L568.08 341.27L568.08 341.27L330 341.27z" /></clipPath><clipPath id="38"><path id="" clip-rule="evenodd" transform="matrix(1 0 0 1 0 0)" d="M330.1379 336.0023L567.8533 336.0023L567.8533 336.0023L567.8533 341.0531L567.8533 341.0531L330.1379 341.0531z" /></clipPath><g><g><g clip-path="url(#36)"><g><g clip-path="url(#37)"><g clip-path="url(#38)"><g transform="matrix(0.24 0 0 0.24 330 335.9901)"><g transform="matrix(1 0 0 1 0 0)"><image x="0" y="0" xlink:href="img_04.png" width="992" height="22" /></g></g></g></g></g></g></g></g></mask><clipPath id="39"><path id="" clip-rule="evenodd" transform="matrix(1 0 0 1 0 0)" d="M330 335.99L568.08 335.99L568.08 335.99L568.08 341.27L568.08 341.27L330 341.27z" /></clipPath><clipPath id="40"><path id="" clip-rule="evenodd" transform="matrix(1 0 0 1 0 0)" d="M329.76 336.0023L568.3199 336.0023L568.3199 336.0023L568.3199 341.2635L568.3199 341.2635L329.76 341.2635z" /></clipPath><clipPath id="41"><path id="" clip-rule="evenodd" transform="matrix(1 0 0 1 0 0)" d="M0 -0.25L595.5 -0.25L595.5 -0.25L595.5 842.0012L595.5 842.0012L0 842.0012z" /></clipPath><clipPath id="42"><path id="" clip-rule="evenodd" transform="matrix(1 0 0 1 0 0)" d="M0 -0.25L595.5 -0.25L595.5 -0.25L595.5 842.0012L595.5 842.0012L0 842.0012z" /></clipPath><clipPath id="43"><path id="" clip-rule="evenodd" transform="matrix(1 0 0 1 0 0)" d="M327.1056 190.4333L449.2341 190.4333L449.2341 190.4333L449.2341 290.6412L449.2341 290.6412L327.1056 290.6412z" /></clipPath><clipPath id="44"><path id="" clip-rule="evenodd" transform="matrix(1 0 0 1 0 0)" d="M339.8568 190.4333L436.4208 190.4333C 443.4624 190.4333 449.1696 196.1415 449.1696 203.1833L449.1696 203.1833L449.1696 277.8908C 449.1696 284.9324 443.4624 290.642 436.4208 290.642L436.4208 290.642L339.8568 290.642C 332.8152 290.642 327.1056 284.9324 327.1056 277.8908L327.1056 277.8908L327.1056 203.1833C 327.1056 196.1415 332.8152 190.4333 339.8568 190.4333z" /></clipPath><clipPath id="45"><path id="" clip-rule="evenodd" transform="matrix(1 0 0 1 0 0)" d="M327.1056 190.4333L449.2341 190.4333L449.2341 190.4333L449.2341 290.6412L449.2341 290.6412L327.1056 290.6412z" /></clipPath><clipPath id="46"><path id="" clip-rule="evenodd" transform="matrix(1 0 0 1 0 0)" d="M0 -0.25L595.5 -0.25L595.5 -0.25L595.5 842.0012L595.5 842.0012L0 842.0012z" /></clipPath><clipPath id="47"><path id="" clip-rule="evenodd" transform="matrix(1 0 0 1 0 0)" d="M0 -0.25L595.5 -0.25L595.5 -0.25L595.5 842.0012L595.5 842.0012L0 842.0012z" /></clipPath><clipPath id="48"><path id="" clip-rule="evenodd" transform="matrix(1 0 0 1 0 0)" d="M456.4344 224.9211L574.2133 224.9211L574.2133 224.9211L574.2133 309.6159L574.2133 309.6159L456.4344 309.6159z" /></clipPath><clipPath id="49"><path id="" clip-rule="evenodd" transform="matrix(1 0 0 1 0 0)" d="M469.1832 224.9211L561.372 224.9211C 568.4136 224.9211 574.1232 230.6295 574.1232 237.6711L574.1232 237.6711L574.1232 296.8652C 574.1232 303.9067 568.4136 309.6164 561.372 309.6164L561.372 309.6164L469.1832 309.6164C 462.1416 309.6164 456.4344 303.9067 456.4344 296.8652L456.4344 296.8652L456.4344 237.6711C 456.4344 230.6295 462.1416 224.9211 469.1832 224.9211z" /></clipPath><clipPath id="50"><path id="" clip-rule="evenodd" transform="matrix(1 0 0 1 0 0)" d="M456.4344 224.9211L574.2133 224.9211L574.2133 224.9211L574.2133 309.6159L574.2133 309.6159L456.4344 309.6159z" /></clipPath><clipPath id="51"><path id="" clip-rule="evenodd" transform="matrix(1 0 0 1 0 0)" d="M0 -0.25L595.5 -0.25L595.5 -0.25L595.5 842.0012L595.5 842.0012L0 842.0012z" /></clipPath><clipPath id="52"><path id="" clip-rule="evenodd" transform="matrix(1 0 0 1 0 0)" d="M0 -0.25L595.5 -0.25L595.5 -0.25L595.5 842.0012L595.5 842.0012L0 842.0012z" /></clipPath><clipPath id="53"><path id="" clip-rule="evenodd" transform="matrix(1 0 0 1 0 0)" d="M0 -0.25L595.5 -0.25L595.5 -0.25L595.5 842.0012L595.5 842.0012L0 842.0012z" /></clipPath><clipPath id="54"><path id="" clip-rule="evenodd" transform="matrix(1 0 0 1 0 0)" d="M312.3504 399.5228L553.3296 399.5228L553.3296 399.5228L553.3296 641.4427L553.3296 641.4427L312.3504 641.4427z" /></clipPath><clipPath id="55"><path id="" clip-rule="evenodd" transform="matrix(1 0 0 1 0 0)" d="M340.0992 399.5228L525.5784 399.5228C 532.9392 399.5228 539.9976 402.4484 545.2007 407.6516C 550.4064 412.8548 553.3296 419.9132 553.3296 427.274L553.3296 427.274L553.3296 612.9572C 553.3296 620.3156 550.4064 627.374 545.2007 632.5772C 539.9976 637.7828 532.9392 640.7059 525.5784 640.7059L525.5784 640.7059L340.0992 640.7059C 332.7408 640.7059 325.6824 637.7828 320.4768 632.5772C 315.2736 627.374 312.3504 620.3156 312.3504 612.9572L312.3504 612.9572L312.3504 427.274C 312.3504 419.9132 315.2736 412.8548 320.4768 407.6516C 325.6824 402.4484 332.7408 399.5228 340.0992 399.5228z" /></clipPath><clipPath id="56"><path id="" clip-rule="evenodd" transform="matrix(1 0 0 1 0 0)" d="M325.2864 614.378L535.2864 614.378L535.2864 614.378L535.2864 618.878L535.2864 618.878L325.2864 618.878z" /></clipPath><clipPath id="57"><path id="" clip-rule="evenodd" transform="matrix(1 0 0 1 0 0)" d="M325.2 614.39L535.4399 614.39L535.4399 614.39L535.4399 618.95L535.4399 618.95L325.2 618.95z" /></clipPath><mask id="m5"><clipPath id="58"><path id="" clip-rule="evenodd" transform="matrix(1 0 0 1 0 0)" d="M325.2 614.39L535.4399 614.39L535.4399 614.39L535.4399 618.95L535.4399 618.95L325.2 618.95z" /></clipPath><g><g><g clip-path="url(#58)"><path id="236" transform="matrix(1 0 0 -1 0 842)" d="M325.2 227.61L535.4399 227.61L535.4399 223.05L325.2 223.05z" stroke="none" fill="#000000" fill-rule="nonzero" /></g></g></g></mask><clipPath id="59"><path id="" clip-rule="evenodd" transform="matrix(1 0 0 1 0 0)" d="M325.2 614.39L535.4399 614.39L535.4399 614.39L535.4399 618.95L535.4399 618.95L325.2 618.95z" /></clipPath><clipPath id="60"><path id="" clip-rule="evenodd" transform="matrix(1 0 0 1 0 0)" d="M324.96 614.449L535.68 614.449L535.68 614.449L535.68 618.9589L535.68 618.9589L324.96 618.9589z" /></clipPath><mask id="m6"><clipPath id="61"><path id="" clip-rule="evenodd" transform="matrix(1 0 0 1 0 0)" d="M325.2 614.39L535.4399 614.39L535.4399 614.39L535.4399 618.95L535.4399 618.95L325.2 618.95z" /></clipPath><clipPath id="62"><path id="" clip-rule="evenodd" transform="matrix(1 0 0 1 0 0)" d="M325.2 614.39L535.4399 614.39L535.4399 614.39L535.4399 618.95L535.4399 618.95L325.2 618.95z" /></clipPath><clipPath id="63"><path id="" clip-rule="evenodd" transform="matrix(1 0 0 1 0 0)" d="M325.3064 614.449L535.2758 614.449L535.2758 614.449L535.2758 618.7784L535.2758 618.7784L325.3064 618.7784z" /></clipPath><g><g><g clip-path="url(#61)"><g><g clip-path="url(#62)"><g clip-path="url(#63)"><g transform="matrix(0.24 0 0 0.24 325.2 614.39)"><g transform="matrix(1 0 0 1 0 0)"><image x="0" y="0" xlink:href="img_07.png" width="876" height="19" /></g></g></g></g></g></g></g></g></mask><clipPath id="64"><path id="" clip-rule="evenodd" transform="matrix(1 0 0 1 0 0)" d="M325.2 614.39L535.4399 614.39L535.4399 614.39L535.4399 618.95L535.4399 618.95L325.2 618.95z" /></clipPath><clipPath id="65"><path id="" clip-rule="evenodd" transform="matrix(1 0 0 1 0 0)" d="M324.96 614.449L535.68 614.449L535.68 614.449L535.68 618.9589L535.68 618.9589L324.96 618.9589z" /></clipPath><clipPath id="66"><path id="" clip-rule="evenodd" transform="matrix(1 0 0 1 0 0)" d="M0 -0.25L595.5 -0.25L595.5 -0.25L595.5 842.0012L595.5 842.0012L0 842.0012z" /></clipPath><clipPath id="67"><path id="" clip-rule="evenodd" transform="matrix(1 0 0 1 0 0)" d="M0 -0.25L595.5 -0.25L595.5 -0.25L595.5 842.0012L595.5 842.0012L0 842.0012z" /></clipPath><clipPath id="68"><path id="" clip-rule="evenodd" transform="matrix(1 0 0 1 0 0)" d="M355.9152 458.4164L505.3555 458.4164L505.3555 458.4164L505.3555 607.2752L505.3555 607.2752L355.9152 607.2752z" /></clipPath><clipPath id="69"><path id="" clip-rule="evenodd" transform="matrix(1 0 0 1 0 0)" d="M368.6664 458.4164L492.0792 458.4164C 495.4608 458.4164 498.7032 459.758 501.0936 462.1508C 503.4864 464.5412 504.828 467.7836 504.828 471.1652L504.828 471.1652L504.828 594.5252C 504.828 597.9068 503.4864 601.1492 501.0936 603.5396C 498.7032 605.93 495.4608 607.274 492.0792 607.274L492.0792 607.274L368.6664 607.274C 365.2848 607.274 362.04 605.93 359.6496 603.5396C 357.2592 601.1492 355.9152 597.9068 355.9152 594.5252L355.9152 594.5252L355.9152 471.1652C 355.9152 467.7836 357.2592 464.5412 359.6496 462.1508C 362.04 459.758 365.2848 458.4164 368.6664 458.4164z" /></clipPath><clipPath id="70"><path id="" clip-rule="evenodd" transform="matrix(1 0 0 1 0 0)" d="M355.9152 458.4164L504.774 458.4164L504.774 458.4164L504.774 607.2752L504.774 607.2752L355.9152 607.2752z" /></clipPath><clipPath id="71"><path id="" clip-rule="evenodd" transform="matrix(1 0 0 1 0 0)" d="M0 -0.25L595.5 -0.25L595.5 -0.25L595.5 842.0012L595.5 842.0012L0 842.0012z" /></clipPath><clipPath id="72"><path id="" clip-rule="evenodd" transform="matrix(1 0 0 1 0 0)" d="M0 -0.25L595.5 -0.25L595.5 -0.25L595.5 842.0012L595.5 842.0012L0 842.0012z" /></clipPath><clipPath id="73"><path id="" clip-rule="evenodd" transform="matrix(1 0 0 1 0 0)" d="M0 -0.25L595.5 -0.25L595.5 -0.25L595.5 842.0012L595.5 842.0012L0 842.0012z" /></clipPath><clipPath id="74"><path id="" clip-rule="evenodd" transform="matrix(1 0 0 1 0 0)" d="M46.848 300.6548L286.7124 300.6548L286.7124 300.6548L286.7124 555.5107L286.7124 555.5107L46.848 555.5107z" /></clipPath><clipPath id="75"><path id="" clip-rule="evenodd" transform="matrix(1 0 0 1 0 0)" d="M74.598 300.6548L258.9624 300.6548C 274.2888 300.6548 286.7112 313.0796 286.7112 328.406L286.7112 328.406L286.7112 526.8452C 286.7112 542.1716 274.2888 554.5964 258.9624 554.5964L258.9624 554.5964L74.598 554.5964C 59.27208 554.5964 46.848 542.1716 46.848 526.8452L46.848 526.8452L46.848 328.406C 46.848 313.0796 59.27208 300.6548 74.598 300.6548z" /></clipPath><clipPath id="76"><path id="" clip-rule="evenodd" transform="matrix(1 0 0 1 0 0)" d="M58.2768 513.5732L288.6602 513.5732L288.6602 513.5732L288.6602 518.6605L288.6602 518.6605L58.2768 518.6605z" /></clipPath><clipPath id="77"><path id="" clip-rule="evenodd" transform="matrix(1 0 0 1 0 0)" d="M58.08 513.59L288.72 513.59L288.72 513.59L288.72 518.87L288.72 518.87L58.08 518.87z" /></clipPath><mask id="m7"><clipPath id="78"><path id="" clip-rule="evenodd" transform="matrix(1 0 0 1 0 0)" d="M58.08 513.59L288.72 513.59L288.72 513.59L288.72 518.87L288.72 518.87L58.08 518.87z" /></clipPath><g><g><g clip-path="url(#78)"><path id="306" transform="matrix(1 0 0 -1 0 842)" d="M58.08 328.41L288.72 328.41L288.72 323.13L58.08 323.13z" stroke="none" fill="#000000" fill-rule="nonzero" /></g></g></g></mask><clipPath id="79"><path id="" clip-rule="evenodd" transform="matrix(1 0 0 1 0 0)" d="M58.08 513.59L288.72 513.59L288.72 513.59L288.72 518.87L288.72 518.87L58.08 518.87z" /></clipPath><clipPath id="80"><path id="" clip-rule="evenodd" transform="matrix(1 0 0 1 0 0)" d="M57.84 513.6527L288.96 513.6527L288.96 513.6527L288.96 518.751L288.96 518.751L57.84 518.751z" /></clipPath><mask id="m8"><clipPath id="81"><path id="" clip-rule="evenodd" transform="matrix(1 0 0 1 0 0)" d="M58.08 513.59L288.72 513.59L288.72 513.59L288.72 518.87L288.72 518.87L58.08 518.87z" /></clipPath><clipPath id="82"><path id="" clip-rule="evenodd" transform="matrix(1 0 0 1 0 0)" d="M58.08 513.59L288.72 513.59L288.72 513.59L288.72 518.87L288.72 518.87L58.08 518.87z" /></clipPath><clipPath id="83"><path id="" clip-rule="evenodd" transform="matrix(1 0 0 1 0 0)" d="M58.29864 513.6527L288.6486 513.6527L288.6486 513.6527L288.6486 518.547L288.6486 518.547L58.29864 518.547z" /></clipPath><g><g><g clip-path="url(#81)"><g><g clip-path="url(#82)"><g clip-path="url(#83)"><g transform="matrix(0.24 0 0 0.24 58.08 513.59)"><g transform="matrix(1 0 0 1 0 0)"><image x="0" y="0" xlink:href="img_09.png" width="961" height="21" /></g></g></g></g></g></g></g></g></mask><clipPath id="84"><path id="" clip-rule="evenodd" transform="matrix(1 0 0 1 0 0)" d="M58.08 513.59L288.72 513.59L288.72 513.59L288.72 518.87L288.72 518.87L58.08 518.87z" /></clipPath><clipPath id="85"><path id="" clip-rule="evenodd" transform="matrix(1 0 0 1 0 0)" d="M57.84 513.6527L288.96 513.6527L288.96 513.6527L288.96 518.751L288.96 518.751L57.84 518.751z" /></clipPath><clipPath id="86"><path id="" clip-rule="evenodd" transform="matrix(1 0 0 1 0 0)" d="M0 -0.25L595.5 -0.25L595.5 -0.25L595.5 842.0012L595.5 842.0012L0 842.0012z" /></clipPath><clipPath id="87"><path id="" clip-rule="evenodd" transform="matrix(1 0 0 1 0 0)" d="M0 -0.25L595.5 -0.25L595.5 -0.25L595.5 842.0012L595.5 842.0012L0 842.0012z" /></clipPath><clipPath id="88"><path id="" clip-rule="evenodd" transform="matrix(1 0 0 1 0 0)" d="M61.90992 391.0412L165.0821 391.0412L165.0821 391.0412L165.0821 488.1443L165.0821 488.1443L61.90992 488.1443z" /></clipPath><clipPath id="89"><path id="" clip-rule="evenodd" transform="matrix(1 0 0 1 0 0)" d="M74.65992 391.0412L152.0825 391.0412C 159.1241 391.0412 164.8325 396.7508 164.8325 403.7924L164.8325 403.7924L164.8325 475.394C 164.8325 482.4356 159.1241 488.1452 152.0825 488.1452L152.0825 488.1452L74.65992 488.1452C 67.61808 488.1452 61.90992 482.4356 61.90992 475.394L61.90992 475.394L61.90992 403.7924C 61.90992 396.7508 67.61808 391.0412 74.65992 391.0412z" /></clipPath><clipPath id="90"><path id="" clip-rule="evenodd" transform="matrix(1 0 0 1 0 0)" d="M61.90992 391.0412L164.7026 391.0412L164.7026 391.0412L164.7026 488.1443L164.7026 488.1443L61.90992 488.1443z" /></clipPath><clipPath id="91"><path id="" clip-rule="evenodd" transform="matrix(1 0 0 1 0 0)" d="M0 -0.25L595.5 -0.25L595.5 -0.25L595.5 842.0012L595.5 842.0012L0 842.0012z" /></clipPath><clipPath id="92"><path id="" clip-rule="evenodd" transform="matrix(1 0 0 1 0 0)" d="M0 -0.25L595.5 -0.25L595.5 -0.25L595.5 842.0012L595.5 842.0012L0 842.0012z" /></clipPath><clipPath id="93"><path id="" clip-rule="evenodd" transform="matrix(1 0 0 1 0 0)" d="M173.6431 396.1196L277.9531 396.1196L277.9531 396.1196L277.9531 493.2229L277.9531 493.2229L173.6431 493.2229z" /></clipPath><clipPath id="94"><path id="" clip-rule="evenodd" transform="matrix(1 0 0 1 0 0)" d="M186.3931 396.1196L265.02 396.1196C 272.0616 396.1196 277.7688 401.8292 277.7688 408.8708L277.7688 408.8708L277.7688 480.4748C 277.7688 487.5164 272.0616 493.2236 265.02 493.2236L265.02 493.2236L186.3931 493.2236C 179.3515 493.2236 173.6431 487.5164 173.6431 480.4748L173.6431 480.4748L173.6431 408.8708C 173.6431 401.8292 179.3515 396.1196 186.3931 396.1196z" /></clipPath><clipPath id="95"><path id="" clip-rule="evenodd" transform="matrix(1 0 0 1 0 0)" d="M173.6431 396.1196L277.9531 396.1196L277.9531 396.1196L277.9531 493.2229L277.9531 493.2229L173.6431 493.2229z" /></clipPath><clipPath id="96"><path id="" clip-rule="evenodd" transform="matrix(1 0 0 1 0 0)" d="M0 -0.25L595.5 -0.25L595.5 -0.25L595.5 842.0012L595.5 842.0012L0 842.0012z" /></clipPath><clipPath id="97"><path id="" clip-rule="evenodd" transform="matrix(1 0 0 1 0 0)" d="M0 -0.25L595.5 -0.25L595.5 -0.25L595.5 842.0012L595.5 842.0012L0 842.0012z" /></clipPath><clipPath id="98"><path id="" clip-rule="evenodd" transform="matrix(1 0 0 1 0 0)" d="M0 -0.25L595.5 -0.25L595.5 -0.25L595.5 842.0012L595.5 842.0012L0 842.0012z" /></clipPath><clipPath id="99"><path id="" clip-rule="evenodd" transform="matrix(1 0 0 1 0 0)" d="M46.848 569.4644L280.0845 569.4644L280.0845 569.4644L280.0845 803.612L280.0845 803.612L46.848 803.612z" /></clipPath><clipPath id="100"><path id="" clip-rule="evenodd" transform="matrix(1 0 0 1 0 0)" d="M74.598 569.4644L252.3336 569.4644C 267.66 569.4644 280.0848 581.8892 280.0848 597.2156L280.0848 597.2156L280.0848 775.1396C 280.0848 790.4636 267.66 802.8884 252.3336 802.8884L252.3336 802.8884L74.598 802.8884C 59.27208 802.8884 46.848 790.4636 46.848 775.1396L46.848 775.1396L46.848 597.2156C 46.848 581.8892 59.27208 569.4644 74.598 569.4644z" /></clipPath><clipPath id="101"><path id="" clip-rule="evenodd" transform="matrix(1 0 0 1 0 0)" d="M59.36928 777.4076L262.6193 777.4076L262.6193 777.4076L262.6193 781.9076L262.6193 781.9076L59.36928 781.9076z" /></clipPath><clipPath id="102"><path id="" clip-rule="evenodd" transform="matrix(1 0 0 1 0 0)" d="M59.27999 777.35L262.8 777.35L262.8 777.35L262.8 781.91L262.8 781.91L59.27999 781.91z" /></clipPath><mask id="m9"><clipPath id="103"><path id="" clip-rule="evenodd" transform="matrix(1 0 0 1 0 0)" d="M59.27999 777.35L262.8 777.35L262.8 777.35L262.8 781.91L262.8 781.91L59.27999 781.91z" /></clipPath><g><g><g clip-path="url(#103)"><path id="444" transform="matrix(1 0 0 -1 0 842)" d="M59.27999 64.65002L262.8 64.65002L262.8 60.09002L59.27999 60.09002z" stroke="none" fill="#000000" fill-rule="nonzero" /></g></g></g></mask><clipPath id="104"><path id="" clip-rule="evenodd" transform="matrix(1 0 0 1 0 0)" d="M59.27999 777.35L262.8 777.35L262.8 777.35L262.8 781.91L262.8 781.91L59.27999 781.91z" /></clipPath><clipPath id="105"><path id="" clip-rule="evenodd" transform="matrix(1 0 0 1 0 0)" d="M59.03999 777.475L263.04 777.475L263.04 777.475L263.04 781.9902L263.04 781.9902L59.03999 781.9902z" /></clipPath><mask id="m10"><clipPath id="106"><path id="" clip-rule="evenodd" transform="matrix(1 0 0 1 0 0)" d="M59.27999 777.35L262.8 777.35L262.8 777.35L262.8 781.91L262.8 781.91L59.27999 781.91z" /></clipPath><clipPath id="107"><path id="" clip-rule="evenodd" transform="matrix(1 0 0 1 0 0)" d="M59.27999 777.35L262.8 777.35L262.8 777.35L262.8 781.91L262.8 781.91L59.27999 781.91z" /></clipPath><clipPath id="108"><path id="" clip-rule="evenodd" transform="matrix(1 0 0 1 0 0)" d="M59.38843 777.475L262.6088 777.475L262.6088 777.475L262.6088 781.8096L262.6088 781.8096L59.38843 781.8096z" /></clipPath><g><g><g clip-path="url(#106)"><g><g clip-path="url(#107)"><g clip-path="url(#108)"><g transform="matrix(0.24 0 0 0.24 59.27999 777.35)"><g transform="matrix(1 0 0 1 0 0)"><image x="0" y="0" xlink:href="img_12.png" width="848" height="19" /></g></g></g></g></g></g></g></g></mask><clipPath id="109"><path id="" clip-rule="evenodd" transform="matrix(1 0 0 1 0 0)" d="M59.27999 777.35L262.8 777.35L262.8 777.35L262.8 781.91L262.8 781.91L59.27999 781.91z" /></clipPath><clipPath id="110"><path id="" clip-rule="evenodd" transform="matrix(1 0 0 1 0 0)" d="M59.03999 777.475L263.04 777.475L263.04 777.475L263.04 781.9902L263.04 781.9902L59.03999 781.9902z" /></clipPath><clipPath id="111"><path id="" clip-rule="evenodd" transform="matrix(1 0 0 1 0 0)" d="M0 -0.25L595.5 -0.25L595.5 -0.25L595.5 842.0012L595.5 842.0012L0 842.0012z" /></clipPath><clipPath id="112"><path id="" clip-rule="evenodd" transform="matrix(1 0 0 1 0 0)" d="M0 -0.25L595.5 -0.25L595.5 -0.25L595.5 842.0012L595.5 842.0012L0 842.0012z" /></clipPath><clipPath id="113"><path id="" clip-rule="evenodd" transform="matrix(1 0 0 1 0 0)" d="M59.36928 614.4716L160.9745 614.4716L160.9745 614.4716L160.9745 715.6815L160.9745 715.6815L59.36928 715.6815z" /></clipPath><clipPath id="114"><path id="" clip-rule="evenodd" transform="matrix(1 0 0 1 0 0)" d="M72.11928 614.4716L147.8662 614.4716C 154.9077 614.4716 160.6162 620.1788 160.6162 627.2204L160.6162 627.2204L160.6162 702.9308C 160.6162 709.9724 154.9077 715.682 147.8662 715.682L147.8662 715.682L72.11928 715.682C 65.07744 715.682 59.36928 709.9724 59.36928 702.9308L59.36928 702.9308L59.36928 627.2204C 59.36928 620.1788 65.07744 614.4716 72.11928 614.4716z" /></clipPath><clipPath id="115"><path id="" clip-rule="evenodd" transform="matrix(1 0 0 1 0 0)" d="M59.36928 614.4716L160.5792 614.4716L160.5792 614.4716L160.5792 715.6815L160.5792 715.6815L59.36928 715.6815z" /></clipPath><clipPath id="116"><path id="" clip-rule="evenodd" transform="matrix(1 0 0 1 0 0)" d="M0 -0.25L595.5 -0.25L595.5 -0.25L595.5 842.0012L595.5 842.0012L0 842.0012z" /></clipPath><clipPath id="117"><path id="" clip-rule="evenodd" transform="matrix(1 0 0 1 0 0)" d="M0 -0.25L595.5 -0.25L595.5 -0.25L595.5 842.0012L595.5 842.0012L0 842.0012z" /></clipPath><clipPath id="118"><path id="" clip-rule="evenodd" transform="matrix(1 0 0 1 0 0)" d="M166.849 669.6668L269.9095 669.6668L269.9095 669.6668L269.9095 772.3264L269.9095 772.3264L166.849 772.3264z" /></clipPath><clipPath id="119"><path id="" clip-rule="evenodd" transform="matrix(1 0 0 1 0 0)" d="M179.599 669.6668L256.7952 669.6668C 263.8368 669.6668 269.5464 675.374 269.5464 682.4156L269.5464 682.4156L269.5464 759.5756C 269.5464 766.6172 263.8368 772.3268 256.7952 772.3268L256.7952 772.3268L179.599 772.3268C 172.5574 772.3268 166.849 766.6172 166.849 759.5756L166.849 759.5756L166.849 682.4156C 166.849 675.374 172.5574 669.6668 179.599 669.6668z" /></clipPath><clipPath id="120"><path id="" clip-rule="evenodd" transform="matrix(1 0 0 1 0 0)" d="M166.849 669.6668L269.5085 669.6668L269.5085 669.6668L269.5085 772.3264L269.5085 772.3264L166.849 772.3264z" /></clipPath><clipPath id="121"><path id="" clip-rule="evenodd" transform="matrix(1 0 0 1 0 0)" d="M0 -0.25L595.5 -0.25L595.5 -0.25L595.5 842.0012L595.5 842.0012L0 842.0012z" /></clipPath><clipPath id="122"><path id="" clip-rule="evenodd" transform="matrix(1 0 0 1 0 0)" d="M489.3888 8.540771L589.1388 8.540771L589.1388 8.540771L589.1388 64.79077L589.1388 64.79077L489.3888 64.79077z" /></clipPath><clipPath id="123"><path id="" clip-rule="evenodd" transform="matrix(1 0 0 1 0 0)" d="M0 -0.25L595.5 -0.25L595.5 -0.25L595.5 842.0012L595.5 842.0012L0 842.0012z" /></clipPath></defs><g transform="matrix(1.333333 0 0 1.333333 0 0)"><g clip-path="url(#1)"><g clip-path="url(#2)"><path id="1" transform="matrix(1 0 0 -1 0 842)" d="M0 842.25L595.4999 842.25L595.4999 0L0 0z" stroke="none" fill="#FFFFFF" fill-rule="nonzero" /></g><g clip-path="url(#3)"><path id="2" transform="matrix(1 0 0 -1 0 842)" d="M0 842.25L595.4999 842.25L595.4999 0L0 0z" stroke="none" fill="#FFFFFF" fill-rule="nonzero" /></g><g clip-path="url(#4)"><g><g clip-path="url(#5)"><g clip-path="url(#6)"><g transform="matrix(0 0.975 -0.9768211 0 522.0178 30.75183)"><g transform="matrix(1 0 0 1 0 0)"><image x="0" y="0" xlink:href="img_01.png" width="800" height="453" /></g></g></g></g></g></g><g clip-path="url(#7)"><g clip-path="url(#8)"><g clip-path="url(#9)"><g clip-path="url(#10)"><path id="4" transform="matrix(1 0 0 -1 0 842)" d="M46.848 833.4592L286.7122 833.4592L286.7122 563.6119L46.848 563.6119z" stroke="none" fill="#1D70B7" fill-rule="nonzero" /></g></g></g></g><g clip-path="url(#11)"><g><g clip-path="url(#12)"><g mask="url(#m1)"><g><g clip-path="url(#14)"><g clip-path="url(#15)"><path id="6" transform="matrix(1 0 0 -1 0 842)" d="M48.60609 605.5508L278.9557 605.5508L278.9557 600.6566L48.60609 600.6566z" stroke="none" fill="#000000" fill-rule="nonzero" /></g></g></g></g><g mask="url(#m2)"><g><g clip-path="url(#19)"><g clip-path="url(#20)"><path id="8" transform="matrix(1 0 0 -1 0 842)" d="M48.60609 605.5508L278.9557 605.5508L278.9557 600.6566L48.60609 600.6566z" stroke="none" fill="#000000" fill-rule="nonzero" /></g></g></g></g></g></g></g><g clip-path="url(#21)"><g clip-path="url(#22)"><g clip-path="url(#23)"><g clip-path="url(#24)"><g clip-path="url(#25)"><g transform="matrix(0.6192325 0 0 0.6189481 60.86352 80.37012)"><g transform="matrix(1 0 0 1 0 0)"><image x="0" y="0" xlink:href="img_03.png" width="332" height="243" /></g></g></g></g></g></g></g><g clip-path="url(#26)"></g><g clip-path="url(#27)"><g clip-path="url(#28)"><g clip-path="url(#29)"><g clip-path="url(#30)"><path id="127" transform="matrix(1 0 0 -1 0 842)" d="M312.3504 740.6551L585.7953 740.6551L585.7953 481.3887L312.3504 481.3887z" stroke="none" fill="#1D70B7" fill-rule="nonzero" /></g></g></g></g><g clip-path="url(#31)"><g><g clip-path="url(#32)"><g mask="url(#m3)"><g><g clip-path="url(#34)"><g clip-path="url(#35)"><path id="129" transform="matrix(1 0 0 -1 0 842)" d="M330.1379 505.9977L567.8533 505.9977L567.8533 500.9469L330.1379 500.9469z" stroke="none" fill="#000000" fill-rule="nonzero" /></g></g></g></g><g mask="url(#m4)"><g><g clip-path="url(#39)"><g clip-path="url(#40)"><path id="131" transform="matrix(1 0 0 -1 0 842)" d="M330.1379 505.9977L567.8533 505.9977L567.8533 500.9469L330.1379 500.9469z" stroke="none" fill="#000000" fill-rule="nonzero" /></g></g></g></g></g></g></g><g clip-path="url(#41)"><g clip-path="url(#42)"><g clip-path="url(#43)"><g clip-path="url(#44)"><g clip-path="url(#45)"><g transform="matrix(0.5435686 0 0 0.5446082 325.836 190.4341)"><g transform="matrix(1 0 0 1 0 0)"><image x="0" y="0" xlink:href="img_05.png" width="229" height="184" /></g></g></g></g></g></g></g><g clip-path="url(#46)"><g clip-path="url(#47)"><g clip-path="url(#48)"><g clip-path="url(#49)"><g clip-path="url(#50)"><g transform="matrix(0.5271 0 0 0.5293425 453.0264 224.9216)"><g transform="matrix(1 0 0 1 0 0)"><image x="0" y="0" xlink:href="img_06.png" width="236" height="160" /></g></g></g></g></g></g></g><g clip-path="url(#51)"></g><g clip-path="url(#52)"><g clip-path="url(#53)"><g clip-path="url(#54)"><g clip-path="url(#55)"><path id="235" transform="matrix(1 0 0 -1 0 842)" d="M312.3504 442.4772L553.3297 442.4772L553.3297 201.4978L312.3504 201.4978z" stroke="none" fill="#1D70B7" fill-rule="nonzero" /></g></g></g></g><g clip-path="url(#56)"><g><g clip-path="url(#57)"><g mask="url(#m5)"><g><g clip-path="url(#59)"><g clip-path="url(#60)"><path id="237" transform="matrix(1 0 0 -1 0 842)" d="M325.3064 227.551L535.2755 227.551L535.2755 223.2215L325.3064 223.2215z" stroke="none" fill="#000000" fill-rule="nonzero" /></g></g></g></g><g mask="url(#m6)"><g><g clip-path="url(#64)"><g clip-path="url(#65)"><path id="239" transform="matrix(1 0 0 -1 0 842)" d="M325.3064 227.551L535.2755 227.551L535.2755 223.2215L325.3064 223.2215z" stroke="none" fill="#000000" fill-rule="nonzero" /></g></g></g></g></g></g></g><g clip-path="url(#66)"><g clip-path="url(#67)"><g clip-path="url(#68)"><g clip-path="url(#69)"><g clip-path="url(#70)"><g transform="matrix(0.5626005 0 0 0.5617313 343.8648 458.4152)"><g transform="matrix(1 0 0 1 0 0)"><image x="0" y="0" xlink:href="img_08.png" width="308" height="265" /></g></g></g></g></g></g></g><g clip-path="url(#71)"></g><g clip-path="url(#72)"><g clip-path="url(#73)"><g clip-path="url(#74)"><g clip-path="url(#75)"><path id="305" transform="matrix(1 0 0 -1 0 842)" d="M46.848 541.3452L286.7122 541.3452L286.7122 287.4264L46.848 287.4264z" stroke="none" fill="#939CAB" fill-rule="nonzero" /></g></g></g></g><g clip-path="url(#76)"><g><g clip-path="url(#77)"><g mask="url(#m7)"><g><g clip-path="url(#79)"><g clip-path="url(#80)"><path id="307" transform="matrix(1 0 0 -1 0 842)" d="M58.29863 328.3472L288.6483 328.3472L288.6483 323.4529L58.29863 323.4529z" stroke="none" fill="#000000" fill-rule="nonzero" /></g></g></g></g><g mask="url(#m8)"><g><g clip-path="url(#84)"><g clip-path="url(#85)"><path id="309" transform="matrix(1 0 0 -1 0 842)" d="M58.29863 328.3472L288.6483 328.3472L288.6483 323.4529L58.29863 323.4529z" stroke="none" fill="#000000" fill-rule="nonzero" /></g></g></g></g></g></g></g><g clip-path="url(#86)"><g clip-path="url(#87)"><g clip-path="url(#88)"><g clip-path="url(#89)"><g clip-path="url(#90)"><g transform="matrix(0.6384641 0 0 0.6382993 61.90992 380.3007)"><g transform="matrix(1 0 0 1 0 0)"><image x="0" y="0" xlink:href="img_10.png" width="161" height="186" /></g></g></g></g></g></g></g><g clip-path="url(#91)"><g clip-path="url(#92)"><g clip-path="url(#93)"><g clip-path="url(#94)"><g clip-path="url(#95)"><g transform="matrix(0.6099123 0 0 0.6107109 172.025 396.1205)"><g transform="matrix(1 0 0 1 0 0)"><image x="0" y="0" xlink:href="img_11.png" width="176" height="159" /></g></g></g></g></g></g></g><g clip-path="url(#96)"></g><g clip-path="url(#97)"><g clip-path="url(#98)"><g clip-path="url(#99)"><g clip-path="url(#100)"><path id="443" transform="matrix(1 0 0 -1 0 842)" d="M46.848 272.5356L280.0847 272.5356L280.0847 39.29889L46.848 39.29889z" stroke="none" fill="#1D70B7" fill-rule="nonzero" /></g></g></g></g><g clip-path="url(#101)"><g><g clip-path="url(#102)"><g mask="url(#m9)"><g><g clip-path="url(#104)"><g clip-path="url(#105)"><path id="445" transform="matrix(1 0 0 -1 0 842)" d="M59.38844 64.52497L262.6087 64.52497L262.6087 60.19044L59.38844 60.19044z" stroke="none" fill="#000000" fill-rule="nonzero" /></g></g></g></g><g mask="url(#m10)"><g><g clip-path="url(#109)"><g clip-path="url(#110)"><path id="447" transform="matrix(1 0 0 -1 0 842)" d="M59.38844 64.52497L262.6087 64.52497L262.6087 60.19044L59.38844 60.19044z" stroke="none" fill="#000000" fill-rule="nonzero" /></g></g></g></g></g></g></g><g clip-path="url(#111)"><g clip-path="url(#112)"><g clip-path="url(#113)"><g clip-path="url(#114)"><g clip-path="url(#115)"><g transform="matrix(0.4714433 0 0 0.4707438 53.64672 614.472)"><g transform="matrix(1 0 0 1 0 0)"><image x="0" y="0" xlink:href="img_13.png" width="239" height="215" /></g></g></g></g></g></g></g><g clip-path="url(#116)"><g clip-path="url(#117)"><g clip-path="url(#118)"><g clip-path="url(#119)"><g clip-path="url(#120)"><g transform="matrix(0.436849 0 0 0.4359565 166.8489 668.4469)"><g transform="matrix(1 0 0 1 0 0)"><image x="0" y="0" xlink:href="img_14.png" width="235" height="241" /></g></g></g></g></g></g></g><g clip-path="url(#121)"></g><g clip-path="url(#122)"><g transform="matrix(0.1246875 0 0 0.1241722 489.3888 8.540771)"><g transform="matrix(1 0 0 1 0 0)"><image x="0" y="0" xlink:href="img_15.png" width="800" height="453" /></g></g></g><g clip-path="url(#123)"></g></g></g></svg>