<svg xmlns="http://www.w3.org/2000/svg" xmlns:xlink="http://www.w3.org/1999/xlink" id="body_1" preserveAspectRatio="xMinYMin meet" viewBox="0 0 793 1123"><defs><clipPath id="1"><path id="" clip-rule="evenodd" transform="matrix(1 0 0 1 0 0)" d="M0 842L0 -0.25L0 -0.25L595.5 -0.25L595.5 -0.25L595.5 842L595.5 842L0 842z" /></clipPath><clipPath id="2"><path id="" clip-rule="evenodd" transform="matrix(1 0 0 1 0 0)" d="M0 -0.249939L595.5 -0.249939L595.5 -0.249939L595.5 842.0001L595.5 842.0001L0 842.0001z" /></clipPath><clipPath id="3"><path id="" clip-rule="evenodd" transform="matrix(1 0 0 1 0 0)" d="M0 -0.249939L595.5 -0.249939L595.5 -0.249939L595.5 842.0001L595.5 842.0001L0 842.0001z" /></clipPath><clipPath id="4"><path id="" clip-rule="evenodd" transform="matrix(1 0 0 1 0 0)" d="M0 -0.249939L595.5 -0.249939L595.5 -0.249939L595.5 842.0001L595.5 842.0001L0 842.0001z" /></clipPath><clipPath id="5"><path id="" clip-rule="evenodd" transform="matrix(1 0 0 1 0 0)" d="M79.67999 38.15009L535.92 38.15009L535.92 38.15009L535.92 842.1501L535.92 842.1501L79.67999 842.1501z" /></clipPath><clipPath id="6"><path id="" clip-rule="evenodd" transform="matrix(1 0 0 1 0 0)" d="M79.74931 38.35956L535.7493 38.35956L535.7493 38.35956L535.7493 841.6096L535.7493 841.6096L79.74931 841.6096z" /></clipPath><clipPath id="7"><path id="" clip-rule="evenodd" transform="matrix(1 0 0 1 0 0)" d="M34.30912 340.3795L359.8091 340.3795L359.8091 340.3795L359.8091 644.8795L359.8091 644.8795L34.30912 644.8795z" /></clipPath><clipPath id="8"><path id="" clip-rule="evenodd" transform="matrix(1 0 0 1 0 0)" d="M376.5067 395.9512L570.0068 395.9512L570.0068 395.9512L570.0068 612.7012L570.0068 612.7012L376.5067 612.7012z" /></clipPath><clipPath id="9"><path id="" clip-rule="evenodd" transform="matrix(1 0 0 1 0 0)" d="M0 -0.249939L595.5 -0.249939L595.5 -0.249939L595.5 842.0001L595.5 842.0001L0 842.0001z" /></clipPath><clipPath id="10"><path id="" clip-rule="evenodd" transform="matrix(1 0 0 1 0 0)" d="M499.6608 11.00061L584.4108 11.00061L584.4108 11.00061L584.4108 59.00061L584.4108 59.00061L499.6608 59.00061z" /></clipPath><clipPath id="11"><path id="" clip-rule="evenodd" transform="matrix(1 0 0 1 0 0)" d="M6.042091 6.794739L79.54209 6.794739L79.54209 6.794739L79.54209 72.04474L79.54209 72.04474L6.042091 72.04474z" /></clipPath></defs><g transform="matrix(1.333333 0 0 1.333333 0 0)"><g clip-path="url(#1)"><g clip-path="url(#2)"><path id="1" transform="matrix(1 0 0 -1 0 842)" d="M0 842.2499L595.4999 842.2499L595.4999 -6.103516E-05L0 -6.103516E-05z" stroke="none" fill="#FFFFFF" fill-rule="nonzero" /></g><g clip-path="url(#3)"><path id="2" transform="matrix(1 0 0 -1 0 842)" d="M0 842.2499L595.4999 842.2499L595.4999 -6.103516E-05L0 -6.103516E-05z" stroke="none" fill="#FFFFFF" fill-rule="nonzero" /></g><g clip-path="url(#4)"><g><g clip-path="url(#5)"><g clip-path="url(#6)"><g transform="matrix(0 0.5281065 -0.5283893 0 535.7493 38.35962)"><g transform="matrix(1 0 0 1 0 0)"><image x="0" y="0" xlink:href="img_01.png" width="1521" height="863" /></g></g></g></g></g></g><g clip-path="url(#7)"><g transform="matrix(0.8137499 0 0 0.8138298 34.30911 284.0825)"><g transform="matrix(1 0 0 1 0 0)"><image x="0" y="0" xlink:href="img_02.png" width="400" height="517" /></g></g></g><g clip-path="url(#8)"><g transform="matrix(0.4987113 0 0 0.4982758 376.5067 395.9512)"><g transform="matrix(1 0 0 1 0 0)"><image x="0" y="0" xlink:href="img_03.png" width="388" height="435" /></g></g></g><g clip-path="url(#9)"></g><g clip-path="url(#10)"><g transform="matrix(0.05571992 0 0 0.05561992 499.6608 11.00061)"><g transform="matrix(1 0 0 1 0 0)"><image x="0" y="0" xlink:href="img_04.png" width="1521" height="863" /></g></g></g><g clip-path="url(#11)"><g transform="matrix(0.459375 0 0 0.4627659 6.042091 6.7948)"><g transform="matrix(1 0 0 1 0 0)"><image x="0" y="0" xlink:href="img_05.png" width="160" height="141" /></g></g></g></g></g></svg>