<svg xmlns="http://www.w3.org/2000/svg" xmlns:xlink="http://www.w3.org/1999/xlink" id="body_1" preserveAspectRatio="xMinYMin meet" viewBox="0 0 793 1123"><defs><clipPath id="1"><path id="" clip-rule="evenodd" transform="matrix(1 0 0 1 0 0)" d="M0 842L0 -0.25L0 -0.25L595.5 -0.25L595.5 -0.25L595.5 842L595.5 842L0 842z" /></clipPath><clipPath id="2"><path id="" clip-rule="evenodd" transform="matrix(1 0 0 1 0 0)" d="M0 -0.249939L595.5 -0.249939L595.5 -0.249939L595.5 842.0001L595.5 842.0001L0 842.0001z" /></clipPath><clipPath id="3"><path id="" clip-rule="evenodd" transform="matrix(1 0 0 1 0 0)" d="M0 -0.249939L595.5 -0.249939L595.5 -0.249939L595.5 842.0001L595.5 842.0001L0 842.0001z" /></clipPath><clipPath id="4"><path id="" clip-rule="evenodd" transform="matrix(1 0 0 1 0 0)" d="M0 -0.249939L595.5 -0.249939L595.5 -0.249939L595.5 842.0001L595.5 842.0001L0 842.0001z" /></clipPath><clipPath id="5"><path id="" clip-rule="evenodd" transform="matrix(1 0 0 1 0 0)" d="M80.88 18.95007L537.12 18.95007L537.12 18.95007L537.12 823.1901L537.12 823.1901L80.88 823.1901z" /></clipPath><clipPath id="6"><path id="" clip-rule="evenodd" transform="matrix(1 0 0 1 0 0)" d="M81.0154 19.05255L537.0154 19.05255L537.0154 19.05255L537.0154 822.3026L537.0154 822.3026L81.0154 822.3026z" /></clipPath><clipPath id="7"><path id="" clip-rule="evenodd" transform="matrix(1 0 0 1 0 0)" d="M22.08 558.7101L218.88 558.7101L218.88 558.7101L218.88 756.9501L218.88 756.9501L22.08 756.9501z" /></clipPath><clipPath id="8"><path id="" clip-rule="evenodd" transform="matrix(1 0 0 1 0 0)" d="M22.30651 558.8423L218.6558 558.8423L218.6558 558.8423L218.6558 756.7256L218.6558 756.7256L22.30651 756.7256z" /></clipPath><clipPath id="9"><path id="" clip-rule="evenodd" transform="matrix(1 0 0 1 0 0)" d="M47.05651 558.8423L193.9058 558.8423C 200.4699 558.8423 206.7652 561.4499 211.4067 566.0914C 216.0482 570.7329 218.6558 577.0282 218.6558 583.5923L218.6558 583.5923L218.6558 731.9462C 218.6558 738.5103 216.0482 744.8056 211.4067 749.4471C 206.7652 754.0886 200.4699 756.6962 193.9058 756.6962L193.9058 756.6962L47.05651 756.6962C 40.49241 756.6962 34.19715 754.0886 29.55562 749.4471C 24.9141 744.8056 22.30651 738.5103 22.30651 731.9462L22.30651 731.9462L22.30651 583.5923C 22.30651 577.0282 24.9141 570.7329 29.55562 566.0914C 34.19715 561.4499 40.49241 558.8423 47.05651 558.8423z" /></clipPath><clipPath id="10"><path id="" clip-rule="evenodd" transform="matrix(1 0 0 1 0 0)" d="M50.68153 565.7034L179.6109 565.7034L179.6109 565.7034L179.6109 596.1113L179.6109 596.1113L50.68153 596.1113z" /></clipPath><clipPath id="11"><path id="" clip-rule="evenodd" transform="matrix(1 0 0 1 0 0)" d="M62.93501 640.1911L124.1562 640.1911L124.1562 640.1911L124.1562 701.4122L124.1562 701.4122L62.93501 701.4122z" /></clipPath><clipPath id="12"><path id="" clip-rule="evenodd" transform="matrix(1 0 0 1 0 0)" d="M29.13871 601.0567L87.11637 601.0567L87.11637 601.0567L87.11637 659.0343L87.11637 659.0343L29.13871 659.0343z" /></clipPath><clipPath id="13"><path id="" clip-rule="evenodd" transform="matrix(1 0 0 1 0 0)" d="M120.3804 663.8102L203.0898 663.8102L203.0898 663.8102L203.0898 742.8707L203.0898 742.8707L120.3804 742.8707z" /></clipPath><clipPath id="14"><path id="" clip-rule="evenodd" transform="matrix(1 0 0 1 0 0)" d="M115.1854 603.0498L161.8108 603.0498L161.8108 603.0498L161.8108 649.6752L161.8108 649.6752L115.1854 649.6752z" /></clipPath><clipPath id="15"><path id="" clip-rule="evenodd" transform="matrix(1 0 0 1 0 0)" d="M29.13871 701.2553L111.0372 701.2553L111.0372 701.2553L111.0372 742.61L111.0372 742.61L29.13871 742.61z" /></clipPath><clipPath id="16"><path id="" clip-rule="evenodd" transform="matrix(1 0 0 1 0 0)" d="M169.7382 604.7057L203.3896 604.7057L203.3896 604.7057L203.3896 667.1432L203.3896 667.1432L169.7382 667.1432z" /></clipPath><clipPath id="17"><path id="" clip-rule="evenodd" transform="matrix(1 0 0 1 0 0)" d="M159.9865 37.82147L435.0639 37.82147L435.0639 37.82147L435.0639 305.9429L435.0639 305.9429L159.9865 305.9429z" /></clipPath><clipPath id="18"><path id="" clip-rule="evenodd" transform="matrix(1 0 0 1 0 0)" d="M0 -0.249939L595.5 -0.249939L595.5 -0.249939L595.5 842.0001L595.5 842.0001L0 842.0001z" /></clipPath><clipPath id="19"><path id="" clip-rule="evenodd" transform="matrix(1 0 0 1 0 0)" d="M466.4401 23.61578L551.1901 23.61578L551.1901 23.61578L551.1901 71.61578L551.1901 71.61578L466.4401 71.61578z" /></clipPath><clipPath id="20"><path id="" clip-rule="evenodd" transform="matrix(1 0 0 1 0 0)" d="M38.88756 10.32037L128.8876 10.32037L128.8876 10.32037L128.8876 89.82037L128.8876 89.82037L38.88756 89.82037z" /></clipPath><clipPath id="21"><path id="" clip-rule="evenodd" transform="matrix(1 0 0 1 0 0)" d="M0 -0.249939L595.5 -0.249939L595.5 -0.249939L595.5 842.0001L595.5 842.0001L0 842.0001z" /></clipPath><clipPath id="22"><path id="" clip-rule="evenodd" transform="matrix(1 0 0 1 0 0)" d="M0 -0.249939L595.5 -0.249939L595.5 -0.249939L595.5 842.0001L595.5 842.0001L0 842.0001z" /></clipPath><clipPath id="23"><path id="" clip-rule="evenodd" transform="matrix(1 0 0 1 0 0)" d="M22.30651 290.9042L557.0186 290.9042L557.0186 290.9042L557.0186 305.5742L557.0186 305.5742L22.30651 305.5742z" /></clipPath><clipPath id="24"><path id="" clip-rule="evenodd" transform="matrix(1 0 0 1 0 0)" d="M29.64154 290.9042L549.6439 290.9042C 553.695 290.9042 556.9789 294.1882 556.9789 298.2392C 556.9789 302.2902 553.695 305.5742 549.6439 305.5742L549.6439 305.5742L29.64154 305.5742C 25.59052 305.5742 22.30651 302.2902 22.30651 298.2392C 22.30651 294.1882 25.59052 290.9042 29.64154 290.9042z" /></clipPath><clipPath id="25"><path id="" clip-rule="evenodd" transform="matrix(1 0 0 1 0 0)" d="M0 -0.249939L595.5 -0.249939L595.5 -0.249939L595.5 842.0001L595.5 842.0001L0 842.0001z" /></clipPath></defs><g transform="matrix(1.333333 0 0 1.333333 0 0)"><g clip-path="url(#1)"><g clip-path="url(#2)"><path id="1" transform="matrix(1 0 0 -1 0 842)" d="M0 842.2499L595.4999 842.2499L595.4999 -6.103516E-05L0 -6.103516E-05z" stroke="none" fill="#FFFFFF" fill-rule="nonzero" /></g><g clip-path="url(#3)"><path id="2" transform="matrix(1 0 0 -1 0 842)" d="M0 842.2499L595.4999 842.2499L595.4999 -6.103516E-05L0 -6.103516E-05z" stroke="none" fill="#FFFFFF" fill-rule="nonzero" /></g><g clip-path="url(#4)"><g><g clip-path="url(#5)"><g clip-path="url(#6)"><g transform="matrix(0 0.5281065 -0.5283893 0 537.0154 19.05261)"><g transform="matrix(1 0 0 1 0 0)"><image x="0" y="0" xlink:href="img_01.png" width="1521" height="863" /></g></g></g></g></g><g><g clip-path="url(#7)"><g clip-path="url(#8)"><g clip-path="url(#9)"><path id="4" transform="matrix(1 0 0 -1 0 842)" d="M22.30651 283.1577L218.6558 283.1577L218.6558 85.27438L22.30651 85.27438z" stroke="none" fill="#282222" fill-rule="nonzero" fill-opacity="0.3490196" /></g></g></g></g></g><g clip-path="url(#10)"><g transform="matrix(0.4080042 0 0 0.4054382 50.68153 563.1326)"><g transform="matrix(1 0 0 1 0 0)"><image x="0" y="0" xlink:href="img_02.png" width="316" height="90" /></g></g></g><g clip-path="url(#11)"><path id="6" transform="matrix(1 0 0 -1 0 842)" d="M119.6375 160.4279L104.3865 145.1364L82.7899 145.1078L67.49839 160.3588L67.46984 181.9554L82.72077 197.2469L104.3174 197.2755L119.6089 182.0245L119.6375 160.4279z" stroke="none" fill="#E80808" fill-rule="nonzero" /><path id="7" transform="matrix(1 0 0 -1 0 842)" d="M83.10223 196.3222L68.39424 181.5732L68.42253 160.7496L83.17235 146.035L103.9952 146.0697L118.7097 160.8195L118.6751 181.6423L103.9261 196.3503L83.10246 196.322L83.10223 196.3222z" stroke="none" fill="#FFFFFF" fill-rule="nonzero" /><path id="8" transform="matrix(1 0 0 -1 0 842)" d="M83.45015 195.4808L69.23734 181.2284L69.26488 161.0966L83.51814 146.8774L103.6491 146.9115L117.8683 161.1647L117.8342 181.2957L103.5817 195.5085L83.44993 195.481L83.45015 195.4808z" stroke="none" fill="#E80808" fill-rule="nonzero" /><path id="9" transform="matrix(1 0 0 -1 0 842)" d="M82.07954 174.5053L78.02387 174.5053L78.02387 174.5053L78.02387 175.75C 78.02386 176.3308 77.97201 176.7007 77.86829 176.8598C 77.76456 177.0189 77.59167 177.0984 77.34967 177.0984C 77.0869 177.0984 76.88637 176.9912 76.74808 176.7768C 76.6167 176.5625 76.551 176.2375 76.551 175.8018C 76.55099 175.2417 76.62707 174.8199 76.77921 174.5364C 76.92442 174.2529 77.33585 173.9106 78.01352 173.5095C 79.9566 172.3547 81.18059 171.4075 81.68534 170.6675C 82.1901 169.9276 82.44252 168.7348 82.44252 167.0891C 82.44251 165.8928 82.30077 165.0112 82.01727 164.4442C 81.74066 163.8771 81.20131 163.4 80.39918 163.0128C 79.59705 162.6324 78.66354 162.4423 77.59857 162.4423C 76.42995 162.4423 75.43068 162.6636 74.60107 163.1061C 73.77821 163.5487 73.23885 164.1122 72.98299 164.7968C 72.72714 165.4814 72.59921 166.4529 72.59921 167.7115L72.59921 167.7115L72.59921 168.811L72.59921 168.811L76.65488 168.811L76.65488 168.811L76.65488 166.7676C 76.65488 166.1384 76.7102 165.7338 76.82085 165.554C 76.9384 165.3743 77.14236 165.2843 77.4328 165.2843C 77.72324 165.2843 77.93758 165.3984 78.07588 165.6266C 78.2211 165.8548 78.29369 166.1937 78.2937 166.6431C 78.2937 167.632 78.15886 168.2785 77.88918 168.5828C 77.61257 168.887 76.93146 169.3953 75.84581 170.1075C 74.76016 170.8267 74.04102 171.3487 73.68848 171.6737C 73.33593 171.9987 73.04193 172.4482 72.80682 173.0221C 72.57863 173.5961 72.46452 174.329 72.46452 175.2211C 72.46452 176.5072 72.62703 177.4476 72.95201 178.0424C 73.28394 178.6371 73.81638 179.1004 74.54935 179.4323C 75.28233 179.7711 76.16743 179.9405 77.20462 179.9405C 78.33865 179.9405 79.30336 179.7572 80.09859 179.3908C 80.90073 179.0243 81.4297 178.561 81.68556 178.0009C 81.94832 177.4477 82.0797 176.5038 82.07972 175.1692L82.07972 175.1692L82.07972 174.5054M92.61799 179.5877L92.61799 176.227L90.02484 176.227L90.02484 162.7948L85.65799 162.7948L85.65799 176.227L83.07519 176.227L83.07519 179.5877L92.61778 179.5877M99.2252 175.2727C 99.22519 176.0541 99.18025 176.552 99.09035 176.7664C 99.00738 176.9876 98.83104 177.0983 98.56137 177.0983C 98.33318 177.0983 98.15685 177.0084 98.03239 176.8286C 97.91483 176.6557 97.85606 176.1371 97.85606 175.2727L97.85606 175.2727L97.85606 167.4312C 97.85605 166.4562 97.89408 165.8546 97.97015 165.6264C 98.05313 165.3982 98.23981 165.2841 98.53025 165.2841C 98.82758 165.2841 99.01775 165.4155 99.10072 165.6783C 99.1837 165.941 99.22517 166.5668 99.22519 167.5556L99.22519 167.5556L99.22519 175.2728M103.592 169.7547C 103.592 168.0675 103.5505 166.8711 103.4676 166.166C 103.3915 165.4675 103.1426 164.8279 102.7208 164.2471C 102.3059 163.6662 101.7423 163.2202 101.0301 162.909C 100.3178 162.5979 99.48803 162.4423 98.54064 162.4423C 97.64171 162.4423 96.83266 162.5875 96.11354 162.8779C 95.40131 163.1753 94.82735 163.6178 94.39172 164.2056C 93.9561 164.7933 93.69678 165.433 93.6138 166.1245C 93.53082 166.816 93.48933 168.0261 93.48933 169.7549L93.48933 169.7549L93.48933 172.628C 93.48933 174.3152 93.52736 175.5081 93.60342 176.2064C 93.6864 176.9117 93.93535 177.5548 94.35023 178.1357C 94.77203 178.7165 95.33907 179.1625 96.0513 179.4737C 96.76353 179.7849 97.59332 179.9404 98.54072 179.9404C 99.43965 179.9404 100.2452 179.7917 100.9575 179.4944C 101.6766 179.204 102.254 178.7649 102.6897 178.1771C 103.1253 177.5894 103.3846 176.9497 103.4676 176.2582C 103.5506 175.5668 103.592 174.3566 103.592 172.6278L103.592 172.6278L103.592 169.7548M109.5976 176.7146L109.5976 172.4411C 109.7221 172.4342 109.8292 172.4307 109.9191 172.4307C 110.3202 172.4307 110.5968 172.5275 110.7489 172.7212C 110.908 172.9217 110.9875 173.3331 110.9875 173.9555L110.9875 173.9555L110.9875 175.335C 110.9875 175.9089 110.8976 176.2823 110.7178 176.4552C 110.538 176.6281 110.1646 176.7145 109.5976 176.7145M105.2308 179.5875L109.6287 179.5875C 110.8181 179.5875 111.7308 179.4941 112.367 179.3074C 113.0101 179.1207 113.4907 178.851 113.8088 178.4984C 114.1338 178.1457 114.3516 177.717 114.4622 177.2122C 114.5797 176.7143 114.6385 175.9398 114.6385 174.8888L114.6385 174.8888L114.6385 173.4263C 114.6385 172.3545 114.5279 171.5731 114.3066 171.0822C 114.0853 170.5913 113.6774 170.2144 113.0827 169.9516C 112.4949 169.6889 111.7239 169.5575 110.7697 169.5575L110.7697 169.5575L109.5976 169.5575L109.5976 169.5575L109.5976 162.7948L109.5976 162.7948L105.2307 162.7948L105.2307 162.7948L105.2307 179.5876" stroke="none" fill="#FFFFFF" fill-rule="nonzero" /></g><g clip-path="url(#12)"><path id="10" transform="matrix(1 0 0 -1 0 842)" d="M32.28349 213.6846L56.39864 237.7998C 56.62868 238.0298 56.89394 238.207 57.19447 238.3315C 57.49501 238.4561 57.80794 238.5183 58.13329 238.5183C 58.45851 238.5183 58.77147 238.4561 59.07201 238.3316C 59.3726 238.2071 59.63789 238.0298 59.86794 237.7997L59.86794 237.7997L83.98308 213.6846C 84.21309 213.4546 84.39034 213.1894 84.51482 212.8888C 84.63936 212.5882 84.70164 212.2753 84.70164 211.9499C 84.70164 211.6246 84.63939 211.3117 84.51491 211.0111C 84.3904 210.7106 84.21312 210.4453 83.98308 210.2153L83.98308 210.2153L59.86794 186.1002C 59.63792 185.8701 59.37263 185.6929 59.0721 185.5684C 58.77153 185.4439 58.4586 185.3817 58.13329 185.3816C 57.80797 185.3817 57.49504 185.4439 57.19447 185.5684C 56.89391 185.6929 56.62865 185.8702 56.39864 186.1002L56.39864 186.1002L32.28349 210.2153C 32.05348 210.4453 31.87622 210.7106 31.75169 211.0112C 31.62724 211.3117 31.565 211.6246 31.565 211.95C 31.56496 212.2753 31.62721 212.5882 31.75172 212.8887C 31.87622 213.1893 32.0535 213.4546 32.28349 213.6846" stroke="none" fill="#F5AE14" fill-rule="nonzero" /><path id="11" transform="matrix(1 0 0 -1 0 842)" d="M32.28349 213.6846L56.39864 237.7998C 56.62868 238.0298 56.89394 238.207 57.19447 238.3315C 57.49501 238.4561 57.80794 238.5183 58.13329 238.5183C 58.45851 238.5183 58.77147 238.4561 59.07201 238.3316C 59.3726 238.2071 59.63789 238.0298 59.86794 237.7997L59.86794 237.7997L83.98308 213.6846C 84.21309 213.4546 84.39034 213.1894 84.51482 212.8888C 84.63936 212.5882 84.70164 212.2753 84.70164 211.9499C 84.70164 211.6246 84.63939 211.3117 84.51491 211.0111C 84.3904 210.7106 84.21312 210.4453 83.98308 210.2153L83.98308 210.2153L59.86794 186.1002C 59.63792 185.8701 59.37263 185.6929 59.0721 185.5684C 58.77153 185.4439 58.4586 185.3817 58.13329 185.3816C 57.80797 185.3817 57.49504 185.4439 57.19447 185.5684C 56.89391 185.6929 56.62865 185.8702 56.39864 186.1002L56.39864 186.1002L32.28349 210.2153C 32.05348 210.4453 31.87622 210.7106 31.75169 211.0112C 31.62724 211.3117 31.565 211.6246 31.565 211.95C 31.56496 212.2753 31.62721 212.5882 31.75172 212.8887C 31.87622 213.1893 32.0535 213.4546 32.28349 213.6846" stroke="#000000" stroke-width="2.003836" stroke-linecap="square" fill="none" /><path id="12" transform="matrix(1 0 0 -1 0 842)" d="M63.57796 198.9896L63.57796 216.6567L63.57796 216.6567L60.46382 215.9187C 59.83043 215.749 59.36397 215.8327 59.61931 216.2223L59.61931 216.2223L64.65749 223.907C 65.52663 225.2326 66.44102 225.2844 67.2805 223.907L67.2805 223.907L71.98741 216.1842C 72.40071 215.506 72.00853 215.5938 71.15785 215.8217L71.15785 215.8217L68.17989 216.5544L68.17989 216.5544L68.25856 198.9901L68.25856 198.9901L63.57793 198.9901L63.57793 198.9901L63.57796 198.9896z" stroke="none" fill="#000000" fill-rule="evenodd" /><path id="13" transform="matrix(1 0 0 -1 0 842)" d="M48.12837 224.9192L48.12837 207.252L48.12837 207.252L45.01424 207.9901C 44.38084 208.1598 43.91438 208.076 44.16972 207.6866L44.16972 207.6866L49.2079 200.0018C 50.07704 198.6762 50.99144 198.6244 51.83092 200.0018L51.83092 200.0018L56.53783 207.7246C 56.95116 208.4028 56.55894 208.315 55.7083 208.0871L55.7083 208.0871L52.73033 207.3544L52.73033 207.3544L52.80898 224.9187L52.80898 224.9187L48.12834 224.9187L48.12834 224.9187L48.12837 224.9192z" stroke="none" fill="#000000" fill-rule="evenodd" /></g><g clip-path="url(#13)"><g transform="matrix(0.4126141 0 0 0.4126141 113.1427 663.8102)"><g transform="matrix(1 0 0 1 0 0)"><image x="0" y="0" xlink:href="img_03.png" width="226" height="226" /></g></g></g><g clip-path="url(#14)"><g transform="matrix(0.2825781 0 0 0.2825781 115.1854 603.0498)"><g transform="matrix(1 0 0 1 0 0)"><image x="0" y="0" xlink:href="img_04.png" width="165" height="165" /></g></g></g><g clip-path="url(#15)"><g transform="matrix(0.4653324 0 0 0.4646595 29.13871 701.2554)"><g transform="matrix(1 0 0 1 0 0)"><image x="0" y="0" xlink:href="img_05.png" width="176" height="89" /></g></g></g><g clip-path="url(#16)"><g transform="matrix(0.5351784 0 0 0.5395681 167.014 604.7057)"><g transform="matrix(1 0 0 1 0 0)"><image x="0" y="0" xlink:href="img_06.png" width="75" height="133" /></g></g></g><g clip-path="url(#17)"><g transform="matrix(0.6058974 0 0 0.6066096 159.9865 37.82147)"><g transform="matrix(1 0 0 1 0 0)"><image x="0" y="0" xlink:href="img_07.png" width="454" height="442" /></g></g></g><g clip-path="url(#18)"></g><g clip-path="url(#19)"><g transform="matrix(0.05571992 0 0 0.05561992 466.4401 23.61584)"><g transform="matrix(1 0 0 1 0 0)"><image x="0" y="0" xlink:href="img_08.png" width="1521" height="863" /></g></g></g><g clip-path="url(#20)"><g transform="matrix(0.4225352 0 0 0.4228723 38.88755 10.32037)"><g transform="matrix(1 0 0 1 0 0)"><image x="0" y="0" xlink:href="img_09.png" width="213" height="188" /></g></g></g><g clip-path="url(#21)"><g clip-path="url(#22)"><g clip-path="url(#23)"><g clip-path="url(#24)"><path id="38" transform="matrix(1 0 0 -1 0 842)" d="M22.30651 551.0958L556.9613 551.0958L556.9613 536.4258L22.30651 536.4258z" stroke="none" fill="#D6E0E5" fill-rule="nonzero" /></g></g></g></g><g clip-path="url(#25)"></g></g></g></svg>