<svg xmlns="http://www.w3.org/2000/svg" xmlns:xlink="http://www.w3.org/1999/xlink" id="body_1" preserveAspectRatio="xMinYMin meet" viewBox="0 0 793 1123"><defs><clipPath id="1"><path id="" clip-rule="evenodd" transform="matrix(1 0 0 1 0 0)" d="M0 842L0 -0.250061L0 -0.250061L595.5 -0.250061L595.5 -0.250061L595.5 842L595.5 842L0 842z" /></clipPath><clipPath id="2"><path id="" clip-rule="evenodd" transform="matrix(1 0 0 1 0 0)" d="M0 -0.25L595.5 -0.25L595.5 -0.25L595.5 842.0012L595.5 842.0012L0 842.0012z" /></clipPath><clipPath id="3"><path id="" clip-rule="evenodd" transform="matrix(1 0 0 1 0 0)" d="M0 -0.25L595.5 -0.25L595.5 -0.25L595.5 842.0012L595.5 842.0012L0 842.0012z" /></clipPath><clipPath id="4"><path id="" clip-rule="evenodd" transform="matrix(1 0 0 1 0 0)" d="M0 -0.25L595.5 -0.25L595.5 -0.25L595.5 842.0012L595.5 842.0012L0 842.0012z" /></clipPath><clipPath id="5"><path id="" clip-rule="evenodd" transform="matrix(1 0 0 1 0 0)" d="M78.71999 30.71002L522.24 30.71002L522.24 30.71002L522.24 810.95L522.24 810.95L78.71999 810.95z" /></clipPath><clipPath id="6"><path id="" clip-rule="evenodd" transform="matrix(1 0 0 1 0 0)" d="M79.51786 30.75177L522.0178 30.75177L522.0178 30.75177L522.0178 810.7518L522.0178 810.7518L79.51786 810.7518z" /></clipPath><clipPath id="7"><path id="" clip-rule="evenodd" transform="matrix(1 0 0 1 0 0)" d="M41.92464 -0.25L233.9246 -0.25L233.9246 -0.25L233.9246 203.8018L233.9246 203.8018L41.92464 203.8018z" /></clipPath><clipPath id="8"><path id="" clip-rule="evenodd" transform="matrix(1 0 0 1 0 0)" d="M0 -0.25L595.5 -0.25L595.5 -0.25L595.5 842.0012L595.5 842.0012L0 842.0012z" /></clipPath><clipPath id="9"><path id="" clip-rule="evenodd" transform="matrix(1 0 0 1 0 0)" d="M231.4603 344.3948L568.9603 344.3948L568.9603 344.3948L568.9603 420.1448L568.9603 420.1448L231.4603 420.1448z" /></clipPath><clipPath id="10"><path id="" clip-rule="evenodd" transform="matrix(1 0 0 1 0 0)" d="M0 -0.25L595.5 -0.25L595.5 -0.25L595.5 842.0012L595.5 842.0012L0 842.0012z" /></clipPath><clipPath id="11"><path id="" clip-rule="evenodd" transform="matrix(1 0 0 1 0 0)" d="M234.023 230.8702L576.023 230.8702L576.023 230.8702L576.023 322.3702L576.023 322.3702L234.023 322.3702z" /></clipPath><clipPath id="12"><path id="" clip-rule="evenodd" transform="matrix(1 0 0 1 0 0)" d="M0 -0.25L595.5 -0.25L595.5 -0.25L595.5 842.0012L595.5 842.0012L0 842.0012z" /></clipPath><clipPath id="13"><path id="" clip-rule="evenodd" transform="matrix(1 0 0 1 0 0)" d="M14.34578 491.5532L356.3458 491.5532L356.3458 491.5532L356.3458 576.3032L356.3458 576.3032L14.34578 576.3032z" /></clipPath><clipPath id="14"><path id="" clip-rule="evenodd" transform="matrix(1 0 0 1 0 0)" d="M0 -0.25L595.5 -0.25L595.5 -0.25L595.5 842.0012L595.5 842.0012L0 842.0012z" /></clipPath><clipPath id="15"><path id="" clip-rule="evenodd" transform="matrix(1 0 0 1 0 0)" d="M54.90264 657.4988L198.9026 657.4988L198.9026 657.4988L198.9026 801.4988L198.9026 801.4988L54.90264 801.4988z" /></clipPath><clipPath id="16"><path id="" clip-rule="evenodd" transform="matrix(1 0 0 1 0 0)" d="M201.3981 663.8011L546.3981 663.8011L546.3981 663.8011L546.3981 798.8011L546.3981 798.8011L201.3981 798.8011z" /></clipPath><clipPath id="17"><path id="" clip-rule="evenodd" transform="matrix(1 0 0 1 0 0)" d="M0 -0.25L595.5 -0.25L595.5 -0.25L595.5 842.0012L595.5 842.0012L0 842.0012z" /></clipPath><clipPath id="18"><path id="" clip-rule="evenodd" transform="matrix(1 0 0 1 0 0)" d="M489.3888 8.540771L589.1388 8.540771L589.1388 8.540771L589.1388 64.79077L589.1388 64.79077L489.3888 64.79077z" /></clipPath><clipPath id="19"><path id="" clip-rule="evenodd" transform="matrix(1 0 0 1 0 0)" d="M0 -0.25L595.5 -0.25L595.5 -0.25L595.5 842.0012L595.5 842.0012L0 842.0012z" /></clipPath></defs><g transform="matrix(1.333333 0 0 1.333333 0 0)"><g clip-path="url(#1)"><g clip-path="url(#2)"><path id="1" transform="matrix(1 0 0 -1 0 842)" d="M0 842.25L595.4999 842.25L595.4999 0L0 0z" stroke="none" fill="#FFFFFF" fill-rule="nonzero" /></g><g clip-path="url(#3)"><path id="2" transform="matrix(1 0 0 -1 0 842)" d="M0 842.25L595.4999 842.25L595.4999 0L0 0z" stroke="none" fill="#FFFFFF" fill-rule="nonzero" /></g><g clip-path="url(#4)"><g><g clip-path="url(#5)"><g clip-path="url(#6)"><g transform="matrix(0 0.975 -0.9768211 0 522.0178 30.75183)"><g transform="matrix(1 0 0 1 0 0)"><image x="0" y="0" xlink:href="img_01.png" width="800" height="453" /></g></g></g></g></g></g><g clip-path="url(#7)"><path id="4" transform="matrix(1 0 0 -1 0 842)" d="M46.03446 822.7681C 46.36873 822.1252 47.01156 822.0353 47.62867 821.8939C 47.19155 822.5238 46.703 822.8066 46.03446 822.7681z" stroke="none" fill="#85A3BD" fill-rule="nonzero" /><path id="5" transform="matrix(1 0 0 -1 0 842)" d="M47.64153 821.881L47.64153 821.8939L47.62867 821.8939L47.64153 821.881z" stroke="none" fill="#85A3BD" fill-rule="nonzero" /><path id="6" transform="matrix(1 0 0 -1 0 842)" d="M47.74438 796.6436C 48.38721 796.1165 49.32573 796.2194 50.22569 796.2579C 49.44144 796.7336 48.68291 796.875 47.74438 796.6436z" stroke="none" fill="#85A3BD" fill-rule="nonzero" /><path id="7" transform="matrix(1 0 0 -1 0 842)" d="M50.23855 796.2579L50.2514 796.2708L50.21283 796.2708L50.23855 796.2579z" stroke="none" fill="#85A3BD" fill-rule="nonzero" /><path id="8" transform="matrix(1 0 0 -1 0 842)" d="M191.0948 809.0759C 191.2619 809.1916 191.429 809.3073 191.5704 809.4102" stroke="none" fill="#85A3BD" fill-rule="nonzero" /><path id="9" transform="matrix(1 0 0 -1 0 842)" d="M65.20355 699.911C 65.92352 699.4739 66.87491 699.6924 67.80058 699.8467C 66.95204 700.2196 66.14208 700.2582 65.20355 699.911z" stroke="none" fill="#85A3BD" fill-rule="nonzero" /><path id="10" transform="matrix(1 0 0 -1 0 842)" d="M67.82629 699.8339L67.83914 699.8467L67.80058 699.8467L67.82629 699.8339z" stroke="none" fill="#85A3BD" fill-rule="nonzero" /><path id="11" transform="matrix(1 0 0 -1 0 842)" d="M46.85728 713.2304C 47.53867 712.6904 48.60577 712.7676 49.62143 712.7933C 48.78576 713.2818 47.93723 713.4361 46.85728 713.2304z" stroke="none" fill="#85A3BD" fill-rule="nonzero" /><path id="12" transform="matrix(1 0 0 -1 0 842)" d="M49.64715 712.7804L49.66 712.7933L49.62143 712.7933L49.64715 712.7804z" stroke="none" fill="#85A3BD" fill-rule="nonzero" /><path id="13" transform="matrix(1 0 0 -1 0 842)" d="M215.4579 801.3362C 216.3321 801.7605 217.3349 802.1334 218.2478 802.5062C 217.3864 802.1976 216.3578 801.812 215.4579 801.3362z" stroke="none" fill="#85A3BD" fill-rule="nonzero" /><path id="14" transform="matrix(1 0 0 -1 0 842)" d="M70.97614 658.3458C 71.60611 657.8959 72.40321 658.0758 73.16175 658.2044C 72.41607 658.603 71.74753 658.6672 70.97614 658.3458z" stroke="none" fill="#85A3BD" fill-rule="nonzero" /><path id="15" transform="matrix(1 0 0 -1 0 842)" d="M228.5458 719.9415C 228.3016 719.9415 228.0701 719.9286 227.8387 719.8644C 228.0573 719.8901 228.3016 719.9158 228.5458 719.9415z" stroke="none" fill="#85A3BD" fill-rule="nonzero" /><path id="16" transform="matrix(1 0 0 -1 0 842)" d="M207.5511 745.5903C 207.7311 745.616 207.9111 745.6674 208.0782 745.7574C 207.924 745.7189 207.744 745.6545 207.5511 745.5903z" stroke="none" fill="#85A3BD" fill-rule="nonzero" /><path id="17" transform="matrix(1 0 0 -1 0 842)" d="M79.23004 638.8168C 79.91144 638.3796 80.79854 638.5853 81.64706 638.7396C 80.8371 639.1124 80.09142 639.151 79.23004 638.8168z" stroke="none" fill="#85A3BD" fill-rule="nonzero" /><path id="18" transform="matrix(1 0 0 -1 0 842)" d="M81.65992 638.7267L81.67278 638.7396L81.64706 638.7396L81.65992 638.7267z" stroke="none" fill="#85A3BD" fill-rule="nonzero" /><path id="19" transform="matrix(1 0 0 -1 0 842)" d="M228.083 718.8616C 228.3016 718.9258 228.533 719.0158 228.7258 719.1444C 228.533 719.0673 228.3144 718.9644 228.083 718.8616z" stroke="none" fill="#85A3BD" fill-rule="nonzero" /><path id="20" transform="matrix(1 0 0 -1 0 842)" d="M191.0948 809.0759C 191.2619 809.1916 191.429 809.3073 191.5704 809.4102C 191.429 809.3073 191.2619 809.1916 191.0948 809.0759zM229.6129 718.6044C 229.3558 718.8744 228.2887 718.6558 227.8259 718.2573L227.8259 718.2573L228.0187 717.473C 226.8873 716.7402 227.5559 717.8073 226.3859 717.2931C 226.0903 717.8845 227.1445 718.4373 228.083 718.8616C 227.183 718.5916 226.1417 718.7073 226.0388 717.8973C 225.1131 717.833 225.846 718.6816 224.7532 718.553C 224.1232 718.103 223.4161 717.1516 222.4776 717.2031L222.4776 717.2031L222.4518 717.3188C 220.2405 717.1902 219.8034 715.236 217.7592 715.1718L217.7592 715.1718L217.8749 715.4546C 217.1035 715.5703 216.0364 714.6189 214.7379 714.5546C 215.1108 714.5546 215.5607 714.2203 214.905 713.8861C 214.0951 713.8218 213.5037 713.5775 212.938 713.3846C 212.6809 713.9118 212.398 714.4775 212.1023 715.0817C 212.8223 715.3389 213.388 715.5189 213.7737 715.6089C 215.0979 715.6989 214.4165 714.6189 214.4422 714.5032C 215.7793 715.326 214.7765 715.4674 216.0107 715.8917C 216.3964 715.9045 216.1521 715.3389 216.0107 715.1589C 216.5121 715.4546 217.1035 715.4288 217.0135 715.7631C 216.255 715.7374 216.1907 716.6888 215.6893 717.113L215.6893 717.113L217.2707 717.6788L217.2707 717.6788L217.4121 717.1259C 217.7721 717.2545 217.7078 718.9387 219.3534 719.2729C 222.0276 720.1086 224.7532 721.4329 227.3888 722.4228C 227.4788 722.0886 227.0159 721.6771 226.5531 721.2529C 226.9002 721.3815 227.4016 721.69 227.813 721.6C 226.9516 721.8957 228.7387 722.4357 228.1602 722.4614C 228.2887 722.6671 228.4559 722.847 228.623 723.0142C 228.5073 721.7286 228.443 720.8286 228.4559 720.5586C 227.903 720.5458 227.3373 720.5458 227.1702 720.6486C 227.3373 720.3015 228.443 720.2115 229.0087 720.4429L229.0087 720.4429L229.0601 721.24C 230.3843 721.6 229.4072 720.79 230.7057 720.9186C 230.8214 720.2758 229.6258 720.0573 228.5715 719.9286C 229.5229 719.9158 230.5129 719.4915 230.8472 720.2372C 231.6957 720.0315 230.9115 719.5044 231.7214 719.2729L231.7214 719.2729L230.5386 724.2227C 231.7471 724.737 233.007 725.0841 233.7527 725.9841C 233.6884 726.1898 233.5213 726.9226 233.5599 728.144L233.5599 728.144L230.32 741.6819C 230.1786 738.9435 229.7029 734.0065 229.2658 729.5839L229.2658 729.5839L224.676 748.753C 224.6375 748.753 224.5732 748.753 224.5089 748.7401C 223.8918 748.2645 223.2232 747.2874 222.2719 747.313L222.2719 747.313L222.2461 747.4288C 220.0348 747.2231 219.662 745.256 217.6178 745.1146L217.6178 745.1146L217.7206 745.3975C 216.9492 745.4874 215.9079 744.4718 214.6094 744.3818C 214.9822 744.3947 215.445 744.0732 214.7894 743.7261C 213.3237 743.5718 212.5909 742.8133 211.4338 742.8904L211.4338 742.8904L210.7653 741.9261C 210.1739 741.6948 209.351 741.3477 208.3611 740.9362C 208.0911 743.0961 207.8854 744.6646 207.7825 745.0246C 208.2068 745.1017 208.6311 745.1789 208.7853 745.1017C 208.5925 745.4103 207.7311 745.3717 207.3454 745.0632L207.3454 745.0632L207.4611 744.2661C 206.5354 743.739 207.114 744.6646 206.1498 744.3689C 205.9312 744.986 206.8054 745.3589 207.5768 745.616C 206.844 745.5132 206.0212 745.7831 205.9055 745.0246C 205.1727 745.1146 205.7769 745.8217 204.9027 745.886C 204.3755 745.5518 203.7841 744.7418 203.0256 744.9474L203.0256 744.9474L203.0128 745.0632C 201.2386 745.3074 200.8014 743.4818 199.1687 743.7518L199.1687 743.7518L199.2715 744.0089C 198.6544 744.2404 197.7673 743.4947 196.7259 743.6489C 197.0216 743.5847 197.3687 743.1861 196.8288 742.9675C 195.646 743.0961 195.016 742.5047 194.116 742.8004L194.116 742.8004L193.5246 741.9905C 191.9176 741.6305 188.3435 740.5891 184.4993 739.4191C 187.7135 741.1934 190.6062 742.7361 191.6733 743.1347C 192.8432 743.3275 192.4061 742.2219 192.4576 742.1062C 193.5246 743.0061 192.599 743.0704 193.6404 743.5718C 193.9746 743.6104 193.8589 743.0447 193.7561 742.8647C 194.1546 743.1861 194.6946 743.1861 194.566 743.5076C 193.8846 743.4304 193.6789 744.3561 193.1647 744.7289L193.1647 744.7289L194.5017 745.3846L194.5017 745.3846L194.7203 744.8575C 194.9517 744.9731 194.8232 745.9888 195.4274 746.6317C 197.7287 747.6345 200.1586 748.6887 202.3699 749.6273C 202.3314 749.5758 202.2928 749.5372 202.2542 749.4858C 202.5499 749.6401 202.9485 749.9615 203.3342 749.8972C 203.257 749.923 203.2185 749.9487 203.1799 749.9744C 206.2398 751.2729 208.7982 752.2886 209.8782 752.5971C 211.3181 752.79 210.5724 751.6329 210.5981 751.5172C 212.0638 752.4557 210.9709 752.52 212.3337 753.0471C 212.758 753.0985 212.488 752.4943 212.3209 752.3014C 212.8737 752.6486 213.5423 752.6614 213.4394 752.9957C 212.5909 752.9056 212.5266 753.8699 211.9866 754.2684L211.9866 754.2684L213.748 754.9756L213.748 754.9756L213.9022 754.4227C 214.3137 754.6027 214.2237 756.274 216.0879 756.8398C 219.1091 758.0483 222.2461 759.9639 225.2674 761.8538C 225.4089 761.5324 224.9075 760.9539 224.3803 760.3882C 224.7917 760.6324 225.3574 761.0824 225.8588 761.1467C 224.8046 761.1467 226.8873 762.3423 226.1802 762.1624C 226.8616 763.4738 228.0444 764.4123 229.2272 765.3636C 230.41 766.2893 231.5671 767.2921 232.1071 768.4878C 231.7343 769.0149 228.8801 773.6689 225.396 777.873C 226.0388 778.9402 226.5016 779.6473 226.3988 780.2644C 225.9745 780.7144 221.539 783.9542 218.672 788.7883C 217.9521 789.9968 217.3992 791.2824 216.9492 792.5938C 216.525 793.8923 216.2936 795.2037 216.1521 796.3865C 215.9336 798.7521 216.1779 800.5906 215.9979 800.912C 218.0806 801.9019 220.3691 802.3391 221.0633 802.3391C 220.7548 802.4548 219.4563 802.3647 217.9906 801.9276C 216.4864 801.4905 214.9693 800.7063 214.0437 800.012L214.0437 800.012L214.1594 799.1378C 213.2208 798.4307 212.7194 798.045 212.4109 797.8007C 212.1152 797.595 211.9738 797.5564 211.8452 797.5436C 211.5881 797.4921 211.1895 797.4536 209.9167 796.0779C 209.621 796.2322 209.981 796.9521 210.9067 797.9678C 211.8452 798.9963 213.478 800.3463 215.4965 801.3491C 214.6094 800.9248 213.7094 800.462 213.0023 800.012C 212.6295 799.7806 212.2695 799.5492 211.9223 799.3049C 211.6138 799.0864 211.3309 798.8678 211.0481 798.6364C 210.7781 798.4178 210.521 798.1992 210.2896 797.9807C 210.0967 797.775 209.9167 797.5822 209.7624 797.3893C 209.4667 797.0036 209.2482 796.6307 209.2096 796.3222C 208.3354 795.5122 208.2325 795.6794 208.0782 795.8208C 207.9497 795.9622 207.6668 796.0008 206.8054 795.0623C 205.8541 793.4552 205.5198 791.6038 204.6198 790.8325L204.6198 790.8325L204.5298 790.9096C 203.5527 789.881 203.4627 789.2382 203.527 788.8782C 203.5527 788.6982 203.6556 788.6597 203.6685 788.5568C 203.6556 788.4797 203.6042 788.4283 203.4113 788.4669L203.4113 788.4669L203.2827 788.6469C 202.9099 788.8268 203.077 788.2354 202.4214 788.2483C 202.6013 788.2226 202.9999 787.9397 202.8071 787.6826C 202.0999 787.6569 201.8171 787.0012 200.9943 787.1169C 200.9043 786.8212 200.84 786.5255 200.6986 786.2298C 200.0943 785.9341 199.0915 785.4456 197.5616 784.7642C 198.5773 785.7798 200.1972 786.0756 200.7757 787.2841C 200.3772 788.1069 196.0959 798.2635 193.4732 804.2675C 195.1703 804.5632 196.8673 804.9103 198.5258 805.1289C 198.5515 804.7818 198.0244 804.4861 197.4845 804.1776C 197.8444 804.2289 198.3844 804.4089 198.7572 804.2289C 197.9987 804.7047 199.8115 804.8332 199.2587 804.9875C 200.9686 806.7231 203.7456 805.926 205.3141 807.1731C 205.2627 808.0731 205.2112 818.8083 205.0955 825.4165C 206.2269 825.6094 207.3583 825.8022 208.4511 825.9308C 208.4639 825.5837 207.8982 825.288 207.3454 824.9922C 207.7311 825.0437 208.2968 825.2237 208.6825 825.0308C 207.8982 825.5194 209.801 825.6223 209.2225 825.7894C 211.061 827.5121 213.9537 826.7022 215.625 827.9364C 215.5736 829.1964 215.9979 849.8311 215.7536 851.2967C 216.3321 851.361 216.8978 851.4381 217.0907 851.3353C 216.885 851.6567 215.7407 851.631 215.1879 851.3353L215.1879 851.3353L215.2136 850.5253C 213.8894 850.0239 214.8151 850.9367 213.4908 850.6667C 213.3109 851.2967 214.5194 851.6439 215.5865 851.8881C 214.5965 851.7981 213.5551 852.1067 213.2723 851.3353C 212.308 851.451 213.2466 852.1453 212.1023 852.2352C 211.3438 851.9138 210.431 851.1167 209.4667 851.3481L209.4667 851.3481L209.4667 851.4639C 207.1654 851.7595 206.2783 849.9339 204.1699 850.2553L204.1699 850.2553L204.3498 850.5125C 203.5785 850.7696 202.2671 850.0368 200.93 850.2168C 201.3157 850.1525 201.7142 849.7282 200.9557 849.5225C 199.4258 849.6896 198.4873 849.1111 197.3302 849.4325L197.3302 849.4325L196.4045 848.6354C 191.2747 847.9026 171.2571 843.6471 166.1531 842.6957L166.1531 842.6957L166.3331 842.8243C 165.3045 842.6057 164.1346 842.3743 162.849 842.13C 162.7332 847.5555 162.5789 852.9938 162.4633 853.7266C 162.849 853.7523 163.2218 853.778 163.3504 853.6752C 163.1961 854.0095 162.4375 854.0737 162.0775 853.8166L162.0775 853.8166L162.129 853.0195C 161.2676 852.6209 161.8461 853.4566 160.9719 853.2766C 160.8305 853.9194 161.6276 854.1638 162.3218 854.3309C 161.6661 854.318 160.959 854.7037 160.8047 853.958C 160.1619 854.138 160.7533 854.7551 159.9948 854.9351C 159.5062 854.678 158.9148 853.9452 158.272 854.2408L158.272 854.2408L158.272 854.3566C 156.6778 854.8323 156.1378 853.0709 154.7236 853.5723L154.7236 853.5723L154.8393 853.8038C 154.3251 854.1252 153.4637 853.4952 152.5766 853.7909C 152.8337 853.688 153.1037 853.2509 152.6023 853.1095C 151.5866 853.3923 150.9695 852.9038 150.1981 853.3152L150.1981 853.3152L149.5939 852.5953C 146.2126 852.2739 132.9189 849.9468 129.4991 849.6254L129.4991 849.6254L129.6277 849.7411C 124.4593 848.9568 113.7627 848.2626 108.4015 847.1827C 107.5401 847.774 106.3959 847.5684 105.5217 847.6969C 106.0102 847.4526 105.8688 847.0027 105.4959 847.0155C 102.8346 846.9898 105.3288 846.5784 102.6546 846.2056C 99.56908 845.4599 87.68964 845.9227 84.93834 846.4627C 83.45984 845.5113 81.62135 846.2441 80.16856 845.6527L80.16856 845.6527L80.30998 845.8713C 78.75435 845.4984 69.96047 846.4884 68.14771 846.2184L68.14771 846.2184L68.39198 846.077C 66.79777 845.5499 67.04204 846.5527 65.80782 846.9127C 65.93638 845.8713 64.57359 845.3185 64.04647 845.2542L64.04647 845.2542L64.07218 845.4856C 63.28793 845.3313 61.50087 844.4699 60.20236 844.4056L60.20236 844.4056L60.2795 844.9713C 59.1867 844.4056 57.18108 844.7527 56.40968 844.7271C 54.67405 845.0228 52.01275 846.1798 49.62143 845.5627L49.62143 845.5627L48.20721 847.2726L48.20721 847.2726L47.9758 847.1183C 47.9758 847.1183 47.06298 842.2586 46.48444 836.846C 45.91875 831.4462 45.70019 825.4937 47.17869 823.3209L47.17869 823.3209L47.0887 822.7552L47.0887 822.7552L47.73152 822.7938C 48.4772 822.4724 48.87576 823.1024 48.78576 822.5495L48.78576 822.5495L47.74438 822.6781C 48.50291 822.4724 47.95008 822.2024 47.64153 821.8939C 47.96294 821.8167 48.2715 821.7396 48.51577 821.5467C 48.68291 821.7524 48.42578 821.791 48.31007 821.9196C 48.73433 822.0995 49.35145 822.601 49.84 822.3052C 50.62424 822.2024 49.84 821.3796 50.75281 821.2639C 51.58849 821.1481 52.42416 821.0196 53.25983 820.8911C 51.25421 820.801 49.09431 820.5696 47.17869 819.8239L47.17869 819.8239L44.64595 821.0453L44.64595 821.0453L44.3374 820.8267C 44.3374 820.8267 43.91313 800.8605 49.23574 797.505L49.23574 797.505L49.26145 796.9265L49.26145 796.9265L50.16141 797.145C 51.30564 797.055 51.70419 797.7878 51.7299 797.2093L51.7299 797.2093L50.21283 797.0293C 51.34421 797.055 50.62424 796.6307 50.2514 796.2322C 50.7271 796.2579 51.17707 796.2579 51.57563 796.155C 51.75562 796.4122 51.38278 796.3608 51.18993 796.4507C 51.75562 796.7465 52.48844 797.415 53.25983 797.2736C 54.40406 797.415 53.47839 796.3736 54.81548 796.5408C 60.02237 797.0807 65.12642 797.4792 70.28188 798.1735C 70.26903 798.1606 70.24332 798.1606 70.23046 798.1478L70.23046 798.1478L70.61616 798.1606C 68.61053 796.7593 68.54626 797.8264 66.68205 797.4536C 67.28632 796.5665 65.61497 795.2808 64.92071 794.9337L64.92071 794.9337L64.86929 795.1522C 63.84076 794.5994 61.758 792.6967 60.04808 791.8224L60.04808 791.8224L59.89381 792.3752C 58.64672 791.1924 55.77972 790.241 54.76405 789.6625C 52.26988 788.7754 48.11722 787.9526 45.30164 785.6127L45.30164 785.6127L42.48606 786.037L42.48606 786.037L42.25464 785.7413C 42.25464 785.7413 43.72028 780.9844 45.99589 776.0474C 46.53587 774.8775 47.11441 773.7075 47.71867 772.5891C 47.30726 772.4091 46.92156 772.2033 46.54872 771.959L46.54872 771.959L44.27311 772.8976L44.27311 772.8976L44.06741 772.6661C 44.06741 772.6661 47.51296 753.5742 52.33416 750.5015C 50.16141 749.9872 47.39725 749.4344 45.32735 747.9431L45.32735 747.9431L42.87175 748.7016L42.87175 748.7016L42.66605 748.4445C 42.66605 748.4445 43.75885 743.5975 45.50734 738.4421C 45.62305 738.0949 45.75162 737.735 45.88018 737.3878L45.88018 737.3878L45.08308 737.7864L45.08308 737.7864L44.74881 737.5807C 44.74881 737.5807 44.35025 732.5795 44.58167 727.1412C 44.82595 721.7029 45.7259 715.8146 48.61862 714.0789L48.61862 714.0789L48.60577 713.5004L48.60577 713.5004L49.63429 713.7061C 50.91994 713.5904 51.42135 714.3103 51.40849 713.7446L51.40849 713.7446L49.68571 713.5904C 50.95851 713.5904 50.12284 713.179 49.68571 712.7933C 50.21283 712.8062 50.73995 712.8062 51.17707 712.6776C 51.39564 712.9218 50.95851 712.8833 50.75281 712.9861C 51.40849 713.269 52.28274 713.9246 53.13127 713.7704C 54.42978 713.8861 53.33697 712.8704 54.85404 712.999C 56.80824 713.1404 58.74957 713.3204 60.69091 713.5132C 60.70377 713.4361 60.72948 713.3589 60.74234 713.2818C 61.88657 707.9592 63.75077 702.3023 66.68205 700.9781L66.68205 700.9781L66.75919 700.4124L66.75919 700.4124L67.67201 700.7467C 68.86767 700.7981 69.20193 701.5824 69.27908 701.0167L69.27908 701.0167L67.73629 700.6439C 68.90623 700.811 68.19913 700.2967 67.86486 699.8596C 68.35341 699.9368 68.81624 700.001 69.24051 699.9496C 69.39479 700.2196 69.00909 700.1296 68.80338 700.1938C 69.35622 700.5667 70.03761 701.3124 70.84757 701.2738C 70.86043 701.2738 70.87329 701.2738 70.88615 701.2738C 71.74753 698.5611 72.7632 695.8355 73.93314 693.7142L73.93314 693.7142L71.55469 694.7299L71.55469 694.7299L71.2847 694.4984C 71.2847 694.4984 71.55469 689.5229 72.4675 684.1489C 72.54463 683.7118 72.62178 683.2747 72.71178 682.8375C 70.82186 682.5676 68.67482 682.1818 66.93919 681.1276L66.93919 681.1276L64.62502 682.1176L64.62502 682.1176L64.40645 681.8862C 64.40645 681.8862 65.10071 676.9621 66.39922 671.678C 67.69772 666.394 69.61335 660.7629 72.15894 659.3615L72.15894 659.3615L72.2618 658.7958L72.2618 658.7958L73.00748 659.1044C 73.0589 659.1044 73.09747 659.1172 73.13604 659.1172C 73.13604 659.0916 73.1489 659.053 73.1489 659.0144L73.1489 659.0144L73.0589 658.9886C 73.09747 658.9886 73.12318 658.9886 73.1489 659.0015C 73.18746 658.7701 73.22604 658.5387 73.2646 658.2944C 73.25175 658.2687 73.22604 658.243 73.21318 658.2173C 73.23889 658.2173 73.25175 658.2173 73.27746 658.2301C 74.30598 652.2775 76.63301 641.7609 80.55426 639.871L80.55426 639.871L80.65711 639.3053L80.65711 639.3053L81.49278 639.6396C 82.59845 639.691 82.88129 640.4624 82.97128 639.8967L82.97128 639.8967L81.54421 639.5239C 82.62416 639.6781 81.99419 639.1768 81.69849 638.7396C 82.14847 638.8168 82.58559 638.881 82.97128 638.8168C 83.11271 639.0867 82.75273 638.9968 82.55988 639.061C 83.04843 639.421 83.66554 640.1667 84.41122 640.1281C 85.47831 640.3981 84.74548 639.2667 85.99257 639.5881C 92.60083 641.1695 99.08053 642.5194 105.5731 644.7308C 105.7916 644.5508 105.6116 644.4993 105.4574 644.3451C 107.3473 645.2064 109.1343 645.6693 110.8443 646.5049C 111.4228 646.4279 111.6671 646.1321 111.8856 645.9521C 111.6671 646.1321 114.097 647.0578 116.6168 647.9192C 117.8768 648.3563 119.1496 648.7806 120.1267 649.0891C 121.1038 649.3977 121.7723 649.6034 121.8237 649.5905L121.8237 649.5905L121.6309 650.6062C 123.5594 651.2619 122.5566 649.6805 124.2665 650.5034C 124.5108 652.1104 127.2878 651.339 127.6606 652.2775C 127.6863 652.1619 128.5734 652.4061 128.6634 651.9561C 128.6891 652.7918 129.5119 652.4318 130.0005 652.8047C 130.1291 653.0746 129.7819 652.9847 129.5505 653.1518L129.5505 653.1518L130.7205 653.8332C 131.299 653.756 131.5561 653.3575 131.0547 653.1003C 134.4489 653.9232 150.5195 658.5258 153.9265 660.1458C 153.2837 660.5571 152.3194 659.7986 151.5995 660.5443C 152.3709 661.3671 153.0394 660.84 153.2708 661.5085C 154.0808 660.3129 155.4307 661.9071 156.6007 660.8143L156.6007 660.8143L156.6135 661.65L156.6135 661.65L157.2306 661.3542C 161.0876 663.5527 158.0406 662.0485 161.7561 663.1413C 163.826 663.9899 164.4689 665.3784 165.7802 665.4041C 165.6003 665.3527 164.9831 665.6483 165.4588 666.0212C 165.7802 665.4041 166.7445 666.9983 167.2459 666.4326C 167.7473 666.7026 169.5215 667.2169 168.6087 667.9111C 169.0587 667.564 170.6657 667.924 169.8815 667.2169C 170.4086 667.3711 170.9614 667.4225 171.27 667.7568L171.27 667.7568L170.5114 667.7697C 172.2214 668.5282 173.4299 668.1682 174.2913 669.3896L174.2913 669.3896L173.5199 669.5182C 174.5484 669.9424 175.4098 670.3281 176.1297 669.5825L176.1297 669.5825L175.1398 668.9268C 176.8754 669.5696 177.9039 669.9938 179.1896 670.9838L179.1896 670.9838L178.6625 670.8295C 180.2053 672.3723 189.6163 676.5635 190.9019 678.2992L190.9019 678.2992L189.8734 678.6978L189.8734 678.6978L191.1205 679.8034C 190.9405 679.752 191.2233 677.3221 190.9919 677.4892C 194.1032 678.6849 210.1867 685.1903 213.2337 685.8459C 214.5322 685.9103 213.8508 684.8431 213.8765 684.7274C 215.2008 685.5117 214.2108 685.6788 215.445 686.0774C 215.8179 686.0774 215.5736 685.5117 215.4322 685.3445C 215.9336 685.6274 216.5121 685.576 216.4221 685.9103C 215.6636 685.9103 215.625 686.8616 215.1493 687.2988L215.1493 687.2988L216.7307 687.8002L216.7307 687.8002L216.8593 687.2345C 217.2064 687.3502 217.1807 689.0215 218.8134 689.3044C 221.4619 690.05 224.1746 691.2843 226.7973 692.1457C 226.8745 691.8114 226.4117 691.4128 225.936 691.0272C 226.2831 691.1428 226.7845 691.4257 227.183 691.31C 226.3474 691.6443 228.1216 692.0942 227.543 692.1457C 228.9315 694.1642 231.8242 693.9199 233.1356 695.437C 232.8399 696.6711 228.9187 716.8945 228.3787 718.283C 228.893 718.4887 229.4072 718.6558 229.6129 718.6044z" stroke="none" fill="#85A3BD" fill-rule="nonzero" /></g><g clip-path="url(#8)"></g><g clip-path="url(#9)"><g transform="matrix(0.6489563 0 0 0.6511627 231.4603 344.3948)"><g transform="matrix(1 0 0 1 0 0)"><image x="0" y="0" xlink:href="img_02.png" width="527" height="129" /></g></g></g><g clip-path="url(#10)"><path id="281" transform="matrix(1 0 0 -1 0 842)" d="M44.07465 569.5862L44.07465 574.1364C 44.07465 576.4043 42.23595 578.2429 39.96808 578.2429L39.96808 578.2429L38.09137 578.2429C 35.82338 578.2429 33.98479 580.0814 33.98479 582.3494L33.98479 582.3494L33.98479 590.5626C 33.98479 592.8306 35.82338 594.6691 38.09137 594.6691L38.09137 594.6691L137.7273 594.6691C 139.9952 594.6691 141.8339 592.8306 141.8339 590.5626L141.8339 590.5626L141.8339 582.3494C 141.8339 580.0814 139.9952 578.2429 137.7273 578.2429L137.7273 578.2429L135.8443 578.2429C 133.5765 578.2429 131.7377 576.4043 131.7377 574.1364L131.7377 574.1364L131.7377 569.5862C 131.7377 567.3182 129.8994 565.4796 127.6312 565.4796L127.6312 565.4796L48.18122 565.4796C 45.91296 565.4796 44.07465 567.3182 44.07465 569.5862z" stroke="none" fill="#40E0D0" fill-rule="nonzero" /></g><g clip-path="url(#11)"><g transform="matrix(0.675002 0 0 0.6777777 234.023 230.87)"><g transform="matrix(1 0 0 1 0 0)"><image x="0" y="0" xlink:href="img_03.png" width="590" height="135" /></g></g></g><g clip-path="url(#12)"></g><g clip-path="url(#13)"><g transform="matrix(0.6653696 0 0 0.6621093 14.34578 491.552)"><g transform="matrix(1 0 0 1 0 0)"><image x="0" y="0" xlink:href="img_04.png" width="514" height="128" /></g></g></g><g clip-path="url(#14)"><path id="658" transform="matrix(1 0 0 -1 0 842)" d="M446.8871 358.8596L531.8776 358.8596C 534.1454 358.8596 535.9842 357.021 535.9842 354.753L535.9842 354.753L535.9842 346.5399C 535.9842 344.2719 534.1454 342.4333 531.8776 342.4333L531.8776 342.4333L446.8871 342.4333C 444.6191 342.4333 442.7805 344.2719 442.7805 346.5399L442.7805 346.5399L442.7805 354.753C 442.7805 357.021 444.6191 358.8596 446.8871 358.8596z" stroke="none" fill="#40E0D0" fill-rule="nonzero" /></g><g clip-path="url(#15)"><g transform="matrix(0.6233765 0 0 0.6233765 54.90264 657.4988)"><g transform="matrix(1 0 0 1 0 0)"><image x="0" y="0" xlink:href="img_05.png" width="231" height="231" /></g></g></g><g clip-path="url(#16)"><path id="672" transform="matrix(1 0 0 -1 0 842)" d="M254.8477 170.8983C 252.8507 170.8607 250.8884 170.8123 248.9605 170.7525L248.9605 170.7525L246.1016 170.6538L246.1016 170.6538L243.2802 170.5033C 247.1502 170.6867 250.9966 170.762 254.8477 170.8983z" stroke="none" fill="#7ED957" fill-rule="nonzero" /><path id="673" transform="matrix(1 0 0 -1 0 842)" d="M247.9496 49.95712C 247.0091 50.19223 246.9621 50.49316 246.7505 50.7847C 245.6972 50.70477 245.8053 50.46967 247.9496 49.95712z" stroke="none" fill="#7ED957" fill-rule="nonzero" /><path id="674" transform="matrix(1 0 0 -1 0 842)" d="M251.7254 170.3388L262.3995 170.2259C 259.1314 170.3717 255.332 170.4375 251.7254 170.3388z" stroke="none" fill="#7ED957" fill-rule="nonzero" /><path id="675" transform="matrix(1 0 0 -1 0 842)" d="M217.2205 148.1631C 220.552 147.5019 223.9155 147.1385 227.3115 147.0722C 230.3736 147.0313 233.4112 146.7383 236.4244 146.1928C 231.2096 147.312 230.1328 147.7775 226.8507 148.3888C 226.0278 148.5392 225.0732 148.6991 223.8789 148.8825L223.8789 148.8825L219.5011 149.5408L219.5011 149.5408L213.1437 150.4813L213.1437 150.4813L209.0387 151.0502L209.0387 151.0502L204.2048 151.5534C 201.5856 151.5063 201.896 151.276 203.6358 150.9562C 204.5057 150.7963 205.7283 150.6176 207.1248 150.4249L207.1248 150.4249L208.197 150.2791C 208.385 150.2791 208.5684 150.2227 208.7565 150.2132L208.7565 150.2132L209.3208 150.1192L209.3208 150.1192L211.6249 149.7477C 217.813 148.7603 223.6955 147.8292 217.2205 148.1631z" stroke="none" fill="#7ED957" fill-rule="nonzero" /><path id="676" transform="matrix(1 0 0 -1 0 842)" d="M236.4338 146.2117C 238.0796 145.859 240.0874 145.4358 242.8241 144.9326C 240.2097 145.511 238.1971 145.906 236.4338 146.2117z" stroke="none" fill="#7ED957" fill-rule="nonzero" /><path id="677" transform="matrix(1 0 0 -1 0 842)" d="M230.5466 48.01041L229.8789 48.09976L229.0372 48.17499L228.8914 48.19379L228.6046 48.23611L228.3695 48.22668L228.3084 48.22668L228.299 48.22668L228.9902 48.17026L228.9808 48.17026L228.9573 48.17026L228.8773 48.16089L228.5482 48.13266L227.8993 48.08093L226.6203 47.96808L224.1328 47.73767L234.5435 47.48376L231.882 47.83643L230.5466 48.01041z" stroke="none" fill="#7ED957" fill-rule="nonzero" /><path id="678" transform="matrix(1 0 0 -1 0 842)" d="M237.5623 45.73453C 240.995 45.37714 244.3806 45.0621 247.785 44.79407L247.785 44.79407L257.9888 43.98532C 256.7098 44.24393 254.1048 44.75644 258.7224 44.65302L258.7224 44.65302L248.1517 45.12323C 244.6251 45.28781 241.1219 45.48062 237.5623 45.73453z" stroke="none" fill="#7ED957" fill-rule="nonzero" /><path id="679" transform="matrix(1 0 0 -1 0 842)" d="M500.0405 50.47437C 504.0562 50.55902 507.865 50.61545 511.5374 50.733L511.5374 50.733L505.8101 50.62955C 503.8963 50.60135 501.959 50.52609 500.0405 50.47437z" stroke="none" fill="#7ED957" fill-rule="nonzero" /><path id="680" transform="matrix(1 0 0 -1 0 842)" d="M507.3995 171.7212C 508.3634 171.472 508.3869 171.1711 508.6032 170.8748C 509.6612 170.9453 509.5531 171.1852 507.3995 171.7212z" stroke="none" fill="#7ED957" fill-rule="nonzero" /><path id="681" transform="matrix(1 0 0 -1 0 842)" d="M540.3997 77.00903C 540.3997 76.96667 540.3997 76.91028 540.3573 76.87268L540.3573 76.87268L541.4153 76.70807L541.4153 76.70807L540.3997 77.00903z" stroke="none" fill="#7ED957" fill-rule="nonzero" /><path id="682" transform="matrix(1 0 0 -1 0 842)" d="M517.1895 65.48386C 513.6581 66.13748 508.6267 66.99329 502.5139 67.83499C 500.7834 67.74564 499.2223 67.65158 498.1267 67.54343C 500.8822 67.22839 503.6518 66.95566 506.3932 66.603L506.3932 66.603L514.6174 65.60141L514.6174 65.60141L517.1895 65.48386zM503.7693 66.28323L496.4856 67.22369C 496.448 67.16727 496.4856 67.11084 496.6643 67.04501C 498.8508 66.71585 501.249 66.47601 503.8022 66.28323L503.8022 66.28323L503.7693 66.28323zM363.6431 47.98221C 363.5636 48.05649 363.5086 48.14581 363.4785 48.25024C 362.4863 48.25024 361.4612 48.25024 360.3374 48.21732L360.3374 48.21732L363.6431 47.98221zM391.4897 173.7667C 391.5691 173.6924 391.6241 173.603 391.6542 173.4987C 392.6464 173.4987 393.6714 173.4987 394.7953 173.5269L394.7953 173.5269L391.4897 173.7667zM372.1729 117.0579L372.2811 117.0861L372.1729 117.0579zM375.3657 117.4905C 375.3657 117.5187 375.3657 117.5469 375.3422 117.5751L375.3422 117.5751L375.0977 117.5422L375.0977 117.5422L375.3375 117.4764L375.3375 117.4764L375.3657 117.4905zM382.941 104.7192L382.8281 104.691L382.941 104.7192zM379.7435 104.2819C 379.7435 104.2537 379.7435 104.2255 379.767 104.1973L379.767 104.1973L380.0162 104.2302L380.0162 104.2302L379.7764 104.296L379.7764 104.296L379.7435 104.2819zM265.1174 102.2035C 263.2365 102.1612 261.2004 102.1048 258.981 101.9825C 261.1769 101.912 263.213 101.8697 264.7553 101.9026L264.7553 101.9026L265.1174 102.2035zM251.4198 98.44177L246.8022 98.41356C 251.8712 97.95743 256.4653 97.53893 251.401 98.42764L251.401 98.42764L251.4198 98.44177zM258.4731 154.2242C 258.506 154.2807 258.4731 154.3371 258.2897 154.3982C 256.1126 154.7133 253.7145 154.9437 251.1847 155.1365L251.1847 155.1365L258.4731 154.2242zM256.8321 153.8951L240.2896 155.6631L240.2896 155.6631L237.7128 155.7525C 241.2301 155.0941 246.3179 154.4265 252.4449 153.5941C 254.1565 153.6553 255.7082 153.7681 256.8132 153.881L256.8132 153.881L256.8321 153.8951zM490.0624 119.4137C 491.9433 119.4137 493.9793 119.4936 496.1753 119.6159C 493.9793 119.6864 491.9433 119.7193 490.3962 119.7099L490.3962 119.7099L490.0624 119.4137zM503.774 123.1425C 505.3117 123.1425 506.854 123.1425 508.3963 123.1425C 503.285 123.6316 498.7144 124.0031 503.7552 123.1284L503.7552 123.1284L503.774 123.1425zM506.1534 61.5434C 507.564 61.07318 511.5703 60.64059 516.423 60.24091C 518.8494 60.0387 521.4873 59.85062 524.1206 59.66721C 526.7538 59.48383 529.3353 59.23462 531.7147 59.01831C 536.4733 58.59512 540.3385 58.20013 541.5894 57.98383C 542.21 57.88507 542.1771 57.78162 541.2743 57.68289C 540.3715 57.58414 538.594 57.58884 535.7303 57.59824C 533.2288 58.06845 531.1034 58.67505 527.7366 58.8161C 527.224 58.77377 526.0485 58.8161 524.3322 58.8161C 522.6158 58.8161 520.3776 58.89133 517.782 58.96658L517.782 58.96658L509.1017 59.23462L509.1017 59.23462L504.2678 59.3898L504.2678 59.3898L499.2364 59.49796L499.2364 59.49796L499.984 59.4227L499.984 59.4227L504.6863 58.95245L504.6863 58.95245L508.9747 58.48224C 511.6361 58.17661 513.8368 57.9133 515.1581 57.72049C 517.7961 57.3396 516.9167 57.25027 509.1393 57.72049C 511.5468 58.02142 505.4292 58.85846 496.7019 59.60138L496.7019 59.60138L491.5765 59.67664L491.5765 59.67664L489.2018 59.72363C 491.5247 59.15469 491.8633 58.67505 495.8649 58.09668C 497.868 57.80511 500.7928 57.49951 505.3258 57.11862C 509.8587 56.73773 515.9481 56.20639 524.3745 55.61389C 520.0391 55.76907 519.1597 55.66562 516.7616 55.71265C 515.5673 55.74088 513.9919 55.802 511.4152 55.95715C 508.8383 56.11234 505.3023 56.38977 500.0311 56.6907C 504.1126 56.22049 508.1377 55.63742 512.1675 55.11075C 516.1973 54.58411 520.2177 54.08569 524.2476 53.61545C 520.0437 53.96341 507.9543 54.84744 505.0954 54.58411C 507.8932 54.80042 499.7019 55.74088 494.1815 56.465C 488.6611 57.18915 485.8398 57.71109 499.4292 57.13742L499.4292 57.13742L488.8821 57.79575L488.8821 57.79575L484.0529 58.07315L484.0529 58.07315L479.4494 58.28946C 474.6438 57.9086 464.5951 57.81924 460.0575 57.51358C 465.3522 57.04337 471.1312 56.4838 477.183 56.01358L477.183 56.01358L483.7661 55.76907L483.7661 55.76907L490.2881 55.46344L490.2881 55.46344L486.4464 55.28473C 492.7849 54.75339 499.2364 54.26907 505.448 53.79413L505.448 53.79413L523.0249 52.34116C 516.7555 52.24384 510.5297 52.07782 504.3477 51.84271L504.3477 51.84271L515.7742 51.3349L515.7742 51.3349L508.5045 51.55118L508.5045 51.55118L504.8932 51.65463L504.8932 51.65463L501.2584 51.72046L501.2584 51.72046L486.6815 51.96497C 493.2646 51.59821 498.9872 51.3537 496.2364 51.3772C 493.6266 51.3772 489.8084 51.53238 485.5435 51.71106C 486.9542 51.50415 489.4887 51.29727 492.4605 51.16092C 484.6454 51.31607 476.1485 51.42892 467.6139 51.63113C 467.929 51.4054 470.9807 51.08566 480.0795 50.50729L480.0795 50.50729L487.4056 50.42267L487.4056 50.42267L487.683 50.42267C 491.868 50.38031 496.0013 50.38031 499.9888 50.45557L499.9888 50.45557L488.3555 49.98535C 488.5534 49.86169 488.6898 49.68958 488.7646 49.46808C 495.705 49.13892 500.0499 48.96967 503.4073 48.85211L503.4073 48.85211L488.7834 49.2847C 488.6188 48.81448 487.4056 48.53235 486.531 47.7518C 489.4887 47.43674 494.1439 46.54333 487.6783 46.70789C 493.321 46.38815 497.0357 46.03076 499.4339 45.6546L499.4339 45.6546L483.8789 46.12482L483.8789 46.12482L468.2581 46.44455C 463.0481 46.56683 457.7722 46.60446 452.5198 46.67026C 447.2674 46.73611 442.0197 46.81134 436.7156 46.82544L436.7156 46.82544L420.8503 46.91949L420.8503 46.91949L404.9098 46.95712L404.9098 46.95712L372.8876 46.95712C 376.2403 46.13892 366.5867 45.64987 359.1054 45.18436C 351.6242 44.71884 346.3154 44.29565 358.3672 43.51508C 350.143 43.76428 341.8765 43.89597 333.8404 43.93356L333.8404 43.93356L310.2258 44.00412C 302.6176 44.03232 295.4373 44.12167 288.5156 44.29092C 285.0642 44.37091 281.6269 44.52133 278.2319 44.70474C 274.8369 44.88812 271.4607 45.10443 268.0845 45.38187L268.0845 45.38187L272.9748 44.44141C 267.5531 44.74707 264.6142 45.0527 262.8274 45.38187C 261.6989 45.5657 260.6187 45.9043 259.5876 46.39755C 259.3242 47.01822 258.9057 47.66714 247.1972 48.51822C 255.0076 48.88501 262.8415 49.20477 270.5814 49.67499C 268.4795 49.75024 266.1237 49.8631 263.7255 49.99002L263.7255 49.99002L256.5969 50.43674C 252.0452 50.72357 248.1894 50.93518 246.7505 50.82233C 246.5154 51.12799 246.0969 51.41483 244.2254 51.63113C 243.2849 51.74869 241.9965 51.82861 240.1674 51.91324C 238.3382 51.99789 235.9824 52.06842 232.9495 52.11075C 236.5231 52.19537 239.6783 52.28473 242.4103 52.46341C 245.1423 52.64209 247.484 52.8678 249.4637 53.1123C 253.47 53.58255 256.1079 54.16089 257.7678 54.78159C 261.0829 56.01828 260.4669 57.46658 258.9763 58.96188C 256.028 61.96661 249.6141 65.09827 265.028 67.07321C 263.0155 67.51053 254.9418 67.76447 249.6094 67.89612C 260.6268 67.81146 257.7396 68.21115 251.7113 68.72369C 248.6972 68.9776 244.8978 69.25037 241.658 69.5513C 238.4182 69.85226 235.7003 70.172 234.9103 70.36478C 237.567 70.30365 240.2426 70.20493 242.9041 70.17667C 245.5655 70.14847 248.2035 70.12967 250.8508 70.10617L250.8508 70.10617L258.7976 70.04974L258.7976 70.04974L262.771 70.02151L262.771 70.02151L266.7255 70.02151C 262.0233 70.49176 257.1847 70.84442 252.774 71.03247C 248.3633 71.22058 244.31 71.33813 241.1501 71.56384C 237.9244 73.20023 244.042 74.15005 248.6737 75.2598C 253.3054 76.36954 256.4465 77.41812 247.0373 79.0639C 252.7834 79.12973 259.2349 78.71121 264.7271 78.43848C 270.2193 78.16577 274.7664 77.99649 276.7507 78.39148C 260.8666 78.43381 256.6816 79.33191 254.0389 80.19714C 252.703 80.71011 251.3361 81.12067 249.9386 81.42914C 248.0953 81.8006 245.3539 82.07333 240.4307 82.27081C 244.3665 82.13446 247.4088 82.12976 249.8351 82.15796C 252.2615 82.18619 254.0389 82.26138 255.4449 82.36487C 258.2662 82.56705 259.564 82.87738 261.3697 83.11249C 264.3382 83.45953 267.3161 83.59448 270.3039 83.51691C 275.1237 83.51691 282.4968 83.18774 294.3464 82.6846C 295.8135 83.20654 290.6505 83.62506 284.5752 83.90717C 278.4999 84.18933 271.4889 84.37741 269.3023 84.33038C 270.2428 84.95578 270.793 85.53415 269.1942 86.17365C 267.5955 86.81314 263.8572 87.49026 256.1973 88.46364C 261.8399 88.52005 259.0186 90.16113 259.1079 91.70818C 259.1597 92.48402 259.9543 93.2364 262.912 93.75835C 265.8697 94.28027 270.9763 94.65648 279.6849 94.59535L279.6849 94.59535L279.7084 94.59535C 261.2992 94.79283 265.7522 95.06557 261.8775 95.88376C 259.5829 95.7897 257.1753 95.70978 254.7113 95.41353C 254.2928 95.88376 254.4292 96.25052 254.9559 96.52325L254.9559 96.52325L246.0828 96.70193L246.0828 96.70193L241.6439 96.80069L241.6439 96.80069L237.2003 96.95114L237.2003 96.95114L239.5514 98.5452C 237.5482 99.01543 238.4417 99.07655 240.332 98.94958C 241.3759 99.15181 252.4825 98.20665 257.8524 98.67216C 258.5295 99.23174 255.9715 99.68314 251.89 100.144C 247.8085 100.6048 242.194 101.0515 236.7442 101.7803L236.7442 101.7803L233.6172 101.8085L233.6172 101.8085L231.6375 102.749C 231.9714 103.0358 237.1956 102.1236 243.7034 101.3806C 250.2113 100.6377 257.9982 100.0593 263.4528 100.7505C 261.6565 100.8446 257.7631 101.1785 253.6863 101.564L253.6863 101.564L252.4167 101.4465L252.4167 101.4465L253.3571 101.5923C 248.843 102.0249 244.169 102.5327 241.9166 102.9136C 239.6642 103.2944 239.8382 103.5202 245.006 103.4261C 244.263 102.8101 250.3524 102.3211 256.39 102.0625C 260.622 102.6926 263.5986 103.0358 265.6816 103.2239C 261.3415 103.3321 256.9966 103.5249 252.6565 103.6941C 248.3163 103.8634 243.9762 103.981 239.6313 104.1973C 241.1925 108.0437 260.354 111.213 258.7882 115.5437C 264.6519 115.2005 267.6754 115.2992 269.434 115.4826C 270.5249 115.5889 271.566 115.8776 272.5563 116.3478C 273.4074 116.6676 274.6017 116.9638 277.7287 117.0579C 279.2993 117.1096 281.3541 117.1096 284.1003 117.0579C 286.8463 117.0061 290.2743 116.8886 294.5909 116.6864L294.5909 116.6864L291.2711 116.6394C 292.8934 116.0751 299.2885 115.9011 305.0439 115.9811C 310.7995 116.061 315.9155 116.4513 314.9656 116.9215L314.9656 116.9215L312.4923 116.9591C 311.1521 116.9591 309.671 116.9591 308.138 117.0202L308.138 117.0202L302.2556 117.1425L302.2556 117.1425L279.8682 117.6127C 272.7491 117.7679 266.2976 117.8055 261.5296 117.6974C 260.9841 118.525 263.2694 118.9294 265.4512 119.2961C 263.1848 119.6159 260.923 119.9827 258.6612 120.3306L258.6612 120.3306L255.9715 120.514C 254.1612 120.4435 253.9919 120.514 254.2505 120.6363C 249.7223 120.956 245.9558 121.2522 242.8476 121.5156C 239.7395 121.7789 237.3037 122.0892 235.4181 122.3338C 231.6563 122.8322 230.1093 123.2366 230.0059 123.5798C 229.7896 124.2711 235.2912 124.7366 240.1204 125.2727C 237.0376 125.3568 233.959 125.2755 230.8852 125.0281C 232.183 125.6394 235.973 125.6206 240.5576 125.3244C 246.2709 126.0062 250.7427 126.8526 243.0827 128.1457C 245.6408 127.8448 249.1674 127.6049 251.2223 127.4733C 249.419 127.7141 247.6463 128.0963 245.9041 128.6206C 242.6125 128.804 239.4385 129.0391 236.415 129.2507L236.415 129.2507L227.7817 129.7256L227.7817 129.7256L213.8678 130.5909C 205.3709 131.5031 209.9509 131.4702 216.8914 131.2633C 218.6312 131.221 220.5074 131.1363 222.3789 131.1034L222.3789 131.1034L227.7676 131.0141C 231.0968 130.967 233.6783 130.9623 234.1673 131.0705C 241.1078 130.9294 243.2614 131.1692 242.7583 131.6254C 242.2552 132.0815 239.1 132.7492 235.4464 133.5062C 228.125 135.0768 218.7911 136.6332 224.3021 136.7414L224.3021 136.7414L239.3821 134.0282C 246.4072 133.4827 237.8069 136.3793 228.0968 137.8746C 230.335 137.616 234.2097 137.1175 239.02 136.4874C 241.4182 136.1583 244.0514 135.8527 246.8163 135.5235L246.8163 135.5235L255.412 134.4702C 247.4182 135.6881 248.8289 136.2288 256.4418 137.3385L256.4418 137.3385L261.191 136.9906L261.191 136.9906L252.4167 138.4013C 249.8257 138.721 244.0185 142.3135 249.4308 141.4013L249.4308 141.4013L247.5499 142.9483L247.5499 142.9483L250.0468 142.8167L250.0468 142.8167L241.4135 144.0627C 243.6038 144.0472 245.787 143.9174 247.9637 143.6725C 251.1424 143.3715 255.1816 142.9295 259.6675 142.4029C 261.8884 142.2905 264.1097 142.2905 266.3306 142.4029C 267.4779 142.4875 267.6472 142.6474 267.1769 142.8731C 266.2365 143.2822 262.7333 143.8793 259.3383 144.5424C 256.9026 145.0126 254.5186 145.4828 253.169 145.8825C 246.3414 147.0722 242.3586 148.0126 244.4417 148.3183C 240.7363 148.4969 237.0686 148.7885 233.3821 148.9954C 231.1203 149.5502 232.6015 149.9358 233.4949 150.3073C 234.3883 150.6788 234.6564 150.881 230.0623 151.4311L230.0623 151.4311L248.9088 149.2822L248.9088 149.2822L270.6049 146.7054L270.6049 146.7054L272.4528 146.6584L272.4528 146.6584L270.6895 146.9217C 267.9575 147.1615 265.5547 147.4295 263.4105 147.7023C 261.2662 147.975 259.3901 148.3041 257.6738 148.6098C 254.2411 149.2211 251.4809 149.8371 248.7395 150.3778C 247.0218 150.6567 245.3069 150.9266 243.5953 151.1866C 240.2003 151.3559 237.0733 151.6568 234.2802 152.0753C 237.2003 151.9531 239.6501 151.7368 241.8602 151.4593L241.8602 151.4593L236.5702 152.3387C 237.1721 152.2352 238.3053 152.0659 239.8335 151.8449C 241.3617 151.6239 243.3038 151.3747 245.5326 151.102C 247.6439 151.0173 249.8304 150.9421 252.1157 150.9374C 247.8837 151.2901 244.9684 151.5816 243.0875 151.812C 241.2066 152.0424 240.3649 152.2822 240.2661 152.4562C 238.9495 152.6067 237.8727 152.7242 237.0451 152.8042L237.0451 152.8042L240.252 152.5267C 240.3367 152.7054 241.1925 152.8418 242.4668 152.9641C 243.7411 153.0863 245.4903 153.2321 247.343 153.3214C 241.9965 153.8387 237.8962 154.2901 236.6454 154.3747C 226.15 156.4719 231.299 156.2556 235.705 156.1192L235.705 156.1192L236.0153 156.0628L236.0153 156.0628L236.3398 156.0957L236.3398 156.0957L235.705 156.1192L235.705 156.1192L234.8445 156.265L234.8445 156.265L236.3398 156.0957C 237.4871 156.2133 237.7504 156.392 237.3837 156.613C 234.8774 157.0362 230.0529 157.7321 221.7393 158.8747L221.7393 158.8747L236.3163 156.9939C 234.8492 157.3747 232.2253 157.8309 229.23 158.2964L229.23 158.2964L224.5654 158.9923L224.5654 158.9923L222.2143 159.3309L222.2143 159.3309L219.9572 159.6929C 214.1171 160.6334 209.9227 161.334 213.581 161.2494C 214.1641 161.4516 215.8381 161.4798 218.2221 161.3951C 219.4165 161.3528 220.7895 161.2823 222.2895 161.1929L222.2895 161.1929L227.1751 160.9437C 234.0921 160.5676 242.3022 160.0033 248.8383 159.8434C 247.564 160.1566 246.2727 160.3588 244.9636 160.45C 243.1627 160.6146 240.9432 160.7932 238.5216 160.9719C 233.6642 161.3199 227.9604 161.6208 223.1594 161.8889C 213.6186 162.5425 207.675 163.0409 219.1296 163.2055C 220.3851 163.008 221.5372 162.7353 222.8162 162.5613C 224.2645 162.3469 225.7207 162.2354 227.1845 162.2274C 228.2096 162.3262 231.9761 162.3027 237.1627 162.2274C 239.7583 162.1851 242.6972 162.1099 245.8712 162.0958L245.8712 162.0958L255.7458 161.9077L255.7458 161.9077L254.9982 161.9782L254.9982 161.9782L245.9887 162.8763L245.9887 162.8763L242.3633 163.2102C 241.3147 163.3278 240.4354 163.4312 239.7724 163.5205C 238.4511 163.6945 238.0137 163.8074 238.8743 163.8262C 239.7348 163.845 241.8884 163.7557 245.8147 163.6381C 243.3884 163.2854 249.5765 162.6036 258.2897 161.856L258.2897 161.856L263.4011 161.7572L263.4011 161.7572L265.7898 161.7337C 263.4387 162.2744 263.1095 162.7447 259.1032 163.323C 257.1001 163.6099 254.18 163.9202 249.6376 164.2635L249.6376 164.2635L245.9135 164.5362L245.9135 164.5362L241.5263 164.7995L241.5263 164.7995L230.5278 165.4861C 234.8633 165.3826 235.7426 165.4861 238.1407 165.4861C 239.3398 165.4861 240.9056 165.4155 243.4966 165.3168C 246.0875 165.218 249.6941 165.0253 254.9324 164.7149C 250.8602 165.2133 246.7975 165.7353 242.7348 166.1256C 238.6721 166.5159 234.6752 167.066 230.6454 167.4704C 232.7473 167.3199 236.8241 167.0613 240.7316 166.8779C 242.6784 166.7745 244.6157 166.7416 246.2238 166.7274C 247.4365 166.6851 248.6483 166.7068 249.8587 166.7933C 247.0373 166.5582 255.2615 165.6553 260.7819 164.9406C 263.5374 164.5786 265.6487 164.3058 265.3431 164.1506C 265.1879 164.0754 264.4355 164.0284 262.8697 164.0378C 261.3039 164.0472 258.934 164.1271 255.5389 164.2682C 263.0249 163.7603 269.5563 163.4876 275.5563 163.2149C 277.9591 163.403 281.6692 163.5252 285.3605 163.6569C 289.0517 163.7886 292.7241 163.9343 294.9859 164.0801C 289.6959 164.5503 283.851 164.997 277.8181 165.4908L277.8181 165.4908L264.6942 165.961L264.6942 165.961L268.5641 166.1867L268.5641 166.1867L263.7584 166.5206L263.7584 166.5206L258.9763 166.8826L258.9763 166.8826L249.5107 167.5833L249.5107 167.5833L231.8727 168.7635C 235.0076 168.8482 238.1313 168.9502 241.2442 169.0692C 242.7912 169.1209 244.3712 169.2243 245.9464 169.309L245.9464 169.309L250.6486 169.5394C 246.8116 169.6805 242.9511 169.704 239.1517 169.8497L239.1517 169.8497L242.7677 169.7933L242.7677 169.7933L246.4072 169.7933L246.4072 169.7933L253.644 169.6428C 258.5013 169.5723 263.3399 169.4736 268.2208 169.4689L268.2208 169.4689L263.5186 169.6663L263.5186 169.6663L259.8979 169.845C 257.9888 169.9485 257.2458 170.0002 258.6189 169.9908C 259.9919 169.9814 261.5296 169.9438 263.3211 169.8921L263.3211 169.8921L269.3306 169.7416C 267.9199 169.9297 265.3525 170.099 262.3713 170.2118L262.3713 170.2118L274.5735 170.0849L274.5735 170.0849L287.2695 169.8638C 287.1097 169.972 286.2633 170.1037 284.3118 170.2635C 282.3604 170.4234 279.3322 170.6632 274.7852 170.9407C 272.3179 170.9689 269.868 170.9816 267.4355 170.9783L267.4355 170.9783L267.1534 170.9783C 262.9214 170.9501 258.8117 170.9783 254.8195 170.8842C 258.7036 171.0535 262.5594 171.1805 266.4763 171.4015C 266.2765 171.5223 266.1382 171.693 266.0625 171.914L266.0625 171.914L251.4245 172.4642L251.4245 172.4642L258.7365 172.262C 261.1722 172.1961 263.608 172.1209 266.0672 172.088C 266.2365 172.5582 267.4779 172.8544 268.3337 173.6444C 265.3572 173.9266 260.6597 174.7589 267.1722 174.6742L267.1722 174.6742L263.2741 174.8717C 262.0938 174.9516 261.0264 175.0363 260.0531 175.1209C 258.1158 175.2949 256.5828 175.4783 255.3838 175.6617L255.3838 175.6617L263.1613 175.4501L263.1613 175.4501L270.9951 175.3137C 276.224 175.2291 281.4294 175.1115 286.6818 175.0598L286.6818 175.0598L302.4577 174.9093C 307.7054 174.8482 313.0236 174.8576 318.3042 174.8247L318.3042 174.8247L382.2545 174.7683C 378.9065 175.5911 388.5508 176.0708 396.0414 176.5269C 403.532 176.983 408.8925 177.4109 396.7843 178.1915C 405.0791 177.9281 413.2703 177.8482 421.3629 177.7965L421.3629 177.7965L445.0244 177.7213L445.0244 177.7213L456.1546 177.6366C 459.7612 177.599 463.2832 177.5426 466.7722 177.425C 473.7504 177.1946 480.4557 176.9078 487.241 176.3153C 485.5999 176.6539 483.9495 176.9877 482.3366 177.298C 493.2223 176.6445 494.1674 175.9814 495.7755 175.2996C 496.0389 174.6648 496.4339 174.0441 508.1706 173.1695C 500.3273 172.8403 492.5357 172.436 484.7206 172.0692C 493.1846 171.6883 505.6973 170.682 508.6126 170.8513C 509.0829 170.24 510.3055 169.6569 522.4513 169.6287C 515.2898 169.3889 509.8775 169.041 505.8477 168.5848C 501.8179 168.1287 499.1988 167.5174 497.5389 166.8967C 494.2191 165.6507 494.8257 164.1977 496.3116 162.7023C 499.2458 159.707 505.6596 156.5377 490.1987 154.5863C 492.2348 154.1161 500.2897 153.8951 505.6314 153.754C 494.6141 153.8293 497.4966 153.4343 503.5248 152.9264C 509.5531 152.4186 518.7836 151.638 520.3588 151.2712C 515.0406 151.3559 509.7083 151.4828 504.3994 151.5393L504.3994 151.5393L488.5059 151.6333C 493.2505 151.0832 498.0562 150.7963 502.4715 150.5988C 506.8869 150.4013 510.9355 150.2227 514.1331 150.0063C 517.3541 148.3794 511.2177 147.3872 506.5766 146.3621C 504.2255 145.8355 502.2975 145.2806 502.1095 144.6693C 501.9214 144.058 503.4872 143.3997 508.2224 142.5251C 502.4527 142.5251 496.0248 142.8637 490.5185 143.1834C 485.0121 143.5032 480.4557 143.6772 478.4714 143.2822C 480.4604 143.2822 482.2614 143.254 483.9024 143.2257C 485.5435 143.1975 487.0294 143.1317 488.3648 143.0706C 491.0357 142.9483 493.1376 142.7931 494.8163 142.6003C 496.9873 142.4508 499.1146 142.0605 501.1972 141.4295C 502.5327 140.9141 503.8996 140.5036 505.2975 140.1975C 507.1408 139.8213 509.8916 139.4875 514.829 139.2853C 510.8885 139.4169 507.8274 139.4781 505.4245 139.4687C 503.0217 139.4593 501.2207 139.3605 499.8148 139.2571C 496.9934 139.0502 495.6956 138.7398 493.8853 138.5C 492.0749 138.2602 489.7567 138.0909 484.9181 138.1662C 480.0795 138.2414 472.7346 138.453 460.8521 139.0455C 460.1186 138.7821 461.0449 138.5517 462.9117 138.3401C 464.7785 138.1285 467.6139 137.9263 470.6422 137.7664C 476.7315 137.4467 483.7238 137.2962 485.9197 137.3385C 484.0388 136.1019 483.7191 135.0439 499.0248 133.1395C 493.3821 133.0783 496.2035 131.4373 496.1047 129.8855C 496.0483 129.105 495.2536 128.3526 492.2912 127.826C 489.3288 127.2993 484.2034 127.0313 475.5043 127.0642L475.5043 127.0642L475.4761 127.0642C 484.6783 126.989 488.1721 126.8103 489.8508 126.594C 491.5294 126.3777 491.379 126.1238 493.3163 125.6958C 495.611 125.7946 498.0185 125.8745 500.4872 126.1661C 500.901 125.6958 500.7646 125.3291 500.2379 125.0517C 506.1487 124.967 512.0781 124.7272 518.003 124.5485L518.003 124.5485L515.6519 122.9403C 517.655 122.4701 516.7616 122.409 514.8713 122.536C 514.3494 122.4231 511.307 122.6394 507.7286 122.8322C 504.2673 123.064 500.8051 123.0861 497.3414 122.898C 496.6596 122.3338 499.2223 121.8823 503.2991 121.4215C 507.3759 120.9607 512.9998 120.3729 518.4449 119.7005L518.4449 119.7005L521.5767 119.677L521.5767 119.677L523.5469 118.7366C 523.213 118.4591 517.9935 119.329 511.4857 120.119C 504.9778 120.909 497.1956 121.4827 491.7364 120.8149C 493.5326 120.7115 497.426 120.387 501.4981 120.0014L501.4981 120.0014L502.7678 120.1143L502.7678 120.1143L501.8273 119.9685C 506.3368 119.5641 511.0155 118.9482 513.2678 118.5579C 515.5202 118.1676 515.3462 117.9184 510.1691 118.0876C 510.9167 118.6942 504.8273 119.282 498.7944 119.4983C 494.5624 118.8635 491.5765 118.5155 489.4887 118.3557L489.4887 118.3557L502.5186 117.8855C 504.691 117.8196 506.8587 117.7209 509.0311 117.608L509.0311 117.608L515.5484 117.293C 514.7631 115.3416 509.5625 113.6535 504.7662 111.876C 499.9699 110.0986 495.5734 108.1801 496.3398 106.0029C 484.6125 106.6612 484.2833 105.9277 482.5764 105.2835C 480.8695 104.6393 477.7943 104.1173 460.5324 105.0296L460.5324 105.0296L463.8521 105.0625C 462.2346 105.6456 455.8349 105.8102 450.0793 105.7349C 444.3238 105.6597 439.2172 105.3164 440.1624 104.8509L440.1624 104.8509L442.6357 104.8039C 443.9712 104.8039 445.4571 104.771 446.9853 104.7145L446.9853 104.7145L452.8678 104.5876L452.8678 104.5876L475.2457 104.0656C 478.8052 103.9857 482.2002 103.9528 485.299 103.9104C 488.3978 103.8681 491.2003 103.854 493.5843 103.9104C 494.1251 103.0829 491.8351 102.6691 489.658 102.3305L489.658 102.3305L496.4433 101.2678L496.4433 101.2678L499.1329 101.0844C 500.9433 101.1549 501.1079 101.0844 500.8492 100.9622C 505.3775 100.6612 509.1346 100.2944 512.238 99.98409C 515.3415 99.67375 517.782 99.3916 519.6628 99.13768C 523.4246 98.62514 524.967 98.19724 525.0704 97.86809C 525.282 97.17216 519.7804 96.72073 514.9512 96.19409C 518.0336 96.10052 521.1121 96.17435 524.1864 96.41512C 522.8792 95.8038 519.0939 95.83672 514.5092 96.14708C 508.796 95.51227 504.3383 94.7364 511.9747 93.32574C 509.4261 93.66899 505.9135 93.97466 503.854 94.09691C 505.6573 93.85098 507.4253 93.44987 509.1581 92.89314L509.1581 92.89314L527.2382 91.55299C 532.6316 91.08278 537.3338 90.7301 541.1238 90.495C 545.3558 90.02478 546.3433 89.8367 545.3934 89.74736C 544.9232 89.69562 543.9828 89.68623 542.6849 89.69562C 541.3871 89.70503 539.826 89.77086 538.0908 89.832L538.0908 89.832L527.2428 90.25989C 525.1113 90.37604 522.9794 90.37604 520.8478 90.25989C 506.9668 90.58905 512.2568 89.38057 519.5594 87.81473L519.5594 87.81473L525.1598 86.62978C 526.9701 86.23479 528.6394 85.84448 529.9137 85.51535C 532.4576 84.84763 533.4028 84.40561 530.6614 84.41974C 525.6817 85.48244 520.6456 86.36176 515.6143 87.31158C 508.5844 87.88527 517.1801 84.96048 526.8995 83.36172L526.8995 83.36172L516.0281 84.82883C 511.2365 85.47302 505.5515 86.31003 499.6737 86.99654C 507.6675 85.76927 506.2568 85.22849 498.6345 84.11877L498.6345 84.11877L493.8853 84.47144L493.8853 84.47144L502.6549 83.06079C 504.7202 82.83414 506.767 82.49747 508.796 82.0498C 514.3682 81.10934 519.9967 80.20181 525.3807 79.37427C 530.7366 78.47141 535.8385 77.5921 540.3809 76.90088C 539.9624 76.46356 538.2555 76.34131 535.0391 76.70807C 535.5093 75.86639 534.4326 75.85696 531.8793 76.17673C 530.6002 76.33191 528.9497 76.58115 526.9278 76.82562C 524.9058 77.07016 522.4889 77.29584 519.7099 77.46512L519.7099 77.46512L505.6267 80.04666L505.6267 80.04666L507.4841 78.47141L507.4841 78.47141L504.9919 78.63599L504.9919 78.63599L513.5923 77.25354C 511.4081 77.30621 509.2324 77.47217 507.0656 77.75198C 503.9057 78.10464 499.8571 78.51843 495.3759 79.05917C 481.7394 79.52942 488.9056 78.2457 495.7003 76.93848C 498.1314 76.46826 500.5107 75.99802 501.8649 75.58893C 505.2646 74.98706 507.9355 74.38989 509.5108 73.94788C 511.086 73.50586 511.5562 73.1814 510.5264 73.04034L510.5264 73.04034L521.5673 72.24567C 523.8243 71.6626 522.3431 71.30521 521.4497 70.92435C 520.5563 70.54346 520.2836 70.35538 524.8729 69.76291L524.8729 69.76291L484.4338 74.83661L484.4338 74.83661L482.5858 74.88831L482.5858 74.88831L484.3445 74.62027C 495.2348 73.52469 500.7646 72.16574 506.2521 71.0419L506.2521 71.0419L511.3258 70.12024C 514.702 69.88983 517.8384 69.5748 520.6268 69.13278C 517.7067 69.28326 515.2568 69.5231 513.0468 69.81934L513.0468 69.81934L518.3322 68.87888C 517.1331 69.09988 513.818 69.5983 509.3979 70.23779C 507.296 70.35538 505.133 70.47763 502.843 70.47293C 511.307 69.71115 514.4246 69.14691 514.6597 68.79425C 515.9763 68.62967 517.0531 68.50269 517.8807 68.41806L517.8807 68.41806L514.6785 68.72369C 514.4998 68.37103 511.2929 68.18765 507.6252 68.04187C 512.9293 67.40237 517.0296 66.93216 518.2898 66.8334C 528.7664 64.62335 523.6221 64.87259 519.2302 65.07007L519.2302 65.07007L518.9199 65.1312L518.9199 65.1312L518.5955 65.103L518.5955 65.103L519.2302 65.07007L519.2302 65.07007L520.0861 64.91492L520.0861 64.91492L518.5955 65.09827C 517.4481 64.99484 517.1848 64.81616 517.5469 64.59512C 520.0531 64.12491 524.8917 63.47131 533.116 62.00424C 530.7084 62.3945 528.3055 62.80829 525.8933 63.17508C 523.4811 63.54184 521.0406 63.8616 518.6143 64.20959C 520.0767 63.80518 522.7052 63.33493 525.6676 62.79892L525.6676 62.79892L534.8793 61.13431C 537.7946 60.61707 540.2962 60.13272 541.6176 59.85532C 542.9388 59.57788 543.0706 59.44153 541.2413 59.4509C 540.0752 59.05124 534.5454 59.4509 527.699 60.08102L527.699 60.08102L525.0751 60.302L525.0751 60.302L522.3431 60.49011L522.3431 60.49011L516.7522 60.8804C 513.0468 61.15781 509.3697 61.39291 506.1534 61.5434z" stroke="none" fill="#7ED957" fill-rule="nonzero" /><path id="683" transform="matrix(1 0 0 -1 0 842)" d="M512.9293 84.63602C 517.5563 83.45578 522.1738 82.28491 526.7538 81.02942C 531.3337 79.77393 535.8715 78.37735 540.3903 77.01843C 540.6583 77.74728 538.1332 79.12503 533.3745 80.62033C 530.4977 81.51282 527.5823 82.25436 524.6284 82.84448C 521.2004 83.51221 517.2694 84.1282 512.9293 84.63602z" stroke="none" fill="#7ED957" fill-rule="nonzero" /><path id="684" transform="matrix(1 0 0 -1 0 842)" d="M503.1581 51.02924L492.4887 51.14679C 495.7567 51.00574 499.5703 50.93518 503.1581 51.02924z" stroke="none" fill="#7ED957" fill-rule="nonzero" /><path id="685" transform="matrix(1 0 0 -1 0 842)" d="M524.8635 173.762L525.5359 173.6821L525.5359 173.6821L526.3776 173.6209L526.3776 173.6209L526.5187 173.6209L526.5187 173.6209L526.8055 173.5833L526.8055 173.5833L527.0453 173.5833L527.0453 173.5833L527.1112 173.5833L527.1112 173.5833L526.4247 173.6256L526.4247 173.6256L526.4529 173.6256L526.4529 173.6256L526.5375 173.6256L526.5375 173.6256L526.8619 173.6538L526.8619 173.6538L527.5156 173.7197L527.5156 173.7197L528.804 173.8325L528.804 173.8325L531.3149 174.0629C 527.8024 174.1758 524.3463 174.1899 520.8713 174.2369L520.8713 174.2369L523.5281 173.9172L523.5281 173.9172L524.8635 173.762z" stroke="none" fill="#7ED957" fill-rule="nonzero" /><path id="686" transform="matrix(1 0 0 -1 0 842)" d="M517.8572 175.9673L507.564 176.8843L507.564 176.8843L497.3508 177.6883C 498.6345 177.4297 501.2348 176.9219 496.6172 177.0206L496.6172 177.0206L507.1926 176.5504L507.1926 176.5504L517.8572 175.9673z" stroke="none" fill="#7ED957" fill-rule="nonzero" /></g><g clip-path="url(#17)"></g><g clip-path="url(#18)"><g transform="matrix(0.1246875 0 0 0.1241722 489.3888 8.540771)"><g transform="matrix(1 0 0 1 0 0)"><image x="0" y="0" xlink:href="img_06.png" width="800" height="453" /></g></g></g><g clip-path="url(#19)"></g></g></g></svg>