<svg xmlns="http://www.w3.org/2000/svg" xmlns:xlink="http://www.w3.org/1999/xlink" id="body_1" preserveAspectRatio="xMinYMin meet" viewBox="0 0 793 1123"><defs><clipPath id="1"><path id="" clip-rule="evenodd" transform="matrix(1 0 0 1 0 0)" d="M0 842L0 -0.250061L0 -0.250061L595.5 -0.250061L595.5 -0.250061L595.5 842L595.5 842L0 842z" /></clipPath><clipPath id="2"><path id="" clip-rule="evenodd" transform="matrix(1 0 0 1 0 0)" d="M0 -0.25L595.5 -0.25L595.5 -0.25L595.5 842.0012L595.5 842.0012L0 842.0012z" /></clipPath><clipPath id="3"><path id="" clip-rule="evenodd" transform="matrix(1 0 0 1 0 0)" d="M0 -0.25L595.5 -0.25L595.5 -0.25L595.5 842.0012L595.5 842.0012L0 842.0012z" /></clipPath><clipPath id="4"><path id="" clip-rule="evenodd" transform="matrix(1 0 0 1 0 0)" d="M0 -0.25L595.68 -0.25L595.68 -0.25L595.68 842.15L595.68 842.15L0 842.15z" /></clipPath><clipPath id="5"><path id="" clip-rule="evenodd" transform="matrix(1 0 0 1 0 0)" d="M0 -0.25L595.5 -0.25L595.5 -0.25L595.5 842.0012L595.5 842.0012L0 842.0012z" /></clipPath><clipPath id="6"><path id="" clip-rule="evenodd" transform="matrix(1 0 0 1 0 0)" d="M75.59999 39.35004L519.12 39.35004L519.12 39.35004L519.12 819.59L519.12 819.59L75.59999 819.59z" /></clipPath><clipPath id="7"><path id="" clip-rule="evenodd" transform="matrix(1 0 0 1 0 0)" d="M76.4271 39.48218L518.9271 39.48218L518.9271 39.48218L518.9271 819.4822L518.9271 819.4822L76.4271 819.4822z" /></clipPath><clipPath id="8"><path id="" clip-rule="evenodd" transform="matrix(1 0 0 1 0 0)" d="M8.4 114.71L580.8 114.71L580.8 114.71L580.8 792.95L580.8 792.95L8.4 792.95z" /></clipPath><clipPath id="9"><path id="" clip-rule="evenodd" transform="matrix(1 0 0 1 0 0)" d="M17.59994 123.7691L570.812 123.7691L570.812 123.7691L570.812 784.6091L570.812 784.6091L17.59994 784.6091z" /></clipPath><clipPath id="10"><path id="" clip-rule="evenodd" transform="matrix(1 0 0 1 0 0)" d="M49.00248 125.9217L541.5624 125.9217C 549.3192 125.9217 556.7592 129.0034 562.2456 134.4888C 567.7296 139.9744 570.8112 147.4141 570.8112 155.1716L570.8112 155.1716L570.8112 753.8564C 570.8112 761.6132 567.7296 769.0532 562.2456 774.5396C 556.7592 780.0236 549.3192 783.1052 541.5624 783.1052L541.5624 783.1052L49.00248 783.1052C 41.24496 783.1052 33.8052 780.0236 28.31966 774.5396C 22.83422 769.0532 19.75253 761.6132 19.75253 753.8564L19.75253 753.8564L19.75253 155.1716C 19.75253 147.4141 22.83422 139.9744 28.31966 134.4888C 33.8052 129.0034 41.24496 125.9217 49.00248 125.9217z" /></clipPath><clipPath id="11"><path id="" clip-rule="evenodd" transform="matrix(1 0 0 1 0 0)" d="M19.75253 125.9217L571.0037 125.9217L571.0037 125.9217L571.0037 782.9217L571.0037 782.9217L19.75253 782.9217z" /></clipPath><clipPath id="12"><path id="" clip-rule="evenodd" transform="matrix(1 0 0 1 0 0)" d="M19.75253 125.9226L572.2349 125.9226L572.2349 125.9226L572.2349 784.4346L572.2349 784.4346L19.75253 784.4346z" /></clipPath><clipPath id="13"><path id="" clip-rule="evenodd" transform="matrix(1 0 0 1 0 0)" d="M49.002 125.9226L541.5528 125.9226C 549.312 125.9226 556.752 129.0042 562.236 134.4896C 567.7224 139.9748 570.804 147.4146 570.804 155.1721L570.804 155.1721L570.804 753.8468C 570.804 761.6036 567.7224 769.0436 562.236 774.53C 556.752 780.014 549.312 783.0956 541.5528 783.0956L541.5528 783.0956L49.002 783.0956C 41.24448 783.0956 33.80496 780.014 28.31952 774.53C 22.83415 769.0436 19.75253 761.6036 19.75253 753.8468L19.75253 753.8468L19.75253 155.1721C 19.75253 147.4146 22.83415 139.9748 28.31952 134.4896C 33.80496 129.0042 41.24448 125.9226 49.002 125.9226z" /></clipPath><clipPath id="14"><path id="" clip-rule="evenodd" transform="matrix(1 0 0 1 0 0)" d="M0 -0.25L595.5 -0.25L595.5 -0.25L595.5 842.0012L595.5 842.0012L0 842.0012z" /></clipPath><clipPath id="15"><path id="" clip-rule="evenodd" transform="matrix(1 0 0 1 0 0)" d="M0 -0.25L595.5 -0.25L595.5 -0.25L595.5 842.0012L595.5 842.0012L0 842.0012z" /></clipPath><clipPath id="16"><path id="" clip-rule="evenodd" transform="matrix(1 0 0 1 0 0)" d="M387.7224 174.3754L563.806 174.3754L563.806 174.3754L563.806 350.4591L563.806 350.4591L387.7224 350.4591z" /></clipPath><clipPath id="17"><path id="" clip-rule="evenodd" transform="matrix(1 0 0 1 0 0)" d="M475.7664 174.3754C 427.1424 174.3754 387.7224 213.7933 387.7224 262.418C 387.7224 311.042 427.1424 350.4596 475.7664 350.4596C 524.3904 350.4596 563.808 311.042 563.808 262.418C 563.808 213.7933 524.3904 174.3754 475.7664 174.3754z" /></clipPath><clipPath id="18"><path id="" clip-rule="evenodd" transform="matrix(1 0 0 1 0 0)" d="M387.7224 174.3754L563.806 174.3754L563.806 174.3754L563.806 350.4591L563.806 350.4591L387.7224 350.4591z" /></clipPath><clipPath id="19"><path id="" clip-rule="evenodd" transform="matrix(1 0 0 1 0 0)" d="M0 -0.25L595.5 -0.25L595.5 -0.25L595.5 842.0012L595.5 842.0012L0 842.0012z" /></clipPath><clipPath id="20"><path id="" clip-rule="evenodd" transform="matrix(1 0 0 1 0 0)" d="M0 -0.25L595.5 -0.25L595.5 -0.25L595.5 842.0012L595.5 842.0012L0 842.0012z" /></clipPath><clipPath id="21"><path id="" clip-rule="evenodd" transform="matrix(1 0 0 1 0 0)" d="M387.7224 174.3754L563.9724 174.3754L563.9724 174.3754L563.9724 350.6254L563.9724 350.6254L387.7224 350.6254z" /></clipPath><clipPath id="22"><path id="" clip-rule="evenodd" transform="matrix(1 0 0 1 0 0)" d="M387.7224 174.3754L563.7968 174.3754L563.7968 174.3754L563.7968 350.4498L563.7968 350.4498L387.7224 350.4498z" /></clipPath><clipPath id="23"><path id="" clip-rule="evenodd" transform="matrix(1 0 0 1 0 0)" d="M475.7616 174.3754C 427.14 174.3754 387.7224 213.7911 387.7224 262.4132C 387.7224 311.0348 427.14 350.45 475.7616 350.45C 524.3832 350.45 563.7983 311.0348 563.7983 262.4132C 563.7983 213.7911 524.3832 174.3754 475.7616 174.3754z" /></clipPath><clipPath id="24"><path id="" clip-rule="evenodd" transform="matrix(1 0 0 1 0 0)" d="M0 -0.25L595.5 -0.25L595.5 -0.25L595.5 842.0012L595.5 842.0012L0 842.0012z" /></clipPath><clipPath id="25"><path id="" clip-rule="evenodd" transform="matrix(1 0 0 1 0 0)" d="M0 -0.25L595.5 -0.25L595.5 -0.25L595.5 842.0012L595.5 842.0012L0 842.0012z" /></clipPath><clipPath id="26"><path id="" clip-rule="evenodd" transform="matrix(1 0 0 1 0 0)" d="M37.56768 681.7772L185.5848 681.7772L185.5848 681.7772L185.5848 734.39L185.5848 734.39L37.56768 734.39z" /></clipPath><clipPath id="27"><path id="" clip-rule="evenodd" transform="matrix(1 0 0 1 0 0)" d="M37.56768 708.0404C 37.56768 715.0076 40.33464 721.6868 45.26016 726.6116C 50.18568 731.5388 56.86584 734.306 63.8316 734.306L63.8316 734.306L158.7506 734.306C 165.7162 734.306 172.3965 731.5388 177.3221 726.6116C 182.2474 721.6868 185.0146 715.0076 185.0146 708.0404C 185.0146 701.0756 182.2474 694.394 177.3221 689.4692C 172.3965 684.5444 165.7162 681.7772 158.7506 681.7772L158.7506 681.7772L63.8316 681.7772C 56.86584 681.7772 50.18568 684.5444 45.26016 689.4692C 40.33464 694.394 37.56768 701.0756 37.56768 708.0404z" /></clipPath><clipPath id="28"><path id="" clip-rule="evenodd" transform="matrix(1 0 0 1 0 0)" d="M38.26896 682.478L184.1817 682.478L184.1817 682.478L184.1817 733.6877L184.1817 733.6877L38.26896 733.6877z" /></clipPath><clipPath id="29"><path id="" clip-rule="evenodd" transform="matrix(1 0 0 1 0 0)" d="M63.8316 682.6196L158.7506 682.6196C 165.493 682.6196 171.9593 685.298 176.7269 690.0644C 181.4945 694.8332 184.1729 701.2988 184.1729 708.0404C 184.1729 714.7844 181.4945 721.25 176.7269 726.0164C 171.9593 730.7852 165.493 733.4636 158.7506 733.4636L158.7506 733.4636L63.8316 733.4636C 57.08928 733.4636 50.62296 730.7852 45.85536 726.0164C 41.08776 721.25 38.40936 714.7844 38.40936 708.0404C 38.40936 701.2988 41.08776 694.8332 45.85536 690.0644C 50.62296 685.298 57.08928 682.6196 63.8316 682.6196z" /></clipPath><clipPath id="30"><path id="" clip-rule="evenodd" transform="matrix(1 0 0 1 0 0)" d="M37.56768 681.7772L184.8835 681.7772L184.8835 681.7772L184.8835 734.39L184.8835 734.39L37.56768 734.39z" /></clipPath><clipPath id="31"><path id="" clip-rule="evenodd" transform="matrix(1 0 0 1 0 0)" d="M0 -0.25L595.5 -0.25L595.5 -0.25L595.5 842.0012L595.5 842.0012L0 842.0012z" /></clipPath><clipPath id="32"><path id="" clip-rule="evenodd" transform="matrix(1 0 0 1 0 0)" d="M0 -0.25L595.5 -0.25L595.5 -0.25L595.5 842.0012L595.5 842.0012L0 842.0012z" /></clipPath><clipPath id="33"><path id="" clip-rule="evenodd" transform="matrix(1 0 0 1 0 0)" d="M37.56768 681.7772L185.5848 681.7772L185.5848 681.7772L185.5848 734.39L185.5848 734.39L37.56768 734.39z" /></clipPath><clipPath id="34"><path id="" clip-rule="evenodd" transform="matrix(1 0 0 1 0 0)" d="M37.56768 708.0404C 37.56768 715.0076 40.33464 721.6868 45.26016 726.6116C 50.18568 731.5388 56.86584 734.306 63.8316 734.306L63.8316 734.306L158.7506 734.306C 165.7162 734.306 172.3965 731.5388 177.3221 726.6116C 182.2474 721.6868 185.0146 715.0076 185.0146 708.0404C 185.0146 701.0756 182.2474 694.394 177.3221 689.4692C 172.3965 684.5444 165.7162 681.7772 158.7506 681.7772L158.7506 681.7772L63.8316 681.7772C 56.86584 681.7772 50.18568 684.5444 45.26016 689.4692C 40.33464 694.394 37.56768 701.0756 37.56768 708.0404z" /></clipPath><clipPath id="35"><path id="" clip-rule="evenodd" transform="matrix(1 0 0 1 0 0)" d="M37.56768 681.7772L184.8835 681.7772L184.8835 681.7772L184.8835 734.39L184.8835 734.39L37.56768 734.39z" /></clipPath><clipPath id="36"><path id="" clip-rule="evenodd" transform="matrix(1 0 0 1 0 0)" d="M37.56768 681.7772L185.5742 681.7772L185.5742 681.7772L185.5742 734.3871L185.5742 734.3871L37.56768 734.3871z" /></clipPath><clipPath id="37"><path id="" clip-rule="evenodd" transform="matrix(1 0 0 1 0 0)" d="M37.56768 708.0404C 37.56768 715.0052 40.3344 721.6844 45.25968 726.6092C 50.18472 731.5364 56.86464 734.3011 63.82968 734.3011L63.82968 734.3011L158.7418 734.3011C 165.707 734.3011 172.3867 731.5364 177.312 726.6092C 182.237 721.6844 185.0038 715.0052 185.0038 708.0404C 185.0038 701.0756 182.237 694.394 177.312 689.4692C 172.3867 684.5444 165.707 681.7772 158.7418 681.7772L158.7418 681.7772L63.82968 681.7772C 56.86464 681.7772 50.18472 684.5444 45.25968 689.4692C 40.3344 694.394 37.56768 701.0756 37.56768 708.0404z" /></clipPath><clipPath id="38"><path id="" clip-rule="evenodd" transform="matrix(1 0 0 1 0 0)" d="M0 -0.25L595.5 -0.25L595.5 -0.25L595.5 842.0012L595.5 842.0012L0 842.0012z" /></clipPath><clipPath id="39"><path id="" clip-rule="evenodd" transform="matrix(1 0 0 1 0 0)" d="M166.4865 714.0956L198.7558 714.0956L198.7558 714.0956L198.7558 761.7977L198.7558 761.7977L166.4865 761.7977z" /></clipPath><clipPath id="40"><path id="" clip-rule="evenodd" transform="matrix(1 0 0 1 0 0)" d="M103.4314 740.8268L126.581 740.8268L126.581 740.8268L126.581 775.2005L126.581 775.2005L103.4314 775.2005z" /></clipPath><clipPath id="41"><path id="" clip-rule="evenodd" transform="matrix(1 0 0 1 0 0)" d="M0 -0.25L595.5 -0.25L595.5 -0.25L595.5 842.0012L595.5 842.0012L0 842.0012z" /></clipPath><clipPath id="42"><path id="" clip-rule="evenodd" transform="matrix(1 0 0 1 0 0)" d="M0 -0.25L595.5 -0.25L595.5 -0.25L595.5 842.0012L595.5 842.0012L0 842.0012z" /></clipPath><clipPath id="43"><path id="" clip-rule="evenodd" transform="matrix(1 0 0 1 0 0)" d="M0 -0.25L595.5 -0.25L595.5 -0.25L595.5 842.0012L595.5 842.0012L0 842.0012z" /></clipPath><clipPath id="44"><path id="" clip-rule="evenodd" transform="matrix(1 0 0 1 0 0)" d="M37.56768 447.2684L186.9878 447.2684L186.9878 447.2684L186.9878 500.5827L186.9878 500.5827L37.56768 500.5827z" /></clipPath><clipPath id="45"><path id="" clip-rule="evenodd" transform="matrix(1 0 0 1 0 0)" d="M37.56768 473.8004C 37.56768 488.4548 49.4472 500.3348 64.1016 500.3348L64.1016 500.3348L159.9965 500.3348C 174.6509 500.3348 186.5306 488.4548 186.5306 473.8004C 186.5306 459.146 174.6509 447.2684 159.9965 447.2684L159.9965 447.2684L64.1016 447.2684C 49.4472 447.2684 37.56768 459.146 37.56768 473.8004z" /></clipPath><clipPath id="46"><path id="" clip-rule="evenodd" transform="matrix(1 0 0 1 0 0)" d="M38.26896 447.9692L186.2863 447.9692L186.2863 447.9692L186.2863 499.8805L186.2863 499.8805L38.26896 499.8805z" /></clipPath><clipPath id="47"><path id="" clip-rule="evenodd" transform="matrix(1 0 0 1 0 0)" d="M64.1016 448.1084L159.9965 448.1084C 174.186 448.1084 185.6887 459.6116 185.6887 473.8004C 185.6887 487.9916 174.186 499.4948 159.9965 499.4948L159.9965 499.4948L64.1016 499.4948C 49.91208 499.4948 38.40936 487.9916 38.40936 473.8004C 38.40936 459.6116 49.91208 448.1084 64.1016 448.1084z" /></clipPath><clipPath id="48"><path id="" clip-rule="evenodd" transform="matrix(1 0 0 1 0 0)" d="M37.56768 447.2684L186.2863 447.2684L186.2863 447.2684L186.2863 500.5827L186.2863 500.5827L37.56768 500.5827z" /></clipPath><clipPath id="49"><path id="" clip-rule="evenodd" transform="matrix(1 0 0 1 0 0)" d="M0 -0.25L595.5 -0.25L595.5 -0.25L595.5 842.0012L595.5 842.0012L0 842.0012z" /></clipPath><clipPath id="50"><path id="" clip-rule="evenodd" transform="matrix(1 0 0 1 0 0)" d="M0 -0.25L595.5 -0.25L595.5 -0.25L595.5 842.0012L595.5 842.0012L0 842.0012z" /></clipPath><clipPath id="51"><path id="" clip-rule="evenodd" transform="matrix(1 0 0 1 0 0)" d="M37.56768 447.2684L186.9878 447.2684L186.9878 447.2684L186.9878 500.5827L186.9878 500.5827L37.56768 500.5827z" /></clipPath><clipPath id="52"><path id="" clip-rule="evenodd" transform="matrix(1 0 0 1 0 0)" d="M37.56768 473.8004C 37.56768 488.4548 49.4472 500.3348 64.1016 500.3348L64.1016 500.3348L159.9965 500.3348C 174.6509 500.3348 186.5306 488.4548 186.5306 473.8004C 186.5306 459.146 174.6509 447.2684 159.9965 447.2684L159.9965 447.2684L64.1016 447.2684C 49.4472 447.2684 37.56768 459.146 37.56768 473.8004z" /></clipPath><clipPath id="53"><path id="" clip-rule="evenodd" transform="matrix(1 0 0 1 0 0)" d="M37.56768 447.2684L186.2863 447.2684L186.2863 447.2684L186.2863 500.5827L186.2863 500.5827L37.56768 500.5827z" /></clipPath><clipPath id="54"><path id="" clip-rule="evenodd" transform="matrix(1 0 0 1 0 0)" d="M37.56768 447.2684L186.9847 447.2684L186.9847 447.2684L186.9847 500.5767L186.9847 500.5767L37.56768 500.5767z" /></clipPath><clipPath id="55"><path id="" clip-rule="evenodd" transform="matrix(1 0 0 1 0 0)" d="M37.56768 473.798C 37.56768 488.4524 49.44696 500.33 64.10112 500.33L64.10112 500.33L159.9941 500.33C 174.648 500.33 186.5275 488.4524 186.5275 473.798C 186.5275 459.146 174.648 447.2684 159.9941 447.2684L159.9941 447.2684L64.10112 447.2684C 49.44696 447.2684 37.56768 459.146 37.56768 473.798z" /></clipPath><clipPath id="56"><path id="" clip-rule="evenodd" transform="matrix(1 0 0 1 0 0)" d="M0 -0.25L595.5 -0.25L595.5 -0.25L595.5 842.0012L595.5 842.0012L0 842.0012z" /></clipPath><clipPath id="57"><path id="" clip-rule="evenodd" transform="matrix(1 0 0 1 0 0)" d="M165.8731 481.8428L198.1423 481.8428L198.1423 481.8428L198.1423 529.5449L198.1423 529.5449L165.8731 529.5449z" /></clipPath><clipPath id="58"><path id="" clip-rule="evenodd" transform="matrix(1 0 0 1 0 0)" d="M101.6582 506.594L124.8079 506.594L124.8079 506.594L124.8079 540.9678L124.8079 540.9678L101.6582 540.9678z" /></clipPath><clipPath id="59"><path id="" clip-rule="evenodd" transform="matrix(1 0 0 1 0 0)" d="M0 -0.25L595.5 -0.25L595.5 -0.25L595.5 842.0012L595.5 842.0012L0 842.0012z" /></clipPath><clipPath id="60"><path id="" clip-rule="evenodd" transform="matrix(1 0 0 1 0 0)" d="M0 -0.25L595.5 -0.25L595.5 -0.25L595.5 842.0012L595.5 842.0012L0 842.0012z" /></clipPath><clipPath id="61"><path id="" clip-rule="evenodd" transform="matrix(1 0 0 1 0 0)" d="M37.56768 556.0748L185.5848 556.0748L185.5848 556.0748L185.5848 608.6876L185.5848 608.6876L37.56768 608.6876z" /></clipPath><clipPath id="62"><path id="" clip-rule="evenodd" transform="matrix(1 0 0 1 0 0)" d="M37.56768 582.338C 37.56768 589.3028 40.33464 595.9844 45.26016 600.9092C 50.18568 605.8364 56.86584 608.6011 63.8316 608.6011L63.8316 608.6011L158.7506 608.6011C 165.7162 608.6011 172.3965 605.8364 177.3221 600.9092C 182.2474 595.9844 185.0146 589.3028 185.0146 582.338C 185.0146 575.3732 182.2474 568.6916 177.3221 563.7668C 172.3965 558.842 165.7162 556.0748 158.7506 556.0748L158.7506 556.0748L63.8316 556.0748C 56.86584 556.0748 50.18568 558.842 45.26016 563.7668C 40.33464 568.6916 37.56768 575.3732 37.56768 582.338z" /></clipPath><clipPath id="63"><path id="" clip-rule="evenodd" transform="matrix(1 0 0 1 0 0)" d="M38.26896 556.7756L184.1817 556.7756L184.1817 556.7756L184.1817 607.9854L184.1817 607.9854L38.26896 607.9854z" /></clipPath><clipPath id="64"><path id="" clip-rule="evenodd" transform="matrix(1 0 0 1 0 0)" d="M63.8316 556.9172L158.7506 556.9172C 165.493 556.9172 171.9593 559.5956 176.7269 564.362C 181.4945 569.1308 184.1729 575.5964 184.1729 582.338C 184.1729 589.0796 181.4945 595.5476 176.7269 600.314C 171.9593 605.0828 165.493 607.7612 158.7506 607.7612L158.7506 607.7612L63.8316 607.7612C 57.08928 607.7612 50.62296 605.0828 45.85536 600.314C 41.08776 595.5476 38.40936 589.0796 38.40936 582.338C 38.40936 575.5964 41.08776 569.1308 45.85536 564.362C 50.62296 559.5956 57.08928 556.9172 63.8316 556.9172z" /></clipPath><clipPath id="65"><path id="" clip-rule="evenodd" transform="matrix(1 0 0 1 0 0)" d="M37.56768 556.0748L184.8835 556.0748L184.8835 556.0748L184.8835 608.6876L184.8835 608.6876L37.56768 608.6876z" /></clipPath><clipPath id="66"><path id="" clip-rule="evenodd" transform="matrix(1 0 0 1 0 0)" d="M0 -0.25L595.5 -0.25L595.5 -0.25L595.5 842.0012L595.5 842.0012L0 842.0012z" /></clipPath><clipPath id="67"><path id="" clip-rule="evenodd" transform="matrix(1 0 0 1 0 0)" d="M0 -0.25L595.5 -0.25L595.5 -0.25L595.5 842.0012L595.5 842.0012L0 842.0012z" /></clipPath><clipPath id="68"><path id="" clip-rule="evenodd" transform="matrix(1 0 0 1 0 0)" d="M37.56768 556.0748L185.5848 556.0748L185.5848 556.0748L185.5848 608.6876L185.5848 608.6876L37.56768 608.6876z" /></clipPath><clipPath id="69"><path id="" clip-rule="evenodd" transform="matrix(1 0 0 1 0 0)" d="M37.56768 582.338C 37.56768 589.3028 40.33464 595.9844 45.26016 600.9092C 50.18568 605.8364 56.86584 608.6011 63.8316 608.6011L63.8316 608.6011L158.7506 608.6011C 165.7162 608.6011 172.3965 605.8364 177.3221 600.9092C 182.2474 595.9844 185.0146 589.3028 185.0146 582.338C 185.0146 575.3732 182.2474 568.6916 177.3221 563.7668C 172.3965 558.842 165.7162 556.0748 158.7506 556.0748L158.7506 556.0748L63.8316 556.0748C 56.86584 556.0748 50.18568 558.842 45.26016 563.7668C 40.33464 568.6916 37.56768 575.3732 37.56768 582.338z" /></clipPath><clipPath id="70"><path id="" clip-rule="evenodd" transform="matrix(1 0 0 1 0 0)" d="M37.56768 556.0748L184.8835 556.0748L184.8835 556.0748L184.8835 608.6876L184.8835 608.6876L37.56768 608.6876z" /></clipPath><clipPath id="71"><path id="" clip-rule="evenodd" transform="matrix(1 0 0 1 0 0)" d="M37.56768 556.0748L185.5742 556.0748L185.5742 556.0748L185.5742 608.6847L185.5742 608.6847L37.56768 608.6847z" /></clipPath><clipPath id="72"><path id="" clip-rule="evenodd" transform="matrix(1 0 0 1 0 0)" d="M37.56768 582.338C 37.56768 589.3028 40.3344 595.982 45.25968 600.9068C 50.18472 605.8316 56.86464 608.5988 63.82968 608.5988L63.82968 608.5988L158.7418 608.5988C 165.707 608.5988 172.3867 605.8316 177.312 600.9068C 182.237 595.982 185.0038 589.3028 185.0038 582.338C 185.0038 575.3708 182.237 568.6916 177.312 563.7668C 172.3867 558.842 165.707 556.0748 158.7418 556.0748L158.7418 556.0748L63.82968 556.0748C 56.86464 556.0748 50.18472 558.842 45.25968 563.7668C 40.3344 568.6916 37.56768 575.3708 37.56768 582.338z" /></clipPath><clipPath id="73"><path id="" clip-rule="evenodd" transform="matrix(1 0 0 1 0 0)" d="M0 -0.25L595.5 -0.25L595.5 -0.25L595.5 842.0012L595.5 842.0012L0 842.0012z" /></clipPath><clipPath id="74"><path id="" clip-rule="evenodd" transform="matrix(1 0 0 1 0 0)" d="M168.7709 587.5772L201.0401 587.5772L201.0401 587.5772L201.0401 635.2794L201.0401 635.2794L168.7709 635.2794z" /></clipPath><clipPath id="75"><path id="" clip-rule="evenodd" transform="matrix(1 0 0 1 0 0)" d="M95.40744 618.3932L118.557 618.3932L118.557 618.3932L118.557 652.7669L118.557 652.7669L95.40744 652.7669z" /></clipPath><clipPath id="76"><path id="" clip-rule="evenodd" transform="matrix(1 0 0 1 0 0)" d="M0 -0.25L595.5 -0.25L595.5 -0.25L595.5 842.0012L595.5 842.0012L0 842.0012z" /></clipPath><clipPath id="77"><path id="" clip-rule="evenodd" transform="matrix(1 0 0 1 0 0)" d="M489.6168 15.00256L581.8668 15.00256L581.8668 15.00256L581.8668 67.50256L581.8668 67.50256L489.6168 67.50256z" /></clipPath></defs><g transform="matrix(1.333333 0 0 1.333333 0 0)"><g clip-path="url(#1)"><g clip-path="url(#2)"><path id="1" transform="matrix(1 0 0 -1 0 842)" d="M0 842.25L595.4999 842.25L595.4999 0L0 0z" stroke="none" fill="#FFFFFF" fill-rule="nonzero" /></g><g clip-path="url(#3)"><path id="2" transform="matrix(1 0 0 -1 0 842)" d="M0 842.25L595.4999 842.25L595.4999 0L0 0z" stroke="none" fill="#FFFFFF" fill-rule="nonzero" /><g><g clip-path="url(#4)"><g transform="matrix(0.9295319 0 0 0.9558346 -446.1624 -9.249939)"><g transform="matrix(1 0 0 1 0 0)"><image x="0" y="0" xlink:href="img_01.png" width="1600" height="900" /></g></g></g></g></g><g clip-path="url(#5)"><g><g clip-path="url(#6)"><g clip-path="url(#7)"><g transform="matrix(0 0.5128205 -0.5127462 0 518.9271 39.48224)"><g transform="matrix(1 0 0 1 0 0)"><image x="0" y="0" xlink:href="img_02.png" width="1521" height="863" /></g></g></g></g></g><g><g clip-path="url(#8)"><g clip-path="url(#9)"><g clip-path="url(#10)"><path id="5" transform="matrix(1 0 0 -1 0 842)" d="M19.75253 716.0782L570.8121 716.0782L570.8121 59.5423L19.75253 59.5423z" stroke="none" fill="#8CD5FF" fill-rule="nonzero" fill-opacity="0.1764706" /></g></g><g clip-path="url(#11)"><g clip-path="url(#12)"><g clip-path="url(#13)"><path id="6" transform="matrix(1 0 0 -1 0 842)" d="M49.00208 716.0774L541.5537 716.0774C 549.311 716.0774 556.751 712.9957 562.2365 707.5104C 567.7219 702.025 570.803 694.5853 570.803 686.8278L570.803 686.8278L570.803 88.15265C 570.803 80.39539 567.7219 72.95544 562.2365 67.47064C 556.751 61.98517 549.311 58.90338 541.5537 58.90338L541.5537 58.90338L49.00208 58.90338C 41.2446 58.90338 33.8049 61.98517 28.31955 67.47064C 22.83416 72.95544 19.75253 80.39539 19.75253 88.15265L19.75253 88.15265L19.75253 686.8278C 19.75253 694.5853 22.83416 702.025 28.31955 707.5104C 33.8049 712.9957 41.2446 716.0774 49.00208 716.0774z" stroke="#000000" stroke-width="4.5" fill="none" /></g></g></g></g></g></g><g clip-path="url(#14)"><g clip-path="url(#15)"><g clip-path="url(#16)"><g clip-path="url(#17)"><g clip-path="url(#18)"><g transform="matrix(0.4585512 0 0 0.4585512 387.7224 174.376)"><g transform="matrix(1 0 0 1 0 0)"><image x="0" y="0" xlink:href="img_03.png" width="384" height="384" /></g></g></g></g></g></g></g><g clip-path="url(#19)"><g clip-path="url(#20)"><g clip-path="url(#21)"><g clip-path="url(#22)"><g clip-path="url(#23)"><path id="8" transform="matrix(1 0 0 -1 0 842)" d="M475.7596 667.6245C 427.1379 667.6245 387.7224 628.2089 387.7224 579.5873C 387.7224 530.9655 427.1379 491.55 475.7596 491.55C 524.3813 491.55 563.7969 530.9655 563.7969 579.5873C 563.7969 628.2089 524.3813 667.6245 475.7596 667.6245z" stroke="#000000" stroke-width="1.5" fill="none" /></g></g></g></g></g><g clip-path="url(#24)"><g clip-path="url(#25)"><g clip-path="url(#26)"><g clip-path="url(#27)"><g clip-path="url(#28)"><g clip-path="url(#29)"><g clip-path="url(#30)"><path id="9" transform="matrix(1 0 0 -1 0 842)" d="M185.0039 134.0096C 185.0039 119.7002 173.4577 108.1539 159.1483 108.1539L159.1483 108.1539L63.4233 108.1539C 49.11389 108.0553 37.56768 119.7002 37.56768 134.0096C 37.56768 148.319 49.11389 159.8652 63.4233 159.8652L63.4233 159.8652L159.0496 159.8652C 173.4577 159.8652 185.0039 148.319 185.0039 134.0096z" stroke="none" fill="#7ED957" fill-rule="nonzero" /></g></g></g></g></g></g></g><g clip-path="url(#31)"><g clip-path="url(#32)"><g clip-path="url(#33)"><g clip-path="url(#34)"><g clip-path="url(#35)"><g clip-path="url(#36)"><g clip-path="url(#37)"><path id="10" transform="matrix(1 0 0 -1 0 842)" d="M37.56768 133.9603C 37.56768 126.995 40.33457 120.315 45.25966 115.3899C 50.18477 110.4647 56.86462 107.6977 63.82978 107.6977L63.82978 107.6977L158.7418 107.6977C 165.707 107.6977 172.3868 110.4647 177.312 115.3899C 182.2373 120.315 185.004 126.995 185.004 133.9603C 185.004 140.9255 182.2373 147.6055 177.312 152.5307C 172.3868 157.4559 165.707 160.2228 158.7418 160.2228L158.7418 160.2228L63.82978 160.2228C 56.86462 160.2228 50.18477 157.4559 45.25966 152.5307C 40.33457 147.6055 37.56768 140.9255 37.56768 133.9603z" stroke="#000000" stroke-width="5.999998" fill="none" /></g></g></g></g></g></g></g><g clip-path="url(#38)"></g><g clip-path="url(#39)"><path id="29" transform="matrix(1 0 0 -1 0 842)" d="M185.3848 117.1104C 185.2847 117.5714 185.5771 118.0266 186.0384 118.1267L186.0384 118.1267L190.0564 119.0017C 190.5176 119.1018 190.973 118.8094 191.0731 118.3484C 191.1732 117.8873 190.8808 117.4321 190.4195 117.3321L190.4195 117.3321L186.4015 116.457C 185.9403 116.355 185.4849 116.6493 185.3848 117.1104zM182.5014 121.2246C 182.101 121.4758 181.9792 122.0016 182.2305 122.4018L182.2305 122.4018L184.4151 125.8844C 184.6664 126.2846 185.1924 126.4063 185.5928 126.1551C 185.9933 125.904 186.115 125.3782 185.8637 124.9779L185.8637 124.9779L183.681 121.4954C 183.4298 121.0952 182.9018 120.9735 182.5014 121.2246zM172.273 114.0065C 172.3731 113.5454 172.0806 113.0902 171.6194 112.9902L171.6194 112.9902L167.6014 112.1151C 167.1402 112.0151 166.6848 112.3074 166.5847 112.7685C 166.4846 113.2295 166.777 113.6847 167.2383 113.7848L167.2383 113.7848L171.2562 114.6598C 171.7175 114.7599 172.1729 114.4676 172.273 114.0065zM173.0797 119.1999C 172.8285 118.7996 172.3024 118.678 171.902 118.9291L171.902 118.9291L168.416 121.1128C 168.0156 121.3639 167.8939 121.8898 168.1451 122.29C 168.3964 122.6902 168.9224 122.8119 169.3228 122.5608L169.3228 122.5608L172.8069 120.379C 173.2093 120.1279 173.329 119.6001 173.0797 119.1999zM177.3783 122.1173C 176.9171 122.0173 176.4617 122.3096 176.3616 122.7707L176.3616 122.7707L175.4881 126.7869C 175.388 127.2479 175.6805 127.7031 176.1418 127.8032C 176.603 127.9033 177.0584 127.6109 177.1585 127.1498L177.1585 127.1498L178.0339 123.1337C 178.1321 122.6726 177.8396 122.2174 177.3783 122.1173zM197.4622 86.27379C 196.9499 84.22351 195.3089 82.44202 193.3186 81.73178C 192.1743 81.32368 190.9357 81.24325 189.7305 81.26091C 188.4527 81.27856 187.1729 81.38058 185.8971 81.45514C 185.2494 81.49242 184.6016 81.53166 183.9558 81.57483C 183.3454 81.61603 182.7291 81.6278 182.1206 81.68666C 181.6358 81.73375 181.1784 81.85931 180.7957 82.17323C 180.3835 82.5107 180.0262 82.92664 179.6494 83.30334C 177.8161 85.13583 175.9828 86.96833 174.1495 88.80083C 172.5183 90.43124 170.8872 92.06165 169.2561 93.69206C 169.0402 93.90788 168.8282 94.11389 168.6712 94.38072C 168.4631 94.73584 168.3591 95.14001 168.363 95.55203C 168.3728 96.431 168.9322 97.31194 169.7861 97.59053C 170.2984 97.75926 170.8539 97.74553 171.3544 97.54344C 171.6135 97.43946 171.8569 97.27466 172.0983 97.13535C 172.3436 96.99409 172.589 96.85283 172.8344 96.7096C 173.8138 96.14455 174.7913 95.5795 175.7708 95.01444C 175.8493 94.96931 175.9278 94.92419 176.0063 94.87907C 176.3282 94.69267 176.7443 94.93008 176.7443 95.30286C 176.7443 95.77962 176.7443 96.25638 176.7443 96.73314C 176.7443 97.92995 176.7443 99.12873 176.7443 100.3255C 176.7443 101.8951 176.7443 103.4667 176.7443 105.0363C 176.7443 106.6314 176.7443 108.2265 176.7443 109.8196C 176.7443 111.0851 176.7443 112.3506 176.7443 113.6161C 176.7443 114.2184 176.7424 114.8207 176.7443 115.423C 176.7483 116.1431 177.0643 116.8259 177.6453 117.2614C 178.558 117.9422 179.8633 117.8206 180.6445 116.9966C 181.1077 116.508 181.253 115.8939 181.253 115.2425C 181.253 114.7874 181.253 114.3322 181.253 113.877C 181.253 112.3368 181.253 110.7967 181.253 109.2585C 181.253 108.095 181.253 106.9316 181.253 105.7681C 181.253 105.7073 181.253 105.6445 181.253 105.5837C 181.253 104.9519 182.2266 104.9519 182.2344 105.5837C 182.2521 107.0336 183.6398 108.1441 185.0629 107.7654C 185.8441 107.5574 186.4624 106.9394 186.6685 106.1605C 186.7823 105.7328 186.7431 105.2639 186.7431 104.8263C 186.7431 104.381 186.7431 103.9376 186.7431 103.4922C 186.7431 102.8604 187.7166 102.8604 187.7245 103.4922C 187.7422 104.9441 189.1299 106.0467 190.5549 105.672C 191.3342 105.466 191.9544 104.844 192.1605 104.0671C 192.2724 103.6492 192.2332 103.1959 192.2332 102.7682C 192.2332 102.3189 192.2332 101.8696 192.2332 101.4203C 192.2332 100.7886 193.2067 100.7886 193.2146 101.4203C 193.2283 102.5367 194.0665 103.5314 195.1951 103.6609C 196.5357 103.814 197.7036 102.7584 197.7232 101.4203C 197.7232 98.85013 197.7232 96.28189 197.7232 93.71169C 197.7232 92.39519 197.7232 91.07674 197.7232 89.76024C 197.7252 88.59286 197.7468 87.40977 197.4622 86.27379zM198.7066 91.27489C 198.7066 93.98636 198.7066 96.69587 198.7066 99.40733C 198.7066 100.0764 198.7066 100.7474 198.7066 101.4164C 198.685 102.8604 197.7193 104.1671 196.3061 104.5419C 195.1912 104.8362 194.0076 104.5026 193.2008 103.7119C 193.1812 103.9925 193.1361 104.2731 193.0399 104.5438C 192.6807 105.5444 191.8524 106.339 190.8179 106.6137C 189.9131 106.8531 188.8983 106.6883 188.1347 106.1409C 187.9836 106.033 187.8442 105.9133 187.7147 105.7838C 187.6951 106.0722 187.6499 106.3587 187.5518 106.6373C 187.1965 107.6281 186.3878 108.4109 185.3671 108.6973C 184.4524 108.9524 183.42 108.7876 182.6466 108.2343C 182.5014 108.1303 182.3659 108.0146 182.2403 107.891C 182.2403 108.0087 182.2403 108.1245 182.2403 108.2422C 182.2403 109.853 182.2403 111.4638 182.2403 113.0726C 182.2403 113.669 182.2403 114.2635 182.2403 114.86C 182.2403 115.2504 182.2501 115.633 182.1873 116.0195C 181.9596 117.44 180.7309 118.5112 179.3255 118.6662C 178.1046 118.8016 176.8857 118.1777 176.2438 117.1378C 175.7453 116.3295 175.7688 115.4642 175.7688 114.5657C 175.7688 113.4728 175.7688 112.378 175.7688 111.2852C 175.7688 109.7215 175.7688 108.1578 175.7688 106.5961C 175.7688 104.9421 175.7688 103.2881 175.7688 101.6322C 175.7688 100.2667 175.7688 98.90311 175.7688 97.53756C 175.7688 97.07649 175.761 96.6115 175.761 96.15044C 175.1368 96.51144 174.5106 96.87244 173.8864 97.23149C 173.5488 97.42573 173.2112 97.62193 172.8717 97.81616C 172.3181 98.13597 171.7725 98.5009 171.1345 98.61861C 169.8862 98.84817 168.6633 98.36356 167.941 97.31782C 167.3698 96.49378 167.2285 95.3676 167.5759 94.42584C 167.8448 93.69795 168.3571 93.20157 168.891 92.66791C 169.8135 91.74577 170.738 90.82167 171.6606 89.89954C 173.592 87.96895 175.5215 86.04031 177.4529 84.10971C 177.9338 83.62903 178.4128 83.1503 178.8937 82.66962C 179.2941 82.26937 179.6749 81.83577 180.1087 81.47084C 180.5582 81.09414 181.0587 80.85674 181.6377 80.7606C 182.2776 80.65465 182.9293 80.65662 183.575 80.61149C 184.9333 80.51732 186.2936 80.4408 187.6538 80.36624C 188.9631 80.29365 190.2742 80.20339 191.5815 80.35251C 192.8377 80.49573 194.0409 80.83319 195.1107 81.51989C 196.0725 82.13791 196.889 82.96391 197.5054 83.92529C 198.1806 84.97887 198.5201 86.14822 198.6418 87.38623C 198.7616 88.67918 198.7066 89.98587 198.7066 91.27489z" stroke="none" fill="#000000" fill-rule="nonzero" /></g><g clip-path="url(#40)"><g transform="matrix(0 -0.361829 0.3617126 0 103.4312 775.1996)"><g transform="matrix(1 0 0 1 0 0)"><image x="0" y="0" xlink:href="img_04.png" width="95" height="64" /></g></g></g><g clip-path="url(#41)"><path id="31" transform="matrix(1 0 0 -1 0 842)" d="M49.43256 685.5482C 49.43256 685.2499 49.37548 684.9628 49.26125 684.6872C 49.14711 684.4115 48.9845 684.1682 48.77353 683.9572C 48.56255 683.7463 48.31926 683.5837 48.04356 683.4695C 47.76793 683.3553 47.4809 683.2982 47.18256 683.2982C 46.8842 683.2982 46.59718 683.3553 46.32148 683.4695C 46.04586 683.5837 45.80256 683.7463 45.59158 683.9572C 45.3806 684.1682 45.21801 684.4115 45.10386 684.6872C 44.98963 684.9628 44.93256 685.2499 44.93256 685.5482C 44.93256 685.8466 44.98963 686.1336 45.10386 686.4093C 45.21801 686.6849 45.3806 686.9282 45.59158 687.1392C 45.80256 687.3502 46.04586 687.5128 46.32148 687.6269C 46.59718 687.7411 46.8842 687.7982 47.18256 687.7982C 47.4809 687.7982 47.76793 687.7411 48.04356 687.6269C 48.31926 687.5128 48.56255 687.3502 48.77353 687.1392C 48.9845 686.9282 49.14711 686.6849 49.26125 686.4093C 49.37548 686.1336 49.43256 685.8466 49.43256 685.5482z" stroke="none" fill="#000000" fill-rule="nonzero" /><path id="81" transform="matrix(1 0 0 -1 0 842)" d="M49.43256 627.0482C 49.43256 626.7497 49.37548 626.4632 49.26125 626.1872C 49.14711 625.9112 48.9845 625.6682 48.77353 625.4575C 48.56255 625.246 48.31926 625.084 48.04356 624.9692C 47.76793 624.8552 47.4809 624.7982 47.18256 624.7982C 46.8842 624.7982 46.59718 624.8552 46.32148 624.9692C 46.04586 625.084 45.80256 625.246 45.59158 625.4575C 45.3806 625.6682 45.21801 625.9112 45.10386 626.1872C 44.98963 626.4632 44.93256 626.7497 44.93256 627.0482C 44.93256 627.3467 44.98963 627.634 45.10386 627.9092C 45.21801 628.1852 45.3806 628.4282 45.59158 628.639C 45.80256 628.8505 46.04586 629.0125 46.32148 629.1272C 46.59718 629.2412 46.8842 629.2982 47.18256 629.2982C 47.4809 629.2982 47.76793 629.2412 48.04356 629.1272C 48.31926 629.0125 48.56255 628.8505 48.77353 628.639C 48.9845 628.4282 49.14711 628.1852 49.26125 627.9092C 49.37548 627.634 49.43256 627.3467 49.43256 627.0482z" stroke="none" fill="#000000" fill-rule="nonzero" /><path id="129" transform="matrix(1 0 0 -1 0 842)" d="M49.43256 588.0482C 49.43256 587.7498 49.37548 587.4632 49.26125 587.1873C 49.14711 586.9112 48.9845 586.6682 48.77353 586.4575C 48.56255 586.246 48.31926 586.084 48.04356 585.9692C 47.76793 585.8552 47.4809 585.7982 47.18256 585.7982C 46.8842 585.7982 46.59718 585.8552 46.32148 585.9692C 46.04586 586.084 45.80256 586.246 45.59158 586.4575C 45.3806 586.6682 45.21801 586.9112 45.10386 587.1873C 44.98963 587.4632 44.93256 587.7498 44.93256 588.0482C 44.93256 588.3467 44.98963 588.634 45.10386 588.9092C 45.21801 589.1852 45.3806 589.4282 45.59158 589.639C 45.80256 589.8505 46.04586 590.0125 46.32148 590.1272C 46.59718 590.2412 46.8842 590.2982 47.18256 590.2982C 47.4809 590.2982 47.76793 590.2412 48.04356 590.1272C 48.31926 590.0125 48.56255 589.8505 48.77353 589.639C 48.9845 589.4282 49.14711 589.1852 49.26125 588.9092C 49.37548 588.634 49.43256 588.3467 49.43256 588.0482z" stroke="none" fill="#000000" fill-rule="nonzero" /><path id="186" transform="matrix(1 0 0 -1 0 842)" d="M49.43256 529.5482C 49.43256 529.2498 49.37548 528.9633 49.26125 528.6873C 49.14711 528.4112 48.9845 528.1682 48.77353 527.9575C 48.56255 527.746 48.31926 527.584 48.04356 527.4692C 47.76793 527.3552 47.4809 527.2982 47.18256 527.2982C 46.8842 527.2982 46.59718 527.3552 46.32148 527.4692C 46.04586 527.584 45.80256 527.746 45.59158 527.9575C 45.3806 528.1682 45.21801 528.4112 45.10386 528.6873C 44.98963 528.9633 44.93256 529.2498 44.93256 529.5482C 44.93256 529.8467 44.98963 530.134 45.10386 530.4092C 45.21801 530.6852 45.3806 530.9282 45.59158 531.139C 45.80256 531.3505 46.04586 531.5125 46.32148 531.6272C 46.59718 531.7412 46.8842 531.7982 47.18256 531.7982C 47.4809 531.7982 47.76793 531.7412 48.04356 531.6272C 48.31926 531.5125 48.56255 531.3505 48.77353 531.139C 48.9845 530.9282 49.14711 530.6852 49.26125 530.4092C 49.37548 530.134 49.43256 529.8467 49.43256 529.5482z" stroke="none" fill="#000000" fill-rule="nonzero" /><path id="220" transform="matrix(1 0 0 -1 0 842)" d="M49.43256 490.5482C 49.43256 490.2497 49.37548 489.9632 49.26125 489.6872C 49.14711 489.4112 48.9845 489.1682 48.77353 488.9575C 48.56255 488.746 48.31926 488.584 48.04356 488.4692C 47.76793 488.3552 47.4809 488.2982 47.18256 488.2982C 46.8842 488.2982 46.59718 488.3552 46.32148 488.4692C 46.04586 488.584 45.80256 488.746 45.59158 488.9575C 45.3806 489.1682 45.21801 489.4112 45.10386 489.6872C 44.98963 489.9632 44.93256 490.2497 44.93256 490.5482C 44.93256 490.8467 44.98963 491.134 45.10386 491.4092C 45.21801 491.6852 45.3806 491.9282 45.59158 492.139C 45.80256 492.3505 46.04586 492.5125 46.32148 492.6272C 46.59718 492.7412 46.8842 492.7982 47.18256 492.7982C 47.4809 492.7982 47.76793 492.7412 48.04356 492.6272C 48.31926 492.5125 48.56255 492.3505 48.77353 492.139C 48.9845 491.9282 49.14711 491.6852 49.26125 491.4092C 49.37548 491.134 49.43256 490.8467 49.43256 490.5482z" stroke="none" fill="#000000" fill-rule="nonzero" /></g><g clip-path="url(#42)"><g clip-path="url(#43)"><g clip-path="url(#44)"><g clip-path="url(#45)"><g clip-path="url(#46)"><g clip-path="url(#47)"><g clip-path="url(#48)"><path id="307" transform="matrix(1 0 0 -1 0 842)" d="M186.5275 368.2512C 186.5275 353.7939 174.8619 342.1284 160.4047 342.1284L160.4047 342.1284L63.69048 342.1284C 49.2332 342.0287 37.56768 353.7939 37.56768 368.2512C 37.56768 382.7085 49.2332 394.374 63.69048 394.374L63.69048 394.374L160.305 394.374C 174.8619 394.374 186.5275 382.7085 186.5275 368.2512z" stroke="none" fill="#7ED957" fill-rule="nonzero" /></g></g></g></g></g></g></g><g clip-path="url(#49)"><g clip-path="url(#50)"><g clip-path="url(#51)"><g clip-path="url(#52)"><g clip-path="url(#53)"><g clip-path="url(#54)"><g clip-path="url(#55)"><path id="308" transform="matrix(1 0 0 -1 0 842)" d="M37.56768 368.2005C 37.56768 353.5478 49.44714 341.6695 64.10112 341.6695L64.10112 341.6695L159.994 341.6695C 174.6477 341.6695 186.5276 353.5478 186.5276 368.2005C 186.5276 382.8532 174.6477 394.7316 159.994 394.7316L159.994 394.7316L64.10112 394.7316C 49.44714 394.7316 37.56768 382.8532 37.56768 368.2005z" stroke="#000000" stroke-width="5.999998" fill="none" /></g></g></g></g></g></g></g><g clip-path="url(#56)"></g><g clip-path="url(#57)"><path id="340" transform="matrix(1 0 0 -1 0 842)" d="M184.7714 349.3631C 184.6712 349.8242 184.9637 350.2794 185.425 350.3795L185.425 350.3795L189.4429 351.2545C 189.9042 351.3546 190.3596 351.0622 190.4597 350.6012C 190.5598 350.1401 190.2673 349.6849 189.806 349.5848L189.806 349.5848L185.7881 348.7098C 185.3268 348.6078 184.8715 348.9021 184.7714 349.3631zM181.8879 353.4774C 181.4875 353.7285 181.3658 354.2544 181.6171 354.6546L181.6171 354.6546L183.8017 358.1371C 184.0529 358.5374 184.579 358.659 184.9794 358.4079C 185.3798 358.1568 185.5015 357.631 185.2503 357.2307L185.2503 357.2307L183.0676 353.7482C 182.8164 353.3479 182.2884 353.2263 181.8879 353.4774zM171.6595 346.2593C 171.7597 345.7982 171.4672 345.343 171.0059 345.243L171.0059 345.243L166.988 344.3679C 166.5267 344.2679 166.0713 344.5602 165.9712 345.0213C 165.8711 345.4823 166.1636 345.9375 166.6248 346.0376L166.6248 346.0376L170.6428 346.9126C 171.1041 347.0127 171.5594 346.7203 171.6595 346.2593zM172.4663 351.4527C 172.215 351.0524 171.689 350.9308 171.2886 351.1819L171.2886 351.1819L167.8026 353.3656C 167.4021 353.6167 167.2804 354.1425 167.5317 354.5428C 167.7829 354.943 168.309 355.0647 168.7094 354.8135L168.7094 354.8135L172.1935 352.6318C 172.5958 352.3807 172.7156 351.8529 172.4663 351.4527zM176.7649 354.3701C 176.3036 354.2701 175.8483 354.5624 175.7482 355.0235L175.7482 355.0235L174.8747 359.0397C 174.7746 359.5007 175.067 359.9559 175.5283 360.056C 175.9896 360.156 176.445 359.8637 176.5451 359.4026L176.5451 359.4026L177.4205 355.3864C 177.5186 354.9254 177.2262 354.4702 176.7649 354.3701zM196.8487 318.5266C 196.3364 316.4763 194.6955 314.6948 192.7052 313.9846C 191.5608 313.5765 190.3223 313.496 189.1171 313.5137C 187.8393 313.5313 186.5595 313.6334 185.2837 313.7079C 184.6359 313.7452 183.9882 313.7845 183.3424 313.8276C 182.732 313.8688 182.1156 313.8806 181.5071 313.9395C 181.0223 313.9865 180.565 314.1121 180.1822 314.426C 179.77 314.7635 179.4128 315.1794 179.0359 315.5561C 177.2026 317.3886 175.3693 319.2211 173.536 321.0536C 171.9049 322.684 170.2738 324.3144 168.6427 325.9449C 168.4267 326.1607 168.2148 326.3667 168.0577 326.6335C 167.8497 326.9886 167.7456 327.3928 167.7496 327.8048C 167.7594 328.6838 168.3188 329.5647 169.1726 329.8433C 169.6849 330.0121 170.2404 329.9983 170.7409 329.7962C 171 329.6923 171.2434 329.5274 171.4849 329.3881C 171.7302 329.2469 171.9756 329.1056 172.2209 328.9624C 173.2004 328.3973 174.1779 327.8323 175.1573 327.2672C 175.2359 327.2221 175.3144 327.177 175.3929 327.1318C 175.7148 326.9455 176.1309 327.1829 176.1309 327.5556C 176.1309 328.0324 176.1309 328.5092 176.1309 328.9859C 176.1309 330.1827 176.1309 331.3815 176.1309 332.5783C 176.1309 334.1479 176.1309 335.7195 176.1309 337.2891C 176.1309 338.8842 176.1309 340.4792 176.1309 342.0724C 176.1309 343.3379 176.1309 344.6034 176.1309 345.8688C 176.1309 346.4712 176.129 347.0735 176.1309 347.6758C 176.1348 348.3959 176.4509 349.0786 177.0319 349.5142C 177.9446 350.195 179.2499 350.0734 180.0311 349.2493C 180.4943 348.7608 180.6396 348.1467 180.6396 347.4953C 180.6396 347.0401 180.6396 346.585 180.6396 346.1298C 180.6396 344.5896 180.6396 343.0495 180.6396 341.5113C 180.6396 340.3478 180.6396 339.1844 180.6396 338.0209C 180.6396 337.9601 180.6396 337.8973 180.6396 337.8365C 180.6396 337.2047 181.6131 337.2047 181.621 337.8365C 181.6387 339.2864 183.0264 340.3969 184.4494 340.0182C 185.2307 339.8102 185.849 339.1922 186.0551 338.4133C 186.1689 337.9856 186.1296 337.5167 186.1296 337.0791C 186.1296 336.6338 186.1296 336.1903 186.1296 335.745C 186.1296 335.1132 187.1032 335.1132 187.1111 335.745C 187.1287 337.1968 188.5165 338.2995 189.9415 337.9247C 190.7207 337.7188 191.341 337.0968 191.5471 336.3198C 191.659 335.9019 191.6197 335.4487 191.6197 335.021C 191.6197 334.5717 191.6197 334.1224 191.6197 333.6731C 191.6197 333.0414 192.5933 333.0414 192.6011 333.6731C 192.6149 334.7895 193.453 335.7842 194.5816 335.9137C 195.9223 336.0667 197.0902 335.0112 197.1098 333.6731C 197.1098 331.1029 197.1098 328.5347 197.1098 325.9645C 197.1098 324.648 197.1098 323.3295 197.1098 322.013C 197.1118 320.8456 197.1333 319.6626 196.8487 318.5266zM198.0932 323.5277C 198.0932 326.2391 198.0932 328.9486 198.0932 331.6601C 198.0932 332.3292 198.0932 333.0002 198.0932 333.6692C 198.0716 335.1132 197.1059 336.4199 195.6926 336.7946C 194.5777 337.0889 193.3941 336.7554 192.5874 335.9647C 192.5678 336.2453 192.5226 336.5258 192.4265 336.7966C 192.0672 337.7972 191.2389 338.5918 190.2045 338.8665C 189.2996 339.1059 188.2849 338.9411 187.5213 338.3937C 187.3702 338.2858 187.2308 338.1661 187.1013 338.0366C 187.0816 338.325 187.0365 338.6115 186.9383 338.89C 186.5831 339.8809 185.7744 340.6637 184.7537 340.9501C 183.839 341.2052 182.8065 341.0404 182.0332 340.4871C 181.8879 340.3831 181.7525 340.2674 181.6269 340.1438C 181.6269 340.2615 181.6269 340.3772 181.6269 340.495C 181.6269 342.1057 181.6269 343.7165 181.6269 345.3254C 181.6269 345.9218 181.6269 346.5163 181.6269 347.1127C 181.6269 347.5032 181.6367 347.8858 181.5739 348.2723C 181.3462 349.6927 180.1174 350.764 178.7121 350.919C 177.4912 351.0544 176.2722 350.4305 175.6304 349.3906C 175.1318 348.5823 175.1554 347.717 175.1554 346.8185C 175.1554 345.7256 175.1554 344.6308 175.1554 343.538C 175.1554 341.9743 175.1554 340.4106 175.1554 338.8488C 175.1554 337.1949 175.1554 335.5409 175.1554 333.885C 175.1554 332.5195 175.1554 331.1559 175.1554 329.7903C 175.1554 329.3293 175.1475 328.8643 175.1475 328.4032C 174.5233 328.7642 173.8972 329.1252 173.273 329.4843C 172.9354 329.6785 172.5978 329.8747 172.2582 330.0689C 171.7047 330.3888 171.159 330.7537 170.5211 330.8714C 169.2727 331.101 168.0499 330.6163 167.3276 329.5706C 166.7564 328.7466 166.615 327.6204 166.9625 326.6786C 167.2314 325.9507 167.7437 325.4543 168.2776 324.9207C 169.2001 323.9986 170.1246 323.0745 171.0471 322.1523C 172.9786 320.2217 174.9081 318.2931 176.8395 316.3625C 177.3204 315.8818 177.7993 315.4031 178.2802 314.9224C 178.6806 314.5222 179.0614 314.0886 179.4952 313.7236C 179.9447 313.3469 180.4453 313.1095 181.0243 313.0134C 181.6642 312.9074 182.3158 312.9094 182.9616 312.8643C 184.3199 312.7701 185.6801 312.6936 187.0404 312.619C 188.3496 312.5464 189.6608 312.4562 190.968 312.6053C 192.2243 312.7485 193.4275 313.086 194.4973 313.7727C 195.459 314.3907 196.2756 315.2167 196.8919 316.1781C 197.5671 317.2317 197.9067 318.401 198.0284 319.639C 198.1481 320.932 198.0932 322.2386 198.0932 323.5277z" stroke="none" fill="#000000" fill-rule="nonzero" /></g><g clip-path="url(#58)"><g transform="matrix(0 -0.361829 0.3617126 0 101.6583 540.9692)"><g transform="matrix(1 0 0 1 0 0)"><image x="0" y="0" xlink:href="img_04.png" width="95" height="64" /></g></g></g><g clip-path="url(#59)"><g clip-path="url(#60)"><g clip-path="url(#61)"><g clip-path="url(#62)"><g clip-path="url(#63)"><g clip-path="url(#64)"><g clip-path="url(#65)"><path id="342" transform="matrix(1 0 0 -1 0 842)" d="M185.0039 259.712C 185.0039 245.4026 173.4577 233.8563 159.1483 233.8563L159.1483 233.8563L63.4233 233.8563C 49.11389 233.7577 37.56768 245.4026 37.56768 259.712C 37.56768 274.0214 49.11389 285.5676 63.4233 285.5676L63.4233 285.5676L159.0496 285.5676C 173.4577 285.5676 185.0039 274.0214 185.0039 259.712z" stroke="none" fill="#7ED957" fill-rule="nonzero" /></g></g></g></g></g></g></g><g clip-path="url(#66)"><g clip-path="url(#67)"><g clip-path="url(#68)"><g clip-path="url(#69)"><g clip-path="url(#70)"><g clip-path="url(#71)"><g clip-path="url(#72)"><path id="343" transform="matrix(1 0 0 -1 0 842)" d="M37.56768 259.6627C 37.56768 252.6974 40.33457 246.0175 45.25966 241.0923C 50.18477 236.1671 56.86462 233.4001 63.82978 233.4001L63.82978 233.4001L158.7418 233.4001C 165.707 233.4001 172.3868 236.1671 177.312 241.0923C 182.2373 246.0175 185.004 252.6974 185.004 259.6627C 185.004 266.6279 182.2373 273.3079 177.312 278.2331C 172.3868 283.1583 165.707 285.9252 158.7418 285.9252L158.7418 285.9252L63.82978 285.9252C 56.86462 285.9252 50.18477 283.1583 45.25966 278.2331C 40.33457 273.3079 37.56768 266.6279 37.56768 259.6627z" stroke="#000000" stroke-width="5.999998" fill="none" /></g></g></g></g></g></g></g><g clip-path="url(#73)"></g><g clip-path="url(#74)"><path id="365" transform="matrix(1 0 0 -1 0 842)" d="M187.6691 243.6287C 187.569 244.0898 187.8615 244.545 188.3227 244.645L188.3227 244.645L192.3407 245.5201C 192.8019 245.6201 193.2573 245.3278 193.3574 244.8667C 193.4575 244.4057 193.1651 243.9505 192.7038 243.8504L192.7038 243.8504L188.6859 242.9754C 188.2246 242.8734 187.7692 243.1676 187.6691 243.6287zM184.7857 247.743C 184.3853 247.9941 184.2636 248.52 184.5148 248.9202L184.5148 248.9202L186.6995 252.4027C 186.9507 252.803 187.4767 252.9246 187.8772 252.6735C 188.2776 252.4223 188.3993 251.8965 188.148 251.4963L188.148 251.4963L185.9654 248.0138C 185.7141 247.6135 185.1861 247.4919 184.7857 247.743zM174.5573 240.5249C 174.6574 240.0638 174.3649 239.6086 173.9037 239.5085L173.9037 239.5085L169.8857 238.6335C 169.4245 238.5334 168.9691 238.8258 168.869 239.2868C 168.7689 239.7479 169.0613 240.2031 169.5226 240.3031L169.5226 240.3031L173.5405 241.1782C 174.0018 241.2783 174.4572 240.9859 174.5573 240.5249zM175.364 245.7182C 175.1128 245.318 174.5867 245.1964 174.1863 245.4475L174.1863 245.4475L170.7003 247.6312C 170.2999 247.8823 170.1782 248.4081 170.4294 248.8084C 170.6807 249.2086 171.2067 249.3303 171.6071 249.0791L171.6071 249.0791L175.0912 246.8974C 175.4936 246.6463 175.6133 246.1185 175.364 245.7182zM179.6627 248.6357C 179.2014 248.5356 178.746 248.828 178.6459 249.289L178.6459 249.289L177.7724 253.3052C 177.6723 253.7663 177.9648 254.2215 178.4261 254.3215C 178.8873 254.4216 179.3427 254.1293 179.4428 253.6682L179.4428 253.6682L180.3183 249.652C 180.4164 249.1909 180.1239 248.7358 179.6627 248.6357zM199.7465 212.7921C 199.2342 210.7419 197.5932 208.9604 195.6029 208.2502C 194.4586 207.8421 193.22 207.7616 192.0148 207.7793C 190.737 207.7969 189.4573 207.899 188.1814 207.9735C 187.5337 208.0108 186.8859 208.05 186.2402 208.0932C 185.6297 208.1344 185.0134 208.1462 184.4049 208.205C 183.9201 208.2521 183.4627 208.3777 183.08 208.6916C 182.6678 209.0291 182.3105 209.445 181.9337 209.8217C 180.1004 211.6542 178.2671 213.4867 176.4338 215.3192C 174.8027 216.9496 173.1715 218.58 171.5404 220.2104C 171.3245 220.4262 171.1125 220.6323 170.9555 220.8991C 170.7474 221.2542 170.6434 221.6584 170.6473 222.0704C 170.6571 222.9494 171.2165 223.8303 172.0704 224.1089C 172.5827 224.2776 173.1382 224.2639 173.6387 224.0618C 173.8978 223.9578 174.1412 223.793 174.3826 223.6537C 174.628 223.5125 174.8733 223.3712 175.1187 223.228C 176.0981 222.6629 177.0756 222.0979 178.0551 221.5328C 178.1336 221.4877 178.2121 221.4426 178.2906 221.3974C 178.6125 221.211 179.0287 221.4484 179.0287 221.8212C 179.0287 222.298 179.0287 222.7747 179.0287 223.2515C 179.0287 224.4483 179.0287 225.6471 179.0287 226.8439C 179.0287 228.4135 179.0287 229.985 179.0287 231.5546C 179.0287 233.1497 179.0287 234.7448 179.0287 236.338C 179.0287 237.6035 179.0287 238.8689 179.0287 240.1344C 179.0287 240.7367 179.0267 241.3391 179.0287 241.9414C 179.0326 242.6615 179.3486 243.3442 179.9296 243.7798C 180.8423 244.4606 182.1476 244.339 182.9288 243.5149C 183.3921 243.0264 183.5373 242.4123 183.5373 241.7609C 183.5373 241.3057 183.5373 240.8505 183.5373 240.3954C 183.5373 238.8552 183.5373 237.315 183.5373 235.7768C 183.5373 234.6134 183.5373 233.4499 183.5373 232.2865C 183.5373 232.2256 183.5373 232.1629 183.5373 232.102C 183.5373 231.4703 184.5109 231.4703 184.5187 232.102C 184.5364 233.5519 185.9241 234.6624 187.3472 234.2838C 188.1284 234.0758 188.7467 233.4578 188.9528 232.6789C 189.0667 232.2511 189.0274 231.7822 189.0274 231.3447C 189.0274 230.8993 189.0274 230.4559 189.0274 230.0106C 189.0274 229.3788 190.001 229.3788 190.0088 230.0106C 190.0265 231.4624 191.4142 232.5651 192.8392 232.1903C 193.6185 231.9843 194.2388 231.3624 194.4448 230.5854C 194.5567 230.1675 194.5175 229.7143 194.5175 229.2866C 194.5175 228.8373 194.5175 228.388 194.5175 227.9387C 194.5175 227.3069 195.491 227.3069 195.4989 227.9387C 195.5126 229.0551 196.3508 230.0498 197.4794 230.1793C 198.82 230.3323 199.9879 229.2768 200.0076 227.9387C 200.0076 225.3685 200.0076 222.8002 200.0076 220.23C 200.0076 218.9135 200.0076 217.5951 200.0076 216.2786C 200.0095 215.1112 200.0311 213.9281 199.7465 212.7921zM200.9909 217.7933C 200.9909 220.5047 200.9909 223.2142 200.9909 225.9257C 200.9909 226.5947 200.9909 227.2657 200.9909 227.9348C 200.9693 229.3788 200.0036 230.6855 198.5904 231.0602C 197.4755 231.3545 196.2919 231.021 195.4852 230.2303C 195.4655 230.5109 195.4204 230.7914 195.3242 231.0622C 194.965 232.0628 194.1367 232.8574 193.1023 233.1321C 192.1974 233.3714 191.1826 233.2066 190.4191 232.6592C 190.2679 232.5513 190.1286 232.4317 189.999 232.3022C 189.9794 232.5906 189.9342 232.877 189.8361 233.1556C 189.4808 234.1464 188.6721 234.9293 187.6514 235.2157C 186.7368 235.4708 185.7043 235.306 184.9309 234.7527C 184.7857 234.6487 184.6503 234.5329 184.5246 234.4093C 184.5246 234.5271 184.5246 234.6428 184.5246 234.7605C 184.5246 236.3713 184.5246 237.9821 184.5246 239.5909C 184.5246 240.1874 184.5246 240.7819 184.5246 241.3783C 184.5246 241.7688 184.5344 242.1513 184.4716 242.5379C 184.2439 243.9583 183.0152 245.0296 181.6098 245.1846C 180.3889 245.3199 179.17 244.696 178.5281 243.6562C 178.0296 242.8478 178.0531 241.9826 178.0531 241.084C 178.0531 239.9912 178.0531 238.8964 178.0531 237.8036C 178.0531 236.2399 178.0531 234.6762 178.0531 233.1144C 178.0531 231.4605 178.0531 229.8065 178.0531 228.1506C 178.0531 226.785 178.0531 225.4215 178.0531 224.0559C 178.0531 223.5948 178.0453 223.1299 178.0453 222.6688C 177.4211 223.0298 176.795 223.3908 176.1708 223.7498C 175.8331 223.9441 175.4955 224.1403 175.156 224.3345C 174.6024 224.6543 174.0568 225.0193 173.4189 225.137C 172.1705 225.3665 170.9476 224.8819 170.2253 223.8362C 169.6541 223.0121 169.5128 221.886 169.8602 220.9442C 170.1291 220.2163 170.6414 219.7199 171.1753 219.1863C 172.0979 218.2641 173.0224 217.34 173.9449 216.4179C 175.8763 214.4873 177.8058 212.5587 179.7372 210.6281C 180.2181 210.1474 180.6971 209.6687 181.178 209.188C 181.5784 208.7877 181.9592 208.3541 182.393 207.9892C 182.8425 207.6125 183.343 207.3751 183.922 207.279C 184.5619 207.173 185.2136 207.175 185.8594 207.1299C 187.2177 207.0357 188.5779 206.9592 189.9382 206.8846C 191.2474 206.812 192.5585 206.7218 193.8658 206.8709C 195.122 207.0141 196.3253 207.3516 197.395 208.0383C 198.3568 208.6563 199.1733 209.4823 199.7897 210.4436C 200.4649 211.4972 200.8045 212.6666 200.9262 213.9046C 201.0459 215.1975 200.9909 216.5042 200.9909 217.7933z" stroke="none" fill="#000000" fill-rule="nonzero" /></g><g clip-path="url(#75)"><g transform="matrix(0 -0.361829 0.3617126 0 95.4075 652.766)"><g transform="matrix(1 0 0 1 0 0)"><image x="0" y="0" xlink:href="img_04.png" width="95" height="64" /></g></g></g><g clip-path="url(#76)"><path id="367" transform="matrix(1 0 0 -1 0 842)" d="M233.9717 386.3832C 233.9717 386.0849 233.9146 385.7978 233.8004 385.5222C 233.6862 385.2465 233.5236 385.0032 233.3126 384.7922C 233.1017 384.5813 232.8584 384.4187 232.5827 384.3045C 232.307 384.1903 232.02 384.1332 231.7217 384.1332C 231.4233 384.1332 231.1363 384.1903 230.8606 384.3045C 230.585 384.4187 230.3417 384.5813 230.1307 384.7922C 229.9197 385.0032 229.7571 385.2465 229.643 385.5222C 229.5287 385.7978 229.4717 386.0849 229.4717 386.3832C 229.4717 386.6815 229.5287 386.9686 229.643 387.2443C 229.7571 387.5199 229.9197 387.7632 230.1307 387.9742C 230.3417 388.1852 230.585 388.3477 230.8606 388.4619C 231.1363 388.5761 231.4233 388.6332 231.7217 388.6332C 232.02 388.6332 232.307 388.5761 232.5827 388.4619C 232.8584 388.3477 233.1017 388.1852 233.3126 387.9742C 233.5236 387.7632 233.6862 387.5199 233.8004 387.2443C 233.9146 386.9686 233.9717 386.6815 233.9717 386.3832z" stroke="none" fill="#000000" fill-rule="nonzero" /><path id="480" transform="matrix(1 0 0 -1 0 842)" d="M233.9717 269.3832C 233.9717 269.0847 233.9146 268.7982 233.8004 268.5222C 233.6862 268.2462 233.5236 268.0032 233.3126 267.7924C 233.1017 267.581 232.8584 267.4189 232.5827 267.3042C 232.307 267.1902 232.02 267.1332 231.7217 267.1332C 231.4233 267.1332 231.1363 267.1902 230.8606 267.3042C 230.585 267.4189 230.3417 267.581 230.1307 267.7924C 229.9197 268.0032 229.7571 268.2462 229.643 268.5222C 229.5287 268.7982 229.4717 269.0847 229.4717 269.3832C 229.4717 269.6817 229.5287 269.969 229.643 270.2442C 229.7571 270.5202 229.9197 270.7632 230.1307 270.974C 230.3417 271.1855 230.585 271.3475 230.8606 271.4622C 231.1363 271.5762 231.4233 271.6332 231.7217 271.6332C 232.02 271.6332 232.307 271.5762 232.5827 271.4622C 232.8584 271.3475 233.1017 271.1855 233.3126 270.974C 233.5236 270.7632 233.6862 270.5202 233.8004 270.2442C 233.9146 269.969 233.9717 269.6817 233.9717 269.3832z" stroke="none" fill="#000000" fill-rule="nonzero" /><path id="635" transform="matrix(1 0 0 -1 0 842)" d="M233.9717 132.8832C 233.9717 132.5847 233.9146 132.2982 233.8004 132.0222C 233.6862 131.7462 233.5236 131.5032 233.3126 131.2924C 233.1017 131.081 232.8584 130.919 232.5827 130.8042C 232.307 130.6902 232.02 130.6332 231.7217 130.6332C 231.4233 130.6332 231.1363 130.6902 230.8606 130.8042C 230.585 130.919 230.3417 131.081 230.1307 131.2924C 229.9197 131.5032 229.7571 131.7462 229.643 132.0222C 229.5287 132.2982 229.4717 132.5847 229.4717 132.8832C 229.4717 133.1817 229.5287 133.469 229.643 133.7442C 229.7571 134.0202 229.9197 134.2632 230.1307 134.474C 230.3417 134.6855 230.585 134.8474 230.8606 134.9622C 231.1363 135.0762 231.4233 135.1332 231.7217 135.1332C 232.02 135.1332 232.307 135.0762 232.5827 134.9622C 232.8584 134.8474 233.1017 134.6855 233.3126 134.474C 233.5236 134.2632 233.6862 134.0202 233.8004 133.7442C 233.9146 133.469 233.9717 133.1817 233.9717 132.8832z" stroke="none" fill="#000000" fill-rule="nonzero" /></g><g clip-path="url(#77)"><g transform="matrix(0.06065089 0 0 0.06083429 489.6168 15.0025)"><g transform="matrix(1 0 0 1 0 0)"><image x="0" y="0" xlink:href="img_05.png" width="1521" height="863" /></g></g></g></g></g></svg>