<svg xmlns="http://www.w3.org/2000/svg" xmlns:xlink="http://www.w3.org/1999/xlink" id="body_1" preserveAspectRatio="xMinYMin meet" viewBox="0 0 793 1123"><defs><clipPath id="1"><path id="" clip-rule="evenodd" transform="matrix(1 0 0 1 0 0)" d="M0 842L0 -0.25L0 -0.25L595.5 -0.25L595.5 -0.25L595.5 842L595.5 842L0 842z" /></clipPath><clipPath id="2"><path id="" clip-rule="evenodd" transform="matrix(1 0 0 1 0 0)" d="M0 -0.249939L595.5 -0.249939L595.5 -0.249939L595.5 842.0001L595.5 842.0001L0 842.0001z" /></clipPath><clipPath id="3"><path id="" clip-rule="evenodd" transform="matrix(1 0 0 1 0 0)" d="M0 -0.249939L595.5 -0.249939L595.5 -0.249939L595.5 842.0001L595.5 842.0001L0 842.0001z" /></clipPath><clipPath id="4"><path id="" clip-rule="evenodd" transform="matrix(1 0 0 1 0 0)" d="M0 -0.249939L595.5 -0.249939L595.5 -0.249939L595.5 842.0001L595.5 842.0001L0 842.0001z" /></clipPath><clipPath id="5"><path id="" clip-rule="evenodd" transform="matrix(1 0 0 1 0 0)" d="M78.71999 30.71008L522.24 30.71008L522.24 30.71008L522.24 810.9501L522.24 810.9501L78.71999 810.9501z" /></clipPath><clipPath id="6"><path id="" clip-rule="evenodd" transform="matrix(1 0 0 1 0 0)" d="M79.51787 30.75183L522.0178 30.75183L522.0178 30.75183L522.0178 810.7518L522.0178 810.7518L79.51787 810.7518z" /></clipPath><clipPath id="7"><path id="" clip-rule="evenodd" transform="matrix(1 0 0 1 0 0)" d="M47.21159 192.3674L137.2116 192.3674L137.2116 192.3674L137.2116 282.3674L137.2116 282.3674L47.21159 282.3674z" /></clipPath><clipPath id="8"><path id="" clip-rule="evenodd" transform="matrix(1 0 0 1 0 0)" d="M0 -0.249939L595.5 -0.249939L595.5 -0.249939L595.5 842.0001L595.5 842.0001L0 842.0001z" /></clipPath><clipPath id="9"><path id="" clip-rule="evenodd" transform="matrix(1 0 0 1 0 0)" d="M0 -0.249939L595.5 -0.249939L595.5 -0.249939L595.5 842.0001L595.5 842.0001L0 842.0001z" /></clipPath><clipPath id="10"><path id="" clip-rule="evenodd" transform="matrix(1 0 0 1 0 0)" d="M310.488 479.9647L590.2793 479.9647L590.2793 479.9647L590.2793 804.7224L590.2793 804.7224L310.488 804.7224z" /></clipPath><clipPath id="11"><path id="" clip-rule="evenodd" transform="matrix(1 0 0 1 0 0)" d="M485.9587 480.6226C 467.1287 480.6226 448.1087 487.0726 434.7487 499.6826C 406.4087 526.4425 380.9088 557.9125 355.6088 587.5325C 332.6088 614.4625 309.0988 645.5825 310.8388 680.9525C 312.2688 710.1224 330.7388 735.4023 349.4088 757.8624C 367.3288 779.4123 389.0187 801.7023 416.9587 803.8923C 418.4587 804.0123 419.9587 804.0623 421.4387 804.0623C 441.5987 804.0623 460.6687 793.6423 477.7387 782.5123C 515.1486 758.1323 550.2786 727.6124 569.6985 687.4023C 578.3086 669.5825 583.6085 650.3024 587.0685 630.8124C 590.3586 612.2825 592.0085 593.0425 587.4985 574.7625C 582.1985 553.2525 568.7986 534.6625 554.2786 517.9326C 544.8186 507.0326 534.5486 496.4825 521.9186 489.4826C 511.2086 483.5426 498.6186 480.6226 485.9487 480.6226L485.9487 480.6226L485.9587 480.6226z" /></clipPath><clipPath id="12"><path id="" clip-rule="evenodd" transform="matrix(1 0 0 1 0 0)" d="M0 -0.249939L595.5 -0.249939L595.5 -0.249939L595.5 842.0001L595.5 842.0001L0 842.0001z" /></clipPath><clipPath id="13"><path id="" clip-rule="evenodd" transform="matrix(1 0 0 1 0 0)" d="M0 -0.249939L595.5 -0.249939L595.5 -0.249939L595.5 842.0001L595.5 842.0001L0 842.0001z" /></clipPath><clipPath id="14"><path id="" clip-rule="evenodd" transform="matrix(1 0 0 1 0 0)" d="M301.4947 152.2092L560.3016 152.2092L560.3016 152.2092L560.3016 486.9594L560.3016 486.9594L301.4947 486.9594z" /></clipPath><clipPath id="15"><path id="" clip-rule="evenodd" transform="matrix(1 0 0 1 0 0)" d="M441.3287 152.2129C 415.6687 152.2129 388.8788 165.6628 375.8188 187.5529C 355.8387 221.0228 339.8888 258.2528 323.6188 293.6428C 308.8288 325.8228 294.6989 362.1727 306.0088 395.7326C 315.3388 423.4126 339.9988 442.7026 364.0888 459.2226C 383.9488 472.8426 406.6387 486.2326 430.0687 486.2326C 433.9087 486.2326 437.7587 485.8726 441.6287 485.1026C 463.0887 480.8026 479.8987 464.4626 494.2787 447.9726C 523.6286 414.3126 549.0986 375.3727 556.8386 331.3927C 560.2686 311.8927 560.1086 291.9027 558.1285 272.2128C 556.2485 253.4828 552.5786 234.5228 543.2686 218.1729C 532.3086 198.9229 514.3486 184.6929 495.8087 172.5529C 483.7287 164.6428 470.9787 157.2928 456.9187 154.0029C 451.8587 152.7828 446.6187 152.2129 441.3287 152.2129z" /></clipPath><clipPath id="16"><path id="" clip-rule="evenodd" transform="matrix(1 0 0 1 0 0)" d="M0 -0.249939L595.5 -0.249939L595.5 -0.249939L595.5 842.0001L595.5 842.0001L0 842.0001z" /></clipPath><clipPath id="17"><path id="" clip-rule="evenodd" transform="matrix(1 0 0 1 0 0)" d="M0 -0.249939L595.5 -0.249939L595.5 -0.249939L595.5 842.0001L595.5 842.0001L0 842.0001z" /></clipPath><clipPath id="18"><path id="" clip-rule="evenodd" transform="matrix(1 0 0 1 0 0)" d="M4.716109 466.9743L300.4955 466.9743L300.4955 466.9743L300.4955 772.7463L300.4955 772.7463L4.716109 772.7463z" /></clipPath><clipPath id="19"><path id="" clip-rule="evenodd" transform="matrix(1 0 0 1 0 0)" d="M102.239 467.0926C 83.52902 467.0926 64.56904 473.5926 51.05905 485.6226C 40.26905 495.2226 32.55906 507.7525 25.70907 520.4626C 15.19908 539.9725 6.189085 561.0425 5.729086 583.1925C 5.339086 602.0125 11.14908 620.4224 18.41908 637.7824C 26.05907 656.0425 35.44906 673.6924 47.75905 689.2025C 75.51903 724.1824 116.469 746.2823 158.3089 761.8823C 172.8789 767.3124 188.4889 772.0923 203.8089 772.0923C 210.0489 772.0923 216.2389 771.3024 222.2989 769.4323C 249.0789 761.1824 265.3689 734.6924 278.1288 709.7424C 291.4288 683.7424 303.9188 655.0324 298.9388 626.2524C 292.8889 591.3525 263.1489 566.1325 234.8089 544.8925C 203.6389 521.5325 171.879 496.4026 138.359 476.4926C 127.639 470.1226 114.999 467.1026 102.229 467.1026L102.229 467.1026L102.239 467.0926z" /></clipPath><clipPath id="20"><path id="" clip-rule="evenodd" transform="matrix(1 0 0 1 0 0)" d="M0 -0.249939L595.5 -0.249939L595.5 -0.249939L595.5 842.0001L595.5 842.0001L0 842.0001z" /></clipPath><clipPath id="21"><path id="" clip-rule="evenodd" transform="matrix(1 0 0 1 0 0)" d="M0 -0.249939L595.5 -0.249939L595.5 -0.249939L595.5 842.0001L595.5 842.0001L0 842.0001z" /></clipPath><clipPath id="22"><path id="" clip-rule="evenodd" transform="matrix(1 0 0 1 0 0)" d="M22.70269 160.2032L301.4947 160.2032L301.4947 160.2032L301.4947 485.9602L301.4947 485.9602L22.70269 485.9602z" /></clipPath><clipPath id="23"><path id="" clip-rule="evenodd" transform="matrix(1 0 0 1 0 0)" d="M128.359 160.4028C 116.389 160.4028 104.529 163.0228 94.26901 168.3729C 81.46902 175.0529 70.92903 185.3229 61.19904 195.9828C 46.24905 212.3428 32.37906 230.5728 26.52907 251.9427C 21.55907 270.0928 22.70907 289.3727 25.52907 307.9827C 28.48907 327.5527 33.29906 346.9627 41.44906 365.0027C 59.83904 405.6927 94.17901 437.1026 130.949 462.4326C 148.149 474.2726 167.4489 485.4326 188.1589 485.4326C 189.1589 485.4326 190.1589 485.4026 191.1589 485.3525C 219.1489 483.8825 241.3989 462.1526 259.8589 441.0726C 279.0989 419.0926 298.2088 394.3027 300.3888 365.1727C 303.0288 329.8527 280.3288 298.1427 258.0189 270.6328C 233.4789 240.3728 208.7989 208.2628 181.1489 180.7928C 167.629 167.3629 147.849 160.4028 128.339 160.4028L128.339 160.4028L128.359 160.4028z" /></clipPath><clipPath id="24"><path id="" clip-rule="evenodd" transform="matrix(1 0 0 1 0 0)" d="M451.9701 223.1628L541.97 223.1628L541.97 223.1628L541.97 313.1628L541.97 313.1628L451.9701 313.1628z" /></clipPath><clipPath id="25"><path id="" clip-rule="evenodd" transform="matrix(1 0 0 1 0 0)" d="M58.82084 480.2226L148.8208 480.2226L148.8208 480.2226L148.8208 570.2226L148.8208 570.2226L58.82084 570.2226z" /></clipPath><clipPath id="26"><path id="" clip-rule="evenodd" transform="matrix(1 0 0 1 0 0)" d="M436.4571 484.3469L534.7071 484.3469L534.7071 484.3469L534.7071 582.5969L534.7071 582.5969L436.4571 582.5969z" /></clipPath><clipPath id="27"><path id="" clip-rule="evenodd" transform="matrix(1 0 0 1 0 0)" d="M0 -0.249939L595.5 -0.249939L595.5 -0.249939L595.5 842.0001L595.5 842.0001L0 842.0001z" /></clipPath><clipPath id="28"><path id="" clip-rule="evenodd" transform="matrix(1 0 0 1 0 0)" d="M0 -0.249939L595.5 -0.249939L595.5 -0.249939L595.5 842.0001L595.5 842.0001L0 842.0001z" /></clipPath><clipPath id="29"><path id="" clip-rule="evenodd" transform="matrix(1 0 0 1 0 0)" d="M348.6808 568.246L485.5555 568.246L485.5555 568.246L485.5555 667.5093L485.5555 667.5093L348.6808 667.5093z" /></clipPath><clipPath id="30"><path id="" clip-rule="evenodd" transform="matrix(1 0 0 1 0 0)" d="M418.7908 568.246C 414.3133 568.471 410.1433 569.431 406.2208 570.8185C 396.5983 573.0835 387.2383 576.7135 379.3258 581.1985C 368.9758 587.146 360.4108 594.811 355.2658 603.9835C 352.2358 609.376 350.5183 615.0235 349.5958 620.8735C 348.6133 626.9185 348.0808 633.271 349.7983 639.2185C 352.8283 649.606 364.0333 657.871 376.2283 662.356C 384.0658 665.2285 392.4733 666.976 401.0233 667.5085L401.0233 667.5085L412.0033 667.5085L412.0033 667.5085L417.2983 667.0435C 432.1333 665.5285 446.2333 661.0435 458.8933 654.9985C 470.3008 649.5535 481.3033 642.196 484.4683 631.7635C 487.9633 620.116 481.9633 608.476 475.9633 597.991C 470.2933 588.1585 462.3208 578.281 449.3983 573.1885L449.3983 573.1885L445.7083 571.9285C 439.5808 569.8585 433.1158 568.7485 426.4633 568.546L426.4633 568.546L423.5608 568.2985C 423.2758 568.276 422.9983 568.261 422.7208 568.246L422.7208 568.246L418.7908 568.246z" /></clipPath><clipPath id="31"><path id="" clip-rule="evenodd" transform="matrix(1 0 0 1 0 0)" d="M348.6808 568.246L485.5555 568.246L485.5555 568.246L485.5555 667.5093L485.5555 667.5093L348.6808 667.5093z" /></clipPath><clipPath id="32"><path id="" clip-rule="evenodd" transform="matrix(1 0 0 1 0 0)" d="M0 -0.249939L595.5 -0.249939L595.5 -0.249939L595.5 842.0001L595.5 842.0001L0 842.0001z" /></clipPath><clipPath id="33"><path id="" clip-rule="evenodd" transform="matrix(1 0 0 1 0 0)" d="M0 -0.249939L595.5 -0.249939L595.5 -0.249939L595.5 842.0001L595.5 842.0001L0 842.0001z" /></clipPath><clipPath id="34"><path id="" clip-rule="evenodd" transform="matrix(1 0 0 1 0 0)" d="M58.96146 551.0099L92.21159 551.0099L92.21159 551.0099L92.21159 650.6309L92.21159 650.6309L58.96146 650.6309z" /></clipPath><clipPath id="35"><path id="" clip-rule="evenodd" transform="matrix(1 0 0 1 0 0)" d="M90.6606 626.8056C 89.01061 632.3856 88.23062 638.1655 88.39062 643.9554C 78.84068 635.3455 71.41075 624.4656 66.70078 612.5657C 61.79082 600.1658 59.61084 586.3559 61.32082 573.0859C 62.25082 565.8961 64.5908 558.4261 70.43076 553.6461L70.43076 553.6461L71.15075 551.0861C 64.6408 556.4261 61.77082 562.8861 60.38083 569.476C 58.94084 576.2559 58.82084 583.3859 59.45084 590.2759C 60.72083 604.2458 65.5108 617.8557 73.22073 629.6255C 76.9707 635.3555 81.43067 640.6055 86.47063 645.2554C 78.98069 645.1154 71.50074 646.1754 64.3508 648.4155L64.3508 648.4155L63.43081 649.1254C 63.27081 650.0354 63.4208 650.6454 63.9608 650.4854C 71.95074 647.9754 80.31068 646.9554 88.68061 647.4754L88.68061 647.4754L88.88062 647.4654C 89.58061 647.6154 90.2606 646.2955 90.23061 645.8754C 89.71061 639.5055 90.3306 633.0856 92.14059 626.9456L92.14059 626.9456L91.0106 625.6656L91.0106 625.6656L90.6606 626.8056z" /></clipPath><clipPath id="36"><path id="" clip-rule="evenodd" transform="matrix(1 0 0 1 0 0)" d="M0 -0.249939L595.5 -0.249939L595.5 -0.249939L595.5 842.0001L595.5 842.0001L0 842.0001z" /></clipPath><clipPath id="37"><path id="" clip-rule="evenodd" transform="matrix(1 0 0 1 0 0)" d="M0 -0.249939L595.5 -0.249939L595.5 -0.249939L595.5 842.0001L595.5 842.0001L0 842.0001z" /></clipPath><clipPath id="38"><path id="" clip-rule="evenodd" transform="matrix(1 0 0 1 0 0)" d="M47.34883 266.6884L80.59897 266.6884L80.59897 266.6884L80.59897 366.3094L80.59897 366.3094L47.34883 366.3094z" /></clipPath><clipPath id="39"><path id="" clip-rule="evenodd" transform="matrix(1 0 0 1 0 0)" d="M79.04797 342.4841C 77.39799 348.064 76.61799 353.844 76.778 359.6339C 67.22807 351.024 59.79812 340.1441 55.08816 328.2441C 50.17819 315.8442 47.99821 302.0344 49.7082 288.7645C 50.63819 281.5745 52.97817 274.1046 58.81813 269.3246L58.81813 269.3246L59.53812 266.7646C 53.02818 272.1046 50.15819 278.5646 48.7682 285.1545C 47.32821 291.9344 47.20822 299.0644 47.83821 305.9543C 49.1082 319.9242 53.89817 333.5341 61.6081 345.304C 65.35809 351.034 69.81805 356.284 74.85801 360.9339C 67.36806 360.7939 59.88812 361.8539 52.73817 364.0939L52.73817 364.0939L51.81818 364.8039C 51.65818 365.7139 51.80818 366.3239 52.34818 366.1639C 60.33812 363.6539 68.69805 362.6339 77.06799 363.1539L77.06799 363.1539L77.26799 363.1439C 77.96799 363.2939 78.64798 361.9739 78.61798 361.5539C 78.09798 355.184 78.71798 348.764 80.52797 342.6241L80.52797 342.6241L79.39797 341.3441L79.39797 341.3441L79.04797 342.4841z" /></clipPath><clipPath id="40"><path id="" clip-rule="evenodd" transform="matrix(1 0 0 1 0 0)" d="M0 -0.249939L595.5 -0.249939L595.5 -0.249939L595.5 842.0001L595.5 842.0001L0 842.0001z" /></clipPath><clipPath id="41"><path id="" clip-rule="evenodd" transform="matrix(1 0 0 1 0 0)" d="M0 -0.249939L595.5 -0.249939L595.5 -0.249939L595.5 842.0001L595.5 842.0001L0 842.0001z" /></clipPath><clipPath id="42"><path id="" clip-rule="evenodd" transform="matrix(1 0 0 1 0 0)" d="M496.1588 559.9828L542.1483 559.9828L542.1483 559.9828L542.1483 697.5948L542.1483 697.5948L496.1588 697.5948z" /></clipPath><clipPath id="43"><path id="" clip-rule="evenodd" transform="matrix(1 0 0 1 0 0)" d="M526.2071 559.9828C 525.3771 559.9828 525.4871 561.8628 526.3471 562.5728C 534.3871 569.2228 537.6071 579.6129 538.8971 589.6128C 541.2571 608.0728 538.2471 627.2728 531.4771 644.5328C 524.9871 661.0828 514.7571 676.2128 501.5871 688.1929C 501.8071 680.1328 500.7371 672.1028 498.4671 664.3328C 498.2271 663.5228 497.5671 663.0728 497.0471 663.0728C 496.5271 663.0728 496.1471 663.5228 496.4371 664.5228C 498.9371 673.0629 499.7871 681.9928 499.0771 690.8528C 499.0371 691.4128 499.8771 693.0829 500.7771 693.0829C 500.8271 693.0829 500.8771 693.0728 500.9271 693.0628L500.9271 693.0628L501.1971 693.0829C 503.1271 692.9628 505.0671 692.9028 506.9971 692.9028C 516.5871 692.9028 526.2171 694.4028 535.9871 697.5028L535.9871 697.5028L536.0971 696.1129C 535.9671 695.3828 535.4271 694.6228 534.7071 694.3928C 525.4371 691.4628 515.7671 689.9728 506.0671 689.9728C 505.4571 689.9728 504.8471 689.9828 504.2371 689.9929C 511.1871 683.5228 517.3271 676.2228 522.4971 668.2628C 533.1271 651.8929 539.7271 632.9528 541.4771 613.5228C 542.3371 603.9428 542.1771 594.0328 540.2071 584.5828C 538.2871 575.4228 534.3271 566.4328 526.9771 560.3528C 526.6671 560.0928 526.4071 559.9828 526.2071 559.9828z" /></clipPath><clipPath id="44"><path id="" clip-rule="evenodd" transform="matrix(1 0 0 1 0 0)" d="M0 -0.249939L595.5 -0.249939L595.5 -0.249939L595.5 842.0001L595.5 842.0001L0 842.0001z" /></clipPath><clipPath id="45"><path id="" clip-rule="evenodd" transform="matrix(1 0 0 1 0 0)" d="M0 -0.249939L595.5 -0.249939L595.5 -0.249939L595.5 842.0001L595.5 842.0001L0 842.0001z" /></clipPath><clipPath id="46"><path id="" clip-rule="evenodd" transform="matrix(1 0 0 1 0 0)" d="M482.4117 302.3621L513.9262 312.9641L513.9262 312.9641L482.2025 407.2625L482.2025 407.2625L450.688 396.6605L450.688 396.6605L482.4117 302.3621z" /></clipPath><clipPath id="47"><path id="" clip-rule="evenodd" transform="matrix(1 0 0 1 0 0)" d="M459.7127 374.6956C 459.4973 380.5105 458.3968 386.2279 456.3863 391.6709C 468.1926 386.5587 478.7039 378.6158 486.9529 368.8356C 495.5635 358.6391 502.0394 346.2578 504.6404 333.1321C 506.0516 326.0209 506.2156 318.1948 502.2046 311.8022L502.2046 311.8022L502.3574 309.1526C 506.828 316.2802 507.4852 323.3275 506.7046 330.0072C 505.8949 336.8987 503.7384 343.6853 500.9538 350.0179C 495.2957 362.8536 486.413 374.2353 475.3557 382.923C 469.9745 387.1581 464.0733 390.7119 457.8137 393.5122C 464.9573 395.7677 471.7089 399.1574 477.7714 403.5603L477.7714 403.5603L478.417 404.5266C 478.2784 405.4401 477.9418 405.9704 477.481 405.6466C 470.7084 400.72 463.1101 397.0876 455.0113 394.9116L455.0113 394.9116L454.8249 394.8383C 454.1136 394.7573 453.89 393.2894 454.0523 392.9009C 456.5763 387.0293 458.0357 380.7467 458.278 374.3502L458.278 374.3502L459.7571 373.4973L459.7571 373.4973L459.7127 374.6956z" /></clipPath><clipPath id="48"><path id="" clip-rule="evenodd" transform="matrix(1 0 0 1 0 0)" d="M0 -0.249939L595.5 -0.249939L595.5 -0.249939L595.5 842.0001L595.5 842.0001L0 842.0001z" /></clipPath><clipPath id="49"><path id="" clip-rule="evenodd" transform="matrix(1 0 0 1 0 0)" d="M0 -0.249939L595.5 -0.249939L595.5 -0.249939L595.5 842.0001L595.5 842.0001L0 842.0001z" /></clipPath><clipPath id="50"><path id="" clip-rule="evenodd" transform="matrix(1 0 0 1 0 0)" d="M19.4962 59.27759L95.70724 59.27759L95.70724 59.27759L95.70724 162.6647L95.70724 162.6647L19.4962 162.6647z" /></clipPath><clipPath id="51"><path id="" clip-rule="evenodd" transform="matrix(1 0 0 1 0 0)" d="M46.65133 59.27759C 46.83133 77.70746 47.28132 96.12726 48.12131 114.5471C 48.21131 116.4771 48.13131 118.4171 48.13131 120.517L48.13131 120.517L46.80132 118.667C 42.16137 112.5371 37.07142 106.8472 30.74148 102.3872C 29.4515 101.4772 28.01151 101.0372 26.59152 101.0372C 24.39154 101.0372 22.25157 102.0872 20.85158 104.0771C 19.1816 106.4572 19.49159 109.3771 21.69157 111.2771L21.69157 111.2771L27.47151 116.027C 32.65146 119.887 36.32143 124.9269 39.0214 130.7069C 42.76137 138.7268 44.95134 147.2167 46.11133 155.9767C 46.36133 157.8666 46.88132 159.6466 48.5013 160.8766C 49.94129 161.9866 51.47128 162.5066 52.91127 162.5066C 55.53123 162.5066 57.86121 160.7666 58.8712 157.6266C 59.0612 157.0466 59.4012 156.5067 59.73119 155.9867L59.73119 155.9867L63.20116 150.7467C 70.63109 138.2769 79.25101 126.817 90.95089 117.9771L90.95089 117.9771L93.88086 115.6471C 96.03083 113.7171 95.95084 111.7271 93.44086 110.2871C 92.17088 109.5671 90.58089 109.1571 89.1109 109.0971C 88.9309 109.0872 88.75091 109.0872 88.57091 109.0872C 84.36095 109.0872 80.80099 111.0171 77.78102 113.7971L77.78102 113.7971L63.66116 127.387L63.66116 127.387L62.49117 107.6771C 62.15117 100.7672 61.94117 93.84729 61.68118 86.92737L61.68118 86.92737L60.64119 59.27759L60.64119 59.27759L46.65133 59.27759z" /></clipPath><clipPath id="52"><path id="" clip-rule="evenodd" transform="matrix(1 0 0 1 0 0)" d="M0 -0.249939L595.5 -0.249939L595.5 -0.249939L595.5 842.0001L595.5 842.0001L0 842.0001z" /></clipPath><clipPath id="53"><path id="" clip-rule="evenodd" transform="matrix(1 0 0 1 0 0)" d="M0 -0.249939L595.5 -0.249939L595.5 -0.249939L595.5 842.0001L595.5 842.0001L0 842.0001z" /></clipPath><clipPath id="54"><path id="" clip-rule="evenodd" transform="matrix(1 0 0 1 0 0)" d="M178.9041 187.4212L256.0379 187.4212L256.0379 187.4212L256.0379 344.7019L256.0379 344.7019L178.9041 344.7019z" /></clipPath><clipPath id="55"><path id="" clip-rule="evenodd" transform="matrix(1 0 0 1 0 0)" d="M184.7675 187.4212C 181.5332 187.4212 178.9041 190.9808 178.9041 195.3897L178.9041 195.3897L178.9041 336.6548C 178.9041 341.0546 181.5422 344.6233 184.7675 344.6233L184.7675 344.6233L250.2413 344.6233C 253.1685 344.6233 255.5898 341.7231 256.0325 337.9196L256.0325 337.9196L256.0325 194.1249C 255.5898 190.3394 253.1685 187.4212 250.2413 187.4212L250.2413 187.4212L184.7675 187.4212z" /></clipPath><clipPath id="56"><path id="" clip-rule="evenodd" transform="matrix(1 0 0 1 0 0)" d="M178.9041 187.4212L256.0379 187.4212L256.0379 187.4212L256.0379 344.7019L256.0379 344.7019L178.9041 344.7019z" /></clipPath><clipPath id="57"><path id="" clip-rule="evenodd" transform="matrix(1 0 0 1 0 0)" d="M0 -0.249939L595.5 -0.249939L595.5 -0.249939L595.5 842.0001L595.5 842.0001L0 842.0001z" /></clipPath><clipPath id="58"><path id="" clip-rule="evenodd" transform="matrix(1 0 0 1 0 0)" d="M0 -0.249939L595.5 -0.249939L595.5 -0.249939L595.5 842.0001L595.5 842.0001L0 842.0001z" /></clipPath><clipPath id="59"><path id="" clip-rule="evenodd" transform="matrix(1 0 0 1 0 0)" d="M92.21159 340.1474L184.8775 340.1474L184.8775 340.1474L184.8775 430.6992L184.8775 430.6992L92.21159 430.6992z" /></clipPath><clipPath id="60"><path id="" clip-rule="evenodd" transform="matrix(1 0 0 1 0 0)" d="M153.3594 340.1474L152.1489 340.5382L152.1489 340.5382L151.4816 340.4238L151.4816 340.4238L150.8525 340.3094C 150.7762 340.3094 150.6905 340.3189 150.6237 340.338L150.6237 340.338L147.5258 340.2713L147.5258 340.2713L146.7633 340.2427C 146.525 340.2427 146.2867 340.2522 146.0484 340.2713L146.0484 340.2713L142.207 340.5858C 140.8725 340.6621 139.5571 340.6621 138.2226 340.7097L138.2226 340.7097L137.3457 340.7097C 136.2495 340.6621 135.1628 340.5858 134.0666 340.5858L134.0666 340.5858L130.6828 340.7574C 130.1013 340.786 129.4913 340.786 128.7096 340.786L128.7096 340.786L127.8804 340.786L127.8804 340.786L126.4982 340.643L126.4982 340.643L125.3544 340.6144C 125.097 340.6144 124.8397 340.624 124.5823 340.6335L124.5823 340.6335L114.4974 341.2435C 113.2583 341.3389 112.0382 341.6344 110.8276 341.7297L110.8276 341.7297L107.3484 342.2921C 106.0616 342.4636 104.8224 342.8068 103.5833 343.0928L103.5833 343.0928L100.5426 343.8934C 99.17948 344.0364 98.0833 344.6179 96.84414 345.5711L96.84414 345.5711L96.50099 346.2002L96.50099 346.2002L95.71936 346.6101L95.71936 346.6101L95.09025 347.487C 94.0322 349.6031 93.59372 351.8908 93.08852 354.636L93.08852 354.636L92.69772 355.513C 92.52614 356.8474 92.35457 358.1534 92.35457 359.4973L92.35457 359.4973L92.43082 363.701C 92.40222 364.9115 92.25924 366.1316 92.21159 368.1238L92.21159 368.1238L92.35457 369.6775C 92.40222 371.6983 92.43082 373.7096 92.5452 376.531L92.5452 376.531L92.85976 378.161C 92.95508 379.6194 92.93601 381.1064 93.03134 382.5648L93.03134 382.5648L93.56512 389.18C 93.83202 392.6306 94.07986 396.0621 94.34676 399.5127L94.34676 399.5127L94.34676 411.0179C 94.27049 412.3047 94.17518 413.5915 94.15611 414.9069L94.15611 414.9069L94.2991 417.7284C 94.39441 420.4736 95.41434 422.8089 97.79734 424.2673L97.79734 424.2673L102.3632 426.2881C 102.4108 426.2881 102.4585 426.3167 102.5061 426.3167L102.5061 426.3167L107.9966 427.0412C 110.5035 427.3843 112.9818 427.7465 115.4602 428.0611L115.4602 428.0611L122.0182 428.8427C 125.9072 429.1096 129.8439 428.938 133.7044 429.5671C 135.1914 429.8055 136.7165 429.8055 138.2226 430.0819L138.2226 430.0819L141.3205 430.3583L141.3205 430.3583L144.9427 430.3583C 145.181 430.3488 145.4288 430.3392 145.6671 430.3297L145.6671 430.3297L149.2416 430.1581C 151.5769 429.9865 153.8837 429.7959 156.6289 429.5481L156.6289 429.5481L157.5726 429.2049L157.5726 429.2049L157.6202 429.2049L157.6202 429.2049L158.4018 429.3765L158.4018 429.3765L159.2025 429.2526L159.2025 429.2526L159.5934 429.224C 160.0318 429.1287 160.4703 428.9094 160.9278 428.8808L160.9278 428.8808L163.7207 428.8332C 166.1228 428.7379 168.5344 428.5663 170.7649 427.4987C 171.9754 426.9172 173.2718 426.4502 174.7969 425.7734L174.7969 425.7734L175.3593 425.4779C 176.627 425.4493 177.4277 424.6486 178.1522 423.8479L178.1522 423.8479L180.4113 420.9788C 181.3835 419.8826 182.108 418.5768 182.3081 417.0898C 182.5274 415.4597 182.575 413.8107 182.7657 412.1522L182.7657 412.1522L183.6426 405.0318C 183.8809 402.6488 184.0525 400.2657 184.1764 397.8637L184.1764 397.8637L184.5863 387.4452L184.5863 387.4452L184.5863 381.8976C 184.5577 381.0111 184.51 380.1342 184.4624 379.2477L184.4624 379.2477L183.9286 372.051C 183.8047 370.1065 183.7093 368.1906 183.5187 365.5597L183.5187 365.5597L183.2995 364.1966C 183.004 362.1282 182.8133 360.0407 182.4225 358.0008L182.4225 358.0008L181.2596 353.7209C 180.9927 352.825 180.7258 351.948 180.0681 350.3657L180.0681 350.3657L179.2388 348.9359C 178.6764 347.9636 178.1236 346.9914 177.2657 345.7236L177.2657 345.7236L176.4841 345.2661C 175.6357 344.5416 174.9017 343.6647 173.9581 343.1309L173.9581 343.1309L171.0604 342.1396C 169.3637 341.8441 167.6288 341.8441 165.9607 341.4818L165.9607 341.4818L160.5084 340.9957C 159.5362 340.9957 158.5639 340.8051 157.1817 340.6335L157.1817 340.6335L156.3239 340.4619C 155.7234 340.4429 155.1324 340.4429 154.4079 340.4429L154.4079 340.4429L153.6358 340.1474L153.6358 340.1474L153.3594 340.1474z" /></clipPath><clipPath id="61"><path id="" clip-rule="evenodd" transform="matrix(1 0 0 1 0 0)" d="M92.21159 340.1474L184.5251 340.1474L184.5251 340.1474L184.5251 430.3469L184.5251 430.3469L92.21159 430.3469z" /></clipPath><clipPath id="62"><path id="" clip-rule="evenodd" transform="matrix(1 0 0 1 0 0)" d="M0 -0.249939L595.5 -0.249939L595.5 -0.249939L595.5 842.0001L595.5 842.0001L0 842.0001z" /></clipPath><clipPath id="63"><path id="" clip-rule="evenodd" transform="matrix(1 0 0 1 0 0)" d="M0 -0.249939L595.5 -0.249939L595.5 -0.249939L595.5 842.0001L595.5 842.0001L0 842.0001z" /></clipPath><clipPath id="64"><path id="" clip-rule="evenodd" transform="matrix(1 0 0 1 0 0)" d="M372.4924 216.1942L397.9318 216.1942L397.9318 216.1942L397.9318 275.426L397.9318 275.426L372.4924 275.426z" /></clipPath><clipPath id="65"><path id="" clip-rule="evenodd" transform="matrix(1 0 0 1 0 0)" d="M382.4973 216.3498L382.3484 217.2435L382.3484 217.2435L382.825 217.75C 386.8021 219.7609 391.0919 221.1163 395.5158 221.7717C 392.0899 223.9911 388.9619 226.6276 386.1914 229.6215C 380.5013 235.7584 376.3604 243.2507 374.2453 251.3091C 373.2026 255.2862 372.577 259.4568 372.7558 263.5829C 372.9345 267.5748 373.9772 271.6412 377.2839 275.4097L377.2839 275.4097L377.1201 273.8458C 374.1559 270.4794 373.5154 265.8767 373.6644 261.572C 373.9623 253.6328 376.5988 245.7681 380.695 238.9907C 384.6273 232.4814 390.0641 226.851 396.5138 222.7548C 395.8435 226.136 395.7393 229.5917 396.1712 233.0177L396.1712 233.0177L396.2606 233.7178L396.2606 233.7178L396.8266 233.256L396.8266 233.256L396.9756 232.3623C 396.633 228.8172 396.916 225.2423 397.8395 221.5632L397.8395 221.5632L397.1394 220.7439L397.1394 220.7439L397.0203 220.7141C 392.0601 220.1928 387.234 218.7777 382.4973 216.3796L382.4973 216.3796L382.4973 216.3498z" /></clipPath><clipPath id="66"><path id="" clip-rule="evenodd" transform="matrix(1 0 0 1 0 0)" d="M0 -0.249939L595.5 -0.249939L595.5 -0.249939L595.5 842.0001L595.5 842.0001L0 842.0001z" /></clipPath><clipPath id="67"><path id="" clip-rule="evenodd" transform="matrix(1 0 0 1 0 0)" d="M0 -0.249939L595.5 -0.249939L595.5 -0.249939L595.5 842.0001L595.5 842.0001L0 842.0001z" /></clipPath><clipPath id="68"><path id="" clip-rule="evenodd" transform="matrix(1 0 0 1 0 0)" d="M397.1724 164.9359L455.2651 164.9359L455.2651 164.9359L455.2651 223.0287L455.2651 223.0287L397.1724 223.0287z" /></clipPath><clipPath id="69"><path id="" clip-rule="evenodd" transform="matrix(1 0 0 1 0 0)" d="M426.2151 165.1694C 410.3069 165.1694 397.4075 178.0688 397.4075 193.9771C 397.4075 209.8853 410.3069 222.7846 426.2151 222.7846C 442.1233 222.7846 455.0226 209.8853 455.0226 193.9771C 455.0226 178.0688 442.1382 165.1694 426.2151 165.1694z" /></clipPath><clipPath id="70"><path id="" clip-rule="evenodd" transform="matrix(1 0 0 1 0 0)" d="M0 -0.249939L595.5 -0.249939L595.5 -0.249939L595.5 842.0001L595.5 842.0001L0 842.0001z" /></clipPath><clipPath id="71"><path id="" clip-rule="evenodd" transform="matrix(1 0 0 1 0 0)" d="M0 -0.249939L595.5 -0.249939L595.5 -0.249939L595.5 842.0001L595.5 842.0001L0 842.0001z" /></clipPath><clipPath id="72"><path id="" clip-rule="evenodd" transform="matrix(1 0 0 1 0 0)" d="M103.1488 651.1746L155.3233 651.1746L155.3233 651.1746L155.3233 721.6917L155.3233 721.6917L103.1488 721.6917z" /></clipPath><clipPath id="73"><path id="" clip-rule="evenodd" transform="matrix(1 0 0 1 0 0)" d="M108.3538 651.1746C 105.4888 651.1746 103.1488 653.4921 103.1488 656.3796L103.1488 656.3796L103.1488 716.3796C 103.1488 719.0121 105.0913 721.1946 107.6413 721.5396L107.6413 721.5396L150.8263 721.5396C 153.3613 721.1946 155.3188 719.0271 155.3188 716.3796L155.3188 716.3796L155.3038 656.3796C 155.3038 653.5146 152.9863 651.1746 150.0988 651.1746L150.0988 651.1746L108.3538 651.1746z" /></clipPath><clipPath id="74"><path id="" clip-rule="evenodd" transform="matrix(1 0 0 1 0 0)" d="M103.1488 651.1746L155.3233 651.1746L155.3233 651.1746L155.3233 721.4879L155.3233 721.4879L103.1488 721.4879z" /></clipPath><clipPath id="75"><path id="" clip-rule="evenodd" transform="matrix(1 0 0 1 0 0)" d="M102.6883 650.7148L155.9383 650.7148L155.9383 650.7148L155.9383 721.9648L155.9383 721.9648L102.6883 721.9648z" /></clipPath><clipPath id="76"><path id="" clip-rule="evenodd" transform="matrix(1 0 0 1 0 0)" d="M0 -0.249939L595.5 -0.249939L595.5 -0.249939L595.5 842.0001L595.5 842.0001L0 842.0001z" /></clipPath><clipPath id="77"><path id="" clip-rule="evenodd" transform="matrix(1 0 0 1 0 0)" d="M0 -0.249939L595.5 -0.249939L595.5 -0.249939L595.5 842.0001L595.5 842.0001L0 842.0001z" /></clipPath><clipPath id="78"><path id="" clip-rule="evenodd" transform="matrix(1 0 0 1 0 0)" d="M175.0146 667.5093L265.8773 667.5093L265.8773 667.5093L265.8773 720.9457L265.8773 720.9457L175.0146 720.9457z" /></clipPath><clipPath id="79"><path id="" clip-rule="evenodd" transform="matrix(1 0 0 1 0 0)" d="M188.6084 667.5093C 185.002 667.5093 181.5476 668.9406 178.9967 671.4915C 176.4459 674.0423 175.0146 677.4967 175.0146 681.1031L175.0146 681.1031L175.0146 707.1472C 175.0146 710.7535 176.4459 714.2079 178.9967 716.7588C 181.5476 719.3096 185.002 720.7409 188.6084 720.7409L188.6084 720.7409L252.3872 720.7409C 255.9936 720.7409 259.448 719.3096 261.9988 716.7588C 264.1498 714.6077 265.5092 711.801 265.877 708.8104L265.877 708.8104L265.877 679.4398C 265.5092 676.4492 264.1498 673.6505 261.9988 671.4915C 259.448 668.9406 255.9936 667.5093 252.3872 667.5093L252.3872 667.5093L188.6084 667.5093z" /></clipPath><clipPath id="80"><path id="" clip-rule="evenodd" transform="matrix(1 0 0 1 0 0)" d="M175.0146 667.5093L265.8773 667.5093L265.8773 667.5093L265.8773 720.7377L265.8773 720.7377L175.0146 720.7377z" /></clipPath><clipPath id="81"><path id="" clip-rule="evenodd" transform="matrix(1 0 0 1 0 0)" d="M0 -0.249939L595.5 -0.249939L595.5 -0.249939L595.5 842.0001L595.5 842.0001L0 842.0001z" /></clipPath><clipPath id="82"><path id="" clip-rule="evenodd" transform="matrix(1 0 0 1 0 0)" d="M0 -0.249939L595.5 -0.249939L595.5 -0.249939L595.5 842.0001L595.5 842.0001L0 842.0001z" /></clipPath><clipPath id="83"><path id="" clip-rule="evenodd" transform="matrix(1 0 0 1 0 0)" d="M330.6991 648.5793L360.5212 648.5793L360.5212 648.5793L360.5212 732.7895L360.5212 732.7895L330.6991 732.7895z" /></clipPath><clipPath id="84"><path id="" clip-rule="evenodd" transform="matrix(1 0 0 1 0 0)" d="M360.4131 648.6163C 353.8132 651.5363 349.9432 656.2363 347.2632 661.3863C 344.4933 666.6862 342.7333 672.5762 341.6233 678.4461C 339.3933 690.336 340.1333 702.7559 343.7033 714.3158C 345.4433 719.9457 347.8733 725.3357 350.9232 730.3657C 345.4033 728.6957 339.6533 727.8357 333.8834 727.8357C 333.2634 727.8357 332.6434 727.8456 332.0234 727.8657L332.0234 727.8657L331.1034 728.2457L331.1034 728.2457L330.7434 729.5057C 331.4434 729.4857 332.1434 729.4756 332.8334 729.4756C 339.6733 729.4756 346.0933 730.5756 352.2232 732.7256L352.2232 732.7256L352.3932 732.7556L352.3932 732.7556L353.8032 732.1057C 354.9432 726.3357 356.9532 721.1458 359.8831 716.4658L359.8831 716.4658L359.2531 715.1358L359.2531 715.1358L358.7031 716.0157C 356.0432 720.2657 354.0432 724.8857 352.8232 729.7357C 346.9933 720.3657 343.4433 709.6158 342.3733 698.6459C 341.2533 687.206 342.6933 675.2361 347.2032 664.6162C 349.6432 658.8463 353.3132 653.1964 359.2231 650.5763L359.2231 650.5763L360.4131 648.6163z" /></clipPath><clipPath id="85"><path id="" clip-rule="evenodd" transform="matrix(1 0 0 1 0 0)" d="M363.5136 628.8914L398.0136 628.8914L398.0136 628.8914L398.0136 663.3914L398.0136 663.3914L363.5136 663.3914z" /></clipPath><clipPath id="86"><path id="" clip-rule="evenodd" transform="matrix(1 0 0 1 0 0)" d="M429.5609 760.7189L464.6989 760.7189L464.6989 760.7189L464.6989 761.1186L464.6989 761.1186L429.5609 761.1186z" /></clipPath><clipPath id="87"><path id="" clip-rule="evenodd" transform="matrix(1 0 0 1 0 0)" d="M0 -0.249939L595.5 -0.249939L595.5 -0.249939L595.5 842.0001L595.5 842.0001L0 842.0001z" /></clipPath><clipPath id="88"><path id="" clip-rule="evenodd" transform="matrix(1 0 0 1 0 0)" d="M364.1569 355.1628L454.1569 355.1628L454.1569 355.1628L454.1569 445.1628L454.1569 445.1628L364.1569 445.1628z" /></clipPath><clipPath id="89"><path id="" clip-rule="evenodd" transform="matrix(1 0 0 1 0 0)" d="M475.9692 14.82153L571.9692 14.82153L571.9692 14.82153L571.9692 69.57153L571.9692 69.57153L475.9692 69.57153z" /></clipPath><clipPath id="90"><path id="" clip-rule="evenodd" transform="matrix(1 0 0 1 0 0)" d="M0 -0.249939L595.5 -0.249939L595.5 -0.249939L595.5 842.0001L595.5 842.0001L0 842.0001z" /></clipPath><clipPath id="91"><path id="" clip-rule="evenodd" transform="matrix(1 0 0 1 0 0)" d="M0 -0.249939L595.5 -0.249939L595.5 -0.249939L595.5 842.0001L595.5 842.0001L0 842.0001z" /></clipPath><clipPath id="92"><path id="" clip-rule="evenodd" transform="matrix(1 0 0 1 0 0)" d="M67.79779 9.486511L100.0478 9.486511L100.0478 9.486511L100.0478 41.73651L100.0478 41.73651L67.79779 41.73651z" /></clipPath><clipPath id="93"><path id="" clip-rule="evenodd" transform="matrix(1 0 0 1 0 0)" d="M67.79779 25.38074C 67.79779 29.59619 69.47237 33.63892 72.45312 36.61969C 75.43387 39.60046 79.47663 41.27502 83.69206 41.27502C 87.90748 41.27502 91.95025 39.60046 94.931 36.61969C 97.91175 33.63892 99.58633 29.59619 99.58633 25.38074C 99.58633 21.16534 97.91175 17.12256 94.931 14.14178C 91.95025 11.16107 87.90748 9.486511 83.69206 9.486511C 79.47663 9.486511 75.43387 11.16107 72.45312 14.14178C 69.47237 17.12256 67.79779 21.16534 67.79779 25.38074z" /></clipPath><clipPath id="94"><path id="" clip-rule="evenodd" transform="matrix(1 0 0 1 0 0)" d="M68.54779 10.23651L99.29779 10.23651L99.29779 10.23651L99.29779 40.98651L99.29779 40.98651L68.54779 40.98651z" /></clipPath><clipPath id="95"><path id="" clip-rule="evenodd" transform="matrix(1 0 0 1 0 0)" d="M83.69206 10.38647C 87.66879 10.38647 91.48264 11.96625 94.2946 14.7782C 97.10657 17.59015 98.68632 21.40405 98.68632 25.38074C 98.68632 29.35748 97.10657 33.17133 94.2946 35.98328C 91.48264 38.79529 87.66879 40.375 83.69206 40.375C 79.71533 40.375 75.90147 38.79529 73.08952 35.98328C 70.27754 33.17133 68.69779 29.35748 68.69779 25.38074C 68.69779 21.40405 70.27754 17.59015 73.08952 14.7782C 75.90147 11.96625 79.71533 10.38647 83.69206 10.38647z" /></clipPath><clipPath id="96"><path id="" clip-rule="evenodd" transform="matrix(1 0 0 1 0 0)" d="M68.54779 10.23651L99.29779 10.23651L99.29779 10.23651L99.29779 40.98651L99.29779 40.98651L68.54779 40.98651z" /></clipPath><clipPath id="97"><path id="" clip-rule="evenodd" transform="matrix(1 0 0 1 0 0)" d="M67.7911 9.479797L99.2911 9.479797L99.2911 9.479797L99.2911 40.9798L99.2911 40.9798L67.7911 40.9798z" /></clipPath><clipPath id="98"><path id="" clip-rule="evenodd" transform="matrix(1 0 0 1 0 0)" d="M0 -0.249939L595.5 -0.249939L595.5 -0.249939L595.5 842.0001L595.5 842.0001L0 842.0001z" /></clipPath><clipPath id="99"><path id="" clip-rule="evenodd" transform="matrix(1 0 0 1 0 0)" d="M0 -0.249939L595.5 -0.249939L595.5 -0.249939L595.5 842.0001L595.5 842.0001L0 842.0001z" /></clipPath><clipPath id="100"><path id="" clip-rule="evenodd" transform="matrix(1 0 0 1 0 0)" d="M67.79779 9.486511L100.0478 9.486511L100.0478 9.486511L100.0478 41.73651L100.0478 41.73651L67.79779 41.73651z" /></clipPath><clipPath id="101"><path id="" clip-rule="evenodd" transform="matrix(1 0 0 1 0 0)" d="M67.79779 25.38074C 67.79779 29.59619 69.47237 33.63892 72.45312 36.61969C 75.43387 39.60046 79.47663 41.27502 83.69206 41.27502C 87.90748 41.27502 91.95025 39.60046 94.931 36.61969C 97.91175 33.63892 99.58633 29.59619 99.58633 25.38074C 99.58633 21.16534 97.91175 17.12256 94.931 14.14178C 91.95025 11.16107 87.90748 9.486511 83.69206 9.486511C 79.47663 9.486511 75.43387 11.16107 72.45312 14.14178C 69.47237 17.12256 67.79779 21.16534 67.79779 25.38074z" /></clipPath><clipPath id="102"><path id="" clip-rule="evenodd" transform="matrix(1 0 0 1 0 0)" d="M67.79779 9.486511L99.29779 9.486511L99.29779 9.486511L99.29779 40.98651L99.29779 40.98651L67.79779 40.98651z" /></clipPath><clipPath id="103"><path id="" clip-rule="evenodd" transform="matrix(1 0 0 1 0 0)" d="M67.79779 9.486511L100.0404 9.486511L100.0404 9.486511L100.0404 41.72913L100.0404 41.72913L67.79779 41.72913z" /></clipPath><clipPath id="104"><path id="" clip-rule="evenodd" transform="matrix(1 0 0 1 0 0)" d="M67.79779 25.37714C 67.79779 29.59155 69.47198 33.63342 72.45205 36.61346C 75.43212 39.59357 79.47396 41.26776 83.68842 41.26776C 87.90287 41.26776 91.94472 39.59357 94.92479 36.61346C 97.90485 33.63342 99.57904 29.59155 99.57904 25.37714C 99.57904 21.16266 97.90485 17.12079 94.92479 14.14075C 91.94472 11.16064 87.90287 9.486511 83.68842 9.486511C 79.47396 9.486511 75.43212 11.16064 72.45205 14.14075C 69.47198 17.12079 67.79779 21.16266 67.79779 25.37714z" /></clipPath><clipPath id="105"><path id="" clip-rule="evenodd" transform="matrix(1 0 0 1 0 0)" d="M0 -0.249939L595.5 -0.249939L595.5 -0.249939L595.5 842.0001L595.5 842.0001L0 842.0001z" /></clipPath></defs><g transform="matrix(1.333333 0 0 1.333333 0 0)"><g clip-path="url(#1)"><g clip-path="url(#2)"><path id="1" transform="matrix(1 0 0 -1 0 842)" d="M0 842.2499L595.4999 842.2499L595.4999 -6.103516E-05L0 -6.103516E-05z" stroke="none" fill="#FFFFFF" fill-rule="nonzero" /></g><g clip-path="url(#3)"><path id="2" transform="matrix(1 0 0 -1 0 842)" d="M0 842.2499L595.4999 842.2499L595.4999 -6.103516E-05L0 -6.103516E-05z" stroke="none" fill="#FFFFFF" fill-rule="nonzero" /></g><g clip-path="url(#4)"><g><g clip-path="url(#5)"><g clip-path="url(#6)"><g transform="matrix(0 0.5128205 -0.5127462 0 522.0178 30.75189)"><g transform="matrix(1 0 0 1 0 0)"><image x="0" y="0" xlink:href="img_01.png" width="1521" height="863" /></g></g></g></g></g></g><g clip-path="url(#7)"><g transform="matrix(0.375 0 0 0.375 47.21159 192.3674)"><g transform="matrix(1 0 0 1 0 0)"><image x="0" y="0" xlink:href="img_02.png" width="240" height="240" /></g></g></g><g clip-path="url(#8)"><g clip-path="url(#9)"><g clip-path="url(#10)"><g clip-path="url(#11)"><path id="5" transform="matrix(1 0 0 -1 0 842)" d="M0.7190905 694.7871L595.2756 694.7871L595.2756 33.28052L0.7190905 33.28052z" stroke="none" fill="#F2C70F" fill-rule="nonzero" /></g></g></g></g><g clip-path="url(#12)"><g clip-path="url(#13)"><g clip-path="url(#14)"><g clip-path="url(#15)"><path id="6" transform="matrix(1 0 0 -1 0 842)" d="M0.7190905 694.7871L595.2756 694.7871L595.2756 33.28052L0.7190905 33.28052z" stroke="none" fill="#6CE5E8" fill-rule="nonzero" /></g></g></g></g><g clip-path="url(#16)"><g clip-path="url(#17)"><g clip-path="url(#18)"><g clip-path="url(#19)"><path id="7" transform="matrix(1 0 0 -1 0 842)" d="M0.7190905 694.7871L595.2756 694.7871L595.2756 33.28052L0.7190905 33.28052z" stroke="none" fill="#ABD625" fill-rule="nonzero" /></g></g></g></g><g clip-path="url(#20)"><g clip-path="url(#21)"><g clip-path="url(#22)"><g clip-path="url(#23)"><path id="8" transform="matrix(1 0 0 -1 0 842)" d="M0.7190905 694.7871L595.2756 694.7871L595.2756 33.28052L0.7190905 33.28052z" stroke="none" fill="#E2C8B1" fill-rule="nonzero" /></g></g></g></g><g clip-path="url(#24)"><g transform="matrix(0.375 0 0 0.375 451.97 223.1629)"><g transform="matrix(1 0 0 1 0 0)"><image x="0" y="0" xlink:href="img_02.png" width="240" height="240" /></g></g></g><g clip-path="url(#25)"><g transform="matrix(0.375 0 0 0.375 58.82084 480.2226)"><g transform="matrix(1 0 0 1 0 0)"><image x="0" y="0" xlink:href="img_02.png" width="240" height="240" /></g></g></g><g clip-path="url(#26)"><g transform="matrix(0.409375 0 0 0.409375 436.4571 484.3469)"><g transform="matrix(1 0 0 1 0 0)"><image x="0" y="0" xlink:href="img_02.png" width="240" height="240" /></g></g></g><g clip-path="url(#27)"><g clip-path="url(#28)"><g clip-path="url(#29)"><g clip-path="url(#30)"><g clip-path="url(#31)"><g transform="matrix(0.6145098 0 0 0.6127361 348.3275 568.207)"><g transform="matrix(1 0 0 1 0 0)"><image x="0" y="0" xlink:href="img_03.png" width="224" height="162" /></g></g></g></g></g></g></g><g clip-path="url(#32)"><g clip-path="url(#33)"><g clip-path="url(#34)"><g clip-path="url(#35)"><path id="13" transform="matrix(1 0 0 -1 0 842)" d="M59.09084 290.2138L92.21159 290.2138L92.21159 191.4985L59.09084 191.4985z" stroke="none" fill="#000000" fill-rule="nonzero" /></g></g></g></g><g clip-path="url(#36)"><g clip-path="url(#37)"><g clip-path="url(#38)"><g clip-path="url(#39)"><path id="14" transform="matrix(1 0 0 -1 0 842)" d="M47.47821 574.5353L80.59896 574.5353L80.59896 475.82L47.47821 475.82z" stroke="none" fill="#000000" fill-rule="nonzero" /></g></g></g></g><g clip-path="url(#40)"><g clip-path="url(#41)"><g clip-path="url(#42)"><g clip-path="url(#43)"><path id="15" transform="matrix(1 0 0 -1 0 842)" d="M496.3371 282.0172L541.9701 282.0172L541.9701 144.7616L496.3371 144.7616z" stroke="none" fill="#000000" fill-rule="nonzero" /></g></g></g></g><g clip-path="url(#44)"><g clip-path="url(#45)"><g clip-path="url(#46)"><g clip-path="url(#47)"><path id="16" transform="matrix(1 0 0 -1 0 842)" d="M482.1641 538.9022L513.556 528.3414L482.0799 434.7787L450.6879 445.3395z" stroke="none" fill="#000000" fill-rule="nonzero" /></g></g></g></g><g clip-path="url(#48)"><g clip-path="url(#49)"><g clip-path="url(#50)"><g clip-path="url(#51)"><path id="17" transform="matrix(1 0 0 -1 0 842)" d="M19.79159 782.7224L95.41183 782.7224L95.41183 679.6307L19.79159 679.6307z" stroke="none" fill="#004AAD" fill-rule="nonzero" /></g></g></g></g><g clip-path="url(#52)"><g clip-path="url(#53)"><g clip-path="url(#54)"><g clip-path="url(#55)"><g clip-path="url(#56)"><g transform="matrix(0.6271042 0 0 0.6316622 178.9041 177.5311)"><g transform="matrix(1 0 0 1 0 0)"><image x="0" y="0" xlink:href="img_04.png" width="123" height="280" /></g></g></g></g></g></g></g><g clip-path="url(#57)"><g clip-path="url(#58)"><g clip-path="url(#59)"><g clip-path="url(#60)"><g clip-path="url(#61)"><g transform="matrix(0.7144167 0 0 0.7158691 -62.44337 340.1474)"><g transform="matrix(1 0 0 1 0 0)"><image x="0" y="0" xlink:href="img_05.png" width="362" height="126" /></g></g></g></g></g></g></g><g clip-path="url(#62)"><g clip-path="url(#63)"><g clip-path="url(#64)"><g clip-path="url(#65)"><path id="20" transform="matrix(1 0 0 -1 0 842)" d="M365.2783 684.2781L462.4792 684.2781L462.4792 559.7394L365.2783 559.7394z" stroke="none" fill="#8E1419" fill-rule="nonzero" /></g></g></g></g><g clip-path="url(#66)"><g clip-path="url(#67)"><g clip-path="url(#68)"><g clip-path="url(#69)"><path id="21" transform="matrix(1 0 0 -1 0 842)" d="M365.2783 684.2781L462.4792 684.2781L462.4792 559.7394L365.2783 559.7394z" stroke="none" fill="#FEC107" fill-rule="nonzero" /></g></g></g></g><g clip-path="url(#70)"><g clip-path="url(#71)"><g clip-path="url(#72)"><g clip-path="url(#73)"><g clip-path="url(#74)"><g transform="matrix(0.5767294 0 0 0.5763384 102.1633 651.1747)"><g transform="matrix(1 0 0 1 0 0)"><image x="0" y="0" xlink:href="img_06.png" width="94" height="122" /></g></g></g></g></g></g></g><g clip-path="url(#75)"><g transform="matrix(0.2431506 0 0 0.239899 102.6883 650.7148)"><g transform="matrix(1 0 0 1 0 0)"><image x="0" y="0" xlink:href="img_07.png" width="219" height="297" /></g></g></g><g clip-path="url(#76)"><g clip-path="url(#77)"><g clip-path="url(#78)"><g clip-path="url(#79)"><g clip-path="url(#80)"><g transform="matrix(0.5871556 0 0 0.5869704 172.5877 660.6228)"><g transform="matrix(1 0 0 1 0 0)"><image x="0" y="0" xlink:href="img_08.png" width="159" height="113" /></g></g></g></g></g></g></g><g clip-path="url(#81)"><g clip-path="url(#82)"><g clip-path="url(#83)"><g clip-path="url(#84)"><path id="25" transform="matrix(1 0 0 -1 0 842)" d="M330.8134 192.9636L360.0641 192.9636L360.0641 109.2105L330.8134 109.2105z" stroke="none" fill="#9F171C" fill-rule="nonzero" /></g></g></g></g><g clip-path="url(#85)"><g transform="matrix(0.215625 0 0 0.215625 363.5135 628.8914)"><g transform="matrix(1 0 0 1 0 0)"><image x="0" y="0" xlink:href="img_09.png" width="160" height="160" /></g></g></g><g clip-path="url(#86)"><path id="27" transform="matrix(1 0 0 -1 0 842)" d="M429.5608 81.28114L464.6982 81.28114L464.6982 80.88139L429.5608 80.88139z" stroke="none" fill="#8E1419" fill-rule="nonzero" /></g><g clip-path="url(#87)"></g><g clip-path="url(#88)"><g transform="matrix(0.4390243 0 0 0.4390243 364.1569 355.1628)"><g transform="matrix(1 0 0 1 0 0)"><image x="0" y="0" xlink:href="img_10.png" width="205" height="205" /></g></g></g><g clip-path="url(#89)"><g transform="matrix(0.06311637 0 0 0.06344148 475.9692 14.82153)"><g transform="matrix(1 0 0 1 0 0)"><image x="0" y="0" xlink:href="img_11.png" width="1521" height="863" /></g></g></g><g clip-path="url(#90)"><g clip-path="url(#91)"><g clip-path="url(#92)"><g clip-path="url(#93)"><g clip-path="url(#94)"><g clip-path="url(#95)"><g clip-path="url(#96)"><g clip-path="url(#97)"><path id="699" transform="matrix(1 0 0 -1 0 842)" d="M83.5411 832.2874C 74.98334 832.2874 68.02386 825.3279 68.02386 816.7702C 68.02386 808.2125 74.98334 801.2529 83.5411 801.2529C 92.09885 801.2529 99.05834 808.2125 99.05834 816.7702C 99.05834 825.3279 92.09885 832.2874 83.5411 832.2874zM83.5411 801.0202C 74.8592 801.0202 67.7911 808.0883 67.7911 816.7702C 67.7911 825.4521 74.8592 832.5202 83.5411 832.5202C 92.22299 832.5202 99.2911 825.4521 99.2911 816.7702C 99.2911 808.0883 92.22299 801.0202 83.5411 801.0202z" stroke="none" fill="#000000" fill-rule="nonzero" /></g></g></g></g></g></g></g></g><g clip-path="url(#98)"><g clip-path="url(#99)"><g clip-path="url(#100)"><g clip-path="url(#101)"><g clip-path="url(#102)"><g clip-path="url(#103)"><g clip-path="url(#104)"><path id="700" transform="matrix(1 0 0 -1 0 842)" d="M67.79779 816.6229C 67.79779 812.4084 69.47198 808.3666 72.45205 805.3865C 75.43211 802.4064 79.47396 800.7322 83.68842 800.7322C 87.90287 800.7322 91.94471 802.4064 94.92478 805.3865C 97.90485 808.3666 99.57904 812.4084 99.57904 816.6229C 99.57904 820.8373 97.90485 824.8792 94.92478 827.8593C 91.94471 830.8393 87.90287 832.5135 83.68842 832.5135C 79.47396 832.5135 75.43211 830.8393 72.45205 827.8593C 69.47198 824.8792 67.79779 820.8373 67.79779 816.6229z" stroke="#000000" stroke-width="1.5" fill="none" /></g></g></g></g></g></g></g><g clip-path="url(#105)"></g></g></g></svg>