<svg xmlns="http://www.w3.org/2000/svg" xmlns:xlink="http://www.w3.org/1999/xlink" id="body_1" preserveAspectRatio="xMinYMin meet" viewBox="0 0 793 1123"><defs><clipPath id="1"><path id="" clip-rule="evenodd" transform="matrix(1 0 0 1 0 0)" d="M0 842L0 -0.250061L0 -0.250061L595.5 -0.250061L595.5 -0.250061L595.5 842L595.5 842L0 842z" /></clipPath><clipPath id="2"><path id="" clip-rule="evenodd" transform="matrix(1 0 0 1 0 0)" d="M0 -0.25L595.5 -0.25L595.5 -0.25L595.5 842.0012L595.5 842.0012L0 842.0012z" /></clipPath><clipPath id="3"><path id="" clip-rule="evenodd" transform="matrix(1 0 0 1 0 0)" d="M0 -0.25L595.5 -0.25L595.5 -0.25L595.5 842.0012L595.5 842.0012L0 842.0012z" /></clipPath><clipPath id="4"><path id="" clip-rule="evenodd" transform="matrix(1 0 0 1 0 0)" d="M0 -0.25L595.5 -0.25L595.5 -0.25L595.5 842.0012L595.5 842.0012L0 842.0012z" /></clipPath><clipPath id="5"><path id="" clip-rule="evenodd" transform="matrix(1 0 0 1 0 0)" d="M78.71999 30.71002L522.24 30.71002L522.24 30.71002L522.24 810.95L522.24 810.95L78.71999 810.95z" /></clipPath><clipPath id="6"><path id="" clip-rule="evenodd" transform="matrix(1 0 0 1 0 0)" d="M79.51786 30.75177L522.0178 30.75177L522.0178 30.75177L522.0178 810.7518L522.0178 810.7518L79.51786 810.7518z" /></clipPath><clipPath id="7"><path id="" clip-rule="evenodd" transform="matrix(1 0 0 1 0 0)" d="M0 -0.25L595.5 -0.25L595.5 -0.25L595.5 842.0012L595.5 842.0012L0 842.0012z" /></clipPath><clipPath id="8"><path id="" clip-rule="evenodd" transform="matrix(1 0 0 1 0 0)" d="M0 -0.25L595.5 -0.25L595.5 -0.25L595.5 842.0012L595.5 842.0012L0 842.0012z" /></clipPath><clipPath id="9"><path id="" clip-rule="evenodd" transform="matrix(1 0 0 1 0 0)" d="M639.3648 638.774L963.1608 920.0228L963.1608 920.0228L682.4736 1243.171L682.4736 1243.171L358.6776 961.922L358.6776 961.922L639.3648 638.774z" /></clipPath><clipPath id="10"><path id="" clip-rule="evenodd" transform="matrix(1 0 0 1 0 0)" d="M822.1703 1081.039C 744.6624 1170.271 609.4872 1179.777 520.2528 1102.267C 431.016 1024.756 421.512 889.5812 499.02 800.3492C 576.5304 711.1148 711.7056 701.6083 800.94 779.1188C 890.1744 856.6268 899.6808 991.8019 822.1703 1081.039z" /></clipPath><clipPath id="11"><path id="" clip-rule="evenodd" transform="matrix(1 0 0 1 0 0)" d="M639.3648 638.774L962.5128 919.4612L962.5128 919.4612L681.8256 1242.612L681.8256 1242.612L358.6776 961.922L358.6776 961.922L639.3648 638.774z" /></clipPath><clipPath id="12"><path id="" clip-rule="evenodd" transform="matrix(1 0 0 1 0 0)" d="M0 -0.25L595.5 -0.25L595.5 -0.25L595.5 842.0012L595.5 842.0012L0 842.0012z" /></clipPath><clipPath id="13"><path id="" clip-rule="evenodd" transform="matrix(1 0 0 1 0 0)" d="M0 -0.25L595.5 -0.25L595.5 -0.25L595.5 842.0012L595.5 842.0012L0 842.0012z" /></clipPath><clipPath id="14"><path id="" clip-rule="evenodd" transform="matrix(1 0 0 1 0 0)" d="M19.872 741.602L71.99736 741.602L71.99736 741.602L71.99736 793.7271L71.99736 793.7271L19.872 793.7271z" /></clipPath><clipPath id="15"><path id="" clip-rule="evenodd" transform="matrix(1 0 0 1 0 0)" d="M45.93456 741.602C 31.54056 741.602 19.872 753.2708 19.872 767.6636C 19.872 782.0588 31.54056 793.7276 45.93456 793.7276C 60.32856 793.7276 71.99736 782.0588 71.99736 767.6636C 71.99736 753.2708 60.32856 741.602 45.93456 741.602z" /></clipPath><clipPath id="16"><path id="" clip-rule="evenodd" transform="matrix(1 0 0 1 0 0)" d="M0 -0.25L595.5 -0.25L595.5 -0.25L595.5 842.0012L595.5 842.0012L0 842.0012z" /></clipPath><clipPath id="17"><path id="" clip-rule="evenodd" transform="matrix(1 0 0 1 0 0)" d="M0 -0.25L595.5 -0.25L595.5 -0.25L595.5 842.0012L595.5 842.0012L0 842.0012z" /></clipPath><clipPath id="18"><path id="" clip-rule="evenodd" transform="matrix(1 0 0 1 0 0)" d="M19.872 741.602L72.37199 741.602L72.37199 741.602L72.37199 794.102L72.37199 794.102L19.872 794.102z" /></clipPath><clipPath id="19"><path id="" clip-rule="evenodd" transform="matrix(1 0 0 1 0 0)" d="M19.872 741.602L71.99712 741.602L71.99712 741.602L71.99712 793.7269L71.99712 793.7269L19.872 793.7269z" /></clipPath><clipPath id="20"><path id="" clip-rule="evenodd" transform="matrix(1 0 0 1 0 0)" d="M45.93456 741.602C 31.54056 741.602 19.872 753.2708 19.872 767.6636C 19.872 782.0588 31.54056 793.7276 45.93456 793.7276C 60.32832 793.7276 71.99712 782.0588 71.99712 767.6636C 71.99712 753.2708 60.32832 741.602 45.93456 741.602z" /></clipPath><clipPath id="21"><path id="" clip-rule="evenodd" transform="matrix(1 0 0 1 0 0)" d="M0 -0.25L595.5 -0.25L595.5 -0.25L595.5 842.0012L595.5 842.0012L0 842.0012z" /></clipPath><clipPath id="22"><path id="" clip-rule="evenodd" transform="matrix(1 0 0 1 0 0)" d="M334.32 178.31L549.6 178.31L549.6 178.31L549.6 293.75L549.6 293.75L334.32 293.75z" /></clipPath><clipPath id="23"><path id="" clip-rule="evenodd" transform="matrix(1 0 0 1 0 0)" d="M334.5398 178.3458L549.4907 178.3458L549.4907 178.3458L549.4907 293.7073L549.4907 293.7073L334.5398 293.7073z" /></clipPath><clipPath id="24"><path id="" clip-rule="evenodd" transform="matrix(1 0 0 1 0 0)" d="M441.9984 178.3458C 382.6507 178.3458 334.5398 204.1702 334.5398 236.0264C 334.5398 267.8826 382.6507 293.7073 441.9984 293.7073C 501.3461 293.7073 549.4567 267.8826 549.4567 236.0264C 549.4567 204.1702 501.3461 178.3458 441.9984 178.3458z" /></clipPath><clipPath id="25"><path id="" clip-rule="evenodd" transform="matrix(1 0 0 1 0 0)" d="M0 376.4372L48.37392 376.4372L48.37392 376.4372L48.37392 557.5856L48.37392 557.5856L0 557.5856z" /></clipPath><clipPath id="26"><path id="" clip-rule="evenodd" transform="matrix(1 0 0 1 0 0)" d="M0 -0.25L595.5 -0.25L595.5 -0.25L595.5 842.0012L595.5 842.0012L0 842.0012z" /></clipPath><clipPath id="27"><path id="" clip-rule="evenodd" transform="matrix(1 0 0 1 0 0)" d="M0 -0.25L595.5 -0.25L595.5 -0.25L595.5 842.0012L595.5 842.0012L0 842.0012z" /></clipPath><clipPath id="28"><path id="" clip-rule="evenodd" transform="matrix(1 0 0 1 0 0)" d="M-53.06088 -61.30121L116.7257 -61.30121L116.7257 -61.30121L116.7257 108.4854L116.7257 108.4854L-53.06088 108.4854z" /></clipPath><clipPath id="29"><path id="" clip-rule="evenodd" transform="matrix(1 0 0 1 0 0)" d="M31.83264 -61.30121C -15.05275 -61.30121 -53.06088 -23.29309 -53.06088 23.59222C -53.06088 70.47754 -15.05275 108.4856 31.83264 108.4856C 78.71783 108.4856 116.7259 70.47754 116.7259 23.59222C 116.7259 -23.29309 78.71783 -61.30121 31.83264 -61.30121z" /></clipPath><clipPath id="30"><path id="" clip-rule="evenodd" transform="matrix(1 0 0 1 0 0)" d="M0 -0.25L595.5 -0.25L595.5 -0.25L595.5 842.0012L595.5 842.0012L0 842.0012z" /></clipPath><clipPath id="31"><path id="" clip-rule="evenodd" transform="matrix(1 0 0 1 0 0)" d="M54.72 233.75L297.12 233.75L297.12 233.75L297.12 331.91L297.12 331.91L54.72 331.91z" /></clipPath><clipPath id="32"><path id="" clip-rule="evenodd" transform="matrix(1 0 0 1 0 0)" d="M54.80581 233.8682L297.057 233.8682L297.057 233.8682L297.057 331.6858L297.057 331.6858L54.80581 331.6858z" /></clipPath><clipPath id="33"><path id="" clip-rule="evenodd" transform="matrix(1 0 0 1 0 0)" d="M175.909 233.8682C 109.0255 233.8682 54.80581 255.7654 54.80581 282.777C 54.80581 309.7885 109.0255 331.6859 175.909 331.6859C 242.7924 331.6859 297.012 309.7885 297.012 282.777C 297.012 255.7654 242.7924 233.8682 175.909 233.8682z" /></clipPath><clipPath id="34"><path id="" clip-rule="evenodd" transform="matrix(1 0 0 1 0 0)" d="M308.64 316.79L561.84 316.79L561.84 316.79L561.84 422.87L561.84 422.87L308.64 422.87z" /></clipPath><clipPath id="35"><path id="" clip-rule="evenodd" transform="matrix(1 0 0 1 0 0)" d="M308.7202 316.8094L561.7811 316.8094L561.7811 316.8094L561.7811 422.8385L561.7811 422.8385L308.7202 422.8385z" /></clipPath><clipPath id="36"><path id="" clip-rule="evenodd" transform="matrix(1 0 0 1 0 0)" d="M435.1766 316.8094C 365.3366 316.8094 308.7202 340.5448 308.7202 369.824C 308.7202 399.1031 365.3366 422.8386 435.1766 422.8386C 505.0166 422.8386 561.6335 399.1031 561.6335 369.824C 561.6335 340.5448 505.0166 316.8094 435.1766 316.8094z" /></clipPath><clipPath id="37"><path id="" clip-rule="evenodd" transform="matrix(1 0 0 1 0 0)" d="M97.43999 394.79L283.68 394.79L283.68 394.79L283.68 508.31L283.68 508.31L97.43999 508.31z" /></clipPath><clipPath id="38"><path id="" clip-rule="evenodd" transform="matrix(1 0 0 1 0 0)" d="M97.63055 394.904L283.4616 394.904L283.4616 394.904L283.4616 508.1725L283.4616 508.1725L97.63055 508.1725z" /></clipPath><clipPath id="39"><path id="" clip-rule="evenodd" transform="matrix(1 0 0 1 0 0)" d="M190.3889 394.904C 139.1599 394.904 97.63055 420.26 97.63055 451.5382C 97.63055 482.8165 139.1599 508.1725 190.3889 508.1725C 241.6178 508.1725 283.1472 482.8165 283.1472 451.5382C 283.1472 420.26 241.6178 394.904 190.3889 394.904z" /></clipPath><clipPath id="40"><path id="" clip-rule="evenodd" transform="matrix(1 0 0 1 0 0)" d="M369.36 466.79L519.84 466.79L519.84 466.79L519.84 558.95L519.84 558.95L369.36 558.95z" /></clipPath><clipPath id="41"><path id="" clip-rule="evenodd" transform="matrix(1 0 0 1 0 0)" d="M369.3601 467.0172L519.8049 467.0172L519.8049 467.0172L519.8049 558.7169L519.8049 558.7169L369.3601 558.7169z" /></clipPath><clipPath id="42"><path id="" clip-rule="evenodd" transform="matrix(1 0 0 1 0 0)" d="M444.4553 467.0172C 402.9814 467.0172 369.3601 487.5449 369.3601 512.8671C 369.3601 538.1893 402.9814 558.717 444.4553 558.717C 485.9292 558.717 519.5505 538.1893 519.5505 512.8671C 519.5505 487.5449 485.9292 467.0172 444.4553 467.0172z" /></clipPath><clipPath id="43"><path id="" clip-rule="evenodd" transform="matrix(1 0 0 1 0 0)" d="M108.48 534.23L350.88 534.23L350.88 534.23L350.88 632.39L350.88 632.39L108.48 632.39z" /></clipPath><clipPath id="44"><path id="" clip-rule="evenodd" transform="matrix(1 0 0 1 0 0)" d="M108.5965 534.461L350.8477 534.461L350.8477 534.461L350.8477 632.2785L350.8477 632.2785L108.5965 632.2785z" /></clipPath><clipPath id="45"><path id="" clip-rule="evenodd" transform="matrix(1 0 0 1 0 0)" d="M229.6997 534.461C 162.8162 534.461 108.5965 556.3582 108.5965 583.3698C 108.5965 610.3813 162.8162 632.2784 229.6997 632.2784C 296.5831 632.2784 350.8032 610.3813 350.8032 583.3698C 350.8032 556.3582 296.5831 534.461 229.6997 534.461z" /></clipPath><clipPath id="46"><path id="" clip-rule="evenodd" transform="matrix(1 0 0 1 0 0)" d="M304.08 640.07L557.52 640.07L557.52 640.07L557.52 746.39L557.52 746.39L304.08 746.39z" /></clipPath><clipPath id="47"><path id="" clip-rule="evenodd" transform="matrix(1 0 0 1 0 0)" d="M304.2624 640.2448L557.3232 640.2448L557.3232 640.2448L557.3232 746.2738L557.3232 746.2738L304.2624 746.2738z" /></clipPath><clipPath id="48"><path id="" clip-rule="evenodd" transform="matrix(1 0 0 1 0 0)" d="M430.7189 640.2448C 360.8789 640.2448 304.2624 663.9801 304.2624 693.2593C 304.2624 722.5383 360.8789 746.2738 430.7189 746.2738C 500.5588 746.2738 557.1744 722.5383 557.1744 693.2593C 557.1744 663.9801 500.5588 640.2448 430.7189 640.2448z" /></clipPath><clipPath id="49"><path id="" clip-rule="evenodd" transform="matrix(1 0 0 1 0 0)" d="M0 -0.25L595.5 -0.25L595.5 -0.25L595.5 842.0012L595.5 842.0012L0 842.0012z" /></clipPath><clipPath id="50"><path id="" clip-rule="evenodd" transform="matrix(1 0 0 1 0 0)" d="M0 -0.25L595.5 -0.25L595.5 -0.25L595.5 842.0012L595.5 842.0012L0 842.0012z" /></clipPath><clipPath id="51"><path id="" clip-rule="evenodd" transform="matrix(1 0 0 1 0 0)" d="M275.448 220.7717L355.698 220.7717L355.698 220.7717L355.698 284.5217L355.698 284.5217L275.448 284.5217z" /></clipPath><clipPath id="52"><path id="" clip-rule="evenodd" transform="matrix(1 0 0 1 0 0)" d="M275.4024 220.4319L355.6524 220.4319L355.6524 220.4319L355.6524 284.1819L355.6524 284.1819L275.4024 284.1819z" /></clipPath><clipPath id="53"><path id="" clip-rule="evenodd" transform="matrix(1 0 0 1 0 0)" d="M0 -0.25L595.5 -0.25L595.5 -0.25L595.5 842.0012L595.5 842.0012L0 842.0012z" /></clipPath><clipPath id="54"><path id="" clip-rule="evenodd" transform="matrix(1 0 0 1 0 0)" d="M0 -0.25L595.5 -0.25L595.5 -0.25L595.5 842.0012L595.5 842.0012L0 842.0012z" /></clipPath><clipPath id="55"><path id="" clip-rule="evenodd" transform="matrix(1 0 0 1 0 0)" d="M333.4896 472.3436L235.8962 435.686L235.8962 435.686L265.1688 357.7532L265.1688 357.7532L362.7624 394.4084L362.7624 394.4084L333.4896 472.3436z" /></clipPath><clipPath id="56"><path id="" clip-rule="evenodd" transform="matrix(1 0 0 1 0 0)" d="M265.152 357.7964L362.7456 394.4516L362.7456 394.4516L333.4728 472.3868L333.4728 472.3868L235.8799 435.7292L235.8799 435.7292L265.152 357.7964z" /></clipPath><clipPath id="57"><path id="" clip-rule="evenodd" transform="matrix(1 0 0 1 0 0)" d="M0 -0.25L595.5 -0.25L595.5 -0.25L595.5 842.0012L595.5 842.0012L0 842.0012z" /></clipPath><clipPath id="58"><path id="" clip-rule="evenodd" transform="matrix(1 0 0 1 0 0)" d="M0 -0.25L595.5 -0.25L595.5 -0.25L595.5 842.0012L595.5 842.0012L0 842.0012z" /></clipPath><clipPath id="59"><path id="" clip-rule="evenodd" transform="matrix(1 0 0 1 0 0)" d="M416.0712 613.2644L332.5536 594.9596L332.5536 594.9596L347.1648 528.2924L347.1648 528.2924L430.6824 546.5972L430.6824 546.5972L416.0712 613.2644z" /></clipPath><clipPath id="60"><path id="" clip-rule="evenodd" transform="matrix(1 0 0 1 0 0)" d="M347.0112 528.1148L430.5288 546.4196L430.5288 546.4196L415.9176 613.0868L415.9176 613.0868L332.4 594.782L332.4 594.782L347.0112 528.1148z" /></clipPath><clipPath id="61"><path id="" clip-rule="evenodd" transform="matrix(1 0 0 1 0 0)" d="M0 -0.25L595.5 -0.25L595.5 -0.25L595.5 842.0012L595.5 842.0012L0 842.0012z" /></clipPath><clipPath id="62"><path id="" clip-rule="evenodd" transform="matrix(1 0 0 1 0 0)" d="M0 -0.25L595.5 -0.25L595.5 -0.25L595.5 842.0012L595.5 842.0012L0 842.0012z" /></clipPath><clipPath id="63"><path id="" clip-rule="evenodd" transform="matrix(1 0 0 1 0 0)" d="M306.576 282.7772L346.7976 358.226L346.7976 358.226L286.572 390.3332L286.572 390.3332L246.3504 314.8844L246.3504 314.8844L306.576 282.7772z" /></clipPath><clipPath id="64"><path id="" clip-rule="evenodd" transform="matrix(1 0 0 1 0 0)" d="M286.536 390.5636L246.3144 315.1148L246.3144 315.1148L306.54 283.01L306.54 283.01L346.7616 358.4564L346.7616 358.4564L286.536 390.5636z" /></clipPath><clipPath id="65"><path id="" clip-rule="evenodd" transform="matrix(1 0 0 1 0 0)" d="M0 -0.25L595.5 -0.25L595.5 -0.25L595.5 842.0012L595.5 842.0012L0 842.0012z" /></clipPath><clipPath id="66"><path id="" clip-rule="evenodd" transform="matrix(1 0 0 1 0 0)" d="M0 -0.25L595.5 -0.25L595.5 -0.25L595.5 842.0012L595.5 842.0012L0 842.0012z" /></clipPath><clipPath id="67"><path id="" clip-rule="evenodd" transform="matrix(1 0 0 1 0 0)" d="M337.152 410.882L387.252 504.8612L387.252 504.8612L312.4656 544.73L312.4656 544.73L262.3656 450.7508L262.3656 450.7508L337.152 410.882z" /></clipPath><clipPath id="68"><path id="" clip-rule="evenodd" transform="matrix(1 0 0 1 0 0)" d="M312.2136 544.9579L262.1136 450.9764L262.1136 450.9764L336.9 411.11L336.9 411.11L387 505.0892L387 505.0892L312.2136 544.9579z" /></clipPath><clipPath id="69"><path id="" clip-rule="evenodd" transform="matrix(1 0 0 1 0 0)" d="M0 -0.25L595.5 -0.25L595.5 -0.25L595.5 842.0012L595.5 842.0012L0 842.0012z" /></clipPath><clipPath id="70"><path id="" clip-rule="evenodd" transform="matrix(1 0 0 1 0 0)" d="M0 -0.25L595.5 -0.25L595.5 -0.25L595.5 842.0012L595.5 842.0012L0 842.0012z" /></clipPath><clipPath id="71"><path id="" clip-rule="evenodd" transform="matrix(1 0 0 1 0 0)" d="M336.1656 581.6108L368.0664 660.9355L368.0664 660.9355L304.7472 686.402L304.7472 686.402L272.844 607.0772L272.844 607.0772L336.1656 581.6108z" /></clipPath><clipPath id="72"><path id="" clip-rule="evenodd" transform="matrix(1 0 0 1 0 0)" d="M304.6872 686.6276L272.784 607.3028L272.784 607.3028L336.1056 581.8364L336.1056 581.8364L368.0064 661.1611L368.0064 661.1611L304.6872 686.6276z" /></clipPath><clipPath id="73"><path id="" clip-rule="evenodd" transform="matrix(1 0 0 1 0 0)" d="M0 -0.25L595.5 -0.25L595.5 -0.25L595.5 842.0012L595.5 842.0012L0 842.0012z" /></clipPath><clipPath id="74"><path id="" clip-rule="evenodd" transform="matrix(1 0 0 1 0 0)" d="M488.3112 13.39935L588.0612 13.39935L588.0612 13.39935L588.0612 69.64935L588.0612 69.64935L488.3112 69.64935z" /></clipPath></defs><g transform="matrix(1.333333 0 0 1.333333 0 0)"><g clip-path="url(#1)"><g clip-path="url(#2)"><path id="1" transform="matrix(1 0 0 -1 0 842)" d="M0 842.25L595.4999 842.25L595.4999 0L0 0z" stroke="none" fill="#FFFFFF" fill-rule="nonzero" /></g><g clip-path="url(#3)"><path id="2" transform="matrix(1 0 0 -1 0 842)" d="M0 842.25L595.4999 842.25L595.4999 0L0 0z" stroke="none" fill="#FFFFFF" fill-rule="nonzero" /></g><g clip-path="url(#4)"><g><g clip-path="url(#5)"><g clip-path="url(#6)"><g transform="matrix(0 0.975 -0.9768211 0 522.0178 30.75183)"><g transform="matrix(1 0 0 1 0 0)"><image x="0" y="0" xlink:href="img_01.png" width="800" height="453" /></g></g></g></g></g></g><g clip-path="url(#7)"><g clip-path="url(#8)"><g clip-path="url(#9)"><g clip-path="url(#10)"><g clip-path="url(#11)"><g transform="matrix(0.7198139 0.6252331 -0.6251385 0.719706 499.6445 517.4132)"><g transform="matrix(1 0 0 1 0 0)"><image x="0" y="0" xlink:href="img_02.png" width="800" height="449" /></g></g></g></g></g></g></g><g clip-path="url(#12)"><g clip-path="url(#13)"><g clip-path="url(#14)"><g clip-path="url(#15)"><path id="5" transform="matrix(1 0 0 -1 0 842)" d="M19.872 100.398L71.99726 100.398L71.99726 48.27274L19.872 48.27274z" stroke="none" fill="#F2C70F" fill-rule="nonzero" /></g></g></g></g><g clip-path="url(#16)"><g clip-path="url(#17)"><g clip-path="url(#18)"><g clip-path="url(#19)"><g clip-path="url(#20)"><path id="6" transform="matrix(1 0 0 -1 0 842)" d="M45.9345 100.398C 31.54057 100.398 19.872 88.72943 19.872 74.3355C 19.872 59.94158 31.54057 48.273 45.9345 48.273C 60.32842 48.273 71.99699 59.94158 71.99699 74.3355C 71.99699 88.72943 60.32842 100.398 45.9345 100.398z" stroke="#FFFFFF" stroke-width="7.5" fill="none" /></g></g></g></g></g><g clip-path="url(#21)"><g><g clip-path="url(#22)"><g clip-path="url(#23)"><g clip-path="url(#24)"><path id="7" transform="matrix(1 0 0 -1 0 842)" d="M334.5398 663.6542L549.4908 663.6542L549.4908 548.2927L334.5398 548.2927z" stroke="none" fill="#F83939" fill-rule="nonzero" fill-opacity="0.5882353" /></g></g></g></g></g><g clip-path="url(#25)"><path id="8" transform="matrix(1 0 0 -1 0 842)" d="M-42.06174 461.7792C -53.54565 461.6965 -64.99598 459.3622 -75.54307 454.8947C -86.09517 450.4421 -95.73251 443.887 -103.7549 435.7553C -111.7762 427.6222 -118.1765 417.9182 -122.4601 407.3636C -126.7593 396.813 -128.9131 385.4253 -128.8389 374.0627C -128.7562 362.6991 -126.446 351.3741 -122.0261 340.9418C -117.6212 330.504 -111.1356 320.9704 -103.0902 313.0342C -95.0433 305.0996 -85.44305 298.769 -75.00273 294.5325C -64.56641 290.2809 -53.30405 288.1517 -42.06174 288.2254C -30.81893 288.3086 -19.61922 290.5942 -9.300697 294.9666C 1.022339 299.3238 10.45267 305.7397 18.30209 313.6989C 26.1505 321.6596 32.41148 331.1561 36.60034 341.4816C 40.80424 351.8036 42.90945 362.9412 42.83577 374.0627C 42.75258 385.1852 40.49097 396.2596 36.16628 406.4639C 31.85611 416.6726 25.51041 425.9987 17.63744 433.7619C 9.763458 441.5241 0.370224 447.7149 -9.840538 451.8567C -20.04829 456.0129 -31.06053 458.0936 -42.06174 458.0204L-42.06174 458.0204L-42.06174 461.7792zM-42.06174 465.5385C -30.09564 465.4568 -18.14458 463.0253 -7.140854 458.3672C 3.869385 453.7253 13.92175 446.8909 22.28944 438.4134C 30.65665 429.9349 37.33568 419.8159 41.80923 408.8032C 46.29884 397.7959 48.54991 385.907 48.47472 374.0622C 48.39302 362.2164 45.98557 350.3907 41.37515 339.5012C 36.78029 328.6053 30.01607 318.6572 21.6248 310.3757C 13.23254 302.0952 3.21727 295.4858 -7.680695 291.0594C -18.57413 286.6174 -30.33723 284.3909 -42.06174 284.4656C -53.78675 284.5478 -65.48769 286.9307 -76.26285 291.4934C -87.04402 296.0407 -96.88887 302.7353 -105.0836 311.0398C -113.2779 319.3459 -119.8176 329.2569 -124.1959 340.041C -128.5903 350.8197 -130.7927 362.458 -130.7181 374.0622C -130.6359 385.6669 -128.277 397.2421 -123.7618 407.9034C -119.2622 418.5703 -112.6373 428.3114 -104.419 436.42C -96.19917 444.5275 -86.39191 450.9975 -75.72252 455.3287C -65.05813 459.6755 -53.54465 461.8534 -42.06124 461.7792L-42.06124 461.7792L-42.06124 465.5385L-42.06124 465.5385L-42.06174 465.5385zM-42.06174 449.2482C -51.9051 449.1665 -61.71536 447.154 -70.74721 443.316C -79.78355 439.4911 -88.03197 433.8661 -94.89444 426.8944C -101.7559 419.9211 -107.2254 411.6061 -110.882 402.5672C -114.5516 393.5319 -116.3831 383.7842 -116.3084 374.0622C -116.2262 364.3392 -114.2383 354.6547 -110.4479 345.7372C -106.6706 336.8151 -101.1153 328.6704 -94.2298 321.8947C -87.34326 315.1199 -79.13195 309.7195 -70.20737 306.1106C -61.2863 302.4886 -51.66399 300.6817 -42.06224 300.7559C -32.45999 300.8381 -22.90034 302.8019 -14.09707 306.5447C -5.28978 310.2749 2.751617 315.76 9.440659 322.5593C 16.1292 329.3596 21.4594 337.4672 25.02121 346.277C 28.59555 355.0838 30.37846 364.5807 30.30428 374.0622C 30.22157 383.5442 28.28227 392.9785 24.58713 401.6675C 20.90453 410.3605 15.48863 418.2976 8.776016 424.901C 2.061905 431.5028 -5.941887 436.7638 -14.63741 440.278C -23.3299 443.8047 -32.70209 445.5631 -42.06274 445.4894L-42.06274 445.4894L-42.06274 449.2482L-42.06274 449.2482L-42.06174 449.2482zM-42.06174 453.0075C -31.7362 452.9263 -21.42519 450.8171 -11.93672 446.7886C -2.44223 442.7737 6.221191 436.8701 13.42853 429.5525C 20.63536 422.2339 26.38458 413.5043 30.23059 404.0073C 34.09064 394.5153 36.01891 384.2664 35.94373 374.0622C 35.86253 363.857 33.77737 353.6713 29.79651 344.2971C 25.82921 334.9174 19.99527 326.3577 12.76389 319.2366C 5.531479 312.116 -3.094345 306.4369 -12.47706 302.638C -21.85476 298.8256 -31.9783 296.9214 -42.06224 296.9966C -52.14669 297.0783 -62.20708 299.1389 -71.46748 303.0721C -80.73291 306.9918 -89.18883 312.756 -96.22372 319.9007C -103.2581 327.0464 -108.8675 335.569 -112.6183 344.8369C -116.3831 354.1008 -118.2627 364.0986 -118.1881 374.0622C -118.1064 384.0264 -116.0698 393.9614 -112.1842 403.1075C -108.3116 412.2582 -102.617 420.6108 -95.55908 427.5591C -88.49962 434.5067 -80.0808 440.0464 -70.92765 443.7501C -61.77802 447.4673 -51.9051 449.3229 -42.06224 449.2482L-42.06224 449.2482L-42.06224 453.0075L-42.06224 453.0075L-42.06174 453.0075zM-42.06174 436.7172C -50.26453 436.636 -58.43425 434.9458 -65.95134 431.7374C -73.47195 428.54 -80.33141 423.8454 -86.03352 418.0335C -91.73462 412.2206 -96.27435 405.2945 -99.30334 397.7714C -102.3434 390.2513 -103.8521 382.1437 -103.7774 374.0622C -103.6957 365.9797 -102.0301 357.9353 -98.86928 350.533C -95.71898 343.1272 -91.09454 336.371 -85.36888 330.7556C -79.64221 325.1407 -72.81983 320.6706 -65.41151 317.6893C -58.00568 314.6968 -50.02345 313.2122 -42.06224 313.2869C -34.10056 313.3686 -26.18096 315.0101 -18.89293 318.1233C -11.60139 321.226 -4.948929 325.7813 0.580246 331.4202C 6.108917 337.0607 10.5088 343.7793 13.44307 351.0733C 16.38785 358.3649 17.84796 366.2218 17.77377 374.0627C 17.69157 381.9041 16.07458 389.6979 13.00899 396.8721C 9.953934 404.0494 5.468338 410.5976 -0.08389282 416.0405C -5.637642 421.4825 -12.25301 425.8132 -19.43227 428.6994C -26.60952 431.5965 -34.34164 433.0326 -42.06174 432.9584L-42.06174 432.9584L-42.06174 436.7172L-42.06174 436.7172L-42.06174 436.7172zM-42.06174 440.4765C -33.37676 440.3963 -24.7058 438.6089 -16.73258 435.21C -8.753845 431.8226 -1.479843 426.8493 4.567612 420.6916C 10.61456 414.5333 15.433 407.1922 18.65195 399.2109C 21.88243 391.2337 23.48842 382.6254 23.41272 374.0617C 23.33202 365.497 21.56915 356.9519 18.21788 349.0924C 14.87811 341.2285 9.974487 334.0577 3.902954 328.0965C -2.169052 322.1357 -9.406464 317.387 -17.27292 314.2157C -25.13587 311.0328 -33.61885 309.4509 -42.06224 309.5266C -50.50613 309.6073 -58.92646 311.3461 -66.67162 314.6497C -74.4213 317.9424 -81.48828 322.7758 -87.36281 328.7607C -93.23684 334.7465 -97.91592 341.8796 -101.0396 349.6318C -104.1749 357.3804 -105.7323 365.7381 -105.6571 374.0612C -105.5759 382.3848 -103.8616 390.6798 -100.6056 398.3107C -97.36054 405.9456 -92.59625 412.9088 -86.69817 418.6976C -80.79857 424.4855 -73.76918 429.0948 -66.13129 432.171C -58.4969 435.2586 -50.26453 436.7919 -42.06174 436.7167L-42.06174 436.7167L-42.06174 440.4765zM-42.06174 424.1862C -48.62398 424.1055 -55.15363 422.7381 -61.15548 420.1592C -67.16033 417.5889 -72.63087 413.8251 -77.1726 409.1731C -81.71384 404.5201 -85.32327 398.9828 -87.7247 392.976C -90.13516 386.9711 -91.3216 380.5036 -91.24591 374.0627C -91.16472 367.6208 -89.82139 361.2164 -87.29063 355.3294C -84.76788 349.4393 -81.07375 344.072 -76.50796 339.6165C -71.94167 335.1615 -66.50822 331.6222 -60.61514 329.2679C -54.72407 326.9051 -48.38238 325.7427 -42.06174 325.8184C -35.7406 325.8996 -29.46158 327.2188 -23.68829 329.702C -17.91251 332.1771 -12.64948 335.8021 -8.280182 340.2811C -3.911865 344.7612 -0.4417877 350.0909 1.864929 355.8692C 4.180145 361.646 5.317963 367.8624 5.242783 374.0627C 5.161072 380.2635 3.866364 386.4173 1.430847 392.0763C -0.9971619 397.7373 -4.551956 402.897 -8.944321 407.1796C -13.33819 411.4617 -18.56412 414.8616 -24.22762 417.1212C -29.89013 419.3889 -35.9817 420.5026 -42.06124 420.4274L-42.06124 420.4274L-42.06124 424.1862L-42.06124 424.1862L-42.06174 424.1862zM-42.06174 427.9455C -35.01732 427.8658 -27.98692 426.4012 -21.52845 423.6318C -15.06546 420.872 -9.180397 416.829 -4.292816 411.8311C 0.5942841 406.8328 4.482391 400.881 7.073807 394.4156C 9.674744 387.9536 10.95842 380.9853 10.88173 374.0622C 10.80153 367.1381 9.361465 360.233 6.639725 353.8888C 3.927017 347.5406 -0.04580688 341.7588 -4.957451 336.9579C -9.869606 332.157 -15.71758 328.3391 -22.06828 325.7948C -28.41599 323.2415 -35.25891 321.9819 -42.06174 322.0586C -48.86507 322.1388 -55.64534 323.5547 -61.87525 326.2289C -68.10918 328.894 -73.78723 332.7976 -78.50139 337.6221C -83.21555 342.4475 -86.96432 348.1922 -89.46049 354.4286C -91.96619 360.662 -93.20125 367.3797 -93.12506 374.0622C -93.04436 380.7452 -91.65292 387.3997 -89.02643 393.5158C -86.40895 399.6349 -82.57497 405.2093 -77.83675 409.8377C -73.09752 414.4656 -67.45657 418.1443 -61.33492 420.5933C -55.21578 423.0514 -48.62348 424.2624 -42.06124 424.1862L-42.06124 424.1862L-42.06124 427.9455L-42.06124 427.9455L-42.06174 427.9455zM-42.06174 411.6552C -46.98342 411.575 -51.87302 410.5299 -56.35961 408.5806C -60.84872 406.6378 -64.93031 403.8043 -68.31218 400.3121C -71.69354 396.8195 -74.37218 392.6713 -76.14656 388.1796C -77.92747 383.6895 -78.79161 378.8626 -78.71542 374.0622C -78.63522 369.2608 -77.6142 364.497 -75.71249 360.1247C -73.8173 355.7504 -71.05296 351.7721 -67.64754 348.4769C -64.24111 345.1818 -60.1966 342.5728 -55.81978 340.846C -51.44395 339.1128 -46.74232 338.2727 -42.06224 338.3489C -37.38167 338.4296 -32.74269 339.426 -28.48466 341.2801C -24.22462 343.1282 -20.35053 345.8224 -17.1416 349.1415C -13.93317 352.4618 -11.39388 356.4025 -9.714226 360.6646C -8.028557 364.9261 -7.213036 369.5024 -7.288719 374.0622C -7.369423 378.6225 -8.341835 383.1362 -10.14829 387.2799C -11.94875 391.4252 -14.57324 395.196 -17.80574 398.3187C -21.03924 401.4409 -24.87673 403.9106 -29.02449 405.5421C -33.17175 407.1801 -37.62327 407.9716 -42.06224 407.8959L-42.06224 407.8959L-42.06224 411.6552L-42.06224 411.6552L-42.06174 411.6552zM-42.06174 415.4145C -36.65788 415.3353 -31.26754 414.193 -26.32431 412.0532C -21.37757 409.9204 -16.88095 406.8082 -13.15373 402.9702C -9.426506 399.1322 -6.468689 394.5689 -4.504829 389.6197C -2.533463 384.673 -1.572083 379.3453 -1.649277 374.0622C -1.72847 368.7786 -2.846733 363.5136 -4.938911 358.6847C -7.024063 353.8522 -10.06709 349.4594 -13.81837 345.8188C -17.57016 342.1783 -22.02969 339.2902 -26.86465 337.374C -31.6971 335.4502 -36.89997 334.5129 -42.06224 334.5901C -47.22501 334.6698 -52.36473 335.7635 -57.0799 337.808C -61.79807 339.8456 -66.08717 342.8189 -69.64146 346.4835C -73.19576 350.149 -76.01373 354.5043 -77.88286 359.225C -79.759 363.9432 -80.67175 369.0208 -80.59506 374.0627C -80.51537 379.1052 -79.44572 384.1196 -77.44878 388.7205C -75.45836 393.3239 -72.55518 397.5092 -68.97682 400.9773C -65.39797 404.4449 -61.14596 407.1937 -56.54006 409.0152C -51.93568 410.8437 -46.98392 411.7324 -42.06224 411.6557L-42.06224 411.6557L-42.06224 415.4145L-42.06224 415.4145L-42.06174 415.4145zM-42.06174 399.1242C -45.34336 399.04 -48.5909 398.3167 -51.56224 396.9979C -54.5351 395.6837 -57.22826 393.782 -59.45126 391.4512C -61.67125 389.1174 -63.41808 386.3576 -64.56391 383.3823C -65.71426 380.4074 -66.2566 377.2225 -66.18442 374.0617C -66.1002 370.9009 -65.40099 367.7782 -64.12983 364.9211C -62.8627 362.063 -61.03117 359.4731 -58.78662 357.3369C -56.53905 355.2031 -53.88299 353.5264 -51.02241 352.4277C -48.16183 351.325 -45.10177 350.8067 -42.06224 350.8788C -39.02172 350.9636 -36.02481 351.6382 -33.28202 352.8618C -30.53824 354.0813 -28.05209 355.8431 -26.00252 358.001C -23.95545 360.1618 -22.34798 362.7146 -21.29738 365.4609C -20.24226 368.2072 -19.74854 371.142 -19.82022 374.0612C -19.90494 376.9809 -20.55554 379.853 -21.73145 382.4815C -22.90385 385.111 -24.59604 387.4929 -26.66716 389.4568C -28.74179 391.4176 -31.19035 392.955 -33.82236 393.9584C -36.45438 394.9659 -39.26432 395.4356 -42.06274 395.3639L-42.06274 395.3639L-42.06274 399.1242L-42.06274 399.1242L-42.06174 399.1242zM-42.06174 402.8835C -38.29794 402.8003 -34.54966 401.9798 -31.12119 400.4705C -27.69019 398.9663 -24.5825 396.7859 -22.01415 394.1098C -19.4483 391.4307 -17.42279 388.2558 -16.08749 384.8228C -14.74667 381.3914 -14.10709 377.7052 -14.18027 374.0627C -14.26348 370.4192 -15.05995 366.7962 -16.52157 363.4825C -17.97816 360.1663 -20.08888 357.1619 -22.67879 354.6797C -25.27171 352.2001 -28.34231 350.2448 -31.66151 348.9566C -34.97872 347.6634 -38.53953 347.0479 -42.06174 347.1211C -45.58446 347.2048 -49.08261 347.9767 -52.28203 349.3907C -55.48395 350.8002 -58.38463 352.8407 -60.78004 355.3444C -63.17297 357.8511 -65.05914 360.8179 -66.29971 364.0224C -67.54529 367.2253 -68.13625 370.6613 -68.06357 374.0627C -67.97986 377.4646 -67.23201 380.8375 -65.86562 383.9231C -64.50376 387.0103 -62.53238 389.8077 -60.11541 392.1164C -57.69542 394.4231 -54.83184 396.2391 -51.7422 397.4325C -48.65355 398.6305 -45.34286 399.1974 -42.06174 399.1247L-42.06174 399.1247L-42.06174 402.8835L-42.06174 402.8835L-42.06174 402.8835zM-42.06174 386.5932C -45.35088 386.4464 -48.47411 384.9456 -50.59034 382.5908C -52.72613 380.247 -53.81982 377.1017 -53.65292 374.0622C -53.50405 371.0167 -52.10709 368.1436 -49.9257 366.1982C -47.75232 364.2359 -44.85767 363.246 -42.06174 363.4109C -39.25982 363.5617 -36.63732 364.8549 -34.86243 366.8629C -33.07351 368.8658 -32.18732 371.5099 -32.35022 374.0622C -32.5031 376.6205 -33.69254 378.9924 -35.52708 380.5969C -37.35961 382.2124 -39.75303 382.9948 -42.06174 382.8339L-42.06174 382.8339L-42.06174 386.5932zM-42.06174 390.3525C -39.93849 390.2723 -37.82977 389.7741 -35.91653 388.8944C -34.0013 388.0172 -32.28255 386.7661 -30.87507 385.2494C -29.46859 383.7311 -28.37238 381.9457 -27.66413 380.028C -26.95237 378.1112 -26.63558 376.0652 -26.71177 374.0627C -26.79247 372.0598 -27.26614 370.0764 -28.0982 368.2774C -28.92826 366.4769 -30.10917 364.8615 -31.53971 363.5402C -34.39528 360.8836 -38.29142 359.4786 -42.06174 359.6516C -45.83808 359.7944 -49.46255 361.5026 -51.91913 364.2048C -54.40227 366.8895 -55.70349 370.536 -55.53257 374.0622C -55.38771 377.5949 -53.78324 380.9688 -51.25499 383.2555C -48.74077 385.5652 -45.34487 386.7626 -42.06174 386.5932L-42.06174 386.5932L-42.06174 390.3525L-42.06174 390.3525L-42.06174 390.3525z" stroke="none" fill="#D9D9D9" fill-rule="nonzero" /></g><g clip-path="url(#26)"><g clip-path="url(#27)"><g clip-path="url(#28)"><g clip-path="url(#29)"><path id="9" transform="matrix(1 0 0 -1 0 842)" d="M-53.06088 903.3011L116.7255 903.3011L116.7255 733.5148L-53.06088 733.5148z" stroke="none" fill="#F2C70F" fill-rule="nonzero" /></g></g></g></g><g clip-path="url(#30)"><g><g clip-path="url(#31)"><g clip-path="url(#32)"><g clip-path="url(#33)"><path id="81" transform="matrix(1 0 0 -1 0 842)" d="M54.80581 608.1317L297.0567 608.1317L297.0567 510.3143L54.80581 510.3143z" stroke="none" fill="#85A3BD" fill-rule="nonzero" fill-opacity="0.5882353" /></g></g></g></g><g><g clip-path="url(#34)"><g clip-path="url(#35)"><g clip-path="url(#36)"><path id="106" transform="matrix(1 0 0 -1 0 842)" d="M308.7202 525.1906L561.7813 525.1906L561.7813 419.1618L308.7202 419.1618z" stroke="none" fill="#C161C6" fill-rule="nonzero" fill-opacity="0.5882353" /></g></g></g></g><g><g clip-path="url(#37)"><g clip-path="url(#38)"><g clip-path="url(#39)"><path id="154" transform="matrix(1 0 0 -1 0 842)" d="M97.63055 447.096L283.0189 447.096L283.0189 333.8276L97.63055 333.8276z" stroke="none" fill="#24944A" fill-rule="nonzero" fill-opacity="0.5882353" /></g></g></g></g><g><g clip-path="url(#40)"><g clip-path="url(#41)"><g clip-path="url(#42)"><path id="172" transform="matrix(1 0 0 -1 0 842)" d="M369.3601 374.9828L519.4469 374.9828L519.4469 283.283L369.3601 283.283z" stroke="none" fill="#F83939" fill-rule="nonzero" fill-opacity="0.5882353" /></g></g></g></g><g><g clip-path="url(#43)"><g clip-path="url(#44)"><g clip-path="url(#45)"><path id="173" transform="matrix(1 0 0 -1 0 842)" d="M108.5965 307.539L350.8474 307.539L350.8474 209.7216L108.5965 209.7216z" stroke="none" fill="#85A3BD" fill-rule="nonzero" fill-opacity="0.5882353" /></g></g></g></g><g><g clip-path="url(#46)"><g clip-path="url(#47)"><g clip-path="url(#48)"><path id="209" transform="matrix(1 0 0 -1 0 842)" d="M304.2624 201.7553L557.3234 201.7553L557.3234 95.72643L304.2624 95.72643z" stroke="none" fill="#C161C6" fill-rule="nonzero" fill-opacity="0.5882353" /></g></g></g></g></g><g clip-path="url(#49)"><g clip-path="url(#50)"><g clip-path="url(#51)"><g clip-path="url(#52)"><path id="230" transform="matrix(1 0 0 -1 0 842)" d="M278.0053 559.1043C 277.814 559.1043 277.6227 559.2 277.527 559.3913C 277.3357 559.8696 277.2401 560.3478 277.0487 560.8261C 276.9531 561.1131 277.1444 561.3044 277.3357 561.4001C 277.6227 561.4957 277.814 561.3044 277.9096 561.1131C 278.0053 560.6348 278.1966 560.2522 278.3879 559.7739C 278.4836 559.4869 278.3879 559.2957 278.101 559.2C 278.1966 559.1043 278.101 559.1043 278.0053 559.1043z" stroke="none" fill="#040606" fill-rule="nonzero" /><path id="231" transform="matrix(1 0 0 -1 0 842)" d="M276.8574 569.3396C 276.5705 569.3396 276.3792 569.6265 276.3792 569.9135C 276.4748 570.9657 276.6661 571.9223 276.9531 572.8788C 277.0487 573.1658 277.2401 573.2615 277.527 573.2615C 277.814 573.1658 277.9096 572.9745 277.9096 572.6876C 277.7183 571.731 277.527 570.7744 277.4314 569.8179C 277.3357 569.5309 277.1444 569.3396 276.8574 569.3396zM276.9531 563.4089C 276.7618 563.4089 276.4748 563.6002 276.4748 563.7915C 276.2835 564.748 276.2835 565.8003 276.1878 566.8525C 276.1878 567.1395 276.3792 567.3308 276.6661 567.3308C 276.9531 567.3308 277.1444 567.1395 277.1444 566.8525C 277.1444 565.8959 277.2401 564.8437 277.3357 563.8871C 277.4314 563.6958 277.3357 563.4089 276.9531 563.4089C 277.0487 563.4089 276.9531 563.4089 276.9531 563.4089z" stroke="none" fill="#040606" fill-rule="nonzero" /><path id="232" transform="matrix(1 0 0 -1 0 842)" d="M349.8434 612.2894C 349.7477 612.2894 349.6521 612.2894 349.5564 612.385C 349.3651 612.5764 349.2694 612.8633 349.4608 613.0546C 350.0347 613.8199 350.6086 614.6808 351.0869 615.5417C 351.1826 615.733 351.4695 615.8287 351.7565 615.733C 351.9478 615.6373 352.0435 615.3503 351.9478 615.0634C 351.4695 614.2025 350.8956 613.3416 350.3217 612.4807C 350.1304 612.2894 350.0347 612.2894 349.8434 612.2894zM346.0171 607.6979C 345.9214 607.6979 345.7302 607.6979 345.6345 607.7935C 345.4432 607.9848 345.4432 608.2718 345.6345 608.4631C 346.3041 609.1327 346.9737 609.8979 347.6433 610.6632C 347.8346 610.8545 348.1216 610.8545 348.3129 610.7589C 348.5042 610.5676 348.5042 610.2806 348.4085 610.0892C 347.739 609.324 347.0693 608.5588 346.3997 607.8892C 346.2084 607.6979 346.1128 607.6979 346.0171 607.6979zM341.4256 603.7759C 341.2343 603.7759 341.1386 603.8716 341.043 603.9672C 340.8517 604.1586 340.9473 604.4455 341.1386 604.6368C 341.9039 605.2108 342.6691 605.8804 343.4344 606.4543C 343.6257 606.6456 343.9127 606.6456 344.104 606.3586C 344.2953 606.1674 344.2953 605.8804 344.0083 605.6891C 343.2431 605.0195 342.4778 604.3499 341.6169 603.7759C 341.7126 603.7759 341.5213 603.7759 341.4256 603.7759zM336.3558 600.6193C 336.1645 600.6193 335.9732 600.7149 335.9732 600.9063C 335.8775 601.0975 335.9732 601.3845 336.1645 601.5758C 337.0254 602.0541 337.8863 602.5324 338.7472 603.0107C 338.9385 603.1063 339.2255 603.1063 339.4168 602.8193C 339.5125 602.6281 339.5125 602.3411 339.2255 602.1498C 338.3646 601.5758 337.5037 601.0975 336.5471 600.6193C 336.5471 600.6193 336.4515 600.6193 336.3558 600.6193zM330.8077 598.2278C 330.6164 598.2278 330.4251 598.3235 330.3294 598.5148C 330.2338 598.8018 330.4251 598.9931 330.6164 599.0887C 331.573 599.3757 332.5295 599.7584 333.3904 600.141C 333.6774 600.2366 333.8687 600.141 334.0601 599.854C 334.2514 599.567 334.0601 599.3757 333.7731 599.1844C 332.9122 598.8018 331.9556 598.4192 330.9034 598.1322C 330.9034 598.2278 330.9034 598.2278 330.8077 598.2278zM325.0683 596.6017C 324.877 596.6017 324.6857 596.793 324.5901 596.9843C 324.4944 597.2713 324.6857 597.4626 324.9727 597.5582C 326.0249 597.7496 326.9815 598.0366 327.8424 598.3235C 328.1293 598.4192 328.3206 598.2278 328.4163 598.0366C 328.512 597.7496 328.3206 597.5582 328.1293 597.4626C 327.1728 597.1756 326.2162 596.9843 325.164 596.6973C 325.164 596.6017 325.0683 596.6017 325.0683 596.6017zM319.1376 595.4538C 318.9463 595.4538 318.6593 595.6451 318.6593 595.8364C 318.6593 596.1234 318.755 596.3147 319.042 596.4104C 319.9985 596.6017 321.0508 596.793 322.0073 596.9843C 322.2943 597.08 322.4856 596.8887 322.5813 596.6017C 322.6769 596.3147 322.4856 596.1234 322.1986 596.0278C 321.2421 595.8364 320.2855 595.6451 319.1376 595.4538C 319.2333 595.4538 319.2333 595.4538 319.1376 595.4538zM313.2069 594.5929C 313.0156 594.5929 312.7286 594.7842 312.7286 594.9755C 312.7286 595.2625 312.8243 595.4538 313.1113 595.5494L313.1113 595.5494L316.0766 596.0278C 316.3636 596.0278 316.5549 595.9321 316.6506 595.6451C 316.7462 595.3582 316.5549 595.1668 316.2679 595.0712L316.2679 595.0712L313.2069 594.5929C 313.3026 594.5929 313.3026 594.5929 313.2069 594.5929zM307.2762 593.6364C 307.0849 593.6364 306.8936 593.8276 306.7979 594.019C 306.7979 594.3059 306.8936 594.4973 307.1805 594.5929C 308.1371 594.7842 309.1893 594.9755 310.1459 595.0712C 310.4329 595.0712 310.6242 594.9755 310.7198 594.6885C 310.7198 594.4016 310.6242 594.2103 310.3372 594.1146C 309.3806 593.9233 308.4241 593.732 307.2762 593.6364C 307.3719 593.6364 307.3719 593.6364 307.2762 593.6364zM301.4412 592.2971C 301.2498 592.2971 301.0585 592.4885 300.9629 592.6797C 300.8672 592.9667 301.0585 593.158 301.3455 593.2537C 302.3021 593.5406 303.3543 593.732 304.3109 593.9233C 304.5978 594.019 304.7892 593.8276 304.8848 593.5406C 304.9805 593.2537 304.7892 593.0624 304.5022 592.9667C 303.5456 592.7754 302.5891 592.5841 301.6325 592.2971C 301.5368 592.2971 301.5368 592.2971 301.4412 592.2971zM295.7018 590.5753C 295.5105 590.5753 295.3192 590.671 295.2235 590.8623C 295.1278 591.1493 295.2235 591.3406 295.5105 591.4362C 296.467 591.8188 297.4236 592.1058 298.3802 592.3928C 298.6671 592.4885 298.8584 592.2971 298.9541 592.1058C 299.0497 591.8188 298.8584 591.6276 298.6671 591.5319C 297.7106 591.2449 296.754 590.9579 295.8931 590.5753C 295.7974 590.5753 295.7974 590.5753 295.7018 590.5753zM290.2494 588.0883C 290.058 588.0883 289.9624 588.1839 289.8667 588.3752C 289.7711 588.5665 289.8667 588.8535 290.058 589.0448C 290.9189 589.5231 291.8755 590.0014 292.7364 590.384C 293.0234 590.4797 293.2147 590.384 293.406 590.097C 293.5017 589.8101 293.406 589.6188 293.119 589.4274C 292.1625 589.0448 291.3016 588.5665 290.4407 588.0883C 290.4407 588.0883 290.345 588.0883 290.2494 588.0883zM285.2752 584.7403C 285.1795 584.7403 284.9883 584.8359 284.8926 584.9316C 284.7013 585.1229 284.7969 585.4099 284.9883 585.6012C 285.7535 586.2708 286.6144 586.8447 287.4753 587.4186C 287.6666 587.61 287.9536 587.5143 288.1449 587.323C 288.3362 587.1317 288.2406 586.8447 288.0493 586.6534C 287.1883 586.0795 286.4231 585.5055 285.6578 584.9316C 285.4665 584.8359 285.3708 584.7403 285.2752 584.7403zM281.162 580.4357C 281.0663 580.4357 280.9707 580.4357 280.875 580.5314C 280.6837 580.7227 280.588 581.0096 280.7794 581.201C 281.3533 581.9662 282.0229 582.8271 282.7881 583.4967C 282.9795 583.688 283.2664 583.688 283.4577 583.4967C 283.649 583.3054 283.649 583.0184 283.4577 582.8271C 282.7881 582.1575 282.1185 581.3923 281.5446 580.5314C 281.4489 580.5314 281.3533 580.4357 281.162 580.4357zM278.2923 575.1746C 278.1966 575.1746 278.1966 575.1746 278.101 575.1746C 277.814 575.2703 277.7183 575.5573 277.814 575.7485C 278.1966 576.7051 278.5793 577.6617 279.0575 578.5226C 279.1532 578.7139 279.4402 578.8096 279.7271 578.7139C 279.9184 578.6182 280.0141 578.3313 279.9184 578.0443C 279.4402 577.1834 279.0575 576.3225 278.6749 575.3659C 278.6749 575.2703 278.4836 575.1746 278.2923 575.1746z" stroke="none" fill="#040606" fill-rule="nonzero" /><path id="233" transform="matrix(1 0 0 -1 0 842)" d="M353.0001 617.3591C 352.9044 617.3591 352.9044 617.3591 352.8087 617.4548C 352.6174 617.5505 352.5218 617.8375 352.6174 618.1244C 352.8087 618.507 353.0001 618.9853 353.1913 619.3679C 353.287 619.6549 353.574 619.7505 353.861 619.6549C 354.1479 619.5593 354.2436 619.2723 354.1479 618.9853C 353.9566 618.507 353.7653 618.1244 353.574 617.6461C 353.287 617.4548 353.0957 617.3591 353.0001 617.3591z" stroke="none" fill="#040606" fill-rule="nonzero" /><path id="234" transform="matrix(1 0 0 -1 0 842)" d="M355.6784 619.1766C 355.6784 618.8596 355.6178 618.5545 355.4964 618.2615C 355.375 617.9685 355.2023 617.71 354.978 617.4856C 354.7537 617.2614 354.4951 617.0886 354.2021 616.9672C 353.9092 616.8459 353.6041 616.7852 353.287 616.7852C 352.9699 616.7852 352.6649 616.8459 352.3719 616.9672C 352.0789 617.0886 351.8202 617.2614 351.596 617.4856C 351.3718 617.71 351.199 617.9685 351.0776 618.2615C 350.9562 618.5545 350.8956 618.8596 350.8956 619.1766C 350.8956 619.4937 350.9562 619.7988 351.0776 620.0918C 351.199 620.3848 351.3718 620.6433 351.596 620.8677C 351.8202 621.0919 352.0789 621.2646 352.3719 621.386C 352.6649 621.5074 352.9699 621.5681 353.287 621.5681C 353.6041 621.5681 353.9092 621.5074 354.2021 621.386C 354.4951 621.2646 354.7537 621.0919 354.978 620.8677C 355.2023 620.6433 355.375 620.3848 355.4964 620.0918C 355.6178 619.7988 355.6784 619.4937 355.6784 619.1766z" stroke="none" fill="#040606" fill-rule="nonzero" /><path id="235" transform="matrix(1 0 0 -1 0 842)" d="M280.2054 559.8696C 280.2054 559.5525 280.1448 559.2474 280.0234 558.9544C 279.902 558.6614 279.7292 558.4028 279.505 558.1785C 279.2807 557.9543 279.0221 557.7816 278.7292 557.6602C 278.4362 557.5388 278.1311 557.4781 277.814 557.4781C 277.4969 557.4781 277.1918 557.5388 276.8988 557.6602C 276.6059 557.7816 276.3473 557.9543 276.123 558.1785C 275.8988 558.4028 275.726 558.6614 275.6046 558.9544C 275.4832 559.2474 275.4226 559.5525 275.4226 559.8696C 275.4226 560.1866 275.4832 560.4917 275.6046 560.7847C 275.726 561.0777 275.8988 561.3364 276.123 561.5605C 276.3473 561.7848 276.6059 561.9576 276.8988 562.0789C 277.1918 562.2003 277.4969 562.261 277.814 562.261C 278.1311 562.261 278.4362 562.2003 278.7292 562.0789C 279.0221 561.9576 279.2807 561.7848 279.505 561.5605C 279.7292 561.3364 279.902 561.0777 280.0234 560.7847C 280.1448 560.4917 280.2054 560.1866 280.2054 559.8696z" stroke="none" fill="#040606" fill-rule="nonzero" /></g></g></g></g><g clip-path="url(#53)"><g clip-path="url(#54)"><g clip-path="url(#55)"><g clip-path="url(#56)"><path id="236" transform="matrix(1 0 0 -1 0 842)" d="M239.8042 407.0995C 239.5717 407.1868 239.3829 407.3904 239.354 407.6666C 239.3398 408.3352 239.4418 408.9601 239.4277 409.6287C 239.4424 410.0212 239.7623 410.1664 240.0384 410.1953C 240.4308 410.1805 240.576 409.8607 240.6049 409.5845C 240.5029 408.9596 240.5607 408.4072 240.5749 407.7386C 240.5602 407.3462 240.3566 407.1573 239.9641 407.1721C 240.0367 407.0122 239.9205 407.0558 239.8042 407.0995z" stroke="none" fill="#040606" fill-rule="nonzero" /><path id="237" transform="matrix(1 0 0 -1 0 842)" d="M243.0814 420.0627C 242.7326 420.1937 242.6311 420.6298 242.7621 420.9785C 243.3587 422.2136 244.0279 423.2888 244.8133 424.3204C 245.0605 424.6255 245.3367 424.6544 245.6855 424.5234C 245.9906 424.2762 246.0195 424 245.8885 423.6512C 245.2193 422.576 244.5502 421.5008 243.9973 420.382C 243.75 420.0768 243.4302 419.9317 243.0814 420.0627zM240.4904 412.8112C 240.2579 412.8986 239.9965 413.2621 240.0838 413.4946C 240.2879 414.7445 240.7682 416.0233 241.1323 417.3457C 241.2633 417.6945 241.5832 417.8397 241.9319 417.7087C 242.2807 417.5777 242.4259 417.2578 242.2949 416.9091C 241.8582 415.7465 241.4941 414.4241 241.1737 413.2179C 241.2027 412.9417 240.9554 412.6366 240.4904 412.8112C 240.6066 412.7676 240.4904 412.8112 240.4904 412.8112z" stroke="none" fill="#040606" fill-rule="nonzero" /><path id="238" transform="matrix(1 0 0 -1 0 842)" d="M351.3889 438.9438C 351.2727 438.9875 351.1564 439.0311 351.0839 439.191C 350.9387 439.5109 350.9534 439.9033 351.2733 440.0485C 352.3201 440.7165 353.4106 441.5008 354.3849 442.3288C 354.5884 442.5176 354.9809 442.5029 355.286 442.2556C 355.4748 442.052 355.4601 441.6596 355.2128 441.3545C 354.2386 440.5266 353.148 439.7422 352.0575 438.958C 351.7377 438.8128 351.6215 438.8564 351.3889 438.9438zM344.6428 435.1102C 344.5266 435.1539 344.2941 435.2412 344.2215 435.4012C 344.0763 435.721 344.2073 436.0698 344.5271 436.2149C 345.6466 436.723 346.8097 437.3474 347.9728 437.9718C 348.2926 438.1169 348.6414 437.986 348.8302 437.7824C 348.9754 437.4625 348.8444 437.1138 348.6408 436.9249C 347.4777 436.3006 346.3146 435.6762 345.1952 435.1681C 344.8753 435.0229 344.7591 435.0666 344.6428 435.1102zM337.2724 432.4398C 337.0399 432.5271 336.9673 432.687 336.8947 432.8469C 336.7495 433.1668 336.9968 433.4719 337.3166 433.6171C 338.5086 433.9653 339.7443 434.4297 340.9363 434.7779C 341.2562 434.9231 341.6049 434.7921 341.7064 434.356C 341.8516 434.0361 341.7206 433.6874 341.2845 433.5859C 340.0488 433.1214 338.8131 432.657 337.5049 432.3524C 337.6211 432.3088 337.3886 432.3961 337.2724 432.4398zM329.6699 430.9177C 329.4374 431.005 329.2486 431.2086 329.3359 431.4411C 329.307 431.7173 329.5543 432.0224 329.8741 432.1675C 331.1387 432.3558 332.4033 432.5441 333.6679 432.7324C 333.9441 432.7613 334.2928 432.6303 334.3944 432.1942C 334.4233 431.918 334.2923 431.5693 333.8562 431.4678C 332.5479 431.1632 331.2833 430.9749 329.9024 430.8303C 329.9024 430.8303 329.7862 430.874 329.6699 430.9177zM321.8356 430.5439C 321.6031 430.6313 321.4142 430.8348 321.3853 431.111C 321.4001 431.5034 321.7199 431.6486 321.9961 431.6776C 323.2896 431.5897 324.6268 431.618 325.8477 431.69C 326.2402 431.6753 326.429 431.4717 326.5305 431.0356C 326.632 430.5995 326.3122 430.4543 325.8761 430.3528C 324.6552 430.2808 323.318 430.2524 321.9082 430.384C 321.9518 430.5002 321.9518 430.5002 321.8356 430.5439zM314.118 431.1876C 313.8855 431.2749 313.7404 431.5947 313.7114 431.8709C 313.7262 432.2633 314.046 432.4085 314.4384 432.3937C 315.8046 432.1459 317.0981 432.058 318.2754 432.0138C 318.6678 431.9991 318.813 431.6792 318.8419 431.4031C 318.8271 431.0106 318.5073 430.8655 318.2311 430.8365C 316.9376 430.9244 315.6877 431.1286 314.278 431.2601C 314.2343 431.1439 314.118 431.1876 314.118 431.1876zM306.3863 432.4998C 306.1538 432.5871 305.8924 432.9506 305.9797 433.1831C 306.1107 433.5319 306.3143 433.7207 306.7067 433.706C 307.9566 433.5018 309.3227 433.254 310.5726 433.0499C 310.965 433.0351 311.1102 432.7153 311.0954 432.3229C 311.0807 431.9304 310.7609 431.7852 310.3684 431.8C 309.1186 432.0042 307.8687 432.2083 306.3863 432.4998C 306.5026 432.4561 306.5026 432.4561 306.3863 432.4998zM298.7856 434.1608C 298.5531 434.2481 298.2916 434.6116 298.379 434.8441C 298.51 435.1929 298.7136 435.3817 299.106 435.3669L299.106 435.3669L302.9282 434.5946C 303.2769 434.4636 303.4658 434.26 303.451 433.8676C 303.4363 433.4752 303.1165 433.33 302.724 433.3447L302.724 433.3447L298.7856 434.1608C 298.9018 434.1171 298.9018 434.1171 298.7856 434.1608zM291.1412 435.7055C 290.9087 435.7928 290.7635 436.1127 290.7346 436.3888C 290.8656 436.7376 291.0692 436.9264 291.4616 436.9117C 292.7115 436.7076 294.0776 436.4597 295.2838 436.1393C 295.6325 436.0083 295.8214 435.8047 295.8066 435.4123C 295.6757 435.0635 295.472 434.8747 295.0797 434.8895C 293.8298 435.0936 292.5799 435.2978 291.1412 435.7055C 291.2574 435.6618 291.2574 435.6618 291.1412 435.7055zM283.4384 436.7415C 283.2059 436.8289 283.0607 437.1487 283.0318 437.4249C 283.0465 437.8173 283.3664 437.9625 283.7588 437.9478C 285.0523 437.8598 286.4185 437.612 287.6683 437.4079C 288.0607 437.3931 288.2059 437.0733 288.1912 436.6809C 288.1764 436.2885 287.8566 436.1432 287.4642 436.158C 286.2143 436.3622 284.9644 436.5663 283.6709 436.6542C 283.5546 436.6979 283.5546 436.6979 283.4384 436.7415zM275.6772 437.2689C 275.4447 437.3562 275.2558 437.5598 275.2269 437.836C 275.2416 438.2284 275.4452 438.4173 275.8376 438.4025C 277.1749 438.4309 278.4684 438.343 279.7619 438.2551C 280.1544 438.2404 280.2995 437.9205 280.3285 437.6443C 280.3137 437.2519 279.9939 437.1067 279.7177 437.0778C 278.4242 437.1657 277.1306 437.2536 275.9097 437.1816C 275.7934 437.2252 275.7934 437.2252 275.6772 437.2689zM267.9154 436.7352C 267.6829 436.8226 267.6103 436.9825 267.5814 437.2587C 267.5525 437.5349 267.7997 437.8399 268.1195 437.9851C 269.3842 438.1734 270.765 438.318 271.986 438.39C 272.3784 438.3753 272.5672 438.1717 272.6688 437.7356C 272.654 437.3432 272.4504 437.1543 272.0143 437.0528C 270.6771 437.0245 269.4125 436.8362 268.1479 436.6479C 268.1479 436.6479 268.0316 436.6916 267.9154 436.7352zM260.3419 434.937C 260.2256 434.9806 260.0368 435.1842 259.9642 435.3441C 259.819 435.664 260.0663 435.9691 260.3861 436.1143C 261.6218 436.5787 262.9301 436.8832 264.2384 437.1877C 264.5582 437.3329 264.8633 437.0857 265.0085 436.7658C 265.1537 436.446 264.9064 436.1409 264.5866 435.9957C 263.2783 435.6912 262.0863 435.343 260.8943 434.9948C 260.6181 434.9659 260.4582 434.8933 260.3419 434.937zM253.378 431.5832C 253.2618 431.6268 253.1455 431.6705 253.0729 431.8304C 252.9278 432.1503 252.9425 432.5427 253.2623 432.6879C 254.3092 433.3559 255.516 434.0965 256.7516 434.561C 257.0715 434.7061 257.4203 434.5751 257.5654 434.2553C 257.7106 433.9355 257.5796 433.5867 257.2598 433.4415C 256.1403 432.9334 254.9772 432.309 253.8867 431.5247C 253.7705 431.5684 253.6105 431.4958 253.378 431.5832zM247.4888 426.4992C 247.3726 426.5428 247.3726 426.5428 247.2563 426.5865C 246.9512 426.8337 246.9659 427.2262 247.1695 427.415C 248.0712 428.4029 248.9729 429.3908 249.9471 430.2187C 250.1507 430.4076 250.5432 430.3928 250.8483 430.1456C 251.0371 429.942 251.0223 429.5496 250.7751 429.2444C 249.8008 428.4165 248.9428 427.5449 248.0412 426.557C 247.9975 426.4408 247.7213 426.4118 247.4888 426.4992z" stroke="none" fill="#040606" fill-rule="nonzero" /><path id="239" transform="matrix(1 0 0 -1 0 842)" d="M357.5396 443.6643C 357.4233 443.7079 357.4233 443.7079 357.3507 443.8679C 357.1619 444.0714 357.1766 444.4639 357.4239 444.769C 357.8311 445.1467 358.2819 445.6406 358.6891 446.0183C 358.9363 446.3234 359.3287 446.3086 359.6339 446.0614C 359.9389 445.8141 359.9242 445.4217 359.6769 445.1166C 359.2261 444.6227 358.8189 444.245 358.3681 443.751C 357.932 443.6495 357.6558 443.6206 357.5396 443.6643z" stroke="none" fill="#040606" fill-rule="nonzero" /><path id="240" transform="matrix(1 0 0 -1 0 842)" d="M361.6243 444.6505C 361.4796 444.2651 361.2666 443.922 360.9854 443.6214C 360.7041 443.3207 360.3761 443.0853 360.0012 442.915C 359.6263 442.7449 359.2332 442.653 358.8217 442.6393C 358.4102 442.6255 358.0117 442.691 357.6263 442.8358C 357.241 442.9805 356.8979 443.1935 356.5973 443.4747C 356.2966 443.756 356.0611 444.084 355.8909 444.4589C 355.7208 444.8339 355.6289 445.227 355.6151 445.6385C 355.6013 446.05 355.6669 446.4484 355.8116 446.8337C 355.9564 447.2191 356.1694 447.5622 356.4506 447.8629C 356.7319 448.1635 357.0599 448.3989 357.4348 448.5692C 357.8096 448.7393 358.2029 448.8312 358.6143 448.845C 359.0258 448.8588 359.4243 448.7932 359.8096 448.6485C 360.195 448.5037 360.5381 448.2907 360.8387 448.0095C 361.1394 447.7282 361.3748 447.4002 361.545 447.0253C 361.7151 446.6504 361.8071 446.2573 361.8209 445.8458C 361.8347 445.4343 361.7691 445.0359 361.6243 444.6505z" stroke="none" fill="#040606" fill-rule="nonzero" /><path id="241" transform="matrix(1 0 0 -1 0 842)" d="M242.8274 407.0252C 242.6826 406.6399 242.4697 406.2968 242.1884 405.9961C 241.9072 405.6954 241.5791 405.4601 241.2042 405.2898C 240.8293 405.1197 240.4362 405.0278 240.0247 405.014C 239.6132 405.0002 239.2148 405.0658 238.8294 405.2105C 238.444 405.3553 238.101 405.5682 237.8003 405.8495C 237.4996 406.1308 237.2642 406.4588 237.094 406.8336C 236.9239 407.2086 236.8319 407.6017 236.8182 408.0132C 236.8044 408.4247 236.8699 408.8231 237.0147 409.2085C 237.1595 409.5939 237.3724 409.937 237.6537 410.2376C 237.9349 410.5383 238.263 410.7738 238.6379 410.9439C 239.0127 411.114 239.4059 411.206 239.8174 411.2197C 240.2289 411.2335 240.6273 411.168 241.0127 411.0232C 241.3981 410.8785 241.7411 410.6655 242.0418 410.3842C 242.3425 410.103 242.5779 409.775 242.7481 409.4001C 242.9182 409.0253 243.0102 408.632 243.0239 408.2206C 243.0377 407.809 242.9721 407.4106 242.8274 407.0252z" stroke="none" fill="#040606" fill-rule="nonzero" /></g></g></g></g><g clip-path="url(#57)"><g clip-path="url(#58)"><g clip-path="url(#59)"><g clip-path="url(#60)"><path id="242" transform="matrix(1 0 0 -1 0 842)" d="M335.4564 248.1815C 335.257 248.2252 335.0794 248.3686 335.0234 248.5898C 334.9332 249.1321 334.9428 249.6525 334.8526 250.1948C 334.8185 250.5157 335.0616 250.6714 335.2829 250.7274C 335.6039 250.7616 335.7596 250.5185 335.8156 250.2972C 335.806 249.7768 335.918 249.3343 336.0082 248.792C 336.0423 248.471 335.8989 248.2935 335.5779 248.2593C 335.6558 248.1378 335.5561 248.1596 335.4564 248.1815z" stroke="none" fill="#040606" fill-rule="nonzero" /><path id="243" transform="matrix(1 0 0 -1 0 842)" d="M336.5981 259.1125C 336.299 259.1781 336.1651 259.5209 336.2307 259.8201C 336.5708 260.895 336.9887 261.8484 337.5064 262.7799C 337.6716 263.0572 337.8929 263.1132 338.192 263.0476C 338.4693 262.8824 338.5253 262.6611 338.4597 262.362C 338.0418 261.4086 337.6239 260.4552 337.3056 259.48C 337.1404 259.2027 336.8972 259.047 336.5981 259.1125zM335.343 252.9088C 335.1435 252.9525 334.8881 253.2174 334.9318 253.4168C 334.9509 254.4576 335.1913 255.5544 335.332 256.6731C 335.3975 256.9722 335.6407 257.1279 335.9398 257.0624C 336.2389 256.9968 336.3946 256.7537 336.3291 256.4546C 336.1105 255.4575 335.9698 254.3388 335.851 253.3199C 335.907 253.0986 335.7418 252.8213 335.343 252.9088C 335.4427 252.8869 335.343 252.9088 335.343 252.9088z" stroke="none" fill="#040606" fill-rule="nonzero" /><path id="244" transform="matrix(1 0 0 -1 0 842)" d="M422.4879 287.2083C 422.3882 287.2301 422.2885 287.252 422.2106 287.3735C 422.0549 287.6167 422.0208 287.9376 422.2639 288.0934C 423.037 288.7599 423.8319 289.5262 424.5271 290.3143C 424.6705 290.4919 424.9915 290.526 425.2688 290.3607C 425.4464 290.2173 425.4805 289.8963 425.3152 289.6191C 424.62 288.831 423.8251 288.0647 423.0302 287.2984C 422.787 287.1427 422.6873 287.1646 422.4879 287.2083zM417.4506 283.2964C 417.3509 283.3182 417.1515 283.3619 417.0736 283.4835C 416.9179 283.7266 416.9835 284.0257 417.2266 284.1814C 418.0775 284.7264 418.9503 285.3711 419.8231 286.0158C 420.0662 286.1715 420.3654 286.106 420.5429 285.9626C 420.6986 285.7195 420.6331 285.4203 420.4897 285.2427C 419.6169 284.5981 418.7441 283.9533 417.8932 283.4084C 417.65 283.2526 417.5503 283.2745 417.4506 283.2964zM411.7686 280.2572C 411.5692 280.3009 411.4913 280.4225 411.4135 280.544C 411.2578 280.7872 411.423 281.0644 411.6662 281.2202C 412.595 281.6436 413.5456 282.1667 414.4744 282.5901C 414.7175 282.7458 415.0166 282.6803 415.1505 282.3375C 415.3062 282.0944 415.2407 281.7952 414.8978 281.6614C 413.9472 281.1382 412.9966 280.6151 411.968 280.2135C 412.0677 280.1917 411.8683 280.2354 411.7686 280.2572zM405.7629 278.125C 405.5635 278.1687 405.3859 278.3121 405.4296 278.5115C 405.3736 278.7328 405.5389 279.0101 405.782 279.1658C 406.7887 279.4677 407.7953 279.7695 408.8019 280.0714C 409.0232 280.1274 409.3224 280.0619 409.4562 279.719C 409.5122 279.4977 409.4467 279.1986 409.1038 279.0648C 408.0753 278.6632 407.0687 278.3613 405.9623 278.0813C 405.9623 278.0813 405.8626 278.1031 405.7629 278.125zM399.4335 276.8997C 399.2341 276.9435 399.0565 277.0869 399.0005 277.3081C 398.9663 277.6291 399.2095 277.7848 399.4307 277.8408C 400.4934 277.9214 401.5779 278.1017 402.5627 278.3039C 402.8836 278.338 403.0612 278.1946 403.1951 277.8518C 403.3289 277.509 403.0858 277.3533 402.743 277.2194C 401.7582 277.0172 400.6737 276.8369 399.5113 276.7782C 399.5332 276.8779 399.5332 276.8779 399.4335 276.8997zM393.0794 276.5158C 392.88 276.5596 392.7243 276.8027 392.6683 277.024C 392.6342 277.3449 392.8773 277.5006 393.1982 277.5348C 394.3387 277.4938 395.4014 277.5744 396.3643 277.6769C 396.6853 277.711 396.841 277.4679 396.897 277.2466C 396.9312 276.9257 396.6881 276.77 396.4668 276.7139C 395.4041 276.6333 394.3633 276.6525 393.201 276.5937C 393.1791 276.494 393.0794 276.5158 393.0794 276.5158zM386.6353 276.6742C 386.4358 276.7179 386.1804 276.9829 386.2241 277.1823C 386.2897 277.4814 386.4331 277.659 386.7541 277.6931C 387.7949 277.674 388.9354 277.6331 389.9762 277.614C 390.2971 277.6481 390.4529 277.405 390.487 277.084C 390.5211 276.763 390.278 276.6073 389.9571 276.5732C 388.9163 276.5923 387.8755 276.6114 386.6353 276.6742C 386.735 276.6523 386.735 276.6523 386.6353 276.6742zM380.2566 277.1317C 380.0572 277.1754 379.8018 277.4404 379.8455 277.6398C 379.911 277.9389 380.0545 278.1165 380.3754 278.1506L380.3754 278.1506L383.5757 277.9717C 383.8748 277.9062 384.0524 277.7628 384.0865 277.4418C 384.1207 277.1208 383.8776 276.9651 383.5566 276.931L383.5566 276.931L380.2566 277.1317C 380.3563 277.1098 380.3563 277.1098 380.2566 277.1317zM373.8561 277.4895C 373.6567 277.5332 373.501 277.7763 373.445 277.9976C 373.5106 278.2967 373.654 278.4743 373.9749 278.5084C 375.0157 278.4893 376.1563 278.4483 377.1752 278.3295C 377.4743 278.264 377.6519 278.1205 377.686 277.7996C 377.6205 277.5004 377.4771 277.3229 377.1561 277.2887C 376.1153 277.3078 375.0745 277.327 373.8561 277.4895C 373.9558 277.4676 373.9558 277.4676 373.8561 277.4895zM367.468 277.4266C 367.2685 277.4703 367.1128 277.7134 367.0568 277.9347C 367.0227 278.2556 367.2658 278.4113 367.5868 278.4455C 368.6494 278.5261 369.7899 278.4851 370.8307 278.466C 371.1517 278.5002 371.3074 278.257 371.3416 277.9361C 371.3757 277.6151 371.1326 277.4594 370.8116 277.4252C 369.7708 277.4443 368.73 277.4634 367.6674 277.3828C 367.5677 277.4047 367.5677 277.4047 367.468 277.4266zM361.0921 276.943C 360.8926 276.9867 360.7151 277.1301 360.6591 277.3513C 360.6249 277.6723 360.7683 277.8499 361.0893 277.884C 362.1738 278.0644 363.2365 278.145 364.2991 278.2256C 364.6201 278.2597 364.7758 278.0166 364.8318 277.7953C 364.866 277.4743 364.6228 277.3186 364.4016 277.2626C 363.3389 277.182 362.2763 277.1014 361.2915 276.8993C 361.1918 276.9211 361.1918 276.9211 361.0921 276.943zM354.8405 275.5961C 354.6411 275.6398 354.5632 275.7614 354.5072 275.9827C 354.4512 276.2039 354.6165 276.4812 354.8596 276.6369C 355.8662 276.9388 356.9726 277.2188 357.9574 277.421C 358.2784 277.4551 358.4559 277.3117 358.5898 276.9689C 358.6239 276.6479 358.4805 276.4703 358.1377 276.3365C 357.0532 276.1562 356.0465 275.8543 355.0399 275.5524C 355.0399 275.5524 354.9402 275.5743 354.8405 275.5961zM348.8908 273.2427C 348.7911 273.2645 348.6135 273.4079 348.5356 273.5295C 348.3799 273.7726 348.5452 274.0499 348.7883 274.2056C 349.739 274.7287 350.7675 275.1303 351.796 275.5319C 352.0391 275.6876 352.3163 275.5223 352.4721 275.2792C 352.6278 275.0361 352.4625 274.7588 352.2194 274.6031C 351.1909 274.2015 350.2621 273.7781 349.3333 273.3547C 349.1121 273.2986 348.9905 273.2208 348.8908 273.2427zM343.6199 269.6954C 343.5202 269.7173 343.4205 269.7391 343.3427 269.8607C 343.1869 270.1038 343.1528 270.4248 343.3959 270.5805C 344.169 271.2471 345.0636 271.9915 346.0143 272.5146C 346.2574 272.6703 346.5565 272.6048 346.7122 272.3616C 346.8679 272.1185 346.8024 271.8194 346.5593 271.6637C 345.7083 271.1187 344.8355 270.474 344.0406 269.7077C 343.9409 269.7296 343.8193 269.6517 343.6199 269.6954zM339.4268 264.867C 339.3271 264.8889 339.3271 264.8889 339.2273 264.9107C 338.9501 265.076 338.9159 265.397 339.0593 265.5745C 339.6767 266.4842 340.294 267.3939 340.9893 268.182C 341.1327 268.3596 341.4537 268.3937 341.7309 268.2285C 341.9085 268.085 341.9427 267.764 341.7774 267.4868C 341.0822 266.6987 340.4867 265.8887 339.8693 264.979C 339.8474 264.8793 339.6262 264.8233 339.4268 264.867z" stroke="none" fill="#040606" fill-rule="nonzero" /><path id="245" transform="matrix(1 0 0 -1 0 842)" d="M426.9365 291.7717C 426.8368 291.7935 426.8368 291.7935 426.7589 291.9151C 426.5814 292.0585 426.5472 292.3795 426.7125 292.6568C 426.9993 293.0119 427.308 293.4668 427.5948 293.8219C 427.7601 294.0992 428.0811 294.1333 428.3583 293.968C 428.6356 293.8028 428.6698 293.4818 428.5045 293.2045C 428.1958 292.7497 427.909 292.3946 427.6003 291.9397C 427.2574 291.8058 427.0362 291.7498 426.9365 291.7717z" stroke="none" fill="#040606" fill-rule="nonzero" /><path id="246" transform="matrix(1 0 0 -1 0 842)" d="M430.1435 293.0543C 430.0711 292.7238 429.9382 292.4196 429.7447 292.142C 429.5513 291.8643 429.3121 291.6342 429.0272 291.4517C 428.7421 291.2692 428.4331 291.1482 428.1 291.0886C 427.7668 291.029 427.4351 291.0355 427.1045 291.1079C 426.774 291.1803 426.4698 291.3132 426.1922 291.5067C 425.9145 291.7002 425.6844 291.9393 425.5018 292.2243C 425.3194 292.5093 425.1984 292.8183 425.1388 293.1514C 425.0792 293.4846 425.0856 293.8164 425.1581 294.1469C 425.2305 294.4775 425.3634 294.7816 425.5569 295.0593C 425.7504 295.3369 425.9895 295.567 426.2745 295.7496C 426.5594 295.9321 426.8685 296.0531 427.2016 296.1127C 427.5348 296.1722 427.8666 296.1658 428.1971 296.0934C 428.5277 296.0209 428.8318 295.888 429.1095 295.6945C 429.3871 295.5011 429.6172 295.2619 429.7998 294.977C 429.9822 294.6919 430.1033 294.3829 430.1628 294.0498C 430.2224 293.7167 430.216 293.3848 430.1435 293.0543z" stroke="none" fill="#040606" fill-rule="nonzero" /><path id="247" transform="matrix(1 0 0 -1 0 842)" d="M337.9245 248.4765C 337.8521 248.146 337.7191 247.8419 337.5257 247.5642C 337.3322 247.2865 337.0931 247.0565 336.8081 246.8739C 336.5231 246.6914 336.2141 246.5704 335.881 246.5108C 335.5479 246.4512 335.216 246.4577 334.8855 246.5301C 334.5549 246.6026 334.2508 246.7355 333.9731 246.9289C 333.6955 247.1224 333.4654 247.3615 333.2828 247.6465C 333.1003 247.9315 332.9793 248.2405 332.9197 248.5737C 332.8602 248.9068 332.8666 249.2386 332.9391 249.5692C 333.0115 249.8997 333.1444 250.2038 333.3379 250.4815C 333.5313 250.7592 333.7705 250.9893 334.0555 251.1718C 334.3404 251.3543 334.6495 251.4753 334.9826 251.5349C 335.3157 251.5945 335.6476 251.588 335.9781 251.5156C 336.3087 251.4431 336.6128 251.3102 336.8904 251.1168C 337.1681 250.9233 337.3982 250.6841 337.5807 250.3992C 337.7632 250.1142 337.8842 249.8051 337.9438 249.472C 338.0034 249.1389 337.9969 248.8071 337.9245 248.4765z" stroke="none" fill="#040606" fill-rule="nonzero" /></g></g></g></g><g clip-path="url(#61)"><g clip-path="url(#62)"><g clip-path="url(#63)"><g clip-path="url(#64)"><path id="248" transform="matrix(1 0 0 -1 0 842)" d="M344.0473 485.2451C 344.1433 485.065 344.1493 484.8368 344.0172 484.6507C 343.6628 484.2305 343.2605 483.9003 342.9061 483.48C 342.6839 483.2459 342.4077 483.33 342.2216 483.4622C 341.9875 483.6844 342.0716 483.9606 342.2037 484.1467C 342.6061 484.4768 342.8704 484.8491 343.2247 485.2693C 343.4469 485.5034 343.6751 485.5094 343.9092 485.2872C 343.9513 485.4253 343.9993 485.3352 344.0473 485.2451z" stroke="none" fill="#040606" fill-rule="nonzero" /><path id="249" transform="matrix(1 0 0 -1 0 842)" d="M334.9855 479.0262C 335.1295 478.756 334.9554 478.4318 334.6851 478.2877C 333.6463 477.8496 332.6495 477.5496 331.6047 477.3396C 331.2864 477.2856 331.1003 477.4177 330.9562 477.688C 330.9023 478.0062 331.0344 478.1923 331.3046 478.3364C 332.3014 478.6364 333.2982 478.9365 334.247 479.3266C 334.5652 479.3806 334.8414 479.2964 334.9855 479.0262zM340.5221 482.0935C 340.6182 481.9133 340.5821 481.5471 340.4019 481.451C 339.5972 480.7907 338.6064 480.2625 337.6636 479.6442C 337.3933 479.5001 337.1172 479.5842 336.9731 479.8545C 336.829 480.1247 336.9131 480.4009 337.1834 480.5449C 338.0841 481.0251 339.0269 481.6434 339.8797 482.2137C 340.0118 482.3998 340.33 482.4538 340.5221 482.0935C 340.4741 482.1835 340.5221 482.0935 340.5221 482.0935z" stroke="none" fill="#040606" fill-rule="nonzero" /><path id="250" transform="matrix(1 0 0 -1 0 842)" d="M257.9032 526.1932C 257.9512 526.1031 257.9992 526.0131 257.9572 525.8749C 257.873 525.5988 257.6508 525.3646 257.3746 525.4487C 256.3659 525.605 255.2671 525.7133 254.2164 525.7316C 253.9882 525.7256 253.7541 525.9478 253.7001 526.2661C 253.6941 526.4942 253.9163 526.7283 254.2346 526.7823C 255.2853 526.7641 256.3841 526.6558 257.4829 526.5475C 257.7591 526.4634 257.8071 526.3734 257.9032 526.1932zM264.1476 524.8951C 264.1956 524.8051 264.2916 524.6249 264.2495 524.4868C 264.1654 524.2106 263.8952 524.0665 263.619 524.1506C 262.6523 524.4451 261.5956 524.6914 260.5389 524.9378C 260.2627 525.0219 260.1187 525.2921 260.1127 525.5203C 260.1968 525.7965 260.467 525.9406 260.6952 525.9465C 261.7519 525.7001 262.8087 525.4537 263.7753 525.1594C 264.0515 525.0753 264.0995 524.9852 264.1476 524.8951zM270.1455 522.5403C 270.2416 522.3601 270.1995 522.222 270.1575 522.0839C 270.0734 521.8077 269.7551 521.7538 269.4789 521.8379C 268.5543 522.2703 267.5396 522.6548 266.615 523.0873C 266.3388 523.1714 266.1948 523.4417 266.369 523.7659C 266.4531 524.0421 266.7233 524.1861 267.0475 524.0119C 268.0622 523.6274 269.0769 523.243 270.0495 522.7204C 270.0015 522.8105 270.0975 522.6303 270.1455 522.5403zM275.663 519.3509C 275.7591 519.1708 275.765 518.9426 275.5849 518.8466C 275.4528 518.6604 275.1345 518.6064 274.8583 518.6906C 273.9758 519.2611 273.0932 519.8317 272.2107 520.4023C 272.0246 520.5344 271.8805 520.8047 272.0547 521.1288C 272.1868 521.3149 272.4571 521.459 272.7813 521.2849C 273.7539 520.7623 274.6364 520.1917 275.567 519.531C 275.567 519.531 275.615 519.441 275.663 519.3509zM280.7 515.327C 280.7961 515.1469 280.802 514.9187 280.6699 514.7325C 280.4477 514.4984 280.1715 514.5825 279.9854 514.7147C 279.235 515.4714 278.3945 516.1801 277.602 516.7986C 277.3679 517.0209 277.3619 517.249 277.5361 517.5732C 277.7103 517.8975 277.9865 517.8134 278.3107 517.6392C 279.1031 517.0205 279.9436 516.3119 280.7421 515.4651C 280.652 515.4171 280.652 515.4171 280.7 515.327zM285.1124 510.7388C 285.2085 510.5587 285.1244 510.2825 284.9922 510.0963C 284.77 509.8622 284.4938 509.9463 284.2597 510.1685C 283.5513 511.0633 282.8009 511.82 282.0985 512.4866C 281.8644 512.7089 281.9485 512.985 282.0806 513.1711C 282.3029 513.4053 282.579 513.3212 282.7652 513.189C 283.5156 512.4324 284.1759 511.6276 284.9743 510.7809C 285.0644 510.8289 285.1124 510.7388 285.1124 510.7388zM289.1705 505.7303C 289.2666 505.5502 289.2305 505.1839 289.0503 505.0879C 288.7801 504.9438 288.5519 504.9379 288.3178 505.1601C 287.6574 505.9648 286.9491 506.8596 286.2888 507.6643C 286.0546 507.8865 286.1387 508.1627 286.3609 508.3969C 286.5831 508.631 286.8593 508.5468 287.0935 508.3246C 287.7538 507.5199 288.4141 506.7152 289.1705 505.7303C 289.1225 505.8204 289.1225 505.8204 289.1705 505.7303zM292.9584 500.5779C 293.0544 500.3977 293.0183 500.0314 292.8382 499.9354C 292.5679 499.7913 292.3398 499.7854 292.1057 500.0076L292.1057 500.0076L290.1667 502.5598C 290.0226 502.83 290.0167 503.0582 290.2389 503.2924C 290.4611 503.5265 290.7372 503.4424 290.9714 503.2202L290.9714 503.2202L292.9584 500.5779C 292.9103 500.6679 292.9103 500.6679 292.9584 500.5779zM296.8363 495.4734C 296.9323 495.2932 296.8482 495.017 296.7161 494.8309C 296.4459 494.6869 296.2177 494.6809 295.9836 494.9031C 295.3232 495.7078 294.6149 496.6026 294.0446 497.4554C 293.9005 497.7256 293.8946 497.9537 294.1168 498.1879C 294.387 498.3319 294.6152 498.3379 294.8493 498.1157C 295.5097 497.311 296.17 496.5063 296.8363 495.4734C 296.7883 495.5634 296.7883 495.5634 296.8363 495.4734zM301.0265 490.651C 301.1226 490.4709 301.0385 490.1947 300.9063 490.0086C 300.6841 489.7744 300.4079 489.8586 300.1738 490.0808C 299.4234 490.8375 298.715 491.7322 298.0547 492.537C 297.8205 492.7592 297.9046 493.0354 298.1269 493.2695C 298.3491 493.5036 298.6252 493.4195 298.8594 493.1973C 299.5197 492.3926 300.1801 491.5879 300.9305 490.8312C 300.9785 490.7411 300.9785 490.7411 301.0265 490.651zM305.529 486.1108C 305.6251 485.9307 305.631 485.7025 305.4989 485.5164C 305.2767 485.2823 305.0485 485.2763 304.8144 485.4985C 303.9739 486.2072 303.2234 486.9639 302.4731 487.7206C 302.2389 487.9428 302.323 488.219 302.4552 488.4051C 302.6774 488.6393 302.9536 488.5551 303.1397 488.423C 303.8901 487.6663 304.6405 486.9096 305.433 486.291C 305.481 486.2009 305.481 486.2009 305.529 486.1108zM310.608 482.225C 310.7041 482.0449 310.662 481.9068 310.5299 481.7207C 310.3978 481.5346 310.0795 481.4806 309.8033 481.5647C 308.9208 482.1353 307.9902 482.796 307.1978 483.4146C 306.9636 483.6368 306.9576 483.8649 307.1318 484.1891C 307.354 484.4233 307.5822 484.4292 307.9064 484.255C 308.7469 483.5464 309.6295 482.9758 310.512 482.4052C 310.512 482.4052 310.56 482.3151 310.608 482.225zM316.2577 479.2218C 316.3057 479.1317 316.3116 478.9036 316.2696 478.7654C 316.1855 478.4893 315.8672 478.4353 315.5911 478.5194C 314.5764 478.9039 313.6038 479.4264 312.6311 479.949C 312.3549 480.0331 312.301 480.3513 312.3851 480.6275C 312.4692 480.9037 312.7874 480.9577 313.0636 480.8736C 314.0362 480.351 314.9608 479.9185 315.8854 479.4861C 316.0716 479.3539 316.2097 479.3119 316.2577 479.2218zM322.3759 477.5094C 322.4239 477.4193 322.4719 477.3293 322.4299 477.1912C 322.3458 476.915 322.1235 476.6808 321.8474 476.765C 320.8386 476.9213 319.6918 477.1196 318.6772 477.5041C 318.4009 477.5882 318.2569 477.8584 318.341 478.1346C 318.4251 478.4108 318.6953 478.5549 318.9715 478.4707C 319.9382 478.1764 320.9949 477.93 322.0937 477.8217C 322.1418 477.7316 322.2798 477.6896 322.3759 477.5094zM328.7706 477.4482C 328.8186 477.3581 328.8186 477.3581 328.8666 477.268C 328.9206 476.9498 328.6984 476.7157 328.4702 476.7097C 327.3774 476.5898 326.2846 476.4699 325.2338 476.4881C 325.0056 476.4822 324.7715 476.7044 324.7175 477.0226C 324.7115 477.2508 324.9338 477.4849 325.252 477.5389C 326.3028 477.5207 327.3055 477.5926 328.3984 477.7125C 328.4884 477.7605 328.6746 477.6284 328.7706 477.4482z" stroke="none" fill="#040606" fill-rule="nonzero" /><path id="251" transform="matrix(1 0 0 -1 0 842)" d="M251.5446 526.6207C 251.5926 526.5306 251.5926 526.5306 251.5505 526.3925C 251.5565 526.1644 251.3343 525.9302 251.016 525.8762C 250.5597 525.8643 250.0133 525.8044 249.5569 525.7924C 249.2387 525.7385 249.0045 525.9607 248.9506 526.2789C 248.8966 526.5972 249.1188 526.8313 249.437 526.8853C 249.9835 526.9452 250.4398 526.9572 250.9862 527.0171C 251.3104 526.8429 251.4965 526.7108 251.5446 526.6207z" stroke="none" fill="#040606" fill-rule="nonzero" /><path id="252" transform="matrix(1 0 0 -1 0 842)" d="M248.4886 528.2304C 248.7872 528.3896 249.1049 528.4857 249.4417 528.5184C 249.7786 528.5512 250.1087 528.5183 250.4325 528.4198C 250.7563 528.3211 251.0488 528.1644 251.3101 527.9494C 251.5715 527.7344 251.7818 527.4776 251.9409 527.179C 252.1001 526.8804 252.1962 526.5627 252.2289 526.2259C 252.2617 525.889 252.2289 525.5588 252.1303 525.235C 252.0316 524.9113 251.8749 524.6188 251.6599 524.3575C 251.4449 524.0961 251.1881 523.8859 250.8895 523.7267C 250.5909 523.5675 250.2732 523.4714 249.9364 523.4387C 249.5996 523.4059 249.2694 523.4388 248.9456 523.5373C 248.6219 523.6359 248.3294 523.7927 248.068 524.0077C 247.8066 524.2227 247.5964 524.4795 247.4372 524.7781C 247.278 525.0767 247.182 525.3943 247.1492 525.7312C 247.1164 526.0681 247.1493 526.3983 247.2478 526.722C 247.3465 527.0458 247.5033 527.3383 247.7182 527.5996C 247.9332 527.861 248.19 528.0712 248.4886 528.2304z" stroke="none" fill="#040606" fill-rule="nonzero" /><path id="253" transform="matrix(1 0 0 -1 0 842)" d="M342.2223 486.9327C 342.5209 487.0919 342.8386 487.1879 343.1754 487.2207C 343.5122 487.2535 343.8424 487.2206 344.1662 487.122C 344.4899 487.0234 344.7824 486.8666 345.0438 486.6517C 345.3052 486.4367 345.5154 486.1799 345.6746 485.8813C 345.8338 485.5827 345.9298 485.265 345.9626 484.9282C 345.9954 484.5914 345.9625 484.2611 345.864 483.9374C 345.7653 483.6136 345.6086 483.3211 345.3936 483.0598C 345.1786 482.7984 344.9218 482.5881 344.6232 482.429C 344.3246 482.2698 344.0069 482.1738 343.6701 482.141C 343.3333 482.1082 343.003 482.1411 342.6793 482.2397C 342.3556 482.3383 342.063 482.4951 341.8017 482.71C 341.5403 482.925 341.33 483.1818 341.1709 483.4804C 341.0117 483.779 340.9156 484.0967 340.8829 484.4335C 340.8501 484.7703 340.883 485.1006 340.9815 485.4243C 341.0801 485.748 341.2369 486.0406 341.4519 486.3019C 341.6669 486.5633 341.9237 486.7736 342.2223 486.9327z" stroke="none" fill="#040606" fill-rule="nonzero" /></g></g></g></g><g clip-path="url(#65)"><g clip-path="url(#66)"><g clip-path="url(#67)"><g clip-path="url(#68)"><path id="254" transform="matrix(1 0 0 -1 0 842)" d="M383.7614 339.095C 383.8808 338.8709 383.8882 338.587 383.7239 338.3555C 383.2831 337.8327 382.7825 337.422 382.3417 336.8992C 382.0653 336.6079 381.7217 336.7126 381.4902 336.877C 381.1989 337.1534 381.3036 337.4969 381.468 337.7285C 381.9685 338.1392 382.2972 338.6023 382.738 339.1251C 383.0145 339.4163 383.2983 339.4237 383.5895 339.1473C 383.6419 339.3191 383.7016 339.207 383.7614 339.095z" stroke="none" fill="#040606" fill-rule="nonzero" /><path id="255" transform="matrix(1 0 0 -1 0 842)" d="M372.4884 331.3586C 372.6676 331.0225 372.4509 330.6191 372.1147 330.4399C 370.8224 329.8949 369.5824 329.5216 368.2827 329.2604C 367.8867 329.1933 367.6552 329.3577 367.476 329.6938C 367.4089 330.0897 367.5732 330.3213 367.9094 330.5005C 369.1494 330.8737 370.3894 331.2469 371.5697 331.7323C 371.9656 331.7994 372.3092 331.6948 372.4884 331.3586zM379.376 335.1743C 379.4955 334.9502 379.4506 334.4945 379.2265 334.3751C 378.2254 333.5536 376.9928 332.8965 375.8199 332.1274C 375.4838 331.9482 375.1402 332.0528 374.961 332.3889C 374.7818 332.7251 374.8864 333.0687 375.2226 333.2479C 376.3431 333.8453 377.516 334.6144 378.5768 335.3238C 378.7411 335.5554 379.1371 335.6225 379.376 335.1743C 379.3163 335.2863 379.376 335.1743 379.376 335.1743z" stroke="none" fill="#040606" fill-rule="nonzero" /><path id="256" transform="matrix(1 0 0 -1 0 842)" d="M276.5977 390.0345C 276.6575 389.9225 276.7172 389.8104 276.6649 389.6386C 276.5602 389.295 276.2838 389.0038 275.9402 389.1084C 274.6854 389.3029 273.3185 389.4376 272.0113 389.4602C 271.7275 389.4528 271.4362 389.7292 271.369 390.1251C 271.3616 390.409 271.6381 390.7002 272.034 390.7674C 273.3411 390.7447 274.708 390.61 276.075 390.4753C 276.4185 390.3707 276.4782 390.2586 276.5977 390.0345zM284.3658 388.4197C 284.4255 388.3076 284.545 388.0835 284.4926 387.9117C 284.388 387.5681 284.0518 387.3889 283.7083 387.4936C 282.5057 387.8598 281.1912 388.1663 279.8766 388.4728C 279.533 388.5774 279.3538 388.9136 279.3464 389.1974C 279.451 389.541 279.7872 389.7202 280.071 389.7276C 281.3856 389.4211 282.7002 389.1146 283.9027 388.7484C 284.2463 388.6438 284.306 388.5317 284.3658 388.4197zM291.8273 385.4902C 291.9467 385.2661 291.8944 385.0944 291.8421 384.9225C 291.7375 384.579 291.3416 384.5118 290.998 384.6165C 289.8478 385.1545 288.5855 385.6328 287.4353 386.1708C 287.0917 386.2754 286.9125 386.6116 287.1292 387.0149C 287.2339 387.3585 287.57 387.5377 287.9733 387.321C 289.2356 386.8427 290.4979 386.3644 291.7078 385.7144C 291.6481 385.8264 291.7675 385.6023 291.8273 385.4902zM298.6911 381.5226C 298.8105 381.2986 298.818 381.0147 298.5938 380.8952C 298.4295 380.6637 298.0336 380.5966 297.69 380.7012C 296.5921 381.411 295.4942 382.1208 294.3963 382.8306C 294.1648 382.995 293.9856 383.3311 294.2023 383.7345C 294.3666 383.966 294.7028 384.1452 295.1061 383.9285C 296.3161 383.2784 297.414 382.5686 298.5716 381.7468C 298.5716 381.7468 298.6313 381.6347 298.6911 381.5226zM304.9571 376.5169C 305.0766 376.2928 305.084 376.009 304.9196 375.7774C 304.6432 375.4862 304.2996 375.5908 304.0681 375.7552C 303.1346 376.6965 302.089 377.5781 301.1031 378.3477C 300.8119 378.6241 300.8045 378.9079 301.0211 379.3112C 301.2379 379.7146 301.5814 379.6099 301.9847 379.3932C 302.9706 378.6237 304.0161 377.7421 305.0094 376.6887C 304.8973 376.629 304.8973 376.629 304.9571 376.5169zM310.4462 370.8092C 310.5656 370.5851 310.461 370.2415 310.2966 370.0099C 310.0202 369.7187 309.6766 369.8233 309.3853 370.0998C 308.5042 371.2129 307.5706 372.1542 306.6968 372.9835C 306.4056 373.2599 306.5102 373.6035 306.6746 373.835C 306.951 374.1263 307.2946 374.0217 307.5261 373.8573C 308.4597 372.916 309.2811 371.9149 310.2744 370.8615C 310.3864 370.9212 310.4462 370.8092 310.4462 370.8092zM315.4944 364.5787C 315.6139 364.3546 315.569 363.8989 315.3449 363.7794C 315.0087 363.6002 314.7249 363.5928 314.4336 363.8693C 313.6122 364.8703 312.731 365.9834 311.9095 366.9845C 311.6182 367.2609 311.7228 367.6045 311.9993 367.8958C 312.2757 368.187 312.6193 368.0824 312.9106 367.806C 313.732 366.8049 314.5535 365.8038 315.4944 364.5787C 315.4347 364.6907 315.4347 364.6907 315.4944 364.5787zM320.2065 358.1689C 320.326 357.9448 320.2811 357.4892 320.057 357.3697C 319.7208 357.1905 319.437 357.1831 319.1457 357.4595L319.1457 357.4595L316.7336 360.6345C 316.5544 360.9707 316.547 361.2545 316.8234 361.5458C 317.0999 361.837 317.4435 361.7324 317.7347 361.456L317.7347 361.456L320.2065 358.1689C 320.1468 358.281 320.1468 358.281 320.2065 358.1689zM325.0307 351.8189C 325.1501 351.5948 325.0455 351.2513 324.8811 351.0197C 324.545 350.8405 324.2611 350.8331 323.9699 351.1095C 323.1484 352.1106 322.2672 353.2237 321.5578 354.2845C 321.3786 354.6207 321.3712 354.9045 321.6476 355.1958C 321.9838 355.375 322.2676 355.3824 322.5589 355.106C 323.3803 354.1049 324.2018 353.1038 325.0307 351.8189C 324.9709 351.931 324.9709 351.931 325.0307 351.8189zM330.2433 345.8199C 330.3628 345.5958 330.2581 345.2523 330.0938 345.0207C 329.8174 344.7295 329.4738 344.8341 329.1825 345.1105C 328.249 346.0518 327.3678 347.165 326.5463 348.166C 326.2551 348.4425 326.3597 348.786 326.6361 349.0773C 326.9126 349.3686 327.2561 349.2639 327.5474 348.9875C 328.3689 347.9865 329.1903 346.9854 330.1238 346.044C 330.1836 345.932 330.1836 345.932 330.2433 345.8199zM335.8445 340.1719C 335.9639 339.9478 335.9713 339.664 335.8069 339.4324C 335.5305 339.1412 335.2467 339.1338 334.9554 339.4102C 333.9099 340.2918 332.9763 341.2331 332.0428 342.1745C 331.7516 342.4509 331.8562 342.7945 332.0206 343.026C 332.297 343.3173 332.6406 343.2126 332.8721 343.0482C 333.8056 342.1069 334.7391 341.1656 335.725 340.3961C 335.7847 340.284 335.7847 340.284 335.8445 340.1719zM342.1628 335.338C 342.2823 335.1139 342.2299 334.9421 342.0656 334.7105C 341.9012 334.479 341.5053 334.4119 341.1617 334.5165C 340.0638 335.2263 338.9062 336.0482 337.9203 336.8177C 337.6291 337.0941 337.6217 337.378 337.8384 337.7813C 338.1148 338.0726 338.3987 338.08 338.8019 337.8633C 339.8475 336.9817 340.9454 336.2719 342.0433 335.5621C 342.0433 335.5621 342.1031 335.45 342.1628 335.338zM349.1909 331.6019C 349.2507 331.4899 349.2581 331.206 349.2058 331.0342C 349.1011 330.6906 348.7052 330.6235 348.3617 330.7281C 347.0994 331.2064 345.8894 331.8565 344.6795 332.5066C 344.3359 332.6112 344.2688 333.0071 344.3734 333.3507C 344.478 333.6942 344.8739 333.7614 345.2175 333.6568C 346.4275 333.0067 347.5777 332.4687 348.7279 331.9307C 348.9594 331.7663 349.1312 331.714 349.1909 331.6019zM356.802 329.4717C 356.8618 329.3596 356.9215 329.2476 356.8692 329.0758C 356.7645 328.7322 356.4881 328.441 356.1445 328.5456C 354.8897 328.7401 353.463 328.9868 352.2008 329.4651C 351.8572 329.5697 351.678 329.9059 351.7826 330.2495C 351.8873 330.593 352.2234 330.7722 352.567 330.6676C 353.7695 330.3014 355.0841 329.9949 356.451 329.8602C 356.5107 329.7481 356.6825 329.6958 356.802 329.4717zM364.757 329.3955C 364.8168 329.2835 364.8168 329.2835 364.8765 329.1714C 364.9437 328.7755 364.6672 328.4843 364.3834 328.4769C 363.0239 328.3277 361.6644 328.1786 360.3573 328.2012C 360.0734 328.1938 359.7822 328.4702 359.715 328.8661C 359.7076 329.15 359.984 329.4413 360.3799 329.5084C 361.6871 329.4857 362.9345 329.5751 364.294 329.7243C 364.4061 329.784 364.6376 329.6197 364.757 329.3955z" stroke="none" fill="#040606" fill-rule="nonzero" /><path id="257" transform="matrix(1 0 0 -1 0 842)" d="M268.6876 390.5663C 268.7473 390.4543 268.7473 390.4543 268.695 390.2825C 268.7024 389.9986 268.426 389.7074 268.0301 389.6402C 267.4624 389.6254 266.7827 389.5508 266.215 389.5359C 265.8191 389.4688 265.5278 389.7452 265.4607 390.1411C 265.3935 390.537 265.6699 390.8283 266.0658 390.8954C 266.7456 390.97 267.3133 390.9849 267.993 391.0594C 268.3963 390.8427 268.6278 390.6783 268.6876 390.5663z" stroke="none" fill="#040606" fill-rule="nonzero" /><path id="258" transform="matrix(1 0 0 -1 0 842)" d="M264.886 392.5688C 265.2574 392.7668 265.6526 392.8863 266.0717 392.9271C 266.4907 392.9679 266.9014 392.927 267.3042 392.8044C 267.707 392.6816 268.0708 392.4866 268.396 392.2192C 268.7211 391.9518 268.9827 391.6324 269.1807 391.2609C 269.3787 390.8894 269.4982 390.4942 269.5389 390.0752C 269.5797 389.6562 269.5389 389.2453 269.4162 388.8426C 269.2935 388.4399 269.0985 388.076 268.8311 387.7509C 268.5637 387.4257 268.2442 387.1642 267.8727 386.9661C 267.5013 386.7681 267.1061 386.6487 266.687 386.6079C 266.268 386.5671 265.8572 386.608 265.4545 386.7306C 265.0518 386.8532 264.6879 387.0483 264.3627 387.3158C 264.0375 387.5832 263.776 387.9026 263.578 388.2741C 263.38 388.6456 263.2605 389.0408 263.2197 389.4598C 263.179 389.8788 263.2199 390.2896 263.3424 390.6924C 263.4652 391.0951 263.6602 391.4589 263.9276 391.7841C 264.195 392.1093 264.5145 392.3708 264.886 392.5688z" stroke="none" fill="#040606" fill-rule="nonzero" /><path id="259" transform="matrix(1 0 0 -1 0 842)" d="M381.491 341.1943C 381.8624 341.3924 382.2577 341.5118 382.6767 341.5526C 383.0957 341.5934 383.5065 341.5525 383.9093 341.4299C 384.312 341.3072 384.6758 341.1122 385.001 340.8447C 385.3262 340.5773 385.5877 340.2579 385.7857 339.8864C 385.9838 339.5149 386.1032 339.1197 386.144 338.7007C 386.1848 338.2817 386.1439 337.8708 386.0213 337.4681C 385.8985 337.0654 385.7036 336.7015 385.4361 336.3764C 385.1687 336.0512 384.8492 335.7897 384.4778 335.5916C 384.1063 335.3936 383.7111 335.2742 383.2921 335.2334C 382.8731 335.1926 382.4622 335.2335 382.0595 335.3561C 381.6568 335.4788 381.2929 335.6739 380.9678 335.9413C 380.6426 336.2086 380.3811 336.5281 380.183 336.8996C 379.985 337.2711 379.8655 337.6663 379.8248 338.0853C 379.784 338.5043 379.8249 338.9152 379.9475 339.3178C 380.0701 339.7206 380.2652 340.0845 380.5327 340.4096C 380.8 340.7348 381.1195 340.9963 381.491 341.1943z" stroke="none" fill="#040606" fill-rule="nonzero" /></g></g></g></g><g clip-path="url(#69)"><g clip-path="url(#70)"><g clip-path="url(#71)"><g clip-path="url(#72)"><path id="260" transform="matrix(1 0 0 -1 0 842)" d="M365.4901 182.8217C 365.5663 182.6323 365.5477 182.4048 365.3964 182.2339C 364.9991 181.8541 364.5636 181.5689 364.1663 181.1891C 363.9203 180.9801 363.6547 181.0934 363.4838 181.2447C 363.2748 181.4907 363.3881 181.7563 363.5394 181.9272C 363.9748 182.2123 364.2775 182.554 364.6748 182.9339C 364.9208 183.1429 365.1483 183.1243 365.3573 182.8783C 365.4139 183.0111 365.452 182.9164 365.4901 182.8217z" stroke="none" fill="#040606" fill-rule="nonzero" /><path id="261" transform="matrix(1 0 0 -1 0 842)" d="M355.8138 177.6099C 355.9281 177.3258 355.7202 177.0221 355.4361 176.9079C 354.3562 176.5836 353.333 176.3921 352.2717 176.2954C 351.9495 176.2758 351.7787 176.4271 351.6644 176.7112C 351.6448 177.0334 351.7961 177.2043 352.0803 177.3186C 353.1035 177.5101 354.1267 177.7015 355.1118 177.9877C 355.434 178.0072 355.6996 177.894 355.8138 177.6099zM361.6474 180.066C 361.7236 179.8766 361.6484 179.5163 361.459 179.4402C 360.5881 178.8699 359.5464 178.4509 358.5428 177.9373C 358.2586 177.823 357.993 177.9362 357.8788 178.2203C 357.7645 178.5044 357.8778 178.77 358.1619 178.8843C 359.1089 179.2652 360.1125 179.7788 361.0215 180.2544C 361.1728 180.4253 361.495 180.4448 361.6474 180.066C 361.6093 180.1607 361.6474 180.066 361.6474 180.066z" stroke="none" fill="#040606" fill-rule="nonzero" /><path id="262" transform="matrix(1 0 0 -1 0 842)" d="M284.2314 232.7675C 284.2695 232.6728 284.3076 232.5781 284.2509 232.4453C 284.1377 232.1797 283.8917 231.9708 283.6261 232.084C 282.64 232.3475 281.5591 232.573 280.5163 232.7037C 280.2888 232.7222 280.0799 232.9682 280.0603 233.2904C 280.0788 233.5179 280.3249 233.7269 280.6471 233.7465C 281.6898 233.6157 282.7707 233.3903 283.8515 233.1649C 284.1171 233.0516 284.1552 232.9569 284.2314 232.7675zM290.3006 230.8076C 290.3387 230.7128 290.4149 230.5234 290.3583 230.3907C 290.2451 230.1251 289.9609 230.0108 289.6953 230.124C 288.7658 230.5204 287.7416 230.8786 286.7173 231.2368C 286.4518 231.35 286.3375 231.6342 286.356 231.8616C 286.4693 232.1272 286.7534 232.2415 286.9809 232.223C 288.0051 231.8647 289.0294 231.5065 289.9589 231.1102C 290.2245 230.9969 290.2625 230.9023 290.3006 230.8076zM296.0117 227.8234C 296.0878 227.634 296.0312 227.5012 295.9746 227.3684C 295.8614 227.1028 295.5392 227.0832 295.2736 227.1965C 294.4007 227.7256 293.433 228.2166 292.5601 228.7457C 292.2946 228.8589 292.1803 229.143 292.3882 229.4467C 292.5015 229.7123 292.7856 229.8266 293.0892 229.6186C 294.0569 229.1276 295.0245 228.6366 295.9355 228.0128C 295.8974 228.1075 295.9736 227.9181 296.0117 227.8234zM301.1555 224.0609C 301.2317 223.8716 301.2132 223.644 301.0237 223.5679C 300.8724 223.397 300.5502 223.3774 300.2846 223.4907C 299.4684 224.1526 298.652 224.8145 297.8358 225.4763C 297.6649 225.6277 297.5506 225.9118 297.7585 226.2155C 297.9099 226.3864 298.194 226.5006 298.4976 226.2927C 299.4086 225.6689 300.2249 225.007 301.0793 224.2504C 301.0793 224.2504 301.1174 224.1557 301.1555 224.0609zM305.7321 219.5203C 305.8083 219.3309 305.7898 219.1034 305.6385 218.9326C 305.3925 218.7236 305.1269 218.8368 304.956 218.9881C 304.291 219.8209 303.5313 220.6156 302.8097 221.3156C 302.6008 221.5616 302.6193 221.7891 302.8272 222.0928C 303.0352 222.3964 303.3008 222.2832 303.6044 222.0753C 304.326 221.3753 305.0857 220.5806 305.7888 219.6531C 305.6941 219.615 305.6941 219.615 305.7321 219.5203zM309.6273 214.4856C 309.7035 214.2962 309.5903 214.0306 309.439 213.8597C 309.193 213.6508 308.9274 213.764 308.7184 214.01C 308.11 214.9756 307.4451 215.8084 306.8182 216.5464C 306.6092 216.7924 306.7224 217.058 306.8737 217.2289C 307.1198 217.4379 307.3853 217.3246 307.5562 217.1733C 308.2212 216.3406 308.7915 215.4697 309.4946 214.5422C 309.5893 214.5803 309.6273 214.4856 309.6273 214.4856zM313.1252 209.071C 313.2014 208.8816 313.1263 208.5213 312.9368 208.4452C 312.6527 208.3309 312.4252 208.3494 312.2162 208.5955C 311.646 209.4663 311.0376 210.4319 310.4673 211.3027C 310.2584 211.5488 310.3716 211.8143 310.6176 212.0233C 310.8636 212.2323 311.1292 212.119 311.3382 211.873C 311.9085 211.0022 312.4788 210.1313 313.1252 209.071C 313.0871 209.1657 313.0871 209.1657 313.1252 209.071zM316.339 203.5422C 316.4151 203.3528 316.34 202.9925 316.1506 202.9163C 315.8665 202.8021 315.639 202.8206 315.43 203.0666L315.43 203.0666L313.7758 205.812C 313.6615 206.0961 313.6801 206.3236 313.9261 206.5326C 314.1721 206.7415 314.4377 206.6283 314.6466 206.3823L314.6466 206.3823L316.339 203.5422C 316.3009 203.6369 316.3009 203.6369 316.339 203.5422zM319.6474 198.0515C 319.7236 197.8621 319.6104 197.5965 319.459 197.4256C 319.1749 197.3113 318.9474 197.3299 318.7385 197.5759C 318.1682 198.4467 317.5598 199.4123 317.0842 200.3213C 316.97 200.6054 316.9885 200.8329 317.2345 201.0418C 317.5186 201.1561 317.7461 201.1376 317.9551 200.8915C 318.5254 200.0207 319.0956 199.1498 319.6474 198.0515C 319.6093 198.1461 319.6093 198.1461 319.6474 198.0515zM323.2966 192.8078C 323.3727 192.6183 323.2595 192.3528 323.1082 192.1819C 322.8622 191.9729 322.5966 192.0862 322.3876 192.3322C 321.7226 193.165 321.1143 194.1305 320.544 195.0014C 320.335 195.2474 320.4483 195.513 320.6943 195.722C 320.9403 195.9309 321.2059 195.8177 321.4149 195.5717C 321.9851 194.7008 322.5554 193.8299 323.2204 192.9972C 323.2585 192.9025 323.2585 192.9025 323.2966 192.8078zM327.2865 187.8111C 327.3626 187.6217 327.3441 187.3942 327.1928 187.2233C 326.9468 187.0144 326.7193 187.0329 326.5103 187.2789C 325.7506 188.0736 325.0856 188.9064 324.4207 189.7392C 324.2117 189.9852 324.3249 190.2508 324.4763 190.4216C 324.7223 190.6306 324.9879 190.5174 325.1587 190.3661C 325.8237 189.5333 326.4887 188.7005 327.2103 188.0005C 327.2484 187.9058 327.2484 187.9058 327.2865 187.8111zM331.9197 183.4033C 331.9959 183.2139 331.9393 183.0811 331.788 182.9102C 331.6367 182.7393 331.3145 182.7198 331.0489 182.833C 330.2326 183.4949 329.3782 184.2515 328.6566 184.9515C 328.4476 185.1975 328.4662 185.425 328.6741 185.7287C 328.9201 185.9376 329.1476 185.9191 329.4513 185.7112C 330.211 184.9165 331.0273 184.2546 331.8436 183.5927C 331.8436 183.5927 331.8817 183.498 331.9197 183.4033zM337.2149 179.8118C 337.253 179.7171 337.2345 179.4896 337.1779 179.3568C 337.0646 179.0912 336.7424 179.0716 336.4768 179.1849C 335.5092 179.6759 334.5982 180.2997 333.6872 180.9235C 333.4216 181.0367 333.402 181.3589 333.5153 181.6245C 333.6285 181.8901 333.9507 181.9097 334.2163 181.7964C 335.1273 181.1726 336.0002 180.6435 336.8731 180.1144C 337.044 179.9631 337.1768 179.9065 337.2149 179.8118zM343.1143 177.4534C 343.1524 177.3587 343.1905 177.264 343.1339 177.1312C 343.0206 176.8657 342.7746 176.6567 342.509 176.7699C 341.5229 177.0334 340.4039 177.3536 339.4363 177.8446C 339.1707 177.9578 339.0565 178.2419 339.1697 178.5075C 339.2829 178.7731 339.567 178.8874 339.8326 178.7741C 340.7622 178.3778 341.7864 178.0196 342.8672 177.7942C 342.9053 177.6995 343.0381 177.6429 343.1143 177.4534zM349.4656 176.7071C 349.5037 176.6124 349.5037 176.6124 349.5418 176.5177C 349.5614 176.1955 349.3153 175.9866 349.0878 176.0051C 347.9885 176.003 346.8891 176.001 345.8463 176.1317C 345.6188 176.1502 345.4099 176.3963 345.3903 176.7185C 345.4088 176.946 345.6548 177.1549 345.9771 177.1745C 347.0198 177.0437 348.0245 177.0077 349.1239 177.0098C 349.2186 177.0479 349.3895 176.8965 349.4656 176.7071z" stroke="none" fill="#040606" fill-rule="nonzero" /><path id="263" transform="matrix(1 0 0 -1 0 842)" d="M277.9552 233.8741C 277.9933 233.7794 277.9933 233.7794 277.9367 233.6466C 277.9182 233.4191 277.6721 233.2101 277.3499 233.1906C 276.8949 233.2276 276.3452 233.2266 275.8903 233.2637C 275.5681 233.2441 275.3591 233.4901 275.3395 233.8123C 275.32 234.1345 275.566 234.3435 275.8882 234.3631C 276.4379 234.3641 276.8929 234.327 277.4426 234.328C 277.7462 234.1201 277.9171 233.9688 277.9552 233.8741z" stroke="none" fill="#040606" fill-rule="nonzero" /><path id="264" transform="matrix(1 0 0 -1 0 842)" d="M275.0894 235.8021C 275.4034 235.9284 275.7295 235.9898 276.0679 235.9863C 276.4063 235.9828 276.7311 235.9147 277.0424 235.782C 277.3537 235.6492 277.6277 235.462 277.8646 235.2203C 278.1014 234.9785 278.2829 234.7007 278.4092 234.3867C 278.5354 234.0728 278.5968 233.7466 278.5933 233.4082C 278.5898 233.0698 278.5218 232.7449 278.3891 232.4337C 278.2563 232.1224 278.0691 231.8484 277.8273 231.6115C 277.5856 231.3747 277.3077 231.1932 276.9938 231.067C 276.6798 230.9407 276.3537 230.8793 276.0153 230.8828C 275.6768 230.8863 275.3521 230.9544 275.0407 231.0871C 274.7295 231.2198 274.4554 231.4071 274.2186 231.6488C 273.9818 231.8906 273.8002 232.1684 273.674 232.4824C 273.5477 232.7963 273.4863 233.1225 273.4898 233.4609C 273.4933 233.7993 273.5614 234.1241 273.6941 234.4354C 273.8269 234.7467 274.0141 235.0207 274.2559 235.2575C 274.4976 235.4944 274.7755 235.6759 275.0894 235.8021z" stroke="none" fill="#040606" fill-rule="nonzero" /><path id="265" transform="matrix(1 0 0 -1 0 842)" d="M363.8564 184.6952C 364.1704 184.8214 364.4965 184.8828 364.835 184.8793C 365.1733 184.8758 365.4981 184.8077 365.8095 184.675C 366.1208 184.5423 366.3948 184.355 366.6316 184.1133C 366.8684 183.8716 367.0499 183.5937 367.1762 183.2798C 367.3025 182.9658 367.3639 182.6396 367.3604 182.3012C 367.3568 181.9629 367.2888 181.638 367.1561 181.3268C 367.0233 181.0154 366.8361 180.7414 366.5944 180.5046C 366.3526 180.2678 366.0747 180.0862 365.7608 179.96C 365.4469 179.8337 365.1207 179.7723 364.7823 179.7758C 364.4439 179.7793 364.119 179.8474 363.8077 179.9801C 363.4965 180.1129 363.2225 180.3001 362.9857 180.5418C 362.7488 180.7836 362.5673 181.0614 362.441 181.3754C 362.3148 181.6894 362.2534 182.0155 362.2569 182.3539C 362.2604 182.6923 362.3285 183.0171 362.4612 183.3284C 362.5939 183.6397 362.7811 183.9138 363.0229 184.1506C 363.2646 184.3874 363.5425 184.5689 363.8564 184.6952z" stroke="none" fill="#040606" fill-rule="nonzero" /></g></g></g></g><g clip-path="url(#73)"></g><g clip-path="url(#74)"><g transform="matrix(0.1246875 0 0 0.1241722 488.3112 13.39929)"><g transform="matrix(1 0 0 1 0 0)"><image x="0" y="0" xlink:href="img_03.png" width="800" height="453" /></g></g></g></g></g></svg>