<svg xmlns="http://www.w3.org/2000/svg" xmlns:xlink="http://www.w3.org/1999/xlink" id="body_1" preserveAspectRatio="xMinYMin meet" viewBox="0 0 793 1123"><defs><clipPath id="1"><path id="" clip-rule="evenodd" transform="matrix(1 0 0 1 0 0)" d="M0 842L0 -0.25L0 -0.25L595.5 -0.25L595.5 -0.25L595.5 842L595.5 842L0 842z" /></clipPath><clipPath id="2"><path id="" clip-rule="evenodd" transform="matrix(1 0 0 1 0 0)" d="M0 -0.249939L595.5 -0.249939L595.5 -0.249939L595.5 842.0001L595.5 842.0001L0 842.0001z" /></clipPath><clipPath id="3"><path id="" clip-rule="evenodd" transform="matrix(1 0 0 1 0 0)" d="M0 -0.249939L595.5 -0.249939L595.5 -0.249939L595.5 842.0001L595.5 842.0001L0 842.0001z" /></clipPath><clipPath id="4"><path id="" clip-rule="evenodd" transform="matrix(1 0 0 1 0 0)" d="M0 -0.249939L595.5 -0.249939L595.5 -0.249939L595.5 842.0001L595.5 842.0001L0 842.0001z" /></clipPath><clipPath id="5"><path id="" clip-rule="evenodd" transform="matrix(1 0 0 1 0 0)" d="M80.88 18.95007L537.12 18.95007L537.12 18.95007L537.12 823.1901L537.12 823.1901L80.88 823.1901z" /></clipPath><clipPath id="6"><path id="" clip-rule="evenodd" transform="matrix(1 0 0 1 0 0)" d="M81.0154 19.05255L537.0154 19.05255L537.0154 19.05255L537.0154 822.3026L537.0154 822.3026L81.0154 822.3026z" /></clipPath><clipPath id="7"><path id="" clip-rule="evenodd" transform="matrix(1 0 0 1 0 0)" d="M466.4401 23.61578L551.1901 23.61578L551.1901 23.61578L551.1901 71.61578L551.1901 71.61578L466.4401 71.61578z" /></clipPath><clipPath id="8"><path id="" clip-rule="evenodd" transform="matrix(1 0 0 1 0 0)" d="M38.88756 10.32037L128.8876 10.32037L128.8876 10.32037L128.8876 89.82037L128.8876 89.82037L38.88756 89.82037z" /></clipPath><clipPath id="9"><path id="" clip-rule="evenodd" transform="matrix(1 0 0 1 0 0)" d="M0 -0.249939L595.5 -0.249939L595.5 -0.249939L595.5 842.0001L595.5 842.0001L0 842.0001z" /></clipPath><clipPath id="10"><path id="" clip-rule="evenodd" transform="matrix(1 0 0 1 0 0)" d="M0 -0.249939L595.5 -0.249939L595.5 -0.249939L595.5 842.0001L595.5 842.0001L0 842.0001z" /></clipPath><clipPath id="11"><path id="" clip-rule="evenodd" transform="matrix(1 0 0 1 0 0)" d="M18.90661 102.0165L401.7899 102.0165L401.7899 102.0165L401.7899 312.8081L401.7899 312.8081L18.90661 312.8081z" /></clipPath><clipPath id="12"><path id="" clip-rule="evenodd" transform="matrix(1 0 0 1 0 0)" d="M38.40661 102.0165L381.5437 102.0165C 392.3132 102.0165 401.0437 110.7469 401.0437 121.5165L401.0437 121.5165L401.0437 293.3081C 401.0437 304.0776 392.3132 312.8081 381.5437 312.8081L381.5437 312.8081L38.40661 312.8081C 27.63706 312.8081 18.90661 304.0776 18.90661 293.3081L18.90661 293.3081L18.90661 121.5165C 18.90661 110.7469 27.63706 102.0165 38.40661 102.0165z" /></clipPath><clipPath id="13"><path id="" clip-rule="evenodd" transform="matrix(1 0 0 1 0 0)" d="M0 -0.249939L595.5 -0.249939L595.5 -0.249939L595.5 842.0001L595.5 842.0001L0 842.0001z" /></clipPath><clipPath id="14"><path id="" clip-rule="evenodd" transform="matrix(1 0 0 1 0 0)" d="M0 -0.249939L595.5 -0.249939L595.5 -0.249939L595.5 842.0001L595.5 842.0001L0 842.0001z" /></clipPath><clipPath id="15"><path id="" clip-rule="evenodd" transform="matrix(1 0 0 1 0 0)" d="M0 -0.249939L595.5 -0.249939L595.5 -0.249939L595.5 842.0001L595.5 842.0001L0 842.0001z" /></clipPath><clipPath id="16"><path id="" clip-rule="evenodd" transform="matrix(1 0 0 1 0 0)" d="M209.9751 333.0498L569.803 333.0498L569.803 333.0498L569.803 543.8414L569.803 543.8414L209.9751 543.8414z" /></clipPath><clipPath id="17"><path id="" clip-rule="evenodd" transform="matrix(1 0 0 1 0 0)" d="M229.4751 333.0498L549.756 333.0498C 560.5255 333.0498 569.256 341.7802 569.256 352.5498L569.256 352.5498L569.256 524.3414C 569.256 535.111 560.5255 543.8414 549.756 543.8414L549.756 543.8414L229.4751 543.8414C 218.7056 543.8414 209.9751 535.111 209.9751 524.3414L209.9751 524.3414L209.9751 352.5498C 209.9751 341.7802 218.7056 333.0498 229.4751 333.0498z" /></clipPath><clipPath id="18"><path id="" clip-rule="evenodd" transform="matrix(1 0 0 1 0 0)" d="M0 -0.249939L595.5 -0.249939L595.5 -0.249939L595.5 842.0001L595.5 842.0001L0 842.0001z" /></clipPath><clipPath id="19"><path id="" clip-rule="evenodd" transform="matrix(1 0 0 1 0 0)" d="M0 -0.249939L595.5 -0.249939L595.5 -0.249939L595.5 842.0001L595.5 842.0001L0 842.0001z" /></clipPath><clipPath id="20"><path id="" clip-rule="evenodd" transform="matrix(1 0 0 1 0 0)" d="M0 -0.249939L595.5 -0.249939L595.5 -0.249939L595.5 842.0001L595.5 842.0001L0 842.0001z" /></clipPath><clipPath id="21"><path id="" clip-rule="evenodd" transform="matrix(1 0 0 1 0 0)" d="M18.90661 551.1616L359.2088 551.1616L359.2088 551.1616L359.2088 805.1479L359.2088 805.1479L18.90661 805.1479z" /></clipPath><clipPath id="22"><path id="" clip-rule="evenodd" transform="matrix(1 0 0 1 0 0)" d="M38.4066 551.1616L339.1389 551.1616C 349.9084 551.1616 358.6389 559.892 358.6389 570.6616L358.6389 570.6616L358.6389 785.6479C 358.6389 796.4175 349.9084 805.1479 339.1389 805.1479L339.1389 805.1479L38.4066 805.1479C 27.63706 805.1479 18.90661 796.4175 18.90661 785.6479L18.90661 785.6479L18.90661 570.6616C 18.90661 559.892 27.63706 551.1616 38.4066 551.1616z" /></clipPath><clipPath id="23"><path id="" clip-rule="evenodd" transform="matrix(1 0 0 1 0 0)" d="M0 -0.249939L595.5 -0.249939L595.5 -0.249939L595.5 842.0001L595.5 842.0001L0 842.0001z" /></clipPath><clipPath id="24"><path id="" clip-rule="evenodd" transform="matrix(1 0 0 1 0 0)" d="M0 -0.249939L595.5 -0.249939L595.5 -0.249939L595.5 842.0001L595.5 842.0001L0 842.0001z" /></clipPath><clipPath id="25"><path id="" clip-rule="evenodd" transform="matrix(1 0 0 1 0 0)" d="M0 -0.249939L595.5 -0.249939L595.5 -0.249939L595.5 842.0001L595.5 842.0001L0 842.0001z" /></clipPath><clipPath id="26"><path id="" clip-rule="evenodd" transform="matrix(1 0 0 1 0 0)" d="M499.3482 208.424L572.8482 208.424L572.8482 208.424L572.8482 314.924L572.8482 314.924L499.3482 314.924z" /></clipPath><clipPath id="27"><path id="" clip-rule="evenodd" transform="matrix(1 0 0 1 0 0)" d="M499.3482 236.174L499.3482 286.4317C 499.3482 301.7576 511.7723 314.1817 527.0982 314.1817L527.0982 314.1817L544.7093 314.1817C 560.0352 314.1817 572.4593 301.7576 572.4593 286.4317L572.4593 286.4317L572.4593 236.174C 572.4593 220.8481 560.0352 208.424 544.7093 208.424L544.7093 208.424L527.0982 208.424C 511.7723 208.424 499.3482 220.8481 499.3482 236.174z" /></clipPath><clipPath id="28"><path id="" clip-rule="evenodd" transform="matrix(1 0 0 1 0 0)" d="M499.3482 208.424L572.0982 208.424L572.0982 208.424L572.0982 314.174L572.0982 314.174L499.3482 314.174z" /></clipPath><clipPath id="29"><path id="" clip-rule="evenodd" transform="matrix(1 0 0 1 0 0)" d="M0 -0.249939L595.5 -0.249939L595.5 -0.249939L595.5 842.0001L595.5 842.0001L0 842.0001z" /></clipPath><clipPath id="30"><path id="" clip-rule="evenodd" transform="matrix(1 0 0 1 0 0)" d="M0 -0.249939L595.5 -0.249939L595.5 -0.249939L595.5 842.0001L595.5 842.0001L0 842.0001z" /></clipPath><clipPath id="31"><path id="" clip-rule="evenodd" transform="matrix(1 0 0 1 0 0)" d="M418.5684 103.3615L499.5684 103.3615L499.5684 103.3615L499.5684 230.8615L499.5684 230.8615L418.5684 230.8615z" /></clipPath><clipPath id="32"><path id="" clip-rule="evenodd" transform="matrix(1 0 0 1 0 0)" d="M418.5684 131.1115L418.5684 202.9116C 418.5684 218.2375 430.9925 230.6616 446.3184 230.6616L446.3184 230.6616L471.5982 230.6616C 486.9241 230.6616 499.3482 218.2375 499.3482 202.9116L499.3482 202.9116L499.3482 131.1115C 499.3482 115.7855 486.9241 103.3615 471.5982 103.3615L471.5982 103.3615L446.3184 103.3615C 430.9925 103.3615 418.5684 115.7855 418.5684 131.1115z" /></clipPath><clipPath id="33"><path id="" clip-rule="evenodd" transform="matrix(1 0 0 1 0 0)" d="M418.5684 103.3615L499.5684 103.3615L499.5684 103.3615L499.5684 230.8615L499.5684 230.8615L418.5684 230.8615z" /></clipPath><clipPath id="34"><path id="" clip-rule="evenodd" transform="matrix(1 0 0 1 0 0)" d="M0 -0.249939L595.5 -0.249939L595.5 -0.249939L595.5 842.0001L595.5 842.0001L0 842.0001z" /></clipPath><clipPath id="35"><path id="" clip-rule="evenodd" transform="matrix(1 0 0 1 0 0)" d="M0 -0.249939L595.5 -0.249939L595.5 -0.249939L595.5 842.0001L595.5 842.0001L0 842.0001z" /></clipPath><clipPath id="36"><path id="" clip-rule="evenodd" transform="matrix(1 0 0 1 0 0)" d="M32.98094 431.2424L141.7309 431.2424L141.7309 431.2424L141.7309 525.7424L141.7309 525.7424L32.98094 525.7424z" /></clipPath><clipPath id="37"><path id="" clip-rule="evenodd" transform="matrix(1 0 0 1 0 0)" d="M32.98094 458.9924L32.98094 497.3758C 32.98094 512.7017 45.40504 525.1257 60.73094 525.1257L60.73094 525.1257L113.9309 525.1257C 129.2568 525.1257 141.6809 512.7017 141.6809 497.3758L141.6809 497.3758L141.6809 458.9924C 141.6809 443.6665 129.2568 431.2424 113.9309 431.2424L113.9309 431.2424L60.73094 431.2424C 45.40504 431.2424 32.98094 443.6665 32.98094 458.9924z" /></clipPath><clipPath id="38"><path id="" clip-rule="evenodd" transform="matrix(1 0 0 1 0 0)" d="M32.98094 431.2424L141.7309 431.2424L141.7309 431.2424L141.7309 524.9924L141.7309 524.9924L32.98094 524.9924z" /></clipPath><clipPath id="39"><path id="" clip-rule="evenodd" transform="matrix(1 0 0 1 0 0)" d="M0 -0.249939L595.5 -0.249939L595.5 -0.249939L595.5 842.0001L595.5 842.0001L0 842.0001z" /></clipPath><clipPath id="40"><path id="" clip-rule="evenodd" transform="matrix(1 0 0 1 0 0)" d="M0 -0.249939L595.5 -0.249939L595.5 -0.249939L595.5 842.0001L595.5 842.0001L0 842.0001z" /></clipPath><clipPath id="41"><path id="" clip-rule="evenodd" transform="matrix(1 0 0 1 0 0)" d="M32.98094 333.0498L141.7309 333.0498L141.7309 333.0498L141.7309 429.0497L141.7309 429.0497L32.98094 429.0497z" /></clipPath><clipPath id="42"><path id="" clip-rule="evenodd" transform="matrix(1 0 0 1 0 0)" d="M32.98094 360.7998L32.98094 400.5919C 32.98094 415.9178 45.40504 428.3419 60.73094 428.3419L60.73094 428.3419L113.9309 428.3419C 129.2568 428.3419 141.6809 415.9178 141.6809 400.5919L141.6809 400.5919L141.6809 360.7998C 141.6809 345.4739 129.2568 333.0498 113.9309 333.0498L113.9309 333.0498L60.73094 333.0498C 45.40504 333.0498 32.98094 345.4739 32.98094 360.7998z" /></clipPath><clipPath id="43"><path id="" clip-rule="evenodd" transform="matrix(1 0 0 1 0 0)" d="M32.98094 333.0498L141.7309 333.0498L141.7309 333.0498L141.7309 428.2997L141.7309 428.2997L32.98094 428.2997z" /></clipPath><clipPath id="44"><path id="" clip-rule="evenodd" transform="matrix(1 0 0 1 0 0)" d="M0 -0.249939L595.5 -0.249939L595.5 -0.249939L595.5 842.0001L595.5 842.0001L0 842.0001z" /></clipPath><clipPath id="45"><path id="" clip-rule="evenodd" transform="matrix(1 0 0 1 0 0)" d="M0 -0.249939L595.5 -0.249939L595.5 -0.249939L595.5 842.0001L595.5 842.0001L0 842.0001z" /></clipPath><clipPath id="46"><path id="" clip-rule="evenodd" transform="matrix(1 0 0 1 0 0)" d="M402.7492 550.5479L530.2491 550.5479L530.2491 550.5479L530.2491 654.0479L530.2491 654.0479L402.7492 654.0479z" /></clipPath><clipPath id="47"><path id="" clip-rule="evenodd" transform="matrix(1 0 0 1 0 0)" d="M402.7492 578.2979L402.7492 626.1153C 402.7492 641.4412 415.1733 653.8653 430.4992 653.8653L430.4992 653.8653L502.3811 653.8653C 517.707 653.8653 530.1311 641.4412 530.1311 626.1153L530.1311 626.1153L530.1311 578.2979C 530.1311 562.972 517.707 550.5479 502.3811 550.5479L502.3811 550.5479L430.4992 550.5479C 415.1733 550.5479 402.7492 562.972 402.7492 578.2979z" /></clipPath><clipPath id="48"><path id="" clip-rule="evenodd" transform="matrix(1 0 0 1 0 0)" d="M402.7492 550.5479L530.2491 550.5479L530.2491 550.5479L530.2491 654.0479L530.2491 654.0479L402.7492 654.0479z" /></clipPath><clipPath id="49"><path id="" clip-rule="evenodd" transform="matrix(1 0 0 1 0 0)" d="M0 -0.249939L595.5 -0.249939L595.5 -0.249939L595.5 842.0001L595.5 842.0001L0 842.0001z" /></clipPath><clipPath id="50"><path id="" clip-rule="evenodd" transform="matrix(1 0 0 1 0 0)" d="M0 -0.249939L595.5 -0.249939L595.5 -0.249939L595.5 842.0001L595.5 842.0001L0 842.0001z" /></clipPath><clipPath id="51"><path id="" clip-rule="evenodd" transform="matrix(1 0 0 1 0 0)" d="M402.7492 679.2874L530.2491 679.2874L530.2491 679.2874L530.2491 782.7874L530.2491 782.7874L402.7492 782.7874z" /></clipPath><clipPath id="52"><path id="" clip-rule="evenodd" transform="matrix(1 0 0 1 0 0)" d="M402.7492 707.0374L402.7492 754.3622C 402.7492 769.6882 415.1733 782.1122 430.4992 782.1122L430.4992 782.1122L502.3811 782.1122C 517.707 782.1122 530.1311 769.6882 530.1311 754.3622L530.1311 754.3622L530.1311 707.0374C 530.1311 691.7115 517.707 679.2874 502.3811 679.2874L502.3811 679.2874L430.4992 679.2874C 415.1733 679.2874 402.7492 691.7115 402.7492 707.0374z" /></clipPath><clipPath id="53"><path id="" clip-rule="evenodd" transform="matrix(1 0 0 1 0 0)" d="M402.7492 679.2874L530.2491 679.2874L530.2491 679.2874L530.2491 782.0374L530.2491 782.0374L402.7492 782.0374z" /></clipPath></defs><g transform="matrix(1.333333 0 0 1.333333 0 0)"><g clip-path="url(#1)"><g clip-path="url(#2)"><path id="1" transform="matrix(1 0 0 -1 0 842)" d="M0 842.2499L595.4999 842.2499L595.4999 -6.103516E-05L0 -6.103516E-05z" stroke="none" fill="#FFFFFF" fill-rule="nonzero" /></g><g clip-path="url(#3)"><path id="2" transform="matrix(1 0 0 -1 0 842)" d="M0 842.2499L595.4999 842.2499L595.4999 -6.103516E-05L0 -6.103516E-05z" stroke="none" fill="#FFFFFF" fill-rule="nonzero" /></g><g clip-path="url(#4)"><g><g clip-path="url(#5)"><g clip-path="url(#6)"><g transform="matrix(0 0.5281065 -0.5283893 0 537.0154 19.05261)"><g transform="matrix(1 0 0 1 0 0)"><image x="0" y="0" xlink:href="img_01.png" width="1521" height="863" /></g></g></g></g></g></g><g clip-path="url(#7)"><g transform="matrix(0.05571992 0 0 0.05561992 466.4401 23.61584)"><g transform="matrix(1 0 0 1 0 0)"><image x="0" y="0" xlink:href="img_02.png" width="1521" height="863" /></g></g></g><g clip-path="url(#8)"><g transform="matrix(0.4225352 0 0 0.4228723 38.88755 10.32037)"><g transform="matrix(1 0 0 1 0 0)"><image x="0" y="0" xlink:href="img_03.png" width="213" height="188" /></g></g></g><g clip-path="url(#9)"><g clip-path="url(#10)"><g clip-path="url(#11)"><g clip-path="url(#12)"><path id="6" transform="matrix(1 0 0 -1 0 842)" d="M18.90661 739.9835L400.9664 739.9835L400.9664 529.1919L18.90661 529.1919z" stroke="none" fill="#D6E0E5" fill-rule="nonzero" /></g></g></g></g><g clip-path="url(#13)"></g><g clip-path="url(#14)"><g clip-path="url(#15)"><g clip-path="url(#16)"><g clip-path="url(#17)"><path id="396" transform="matrix(1 0 0 -1 0 842)" d="M209.9751 508.9502L568.9796 508.9502L568.9796 298.1586L209.9751 298.1586z" stroke="none" fill="#D6E0E5" fill-rule="nonzero" /></g></g></g></g><g clip-path="url(#18)"></g><g clip-path="url(#19)"><g clip-path="url(#20)"><g clip-path="url(#21)"><g clip-path="url(#22)"><path id="736" transform="matrix(1 0 0 -1 0 842)" d="M18.90661 290.8384L358.2167 290.8384L358.2167 36.85196L18.90661 36.85196z" stroke="none" fill="#D6E0E5" fill-rule="nonzero" /></g></g></g></g><g clip-path="url(#23)"></g><g clip-path="url(#24)"><g clip-path="url(#25)"><g clip-path="url(#26)"><g clip-path="url(#27)"><g clip-path="url(#28)"><g transform="matrix(0.5587649 0 0 0.5595238 476.1705 208.424)"><g transform="matrix(1 0 0 1 0 0)"><image x="0" y="0" xlink:href="img_04.png" width="251" height="189" /></g></g></g></g></g></g></g><g clip-path="url(#29)"><g clip-path="url(#30)"><g clip-path="url(#31)"><g clip-path="url(#32)"><g clip-path="url(#33)"><g transform="matrix(0.5771374 0 0 0.5795454 378.9621 103.3615)"><g transform="matrix(1 0 0 1 0 0)"><image x="0" y="0" xlink:href="img_05.png" width="269" height="220" /></g></g></g></g></g></g></g><g clip-path="url(#34)"><g clip-path="url(#35)"><g clip-path="url(#36)"><g clip-path="url(#37)"><g clip-path="url(#38)"><g transform="matrix(0.528125 0 0 0.5294117 32.98094 423.5146)"><g transform="matrix(1 0 0 1 0 0)"><image x="0" y="0" xlink:href="img_06.png" width="240" height="204" /></g></g></g></g></g></g></g><g clip-path="url(#39)"><g clip-path="url(#40)"><g clip-path="url(#41)"><g clip-path="url(#42)"><g clip-path="url(#43)"><g transform="matrix(0.5559701 0 0 0.5570176 32.98094 333.0498)"><g transform="matrix(1 0 0 1 0 0)"><image x="0" y="0" xlink:href="img_07.png" width="201" height="171" /></g></g></g></g></g></g></g><g clip-path="url(#44)"><g clip-path="url(#45)"><g clip-path="url(#46)"><g clip-path="url(#47)"><g clip-path="url(#48)"><g transform="matrix(0.5334728 0 0 0.5335051 402.7491 550.548)"><g transform="matrix(1 0 0 1 0 0)"><image x="0" y="0" xlink:href="img_08.png" width="239" height="194" /></g></g></g></g></g></g></g><g clip-path="url(#49)"><g clip-path="url(#50)"><g clip-path="url(#51)"><g clip-path="url(#52)"><g clip-path="url(#53)"><g transform="matrix(0.5560836 0 0 0.5554054 391.21 679.2875)"><g transform="matrix(1 0 0 1 0 0)"><image x="0" y="0" xlink:href="img_09.png" width="263" height="185" /></g></g></g></g></g></g></g></g></g></svg>