<svg xmlns="http://www.w3.org/2000/svg" xmlns:xlink="http://www.w3.org/1999/xlink" id="body_1" preserveAspectRatio="xMinYMin meet" viewBox="0 0 793 1123"><defs><clipPath id="1"><path id="" clip-rule="evenodd" transform="matrix(1 0 0 1 0 0)" d="M0 842L0 -0.25L0 -0.25L595.5 -0.25L595.5 -0.25L595.5 842L595.5 842L0 842z" /></clipPath><clipPath id="2"><path id="" clip-rule="evenodd" transform="matrix(1 0 0 1 0 0)" d="M0 -0.249939L595.5 -0.249939L595.5 -0.249939L595.5 842.0001L595.5 842.0001L0 842.0001z" /></clipPath><clipPath id="3"><path id="" clip-rule="evenodd" transform="matrix(1 0 0 1 0 0)" d="M0 -0.249939L595.5 -0.249939L595.5 -0.249939L595.5 842.0001L595.5 842.0001L0 842.0001z" /></clipPath><clipPath id="4"><path id="" clip-rule="evenodd" transform="matrix(1 0 0 1 0 0)" d="M0 -0.249939L595.5 -0.249939L595.5 -0.249939L595.5 842.0001L595.5 842.0001L0 842.0001z" /></clipPath><clipPath id="5"><path id="" clip-rule="evenodd" transform="matrix(1 0 0 1 0 0)" d="M0 -0.249939L595.5 -0.249939L595.5 -0.249939L595.5 842.0001L595.5 842.0001L0 842.0001z" /></clipPath><clipPath id="6"><path id="" clip-rule="evenodd" transform="matrix(1 0 0 1 0 0)" d="M541.0344 180.8627L572.173 180.8627L572.173 180.8627L572.173 274.4L572.173 274.4L541.0344 274.4z" /></clipPath><clipPath id="7"><path id="" clip-rule="evenodd" transform="matrix(1 0 0 1 0 0)" d="M561.4575 180.8627C 560.8889 180.8627 560.9692 182.1404 561.5512 182.6219C 567.0163 187.1439 569.2104 194.2012 570.08 201.0042C 571.6854 213.5466 569.6385 226.6041 565.0363 238.3304C 560.6281 249.5818 553.6712 259.8632 544.7209 268.004C 544.8748 262.5255 544.1456 257.067 542.6004 251.7892C 542.4398 251.2407 541.9916 250.933 541.6305 250.933C 541.2692 250.933 541.0217 251.234 541.2157 251.923C 542.9148 257.7293 543.4901 263.7965 543.0084 269.8235C 542.9817 270.2048 543.5503 271.3353 544.1657 271.3353C 544.1992 271.3353 544.2325 271.3286 544.2661 271.322L544.2661 271.322L544.4534 271.3353C 545.7711 271.255 547.0822 271.2083 548.4 271.2083C 554.9221 271.2083 561.4642 272.2317 568.1066 274.3322L568.1066 274.3322L568.187 273.3889C 568.1 272.8939 567.7321 272.3722 567.2371 272.2183C 560.9424 270.2249 554.3669 269.2148 547.7712 269.2148C 547.3565 269.2148 546.9418 269.2215 546.527 269.2281C 551.2496 264.8334 555.4238 259.8699 558.9423 254.4515C 566.1601 243.334 570.6486 230.4637 571.8326 217.2524C 572.4213 210.7371 572.3076 204.001 570.963 197.5859C 569.6652 191.3582 566.9761 185.2441 561.9792 181.1102C 561.7652 180.9363 561.598 180.8627 561.4575 180.8627z" /></clipPath><clipPath id="8"><path id="" clip-rule="evenodd" transform="matrix(1 0 0 1 0 0)" d="M0 -0.249939L595.5 -0.249939L595.5 -0.249939L595.5 842.0001L595.5 842.0001L0 842.0001z" /></clipPath><clipPath id="9"><path id="" clip-rule="evenodd" transform="matrix(1 0 0 1 0 0)" d="M78.71999 30.71008L522.24 30.71008L522.24 30.71008L522.24 810.9501L522.24 810.9501L78.71999 810.9501z" /></clipPath><clipPath id="10"><path id="" clip-rule="evenodd" transform="matrix(1 0 0 1 0 0)" d="M79.51787 30.75183L522.0178 30.75183L522.0178 30.75183L522.0178 810.7518L522.0178 810.7518L79.51787 810.7518z" /></clipPath><clipPath id="11"><path id="" clip-rule="evenodd" transform="matrix(1 0 0 1 0 0)" d="M0 -0.249939L595.5 -0.249939L595.5 -0.249939L595.5 842.0001L595.5 842.0001L0 842.0001z" /></clipPath><clipPath id="12"><path id="" clip-rule="evenodd" transform="matrix(1 0 0 1 0 0)" d="M0 -0.249939L595.5 -0.249939L595.5 -0.249939L595.5 842.0001L595.5 842.0001L0 842.0001z" /></clipPath><clipPath id="13"><path id="" clip-rule="evenodd" transform="matrix(1 0 0 1 0 0)" d="M552.755 680.4867L572.255 680.4867L572.255 680.4867L572.255 738.2367L572.255 738.2367L552.755 738.2367z" /></clipPath><clipPath id="14"><path id="" clip-rule="evenodd" transform="matrix(1 0 0 1 0 0)" d="M572.173 680.4867L552.673 680.4867L552.673 680.4867L552.673 738.2367L552.673 738.2367L572.173 738.2367L572.173 738.2367L572.173 680.4867z" /></clipPath><clipPath id="15"><path id="" clip-rule="evenodd" transform="matrix(1 0 0 1 0 0)" d="M572.173 680.4867L552.673 680.4867L552.673 680.4867L552.673 738.2367L552.673 738.2367L572.173 738.2367L572.173 738.2367L572.173 680.4867z" /></clipPath><clipPath id="16"><path id="" clip-rule="evenodd" transform="matrix(1 0 0 1 0 0)" d="M0 -0.249939L595.5 -0.249939L595.5 -0.249939L595.5 842.0001L595.5 842.0001L0 842.0001z" /></clipPath><clipPath id="17"><path id="" clip-rule="evenodd" transform="matrix(1 0 0 1 0 0)" d="M364.3886 696.4841L548.7057 696.4841L548.7057 696.4841L548.7057 801.6325L548.7057 801.6325L364.3886 801.6325z" /></clipPath><clipPath id="18"><path id="" clip-rule="evenodd" transform="matrix(1 0 0 1 0 0)" d="M363.4886 695.5841L549.4885 695.5841L549.4885 695.5841L549.4885 802.5294L549.4885 802.5294L363.4886 802.5294z" /></clipPath><clipPath id="19"><path id="" clip-rule="evenodd" transform="matrix(1 0 0 1 0 0)" d="M479.8373 520.7487L577.3373 520.7487L577.3373 520.7487L577.3373 618.2487L577.3373 618.2487L479.8373 618.2487z" /></clipPath><clipPath id="20"><path id="" clip-rule="evenodd" transform="matrix(1 0 0 1 0 0)" d="M0 -0.249939L595.5 -0.249939L595.5 -0.249939L595.5 842.0001L595.5 842.0001L0 842.0001z" /></clipPath><clipPath id="21"><path id="" clip-rule="evenodd" transform="matrix(1 0 0 1 0 0)" d="M0 -0.249939L595.5 -0.249939L595.5 -0.249939L595.5 842.0001L595.5 842.0001L0 842.0001z" /></clipPath><clipPath id="22"><path id="" clip-rule="evenodd" transform="matrix(1 0 0 1 0 0)" d="M0 -0.249939L595.5 -0.249939L595.5 -0.249939L595.5 842.0001L595.5 842.0001L0 842.0001z" /></clipPath><clipPath id="23"><path id="" clip-rule="evenodd" transform="matrix(1 0 0 1 0 0)" d="M473.1255 569.0554L492.6255 569.0554L492.6255 569.0554L492.6255 626.8054L492.6255 626.8054L473.1255 626.8054z" /></clipPath><clipPath id="24"><path id="" clip-rule="evenodd" transform="matrix(1 0 0 1 0 0)" d="M473.1255 569.0554L492.6255 569.0554L492.6255 569.0554L492.6255 626.8054L492.6255 626.8054L473.1255 626.8054z" /></clipPath><clipPath id="25"><path id="" clip-rule="evenodd" transform="matrix(1 0 0 1 0 0)" d="M473.1255 569.0554L492.6255 569.0554L492.6255 569.0554L492.6255 626.8054L492.6255 626.8054L473.1255 626.8054z" /></clipPath><clipPath id="26"><path id="" clip-rule="evenodd" transform="matrix(1 0 0 1 0 0)" d="M10.99936 250.6326L244.2493 250.6326L244.2493 250.6326L244.2493 361.6325L244.2493 361.6325L10.99936 361.6325z" /></clipPath><clipPath id="27"><path id="" clip-rule="evenodd" transform="matrix(1 0 0 1 0 0)" d="M0 -0.249939L595.5 -0.249939L595.5 -0.249939L595.5 842.0001L595.5 842.0001L0 842.0001z" /></clipPath><clipPath id="28"><path id="" clip-rule="evenodd" transform="matrix(1 0 0 1 0 0)" d="M0 -0.249939L595.5 -0.249939L595.5 -0.249939L595.5 842.0001L595.5 842.0001L0 842.0001z" /></clipPath><clipPath id="29"><path id="" clip-rule="evenodd" transform="matrix(1 0 0 1 0 0)" d="M262.2924 306.5941L292.6133 306.5941L292.6133 306.5941L292.6133 312.7864L292.6133 312.7864L262.2924 312.7864z" /></clipPath><clipPath id="30"><path id="" clip-rule="evenodd" transform="matrix(1 0 0 1 0 0)" d="M264.329 306.6543L290.5885 306.6543C 291.6785 306.6543 292.5585 307.5343 292.5585 308.6243L292.5585 308.6243L292.5585 310.7542C 292.5585 311.8442 291.6785 312.7242 290.5885 312.7242L290.5885 312.7242L264.329 312.7242C 263.239 312.7242 262.359 311.8442 262.359 310.7542L262.359 310.7542L262.359 308.6243C 262.359 307.5343 263.239 306.6543 264.329 306.6543z" /></clipPath><clipPath id="31"><path id="" clip-rule="evenodd" transform="matrix(1 0 0 1 0 0)" d="M0 -0.249939L595.5 -0.249939L595.5 -0.249939L595.5 842.0001L595.5 842.0001L0 842.0001z" /></clipPath><clipPath id="32"><path id="" clip-rule="evenodd" transform="matrix(1 0 0 1 0 0)" d="M0 -0.249939L595.5 -0.249939L595.5 -0.249939L595.5 842.0001L595.5 842.0001L0 842.0001z" /></clipPath><clipPath id="33"><path id="" clip-rule="evenodd" transform="matrix(1 0 0 1 0 0)" d="M249.1605 300.9356L264.9615 300.9356L264.9615 300.9356L264.9615 318.4448L264.9615 318.4448L249.1605 318.4448z" /></clipPath><clipPath id="34"><path id="" clip-rule="evenodd" transform="matrix(1 0 0 1 0 0)" d="M262.299 301.0244C 261.859 301.0244 261.399 301.1344 260.969 301.3844L260.969 301.3844L250.5792 307.3843C 248.8093 308.4142 248.8093 310.9742 250.5792 311.9941L250.5792 311.9941L260.969 317.9941C 261.399 318.2441 261.849 318.3541 262.299 318.3541C 263.689 318.3541 264.959 317.2441 264.959 315.6941L264.959 315.6941L264.959 303.6943C 264.959 302.1344 263.689 301.0244 262.299 301.0244z" /></clipPath><clipPath id="35"><path id="" clip-rule="evenodd" transform="matrix(1 0 0 1 0 0)" d="M484.6762 77.67572L594.1762 77.67572L594.1762 77.67572L594.1762 187.9257L594.1762 187.9257L484.6762 187.9257z" /></clipPath><clipPath id="36"><path id="" clip-rule="evenodd" transform="matrix(1 0 0 1 0 0)" d="M0 -0.249939L595.5 -0.249939L595.5 -0.249939L595.5 842.0001L595.5 842.0001L0 842.0001z" /></clipPath><clipPath id="37"><path id="" clip-rule="evenodd" transform="matrix(1 0 0 1 0 0)" d="M0 -0.249939L595.5 -0.249939L595.5 -0.249939L595.5 842.0001L595.5 842.0001L0 842.0001z" /></clipPath><clipPath id="38"><path id="" clip-rule="evenodd" transform="matrix(1 0 0 1 0 0)" d="M480.1308 271.0862L559.5164 271.0862L559.5164 271.0862L559.5164 346.6495L559.5164 346.6495L480.1308 346.6495z" /></clipPath><clipPath id="39"><path id="" clip-rule="evenodd" transform="matrix(1 0 0 1 0 0)" d="M522.3033 271.0862C 518.9058 271.0862 516.1008 271.8212 513.4908 273.0287C 507.9108 274.7462 502.4808 277.4987 497.8983 280.9037C 491.8983 285.4112 486.9258 291.2237 483.9483 298.1762C 482.1933 302.2637 481.1958 306.5462 480.6633 310.9787C 480.0933 315.5612 479.7858 320.3837 480.7758 324.8912C 482.5383 332.7662 489.0333 339.0287 496.1058 342.4337C 501.2208 344.8862 506.7483 346.1537 512.3433 346.3562L512.3433 346.3562L515.2383 346.3562L515.2383 346.3562L519.9183 345.9887C 528.5133 344.8412 536.6958 341.4362 544.0308 336.8537C 550.6458 332.7287 557.0283 327.1487 558.8583 319.2362C 560.8833 310.4087 557.4033 301.5812 553.9308 293.6312C 550.6458 286.1762 546.0183 278.6837 538.5258 274.8287L538.5258 274.8287L536.3883 273.8687C 532.8333 272.3012 529.0908 271.4612 525.2283 271.3037L525.2283 271.3037L524.1183 271.1537L524.1183 271.1537L522.3033 271.0862z" /></clipPath><clipPath id="40"><path id="" clip-rule="evenodd" transform="matrix(1 0 0 1 0 0)" d="M480.1308 271.0862L559.5164 271.0862L559.5164 271.0862L559.5164 346.3555L559.5164 346.3555L480.1308 346.3555z" /></clipPath><clipPath id="41"><path id="" clip-rule="evenodd" transform="matrix(1 0 0 1 0 0)" d="M0 -0.249939L595.5 -0.249939L595.5 -0.249939L595.5 842.0001L595.5 842.0001L0 842.0001z" /></clipPath><clipPath id="42"><path id="" clip-rule="evenodd" transform="matrix(1 0 0 1 0 0)" d="M0 -0.249939L595.5 -0.249939L595.5 -0.249939L595.5 842.0001L595.5 842.0001L0 842.0001z" /></clipPath><clipPath id="43"><path id="" clip-rule="evenodd" transform="matrix(1 0 0 1 0 0)" d="M324.9825 246.4107L360.9271 246.4107L360.9271 246.4107L360.9271 280.7538L360.9271 280.7538L324.9825 280.7538z" /></clipPath><clipPath id="44"><path id="" clip-rule="evenodd" transform="matrix(1 0 0 1 0 0)" d="M360.8697 263.6624C 360.8697 265.4424 358.0097 266.7524 357.4798 268.3724C 356.9398 270.0424 358.4697 272.7823 357.4597 274.1723C 356.4398 275.5723 353.3498 274.9623 351.9498 275.9823C 350.5598 276.9923 350.1998 280.1222 348.5298 280.6622C 346.9099 281.1823 344.7799 278.8822 342.9999 278.8822C 341.2199 278.8822 339.0899 281.1823 337.4799 280.6622C 335.81 280.1222 335.45 276.9923 334.06 275.9823C 332.66 274.9623 329.57 275.5723 328.55 274.1723C 327.5401 272.7823 329.07 270.0424 328.5301 268.3724C 328.0101 266.7624 325.1401 265.4524 325.1401 263.6624C 325.1401 261.8724 328.0001 260.5724 328.5301 258.9525C 329.07 257.2825 327.5401 254.5425 328.55 253.1525C 329.57 251.7526 332.66 252.3625 334.06 251.3425C 335.45 250.3325 335.81 247.2026 337.4799 246.6626C 339.0899 246.1426 341.2199 248.4426 342.9999 248.4426C 344.7799 248.4426 346.9099 246.1426 348.5198 246.6626C 350.1898 247.2026 350.5498 250.3325 351.9398 251.3425C 353.3398 252.3625 356.4297 251.7526 357.4498 253.1525C 358.4597 254.5425 356.9297 257.2825 357.4697 258.9525C 357.9897 260.5624 360.8597 261.8724 360.8597 263.6624" /></clipPath><clipPath id="45"><path id="" clip-rule="evenodd" transform="matrix(1 0 0 1 0 0)" d="M0 -0.249939L595.5 -0.249939L595.5 -0.249939L595.5 842.0001L595.5 842.0001L0 842.0001z" /></clipPath><clipPath id="46"><path id="" clip-rule="evenodd" transform="matrix(1 0 0 1 0 0)" d="M0 -0.249939L595.5 -0.249939L595.5 -0.249939L595.5 842.0001L595.5 842.0001L0 842.0001z" /></clipPath><clipPath id="47"><path id="" clip-rule="evenodd" transform="matrix(1 0 0 1 0 0)" d="M324.9825 245.343L361.1051 245.343L361.1051 245.343L361.1051 279.864L361.1051 279.864L324.9825 279.864z" /></clipPath><clipPath id="48"><path id="" clip-rule="evenodd" transform="matrix(1 0 0 1 0 0)" d="M360.7197 262.5924L360.6897 262.2424L360.6897 262.2424L360.6397 262.0724C 360.3997 261.3424 359.7097 260.6824 358.9897 260.0024C 358.2997 259.3524 357.5898 258.6725 357.3398 257.9225C 357.0797 257.1324 357.2697 256.1324 357.4397 255.1725C 357.6597 253.9725 357.8498 252.8625 357.3297 252.1525L357.3297 252.1525L357.1198 251.9025L357.1198 251.9025L356.9797 251.8026C 356.3798 251.3625 355.4498 251.2426 354.4698 251.1025C 353.5198 250.9725 352.5098 250.8425 351.8498 250.3625C 351.1998 249.8926 350.7698 248.9826 350.3598 248.1226C 349.8298 247.0126 349.3298 245.9826 348.4598 245.7026L348.4598 245.7026L348.4998 245.5826L348.4998 245.5826L348.4598 245.7026L348.4598 245.7026L348.1498 245.6326L348.1498 245.6326L347.9899 245.6326C 347.2699 245.6326 346.4599 246.0626 345.5999 246.5326C 344.7399 247.0026 343.8299 247.4926 342.9799 247.4926C 342.1299 247.4926 341.2199 247.0026 340.3599 246.5326C 339.2899 245.9626 338.3199 245.4426 337.5 245.7026L337.5 245.7026L337.46 245.5826L337.46 245.5826L337.5 245.7026L337.5 245.7026L337.19 245.8326L337.19 245.8326L337.05 245.9326C 336.44 246.3726 336.03 247.2226 335.6 248.1226C 335.19 248.9826 334.76 249.8926 334.11 250.3625L334.11 250.3625L334.03 250.2626L334.03 250.2626L334.11 250.3625C 333.45 250.8425 332.45 250.9725 331.49 251.1025C 330.28 251.2626 329.1501 251.4225 328.63 252.1426L328.63 252.1426L328.4601 252.4225L328.4601 252.4225L328.4101 252.5825C 328.1801 253.2825 328.35 254.1925 328.5201 255.1625C 328.69 256.1125 328.8801 257.1225 328.6201 257.9125L328.6201 257.9125L328.5001 257.8725L328.5001 257.8725L328.6201 257.9125C 328.3801 258.6625 327.6601 259.3425 326.9701 259.9924C 326.0701 260.8425 325.2401 261.6525 325.2401 262.5824L325.2401 262.5824L325.2701 262.9224L325.2701 262.9224L325.3201 263.0924C 325.5601 263.8224 326.2501 264.4824 326.9701 265.1624C 327.6601 265.8124 328.3701 266.4924 328.6201 267.2424L328.6201 267.2424L328.5001 267.2823L328.5001 267.2823L328.6201 267.2424C 328.8801 268.0323 328.69 269.0323 328.5201 269.9923C 328.3001 271.1924 328.11 272.3023 328.63 273.0123L328.63 273.0123L328.5301 273.0923L328.5301 273.0923L328.63 273.0123L328.63 273.0123L328.84 273.2623L328.84 273.2623L328.98 273.3623C 329.58 273.8023 330.51 273.9223 331.49 274.0623C 332.44 274.1923 333.45 274.3223 334.11 274.8023L334.11 274.8023L334.03 274.9023L334.03 274.9023L334.11 274.8023C 334.76 275.2723 335.19 276.1823 335.6 277.0422C 336.13 278.1522 336.63 279.1823 337.5 279.4622L337.5 279.4622L337.46 279.5823L337.46 279.5823L337.5 279.4622L337.5 279.4622L337.81 279.5322L337.81 279.5322L337.9699 279.5322C 338.6899 279.5322 339.4999 279.1023 340.3599 278.6323C 341.2199 278.1622 342.1299 277.6722 342.9799 277.6722C 343.8299 277.6722 344.7399 278.1622 345.5999 278.6323C 346.6699 279.2023 347.6398 279.7222 348.4598 279.4622L348.4598 279.4622L348.7698 279.3323L348.7698 279.3323L348.9099 279.2322C 349.5198 278.7922 349.9298 277.9423 350.3598 277.0422C 350.7698 276.1823 351.1998 275.2723 351.8498 274.8023L351.8498 274.8023L351.9298 274.9023L351.9298 274.9023L351.8498 274.8023C 352.5098 274.3223 353.5098 274.1923 354.4698 274.0623C 355.6797 273.9023 356.8097 273.7423 357.3297 273.0223L357.3297 273.0223L357.4997 272.7423L357.4997 272.7423L357.5497 272.5823C 357.7797 271.8823 357.6097 270.9723 357.4397 270.0023C 357.2697 269.0524 357.0797 268.0424 357.3398 267.2524C 357.5797 266.5024 358.2997 265.8224 358.9897 265.1724C 359.8897 264.3224 360.7197 263.5124 360.7197 262.5824L360.7197 262.5824L360.7197 262.5924zM360.9897 262.6124C 360.9897 263.6724 360.0397 264.5724 359.1797 265.3923C 358.4797 266.0624 357.8197 266.6924 357.5997 267.3624L357.5997 267.3624L357.4798 267.3224L357.4798 267.3224L357.5997 267.3624L357.5997 267.3624L357.7097 269.9824C 357.8798 270.9224 358.0598 271.9124 357.8097 272.6923L357.8097 272.6923L357.6697 273.0424L357.6697 273.0424L357.4498 273.1223L357.4498 273.1223L357.5497 273.2023C 356.9497 274.0323 355.6797 274.1923 354.5098 274.3523C 353.5298 274.4823 352.5998 274.6123 352.0098 275.0423C 351.4198 275.4723 351.0198 276.3022 350.5998 277.1823C 350.1798 278.0522 349.7398 278.9823 349.0698 279.4723L349.0698 279.4723L348.7398 279.6823L348.7398 279.6823L348.5099 279.6222L348.5099 279.6222L348.5498 279.7422C 347.6098 280.0522 346.5099 279.4523 345.4899 278.9022C 344.6099 278.4323 343.7599 277.9723 342.9899 277.9723C 342.2199 277.9723 341.3699 278.4222 340.4899 278.9022C 339.6499 279.3523 338.77 279.8322 337.9799 279.8322L337.9799 279.8322L337.61 279.8022L337.61 279.8022L337.43 279.7422C 336.44 279.4222 335.89 278.2522 335.38 277.1823C 334.96 276.3022 334.56 275.4623 333.97 275.0423C 333.37 274.6123 332.45 274.4823 331.47 274.3523C 330.51 274.2223 329.51 274.0923 328.84 273.6123L328.84 273.6123L328.55 273.3623L328.55 273.3623L328.4401 273.2023C 327.8401 272.3823 328.08 271.1423 328.29 269.9824C 328.4701 269.0023 328.63 268.0724 328.4001 267.3624C 328.1801 266.6924 327.5301 266.0624 326.8201 265.3923C 326.1101 264.7224 325.3601 264.0024 325.1001 263.2024L325.1001 263.2024L325.0001 262.8124L325.0001 262.8124L325.1301 262.6124L325.1301 262.6124L325.0001 262.6124C 325.0001 261.5524 325.9501 260.6525 326.8101 259.8325C 327.5101 259.1625 328.17 258.5325 328.3901 257.8624C 328.6201 257.1525 328.4601 256.2225 328.2801 255.2425C 328.11 254.3025 327.9301 253.3125 328.1801 252.5325L328.1801 252.5325L328.32 252.1826L328.32 252.1826L328.5401 252.1025L328.5401 252.1025L328.4301 252.0226C 329.0301 251.1925 330.3 251.0325 331.47 250.8726C 332.45 250.7426 333.38 250.6125 333.97 250.1826C 334.56 249.7526 334.96 248.9226 335.38 248.0426C 335.8 247.1726 336.24 246.2426 336.9099 245.7526L336.9099 245.7526L337.24 245.5426L337.24 245.5426L337.43 245.4826C 338.3699 245.1726 339.4699 245.7726 340.4899 246.3226C 341.3699 246.7926 342.2199 247.2526 342.9899 247.2526L342.9899 247.2526L342.9899 247.3826L342.9899 247.3826L342.9899 247.2526L342.9899 247.2526L345.4899 246.3226C 346.3299 245.8726 347.2099 245.3926 347.9998 245.3926L347.9998 245.3926L348.3698 245.4226L348.3698 245.4226L348.5498 245.4826C 349.5398 245.8026 350.0898 246.9726 350.5998 248.0426C 351.0198 248.9226 351.4198 249.7626 352.0098 250.1826L352.0098 250.1826L351.9298 250.2825L351.9298 250.2825L352.0098 250.1826L352.0098 250.1826L354.5098 250.8726C 355.4698 251.0026 356.4698 251.1326 357.1397 251.6125L357.1397 251.6125L357.4297 251.8625L357.4297 251.8625L357.4397 252.0925L357.4397 252.0925L357.5397 252.0125C 358.1397 252.8325 357.8997 254.0725 357.6897 255.2325C 357.5098 256.2125 357.3497 257.1425 357.5797 257.8525L357.5797 257.8525L357.4597 257.8925L357.4597 257.8925L357.5797 257.8525L357.5797 257.8525L359.1597 259.8224C 359.8597 260.4924 360.6197 261.2024 360.8797 262.0024L360.8797 262.0024L360.9797 262.3925L360.9797 262.3925L360.8497 262.5924L360.8497 262.5924L360.9797 262.5924" /></clipPath><clipPath id="49"><path id="" clip-rule="evenodd" transform="matrix(1 0 0 1 0 0)" d="M0 -0.249939L595.5 -0.249939L595.5 -0.249939L595.5 842.0001L595.5 842.0001L0 842.0001z" /></clipPath><clipPath id="50"><path id="" clip-rule="evenodd" transform="matrix(1 0 0 1 0 0)" d="M0 -0.249939L595.5 -0.249939L595.5 -0.249939L595.5 842.0001L595.5 842.0001L0 842.0001z" /></clipPath><clipPath id="51"><path id="" clip-rule="evenodd" transform="matrix(1 0 0 1 0 0)" d="M340.8195 252.4608L345.0902 252.4608L345.0902 252.4608L345.0902 275.2375L345.0902 275.2375L340.8195 275.2375z" /></clipPath><clipPath id="52"><path id="" clip-rule="evenodd" transform="matrix(1 0 0 1 0 0)" d="M342.9599 275.1423C 341.7599 275.1423 340.9299 274.2723 340.9299 273.0123C 340.9299 271.8123 341.7599 270.8823 342.9599 270.8823C 344.1599 270.8823 345.0599 271.8123 345.0599 273.0123C 345.0599 274.2723 344.1599 275.1423 342.9599 275.1423M342.9299 252.5825C 343.8299 252.5825 344.8299 252.7825 344.8599 253.7125L344.8599 253.7125L344.8299 254.5125C 344.5299 257.5725 343.8699 263.5624 343.5999 267.5223L343.5999 267.5223L342.2999 267.5223C 341.9999 263.5624 341.3999 257.7424 341.1399 255.0425L341.1399 255.0425L341.0399 254.0125C 341.0399 252.8125 341.9999 252.5825 342.9399 252.5825L342.9399 252.5825L342.9299 252.5825z" /></clipPath><clipPath id="53"><path id="" clip-rule="evenodd" transform="matrix(1 0 0 1 0 0)" d="M0 -0.249939L595.5 -0.249939L595.5 -0.249939L595.5 842.0001L595.5 842.0001L0 842.0001z" /></clipPath><clipPath id="54"><path id="" clip-rule="evenodd" transform="matrix(1 0 0 1 0 0)" d="M0 -0.249939L595.5 -0.249939L595.5 -0.249939L595.5 842.0001L595.5 842.0001L0 842.0001z" /></clipPath><clipPath id="55"><path id="" clip-rule="evenodd" transform="matrix(1 0 0 1 0 0)" d="M340.8195 251.571L345.2681 251.571L345.2681 251.571L345.2681 274.7037L345.2681 274.7037L340.8195 274.7037z" /></clipPath><clipPath id="56"><path id="" clip-rule="evenodd" transform="matrix(1 0 0 1 0 0)" d="M342.9799 274.2723C 344.1099 274.2723 344.9499 273.4623 344.9499 272.2723C 344.9499 271.1423 344.1099 270.2723 342.9799 270.2723C 341.8499 270.2723 341.0799 271.1423 341.0799 272.2723C 341.0799 273.4723 341.8599 274.2723 342.9799 274.2723zM342.9799 274.5323C 341.7099 274.5323 340.8199 273.6023 340.8199 272.2723L340.8199 272.2723L340.9499 272.2723L340.9499 272.2723L340.8199 272.2723C 340.8199 271.0123 341.6999 270.0123 342.9799 270.0123L342.9799 270.0123L342.9799 270.1423L342.9799 270.1423L342.9799 270.0123C 344.2499 270.0123 345.2099 271.0023 345.2099 272.2723L345.2099 272.2723L345.0799 272.2723L345.0799 272.2723L345.2099 272.2723C 345.2099 273.6123 344.2499 274.5323 342.9799 274.5323M342.9499 251.9725C 341.9899 251.9725 341.1799 252.2125 341.1799 252.9425L341.1799 252.9425L341.1899 253.2225L341.1899 253.2225L341.1999 253.4025L341.1999 253.4025L341.2299 253.7125L341.2299 253.7125L341.2699 254.1625L341.2699 254.1625L341.1499 254.3025L341.1499 254.3025L341.2799 254.2925L341.2799 254.2925L341.4199 255.7025C 341.7199 258.6925 342.1899 263.4124 342.4399 266.7723L342.4399 266.7723L342.3099 266.7823L342.3099 266.7823L342.3099 266.6523L342.3099 266.6523L343.6099 266.6523L343.6099 266.6523L343.6099 266.7823L343.6099 266.7823L343.4799 266.7723L343.4799 266.7723L343.7799 263.0724C 343.9599 261.1425 344.1599 259.1224 344.3299 257.4125C 344.4599 256.1425 344.5699 255.0425 344.6399 254.2525L344.6399 254.2525L344.7399 253.2925L344.7399 253.2925L344.8699 252.9625L344.8699 252.9625L344.7399 252.9625C 344.7099 252.1625 343.8599 251.9526 342.9399 251.9526L342.9399 251.9526L342.9499 251.9725zM342.9299 251.7225C 343.7999 251.7225 344.9499 251.9125 344.9899 252.9825L344.9899 252.9825L344.9599 253.7925L344.9599 253.7925L344.7599 254.2825L344.7599 254.2825L344.8899 254.2925C 344.8199 255.0825 344.7099 256.1825 344.5799 257.4525L344.5799 257.4525L344.0299 263.1124C 343.9099 264.4224 343.7999 265.6924 343.7299 266.8024L343.7299 266.8024L343.7199 266.9224L343.7199 266.9224L342.1799 266.9224L342.1799 266.9224L342.1699 266.8024C 341.9199 263.4424 341.4499 258.7324 341.1499 255.7325L341.1499 255.7325L341.0099 254.3225L341.0099 254.3225L340.9899 254.0425L340.9899 254.0425L340.9499 253.5725L340.9499 253.5725L340.9399 253.4225L340.9399 253.4225L340.9199 253.0725L340.9199 253.0725L341.0499 252.9425L341.0499 252.9425L340.9199 252.9425C 340.9199 251.9326 342.0399 251.7125 342.9499 251.7125L342.9499 251.7125L342.9499 251.8425L342.9499 251.8425L342.9499 251.7125" /></clipPath><clipPath id="57"><path id="" clip-rule="evenodd" transform="matrix(1 0 0 1 0 0)" d="M0 -0.249939L595.5 -0.249939L595.5 -0.249939L595.5 842.0001L595.5 842.0001L0 842.0001z" /></clipPath><clipPath id="58"><path id="" clip-rule="evenodd" transform="matrix(1 0 0 1 0 0)" d="M0 -0.249939L595.5 -0.249939L595.5 -0.249939L595.5 842.0001L595.5 842.0001L0 842.0001z" /></clipPath><clipPath id="59"><path id="" clip-rule="evenodd" transform="matrix(1 0 0 1 0 0)" d="M394.3877 307.8167L446.1603 267.0125L446.1603 267.0125L459.5525 284.0045L459.5525 284.0045L407.7798 324.8087L407.7798 324.8087L394.3877 307.8167z" /></clipPath><clipPath id="60"><path id="" clip-rule="evenodd" transform="matrix(1 0 0 1 0 0)" d="M407.4447 298.8093C 405.2145 301.9451 402.5381 304.703 399.464 306.9907C 407.7927 308.3704 416.4361 307.7322 424.516 305.2821C 432.933 302.7283 440.9865 298.2048 447.1738 291.8964C 450.5328 288.4789 453.4538 284.2313 453.5727 279.2739L453.5727 279.2739L454.6087 277.8629C 454.4758 283.3853 452.2817 287.4923 449.4214 290.9084C 446.4743 294.42 442.8286 297.388 439.0039 299.889C 431.2414 304.9531 422.237 308.0645 413.0171 308.9138C 408.5397 309.3353 404.0233 309.1931 399.564 308.5061C 402.6668 312.2887 405.1447 316.564 406.8679 321.1502L406.8679 321.1502L406.8756 321.9142L406.8756 321.9142L406.0905 322.5465C 404.0256 317.0811 401.1765 312.369 397.5273 308.2874L397.5273 308.2874L397.4568 308.1808L397.4568 308.1808L397.5068 306.993C 401.2553 304.4981 404.3391 301.5542 406.7869 298.1119L406.7869 298.1119L407.9133 298.1698L407.9133 298.1698L407.4447 298.8093z" /></clipPath><clipPath id="61"><path id="" clip-rule="evenodd" transform="matrix(1 0 0 1 0 0)" d="M0 -0.249939L595.5 -0.249939L595.5 -0.249939L595.5 842.0001L595.5 842.0001L0 842.0001z" /></clipPath><clipPath id="62"><path id="" clip-rule="evenodd" transform="matrix(1 0 0 1 0 0)" d="M0 -0.249939L595.5 -0.249939L595.5 -0.249939L595.5 842.0001L595.5 842.0001L0 842.0001z" /></clipPath><clipPath id="63"><path id="" clip-rule="evenodd" transform="matrix(1 0 0 1 0 0)" d="M409.6642 118.0512L411.0073 214.2374L411.0073 214.2374L337.1763 215.2684L337.1763 215.2684L335.8332 119.0822L335.8332 119.0822L409.6642 118.0512z" /></clipPath><clipPath id="64"><path id="" clip-rule="evenodd" transform="matrix(1 0 0 1 0 0)" d="M375.9856 118.5709C 372.7542 118.5667 370.1084 119.4534 367.6401 121.0195C 362.473 123.2162 357.4429 126.7352 353.1953 131.0832C 347.6333 136.8527 343.0334 144.2788 340.2721 153.1714C 338.6454 158.4017 337.7237 163.8693 337.2298 169.5385C 336.699 175.4057 336.4193 181.556 337.3398 187.324C 338.9724 197.3904 344.9837 205.3996 351.5368 209.7549C 356.7831 213.2291 362.5153 214.7005 368.2764 214.709L368.2764 214.709L373.5969 214.2987C 381.5609 212.8337 389.1388 208.4886 395.9444 202.6227C 402.0666 197.3494 407.9849 190.2112 409.6817 180.0982C 411.5497 168.807 408.3288 157.5176 405.1038 147.3549C 402.0557 137.8319 397.7715 128.2472 390.8349 123.3143L390.8349 123.3143L389.5281 122.4333C 385.5625 120.0973 382.0889 119.0193 378.509 118.8223L378.509 118.8223L376.974 118.5867L376.974 118.5867L375.9856 118.5709z" /></clipPath><clipPath id="65"><path id="" clip-rule="evenodd" transform="matrix(1 0 0 1 0 0)" d="M410.8408 118.0348L412.1839 214.2209L412.1839 214.2209L336.8822 215.2725L336.8822 215.2725L335.5391 119.0863L335.5391 119.0863L410.8408 118.0348z" /></clipPath><clipPath id="66"><path id="" clip-rule="evenodd" transform="matrix(1 0 0 1 0 0)" d="M0 -0.249939L595.5 -0.249939L595.5 -0.249939L595.5 842.0001L595.5 842.0001L0 842.0001z" /></clipPath><clipPath id="67"><path id="" clip-rule="evenodd" transform="matrix(1 0 0 1 0 0)" d="M0 -0.249939L595.5 -0.249939L595.5 -0.249939L595.5 842.0001L595.5 842.0001L0 842.0001z" /></clipPath><clipPath id="68"><path id="" clip-rule="evenodd" transform="matrix(1 0 0 1 0 0)" d="M0 -0.249939L595.5 -0.249939L595.5 -0.249939L595.5 842.0001L595.5 842.0001L0 842.0001z" /></clipPath><clipPath id="69"><path id="" clip-rule="evenodd" transform="matrix(1 0 0 1 0 0)" d="M31.2188 24.27527L309.0717 90.20117L309.0717 90.20117L265.3811 274.3403L265.3811 274.3403L-12.47173 208.4144L-12.47173 208.4144L31.2188 24.27527z" /></clipPath><clipPath id="70"><path id="" clip-rule="evenodd" transform="matrix(1 0 0 1 0 0)" d="M122.2496 46.46423C 100.3611 49.60974 78.38267 53.17377 57.30713 58.53369C 31.90901 64.99249 11.69056 90.76202 10.17954 116.6557C 9.463581 128.9427 12.3623 141.1422 15.89219 152.9299C 21.31347 171.0251 28.57949 189.1555 41.64903 202.7855C 52.75247 214.3672 67.35532 221.9688 82.19617 228.0544C 92.26913 232.1852 102.6243 235.7185 113.2034 238.2286C 119.0246 239.6097 124.9194 240.6808 130.8691 241.3625C 168.6845 245.7209 206.691 234.364 241.3175 218.5551C 258.2892 210.8082 275.7226 201.037 284.4456 184.5476C 295.6221 163.4368 289.4722 137.644 282.1376 114.9114C 278.4511 103.5077 274.2776 91.82935 268.6677 81.19543L268.6677 81.19543L122.2496 46.46423z" /></clipPath><clipPath id="71"><path id="" clip-rule="evenodd" transform="matrix(1 0 0 1 0 0)" d="M17.72887 90.70392L107.7289 90.70392L107.7289 90.70392L107.7289 180.7039L107.7289 180.7039L17.72887 180.7039z" /></clipPath><clipPath id="72"><path id="" clip-rule="evenodd" transform="matrix(1 0 0 1 0 0)" d="M0 -0.249939L595.5 -0.249939L595.5 -0.249939L595.5 842.0001L595.5 842.0001L0 842.0001z" /></clipPath><clipPath id="73"><path id="" clip-rule="evenodd" transform="matrix(1 0 0 1 0 0)" d="M0 -0.249939L595.5 -0.249939L595.5 -0.249939L595.5 842.0001L595.5 842.0001L0 842.0001z" /></clipPath><clipPath id="74"><path id="" clip-rule="evenodd" transform="matrix(1 0 0 1 0 0)" d="M56.73971 172.11L154.8865 172.11L154.8865 172.11L154.8865 204.9114L154.8865 204.9114L56.73971 204.9114z" /></clipPath><clipPath id="75"><path id="" clip-rule="evenodd" transform="matrix(1 0 0 1 0 0)" d="M135.3129 172.1614L133.8329 173.0214L133.8329 173.0214L134.8929 173.5814C 140.0429 176.2914 145.5529 178.1814 151.2729 179.1614C 140.9629 186.8514 128.8429 192.0014 116.2529 194.2914C 111.1829 195.2114 105.9929 195.7014 100.7929 195.7014C 92.53288 195.7014 84.26287 194.4814 76.48287 191.8514C 69.61288 189.5214 62.74287 185.7714 59.20287 179.1115L59.20287 179.1115L56.83287 177.9114C 60.78288 185.3314 66.56287 189.4214 72.75287 192.0714C 79.13287 194.8014 86.09287 196.3114 92.97287 197.0514C 95.94287 197.3715 98.93287 197.5214 101.9229 197.5214C 112.9529 197.5214 123.9929 195.3814 134.2529 191.2415C 140.6029 188.6814 146.6229 185.3414 152.1729 181.3014C 150.5729 188.6115 150.1529 196.1614 150.9429 203.6115L150.9429 203.6115L151.4629 204.6514C 151.8229 204.7914 152.1429 204.8715 152.3929 204.8715C 152.7329 204.8715 152.9329 204.7314 152.8929 204.4014C 151.9929 196.0814 152.6329 187.6714 154.7829 179.5714L154.7829 179.5714L154.8029 179.3715C 155.0829 178.7214 153.9329 177.7914 153.5029 177.7415C 147.1629 177.0014 140.9829 175.1414 135.3129 172.1614z" /></clipPath><clipPath id="76"><path id="" clip-rule="evenodd" transform="matrix(1 0 0 1 0 0)" d="M0 -0.249939L595.5 -0.249939L595.5 -0.249939L595.5 842.0001L595.5 842.0001L0 842.0001z" /></clipPath><clipPath id="77"><path id="" clip-rule="evenodd" transform="matrix(1 0 0 1 0 0)" d="M0 -0.249939L595.5 -0.249939L595.5 -0.249939L595.5 842.0001L595.5 842.0001L0 842.0001z" /></clipPath><clipPath id="78"><path id="" clip-rule="evenodd" transform="matrix(1 0 0 1 0 0)" d="M164.7584 81.68744L216.0765 81.68744L216.0765 81.68744L216.0765 109.1069L216.0765 109.1069L164.7584 109.1069z" /></clipPath><clipPath id="79"><path id="" clip-rule="evenodd" transform="matrix(1 0 0 1 0 0)" d="M212.3609 81.68744L211.5809 81.78491L211.5809 81.78491L210.7034 81.88989L210.7034 81.88989L209.9984 81.98743C 209.1209 82.10742 208.6184 82.16742 208.1159 82.18994L208.1159 82.18994L205.9259 82.25745C 202.9934 82.25745 200.0459 81.94238 197.1134 81.92743L197.1134 81.92743L185.8709 81.98743C 178.8284 82.12988 171.7784 82.42993 164.7584 82.46741L164.7584 82.46741L165.0959 102.8374C 165.1334 104.8549 165.1784 106.8799 165.1934 108.8824L165.1934 108.8824L174.6584 109.0024C 178.4834 108.9799 182.3009 108.7024 186.1259 108.6424L186.1259 108.6424L202.8434 108.7699C 204.8534 108.7699 206.8709 108.7474 208.8809 108.6799L208.8809 108.6799L214.4009 108.6199C 214.9409 108.6424 215.4584 108.6424 215.9984 108.6574L215.9984 108.6574L215.6984 81.68744L215.6984 81.68744L212.3609 81.68744z" /></clipPath><clipPath id="80"><path id="" clip-rule="evenodd" transform="matrix(1 0 0 1 0 0)" d="M164.7584 81.68744L215.9698 81.68744L215.9698 81.68744L215.9698 109.0002L215.9698 109.0002L164.7584 109.0002z" /></clipPath><clipPath id="81"><path id="" clip-rule="evenodd" transform="matrix(1 0 0 1 0 0)" d="M0 -0.249939L595.5 -0.249939L595.5 -0.249939L595.5 842.0001L595.5 842.0001L0 842.0001z" /></clipPath><clipPath id="82"><path id="" clip-rule="evenodd" transform="matrix(1 0 0 1 0 0)" d="M0 -0.249939L595.5 -0.249939L595.5 -0.249939L595.5 842.0001L595.5 842.0001L0 842.0001z" /></clipPath><clipPath id="83"><path id="" clip-rule="evenodd" transform="matrix(1 0 0 1 0 0)" d="M164.6579 113.8744L215.9622 113.8744L215.9622 113.8744L215.9622 140.5151L215.9622 140.5151L164.6579 140.5151z" /></clipPath><clipPath id="84"><path id="" clip-rule="evenodd" transform="matrix(1 0 0 1 0 0)" d="M212.8079 113.8744C 211.0154 113.8744 209.2304 113.9644 207.4379 114.002L207.4379 114.002L184.6904 113.9644L184.6904 113.9644L173.6129 114.3019C 173.4854 114.3019 173.3504 114.3019 173.2229 114.3019L173.2229 114.3019L165.2354 114.1819C 165.2579 117.3619 165.2354 120.5419 165.1604 123.7069L165.1604 123.7069L164.8154 133.1119C 164.7554 135.4144 164.6954 137.7319 164.6579 140.0344L164.6579 140.0344L176.1404 139.757L176.1404 139.757L180.2879 139.7044C 182.6579 139.7044 185.0279 139.7419 187.4054 139.757L187.4054 139.757L198.5879 139.6744C 202.2704 139.6744 205.9304 139.8319 209.5754 140.252L209.5754 140.252L214.7204 140.5144C 214.9004 140.5144 215.0804 140.5144 215.2604 140.4919L215.2604 140.4919L215.3804 137.0119C 215.5004 134.0719 215.6804 131.1094 215.8229 128.1694L215.8229 128.1694L215.9279 123.5869L215.9279 123.5869L215.9279 113.9419L215.9279 113.9419L213.3929 113.8744L213.3929 113.8744L212.8079 113.8744z" /></clipPath><clipPath id="85"><path id="" clip-rule="evenodd" transform="matrix(1 0 0 1 0 0)" d="M164.6579 113.8744L215.9622 113.8744L215.9622 113.8744L215.9622 140.5151L215.9622 140.5151L164.6579 140.5151z" /></clipPath><clipPath id="86"><path id="" clip-rule="evenodd" transform="matrix(1 0 0 1 0 0)" d="M0 -0.249939L595.5 -0.249939L595.5 -0.249939L595.5 842.0001L595.5 842.0001L0 842.0001z" /></clipPath><clipPath id="87"><path id="" clip-rule="evenodd" transform="matrix(1 0 0 1 0 0)" d="M0 -0.249939L595.5 -0.249939L595.5 -0.249939L595.5 842.0001L595.5 842.0001L0 842.0001z" /></clipPath><clipPath id="88"><path id="" clip-rule="evenodd" transform="matrix(1 0 0 1 0 0)" d="M164.7584 144.9656L216.2572 144.9656L216.2572 144.9656L216.2572 172.0869L216.2572 172.0869L164.7584 172.0869z" /></clipPath><clipPath id="89"><path id="" clip-rule="evenodd" transform="matrix(1 0 0 1 0 0)" d="M198.8009 144.9656L188.5334 145.0557C 187.9409 145.0557 187.3559 145.0557 186.7634 145.0482L186.7634 145.0482L175.3859 145.1082C 171.9809 145.2057 168.5834 145.3257 165.1559 145.3481L165.1559 145.3481L164.8559 162.8531C 164.8184 164.2557 164.7809 165.6581 164.7584 167.0607L164.7584 167.0607L164.7584 171.5831L164.7584 171.5831L193.1384 171.9882L193.1384 171.9882L194.3534 171.9882C 196.2584 171.9882 198.1559 171.9656 200.0534 171.9282L200.0534 171.9282L216.2009 171.6282L216.2009 171.6282L216.2009 171.5007C 215.4134 166.4382 216.2009 161.2181 216.1784 156.0956L216.1784 156.0956L215.8034 147.6656C 215.8034 147.0432 215.7809 146.4282 215.7809 145.8057L215.7809 145.8057L215.2184 145.8281C 212.9759 145.8281 211.0559 145.6482 209.1134 145.4307C 205.6859 145.0557 202.2434 144.9656 198.8009 144.9656z" /></clipPath><clipPath id="90"><path id="" clip-rule="evenodd" transform="matrix(1 0 0 1 0 0)" d="M164.7584 144.9656L216.1517 144.9656L216.1517 144.9656L216.1517 171.9814L216.1517 171.9814L164.7584 171.9814z" /></clipPath><clipPath id="91"><path id="" clip-rule="evenodd" transform="matrix(1 0 0 1 0 0)" d="M0 -0.249939L595.5 -0.249939L595.5 -0.249939L595.5 842.0001L595.5 842.0001L0 842.0001z" /></clipPath><clipPath id="92"><path id="" clip-rule="evenodd" transform="matrix(1 0 0 1 0 0)" d="M0 -0.249939L595.5 -0.249939L595.5 -0.249939L595.5 842.0001L595.5 842.0001L0 842.0001z" /></clipPath><clipPath id="93"><path id="" clip-rule="evenodd" transform="matrix(1 0 0 1 0 0)" d="M220.3256 125.1608L271.6437 125.1608L271.6437 125.1608L271.6437 152.5802L271.6437 152.5802L220.3256 152.5802z" /></clipPath><clipPath id="94"><path id="" clip-rule="evenodd" transform="matrix(1 0 0 1 0 0)" d="M267.9281 125.1608L267.1481 125.2583L267.1481 125.2583L266.2706 125.3633L266.2706 125.3633L265.5656 125.4608C 264.688 125.5808 264.1855 125.6408 263.6831 125.6633L263.6831 125.6633L261.4931 125.7308C 258.5605 125.7308 255.6131 125.4158 252.6806 125.4008L252.6806 125.4008L241.4381 125.4608C 234.3956 125.6033 227.3456 125.9033 220.3256 125.9408L220.3256 125.9408L220.6631 146.3108C 220.7006 148.3283 220.7456 150.3533 220.7606 152.3558L220.7606 152.3558L230.2256 152.4758C 234.0506 152.4533 237.8681 152.1758 241.6931 152.1158L241.6931 152.1158L258.4106 152.2433C 260.4206 152.2433 262.438 152.2208 264.4481 152.1533L264.4481 152.1533L269.968 152.0933C 270.5081 152.1158 271.0256 152.1158 271.5656 152.1308L271.5656 152.1308L271.2656 125.1608L271.2656 125.1608L267.9281 125.1608z" /></clipPath><clipPath id="95"><path id="" clip-rule="evenodd" transform="matrix(1 0 0 1 0 0)" d="M220.3256 125.1608L271.537 125.1608L271.537 125.1608L271.537 152.4735L271.537 152.4735L220.3256 152.4735z" /></clipPath><clipPath id="96"><path id="" clip-rule="evenodd" transform="matrix(1 0 0 1 0 0)" d="M0 -0.249939L595.5 -0.249939L595.5 -0.249939L595.5 842.0001L595.5 842.0001L0 842.0001z" /></clipPath><clipPath id="97"><path id="" clip-rule="evenodd" transform="matrix(1 0 0 1 0 0)" d="M0 -0.249939L595.5 -0.249939L595.5 -0.249939L595.5 842.0001L595.5 842.0001L0 842.0001z" /></clipPath><clipPath id="98"><path id="" clip-rule="evenodd" transform="matrix(1 0 0 1 0 0)" d="M219.6388 158.4735L270.9431 158.4735L270.9431 158.4735L270.9431 185.1143L270.9431 185.1143L219.6388 185.1143z" /></clipPath><clipPath id="99"><path id="" clip-rule="evenodd" transform="matrix(1 0 0 1 0 0)" d="M267.7888 158.4735C 265.9963 158.4735 264.2038 158.5635 262.4189 158.6011L262.4189 158.6011L239.6713 158.5635L239.6713 158.5635L228.5938 158.901C 228.4663 158.901 228.3313 158.901 228.2038 158.901L228.2038 158.901L220.2163 158.781C 220.2388 161.9611 220.2163 165.1411 220.1413 168.306L220.1413 168.306L219.7963 177.7111C 219.7363 180.0135 219.6763 182.3311 219.6388 184.6335L219.6388 184.6335L231.1213 184.356L231.1213 184.356L235.2688 184.3035C 237.6388 184.3035 240.0088 184.3411 242.3863 184.356L242.3863 184.356L253.5688 184.2736C 257.2513 184.2736 260.9113 184.431 264.5563 184.8511L264.5563 184.8511L269.7014 185.1135C 269.8813 185.1135 270.0613 185.1135 270.2413 185.0911L270.2413 185.0911L270.3613 181.611C 270.4814 178.671 270.6613 175.7086 270.8038 172.7686L270.8038 172.7686L270.9088 168.186L270.9088 168.186L270.9088 158.541L270.9088 158.541L268.3738 158.4735L268.3738 158.4735L267.7888 158.4735z" /></clipPath><clipPath id="100"><path id="" clip-rule="evenodd" transform="matrix(1 0 0 1 0 0)" d="M219.6388 158.4735L270.9431 158.4735L270.9431 158.4735L270.9431 185.1143L270.9431 185.1143L219.6388 185.1143z" /></clipPath><clipPath id="101"><path id="" clip-rule="evenodd" transform="matrix(1 0 0 1 0 0)" d="M0 -0.249939L595.5 -0.249939L595.5 -0.249939L595.5 842.0001L595.5 842.0001L0 842.0001z" /></clipPath><clipPath id="102"><path id="" clip-rule="evenodd" transform="matrix(1 0 0 1 0 0)" d="M0 -0.249939L595.5 -0.249939L595.5 -0.249939L595.5 842.0001L595.5 842.0001L0 842.0001z" /></clipPath><clipPath id="103"><path id="" clip-rule="evenodd" transform="matrix(1 0 0 1 0 0)" d="M164.7861 174.9383L216.2863 174.9383L216.2863 174.9383L216.2863 202.0603L216.2863 202.0603L164.7861 202.0603z" /></clipPath><clipPath id="104"><path id="" clip-rule="evenodd" transform="matrix(1 0 0 1 0 0)" d="M198.8286 174.9383L188.5611 175.0283C 187.9686 175.0283 187.3836 175.0283 186.7911 175.0208L186.7911 175.0208L175.4136 175.0808C 172.0086 175.1783 168.6111 175.2983 165.1836 175.3208L165.1836 175.3208L164.8836 192.8258C 164.8461 194.2283 164.8086 195.6308 164.7861 197.0333L164.7861 197.0333L164.7861 201.5558L164.7861 201.5558L193.1886 201.9608L193.1886 201.9608L194.3586 201.9608C 196.2636 201.9608 198.1761 201.9383 200.0811 201.9008L200.0811 201.9008L216.2286 201.6008L216.2286 201.6008L216.2286 201.4733C 215.4411 196.4108 216.2286 191.1908 216.2061 186.0683L216.2061 186.0683L215.8311 177.6383C 215.8311 177.0157 215.8086 176.4008 215.8086 175.7783L215.8086 175.7783L215.2461 175.8008C 213.0036 175.8008 211.0836 175.6208 209.1411 175.4033C 205.7136 175.0283 202.2711 174.9383 198.8286 174.9383z" /></clipPath><clipPath id="105"><path id="" clip-rule="evenodd" transform="matrix(1 0 0 1 0 0)" d="M164.7861 174.9383L216.1808 174.9383L216.1808 174.9383L216.1808 201.9548L216.1808 201.9548L164.7861 201.9548z" /></clipPath><clipPath id="106"><path id="" clip-rule="evenodd" transform="matrix(1 0 0 1 0 0)" d="M0 -0.249939L595.5 -0.249939L595.5 -0.249939L595.5 842.0001L595.5 842.0001L0 842.0001z" /></clipPath><clipPath id="107"><path id="" clip-rule="evenodd" transform="matrix(1 0 0 1 0 0)" d="M0 -0.249939L595.5 -0.249939L595.5 -0.249939L595.5 842.0001L595.5 842.0001L0 842.0001z" /></clipPath><clipPath id="108"><path id="" clip-rule="evenodd" transform="matrix(1 0 0 1 0 0)" d="M0 -0.249939L595.5 -0.249939L595.5 -0.249939L595.5 842.0001L595.5 842.0001L0 842.0001z" /></clipPath><clipPath id="109"><path id="" clip-rule="evenodd" transform="matrix(1 0 0 1 0 0)" d="M148.7006 587.1236L263.5161 587.1236L263.5161 587.1236L263.5161 696.0078L263.5161 696.0078L148.7006 696.0078z" /></clipPath><clipPath id="110"><path id="" clip-rule="evenodd" transform="matrix(1 0 0 1 0 0)" d="M208.5017 587.1236C 204.4517 587.2811 200.7017 588.3086 197.1917 589.9286C 189.1517 592.4036 181.3292 596.3711 174.7217 601.2761C 166.0742 607.7711 158.9192 616.1411 154.6217 626.1686C 152.0867 632.0636 150.6542 638.2286 149.8892 644.6186C 149.0642 651.2261 148.6217 658.1636 150.0542 664.6661C 152.5892 676.0136 161.9492 685.0436 172.1342 689.9411C 179.4992 693.4736 187.4717 695.3036 195.5342 695.5886L195.5342 695.5886L199.7042 695.5886L199.7042 695.5886L206.4467 695.0561C 218.8367 693.4061 230.6192 688.5011 241.1942 681.8936C 250.7193 675.9461 259.9142 667.9061 262.5617 656.5061C 265.4792 643.7861 260.4692 631.0661 255.4592 619.6136C 250.7193 608.8736 244.0592 598.0811 233.2592 592.5236L233.2592 592.5236L230.1767 591.1436C 225.0542 588.8861 219.6617 587.6711 214.0967 587.4536L214.0967 587.4536L211.6742 587.1761C 211.3442 587.1536 211.0142 587.1386 210.6917 587.1236L210.6917 587.1236L208.5017 587.1236z" /></clipPath><clipPath id="111"><path id="" clip-rule="evenodd" transform="matrix(1 0 0 1 0 0)" d="M149.1242 587.1236L263.5161 587.1236L263.5161 587.1236L263.5161 695.5841L263.5161 695.5841L149.1242 695.5841z" /></clipPath><clipPath id="112"><path id="" clip-rule="evenodd" transform="matrix(1 0 0 1 0 0)" d="M0 -0.249939L595.5 -0.249939L595.5 -0.249939L595.5 842.0001L595.5 842.0001L0 842.0001z" /></clipPath><clipPath id="113"><path id="" clip-rule="evenodd" transform="matrix(1 0 0 1 0 0)" d="M0 -0.249939L595.5 -0.249939L595.5 -0.249939L595.5 842.0001L595.5 842.0001L0 842.0001z" /></clipPath><clipPath id="114"><path id="" clip-rule="evenodd" transform="matrix(1 0 0 1 0 0)" d="M175.3555 475.295L290.1711 475.295L290.1711 475.295L290.1711 584.1792L290.1711 584.1792L175.3555 584.1792z" /></clipPath><clipPath id="115"><path id="" clip-rule="evenodd" transform="matrix(1 0 0 1 0 0)" d="M235.1567 475.295C 231.1067 475.4525 227.3567 476.48 223.8467 478.1C 215.8067 480.575 207.9842 484.5425 201.3767 489.4475C 192.7292 495.9425 185.5742 504.3126 181.2767 514.34C 178.7417 520.235 177.3092 526.4 176.5442 532.79C 175.7192 539.3975 175.2767 546.335 176.7092 552.8375C 179.2442 564.1851 188.6042 573.215 198.7892 578.1125C 206.1542 581.645 214.1267 583.475 222.1892 583.7601L222.1892 583.7601L226.3592 583.7601L226.3592 583.7601L233.1017 583.2275C 245.4917 581.5776 257.2742 576.6725 267.8492 570.0651C 277.3742 564.1176 286.5692 556.0776 289.2167 544.6776C 292.1342 531.9575 287.1242 519.2375 282.1142 507.7851C 277.3742 497.045 270.7142 486.2526 259.9142 480.695L259.9142 480.695L256.8317 479.3151C 251.7092 477.0576 246.3167 475.8426 240.7517 475.6251L240.7517 475.6251L238.3292 475.3476C 237.9992 475.325 237.6692 475.3101 237.3467 475.295L237.3467 475.295L235.1567 475.295z" /></clipPath><clipPath id="116"><path id="" clip-rule="evenodd" transform="matrix(1 0 0 1 0 0)" d="M175.7792 475.295L290.1711 475.295L290.1711 475.295L290.1711 583.7556L290.1711 583.7556L175.7792 583.7556z" /></clipPath><clipPath id="117"><path id="" clip-rule="evenodd" transform="matrix(1 0 0 1 0 0)" d="M0 -0.249939L595.5 -0.249939L595.5 -0.249939L595.5 842.0001L595.5 842.0001L0 842.0001z" /></clipPath><clipPath id="118"><path id="" clip-rule="evenodd" transform="matrix(1 0 0 1 0 0)" d="M0 -0.249939L595.5 -0.249939L595.5 -0.249939L595.5 842.0001L595.5 842.0001L0 842.0001z" /></clipPath><clipPath id="119"><path id="" clip-rule="evenodd" transform="matrix(1 0 0 1 0 0)" d="M148.7006 367.6325L263.517 367.6325L263.517 367.6325L263.517 476.5175L263.517 476.5175L148.7006 476.5175z" /></clipPath><clipPath id="120"><path id="" clip-rule="evenodd" transform="matrix(1 0 0 1 0 0)" d="M208.5017 367.6325C 204.4517 367.79 200.7017 368.8176 197.1917 370.4376C 189.1517 372.9126 181.3292 376.8801 174.7217 381.7851C 166.0742 388.2801 158.9192 396.6501 154.6217 406.6776C 152.0867 412.5725 150.6542 418.7375 149.8892 425.1276C 149.0642 431.735 148.6217 438.6725 150.0542 445.175C 152.5892 456.5226 161.9492 465.5526 172.1342 470.45C 179.4992 473.9825 187.4717 475.8126 195.5342 476.0976L195.5342 476.0976L199.7042 476.0976L199.7042 476.0976L206.4392 475.5651C 218.8293 473.915 230.6117 469.01 241.1868 462.4026C 250.7117 456.455 259.9067 448.415 262.5543 437.015C 265.4717 424.295 260.4618 411.575 255.4518 400.1226C 250.7193 389.3825 244.0592 378.5901 233.2592 373.0326L233.2592 373.0326L230.1768 371.6526C 225.0542 369.3951 219.6618 368.1801 214.0968 367.9626L214.0968 367.9626L211.6743 367.6851C 211.3442 367.6626 211.0142 367.6476 210.6918 367.6325L210.6918 367.6325L208.5017 367.6325z" /></clipPath><clipPath id="121"><path id="" clip-rule="evenodd" transform="matrix(1 0 0 1 0 0)" d="M149.1242 367.6325L263.517 367.6325L263.517 367.6325L263.517 476.0938L263.517 476.0938L149.1242 476.0938z" /></clipPath><clipPath id="122"><path id="" clip-rule="evenodd" transform="matrix(1 0 0 1 0 0)" d="M0 -0.249939L595.5 -0.249939L595.5 -0.249939L595.5 842.0001L595.5 842.0001L0 842.0001z" /></clipPath><clipPath id="123"><path id="" clip-rule="evenodd" transform="matrix(1 0 0 1 0 0)" d="M0 -0.249939L595.5 -0.249939L595.5 -0.249939L595.5 842.0001L595.5 842.0001L0 842.0001z" /></clipPath><clipPath id="124"><path id="" clip-rule="evenodd" transform="matrix(1 0 0 1 0 0)" d="M117.6586 581.3948L-8.094133 545.853L-8.094133 545.853L39.7081 376.7205L39.7081 376.7205L165.4608 412.2622L165.4608 412.2622L117.6586 581.3948z" /></clipPath><clipPath id="125"><path id="" clip-rule="evenodd" transform="matrix(1 0 0 1 0 0)" d="M49.79322 562.2139C 50.40232 562.386 51.01627 562.541 51.63506 562.6788C 59.06059 564.3329 66.80433 563.7794 74.34722 562.7892C 85.92965 561.2733 97.71705 558.6386 107.344 552.0121C 115.5128 546.3815 121.5977 538.2257 126.7877 529.7615C 132.2483 520.8643 136.9102 511.417 139.7495 501.3712C 146.1615 478.717 143.005 454.3867 136.7856 431.6828C 133.7415 420.5578 129.5033 408.9378 120.3078 401.9755C 116.9735 399.449 113.2704 397.7354 109.3413 396.6249C 99.40706 393.8172 88.0352 394.8831 77.56243 396.4718C 62.33435 398.7917 46.20713 402.2934 35.42812 413.2913C 22.35852 426.6248 20.73199 447.1297 20.37502 465.7979C 19.98051 486.3361 19.02127 507.6595 20.82221 528.1326C 22.19879 543.6499 34.91758 558.0096 49.79322 562.2139z" /></clipPath><clipPath id="126"><path id="" clip-rule="evenodd" transform="matrix(1 0 0 1 0 0)" d="M22.30112 421.3632L135.5511 421.3632L135.5511 421.3632L135.5511 534.6132L135.5511 534.6132L22.30112 534.6132z" /></clipPath><clipPath id="127"><path id="" clip-rule="evenodd" transform="matrix(1 0 0 1 0 0)" d="M0 -0.249939L595.5 -0.249939L595.5 -0.249939L595.5 842.0001L595.5 842.0001L0 842.0001z" /></clipPath><clipPath id="128"><path id="" clip-rule="evenodd" transform="matrix(1 0 0 1 0 0)" d="M0 -0.249939L595.5 -0.249939L595.5 -0.249939L595.5 842.0001L595.5 842.0001L0 842.0001z" /></clipPath><clipPath id="129"><path id="" clip-rule="evenodd" transform="matrix(1 0 0 1 0 0)" d="M75.49406 438.745L68.58286 413.4211L68.58286 413.4211L144.5544 392.6876L144.5544 392.6876L151.4656 418.0114L151.4656 418.0114L75.49406 438.745z" /></clipPath><clipPath id="130"><path id="" clip-rule="evenodd" transform="matrix(1 0 0 1 0 0)" d="M68.58286 413.4211L75.49406 438.745L75.49406 438.745L151.4656 418.0114L151.4656 418.0114L144.5544 392.6876L144.5544 392.6876L68.58286 413.4211z" /></clipPath><clipPath id="131"><path id="" clip-rule="evenodd" transform="matrix(1 0 0 1 0 0)" d="M68.58286 413.4211L75.49406 438.745L75.49406 438.745L151.4656 418.0114L151.4656 418.0114L144.5544 392.6876L144.5544 392.6876L68.58286 413.4211z" /></clipPath><clipPath id="132"><path id="" clip-rule="evenodd" transform="matrix(1 0 0 1 0 0)" d="M0 -0.249939L595.5 -0.249939L595.5 -0.249939L595.5 842.0001L595.5 842.0001L0 842.0001z" /></clipPath><clipPath id="133"><path id="" clip-rule="evenodd" transform="matrix(1 0 0 1 0 0)" d="M0 -0.249939L595.5 -0.249939L595.5 -0.249939L595.5 842.0001L595.5 842.0001L0 842.0001z" /></clipPath><clipPath id="134"><path id="" clip-rule="evenodd" transform="matrix(1 0 0 1 0 0)" d="M0 -0.249939L595.5 -0.249939L595.5 -0.249939L595.5 842.0001L595.5 842.0001L0 842.0001z" /></clipPath><clipPath id="135"><path id="" clip-rule="evenodd" transform="matrix(1 0 0 1 0 0)" d="M126.9525 520.7485L121.8185 501.9366L121.8185 501.9366L177.531 486.7319L177.531 486.7319L182.665 505.5439L182.665 505.5439L126.9525 520.7485z" /></clipPath><clipPath id="136"><path id="" clip-rule="evenodd" transform="matrix(1 0 0 1 0 0)" d="M121.8401 502.0157L126.9741 520.8276L126.9741 520.8276L182.6866 505.623L182.6866 505.623L177.5526 486.811L177.5526 486.811L121.8401 502.0157z" /></clipPath><clipPath id="137"><path id="" clip-rule="evenodd" transform="matrix(1 0 0 1 0 0)" d="M121.8401 502.0157L126.9741 520.8276L126.9741 520.8276L182.6866 505.623L182.6866 505.623L177.5526 486.811L177.5526 486.811L121.8401 502.0157z" /></clipPath><clipPath id="138"><path id="" clip-rule="evenodd" transform="matrix(1 0 0 1 0 0)" d="M0 -0.249939L595.5 -0.249939L595.5 -0.249939L595.5 842.0001L595.5 842.0001L0 842.0001z" /></clipPath><clipPath id="139"><path id="" clip-rule="evenodd" transform="matrix(1 0 0 1 0 0)" d="M0 -0.249939L595.5 -0.249939L595.5 -0.249939L595.5 842.0001L595.5 842.0001L0 842.0001z" /></clipPath><clipPath id="140"><path id="" clip-rule="evenodd" transform="matrix(1 0 0 1 0 0)" d="M74.22625 535.9911L105.9985 522.5459L105.9985 522.5459L145.7496 616.4813L145.7496 616.4813L113.9774 629.9265L113.9774 629.9265L74.22625 535.9911z" /></clipPath><clipPath id="141"><path id="" clip-rule="evenodd" transform="matrix(1 0 0 1 0 0)" d="M74.22625 535.9911L105.9985 522.5459L105.9985 522.5459L145.7496 616.4813L145.7496 616.4813L113.9774 629.9265L113.9774 629.9265L74.22625 535.9911z" /></clipPath><clipPath id="142"><path id="" clip-rule="evenodd" transform="matrix(1 0 0 1 0 0)" d="M74.22625 535.9911L105.9985 522.5459L105.9985 522.5459L145.7496 616.4813L145.7496 616.4813L113.9774 629.9265L113.9774 629.9265L74.22625 535.9911z" /></clipPath><clipPath id="143"><path id="" clip-rule="evenodd" transform="matrix(1 0 0 1 0 0)" d="M0 -0.249939L595.5 -0.249939L595.5 -0.249939L595.5 842.0001L595.5 842.0001L0 842.0001z" /></clipPath><clipPath id="144"><path id="" clip-rule="evenodd" transform="matrix(1 0 0 1 0 0)" d="M489.7608 7.082153L582.0107 7.082153L582.0107 7.082153L582.0107 59.58215L582.0107 59.58215L489.7608 59.58215z" /></clipPath></defs><g transform="matrix(1.333333 0 0 1.333333 0 0)"><g clip-path="url(#1)"><g clip-path="url(#2)"><path id="1" transform="matrix(1 0 0 -1 0 842)" d="M0 842.2499L595.4999 842.2499L595.4999 -6.103516E-05L0 -6.103516E-05z" stroke="none" fill="#FFFFFF" fill-rule="nonzero" /></g><g clip-path="url(#3)"><path id="2" transform="matrix(1 0 0 -1 0 842)" d="M0 842.2499L595.4999 842.2499L595.4999 -6.103516E-05L0 -6.103516E-05z" stroke="none" fill="#FFFFFF" fill-rule="nonzero" /></g><g clip-path="url(#4)"><g clip-path="url(#5)"><g clip-path="url(#6)"><g clip-path="url(#7)"><path id="3" transform="matrix(1 0 0 -1 0 842)" d="M541.1555 661.1373L572.173 661.1373L572.173 567.8423L541.1555 567.8423z" stroke="none" fill="#000000" fill-rule="nonzero" /></g></g></g></g><g clip-path="url(#8)"><g><g clip-path="url(#9)"><g clip-path="url(#10)"><g transform="matrix(0 0.5128205 -0.5127462 0 522.0178 30.75189)"><g transform="matrix(1 0 0 1 0 0)"><image x="0" y="0" xlink:href="img_01.png" width="1521" height="863" /></g></g></g></g></g></g><g clip-path="url(#11)"><g clip-path="url(#12)"><g clip-path="url(#13)"><g clip-path="url(#14)"><g clip-path="url(#15)"><path id="5" transform="matrix(1 0 0 -1 0 842)" d="M553.7745 117.6257C 554.7268 114.3943 555.1779 111.0518 555.0836 107.6962C 560.6042 112.6823 564.8969 118.9784 567.6166 125.8669C 570.4545 133.0498 571.7183 141.0426 570.7266 148.7245C 570.1884 152.8876 568.8362 157.2092 565.4649 159.9783C 565.0222 160.3425 565.052 161.4598 565.7286 160.9041C 568.8112 158.3715 570.4712 154.6304 571.2744 150.8173C 572.1025 146.8871 572.1706 142.7618 571.809 138.7737C 571.0762 130.6862 568.3088 122.8034 563.8538 115.9905C 561.6854 112.674 559.1101 109.6353 556.1959 106.9442C 560.5219 107.027 564.8444 106.4109 568.9747 105.1139C 569.2778 105.0181 569.507 104.7024 569.5594 104.3974C 569.5977 104.1763 569.5117 103.8204 569.2026 103.9173C 564.5878 105.3681 559.7534 105.9593 554.9213 105.6578C 554.864 105.6542 554.8068 105.6661 554.7518 105.6897C 554.4045 105.5809 554.0096 106.3412 554.0286 106.5871C 554.3282 110.2761 553.9714 113.9935 552.9236 117.5477C 552.6754 118.3896 553.5776 118.2914 553.7745 117.6257z" stroke="none" fill="#000000" fill-rule="nonzero" /></g></g></g></g></g><g clip-path="url(#16)"><path id="6" transform="matrix(1 0 0 -1 0 842)" d="M443.3882 146.4204L443.3817 414.1441" stroke="#000000" stroke-width="3" fill="none" /><path id="7" transform="matrix(1 0 0 -1 0 842)" d="M443.3783 414.1396L355.9956 413.94" stroke="#000000" stroke-width="3" fill="none" /><path id="8" transform="matrix(1 0 0 -1 0 842)" d="M355.2559 409.4383L349.2456 413.9246L355.2353 418.4383L355.2559 409.4383z" stroke="none" fill="#000000" fill-rule="nonzero" /><path id="9" transform="matrix(1 0 0 -1 0 842)" d="M355.2559 409.4383L349.2456 413.9246L349.2456 413.9246L355.2353 418.4383L355.2353 418.4383L355.2559 409.4383z" stroke="#000000" stroke-width="3" stroke-linecap="round" fill="none" /><path id="10" transform="matrix(1 0 0 -1 0 842)" d="M442.3599 310.9748L390.246 310.233" stroke="#000000" stroke-width="3" fill="none" /><path id="11" transform="matrix(1 0 0 -1 0 842)" d="M389.5602 305.7228L383.4967 310.1369L389.4321 314.7219L389.5602 305.7228z" stroke="none" fill="#000000" fill-rule="nonzero" /><path id="12" transform="matrix(1 0 0 -1 0 842)" d="M389.5602 305.7228L383.4967 310.1369L383.4967 310.1369L389.4321 314.7219L389.4321 314.7219L389.5602 305.7228z" stroke="#000000" stroke-width="3" stroke-linecap="round" fill="none" /><path id="13" transform="matrix(1 0 0 -1 0 842)" d="M443.3817 195.1459L355.9991 194.9463" stroke="#000000" stroke-width="3" fill="none" /><path id="14" transform="matrix(1 0 0 -1 0 842)" d="M355.2593 190.4446L349.2491 194.9309L355.2388 199.4445L355.2593 190.4446z" stroke="none" fill="#000000" fill-rule="nonzero" /><path id="15" transform="matrix(1 0 0 -1 0 842)" d="M355.2593 190.4446L349.2491 194.9309L349.2491 194.9309L355.2388 199.4445L355.2388 199.4445L355.2593 190.4446z" stroke="#000000" stroke-width="3" stroke-linecap="round" fill="none" /></g><g clip-path="url(#17)"><g transform="matrix(0.3675 0 0 0.3672414 331.3793 677.7312)"><g transform="matrix(1 0 0 1 0 0)"><image x="0" y="0" xlink:href="img_02.png" width="600" height="435" /></g></g></g><g clip-path="url(#18)"><path id="17" transform="matrix(1 0 0 -1 0 842)" d="M363.4886 146.4159L363.4886 39.47057L363.4886 39.47057L549.6057 39.47057L549.6057 39.47057L549.6057 146.4159L549.6057 146.4159L363.4886 146.4159" stroke="#000000" stroke-width="4.5" fill="none" /></g><g clip-path="url(#19)"><g transform="matrix(0.40625 0 0 0.40625 479.8373 520.7487)"><g transform="matrix(1 0 0 1 0 0)"><image x="0" y="0" xlink:href="img_03.png" width="240" height="240" /></g></g></g><g clip-path="url(#20)"></g><g clip-path="url(#21)"><g clip-path="url(#22)"><g clip-path="url(#23)"><g clip-path="url(#24)"><g clip-path="url(#25)"><path id="196" transform="matrix(1 0 0 -1 0 842)" d="M491.5239 229.0571C 490.5716 225.8256 490.1205 222.4831 490.2148 219.1275C 484.6942 224.1136 480.4016 230.4097 477.6818 237.2982C 474.8439 244.4811 473.5801 252.4739 474.5718 260.1558C 475.11 264.3189 476.4622 268.6405 479.8335 271.4096C 480.2762 271.7738 480.2464 272.8911 479.5697 272.3354C 476.4872 269.8028 474.8272 266.0618 474.024 262.2486C 473.1959 258.3184 473.1278 254.1931 473.4894 250.205C 474.2222 242.1175 476.9896 234.2347 481.4445 227.4218C 483.6129 224.1053 486.1883 221.0666 489.1025 218.3755C 484.7765 218.4583 480.454 217.8423 476.3237 216.5452C 476.0206 216.4494 475.7915 216.1337 475.739 215.8287C 475.7008 215.6076 475.7867 215.2517 476.0958 215.3486C 480.7106 216.7994 485.545 217.3906 490.3771 217.0891C 490.4344 217.0855 490.4917 217.0974 490.5465 217.121C 490.8938 217.0122 491.2888 217.7725 491.2697 218.0184C 490.9702 221.7074 491.327 225.4248 492.3748 228.979C 492.623 229.8209 491.7209 229.7227 491.5239 229.0571z" stroke="none" fill="#000000" fill-rule="nonzero" /></g></g></g></g></g><g clip-path="url(#26)"><g transform="matrix(0.6122047 0 0 0.609375 10.99936 247.787)"><g transform="matrix(1 0 0 1 0 0)"><image x="0" y="0" xlink:href="img_04.png" width="381" height="192" /></g></g></g><g clip-path="url(#27)"><g clip-path="url(#28)"><g clip-path="url(#29)"><g clip-path="url(#30)"><path id="198" transform="matrix(1 0 0 -1 0 842)" d="M244.2493 545.9755L297.5244 545.9755L297.5244 518.644L244.2493 518.644z" stroke="none" fill="#8E1419" fill-rule="nonzero" /></g></g></g></g><g clip-path="url(#31)"><g clip-path="url(#32)"><g clip-path="url(#33)"><g clip-path="url(#34)"><path id="199" transform="matrix(1 0 0 -1 0 842)" d="M244.2493 545.9755L297.5244 545.9755L297.5244 518.644L244.2493 518.644z" stroke="none" fill="#8E1419" fill-rule="nonzero" /></g></g></g></g><g clip-path="url(#35)"><g transform="matrix(0.459375 0 0 0.459375 484.6762 77.67572)"><g transform="matrix(1 0 0 1 0 0)"><image x="0" y="0" xlink:href="img_03.png" width="240" height="240" /></g></g></g><g clip-path="url(#36)"><g clip-path="url(#37)"><g clip-path="url(#38)"><g clip-path="url(#39)"><g clip-path="url(#40)"><g transform="matrix(0.6015815 0 0 0.6021541 474.0475 271.0623)"><g transform="matrix(1 0 0 1 0 0)"><image x="0" y="0" xlink:href="img_05.png" width="152" height="125" /></g></g></g></g></g></g></g><g clip-path="url(#41)"><g clip-path="url(#42)"><g clip-path="url(#43)"><g clip-path="url(#44)"><path id="202" transform="matrix(1 0 0 -1 0 842)" d="M320.0001 601.8173L365.9095 601.8173L365.9095 556.2638L320.0001 556.2638z" stroke="none" fill="#ED1C24" fill-rule="nonzero" /></g></g></g></g><g clip-path="url(#45)"><g clip-path="url(#46)"><g clip-path="url(#47)"><g clip-path="url(#48)"><path id="203" transform="matrix(1 0 0 -1 0 842)" d="M320.0001 601.8173L365.9095 601.8173L365.9095 556.2638L320.0001 556.2638z" stroke="none" fill="#231F20" fill-rule="nonzero" /></g></g></g></g><g clip-path="url(#49)"><g clip-path="url(#50)"><g clip-path="url(#51)"><g clip-path="url(#52)"><path id="204" transform="matrix(1 0 0 -1 0 842)" d="M320.0001 601.8173L365.9095 601.8173L365.9095 556.2638L320.0001 556.2638z" stroke="none" fill="#FFFFFF" fill-rule="nonzero" /></g></g></g></g><g clip-path="url(#53)"><g clip-path="url(#54)"><g clip-path="url(#55)"><g clip-path="url(#56)"><path id="205" transform="matrix(1 0 0 -1 0 842)" d="M320.0001 601.8173L365.9095 601.8173L365.9095 556.2638L320.0001 556.2638z" stroke="none" fill="#000000" fill-rule="nonzero" /></g></g></g></g><g clip-path="url(#57)"><g clip-path="url(#58)"><g clip-path="url(#59)"><g clip-path="url(#60)"><path id="206" transform="matrix(1 0 0 -1 0 842)" d="M394.5204 534.2879L445.7621 574.6736L459.1542 557.6816L407.9125 517.2958z" stroke="none" fill="#8E1419" fill-rule="nonzero" /></g></g></g></g><g clip-path="url(#61)"><g clip-path="url(#62)"><g clip-path="url(#63)"><g clip-path="url(#64)"><g clip-path="url(#65)"><g transform="matrix(0.007998501 0.5728133 -0.5716055 0.007981637 416.1854 117.1597)"><g transform="matrix(1 0 0 1 0 0)"><image x="0" y="0" xlink:href="img_06.png" width="171" height="141" /></g></g></g></g></g></g></g><g clip-path="url(#66)"></g><g clip-path="url(#67)"><g clip-path="url(#68)"><g clip-path="url(#69)"><g clip-path="url(#70)"><path id="519" transform="matrix(1 0 0 -1 0 842)" d="M37.46031 844.0303L314.4911 778.2994L264.5591 567.8547L-12.47173 633.5855z" stroke="none" fill="#E2C8B1" fill-rule="nonzero" /></g></g></g></g><g clip-path="url(#71)"><g transform="matrix(0.375 0 0 0.375 17.72887 90.70398)"><g transform="matrix(1 0 0 1 0 0)"><image x="0" y="0" xlink:href="img_03.png" width="240" height="240" /></g></g></g><g clip-path="url(#72)"><g clip-path="url(#73)"><g clip-path="url(#74)"><g clip-path="url(#75)"><path id="521" transform="matrix(1 0 0 -1 0 842)" d="M57.38287 670.0186L154.8865 670.0186L154.8865 637.0886L57.38287 637.0886z" stroke="none" fill="#000000" fill-rule="nonzero" /></g></g></g></g><g clip-path="url(#76)"><g clip-path="url(#77)"><g clip-path="url(#78)"><g clip-path="url(#79)"><g clip-path="url(#80)"><g transform="matrix(0.5831602 0 0 0.5853556 164.7584 73.74646)"><g transform="matrix(1 0 0 1 0 0)"><image x="0" y="0" xlink:href="img_07.png" width="88" height="74" /></g></g></g></g></g></g></g><g clip-path="url(#81)"><g clip-path="url(#82)"><g clip-path="url(#83)"><g clip-path="url(#84)"><g clip-path="url(#85)"><g transform="matrix(0.5764523 0 0 0.5783637 164.6579 112.1509)"><g transform="matrix(1 0 0 1 0 0)"><image x="0" y="0" xlink:href="img_08.png" width="89" height="52" /></g></g></g></g></g></g></g><g clip-path="url(#86)"><g clip-path="url(#87)"><g clip-path="url(#88)"><g clip-path="url(#89)"><g clip-path="url(#90)"><g transform="matrix(0.6058679 0 0 0.6061226 164.7374 134.8624)"><g transform="matrix(1 0 0 1 0 0)"><image x="0" y="0" xlink:href="img_09.png" width="85" height="78" /></g></g></g></g></g></g></g><g clip-path="url(#91)"><g clip-path="url(#92)"><g clip-path="url(#93)"><g clip-path="url(#94)"><g clip-path="url(#95)"><g transform="matrix(0.5639351 0 0 0.5669833 220.3255 119.0168)"><g transform="matrix(1 0 0 1 0 0)"><image x="0" y="0" xlink:href="img_10.png" width="91" height="70" /></g></g></g></g></g></g></g><g clip-path="url(#96)"><g clip-path="url(#97)"><g clip-path="url(#98)"><g clip-path="url(#99)"><g clip-path="url(#100)"><g transform="matrix(0.6181235 0 0 0.616684 219.6388 155.1511)"><g transform="matrix(1 0 0 1 0 0)"><image x="0" y="0" xlink:href="img_11.png" width="83" height="54" /></g></g></g></g></g></g></g><g clip-path="url(#101)"><g clip-path="url(#102)"><g clip-path="url(#103)"><g clip-path="url(#104)"><g clip-path="url(#105)"><g transform="matrix(0.5919563 0 0 0.5916255 164.7651 168.9203)"><g transform="matrix(1 0 0 1 0 0)"><image x="0" y="0" xlink:href="img_12.png" width="87" height="66" /></g></g></g></g></g></g></g><g clip-path="url(#106)"></g><g clip-path="url(#107)"><g clip-path="url(#108)"><g clip-path="url(#109)"><g clip-path="url(#110)"><g clip-path="url(#111)"><g transform="matrix(0.6366435 0 0 0.6342719 146.827 587.1027)"><g transform="matrix(1 0 0 1 0 0)"><image x="0" y="0" xlink:href="img_13.png" width="187" height="171" /></g></g></g></g></g></g></g><g clip-path="url(#112)"><g clip-path="url(#113)"><g clip-path="url(#114)"><g clip-path="url(#115)"><g clip-path="url(#116)"><g transform="matrix(0.6090311 0 0 0.6059245 174.4082 475.2741)"><g transform="matrix(1 0 0 1 0 0)"><image x="0" y="0" xlink:href="img_14.png" width="192" height="179" /></g></g></g></g></g></g></g><g clip-path="url(#117)"><g clip-path="url(#118)"><g clip-path="url(#119)"><g clip-path="url(#120)"><g clip-path="url(#121)"><g transform="matrix(0.63971 0 0 0.6380074 141.577 367.6116)"><g transform="matrix(1 0 0 1 0 0)"><image x="0" y="0" xlink:href="img_15.png" width="202" height="170" /></g></g></g></g></g></g></g><g clip-path="url(#122)"><g clip-path="url(#123)"><g clip-path="url(#124)"><g clip-path="url(#125)"><path id="613" transform="matrix(1 0 0 -1 0 842)" d="M117.1712 260.743L-7.606728 296.0092L40.1955 465.1417L164.9734 429.8755z" stroke="none" fill="#ABD625" fill-rule="nonzero" /></g></g></g></g><g clip-path="url(#126)"><g transform="matrix(0.471875 0 0 0.471875 22.30112 421.3632)"><g transform="matrix(1 0 0 1 0 0)"><image x="0" y="0" xlink:href="img_03.png" width="240" height="240" /></g></g></g><g clip-path="url(#127)"><g clip-path="url(#128)"><g clip-path="url(#129)"><g clip-path="url(#130)"><g clip-path="url(#131)"><path id="615" transform="matrix(1 0 0 -1 0 842)" d="M132.8349 420.441C 136.7476 422.8377 140.9841 424.6234 145.4309 425.7054C 136.9163 431.0851 127.1139 434.3997 117.0897 435.4591C 106.6365 436.5662 95.67592 435.3384 85.92372 431.2931C 80.63886 429.0998 75.43407 425.7926 72.98682 420.4204C 72.66476 419.7147 71.18459 419.3524 71.67568 420.4306C 73.91426 425.3429 78.24635 428.8415 82.977 431.2533C 87.85271 433.7396 93.25446 435.3087 98.62807 436.2707C 109.5249 438.2221 120.8738 437.4576 131.4133 434.1177C 136.544 432.4922 141.4534 430.2384 146.0258 427.4197C 144.3837 433.0081 143.662 438.8426 143.9041 444.6721C 143.9226 445.1001 144.2566 445.511 144.6392 445.6887C 144.9165 445.8177 145.415 445.8338 145.3971 445.3976C 145.1245 438.8838 146.0604 432.3933 148.1695 426.2263C 148.1945 426.1532 148.1992 426.0746 148.1876 425.9948C 148.4537 425.5829 147.5938 424.797 147.2635 424.7335C 142.3054 423.7983 137.5425 422.0005 133.2391 419.364C 132.2199 418.7395 132.0292 419.9464 132.8349 420.441z" stroke="none" fill="#000000" fill-rule="nonzero" /></g></g></g></g></g><g clip-path="url(#132)"></g><g clip-path="url(#133)"><g clip-path="url(#134)"><g clip-path="url(#135)"><g clip-path="url(#136)"><g clip-path="url(#137)"><path id="673" transform="matrix(1 0 0 -1 0 842)" d="M169.0233 333.7898C 171.89 335.5593 174.9958 336.8746 178.2578 337.6671C 171.9942 341.6802 164.79 344.1637 157.4285 344.9738C 149.7518 345.8205 141.7083 344.9353 134.5585 341.9561C 130.684 340.3407 126.8709 337.8985 125.0871 333.9171C 124.8523 333.3941 123.7665 333.1287 124.1245 333.9278C 125.7562 337.5684 128.9282 340.1547 132.3954 341.9335C 135.9688 343.7672 139.9307 344.919 143.8733 345.6201C 151.8683 347.0426 160.2017 346.4482 167.9471 343.9441C 171.7175 342.7254 175.3271 341.041 178.6905 338.938C 177.4716 343.0897 176.9279 347.4218 177.0917 351.7479C 177.1043 352.0656 177.3486 352.3697 177.629 352.5007C 177.8323 352.5958 178.1982 352.6066 178.1861 352.2828C 178.0015 347.4489 178.704 342.6294 180.2671 338.0472C 180.2856 337.9929 180.2892 337.9345 180.2809 337.8753C 180.4773 337.5689 179.8478 336.9877 179.6055 336.9413C 175.9678 336.2591 172.4755 334.9361 169.3226 332.9895C 168.5758 332.5284 168.4329 333.4246 169.0233 333.7898z" stroke="none" fill="#000000" fill-rule="nonzero" /></g></g></g></g></g><g clip-path="url(#138)"><g clip-path="url(#139)"><g clip-path="url(#140)"><g clip-path="url(#141)"><g clip-path="url(#142)"><path id="674" transform="matrix(1 0 0 -1 0 842)" d="M134.4109 247.3125C 135.0831 241.4007 136.6485 235.6537 139.1114 230.2617C 126.685 234.5639 115.3578 241.8433 106.1858 251.1706C 96.61864 260.8953 89.05883 273.0224 85.38802 286.1989C 83.39992 293.3404 82.62888 301.3008 86.21625 308.1286C 86.68702 309.0261 85.86945 310.8226 85.1494 309.4523C 81.86984 303.2082 81.73969 295.9797 83.05527 289.2247C 84.41058 282.2621 87.13876 275.5063 90.47255 269.2699C 97.23218 256.6228 107.1663 245.7113 119.1135 237.7034C 124.929 233.8049 131.2163 230.6389 137.8167 228.2718C 130.7111 225.4236 124.0923 221.4415 118.2552 216.4843C 117.8272 216.1195 117.6711 215.4481 117.7955 214.9158C 117.8854 214.5299 118.2704 214.0104 118.7072 214.3812C 125.228 219.9224 132.6981 224.2172 140.7787 227.0586C 140.8744 227.0923 140.9596 227.151 141.0328 227.2273C 141.6735 227.2899 141.7939 228.7986 141.5935 229.1854C 138.5667 234.9782 136.5898 241.2697 135.851 247.7722C 135.6761 249.3125 134.2737 248.5308 134.4109 247.3125z" stroke="none" fill="#000000" fill-rule="nonzero" /></g></g></g></g></g><g clip-path="url(#143)"></g><g clip-path="url(#144)"><g transform="matrix(0.06065089 0 0 0.0608343 489.7608 7.082153)"><g transform="matrix(1 0 0 1 0 0)"><image x="0" y="0" xlink:href="img_16.png" width="1521" height="863" /></g></g></g></g></g></svg>