<svg xmlns="http://www.w3.org/2000/svg" xmlns:xlink="http://www.w3.org/1999/xlink" id="body_1" preserveAspectRatio="xMinYMin meet" viewBox="0 0 793 1123"><defs><clipPath id="1"><path id="" clip-rule="evenodd" transform="matrix(1 0 0 1 0 0)" d="M0 842L0 -0.25L0 -0.25L595.5 -0.25L595.5 -0.25L595.5 842L595.5 842L0 842z" /></clipPath><clipPath id="2"><path id="" clip-rule="evenodd" transform="matrix(1 0 0 1 0 0)" d="M0 -0.249939L595.5 -0.249939L595.5 -0.249939L595.5 842.0001L595.5 842.0001L0 842.0001z" /></clipPath><clipPath id="3"><path id="" clip-rule="evenodd" transform="matrix(1 0 0 1 0 0)" d="M0 -0.249939L595.5 -0.249939L595.5 -0.249939L595.5 842.0001L595.5 842.0001L0 842.0001z" /></clipPath><clipPath id="4"><path id="" clip-rule="evenodd" transform="matrix(1 0 0 1 0 0)" d="M0 -0.249939L595.5 -0.249939L595.5 -0.249939L595.5 842.0001L595.5 842.0001L0 842.0001z" /></clipPath><clipPath id="5"><path id="" clip-rule="evenodd" transform="matrix(1 0 0 1 0 0)" d="M112.56 339.3501L480.96 339.3501L480.96 339.3501L480.96 537.8301L480.96 537.8301L112.56 537.8301z" /></clipPath><clipPath id="6"><path id="" clip-rule="evenodd" transform="matrix(1 0 0 1 0 0)" d="M123.731 350.7148L471.8722 350.7148L471.8722 350.7148L471.8722 528.2529L471.8722 528.2529L123.731 528.2529z" /></clipPath><clipPath id="7"><path id="" clip-rule="evenodd" transform="matrix(1 0 0 1 0 0)" d="M160.481 350.7148L434.7946 350.7148C 444.5413 350.7148 453.8887 354.5866 460.7807 361.4786C 467.6727 368.3705 471.5446 377.718 471.5446 387.4648L471.5446 387.4648L471.5446 491.5029C 471.5446 501.2496 467.6727 510.597 460.7807 517.489C 453.8887 524.381 444.5413 528.2529 434.7946 528.2529L434.7946 528.2529L160.481 528.2529C 150.7343 528.2529 141.3868 524.381 134.4948 517.489C 127.6029 510.597 123.731 501.2496 123.731 491.5029L123.731 491.5029L123.731 387.4648C 123.731 377.718 127.6029 368.3705 134.4948 361.4786C 141.3868 354.5866 150.7343 350.7148 160.481 350.7148z" /></clipPath><clipPath id="8"><path id="" clip-rule="evenodd" transform="matrix(1 0 0 1 0 0)" d="M123.731 350.7148L471.731 350.7148L471.731 350.7148L471.731 528.4648L471.731 528.4648L123.731 528.4648z" /></clipPath><clipPath id="9"><path id="" clip-rule="evenodd" transform="matrix(1 0 0 1 0 0)" d="M123.741 350.7148L472.5142 350.7148L472.5142 350.7148L472.5142 529.2866L472.5142 529.2866L123.741 529.2866z" /></clipPath><clipPath id="10"><path id="" clip-rule="evenodd" transform="matrix(1 0 0 1 0 0)" d="M160.4888 350.7148L434.7857 350.7148C 444.5319 350.7148 453.8788 354.5864 460.7704 361.4779C 467.6619 368.3695 471.5335 377.7164 471.5335 387.4625L471.5335 387.4625L471.5335 491.4943C 471.5335 501.2404 467.6619 510.5874 460.7704 517.4789C 453.8788 524.3705 444.5319 528.2421 434.7857 528.2421L434.7857 528.2421L160.4888 528.2421C 150.7427 528.2421 141.3958 524.3705 134.5042 517.4789C 127.6127 510.5874 123.741 501.2404 123.741 491.4943L123.741 491.4943L123.741 387.4625C 123.741 377.7164 127.6127 368.3695 134.5042 361.4779C 141.3958 354.5864 150.7427 350.7148 160.4888 350.7148z" /></clipPath><clipPath id="11"><path id="" clip-rule="evenodd" transform="matrix(1 0 0 1 0 0)" d="M407.2192 501.5149L452.2192 501.5149L452.2192 501.5149L452.2192 513.5149L452.2192 513.5149L407.2192 513.5149z" /></clipPath><clipPath id="12"><path id="" clip-rule="evenodd" transform="matrix(1 0 0 1 0 0)" d="M0 -0.249939L595.5 -0.249939L595.5 -0.249939L595.5 842.0001L595.5 842.0001L0 842.0001z" /></clipPath><clipPath id="13"><path id="" clip-rule="evenodd" transform="matrix(1 0 0 1 0 0)" d="M79.67999 2.150085L535.92 2.150085L535.92 2.150085L535.92 806.3901L535.92 806.3901L79.67999 806.3901z" /></clipPath><clipPath id="14"><path id="" clip-rule="evenodd" transform="matrix(1 0 0 1 0 0)" d="M79.74117 2.221558L535.7411 2.221558L535.7411 2.221558L535.7411 805.4716L535.7411 805.4716L79.74117 805.4716z" /></clipPath><clipPath id="15"><path id="" clip-rule="evenodd" transform="matrix(1 0 0 1 0 0)" d="M489.3922 29.22406L571.1422 29.22406L571.1422 29.22406L571.1422 75.72406L571.1422 75.72406L489.3922 75.72406z" /></clipPath><clipPath id="16"><path id="" clip-rule="evenodd" transform="matrix(1 0 0 1 0 0)" d="M7.072427 1.144775L80.57243 1.144775L80.57243 1.144775L80.57243 65.64478L80.57243 65.64478L7.072427 65.64478z" /></clipPath><clipPath id="17"><path id="" clip-rule="evenodd" transform="matrix(1 0 0 1 0 0)" d="M0 -0.249939L595.5 -0.249939L595.5 -0.249939L595.5 842.0001L595.5 842.0001L0 842.0001z" /></clipPath><clipPath id="18"><path id="" clip-rule="evenodd" transform="matrix(1 0 0 1 0 0)" d="M89.52 537.3501L505.68 537.3501L505.68 537.3501L505.68 805.4301L505.68 805.4301L89.52 805.4301z" /></clipPath><clipPath id="19"><path id="" clip-rule="evenodd" transform="matrix(1 0 0 1 0 0)" d="M100.8967 548.5671L495.2828 548.5671L495.2828 548.5671L495.2828 796.025L495.2828 796.025L100.8967 796.025z" /></clipPath><clipPath id="20"><path id="" clip-rule="evenodd" transform="matrix(1 0 0 1 0 0)" d="M137.6467 548.5671L457.6288 548.5671C 467.3755 548.5671 476.7231 552.439 483.6151 559.3309C 490.507 566.2229 494.3789 575.5704 494.3789 585.3171L494.3789 585.3171L494.3789 759.275C 494.3789 769.0217 490.507 778.3693 483.6151 785.2612C 476.7231 792.1532 467.3755 796.025 457.6288 796.025L457.6288 796.025L137.6467 796.025C 127.8999 796.025 118.5524 792.1532 111.6605 785.2612C 104.7685 778.3693 100.8967 769.0217 100.8967 759.275L100.8967 759.275L100.8967 585.3171C 100.8967 575.5704 104.7685 566.2229 111.6605 559.3309C 118.5524 552.439 127.8999 548.5671 137.6467 548.5671z" /></clipPath><clipPath id="21"><path id="" clip-rule="evenodd" transform="matrix(1 0 0 1 0 0)" d="M100.8967 548.5671L494.6467 548.5671L494.6467 548.5671L494.6467 796.0671L494.6467 796.0671L100.8967 796.0671z" /></clipPath><clipPath id="22"><path id="" clip-rule="evenodd" transform="matrix(1 0 0 1 0 0)" d="M100.8997 548.5671L497.1221 548.5671L497.1221 548.5671L497.1221 796.9037L497.1221 796.9037L100.8997 796.9037z" /></clipPath><clipPath id="23"><path id="" clip-rule="evenodd" transform="matrix(1 0 0 1 0 0)" d="M137.6489 548.5671L457.6248 548.5671C 467.3714 548.5671 476.7187 552.4388 483.6105 559.3307C 490.5023 566.2225 494.3741 575.5698 494.3741 585.3163L494.3741 585.3163L494.3741 759.2709C 494.3741 769.0175 490.5023 778.3647 483.6105 785.2566C 476.7187 792.1484 467.3714 796.0202 457.6248 796.0202L457.6248 796.0202L137.6489 796.0202C 127.9024 796.0202 118.5551 792.1484 111.6633 785.2566C 104.7714 778.3647 100.8997 769.0175 100.8997 759.2709L100.8997 759.2709L100.8997 585.3163C 100.8997 575.5698 104.7714 566.2225 111.6633 559.3307C 118.5551 552.4388 127.9024 548.5671 137.6489 548.5671z" /></clipPath><clipPath id="24"><path id="" clip-rule="evenodd" transform="matrix(1 0 0 1 0 0)" d="M0 -0.249939L595.5 -0.249939L595.5 -0.249939L595.5 842.0001L595.5 842.0001L0 842.0001z" /></clipPath><clipPath id="25"><path id="" clip-rule="evenodd" transform="matrix(1 0 0 1 0 0)" d="M0 -0.249939L595.5 -0.249939L595.5 -0.249939L595.5 842.0001L595.5 842.0001L0 842.0001z" /></clipPath><clipPath id="26"><path id="" clip-rule="evenodd" transform="matrix(1 0 0 1 0 0)" d="M324.4433 564.3722L480.4433 564.3722L480.4433 564.3722L480.4433 783.3722L480.4433 783.3722L324.4433 783.3722z" /></clipPath><clipPath id="27"><path id="" clip-rule="evenodd" transform="matrix(1 0 0 1 0 0)" d="M324.4433 581.6222L324.4433 765.9753C 324.4433 775.5023 332.1664 783.2253 341.6933 783.2253L341.6933 783.2253L463.0891 783.2253C 472.6159 783.2253 480.3391 775.5023 480.3391 765.9753L480.3391 765.9753L480.3391 581.6222C 480.3391 572.0953 472.6159 564.3722 463.0891 564.3722L463.0891 564.3722L341.6933 564.3722C 332.1664 564.3722 324.4433 572.0953 324.4433 581.6222z" /></clipPath><clipPath id="28"><path id="" clip-rule="evenodd" transform="matrix(1 0 0 1 0 0)" d="M324.4433 564.3722L480.4433 564.3722L480.4433 564.3722L480.4433 783.3722L480.4433 783.3722L324.4433 783.3722z" /></clipPath><clipPath id="29"><path id="" clip-rule="evenodd" transform="matrix(1 0 0 1 0 0)" d="M409.6292 761.9701L468.8792 761.9701L468.8792 761.9701L468.8792 777.7201L468.8792 777.7201L409.6292 777.7201z" /></clipPath><clipPath id="30"><path id="" clip-rule="evenodd" transform="matrix(1 0 0 1 0 0)" d="M480.2435 300.8234L513.9935 300.8234L513.9935 300.8234L513.9935 309.8234L513.9935 309.8234L480.2435 309.8234z" /></clipPath><clipPath id="31"><path id="" clip-rule="evenodd" transform="matrix(1 0 0 1 0 0)" d="M0 -0.249939L595.5 -0.249939L595.5 -0.249939L595.5 842.0001L595.5 842.0001L0 842.0001z" /></clipPath><clipPath id="32"><path id="" clip-rule="evenodd" transform="matrix(1 0 0 1 0 0)" d="M43.92 123.1101L563.28 123.1101L563.28 123.1101L563.28 341.0301L563.28 341.0301L43.92 341.0301z" /></clipPath><clipPath id="33"><path id="" clip-rule="evenodd" transform="matrix(1 0 0 1 0 0)" d="M55.22493 134.3945L553.8256 134.3945L553.8256 134.3945L553.8256 330.4648L553.8256 330.4648L55.22493 330.4648z" /></clipPath><clipPath id="34"><path id="" clip-rule="evenodd" transform="matrix(1 0 0 1 0 0)" d="M91.97493 134.3945L517.0524 134.3945C 526.7991 134.3945 536.1465 138.2663 543.0385 145.1583C 549.9306 152.0502 553.8023 161.3977 553.8023 171.1444L553.8023 171.1444L553.8023 293.7147C 553.8023 303.4614 549.9306 312.809 543.0385 319.7009C 536.1465 326.5929 526.7991 330.4648 517.0524 330.4648L517.0524 330.4648L91.97493 330.4648C 82.22823 330.4648 72.88071 326.5929 65.98875 319.7009C 59.09679 312.809 55.22493 303.4614 55.22493 293.7147L55.22493 293.7147L55.22493 171.1444C 55.22493 161.3977 59.09679 152.0502 65.98875 145.1583C 72.88071 138.2663 82.22823 134.3945 91.97493 134.3945z" /></clipPath><clipPath id="35"><path id="" clip-rule="evenodd" transform="matrix(1 0 0 1 0 0)" d="M55.22493 134.3945L553.975 134.3945L553.975 134.3945L553.975 330.1444L553.975 330.1444L55.22493 330.1444z" /></clipPath><clipPath id="36"><path id="" clip-rule="evenodd" transform="matrix(1 0 0 1 0 0)" d="M55.2283 134.3945L554.6917 134.3945L554.6917 134.3945L554.6917 332.5056L554.6917 332.5056L55.2283 332.5056z" /></clipPath><clipPath id="37"><path id="" clip-rule="evenodd" transform="matrix(1 0 0 1 0 0)" d="M91.97756 134.3945L517.0465 134.3945C 526.793 134.3945 536.1403 138.2662 543.0322 145.1581C 549.924 152.0499 553.7958 161.3972 553.7958 171.1437L553.7958 171.1437L553.7958 293.7115C 553.7958 303.4581 549.924 312.8054 543.0322 319.6973C 536.1403 326.5891 526.793 330.4608 517.0465 330.4608L517.0465 330.4608L91.97756 330.4608C 82.23105 330.4608 72.88373 326.5891 65.99191 319.6973C 59.10009 312.8054 55.2283 303.4581 55.2283 293.7115L55.2283 293.7115L55.2283 171.1437C 55.2283 161.3972 59.10009 152.0499 65.99191 145.1581C 72.88373 138.2662 82.23105 134.3945 91.97756 134.3945z" /></clipPath><clipPath id="38"><path id="" clip-rule="evenodd" transform="matrix(1 0 0 1 0 0)" d="M0 -0.249939L595.5 -0.249939L595.5 -0.249939L595.5 842.0001L595.5 842.0001L0 842.0001z" /></clipPath><clipPath id="39"><path id="" clip-rule="evenodd" transform="matrix(1 0 0 1 0 0)" d="M0 -0.249939L595.5 -0.249939L595.5 -0.249939L595.5 842.0001L595.5 842.0001L0 842.0001z" /></clipPath><clipPath id="40"><path id="" clip-rule="evenodd" transform="matrix(1 0 0 1 0 0)" d="M424.0462 150.5689L517.6982 150.5689L517.6982 150.5689L517.6982 314.4597L517.6982 314.4597L424.0462 314.4597z" /></clipPath><clipPath id="41"><path id="" clip-rule="evenodd" transform="matrix(1 0 0 1 0 0)" d="M436.7962 150.5689L504.9482 150.5689C 508.3297 150.5689 511.5726 151.9122 513.9637 154.3033C 516.3549 156.6943 517.6982 159.9374 517.6982 163.3189L517.6982 163.3189L517.6982 301.5403C 517.6982 304.9218 516.3549 308.1648 513.9637 310.5558C 511.5726 312.947 508.3297 314.2902 504.9482 314.2902L504.9482 314.2902L436.7962 314.2902C 433.4147 314.2902 430.1717 312.947 427.7806 310.5558C 425.3895 308.1648 424.0462 304.9218 424.0462 301.5403L424.0462 301.5403L424.0462 163.3189C 424.0462 159.9374 425.3895 156.6943 427.7806 154.3033C 430.1717 151.9122 433.4147 150.5689 436.7962 150.5689z" /></clipPath><clipPath id="42"><path id="" clip-rule="evenodd" transform="matrix(1 0 0 1 0 0)" d="M424.0462 150.5689L517.6982 150.5689L517.6982 150.5689L517.6982 314.4597L517.6982 314.4597L424.0462 314.4597z" /></clipPath><clipPath id="43"><path id="" clip-rule="evenodd" transform="matrix(1 0 0 1 0 0)" d="M0 -0.249939L595.5 -0.249939L595.5 -0.249939L595.5 842.0001L595.5 842.0001L0 842.0001z" /></clipPath><clipPath id="44"><path id="" clip-rule="evenodd" transform="matrix(1 0 0 1 0 0)" d="M0 -0.249939L595.5 -0.249939L595.5 -0.249939L595.5 842.0001L595.5 842.0001L0 842.0001z" /></clipPath><clipPath id="45"><path id="" clip-rule="evenodd" transform="matrix(1 0 0 1 0 0)" d="M0 -0.249939L595.5 -0.249939L595.5 -0.249939L595.5 842.0001L595.5 842.0001L0 842.0001z" /></clipPath><clipPath id="46"><path id="" clip-rule="evenodd" transform="matrix(1 0 0 1 0 0)" d="M304.5136 384.2798L459.0136 384.2798L459.0136 384.2798L459.0136 514.0298L459.0136 514.0298L304.5136 514.0298z" /></clipPath><clipPath id="47"><path id="" clip-rule="evenodd" transform="matrix(1 0 0 1 0 0)" d="M304.5136 394.7798L304.5136 502.8072C 304.5136 508.6062 309.2147 513.3072 315.0136 513.3072L315.0136 513.3072L447.9915 513.3072C 453.7905 513.3072 458.4915 508.6062 458.4915 502.8072L458.4915 502.8072L458.4915 394.7798C 458.4915 391.9951 457.3853 389.3243 455.4162 387.3552C 453.447 385.3861 450.7763 384.2798 447.9915 384.2798L447.9915 384.2798L315.0136 384.2798C 309.2147 384.2798 304.5136 388.9808 304.5136 394.7798z" /></clipPath><clipPath id="48"><path id="" clip-rule="evenodd" transform="matrix(1 0 0 1 0 0)" d="M304.5136 384.2798L458.2636 384.2798L458.2636 384.2798L458.2636 513.2798L458.2636 513.2798L304.5136 513.2798z" /></clipPath><clipPath id="49"><path id="" clip-rule="evenodd" transform="matrix(1 0 0 1 0 0)" d="M392.8809 493.739L452.1309 493.739L452.1309 493.739L452.1309 509.489L452.1309 509.489L392.8809 509.489z" /></clipPath><clipPath id="50"><path id="" clip-rule="evenodd" transform="matrix(1 0 0 1 0 0)" d="M0 -0.249939L595.5 -0.249939L595.5 -0.249939L595.5 842.0001L595.5 842.0001L0 842.0001z" /></clipPath><clipPath id="51"><path id="" clip-rule="evenodd" transform="matrix(1 0 0 1 0 0)" d="M0 -0.249939L595.5 -0.249939L595.5 -0.249939L595.5 842.0001L595.5 842.0001L0 842.0001z" /></clipPath><clipPath id="52"><path id="" clip-rule="evenodd" transform="matrix(1 0 0 1 0 0)" d="M338.4308 440.2306L356.4308 440.2306L356.4308 440.2306L356.4308 449.2306L356.4308 449.2306L338.4308 449.2306z" /></clipPath><clipPath id="53"><path id="" clip-rule="evenodd" transform="matrix(1 0 0 1 0 0)" d="M338.4308 444.512C 338.4308 446.8766 340.3477 448.7935 342.7122 448.7935L342.7122 448.7935L351.6246 448.7935C 353.9891 448.7935 355.906 446.8766 355.906 444.512C 355.906 442.1475 353.9891 440.2306 351.6246 440.2306L351.6246 440.2306L342.7122 440.2306C 340.3477 440.2306 338.4308 442.1475 338.4308 444.512z" /></clipPath><clipPath id="54"><path id="" clip-rule="evenodd" transform="matrix(1 0 0 1 0 0)" d="M338.4308 440.2306L355.6808 440.2306L355.6808 440.2306L355.6808 448.4806L355.6808 448.4806L338.4308 448.4806z" /></clipPath><clipPath id="55"><path id="" clip-rule="evenodd" transform="matrix(1 0 0 1 0 0)" d="M338.4308 440.2306L355.6808 440.2306L355.6808 440.2306L355.6808 448.4806L355.6808 448.4806L338.4308 448.4806z" /></clipPath><clipPath id="56"><path id="" clip-rule="evenodd" transform="matrix(1 0 0 1 0 0)" d="M357.7905 376.0943L447.0405 376.0943L447.0405 376.0943L447.0405 465.3443L447.0405 465.3443L357.7905 465.3443z" /></clipPath><clipPath id="57"><path id="" clip-rule="evenodd" transform="matrix(1 0 0 1 0 0)" d="M0 -0.249939L595.5 -0.249939L595.5 -0.249939L595.5 842.0001L595.5 842.0001L0 842.0001z" /></clipPath></defs><g transform="matrix(1.333333 0 0 1.333333 0 0)"><g clip-path="url(#1)"><g clip-path="url(#2)"><path id="1" transform="matrix(1 0 0 -1 0 842)" d="M0 842.2499L595.4999 842.2499L595.4999 -6.103516E-05L0 -6.103516E-05z" stroke="none" fill="#FFFFFF" fill-rule="nonzero" /></g><g clip-path="url(#3)"><path id="2" transform="matrix(1 0 0 -1 0 842)" d="M0 842.2499L595.4999 842.2499L595.4999 -6.103516E-05L0 -6.103516E-05z" stroke="none" fill="#E9FCFF" fill-rule="nonzero" /></g><g clip-path="url(#4)"><g><g clip-path="url(#5)"><g clip-path="url(#6)"><g clip-path="url(#7)"><path id="3" transform="matrix(1 0 0 -1 0 842)" d="M123.731 491.2852L471.8721 491.2852L471.8721 313.7471L123.731 313.7471z" stroke="none" fill="#235B91" fill-rule="nonzero" fill-opacity="0.2392157" /></g></g><g clip-path="url(#8)"><g clip-path="url(#9)"><g clip-path="url(#10)"><path id="4" transform="matrix(1 0 0 -1 0 842)" d="M160.4888 491.2852L434.7857 491.2852C 444.5319 491.2852 453.8788 487.4136 460.7703 480.522C 467.6619 473.6305 471.5335 464.2836 471.5335 454.5374L471.5335 454.5374L471.5335 350.5056C 471.5335 340.7595 467.6619 331.4126 460.7703 324.5211C 453.8788 317.6295 444.5319 313.7579 434.7857 313.7579L434.7857 313.7579L160.4888 313.7579C 150.7427 313.7579 141.3957 317.6295 134.5042 324.5211C 127.6126 331.4126 123.741 340.7595 123.741 350.5056L123.741 350.5056L123.741 454.5374C 123.741 464.2836 127.6126 473.6305 134.5042 480.522C 141.3957 487.4136 150.7427 491.2852 160.4888 491.2852z" stroke="#000000" stroke-width="4.5" fill="none" /></g></g></g></g></g></g><g clip-path="url(#11)"><g transform="matrix(0.5487804 0 0 0.5454545 407.2192 501.5149)"><g transform="matrix(1 0 0 1 0 0)"><image x="0" y="0" xlink:href="img_01.png" width="82" height="22" /></g></g></g><g clip-path="url(#12)"><g><g clip-path="url(#13)"><g clip-path="url(#14)"><g transform="matrix(0 0.5281065 -0.5283893 0 535.7411 2.221619)"><g transform="matrix(1 0 0 1 0 0)"><image x="0" y="0" xlink:href="img_02.png" width="1521" height="863" /></g></g></g></g></g></g><g clip-path="url(#15)"><g transform="matrix(0.05374753 0 0 0.0538818 489.3922 29.22412)"><g transform="matrix(1 0 0 1 0 0)"><image x="0" y="0" xlink:href="img_03.png" width="1521" height="863" /></g></g></g><g clip-path="url(#16)"><g transform="matrix(0.459375 0 0 0.4574468 7.072427 1.144775)"><g transform="matrix(1 0 0 1 0 0)"><image x="0" y="0" xlink:href="img_04.png" width="160" height="141" /></g></g></g><g clip-path="url(#17)"><g><g clip-path="url(#18)"><g clip-path="url(#19)"><g clip-path="url(#20)"><path id="9" transform="matrix(1 0 0 -1 0 842)" d="M100.8967 293.4329L494.3162 293.4329L494.3162 45.9749L100.8967 45.9749z" stroke="none" fill="#235B91" fill-rule="nonzero" fill-opacity="0.2392157" /></g></g><g clip-path="url(#21)"><g clip-path="url(#22)"><g clip-path="url(#23)"><path id="10" transform="matrix(1 0 0 -1 0 842)" d="M137.6489 293.4329L457.6248 293.4329C 467.3713 293.4329 476.7187 289.5611 483.6105 282.6693C 490.5023 275.7775 494.3741 266.4301 494.3741 256.6836L494.3741 256.6836L494.3741 82.72908C 494.3741 72.98253 490.5023 63.63522 483.6105 56.74341C 476.7187 49.85158 467.3713 45.97978 457.6248 45.97978L457.6248 45.97978L137.6489 45.97978C 127.9024 45.97978 118.5551 49.85158 111.6633 56.74341C 104.7714 63.63522 100.8997 72.98253 100.8997 82.72908L100.8997 82.72908L100.8997 256.6836C 100.8997 266.4301 104.7714 275.7775 111.6633 282.6693C 118.5551 289.5611 127.9024 293.4329 137.6489 293.4329z" stroke="#000000" stroke-width="4.499999" fill="none" /></g></g></g></g></g></g><g clip-path="url(#24)"><g clip-path="url(#25)"><g clip-path="url(#26)"><g clip-path="url(#27)"><g clip-path="url(#28)"><g transform="matrix(0.5750389 0 0 0.5763358 110.2513 557.0093)"><g transform="matrix(1 0 0 1 0 0)"><image x="0" y="0" xlink:href="img_05.png" width="643" height="393" /></g></g></g></g></g></g></g><g clip-path="url(#29)"><g transform="matrix(0.5984848 0 0 0.6057692 409.6292 761.9701)"><g transform="matrix(1 0 0 1 0 0)"><image x="0" y="0" xlink:href="img_06.png" width="99" height="26" /></g></g></g><g clip-path="url(#30)"><g transform="matrix(0.4115853 0 0 0.4090909 480.2435 300.8234)"><g transform="matrix(1 0 0 1 0 0)"><image x="0" y="0" xlink:href="img_01.png" width="82" height="22" /></g></g></g><g clip-path="url(#31)"><g><g clip-path="url(#32)"><g clip-path="url(#33)"><g clip-path="url(#34)"><path id="14" transform="matrix(1 0 0 -1 0 842)" d="M55.22493 707.6055L553.8256 707.6055L553.8256 511.5352L55.22493 511.5352z" stroke="none" fill="#235B91" fill-rule="nonzero" fill-opacity="0.2392157" /></g></g><g clip-path="url(#35)"><g clip-path="url(#36)"><g clip-path="url(#37)"><path id="15" transform="matrix(1 0 0 -1 0 842)" d="M91.97755 707.6055L517.0464 707.6055C 526.793 707.6055 536.1403 703.7338 543.0321 696.8419C 549.924 689.9501 553.7957 680.6028 553.7957 670.8563L553.7957 670.8563L553.7957 548.2884C 553.7957 538.5419 549.924 529.1946 543.0321 522.3027C 536.1403 515.4109 526.793 511.5391 517.0464 511.5391L517.0464 511.5391L91.97755 511.5391C 82.23105 511.5391 72.88373 515.4109 65.99191 522.3027C 59.10008 529.1946 55.2283 538.5419 55.2283 548.2884L55.2283 548.2884L55.2283 670.8563C 55.2283 680.6028 59.10008 689.9501 65.99191 696.8419C 72.88373 703.7338 82.23105 707.6055 91.97755 707.6055z" stroke="#000000" stroke-width="4.5" fill="none" /></g></g></g></g></g></g><g clip-path="url(#38)"><g clip-path="url(#39)"><g clip-path="url(#40)"><g clip-path="url(#41)"><g clip-path="url(#42)"><g transform="matrix(0.4335735 0 0 0.4334677 424.0462 149.1835)"><g transform="matrix(1 0 0 1 0 0)"><image x="0" y="0" xlink:href="img_07.png" width="216" height="384" /></g></g></g></g></g></g></g><g clip-path="url(#43)"></g><g clip-path="url(#44)"><g clip-path="url(#45)"><g clip-path="url(#46)"><g clip-path="url(#47)"><g clip-path="url(#48)"><g transform="matrix(0.3640625 0 0 0.3645833 283.3943 384.2799)"><g transform="matrix(1 0 0 1 0 0)"><image x="0" y="0" xlink:href="img_08.png" width="480" height="360" /></g></g></g></g></g></g></g><g clip-path="url(#49)"><g transform="matrix(0.5984848 0 0 0.6057692 392.8809 493.739)"><g transform="matrix(1 0 0 1 0 0)"><image x="0" y="0" xlink:href="img_06.png" width="99" height="26" /></g></g></g><g clip-path="url(#50)"><g clip-path="url(#51)"><g clip-path="url(#52)"><g clip-path="url(#53)"><g clip-path="url(#54)"><g clip-path="url(#55)"><path id="234" transform="matrix(1 0 0 -1 0 842)" d="M347.1671 401.7658C 342.3411 401.7658 338.4308 399.8508 338.4308 397.492C 338.4308 395.1332 342.3411 393.2182 347.1671 393.2182C 351.993 393.2182 355.9034 395.1297 355.9034 397.492C 355.9034 399.8508 351.993 401.7658 347.1671 401.7658zM347.1671 401.2416C 348.3098 401.2416 349.4176 401.1333 350.4624 400.9167C 351.4584 400.7105 352.353 400.4169 353.1148 400.043C 353.8416 399.6866 354.4322 399.2603 354.8201 398.813C 355.1905 398.3831 355.3792 397.9393 355.3792 397.492C 355.3792 397.0447 355.1905 396.6009 354.8201 396.1711C 354.4322 395.7238 353.8416 395.2975 353.1148 394.941C 352.353 394.5671 351.4584 394.2736 350.4624 394.0674C 349.4211 393.8507 348.3133 393.7424 347.1671 393.7424C 346.0209 393.7424 344.9166 393.8507 343.8717 394.0674C 342.8758 394.2736 341.9812 394.5671 341.2194 394.941C 340.4925 395.2975 339.9019 395.7238 339.5141 396.1711C 339.1436 396.6009 338.9549 397.0447 338.9549 397.492C 338.9549 397.9393 339.1436 398.3831 339.5141 398.813C 339.9019 399.2603 340.4925 399.6866 341.2194 400.043C 341.9812 400.4169 342.8758 400.7105 343.8717 400.9167C 344.9166 401.1298 346.0244 401.2416 347.1671 401.2416" stroke="none" fill="#FF3131" fill-rule="nonzero" /></g></g></g></g></g></g><g clip-path="url(#56)"><path id="235" transform="matrix(1 0 0 -1 0 842)" d="M402.3862 463.1529C 379.2625 463.1529 360.5433 444.4337 360.5433 421.31C 360.5433 398.1863 379.2625 379.4671 402.3862 379.4671C 425.5099 379.4671 444.2291 398.1863 444.2291 421.31C 444.2291 444.4337 425.3723 463.1529 402.3862 463.1529zM402.3862 376.7143C 377.7485 376.7143 357.7905 396.8099 357.7905 421.31C 357.7905 445.8101 377.7485 465.9057 402.3862 465.9057C 427.024 465.9057 446.9819 445.9478 446.9819 421.31C 446.9819 396.6722 426.8864 376.7143 402.3862 376.7143z" stroke="none" fill="#E13131" fill-rule="nonzero" /></g><g clip-path="url(#57)"></g></g></g></svg>