<svg xmlns="http://www.w3.org/2000/svg" xmlns:xlink="http://www.w3.org/1999/xlink" id="body_1" preserveAspectRatio="xMinYMin meet" viewBox="0 0 793 1123"><defs><clipPath id="1"><path id="" clip-rule="evenodd" transform="matrix(1 0 0 1 0 0)" d="M0 842L0 -0.25L0 -0.25L595.5 -0.25L595.5 -0.25L595.5 842L595.5 842L0 842z" /></clipPath><clipPath id="2"><path id="" clip-rule="evenodd" transform="matrix(1 0 0 1 0 0)" d="M0 -0.249939L595.5 -0.249939L595.5 -0.249939L595.5 842.0001L595.5 842.0001L0 842.0001z" /></clipPath><clipPath id="3"><path id="" clip-rule="evenodd" transform="matrix(1 0 0 1 0 0)" d="M0 -0.249939L595.5 -0.249939L595.5 -0.249939L595.5 842.0001L595.5 842.0001L0 842.0001z" /></clipPath><clipPath id="4"><path id="" clip-rule="evenodd" transform="matrix(1 0 0 1 0 0)" d="M0 -0.249939L595.5 -0.249939L595.5 -0.249939L595.5 842.0001L595.5 842.0001L0 842.0001z" /></clipPath><clipPath id="5"><path id="" clip-rule="evenodd" transform="matrix(1 0 0 1 0 0)" d="M79.67999 18.95007L535.92 18.95007L535.92 18.95007L535.92 823.1901L535.92 823.1901L79.67999 823.1901z" /></clipPath><clipPath id="6"><path id="" clip-rule="evenodd" transform="matrix(1 0 0 1 0 0)" d="M79.74117 19.05255L535.7411 19.05255L535.7411 19.05255L535.7411 822.3026L535.7411 822.3026L79.74117 822.3026z" /></clipPath><clipPath id="7"><path id="" clip-rule="evenodd" transform="matrix(1 0 0 1 0 0)" d="M500.1459 11.00061L584.8959 11.00061L584.8959 11.00061L584.8959 59.00061L584.8959 59.00061L500.1459 59.00061z" /></clipPath><clipPath id="8"><path id="" clip-rule="evenodd" transform="matrix(1 0 0 1 0 0)" d="M366.8942 506.5777L561.8942 506.5777L561.8942 506.5777L561.8942 553.8277L561.8942 553.8277L366.8942 553.8277z" /></clipPath><clipPath id="9"><path id="" clip-rule="evenodd" transform="matrix(1 0 0 1 0 0)" d="M519.1078 542.7986L555.8578 542.7986L555.8578 542.7986L555.8578 596.7986L555.8578 596.7986L519.1078 596.7986z" /></clipPath><clipPath id="10"><path id="" clip-rule="evenodd" transform="matrix(1 0 0 1 0 0)" d="M368.5328 618.9872L563.5328 618.9872L563.5328 618.9872L563.5328 666.2372L563.5328 666.2372L368.5328 666.2372z" /></clipPath><clipPath id="11"><path id="" clip-rule="evenodd" transform="matrix(1 0 0 1 0 0)" d="M521.0158 655.1063L557.7658 655.1063L557.7658 655.1063L557.7658 709.1063L557.7658 709.1063L521.0158 709.1063z" /></clipPath><clipPath id="12"><path id="" clip-rule="evenodd" transform="matrix(1 0 0 1 0 0)" d="M368.5328 723.6609L563.5328 723.6609L563.5328 723.6609L563.5328 770.9109L563.5328 770.9109L368.5328 770.9109z" /></clipPath><clipPath id="13"><path id="" clip-rule="evenodd" transform="matrix(1 0 0 1 0 0)" d="M0 -0.249939L595.5 -0.249939L595.5 -0.249939L595.5 842.0001L595.5 842.0001L0 842.0001z" /></clipPath><clipPath id="14"><path id="" clip-rule="evenodd" transform="matrix(1 0 0 1 0 0)" d="M524.3483 758.6561L564.0983 758.6561L564.0983 758.6561L564.0983 817.9061L564.0983 817.9061L524.3483 817.9061z" /></clipPath><clipPath id="15"><path id="" clip-rule="evenodd" transform="matrix(1 0 0 1 0 0)" d="M49.6283 167.5764L557.3783 167.5764L557.3783 167.5764L557.3783 472.0764L557.3783 472.0764L49.6283 472.0764z" /></clipPath><clipPath id="16"><path id="" clip-rule="evenodd" transform="matrix(1 0 0 1 0 0)" d="M0 -0.249939L595.5 -0.249939L595.5 -0.249939L595.5 842.0001L595.5 842.0001L0 842.0001z" /></clipPath></defs><g transform="matrix(1.333333 0 0 1.333333 0 0)"><g clip-path="url(#1)"><g clip-path="url(#2)"><path id="1" transform="matrix(1 0 0 -1 0 842)" d="M0 842.2499L595.4999 842.2499L595.4999 -6.103516E-05L0 -6.103516E-05z" stroke="none" fill="#FFFFFF" fill-rule="nonzero" /></g><g clip-path="url(#3)"><path id="2" transform="matrix(1 0 0 -1 0 842)" d="M0 842.2499L595.4999 842.2499L595.4999 -6.103516E-05L0 -6.103516E-05z" stroke="none" fill="#FFFFFF" fill-rule="nonzero" /></g><g clip-path="url(#4)"><g><g clip-path="url(#5)"><g clip-path="url(#6)"><g transform="matrix(0 0.5281065 -0.5283893 0 535.7411 19.05261)"><g transform="matrix(1 0 0 1 0 0)"><image x="0" y="0" xlink:href="img_01.png" width="1521" height="863" /></g></g></g></g></g></g><g clip-path="url(#7)"><g transform="matrix(0.05571992 0 0 0.05561992 500.1458 11.00061)"><g transform="matrix(1 0 0 1 0 0)"><image x="0" y="0" xlink:href="img_02.png" width="1521" height="863" /></g></g></g><g clip-path="url(#8)"><path id="5" transform="matrix(1 0 0 -1 0 842)" d="M560.0989 290.6051C 562.2809 292.7867 562.6489 296.6623 562.6489 304.5242L562.6489 304.5242L562.6489 316.1696C 562.6489 324.0315 562.2809 327.907 560.0989 330.0888C 559.6129 330.5748 559.0429 330.9708 558.3635 331.2928L558.3635 331.2928L558.3572 331.2958L558.3572 331.2958L552.4749 334.0766L552.4749 334.0766L552.4686 334.0796C 550.0977 335.2003 546.3966 335.4223 540.2917 335.4223L540.2917 335.4223L382.8875 335.4223C 375.0261 335.4223 371.1508 335.0541 368.9692 332.8726C 368.6353 332.5387 368.3438 332.1651 368.0897 331.7436C 366.6835 329.4115 366.4195 325.6128 366.4195 318.955L366.4195 318.955L366.4195 307.3108C 366.4195 299.4497 366.7876 295.5746 368.9692 293.3931C 369.4537 292.9088 370.0216 292.5138 370.6982 292.1922C 370.7003 292.1914 370.7024 292.1901 370.7046 292.1893L370.7046 292.1893L376.5611 289.4072L376.5611 289.4072L376.5674 289.4043L376.5674 289.4043L376.5738 289.4009C 378.9446 288.2778 382.6472 288.0551 388.758 288.0551L388.758 288.0551L546.179 288.0551C 554.0413 288.0551 557.9169 288.4231 560.0989 290.6051z" stroke="none" fill="#000000" fill-rule="nonzero" /><path id="6" transform="matrix(1 0 0 -1 0 842)" d="M540.2921 335.1163C 555.281 335.1163 556.454 333.9434 556.454 318.955L556.454 318.955L556.454 307.3108C 556.454 292.3224 555.281 291.1494 540.2921 291.1494L540.2921 291.1494L382.8875 291.1494C 367.8985 291.1494 366.7255 292.3224 366.7255 307.3108L366.7255 307.3108L366.7255 318.955C 366.7255 333.9434 367.8985 335.1163 382.8875 335.1163L382.8875 335.1163L540.2921 335.1163z" stroke="none" fill="#7ED957" fill-rule="nonzero" /><path id="7" transform="matrix(1 0 0 -1 0 842)" d="M540.2921 335.1163C 555.281 335.1163 556.454 333.9434 556.454 318.955L556.454 318.955L556.454 307.3108C 556.454 292.3224 555.281 291.1494 540.2921 291.1494L540.2921 291.1494L382.8875 291.1494C 367.8985 291.1494 366.7255 292.3224 366.7255 307.3108L366.7255 307.3108L366.7255 318.955C 366.7255 333.9434 367.8985 335.1163 382.8875 335.1163L382.8875 335.1163L540.2921 335.1163z" stroke="#000000" stroke-width="0.422544" fill="none" /></g><g clip-path="url(#9)"><path id="8" transform="matrix(1 0 0 -1 0 842)" d="M540.6302 286.9843C 540.5162 287.5063 540.8492 288.0216 541.3746 288.1349L541.3746 288.1349L545.9503 289.1256C 546.4756 289.2389 546.9943 288.9079 547.1083 288.3859C 547.2223 287.8639 546.8892 287.3485 546.3639 287.2352L546.3639 287.2352L541.7881 286.2445C 541.2628 286.129 540.7442 286.4622 540.6302 286.9843zM537.3465 291.6423C 536.8904 291.9266 536.7519 292.522 537.038 292.9751L537.038 292.9751L539.5259 296.9179C 539.8121 297.3711 540.4111 297.5088 540.8671 297.2245C 541.3232 296.9402 541.4617 296.3448 541.1757 295.8917L541.1757 295.8917L538.6899 291.9489C 538.4038 291.4957 537.8025 291.358 537.3465 291.6423zM525.6981 283.4701C 525.8121 282.9481 525.479 282.4328 524.9537 282.3195L524.9537 282.3195L520.3779 281.3288C 519.8526 281.2155 519.334 281.5465 519.22 282.0685C 519.106 282.5905 519.439 283.1058 519.9644 283.2191L519.9644 283.2191L524.5401 284.2098C 525.0654 284.3231 525.584 283.9921 525.6981 283.4701zM526.6168 289.3499C 526.3306 288.8968 525.7316 288.7591 525.2756 289.0434L525.2756 289.0434L521.3055 291.5157C 520.8495 291.8 520.7109 292.3954 520.9971 292.8485C 521.2832 293.3016 521.8823 293.4394 522.3383 293.155L522.3383 293.155L526.306 290.6849C 526.7643 290.4006 526.9006 289.8031 526.6168 289.3499zM531.5122 292.653C 530.9869 292.5397 530.4683 292.8707 530.3543 293.3927L530.3543 293.3927L529.3596 297.9397C 529.2455 298.4617 529.5786 298.9771 530.1039 299.0904C 530.6292 299.2036 531.1478 298.8727 531.2618 298.3507L531.2618 298.3507L532.2588 293.8036C 532.3705 293.2816 532.0375 292.7663 531.5122 292.653zM554.3843 252.0719C 553.8009 249.7507 551.9321 247.7337 549.6655 246.9296C 548.3623 246.4676 546.9518 246.3765 545.5793 246.3965C 544.1241 246.4165 542.6666 246.532 541.2136 246.6164C 540.476 246.6586 539.7383 246.703 539.0029 246.7519C 538.3077 246.7986 537.6058 246.8119 536.9128 246.8785C 536.3607 246.9318 535.8398 247.074 535.4039 247.4294C 534.9345 247.8115 534.5277 248.2824 534.0985 248.7089C 532.0107 250.7836 529.9229 252.8583 527.835 254.933C 525.9775 256.7789 524.1199 258.6248 522.2623 260.4707C 522.0164 260.7151 521.775 260.9483 521.5962 261.2504C 521.3592 261.6524 521.2407 262.11 521.2452 262.5765C 521.2564 263.5717 521.8935 264.569 522.8658 264.8845C 523.4493 265.0755 524.0819 265.0599 524.6519 264.8311C 524.947 264.7134 525.2241 264.5268 525.4991 264.3691C 525.7785 264.2092 526.0579 264.0492 526.3373 263.8871C 527.4528 263.2473 528.566 262.6076 529.6815 261.9679C 529.7709 261.9168 529.8603 261.8657 529.9497 261.8146C 530.3163 261.6036 530.7902 261.8723 530.7902 262.2944C 530.7902 262.8342 530.7902 263.374 530.7902 263.9137C 530.7902 265.2687 530.7902 266.6259 530.7902 267.981C 530.7902 269.758 530.7902 271.5373 530.7902 273.3143C 530.7902 275.1202 530.7902 276.9261 530.7902 278.7299C 530.7902 280.1626 530.7902 281.5953 530.7902 283.0281C 530.7902 283.71 530.788 284.392 530.7902 285.0739C 530.7947 285.8891 531.1545 286.6621 531.8162 287.1553C 532.8557 287.9261 534.3422 287.7884 535.2318 286.8554C 535.7594 286.3023 535.9248 285.607 535.9248 284.8695C 535.9248 284.3542 535.9248 283.8389 535.9248 283.3235C 535.9248 281.5798 535.9248 279.8361 535.9248 278.0946C 535.9248 276.7773 535.9248 275.4601 535.9248 274.1429C 535.9248 274.074 535.9248 274.0029 535.9248 273.9341C 535.9248 273.2188 537.0335 273.2188 537.0425 273.9341C 537.0626 275.5756 538.6429 276.8329 540.2636 276.4041C 541.1533 276.1687 541.8574 275.469 542.0921 274.5871C 542.2218 274.1029 542.1771 273.572 542.1771 273.0766C 542.1771 272.5724 542.1771 272.0704 542.1771 271.5661C 542.1771 270.8509 543.2858 270.8509 543.2947 271.5661C 543.3149 273.2099 544.8953 274.4583 546.5181 274.034C 547.4056 273.8008 548.1119 273.0966 548.3466 272.217C 548.4741 271.7438 548.4293 271.2307 548.4293 270.7465C 548.4293 270.2378 548.4293 269.7291 548.4293 269.2204C 548.4293 268.5052 549.5381 268.5052 549.547 269.2204C 549.5627 270.4843 550.5172 271.6106 551.8025 271.7572C 553.3292 271.9304 554.6593 270.7354 554.6816 269.2204C 554.6816 266.3105 554.6816 263.4028 554.6816 260.4929C 554.6816 259.0024 554.6816 257.5097 554.6816 256.0192C 554.6839 254.6975 554.7084 253.3581 554.3843 252.0719zM555.8016 257.7341C 555.8016 260.8039 555.8016 263.8715 555.8016 266.9414C 555.8016 267.6989 555.8016 268.4585 555.8016 269.216C 555.777 270.8509 554.6772 272.3303 553.0677 272.7545C 551.798 273.0877 550.4501 272.7101 549.5314 271.8149C 549.509 272.1326 549.4576 272.4502 549.3481 272.7568C 548.939 273.8896 547.9957 274.7892 546.8177 275.1003C 545.7872 275.3712 544.6315 275.1847 543.762 274.5649C 543.5898 274.4427 543.4311 274.3072 543.2836 274.1606C 543.2612 274.4872 543.2098 274.8115 543.098 275.1269C 542.6934 276.2487 541.7725 277.1349 540.6101 277.4593C 539.5684 277.748 538.3926 277.5615 537.5119 276.935C 537.3465 276.8173 537.1923 276.6862 537.0492 276.5463C 537.0492 276.6796 537.0492 276.8106 537.0492 276.9439C 537.0492 278.7676 537.0492 280.5913 537.0492 282.4128C 537.0492 283.0881 537.0492 283.7611 537.0492 284.4364C 537.0492 284.8784 537.0604 285.3116 536.9888 285.7492C 536.7295 287.3574 535.3302 288.5703 533.7297 288.7457C 532.3393 288.899 530.9511 288.1926 530.2202 287.0154C 529.6524 286.1002 529.6792 285.1206 529.6792 284.1032C 529.6792 282.8659 529.6792 281.6264 529.6792 280.3892C 529.6792 278.6188 529.6792 276.8484 529.6792 275.0803C 529.6792 273.2077 529.6792 271.3351 529.6792 269.4603C 529.6792 267.9143 529.6792 266.3705 529.6792 264.8245C 529.6792 264.3025 529.6703 263.776 529.6703 263.254C 528.9594 263.6627 528.2463 264.0714 527.5355 264.4779C 527.151 264.6978 526.7665 264.92 526.3798 265.1399C 525.7495 265.502 525.1281 265.9151 524.4016 266.0484C 522.9799 266.3083 521.5872 265.7596 520.7646 264.5757C 520.1141 263.6427 519.9532 262.3677 520.3488 261.3015C 520.6551 260.4774 521.2385 259.9154 521.8465 259.3112C 522.8972 258.2672 523.95 257.2209 525.0006 256.1769C 527.2002 253.9911 529.3976 251.8076 531.5972 249.6218C 532.1448 249.0776 532.6902 248.5356 533.2379 247.9914C 533.6939 247.5382 534.1276 247.0473 534.6216 246.6342C 535.1335 246.2077 535.7035 245.9389 536.3629 245.8301C 537.0916 245.7101 537.8338 245.7123 538.5692 245.6612C 540.1161 245.5546 541.6652 245.468 543.2143 245.3836C 544.7053 245.3014 546.1985 245.1992 547.6872 245.368C 549.1179 245.5302 550.4881 245.9122 551.7064 246.6897C 552.8017 247.3894 553.7316 248.3246 554.4335 249.413C 555.2025 250.6059 555.5892 251.9298 555.7278 253.3314C 555.8641 254.7953 555.8016 256.2747 555.8016 257.7341z" stroke="none" fill="#000000" fill-rule="nonzero" /></g><g clip-path="url(#10)"><path id="9" transform="matrix(1 0 0 -1 0 842)" d="M561.7374 178.1956C 563.9194 180.3772 564.2875 184.2528 564.2875 192.1146L564.2875 192.1146L564.2875 203.7601C 564.2875 211.622 563.9194 215.4975 561.7374 217.6793C 561.2515 218.1652 560.6815 218.5613 560.002 218.8833L560.002 218.8833L559.9957 218.8863L559.9957 218.8863L554.1135 221.6671L554.1135 221.6671L554.1071 221.6701C 551.7362 222.7907 548.0352 223.0127 541.9302 223.0127L541.9302 223.0127L384.526 223.0127C 376.6647 223.0127 372.7894 222.6446 370.6078 220.4631C 370.2738 220.1291 369.9824 219.7556 369.7283 219.3341C 368.3221 217.0019 368.058 213.2032 368.058 206.5454L368.058 206.5454L368.058 194.9012C 368.058 187.0402 368.4261 183.1651 370.6078 180.9836C 371.0922 180.4993 371.6602 180.1042 372.3367 179.7827C 372.3389 179.7818 372.341 179.7806 372.3431 179.7797L372.3431 179.7797L378.1996 176.9977L378.1996 176.9977L378.206 176.9947L378.206 176.9947L378.2123 176.9913C 380.5832 175.8682 384.2857 175.6456 390.3966 175.6456L390.3966 175.6456L547.8176 175.6456C 555.6798 175.6456 559.5554 176.0136 561.7374 178.1956z" stroke="none" fill="#000000" fill-rule="nonzero" /><path id="10" transform="matrix(1 0 0 -1 0 842)" d="M541.9307 222.7068C 556.9196 222.7068 558.0925 221.5338 558.0925 206.5454L558.0925 206.5454L558.0925 194.9012C 558.0925 179.9128 556.9196 178.7398 541.9307 178.7398L541.9307 178.7398L384.5261 178.7398C 369.5371 178.7398 368.364 179.9128 368.364 194.9012L368.364 194.9012L368.364 206.5454C 368.364 221.5338 369.5371 222.7068 384.5261 222.7068L384.5261 222.7068L541.9307 222.7068z" stroke="none" fill="#7ED957" fill-rule="nonzero" /><path id="11" transform="matrix(1 0 0 -1 0 842)" d="M541.9307 222.7068C 556.9196 222.7068 558.0925 221.5338 558.0925 206.5454L558.0925 206.5454L558.0925 194.9012C 558.0925 179.9128 556.9196 178.7398 541.9307 178.7398L541.9307 178.7398L384.5261 178.7398C 369.5371 178.7398 368.364 179.9128 368.364 194.9012L368.364 194.9012L368.364 206.5454C 368.364 221.5338 369.5371 222.7068 384.5261 222.7068L384.5261 222.7068L541.9307 222.7068z" stroke="#000000" stroke-width="0.422544" fill="none" /></g><g clip-path="url(#11)"><path id="12" transform="matrix(1 0 0 -1 0 842)" d="M542.5381 174.6765C 542.4241 175.1985 542.7572 175.7139 543.2825 175.8271L543.2825 175.8271L547.8583 176.8179C 548.3836 176.9311 548.9022 176.6002 549.0162 176.0782C 549.1302 175.5562 548.7972 175.0408 548.2719 174.9275L548.2719 174.9275L543.696 173.9368C 543.1708 173.8213 542.6522 174.1545 542.5381 174.6765zM539.2545 179.3346C 538.7984 179.6189 538.6599 180.2142 538.9459 180.6674L538.9459 180.6674L541.4339 184.6102C 541.72 185.0634 542.3191 185.2011 542.7751 184.9167C 543.2311 184.6324 543.3697 184.0371 543.0836 183.584L543.0836 183.584L540.5979 179.6411C 540.3118 179.188 539.7104 179.0503 539.2545 179.3346zM527.606 171.1624C 527.72 170.6404 527.387 170.1251 526.8616 170.0118L526.8616 170.0118L522.2858 169.0211C 521.7606 168.9078 521.2419 169.2388 521.1279 169.7608C 521.0139 170.2828 521.347 170.7981 521.8723 170.9114L521.8723 170.9114L526.4481 171.9021C 526.9734 172.0154 527.492 171.6844 527.606 171.1624zM528.5247 177.0422C 528.2386 176.5891 527.6395 176.4513 527.1835 176.7357L527.1835 176.7357L523.2135 179.208C 522.7575 179.4923 522.6189 180.0876 522.905 180.5408C 523.1912 180.9939 523.7902 181.1316 524.2463 180.8473L524.2463 180.8473L528.214 178.3772C 528.6722 178.0929 528.8086 177.4954 528.5247 177.0422zM533.4202 180.3453C 532.8948 180.232 532.3762 180.563 532.2623 181.085L532.2623 181.085L531.2675 185.632C 531.1535 186.154 531.4866 186.6694 532.0119 186.7826C 532.5372 186.8959 533.0558 186.565 533.1698 186.043L533.1698 186.043L534.1667 181.4959C 534.2785 180.9739 533.9454 180.4586 533.4202 180.3453zM556.2923 139.7642C 555.7089 137.4429 553.8401 135.426 551.5735 134.6219C 550.2703 134.1599 548.8597 134.0688 547.4872 134.0888C 546.032 134.1088 544.5746 134.2243 543.1216 134.3087C 542.3839 134.3509 541.6462 134.3953 540.9108 134.4442C 540.2156 134.4908 539.5137 134.5042 538.8208 134.5708C 538.2686 134.6241 537.7478 134.7663 537.3119 135.1217C 536.8425 135.5038 536.4357 135.9747 536.0065 136.4012C 533.9186 138.4759 531.8308 140.5506 529.743 142.6253C 527.8854 144.4712 526.0278 146.3171 524.1703 148.163C 523.9244 148.4073 523.683 148.6406 523.5042 148.9427C 523.2672 149.3447 523.1487 149.8023 523.1532 150.2688C 523.1644 151.2639 523.8015 152.2613 524.7738 152.5767C 525.3572 152.7678 525.9899 152.7522 526.5599 152.5234C 526.8549 152.4057 527.1321 152.2191 527.407 152.0614C 527.6865 151.9014 527.9659 151.7415 528.2453 151.5793C 529.3608 150.9396 530.4739 150.2999 531.5894 149.6601C 531.6788 149.6091 531.7682 149.558 531.8577 149.5069C 532.2242 149.2959 532.6981 149.5646 532.6981 149.9867C 532.6981 150.5265 532.6981 151.0662 532.6981 151.606C 532.6981 152.961 532.6981 154.3182 532.6981 155.6732C 532.6981 157.4503 532.6981 159.2295 532.6981 161.0066C 532.6981 162.8125 532.6981 164.6184 532.6981 166.4221C 532.6981 167.8549 532.6981 169.2876 532.6981 170.7204C 532.6981 171.4023 532.6959 172.0842 532.6981 172.7662C 532.7026 173.5814 533.0625 174.3544 533.7242 174.8475C 534.7636 175.6183 536.2501 175.4806 537.1398 174.5477C 537.6674 173.9946 537.8328 173.2993 537.8328 172.5618C 537.8328 172.0465 537.8328 171.5311 537.8328 171.0158C 537.8328 169.2721 537.8328 167.5284 537.8328 165.7868C 537.8328 164.4696 537.8328 163.1524 537.8328 161.8351C 537.8328 161.7663 537.8328 161.6952 537.8328 161.6263C 537.8328 160.9111 538.9415 160.9111 538.9504 161.6263C 538.9705 163.2679 540.5509 164.5251 542.1716 164.0964C 543.0612 163.861 543.7654 163.1613 544.0001 162.2794C 544.1298 161.7952 544.085 161.2643 544.085 160.7689C 544.085 160.2647 544.085 159.7626 544.085 159.2584C 544.085 158.5432 545.1938 158.5432 545.2027 159.2584C 545.2228 160.9022 546.8032 162.1506 548.4261 161.7263C 549.3135 161.493 550.0199 160.7889 550.2546 159.9093C 550.382 159.4361 550.3373 158.923 550.3373 158.4388C 550.3373 157.9301 550.3373 157.4214 550.3373 156.9127C 550.3373 156.1974 551.446 156.1974 551.455 156.9127C 551.4706 158.1766 552.4251 159.3028 553.7104 159.4494C 555.2372 159.6227 556.5673 158.4276 556.5896 156.9127C 556.5896 154.0028 556.5896 151.0951 556.5896 148.1852C 556.5896 146.6947 556.5896 145.202 556.5896 143.7115C 556.5919 142.3898 556.6164 141.0504 556.2923 139.7642zM557.7095 145.4263C 557.7095 148.4962 557.7095 151.5638 557.7095 154.6337C 557.7095 155.3911 557.7095 156.1508 557.7095 156.9083C 557.6849 158.5432 556.5851 160.0226 554.9756 160.4468C 553.706 160.78 552.3581 160.4024 551.4393 159.5072C 551.417 159.8248 551.3656 160.1425 551.256 160.449C 550.847 161.5819 549.9036 162.4815 548.7256 162.7925C 547.6951 163.0635 546.5394 162.8769 545.6699 162.2572C 545.4978 162.135 545.3391 161.9995 545.1915 161.8529C 545.1692 162.1794 545.1177 162.5037 545.006 162.8192C 544.6014 163.9409 543.6804 164.8272 542.5181 165.1516C 541.4764 165.4403 540.3006 165.2537 539.4199 164.6273C 539.2545 164.5096 539.1002 164.3785 538.9572 164.2386C 538.9572 164.3719 538.9572 164.5029 538.9572 164.6362C 538.9572 166.4599 538.9572 168.2836 538.9572 170.1051C 538.9572 170.7803 538.9572 171.4534 538.9572 172.1287C 538.9572 172.5707 538.9683 173.0039 538.8968 173.4415C 538.6375 175.0497 537.2382 176.2625 535.6376 176.438C 534.2473 176.5913 532.8591 175.8849 532.1281 174.7076C 531.5604 173.7924 531.5872 172.8128 531.5872 171.7955C 531.5872 170.5582 531.5872 169.3187 531.5872 168.0815C 531.5872 166.3111 531.5872 164.5407 531.5872 162.7725C 531.5872 160.9 531.5872 159.0274 531.5872 157.1526C 531.5872 155.6066 531.5872 154.0628 531.5872 152.5167C 531.5872 151.9947 531.5782 151.4683 531.5782 150.9463C 530.8674 151.355 530.1543 151.7637 529.4435 152.1702C 529.059 152.3901 528.6745 152.6123 528.2878 152.8322C 527.6574 153.1942 527.036 153.6074 526.3095 153.7407C 524.8878 154.0006 523.4952 153.4519 522.6725 152.2679C 522.0221 151.335 521.8611 150.06 522.2568 148.9937C 522.563 148.1696 523.1465 147.6077 523.7545 147.0034C 524.8051 145.9594 525.858 144.9132 526.9086 143.8692C 529.1082 141.6834 531.3055 139.4999 533.5051 137.3141C 534.0527 136.7699 534.5982 136.2279 535.1459 135.6837C 535.6019 135.2305 536.0355 134.7396 536.5295 134.3264C 537.0414 133.9 537.6115 133.6312 538.2709 133.5223C 538.9996 133.4024 539.7418 133.4046 540.4772 133.3535C 542.024 133.2469 543.5731 133.1603 545.1223 133.0759C 546.6132 132.9937 548.1064 132.8915 549.5952 133.0603C 551.0258 133.2225 552.3961 133.6045 553.6143 134.382C 554.7097 135.0817 555.6396 136.0169 556.3415 137.1053C 557.1104 138.2981 557.4971 139.622 557.6357 141.0237C 557.7721 142.4875 557.7095 143.9669 557.7095 145.4263z" stroke="none" fill="#000000" fill-rule="nonzero" /></g><g clip-path="url(#12)"><path id="13" transform="matrix(1 0 0 -1 0 842)" d="M561.7374 73.52197C 563.9194 75.70357 564.2875 79.57915 564.2875 87.441L564.2875 87.441L564.2875 99.08644C 564.2875 106.9483 563.9194 110.8238 561.7374 113.0056C 561.2515 113.4916 560.6815 113.8876 560.002 114.2096L560.002 114.2096L559.9957 114.2126L559.9957 114.2126L554.1135 116.9934L554.1135 116.9934L554.1071 116.9964C 551.7362 118.1171 548.0352 118.3391 541.9302 118.3391L541.9302 118.3391L384.526 118.3391C 376.6647 118.3391 372.7894 117.971 370.6078 115.7894C 370.2738 115.4555 369.9824 115.0819 369.7283 114.6604C 368.3221 112.3283 368.058 108.5296 368.058 101.8718L368.058 101.8718L368.058 90.22759C 368.058 82.36654 368.4261 78.49143 370.6078 76.30997C 371.0922 75.82568 371.6602 75.4306 372.3367 75.10905C 372.3389 75.1082 372.341 75.10693 372.3431 75.10609L372.3431 75.10609L378.1996 72.32407L378.1996 72.32407L378.206 72.32111L378.206 72.32111L378.2123 72.31772C 380.5832 71.1946 384.2857 70.97192 390.3966 70.97192L390.3966 70.97192L547.8176 70.97192C 555.6798 70.97192 559.5554 71.33995 561.7374 73.52197z" stroke="none" fill="#000000" fill-rule="nonzero" /><path id="14" transform="matrix(1 0 0 -1 0 842)" d="M541.9307 118.0332C 556.9196 118.0332 558.0925 116.8602 558.0925 101.8718L558.0925 101.8718L558.0925 90.22759C 558.0925 75.2392 556.9196 74.06621 541.9307 74.06621L541.9307 74.06621L384.5261 74.06621C 369.5371 74.06621 368.364 75.2392 368.364 90.22759L368.364 90.22759L368.364 101.8718C 368.364 116.8602 369.5371 118.0332 384.5261 118.0332L384.5261 118.0332L541.9307 118.0332z" stroke="none" fill="#7ED957" fill-rule="nonzero" /><path id="15" transform="matrix(1 0 0 -1 0 842)" d="M541.9307 118.0332C 556.9196 118.0332 558.0925 116.8602 558.0925 101.8718L558.0925 101.8718L558.0925 90.22759C 558.0925 75.2392 556.9196 74.06621 541.9307 74.06621L541.9307 74.06621L384.5261 74.06621C 369.5371 74.06621 368.364 75.2392 368.364 90.22759L368.364 90.22759L368.364 101.8718C 368.364 116.8602 369.5371 118.0332 384.5261 118.0332L384.5261 118.0332L541.9307 118.0332z" stroke="#000000" stroke-width="0.422544" fill="none" /></g><g clip-path="url(#13)"></g><g clip-path="url(#14)"><path id="24" transform="matrix(1 0 0 -1 0 842)" d="M547.6273 69.93895C 547.504 70.51171 547.8643 71.07716 548.4324 71.20145L548.4324 71.20145L553.3814 72.28848C 553.9495 72.41278 554.5104 72.04963 554.6337 71.47687C 554.757 70.90411 554.3968 70.33866 553.8287 70.21436L553.8287 70.21436L548.8797 69.12734C 548.3115 69.0006 547.7506 69.3662 547.6273 69.93895zM544.0758 75.0499C 543.5826 75.36187 543.4327 76.01506 543.7421 76.51226L543.7421 76.51226L546.433 80.83842C 546.7425 81.33562 547.3904 81.48673 547.8836 81.17476C 548.3768 80.86279 548.5267 80.2096 548.2172 79.71239L548.2172 79.71239L545.5288 75.38625C 545.2194 74.88905 544.569 74.73793 544.0758 75.0499zM531.4773 66.08319C 531.6006 65.51044 531.2404 64.94499 530.6722 64.82069L530.6722 64.82069L525.7233 63.73367C 525.1551 63.60937 524.5942 63.97252 524.4709 64.54527C 524.3476 65.11803 524.7078 65.68348 525.276 65.80779L525.276 65.80779L530.225 66.89481C 530.7931 67.0191 531.354 66.65595 531.4773 66.08319zM532.4709 72.53465C 532.1615 72.03744 531.5135 71.88633 531.0204 72.1983L531.0204 72.1983L526.7266 74.91098C 526.2334 75.22295 526.0835 75.87614 526.3929 76.37334C 526.7024 76.87054 527.3503 77.02165 527.8436 76.70969L527.8436 76.70969L532.1349 73.99944C 532.6306 73.68747 532.778 73.03185 532.4709 72.53465zM537.7657 76.15886C 537.1975 76.03456 536.6366 76.39771 536.5133 76.97047L536.5133 76.97047L535.4374 81.95956C 535.3141 82.53232 535.6744 83.09776 536.2426 83.22206C 536.8107 83.34637 537.3716 82.98322 537.4949 82.41045L537.4949 82.41045L538.5732 77.42136C 538.694 76.84861 538.3338 76.28316 537.7657 76.15886zM562.5032 31.6324C 561.8723 29.08546 559.8511 26.87242 557.3995 25.99013C 555.9901 25.48317 554.4645 25.38324 552.98 25.40518C 551.4061 25.42712 549.8298 25.55386 548.2584 25.64647C 547.4605 25.69278 546.6627 25.74153 545.8672 25.79515C 545.1154 25.84633 544.3562 25.86095 543.6068 25.93407C 543.0096 25.99257 542.4463 26.14856 541.9749 26.53852C 541.4671 26.95773 541.0271 27.47443 540.5629 27.94238C 538.3048 30.21879 536.0467 32.4952 533.7886 34.77161C 531.7795 36.79698 529.7704 38.82235 527.7614 40.84772C 527.4954 41.11582 527.2343 41.37173 527.0409 41.7032C 526.7846 42.14434 526.6565 42.64642 526.6613 43.15825C 526.6734 44.25014 527.3624 45.34447 528.4141 45.69057C 529.0451 45.90017 529.7293 45.88311 530.3458 45.63207C 530.665 45.5029 530.9648 45.29817 531.2621 45.12512C 531.5643 44.94963 531.8665 44.77415 532.1688 44.59623C 533.3752 43.8943 534.5792 43.19237 535.7856 42.49043C 535.8823 42.43438 535.979 42.37832 536.0757 42.32226C 536.4722 42.09072 536.9847 42.38563 536.9847 42.84871C 536.9847 43.44097 536.9847 44.03323 536.9847 44.62548C 536.9847 46.11221 536.9847 47.60139 536.9847 49.08812C 536.9847 51.03793 536.9847 52.99018 536.9847 54.94C 536.9847 56.9215 536.9847 58.903 536.9847 60.88206C 536.9847 62.45409 536.9847 64.02614 536.9847 65.59818C 536.9847 66.34641 536.9824 67.09466 536.9847 67.8429C 536.9896 68.73737 537.3788 69.58554 538.0945 70.12662C 539.2187 70.97235 540.8264 70.82124 541.7886 69.79758C 542.3593 69.1907 542.5381 68.42784 542.5381 67.61867C 542.5381 67.05322 542.5381 66.48778 542.5381 65.92233C 542.5381 64.00908 542.5381 62.09582 542.5381 60.185C 542.5381 58.7397 542.5381 57.2944 542.5381 55.8491C 542.5381 55.77354 542.5381 55.69555 542.5381 55.62C 542.5381 54.83519 543.7373 54.83519 543.7469 55.62C 543.7687 57.42113 545.478 58.80063 547.2308 58.33024C 548.1931 58.07189 548.9547 57.30415 549.2085 56.33656C 549.3487 55.80523 549.3004 55.22272 549.3004 54.67921C 549.3004 54.12595 549.3004 53.57513 549.3004 53.02187C 549.3004 52.23707 550.4995 52.23707 550.5092 53.02187C 550.5309 54.82545 552.2402 56.19519 553.9955 55.72967C 554.9553 55.47375 555.7193 54.70114 555.9731 53.73598C 556.111 53.21685 556.0626 52.65384 556.0626 52.12251C 556.0626 51.56438 556.0626 51.00624 556.0626 50.44811C 556.0626 49.66331 557.2617 49.66331 557.2714 50.44811C 557.2883 51.83492 558.3207 53.07061 559.7108 53.23147C 561.3621 53.42158 562.8006 52.11033 562.8248 50.44811C 562.8248 47.25529 562.8248 44.0649 562.8248 40.87208C 562.8248 39.23668 562.8248 37.59883 562.8248 35.96342C 562.8272 34.51326 562.8538 33.04358 562.5032 31.6324zM564.0361 37.845C 564.0361 41.21331 564.0361 44.57917 564.0361 47.94748C 564.0361 48.77859 564.0361 49.61213 564.0361 50.44324C 564.0095 52.23707 562.8199 53.86029 561.0792 54.32581C 559.706 54.6914 558.2482 54.27707 557.2545 53.29485C 557.2303 53.64337 557.1747 53.99191 557.0563 54.32825C 556.6138 55.57125 555.5936 56.55835 554.3195 56.89957C 553.2049 57.19691 551.955 56.99218 551.0145 56.31218C 550.8283 56.17813 550.6567 56.02946 550.4971 55.8686C 550.4729 56.22688 550.4173 56.58272 550.2964 56.92881C 549.8588 58.15963 548.8628 59.1321 547.6056 59.48795C 546.4789 59.80479 545.2073 59.60006 544.2547 58.91275C 544.0758 58.78357 543.9089 58.63977 543.7542 58.48623C 543.7542 58.63246 543.7542 58.77626 543.7542 58.9225C 543.7542 60.92349 543.7542 62.92449 543.7542 64.92305C 543.7542 65.66399 543.7542 66.40247 543.7542 67.1434C 543.7542 67.62842 543.7663 68.10368 543.689 68.58383C 543.4085 70.34841 541.895 71.67916 540.164 71.8717C 538.6602 72.03988 537.1588 71.26482 536.3682 69.97308C 535.7542 68.96892 535.7831 67.89408 535.7831 66.77782C 535.7831 65.42026 535.7831 64.06026 535.7831 62.7027C 535.7831 60.7602 535.7831 58.8177 535.7831 56.87763C 535.7831 54.82301 535.7831 52.76839 535.7831 50.71134C 535.7831 49.015 535.7831 47.3211 535.7831 45.62476C 535.7831 45.052 535.7735 44.47437 535.7735 43.90161C 535.0047 44.35007 534.2335 44.79852 533.4646 45.24454C 533.0488 45.48584 532.6329 45.72956 532.2147 45.97085C 531.5329 46.36813 530.8608 46.82146 530.0751 46.96769C 528.5374 47.25285 527.0312 46.65084 526.1415 45.35178C 525.438 44.32813 525.2639 42.92913 525.6918 41.75925C 526.023 40.85502 526.6541 40.23839 527.3116 39.57545C 528.4479 38.42994 529.5867 37.28198 530.723 36.13646C 533.102 33.73819 535.4785 31.34236 537.8575 28.94409C 538.4498 28.34696 539.0398 27.75226 539.6321 27.15513C 540.1253 26.65793 540.5944 26.11929 541.1287 25.66596C 541.6823 25.19801 542.2988 24.9031 543.012 24.78367C 543.8002 24.65206 544.6028 24.6545 545.3983 24.59844C 547.0713 24.48145 548.7467 24.3864 550.4222 24.29378C 552.0347 24.20361 553.6497 24.09149 555.2599 24.27672C 556.8073 24.45464 558.2892 24.87385 559.6069 25.72689C 560.7916 26.49463 561.7973 27.52072 562.5565 28.71498C 563.3881 30.0238 563.8064 31.47641 563.9563 33.01432C 564.1038 34.62049 564.0361 36.24371 564.0361 37.845z" stroke="none" fill="#000000" fill-rule="nonzero" /></g><g clip-path="url(#15)"><g transform="matrix(0.7872093 0 0 0.7868217 49.6283 167.5764)"><g transform="matrix(1 0 0 1 0 0)"><image x="0" y="0" xlink:href="img_03.png" width="645" height="387" /></g></g></g><g clip-path="url(#16)"></g></g></g></svg>