<svg xmlns="http://www.w3.org/2000/svg" xmlns:xlink="http://www.w3.org/1999/xlink" id="body_1" preserveAspectRatio="xMinYMin meet" viewBox="0 0 793 1123"><defs><clipPath id="1"><path id="" clip-rule="evenodd" transform="matrix(1 0 0 1 0 0)" d="M0 842L0 -0.25L0 -0.25L595.5 -0.25L595.5 -0.25L595.5 842L595.5 842L0 842z" /></clipPath><clipPath id="2"><path id="" clip-rule="evenodd" transform="matrix(1 0 0 1 0 0)" d="M0 -0.249939L595.5 -0.249939L595.5 -0.249939L595.5 842.0001L595.5 842.0001L0 842.0001z" /></clipPath><clipPath id="3"><path id="" clip-rule="evenodd" transform="matrix(1 0 0 1 0 0)" d="M0 -0.249939L595.5 -0.249939L595.5 -0.249939L595.5 842.0001L595.5 842.0001L0 842.0001z" /></clipPath><clipPath id="4"><path id="" clip-rule="evenodd" transform="matrix(1 0 0 1 0 0)" d="M0 -0.249939L595.5 -0.249939L595.5 -0.249939L595.5 842.0001L595.5 842.0001L0 842.0001z" /></clipPath><clipPath id="5"><path id="" clip-rule="evenodd" transform="matrix(1 0 0 1 0 0)" d="M25.46245 304.7159L87.71245 304.7159L87.71245 304.7159L87.71245 342.9659L87.71245 342.9659L25.46245 342.9659z" /></clipPath><clipPath id="6"><path id="" clip-rule="evenodd" transform="matrix(1 0 0 1 0 0)" d="M27.6 307.1901L83.03999 307.1901L83.03999 307.1901L83.03999 328.0701L83.03999 328.0701L27.6 328.0701z" /></clipPath><clipPath id="7"><path id="" clip-rule="evenodd" transform="matrix(1 0 0 1 0 0)" d="M0 -0.249939L595.5 -0.249939L595.5 -0.249939L595.5 842.0001L595.5 842.0001L0 842.0001z" /></clipPath><clipPath id="8"><path id="" clip-rule="evenodd" transform="matrix(1 0 0 1 0 0)" d="M24.68697 400.6935L86.93697 400.6935L86.93697 400.6935L86.93697 438.9435L86.93697 438.9435L24.68697 438.9435z" /></clipPath><clipPath id="9"><path id="" clip-rule="evenodd" transform="matrix(1 0 0 1 0 0)" d="M26.88 403.1901L82.07999 403.1901L82.07999 403.1901L82.07999 423.8301L82.07999 423.8301L26.88 423.8301z" /></clipPath><clipPath id="10"><path id="" clip-rule="evenodd" transform="matrix(1 0 0 1 0 0)" d="M0 -0.249939L595.5 -0.249939L595.5 -0.249939L595.5 842.0001L595.5 842.0001L0 842.0001z" /></clipPath><clipPath id="11"><path id="" clip-rule="evenodd" transform="matrix(1 0 0 1 0 0)" d="M25.46245 488.659L87.71245 488.659L87.71245 488.659L87.71245 526.909L87.71245 526.909L25.46245 526.909z" /></clipPath><clipPath id="12"><path id="" clip-rule="evenodd" transform="matrix(1 0 0 1 0 0)" d="M27.6 491.0301L83.03999 491.0301L83.03999 491.0301L83.03999 511.9101L83.03999 511.9101L27.6 511.9101z" /></clipPath><clipPath id="13"><path id="" clip-rule="evenodd" transform="matrix(1 0 0 1 0 0)" d="M0 -0.249939L595.5 -0.249939L595.5 -0.249939L595.5 842.0001L595.5 842.0001L0 842.0001z" /></clipPath><clipPath id="14"><path id="" clip-rule="evenodd" transform="matrix(1 0 0 1 0 0)" d="M22.1279 626.3307L84.37791 626.3307L84.37791 626.3307L84.37791 664.5807L84.37791 664.5807L22.1279 664.5807z" /></clipPath><clipPath id="15"><path id="" clip-rule="evenodd" transform="matrix(1 0 0 1 0 0)" d="M24.24 628.79L79.67999 628.79L79.67999 628.79L79.67999 649.67L79.67999 649.67L24.24 649.67z" /></clipPath><clipPath id="16"><path id="" clip-rule="evenodd" transform="matrix(1 0 0 1 0 0)" d="M0 -0.249939L595.5 -0.249939L595.5 -0.249939L595.5 842.0001L595.5 842.0001L0 842.0001z" /></clipPath><clipPath id="17"><path id="" clip-rule="evenodd" transform="matrix(1 0 0 1 0 0)" d="M503.015 5.097351L584.765 5.097351L584.765 5.097351L584.765 51.59735L584.765 51.59735L503.015 51.59735z" /></clipPath></defs><g transform="matrix(1.333333 0 0 1.333333 0 0)"><g clip-path="url(#1)"><g clip-path="url(#2)"><path id="1" transform="matrix(1 0 0 -1 0 842)" d="M0 842.2499L595.4999 842.2499L595.4999 -6.103516E-05L0 -6.103516E-05z" stroke="none" fill="#FFFFFF" fill-rule="nonzero" /></g><g clip-path="url(#3)"><path id="2" transform="matrix(1 0 0 -1 0 842)" d="M0 842.2499L595.4999 842.2499L595.4999 -6.103516E-05L0 -6.103516E-05z" stroke="none" fill="#E9FCFF" fill-rule="nonzero" /></g><g clip-path="url(#4)"></g><g clip-path="url(#5)"><path id="224" transform="matrix(1 0 0 -1 0 842)" d="M30.53808 502.3907C 29.35043 501.6156 29.17541 500.3904 29.15041 499.6403C 29.15041 499.4153 28.93788 499.2903 28.80036 499.4153C 24.93738 502.7782 25.73748 515.9799 25.77498 517.3425C 25.98751 525.5561 25.53746 524.0809 26.38756 532.2694C 26.38756 532.2694 26.76261 535.8824 29.36293 536.0949C 43.5022 537.2575 52.64084 536.52 66.81761 536.3574C 72.14328 536.2949 76.78136 534.2571 80.43181 530.8317C 83.38218 528.0689 86.65759 524.7184 87.43269 520.818C 88.30779 516.4174 84.74485 513.1045 81.73197 510.0416C 77.1689 505.3911 73.25591 503.6408 66.11752 503.6533C 57.80399 503.6783 54.55358 503.6533 46.22754 503.6158C 40.85187 503.6033 32.78836 503.8534 30.52558 502.3782L30.52558 502.3782L30.53808 502.3907z" stroke="none" fill="#8EDFD2" fill-rule="nonzero" /><g><g clip-path="url(#6)"><path id="225" transform="matrix(1 0 0 -1 0 842)" d="M30.92563 516.8174C 31.11315 519.6928 31.05064 522.6307 31.33818 525.4935C 31.5007 527.1313 31.95076 528.7939 32.90088 529.8816C 34.50108 531.6943 37.07639 531.4568 39.07664 531.5318C 41.78948 531.6318 44.48982 531.4943 47.20266 531.4943C 56.04126 531.4943 42.63959 531.6818 51.4782 531.5818C 56.3413 531.5193 61.37943 531.6193 66.19254 530.6317C 68.88037 530.0692 71.5307 529.1815 74.03101 527.7814C 76.64384 526.3062 78.66909 523.9933 81.08189 522.1431C 82.23204 521.268 83.06964 522.3807 82.76961 523.9434C 82.44456 525.6811 80.28179 527.1063 79.09415 528.1564C 77.18141 529.8441 75.25616 531.6193 72.99338 532.732C 69.60546 534.3947 65.8925 534.2571 62.32955 534.3196C 58.54158 534.3821 54.76611 534.6697 50.99064 534.6947C 45.13991 534.7322 39.27667 534.7322 33.41344 534.6947C 29.21292 534.6697 47.26517 534.6197 43.06464 534.5322C 40.95188 534.4947 38.82661 534.4447 36.71385 534.3947C 33.67597 534.3196 29.00039 534.0446 28.21279 529.1315C 27.85024 526.8438 27.80024 524.5059 27.80024 522.1682C 27.80024 520.0429 27.65022 517.7926 27.98776 515.6923C 28.36281 513.3671 30.36306 514.0797 30.81311 515.9299C 30.88812 516.2174 30.92563 516.5175 30.93813 516.83L30.93813 516.83L30.92563 516.8174z" stroke="none" fill="#FFFFFF" fill-rule="nonzero" fill-opacity="0.09803922" /></g></g><path id="226" transform="matrix(1 0 0 -1 0 842)" d="M30.53808 502.3907C 31.01314 502.6907 31.5257 502.8407 32.03827 502.9782C 33.0759 503.2283 34.11353 503.3533 35.16366 503.4533C 38.73911 503.7533 42.57708 503.7408 46.17754 503.8159C 51.96576 503.8033 55.31617 504.1784 58.56658 504.1659C 59.91675 504.1659 65.51745 504.1659 66.80511 504.1659C 67.70522 504.1784 68.63034 504.2159 69.53045 504.3159C 74.29354 504.766 77.80648 506.6037 81.54445 510.4667C 82.95712 511.9169 84.44481 513.3295 85.64496 515.0673C 86.8076 516.7549 87.59521 518.8177 86.98263 521.093C 86.42006 523.2808 85.19491 525.031 83.90724 526.6062C 83.14465 527.5063 82.34455 528.3564 81.51945 529.169C 80.69434 529.9691 79.85674 530.7817 78.98163 531.4818C 75.90624 533.9571 72.3683 535.3448 68.76785 535.7198C 68.00526 535.8074 67.20515 535.8323 66.44256 535.8323C 53.42844 535.9949 61.52945 536.2824 48.57783 536.1949C 42.16453 536.1324 35.75123 536.0574 29.35043 535.5698C 28.53782 535.4948 27.81273 534.9448 27.36268 534.0446C 27.07514 533.4821 26.87512 532.8069 26.80011 532.1319L26.80011 532.1319L26.7751 531.8818L26.7751 531.8818L26.7251 531.3818C 26.56258 529.7066 26.41256 528.0189 26.31255 526.3561C 26.23754 525.206 26.23754 523.4933 26.21254 522.3182C 26.18753 520.6055 26.13753 518.9177 26.06252 517.205C 26.01251 516.2299 25.95 515.1423 25.925 514.1671C 25.82499 509.8666 25.9 501.5031 29.1629 499.1778C 29.1629 499.3278 29.1629 499.5028 29.17541 499.6653C 29.21291 500.903 29.71297 501.8656 30.57558 502.4032L30.57558 502.4032L30.53808 502.3907zM30.53808 502.3907C 30.08802 502.0906 29.67547 501.6531 29.43794 501.0655C 29.31293 500.778 29.23792 500.4529 29.20041 500.1279C 29.16291 499.8029 29.16291 499.8029 29.16291 499.6403C 29.16291 499.6403 28.80036 499.3903 28.80036 499.3903C 28.47532 499.6778 28.17529 500.0279 27.92525 500.4154C 26.30005 503.0157 25.875 506.8412 25.62497 510.0666C 25.44995 512.442 25.43744 514.8547 25.49995 517.23C 25.52495 518.9177 25.51245 520.6304 25.49995 522.3057C 25.48745 523.6683 25.44995 525.0435 25.49995 526.4062C 25.56246 528.1189 25.73748 529.8191 25.9125 531.5068L25.9125 531.5068L25.96251 532.0069L25.96251 532.0069L25.98751 532.2569C 26.08752 533.0945 26.32505 533.8821 26.6751 534.5947C 27.15016 535.5573 27.93776 536.2949 28.81286 536.5074C 29.0754 536.5825 29.37543 536.595 29.65047 536.6199C 49.39043 537.8201 47.44019 537.02 67.21766 536.8575C 72.75585 536.6949 77.64397 534.4822 81.98201 529.9941C 84.08227 527.8939 86.24504 525.6061 87.42019 522.4307C 89.43294 517.0425 85.55746 513.2795 82.64458 510.3042C 81.60696 509.2415 80.55682 508.1914 79.43169 507.2913C 77.84399 506.0036 76.11877 504.991 74.31855 504.3409C 71.25567 503.2158 68.00526 503.1283 64.84237 503.1533C 57.66647 503.1533 44.02727 503.6783 36.73885 503.5033C 35.16366 503.4283 33.58846 503.3408 32.03827 502.9657C 31.5257 502.8407 31.01314 502.6782 30.53808 502.3907z" stroke="none" fill="#000000" fill-rule="nonzero" /></g><g clip-path="url(#7)"></g><g clip-path="url(#8)"><path id="228" transform="matrix(1 0 0 -1 0 842)" d="M29.7626 406.413C 28.57495 405.6379 28.39993 404.4128 28.37492 403.6627C 28.37492 403.4377 28.1624 403.3127 28.02488 403.4377C 24.1619 406.8006 24.962 420.0022 24.9995 421.3649C 25.21203 429.5784 24.76197 428.1032 25.61208 436.2918C 25.61208 436.2918 25.98713 439.9047 28.58745 440.1172C 42.72672 441.2799 51.86536 440.5423 66.04213 440.3798C 71.3678 440.3173 76.00587 438.2795 79.65633 434.8541C 82.6067 432.0912 85.8821 428.7408 86.6572 424.8403C 87.53231 420.4398 83.96937 417.1269 80.95649 414.064C 76.39342 409.4134 72.48043 407.6632 65.34204 407.6757C 57.0285 407.7007 53.7781 407.6757 45.45206 407.6382C 40.07639 407.6257 32.01287 407.8757 29.75009 406.4005L29.75009 406.4005L29.7626 406.413z" stroke="none" fill="#8EDFD2" fill-rule="nonzero" /><g><g clip-path="url(#9)"><path id="229" transform="matrix(1 0 0 -1 0 842)" d="M30.15015 420.8398C 30.33767 423.7152 30.27516 426.6531 30.5627 429.5159C 30.72522 431.1536 31.17527 432.8163 32.12539 433.904C 33.72559 435.7167 36.30091 435.4792 38.30116 435.5542C 41.014 435.6542 43.71434 435.5167 46.42718 435.5167C 55.26579 435.5167 41.86411 435.7042 50.70271 435.6042C 55.56582 435.5417 60.60395 435.6417 65.41705 434.6541C 68.10489 434.0915 70.75522 433.2039 73.25553 431.8037C 75.86835 430.3285 77.89361 428.0157 80.30641 426.1655C 81.45656 425.2904 82.29416 426.403 81.99413 427.9657C 81.66908 429.7035 79.50631 431.1286 78.31866 432.1788C 76.40593 433.8665 74.48068 435.6417 72.2179 436.7543C 68.82998 438.4171 65.11702 438.2795 61.55407 438.342C 57.7661 438.4045 53.99063 438.6921 50.21516 438.7171C 44.36443 438.7546 38.50119 438.7546 32.63796 438.7171C 28.43744 438.6921 46.48969 438.6421 42.28917 438.5546C 40.1764 438.5171 38.05114 438.467 35.93837 438.4171C 32.90049 438.342 28.22491 438.067 27.43731 433.1539C 27.07476 430.8661 27.02476 428.5283 27.02476 426.1905C 27.02476 424.0652 26.87474 421.815 27.21228 419.7147C 27.58733 417.3894 29.58758 418.102 30.03764 419.9522C 30.11264 420.2398 30.15015 420.5398 30.16265 420.8524L30.16265 420.8524L30.15015 420.8398z" stroke="none" fill="#FFFFFF" fill-rule="nonzero" fill-opacity="0.09803922" /></g></g><path id="230" transform="matrix(1 0 0 -1 0 842)" d="M29.7626 406.413C 30.23766 406.7131 30.75022 406.8631 31.26278 407.0006C 32.30042 407.2506 33.33804 407.3757 34.38818 407.4757C 37.96362 407.7757 41.8016 407.7632 45.40205 407.8382C 51.19028 407.8257 54.54069 408.2007 57.7911 408.1883C 59.14127 408.1883 64.74197 408.1883 66.02962 408.1883C 66.92974 408.2007 67.85486 408.2383 68.75497 408.3383C 73.51806 408.7883 77.031 410.6261 80.76897 414.489C 82.18164 415.9392 83.66933 417.3519 84.86948 419.0896C 86.03212 420.7773 86.81973 422.8401 86.20715 425.1154C 85.64458 427.3032 84.41943 429.0534 83.13176 430.6286C 82.36916 431.5287 81.56907 432.3788 80.74397 433.1914C 79.91886 433.9915 79.08125 434.8041 78.20615 435.5042C 75.13076 437.9795 71.59282 439.3672 67.99237 439.7422C 67.22977 439.8297 66.42967 439.8547 65.66708 439.8547C 52.65295 440.0172 60.75397 440.3048 47.80235 440.2173C 41.38905 440.1548 34.97575 440.0797 28.57495 439.5922C 27.76234 439.5172 27.03725 438.9671 26.5872 438.067C 26.29966 437.5044 26.09964 436.8293 26.02463 436.1543L26.02463 436.1543L25.99962 435.9042L25.99962 435.9042L25.94962 435.4042C 25.7871 433.7289 25.63708 432.0412 25.53707 430.3785C 25.46206 429.2284 25.46206 427.5157 25.43705 426.3405C 25.41205 424.6278 25.36204 422.9401 25.28703 421.2274C 25.23703 420.2523 25.17452 419.1646 25.14952 418.1895C 25.04951 413.889 25.12451 405.5254 28.38742 403.2001C 28.38742 403.3502 28.38742 403.5252 28.39992 403.6877C 28.43743 404.9254 28.93749 405.888 29.8001 406.4255L29.8001 406.4255L29.7626 406.413zM29.7626 406.413C 29.31254 406.113 28.89999 405.6754 28.66246 405.0879C 28.53745 404.8003 28.46243 404.4753 28.42493 404.1503C 28.38743 403.8252 28.38743 403.8252 28.38743 403.6627C 28.38743 403.6627 28.02488 403.4127 28.02488 403.4127C 27.69984 403.7002 27.3998 404.0502 27.14977 404.4378C 25.52457 407.0381 25.09952 410.8636 24.84948 414.089C 24.67446 416.4643 24.66196 418.8771 24.72447 421.2524C 24.74947 422.9401 24.73697 424.6528 24.72447 426.328C 24.71197 427.6907 24.67446 429.0659 24.72447 430.4285C 24.78698 432.1413 24.962 433.8415 25.13702 435.5292L25.13702 435.5292L25.18703 436.0292L25.18703 436.0292L25.21203 436.2793C 25.31204 437.1169 25.54957 437.9045 25.89962 438.6171C 26.37468 439.5797 27.16227 440.3173 28.03738 440.5298C 28.29992 440.6048 28.59995 440.6173 28.87499 440.6423C 48.61495 441.8425 46.66471 441.0424 66.44218 440.8799C 71.98037 440.7173 76.86848 438.5045 81.20653 434.0165C 83.30679 431.9162 85.46956 429.6284 86.64471 426.453C 88.65746 421.0649 84.78197 417.3019 81.8691 414.3265C 80.83148 413.2639 79.78134 412.2138 78.6562 411.3137C 77.0685 410.026 75.34329 409.0134 73.54307 408.3633C 70.48019 407.2381 67.22977 407.1506 64.06689 407.1756C 56.89099 407.1756 43.25179 407.7007 35.96337 407.5257C 34.38818 407.4507 32.81298 407.3632 31.26278 406.9881C 30.75022 406.8631 30.23766 406.7006 29.7626 406.413z" stroke="none" fill="#000000" fill-rule="nonzero" /></g><g clip-path="url(#10)"></g><g clip-path="url(#11)"><path id="232" transform="matrix(1 0 0 -1 0 842)" d="M30.53808 318.4476C 29.35043 317.6725 29.17541 316.4474 29.15041 315.6973C 29.15041 315.4722 28.93788 315.3472 28.80036 315.4722C 24.93738 318.8352 25.73748 332.0368 25.77498 333.3995C 25.98751 341.613 25.53746 340.1378 26.38756 348.3264C 26.38756 348.3264 26.76261 351.9393 29.36293 352.1518C 43.5022 353.3145 52.64084 352.5769 66.81761 352.4144C 72.14328 352.3519 76.78136 350.3141 80.43181 346.8887C 83.38218 344.1258 86.65759 340.7754 87.43269 336.8749C 88.30779 332.4744 84.74485 329.1615 81.73197 326.0986C 77.1689 321.448 73.25591 319.6978 66.11752 319.7103C 57.80399 319.7353 54.55358 319.7103 46.22754 319.6728C 40.85187 319.6603 32.78836 319.9103 30.52558 318.4351L30.52558 318.4351L30.53808 318.4476z" stroke="none" fill="#8EDFD2" fill-rule="nonzero" /><g><g clip-path="url(#12)"><path id="233" transform="matrix(1 0 0 -1 0 842)" d="M30.92563 332.8744C 31.11315 335.7498 31.05064 338.6876 31.33818 341.5505C 31.5007 343.1882 31.95076 344.8509 32.90088 345.9385C 34.50108 347.7513 37.07639 347.5137 39.07664 347.5887C 41.78948 347.6888 44.48982 347.5512 47.20266 347.5512C 56.04126 347.5512 42.63959 347.7387 51.4782 347.6387C 56.3413 347.5762 61.37943 347.6762 66.19254 346.6886C 68.88037 346.126 71.5307 345.2384 74.03101 343.8383C 76.64384 342.3631 78.66909 340.0503 81.08189 338.2C 82.23204 337.325 83.06964 338.4376 82.76961 340.0003C 82.44456 341.738 80.28179 343.1632 79.09415 344.2133C 77.18141 345.901 75.25616 347.6762 72.99338 348.7889C 69.60546 350.4516 65.8925 350.3141 62.32955 350.3766C 58.54158 350.4391 54.76611 350.7266 50.99064 350.7516C 45.13991 350.7891 39.27667 350.7891 33.41344 350.7516C 29.21292 350.7266 47.26517 350.6766 43.06464 350.5891C 40.95188 350.5516 38.82661 350.5016 36.71385 350.4516C 33.67597 350.3766 29.00039 350.1015 28.21279 345.1884C 27.85024 342.9006 27.80024 340.5629 27.80024 338.2251C 27.80024 336.0998 27.65022 333.8495 27.98776 331.7492C 28.36281 329.424 30.36306 330.1365 30.81311 331.9868C 30.88812 332.2743 30.92563 332.5743 30.93813 332.8869L30.93813 332.8869L30.92563 332.8744z" stroke="none" fill="#FFFFFF" fill-rule="nonzero" fill-opacity="0.09803922" /></g></g><path id="234" transform="matrix(1 0 0 -1 0 842)" d="M30.53808 318.4476C 31.01314 318.7477 31.5257 318.8977 32.03827 319.0352C 33.0759 319.2852 34.11353 319.4102 35.16366 319.5103C 38.73911 319.8103 42.57708 319.7978 46.17754 319.8728C 51.96576 319.8603 55.31617 320.2354 58.56658 320.2228C 59.91675 320.2228 65.51745 320.2228 66.80511 320.2228C 67.70522 320.2354 68.63034 320.2728 69.53045 320.3729C 74.29354 320.8229 77.80648 322.6606 81.54445 326.5236C 82.95712 327.9738 84.44481 329.3865 85.64496 331.1242C 86.8076 332.8119 87.59521 334.8747 86.98263 337.15C 86.42006 339.3377 85.19491 341.088 83.90724 342.6631C 83.14465 343.5633 82.34455 344.4134 81.51945 345.226C 80.69434 346.0261 79.85674 346.8387 78.98163 347.5388C 75.90624 350.0141 72.3683 351.4017 68.76785 351.7768C 68.00526 351.8643 67.20515 351.8893 66.44256 351.8893C 53.42844 352.0518 61.52945 352.3394 48.57783 352.2518C 42.16453 352.1893 35.75123 352.1143 29.35043 351.6268C 28.53782 351.5518 27.81273 351.0017 27.36268 350.1016C 27.07514 349.539 26.87512 348.8639 26.80011 348.1888L26.80011 348.1888L26.7751 347.9388L26.7751 347.9388L26.7251 347.4388C 26.56258 345.7635 26.41256 344.0758 26.31255 342.4131C 26.23754 341.263 26.23754 339.5503 26.21254 338.3751C 26.18753 336.6624 26.13753 334.9747 26.06252 333.262C 26.01251 332.2868 25.95 331.1992 25.925 330.2241C 25.82499 325.9236 25.9 317.56 29.1629 315.2347C 29.1629 315.3847 29.1629 315.5598 29.17541 315.7223C 29.21291 316.9599 29.71297 317.9225 30.57558 318.4601L30.57558 318.4601L30.53808 318.4476zM30.53808 318.4476C 30.08802 318.1476 29.67547 317.71 29.43794 317.1224C 29.31293 316.8349 29.23792 316.5099 29.20041 316.1848C 29.16291 315.8598 29.16291 315.8598 29.16291 315.6973C 29.16291 315.6973 28.80036 315.4472 28.80036 315.4472C 28.47532 315.7348 28.17529 316.0848 27.92525 316.4724C 26.30005 319.0727 25.875 322.8982 25.62497 326.1236C 25.44995 328.4989 25.43744 330.9117 25.49995 333.287C 25.52495 334.9747 25.51245 336.6874 25.49995 338.3626C 25.48745 339.7253 25.44995 341.1004 25.49995 342.4631C 25.56246 344.1758 25.73748 345.876 25.9125 347.5638L25.9125 347.5638L25.96251 348.0638L25.96251 348.0638L25.98751 348.3138C 26.08752 349.1515 26.32505 349.9391 26.6751 350.6516C 27.15016 351.6143 27.93776 352.3519 28.81286 352.5644C 29.0754 352.6394 29.37543 352.6519 29.65047 352.6769C 49.39043 353.877 47.44019 353.0769 67.21766 352.9144C 72.75585 352.7519 77.64397 350.5391 81.98201 346.0511C 84.08227 343.9508 86.24504 341.663 87.42019 338.4876C 89.43294 333.0995 85.55746 329.3365 82.64458 326.3611C 81.60696 325.2985 80.55682 324.2484 79.43169 323.3482C 77.84399 322.0606 76.11877 321.0479 74.31855 320.3979C 71.25567 319.2727 68.00526 319.1852 64.84237 319.2102C 57.66647 319.2102 44.02727 319.7353 36.73885 319.5602C 35.16366 319.4852 33.58846 319.3977 32.03827 319.0227C 31.5257 318.8977 31.01314 318.7352 30.53808 318.4476z" stroke="none" fill="#000000" fill-rule="nonzero" /></g><g clip-path="url(#13)"></g><g clip-path="url(#14)"><path id="447" transform="matrix(1 0 0 -1 0 842)" d="M27.20354 180.7759C 26.01589 180.0008 25.84087 178.7756 25.81586 178.0255C 25.81586 177.8005 25.60334 177.6755 25.46582 177.8005C 21.60284 181.1634 22.40294 194.3651 22.44044 195.7277C 22.65297 203.9413 22.20292 202.4661 23.05302 210.6546C 23.05302 210.6546 23.42807 214.2675 26.02839 214.4801C 40.16766 215.6427 49.3063 214.9051 63.48307 214.7426C 68.80874 214.6801 73.44682 212.6423 77.09727 209.2169C 80.04764 206.4541 83.32304 203.1037 84.09814 199.2032C 84.97325 194.8026 81.41031 191.4897 78.39743 188.4268C 73.83436 183.7762 69.92137 182.026 62.78298 182.0385C 54.46944 182.0635 51.21904 182.0385 42.893 182.001C 37.51733 181.9885 29.45382 182.2385 27.19103 180.7634L27.19103 180.7634L27.20354 180.7759z" stroke="none" fill="#8EDFD2" fill-rule="nonzero" /><g><g clip-path="url(#15)"><path id="448" transform="matrix(1 0 0 -1 0 842)" d="M27.59109 195.2027C 27.77861 198.078 27.7161 201.0159 28.00364 203.8787C 28.16616 205.5164 28.61621 207.1792 29.56633 208.2668C 31.16653 210.0795 33.74185 209.842 35.7421 209.917C 38.45494 210.017 41.15528 209.8795 43.86812 209.8795C 52.70672 209.8795 39.30505 210.067 48.14365 209.967C 53.00676 209.9045 58.04489 210.0045 62.85799 209.0169C 65.54582 208.4543 68.19616 207.5667 70.69647 206.1665C 73.3093 204.6913 75.33455 202.3786 77.74734 200.5283C 78.89749 199.6532 79.73509 200.7659 79.43506 202.3285C 79.11002 204.0663 76.94725 205.4914 75.7596 206.5416C 73.84686 208.2293 71.92162 210.0045 69.65884 211.1171C 66.27092 212.7798 62.55796 212.6423 58.99501 212.7048C 55.20704 212.7673 51.43156 213.0549 47.6561 213.0799C 41.80537 213.1174 35.94213 213.1174 30.0789 213.0799C 25.87837 213.0549 43.93063 213.0049 39.7301 212.9174C 37.61734 212.8799 35.49207 212.8298 33.37931 212.7798C 30.34143 212.7048 25.66585 212.4298 24.87825 207.5167C 24.5157 205.2289 24.4657 202.8911 24.4657 200.5533C 24.4657 198.4281 24.31568 196.1778 24.65322 194.0775C 25.02827 191.7522 27.02852 192.4648 27.47857 194.315C 27.55358 194.6026 27.59109 194.9026 27.60359 195.2151L27.60359 195.2151L27.59109 195.2027z" stroke="none" fill="#FFFFFF" fill-rule="nonzero" fill-opacity="0.09803922" /></g></g><path id="449" transform="matrix(1 0 0 -1 0 842)" d="M27.20354 180.7759C 27.6786 181.0759 28.19116 181.2259 28.70373 181.3634C 29.74136 181.6135 30.77898 181.7385 31.82912 181.8385C 35.40456 182.1385 39.24254 182.126 42.84299 182.201C 48.63122 182.1885 51.98163 182.5636 55.23204 182.5511C 56.58221 182.5511 62.18291 182.5511 63.47057 182.5511C 64.37068 182.5636 65.2958 182.6011 66.19591 182.7011C 70.959 183.1512 74.47194 184.9889 78.20991 188.8519C 79.62258 190.302 81.11027 191.7147 82.31042 193.4525C 83.47306 195.1402 84.26067 197.2029 83.64809 199.4782C 83.08552 201.666 81.86037 203.4162 80.5727 204.9914C 79.8101 205.8915 79.01001 206.7416 78.18491 207.5542C 77.3598 208.3543 76.52219 209.1669 75.64709 209.867C 72.5717 212.3423 69.03376 213.73 65.43331 214.105C 64.67072 214.1925 63.87061 214.2175 63.10802 214.2175C 50.09389 214.3801 58.19491 214.6676 45.24329 214.5801C 38.82999 214.5176 32.41669 214.4426 26.01589 213.955C 25.20328 213.88 24.47819 213.3299 24.02814 212.4298C 23.7406 211.8672 23.54058 211.1922 23.46557 210.5171L23.46557 210.5171L23.44056 210.267L23.44056 210.267L23.39056 209.767C 23.22804 208.0918 23.07802 206.4041 22.97801 204.7414C 22.903 203.5912 22.903 201.8785 22.87799 200.7034C 22.85299 198.9906 22.80298 197.3029 22.72798 195.5902C 22.67797 194.6151 22.61546 193.5275 22.59046 192.5523C 22.49045 188.2518 22.56545 179.8882 25.82836 177.563C 25.82836 177.713 25.82836 177.888 25.84086 178.0505C 25.87837 179.2882 26.37843 180.2508 27.24104 180.7884L27.24104 180.7884L27.20354 180.7759zM27.20354 180.7759C 26.75348 180.4758 26.34093 180.0383 26.1034 179.4507C 25.97839 179.1632 25.90338 178.8381 25.86587 178.5131C 25.82837 178.188 25.82837 178.188 25.82837 178.0255C 25.82837 178.0255 25.46582 177.7755 25.46582 177.7755C 25.14078 178.063 24.84074 178.4131 24.59071 178.8006C 22.96551 181.4009 22.54046 185.2264 22.29042 188.4518C 22.1154 190.8271 22.1029 193.2399 22.16541 195.6152C 22.19041 197.3029 22.17791 199.0156 22.16541 200.6909C 22.15291 202.0535 22.1154 203.4287 22.16541 204.7914C 22.22792 206.5041 22.40294 208.2043 22.57796 209.892L22.57796 209.892L22.62797 210.3921L22.62797 210.3921L22.65297 210.6421C 22.75298 211.4797 22.99051 212.2673 23.34056 212.9799C 23.81562 213.9425 24.60321 214.6801 25.47832 214.8926C 25.74086 214.9676 26.04089 214.9801 26.31593 215.0051C 46.05589 216.2053 44.10565 215.4052 63.88312 215.2427C 69.42131 215.0802 74.30943 212.8674 78.64747 208.3793C 80.74773 206.2791 82.9105 203.9913 84.08565 200.8159C 86.0984 195.4277 82.22292 191.6647 79.31004 188.6893C 78.27242 187.6267 77.22228 186.5766 76.09715 185.6765C 74.50945 184.3888 72.78423 183.3762 70.98401 182.7261C 67.92113 181.601 64.67072 181.5135 61.50783 181.5385C 54.33193 181.5385 40.69273 182.0635 33.40431 181.8885C 31.82912 181.8135 30.25392 181.726 28.70373 181.3509C 28.19116 181.2259 27.6786 181.0634 27.20354 180.7759z" stroke="none" fill="#000000" fill-rule="nonzero" /></g><g clip-path="url(#16)"></g><g clip-path="url(#17)"><g transform="matrix(0.1612426 0 0 0.1614583 503.015 5.097412)"><g transform="matrix(1 0 0 1 0 0)"><image x="0" y="0" xlink:href="img_01.png" width="507" height="288" /></g></g></g></g></g></svg>