<svg xmlns="http://www.w3.org/2000/svg" xmlns:xlink="http://www.w3.org/1999/xlink" id="body_1" preserveAspectRatio="xMinYMin meet" viewBox="0 0 793 1123"><defs><clipPath id="1"><path id="" clip-rule="evenodd" transform="matrix(1 0 0 1 0 0)" d="M0 842L0 -0.25L0 -0.25L595.5 -0.25L595.5 -0.25L595.5 842L595.5 842L0 842z" /></clipPath><clipPath id="2"><path id="" clip-rule="evenodd" transform="matrix(1 0 0 1 0 0)" d="M0 -0.249939L595.5 -0.249939L595.5 -0.249939L595.5 842.0001L595.5 842.0001L0 842.0001z" /></clipPath><clipPath id="3"><path id="" clip-rule="evenodd" transform="matrix(1 0 0 1 0 0)" d="M0 -0.249939L595.5 -0.249939L595.5 -0.249939L595.5 842.0001L595.5 842.0001L0 842.0001z" /></clipPath><clipPath id="4"><path id="" clip-rule="evenodd" transform="matrix(1 0 0 1 0 0)" d="M0 -0.249939L595.5 -0.249939L595.5 -0.249939L595.5 842.0001L595.5 842.0001L0 842.0001z" /></clipPath><clipPath id="5"><path id="" clip-rule="evenodd" transform="matrix(1 0 0 1 0 0)" d="M75.59999 41.99011L519.12 41.99011L519.12 41.99011L519.12 822.2301L519.12 822.2301L75.59999 822.2301z" /></clipPath><clipPath id="6"><path id="" clip-rule="evenodd" transform="matrix(1 0 0 1 0 0)" d="M76.4271 42.15967L518.9271 42.15967L518.9271 42.15967L518.9271 822.1597L518.9271 822.1597L76.4271 822.1597z" /></clipPath><clipPath id="7"><path id="" clip-rule="evenodd" transform="matrix(1 0 0 1 0 0)" d="M0 -0.249939L595.5 -0.249939L595.5 -0.249939L595.5 842.0001L595.5 842.0001L0 842.0001z" /></clipPath><clipPath id="8"><path id="" clip-rule="evenodd" transform="matrix(1 0 0 1 0 0)" d="M0 -0.249939L595.5 -0.249939L595.5 -0.249939L595.5 842.0001L595.5 842.0001L0 842.0001z" /></clipPath><clipPath id="9"><path id="" clip-rule="evenodd" transform="matrix(1 0 0 1 0 0)" d="M175.4067 -69.52185L516.7255 126.7955L516.7255 126.7955L382.1079 360.8427L382.1079 360.8427L40.78903 164.5253L40.78903 164.5253L175.4067 -69.52185z" /></clipPath><clipPath id="10"><path id="" clip-rule="evenodd" transform="matrix(1 0 0 1 0 0)" d="M175.4067 -69.52185L592.7908 170.5463L592.7908 170.5463L424.1449 463.7554L424.1449 463.7554L6.760679 223.6873L6.760679 223.6873L175.4067 -69.52185z" /></clipPath><clipPath id="11"><path id="" clip-rule="evenodd" transform="matrix(1 0 0 1 0 0)" d="M475.9692 14.82153L571.9692 14.82153L571.9692 14.82153L571.9692 69.57153L571.9692 69.57153L475.9692 69.57153z" /></clipPath><clipPath id="12"><path id="" clip-rule="evenodd" transform="matrix(1 0 0 1 0 0)" d="M0 -0.249939L595.5 -0.249939L595.5 -0.249939L595.5 842.0001L595.5 842.0001L0 842.0001z" /></clipPath><clipPath id="13"><path id="" clip-rule="evenodd" transform="matrix(1 0 0 1 0 0)" d="M0 -0.249939L595.5 -0.249939L595.5 -0.249939L595.5 842.0001L595.5 842.0001L0 842.0001z" /></clipPath><clipPath id="14"><path id="" clip-rule="evenodd" transform="matrix(1 0 0 1 0 0)" d="M284.7054 14.82153L316.9554 14.82153L316.9554 14.82153L316.9554 47.07153L316.9554 47.07153L284.7054 47.07153z" /></clipPath><clipPath id="15"><path id="" clip-rule="evenodd" transform="matrix(1 0 0 1 0 0)" d="M284.7054 30.71576C 284.7054 34.93121 286.38 38.97394 289.3607 41.95471C 292.3415 44.93549 296.3842 46.61005 300.5996 46.61005C 304.8151 46.61005 308.8578 44.93549 311.8386 41.95471C 314.8193 38.97394 316.4939 34.93121 316.4939 30.71576C 316.4939 26.50037 314.8193 22.45758 311.8386 19.47681C 308.8578 16.49609 304.8151 14.82153 300.5996 14.82153C 296.3842 14.82153 292.3415 16.49609 289.3607 19.47681C 286.38 22.45758 284.7054 26.50037 284.7054 30.71576z" /></clipPath><clipPath id="16"><path id="" clip-rule="evenodd" transform="matrix(1 0 0 1 0 0)" d="M285.4554 15.57153L316.2054 15.57153L316.2054 15.57153L316.2054 46.32153L316.2054 46.32153L285.4554 46.32153z" /></clipPath><clipPath id="17"><path id="" clip-rule="evenodd" transform="matrix(1 0 0 1 0 0)" d="M300.5996 15.7215C 304.5764 15.7215 308.3902 17.30127 311.2022 20.11322C 314.0142 22.92517 315.5939 26.73901 315.5939 30.71576C 315.5939 34.6925 314.0142 38.50635 311.2022 41.3183C 308.3902 44.13031 304.5764 45.71002 300.5996 45.71002C 296.6229 45.71002 292.8091 44.13031 289.9971 41.3183C 287.1851 38.50635 285.6054 34.6925 285.6054 30.71576C 285.6054 26.73901 287.1851 22.92517 289.9971 20.11322C 292.8091 17.30127 296.6229 15.7215 300.5996 15.7215z" /></clipPath><clipPath id="18"><path id="" clip-rule="evenodd" transform="matrix(1 0 0 1 0 0)" d="M285.4554 15.57153L316.2054 15.57153L316.2054 15.57153L316.2054 46.32153L316.2054 46.32153L285.4554 46.32153z" /></clipPath><clipPath id="19"><path id="" clip-rule="evenodd" transform="matrix(1 0 0 1 0 0)" d="M284.6987 14.81482L316.1987 14.81482L316.1987 14.81482L316.1987 46.31482L316.1987 46.31482L284.6987 46.31482z" /></clipPath><clipPath id="20"><path id="" clip-rule="evenodd" transform="matrix(1 0 0 1 0 0)" d="M0 -0.249939L595.5 -0.249939L595.5 -0.249939L595.5 842.0001L595.5 842.0001L0 842.0001z" /></clipPath><clipPath id="21"><path id="" clip-rule="evenodd" transform="matrix(1 0 0 1 0 0)" d="M0 -0.249939L595.5 -0.249939L595.5 -0.249939L595.5 842.0001L595.5 842.0001L0 842.0001z" /></clipPath><clipPath id="22"><path id="" clip-rule="evenodd" transform="matrix(1 0 0 1 0 0)" d="M284.7054 14.82153L316.9554 14.82153L316.9554 14.82153L316.9554 47.07153L316.9554 47.07153L284.7054 47.07153z" /></clipPath><clipPath id="23"><path id="" clip-rule="evenodd" transform="matrix(1 0 0 1 0 0)" d="M284.7054 30.71576C 284.7054 34.93121 286.38 38.97394 289.3607 41.95471C 292.3415 44.93549 296.3842 46.61005 300.5996 46.61005C 304.8151 46.61005 308.8578 44.93549 311.8386 41.95471C 314.8193 38.97394 316.4939 34.93121 316.4939 30.71576C 316.4939 26.50037 314.8193 22.45758 311.8386 19.47681C 308.8578 16.49609 304.8151 14.82153 300.5996 14.82153C 296.3842 14.82153 292.3415 16.49609 289.3607 19.47681C 286.38 22.45758 284.7054 26.50037 284.7054 30.71576z" /></clipPath><clipPath id="24"><path id="" clip-rule="evenodd" transform="matrix(1 0 0 1 0 0)" d="M284.7054 14.82153L316.2054 14.82153L316.2054 14.82153L316.2054 46.32153L316.2054 46.32153L284.7054 46.32153z" /></clipPath><clipPath id="25"><path id="" clip-rule="evenodd" transform="matrix(1 0 0 1 0 0)" d="M284.7054 14.82153L316.948 14.82153L316.948 14.82153L316.948 47.06415L316.948 47.06415L284.7054 47.06415z" /></clipPath><clipPath id="26"><path id="" clip-rule="evenodd" transform="matrix(1 0 0 1 0 0)" d="M284.7054 30.71216C 284.7054 34.92657 286.3796 38.96844 289.3596 41.94849C 292.3397 44.92859 296.3816 46.60278 300.596 46.60278C 304.8105 46.60278 308.8523 44.92859 311.8324 41.94849C 314.8124 38.96844 316.4866 34.92657 316.4866 30.71216C 316.4866 26.49768 314.8124 22.45581 311.8324 19.47577C 308.8523 16.49567 304.8105 14.82153 300.596 14.82153C 296.3816 14.82153 292.3397 16.49567 289.3596 19.47577C 286.3796 22.45581 284.7054 26.49768 284.7054 30.71216z" /></clipPath><clipPath id="27"><path id="" clip-rule="evenodd" transform="matrix(1 0 0 1 0 0)" d="M0 -0.249939L595.5 -0.249939L595.5 -0.249939L595.5 842.0001L595.5 842.0001L0 842.0001z" /></clipPath><clipPath id="28"><path id="" clip-rule="evenodd" transform="matrix(1 0 0 1 0 0)" d="M0 -0.249939L595.5 -0.249939L595.5 -0.249939L595.5 842.0001L595.5 842.0001L0 842.0001z" /></clipPath><clipPath id="29"><path id="" clip-rule="evenodd" transform="matrix(1 0 0 1 0 0)" d="M0 -0.249939L595.5 -0.249939L595.5 -0.249939L595.5 842.0001L595.5 842.0001L0 842.0001z" /></clipPath><clipPath id="30"><path id="" clip-rule="evenodd" transform="matrix(1 0 0 1 0 0)" d="M10.82911 254.908L584.5791 254.908L584.5791 254.908L584.5791 757.408L584.5791 757.408L10.82911 757.408z" /></clipPath><clipPath id="31"><path id="" clip-rule="evenodd" transform="matrix(1 0 0 1 0 0)" d="M10.82911 329.908L10.82911 681.7651C 10.82911 723.1865 44.40775 756.7651 85.8291 756.7651L85.8291 756.7651L509.4465 756.7651C 550.8679 756.7651 584.4465 723.1865 584.4465 681.7651L584.4465 681.7651L584.4465 329.908C 584.4465 288.4866 550.8679 254.908 509.4465 254.908L509.4465 254.908L85.8291 254.908C 44.40775 254.908 10.82911 288.4866 10.82911 329.908z" /></clipPath><clipPath id="32"><path id="" clip-rule="evenodd" transform="matrix(1 0 0 1 0 0)" d="M10.82911 254.908L584.5791 254.908L584.5791 254.908L584.5791 756.658L584.5791 756.658L10.82911 756.658z" /></clipPath><clipPath id="33"><path id="" clip-rule="evenodd" transform="matrix(1 0 0 1 0 0)" d="M0 -0.249939L595.5 -0.249939L595.5 -0.249939L595.5 842.0001L595.5 842.0001L0 842.0001z" /></clipPath></defs><g transform="matrix(1.333333 0 0 1.333333 0 0)"><g clip-path="url(#1)"><g clip-path="url(#2)"><path id="1" transform="matrix(1 0 0 -1 0 842)" d="M0 842.2499L595.4999 842.2499L595.4999 -6.103516E-05L0 -6.103516E-05z" stroke="none" fill="#FFFFFF" fill-rule="nonzero" /></g><g clip-path="url(#3)"><path id="2" transform="matrix(1 0 0 -1 0 842)" d="M0 842.2499L595.4999 842.2499L595.4999 -6.103516E-05L0 -6.103516E-05z" stroke="none" fill="#FFFFFF" fill-rule="nonzero" /></g><g clip-path="url(#4)"><g><g clip-path="url(#5)"><g clip-path="url(#6)"><g transform="matrix(0 0.5128205 -0.5127462 0 518.9271 42.15973)"><g transform="matrix(1 0 0 1 0 0)"><image x="0" y="0" xlink:href="img_01.png" width="1521" height="863" /></g></g></g></g></g></g><g clip-path="url(#7)"><g clip-path="url(#8)"><g clip-path="url(#9)"><g clip-path="url(#10)"><path id="4" transform="matrix(1 0 0 -1 0 842)" d="M431.9405 743.8546C 432.7788 743.5001 433.7569 743.2778 434.6958 742.9504C 435.6347 742.6231 436.5645 742.2798 437.4003 741.884C 433.7157 743.2802 432.1957 745.9623 431.9657 743.8615L431.9657 743.8615L431.9405 743.8546zM465.4683 717.6156L465.793 716.812C 466.0899 717.5132 466.4053 718.2464 466.6887 718.9979L466.6887 718.9979L465.4683 717.6156zM456.4063 666.6578L456.6747 666.1631C 457.426 666.5817 457.8996 667.4791 458.8332 669.3242L458.8332 669.3242L456.3903 666.6669L456.3903 666.6669L456.4063 666.6578zM81.40218 616.2602L80.84899 614.7068L80.84899 614.7068L83.21735 612.834C 82.65728 613.7092 81.55989 615.425 81.41814 616.251L81.41814 616.251L81.40218 616.2602zM75.85195 623.4723L77.63026 619.1316L76.85429 622.1088L75.85195 623.4723zM410.1786 436.749C 409.5516 436.6204 408.8904 436.4691 408.1855 436.2789C 409.3203 436.4769 409.8489 436.6195 410.1786 436.749zM414.1259 439.2852C 411.0185 439.3923 410.6811 438.9908 410.3895 438.5206C 410.1001 438.0914 409.8747 437.6255 407.0291 438.1138C 405.4994 437.3773 411.717 437.3528 410.2038 436.7557C 414.0617 437.6207 416.0439 437.4802 414.1511 439.2921L414.1511 439.2921L414.1259 439.2852zM350.6338 467.6371L349.9012 468.9517L347.3058 467.3606L350.6178 467.6462L350.6338 467.6371zM297.6078 538.0358C 298.3499 538.4385 306.6537 536.2358 299.1403 538.9623C 298.3483 538.6946 292.3338 540.2186 297.6078 538.0358zM280.0873 541.5199C 281.6751 540.9895 281.7474 540.6714 282.5688 540.0288L282.5688 540.0288L283.0449 541.818C 282.0592 541.7682 281.0754 541.6108 280.0873 541.5199L280.0873 541.5199L280.0873 541.5199zM296.7857 533.5744C 298.6916 533.1162 300.5375 532.4799 302.4018 531.8755C 303.1594 532.1204 301.8014 533.0503 299.6718 533.6371C 298.2318 533.8699 296.0926 534.2921 296.8017 533.5652L296.8017 533.5652L296.7857 533.5744zM219.8171 537.3495L221.4493 537.1552L225.2848 537.3524L219.8171 537.3495zM232.4772 536.7673C 230.7435 536.6373 229.0805 536.4453 228.1283 536.121C 229.0753 536.2144 231.1043 536.451 232.4772 536.7673zM239.3419 537.498L233.8854 537.4036C 233.9876 537.1746 233.3056 536.9502 232.4772 536.7673C 235.8212 537.0345 239.5144 537.0584 239.3419 537.498zM212.4146 536.4602L213.7186 535.0296L213.7186 535.0296L215.5699 536.3256C 214.5319 536.3696 213.4754 536.3818 212.4306 536.451L212.4306 536.451L212.4146 536.4602zM250.6377 532.3621C 249.0307 532.5633 249.7596 530.7615 248.8347 531.1873C 247.1791 529.566 259.1802 533.6804 250.6377 532.3621zM207.6046 532.8676C 206.5433 532.7974 205.4409 532.7296 204.396 532.7989C 204.0008 532.1117 205.7014 532.6649 207.6046 532.8676zM215.3789 532.6284C 214.9271 533.8028 211.8704 533.2214 208.4005 532.9202C 208.6155 532.9242 208.8145 532.9373 209.0202 532.9254C 208.0367 531.2153 211.7499 531.8657 215.3789 532.6284zM177.6867 539.3137C 176.9595 539.3066 176.2172 539.606 175.4923 539.64L175.4923 539.64L175.5178 538.9447C 178.4933 538.2755 180.6797 538.3791 177.6867 539.3136L177.6867 539.3136L177.6867 539.3137zM220.2714 528.1555L225.1969 528.9167C 222.8111 528.6514 221.9337 528.9008 220.6946 529.0392C 220.8241 528.7096 221.8153 528.2883 220.2554 528.1647L220.2554 528.1647L220.2714 528.1555zM351.1705 477.9626C 351.6122 476.475 351.7356 475.6171 351.7408 474.9973C 352.1091 475.0832 352.0265 475.79 351.1705 477.9626zM399.76 750.7302L399.5291 750.7354C 399.3916 750.6443 399.3456 750.5643 399.2997 750.4845L399.2997 750.4845L399.7692 750.7461L399.7692 750.7461L399.76 750.7302zM458.8592 564.9448C 458.8241 565.4755 459.0031 565.7128 459.1822 565.9501C 458.646 566.3861 458.3987 566.2518 458.8592 564.9448zM225.132 754.9954L224.0098 756.0025C 223.0153 756.0853 222.0391 756.2001 225.132 754.9954zM263.5422 533.277C 261.681 533.3692 260.0528 533.3486 259.5508 532.9567C 259.2313 533.1406 259.1769 533.3419 259.9001 533.564C 262.0758 533.9078 263.0264 533.6376 263.5422 533.2771L263.5422 533.2771L263.5422 533.277zM267.3396 532.9645C 267.3396 532.9645 267.2297 532.9214 267.1701 532.8918C 269.5703 532.5535 270.7837 532.2596 267.3396 532.9645zM465.5286 558.0886C 466.1081 555.99 466.7755 554.2662 467.7428 553.4334C 467.19 555.2827 466.3871 556.8079 465.5286 558.0886zM466.5996 681.6805C 465.4312 680.9063 465.2369 677.7214 464.8803 676.14C 466.3274 678.4341 467.5194 679.4712 466.5996 681.6805zM451.1552 737.8434C 448.9652 740.5068 446.059 742.2209 443.3085 743.2075C 441.9149 743.6688 440.6012 744.084 439.3669 744.3048L439.3669 744.3048L436.0914 744.7851C 433.9323 746.2821 439.1499 746.8116 431.9156 748.8032C 426.7486 749.9886 427.0685 749.1028 427.8571 748.1813C 428.6458 747.2598 429.8663 746.2387 426.9044 746.8576C 425.6795 747.945 424.3762 748.8222 423.0482 749.8413C 421.0292 749.9178 419.1768 749.8773 417.4463 750.0857C 415.6515 750.1823 413.937 750.3815 412.2728 750.5942C 408.9077 750.9559 405.6641 751.4178 402.1951 751.4139C 400.6371 751.1827 399.8795 750.9379 399.5107 750.7034C 392.0069 751.191 384.3139 747.0234 378.678 746.543C 379.8987 747.2234 375.2334 747.0993 374.4523 747.4422C 371.1629 746.2715 367.8871 745.0505 364.6249 743.7791C 368.9744 745.4247 368.4994 746.4849 369.0542 747.7822C 365.8867 746.8604 364.5576 745.8808 362.4427 745.1619C 363.659 745.9084 364.8846 746.6711 363.0782 746.7104C 359.6757 745.1582 356.2867 743.5556 352.8794 741.921C 353.5563 741.9146 354.8126 742.2128 355.8582 742.4409C 353.1874 741.6801 347.6148 739.3129 343.4797 739.0753C 343.7007 739.6075 344.9103 740.3793 345.1061 740.9047C 348.691 740.6294 350.2115 742.2007 351.6422 743.5046C 344.2883 741.1838 349.7114 743.254 345.9055 742.9972C 340.685 741.4271 338.9434 739.3237 340.5976 738.7976C 334.5088 737.493 332.5437 737.2196 326.6497 734.4418L326.6497 734.4418L327.4164 736.2553C 325.5599 735.5791 323.7126 734.9188 321.8426 734.293C 323.2312 735.3021 324.6106 736.2952 325.9764 737.3387C 314.8076 735.5956 324.6982 734.118 312.1772 732.1318L312.1772 732.1318L311.8585 733.4636C 309.5581 732.6812 308.0872 731.6768 306.6834 730.9741C 305.2797 730.2715 303.9566 729.8202 301.9389 730.3427C 297.3289 728.7618 310.3777 729.7426 299.2559 727.6747C 297.1578 728.0945 292.8517 728.0403 289.5656 728.0587C 285.9842 727.1198 292.4819 726.6578 294.7814 727.1431C 290.5148 726.4919 287.6563 726.4771 285.567 726.7643C 283.4845 727.0262 282.1916 727.5147 280.9582 728.0327C 278.4822 729.0527 276.3666 729.7378 268.6685 729.444C 271.262 728.7391 270.1216 728.1616 269.8686 727.6477C 269.618 727.1751 270.316 726.5397 276.6591 726.4006C 275.1471 726.2494 273.6311 726.3131 272.1384 726.4911C 270.632 726.7195 269.1581 727.0781 267.6657 727.4047C 266.1802 727.7062 264.7043 728.1722 263.1888 728.3846C 261.6732 728.597 260.1233 728.7866 258.4927 728.7249C 259.9731 729.0431 261.41 729.3226 262.8473 729.7508C 260.6186 730.0543 258.023 730.0159 256.7675 730.0149L256.7675 730.0149L257.5576 731.2407C 255.5354 730.9788 253.691 731.359 251.945 731.7253C 250.1922 732.1167 248.5816 732.6815 247.1312 733.303C 245.6465 733.9017 244.2577 734.4453 242.9048 734.7556C 241.5519 735.0658 240.2901 735.2385 238.9264 734.9382C 242.7552 736.0114 233.5648 736.8948 231.2844 739.1423C 232.8891 738.9 234.6526 738.2684 236.5213 737.5977C 238.4084 736.959 240.3294 736.1943 242.0814 735.5057C 245.6933 734.2789 248.7323 733.4243 249.4393 734.3575C 246.9398 735.9653 244.0805 735.6533 241.732 737.3018C 243.6379 736.8436 246.5391 736.5999 247.3582 736.7668C 238.9319 740.9753 233.1646 740.9321 227.7392 742.9254C 229.2602 742.242 230.8156 741.5813 232.3827 740.9778C 233.9657 740.365 235.4959 739.6975 237.0905 739.142C 235.4093 737.3653 232.8026 740.6724 229.4582 740.2565C 227.4413 741.927 225.4041 742.8223 223.3848 743.6009C 221.409 744.4182 219.536 745.1553 217.9091 746.4313C 218.8612 745.905 219.0195 746.0692 219.9715 745.5428C 210.3611 750.6876 209.6197 755.389 205.8936 757.4896C 202.3693 759.7932 194.8075 762.3986 196.9097 760.2111C 195.2624 760.7119 198.4735 759.269 201.2175 757.6057C 203.9707 755.9584 206.2892 754.2208 202.9396 754.4246C 201.0796 757.366 198.1698 758.593 194.4464 760.0328C 190.6819 761.4749 186.1678 763.0929 180.6666 766.6186C 186.3575 765.4935 178.2672 769.6576 183.3108 768.4794C 180.3685 769.5762 178.7595 769.8849 177.5732 770.078C 176.3777 770.2552 175.5566 770.1958 174.1066 770.1152L174.1066 770.1152L172.6428 771.6378C 168.4722 771.7822 167.9035 771.2372 166.8558 771.1167C 166.348 771.0472 165.7191 771.0261 164.4776 771.1234C 163.257 771.2938 161.4002 771.3196 158.4986 771.4147C 162.5102 771.6595 153.9881 773.5198 157.0372 773.829C 155.3867 773.9915 153.7584 773.9709 152.2353 773.9111C 151.4805 773.8561 150.7533 773.849 150.06 773.7161C 149.3735 773.5579 148.7282 773.3973 148.1308 773.2092L148.1308 773.2092L148.5704 773.3818C 147.0836 773.2374 145.8141 773.1381 144.7117 773.0703C 143.6117 773.0436 142.6895 772.8084 141.8616 772.7741C 140.217 772.6141 139.0163 772.5603 137.8407 772.5133C 136.6764 772.3748 135.5668 772.1836 134.0587 771.8174C 133.3127 771.6297 132.482 771.4056 131.4978 771.0997C 130.55 770.709 129.4648 770.2273 128.2168 769.6477L128.2168 769.6477L129.4351 769.4362C 122.9254 766.4383 115.7962 762.7333 109.2084 757.9725C 102.591 753.2712 96.61989 747.4751 92.32219 741.4822C 93.57419 742.6975 94.76226 743.9496 96.02782 745.1146C 95.36569 744.666 94.00369 742.5568 92.30286 740.3023C 91.44444 739.1796 90.69068 737.8691 89.81389 736.7145C 88.96906 735.5415 88.02635 734.5311 87.28984 733.6573C 87.66954 734.5024 88.41211 735.9044 88.96281 736.566C 88.35071 736.833 86.38633 736.0061 84.42487 732.9657L84.42487 732.9657L84.58928 731.2548L84.58928 731.2548L83.15313 730.4219C 80.61726 725.6062 85.13546 731.132 82.65914 726.3459C 81.69533 725.9645 80.36499 724.539 79.29548 722.3467C 78.73673 721.2644 78.16162 720.0426 77.58167 718.7385C 77.03369 717.416 76.59277 715.9468 76.08794 714.5145C 75.57391 713.0661 75.09184 711.5994 74.75162 710.1573C 74.35426 708.727 73.95932 707.3378 73.54639 706.0652C 72.87599 703.4945 72.18407 701.4041 71.32806 700.3225C 72.01984 698.3082 72.56679 700.8861 73.09293 703.3909C 73.55517 705.9325 74.27309 708.327 74.67397 706.1398C 73.9973 704.5935 73.51974 703.9111 72.69579 700.4078L72.69579 700.4078L74.15073 701.4213C 73.63742 699.4196 73.35309 697.5201 73.04398 695.7625L73.04398 695.7625L72.58854 693.1957C 72.44899 692.3615 72.41012 691.5543 72.27298 690.7612L72.27298 690.7612L71.7114 686.235L71.7114 686.235L71.43874 681.9892L71.43874 681.9892L71.32539 679.9063L71.32539 679.9063L71.33549 677.8162L71.33549 677.8162L71.42165 673.4917C 71.6694 670.5205 71.92789 667.3091 72.59429 663.5867L72.59429 663.5867L72.25513 664.1433C 72.40302 661.4423 72.66247 659.3788 73.1609 657.731C 73.6182 656.0855 74.16584 654.856 74.87173 653.7906C 74.56869 652.5612 73.55709 656.3121 73.52125 654.1421C 74.74084 651.973 75.57845 649.7686 76.08201 647.501C 76.68626 645.2605 77.10071 643.0229 77.43768 640.8724C 78.28778 636.6189 79.04288 632.7178 81.02121 630.3889C 79.98753 630.3666 80.14095 627.1945 80.46307 624.6484C 80.70966 622.0819 80.83645 620.0098 78.95116 622.0938C 79.64306 620.9302 80.26623 619.7209 81.01768 618.5869C 80.10831 618.8547 78.68262 621.7378 77.17025 624.692C 75.75179 627.6985 74.32454 630.8376 73.19948 631.6549L73.19948 631.6549L71.48375 637.9164C 70.97058 640.0193 70.53293 642.1426 70.0769 644.234C 69.69805 643.6863 68.21669 645.4741 68.73467 643.4535C 67.67302 646.4886 66.86424 649.1871 67.30042 644.9165C 64.28169 660.2645 62.13966 675.9166 63.01196 691.7065C 63.45492 699.5764 64.62506 707.4532 66.7937 715.0323C 68.96912 722.5862 72.35119 729.8715 76.72087 736.2484C 77.6637 738.1094 76.53203 737.3992 75.77599 736.8982C 80.09342 740.9656 77.95827 742.0236 79.60565 744.7767C 80.7653 745.6836 81.82907 746.6456 83.05025 747.4745L83.05025 747.4745L86.63828 749.941C 88.27049 753.0007 86.04112 751.4542 85.839 751.9533C 90.97423 758.1451 97.24486 763.1309 103.5449 767.2064C 109.9249 771.236 116.3044 774.2663 122.0553 777.4241C 126.2601 778.0045 121.8345 775.3392 126.9999 776.8134C 125.0836 776.8096 125.0137 777.1688 125.9324 777.7676C 126.8646 778.3162 128.7355 779.2393 130.8249 779.8028L130.8249 779.8028L136.4003 781.509C 137.7689 781.8916 138.3003 782.224 137.0341 782.4631C 138.4873 782.0314 140.424 781.9596 142.4778 782.0544L142.4778 782.0544L148.7525 782.0184C 150.7216 782.0769 152.4652 781.6696 153.5344 781.3098C 154.6012 780.9089 155.0135 780.3315 154.3753 779.4437C 157.5282 779.2679 158.8388 779.3648 159.1945 779.7983C 159.541 780.2158 158.875 780.8328 157.9588 781.1259L157.9588 781.1259L163.2641 780.3288C 164.9786 780.1296 166.5461 779.6747 168.1255 779.4255C 171.3096 778.9341 174.2163 778.2192 177.3437 777.888C 178.2754 777.4372 180.6919 776.3876 183.9426 775.1985C 187.1357 773.8723 191.1124 772.2444 194.9716 770.3011C 202.7518 766.4855 210.331 761.9135 212.4155 759.1406C 209.5036 762.8785 213.1812 759.8062 217.2182 758.5051L217.2182 758.5051L214.7234 761.7479L214.7234 761.7479L222.8419 757.0783C 224.5915 756.3485 225.0274 756.0339 224.9539 755.9061C 226.2939 755.0928 224.1722 755.2498 227.5091 752.9901C 233.0783 750.0634 233.7432 750.7018 237.1922 750.0792L237.1922 750.0792L236.4347 750.6851L236.4347 750.6851L240.2971 749.0803C 243.1175 747.7346 229.6747 752.1699 238.5332 747.1599C 238.8633 747.4379 245.1192 747.2213 247.1899 745.2008C 242.4845 747.0778 242.6366 745.8632 244.2271 744.6718C 246.4401 743.6754 248.7387 743.0126 250.9842 742.1465L250.9842 742.1465L249.4095 744.8813C 250.6089 744.4891 251.7943 743.9988 253.0054 743.6638L253.0054 743.6638L256.6453 742.6336C 257.8539 742.2574 259.0901 741.9293 260.3311 741.6833C 261.5722 741.4375 262.7992 741.0933 264.0678 740.8954C 269.0982 739.9161 274.3085 739.4716 279.6179 739.3102C 290.2299 739.0128 301.2217 740.411 312.1709 742.9185C 312.2256 742.015 316.1223 742.8364 319.8223 743.6859C 323.536 744.4849 327.0483 745.2296 326.4196 743.6558L326.4196 743.6558L325.5117 743.6675C 320.1765 741.972 327.6452 742.0151 331.9647 743.5716C 327.1383 743.0935 339.4448 748.4785 328.2091 745.7318L328.2091 745.7318L336.4518 749.4131C 339.783 755.6854 359.5483 755.9933 372.7945 760.4975C 371.8627 760.0977 371.6788 759.778 371.5937 759.593C 377.4516 761.7535 384.4585 762.6576 390.2858 762.879C 393.1951 763.056 395.8314 762.9435 397.8987 762.9879C 399.9773 762.9409 401.4912 762.9846 402.2077 763.2319L402.2077 763.2319L403.3495 761.8521C 408.6534 763.0125 411.7441 763.468 415.0438 763.3992C 416.6992 763.3191 418.3981 763.2777 420.5281 762.8395L420.5281 762.8395L424.0386 762.139C 425.316 761.8084 426.712 761.3883 428.2954 760.9242C 428.0617 760.7396 426.5133 760.6731 428.4527 759.9404C 431.6685 760.1326 435.2187 760.5365 443.4424 756.6785L443.4424 756.6785L442.9318 756.4192C 447.2876 754.637 451.4156 752.3477 455.4309 749.8256C 454.1588 747.9837 459.4979 745.3594 464.6953 741.1577C 467.3354 739.1288 469.8323 736.6292 471.5521 734.2576C 472.3811 733.0364 473.0318 731.8751 473.4337 730.8358C 473.8355 729.7965 473.8601 728.804 473.6179 728.05C 474.2364 727.6093 475.0526 726.7357 475.9846 725.5828C 476.8227 724.3776 477.676 722.866 478.5748 721.2855C 479.4141 719.6756 480.054 717.9038 480.7538 716.3103C 481.3941 714.6871 481.7671 713.154 482.1869 711.998C 482.0014 711.9344 481.8748 711.6033 481.8267 710.7802C 483.4842 708.1891 483.7397 703.9374 483.0719 699.8551C 482.468 695.736 481.1717 691.7813 480.6535 688.8466C 480.3657 684.9073 481.4651 686.338 482.6128 687.8898C 480.8463 684.2267 479.8551 678.9906 478.7924 674.3698C 477.771 669.7465 476.8838 665.7266 475.9455 664.6499C 473.5099 659.7128 473.5251 663.511 471.9835 662.5687C 468.9646 655.1384 476.2696 661.9963 470.02 653.1276C 470.387 654.3203 471.2299 656.4514 470.6037 655.7694C 468.4832 652.2675 460.6643 648.0659 459.9462 643.9701L459.9462 643.9701L461.7836 646.0184C 460.7583 642.4608 458.1666 638.9534 456.2303 635.9197C 454.278 632.8953 452.9676 630.3949 454.2452 629.3623L454.2452 629.3623L455.8167 629.5431C 454.3935 626.8098 453.7141 625.0739 453.3471 623.8812C 452.9641 622.6977 452.8846 622.0416 452.8461 621.3832C 452.7852 620.057 452.473 618.8116 451.0589 612.8403L451.0589 612.8403L450.8376 613.0101C 450.7131 607.7646 449.3665 604.647 451.951 602.3735C 451.9367 602.9773 451.9887 603.5854 452.0408 604.1935C 452.4915 601.0205 452.896 599.3203 453.2821 597.5881C 453.4374 596.7119 453.7094 595.8536 453.9946 594.7963C 454.2546 593.7322 454.6787 592.5099 455.2231 590.942C 455.6877 590.2706 457.2645 587.4283 457.2523 586.3718C 458.1838 586.623 459.9897 583.181 462.0966 579.3744C 464.1734 575.4788 466.4232 571.2922 467.1602 569.9113C 464.0542 574.569 464.7076 571.8962 464.8512 570.1121C 467.8708 568.0775 469.2215 566.1734 470.5647 561.5938C 471.7638 561.9037 473.0337 562.1517 474.5954 561.3172C 476.1572 560.4827 478.0338 558.5314 480.2488 554.1734C 479.2528 555.363 478.0168 557.3926 478.0183 556.2858C 478.0197 555.179 479.5127 553.4483 479.9613 552.7862C 479.9148 551.707 478.2781 554.3711 477.9771 553.0342C 479.1604 551.8005 480.0601 550.5175 480.7995 549.1776C 481.5045 547.8149 482.0082 546.3981 482.539 544.8804C 483.0196 543.3492 483.4356 541.7062 483.9908 539.8981C 484.4545 538.0788 485.1075 536.108 485.842 533.8352C 484.4503 536.5924 484.6098 533.9484 484.0506 532.7175C 485.4615 532.6929 485.6329 529.4041 485.5818 526.6898C 485.5811 523.9891 485.3966 521.8195 486.9184 523.8367C 487.2856 514.5652 487.2413 502.9142 485.2141 492.8079C 483.2785 482.7127 479.6078 474.445 476.9843 471.8066C 476.5604 471.4761 476.1975 470.9192 475.8502 470.2045C 475.4709 469.5081 475.1324 468.6607 474.7914 467.772C 474.1483 465.9513 473.3493 464.0075 472.5268 462.6516L472.5268 462.6516L471.7682 463.6621C 471.0714 461.4893 470.354 460.0942 469.834 458.9683C 469.3049 457.8265 468.8133 457.0457 468.2622 456.2355C 467.1987 454.5714 466.0433 452.7475 463.1355 448.2097C 464.2366 450.2349 464.198 451.1292 463.5599 451.092C 462.9217 451.055 461.5132 450.27 459.5823 449.1686C 459.0372 448.0359 458.4281 446.94 457.7938 445.8373C 457.1528 444.7598 456.5481 443.5975 455.834 442.5407L455.834 442.5407L453.5877 443.1096C 452.6673 441.9162 451.4753 440.8792 450.1282 440.0162C 448.7947 439.103 447.361 438.3112 445.859 437.6226C 447.2128 438.4603 446.3932 438.1447 446.1264 438.3832C 446.1243 437.6401 445.4241 436.6816 444.3304 435.6306C 443.2071 434.639 441.6742 433.5639 440.0866 432.5417C 438.4558 431.6292 436.7975 430.6689 435.4005 429.941C 433.9968 429.2384 432.9203 428.624 432.5302 428.1678C 430.5653 428.745 428.4938 428.0648 426.4998 427.2975C 424.4744 426.6972 422.5265 426.0098 421.1457 426.9741C 420.1335 426.4716 418.7921 425.9883 417.3044 425.5466C 419.0149 424.7117 419.7982 423.5593 416.6773 423.7167L416.6773 423.7167L415.9612 423.618L415.9612 423.618L414.5358 424.9484C 413.0234 424.6485 411.4747 424.4333 410.0497 424.3596C 408.6249 424.2859 407.3119 424.1478 406.2762 424.233C 407.1972 424.0223 408.292 423.8181 409.4207 423.4879C 408.0858 423.6814 406.854 423.9433 405.6749 424.2599C 405.2633 424.2839 404.8518 424.308 404.5729 424.3408C 404.7651 424.3792 404.9961 424.3739 405.2521 424.3754C 404.3152 424.5953 403.3759 424.774 402.3242 424.8685C 401.2749 425.0041 400.1386 425.0622 398.78 424.9929C 393.6423 426.8207 387.7807 427.4272 381.7803 429.0494C 375.8437 430.6349 369.7043 433.2728 365.7481 438.0793C 367.0457 436.8225 369.0925 435.2412 369.9572 435.3394C 365.6837 437.9675 361.9866 441.4126 359.0395 444.8304C 357.5533 446.536 356.2318 448.2319 354.9805 449.7172C 353.8072 451.2641 352.6286 452.5801 351.4952 453.6786L351.4952 453.6786L350.6688 452.5375C 345.8983 458.1102 342.9549 462.8658 340.5178 467.9469L340.5178 467.9469L339.0258 467.5715C 337.4152 471.3904 334.4811 477.0127 332.0832 482.1989C 329.6945 487.4012 327.748 492.1151 328.1443 494.801C 326.3456 495.9631 323.887 503.928 321.2358 506.8991L321.2358 506.8991L321.6196 508.3799C 320.9848 509.5319 320.2877 510.4646 319.6246 511.2714C 318.9454 512.0874 318.3645 512.8894 317.7053 513.4813C 316.3709 514.6741 315.2695 515.7543 314.0117 516.5627C 311.1082 520.8701 306.7485 523.718 302.2489 525.5829C 297.7013 527.4755 293.0185 528.4674 288.4963 529.6647L288.4963 529.6647L288.4836 530.0123C 285.3131 530.4534 282.1378 530.8123 278.9069 530.9265C 281.5477 531.5983 276.9438 530.5456 274.089 531.0178C 270.9851 530.7614 266.0106 531.2831 262.3103 531.9863C 260.2226 532.0174 258.1208 531.9501 256.0123 531.9081C 263.0081 532.9037 255.4911 533.5903 254.9619 534.8518L254.9619 534.8518L250.8969 533.5529C 249.1857 534.0906 253.4959 534.7805 250.4112 534.8531C 247.6853 533.9965 239.4533 533.3291 236.963 531.6987C 237.4081 531.4002 238.4366 531.1915 239.7076 531.0347C 240.0532 531.1549 240.0348 531.123 239.8218 531.0115L239.8218 531.0115L240.1167 530.9695L240.1167 530.9695L239.7623 530.9819C 239.4143 530.8206 238.8944 530.5453 238.6766 530.3516C 233.4463 530.1697 235.3981 529.7915 235.6458 529.2236C 229.5238 530.7455 226.2444 529.0374 221.4434 531.1182C 224.6806 529.9794 221.2291 529.7101 217.4324 529.4694C 213.6357 529.2285 209.485 529.1487 211.535 527.9058C 206.8571 529.8307 208.3564 527.9261 205.3771 529.6611C 211.9203 529.1304 218.1858 531.4819 223.1678 532.785L223.1678 532.785L218.0914 533.6843C 221.1652 536.2551 229.3148 533.6732 232.1946 534.7604C 230.2602 534.0228 225.7512 534.1703 225.5514 534.7106L225.5514 534.7106L227.0376 533.0051C 234.1926 532.9094 239.6178 534.8722 244.5174 536.1801C 239.773 536.3993 250.1243 537.7194 246.6239 538.7331L246.6239 538.7331L242.9178 538.2062C 241.163 538.705 244.7144 539.5548 246.7791 540.2602C 252.731 540.0696 261.1199 540.4553 268.5645 540.0868C 276.0024 539.7434 282.4505 538.7145 284.3751 537.5862C 282.0908 538.496 277.6094 538.6915 275.4724 538.3042C 277.2824 537.9012 279.0624 537.4091 280.8264 536.9262C 276.4648 537.4781 273.0516 539.4201 266.3892 539.041C 267.4355 537.8649 262.7252 536.4055 267.5797 534.6768C 270.6263 534.0942 272.748 533.9373 274.4997 533.9507C 276.2446 533.9892 277.6152 534.2643 279.068 534.5346C 280.53 534.8209 282.0996 535.1092 284.1965 535.0941C 285.2554 535.1232 286.4465 535.0123 287.8201 534.7753C 289.2054 534.5952 290.7524 534.2158 292.5369 533.6574C 293.2549 533.6486 292.3806 533.3857 292.2902 532.9698C 292.2067 532.5287 292.9346 531.9824 296.7028 531.0273C 301.4882 529.9551 305.6884 528.9005 308.9567 528.2967C 312.1472 527.6314 314.5162 527.6087 315.2188 528.6083C 314.1911 529.1143 312.8687 529.6623 311.5098 530.295C 310.1418 530.9117 308.6363 531.4373 307.3094 532.0516C 304.5821 533.1523 302.3167 534.2427 301.9996 535.3184C 303.1104 535.1049 304.3829 534.692 305.6874 534.2606C 307.0103 533.8613 308.3353 533.3545 309.5367 532.8549C 311.9879 531.9767 313.9269 531.0954 314.4288 531.4873C 315.8542 529.3063 313.934 530.3682 312.2308 531.3265C 310.5023 532.2781 308.9174 532.9984 311.1407 530.7625C 313.8116 529.1199 315.3387 528.9647 316.7294 528.3137C 314.5059 528.8481 318.1667 525.4877 318.4771 524.4373C 322.3348 521.1975 324.6878 517.9299 326.9745 514.658C 329.1053 511.263 331.1627 507.7402 333.5047 503.0114C 333.5006 502.3757 333.4397 501.0495 332.8476 501.0923C 335.6736 496.8721 341.5305 491.3766 341.9531 493.6644C 344.4872 488.1234 343.662 487.4282 346.2427 482.9663C 344.7338 491.2144 346.5949 481.36 348.8017 481.3881C 351.1257 476.776 348.6496 479.3487 349.2055 476.9872C 349.75 476.2699 351.2458 474.729 351.8063 474.8532C 351.8037 473.1107 350.2308 474.0367 348.6554 474.9215C 347.1052 475.8131 345.5458 476.6888 345.5215 474.5759C 345.5701 473.1442 346.3149 469.632 347.3074 466.4025C 348.2151 463.1368 349.4714 460.181 349.596 459.769C 352.4072 458.4073 357.865 463.0524 358.0709 467.1451C 358.6819 467.2829 358.9874 466.1501 359.2761 464.7292C 359.5992 463.3311 359.9902 461.6812 360.5226 460.7581C 361.5683 457.7321 363.345 456.0509 365.2328 454.8587C 366.1549 454.2433 367.0542 453.6622 368.0039 453.0947C 368.9444 452.5112 369.7426 451.7543 370.6068 450.8532C 369.3802 451.346 368.2707 452.0054 367.058 452.5966C 367.1192 452.37 367.5546 451.9068 368.1659 451.3426C 368.768 450.7623 369.5802 450.1038 370.4887 449.5386C 371.3881 448.9576 372.2623 448.3697 373.0662 447.9924C 373.8792 447.631 374.5417 447.3776 374.8709 447.3585C 374.7066 446.666 369.6417 446.7718 371.1522 444.7757C 374.9557 441.7374 379.674 440.3634 383.1146 440.0222C 384.8843 439.9188 386.3411 439.9742 387.3824 440.2685C 388.4329 440.5788 389.0287 441.0231 389.0668 441.5329C 384.5482 442.3666 380.0516 443.7193 375.719 445.6158C 375.9476 446.4201 378.2914 445.54 380.6171 444.7765C 381.8122 444.4507 382.9913 444.1341 383.8943 444.04C 384.7973 443.946 385.4358 444.1318 385.515 444.6392C 389.148 442.7835 393.0776 441.4804 397.0627 440.4219C 395.5196 440.5863 390.7565 441.4755 392.3258 440.0625C 397.6183 438.7624 394.9712 439.1152 398.4337 437.5916C 395.1232 437.0498 390.2344 436.3524 385.2646 436.1057C 382.8177 436.0669 380.3339 435.9641 378.1687 436.0823C 375.9643 436.0953 374.0668 436.2722 372.6995 436.3355C 375.0999 435.2951 377.5835 434.5472 380.026 433.8017L380.026 433.8017L381.4095 432.1765C 383.8451 431.4562 386.4015 431.3895 388.7594 431.4583C 391.1772 431.7053 393.3848 432.0307 395.3671 432.7408C 399.3106 433.9395 402.1058 435.841 403.3174 436.5053C 408.2731 435.803 406.4682 432.3323 405.1104 431.7095C 410.4146 431.3172 413.0076 432.8672 415.3944 434.2806C 417.7952 435.7922 420.0081 437.1992 424.8567 438.1962C 423.61 438.0626 422.3182 438.1462 421.0855 438.1108C 421.6258 438.3105 422.564 438.5366 423.6256 438.7554L423.6256 438.7554L426.9897 439.6492C 429.1822 440.2811 430.9496 440.9872 430.4034 441.11C 432.5522 440.8524 435.1512 439.6765 433.2946 438.1496C 434.4687 439.3034 435.6632 440.3817 436.7549 441.5403C 437.8171 442.7584 438.9225 443.8666 439.8956 445.1148C 438.9553 444.1456 441.1059 442.0791 440.8568 441.3504C 444.1847 443.1795 444.423 447.4025 442.2688 446.5785C 445.6996 447.6253 446.9635 448.1957 448.026 448.7118C 449.0977 449.2439 450.1434 449.4719 453.1123 450.5292C 454.5825 452.0869 450.9414 452.6711 449.6426 451.9293C 451.1364 453.7499 452.448 454.9948 453.5349 456.0711C 454.6447 457.113 455.6461 457.8557 456.4645 458.576C 454.3196 455.3646 454.9443 453.8993 456.3591 452.8091C 457.7511 451.7532 459.8443 451.2512 460.0463 449.9014C 462.4149 456.2382 463.8438 462.605 464.4008 468.7503C 464.5473 468.0067 466.0949 465.3725 466.4102 465.255C 466.0851 465.9099 466.4644 467.457 467.2934 469.4899C 468.0584 471.5595 469.2091 474.1517 470.3263 477.0185C 472.6405 482.706 474.5853 489.5631 475.6295 494.152C 475.5527 493.6857 475.444 493.2379 475.3421 492.7648C 475.5221 491.7466 476.3722 493.1506 476.8631 495.3354C 477.4684 497.4969 477.7281 500.389 477.4721 502.0887C 477.9071 501.477 477.6649 500.723 477.5237 499.2942C 478.8998 502.3523 478.005 504.5684 477.2173 506.6378C 476.3086 508.7556 475.5321 510.7336 476.4811 513.9735C 476.5095 511.0647 476.6487 509.347 476.9799 508.3696C 477.3269 507.383 477.834 507.1552 478.3374 507.291C 477.951 509.7252 477.9439 513.7065 477.4221 516.7928C 476.9574 519.8675 476.0966 521.9578 474.7802 520.6306C 475.0428 523.7123 474.1057 526.3356 475.6516 526.361C 475.0509 528.2379 474.2328 530.0696 473.5131 531.8873C 472.6674 533.671 471.9476 535.4888 470.9989 537.2042C 471.5686 536.4937 472.6649 536.0333 471.7436 539.3494C 472.6241 536.1843 474.1389 533.2713 475.1694 530.5518C 476.2595 527.8617 476.8426 525.3995 476.197 523.5376C 478.061 523.6353 478.6244 526.3527 480.6693 523.326C 479.2517 529.8839 476.8685 534.6151 474.4005 538.4592C 471.9417 542.3193 469.1967 545.2382 466.5528 548.3327C 465.3461 551.8554 463.8514 555.395 462.3087 558.9621L462.3087 558.9621L461.3254 558.9534L461.3254 558.9534L462.1429 561.7799C 460.9795 562.7893 460.1305 563.384 460.1521 563.7544C 460.1713 564.0836 460.6076 563.9177 461.1738 563.5709C 460.4563 564.579 459.7064 565.457 459.209 565.8494C 459.9344 566.8147 462.115 565.688 464.2426 564.358L464.2426 564.358L464.8711 560.9764C 466.9502 559.5253 468.7473 558.6193 467.734 561.7755C 467.3896 562.1012 466.9518 562.5233 466.5071 562.9704C 467.9431 562.1019 468.9731 561.6371 468.6903 562.7356L468.6903 562.7356L463.1837 569.9865C 463.462 568.9543 463.7227 567.3369 464.0489 565.4265C 459.9443 569.5313 455.2037 574.3423 456.5476 569.2094C 455.7352 571.4206 454.9319 573.6479 454.1722 575.9139C 451.2746 579.0481 450.1352 580.4691 448.9759 582.1143C 448.3791 582.9255 447.8214 583.8417 447.0544 585.1337C 446.269 586.3936 445.3522 588.0907 444.0991 590.5342C 444.6067 591.3057 446.1135 588.8226 446.0138 590.794C 443.6381 594.0959 443.2132 599.1257 443.5242 603.1793L443.5242 603.1793L443.8066 606.0369C 443.9486 606.9124 444.0538 607.7239 444.1106 608.4143C 444.2083 609.8044 444.2248 610.7945 443.7138 611.2373C 443.558 614.3683 443.3083 615.0436 442.8385 615.484C 442.4418 615.9036 441.9048 616.0423 441.9175 618.0981C 442.1272 617.8711 442.5147 617.4355 442.7466 618.5782C 442.4723 620.2461 442.2804 621.9091 442.1547 623.5765C 443.0835 625.3392 442.2632 619.069 444.0223 624.1613C 445.1203 633.2068 446.4843 638.4626 450.0377 644.8623C 453.9751 654.4442 445.4312 642.0672 449.3499 649.9158C 451.0142 650.5536 452.8151 650.9854 455.2958 655.7051C 455.7453 658.5943 454.7188 658.6955 456.2933 663.1708L456.2933 663.1708L457.8726 662.071C 459.6971 666.0197 460.7948 669.2593 462.1081 668.6953C 462.8177 672.2217 463.8824 674.3318 464.8404 675.8864C 465.5605 679.024 464.2274 678.2594 462.581 676.6542C 460.9345 675.049 458.8489 672.5691 458.2071 672.0449C 462.0908 677.1701 462.7702 681.3095 465.9718 683.8068C 465.5896 682.0699 465.1159 680.3219 464.6422 678.5739C 467.8098 683.6003 467.8681 686.4381 467.9239 688.384C 467.9729 690.355 467.9531 691.4298 470.3923 693.6C 469.6226 689.8953 469.2248 685.0622 470.8677 687.031L470.8677 687.031L471.0955 689.9414L471.0955 689.9414L471.1973 692.8179C 471.8255 693.3924 470.9 689.5647 471.9772 692.0291C 471.9271 693.7168 471.3809 697.0936 470.8361 698.5129L470.8361 698.5129L470.948 698.4486C 471.0714 701.6954 470.9296 704.9247 470.3874 708.0866C 470.4966 706.2798 471.241 705.8729 471.1182 707.7301C 470.8902 708.7758 470.4012 709.7376 470.0633 710.7401C 469.7002 711.7359 469.3851 712.7041 468.8526 713.6272C 469.8861 711.9481 469.8368 713.9331 469.2686 716.7909C 468.6063 718.7456 467.8118 719.9896 467.0779 720.8583C 466.2249 721.668 465.4326 722.1024 464.7111 722.4749C 463.9735 722.8566 463.3914 723.2126 462.7733 723.8021C 462.1393 724.4008 461.5952 725.2667 461.0919 726.8322C 461.5677 726.0694 461.849 726.0778 462.3408 725.3057C 461.9206 726.3131 461.6219 727.4207 461.085 728.4101C 460.2147 727.9324 458.9885 728.5738 457.6289 729.7599C 456.9101 730.3222 456.0819 730.99 455.2745 731.7308C 454.4854 732.5037 453.5638 733.2678 452.6237 733.9999C 450.849 735.5736 448.7922 736.8417 447.1665 737.713C 445.4604 738.4816 444.0935 738.6935 443.4557 737.9545C 440.3216 741.5649 443.7084 739.1703 449.6461 737.1801L449.6461 737.1801L447.925 739.1058L447.925 739.1058L446.0733 740.9153C 447.9687 739.9952 449.1748 738.7273 451.1889 737.7177L451.1889 737.7177L451.1552 737.8434zM460.4944 465.2122C 459.8627 461.7472 458.5119 460.3973 456.6394 458.8796C 458.1046 458.6536 459.6041 458.4504 461.1312 458.2952C 460.9825 460.699 460.8333 462.9542 460.4944 465.2122L460.4944 465.2122L460.4944 465.2122zM456.5091 458.9119C 456.4632 458.8321 456.4356 458.7841 456.3896 458.7042L456.3896 458.7042L456.6326 458.9047L456.6326 458.9047L456.5023 458.9371L456.5023 458.9371L456.5091 458.9119zM241.7369 737.384C 241.593 737.4667 241.4492 737.5494 241.317 737.6893C 238.9696 738.0824 239.9429 737.7778 241.7369 737.384zM246.5432 531.1228C 245.2806 530.9983 244.1234 530.9833 242.9663 530.9683C 243.4098 530.9258 243.588 530.8658 243.4849 530.7975L243.4849 530.7975L246.534 531.1068L246.534 531.1068L246.5432 531.1228zM240.612 530.5358L238.6681 530.4841C 238.3975 530.2356 238.6808 530.1365 240.612 530.5358zM240.1082 531.1021C 240.9541 531.0197 241.9258 530.9711 242.9663 530.9683C 242.5068 531.0198 241.6265 531.0795 240.1082 531.1021zM333.4642 503.1623L333.5529 502.9836C 333.4543 503.6997 333.4631 503.567 333.4642 503.1623zM232.2045 534.9249C 232.6692 535.1043 233.0129 535.332 233.0389 535.636C 232.871 535.3073 232.5937 535.0839 232.2045 534.9249zM243.4781 530.8227C 241.2728 530.5385 243.146 530.6522 243.4781 530.8227zM70.18063 639.6442C 69.78079 640.576 69.23638 642.144 68.71914 643.6112C 68.90683 642.8652 69.34021 641.6589 70.18063 639.6442zM87.31548 733.8128C 87.15722 733.6486 86.98737 733.4272 86.82913 733.2631C 86.92021 733.1256 87.09246 733.3881 87.31548 733.8128zM314.8026 515.5337C 314.5889 515.9756 314.2764 516.283 314.0192 516.6862C 313.2249 517.228 312.4742 517.8087 311.6824 518.3917C 310.847 518.936 309.9911 519.5559 309.0922 520.2856C 309.8305 519.3506 310.7039 518.4655 311.6483 517.667C 312.5308 516.7979 313.606 516.1156 314.8278 515.5405L314.8278 515.5405L314.8026 515.5337zM483.3658 709.98C 482.8742 711.6027 482.4323 712.2396 482.1782 712.1306C 482.7614 710.519 483.1109 709.5736 483.3658 709.98zM303.8784 524.3479C 306.0186 522.6703 307.5927 521.3395 309.083 520.2697C 307.9863 521.4322 307.0316 522.6194 306.1694 523.4131C 305.2637 524.168 304.5125 524.6 303.8852 524.3228L303.8852 524.3228L303.8784 524.3479zM399.2745 750.4777C 398.4226 750.0319 397.591 749.5106 396.7618 749.0304C 400.8127 749.3802 398.98 749.8176 399.2745 750.4777zM458.148 564.9285L456.498 569.3444C 456.7671 568.2963 457.3028 566.861 458.148 564.9285zM464.0153 565.5522L464.1997 564.4678L466.4643 563.0803L464.0153 565.5522zM409.4625 423.6341L412.4032 422.7934C 413.3561 422.5643 414.2863 422.3696 415.0702 422.2165C 416.6313 421.9354 417.6466 421.9257 417.3282 422.5554L417.3282 422.5554L415.9938 423.7483C 414.6508 423.5211 413.4477 423.4261 412.3796 423.3812C 411.298 423.3865 410.3379 423.4921 409.4532 423.6181L409.4532 423.6181L409.4625 423.6341zM470.2662 699.0747L470.7956 698.6639C 470.5576 699.3964 470.3434 699.6897 470.2662 699.0747zM468.8282 713.7689L467.9026 715.5986C 468.2888 714.7172 468.5709 714.1721 468.8282 713.7689zM200.0834 528.8138L199.6273 527.6511C 200.6295 527.8403 201.6021 528.0892 202.5974 528.3036L202.5974 528.3036L200.0742 528.7978L200.0742 528.7978L200.0834 528.8138zM188.8549 529.4445L187.5366 528.2249C 189.3055 528.6749 191.0469 529.0771 192.7543 529.605C 191.4597 529.4989 190.1607 529.4591 188.8457 529.4285L188.8457 529.4285L188.8549 529.4445zM145.9539 547.6331C 148.4958 546.4689 151.0928 545.4005 153.6855 544.3984C 152.54 545.2913 151.4773 546.3278 150.3846 547.2754L150.3846 547.2754L150.2707 546.5966C 146.1794 548.9497 146.7343 547.8436 145.9631 547.6491L145.9631 547.6491L145.9539 547.6331zM127.9462 562.4358C 127.2702 562.7395 126.4926 562.7189 124.7499 564.2742C 123.4119 565.8307 125.1491 564.7465 125.3286 565.1324C 124.0177 565.7375 120.9265 567.5367 123.9563 564.2627L123.9563 564.2627L124.6164 563.9681C 127.389 561.0973 130.6813 556.8004 130.0028 557.063C 129.7353 558.7056 129.3707 559.9575 127.9554 562.4518L127.9554 562.4518L127.9462 562.4358zM125.2635 565.5739C 125.4205 565.2922 125.3677 565.2375 125.3218 565.1576C 125.9087 564.8838 126.1692 564.819 125.2635 565.5739zM165.915 535.4502C 167.9313 536.0345 173.0444 535.1991 170.4048 537.3767C 164.4415 539.2115 165.9053 537.6889 162.1503 538.445C 171.9153 535.3807 159.1004 538.6891 165.8834 535.6172C 163.8861 536.0641 162.1152 536.5723 160.5163 537.1942C 162.1764 536.3457 163.8253 535.5887 165.3667 534.8297L165.3667 534.8297L165.1613 534.9904L165.1613 534.9904L165.1294 535.0087C 164.7506 535.3116 164.6595 535.4491 165.091 535.2009C 165.1322 535.1985 165.2465 535.1754 165.3036 535.1637C 165.4275 535.3052 165.6564 535.4075 165.9082 535.4753C 168.6786 534.2646 166.2521 535.001 165.3036 535.1637C 165.2509 535.109 165.1502 535.0818 165.1226 535.0339L165.1226 535.0339L165.1545 535.0155C 168.502 534.0685 171.9234 533.398 175.338 532.7526C 174.2732 533.0461 173.1081 533.4609 171.5794 533.8723C 170.0599 534.2996 168.202 534.7302 165.8922 535.4845L165.8922 535.4845L165.915 535.4502zM177.53 532.3852L175.3608 532.7183C 176.5534 532.3513 177.5699 531.9369 178.6638 531.4353C 179.7645 530.9085 180.952 530.3106 182.5302 529.6155C 186.2941 529.5775 187.0816 529.9114 187.3913 530.265C 183.8325 530.8445 180.2509 531.4583 176.7684 532.3553L176.7684 532.3553L177.5368 532.36L177.5368 532.36L177.53 532.3852zM196.9044 537.597C 196.5055 536.4227 190.5806 535.662 185.862 537.7379C 180.927 537.6626 183.2746 533.3135 187.5201 530.4888C 187.7319 531.0049 187.8199 531.3798 193.103 531.6163C 192.2236 531.9733 189.3739 532.6765 187.3315 533.3408C 185.2938 534.0875 184.0792 534.7861 186.3024 534.9536C 193.1161 534.6714 191.7739 533.8909 195.0414 532.9898C 193.6786 533.8375 195.8863 534.1628 198.2226 534.7119C 200.5473 535.2039 203.0008 535.9196 202.2881 537.0101C 200.3573 536.7594 198.4086 536.6254 196.4483 536.4343C 196.3692 536.7775 198.4766 537.2244 196.9044 537.5969L196.9044 537.5969L196.9044 537.597zM144.0986 544.1488C 145.2042 543.7043 146.1963 543.5803 147.1516 543.3924C 145.8611 543.922 144.6437 544.4308 143.5929 544.8225C 143.7866 544.6047 143.978 544.3458 144.0894 544.1328L144.0894 544.1328L144.0986 544.1488zM144.0986 544.1488L143.7674 544.2755C 144.294 543.6749 144.2784 543.8326 144.0986 544.1488zM169.0041 532.9077L165.3735 534.8046C 166.3615 534.0449 168.4774 532.6577 169.0041 532.9077zM151.8115 541.5841C 149.8506 542.7971 148.5093 543.1644 147.1608 543.4084C 148.7666 542.7612 150.3879 541.9563 152.1671 541.1669C 152.412 541.26 152.4991 541.3375 151.7955 541.5934L151.7955 541.5934L151.8115 541.5841zM187.9491 530.1994L187.536 530.4796C 187.536 530.4796 187.4533 530.3358 187.4165 530.2719L187.4165 530.2719L187.9743 530.2062L187.9743 530.2062L187.9491 530.1994zM143.1178 545.0319L143.6021 544.8385C 143.3855 545.0906 143.171 545.2353 143.1178 545.0319zM153.1298 539.5498C 154.2977 539.3247 155.4652 538.9509 156.6782 538.5084C 157.9028 538.1231 159.1798 537.6439 160.5231 537.1691L160.5231 537.1691L156.3119 539.1658C 154.9235 539.858 153.5419 540.5251 152.1739 541.1418C 151.6176 540.9512 150.1013 540.8663 153.1206 539.5338L153.1206 539.5338L153.1298 539.5498zM132.2612 554.2965C 131.4825 554.6805 130.6762 555.0167 129.9159 555.4327C 130.4109 554.9991 130.9427 554.6295 131.4561 554.2278L131.4561 554.2278L132.2612 554.2965zM129.9159 555.4327L125.8663 558.7828C 125.7396 558.4515 126.2126 557.499 124.8421 558.0745L124.8421 558.0745L129.9067 555.4167L129.9067 555.4167L129.9159 555.4327zM115.4823 566.946C 118.1424 565.5437 123.1709 562.2686 119.4815 566.8365C 117.3499 567.5308 119.4577 564.8722 115.4823 566.946zM131.006 552.7427L131.4191 552.4625C 131.3328 552.6824 131.2553 552.7695 131.006 552.7427zM133.0008 551.4039L133.0464 551.3352C 134.7739 550.0863 136.05 549.3098 136.575 548.9653C 136.114 549.273 134.9977 549.9576 133.01 551.4199L133.01 551.4199L133.0008 551.4039zM131.4191 552.4626C 131.5916 552.0231 131.7969 551.0117 133.9687 549.167L133.9687 549.167L133.0304 551.3444L133.0304 551.3444L131.4031 552.4718L131.4031 552.4718L131.4191 552.4626zM161.2644 534.871C 159.8543 535.1929 158.3228 535.4144 156.6519 535.6523C 158.1578 535.2754 159.6845 534.9715 161.2644 534.871zM147.7829 540.2006C 145.4579 540.4106 149.7672 537.5492 147.4958 538.1113C 149.1195 537.3475 150.7281 536.8902 152.2751 536.5107C 153.8154 536.1566 155.2414 535.8256 156.6611 535.6683C 155.2191 536.0085 153.867 536.6161 152.3895 537.3383C 150.912 538.0605 149.3962 538.9749 147.7921 540.2166L147.7921 540.2166L147.7829 540.2006zM136.3985 546.3657L133.3727 547.0215L138.578 545.6439L136.3825 546.3749L136.3985 546.3657zM106.9916 576.7002C 104.7367 578.2524 102.4909 579.8206 100.3347 581.5074C 102.8329 579.4537 105.487 577.5231 108.0839 575.6041L108.0839 575.6041L106.9916 576.7003L106.9916 576.7003L106.9916 576.7002zM120.263 560.1341L124.642 557.6155C 121.2244 560.4744 120.3538 560.6987 120.263 560.1341zM120.6011 557.5789C 121.107 557.7557 120.1583 559.4713 120.263 560.1341C 119.2882 560.6948 118.3317 561.2875 117.3752 561.8801C 118.4506 560.4959 120.8637 558.2573 120.6263 557.5856L120.6263 557.5856L120.6011 557.5789zM88.10398 603.0261C 87.63343 604.0198 87.1377 605.0068 86.67632 606.0166L86.67632 606.0166L84.50014 607.9276C 85.55846 606.9573 87.67477 602.4647 88.09479 603.0101L88.09479 603.0101L88.10398 603.0261zM97.52508 582.613C 96.25076 584.8347 94.4151 587.4857 97.8278 584.5445C 94.98052 587.6923 93.50187 588.8192 93.42509 588.3529C 93.31396 587.8639 94.68021 585.8019 97.53429 582.629L97.53429 582.629L97.52508 582.613zM99.13304 580.3057C 100.3831 579.2252 101.6081 578.1378 102.9269 577.1027C 102.7368 577.8076 103.1796 578.3186 101.2138 578.5985C 101.9482 578.7291 100.8514 579.0409 99.13304 580.3058L99.13304 580.3058L99.13304 580.3057zM104.7567 575.6249L102.9269 577.1027C 103.0583 576.6656 103.4342 576.1729 104.7567 575.6249zM100.6966 577.6624L97.1648 580.5446C 97.42719 579.5216 100.0048 576.4226 98.75188 577.3135C 102.1845 574.1481 101.9086 575.2213 100.6806 577.6716L100.6806 577.6716L100.6966 577.6624zM90.20592 589.375C 88.03863 592.004 91.06192 587.2025 90.20592 589.375zM92.21782 586.7716C 92.18964 588.1277 95.0716 584.3008 89.92434 590.0687C 90.1017 589.7115 90.11967 589.5948 90.22192 589.3658C 90.66177 588.8364 91.26102 588.0663 92.2338 586.7625L92.2338 586.7625L92.21782 586.7716zM85.46288 603.0564C 85.39301 606.6697 78.6307 612.2181 76.3083 617.4248L76.3083 617.4248L76.19455 618.4473L76.19455 618.4473L73.53642 619.7422C 77.26602 614.0239 83.13317 607.2889 85.46288 603.0564zM68.57909 629.6122L67.91905 629.9067C 69.02689 628.6527 70.16909 627.4215 71.31127 626.1903L71.31127 626.1903L68.58829 629.6282L68.58829 629.6282L68.57909 629.6122zM49.79217 659.2192C 50.02708 658.999 50.42799 660.0658 51.21848 658.1861C 51.36074 658.3595 51.42799 656.2578 49.79217 659.2192z" stroke="none" fill="#004AAD" fill-rule="nonzero" /></g></g></g></g><g clip-path="url(#11)"><g transform="matrix(0.06311637 0 0 0.06344148 475.9692 14.82153)"><g transform="matrix(1 0 0 1 0 0)"><image x="0" y="0" xlink:href="img_02.png" width="1521" height="863" /></g></g></g><g clip-path="url(#12)"><g clip-path="url(#13)"><g clip-path="url(#14)"><g clip-path="url(#15)"><g clip-path="url(#16)"><g clip-path="url(#17)"><g clip-path="url(#18)"><g clip-path="url(#19)"><path id="6" transform="matrix(1 0 0 -1 0 842)" d="M300.4487 826.9524C 291.8909 826.9524 284.9314 819.9929 284.9314 811.4352C 284.9314 802.8774 291.8909 795.918 300.4487 795.918C 309.0064 795.918 315.9659 802.8774 315.9659 811.4352C 315.9659 819.9929 309.0064 826.9524 300.4487 826.9524zM300.4487 795.6852C 291.7668 795.6852 284.6987 802.7533 284.6987 811.4352C 284.6987 820.1171 291.7668 827.1852 300.4487 827.1852C 309.1306 827.1852 316.1987 820.1171 316.1987 811.4352C 316.1987 802.7533 309.1306 795.6852 300.4487 795.6852z" stroke="none" fill="#000000" fill-rule="nonzero" /></g></g></g></g></g></g></g></g><g clip-path="url(#20)"><g clip-path="url(#21)"><g clip-path="url(#22)"><g clip-path="url(#23)"><g clip-path="url(#24)"><g clip-path="url(#25)"><g clip-path="url(#26)"><path id="7" transform="matrix(1 0 0 -1 0 842)" d="M284.7054 811.2878C 284.7054 807.0734 286.3796 803.0316 289.3596 800.0515C 292.3397 797.0714 296.3816 795.3972 300.596 795.3972C 304.8105 795.3972 308.8523 797.0714 311.8324 800.0515C 314.8124 803.0316 316.4866 807.0734 316.4866 811.2878C 316.4866 815.5023 314.8124 819.5441 311.8324 822.5242C 308.8523 825.5043 304.8105 827.1785 300.596 827.1785C 296.3816 827.1785 292.3397 825.5043 289.3596 822.5242C 286.3796 819.5441 284.7054 815.5023 284.7054 811.2878z" stroke="#000000" stroke-width="1.5" fill="none" /></g></g></g></g></g></g></g><g clip-path="url(#27)"></g><g clip-path="url(#28)"><g clip-path="url(#29)"><g clip-path="url(#30)"><g clip-path="url(#31)"><g clip-path="url(#32)"><g transform="matrix(0.7247474 0 0 0.7245602 -52.40892 179.7799)"><g transform="matrix(1 0 0 1 0 0)"><image x="0" y="0" xlink:href="img_03.png" width="891" height="796" /></g></g></g></g></g></g></g><g clip-path="url(#33)"></g></g></g></svg>