<svg xmlns="http://www.w3.org/2000/svg" xmlns:xlink="http://www.w3.org/1999/xlink" id="body_1" preserveAspectRatio="xMinYMin meet" viewBox="0 0 793 1123"><defs><clipPath id="1"><path id="" clip-rule="evenodd" transform="matrix(1 0 0 1 0 0)" d="M0 842L0 -0.25L0 -0.25L595.5 -0.25L595.5 -0.25L595.5 842L595.5 842L0 842z" /></clipPath><clipPath id="2"><path id="" clip-rule="evenodd" transform="matrix(1 0 0 1 0 0)" d="M0 -0.249939L595.5 -0.249939L595.5 -0.249939L595.5 842.0001L595.5 842.0001L0 842.0001z" /></clipPath><clipPath id="3"><path id="" clip-rule="evenodd" transform="matrix(1 0 0 1 0 0)" d="M0 -0.249939L595.5 -0.249939L595.5 -0.249939L595.5 842.0001L595.5 842.0001L0 842.0001z" /></clipPath><clipPath id="4"><path id="" clip-rule="evenodd" transform="matrix(1 0 0 1 0 0)" d="M0 -0.249939L595.5 -0.249939L595.5 -0.249939L595.5 842.0001L595.5 842.0001L0 842.0001z" /></clipPath><clipPath id="5"><path id="" clip-rule="evenodd" transform="matrix(1 0 0 1 0 0)" d="M79.67999 2.150085L535.92 2.150085L535.92 2.150085L535.92 806.3901L535.92 806.3901L79.67999 806.3901z" /></clipPath><clipPath id="6"><path id="" clip-rule="evenodd" transform="matrix(1 0 0 1 0 0)" d="M79.74117 2.221558L535.7411 2.221558L535.7411 2.221558L535.7411 805.4716L535.7411 805.4716L79.74117 805.4716z" /></clipPath><clipPath id="7"><path id="" clip-rule="evenodd" transform="matrix(1 0 0 1 0 0)" d="M489.3922 29.22406L571.1422 29.22406L571.1422 29.22406L571.1422 75.72406L571.1422 75.72406L489.3922 75.72406z" /></clipPath><clipPath id="8"><path id="" clip-rule="evenodd" transform="matrix(1 0 0 1 0 0)" d="M0 -0.249939L595.5 -0.249939L595.5 -0.249939L595.5 842.0001L595.5 842.0001L0 842.0001z" /></clipPath><clipPath id="9"><path id="" clip-rule="evenodd" transform="matrix(1 0 0 1 0 0)" d="M0 -0.249939L595.5 -0.249939L595.5 -0.249939L595.5 842.0001L595.5 842.0001L0 842.0001z" /></clipPath><clipPath id="10"><path id="" clip-rule="evenodd" transform="matrix(1 0 0 1 0 0)" d="M118.0051 310.6735L259.7244 310.6735L259.7244 310.6735L259.7244 359.9002L259.7244 359.9002L118.0051 359.9002z" /></clipPath><clipPath id="11"><path id="" clip-rule="evenodd" transform="matrix(1 0 0 1 0 0)" d="M130.7551 310.6735L246.9266 310.6735C 250.3081 310.6735 253.5511 312.0167 255.9422 314.4078C 258.3333 316.799 259.6766 320.042 259.6766 323.4235L259.6766 323.4235L259.6766 347.1502C 259.6766 350.5317 258.3333 353.7747 255.9422 356.1658C 253.5511 358.5569 250.3081 359.9002 246.9266 359.9002L246.9266 359.9002L130.7551 359.9002C 127.3736 359.9002 124.1306 358.5569 121.7395 356.1658C 119.3484 353.7747 118.0051 350.5317 118.0051 347.1502L118.0051 347.1502L118.0051 323.4235C 118.0051 320.042 119.3484 316.799 121.7395 314.4078C 124.1306 312.0167 127.3736 310.6735 130.7551 310.6735z" /></clipPath><clipPath id="12"><path id="" clip-rule="evenodd" transform="matrix(1 0 0 1 0 0)" d="M0 -0.249939L595.5 -0.249939L595.5 -0.249939L595.5 842.0001L595.5 842.0001L0 842.0001z" /></clipPath><clipPath id="13"><path id="" clip-rule="evenodd" transform="matrix(1 0 0 1 0 0)" d="M0 -0.249939L595.5 -0.249939L595.5 -0.249939L595.5 842.0001L595.5 842.0001L0 842.0001z" /></clipPath><clipPath id="14"><path id="" clip-rule="evenodd" transform="matrix(1 0 0 1 0 0)" d="M0 -0.249939L595.5 -0.249939L595.5 -0.249939L595.5 842.0001L595.5 842.0001L0 842.0001z" /></clipPath><clipPath id="15"><path id="" clip-rule="evenodd" transform="matrix(1 0 0 1 0 0)" d="M118.0051 451.4311L259.7244 451.4311L259.7244 451.4311L259.7244 500.6579L259.7244 500.6579L118.0051 500.6579z" /></clipPath><clipPath id="16"><path id="" clip-rule="evenodd" transform="matrix(1 0 0 1 0 0)" d="M130.7551 451.4311L246.9266 451.4311C 250.3081 451.4311 253.5511 452.7744 255.9422 455.1655C 258.3333 457.5566 259.6766 460.7996 259.6766 464.1811L259.6766 464.1811L259.6766 487.9079C 259.6766 491.2894 258.3333 494.5324 255.9422 496.9235C 253.5511 499.3146 250.3081 500.6579 246.9266 500.6579L246.9266 500.6579L130.7551 500.6579C 127.3736 500.6579 124.1306 499.3146 121.7395 496.9235C 119.3484 494.5324 118.0051 491.2894 118.0051 487.9079L118.0051 487.9079L118.0051 464.1811C 118.0051 460.7996 119.3484 457.5566 121.7395 455.1655C 124.1306 452.7744 127.3736 451.4311 130.7551 451.4311z" /></clipPath><clipPath id="17"><path id="" clip-rule="evenodd" transform="matrix(1 0 0 1 0 0)" d="M0 -0.249939L595.5 -0.249939L595.5 -0.249939L595.5 842.0001L595.5 842.0001L0 842.0001z" /></clipPath><clipPath id="18"><path id="" clip-rule="evenodd" transform="matrix(1 0 0 1 0 0)" d="M0 -0.249939L595.5 -0.249939L595.5 -0.249939L595.5 842.0001L595.5 842.0001L0 842.0001z" /></clipPath><clipPath id="19"><path id="" clip-rule="evenodd" transform="matrix(1 0 0 1 0 0)" d="M0 -0.249939L595.5 -0.249939L595.5 -0.249939L595.5 842.0001L595.5 842.0001L0 842.0001z" /></clipPath><clipPath id="20"><path id="" clip-rule="evenodd" transform="matrix(1 0 0 1 0 0)" d="M239.7267 349.5802L262.1198 337.3819L262.1198 337.3819L280.0585 370.313L280.0585 370.313L257.6654 382.5113L257.6654 382.5113L239.7267 349.5802z" /></clipPath><clipPath id="21"><path id="" clip-rule="evenodd" transform="matrix(1 0 0 1 0 0)" d="M239.7267 349.5802L262.1198 337.3819L262.1198 337.3819L280.0585 370.313L280.0585 370.313L257.6654 382.5113L257.6654 382.5113L239.7267 349.5802z" /></clipPath><clipPath id="22"><path id="" clip-rule="evenodd" transform="matrix(1 0 0 1 0 0)" d="M239.7267 349.5802L262.1198 337.3819L262.1198 337.3819L280.0585 370.313L280.0585 370.313L257.6654 382.5113L257.6654 382.5113L239.7267 349.5802z" /></clipPath><clipPath id="23"><path id="" clip-rule="evenodd" transform="matrix(1 0 0 1 0 0)" d="M0 -0.249939L595.5 -0.249939L595.5 -0.249939L595.5 842.0001L595.5 842.0001L0 842.0001z" /></clipPath><clipPath id="24"><path id="" clip-rule="evenodd" transform="matrix(1 0 0 1 0 0)" d="M0 -0.249939L595.5 -0.249939L595.5 -0.249939L595.5 842.0001L595.5 842.0001L0 842.0001z" /></clipPath><clipPath id="25"><path id="" clip-rule="evenodd" transform="matrix(1 0 0 1 0 0)" d="M239.7267 496.0671L262.1198 483.8688L262.1198 483.8688L280.0585 516.7999L280.0585 516.7999L257.6654 528.9982L257.6654 528.9982L239.7267 496.0671z" /></clipPath><clipPath id="26"><path id="" clip-rule="evenodd" transform="matrix(1 0 0 1 0 0)" d="M239.7267 496.0671L262.1198 483.8688L262.1198 483.8688L280.0585 516.7999L280.0585 516.7999L257.6654 528.9982L257.6654 528.9982L239.7267 496.0671z" /></clipPath><clipPath id="27"><path id="" clip-rule="evenodd" transform="matrix(1 0 0 1 0 0)" d="M239.7267 496.0671L262.1198 483.8688L262.1198 483.8688L280.0585 516.7999L280.0585 516.7999L257.6654 528.9982L257.6654 528.9982L239.7267 496.0671z" /></clipPath><clipPath id="28"><path id="" clip-rule="evenodd" transform="matrix(1 0 0 1 0 0)" d="M0 -0.249939L595.5 -0.249939L595.5 -0.249939L595.5 842.0001L595.5 842.0001L0 842.0001z" /></clipPath><clipPath id="29"><path id="" clip-rule="evenodd" transform="matrix(1 0 0 1 0 0)" d="M0 -0.249939L595.5 -0.249939L595.5 -0.249939L595.5 842.0001L595.5 842.0001L0 842.0001z" /></clipPath><clipPath id="30"><path id="" clip-rule="evenodd" transform="matrix(1 0 0 1 0 0)" d="M313.4995 310.6735L456.1901 310.6735L456.1901 310.6735L456.1901 360.1035L456.1901 360.1035L313.4995 360.1035z" /></clipPath><clipPath id="31"><path id="" clip-rule="evenodd" transform="matrix(1 0 0 1 0 0)" d="M326.2495 310.6735L443.3658 310.6735C 446.7473 310.6735 449.9903 312.0167 452.3814 314.4078C 454.7725 316.799 456.1158 320.042 456.1158 323.4235L456.1158 323.4235L456.1158 347.3535C 456.1158 350.735 454.7725 353.978 452.3814 356.3691C 449.9903 358.7602 446.7473 360.1035 443.3658 360.1035L443.3658 360.1035L326.2495 360.1035C 322.868 360.1035 319.625 358.7602 317.2339 356.3691C 314.8428 353.978 313.4995 350.735 313.4995 347.3535L313.4995 347.3535L313.4995 323.4235C 313.4995 320.042 314.8428 316.799 317.2339 314.4078C 319.625 312.0167 322.868 310.6735 326.2495 310.6735z" /></clipPath><clipPath id="32"><path id="" clip-rule="evenodd" transform="matrix(1 0 0 1 0 0)" d="M0 -0.249939L595.5 -0.249939L595.5 -0.249939L595.5 842.0001L595.5 842.0001L0 842.0001z" /></clipPath><clipPath id="33"><path id="" clip-rule="evenodd" transform="matrix(1 0 0 1 0 0)" d="M0 -0.249939L595.5 -0.249939L595.5 -0.249939L595.5 842.0001L595.5 842.0001L0 842.0001z" /></clipPath><clipPath id="34"><path id="" clip-rule="evenodd" transform="matrix(1 0 0 1 0 0)" d="M0 -0.249939L595.5 -0.249939L595.5 -0.249939L595.5 842.0001L595.5 842.0001L0 842.0001z" /></clipPath><clipPath id="35"><path id="" clip-rule="evenodd" transform="matrix(1 0 0 1 0 0)" d="M436.0331 352.1811L458.4262 339.9828L458.4262 339.9828L476.3648 372.9139L476.3648 372.9139L453.9717 385.1122L453.9717 385.1122L436.0331 352.1811z" /></clipPath><clipPath id="36"><path id="" clip-rule="evenodd" transform="matrix(1 0 0 1 0 0)" d="M436.0331 352.1811L458.4262 339.9828L458.4262 339.9828L476.3648 372.9139L476.3648 372.9139L453.9717 385.1122L453.9717 385.1122L436.0331 352.1811z" /></clipPath><clipPath id="37"><path id="" clip-rule="evenodd" transform="matrix(1 0 0 1 0 0)" d="M436.0331 352.1811L458.4262 339.9828L458.4262 339.9828L476.3648 372.9139L476.3648 372.9139L453.9717 385.1122L453.9717 385.1122L436.0331 352.1811z" /></clipPath><clipPath id="38"><path id="" clip-rule="evenodd" transform="matrix(1 0 0 1 0 0)" d="M0 -0.249939L595.5 -0.249939L595.5 -0.249939L595.5 842.0001L595.5 842.0001L0 842.0001z" /></clipPath><clipPath id="39"><path id="" clip-rule="evenodd" transform="matrix(1 0 0 1 0 0)" d="M0 -0.249939L595.5 -0.249939L595.5 -0.249939L595.5 842.0001L595.5 842.0001L0 842.0001z" /></clipPath><clipPath id="40"><path id="" clip-rule="evenodd" transform="matrix(1 0 0 1 0 0)" d="M313.4995 450.4684L456.2337 450.4684L456.2337 450.4684L456.2337 496.7801L456.2337 496.7801L313.4995 496.7801z" /></clipPath><clipPath id="41"><path id="" clip-rule="evenodd" transform="matrix(1 0 0 1 0 0)" d="M326.2495 450.4684L443.3658 450.4684C 446.7473 450.4684 449.9903 451.8117 452.3814 454.2028C 454.7725 456.5939 456.1158 459.8369 456.1158 463.2184L456.1158 463.2184L456.1158 484.0301C 456.1158 487.4116 454.7725 490.6546 452.3814 493.0457C 449.9903 495.4368 446.7473 496.7801 443.3658 496.7801L443.3658 496.7801L326.2495 496.7801C 322.868 496.7801 319.625 495.4368 317.2339 493.0457C 314.8428 490.6546 313.4995 487.4116 313.4995 484.0301L313.4995 484.0301L313.4995 463.2184C 313.4995 459.8369 314.8428 456.5939 317.2339 454.2028C 319.625 451.8117 322.868 450.4684 326.2495 450.4684z" /></clipPath><clipPath id="42"><path id="" clip-rule="evenodd" transform="matrix(1 0 0 1 0 0)" d="M0 -0.249939L595.5 -0.249939L595.5 -0.249939L595.5 842.0001L595.5 842.0001L0 842.0001z" /></clipPath><clipPath id="43"><path id="" clip-rule="evenodd" transform="matrix(1 0 0 1 0 0)" d="M0 -0.249939L595.5 -0.249939L595.5 -0.249939L595.5 842.0001L595.5 842.0001L0 842.0001z" /></clipPath><clipPath id="44"><path id="" clip-rule="evenodd" transform="matrix(1 0 0 1 0 0)" d="M0 -0.249939L595.5 -0.249939L595.5 -0.249939L595.5 842.0001L595.5 842.0001L0 842.0001z" /></clipPath><clipPath id="45"><path id="" clip-rule="evenodd" transform="matrix(1 0 0 1 0 0)" d="M436.0331 486.3903L458.4262 474.192L458.4262 474.192L476.3648 507.123L476.3648 507.123L453.9717 519.3214L453.9717 519.3214L436.0331 486.3903z" /></clipPath><clipPath id="46"><path id="" clip-rule="evenodd" transform="matrix(1 0 0 1 0 0)" d="M436.0331 486.3903L458.4262 474.192L458.4262 474.192L476.3648 507.123L476.3648 507.123L453.9717 519.3214L453.9717 519.3214L436.0331 486.3903z" /></clipPath><clipPath id="47"><path id="" clip-rule="evenodd" transform="matrix(1 0 0 1 0 0)" d="M436.0331 486.3903L458.4262 474.192L458.4262 474.192L476.3648 507.123L476.3648 507.123L453.9717 519.3214L453.9717 519.3214L436.0331 486.3903z" /></clipPath><clipPath id="48"><path id="" clip-rule="evenodd" transform="matrix(1 0 0 1 0 0)" d="M0 -0.249939L595.5 -0.249939L595.5 -0.249939L595.5 842.0001L595.5 842.0001L0 842.0001z" /></clipPath><clipPath id="49"><path id="" clip-rule="evenodd" transform="matrix(1 0 0 1 0 0)" d="M0 -0.249939L595.5 -0.249939L595.5 -0.249939L595.5 842.0001L595.5 842.0001L0 842.0001z" /></clipPath><clipPath id="50"><path id="" clip-rule="evenodd" transform="matrix(1 0 0 1 0 0)" d="M49.30238 609.7443L554.2493 609.7443L554.2493 609.7443L554.2493 654.2269L554.2493 654.2269L49.30238 654.2269z" /></clipPath><clipPath id="51"><path id="" clip-rule="evenodd" transform="matrix(1 0 0 1 0 0)" d="M62.05238 609.7443L541.3388 609.7443C 544.7203 609.7443 547.9633 611.0876 550.3544 613.4787C 552.7455 615.8697 554.0889 619.1127 554.0889 622.4943L554.0889 622.4943L554.0889 641.4769C 554.0889 644.8584 552.7455 648.1014 550.3544 650.4925C 547.9633 652.8835 544.7203 654.2269 541.3388 654.2269L541.3388 654.2269L62.05238 654.2269C 58.67087 654.2269 55.42786 652.8835 53.03677 650.4925C 50.64568 648.1014 49.30238 644.8584 49.30238 641.4769L49.30238 641.4769L49.30238 622.4943C 49.30238 619.1127 50.64568 615.8697 53.03677 613.4787C 55.42786 611.0876 58.67087 609.7443 62.05238 609.7443z" /></clipPath><clipPath id="52"><path id="" clip-rule="evenodd" transform="matrix(1 0 0 1 0 0)" d="M420.0843 670.4963L543.0842 670.4963L543.0842 670.4963L543.0842 824.2463L543.0842 824.2463L420.0843 824.2463z" /></clipPath><clipPath id="53"><path id="" clip-rule="evenodd" transform="matrix(1 0 0 1 0 0)" d="M25.50787 354.2734L93.75787 354.2734L93.75787 354.2734L93.75787 594.2734L93.75787 594.2734L25.50787 594.2734z" /></clipPath><clipPath id="54"><path id="" clip-rule="evenodd" transform="matrix(1 0 0 1 0 0)" d="M0 -0.249939L595.5 -0.249939L595.5 -0.249939L595.5 842.0001L595.5 842.0001L0 842.0001z" /></clipPath></defs><g transform="matrix(1.333333 0 0 1.333333 0 0)"><g clip-path="url(#1)"><g clip-path="url(#2)"><path id="1" transform="matrix(1 0 0 -1 0 842)" d="M0 842.2499L595.4999 842.2499L595.4999 -6.103516E-05L0 -6.103516E-05z" stroke="none" fill="#FFFFFF" fill-rule="nonzero" /></g><g clip-path="url(#3)"><path id="2" transform="matrix(1 0 0 -1 0 842)" d="M0 842.2499L595.4999 842.2499L595.4999 -6.103516E-05L0 -6.103516E-05z" stroke="none" fill="#E9FCFF" fill-rule="nonzero" /></g><g clip-path="url(#4)"><g><g clip-path="url(#5)"><g clip-path="url(#6)"><g transform="matrix(0 0.5281065 -0.5283893 0 535.7411 2.221619)"><g transform="matrix(1 0 0 1 0 0)"><image x="0" y="0" xlink:href="img_01.png" width="1521" height="863" /></g></g></g></g></g></g><g clip-path="url(#7)"><g transform="matrix(0.05374753 0 0 0.0538818 489.3922 29.22412)"><g transform="matrix(1 0 0 1 0 0)"><image x="0" y="0" xlink:href="img_02.png" width="1521" height="863" /></g></g></g><g clip-path="url(#8)"><g clip-path="url(#9)"><g clip-path="url(#10)"><g clip-path="url(#11)"><path id="5" transform="matrix(1 0 0 -1 0 842)" d="M118.0051 531.3265L259.7244 531.3265L259.7244 482.0998L118.0051 482.0998z" stroke="none" fill="#7ED957" fill-rule="nonzero" /></g></g></g></g><g clip-path="url(#12)"></g><g clip-path="url(#13)"><g clip-path="url(#14)"><g clip-path="url(#15)"><g clip-path="url(#16)"><path id="11" transform="matrix(1 0 0 -1 0 842)" d="M118.0051 390.5689L259.7244 390.5689L259.7244 341.3421L118.0051 341.3421z" stroke="none" fill="#7ED957" fill-rule="nonzero" /></g></g></g></g><g clip-path="url(#17)"></g><g clip-path="url(#18)"><g clip-path="url(#19)"><g clip-path="url(#20)"><g clip-path="url(#21)"><g clip-path="url(#22)"><path id="17" transform="matrix(1 0 0 -1 0 842)" d="M256.8999 492.1125C 256.6571 492.393 256.6888 492.8178 256.9713 493.0613L256.9713 493.0613L259.4305 495.1843C 259.7129 495.4277 260.1389 495.398 260.3817 495.1176C 260.6246 494.8371 260.5928 494.4123 260.3104 494.1688L260.3104 494.1688L257.8512 492.0458C 257.5695 491.8011 257.1428 491.8321 256.8999 492.1125zM253.3517 493.8631C 252.9794 493.8851 252.6972 494.2021 252.721 494.5734L252.721 494.5734L252.9273 497.8035C 252.9511 498.1748 253.2704 498.4577 253.6428 498.4356C 254.0151 498.4136 254.2973 498.0966 254.2735 497.7253L254.2735 497.7253L254.0685 494.4959C 254.0447 494.1246 253.724 493.841 253.3517 493.8631zM248.9683 485.0132C 249.2112 484.7327 249.1794 484.3079 248.897 484.0645L248.897 484.0645L246.4378 481.9415C 246.1553 481.698 245.7294 481.7277 245.4865 482.0082C 245.2437 482.2887 245.2754 482.7135 245.5579 482.9569L245.5579 482.9569L248.017 485.0799C 248.2995 485.3234 248.7255 485.2937 248.9683 485.0132zM247.575 488.9036C 247.5512 488.5323 247.2319 488.2495 246.8596 488.2715L246.8596 488.2715L243.6192 488.4613C 243.2469 488.4833 242.9647 488.8004 242.9885 489.1717C 243.0124 489.543 243.3317 489.8258 243.704 489.8038L243.704 489.8038L246.9422 489.6146C 247.3159 489.5933 247.5975 489.2742 247.575 488.9036zM249.4608 492.5428C 249.1784 492.2993 248.7524 492.329 248.5096 492.6095L248.5096 492.6095L246.393 495.0521C 246.1501 495.3325 246.1819 495.7573 246.4644 496.0008C 246.7469 496.2442 247.1728 496.2145 247.4157 495.9341L247.4157 495.9341L249.5336 493.4922C 249.7751 493.211 249.7433 492.7862 249.4608 492.5428zM276.878 475.3887C 277.2936 473.7795 276.8248 471.9293 275.7108 470.6866C 275.0701 469.9723 274.2409 469.4485 273.3979 469.0052C 272.5045 468.5343 271.5781 468.121 270.6647 467.6902C 270.2011 467.471 269.7369 467.2533 269.2725 467.0389C 268.8334 466.8366 268.4013 466.6118 267.9569 466.4224C 267.6027 466.2716 267.2382 466.1855 266.8545 466.2575C 266.4415 466.3347 266.0372 466.4868 265.634 466.6044C 263.6726 467.1765 261.7112 467.7486 259.7498 468.3207C 258.0048 468.8298 256.2597 469.3388 254.5146 469.8478C 254.2836 469.9152 254.059 469.9773 253.8497 470.1022C 253.5718 470.2687 253.3476 470.5084 253.1954 470.7943C 252.8716 471.4049 252.9285 472.2245 253.4162 472.7397C 253.7083 473.0498 254.099 473.2503 254.5223 473.3C 254.7412 473.3261 254.9721 473.3044 255.192 473.2995C 255.4154 473.2947 255.6388 473.2899 255.8629 473.2838C 256.7551 473.2639 257.6459 473.2433 258.5381 473.2234C 258.6096 473.222 258.6811 473.2205 258.7525 473.219C 259.046 473.212 259.2455 473.5332 259.1053 473.7906C 258.926 474.1198 258.7467 474.4489 258.5674 474.7781C 258.1173 475.6043 257.6664 476.4319 257.2163 477.2582C 256.6261 478.3419 256.035 479.4268 255.4447 480.5105C 254.8448 481.6117 254.245 482.713 253.6458 483.8129C 253.1699 484.6865 252.694 485.5602 252.218 486.4339C 251.9915 486.8497 251.7636 487.2648 251.5385 487.6814C 251.2704 488.18 251.2329 488.7709 251.4723 489.2912C 251.8497 490.1063 252.8012 490.5157 253.6532 490.2421C 254.1584 490.0799 254.4902 489.7108 254.7351 489.2611C 254.9063 488.9469 255.0775 488.6326 255.2487 488.3184C 255.8279 487.2551 256.4071 486.1918 256.9856 485.1298C 257.4232 484.3266 257.8607 483.5233 258.2983 482.7201C 258.3212 482.6781 258.3448 482.6347 258.3676 482.5927C 258.6052 482.1566 259.2809 482.5246 259.0487 482.9637C 258.5157 483.9714 259.0611 485.2627 260.191 485.5392C 260.8113 485.6909 261.4728 485.498 261.9088 485.0381C 262.1486 484.7859 262.2977 484.4473 262.4623 484.1452C 262.6298 483.8378 262.7965 483.5316 262.9641 483.2242C 263.2016 482.788 263.8772 483.156 263.6451 483.5952C 263.1113 484.6042 263.6597 485.89 264.7895 486.17C 265.4077 486.3223 266.0721 486.1274 266.5073 485.6689C 266.7421 485.4227 266.8853 485.095 267.0461 484.7997C 267.2151 484.4895 267.3841 484.1793 267.553 483.8691C 267.7906 483.4329 268.4662 483.801 268.2341 484.2401C 267.8238 485.016 268.0313 486.0196 268.7658 486.5356C 269.6386 487.1481 270.846 486.8608 271.3629 485.9444C 272.3295 484.17 273.2953 482.3969 274.2619 480.6224C 274.757 479.7136 275.2529 478.8033 275.748 477.8944C 276.1884 477.0892 276.6483 476.2806 276.878 475.3887zM275.8608 479.3119C 274.8411 481.1838 273.8221 483.0544 272.8023 484.9264C 272.5507 485.3883 272.2984 485.8516 272.0468 486.3135C 271.4887 487.3022 270.3271 487.8393 269.2055 487.5638C 268.3211 487.3455 267.6252 486.6678 267.3627 485.817C 267.2436 486.0033 267.1068 486.1799 266.9382 486.3305C 266.3126 486.8855 265.439 487.121 264.6178 486.9196C 263.8999 486.7428 263.2577 486.2454 262.9337 485.5789C 262.8694 485.4472 262.8177 485.3119 262.7765 485.1736C 262.6544 485.3652 262.5153 485.5459 262.3424 485.7012C 261.7233 486.2509 260.8677 486.4857 260.0516 486.2976C 259.321 486.1279 258.6665 485.6239 258.3379 484.9496C 258.2762 484.8228 258.2257 484.6917 258.1851 484.5589C 258.1408 484.6402 258.0973 484.7201 258.053 484.8014C 257.4472 485.9135 256.8414 487.0255 256.2364 488.1363C 256.0121 488.548 255.7885 488.9585 255.5642 489.3702C 255.4173 489.6398 255.2803 489.9076 255.0913 490.1507C 254.3991 491.0453 253.1435 491.3204 252.11 490.8962C 251.2118 490.5281 250.6006 489.6366 250.5462 488.6761C 250.5043 487.9295 250.846 487.3411 251.184 486.7207C 251.595 485.9662 252.0067 485.2104 252.4177 484.4559C 253.0058 483.3763 253.5938 482.2968 254.1812 481.2186C 254.8032 480.0767 255.4252 478.9348 256.048 477.7916C 256.5615 476.8488 257.0743 475.9074 257.5879 474.9647C 257.7613 474.6463 257.9307 474.3224 258.1041 474.004C 257.5352 474.0173 256.9649 474.0298 256.3967 474.0418C 256.0894 474.0482 255.7813 474.0561 255.4726 474.0618C 254.9682 474.0734 254.4523 474.119 253.9654 473.9592C 253.0127 473.6458 252.3464 472.8489 252.2384 471.8539C 252.152 471.0691 252.4774 470.2381 253.0727 469.7193C 253.5331 469.3184 254.0752 469.1694 254.6464 469.0027C 255.6334 468.7148 256.6225 468.4263 257.6095 468.1384C 259.6759 467.5357 261.7401 466.9336 263.8065 466.3308C 264.321 466.1807 264.8334 466.0313 265.3479 465.8812C 265.7763 465.7562 266.2036 465.6008 266.6419 465.5128C 267.0955 465.4227 267.5321 465.448 267.9701 465.6005C 268.454 465.7693 268.9055 466.017 269.3706 466.2299C 270.3486 466.6784 271.3213 467.1397 272.2933 467.6024C 273.2291 468.0472 274.1729 468.4806 275.024 469.0777C 275.8419 469.6515 276.55 470.3393 277.0341 471.2177C 277.4691 472.008 277.7251 472.8869 277.7912 473.7836C 277.8636 474.7663 277.6594 475.7019 277.2783 476.6027C 276.8751 477.5406 276.3456 478.4219 275.8608 479.3119z" stroke="none" fill="#000000" fill-rule="nonzero" /></g></g></g></g></g><g clip-path="url(#23)"><g clip-path="url(#24)"><g clip-path="url(#25)"><g clip-path="url(#26)"><g clip-path="url(#27)"><path id="18" transform="matrix(1 0 0 -1 0 842)" d="M256.8999 345.6257C 256.6571 345.9062 256.6888 346.331 256.9713 346.5745L256.9713 346.5745L259.4305 348.6974C 259.7129 348.9409 260.1389 348.9112 260.3817 348.6307C 260.6246 348.3503 260.5928 347.9254 260.3104 347.682L260.3104 347.682L257.8512 345.559C 257.5695 345.3142 257.1428 345.3452 256.8999 345.6257zM253.3517 347.3762C 252.9794 347.3982 252.6972 347.7152 252.721 348.0865L252.721 348.0865L252.9273 351.3167C 252.9511 351.688 253.2704 351.9708 253.6428 351.9488C 254.0151 351.9268 254.2973 351.6098 254.2735 351.2385L254.2735 351.2385L254.0685 348.0091C 254.0447 347.6378 253.724 347.3542 253.3517 347.3762zM248.9683 338.5263C 249.2112 338.2459 249.1794 337.821 248.897 337.5776L248.897 337.5776L246.4378 335.4546C 246.1553 335.2112 245.7294 335.2409 245.4865 335.5213C 245.2437 335.8018 245.2754 336.2266 245.5579 336.4701L245.5579 336.4701L248.017 338.593C 248.2995 338.8365 248.7255 338.8068 248.9683 338.5263zM247.575 342.4168C 247.5512 342.0455 247.2319 341.7626 246.8596 341.7846L246.8596 341.7846L243.6192 341.9745C 243.2469 341.9965 242.9647 342.3135 242.9885 342.6848C 243.0124 343.0561 243.3317 343.339 243.704 343.3169L243.704 343.3169L246.9422 343.1277C 247.3159 343.1064 247.5975 342.7873 247.575 342.4168zM249.4608 346.0559C 249.1784 345.8125 248.7524 345.8422 248.5096 346.1227L248.5096 346.1227L246.393 348.5652C 246.1501 348.8457 246.1819 349.2705 246.4644 349.5139C 246.7469 349.7574 247.1728 349.7277 247.4157 349.4472L247.4157 349.4472L249.5336 347.0054C 249.7751 346.7242 249.7433 346.2994 249.4608 346.0559zM276.878 328.9019C 277.2936 327.2927 276.8248 325.4425 275.7108 324.1998C 275.0701 323.4854 274.2409 322.9617 273.3979 322.5183C 272.5045 322.0475 271.5781 321.6341 270.6647 321.2033C 270.2011 320.9842 269.7369 320.7664 269.2725 320.5521C 268.8334 320.3498 268.4013 320.1249 267.9569 319.9355C 267.6027 319.7848 267.2382 319.6986 266.8545 319.7706C 266.4415 319.8478 266.0372 319.9999 265.634 320.1175C 263.6726 320.6897 261.7112 321.2618 259.7498 321.8339C 258.0048 322.3429 256.2597 322.852 254.5146 323.361C 254.2836 323.4284 254.059 323.4905 253.8497 323.6153C 253.5718 323.7819 253.3476 324.0215 253.1954 324.3075C 252.8716 324.918 252.9285 325.7377 253.4162 326.2528C 253.7083 326.563 254.099 326.7635 254.5223 326.8131C 254.7412 326.8393 254.9721 326.8175 255.192 326.8126C 255.4154 326.8078 255.6388 326.803 255.8629 326.7969C 256.7551 326.7771 257.6459 326.7565 258.5381 326.7366C 258.6096 326.7351 258.6811 326.7337 258.7525 326.7322C 259.046 326.7252 259.2455 327.0464 259.1053 327.3038C 258.926 327.6329 258.7467 327.9621 258.5674 328.2912C 258.1173 329.1175 257.6664 329.9451 257.2163 330.7714C 256.6261 331.855 256.035 332.94 255.4447 334.0236C 254.8448 335.1249 254.245 336.2261 253.6458 337.326C 253.1699 338.1997 252.694 339.0734 252.218 339.9471C 251.9915 340.3629 251.7636 340.778 251.5385 341.1946C 251.2704 341.6932 251.2329 342.284 251.4723 342.8044C 251.8497 343.6194 252.8012 344.0288 253.6532 343.7552C 254.1584 343.5931 254.4902 343.224 254.7351 342.7743C 254.9063 342.4601 255.0775 342.1458 255.2487 341.8315C 255.8279 340.7682 256.4071 339.7049 256.9856 338.6429C 257.4232 337.8397 257.8607 337.0365 258.2983 336.2332C 258.3212 336.1912 258.3448 336.1479 258.3676 336.1059C 258.6052 335.6697 259.2809 336.0378 259.0487 336.4769C 258.5157 337.4846 259.0611 338.7758 260.191 339.0523C 260.8113 339.2041 261.4728 339.0111 261.9088 338.5513C 262.1486 338.299 262.2977 337.9604 262.4623 337.6584C 262.6298 337.3509 262.7965 337.0448 262.9641 336.7373C 263.2016 336.3011 263.8772 336.6692 263.6451 337.1083C 263.1113 338.1173 263.6597 339.4032 264.7895 339.6831C 265.4077 339.8355 266.0721 339.6406 266.5073 339.1821C 266.7421 338.9359 266.8853 338.6081 267.0461 338.3128C 267.2151 338.0026 267.3841 337.6924 267.553 337.3823C 267.7906 336.9461 268.4662 337.3141 268.2341 337.7532C 267.8238 338.5292 268.0313 339.5327 268.7658 340.0488C 269.6386 340.6612 270.846 340.374 271.3629 339.4576C 272.3295 337.6831 273.2953 335.91 274.2619 334.1356C 274.757 333.2267 275.2529 332.3165 275.748 331.4076C 276.1884 330.6024 276.6483 329.7937 276.878 328.9019zM275.8608 332.825C 274.8411 334.697 273.8221 336.5676 272.8023 338.4396C 272.5507 338.9015 272.2984 339.3647 272.0468 339.8266C 271.4887 340.8154 270.3271 341.3525 269.2055 341.077C 268.3211 340.8587 267.6252 340.181 267.3627 339.3302C 267.2436 339.5164 267.1068 339.6931 266.9382 339.8436C 266.3126 340.3987 265.439 340.6342 264.6178 340.4327C 263.8999 340.256 263.2577 339.7585 262.9337 339.092C 262.8694 338.9604 262.8177 338.8251 262.7765 338.6867C 262.6544 338.8784 262.5153 339.0591 262.3424 339.2143C 261.7233 339.7641 260.8677 339.9988 260.0516 339.8108C 259.321 339.6411 258.6665 339.137 258.3379 338.4627C 258.2762 338.336 258.2257 338.2049 258.1851 338.0721C 258.1408 338.1533 258.0973 338.2332 258.053 338.3145C 257.4472 339.4266 256.8414 340.5387 256.2364 341.6494C 256.0121 342.0612 255.7885 342.4716 255.5642 342.8834C 255.4173 343.153 255.2803 343.4208 255.0913 343.6639C 254.3991 344.5585 253.1435 344.8336 252.11 344.4094C 251.2118 344.0413 250.6006 343.1498 250.5462 342.1892C 250.5043 341.4427 250.846 340.8542 251.184 340.2339C 251.595 339.4794 252.0067 338.7236 252.4177 337.9691C 253.0058 336.8895 253.5938 335.8099 254.1812 334.7317C 254.8032 333.5898 255.4252 332.448 256.048 331.3047C 256.5615 330.362 257.0743 329.4206 257.5879 328.4778C 257.7613 328.1595 257.9307 327.8355 258.1041 327.5172C 257.5352 327.5305 256.9649 327.543 256.3967 327.5549C 256.0894 327.5614 255.7813 327.5692 255.4726 327.575C 254.9682 327.5865 254.4523 327.6322 253.9654 327.4723C 253.0127 327.1589 252.3464 326.3621 252.2384 325.367C 252.152 324.5822 252.4774 323.7513 253.0727 323.2325C 253.5331 322.8316 254.0752 322.6825 254.6464 322.5159C 255.6334 322.228 256.6225 321.9395 257.6095 321.6516C 259.6759 321.0489 261.7401 320.4467 263.8065 319.844C 264.321 319.6939 264.8334 319.5444 265.3479 319.3943C 265.7763 319.2694 266.2036 319.114 266.6419 319.026C 267.0955 318.9359 267.5321 318.9612 267.9701 319.1137C 268.454 319.2824 268.9055 319.5301 269.3706 319.7431C 270.3486 320.1915 271.3213 320.6529 272.2933 321.1156C 273.2291 321.5604 274.1729 321.9937 275.024 322.5909C 275.8419 323.1646 276.55 323.8524 277.0341 324.7309C 277.4691 325.5211 277.7251 326.4001 277.7912 327.2968C 277.8636 328.2794 277.6594 329.2151 277.2783 330.1158C 276.8751 331.0537 276.3456 331.9351 275.8608 332.825z" stroke="none" fill="#000000" fill-rule="nonzero" /></g></g></g></g></g><g clip-path="url(#28)"><g clip-path="url(#29)"><g clip-path="url(#30)"><g clip-path="url(#31)"><path id="19" transform="matrix(1 0 0 -1 0 842)" d="M313.4995 531.3265L456.1901 531.3265L456.1901 481.8965L313.4995 481.8965z" stroke="none" fill="#7ED957" fill-rule="nonzero" /></g></g></g></g><g clip-path="url(#32)"></g><g clip-path="url(#33)"><g clip-path="url(#34)"><g clip-path="url(#35)"><g clip-path="url(#36)"><g clip-path="url(#37)"><path id="25" transform="matrix(1 0 0 -1 0 842)" d="M453.2068 489.5109C 452.9639 489.7913 452.9957 490.2161 453.2782 490.4595L453.2782 490.4595L455.7374 492.5825C 456.0198 492.8259 456.4458 492.7962 456.6886 492.5158C 456.9315 492.2354 456.8997 491.8105 456.6172 491.5671L456.6172 491.5671L454.158 489.4442C 453.8763 489.1994 453.4496 489.2304 453.2068 489.5109zM449.6587 491.2611C 449.2863 491.2831 449.0042 491.6001 449.028 491.9713L449.028 491.9713L449.2345 495.2013C 449.2583 495.5725 449.5776 495.8554 449.9499 495.8334C 450.3222 495.8114 450.6044 495.4944 450.5806 495.1231L450.5806 495.1231L450.3755 491.8939C 450.3516 491.5226 450.031 491.2391 449.6587 491.2611zM445.2751 482.4117C 445.5179 482.1313 445.4861 481.7065 445.2036 481.463L445.2036 481.463L442.7445 479.3401C 442.462 479.0966 442.036 479.1263 441.7932 479.4068C 441.5504 479.6872 441.5822 480.112 441.8646 480.3554L441.8646 480.3554L444.3238 482.4784C 444.6063 482.7218 445.0322 482.6921 445.2751 482.4117zM443.8819 486.3018C 443.8581 485.9305 443.5388 485.6477 443.1665 485.6697L443.1665 485.6697L439.9262 485.8594C 439.5539 485.8814 439.2717 486.1984 439.2956 486.5696C 439.3194 486.9409 439.6387 487.2237 440.011 487.2017L440.011 487.2017L443.2492 487.0127C 443.6229 486.9914 443.9044 486.6723 443.8819 486.3018zM445.7679 489.9408C 445.4854 489.6973 445.0594 489.727 444.8166 490.0074L444.8166 490.0074L442.7002 492.4497C 442.4573 492.7302 442.4891 493.155 442.7716 493.3984C 443.054 493.6418 443.48 493.6122 443.7228 493.3317L443.7228 493.3317L445.8406 490.8902C 446.0821 490.609 446.0503 490.1842 445.7679 489.9408zM473.1838 472.789C 473.5993 471.18 473.1305 469.3298 472.0164 468.0872C 471.3757 467.3729 470.5465 466.8492 469.7035 466.4058C 468.8101 465.9349 467.8837 465.5215 466.9702 465.0907C 466.5067 464.8716 466.0425 464.6538 465.5781 464.4395C 465.139 464.2372 464.7069 464.0124 464.2625 463.823C 463.9083 463.6722 463.5438 463.586 463.1601 463.658C 462.7471 463.7352 462.3428 463.8873 461.9396 464.0049C 459.9783 464.5768 458.017 465.1489 456.0557 465.7209C 454.3107 466.2298 452.5656 466.7387 450.8206 467.2477C 450.5896 467.315 450.3651 467.3771 450.1558 467.5019C 449.8778 467.6684 449.6537 467.9081 449.5014 468.194C 449.1777 468.8045 449.2346 469.6241 449.7224 470.1392C 450.0145 470.4493 450.4051 470.6498 450.8284 470.6996C 451.0473 470.7257 451.2782 470.7039 451.4981 470.699C 451.7215 470.6943 451.9449 470.6895 452.169 470.6834C 453.0612 470.6635 453.952 470.643 454.8442 470.6232C 454.9156 470.6217 454.9871 470.6202 455.0586 470.6188C 455.3521 470.6118 455.5515 470.933 455.4113 471.1903C 455.2321 471.5194 455.0528 471.8485 454.8735 472.1777C 454.4235 473.0039 453.9727 473.8314 453.5226 474.6576C 452.9324 475.7411 452.3414 476.826 451.7512 477.9095C 451.1513 479.0107 450.5515 480.1118 449.9524 481.2116C 449.4765 482.0852 449.0006 482.9588 448.5248 483.8324C 448.2982 484.2482 448.0704 484.6633 447.8452 485.0798C 447.5772 485.5784 447.5398 486.1692 447.7791 486.6895C 448.1565 487.5045 449.1081 487.9139 449.9601 487.6404C 450.4652 487.4783 450.797 487.1092 451.0419 486.6596C 451.2131 486.3453 451.3842 486.0311 451.5554 485.7169C 452.1346 484.6537 452.7137 483.5905 453.2922 482.5286C 453.7297 481.7254 454.1672 480.9223 454.6047 480.1191C 454.6276 480.0771 454.6512 480.0338 454.6741 479.9918C 454.9117 479.5557 455.5872 479.9237 455.3551 480.3628C 454.8221 481.3704 455.3676 482.6616 456.4975 482.9381C 457.1178 483.0898 457.7793 482.8969 458.2152 482.4371C 458.4551 482.1849 458.6042 481.8463 458.7687 481.5443C 458.9362 481.2369 459.1029 480.9308 459.2704 480.6233C 459.508 480.1872 460.1836 480.5552 459.9514 480.9943C 459.4177 482.0033 459.9661 483.289 461.0959 483.569C 461.7141 483.7214 462.3784 483.5265 462.8136 483.0681C 463.0484 482.8219 463.1916 482.4941 463.3525 482.1989C 463.5214 481.8887 463.6904 481.5786 463.8593 481.2684C 464.0969 480.8323 464.7725 481.2003 464.5404 481.6394C 464.1301 482.4153 464.3377 483.4188 465.0722 483.9348C 465.945 484.5472 467.1523 484.26 467.6692 483.3438C 468.6357 481.5695 469.6014 479.7965 470.568 478.0222C 471.063 477.1134 471.5588 476.2033 472.0539 475.2945C 472.4942 474.4893 472.9541 473.6808 473.1838 472.789zM472.1667 476.7118C 471.1471 478.5836 470.1282 480.454 469.1086 482.3259C 468.857 482.7877 468.6046 483.2509 468.3531 483.7128C 467.795 484.7015 466.6335 485.2384 465.5119 484.9629C 464.6275 484.7446 463.9316 484.067 463.6691 483.2162C 463.55 483.4024 463.4131 483.579 463.2446 483.7296C 462.619 484.2845 461.7454 484.52 460.9243 484.3186C 460.2064 484.1418 459.5641 483.6444 459.2401 482.9778C 459.1758 482.8462 459.1241 482.7109 459.0829 482.5726C 458.9608 482.7643 458.8218 482.9449 458.6489 483.1002C 458.0298 483.6498 457.1742 483.8846 456.3582 483.6964C 455.6275 483.5268 454.973 483.0227 454.6444 482.3484C 454.5827 482.2217 454.5323 482.0906 454.4916 481.9578C 454.4473 482.0391 454.4038 482.119 454.3595 482.2002C 453.7538 483.3122 453.148 484.4242 452.543 485.5348C 452.3188 485.9466 452.0952 486.3569 451.8709 486.7687C 451.7241 487.0382 451.587 487.306 451.3981 487.5491C 450.7059 488.4436 449.4504 488.7187 448.4168 488.2944C 447.5187 487.9263 446.9075 487.0349 446.8531 486.0744C 446.8111 485.3279 447.1528 484.7395 447.4907 484.1192C 447.9016 483.3648 448.3134 482.609 448.7243 481.8546C 449.3123 480.7751 449.9003 479.6956 450.4876 478.6176C 451.1096 477.4758 451.7316 476.334 452.3542 475.1909C 452.8678 474.2482 453.3805 473.3069 453.894 472.3642C 454.0674 472.0459 454.2368 471.722 454.4102 471.4037C 453.8413 471.4169 453.271 471.4294 452.7029 471.4413C 452.3955 471.4478 452.0875 471.4556 451.7788 471.4614C 451.2744 471.4729 450.7585 471.5186 450.2716 471.3586C 449.3189 471.0452 448.6526 470.2484 448.5446 469.2534C 448.4581 468.4687 448.7835 467.6378 449.3787 467.119C 449.8391 466.7182 450.3812 466.5692 450.9524 466.4026C 451.9394 466.1148 452.9284 465.8263 453.9154 465.5385C 455.9817 464.9359 458.0459 464.3338 460.1122 463.7312C 460.6267 463.5812 461.1391 463.4317 461.6535 463.2817C 462.0819 463.1568 462.5092 463.0014 462.9475 462.9135C 463.4011 462.8233 463.8377 462.8486 464.2756 463.0012C 464.7596 463.1699 465.211 463.4176 465.6761 463.6306C 466.6541 464.079 467.6268 464.5404 468.5988 465.0031C 469.5346 465.4479 470.4785 465.8813 471.3296 466.4784C 472.1475 467.0521 472.8555 467.7399 473.3397 468.6183C 473.7747 469.4085 474.0307 470.2874 474.0969 471.1841C 474.1693 472.1666 473.9652 473.1022 473.5841 474.0029C 473.181 474.9407 472.6515 475.822 472.1667 476.7118z" stroke="none" fill="#000000" fill-rule="nonzero" /></g></g></g></g></g><g clip-path="url(#38)"><g clip-path="url(#39)"><g clip-path="url(#40)"><g clip-path="url(#41)"><path id="26" transform="matrix(1 0 0 -1 0 842)" d="M313.4995 391.5316L456.0527 391.5316L456.0527 345.2199L313.4995 345.2199z" stroke="none" fill="#7ED957" fill-rule="nonzero" /></g></g></g></g><g clip-path="url(#42)"></g><g clip-path="url(#43)"><g clip-path="url(#44)"><g clip-path="url(#45)"><g clip-path="url(#46)"><g clip-path="url(#47)"><path id="32" transform="matrix(1 0 0 -1 0 842)" d="M453.2068 355.3017C 452.9639 355.5822 452.9957 356.0069 453.2782 356.2504L453.2782 356.2504L455.7374 358.3733C 456.0198 358.6167 456.4458 358.5871 456.6886 358.3066C 456.9315 358.0262 456.8997 357.6014 456.6172 357.3579L456.6172 357.3579L454.158 355.235C 453.8763 354.9902 453.4496 355.0212 453.2068 355.3017zM449.6587 357.0519C 449.2863 357.0739 449.0042 357.3909 449.028 357.7622L449.028 357.7622L449.2345 360.9921C 449.2583 361.3634 449.5776 361.6462 449.9499 361.6242C 450.3222 361.6022 450.6044 361.2852 450.5806 360.9139L450.5806 360.9139L450.3755 357.6848C 450.3516 357.3135 450.031 357.0299 449.6587 357.0519zM445.2751 348.2025C 445.5179 347.9221 445.4861 347.4973 445.2036 347.2538L445.2036 347.2538L442.7445 345.1309C 442.462 344.8875 442.036 344.9171 441.7932 345.1976C 441.5504 345.4781 441.5822 345.9028 441.8646 346.1463L441.8646 346.1463L444.3238 348.2692C 444.6063 348.5126 445.0322 348.483 445.2751 348.2025zM443.8819 352.0926C 443.8581 351.7213 443.5388 351.4385 443.1665 351.4605L443.1665 351.4605L439.9262 351.6502C 439.5539 351.6722 439.2717 351.9892 439.2956 352.3605C 439.3194 352.7318 439.6387 353.0146 440.011 352.9926L440.011 352.9926L443.2492 352.8035C 443.6229 352.7822 443.9044 352.4632 443.8819 352.0926zM445.7679 355.7316C 445.4854 355.4882 445.0594 355.5178 444.8166 355.7982L444.8166 355.7982L442.7002 358.2406C 442.4573 358.521 442.4891 358.9458 442.7716 359.1892C 443.054 359.4327 443.48 359.403 443.7228 359.1226L443.7228 359.1226L445.8406 356.681C 446.0821 356.3998 446.0503 355.975 445.7679 355.7316zM473.1838 338.5798C 473.5993 336.9708 473.1305 335.1207 472.0164 333.878C 471.3757 333.1637 470.5465 332.64 469.7035 332.1966C 468.8101 331.7257 467.8837 331.3124 466.9702 330.8816C 466.5067 330.6624 466.0425 330.4447 465.5781 330.2303C 465.139 330.028 464.7069 329.8032 464.2625 329.6138C 463.9083 329.463 463.5438 329.3768 463.1601 329.4489C 462.7471 329.526 462.3428 329.6781 461.9396 329.7957C 459.9783 330.3677 458.017 330.9397 456.0557 331.5117C 454.3107 332.0206 452.5656 332.5295 450.8206 333.0385C 450.5896 333.1058 450.3651 333.1679 450.1558 333.2928C 449.8778 333.4593 449.6537 333.6989 449.5014 333.9849C 449.1777 334.5953 449.2346 335.4149 449.7224 335.93C 450.0145 336.2402 450.4051 336.4407 450.8284 336.4904C 451.0473 336.5165 451.2782 336.4948 451.4981 336.4899C 451.7215 336.4851 451.9449 336.4803 452.169 336.4742C 453.0612 336.4544 453.952 336.4338 454.8442 336.414C 454.9156 336.4125 454.9871 336.4111 455.0586 336.4096C 455.3521 336.4026 455.5515 336.7238 455.4113 336.9811C 455.2321 337.3102 455.0528 337.6394 454.8735 337.9685C 454.4235 338.7947 453.9727 339.6223 453.5226 340.4484C 452.9324 341.532 452.3414 342.6169 451.7512 343.7004C 451.1513 344.8015 450.5515 345.9027 449.9524 347.0024C 449.4765 347.876 449.0006 348.7496 448.5248 349.6232C 448.2982 350.0391 448.0704 350.4541 447.8452 350.8707C 447.5772 351.3692 447.5398 351.96 447.7791 352.4803C 448.1565 353.2953 449.1081 353.7048 449.9601 353.4312C 450.4652 353.2691 450.797 352.9001 451.0419 352.4504C 451.2131 352.1362 451.3842 351.822 451.5554 351.5077C 452.1346 350.4445 452.7137 349.3813 453.2922 348.3194C 453.7297 347.5163 454.1672 346.7131 454.6047 345.9099C 454.6276 345.868 454.6512 345.8246 454.6741 345.7826C 454.9117 345.3465 455.5872 345.7145 455.3551 346.1536C 454.8221 347.1612 455.3676 348.4524 456.4975 348.7289C 457.1178 348.8807 457.7793 348.6877 458.2152 348.228C 458.4551 347.9757 458.6042 347.6372 458.7687 347.3351C 458.9362 347.0277 459.1029 346.7216 459.2704 346.4142C 459.508 345.978 460.1836 346.3461 459.9514 346.7852C 459.4177 347.7941 459.9661 349.0799 461.0959 349.3599C 461.7141 349.5122 462.3784 349.3173 462.8136 348.8589C 463.0484 348.6127 463.1916 348.285 463.3525 347.9897C 463.5214 347.6796 463.6904 347.3694 463.8593 347.0592C 464.0969 346.6231 464.7725 346.9911 464.5404 347.4302C 464.1301 348.2061 464.3377 349.2096 465.0722 349.7256C 465.945 350.3381 467.1523 350.0509 467.6692 349.1346C 468.6357 347.3603 469.6014 345.5874 470.568 343.8131C 471.063 342.9043 471.5588 341.9941 472.0539 341.0853C 472.4942 340.2802 472.9541 339.4716 473.1838 338.5798zM472.1667 342.5026C 471.1471 344.3745 470.1282 346.2449 469.1086 348.1167C 468.857 348.5786 468.6046 349.0417 468.3531 349.5036C 467.795 350.4923 466.6335 351.0293 465.5119 350.7537C 464.6275 350.5355 463.9316 349.8578 463.6691 349.007C 463.55 349.1933 463.4131 349.3699 463.2446 349.5204C 462.619 350.0754 461.7454 350.3108 460.9243 350.1094C 460.2064 349.9326 459.5641 349.4352 459.2401 348.7687C 459.1758 348.6371 459.1241 348.5018 459.0829 348.3634C 458.9608 348.5551 458.8218 348.7357 458.6489 348.891C 458.0298 349.4407 457.1742 349.6754 456.3582 349.4873C 455.6275 349.3176 454.973 348.8135 454.6444 348.1393C 454.5827 348.0125 454.5323 347.8814 454.4916 347.7486C 454.4473 347.8299 454.4038 347.9098 454.3595 347.9911C 453.7538 349.1031 453.148 350.215 452.543 351.3257C 452.3188 351.7374 452.0952 352.1478 451.8709 352.5595C 451.7241 352.829 451.587 353.0969 451.3981 353.3399C 450.7059 354.2345 449.4504 354.5095 448.4168 354.0852C 447.5187 353.7172 446.9075 352.8257 446.8531 351.8652C 446.8111 351.1187 447.1528 350.5303 447.4907 349.91C 447.9016 349.1556 448.3134 348.3998 448.7243 347.6454C 449.3123 346.566 449.9003 345.4865 450.4876 344.4084C 451.1096 343.2666 451.7316 342.1248 452.3542 340.9817C 452.8678 340.039 453.3805 339.0977 453.894 338.1551C 454.0674 337.8368 454.2368 337.5128 454.4102 337.1945C 453.8413 337.2078 453.271 337.2203 452.7029 337.2322C 452.3955 337.2386 452.0875 337.2465 451.7788 337.2522C 451.2744 337.2637 450.7585 337.3094 450.2716 337.1495C 449.3189 336.8361 448.6526 336.0392 448.5446 335.0443C 448.4581 334.2595 448.7835 333.4286 449.3787 332.9099C 449.8391 332.509 450.3812 332.36 450.9524 332.1935C 451.9394 331.9056 452.9284 331.6172 453.9154 331.3293C 455.9817 330.7267 458.0459 330.1247 460.1122 329.5221C 460.6267 329.372 461.1391 329.2226 461.6535 329.0725C 462.0819 328.9476 462.5092 328.7922 462.9475 328.7043C 463.4011 328.6141 463.8377 328.6395 464.2756 328.792C 464.7596 328.9607 465.211 329.2084 465.6761 329.4214C 466.6541 329.8698 467.6268 330.3312 468.5988 330.7939C 469.5346 331.2387 470.4785 331.6721 471.3296 332.2692C 472.1475 332.8429 472.8555 333.5307 473.3397 334.4091C 473.7747 335.1994 474.0307 336.0782 474.0969 336.9749C 474.1693 337.9575 473.9652 338.8931 473.5841 339.7937C 473.181 340.7315 472.6515 341.6128 472.1667 342.5026z" stroke="none" fill="#000000" fill-rule="nonzero" /></g></g></g></g></g><g clip-path="url(#48)"><g clip-path="url(#49)"><g clip-path="url(#50)"><g clip-path="url(#51)"><path id="33" transform="matrix(1 0 0 -1 0 842)" d="M49.30238 232.2557L554.0755 232.2557L554.0755 187.7731L49.30238 187.7731z" stroke="none" fill="#7ED957" fill-rule="nonzero" /></g></g></g></g><g clip-path="url(#52)"><path id="34" transform="matrix(1 0 0 -1 0 842)" d="M540.5671 58.93889C 540.727 56.35863 540.8564 54.46339 540.8259 51.98969C 540.8107 48.77007 540.1105 47.82626 538.7023 46.93574C 530.4589 41.67627 515.0681 32.23055 506.0254 27.03957C 501.7552 24.5887 487.7269 17.89069 466.673 24.60393C 445.6343 31.30957 437.7258 34.25516 430.3805 37.11705C 427.587 38.19788 425.6308 39.55269 425.9581 45.45914C 426.156 49.13544 426.118 52.55296 427.2521 53.2608C 430.5784 55.36155 433.4937 50.86322 437.2386 49.61495C 441.7676 48.10789 480.7013 34.97064 488.9524 37.71835C 497.1806 40.45847 540.5671 58.9389 540.5671 58.9389L540.5671 58.9389L540.5671 58.93889z" stroke="none" fill="#FF7400" fill-rule="nonzero" /><path id="35" transform="matrix(1 0 0 -1 0 842)" d="M519.46 67.30379C 526.2419 65.13455 541.884 62.59996 540.4987 58.14729C 532.3313 52.3322 523.1744 47.05751 513.7588 41.3642C 508.0957 37.90863 496.8837 32.53499 482.8478 32.23053C 468.8195 31.92607 440.7476 43.21376 435.2672 45.0481C 429.7716 46.87483 420.942 52.62904 432.527 56.92947C 441.0216 60.11104 445.8322 61.93777 449.6 63.53616C 454.9967 65.81958 519.46 67.30379 519.46 67.30379z" stroke="none" fill="#FF5A00" fill-rule="nonzero" /><path id="36" transform="matrix(1 0 0 -1 0 842)" d="M475.2818 171.5037L486.7221 171.5037C 487.8867 163.8923 518.5314 71.96197 522.1926 60.67429C 523.106 55.2017 507.2432 43.89879 486.8059 43.39644C 474.6044 43.08437 453.5581 45.52001 446.8446 54.98097C 449.2879 67.5017 475.2818 171.5037 475.2818 171.5037L475.2818 171.5037L475.2818 171.5037z" stroke="none" fill="#FF7400" fill-rule="nonzero" /><path id="37" transform="matrix(1 0 0 -1 0 842)" d="M457.2041 99.31729C 461.9081 94.10349 499.5174 93.79142 509.6257 99.3934C 511.6047 93.28907 514.9767 83.10503 517.108 76.10256C 505.5915 68.17149 456.8007 69.54916 451.8531 76.5973C 454.6009 89.11041 457.2041 99.31728 457.2041 99.31728L457.2041 99.31728L457.2041 99.31729z" stroke="none" fill="#FFFFFF" fill-rule="nonzero" /><path id="38" transform="matrix(1 0 0 -1 0 842)" d="M468.9793 146.6449C 474.5587 145.3053 487.9324 145.1074 494.1968 146.4089C 495.8866 141.2027 499.7 129.9379 502.1662 121.7937C 492.9257 119.4037 474.2999 119.5636 462.9204 122.1514C 466.0108 134.7559 468.9793 146.6449 468.9793 146.6449L468.9793 146.6449L468.9793 146.6449z" stroke="none" fill="#FFFFFF" fill-rule="nonzero" /></g><g clip-path="url(#53)"><path id="39" transform="matrix(1 0 0 -1 0 842)" d="M31.80305 481.7546L52.87018 480.4493L86.09142 481.7546L86.09142 473.4255L80.26367 460.621L71.226 454.4363L45.95169 454.4363L39.06436 461.2115L31.80305 474.5132L31.80305 481.7546z" stroke="none" fill="#2E3529" fill-rule="nonzero" /><path id="40" transform="matrix(1 0 0 -1 0 842)" d="M31.80305 454.0323L52.87018 452.727L86.09142 454.0323L86.09142 445.7343L80.26367 432.8987L71.226 426.7141L45.95169 426.7141L39.06436 433.4893L31.80305 446.791L31.80305 454.0323z" stroke="none" fill="#2E3529" fill-rule="nonzero" /><path id="41" transform="matrix(1 0 0 -1 0 842)" d="M31.80305 426.3411L52.87018 425.0358L86.09142 426.3411L86.09142 418.0431L80.26367 405.2076L71.226 399.0229L45.95169 399.0229L39.06436 405.7981L31.80305 419.0998L31.80305 426.3411z" stroke="none" fill="#2E3529" fill-rule="nonzero" /><path id="42" transform="matrix(1 0 0 -1 0 842)" d="M51.53011 262.4006L35.10648 260.163C 32.0212 258.7955 28.90476 257.4591 25.8195 256.0916C 25.69484 255.2215 25.60135 254.3513 25.47668 253.481L25.47668 253.481L32.17703 250.2799L32.17703 250.2799L49.50444 247.8869L49.50444 247.8869L73.96848 247.8869L73.96848 247.8869L88.52225 250.6529L88.52225 250.6529L93.78902 253.3257L93.78902 253.3257L92.88525 256.4336L92.88525 256.4336L84.40854 260.3495L84.40854 260.3495L69.48079 262.4007L69.48079 262.4007L51.53011 262.4007L51.53011 262.4007L51.53011 262.4006z" stroke="none" fill="#DDDDDD" fill-rule="nonzero" /><path id="43" transform="matrix(1 0 0 -1 0 842)" d="M55.36333 428.5477L55.36333 393.3976L55.36333 345.1634L55.36333 273.5269L55.36333 253.5743L63.71538 253.5743L63.71538 301.3423L63.71538 364.4012L63.71538 428.5477L55.36333 428.5477z" stroke="none" fill="#DDDDDD" fill-rule="nonzero" /><path id="44" transform="matrix(1 0 0 -1 0 842)" d="M43.17805 487.6284L58.16814 486.5718L58.16814 486.5718L76.05649 487.6284L76.05649 487.6284L75.09039 448.5003L75.09039 448.5003L76.05649 413.8164L76.05649 413.8164L76.05649 389.575L76.05649 389.575L59.63286 389.575L59.63286 389.575L43.20923 389.575L43.20923 389.575L44.64279 428.7653C 44.33115 442.4399 44.05067 456.1146 43.73901 469.7892C 43.55203 475.7564 43.36505 481.6924 43.17805 487.6284z" stroke="none" fill="#2E3529" fill-rule="nonzero" /><path id="45" transform="matrix(1 0 0 -1 0 842)" d="M59.4147 481.7856L54.08559 480.6668L50.28354 477.8387L47.35408 472.9904L47.35408 466.93L50.03423 462.1128L53.92978 459.036L57.70065 457.9172L61.90785 457.9172L66.20853 459.44L70.32224 463.387L71.88045 468.4839L70.82086 473.8917L67.89142 478.3981L64.18286 480.5736L59.4147 481.7856z" stroke="none" fill="#FA484F" fill-rule="nonzero" /><path id="46" transform="matrix(1 0 0 -1 0 842)" d="M59.4147 451.3906L54.08559 450.2407L50.28354 447.4125L47.35408 442.5953L47.35408 436.535L50.03423 431.6867L53.92978 428.641L57.70065 427.5221L61.90785 427.5221L66.20853 429.045L70.32224 432.992L71.88045 438.0578L70.82086 443.4655L67.89142 448.0031L64.18286 450.1785L59.4147 451.3906z" stroke="none" fill="#FCCE2E" fill-rule="nonzero" /><path id="47" transform="matrix(1 0 0 -1 0 842)" d="M59.4147 421.8036L54.08559 420.6848L50.28354 417.8566L47.35408 413.0083L47.35408 406.9791L50.03423 402.1308L53.92978 399.054L57.70065 397.9352L61.90785 397.9352L66.20853 399.458L70.32224 403.405L71.88045 408.5019L70.82086 413.9096L67.89142 418.416L64.18286 420.5916L59.4147 421.8036z" stroke="none" fill="#3F8E16" fill-rule="nonzero" /></g><g clip-path="url(#54)"></g></g></g></svg>