<svg xmlns="http://www.w3.org/2000/svg" xmlns:xlink="http://www.w3.org/1999/xlink" id="body_1" preserveAspectRatio="xMinYMin meet" viewBox="0 0 793 1123"><defs><clipPath id="1"><path id="" clip-rule="evenodd" transform="matrix(1 0 0 1 0 0)" d="M0 842L0 -0.25L0 -0.25L595.5 -0.25L595.5 -0.25L595.5 842L595.5 842L0 842z" /></clipPath><clipPath id="2"><path id="" clip-rule="evenodd" transform="matrix(1 0 0 1 0 0)" d="M0 -0.249939L595.5 -0.249939L595.5 -0.249939L595.5 842.0001L595.5 842.0001L0 842.0001z" /></clipPath><clipPath id="3"><path id="" clip-rule="evenodd" transform="matrix(1 0 0 1 0 0)" d="M0 -0.249939L595.5 -0.249939L595.5 -0.249939L595.5 842.0001L595.5 842.0001L0 842.0001z" /></clipPath><clipPath id="4"><path id="" clip-rule="evenodd" transform="matrix(1 0 0 1 0 0)" d="M0 -0.249939L595.5 -0.249939L595.5 -0.249939L595.5 842.0001L595.5 842.0001L0 842.0001z" /></clipPath><clipPath id="5"><path id="" clip-rule="evenodd" transform="matrix(1 0 0 1 0 0)" d="M80.88 18.95007L537.12 18.95007L537.12 18.95007L537.12 823.1901L537.12 823.1901L80.88 823.1901z" /></clipPath><clipPath id="6"><path id="" clip-rule="evenodd" transform="matrix(1 0 0 1 0 0)" d="M81.0154 19.05255L537.0154 19.05255L537.0154 19.05255L537.0154 822.3026L537.0154 822.3026L81.0154 822.3026z" /></clipPath><clipPath id="7"><path id="" clip-rule="evenodd" transform="matrix(1 0 0 1 0 0)" d="M466.4401 23.61578L551.1901 23.61578L551.1901 23.61578L551.1901 71.61578L551.1901 71.61578L466.4401 71.61578z" /></clipPath><clipPath id="8"><path id="" clip-rule="evenodd" transform="matrix(1 0 0 1 0 0)" d="M38.88756 10.32037L128.8876 10.32037L128.8876 10.32037L128.8876 89.82037L128.8876 89.82037L38.88756 89.82037z" /></clipPath><clipPath id="9"><path id="" clip-rule="evenodd" transform="matrix(1 0 0 1 0 0)" d="M0 -0.249939L595.5 -0.249939L595.5 -0.249939L595.5 842.0001L595.5 842.0001L0 842.0001z" /></clipPath><clipPath id="10"><path id="" clip-rule="evenodd" transform="matrix(1 0 0 1 0 0)" d="M0 -0.249939L595.5 -0.249939L595.5 -0.249939L595.5 842.0001L595.5 842.0001L0 842.0001z" /></clipPath><clipPath id="11"><path id="" clip-rule="evenodd" transform="matrix(1 0 0 1 0 0)" d="M26.30404 223.05L568.9815 223.05L568.9815 223.05L568.9815 237.7201L568.9815 237.7201L26.30404 237.7201z" /></clipPath><clipPath id="12"><path id="" clip-rule="evenodd" transform="matrix(1 0 0 1 0 0)" d="M33.63906 223.05L561.6364 223.05C 565.6875 223.05 568.9715 226.334 568.9715 230.385C 568.9715 234.436 565.6875 237.7201 561.6364 237.7201L561.6364 237.7201L33.63906 237.7201C 29.58804 237.7201 26.30404 234.436 26.30404 230.385C 26.30404 226.334 29.58804 223.05 33.63906 223.05z" /></clipPath><clipPath id="13"><path id="" clip-rule="evenodd" transform="matrix(1 0 0 1 0 0)" d="M0 -0.249939L595.5 -0.249939L595.5 -0.249939L595.5 842.0001L595.5 842.0001L0 842.0001z" /></clipPath><clipPath id="14"><path id="" clip-rule="evenodd" transform="matrix(1 0 0 1 0 0)" d="M385.68 275.9901L575.28 275.9901L575.28 275.9901L575.28 420.9501L575.28 420.9501L385.68 420.9501z" /></clipPath><clipPath id="15"><path id="" clip-rule="evenodd" transform="matrix(1 0 0 1 0 0)" d="M385.7174 276.1195L575.1902 276.1195L575.1902 276.1195L575.1902 420.9107L575.1902 420.9107L385.7174 420.9107z" /></clipPath><clipPath id="16"><path id="" clip-rule="evenodd" transform="matrix(1 0 0 1 0 0)" d="M410.4674 276.1195L550.3828 276.1195C 564.0519 276.1195 575.1328 287.2004 575.1328 300.8695L575.1328 300.8695L575.1328 396.1607C 575.1328 409.8297 564.0519 420.9107 550.3828 420.9107L550.3828 420.9107L410.4674 420.9107C 396.7984 420.9107 385.7174 409.8297 385.7174 396.1607L385.7174 396.1607L385.7174 300.8695C 385.7174 287.2004 396.7984 276.1195 410.4674 276.1195z" /></clipPath><clipPath id="17"><path id="" clip-rule="evenodd" transform="matrix(1 0 0 1 0 0)" d="M395.6936 286.651L562.181 286.651L562.181 286.651L562.181 411.5166L562.181 411.5166L395.6936 411.5166z" /></clipPath><clipPath id="18"><path id="" clip-rule="evenodd" transform="matrix(1 0 0 1 0 0)" d="M0 -0.249939L595.5 -0.249939L595.5 -0.249939L595.5 842.0001L595.5 842.0001L0 842.0001z" /></clipPath><clipPath id="19"><path id="" clip-rule="evenodd" transform="matrix(1 0 0 1 0 0)" d="M0 -0.249939L595.5 -0.249939L595.5 -0.249939L595.5 842.0001L595.5 842.0001L0 842.0001z" /></clipPath><clipPath id="20"><path id="" clip-rule="evenodd" transform="matrix(1 0 0 1 0 0)" d="M26.30404 260.3693L372.0009 260.3693L372.0009 260.3693L372.0009 436.6609L372.0009 436.6609L26.30404 436.6609z" /></clipPath><clipPath id="21"><path id="" clip-rule="evenodd" transform="matrix(1 0 0 1 0 0)" d="M45.80404 260.3693L352.2324 260.3693C 363.002 260.3693 371.7324 269.0997 371.7324 279.8693L371.7324 279.8693L371.7324 417.1609C 371.7324 427.9304 363.002 436.6609 352.2324 436.6609L352.2324 436.6609L45.80404 436.6609C 35.03448 436.6609 26.30404 427.9304 26.30404 417.1609L26.30404 417.1609L26.30404 279.8693C 26.30404 269.0997 35.03448 260.3693 45.80404 260.3693z" /></clipPath><clipPath id="22"><path id="" clip-rule="evenodd" transform="matrix(1 0 0 1 0 0)" d="M0 -0.249939L595.5 -0.249939L595.5 -0.249939L595.5 842.0001L595.5 842.0001L0 842.0001z" /></clipPath><clipPath id="23"><path id="" clip-rule="evenodd" transform="matrix(1 0 0 1 0 0)" d="M0 -0.249939L595.5 -0.249939L595.5 -0.249939L595.5 842.0001L595.5 842.0001L0 842.0001z" /></clipPath><clipPath id="24"><path id="" clip-rule="evenodd" transform="matrix(1 0 0 1 0 0)" d="M0 -0.249939L595.5 -0.249939L595.5 -0.249939L595.5 842.0001L595.5 842.0001L0 842.0001z" /></clipPath><clipPath id="25"><path id="" clip-rule="evenodd" transform="matrix(1 0 0 1 0 0)" d="M229.8645 462.5039L575.8118 462.5039L575.8118 462.5039L575.8118 707.8295L575.8118 707.8295L229.8645 707.8295z" /></clipPath><clipPath id="26"><path id="" clip-rule="evenodd" transform="matrix(1 0 0 1 0 0)" d="M249.3645 462.5039L555.6329 462.5039C 566.4024 462.5039 575.1329 471.2344 575.1329 482.0039L575.1329 482.0039L575.1329 688.3295C 575.1329 699.0991 566.4024 707.8295 555.6329 707.8295L555.6329 707.8295L249.3645 707.8295C 238.595 707.8295 229.8645 699.0991 229.8645 688.3295L229.8645 688.3295L229.8645 482.0039C 229.8645 471.2344 238.595 462.5039 249.3645 462.5039z" /></clipPath><clipPath id="27"><path id="" clip-rule="evenodd" transform="matrix(1 0 0 1 0 0)" d="M0 -0.249939L595.5 -0.249939L595.5 -0.249939L595.5 842.0001L595.5 842.0001L0 842.0001z" /></clipPath><clipPath id="28"><path id="" clip-rule="evenodd" transform="matrix(1 0 0 1 0 0)" d="M0 -0.249939L595.5 -0.249939L595.5 -0.249939L595.5 842.0001L595.5 842.0001L0 842.0001z" /></clipPath><clipPath id="29"><path id="" clip-rule="evenodd" transform="matrix(1 0 0 1 0 0)" d="M0 -0.249939L595.5 -0.249939L595.5 -0.249939L595.5 842.0001L595.5 842.0001L0 842.0001z" /></clipPath><clipPath id="30"><path id="" clip-rule="evenodd" transform="matrix(1 0 0 1 0 0)" d="M26.30404 501.976L219.804 501.976L219.804 501.976L219.804 665.476L219.804 665.476L26.30404 665.476z" /></clipPath><clipPath id="31"><path id="" clip-rule="evenodd" transform="matrix(1 0 0 1 0 0)" d="M26.30404 529.726L26.30404 637.5742C 26.30404 652.9001 38.72813 665.3242 54.05404 665.3242L54.05404 665.3242L191.757 665.3242C 207.0829 665.3242 219.507 652.9001 219.507 637.5742L219.507 637.5742L219.507 529.726C 219.507 514.4001 207.0829 501.976 191.757 501.976L191.757 501.976L54.05404 501.976C 38.72813 501.976 26.30404 514.4001 26.30404 529.726z" /></clipPath><clipPath id="32"><path id="" clip-rule="evenodd" transform="matrix(1 0 0 1 0 0)" d="M26.30404 501.976L219.804 501.976L219.804 501.976L219.804 665.476L219.804 665.476L26.30404 665.476z" /></clipPath><clipPath id="33"><path id="" clip-rule="evenodd" transform="matrix(1 0 0 1 0 0)" d="M0 -0.249939L595.5 -0.249939L595.5 -0.249939L595.5 842.0001L595.5 842.0001L0 842.0001z" /></clipPath></defs><g transform="matrix(1.333333 0 0 1.333333 0 0)"><g clip-path="url(#1)"><g clip-path="url(#2)"><path id="1" transform="matrix(1 0 0 -1 0 842)" d="M0 842.2499L595.4999 842.2499L595.4999 -6.103516E-05L0 -6.103516E-05z" stroke="none" fill="#FFFFFF" fill-rule="nonzero" /></g><g clip-path="url(#3)"><path id="2" transform="matrix(1 0 0 -1 0 842)" d="M0 842.2499L595.4999 842.2499L595.4999 -6.103516E-05L0 -6.103516E-05z" stroke="none" fill="#FFFFFF" fill-rule="nonzero" /></g><g clip-path="url(#4)"><g><g clip-path="url(#5)"><g clip-path="url(#6)"><g transform="matrix(0 0.5281065 -0.5283893 0 537.0154 19.05261)"><g transform="matrix(1 0 0 1 0 0)"><image x="0" y="0" xlink:href="img_01.png" width="1521" height="863" /></g></g></g></g></g></g><g clip-path="url(#7)"><g transform="matrix(0.05571992 0 0 0.05561992 466.4401 23.61584)"><g transform="matrix(1 0 0 1 0 0)"><image x="0" y="0" xlink:href="img_02.png" width="1521" height="863" /></g></g></g><g clip-path="url(#8)"><g transform="matrix(0.4225352 0 0 0.4228723 38.88755 10.32037)"><g transform="matrix(1 0 0 1 0 0)"><image x="0" y="0" xlink:href="img_03.png" width="213" height="188" /></g></g></g><g clip-path="url(#9)"><g clip-path="url(#10)"><g clip-path="url(#11)"><g clip-path="url(#12)"><path id="6" transform="matrix(1 0 0 -1 0 842)" d="M26.30404 618.95L568.9815 618.95L568.9815 604.2799L26.30404 604.2799z" stroke="none" fill="#D6E0E5" fill-rule="nonzero" /></g></g></g></g><g clip-path="url(#13)"><g><g clip-path="url(#14)"><g clip-path="url(#15)"><g clip-path="url(#16)"><path id="7" transform="matrix(1 0 0 -1 0 842)" d="M385.7174 565.8804L575.1902 565.8804L575.1902 421.0892L385.7174 421.0892z" stroke="none" fill="#282222" fill-rule="nonzero" fill-opacity="0.3490196" /></g></g></g></g></g><g clip-path="url(#17)"><g transform="matrix(0.5800953 0 0 0.578081 395.6936 286.6511)"><g transform="matrix(1 0 0 1 0 0)"><image x="0" y="0" xlink:href="img_04.png" width="287" height="216" /></g></g></g><g clip-path="url(#18)"><g clip-path="url(#19)"><g clip-path="url(#20)"><g clip-path="url(#21)"><path id="9" transform="matrix(1 0 0 -1 0 842)" d="M26.30404 581.6307L372.0009 581.6307L372.0009 405.3391L26.30404 405.3391z" stroke="none" fill="#D6E0E5" fill-rule="nonzero" /></g></g></g></g><g clip-path="url(#22)"></g><g clip-path="url(#23)"><g clip-path="url(#24)"><g clip-path="url(#25)"><g clip-path="url(#26)"><path id="299" transform="matrix(1 0 0 -1 0 842)" d="M229.8645 379.496L574.8535 379.496L574.8535 134.1705L229.8645 134.1705z" stroke="none" fill="#D6E0E5" fill-rule="nonzero" /></g></g></g></g><g clip-path="url(#27)"></g><g clip-path="url(#28)"><g clip-path="url(#29)"><g clip-path="url(#30)"><g clip-path="url(#31)"><g clip-path="url(#32)"><g transform="matrix(0.6084905 0 0 0.6078066 26.30404 501.976)"><g transform="matrix(1 0 0 1 0 0)"><image x="0" y="0" xlink:href="img_05.png" width="318" height="269" /></g></g></g></g></g></g></g><g clip-path="url(#33)"></g></g></g></svg>