<svg xmlns="http://www.w3.org/2000/svg" xmlns:xlink="http://www.w3.org/1999/xlink" id="body_1" preserveAspectRatio="xMinYMin meet" viewBox="0 0 793 1123"><defs><clipPath id="1"><path id="" clip-rule="evenodd" transform="matrix(1 0 0 1 0 0)" d="M0 842L0 -0.250061L0 -0.250061L595.5 -0.250061L595.5 -0.250061L595.5 842L595.5 842L0 842z" /></clipPath><clipPath id="2"><path id="" clip-rule="evenodd" transform="matrix(1 0 0 1 0 0)" d="M0 -0.25L595.5 -0.25L595.5 -0.25L595.5 842.0012L595.5 842.0012L0 842.0012z" /></clipPath><clipPath id="3"><path id="" clip-rule="evenodd" transform="matrix(1 0 0 1 0 0)" d="M0 -0.25L595.5 -0.25L595.5 -0.25L595.5 842.0012L595.5 842.0012L0 842.0012z" /></clipPath><clipPath id="4"><path id="" clip-rule="evenodd" transform="matrix(1 0 0 1 0 0)" d="M0 -0.25L595.5 -0.25L595.5 -0.25L595.5 842.0012L595.5 842.0012L0 842.0012z" /></clipPath><clipPath id="5"><path id="" clip-rule="evenodd" transform="matrix(1 0 0 1 0 0)" d="M78.71999 30.71002L522.24 30.71002L522.24 30.71002L522.24 810.95L522.24 810.95L78.71999 810.95z" /></clipPath><clipPath id="6"><path id="" clip-rule="evenodd" transform="matrix(1 0 0 1 0 0)" d="M79.51786 30.75177L522.0178 30.75177L522.0178 30.75177L522.0178 810.7518L522.0178 810.7518L79.51786 810.7518z" /></clipPath><clipPath id="7"><path id="" clip-rule="evenodd" transform="matrix(1 0 0 1 0 0)" d="M411.9816 11.38263L470.4816 11.38263L470.4816 11.38263L470.4816 68.38263L470.4816 68.38263L411.9816 68.38263z" /></clipPath><clipPath id="8"><path id="" clip-rule="evenodd" transform="matrix(1 0 0 1 0 0)" d="M0 -0.25L595.5 -0.25L595.5 -0.25L595.5 842.0012L595.5 842.0012L0 842.0012z" /></clipPath><clipPath id="9"><path id="" clip-rule="evenodd" transform="matrix(1 0 0 1 0 0)" d="M0 -0.25L595.5 -0.25L595.5 -0.25L595.5 842.0012L595.5 842.0012L0 842.0012z" /></clipPath><clipPath id="10"><path id="" clip-rule="evenodd" transform="matrix(1 0 0 1 0 0)" d="M-96.76008 219.8103L-318.4392 -1.867676L-318.4392 -1.867676L-98.35104 -221.9546L-98.35104 -221.9546L123.3269 -0.2767334L123.3269 -0.2767334L-96.76008 219.8103z" /></clipPath><clipPath id="11"><path id="" clip-rule="evenodd" transform="matrix(1 0 0 1 0 0)" d="M-96.76008 219.8103L-318.4392 -1.867676L-318.4392 -1.867676L-98.35104 -221.9546L-98.35104 -221.9546L123.3269 -0.2767334L123.3269 -0.2767334L-96.76008 219.8103z" /></clipPath><clipPath id="12"><path id="" clip-rule="evenodd" transform="matrix(1 0 0 1 0 0)" d="M0 -0.25L595.5 -0.25L595.5 -0.25L595.5 842.0012L595.5 842.0012L0 842.0012z" /></clipPath><clipPath id="13"><path id="" clip-rule="evenodd" transform="matrix(1 0 0 1 0 0)" d="M0 -0.25L595.5 -0.25L595.5 -0.25L595.5 842.0012L595.5 842.0012L0 842.0012z" /></clipPath><clipPath id="14"><path id="" clip-rule="evenodd" transform="matrix(1 0 0 1 0 0)" d="M46.22688 198.4985L293.7605 198.4985L293.7605 198.4985L293.7605 449.901L293.7605 449.901L46.22688 449.901z" /></clipPath><clipPath id="15"><path id="" clip-rule="evenodd" transform="matrix(1 0 0 1 0 0)" d="M73.97688 198.4985L266.0112 198.4985C 273.3696 198.4985 280.428 201.422 285.6336 206.6262C 290.8368 211.8303 293.76 218.8887 293.76 226.2485L293.76 226.2485L293.76 421.5932C 293.76 428.954 290.8368 436.0124 285.6336 441.2156C 280.428 446.4188 273.3696 449.3444 266.0112 449.3444L266.0112 449.3444L73.97688 449.3444C 66.61704 449.3444 59.55888 446.4188 54.35472 441.2156C 49.15056 436.0124 46.22688 428.954 46.22688 421.5932L46.22688 421.5932L46.22688 226.2485C 46.22688 218.8887 49.15056 211.8303 54.35472 206.6262C 59.55888 201.422 66.61704 198.4985 73.97688 198.4985z" /></clipPath><clipPath id="16"><path id="" clip-rule="evenodd" transform="matrix(1 0 0 1 0 0)" d="M47.37336 411.0308L285.1234 411.0308L285.1234 411.0308L285.1234 416.2808L285.1234 416.2808L47.37336 416.2808z" /></clipPath><clipPath id="17"><path id="" clip-rule="evenodd" transform="matrix(1 0 0 1 0 0)" d="M47.28 411.11L285.36 411.11L285.36 411.11L285.36 416.39L285.36 416.39L47.28 416.39z" /></clipPath><mask id="m1"><clipPath id="18"><path id="" clip-rule="evenodd" transform="matrix(1 0 0 1 0 0)" d="M47.28 411.11L285.36 411.11L285.36 411.11L285.36 416.39L285.36 416.39L47.28 416.39z" /></clipPath><g><g><g clip-path="url(#18)"><path id="16" transform="matrix(1 0 0 -1 0 842)" d="M47.28 430.89L285.36 430.89L285.36 425.61L47.28 425.61z" stroke="none" fill="#000000" fill-rule="nonzero" /></g></g></g></mask><clipPath id="19"><path id="" clip-rule="evenodd" transform="matrix(1 0 0 1 0 0)" d="M47.28 411.11L285.36 411.11L285.36 411.11L285.36 416.39L285.36 416.39L47.28 416.39z" /></clipPath><clipPath id="20"><path id="" clip-rule="evenodd" transform="matrix(1 0 0 1 0 0)" d="M47.04 411.1139L285.6 411.1139L285.6 411.1139L285.6 416.3751L285.6 416.3751L47.04 416.3751z" /></clipPath><mask id="m2"><clipPath id="21"><path id="" clip-rule="evenodd" transform="matrix(1 0 0 1 0 0)" d="M47.28 411.11L285.36 411.11L285.36 411.11L285.36 416.39L285.36 416.39L47.28 416.39z" /></clipPath><clipPath id="22"><path id="" clip-rule="evenodd" transform="matrix(1 0 0 1 0 0)" d="M47.28 411.11L285.36 411.11L285.36 411.11L285.36 416.39L285.36 416.39L47.28 416.39z" /></clipPath><clipPath id="23"><path id="" clip-rule="evenodd" transform="matrix(1 0 0 1 0 0)" d="M47.39594 411.1139L285.1113 411.1139L285.1113 411.1139L285.1113 416.1647L285.1113 416.1647L47.39594 416.1647z" /></clipPath><g><g><g clip-path="url(#21)"><g><g clip-path="url(#22)"><g clip-path="url(#23)"><g transform="matrix(0.24 0 0 0.24 47.28 411.11)"><g transform="matrix(1 0 0 1 0 0)"><image x="0" y="0" xlink:href="img_02.png" width="991" height="22" /></g></g></g></g></g></g></g></g></mask><clipPath id="24"><path id="" clip-rule="evenodd" transform="matrix(1 0 0 1 0 0)" d="M47.28 411.11L285.36 411.11L285.36 411.11L285.36 416.39L285.36 416.39L47.28 416.39z" /></clipPath><clipPath id="25"><path id="" clip-rule="evenodd" transform="matrix(1 0 0 1 0 0)" d="M47.04 411.1139L285.6 411.1139L285.6 411.1139L285.6 416.3751L285.6 416.3751L47.04 416.3751z" /></clipPath><clipPath id="26"><path id="" clip-rule="evenodd" transform="matrix(1 0 0 1 0 0)" d="M0 -0.25L595.5 -0.25L595.5 -0.25L595.5 842.0012L595.5 842.0012L0 842.0012z" /></clipPath><clipPath id="27"><path id="" clip-rule="evenodd" transform="matrix(1 0 0 1 0 0)" d="M0 -0.25L595.5 -0.25L595.5 -0.25L595.5 842.0012L595.5 842.0012L0 842.0012z" /></clipPath><clipPath id="28"><path id="" clip-rule="evenodd" transform="matrix(1 0 0 1 0 0)" d="M66.2844 277.1468L282.6165 277.1468L282.6165 277.1468L282.6165 401.0417L282.6165 401.0417L66.2844 401.0417z" /></clipPath><clipPath id="29"><path id="" clip-rule="evenodd" transform="matrix(1 0 0 1 0 0)" d="M79.0344 277.1468L269.8128 277.1468C 273.1944 277.1468 276.4392 278.4908 278.8296 280.8812C 281.22 283.2716 282.564 286.5164 282.564 289.8979L282.564 289.8979L282.564 388.2932C 282.564 391.6748 281.22 394.9172 278.8296 397.3076C 276.4392 399.698 273.1944 401.042 269.8128 401.042L269.8128 401.042L79.0344 401.042C 75.6528 401.042 72.40992 399.698 70.0188 397.3076C 67.62768 394.9172 66.2844 391.6748 66.2844 388.2932L66.2844 388.2932L66.2844 289.8979C 66.2844 286.5164 67.62768 283.2716 70.0188 280.8812C 72.40992 278.4908 75.6528 277.1468 79.0344 277.1468z" /></clipPath><clipPath id="30"><path id="" clip-rule="evenodd" transform="matrix(1 0 0 1 0 0)" d="M66.2844 277.1468L282.6165 277.1468L282.6165 277.1468L282.6165 401.0417L282.6165 401.0417L66.2844 401.0417z" /></clipPath><clipPath id="31"><path id="" clip-rule="evenodd" transform="matrix(1 0 0 1 0 0)" d="M0 -0.25L595.5 -0.25L595.5 -0.25L595.5 842.0012L595.5 842.0012L0 842.0012z" /></clipPath><clipPath id="32"><path id="" clip-rule="evenodd" transform="matrix(1 0 0 1 0 0)" d="M0 -0.25L595.5 -0.25L595.5 -0.25L595.5 842.0012L595.5 842.0012L0 842.0012z" /></clipPath><clipPath id="33"><path id="" clip-rule="evenodd" transform="matrix(1 0 0 1 0 0)" d="M0 -0.25L595.5 -0.25L595.5 -0.25L595.5 842.0012L595.5 842.0012L0 842.0012z" /></clipPath><clipPath id="34"><path id="" clip-rule="evenodd" transform="matrix(1 0 0 1 0 0)" d="M321.0744 110.5049L568.788 110.5049L568.788 110.5049L568.788 356.2986L568.788 356.2986L321.0744 356.2986z" /></clipPath><clipPath id="35"><path id="" clip-rule="evenodd" transform="matrix(1 0 0 1 0 0)" d="M348.8256 110.5049L540.8592 110.5049C 548.2176 110.5049 555.2759 113.4286 560.4816 118.6328C 565.6848 123.837 568.608 130.8954 568.608 138.2549L568.608 138.2549L568.608 328.5476C 568.608 335.9084 565.6848 342.9668 560.4816 348.17C 555.2759 353.3756 548.2176 356.2988 540.8592 356.2988L540.8592 356.2988L348.8256 356.2988C 341.4648 356.2988 334.4064 353.3756 329.2032 348.17C 323.9976 342.9668 321.0744 335.9084 321.0744 328.5476L321.0744 328.5476L321.0744 138.2549C 321.0744 130.8954 323.9976 123.837 329.2032 118.6328C 334.4064 113.4286 341.4648 110.5049 348.8256 110.5049z" /></clipPath><clipPath id="36"><path id="" clip-rule="evenodd" transform="matrix(1 0 0 1 0 0)" d="M325.7856 323.9108L563.5356 323.9108L563.5356 323.9108L563.5356 329.1608L563.5356 329.1608L325.7856 329.1608z" /></clipPath><clipPath id="37"><path id="" clip-rule="evenodd" transform="matrix(1 0 0 1 0 0)" d="M325.68 323.9901L563.76 323.9901L563.76 323.9901L563.76 329.2701L563.76 329.2701L325.68 329.2701z" /></clipPath><mask id="m3"><clipPath id="38"><path id="" clip-rule="evenodd" transform="matrix(1 0 0 1 0 0)" d="M325.68 323.9901L563.76 323.9901L563.76 323.9901L563.76 329.2701L563.76 329.2701L325.68 329.2701z" /></clipPath><g><g><g clip-path="url(#38)"><path id="101" transform="matrix(1 0 0 -1 0 842)" d="M325.68 518.0099L563.76 518.0099L563.76 512.7299L325.68 512.7299z" stroke="none" fill="#000000" fill-rule="nonzero" /></g></g></g></mask><clipPath id="39"><path id="" clip-rule="evenodd" transform="matrix(1 0 0 1 0 0)" d="M325.68 323.9901L563.76 323.9901L563.76 323.9901L563.76 329.2701L563.76 329.2701L325.68 329.2701z" /></clipPath><clipPath id="40"><path id="" clip-rule="evenodd" transform="matrix(1 0 0 1 0 0)" d="M325.44 323.9926L564 323.9926L564 323.9926L564 329.2538L564 329.2538L325.44 329.2538z" /></clipPath><mask id="m4"><clipPath id="41"><path id="" clip-rule="evenodd" transform="matrix(1 0 0 1 0 0)" d="M325.68 323.9901L563.76 323.9901L563.76 323.9901L563.76 329.2701L563.76 329.2701L325.68 329.2701z" /></clipPath><clipPath id="42"><path id="" clip-rule="evenodd" transform="matrix(1 0 0 1 0 0)" d="M325.68 323.9901L563.76 323.9901L563.76 323.9901L563.76 329.2701L563.76 329.2701L325.68 329.2701z" /></clipPath><clipPath id="43"><path id="" clip-rule="evenodd" transform="matrix(1 0 0 1 0 0)" d="M325.809 323.9926L563.5243 323.9926L563.5243 323.9926L563.5243 329.0434L563.5243 329.0434L325.809 329.0434z" /></clipPath><g><g><g clip-path="url(#41)"><g><g clip-path="url(#42)"><g clip-path="url(#43)"><g transform="matrix(0.24 0 0 0.24 325.68 323.9901)"><g transform="matrix(1 0 0 1 0 0)"><image x="0" y="0" xlink:href="img_04.png" width="992" height="22" /></g></g></g></g></g></g></g></g></mask><clipPath id="44"><path id="" clip-rule="evenodd" transform="matrix(1 0 0 1 0 0)" d="M325.68 323.9901L563.76 323.9901L563.76 323.9901L563.76 329.2701L563.76 329.2701L325.68 329.2701z" /></clipPath><clipPath id="45"><path id="" clip-rule="evenodd" transform="matrix(1 0 0 1 0 0)" d="M325.44 323.9926L564 323.9926L564 323.9926L564 329.2538L564 329.2538L325.44 329.2538z" /></clipPath><clipPath id="46"><path id="" clip-rule="evenodd" transform="matrix(1 0 0 1 0 0)" d="M0 -0.25L595.5 -0.25L595.5 -0.25L595.5 842.0012L595.5 842.0012L0 842.0012z" /></clipPath><clipPath id="47"><path id="" clip-rule="evenodd" transform="matrix(1 0 0 1 0 0)" d="M0 -0.25L595.5 -0.25L595.5 -0.25L595.5 842.0012L595.5 842.0012L0 842.0012z" /></clipPath><clipPath id="48"><path id="" clip-rule="evenodd" transform="matrix(1 0 0 1 0 0)" d="M336.0192 186.2513L552.6237 186.2513L552.6237 186.2513L552.6237 316.4175L552.6237 316.4175L336.0192 316.4175z" /></clipPath><clipPath id="49"><path id="" clip-rule="evenodd" transform="matrix(1 0 0 1 0 0)" d="M348.768 186.2513L539.5488 186.2513C 542.9304 186.2513 546.1728 187.5946 548.5632 189.9857C 550.9536 192.3769 552.2976 195.6198 552.2976 199.0013L552.2976 199.0013L552.2976 303.6667C 552.2976 307.0484 550.9536 310.2932 548.5632 312.6836C 546.1728 315.074 542.9304 316.418 539.5488 316.418L539.5488 316.418L348.768 316.418C 345.3864 316.418 342.144 315.074 339.7536 312.6836C 337.3608 310.2932 336.0192 307.0484 336.0192 303.6667L336.0192 303.6667L336.0192 199.0013C 336.0192 195.6198 337.3608 192.3769 339.7536 189.9857C 342.144 187.5946 345.3864 186.2513 348.768 186.2513z" /></clipPath><clipPath id="50"><path id="" clip-rule="evenodd" transform="matrix(1 0 0 1 0 0)" d="M336.0192 186.2513L552.1154 186.2513L552.1154 186.2513L552.1154 316.4175L552.1154 316.4175L336.0192 316.4175z" /></clipPath><clipPath id="51"><path id="" clip-rule="evenodd" transform="matrix(1 0 0 1 0 0)" d="M0 -0.25L595.5 -0.25L595.5 -0.25L595.5 842.0012L595.5 842.0012L0 842.0012z" /></clipPath><clipPath id="52"><path id="" clip-rule="evenodd" transform="matrix(1 0 0 1 0 0)" d="M0 -0.25L595.5 -0.25L595.5 -0.25L595.5 842.0012L595.5 842.0012L0 842.0012z" /></clipPath><clipPath id="53"><path id="" clip-rule="evenodd" transform="matrix(1 0 0 1 0 0)" d="M0 -0.25L595.5 -0.25L595.5 -0.25L595.5 842.0012L595.5 842.0012L0 842.0012z" /></clipPath><clipPath id="54"><path id="" clip-rule="evenodd" transform="matrix(1 0 0 1 0 0)" d="M317.5104 388.7492L565.044 388.7492L565.044 388.7492L565.044 649.8212L565.044 649.8212L317.5104 649.8212z" /></clipPath><clipPath id="55"><path id="" clip-rule="evenodd" transform="matrix(1 0 0 1 0 0)" d="M345.2592 388.7492L537.2928 388.7492C 544.6536 388.7492 551.712 391.6724 556.9152 396.878C 562.1183 402.0812 565.044 409.1396 565.044 416.5004L565.044 416.5004L565.044 621.4148C 565.044 628.7756 562.1183 635.834 556.9152 641.0372C 551.712 646.2428 544.6536 649.166 537.2928 649.166L537.2928 649.166L345.2592 649.166C 337.8984 649.166 330.8424 646.2428 325.6368 641.0372C 320.4336 635.834 317.5104 628.7756 317.5104 621.4148L317.5104 621.4148L317.5104 416.5004C 317.5104 409.1396 320.4336 402.0812 325.6368 396.878C 330.8424 391.6724 337.8984 388.7492 345.2592 388.7492z" /></clipPath><clipPath id="56"><path id="" clip-rule="evenodd" transform="matrix(1 0 0 1 0 0)" d="M322.2216 615.5804L559.9716 615.5804L559.9716 615.5804L559.9716 620.8304L559.9716 620.8304L322.2216 620.8304z" /></clipPath><clipPath id="57"><path id="" clip-rule="evenodd" transform="matrix(1 0 0 1 0 0)" d="M322.08 615.59L560.16 615.59L560.16 615.59L560.16 620.87L560.16 620.87L322.08 620.87z" /></clipPath><mask id="m5"><clipPath id="58"><path id="" clip-rule="evenodd" transform="matrix(1 0 0 1 0 0)" d="M322.08 615.59L560.16 615.59L560.16 615.59L560.16 620.87L560.16 620.87L322.08 620.87z" /></clipPath><g><g><g clip-path="url(#58)"><path id="175" transform="matrix(1 0 0 -1 0 842)" d="M322.08 226.41L560.16 226.41L560.16 221.13L322.08 221.13z" stroke="none" fill="#000000" fill-rule="nonzero" /></g></g></g></mask><clipPath id="59"><path id="" clip-rule="evenodd" transform="matrix(1 0 0 1 0 0)" d="M322.08 615.59L560.16 615.59L560.16 615.59L560.16 620.87L560.16 620.87L322.08 620.87z" /></clipPath><clipPath id="60"><path id="" clip-rule="evenodd" transform="matrix(1 0 0 1 0 0)" d="M321.84 615.6625L560.4 615.6625L560.4 615.6625L560.4 620.9238L560.4 620.9238L321.84 620.9238z" /></clipPath><mask id="m6"><clipPath id="61"><path id="" clip-rule="evenodd" transform="matrix(1 0 0 1 0 0)" d="M322.08 615.59L560.16 615.59L560.16 615.59L560.16 620.87L560.16 620.87L322.08 620.87z" /></clipPath><clipPath id="62"><path id="" clip-rule="evenodd" transform="matrix(1 0 0 1 0 0)" d="M322.08 615.59L560.16 615.59L560.16 615.59L560.16 620.87L560.16 620.87L322.08 620.87z" /></clipPath><clipPath id="63"><path id="" clip-rule="evenodd" transform="matrix(1 0 0 1 0 0)" d="M322.2437 615.6625L559.959 615.6625L559.959 615.6625L559.959 620.7133L559.959 620.7133L322.2437 620.7133z" /></clipPath><g><g><g clip-path="url(#61)"><g><g clip-path="url(#62)"><g clip-path="url(#63)"><g transform="matrix(0.24 0 0 0.24 322.08 615.59)"><g transform="matrix(1 0 0 1 0 0)"><image x="0" y="0" xlink:href="img_06.png" width="992" height="22" /></g></g></g></g></g></g></g></g></mask><clipPath id="64"><path id="" clip-rule="evenodd" transform="matrix(1 0 0 1 0 0)" d="M322.08 615.59L560.16 615.59L560.16 615.59L560.16 620.87L560.16 620.87L322.08 620.87z" /></clipPath><clipPath id="65"><path id="" clip-rule="evenodd" transform="matrix(1 0 0 1 0 0)" d="M321.84 615.6625L560.4 615.6625L560.4 615.6625L560.4 620.9238L560.4 620.9238L321.84 620.9238z" /></clipPath><clipPath id="66"><path id="" clip-rule="evenodd" transform="matrix(1 0 0 1 0 0)" d="M0 -0.25L595.5 -0.25L595.5 -0.25L595.5 842.0012L595.5 842.0012L0 842.0012z" /></clipPath><clipPath id="67"><path id="" clip-rule="evenodd" transform="matrix(1 0 0 1 0 0)" d="M0 -0.25L595.5 -0.25L595.5 -0.25L595.5 842.0012L595.5 842.0012L0 842.0012z" /></clipPath><clipPath id="68"><path id="" clip-rule="evenodd" transform="matrix(1 0 0 1 0 0)" d="M336.0192 455.8004L552.3405 455.8004L552.3405 455.8004L552.3405 607.5216L552.3405 607.5216L336.0192 607.5216z" /></clipPath><clipPath id="69"><path id="" clip-rule="evenodd" transform="matrix(1 0 0 1 0 0)" d="M348.768 455.8004L539.5488 455.8004C 542.9304 455.8004 546.1728 457.1444 548.5632 459.5348C 550.9536 461.9252 552.2976 465.1676 552.2976 468.5492L552.2976 468.5492L552.2976 594.7724C 552.2976 598.154 550.9536 601.3964 548.5632 603.7868C 546.1728 606.1772 542.9304 607.5212 539.5488 607.5212L539.5488 607.5212L348.768 607.5212C 345.3864 607.5212 342.144 606.1772 339.7536 603.7868C 337.3608 601.3964 336.0192 598.154 336.0192 594.7724L336.0192 594.7724L336.0192 468.5492C 336.0192 465.1676 337.3608 461.9252 339.7536 459.5348C 342.144 457.1444 345.3864 455.8004 348.768 455.8004z" /></clipPath><clipPath id="70"><path id="" clip-rule="evenodd" transform="matrix(1 0 0 1 0 0)" d="M336.0192 455.8004L552.3405 455.8004L552.3405 455.8004L552.3405 607.5216L552.3405 607.5216L336.0192 607.5216z" /></clipPath><clipPath id="71"><path id="" clip-rule="evenodd" transform="matrix(1 0 0 1 0 0)" d="M0 -0.25L595.5 -0.25L595.5 -0.25L595.5 842.0012L595.5 842.0012L0 842.0012z" /></clipPath><clipPath id="72"><path id="" clip-rule="evenodd" transform="matrix(1 0 0 1 0 0)" d="M0 -0.25L595.5 -0.25L595.5 -0.25L595.5 842.0012L595.5 842.0012L0 842.0012z" /></clipPath><clipPath id="73"><path id="" clip-rule="evenodd" transform="matrix(1 0 0 1 0 0)" d="M0 -0.25L595.5 -0.25L595.5 -0.25L595.5 842.0012L595.5 842.0012L0 842.0012z" /></clipPath><clipPath id="74"><path id="" clip-rule="evenodd" transform="matrix(1 0 0 1 0 0)" d="M41.51496 508.0868L289.0486 508.0868L289.0486 508.0868L289.0486 820.4059L289.0486 820.4059L41.51496 820.4059z" /></clipPath><clipPath id="75"><path id="" clip-rule="evenodd" transform="matrix(1 0 0 1 0 0)" d="M69.26496 508.0868L261.3 508.0868C 268.6584 508.0868 275.7168 511.01 280.92 516.2132C 286.1256 521.4164 289.0488 528.4748 289.0488 535.8356L289.0488 535.8356L289.0488 792.1868C 289.0488 799.5452 286.1256 806.6036 280.92 811.8092C 275.7168 817.0124 268.6584 819.9355 261.3 819.9355L261.3 819.9355L69.26496 819.9355C 61.90536 819.9355 54.84696 817.0124 49.6428 811.8092C 44.43864 806.6036 41.51496 799.5452 41.51496 792.1868L41.51496 792.1868L41.51496 535.8356C 41.51496 528.4748 44.43864 521.4164 49.6428 516.2132C 54.84696 511.01 61.90536 508.0868 69.26496 508.0868z" /></clipPath><clipPath id="76"><path id="" clip-rule="evenodd" transform="matrix(1 0 0 1 0 0)" d="M46.22688 785.2556L283.9769 785.2556L283.9769 785.2556L283.9769 790.5056L283.9769 790.5056L46.22688 790.5056z" /></clipPath><clipPath id="77"><path id="" clip-rule="evenodd" transform="matrix(1 0 0 1 0 0)" d="M46.08 785.27L284.16 785.27L284.16 785.27L284.16 790.55L284.16 790.55L46.08 790.55z" /></clipPath><mask id="m7"><clipPath id="78"><path id="" clip-rule="evenodd" transform="matrix(1 0 0 1 0 0)" d="M46.08 785.27L284.16 785.27L284.16 785.27L284.16 790.55L284.16 790.55L46.08 790.55z" /></clipPath><g><g><g clip-path="url(#78)"><path id="272" transform="matrix(1 0 0 -1 0 842)" d="M46.08 56.73001L284.16 56.73001L284.16 51.45002L46.08 51.45002z" stroke="none" fill="#000000" fill-rule="nonzero" /></g></g></g></mask><clipPath id="79"><path id="" clip-rule="evenodd" transform="matrix(1 0 0 1 0 0)" d="M46.08 785.27L284.16 785.27L284.16 785.27L284.16 790.55L284.16 790.55L46.08 790.55z" /></clipPath><clipPath id="80"><path id="" clip-rule="evenodd" transform="matrix(1 0 0 1 0 0)" d="M45.84 785.3383L284.4 785.3383L284.4 785.3383L284.4 790.5995L284.4 790.5995L45.84 790.5995z" /></clipPath><mask id="m8"><clipPath id="81"><path id="" clip-rule="evenodd" transform="matrix(1 0 0 1 0 0)" d="M46.08 785.27L284.16 785.27L284.16 785.27L284.16 790.55L284.16 790.55L46.08 790.55z" /></clipPath><clipPath id="82"><path id="" clip-rule="evenodd" transform="matrix(1 0 0 1 0 0)" d="M46.08 785.27L284.16 785.27L284.16 785.27L284.16 790.55L284.16 790.55L46.08 790.55z" /></clipPath><clipPath id="83"><path id="" clip-rule="evenodd" transform="matrix(1 0 0 1 0 0)" d="M46.24939 785.3383L283.9648 785.3383L283.9648 785.3383L283.9648 790.389L283.9648 790.389L46.24939 790.389z" /></clipPath><g><g><g clip-path="url(#81)"><g><g clip-path="url(#82)"><g clip-path="url(#83)"><g transform="matrix(0.24 0 0 0.24 46.08 785.27)"><g transform="matrix(1 0 0 1 0 0)"><image x="0" y="0" xlink:href="img_08.png" width="992" height="22" /></g></g></g></g></g></g></g></g></mask><clipPath id="84"><path id="" clip-rule="evenodd" transform="matrix(1 0 0 1 0 0)" d="M46.08 785.27L284.16 785.27L284.16 785.27L284.16 790.55L284.16 790.55L46.08 790.55z" /></clipPath><clipPath id="85"><path id="" clip-rule="evenodd" transform="matrix(1 0 0 1 0 0)" d="M45.84 785.3383L284.4 785.3383L284.4 785.3383L284.4 790.5995L284.4 790.5995L45.84 790.5995z" /></clipPath><clipPath id="86"><path id="" clip-rule="evenodd" transform="matrix(1 0 0 1 0 0)" d="M0 -0.25L595.5 -0.25L595.5 -0.25L595.5 842.0012L595.5 842.0012L0 842.0012z" /></clipPath><clipPath id="87"><path id="" clip-rule="evenodd" transform="matrix(1 0 0 1 0 0)" d="M0 -0.25L595.5 -0.25L595.5 -0.25L595.5 842.0012L595.5 842.0012L0 842.0012z" /></clipPath><clipPath id="88"><path id="" clip-rule="evenodd" transform="matrix(1 0 0 1 0 0)" d="M56.73816 600.6572L273.2424 600.6572L273.2424 600.6572L273.2424 767.6002L273.2424 767.6002L56.73816 767.6002z" /></clipPath><clipPath id="89"><path id="" clip-rule="evenodd" transform="matrix(1 0 0 1 0 0)" d="M69.48816 600.6572L260.268 600.6572C 263.6496 600.6572 266.892 601.9988 269.2824 604.3916C 271.6752 606.782 273.0168 610.0244 273.0168 613.4059L273.0168 613.4059L273.0168 754.85C 273.0168 758.2316 271.6752 761.474 269.2824 763.8644C 266.892 766.2548 263.6496 767.5988 260.268 767.5988L260.268 767.5988L69.48816 767.5988C 66.10656 767.5988 62.86368 766.2548 60.47256 763.8644C 58.08144 761.474 56.73816 758.2316 56.73816 754.85L56.73816 754.85L56.73816 613.4059C 56.73816 610.0244 58.08144 606.782 60.47256 604.3916C 62.86368 601.9988 66.10656 600.6572 69.48816 600.6572z" /></clipPath><clipPath id="90"><path id="" clip-rule="evenodd" transform="matrix(1 0 0 1 0 0)" d="M56.73816 600.6572L273.2424 600.6572L273.2424 600.6572L273.2424 767.6002L273.2424 767.6002L56.73816 767.6002z" /></clipPath><clipPath id="91"><path id="" clip-rule="evenodd" transform="matrix(1 0 0 1 0 0)" d="M0 -0.25L595.5 -0.25L595.5 -0.25L595.5 842.0012L595.5 842.0012L0 842.0012z" /></clipPath><clipPath id="92"><path id="" clip-rule="evenodd" transform="matrix(1 0 0 1 0 0)" d="M113.8867 -0.25L294.8563 -0.25L294.8563 -0.25L294.8563 161.5421L294.8563 161.5421L113.8867 161.5421z" /></clipPath><clipPath id="93"><path id="" clip-rule="evenodd" transform="matrix(1 0 0 1 0 0)" d="M0 -0.25L595.5 -0.25L595.5 -0.25L595.5 842.0012L595.5 842.0012L0 842.0012z" /></clipPath><clipPath id="94"><path id="" clip-rule="evenodd" transform="matrix(1 0 0 1 0 0)" d="M485.9664 11.97992L585.7164 11.97992L585.7164 11.97992L585.7164 68.22992L585.7164 68.22992L485.9664 68.22992z" /></clipPath></defs><g transform="matrix(1.333333 0 0 1.333333 0 0)"><g clip-path="url(#1)"><g clip-path="url(#2)"><path id="1" transform="matrix(1 0 0 -1 0 842)" d="M0 842.25L595.4999 842.25L595.4999 0L0 0z" stroke="none" fill="#FFFFFF" fill-rule="nonzero" /></g><g clip-path="url(#3)"><path id="2" transform="matrix(1 0 0 -1 0 842)" d="M0 842.25L595.4999 842.25L595.4999 0L0 0z" stroke="none" fill="#FFFFFF" fill-rule="nonzero" /></g><g clip-path="url(#4)"><g><g clip-path="url(#5)"><g clip-path="url(#6)"><g transform="matrix(0 0.975 -0.9768211 0 522.0178 30.75183)"><g transform="matrix(1 0 0 1 0 0)"><image x="0" y="0" xlink:href="img_01.png" width="800" height="453" /></g></g></g></g></g></g><g clip-path="url(#7)"><path id="4" transform="matrix(1 0 0 -1 0 842)" d="M447.9169 810.669C 447.9169 811.4714 447.8572 812.2594 447.7428 813.0295L447.7428 813.0295L451.5372 814.3595L451.5372 814.3595L449.5128 820.1343L449.5128 820.1343L445.6962 818.7964C 445.087 819.825 444.3663 820.7798 443.5499 821.6433L443.5499 821.6433L445.9493 824.9321L445.9493 824.9321L441.0056 828.5383L441.0056 828.5383L438.5745 825.2054C 437.3923 825.7458 436.1332 826.1464 434.8176 826.3852L434.8176 826.3852L434.8176 830.5556L434.8176 830.5556L428.6986 830.5556L428.6986 830.5556L428.6986 826.3147C 427.4945 826.0657 426.3405 825.6815 425.2516 825.179L425.2516 825.179L422.7808 828.6758L422.7808 828.6758L417.7834 825.1445L417.7834 825.1445L420.29 821.5968C 419.5497 820.8079 418.8886 819.9441 418.3195 819.0171L418.3195 819.0171L414.2363 820.5601L414.2363 820.5601L412.0733 814.8359L412.0733 814.8359L416.1802 813.2841C 416.04 812.4323 415.966 811.5598 415.966 810.6687C 415.966 809.9085 416.0204 809.1617 416.1231 808.4305L416.1231 808.4305L411.9785 806.9779L411.9785 806.9779L414.0025 801.2031L414.0025 801.2031L418.1234 802.6478C 418.6946 801.6663 419.3668 800.7507 420.127 799.9159L420.127 799.9159L417.5663 796.4056L417.5663 796.4056L422.5101 792.7994L422.5101 792.7994L425.0342 796.2596C 426.1857 795.7063 427.4141 795.2878 428.6984 795.0231L428.6984 795.0231L428.6984 790.7819L428.6984 790.7819L434.8173 790.7819L434.8173 790.7819L434.8173 794.9522C 436.0512 795.1761 437.2352 795.543 438.3527 796.0334L438.3527 796.0334L440.7349 792.6616L440.7349 792.6616L445.7319 796.1935L445.7319 796.1935L443.3813 799.5203C 444.1769 800.3364 444.886 801.2371 445.4931 802.2086L445.4931 802.2086L449.279 800.778L449.279 800.778L451.4418 806.5015L451.4418 806.5015L447.6805 807.9231C 447.8355 808.8156 447.9169 809.7318 447.9169 810.669z" stroke="none" fill="#1D70B7" fill-rule="nonzero" /><path id="5" transform="matrix(1 0 0 -1 0 842)" d="M440.2351 810.669C 440.2351 810.1124 440.1807 809.5612 440.0721 809.0151C 439.9636 808.4694 439.8029 807.9392 439.5899 807.425C 439.3769 806.9106 439.1155 806.4222 438.8065 805.9594C 438.4973 805.4967 438.1458 805.0683 437.7522 804.6747C 437.3587 804.2812 436.9303 803.9297 436.4677 803.6204C 436.0047 803.3114 435.5164 803.0501 435.0019 802.8371C 434.4878 802.6241 433.9576 802.4634 433.4118 802.3549C 432.8658 802.2463 432.3145 802.1919 431.758 802.1919C 431.2014 802.1919 430.6501 802.2463 430.1041 802.3549C 429.5583 802.4634 429.0281 802.6241 428.514 802.8371C 427.9996 803.0501 427.5112 803.3114 427.0483 803.6204C 426.5854 803.9297 426.1573 804.2812 425.7637 804.6747C 425.3701 805.0683 425.0187 805.4967 424.7094 805.9594C 424.4004 806.4222 424.1391 806.9106 423.9261 807.425C 423.713 807.9392 423.5524 808.4694 423.4438 809.0151C 423.3353 809.5612 423.2808 810.1124 423.2808 810.669C 423.2808 811.2256 423.3353 811.7769 423.4438 812.3229C 423.5524 812.8686 423.713 813.3989 423.9261 813.913C 424.1391 814.4274 424.4004 814.9158 424.7094 815.3787C 425.0187 815.8413 425.3701 816.2697 425.7637 816.6633C 426.1573 817.0568 426.5854 817.4083 427.0483 817.7176C 427.5112 818.0266 427.9996 818.2879 428.514 818.5009C 429.0281 818.7139 429.5583 818.8746 430.1041 818.9832C 430.6501 819.0917 431.2014 819.1461 431.758 819.1461C 432.3145 819.1461 432.8658 819.0917 433.4118 818.9832C 433.9576 818.8746 434.4878 818.7139 435.0019 818.5009C 435.5164 818.2879 436.0047 818.0269 436.4677 817.7176C 436.9303 817.4083 437.3587 817.0568 437.7522 816.6633C 438.1458 816.2697 438.4973 815.8413 438.8065 815.3787C 439.1155 814.9158 439.3769 814.4274 439.5899 813.913C 439.8029 813.3989 439.9636 812.8686 440.0721 812.3229C 440.1807 811.7769 440.2351 811.2256 440.2351 810.669z" stroke="none" fill="#FFFFFF" fill-rule="nonzero" /><path id="6" transform="matrix(1 0 0 -1 0 842)" d="M457.1024 780.3372C 453.3725 780.3372 450.3483 783.3616 450.3483 787.0916C 450.3483 790.8219 453.3725 793.8458 457.1024 793.8458C 460.8327 793.8458 463.8569 790.8219 463.8569 787.0916C 463.8569 783.3616 460.8327 780.3372 457.1024 780.3372zM467.673 787.0916C 467.673 787.6166 467.6338 788.1319 467.5591 788.6358L467.5591 788.6358L470.0414 789.506L470.0414 789.506L468.7173 793.2834L468.7173 793.2834L466.2204 792.4079C 465.8219 793.0812 465.3505 793.7059 464.8167 794.2704L464.8167 794.2704L466.386 796.4218L466.386 796.4218L463.152 798.7811L463.152 798.7811L461.5616 796.6011C 460.7883 796.9546 459.9645 797.2165 459.1039 797.373L459.1039 797.373L459.1039 800.1005L459.1039 800.1005L455.1015 800.1005L455.1015 800.1005L455.1015 797.3262C 454.3138 797.1638 453.5588 796.9122 452.8466 796.5839L452.8466 796.5839L451.2305 798.871L451.2305 798.871L447.9614 796.5613L447.9614 796.5613L449.6012 794.2403C 449.1172 793.7238 448.6844 793.1591 448.3122 792.5527L448.3122 792.5527L445.6412 793.562L445.6412 793.562L444.2267 789.8179L444.2267 789.8179L446.9132 788.802C 446.8216 788.2454 446.7731 787.6743 446.7731 787.0913C 446.7731 786.5936 446.8087 786.1058 446.8758 785.6268L446.8758 785.6268L444.1647 784.6772L444.1647 784.6772L445.4888 780.8993L445.4888 780.8993L448.1844 781.8438C 448.5577 781.2021 448.9978 780.6034 449.495 780.0574L449.495 780.0574L447.8198 777.7612L447.8198 777.7612L451.0538 775.4019L451.0538 775.4019L452.705 777.6658C 453.4582 777.3039 454.2617 777.0297 455.1018 776.8561L455.1018 776.8561L455.1018 774.0825L455.1018 774.0825L459.1042 774.0825L459.1042 774.0825L459.1042 776.8102C 459.9116 776.9568 460.6861 777.1968 461.4171 777.5175L461.4171 777.5175L462.9753 775.312L462.9753 775.312L466.2441 777.6223L466.2441 777.6223L464.7067 779.7985C 465.227 780.3325 465.6908 780.9218 466.0881 781.5568L466.0881 781.5568L468.5646 780.621L468.5646 780.621L469.9794 784.3656L469.9794 784.3656L467.5188 785.2955C 467.6197 785.879 467.673 786.4789 467.673 787.0916z" stroke="none" fill="#D8D4D3" fill-rule="nonzero" /><path id="7" transform="matrix(1 0 0 -1 0 842)" d="M457.1024 793.3563C 453.6484 793.3563 450.8384 790.546 450.8384 787.0919C 450.8384 783.6379 453.6484 780.8273 457.1024 780.8273C 460.5568 780.8273 463.3668 783.6376 463.3668 787.0919C 463.3668 790.5463 460.5568 793.3563 457.1024 793.3563zM457.1024 779.8473C 453.1082 779.8473 449.8584 783.0968 449.8584 787.0916C 449.8584 791.0859 453.1079 794.3357 457.1024 794.3357C 461.097 794.3357 464.3468 791.0862 464.3468 787.0916C 464.3468 783.0971 461.097 779.8473 457.1024 779.8473zM455.5914 774.5726L458.6141 774.5726L458.6141 774.5726L458.6141 776.8105C 458.6141 777.0475 458.7835 777.2503 459.0165 777.2925C 459.7723 777.4297 460.5135 777.6562 461.2202 777.9664C 461.4329 778.06 461.6828 777.9907 461.8171 777.8004L461.8171 777.8004L463.0926 775.995L463.0926 775.995L465.5614 777.7399L465.5614 777.7399L464.3064 779.5157C 464.17 779.7086 464.1908 779.9714 464.3556 780.1402C 464.8524 780.6503 465.2957 781.2144 465.6726 781.8167C 465.7967 782.0142 466.0431 782.0969 466.2611 782.015L466.2611 782.015L468.2793 781.2524L468.2793 781.2524L469.3479 784.0803L469.3479 784.0803L467.3455 784.837C 467.1258 784.9201 466.9958 785.1478 467.0359 785.3793C 467.1334 785.9423 467.1828 786.5187 467.1828 787.0919C 467.1828 787.5829 467.1463 788.0784 467.0743 788.5644C 467.0397 788.7967 467.1752 789.0209 467.397 789.0984L467.397 789.0984L469.417 789.8065L469.417 789.8065L468.4171 792.6593L468.4171 792.6593L466.3825 791.9459C 466.1616 791.8687 465.9178 791.9579 465.7988 792.1589C 465.4207 792.798 464.9703 793.3952 464.4606 793.9342C 464.2982 794.106 464.2815 794.3688 464.4208 794.5595L464.4208 794.5595L465.7013 796.3149L465.7013 796.3149L463.2589 798.097L463.2589 798.097L461.9573 796.3126C 461.8203 796.1248 461.5701 796.0583 461.358 796.1558C 460.6118 796.4966 459.8238 796.7442 459.0162 796.8911C 458.7833 796.9338 458.6138 797.1366 458.6138 797.373L458.6138 797.373L458.6138 799.6107L458.6138 799.6107L455.5911 799.6107L455.5911 799.6107L455.5911 797.3259C 455.5911 797.0936 455.4275 796.8931 455.2001 796.8461C 454.4633 796.6942 453.7406 796.4563 453.0518 796.1385C 452.8367 796.0402 452.5827 796.108 452.4466 796.3009L452.4466 796.3009L451.1129 798.188L451.1129 798.188L448.644 796.4437L448.644 796.4437L450.0009 794.5229C 450.1349 794.3331 450.1171 794.075 449.9582 793.9055C 449.495 793.4113 449.0812 792.8699 448.7292 792.2968C 448.6066 792.0963 448.359 792.0117 448.1387 792.0948L448.1387 792.0948L445.9259 792.9308L445.9259 792.9308L444.8576 790.1033L444.8576 790.1033L447.0859 789.2605C 447.3041 789.1783 447.4338 788.953 447.396 788.723C 447.3074 788.1837 447.2623 787.635 447.2623 787.0919C 447.2623 786.6293 447.2951 786.1594 447.36 785.6956C 447.3925 785.4644 447.257 785.2423 447.037 785.165L447.037 785.165L444.7885 784.3776L444.7885 784.3776L445.7884 781.5243L445.7884 781.5243L448.0217 782.3068C 448.2437 782.384 448.489 782.2936 448.6069 782.0908C 448.9609 781.4824 449.3814 780.9092 449.8567 780.3878C 450.0135 780.2157 450.0273 779.957 449.8903 779.7695L449.8903 779.7695L448.5039 777.8692L448.5039 777.8692L450.9464 776.0872L450.9464 776.0872L452.3088 777.9556C 452.4481 778.1463 452.7038 778.211 452.9169 778.1083C 453.6425 777.7598 454.4109 777.4999 455.2007 777.3369C 455.4284 777.2899 455.5917 777.0894 455.5917 776.8571L455.5917 776.8571L455.5917 774.5726L455.5917 774.5726L455.5914 774.5726zM459.1039 773.5929L455.1015 773.5929C 454.8309 773.5929 454.6117 773.8121 454.6117 774.0828L454.6117 774.0828L454.6117 776.4652C 454.0139 776.6118 453.4289 776.8091 452.8647 777.0546L452.8647 777.0546L451.4494 775.1136C 451.3727 775.0089 451.2577 774.9384 451.1292 774.9182C 451.0011 774.8992 450.8697 774.9302 450.7646 775.0065L450.7646 775.0065L447.5306 777.3659C 447.4259 777.4426 447.3553 777.5576 447.3354 777.686C 447.3153 777.8142 447.3472 777.9456 447.4235 778.0504L447.4235 778.0504L448.8676 780.0296C 448.541 780.4156 448.2411 780.8243 447.9713 781.251L447.9713 781.251L445.6503 780.4378C 445.3951 780.3477 445.1154 780.4825 445.0258 780.738L445.0258 780.738L443.7017 784.516C 443.659 784.6386 443.6663 784.7732 443.7225 784.8903C 443.779 785.0073 443.8794 785.0974 444.0023 785.1401L444.0023 785.1401L446.3414 785.9595C 446.3025 786.3373 446.2826 786.7168 446.2826 787.0919C 446.2826 787.5549 446.3125 788.0213 446.3713 788.4836L446.3713 788.4836L444.0529 789.36C 443.7998 789.4554 443.6725 789.738 443.7679 789.9912L443.7679 789.9912L445.1824 793.7352C 445.2283 793.8567 445.3205 793.955 445.439 794.0085C 445.5575 794.0618 445.6924 794.0665 445.8138 794.0205L445.8138 794.0205L448.1133 793.1515C 448.3751 793.5438 448.6631 793.9208 448.9744 794.2777L448.9744 794.2777L447.5608 796.2787C 447.4859 796.3846 447.456 796.5165 447.478 796.6444C 447.4999 796.7723 447.5719 796.8864 447.6781 796.9613L447.6781 796.9613L450.9472 799.271C 451.1679 799.4269 451.4737 799.3746 451.6299 799.1536L451.6299 799.1536L453.0155 797.1931C 453.534 797.4091 454.068 797.5846 454.6108 797.7178L454.6108 797.7178L454.6108 800.1008C 454.6108 800.3715 454.8303 800.5907 455.1006 800.5907L455.1006 800.5907L459.1031 800.5907C 459.3737 800.5907 459.5929 800.3715 459.5929 800.1008L459.5929 800.1008L459.5929 797.7742C 460.2092 797.6379 460.8128 797.4479 461.3963 797.2072L461.3963 797.2072L462.7555 799.0703C 462.8322 799.1753 462.9472 799.2455 463.0757 799.2657C 463.2047 799.2841 463.3352 799.2537 463.4402 799.1773L463.4402 799.1773L466.6743 796.8179C 466.779 796.7413 466.8495 796.6263 466.8694 796.4978C 466.8896 796.3696 466.8577 796.2383 466.7814 796.1335L466.7814 796.1335L465.4473 794.3052C 465.8064 793.8959 466.1353 793.459 466.4296 793.001L466.4296 793.001L468.5546 793.7463C 468.6772 793.7891 468.8118 793.7815 468.9292 793.7256C 469.0462 793.6694 469.1364 793.5687 469.1791 793.4461L469.1791 793.4461L470.5032 789.6687C 470.5459 789.5461 470.5386 789.4115 470.4824 789.2944C 470.4262 789.1774 470.3256 789.0876 470.2029 789.0446L470.2029 789.0446L468.0952 788.306C 468.1397 787.9031 468.1622 787.4963 468.1622 787.0928C 468.1622 786.5992 468.1289 786.1035 468.0627 785.6142L468.0627 785.6142L470.1517 784.825C 470.4048 784.7293 470.5324 784.4467 470.4367 784.1935L470.4367 784.1935L469.0219 780.4489C 468.976 780.3275 468.8838 780.2292 468.7653 780.1756C 468.6471 780.1221 468.5122 780.118 468.3905 780.1636L468.3905 780.1636L466.2824 780.9604C 465.996 780.5381 465.6794 780.1353 465.3364 779.756L465.3364 779.756L466.6432 777.9064C 466.7995 777.6854 466.7468 777.3796 466.5259 777.2237L466.5259 777.2237L463.2571 774.9135C 463.1508 774.8386 463.0198 774.8084 462.8913 774.8309C 462.7632 774.8529 462.6493 774.9246 462.5744 775.0311L462.5744 775.0311L461.2424 776.9161C 460.7063 776.704 460.1542 776.5349 459.5932 776.4108L459.5932 776.4108L459.5932 774.0839C 459.5938 773.8121 459.3743 773.5929 459.1039 773.5929z" stroke="none" fill="#321019" fill-rule="nonzero" /><path id="8" transform="matrix(1 0 0 -1 0 842)" d="M447.9169 810.669C 447.9169 811.4714 447.8572 812.2594 447.7428 813.0295L447.7428 813.0295L451.5372 814.3595L451.5372 814.3595L449.5128 820.1343L449.5128 820.1343L445.6962 818.7964C 445.087 819.825 444.3663 820.7798 443.5499 821.6433L443.5499 821.6433L445.9493 824.9321L445.9493 824.9321L441.0056 828.5383L441.0056 828.5383L438.5745 825.2054C 437.3923 825.7458 436.1332 826.1464 434.8176 826.3852L434.8176 826.3852L434.8176 830.5556L434.8176 830.5556L428.6986 830.5556L428.6986 830.5556L428.6986 826.3147C 427.4945 826.0657 426.3405 825.6815 425.2516 825.179L425.2516 825.179L422.7808 828.6758L422.7808 828.6758L417.7834 825.1445L417.7834 825.1445L420.29 821.5968C 419.5497 820.8079 418.8886 819.9441 418.3195 819.0171L418.3195 819.0171L414.2363 820.5601L414.2363 820.5601L412.0733 814.8359L412.0733 814.8359L416.1802 813.2841C 416.04 812.4323 415.966 811.5598 415.966 810.6687C 415.966 809.9085 416.0204 809.1617 416.1231 808.4305L416.1231 808.4305L411.9785 806.9779L411.9785 806.9779L414.0025 801.2031L414.0025 801.2031L418.1234 802.6478C 418.6946 801.6663 419.3668 800.7507 420.127 799.9159L420.127 799.9159L417.5663 796.4056L417.5663 796.4056L422.5101 792.7994L422.5101 792.7994L425.0342 796.2596C 426.1857 795.7063 427.4141 795.2878 428.6984 795.0231L428.6984 795.0231L428.6984 790.7819L428.6984 790.7819L434.8173 790.7819L434.8173 790.7819L434.8173 794.9522C 436.0512 795.1761 437.2352 795.543 438.3527 796.0334L438.3527 796.0334L440.7349 792.6616L440.7349 792.6616L445.7319 796.1935L445.7319 796.1935L443.3813 799.5203C 444.1769 800.3364 444.886 801.2371 445.4931 802.2086L445.4931 802.2086L449.279 800.778L449.279 800.778L451.4418 806.5015L451.4418 806.5015L447.6805 807.9231C 447.8355 808.8156 447.9169 809.7318 447.9169 810.669z" stroke="none" fill="#1D70B7" fill-rule="nonzero" /><path id="9" transform="matrix(1 0 0 -1 0 842)" d="M440.2351 810.669C 440.2351 810.1124 440.1807 809.5612 440.0721 809.0151C 439.9636 808.4694 439.8029 807.9392 439.5899 807.425C 439.3769 806.9106 439.1155 806.4222 438.8065 805.9594C 438.4973 805.4967 438.1458 805.0683 437.7522 804.6747C 437.3587 804.2812 436.9303 803.9297 436.4677 803.6204C 436.0047 803.3114 435.5164 803.0501 435.0019 802.8371C 434.4878 802.6241 433.9576 802.4634 433.4118 802.3549C 432.8658 802.2463 432.3145 802.1919 431.758 802.1919C 431.2014 802.1919 430.6501 802.2463 430.1041 802.3549C 429.5583 802.4634 429.0281 802.6241 428.514 802.8371C 427.9996 803.0501 427.5112 803.3114 427.0483 803.6204C 426.5854 803.9297 426.1573 804.2812 425.7637 804.6747C 425.3701 805.0683 425.0187 805.4967 424.7094 805.9594C 424.4004 806.4222 424.1391 806.9106 423.9261 807.425C 423.713 807.9392 423.5524 808.4694 423.4438 809.0151C 423.3353 809.5612 423.2808 810.1124 423.2808 810.669C 423.2808 811.2256 423.3353 811.7769 423.4438 812.3229C 423.5524 812.8686 423.713 813.3989 423.9261 813.913C 424.1391 814.4274 424.4004 814.9158 424.7094 815.3787C 425.0187 815.8413 425.3701 816.2697 425.7637 816.6633C 426.1573 817.0568 426.5854 817.4083 427.0483 817.7176C 427.5112 818.0266 427.9996 818.2879 428.514 818.5009C 429.0281 818.7139 429.5583 818.8746 430.1041 818.9832C 430.6501 819.0917 431.2014 819.1461 431.758 819.1461C 432.3145 819.1461 432.8658 819.0917 433.4118 818.9832C 433.9576 818.8746 434.4878 818.7139 435.0019 818.5009C 435.5164 818.2879 436.0047 818.0269 436.4677 817.7176C 436.9303 817.4083 437.3587 817.0568 437.7522 816.6633C 438.1458 816.2697 438.4973 815.8413 438.8065 815.3787C 439.1155 814.9158 439.3769 814.4274 439.5899 813.913C 439.8029 813.3989 439.9636 812.8686 440.0721 812.3229C 440.1807 811.7769 440.2351 811.2256 440.2351 810.669z" stroke="none" fill="#FFFFFF" fill-rule="nonzero" /><path id="10" transform="matrix(1 0 0 -1 0 842)" d="M420.5024 808.918C 420.2827 808.918 420.0928 809.0827 420.067 809.3066C 420.0152 809.7552 419.9889 810.2137 419.9889 810.669C 419.9889 814.9714 422.3357 818.9293 426.1134 820.9978C 426.3264 821.114 426.5927 821.0364 426.7091 820.8237C 426.8256 820.611 426.7478 820.3441 426.535 820.228C 423.0388 818.3134 420.867 814.6506 420.867 810.669C 420.867 810.2471 420.8913 809.8221 420.9393 809.4069C 420.9671 809.1661 420.7945 808.9484 420.5536 808.9206C 420.5361 808.9189 420.5191 808.918 420.5024 808.918z" stroke="none" fill="#FFFFFF" fill-rule="nonzero" /><path id="11" transform="matrix(1 0 0 -1 0 842)" d="M457.1024 780.3372C 453.3725 780.3372 450.3483 783.3616 450.3483 787.0916C 450.3483 790.8219 453.3725 793.8458 457.1024 793.8458C 460.8327 793.8458 463.8569 790.8219 463.8569 787.0916C 463.8569 783.3616 460.8327 780.3372 457.1024 780.3372zM467.673 787.0916C 467.673 787.6166 467.6338 788.1319 467.5591 788.6358L467.5591 788.6358L470.0414 789.506L470.0414 789.506L468.7173 793.2834L468.7173 793.2834L466.2204 792.4079C 465.8219 793.0812 465.3505 793.7059 464.8167 794.2704L464.8167 794.2704L466.386 796.4218L466.386 796.4218L463.152 798.7811L463.152 798.7811L461.5616 796.6011C 460.7883 796.9546 459.9645 797.2165 459.1039 797.373L459.1039 797.373L459.1039 800.1005L459.1039 800.1005L455.1015 800.1005L455.1015 800.1005L455.1015 797.3262C 454.3138 797.1638 453.5588 796.9122 452.8466 796.5839L452.8466 796.5839L451.2305 798.871L451.2305 798.871L447.9614 796.5613L447.9614 796.5613L449.6012 794.2403C 449.1172 793.7238 448.6844 793.1591 448.3122 792.5527L448.3122 792.5527L445.6412 793.562L445.6412 793.562L444.2267 789.8179L444.2267 789.8179L446.9132 788.802C 446.8216 788.2454 446.7731 787.6743 446.7731 787.0913C 446.7731 786.5936 446.8087 786.1058 446.8758 785.6268L446.8758 785.6268L444.1647 784.6772L444.1647 784.6772L445.4888 780.8993L445.4888 780.8993L448.1844 781.8438C 448.5577 781.2021 448.9978 780.6034 449.495 780.0574L449.495 780.0574L447.8198 777.7612L447.8198 777.7612L451.0538 775.4019L451.0538 775.4019L452.705 777.6658C 453.4582 777.3039 454.2617 777.0297 455.1018 776.8561L455.1018 776.8561L455.1018 774.0825L455.1018 774.0825L459.1042 774.0825L459.1042 774.0825L459.1042 776.8102C 459.9116 776.9568 460.6861 777.1968 461.4171 777.5175L461.4171 777.5175L462.9753 775.312L462.9753 775.312L466.2441 777.6223L466.2441 777.6223L464.7067 779.7985C 465.227 780.3325 465.6908 780.9218 466.0881 781.5568L466.0881 781.5568L468.5646 780.621L468.5646 780.621L469.9794 784.3656L469.9794 784.3656L467.5188 785.2955C 467.6197 785.879 467.673 786.4789 467.673 787.0916z" stroke="none" fill="#D8D4D3" fill-rule="nonzero" /><path id="12" transform="matrix(1 0 0 -1 0 842)" d="M457.1024 793.3563C 453.6484 793.3563 450.8384 790.546 450.8384 787.0919C 450.8384 783.6379 453.6484 780.8273 457.1024 780.8273C 460.5568 780.8273 463.3668 783.6376 463.3668 787.0919C 463.3668 790.5463 460.5568 793.3563 457.1024 793.3563zM457.1024 779.8473C 453.1082 779.8473 449.8584 783.0968 449.8584 787.0916C 449.8584 791.0859 453.1079 794.3357 457.1024 794.3357C 461.097 794.3357 464.3468 791.0862 464.3468 787.0916C 464.3468 783.0971 461.097 779.8473 457.1024 779.8473zM455.5914 774.5726L458.6141 774.5726L458.6141 774.5726L458.6141 776.8105C 458.6141 777.0475 458.7835 777.2503 459.0165 777.2925C 459.7723 777.4297 460.5135 777.6562 461.2202 777.9664C 461.4329 778.06 461.6828 777.9907 461.8171 777.8004L461.8171 777.8004L463.0926 775.995L463.0926 775.995L465.5614 777.7399L465.5614 777.7399L464.3064 779.5157C 464.17 779.7086 464.1908 779.9714 464.3556 780.1402C 464.8524 780.6503 465.2957 781.2144 465.6726 781.8167C 465.7967 782.0142 466.0431 782.0969 466.2611 782.015L466.2611 782.015L468.2793 781.2524L468.2793 781.2524L469.3479 784.0803L469.3479 784.0803L467.3455 784.837C 467.1258 784.9201 466.9958 785.1478 467.0359 785.3793C 467.1334 785.9423 467.1828 786.5187 467.1828 787.0919C 467.1828 787.5829 467.1463 788.0784 467.0743 788.5644C 467.0397 788.7967 467.1752 789.0209 467.397 789.0984L467.397 789.0984L469.417 789.8065L469.417 789.8065L468.4171 792.6593L468.4171 792.6593L466.3825 791.9459C 466.1616 791.8687 465.9178 791.9579 465.7988 792.1589C 465.4207 792.798 464.9703 793.3952 464.4606 793.9342C 464.2982 794.106 464.2815 794.3688 464.4208 794.5595L464.4208 794.5595L465.7013 796.3149L465.7013 796.3149L463.2589 798.097L463.2589 798.097L461.9573 796.3126C 461.8203 796.1248 461.5701 796.0583 461.358 796.1558C 460.6118 796.4966 459.8238 796.7442 459.0162 796.8911C 458.7833 796.9338 458.6138 797.1366 458.6138 797.373L458.6138 797.373L458.6138 799.6107L458.6138 799.6107L455.5911 799.6107L455.5911 799.6107L455.5911 797.3259C 455.5911 797.0936 455.4275 796.8931 455.2001 796.8461C 454.4633 796.6942 453.7406 796.4563 453.0518 796.1385C 452.8367 796.0402 452.5827 796.108 452.4466 796.3009L452.4466 796.3009L451.1129 798.188L451.1129 798.188L448.644 796.4437L448.644 796.4437L450.0009 794.5229C 450.1349 794.3331 450.1171 794.075 449.9582 793.9055C 449.495 793.4113 449.0812 792.8699 448.7292 792.2968C 448.6066 792.0963 448.359 792.0117 448.1387 792.0948L448.1387 792.0948L445.9259 792.9308L445.9259 792.9308L444.8576 790.1033L444.8576 790.1033L447.0859 789.2605C 447.3041 789.1783 447.4338 788.953 447.396 788.723C 447.3074 788.1837 447.2623 787.635 447.2623 787.0919C 447.2623 786.6293 447.2951 786.1594 447.36 785.6956C 447.3925 785.4644 447.257 785.2423 447.037 785.165L447.037 785.165L444.7885 784.3776L444.7885 784.3776L445.7884 781.5243L445.7884 781.5243L448.0217 782.3068C 448.2437 782.384 448.489 782.2936 448.6069 782.0908C 448.9609 781.4824 449.3814 780.9092 449.8567 780.3878C 450.0135 780.2157 450.0273 779.957 449.8903 779.7695L449.8903 779.7695L448.5039 777.8692L448.5039 777.8692L450.9464 776.0872L450.9464 776.0872L452.3088 777.9556C 452.4481 778.1463 452.7038 778.211 452.9169 778.1083C 453.6425 777.7598 454.4109 777.4999 455.2007 777.3369C 455.4284 777.2899 455.5917 777.0894 455.5917 776.8571L455.5917 776.8571L455.5917 774.5726L455.5917 774.5726L455.5914 774.5726zM459.1039 773.5929L455.1015 773.5929C 454.8309 773.5929 454.6117 773.8121 454.6117 774.0828L454.6117 774.0828L454.6117 776.4652C 454.0139 776.6118 453.4289 776.8091 452.8647 777.0546L452.8647 777.0546L451.4494 775.1136C 451.3727 775.0089 451.2577 774.9384 451.1292 774.9182C 451.0011 774.8992 450.8697 774.9302 450.7646 775.0065L450.7646 775.0065L447.5306 777.3659C 447.4259 777.4426 447.3553 777.5576 447.3354 777.686C 447.3153 777.8142 447.3472 777.9456 447.4235 778.0504L447.4235 778.0504L448.8676 780.0296C 448.541 780.4156 448.2411 780.8243 447.9713 781.251L447.9713 781.251L445.6503 780.4378C 445.3951 780.3477 445.1154 780.4825 445.0258 780.738L445.0258 780.738L443.7017 784.516C 443.659 784.6386 443.6663 784.7732 443.7225 784.8903C 443.779 785.0073 443.8794 785.0974 444.0023 785.1401L444.0023 785.1401L446.3414 785.9595C 446.3025 786.3373 446.2826 786.7168 446.2826 787.0919C 446.2826 787.5549 446.3125 788.0213 446.3713 788.4836L446.3713 788.4836L444.0529 789.36C 443.7998 789.4554 443.6725 789.738 443.7679 789.9912L443.7679 789.9912L445.1824 793.7352C 445.2283 793.8567 445.3205 793.955 445.439 794.0085C 445.5575 794.0618 445.6924 794.0665 445.8138 794.0205L445.8138 794.0205L448.1133 793.1515C 448.3751 793.5438 448.6631 793.9208 448.9744 794.2777L448.9744 794.2777L447.5608 796.2787C 447.4859 796.3846 447.456 796.5165 447.478 796.6444C 447.4999 796.7723 447.5719 796.8864 447.6781 796.9613L447.6781 796.9613L450.9472 799.271C 451.1679 799.4269 451.4737 799.3746 451.6299 799.1536L451.6299 799.1536L453.0155 797.1931C 453.534 797.4091 454.068 797.5846 454.6108 797.7178L454.6108 797.7178L454.6108 800.1008C 454.6108 800.3715 454.8303 800.5907 455.1006 800.5907L455.1006 800.5907L459.1031 800.5907C 459.3737 800.5907 459.5929 800.3715 459.5929 800.1008L459.5929 800.1008L459.5929 797.7742C 460.2092 797.6379 460.8128 797.4479 461.3963 797.2072L461.3963 797.2072L462.7555 799.0703C 462.8322 799.1753 462.9472 799.2455 463.0757 799.2657C 463.2047 799.2841 463.3352 799.2537 463.4402 799.1773L463.4402 799.1773L466.6743 796.8179C 466.779 796.7413 466.8495 796.6263 466.8694 796.4978C 466.8896 796.3696 466.8577 796.2383 466.7814 796.1335L466.7814 796.1335L465.4473 794.3052C 465.8064 793.8959 466.1353 793.459 466.4296 793.001L466.4296 793.001L468.5546 793.7463C 468.6772 793.7891 468.8118 793.7815 468.9292 793.7256C 469.0462 793.6694 469.1364 793.5687 469.1791 793.4461L469.1791 793.4461L470.5032 789.6687C 470.5459 789.5461 470.5386 789.4115 470.4824 789.2944C 470.4262 789.1774 470.3256 789.0876 470.2029 789.0446L470.2029 789.0446L468.0952 788.306C 468.1397 787.9031 468.1622 787.4963 468.1622 787.0928C 468.1622 786.5992 468.1289 786.1035 468.0627 785.6142L468.0627 785.6142L470.1517 784.825C 470.4048 784.7293 470.5324 784.4467 470.4367 784.1935L470.4367 784.1935L469.0219 780.4489C 468.976 780.3275 468.8838 780.2292 468.7653 780.1756C 468.6471 780.1221 468.5122 780.118 468.3905 780.1636L468.3905 780.1636L466.2824 780.9604C 465.996 780.5381 465.6794 780.1353 465.3364 779.756L465.3364 779.756L466.6432 777.9064C 466.7995 777.6854 466.7468 777.3796 466.5259 777.2237L466.5259 777.2237L463.2571 774.9135C 463.1508 774.8386 463.0198 774.8084 462.8913 774.8309C 462.7632 774.8529 462.6493 774.9246 462.5744 775.0311L462.5744 775.0311L461.2424 776.9161C 460.7063 776.704 460.1542 776.5349 459.5932 776.4108L459.5932 776.4108L459.5932 774.0839C 459.5938 773.8121 459.3743 773.5929 459.1039 773.5929z" stroke="none" fill="#321019" fill-rule="nonzero" /><path id="13" transform="matrix(1 0 0 -1 0 842)" d="M454.4077 795.3736C 454.2383 795.3736 454.0771 795.4713 454.0036 795.6358C 453.9041 795.8591 454.0045 796.1201 454.2275 796.2195C 454.7697 796.4609 455.3266 796.6526 455.8881 796.7908L455.8881 796.7908L455.8881 798.9418C 455.8881 799.1858 456.0859 799.3839 456.3302 799.3839C 456.5746 799.3839 456.7724 799.1858 456.7724 798.9418L456.7724 798.9418L456.7724 796.4376C 456.7724 796.2277 456.6249 796.0466 456.4192 796.0048C 455.8012 795.8775 455.1849 795.6782 454.5874 795.4122C 454.5289 795.3862 454.4677 795.3736 454.4077 795.3736z" stroke="none" fill="#FFFFFF" fill-rule="nonzero" /></g><g clip-path="url(#8)"><g clip-path="url(#9)"><g clip-path="url(#10)"><g clip-path="url(#11)"><path id="14" transform="matrix(1 0 0 -1 0 842)" d="M-205.2269 948.2601C -219.1931 934.0914 -230.36 917.2056 -237.8073 898.813C -245.2791 880.4327 -249.0547 860.5973 -248.9208 840.8091C -248.7839 821.0203 -244.737 801.2928 -237.0551 783.1164C -229.3972 764.9258 -218.086 748.3378 -204.0762 734.5098C -190.0548 720.691 -173.352 709.6481 -155.1583 702.2831C -136.9764 694.8929 -117.3533 691.1591 -97.77636 691.293C -78.19938 691.4305 -58.68441 695.4357 -40.70569 703.0352C -22.71346 710.6115 -6.309067 721.7993 7.372223 735.6611C 21.04247 749.5352 31.96196 766.0544 39.24593 784.0503C 46.55385 802.0333 50.24648 821.4445 50.112 840.8097C 49.97446 860.1754 46.01105 879.478 38.49376 897.2577C 30.99919 915.0516 19.9348 931.2737 6.220963 944.807C -7.505753 958.3299 -23.84203 969.1254 -41.6396 976.3276C -59.42493 983.5533 -78.62244 987.2042 -97.77638 987.0697C -116.9303 986.9327 -136.0204 983.0099 -153.6018 975.5755C -171.1974 968.1626 -187.2359 957.2216 -200.6225 943.6558L-200.6225 943.6558L-205.2269 948.2601zM-209.8319 952.8652C -195.0737 967.4233 -177.4554 979.0845 -158.2701 986.8578C -139.0965 994.6588 -118.4107 998.6007 -97.77576 998.4662C -77.14023 998.33 -56.56303 994.116 -37.5927 986.1057C -18.60945 978.1218 -1.288338 966.3157 13.12914 951.714C 27.53989 937.1031 39.07706 919.6677 46.76872 900.6808C 54.4874 881.705 58.38757 861.2328 58.25311 840.8091C 58.11618 820.3854 53.94402 800.0206 46.01657 781.2486C 38.11371 762.4631 26.43161 745.3262 11.9779 731.0554C -2.485634 716.7933 -19.73798 705.3789 -38.52658 697.7689C -57.30351 690.1325 -77.56388 686.2735 -97.77513 686.408C -117.9876 686.5449 -138.1393 690.6747 -156.713 698.5217C -175.2996 706.3423 -192.2542 717.9009 -206.3775 732.2073C -220.4923 746.5234 -231.782 763.5922 -239.311 782.1831C -246.8657 800.7617 -250.683 820.8096 -250.5486 840.8097C -250.411 860.8103 -246.3229 880.7496 -238.5588 899.1249C -230.8199 917.5132 -219.384 934.2848 -205.2263 948.2608L-205.2263 948.2608L-209.8313 952.8658L-209.8313 952.8658L-209.8319 952.8652zM-189.8767 932.91C -201.8345 920.7521 -211.3866 906.2695 -217.7489 890.5043C -224.1328 874.7495 -227.3465 857.755 -227.2126 840.8085C -227.0757 823.8613 -223.59 806.9755 -216.9968 791.4239C -210.4238 775.8607 -200.7268 761.6765 -188.7261 749.8588C -176.7149 738.049 -162.4165 728.6208 -146.8496 722.3402C -131.2931 716.038 -114.5111 712.8661 -97.77636 713.0005C -81.04161 713.1375 -64.36766 716.5808 -49.01443 723.0923C -33.64954 729.5836 -19.64896 739.1572 -7.977921 751.01C 3.683899 762.8732 12.98856 776.9893 19.18756 792.3578C 25.40682 807.7159 28.53826 824.2855 28.40318 840.8085C 28.26626 857.332 24.86404 873.7928 18.43542 888.9478C 12.02578 904.1144 2.576225 917.9319 -9.129204 929.4556C -20.84566 940.9695 -34.77809 950.1507 -49.94835 956.2681C -65.10817 962.4056 -81.4653 965.4941 -97.77698 965.3602C -114.0887 965.2227 -130.3377 961.8629 -145.2943 955.5159C -160.2626 949.188 -173.8972 939.8612 -185.2735 928.3043L-185.2735 928.3043L-189.8779 932.9088L-189.8779 932.9088L-189.8767 932.91zM-194.4818 937.5151C -181.7338 950.0641 -166.5193 960.1111 -149.9614 966.7994C -133.4127 973.5118 -115.5684 976.8925 -97.77576 976.7574C -79.98247 976.6205 -62.24626 972.9696 -45.90143 966.0473C -29.54553 959.1484 -14.62885 948.9558 -2.221016 936.3638C 10.1807 923.7632 20.10367 908.7317 26.71037 892.3721C 33.34042 876.0223 36.67938 858.3905 36.5443 840.8091C 36.40736 823.227 32.79764 805.7039 25.9576 789.5567C 19.14029 773.3992 9.071808 758.6654 -3.372871 746.405C -15.82615 734.1519 -30.67406 724.3523 -46.83594 717.8267C -62.98737 711.2783 -80.40673 707.9811 -97.77636 708.1155C -115.1466 708.2518 -132.4579 711.8204 -148.4055 718.5788C -164.3654 725.3151 -178.9149 735.2595 -191.0286 747.5562C -203.1343 759.8621 -212.8098 774.5271 -219.2539 790.4906C -225.7193 806.4437 -228.9754 823.6512 -228.8409 840.8085C -228.704 857.9669 -225.1772 875.0657 -218.5017 890.8149C -211.8471 906.5765 -202.0261 920.9437 -189.8773 932.9094L-189.8773 932.9094L-194.4824 937.5145L-194.4824 937.5145L-194.4818 937.5151zM-174.5266 917.5598C -184.4753 907.4122 -192.4126 895.334 -197.6906 882.1956C -202.9864 869.0663 -205.6383 854.9128 -205.5038 840.8085C -205.3669 826.7041 -202.4436 812.6587 -196.9384 799.7327C -191.4504 786.7968 -183.367 775.017 -173.3759 765.2089C -163.375 755.4081 -151.4804 747.5943 -138.5409 742.3986C -125.6099 737.1857 -111.6689 734.5743 -97.77637 734.7094C -83.88324 734.8463 -70.05029 737.7278 -57.32317 743.1508C -44.58559 748.5571 -32.98886 756.5164 -23.32808 766.3602C -13.67529 776.2131 -5.984863 787.9253 -0.8708038 800.6666C 4.260452 813.3992 6.82946 827.1284 6.694977 840.8091C 6.558052 854.491 3.717682 868.1108 -1.622955 880.6403C -6.947617 893.1795 -14.78357 904.5927 -24.47935 914.1067C -34.18558 923.6115 -45.71353 931.1779 -58.2571 936.2109C -70.7914 941.2605 -84.30753 943.7872 -97.77635 943.6533C -111.2458 943.5164 -124.6545 940.7177 -136.9844 935.4587C -149.3253 930.2158 -160.5561 922.5032 -169.9221 912.9554L-169.9221 912.9554L-174.5266 917.5598L-174.5266 917.5598L-174.5266 917.5598zM-179.1316 922.1649C -168.3945 932.7056 -155.5832 941.1377 -141.6527 946.7411C -127.7295 952.3654 -112.7268 955.1837 -97.77576 955.0486C -82.82469 954.9124 -67.92952 951.822 -54.20953 945.9883C -40.48036 940.1737 -27.96813 931.5961 -17.57056 921.0131C -7.177895 910.4226 1.130234 897.7956 6.652626 884.0627C 12.19463 870.3385 14.97179 855.5477 14.8367 840.8079C 14.70041 826.068 11.65186 811.3853 5.900459 797.8642C 0.1674881 784.3334 -8.286148 772.0042 -18.7218 761.7539C -29.16422 751.5092 -41.6089 743.3245 -55.14344 737.8838C -68.67 732.4241 -83.24774 729.688 -97.77513 729.8231C -112.3031 729.96 -126.7728 732.9662 -140.0955 738.6359C -153.4281 744.2872 -165.5737 752.6175 -175.6772 762.9052C -185.7739 773.2008 -193.8352 785.4619 -199.1943 798.7981C -204.5717 812.1257 -207.2654 826.4916 -207.1315 840.8079C -206.9946 855.1246 -204.0302 869.3818 -198.4421 882.5062C -192.8725 895.6404 -184.6663 907.6031 -174.5259 917.5592L-174.5259 917.5592L-179.1316 922.1649zM-159.1764 902.2097C -167.1161 894.0723 -173.4398 884.3986 -177.6328 873.8875C -181.84 863.383 -183.9307 852.0712 -183.7956 840.8091C -183.6587 829.5463 -181.2972 818.3419 -176.8807 808.042C -172.4776 797.7335 -166.0084 788.3575 -158.0258 780.5603C -150.0351 772.7686 -140.5444 766.569 -130.2327 762.4575C -119.9273 758.3326 -108.8273 756.2831 -97.77637 756.4182C -86.72548 756.5544 -75.73415 758.8748 -65.63129 763.2097C -55.52044 767.5317 -46.32816 773.8762 -38.67825 781.7115C -31.03448 789.5543 -24.95889 798.862 -20.92854 808.9759C -16.88531 819.0831 -14.87874 829.9706 -15.01322 840.8097C -15.15014 851.6487 -17.4281 862.4282 -21.6807 872.3322C -25.92104 882.2446 -32.14216 891.2534 -39.82951 898.7565C -47.52547 906.2523 -56.6496 912.2045 -66.5652 916.1532C -76.47403 920.1135 -87.14915 922.0796 -97.77576 921.9451C -108.4036 921.8082 -118.97 919.5714 -128.6756 915.4016C -138.3898 911.243 -147.2162 905.1453 -154.5714 897.6059L-154.5714 897.6059L-159.1758 902.2103L-159.1758 902.2103L-159.1764 902.2097zM-163.7815 906.8147C -155.0546 915.3464 -144.6484 922.1643 -133.3445 926.6834C -122.0468 931.2197 -109.8852 933.4761 -97.77576 933.3411C -85.66631 933.2047 -73.61276 930.6769 -62.51828 925.9312C -51.41643 921.2015 -41.30804 914.2381 -32.92133 905.6635C -24.53768 897.0834 -17.84317 886.8608 -13.40575 875.7552C -8.952354 864.6558 -6.736397 852.7067 -6.872093 840.8091C -7.008408 828.9108 -9.495148 817.0703 -14.1579 806.1742C -18.80592 795.2706 -25.64534 785.3452 -34.07259 777.1059C -42.50474 768.8702 -52.54496 762.2991 -63.45217 757.9434C -74.35325 753.5717 -86.0906 751.3981 -97.77514 751.5331C -109.4609 751.6694 -121.0902 754.1144 -131.7874 758.6962C -142.4926 763.2625 -152.2344 769.9785 -160.327 778.2578C -168.4147 786.5432 -174.8618 796.3992 -179.1365 807.1087C -183.426 817.8109 -185.5578 829.3358 -185.4233 840.8097C -185.287 852.2842 -182.8832 863.7004 -178.3844 874.1993C -173.8997 884.7062 -167.3077 894.2651 -159.1758 902.2103L-159.1758 902.2103L-163.7808 906.8154L-163.7808 906.8154L-163.7815 906.8147zM-143.8262 886.8595C -149.7569 880.7324 -154.4664 873.4625 -157.5745 865.5787C -160.6936 857.6998 -162.2225 849.2289 -162.0874 840.8085C -161.9511 832.3879 -160.1508 824.0252 -156.8223 816.3495C -153.5036 808.6677 -148.6492 801.6962 -142.6756 795.9092C -136.6958 790.1259 -129.6095 785.5411 -121.924 782.5146C -114.244 779.4778 -105.9844 777.9907 -97.77637 778.1257C -89.5671 778.2621 -81.41677 780.0206 -73.94003 783.2668C -66.45651 786.5039 -59.66805 791.2342 -54.0284 797.0605C -48.39367 802.8929 -43.93169 809.7962 -40.98691 817.2834C -38.03232 824.7657 -36.58694 832.8116 -36.72202 840.8085C -36.85896 848.8059 -38.57571 856.7438 -41.73907 864.0222C -44.89445 871.3074 -49.50134 877.9122 -55.17966 883.4052C -60.86476 888.8925 -67.58506 893.2305 -74.87392 896.0936C -82.15729 898.9659 -89.99139 900.3701 -97.77637 900.2357C -105.562 900.0994 -113.288 898.4237 -120.3675 895.3414C -127.4544 892.2677 -133.8769 887.7842 -139.2218 882.2539L-139.2218 882.2539L-143.8268 886.8589L-143.8268 886.8589L-143.8262 886.8595zM-148.4313 891.4646C -141.7147 897.9872 -133.7123 903.1909 -125.0358 906.625C -116.3636 910.072 -107.043 911.7679 -97.77576 911.6323C -88.50856 911.4966 -79.29538 909.5299 -70.82701 905.8729C -62.35249 902.2281 -54.64857 896.8795 -48.27149 890.3134C -41.89625 883.7441 -36.81658 875.9247 -33.46411 867.4465C -30.09874 858.9726 -28.44521 849.8638 -28.58091 840.8091C -28.71722 831.7537 -30.64214 822.7529 -34.21749 814.4829C -37.78056 806.2067 -43.00576 798.6852 -49.42397 792.4561C -55.84586 786.2294 -63.48165 781.2732 -71.76214 778.0017C -80.03772 774.718 -88.93405 773.1063 -97.77698 773.2413C -106.6211 773.3777 -115.4082 775.2608 -123.4805 778.7539C -131.5584 782.2353 -138.8964 787.3371 -144.9787 793.6073C -151.058 799.8818 -155.8902 807.3347 -159.08 815.4168C -162.2808 823.4941 -163.8514 832.1774 -163.7164 840.8091C -163.58 849.4408 -161.7386 858.0166 -158.3278 865.89C -154.9275 873.7701 -149.9503 880.9246 -143.8275 886.8595L-143.8275 886.8595L-148.4319 891.464L-148.4319 891.464L-148.4313 891.4646zM-128.4761 871.5094C -132.3928 867.3864 -135.485 862.5222 -137.5093 857.2669C -139.5411 852.0153 -140.5106 846.3867 -140.3786 840.8085C -140.2392 835.2302 -138.9983 829.7097 -136.7572 824.6613C -134.5222 819.608 -131.2852 815.0422 -127.3248 811.2588C -123.3497 807.49 -118.6679 804.5212 -113.611 802.5786C -108.5577 800.6297 -103.1415 799.7007 -97.77515 799.8334C -92.4081 799.9727 -87.10064 801.1725 -82.2506 803.3307C -77.39565 805.484 -73.01226 808.5977 -69.37734 812.4094C -65.75655 816.2378 -62.91185 820.7354 -61.05079 825.594C -59.18361 830.449 -58.29638 835.6526 -58.42899 840.8066C -58.56837 845.9612 -59.72639 851.0574 -61.80357 855.7085C -63.87522 860.3652 -66.86544 864.5649 -70.52922 868.0531C -74.20958 871.5259 -78.52481 874.2473 -83.18511 876.0266C -87.84235 877.8115 -92.833 878.6564 -97.77576 878.525C -102.7191 878.3856 -107.6017 877.2694 -112.0551 875.2745C -116.5134 873.2845 -120.5308 870.4177 -123.871 866.9019L-123.871 866.9019L-128.4773 871.5082L-128.4773 871.5082L-128.4761 871.5094zM-133.0811 876.1144C -128.3686 880.623 -122.772 884.2095 -116.7234 886.5605C -110.6779 888.9208 -104.2001 890.0567 -97.77576 889.9247C -91.35078 889.7859 -84.98047 888.378 -79.13943 885.8083C -73.29349 883.2473 -67.99461 879.5154 -63.62227 874.9637C -59.26098 870.3986 -55.79858 864.985 -53.52985 859.1353C -51.25188 853.2887 -50.1571 847.0228 -50.28912 840.8097C -50.42788 834.5959 -51.79404 828.4393 -54.28199 822.7953C -56.76135 817.1477 -60.36925 812.0318 -64.77352 807.8068C -69.1913 803.5941 -74.42202 800.2545 -80.07334 798.0674C -85.7222 795.8718 -91.77507 794.8181 -97.77636 794.9507C -103.7783 795.0901 -109.7231 796.4139 -115.1681 798.8196C -120.6174 801.2173 -125.5503 804.7024 -129.628 808.9581C -133.6927 813.2279 -136.9082 818.2756 -139.0143 823.7292C -141.1277 829.1792 -142.1396 835.0208 -142.0069 840.8097C -141.8682 846.5997 -140.5849 852.3321 -138.2621 857.5788C -135.9461 862.8298 -132.585 867.5797 -128.4767 871.51L-128.4767 871.51L-133.0811 876.1144L-133.0811 876.1144L-133.0811 876.1144zM-113.1259 856.1592C -116.9751 851.9502 -118.9627 846.286 -118.6704 840.8091C -118.4156 835.3217 -115.9024 830.129 -111.9747 826.6102C -108.0616 823.0618 -102.8309 821.2535 -97.77575 821.5428C -92.70958 821.8013 -87.95104 824.1345 -84.72812 827.7614C -81.48064 831.3785 -79.85229 836.1752 -80.13781 840.8091C -80.39998 845.454 -82.55331 849.7784 -85.87938 852.7054C -89.20054 855.652 -93.56306 857.1005 -97.77575 856.8187C -101.9995 856.5528 -105.8898 854.5793 -108.5209 851.5542L-108.5209 851.5542L-113.1259 856.1592zM-117.731 860.7643C -115.0318 863.267 -111.8383 865.2397 -108.4171 866.5059C -104.9965 867.7775 -101.3585 868.3503 -97.77637 868.2164C -94.19364 868.0795 -90.66371 867.2353 -87.44695 865.7537C -84.2271 864.2776 -81.33266 862.1593 -78.97304 859.613C -76.61832 857.0605 -74.76894 854.0507 -73.58451 850.8278C -72.39581 847.6055 -71.86345 844.1799 -71.9973 840.8091C -72.24107 834.0568 -75.29268 827.5631 -80.12307 823.1564C -84.92399 818.7054 -91.45641 816.3581 -97.77576 816.6589C -104.1062 816.9058 -110.167 819.7787 -114.2772 824.3076C -118.4272 828.8126 -120.5947 834.9109 -120.2987 840.8091C -120.0482 846.7183 -117.3552 852.345 -113.1259 856.1592L-113.1259 856.1592L-117.731 860.7643L-117.731 860.7643L-117.731 860.7643z" stroke="none" fill="#D9D9D9" fill-rule="nonzero" /></g></g></g></g><g clip-path="url(#12)"><g clip-path="url(#13)"><g clip-path="url(#14)"><g clip-path="url(#15)"><path id="15" transform="matrix(1 0 0 -1 0 842)" d="M46.22688 643.5014L293.7607 643.5014L293.7607 393.0668L46.22688 393.0668z" stroke="none" fill="#1D70B7" fill-rule="nonzero" /></g></g></g></g><g clip-path="url(#16)"><g><g clip-path="url(#17)"><g mask="url(#m1)"><g><g clip-path="url(#19)"><g clip-path="url(#20)"><path id="17" transform="matrix(1 0 0 -1 0 842)" d="M47.39594 430.8861L285.1113 430.8861L285.1113 425.8353L47.39594 425.8353z" stroke="none" fill="#000000" fill-rule="nonzero" /></g></g></g></g><g mask="url(#m2)"><g><g clip-path="url(#24)"><g clip-path="url(#25)"><path id="19" transform="matrix(1 0 0 -1 0 842)" d="M47.39594 430.8861L285.1113 430.8861L285.1113 425.8353L47.39594 425.8353z" stroke="none" fill="#000000" fill-rule="nonzero" /></g></g></g></g></g></g></g><g clip-path="url(#26)"><g clip-path="url(#27)"><g clip-path="url(#28)"><g clip-path="url(#29)"><g clip-path="url(#30)"><g transform="matrix(0.707436 0 0 0.7079712 44.86536 277.1471)"><g transform="matrix(1 0 0 1 0 0)"><image x="0" y="0" xlink:href="img_03.png" width="366" height="175" /></g></g></g></g></g></g></g><g clip-path="url(#31)"></g><g clip-path="url(#32)"><g clip-path="url(#33)"><g clip-path="url(#34)"><g clip-path="url(#35)"><path id="100" transform="matrix(1 0 0 -1 0 842)" d="M321.0744 731.495L568.7878 731.495L568.7878 485.7018L321.0744 485.7018z" stroke="none" fill="#1D70B7" fill-rule="nonzero" /></g></g></g></g><g clip-path="url(#36)"><g><g clip-path="url(#37)"><g mask="url(#m3)"><g><g clip-path="url(#39)"><g clip-path="url(#40)"><path id="102" transform="matrix(1 0 0 -1 0 842)" d="M325.809 518.0073L563.5243 518.0073L563.5243 512.9565L325.809 512.9565z" stroke="none" fill="#000000" fill-rule="nonzero" /></g></g></g></g><g mask="url(#m4)"><g><g clip-path="url(#44)"><g clip-path="url(#45)"><path id="104" transform="matrix(1 0 0 -1 0 842)" d="M325.809 518.0073L563.5243 518.0073L563.5243 512.9565L325.809 512.9565z" stroke="none" fill="#000000" fill-rule="nonzero" /></g></g></g></g></g></g></g><g clip-path="url(#46)"><g clip-path="url(#47)"><g clip-path="url(#48)"><g clip-path="url(#49)"><g clip-path="url(#50)"><g transform="matrix(0.5583882 0 0 0.5578668 336.0192 182.3161)"><g transform="matrix(1 0 0 1 0 0)"><image x="0" y="0" xlink:href="img_05.png" width="387" height="247" /></g></g></g></g></g></g></g><g clip-path="url(#51)"></g><g clip-path="url(#52)"><g clip-path="url(#53)"><g clip-path="url(#54)"><g clip-path="url(#55)"><path id="174" transform="matrix(1 0 0 -1 0 842)" d="M317.5104 453.2508L565.0441 453.2508L565.0441 193.1469L317.5104 193.1469z" stroke="none" fill="#939CAB" fill-rule="nonzero" /></g></g></g></g><g clip-path="url(#56)"><g><g clip-path="url(#57)"><g mask="url(#m5)"><g><g clip-path="url(#59)"><g clip-path="url(#60)"><path id="176" transform="matrix(1 0 0 -1 0 842)" d="M322.2437 226.3375L559.959 226.3375L559.959 221.2867L322.2437 221.2867z" stroke="none" fill="#000000" fill-rule="nonzero" /></g></g></g></g><g mask="url(#m6)"><g><g clip-path="url(#64)"><g clip-path="url(#65)"><path id="178" transform="matrix(1 0 0 -1 0 842)" d="M322.2437 226.3375L559.959 226.3375L559.959 221.2867L322.2437 221.2867z" stroke="none" fill="#000000" fill-rule="nonzero" /></g></g></g></g></g></g></g><g clip-path="url(#66)"><g clip-path="url(#67)"><g clip-path="url(#68)"><g clip-path="url(#69)"><g clip-path="url(#70)"><g transform="matrix(0.5212563 0 0 0.5216236 336.0192 455.5719)"><g transform="matrix(1 0 0 1 0 0)"><image x="0" y="0" xlink:href="img_07.png" width="415" height="292" /></g></g></g></g></g></g></g><g clip-path="url(#71)"></g><g clip-path="url(#72)"><g clip-path="url(#73)"><g clip-path="url(#74)"><g clip-path="url(#75)"><path id="271" transform="matrix(1 0 0 -1 0 842)" d="M41.51496 333.9132L289.0487 333.9132L289.0487 21.59515L41.51496 21.59515z" stroke="none" fill="#1D70B7" fill-rule="nonzero" /></g></g></g></g><g clip-path="url(#76)"><g><g clip-path="url(#77)"><g mask="url(#m7)"><g><g clip-path="url(#79)"><g clip-path="url(#80)"><path id="273" transform="matrix(1 0 0 -1 0 842)" d="M46.24939 56.66175L283.9648 56.66175L283.9648 51.61097L46.24939 51.61097z" stroke="none" fill="#000000" fill-rule="nonzero" /></g></g></g></g><g mask="url(#m8)"><g><g clip-path="url(#84)"><g clip-path="url(#85)"><path id="275" transform="matrix(1 0 0 -1 0 842)" d="M46.24939 56.66175L283.9648 56.66175L283.9648 51.61097L46.24939 51.61097z" stroke="none" fill="#000000" fill-rule="nonzero" /></g></g></g></g></g></g></g><g clip-path="url(#86)"><g clip-path="url(#87)"><g clip-path="url(#88)"><g clip-path="url(#89)"><g clip-path="url(#90)"><g transform="matrix(0.6367772 0 0 0.6372437 56.73816 600.4789)"><g transform="matrix(1 0 0 1 0 0)"><image x="0" y="0" xlink:href="img_09.png" width="340" height="263" /></g></g></g></g></g></g></g><g clip-path="url(#91)"></g><g clip-path="url(#92)"><path id="387" transform="matrix(1 0 0 -1 0 842)" d="M119.3721 829.8008C 119.978 829.304 120.8626 829.4009 121.7109 829.4373C 120.9717 829.8857 120.2567 830.019 119.3721 829.8008z" stroke="none" fill="#FF6969" fill-rule="nonzero" /><path id="388" transform="matrix(1 0 0 -1 0 842)" d="M121.723 829.4373L121.7351 829.4494L121.6988 829.4494L121.723 829.4373z" stroke="none" fill="#FF6969" fill-rule="nonzero" /><path id="389" transform="matrix(1 0 0 -1 0 842)" d="M254.4871 841.5189C 254.6446 841.6279 254.8022 841.737 254.9355 841.8339" stroke="none" fill="#FF6969" fill-rule="nonzero" /><path id="390" transform="matrix(1 0 0 -1 0 842)" d="M135.8283 738.6255C 136.5069 738.2135 137.4036 738.4194 138.2761 738.5649C 137.4763 738.9163 136.7129 738.9526 135.8283 738.6255z" stroke="none" fill="#FF6969" fill-rule="nonzero" /><path id="391" transform="matrix(1 0 0 -1 0 842)" d="M138.3003 738.5527L138.3124 738.5649L138.2761 738.5649L138.3003 738.5527z" stroke="none" fill="#FF6969" fill-rule="nonzero" /><path id="392" transform="matrix(1 0 0 -1 0 842)" d="M118.536 751.1797C 119.1782 750.6707 120.184 750.7434 121.1413 750.7676C 120.3537 751.2281 119.5539 751.3735 118.536 751.1797z" stroke="none" fill="#FF6969" fill-rule="nonzero" /><path id="393" transform="matrix(1 0 0 -1 0 842)" d="M121.1656 750.7555L121.1777 750.7676L121.1413 750.7676L121.1656 750.7555z" stroke="none" fill="#FF6969" fill-rule="nonzero" /><path id="394" transform="matrix(1 0 0 -1 0 842)" d="M277.4506 834.2239C 278.2746 834.6238 279.2198 834.9752 280.0802 835.3266C 279.2682 835.0358 278.2988 834.6722 277.4506 834.2239z" stroke="none" fill="#FF6969" fill-rule="nonzero" /><path id="395" transform="matrix(1 0 0 -1 0 842)" d="M141.2692 699.4482C 141.863 699.024 142.6143 699.1937 143.3293 699.3149C 142.6264 699.6906 141.9963 699.7512 141.2692 699.4482z" stroke="none" fill="#FF6969" fill-rule="nonzero" /><path id="396" transform="matrix(1 0 0 -1 0 842)" d="M289.7866 757.5052C 289.5564 757.5052 289.3383 757.4931 289.1202 757.4325C 289.3262 757.4567 289.5564 757.481 289.7866 757.5052z" stroke="none" fill="#FF6969" fill-rule="nonzero" /><path id="397" transform="matrix(1 0 0 -1 0 842)" d="M269.998 781.6805C 270.1677 781.7047 270.3373 781.7532 270.4949 781.838C 270.3495 781.8017 270.1798 781.7411 269.998 781.6805z" stroke="none" fill="#FF6969" fill-rule="nonzero" /><path id="398" transform="matrix(1 0 0 -1 0 842)" d="M149.0489 681.041C 149.6912 680.629 150.5273 680.8229 151.3271 680.9683C 150.5637 681.3198 149.8608 681.3561 149.0489 681.041z" stroke="none" fill="#FF6969" fill-rule="nonzero" /><path id="399" transform="matrix(1 0 0 -1 0 842)" d="M151.3392 680.9562L151.3513 680.9683L151.3271 680.9683L151.3392 680.9562z" stroke="none" fill="#FF6969" fill-rule="nonzero" /><path id="400" transform="matrix(1 0 0 -1 0 842)" d="M289.3504 756.4873C 289.5564 756.5479 289.7745 756.6327 289.9563 756.7539C 289.7745 756.6812 289.5685 756.5842 289.3504 756.4873z" stroke="none" fill="#FF6969" fill-rule="nonzero" /><path id="401" transform="matrix(1 0 0 -1 0 842)" d="M254.4871 841.5189C 254.6446 841.6279 254.8022 841.737 254.9355 841.8339C 254.8022 841.737 254.6446 841.6279 254.4871 841.5189zM290.7924 756.2449C 290.55 756.4995 289.5443 756.2935 289.108 755.9178L289.108 755.9178L289.2898 755.1786C 288.2234 754.4879 288.8536 755.4937 287.7508 755.0089C 287.4721 755.5663 288.4658 756.0874 289.3504 756.4873C 288.5021 756.2328 287.5206 756.3419 287.4236 755.5785C 286.5511 755.5179 287.2419 756.3177 286.2119 756.1965C 285.6181 755.7723 284.9516 754.8756 284.067 754.9241L284.067 754.9241L284.0427 755.0331C 281.9584 754.912 281.5464 753.0701 279.6197 753.0095L279.6197 753.0095L279.7288 753.2761C 279.0017 753.3851 277.9959 752.4884 276.772 752.4278C 277.1234 752.4278 277.5475 752.1127 276.9295 751.7977C 276.1661 751.7371 275.6086 751.5068 275.0754 751.3251C 274.8331 751.8219 274.5665 752.3551 274.2878 752.9246C 274.9664 753.167 275.4996 753.3367 275.8631 753.4215C 277.1113 753.5063 276.469 752.4884 276.4933 752.3793C 277.7535 753.1549 276.8083 753.2882 277.9716 753.688C 278.3352 753.7002 278.1049 753.167 277.9716 752.9973C 278.4442 753.2761 279.0017 753.2518 278.9168 753.5669C 278.2019 753.5427 278.1413 754.4394 277.6687 754.8393L277.6687 754.8393L279.1592 755.3724L279.1592 755.3724L279.2925 754.8514C 279.6318 754.9726 279.5712 756.5601 281.1223 756.8751C 283.6429 757.6628 286.2119 758.9109 288.696 759.844C 288.7809 759.5289 288.3446 759.1411 287.9084 758.7413C 288.2355 758.8624 288.7081 759.1533 289.0959 759.0684C 288.284 759.3472 289.9684 759.8561 289.4231 759.8803C 289.5443 760.0742 289.7018 760.2439 289.8594 760.4014C 289.7503 759.1896 289.6897 758.3414 289.7018 758.0869C 289.1807 758.0748 288.6476 758.0748 288.49 758.1717C 288.6476 757.8445 289.6897 757.7597 290.2229 757.9778L290.2229 757.9778L290.2714 758.7291C 291.5195 759.0684 290.5985 758.305 291.8224 758.4262C 291.9315 757.8203 290.8046 757.6143 289.8109 757.4931C 290.7076 757.481 291.6407 757.0811 291.9557 757.7839C 292.7556 757.59 292.0164 757.0932 292.7798 756.8751L292.7798 756.8751L291.6649 761.5405C 292.804 762.0252 293.9916 762.3524 294.6944 763.2007C 294.6338 763.3945 294.4763 764.0853 294.5126 765.2365L294.5126 765.2365L291.4589 777.9966C 291.3256 775.4155 290.8773 770.7623 290.4653 766.5937L290.4653 766.5937L286.1392 784.6615C 286.1028 784.6615 286.0422 784.6615 285.9816 784.6494C 285.4 784.201 284.7698 783.2801 283.8731 783.3043L283.8731 783.3043L283.8488 783.4134C 281.7646 783.2195 281.4131 781.3654 279.4864 781.2322L279.4864 781.2322L279.5833 781.4987C 278.8563 781.5836 277.8747 780.6262 276.6508 780.5414C 277.0022 780.5535 277.4385 780.2506 276.8204 779.9234C 275.439 779.778 274.7483 779.063 273.6577 779.1357L273.6577 779.1357L273.0275 778.2269C 272.4701 778.0088 271.6946 777.6816 270.7615 777.2938C 270.507 779.3297 270.3131 780.808 270.2162 781.1473C 270.6161 781.22 271.016 781.2927 271.1614 781.22C 270.9796 781.5109 270.1677 781.4745 269.8042 781.1837L269.8042 781.1837L269.9132 780.4324C 269.0407 779.9355 269.586 780.808 268.6772 780.5293C 268.4712 781.111 269.2952 781.4624 270.0223 781.7047C 269.3316 781.6078 268.556 781.8623 268.447 781.1473C 267.7562 781.2322 268.3258 781.8986 267.5018 781.9592C 267.0049 781.6442 266.4475 780.8807 265.7325 781.0746L265.7325 781.0746L265.7204 781.1837C 264.0482 781.4139 263.6361 779.6932 262.0972 779.9476L262.0972 779.9476L262.1941 780.19C 261.6124 780.4081 260.7763 779.7053 259.7947 779.8507C 260.0735 779.7901 260.4006 779.4144 259.8917 779.2084C 258.7769 779.3297 258.183 778.7722 257.3348 779.0509L257.3348 779.0509L256.7774 778.2875C 255.2626 777.9482 251.8938 776.9666 248.2706 775.8639C 251.3001 777.5362 254.0266 778.9904 255.0324 779.366C 256.1351 779.5477 255.7231 778.5056 255.7716 778.3965C 256.7774 779.2448 255.9049 779.3054 256.8864 779.778C 257.2015 779.8143 257.0925 779.2811 256.9955 779.1115C 257.3712 779.4144 257.8801 779.4144 257.7589 779.7174C 257.1167 779.6447 256.9228 780.5172 256.4381 780.8686L256.4381 780.8686L257.6984 781.4866L257.6984 781.4866L257.9044 780.9898C 258.1225 781.0989 258.0013 782.0562 258.5708 782.662C 260.7399 783.6072 263.0302 784.601 265.1145 785.4855C 265.0782 785.4371 265.0418 785.4007 265.0055 785.3522C 265.2842 785.4977 265.6598 785.8006 266.0234 785.74C 265.9507 785.7643 265.9143 785.7885 265.8779 785.8127C 268.762 787.0366 271.1735 787.994 272.1914 788.2848C 273.5486 788.4666 272.8458 787.3759 272.87 787.2668C 274.2515 788.1515 273.2214 788.2121 274.5059 788.7089C 274.9058 788.7574 274.6513 788.1879 274.4938 788.0061C 275.0149 788.3333 275.645 788.3454 275.548 788.6605C 274.7483 788.5756 274.6877 789.4844 274.1787 789.8601L274.1787 789.8601L275.8389 790.5266L275.8389 790.5266L275.9843 790.0055C 276.3721 790.1752 276.2872 791.7505 278.0444 792.2837C 280.8921 793.4228 283.8488 795.2284 286.6966 797.0097C 286.8299 796.7067 286.3573 796.1614 285.8604 795.6282C 286.2482 795.8585 286.7814 796.2826 287.254 796.3432C 286.2603 796.3432 288.2234 797.4702 287.5569 797.3005C 288.1992 798.5366 289.314 799.4211 290.4289 800.3179C 291.5438 801.1904 292.6343 802.1356 293.1433 803.2626C 292.7919 803.7594 290.1017 808.1461 286.8177 812.1086C 287.4236 813.1144 287.8599 813.7809 287.7629 814.3625C 287.363 814.7867 283.1824 817.8405 280.4801 822.3968C 279.8015 823.5359 279.2804 824.7477 278.8563 825.9837C 278.4564 827.2076 278.2382 828.4436 278.1049 829.5585C 277.8989 831.7882 278.1292 833.5211 277.9595 833.824C 279.9226 834.7571 282.0796 835.1691 282.734 835.1691C 282.4432 835.2781 281.2192 835.1933 279.8378 834.7813C 278.42 834.3693 276.9901 833.6301 276.1176 832.9757L276.1176 832.9757L276.2267 832.1517C 275.342 831.4852 274.8694 831.1217 274.5786 830.8915C 274.2999 830.6976 274.1666 830.6612 274.0454 830.6491C 273.8031 830.6006 273.4274 830.5643 272.2278 829.2676C 271.949 829.4131 272.2883 830.0917 273.1608 831.049C 274.0454 832.0184 275.5844 833.2908 277.4869 834.236C 276.6508 833.8361 275.8026 833.3998 275.136 832.9757C 274.7846 832.7576 274.4453 832.5395 274.1182 832.3093C 273.8273 832.1033 273.5607 831.8972 273.2941 831.6791C 273.0397 831.4731 272.7973 831.2671 272.5792 831.0611C 272.3974 830.8672 272.2278 830.6854 272.0823 830.5037C 271.8036 830.1401 271.5976 829.7887 271.5613 829.4979C 270.7372 828.7344 270.6403 828.892 270.4949 829.0253C 270.3737 829.1586 270.1071 829.1949 269.2952 828.3103C 268.3985 826.7956 268.0834 825.0506 267.2352 824.3235L267.2352 824.3235L267.1503 824.3962C 266.2294 823.4268 266.1445 822.8209 266.2051 822.4816C 266.2294 822.312 266.3263 822.2756 266.3384 822.1786C 266.3263 822.106 266.2778 822.0575 266.0961 822.0938L266.0961 822.0938L265.9749 822.2635C 265.6235 822.4331 265.781 821.8757 265.163 821.8878C 265.3326 821.8636 265.7083 821.597 265.5266 821.3546C 264.86 821.3304 264.5934 820.7124 263.8179 820.8215C 263.7331 820.5427 263.6725 820.264 263.5392 819.9853C 262.9697 819.7066 262.0244 819.2461 260.5824 818.6039C 261.5397 819.5612 263.0666 819.8399 263.6119 820.979C 263.2362 821.7545 259.201 831.3277 256.7289 836.9868C 258.3285 837.2655 259.928 837.5927 261.4913 837.7986C 261.5155 837.4715 261.0187 837.1927 260.5097 836.9019C 260.849 836.9504 261.358 837.1201 261.7094 836.9504C 260.9944 837.3988 262.7031 837.52 262.182 837.6654C 263.7936 839.3013 266.4111 838.55 267.8895 839.7254C 267.8411 840.5737 267.7926 850.6921 267.6835 856.9208C 268.7499 857.1025 269.8163 857.2843 270.8463 857.4055C 270.8584 857.0783 270.3252 856.7996 269.8042 856.5209C 270.1677 856.5693 270.7009 856.739 271.0644 856.5573C 270.3252 857.0177 272.1187 857.1147 271.5734 857.2722C 273.3062 858.896 276.0328 858.1326 277.6081 859.2959C 277.5596 860.4835 277.9595 879.9327 277.7293 881.3141C 278.2746 881.3748 278.8078 881.4474 278.9896 881.3505C 278.7957 881.6534 277.7172 881.6292 277.1961 881.3505L277.1961 881.3505L277.2203 880.5871C 275.9722 880.1145 276.8447 880.9749 275.5966 880.7204C 275.4269 881.3141 276.566 881.6414 277.5718 881.8716C 276.6387 881.7867 275.6571 882.0776 275.3905 881.3505C 274.4817 881.4596 275.3663 882.114 274.2878 882.1988C 273.5728 881.8958 272.7125 881.1445 271.8036 881.3626L271.8036 881.3626L271.8036 881.4717C 269.6345 881.7504 268.7984 880.0297 266.811 880.3326L266.811 880.3326L266.9807 880.575C 266.2536 880.8173 265.0176 880.1266 263.7573 880.2963C 264.1208 880.2357 264.4965 879.8358 263.7816 879.6419C 262.3395 879.7994 261.4549 879.2541 260.3643 879.5571L260.3643 879.5571L259.4918 878.8057C 254.6568 878.1151 235.7891 874.104 230.9783 873.2073L230.9783 873.2073L231.1479 873.3284C 230.1785 873.1224 229.0758 872.9043 227.864 872.6741C 227.7549 877.7878 227.6095 882.9137 227.5005 883.6044C 227.864 883.6287 228.2154 883.653 228.3366 883.556C 228.1912 883.871 227.4762 883.9316 227.1369 883.6893L227.1369 883.6893L227.1854 882.938C 226.3735 882.5623 226.9188 883.35 226.0948 883.1804C 225.9615 883.7862 226.7128 884.0165 227.3672 884.174C 226.7491 884.1619 226.0827 884.5254 225.9372 883.8226C 225.3313 883.9922 225.8888 884.5739 225.1738 884.7435C 224.7133 884.5012 224.1559 883.8105 223.55 884.0892L223.55 884.0892L223.55 884.1982C 222.0474 884.6466 221.5384 882.9865 220.2055 883.459L220.2055 883.459L220.3145 883.6772C 219.8298 883.9801 219.0179 883.3864 218.1818 883.665C 218.4241 883.5681 218.6786 883.1561 218.206 883.0228C 217.2487 883.2894 216.667 882.8289 215.9399 883.2167L215.9399 883.2167L215.3704 882.5381C 212.1834 882.2352 199.6534 880.0418 196.4301 879.7388L196.4301 879.7388L196.5512 879.8479C 191.6798 879.1087 181.5977 878.4543 176.5445 877.4365C 175.7326 877.9939 174.6541 877.8 173.8301 877.9211C 174.2906 877.6909 174.1573 877.2668 173.8059 877.2789C 171.2975 877.2547 173.6483 876.8669 171.1278 876.5155C 168.2195 875.8126 157.0225 876.2489 154.4293 876.7578C 153.0357 875.8611 151.3029 876.5518 149.9335 875.9944L149.9335 875.9944L150.0668 876.2004C 148.6006 875.849 140.3119 876.7821 138.6033 876.5276L138.6033 876.5276L138.8335 876.3943C 137.3309 875.8975 137.5611 876.8427 136.3978 877.1819C 136.519 876.2004 135.2345 875.6793 134.7377 875.6188L134.7377 875.6188L134.7619 875.8369C 134.0227 875.6915 132.3383 874.8796 131.1144 874.819L131.1144 874.819L131.1871 875.3522C 130.1571 874.819 128.2667 875.1462 127.5396 875.1219C 125.9037 875.4006 123.3953 876.4913 121.1413 875.9096L121.1413 875.9096L119.8084 877.5212L119.8084 877.5212L119.5902 877.3759C 119.5902 877.3759 118.7299 872.7953 118.1846 867.6936C 117.6514 862.6041 117.4454 856.9935 118.8389 854.9456L118.8389 854.9456L118.7541 854.4124L118.7541 854.4124L119.36 854.4487C 120.0628 854.1458 120.4385 854.7396 120.3537 854.2185L120.3537 854.2185L119.3721 854.3397C 120.0871 854.1458 119.566 853.8913 119.2752 853.6005C 119.5781 853.5278 119.8689 853.455 120.0992 853.2733C 120.2567 853.4672 120.0144 853.5035 119.9053 853.6247C 120.3052 853.7944 120.8869 854.267 121.3473 853.9882C 122.0865 853.8913 121.3473 853.1157 122.2077 853.0067C 122.9954 852.8976 123.783 852.7764 124.5707 852.6553C 122.6803 852.5704 120.6445 852.3523 118.8389 851.6495L118.8389 851.6495L116.4517 852.8007L116.4517 852.8007L116.1609 852.5947C 116.1609 852.5947 115.761 833.7755 120.7778 830.6127L120.7778 830.6127L120.802 830.0674L120.802 830.0674L121.6503 830.2734C 122.7288 830.1886 123.1044 830.8793 123.1287 830.334L123.1287 830.334L121.6988 830.1644C 122.7651 830.1886 122.0865 829.7887 121.7351 829.4131C 122.1835 829.4373 122.6076 829.4373 122.9833 829.3403C 123.1529 829.5827 122.8015 829.5342 122.6197 829.6191C 123.1529 829.8978 123.8436 830.5279 124.5707 830.3946C 125.6492 830.5279 124.7767 829.5464 126.037 829.7039C 130.9447 830.2128 135.7556 830.5885 140.6149 831.2429C 140.6027 831.2308 140.5785 831.2308 140.5664 831.2186L140.5664 831.2186L140.9299 831.2308C 139.0395 829.9099 138.9789 830.9157 137.2218 830.5643C 137.7914 829.7281 136.216 828.5164 135.5617 828.1891L135.5617 828.1891L135.5132 828.3951C 134.5438 827.8741 132.5807 826.0806 130.969 825.2566L130.969 825.2566L130.8236 825.7777C 129.6481 824.6628 126.9458 823.7661 125.9885 823.2208C 123.6376 822.3846 119.7235 821.6091 117.0697 819.4036L117.0697 819.4036L114.4159 819.8035L114.4159 819.8035L114.1978 819.5248C 114.1978 819.5248 115.5792 815.0412 117.7241 810.3879C 118.233 809.2852 118.7783 808.1824 119.3479 807.1282C 118.9601 806.9585 118.5966 806.7646 118.2451 806.5344L118.2451 806.5344L116.1003 807.419L116.1003 807.419L115.9064 807.2009C 115.9064 807.2009 119.154 789.2057 123.6982 786.3096C 121.6503 785.8248 119.0449 785.3038 117.0939 783.8981L117.0939 783.8981L114.7794 784.613L114.7794 784.613L114.5855 784.3707C 114.5855 784.3707 115.6156 779.8022 117.2636 774.9429C 117.3727 774.6157 117.4938 774.2764 117.615 773.9493L117.615 773.9493L116.8637 774.325L116.8637 774.325L116.5486 774.131C 116.5486 774.131 116.173 769.4172 116.3911 764.2913C 116.6213 759.1654 117.4696 753.6154 120.1961 751.9794L120.1961 751.9794L120.184 751.4341L120.184 751.4341L121.1535 751.6281C 122.3652 751.519 122.8378 752.1976 122.8257 751.6644L122.8257 751.6644L121.2019 751.519C 122.4016 751.519 121.6139 751.1312 121.2019 750.7676C 121.6988 750.7798 122.1956 750.7798 122.6076 750.6586C 122.8136 750.8888 122.4016 750.8525 122.2077 750.9494C 122.8257 751.216 123.6497 751.834 124.4495 751.6886C 125.6734 751.7977 124.6434 750.8403 126.0733 750.9615C 127.9153 751.0948 129.7451 751.2645 131.5749 751.4463C 131.587 751.3735 131.6112 751.3008 131.6234 751.2281C 132.7018 746.2113 134.4589 740.8794 137.2218 739.6313L137.2218 739.6313L137.2945 739.0981L137.2945 739.0981L138.1549 739.4131C 139.2819 739.4616 139.5969 740.2008 139.6696 739.6676L139.6696 739.6676L138.2155 739.3162C 139.3182 739.4738 138.6517 738.989 138.3367 738.577C 138.7972 738.6497 139.2334 738.7103 139.6333 738.6619C 139.7787 738.9163 139.4152 738.8315 139.2213 738.8921C 139.7424 739.2435 140.3846 739.9464 141.148 739.91C 141.1602 739.91 141.1723 739.91 141.1844 739.91C 141.9963 737.3531 142.9536 734.7841 144.0564 732.7846L144.0564 732.7846L141.8145 733.7419L141.8145 733.7419L141.5601 733.5238C 141.5601 733.5238 141.8145 728.8342 142.6749 723.7689C 142.7476 723.3569 142.8203 722.9449 142.9052 722.5328C 141.1238 722.2784 139.1001 721.9149 137.4642 720.9211L137.4642 720.9211L135.283 721.8542L135.283 721.8542L135.077 721.6361C 135.077 721.6361 135.7313 716.995 136.9552 712.0145C 138.1792 707.034 139.9847 701.7264 142.3841 700.4055L142.3841 700.4055L142.481 699.8723L142.481 699.8723L143.1839 700.1631C 143.2323 700.1631 143.2687 700.1753 143.305 700.1753C 143.305 700.151 143.3172 700.1147 143.3172 700.0783L143.3172 700.0783L143.2323 700.0541C 143.2687 700.0541 143.2929 700.0541 143.3172 700.0662C 143.3535 699.8481 143.3899 699.6299 143.4262 699.3997C 143.4141 699.3755 143.3899 699.3513 143.3777 699.327C 143.402 699.327 143.4141 699.327 143.4383 699.3391C 144.4078 693.7285 146.6011 683.816 150.2971 682.0347L150.2971 682.0347L150.394 681.5015L150.394 681.5015L151.1817 681.8166C 152.2238 681.8651 152.4904 682.5922 152.5753 682.059L152.5753 682.059L151.2302 681.7075C 152.2481 681.8529 151.6543 681.3804 151.3756 680.9683C 151.7997 681.041 152.2117 681.1016 152.5753 681.041C 152.7086 681.2955 152.3692 681.2107 152.1875 681.2713C 152.648 681.6106 153.2296 682.3134 153.9325 682.2771C 154.9382 682.5316 154.2475 681.4652 155.423 681.7681C 161.6516 683.2586 167.759 684.531 173.8786 686.6153C 174.0846 686.4457 173.9149 686.3972 173.7695 686.2518C 175.5509 687.0637 177.2353 687.4999 178.8469 688.2876C 179.3922 688.2148 179.6225 687.9362 179.8285 687.7665C 179.6225 687.9362 181.9128 688.8087 184.2879 689.6205C 185.4754 690.0325 186.6751 690.4324 187.5961 690.7233C 188.5171 691.0141 189.1472 691.208 189.1956 691.1959L189.1956 691.1959L189.0139 692.1532C 190.8316 692.7712 189.8864 691.2807 191.4981 692.0563C 191.7283 693.571 194.3458 692.8439 194.6972 693.7285C 194.7214 693.6194 195.5576 693.8497 195.6424 693.4256C 195.6666 694.2133 196.4422 693.8739 196.9027 694.2253C 197.0238 694.4799 196.6967 694.395 196.4785 694.5526L196.4785 694.5526L197.5813 695.1948C 198.1266 695.1221 198.3689 694.7465 197.8963 694.5041C 201.0955 695.2796 216.2429 699.6179 219.4541 701.1447C 218.8482 701.5325 217.9394 700.8175 217.2608 701.5204C 217.9879 702.2959 218.618 701.7991 218.8361 702.4292C 219.5996 701.3022 220.8719 702.8049 221.9747 701.7748L221.9747 701.7748L221.9868 702.5625L221.9868 702.5625L222.5685 702.2838C 226.2038 704.356 223.3319 702.9382 226.834 703.9681C 228.7849 704.7679 229.3908 706.0767 230.6269 706.101C 230.4572 706.0525 229.8756 706.3312 230.3239 706.6826C 230.6269 706.101 231.5357 707.6036 232.0083 707.0704C 232.4809 707.3248 234.1532 707.8096 233.2928 708.4639C 233.7169 708.1367 235.2317 708.4761 234.4925 707.8096C 234.9893 707.955 235.5104 708.0034 235.8012 708.3185L235.8012 708.3185L235.0863 708.3306C 236.698 709.0456 237.837 708.7063 238.649 709.8575L238.649 709.8575L237.9219 709.9787C 238.8913 710.3785 239.7032 710.7421 240.3818 710.0393L240.3818 710.0393L239.4487 709.4213C 241.0847 710.0272 242.0541 710.427 243.2659 711.3601L243.2659 711.3601L242.769 711.2147C 244.2232 712.6689 253.0935 716.6193 254.3053 718.2552L254.3053 718.2552L253.3359 718.6309L253.3359 718.6309L254.5113 719.673C 254.3417 719.6245 254.6083 717.3342 254.3902 717.4918C 257.3227 718.6188 272.4822 724.7504 275.3542 725.3685C 276.5781 725.4291 275.9359 724.4233 275.9601 724.3142C 277.2082 725.0534 276.2751 725.2109 277.4385 725.5865C 277.7899 725.5865 277.5596 725.0534 277.4263 724.8959C 277.8989 725.1625 278.4442 725.114 278.3594 725.4291C 277.6445 725.4291 277.6081 726.3257 277.1597 726.7378L277.1597 726.7378L278.6503 727.2104L278.6503 727.2104L278.7714 726.6772C 279.0986 726.7863 279.0744 728.3616 280.6133 728.6282C 283.1096 729.3311 285.6665 730.4943 288.1386 731.3063C 288.2113 730.9912 287.7751 730.6155 287.3267 730.252C 287.6539 730.361 288.1265 730.6276 288.5021 730.5186C 287.7145 730.8336 289.3867 731.2578 288.8414 731.3063C 290.1502 733.2087 292.8767 732.9785 294.1127 734.4084C 293.834 735.5718 290.1381 754.6333 289.6291 755.942C 290.1138 756.1359 290.5985 756.2935 290.7924 756.2449z" stroke="none" fill="#FF6969" fill-rule="nonzero" /></g><g clip-path="url(#93)"></g><g clip-path="url(#94)"><g transform="matrix(0.1246875 0 0 0.1241722 485.9664 11.97998)"><g transform="matrix(1 0 0 1 0 0)"><image x="0" y="0" xlink:href="img_10.png" width="800" height="453" /></g></g></g></g></g></svg>