<svg xmlns="http://www.w3.org/2000/svg" xmlns:xlink="http://www.w3.org/1999/xlink" id="body_1" preserveAspectRatio="xMinYMin meet" viewBox="0 0 793 1123"><defs><clipPath id="1"><path id="" clip-rule="evenodd" transform="matrix(1 0 0 1 0 0)" d="M0 842L0 -0.25L0 -0.25L595.5 -0.25L595.5 -0.25L595.5 842L595.5 842L0 842z" /></clipPath><clipPath id="2"><path id="" clip-rule="evenodd" transform="matrix(1 0 0 1 0 0)" d="M0 -0.249939L595.5 -0.249939L595.5 -0.249939L595.5 842.0001L595.5 842.0001L0 842.0001z" /></clipPath><clipPath id="3"><path id="" clip-rule="evenodd" transform="matrix(1 0 0 1 0 0)" d="M0 -0.249939L595.5 -0.249939L595.5 -0.249939L595.5 842.0001L595.5 842.0001L0 842.0001z" /></clipPath><clipPath id="4"><path id="" clip-rule="evenodd" transform="matrix(1 0 0 1 0 0)" d="M0 -0.249939L595.5 -0.249939L595.5 -0.249939L595.5 842.0001L595.5 842.0001L0 842.0001z" /></clipPath><clipPath id="5"><path id="" clip-rule="evenodd" transform="matrix(1 0 0 1 0 0)" d="M74.39999 29.03009L530.64 29.03009L530.64 29.03009L530.64 833.2701L530.64 833.2701L74.39999 833.2701z" /></clipPath><clipPath id="6"><path id="" clip-rule="evenodd" transform="matrix(1 0 0 1 0 0)" d="M74.40468 29.2196L530.4047 29.2196L530.4047 29.2196L530.4047 832.4695L530.4047 832.4695L74.40468 832.4695z" /></clipPath><clipPath id="7"><path id="" clip-rule="evenodd" transform="matrix(1 0 0 1 0 0)" d="M489.3922 29.22406L571.1422 29.22406L571.1422 29.22406L571.1422 75.72406L571.1422 75.72406L489.3922 75.72406z" /></clipPath><clipPath id="8"><path id="" clip-rule="evenodd" transform="matrix(1 0 0 1 0 0)" d="M0 -0.249939L595.5 -0.249939L595.5 -0.249939L595.5 842.0001L595.5 842.0001L0 842.0001z" /></clipPath><clipPath id="9"><path id="" clip-rule="evenodd" transform="matrix(1 0 0 1 0 0)" d="M0 -0.249939L595.5 -0.249939L595.5 -0.249939L595.5 842.0001L595.5 842.0001L0 842.0001z" /></clipPath><clipPath id="10"><path id="" clip-rule="evenodd" transform="matrix(1 0 0 1 0 0)" d="M124.128 330.9417L265.8473 330.9417L265.8473 330.9417L265.8473 380.1684L265.8473 380.1684L124.128 380.1684z" /></clipPath><clipPath id="11"><path id="" clip-rule="evenodd" transform="matrix(1 0 0 1 0 0)" d="M136.878 330.9417L253.0495 330.9417C 256.431 330.9417 259.674 332.2849 262.0651 334.676C 264.4562 337.0671 265.7995 340.3102 265.7995 343.6917L265.7995 343.6917L265.7995 367.4184C 265.7995 370.7999 264.4562 374.0429 262.0651 376.4341C 259.674 378.8251 256.431 380.1684 253.0495 380.1684L253.0495 380.1684L136.878 380.1684C 133.4965 380.1684 130.2535 378.8251 127.8624 376.4341C 125.4713 374.0429 124.128 370.7999 124.128 367.4184L124.128 367.4184L124.128 343.6917C 124.128 340.3102 125.4713 337.0671 127.8624 334.676C 130.2535 332.2849 133.4965 330.9417 136.878 330.9417z" /></clipPath><clipPath id="12"><path id="" clip-rule="evenodd" transform="matrix(1 0 0 1 0 0)" d="M0 -0.249939L595.5 -0.249939L595.5 -0.249939L595.5 842.0001L595.5 842.0001L0 842.0001z" /></clipPath><clipPath id="13"><path id="" clip-rule="evenodd" transform="matrix(1 0 0 1 0 0)" d="M0 -0.249939L595.5 -0.249939L595.5 -0.249939L595.5 842.0001L595.5 842.0001L0 842.0001z" /></clipPath><clipPath id="14"><path id="" clip-rule="evenodd" transform="matrix(1 0 0 1 0 0)" d="M0 -0.249939L595.5 -0.249939L595.5 -0.249939L595.5 842.0001L595.5 842.0001L0 842.0001z" /></clipPath><clipPath id="15"><path id="" clip-rule="evenodd" transform="matrix(1 0 0 1 0 0)" d="M124.128 471.6993L265.8473 471.6993L265.8473 471.6993L265.8473 520.9261L265.8473 520.9261L124.128 520.9261z" /></clipPath><clipPath id="16"><path id="" clip-rule="evenodd" transform="matrix(1 0 0 1 0 0)" d="M136.878 471.6993L253.0495 471.6993C 256.431 471.6993 259.674 473.0426 262.0651 475.4337C 264.4562 477.8248 265.7995 481.0678 265.7995 484.4493L265.7995 484.4493L265.7995 508.1761C 265.7995 511.5576 264.4562 514.8006 262.0651 517.1917C 259.674 519.5828 256.431 520.9261 253.0495 520.9261L253.0495 520.9261L136.878 520.9261C 133.4965 520.9261 130.2535 519.5828 127.8624 517.1917C 125.4713 514.8006 124.128 511.5576 124.128 508.1761L124.128 508.1761L124.128 484.4493C 124.128 481.0678 125.4713 477.8248 127.8624 475.4337C 130.2535 473.0426 133.4965 471.6993 136.878 471.6993z" /></clipPath><clipPath id="17"><path id="" clip-rule="evenodd" transform="matrix(1 0 0 1 0 0)" d="M0 -0.249939L595.5 -0.249939L595.5 -0.249939L595.5 842.0001L595.5 842.0001L0 842.0001z" /></clipPath><clipPath id="18"><path id="" clip-rule="evenodd" transform="matrix(1 0 0 1 0 0)" d="M0 -0.249939L595.5 -0.249939L595.5 -0.249939L595.5 842.0001L595.5 842.0001L0 842.0001z" /></clipPath><clipPath id="19"><path id="" clip-rule="evenodd" transform="matrix(1 0 0 1 0 0)" d="M0 -0.249939L595.5 -0.249939L595.5 -0.249939L595.5 842.0001L595.5 842.0001L0 842.0001z" /></clipPath><clipPath id="20"><path id="" clip-rule="evenodd" transform="matrix(1 0 0 1 0 0)" d="M245.8496 369.8484L268.2427 357.6501L268.2427 357.6501L286.1814 390.5812L286.1814 390.5812L263.7883 402.7795L263.7883 402.7795L245.8496 369.8484z" /></clipPath><clipPath id="21"><path id="" clip-rule="evenodd" transform="matrix(1 0 0 1 0 0)" d="M245.8496 369.8484L268.2427 357.6501L268.2427 357.6501L286.1814 390.5812L286.1814 390.5812L263.7883 402.7795L263.7883 402.7795L245.8496 369.8484z" /></clipPath><clipPath id="22"><path id="" clip-rule="evenodd" transform="matrix(1 0 0 1 0 0)" d="M245.8496 369.8484L268.2427 357.6501L268.2427 357.6501L286.1814 390.5812L286.1814 390.5812L263.7883 402.7795L263.7883 402.7795L245.8496 369.8484z" /></clipPath><clipPath id="23"><path id="" clip-rule="evenodd" transform="matrix(1 0 0 1 0 0)" d="M0 -0.249939L595.5 -0.249939L595.5 -0.249939L595.5 842.0001L595.5 842.0001L0 842.0001z" /></clipPath><clipPath id="24"><path id="" clip-rule="evenodd" transform="matrix(1 0 0 1 0 0)" d="M0 -0.249939L595.5 -0.249939L595.5 -0.249939L595.5 842.0001L595.5 842.0001L0 842.0001z" /></clipPath><clipPath id="25"><path id="" clip-rule="evenodd" transform="matrix(1 0 0 1 0 0)" d="M245.8496 516.3353L268.2427 504.137L268.2427 504.137L286.1814 537.0681L286.1814 537.0681L263.7883 549.2663L263.7883 549.2663L245.8496 516.3353z" /></clipPath><clipPath id="26"><path id="" clip-rule="evenodd" transform="matrix(1 0 0 1 0 0)" d="M245.8496 516.3353L268.2427 504.137L268.2427 504.137L286.1814 537.0681L286.1814 537.0681L263.7883 549.2663L263.7883 549.2663L245.8496 516.3353z" /></clipPath><clipPath id="27"><path id="" clip-rule="evenodd" transform="matrix(1 0 0 1 0 0)" d="M245.8496 516.3353L268.2427 504.137L268.2427 504.137L286.1814 537.0681L286.1814 537.0681L263.7883 549.2663L263.7883 549.2663L245.8496 516.3353z" /></clipPath><clipPath id="28"><path id="" clip-rule="evenodd" transform="matrix(1 0 0 1 0 0)" d="M0 -0.249939L595.5 -0.249939L595.5 -0.249939L595.5 842.0001L595.5 842.0001L0 842.0001z" /></clipPath><clipPath id="29"><path id="" clip-rule="evenodd" transform="matrix(1 0 0 1 0 0)" d="M0 -0.249939L595.5 -0.249939L595.5 -0.249939L595.5 842.0001L595.5 842.0001L0 842.0001z" /></clipPath><clipPath id="30"><path id="" clip-rule="evenodd" transform="matrix(1 0 0 1 0 0)" d="M319.6225 330.9417L462.313 330.9417L462.313 330.9417L462.313 380.3716L462.313 380.3716L319.6225 380.3716z" /></clipPath><clipPath id="31"><path id="" clip-rule="evenodd" transform="matrix(1 0 0 1 0 0)" d="M332.3725 330.9417L449.4887 330.9417C 452.8702 330.9417 456.1133 332.2849 458.5043 334.676C 460.8954 337.0671 462.2387 340.3102 462.2387 343.6917L462.2387 343.6917L462.2387 367.6216C 462.2387 371.0031 460.8954 374.2462 458.5043 376.6373C 456.1133 379.0284 452.8702 380.3716 449.4887 380.3716L449.4887 380.3716L332.3725 380.3716C 328.9909 380.3716 325.7479 379.0284 323.3568 376.6373C 320.9658 374.2462 319.6225 371.0031 319.6225 367.6216L319.6225 367.6216L319.6225 343.6917C 319.6225 340.3102 320.9658 337.0671 323.3568 334.676C 325.7479 332.2849 328.9909 330.9417 332.3725 330.9417z" /></clipPath><clipPath id="32"><path id="" clip-rule="evenodd" transform="matrix(1 0 0 1 0 0)" d="M0 -0.249939L595.5 -0.249939L595.5 -0.249939L595.5 842.0001L595.5 842.0001L0 842.0001z" /></clipPath><clipPath id="33"><path id="" clip-rule="evenodd" transform="matrix(1 0 0 1 0 0)" d="M0 -0.249939L595.5 -0.249939L595.5 -0.249939L595.5 842.0001L595.5 842.0001L0 842.0001z" /></clipPath><clipPath id="34"><path id="" clip-rule="evenodd" transform="matrix(1 0 0 1 0 0)" d="M0 -0.249939L595.5 -0.249939L595.5 -0.249939L595.5 842.0001L595.5 842.0001L0 842.0001z" /></clipPath><clipPath id="35"><path id="" clip-rule="evenodd" transform="matrix(1 0 0 1 0 0)" d="M442.156 372.4493L464.5491 360.251L464.5491 360.251L482.4878 393.1821L482.4878 393.1821L460.0947 405.3803L460.0947 405.3803L442.156 372.4493z" /></clipPath><clipPath id="36"><path id="" clip-rule="evenodd" transform="matrix(1 0 0 1 0 0)" d="M442.156 372.4493L464.5491 360.251L464.5491 360.251L482.4878 393.1821L482.4878 393.1821L460.0947 405.3803L460.0947 405.3803L442.156 372.4493z" /></clipPath><clipPath id="37"><path id="" clip-rule="evenodd" transform="matrix(1 0 0 1 0 0)" d="M442.156 372.4493L464.5491 360.251L464.5491 360.251L482.4878 393.1821L482.4878 393.1821L460.0947 405.3803L460.0947 405.3803L442.156 372.4493z" /></clipPath><clipPath id="38"><path id="" clip-rule="evenodd" transform="matrix(1 0 0 1 0 0)" d="M0 -0.249939L595.5 -0.249939L595.5 -0.249939L595.5 842.0001L595.5 842.0001L0 842.0001z" /></clipPath><clipPath id="39"><path id="" clip-rule="evenodd" transform="matrix(1 0 0 1 0 0)" d="M0 -0.249939L595.5 -0.249939L595.5 -0.249939L595.5 842.0001L595.5 842.0001L0 842.0001z" /></clipPath><clipPath id="40"><path id="" clip-rule="evenodd" transform="matrix(1 0 0 1 0 0)" d="M319.6225 470.7366L462.3566 470.7366L462.3566 470.7366L462.3566 517.0483L462.3566 517.0483L319.6225 517.0483z" /></clipPath><clipPath id="41"><path id="" clip-rule="evenodd" transform="matrix(1 0 0 1 0 0)" d="M332.3725 470.7366L449.4887 470.7366C 452.8702 470.7366 456.1133 472.0799 458.5043 474.471C 460.8954 476.8621 462.2387 480.1051 462.2387 483.4866L462.2387 483.4866L462.2387 504.2983C 462.2387 507.6798 460.8954 510.9229 458.5043 513.3139C 456.1133 515.705 452.8702 517.0483 449.4887 517.0483L449.4887 517.0483L332.3725 517.0483C 328.9909 517.0483 325.7479 515.705 323.3568 513.3139C 320.9658 510.9229 319.6225 507.6798 319.6225 504.2983L319.6225 504.2983L319.6225 483.4866C 319.6225 480.1051 320.9658 476.8621 323.3568 474.471C 325.7479 472.0799 328.9909 470.7366 332.3725 470.7366z" /></clipPath><clipPath id="42"><path id="" clip-rule="evenodd" transform="matrix(1 0 0 1 0 0)" d="M0 -0.249939L595.5 -0.249939L595.5 -0.249939L595.5 842.0001L595.5 842.0001L0 842.0001z" /></clipPath><clipPath id="43"><path id="" clip-rule="evenodd" transform="matrix(1 0 0 1 0 0)" d="M0 -0.249939L595.5 -0.249939L595.5 -0.249939L595.5 842.0001L595.5 842.0001L0 842.0001z" /></clipPath><clipPath id="44"><path id="" clip-rule="evenodd" transform="matrix(1 0 0 1 0 0)" d="M0 -0.249939L595.5 -0.249939L595.5 -0.249939L595.5 842.0001L595.5 842.0001L0 842.0001z" /></clipPath><clipPath id="45"><path id="" clip-rule="evenodd" transform="matrix(1 0 0 1 0 0)" d="M442.156 506.6585L464.5491 494.4602L464.5491 494.4602L482.4878 527.3912L482.4878 527.3912L460.0947 539.5895L460.0947 539.5895L442.156 506.6585z" /></clipPath><clipPath id="46"><path id="" clip-rule="evenodd" transform="matrix(1 0 0 1 0 0)" d="M442.156 506.6585L464.5491 494.4602L464.5491 494.4602L482.4878 527.3912L482.4878 527.3912L460.0947 539.5895L460.0947 539.5895L442.156 506.6585z" /></clipPath><clipPath id="47"><path id="" clip-rule="evenodd" transform="matrix(1 0 0 1 0 0)" d="M442.156 506.6585L464.5491 494.4602L464.5491 494.4602L482.4878 527.3912L482.4878 527.3912L460.0947 539.5895L460.0947 539.5895L442.156 506.6585z" /></clipPath><clipPath id="48"><path id="" clip-rule="evenodd" transform="matrix(1 0 0 1 0 0)" d="M0 -0.249939L595.5 -0.249939L595.5 -0.249939L595.5 842.0001L595.5 842.0001L0 842.0001z" /></clipPath><clipPath id="49"><path id="" clip-rule="evenodd" transform="matrix(1 0 0 1 0 0)" d="M0 -0.249939L595.5 -0.249939L595.5 -0.249939L595.5 842.0001L595.5 842.0001L0 842.0001z" /></clipPath><clipPath id="50"><path id="" clip-rule="evenodd" transform="matrix(1 0 0 1 0 0)" d="M55.42529 630.0125L560.3722 630.0125L560.3722 630.0125L560.3722 674.4951L560.3722 674.4951L55.42529 674.4951z" /></clipPath><clipPath id="51"><path id="" clip-rule="evenodd" transform="matrix(1 0 0 1 0 0)" d="M68.17529 630.0125L547.4617 630.0125C 550.8433 630.0125 554.0863 631.3558 556.4774 633.7469C 558.8684 636.1379 560.2118 639.381 560.2118 642.7625L560.2118 642.7625L560.2118 661.7451C 560.2118 665.1266 558.8684 668.3696 556.4774 670.7607C 554.0863 673.1518 550.8433 674.4951 547.4617 674.4951L547.4617 674.4951L68.17529 674.4951C 64.79378 674.4951 61.55077 673.1518 59.15968 670.7607C 56.76859 668.3696 55.42529 665.1266 55.42529 661.7451L55.42529 661.7451L55.42529 642.7625C 55.42529 639.381 56.76859 636.1379 59.15968 633.7469C 61.55077 631.3558 64.79378 630.0125 68.17529 630.0125z" /></clipPath><clipPath id="52"><path id="" clip-rule="evenodd" transform="matrix(1 0 0 1 0 0)" d="M0 -0.249939L595.5 -0.249939L595.5 -0.249939L595.5 842.0001L595.5 842.0001L0 842.0001z" /></clipPath></defs><g transform="matrix(1.333333 0 0 1.333333 0 0)"><g clip-path="url(#1)"><g clip-path="url(#2)"><path id="1" transform="matrix(1 0 0 -1 0 842)" d="M0 842.2499L595.4999 842.2499L595.4999 -6.103516E-05L0 -6.103516E-05z" stroke="none" fill="#FFFFFF" fill-rule="nonzero" /></g><g clip-path="url(#3)"><path id="2" transform="matrix(1 0 0 -1 0 842)" d="M0 842.2499L595.4999 842.2499L595.4999 -6.103516E-05L0 -6.103516E-05z" stroke="none" fill="#E9FCFF" fill-rule="nonzero" /></g><g clip-path="url(#4)"><g><g clip-path="url(#5)"><g clip-path="url(#6)"><g transform="matrix(0 0.5281065 -0.5283893 0 530.4047 29.2196)"><g transform="matrix(1 0 0 1 0 0)"><image x="0" y="0" xlink:href="img_01.png" width="1521" height="863" /></g></g></g></g></g></g><g clip-path="url(#7)"><g transform="matrix(0.05374753 0 0 0.0538818 489.3922 29.22412)"><g transform="matrix(1 0 0 1 0 0)"><image x="0" y="0" xlink:href="img_02.png" width="1521" height="863" /></g></g></g><g clip-path="url(#8)"><g clip-path="url(#9)"><g clip-path="url(#10)"><g clip-path="url(#11)"><path id="5" transform="matrix(1 0 0 -1 0 842)" d="M124.128 511.0583L265.8473 511.0583L265.8473 461.8316L124.128 461.8316z" stroke="none" fill="#7ED957" fill-rule="nonzero" /></g></g></g></g><g clip-path="url(#12)"></g><g clip-path="url(#13)"><g clip-path="url(#14)"><g clip-path="url(#15)"><g clip-path="url(#16)"><path id="26" transform="matrix(1 0 0 -1 0 842)" d="M124.128 370.3007L265.8473 370.3007L265.8473 321.0739L124.128 321.0739z" stroke="none" fill="#7ED957" fill-rule="nonzero" /></g></g></g></g><g clip-path="url(#17)"></g><g clip-path="url(#18)"><g clip-path="url(#19)"><g clip-path="url(#20)"><g clip-path="url(#21)"><g clip-path="url(#22)"><path id="32" transform="matrix(1 0 0 -1 0 842)" d="M263.0229 471.8444C 262.78 472.1248 262.8118 472.5497 263.0942 472.7931L263.0942 472.7931L265.5534 474.9161C 265.8358 475.1595 266.2618 475.1299 266.5047 474.8494C 266.7475 474.5689 266.7158 474.1441 266.4333 473.9006L266.4333 473.9006L263.9741 471.7776C 263.6924 471.5329 263.2657 471.5639 263.0229 471.8444zM259.4746 473.5949C 259.1023 473.6169 258.8201 473.9339 258.8439 474.3052L258.8439 474.3052L259.0502 477.5353C 259.0741 477.9066 259.3934 478.1895 259.7657 478.1674C 260.138 478.1454 260.4202 477.8284 260.3964 477.4571L260.3964 477.4571L260.1914 474.2277C 260.1676 473.8564 259.8469 473.5728 259.4746 473.5949zM255.0912 464.745C 255.3341 464.4645 255.3024 464.0397 255.0199 463.7963L255.0199 463.7963L252.5607 461.6733C 252.2783 461.4298 251.8523 461.4595 251.6095 461.74C 251.3666 462.0205 251.3983 462.4453 251.6808 462.6888L251.6808 462.6888L254.14 464.8117C 254.4224 465.0552 254.8484 465.0255 255.0912 464.745zM253.698 468.6354C 253.6741 468.2641 253.3548 467.9813 252.9825 468.0033L252.9825 468.0033L249.7422 468.1931C 249.3698 468.2151 249.0876 468.5322 249.1115 468.9035C 249.1353 469.2748 249.4546 469.5576 249.8269 469.5356L249.8269 469.5356L253.0652 469.3464C 253.4388 469.3251 253.7204 469.006 253.698 468.6354zM255.5838 472.2746C 255.3013 472.0311 254.8754 472.0608 254.6325 472.3413L254.6325 472.3413L252.5159 474.7839C 252.2731 475.0643 252.3048 475.4891 252.5873 475.7326C 252.8698 475.976 253.2957 475.9464 253.5386 475.6659L253.5386 475.6659L255.6565 473.2241C 255.898 472.9428 255.8662 472.518 255.5838 472.2746zM283.0009 455.1205C 283.4165 453.5114 282.9478 451.6611 281.8337 450.4184C 281.1931 449.7041 280.3638 449.1804 279.5208 448.737C 278.6275 448.2661 277.701 447.8528 276.7876 447.422C 276.3241 447.2029 275.8598 446.9851 275.3954 446.7708C 274.9563 446.5685 274.5242 446.3436 274.0798 446.1542C 273.7256 446.0034 273.3611 445.9173 272.9774 445.9893C 272.5645 446.0665 272.1601 446.2186 271.7569 446.3362C 269.7955 446.9083 267.8342 447.4804 265.8728 448.0526C 264.1277 448.5616 262.3826 449.0706 260.6375 449.5797C 260.4066 449.647 260.1819 449.7091 259.9727 449.834C 259.6947 450.0005 259.4705 450.2402 259.3183 450.5262C 258.9945 451.1367 259.0514 451.9564 259.5392 452.4715C 259.8312 452.7816 260.2219 452.9821 260.6452 453.0318C 260.8641 453.058 261.095 453.0362 261.3149 453.0313C 261.5383 453.0265 261.7617 453.0217 261.9858 453.0156C 262.878 452.9957 263.7689 452.9751 264.6611 452.9553C 264.7325 452.9538 264.804 452.9523 264.8754 452.9508C 265.1689 452.9438 265.3684 453.265 265.2282 453.5224C 265.0489 453.8516 264.8696 454.1807 264.6903 454.5099C 264.2402 455.3362 263.7894 456.1638 263.3393 456.9901C 262.749 458.0737 262.158 459.1587 261.5677 460.2423C 260.9678 461.3435 260.3679 462.4448 259.7687 463.5447C 259.2928 464.4183 258.8169 465.292 258.341 466.1657C 258.1144 466.5815 257.8866 466.9966 257.6614 467.4132C 257.3933 467.9118 257.3559 468.5027 257.5952 469.023C 257.9726 469.8381 258.9241 470.2475 259.7762 469.9739C 260.2813 469.8117 260.6131 469.4427 260.8581 468.993C 261.0292 468.6787 261.2004 468.3644 261.3716 468.0502C 261.9508 466.9869 262.5301 465.9236 263.1086 464.8616C 263.5461 464.0584 263.9836 463.2551 264.4212 462.4519C 264.4441 462.4099 264.4677 462.3665 264.4906 462.3246C 264.7281 461.8884 265.4038 462.2564 265.1716 462.6956C 264.6386 463.7032 265.184 464.9945 266.3139 465.271C 266.9343 465.4227 267.5957 465.2298 268.0317 464.7699C 268.2715 464.5177 268.4207 464.1791 268.5852 463.877C 268.7527 463.5696 268.9195 463.2634 269.087 462.956C 269.3246 462.5198 270.0002 462.8878 269.768 463.327C 269.2343 464.336 269.7826 465.6218 270.9124 465.9018C 271.5306 466.0541 272.195 465.8592 272.6302 465.4007C 272.865 465.1545 273.0082 464.8268 273.1691 464.5315C 273.338 464.2213 273.507 463.9111 273.676 463.6009C 273.9136 463.1647 274.5892 463.5328 274.357 463.9719C 273.9467 464.7478 274.1542 465.7514 274.8888 466.2675C 275.7615 466.8799 276.9689 466.5926 277.4858 465.6762C 278.4524 463.9018 279.4183 462.1287 280.3849 460.3542C 280.88 459.4454 281.3758 458.5351 281.8709 457.6262C 282.3113 456.821 282.7712 456.0124 283.0009 455.1205zM281.9837 459.0437C 280.964 460.9156 279.945 462.7863 278.9253 464.6582C 278.6736 465.1201 278.4213 465.5834 278.1697 466.0453C 277.6116 467.0341 276.4501 467.5711 275.3284 467.2956C 274.4441 467.0773 273.7481 466.3997 273.4857 465.5488C 273.3665 465.7351 273.2297 465.9117 273.0611 466.0623C 272.4355 466.6173 271.5619 466.8528 270.7408 466.6514C 270.0228 466.4746 269.3806 465.9772 269.0566 465.3107C 268.9923 465.179 268.9406 465.0437 268.8994 464.9054C 268.7773 465.097 268.6382 465.2777 268.4654 465.433C 267.8462 465.9827 266.9906 466.2175 266.1746 466.0294C 265.4439 465.8597 264.7894 465.3557 264.4608 464.6814C 264.3991 464.5547 264.3487 464.4236 264.308 464.2907C 264.2637 464.372 264.2202 464.4519 264.1759 464.5332C 263.5701 465.6453 262.9643 466.7573 262.3593 467.8681C 262.135 468.2798 261.9114 468.6903 261.6871 469.1021C 261.5403 469.3716 261.4032 469.6394 261.2142 469.8825C 260.522 470.7772 259.2664 471.0522 258.2329 470.628C 257.3347 470.2599 256.7235 469.3684 256.6692 468.4079C 256.6272 467.6613 256.9689 467.0729 257.3069 466.4525C 257.7179 465.6981 258.1296 464.9422 258.5406 464.1877C 259.1287 463.1082 259.7167 462.0286 260.3041 460.9504C 260.9261 459.8085 261.5481 458.6666 262.1709 457.5234C 262.6844 456.5806 263.1973 455.6392 263.7108 454.6965C 263.8842 454.3781 264.0536 454.0542 264.2271 453.7358C 263.6581 453.7491 263.0878 453.7617 262.5197 453.7736C 262.2123 453.7801 261.9043 453.7879 261.5956 453.7936C 261.0912 453.8052 260.5753 453.8509 260.0883 453.691C 259.1357 453.3776 258.4693 452.5807 258.3614 451.5857C 258.2749 450.8009 258.6003 449.9699 259.1956 449.4511C 259.656 449.0502 260.1982 448.9012 260.7693 448.7346C 261.7563 448.4467 262.7454 448.1581 263.7324 447.8702C 265.7988 447.2675 267.8631 446.6654 269.9294 446.0626C 270.4439 445.9125 270.9563 445.7631 271.4708 445.613C 271.8992 445.488 272.3265 445.3326 272.7648 445.2447C 273.2184 445.1545 273.655 445.1798 274.093 445.3323C 274.5769 445.5011 275.0284 445.7488 275.4935 445.9617C 276.4715 446.4102 277.4442 446.8716 278.4162 447.3343C 279.352 447.7791 280.2958 448.2124 281.1469 448.8095C 281.9648 449.3833 282.6729 450.0711 283.157 450.9496C 283.592 451.7398 283.848 452.6187 283.9142 453.5154C 283.9865 454.4981 283.7823 455.4337 283.4012 456.3345C 282.998 457.2724 282.4685 458.1537 281.9837 459.0437z" stroke="none" fill="#000000" fill-rule="nonzero" /></g></g></g></g></g><g clip-path="url(#23)"><g clip-path="url(#24)"><g clip-path="url(#25)"><g clip-path="url(#26)"><g clip-path="url(#27)"><path id="33" transform="matrix(1 0 0 -1 0 842)" d="M263.0229 325.3575C 262.78 325.638 262.8118 326.0628 263.0942 326.3063L263.0942 326.3063L265.5534 328.4293C 265.8358 328.6727 266.2618 328.643 266.5047 328.3625C 266.7475 328.0821 266.7158 327.6573 266.4333 327.4138L266.4333 327.4138L263.9741 325.2908C 263.6924 325.0461 263.2657 325.0771 263.0229 325.3575zM259.4746 327.1081C 259.1023 327.1301 258.8201 327.4471 258.8439 327.8184L258.8439 327.8184L259.0502 331.0485C 259.0741 331.4198 259.3934 331.7027 259.7657 331.6806C 260.138 331.6586 260.4202 331.3416 260.3964 330.9703L260.3964 330.9703L260.1914 327.7409C 260.1676 327.3696 259.8469 327.086 259.4746 327.1081zM255.0912 318.2582C 255.3341 317.9777 255.3024 317.5529 255.0199 317.3094L255.0199 317.3094L252.5607 315.1865C 252.2783 314.943 251.8523 314.9727 251.6095 315.2532C 251.3666 315.5337 251.3983 315.9585 251.6808 316.2019L251.6808 316.2019L254.14 318.3249C 254.4224 318.5684 254.8484 318.5387 255.0912 318.2582zM253.698 322.1486C 253.6741 321.7773 253.3548 321.4945 252.9825 321.5165L252.9825 321.5165L249.7422 321.7063C 249.3698 321.7283 249.0876 322.0453 249.1115 322.4167C 249.1353 322.788 249.4546 323.0708 249.8269 323.0488L249.8269 323.0488L253.0652 322.8596C 253.4388 322.8383 253.7204 322.5192 253.698 322.1486zM255.5838 325.7878C 255.3013 325.5443 254.8754 325.574 254.6325 325.8545L254.6325 325.8545L252.5159 328.2971C 252.2731 328.5775 252.3048 329.0023 252.5873 329.2458C 252.8698 329.4892 253.2957 329.4595 253.5386 329.1791L253.5386 329.1791L255.6565 326.7372C 255.898 326.456 255.8662 326.0312 255.5838 325.7878zM283.0009 308.6337C 283.4165 307.0245 282.9478 305.1743 281.8337 303.9316C 281.1931 303.2173 280.3638 302.6935 279.5208 302.2502C 278.6275 301.7793 277.701 301.366 276.7876 300.9352C 276.3241 300.716 275.8598 300.4983 275.3954 300.2839C 274.9563 300.0816 274.5242 299.8568 274.0798 299.6674C 273.7256 299.5166 273.3611 299.4305 272.9774 299.5025C 272.5645 299.5797 272.1601 299.7318 271.7569 299.8494C 269.7955 300.4215 267.8342 300.9936 265.8728 301.5657C 264.1277 302.0748 262.3826 302.5838 260.6375 303.0928C 260.4066 303.1602 260.1819 303.2223 259.9727 303.3472C 259.6947 303.5137 259.4705 303.7534 259.3183 304.0393C 258.9945 304.6499 259.0514 305.4695 259.5392 305.9846C 259.8312 306.2948 260.2219 306.4953 260.6452 306.545C 260.8641 306.5711 261.095 306.5494 261.3149 306.5445C 261.5383 306.5397 261.7617 306.5349 261.9858 306.5287C 262.878 306.5089 263.7689 306.4883 264.6611 306.4684C 264.7325 306.467 264.804 306.4655 264.8754 306.464C 265.1689 306.457 265.3684 306.7782 265.2282 307.0356C 265.0489 307.3647 264.8696 307.6939 264.6903 308.0231C 264.2402 308.8493 263.7894 309.6769 263.3393 310.5032C 262.749 311.5869 262.158 312.6718 261.5677 313.7555C 260.9678 314.8567 260.3679 315.9579 259.7687 317.0579C 259.2928 317.9315 258.8169 318.8052 258.341 319.6789C 258.1144 320.0947 257.8866 320.5098 257.6614 320.9264C 257.3933 321.425 257.3559 322.0159 257.5952 322.5362C 257.9726 323.3513 258.9241 323.7607 259.7762 323.4871C 260.2813 323.3249 260.6131 322.9558 260.8581 322.5061C 261.0292 322.1919 261.2004 321.8776 261.3716 321.5634C 261.9508 320.5001 262.5301 319.4368 263.1086 318.3748C 263.5461 317.5716 263.9836 316.7683 264.4212 315.9651C 264.4441 315.9231 264.4677 315.8797 264.4906 315.8377C 264.7281 315.4016 265.4038 315.7696 265.1716 316.2087C 264.6386 317.2164 265.184 318.5077 266.3139 318.7842C 266.9343 318.9359 267.5957 318.743 268.0317 318.2831C 268.2715 318.0309 268.4207 317.6923 268.5852 317.3902C 268.7527 317.0828 268.9195 316.7766 269.087 316.4691C 269.3246 316.033 270.0002 316.401 269.768 316.8401C 269.2343 317.8492 269.7826 319.135 270.9124 319.415C 271.5306 319.5673 272.195 319.3724 272.6302 318.9139C 272.865 318.6677 273.0082 318.34 273.1691 318.0446C 273.338 317.7345 273.507 317.4243 273.676 317.1141C 273.9136 316.6779 274.5892 317.046 274.357 317.4851C 273.9467 318.261 274.1542 319.2646 274.8888 319.7806C 275.7615 320.3931 276.9689 320.1058 277.4858 319.1894C 278.4524 317.415 279.4183 315.6419 280.3849 313.8674C 280.88 312.9586 281.3758 312.0483 281.8709 311.1394C 282.3113 310.3342 282.7712 309.5256 283.0009 308.6337zM281.9837 312.5569C 280.964 314.4288 279.945 316.2994 278.9253 318.1714C 278.6736 318.6333 278.4213 319.0966 278.1697 319.5585C 277.6116 320.5472 276.4501 321.0843 275.3284 320.8088C 274.4441 320.5905 273.7481 319.9128 273.4857 319.062C 273.3665 319.2483 273.2297 319.4249 273.0611 319.5755C 272.4355 320.1305 271.5619 320.366 270.7408 320.1646C 270.0228 319.9878 269.3806 319.4904 269.0566 318.8239C 268.9923 318.6922 268.9406 318.5569 268.8994 318.4185C 268.7773 318.6102 268.6382 318.7909 268.4654 318.9462C 267.8462 319.4959 266.9906 319.7307 266.1746 319.5426C 265.4439 319.3729 264.7894 318.8689 264.4608 318.1945C 264.3991 318.0678 264.3487 317.9367 264.308 317.8039C 264.2637 317.8852 264.2202 317.9651 264.1759 318.0464C 263.5701 319.1584 262.9643 320.2705 262.3593 321.3813C 262.135 321.793 261.9114 322.2035 261.6871 322.6152C 261.5403 322.8848 261.4032 323.1526 261.2142 323.3957C 260.522 324.2903 259.2664 324.5654 258.2329 324.1412C 257.3347 323.7731 256.7235 322.8816 256.6692 321.9211C 256.6272 321.1745 256.9689 320.5861 257.3069 319.9657C 257.7179 319.2112 258.1296 318.4554 258.5406 317.7009C 259.1287 316.6213 259.7167 315.5418 260.3041 314.4636C 260.9261 313.3217 261.5481 312.1798 262.1709 311.0366C 262.6844 310.0938 263.1973 309.1524 263.7108 308.2097C 263.8842 307.8913 264.0536 307.5674 264.2271 307.249C 263.6581 307.2623 263.0878 307.2748 262.5197 307.2868C 262.2123 307.2932 261.9043 307.3011 261.5956 307.3068C 261.0912 307.3184 260.5753 307.364 260.0883 307.2042C 259.1357 306.8907 258.4693 306.0939 258.3614 305.0989C 258.2749 304.3141 258.6003 303.4831 259.1956 302.9643C 259.656 302.5634 260.1982 302.4144 260.7693 302.2477C 261.7563 301.9598 262.7454 301.6713 263.7324 301.3834C 265.7988 300.7807 267.8631 300.1786 269.9294 299.5758C 270.4439 299.4257 270.9563 299.2762 271.4708 299.1262C 271.8992 299.0012 272.3265 298.8458 272.7648 298.7578C 273.2184 298.6677 273.655 298.693 274.093 298.8455C 274.5769 299.0143 275.0284 299.262 275.4935 299.4749C 276.4715 299.9234 277.4442 300.3847 278.4162 300.8474C 279.352 301.2922 280.2958 301.7256 281.1469 302.3227C 281.9648 302.8965 282.6729 303.5843 283.157 304.4627C 283.592 305.253 283.848 306.1319 283.9142 307.0286C 283.9865 308.0113 283.7823 308.9469 283.4012 309.8477C 282.998 310.7856 282.4685 311.6669 281.9837 312.5569z" stroke="none" fill="#000000" fill-rule="nonzero" /></g></g></g></g></g><g clip-path="url(#28)"><g clip-path="url(#29)"><g clip-path="url(#30)"><g clip-path="url(#31)"><path id="34" transform="matrix(1 0 0 -1 0 842)" d="M319.6224 511.0583L462.313 511.0583L462.313 461.6283L319.6224 461.6283z" stroke="none" fill="#7ED957" fill-rule="nonzero" /></g></g></g></g><g clip-path="url(#32)"></g><g clip-path="url(#33)"><g clip-path="url(#34)"><g clip-path="url(#35)"><g clip-path="url(#36)"><g clip-path="url(#37)"><path id="40" transform="matrix(1 0 0 -1 0 842)" d="M459.3297 469.2426C 459.0868 469.5231 459.1186 469.9479 459.4011 470.1913L459.4011 470.1913L461.8603 472.3142C 462.1427 472.5577 462.5687 472.528 462.8115 472.2476C 463.0544 471.9671 463.0226 471.5423 462.7401 471.2989L462.7401 471.2989L460.2809 469.176C 459.9992 468.9312 459.5725 468.9622 459.3297 469.2426zM455.7816 470.9929C 455.4093 471.0149 455.1271 471.3318 455.1509 471.7031L455.1509 471.7031L455.3574 474.933C 455.3812 475.3043 455.7005 475.5872 456.0728 475.5652C 456.4451 475.5432 456.7273 475.2262 456.7035 474.8549L456.7035 474.8549L456.4984 471.6257C 456.4745 471.2544 456.1539 470.9709 455.7816 470.9929zM451.398 462.1435C 451.6408 461.863 451.609 461.4382 451.3266 461.1948L451.3266 461.1948L448.8674 459.0719C 448.5849 458.8284 448.159 458.8581 447.9161 459.1385C 447.6733 459.419 447.7051 459.8438 447.9875 460.0872L447.9875 460.0872L450.4467 462.2101C 450.7292 462.4536 451.1551 462.4239 451.398 462.1435zM450.0049 466.0336C 449.981 465.6623 449.6617 465.3795 449.2894 465.4015L449.2894 465.4015L446.0491 465.5912C 445.6768 465.6132 445.3947 465.9301 445.4185 466.3014C 445.4423 466.6727 445.7616 466.9555 446.1339 466.9335L446.1339 466.9335L449.3721 466.7444C 449.7458 466.7232 450.0273 466.4041 450.0049 466.0336zM451.8908 469.6725C 451.6083 469.4291 451.1824 469.4588 450.9395 469.7392L450.9395 469.7392L448.8231 472.1815C 448.5803 472.4619 448.6121 472.8867 448.8945 473.1302C 449.177 473.3736 449.6029 473.344 449.8458 473.0635L449.8458 473.0635L451.9635 470.6219C 452.205 470.3408 452.1732 469.916 451.8908 469.6725zM479.3067 452.5208C 479.7222 450.9117 479.2534 449.0616 478.1393 447.8189C 477.4986 447.1046 476.6694 446.5809 475.8264 446.1375C 474.933 445.6667 474.0066 445.2534 473.0932 444.8225C 472.6297 444.6034 472.1654 444.3856 471.701 444.1713C 471.2619 443.969 470.8298 443.7441 470.3854 443.5547C 470.0313 443.404 469.6667 443.3178 469.283 443.3898C 468.8701 443.4669 468.4658 443.619 468.0626 443.7366C 466.1013 444.3086 464.14 444.8806 462.1786 445.4526C 460.4336 445.9616 458.6886 446.4705 456.9435 446.9794C 456.7126 447.0468 456.488 447.1089 456.2787 447.2337C 456.0008 447.4002 455.7766 447.6399 455.6244 447.9258C 455.3006 448.5363 455.3576 449.3559 455.8453 449.871C 456.1374 450.1811 456.528 450.3816 456.9514 450.4313C 457.1703 450.4575 457.4011 450.4357 457.6211 450.4308C 457.8445 450.4261 458.0678 450.4213 458.292 450.4152C 459.1841 450.3953 460.075 450.3748 460.9671 450.3549C 461.0386 450.3535 461.11 450.352 461.1815 450.3505C 461.475 450.3436 461.6745 450.6647 461.5343 450.9221C 461.355 451.2512 461.1757 451.5803 460.9964 451.9095C 460.5464 452.7357 460.0956 453.5632 459.6455 454.3894C 459.0553 455.4729 458.4643 456.5578 457.8741 457.6413C 457.2742 458.7425 456.6744 459.8436 456.0753 460.9434C 455.5995 461.817 455.1236 462.6906 454.6477 463.5642C 454.4212 463.98 454.1933 464.3951 453.9682 464.8116C 453.7001 465.3102 453.6627 465.901 453.9021 466.4213C 454.2794 467.2363 455.231 467.6457 456.083 467.3722C 456.5882 467.2101 456.9199 466.841 457.1648 466.3914C 457.336 466.0771 457.5072 465.7629 457.6783 465.4487C 458.2575 464.3855 458.8367 463.3222 459.4151 462.2604C 459.8526 461.4572 460.2901 460.6541 460.7277 459.8509C 460.7505 459.8089 460.7741 459.7656 460.797 459.7236C 461.0346 459.2874 461.7102 459.6555 461.4781 460.0946C 460.9451 461.1021 461.4905 462.3933 462.6204 462.6699C 463.2408 462.8216 463.9022 462.6287 464.3382 462.1689C 464.578 461.9167 464.7271 461.5781 464.8916 461.2761C 465.0591 460.9687 465.2258 460.6626 465.3933 460.3551C 465.6309 459.919 466.3065 460.287 466.0744 460.7261C 465.5406 461.735 466.089 463.0208 467.2188 463.3008C 467.8371 463.4532 468.5014 463.2583 468.9366 462.7998C 469.1714 462.5536 469.3145 462.2259 469.4754 461.9307C 469.6443 461.6205 469.8133 461.3103 469.9822 461.0002C 470.2198 460.5641 470.8954 460.9321 470.6633 461.3712C 470.2531 462.147 470.4606 463.1505 471.1951 463.6666C 472.0679 464.279 473.2753 463.9918 473.7921 463.0755C 474.7586 461.3012 475.7244 459.5283 476.6909 457.754C 477.1859 456.8452 477.6817 455.9351 478.1768 455.0262C 478.6172 454.2211 479.077 453.4125 479.3067 452.5208zM478.2896 456.4436C 477.27 458.3154 476.2511 460.1858 475.2315 462.0576C 474.9799 462.5195 474.7276 462.9827 474.476 463.4445C 473.918 464.4332 472.7564 464.9702 471.6348 464.6947C 470.7505 464.4764 470.0545 463.7987 469.792 462.9479C 469.6729 463.1342 469.5361 463.3108 469.3675 463.4614C 468.742 464.0163 467.8683 464.2518 467.0472 464.0504C 466.3293 463.8735 465.687 463.3762 465.363 462.7096C 465.2987 462.578 465.247 462.4427 465.2058 462.3044C 465.0837 462.496 464.9447 462.6767 464.7718 462.8319C 464.1527 463.3816 463.2971 463.6163 462.4811 463.4282C 461.7504 463.2585 461.0959 462.7545 460.7673 462.0802C 460.7056 461.9535 460.6552 461.8224 460.6145 461.6896C 460.5702 461.7708 460.5267 461.8508 460.4824 461.932C 459.8767 463.044 459.271 464.156 458.666 465.2666C 458.4417 465.6783 458.2181 466.0887 457.9938 466.5005C 457.847 466.77 457.71 467.0378 457.521 467.2809C 456.8289 468.1754 455.5733 468.4504 454.5398 468.0262C 453.6416 467.6581 453.0304 466.7666 452.976 465.8062C 452.934 465.0597 453.2757 464.4713 453.6136 463.851C 454.0246 463.0966 454.4363 462.3408 454.8472 461.5864C 455.4352 460.5069 456.0233 459.4274 456.6106 458.3493C 457.2325 457.2076 457.8545 456.0658 458.4772 454.9227C 458.9907 453.98 459.5034 453.0387 460.017 452.096C 460.1903 451.7777 460.3597 451.4537 460.5331 451.1355C 459.9642 451.1487 459.394 451.1612 458.8258 451.1731C 458.5185 451.1796 458.2104 451.1874 457.9017 451.1931C 457.3973 451.2047 456.8814 451.2503 456.3945 451.0904C 455.4419 450.777 454.7755 449.9802 454.6675 448.9852C 454.581 448.2005 454.9064 447.3696 455.5016 446.8508C 455.962 446.45 456.5042 446.301 457.0753 446.1344C 458.0623 445.8466 459.0514 445.5581 460.0383 445.2703C 462.1046 444.6676 464.1688 444.0656 466.2351 443.463C 466.7496 443.313 467.262 443.1635 467.7765 443.0135C 468.2048 442.8885 468.6321 442.7332 469.0704 442.6452C 469.524 442.5551 469.9606 442.5804 470.3986 442.7329C 470.8825 442.9017 471.334 443.1494 471.799 443.3623C 472.777 443.8108 473.7498 444.2722 474.7217 444.7349C 475.6576 445.1797 476.6014 445.613 477.4525 446.2101C 478.2704 446.7839 478.9785 447.4717 479.4626 448.3501C 479.8976 449.1403 480.1536 450.0192 480.2198 450.9158C 480.2922 451.8984 480.0881 452.834 479.707 453.7346C 479.3039 454.6725 478.7744 455.5537 478.2896 456.4436z" stroke="none" fill="#000000" fill-rule="nonzero" /></g></g></g></g></g><g clip-path="url(#38)"><g clip-path="url(#39)"><g clip-path="url(#40)"><g clip-path="url(#41)"><path id="41" transform="matrix(1 0 0 -1 0 842)" d="M319.6224 371.2634L462.1757 371.2634L462.1757 324.9517L319.6224 324.9517z" stroke="none" fill="#7ED957" fill-rule="nonzero" /></g></g></g></g><g clip-path="url(#42)"></g><g clip-path="url(#43)"><g clip-path="url(#44)"><g clip-path="url(#45)"><g clip-path="url(#46)"><g clip-path="url(#47)"><path id="47" transform="matrix(1 0 0 -1 0 842)" d="M459.3297 335.0335C 459.0868 335.314 459.1186 335.7388 459.4011 335.9822L459.4011 335.9822L461.8603 338.1051C 462.1427 338.3486 462.5687 338.3189 462.8115 338.0385C 463.0544 337.758 463.0226 337.3332 462.7401 337.0898L462.7401 337.0898L460.2809 334.9669C 459.9992 334.7221 459.5725 334.7531 459.3297 335.0335zM455.7816 336.7838C 455.4093 336.8058 455.1271 337.1227 455.1509 337.494L455.1509 337.494L455.3574 340.7239C 455.3812 341.0952 455.7005 341.3781 456.0728 341.356C 456.4451 341.334 456.7273 341.0171 456.7035 340.6458L456.7035 340.6458L456.4984 337.4166C 456.4745 337.0453 456.1539 336.7617 455.7816 336.7838zM451.398 327.9344C 451.6408 327.6539 451.609 327.2291 451.3266 326.9857L451.3266 326.9857L448.8674 324.8628C 448.5849 324.6193 448.159 324.649 447.9161 324.9294C 447.6733 325.2099 447.7051 325.6347 447.9875 325.8781L447.9875 325.8781L450.4467 328.001C 450.7292 328.2445 451.1551 328.2148 451.398 327.9344zM450.0049 331.8245C 449.981 331.4532 449.6617 331.1703 449.2894 331.1924L449.2894 331.1924L446.0491 331.382C 445.6768 331.4041 445.3947 331.721 445.4185 332.0923C 445.4423 332.4636 445.7616 332.7464 446.1339 332.7244L446.1339 332.7244L449.3721 332.5353C 449.7458 332.5141 450.0273 332.195 450.0049 331.8245zM451.8908 335.4634C 451.6083 335.22 451.1824 335.2497 450.9395 335.5301L450.9395 335.5301L448.8231 337.9724C 448.5803 338.2528 448.6121 338.6776 448.8945 338.9211C 449.177 339.1645 449.6029 339.1349 449.8458 338.8544L449.8458 338.8544L451.9635 336.4128C 452.205 336.1317 452.1732 335.7069 451.8908 335.4634zM479.3067 318.3116C 479.7222 316.7026 479.2534 314.8525 478.1393 313.6098C 477.4986 312.8955 476.6694 312.3718 475.8264 311.9284C 474.933 311.4576 474.0066 311.0443 473.0932 310.6134C 472.6297 310.3943 472.1654 310.1765 471.701 309.9622C 471.2619 309.7599 470.8298 309.535 470.3854 309.3456C 470.0313 309.1949 469.6667 309.1087 469.283 309.1807C 468.8701 309.2578 468.4658 309.4099 468.0626 309.5275C 466.1013 310.0995 464.14 310.6715 462.1786 311.2435C 460.4336 311.7525 458.6886 312.2614 456.9435 312.7703C 456.7126 312.8377 456.488 312.8997 456.2787 313.0246C 456.0008 313.1911 455.7766 313.4308 455.6244 313.7167C 455.3006 314.3272 455.3576 315.1468 455.8453 315.6619C 456.1374 315.972 456.528 316.1725 456.9514 316.2222C 457.1703 316.2484 457.4011 316.2266 457.6211 316.2217C 457.8445 316.2169 458.0678 316.2122 458.292 316.2061C 459.1841 316.1862 460.075 316.1657 460.9671 316.1458C 461.0386 316.1444 461.11 316.1429 461.1815 316.1414C 461.475 316.1345 461.6745 316.4556 461.5343 316.713C 461.355 317.0421 461.1757 317.3712 460.9964 317.7003C 460.5464 318.5266 460.0956 319.3541 459.6455 320.1803C 459.0553 321.2638 458.4643 322.3487 457.8741 323.4322C 457.2742 324.5334 456.6744 325.6345 456.0753 326.7343C 455.5995 327.6079 455.1236 328.4815 454.6477 329.3551C 454.4212 329.7709 454.1933 330.1859 453.9682 330.6025C 453.7001 331.101 453.6627 331.6919 453.9021 332.2122C 454.2794 333.0272 455.231 333.4366 456.083 333.1631C 456.5882 333.0009 456.9199 332.6319 457.1648 332.1823C 457.336 331.868 457.5072 331.5538 457.6783 331.2396C 458.2575 330.1764 458.8367 329.1131 459.4151 328.0513C 459.8526 327.2481 460.2901 326.4449 460.7277 325.6418C 460.7505 325.5998 460.7741 325.5565 460.797 325.5145C 461.0346 325.0783 461.7102 325.4464 461.4781 325.8855C 460.9451 326.893 461.4905 328.1842 462.6204 328.4608C 463.2408 328.6125 463.9022 328.4196 464.3382 327.9598C 464.578 327.7076 464.7271 327.369 464.8916 327.067C 465.0591 326.7596 465.2258 326.4535 465.3933 326.146C 465.6309 325.7099 466.3065 326.0779 466.0744 326.517C 465.5406 327.5259 466.089 328.8117 467.2188 329.0917C 467.8371 329.244 468.5014 329.0492 468.9366 328.5907C 469.1714 328.3445 469.3145 328.0168 469.4754 327.7216C 469.6443 327.4114 469.8133 327.1012 469.9822 326.7911C 470.2198 326.3549 470.8954 326.723 470.6633 327.1621C 470.2531 327.9379 470.4606 328.9414 471.1951 329.4575C 472.0679 330.0699 473.2753 329.7827 473.7921 328.8664C 474.7586 327.0921 475.7244 325.3192 476.6909 323.5449C 477.1859 322.6361 477.6817 321.726 478.1768 320.8171C 478.6172 320.012 479.077 319.2034 479.3067 318.3116zM478.2896 322.2345C 477.27 324.1063 476.2511 325.9767 475.2315 327.8485C 474.9799 328.3104 474.7276 328.7736 474.476 329.2354C 473.918 330.2241 472.7564 330.7611 471.6348 330.4856C 470.7505 330.2673 470.0545 329.5896 469.792 328.7388C 469.6729 328.9251 469.5361 329.1017 469.3675 329.2523C 468.742 329.8072 467.8683 330.0427 467.0472 329.8412C 466.3293 329.6644 465.687 329.1671 465.363 328.5005C 465.2987 328.3689 465.247 328.2336 465.2058 328.0952C 465.0837 328.2869 464.9447 328.4676 464.7718 328.6228C 464.1527 329.1725 463.2971 329.4072 462.4811 329.2191C 461.7504 329.0494 461.0959 328.5454 460.7673 327.8711C 460.7056 327.7444 460.6552 327.6133 460.6145 327.4805C 460.5702 327.5617 460.5267 327.6417 460.4824 327.7229C 459.8767 328.8349 459.271 329.9469 458.666 331.0575C 458.4417 331.4692 458.2181 331.8796 457.9938 332.2914C 457.847 332.5609 457.71 332.8287 457.521 333.0718C 456.8289 333.9663 455.5733 334.2413 454.5398 333.8171C 453.6416 333.449 453.0304 332.5575 452.976 331.597C 452.934 330.8506 453.2757 330.2622 453.6136 329.6418C 454.0246 328.8875 454.4363 328.1317 454.8472 327.3773C 455.4352 326.2978 456.0233 325.2183 456.6106 324.1402C 457.2325 322.9984 457.8545 321.8567 458.4772 320.7136C 458.9907 319.7709 459.5034 318.8296 460.017 317.8869C 460.1903 317.5686 460.3597 317.2446 460.5331 316.9264C 459.9642 316.9396 459.394 316.9521 458.8258 316.964C 458.5185 316.9705 458.2104 316.9783 457.9017 316.984C 457.3973 316.9956 456.8814 317.0412 456.3945 316.8813C 455.4419 316.5679 454.7755 315.7711 454.6675 314.7761C 454.581 313.9914 454.9064 313.1605 455.5016 312.6417C 455.962 312.2409 456.5042 312.0919 457.0753 311.9253C 458.0623 311.6375 459.0514 311.349 460.0383 311.0612C 462.1046 310.4585 464.1688 309.8565 466.2351 309.2539C 466.7496 309.1039 467.262 308.9544 467.7765 308.8044C 468.2048 308.6794 468.6321 308.524 469.0704 308.4361C 469.524 308.346 469.9606 308.3713 470.3986 308.5238C 470.8825 308.6926 471.334 308.9403 471.799 309.1532C 472.777 309.6017 473.7498 310.063 474.7217 310.5258C 475.6576 310.9706 476.6014 311.4039 477.4525 312.001C 478.2704 312.5748 478.9785 313.2626 479.4626 314.141C 479.8976 314.9312 480.1536 315.8101 480.2198 316.7067C 480.2922 317.6893 480.0881 318.6249 479.707 319.5255C 479.3039 320.4633 478.7744 321.3446 478.2896 322.2345z" stroke="none" fill="#000000" fill-rule="nonzero" /></g></g></g></g></g><g clip-path="url(#48)"><g clip-path="url(#49)"><g clip-path="url(#50)"><g clip-path="url(#51)"><path id="48" transform="matrix(1 0 0 -1 0 842)" d="M55.42529 211.9875L560.1984 211.9875L560.1984 167.5049L55.42529 167.5049z" stroke="none" fill="#7ED957" fill-rule="nonzero" /></g></g></g></g><g clip-path="url(#52)"></g></g></g></svg>