<svg xmlns="http://www.w3.org/2000/svg" xmlns:xlink="http://www.w3.org/1999/xlink" id="body_1" preserveAspectRatio="xMinYMin meet" viewBox="0 0 793 1123"><defs><clipPath id="1"><path id="" clip-rule="evenodd" transform="matrix(1 0 0 1 0 0)" d="M0 842L0 -0.25L0 -0.25L595.5 -0.25L595.5 -0.25L595.5 842L595.5 842L0 842z" /></clipPath><clipPath id="2"><path id="" clip-rule="evenodd" transform="matrix(1 0 0 1 0 0)" d="M0 -0.249939L595.5 -0.249939L595.5 -0.249939L595.5 842.0001L595.5 842.0001L0 842.0001z" /></clipPath><clipPath id="3"><path id="" clip-rule="evenodd" transform="matrix(1 0 0 1 0 0)" d="M0 -0.249939L595.5 -0.249939L595.5 -0.249939L595.5 842.0001L595.5 842.0001L0 842.0001z" /></clipPath><clipPath id="4"><path id="" clip-rule="evenodd" transform="matrix(1 0 0 1 0 0)" d="M0 -0.249939L595.5 -0.249939L595.5 -0.249939L595.5 842.0001L595.5 842.0001L0 842.0001z" /></clipPath><clipPath id="5"><path id="" clip-rule="evenodd" transform="matrix(1 0 0 1 0 0)" d="M79.67999 2.150085L535.92 2.150085L535.92 2.150085L535.92 806.3901L535.92 806.3901L79.67999 806.3901z" /></clipPath><clipPath id="6"><path id="" clip-rule="evenodd" transform="matrix(1 0 0 1 0 0)" d="M79.74117 2.221558L535.7411 2.221558L535.7411 2.221558L535.7411 805.4716L535.7411 805.4716L79.74117 805.4716z" /></clipPath><clipPath id="7"><path id="" clip-rule="evenodd" transform="matrix(1 0 0 1 0 0)" d="M489.3922 29.22406L571.1422 29.22406L571.1422 29.22406L571.1422 75.72406L571.1422 75.72406L489.3922 75.72406z" /></clipPath><clipPath id="8"><path id="" clip-rule="evenodd" transform="matrix(1 0 0 1 0 0)" d="M0 -0.249939L595.5 -0.249939L595.5 -0.249939L595.5 842.0001L595.5 842.0001L0 842.0001z" /></clipPath><clipPath id="9"><path id="" clip-rule="evenodd" transform="matrix(1 0 0 1 0 0)" d="M0 -0.249939L595.5 -0.249939L595.5 -0.249939L595.5 842.0001L595.5 842.0001L0 842.0001z" /></clipPath><clipPath id="10"><path id="" clip-rule="evenodd" transform="matrix(1 0 0 1 0 0)" d="M128.2303 313.7458L269.9496 313.7458L269.9496 313.7458L269.9496 362.9726L269.9496 362.9726L128.2303 362.9726z" /></clipPath><clipPath id="11"><path id="" clip-rule="evenodd" transform="matrix(1 0 0 1 0 0)" d="M140.9803 313.7458L257.1518 313.7458C 260.5333 313.7458 263.7763 315.0891 266.1674 317.4802C 268.5585 319.8713 269.9018 323.1143 269.9018 326.4958L269.9018 326.4958L269.9018 350.2226C 269.9018 353.6041 268.5585 356.8471 266.1674 359.2382C 263.7763 361.6293 260.5333 362.9726 257.1518 362.9726L257.1518 362.9726L140.9803 362.9726C 137.5988 362.9726 134.3558 361.6293 131.9647 359.2382C 129.5736 356.8471 128.2303 353.6041 128.2303 350.2226L128.2303 350.2226L128.2303 326.4958C 128.2303 323.1143 129.5736 319.8713 131.9647 317.4802C 134.3558 315.0891 137.5988 313.7458 140.9803 313.7458z" /></clipPath><clipPath id="12"><path id="" clip-rule="evenodd" transform="matrix(1 0 0 1 0 0)" d="M0 -0.249939L595.5 -0.249939L595.5 -0.249939L595.5 842.0001L595.5 842.0001L0 842.0001z" /></clipPath><clipPath id="13"><path id="" clip-rule="evenodd" transform="matrix(1 0 0 1 0 0)" d="M0 -0.249939L595.5 -0.249939L595.5 -0.249939L595.5 842.0001L595.5 842.0001L0 842.0001z" /></clipPath><clipPath id="14"><path id="" clip-rule="evenodd" transform="matrix(1 0 0 1 0 0)" d="M0 -0.249939L595.5 -0.249939L595.5 -0.249939L595.5 842.0001L595.5 842.0001L0 842.0001z" /></clipPath><clipPath id="15"><path id="" clip-rule="evenodd" transform="matrix(1 0 0 1 0 0)" d="M128.2303 454.5035L269.9496 454.5035L269.9496 454.5035L269.9496 503.7303L269.9496 503.7303L128.2303 503.7303z" /></clipPath><clipPath id="16"><path id="" clip-rule="evenodd" transform="matrix(1 0 0 1 0 0)" d="M140.9803 454.5035L257.1518 454.5035C 260.5333 454.5035 263.7763 455.8468 266.1674 458.2379C 268.5585 460.6289 269.9018 463.872 269.9018 467.2535L269.9018 467.2535L269.9018 490.9803C 269.9018 494.3618 268.5585 497.6047 266.1674 499.9958C 263.7763 502.3869 260.5333 503.7303 257.1518 503.7303L257.1518 503.7303L140.9803 503.7303C 137.5988 503.7303 134.3558 502.3869 131.9647 499.9958C 129.5736 497.6047 128.2303 494.3618 128.2303 490.9803L128.2303 490.9803L128.2303 467.2535C 128.2303 463.872 129.5736 460.6289 131.9647 458.2379C 134.3558 455.8468 137.5988 454.5035 140.9803 454.5035z" /></clipPath><clipPath id="17"><path id="" clip-rule="evenodd" transform="matrix(1 0 0 1 0 0)" d="M0 -0.249939L595.5 -0.249939L595.5 -0.249939L595.5 842.0001L595.5 842.0001L0 842.0001z" /></clipPath><clipPath id="18"><path id="" clip-rule="evenodd" transform="matrix(1 0 0 1 0 0)" d="M0 -0.249939L595.5 -0.249939L595.5 -0.249939L595.5 842.0001L595.5 842.0001L0 842.0001z" /></clipPath><clipPath id="19"><path id="" clip-rule="evenodd" transform="matrix(1 0 0 1 0 0)" d="M0 -0.249939L595.5 -0.249939L595.5 -0.249939L595.5 842.0001L595.5 842.0001L0 842.0001z" /></clipPath><clipPath id="20"><path id="" clip-rule="evenodd" transform="matrix(1 0 0 1 0 0)" d="M249.9519 352.6526L272.345 340.4543L272.345 340.4543L290.2837 373.3853L290.2837 373.3853L267.8906 385.5836L267.8906 385.5836L249.9519 352.6526z" /></clipPath><clipPath id="21"><path id="" clip-rule="evenodd" transform="matrix(1 0 0 1 0 0)" d="M249.9519 352.6526L272.345 340.4543L272.345 340.4543L290.2837 373.3853L290.2837 373.3853L267.8906 385.5836L267.8906 385.5836L249.9519 352.6526z" /></clipPath><clipPath id="22"><path id="" clip-rule="evenodd" transform="matrix(1 0 0 1 0 0)" d="M249.9519 352.6526L272.345 340.4543L272.345 340.4543L290.2837 373.3853L290.2837 373.3853L267.8906 385.5836L267.8906 385.5836L249.9519 352.6526z" /></clipPath><clipPath id="23"><path id="" clip-rule="evenodd" transform="matrix(1 0 0 1 0 0)" d="M0 -0.249939L595.5 -0.249939L595.5 -0.249939L595.5 842.0001L595.5 842.0001L0 842.0001z" /></clipPath><clipPath id="24"><path id="" clip-rule="evenodd" transform="matrix(1 0 0 1 0 0)" d="M0 -0.249939L595.5 -0.249939L595.5 -0.249939L595.5 842.0001L595.5 842.0001L0 842.0001z" /></clipPath><clipPath id="25"><path id="" clip-rule="evenodd" transform="matrix(1 0 0 1 0 0)" d="M249.9519 499.1394L272.345 486.9411L272.345 486.9411L290.2837 519.8722L290.2837 519.8722L267.8906 532.0704L267.8906 532.0704L249.9519 499.1394z" /></clipPath><clipPath id="26"><path id="" clip-rule="evenodd" transform="matrix(1 0 0 1 0 0)" d="M249.9519 499.1394L272.345 486.9411L272.345 486.9411L290.2837 519.8722L290.2837 519.8722L267.8906 532.0704L267.8906 532.0704L249.9519 499.1394z" /></clipPath><clipPath id="27"><path id="" clip-rule="evenodd" transform="matrix(1 0 0 1 0 0)" d="M249.9519 499.1394L272.345 486.9411L272.345 486.9411L290.2837 519.8722L290.2837 519.8722L267.8906 532.0704L267.8906 532.0704L249.9519 499.1394z" /></clipPath><clipPath id="28"><path id="" clip-rule="evenodd" transform="matrix(1 0 0 1 0 0)" d="M0 -0.249939L595.5 -0.249939L595.5 -0.249939L595.5 842.0001L595.5 842.0001L0 842.0001z" /></clipPath><clipPath id="29"><path id="" clip-rule="evenodd" transform="matrix(1 0 0 1 0 0)" d="M0 -0.249939L595.5 -0.249939L595.5 -0.249939L595.5 842.0001L595.5 842.0001L0 842.0001z" /></clipPath><clipPath id="30"><path id="" clip-rule="evenodd" transform="matrix(1 0 0 1 0 0)" d="M323.7247 313.7458L466.4152 313.7458L466.4152 313.7458L466.4152 363.1758L466.4152 363.1758L323.7247 363.1758z" /></clipPath><clipPath id="31"><path id="" clip-rule="evenodd" transform="matrix(1 0 0 1 0 0)" d="M336.4747 313.7458L453.591 313.7458C 456.9725 313.7458 460.2155 315.0891 462.6066 317.4802C 464.9977 319.8713 466.341 323.1143 466.341 326.4958L466.341 326.4958L466.341 350.4258C 466.341 353.8073 464.9977 357.0503 462.6066 359.4414C 460.2155 361.8325 456.9725 363.1758 453.591 363.1758L453.591 363.1758L336.4747 363.1758C 333.0932 363.1758 329.8502 361.8325 327.4591 359.4414C 325.068 357.0503 323.7247 353.8073 323.7247 350.4258L323.7247 350.4258L323.7247 326.4958C 323.7247 323.1143 325.068 319.8713 327.4591 317.4802C 329.8502 315.0891 333.0932 313.7458 336.4747 313.7458z" /></clipPath><clipPath id="32"><path id="" clip-rule="evenodd" transform="matrix(1 0 0 1 0 0)" d="M0 -0.249939L595.5 -0.249939L595.5 -0.249939L595.5 842.0001L595.5 842.0001L0 842.0001z" /></clipPath><clipPath id="33"><path id="" clip-rule="evenodd" transform="matrix(1 0 0 1 0 0)" d="M0 -0.249939L595.5 -0.249939L595.5 -0.249939L595.5 842.0001L595.5 842.0001L0 842.0001z" /></clipPath><clipPath id="34"><path id="" clip-rule="evenodd" transform="matrix(1 0 0 1 0 0)" d="M0 -0.249939L595.5 -0.249939L595.5 -0.249939L595.5 842.0001L595.5 842.0001L0 842.0001z" /></clipPath><clipPath id="35"><path id="" clip-rule="evenodd" transform="matrix(1 0 0 1 0 0)" d="M446.2582 355.2534L468.6513 343.0551L468.6513 343.0551L486.59 375.9862L486.59 375.9862L464.1969 388.1845L464.1969 388.1845L446.2582 355.2534z" /></clipPath><clipPath id="36"><path id="" clip-rule="evenodd" transform="matrix(1 0 0 1 0 0)" d="M446.2582 355.2534L468.6513 343.0551L468.6513 343.0551L486.59 375.9862L486.59 375.9862L464.1969 388.1845L464.1969 388.1845L446.2582 355.2534z" /></clipPath><clipPath id="37"><path id="" clip-rule="evenodd" transform="matrix(1 0 0 1 0 0)" d="M446.2582 355.2534L468.6513 343.0551L468.6513 343.0551L486.59 375.9862L486.59 375.9862L464.1969 388.1845L464.1969 388.1845L446.2582 355.2534z" /></clipPath><clipPath id="38"><path id="" clip-rule="evenodd" transform="matrix(1 0 0 1 0 0)" d="M0 -0.249939L595.5 -0.249939L595.5 -0.249939L595.5 842.0001L595.5 842.0001L0 842.0001z" /></clipPath><clipPath id="39"><path id="" clip-rule="evenodd" transform="matrix(1 0 0 1 0 0)" d="M0 -0.249939L595.5 -0.249939L595.5 -0.249939L595.5 842.0001L595.5 842.0001L0 842.0001z" /></clipPath><clipPath id="40"><path id="" clip-rule="evenodd" transform="matrix(1 0 0 1 0 0)" d="M323.7247 453.5407L466.4588 453.5407L466.4588 453.5407L466.4588 499.8524L466.4588 499.8524L323.7247 499.8524z" /></clipPath><clipPath id="41"><path id="" clip-rule="evenodd" transform="matrix(1 0 0 1 0 0)" d="M336.4747 453.5407L453.591 453.5407C 456.9725 453.5407 460.2155 454.884 462.6066 457.2751C 464.9977 459.6662 466.341 462.9092 466.341 466.2907L466.341 466.2907L466.341 487.1024C 466.341 490.4839 464.9977 493.727 462.6066 496.118C 460.2155 498.5091 456.9725 499.8524 453.591 499.8524L453.591 499.8524L336.4747 499.8524C 333.0932 499.8524 329.8502 498.5091 327.4591 496.118C 325.068 493.727 323.7247 490.4839 323.7247 487.1024L323.7247 487.1024L323.7247 466.2907C 323.7247 462.9092 325.068 459.6662 327.4591 457.2751C 329.8502 454.884 333.0932 453.5407 336.4747 453.5407z" /></clipPath><clipPath id="42"><path id="" clip-rule="evenodd" transform="matrix(1 0 0 1 0 0)" d="M0 -0.249939L595.5 -0.249939L595.5 -0.249939L595.5 842.0001L595.5 842.0001L0 842.0001z" /></clipPath><clipPath id="43"><path id="" clip-rule="evenodd" transform="matrix(1 0 0 1 0 0)" d="M0 -0.249939L595.5 -0.249939L595.5 -0.249939L595.5 842.0001L595.5 842.0001L0 842.0001z" /></clipPath><clipPath id="44"><path id="" clip-rule="evenodd" transform="matrix(1 0 0 1 0 0)" d="M0 -0.249939L595.5 -0.249939L595.5 -0.249939L595.5 842.0001L595.5 842.0001L0 842.0001z" /></clipPath><clipPath id="45"><path id="" clip-rule="evenodd" transform="matrix(1 0 0 1 0 0)" d="M446.2582 489.4626L468.6513 477.2643L468.6513 477.2643L486.59 510.1954L486.59 510.1954L464.1969 522.3936L464.1969 522.3936L446.2582 489.4626z" /></clipPath><clipPath id="46"><path id="" clip-rule="evenodd" transform="matrix(1 0 0 1 0 0)" d="M446.2582 489.4626L468.6513 477.2643L468.6513 477.2643L486.59 510.1954L486.59 510.1954L464.1969 522.3936L464.1969 522.3936L446.2582 489.4626z" /></clipPath><clipPath id="47"><path id="" clip-rule="evenodd" transform="matrix(1 0 0 1 0 0)" d="M446.2582 489.4626L468.6513 477.2643L468.6513 477.2643L486.59 510.1954L486.59 510.1954L464.1969 522.3936L464.1969 522.3936L446.2582 489.4626z" /></clipPath><clipPath id="48"><path id="" clip-rule="evenodd" transform="matrix(1 0 0 1 0 0)" d="M0 -0.249939L595.5 -0.249939L595.5 -0.249939L595.5 842.0001L595.5 842.0001L0 842.0001z" /></clipPath><clipPath id="49"><path id="" clip-rule="evenodd" transform="matrix(1 0 0 1 0 0)" d="M0 -0.249939L595.5 -0.249939L595.5 -0.249939L595.5 842.0001L595.5 842.0001L0 842.0001z" /></clipPath><clipPath id="50"><path id="" clip-rule="evenodd" transform="matrix(1 0 0 1 0 0)" d="M59.52756 612.8167L564.4745 612.8167L564.4745 612.8167L564.4745 657.2993L564.4745 657.2993L59.52756 657.2993z" /></clipPath><clipPath id="51"><path id="" clip-rule="evenodd" transform="matrix(1 0 0 1 0 0)" d="M72.27756 612.8167L551.564 612.8167C 554.9456 612.8167 558.1885 614.16 560.5797 616.551C 562.9706 618.9421 564.314 622.1851 564.314 625.5667L564.314 625.5667L564.314 644.5493C 564.314 647.9307 562.9706 651.1738 560.5797 653.5648C 558.1885 655.9559 554.9456 657.2993 551.564 657.2993L551.564 657.2993L72.27756 657.2993C 68.89605 657.2993 65.65304 655.9559 63.26194 653.5648C 60.87086 651.1738 59.52756 647.9307 59.52756 644.5493L59.52756 644.5493L59.52756 625.5667C 59.52756 622.1851 60.87086 618.9421 63.26194 616.551C 65.65304 614.16 68.89605 612.8167 72.27756 612.8167z" /></clipPath><clipPath id="52"><path id="" clip-rule="evenodd" transform="matrix(1 0 0 1 0 0)" d="M466.9116 722.8806L571.1616 722.8806L571.1616 722.8806L571.1616 827.1306L571.1616 827.1306L466.9116 827.1306z" /></clipPath><clipPath id="53"><path id="" clip-rule="evenodd" transform="matrix(1 0 0 1 0 0)" d="M9.989893 10.3642L93.98989 10.3642L93.98989 10.3642L93.98989 94.3642L93.98989 94.3642L9.989893 94.3642z" /></clipPath><clipPath id="54"><path id="" clip-rule="evenodd" transform="matrix(1 0 0 1 0 0)" d="M0 -0.249939L595.5 -0.249939L595.5 -0.249939L595.5 842.0001L595.5 842.0001L0 842.0001z" /></clipPath></defs><g transform="matrix(1.333333 0 0 1.333333 0 0)"><g clip-path="url(#1)"><g clip-path="url(#2)"><path id="1" transform="matrix(1 0 0 -1 0 842)" d="M0 842.2499L595.4999 842.2499L595.4999 -6.103516E-05L0 -6.103516E-05z" stroke="none" fill="#FFFFFF" fill-rule="nonzero" /></g><g clip-path="url(#3)"><path id="2" transform="matrix(1 0 0 -1 0 842)" d="M0 842.2499L595.4999 842.2499L595.4999 -6.103516E-05L0 -6.103516E-05z" stroke="none" fill="#E9FCFF" fill-rule="nonzero" /></g><g clip-path="url(#4)"><g><g clip-path="url(#5)"><g clip-path="url(#6)"><g transform="matrix(0 0.5281065 -0.5283893 0 535.7411 2.221619)"><g transform="matrix(1 0 0 1 0 0)"><image x="0" y="0" xlink:href="img_01.png" width="1521" height="863" /></g></g></g></g></g></g><g clip-path="url(#7)"><g transform="matrix(0.05374753 0 0 0.0538818 489.3922 29.22412)"><g transform="matrix(1 0 0 1 0 0)"><image x="0" y="0" xlink:href="img_02.png" width="1521" height="863" /></g></g></g><g clip-path="url(#8)"><g clip-path="url(#9)"><g clip-path="url(#10)"><g clip-path="url(#11)"><path id="5" transform="matrix(1 0 0 -1 0 842)" d="M128.2303 528.2542L269.9495 528.2542L269.9495 479.0274L128.2303 479.0274z" stroke="none" fill="#7ED957" fill-rule="nonzero" /></g></g></g></g><g clip-path="url(#12)"></g><g clip-path="url(#13)"><g clip-path="url(#14)"><g clip-path="url(#15)"><g clip-path="url(#16)"><path id="11" transform="matrix(1 0 0 -1 0 842)" d="M128.2303 387.4965L269.9495 387.4965L269.9495 338.2697L128.2303 338.2697z" stroke="none" fill="#7ED957" fill-rule="nonzero" /></g></g></g></g><g clip-path="url(#17)"></g><g clip-path="url(#18)"><g clip-path="url(#19)"><g clip-path="url(#20)"><g clip-path="url(#21)"><g clip-path="url(#22)"><path id="17" transform="matrix(1 0 0 -1 0 842)" d="M267.1252 489.0402C 266.8823 489.3207 266.9141 489.7455 267.1965 489.989L267.1965 489.989L269.6557 492.1119C 269.9381 492.3554 270.3641 492.3257 270.607 492.0452C 270.8498 491.7648 270.8181 491.3399 270.5356 491.0965L270.5356 491.0965L268.0764 488.9735C 267.7947 488.7287 267.368 488.7598 267.1252 489.0402zM263.5769 490.7907C 263.2046 490.8127 262.9224 491.1298 262.9462 491.5011L262.9462 491.5011L263.1525 494.7312C 263.1764 495.1025 263.4957 495.3853 263.868 495.3633C 264.2403 495.3413 264.5225 495.0243 264.4987 494.653L264.4987 494.653L264.2937 491.4236C 264.2699 491.0523 263.9492 490.7687 263.5769 490.7907zM259.1935 481.9409C 259.4364 481.6604 259.4046 481.2356 259.1222 480.9921L259.1222 480.9921L256.663 478.8691C 256.3806 478.6257 255.9546 478.6554 255.7117 478.9359C 255.4689 479.2163 255.5006 479.6411 255.7831 479.8846L255.7831 479.8846L258.2423 482.0076C 258.5247 482.251 258.9507 482.2213 259.1935 481.9409zM257.8003 485.8313C 257.7764 485.46 257.4571 485.1772 257.0848 485.1992L257.0848 485.1992L253.8445 485.389C 253.4721 485.411 253.1899 485.728 253.2138 486.0993C 253.2376 486.4706 253.5569 486.7535 253.9292 486.7314L253.9292 486.7314L257.1674 486.5422C 257.5411 486.521 257.8227 486.2018 257.8003 485.8313zM259.6861 489.4705C 259.4036 489.227 258.9777 489.2567 258.7348 489.5372L258.7348 489.5372L256.6182 491.9797C 256.3754 492.2602 256.4071 492.685 256.6896 492.9285C 256.9721 493.1719 257.398 493.1422 257.6409 492.8618L257.6409 492.8618L259.7588 490.4199C 260.0003 490.1387 259.9685 489.7139 259.6861 489.4705zM287.1032 472.3164C 287.5188 470.7072 287.05 468.857 285.936 467.6143C 285.2953 466.9 284.4661 466.3762 283.6231 465.9328C 282.7298 465.462 281.8033 465.0486 280.8899 464.6178C 280.4264 464.3987 279.9621 464.1809 279.4977 463.9666C 279.0586 463.7643 278.6265 463.5395 278.1821 463.3501C 277.8279 463.1993 277.4634 463.1131 277.0797 463.1852C 276.6667 463.2623 276.2624 463.4144 275.8592 463.532C 273.8978 464.1042 271.9365 464.6763 269.9751 465.2484C 268.23 465.7574 266.4849 466.2665 264.7398 466.7755C 264.5089 466.8429 264.2842 466.905 264.075 467.0298C 263.797 467.1964 263.5728 467.4361 263.4206 467.722C 263.0968 468.3326 263.1537 469.1522 263.6415 469.6673C 263.9335 469.9775 264.3242 470.178 264.7475 470.2277C 264.9664 470.2538 265.1973 470.2321 265.4172 470.2271C 265.6406 470.2224 265.864 470.2176 266.0881 470.2114C 266.9803 470.1916 267.8712 470.171 268.7634 470.1511C 268.8348 470.1497 268.9063 470.1482 268.9777 470.1467C 269.2712 470.1397 269.4707 470.4609 269.3305 470.7183C 269.1512 471.0474 268.9719 471.3766 268.7926 471.7057C 268.3425 472.532 267.8917 473.3596 267.4416 474.1859C 266.8513 475.2695 266.2603 476.3545 265.67 477.4381C 265.0701 478.5394 264.4702 479.6406 263.871 480.7405C 263.3951 481.6142 262.9192 482.4879 262.4433 483.3616C 262.2167 483.7774 261.9889 484.1925 261.7637 484.6091C 261.4956 485.1077 261.4582 485.6985 261.6975 486.2189C 262.0749 487.0339 263.0264 487.4434 263.8784 487.1698C 264.3836 487.0076 264.7154 486.6385 264.9604 486.1888C 265.1315 485.8746 265.3027 485.5603 265.4739 485.2461C 266.0531 484.1827 266.6324 483.1194 267.2108 482.0575C 267.6484 481.2542 268.0859 480.451 268.5235 479.6477C 268.5464 479.6057 268.57 479.5624 268.5929 479.5204C 268.8304 479.0843 269.5061 479.4523 269.2739 479.8914C 268.7409 480.8991 269.2863 482.1904 270.4162 482.4669C 271.0366 482.6186 271.698 482.4257 272.134 481.9658C 272.3738 481.7136 272.5229 481.375 272.6875 481.0729C 272.855 480.7654 273.0218 480.4593 273.1893 480.1518C 273.4268 479.7157 274.1024 480.0837 273.8703 480.5228C 273.3365 481.5319 273.8849 482.8177 275.0147 483.0977C 275.6329 483.25 276.2973 483.0551 276.7325 482.5966C 276.9673 482.3504 277.1105 482.0226 277.2714 481.7273C 277.4403 481.4171 277.6093 481.107 277.7783 480.7968C 278.0159 480.3606 278.6915 480.7286 278.4593 481.1678C 278.049 481.9437 278.2565 482.9473 278.9911 483.4633C 279.8638 484.0757 281.0712 483.7885 281.5881 482.8721C 282.5547 481.0977 283.5206 479.3246 284.4872 477.5501C 284.9823 476.6412 285.4781 475.731 285.9732 474.8221C 286.4136 474.0169 286.8735 473.2083 287.1032 472.3164zM286.086 476.2395C 285.0663 478.1115 284.0473 479.9821 283.0276 481.8541C 282.7759 482.316 282.5236 482.7792 282.272 483.2411C 281.7139 484.2299 280.5524 484.767 279.4307 484.4915C 278.5464 484.2732 277.8504 483.5955 277.588 482.7447C 277.4688 482.931 277.332 483.1076 277.1634 483.2581C 276.5378 483.8132 275.6642 484.0486 274.843 483.8473C 274.1251 483.6705 273.4829 483.1731 273.1589 482.5065C 273.0946 482.3749 273.0429 482.2396 273.0017 482.1012C 272.8796 482.2929 272.7405 482.4736 272.5677 482.6288C 271.9485 483.1786 271.0929 483.4134 270.2769 483.2253C 269.5462 483.0556 268.8917 482.5515 268.5631 481.8772C 268.5014 481.7505 268.451 481.6194 268.4103 481.4866C 268.366 481.5678 268.3225 481.6478 268.2782 481.729C 267.6724 482.8411 267.0666 483.9532 266.4616 485.0639C 266.2373 485.4757 266.0137 485.8861 265.7894 486.2979C 265.6425 486.5675 265.5055 486.8353 265.3165 487.0784C 264.6243 487.973 263.3687 488.2481 262.3352 487.8239C 261.437 487.4558 260.8258 486.5643 260.7715 485.6038C 260.7295 484.8572 261.0712 484.2688 261.4092 483.6484C 261.8202 482.8939 262.2319 482.1381 262.6429 481.3836C 263.231 480.304 263.819 479.2245 264.4064 478.1462C 265.0284 477.0044 265.6504 475.8625 266.2732 474.7193C 266.7867 473.7765 267.2996 472.8351 267.8131 471.8923C 267.9865 471.574 268.1559 471.25 268.3293 470.9317C 267.7604 470.945 267.1901 470.9575 266.6219 470.9695C 266.3146 470.9759 266.0066 470.9838 265.6978 470.9895C 265.1935 471.001 264.6776 471.0467 264.1906 470.8868C 263.238 470.5734 262.5716 469.7766 262.4637 468.7816C 262.3772 467.9967 262.7026 467.1658 263.2979 466.647C 263.7583 466.2461 264.3004 466.097 264.8716 465.9304C 265.8586 465.6425 266.8477 465.354 267.8347 465.0661C 269.9011 464.4634 271.9654 463.8612 274.0317 463.2585C 274.5462 463.1084 275.0586 462.9589 275.5731 462.8089C 276.0015 462.6839 276.4288 462.5285 276.8671 462.4405C 277.3207 462.3504 277.7573 462.3757 278.1953 462.5282C 278.6792 462.6969 279.1307 462.9446 279.5958 463.1576C 280.5738 463.606 281.5465 464.0674 282.5185 464.5301C 283.4543 464.9749 284.3981 465.4083 285.2492 466.0054C 286.0671 466.5791 286.7752 467.2669 287.2593 468.1454C 287.6943 468.9357 287.9503 469.8146 288.0164 470.7113C 288.0888 471.6939 287.8846 472.6296 287.5035 473.5303C 287.1003 474.4682 286.5708 475.3496 286.086 476.2395z" stroke="none" fill="#000000" fill-rule="nonzero" /></g></g></g></g></g><g clip-path="url(#23)"><g clip-path="url(#24)"><g clip-path="url(#25)"><g clip-path="url(#26)"><g clip-path="url(#27)"><path id="18" transform="matrix(1 0 0 -1 0 842)" d="M267.1252 342.5534C 266.8823 342.8339 266.9141 343.2587 267.1965 343.5022L267.1965 343.5022L269.6557 345.6251C 269.9381 345.8686 270.3641 345.8389 270.607 345.5584C 270.8498 345.278 270.8181 344.8531 270.5356 344.6097L270.5356 344.6097L268.0764 342.4867C 267.7947 342.2419 267.368 342.2729 267.1252 342.5534zM263.5769 344.3039C 263.2046 344.3259 262.9224 344.6429 262.9462 345.0143L262.9462 345.0143L263.1525 348.2444C 263.1764 348.6157 263.4957 348.8985 263.868 348.8765C 264.2403 348.8545 264.5225 348.5375 264.4987 348.1662L264.4987 348.1662L264.2937 344.9368C 264.2699 344.5655 263.9492 344.2819 263.5769 344.3039zM259.1935 335.454C 259.4364 335.1736 259.4046 334.7488 259.1222 334.5053L259.1222 334.5053L256.663 332.3823C 256.3806 332.1389 255.9546 332.1686 255.7117 332.449C 255.4689 332.7295 255.5006 333.1543 255.7831 333.3978L255.7831 333.3978L258.2423 335.5208C 258.5247 335.7642 258.9507 335.7345 259.1935 335.454zM257.8003 339.3445C 257.7764 338.9732 257.4571 338.6903 257.0848 338.7123L257.0848 338.7123L253.8445 338.9022C 253.4721 338.9242 253.1899 339.2412 253.2138 339.6125C 253.2376 339.9838 253.5569 340.2667 253.9292 340.2446L253.9292 340.2446L257.1674 340.0554C 257.5411 340.0341 257.8227 339.715 257.8003 339.3445zM259.6861 342.9836C 259.4036 342.7402 258.9777 342.7699 258.7348 343.0504L258.7348 343.0504L256.6182 345.4929C 256.3754 345.7734 256.4071 346.1982 256.6896 346.4417C 256.9721 346.6851 257.398 346.6554 257.6409 346.3749L257.6409 346.3749L259.7588 343.9331C 260.0003 343.6519 259.9685 343.2271 259.6861 342.9836zM287.1032 325.8296C 287.5188 324.2204 287.05 322.3702 285.936 321.1275C 285.2953 320.4131 284.4661 319.8894 283.6231 319.446C 282.7298 318.9752 281.8033 318.5618 280.8899 318.131C 280.4264 317.9119 279.9621 317.6941 279.4977 317.4798C 279.0586 317.2775 278.6265 317.0526 278.1821 316.8633C 277.8279 316.7125 277.4634 316.6263 277.0797 316.6983C 276.6667 316.7755 276.2624 316.9276 275.8592 317.0452C 273.8978 317.6174 271.9365 318.1895 269.9751 318.7616C 268.23 319.2706 266.4849 319.7797 264.7398 320.2887C 264.5089 320.3561 264.2842 320.4182 264.075 320.543C 263.797 320.7095 263.5728 320.9492 263.4206 321.2352C 263.0968 321.8457 263.1537 322.6654 263.6415 323.1805C 263.9335 323.4907 264.3242 323.6912 264.7475 323.7408C 264.9664 323.767 265.1973 323.7452 265.4172 323.7403C 265.6406 323.7355 265.864 323.7308 266.0881 323.7246C 266.9803 323.7048 267.8712 323.6842 268.7634 323.6643C 268.8348 323.6628 268.9063 323.6614 268.9777 323.6599C 269.2712 323.6529 269.4707 323.9741 269.3305 324.2315C 269.1512 324.5606 268.9719 324.8898 268.7926 325.2189C 268.3425 326.0452 267.8917 326.8728 267.4416 327.6991C 266.8513 328.7827 266.2603 329.8677 265.67 330.9513C 265.0701 332.0526 264.4702 333.1538 263.871 334.2537C 263.3951 335.1274 262.9192 336.0011 262.4433 336.8748C 262.2167 337.2906 261.9889 337.7057 261.7637 338.1223C 261.4956 338.6209 261.4582 339.2117 261.6975 339.7321C 262.0749 340.5471 263.0264 340.9565 263.8784 340.683C 264.3836 340.5208 264.7154 340.1517 264.9604 339.702C 265.1315 339.3878 265.3027 339.0735 265.4739 338.7592C 266.0531 337.6959 266.6324 336.6326 267.2108 335.5706C 267.6484 334.7674 268.0859 333.9642 268.5235 333.1609C 268.5464 333.1189 268.57 333.0756 268.5929 333.0336C 268.8304 332.5974 269.5061 332.9655 269.2739 333.4046C 268.7409 334.4123 269.2863 335.7036 270.4162 335.98C 271.0366 336.1318 271.698 335.9388 272.134 335.479C 272.3738 335.2267 272.5229 334.8882 272.6875 334.5861C 272.855 334.2786 273.0218 333.9725 273.1893 333.665C 273.4268 333.2289 274.1024 333.5969 273.8703 334.036C 273.3365 335.045 273.8849 336.3309 275.0147 336.6108C 275.6329 336.7632 276.2973 336.5683 276.7325 336.1098C 276.9673 335.8636 277.1105 335.5358 277.2714 335.2405C 277.4403 334.9303 277.6093 334.6201 277.7783 334.3099C 278.0159 333.8738 278.6915 334.2418 278.4593 334.6809C 278.049 335.4569 278.2565 336.4604 278.9911 336.9765C 279.8638 337.5889 281.0712 337.3017 281.5881 336.3853C 282.5547 334.6108 283.5206 332.8377 284.4872 331.0633C 284.9823 330.1544 285.4781 329.2442 285.9732 328.3353C 286.4136 327.5301 286.8735 326.7214 287.1032 325.8296zM286.086 329.7527C 285.0663 331.6247 284.0473 333.4953 283.0276 335.3673C 282.7759 335.8292 282.5236 336.2924 282.272 336.7543C 281.7139 337.7431 280.5524 338.2802 279.4307 338.0047C 278.5464 337.7864 277.8504 337.1087 277.588 336.2579C 277.4688 336.4442 277.332 336.6208 277.1634 336.7713C 276.5378 337.3264 275.6642 337.5618 274.843 337.3604C 274.1251 337.1837 273.4829 336.6862 273.1589 336.0197C 273.0946 335.8881 273.0429 335.7528 273.0017 335.6144C 272.8796 335.8061 272.7405 335.9868 272.5677 336.142C 271.9485 336.6918 271.0929 336.9265 270.2769 336.7385C 269.5462 336.5688 268.8917 336.0647 268.5631 335.3904C 268.5014 335.2637 268.451 335.1326 268.4103 334.9998C 268.366 335.081 268.3225 335.1609 268.2782 335.2422C 267.6724 336.3543 267.0666 337.4664 266.4616 338.5771C 266.2373 338.9889 266.0137 339.3993 265.7894 339.8111C 265.6425 340.0807 265.5055 340.3485 265.3165 340.5916C 264.6243 341.4862 263.3687 341.7613 262.3352 341.337C 261.437 340.969 260.8258 340.0775 260.7715 339.1169C 260.7295 338.3704 261.0712 337.782 261.4092 337.1616C 261.8202 336.4071 262.2319 335.6513 262.6429 334.8968C 263.231 333.8172 263.819 332.7376 264.4064 331.6594C 265.0284 330.5175 265.6504 329.3757 266.2732 328.2325C 266.7867 327.2897 267.2996 326.3483 267.8131 325.4055C 267.9865 325.0872 268.1559 324.7632 268.3293 324.4449C 267.7604 324.4582 267.1901 324.4707 266.6219 324.4826C 266.3146 324.4891 266.0066 324.4969 265.6978 324.5027C 265.1935 324.5142 264.6776 324.5599 264.1906 324.4C 263.238 324.0866 262.5716 323.2898 262.4637 322.2947C 262.3772 321.5099 262.7026 320.679 263.2979 320.1602C 263.7583 319.7593 264.3004 319.6102 264.8716 319.4436C 265.8586 319.1557 266.8477 318.8672 267.8347 318.5793C 269.9011 317.9766 271.9654 317.3744 274.0317 316.7717C 274.5462 316.6216 275.0586 316.4721 275.5731 316.3221C 276.0015 316.1971 276.4288 316.0417 276.8671 315.9537C 277.3207 315.8636 277.7573 315.8889 278.1953 316.0414C 278.6792 316.2101 279.1307 316.4578 279.5958 316.6708C 280.5738 317.1192 281.5465 317.5806 282.5185 318.0433C 283.4543 318.4881 284.3981 318.9214 285.2492 319.5186C 286.0671 320.0923 286.7752 320.7801 287.2593 321.6586C 287.6943 322.4489 287.9503 323.3278 288.0164 324.2245C 288.0888 325.2071 287.8846 326.1428 287.5035 327.0435C 287.1003 327.9814 286.5708 328.8628 286.086 329.7527z" stroke="none" fill="#000000" fill-rule="nonzero" /></g></g></g></g></g><g clip-path="url(#28)"><g clip-path="url(#29)"><g clip-path="url(#30)"><g clip-path="url(#31)"><path id="19" transform="matrix(1 0 0 -1 0 842)" d="M323.7247 528.2542L466.4152 528.2542L466.4152 478.8242L323.7247 478.8242z" stroke="none" fill="#7ED957" fill-rule="nonzero" /></g></g></g></g><g clip-path="url(#32)"></g><g clip-path="url(#33)"><g clip-path="url(#34)"><g clip-path="url(#35)"><g clip-path="url(#36)"><g clip-path="url(#37)"><path id="25" transform="matrix(1 0 0 -1 0 842)" d="M463.4319 486.4385C 463.1891 486.719 463.2209 487.1437 463.5033 487.3872L463.5033 487.3872L465.9625 489.5101C 466.245 489.7535 466.6709 489.7239 466.9138 489.4434C 467.1566 489.163 467.1248 488.7382 466.8424 488.4948L466.8424 488.4948L464.3832 486.3718C 464.1014 486.127 463.6748 486.1581 463.4319 486.4385zM459.8838 488.1887C 459.5115 488.2107 459.2293 488.5277 459.2532 488.899L459.2532 488.899L459.4596 492.1289C 459.4835 492.5002 459.8028 492.783 460.175 492.761C 460.5474 492.739 460.8296 492.422 460.8057 492.0508L460.8057 492.0508L460.6006 488.8216C 460.5768 488.4503 460.2561 488.1667 459.8838 488.1887zM455.5002 479.3393C 455.7431 479.0589 455.7113 478.6341 455.4288 478.3907L455.4288 478.3907L452.9696 476.2677C 452.6872 476.0243 452.2612 476.054 452.0184 476.3344C 451.7755 476.6149 451.8073 477.0396 452.0898 477.2831L452.0898 477.2831L454.549 479.406C 454.8314 479.6494 455.2574 479.6198 455.5002 479.3393zM454.1071 483.2294C 454.0833 482.8582 453.7639 482.5753 453.3916 482.5973L453.3916 482.5973L450.1514 482.787C 449.7791 482.809 449.4969 483.126 449.5207 483.4973C 449.5446 483.8686 449.8639 484.1514 450.2362 484.1294L450.2362 484.1294L453.4743 483.9403C 453.848 483.919 454.1296 483.6 454.1071 483.2294zM455.993 486.8684C 455.7105 486.625 455.2846 486.6546 455.0417 486.9351L455.0417 486.9351L452.9254 489.3774C 452.6825 489.6578 452.7143 490.0826 452.9967 490.326C 453.2792 490.5695 453.7052 490.5398 453.948 490.2594L453.948 490.2594L456.0658 487.8178C 456.3073 487.5366 456.2755 487.1118 455.993 486.8684zM483.4089 469.7166C 483.8244 468.1076 483.3556 466.2575 482.2415 465.0148C 481.6009 464.3005 480.7716 463.7768 479.9286 463.3334C 479.0353 462.8625 478.1088 462.4492 477.1954 462.0184C 476.7319 461.7993 476.2676 461.5815 475.8033 461.3672C 475.3642 461.1649 474.932 460.94 474.4876 460.7506C 474.1335 460.5999 473.7689 460.5136 473.3853 460.5857C 472.9723 460.6628 472.568 460.8149 472.1648 460.9325C 470.2035 461.5045 468.2422 462.0765 466.2809 462.6485C 464.5358 463.1574 462.7908 463.6664 461.0458 464.1753C 460.8148 464.2426 460.5902 464.3047 460.3809 464.4296C 460.103 464.5961 459.8788 464.8358 459.7266 465.1217C 459.4029 465.7321 459.4598 466.5518 459.9476 467.0668C 460.2396 467.377 460.6302 467.5775 461.0536 467.6272C 461.2725 467.6534 461.5034 467.6316 461.7233 467.6267C 461.9467 467.6219 462.1701 467.6171 462.3942 467.611C 463.2864 467.5912 464.1772 467.5706 465.0694 467.5508C 465.1408 467.5493 465.2123 467.5479 465.2837 467.5464C 465.5772 467.5394 465.7767 467.8606 465.6365 468.118C 465.4572 468.4471 465.278 468.7762 465.0987 469.1053C 464.6486 469.9315 464.1978 470.7591 463.7477 471.5852C 463.1575 472.6688 462.5665 473.7537 461.9763 474.8372C 461.3765 475.9383 460.7766 477.0395 460.1776 478.1393C 459.7017 479.0128 459.2258 479.8864 458.7499 480.76C 458.5234 481.1759 458.2956 481.5909 458.0704 482.0075C 457.8024 482.506 457.7649 483.0968 458.0043 483.6171C 458.3817 484.4321 459.3332 484.8416 460.1852 484.5681C 460.6904 484.4059 461.0221 484.0369 461.2671 483.5872C 461.4382 483.273 461.6094 482.9588 461.7806 482.6445C 462.3597 481.5813 462.9389 480.5181 463.5173 479.4562C 463.9549 478.6531 464.3924 477.8499 464.8299 477.0468C 464.8528 477.0048 464.8764 476.9614 464.8992 476.9194C 465.1368 476.4833 465.8124 476.8513 465.5803 477.2904C 465.0473 478.298 465.5927 479.5892 466.7227 479.8657C 467.343 480.0175 468.0045 479.8246 468.4404 479.3648C 468.6802 479.1125 468.8293 478.774 468.9938 478.472C 469.1613 478.1645 469.3281 477.8584 469.4955 477.551C 469.7331 477.1148 470.4087 477.4829 470.1766 477.922C 469.6429 478.9309 470.1913 480.2167 471.3211 480.4967C 471.9393 480.649 472.6036 480.4541 473.0388 479.9957C 473.2736 479.7495 473.4168 479.4218 473.5776 479.1265C 473.7466 478.8164 473.9155 478.5062 474.0845 478.196C 474.3221 477.7599 474.9977 478.128 474.7655 478.567C 474.3553 479.3429 474.5628 480.3464 475.2974 480.8625C 476.1701 481.4749 477.3775 481.1877 477.8943 480.2714C 478.8608 478.4971 479.8266 476.7242 480.7931 474.9499C 481.2882 474.0411 481.784 473.1309 482.2791 472.2221C 482.7194 471.417 483.1793 470.6084 483.4089 469.7166zM482.3919 473.6394C 481.3723 475.5113 480.3533 477.3817 479.3337 479.2535C 479.0821 479.7154 478.8298 480.1786 478.5782 480.6404C 478.0202 481.6291 476.8587 482.1661 475.737 481.8906C 474.8527 481.6723 474.1568 480.9946 473.8943 480.1438C 473.7751 480.3301 473.6383 480.5067 473.4698 480.6572C 472.8442 481.2122 471.9706 481.4476 471.1494 481.2462C 470.4315 481.0694 469.7893 480.572 469.4653 479.9055C 469.401 479.7739 469.3492 479.6386 469.308 479.5002C 469.186 479.6919 469.0469 479.8726 468.8741 480.0278C 468.2549 480.5775 467.3994 480.8122 466.5833 480.6241C 465.8527 480.4544 465.1982 479.9503 464.8696 479.2761C 464.8079 479.1494 464.7574 479.0182 464.7167 478.8854C 464.6725 478.9667 464.6289 479.0466 464.5847 479.1279C 463.9789 480.2399 463.3732 481.3518 462.7682 482.4625C 462.5439 482.8742 462.3204 483.2846 462.0961 483.6963C 461.9492 483.9659 461.8122 484.2337 461.6233 484.4767C 460.9311 485.3713 459.6756 485.6463 458.642 485.222C 457.7439 484.854 457.1326 483.9625 457.0782 483.002C 457.0362 482.2556 457.378 481.6671 457.7159 481.0468C 458.1268 480.2924 458.5385 479.5367 458.9495 478.7823C 459.5375 477.7028 460.1255 476.6233 460.7128 475.5452C 461.3347 474.4034 461.9567 473.2617 462.5794 472.1185C 463.0929 471.1758 463.6057 470.2345 464.1192 469.2919C 464.2926 468.9736 464.462 468.6496 464.6354 468.3313C 464.0665 468.3446 463.4962 468.3571 462.928 468.369C 462.6207 468.3755 462.3127 468.3833 462.004 468.389C 461.4996 468.4005 460.9837 468.4462 460.4967 468.2863C 459.5441 467.9729 458.8777 467.1761 458.7697 466.1811C 458.6832 465.3963 459.0087 464.5655 459.6039 464.0467C 460.0642 463.6458 460.6064 463.4969 461.1776 463.3303C 462.1645 463.0424 463.1536 462.754 464.1405 462.4661C 466.2068 461.8635 468.2711 461.2615 470.3374 460.6589C 470.8518 460.5088 471.3642 460.3594 471.8787 460.2094C 472.3071 460.0844 472.7344 459.929 473.1726 459.8411C 473.6262 459.7509 474.0628 459.7763 474.5008 459.9288C 474.9847 460.0975 475.4362 460.3452 475.9013 460.5582C 476.8793 461.0067 477.852 461.468 478.824 461.9308C 479.7598 462.3755 480.7036 462.8089 481.5547 463.406C 482.3726 463.9797 483.0807 464.6675 483.5648 465.546C 483.9998 466.3362 484.2559 467.2151 484.3221 468.1117C 484.3944 469.0943 484.1903 470.0299 483.8092 470.9305C 483.4061 471.8683 482.8766 472.7496 482.3919 473.6394z" stroke="none" fill="#000000" fill-rule="nonzero" /></g></g></g></g></g><g clip-path="url(#38)"><g clip-path="url(#39)"><g clip-path="url(#40)"><g clip-path="url(#41)"><path id="26" transform="matrix(1 0 0 -1 0 842)" d="M323.7247 388.4592L466.2779 388.4592L466.2779 342.1475L323.7247 342.1475z" stroke="none" fill="#7ED957" fill-rule="nonzero" /></g></g></g></g><g clip-path="url(#42)"></g><g clip-path="url(#43)"><g clip-path="url(#44)"><g clip-path="url(#45)"><g clip-path="url(#46)"><g clip-path="url(#47)"><path id="32" transform="matrix(1 0 0 -1 0 842)" d="M463.4319 352.2294C 463.1891 352.5098 463.2209 352.9346 463.5033 353.178L463.5033 353.178L465.9625 355.301C 466.245 355.5444 466.6709 355.5147 466.9138 355.2343C 467.1566 354.9539 467.1248 354.5291 466.8424 354.2856L466.8424 354.2856L464.3832 352.1627C 464.1014 351.9179 463.6748 351.9489 463.4319 352.2294zM459.8838 353.9796C 459.5115 354.0016 459.2293 354.3186 459.2532 354.6898L459.2532 354.6898L459.4596 357.9198C 459.4835 358.291 459.8028 358.5739 460.175 358.5519C 460.5474 358.5299 460.8296 358.2129 460.8057 357.8416L460.8057 357.8416L460.6006 354.6124C 460.5768 354.2411 460.2561 353.9576 459.8838 353.9796zM455.5002 345.1302C 455.7431 344.8498 455.7113 344.425 455.4288 344.1815L455.4288 344.1815L452.9696 342.0586C 452.6872 341.8152 452.2612 341.8448 452.0184 342.1253C 451.7755 342.4057 451.8073 342.8305 452.0898 343.0739L452.0898 343.0739L454.549 345.1969C 454.8314 345.4403 455.2574 345.4106 455.5002 345.1302zM454.1071 349.0203C 454.0833 348.649 453.7639 348.3662 453.3916 348.3882L453.3916 348.3882L450.1514 348.5779C 449.7791 348.5999 449.4969 348.9169 449.5207 349.2881C 449.5446 349.6594 449.8639 349.9422 450.2362 349.9202L450.2362 349.9202L453.4743 349.7312C 453.848 349.7099 454.1296 349.3908 454.1071 349.0203zM455.993 352.6593C 455.7105 352.4158 455.2846 352.4455 455.0417 352.7259L455.0417 352.7259L452.9254 355.1682C 452.6825 355.4487 452.7143 355.8735 452.9967 356.1169C 453.2792 356.3604 453.7052 356.3307 453.948 356.0502L453.948 356.0502L456.0658 353.6087C 456.3073 353.3275 456.2755 352.9027 455.993 352.6593zM483.4089 335.5075C 483.8244 333.8985 483.3556 332.0483 482.2415 330.8057C 481.6009 330.0914 480.7716 329.5677 479.9286 329.1243C 479.0353 328.6534 478.1088 328.2401 477.1954 327.8092C 476.7319 327.5901 476.2676 327.3723 475.8033 327.158C 475.3642 326.9557 474.932 326.7309 474.4876 326.5415C 474.1335 326.3907 473.7689 326.3045 473.3853 326.3765C 472.9723 326.4537 472.568 326.6058 472.1648 326.7234C 470.2035 327.2953 468.2422 327.8674 466.2809 328.4394C 464.5358 328.9483 462.7908 329.4572 461.0458 329.9662C 460.8148 330.0335 460.5902 330.0956 460.3809 330.2204C 460.103 330.3869 459.8788 330.6266 459.7266 330.9125C 459.4029 331.523 459.4598 332.3426 459.9476 332.8577C 460.2396 333.1678 460.6302 333.3683 461.0536 333.4181C 461.2725 333.4442 461.5034 333.4225 461.7233 333.4175C 461.9467 333.4128 462.1701 333.408 462.3942 333.4019C 463.2864 333.382 464.1772 333.3615 465.0694 333.3417C 465.1408 333.3402 465.2123 333.3387 465.2837 333.3373C 465.5772 333.3303 465.7767 333.6515 465.6365 333.9088C 465.4572 334.2379 465.278 334.567 465.0987 334.8962C 464.6486 335.7224 464.1978 336.5499 463.7477 337.3761C 463.1575 338.4597 462.5665 339.5445 461.9763 340.6281C 461.3765 341.7292 460.7766 342.8304 460.1776 343.9301C 459.7017 344.8037 459.2258 345.6773 458.7499 346.5509C 458.5234 346.9667 458.2956 347.3818 458.0704 347.7983C 457.8024 348.2969 457.7649 348.8877 458.0043 349.408C 458.3817 350.223 459.3332 350.6324 460.1852 350.3589C 460.6904 350.1968 461.0221 349.8277 461.2671 349.3781C 461.4382 349.0638 461.6094 348.7496 461.7806 348.4354C 462.3597 347.3722 462.9389 346.309 463.5173 345.2471C 463.9549 344.4439 464.3924 343.6408 464.8299 342.8376C 464.8528 342.7956 464.8764 342.7523 464.8992 342.7103C 465.1368 342.2742 465.8124 342.6422 465.5803 343.0813C 465.0473 344.0889 465.5927 345.3801 466.7227 345.6566C 467.343 345.8083 468.0045 345.6154 468.4404 345.1556C 468.6802 344.9034 468.8293 344.5648 468.9938 344.2628C 469.1613 343.9554 469.3281 343.6493 469.4955 343.3418C 469.7331 342.9057 470.4087 343.2737 470.1766 343.7128C 469.6429 344.7218 470.1913 346.0075 471.3211 346.2875C 471.9393 346.4399 472.6036 346.245 473.0388 345.7866C 473.2736 345.5404 473.4168 345.2126 473.5776 344.9174C 473.7466 344.6072 473.9155 344.2971 474.0845 343.9869C 474.3221 343.5508 474.9977 343.9188 474.7655 344.3579C 474.3553 345.1338 474.5628 346.1373 475.2974 346.6533C 476.1701 347.2657 477.3775 346.9785 477.8943 346.0623C 478.8608 344.288 479.8266 342.515 480.7931 340.7408C 481.2882 339.8319 481.784 338.9218 482.2791 338.013C 482.7194 337.2078 483.1793 336.3993 483.4089 335.5075zM482.3919 339.4303C 481.3723 341.3021 480.3533 343.1725 479.3337 345.0444C 479.0821 345.5062 478.8298 345.9694 478.5782 346.4313C 478.0202 347.42 476.8587 347.9569 475.737 347.6814C 474.8527 347.4631 474.1568 346.7855 473.8943 345.9347C 473.7751 346.1209 473.6383 346.2975 473.4698 346.4481C 472.8442 347.0031 471.9706 347.2385 471.1494 347.0371C 470.4315 346.8603 469.7893 346.3629 469.4653 345.6964C 469.401 345.5647 469.3492 345.4294 469.308 345.2911C 469.186 345.4828 469.0469 345.6634 468.8741 345.8187C 468.2549 346.3683 467.3994 346.6031 466.5833 346.4149C 465.8527 346.2453 465.1982 345.7412 464.8696 345.0669C 464.8079 344.9402 464.7574 344.8091 464.7167 344.6763C 464.6725 344.7576 464.6289 344.8375 464.5847 344.9187C 463.9789 346.0307 463.3732 347.1427 462.7682 348.2533C 462.5439 348.6651 462.3204 349.0754 462.0961 349.4872C 461.9492 349.7567 461.8122 350.0245 461.6233 350.2676C 460.9311 351.1621 459.6756 351.4372 458.642 351.0129C 457.7439 350.6448 457.1326 349.7534 457.0782 348.7929C 457.0362 348.0464 457.378 347.458 457.7159 346.8377C 458.1268 346.0833 458.5385 345.3275 458.9495 344.5731C 459.5375 343.4937 460.1255 342.4142 460.7128 341.3361C 461.3347 340.1943 461.9567 339.0525 462.5794 337.9094C 463.0929 336.9667 463.6057 336.0254 464.1192 335.0827C 464.2926 334.7644 464.462 334.4405 464.6354 334.1222C 464.0665 334.1354 463.4962 334.1479 462.928 334.1599C 462.6207 334.1663 462.3127 334.1741 462.004 334.1799C 461.4996 334.1914 460.9837 334.2371 460.4967 334.0771C 459.5441 333.7637 458.8777 332.9669 458.7697 331.972C 458.6832 331.1872 459.0087 330.3563 459.6039 329.8376C 460.0642 329.4367 460.6064 329.2877 461.1776 329.1211C 462.1645 328.8333 463.1536 328.5448 464.1405 328.257C 466.2068 327.6544 468.2711 327.0523 470.3374 326.4497C 470.8518 326.2997 471.3642 326.1502 471.8787 326.0002C 472.3071 325.8753 472.7344 325.7199 473.1726 325.632C 473.6262 325.5418 474.0628 325.5671 474.5008 325.7197C 474.9847 325.8884 475.4362 326.1361 475.9013 326.3491C 476.8793 326.7975 477.852 327.2589 478.824 327.7216C 479.7598 328.1664 480.7036 328.5998 481.5547 329.1969C 482.3726 329.7706 483.0807 330.4584 483.5648 331.3368C 483.9998 332.127 484.2559 333.0059 484.3221 333.9026C 484.3944 334.8851 484.1903 335.8207 483.8092 336.7214C 483.4061 337.6592 482.8766 338.5405 482.3919 339.4303z" stroke="none" fill="#000000" fill-rule="nonzero" /></g></g></g></g></g><g clip-path="url(#48)"><g clip-path="url(#49)"><g clip-path="url(#50)"><g clip-path="url(#51)"><path id="33" transform="matrix(1 0 0 -1 0 842)" d="M59.52755 229.1834L564.3007 229.1834L564.3007 184.7008L59.52755 184.7008z" stroke="none" fill="#7ED957" fill-rule="nonzero" /></g></g></g></g><g clip-path="url(#52)"><g transform="matrix(0.5791667 0 0 0.5791667 466.9116 722.8806)"><g transform="matrix(1 0 0 1 0 0)"><image x="0" y="0" xlink:href="img_03.png" width="180" height="180" /></g></g></g><g clip-path="url(#53)"><g transform="matrix(0.6222221 0 0 0.6222221 9.989892 10.3642)"><g transform="matrix(1 0 0 1 0 0)"><image x="0" y="0" xlink:href="img_04.png" width="135" height="135" /></g></g></g><g clip-path="url(#54)"></g></g></g></svg>