<svg xmlns="http://www.w3.org/2000/svg" xmlns:xlink="http://www.w3.org/1999/xlink" id="body_1" preserveAspectRatio="xMinYMin meet" viewBox="0 0 793 1123"><defs><clipPath id="1"><path id="" clip-rule="evenodd" transform="matrix(1 0 0 1 0 0)" d="M0 842L0 -0.25L0 -0.25L595.5 -0.25L595.5 -0.25L595.5 842L595.5 842L0 842z" /></clipPath><clipPath id="2"><path id="" clip-rule="evenodd" transform="matrix(1 0 0 1 0 0)" d="M0 -0.249939L595.5 -0.249939L595.5 -0.249939L595.5 842.0001L595.5 842.0001L0 842.0001z" /></clipPath><clipPath id="3"><path id="" clip-rule="evenodd" transform="matrix(1 0 0 1 0 0)" d="M0 -0.249939L595.5 -0.249939L595.5 -0.249939L595.5 842.0001L595.5 842.0001L0 842.0001z" /></clipPath><clipPath id="4"><path id="" clip-rule="evenodd" transform="matrix(1 0 0 1 0 0)" d="M0 -0.249939L595.5 -0.249939L595.5 -0.249939L595.5 842.0001L595.5 842.0001L0 842.0001z" /></clipPath><clipPath id="5"><path id="" clip-rule="evenodd" transform="matrix(1 0 0 1 0 0)" d="M79.2 2.150085L522.48 2.150085L522.48 2.150085L522.48 782.3901L522.48 782.3901L79.2 782.3901z" /></clipPath><clipPath id="6"><path id="" clip-rule="evenodd" transform="matrix(1 0 0 1 0 0)" d="M79.97103 2.226074L522.471 2.226074L522.471 2.226074L522.471 782.2261L522.471 782.2261L79.97103 782.2261z" /></clipPath><clipPath id="7"><path id="" clip-rule="evenodd" transform="matrix(1 0 0 1 0 0)" d="M0 -0.249939L595.5 -0.249939L595.5 -0.249939L595.5 842.0001L595.5 842.0001L0 842.0001z" /></clipPath><clipPath id="8"><path id="" clip-rule="evenodd" transform="matrix(1 0 0 1 0 0)" d="M0 -0.249939L595.5 -0.249939L595.5 -0.249939L595.5 842.0001L595.5 842.0001L0 842.0001z" /></clipPath><clipPath id="9"><path id="" clip-rule="evenodd" transform="matrix(1 0 0 1 0 0)" d="M59.52756 167.1658L277.2763 167.1658L277.2763 167.1658L277.2763 403.6274L277.2763 403.6274L59.52756 403.6274z" /></clipPath><clipPath id="10"><path id="" clip-rule="evenodd" transform="matrix(1 0 0 1 0 0)" d="M75.27756 167.1658L261.5263 167.1658C 265.7035 167.1658 269.7095 168.8252 272.6633 171.7789C 275.617 174.7326 277.2763 178.7386 277.2763 182.9158L277.2763 182.9158L277.2763 387.0279C 277.2763 391.2051 275.617 395.2112 272.6633 398.1649C 269.7095 401.1186 265.7035 402.7779 261.5263 402.7779L261.5263 402.7779L75.27756 402.7779C 71.1004 402.7779 67.09432 401.1186 64.14063 398.1649C 61.18693 395.2112 59.52756 391.2051 59.52756 387.0279L59.52756 387.0279L59.52756 182.9158C 59.52756 178.7386 61.18693 174.7326 64.14063 171.7789C 67.09432 168.8252 71.1004 167.1658 75.27756 167.1658z" /></clipPath><clipPath id="11"><path id="" clip-rule="evenodd" transform="matrix(1 0 0 1 0 0)" d="M0 -0.249939L595.5 -0.249939L595.5 -0.249939L595.5 842.0001L595.5 842.0001L0 842.0001z" /></clipPath><clipPath id="12"><path id="" clip-rule="evenodd" transform="matrix(1 0 0 1 0 0)" d="M0 -0.249939L595.5 -0.249939L595.5 -0.249939L595.5 842.0001L595.5 842.0001L0 842.0001z" /></clipPath><clipPath id="13"><path id="" clip-rule="evenodd" transform="matrix(1 0 0 1 0 0)" d="M59.52756 167.1658L277.0276 167.1658L277.0276 167.1658L277.0276 402.6658L277.0276 402.6658L59.52756 402.6658z" /></clipPath><clipPath id="14"><path id="" clip-rule="evenodd" transform="matrix(1 0 0 1 0 0)" d="M59.52929 167.1658L279.2949 167.1658L279.2949 167.1658L279.2949 403.3625L279.2949 403.3625L59.52929 403.3625z" /></clipPath><clipPath id="15"><path id="" clip-rule="evenodd" transform="matrix(1 0 0 1 0 0)" d="M75.27885 167.1658L261.5224 167.1658C 265.6994 167.1658 269.7054 168.8251 272.659 171.7787C 275.6126 174.7324 277.2719 178.7383 277.2719 182.9154L277.2719 182.9154L277.2719 387.0218C 277.2719 391.1988 275.6126 395.2047 272.659 398.1584C 269.7054 401.112 265.6994 402.7713 261.5224 402.7713L261.5224 402.7713L75.27885 402.7713C 71.1018 402.7713 67.09584 401.112 64.14223 398.1584C 61.18861 395.2047 59.52929 391.1988 59.52929 387.0218L59.52929 387.0218L59.52929 182.9154C 59.52929 178.7383 61.18861 174.7324 64.14223 171.7787C 67.09584 168.8251 71.1018 167.1658 75.27885 167.1658z" /></clipPath><clipPath id="16"><path id="" clip-rule="evenodd" transform="matrix(1 0 0 1 0 0)" d="M0 -0.249939L595.5 -0.249939L595.5 -0.249939L595.5 842.0001L595.5 842.0001L0 842.0001z" /></clipPath><clipPath id="17"><path id="" clip-rule="evenodd" transform="matrix(1 0 0 1 0 0)" d="M77.4035 249.0588L254.4035 249.0588L254.4035 249.0588L254.4035 393.8089L254.4035 393.8089L77.4035 393.8089z" /></clipPath><clipPath id="18"><path id="" clip-rule="evenodd" transform="matrix(1 0 0 1 0 0)" d="M0 -0.249939L595.5 -0.249939L595.5 -0.249939L595.5 842.0001L595.5 842.0001L0 842.0001z" /></clipPath><clipPath id="19"><path id="" clip-rule="evenodd" transform="matrix(1 0 0 1 0 0)" d="M0 -0.249939L595.5 -0.249939L595.5 -0.249939L595.5 842.0001L595.5 842.0001L0 842.0001z" /></clipPath><clipPath id="20"><path id="" clip-rule="evenodd" transform="matrix(1 0 0 1 0 0)" d="M326.3696 354.7007L549.2971 354.7007L549.2971 354.7007L549.2971 616.8145L549.2971 616.8145L326.3696 616.8145z" /></clipPath><clipPath id="21"><path id="" clip-rule="evenodd" transform="matrix(1 0 0 1 0 0)" d="M342.1196 354.7007L533.5471 354.7007C 537.7242 354.7007 541.7303 356.36 544.684 359.3137C 547.6377 362.2675 549.2971 366.2735 549.2971 370.4507L549.2971 370.4507L549.2971 600.2419C 549.2971 604.4191 547.6377 608.4252 544.684 611.3789C 541.7303 614.3326 537.7242 615.9919 533.5471 615.9919L533.5471 615.9919L342.1196 615.9919C 337.9425 615.9919 333.9364 614.3326 330.9827 611.3789C 328.029 608.4252 326.3696 604.4191 326.3696 600.2419L326.3696 600.2419L326.3696 370.4507C 326.3696 366.2735 328.029 362.2675 330.9827 359.3137C 333.9364 356.36 337.9425 354.7007 342.1196 354.7007z" /></clipPath><clipPath id="22"><path id="" clip-rule="evenodd" transform="matrix(1 0 0 1 0 0)" d="M0 -0.249939L595.5 -0.249939L595.5 -0.249939L595.5 842.0001L595.5 842.0001L0 842.0001z" /></clipPath><clipPath id="23"><path id="" clip-rule="evenodd" transform="matrix(1 0 0 1 0 0)" d="M0 -0.249939L595.5 -0.249939L595.5 -0.249939L595.5 842.0001L595.5 842.0001L0 842.0001z" /></clipPath><clipPath id="24"><path id="" clip-rule="evenodd" transform="matrix(1 0 0 1 0 0)" d="M326.3696 354.7007L549.1196 354.7007L549.1196 354.7007L549.1196 615.7007L549.1196 615.7007L326.3696 615.7007z" /></clipPath><clipPath id="25"><path id="" clip-rule="evenodd" transform="matrix(1 0 0 1 0 0)" d="M326.3731 354.7007L551.562 354.7007L551.562 354.7007L551.562 618.274L551.562 618.274L326.3731 618.274z" /></clipPath><clipPath id="26"><path id="" clip-rule="evenodd" transform="matrix(1 0 0 1 0 0)" d="M342.1225 354.7007L533.5426 354.7007C 537.7196 354.7007 541.7255 356.36 544.6791 359.3136C 547.6326 362.2672 549.2919 366.2731 549.2919 370.4501L549.2919 370.4501L549.2919 600.2325C 549.2919 604.4095 547.6326 608.4155 544.6791 611.3691C 541.7255 614.3227 537.7196 615.9819 533.5426 615.9819L533.5426 615.9819L342.1225 615.9819C 337.9455 615.9819 333.9396 614.3227 330.986 611.3691C 328.0324 608.4155 326.3731 604.4095 326.3731 600.2325L326.3731 600.2325L326.3731 370.4501C 326.3731 366.2731 328.0324 362.2672 330.986 359.3136C 333.9396 356.36 337.9455 354.7007 342.1225 354.7007z" /></clipPath><clipPath id="27"><path id="" clip-rule="evenodd" transform="matrix(1 0 0 1 0 0)" d="M345.9707 453.6874L529.7207 453.6874L529.7207 453.6874L529.7207 599.9374L529.7207 599.9374L345.9707 599.9374z" /></clipPath><clipPath id="28"><path id="" clip-rule="evenodd" transform="matrix(1 0 0 1 0 0)" d="M0 -0.249939L595.5 -0.249939L595.5 -0.249939L595.5 842.0001L595.5 842.0001L0 842.0001z" /></clipPath><clipPath id="29"><path id="" clip-rule="evenodd" transform="matrix(1 0 0 1 0 0)" d="M520.4518 11.0144L578.2018 11.0144L578.2018 11.0144L578.2018 44.0144L578.2018 44.0144L520.4518 44.0144z" /></clipPath><clipPath id="30"><path id="" clip-rule="evenodd" transform="matrix(1 0 0 1 0 0)" d="M391.8315 143.5676L559.0815 143.5676L559.0815 143.5676L559.0815 311.5676L559.0815 311.5676L391.8315 311.5676z" /></clipPath><clipPath id="31"><path id="" clip-rule="evenodd" transform="matrix(1 0 0 1 0 0)" d="M0 -0.249939L595.5 -0.249939L595.5 -0.249939L595.5 842.0001L595.5 842.0001L0 842.0001z" /></clipPath><clipPath id="32"><path id="" clip-rule="evenodd" transform="matrix(1 0 0 1 0 0)" d="M0 -0.249939L595.5 -0.249939L595.5 -0.249939L595.5 842.0001L595.5 842.0001L0 842.0001z" /></clipPath><clipPath id="33"><path id="" clip-rule="evenodd" transform="matrix(1 0 0 1 0 0)" d="M0 -0.249939L595.5 -0.249939L595.5 -0.249939L595.5 842.0001L595.5 842.0001L0 842.0001z" /></clipPath><clipPath id="34"><path id="" clip-rule="evenodd" transform="matrix(1 0 0 1 0 0)" d="M73.65926 563.2779L289.0712 563.2779L289.0712 563.2779L289.0712 782.897L289.0712 782.897L73.65926 782.897z" /></clipPath><clipPath id="35"><path id="" clip-rule="evenodd" transform="matrix(1 0 0 1 0 0)" d="M89.40926 563.2779L273.3212 563.2779C 282.0197 563.2779 289.0712 570.3294 289.0712 579.0279L289.0712 579.0279L289.0712 766.3622C 289.0712 775.0607 282.0197 782.1122 273.3212 782.1122L273.3212 782.1122L89.40926 782.1122C 80.71078 782.1122 73.65926 775.0607 73.65926 766.3622L73.65926 766.3622L73.65926 579.0279C 73.65926 570.3294 80.71078 563.2779 89.40926 563.2779z" /></clipPath><clipPath id="36"><path id="" clip-rule="evenodd" transform="matrix(1 0 0 1 0 0)" d="M0 -0.249939L595.5 -0.249939L595.5 -0.249939L595.5 842.0001L595.5 842.0001L0 842.0001z" /></clipPath><clipPath id="37"><path id="" clip-rule="evenodd" transform="matrix(1 0 0 1 0 0)" d="M0 -0.249939L595.5 -0.249939L595.5 -0.249939L595.5 842.0001L595.5 842.0001L0 842.0001z" /></clipPath><clipPath id="38"><path id="" clip-rule="evenodd" transform="matrix(1 0 0 1 0 0)" d="M73.65926 563.2779L288.9092 563.2779L288.9092 563.2779L288.9092 782.2779L288.9092 782.2779L73.65926 782.2779z" /></clipPath><clipPath id="39"><path id="" clip-rule="evenodd" transform="matrix(1 0 0 1 0 0)" d="M73.65945 563.2779L290.6153 563.2779L290.6153 563.2779L290.6153 782.6992L290.6153 782.6992L73.65945 782.6992z" /></clipPath><clipPath id="40"><path id="" clip-rule="evenodd" transform="matrix(1 0 0 1 0 0)" d="M89.40873 563.2779L273.3122 563.2779C 282.0102 563.2779 289.0614 570.3291 289.0614 579.0272L289.0614 579.0272L289.0614 766.3528C 289.0614 775.051 282.0102 782.1021 273.3122 782.1021L273.3122 782.1021L89.40873 782.1021C 80.71065 782.1021 73.65945 775.051 73.65945 766.3528L73.65945 766.3528L73.65945 579.0272C 73.65945 570.3291 80.71065 563.2779 89.40873 563.2779z" /></clipPath><clipPath id="41"><path id="" clip-rule="evenodd" transform="matrix(1 0 0 1 0 0)" d="M0 -0.249939L595.5 -0.249939L595.5 -0.249939L595.5 842.0001L595.5 842.0001L0 842.0001z" /></clipPath><clipPath id="42"><path id="" clip-rule="evenodd" transform="matrix(1 0 0 1 0 0)" d="M0 -0.249939L595.5 -0.249939L595.5 -0.249939L595.5 842.0001L595.5 842.0001L0 842.0001z" /></clipPath><clipPath id="43"><path id="" clip-rule="evenodd" transform="matrix(1 0 0 1 0 0)" d="M85.15655 614.3071L280.9066 614.3071L280.9066 614.3071L280.9066 777.8071L280.9066 777.8071L85.15655 777.8071z" /></clipPath><clipPath id="44"><path id="" clip-rule="evenodd" transform="matrix(1 0 0 1 0 0)" d="M85.15655 639.8071L85.15655 751.8943C 85.15655 765.9776 96.57329 777.3943 110.6565 777.3943L110.6565 777.3943L255.1939 777.3943C 269.2772 777.3943 280.6939 765.9776 280.6939 751.8943L280.6939 751.8943L280.6939 639.8071C 280.6939 625.7239 269.2772 614.3071 255.1939 614.3071L255.1939 614.3071L110.6565 614.3071C 96.57329 614.3071 85.15655 625.7239 85.15655 639.8071z" /></clipPath><clipPath id="45"><path id="" clip-rule="evenodd" transform="matrix(1 0 0 1 0 0)" d="M85.90655 615.0571L280.1566 615.0571L280.1566 615.0571L280.1566 777.0571L280.1566 777.0571L85.90655 777.0571z" /></clipPath><clipPath id="46"><path id="" clip-rule="evenodd" transform="matrix(1 0 0 1 0 0)" d="M111.5565 615.2072L254.2939 615.2072C 268.3771 615.2072 279.7939 626.6239 279.7939 640.7072L279.7939 640.7072L279.7939 750.9943C 279.7939 765.0776 268.3771 776.4943 254.2939 776.4943L254.2939 776.4943L111.5565 776.4943C 97.4733 776.4943 86.05655 765.0776 86.05655 750.9943L86.05655 750.9943L86.05655 640.7072C 86.05655 626.6239 97.4733 615.2072 111.5565 615.2072z" /></clipPath><clipPath id="47"><path id="" clip-rule="evenodd" transform="matrix(1 0 0 1 0 0)" d="M0 -0.249939L595.5 -0.249939L595.5 -0.249939L595.5 842.0001L595.5 842.0001L0 842.0001z" /></clipPath><clipPath id="48"><path id="" clip-rule="evenodd" transform="matrix(1 0 0 1 0 0)" d="M0 -0.249939L595.5 -0.249939L595.5 -0.249939L595.5 842.0001L595.5 842.0001L0 842.0001z" /></clipPath><clipPath id="49"><path id="" clip-rule="evenodd" transform="matrix(1 0 0 1 0 0)" d="M85.15655 614.3071L280.9066 614.3071L280.9066 614.3071L280.9066 777.8071L280.9066 777.8071L85.15655 777.8071z" /></clipPath><clipPath id="50"><path id="" clip-rule="evenodd" transform="matrix(1 0 0 1 0 0)" d="M85.15655 639.8071L85.15655 751.8943C 85.15655 765.9776 96.57329 777.3943 110.6565 777.3943L110.6565 777.3943L255.1939 777.3943C 269.2772 777.3943 280.6939 765.9776 280.6939 751.8943L280.6939 751.8943L280.6939 639.8071C 280.6939 625.7239 269.2772 614.3071 255.1939 614.3071L255.1939 614.3071L110.6565 614.3071C 96.57329 614.3071 85.15655 625.7239 85.15655 639.8071z" /></clipPath><clipPath id="51"><path id="" clip-rule="evenodd" transform="matrix(1 0 0 1 0 0)" d="M85.15655 614.3071L280.9066 614.3071L280.9066 614.3071L280.9066 777.0571L280.9066 777.0571L85.15655 777.0571z" /></clipPath><clipPath id="52"><path id="" clip-rule="evenodd" transform="matrix(1 0 0 1 0 0)" d="M85.15655 614.3071L280.8965 614.3071L280.8965 614.3071L280.8965 777.798L280.8965 777.798L85.15655 777.798z" /></clipPath><clipPath id="53"><path id="" clip-rule="evenodd" transform="matrix(1 0 0 1 0 0)" d="M85.15655 639.8057L85.15655 751.8867C 85.15655 765.9691 96.57271 777.3853 110.6552 777.3853L110.6552 777.3853L255.1852 777.3853C 269.2678 777.3853 280.6839 765.9691 280.6839 751.8867L280.6839 751.8867L280.6839 639.8057C 280.6839 625.7233 269.2678 614.3071 255.1852 614.3071L255.1852 614.3071L110.6552 614.3071C 96.57271 614.3071 85.15655 625.7233 85.15655 639.8057z" /></clipPath><clipPath id="54"><path id="" clip-rule="evenodd" transform="matrix(1 0 0 1 0 0)" d="M0 -0.249939L595.5 -0.249939L595.5 -0.249939L595.5 842.0001L595.5 842.0001L0 842.0001z" /></clipPath></defs><g transform="matrix(1.333333 0 0 1.333333 0 0)"><g clip-path="url(#1)"><g clip-path="url(#2)"><path id="1" transform="matrix(1 0 0 -1 0 842)" d="M0 842.2499L595.4999 842.2499L595.4999 -6.103516E-05L0 -6.103516E-05z" stroke="none" fill="#FFFFFF" fill-rule="nonzero" /></g><g clip-path="url(#3)"><path id="2" transform="matrix(1 0 0 -1 0 842)" d="M0 842.2499L595.4999 842.2499L595.4999 -6.103516E-05L0 -6.103516E-05z" stroke="none" fill="#FFFFFF" fill-rule="nonzero" /></g><g clip-path="url(#4)"><g><g clip-path="url(#5)"><g clip-path="url(#6)"><g transform="matrix(0 0.5128205 -0.5127462 0 522.471 2.226135)"><g transform="matrix(1 0 0 1 0 0)"><image x="0" y="0" xlink:href="img_01.png" width="1521" height="863" /></g></g></g></g></g></g><g clip-path="url(#7)"><g clip-path="url(#8)"><g clip-path="url(#9)"><g clip-path="url(#10)"><path id="4" transform="matrix(1 0 0 -1 0 842)" d="M59.52755 674.8342L277.2763 674.8342L277.2763 439.2232L59.52755 439.2232z" stroke="none" fill="#BEBECC" fill-rule="nonzero" /></g></g></g></g><g clip-path="url(#11)"><g clip-path="url(#12)"><g clip-path="url(#13)"><g clip-path="url(#14)"><g clip-path="url(#15)"><path id="5" transform="matrix(1 0 0 -1 0 842)" d="M75.27884 674.8342L261.5224 674.8342C 265.6994 674.8342 269.7054 673.1749 272.659 670.2213C 275.6126 667.2676 277.2719 663.2617 277.2719 659.0846L277.2719 659.0846L277.2719 454.9782C 277.2719 450.8012 275.6126 446.7952 272.659 443.8416C 269.7054 440.888 265.6994 439.2287 261.5224 439.2287L261.5224 439.2287L75.27884 439.2287C 71.1018 439.2287 67.09584 440.888 64.14223 443.8416C 61.18861 446.7952 59.52929 450.8012 59.52929 454.9782L59.52929 454.9782L59.52929 659.0846C 59.52929 663.2617 61.18861 667.2676 64.14223 670.2213C 67.09584 673.1749 71.1018 674.8342 75.27884 674.8342z" stroke="#000000" stroke-width="3" fill="none" /></g></g></g></g></g><g clip-path="url(#16)"></g><g clip-path="url(#17)"><g transform="matrix(0.6366906 0 0 0.6377389 77.4035 221.1901)"><g transform="matrix(1 0 0 1 0 0)"><image x="0" y="0" xlink:href="img_02.png" width="278" height="314" /></g></g></g><g clip-path="url(#18)"><g clip-path="url(#19)"><g clip-path="url(#20)"><g clip-path="url(#21)"><path id="54" transform="matrix(1 0 0 -1 0 842)" d="M326.3696 487.2993L549.2971 487.2993L549.2971 226.0562L326.3696 226.0562z" stroke="none" fill="#BEBECC" fill-rule="nonzero" /></g></g></g></g><g clip-path="url(#22)"><g clip-path="url(#23)"><g clip-path="url(#24)"><g clip-path="url(#25)"><g clip-path="url(#26)"><path id="55" transform="matrix(1 0 0 -1 0 842)" d="M342.1225 487.2993L533.5425 487.2993C 537.7195 487.2993 541.7255 485.64 544.6791 482.6864C 547.6326 479.7328 549.2919 475.7269 549.2919 471.5499L549.2919 471.5499L549.2919 241.7675C 549.2919 237.5905 547.6326 233.5845 544.6791 230.6309C 541.7255 227.6773 537.7195 226.018 533.5425 226.018L533.5425 226.018L342.1225 226.018C 337.9455 226.018 333.9395 227.6773 330.986 230.6309C 328.0324 233.5845 326.3731 237.5905 326.3731 241.7675L326.3731 241.7675L326.3731 471.5499C 326.3731 475.7269 328.0324 479.7328 330.986 482.6864C 333.9395 485.64 337.9455 487.2993 342.1225 487.2993z" stroke="#000000" stroke-width="3" fill="none" /></g></g></g></g></g><g clip-path="url(#27)"><g transform="matrix(0.5927419 0 0 0.5925267 345.9707 443.5319)"><g transform="matrix(1 0 0 1 0 0)"><image x="0" y="0" xlink:href="img_03.png" width="310" height="281" /></g></g></g><g clip-path="url(#28)"><path id="86" transform="matrix(1 0 0 -1 0 842)" d="M285.7138 584.5789L318.6378 584.5789C 326.9221 584.5789 333.6378 577.8632 333.6378 569.5789L333.6378 569.5789L333.6378 525.1561C 333.6378 516.8718 340.3535 510.1561 348.6378 510.1561L348.6378 510.1561L430.6237 510.1561C 434.6055 510.1561 437.8334 506.9282 437.8334 502.9464L437.8334 502.9464L437.8334 495.7368" stroke="#000000" stroke-width="2.25" fill="none" /><path id="87" transform="matrix(1 0 0 -1 0 842)" d="M278.4013 587.9539L285.1513 587.9539L285.1513 587.9539L285.1513 581.2039L285.1513 581.2039L278.4013 581.2039z" stroke="#000000" stroke-width="2.25" stroke-linecap="round" fill="none" /><path id="88" transform="matrix(1 0 0 -1 0 842)" d="M441.2084 488.4243L441.2084 495.1743L441.2084 495.1743L434.4584 495.1743L434.4584 495.1743L434.4584 488.4243L434.4584 488.4243L441.2084 488.4243z" stroke="#000000" stroke-width="2.25" stroke-linecap="round" fill="none" /></g><g clip-path="url(#29)"><g transform="matrix(0.03796844 0 0 0.0382387 520.4518 11.0144)"><g transform="matrix(1 0 0 1 0 0)"><image x="0" y="0" xlink:href="img_04.png" width="1521" height="863" /></g></g></g><g clip-path="url(#30)"><g transform="matrix(0.5265625 0 0 0.5265625 391.8315 143.5676)"><g transform="matrix(1 0 0 1 0 0)"><image x="0" y="0" xlink:href="img_05.png" width="480" height="480" /></g></g></g><g clip-path="url(#31)"></g><g clip-path="url(#32)"><g clip-path="url(#33)"><g clip-path="url(#34)"><g clip-path="url(#35)"><path id="139" transform="matrix(1 0 0 -1 0 842)" d="M73.65926 278.7221L289.0712 278.7221L289.0712 59.94435L73.65926 59.94435z" stroke="none" fill="#BEBECC" fill-rule="nonzero" /></g></g></g></g><g clip-path="url(#36)"><g clip-path="url(#37)"><g clip-path="url(#38)"><g clip-path="url(#39)"><g clip-path="url(#40)"><path id="140" transform="matrix(1 0 0 -1 0 842)" d="M89.40872 278.7221L273.3122 278.7221C 282.0102 278.7221 289.0614 271.6709 289.0614 262.9728L289.0614 262.9728L289.0614 75.64711C 289.0614 66.94901 282.0102 59.89784 273.3122 59.89784L273.3122 59.89784L89.40872 59.89784C 80.71064 59.89784 73.65945 66.94901 73.65945 75.64711L73.65945 75.64711L73.65945 262.9728C 73.65945 271.6709 80.71064 278.7221 89.40872 278.7221z" stroke="#000000" stroke-width="3" fill="none" /></g></g></g></g></g><g clip-path="url(#41)"><g clip-path="url(#42)"><g clip-path="url(#43)"><g clip-path="url(#44)"><g clip-path="url(#45)"><g clip-path="url(#46)"><g transform="matrix(0.6079192 0 0 0.6079192 85.15655 598.0821)"><g transform="matrix(1 0 0 1 0 0)"><image x="0" y="0" xlink:href="img_06.png" width="322" height="322" /></g></g></g></g></g></g></g></g><g clip-path="url(#47)"><g clip-path="url(#48)"><g clip-path="url(#49)"><g clip-path="url(#50)"><g clip-path="url(#51)"><g clip-path="url(#52)"><g clip-path="url(#53)"><path id="142" transform="matrix(1 0 0 -1 0 842)" d="M85.15655 202.1943L85.15655 90.11331C 85.15655 76.03084 96.5727 64.61473 110.6552 64.61473L110.6552 64.61473L255.1852 64.61473C 269.2677 64.61473 280.6839 76.03084 280.6839 90.11331L280.6839 90.11331L280.6839 202.1943C 280.6839 216.2767 269.2677 227.6929 255.1852 227.6929L255.1852 227.6929L110.6552 227.6929C 96.5727 227.6929 85.15655 216.2767 85.15655 202.1943z" stroke="#000000" stroke-width="4.5" fill="none" /></g></g></g></g></g></g></g><g clip-path="url(#54)"><path id="158" transform="matrix(1 0 0 -1 0 842)" d="M317.9321 356.6537L196.3652 356.6537C 188.0809 356.6537 181.3652 349.938 181.3652 341.6537L181.3652 341.6537L181.3652 287.1595" stroke="#000000" stroke-width="2.25" fill="none" /><path id="159" transform="matrix(1 0 0 -1 0 842)" d="M318.4946 360.0287L325.2446 360.0287L325.2446 360.0287L325.2446 353.2787L325.2446 353.2787L318.4946 353.2787z" stroke="#000000" stroke-width="2.25" stroke-linecap="round" fill="none" /><path id="160" transform="matrix(1 0 0 -1 0 842)" d="M184.7402 279.847L184.7402 286.597L184.7402 286.597L177.9902 286.597L177.9902 286.597L177.9902 279.847L177.9902 279.847L184.7402 279.847z" stroke="#000000" stroke-width="2.25" stroke-linecap="round" fill="none" /></g></g></g></svg>