<svg xmlns="http://www.w3.org/2000/svg" xmlns:xlink="http://www.w3.org/1999/xlink" id="body_1" preserveAspectRatio="xMinYMin meet" viewBox="0 0 793 1123"><defs><clipPath id="1"><path id="" clip-rule="evenodd" transform="matrix(1 0 0 1 0 0)" d="M0 842L0 -0.25L0 -0.25L595.5 -0.25L595.5 -0.25L595.5 842L595.5 842L0 842z" /></clipPath><clipPath id="2"><path id="" clip-rule="evenodd" transform="matrix(1 0 0 1 0 0)" d="M0 -0.249939L595.5 -0.249939L595.5 -0.249939L595.5 842.0001L595.5 842.0001L0 842.0001z" /></clipPath><clipPath id="3"><path id="" clip-rule="evenodd" transform="matrix(1 0 0 1 0 0)" d="M0 -0.249939L595.5 -0.249939L595.5 -0.249939L595.5 842.0001L595.5 842.0001L0 842.0001z" /></clipPath><clipPath id="4"><path id="" clip-rule="evenodd" transform="matrix(1 0 0 1 0 0)" d="M0 -0.249939L595.5 -0.249939L595.5 -0.249939L595.5 842.0001L595.5 842.0001L0 842.0001z" /></clipPath><clipPath id="5"><path id="" clip-rule="evenodd" transform="matrix(1 0 0 1 0 0)" d="M69.35999 18.95007L525.6 18.95007L525.6 18.95007L525.6 823.1901L525.6 823.1901L69.35999 823.1901z" /></clipPath><clipPath id="6"><path id="" clip-rule="evenodd" transform="matrix(1 0 0 1 0 0)" d="M69.56044 19.05255L525.5604 19.05255L525.5604 19.05255L525.5604 822.3026L525.5604 822.3026L69.56044 822.3026z" /></clipPath><clipPath id="7"><path id="" clip-rule="evenodd" transform="matrix(1 0 0 1 0 0)" d="M0 -0.249939L595.5 -0.249939L595.5 -0.249939L595.5 842.0001L595.5 842.0001L0 842.0001z" /></clipPath><clipPath id="8"><path id="" clip-rule="evenodd" transform="matrix(1 0 0 1 0 0)" d="M0 -0.249939L595.5 -0.249939L595.5 -0.249939L595.5 842.0001L595.5 842.0001L0 842.0001z" /></clipPath><clipPath id="9"><path id="" clip-rule="evenodd" transform="matrix(1 0 0 1 0 0)" d="M32.39312 590.9705L315.1431 590.9705L315.1431 590.9705L315.1431 745.4705L315.1431 745.4705L32.39312 745.4705z" /></clipPath><clipPath id="10"><path id="" clip-rule="evenodd" transform="matrix(1 0 0 1 0 0)" d="M32.39312 606.7205L32.39312 729.2273C 32.39312 737.9258 39.44463 744.9773 48.14312 744.9773L48.14312 744.9773L298.9888 744.9773C 307.6873 744.9773 314.7388 737.9258 314.7388 729.2273L314.7388 729.2273L314.7388 606.7205C 314.7388 598.022 307.6873 590.9705 298.9888 590.9705L298.9888 590.9705L48.14312 590.9705C 39.44463 590.9705 32.39312 598.022 32.39312 606.7205z" /></clipPath><clipPath id="11"><path id="" clip-rule="evenodd" transform="matrix(1 0 0 1 0 0)" d="M33.14312 591.7205L314.3931 591.7205L314.3931 591.7205L314.3931 744.7205L314.3931 744.7205L33.14312 744.7205z" /></clipPath><clipPath id="12"><path id="" clip-rule="evenodd" transform="matrix(1 0 0 1 0 0)" d="M49.04311 591.8705L298.0888 591.8705C 306.7873 591.8705 313.8388 598.9221 313.8388 607.6205L313.8388 607.6205L313.8388 728.3273C 313.8388 737.0258 306.7873 744.0773 298.0888 744.0773L298.0888 744.0773L49.04311 744.0773C 40.34463 744.0773 33.29311 737.0258 33.29311 728.3273L33.29311 728.3273L33.29311 607.6205C 33.29311 598.9221 40.34463 591.8705 49.04311 591.8705z" /></clipPath><clipPath id="13"><path id="" clip-rule="evenodd" transform="matrix(1 0 0 1 0 0)" d="M0 -0.249939L595.5 -0.249939L595.5 -0.249939L595.5 842.0001L595.5 842.0001L0 842.0001z" /></clipPath><clipPath id="14"><path id="" clip-rule="evenodd" transform="matrix(1 0 0 1 0 0)" d="M0 -0.249939L595.5 -0.249939L595.5 -0.249939L595.5 842.0001L595.5 842.0001L0 842.0001z" /></clipPath><clipPath id="15"><path id="" clip-rule="evenodd" transform="matrix(1 0 0 1 0 0)" d="M32.39312 590.9705L315.1431 590.9705L315.1431 590.9705L315.1431 745.4705L315.1431 745.4705L32.39312 745.4705z" /></clipPath><clipPath id="16"><path id="" clip-rule="evenodd" transform="matrix(1 0 0 1 0 0)" d="M32.39312 606.7205L32.39312 729.2273C 32.39312 737.9258 39.44463 744.9773 48.14312 744.9773L48.14312 744.9773L298.9888 744.9773C 307.6873 744.9773 314.7388 737.9258 314.7388 729.2273L314.7388 729.2273L314.7388 606.7205C 314.7388 598.022 307.6873 590.9705 298.9888 590.9705L298.9888 590.9705L48.14312 590.9705C 39.44463 590.9705 32.39312 598.022 32.39312 606.7205z" /></clipPath><clipPath id="17"><path id="" clip-rule="evenodd" transform="matrix(1 0 0 1 0 0)" d="M32.39312 590.9705L314.3931 590.9705L314.3931 590.9705L314.3931 744.7205L314.3931 744.7205L32.39312 744.7205z" /></clipPath><clipPath id="18"><path id="" clip-rule="evenodd" transform="matrix(1 0 0 1 0 0)" d="M32.39312 590.9705L315.1372 590.9705L315.1372 590.9705L315.1372 745.4598L315.1372 745.4598L32.39312 745.4598z" /></clipPath><clipPath id="19"><path id="" clip-rule="evenodd" transform="matrix(1 0 0 1 0 0)" d="M32.39312 606.7194L32.39312 729.2177C 32.39312 737.9156 39.44448 744.9666 48.14279 744.9666L48.14279 744.9666L298.9833 744.9666C 307.6816 744.9666 314.7329 737.9156 314.7329 729.2177L314.7329 729.2177L314.7329 606.7194C 314.7329 598.0216 307.6816 590.9705 298.9833 590.9705L298.9833 590.9705L48.14279 590.9705C 39.44448 590.9705 32.39312 598.0216 32.39312 606.7194z" /></clipPath><clipPath id="20"><path id="" clip-rule="evenodd" transform="matrix(1 0 0 1 0 0)" d="M508.0592 17.08496L582.3092 17.08496L582.3092 17.08496L582.3092 59.08496L582.3092 59.08496L508.0592 59.08496z" /></clipPath><clipPath id="21"><path id="" clip-rule="evenodd" transform="matrix(1 0 0 1 0 0)" d="M0 -0.249939L595.5 -0.249939L595.5 -0.249939L595.5 842.0001L595.5 842.0001L0 842.0001z" /></clipPath></defs><g transform="matrix(1.333333 0 0 1.333333 0 0)"><g clip-path="url(#1)"><g clip-path="url(#2)"><path id="1" transform="matrix(1 0 0 -1 0 842)" d="M0 842.2499L595.4999 842.2499L595.4999 -6.103516E-05L0 -6.103516E-05z" stroke="none" fill="#FFFFFF" fill-rule="nonzero" /></g><g clip-path="url(#3)"><path id="2" transform="matrix(1 0 0 -1 0 842)" d="M0 842.2499L595.4999 842.2499L595.4999 -6.103516E-05L0 -6.103516E-05z" stroke="none" fill="#FFFFFF" fill-rule="nonzero" /></g><g clip-path="url(#4)"><g><g clip-path="url(#5)"><g clip-path="url(#6)"><g transform="matrix(0 0.5281065 -0.5283893 0 525.5604 19.05261)"><g transform="matrix(1 0 0 1 0 0)"><image x="0" y="0" xlink:href="img_01.png" width="1521" height="863" /></g></g></g></g></g><path id="617" transform="matrix(1 0 0 -1 0 842)" d="M357.8693 251.2761C 357.8693 250.9777 357.8122 250.6907 357.698 250.415C 357.5838 250.1394 357.4213 249.8961 357.2103 249.6851C 356.9993 249.4741 356.756 249.3115 356.4803 249.1973C 356.2047 249.0832 355.9177 249.0261 355.6193 249.0261C 355.3209 249.0261 355.0339 249.0832 354.7582 249.1973C 354.4826 249.3115 354.2393 249.4741 354.0283 249.6851C 353.8173 249.8961 353.6548 250.1394 353.5406 250.415C 353.4264 250.6907 353.3693 250.9777 353.3693 251.2761C 353.3693 251.5744 353.4264 251.8615 353.5406 252.1371C 353.6548 252.4128 353.8173 252.6561 354.0283 252.8671C 354.2393 253.078 354.4826 253.2406 354.7582 253.3548C 355.0339 253.469 355.3209 253.5261 355.6193 253.5261C 355.9177 253.5261 356.2047 253.469 356.4803 253.3548C 356.756 253.2406 356.9993 253.078 357.2103 252.8671C 357.4213 252.6561 357.5838 252.4128 357.698 252.1371C 357.8122 251.8615 357.8693 251.5744 357.8693 251.2761z" stroke="none" fill="#000000" fill-rule="nonzero" /><path id="636" transform="matrix(1 0 0 -1 0 842)" d="M357.8693 234.0261C 357.8693 233.7277 357.8122 233.4407 357.698 233.165C 357.5838 232.8894 357.4213 232.6461 357.2103 232.4351C 356.9993 232.2241 356.756 232.0615 356.4803 231.9473C 356.2047 231.8332 355.9177 231.7761 355.6193 231.7761C 355.3209 231.7761 355.0339 231.8332 354.7582 231.9473C 354.4826 232.0615 354.2393 232.2241 354.0283 232.4351C 353.8173 232.6461 353.6548 232.8894 353.5406 233.165C 353.4264 233.4407 353.3693 233.7277 353.3693 234.0261C 353.3693 234.3244 353.4264 234.6115 353.5406 234.8871C 353.6548 235.1628 353.8173 235.4061 354.0283 235.6171C 354.2393 235.828 354.4826 235.9906 354.7582 236.1048C 355.0339 236.219 355.3209 236.2761 355.6193 236.2761C 355.9177 236.2761 356.2047 236.219 356.4803 236.1048C 356.756 235.9906 356.9993 235.828 357.2103 235.6171C 357.4213 235.4061 357.5838 235.1628 357.698 234.8871C 357.8122 234.6115 357.8693 234.3244 357.8693 234.0261z" stroke="none" fill="#000000" fill-rule="nonzero" /><path id="656" transform="matrix(1 0 0 -1 0 842)" d="M357.8693 216.7761C 357.8693 216.4777 357.8122 216.1907 357.698 215.915C 357.5838 215.6394 357.4213 215.3961 357.2103 215.1851C 356.9993 214.9741 356.756 214.8115 356.4803 214.6973C 356.2047 214.5832 355.9177 214.5261 355.6193 214.5261C 355.3209 214.5261 355.0339 214.5832 354.7582 214.6973C 354.4826 214.8115 354.2393 214.9741 354.0283 215.1851C 353.8173 215.3961 353.6548 215.6394 353.5406 215.915C 353.4264 216.1907 353.3693 216.4777 353.3693 216.7761C 353.3693 217.0744 353.4264 217.3615 353.5406 217.6371C 353.6548 217.9128 353.8173 218.1561 354.0283 218.3671C 354.2393 218.578 354.4826 218.7406 354.7582 218.8548C 355.0339 218.969 355.3209 219.0261 355.6193 219.0261C 355.9177 219.0261 356.2047 218.969 356.4803 218.8548C 356.756 218.7406 356.9993 218.578 357.2103 218.3671C 357.4213 218.1561 357.5838 217.9128 357.698 217.6371C 357.8122 217.3615 357.8693 217.0744 357.8693 216.7761z" stroke="none" fill="#000000" fill-rule="nonzero" /><path id="673" transform="matrix(1 0 0 -1 0 842)" d="M357.8693 199.5261C 357.8693 199.2277 357.8122 198.9407 357.698 198.665C 357.5838 198.3894 357.4213 198.1461 357.2103 197.9351C 356.9993 197.7241 356.756 197.5615 356.4803 197.4473C 356.2047 197.3332 355.9177 197.2761 355.6193 197.2761C 355.3209 197.2761 355.0339 197.3332 354.7582 197.4473C 354.4826 197.5615 354.2393 197.7241 354.0283 197.9351C 353.8173 198.1461 353.6548 198.3894 353.5406 198.665C 353.4264 198.9407 353.3693 199.2277 353.3693 199.5261C 353.3693 199.8244 353.4264 200.1115 353.5406 200.3871C 353.6548 200.6628 353.8173 200.9061 354.0283 201.1171C 354.2393 201.328 354.4826 201.4906 354.7582 201.6048C 355.0339 201.719 355.3209 201.7761 355.6193 201.7761C 355.9177 201.7761 356.2047 201.719 356.4803 201.6048C 356.756 201.4906 356.9993 201.328 357.2103 201.1171C 357.4213 200.9061 357.5838 200.6628 357.698 200.3871C 357.8122 200.1115 357.8693 199.8244 357.8693 199.5261z" stroke="none" fill="#000000" fill-rule="nonzero" /><path id="693" transform="matrix(1 0 0 -1 0 842)" d="M357.8693 182.2761C 357.8693 181.9777 357.8122 181.6907 357.698 181.415C 357.5838 181.1394 357.4213 180.8961 357.2103 180.6851C 356.9993 180.4741 356.756 180.3115 356.4803 180.1973C 356.2047 180.0832 355.9177 180.0261 355.6193 180.0261C 355.3209 180.0261 355.0339 180.0832 354.7582 180.1973C 354.4826 180.3115 354.2393 180.4741 354.0283 180.6851C 353.8173 180.8961 353.6548 181.1394 353.5406 181.415C 353.4264 181.6907 353.3693 181.9777 353.3693 182.2761C 353.3693 182.5744 353.4264 182.8615 353.5406 183.1371C 353.6548 183.4128 353.8173 183.6561 354.0283 183.8671C 354.2393 184.078 354.4826 184.2406 354.7582 184.3548C 355.0339 184.469 355.3209 184.5261 355.6193 184.5261C 355.9177 184.5261 356.2047 184.469 356.4803 184.3548C 356.756 184.2406 356.9993 184.078 357.2103 183.8671C 357.4213 183.6561 357.5838 183.4128 357.698 183.1371C 357.8122 182.8615 357.8693 182.5744 357.8693 182.2761z" stroke="none" fill="#000000" fill-rule="nonzero" /><path id="711" transform="matrix(1 0 0 -1 0 842)" d="M357.8693 165.0261C 357.8693 164.7277 357.8122 164.4407 357.698 164.165C 357.5838 163.8894 357.4213 163.6461 357.2103 163.4351C 356.9993 163.2241 356.756 163.0615 356.4803 162.9473C 356.2047 162.8332 355.9177 162.7761 355.6193 162.7761C 355.3209 162.7761 355.0339 162.8332 354.7582 162.9473C 354.4826 163.0615 354.2393 163.2241 354.0283 163.4351C 353.8173 163.6461 353.6548 163.8894 353.5406 164.165C 353.4264 164.4407 353.3693 164.7277 353.3693 165.0261C 353.3693 165.3244 353.4264 165.6115 353.5406 165.8871C 353.6548 166.1628 353.8173 166.4061 354.0283 166.6171C 354.2393 166.828 354.4826 166.9906 354.7582 167.1048C 355.0339 167.219 355.3209 167.2761 355.6193 167.2761C 355.9177 167.2761 356.2047 167.219 356.4803 167.1048C 356.756 166.9906 356.9993 166.828 357.2103 166.6171C 357.4213 166.4061 357.5838 166.1628 357.698 165.8871C 357.8122 165.6115 357.8693 165.3244 357.8693 165.0261z" stroke="none" fill="#000000" fill-rule="nonzero" /><path id="734" transform="matrix(1 0 0 -1 0 842)" d="M357.8693 147.7761C 357.8693 147.4777 357.8122 147.1907 357.698 146.915C 357.5838 146.6394 357.4213 146.3961 357.2103 146.1851C 356.9993 145.9741 356.756 145.8115 356.4803 145.6973C 356.2047 145.5832 355.9177 145.5261 355.6193 145.5261C 355.3209 145.5261 355.0339 145.5832 354.7582 145.6973C 354.4826 145.8115 354.2393 145.9741 354.0283 146.1851C 353.8173 146.3961 353.6548 146.6394 353.5406 146.915C 353.4264 147.1907 353.3693 147.4777 353.3693 147.7761C 353.3693 148.0744 353.4264 148.3615 353.5406 148.6371C 353.6548 148.9128 353.8173 149.1561 354.0283 149.3671C 354.2393 149.578 354.4826 149.7406 354.7582 149.8548C 355.0339 149.969 355.3209 150.0261 355.6193 150.0261C 355.9177 150.0261 356.2047 149.969 356.4803 149.8548C 356.756 149.7406 356.9993 149.578 357.2103 149.3671C 357.4213 149.1561 357.5838 148.9128 357.698 148.6371C 357.8122 148.3615 357.8693 148.0744 357.8693 147.7761z" stroke="none" fill="#000000" fill-rule="nonzero" /><path id="755" transform="matrix(1 0 0 -1 0 842)" d="M357.8693 130.5261C 357.8693 130.2277 357.8122 129.9407 357.698 129.665C 357.5838 129.3894 357.4213 129.1461 357.2103 128.9351C 356.9993 128.7241 356.756 128.5615 356.4803 128.4473C 356.2047 128.3332 355.9177 128.2761 355.6193 128.2761C 355.3209 128.2761 355.0339 128.3332 354.7582 128.4473C 354.4826 128.5615 354.2393 128.7241 354.0283 128.9351C 353.8173 129.1461 353.6548 129.3894 353.5406 129.665C 353.4264 129.9407 353.3693 130.2277 353.3693 130.5261C 353.3693 130.8244 353.4264 131.1115 353.5406 131.3871C 353.6548 131.6628 353.8173 131.9061 354.0283 132.1171C 354.2393 132.328 354.4826 132.4906 354.7582 132.6048C 355.0339 132.719 355.3209 132.7761 355.6193 132.7761C 355.9177 132.7761 356.2047 132.719 356.4803 132.6048C 356.756 132.4906 356.9993 132.328 357.2103 132.1171C 357.4213 131.9061 357.5838 131.6628 357.698 131.3871C 357.8122 131.1115 357.8693 130.8244 357.8693 130.5261z" stroke="none" fill="#000000" fill-rule="nonzero" /><path id="770" transform="matrix(1 0 0 -1 0 842)" d="M357.8693 113.2761C 357.8693 112.9777 357.8122 112.6907 357.698 112.4151C 357.5838 112.1394 357.4213 111.8961 357.2103 111.6851C 356.9993 111.4741 356.756 111.3115 356.4803 111.1974C 356.2047 111.0832 355.9177 111.0261 355.6193 111.0261C 355.3209 111.0261 355.0339 111.0832 354.7582 111.1974C 354.4826 111.3115 354.2393 111.4741 354.0283 111.6851C 353.8173 111.8961 353.6548 112.1394 353.5406 112.4151C 353.4264 112.6907 353.3693 112.9777 353.3693 113.2761C 353.3693 113.5744 353.4264 113.8615 353.5406 114.1371C 353.6548 114.4128 353.8173 114.6561 354.0283 114.8671C 354.2393 115.078 354.4826 115.2406 354.7582 115.3548C 355.0339 115.469 355.3209 115.5261 355.6193 115.5261C 355.9177 115.5261 356.2047 115.469 356.4803 115.3548C 356.756 115.2406 356.9993 115.078 357.2103 114.8671C 357.4213 114.6561 357.5838 114.4128 357.698 114.1371C 357.8122 113.8615 357.8693 113.5744 357.8693 113.2761z" stroke="none" fill="#000000" fill-rule="nonzero" /><path id="790" transform="matrix(1 0 0 -1 0 842)" d="M357.8693 96.02606C 357.8693 95.72771 357.8122 95.4407 357.698 95.16504C 357.5838 94.88937 357.4213 94.64606 357.2103 94.43507C 356.9993 94.22409 356.756 94.06152 356.4803 93.94734C 356.2047 93.83316 355.9177 93.77608 355.6193 93.77606C 355.3209 93.77608 355.0339 93.83316 354.7582 93.94734C 354.4826 94.06152 354.2393 94.22409 354.0283 94.43507C 353.8173 94.64606 353.6548 94.88937 353.5406 95.16504C 353.4264 95.4407 353.3693 95.72771 353.3693 96.02606C 353.3693 96.32445 353.4264 96.61148 353.5406 96.88713C 353.6548 97.16278 353.8173 97.4061 354.0283 97.61707C 354.2393 97.82805 354.4826 97.99063 354.7582 98.1048C 355.0339 98.21898 355.3209 98.27606 355.6193 98.27606C 355.9177 98.27606 356.2047 98.21898 356.4803 98.1048C 356.756 97.99063 356.9993 97.82805 357.2103 97.61707C 357.4213 97.4061 357.5838 97.16278 357.698 96.88713C 357.8122 96.61148 357.8693 96.32445 357.8693 96.02606z" stroke="none" fill="#000000" fill-rule="nonzero" /></g><g clip-path="url(#7)"><g clip-path="url(#8)"><g clip-path="url(#9)"><g clip-path="url(#10)"><g clip-path="url(#11)"><g clip-path="url(#12)"><g transform="matrix(0.640909 0 0 0.6406251 32.39311 590.9705)"><g transform="matrix(1 0 0 1 0 0)"><image x="0" y="0" xlink:href="img_02.png" width="440" height="240" /></g></g></g></g></g></g></g></g><g clip-path="url(#13)"><g clip-path="url(#14)"><g clip-path="url(#15)"><g clip-path="url(#16)"><g clip-path="url(#17)"><g clip-path="url(#18)"><g clip-path="url(#19)"><path id="803" transform="matrix(1 0 0 -1 0 842)" d="M32.39311 235.2805L32.39311 112.7823C 32.39311 104.0844 39.44448 97.03334 48.14278 97.03334L48.14278 97.03334L298.9832 97.03334C 307.6815 97.03334 314.7329 104.0844 314.7329 112.7823L314.7329 112.7823L314.7329 235.2805C 314.7329 243.9784 307.6815 251.0294 298.9832 251.0294L298.9832 251.0294L48.14278 251.0294C 39.44448 251.0294 32.39311 243.9784 32.39311 235.2805z" stroke="#000000" stroke-width="1.5" fill="none" /></g></g></g></g></g></g></g><g clip-path="url(#20)"><g transform="matrix(0.04881657 0 0 0.04866743 508.0592 17.08502)"><g transform="matrix(1 0 0 1 0 0)"><image x="0" y="0" xlink:href="img_03.png" width="1521" height="863" /></g></g></g><g clip-path="url(#21)"></g></g></g></svg>