<svg xmlns="http://www.w3.org/2000/svg" xmlns:xlink="http://www.w3.org/1999/xlink" id="body_1" preserveAspectRatio="xMinYMin meet" viewBox="0 0 793 1123"><defs><clipPath id="1"><path id="" clip-rule="evenodd" transform="matrix(1 0 0 1 0 0)" d="M0 842L0 -0.25L0 -0.25L595.5 -0.25L595.5 -0.25L595.5 842L595.5 842L0 842z" /></clipPath><clipPath id="2"><path id="" clip-rule="evenodd" transform="matrix(1 0 0 1 0 0)" d="M0 -0.249939L595.5 -0.249939L595.5 -0.249939L595.5 842.0001L595.5 842.0001L0 842.0001z" /></clipPath><clipPath id="3"><path id="" clip-rule="evenodd" transform="matrix(1 0 0 1 0 0)" d="M0 -0.249939L595.5 -0.249939L595.5 -0.249939L595.5 842.0001L595.5 842.0001L0 842.0001z" /></clipPath><clipPath id="4"><path id="" clip-rule="evenodd" transform="matrix(1 0 0 1 0 0)" d="M0 -0.249939L595.5 -0.249939L595.5 -0.249939L595.5 842.0001L595.5 842.0001L0 842.0001z" /></clipPath><clipPath id="5"><path id="" clip-rule="evenodd" transform="matrix(1 0 0 1 0 0)" d="M79.67999 18.95007L535.92 18.95007L535.92 18.95007L535.92 823.1901L535.92 823.1901L79.67999 823.1901z" /></clipPath><clipPath id="6"><path id="" clip-rule="evenodd" transform="matrix(1 0 0 1 0 0)" d="M79.74117 19.05255L535.7411 19.05255L535.7411 19.05255L535.7411 822.3026L535.7411 822.3026L79.74117 822.3026z" /></clipPath><clipPath id="7"><path id="" clip-rule="evenodd" transform="matrix(1 0 0 1 0 0)" d="M0 -0.249939L595.5 -0.249939L595.5 -0.249939L595.5 842.0001L595.5 842.0001L0 842.0001z" /></clipPath><clipPath id="8"><path id="" clip-rule="evenodd" transform="matrix(1 0 0 1 0 0)" d="M0 -0.249939L595.5 -0.249939L595.5 -0.249939L595.5 842.0001L595.5 842.0001L0 842.0001z" /></clipPath><clipPath id="9"><path id="" clip-rule="evenodd" transform="matrix(1 0 0 1 0 0)" d="M56.34586 313.0354L277.6974 313.0354L277.6974 313.0354L277.6974 633.8223L277.6974 633.8223L56.34586 633.8223z" /></clipPath><clipPath id="10"><path id="" clip-rule="evenodd" transform="matrix(1 0 0 1 0 0)" d="M72.09586 313.0354L261.9474 313.0354C 270.6459 313.0354 277.6974 320.0869 277.6974 328.7854L277.6974 328.7854L277.6974 617.249C 277.6974 625.9475 270.6459 632.999 261.9474 632.999L261.9474 632.999L72.09586 632.999C 63.39737 632.999 56.34586 625.9475 56.34586 617.249L56.34586 617.249L56.34586 328.7854C 56.34586 320.0869 63.39737 313.0354 72.09586 313.0354z" /></clipPath><clipPath id="11"><path id="" clip-rule="evenodd" transform="matrix(1 0 0 1 0 0)" d="M0 -0.249939L595.5 -0.249939L595.5 -0.249939L595.5 842.0001L595.5 842.0001L0 842.0001z" /></clipPath><clipPath id="12"><path id="" clip-rule="evenodd" transform="matrix(1 0 0 1 0 0)" d="M0 -0.249939L595.5 -0.249939L595.5 -0.249939L595.5 842.0001L595.5 842.0001L0 842.0001z" /></clipPath><clipPath id="13"><path id="" clip-rule="evenodd" transform="matrix(1 0 0 1 0 0)" d="M56.34586 313.0354L277.5959 313.0354L277.5959 313.0354L277.5959 633.2853L277.5959 633.2853L56.34586 633.2853z" /></clipPath><clipPath id="14"><path id="" clip-rule="evenodd" transform="matrix(1 0 0 1 0 0)" d="M56.34586 313.0378L277.7185 313.0378L277.7185 313.0378L277.7185 634.8002L277.7185 634.8002L56.34586 634.8002z" /></clipPath><clipPath id="15"><path id="" clip-rule="evenodd" transform="matrix(1 0 0 1 0 0)" d="M72.09529 313.0378L261.9402 313.0378C 270.6383 313.0378 277.6896 320.089 277.6896 328.7872L277.6896 328.7872L277.6896 617.2407C 277.6896 625.9388 270.6383 632.9901 261.9402 632.9901L261.9402 632.9901L72.09529 632.9901C 63.39712 632.9901 56.34586 625.9388 56.34586 617.2407L56.34586 617.2407L56.34586 328.7872C 56.34586 320.089 63.39712 313.0378 72.09529 313.0378z" /></clipPath><clipPath id="16"><path id="" clip-rule="evenodd" transform="matrix(1 0 0 1 0 0)" d="M0 -0.249939L595.5 -0.249939L595.5 -0.249939L595.5 842.0001L595.5 842.0001L0 842.0001z" /></clipPath><clipPath id="17"><path id="" clip-rule="evenodd" transform="matrix(1 0 0 1 0 0)" d="M0 -0.249939L595.5 -0.249939L595.5 -0.249939L595.5 842.0001L595.5 842.0001L0 842.0001z" /></clipPath><clipPath id="18"><path id="" clip-rule="evenodd" transform="matrix(1 0 0 1 0 0)" d="M0 -0.249939L595.5 -0.249939L595.5 -0.249939L595.5 842.0001L595.5 842.0001L0 842.0001z" /></clipPath><clipPath id="19"><path id="" clip-rule="evenodd" transform="matrix(1 0 0 1 0 0)" d="M326.6553 499.9273L523.5676 499.9273L523.5676 499.9273L523.5676 783.7579L523.5676 783.7579L326.6553 783.7579z" /></clipPath><clipPath id="20"><path id="" clip-rule="evenodd" transform="matrix(1 0 0 1 0 0)" d="M342.4053 499.9273L507.8176 499.9273C 516.5161 499.9273 523.5676 506.9788 523.5676 515.6772L523.5676 515.6772L523.5676 767.7512C 523.5676 776.4497 516.5161 783.5012 507.8176 783.5012L507.8176 783.5012L342.4053 783.5012C 333.7068 783.5012 326.6553 776.4497 326.6553 767.7512L326.6553 767.7512L326.6553 515.6772C 326.6553 506.9788 333.7068 499.9273 342.4053 499.9273z" /></clipPath><clipPath id="21"><path id="" clip-rule="evenodd" transform="matrix(1 0 0 1 0 0)" d="M0 -0.249939L595.5 -0.249939L595.5 -0.249939L595.5 842.0001L595.5 842.0001L0 842.0001z" /></clipPath><clipPath id="22"><path id="" clip-rule="evenodd" transform="matrix(1 0 0 1 0 0)" d="M0 -0.249939L595.5 -0.249939L595.5 -0.249939L595.5 842.0001L595.5 842.0001L0 842.0001z" /></clipPath><clipPath id="23"><path id="" clip-rule="evenodd" transform="matrix(1 0 0 1 0 0)" d="M326.6553 499.9273L523.9053 499.9273L523.9053 499.9273L523.9053 783.4272L523.9053 783.4272L326.6553 783.4272z" /></clipPath><clipPath id="24"><path id="" clip-rule="evenodd" transform="matrix(1 0 0 1 0 0)" d="M326.6555 499.9273L524.8657 499.9273L524.8657 499.9273L524.8657 785.6588L524.8657 785.6588L326.6555 785.6588z" /></clipPath><clipPath id="25"><path id="" clip-rule="evenodd" transform="matrix(1 0 0 1 0 0)" d="M342.4053 499.9273L507.8154 499.9273C 516.5138 499.9273 523.5652 506.9787 523.5652 515.6771L523.5652 515.6771L523.5652 767.7478C 523.5652 776.4462 516.5138 783.4976 507.8154 783.4976L507.8154 783.4976L342.4053 783.4976C 333.707 783.4976 326.6555 776.4462 326.6555 767.7478L326.6555 767.7478L326.6555 515.6771C 326.6555 506.9787 333.707 499.9273 342.4053 499.9273z" /></clipPath><clipPath id="26"><path id="" clip-rule="evenodd" transform="matrix(1 0 0 1 0 0)" d="M0 -0.249939L595.5 -0.249939L595.5 -0.249939L595.5 842.0001L595.5 842.0001L0 842.0001z" /></clipPath><clipPath id="27"><path id="" clip-rule="evenodd" transform="matrix(1 0 0 1 0 0)" d="M0 -0.249939L595.5 -0.249939L595.5 -0.249939L595.5 842.0001L595.5 842.0001L0 842.0001z" /></clipPath><clipPath id="28"><path id="" clip-rule="evenodd" transform="matrix(1 0 0 1 0 0)" d="M0 -0.249939L595.5 -0.249939L595.5 -0.249939L595.5 842.0001L595.5 842.0001L0 842.0001z" /></clipPath><clipPath id="29"><path id="" clip-rule="evenodd" transform="matrix(1 0 0 1 0 0)" d="M320.3487 161.8507L550.2004 161.8507L550.2004 161.8507L550.2004 459.0418L550.2004 459.0418L320.3487 459.0418z" /></clipPath><clipPath id="30"><path id="" clip-rule="evenodd" transform="matrix(1 0 0 1 0 0)" d="M336.0987 161.8507L534.4504 161.8507C 543.1489 161.8507 550.2004 168.9022 550.2004 177.6007L550.2004 177.6007L550.2004 442.4666C 550.2004 451.1652 543.1489 458.2166 534.4504 458.2166L534.4504 458.2166L336.0987 458.2166C 327.4002 458.2166 320.3487 451.1652 320.3487 442.4666L320.3487 442.4666L320.3487 177.6007C 320.3487 168.9022 327.4002 161.8507 336.0987 161.8507z" /></clipPath><clipPath id="31"><path id="" clip-rule="evenodd" transform="matrix(1 0 0 1 0 0)" d="M0 -0.249939L595.5 -0.249939L595.5 -0.249939L595.5 842.0001L595.5 842.0001L0 842.0001z" /></clipPath><clipPath id="32"><path id="" clip-rule="evenodd" transform="matrix(1 0 0 1 0 0)" d="M0 -0.249939L595.5 -0.249939L595.5 -0.249939L595.5 842.0001L595.5 842.0001L0 842.0001z" /></clipPath><clipPath id="33"><path id="" clip-rule="evenodd" transform="matrix(1 0 0 1 0 0)" d="M320.3487 161.8507L549.8487 161.8507L549.8487 161.8507L549.8487 458.1007L549.8487 458.1007L320.3487 458.1007z" /></clipPath><clipPath id="34"><path id="" clip-rule="evenodd" transform="matrix(1 0 0 1 0 0)" d="M320.3527 161.8507L552.0218 161.8507L552.0218 161.8507L552.0218 460.4464L552.0218 460.4464L320.3527 460.4464z" /></clipPath><clipPath id="35"><path id="" clip-rule="evenodd" transform="matrix(1 0 0 1 0 0)" d="M336.1021 161.8507L534.4468 161.8507C 543.145 161.8507 550.1963 168.902 550.1963 177.6002L550.1963 177.6002L550.1963 442.4568C 550.1963 451.155 543.145 458.2062 534.4468 458.2062L534.4468 458.2062L336.1021 458.2062C 327.404 458.2062 320.3527 451.155 320.3527 442.4568L320.3527 442.4568L320.3527 177.6002C 320.3527 168.902 327.404 161.8507 336.1021 161.8507z" /></clipPath><clipPath id="36"><path id="" clip-rule="evenodd" transform="matrix(1 0 0 1 0 0)" d="M0 -0.249939L595.5 -0.249939L595.5 -0.249939L595.5 842.0001L595.5 842.0001L0 842.0001z" /></clipPath><clipPath id="37"><path id="" clip-rule="evenodd" transform="matrix(1 0 0 1 0 0)" d="M0 -0.249939L595.5 -0.249939L595.5 -0.249939L595.5 842.0001L595.5 842.0001L0 842.0001z" /></clipPath><clipPath id="38"><path id="" clip-rule="evenodd" transform="matrix(1 0 0 1 0 0)" d="M0 -0.249939L595.5 -0.249939L595.5 -0.249939L595.5 842.0001L595.5 842.0001L0 842.0001z" /></clipPath><clipPath id="39"><path id="" clip-rule="evenodd" transform="matrix(1 0 0 1 0 0)" d="M366.6175 313.0354L497.8675 313.0354L497.8675 313.0354L497.8675 446.5354L497.8675 446.5354L366.6175 446.5354z" /></clipPath><clipPath id="40"><path id="" clip-rule="evenodd" transform="matrix(1 0 0 1 0 0)" d="M366.6175 330.2854L366.6175 428.5526C 366.6175 438.0796 374.3406 445.8026 383.8675 445.8026L383.8675 445.8026L480.3629 445.8026C 489.8898 445.8026 497.6129 438.0796 497.6129 428.5526L497.6129 428.5526L497.6129 330.2854C 497.6129 325.7104 495.7955 321.3228 492.5604 318.0878C 489.3254 314.8528 484.9378 313.0354 480.3629 313.0354L480.3629 313.0354L383.8675 313.0354C 374.3406 313.0354 366.6175 320.7585 366.6175 330.2854z" /></clipPath><clipPath id="41"><path id="" clip-rule="evenodd" transform="matrix(1 0 0 1 0 0)" d="M366.6175 313.0354L497.8675 313.0354L497.8675 313.0354L497.8675 445.7854L497.8675 445.7854L366.6175 445.7854z" /></clipPath><clipPath id="42"><path id="" clip-rule="evenodd" transform="matrix(1 0 0 1 0 0)" d="M84.98977 449.1581L249.2398 449.1581L249.2398 449.1581L249.2398 613.4081L249.2398 613.4081L84.98977 613.4081z" /></clipPath><clipPath id="43"><path id="" clip-rule="evenodd" transform="matrix(1 0 0 1 0 0)" d="M354.8537 613.2219L501.1037 613.2219L501.1037 613.2219L501.1037 775.2219L501.1037 775.2219L354.8537 775.2219z" /></clipPath><clipPath id="44"><path id="" clip-rule="evenodd" transform="matrix(1 0 0 1 0 0)" d="M0 -0.249939L595.5 -0.249939L595.5 -0.249939L595.5 842.0001L595.5 842.0001L0 842.0001z" /></clipPath><clipPath id="45"><path id="" clip-rule="evenodd" transform="matrix(1 0 0 1 0 0)" d="M493.2132 19.05707L577.9632 19.05707L577.9632 19.05707L577.9632 67.05707L577.9632 67.05707L493.2132 67.05707z" /></clipPath></defs><g transform="matrix(1.333333 0 0 1.333333 0 0)"><g clip-path="url(#1)"><g clip-path="url(#2)"><path id="1" transform="matrix(1 0 0 -1 0 842)" d="M0 842.2499L595.4999 842.2499L595.4999 -6.103516E-05L0 -6.103516E-05z" stroke="none" fill="#FFFFFF" fill-rule="nonzero" /></g><g clip-path="url(#3)"><path id="2" transform="matrix(1 0 0 -1 0 842)" d="M0 842.2499L595.4999 842.2499L595.4999 -6.103516E-05L0 -6.103516E-05z" stroke="none" fill="#FFFFFF" fill-rule="nonzero" /></g><g clip-path="url(#4)"><g><g clip-path="url(#5)"><g clip-path="url(#6)"><g transform="matrix(0 0.5281065 -0.5283893 0 535.7411 19.05261)"><g transform="matrix(1 0 0 1 0 0)"><image x="0" y="0" xlink:href="img_01.png" width="1521" height="863" /></g></g></g></g></g></g><g clip-path="url(#7)"><g clip-path="url(#8)"><g clip-path="url(#9)"><g clip-path="url(#10)"><path id="66" transform="matrix(1 0 0 -1 0 842)" d="M56.34585 528.9646L277.6974 528.9646L277.6974 209.0424L56.34585 209.0424z" stroke="none" fill="#A4BBCD" fill-rule="nonzero" /></g></g></g></g><g clip-path="url(#11)"><g clip-path="url(#12)"><g clip-path="url(#13)"><g clip-path="url(#14)"><g clip-path="url(#15)"><path id="67" transform="matrix(1 0 0 -1 0 842)" d="M72.09529 528.9622L261.9402 528.9622C 270.6383 528.9622 277.6896 521.9109 277.6896 513.2128L277.6896 513.2128L277.6896 224.7593C 277.6896 216.0612 270.6383 209.0099 261.9402 209.0099L261.9402 209.0099L72.09529 209.0099C 63.39712 209.0099 56.34585 216.0612 56.34585 224.7593L56.34585 224.7593L56.34585 513.2128C 56.34585 521.9109 63.39712 528.9622 72.09529 528.9622z" stroke="#000000" stroke-width="3" fill="none" /></g></g></g></g></g><g clip-path="url(#16)"></g><g clip-path="url(#17)"><g clip-path="url(#18)"><g clip-path="url(#19)"><g clip-path="url(#20)"><path id="140" transform="matrix(1 0 0 -1 0 842)" d="M326.6553 342.0727L523.5676 342.0727L523.5676 58.24216L326.6553 58.24216z" stroke="none" fill="#A4BBCD" fill-rule="nonzero" /></g></g></g></g><g clip-path="url(#21)"><g clip-path="url(#22)"><g clip-path="url(#23)"><g clip-path="url(#24)"><g clip-path="url(#25)"><path id="141" transform="matrix(1 0 0 -1 0 842)" d="M342.4053 342.0727L507.8154 342.0727C 516.5138 342.0727 523.5652 335.0213 523.5652 326.3229L523.5652 326.3229L523.5652 74.2522C 523.5652 65.55386 516.5138 58.50241 507.8154 58.50241L507.8154 58.50241L342.4053 58.50241C 333.7069 58.50241 326.6555 65.55386 326.6555 74.2522L326.6555 74.2522L326.6555 326.3229C 326.6555 335.0213 333.7069 342.0727 342.4053 342.0727z" stroke="#000000" stroke-width="3" fill="none" /></g></g></g></g></g><g clip-path="url(#26)"><path id="142" transform="matrix(1 0 0 -1 0 842)" d="M309.0987 468.0717L298.1181 468.0717C 295.2059 468.0717 292.413 469.2286 290.3537 471.2878C 288.2944 473.3471 287.1375 476.14 287.1375 479.0522L287.1375 479.0522L287.1375 535.1852C 287.1375 544.2979 279.7502 551.6852 270.6375 551.6852L270.6375 551.6852L39.6347 551.6852C 30.522 551.6852 23.1347 544.2979 23.1347 535.1852L23.1347 535.1852L23.1347 398.281C 23.1347 395.3688 24.29158 392.5759 26.35084 390.5166C 28.4101 388.4573 31.20305 387.3004 34.11528 387.3004L34.11528 387.3004L45.09585 387.3004" stroke="#000000" stroke-width="3" fill="none" /><path id="143" transform="matrix(1 0 0 -1 0 842)" d="M309.8487 472.5717L318.8487 472.5717L318.8487 472.5717L318.8487 463.5717L318.8487 463.5717L309.8487 463.5717z" stroke="#000000" stroke-width="3" stroke-linecap="round" fill="none" /><path id="144" transform="matrix(1 0 0 -1 0 842)" d="M54.84585 391.8004L45.84586 391.8004L45.84586 391.8004L45.84586 382.8004L45.84586 382.8004L54.84585 382.8004L54.84585 382.8004L54.84585 391.8004z" stroke="#000000" stroke-width="3" stroke-linecap="round" fill="none" /><path id="145" transform="matrix(1 0 0 -1 0 842)" d="M192.6099 203.278L192.6099 192.2974C 192.6099 189.3851 193.7668 186.5922 195.8261 184.5329C 197.8853 182.4737 200.6783 181.3168 203.5905 181.3168L203.5905 181.3168L315.4053 181.3168" stroke="#000000" stroke-width="3" fill="none" /><path id="146" transform="matrix(1 0 0 -1 0 842)" d="M188.1099 213.028L197.1099 213.028L197.1099 213.028L197.1099 204.028L197.1099 204.028L188.1099 204.028z" stroke="#000000" stroke-width="3" stroke-linecap="round" fill="none" /><path id="147" transform="matrix(1 0 0 -1 0 842)" d="M325.1553 185.8168L316.1553 185.8168L316.1553 185.8168L316.1553 176.8168L316.1553 176.8168L325.1553 176.8168L325.1553 176.8168L325.1553 185.8168z" stroke="#000000" stroke-width="3" stroke-linecap="round" fill="none" /></g><g clip-path="url(#27)"><g clip-path="url(#28)"><g clip-path="url(#29)"><g clip-path="url(#30)"><path id="148" transform="matrix(1 0 0 -1 0 842)" d="M320.3487 680.1492L550.2004 680.1492L550.2004 383.856L320.3487 383.856z" stroke="none" fill="#A4BBCD" fill-rule="nonzero" /></g></g></g></g><g clip-path="url(#31)"><g clip-path="url(#32)"><g clip-path="url(#33)"><g clip-path="url(#34)"><g clip-path="url(#35)"><path id="149" transform="matrix(1 0 0 -1 0 842)" d="M336.1021 680.1492L534.4468 680.1492C 543.145 680.1492 550.1963 673.098 550.1963 664.3998L550.1963 664.3998L550.1963 399.5432C 550.1963 390.845 543.145 383.7937 534.4468 383.7937L534.4468 383.7937L336.1021 383.7937C 327.404 383.7937 320.3527 390.845 320.3527 399.5432L320.3527 399.5432L320.3527 664.3998C 320.3527 673.098 327.404 680.1492 336.1021 680.1492z" stroke="#000000" stroke-width="3" fill="none" /></g></g></g></g></g><g clip-path="url(#36)"></g><g clip-path="url(#37)"><g clip-path="url(#38)"><g clip-path="url(#39)"><g clip-path="url(#40)"><g clip-path="url(#41)"><g transform="matrix(0.595 0 0 0.5965909 349.919 293.025)"><g transform="matrix(1 0 0 1 0 0)"><image x="0" y="0" xlink:href="img_02.png" width="300" height="308" /></g></g></g></g></g></g></g><g clip-path="url(#42)"><g transform="matrix(0.5929602 0 0 0.5929602 84.98977 449.1581)"><g transform="matrix(1 0 0 1 0 0)"><image x="0" y="0" xlink:href="img_03.png" width="277" height="277" /></g></g></g><g clip-path="url(#43)"><g transform="matrix(0.5993851 0 0 0.5999999 354.8537 613.2219)"><g transform="matrix(1 0 0 1 0 0)"><image x="0" y="0" xlink:href="img_04.png" width="244" height="270" /></g></g></g><g clip-path="url(#44)"></g><g clip-path="url(#45)"><g transform="matrix(0.05571992 0 0 0.05561992 493.2132 19.05707)"><g transform="matrix(1 0 0 1 0 0)"><image x="0" y="0" xlink:href="img_05.png" width="1521" height="863" /></g></g></g></g></g></svg>