<svg xmlns="http://www.w3.org/2000/svg" xmlns:xlink="http://www.w3.org/1999/xlink" id="body_1" preserveAspectRatio="xMinYMin meet" viewBox="0 0 793 1123"><defs><clipPath id="1"><path id="" clip-rule="evenodd" transform="matrix(1 0 0 1 0 0)" d="M0 842L0 -0.25L0 -0.25L595.5 -0.25L595.5 -0.25L595.5 842L595.5 842L0 842z" /></clipPath><clipPath id="2"><path id="" clip-rule="evenodd" transform="matrix(1 0 0 1 0 0)" d="M0 -0.249939L595.5 -0.249939L595.5 -0.249939L595.5 842.0001L595.5 842.0001L0 842.0001z" /></clipPath><clipPath id="3"><path id="" clip-rule="evenodd" transform="matrix(1 0 0 1 0 0)" d="M0 -0.249939L595.5 -0.249939L595.5 -0.249939L595.5 842.0001L595.5 842.0001L0 842.0001z" /></clipPath><clipPath id="4"><path id="" clip-rule="evenodd" transform="matrix(1 0 0 1 0 0)" d="M0 -0.249939L595.5 -0.249939L595.5 -0.249939L595.5 842.0001L595.5 842.0001L0 842.0001z" /></clipPath><clipPath id="5"><path id="" clip-rule="evenodd" transform="matrix(1 0 0 1 0 0)" d="M78.71999 30.71008L522.24 30.71008L522.24 30.71008L522.24 810.9501L522.24 810.9501L78.71999 810.9501z" /></clipPath><clipPath id="6"><path id="" clip-rule="evenodd" transform="matrix(1 0 0 1 0 0)" d="M79.51787 30.75183L522.0178 30.75183L522.0178 30.75183L522.0178 810.7518L522.0178 810.7518L79.51787 810.7518z" /></clipPath><clipPath id="7"><path id="" clip-rule="evenodd" transform="matrix(1 0 0 1 0 0)" d="M50.0304 247.3134L106.2804 247.3134L106.2804 247.3134L106.2804 281.8134L106.2804 281.8134L50.0304 281.8134z" /></clipPath><clipPath id="8"><path id="" clip-rule="evenodd" transform="matrix(1 0 0 1 0 0)" d="M51.84 249.3501L102 249.3501L102 249.3501L102 268.3101L102 268.3101L51.84 268.3101z" /></clipPath><clipPath id="9"><path id="" clip-rule="evenodd" transform="matrix(1 0 0 1 0 0)" d="M48.31164 296.0046L104.5616 296.0046L104.5616 296.0046L104.5616 330.5046L104.5616 330.5046L48.31164 330.5046z" /></clipPath><clipPath id="10"><path id="" clip-rule="evenodd" transform="matrix(1 0 0 1 0 0)" d="M50.16 298.0701L100.32 298.0701L100.32 298.0701L100.32 317.0301L100.32 317.0301L50.16 317.0301z" /></clipPath><clipPath id="11"><path id="" clip-rule="evenodd" transform="matrix(1 0 0 1 0 0)" d="M48.31164 348.533L104.5616 348.533L104.5616 348.533L104.5616 383.033L104.5616 383.033L48.31164 383.033z" /></clipPath><clipPath id="12"><path id="" clip-rule="evenodd" transform="matrix(1 0 0 1 0 0)" d="M50.16 350.6301L100.32 350.6301L100.32 350.6301L100.32 369.5901L100.32 369.5901L50.16 369.5901z" /></clipPath><clipPath id="13"><path id="" clip-rule="evenodd" transform="matrix(1 0 0 1 0 0)" d="M0 -0.249939L595.5 -0.249939L595.5 -0.249939L595.5 842.0001L595.5 842.0001L0 842.0001z" /></clipPath><clipPath id="14"><path id="" clip-rule="evenodd" transform="matrix(1 0 0 1 0 0)" d="M50.0304 421.7325L106.7396 421.7325L106.7396 421.7325L106.7396 456.4668L106.7396 456.4668L50.0304 456.4668z" /></clipPath><clipPath id="15"><path id="" clip-rule="evenodd" transform="matrix(1 0 0 1 0 0)" d="M51.84 423.8301L102 423.8301L102 423.8301L102 442.7901L102 442.7901L51.84 442.7901z" /></clipPath><clipPath id="16"><path id="" clip-rule="evenodd" transform="matrix(1 0 0 1 0 0)" d="M0 -0.249939L595.5 -0.249939L595.5 -0.249939L595.5 842.0001L595.5 842.0001L0 842.0001z" /></clipPath><clipPath id="17"><path id="" clip-rule="evenodd" transform="matrix(1 0 0 1 0 0)" d="M50.0304 485.3827L106.7396 485.3827L106.7396 485.3827L106.7396 520.1171L106.7396 520.1171L50.0304 520.1171z" /></clipPath><clipPath id="18"><path id="" clip-rule="evenodd" transform="matrix(1 0 0 1 0 0)" d="M51.84 487.4301L102 487.4301L102 487.4301L102 506.39L102 506.39L51.84 506.39z" /></clipPath><clipPath id="19"><path id="" clip-rule="evenodd" transform="matrix(1 0 0 1 0 0)" d="M0 -0.249939L595.5 -0.249939L595.5 -0.249939L595.5 842.0001L595.5 842.0001L0 842.0001z" /></clipPath><clipPath id="20"><path id="" clip-rule="evenodd" transform="matrix(1 0 0 1 0 0)" d="M50.0304 542.5156L106.7396 542.5156L106.7396 542.5156L106.7396 577.2499L106.7396 577.2499L50.0304 577.2499z" /></clipPath><clipPath id="21"><path id="" clip-rule="evenodd" transform="matrix(1 0 0 1 0 0)" d="M51.84 544.55L102 544.55L102 544.55L102 563.5101L102 563.5101L51.84 563.5101z" /></clipPath><clipPath id="22"><path id="" clip-rule="evenodd" transform="matrix(1 0 0 1 0 0)" d="M0 -0.249939L595.5 -0.249939L595.5 -0.249939L595.5 842.0001L595.5 842.0001L0 842.0001z" /></clipPath><clipPath id="23"><path id="" clip-rule="evenodd" transform="matrix(1 0 0 1 0 0)" d="M48.31164 604.6104L105.0208 604.6104L105.0208 604.6104L105.0208 639.3448L105.0208 639.3448L48.31164 639.3448z" /></clipPath><clipPath id="24"><path id="" clip-rule="evenodd" transform="matrix(1 0 0 1 0 0)" d="M50.16 606.7101L100.32 606.7101L100.32 606.7101L100.32 625.67L100.32 625.67L50.16 625.67z" /></clipPath><clipPath id="25"><path id="" clip-rule="evenodd" transform="matrix(1 0 0 1 0 0)" d="M0 -0.249939L595.5 -0.249939L595.5 -0.249939L595.5 842.0001L595.5 842.0001L0 842.0001z" /></clipPath><clipPath id="26"><path id="" clip-rule="evenodd" transform="matrix(1 0 0 1 0 0)" d="M48.31164 679.4648L105.0208 679.4648L105.0208 679.4648L105.0208 714.1992L105.0208 714.1992L48.31164 714.1992z" /></clipPath><clipPath id="27"><path id="" clip-rule="evenodd" transform="matrix(1 0 0 1 0 0)" d="M50.16 681.5901L100.32 681.5901L100.32 681.5901L100.32 700.55L100.32 700.55L50.16 700.55z" /></clipPath><clipPath id="28"><path id="" clip-rule="evenodd" transform="matrix(1 0 0 1 0 0)" d="M0 -0.249939L595.5 -0.249939L595.5 -0.249939L595.5 842.0001L595.5 842.0001L0 842.0001z" /></clipPath><clipPath id="29"><path id="" clip-rule="evenodd" transform="matrix(1 0 0 1 0 0)" d="M48.31164 749.0187L105.0208 749.0187L105.0208 749.0187L105.0208 783.7531L105.0208 783.7531L48.31164 783.7531z" /></clipPath><clipPath id="30"><path id="" clip-rule="evenodd" transform="matrix(1 0 0 1 0 0)" d="M50.16 751.1901L100.32 751.1901L100.32 751.1901L100.32 770.15L100.32 770.15L50.16 770.15z" /></clipPath><clipPath id="31"><path id="" clip-rule="evenodd" transform="matrix(1 0 0 1 0 0)" d="M0 -0.249939L595.5 -0.249939L595.5 -0.249939L595.5 842.0001L595.5 842.0001L0 842.0001z" /></clipPath><clipPath id="32"><path id="" clip-rule="evenodd" transform="matrix(1 0 0 1 0 0)" d="M503.015 5.097351L584.765 5.097351L584.765 5.097351L584.765 51.59735L584.765 51.59735L503.015 51.59735z" /></clipPath></defs><g transform="matrix(1.333333 0 0 1.333333 0 0)"><g clip-path="url(#1)"><g clip-path="url(#2)"><path id="1" transform="matrix(1 0 0 -1 0 842)" d="M0 842.2499L595.4999 842.2499L595.4999 -6.103516E-05L0 -6.103516E-05z" stroke="none" fill="#FFFFFF" fill-rule="nonzero" /></g><g clip-path="url(#3)"><path id="2" transform="matrix(1 0 0 -1 0 842)" d="M0 842.2499L595.4999 842.2499L595.4999 -6.103516E-05L0 -6.103516E-05z" stroke="none" fill="#E9FCFF" fill-rule="nonzero" /></g><g clip-path="url(#4)"><g><g clip-path="url(#5)"><g clip-path="url(#6)"><g transform="matrix(0 0.5128205 -0.5127462 0 522.0178 30.75189)"><g transform="matrix(1 0 0 1 0 0)"><image x="0" y="0" xlink:href="img_01.png" width="1521" height="863" /></g></g></g></g></g></g><g clip-path="url(#7)"><path id="4" transform="matrix(1 0 0 -1 0 842)" d="M54.62072 563.1699C 53.54796 562.4698 53.38987 561.3632 53.36728 560.6856C 53.36728 560.4824 53.17531 560.3694 53.0511 560.4824C 49.56179 563.52 50.28449 575.4446 50.31837 576.6755C 50.51034 584.0945 50.10382 582.762 50.87169 590.1584C 50.87169 590.1584 51.21046 593.4219 53.55925 593.6139C 66.3308 594.6641 74.58545 593.9978 87.39087 593.851C 92.20138 593.7946 96.39081 591.9539 99.68814 588.8599C 102.3531 586.3643 105.3117 583.3379 106.0118 579.8148C 106.8023 575.8398 103.584 572.8474 100.8625 570.0808C 96.74086 565.8801 93.20639 564.2991 86.7585 564.3104C 79.24915 564.3331 76.31316 564.3104 68.79251 564.2766C 63.93684 564.2653 56.65333 564.4911 54.60943 563.1586L54.60943 563.1586L54.62072 563.1699z" stroke="none" fill="#8EDFD2" fill-rule="nonzero" /><g><g clip-path="url(#8)"><path id="5" transform="matrix(1 0 0 -1 0 842)" d="M54.97078 576.2012C 55.14016 578.7983 55.0837 581.452 55.34343 584.038C 55.49022 585.5173 55.89674 587.0192 56.75496 588.0016C 58.20037 589.6389 60.52657 589.4244 62.33334 589.4921C 64.78376 589.5825 67.22289 589.4583 69.67331 589.4583C 77.65694 589.4583 65.55163 589.6276 73.53526 589.5373C 77.92795 589.4808 82.47873 589.5712 86.82626 588.6791C 89.25409 588.171 91.64806 587.3692 93.90651 586.1045C 96.26659 584.772 98.09593 582.6829 100.2753 581.0117C 101.3142 580.2212 102.0708 581.2262 101.7998 582.6378C 101.5062 584.2073 99.55264 585.4947 98.47987 586.4432C 96.75216 587.9677 95.01315 589.5712 92.96925 590.5762C 89.90904 592.0781 86.55524 591.9539 83.33694 592.0103C 79.91539 592.0668 76.50513 592.3265 73.09486 592.3491C 67.81009 592.3829 62.51402 592.3829 57.21794 592.3491C 53.42374 592.3265 69.72977 592.2813 65.93557 592.2023C 64.02718 592.1684 62.10749 592.1232 60.1991 592.0781C 57.45508 592.0103 53.23177 591.7619 52.52036 587.324C 52.19289 585.2576 52.14772 583.1459 52.14772 581.0342C 52.14772 579.1146 52.01221 577.082 52.3171 575.1848C 52.65587 573.0845 54.46263 573.7281 54.86915 575.3994C 54.9369 575.6591 54.97078 575.9301 54.98207 576.2125L54.98207 576.2125L54.97078 576.2012z" stroke="none" fill="#FFFFFF" fill-rule="nonzero" fill-opacity="0.09803922" /></g></g><path id="6" transform="matrix(1 0 0 -1 0 842)" d="M54.62072 563.1699C 55.04983 563.4409 55.51281 563.5765 55.9758 563.7007C 56.91305 563.9265 57.85031 564.0394 58.79886 564.1298C 62.02845 564.4008 65.49517 564.3895 68.74734 564.4573C 73.97566 564.446 77.00199 564.7847 79.93797 564.7734C 81.15754 564.7734 86.21648 564.7734 87.37958 564.7734C 88.19263 564.7847 89.02825 564.8186 89.84129 564.9089C 94.14365 565.3155 97.31677 566.9754 100.6932 570.4647C 101.9692 571.7747 103.313 573.0507 104.397 574.6203C 105.4472 576.1448 106.1586 578.008 105.6053 580.0632C 105.0971 582.0393 103.9905 583.6202 102.8274 585.043C 102.1386 585.8561 101.4159 586.624 100.6706 587.358C 99.92528 588.0807 99.1687 588.8146 98.37824 589.447C 95.60034 591.6829 92.40463 592.9363 89.15247 593.2751C 88.46364 593.3541 87.74093 593.3768 87.0521 593.3768C 75.29685 593.5236 82.61424 593.7833 70.91546 593.7042C 65.12253 593.6478 59.32959 593.58 53.54795 593.1396C 52.81396 593.0718 52.159 592.575 51.75248 591.762C 51.49276 591.2538 51.31208 590.644 51.24433 590.0342L51.24433 590.0342L51.22175 589.8084L51.22175 589.8084L51.17658 589.3567C 51.02978 587.8435 50.89427 586.3191 50.80393 584.8172C 50.73618 583.7783 50.73618 582.2313 50.7136 581.1698C 50.69101 579.6227 50.64584 578.0983 50.57809 576.5513C 50.53292 575.6705 50.47646 574.688 50.45387 573.8073C 50.36354 569.9227 50.43129 562.3682 53.37857 560.2678C 53.37857 560.4033 53.37857 560.5614 53.38986 560.7082C 53.42374 561.8262 53.87543 562.6957 54.65459 563.1812L54.65459 563.1812L54.62072 563.1699zM54.62072 563.1699C 54.2142 562.8989 53.84156 562.5037 53.627 561.973C 53.51408 561.7133 53.44633 561.4196 53.41245 561.126C 53.37857 560.8325 53.37857 560.8325 53.37857 560.6856C 53.37857 560.6856 53.0511 560.4598 53.0511 560.4598C 52.7575 560.7195 52.48648 561.0357 52.26064 561.3857C 50.79264 563.7346 50.40871 567.19 50.18287 570.1034C 50.02477 572.2489 50.01348 574.4283 50.06994 576.5739C 50.09253 578.0983 50.08123 579.6453 50.06994 581.1585C 50.05865 582.3893 50.02477 583.6315 50.06994 584.8624C 50.1264 586.4094 50.28449 587.9452 50.44258 589.4696L50.44258 589.4696L50.48775 589.9213L50.48775 589.9213L50.51034 590.1472C 50.60068 590.9037 50.81523 591.6152 51.13141 592.2588C 51.56052 593.1283 52.27193 593.7946 53.06239 593.9865C 53.29953 594.0543 53.57054 594.0656 53.81897 594.0881C 71.64946 595.1722 69.88786 594.4495 87.75223 594.3027C 92.7547 594.1559 97.16997 592.1572 101.0884 588.1033C 102.9855 586.2062 104.9391 584.1396 106.0005 581.2714C 107.8186 576.4045 104.318 573.0055 101.6869 570.3179C 100.7496 569.3581 99.80107 568.4095 98.78476 567.5965C 97.35065 566.4334 95.79231 565.5187 94.16623 564.9315C 91.39963 563.9152 88.46364 563.8362 85.6067 563.8588C 79.12494 563.8588 66.80508 564.3331 60.22169 564.1749C 58.79886 564.1072 57.37604 564.0281 55.9758 563.6894C 55.51281 563.5765 55.04983 563.4297 54.62072 563.1699z" stroke="none" fill="#000000" fill-rule="nonzero" /></g><g clip-path="url(#9)"><path id="7" transform="matrix(1 0 0 -1 0 842)" d="M52.90196 514.4786C 51.8292 513.7785 51.6711 512.6719 51.64852 511.9944C 51.64852 511.7911 51.45655 511.6782 51.33234 511.7911C 47.84303 514.8287 48.56573 526.7534 48.59961 527.9842C 48.79158 535.4032 48.38506 534.0707 49.15293 541.4672C 49.15293 541.4672 49.4917 544.7307 51.84049 544.9226C 64.61204 545.9728 72.86668 545.3065 85.67211 545.1597C 90.48262 545.1033 94.67204 543.2626 97.96938 540.1686C 100.6344 537.673 103.5929 534.6466 104.2931 531.1235C 105.0835 527.1486 101.8652 524.1561 99.14378 521.3895C 95.0221 517.1888 91.48763 515.6078 85.03974 515.6191C 77.53039 515.6418 74.5944 515.6191 67.07375 515.5853C 62.21808 515.574 54.93457 515.7999 52.89067 514.4673L52.89067 514.4673L52.90196 514.4786z" stroke="none" fill="#8EDFD2" fill-rule="nonzero" /><g><g clip-path="url(#10)"><path id="8" transform="matrix(1 0 0 -1 0 842)" d="M53.25202 527.5099C 53.42141 530.1071 53.36494 532.7608 53.62467 535.3467C 53.77147 536.826 54.17799 538.3279 55.0362 539.3104C 56.48161 540.9477 58.80782 540.7332 60.61458 540.8009C 63.065 540.8912 65.50413 540.767 67.95455 540.767C 75.93818 540.767 63.83287 540.9364 71.81651 540.8461C 76.2092 540.7896 80.75998 540.8799 85.1075 539.9879C 87.53534 539.4797 89.92929 538.678 92.18774 537.4133C 94.54783 536.0807 96.37718 533.9917 98.55658 532.3204C 99.59547 531.53 100.3521 532.535 100.081 533.9465C 99.78745 535.5161 97.83388 536.8035 96.76112 537.752C 95.0334 539.2765 93.29439 540.8799 91.25049 541.8849C 88.19029 543.3868 84.83649 543.2626 81.61819 543.3191C 78.19664 543.3755 74.78637 543.6353 71.37611 543.6578C 66.09133 543.6917 60.79526 543.6917 55.49918 543.6578C 51.70498 543.6353 68.01102 543.5901 64.21681 543.511C 62.30842 543.4772 60.38873 543.432 58.48034 543.3868C 55.73632 543.3191 51.51302 543.0707 50.8016 538.6328C 50.47413 536.5663 50.42896 534.4547 50.42896 532.343C 50.42896 530.4233 50.29345 528.3907 50.59834 526.4937C 50.93711 524.3932 52.74387 525.0369 53.15039 526.7082C 53.21815 526.9679 53.25203 527.2389 53.26332 527.5212L53.26332 527.5212L53.25202 527.5099z" stroke="none" fill="#FFFFFF" fill-rule="nonzero" fill-opacity="0.09803922" /></g></g><path id="9" transform="matrix(1 0 0 -1 0 842)" d="M52.90196 514.4786C 53.33107 514.7496 53.79405 514.8852 54.25703 515.0094C 55.19429 515.2352 56.13155 515.3481 57.0801 515.4385C 60.30968 515.7095 63.77641 515.6982 67.02858 515.766C 72.2569 515.7547 75.28323 516.0934 78.21922 516.0822C 79.43878 516.0822 84.49771 516.0822 85.66081 516.0822C 86.47386 516.0934 87.30949 516.1273 88.12253 516.2177C 92.42488 516.6242 95.59801 518.2841 98.9744 521.7734C 100.2504 523.0834 101.5942 524.3594 102.6783 525.929C 103.7284 527.4535 104.4398 529.3167 103.8865 531.3719C 103.3784 533.348 102.2717 534.929 101.1086 536.3517C 100.4198 537.1648 99.6971 537.9327 98.95181 538.6667C 98.20652 539.3894 97.44994 540.1234 96.65948 540.7557C 93.88158 542.9916 90.68587 544.2451 87.4337 544.5838C 86.74487 544.6628 86.02217 544.6855 85.33334 544.6855C 73.57809 544.8323 80.89548 545.092 69.19669 545.0129C 63.40376 544.9565 57.61083 544.8887 51.82919 544.4483C 51.0952 544.3806 50.44024 543.8837 50.03372 543.0707C 49.774 542.5625 49.59332 541.9528 49.52557 541.343L49.52557 541.343L49.50299 541.1171L49.50299 541.1171L49.45782 540.6654C 49.31102 539.1522 49.17551 537.6278 49.08517 536.1259C 49.01742 535.087 49.01742 533.54 48.99483 532.4785C 48.97225 530.9315 48.92708 529.407 48.85933 527.86C 48.81416 526.9792 48.7577 525.9968 48.73511 525.116C 48.64478 521.2314 48.71253 513.6769 51.65981 511.5765C 51.65981 511.712 51.65981 511.8701 51.6711 512.0169C 51.70498 513.1349 52.15667 514.0044 52.93583 514.4899L52.93583 514.4899L52.90196 514.4786zM52.90196 514.4786C 52.49544 514.2076 52.1228 513.8124 51.90824 513.2817C 51.79532 513.022 51.72757 512.7283 51.69369 512.4348C 51.65981 512.1412 51.65981 512.1412 51.65981 511.9944C 51.65981 511.9944 51.33234 511.7685 51.33234 511.7685C 51.03874 512.0282 50.76772 512.3444 50.54188 512.6945C 49.07388 515.0433 48.68995 518.4987 48.4641 521.4121C 48.30601 523.5576 48.29472 525.7371 48.35118 527.8826C 48.37376 529.407 48.36247 530.954 48.35118 532.4672C 48.33989 533.6981 48.30601 534.9402 48.35118 536.1711C 48.40764 537.7181 48.56573 539.2539 48.72382 540.7783L48.72382 540.7783L48.76899 541.23L48.76899 541.23L48.79158 541.4559C 48.88192 542.2125 49.09647 542.9239 49.41265 543.5675C 49.84176 544.437 50.55317 545.1033 51.34363 545.2952C 51.58077 545.363 51.85178 545.3743 52.10021 545.3969C 69.93069 546.481 68.16911 545.7582 86.03346 545.6115C 91.03593 545.4646 95.45121 543.4659 99.36963 539.412C 101.2667 537.5149 103.2203 535.4484 104.2818 532.5801C 106.0998 527.7132 102.5992 524.3142 99.96812 521.6266C 99.03086 520.6668 98.08231 519.7183 97.066 518.9052C 95.63188 517.7421 94.07355 516.8275 92.44746 516.2402C 89.68086 515.2239 86.74487 515.1449 83.88794 515.1675C 77.40617 515.1675 65.08632 515.6418 58.50292 515.4836C 57.0801 515.4159 55.65727 515.3369 54.25703 514.9981C 53.79405 514.8852 53.33107 514.7384 52.90196 514.4786z" stroke="none" fill="#000000" fill-rule="nonzero" /></g><g clip-path="url(#11)"><path id="10" transform="matrix(1 0 0 -1 0 842)" d="M52.90196 461.9503C 51.8292 461.2502 51.6711 460.1435 51.64852 459.466C 51.64852 459.2627 51.45655 459.1498 51.33234 459.2627C 47.84303 462.3003 48.56573 474.225 48.59961 475.4558C 48.79158 482.8748 48.38506 481.5424 49.15293 488.9388C 49.15293 488.9388 49.4917 492.2022 51.84049 492.3942C 64.61204 493.4444 72.86668 492.7781 85.67211 492.6313C 90.48262 492.5749 94.67204 490.7343 97.96938 487.6402C 100.6344 485.1446 103.5929 482.1183 104.2931 478.5951C 105.0835 474.6202 101.8652 471.6277 99.14378 468.8611C 95.0221 464.6604 91.48763 463.0795 85.03974 463.0908C 77.53039 463.1134 74.5944 463.0908 67.07375 463.0569C 62.21808 463.0456 54.93457 463.2715 52.89067 461.939L52.89067 461.939L52.90196 461.9503z" stroke="none" fill="#8EDFD2" fill-rule="nonzero" /><g><g clip-path="url(#12)"><path id="11" transform="matrix(1 0 0 -1 0 842)" d="M53.25202 474.9815C 53.42141 477.5787 53.36494 480.2324 53.62467 482.8184C 53.77147 484.2976 54.17799 485.7995 55.0362 486.7819C 56.48161 488.4193 58.80782 488.2047 60.61458 488.2725C 63.065 488.3629 65.50413 488.2386 67.95455 488.2386C 75.93818 488.2386 63.83287 488.408 71.81651 488.3177C 76.2092 488.2612 80.75998 488.3516 85.1075 487.4595C 87.53534 486.9513 89.92929 486.1496 92.18774 484.8848C 94.54783 483.5523 96.37718 481.4633 98.55658 479.792C 99.59547 479.0016 100.3521 480.0066 100.081 481.4181C 99.78745 482.9877 97.83388 484.2751 96.76112 485.2236C 95.0334 486.748 93.29439 488.3516 91.25049 489.3566C 88.19029 490.8584 84.83649 490.7342 81.61819 490.7907C 78.19664 490.8471 74.78637 491.1069 71.37611 491.1295C 66.09133 491.1633 60.79526 491.1633 55.49918 491.1295C 51.70498 491.1069 68.01102 491.0617 64.21681 490.9827C 62.30842 490.9488 60.38873 490.9036 58.48034 490.8584C 55.73632 490.7907 51.51302 490.5423 50.8016 486.1044C 50.47413 484.0379 50.42896 481.9263 50.42896 479.8146C 50.42896 477.8949 50.29345 475.8623 50.59834 473.9652C 50.93711 471.8648 52.74387 472.5085 53.15039 474.1797C 53.21815 474.4395 53.25203 474.7105 53.26332 474.9928L53.26332 474.9928L53.25202 474.9815z" stroke="none" fill="#FFFFFF" fill-rule="nonzero" fill-opacity="0.09803922" /></g></g><path id="12" transform="matrix(1 0 0 -1 0 842)" d="M52.90196 461.9503C 53.33107 462.2213 53.79405 462.3568 54.25703 462.481C 55.19429 462.7068 56.13155 462.8198 57.0801 462.9101C 60.30968 463.1811 63.77641 463.1698 67.02858 463.2376C 72.2569 463.2263 75.28323 463.5651 78.21922 463.5538C 79.43878 463.5538 84.49771 463.5538 85.66081 463.5538C 86.47386 463.5651 87.30949 463.5989 88.12253 463.6893C 92.42488 464.0958 95.59801 465.7558 98.9744 469.2451C 100.2504 470.555 101.5942 471.831 102.6783 473.4006C 103.7284 474.9251 104.4398 476.7883 103.8865 478.8435C 103.3784 480.8196 102.2717 482.4006 101.1086 483.8234C 100.4198 484.6364 99.6971 485.4043 98.95181 486.1383C 98.20652 486.861 97.44994 487.595 96.65948 488.2274C 93.88158 490.4632 90.68587 491.7167 87.4337 492.0555C 86.74487 492.1345 86.02217 492.1571 85.33334 492.1571C 73.57809 492.3039 80.89548 492.5636 69.19669 492.4846C 63.40376 492.4281 57.61083 492.3603 51.82919 491.92C 51.0952 491.8522 50.44024 491.3553 50.03372 490.5423C 49.774 490.0341 49.59332 489.4243 49.52557 488.8146L49.52557 488.8146L49.50299 488.5887L49.50299 488.5887L49.45782 488.137C 49.31102 486.6239 49.17551 485.0994 49.08517 483.5975C 49.01742 482.5587 49.01742 481.0116 48.99483 479.9501C 48.97225 478.4031 48.92708 476.8786 48.85933 475.3316C 48.81416 474.4508 48.7577 473.4684 48.73511 472.5876C 48.64478 468.703 48.71253 461.1485 51.65981 459.0482C 51.65981 459.1837 51.65981 459.3418 51.6711 459.4886C 51.70498 460.6065 52.15667 461.476 52.93583 461.9615L52.93583 461.9615L52.90196 461.9503zM52.90196 461.9503C 52.49544 461.6793 52.1228 461.284 51.90824 460.7533C 51.79532 460.4936 51.72757 460.2 51.69369 459.9064C 51.65981 459.6128 51.65981 459.6128 51.65981 459.466C 51.65981 459.466 51.33234 459.2401 51.33234 459.2401C 51.03874 459.4998 50.76772 459.816 50.54188 460.1661C 49.07388 462.5149 48.68995 465.9703 48.4641 468.8837C 48.30601 471.0292 48.29472 473.2086 48.35118 475.3542C 48.37376 476.8786 48.36247 478.4257 48.35118 479.9388C 48.33989 481.1697 48.30601 482.4119 48.35118 483.6427C 48.40764 485.1898 48.56573 486.7255 48.72382 488.2499L48.72382 488.2499L48.76899 488.7016L48.76899 488.7016L48.79158 488.9275C 48.88192 489.6841 49.09647 490.3955 49.41265 491.0392C 49.84176 491.9087 50.55317 492.5749 51.34363 492.7668C 51.58077 492.8346 51.85178 492.8459 52.10021 492.8685C 69.93069 493.9525 68.16911 493.2298 86.03346 493.083C 91.03593 492.9362 95.45121 490.9375 99.36963 486.8836C 101.2667 484.9865 103.2203 482.92 104.2818 480.0518C 106.0998 475.1848 102.5992 471.7858 99.96812 469.0983C 99.03086 468.1384 98.08231 467.1899 97.066 466.3768C 95.63188 465.2137 94.07355 464.2991 92.44746 463.7119C 89.68086 462.6956 86.74487 462.6165 83.88794 462.6391C 77.40617 462.6391 65.08632 463.1134 58.50292 462.9553C 57.0801 462.8875 55.65727 462.8085 54.25703 462.4697C 53.79405 462.3568 53.33107 462.21 52.90196 461.9503z" stroke="none" fill="#000000" fill-rule="nonzero" /></g><g clip-path="url(#13)"></g><g clip-path="url(#14)"><path id="457" transform="matrix(1 0 0 -1 0 842)" d="M54.61539 388.7473C 53.54255 388.0471 53.38445 386.9404 53.36186 386.2628C 53.36186 386.0595 53.16988 385.9466 53.04565 386.0595C 49.55608 389.0974 50.27884 401.0229 50.31272 402.2538C 50.50471 409.6734 50.09816 408.3408 50.86609 415.7378C 50.86609 415.7378 51.20488 419.0015 53.55384 419.1935C 66.32634 420.2437 74.58159 419.5775 87.38796 419.4306C 92.19882 419.3742 96.38857 417.5334 99.68614 414.4391C 102.3513 411.9433 105.3101 408.9167 106.0103 405.3933C 106.8008 401.4182 103.5823 398.4255 100.8606 395.6587C 96.73865 391.4576 93.20391 389.8766 86.75555 389.8879C 79.24564 389.9105 76.30943 389.8879 68.78823 389.854C 63.9322 389.8427 56.64815 390.0686 54.6041 388.736L54.6041 388.736L54.61539 388.7473z" stroke="none" fill="#8EDFD2" fill-rule="nonzero" /><g><g clip-path="url(#15)"><path id="458" transform="matrix(1 0 0 -1 0 842)" d="M54.96548 401.7795C 55.13487 404.3769 55.07841 407.0308 55.33815 409.6169C 55.48496 411.0963 55.89151 412.5983 56.74979 413.5808C 58.1953 415.2183 60.52168 415.0037 62.32858 415.0715C 64.77917 415.1618 67.21849 415.0376 69.66909 415.0376C 77.65331 415.0376 65.5471 415.207 73.53133 415.1166C 77.92435 415.0602 82.47546 415.1505 86.8233 414.2584C 89.25132 413.7502 91.64546 412.9484 93.90408 411.6835C 96.26434 410.351 98.09382 408.2617 100.2734 406.5904C 101.3123 405.7998 102.069 406.8049 101.798 408.2166C 101.5043 409.7863 99.55063 411.0737 98.47778 412.0223C 96.74994 413.5469 95.0108 415.1505 92.96675 416.1556C 89.90633 417.6576 86.55228 417.5334 83.33374 417.5898C 79.91193 417.6463 76.50142 417.906 73.0909 417.9286C 67.80573 417.9625 62.50927 417.9625 57.21281 417.9286C 53.41832 417.906 69.72556 417.8609 65.93108 417.7818C 64.02254 417.7479 62.10271 417.7028 60.19418 417.6576C 57.44996 417.5898 53.22634 417.3414 52.51487 412.9032C 52.18737 410.8365 52.1422 408.7248 52.1422 406.6129C 52.1422 404.6931 52.00669 402.6604 52.3116 400.7631C 52.65039 398.6626 54.45729 399.3063 54.86384 400.9777C 54.9316 401.2374 54.96548 401.5085 54.97677 401.7908L54.97677 401.7908L54.96548 401.7795z" stroke="none" fill="#FFFFFF" fill-rule="nonzero" fill-opacity="0.09803922" /></g></g><path id="459" transform="matrix(1 0 0 -1 0 842)" d="M54.61539 388.7473C 55.04453 389.0183 55.50755 389.1538 55.97057 389.2781C 56.90789 389.5039 57.84522 389.6169 58.79384 389.7072C 62.02367 389.9782 65.49065 389.9669 68.74306 390.0347C 73.97176 390.0234 76.99831 390.3622 79.93452 390.3509C 81.15417 390.3509 86.21349 390.3509 87.37667 390.3509C 88.18977 390.3622 89.02547 390.3961 89.83856 390.4864C 94.14124 390.893 97.31459 392.5531 100.6912 396.0426C 101.9673 397.3526 103.3112 398.6288 104.3954 400.1985C 105.4456 401.7231 106.1571 403.5864 105.6037 405.6418C 105.0955 407.618 103.9888 409.1991 102.8256 410.622C 102.1367 411.4351 101.414 412.2031 100.6686 412.9371C 99.92329 413.6599 99.16666 414.3939 98.37614 415.0263C 95.59805 417.2624 92.4021 418.5159 89.14969 418.8547C 88.4608 418.9337 87.73805 418.9563 87.04916 418.9563C 75.29305 419.1031 82.61098 419.3629 70.91133 419.2838C 65.11797 419.2274 59.32461 419.1596 53.54255 418.7192C 52.80849 418.6514 52.15349 418.1545 51.74694 417.3414C 51.4872 416.8332 51.30651 416.2234 51.23875 415.6136L51.23875 415.6136L51.21617 415.3877L51.21617 415.3877L51.17099 414.936C 51.02419 413.4227 50.88867 411.8981 50.79832 410.3961C 50.73056 409.3572 50.73056 407.81 50.70798 406.7485C 50.68539 405.2013 50.64022 403.6768 50.57246 402.1296C 50.52729 401.2487 50.47082 400.2662 50.44823 399.3854C 50.35789 395.5005 50.42565 387.9455 53.37315 385.845C 53.37315 385.9805 53.37315 386.1386 53.38444 386.2854C 53.41832 387.4034 53.87004 388.273 54.64927 388.7586L54.64927 388.7586L54.61539 388.7473zM54.61539 388.7473C 54.20884 388.4763 53.83617 388.081 53.6216 387.5502C 53.50867 387.2905 53.44091 386.9969 53.40703 386.7032C 53.37315 386.4096 53.37315 386.4096 53.37315 386.2628C 53.37315 386.2628 53.04565 386.0369 53.04565 386.0369C 52.75203 386.2967 52.481 386.6129 52.25513 386.963C 50.78703 389.312 50.40307 392.7676 50.1772 395.6812C 50.0191 397.8269 50.00781 400.0065 50.06427 402.1522C 50.08686 403.6768 50.07557 405.2239 50.06427 406.7372C 50.05298 407.9681 50.0191 409.2104 50.06427 410.4413C 50.12074 411.9885 50.27884 413.5244 50.43695 415.0489L50.43695 415.0489L50.48212 415.5006L50.48212 415.5006L50.50471 415.7265C 50.59505 416.4831 50.80962 417.1946 51.12583 417.8383C 51.55496 418.7079 52.26643 419.3742 53.05695 419.5662C 53.2941 419.6339 53.56514 419.6452 53.81358 419.6678C 71.64539 420.7519 69.88367 420.0292 87.74934 419.8824C 92.75218 419.7356 97.16779 417.7367 101.0865 413.6825C 102.9837 411.7852 104.9374 409.7186 105.999 406.8501C 107.8172 401.9828 104.3163 398.5836 101.685 395.8958C 100.7477 394.9359 99.79907 393.9873 98.7827 393.1742C 97.34847 392.011 95.79002 391.0963 94.16382 390.509C 91.39702 389.4926 88.46081 389.4136 85.60365 389.4362C 79.12141 389.4362 66.80064 389.9105 60.21677 389.7524C 58.79384 389.6846 57.37091 389.6056 55.97057 389.2668C 55.50755 389.1538 55.04453 389.007 54.61539 388.7473z" stroke="none" fill="#000000" fill-rule="nonzero" /></g><g clip-path="url(#16)"></g><g clip-path="url(#17)"><path id="551" transform="matrix(1 0 0 -1 0 842)" d="M54.61539 325.097C 53.54255 324.3968 53.38445 323.2901 53.36186 322.6125C 53.36186 322.4092 53.16988 322.2963 53.04565 322.4092C 49.55608 325.4471 50.27884 337.3726 50.31272 338.6035C 50.50471 346.0231 50.09816 344.6905 50.86609 352.0875C 50.86609 352.0875 51.20488 355.3512 53.55384 355.5432C 66.32634 356.5934 74.58159 355.9272 87.38796 355.7803C 92.19882 355.7239 96.38857 353.8831 99.68614 350.7888C 102.3513 348.293 105.3101 345.2664 106.0103 341.743C 106.8008 337.7679 103.5823 334.7752 100.8606 332.0084C 96.73865 327.8073 93.20391 326.2263 86.75555 326.2376C 79.24564 326.2602 76.30943 326.2376 68.78823 326.2037C 63.9322 326.1924 56.64815 326.4183 54.6041 325.0857L54.6041 325.0857L54.61539 325.097z" stroke="none" fill="#8EDFD2" fill-rule="nonzero" /><g><g clip-path="url(#18)"><path id="552" transform="matrix(1 0 0 -1 0 842)" d="M54.96548 338.1292C 55.13487 340.7266 55.07841 343.3805 55.33815 345.9666C 55.48496 347.446 55.89151 348.948 56.74979 349.9305C 58.1953 351.568 60.52168 351.3535 62.32858 351.4212C 64.77917 351.5115 67.21849 351.3873 69.66909 351.3873C 77.65331 351.3873 65.5471 351.5567 73.53133 351.4664C 77.92435 351.4099 82.47546 351.5002 86.8233 350.6081C 89.25132 350.0999 91.64546 349.2981 93.90408 348.0333C 96.26434 346.7007 98.09382 344.6115 100.2734 342.9401C 101.3123 342.1496 102.069 343.1547 101.798 344.5663C 101.5043 346.136 99.55063 347.4234 98.47778 348.3721C 96.74994 349.8966 95.0108 351.5002 92.96675 352.5053C 89.90633 354.0073 86.55228 353.8831 83.33374 353.9396C 79.91193 353.996 76.50142 354.2558 73.0909 354.2784C 67.80573 354.3122 62.50927 354.3122 57.21281 354.2784C 53.41832 354.2558 69.72556 354.2106 65.93108 354.1316C 64.02254 354.0977 62.10271 354.0525 60.19418 354.0073C 57.44996 353.9396 53.22634 353.6911 52.51487 349.2529C 52.18737 347.1863 52.1422 345.0745 52.1422 342.9627C 52.1422 341.0428 52.00669 339.0101 52.3116 337.1129C 52.65039 335.0123 54.45729 335.656 54.86384 337.3274C 54.9316 337.5872 54.96548 337.8582 54.97677 338.1405L54.97677 338.1405L54.96548 338.1292z" stroke="none" fill="#FFFFFF" fill-rule="nonzero" fill-opacity="0.09803922" /></g></g><path id="553" transform="matrix(1 0 0 -1 0 842)" d="M54.61539 325.097C 55.04453 325.368 55.50755 325.5035 55.97057 325.6278C 56.90789 325.8536 57.84522 325.9666 58.79384 326.0569C 62.02367 326.3279 65.49065 326.3167 68.74306 326.3844C 73.97176 326.3731 76.99831 326.7119 79.93452 326.7006C 81.15417 326.7006 86.21349 326.7006 87.37667 326.7006C 88.18977 326.7119 89.02547 326.7458 89.83856 326.8361C 94.14124 327.2427 97.31459 328.9028 100.6912 332.3923C 101.9673 333.7023 103.3112 334.9785 104.3954 336.5482C 105.4456 338.0728 106.1571 339.9361 105.6037 341.9915C 105.0955 343.9677 103.9888 345.5488 102.8256 346.9717C 102.1367 347.7848 101.414 348.5528 100.6686 349.2868C 99.92329 350.0096 99.16666 350.7436 98.37614 351.376C 95.59805 353.6121 92.4021 354.8656 89.14969 355.2044C 88.4608 355.2834 87.73805 355.306 87.04916 355.306C 75.29305 355.4529 82.61098 355.7126 70.91133 355.6335C 65.11797 355.5771 59.32461 355.5093 53.54255 355.0689C 52.80849 355.0011 52.15349 354.5042 51.74694 353.6911C 51.4872 353.1829 51.30651 352.5731 51.23875 351.9633L51.23875 351.9633L51.21617 351.7374L51.21617 351.7374L51.17099 351.2857C 51.02419 349.7724 50.88867 348.2478 50.79832 346.7458C 50.73056 345.7069 50.73056 344.1597 50.70798 343.0982C 50.68539 341.551 50.64022 340.0265 50.57246 338.4793C 50.52729 337.5984 50.47082 336.6159 50.44823 335.7351C 50.35789 331.8503 50.42565 324.2952 53.37315 322.1947C 53.37315 322.3302 53.37315 322.4883 53.38444 322.6351C 53.41832 323.7531 53.87004 324.6227 54.64927 325.1083L54.64927 325.1083L54.61539 325.097zM54.61539 325.097C 54.20884 324.826 53.83617 324.4307 53.6216 323.8999C 53.50867 323.6402 53.44091 323.3466 53.40703 323.0529C 53.37315 322.7593 53.37315 322.7593 53.37315 322.6125C 53.37315 322.6125 53.04565 322.3867 53.04565 322.3867C 52.75203 322.6464 52.481 322.9626 52.25513 323.3127C 50.78703 325.6617 50.40307 329.1173 50.1772 332.0309C 50.0191 334.1766 50.00781 336.3562 50.06427 338.5019C 50.08686 340.0265 50.07557 341.5736 50.06427 343.0869C 50.05298 344.3178 50.0191 345.5601 50.06427 346.791C 50.12074 348.3382 50.27884 349.8741 50.43695 351.3986L50.43695 351.3986L50.48212 351.8503L50.48212 351.8503L50.50471 352.0762C 50.59505 352.8328 50.80962 353.5443 51.12583 354.188C 51.55496 355.0576 52.26643 355.7239 53.05695 355.9159C 53.2941 355.9836 53.56514 355.9949 53.81358 356.0175C 71.64539 357.1016 69.88367 356.3789 87.74934 356.2321C 92.75218 356.0853 97.16779 354.0864 101.0865 350.0322C 102.9837 348.1349 104.9374 346.0683 105.999 343.1998C 107.8172 338.3325 104.3163 334.9333 101.685 332.2455C 100.7477 331.2856 99.79907 330.337 98.7827 329.5239C 97.34847 328.3607 95.79002 327.446 94.16382 326.8587C 91.39702 325.8423 88.46081 325.7633 85.60365 325.7859C 79.12141 325.7859 66.80064 326.2602 60.21677 326.1021C 58.79384 326.0343 57.37091 325.9553 55.97057 325.6165C 55.50755 325.5035 55.04453 325.3567 54.61539 325.097z" stroke="none" fill="#000000" fill-rule="nonzero" /></g><g clip-path="url(#19)"></g><g clip-path="url(#20)"><path id="605" transform="matrix(1 0 0 -1 0 842)" d="M54.61539 267.9641C 53.54255 267.264 53.38445 266.1573 53.36186 265.4797C 53.36186 265.2764 53.16988 265.1635 53.04565 265.2764C 49.55608 268.3142 50.27884 280.2397 50.31272 281.4707C 50.50471 288.8903 50.09816 287.5577 50.86609 294.9547C 50.86609 294.9547 51.20488 298.2184 53.55384 298.4103C 66.32634 299.4606 74.58159 298.7943 87.38796 298.6475C 92.19882 298.591 96.38857 296.7502 99.68614 293.6559C 102.3513 291.1602 105.3101 288.1336 106.0103 284.6102C 106.8008 280.635 103.5823 277.6423 100.8606 274.8755C 96.73865 270.6745 93.20391 269.0934 86.75555 269.1047C 79.24564 269.1273 76.30943 269.1047 68.78823 269.0709C 63.9322 269.0596 56.64815 269.2854 54.6041 267.9529L54.6041 267.9529L54.61539 267.9641z" stroke="none" fill="#8EDFD2" fill-rule="nonzero" /><g><g clip-path="url(#21)"><path id="606" transform="matrix(1 0 0 -1 0 842)" d="M54.96548 280.9963C 55.13487 283.5938 55.07841 286.2477 55.33815 288.8338C 55.48496 290.3132 55.89151 291.8152 56.74979 292.7976C 58.1953 294.4352 60.52168 294.2206 62.32858 294.2883C 64.77917 294.3787 67.21849 294.2545 69.66909 294.2545C 77.65331 294.2545 65.5471 294.4239 73.53133 294.3335C 77.92435 294.277 82.47546 294.3674 86.8233 293.4752C 89.25132 292.967 91.64546 292.1652 93.90408 290.9004C 96.26434 289.5678 98.09382 287.4786 100.2734 285.8072C 101.3123 285.0167 102.069 286.0218 101.798 287.4334C 101.5043 289.0032 99.55063 290.2906 98.47778 291.2392C 96.74994 292.7638 95.0108 294.3674 92.96675 295.3725C 89.90633 296.8745 86.55228 296.7502 83.33374 296.8067C 79.91193 296.8632 76.50142 297.1229 73.0909 297.1455C 67.80573 297.1794 62.50927 297.1794 57.21281 297.1455C 53.41832 297.1229 69.72556 297.0777 65.93108 296.9987C 64.02254 296.9648 62.10271 296.9196 60.19418 296.8745C 57.44996 296.8067 53.22634 296.5583 52.51487 292.1201C 52.18737 290.0534 52.1422 287.9416 52.1422 285.8298C 52.1422 283.91 52.00669 281.8772 52.3116 279.98C 52.65039 277.8795 54.45729 278.5232 54.86384 280.1945C 54.9316 280.4543 54.96548 280.7253 54.97677 281.0076L54.97677 281.0076L54.96548 280.9963z" stroke="none" fill="#FFFFFF" fill-rule="nonzero" fill-opacity="0.09803922" /></g></g><path id="607" transform="matrix(1 0 0 -1 0 842)" d="M54.61539 267.9641C 55.04453 268.2352 55.50755 268.3707 55.97057 268.4949C 56.90789 268.7208 57.84522 268.8337 58.79384 268.9241C 62.02367 269.1951 65.49065 269.1838 68.74306 269.2516C 73.97176 269.2403 76.99831 269.579 79.93452 269.5677C 81.15417 269.5677 86.21349 269.5677 87.37667 269.5677C 88.18977 269.579 89.02547 269.6129 89.83856 269.7033C 94.14124 270.1098 97.31459 271.7699 100.6912 275.2595C 101.9673 276.5695 103.3112 277.8456 104.3954 279.4153C 105.4456 280.9399 106.1571 282.8033 105.6037 284.8586C 105.0955 286.8349 103.9888 288.416 102.8256 289.8389C 102.1367 290.652 101.414 291.4199 100.6686 292.154C 99.92329 292.8767 99.16666 293.6108 98.37614 294.2432C 95.59805 296.4792 92.4021 297.7328 89.14969 298.0715C 88.4608 298.1506 87.73805 298.1732 87.04916 298.1732C 75.29305 298.32 82.61098 298.5797 70.91133 298.5007C 65.11797 298.4442 59.32461 298.3765 53.54255 297.936C 52.80849 297.8683 52.15349 297.3714 51.74694 296.5583C 51.4872 296.0501 51.30651 295.4402 51.23875 294.8304L51.23875 294.8304L51.21617 294.6046L51.21617 294.6046L51.17099 294.1528C 51.02419 292.6396 50.88867 291.115 50.79832 289.613C 50.73056 288.574 50.73056 287.0269 50.70798 285.9653C 50.68539 284.4182 50.64022 282.8936 50.57246 281.3465C 50.52729 280.4656 50.47082 279.4831 50.44823 278.6022C 50.35789 274.7174 50.42565 267.1623 53.37315 265.0618C 53.37315 265.1973 53.37315 265.3554 53.38444 265.5023C 53.41832 266.6203 53.87004 267.4898 54.64927 267.9754L54.64927 267.9754L54.61539 267.9641zM54.61539 267.9641C 54.20884 267.6931 53.83617 267.2979 53.6216 266.7671C 53.50867 266.5073 53.44091 266.2137 53.40703 265.9201C 53.37315 265.6265 53.37315 265.6265 53.37315 265.4797C 53.37315 265.4797 53.04565 265.2538 53.04565 265.2538C 52.75203 265.5135 52.481 265.8297 52.25513 266.1798C 50.78703 268.5288 50.40307 271.9845 50.1772 274.8981C 50.0191 277.0438 50.00781 279.2234 50.06427 281.369C 50.08686 282.8936 50.07557 284.4408 50.06427 285.954C 50.05298 287.185 50.0191 288.4272 50.06427 289.6582C 50.12074 291.2054 50.27884 292.7412 50.43695 294.2658L50.43695 294.2658L50.48212 294.7175L50.48212 294.7175L50.50471 294.9434C 50.59505 295.7 50.80962 296.4115 51.12583 297.0552C 51.55496 297.9247 52.26643 298.591 53.05695 298.783C 53.2941 298.8508 53.56514 298.8621 53.81358 298.8846C 71.64539 299.9688 69.88367 299.246 87.74934 299.0992C 92.75218 298.9524 97.16779 296.9535 101.0865 292.8993C 102.9837 291.0021 104.9374 288.9354 105.999 286.067C 107.8172 281.1996 104.3163 277.8004 101.685 275.1127C 100.7477 274.1528 99.79907 273.2041 98.7827 272.3911C 97.34847 271.2278 95.79002 270.3131 94.16382 269.7259C 91.39702 268.7095 88.46081 268.6304 85.60365 268.653C 79.12141 268.653 66.80064 269.1273 60.21677 268.9692C 58.79384 268.9015 57.37091 268.8224 55.97057 268.4836C 55.50755 268.3707 55.04453 268.2239 54.61539 267.9641z" stroke="none" fill="#000000" fill-rule="nonzero" /></g><g clip-path="url(#22)"></g><g clip-path="url(#23)"><path id="712" transform="matrix(1 0 0 -1 0 842)" d="M52.89664 205.8693C 51.82379 205.1692 51.66569 204.0624 51.6431 203.3848C 51.6431 203.1816 51.45112 203.0686 51.3269 203.1816C 47.83733 206.2194 48.56009 218.1449 48.59396 219.3759C 48.78595 226.7954 48.3794 225.4629 49.14733 232.8598C 49.14733 232.8598 49.48612 236.1235 51.83508 236.3155C 64.60757 237.3658 72.86283 236.6995 85.6692 236.5527C 90.48007 236.4962 94.66981 234.6554 97.96739 231.5611C 100.6326 229.0654 103.5914 226.0388 104.2915 222.5154C 105.082 218.5402 101.8635 215.5475 99.14188 212.7807C 95.01989 208.5797 91.48515 206.9986 85.03679 207.0099C 77.52688 207.0325 74.59068 207.0099 67.06947 206.976C 62.21344 206.9648 54.92939 207.1906 52.88534 205.858L52.88534 205.858L52.89664 205.8693z" stroke="none" fill="#8EDFD2" fill-rule="nonzero" /><g><g clip-path="url(#24)"><path id="713" transform="matrix(1 0 0 -1 0 842)" d="M53.24672 218.9016C 53.41612 221.499 53.35965 224.1528 53.61939 226.739C 53.7662 228.2184 54.17276 229.7203 55.03103 230.7028C 56.47655 232.3403 58.80293 232.1258 60.60982 232.1935C 63.06042 232.2839 65.49973 232.1597 67.95033 232.1597C 75.93456 232.1597 63.82835 232.329 71.81258 232.2387C 76.20559 232.1822 80.75671 232.2726 85.10455 231.3804C 87.53256 230.8722 89.9267 230.0704 92.18533 228.8056C 94.54558 227.473 96.37506 225.3838 98.55463 223.7124C 99.5936 222.9219 100.3502 223.927 100.0792 225.3386C 99.78558 226.9084 97.83188 228.1958 96.75903 229.1444C 95.03119 230.669 93.29205 232.2726 91.248 233.2777C 88.18757 234.7796 84.83352 234.6554 81.61499 234.7119C 78.19318 234.7684 74.78266 235.0281 71.37215 235.0507C 66.08698 235.0846 60.79052 235.0846 55.49405 235.0507C 51.69957 235.0281 68.00681 234.9829 64.21233 234.9039C 62.30379 234.87 60.38396 234.8248 58.47543 234.7796C 55.7312 234.7119 51.50759 234.4634 50.79612 230.0253C 50.46862 227.9586 50.42345 225.8468 50.42345 223.735C 50.42345 221.8152 50.28793 219.7824 50.59285 217.8852C 50.93164 215.7847 52.73853 216.4284 53.14508 218.0997C 53.21284 218.3595 53.24672 218.6305 53.25802 218.9128L53.25802 218.9128L53.24672 218.9016z" stroke="none" fill="#FFFFFF" fill-rule="nonzero" fill-opacity="0.09803922" /></g></g><path id="714" transform="matrix(1 0 0 -1 0 842)" d="M52.89664 205.8693C 53.32578 206.1404 53.78879 206.2759 54.25181 206.4001C 55.18913 206.626 56.12646 206.7389 57.07508 206.8292C 60.30491 207.1003 63.77189 207.089 67.0243 207.1567C 72.25301 207.1454 75.27956 207.4842 78.21576 207.4729C 79.43541 207.4729 84.49472 207.4729 85.65791 207.4729C 86.47102 207.4842 87.3067 207.5181 88.1198 207.6085C 92.42248 208.015 95.59584 209.6751 98.97247 213.1647C 100.2486 214.4747 101.5925 215.7508 102.6766 217.3205C 103.7269 218.8451 104.4383 220.7085 103.885 222.7638C 103.3768 224.7401 102.2701 226.3211 101.1069 227.7441C 100.418 228.5572 99.69524 229.3251 98.94989 230.0591C 98.20454 230.7819 97.44791 231.516 96.65739 232.1484C 93.87929 234.3844 90.68334 235.6379 87.43092 235.9767C 86.74205 236.0558 86.01929 236.0784 85.33041 236.0784C 73.5743 236.2252 80.89223 236.4849 69.19257 236.4059C 63.39921 236.3494 57.60585 236.2816 51.82379 235.8412C 51.08974 235.7735 50.43473 235.2766 50.02818 234.4635C 49.76844 233.9553 49.58775 233.3454 49.52 232.7356L49.52 232.7356L49.49741 232.5098L49.49741 232.5098L49.45224 232.058C 49.30543 230.5448 49.16991 229.0202 49.07956 227.5182C 49.01181 226.4792 49.01181 224.9321 48.98922 223.8705C 48.96663 222.3234 48.92146 220.7988 48.8537 219.2516C 48.80853 218.3708 48.75206 217.3883 48.72948 216.5074C 48.63913 212.6226 48.70689 205.0675 51.65439 202.967C 51.65439 203.1025 51.65439 203.2606 51.66568 203.4074C 51.69956 204.5255 52.15129 205.395 52.93051 205.8806L52.93051 205.8806L52.89664 205.8693zM52.89664 205.8693C 52.49009 205.5983 52.11741 205.203 51.90284 204.6723C 51.78991 204.4125 51.72215 204.1189 51.68827 203.8253C 51.6544 203.5316 51.6544 203.5316 51.6544 203.3848C 51.6544 203.3848 51.3269 203.159 51.3269 203.159C 51.03328 203.4187 50.76224 203.7349 50.53638 204.085C 49.06828 206.434 48.68431 209.8897 48.45845 212.8033C 48.30035 214.949 48.28905 217.1285 48.34552 219.2742C 48.3681 220.7988 48.35681 222.346 48.34552 223.8592C 48.33422 225.0902 48.30035 226.3324 48.34552 227.5634C 48.40198 229.1105 48.56009 230.6464 48.71819 232.171L48.71819 232.171L48.76336 232.6227L48.76336 232.6227L48.78595 232.8485C 48.87629 233.6052 49.09086 234.3167 49.40707 234.9604C 49.8362 235.8299 50.54767 236.4962 51.33819 236.6882C 51.57534 236.756 51.84638 236.7672 52.09483 236.7898C 69.92663 237.874 68.1649 237.1512 86.03059 237.0044C 91.03343 236.8576 95.44903 234.8587 99.36774 230.8045C 101.265 228.9072 103.2187 226.8406 104.2802 223.9722C 106.0984 219.1048 102.5976 215.7056 99.96627 213.0179C 99.02895 212.058 98.08032 211.1093 97.06394 210.2962C 95.62971 209.133 94.07127 208.2183 92.44507 207.631C 89.67825 206.6147 86.74205 206.5356 83.8849 206.5582C 77.40266 206.5582 65.08189 207.0325 58.49801 206.8744C 57.07508 206.8067 55.65215 206.7276 54.25181 206.3888C 53.78879 206.2759 53.32578 206.1291 52.89664 205.8693z" stroke="none" fill="#000000" fill-rule="nonzero" /></g><g clip-path="url(#25)"></g><g clip-path="url(#26)"><path id="827" transform="matrix(1 0 0 -1 0 842)" d="M52.89664 131.0149C 51.82379 130.3147 51.66569 129.208 51.6431 128.5304C 51.6431 128.3271 51.45112 128.2142 51.3269 128.3271C 47.83733 131.365 48.56009 143.2905 48.59396 144.5214C 48.78595 151.941 48.3794 150.6084 49.14733 158.0054C 49.14733 158.0054 49.48612 161.2691 51.83508 161.4611C 64.60757 162.5113 72.86283 161.845 85.6692 161.6982C 90.48007 161.6418 94.66981 159.801 97.96739 156.7067C 100.6326 154.2109 103.5914 151.1843 104.2915 147.6609C 105.082 143.6857 101.8635 140.6931 99.14188 137.9262C 95.01989 133.7252 91.48515 132.1442 85.03679 132.1555C 77.52688 132.1781 74.59068 132.1555 67.06947 132.1216C 62.21344 132.1103 54.92939 132.3362 52.88534 131.0036L52.88534 131.0036L52.89664 131.0149z" stroke="none" fill="#8EDFD2" fill-rule="nonzero" /><g><g clip-path="url(#27)"><path id="828" transform="matrix(1 0 0 -1 0 842)" d="M53.24672 144.0471C 53.41612 146.6445 53.35965 149.2984 53.61939 151.8845C 53.7662 153.3639 54.17276 154.8659 55.03103 155.8484C 56.47655 157.4859 58.80293 157.2713 60.60982 157.3391C 63.06042 157.4294 65.49973 157.3052 67.95033 157.3052C 75.93456 157.3052 63.82835 157.4746 71.81258 157.3842C 76.20559 157.3278 80.75671 157.4181 85.10455 156.526C 87.53256 156.0178 89.9267 155.216 92.18533 153.9512C 94.54558 152.6186 96.37506 150.5293 98.55463 148.858C 99.5936 148.0674 100.3502 149.0725 100.0792 150.4842C 99.78558 152.0539 97.83188 153.3413 96.75903 154.2899C 95.03119 155.8145 93.29205 157.4181 91.248 158.4232C 88.18757 159.9252 84.83352 159.801 81.61499 159.8574C 78.19318 159.9139 74.78266 160.1736 71.37215 160.1962C 66.08698 160.2301 60.79052 160.2301 55.49405 160.1962C 51.69957 160.1736 68.00681 160.1285 64.21233 160.0494C 62.30379 160.0155 60.38396 159.9704 58.47543 159.9252C 55.7312 159.8574 51.50759 159.609 50.79612 155.1708C 50.46862 153.1042 50.42345 150.9924 50.42345 148.8806C 50.42345 146.9607 50.28793 144.928 50.59285 143.0307C 50.93164 140.9302 52.73853 141.5739 53.14508 143.2453C 53.21284 143.505 53.24672 143.7761 53.25802 144.0584L53.25802 144.0584L53.24672 144.0471z" stroke="none" fill="#FFFFFF" fill-rule="nonzero" fill-opacity="0.09803922" /></g></g><path id="829" transform="matrix(1 0 0 -1 0 842)" d="M52.89664 131.0149C 53.32578 131.2859 53.78879 131.4214 54.25181 131.5456C 55.18913 131.7715 56.12646 131.8844 57.07508 131.9748C 60.30491 132.2458 63.77189 132.2345 67.0243 132.3023C 72.25301 132.291 75.27956 132.6298 78.21576 132.6185C 79.43541 132.6185 84.49472 132.6185 85.65791 132.6185C 86.47102 132.6298 87.3067 132.6637 88.1198 132.754C 92.42248 133.1606 95.59584 134.8206 98.97247 138.3102C 100.2486 139.6202 101.5925 140.8963 102.6766 142.4661C 103.7269 143.9906 104.4383 145.854 103.885 147.9093C 103.3768 149.8856 102.2701 151.4667 101.1069 152.8896C 100.418 153.7027 99.69524 154.4706 98.94989 155.2047C 98.20454 155.9274 97.44791 156.6615 96.65739 157.2939C 93.87929 159.5299 90.68334 160.7835 87.43092 161.1223C 86.74205 161.2013 86.01929 161.2239 85.33041 161.2239C 73.5743 161.3707 80.89223 161.6305 69.19257 161.5514C 63.39921 161.4949 57.60585 161.4272 51.82379 160.9868C 51.08974 160.919 50.43473 160.4221 50.02818 159.609C 49.76844 159.1008 49.58775 158.491 49.52 157.8811L49.52 157.8811L49.49741 157.6553L49.49741 157.6553L49.45224 157.2036C 49.30543 155.6903 49.16991 154.1657 49.07956 152.6637C 49.01181 151.6248 49.01181 150.0776 48.98922 149.0161C 48.96663 147.4689 48.92146 145.9443 48.8537 144.3972C 48.80853 143.5163 48.75206 142.5338 48.72948 141.653C 48.63913 137.7681 48.70689 130.2131 51.65439 128.1125C 51.65439 128.248 51.65439 128.4062 51.66568 128.553C 51.69956 129.671 52.15129 130.5406 52.93051 131.0262L52.93051 131.0262L52.89664 131.0149zM52.89664 131.0149C 52.49009 130.7438 52.11741 130.3486 51.90284 129.8178C 51.78991 129.5581 51.72215 129.2644 51.68827 128.9708C 51.6544 128.6772 51.6544 128.6772 51.6544 128.5304C 51.6544 128.5304 51.3269 128.3045 51.3269 128.3045C 51.03328 128.5643 50.76224 128.8805 50.53638 129.2306C 49.06828 131.5795 48.68431 135.0352 48.45845 137.9488C 48.30035 140.0945 48.28905 142.2741 48.34552 144.4198C 48.3681 145.9443 48.35681 147.4915 48.34552 149.0048C 48.33422 150.2357 48.30035 151.478 48.34552 152.7089C 48.40198 154.2561 48.56009 155.7919 48.71819 157.3165L48.71819 157.3165L48.76336 157.7682L48.76336 157.7682L48.78595 157.9941C 48.87629 158.7507 49.09086 159.4622 49.40707 160.1059C 49.8362 160.9755 50.54767 161.6418 51.33819 161.8337C 51.57534 161.9015 51.84638 161.9128 52.09483 161.9354C 69.92663 163.0195 68.1649 162.2968 86.03059 162.1499C 91.03343 162.0031 95.44903 160.0043 99.36774 155.95C 101.265 154.0528 103.2187 151.9861 104.2802 149.1177C 106.0984 144.2504 102.5976 140.8512 99.96627 138.1634C 99.02895 137.2035 98.08032 136.2549 97.06394 135.4418C 95.62971 134.2786 94.07127 133.3638 92.44507 132.7766C 89.67825 131.7602 86.74205 131.6812 83.8849 131.7038C 77.40266 131.7038 65.08189 132.1781 58.49801 132.02C 57.07508 131.9522 55.65215 131.8731 54.25181 131.5343C 53.78879 131.4214 53.32578 131.2746 52.89664 131.0149z" stroke="none" fill="#000000" fill-rule="nonzero" /></g><g clip-path="url(#28)"></g><g clip-path="url(#29)"><path id="932" transform="matrix(1 0 0 -1 0 842)" d="M52.89664 61.46098C 51.82379 60.76081 51.66569 59.65409 51.6431 58.97651C 51.6431 58.77323 51.45112 58.6603 51.3269 58.77323C 47.83733 61.81107 48.56009 73.73659 48.59396 74.96753C 48.78595 82.3871 48.3794 81.05451 49.14733 88.45149C 49.14733 88.45149 49.48612 91.7152 51.83508 91.90718C 64.60757 92.95744 72.86283 92.29115 85.6692 92.14434C 90.48007 92.08787 94.66981 90.24709 97.96739 87.15279C 100.6326 84.65701 103.5914 81.63046 104.2915 78.10702C 105.082 74.13184 101.8635 71.13918 99.14188 68.37236C 95.01989 64.17133 91.48515 62.59029 85.03679 62.60159C 77.52688 62.62418 74.59068 62.60159 67.06947 62.56771C 62.21344 62.55642 54.92939 62.78228 52.88534 61.4497L52.88534 61.4497L52.89664 61.46098z" stroke="none" fill="#8EDFD2" fill-rule="nonzero" /><g><g clip-path="url(#30)"><path id="933" transform="matrix(1 0 0 -1 0 842)" d="M53.24672 74.49323C 53.41612 77.09064 53.35965 79.74451 53.61939 82.33064C 53.7662 83.81003 54.17276 85.31201 55.03103 86.29451C 56.47655 87.93201 58.80293 87.71745 60.60982 87.7852C 63.06042 87.87555 65.49973 87.75132 67.95033 87.75132C 75.93456 87.75132 63.82835 87.92072 71.81258 87.83038C 76.20559 87.77391 80.75671 87.86425 85.10455 86.9721C 87.53256 86.46391 89.9267 85.6621 92.18533 84.39727C 94.54558 83.06468 96.37506 80.97546 98.55463 79.30408C 99.5936 78.51357 100.3502 79.51865 100.0792 80.93029C 99.78558 82.50003 97.83188 83.78745 96.75903 84.73607C 95.03119 86.26064 93.29205 87.86426 91.248 88.86934C 88.18757 90.37132 84.83352 90.2471 81.61499 90.30357C 78.19318 90.36003 74.78266 90.61977 71.37215 90.64236C 66.08698 90.67624 60.79052 90.67624 55.49405 90.64236C 51.69957 90.61977 68.00681 90.5746 64.21233 90.49554C 62.30379 90.46167 60.38396 90.4165 58.47543 90.37132C 55.7312 90.30357 51.50759 90.05511 50.79612 85.61693C 50.46862 83.55029 50.42345 81.43848 50.42345 79.32668C 50.42345 77.40685 50.28793 75.37408 50.59285 73.47684C 50.93164 71.37633 52.73853 72.02003 53.14508 73.69141C 53.21284 73.95116 53.24672 74.22219 53.25802 74.50452L53.25802 74.50452L53.24672 74.49323z" stroke="none" fill="#FFFFFF" fill-rule="nonzero" fill-opacity="0.09803922" /></g></g><path id="934" transform="matrix(1 0 0 -1 0 842)" d="M52.89664 61.46098C 53.32578 61.73202 53.78879 61.86754 54.25181 61.99176C 55.18913 62.21762 56.12646 62.33056 57.07508 62.4209C 60.30491 62.69193 63.77189 62.68064 67.0243 62.7484C 72.25301 62.73711 75.27956 63.0759 78.21576 63.06461C 79.43541 63.06461 84.49472 63.06461 85.65791 63.06461C 86.47102 63.0759 87.3067 63.10978 88.1198 63.20012C 92.42248 63.60667 95.59584 65.26676 98.97247 68.75632C 100.2486 70.06633 101.5925 71.34245 102.6766 72.91219C 103.7269 74.43675 104.4383 76.30012 103.885 78.35546C 103.3768 80.33176 102.2701 81.91279 101.1069 83.33572C 100.418 84.14882 99.69524 84.91675 98.94989 85.6508C 98.20454 86.37356 97.44791 87.10761 96.65739 87.74003C 93.87929 89.97606 90.68334 91.22959 87.43092 91.56839C 86.74205 91.64744 86.01929 91.67003 85.33041 91.67003C 73.5743 91.81683 80.89223 92.07658 69.19257 91.99753C 63.39921 91.94106 57.60585 91.8733 51.82379 91.43287C 51.08974 91.36511 50.43473 90.86822 50.02818 90.05511C 49.76844 89.54692 49.58775 88.9371 49.52 88.32727L49.52 88.32727L49.49741 88.1014L49.49741 88.1014L49.45224 87.64968C 49.30543 86.13641 49.16991 84.61184 49.07956 83.10986C 49.01181 82.07089 49.01181 80.52374 48.98922 79.46219C 48.96663 77.91503 48.92146 76.39046 48.8537 74.84331C 48.80853 73.96245 48.75206 72.97995 48.72948 72.09908C 48.63913 68.21426 48.70689 60.65918 51.65439 58.55866C 51.65439 58.69418 51.65439 58.85228 51.66568 58.99909C 51.69956 60.1171 52.15129 60.98668 52.93051 61.47227L52.93051 61.47227L52.89664 61.46098zM52.89664 61.46098C 52.49009 61.18995 52.11741 60.79469 51.90284 60.26392C 51.78991 60.00418 51.72215 59.71056 51.68827 59.41693C 51.6544 59.12331 51.6544 59.12331 51.6544 58.97651C 51.6544 58.97651 51.3269 58.75064 51.3269 58.75064C 51.03328 59.01038 50.76224 59.32659 50.53638 59.67668C 49.06828 62.02564 48.68431 65.48133 48.45845 68.39495C 48.30035 70.54063 48.28905 72.72021 48.34552 74.8659C 48.3681 76.39046 48.35681 77.93762 48.34552 79.4509C 48.33422 80.68184 48.30035 81.92408 48.34552 83.15503C 48.40198 84.70219 48.56009 86.23804 48.71819 87.76261L48.71819 87.76261L48.76336 88.21434L48.76336 88.21434L48.78595 88.4402C 48.87629 89.19684 49.09086 89.9083 49.40707 90.55201C 49.8362 91.42158 50.54767 92.08787 51.33819 92.27985C 51.57534 92.34761 51.84638 92.3589 52.09483 92.38149C 69.92663 93.46563 68.1649 92.74287 86.03059 92.59606C 91.03343 92.44925 95.44903 90.45037 99.36774 86.39615C 101.265 84.49891 103.2187 82.43227 104.2802 79.56383C 106.0984 74.6965 102.5976 71.29727 99.96627 68.60952C 99.02895 67.6496 98.08032 66.70099 97.06394 65.88788C 95.62971 64.72469 94.07127 63.80995 92.44507 63.22271C 89.67825 62.20633 86.74205 62.12728 83.8849 62.14986C 77.40266 62.14986 65.08189 62.62418 58.49801 62.46607C 57.07508 62.39831 55.65215 62.31926 54.25181 61.98047C 53.78879 61.86754 53.32578 61.72073 52.89664 61.46098z" stroke="none" fill="#000000" fill-rule="nonzero" /></g><g clip-path="url(#31)"></g><g clip-path="url(#32)"><g transform="matrix(0.05374753 0 0 0.0538818 503.015 5.097412)"><g transform="matrix(1 0 0 1 0 0)"><image x="0" y="0" xlink:href="img_02.png" width="1521" height="863" /></g></g></g></g></g></svg>