<svg xmlns="http://www.w3.org/2000/svg" xmlns:xlink="http://www.w3.org/1999/xlink" id="body_1" preserveAspectRatio="xMinYMin meet" viewBox="0 0 793 1123"><defs><clipPath id="1"><path id="" clip-rule="evenodd" transform="matrix(1 0 0 1 0 0)" d="M0 842L0 -0.25L0 -0.25L595.5 -0.25L595.5 -0.25L595.5 842L595.5 842L0 842z" /></clipPath><clipPath id="2"><path id="" clip-rule="evenodd" transform="matrix(1 0 0 1 0 0)" d="M0 -0.249939L595.5 -0.249939L595.5 -0.249939L595.5 842.0001L595.5 842.0001L0 842.0001z" /></clipPath><clipPath id="3"><path id="" clip-rule="evenodd" transform="matrix(1 0 0 1 0 0)" d="M0 -0.249939L595.5 -0.249939L595.5 -0.249939L595.5 842.0001L595.5 842.0001L0 842.0001z" /></clipPath><clipPath id="4"><path id="" clip-rule="evenodd" transform="matrix(1 0 0 1 0 0)" d="M0 -0.249939L595.5 -0.249939L595.5 -0.249939L595.5 842.0001L595.5 842.0001L0 842.0001z" /></clipPath><clipPath id="5"><path id="" clip-rule="evenodd" transform="matrix(1 0 0 1 0 0)" d="M81.12 36.71008L526.08 36.71008L526.08 36.71008L526.08 820.55L526.08 820.55L81.12 820.55z" /></clipPath><clipPath id="6"><path id="" clip-rule="evenodd" transform="matrix(1 0 0 1 0 0)" d="M81.30837 36.74036L526.0583 36.74036L526.0583 36.74036L526.0583 819.7403L526.0583 819.7403L81.30837 819.7403z" /></clipPath><clipPath id="7"><path id="" clip-rule="evenodd" transform="matrix(1 0 0 1 0 0)" d="M40.58464 390.5446L574.5847 390.5446L574.5847 390.5446L574.5847 412.2946L574.5847 412.2946L40.58464 412.2946z" /></clipPath><clipPath id="8"><path id="" clip-rule="evenodd" transform="matrix(1 0 0 1 0 0)" d="M376.9289 537.6938L545.6789 537.6938L545.6789 537.6938L545.6789 741.6938L545.6789 741.6938L376.9289 741.6938z" /></clipPath><clipPath id="9"><path id="" clip-rule="evenodd" transform="matrix(1 0 0 1 0 0)" d="M16.70839 467.8479L358.7084 467.8479L358.7084 467.8479L358.7084 811.3479L358.7084 811.3479L16.70839 811.3479z" /></clipPath><clipPath id="10"><path id="" clip-rule="evenodd" transform="matrix(1 0 0 1 0 0)" d="M0 -0.249939L595.5 -0.249939L595.5 -0.249939L595.5 842.0001L595.5 842.0001L0 842.0001z" /></clipPath><clipPath id="11"><path id="" clip-rule="evenodd" transform="matrix(1 0 0 1 0 0)" d="M0 -0.249939L595.5 -0.249939L595.5 -0.249939L595.5 842.0001L595.5 842.0001L0 842.0001z" /></clipPath><clipPath id="12"><path id="" clip-rule="evenodd" transform="matrix(1 0 0 1 0 0)" d="M79.92964 533.9694L171.6171 533.9694L171.6171 533.9694L171.6171 621.2422L171.6171 621.2422L79.92964 621.2422z" /></clipPath><clipPath id="13"><path id="" clip-rule="evenodd" transform="matrix(1 0 0 1 0 0)" d="M128.6421 533.9694C 124.7121 533.9694 121.4796 534.8169 118.4647 536.2119C 112.0221 538.1993 105.7521 541.3794 100.4571 545.3019C 93.51965 550.5143 87.78214 557.2194 84.33965 565.2519C 82.30714 569.9769 81.15965 574.9194 80.54465 580.0419C 79.88464 585.3369 79.53214 590.9019 80.67964 596.1144C 82.71214 605.2043 90.21214 612.4493 98.37965 616.3793C 104.2821 619.2068 110.6721 620.6769 117.1372 620.9094L117.1372 620.9094L120.4821 620.9094L120.4821 620.9094L125.8821 620.4819C 135.8121 619.1544 145.2621 615.2319 153.7371 609.9294C 161.3721 605.1594 168.7446 598.7169 170.8671 589.5818C 173.2071 579.3818 169.1871 569.1894 165.1746 560.0093C 161.3797 551.3994 156.0396 542.7519 147.3846 538.2894L147.3846 538.2894L144.9096 537.1869C 140.7997 535.3719 136.4721 534.3969 132.0172 534.2244L132.0172 534.2244L130.7346 534.0444L130.7346 534.0444L128.6421 533.9694z" /></clipPath><clipPath id="14"><path id="" clip-rule="evenodd" transform="matrix(1 0 0 1 0 0)" d="M79.92964 533.9694L171.6171 533.9694L171.6171 533.9694L171.6171 620.9026L171.6171 620.9026L79.92964 620.9026z" /></clipPath><clipPath id="15"><path id="" clip-rule="evenodd" transform="matrix(1 0 0 1 0 0)" d="M0 -0.249939L595.5 -0.249939L595.5 -0.249939L595.5 842.0001L595.5 842.0001L0 842.0001z" /></clipPath><clipPath id="16"><path id="" clip-rule="evenodd" transform="matrix(1 0 0 1 0 0)" d="M0 -0.249939L595.5 -0.249939L595.5 -0.249939L595.5 842.0001L595.5 842.0001L0 842.0001z" /></clipPath><clipPath id="17"><path id="" clip-rule="evenodd" transform="matrix(1 0 0 1 0 0)" d="M202.1339 627.5244L293.8213 627.5244L293.8213 627.5244L293.8213 714.7972L293.8213 714.7972L202.1339 714.7972z" /></clipPath><clipPath id="18"><path id="" clip-rule="evenodd" transform="matrix(1 0 0 1 0 0)" d="M250.8464 627.5244C 246.9164 627.5244 243.6839 628.3719 240.6689 629.7669C 234.2264 631.7544 227.9564 634.9344 222.6614 638.8569C 215.7239 644.0694 209.9864 650.7744 206.5439 658.8069C 204.5114 663.5319 203.3639 668.4744 202.7489 673.5969C 202.0889 678.8919 201.7364 684.4569 202.8839 689.6694C 204.9164 698.7594 212.4164 706.0044 220.5839 709.9344C 226.4864 712.7619 232.8764 714.2319 239.3414 714.4644L239.3414 714.4644L242.6789 714.4644L242.6789 714.4644L248.0789 714.0369C 258.0089 712.7094 267.4589 708.7869 275.9339 703.4844C 283.5689 698.7144 290.9414 692.2719 293.0639 683.1369C 295.4039 672.937 291.3839 662.7444 287.3714 653.5644C 283.5764 644.9544 278.2364 636.3069 269.5814 631.8444L269.5814 631.8444L267.1064 630.7419C 263.0039 628.9269 258.6764 627.9519 254.2214 627.7794L254.2214 627.7794L252.9389 627.5994L252.9389 627.5994L250.8464 627.5244z" /></clipPath><clipPath id="19"><path id="" clip-rule="evenodd" transform="matrix(1 0 0 1 0 0)" d="M202.1339 627.5244L293.8213 627.5244L293.8213 627.5244L293.8213 714.4577L293.8213 714.4577L202.1339 714.4577z" /></clipPath><clipPath id="20"><path id="" clip-rule="evenodd" transform="matrix(1 0 0 1 0 0)" d="M0 -0.249939L595.5 -0.249939L595.5 -0.249939L595.5 842.0001L595.5 842.0001L0 842.0001z" /></clipPath><clipPath id="21"><path id="" clip-rule="evenodd" transform="matrix(1 0 0 1 0 0)" d="M16.70839 58.7702L109.0709 58.7702L109.0709 58.7702L109.0709 151.1327L109.0709 151.1327L16.70839 151.1327z" /></clipPath><clipPath id="22"><path id="" clip-rule="evenodd" transform="matrix(1 0 0 1 0 0)" d="M0 -0.249939L595.5 -0.249939L595.5 -0.249939L595.5 842.0001L595.5 842.0001L0 842.0001z" /></clipPath><clipPath id="23"><path id="" clip-rule="evenodd" transform="matrix(1 0 0 1 0 0)" d="M0 -0.249939L595.5 -0.249939L595.5 -0.249939L595.5 842.0001L595.5 842.0001L0 842.0001z" /></clipPath><clipPath id="24"><path id="" clip-rule="evenodd" transform="matrix(1 0 0 1 0 0)" d="M91.8138 148.6832L92.7359 126.2589L92.7359 126.2589L159.1462 128.9897L159.1462 128.9897L158.2241 151.414L158.2241 151.414L91.8138 148.6832z" /></clipPath><clipPath id="25"><path id="" clip-rule="evenodd" transform="matrix(1 0 0 1 0 0)" d="M91.8138 148.6832L92.7359 126.2589L92.7359 126.2589L159.1462 128.9897L159.1462 128.9897L158.2241 151.414L158.2241 151.414L91.8138 148.6832z" /></clipPath><clipPath id="26"><path id="" clip-rule="evenodd" transform="matrix(1 0 0 1 0 0)" d="M91.8138 148.6832L92.7359 126.2589L92.7359 126.2589L159.1462 128.9897L159.1462 128.9897L158.2241 151.414L158.2241 151.414L91.8138 148.6832z" /></clipPath><clipPath id="27"><path id="" clip-rule="evenodd" transform="matrix(1 0 0 1 0 0)" d="M0 -0.249939L595.5 -0.249939L595.5 -0.249939L595.5 842.0001L595.5 842.0001L0 842.0001z" /></clipPath><clipPath id="28"><path id="" clip-rule="evenodd" transform="matrix(1 0 0 1 0 0)" d="M0 -0.249939L595.5 -0.249939L595.5 -0.249939L595.5 842.0001L595.5 842.0001L0 842.0001z" /></clipPath><clipPath id="29"><path id="" clip-rule="evenodd" transform="matrix(1 0 0 1 0 0)" d="M189.3059 38.03186L302.7021 38.03186L302.7021 38.03186L302.7021 151.428L302.7021 151.428L189.3059 151.428z" /></clipPath><clipPath id="30"><path id="" clip-rule="evenodd" transform="matrix(1 0 0 1 0 0)" d="M202.0559 38.03186L289.9521 38.03186C 293.3336 38.03186 296.5766 39.37518 298.9677 41.76624C 301.3588 44.15735 302.7021 47.40033 302.7021 50.78186L302.7021 50.78186L302.7021 138.678C 302.7021 142.0595 301.3588 145.3026 298.9677 147.6936C 296.5766 150.0847 293.3336 151.428 289.9521 151.428L289.9521 151.428L202.0559 151.428C 198.6744 151.428 195.4314 150.0847 193.0403 147.6936C 190.6492 145.3026 189.3059 142.0595 189.3059 138.678L189.3059 138.678L189.3059 50.78186C 189.3059 47.40033 190.6492 44.15735 193.0403 41.76624C 195.4314 39.37518 198.6744 38.03186 202.0559 38.03186z" /></clipPath><clipPath id="31"><path id="" clip-rule="evenodd" transform="matrix(1 0 0 1 0 0)" d="M189.3059 38.03186L302.7021 38.03186L302.7021 38.03186L302.7021 151.428L302.7021 151.428L189.3059 151.428z" /></clipPath><clipPath id="32"><path id="" clip-rule="evenodd" transform="matrix(1 0 0 1 0 0)" d="M0 -0.249939L595.5 -0.249939L595.5 -0.249939L595.5 842.0001L595.5 842.0001L0 842.0001z" /></clipPath><clipPath id="33"><path id="" clip-rule="evenodd" transform="matrix(1 0 0 1 0 0)" d="M267.6 329.0301L448.56 329.0301L448.56 329.0301L448.56 365.2701L448.56 365.2701L267.6 365.2701z" /></clipPath><clipPath id="34"><path id="" clip-rule="evenodd" transform="matrix(1 0 0 1 0 0)" d="M267.6 329.2359L447.6 329.2359L447.6 329.2359L447.6 364.4859L447.6 364.4859L267.6 364.4859z" /></clipPath><clipPath id="35"><path id="" clip-rule="evenodd" transform="matrix(1 0 0 1 0 0)" d="M445.0118 103.2857L544.0118 103.2857L544.0118 103.2857L544.0118 202.2857L544.0118 202.2857L445.0118 202.2857z" /></clipPath><clipPath id="36"><path id="" clip-rule="evenodd" transform="matrix(1 0 0 1 0 0)" d="M0 -0.249939L595.5 -0.249939L595.5 -0.249939L595.5 842.0001L595.5 842.0001L0 842.0001z" /></clipPath><clipPath id="37"><path id="" clip-rule="evenodd" transform="matrix(1 0 0 1 0 0)" d="M271.68 211.4301L437.04 211.4301L437.04 211.4301L437.04 243.8301L437.04 243.8301L271.68 243.8301z" /></clipPath><clipPath id="38"><path id="" clip-rule="evenodd" transform="matrix(1 0 0 1 0 0)" d="M271.8804 211.4423L436.1304 211.4423L436.1304 211.4423L436.1304 243.6923L436.1304 243.6923L271.8804 243.6923z" /></clipPath><clipPath id="39"><path id="" clip-rule="evenodd" transform="matrix(1 0 0 1 0 0)" d="M277.68 250.0701L438.48 250.0701L438.48 250.0701L438.48 281.9901L438.48 281.9901L277.68 281.9901z" /></clipPath><clipPath id="40"><path id="" clip-rule="evenodd" transform="matrix(1 0 0 1 0 0)" d="M277.7674 250.3097L437.5173 250.3097L437.5173 250.3097L437.5173 281.8097L437.5173 281.8097L277.7674 281.8097z" /></clipPath><clipPath id="41"><path id="" clip-rule="evenodd" transform="matrix(1 0 0 1 0 0)" d="M343.68 295.6701L443.7599 295.6701L443.7599 295.6701L443.7599 316.3101L443.7599 316.3101L343.68 316.3101z" /></clipPath><clipPath id="42"><path id="" clip-rule="evenodd" transform="matrix(1 0 0 1 0 0)" d="M343.7968 295.8635L443.5468 295.8635L443.5468 295.8635L443.5468 315.3635L443.5468 315.3635L343.7968 315.3635z" /></clipPath><clipPath id="43"><path id="" clip-rule="evenodd" transform="matrix(1 0 0 1 0 0)" d="M318.24 368.6301L429.6 368.6301L429.6 368.6301L429.6 390.7101L429.6 390.7101L318.24 390.7101z" /></clipPath><clipPath id="44"><path id="" clip-rule="evenodd" transform="matrix(1 0 0 1 0 0)" d="M318.361 368.797L429.361 368.797L429.361 368.797L429.361 390.547L429.361 390.547L318.361 390.547z" /></clipPath><clipPath id="45"><path id="" clip-rule="evenodd" transform="matrix(1 0 0 1 0 0)" d="M0 -0.249939L595.5 -0.249939L595.5 -0.249939L595.5 842.0001L595.5 842.0001L0 842.0001z" /></clipPath><clipPath id="46"><path id="" clip-rule="evenodd" transform="matrix(1 0 0 1 0 0)" d="M0 -0.249939L595.5 -0.249939L595.5 -0.249939L595.5 842.0001L595.5 842.0001L0 842.0001z" /></clipPath><clipPath id="47"><path id="" clip-rule="evenodd" transform="matrix(1 0 0 1 0 0)" d="M152.4455 180.7665L252.7444 180.7665L252.7444 180.7665L252.7444 385.2822L252.7444 385.2822L152.4455 385.2822z" /></clipPath><clipPath id="48"><path id="" clip-rule="evenodd" transform="matrix(1 0 0 1 0 0)" d="M160.0699 180.7665C 155.8641 180.7665 152.4455 185.3951 152.4455 191.1282L152.4455 191.1282L152.4455 374.8183C 152.4455 380.5396 155.8759 385.18 160.0699 385.18L160.0699 385.18L245.2069 385.18C 249.0132 385.18 252.1617 381.4089 252.7373 376.463L252.7373 376.463L252.7373 189.4835C 252.1617 184.561 249.0132 180.7665 245.2069 180.7665L245.2069 180.7665L160.0699 180.7665z" /></clipPath><clipPath id="49"><path id="" clip-rule="evenodd" transform="matrix(1 0 0 1 0 0)" d="M152.4455 180.7665L252.7444 180.7665L252.7444 180.7665L252.7444 385.2822L252.7444 385.2822L152.4455 385.2822z" /></clipPath><clipPath id="50"><path id="" clip-rule="evenodd" transform="matrix(1 0 0 1 0 0)" d="M0 -0.249939L595.5 -0.249939L595.5 -0.249939L595.5 842.0001L595.5 842.0001L0 842.0001z" /></clipPath><clipPath id="51"><path id="" clip-rule="evenodd" transform="matrix(1 0 0 1 0 0)" d="M0 -0.249939L595.5 -0.249939L595.5 -0.249939L595.5 842.0001L595.5 842.0001L0 842.0001z" /></clipPath><clipPath id="52"><path id="" clip-rule="evenodd" transform="matrix(1 0 0 1 0 0)" d="M64.95782 436.0594L97.20782 436.0594L97.20782 436.0594L97.20782 468.3094L97.20782 468.3094L64.95782 468.3094z" /></clipPath><clipPath id="53"><path id="" clip-rule="evenodd" transform="matrix(1 0 0 1 0 0)" d="M64.95782 451.9536C 64.95782 456.1691 66.6324 460.2118 69.61315 463.1926C 72.5939 466.1733 76.63667 467.8479 80.8521 467.8479C 85.06751 467.8479 89.11028 466.1733 92.09103 463.1926C 95.07178 460.2118 96.74636 456.1691 96.74636 451.9536C 96.74636 447.7382 95.07178 443.6954 92.09103 440.7147C 89.11028 437.7339 85.06751 436.0594 80.8521 436.0594C 76.63667 436.0594 72.5939 437.7339 69.61315 440.7147C 66.6324 443.6954 64.95782 447.7382 64.95782 451.9536z" /></clipPath><clipPath id="54"><path id="" clip-rule="evenodd" transform="matrix(1 0 0 1 0 0)" d="M65.70782 436.8094L96.45782 436.8094L96.45782 436.8094L96.45782 467.5594L96.45782 467.5594L65.70782 467.5594z" /></clipPath><clipPath id="55"><path id="" clip-rule="evenodd" transform="matrix(1 0 0 1 0 0)" d="M80.8521 436.9594C 84.82882 436.9594 88.64267 438.5391 91.45464 441.3511C 94.2666 444.1631 95.84635 447.9769 95.84635 451.9536C 95.84635 455.9304 94.2666 459.7442 91.45464 462.5562C 88.64267 465.3681 84.82882 466.9479 80.8521 466.9479C 76.87537 466.9479 73.06152 465.3681 70.24955 462.5562C 67.43758 459.7442 65.85783 455.9304 65.85783 451.9536C 65.85783 447.9769 67.43758 444.1631 70.24955 441.3511C 73.06152 438.5391 76.87537 436.9594 80.8521 436.9594z" /></clipPath><clipPath id="56"><path id="" clip-rule="evenodd" transform="matrix(1 0 0 1 0 0)" d="M65.70782 436.8094L96.45782 436.8094L96.45782 436.8094L96.45782 467.5594L96.45782 467.5594L65.70782 467.5594z" /></clipPath><clipPath id="57"><path id="" clip-rule="evenodd" transform="matrix(1 0 0 1 0 0)" d="M64.95113 436.0526L96.45113 436.0526L96.45113 436.0526L96.45113 467.5526L96.45113 467.5526L64.95113 467.5526z" /></clipPath><clipPath id="58"><path id="" clip-rule="evenodd" transform="matrix(1 0 0 1 0 0)" d="M0 -0.249939L595.5 -0.249939L595.5 -0.249939L595.5 842.0001L595.5 842.0001L0 842.0001z" /></clipPath><clipPath id="59"><path id="" clip-rule="evenodd" transform="matrix(1 0 0 1 0 0)" d="M0 -0.249939L595.5 -0.249939L595.5 -0.249939L595.5 842.0001L595.5 842.0001L0 842.0001z" /></clipPath><clipPath id="60"><path id="" clip-rule="evenodd" transform="matrix(1 0 0 1 0 0)" d="M64.95782 436.0594L97.20782 436.0594L97.20782 436.0594L97.20782 468.3094L97.20782 468.3094L64.95782 468.3094z" /></clipPath><clipPath id="61"><path id="" clip-rule="evenodd" transform="matrix(1 0 0 1 0 0)" d="M64.95782 451.9536C 64.95782 456.1691 66.6324 460.2118 69.61315 463.1926C 72.5939 466.1733 76.63667 467.8479 80.8521 467.8479C 85.06751 467.8479 89.11028 466.1733 92.09103 463.1926C 95.07178 460.2118 96.74636 456.1691 96.74636 451.9536C 96.74636 447.7382 95.07178 443.6954 92.09103 440.7147C 89.11028 437.7339 85.06751 436.0594 80.8521 436.0594C 76.63667 436.0594 72.5939 437.7339 69.61315 440.7147C 66.6324 443.6954 64.95782 447.7382 64.95782 451.9536z" /></clipPath><clipPath id="62"><path id="" clip-rule="evenodd" transform="matrix(1 0 0 1 0 0)" d="M64.95782 436.0594L96.45782 436.0594L96.45782 436.0594L96.45782 467.5594L96.45782 467.5594L64.95782 467.5594z" /></clipPath><clipPath id="63"><path id="" clip-rule="evenodd" transform="matrix(1 0 0 1 0 0)" d="M64.95782 436.0594L97.20045 436.0594L97.20045 436.0594L97.20045 468.302L97.20045 468.302L64.95782 468.302z" /></clipPath><clipPath id="64"><path id="" clip-rule="evenodd" transform="matrix(1 0 0 1 0 0)" d="M64.95782 451.95C 64.95782 456.1644 66.63201 460.2063 69.61208 463.1864C 72.59216 466.1664 76.634 467.8406 80.84845 467.8406C 85.0629 467.8406 89.10475 466.1664 92.08482 463.1864C 95.06489 460.2063 96.73907 456.1644 96.73907 451.95C 96.73907 447.7355 95.06489 443.6937 92.08482 440.7136C 89.10475 437.7336 85.0629 436.0594 80.84845 436.0594C 76.634 436.0594 72.59216 437.7336 69.61208 440.7136C 66.63201 443.6937 64.95782 447.7355 64.95782 451.95z" /></clipPath><clipPath id="65"><path id="" clip-rule="evenodd" transform="matrix(1 0 0 1 0 0)" d="M0 -0.249939L595.5 -0.249939L595.5 -0.249939L595.5 842.0001L595.5 842.0001L0 842.0001z" /></clipPath><clipPath id="66"><path id="" clip-rule="evenodd" transform="matrix(1 0 0 1 0 0)" d="M486.2051 21.99719L585.2051 21.99719L585.2051 21.99719L585.2051 78.24719L585.2051 78.24719L486.2051 78.24719z" /></clipPath></defs><g transform="matrix(1.333333 0 0 1.333333 0 0)"><g clip-path="url(#1)"><g clip-path="url(#2)"><path id="1" transform="matrix(1 0 0 -1 0 842)" d="M0 842.2499L595.4999 842.2499L595.4999 -6.103516E-05L0 -6.103516E-05z" stroke="none" fill="#FFFFFF" fill-rule="nonzero" /></g><g clip-path="url(#3)"><path id="2" transform="matrix(1 0 0 -1 0 842)" d="M0 842.2499L595.4999 842.2499L595.4999 -6.103516E-05L0 -6.103516E-05z" stroke="none" fill="#FFFFFF" fill-rule="nonzero" /></g><g clip-path="url(#4)"><g><g clip-path="url(#5)"><g clip-path="url(#6)"><g transform="matrix(0 0.5147929 -0.5153534 0 526.0583 36.74036)"><g transform="matrix(1 0 0 1 0 0)"><image x="0" y="0" xlink:href="img_01.png" width="1521" height="863" /></g></g></g></g></g></g><g clip-path="url(#7)"><g transform="matrix(0.24 0 0 0.239011 40.58464 390.5446)"><g transform="matrix(1 0 0 1 0 0)"><image x="0" y="0" xlink:href="img_02.png" width="2225" height="91" /></g></g></g><g clip-path="url(#8)"><g transform="matrix(0.7434374 0 0 0.7421874 -18.50933 533.0364)"><g transform="matrix(1 0 0 1 0 0)"><image x="0" y="0" xlink:href="img_03.png" width="800" height="288" /></g></g></g><g clip-path="url(#9)"><g transform="matrix(0.24 0 0 0.2405462 16.70839 467.8479)"><g transform="matrix(1 0 0 1 0 0)"><image x="0" y="0" xlink:href="img_04.png" width="1425" height="1428" /></g></g></g><g clip-path="url(#10)"><g clip-path="url(#11)"><g clip-path="url(#12)"><g clip-path="url(#13)"><g clip-path="url(#14)"><g transform="matrix(0.5867478 0 0 0.5873869 79.41515 533.9416)"><g transform="matrix(1 0 0 1 0 0)"><image x="0" y="0" xlink:href="img_05.png" width="158" height="148" /></g></g></g></g></g></g></g><g clip-path="url(#15)"><g clip-path="url(#16)"><g clip-path="url(#17)"><g clip-path="url(#18)"><g clip-path="url(#19)"><g transform="matrix(0.5884699 0 0 0.5873869 200.5582 627.4966)"><g transform="matrix(1 0 0 1 0 0)"><image x="0" y="0" xlink:href="img_06.png" width="161" height="148" /></g></g></g></g></g></g></g><g clip-path="url(#20)"></g><g clip-path="url(#21)"><g transform="matrix(0.3848436 0 0 0.3848436 16.70839 58.77026)"><g transform="matrix(1 0 0 1 0 0)"><image x="0" y="0" xlink:href="img_07.png" width="240" height="240" /></g></g></g><g clip-path="url(#22)"><g clip-path="url(#23)"><g clip-path="url(#24)"><g clip-path="url(#25)"><g clip-path="url(#26)"><path id="280" transform="matrix(1 0 0 -1 0 842)" d="M143.1529 712.399C 146.8239 711.1511 150.6463 710.4743 154.5096 710.4241C 148.5147 704.3113 141.0714 699.6727 133.0213 696.8708C 124.627 693.947 115.3758 692.8717 106.5889 694.3754C 101.8269 695.1912 96.92117 696.9504 93.89621 700.9583C 93.49836 701.4846 92.21205 701.5031 92.81911 700.6987C 95.58578 697.0342 99.80932 694.9483 104.1563 693.8444C 108.6367 692.7062 113.3775 692.4329 117.9808 692.6601C 127.3157 693.1203 136.5115 695.93 144.5567 700.7308C 148.4731 703.0676 152.0893 705.8854 155.3217 709.1094C 155.022 704.1386 155.526 699.1388 156.8223 694.3278C 156.9181 693.9746 157.2703 693.6962 157.6186 693.6214C 157.871 693.567 158.2844 693.649 158.1875 694.009C 156.7374 699.3845 156.2861 704.9719 156.8614 710.5143C 156.8681 710.58 156.8573 710.6464 156.8327 710.7107C 156.9742 711.1049 156.1186 711.5951 155.8349 711.5848C 151.5785 711.4147 147.3205 712.0009 143.2829 713.3738C 142.3265 713.6992 142.3967 712.657 143.1529 712.399z" stroke="none" fill="#000000" fill-rule="nonzero" /></g></g></g></g></g><g clip-path="url(#27)"><g clip-path="url(#28)"><g clip-path="url(#29)"><g clip-path="url(#30)"><g clip-path="url(#31)"><g transform="matrix(0.5920247 0 0 0.590605 184.5291 38.03186)"><g transform="matrix(1 0 0 1 0 0)"><image x="0" y="0" xlink:href="img_08.png" width="208" height="192" /></g></g></g></g></g></g></g><g clip-path="url(#32)"><path id="344" transform="matrix(1 0 0 -1 0 842)" d="M541.4114 463.6582L541.4114 680.6862" stroke="#000000" stroke-width="3" fill="none" /><path id="345" transform="matrix(1 0 0 -1 0 842)" d="M541.4114 612.1105L451.7938 612.0115" stroke="#000000" stroke-width="3" fill="none" /><path id="346" transform="matrix(1 0 0 -1 0 842)" d="M451.0488 607.5107L445.0438 612.004L451.0388 616.5107L451.0488 607.5107z" stroke="none" fill="#000000" fill-rule="nonzero" /><path id="347" transform="matrix(1 0 0 -1 0 842)" d="M451.0488 607.5107L445.0438 612.004L445.0438 612.004L451.0388 616.5107L451.0388 616.5107L451.0488 607.5107z" stroke="#000000" stroke-width="3" stroke-linecap="round" fill="none" /><path id="348" transform="matrix(1 0 0 -1 0 842)" d="M539.6755 537.7603L453.2578 537.5629" stroke="#000000" stroke-width="3" fill="none" /><path id="349" transform="matrix(1 0 0 -1 0 842)" d="M452.518 533.0612L446.5078 537.5475L452.4975 542.0612L452.518 533.0612z" stroke="none" fill="#000000" fill-rule="nonzero" /><path id="350" transform="matrix(1 0 0 -1 0 842)" d="M452.518 533.0612L446.5078 537.5475L446.5078 537.5475L452.4975 542.0612L452.4975 542.0612L452.518 533.0612z" stroke="#000000" stroke-width="3" stroke-linecap="round" fill="none" /><path id="351" transform="matrix(1 0 0 -1 0 842)" d="M539.6755 576.0104L453.2578 575.8129" stroke="#000000" stroke-width="3" fill="none" /><path id="352" transform="matrix(1 0 0 -1 0 842)" d="M452.518 571.3113L446.5078 575.7975L452.4975 580.3112L452.518 571.3113z" stroke="none" fill="#000000" fill-rule="nonzero" /><path id="353" transform="matrix(1 0 0 -1 0 842)" d="M452.518 571.3113L446.5078 575.7975L446.5078 575.7975L452.4975 580.3112L452.4975 580.3112L452.518 571.3113z" stroke="#000000" stroke-width="3" stroke-linecap="round" fill="none" /><path id="354" transform="matrix(1 0 0 -1 0 842)" d="M541.4117 463.6539L454.9939 463.4565" stroke="#000000" stroke-width="3" fill="none" /><path id="355" transform="matrix(1 0 0 -1 0 842)" d="M454.2542 458.9548L448.2439 463.4411L454.2336 467.9548L454.2542 458.9548z" stroke="none" fill="#000000" fill-rule="nonzero" /><path id="356" transform="matrix(1 0 0 -1 0 842)" d="M454.2542 458.9548L448.2439 463.4411L448.2439 463.4411L454.2336 467.9548L454.2336 467.9548L454.2542 458.9548z" stroke="#000000" stroke-width="3" stroke-linecap="round" fill="none" /><g><g clip-path="url(#33)"><g clip-path="url(#34)"><g transform="matrix(0.24 0 0 0.2397959 267.6 329.2359)"><g transform="matrix(1 0 0 1 0 0)"><image x="0" y="0" xlink:href="img_09.png" width="750" height="147" /></g></g></g></g></g><path id="358" transform="matrix(1 0 0 -1 0 842)" d="M541.4117 501.904L454.9939 501.7066" stroke="#000000" stroke-width="3" fill="none" /><path id="359" transform="matrix(1 0 0 -1 0 842)" d="M454.2542 497.2049L448.2439 501.6912L454.2336 506.2049L454.2542 497.2049z" stroke="none" fill="#000000" fill-rule="nonzero" /><path id="360" transform="matrix(1 0 0 -1 0 842)" d="M454.2542 497.2049L448.2439 501.6912L448.2439 501.6912L454.2336 506.2049L454.2336 506.2049L454.2542 497.2049z" stroke="#000000" stroke-width="3" stroke-linecap="round" fill="none" /></g><g clip-path="url(#35)"><g transform="matrix(0.4125 0 0 0.4125 445.0118 103.2857)"><g transform="matrix(1 0 0 1 0 0)"><image x="0" y="0" xlink:href="img_07.png" width="240" height="240" /></g></g></g><g clip-path="url(#36)"><g><g clip-path="url(#37)"><g clip-path="url(#38)"><g transform="matrix(0.219 0 0 0.2193877 271.8804 211.4423)"><g transform="matrix(1 0 0 1 0 0)"><image x="0" y="0" xlink:href="img_09.png" width="750" height="147" /></g></g></g></g></g><g><g clip-path="url(#39)"><g clip-path="url(#40)"><g transform="matrix(0.213 0 0 0.2142857 277.7673 250.3097)"><g transform="matrix(1 0 0 1 0 0)"><image x="0" y="0" xlink:href="img_09.png" width="750" height="147" /></g></g></g></g></g><g><g clip-path="url(#41)"><g clip-path="url(#42)"><g transform="matrix(0.133 0 0 0.132653 343.7968 295.8635)"><g transform="matrix(1 0 0 1 0 0)"><image x="0" y="0" xlink:href="img_09.png" width="750" height="147" /></g></g></g></g></g><g><g clip-path="url(#43)"><g clip-path="url(#44)"><g transform="matrix(0.148 0 0 0.1479592 318.361 368.7971)"><g transform="matrix(1 0 0 1 0 0)"><image x="0" y="0" xlink:href="img_09.png" width="750" height="147" /></g></g></g></g></g></g><g clip-path="url(#45)"><g clip-path="url(#46)"><g clip-path="url(#47)"><g clip-path="url(#48)"><g clip-path="url(#49)"><g transform="matrix(0.6348031 0 0 0.6388394 152.4455 167.9061)"><g transform="matrix(1 0 0 1 0 0)"><image x="0" y="0" xlink:href="img_10.png" width="158" height="360" /></g></g></g></g></g></g></g><g clip-path="url(#50)"><g clip-path="url(#51)"><g clip-path="url(#52)"><g clip-path="url(#53)"><g clip-path="url(#54)"><g clip-path="url(#55)"><g clip-path="url(#56)"><g clip-path="url(#57)"><path id="521" transform="matrix(1 0 0 -1 0 842)" d="M80.70113 405.7146C 72.14337 405.7146 65.18389 398.7551 65.18389 390.1973C 65.18389 381.6396 72.14337 374.6801 80.70113 374.6801C 89.25889 374.6801 96.21838 381.6396 96.21838 390.1973C 96.21838 398.7551 89.25889 405.7146 80.70113 405.7146zM80.70113 374.4473C 72.01923 374.4473 64.95113 381.5154 64.95113 390.1973C 64.95113 398.8792 72.01923 405.9473 80.70113 405.9473C 89.38303 405.9473 96.45113 398.8792 96.45113 390.1973C 96.45113 381.5154 89.38303 374.4473 80.70113 374.4473z" stroke="none" fill="#000000" fill-rule="nonzero" /></g></g></g></g></g></g></g></g><g clip-path="url(#58)"><g clip-path="url(#59)"><g clip-path="url(#60)"><g clip-path="url(#61)"><g clip-path="url(#62)"><g clip-path="url(#63)"><g clip-path="url(#64)"><path id="522" transform="matrix(1 0 0 -1 0 842)" d="M64.95782 390.05C 64.95782 385.8355 66.63201 381.7937 69.61208 378.8136C 72.59215 375.8336 76.634 374.1594 80.84845 374.1594C 85.0629 374.1594 89.10474 375.8336 92.08482 378.8136C 95.06488 381.7937 96.73907 385.8355 96.73907 390.05C 96.73907 394.2644 95.06488 398.3063 92.08482 401.2863C 89.10474 404.2664 85.0629 405.9406 80.84845 405.9406C 76.634 405.9406 72.59215 404.2664 69.61208 401.2863C 66.63201 398.3063 64.95782 394.2644 64.95782 390.05z" stroke="#000000" stroke-width="1.5" fill="none" /></g></g></g></g></g></g></g><g clip-path="url(#65)"></g><g clip-path="url(#66)"><g transform="matrix(0.06508876 0 0 0.0651796 486.205 21.99719)"><g transform="matrix(1 0 0 1 0 0)"><image x="0" y="0" xlink:href="img_11.png" width="1521" height="863" /></g></g></g></g></g></svg>