<svg xmlns="http://www.w3.org/2000/svg" xmlns:xlink="http://www.w3.org/1999/xlink" id="body_1" preserveAspectRatio="xMinYMin meet" viewBox="0 0 793 1123"><defs><clipPath id="1"><path id="" clip-rule="evenodd" transform="matrix(1 0 0 1 0 0)" d="M0 842L0 -0.25L0 -0.25L595.5 -0.25L595.5 -0.25L595.5 842L595.5 842L0 842z" /></clipPath><clipPath id="2"><path id="" clip-rule="evenodd" transform="matrix(1 0 0 1 0 0)" d="M0 -0.249939L595.5 -0.249939L595.5 -0.249939L595.5 842.0001L595.5 842.0001L0 842.0001z" /></clipPath><clipPath id="3"><path id="" clip-rule="evenodd" transform="matrix(1 0 0 1 0 0)" d="M0 -0.249939L595.5 -0.249939L595.5 -0.249939L595.5 842.0001L595.5 842.0001L0 842.0001z" /></clipPath><clipPath id="4"><path id="" clip-rule="evenodd" transform="matrix(1 0 0 1 0 0)" d="M0 -0.249939L595.5 -0.249939L595.5 -0.249939L595.5 842.0001L595.5 842.0001L0 842.0001z" /></clipPath><clipPath id="5"><path id="" clip-rule="evenodd" transform="matrix(1 0 0 1 0 0)" d="M79.67999 18.95007L535.92 18.95007L535.92 18.95007L535.92 823.1901L535.92 823.1901L79.67999 823.1901z" /></clipPath><clipPath id="6"><path id="" clip-rule="evenodd" transform="matrix(1 0 0 1 0 0)" d="M79.74117 19.05255L535.7411 19.05255L535.7411 19.05255L535.7411 822.3026L535.7411 822.3026L79.74117 822.3026z" /></clipPath><clipPath id="7"><path id="" clip-rule="evenodd" transform="matrix(1 0 0 1 0 0)" d="M489.3922 29.22406L571.1422 29.22406L571.1422 29.22406L571.1422 75.72406L571.1422 75.72406L489.3922 75.72406z" /></clipPath><clipPath id="8"><path id="" clip-rule="evenodd" transform="matrix(1 0 0 1 0 0)" d="M0 -0.249939L595.5 -0.249939L595.5 -0.249939L595.5 842.0001L595.5 842.0001L0 842.0001z" /></clipPath><clipPath id="9"><path id="" clip-rule="evenodd" transform="matrix(1 0 0 1 0 0)" d="M0 -0.249939L595.5 -0.249939L595.5 -0.249939L595.5 842.0001L595.5 842.0001L0 842.0001z" /></clipPath><clipPath id="10"><path id="" clip-rule="evenodd" transform="matrix(1 0 0 1 0 0)" d="M113.2782 344.7531L254.9974 344.7531L254.9974 344.7531L254.9974 393.9799L254.9974 393.9799L113.2782 393.9799z" /></clipPath><clipPath id="11"><path id="" clip-rule="evenodd" transform="matrix(1 0 0 1 0 0)" d="M126.0282 344.7531L242.1996 344.7531C 245.5812 344.7531 248.8242 346.0964 251.2153 348.4875C 253.6063 350.8786 254.9497 354.1216 254.9497 357.5031L254.9497 357.5031L254.9497 381.2299C 254.9497 384.6114 253.6063 387.8544 251.2153 390.2455C 248.8242 392.6366 245.5812 393.9799 242.1996 393.9799L242.1996 393.9799L126.0282 393.9799C 122.6466 393.9799 119.4036 392.6366 117.0125 390.2455C 114.6215 387.8544 113.2782 384.6114 113.2782 381.2299L113.2782 381.2299L113.2782 357.5031C 113.2782 354.1216 114.6215 350.8786 117.0125 348.4875C 119.4036 346.0964 122.6466 344.7531 126.0282 344.7531z" /></clipPath><clipPath id="12"><path id="" clip-rule="evenodd" transform="matrix(1 0 0 1 0 0)" d="M0 -0.249939L595.5 -0.249939L595.5 -0.249939L595.5 842.0001L595.5 842.0001L0 842.0001z" /></clipPath><clipPath id="13"><path id="" clip-rule="evenodd" transform="matrix(1 0 0 1 0 0)" d="M0 -0.249939L595.5 -0.249939L595.5 -0.249939L595.5 842.0001L595.5 842.0001L0 842.0001z" /></clipPath><clipPath id="14"><path id="" clip-rule="evenodd" transform="matrix(1 0 0 1 0 0)" d="M0 -0.249939L595.5 -0.249939L595.5 -0.249939L595.5 842.0001L595.5 842.0001L0 842.0001z" /></clipPath><clipPath id="15"><path id="" clip-rule="evenodd" transform="matrix(1 0 0 1 0 0)" d="M113.2782 485.5108L254.9974 485.5108L254.9974 485.5108L254.9974 534.7375L254.9974 534.7375L113.2782 534.7375z" /></clipPath><clipPath id="16"><path id="" clip-rule="evenodd" transform="matrix(1 0 0 1 0 0)" d="M126.0282 485.5108L242.1996 485.5108C 245.5812 485.5108 248.8242 486.8541 251.2153 489.2452C 253.6063 491.6363 254.9497 494.8792 254.9497 498.2607L254.9497 498.2607L254.9497 521.9875C 254.9497 525.369 253.6063 528.6121 251.2153 531.0032C 248.8242 533.3943 245.5812 534.7375 242.1996 534.7375L242.1996 534.7375L126.0282 534.7375C 122.6466 534.7375 119.4036 533.3943 117.0125 531.0032C 114.6215 528.6121 113.2782 525.369 113.2782 521.9875L113.2782 521.9875L113.2782 498.2607C 113.2782 494.8792 114.6215 491.6363 117.0125 489.2452C 119.4036 486.8541 122.6466 485.5108 126.0282 485.5108z" /></clipPath><clipPath id="17"><path id="" clip-rule="evenodd" transform="matrix(1 0 0 1 0 0)" d="M0 -0.249939L595.5 -0.249939L595.5 -0.249939L595.5 842.0001L595.5 842.0001L0 842.0001z" /></clipPath><clipPath id="18"><path id="" clip-rule="evenodd" transform="matrix(1 0 0 1 0 0)" d="M0 -0.249939L595.5 -0.249939L595.5 -0.249939L595.5 842.0001L595.5 842.0001L0 842.0001z" /></clipPath><clipPath id="19"><path id="" clip-rule="evenodd" transform="matrix(1 0 0 1 0 0)" d="M0 -0.249939L595.5 -0.249939L595.5 -0.249939L595.5 842.0001L595.5 842.0001L0 842.0001z" /></clipPath><clipPath id="20"><path id="" clip-rule="evenodd" transform="matrix(1 0 0 1 0 0)" d="M234.9997 383.6599L257.3929 371.4616L257.3929 371.4616L275.3315 404.3927L275.3315 404.3927L252.9384 416.591L252.9384 416.591L234.9997 383.6599z" /></clipPath><clipPath id="21"><path id="" clip-rule="evenodd" transform="matrix(1 0 0 1 0 0)" d="M234.9997 383.6599L257.3929 371.4616L257.3929 371.4616L275.3315 404.3927L275.3315 404.3927L252.9384 416.591L252.9384 416.591L234.9997 383.6599z" /></clipPath><clipPath id="22"><path id="" clip-rule="evenodd" transform="matrix(1 0 0 1 0 0)" d="M234.9997 383.6599L257.3929 371.4616L257.3929 371.4616L275.3315 404.3927L275.3315 404.3927L252.9384 416.591L252.9384 416.591L234.9997 383.6599z" /></clipPath><clipPath id="23"><path id="" clip-rule="evenodd" transform="matrix(1 0 0 1 0 0)" d="M0 -0.249939L595.5 -0.249939L595.5 -0.249939L595.5 842.0001L595.5 842.0001L0 842.0001z" /></clipPath><clipPath id="24"><path id="" clip-rule="evenodd" transform="matrix(1 0 0 1 0 0)" d="M0 -0.249939L595.5 -0.249939L595.5 -0.249939L595.5 842.0001L595.5 842.0001L0 842.0001z" /></clipPath><clipPath id="25"><path id="" clip-rule="evenodd" transform="matrix(1 0 0 1 0 0)" d="M234.9997 530.1469L257.3929 517.9485L257.3929 517.9485L275.3315 550.8796L275.3315 550.8796L252.9384 563.0779L252.9384 563.0779L234.9997 530.1469z" /></clipPath><clipPath id="26"><path id="" clip-rule="evenodd" transform="matrix(1 0 0 1 0 0)" d="M234.9997 530.1469L257.3929 517.9485L257.3929 517.9485L275.3315 550.8796L275.3315 550.8796L252.9384 563.0779L252.9384 563.0779L234.9997 530.1469z" /></clipPath><clipPath id="27"><path id="" clip-rule="evenodd" transform="matrix(1 0 0 1 0 0)" d="M234.9997 530.1469L257.3929 517.9485L257.3929 517.9485L275.3315 550.8796L275.3315 550.8796L252.9384 563.0779L252.9384 563.0779L234.9997 530.1469z" /></clipPath><clipPath id="28"><path id="" clip-rule="evenodd" transform="matrix(1 0 0 1 0 0)" d="M0 -0.249939L595.5 -0.249939L595.5 -0.249939L595.5 842.0001L595.5 842.0001L0 842.0001z" /></clipPath><clipPath id="29"><path id="" clip-rule="evenodd" transform="matrix(1 0 0 1 0 0)" d="M0 -0.249939L595.5 -0.249939L595.5 -0.249939L595.5 842.0001L595.5 842.0001L0 842.0001z" /></clipPath><clipPath id="30"><path id="" clip-rule="evenodd" transform="matrix(1 0 0 1 0 0)" d="M308.7726 344.7531L451.4631 344.7531L451.4631 344.7531L451.4631 394.1831L451.4631 394.1831L308.7726 394.1831z" /></clipPath><clipPath id="31"><path id="" clip-rule="evenodd" transform="matrix(1 0 0 1 0 0)" d="M321.5226 344.7531L438.6388 344.7531C 442.0204 344.7531 445.2634 346.0964 447.6544 348.4875C 450.0455 350.8786 451.3888 354.1216 451.3888 357.5031L451.3888 357.5031L451.3888 381.4331C 451.3888 384.8146 450.0455 388.0576 447.6544 390.4488C 445.2634 392.8398 442.0204 394.1831 438.6388 394.1831L438.6388 394.1831L321.5226 394.1831C 318.1411 394.1831 314.898 392.8398 312.507 390.4488C 310.1158 388.0576 308.7726 384.8146 308.7726 381.4331L308.7726 381.4331L308.7726 357.5031C 308.7726 354.1216 310.1158 350.8786 312.507 348.4875C 314.898 346.0964 318.1411 344.7531 321.5226 344.7531z" /></clipPath><clipPath id="32"><path id="" clip-rule="evenodd" transform="matrix(1 0 0 1 0 0)" d="M0 -0.249939L595.5 -0.249939L595.5 -0.249939L595.5 842.0001L595.5 842.0001L0 842.0001z" /></clipPath><clipPath id="33"><path id="" clip-rule="evenodd" transform="matrix(1 0 0 1 0 0)" d="M0 -0.249939L595.5 -0.249939L595.5 -0.249939L595.5 842.0001L595.5 842.0001L0 842.0001z" /></clipPath><clipPath id="34"><path id="" clip-rule="evenodd" transform="matrix(1 0 0 1 0 0)" d="M0 -0.249939L595.5 -0.249939L595.5 -0.249939L595.5 842.0001L595.5 842.0001L0 842.0001z" /></clipPath><clipPath id="35"><path id="" clip-rule="evenodd" transform="matrix(1 0 0 1 0 0)" d="M431.3061 386.2608L453.6992 374.0625L453.6992 374.0625L471.6379 406.9936L471.6379 406.9936L449.2448 419.1918L449.2448 419.1918L431.3061 386.2608z" /></clipPath><clipPath id="36"><path id="" clip-rule="evenodd" transform="matrix(1 0 0 1 0 0)" d="M431.3061 386.2608L453.6992 374.0625L453.6992 374.0625L471.6379 406.9936L471.6379 406.9936L449.2448 419.1918L449.2448 419.1918L431.3061 386.2608z" /></clipPath><clipPath id="37"><path id="" clip-rule="evenodd" transform="matrix(1 0 0 1 0 0)" d="M431.3061 386.2608L453.6992 374.0625L453.6992 374.0625L471.6379 406.9936L471.6379 406.9936L449.2448 419.1918L449.2448 419.1918L431.3061 386.2608z" /></clipPath><clipPath id="38"><path id="" clip-rule="evenodd" transform="matrix(1 0 0 1 0 0)" d="M0 -0.249939L595.5 -0.249939L595.5 -0.249939L595.5 842.0001L595.5 842.0001L0 842.0001z" /></clipPath><clipPath id="39"><path id="" clip-rule="evenodd" transform="matrix(1 0 0 1 0 0)" d="M0 -0.249939L595.5 -0.249939L595.5 -0.249939L595.5 842.0001L595.5 842.0001L0 842.0001z" /></clipPath><clipPath id="40"><path id="" clip-rule="evenodd" transform="matrix(1 0 0 1 0 0)" d="M308.7726 484.5481L451.5067 484.5481L451.5067 484.5481L451.5067 530.8598L451.5067 530.8598L308.7726 530.8598z" /></clipPath><clipPath id="41"><path id="" clip-rule="evenodd" transform="matrix(1 0 0 1 0 0)" d="M321.5226 484.5481L438.6388 484.5481C 442.0204 484.5481 445.2633 485.8914 447.6544 488.2825C 450.0455 490.6736 451.3888 493.9166 451.3888 497.2981L451.3888 497.2981L451.3888 518.1098C 451.3888 521.4913 450.0455 524.7344 447.6544 527.1254C 445.2633 529.5165 442.0204 530.8598 438.6388 530.8598L438.6388 530.8598L321.5226 530.8598C 318.1411 530.8598 314.898 529.5165 312.507 527.1254C 310.1158 524.7344 308.7726 521.4913 308.7726 518.1098L308.7726 518.1098L308.7726 497.2981C 308.7726 493.9166 310.1158 490.6736 312.507 488.2825C 314.898 485.8914 318.1411 484.5481 321.5226 484.5481z" /></clipPath><clipPath id="42"><path id="" clip-rule="evenodd" transform="matrix(1 0 0 1 0 0)" d="M0 -0.249939L595.5 -0.249939L595.5 -0.249939L595.5 842.0001L595.5 842.0001L0 842.0001z" /></clipPath><clipPath id="43"><path id="" clip-rule="evenodd" transform="matrix(1 0 0 1 0 0)" d="M0 -0.249939L595.5 -0.249939L595.5 -0.249939L595.5 842.0001L595.5 842.0001L0 842.0001z" /></clipPath><clipPath id="44"><path id="" clip-rule="evenodd" transform="matrix(1 0 0 1 0 0)" d="M0 -0.249939L595.5 -0.249939L595.5 -0.249939L595.5 842.0001L595.5 842.0001L0 842.0001z" /></clipPath><clipPath id="45"><path id="" clip-rule="evenodd" transform="matrix(1 0 0 1 0 0)" d="M431.3061 520.47L453.6992 508.2717L453.6992 508.2717L471.6379 541.2027L471.6379 541.2027L449.2448 553.401L449.2448 553.401L431.3061 520.47z" /></clipPath><clipPath id="46"><path id="" clip-rule="evenodd" transform="matrix(1 0 0 1 0 0)" d="M431.3061 520.47L453.6992 508.2717L453.6992 508.2717L471.6379 541.2027L471.6379 541.2027L449.2448 553.401L449.2448 553.401L431.3061 520.47z" /></clipPath><clipPath id="47"><path id="" clip-rule="evenodd" transform="matrix(1 0 0 1 0 0)" d="M431.3061 520.47L453.6992 508.2717L453.6992 508.2717L471.6379 541.2027L471.6379 541.2027L449.2448 553.401L449.2448 553.401L431.3061 520.47z" /></clipPath><clipPath id="48"><path id="" clip-rule="evenodd" transform="matrix(1 0 0 1 0 0)" d="M0 -0.249939L595.5 -0.249939L595.5 -0.249939L595.5 842.0001L595.5 842.0001L0 842.0001z" /></clipPath><clipPath id="49"><path id="" clip-rule="evenodd" transform="matrix(1 0 0 1 0 0)" d="M0 -0.249939L595.5 -0.249939L595.5 -0.249939L595.5 842.0001L595.5 842.0001L0 842.0001z" /></clipPath><clipPath id="50"><path id="" clip-rule="evenodd" transform="matrix(1 0 0 1 0 0)" d="M44.57542 643.824L549.5223 643.824L549.5223 643.824L549.5223 688.3066L549.5223 688.3066L44.57542 688.3066z" /></clipPath><clipPath id="51"><path id="" clip-rule="evenodd" transform="matrix(1 0 0 1 0 0)" d="M57.32542 643.824L536.6119 643.824C 539.9934 643.824 543.2364 645.1673 545.6275 647.5584C 548.0186 649.9494 549.3619 653.1924 549.3619 656.574L549.3619 656.574L549.3619 675.5566C 549.3619 678.9381 548.0186 682.1811 545.6275 684.5722C 543.2364 686.9633 539.9934 688.3066 536.6119 688.3066L536.6119 688.3066L57.32542 688.3066C 53.94391 688.3066 50.7009 686.9633 48.30981 684.5722C 45.91872 682.1811 44.57542 678.9381 44.57542 675.5566L44.57542 675.5566L44.57542 656.574C 44.57542 653.1924 45.91872 649.9494 48.30981 647.5584C 50.7009 645.1673 53.94391 643.824 57.32542 643.824z" /></clipPath><clipPath id="52"><path id="" clip-rule="evenodd" transform="matrix(1 0 0 1 0 0)" d="M23.66848 23.5932L122.6685 23.5932L122.6685 23.5932L122.6685 145.8432L122.6685 145.8432L23.66848 145.8432z" /></clipPath><clipPath id="53"><path id="" clip-rule="evenodd" transform="matrix(1 0 0 1 0 0)" d="M451.3888 706.563L577.3889 706.563L577.3889 706.563L577.3889 822.063L577.3889 822.063L451.3888 822.063z" /></clipPath><clipPath id="54"><path id="" clip-rule="evenodd" transform="matrix(1 0 0 1 0 0)" d="M0 -0.249939L595.5 -0.249939L595.5 -0.249939L595.5 842.0001L595.5 842.0001L0 842.0001z" /></clipPath></defs><g transform="matrix(1.333333 0 0 1.333333 0 0)"><g clip-path="url(#1)"><g clip-path="url(#2)"><path id="1" transform="matrix(1 0 0 -1 0 842)" d="M0 842.2499L595.4999 842.2499L595.4999 -6.103516E-05L0 -6.103516E-05z" stroke="none" fill="#FFFFFF" fill-rule="nonzero" /></g><g clip-path="url(#3)"><path id="2" transform="matrix(1 0 0 -1 0 842)" d="M0 842.2499L595.4999 842.2499L595.4999 -6.103516E-05L0 -6.103516E-05z" stroke="none" fill="#E9FCFF" fill-rule="nonzero" /></g><g clip-path="url(#4)"><g><g clip-path="url(#5)"><g clip-path="url(#6)"><g transform="matrix(0 0.5281065 -0.5283893 0 535.7411 19.05261)"><g transform="matrix(1 0 0 1 0 0)"><image x="0" y="0" xlink:href="img_01.png" width="1521" height="863" /></g></g></g></g></g></g><g clip-path="url(#7)"><g transform="matrix(0.05374753 0 0 0.0538818 489.3922 29.22412)"><g transform="matrix(1 0 0 1 0 0)"><image x="0" y="0" xlink:href="img_02.png" width="1521" height="863" /></g></g></g><g clip-path="url(#8)"><g clip-path="url(#9)"><g clip-path="url(#10)"><g clip-path="url(#11)"><path id="5" transform="matrix(1 0 0 -1 0 842)" d="M113.2781 497.2469L254.9974 497.2469L254.9974 448.0201L113.2781 448.0201z" stroke="none" fill="#7ED957" fill-rule="nonzero" /></g></g></g></g><g clip-path="url(#12)"></g><g clip-path="url(#13)"><g clip-path="url(#14)"><g clip-path="url(#15)"><g clip-path="url(#16)"><path id="11" transform="matrix(1 0 0 -1 0 842)" d="M113.2781 356.4892L254.9974 356.4892L254.9974 307.2624L113.2781 307.2624z" stroke="none" fill="#7ED957" fill-rule="nonzero" /></g></g></g></g><g clip-path="url(#17)"></g><g clip-path="url(#18)"><g clip-path="url(#19)"><g clip-path="url(#20)"><g clip-path="url(#21)"><g clip-path="url(#22)"><path id="17" transform="matrix(1 0 0 -1 0 842)" d="M252.173 458.0329C 251.9301 458.3134 251.9619 458.7382 252.2443 458.9817L252.2443 458.9817L254.7035 461.1046C 254.9859 461.3481 255.4119 461.3184 255.6548 461.0379C 255.8976 460.7574 255.8659 460.3326 255.5834 460.0892L255.5834 460.0892L253.1242 457.9662C 252.8425 457.7214 252.4158 457.7524 252.173 458.0329zM248.6247 459.7834C 248.2524 459.8054 247.9702 460.1224 247.994 460.4937L247.994 460.4937L248.2003 463.7239C 248.2242 464.0952 248.5435 464.378 248.9158 464.356C 249.2881 464.334 249.5703 464.017 249.5465 463.6457L249.5465 463.6457L249.3415 460.4163C 249.3177 460.045 248.997 459.7614 248.6247 459.7834zM244.2413 450.9335C 244.4842 450.6531 244.4525 450.2283 244.17 449.9848L244.17 449.9848L241.7108 447.8618C 241.4284 447.6184 241.0024 447.6481 240.7596 447.9285C 240.5167 448.209 240.5484 448.6338 240.8309 448.8773L240.8309 448.8773L243.2901 451.0002C 243.5725 451.2437 243.9985 451.214 244.2413 450.9335zM242.8481 454.824C 242.8242 454.4527 242.5049 454.1698 242.1326 454.1918L242.1326 454.1918L238.8923 454.3817C 238.5199 454.4037 238.2377 454.7207 238.2616 455.092C 238.2854 455.4633 238.6047 455.7462 238.977 455.7241L238.977 455.7241L242.2153 455.5349C 242.5889 455.5136 242.8705 455.1945 242.8481 454.824zM244.7339 458.4631C 244.4514 458.2197 244.0255 458.2494 243.7826 458.5298L243.7826 458.5298L241.666 460.9724C 241.4232 461.2529 241.4549 461.6777 241.7374 461.9211C 242.0199 462.1646 242.4458 462.1349 242.6887 461.8544L242.6887 461.8544L244.8066 459.4126C 245.0481 459.1314 245.0163 458.7066 244.7339 458.4631zM272.1511 441.3091C 272.5666 439.6999 272.0979 437.8497 270.9838 436.607C 270.3431 435.8926 269.5139 435.3689 268.6709 434.9255C 267.7776 434.4547 266.8511 434.0413 265.9377 433.6105C 265.4742 433.3914 265.0099 433.1736 264.5455 432.9593C 264.1064 432.757 263.6743 432.5321 263.2299 432.3427C 262.8758 432.192 262.5112 432.1058 262.1275 432.1778C 261.7145 432.255 261.3102 432.4071 260.907 432.5247C 258.9456 433.0969 256.9843 433.669 255.0229 434.2411C 253.2778 434.7501 251.5327 435.2592 249.7876 435.7682C 249.5566 435.8356 249.3321 435.8976 249.1227 436.0225C 248.8448 436.189 248.6206 436.4287 248.4684 436.7147C 248.1446 437.3252 248.2015 438.1449 248.6893 438.66C 248.9813 438.9702 249.372 439.1707 249.7953 439.2203C 250.0142 439.2465 250.2451 439.2247 250.465 439.2198C 250.6884 439.215 250.9118 439.2103 251.1359 439.2041C 252.0281 439.1843 252.919 439.1637 253.8112 439.1438C 253.8826 439.1423 253.9541 439.1409 254.0255 439.1394C 254.319 439.1324 254.5185 439.4536 254.3783 439.711C 254.199 440.0401 254.0197 440.3693 253.8404 440.6984C 253.3903 441.5247 252.9395 442.3523 252.4894 443.1786C 251.8991 444.2622 251.3081 445.3472 250.7178 446.4308C 250.1179 447.5321 249.518 448.6333 248.9189 449.7332C 248.4429 450.6069 247.967 451.4806 247.4911 452.3542C 247.2646 452.7701 247.0367 453.1852 246.8115 453.6018C 246.5434 454.1004 246.506 454.6912 246.7453 455.2115C 247.1227 456.0266 248.0742 456.436 248.9263 456.1624C 249.4314 456.0003 249.7632 455.6312 250.0082 455.1815C 250.1794 454.8672 250.3505 454.553 250.5217 454.2387C 251.1009 453.1754 251.6802 452.1121 252.2587 451.0501C 252.6962 450.2469 253.1338 449.4437 253.5713 448.6404C 253.5942 448.5984 253.6178 448.5551 253.6407 448.5131C 253.8783 448.0769 254.5539 448.4449 254.3217 448.8841C 253.7887 449.8918 254.3341 451.183 255.464 451.4595C 256.0844 451.6113 256.7458 451.4183 257.1818 450.9585C 257.4217 450.7062 257.5708 450.3676 257.7353 450.0656C 257.9028 449.7581 258.0696 449.452 258.2371 449.1445C 258.4746 448.7083 259.1503 449.0764 258.9181 449.5155C 258.3843 450.5245 258.9327 451.8104 260.0625 452.0903C 260.6808 452.2427 261.3451 452.0478 261.7803 451.5893C 262.0151 451.343 262.1583 451.0153 262.3192 450.72C 262.4881 450.4098 262.6571 450.0996 262.8261 449.7894C 263.0637 449.3533 263.7393 449.7213 263.5071 450.1604C 263.0968 450.9364 263.3043 451.9399 264.0388 452.456C 264.9116 453.0684 266.119 452.7812 266.6359 451.8648C 267.6025 450.0903 268.5684 448.3172 269.535 446.5428C 270.0301 445.6339 270.5259 444.7237 271.021 443.8148C 271.4614 443.0096 271.9213 442.2009 272.1511 441.3091zM271.1338 445.2322C 270.1141 447.1042 269.0951 448.9748 268.0754 450.8468C 267.8238 451.3087 267.5714 451.7719 267.3198 452.2338C 266.7617 453.2226 265.6002 453.7597 264.4785 453.4842C 263.5941 453.2659 262.8982 452.5882 262.6358 451.7374C 262.5166 451.9236 262.3798 452.1003 262.2112 452.2508C 261.5856 452.8059 260.712 453.0413 259.8909 452.8399C 259.1729 452.6631 258.5307 452.1657 258.2067 451.4992C 258.1424 451.3676 258.0907 451.2323 258.0495 451.0939C 257.9274 451.2856 257.7883 451.4663 257.6154 451.6215C 256.9963 452.1713 256.1407 452.406 255.3247 452.218C 254.594 452.0483 253.9395 451.5442 253.6109 450.8699C 253.5492 450.7432 253.4988 450.6121 253.4581 450.4792C 253.4138 450.5605 253.3703 450.6404 253.326 450.7217C 252.7202 451.8338 252.1144 452.9459 251.5094 454.0566C 251.2851 454.4684 251.0615 454.8788 250.8372 455.2906C 250.6904 455.5602 250.5533 455.828 250.3643 456.0711C 249.6721 456.9657 248.4165 457.2408 247.383 456.8165C 246.4848 456.4485 245.8736 455.557 245.8193 454.5964C 245.7773 453.8499 246.119 453.2614 246.457 452.6411C 246.868 451.8866 247.2797 451.1308 247.6907 450.3763C 248.2788 449.2967 248.8669 448.2171 249.4542 447.1389C 250.0762 445.997 250.6982 444.8552 251.321 443.7119C 251.8345 442.7692 252.3474 441.8278 252.8609 440.885C 253.0343 440.5667 253.2037 440.2427 253.3771 439.9244C 252.8082 439.9377 252.2379 439.9502 251.6698 439.9621C 251.3624 439.9686 251.0544 439.9764 250.7457 439.9822C 250.2413 439.9937 249.7254 440.0394 249.2384 439.8795C 248.2858 439.5661 247.6194 438.7693 247.5115 437.7742C 247.425 436.9894 247.7504 436.1585 248.3457 435.6396C 248.8061 435.2388 249.3483 435.0897 249.9195 434.9231C 250.9064 434.6352 251.8955 434.3467 252.8825 434.0588C 254.9489 433.4561 257.0132 432.8539 259.0796 432.2512C 259.5941 432.1011 260.1064 431.9516 260.6209 431.8015C 261.0493 431.6766 261.4767 431.5212 261.9149 431.4332C 262.3685 431.343 262.8051 431.3683 263.2431 431.5209C 263.727 431.6896 264.1785 431.9373 264.6436 432.1503C 265.6216 432.5987 266.5943 433.0601 267.5663 433.5228C 268.5021 433.9676 269.446 434.4009 270.2971 434.998C 271.1149 435.5718 271.823 436.2596 272.3071 437.1381C 272.7421 437.9283 272.9981 438.8073 273.0642 439.704C 273.1366 440.6866 272.9325 441.6223 272.5513 442.523C 272.1481 443.4609 271.6186 444.3423 271.1338 445.2322z" stroke="none" fill="#000000" fill-rule="nonzero" /></g></g></g></g></g><g clip-path="url(#23)"><g clip-path="url(#24)"><g clip-path="url(#25)"><g clip-path="url(#26)"><g clip-path="url(#27)"><path id="18" transform="matrix(1 0 0 -1 0 842)" d="M252.173 311.546C 251.9301 311.8265 251.9619 312.2513 252.2443 312.4948L252.2443 312.4948L254.7035 314.6177C 254.9859 314.8612 255.4119 314.8315 255.6548 314.551C 255.8976 314.2705 255.8659 313.8457 255.5834 313.6023L255.5834 313.6023L253.1242 311.4793C 252.8425 311.2345 252.4158 311.2655 252.173 311.546zM248.6247 313.2965C 248.2524 313.3185 247.9702 313.6355 247.994 314.0068L247.994 314.0068L248.2003 317.237C 248.2242 317.6083 248.5435 317.8911 248.9158 317.8691C 249.2881 317.8471 249.5703 317.5301 249.5465 317.1588L249.5465 317.1588L249.3415 313.9294C 249.3177 313.558 248.997 313.2745 248.6247 313.2965zM244.2413 304.4466C 244.4842 304.1662 244.4525 303.7413 244.17 303.4979L244.17 303.4979L241.7108 301.3749C 241.4284 301.1315 241.0024 301.1612 240.7596 301.4416C 240.5167 301.7221 240.5484 302.1469 240.8309 302.3904L240.8309 302.3904L243.2901 304.5133C 243.5725 304.7568 243.9985 304.7271 244.2413 304.4466zM242.8481 308.3371C 242.8242 307.9658 242.5049 307.6829 242.1326 307.7049L242.1326 307.7049L238.8923 307.8948C 238.5199 307.9168 238.2377 308.2338 238.2616 308.6051C 238.2854 308.9764 238.6047 309.2592 238.977 309.2372L238.977 309.2372L242.2153 309.048C 242.5889 309.0267 242.8705 308.7076 242.8481 308.3371zM244.7339 311.9762C 244.4514 311.7328 244.0255 311.7625 243.7826 312.0429L243.7826 312.0429L241.666 314.4855C 241.4232 314.766 241.4549 315.1908 241.7374 315.4342C 242.0199 315.6777 242.4458 315.648 242.6887 315.3675L242.6887 315.3675L244.8066 312.9257C 245.0481 312.6445 245.0163 312.2197 244.7339 311.9762zM272.1511 294.8221C 272.5666 293.213 272.0979 291.3628 270.9838 290.1201C 270.3431 289.4057 269.5139 288.882 268.6709 288.4386C 267.7776 287.9677 266.8511 287.5544 265.9377 287.1236C 265.4742 286.9045 265.0099 286.6867 264.5455 286.4724C 264.1064 286.2701 263.6743 286.0452 263.2299 285.8558C 262.8758 285.7051 262.5112 285.6189 262.1275 285.6909C 261.7145 285.7681 261.3102 285.9202 260.907 286.0378C 258.9456 286.61 256.9843 287.1821 255.0229 287.7542C 253.2778 288.2632 251.5327 288.7722 249.7876 289.2813C 249.5566 289.3487 249.3321 289.4108 249.1227 289.5356C 248.8448 289.7021 248.6206 289.9418 248.4684 290.2278C 248.1446 290.8383 248.2015 291.658 248.6893 292.1731C 248.9813 292.4832 249.372 292.6837 249.7953 292.7334C 250.0142 292.7596 250.2451 292.7378 250.465 292.7329C 250.6884 292.7281 250.9118 292.7233 251.1359 292.7172C 252.0281 292.6974 252.919 292.6768 253.8112 292.6569C 253.8826 292.6554 253.9541 292.654 254.0255 292.6525C 254.319 292.6455 254.5185 292.9667 254.3783 293.2241C 254.199 293.5532 254.0197 293.8824 253.8404 294.2115C 253.3903 295.0378 252.9395 295.8654 252.4894 296.6917C 251.8991 297.7753 251.3081 298.8603 250.7178 299.9439C 250.1179 301.0452 249.518 302.1464 248.9189 303.2463C 248.4429 304.12 247.967 304.9937 247.4911 305.8673C 247.2646 306.2832 247.0367 306.6983 246.8115 307.1149C 246.5434 307.6135 246.506 308.2043 246.7453 308.7246C 247.1227 309.5397 248.0742 309.9491 248.9263 309.6755C 249.4314 309.5134 249.7632 309.1443 250.0082 308.6946C 250.1794 308.3803 250.3505 308.0661 250.5217 307.7518C 251.1009 306.6885 251.6802 305.6252 252.2587 304.5632C 252.6962 303.76 253.1338 302.9568 253.5713 302.1535C 253.5942 302.1115 253.6178 302.0682 253.6407 302.0262C 253.8783 301.59 254.5539 301.958 254.3217 302.3972C 253.7887 303.4049 254.3341 304.6961 255.464 304.9726C 256.0844 305.1244 256.7458 304.9314 257.1818 304.4716C 257.4217 304.2193 257.5708 303.8807 257.7353 303.5787C 257.9028 303.2712 258.0696 302.9651 258.2371 302.6576C 258.4746 302.2214 259.1503 302.5894 258.9181 303.0286C 258.3843 304.0376 258.9327 305.3235 260.0625 305.6034C 260.6808 305.7558 261.3451 305.5609 261.7803 305.1024C 262.0151 304.8561 262.1583 304.5284 262.3192 304.2331C 262.4881 303.9229 262.6571 303.6127 262.8261 303.3026C 263.0637 302.8664 263.7393 303.2344 263.5071 303.6735C 263.0968 304.4495 263.3043 305.453 264.0388 305.9691C 264.9116 306.5815 266.119 306.2943 266.6359 305.3779C 267.6025 303.6034 268.5684 301.8303 269.535 300.0559C 270.0301 299.147 270.5259 298.2368 271.021 297.3279C 271.4614 296.5226 271.9213 295.714 272.1511 294.8221zM271.1338 298.7453C 270.1141 300.6173 269.0951 302.4879 268.0754 304.3599C 267.8238 304.8217 267.5714 305.285 267.3198 305.7469C 266.7617 306.7357 265.6002 307.2728 264.4785 306.9973C 263.5941 306.779 262.8982 306.1013 262.6358 305.2505C 262.5166 305.4367 262.3798 305.6133 262.2112 305.7639C 261.5856 306.319 260.712 306.5544 259.8909 306.353C 259.1729 306.1762 258.5307 305.6788 258.2067 305.0123C 258.1424 304.8806 258.0907 304.7454 258.0495 304.607C 257.9274 304.7987 257.7883 304.9794 257.6154 305.1346C 256.9963 305.6844 256.1407 305.9191 255.3247 305.731C 254.594 305.5614 253.9395 305.0573 253.6109 304.383C 253.5492 304.2563 253.4988 304.1252 253.4581 303.9923C 253.4138 304.0736 253.3703 304.1535 253.326 304.2348C 252.7202 305.3469 252.1144 306.459 251.5094 307.5697C 251.2851 307.9815 251.0615 308.3919 250.8372 308.8037C 250.6904 309.0732 250.5533 309.3411 250.3643 309.5842C 249.6721 310.4788 248.4165 310.7539 247.383 310.3297C 246.4848 309.9616 245.8736 309.0701 245.8193 308.1095C 245.7773 307.363 246.119 306.7745 246.457 306.1542C 246.868 305.3997 247.2797 304.6439 247.6907 303.8894C 248.2788 302.8098 248.8669 301.7302 249.4542 300.652C 250.0762 299.5101 250.6982 298.3683 251.321 297.225C 251.8345 296.2823 252.3474 295.3409 252.8609 294.3981C 253.0343 294.0798 253.2037 293.7558 253.3771 293.4375C 252.8082 293.4507 252.2379 293.4633 251.6698 293.4752C 251.3624 293.4817 251.0544 293.4895 250.7457 293.4953C 250.2413 293.5068 249.7254 293.5525 249.2384 293.3926C 248.2858 293.0792 247.6194 292.2823 247.5115 291.2873C 247.425 290.5025 247.7504 289.6716 248.3457 289.1527C 248.8061 288.7519 249.3483 288.6028 249.9195 288.4362C 250.9064 288.1483 251.8955 287.8598 252.8825 287.5719C 254.9489 286.9691 257.0132 286.367 259.0796 285.7643C 259.5941 285.6142 260.1064 285.4647 260.6209 285.3146C 261.0493 285.1897 261.4767 285.0343 261.9149 284.9463C 262.3685 284.8561 262.8051 284.8814 263.2431 285.034C 263.727 285.2027 264.1785 285.4504 264.6436 285.6634C 265.6216 286.1118 266.5943 286.5732 267.5663 287.0359C 268.5021 287.4807 269.446 287.914 270.2971 288.5111C 271.1149 289.0849 271.823 289.7727 272.3071 290.6512C 272.7421 291.4414 272.9981 292.3204 273.0642 293.2171C 273.1366 294.1997 272.9325 295.1354 272.5513 296.0361C 272.1481 296.974 271.6186 297.8553 271.1338 298.7453z" stroke="none" fill="#000000" fill-rule="nonzero" /></g></g></g></g></g><g clip-path="url(#28)"><g clip-path="url(#29)"><g clip-path="url(#30)"><g clip-path="url(#31)"><path id="19" transform="matrix(1 0 0 -1 0 842)" d="M308.7726 497.2469L451.4631 497.2469L451.4631 447.8168L308.7726 447.8168z" stroke="none" fill="#7ED957" fill-rule="nonzero" /></g></g></g></g><g clip-path="url(#32)"></g><g clip-path="url(#33)"><g clip-path="url(#34)"><g clip-path="url(#35)"><g clip-path="url(#36)"><g clip-path="url(#37)"><path id="25" transform="matrix(1 0 0 -1 0 842)" d="M448.4798 455.4312C 448.237 455.7116 448.2688 456.1364 448.5512 456.3799L448.5512 456.3799L451.0104 458.5028C 451.2929 458.7462 451.7188 458.7166 451.9617 458.4361C 452.2045 458.1556 452.1728 457.7309 451.8903 457.4874L451.8903 457.4874L449.4311 455.3645C 449.1494 455.1197 448.7227 455.1507 448.4798 455.4312zM444.9317 457.1814C 444.5594 457.2034 444.2773 457.5204 444.3011 457.8917L444.3011 457.8917L444.5075 461.1216C 444.5314 461.4929 444.8507 461.7757 445.223 461.7537C 445.5953 461.7317 445.8775 461.4147 445.8536 461.0434L445.8536 461.0434L445.6486 457.8142C 445.6247 457.443 445.304 457.1594 444.9317 457.1814zM440.5481 448.332C 440.791 448.0516 440.7592 447.6268 440.4767 447.3833L440.4767 447.3833L438.0175 445.2604C 437.7351 445.017 437.3091 445.0466 437.0663 445.3271C 436.8234 445.6075 436.8552 446.0323 437.1377 446.2758L437.1377 446.2758L439.5969 448.3987C 439.8793 448.6421 440.3053 448.6125 440.5481 448.332zM439.155 452.2221C 439.1312 451.8508 438.8119 451.568 438.4395 451.59L438.4395 451.59L435.1993 451.7797C 434.827 451.8017 434.5448 452.1187 434.5686 452.49C 434.5925 452.8612 434.9118 453.144 435.2841 453.122L435.2841 453.122L438.5222 452.933C 438.8959 452.9117 439.1775 452.5927 439.155 452.2221zM441.0409 455.8611C 440.7585 455.6176 440.3325 455.6473 440.0897 455.9277L440.0897 455.9277L437.9733 458.3701C 437.7304 458.6505 437.7622 459.0753 438.0446 459.3187C 438.3271 459.5622 438.7531 459.5325 438.9959 459.252L438.9959 459.252L441.1137 456.8105C 441.3552 456.5293 441.3234 456.1045 441.0409 455.8611zM468.4568 438.7093C 468.8723 437.1003 468.4035 435.2502 467.2894 434.0075C 466.6488 433.2932 465.8195 432.7695 464.9766 432.3261C 464.0832 431.8552 463.1567 431.4419 462.2433 431.011C 461.7798 430.7919 461.3156 430.5742 460.8512 430.3599C 460.4121 430.1575 459.9799 429.9327 459.5356 429.7433C 459.1814 429.5925 458.8168 429.5063 458.4332 429.5783C 458.0202 429.6555 457.6159 429.8076 457.2127 429.9252C 455.2514 430.4972 453.2901 431.0692 451.3288 431.6412C 449.5837 432.1501 447.8387 432.659 446.0937 433.168C 445.8627 433.2353 445.6381 433.2974 445.4288 433.4222C 445.1509 433.5887 444.9267 433.8284 444.7745 434.1143C 444.4508 434.7248 444.5077 435.5444 444.9955 436.0595C 445.2875 436.3697 445.6782 436.5702 446.1015 436.6199C 446.3204 436.646 446.5513 436.6243 446.7712 436.6194C 446.9946 436.6146 447.218 436.6098 447.4421 436.6037C 448.3343 436.5839 449.2251 436.5633 450.1173 436.5435C 450.1887 436.542 450.2602 436.5406 450.3316 436.5391C 450.6251 436.5321 450.8246 436.8533 450.6844 437.1106C 450.5052 437.4398 450.3259 437.7689 450.1466 438.098C 449.6965 438.9242 449.2457 439.7517 448.7957 440.5779C 448.2054 441.6615 447.6144 442.7463 447.0242 443.8299C 446.4244 444.931 445.8246 446.0322 445.2255 447.1319C 444.7496 448.0055 444.2737 448.8791 443.7979 449.7527C 443.5713 450.1685 443.3435 450.5836 443.1183 451.0002C 442.8503 451.4987 442.8128 452.0895 443.0522 452.6098C 443.4296 453.4248 444.3811 453.8343 445.2331 453.5607C 445.7383 453.3986 446.07 453.0295 446.315 452.5799C 446.4861 452.2657 446.6573 451.9514 446.8285 451.6372C 447.4077 450.574 447.9868 449.5108 448.5652 448.4489C 449.0028 447.6458 449.4403 446.8426 449.8778 446.0394C 449.9007 445.9974 449.9243 445.9541 449.9471 445.9121C 450.1847 445.476 450.8603 445.844 450.6282 446.2831C 450.0952 447.2907 450.6407 448.5819 451.7706 448.8584C 452.3909 449.0102 453.0524 448.8172 453.4883 448.3575C 453.7281 448.1052 453.8772 447.7667 454.0417 447.4646C 454.2092 447.1572 454.376 446.8511 454.5435 446.5436C 454.781 446.1075 455.4566 446.4756 455.2245 446.9146C 454.6908 447.9236 455.2392 449.2094 456.369 449.4893C 456.9872 449.6417 457.6515 449.4468 458.0867 448.9884C 458.3215 448.7422 458.4647 448.4145 458.6255 448.1192C 458.7945 447.8091 458.9634 447.4989 459.1324 447.1887C 459.37 446.7526 460.0456 447.1206 459.8134 447.5597C 459.4032 448.3356 459.6107 449.3391 460.3453 449.8551C 461.218 450.4676 462.4254 450.1804 462.9422 449.2641C 463.9088 447.4898 464.8745 445.7169 465.841 443.9426C 466.3361 443.0338 466.8319 442.1236 467.327 441.2148C 467.7673 440.4096 468.2272 439.6011 468.4568 438.7093zM467.4398 442.6321C 466.4202 444.5039 465.4012 446.3744 464.3816 448.2462C 464.13 448.708 463.8777 449.1712 463.6261 449.6331C 463.0681 450.6218 461.9066 451.1588 460.7849 450.8832C 459.9006 450.6649 459.2047 449.9873 458.9422 449.1365C 458.8231 449.3228 458.6862 449.4994 458.5177 449.6499C 457.8921 450.2049 457.0185 450.4403 456.1974 450.2389C 455.4794 450.0621 454.8372 449.5647 454.5132 448.8982C 454.4489 448.7665 454.3972 448.6313 454.356 448.4929C 454.2339 448.6846 454.0948 448.8652 453.922 449.0205C 453.3028 449.5702 452.4473 449.8049 451.6313 449.6168C 450.9006 449.4471 450.2461 448.943 449.9175 448.2687C 449.8558 448.142 449.8053 448.0109 449.7646 447.8781C 449.7204 447.9594 449.6768 448.0393 449.6326 448.1205C 449.0269 449.2325 448.4211 450.3445 447.8161 451.4551C 447.5918 451.8669 447.3683 452.2773 447.144 452.689C 446.9972 452.9585 446.8601 453.2263 446.6712 453.4694C 445.979 454.364 444.7235 454.639 443.6899 454.2147C 442.7918 453.8466 442.1805 452.9552 442.1262 451.9947C 442.0841 451.2482 442.4259 450.6598 442.7638 450.0395C 443.1747 449.2851 443.5864 448.5293 443.9974 447.7749C 444.5854 446.6954 445.1734 445.616 445.7607 444.5379C 446.3827 443.3961 447.0046 442.2543 447.6273 441.1112C 448.1408 440.1685 448.6536 439.2272 449.1671 438.2845C 449.3405 437.9662 449.5099 437.6423 449.6833 437.324C 449.1144 437.3372 448.5441 437.3498 447.976 437.3617C 447.6686 437.3681 447.3606 437.3759 447.0519 437.3817C 446.5475 437.3932 446.0316 437.4388 445.5446 437.279C 444.592 436.9655 443.9257 436.1687 443.8177 435.1738C 443.7311 434.389 444.0566 433.5582 444.6518 433.0394C 445.1121 432.6385 445.6543 432.4895 446.2255 432.3229C 447.2124 432.0351 448.2015 431.7466 449.1884 431.4588C 451.2548 430.8562 453.319 430.2542 455.3853 429.6516C 455.8997 429.5015 456.4121 429.3521 456.9266 429.202C 457.355 429.0771 457.7823 428.9217 458.2206 428.8338C 458.6741 428.7436 459.1107 428.769 459.5487 428.9215C 460.0326 429.0902 460.4841 429.3379 460.9492 429.5509C 461.9272 429.9993 462.8999 430.4607 463.8719 430.9234C 464.8077 431.3682 465.7516 431.8016 466.6026 432.3987C 467.4205 432.9724 468.1286 433.6602 468.6127 434.5386C 469.0478 435.3289 469.3038 436.2077 469.37 437.1044C 469.4423 438.0869 469.2383 439.0226 468.8571 439.9232C 468.454 440.861 467.9245 441.7423 467.4398 442.6321z" stroke="none" fill="#000000" fill-rule="nonzero" /></g></g></g></g></g><g clip-path="url(#38)"><g clip-path="url(#39)"><g clip-path="url(#40)"><g clip-path="url(#41)"><path id="26" transform="matrix(1 0 0 -1 0 842)" d="M308.7726 357.4519L451.3258 357.4519L451.3258 311.1402L308.7726 311.1402z" stroke="none" fill="#7ED957" fill-rule="nonzero" /></g></g></g></g><g clip-path="url(#42)"></g><g clip-path="url(#43)"><g clip-path="url(#44)"><g clip-path="url(#45)"><g clip-path="url(#46)"><g clip-path="url(#47)"><path id="32" transform="matrix(1 0 0 -1 0 842)" d="M448.4798 321.222C 448.237 321.5025 448.2688 321.9273 448.5512 322.1707L448.5512 322.1707L451.0104 324.2936C 451.2929 324.5371 451.7188 324.5074 451.9617 324.227C 452.2045 323.9465 452.1728 323.5217 451.8903 323.2783L451.8903 323.2783L449.4311 321.1554C 449.1494 320.9106 448.7227 320.9416 448.4798 321.222zM444.9317 322.9723C 444.5594 322.9943 444.2773 323.3112 444.3011 323.6825L444.3011 323.6825L444.5075 326.9124C 444.5314 327.2837 444.8507 327.5666 445.223 327.5446C 445.5953 327.5226 445.8775 327.2056 445.8536 326.8343L445.8536 326.8343L445.6486 323.6051C 445.6247 323.2338 445.304 322.9503 444.9317 322.9723zM440.5481 314.1229C 440.791 313.8424 440.7592 313.4176 440.4767 313.1742L440.4767 313.1742L438.0175 311.0513C 437.7351 310.8078 437.3091 310.8375 437.0663 311.118C 436.8234 311.3984 436.8552 311.8232 437.1377 312.0666L437.1377 312.0666L439.5969 314.1895C 439.8793 314.433 440.3053 314.4033 440.5481 314.1229zM439.155 318.013C 439.1312 317.6417 438.8119 317.3589 438.4395 317.3809L438.4395 317.3809L435.1993 317.5706C 434.827 317.5926 434.5448 317.9095 434.5686 318.2808C 434.5925 318.6521 434.9118 318.9349 435.2841 318.9129L435.2841 318.9129L438.5222 318.7238C 438.8959 318.7026 439.1775 318.3835 439.155 318.013zM441.0409 321.6519C 440.7585 321.4085 440.3325 321.4382 440.0897 321.7186L440.0897 321.7186L437.9733 324.1609C 437.7304 324.4413 437.7622 324.8661 438.0446 325.1096C 438.3271 325.353 438.7531 325.3234 438.9959 325.0429L438.9959 325.0429L441.1137 322.6013C 441.3552 322.3202 441.3234 321.8954 441.0409 321.6519zM468.4568 304.5002C 468.8723 302.8911 468.4035 301.041 467.2894 299.7983C 466.6488 299.084 465.8195 298.5603 464.9766 298.1169C 464.0832 297.6461 463.1567 297.2327 462.2433 296.8019C 461.7798 296.5828 461.3156 296.365 460.8512 296.1507C 460.4121 295.9484 459.9799 295.7235 459.5356 295.5341C 459.1814 295.3834 458.8168 295.2972 458.4332 295.3692C 458.0202 295.4464 457.6159 295.5984 457.2127 295.716C 455.2514 296.288 453.2901 296.86 451.3288 297.432C 449.5837 297.941 447.8387 298.4499 446.0937 298.9588C 445.8627 299.0262 445.6381 299.0883 445.4288 299.2131C 445.1509 299.3796 444.9267 299.6193 444.7745 299.9052C 444.4508 300.5157 444.5077 301.3353 444.9955 301.8504C 445.2875 302.1605 445.6782 302.361 446.1015 302.4107C 446.3204 302.4369 446.5513 302.4151 446.7712 302.4102C 446.9946 302.4055 447.218 302.4007 447.4421 302.3946C 448.3343 302.3747 449.2251 302.3542 450.1173 302.3344C 450.1887 302.3329 450.2602 302.3314 450.3316 302.33C 450.6251 302.323 450.8246 302.6441 450.6844 302.9015C 450.5052 303.2306 450.3259 303.5597 450.1466 303.8889C 449.6965 304.7151 449.2457 305.5426 448.7957 306.3688C 448.2054 307.4523 447.6144 308.5372 447.0242 309.6207C 446.4244 310.7219 445.8246 311.823 445.2255 312.9228C 444.7496 313.7964 444.2737 314.67 443.7979 315.5436C 443.5713 315.9594 443.3435 316.3745 443.1183 316.791C 442.8503 317.2896 442.8128 317.8804 443.0522 318.4007C 443.4296 319.2157 444.3811 319.6251 445.2331 319.3516C 445.7383 319.1895 446.07 318.8204 446.315 318.3708C 446.4861 318.0565 446.6573 317.7423 446.8285 317.4281C 447.4077 316.3649 447.9868 315.3016 448.5652 314.2398C 449.0028 313.4366 449.4403 312.6335 449.8778 311.8303C 449.9007 311.7883 449.9243 311.745 449.9471 311.703C 450.1847 311.2668 450.8603 311.6349 450.6282 312.074C 450.0952 313.0815 450.6407 314.3727 451.7706 314.6493C 452.3909 314.801 453.0524 314.6081 453.4883 314.1483C 453.7281 313.8961 453.8772 313.5575 454.0417 313.2555C 454.2092 312.9481 454.376 312.642 454.5435 312.3345C 454.781 311.8984 455.4566 312.2664 455.2245 312.7055C 454.6908 313.7144 455.2392 315.0002 456.369 315.2802C 456.9872 315.4326 457.6515 315.2377 458.0867 314.7792C 458.3215 314.5331 458.4647 314.2053 458.6255 313.9101C 458.7945 313.5999 458.9634 313.2897 459.1324 312.9796C 459.37 312.5435 460.0456 312.9115 459.8134 313.3506C 459.4032 314.1264 459.6107 315.1299 460.3453 315.646C 461.218 316.2584 462.4254 315.9712 462.9422 315.0549C 463.9088 313.2806 464.8745 311.5077 465.841 309.7334C 466.3361 308.8246 466.8319 307.9145 467.327 307.0056C 467.7673 306.2005 468.2272 305.392 468.4568 304.5002zM467.4398 308.423C 466.4202 310.2948 465.4012 312.1652 464.3816 314.037C 464.13 314.4989 463.8777 314.9621 463.6261 315.424C 463.0681 316.4127 461.9066 316.9496 460.7849 316.6741C 459.9006 316.4558 459.2047 315.7781 458.9422 314.9273C 458.8231 315.1136 458.6862 315.2902 458.5177 315.4408C 457.8921 315.9957 457.0185 316.2312 456.1974 316.0298C 455.4794 315.8529 454.8372 315.3556 454.5132 314.689C 454.4489 314.5574 454.3972 314.4221 454.356 314.2838C 454.2339 314.4754 454.0948 314.6561 453.922 314.8113C 453.3028 315.361 452.4473 315.5957 451.6313 315.4076C 450.9006 315.2379 450.2461 314.7339 449.9175 314.0596C 449.8558 313.9329 449.8053 313.8018 449.7646 313.669C 449.7204 313.7502 449.6768 313.8302 449.6326 313.9114C 449.0269 315.0234 448.4211 316.1354 447.8161 317.246C 447.5918 317.6577 447.3683 318.0681 447.144 318.4799C 446.9972 318.7494 446.8601 319.0172 446.6712 319.2603C 445.979 320.1548 444.7235 320.4298 443.6899 320.0056C 442.7918 319.6375 442.1805 318.746 442.1262 317.7856C 442.0841 317.0391 442.4259 316.4507 442.7638 315.8304C 443.1747 315.076 443.5864 314.3202 443.9974 313.5658C 444.5854 312.4863 445.1734 311.4068 445.7607 310.3287C 446.3827 309.187 447.0046 308.0452 447.6273 306.9021C 448.1408 305.9594 448.6536 305.0181 449.1671 304.0754C 449.3405 303.7571 449.5099 303.4331 449.6833 303.1149C 449.1144 303.1281 448.5441 303.1406 447.976 303.1525C 447.6686 303.159 447.3606 303.1668 447.0519 303.1725C 446.5475 303.1841 446.0316 303.2297 445.5446 303.0698C 444.592 302.7564 443.9257 301.9596 443.8177 300.9646C 443.7311 300.1799 444.0566 299.349 444.6518 298.8302C 445.1121 298.4294 445.6543 298.2804 446.2255 298.1138C 447.2124 297.826 448.2015 297.5375 449.1884 297.2497C 451.2548 296.647 453.319 296.045 455.3853 295.4424C 455.8997 295.2924 456.4121 295.1429 456.9266 294.9929C 457.355 294.868 457.7823 294.7126 458.2206 294.6246C 458.6741 294.5345 459.1107 294.5598 459.5487 294.7123C 460.0326 294.8811 460.4841 295.1288 460.9492 295.3417C 461.9272 295.7902 462.8999 296.2516 463.8719 296.7143C 464.8077 297.1591 465.7516 297.5924 466.6026 298.1895C 467.4205 298.7633 468.1286 299.4511 468.6127 300.3295C 469.0478 301.1197 469.3038 301.9986 469.37 302.8952C 469.4423 303.8778 469.2383 304.8134 468.8571 305.7141C 468.454 306.6519 467.9245 307.5331 467.4398 308.423z" stroke="none" fill="#000000" fill-rule="nonzero" /></g></g></g></g></g><g clip-path="url(#48)"><g clip-path="url(#49)"><g clip-path="url(#50)"><g clip-path="url(#51)"><path id="33" transform="matrix(1 0 0 -1 0 842)" d="M44.57542 198.176L549.3486 198.176L549.3486 153.6934L44.57542 153.6934z" stroke="none" fill="#7ED957" fill-rule="nonzero" /></g></g></g></g><g clip-path="url(#52)"><path id="34" transform="matrix(1 0 0 -1 0 842)" d="M115.5756 808.493C 113.3234 810.7486 109.6717 810.7486 107.4191 808.493L107.4191 808.493L91.43373 792.4837C 86.71964 787.7627 80.32576 785.1105 73.6591 785.1105C 66.99245 785.1105 60.59858 787.7627 55.88448 792.4837L55.88448 792.4837L39.79447 808.5975C 37.54222 810.853 33.89054 810.853 31.63795 808.5975C 29.38569 806.3419 29.38569 802.6848 31.63795 800.4293L31.63795 800.4293L56.4535 775.5771L56.4535 775.5771L56.4535 703.5491C 56.4535 699.4673 59.75747 696.1581 63.8335 696.1581C 67.90917 696.1581 71.21349 699.467 71.21349 703.5491L71.21349 703.5491L71.21349 736.5459C 71.21349 737.6614 72.12503 738.6085 73.23856 738.5878C 74.31859 738.5674 75.18766 737.6846 75.18766 736.5981L75.18766 736.5981L75.18766 703.5494C 75.18766 699.4677 78.49163 696.1585 82.56765 696.1585C 86.64333 696.1585 89.94765 699.4673 89.94765 703.5494L89.94765 703.5494L89.94765 774.6587L89.94765 774.6587L115.576 800.3248C 117.8279 802.5804 117.8279 806.2375 115.5756 808.493z" stroke="none" fill="#231F20" fill-rule="nonzero" /><path id="35" transform="matrix(1 0 0 -1 0 842)" d="M82.26273 809.7381C 82.83113 809.1689 83.33863 808.5496 83.78522 807.8802C 84.23183 807.2109 84.60893 806.5043 84.91656 805.7606C 85.22419 805.0169 85.45643 804.2502 85.61325 803.4607C 85.77009 802.6711 85.84852 801.8738 85.84853 801.0688C 85.84855 800.2638 85.77015 799.4666 85.61334 798.677C 85.45654 797.8875 85.22433 797.1208 84.91673 796.377C 84.60913 795.6333 84.23204 794.9267 83.78546 794.2574C 83.3389 793.588 82.83141 792.9687 82.26303 792.3995C 81.69464 791.8302 81.07626 791.322 80.40791 790.8747C 79.73956 790.4274 79.03405 790.0498 78.2914 789.7417C 77.54877 789.4336 76.78325 789.201 75.99487 789.0439C 75.20648 788.8869 74.41037 788.8083 73.60654 788.8083C 72.8027 788.8083 72.00658 788.8868 71.21819 789.0439C 70.42979 789.2009 69.66427 789.4335 68.92162 789.7415C 68.17897 790.0496 67.47346 790.4272 66.80508 790.8745C 66.13671 791.3217 65.51833 791.83 64.94992 792.3992C 64.38151 792.9684 63.874 793.5876 63.42741 794.257C 62.98081 794.9263 62.60369 795.6329 62.29607 796.3766C 61.98843 797.1204 61.75621 797.887 61.59937 798.6766C 61.44254 799.4661 61.36412 800.2634 61.36411 801.0684C 61.36409 801.8734 61.44248 802.6707 61.59928 803.4603C 61.75609 804.2498 61.9883 805.0165 62.2959 805.7603C 62.6035 806.504 62.98059 807.2105 63.42717 807.8799C 63.87374 808.5493 64.38123 809.1686 64.94962 809.7378C 65.51801 810.3071 66.13638 810.8153 66.80473 811.2626C 67.47308 811.7098 68.17859 812.0875 68.92123 812.3956C 69.66386 812.7036 70.42938 812.9362 71.21777 813.0933C 72.00616 813.2504 72.80227 813.3289 73.6061 813.3289C 74.40993 813.3289 75.20605 813.2504 75.99445 813.0934C 76.78284 812.9363 77.54836 812.7038 78.29102 812.3957C 79.03365 812.0876 79.73917 811.71 80.40755 811.2628C 81.07593 810.8156 81.69432 810.3073 82.26273 809.7381z" stroke="none" fill="#231F20" fill-rule="nonzero" /><path id="36" transform="matrix(1 0 0 -1 0 842)" d="M115.8678 764.7992L115.8678 764.8027L115.8678 764.8027L114.1838 764.8027L114.1838 764.8027L107.8624 764.8027L107.8624 764.8027L93.76194 764.8027L93.76194 764.8027L93.76194 746.2L93.76194 746.2L93.76194 738.7614L93.76194 738.7614L93.76194 734.1973L93.76194 734.1973L93.76194 732.2678L93.76194 732.2678L93.76194 702.7471C 93.76194 700.5092 95.57327 698.6952 97.80791 698.6952C 100.0422 698.6952 101.8539 700.5092 101.8539 702.7471L101.8539 702.7471L101.8539 730.0855C 101.8539 731.2284 102.7309 732.2118 103.8707 732.2654C 105.0878 732.3228 106.0922 731.3514 106.0922 730.1453L106.0922 730.1453L106.0922 702.8315C 106.0922 700.6237 107.8207 698.7574 110.0242 698.697C 112.3107 698.634 114.1838 700.4716 114.1838 702.7471L114.1838 702.7471L114.1838 732.2678L114.1838 732.2678L114.1838 734.1973L114.1838 734.1973L114.1838 738.7614L114.1838 738.7614L114.1838 746.2L114.1838 746.2L114.1838 754.7499C 114.1838 755.1763 114.5287 755.5217 114.9545 755.5217C 115.3802 755.5217 115.7251 755.1763 115.7251 754.7499L115.7251 754.7499L115.7251 739.214C 115.7251 737.2959 117.2779 735.7409 119.1931 735.7409C 121.1084 735.7409 122.6611 737.2959 122.6611 739.214L122.6611 739.214L122.6611 757.8568C 122.6608 761.645 119.6323 764.7228 115.8678 764.7992z" stroke="none" fill="#231F20" fill-rule="nonzero" /><path id="37" transform="matrix(1 0 0 -1 0 842)" d="M109.0075 779.5069C 109.3697 779.144 109.6932 778.7494 109.9778 778.3228C 110.2625 777.8961 110.5028 777.4458 110.6989 776.9718C 110.895 776.4978 111.043 776.0092 111.1429 775.5059C 111.2429 775.0027 111.2929 774.4946 111.2929 773.9815C 111.2929 773.4684 111.2429 772.9603 111.143 772.457C 111.043 771.9538 110.895 771.4652 110.699 770.9911C 110.5029 770.5171 110.2626 770.0668 109.978 769.6401C 109.6933 769.2136 109.3699 768.8188 109.0076 768.4561C 108.6454 768.0932 108.2513 767.7693 107.8253 767.4842C 107.3993 767.1992 106.9496 766.9584 106.4763 766.7621C 106.003 766.5657 105.5151 766.4175 105.0126 766.3174C 104.5101 766.2173 104.0027 766.1672 103.4904 766.1672C 102.9781 766.1672 102.4707 766.2173 101.9682 766.3174C 101.4657 766.4174 100.9778 766.5657 100.5044 766.762C 100.0311 766.9583 99.58146 767.199 99.15547 767.4841C 98.72949 767.7691 98.33535 768.093 97.97308 768.4558C 97.61079 768.8187 97.28734 769.2133 97.0027 769.64C 96.71805 770.0665 96.47769 770.5168 96.28163 770.9909C 96.08556 771.4649 95.93755 771.9536 95.83759 772.4568C 95.73763 772.96 95.68765 773.4681 95.68764 773.9812C 95.68764 774.4943 95.7376 775.0024 95.83754 775.5057C 95.93748 776.0089 96.08547 776.4976 96.28152 776.9716C 96.47757 777.4456 96.71791 777.8959 97.00254 778.3225C 97.28717 778.7491 97.61062 779.1439 97.97289 779.5067C 98.33514 779.8695 98.72926 780.1934 99.15524 780.4785C 99.58121 780.7635 100.0309 781.0043 100.5042 781.2006C 100.9775 781.397 101.4654 781.5452 101.9679 781.6453C 102.4704 781.7454 102.9778 781.7955 103.4901 781.7955C 104.0024 781.7955 104.5099 781.7454 105.0123 781.6453C 105.5148 781.5453 106.0027 781.397 106.4761 781.2007C 106.9494 781.0044 107.399 780.7637 107.8251 780.4786C 108.251 780.1936 108.6452 779.8697 109.0075 779.5069z" stroke="none" fill="#231F20" fill-rule="nonzero" /><path id="38" transform="matrix(1 0 0 -1 0 842)" d="M32.1531 764.8027L30.46918 764.8027L30.46918 764.8027L30.46918 764.7992C 26.70494 764.7228 23.67616 761.645 23.67616 757.8568L23.67616 757.8568L23.67616 739.214C 23.67616 737.2959 25.22887 735.7409 27.14414 735.7409C 29.0594 735.7409 30.61212 737.2959 30.61212 739.214L30.61212 739.214L30.61212 754.7499C 30.61212 755.1763 30.95706 755.5217 31.38279 755.5217C 31.80852 755.5217 32.15345 755.1763 32.15345 754.7499L32.15345 754.7499L32.15345 746.2L32.15345 746.2L32.15345 738.7614L32.15345 738.7614L32.15345 734.1973L32.15345 734.1973L32.15345 732.2678L32.15345 732.2678L32.15345 702.7472C 32.15345 700.4716 34.02659 698.634 36.31303 698.697C 38.5166 698.7574 40.24506 700.6237 40.24506 702.8315L40.24506 702.8315L40.24506 730.1454C 40.24506 731.3514 41.24982 732.3228 42.46659 732.2654C 43.60636 732.2118 44.48336 731.2284 44.48336 730.0856L44.48336 730.0856L44.48336 702.7472C 44.48336 700.5092 46.2947 698.6953 48.52935 698.6953C 50.76365 698.6953 52.57533 700.5092 52.57533 702.7472L52.57533 702.7472L52.57533 732.2678L52.57533 732.2678L52.57533 734.1973L52.57533 734.1973L52.57533 738.7614L52.57533 738.7614L52.57533 746.2L52.57533 746.2L52.57533 764.8027L52.57533 764.8027L38.47447 764.8027L38.47447 764.8027L32.1531 764.8027z" stroke="none" fill="#231F20" fill-rule="nonzero" /><path id="39" transform="matrix(1 0 0 -1 0 842)" d="M48.36236 779.5072C 48.72464 779.1444 49.0481 778.7497 49.33274 778.3231C 49.61737 777.8965 49.85773 777.4462 50.05379 776.9721C 50.24987 776.4981 50.39788 776.0095 50.49783 775.5062C 50.59779 775.0031 50.64777 774.4949 50.64779 773.9818C 50.64779 773.4687 50.59783 772.9606 50.49788 772.4573C 50.39794 771.9541 50.24994 771.4655 50.05389 770.9915C 49.85785 770.5174 49.6175 770.0671 49.33288 769.6405C 49.04825 769.2139 48.72481 768.8192 48.36255 768.4564C 48.00029 768.0935 47.60617 767.7696 47.18019 767.4845C 46.7542 767.1995 46.30455 766.9587 45.83123 766.7624C 45.3579 766.566 44.87 766.4178 44.36751 766.3177C 43.86503 766.2176 43.35763 766.1675 42.8453 766.1675C 42.33297 766.1675 41.82557 766.2176 41.32309 766.3176C 40.8206 766.4177 40.33269 766.566 39.85936 766.7623C 39.38603 766.9586 38.93637 767.1993 38.51038 767.4844C 38.0844 767.7694 37.69026 768.0933 37.32798 768.4561C 36.96571 768.819 36.64225 769.2136 36.35761 769.6403C 36.07296 770.0668 35.83261 770.5172 35.63655 770.9912C 35.44048 771.4652 35.29246 771.9539 35.1925 772.4571C 35.09254 772.9603 35.04256 773.4684 35.04255 773.9815C 35.04254 774.4946 35.09251 775.0027 35.19245 775.506C 35.29239 776.0092 35.44039 776.4979 35.63644 776.9719C 35.83249 777.4459 36.07283 777.8962 36.35745 778.3228C 36.64208 778.7495 36.96553 779.1442 37.32779 779.507C 37.69005 779.8698 38.08417 780.1937 38.51015 780.4788C 38.93613 780.7639 39.38578 781.0046 39.85911 781.2009C 40.33243 781.3973 40.82034 781.5455 41.32282 781.6456C 41.8253 781.7457 42.33271 781.7958 42.84503 781.7958C 43.35736 781.7958 43.86477 781.7457 44.36725 781.6456C 44.86974 781.5456 45.35764 781.3973 45.83097 781.201C 46.30431 781.0047 46.75397 780.764 47.17995 780.4789C 47.60595 780.1939 48.00008 779.87 48.36236 779.5072z" stroke="none" fill="#231F20" fill-rule="nonzero" /></g><g clip-path="url(#53)"><path id="40" transform="matrix(1 0 0 -1 0 842)" d="M481.5425 98.67468L485.3743 98.67468C 486.7033 98.67468 488.0324 98.65746 489.3614 98.67468C 489.7057 98.67268 490.0373 98.7365 490.3561 98.86613C 490.675 98.99575 490.9569 99.18132 491.2019 99.42285C 491.4468 99.66437 491.6362 99.94348 491.77 100.2602C 491.9038 100.5769 491.9719 100.9071 491.9742 101.2508C 491.9764 101.5945 491.9128 101.9256 491.7832 102.244C 491.6537 102.5624 491.468 102.844 491.2263 103.0888C 490.9846 103.3335 490.7052 103.5228 490.388 103.6567C 490.0709 103.7905 489.7402 103.8587 489.3959 103.8613C 486.7551 103.8958 484.1143 103.8958 481.4908 103.8613C 481.1463 103.8579 480.8156 103.7888 480.4986 103.654C 480.1817 103.5192 479.9026 103.3291 479.6615 103.0835C 479.4203 102.8379 479.2354 102.5556 479.1068 102.2365C 478.9781 101.9175 478.9155 101.586 478.9189 101.2421C 478.9224 100.8983 478.9916 100.5681 479.1266 100.2517C 479.2616 99.93529 479.4521 99.65672 479.6981 99.41597C 479.9441 99.17522 480.2269 98.99063 480.5465 98.8622C 480.866 98.73376 481.1981 98.67126 481.5425 98.67468zM494.5913 115.8026C 494.9533 115.45 495.3849 115.2403 495.8862 115.1733C 496.3874 115.1064 496.8591 115.1955 497.3011 115.4407C 497.7817 115.6624 498.1721 115.9909 498.4721 116.4263C 498.7722 116.8617 498.9399 117.343 498.9754 117.8704C 498.7884 118.4519 498.518 118.9918 498.1642 119.4901C 496.2655 121.4717 494.3324 123.4016 492.3647 125.3143C 492.1233 125.5395 491.8484 125.7112 491.5398 125.8292C 491.2313 125.9473 490.9119 126.0031 490.5815 125.9967C 490.2512 125.9902 489.9342 125.922 489.6305 125.792C 489.3268 125.662 489.0588 125.4798 488.8264 125.2454C 488.5847 125.0263 488.3934 124.7698 488.2524 124.4759C 488.1115 124.182 488.0313 123.8724 488.012 123.5471C 487.9926 123.2219 488.0355 122.905 488.1406 122.5965C 488.2457 122.288 488.4052 122.0107 488.6192 121.7646C 490.5541 119.74 492.5563 117.7497 494.593 115.8112L494.593 115.8112L494.5913 115.8026zM577.1127 23.46005L577.1127 45.61089C 577.1404 46.4839 577.079 47.35065 576.9288 48.21111C 576.7785 49.07159 576.5424 49.9079 576.2203 50.72005C 575.8984 51.5322 575.4973 52.30331 575.0169 53.03338C 574.5366 53.76344 573.9871 54.43729 573.3685 55.05491C 572.7498 55.67254 572.0748 56.2211 571.3435 56.7006C 570.6122 57.18011 569.8398 57.58058 569.0263 57.90203C 568.2128 58.22349 567.3751 58.45922 566.5131 58.60924C 565.6512 58.75928 564.783 58.82047 563.9086 58.79284L563.9086 58.79284L549.4962 58.79284C 548.685 58.79284 547.8738 58.79284 547.0625 58.72391C 544.6809 58.51264 542.5291 57.69702 540.6072 56.27706L540.6072 56.27706L540.6072 61.46368C 540.5981 62.47906 540.4911 63.48406 540.2863 64.47868C 540.0814 65.47329 539.7825 66.4389 539.3896 67.37548C 538.9966 68.31208 538.5171 69.20213 537.9508 70.04562C 537.3845 70.88911 536.7422 71.67027 536.0237 72.38908C 535.3053 73.10788 534.5243 73.75089 533.6807 74.31808C 532.837 74.88528 531.9465 75.36604 531.0092 75.76039C 530.0719 76.15474 529.1053 76.45526 528.1095 76.66198C 527.1137 76.8687 526.1072 76.97773 525.0902 76.98908C 518.0135 77.00631 510.9368 77.00057 503.86 76.97185C 502.9738 76.96439 502.0945 76.88157 501.2225 76.72337C 500.3504 76.56517 499.4983 76.33392 498.666 76.02962C 497.8337 75.72531 497.0335 75.35239 496.2654 74.91089C 495.4972 74.46938 494.7724 73.96573 494.0909 73.39995C 493.4094 72.83418 492.7813 72.21454 492.2064 71.54105C 491.6315 70.86756 491.1183 70.15007 490.6668 69.3886C 490.2154 68.62712 489.8323 67.8328 489.5175 67.00564C 489.2026 66.17847 488.9608 65.33057 488.7918 64.46193C 488.5146 62.05736 488.3938 59.64497 488.4294 57.22478L488.4294 57.22478L488.4294 56.32875C 488.1705 56.46661 488.0669 56.5183 487.9633 56.58723C 485.6836 58.12111 483.1693 58.86205 480.4206 58.81007C 475.1217 58.7756 469.8228 58.84453 464.5239 58.7756C 463.5258 58.76987 462.5424 58.64725 461.5735 58.40771C 460.6047 58.16817 459.6776 57.81844 458.7921 57.3585C 457.9067 56.89855 457.0878 56.34126 456.3353 55.68663C 455.5828 55.032 454.9178 54.29832 454.3403 53.4856C 451.3716 49.59132 451.9412 27.62141 451.9584 23.14127L451.9584 23.14127L452.1828 23.14127C 452.1491 22.96014 452.1357 22.77755 452.1425 22.59346C 452.1494 22.40937 452.1764 22.22828 452.2235 22.05016C 452.2706 21.87206 452.3367 21.70126 452.4217 21.53777C 452.5067 21.37429 452.6087 21.22209 452.7276 21.08119C 452.8464 20.94027 452.9793 20.81408 453.1262 20.7026C 453.2731 20.59112 453.4304 20.49706 453.5982 20.42041C 453.766 20.34377 453.9402 20.28641 454.1207 20.24834C 454.3012 20.21025 454.4838 20.19238 454.6683 20.19471L454.6683 20.19471L574.6962 20.19471C 574.8945 20.19462 575.09 20.21747 575.283 20.26326C 575.4758 20.30904 575.6608 20.37653 575.8378 20.46572C 576.0147 20.55491 576.1789 20.66337 576.3304 20.7911C 576.4818 20.91882 576.6164 21.06234 576.734 21.22164C 576.8517 21.38094 576.9493 21.55167 577.0267 21.73387C 577.1042 21.91607 577.1594 22.10473 577.1924 22.29989C 577.2255 22.49505 577.2354 22.69137 577.2222 22.88885C 577.209 23.08633 577.1731 23.2796 577.1144 23.46866L577.1144 23.46866L577.1127 23.46005zM472.8261 63.97085C 473.6828 63.97256 474.5311 64.05772 475.371 64.22633C 476.2109 64.39496 477.0262 64.64379 477.817 64.97284C 478.6078 65.30189 479.3588 65.70482 480.07 66.18163C 480.7812 66.65845 481.439 67.19998 482.0433 67.80622C 482.6476 68.41246 483.1868 69.07175 483.6609 69.78409C 484.1351 70.49643 484.535 71.24812 484.8608 72.03915C 485.1865 72.83018 485.4318 73.64536 485.5966 74.48465C 485.7614 75.32394 485.8426 76.17122 485.8401 77.02649C 485.8377 77.88176 485.7516 78.72856 485.582 79.56689C 485.4124 80.40523 485.1624 81.21898 484.8321 82.00813C 484.5018 82.79728 484.0975 83.54665 483.6193 84.25626C 483.141 84.96587 482.598 85.62206 481.9902 86.22482C 481.3824 86.82758 480.7216 87.36533 480.0076 87.83804C 479.2937 88.31077 478.5404 88.70938 477.7477 89.03389C 476.9551 89.3584 476.1383 89.60254 475.2975 89.76634C 474.4566 89.93014 473.6078 90.01044 472.7511 90.00723C 471.8944 90.00401 471.0463 89.91736 470.2067 89.74727C 469.3671 89.57718 468.5522 89.32692 467.762 88.99648C 466.9718 88.66605 466.2215 88.2618 465.5111 87.78374C 464.8008 87.30567 464.144 86.76299 463.5407 86.15569C 462.9375 85.5484 462.3994 84.88817 461.9265 84.17499C 461.4536 83.46182 461.055 82.70944 460.7307 81.91783C 460.4063 81.12624 460.1624 80.31064 459.9991 79.47105C 459.8358 78.63147 459.7561 77.78404 459.7601 76.92879C 459.7659 76.07613 459.8547 75.23216 460.0265 74.3969C 460.1982 73.56163 460.4496 72.75098 460.7806 71.96493C 461.1116 71.17889 461.516 70.43245 461.9937 69.72562C 462.4714 69.01878 463.0134 68.36501 463.6195 67.76431C 464.2257 67.16362 464.8846 66.62745 465.5962 66.1558C 466.3077 65.68415 467.0584 65.28601 467.8482 64.96138C 468.638 64.63675 469.4518 64.39183 470.2898 64.2266C 471.1277 64.06137 471.9737 63.97899 472.8278 63.97945L472.8278 63.97945L472.8261 63.97085zM514.5615 122.0576C 514.9048 122.0621 515.2342 122.1321 515.5496 122.2674C 515.8651 122.4028 516.1426 122.5933 516.3821 122.8389C 516.6217 123.0845 516.805 123.3665 516.9321 123.6849C 517.0593 124.0034 517.1205 124.334 517.116 124.6767C 517.1332 127.3131 517.1505 129.9495 517.116 132.5686C 517.116 132.9114 517.0503 133.2411 516.9189 133.5578C 516.7875 133.8744 516.6004 134.1539 516.3577 134.3963C 516.1149 134.6387 515.8349 134.8254 515.5177 134.9566C 515.2005 135.0878 514.8702 135.1534 514.5269 135.1534C 514.1836 135.1534 513.8533 135.0878 513.5361 134.9566C 513.2189 134.8254 512.939 134.6387 512.6962 134.3963C 512.4534 134.1539 512.2664 133.8744 512.1349 133.5578C 512.0035 133.2411 511.9379 132.9114 511.9379 132.5686C 511.9206 131.9139 511.9206 131.2591 511.9206 130.6215L511.9206 130.6215L511.9206 128.6572C 511.9206 127.3648 511.9034 126.0552 511.9206 124.7456C 511.9063 124.3895 511.9633 124.0451 512.0916 123.7125C 512.22 123.3799 512.4091 123.0863 512.6592 122.8319C 512.9092 122.5774 513.1995 122.3829 513.5301 122.2483C 513.8607 122.1137 514.2045 122.0501 514.5615 122.0576zM514.268 82.2188C 514.7817 82.21081 515.2946 82.22806 515.8066 82.27054C 516.3187 82.31302 516.8273 82.38052 517.3327 82.47305C 517.8381 82.56558 518.3376 82.68269 518.8314 82.82437C 519.3253 82.96606 519.8109 83.13163 520.2883 83.32109C 520.7657 83.51056 521.2327 83.72299 521.6892 83.9584C 522.1457 84.19382 522.5895 84.45106 523.0206 84.73013C 523.4517 85.0092 523.8679 85.30875 524.2694 85.62878C 524.671 85.94882 525.0557 86.28778 525.4238 86.64567C 525.7918 87.00356 526.1414 87.37865 526.4724 87.77092C 526.8034 88.16321 527.1143 88.57079 527.4051 88.99365C 527.6959 89.41652 527.9651 89.85264 528.2129 90.302C 528.4606 90.75137 528.6856 91.2118 528.8879 91.6833C 529.0901 92.1548 529.2687 92.63509 529.4236 93.12416C 529.5784 93.61323 529.7089 94.10871 529.8148 94.61061C 529.9207 95.11252 530.0017 95.6184 530.0577 96.12827C 530.1137 96.63814 530.1445 97.14952 530.15 97.66241C 530.1555 98.17531 530.1358 98.68723 530.0908 99.19818C 530.0458 99.70914 529.9757 100.2166 529.8806 100.7207C 529.7855 101.2248 529.6658 101.7229 529.5214 102.2152C 529.3771 102.7075 529.209 103.1915 529.0169 103.6672C 528.8248 104.143 528.6097 104.6081 528.3718 105.0627C 528.1338 105.5173 527.874 105.9591 527.5923 106.3881C 527.3107 106.8171 527.0087 107.2312 526.6862 107.6305C 526.3636 108.0298 526.0223 108.4123 525.662 108.778C 525.3018 109.1437 524.9244 109.4909 524.5298 109.8194C 524.1353 110.148 523.7256 110.4564 523.3006 110.7447C 522.8756 111.0329 522.4375 111.2996 521.9861 111.5448C 521.5349 111.7899 521.0726 112.0123 520.5993 112.212C 520.126 112.4116 519.6441 112.5876 519.1534 112.7398C 518.6628 112.8921 518.1659 113.0199 517.6627 113.1232C 517.1594 113.2266 516.6523 113.305 516.1413 113.3584C 515.6303 113.4119 515.1179 113.4401 514.6041 113.4432C 514.0903 113.4462 513.5776 113.4241 513.066 113.3767C 512.5545 113.3293 512.0464 113.2569 511.542 113.1595C 511.0376 113.0621 510.5392 112.9402 510.0468 112.7938C 509.5544 112.6473 509.0703 112.4771 508.5948 112.2831C 508.1191 112.089 507.6542 111.8721 507.2001 111.6323C 506.7459 111.3925 506.3046 111.131 505.8762 110.8478C 505.4478 110.5646 505.0345 110.2611 504.636 109.9372C 504.2376 109.6133 503.8561 109.2707 503.4916 108.9093C 503.127 108.5478 502.7811 108.1694 502.4539 107.774C 502.1266 107.3785 501.8197 106.968 501.533 106.5423C 501.2463 106.1167 500.9813 105.678 500.7379 105.2263C 500.4945 104.7746 500.274 104.312 500.0763 103.8385C 499.8785 103.3651 499.7046 102.8831 499.5545 102.3926C 499.4043 101.9021 499.2787 101.4053 499.1776 100.9025C 499.0765 100.3996 499.0004 99.89293 498.9493 99.38254C 498.8983 98.87216 498.8724 98.3605 498.8719 97.84758C 498.8817 96.83511 498.9882 95.83287 499.1913 94.84086C 499.3944 93.84885 499.6905 92.88529 500.0794 91.95018C 500.4683 91.01506 500.943 90.12556 501.5034 89.28168C 502.0639 88.43779 502.6998 87.65501 503.4113 86.93333C 504.1227 86.21167 504.8965 85.56436 505.7327 84.99141C 506.5689 84.41846 507.4522 83.93038 508.3825 83.52718C 509.3129 83.12399 510.2732 82.81307 511.2635 82.59444C 512.2538 82.3758 513.2559 82.25346 514.2697 82.2274L514.2697 82.2274L514.268 82.2188zM543.1962 77.1011C 543.19 76.24585 543.2675 75.39822 543.4286 74.55821C 543.5897 73.7182 543.8314 72.90197 544.1536 72.10953C 544.4759 71.31708 544.8726 70.56364 545.3435 69.84924C 545.8145 69.13483 546.3508 68.47318 546.9525 67.8643C 547.5541 67.25541 548.2095 66.71101 548.9186 66.23106C 549.6277 65.75114 550.3769 65.34491 551.1662 65.01239C 551.9555 64.67987 552.7697 64.42746 553.6089 64.25515C 554.448 64.08284 555.2959 63.99395 556.1526 63.98848C 557.0093 63.98301 557.8583 64.06106 558.6995 64.22263C 559.5408 64.38419 560.3582 64.62618 561.1517 64.94859C 561.9452 65.271 562.6996 65.66762 563.4148 66.13845C 564.13 66.60928 564.7922 67.14527 565.4017 67.74642C 566.011 68.34757 566.5558 69.00231 567.0359 69.71065C 567.5161 70.41898 567.9223 71.16728 568.2547 71.95555C 568.587 72.74382 568.8392 73.5569 569.011 74.39478C 569.1829 75.23266 569.2712 76.07923 569.276 76.93448C 569.2807 77.78973 569.2018 78.63722 569.0392 79.47694C 568.8766 80.31667 568.6335 81.13248 568.3099 81.92436C 567.9863 82.71626 567.5883 83.46899 567.1161 84.18259C 566.6438 84.89618 566.1063 85.5569 565.5037 86.16473C 564.901 86.77258 564.2446 87.31584 563.5347 87.79454C 562.8248 88.27324 562.0748 88.67816 561.285 89.00931C 560.4951 89.34046 559.6804 89.59146 558.841 89.76231C 558.0016 89.93317 557.1535 90.02058 556.2968 90.02457C 555.4434 90.02519 554.5979 89.94327 553.7605 89.77881C 552.9231 89.61435 552.1096 89.37046 551.3199 89.04715C 550.5303 88.72384 549.7796 88.32722 549.0677 87.85732C 548.3558 87.38741 547.6962 86.8531 547.0889 86.25439C 546.4817 85.65569 545.9384 85.00393 545.4588 84.29912C 544.9792 83.59431 544.5726 82.84981 544.239 82.06561C 543.9053 81.2814 543.6509 80.47235 543.4757 79.63847C 543.3005 78.80458 543.2079 77.96167 543.1979 77.10971L543.1979 77.10971L543.1962 77.1011zM537.0516 101.3111C 537.0481 100.9619 537.1122 100.6256 537.244 100.3021C 537.3757 99.97865 537.5648 99.69305 537.8113 99.44534C 538.0578 99.19763 538.3427 99.00696 538.6658 98.87335C 538.989 98.73973 539.3254 98.67352 539.6752 98.67468C 542.2814 98.64022 544.8878 98.64022 547.5113 98.67468C 547.8636 98.66742 548.2033 98.72911 548.5305 98.85976C 548.8576 98.99041 549.1462 99.17964 549.3962 99.42746C 549.6464 99.67528 549.838 99.96199 549.9713 100.2876C 550.1046 100.6132 550.1688 100.9519 550.1642 101.3036C 550.1595 101.6554 550.0862 101.9922 549.9443 102.3142C 549.8024 102.6362 549.6031 102.9177 549.3466 103.1588C 549.09 103.3999 548.7965 103.5814 548.4659 103.7033C 548.1354 103.8253 547.7943 103.8779 547.4423 103.8613L547.4423 103.8613L543.6795 103.8613C 542.3505 103.8613 541.0214 103.8785 539.6924 103.8613C 539.3489 103.8664 539.0175 103.8059 538.698 103.6799C 538.3785 103.5539 538.0952 103.3718 537.8479 103.1337C 537.6007 102.8956 537.4083 102.6195 537.2706 102.3053C 537.133 101.9911 537.0605 101.6625 537.0533 101.3197L537.0533 101.3197L537.0516 101.3111zM530.4409 116.7159C 530.3215 116.9505 530.2423 117.198 530.2032 117.4583C 530.1641 117.7186 530.1671 117.9784 530.2122 118.2377C 530.2573 118.497 530.3423 118.7426 530.467 118.9745C 530.5917 119.2064 530.7499 119.4127 530.9415 119.5935C 532.2532 120.972 533.6168 122.2988 534.9631 123.6428C 535.4982 124.177 536.0332 124.7284 536.5856 125.2454C 536.827 125.4899 537.1061 125.6789 537.423 125.8125C 537.7398 125.9462 538.0702 126.0142 538.4141 126.0166C 538.758 126.0191 539.0893 125.9557 539.408 125.8265C 539.7266 125.6974 540.0084 125.5123 540.2534 125.2712C 540.4983 125.0301 540.6876 124.7515 540.8215 124.4352C 540.9553 124.1189 541.0235 123.7891 541.0259 123.4457C 541.0284 123.1024 540.9649 122.7716 540.8355 122.4535C 540.7061 122.1354 540.5208 121.854 540.2792 121.6096C 538.3979 119.6796 536.5165 117.7842 534.5661 115.9232C 534.1409 115.6032 533.6749 115.362 533.168 115.1995C 532.5974 115.1331 532.0612 115.2393 531.5594 115.5184C 531.0575 115.7974 530.6847 116.1966 530.4409 116.7159z" stroke="none" fill="#13508B" fill-rule="nonzero" /><path id="41" transform="matrix(1 0 0 -1 0 842)" d="M540.1947 125.2712C 539.952 125.5043 539.6743 125.6832 539.3616 125.8081C 539.049 125.933 538.7242 125.9947 538.3875 125.993C 538.0507 125.9914 537.7266 125.9267 537.4152 125.7988C 537.1037 125.671 536.8278 125.4893 536.5873 125.254C 536.035 124.737 535.4999 124.1856 534.9648 123.6515C 533.6185 122.3074 532.2549 120.9806 530.9432 119.6021C 530.7516 119.4213 530.5934 119.215 530.4687 118.9831C 530.344 118.7512 530.259 118.5056 530.214 118.2463C 530.1688 117.987 530.1658 117.7272 530.205 117.4669C 530.2441 117.2066 530.3233 116.9592 530.4426 116.7245C 530.6864 116.2052 531.0593 115.8061 531.5611 115.527C 532.063 115.248 532.5992 115.1417 533.1697 115.2081C 533.6766 115.3706 534.1427 115.6119 534.5678 115.9318C 536.5182 117.7928 538.3996 119.6883 540.281 121.6182C 540.5197 121.8652 540.7015 122.1486 540.8265 122.4683C 540.9515 122.7881 541.0099 123.1195 541.0018 123.4627C 540.9937 123.8058 540.9197 124.1341 540.7797 124.4477C 540.6398 124.7612 540.4448 125.0357 540.1947 125.2712zM514.5114 135.1447C 514.1693 135.1482 513.8398 135.0854 513.5231 134.9563C 513.2064 134.8273 512.9271 134.642 512.6851 134.4005C 512.4432 134.1589 512.2576 133.8801 512.1283 133.5639C 511.999 133.2477 511.9361 132.9188 511.9396 132.5773C 511.9223 131.9225 511.9223 131.2677 511.9223 130.6301L511.9223 130.6301L511.9223 128.6658C 511.9223 127.3734 511.9051 126.0638 511.9223 124.7543C 511.9057 124.4029 511.9584 124.0622 512.0806 123.7323C 512.2027 123.4023 512.3845 123.1093 512.626 122.8531C 512.8675 122.597 513.1495 122.3981 513.472 122.2564C 513.7946 122.1147 514.132 122.0416 514.4843 122.0369C 514.8366 122.0322 515.1758 122.0964 515.5021 122.2295C 515.8282 122.3625 516.1154 122.5539 516.3636 122.8035C 516.6119 123.0532 516.8015 123.3413 516.9323 123.6679C 517.0632 123.9945 517.125 124.3336 517.1177 124.6853C 517.1349 127.3217 517.1522 129.9581 517.1177 132.5773C 517.1203 132.9215 517.0557 133.2527 516.924 133.5709C 516.7921 133.889 516.6035 134.169 516.358 134.4108C 516.1125 134.6526 515.8296 134.8372 515.5092 134.9646C 515.1888 135.0919 514.8562 135.152 514.5114 135.1447zM547.444 103.8613L543.6813 103.8613C 542.3522 103.8613 541.0232 103.8785 539.6941 103.8613C 539.3495 103.8627 539.0177 103.7982 538.6989 103.6677C 538.3799 103.5373 538.0981 103.3509 537.8536 103.1085C 537.609 102.8661 537.4202 102.5862 537.2872 102.2688C 537.1542 101.9514 537.0872 101.6207 537.086 101.2766C 537.0848 100.9326 537.1497 100.6014 537.2806 100.2831C 537.4115 99.96485 537.5984 99.68372 537.8414 99.43971C 538.0844 99.19571 538.3649 99.00743 538.6829 98.87487C 539.0009 98.74232 539.3322 98.67559 539.6769 98.67468C 542.2831 98.64023 544.8895 98.64023 547.513 98.67468C 547.8653 98.66743 548.205 98.72913 548.5322 98.85977C 548.8593 98.99043 549.1479 99.17966 549.3979 99.42747C 549.648 99.67529 549.8397 99.96201 549.973 100.2876C 550.1062 100.6133 550.1705 100.9519 550.1658 101.3036C 550.1611 101.6554 550.0879 101.9922 549.946 102.3142C 549.8041 102.6362 549.6049 102.9177 549.3483 103.1588C 549.0917 103.3999 548.7982 103.5814 548.4677 103.7033C 548.1371 103.8253 547.796 103.8779 547.444 103.8613zM556.2295 69.19193C 555.7166 69.19363 555.2089 69.24525 554.7062 69.34679C 554.2036 69.44834 553.7158 69.59785 553.2426 69.79535C 552.7695 69.99284 552.3202 70.23451 551.8947 70.52036C 551.4692 70.80621 551.0758 71.13073 550.7144 71.49395C 550.353 71.85716 550.0305 72.25208 549.747 72.67871C 549.4636 73.10534 549.2244 73.55547 549.0298 74.02912C 548.8351 74.50276 548.6885 74.99081 548.5902 75.49327C 548.4918 75.99573 548.4435 76.50294 548.4452 77.01491C 548.4469 77.52687 548.4986 78.03375 548.6003 78.53555C 548.702 79.03734 548.8518 79.52441 549.0496 79.99677C 549.2474 80.4691 549.4895 80.91765 549.7758 81.34239C 550.0621 81.76712 550.3872 82.1599 550.751 82.52072C 551.1149 82.88153 551.5104 83.20345 551.9378 83.48647C 552.3651 83.76949 552.816 84.00818 553.2905 84.20254C 553.7649 84.39689 554.2538 84.54317 554.7571 84.64139C 555.2604 84.7396 555.7684 84.78786 556.2813 84.78616C 556.7941 84.78447 557.3018 84.73285 557.8044 84.63131C 558.3071 84.52977 558.795 84.38025 559.2681 84.18277C 559.7413 83.98528 560.1906 83.74361 560.616 83.45776C 561.0415 83.17192 561.4349 82.8474 561.7963 82.48419C 562.1578 82.12097 562.4802 81.72605 562.7637 81.29942C 563.0472 80.8728 563.2863 80.42267 563.481 79.94903C 563.6757 79.47539 563.8222 78.98734 563.9206 78.48488C 564.019 77.98242 564.0673 77.47521 564.0656 76.96325C 564.0662 76.45083 564.0164 75.94334 563.9163 75.44078C 563.816 74.93823 563.6674 74.45038 563.4703 73.97723C 563.2733 73.50409 563.0316 73.05486 562.7454 72.62955C 562.459 72.20423 562.1337 71.81111 561.7694 71.45018C 561.405 71.08925 561.0088 70.76754 560.5806 70.48505C 560.1523 70.20255 559.7005 69.96476 559.225 69.7717C 558.7496 69.57862 558.2598 69.43403 557.7556 69.3379C 557.2515 69.24177 556.7427 69.19598 556.2295 69.20054L556.2295 69.20054L556.2295 69.19193zM556.2985 90.02457C 555.4409 90.02922 554.591 89.95022 553.749 89.78757C 552.9069 89.62492 552.0889 89.38174 551.2949 89.05806C 550.5009 88.73438 549.7462 88.33641 549.0308 87.86417C 548.3153 87.39191 547.653 86.85448 547.0437 86.25185C 546.4344 85.64922 545.89 84.993 545.4103 84.28319C 544.9307 83.57339 544.5251 82.82365 544.1935 82.034C 543.8619 81.24435 543.6108 80.42998 543.4401 79.59088C 543.2694 78.7518 543.1824 77.90415 543.1791 77.04793C 543.1758 76.19171 543.2563 75.34341 543.4205 74.50304C 543.5848 73.66267 543.8297 72.84641 544.1552 72.05423C 544.4806 71.26205 544.8804 70.50924 545.3546 69.79578C 545.8288 69.08231 546.3682 68.42194 546.9728 67.81464C 547.5774 67.20737 548.2356 66.66486 548.9473 66.18714C 549.6591 65.70942 550.4107 65.30568 551.2022 64.97592C 551.9937 64.64616 552.8099 64.39673 553.6506 64.22764C 554.4914 64.05853 555.3406 63.97301 556.1983 63.97107C 557.056 63.96915 557.9055 64.05083 558.7471 64.21614C 559.5886 64.38145 560.4058 64.6272 561.1989 64.95338C 561.9918 65.27956 562.7453 65.67992 563.4592 66.15443C 564.1731 66.62892 564.8337 67.16846 565.4411 67.773C 566.0485 68.37756 566.5908 69.0355 567.0682 69.74682C 567.5456 70.45814 567.9488 71.20914 568.2779 71.99983C 568.6069 72.79053 568.8555 73.60568 569.0236 74.44531C 569.1916 75.28494 569.2759 76.13287 569.2765 76.98909C 569.2747 77.84139 569.1903 78.68546 569.0231 79.52126C 568.856 80.35707 568.6093 81.16879 568.2831 81.95644C 567.9569 82.74408 567.5574 83.49271 567.0845 84.20232C 566.6116 84.91194 566.0744 85.5691 565.4728 86.1738C 564.8711 86.7785 564.2165 87.31929 563.5089 87.79617C 562.8013 88.27304 562.0541 88.67696 561.2674 89.00791C 560.4806 89.33888 559.6693 89.59061 558.8331 89.76313C 557.9971 89.93564 557.1522 90.02567 556.2985 90.03319L556.2985 90.03319L556.2985 90.02457zM472.7243 69.19193C 472.2117 69.19704 471.7046 69.25198 471.2029 69.35677C 470.7011 69.46156 470.2145 69.61417 469.7429 69.81461C 469.2712 70.01506 468.8237 70.25948 468.4003 70.54787C 467.9769 70.83628 467.5857 71.16313 467.2267 71.52843C 466.8678 71.89372 466.5479 72.29045 466.2672 72.71861C 465.9865 73.14677 465.7503 73.59814 465.5586 74.07272C 465.3669 74.54732 465.2234 75.036 465.1281 75.53879C 465.0328 76.04158 464.9875 76.54883 464.9922 77.06053C 464.9969 77.57222 465.0516 78.07855 465.1562 78.57951C 465.2607 79.08046 465.4132 79.56643 465.6137 80.03741C 465.8141 80.50839 466.0586 80.95535 466.3471 81.37827C 466.6357 81.80119 466.9628 82.19197 467.3285 82.5506C 467.6941 82.90923 468.0912 83.22884 468.5199 83.5094C 468.9486 83.78997 469.4005 84.02612 469.8758 84.21785C 470.351 84.40959 470.8404 84.55322 471.344 84.64877C 471.8475 84.74431 472.3556 84.78992 472.8682 84.78559C 473.3807 84.78127 473.8879 84.7271 474.3898 84.62308C 474.8917 84.51906 475.3786 84.36718 475.8505 84.16745C 476.3224 83.96774 476.7703 83.724 477.1942 83.43623C 477.618 83.14848 478.0097 82.82222 478.3692 82.45747C 478.7288 82.09273 479.0492 81.69649 479.3306 81.26875C 479.6119 80.84103 479.8488 80.39001 480.0412 79.91571C 480.2336 79.44142 480.3779 78.95296 480.474 78.45031C 480.5701 77.94766 480.6161 77.44048 480.6122 76.92878C 480.6083 76.41628 480.5542 75.9091 480.45 75.40726C 480.3457 74.90541 480.1933 74.41858 479.9928 73.94676C 479.7923 73.47495 479.5475 73.02725 479.2585 72.60367C 478.9695 72.1801 478.6418 71.78881 478.2754 71.42982C 477.909 71.07082 477.5109 70.75105 477.0813 70.47052C 476.6516 70.18997 476.1987 69.95406 475.7224 69.76279C 475.2461 69.57151 474.7557 69.42857 474.2511 69.33394C 473.7466 69.23932 473.2376 69.19485 472.7243 69.20054L472.7243 69.20054L472.7243 69.19193zM472.7588 90.00734C 471.9016 90.00676 471.0527 89.92262 470.2121 89.75491C 469.3716 89.5872 468.5555 89.33917 467.7639 89.0108C 466.9724 88.68243 466.2205 88.28006 465.5084 87.80368C 464.7963 87.3273 464.1377 86.78608 463.5325 86.18002C 462.9273 85.57397 462.3873 84.91476 461.9123 84.20238C 461.4373 83.49001 461.0366 82.73818 460.7102 81.94691C 460.3837 81.15565 460.1378 80.34018 459.9725 79.50049C 459.8071 78.66081 459.7255 77.8131 459.7275 76.95735C 459.7296 76.10159 459.8154 75.25429 459.9849 74.41542C 460.1544 73.57656 460.4042 72.7623 460.7346 71.97263C 461.0648 71.18297 461.4692 70.43311 461.9477 69.72305C 462.4261 69.01299 462.9694 68.35641 463.5775 67.75331C 464.1857 67.15022 464.8469 66.61221 465.5613 66.1393C 466.2758 65.66639 467.0295 65.26768 467.8227 64.94316C 468.6159 64.61865 469.4332 64.3746 470.2745 64.21098C 471.1159 64.04737 471.9652 63.96736 472.8224 63.97095C 473.6796 63.97455 474.5281 64.06168 475.3681 64.23233C 476.2081 64.40298 477.0233 64.65388 477.8137 64.98502C 478.6041 65.31617 479.3545 65.72118 480.0649 66.20006C 480.7753 66.67894 481.4321 67.22247 482.0351 67.83065C 482.6382 68.43883 483.1759 69.09994 483.6483 69.81398C 484.1208 70.52802 484.5189 71.28123 484.8425 72.07364C 485.1662 72.86605 485.4092 73.68239 485.5716 74.52265C 485.734 75.3629 485.8127 76.2109 485.8076 77.06664C 485.8019 77.91836 485.7134 78.76143 485.5421 79.59583C 485.3708 80.43022 485.12 81.24007 484.7896 82.02534C 484.4592 82.81062 484.0555 83.55638 483.5786 84.26262C 483.1017 84.96885 482.5605 85.6221 481.9553 86.22237C 481.35 86.82265 480.6921 87.3585 479.9815 87.82993C 479.2709 88.30136 478.5212 88.6994 477.7325 89.02403C 476.9437 89.34866 476.1309 89.59372 475.2939 89.75917C 474.457 89.92464 473.612 90.00735 472.7588 90.00734zM498.1642 119.4987C 496.2656 121.4803 494.3324 123.4102 492.3647 125.3229C 492.1233 125.5481 491.8484 125.7198 491.5399 125.8378C 491.2313 125.9559 490.9119 126.0117 490.5815 126.0053C 490.2512 125.9988 489.9342 125.9306 489.6305 125.8006C 489.3268 125.6707 489.0588 125.4884 488.8264 125.254C 488.5847 125.0349 488.3934 124.7785 488.2524 124.4846C 488.1115 124.1906 488.0314 123.881 488.012 123.5558C 487.9926 123.2305 488.0355 122.9136 488.1406 122.6051C 488.2457 122.2966 488.4052 122.0193 488.6193 121.7732C 490.5524 119.74 492.5546 117.7584 494.5913 115.8112C 494.9533 115.4586 495.3849 115.2489 495.8862 115.182C 496.3874 115.115 496.8591 115.2041 497.3012 115.4494C 497.7817 115.671 498.1721 115.9995 498.4721 116.4349C 498.7722 116.8703 498.9399 117.3517 498.9754 117.879C 498.7884 118.4605 498.518 119.0004 498.1642 119.4987zM514.4078 87.41402C 513.7251 87.42181 513.0497 87.49582 512.3816 87.63605C 511.7134 87.7763 511.0653 87.98009 510.4373 88.24742C 509.8093 88.51476 509.2133 88.84052 508.6494 89.22473C 508.0854 89.60895 507.5643 90.04426 507.086 90.53067C 506.6077 91.01707 506.1814 91.54527 505.8071 92.11528C 505.4327 92.6853 505.1175 93.28621 504.8614 93.91805C 504.6053 94.54987 504.4132 95.20053 504.2851 95.87003C 504.157 96.53953 504.0954 97.21507 504.1003 97.89665C 504.1051 98.57823 504.1763 99.25282 504.3139 99.92044C 504.4515 100.5881 504.6528 101.2359 504.9179 101.8641C 505.183 102.4922 505.5067 103.0886 505.8891 103.6532C 506.2715 104.2179 506.7053 104.74 507.1904 105.2196C 507.6756 105.6992 508.2029 106.127 508.7722 106.5032C 509.3415 106.8794 509.9421 107.1967 510.5739 107.4551C 511.2056 107.7135 511.8566 107.9081 512.5266 108.0389C 513.1967 108.1696 513.8731 108.2341 514.5558 108.2322C 515.2386 108.2303 515.9146 108.1621 516.5839 108.0276C 517.2532 107.8932 517.9031 107.695 518.5334 107.4331C 519.1638 107.1712 519.7626 106.8506 520.3298 106.4712C 520.897 106.0919 521.4219 105.6611 521.9044 105.1789C 522.3868 104.6966 522.8177 104.1721 523.197 103.6054C 523.5763 103.0386 523.8967 102.4404 524.1583 101.8108C 524.4199 101.1813 524.6176 100.5323 524.7515 99.86391C 524.8853 99.19554 524.9528 98.52055 524.9539 97.83896C 524.9581 97.1489 524.8939 96.46525 524.7614 95.78799C 524.6287 95.11073 524.4304 94.45325 524.1663 93.81554C 523.9021 93.17785 523.5774 92.57253 523.1921 91.99959C 522.8068 91.42664 522.3686 90.8974 521.8774 90.41187C 521.3862 89.92632 520.8518 89.49408 520.2741 89.11512C 519.6965 88.73616 519.0869 88.41798 518.4456 88.16058C 517.8042 87.90318 517.1437 87.71165 516.4641 87.58598C 515.7844 87.46032 515.0989 87.403 514.4078 87.41403L514.4078 87.41403L514.4078 87.41402zM514.4769 113.4505C 513.4585 113.4466 512.4502 113.3444 511.4518 113.1439C 510.4535 112.9434 509.484 112.6483 508.5434 112.2588C 507.6028 111.8692 506.7089 111.3924 505.8615 110.8285C 505.0142 110.2646 504.2296 109.6242 503.5075 108.9072C 502.7855 108.1903 502.1398 107.4104 501.5704 106.5675C 501.001 105.7247 500.5186 104.8348 500.1234 103.8979C 499.7281 102.9609 499.4273 101.9947 499.2211 100.9991C 499.0149 100.0036 498.9071 98.99747 498.8977 97.98088C 498.8884 96.96429 498.9776 95.95641 499.1655 94.95721C 499.3533 93.95802 499.6362 92.98642 500.0142 92.0424C 500.3922 91.09839 500.858 90.19979 501.4118 89.34663C 501.9656 88.49345 502.5969 87.70184 503.3055 86.97178C 504.0142 86.24171 504.787 85.58699 505.6237 85.00761C 506.4605 84.42824 507.3456 83.93517 508.2788 83.52839C 509.2121 83.1216 510.176 82.80881 511.1705 82.59C 512.165 82.37119 513.1713 82.25049 514.1893 82.22792C 515.2074 82.20534 516.2181 82.28131 517.2213 82.45583C 518.2245 82.63035 519.2014 82.90012 520.1519 83.26512C 521.1023 83.63014 522.0084 84.0835 522.8701 84.62521C 523.7318 85.16692 524.5329 85.78674 525.2734 86.48468C 526.0138 87.18262 526.6796 87.94547 527.2708 88.77325C 527.862 89.60103 528.3674 90.47808 528.787 91.40442C 529.2065 92.33075 529.5324 93.28885 529.7645 94.27873C 529.9966 95.26862 530.1306 96.27155 530.1664 97.28756C 530.1823 97.81056 530.1719 98.33305 530.1354 98.85503C 530.0988 99.37699 530.0363 99.89583 529.9477 100.4116C 529.8591 100.9273 529.7449 101.4373 529.6052 101.9416C 529.4655 102.4459 529.3009 102.942 529.1115 103.4298C 528.922 103.9177 528.7086 104.3949 528.4713 104.8614C 528.2339 105.3279 527.9739 105.7815 527.6911 106.222C 527.4083 106.6626 527.1042 107.0879 526.7787 107.4981C 526.4532 107.9082 526.1082 108.3011 525.7433 108.6768C 525.3784 109.0524 524.9957 109.409 524.5951 109.7464C 524.1945 110.0838 523.778 110.4004 523.3457 110.6961C 522.9133 110.9919 522.4673 111.2654 522.0075 111.5166C 521.5477 111.7678 521.0765 111.9955 520.594 112.1996C 520.1114 112.4037 519.6198 112.5833 519.1191 112.7383C 518.6186 112.8932 518.1115 113.0229 517.5978 113.1272C 517.0842 113.2315 516.5667 113.3099 516.0453 113.3625C 515.5238 113.4151 515.001 113.4416 514.4769 113.4419L514.4769 113.4419L514.4769 113.4505zM489.3977 103.8699C 486.7569 103.9044 484.1161 103.9044 481.4925 103.8699C 481.148 103.8665 480.8173 103.7974 480.5004 103.6626C 480.1834 103.5279 479.9044 103.3377 479.6632 103.0921C 479.4221 102.8465 479.2372 102.5642 479.1085 102.2451C 478.9799 101.9261 478.9173 101.5947 478.9207 101.2508C 478.9241 100.9069 478.9933 100.5767 479.1284 100.2603C 479.2633 99.94391 479.4538 99.66533 479.6999 99.42458C 479.9459 99.18384 480.2286 98.99925 480.5482 98.87082C 480.8678 98.74238 481.1998 98.67987 481.5443 98.6833L481.5443 98.6833L485.376 98.6833C 486.7051 98.6833 488.0341 98.66606 489.3632 98.6833C 489.7076 98.68102 490.0394 98.74461 490.3586 98.8741C 490.6777 99.0036 490.9598 99.18912 491.205 99.43068C 491.4503 99.67223 491.6398 99.95143 491.7737 100.2683C 491.9077 100.5851 491.9758 100.9155 491.9781 101.2594C 491.9804 101.6033 491.9167 101.9345 491.787 102.2531C 491.6573 102.5717 491.4714 102.8534 491.2295 103.0982C 490.9875 103.343 490.7078 103.5322 490.3904 103.6659C 490.0731 103.7996 489.7422 103.8676 489.3977 103.8699zM571.8672 25.36411L540.5917 25.36411L540.5917 25.36411L540.5917 45.8349C 540.5766 46.34553 540.6133 46.85242 540.7018 47.35558C 540.7902 47.85874 540.9286 48.34782 541.1169 48.82281C 541.3052 49.29781 541.5396 49.74896 541.82 50.17625C 542.1005 50.60355 542.4212 50.99821 542.7822 51.36024C 543.1432 51.72227 543.5371 52.04423 543.9639 52.3261C 544.3906 52.60796 544.8415 52.84396 545.3165 53.03407C 545.7914 53.22418 546.2806 53.36452 546.7843 53.45506C 547.2879 53.5456 547.7955 53.5845 548.307 53.57175C 553.6232 53.60621 558.9566 53.58897 564.2728 53.57175C 564.774 53.57873 565.2711 53.5359 565.7638 53.44325C 566.2565 53.35061 566.7351 53.21001 567.1995 53.02142C 567.664 52.83285 568.105 52.60007 568.5226 52.32308C 568.9402 52.04609 569.3261 51.73043 569.6802 51.3761C 570.0344 51.02176 570.3497 50.63582 570.6262 50.21828C 570.9027 49.80074 571.1348 49.35993 571.3227 48.89586C 571.5105 48.43177 571.6503 47.95368 571.7419 47.46159C 571.8336 46.9695 571.8754 46.47321 571.8672 45.97275C 571.8845 44.66317 571.8655 30.01656 571.8655 25.36411L571.8655 25.36411L571.8672 25.36411zM535.3618 25.36411L493.6437 25.36411C 493.6437 33.39389 493.6265 55.05363 493.6437 61.27414C 493.6365 61.96703 493.6981 62.65378 493.8283 63.33439C 493.9586 64.015 494.155 64.67601 494.4176 65.31745C 494.6801 65.95889 495.0037 66.56805 495.3882 67.14496C 495.7726 67.72186 496.2104 68.25509 496.7017 68.74465C 497.1929 69.23423 497.7277 69.67046 498.3062 70.05334C 498.8847 70.43623 499.4954 70.75821 500.1384 71.01928C 500.7813 71.28035 501.4438 71.47534 502.1257 71.60428C 502.8077 71.73321 503.4957 71.79353 504.1898 71.78523C 510.6451 71.80246 517.0947 71.80246 523.5385 71.78523C 524.7668 71.8206 525.9866 71.73444 527.1977 71.52676C 527.7798 71.40157 528.3468 71.22741 528.8987 71.00427C 529.4506 70.78114 529.9792 70.51235 530.4846 70.1979C 530.9899 69.88345 531.4644 69.52801 531.9081 69.13158C 532.3518 68.73516 532.7581 68.30365 533.1271 67.83704C 533.496 67.37041 533.822 66.87563 534.1052 66.3527C 534.3883 65.82976 534.6244 65.28643 534.8134 64.72271C 535.0024 64.15898 535.1414 63.58325 535.2307 62.99551C 535.3198 62.40776 535.3578 61.81674 535.3445 61.22243C 535.379 55.05364 535.3618 33.06651 535.3618 25.36411L535.3618 25.36411L535.3618 25.36411zM488.4311 25.36411L457.1382 25.36411C 457.1382 30.91258 457.1382 44.42192 457.1555 45.86935C 457.1389 46.37376 457.1732 46.87469 457.2584 47.37215C 457.3436 47.8696 457.478 48.35343 457.6617 48.82365C 457.8452 49.29385 458.0743 49.74085 458.3488 50.16464C 458.6234 50.58842 458.9377 50.98035 459.292 51.34043C 459.6462 51.7005 460.033 52.02136 460.4525 52.30303C 460.8719 52.58471 461.3155 52.82143 461.7831 53.0132C 462.2507 53.20496 462.7329 53.34787 463.2296 53.44193C 463.7262 53.53598 464.2273 53.57925 464.7328 53.57175C 470.118 53.62344 475.4859 53.58897 480.8711 53.57175C 481.3648 53.57244 481.8539 53.52524 482.3383 53.43014C 482.8227 53.33505 483.2932 53.19389 483.7499 53.00665C 484.2066 52.8194 484.6407 52.58965 485.0522 52.31738C 485.4637 52.04511 485.8448 51.73553 486.1956 51.38862C 486.5462 51.04172 486.8598 50.6641 487.1363 50.25578C 487.4128 49.84746 487.6469 49.41621 487.8387 48.96204C 488.0304 48.50787 488.1761 48.03943 488.2758 47.55671C 488.3755 47.074 488.4273 46.58622 488.4311 46.09336C 488.4484 44.57701 488.4311 30.94705 488.4311 25.36411L488.4311 25.36411L488.4311 25.36411zM577.1144 23.46866L577.1144 45.61089C 577.1421 46.4839 577.0808 47.35065 576.9305 48.21112C 576.7802 49.07159 576.5441 49.90791 576.2221 50.72006C 575.9001 51.53221 575.499 52.30332 575.0187 53.03339C 574.5383 53.76345 573.9889 54.43729 573.3702 55.05492C 572.7515 55.67255 572.0765 56.22111 571.3453 56.70061C 570.614 57.18011 569.8416 57.58058 569.0281 57.90203C 568.2145 58.22349 567.3768 58.45922 566.5149 58.60924C 565.653 58.75927 564.7848 58.82047 563.9103 58.79284L563.9103 58.79284L549.498 58.79284C 548.6867 58.79284 547.8755 58.79284 547.0643 58.72391C 544.6826 58.51264 542.5309 57.69702 540.6089 56.27706L540.6089 56.27706L540.6089 61.46368C 540.5998 62.47906 540.4928 63.48406 540.288 64.47868C 540.0831 65.47329 539.7842 66.4389 539.3913 67.37548C 538.9984 68.31208 538.5188 69.20213 537.9525 70.04562C 537.3862 70.88911 536.7439 71.67027 536.0255 72.38908C 535.3071 73.10788 534.526 73.75089 533.6824 74.31808C 532.8387 74.88528 531.9482 75.36604 531.0109 75.76039C 530.0737 76.15474 529.1071 76.45526 528.1113 76.66198C 527.1154 76.8687 526.109 76.97773 525.0919 76.98908C 518.0152 77.00631 510.9385 77.00057 503.8618 76.97185C 502.9755 76.96439 502.0963 76.88157 501.2242 76.72337C 500.3522 76.56517 499.5 76.33392 498.6677 76.02962C 497.8354 75.72531 497.0352 75.35239 496.2671 74.91089C 495.499 74.46938 494.7741 73.96573 494.0927 73.39995C 493.4112 72.83418 492.783 72.21454 492.2081 71.54105C 491.6332 70.86756 491.1201 70.15007 490.6686 69.3886C 490.2171 68.62712 489.834 67.8328 489.5192 67.00564C 489.2044 66.17847 488.9625 65.33057 488.7936 64.46193C 488.5164 62.05736 488.3955 59.64497 488.4311 57.22478L488.4311 57.22478L488.4311 56.32875C 488.1722 56.46661 488.0687 56.5183 487.9651 56.58723C 485.6853 58.12111 483.1711 58.86205 480.4224 58.81007C 475.1234 58.7756 469.8246 58.84453 464.5256 58.7756C 463.5276 58.76987 462.5441 58.64725 461.5753 58.40771C 460.6064 58.16817 459.6793 57.81844 458.7939 57.3585C 457.9084 56.89855 457.0895 56.34126 456.337 55.68663C 455.5845 55.032 454.9196 54.29832 454.3421 53.4856C 451.3733 49.59132 451.9429 27.62141 451.9602 23.14127L451.9602 23.14127L452.1845 23.14127C 452.1508 22.96014 452.1374 22.77755 452.1443 22.59346C 452.1512 22.40937 452.1781 22.22828 452.2252 22.05016C 452.2723 21.87206 452.3384 21.70126 452.4234 21.53777C 452.5085 21.37429 452.6104 21.22209 452.7293 21.08119C 452.8481 20.94027 452.981 20.81408 453.1279 20.7026C 453.2748 20.59112 453.4322 20.49706 453.5999 20.42041C 453.7678 20.34377 453.9419 20.28641 454.1225 20.24834C 454.303 20.21025 454.4855 20.19238 454.67 20.19471L454.67 20.19471L574.698 20.19471C 574.8961 20.19475 575.0916 20.21772 575.2844 20.2636C 575.4772 20.30949 575.662 20.37705 575.8389 20.4663C 576.0157 20.55556 576.1799 20.66404 576.3312 20.79179C 576.4825 20.91953 576.617 21.06305 576.7346 21.22233C 576.8521 21.3816 576.9496 21.55231 577.027 21.73446C 577.1044 21.9166 577.1595 22.10523 577.1926 22.30032C 577.2255 22.49541 577.2354 22.69167 577.2222 22.88908C 577.209 23.08648 577.1731 23.27968 577.1144 23.46866z" stroke="none" fill="#13508B" fill-rule="nonzero" /><path id="42" transform="matrix(1 0 0 -1 0 842)" d="M535.3445 61.22245C 535.3578 61.81676 535.3198 62.40778 535.2307 62.99552C 535.1414 63.58327 535.0024 64.15901 534.8134 64.72273C 534.6244 65.28645 534.3883 65.82977 534.1052 66.35271C 533.822 66.87565 533.496 67.37043 533.1271 67.83704C 532.7581 68.30366 532.3518 68.73517 531.9081 69.13159C 531.4644 69.52802 530.9899 69.88346 530.4846 70.19792C 529.9792 70.51236 529.4506 70.78116 528.8987 71.00429C 528.3468 71.22742 527.7798 71.40158 527.1977 71.52676C 525.9866 71.73447 524.7668 71.82062 523.5385 71.78524C 517.1004 71.80247 510.6508 71.80247 504.1898 71.78524C 503.4957 71.79354 502.8077 71.73323 502.1257 71.60429C 501.4438 71.47536 500.7813 71.28036 500.1384 71.01929C 499.4954 70.75822 498.8847 70.43625 498.3062 70.05337C 497.7277 69.67048 497.1929 69.23425 496.7017 68.74467C 496.2104 68.2551 495.7726 67.72187 495.3882 67.14497C 495.0037 66.56808 494.6801 65.9589 494.4176 65.31747C 494.155 64.67603 493.9586 64.01501 493.8283 63.3344C 493.6981 62.65379 493.6365 61.96704 493.6437 61.27415C 493.6265 55.05365 493.6437 33.3939 493.6437 25.36411L493.6437 25.36411L535.3618 25.36411C 535.3618 33.06651 535.379 55.05364 535.3445 61.22245zM504.1035 97.82173C 504.1035 98.5068 504.1706 99.18524 504.3049 99.85706C 504.4391 100.5289 504.6378 101.1811 504.9011 101.8138C 505.1644 102.4464 505.487 103.0473 505.8691 103.6163C 506.2512 104.1853 506.6854 104.7116 507.1716 105.195C 507.6577 105.6785 508.1866 106.1098 508.7581 106.489C 509.3296 106.8682 509.9327 107.1879 510.5675 107.4482C 511.2022 107.7085 511.8564 107.9043 512.5298 108.0357C 513.2033 108.167 513.8832 108.2313 514.5694 108.2287C 515.2556 108.226 515.9349 108.1563 516.6074 108.0198C 517.2798 107.8832 517.9324 107.6822 518.5651 107.417C 519.1978 107.1518 519.7983 106.8273 520.3668 106.4437C 520.9354 106.06 521.4608 105.6246 521.9432 105.1374C 522.4256 104.6502 522.8556 104.1205 523.2332 103.5485C 523.6109 102.9765 523.9288 102.3732 524.1871 101.7385C 524.4454 101.1038 524.639 100.4501 524.7681 99.77722C 524.897 99.10437 524.9589 98.42543 524.9536 97.74039C 524.9482 97.05534 524.8759 96.37744 524.7365 95.70667C 524.597 95.03589 524.3933 94.38519 524.1252 93.75459C 523.8571 93.12398 523.5298 92.52563 523.1433 91.95955C 522.7568 91.39346 522.3187 90.87056 521.8287 90.39085C 521.3389 89.91115 520.8067 89.4839 520.2323 89.1091C 519.6579 88.7343 519.0523 88.41919 518.4156 88.16377C 517.7789 87.90836 517.1232 87.71756 516.4488 87.59138C 515.7743 87.46521 515.094 87.40608 514.4078 87.41402C 513.7267 87.41615 513.0524 87.48482 512.3849 87.62001C 511.7175 87.7552 511.0697 87.9543 510.4416 88.21732C 509.8135 88.48034 509.2173 88.80219 508.653 89.18285C 508.0886 89.56352 507.567 89.99565 507.0883 90.47924C 506.6095 90.96283 506.1827 91.48853 505.808 92.05632C 505.4333 92.62411 505.1179 93.22304 504.8618 93.85308C 504.6057 94.48312 504.4138 95.13209 504.2862 95.8C 504.1585 96.4679 504.0976 97.14181 504.1035 97.82173z" stroke="none" fill="#D7F7FF" fill-rule="nonzero" /><path id="43" transform="matrix(1 0 0 -1 0 842)" d="M486.8432 50.65966C 486.1379 51.59325 485.259 52.31665 484.2065 52.82986C 483.1541 53.34306 482.0423 53.59035 480.8711 53.57175C 475.4859 53.58897 470.118 53.62344 464.7328 53.57175C 464.2273 53.57925 463.7262 53.53598 463.2296 53.44193C 462.7329 53.34787 462.2507 53.20496 461.7831 53.0132C 461.3155 52.82143 460.872 52.58471 460.4525 52.30304C 460.033 52.02137 459.6462 51.7005 459.292 51.34043C 458.9377 50.98035 458.6234 50.58842 458.3488 50.16463C 458.0743 49.74085 457.8452 49.29385 457.6617 48.82365C 457.478 48.35343 457.3436 47.8696 457.2584 47.37215C 457.1732 46.87469 457.1389 46.37376 457.1555 45.86935C 457.1382 44.42192 457.1382 30.91258 457.1382 25.36411L457.1382 25.36411L488.4311 25.36411C 488.4311 30.94704 488.4484 44.577 488.4311 46.09335C 488.4326 47.79942 487.9033 49.32152 486.8432 50.65966L486.8432 50.65966L486.8432 50.65966zM571.8672 45.97275C 571.8754 46.47321 571.8336 46.9695 571.7419 47.4616C 571.6503 47.95369 571.5105 48.43177 571.3226 48.89586C 571.1348 49.35994 570.9026 49.80075 570.6262 50.21829C 570.3497 50.63583 570.0344 51.02176 569.6802 51.3761C 569.3261 51.73043 568.9402 52.04609 568.5226 52.32307C 568.105 52.60006 567.664 52.83284 567.1995 53.02142C 566.7351 53.20999 566.2565 53.3506 565.7638 53.44324C 565.2711 53.5359 564.774 53.57873 564.2728 53.57175C 558.9566 53.58897 553.6232 53.60621 548.307 53.57175C 547.7955 53.5845 547.2879 53.5456 546.7842 53.45506C 546.2806 53.36452 545.7914 53.22418 545.3164 53.03407C 544.8415 52.84396 544.3906 52.60796 543.9639 52.3261C 543.5371 52.04423 543.1432 51.72227 542.7822 51.36024C 542.4212 50.99821 542.1005 50.60355 541.82 50.17625C 541.5396 49.74896 541.3052 49.29781 541.1169 48.82281C 540.9286 48.34782 540.7902 47.85874 540.7018 47.35558C 540.6133 46.85242 540.5766 46.34553 540.5917 45.8349L540.5917 45.8349L540.5917 25.36411L540.5917 25.36411L571.8655 25.36411C 571.8655 30.01656 571.8845 44.66317 571.8655 45.97275L571.8655 45.97275L571.8672 45.97275zM556.2295 69.20054C 556.7423 69.19997 557.2502 69.24935 557.7534 69.34868C 558.2564 69.448 558.745 69.59537 559.219 69.79077C 559.693 69.98617 560.1434 70.22585 560.5701 70.50981C 560.9968 70.79377 561.3917 71.11656 561.7547 71.47817C 562.1177 71.83979 562.4419 72.23329 562.7273 72.65866C 563.0127 73.08404 563.2538 73.53311 563.4506 74.00589C 563.6473 74.47867 563.796 74.96608 563.8966 75.46809C 563.9972 75.97012 564.0478 76.47711 564.0483 76.98907C 564.049 77.50105 563.9995 78.00816 563.9 78.51039C 563.8005 79.01263 563.6529 79.50037 563.4572 79.97358C 563.2614 80.44679 563.0214 80.89641 562.7369 81.3224C 562.4525 81.74841 562.1292 82.14261 561.7669 82.50502C 561.4047 82.86744 561.0105 83.1911 560.5844 83.47601C 560.1583 83.76091 559.7085 84.00159 559.2349 84.19804C 558.7614 84.39449 558.2731 84.54292 557.7703 84.64336C 557.2674 84.74379 556.7596 84.7943 556.2467 84.79486C 555.7339 84.79543 555.226 84.74605 554.7228 84.64672C 554.2198 84.54739 553.7312 84.40003 553.2572 84.20464C 552.7832 84.00923 552.3328 83.76955 551.9061 83.48558C 551.4794 83.20161 551.0845 82.87883 550.7215 82.51721C 550.3585 82.15559 550.0343 81.7621 549.7489 81.33673C 549.4635 80.91136 549.2224 80.46228 549.0256 79.9895C 548.8289 79.51672 548.6802 79.02933 548.5796 78.5273C 548.4789 78.02528 548.4284 77.51828 548.4278 77.00632C 548.4271 76.49431 548.4765 75.98717 548.5759 75.48487C 548.6754 74.98259 548.8229 74.49481 549.0186 74.02155C 549.2143 73.54827 549.4543 73.09862 549.7388 72.67258C 550.0232 72.24653 550.3466 71.85229 550.7088 71.48985C 551.071 71.12741 551.4652 70.80374 551.8914 70.51884C 552.3175 70.23393 552.7674 69.99328 553.241 69.79688C 553.7146 69.60047 554.2029 69.45209 554.7058 69.35174C 555.2087 69.25138 555.7166 69.20099 556.2295 69.20054L556.2295 69.20054L556.2295 69.20054zM464.9744 77.07524C 464.9789 77.58775 465.0335 78.09488 465.1382 78.59665C 465.2428 79.09842 465.3954 79.58519 465.5961 80.05695C 465.7967 80.5287 466.0416 80.97639 466.3306 81.39999C 466.6195 81.82361 466.9471 82.21501 467.3134 82.5742C 467.6796 82.93339 468.0774 83.25346 468.5068 83.53442C 468.9362 83.81537 469.3889 84.05182 469.8649 84.24376C 470.3409 84.4357 470.8311 84.57944 471.3355 84.67497C 471.8399 84.77051 472.3488 84.81602 472.8621 84.81149C 473.3755 84.80696 473.8835 84.75248 474.3861 84.64805C 474.8887 84.54362 475.3763 84.39125 475.8489 84.19093C 476.3214 83.99062 476.7699 83.74622 477.1942 83.45772C 477.6185 83.16923 478.0106 82.84218 478.3704 82.47659C 478.7302 82.11098 479.0508 81.71386 479.3323 81.28522C 479.6137 80.85657 479.8506 80.40463 480.0428 79.92941C 480.2351 79.45419 480.3791 78.9648 480.4748 78.46126C 480.5705 77.95772 480.6161 77.4497 480.6116 76.93719C 480.6071 76.42468 480.5525 75.91754 480.4479 75.41576C 480.3433 74.91399 480.1907 74.42722 479.9901 73.95546C 479.7895 73.48369 479.5446 73.03599 479.2557 72.61237C 478.9667 72.18874 478.6391 71.79732 478.2729 71.43813C 477.9067 71.07891 477.5089 70.75881 477.0796 70.47783C 476.6502 70.19684 476.1975 69.96037 475.7215 69.76841C 475.2455 69.57645 474.7553 69.43269 474.2509 69.33712C 473.7465 69.24155 473.2376 69.19603 472.7243 69.20054C 472.2099 69.20162 471.7006 69.2532 471.1965 69.35529C 470.6924 69.45738 470.2032 69.60799 469.7291 69.8071C 469.2549 70.0062 468.805 70.24992 468.3793 70.53828C 467.9537 70.82662 467.5606 71.15395 467.2001 71.52026C 466.8396 71.88658 466.5187 72.28472 466.2375 72.71468C 465.9562 73.14464 465.72 73.59802 465.529 74.07483C 465.338 74.55164 465.1957 75.04253 465.1024 75.54753C 465.0091 76.05254 464.9664 76.56178 464.9744 77.07524z" stroke="none" fill="#72D6FE" fill-rule="nonzero" /></g><g clip-path="url(#54)"></g></g></g></svg>