<svg xmlns="http://www.w3.org/2000/svg" xmlns:xlink="http://www.w3.org/1999/xlink" id="body_1" preserveAspectRatio="xMinYMin meet" viewBox="0 0 793 1123"><defs><clipPath id="1"><path id="" clip-rule="evenodd" transform="matrix(1 0 0 1 0 0)" d="M0 842L0 -0.250061L0 -0.250061L595.5 -0.250061L595.5 -0.250061L595.5 842L595.5 842L0 842z" /></clipPath><clipPath id="2"><path id="" clip-rule="evenodd" transform="matrix(1 0 0 1 0 0)" d="M0 -0.25L595.5 -0.25L595.5 -0.25L595.5 842.0012L595.5 842.0012L0 842.0012z" /></clipPath><clipPath id="3"><path id="" clip-rule="evenodd" transform="matrix(1 0 0 1 0 0)" d="M0 -0.25L595.5 -0.25L595.5 -0.25L595.5 842.0012L595.5 842.0012L0 842.0012z" /></clipPath><clipPath id="4"><path id="" clip-rule="evenodd" transform="matrix(1 0 0 1 0 0)" d="M0 -0.25L595.5 -0.25L595.5 -0.25L595.5 842.0012L595.5 842.0012L0 842.0012z" /></clipPath><clipPath id="5"><path id="" clip-rule="evenodd" transform="matrix(1 0 0 1 0 0)" d="M78.71999 30.71002L522.24 30.71002L522.24 30.71002L522.24 810.95L522.24 810.95L78.71999 810.95z" /></clipPath><clipPath id="6"><path id="" clip-rule="evenodd" transform="matrix(1 0 0 1 0 0)" d="M79.51786 30.75177L522.0178 30.75177L522.0178 30.75177L522.0178 810.7518L522.0178 810.7518L79.51786 810.7518z" /></clipPath><clipPath id="7"><path id="" clip-rule="evenodd" transform="matrix(1 0 0 1 0 0)" d="M196.0942 155.379L405.3442 155.379L405.3442 155.379L405.3442 408.1302L405.3442 408.1302L196.0942 408.1302z" /></clipPath><clipPath id="8"><path id="" clip-rule="evenodd" transform="matrix(1 0 0 1 0 0)" d="M0 -0.25L595.5 -0.25L595.5 -0.25L595.5 842.0012L595.5 842.0012L0 842.0012z" /></clipPath><clipPath id="9"><path id="" clip-rule="evenodd" transform="matrix(1 0 0 1 0 0)" d="M139.68 450.71L479.52 450.71L479.52 450.71L479.52 747.83L479.52 747.83L139.68 747.83z" /></clipPath><clipPath id="10"><path id="" clip-rule="evenodd" transform="matrix(1 0 0 1 0 0)" d="M482.616 723.7076L158.8911 749.4764L158.8911 749.4764L137.0493 475.0942L137.0493 475.0942L460.776 449.3246L460.776 449.3246L482.616 723.7076z" /></clipPath><clipPath id="11"><path id="" clip-rule="evenodd" transform="matrix(1 0 0 1 0 0)" d="M482.616 723.7076L158.8911 749.4764L158.8911 749.4764L137.0493 475.0942L137.0493 475.0942L460.776 449.3246L460.776 449.3246L482.616 723.7076z" /></clipPath><clipPath id="12"><path id="" clip-rule="evenodd" transform="matrix(1 0 0 1 0 0)" d="M120.2438 430.0484L499.7439 430.0484L499.7439 430.0484L499.7439 811.0484L499.7439 811.0484L120.2438 811.0484z" /></clipPath><clipPath id="13"><path id="" clip-rule="evenodd" transform="matrix(1 0 0 1 0 0)" d="M0 -0.25L595.5 -0.25L595.5 -0.25L595.5 842.0012L595.5 842.0012L0 842.0012z" /></clipPath><clipPath id="14"><path id="" clip-rule="evenodd" transform="matrix(1 0 0 1 0 0)" d="M0 -0.25L595.5 -0.25L595.5 -0.25L595.5 842.0012L595.5 842.0012L0 842.0012z" /></clipPath><clipPath id="15"><path id="" clip-rule="evenodd" transform="matrix(1 0 0 1 0 0)" d="M186.7574 499.73L291.5419 499.73L291.5419 499.73L291.5419 599.8575L291.5419 599.8575L186.7574 599.8575z" /></clipPath><clipPath id="16"><path id="" clip-rule="evenodd" transform="matrix(1 0 0 1 0 0)" d="M284.1408 529.8716C 279.804 520.0388 273.7032 510.1532 263.8176 505.0604C 262.9104 504.6068 261.9528 504.1508 260.9928 503.798C 256.3032 501.7316 251.3616 500.6228 246.2664 500.4188C 245.5608 500.318 244.8048 500.2172 244.0488 500.1668C 239.2068 499.814 234.8191 500.8244 230.7845 502.6892C 223.4215 504.9596 216.2601 508.5908 210.2083 513.0788C 202.2905 519.0284 195.7342 526.694 191.8006 535.874C 189.4807 541.2692 188.1694 546.9188 187.4633 552.7676C 186.7068 558.8204 186.3033 565.1756 187.6147 571.1252C 189.9346 581.5148 198.5081 589.7852 207.8381 594.2732C 217.6219 598.9652 228.5657 600.3764 239.2572 598.9652C 250.6056 597.4507 261.396 592.9628 271.08 586.91C 279.804 581.4644 288.2256 574.1011 290.6472 563.6611C 293.3208 552.0116 288.732 540.362 284.1408 529.8716z" /></clipPath><clipPath id="17"><path id="" clip-rule="evenodd" transform="matrix(1 0 0 1 0 0)" d="M186.7574 500.1164L291.5419 500.1164L291.5419 500.1164L291.5419 599.4678L291.5419 599.4678L186.7574 599.4678z" /></clipPath><clipPath id="18"><path id="" clip-rule="evenodd" transform="matrix(1 0 0 1 0 0)" d="M0 -0.25L595.5 -0.25L595.5 -0.25L595.5 842.0012L595.5 842.0012L0 842.0012z" /></clipPath><clipPath id="19"><path id="" clip-rule="evenodd" transform="matrix(1 0 0 1 0 0)" d="M0 -0.25L595.5 -0.25L595.5 -0.25L595.5 842.0012L595.5 842.0012L0 842.0012z" /></clipPath><clipPath id="20"><path id="" clip-rule="evenodd" transform="matrix(1 0 0 1 0 0)" d="M326.3736 606.614L431.1581 606.614L431.1581 606.614L431.1581 706.7415L431.1581 706.7415L326.3736 706.7415z" /></clipPath><clipPath id="21"><path id="" clip-rule="evenodd" transform="matrix(1 0 0 1 0 0)" d="M423.7584 636.758C 419.4192 626.9228 413.3184 617.0372 403.4328 611.9444C 402.5256 611.4908 401.568 611.0372 400.608 610.6844C 395.9184 608.6156 390.9768 607.5068 385.884 607.3052C 385.176 607.2044 384.42 607.1036 383.664 607.0532C 378.8232 606.7004 374.436 607.7084 370.3992 609.5732C 363.0384 611.8436 355.8768 615.4748 349.824 619.9628C 341.9064 625.9148 335.3496 633.5804 331.416 642.758C 329.0976 648.1556 327.7848 653.8028 327.0792 659.654C 326.3232 665.7044 325.92 672.0596 327.2304 678.0116C 329.5512 688.3988 338.124 696.6716 347.4528 701.1596C 357.2376 705.8492 368.1816 707.2604 378.8736 705.8492C 390.2208 704.3372 401.0136 699.8468 410.6952 693.7964C 419.4192 688.3484 427.8432 680.9852 430.2624 670.5476C 432.936 658.8979 428.3472 647.246 423.7584 636.758z" /></clipPath><clipPath id="22"><path id="" clip-rule="evenodd" transform="matrix(1 0 0 1 0 0)" d="M326.3736 607.0028L431.1581 607.0028L431.1581 607.0028L431.1581 706.3542L431.1581 706.3542L326.3736 706.3542z" /></clipPath><clipPath id="23"><path id="" clip-rule="evenodd" transform="matrix(1 0 0 1 0 0)" d="M0 -0.25L595.5 -0.25L595.5 -0.25L595.5 842.0012L595.5 842.0012L0 842.0012z" /></clipPath><clipPath id="24"><path id="" clip-rule="evenodd" transform="matrix(1 0 0 1 0 0)" d="M489.3888 8.540771L589.1388 8.540771L589.1388 8.540771L589.1388 64.79077L589.1388 64.79077L489.3888 64.79077z" /></clipPath><clipPath id="25"><path id="" clip-rule="evenodd" transform="matrix(1 0 0 1 0 0)" d="M0 -0.25L595.5 -0.25L595.5 -0.25L595.5 842.0012L595.5 842.0012L0 842.0012z" /></clipPath></defs><g transform="matrix(1.333333 0 0 1.333333 0 0)"><g clip-path="url(#1)"><g clip-path="url(#2)"><path id="1" transform="matrix(1 0 0 -1 0 842)" d="M0 842.25L595.4999 842.25L595.4999 0L0 0z" stroke="none" fill="#FFFFFF" fill-rule="nonzero" /></g><g clip-path="url(#3)"><path id="2" transform="matrix(1 0 0 -1 0 842)" d="M0 842.25L595.4999 842.25L595.4999 0L0 0z" stroke="none" fill="#FFFFFF" fill-rule="nonzero" /></g><g clip-path="url(#4)"><g><g clip-path="url(#5)"><g clip-path="url(#6)"><g transform="matrix(0 0.975 -0.9768211 0 522.0178 30.75183)"><g transform="matrix(1 0 0 1 0 0)"><image x="0" y="0" xlink:href="img_01.png" width="800" height="453" /></g></g></g></g></g></g><g clip-path="url(#7)"><g transform="matrix(0.9206249 0 0 0.9218749 -293.9808 149.6061)"><g transform="matrix(1 0 0 1 0 0)"><image x="0" y="0" xlink:href="img_02.png" width="800" height="288" /></g></g></g><g clip-path="url(#8)"><g><g clip-path="url(#9)"><g clip-path="url(#10)"><g clip-path="url(#11)"><path id="20" transform="matrix(1 0 0 -1 0 842)" d="M469.0028 172.9295C 476.7824 189.4088 471.3264 209.2128 464.8947 226.4176C 458.4653 243.6245 451.0128 262.0247 455.2549 279.8792C 456.5367 285.278 458.8825 290.504 458.8383 296.0743C 458.755 306.7109 449.7096 315.4417 439.9239 318.4597C 430.1406 321.4786 419.7112 320.1393 409.5829 319.1236C 399.4546 318.1078 388.8127 317.5251 379.4863 321.8597C 360.5583 330.657 354.0008 355.8022 337.4289 368.8211C 324.8431 378.7097 307.7231 380.3436 292.3904 376.9445C 277.0549 373.5483 263.0515 365.6775 249.285 357.9028C 228.8925 346.3848 208.347 334.7595 190.5994 319.2035C 174.0967 304.7391 159.98 286.5054 153.5235 265.0013C 147.0645 243.4978 149.1385 218.4772 162.1242 200.3322C 172.7796 185.4474 190.6855 174.2292 192.6611 155.8069C 193.8223 144.9815 188.8971 133.8887 191.638 123.3664C 197.9024 99.33514 231.4427 98.31762 249.7946 102.4855C 271.7546 107.4719 289.2705 122.0294 303.4828 139.5273C 312.679 150.8451 321.1188 164.7647 335.9988 168.0825C 358.1716 173.0263 382.3931 157.7467 403.4379 152.4214C 426.1143 146.6795 457.1799 147.8825 469.0028 172.9295" stroke="none" fill="#ABD625" fill-rule="nonzero" fill-opacity="0.6196079" /></g></g></g></g></g><g clip-path="url(#12)"><path id="21" transform="matrix(1 0 0 -1 0 842)" d="M258.9641 37.47406L302.6767 31.09406L323.1146 31.81537L281.0711 34.63135L258.9641 37.47406M324.6941 31.87024L323.9043 31.84338L323.9043 31.84338L323.1146 31.81537C 323.1146 31.81427 323.1146 31.81427 323.1146 31.81427L323.1146 31.81427L323.7192 31.77393C 324.0446 31.8064 324.3687 31.83893 324.6941 31.87024M370.4058 36.38873L324.6941 31.87024L347.1141 32.66223L356.1142 33.15839L370.4058 36.38873M388.8625 45.77179L384.7691 45.09747L340.2095 39.20575L300.0966 37.21649L348.55 38.26605L376.064 43.0365L387.5589 44.45905L388.8625 45.77179M277.3267 408.2366L261.9021 406.8096L261.9021 406.8096L230.3866 393.2262L230.3866 393.2262L196.1239 372.053L196.1239 372.053L188.2232 368.9784L188.2232 368.9784L160.4163 337.2439L160.4163 337.2439L170.9824 352.4626C 159.0365 339.0741 150.8351 328.6225 146.3783 321.1078L146.3783 321.1078L133.7492 289.0944L133.7492 289.0944L122.2902 244.8092L122.2902 244.8092L120.2059 198.7778L120.2059 198.7778L126.5092 181.2192L126.5092 181.2192L127.7723 183.1895L127.7723 183.1895L126.1031 194.4285L126.1031 194.4285L136.2362 167.1777L136.2362 167.1777L153.2492 137.0583L153.2492 137.0583L177.15 104.2811C 155.7519 131.0535 143.668 147.1302 140.8961 152.5112L140.8961 152.5112L164.0565 117.7311L164.0565 117.7311L189.6321 90.84552C 200.0164 84.29968 210.4884 77.09741 221.0489 69.23773L221.0489 69.23773L251.023 56.32977L251.023 56.32977L288.5827 46.19403L288.5827 46.19403L296.2456 45.50854L296.2456 45.50854L273.1659 51.1908L273.1659 51.1908L232.822 65.276L232.822 65.276L195.3095 89.82391L195.3095 89.82391L166.3449 119.6151L166.3449 119.6151L162.7115 125.5595L162.7115 125.5595L193.0536 93.50122L193.0536 93.50122L224.1663 72.78961L224.1663 72.78961L200.0333 89.7254L200.0333 89.7254L170.8647 117.4657L170.8647 117.4657L155.2572 139.9572L155.2572 139.9572L135.6057 176.8195L135.6057 176.8195L128.6002 223.6136L128.6002 223.6136L134.1811 256.0191L134.1811 256.0191L141.0128 282.7781L141.0128 282.7781L161.1758 325.7954L161.1758 325.7954L168.8622 335.025L168.8622 335.025L147.1231 295.6839L147.1231 295.6839L137.7024 268.1172L137.7024 268.1172L149.8839 293.4067L149.8839 293.4067L147.3183 291.5272L147.3183 291.5272L163.7199 325.3316L163.7199 325.3316L195.9545 362.6969L195.9545 362.6969L225.6886 379.9587L225.6886 379.9587L261.9738 396.5428L261.9738 396.5428L229.0629 384.1702L229.0629 384.1702L259.3792 396.9706L259.3792 396.9706L294.6425 404.0429L294.6425 404.0429L331.519 401.9383L331.519 401.9383L333.1411 403.0471L333.1411 403.0471L352.0858 398.8524L352.0858 398.8524L334.5747 404.7385L334.5747 404.7385L299.9318 407.1848C 272.3897 404.351 256.6409 402.1443 252.6866 400.5673L252.6866 400.5673L277.3267 408.2366M263.8652 61.54608L263.4063 60.73846L262.9464 59.93201L301.6985 48.40735L305.6529 49.16455L263.8652 61.54608M400.1488 64.77863L363.8736 54.49286L350.9742 50.92535L350.8911 49.99457L382.8912 54.63953L375.0477 54.45142L400.1488 64.77863M297.6231 397.6203L271.4519 387.377C 270.6856 388.2171 259.7459 384.2038 238.6306 375.3349L238.6306 375.3349L228.1778 367.8516L228.1778 367.8516L237.4977 372.0396C 222.2705 363.621 212.8834 357.7281 209.3374 354.3611L209.3374 354.3611L181.4094 324.775L181.4094 324.775L199.5611 346.6157L199.5611 346.6157L189.7668 337.1263L189.7668 337.1263L195.5091 344.1672L195.5091 344.1672L190.8762 342.7189L190.8762 342.7189L214.8443 362.8111L214.8443 362.8111L208.1136 355.9181L208.1136 355.9181L217.3335 362.978C 220.2041 363.2827 226.1182 366.9252 235.0746 373.9068L235.0746 373.9068L227.0201 370.6697L227.0201 370.6697L230.3956 375.3775L230.3956 375.3775L212.8542 363.8495L212.8542 363.8495L186.0009 338.7325L186.0009 338.7325L164.9797 309.5786L164.9797 309.5786L146.818 264.552L146.818 264.552L159.0489 302.0292L159.0489 302.0292L156.9994 302.3697L156.9994 302.3697L151.8066 292.1186L151.8066 292.1186L143.963 263.4308L143.963 263.4308L138.7232 227.0557L138.7232 227.0557L142.7022 188.1324L142.7022 188.1324L159.0623 152.5952L159.0623 152.5952L181.4924 120.2682L181.4924 120.2682L210.0127 93.68384L210.0127 93.68384L244.0208 73.15582L244.0208 73.15582L281.7801 60.96252L281.7801 60.96252L320.2047 57.53613C 308.5639 56.84167 294.8838 57.02197 279.1653 58.07489L279.1653 58.07489L320.659 55.24554L320.659 55.24554L355.67 58.06592L355.67 58.06592L361.7433 61.16748L361.7433 61.16748L410.1888 77.04932L410.1888 77.04932L444.152 102.2167L444.152 102.2167L470.9245 126.9797L470.9245 126.9797L484.8335 155.9364L484.8335 155.9364L452.9333 116.8586L452.9333 116.8586L424.5465 91.33051L424.5465 91.33051L416.9666 89.94495L416.9666 89.94495L438.1404 104.6137L438.1404 104.6137L453.3573 119.1167C 454.9974 122.8051 455.2375 124.6096 454.0787 124.5278L454.0787 124.5278L449.9807 121.0757L449.9807 121.0757L469.6524 150.4636L469.6524 150.4636L482.2142 184.0833L482.2142 184.0833L485.8477 200.4064L485.8477 200.4064L484.0943 199.1452L484.0943 199.1452L484.6013 205.1254L484.6013 205.1254L483.032 200.2014L483.032 200.2014L485.5571 216.4036L485.5571 216.4036L486.1684 223.6204L486.1684 223.6204L486.2829 221.0621L486.2829 221.0621L487.6504 229.8369C 486.5959 235.9996 486.2156 246.4423 486.5117 261.166L486.5117 261.166L488.7138 240.7825L488.7138 240.7825L488.2157 259.2875L488.2157 259.2875L485.9688 266.1862L485.9688 266.1862L486.0361 265.5724L486.0361 265.5724L473.9466 300.4219L473.9466 300.4219L474.5659 297.0034L474.5659 297.0034L471.2285 304.2997L471.2285 304.2997L456.2146 324.6674L456.2146 324.6674L466.6976 299.7711L466.6976 299.7711L469.188 297.0537L469.188 297.0537L474.6174 275.6375L474.6174 275.6375L484.626 253.6557L484.626 253.6557L485.1499 246.3247L485.1499 246.3247L482.489 240.937L482.489 240.937L480.7211 218.4422C 481.0801 230.4798 479.891 239.3689 477.1549 245.1094L477.1549 245.1094L477.8763 232.8287L477.8763 232.8287L472.8507 196.0414L472.8507 196.0414L470.2952 187.4122L470.2952 187.4122L477.0338 204.1061L477.0338 204.1061L465.1597 166.8954L465.1597 166.8954L467.9406 171.1204L467.9406 171.1204L480.4911 215.5187L480.4911 215.5187L480.0054 209.3291L480.0054 209.3291L469.1106 170.79L469.1106 170.79L449.6824 133.0126L449.6824 133.0126L454.5386 144.5518L454.5386 144.5518L443.2321 130.1115L443.2321 130.1115L444.0398 127.8489L444.0398 127.8489L437.7511 123.1109L437.7511 123.1109L428.0734 110.7507C 422.6249 105.5244 419.6375 103.4252 419.1125 104.4524L419.1125 104.4524L423.9317 109.9465L423.9317 109.9465L397.857 92.11902L397.857 92.11902L387.4614 89.04999L387.4614 89.04999L412.3628 108.0714C 414.2261 108.6796 415.6911 109.6619 416.7557 111.0184L416.7557 111.0184L413.6292 106.8315L413.6292 106.8315L417.8057 111.9907L417.8057 111.9907L432.2498 125.3489L432.2498 125.3489L432.3418 126.2786L432.3418 126.2786L432.6525 125.7208L432.6525 125.7208L444.4156 136.5991L444.4156 136.5991L440.4512 129.7509C 441.3094 129.7609 443.535 131.9765 447.1303 136.3975L447.1303 136.3975L459.7683 163.1285L459.7683 163.1285L456.1652 156.9019C 459.3645 159.9486 464.4765 174.4482 471.4989 200.3997L471.4989 200.3997L474.7824 221.2032L474.7824 221.2032L475.1727 252.4964L475.1727 252.4964L469.8925 272.1776C 472.0194 268.7568 473.8614 264.8846 475.4184 260.5622L475.4184 260.5622L475.6192 265.0986L475.6192 265.0986L462.1196 299.1674L462.1196 299.1674L455.7759 305.0602L455.7759 305.0602L440.357 326.2199L440.357 326.2199L443.2758 315.0268L443.2758 315.0268L440.311 320.0459C 439.9868 320.4626 440.2314 320.2364 441.0446 319.3694C 440.4153 319.7995 439.0388 322.7095 436.9142 328.1005C 431.6126 331.8697 425.6145 338.4592 418.9207 347.8713L418.9207 347.8713L399.635 362.9142L399.635 362.9142L400.4943 363.7542L400.4943 363.7542L382.4032 373.9606L382.4032 373.9606L381.0829 372.2625L381.0829 372.2625L373.752 373.7993L373.752 373.7993L338.3316 383.5911L338.3316 383.5911L335.618 385.1122L335.618 385.1122L325.2213 386.4653L325.2213 386.4653L302.9707 383.45L302.9707 383.45L320.4918 387.0802L320.4918 387.0802L307.1808 388.813L307.1808 388.813L322.2025 390.8684C 331.611 387.8408 336.6018 386.9593 337.1762 388.2216L337.1762 388.2216L323.2963 391.0174L323.2963 391.0174L328.2546 391.6961L328.2546 391.6961L374.9669 380.8727L374.9669 380.8727L418.4687 356.5341L418.4687 356.5341L429.3836 346.4768L429.3836 346.4768L428.4055 350.4744L428.4055 350.4744L444.143 332.1284L444.143 332.1284L435.4245 345.0476L435.4245 345.0476L439.6199 341.2157C 444.8778 331.127 451.5647 321.0372 459.682 310.9452L459.682 310.9452L467.8373 291.6649L467.8373 291.6649L466.4946 297.9622L466.4946 297.9622L462.3047 309.7366L462.3047 309.7366L441.748 342.6875L441.748 342.6875L449.4591 333.8309L449.4591 333.8309L437.0118 350.2795C 433.9998 351.5867 433.9101 350.9728 436.7414 348.437L436.7414 348.437L423.869 358.5447L423.869 358.5447L437.5267 345.677L437.5267 345.677L432.4113 349.1527L432.4113 349.1527L417.3279 361.6653L417.3279 361.6653L419.595 361.9005L419.595 361.9005L403.467 374.5632L403.467 374.5632L356.6527 394.7506L356.6527 394.7506L297.6231 397.6203M446.5392 77.75378L428.9305 67.664L411.3218 57.57532L437.4515 69.76868L446.5392 77.75378M281.8351 69.92432L325.0643 61.57294L337.8257 59.72815L328.0224 58.36615L293.7731 65.3432L281.8351 69.92432M419.7599 72.84784L409.9543 68.81323L409.9543 68.81323L400.1488 64.77863L400.1488 64.77863L406.5015 66.57977C 410.9212 68.66986 415.34 70.75879 419.7599 72.84784M400.1454 79.51019L384.5717 72.35156L383.7898 70.84845L370.8971 68.81665L375.0982 71.65497L384.9867 74.60522L387.0351 75.80151L400.1454 79.51019M212.5289 103.8531L242.3942 85.53284L247.0608 84.17761L245.8605 85.56201L229.7 93.64685L243.9367 87.78088L240.6756 91.54108L258.5591 81.75482L266.0089 78.67566L282.1772 73.98248L269.6536 75.685L273.6337 73.50641L268.1841 75.8844L267.7791 75.93927L278.4967 71.20465L265.2652 76.28204L258.4526 77.20721L226.7015 93.13721L212.5289 103.8531M288.4884 73.21857L317.0008 72.34607L318.8495 72.16345L301.1018 71.40851L290.0443 72.91278L288.4077 73.21405L288.4884 73.21857M288.1731 73.20514L288.3897 73.13794L288.3897 73.13794L288.3897 73.13684L288.3897 73.13684L287.9555 73.19617L287.9555 73.19617L287.9555 73.19617C 288.0285 73.19843 288.1003 73.20178 288.1731 73.20514M243.9367 87.78088L245.7741 85.66284L253.381 82.3429L253.0994 82.42462L245.7752 85.66058L245.8605 85.56201L250.7931 83.09442L247.0608 84.17871L248.2466 82.81104L265.2652 76.28088L267.7791 75.93927L262.5493 78.2489L262.7154 78.27014L268.1841 75.8844L269.6536 75.685L264.5204 78.4931L266.0089 78.67682L262.1242 79.80359L258.5591 81.75592L243.9367 87.78088M146.7283 163.9988L154.5651 146.6755L181.6921 111.1887L202.8142 91.4212L221.3831 79.3186L229.1582 76.97876L215.6732 86.13995L204.1648 96.7204L193.5348 103.2124L163.4709 138.2255L148.0531 162.676L146.7283 163.9988M447.9268 78.97247L447.2324 78.36316L447.2324 78.36316L446.5392 77.75378C 446.6861 77.83783 446.8342 77.92291 446.9823 78.00812C 447.2975 78.32959 447.6115 78.651 447.9268 78.97247M340.1478 78.17944L340.2118 78.17609L340.2118 78.17609L340.2768 78.17163L340.2768 78.17163L340.2768 78.17163C 340.2095 78.16602 340.1433 78.16046 340.0771 78.15485L340.0771 78.15485L340.0771 78.15375L340.0771 78.15375L340.1478 78.17944M496.5249 133.8762L488.4087 122.9709L480.2926 112.0657L447.9268 78.97247L473.8379 101.7407L496.5249 133.8762M448.6458 104.439L446.3989 103.3278L446.3989 103.3278L444.152 102.2167L444.152 102.2167L419.2035 79.1405C 429.0179 87.57367 438.8325 96.0058 448.6458 104.439M339.1158 85.93835L344.2491 85.28424L337.2581 83.58057L330.3232 84.04535L334.7666 85.61017L339.1158 85.93835M369.6598 86.80646L363.3632 83.65564L356.3441 83.73621L358.7616 84.56622L369.6598 86.80646M245.5946 85.74005L245.6844 85.70093L245.7752 85.66058L245.7752 85.65948L245.7741 85.66284L245.5946 85.74005M352.2093 91.74719L357.0969 90.39075L354.0949 89.14069L351.6292 89.7691L348.6599 89.73773L347.5078 90.09283L352.2093 91.74719M166.6871 110.2567L167.6013 107.1395L167.6013 107.1395L168.5167 104.0212L168.5167 104.0212L183.4207 90.80182C 183.0551 91.66541 182.6894 92.52899 182.3237 93.39142C 177.1118 99.01324 171.8989 104.6349 166.6871 110.2567M388.922 96.87048L387.9684 95.96655L381.4868 92.72278L380.034 92.62415L388.922 96.87048M497.0475 171.4822L480.6863 134.9604L472.4815 121.6335L471.9106 114.3798L451.1003 92.81012L456.818 95.58685L479.4209 120.6658L492.1106 140.1688L486.6015 134.3645L497.0475 171.4822M442.7643 131.4198L438.8044 126.9047L440.4512 129.7509L433.8853 123.5063L432.6525 125.7208L432.2498 125.3489L432.0266 123.0751L426.0957 116.098L417.8147 108.2227L413.6292 106.8315L412.8945 105.9242L413.5665 106.8102L410.6666 105.8469L404.563 101.847L394.7463 94.01312L408.6474 100.2016L416.3889 106.8662L414.2182 104.8018L430.6221 117.5754L423.9317 109.9476L427.9534 112.6974L421.9226 105.4717L435.5692 121.4274L437.7511 123.1109L443.2321 130.1115L442.7643 131.4198M379.1601 102.3824L365.1154 95.03912L370.3531 98.13171L379.1601 102.3824M221.8644 108.6426L228.3888 104.579L228.5637 104.3864L221.8924 108.6057L221.8644 108.6426M423.2015 112.7321L421.1172 110.6802L421.1172 110.6802L419.0341 108.6281C 418.7087 108.5195 418.3835 108.4119 418.0581 108.3033C 419.7722 109.7796 421.4863 111.2559 423.2015 112.7321M217.5668 115.0428L219.9697 113.8433L220.2894 113.4915L218.0458 114.6856L217.5668 115.0428M422.2984 117.5385L421.6018 116.6424L421.6018 116.6424L420.9063 115.7463C 420.8716 115.7273 420.8368 115.7082 420.802 115.6903L420.802 115.6903L422.2984 117.5385M466.9781 161.6578L450.1939 129.9984L461.4825 147.2344L456.6341 135.3088L449.955 129.547L446.9026 123.7897L445.0359 122.1219L449.826 129.435L448.0726 127.9229L466.9781 161.6578M436.1604 123.8894L434.7906 122.3291L434.601 122.2205L434.4777 122.4412L436.1604 123.8894M197.0225 130.3792L197.6653 129.9357L197.6653 129.9357L198.308 129.4921L198.308 129.4921L198.4471 129.3163C 197.9726 129.6702 197.497 130.0253 197.0225 130.3792M450.1939 129.9984L450.0099 129.7161L450.0099 129.7161L449.826 129.435C 449.8686 129.4719 449.9124 129.51 449.955 129.547L449.955 129.547L449.955 129.5458L449.955 129.5458L450.1939 129.9984M272.6017 135.2505L275.165 132.8669L277.1505 130.3008L276.8005 130.4128L275 132.0616L272.6017 135.2505M452.2389 162.0096L438.764 138.9905L437.4044 138.3229L439.943 143.4462L452.2389 162.0096M185.1259 146.1569L186.2286 144.7612L188.6438 139.4621L185.1259 146.1569M290.8565 142.2914L291.8762 141.0605L291.2974 141.028L287.9746 141.7369L287.9645 141.7527L290.8565 142.2914M473.5899 156.3453L471.6212 153.4039L471.6212 153.4039L469.6524 150.4636C 469.2979 147.6096 468.9435 144.7545 468.589 141.9005C 470.2559 146.7158 471.9229 151.53 473.5899 156.3453M266.3623 144.1452L266.4027 144.1385L266.4442 144.1306L266.507 144.0489L266.507 144.0477L266.3623 144.1452M285.0938 146.0986L288.2191 144.451L286.3761 144.1575L285.0938 146.0986M262.1758 149.1151L263.8798 147.4427L264.9579 146.0505L264.4452 146.0953L262.1758 149.1151M251.0556 166.285L252.018 165.8201L254.5791 157.9526L263.8697 146.1479L263.0037 146.2241L254.8214 154.9619L251.0556 166.285M253.1039 153.3837L260.5672 146.4425L259.1582 146.5691L254.846 150.5174L253.1039 153.3837M176.3098 170.883L180.7151 162.6693L180.7151 162.6693L185.1203 154.4568C 184.1971 155.6273 183.2749 156.7978 182.3528 157.9683L182.3528 157.9683L176.3098 170.883M489.1423 224.8558L486.4085 191.8209L480.3206 175.7834L473.5899 156.3441L476.3057 160.4022L488.4143 196.9543L489.6 207.8214L489.1423 224.8558M424.9301 170.9827L423.6559 168.0693L423.6559 168.0693L422.3826 165.157L422.3826 165.157L418.711 158.6482C 420.7841 162.7589 422.8571 166.8708 424.9301 170.9827M470.2952 187.4122L468.4375 182.8109L462.3978 170.062L460.4773 163.6595L463.0462 162.9325L470.2952 187.4122M137.2043 185.0522L141.9024 174.5894L141.9024 174.5894L146.5993 164.1277C 146.6419 164.084 146.6856 164.0414 146.7283 163.9988L146.7283 163.9988L137.2043 185.0522M175.3529 167.7624L175.3843 167.6985L175.3843 167.6974L175.3933 167.6459L175.3933 167.6448L175.3529 167.7624M259.9356 170.4438L260.2597 170.1493L260.584 169.8547L261.4657 167.7512L261.0529 168.0334L259.9356 170.4438M251.8991 177.7491L253.3069 176.4689L254.3098 172.6594L253.0354 173.5331L252.3141 174.5457L251.8991 177.7491M252.3781 174.0472L252.4353 173.9767L252.4914 173.9061L252.3871 173.9778L252.3781 174.0472M245.7024 182.3818L247.2605 180.4363L248.4945 176.6481L247.3481 177.4333L245.7024 182.3818M137.8527 242.8938L134.3157 219.2251L134.5871 210.1848L142.6876 176.9718L139.3648 196.2777L136.3282 217.0152L137.8527 242.8938M493.9514 227.3514L491.1313 221.8461L489.6 207.8214L489.7817 201.0829L488.4143 196.9543L487.7704 191.0603L486.0036 178.1512L490.4436 191.3527L493.1056 194.3658L493.9514 227.3514M255.4686 181.395L256.0845 180.5157L256.0845 180.5157L256.7003 179.6365L256.7003 179.6365L255.6694 180.3589C 255.6021 180.7039 255.5348 181.049 255.4686 181.395M250.8626 185.7556L251.1902 184.51L251.1902 184.51L251.5177 183.2645C 251.3965 183.3507 251.2743 183.4359 251.152 183.5221C 251.0556 184.267 250.9591 185.0107 250.8626 185.7556M444.9787 213.3894L445.2199 204.9921L445.2199 204.9921L445.4599 196.5947C 445.0326 201.1569 444.6052 205.719 444.1767 210.2812C 444.4447 211.3173 444.7117 212.3533 444.9787 213.3894M439.1936 202.9613L439.1903 202.9401L439.1903 202.9401L439.1869 202.9188C 439.1768 202.8885 439.1679 202.8594 439.1589 202.8303C 439.1701 202.874 439.1813 202.9176 439.1936 202.9613M486.2829 221.0621L485.9194 218.7323L485.9194 218.7323L485.5571 216.4036C 485.2385 212.6434 484.92 208.8844 484.6013 205.1254C 485.3014 207.3207 486.0013 209.5172 486.7013 211.7137L486.7013 211.7137L486.2829 221.0621M319.5506 222.0455L321.0797 221.0621L321.47 217.219L318.1282 211.4785L319.5506 222.0455M446.0545 220.2859L446.5335 219.1098L446.5335 219.1098L446.5952 218.2787L446.5952 218.2787L445.9356 214.5062L445.9356 214.5062L445.7213 216.2681L445.7213 216.2681L446.1375 217.8799C 446.1095 218.6819 446.0826 219.4839 446.0545 220.2859M443.6943 226.0722L444.3416 224.4862L444.3416 224.4862L443.508 217.4195C 443.3959 218.6135 443.2837 219.8064 443.1715 221.0005C 443.1559 221.6367 443.1401 222.274 443.1244 222.9113L443.1244 222.9113L443.6943 226.0722M393.3664 219.4189L393.39 219.3293L393.39 219.3293L393.4124 219.2397L393.4124 219.2397L393.0938 218.422C 393.1847 218.7547 393.2756 219.0862 393.3664 219.4189M324.3822 222.218L323.3827 220.5031L323.3827 220.5031L322.3843 218.7871L322.3843 218.7871L322.2946 221.201C 322.9901 221.5403 323.6856 221.8786 324.3822 222.218M451.1172 237.2026L452.0639 231.0914L452.0639 231.0914L453.0119 224.9802C 452.9209 223.8097 452.8313 222.6391 452.7404 221.4687L452.7404 221.4687L451.1172 237.2026M488.7138 240.7825L488.9281 232.8197L488.9281 232.8197L489.1423 224.8558L489.1423 224.8558L489.7021 231.6279C 489.3734 234.6801 489.0437 237.7313 488.7138 240.7825M444.4896 230.4731L444.5985 226.6637L444.5985 226.6637L444.53 226.0823C 444.4179 227.0031 444.3068 227.9226 444.1945 228.8423L444.1945 228.8423L444.4896 230.4731M323.7125 232.3537L322.8813 230.0576L322.8813 230.0576L322.05 227.7614L322.05 227.7614L321.9894 229.3956C 322.5638 230.3813 323.1381 231.3681 323.7125 232.3537M445.0696 233.69L445.1571 232.9116L445.2434 232.1331L445.1156 231.0455L444.8486 232.4624L445.0696 233.69M310.0166 235.3321L310.0031 235.0565L310.0031 235.0565L309.9886 234.7799L309.9886 234.7799L309.9616 234.6801C 309.9796 234.8975 309.9987 235.1147 310.0166 235.3321M488.8316 300.9113L496.0032 269.0536L499.6557 236.1542L497.042 273.748L493.929 283.4143L493.4219 287.9149L488.8316 300.9113M135.9367 281.5617L135.8324 278.4165L135.8324 278.4165L135.7281 275.2713C 135.9602 273.3313 136.1936 271.3924 136.4258 269.4524C 133.0783 260.0805 129.7298 250.7087 126.3813 241.3369L126.3813 241.3369L135.9367 281.5617M475.4184 260.5622L475.2165 256.009L475.1727 252.4964L477.1549 245.1094L476.3842 258.2324L475.4184 260.5622M441.5988 277.2046L444.8598 266.8694L448.122 256.5343L449.4771 247.7831L443.5226 269.5297L441.5988 277.2046M439.1252 270.5904L440.357 264.7614L440.357 264.7614L441.5887 258.9325C 441.2331 259.8756 440.8775 260.8198 440.523 261.7629L440.523 261.7629L441.757 248.9199C 440.8797 256.1434 440.0025 263.3669 439.1252 270.5904M476.0443 264.0244L476.2149 261.129L476.3842 258.2324L479.2055 251.4301L477.3075 260.8366L476.0443 264.0244M262.4181 270.2096L260.2845 261.9097L258.1519 253.6098L260.7118 267.4877L262.4181 270.2096M266.3028 270.0606L262.7838 255.8679L262.2947 259.0534L265.6612 268.9853L266.3028 270.0606M261.9716 262.8035L261.8853 262.5436L261.8853 262.5436L261.7978 262.2838C 261.7888 262.3443 261.7798 262.4048 261.7697 262.4663C 261.837 262.5784 261.9043 262.6904 261.9716 262.8035M475.7752 268.6146L475.6966 266.856L475.6966 266.856L475.6192 265.0986L475.6192 265.0986L476.0443 264.0244C 475.9546 265.5545 475.8648 267.0845 475.7752 268.6146M473.4979 278.2843L474.2035 276.3007L474.2035 276.3007L474.9102 274.3158C 474.8126 274.756 474.7151 275.1973 474.6174 275.6375L474.6174 275.6375L473.4979 278.2843M174.2165 276.5695L174.0931 276.1001L173.9709 275.6308L173.6107 274.9823L174.2165 276.5695M192.3379 289.9826L190.6776 284.6935L190.6776 284.6935L189.0174 279.4055C 188.4352 278.3358 187.8529 277.2662 187.2719 276.1965L187.2719 276.1965L189.3977 284.7697L189.3977 284.7697L192.3379 289.9826M467.8373 291.6649L468.6855 287.6898L468.6855 287.6898L469.5324 283.7157L469.5324 283.7157L473.167 276.8405C 472.8932 278.2283 472.6195 279.6172 472.347 281.005L472.347 281.005L467.8373 291.6649M472.1204 282.1542L472.2336 281.5796L472.2336 281.5796L472.347 281.005L472.347 281.005L473.4979 278.2843C 473.0391 279.5747 472.5792 280.8639 472.1204 282.1542M413.0829 324.1959L416.4001 321.1761L430.161 298.7877L432.3497 292.5443L416.7669 318.144L435.4784 283.6171L436.4666 280.7956L428.0476 292.644L416.3451 317.603L412.8743 321.0092L416.5863 318.4397L413.0829 324.1959M465.9303 300.6089L466.4946 297.9622L472.1204 282.1542L470.3681 291.0545L466.6976 299.7711L465.9303 300.6089M224.0216 331.7431L221.4033 328.3794L226.7453 331.071L218.9612 325.2421L214.9676 320.112L212.3292 314.1643L198.6042 297.0269L193.2431 287.1734L194.8831 292.2216L211.6887 316.2791L192.9795 291.1195L206.2446 314.6426L216.1018 327.2078L224.0216 331.7431M284.8583 300.5977L283.123 298.3867L283.0265 298.3138L279.706 295.2291L284.8583 300.5977M435.245 361.5096L453.5424 340.0307L464.2061 319.655L471.2285 304.2997L473.821 300.7837L473.9466 300.4219L472.4176 308.8562L457.1209 335.8919L435.245 361.5096M478.4438 330.3161L483.6377 315.6137L483.6377 315.6137L488.8316 300.9113C 488.3425 303.081 487.8545 305.2506 487.3654 307.4202L487.3654 307.4202L478.4438 330.3161M301.8108 307.8492L296.5788 304.9941L292.5022 304.3198L294.2331 306.5768L301.8108 307.8492M338.1173 310.1476L335.48 309.0164L332.8225 309.9494L338.1173 310.1476M324.7367 309.6447L324.1354 309.545L324.1354 309.545L323.5341 309.4465L323.5341 309.4465L323.5341 309.4454L323.5341 309.4454L323.7484 309.6078C 324.0771 309.6201 324.4069 309.6324 324.7367 309.6447M221.4033 328.3794L220.7673 328.0591L220.7673 328.0591L220.1324 327.7387C 216.205 324.2575 212.2787 320.7762 208.3514 317.295C 211.8883 319.944 215.4242 322.593 218.9612 325.2421L218.9612 325.2421L221.4033 328.3794M416.5863 318.4409L416.6772 318.2918L416.7669 318.144L416.6177 318.4184L416.5863 318.4409M441.0446 319.3694L441.0525 319.3548L441.0525 319.3548L441.0603 319.3403L441.0603 319.3403L441.0603 319.3391C 441.113 319.2888 441.1658 319.2395 441.2196 319.1891L441.2196 319.1891L441.0446 319.3694M444.143 332.1284L447.6284 326.9648L451.1138 321.8L448.5785 326.0821L444.143 332.1284M429.3836 346.4768L435.4649 337.6202L435.4649 337.6202L441.5471 328.7636L441.5471 328.7636L445.8022 322.6401C 443.802 327.3859 441.8018 332.1317 439.8028 336.8765L439.8028 336.8765L429.3836 346.4768M393.7636 342.1499L403.9909 333.4378L414.2182 324.7268L415.3781 322.8394L398.3954 336.9437L393.7636 342.1499M195.5966 323.749L195.2332 323.115L195.1973 323.0926L195.1973 323.0915L195.5966 323.749M432.5123 341.2583L433.5713 337.4802L433.5376 337.3245L432.6435 338.2262L436.9142 328.1005L440.7631 324.5722L432.5123 341.2583M449.4591 333.8309L452.8369 329.2498L456.2146 324.6674L455.068 327.3893L449.4591 333.8309M420.4912 330.3161L421.0443 329.8893L421.5973 329.4615L420.5653 330.1839L420.4912 330.3161M207.897 368.3097L196.8496 361.2072L171.5096 331.7655L191.7837 354.6725L210.2977 366.6945L207.897 368.3097M386.4776 336.1159L387.2157 335.7239L387.955 335.3318L390.4734 332.638L389.2776 333.3919L386.4776 336.1159M431.0204 360.4544L442.743 347.4558L442.743 347.4558L454.4657 334.4571C 450.8277 339.8335 447.1909 345.21 443.5529 350.5864L443.5529 350.5864L431.0204 360.4544M215.5241 347.775L212.7431 345.117L209.9622 342.4601L213.0146 346.0019L215.5241 347.775M208.1136 355.9181L200.0658 349.7553L195.5091 344.1672L198.2699 345.8361L204.7672 352.4895L204.7269 352.9857L205.9395 353.6902L208.1136 355.9181M204.8256 351.786L202.1927 349.2009L202.1927 349.2009L199.5611 346.6157C 201.3683 347.7067 203.1754 348.7988 204.9826 349.8908C 204.9299 350.5226 204.8783 351.1543 204.8256 351.786M234.802 352.6306L232.9443 350.8799L232.9443 350.8799L231.0877 349.1292C 230.6715 348.9332 230.2542 348.7371 229.8381 348.54L229.8381 348.54L231.1214 349.9569L231.1214 349.9569L234.802 352.6306M402.905 376.2086L434.4754 350.8463L434.6852 350.7992L420.553 367.0294L402.905 376.2086M210.448 356.3123L205.9395 353.6902L204.7672 352.4906L204.8256 351.786L206.7304 353.6555L210.448 356.3123M228.1778 367.8516L226.0498 366.895L226.0498 366.895L223.9217 365.9384C 219.4301 362.7294 214.9396 359.5203 210.448 356.3123L210.448 356.3123L219.0375 361.3057L219.0375 361.3057L228.1778 367.8516M270.8808 372.5996L270.3356 372.2031L249.1989 362.6655L255.1825 362.5457L254.5151 360.898L242.8127 358.4506L247.6554 361.9688L242.0005 359.4172L240.4513 357.9567L240.3099 357.9275L239.5325 357.5075L246.0142 362.7294L248.6302 362.6756L255.3048 367.5256L270.8808 372.5996M417.2425 361.6563L419.3291 359.7499L419.3291 359.7499L421.4167 357.8435C 419.8338 359.0947 418.2511 360.3458 416.6682 361.597L416.6682 361.597L417.2425 361.6563M420.2366 361.9666L419.9157 361.933L419.9157 361.933L419.595 361.9005L419.595 361.9005L423.869 358.5447C 422.6585 359.685 421.4471 360.8252 420.2366 361.9666M430.9463 360.5138L430.9833 360.4847L431.0204 360.4544L430.9889 360.4892L430.9463 360.5138M365.1244 370.7515L373.4178 368.9258L374.774 368.4474L374.1391 368.7667L379.8164 367.5167L380.8406 366.8155L377.8219 367.371L382.3741 365.7648L388.6931 361.4356L384.7893 363.4026L382.1295 365.235L383.3209 364.1418L376.3838 367.6365L366.7005 369.4074L363.961 370.7426L365.1244 370.7515M248.6302 362.6767L248.1422 362.3228L248.1422 362.3228L247.6554 361.9688C 248.1692 362.2007 248.6841 362.4337 249.1989 362.6655L249.1989 362.6655L249.1989 362.6644C 249.0094 362.6689 248.8198 362.6722 248.6302 362.6767M387.5634 365.8119L394.0575 364.3815L388.1569 365.468L387.5634 365.8119M374.774 368.4474L375.5783 368.042L375.5783 368.042L376.3838 367.6365C 376.8628 367.548 377.3429 367.4595 377.8219 367.371C 376.8055 367.7306 375.7892 368.089 374.774 368.4474M262.675 370.9139L256.2853 368.238L257.6348 369.2192L262.675 370.9139M247.2268 375.7225L245.7607 374.1689L245.7607 374.1689L244.2934 372.6142L244.2934 372.6142L237.271 370.3482C 240.5893 372.1393 243.9086 373.9314 247.2268 375.7225M255.4574 388.6887L245.5183 387.5182L218.1378 372.9345L249.5333 387.3098L223.5471 374.1443L255.4574 388.6887M312.9131 402.9251L272.4727 392.0086L237.64 375.7393L235.0746 373.9068L238.6306 375.3349L240.2516 376.4965L276.1487 392.6684L312.4936 402.1107L312.9131 402.9251M380.4109 375.0851L381.4071 374.5229L382.4032 373.9606L382.779 374.4433L380.4109 375.0851M273.618 374.5945L273.5193 374.5217L273.5193 374.5217L273.4195 374.4489C 272.9337 374.3123 272.448 374.1745 271.9622 374.0378C 272.5141 374.2238 273.0661 374.4086 273.618 374.5945M301.5303 383.618L302.854 383.4466L301.8938 383.1946L300.2021 382.9583L279.8518 377.8148L301.5606 383.1061L290.6557 380.1984L294.0244 380.279L282.7202 377.0811L280.7368 376.8963L279.0038 376.1134L277.8202 376.0081L288.8373 379.7133L275.912 376.2657L275.239 375.774L265.9742 374.9406L268.2099 375.9297L301.5303 383.618M337.414 388.1734L333.9264 387.6851L380.4109 375.0851L378.5353 376.1436L352.3943 385.1559L337.414 388.1734M351.848 376.3822L353.1986 376.0619L353.8268 375.839L352.6692 376.0193L351.848 376.3822M310.5046 411.6999L347.3306 403.0315L366.7711 400.2256L389.3336 389.8905L416.4337 375.9924L383.0135 396.2079L372.9511 400.4049L340.4541 410.2124L310.5046 411.6999M350.1239 377.1461L350.2943 377.0867L350.2943 377.0867L350.4649 377.0262L350.4649 377.0262L350.4649 377.0251L350.4649 377.0251L350.392 377.0274L350.392 377.0274L350.392 377.0274C 350.3022 377.0666 350.2136 377.1069 350.1239 377.1461M322.0646 380.9555L334.9079 379.2899L335.4699 378.6795L322.0769 380.7517L308.6458 379.4983L295.0587 380.3036L322.0646 380.9555M290.6557 380.1984L290.4527 380.1927L290.4527 380.1927L290.2508 380.1883L290.2508 380.1883L288.8373 379.7122C 289.4442 379.8747 290.05 380.0359 290.6557 380.1984M287.6157 386.1349L281.816 384.3539L276.0153 382.5718L279.3661 385.0058L287.6157 386.1349M302.9201 383.4377L303.2859 383.3906L303.2859 383.3895L301.9666 383.2058L301.9666 383.2047L302.9201 383.4377M333.002 387.936L320.4918 387.0802L325.2213 386.4642L333.9264 387.684L333.002 387.936M338.3081 388.2989L337.1762 388.2216L337.414 388.1734L338.3081 388.2989M315.9082 409.0453L306.2609 408.2321L296.6136 407.4189L299.9318 407.1837L315.9082 409.0453" stroke="none" fill="#FEC107" fill-rule="nonzero" /></g><g clip-path="url(#13)"><g clip-path="url(#14)"><g clip-path="url(#15)"><g clip-path="url(#16)"><g clip-path="url(#17)"><g transform="matrix(0.5378107 0 0 0.5370343 186.1728 500.0986)"><g transform="matrix(1 0 0 1 0 0)"><image x="0" y="0" xlink:href="img_03.png" width="197" height="185" /></g></g></g></g></g></g></g><g clip-path="url(#18)"><g clip-path="url(#19)"><g clip-path="url(#20)"><g clip-path="url(#21)"><g clip-path="url(#22)"><g transform="matrix(0.5386937 0 0 0.5370343 324.576 606.9827)"><g transform="matrix(1 0 0 1 0 0)"><image x="0" y="0" xlink:href="img_04.png" width="201" height="185" /></g></g></g></g></g></g></g><g clip-path="url(#23)"></g><g clip-path="url(#24)"><g transform="matrix(0.1246875 0 0 0.1241722 489.3888 8.540771)"><g transform="matrix(1 0 0 1 0 0)"><image x="0" y="0" xlink:href="img_05.png" width="800" height="453" /></g></g></g><g clip-path="url(#25)"></g></g></g></svg>