<svg xmlns="http://www.w3.org/2000/svg" xmlns:xlink="http://www.w3.org/1999/xlink" id="body_1" preserveAspectRatio="xMinYMin meet" viewBox="0 0 793 1123"><defs><clipPath id="1"><path id="" clip-rule="evenodd" transform="matrix(1 0 0 1 0 0)" d="M0 842L0 -0.25L0 -0.25L595.5 -0.25L595.5 -0.25L595.5 842L595.5 842L0 842z" /></clipPath><clipPath id="2"><path id="" clip-rule="evenodd" transform="matrix(1 0 0 1 0 0)" d="M0 -0.249939L595.5 -0.249939L595.5 -0.249939L595.5 842.0001L595.5 842.0001L0 842.0001z" /></clipPath><clipPath id="3"><path id="" clip-rule="evenodd" transform="matrix(1 0 0 1 0 0)" d="M0 -0.249939L595.5 -0.249939L595.5 -0.249939L595.5 842.0001L595.5 842.0001L0 842.0001z" /></clipPath><clipPath id="4"><path id="" clip-rule="evenodd" transform="matrix(1 0 0 1 0 0)" d="M0 -0.249939L595.5 -0.249939L595.5 -0.249939L595.5 842.0001L595.5 842.0001L0 842.0001z" /></clipPath><clipPath id="5"><path id="" clip-rule="evenodd" transform="matrix(1 0 0 1 0 0)" d="M75.59999 59.27008L519.12 59.27008L519.12 59.27008L519.12 839.5101L519.12 839.5101L75.59999 839.5101z" /></clipPath><clipPath id="6"><path id="" clip-rule="evenodd" transform="matrix(1 0 0 1 0 0)" d="M76.4271 59.27765L518.9271 59.27765L518.9271 59.27765L518.9271 839.2776L518.9271 839.2776L76.4271 839.2776z" /></clipPath><clipPath id="7"><path id="" clip-rule="evenodd" transform="matrix(1 0 0 1 0 0)" d="M6.48 77.75006L588.72 77.75006L588.72 77.75006L588.72 297.5901L588.72 297.5901L6.48 297.5901z" /></clipPath><clipPath id="8"><path id="" clip-rule="evenodd" transform="matrix(1 0 0 1 0 0)" d="M21.50975 92.61786L574.4169 92.61786L574.4169 92.61786L574.4169 283.8939L574.4169 283.8939L21.50975 283.8939z" /></clipPath><clipPath id="9"><path id="" clip-rule="evenodd" transform="matrix(1 0 0 1 0 0)" d="M50.75975 92.61786L544.5159 92.61786C 560.6702 92.61786 573.7659 105.7136 573.7659 121.8679L573.7659 121.8679L573.7659 254.6439C 573.7659 270.7982 560.6702 283.8939 544.5159 283.8939L544.5159 283.8939L50.75975 283.8939C 34.60542 283.8939 21.50975 270.7982 21.50975 254.6439L21.50975 254.6439L21.50975 121.8679C 21.50975 105.7136 34.60542 92.61786 50.75975 92.61786z" /></clipPath><clipPath id="10"><path id="" clip-rule="evenodd" transform="matrix(1 0 0 1 0 0)" d="M21.50975 92.61786L573.5097 92.61786L573.5097 92.61786L573.5097 283.8679L573.5097 283.8679L21.50975 283.8679z" /></clipPath><clipPath id="11"><path id="" clip-rule="evenodd" transform="matrix(1 0 0 1 0 0)" d="M21.50975 92.61835L573.7701 92.61835L573.7701 92.61835L573.7701 285.6125L573.7701 285.6125L21.50975 285.6125z" /></clipPath><clipPath id="12"><path id="" clip-rule="evenodd" transform="matrix(1 0 0 1 0 0)" d="M50.75922 92.61835L544.5063 92.61835C 560.6604 92.61835 573.7558 105.7137 573.7558 121.8678L573.7558 121.8678L573.7558 254.6414C 573.7558 270.7954 560.6604 283.8909 544.5063 283.8909L544.5063 283.8909L50.75922 283.8909C 34.60518 283.8909 21.50975 270.7954 21.50975 254.6414L21.50975 254.6414L21.50975 121.8678C 21.50975 105.7137 34.60518 92.61835 50.75922 92.61835z" /></clipPath><clipPath id="13"><path id="" clip-rule="evenodd" transform="matrix(1 0 0 1 0 0)" d="M0 -0.249939L595.5 -0.249939L595.5 -0.249939L595.5 842.0001L595.5 842.0001L0 842.0001z" /></clipPath><clipPath id="14"><path id="" clip-rule="evenodd" transform="matrix(1 0 0 1 0 0)" d="M0 -0.249939L595.5 -0.249939L595.5 -0.249939L595.5 842.0001L595.5 842.0001L0 842.0001z" /></clipPath><clipPath id="15"><path id="" clip-rule="evenodd" transform="matrix(1 0 0 1 0 0)" d="M399.0929 118.8522L548.7446 118.8522L548.7446 118.8522L548.7446 257.6595L548.7446 257.6595L399.0929 257.6595z" /></clipPath><clipPath id="16"><path id="" clip-rule="evenodd" transform="matrix(1 0 0 1 0 0)" d="M473.6632 118.8522C 432.4791 118.8522 399.0929 149.9253 399.0929 188.2559C 399.0929 226.5865 432.4791 257.6595 473.6632 257.6595C 514.8472 257.6595 548.2335 226.5865 548.2335 188.2559C 548.2335 149.9253 514.8472 118.8522 473.6632 118.8522z" /></clipPath><clipPath id="17"><path id="" clip-rule="evenodd" transform="matrix(1 0 0 1 0 0)" d="M399.0929 118.8522L548.2024 118.8522L548.2024 118.8522L548.2024 257.6595L548.2024 257.6595L399.0929 257.6595z" /></clipPath><clipPath id="18"><path id="" clip-rule="evenodd" transform="matrix(1 0 0 1 0 0)" d="M0 -0.249939L595.5 -0.249939L595.5 -0.249939L595.5 842.0001L595.5 842.0001L0 842.0001z" /></clipPath><clipPath id="19"><path id="" clip-rule="evenodd" transform="matrix(1 0 0 1 0 0)" d="M6.48 521.27L588.72 521.27L588.72 521.27L588.72 785.75L588.72 785.75L6.48 785.75z" /></clipPath><clipPath id="20"><path id="" clip-rule="evenodd" transform="matrix(1 0 0 1 0 0)" d="M21.50975 536.1721L574.6874 536.1721L574.6874 536.1721L574.6874 772.5886L574.6874 772.5886L21.50975 772.5886z" /></clipPath><clipPath id="21"><path id="" clip-rule="evenodd" transform="matrix(1 0 0 1 0 0)" d="M50.75975 536.1721L544.5159 536.1721C 560.6702 536.1721 573.7659 549.2678 573.7659 565.4221L573.7659 565.4221L573.7659 743.3386C 573.7659 759.4929 560.6702 772.5886 544.5159 772.5886L544.5159 772.5886L50.75975 772.5886C 34.60542 772.5886 21.50975 759.4929 21.50975 743.3386L21.50975 743.3386L21.50975 565.4221C 21.50975 549.2678 34.60542 536.1721 50.75975 536.1721z" /></clipPath><clipPath id="22"><path id="" clip-rule="evenodd" transform="matrix(1 0 0 1 0 0)" d="M21.50975 536.1721L573.5097 536.1721L573.5097 536.1721L573.5097 772.4221L573.5097 772.4221L21.50975 772.4221z" /></clipPath><clipPath id="23"><path id="" clip-rule="evenodd" transform="matrix(1 0 0 1 0 0)" d="M21.50975 536.173L573.7701 536.173L573.7701 536.173L573.7701 773.7043L573.7701 773.7043L21.50975 773.7043z" /></clipPath><clipPath id="24"><path id="" clip-rule="evenodd" transform="matrix(1 0 0 1 0 0)" d="M50.75922 536.173L544.5063 536.173C 560.6604 536.173 573.7558 549.2684 573.7558 565.4224L573.7558 565.4224L573.7558 743.3357C 573.7558 759.4897 560.6604 772.5852 544.5063 772.5852L544.5063 772.5852L50.75922 772.5852C 34.60518 772.5852 21.50975 759.4897 21.50975 743.3357L21.50975 743.3357L21.50975 565.4224C 21.50975 549.2684 34.60518 536.173 50.75922 536.173z" /></clipPath><clipPath id="25"><path id="" clip-rule="evenodd" transform="matrix(1 0 0 1 0 0)" d="M0 -0.249939L595.5 -0.249939L595.5 -0.249939L595.5 842.0001L595.5 842.0001L0 842.0001z" /></clipPath><clipPath id="26"><path id="" clip-rule="evenodd" transform="matrix(1 0 0 1 0 0)" d="M0 -0.249939L595.5 -0.249939L595.5 -0.249939L595.5 842.0001L595.5 842.0001L0 842.0001z" /></clipPath><clipPath id="27"><path id="" clip-rule="evenodd" transform="matrix(1 0 0 1 0 0)" d="M416.815 567.5016L566.4667 567.5016L566.4667 567.5016L566.4667 706.309L566.4667 706.309L416.815 706.309z" /></clipPath><clipPath id="28"><path id="" clip-rule="evenodd" transform="matrix(1 0 0 1 0 0)" d="M491.3853 567.5016C 450.2013 567.5016 416.815 598.5747 416.815 636.9053C 416.815 675.2359 450.2013 706.309 491.3853 706.309C 532.5693 706.309 565.9556 675.2359 565.9556 636.9053C 565.9556 598.5747 532.5693 567.5016 491.3853 567.5016z" /></clipPath><clipPath id="29"><path id="" clip-rule="evenodd" transform="matrix(1 0 0 1 0 0)" d="M416.815 567.5016L565.9246 567.5016L565.9246 567.5016L565.9246 706.309L565.9246 706.309L416.815 706.309z" /></clipPath><clipPath id="30"><path id="" clip-rule="evenodd" transform="matrix(1 0 0 1 0 0)" d="M152.5896 293.0609L442.8396 293.0609L442.8396 293.0609L442.8396 527.0609L442.8396 527.0609L152.5896 527.0609z" /></clipPath><clipPath id="31"><path id="" clip-rule="evenodd" transform="matrix(1 0 0 1 0 0)" d="M0 -0.249939L595.5 -0.249939L595.5 -0.249939L595.5 842.0001L595.5 842.0001L0 842.0001z" /></clipPath><clipPath id="32"><path id="" clip-rule="evenodd" transform="matrix(1 0 0 1 0 0)" d="M500.1589 17.08496L574.4089 17.08496L574.4089 17.08496L574.4089 59.08496L574.4089 59.08496L500.1589 59.08496z" /></clipPath><clipPath id="33"><path id="" clip-rule="evenodd" transform="matrix(1 0 0 1 0 0)" d="M0 -0.249939L595.5 -0.249939L595.5 -0.249939L595.5 842.0001L595.5 842.0001L0 842.0001z" /></clipPath></defs><g transform="matrix(1.333333 0 0 1.333333 0 0)"><g clip-path="url(#1)"><g clip-path="url(#2)"><path id="1" transform="matrix(1 0 0 -1 0 842)" d="M0 842.2499L595.4999 842.2499L595.4999 -6.103516E-05L0 -6.103516E-05z" stroke="none" fill="#FFFFFF" fill-rule="nonzero" /></g><g clip-path="url(#3)"><path id="2" transform="matrix(1 0 0 -1 0 842)" d="M0 842.2499L595.4999 842.2499L595.4999 -6.103516E-05L0 -6.103516E-05z" stroke="none" fill="#FFFFFF" fill-rule="nonzero" /></g><g clip-path="url(#4)"><g><g clip-path="url(#5)"><g clip-path="url(#6)"><g transform="matrix(0 0.5128205 -0.5127462 0 518.9271 59.27765)"><g transform="matrix(1 0 0 1 0 0)"><image x="0" y="0" xlink:href="img_01.png" width="1521" height="863" /></g></g></g></g></g><g><g clip-path="url(#7)"><g clip-path="url(#8)"><g clip-path="url(#9)"><path id="4" transform="matrix(1 0 0 -1 0 842)" d="M21.50974 749.3821L573.6697 749.3821L573.6697 558.1061L21.50974 558.1061z" stroke="none" fill="#A0FF8C" fill-rule="nonzero" fill-opacity="0.1764706" /></g></g><g clip-path="url(#10)"><g clip-path="url(#11)"><g clip-path="url(#12)"><path id="5" transform="matrix(1 0 0 -1 0 842)" d="M50.75921 749.3817L544.5063 749.3817C 560.6604 749.3817 573.7558 736.2862 573.7558 720.1322L573.7558 720.1322L573.7558 587.3586C 573.7558 571.2046 560.6604 558.1091 544.5063 558.1091L544.5063 558.1091L50.75921 558.1091C 34.60518 558.1091 21.50974 571.2046 21.50974 587.3586L21.50974 587.3586L21.50974 720.1322C 21.50974 736.2862 34.60518 749.3817 50.75921 749.3817z" stroke="#000000" stroke-width="6" fill="none" /></g></g></g></g></g></g><g clip-path="url(#13)"><g clip-path="url(#14)"><g clip-path="url(#15)"><g clip-path="url(#16)"><g clip-path="url(#17)"><g transform="matrix(0.5151056 0 0 0.5141015 291.7196 118.8522)"><g transform="matrix(1 0 0 1 0 0)"><image x="0" y="0" xlink:href="img_02.png" width="500" height="270" /></g></g></g></g></g></g></g><g clip-path="url(#18)"><path id="58" transform="matrix(1 0 0 -1 0 842)" d="M73.77755 664.3674C 73.77755 664.069 73.72046 663.782 73.60628 663.5063C 73.4921 663.2307 73.32951 662.9874 73.11855 662.7764C 72.90756 662.5654 72.66425 662.4028 72.38859 662.2886C 72.11293 662.1744 71.82592 662.1174 71.52755 662.1174C 71.22919 662.1174 70.94217 662.1744 70.66651 662.2886C 70.39085 662.4028 70.14754 662.5654 69.93656 662.7764C 69.72559 662.9874 69.563 663.2307 69.44882 663.5063C 69.33464 663.782 69.27755 664.069 69.27755 664.3674C 69.27755 664.6658 69.33464 664.9528 69.44882 665.2284C 69.563 665.5041 69.72559 665.7474 69.93656 665.9584C 70.14754 666.1693 70.39085 666.3319 70.66651 666.4461C 70.94217 666.5603 71.22919 666.6174 71.52755 666.6174C 71.82592 666.6174 72.11293 666.5603 72.38859 666.4461C 72.66425 666.3319 72.90756 666.1693 73.11855 665.9584C 73.32951 665.7474 73.4921 665.5041 73.60628 665.2284C 73.72046 664.9528 73.77755 664.6658 73.77755 664.3674z" stroke="none" fill="#000000" fill-rule="nonzero" /><path id="76" transform="matrix(1 0 0 -1 0 842)" d="M73.77755 646.3674C 73.77755 646.069 73.72046 645.782 73.60628 645.5063C 73.4921 645.2307 73.32951 644.9874 73.11855 644.7764C 72.90756 644.5654 72.66425 644.4028 72.38859 644.2886C 72.11293 644.1745 71.82592 644.1174 71.52755 644.1174C 71.22919 644.1174 70.94217 644.1745 70.66651 644.2886C 70.39085 644.4028 70.14754 644.5654 69.93656 644.7764C 69.72559 644.9874 69.563 645.2307 69.44882 645.5063C 69.33464 645.782 69.27755 646.069 69.27755 646.3674C 69.27755 646.6658 69.33464 646.9528 69.44882 647.2284C 69.563 647.5041 69.72559 647.7474 69.93656 647.9584C 70.14754 648.1694 70.39085 648.3319 70.66651 648.4461C 70.94217 648.5603 71.22919 648.6174 71.52755 648.6174C 71.82592 648.6174 72.11293 648.5603 72.38859 648.4461C 72.66425 648.3319 72.90756 648.1694 73.11855 647.9584C 73.32951 647.7474 73.4921 647.5041 73.60628 647.2284C 73.72046 646.9528 73.77755 646.6658 73.77755 646.3674z" stroke="none" fill="#000000" fill-rule="nonzero" /><path id="90" transform="matrix(1 0 0 -1 0 842)" d="M73.77755 628.3674C 73.77755 628.069 73.72046 627.782 73.60628 627.5063C 73.4921 627.2307 73.32951 626.9874 73.11855 626.7764C 72.90756 626.5654 72.66425 626.4028 72.38859 626.2886C 72.11293 626.1745 71.82592 626.1174 71.52755 626.1174C 71.22919 626.1174 70.94217 626.1745 70.66651 626.2886C 70.39085 626.4028 70.14754 626.5654 69.93656 626.7764C 69.72559 626.9874 69.563 627.2307 69.44882 627.5063C 69.33464 627.782 69.27755 628.069 69.27755 628.3674C 69.27755 628.6658 69.33464 628.9528 69.44882 629.2284C 69.563 629.5041 69.72559 629.7474 69.93656 629.9584C 70.14754 630.1693 70.39085 630.3319 70.66651 630.4461C 70.94217 630.5603 71.22919 630.6174 71.52755 630.6174C 71.82592 630.6174 72.11293 630.5603 72.38859 630.4461C 72.66425 630.3319 72.90756 630.1693 73.11855 629.9584C 73.32951 629.7474 73.4921 629.5041 73.60628 629.2284C 73.72046 628.9528 73.77755 628.6658 73.77755 628.3674z" stroke="none" fill="#000000" fill-rule="nonzero" /><path id="110" transform="matrix(1 0 0 -1 0 842)" d="M73.77755 610.3674C 73.77755 610.069 73.72046 609.782 73.60628 609.5063C 73.4921 609.2307 73.32951 608.9874 73.11855 608.7764C 72.90756 608.5654 72.66425 608.4028 72.38859 608.2887C 72.11293 608.1745 71.82592 608.1174 71.52755 608.1174C 71.22919 608.1174 70.94217 608.1745 70.66651 608.2887C 70.39085 608.4028 70.14754 608.5654 69.93656 608.7764C 69.72559 608.9874 69.563 609.2307 69.44882 609.5063C 69.33464 609.782 69.27755 610.069 69.27755 610.3674C 69.27755 610.6658 69.33464 610.9528 69.44882 611.2284C 69.563 611.5041 69.72559 611.7474 69.93656 611.9584C 70.14754 612.1694 70.39085 612.3319 70.66651 612.4461C 70.94217 612.5603 71.22919 612.6174 71.52755 612.6174C 71.82592 612.6174 72.11293 612.5603 72.38859 612.4461C 72.66425 612.3319 72.90756 612.1694 73.11855 611.9584C 73.32951 611.7474 73.4921 611.5041 73.60628 611.2284C 73.72046 610.9528 73.77755 610.6658 73.77755 610.3674z" stroke="none" fill="#000000" fill-rule="nonzero" /><path id="146" transform="matrix(1 0 0 -1 0 842)" d="M73.77755 592.3674C 73.77755 592.069 73.72046 591.782 73.60628 591.5063C 73.4921 591.2307 73.32951 590.9874 73.11855 590.7764C 72.90756 590.5654 72.66425 590.4028 72.38859 590.2886C 72.11293 590.1744 71.82592 590.1174 71.52755 590.1174C 71.22919 590.1174 70.94217 590.1744 70.66651 590.2886C 70.39085 590.4028 70.14754 590.5654 69.93656 590.7764C 69.72559 590.9874 69.563 591.2307 69.44882 591.5063C 69.33464 591.782 69.27755 592.069 69.27755 592.3674C 69.27755 592.6658 69.33464 592.9528 69.44882 593.2285C 69.563 593.5041 69.72559 593.7474 69.93656 593.9584C 70.14754 594.1693 70.39085 594.3319 70.66651 594.4461C 70.94217 594.5603 71.22919 594.6174 71.52755 594.6174C 71.82592 594.6174 72.11293 594.5603 72.38859 594.4461C 72.66425 594.3319 72.90756 594.1693 73.11855 593.9584C 73.32951 593.7474 73.4921 593.5041 73.60628 593.2285C 73.72046 592.9528 73.77755 592.6658 73.77755 592.3674z" stroke="none" fill="#000000" fill-rule="nonzero" /><g><g clip-path="url(#19)"><g clip-path="url(#20)"><g clip-path="url(#21)"><path id="159" transform="matrix(1 0 0 -1 0 842)" d="M21.50974 305.8279L573.764 305.8279L573.764 69.41138L21.50974 69.41138z" stroke="none" fill="#A0FF8C" fill-rule="nonzero" fill-opacity="0.1764706" /></g></g><g clip-path="url(#22)"><g clip-path="url(#23)"><g clip-path="url(#24)"><path id="160" transform="matrix(1 0 0 -1 0 842)" d="M50.75921 305.827L544.5063 305.827C 560.6604 305.827 573.7558 292.7316 573.7558 276.5775L573.7558 276.5775L573.7558 98.66428C 573.7558 82.51022 560.6604 69.41476 544.5063 69.41476L544.5063 69.41476L50.75921 69.41476C 34.60518 69.41476 21.50974 82.51022 21.50974 98.66428L21.50974 98.66428L21.50974 276.5775C 21.50974 292.7316 34.60518 305.827 50.75921 305.827z" stroke="#000000" stroke-width="6" fill="none" /></g></g></g></g></g></g><g clip-path="url(#25)"><g clip-path="url(#26)"><g clip-path="url(#27)"><g clip-path="url(#28)"><g clip-path="url(#29)"><g transform="matrix(0.5151056 0 0 0.5141015 309.4418 567.5016)"><g transform="matrix(1 0 0 1 0 0)"><image x="0" y="0" xlink:href="img_02.png" width="500" height="270" /></g></g></g></g></g></g></g><g clip-path="url(#30)"><g transform="matrix(0.6059498 0 0 0.6046099 152.5896 279.7985)"><g transform="matrix(1 0 0 1 0 0)"><image x="0" y="0" xlink:href="img_03.png" width="479" height="423" /></g></g></g><g clip-path="url(#31)"><path id="222" transform="matrix(1 0 0 -1 0 842)" d="M62.59709 210.9281C 62.59709 210.6298 62.54 210.3428 62.42582 210.0671C 62.31163 209.7914 62.14906 209.5481 61.93808 209.3371C 61.7271 209.1262 61.48378 208.9636 61.20813 208.8494C 60.93247 208.7352 60.64546 208.6781 60.34709 208.6781C 60.04872 208.6781 59.76171 208.7352 59.48605 208.8494C 59.2104 208.9636 58.96708 209.1262 58.7561 209.3371C 58.54512 209.5481 58.38254 209.7914 58.26836 210.0671C 58.15418 210.3428 58.09709 210.6298 58.09709 210.9281C 58.09709 211.2265 58.15418 211.5135 58.26836 211.7892C 58.38254 212.0648 58.54512 212.3082 58.7561 212.5191C 58.96708 212.7301 59.2104 212.8927 59.48605 213.0069C 59.76171 213.121 60.04872 213.1781 60.34709 213.1781C 60.64546 213.1781 60.93247 213.121 61.20813 213.0069C 61.48378 212.8927 61.7271 212.7301 61.93808 212.5191C 62.14906 212.3082 62.31163 212.0648 62.42582 211.7892C 62.54 211.5135 62.59709 211.2265 62.59709 210.9281z" stroke="none" fill="#000000" fill-rule="nonzero" /><path id="264" transform="matrix(1 0 0 -1 0 842)" d="M62.59709 192.9281C 62.59709 192.6298 62.54 192.3428 62.42582 192.0671C 62.31163 191.7915 62.14906 191.5481 61.93808 191.3372C 61.7271 191.1262 61.48378 190.9636 61.20813 190.8494C 60.93247 190.7352 60.64546 190.6781 60.34709 190.6781C 60.04872 190.6781 59.76171 190.7352 59.48605 190.8494C 59.2104 190.9636 58.96708 191.1262 58.7561 191.3372C 58.54512 191.5481 58.38254 191.7915 58.26836 192.0671C 58.15418 192.3428 58.09709 192.6298 58.09709 192.9281C 58.09709 193.2265 58.15418 193.5135 58.26836 193.7892C 58.38254 194.0648 58.54512 194.3082 58.7561 194.5191C 58.96708 194.7301 59.2104 194.8927 59.48605 195.0069C 59.76171 195.121 60.04872 195.1781 60.34709 195.1781C 60.64546 195.1781 60.93247 195.121 61.20813 195.0069C 61.48378 194.8927 61.7271 194.7301 61.93808 194.5191C 62.14906 194.3082 62.31163 194.0648 62.42582 193.7892C 62.54 193.5135 62.59709 193.2265 62.59709 192.9281z" stroke="none" fill="#000000" fill-rule="nonzero" /><path id="294" transform="matrix(1 0 0 -1 0 842)" d="M62.59709 174.9281C 62.59709 174.6298 62.54 174.3428 62.42582 174.0671C 62.31163 173.7915 62.14906 173.5481 61.93808 173.3372C 61.7271 173.1262 61.48378 172.9636 61.20813 172.8494C 60.93247 172.7352 60.64546 172.6781 60.34709 172.6781C 60.04872 172.6781 59.76171 172.7352 59.48605 172.8494C 59.2104 172.9636 58.96708 173.1262 58.7561 173.3372C 58.54512 173.5481 58.38254 173.7915 58.26836 174.0671C 58.15418 174.3428 58.09709 174.6298 58.09709 174.9281C 58.09709 175.2265 58.15418 175.5135 58.26836 175.7892C 58.38254 176.0648 58.54512 176.3082 58.7561 176.5191C 58.96708 176.7301 59.2104 176.8927 59.48605 177.0069C 59.76171 177.121 60.04872 177.1781 60.34709 177.1781C 60.64546 177.1781 60.93247 177.121 61.20813 177.0069C 61.48378 176.8927 61.7271 176.7301 61.93808 176.5191C 62.14906 176.3082 62.31163 176.0648 62.42582 175.7892C 62.54 175.5135 62.59709 175.2265 62.59709 174.9281z" stroke="none" fill="#000000" fill-rule="nonzero" /><path id="328" transform="matrix(1 0 0 -1 0 842)" d="M62.59709 156.9281C 62.59709 156.6298 62.54 156.3428 62.42582 156.0671C 62.31163 155.7915 62.14906 155.5481 61.93808 155.3372C 61.7271 155.1262 61.48378 154.9636 61.20813 154.8494C 60.93247 154.7352 60.64546 154.6781 60.34709 154.6781C 60.04872 154.6781 59.76171 154.7352 59.48605 154.8494C 59.2104 154.9636 58.96708 155.1262 58.7561 155.3372C 58.54512 155.5481 58.38254 155.7915 58.26836 156.0671C 58.15418 156.3428 58.09709 156.6298 58.09709 156.9281C 58.09709 157.2265 58.15418 157.5135 58.26836 157.7892C 58.38254 158.0648 58.54512 158.3082 58.7561 158.5191C 58.96708 158.7301 59.2104 158.8927 59.48605 159.0069C 59.76171 159.121 60.04872 159.1781 60.34709 159.1781C 60.64546 159.1781 60.93247 159.121 61.20813 159.0069C 61.48378 158.8927 61.7271 158.7301 61.93808 158.5191C 62.14906 158.3082 62.31163 158.0648 62.42582 157.7892C 62.54 157.5135 62.59709 157.2265 62.59709 156.9281z" stroke="none" fill="#000000" fill-rule="nonzero" /><path id="348" transform="matrix(1 0 0 -1 0 842)" d="M62.59709 138.9281C 62.59709 138.6298 62.54 138.3428 62.42582 138.0671C 62.31163 137.7915 62.14906 137.5481 61.93808 137.3372C 61.7271 137.1262 61.48378 136.9636 61.20813 136.8494C 60.93247 136.7352 60.64546 136.6781 60.34709 136.6781C 60.04872 136.6781 59.76171 136.7352 59.48605 136.8494C 59.2104 136.9636 58.96708 137.1262 58.7561 137.3372C 58.54512 137.5481 58.38254 137.7915 58.26836 138.0671C 58.15418 138.3428 58.09709 138.6298 58.09709 138.9281C 58.09709 139.2265 58.15418 139.5135 58.26836 139.7892C 58.38254 140.0648 58.54512 140.3082 58.7561 140.5191C 58.96708 140.7301 59.2104 140.8927 59.48605 141.0069C 59.76171 141.121 60.04872 141.1781 60.34709 141.1781C 60.64546 141.1781 60.93247 141.121 61.20813 141.0069C 61.48378 140.8927 61.7271 140.7301 61.93808 140.5191C 62.14906 140.3082 62.31163 140.0648 62.42582 139.7892C 62.54 139.5135 62.59709 139.2265 62.59709 138.9281z" stroke="none" fill="#000000" fill-rule="nonzero" /></g><g clip-path="url(#32)"><g transform="matrix(0.04881657 0 0 0.04866743 500.1589 17.08502)"><g transform="matrix(1 0 0 1 0 0)"><image x="0" y="0" xlink:href="img_04.png" width="1521" height="863" /></g></g></g><g clip-path="url(#33)"></g></g></g></svg>