<svg xmlns="http://www.w3.org/2000/svg" xmlns:xlink="http://www.w3.org/1999/xlink" id="body_1" preserveAspectRatio="xMinYMin meet" viewBox="0 0 793 1123"><defs><clipPath id="1"><path id="" clip-rule="evenodd" transform="matrix(1 0 0 1 0 0)" d="M0 842L0 -0.250061L0 -0.250061L595.5 -0.250061L595.5 -0.250061L595.5 842L595.5 842L0 842z" /></clipPath><clipPath id="2"><path id="" clip-rule="evenodd" transform="matrix(1 0 0 1 0 0)" d="M0 -0.25L595.5 -0.25L595.5 -0.25L595.5 842.0012L595.5 842.0012L0 842.0012z" /></clipPath><clipPath id="3"><path id="" clip-rule="evenodd" transform="matrix(1 0 0 1 0 0)" d="M0 -0.25L595.5 -0.25L595.5 -0.25L595.5 842.0012L595.5 842.0012L0 842.0012z" /></clipPath><clipPath id="4"><path id="" clip-rule="evenodd" transform="matrix(1 0 0 1 0 0)" d="M0 -0.25L595.5 -0.25L595.5 -0.25L595.5 842.0012L595.5 842.0012L0 842.0012z" /></clipPath><clipPath id="5"><path id="" clip-rule="evenodd" transform="matrix(1 0 0 1 0 0)" d="M78.71999 30.71002L522.24 30.71002L522.24 30.71002L522.24 810.95L522.24 810.95L78.71999 810.95z" /></clipPath><clipPath id="6"><path id="" clip-rule="evenodd" transform="matrix(1 0 0 1 0 0)" d="M79.51786 30.75177L522.0178 30.75177L522.0178 30.75177L522.0178 810.7518L522.0178 810.7518L79.51786 810.7518z" /></clipPath><clipPath id="7"><path id="" clip-rule="evenodd" transform="matrix(1 0 0 1 0 0)" d="M0 -0.25L595.5 -0.25L595.5 -0.25L595.5 842.0012L595.5 842.0012L0 842.0012z" /></clipPath><clipPath id="8"><path id="" clip-rule="evenodd" transform="matrix(1 0 0 1 0 0)" d="M0 -0.25L595.5 -0.25L595.5 -0.25L595.5 842.0012L595.5 842.0012L0 842.0012z" /></clipPath><clipPath id="9"><path id="" clip-rule="evenodd" transform="matrix(1 0 0 1 0 0)" d="M45.94584 8.540771L286.925 8.540771L286.925 8.540771L286.925 250.4607L286.925 250.4607L45.94584 250.4607z" /></clipPath><clipPath id="10"><path id="" clip-rule="evenodd" transform="matrix(1 0 0 1 0 0)" d="M73.69584 8.540771L259.176 8.540771C 266.5344 8.540771 273.5928 11.46442 278.7984 16.66852C 284.0016 21.87268 286.9248 28.93091 286.9248 36.29071L286.9248 36.29071L286.9248 221.9545C 286.9248 229.3143 284.0016 236.3725 278.7984 241.5764C 273.5928 246.782 266.5344 249.7052 259.176 249.7052L259.176 249.7052L73.69584 249.7052C 66.336 249.7052 59.27784 246.782 54.07368 241.5764C 48.86952 236.3725 45.94584 229.3143 45.94584 221.9545L45.94584 221.9545L45.94584 36.29071C 45.94584 28.93091 48.86952 21.87268 54.07368 16.66852C 59.27784 11.46442 66.336 8.540771 73.69584 8.540771z" /></clipPath><clipPath id="11"><path id="" clip-rule="evenodd" transform="matrix(1 0 0 1 0 0)" d="M58.8828 223.3772L268.8828 223.3772L268.8828 223.3772L268.8828 227.8772L268.8828 227.8772L58.8828 227.8772z" /></clipPath><clipPath id="12"><path id="" clip-rule="evenodd" transform="matrix(1 0 0 1 0 0)" d="M58.8 223.4301L269.04 223.4301L269.04 223.4301L269.04 227.9901L269.04 227.9901L58.8 227.9901z" /></clipPath><mask id="m1"><clipPath id="13"><path id="" clip-rule="evenodd" transform="matrix(1 0 0 1 0 0)" d="M58.8 223.4301L269.04 223.4301L269.04 223.4301L269.04 227.9901L269.04 227.9901L58.8 227.9901z" /></clipPath><g><g><g clip-path="url(#13)"><path id="5" transform="matrix(1 0 0 -1 0 842)" d="M58.8 618.5699L269.04 618.5699L269.04 614.0099L58.8 614.0099z" stroke="none" fill="#000000" fill-rule="nonzero" /></g></g></g></mask><clipPath id="14"><path id="" clip-rule="evenodd" transform="matrix(1 0 0 1 0 0)" d="M58.8 223.4301L269.04 223.4301L269.04 223.4301L269.04 227.9901L269.04 227.9901L58.8 227.9901z" /></clipPath><clipPath id="15"><path id="" clip-rule="evenodd" transform="matrix(1 0 0 1 0 0)" d="M58.55999 223.4474L269.28 223.4474L269.28 223.4474L269.28 227.9573L269.28 227.9573L58.55999 227.9573z" /></clipPath><mask id="m2"><clipPath id="16"><path id="" clip-rule="evenodd" transform="matrix(1 0 0 1 0 0)" d="M58.8 223.4301L269.04 223.4301L269.04 223.4301L269.04 227.9901L269.04 227.9901L58.8 227.9901z" /></clipPath><clipPath id="17"><path id="" clip-rule="evenodd" transform="matrix(1 0 0 1 0 0)" d="M58.8 223.4301L269.04 223.4301L269.04 223.4301L269.04 227.9901L269.04 227.9901L58.8 227.9901z" /></clipPath><clipPath id="18"><path id="" clip-rule="evenodd" transform="matrix(1 0 0 1 0 0)" d="M58.90269 223.4474L268.8721 223.4474L268.8721 223.4474L268.8721 227.7769L268.8721 227.7769L58.90269 227.7769z" /></clipPath><g><g><g clip-path="url(#16)"><g><g clip-path="url(#17)"><g clip-path="url(#18)"><g transform="matrix(0.24 0 0 0.24 58.8 223.4301)"><g transform="matrix(1 0 0 1 0 0)"><image x="0" y="0" xlink:href="img_02.png" width="876" height="19" /></g></g></g></g></g></g></g></g></mask><clipPath id="19"><path id="" clip-rule="evenodd" transform="matrix(1 0 0 1 0 0)" d="M58.8 223.4301L269.04 223.4301L269.04 223.4301L269.04 227.9901L269.04 227.9901L58.8 227.9901z" /></clipPath><clipPath id="20"><path id="" clip-rule="evenodd" transform="matrix(1 0 0 1 0 0)" d="M58.55999 223.4474L269.28 223.4474L269.28 223.4474L269.28 227.9573L269.28 227.9573L58.55999 227.9573z" /></clipPath><clipPath id="21"><path id="" clip-rule="evenodd" transform="matrix(1 0 0 1 0 0)" d="M0 -0.25L595.5 -0.25L595.5 -0.25L595.5 842.0012L595.5 842.0012L0 842.0012z" /></clipPath><clipPath id="22"><path id="" clip-rule="evenodd" transform="matrix(1 0 0 1 0 0)" d="M0 -0.25L595.5 -0.25L595.5 -0.25L595.5 842.0012L595.5 842.0012L0 842.0012z" /></clipPath><clipPath id="23"><path id="" clip-rule="evenodd" transform="matrix(1 0 0 1 0 0)" d="M89.51184 67.41394L238.9522 67.41394L238.9522 67.41394L238.9522 216.2727L238.9522 216.2727L89.51184 216.2727z" /></clipPath><clipPath id="24"><path id="" clip-rule="evenodd" transform="matrix(1 0 0 1 0 0)" d="M102.2618 67.41394L225.6751 67.41394C 229.0567 67.41394 232.2998 68.7572 234.6907 71.14832C 237.0818 73.53943 238.4251 76.78235 238.4251 80.16394L238.4251 80.16394L238.4251 203.5227C 238.4251 206.9041 237.0818 210.1472 234.6907 212.5383C 232.2998 214.9294 229.0567 216.2727 225.6751 216.2727L225.6751 216.2727L102.2618 216.2727C 98.88048 216.2727 95.63736 214.9294 93.24624 212.5383C 90.85512 210.1472 89.51184 206.9041 89.51184 203.5227L89.51184 203.5227L89.51184 80.16394C 89.51184 76.78235 90.85512 73.53943 93.24624 71.14832C 95.63736 68.7572 98.88048 67.41394 102.2618 67.41394z" /></clipPath><clipPath id="25"><path id="" clip-rule="evenodd" transform="matrix(1 0 0 1 0 0)" d="M89.51184 67.41394L238.3706 67.41394L238.3706 67.41394L238.3706 216.2727L238.3706 216.2727L89.51184 216.2727z" /></clipPath><clipPath id="26"><path id="" clip-rule="evenodd" transform="matrix(1 0 0 1 0 0)" d="M0 -0.25L595.5 -0.25L595.5 -0.25L595.5 842.0012L595.5 842.0012L0 842.0012z" /></clipPath><clipPath id="27"><path id="" clip-rule="evenodd" transform="matrix(1 0 0 1 0 0)" d="M341.5776 195.3884L587.5776 195.3884L587.5776 195.3884L587.5776 480.3884L587.5776 480.3884L341.5776 480.3884z" /></clipPath><clipPath id="28"><path id="" clip-rule="evenodd" transform="matrix(1 0 0 1 0 0)" d="M343.2504 437.6564L572.0004 437.6564L572.0004 437.6564L572.0004 441.4064L572.0004 441.4064L343.2504 441.4064z" /></clipPath><clipPath id="29"><path id="" clip-rule="evenodd" transform="matrix(1 0 0 1 0 0)" d="M0 -0.25L595.5 -0.25L595.5 -0.25L595.5 842.0012L595.5 842.0012L0 842.0012z" /></clipPath><clipPath id="30"><path id="" clip-rule="evenodd" transform="matrix(1 0 0 1 0 0)" d="M0 -0.25L595.5 -0.25L595.5 -0.25L595.5 842.0012L595.5 842.0012L0 842.0012z" /></clipPath><clipPath id="31"><path id="" clip-rule="evenodd" transform="matrix(1 0 0 1 0 0)" d="M356.4528 277.7348L572.9764 277.7348L572.9764 277.7348L572.9764 416.6573L572.9764 416.6573L356.4528 416.6573z" /></clipPath><clipPath id="32"><path id="" clip-rule="evenodd" transform="matrix(1 0 0 1 0 0)" d="M369.204 277.7348C 365.8224 277.7348 362.5824 279.0764 360.1896 281.4692C 357.7968 283.862 356.4528 287.1021 356.4528 290.4836L356.4528 290.4836L356.4528 403.9076C 356.4528 407.2892 357.7968 410.5292 360.1896 412.922C 362.5824 415.3148 365.8224 416.6564 369.204 416.6564L369.204 416.6564L559.9824 416.6564C 563.364 416.6564 566.604 415.3148 568.9968 412.922C 571.3896 410.5292 572.7311 407.2892 572.7311 403.9076L572.7311 403.9076L572.7311 290.4836C 572.7311 287.1021 571.3896 283.862 568.9968 281.4692C 566.604 279.0764 563.364 277.7348 559.9824 277.7348L559.9824 277.7348L369.204 277.7348z" /></clipPath><clipPath id="33"><path id="" clip-rule="evenodd" transform="matrix(1 0 0 1 0 0)" d="M356.4528 277.7348L572.9764 277.7348L572.9764 277.7348L572.9764 416.6573L572.9764 416.6573L356.4528 416.6573z" /></clipPath><clipPath id="34"><path id="" clip-rule="evenodd" transform="matrix(1 0 0 1 0 0)" d="M0 -0.25L595.5 -0.25L595.5 -0.25L595.5 842.0012L595.5 842.0012L0 842.0012z" /></clipPath><clipPath id="35"><path id="" clip-rule="evenodd" transform="matrix(1 0 0 1 0 0)" d="M0 -0.25L595.5 -0.25L595.5 -0.25L595.5 842.0012L595.5 842.0012L0 842.0012z" /></clipPath><clipPath id="36"><path id="" clip-rule="evenodd" transform="matrix(1 0 0 1 0 0)" d="M412.8624 259.8356L469.1904 311.5988L469.1904 311.5988L440.2632 343.0772L440.2632 343.0772L383.9352 291.314L383.9352 291.314L412.8624 259.8356z" /></clipPath><clipPath id="37"><path id="" clip-rule="evenodd" transform="matrix(1 0 0 1 0 0)" d="M383.7144 291.5564L440.0424 343.3172L440.0424 343.3172L468.9672 311.8412L468.9672 311.8412L412.6392 260.078L412.6392 260.078L383.7144 291.5564z" /></clipPath><clipPath id="38"><path id="" clip-rule="evenodd" transform="matrix(1 0 0 1 0 0)" d="M0 -0.25L595.5 -0.25L595.5 -0.25L595.5 842.0012L595.5 842.0012L0 842.0012z" /></clipPath><clipPath id="39"><path id="" clip-rule="evenodd" transform="matrix(1 0 0 1 0 0)" d="M0 -0.25L595.5 -0.25L595.5 -0.25L595.5 842.0012L595.5 842.0012L0 842.0012z" /></clipPath><clipPath id="40"><path id="" clip-rule="evenodd" transform="matrix(1 0 0 1 0 0)" d="M0 -0.25L595.5 -0.25L595.5 -0.25L595.5 842.0012L595.5 842.0012L0 842.0012z" /></clipPath><clipPath id="41"><path id="" clip-rule="evenodd" transform="matrix(1 0 0 1 0 0)" d="M45.0144 285.3284L298.3872 285.3284L298.3872 285.3284L298.3872 524.7294L298.3872 524.7294L45.0144 524.7294z" /></clipPath><clipPath id="42"><path id="" clip-rule="evenodd" transform="matrix(1 0 0 1 0 0)" d="M73.69584 286.2596L269.8872 286.2596C 277.248 286.2596 284.3064 289.1852 289.5096 294.3884C 294.7152 299.5916 297.6384 306.65 297.6384 314.0108L297.6384 314.0108L297.6384 496.9796C 297.6384 504.3404 294.7152 511.3988 289.5096 516.602C 284.3064 521.8052 277.248 524.7308 269.8872 524.7308L269.8872 524.7308L73.69584 524.7308C 66.336 524.7308 59.27784 521.8052 54.07368 516.602C 48.86952 511.3988 45.94584 504.3404 45.94584 496.9796L45.94584 496.9796L45.94584 314.0108C 45.94584 306.65 48.86952 299.5916 54.07368 294.3884C 59.27784 289.1852 66.336 286.2596 73.69584 286.2596z" /></clipPath><clipPath id="43"><path id="" clip-rule="evenodd" transform="matrix(1 0 0 1 0 0)" d="M62.28672 502.0196L281.2867 502.0196L281.2867 502.0196L281.2867 506.5196L281.2867 506.5196L62.28672 506.5196z" /></clipPath><clipPath id="44"><path id="" clip-rule="evenodd" transform="matrix(1 0 0 1 0 0)" d="M62.16 502.07L281.52 502.07L281.52 502.07L281.52 506.63L281.52 506.63L62.16 506.63z" /></clipPath><mask id="m3"><clipPath id="45"><path id="" clip-rule="evenodd" transform="matrix(1 0 0 1 0 0)" d="M62.16 502.07L281.52 502.07L281.52 502.07L281.52 506.63L281.52 506.63L62.16 506.63z" /></clipPath><g><g><g clip-path="url(#45)"><path id="265" transform="matrix(1 0 0 -1 0 842)" d="M62.16 339.93L281.52 339.93L281.52 335.37L62.16 335.37z" stroke="none" fill="#000000" fill-rule="nonzero" /></g></g></g></mask><clipPath id="46"><path id="" clip-rule="evenodd" transform="matrix(1 0 0 1 0 0)" d="M62.16 502.07L281.52 502.07L281.52 502.07L281.52 506.63L281.52 506.63L62.16 506.63z" /></clipPath><clipPath id="47"><path id="" clip-rule="evenodd" transform="matrix(1 0 0 1 0 0)" d="M61.91999 502.0872L281.76 502.0872L281.76 502.0872L281.76 506.6019L281.76 506.6019L61.91999 506.6019z" /></clipPath><mask id="m4"><clipPath id="48"><path id="" clip-rule="evenodd" transform="matrix(1 0 0 1 0 0)" d="M62.16 502.07L281.52 502.07L281.52 502.07L281.52 506.63L281.52 506.63L62.16 506.63z" /></clipPath><clipPath id="49"><path id="" clip-rule="evenodd" transform="matrix(1 0 0 1 0 0)" d="M62.16 502.07L281.52 502.07L281.52 502.07L281.52 506.63L281.52 506.63L62.16 506.63z" /></clipPath><clipPath id="50"><path id="" clip-rule="evenodd" transform="matrix(1 0 0 1 0 0)" d="M62.3074 502.0872L281.2755 502.0872L281.2755 502.0872L281.2755 506.4213L281.2755 506.4213L62.3074 506.4213z" /></clipPath><g><g><g clip-path="url(#48)"><g><g clip-path="url(#49)"><g clip-path="url(#50)"><g transform="matrix(0.24 0 0 0.24 62.16 502.07)"><g transform="matrix(1 0 0 1 0 0)"><image x="0" y="0" xlink:href="img_07.png" width="913" height="19" /></g></g></g></g></g></g></g></g></mask><clipPath id="51"><path id="" clip-rule="evenodd" transform="matrix(1 0 0 1 0 0)" d="M62.16 502.07L281.52 502.07L281.52 502.07L281.52 506.63L281.52 506.63L62.16 506.63z" /></clipPath><clipPath id="52"><path id="" clip-rule="evenodd" transform="matrix(1 0 0 1 0 0)" d="M61.91999 502.0872L281.76 502.0872L281.76 502.0872L281.76 506.6019L281.76 506.6019L61.91999 506.6019z" /></clipPath><clipPath id="53"><path id="" clip-rule="evenodd" transform="matrix(1 0 0 1 0 0)" d="M0 -0.25L595.5 -0.25L595.5 -0.25L595.5 842.0012L595.5 842.0012L0 842.0012z" /></clipPath><clipPath id="54"><path id="" clip-rule="evenodd" transform="matrix(1 0 0 1 0 0)" d="M0 -0.25L595.5 -0.25L595.5 -0.25L595.5 842.0012L595.5 842.0012L0 842.0012z" /></clipPath><clipPath id="55"><path id="" clip-rule="evenodd" transform="matrix(1 0 0 1 0 0)" d="M62.28552 335.8052L133.9154 335.8052L133.9154 335.8052L133.9154 453.3231L133.9154 453.3231L62.28552 453.3231z" /></clipPath><clipPath id="56"><path id="" clip-rule="evenodd" transform="matrix(1 0 0 1 0 0)" d="M62.28552 440.5748L62.28552 348.6332C 62.28552 341.5916 67.99392 335.882 75.03552 335.882L75.03552 335.882L121.1657 335.882C 128.2073 335.882 133.9157 341.5916 133.9157 348.6332L133.9157 348.6332L133.9157 440.5748C 133.9157 447.6164 128.2073 453.3236 121.1657 453.3236L121.1657 453.3236L75.03552 453.3236C 67.99392 453.3236 62.28552 447.6164 62.28552 440.5748z" /></clipPath><clipPath id="57"><path id="" clip-rule="evenodd" transform="matrix(1 0 0 1 0 0)" d="M62.28552 335.8052L133.9154 335.8052L133.9154 335.8052L133.9154 453.3231L133.9154 453.3231L62.28552 453.3231z" /></clipPath><clipPath id="58"><path id="" clip-rule="evenodd" transform="matrix(1 0 0 1 0 0)" d="M0 -0.25L595.5 -0.25L595.5 -0.25L595.5 842.0012L595.5 842.0012L0 842.0012z" /></clipPath><clipPath id="59"><path id="" clip-rule="evenodd" transform="matrix(1 0 0 1 0 0)" d="M0 -0.25L595.5 -0.25L595.5 -0.25L595.5 842.0012L595.5 842.0012L0 842.0012z" /></clipPath><clipPath id="60"><path id="" clip-rule="evenodd" transform="matrix(1 0 0 1 0 0)" d="M146.0311 382.6364L255.4152 382.6364L255.4152 382.6364L255.4152 478.8644L255.4152 478.8644L146.0311 478.8644z" /></clipPath><clipPath id="61"><path id="" clip-rule="evenodd" transform="matrix(1 0 0 1 0 0)" d="M158.7811 382.6364L242.4576 382.6364C 249.4992 382.6364 255.2064 388.346 255.2064 395.3876L255.2064 395.3876L255.2064 466.1156C 255.2064 473.1572 249.4992 478.8644 242.4576 478.8644L242.4576 478.8644L158.7811 478.8644C 151.7395 478.8644 146.0311 473.1572 146.0311 466.1156L146.0311 466.1156L146.0311 395.3876C 146.0311 388.346 151.7395 382.6364 158.7811 382.6364z" /></clipPath><clipPath id="62"><path id="" clip-rule="evenodd" transform="matrix(1 0 0 1 0 0)" d="M146.0311 382.6364L255.0394 382.6364L255.0394 382.6364L255.0394 478.8644L255.0394 478.8644L146.0311 478.8644z" /></clipPath><clipPath id="63"><path id="" clip-rule="evenodd" transform="matrix(1 0 0 1 0 0)" d="M0 -0.25L595.5 -0.25L595.5 -0.25L595.5 842.0012L595.5 842.0012L0 842.0012z" /></clipPath><clipPath id="64"><path id="" clip-rule="evenodd" transform="matrix(1 0 0 1 0 0)" d="M0 -0.25L595.5 -0.25L595.5 -0.25L595.5 842.0012L595.5 842.0012L0 842.0012z" /></clipPath><clipPath id="65"><path id="" clip-rule="evenodd" transform="matrix(1 0 0 1 0 0)" d="M0 -0.25L595.5 -0.25L595.5 -0.25L595.5 842.0012L595.5 842.0012L0 842.0012z" /></clipPath><clipPath id="66"><path id="" clip-rule="evenodd" transform="matrix(1 0 0 1 0 0)" d="M322.8288 520.0532L570.3624 520.0532L570.3624 520.0532L570.3624 783.0571L570.3624 783.0571L322.8288 783.0571z" /></clipPath><clipPath id="67"><path id="" clip-rule="evenodd" transform="matrix(1 0 0 1 0 0)" d="M350.5776 520.0532L542.6111 520.0532C 549.972 520.0532 557.0304 522.9764 562.2336 528.1796C 567.4392 533.3852 570.3624 540.4412 570.3624 547.802L570.3624 547.802L570.3624 754.3628C 570.3624 761.7211 567.4392 768.7796 562.2336 773.9852C 557.0304 779.1884 549.972 782.1116 542.6111 782.1116L542.6111 782.1116L350.5776 782.1116C 343.2192 782.1116 336.1608 779.1884 330.9552 773.9852C 325.752 768.7796 322.8288 761.7211 322.8288 754.3628L322.8288 754.3628L322.8288 547.802C 322.8288 540.4412 325.752 533.3852 330.9552 528.1796C 336.1608 522.9764 343.2192 520.0532 350.5776 520.0532z" /></clipPath><clipPath id="68"><path id="" clip-rule="evenodd" transform="matrix(1 0 0 1 0 0)" d="M334.6224 739.778L572.3724 739.778L572.3724 739.778L572.3724 745.028L572.3724 745.028L334.6224 745.028z" /></clipPath><clipPath id="69"><path id="" clip-rule="evenodd" transform="matrix(1 0 0 1 0 0)" d="M334.56 739.67L572.4 739.67L572.4 739.67L572.4 745.19L572.4 745.19L334.56 745.19z" /></clipPath><mask id="m5"><clipPath id="70"><path id="" clip-rule="evenodd" transform="matrix(1 0 0 1 0 0)" d="M334.56 739.67L572.4 739.67L572.4 739.67L572.4 745.19L572.4 745.19L334.56 745.19z" /></clipPath><g><g><g clip-path="url(#70)"><path id="403" transform="matrix(1 0 0 -1 0 842)" d="M334.56 102.33L572.4 102.33L572.4 96.81001L334.56 96.81001z" stroke="none" fill="#000000" fill-rule="nonzero" /></g></g></g></mask><clipPath id="71"><path id="" clip-rule="evenodd" transform="matrix(1 0 0 1 0 0)" d="M334.56 739.67L572.4 739.67L572.4 739.67L572.4 745.19L572.4 745.19L334.56 745.19z" /></clipPath><clipPath id="72"><path id="" clip-rule="evenodd" transform="matrix(1 0 0 1 0 0)" d="M334.32 739.8605L572.64 739.8605L572.64 739.8605L572.64 745.1218L572.64 745.1218L334.32 745.1218z" /></clipPath><mask id="m6"><clipPath id="73"><path id="" clip-rule="evenodd" transform="matrix(1 0 0 1 0 0)" d="M334.56 739.67L572.4 739.67L572.4 739.67L572.4 745.19L572.4 745.19L334.56 745.19z" /></clipPath><clipPath id="74"><path id="" clip-rule="evenodd" transform="matrix(1 0 0 1 0 0)" d="M334.56 739.67L572.4 739.67L572.4 739.67L572.4 745.19L572.4 745.19L334.56 745.19z" /></clipPath><clipPath id="75"><path id="" clip-rule="evenodd" transform="matrix(1 0 0 1 0 0)" d="M334.6451 739.8605L572.3604 739.8605L572.3604 739.8605L572.3604 744.9113L572.3604 744.9113L334.6451 744.9113z" /></clipPath><g><g><g clip-path="url(#73)"><g><g clip-path="url(#74)"><g clip-path="url(#75)"><g transform="matrix(0.24 0 0 0.24 334.56 739.67)"><g transform="matrix(1 0 0 1 0 0)"><image x="0" y="0" xlink:href="img_10.png" width="991" height="22" /></g></g></g></g></g></g></g></g></mask><clipPath id="76"><path id="" clip-rule="evenodd" transform="matrix(1 0 0 1 0 0)" d="M334.56 739.67L572.4 739.67L572.4 739.67L572.4 745.19L572.4 745.19L334.56 745.19z" /></clipPath><clipPath id="77"><path id="" clip-rule="evenodd" transform="matrix(1 0 0 1 0 0)" d="M334.32 739.8605L572.64 739.8605L572.64 739.8605L572.64 745.1218L572.64 745.1218L334.32 745.1218z" /></clipPath><clipPath id="78"><path id="" clip-rule="evenodd" transform="matrix(1 0 0 1 0 0)" d="M0 -0.25L595.5 -0.25L595.5 -0.25L595.5 842.0012L595.5 842.0012L0 842.0012z" /></clipPath><clipPath id="79"><path id="" clip-rule="evenodd" transform="matrix(1 0 0 1 0 0)" d="M0 -0.25L595.5 -0.25L595.5 -0.25L595.5 842.0012L595.5 842.0012L0 842.0012z" /></clipPath><clipPath id="80"><path id="" clip-rule="evenodd" transform="matrix(1 0 0 1 0 0)" d="M361.1352 597.2612L540.8743 597.2612L540.8743 597.2612L540.8743 724.3694L540.8743 724.3694L361.1352 724.3694z" /></clipPath><clipPath id="81"><path id="" clip-rule="evenodd" transform="matrix(1 0 0 1 0 0)" d="M373.8864 597.2612L527.6304 597.2612C 534.672 597.2612 540.3792 602.9708 540.3792 610.0124L540.3792 610.0124L540.3792 711.6188C 540.3792 718.6604 534.672 724.37 527.6304 724.37L527.6304 724.37L373.8864 724.37C 366.8448 724.37 361.1352 718.6604 361.1352 711.6188L361.1352 711.6188L361.1352 610.0124C 361.1352 602.9708 366.8448 597.2612 373.8864 597.2612z" /></clipPath><clipPath id="82"><path id="" clip-rule="evenodd" transform="matrix(1 0 0 1 0 0)" d="M361.1352 597.2612L540.3777 597.2612L540.3777 597.2612L540.3777 724.3694L540.3777 724.3694L361.1352 724.3694z" /></clipPath><clipPath id="83"><path id="" clip-rule="evenodd" transform="matrix(1 0 0 1 0 0)" d="M0 -0.25L595.5 -0.25L595.5 -0.25L595.5 842.0012L595.5 842.0012L0 842.0012z" /></clipPath><clipPath id="84"><path id="" clip-rule="evenodd" transform="matrix(1 0 0 1 0 0)" d="M0 -0.25L595.5 -0.25L595.5 -0.25L595.5 842.0012L595.5 842.0012L0 842.0012z" /></clipPath><clipPath id="85"><path id="" clip-rule="evenodd" transform="matrix(1 0 0 1 0 0)" d="M0 -0.25L595.5 -0.25L595.5 -0.25L595.5 842.0012L595.5 842.0012L0 842.0012z" /></clipPath><clipPath id="86"><path id="" clip-rule="evenodd" transform="matrix(1 0 0 1 0 0)" d="M41.48328 591.674L289.2185 591.674L289.2185 591.674L289.2185 824.8359L289.2185 824.8359L41.48328 824.8359z" /></clipPath><clipPath id="87"><path id="" clip-rule="evenodd" transform="matrix(1 0 0 1 0 0)" d="M69.23328 591.674L261.2664 591.674C 268.6272 591.674 275.6856 594.5996 280.8888 599.8028C 286.0944 605.006 289.0176 612.0644 289.0176 619.4252L289.0176 619.4252L289.0176 797.0876C 289.0176 804.446 286.0944 811.5044 280.8888 816.71C 275.6856 821.9131 268.6272 824.8364 261.2664 824.8364L261.2664 824.8364L69.23328 824.8364C 61.87344 824.8364 54.81528 821.9131 49.61112 816.71C 44.40696 811.5044 41.48328 804.446 41.48328 797.0876L41.48328 797.0876L41.48328 619.4252C 41.48328 612.0644 44.40696 605.006 49.61112 599.8028C 54.81528 594.5996 61.87344 591.674 69.23328 591.674z" /></clipPath><clipPath id="88"><path id="" clip-rule="evenodd" transform="matrix(1 0 0 1 0 0)" d="M53.2776 782.5027L291.0276 782.5027L291.0276 782.5027L291.0276 787.7527L291.0276 787.7527L53.2776 787.7527z" /></clipPath><clipPath id="89"><path id="" clip-rule="evenodd" transform="matrix(1 0 0 1 0 0)" d="M53.04 782.39L291.12 782.39L291.12 782.39L291.12 787.91L291.12 787.91L53.04 787.91z" /></clipPath><mask id="m7"><clipPath id="90"><path id="" clip-rule="evenodd" transform="matrix(1 0 0 1 0 0)" d="M53.04 782.39L291.12 782.39L291.12 782.39L291.12 787.91L291.12 787.91L53.04 787.91z" /></clipPath><g><g><g clip-path="url(#90)"><path id="500" transform="matrix(1 0 0 -1 0 842)" d="M53.04 59.61002L291.12 59.61002L291.12 54.09002L53.04 54.09002z" stroke="none" fill="#000000" fill-rule="nonzero" /></g></g></g></mask><clipPath id="91"><path id="" clip-rule="evenodd" transform="matrix(1 0 0 1 0 0)" d="M53.04 782.39L291.12 782.39L291.12 782.39L291.12 787.91L291.12 787.91L53.04 787.91z" /></clipPath><clipPath id="92"><path id="" clip-rule="evenodd" transform="matrix(1 0 0 1 0 0)" d="M52.8 782.5853L291.36 782.5853L291.36 782.5853L291.36 787.8465L291.36 787.8465L52.8 787.8465z" /></clipPath><mask id="m8"><clipPath id="93"><path id="" clip-rule="evenodd" transform="matrix(1 0 0 1 0 0)" d="M53.04 782.39L291.12 782.39L291.12 782.39L291.12 787.91L291.12 787.91L53.04 787.91z" /></clipPath><clipPath id="94"><path id="" clip-rule="evenodd" transform="matrix(1 0 0 1 0 0)" d="M53.04 782.39L291.12 782.39L291.12 782.39L291.12 787.91L291.12 787.91L53.04 787.91z" /></clipPath><clipPath id="95"><path id="" clip-rule="evenodd" transform="matrix(1 0 0 1 0 0)" d="M53.30017 782.5853L291.0155 782.5853L291.0155 782.5853L291.0155 787.636L291.0155 787.636L53.30017 787.636z" /></clipPath><g><g><g clip-path="url(#93)"><g><g clip-path="url(#94)"><g clip-path="url(#95)"><g transform="matrix(0.24 0 0 0.24 53.27999 782.39)"><g transform="matrix(1 0 0 1 0 0)"><image x="0" y="0" xlink:href="img_12.png" width="991" height="22" /></g></g></g></g></g></g></g></g></mask><clipPath id="96"><path id="" clip-rule="evenodd" transform="matrix(1 0 0 1 0 0)" d="M53.04 782.39L291.12 782.39L291.12 782.39L291.12 787.91L291.12 787.91L53.04 787.91z" /></clipPath><clipPath id="97"><path id="" clip-rule="evenodd" transform="matrix(1 0 0 1 0 0)" d="M52.8 782.5853L291.36 782.5853L291.36 782.5853L291.36 787.8465L291.36 787.8465L52.8 787.8465z" /></clipPath><clipPath id="98"><path id="" clip-rule="evenodd" transform="matrix(1 0 0 1 0 0)" d="M0 -0.25L595.5 -0.25L595.5 -0.25L595.5 842.0012L595.5 842.0012L0 842.0012z" /></clipPath><clipPath id="99"><path id="" clip-rule="evenodd" transform="matrix(1 0 0 1 0 0)" d="M0 -0.25L595.5 -0.25L595.5 -0.25L595.5 842.0012L595.5 842.0012L0 842.0012z" /></clipPath><clipPath id="100"><path id="" clip-rule="evenodd" transform="matrix(1 0 0 1 0 0)" d="M79.79136 639.986L259.5305 639.986L259.5305 639.986L259.5305 767.0942L259.5305 767.0942L79.79136 767.0942z" /></clipPath><clipPath id="101"><path id="" clip-rule="evenodd" transform="matrix(1 0 0 1 0 0)" d="M92.54136 639.986L246.2832 639.986C 253.3248 639.986 259.0344 645.6956 259.0344 652.7372L259.0344 652.7372L259.0344 754.3436C 259.0344 761.3852 253.3248 767.0948 246.2832 767.0948L246.2832 767.0948L92.54136 767.0948C 85.49976 767.0948 79.79136 761.3852 79.79136 754.3436L79.79136 754.3436L79.79136 652.7372C 79.79136 645.6956 85.49976 639.986 92.54136 639.986z" /></clipPath><clipPath id="102"><path id="" clip-rule="evenodd" transform="matrix(1 0 0 1 0 0)" d="M79.79136 639.986L259.0339 639.986L259.0339 639.986L259.0339 767.0942L259.0339 767.0942L79.79136 767.0942z" /></clipPath><clipPath id="103"><path id="" clip-rule="evenodd" transform="matrix(1 0 0 1 0 0)" d="M0 -0.25L595.5 -0.25L595.5 -0.25L595.5 842.0012L595.5 842.0012L0 842.0012z" /></clipPath><clipPath id="104"><path id="" clip-rule="evenodd" transform="matrix(1 0 0 1 0 0)" d="M489.3888 8.540771L589.1388 8.540771L589.1388 8.540771L589.1388 64.79077L589.1388 64.79077L489.3888 64.79077z" /></clipPath><clipPath id="105"><path id="" clip-rule="evenodd" transform="matrix(1 0 0 1 0 0)" d="M0 -0.25L595.5 -0.25L595.5 -0.25L595.5 842.0012L595.5 842.0012L0 842.0012z" /></clipPath></defs><g transform="matrix(1.333333 0 0 1.333333 0 0)"><g clip-path="url(#1)"><g clip-path="url(#2)"><path id="1" transform="matrix(1 0 0 -1 0 842)" d="M0 842.25L595.4999 842.25L595.4999 0L0 0z" stroke="none" fill="#FFFFFF" fill-rule="nonzero" /></g><g clip-path="url(#3)"><path id="2" transform="matrix(1 0 0 -1 0 842)" d="M0 842.25L595.4999 842.25L595.4999 0L0 0z" stroke="none" fill="#FFFFFF" fill-rule="nonzero" /></g><g clip-path="url(#4)"><g><g clip-path="url(#5)"><g clip-path="url(#6)"><g transform="matrix(0 0.975 -0.9768211 0 522.0178 30.75183)"><g transform="matrix(1 0 0 1 0 0)"><image x="0" y="0" xlink:href="img_01.png" width="800" height="453" /></g></g></g></g></g></g><g clip-path="url(#7)"><g clip-path="url(#8)"><g clip-path="url(#9)"><g clip-path="url(#10)"><path id="4" transform="matrix(1 0 0 -1 0 842)" d="M45.94584 833.4592L286.9252 833.4592L286.9252 592.4799L45.94584 592.4799z" stroke="none" fill="#939CAB" fill-rule="nonzero" /></g></g></g></g><g clip-path="url(#11)"><g><g clip-path="url(#12)"><g mask="url(#m1)"><g><g clip-path="url(#14)"><g clip-path="url(#15)"><path id="6" transform="matrix(1 0 0 -1 0 842)" d="M58.90268 618.5526L268.8719 618.5526L268.8719 614.2231L58.90268 614.2231z" stroke="none" fill="#000000" fill-rule="nonzero" /></g></g></g></g><g mask="url(#m2)"><g><g clip-path="url(#19)"><g clip-path="url(#20)"><path id="8" transform="matrix(1 0 0 -1 0 842)" d="M58.90268 618.5526L268.8719 618.5526L268.8719 614.2231L58.90268 614.2231z" stroke="none" fill="#000000" fill-rule="nonzero" /></g></g></g></g></g></g></g><g clip-path="url(#21)"><g clip-path="url(#22)"><g clip-path="url(#23)"><g clip-path="url(#24)"><g clip-path="url(#25)"><g transform="matrix(0.5626005 0 0 0.5617313 77.46191 67.41394)"><g transform="matrix(1 0 0 1 0 0)"><image x="0" y="0" xlink:href="img_03.png" width="308" height="265" /></g></g></g></g></g></g></g><g clip-path="url(#26)"></g><g clip-path="url(#27)"><g transform="matrix(0.24 0 0 0.239899 341.5776 195.3884)"><g transform="matrix(1 0 0 1 0 0)"><image x="0" y="0" xlink:href="img_04.png" width="1025" height="1188" /></g></g></g><g clip-path="url(#28)"><g transform="matrix(0.9989082 0 0 0.9374999 343.2504 437.6576)"><g transform="matrix(1 0 0 1 0 0)"><image x="0" y="0" xlink:href="img_05.png" width="229" height="4" /></g></g></g><g clip-path="url(#29)"><g clip-path="url(#30)"><g clip-path="url(#31)"><g clip-path="url(#32)"><g clip-path="url(#33)"><g transform="matrix(0.6368476 0 0 0.6372594 348.8976 277.7339)"><g transform="matrix(1 0 0 1 0 0)"><image x="0" y="0" xlink:href="img_06.png" width="363" height="218" /></g></g></g></g></g></g></g><g clip-path="url(#34)"><g clip-path="url(#35)"><g clip-path="url(#36)"><g clip-path="url(#37)"><path id="74" transform="matrix(1 0 0 -1 0 842)" d="M440.7004 515.2666C 439.5099 513.9711 438.4399 512.8068 437.3687 511.6411C 439.0613 511.4952 440.7841 511.1512 442.4372 511.2711C 443.6812 511.3623 444.8705 511.9849 446.014 512.504C 446.5946 512.7678 447.5364 513.4649 447.4455 513.7286C 446.2537 517.1863 444.9396 520.613 443.5205 524.0005C 443.4204 524.2382 442.0735 524.3601 441.6472 524.0681C 441.2409 523.7898 441.0421 522.8616 441.1771 522.2859C 441.4394 521.1611 441.9981 520.0848 442.5984 518.573C 436.4246 519.4674 431.3741 522.1511 426.7932 525.7807C 413.1644 536.5844 407.5063 553.8401 411.8558 571.1339C 412.4716 573.5796 413.5698 575.8733 414.1739 578.3223C 414.3969 579.2258 413.8428 580.3743 413.6435 581.4091C 412.7787 580.9005 411.4437 580.619 411.1158 579.8539C 399.2725 552.1276 414.0223 522.6069 439.9579 515.5465C 440.3835 515.4294 440.7919 515.2319 440.7004 515.2666z" stroke="none" fill="#F5F5F5" fill-rule="nonzero" /><path id="75" transform="matrix(1 0 0 -1 0 842)" d="M434.6706 514.7006C 436.0976 517.2205 437.3611 519.8337 438.444 522.5191C 438.7514 523.2807 439.0419 524.0481 439.3205 524.8214C 439.5526 525.2647 439.8798 525.6207 440.3019 525.8894C 440.6033 526.0938 440.9329 526.2106 441.2878 526.2423C 441.6302 526.3301 441.9762 526.3306 442.326 526.2411C 442.8064 526.1354 443.2273 525.9164 443.5912 525.5845C 444.7415 524.2978 445.892 523.0085 447.0423 521.7219C 448.3061 520.3088 449.5935 518.9134 450.7939 517.4449C 451.3771 516.7337 451.908 515.9818 452.3109 515.1523C 452.5635 514.7449 452.7006 514.3005 452.7221 513.8216C 452.7411 513.3425 452.6406 512.8893 452.4246 512.4609C 452.1924 512.0176 451.8653 511.6616 451.4431 511.3929C 451.0357 511.1403 450.5913 511.0032 450.1124 510.9817C 446.6932 510.4037 443.2289 510.0992 439.7616 510.0815C 438.7714 510.0757 437.78 510.0955 436.7904 510.136C 436.3239 510.1549 435.853 510.2174 435.4297 510.4336C 435.2296 510.5731 435.0294 510.7126 434.8293 510.8521C 434.5424 511.0959 434.3383 511.3896 434.2144 511.7356C 434.0887 511.9399 434.0202 512.1609 434.0088 512.4009C 433.9399 512.6296 433.9303 512.8582 433.9796 513.0918C 434.0288 513.6638 434.2401 514.2939 434.6666 514.7043C 435.9335 515.9271 437.4828 516.8583 439.1986 517.291C 440.0438 517.5042 440.933 517.6472 441.8063 517.6519C 442.6667 517.6561 443.5512 517.5764 444.3882 517.3725C 445.3164 517.1441 446.2522 516.7952 447.0707 516.2972C 445.8852 515.007 444.6984 513.7156 443.5128 512.4254C 443.4788 512.469 443.4434 512.5138 443.4082 512.5561C 443.5641 512.3684 443.7199 512.1807 443.8758 511.9931C 443.6731 512.2238 443.446 512.4226 443.1966 512.6024C 443.3967 512.463 443.5968 512.3235 443.797 512.184C 442.9501 512.7722 441.9596 513.0776 441.0615 513.5697C 440.8561 513.6819 440.6578 513.8073 440.4632 513.9393C 440.0961 514.1927 439.7128 514.4363 439.3885 514.7443C 438.705 515.3946 438.251 516.1228 437.9156 516.9988C 437.778 517.4535 437.7585 517.9158 437.8572 518.3805C 437.9215 518.746 438.0713 519.0674 438.3053 519.3462C 438.4898 519.6678 438.7478 519.9244 439.0768 520.1133C 439.4843 520.3659 439.9287 520.503 440.4076 520.5245C 441.326 520.4655 442.2228 520.3696 443.097 520.0772C 443.9739 519.7823 444.8136 519.4551 445.5877 518.9436C 444.4021 517.6535 443.2153 516.362 442.0297 515.0719C 441.2621 516.2834 440.6474 517.6184 440.2166 518.9869C 440.0115 519.6395 440.0849 520.4285 440.3964 521.0334C 440.7054 521.6356 441.3535 522.22 442.0202 522.3948C 442.6895 522.5697 443.4485 522.5684 444.0667 522.215C 444.706 521.8496 445.2036 521.3059 445.4281 520.5912C 445.5992 520.0414 445.8059 519.5034 446.0428 518.9796C 445.9451 519.1929 445.8472 519.4087 445.7495 519.6219C 446.0129 519.0491 446.3141 518.4958 446.6531 517.9621C 446.7509 517.7488 446.8488 517.533 446.9465 517.3197C 447.0651 516.9787 447.0938 516.6339 447.0352 516.2853C 446.985 515.707 446.7729 515.0947 446.3482 514.6729C 446.005 514.3316 445.6004 514.074 445.1429 513.9119C 444.8018 513.7932 444.457 513.7645 444.1085 513.8231C 443.7509 513.8235 443.4139 513.9135 443.0964 514.0917C 442.5604 514.446 441.9862 514.7318 441.3814 514.9493C 441.6022 514.8699 441.8255 514.7905 442.0463 514.7111C 441.4379 514.9221 440.8134 515.0591 440.1728 515.1195C 440.4039 515.0997 440.6349 515.0799 440.8686 515.0602C 440.7925 515.0659 440.715 515.073 440.6376 515.0774C 441.4679 516.2522 442.2994 517.4283 443.1283 518.6044C 443.1558 518.5322 443.1844 518.4639 443.2157 518.3932C 443.118 518.6065 443.0201 518.8223 442.9223 519.0356C 443.0222 518.8327 443.1446 518.6462 443.287 518.4708C 443.1312 518.6585 442.9753 518.8462 442.8195 519.0338C 443.036 518.7806 443.2831 518.5659 443.5523 518.3727C 443.3522 518.5122 443.1521 518.6517 442.9519 518.7911C 443.6305 518.3181 444.3968 518.0237 445.1422 517.6744C 445.5267 517.4939 445.9016 517.2975 446.2514 517.0576C 446.5958 516.8225 446.9633 516.5885 447.2737 516.3032C 447.5975 516.0081 447.8672 515.6542 448.1376 515.3118C 448.2354 515.0986 448.3333 514.8828 448.431 514.6694C 448.5496 514.3284 448.5783 513.9836 448.5197 513.6351C 448.4695 513.0567 448.2574 512.4444 447.8327 512.0226C 447.4895 511.6813 447.0849 511.4237 446.6273 511.2616C 446.2863 511.143 445.9415 511.1143 445.593 511.1729C 445.2354 511.1732 444.8984 511.2632 444.5809 511.4414C 444.1755 511.688 443.7488 511.8925 443.3033 512.0551C 443.524 511.9756 443.7474 511.8963 443.9681 511.8169C 443.3582 512.0342 442.7273 512.1697 442.0841 512.23C 442.3152 512.2102 442.5463 512.1904 442.78 512.1707C 442.0906 512.229 441.3998 512.1998 440.7177 512.0861C 440.9463 512.1254 441.1749 512.1646 441.406 512.204C 440.7471 512.0886 440.107 511.8944 439.496 511.619C 439.7093 511.7168 439.9251 511.8147 440.1384 511.9124C 439.5503 511.6432 439.0026 511.3023 438.5041 510.8915C 438.6917 511.0474 438.8794 511.2032 439.0671 511.3591C 438.9354 511.248 438.8065 511.132 438.6829 511.0135C 437.9753 512.5376 437.2679 514.0591 436.5603 515.5831C 440.0253 515.4426 443.5005 515.5791 446.9417 516.001C 447.9259 516.121 448.9052 516.2653 449.881 516.43C 449.1486 515.0394 448.4161 513.6513 447.6837 512.2607C 447.2555 513.1405 446.6832 513.9306 446.0609 514.6826C 446.2168 514.4949 446.3727 514.3073 446.5285 514.1196C 445.4771 515.3796 444.3535 516.5825 443.2611 517.806C 442.1404 519.0605 441.0211 520.3137 439.9004 521.5682C 441.324 521.8226 442.7476 522.0769 444.1711 522.3313C 443.1902 519.6065 442.0303 516.9474 440.6968 514.3763C 440.3185 513.6476 439.9271 512.9261 439.5212 512.2105C 439.1632 511.5793 438.6009 511.0667 437.8974 510.8492C 437.2714 510.6568 436.4283 510.6983 435.8509 511.029C 435.23 511.3848 434.6753 511.939 434.4895 512.6528C 434.3159 513.3234 434.3187 514.0786 434.6706 514.7006z" stroke="none" fill="#F5F5F5" fill-rule="nonzero" /></g></g></g></g><g clip-path="url(#38)"></g><g clip-path="url(#39)"><g clip-path="url(#40)"><g clip-path="url(#41)"><g clip-path="url(#42)"><path id="264" transform="matrix(1 0 0 -1 0 842)" d="M45.94584 555.7404L297.4567 555.7404L297.4567 317.2708L45.94584 317.2708z" stroke="none" fill="#1D70B7" fill-rule="nonzero" /></g></g></g></g><g clip-path="url(#43)"><g><g clip-path="url(#44)"><g mask="url(#m3)"><g><g clip-path="url(#46)"><g clip-path="url(#47)"><path id="266" transform="matrix(1 0 0 -1 0 842)" d="M62.3074 339.9128L281.2758 339.9128L281.2758 335.5787L62.3074 335.5787z" stroke="none" fill="#000000" fill-rule="nonzero" /></g></g></g></g><g mask="url(#m4)"><g><g clip-path="url(#51)"><g clip-path="url(#52)"><path id="268" transform="matrix(1 0 0 -1 0 842)" d="M62.3074 339.9128L281.2758 339.9128L281.2758 335.5787L62.3074 335.5787z" stroke="none" fill="#000000" fill-rule="nonzero" /></g></g></g></g></g></g></g><g clip-path="url(#53)"><g clip-path="url(#54)"><g clip-path="url(#55)"><g clip-path="url(#56)"><g clip-path="url(#57)"><g transform="matrix(0 -0.4172697 0.416453 0 62.28574 454.5188)"><g transform="matrix(1 0 0 1 0 0)"><image x="0" y="0" xlink:href="img_08.png" width="287" height="172" /></g></g></g></g></g></g></g><g clip-path="url(#58)"><g clip-path="url(#59)"><g clip-path="url(#60)"><g clip-path="url(#61)"><g clip-path="url(#62)"><g transform="matrix(0.5117757 0 0 0.5134589 146.0311 381.027)"><g transform="matrix(1 0 0 1 0 0)"><image x="0" y="0" xlink:href="img_09.png" width="213" height="194" /></g></g></g></g></g></g></g><g clip-path="url(#63)"><path id="339" transform="matrix(1 0 0 -1 0 842)" d="M228.6621 480.2388L228.6621 482.68C 228.6621 483.8967 227.6756 484.8832 226.4589 484.8832L226.4589 484.8832L207.0359 484.8832C 205.8192 484.8832 204.8327 485.8696 204.8327 487.0864L204.8327 487.0864L204.8327 491.7308L204.8327 491.7308L204.8327 497.2639C 204.8327 497.8615 204.4491 498.3915 203.8815 498.5783C 203.3139 498.7651 202.9303 499.2951 202.9303 499.8927L202.9303 499.8927L202.9303 505.1879C 202.9303 506.4047 203.9167 507.3911 205.1335 507.3911L205.1335 507.3911L287.0956 507.3911C 288.3123 507.3911 289.2988 506.4047 289.2988 505.1879L289.2988 505.1879L289.2988 500.0114C 289.2988 499.3282 288.8287 498.7348 288.1636 498.5783C 287.4986 498.4219 287.0287 497.8284 287.0287 497.1452L287.0287 497.1452L287.0287 491.7308L287.0287 491.7308L287.0287 487.0864C 287.0287 485.8696 286.0422 484.8832 284.8254 484.8832L284.8254 484.8832L265.4024 484.8832C 264.1857 484.8832 263.1992 483.8967 263.1992 482.68L263.1992 482.68L263.1992 480.2388C 263.1992 479.0221 262.2127 478.0356 260.996 478.0356L260.996 478.0356L230.8653 478.0356C 229.6485 478.0356 228.6621 479.0221 228.6621 480.2388z" stroke="none" fill="#40E0D0" fill-rule="nonzero" /></g><g clip-path="url(#64)"><g clip-path="url(#65)"><g clip-path="url(#66)"><g clip-path="url(#67)"><path id="402" transform="matrix(1 0 0 -1 0 842)" d="M322.8288 321.9468L570.3625 321.9468L570.3625 59.90909L322.8288 59.90909z" stroke="none" fill="#1D70B7" fill-rule="nonzero" /></g></g></g></g><g clip-path="url(#68)"><g><g clip-path="url(#69)"><g mask="url(#m5)"><g><g clip-path="url(#71)"><g clip-path="url(#72)"><path id="404" transform="matrix(1 0 0 -1 0 842)" d="M334.6451 102.1395L572.3604 102.1395L572.3604 97.08868L334.6451 97.08868z" stroke="none" fill="#000000" fill-rule="nonzero" /></g></g></g></g><g mask="url(#m6)"><g><g clip-path="url(#76)"><g clip-path="url(#77)"><path id="406" transform="matrix(1 0 0 -1 0 842)" d="M334.6451 102.1395L572.3604 102.1395L572.3604 97.08868L334.6451 97.08868z" stroke="none" fill="#000000" fill-rule="nonzero" /></g></g></g></g></g></g></g><g clip-path="url(#78)"><g clip-path="url(#79)"><g clip-path="url(#80)"><g clip-path="url(#81)"><g clip-path="url(#82)"><g transform="matrix(0.4712488 0 0 0.4707715 358.0824 597.2617)"><g transform="matrix(1 0 0 1 0 0)"><image x="0" y="0" xlink:href="img_11.png" width="393" height="270" /></g></g></g></g></g></g></g><g clip-path="url(#83)"></g><g clip-path="url(#84)"><g clip-path="url(#85)"><g clip-path="url(#86)"><g clip-path="url(#87)"><path id="499" transform="matrix(1 0 0 -1 0 842)" d="M41.48328 250.326L289.2176 250.326L289.2176 17.16426L41.48328 17.16426z" stroke="none" fill="#1D70B7" fill-rule="nonzero" /></g></g></g></g><g clip-path="url(#88)"><g><g clip-path="url(#89)"><g mask="url(#m7)"><g><g clip-path="url(#91)"><g clip-path="url(#92)"><path id="501" transform="matrix(1 0 0 -1 0 842)" d="M53.30018 59.41472L291.0155 59.41472L291.0155 54.36395L53.30018 54.36395z" stroke="none" fill="#000000" fill-rule="nonzero" /></g></g></g></g><g mask="url(#m8)"><g><g clip-path="url(#96)"><g clip-path="url(#97)"><path id="503" transform="matrix(1 0 0 -1 0 842)" d="M53.30018 59.41472L291.0155 59.41472L291.0155 54.36395L53.30018 54.36395z" stroke="none" fill="#000000" fill-rule="nonzero" /></g></g></g></g></g></g></g><g clip-path="url(#98)"><g clip-path="url(#99)"><g clip-path="url(#100)"><g clip-path="url(#101)"><g clip-path="url(#102)"><g transform="matrix(0.4873463 0 0 0.487005 77.12543 639.9865)"><g transform="matrix(1 0 0 1 0 0)"><image x="0" y="0" xlink:href="img_13.png" width="379" height="261" /></g></g></g></g></g></g></g><g clip-path="url(#103)"></g><g clip-path="url(#104)"><g transform="matrix(0.1246875 0 0 0.1241722 489.3888 8.540771)"><g transform="matrix(1 0 0 1 0 0)"><image x="0" y="0" xlink:href="img_14.png" width="800" height="453" /></g></g></g><g clip-path="url(#105)"></g></g></g></svg>