<svg xmlns="http://www.w3.org/2000/svg" xmlns:xlink="http://www.w3.org/1999/xlink" id="body_1" preserveAspectRatio="xMinYMin meet" viewBox="0 0 793 1123"><defs><clipPath id="1"><path id="" clip-rule="evenodd" transform="matrix(1 0 0 1 0 0)" d="M0 842L0 -0.25L0 -0.25L595.5 -0.25L595.5 -0.25L595.5 842L595.5 842L0 842z" /></clipPath><clipPath id="2"><path id="" clip-rule="evenodd" transform="matrix(1 0 0 1 0 0)" d="M0 -0.249939L595.5 -0.249939L595.5 -0.249939L595.5 842.0001L595.5 842.0001L0 842.0001z" /></clipPath><clipPath id="3"><path id="" clip-rule="evenodd" transform="matrix(1 0 0 1 0 0)" d="M0 -0.249939L595.5 -0.249939L595.5 -0.249939L595.5 842.0001L595.5 842.0001L0 842.0001z" /></clipPath><clipPath id="4"><path id="" clip-rule="evenodd" transform="matrix(1 0 0 1 0 0)" d="M0 -0.249939L595.5 -0.249939L595.5 -0.249939L595.5 842.0001L595.5 842.0001L0 842.0001z" /></clipPath><clipPath id="5"><path id="" clip-rule="evenodd" transform="matrix(1 0 0 1 0 0)" d="M78.71999 30.71008L522.24 30.71008L522.24 30.71008L522.24 810.9501L522.24 810.9501L78.71999 810.9501z" /></clipPath><clipPath id="6"><path id="" clip-rule="evenodd" transform="matrix(1 0 0 1 0 0)" d="M79.51787 30.75183L522.0178 30.75183L522.0178 30.75183L522.0178 810.7518L522.0178 810.7518L79.51787 810.7518z" /></clipPath><clipPath id="7"><path id="" clip-rule="evenodd" transform="matrix(1 0 0 1 0 0)" d="M0 -0.249939L116.439 -0.249939L116.439 -0.249939L116.439 108.1993L116.439 108.1993L0 108.1993z" /></clipPath><clipPath id="8"><path id="" clip-rule="evenodd" transform="matrix(1 0 0 1 0 0)" d="M542.1025 467.1507L595.5 467.1507L595.5 467.1507L595.5 563.1506L595.5 563.1506L542.1025 563.1506z" /></clipPath><clipPath id="9"><path id="" clip-rule="evenodd" transform="matrix(1 0 0 1 0 0)" d="M307.1396 -0.249939L595.5 -0.249939L595.5 -0.249939L595.5 267.3099L595.5 267.3099L307.1396 267.3099z" /></clipPath><clipPath id="10"><path id="" clip-rule="evenodd" transform="matrix(1 0 0 1 0 0)" d="M486.339 12.52423L585.3389 12.52423L585.3389 12.52423L585.3389 68.77423L585.3389 68.77423L486.339 68.77423z" /></clipPath><clipPath id="11"><path id="" clip-rule="evenodd" transform="matrix(1 0 0 1 0 0)" d="M0 757.5687L72.29224 757.5687L72.29224 757.5687L72.29224 842.0001L72.29224 842.0001L0 842.0001z" /></clipPath><clipPath id="12"><path id="" clip-rule="evenodd" transform="matrix(1 0 0 1 0 0)" d="M43.77788 148.4432L531.2778 148.4432L531.2778 148.4432L531.2778 657.6932L531.2778 657.6932L43.77788 657.6932z" /></clipPath><clipPath id="13"><path id="" clip-rule="evenodd" transform="matrix(1 0 0 1 0 0)" d="M0 -0.249939L595.5 -0.249939L595.5 -0.249939L595.5 842.0001L595.5 842.0001L0 842.0001z" /></clipPath><clipPath id="14"><path id="" clip-rule="evenodd" transform="matrix(1 0 0 1 0 0)" d="M0 -0.249939L595.5 -0.249939L595.5 -0.249939L595.5 842.0001L595.5 842.0001L0 842.0001z" /></clipPath><clipPath id="15"><path id="" clip-rule="evenodd" transform="matrix(1 0 0 1 0 0)" d="M402.3099 105.3535L434.5599 105.3535L434.5599 105.3535L434.5599 137.6035L434.5599 137.6035L402.3099 137.6035z" /></clipPath><clipPath id="16"><path id="" clip-rule="evenodd" transform="matrix(1 0 0 1 0 0)" d="M402.3099 121.2477C 402.3099 125.4631 403.9844 129.5059 406.9652 132.4867C 409.946 135.4675 413.9887 137.142 418.2041 137.142C 422.4196 137.142 426.4623 135.4675 429.4431 132.4867C 432.4238 129.5059 434.0984 125.4631 434.0984 121.2477C 434.0984 117.0323 432.4238 112.9896 429.4431 110.0088C 426.4623 107.0281 422.4196 105.3535 418.2041 105.3535C 413.9887 105.3535 409.946 107.0281 406.9652 110.0088C 403.9844 112.9896 402.3099 117.0323 402.3099 121.2477z" /></clipPath><clipPath id="17"><path id="" clip-rule="evenodd" transform="matrix(1 0 0 1 0 0)" d="M403.0599 106.1035L433.8099 106.1035L433.8099 106.1035L433.8099 136.8535L433.8099 136.8535L403.0599 136.8535z" /></clipPath><clipPath id="18"><path id="" clip-rule="evenodd" transform="matrix(1 0 0 1 0 0)" d="M418.2041 106.2535C 422.1808 106.2535 425.9947 107.8333 428.8067 110.6452C 431.6186 113.4572 433.1984 117.271 433.1984 121.2477C 433.1984 125.2245 431.6186 129.0383 428.8067 131.8503C 425.9947 134.6623 422.1808 136.242 418.2041 136.242C 414.2274 136.242 410.4135 134.6623 407.6016 131.8503C 404.7896 129.0383 403.2099 125.2245 403.2099 121.2477C 403.2099 117.271 404.7896 113.4572 407.6016 110.6452C 410.4135 107.8333 414.2274 106.2535 418.2041 106.2535z" /></clipPath><clipPath id="19"><path id="" clip-rule="evenodd" transform="matrix(1 0 0 1 0 0)" d="M403.0599 106.1035L433.8099 106.1035L433.8099 106.1035L433.8099 136.8535L433.8099 136.8535L403.0599 136.8535z" /></clipPath><clipPath id="20"><path id="" clip-rule="evenodd" transform="matrix(1 0 0 1 0 0)" d="M402.3032 105.3468L433.8032 105.3468L433.8032 105.3468L433.8032 136.8468L433.8032 136.8468L402.3032 136.8468z" /></clipPath><clipPath id="21"><path id="" clip-rule="evenodd" transform="matrix(1 0 0 1 0 0)" d="M0 -0.249939L595.5 -0.249939L595.5 -0.249939L595.5 842.0001L595.5 842.0001L0 842.0001z" /></clipPath><clipPath id="22"><path id="" clip-rule="evenodd" transform="matrix(1 0 0 1 0 0)" d="M0 -0.249939L595.5 -0.249939L595.5 -0.249939L595.5 842.0001L595.5 842.0001L0 842.0001z" /></clipPath><clipPath id="23"><path id="" clip-rule="evenodd" transform="matrix(1 0 0 1 0 0)" d="M402.3099 105.3535L434.5599 105.3535L434.5599 105.3535L434.5599 137.6035L434.5599 137.6035L402.3099 137.6035z" /></clipPath><clipPath id="24"><path id="" clip-rule="evenodd" transform="matrix(1 0 0 1 0 0)" d="M402.3099 121.2477C 402.3099 125.4631 403.9844 129.5059 406.9652 132.4867C 409.946 135.4675 413.9887 137.142 418.2041 137.142C 422.4196 137.142 426.4623 135.4675 429.4431 132.4867C 432.4238 129.5059 434.0984 125.4631 434.0984 121.2477C 434.0984 117.0323 432.4238 112.9896 429.4431 110.0088C 426.4623 107.0281 422.4196 105.3535 418.2041 105.3535C 413.9887 105.3535 409.946 107.0281 406.9652 110.0088C 403.9844 112.9896 402.3099 117.0323 402.3099 121.2477z" /></clipPath><clipPath id="25"><path id="" clip-rule="evenodd" transform="matrix(1 0 0 1 0 0)" d="M402.3099 105.3535L433.8099 105.3535L433.8099 105.3535L433.8099 136.8535L433.8099 136.8535L402.3099 136.8535z" /></clipPath><clipPath id="26"><path id="" clip-rule="evenodd" transform="matrix(1 0 0 1 0 0)" d="M402.3099 105.3535L434.5525 105.3535L434.5525 105.3535L434.5525 137.5961L434.5525 137.5961L402.3099 137.5961z" /></clipPath><clipPath id="27"><path id="" clip-rule="evenodd" transform="matrix(1 0 0 1 0 0)" d="M402.3099 121.2441C 402.3099 125.4586 403.9841 129.5004 406.9641 132.4805C 409.9442 135.4606 413.9861 137.1348 418.2005 137.1348C 422.4149 137.1348 426.4568 135.4606 429.4369 132.4805C 432.4169 129.5004 434.0911 125.4586 434.0911 121.2441C 434.0911 117.0297 432.4169 112.9878 429.4369 110.0078C 426.4568 107.0276 422.4149 105.3535 418.2005 105.3535C 413.9861 105.3535 409.9442 107.0276 406.9641 110.0078C 403.9841 112.9878 402.3099 117.0297 402.3099 121.2441z" /></clipPath><clipPath id="28"><path id="" clip-rule="evenodd" transform="matrix(1 0 0 1 0 0)" d="M0 -0.249939L595.5 -0.249939L595.5 -0.249939L595.5 842.0001L595.5 842.0001L0 842.0001z" /></clipPath><clipPath id="29"><path id="" clip-rule="evenodd" transform="matrix(1 0 0 1 0 0)" d="M0 -0.249939L595.5 -0.249939L595.5 -0.249939L595.5 842.0001L595.5 842.0001L0 842.0001z" /></clipPath><clipPath id="30"><path id="" clip-rule="evenodd" transform="matrix(1 0 0 1 0 0)" d="M72.53756 200.3354L104.7876 200.3354L104.7876 200.3354L104.7876 232.5854L104.7876 232.5854L72.53756 232.5854z" /></clipPath><clipPath id="31"><path id="" clip-rule="evenodd" transform="matrix(1 0 0 1 0 0)" d="M72.53756 216.2297C 72.53756 220.4451 74.21214 224.4879 77.19289 227.4686C 80.17364 230.4494 84.2164 232.124 88.43182 232.124C 92.64724 232.124 96.69001 230.4494 99.67076 227.4686C 102.6515 224.4879 104.3261 220.4451 104.3261 216.2297C 104.3261 212.0143 102.6515 207.9716 99.67076 204.9908C 96.69001 202.01 92.64724 200.3354 88.43182 200.3354C 84.2164 200.3354 80.17364 202.01 77.19289 204.9908C 74.21214 207.9716 72.53756 212.0143 72.53756 216.2297z" /></clipPath><clipPath id="32"><path id="" clip-rule="evenodd" transform="matrix(1 0 0 1 0 0)" d="M73.28756 201.0854L104.0376 201.0854L104.0376 201.0854L104.0376 231.8354L104.0376 231.8354L73.28756 231.8354z" /></clipPath><clipPath id="33"><path id="" clip-rule="evenodd" transform="matrix(1 0 0 1 0 0)" d="M88.43182 201.2355C 92.40855 201.2355 96.2224 202.8152 99.03437 205.6272C 101.8463 208.4391 103.4261 212.253 103.4261 216.2297C 103.4261 220.2064 101.8463 224.0203 99.03437 226.8323C 96.2224 229.6442 92.40855 231.224 88.43182 231.224C 84.45509 231.224 80.64124 229.6442 77.82928 226.8323C 75.0173 224.0203 73.43756 220.2064 73.43756 216.2297C 73.43756 212.253 75.0173 208.4391 77.82928 205.6272C 80.64124 202.8152 84.45509 201.2355 88.43182 201.2355z" /></clipPath><clipPath id="34"><path id="" clip-rule="evenodd" transform="matrix(1 0 0 1 0 0)" d="M73.28756 201.0854L104.0376 201.0854L104.0376 201.0854L104.0376 231.8354L104.0376 231.8354L73.28756 231.8354z" /></clipPath><clipPath id="35"><path id="" clip-rule="evenodd" transform="matrix(1 0 0 1 0 0)" d="M72.53087 200.3287L104.0309 200.3287L104.0309 200.3287L104.0309 231.8287L104.0309 231.8287L72.53087 231.8287z" /></clipPath><clipPath id="36"><path id="" clip-rule="evenodd" transform="matrix(1 0 0 1 0 0)" d="M0 -0.249939L595.5 -0.249939L595.5 -0.249939L595.5 842.0001L595.5 842.0001L0 842.0001z" /></clipPath><clipPath id="37"><path id="" clip-rule="evenodd" transform="matrix(1 0 0 1 0 0)" d="M0 -0.249939L595.5 -0.249939L595.5 -0.249939L595.5 842.0001L595.5 842.0001L0 842.0001z" /></clipPath><clipPath id="38"><path id="" clip-rule="evenodd" transform="matrix(1 0 0 1 0 0)" d="M72.53756 200.3354L104.7876 200.3354L104.7876 200.3354L104.7876 232.5854L104.7876 232.5854L72.53756 232.5854z" /></clipPath><clipPath id="39"><path id="" clip-rule="evenodd" transform="matrix(1 0 0 1 0 0)" d="M72.53756 216.2297C 72.53756 220.4451 74.21214 224.4879 77.19289 227.4686C 80.17364 230.4494 84.2164 232.124 88.43182 232.124C 92.64724 232.124 96.69001 230.4494 99.67076 227.4686C 102.6515 224.4879 104.3261 220.4451 104.3261 216.2297C 104.3261 212.0143 102.6515 207.9716 99.67076 204.9908C 96.69001 202.01 92.64724 200.3354 88.43182 200.3354C 84.2164 200.3354 80.17364 202.01 77.19289 204.9908C 74.21214 207.9716 72.53756 212.0143 72.53756 216.2297z" /></clipPath><clipPath id="40"><path id="" clip-rule="evenodd" transform="matrix(1 0 0 1 0 0)" d="M72.53756 200.3354L104.0376 200.3354L104.0376 200.3354L104.0376 231.8354L104.0376 231.8354L72.53756 231.8354z" /></clipPath><clipPath id="41"><path id="" clip-rule="evenodd" transform="matrix(1 0 0 1 0 0)" d="M72.53756 200.3354L104.7802 200.3354L104.7802 200.3354L104.7802 232.5781L104.7802 232.5781L72.53756 232.5781z" /></clipPath><clipPath id="42"><path id="" clip-rule="evenodd" transform="matrix(1 0 0 1 0 0)" d="M72.53756 216.2261C 72.53756 220.4406 74.21175 224.4824 77.19182 227.4625C 80.17188 230.4425 84.21373 232.1167 88.42818 232.1167C 92.64263 232.1167 96.68449 230.4425 99.66455 227.4625C 102.6446 224.4824 104.3188 220.4406 104.3188 216.2261C 104.3188 212.0116 102.6446 207.9698 99.66455 204.9897C 96.68449 202.0096 92.64263 200.3354 88.42818 200.3354C 84.21373 200.3354 80.17188 202.0096 77.19182 204.9897C 74.21175 207.9698 72.53756 212.0116 72.53756 216.2261z" /></clipPath><clipPath id="43"><path id="" clip-rule="evenodd" transform="matrix(1 0 0 1 0 0)" d="M0 -0.249939L595.5 -0.249939L595.5 -0.249939L595.5 842.0001L595.5 842.0001L0 842.0001z" /></clipPath><clipPath id="44"><path id="" clip-rule="evenodd" transform="matrix(1 0 0 1 0 0)" d="M0 -0.249939L595.5 -0.249939L595.5 -0.249939L595.5 842.0001L595.5 842.0001L0 842.0001z" /></clipPath><clipPath id="45"><path id="" clip-rule="evenodd" transform="matrix(1 0 0 1 0 0)" d="M157.779 328.8384L190.029 328.8384L190.029 328.8384L190.029 361.0884L190.029 361.0884L157.779 361.0884z" /></clipPath><clipPath id="46"><path id="" clip-rule="evenodd" transform="matrix(1 0 0 1 0 0)" d="M157.779 344.7327C 157.779 348.9482 159.4535 352.9909 162.4343 355.9716C 165.415 358.9524 169.4578 360.627 173.6732 360.627C 177.8886 360.627 181.9314 358.9524 184.9122 355.9716C 187.8929 352.9909 189.5675 348.9482 189.5675 344.7327C 189.5675 340.5173 187.8929 336.4745 184.9122 333.4938C 181.9314 330.513 177.8886 328.8384 173.6732 328.8384C 169.4578 328.8384 165.415 330.513 162.4343 333.4938C 159.4535 336.4745 157.779 340.5173 157.779 344.7327z" /></clipPath><clipPath id="47"><path id="" clip-rule="evenodd" transform="matrix(1 0 0 1 0 0)" d="M158.529 329.5884L189.279 329.5884L189.279 329.5884L189.279 360.3384L189.279 360.3384L158.529 360.3384z" /></clipPath><clipPath id="48"><path id="" clip-rule="evenodd" transform="matrix(1 0 0 1 0 0)" d="M173.6732 329.7385C 177.6499 329.7385 181.4638 331.3182 184.2758 334.1302C 187.0877 336.9421 188.6675 340.756 188.6675 344.7327C 188.6675 348.7094 187.0877 352.5233 184.2758 355.3352C 181.4638 358.1472 177.6499 359.727 173.6732 359.727C 169.6965 359.727 165.8827 358.1472 163.0707 355.3352C 160.2587 352.5233 158.679 348.7094 158.679 344.7327C 158.679 340.756 160.2587 336.9421 163.0707 334.1302C 165.8827 331.3182 169.6965 329.7385 173.6732 329.7385z" /></clipPath><clipPath id="49"><path id="" clip-rule="evenodd" transform="matrix(1 0 0 1 0 0)" d="M158.529 329.5884L189.279 329.5884L189.279 329.5884L189.279 360.3384L189.279 360.3384L158.529 360.3384z" /></clipPath><clipPath id="50"><path id="" clip-rule="evenodd" transform="matrix(1 0 0 1 0 0)" d="M157.7723 328.8318L189.2723 328.8318L189.2723 328.8318L189.2723 360.3318L189.2723 360.3318L157.7723 360.3318z" /></clipPath><clipPath id="51"><path id="" clip-rule="evenodd" transform="matrix(1 0 0 1 0 0)" d="M0 -0.249939L595.5 -0.249939L595.5 -0.249939L595.5 842.0001L595.5 842.0001L0 842.0001z" /></clipPath><clipPath id="52"><path id="" clip-rule="evenodd" transform="matrix(1 0 0 1 0 0)" d="M0 -0.249939L595.5 -0.249939L595.5 -0.249939L595.5 842.0001L595.5 842.0001L0 842.0001z" /></clipPath><clipPath id="53"><path id="" clip-rule="evenodd" transform="matrix(1 0 0 1 0 0)" d="M157.779 328.8384L190.029 328.8384L190.029 328.8384L190.029 361.0884L190.029 361.0884L157.779 361.0884z" /></clipPath><clipPath id="54"><path id="" clip-rule="evenodd" transform="matrix(1 0 0 1 0 0)" d="M157.779 344.7327C 157.779 348.9482 159.4535 352.9909 162.4343 355.9716C 165.415 358.9524 169.4578 360.627 173.6732 360.627C 177.8886 360.627 181.9314 358.9524 184.9122 355.9716C 187.8929 352.9909 189.5675 348.9482 189.5675 344.7327C 189.5675 340.5173 187.8929 336.4745 184.9122 333.4938C 181.9314 330.513 177.8886 328.8384 173.6732 328.8384C 169.4578 328.8384 165.415 330.513 162.4343 333.4938C 159.4535 336.4745 157.779 340.5173 157.779 344.7327z" /></clipPath><clipPath id="55"><path id="" clip-rule="evenodd" transform="matrix(1 0 0 1 0 0)" d="M157.779 328.8384L189.279 328.8384L189.279 328.8384L189.279 360.3384L189.279 360.3384L157.779 360.3384z" /></clipPath><clipPath id="56"><path id="" clip-rule="evenodd" transform="matrix(1 0 0 1 0 0)" d="M157.779 328.8384L190.0216 328.8384L190.0216 328.8384L190.0216 361.0811L190.0216 361.0811L157.779 361.0811z" /></clipPath><clipPath id="57"><path id="" clip-rule="evenodd" transform="matrix(1 0 0 1 0 0)" d="M157.779 344.7291C 157.779 348.9435 159.4531 352.9854 162.4332 355.9655C 165.4133 358.9455 169.4551 360.6197 173.6696 360.6197C 177.884 360.6197 181.9259 358.9455 184.906 355.9655C 187.886 352.9854 189.5602 348.9435 189.5602 344.7291C 189.5602 340.5146 187.886 336.4728 184.906 333.4927C 181.9259 330.5127 177.884 328.8384 173.6696 328.8384C 169.4551 328.8384 165.4133 330.5127 162.4332 333.4927C 159.4531 336.4728 157.779 340.5146 157.779 344.7291z" /></clipPath><clipPath id="58"><path id="" clip-rule="evenodd" transform="matrix(1 0 0 1 0 0)" d="M0 -0.249939L595.5 -0.249939L595.5 -0.249939L595.5 842.0001L595.5 842.0001L0 842.0001z" /></clipPath><clipPath id="59"><path id="" clip-rule="evenodd" transform="matrix(1 0 0 1 0 0)" d="M0 -0.249939L595.5 -0.249939L595.5 -0.249939L595.5 842.0001L595.5 842.0001L0 842.0001z" /></clipPath><clipPath id="60"><path id="" clip-rule="evenodd" transform="matrix(1 0 0 1 0 0)" d="M402.3099 390.4272L434.5599 390.4272L434.5599 390.4272L434.5599 422.6772L434.5599 422.6772L402.3099 422.6772z" /></clipPath><clipPath id="61"><path id="" clip-rule="evenodd" transform="matrix(1 0 0 1 0 0)" d="M402.3099 406.3215C 402.3099 410.5369 403.9844 414.5797 406.9652 417.5604C 409.946 420.5412 413.9887 422.2157 418.2041 422.2157C 422.4196 422.2157 426.4623 420.5412 429.4431 417.5604C 432.4238 414.5797 434.0984 410.5369 434.0984 406.3215C 434.0984 402.1061 432.4238 398.0633 429.4431 395.0826C 426.4623 392.1018 422.4196 390.4272 418.2041 390.4272C 413.9887 390.4272 409.946 392.1018 406.9652 395.0826C 403.9844 398.0633 402.3099 402.1061 402.3099 406.3215z" /></clipPath><clipPath id="62"><path id="" clip-rule="evenodd" transform="matrix(1 0 0 1 0 0)" d="M403.0599 391.1772L433.8099 391.1772L433.8099 391.1772L433.8099 421.9272L433.8099 421.9272L403.0599 421.9272z" /></clipPath><clipPath id="63"><path id="" clip-rule="evenodd" transform="matrix(1 0 0 1 0 0)" d="M418.2041 391.3272C 422.1808 391.3272 425.9947 392.907 428.8067 395.7189C 431.6186 398.5309 433.1984 402.3448 433.1984 406.3215C 433.1984 410.2982 431.6186 414.112 428.8067 416.924C 425.9947 419.736 422.1808 421.3157 418.2041 421.3157C 414.2274 421.3157 410.4135 419.736 407.6016 416.924C 404.7896 414.112 403.2099 410.2982 403.2099 406.3215C 403.2099 402.3448 404.7896 398.5309 407.6016 395.7189C 410.4135 392.907 414.2274 391.3272 418.2041 391.3272z" /></clipPath><clipPath id="64"><path id="" clip-rule="evenodd" transform="matrix(1 0 0 1 0 0)" d="M403.0599 391.1772L433.8099 391.1772L433.8099 391.1772L433.8099 421.9272L433.8099 421.9272L403.0599 421.9272z" /></clipPath><clipPath id="65"><path id="" clip-rule="evenodd" transform="matrix(1 0 0 1 0 0)" d="M402.3032 390.4205L433.8032 390.4205L433.8032 390.4205L433.8032 421.9205L433.8032 421.9205L402.3032 421.9205z" /></clipPath><clipPath id="66"><path id="" clip-rule="evenodd" transform="matrix(1 0 0 1 0 0)" d="M0 -0.249939L595.5 -0.249939L595.5 -0.249939L595.5 842.0001L595.5 842.0001L0 842.0001z" /></clipPath><clipPath id="67"><path id="" clip-rule="evenodd" transform="matrix(1 0 0 1 0 0)" d="M0 -0.249939L595.5 -0.249939L595.5 -0.249939L595.5 842.0001L595.5 842.0001L0 842.0001z" /></clipPath><clipPath id="68"><path id="" clip-rule="evenodd" transform="matrix(1 0 0 1 0 0)" d="M402.3099 390.4272L434.5599 390.4272L434.5599 390.4272L434.5599 422.6772L434.5599 422.6772L402.3099 422.6772z" /></clipPath><clipPath id="69"><path id="" clip-rule="evenodd" transform="matrix(1 0 0 1 0 0)" d="M402.3099 406.3215C 402.3099 410.5369 403.9844 414.5797 406.9652 417.5604C 409.946 420.5412 413.9887 422.2157 418.2041 422.2157C 422.4196 422.2157 426.4623 420.5412 429.4431 417.5604C 432.4238 414.5797 434.0984 410.5369 434.0984 406.3215C 434.0984 402.1061 432.4238 398.0633 429.4431 395.0826C 426.4623 392.1018 422.4196 390.4272 418.2041 390.4272C 413.9887 390.4272 409.946 392.1018 406.9652 395.0826C 403.9844 398.0633 402.3099 402.1061 402.3099 406.3215z" /></clipPath><clipPath id="70"><path id="" clip-rule="evenodd" transform="matrix(1 0 0 1 0 0)" d="M402.3099 390.4272L433.8099 390.4272L433.8099 390.4272L433.8099 421.9272L433.8099 421.9272L402.3099 421.9272z" /></clipPath><clipPath id="71"><path id="" clip-rule="evenodd" transform="matrix(1 0 0 1 0 0)" d="M402.3099 390.4272L434.5525 390.4272L434.5525 390.4272L434.5525 422.6698L434.5525 422.6698L402.3099 422.6698z" /></clipPath><clipPath id="72"><path id="" clip-rule="evenodd" transform="matrix(1 0 0 1 0 0)" d="M402.3099 406.3178C 402.3099 410.5323 403.9841 414.5742 406.9641 417.5542C 409.9442 420.5343 413.9861 422.2085 418.2005 422.2085C 422.4149 422.2085 426.4568 420.5343 429.4369 417.5542C 432.4169 414.5742 434.0911 410.5323 434.0911 406.3178C 434.0911 402.1034 432.4169 398.0616 429.4369 395.0815C 426.4568 392.1014 422.4149 390.4272 418.2005 390.4272C 413.9861 390.4272 409.9442 392.1014 406.9641 395.0815C 403.9841 398.0616 402.3099 402.1034 402.3099 406.3178z" /></clipPath><clipPath id="73"><path id="" clip-rule="evenodd" transform="matrix(1 0 0 1 0 0)" d="M0 -0.249939L595.5 -0.249939L595.5 -0.249939L595.5 842.0001L595.5 842.0001L0 842.0001z" /></clipPath><clipPath id="74"><path id="" clip-rule="evenodd" transform="matrix(1 0 0 1 0 0)" d="M0 -0.249939L595.5 -0.249939L595.5 -0.249939L595.5 842.0001L595.5 842.0001L0 842.0001z" /></clipPath><clipPath id="75"><path id="" clip-rule="evenodd" transform="matrix(1 0 0 1 0 0)" d="M193.4846 459.2523L225.7346 459.2523L225.7346 459.2523L225.7346 491.5023L225.7346 491.5023L193.4846 491.5023z" /></clipPath><clipPath id="76"><path id="" clip-rule="evenodd" transform="matrix(1 0 0 1 0 0)" d="M193.4846 475.1466C 193.4846 479.362 195.1592 483.4048 198.14 486.3856C 201.1207 489.3663 205.1635 491.0409 209.3789 491.0409C 213.5943 491.0409 217.6371 489.3663 220.6179 486.3856C 223.5986 483.4048 225.2732 479.362 225.2732 475.1466C 225.2732 470.9312 223.5986 466.8884 220.6179 463.9077C 217.6371 460.9269 213.5943 459.2523 209.3789 459.2523C 205.1635 459.2523 201.1207 460.9269 198.14 463.9077C 195.1592 466.8884 193.4846 470.9312 193.4846 475.1466z" /></clipPath><clipPath id="77"><path id="" clip-rule="evenodd" transform="matrix(1 0 0 1 0 0)" d="M194.2346 460.0023L224.9846 460.0023L224.9846 460.0023L224.9846 490.7523L224.9846 490.7523L194.2346 490.7523z" /></clipPath><clipPath id="78"><path id="" clip-rule="evenodd" transform="matrix(1 0 0 1 0 0)" d="M209.3789 460.1523C 213.3556 460.1523 217.1695 461.7321 219.9815 464.5441C 222.7934 467.356 224.3732 471.1699 224.3732 475.1466C 224.3732 479.1233 222.7934 482.9372 219.9815 485.7491C 217.1695 488.5611 213.3556 490.1409 209.3789 490.1409C 205.4022 490.1409 201.5883 488.5611 198.7764 485.7491C 195.9644 482.9372 194.3846 479.1233 194.3846 475.1466C 194.3846 471.1699 195.9644 467.356 198.7764 464.5441C 201.5883 461.7321 205.4022 460.1523 209.3789 460.1523z" /></clipPath><clipPath id="79"><path id="" clip-rule="evenodd" transform="matrix(1 0 0 1 0 0)" d="M194.2346 460.0023L224.9846 460.0023L224.9846 460.0023L224.9846 490.7523L224.9846 490.7523L194.2346 490.7523z" /></clipPath><clipPath id="80"><path id="" clip-rule="evenodd" transform="matrix(1 0 0 1 0 0)" d="M193.478 459.2456L224.978 459.2456L224.978 459.2456L224.978 490.7456L224.978 490.7456L193.478 490.7456z" /></clipPath><clipPath id="81"><path id="" clip-rule="evenodd" transform="matrix(1 0 0 1 0 0)" d="M0 -0.249939L595.5 -0.249939L595.5 -0.249939L595.5 842.0001L595.5 842.0001L0 842.0001z" /></clipPath><clipPath id="82"><path id="" clip-rule="evenodd" transform="matrix(1 0 0 1 0 0)" d="M0 -0.249939L595.5 -0.249939L595.5 -0.249939L595.5 842.0001L595.5 842.0001L0 842.0001z" /></clipPath><clipPath id="83"><path id="" clip-rule="evenodd" transform="matrix(1 0 0 1 0 0)" d="M193.4846 459.2523L225.7346 459.2523L225.7346 459.2523L225.7346 491.5023L225.7346 491.5023L193.4846 491.5023z" /></clipPath><clipPath id="84"><path id="" clip-rule="evenodd" transform="matrix(1 0 0 1 0 0)" d="M193.4846 475.1466C 193.4846 479.362 195.1592 483.4048 198.14 486.3856C 201.1207 489.3663 205.1635 491.0409 209.3789 491.0409C 213.5943 491.0409 217.6371 489.3663 220.6179 486.3856C 223.5986 483.4048 225.2732 479.362 225.2732 475.1466C 225.2732 470.9312 223.5986 466.8884 220.6179 463.9077C 217.6371 460.9269 213.5943 459.2523 209.3789 459.2523C 205.1635 459.2523 201.1207 460.9269 198.14 463.9077C 195.1592 466.8884 193.4846 470.9312 193.4846 475.1466z" /></clipPath><clipPath id="85"><path id="" clip-rule="evenodd" transform="matrix(1 0 0 1 0 0)" d="M193.4846 459.2523L224.9846 459.2523L224.9846 459.2523L224.9846 490.7523L224.9846 490.7523L193.4846 490.7523z" /></clipPath><clipPath id="86"><path id="" clip-rule="evenodd" transform="matrix(1 0 0 1 0 0)" d="M193.4846 459.2523L225.7273 459.2523L225.7273 459.2523L225.7273 491.4949L225.7273 491.4949L193.4846 491.4949z" /></clipPath><clipPath id="87"><path id="" clip-rule="evenodd" transform="matrix(1 0 0 1 0 0)" d="M193.4846 475.143C 193.4846 479.3574 195.1588 483.3993 198.1389 486.3793C 201.119 489.3594 205.1608 491.0336 209.3753 491.0336C 213.5897 491.0336 217.6316 489.3594 220.6116 486.3793C 223.5917 483.3993 225.2659 479.3574 225.2659 475.143C 225.2659 470.9285 223.5917 466.8867 220.6116 463.9066C 217.6316 460.9265 213.5897 459.2523 209.3753 459.2523C 205.1608 459.2523 201.119 460.9265 198.1389 463.9066C 195.1588 466.8867 193.4846 470.9285 193.4846 475.143z" /></clipPath><clipPath id="88"><path id="" clip-rule="evenodd" transform="matrix(1 0 0 1 0 0)" d="M0 -0.249939L595.5 -0.249939L595.5 -0.249939L595.5 842.0001L595.5 842.0001L0 842.0001z" /></clipPath><clipPath id="89"><path id="" clip-rule="evenodd" transform="matrix(1 0 0 1 0 0)" d="M0 -0.249939L595.5 -0.249939L595.5 -0.249939L595.5 842.0001L595.5 842.0001L0 842.0001z" /></clipPath><clipPath id="90"><path id="" clip-rule="evenodd" transform="matrix(1 0 0 1 0 0)" d="M319.5006 590.6247L351.7506 590.6247L351.7506 590.6247L351.7506 622.8747L351.7506 622.8747L319.5006 622.8747z" /></clipPath><clipPath id="91"><path id="" clip-rule="evenodd" transform="matrix(1 0 0 1 0 0)" d="M319.5006 606.519C 319.5006 610.7344 321.1752 614.7772 324.1559 617.7579C 327.1367 620.7387 331.1794 622.4132 335.3948 622.4132C 339.6103 622.4132 343.653 620.7387 346.6338 617.7579C 349.6145 614.7772 351.2891 610.7344 351.2891 606.519C 351.2891 602.3036 349.6145 598.2607 346.6338 595.28C 343.653 592.2993 339.6103 590.6247 335.3948 590.6247C 331.1794 590.6247 327.1367 592.2993 324.1559 595.28C 321.1752 598.2607 319.5006 602.3036 319.5006 606.519z" /></clipPath><clipPath id="92"><path id="" clip-rule="evenodd" transform="matrix(1 0 0 1 0 0)" d="M320.2506 591.3747L351.0006 591.3747L351.0006 591.3747L351.0006 622.1247L351.0006 622.1247L320.2506 622.1247z" /></clipPath><clipPath id="93"><path id="" clip-rule="evenodd" transform="matrix(1 0 0 1 0 0)" d="M335.3948 591.5247C 339.3716 591.5247 343.1854 593.1045 345.9974 595.9164C 348.8094 598.7284 350.3891 602.5423 350.3891 606.519C 350.3891 610.4957 348.8094 614.3095 345.9974 617.1215C 343.1854 619.9335 339.3716 621.5132 335.3948 621.5132C 331.4181 621.5132 327.6043 619.9335 324.7923 617.1215C 321.9803 614.3095 320.4006 610.4957 320.4006 606.519C 320.4006 602.5423 321.9803 598.7284 324.7923 595.9164C 327.6043 593.1045 331.4181 591.5247 335.3948 591.5247z" /></clipPath><clipPath id="94"><path id="" clip-rule="evenodd" transform="matrix(1 0 0 1 0 0)" d="M320.2506 591.3747L351.0006 591.3747L351.0006 591.3747L351.0006 622.1247L351.0006 622.1247L320.2506 622.1247z" /></clipPath><clipPath id="95"><path id="" clip-rule="evenodd" transform="matrix(1 0 0 1 0 0)" d="M319.4939 590.618L350.9939 590.618L350.9939 590.618L350.9939 622.118L350.9939 622.118L319.4939 622.118z" /></clipPath><clipPath id="96"><path id="" clip-rule="evenodd" transform="matrix(1 0 0 1 0 0)" d="M0 -0.249939L595.5 -0.249939L595.5 -0.249939L595.5 842.0001L595.5 842.0001L0 842.0001z" /></clipPath><clipPath id="97"><path id="" clip-rule="evenodd" transform="matrix(1 0 0 1 0 0)" d="M0 -0.249939L595.5 -0.249939L595.5 -0.249939L595.5 842.0001L595.5 842.0001L0 842.0001z" /></clipPath><clipPath id="98"><path id="" clip-rule="evenodd" transform="matrix(1 0 0 1 0 0)" d="M319.5006 590.6247L351.7506 590.6247L351.7506 590.6247L351.7506 622.8747L351.7506 622.8747L319.5006 622.8747z" /></clipPath><clipPath id="99"><path id="" clip-rule="evenodd" transform="matrix(1 0 0 1 0 0)" d="M319.5006 606.519C 319.5006 610.7344 321.1752 614.7772 324.1559 617.7579C 327.1367 620.7387 331.1794 622.4132 335.3948 622.4132C 339.6103 622.4132 343.653 620.7387 346.6338 617.7579C 349.6145 614.7772 351.2891 610.7344 351.2891 606.519C 351.2891 602.3036 349.6145 598.2607 346.6338 595.28C 343.653 592.2993 339.6103 590.6247 335.3948 590.6247C 331.1794 590.6247 327.1367 592.2993 324.1559 595.28C 321.1752 598.2607 319.5006 602.3036 319.5006 606.519z" /></clipPath><clipPath id="100"><path id="" clip-rule="evenodd" transform="matrix(1 0 0 1 0 0)" d="M319.5006 590.6247L351.0006 590.6247L351.0006 590.6247L351.0006 622.1247L351.0006 622.1247L319.5006 622.1247z" /></clipPath><clipPath id="101"><path id="" clip-rule="evenodd" transform="matrix(1 0 0 1 0 0)" d="M319.5006 590.6247L351.7432 590.6247L351.7432 590.6247L351.7432 622.8673L351.7432 622.8673L319.5006 622.8673z" /></clipPath><clipPath id="102"><path id="" clip-rule="evenodd" transform="matrix(1 0 0 1 0 0)" d="M319.5006 606.5153C 319.5006 610.7298 321.1748 614.7716 324.1548 617.7517C 327.1349 620.7318 331.1768 622.4059 335.3912 622.4059C 339.6057 622.4059 343.6475 620.7318 346.6276 617.7517C 349.6076 614.7716 351.2818 610.7298 351.2818 606.5153C 351.2818 602.3008 349.6076 598.2591 346.6276 595.279C 343.6475 592.2989 339.6057 590.6247 335.3912 590.6247C 331.1768 590.6247 327.1349 592.2989 324.1548 595.279C 321.1748 598.2591 319.5006 602.3008 319.5006 606.5153z" /></clipPath><clipPath id="103"><path id="" clip-rule="evenodd" transform="matrix(1 0 0 1 0 0)" d="M0 -0.249939L595.5 -0.249939L595.5 -0.249939L595.5 842.0001L595.5 842.0001L0 842.0001z" /></clipPath><clipPath id="104"><path id="" clip-rule="evenodd" transform="matrix(1 0 0 1 0 0)" d="M0 -0.249939L595.5 -0.249939L595.5 -0.249939L595.5 842.0001L595.5 842.0001L0 842.0001z" /></clipPath><clipPath id="105"><path id="" clip-rule="evenodd" transform="matrix(1 0 0 1 0 0)" d="M459.716 284.5505L491.966 284.5505L491.966 284.5505L491.966 316.8005L491.966 316.8005L459.716 316.8005z" /></clipPath><clipPath id="106"><path id="" clip-rule="evenodd" transform="matrix(1 0 0 1 0 0)" d="M459.716 300.4448L459.716 300.4474C 459.716 304.6628 461.3906 308.7056 464.3713 311.6864C 467.3521 314.6671 471.3948 316.3417 475.6102 316.3417C 479.8257 316.3417 483.8684 314.6671 486.8492 311.6864C 489.8299 308.7056 491.5045 304.6628 491.5045 300.4474L491.5045 300.4474L491.5045 300.4448C 491.5045 296.2294 489.8299 292.1866 486.8492 289.2059C 483.8684 286.2252 479.8257 284.5505 475.6102 284.5505C 471.3948 284.5505 467.3521 286.2252 464.3713 289.2059C 461.3906 292.1866 459.716 296.2294 459.716 300.4448z" /></clipPath><clipPath id="107"><path id="" clip-rule="evenodd" transform="matrix(1 0 0 1 0 0)" d="M460.466 285.3005L491.216 285.3005L491.216 285.3005L491.216 316.0505L491.216 316.0505L460.466 316.0505z" /></clipPath><clipPath id="108"><path id="" clip-rule="evenodd" transform="matrix(1 0 0 1 0 0)" d="M475.6102 285.4506C 479.587 285.4506 483.4008 287.0303 486.2128 289.8423C 489.0247 292.6543 490.6045 296.4681 490.6045 300.4448L490.6045 300.4448L490.6045 300.4474C 490.6045 304.4242 489.0247 308.238 486.2128 311.05C 483.4008 313.8619 479.587 315.4417 475.6102 315.4417C 471.6335 315.4417 467.8197 313.8619 465.0077 311.05C 462.1957 308.238 460.616 304.4242 460.616 300.4474L460.616 300.4474L460.616 300.4448C 460.616 296.4681 462.1957 292.6543 465.0077 289.8423C 467.8197 287.0303 471.6335 285.4506 475.6102 285.4506z" /></clipPath><clipPath id="109"><path id="" clip-rule="evenodd" transform="matrix(1 0 0 1 0 0)" d="M460.4647 285.3005L491.2147 285.3005L491.2147 285.3005L491.2147 316.0505L491.2147 316.0505L460.4647 316.0505z" /></clipPath><clipPath id="110"><path id="" clip-rule="evenodd" transform="matrix(1 0 0 1 0 0)" d="M459.708 284.5438L491.208 284.5438L491.208 284.5438L491.208 316.0438L491.208 316.0438L459.708 316.0438z" /></clipPath><clipPath id="111"><path id="" clip-rule="evenodd" transform="matrix(1 0 0 1 0 0)" d="M0 -0.249939L595.5 -0.249939L595.5 -0.249939L595.5 842.0001L595.5 842.0001L0 842.0001z" /></clipPath><clipPath id="112"><path id="" clip-rule="evenodd" transform="matrix(1 0 0 1 0 0)" d="M0 -0.249939L595.5 -0.249939L595.5 -0.249939L595.5 842.0001L595.5 842.0001L0 842.0001z" /></clipPath><clipPath id="113"><path id="" clip-rule="evenodd" transform="matrix(1 0 0 1 0 0)" d="M459.716 284.5505L491.966 284.5505L491.966 284.5505L491.966 316.8005L491.966 316.8005L459.716 316.8005z" /></clipPath><clipPath id="114"><path id="" clip-rule="evenodd" transform="matrix(1 0 0 1 0 0)" d="M459.716 300.4448L459.716 300.4474C 459.716 304.6628 461.3906 308.7056 464.3713 311.6864C 467.3521 314.6671 471.3948 316.3417 475.6102 316.3417C 479.8257 316.3417 483.8684 314.6671 486.8492 311.6864C 489.8299 308.7056 491.5045 304.6628 491.5045 300.4474L491.5045 300.4474L491.5045 300.4448C 491.5045 296.2294 489.8299 292.1866 486.8492 289.2059C 483.8684 286.2252 479.8257 284.5505 475.6102 284.5505C 471.3948 284.5505 467.3521 286.2252 464.3713 289.2059C 461.3906 292.1866 459.716 296.2294 459.716 300.4448z" /></clipPath><clipPath id="115"><path id="" clip-rule="evenodd" transform="matrix(1 0 0 1 0 0)" d="M459.716 284.5505L491.216 284.5505L491.216 284.5505L491.216 316.0505L491.216 316.0505L459.716 316.0505z" /></clipPath><clipPath id="116"><path id="" clip-rule="evenodd" transform="matrix(1 0 0 1 0 0)" d="M459.716 284.5505L491.9586 284.5505L491.9586 284.5505L491.9586 316.7905L491.9586 316.7905L459.716 316.7905z" /></clipPath><clipPath id="117"><path id="" clip-rule="evenodd" transform="matrix(1 0 0 1 0 0)" d="M459.716 300.4399L459.716 300.4425C 459.716 304.6566 461.3902 308.6981 464.3702 311.678C 467.3503 314.6578 471.3922 316.3318 475.6066 316.3318C 479.821 316.3318 483.8629 314.6578 486.843 311.678C 489.823 308.6981 491.4972 304.6566 491.4972 300.4425L491.4972 300.4425L491.4972 300.4399C 491.4972 296.2258 489.823 292.1843 486.843 289.2045C 483.8629 286.2246 479.821 284.5505 475.6066 284.5505C 471.3922 284.5505 467.3503 286.2246 464.3702 289.2045C 461.3902 292.1843 459.716 296.2258 459.716 300.4399z" /></clipPath><clipPath id="118"><path id="" clip-rule="evenodd" transform="matrix(1 0 0 1 0 0)" d="M0 -0.249939L595.5 -0.249939L595.5 -0.249939L595.5 842.0001L595.5 842.0001L0 842.0001z" /></clipPath><clipPath id="119"><path id="" clip-rule="evenodd" transform="matrix(1 0 0 1 0 0)" d="M0 -0.249939L595.5 -0.249939L595.5 -0.249939L595.5 842.0001L595.5 842.0001L0 842.0001z" /></clipPath><clipPath id="120"><path id="" clip-rule="evenodd" transform="matrix(1 0 0 1 0 0)" d="M291.6228 663.3781L213.0078 643.8671L213.0078 643.8671L228.5443 581.2662L228.5443 581.2662L307.1593 600.7772L307.1593 600.7772L291.6228 663.3781z" /></clipPath><clipPath id="121"><path id="" clip-rule="evenodd" transform="matrix(1 0 0 1 0 0)" d="M228.8374 581.4476L307.4524 600.9586L307.4524 600.9586L291.9159 663.5594L291.9159 663.5594L213.3008 644.0485L213.3008 644.0485L228.8374 581.4476z" /></clipPath><clipPath id="122"><path id="" clip-rule="evenodd" transform="matrix(1 0 0 1 0 0)" d="M0 -0.249939L595.5 -0.249939L595.5 -0.249939L595.5 842.0001L595.5 842.0001L0 842.0001z" /></clipPath><clipPath id="123"><path id="" clip-rule="evenodd" transform="matrix(1 0 0 1 0 0)" d="M260.16 723.8301L498.72 723.8301L498.72 723.8301L498.72 823.91L498.72 823.91L260.16 823.91z" /></clipPath><clipPath id="124"><path id="" clip-rule="evenodd" transform="matrix(1 0 0 1 0 0)" d="M260.2329 723.9619L498.4832 723.9619L498.4832 723.9619L498.4832 823.7853L498.4832 823.7853L260.2329 823.7853z" /></clipPath><clipPath id="125"><path id="" clip-rule="evenodd" transform="matrix(1 0 0 1 0 0)" d="M379.288 723.9619C 313.5357 723.9619 260.2329 746.3081 260.2329 773.8736C 260.2329 801.439 313.5357 823.7853 379.288 823.7853C 445.0403 823.7853 498.3431 801.439 498.3431 773.8736C 498.3431 746.3081 445.0403 723.9619 379.288 723.9619z" /></clipPath><clipPath id="126"><path id="" clip-rule="evenodd" transform="matrix(1 0 0 1 0 0)" d="M0 -0.249939L595.5 -0.249939L595.5 -0.249939L595.5 842.0001L595.5 842.0001L0 842.0001z" /></clipPath><clipPath id="127"><path id="" clip-rule="evenodd" transform="matrix(1 0 0 1 0 0)" d="M0 -0.249939L595.5 -0.249939L595.5 -0.249939L595.5 842.0001L595.5 842.0001L0 842.0001z" /></clipPath><clipPath id="128"><path id="" clip-rule="evenodd" transform="matrix(1 0 0 1 0 0)" d="M364.1643 727.8625L396.4143 727.8625L396.4143 727.8625L396.4143 760.1125L396.4143 760.1125L364.1643 760.1125z" /></clipPath><clipPath id="129"><path id="" clip-rule="evenodd" transform="matrix(1 0 0 1 0 0)" d="M364.1643 743.7567L364.1643 743.7593C 364.1643 747.9748 365.8389 752.0175 368.8196 754.9983C 371.8004 757.979 375.8432 759.6536 380.0586 759.6536C 384.274 759.6536 388.3168 757.979 391.2975 754.9983C 394.2783 752.0175 395.9528 747.9748 395.9528 743.7593L395.9528 743.7593L395.9528 743.7567C 395.9528 739.5413 394.2783 735.4985 391.2975 732.5178C 388.3168 729.537 384.274 727.8625 380.0586 727.8625C 375.8432 727.8625 371.8004 729.537 368.8196 732.5178C 365.8389 735.4985 364.1643 739.5413 364.1643 743.7567z" /></clipPath><clipPath id="130"><path id="" clip-rule="evenodd" transform="matrix(1 0 0 1 0 0)" d="M364.9143 728.6125L395.6643 728.6125L395.6643 728.6125L395.6643 759.3625L395.6643 759.3625L364.9143 759.3625z" /></clipPath><clipPath id="131"><path id="" clip-rule="evenodd" transform="matrix(1 0 0 1 0 0)" d="M380.0586 728.7625C 384.0353 728.7625 387.8491 730.3422 390.6611 733.1542C 393.4731 735.9662 395.0528 739.78 395.0528 743.7567L395.0528 743.7567L395.0528 743.7593C 395.0528 747.7361 393.4731 751.5499 390.6611 754.3619C 387.8491 757.1739 384.0353 758.7536 380.0586 758.7536C 376.0818 758.7536 372.268 757.1739 369.456 754.3619C 366.644 751.5499 365.0643 747.7361 365.0643 743.7593L365.0643 743.7593L365.0643 743.7567C 365.0643 739.78 366.644 735.9662 369.456 733.1542C 372.268 730.3422 376.0818 728.7625 380.0586 728.7625z" /></clipPath><clipPath id="132"><path id="" clip-rule="evenodd" transform="matrix(1 0 0 1 0 0)" d="M364.913 728.6125L395.663 728.6125L395.663 728.6125L395.663 759.3625L395.663 759.3625L364.913 759.3625z" /></clipPath><clipPath id="133"><path id="" clip-rule="evenodd" transform="matrix(1 0 0 1 0 0)" d="M364.1563 727.8558L395.6563 727.8558L395.6563 727.8558L395.6563 759.3558L395.6563 759.3558L364.1563 759.3558z" /></clipPath><clipPath id="134"><path id="" clip-rule="evenodd" transform="matrix(1 0 0 1 0 0)" d="M0 -0.249939L595.5 -0.249939L595.5 -0.249939L595.5 842.0001L595.5 842.0001L0 842.0001z" /></clipPath><clipPath id="135"><path id="" clip-rule="evenodd" transform="matrix(1 0 0 1 0 0)" d="M0 -0.249939L595.5 -0.249939L595.5 -0.249939L595.5 842.0001L595.5 842.0001L0 842.0001z" /></clipPath><clipPath id="136"><path id="" clip-rule="evenodd" transform="matrix(1 0 0 1 0 0)" d="M364.1643 727.8625L396.4143 727.8625L396.4143 727.8625L396.4143 760.1125L396.4143 760.1125L364.1643 760.1125z" /></clipPath><clipPath id="137"><path id="" clip-rule="evenodd" transform="matrix(1 0 0 1 0 0)" d="M364.1643 743.7567L364.1643 743.7593C 364.1643 747.9748 365.8389 752.0175 368.8196 754.9983C 371.8004 757.979 375.8432 759.6536 380.0586 759.6536C 384.274 759.6536 388.3168 757.979 391.2975 754.9983C 394.2783 752.0175 395.9528 747.9748 395.9528 743.7593L395.9528 743.7593L395.9528 743.7567C 395.9528 739.5413 394.2783 735.4985 391.2975 732.5178C 388.3168 729.537 384.274 727.8625 380.0586 727.8625C 375.8432 727.8625 371.8004 729.537 368.8196 732.5178C 365.8389 735.4985 364.1643 739.5413 364.1643 743.7567z" /></clipPath><clipPath id="138"><path id="" clip-rule="evenodd" transform="matrix(1 0 0 1 0 0)" d="M364.1643 727.8625L395.6643 727.8625L395.6643 727.8625L395.6643 759.3625L395.6643 759.3625L364.1643 759.3625z" /></clipPath><clipPath id="139"><path id="" clip-rule="evenodd" transform="matrix(1 0 0 1 0 0)" d="M364.1643 727.8625L396.4069 727.8625L396.4069 727.8625L396.4069 760.1024L396.4069 760.1024L364.1643 760.1024z" /></clipPath><clipPath id="140"><path id="" clip-rule="evenodd" transform="matrix(1 0 0 1 0 0)" d="M364.1643 743.7518L364.1643 743.7544C 364.1643 747.9685 365.8385 752.01 368.8185 754.9899C 371.7986 757.9697 375.8405 759.6437 380.0549 759.6437C 384.2694 759.6437 388.3112 757.9697 391.2913 754.9899C 394.2714 752.01 395.9456 747.9685 395.9456 743.7544L395.9456 743.7544L395.9456 743.7518C 395.9456 739.5377 394.2714 735.4962 391.2913 732.5164C 388.3112 729.5365 384.2694 727.8625 380.0549 727.8625C 375.8405 727.8625 371.7986 729.5365 368.8185 732.5164C 365.8385 735.4962 364.1643 739.5377 364.1643 743.7518z" /></clipPath><clipPath id="141"><path id="" clip-rule="evenodd" transform="matrix(1 0 0 1 0 0)" d="M0 -0.249939L595.5 -0.249939L595.5 -0.249939L595.5 842.0001L595.5 842.0001L0 842.0001z" /></clipPath><clipPath id="142"><path id="" clip-rule="evenodd" transform="matrix(1 0 0 1 0 0)" d="M43.68 623.9901L282.24 623.9901L282.24 623.9901L282.24 724.0701L282.24 724.0701L43.68 724.0701z" /></clipPath><clipPath id="143"><path id="" clip-rule="evenodd" transform="matrix(1 0 0 1 0 0)" d="M43.77788 624.1385L282.0282 624.1385L282.0282 624.1385L282.0282 723.9619L282.0282 723.9619L43.77788 723.9619z" /></clipPath><clipPath id="144"><path id="" clip-rule="evenodd" transform="matrix(1 0 0 1 0 0)" d="M162.833 624.1385C 97.08067 624.1385 43.77788 646.4847 43.77788 674.0502C 43.77788 701.6157 97.08067 723.9619 162.833 723.9619C 228.5853 723.9619 281.8881 701.6157 281.8881 674.0502C 281.8881 646.4847 228.5853 624.1385 162.833 624.1385z" /></clipPath><clipPath id="145"><path id="" clip-rule="evenodd" transform="matrix(1 0 0 1 0 0)" d="M0 -0.249939L595.5 -0.249939L595.5 -0.249939L595.5 842.0001L595.5 842.0001L0 842.0001z" /></clipPath><clipPath id="146"><path id="" clip-rule="evenodd" transform="matrix(1 0 0 1 0 0)" d="M0 -0.249939L595.5 -0.249939L595.5 -0.249939L595.5 842.0001L595.5 842.0001L0 842.0001z" /></clipPath><clipPath id="147"><path id="" clip-rule="evenodd" transform="matrix(1 0 0 1 0 0)" d="M147.8896 625.7708L180.1396 625.7708L180.1396 625.7708L180.1396 658.0208L180.1396 658.0208L147.8896 658.0208z" /></clipPath><clipPath id="148"><path id="" clip-rule="evenodd" transform="matrix(1 0 0 1 0 0)" d="M147.8896 641.6651L147.8896 641.6677C 147.8896 645.8831 149.5642 649.9258 152.5449 652.9067C 155.5257 655.8874 159.5685 657.562 163.7839 657.562C 167.9993 657.562 172.0421 655.8874 175.0228 652.9067C 178.0036 649.9258 179.6782 645.8831 179.6782 641.6677L179.6782 641.6677L179.6782 641.6651C 179.6782 637.4496 178.0036 633.4069 175.0228 630.4261C 172.0421 627.4454 167.9993 625.7708 163.7839 625.7708C 159.5685 625.7708 155.5257 627.4454 152.5449 630.4261C 149.5642 633.4069 147.8896 637.4496 147.8896 641.6651z" /></clipPath><clipPath id="149"><path id="" clip-rule="evenodd" transform="matrix(1 0 0 1 0 0)" d="M148.6396 626.5208L179.3896 626.5208L179.3896 626.5208L179.3896 657.2708L179.3896 657.2708L148.6396 657.2708z" /></clipPath><clipPath id="150"><path id="" clip-rule="evenodd" transform="matrix(1 0 0 1 0 0)" d="M163.7839 626.6708C 167.7606 626.6708 171.5745 628.2505 174.3864 631.0626C 177.1984 633.8745 178.7782 637.6884 178.7782 641.6651L178.7782 641.6651L178.7782 641.6677C 178.7782 645.6444 177.1984 649.4583 174.3864 652.2703C 171.5745 655.0822 167.7606 656.662 163.7839 656.662C 159.8072 656.662 155.9933 655.0822 153.1814 652.2703C 150.3694 649.4583 148.7896 645.6444 148.7896 641.6677L148.7896 641.6677L148.7896 641.6651C 148.7896 637.6884 150.3694 633.8745 153.1814 631.0626C 155.9933 628.2505 159.8072 626.6708 163.7839 626.6708z" /></clipPath><clipPath id="151"><path id="" clip-rule="evenodd" transform="matrix(1 0 0 1 0 0)" d="M148.6383 626.5208L179.3883 626.5208L179.3883 626.5208L179.3883 657.2708L179.3883 657.2708L148.6383 657.2708z" /></clipPath><clipPath id="152"><path id="" clip-rule="evenodd" transform="matrix(1 0 0 1 0 0)" d="M147.8816 625.7642L179.3816 625.7642L179.3816 625.7642L179.3816 657.2642L179.3816 657.2642L147.8816 657.2642z" /></clipPath><clipPath id="153"><path id="" clip-rule="evenodd" transform="matrix(1 0 0 1 0 0)" d="M0 -0.249939L595.5 -0.249939L595.5 -0.249939L595.5 842.0001L595.5 842.0001L0 842.0001z" /></clipPath><clipPath id="154"><path id="" clip-rule="evenodd" transform="matrix(1 0 0 1 0 0)" d="M0 -0.249939L595.5 -0.249939L595.5 -0.249939L595.5 842.0001L595.5 842.0001L0 842.0001z" /></clipPath><clipPath id="155"><path id="" clip-rule="evenodd" transform="matrix(1 0 0 1 0 0)" d="M147.8896 625.7708L180.1396 625.7708L180.1396 625.7708L180.1396 658.0208L180.1396 658.0208L147.8896 658.0208z" /></clipPath><clipPath id="156"><path id="" clip-rule="evenodd" transform="matrix(1 0 0 1 0 0)" d="M147.8896 641.6651L147.8896 641.6677C 147.8896 645.8831 149.5642 649.9258 152.5449 652.9067C 155.5257 655.8874 159.5685 657.562 163.7839 657.562C 167.9993 657.562 172.0421 655.8874 175.0228 652.9067C 178.0036 649.9258 179.6782 645.8831 179.6782 641.6677L179.6782 641.6677L179.6782 641.6651C 179.6782 637.4496 178.0036 633.4069 175.0228 630.4261C 172.0421 627.4454 167.9993 625.7708 163.7839 625.7708C 159.5685 625.7708 155.5257 627.4454 152.5449 630.4261C 149.5642 633.4069 147.8896 637.4496 147.8896 641.6651z" /></clipPath><clipPath id="157"><path id="" clip-rule="evenodd" transform="matrix(1 0 0 1 0 0)" d="M147.8896 625.7708L179.3896 625.7708L179.3896 625.7708L179.3896 657.2708L179.3896 657.2708L147.8896 657.2708z" /></clipPath><clipPath id="158"><path id="" clip-rule="evenodd" transform="matrix(1 0 0 1 0 0)" d="M147.8896 625.7708L180.1322 625.7708L180.1322 625.7708L180.1322 658.0108L180.1322 658.0108L147.8896 658.0108z" /></clipPath><clipPath id="159"><path id="" clip-rule="evenodd" transform="matrix(1 0 0 1 0 0)" d="M147.8896 641.6602L147.8896 641.6627C 147.8896 645.8769 149.5638 649.9184 152.5439 652.8982C 155.524 655.8781 159.5658 657.5521 163.7802 657.5521C 167.9947 657.5521 172.0365 655.8781 175.0166 652.8982C 177.9967 649.9184 179.6709 645.8769 179.6709 641.6627L179.6709 641.6627L179.6709 641.6602C 179.6709 637.446 177.9967 633.4045 175.0166 630.4247C 172.0365 627.4448 167.9947 625.7708 163.7802 625.7708C 159.5658 625.7708 155.524 627.4448 152.5439 630.4247C 149.5638 633.4045 147.8896 637.446 147.8896 641.6602z" /></clipPath><clipPath id="160"><path id="" clip-rule="evenodd" transform="matrix(1 0 0 1 0 0)" d="M0 -0.249939L595.5 -0.249939L595.5 -0.249939L595.5 842.0001L595.5 842.0001L0 842.0001z" /></clipPath><clipPath id="161"><path id="" clip-rule="evenodd" transform="matrix(1 0 0 1 0 0)" d="M0 -0.249939L595.5 -0.249939L595.5 -0.249939L595.5 842.0001L595.5 842.0001L0 842.0001z" /></clipPath><clipPath id="162"><path id="" clip-rule="evenodd" transform="matrix(1 0 0 1 0 0)" d="M254.0274 751.548L265.1728 671.3184L265.1728 671.3184L329.0593 680.1935L329.0593 680.1935L317.9139 760.4231L317.9139 760.4231L254.0274 751.548z" /></clipPath><clipPath id="163"><path id="" clip-rule="evenodd" transform="matrix(1 0 0 1 0 0)" d="M328.9097 680.504L317.7643 760.7336L317.7643 760.7336L253.8778 751.8585L253.8778 751.8585L265.0232 671.6289L265.0232 671.6289L328.9097 680.504z" /></clipPath><clipPath id="164"><path id="" clip-rule="evenodd" transform="matrix(1 0 0 1 0 0)" d="M0 -0.249939L595.5 -0.249939L595.5 -0.249939L595.5 842.0001L595.5 842.0001L0 842.0001z" /></clipPath></defs><g transform="matrix(1.333333 0 0 1.333333 0 0)"><g clip-path="url(#1)"><g clip-path="url(#2)"><path id="1" transform="matrix(1 0 0 -1 0 842)" d="M0 842.2499L595.4999 842.2499L595.4999 -6.103516E-05L0 -6.103516E-05z" stroke="none" fill="#FFFFFF" fill-rule="nonzero" /></g><g clip-path="url(#3)"><path id="2" transform="matrix(1 0 0 -1 0 842)" d="M0 842.2499L595.4999 842.2499L595.4999 -6.103516E-05L0 -6.103516E-05z" stroke="none" fill="#FFFFFF" fill-rule="nonzero" /></g><g clip-path="url(#4)"><g><g clip-path="url(#5)"><g clip-path="url(#6)"><g transform="matrix(0 0.5128205 -0.5127462 0 522.0178 30.75189)"><g transform="matrix(1 0 0 1 0 0)"><image x="0" y="0" xlink:href="img_01.png" width="1521" height="863" /></g></g></g></g></g></g><g clip-path="url(#7)"><g transform="matrix(0.2400849 0 0 0.2400849 -53.061 -61.30066)"><g transform="matrix(1 0 0 1 0 0)"><image x="0" y="0" xlink:href="img_02.png" width="706" height="706" /></g></g></g><g clip-path="url(#8)"><path id="5" transform="matrix(1 0 0 -1 0 842)" d="M564.7048 318.6903C 565.6113 318.6903 566.5363 318.6903 567.4428 318.6903C 569.9403 318.6718 572.3268 319.209 574.6763 320.0239C 575.6198 320.3573 576.5817 320.6722 577.5253 320.9871C 578.4132 321.2834 579.1532 321.8021 579.7637 322.5059C 580.1337 322.9319 580.3742 323.5432 580.1892 323.7098C 579.8932 323.9877 579.5417 323.9321 579.1718 323.8951C 577.2847 323.6357 575.3793 323.4505 573.4922 323.043C 570.7358 322.4318 567.9053 322.2281 565.0748 322.2836C 564.5383 322.3022 563.9833 322.3763 563.4468 322.5059C 562.2999 322.7837 561.1529 323.0986 560.0244 323.4505C 559.2104 323.7098 558.5999 324.247 558.2299 325.0249C 557.4899 326.5437 557.2124 328.1552 557.2494 329.8221C 557.2679 331.0446 557.7489 332.1374 558.5999 333.045C 559.1734 333.6562 559.8024 334.1563 560.5239 334.5638C 563.7614 336.4345 566.8878 338.5275 570.2733 340.1204C 571.2538 340.5835 572.1973 341.1762 573.1407 341.7133C 577.0997 343.9915 581.0587 346.2512 584.9991 348.5665C 586.3312 349.3444 587.6262 350.2149 588.9026 351.104C 589.8091 351.7338 590.6786 352.4005 591.4741 353.1414C 593.1576 354.6788 594.8041 356.2717 596.4506 357.846C 596.9871 358.3461 597.4681 358.8833 597.9676 359.4204C 598.467 359.9576 598.874 360.5688 599.0961 361.2912C 599.2256 361.7357 599.3921 362.1617 599.5956 362.5692C 600.243 363.7731 600.1876 365.0326 599.947 366.3106C 599.873 366.6626 599.7806 367.033 599.6511 367.3664C 599.0035 368.9037 599.2626 370.4225 599.7065 371.9413C 600.058 373.1268 600.7426 374.0714 601.834 374.7011C 602.093 374.8493 602.6851 374.6271 602.759 374.3492C 602.796 374.1825 602.907 373.9973 602.8885 373.8306C 602.7775 372.2562 603.203 370.756 603.5545 369.2371C 603.6655 368.7926 603.8135 368.3481 603.8875 367.9035C 604.202 365.9402 603.9615 364.088 602.981 362.3284C 602.537 361.532 602.1486 360.6985 601.686 359.9205C 600.798 358.4202 599.8176 356.994 598.5596 355.7716C 596.3951 353.6786 594.2861 351.5115 592.0106 349.5482C 590.2161 348.0108 588.2737 346.6217 586.1832 345.4548C 584.9807 344.788 583.7597 344.1768 582.7977 343.158C 582.5572 342.8987 582.2242 342.695 581.8912 342.5653C 578.7277 341.3243 575.9343 339.398 572.9188 337.8792C 571.6053 337.231 570.2918 336.5827 569.0153 335.8788C 567.6463 335.138 566.3143 334.36 564.9824 333.5636C 563.9648 332.9524 562.9844 332.2856 561.9669 331.6743C 561.0974 331.1557 560.2649 330.6001 559.5989 329.8406C 559.1549 329.3405 558.9144 328.7664 558.9514 328.0811C 558.9699 327.5995 559.1179 327.1549 559.5249 326.8956C 561.0049 325.951 562.5774 325.2472 564.3904 325.2657C 567.5908 325.3213 570.7728 325.525 573.8993 326.3029C 575.7493 326.7475 577.6547 327.0994 579.5787 327.0253C 580.8182 326.9697 581.6877 326.3955 582.0577 325.2472C 582.2797 324.5619 582.4647 323.8395 582.5202 323.1171C 582.5942 322.1725 582.2427 321.3575 581.5582 320.6537C 580.3187 319.3571 578.7462 318.6718 577.0812 318.1532C 576.0267 317.8383 574.9908 317.5049 573.9363 317.1901C 572.4563 316.7455 570.9208 316.4862 569.3668 316.3751C 568.5528 316.3195 567.7388 316.1714 566.9248 316.1899C 565.5189 316.2084 564.2053 315.912 562.9288 315.3934C 562.3184 315.1526 561.7079 314.9859 561.0604 314.9859C 559.7654 315.0045 558.5259 314.597 557.3049 314.2821C 555.4919 313.8376 553.9194 312.93 552.5875 311.6149C 551.9399 310.9666 551.2184 310.3925 550.5895 309.7442C 550.016 309.1515 549.498 308.5217 549.017 307.8549C 546.871 304.9099 546.094 303.0948 545.502 299.6311C 545.2615 298.2605 545.3725 296.8899 545.576 295.5378C 545.724 294.6302 546.205 293.8152 546.8525 293.1484C 547.87 292.0926 548.8505 290.9813 550.016 290.1108C 551.903 288.7031 554.049 288.0178 556.4539 288.4438C 559.4694 288.9809 562.2444 289.9996 564.6863 291.9259C 565.6853 292.7224 566.7953 293.3707 567.8313 294.1301C 568.4973 294.6116 569.1448 295.1117 569.7553 295.6674C 570.6988 296.5379 571.6608 297.39 572.4748 298.3716C 574.2878 300.5387 576.2672 302.5761 577.9877 304.8358C 578.7647 305.8546 579.5602 306.8547 580.4297 307.7994C 582.4092 309.985 584.1112 312.3373 585.4062 314.9859C 586.2571 316.727 587.4042 318.2458 588.6251 319.7276C 588.9766 320.1536 589.3281 320.5611 589.6426 321.0056C 590.5121 322.2095 591.5111 323.2468 592.7691 324.0432C 593.3056 324.3766 593.7681 324.8397 594.2676 325.2286C 595.3036 326.0251 596.4506 326.5067 597.7455 326.7475C 599.3181 327.0438 600.65 326.6178 601.7785 325.5435C 602.648 324.7285 603.3695 323.7839 603.9245 322.7097C 604.8125 321.0056 605.497 319.209 606.089 317.3753C 606.5515 315.9491 606.3665 314.4673 606.163 313.0226C 606.1075 312.6707 605.904 312.3373 605.7375 312.0224C 604.646 310.1146 603.499 308.2439 602.056 306.5769C 601.4085 305.8175 600.6315 305.1507 599.8361 304.558C 598.504 303.5578 597.3201 302.4279 596.3581 301.0944C 595.7476 300.2794 594.9706 299.6497 594.2861 298.9273C 591.7701 296.2601 589.1986 293.6855 586.4977 291.2036C 584.8141 289.6662 583.2972 287.9437 581.7247 286.2952C 581.0587 285.0728 580.0597 284.1281 579.1162 283.1279C 578.1172 282.0722 577.1367 280.9794 576.1008 279.9607C 575.4348 279.2939 574.5837 278.9604 573.6403 278.9049C 572.5303 278.8493 571.4573 279.0531 570.4398 279.4976C 570.0698 279.6643 569.9033 280.3682 570.1993 280.683C 570.7543 281.2757 571.3093 281.887 571.9383 282.4056C 573.7698 283.9059 575.6567 285.3691 577.5067 286.8509C 578.8572 287.9437 580.1152 289.1291 581.3547 290.3516C 583.5007 292.4816 585.4802 294.7598 587.8297 296.649C 589.1061 297.6678 590.2531 298.8902 591.3631 300.0942C 593.0281 301.9093 594.8411 303.5948 596.3951 305.5211C 596.8391 306.0953 597.4311 306.5399 597.9861 307.0214C 598.5411 307.503 599.1146 307.9475 599.7065 308.3921C 601.1865 309.5219 602.3521 310.8925 603.1845 312.5781C 603.462 313.1523 603.758 313.7264 604.091 314.2636C 604.8125 315.449 604.868 316.7085 604.4055 317.9495C 603.8875 319.3201 603.3325 320.6722 602.6295 321.9503C 601.39 324.1729 599.5956 324.4322 597.4866 323.3764C 595.5441 322.4133 593.6756 321.2279 592.2696 319.4498C 591.5296 318.5237 590.6602 317.7087 589.8831 316.8011C 588.4402 315.1526 587.2562 313.3004 586.1092 311.4482C 584.9622 309.5775 583.6302 307.8364 582.4277 306.0027C 582.1317 305.5582 581.6877 305.2063 581.3362 304.7803C 580.8737 304.2246 580.3927 303.6504 580.0042 303.0577C 579.4492 302.2242 578.9497 301.3537 578.0988 300.761C 577.8027 300.5573 577.5253 300.2794 577.3588 299.9645C 576.9147 299.0569 576.4338 298.2234 575.5828 297.5752C 574.8613 297.038 574.3802 296.2416 573.6958 295.6118C 572.6228 294.6487 571.5683 293.667 570.8653 292.2964C 570.3288 291.2592 569.4408 290.4071 568.4603 289.6848C 567.7943 289.2032 567.1284 288.7216 566.4808 288.203C 566.0554 287.8511 565.5928 287.5918 565.0563 287.4066C 564.4644 287.1843 563.8539 286.9435 563.3174 286.6101C 561.3564 285.4247 559.1734 285.1839 556.9904 285.1469C 555.825 285.1284 554.6039 284.8875 553.457 285.295C 552.1805 285.7581 550.9225 286.3138 549.6645 286.8509C 547.463 287.7955 546.0015 289.5181 544.8545 291.537C 544.3735 292.4075 543.985 293.3521 543.6151 294.2782C 542.3015 297.5752 542.2275 301.0573 542.1721 304.5395C 542.1536 306.1879 542.6345 307.7809 543.504 309.2441C 543.9295 309.9479 544.2995 310.6888 544.5955 311.4482C 545.243 313.1152 546.3715 314.4303 547.6295 315.6342C 548.832 316.8011 550.312 317.542 551.9584 317.8754C 552.8464 318.0606 553.7529 318.2088 554.6779 318.2643C 557.5084 318.4125 560.3389 318.5237 563.1694 318.6348C 563.6133 318.7089 564.1498 318.6903 564.7048 318.6903z" stroke="none" fill="#000000" fill-rule="nonzero" /></g><g clip-path="url(#9)"><g transform="matrix(0.2406122 0 0 0.2405774 307.1396 -32.68994)"><g transform="matrix(1 0 0 1 0 0)"><image x="0" y="0" xlink:href="img_03.png" width="1225" height="1247" /></g></g></g><g clip-path="url(#10)"><g transform="matrix(0.06508876 0 0 0.0651796 486.3389 12.52423)"><g transform="matrix(1 0 0 1 0 0)"><image x="0" y="0" xlink:href="img_04.png" width="1521" height="863" /></g></g></g><g clip-path="url(#11)"><path id="8" transform="matrix(1 0 0 -1 0 842)" d="M16.4815 -46.72276C 16.31823 -46.91425 16.2366 -47.07838 16.10054 -47.18781C 14.68555 -48.28205 13.84199 -48.25469 12.26373 -47.24252C 11.20248 -46.55862 10.35892 -45.68322 9.760273 -44.56164C 8.100368 -41.38833 6.875854 -38.10561 6.794224 -34.46726C 6.76701 -32.96268 6.603745 -31.45811 6.494896 -29.95352C 6.440472 -29.32433 6.358837 -28.7225 6.413261 -28.09332C 6.658161 -25.00209 6.603741 -21.88349 7.229603 -18.84698C 7.74662 -16.33022 8.263641 -13.81348 9.134407 -11.40614C 9.188828 -11.242 9.270466 -11.07787 9.297676 -10.91373C 10.33171 -7.056534 11.90998 -3.390831 13.59709 0.2201691C 14.0869 1.259697 14.65834 2.271873 15.33862 3.201973C 17.78765 6.566757 20.37274 9.794777 23.50206 12.55774C 25.08033 13.9529 26.57696 15.45747 28.29128 16.71586C 30.49541 18.32986 32.72675 19.88915 34.95808 21.50316C 36.67241 22.73418 38.38673 23.9652 40.10105 25.22358C 40.67249 25.63392 41.24393 26.07162 41.84258 26.42725C 46.14199 29.08078 49.84275 32.47292 53.40746 36.05656C 55.72044 38.38182 57.76129 40.92593 59.80215 43.4974C 60.34638 44.1813 60.80898 44.94727 61.27157 45.68588C 63.4757 49.29688 65.70704 52.90787 67.31252 56.87449C 68.40098 59.6101 69.08126 62.42776 69.6255 65.30015C 69.92482 66.77737 69.81598 68.30931 69.54386 69.78654C 69.29896 71.18169 68.99963 72.57685 68.59146 73.9173C 67.61185 77.36415 65.46214 79.79884 62.19677 81.24871C 61.95187 81.35813 61.70696 81.4402 61.43484 81.46756C 59.6661 81.60434 57.92457 81.60434 56.23746 80.92044C 55.91092 80.78366 55.58438 80.61952 55.33949 80.40067C 54.19659 79.41586 52.97208 78.56782 52.04689 77.36415C 51.72035 76.95381 51.33939 76.57083 50.95844 76.2152C 50.19652 75.44923 49.67949 74.54649 49.32574 73.53431C 49.08084 72.87776 48.80873 72.19386 48.69988 71.50996C 48.40056 69.86861 47.93797 68.2546 47.557 66.61324C 47.28489 65.49164 47.14883 64.37004 47.14883 63.19373C 47.14883 61.79858 46.87672 60.37606 46.71344 58.98091C 46.49576 57.1207 46.00594 55.34255 45.21681 53.64648C 44.6998 52.52488 44.26441 51.37593 43.85624 50.19962C 43.55692 49.32423 43.01268 48.66768 42.25076 48.17528C 41.81538 47.87436 41.27115 47.68287 40.9174 47.32724C 40.07384 46.42449 39.06703 46.42449 38.00578 46.53392C 35.77443 46.78012 33.73357 47.6008 31.82877 48.69504C 31.39338 48.94124 30.98521 49.35158 30.65868 49.76192C 29.92397 50.66467 29.43417 51.7042 29.08041 52.79844C 28.88993 53.48234 28.69946 54.16624 28.5634 54.85014C 28.18244 56.4915 27.77427 58.10551 27.17561 59.69216C 26.4137 61.68915 26.05994 63.76821 26.08716 65.92934C 26.11437 68.0631 26.05994 70.16952 26.03273 72.30328C 26.03273 72.68627 25.86946 72.95983 25.67899 72.93248C 25.51572 72.90512 25.32524 72.90512 25.21638 72.82305C 24.01908 71.75616 23.06668 70.52515 22.57687 68.9385C 22.11428 67.40656 21.54284 65.92934 21.08025 64.3974C 20.64486 62.94753 20.39996 61.47031 20.56322 59.93837C 20.67207 59.06297 20.61765 58.16022 20.61765 57.28483C 20.59044 55.42462 20.53601 53.56441 20.5088 51.7042C 20.5088 50.36376 20.5088 49.05067 20.20948 47.73758C 20.07342 47.13575 20.10063 46.50656 20.0462 45.87737C 19.82851 44.04452 19.71967 42.18431 19.0938 40.40617C 18.76727 39.50342 18.604 38.5186 18.44073 37.56114C 18.33189 37.01402 18.16862 36.54897 17.81487 36.13863C 17.35227 35.61887 16.88968 35.07175 16.42708 34.52463C 15.61074 33.56717 14.65834 33.18419 13.3794 33.40303C 10.52219 33.92279 10.54941 33.89544 9.134407 36.41219C 7.447296 39.42135 6.739796 42.67672 6.821434 46.09622C 6.875854 48.22999 7.011913 50.33641 6.549316 52.44282C 6.440472 52.96258 6.440472 53.5097 6.440472 54.02947C 6.440472 56.21795 5.678551 58.18758 4.780571 60.12986C 4.644516 60.45813 4.481243 60.7864 4.263557 61.05997C 2.875771 62.81075 3.147884 62.86546 0.8349113 63.13902C -0.8249931 63.33051 -2.48489 63.52201 -4.171997 63.41258C -4.906708 63.38523 -5.532574 63.7135 -6.022381 64.28798C -6.457764 64.78038 -6.321709 65.62842 -5.750263 65.84727C -4.770649 66.23026 -3.736618 66.55853 -2.675369 66.42175C -1.722965 66.28497 -0.743351 66.2029 0.1818352 65.90198C 3.066254 65.05394 5.406437 63.43994 7.039124 60.84112C 7.311241 60.40342 7.556141 59.91101 7.6922 59.39125C 8.263641 57.44897 8.807869 55.47934 9.324886 53.5097C 9.569786 52.5796 9.869114 51.64949 9.733059 50.63732C 9.705845 50.39112 9.733059 50.0902 9.814693 49.84399C 10.63104 47.49137 10.68546 45.00198 11.03921 42.56729C 11.28411 41.008 11.44738 39.39399 12.37257 38.02619C 12.50863 37.80734 12.69911 37.61585 12.9168 37.45171C 13.13449 37.28757 13.37939 37.17815 13.65151 37.31493C 13.8692 37.45171 14.1141 37.56113 14.30458 37.75263C 15.96448 39.31192 16.99852 41.2542 17.46111 43.47004C 17.92371 45.5491 18.33188 47.62815 18.33188 49.76192C 18.33188 50.99294 18.44072 52.25132 18.54957 53.48234C 18.68563 54.74072 18.68563 55.97174 18.35909 57.17541C 18.08698 58.13287 18.11419 59.11769 18.16861 60.07515C 18.27746 61.93536 18.35909 63.79557 18.63121 65.60106C 19.03938 68.33666 19.93736 70.93549 21.73331 73.12397C 22.30476 73.83522 22.98504 74.35499 23.77417 74.79269C 24.0735 74.95682 24.42725 75.03889 24.781 75.0936C 26.16879 75.25774 27.33887 74.46442 27.80148 73.0419C 27.96474 72.54949 28.04638 72.00237 28.07359 71.4826C 28.20965 69.10263 28.3457 66.6953 28.37292 64.31533C 28.40013 62.50983 28.50897 60.7864 29.46137 59.19976C 30.00561 57.25748 30.95801 55.42462 31.25733 53.37292C 31.36618 52.60695 31.63829 51.81363 31.91041 51.07502C 32.26415 50.11756 32.94444 49.46101 33.89684 49.05067C 35.2302 48.4762 36.61799 48.36677 38.03299 48.42148C 38.3051 48.42148 38.57722 48.50355 38.79491 48.61298C 40.07384 49.24216 41.24393 50.00813 41.78817 51.458C 42.19633 52.52488 42.76778 53.53706 43.14874 54.6313C 43.44807 55.53405 43.66576 56.51886 43.7746 57.47633C 44.0195 59.30918 44.15556 61.16939 44.31883 63.0296C 44.37325 63.74085 44.37325 64.45211 44.42767 65.16337C 44.53651 67.29713 44.61816 69.40355 44.80863 71.53732C 44.9719 73.31546 45.59776 74.98418 46.25084 76.62554C 46.49574 77.28209 46.82228 77.91127 47.14881 78.54047C 48.12843 80.53745 49.62505 81.95997 51.72034 82.67122C 52.64552 82.9995 53.57071 83.2457 54.4687 83.57397C 56.72724 84.39465 58.9858 84.03902 61.24435 83.54662C 61.48925 83.49191 61.73415 83.38248 61.97906 83.2457C 63.96549 82.26088 65.84309 81.08457 67.23087 79.30643C 67.99279 78.34897 68.7275 77.3368 69.46221 76.35198C 70.36019 75.12096 70.90442 73.72581 71.23096 72.24858C 71.53029 70.85342 71.85682 69.48562 72.12894 68.11782C 72.23778 67.59805 72.29221 67.05093 72.23778 66.53117C 71.96567 63.98706 71.50307 61.44295 70.98605 58.95355C 70.74115 57.74989 70.19692 56.62829 70.00644 55.39727C 69.97923 55.23313 69.89759 55.069 69.81595 54.90486C 68.91798 53.37292 68.37375 51.7042 67.39413 50.19963C 66.00635 48.06585 64.59135 45.90473 63.23078 43.7436C 62.0879 41.9381 60.75454 40.29674 59.31233 38.73745C 57.3531 36.57632 55.31224 34.49726 53.2986 32.39085C 52.07408 31.10512 50.71351 29.98352 49.32572 28.88928C 47.09438 27.16585 44.86304 25.44242 42.49564 23.91048C 42.27795 23.7737 42.06026 23.60957 41.89699 23.41808C 39.99218 21.28432 37.62478 19.75237 35.33902 18.11102C 33.46143 16.77057 31.7471 15.26599 30.08721 13.7067C 29.1076 12.80395 28.12798 11.92855 27.17558 10.99845C 26.71298 10.5881 26.25039 10.17776 25.86943 9.685364C 24.48164 7.852509 22.82175 6.265862 21.18906 4.624496C 19.88291 3.311409 18.63119 1.943611 17.65157 0.3569565C 17.32504 -0.1628036 16.97129 -0.6825714 16.61753 -1.17498C 15.22975 -3.254044 14.1685 -5.44252 13.62428 -7.904564C 13.08004 -10.31189 12.56303 -12.74658 12.23649 -15.18127C 11.85553 -17.97159 11.71947 -20.81661 11.63784 -23.66164C 11.58341 -25.60391 11.47456 -27.5462 11.66505 -29.48846C 11.74669 -30.17236 11.61063 -30.91098 11.58341 -31.59489C 11.5562 -32.66177 11.58341 -33.72865 11.58341 -34.79554C 11.58341 -37.36701 12.48139 -39.63757 13.9236 -41.71661C 14.6311 -42.72878 15.31139 -43.7683 15.96446 -44.80785C 16.15494 -45.10876 16.291 -45.43703 16.37263 -45.76531C 16.42708 -46.09356 16.45429 -46.4492 16.4815 -46.72276z" stroke="none" fill="#000000" fill-rule="nonzero" /></g><g clip-path="url(#12)"><g transform="matrix(0.2403846 0 0 0.2403256 43.77788 148.4432)"><g transform="matrix(1 0 0 1 0 0)"><image x="0" y="0" xlink:href="img_05.png" width="2028" height="2119" /></g></g></g><g clip-path="url(#13)"><g clip-path="url(#14)"><g clip-path="url(#15)"><g clip-path="url(#16)"><g clip-path="url(#17)"><g clip-path="url(#18)"><g clip-path="url(#19)"><g clip-path="url(#20)"><path id="10" transform="matrix(1 0 0 -1 0 842)" d="M418.0531 736.4204C 409.4954 736.4204 402.5359 729.4609 402.5359 720.9032C 402.5359 712.3455 409.4954 705.386 418.0531 705.386C 426.6109 705.386 433.5704 712.3455 433.5704 720.9032C 433.5704 729.4609 426.6109 736.4204 418.0531 736.4204zM418.0531 705.1532C 409.3712 705.1532 402.3031 712.2213 402.3031 720.9032C 402.3031 729.5851 409.3712 736.6532 418.0531 736.6532C 426.735 736.6532 433.8031 729.5851 433.8031 720.9032C 433.8031 712.2213 426.735 705.1532 418.0531 705.1532z" stroke="none" fill="#000000" fill-rule="nonzero" /></g></g></g></g></g></g></g></g><g clip-path="url(#21)"><g clip-path="url(#22)"><g clip-path="url(#23)"><g clip-path="url(#24)"><g clip-path="url(#25)"><g clip-path="url(#26)"><g clip-path="url(#27)"><path id="11" transform="matrix(1 0 0 -1 0 842)" d="M402.3098 720.7559C 402.3098 716.5414 403.984 712.4996 406.9641 709.5195C 409.9442 706.5394 413.986 704.8652 418.2005 704.8652C 422.4149 704.8652 426.4568 706.5394 429.4368 709.5195C 432.4169 712.4996 434.0911 716.5414 434.0911 720.7559C 434.0911 724.9703 432.4169 729.0121 429.4368 731.9922C 426.4568 734.9723 422.4149 736.6465 418.2005 736.6465C 413.986 736.6465 409.9442 734.9723 406.9641 731.9922C 403.984 729.0121 402.3098 724.9703 402.3098 720.7559z" stroke="#000000" stroke-width="1.5" fill="none" /></g></g></g></g></g></g></g><g clip-path="url(#28)"><g clip-path="url(#29)"><g clip-path="url(#30)"><g clip-path="url(#31)"><g clip-path="url(#32)"><g clip-path="url(#33)"><g clip-path="url(#34)"><g clip-path="url(#35)"><path id="12" transform="matrix(1 0 0 -1 0 842)" d="M88.28086 641.4384C 79.7231 641.4384 72.76362 634.4789 72.76362 625.9212C 72.76362 617.3635 79.7231 610.4039 88.28086 610.4039C 96.83862 610.4039 103.7981 617.3635 103.7981 625.9212C 103.7981 634.4789 96.83862 641.4384 88.28086 641.4384zM88.28086 610.1712C 79.59896 610.1712 72.53086 617.2393 72.53086 625.9212C 72.53086 634.6031 79.59896 641.6712 88.28086 641.6712C 96.96275 641.6712 104.0309 634.6031 104.0309 625.9212C 104.0309 617.2393 96.96275 610.1712 88.28086 610.1712z" stroke="none" fill="#000000" fill-rule="nonzero" /></g></g></g></g></g></g></g></g><g clip-path="url(#36)"><g clip-path="url(#37)"><g clip-path="url(#38)"><g clip-path="url(#39)"><g clip-path="url(#40)"><g clip-path="url(#41)"><g clip-path="url(#42)"><path id="13" transform="matrix(1 0 0 -1 0 842)" d="M72.53755 625.7739C 72.53755 621.5594 74.21174 617.5176 77.19181 614.5375C 80.17188 611.5574 84.21372 609.8832 88.42818 609.8832C 92.64263 609.8832 96.68447 611.5574 99.66454 614.5375C 102.6446 617.5176 104.3188 621.5594 104.3188 625.7739C 104.3188 629.9883 102.6446 634.0302 99.66454 637.0103C 96.68447 639.9903 92.64263 641.6645 88.42818 641.6645C 84.21372 641.6645 80.17188 639.9903 77.19181 637.0103C 74.21174 634.0302 72.53755 629.9883 72.53755 625.7739z" stroke="#000000" stroke-width="1.5" fill="none" /></g></g></g></g></g></g></g><g clip-path="url(#43)"><g clip-path="url(#44)"><g clip-path="url(#45)"><g clip-path="url(#46)"><g clip-path="url(#47)"><g clip-path="url(#48)"><g clip-path="url(#49)"><g clip-path="url(#50)"><path id="14" transform="matrix(1 0 0 -1 0 842)" d="M173.5223 512.9354C 164.9645 512.9354 158.005 505.976 158.005 497.4182C 158.005 488.8604 164.9645 481.901 173.5223 481.901C 182.08 481.901 189.0395 488.8604 189.0395 497.4182C 189.0395 505.976 182.08 512.9354 173.5223 512.9354zM173.5223 481.6682C 164.8404 481.6682 157.7723 488.7363 157.7723 497.4182C 157.7723 506.1001 164.8404 513.1682 173.5223 513.1682C 182.2042 513.1682 189.2723 506.1001 189.2723 497.4182C 189.2723 488.7363 182.2042 481.6682 173.5223 481.6682z" stroke="none" fill="#000000" fill-rule="nonzero" /></g></g></g></g></g></g></g></g><g clip-path="url(#51)"><g clip-path="url(#52)"><g clip-path="url(#53)"><g clip-path="url(#54)"><g clip-path="url(#55)"><g clip-path="url(#56)"><g clip-path="url(#57)"><path id="15" transform="matrix(1 0 0 -1 0 842)" d="M157.779 497.2709C 157.779 493.0564 159.4531 489.0146 162.4332 486.0345C 165.4133 483.0544 169.4551 481.3802 173.6696 481.3802C 177.884 481.3802 181.9259 483.0544 184.906 486.0345C 187.886 489.0146 189.5602 493.0564 189.5602 497.2709C 189.5602 501.4853 187.886 505.5272 184.906 508.5072C 181.9259 511.4873 177.884 513.1615 173.6696 513.1615C 169.4551 513.1615 165.4133 511.4873 162.4332 508.5072C 159.4531 505.5272 157.779 501.4853 157.779 497.2709z" stroke="#000000" stroke-width="1.5" fill="none" /></g></g></g></g></g></g></g><g clip-path="url(#58)"><g clip-path="url(#59)"><g clip-path="url(#60)"><g clip-path="url(#61)"><g clip-path="url(#62)"><g clip-path="url(#63)"><g clip-path="url(#64)"><g clip-path="url(#65)"><path id="16" transform="matrix(1 0 0 -1 0 842)" d="M418.0531 451.3467C 409.4954 451.3467 402.5359 444.3872 402.5359 435.8295C 402.5359 427.2717 409.4954 420.3122 418.0531 420.3122C 426.6109 420.3122 433.5704 427.2717 433.5704 435.8295C 433.5704 444.3872 426.6109 451.3467 418.0531 451.3467zM418.0531 420.0795C 409.3712 420.0795 402.3031 427.1476 402.3031 435.8295C 402.3031 444.5114 409.3712 451.5795 418.0531 451.5795C 426.735 451.5795 433.8031 444.5114 433.8031 435.8295C 433.8031 427.1476 426.735 420.0795 418.0531 420.0795z" stroke="none" fill="#000000" fill-rule="nonzero" /></g></g></g></g></g></g></g></g><g clip-path="url(#66)"><g clip-path="url(#67)"><g clip-path="url(#68)"><g clip-path="url(#69)"><g clip-path="url(#70)"><g clip-path="url(#71)"><g clip-path="url(#72)"><path id="17" transform="matrix(1 0 0 -1 0 842)" d="M402.3098 435.6821C 402.3098 431.4677 403.984 427.4258 406.9641 424.4458C 409.9442 421.4657 413.986 419.7915 418.2005 419.7915C 422.4149 419.7915 426.4568 421.4657 429.4368 424.4458C 432.4169 427.4258 434.0911 431.4677 434.0911 435.6821C 434.0911 439.8966 432.4169 443.9384 429.4368 446.9185C 426.4568 449.8986 422.4149 451.5728 418.2005 451.5728C 413.986 451.5728 409.9442 449.8986 406.9641 446.9185C 403.984 443.9384 402.3098 439.8966 402.3098 435.6821z" stroke="#000000" stroke-width="1.5" fill="none" /></g></g></g></g></g></g></g><g clip-path="url(#73)"><g clip-path="url(#74)"><g clip-path="url(#75)"><g clip-path="url(#76)"><g clip-path="url(#77)"><g clip-path="url(#78)"><g clip-path="url(#79)"><g clip-path="url(#80)"><path id="18" transform="matrix(1 0 0 -1 0 842)" d="M209.2279 382.5216C 200.6702 382.5216 193.7107 375.5621 193.7107 367.0043C 193.7107 358.4466 200.6702 351.4871 209.2279 351.4871C 217.7857 351.4871 224.7452 358.4466 224.7452 367.0043C 224.7452 375.5621 217.7857 382.5216 209.2279 382.5216zM209.2279 351.2543C 200.546 351.2543 193.4779 358.3224 193.4779 367.0043C 193.4779 375.6862 200.546 382.7543 209.2279 382.7543C 217.9098 382.7543 224.9779 375.6862 224.9779 367.0043C 224.9779 358.3224 217.9098 351.2543 209.2279 351.2543z" stroke="none" fill="#000000" fill-rule="nonzero" /></g></g></g></g></g></g></g></g><g clip-path="url(#81)"><g clip-path="url(#82)"><g clip-path="url(#83)"><g clip-path="url(#84)"><g clip-path="url(#85)"><g clip-path="url(#86)"><g clip-path="url(#87)"><path id="19" transform="matrix(1 0 0 -1 0 842)" d="M193.4846 366.857C 193.4846 362.6426 195.1588 358.6007 198.1389 355.6207C 201.119 352.6406 205.1608 350.9664 209.3753 350.9664C 213.5897 350.9664 217.6316 352.6406 220.6116 355.6207C 223.5917 358.6007 225.2659 362.6426 225.2659 366.857C 225.2659 371.0715 223.5917 375.1133 220.6116 378.0934C 217.6316 381.0735 213.5897 382.7477 209.3753 382.7477C 205.1608 382.7477 201.119 381.0735 198.1389 378.0934C 195.1588 375.1133 193.4846 371.0715 193.4846 366.857z" stroke="#000000" stroke-width="1.5" fill="none" /></g></g></g></g></g></g></g><g clip-path="url(#88)"><g clip-path="url(#89)"><g clip-path="url(#90)"><g clip-path="url(#91)"><g clip-path="url(#92)"><g clip-path="url(#93)"><g clip-path="url(#94)"><g clip-path="url(#95)"><path id="20" transform="matrix(1 0 0 -1 0 842)" d="M335.2439 251.1492C 326.6861 251.1492 319.7266 244.1897 319.7266 235.632C 319.7266 227.0742 326.6861 220.1147 335.2439 220.1147C 343.8016 220.1147 350.7611 227.0742 350.7611 235.632C 350.7611 244.1897 343.8016 251.1492 335.2439 251.1492zM335.2439 219.882C 326.562 219.882 319.4939 226.9501 319.4939 235.632C 319.4939 244.3139 326.562 251.382 335.2439 251.382C 343.9258 251.382 350.9939 244.3139 350.9939 235.632C 350.9939 226.9501 343.9258 219.882 335.2439 219.882z" stroke="none" fill="#000000" fill-rule="nonzero" /></g></g></g></g></g></g></g></g><g clip-path="url(#96)"><g clip-path="url(#97)"><g clip-path="url(#98)"><g clip-path="url(#99)"><g clip-path="url(#100)"><g clip-path="url(#101)"><g clip-path="url(#102)"><path id="21" transform="matrix(1 0 0 -1 0 842)" d="M319.5005 235.4846C 319.5005 231.2702 321.1747 227.2283 324.1548 224.2483C 327.1349 221.2682 331.1767 219.594 335.3912 219.594C 339.6056 219.594 343.6475 221.2682 346.6275 224.2483C 349.6076 227.2283 351.2818 231.2702 351.2818 235.4846C 351.2818 239.6991 349.6076 243.741 346.6275 246.721C 343.6475 249.7011 339.6056 251.3753 335.3912 251.3753C 331.1767 251.3753 327.1349 249.7011 324.1548 246.721C 321.1747 243.741 319.5005 239.6991 319.5005 235.4846z" stroke="#000000" stroke-width="1.5" fill="none" /></g></g></g></g></g></g></g><g clip-path="url(#103)"><g clip-path="url(#104)"><g clip-path="url(#105)"><g clip-path="url(#106)"><g clip-path="url(#107)"><g clip-path="url(#108)"><g clip-path="url(#109)"><g clip-path="url(#110)"><path id="22" transform="matrix(1 0 0 -1 0 842)" d="M475.458 557.2233C 466.9002 557.2233 459.9407 550.2639 459.9407 541.7061C 459.9407 533.1484 466.9002 526.1888 475.458 526.1888C 484.0157 526.1888 490.9752 533.1484 490.9752 541.7061C 490.9752 550.2639 484.0157 557.2233 475.458 557.2233zM475.458 525.9561C 466.7761 525.9561 459.708 533.0242 459.708 541.7061C 459.708 550.388 466.7761 557.4561 475.458 557.4561C 484.1399 557.4561 491.208 550.388 491.208 541.7061C 491.208 533.0242 484.1399 525.9561 475.458 525.9561z" stroke="none" fill="#000000" fill-rule="nonzero" /></g></g></g></g></g></g></g></g><g clip-path="url(#111)"><g clip-path="url(#112)"><g clip-path="url(#113)"><g clip-path="url(#114)"><g clip-path="url(#115)"><g clip-path="url(#116)"><g clip-path="url(#117)"><path id="23" transform="matrix(1 0 0 -1 0 842)" d="M459.716 541.5601L459.716 541.5575C 459.716 537.3434 461.3902 533.3019 464.3702 530.322C 467.3503 527.3422 471.3922 525.6682 475.6066 525.6682C 479.821 525.6682 483.8629 527.3422 486.843 530.322C 489.823 533.3019 491.4972 537.3434 491.4972 541.5575L491.4972 541.5575L491.4972 541.5601C 491.4972 545.7742 489.823 549.8157 486.843 552.7955C 483.8629 555.7753 479.821 557.4494 475.6066 557.4494C 471.3922 557.4494 467.3503 555.7753 464.3702 552.7955C 461.3902 549.8157 459.716 545.7742 459.716 541.5601z" stroke="#000000" stroke-width="1.5" fill="none" /></g></g></g></g></g></g></g><g clip-path="url(#118)"><g clip-path="url(#119)"><g clip-path="url(#120)"><g clip-path="url(#121)"><path id="24" transform="matrix(1 0 0 -1 0 842)" d="M216.2552 199.0105C 216.0686 199.0568 215.9052 199.1964 215.8582 199.4061C 215.7874 199.9188 215.8099 200.4083 215.7391 200.921C 215.7152 201.224 215.9481 201.3643 216.1578 201.4113C 216.4608 201.4351 216.6011 201.2022 216.648 200.9925C 216.6256 200.503 216.7195 200.0835 216.7903 199.5708C 216.8142 199.2678 216.6746 199.1044 216.3716 199.0806C 216.4417 198.9642 216.3484 198.9873 216.2552 199.0105z" stroke="none" fill="#040606" fill-rule="nonzero" /><path id="25" transform="matrix(1 0 0 -1 0 842)" d="M217.6129 209.2694C 217.3331 209.3388 217.216 209.665 217.2854 209.9448C 217.6334 210.9478 218.0515 211.8343 218.5628 212.6976C 218.7255 212.9543 218.9352 213.0013 219.2151 212.9319C 219.4718 212.7691 219.5188 212.5594 219.4493 212.2796C 219.0312 211.3931 218.6132 210.5065 218.2884 209.5969C 218.1256 209.3402 217.8928 209.1999 217.6129 209.2694zM216.2709 203.4628C 216.0843 203.5091 215.8508 203.7651 215.897 203.9517C 215.942 204.9308 216.1967 205.9569 216.358 207.0061C 216.4275 207.2859 216.6604 207.4262 216.9402 207.3568C 217.22 207.2873 217.3603 207.0544 217.2908 206.7746C 217.0593 205.8418 216.898 204.7925 216.7597 203.8366C 216.8067 203.6269 216.644 203.3702 216.2709 203.4628C 216.3641 203.4396 216.2709 203.4628 216.2709 203.4628z" stroke="none" fill="#040606" fill-rule="nonzero" /><path id="26" transform="matrix(1 0 0 -1 0 842)" d="M299.1813 233.4885C 299.0881 233.5117 298.9948 233.5348 298.9247 233.6512C 298.7844 233.8841 298.7606 234.1871 298.9934 234.3274C 299.7383 234.9347 300.5064 235.6353 301.1812 236.3591C 301.3207 236.5225 301.6237 236.5464 301.8804 236.3836C 302.0438 236.244 302.0676 235.941 301.9049 235.6844C 301.2301 234.9606 300.4621 234.2599 299.6941 233.5593C 299.4612 233.4191 299.3679 233.4422 299.1813 233.4885zM294.3389 229.937C 294.2456 229.9602 294.059 230.0065 293.9889 230.1229C 293.8486 230.3558 293.9181 230.6356 294.1509 230.7759C 294.9659 231.2668 295.8041 231.851 296.6423 232.4352C 296.8752 232.5755 297.155 232.506 297.3184 232.3664C 297.4587 232.1336 297.3892 231.8537 297.2496 231.6903C 296.4115 231.1061 295.5733 230.5219 294.7583 230.031C 294.5254 229.8907 294.4321 229.9139 294.3389 229.937zM288.9122 227.2238C 288.7256 227.2701 288.6555 227.3865 288.5853 227.5029C 288.4451 227.7358 288.6078 227.9925 288.8407 228.1328C 289.7258 228.5072 290.6342 228.975 291.5193 229.3495C 291.7522 229.4897 292.032 229.4203 292.1491 229.0941C 292.2894 228.8613 292.2199 228.5814 291.8938 228.4643C 290.9855 227.9966 290.0771 227.5288 289.0987 227.1775C 289.192 227.1543 289.0054 227.2006 288.9122 227.2238zM283.2043 225.3725C 283.0177 225.4188 282.8543 225.5583 282.9006 225.7449C 282.8536 225.9546 283.0164 226.2113 283.2492 226.3516C 284.2045 226.6096 285.1598 226.8677 286.1151 227.1257C 286.3248 227.1727 286.6046 227.1033 286.7217 226.7771C 286.7687 226.5674 286.6992 226.2876 286.3731 226.1704C 285.3947 225.8191 284.4394 225.5611 283.3908 225.3262C 283.3908 225.3262 283.2975 225.3493 283.2043 225.3725zM277.2152 224.3832C 277.0286 224.4295 276.8652 224.5691 276.8182 224.7788C 276.7944 225.0818 277.0273 225.222 277.237 225.269C 278.2393 225.3174 279.2646 225.459 280.1968 225.6237C 280.4998 225.6476 280.6632 225.508 280.7803 225.1818C 280.8974 224.8557 280.6646 224.7154 280.3384 224.5983C 279.4063 224.4336 278.3809 224.2919 277.2853 224.2668C 277.3085 224.36 277.3085 224.36 277.2152 224.3832zM271.2247 224.1865C 271.0382 224.2328 270.8979 224.4656 270.851 224.6754C 270.8271 224.9783 271.06 225.1186 271.363 225.1424C 272.4354 225.0743 273.4376 225.1227 274.3466 225.1942C 274.6496 225.218 274.7899 224.9851 274.8369 224.7754C 274.8607 224.4724 274.6278 224.3322 274.4181 224.2852C 273.4158 224.2368 272.4367 224.2818 271.3412 224.2566C 271.318 224.1633 271.2247 224.1865 271.2247 224.1865zM265.1635 224.5025C 264.9769 224.5488 264.7434 224.8048 264.7897 224.9913C 264.8591 225.2712 264.9987 225.4346 265.3017 225.4584C 266.2808 225.4135 267.3532 225.3454 268.3323 225.3004C 268.6353 225.3242 268.7756 225.0914 268.7994 224.7884C 268.8232 224.4854 268.5904 224.3451 268.2874 224.3213C 267.3083 224.3663 266.3292 224.4112 265.1635 224.5025C 265.2568 224.4793 265.2568 224.4793 265.1635 224.5025zM259.1717 225.0983C 258.9851 225.1446 258.7516 225.4006 258.7979 225.5872C 258.8673 225.867 259.0069 226.0304 259.3099 226.0542L259.3099 226.0542L262.3174 225.803C 262.5972 225.7335 262.7607 225.5939 262.7845 225.2909C 262.8083 224.9879 262.5754 224.8477 262.2724 224.8239L262.2724 224.8239L259.1717 225.0983C 259.265 225.0751 259.265 225.0751 259.1717 225.0983zM253.1567 225.6008C 252.9702 225.6471 252.8299 225.88 252.7829 226.0897C 252.8524 226.3696 252.992 226.533 253.295 226.5568C 254.2741 226.5118 255.3465 226.4438 256.3024 226.3055C 256.5823 226.2361 256.7457 226.0965 256.7695 225.7935C 256.7001 225.5136 256.5605 225.3502 256.2575 225.3264C 255.2784 225.3714 254.2993 225.4163 253.1567 225.6008C 253.25 225.5777 253.25 225.5777 253.1567 225.6008zM247.1425 225.7071C 246.9559 225.7534 246.8156 225.9863 246.7687 226.196C 246.7448 226.499 246.9777 226.6392 247.2807 226.6631C 248.283 226.7114 249.3553 226.6433 250.3345 226.5984C 250.6375 226.6222 250.7777 226.3893 250.8015 226.0863C 250.8254 225.7833 250.5925 225.6431 250.2895 225.6192C 249.3104 225.6642 248.3313 225.7091 247.329 225.6608C 247.2357 225.6839 247.2357 225.6839 247.1425 225.7071zM241.1289 225.4171C 240.9423 225.4634 240.7789 225.603 240.7319 225.8127C 240.7081 226.1157 240.8477 226.2791 241.1507 226.3029C 242.1761 226.4445 243.1783 226.4929 244.1806 226.5412C 244.4836 226.565 244.6239 226.3322 244.6708 226.1225C 244.6947 225.8195 244.4618 225.6792 244.2521 225.6322C 243.2498 225.5839 242.2476 225.5356 241.3154 225.3708C 241.2222 225.3939 241.2222 225.3939 241.1289 225.4171zM235.2099 224.3114C 235.0233 224.3577 234.9532 224.4741 234.9062 224.6838C 234.8593 224.8935 235.022 225.1502 235.2549 225.2905C 236.2101 225.5485 237.2587 225.7834 238.1908 225.9482C 238.4938 225.972 238.6573 225.8325 238.7744 225.5063C 238.7982 225.2033 238.6586 225.0399 238.3325 224.9228C 237.307 224.7812 236.3518 224.5231 235.3965 224.2651C 235.3965 224.2651 235.3032 224.2882 235.2099 224.3114zM229.549 222.2504C 229.4557 222.2735 229.2923 222.4131 229.2222 222.5296C 229.0819 222.7624 229.2446 223.0191 229.4775 223.1594C 230.3858 223.6271 231.3643 223.9785 232.3427 224.3298C 232.5756 224.47 232.8322 224.3073 232.9725 224.0745C 233.1128 223.8416 232.95 223.5849 232.7172 223.4446C 231.7387 223.0933 230.8536 222.7188 229.9684 222.3443C 229.7587 222.2974 229.6423 222.2272 229.549 222.2504zM224.4961 219.0482C 224.4028 219.0714 224.3095 219.0945 224.2394 219.211C 224.0992 219.4438 224.0753 219.7468 224.3082 219.8871C 225.0531 220.4944 225.9144 221.1719 226.8227 221.6396C 227.0556 221.7799 227.3354 221.7105 227.4757 221.4776C 227.616 221.2447 227.5465 220.9649 227.3136 220.8246C 226.4986 220.3337 225.6604 219.7495 224.8924 219.0489C 224.7991 219.0721 224.6827 219.0019 224.4961 219.0482zM220.4244 214.6123C 220.3311 214.6354 220.3311 214.6354 220.2378 214.6586C 219.9811 214.8213 219.9573 215.1243 220.0969 215.2877C 220.7015 216.1279 221.3061 216.9681 221.9809 217.6919C 222.1205 217.8553 222.4235 217.8792 222.6802 217.7164C 222.8436 217.5768 222.8674 217.2738 222.7047 217.0172C 222.0299 216.2934 221.4484 215.5464 220.8438 214.7062C 220.8206 214.6129 220.6109 214.566 220.4244 214.6123z" stroke="none" fill="#040606" fill-rule="nonzero" /><path id="27" transform="matrix(1 0 0 -1 0 842)" d="M303.4866 237.6684C 303.3934 237.6916 303.3934 237.6916 303.3232 237.808C 303.1598 237.9476 303.136 238.2506 303.2987 238.5073C 303.5779 238.8341 303.8802 239.2542 304.1594 239.5811C 304.3221 239.8377 304.6251 239.8616 304.8818 239.6988C 305.1385 239.5361 305.1623 239.2331 304.9996 238.9764C 304.6973 238.5563 304.4181 238.2295 304.1158 237.8094C 303.7896 237.6923 303.5799 237.6453 303.4866 237.6684z" stroke="none" fill="#040606" fill-rule="nonzero" /><path id="28" transform="matrix(1 0 0 -1 0 842)" d="M306.5384 238.7926C 306.4616 238.4833 306.3286 238.2005 306.1394 237.9442C 305.9501 237.6879 305.719 237.4775 305.4461 237.3131C 305.1732 237.1487 304.8791 237.0428 304.5641 236.9953C 304.249 236.9479 303.9368 236.9626 303.6276 237.0393C 303.3183 237.1161 303.0355 237.2491 302.7792 237.4383C 302.5229 237.6276 302.3125 237.8586 302.1481 238.1316C 301.9837 238.4045 301.8777 238.6985 301.8303 239.0136C 301.7829 239.3287 301.7975 239.6409 301.8743 239.9501C 301.951 240.2594 302.084 240.5421 302.2733 240.7985C 302.4626 241.0548 302.6937 241.2652 302.9666 241.4296C 303.2395 241.594 303.5335 241.6999 303.8486 241.7473C 304.1637 241.7948 304.4759 241.7801 304.7851 241.7034C 305.0944 241.6266 305.3771 241.4936 305.6335 241.3044C 305.8898 241.1151 306.1002 240.884 306.2646 240.6111C 306.429 240.3381 306.5349 240.0441 306.5823 239.729C 306.6298 239.414 306.6151 239.1018 306.5384 238.7926z" stroke="none" fill="#040606" fill-rule="nonzero" /><path id="29" transform="matrix(1 0 0 -1 0 842)" d="M218.5858 199.2242C 218.5091 198.915 218.3761 198.6322 218.1868 198.3759C 217.9976 198.1195 217.7665 197.9092 217.4935 197.7448C 217.2206 197.5804 216.9266 197.4745 216.6115 197.427C 216.2964 197.3796 215.9843 197.3942 215.675 197.471C 215.3658 197.5477 215.083 197.6807 214.8267 197.87C 214.5703 198.0592 214.36 198.2903 214.1956 198.5633C 214.0312 198.8362 213.9252 199.1302 213.8778 199.4453C 213.8304 199.7604 213.845 200.0726 213.9218 200.3818C 213.9985 200.691 214.1315 200.9738 214.3208 201.2302C 214.51 201.4865 214.7411 201.6969 215.0141 201.8613C 215.287 202.0257 215.581 202.1316 215.8961 202.179C 216.2112 202.2265 216.5233 202.2118 216.8326 202.1351C 217.1418 202.0583 217.4246 201.9253 217.681 201.7361C 217.9373 201.5468 218.1477 201.3157 218.3121 201.0428C 218.4765 200.7698 218.5824 200.4758 218.6298 200.1607C 218.6772 199.8457 218.6626 199.5335 218.5858 199.2242z" stroke="none" fill="#040606" fill-rule="nonzero" /></g></g></g></g><g clip-path="url(#122)"><g><g clip-path="url(#123)"><g clip-path="url(#124)"><g clip-path="url(#125)"><path id="30" transform="matrix(1 0 0 -1 0 842)" d="M260.2329 118.0381L498.4832 118.0381L498.4832 18.21473L260.2329 18.21473z" stroke="none" fill="#023F9B" fill-rule="nonzero" fill-opacity="0.5882353" /></g></g></g></g></g><g clip-path="url(#126)"><g clip-path="url(#127)"><g clip-path="url(#128)"><g clip-path="url(#129)"><g clip-path="url(#130)"><g clip-path="url(#131)"><g clip-path="url(#132)"><g clip-path="url(#133)"><path id="37" transform="matrix(1 0 0 -1 0 842)" d="M379.9063 113.9115C 371.3485 113.9115 364.389 106.952 364.389 98.39421C 364.389 89.83646 371.3485 82.87697 379.9063 82.87697C 388.4641 82.87697 395.4235 89.83646 395.4235 98.39421C 395.4235 106.952 388.4641 113.9115 379.9063 113.9115zM379.9063 82.64421C 371.2244 82.64421 364.1563 89.71231 364.1563 98.39421C 364.1563 107.0761 371.2244 114.1442 379.9063 114.1442C 388.5882 114.1442 395.6563 107.0761 395.6563 98.39421C 395.6563 89.71231 388.5882 82.64421 379.9063 82.64421z" stroke="none" fill="#000000" fill-rule="nonzero" /></g></g></g></g></g></g></g></g><g clip-path="url(#134)"><g clip-path="url(#135)"><g clip-path="url(#136)"><g clip-path="url(#137)"><g clip-path="url(#138)"><g clip-path="url(#139)"><g clip-path="url(#140)"><path id="38" transform="matrix(1 0 0 -1 0 842)" d="M364.1643 98.24821L364.1643 98.2456C 364.1643 94.03149 365.8385 89.98997 368.8186 87.01015C 371.7986 84.03033 375.8405 82.35628 380.0549 82.35628C 384.2694 82.35628 388.3112 84.03033 391.2913 87.01015C 394.2714 89.98997 395.9456 94.03149 395.9456 98.2456L395.9456 98.2456L395.9456 98.24821C 395.9456 102.4623 394.2714 106.5038 391.2913 109.4837C 388.3112 112.4635 384.2694 114.1375 380.0549 114.1375C 375.8405 114.1375 371.7986 112.4635 368.8186 109.4837C 365.8385 106.5038 364.1643 102.4623 364.1643 98.24821z" stroke="#000000" stroke-width="1.5" fill="none" /></g></g></g></g></g></g></g><g clip-path="url(#141)"><g><g clip-path="url(#142)"><g clip-path="url(#143)"><g clip-path="url(#144)"><path id="39" transform="matrix(1 0 0 -1 0 842)" d="M43.77787 217.8615L282.0282 217.8615L282.0282 118.0381L43.77787 118.0381z" stroke="none" fill="#24944A" fill-rule="nonzero" fill-opacity="0.5882353" /></g></g></g></g></g><g clip-path="url(#145)"><g clip-path="url(#146)"><g clip-path="url(#147)"><g clip-path="url(#148)"><g clip-path="url(#149)"><g clip-path="url(#150)"><g clip-path="url(#151)"><g clip-path="url(#152)"><path id="40" transform="matrix(1 0 0 -1 0 842)" d="M163.6316 216.0031C 155.0739 216.0031 148.1144 209.0436 148.1144 200.4858C 148.1144 191.9281 155.0739 184.9686 163.6316 184.9686C 172.1894 184.9686 179.1489 191.9281 179.1489 200.4858C 179.1489 209.0436 172.1894 216.0031 163.6316 216.0031zM163.6316 184.7358C 154.9497 184.7358 147.8816 191.8039 147.8816 200.4858C 147.8816 209.1677 154.9497 216.2358 163.6316 216.2358C 172.3135 216.2358 179.3816 209.1677 179.3816 200.4858C 179.3816 191.8039 172.3135 184.7358 163.6316 184.7358z" stroke="none" fill="#000000" fill-rule="nonzero" /></g></g></g></g></g></g></g></g><g clip-path="url(#153)"><g clip-path="url(#154)"><g clip-path="url(#155)"><g clip-path="url(#156)"><g clip-path="url(#157)"><g clip-path="url(#158)"><g clip-path="url(#159)"><path id="41" transform="matrix(1 0 0 -1 0 842)" d="M147.8896 200.3398L147.8896 200.3372C 147.8896 196.1231 149.5638 192.0816 152.5439 189.1018C 155.5239 186.1219 159.5658 184.4479 163.7802 184.4479C 167.9947 184.4479 172.0365 186.1219 175.0166 189.1018C 177.9967 192.0816 179.6709 196.1231 179.6709 200.3372L179.6709 200.3372L179.6709 200.3398C 179.6709 204.5539 177.9967 208.5955 175.0166 211.5753C 172.0365 214.5551 167.9947 216.2292 163.7802 216.2292C 159.5658 216.2292 155.5239 214.5551 152.5439 211.5753C 149.5638 208.5955 147.8896 204.5539 147.8896 200.3398z" stroke="#000000" stroke-width="1.5" fill="none" /></g></g></g></g></g></g></g><g clip-path="url(#160)"><g clip-path="url(#161)"><g clip-path="url(#162)"><g clip-path="url(#163)"><path id="42" transform="matrix(1 0 0 -1 0 842)" d="M266.3865 167.5443C 266.413 167.7346 266.5346 167.9118 266.7383 167.9806C 267.2407 168.1048 267.7299 168.1339 268.2323 168.2582C 268.5312 168.3137 268.6951 168.0969 268.7639 167.8932C 268.8194 167.5944 268.6025 167.4305 268.3989 167.3617C 267.9097 167.3327 267.5024 167.1952 267 167.0709C 266.7012 167.0154 266.524 167.137 266.4685 167.4358C 266.3601 167.3539 266.3733 167.4491 266.3865 167.5443z" stroke="none" fill="#040606" fill-rule="nonzero" /><path id="43" transform="matrix(1 0 0 -1 0 842)" d="M276.7313 167.2716C 276.771 167.5572 277.083 167.7079 277.3686 167.6682C 278.4026 167.4276 279.3281 167.1049 280.2404 166.6871C 280.5128 166.5522 280.5815 166.3486 280.5418 166.063C 280.407 165.7906 280.2033 165.7219 279.9178 165.7616C 278.9922 166.0842 278.0667 166.4068 277.128 166.6343C 276.8556 166.7691 276.6917 166.986 276.7313 167.2716zM270.8159 167.9963C 270.8423 168.1867 271.0724 168.4459 271.2628 168.4194C 272.2412 168.4776 273.2884 168.3321 274.3488 168.2818C 274.6344 168.2421 274.7983 168.0253 274.7586 167.7397C 274.7189 167.4541 274.5021 167.2902 274.2165 167.3298C 273.2645 167.4621 272.2042 167.5124 271.239 167.5494C 271.0353 167.4807 270.763 167.6155 270.8159 167.9963C 270.8026 167.9011 270.8159 167.9963 270.8159 167.9963z" stroke="none" fill="#040606" fill-rule="nonzero" /><path id="44" transform="matrix(1 0 0 -1 0 842)" d="M309.3843 88.69835C 309.3976 88.79355 309.4108 88.88873 309.5192 88.97071C 309.7361 89.13465 310.0349 89.19019 310.1988 88.97334C 310.881 88.29636 311.6585 87.60616 312.4491 87.01115C 312.6263 86.88951 312.6818 86.59068 312.547 86.31833C 312.4253 86.14116 312.1265 86.08562 311.8541 86.2205C 311.0635 86.81551 310.286 87.50571 309.5086 88.19592C 309.3447 88.41275 309.3579 88.50795 309.3843 88.69835zM305.3439 93.14101C 305.3571 93.23621 305.3835 93.42661 305.492 93.50858C 305.7088 93.67252 305.9944 93.63285 306.1584 93.41601C 306.7322 92.65705 307.4012 91.88487 308.0702 91.1127C 308.2341 90.89586 308.1945 90.61027 308.0728 90.43311C 307.856 90.26916 307.5704 90.30884 307.3932 90.43047C 306.7242 91.20264 306.0552 91.97484 305.4814 92.73378C 305.3174 92.95061 305.3307 93.04581 305.3439 93.14101zM302.0756 98.25268C 302.1021 98.44307 302.2104 98.52505 302.3189 98.60702C 302.5357 98.77096 302.8081 98.63609 302.972 98.41925C 303.4374 97.57832 303.998 96.72417 304.4634 95.88325C 304.6273 95.66641 304.5876 95.38081 304.2756 95.23009C 304.0588 95.06615 303.7732 95.10583 303.6225 95.41787C 303.0619 96.27202 302.5013 97.12617 302.0491 98.06229C 302.0359 97.96709 302.0624 98.15749 302.0756 98.25268zM299.635 103.7345C 299.6614 103.9249 299.7831 104.1021 299.9735 104.0757C 300.1771 104.1444 300.4495 104.0095 300.6134 103.7927C 300.9704 102.8698 301.3273 101.9469 301.6843 101.024C 301.7531 100.8204 301.7134 100.5348 301.4013 100.3841C 301.1977 100.3153 300.9121 100.355 300.7614 100.667C 300.3092 101.6032 299.9523 102.5261 299.6086 103.5442C 299.6086 103.5442 299.6218 103.6394 299.635 103.7345zM298.0221 109.5866C 298.0486 109.777 298.1702 109.9541 298.3738 110.0229C 298.6726 110.0784 298.8366 109.8616 298.9053 109.658C 299.0587 108.6663 299.3072 107.6614 299.569 106.7518C 299.6245 106.453 299.5028 106.2758 299.1908 106.1251C 298.8788 105.9743 298.7148 106.1912 298.5641 106.5032C 298.3023 107.4129 298.0538 108.4178 297.9137 109.5046C 298.0089 109.4914 298.0089 109.4914 298.0221 109.5866zM297.1972 115.5232C 297.2237 115.7136 297.4405 115.8776 297.6442 115.9463C 297.943 116.0018 298.1069 115.785 298.1624 115.4862C 298.2073 114.4126 298.3607 113.4209 298.5273 112.5245C 298.5828 112.2257 298.3659 112.0617 298.1623 111.993C 297.8635 111.9374 297.6996 112.1543 297.6308 112.3579C 297.4775 113.3495 297.4193 114.328 297.2792 115.4148C 297.184 115.428 297.1972 115.5232 297.1972 115.5232zM296.8748 121.5841C 296.9012 121.7745 297.1313 122.0337 297.3217 122.0072C 297.6073 121.9676 297.7845 121.8459 297.84 121.5471C 297.8981 120.5687 297.9431 119.4951 298.0012 118.5166C 298.0567 118.2178 297.8399 118.0539 297.5411 117.9984C 297.2422 117.9428 297.0783 118.1597 297.0228 118.4585C 296.9647 119.4369 296.9065 120.4153 296.8748 121.5841C 296.8616 121.489 296.8616 121.489 296.8748 121.5841zM296.838 127.6054C 296.8644 127.7958 297.0945 128.0549 297.2849 128.0285C 297.5705 127.9888 297.7476 127.8671 297.8032 127.5683L297.8032 127.5683L297.8692 124.5511C 297.8295 124.2655 297.7079 124.0883 297.409 124.0328C 297.1102 123.9773 296.9463 124.1941 296.8907 124.493L296.8907 124.493L296.838 127.6054C 296.8247 127.5102 296.8247 127.5102 296.838 127.6054zM296.7059 133.6398C 296.7324 133.8302 296.9492 133.9942 297.1528 134.0629C 297.4384 134.0233 297.6156 133.9016 297.6711 133.6028C 297.7292 132.6244 297.7742 131.5508 297.7371 130.5856C 297.6974 130.3 297.5758 130.1228 297.277 130.0673C 296.9914 130.107 296.8142 130.2286 296.7587 130.5274C 296.7006 131.5058 296.6424 132.4843 296.7059 133.6398C 296.6927 133.5446 296.6927 133.5446 296.7059 133.6398zM296.1799 139.632C 296.2063 139.8224 296.4232 139.9864 296.6268 140.0551C 296.9256 140.1106 297.0895 139.8938 297.1451 139.595C 297.2984 138.6033 297.3433 137.5297 297.4015 136.5513C 297.457 136.2525 297.2402 136.0885 296.9413 136.033C 296.6425 135.9775 296.4786 136.1943 296.4231 136.4931C 296.3649 137.4716 296.3068 138.45 296.1534 139.4416C 296.1666 139.5368 296.1666 139.5368 296.1799 139.632zM295.2598 145.5819C 295.2863 145.7723 295.4079 145.9494 295.6115 146.0182C 295.9103 146.0737 296.0875 145.9521 296.143 145.6533C 296.3916 144.6484 296.5449 143.6567 296.6982 142.6651C 296.7538 142.3663 296.5369 142.2023 296.3333 142.1336C 296.0345 142.0781 295.8705 142.2949 295.8018 142.4985C 295.6485 143.4902 295.4951 144.4818 295.2333 145.3915C 295.2466 145.4867 295.2466 145.4867 295.2598 145.5819zM293.5385 151.352C 293.5649 151.5424 293.6733 151.6243 293.877 151.6931C 294.0806 151.7618 294.353 151.627 294.5169 151.4101C 294.8739 150.4872 295.2176 149.4691 295.4794 148.5594C 295.5349 148.2606 295.4132 148.0835 295.1012 147.9327C 294.8024 147.8772 294.6252 147.9989 294.4745 148.3109C 294.226 149.3158 293.869 150.2387 293.512 151.1616C 293.512 151.1616 293.5253 151.2568 293.5385 151.352zM290.8943 156.7651C 290.9075 156.8603 291.0291 157.0374 291.1376 157.1194C 291.3544 157.2834 291.6268 157.1485 291.7907 156.9316C 292.3513 156.0775 292.8035 155.1414 293.2556 154.2052C 293.4196 153.9884 293.2847 153.716 293.0679 153.5521C 292.851 153.3881 292.5786 153.523 292.4147 153.7399C 291.9625 154.676 291.4972 155.5169 291.0318 156.3578C 290.963 156.5614 290.881 156.6699 290.8943 156.7651zM287.1791 161.4536C 287.1923 161.5488 287.2055 161.644 287.3139 161.726C 287.5308 161.89 287.8296 161.9455 287.9935 161.7286C 288.6758 161.0517 289.44 160.2663 290.0005 159.4121C 290.1645 159.1953 290.1248 158.9097 289.908 158.7457C 289.6911 158.5818 289.4055 158.6215 289.2416 158.8383C 288.6678 159.5973 287.9988 160.3694 287.2214 161.0596C 287.2346 161.1548 287.1526 161.2633 287.1791 161.4536zM282.34 165.0369C 282.3532 165.1321 282.3532 165.1321 282.3664 165.2273C 282.5013 165.4997 282.8001 165.5552 282.9773 165.4336C 283.8763 164.9205 284.7754 164.4075 285.5661 163.8125C 285.7432 163.6908 285.7988 163.392 285.6639 163.1196C 285.5422 162.9425 285.2434 162.887 284.9711 163.0218C 284.1804 163.6168 283.3765 164.1167 282.4775 164.6297C 282.3823 164.6429 282.3135 164.8465 282.34 165.0369z" stroke="none" fill="#040606" fill-rule="nonzero" /><path id="45" transform="matrix(1 0 0 -1 0 842)" d="M313.9934 84.85593C 314.0066 84.95113 314.0066 84.95113 314.115 85.0331C 314.2367 85.21027 314.5355 85.26579 314.8079 85.13092C 315.1622 84.88763 315.6117 84.6311 315.9661 84.38782C 316.2384 84.25294 316.2939 83.95412 316.1591 83.68176C 316.0242 83.40939 315.7254 83.35387 315.453 83.48874C 315.0035 83.74525 314.6492 83.98856 314.1996 84.24507C 314.0489 84.55712 313.9802 84.76073 313.9934 84.85593z" stroke="none" fill="#040606" fill-rule="nonzero" /><path id="46" transform="matrix(1 0 0 -1 0 842)" d="M315.4318 81.93916C 315.1162 81.983 314.821 82.08556 314.5462 82.24683C 314.2715 82.40811 314.038 82.61584 313.8458 82.87C 313.6537 83.12416 313.5174 83.40543 313.4372 83.71378C 313.3569 84.02213 313.3387 84.3341 313.3825 84.64969C 313.4264 84.96529 313.5289 85.2605 313.6902 85.53529C 313.8515 85.81009 314.0592 86.04356 314.3134 86.23573C 314.5675 86.42789 314.8488 86.56411 315.1571 86.64437C 315.4655 86.72463 315.7775 86.74284 316.0931 86.69901C 316.4087 86.65516 316.7039 86.5526 316.9787 86.39133C 317.2534 86.23006 317.4869 86.02234 317.6791 85.76817C 317.8712 85.514 318.0075 85.23274 318.0877 84.92439C 318.168 84.61604 318.1862 84.30405 318.1424 83.98846C 318.0985 83.67287 317.996 83.37767 317.8347 83.10287C 317.6734 82.82808 317.4657 82.5946 317.2115 82.40243C 316.9574 82.21028 316.6761 82.07407 316.3678 81.9938C 316.0594 81.91352 315.7474 81.89532 315.4318 81.93916z" stroke="none" fill="#040606" fill-rule="nonzero" /><path id="47" transform="matrix(1 0 0 -1 0 842)" d="M266.8439 165.2489C 266.5284 165.2928 266.2332 165.3953 265.9584 165.5566C 265.6836 165.7179 265.4501 165.9256 265.2579 166.1798C 265.0658 166.4339 264.9296 166.7152 264.8493 167.0235C 264.769 167.3319 264.7508 167.6439 264.7946 167.9595C 264.8385 168.2751 264.941 168.5703 265.1023 168.8451C 265.2636 169.1199 265.4713 169.3533 265.7255 169.5455C 265.9797 169.7377 266.2609 169.8739 266.5693 169.9541C 266.8776 170.0344 267.1896 170.0526 267.5052 170.0088C 267.8208 169.9649 268.116 169.8624 268.3908 169.7011C 268.6656 169.5398 268.899 169.3321 269.0912 169.0779C 269.2834 168.8238 269.4196 168.5425 269.4999 168.2342C 269.5801 167.9258 269.5983 167.6138 269.5545 167.2982C 269.5107 166.9826 269.4081 166.6874 269.2468 166.4126C 269.0855 166.1378 268.8778 165.9044 268.6237 165.7122C 268.3695 165.5201 268.0883 165.3838 267.7799 165.3036C 267.4715 165.2233 267.1595 165.2051 266.8439 165.2489z" stroke="none" fill="#040606" fill-rule="nonzero" /></g></g></g></g><g clip-path="url(#164)"></g></g></g></svg>