<svg xmlns="http://www.w3.org/2000/svg" xmlns:xlink="http://www.w3.org/1999/xlink" id="body_1" preserveAspectRatio="xMinYMin meet" viewBox="0 0 793 1123"><defs><clipPath id="1"><path id="" clip-rule="evenodd" transform="matrix(1 0 0 1 0 0)" d="M0 842L0 -0.25L0 -0.25L595.5 -0.25L595.5 -0.25L595.5 842L595.5 842L0 842z" /></clipPath><clipPath id="2"><path id="" clip-rule="evenodd" transform="matrix(1 0 0 1 0 0)" d="M0 -0.249939L595.5 -0.249939L595.5 -0.249939L595.5 842.0001L595.5 842.0001L0 842.0001z" /></clipPath><clipPath id="3"><path id="" clip-rule="evenodd" transform="matrix(1 0 0 1 0 0)" d="M0 -0.249939L595.5 -0.249939L595.5 -0.249939L595.5 842.0001L595.5 842.0001L0 842.0001z" /></clipPath><clipPath id="4"><path id="" clip-rule="evenodd" transform="matrix(1 0 0 1 0 0)" d="M0 -0.249939L595.5 -0.249939L595.5 -0.249939L595.5 842.0001L595.5 842.0001L0 842.0001z" /></clipPath><clipPath id="5"><path id="" clip-rule="evenodd" transform="matrix(1 0 0 1 0 0)" d="M78.95999 24.71008L522.48 24.71008L522.48 24.71008L522.48 804.9501L522.48 804.9501L78.95999 804.9501z" /></clipPath><clipPath id="6"><path id="" clip-rule="evenodd" transform="matrix(1 0 0 1 0 0)" d="M79.88647 24.73322L522.3865 24.73322L522.3865 24.73322L522.3865 804.7332L522.3865 804.7332L79.88647 804.7332z" /></clipPath><clipPath id="7"><path id="" clip-rule="evenodd" transform="matrix(1 0 0 1 0 0)" d="M489.4179 6.83905L589.9179 6.83905L589.9179 6.83905L589.9179 63.83905L589.9179 63.83905L489.4179 63.83905z" /></clipPath><clipPath id="8"><path id="" clip-rule="evenodd" transform="matrix(1 0 0 1 0 0)" d="M16.35346 43.82721L251.8535 43.82721L251.8535 43.82721L251.8535 334.8272L251.8535 334.8272L16.35346 334.8272z" /></clipPath><clipPath id="9"><path id="" clip-rule="evenodd" transform="matrix(1 0 0 1 0 0)" d="M26.32848 299.2905L244.5785 299.2905L244.5785 299.2905L244.5785 302.2905L244.5785 302.2905L26.32848 302.2905z" /></clipPath><clipPath id="10"><path id="" clip-rule="evenodd" transform="matrix(1 0 0 1 0 0)" d="M0 -0.249939L595.5 -0.249939L595.5 -0.249939L595.5 842.0001L595.5 842.0001L0 842.0001z" /></clipPath><clipPath id="11"><path id="" clip-rule="evenodd" transform="matrix(1 0 0 1 0 0)" d="M0 -0.249939L595.5 -0.249939L595.5 -0.249939L595.5 842.0001L595.5 842.0001L0 842.0001z" /></clipPath><clipPath id="12"><path id="" clip-rule="evenodd" transform="matrix(1 0 0 1 0 0)" d="M54.52881 158.2766L213.0816 158.2766L213.0816 158.2766L213.0816 294.1035L213.0816 294.1035L54.52881 294.1035z" /></clipPath><clipPath id="13"><path id="" clip-rule="evenodd" transform="matrix(1 0 0 1 0 0)" d="M65.00059 158.2766C 59.21518 158.2889 54.52881 162.9814 54.52881 168.7731L54.52881 168.7731L54.52881 283.0797C 54.52881 288.8774 59.22752 293.5762 65.02528 293.5762L65.02528 293.5762L202.8255 293.5762C 207.8453 293.5762 212.0439 290.0506 213.0812 285.3395L213.0812 285.3395L213.0812 166.5132C 212.0501 161.8083 207.8638 158.2889 202.8502 158.2766L202.8502 158.2766L65.00059 158.2766z" /></clipPath><clipPath id="14"><path id="" clip-rule="evenodd" transform="matrix(1 0 0 1 0 0)" d="M54.52881 158.2766L213.0816 158.2766L213.0816 158.2766L213.0816 293.575L213.0816 293.575L54.52881 293.575z" /></clipPath><clipPath id="15"><path id="" clip-rule="evenodd" transform="matrix(1 0 0 1 0 0)" d="M0 -0.249939L595.5 -0.249939L595.5 -0.249939L595.5 842.0001L595.5 842.0001L0 842.0001z" /></clipPath><clipPath id="16"><path id="" clip-rule="evenodd" transform="matrix(1 0 0 1 0 0)" d="M0 -0.249939L595.5 -0.249939L595.5 -0.249939L595.5 842.0001L595.5 842.0001L0 842.0001z" /></clipPath><clipPath id="17"><path id="" clip-rule="evenodd" transform="matrix(1 0 0 1 0 0)" d="M0 -0.249939L595.5 -0.249939L595.5 -0.249939L595.5 842.0001L595.5 842.0001L0 842.0001z" /></clipPath><clipPath id="18"><path id="" clip-rule="evenodd" transform="matrix(1 0 0 1 0 0)" d="M31.05315 55.25891L78.30315 55.25891L78.30315 55.25891L78.30315 80.00891L78.30315 80.00891L31.05315 80.00891z" /></clipPath><clipPath id="19"><path id="" clip-rule="evenodd" transform="matrix(1 0 0 1 0 0)" d="M31.05315 67.62946C 31.05315 70.91034 32.35648 74.05682 34.6764 76.37677C 36.99633 78.69666 40.14283 80 43.4237 80L43.4237 80L65.6339 80C 68.91477 80 72.06127 78.69666 74.3812 76.37677C 76.70113 74.05682 78.00445 70.91034 78.00445 67.62946C 78.00445 64.34857 76.70113 61.20209 74.3812 58.88214C 72.06127 56.56226 68.91477 55.25891 65.6339 55.25891L65.6339 55.25891L43.4237 55.25891C 40.14283 55.25891 36.99633 56.56226 34.6764 58.88214C 32.35648 61.20209 31.05315 64.34857 31.05315 67.62946z" /></clipPath><clipPath id="20"><path id="" clip-rule="evenodd" transform="matrix(1 0 0 1 0 0)" d="M31.80315 56.00891L77.55315 56.00891L77.55315 56.00891L77.55315 79.25891L77.55315 79.25891L31.80315 79.25891z" /></clipPath><clipPath id="21"><path id="" clip-rule="evenodd" transform="matrix(1 0 0 1 0 0)" d="M43.4237 56.15894L65.6339 56.15894C 68.67609 56.15894 71.59367 57.36743 73.74481 59.51855C 75.89596 61.66968 77.10446 64.58728 77.10446 67.62946C 77.10446 70.67163 75.89596 73.58923 73.74481 75.74036C 71.59367 77.89148 68.67609 79.09998 65.6339 79.09998L65.6339 79.09998L43.4237 79.09998C 40.38152 79.09998 37.46395 77.89148 35.3128 75.74036C 33.16165 73.58923 31.95315 70.67163 31.95315 67.62946C 31.95315 64.58728 33.16165 61.66968 35.3128 59.51855C 37.46395 57.36743 40.38152 56.15894 43.4237 56.15894z" /></clipPath><clipPath id="22"><path id="" clip-rule="evenodd" transform="matrix(1 0 0 1 0 0)" d="M31.80315 55.40381L77.55315 55.40381L77.55315 55.40381L77.55315 79.40381L77.55315 79.40381L31.80315 79.40381z" /></clipPath><clipPath id="23"><path id="" clip-rule="evenodd" transform="matrix(1 0 0 1 0 0)" d="M31.05799 44.22632L78.30799 44.22632L78.30799 44.22632L78.30799 91.47632L78.30799 91.47632L31.05799 91.47632z" /></clipPath><clipPath id="24"><path id="" clip-rule="evenodd" transform="matrix(1 0 0 1 0 0)" d="M0 -0.249939L595.5 -0.249939L595.5 -0.249939L595.5 842.0001L595.5 842.0001L0 842.0001z" /></clipPath><clipPath id="25"><path id="" clip-rule="evenodd" transform="matrix(1 0 0 1 0 0)" d="M0 -0.249939L595.5 -0.249939L595.5 -0.249939L595.5 842.0001L595.5 842.0001L0 842.0001z" /></clipPath><clipPath id="26"><path id="" clip-rule="evenodd" transform="matrix(1 0 0 1 0 0)" d="M31.05315 55.25891L78.30315 55.25891L78.30315 55.25891L78.30315 80.00891L78.30315 80.00891L31.05315 80.00891z" /></clipPath><clipPath id="27"><path id="" clip-rule="evenodd" transform="matrix(1 0 0 1 0 0)" d="M31.05315 67.62946C 31.05315 70.91034 32.35648 74.05682 34.6764 76.37677C 36.99633 78.69666 40.14283 80 43.4237 80L43.4237 80L65.6339 80C 68.91477 80 72.06127 78.69666 74.3812 76.37677C 76.70113 74.05682 78.00445 70.91034 78.00445 67.62946C 78.00445 64.34857 76.70113 61.20209 74.3812 58.88214C 72.06127 56.56226 68.91477 55.25891 65.6339 55.25891L65.6339 55.25891L43.4237 55.25891C 40.14283 55.25891 36.99633 56.56226 34.6764 58.88214C 32.35648 61.20209 31.05315 64.34857 31.05315 67.62946z" /></clipPath><clipPath id="28"><path id="" clip-rule="evenodd" transform="matrix(1 0 0 1 0 0)" d="M31.05315 55.25891L78.30315 55.25891L78.30315 55.25891L78.30315 80.00891L78.30315 80.00891L31.05315 80.00891z" /></clipPath><clipPath id="29"><path id="" clip-rule="evenodd" transform="matrix(1 0 0 1 0 0)" d="M31.05315 55.25891L78.29712 55.25891L78.29712 55.25891L78.29712 80.0061L78.29712 80.0061L31.05315 80.0061z" /></clipPath><clipPath id="30"><path id="" clip-rule="evenodd" transform="matrix(1 0 0 1 0 0)" d="M31.05315 67.62805C 31.05315 70.90857 32.35631 74.05469 34.67594 76.37433C 36.99557 78.69403 40.14167 79.99719 43.42212 79.99719L43.42212 79.99719L65.62949 79.99719C 68.90995 79.99719 72.05605 78.69403 74.37567 76.37433C 76.6953 74.05469 77.99846 70.90857 77.99846 67.62805C 77.99846 64.34753 76.6953 61.20142 74.37567 58.88171C 72.05605 56.56207 68.90995 55.25891 65.62949 55.25891L65.62949 55.25891L43.42212 55.25891C 40.14167 55.25891 36.99557 56.56207 34.67594 58.88171C 32.35631 61.20142 31.05315 64.34753 31.05315 67.62805z" /></clipPath><clipPath id="31"><path id="" clip-rule="evenodd" transform="matrix(1 0 0 1 0 0)" d="M0 -0.249939L595.5 -0.249939L595.5 -0.249939L595.5 842.0001L595.5 842.0001L0 842.0001z" /></clipPath><clipPath id="32"><path id="" clip-rule="evenodd" transform="matrix(1 0 0 1 0 0)" d="M327.6572 191.988L563.1572 191.988L563.1572 191.988L563.1572 469.488L563.1572 469.488L327.6572 469.488z" /></clipPath><clipPath id="33"><path id="" clip-rule="evenodd" transform="matrix(1 0 0 1 0 0)" d="M329.8882 433.2579L548.1382 433.2579L548.1382 433.2579L548.1382 436.2579L548.1382 436.2579L329.8882 436.2579z" /></clipPath><clipPath id="34"><path id="" clip-rule="evenodd" transform="matrix(1 0 0 1 0 0)" d="M0 -0.249939L595.5 -0.249939L595.5 -0.249939L595.5 842.0001L595.5 842.0001L0 842.0001z" /></clipPath><clipPath id="35"><path id="" clip-rule="evenodd" transform="matrix(1 0 0 1 0 0)" d="M0 -0.249939L595.5 -0.249939L595.5 -0.249939L595.5 842.0001L595.5 842.0001L0 842.0001z" /></clipPath><clipPath id="36"><path id="" clip-rule="evenodd" transform="matrix(1 0 0 1 0 0)" d="M341.9486 259.7628L548.3159 259.7628L548.3159 259.7628L548.3159 416.0647L548.3159 416.0647L341.9486 416.0647z" /></clipPath><clipPath id="37"><path id="" clip-rule="evenodd" transform="matrix(1 0 0 1 0 0)" d="M354.0932 259.7628C 350.8713 259.7628 347.7851 261.0416 345.5063 263.3204C 343.2273 265.5994 341.9486 268.6855 341.9486 271.9074L341.9486 271.9074L341.9486 403.9194C 341.9486 407.1413 343.2273 410.2274 345.5063 412.5063C 347.7851 414.7852 350.8713 416.064 354.0932 416.064L354.0932 416.064L535.8124 416.064C 539.0342 416.064 542.1204 414.7852 544.3993 412.5063C 546.0853 410.8204 547.2283 408.6843 547.7069 406.384L547.7069 406.384L547.7069 269.4427C 547.2283 267.1425 546.0924 265.0064 544.3993 263.3204C 542.1275 261.0416 539.0342 259.7628 535.8124 259.7628L535.8124 259.7628L354.0932 259.7628z" /></clipPath><clipPath id="38"><path id="" clip-rule="evenodd" transform="matrix(1 0 0 1 0 0)" d="M341.9486 259.7628L547.7054 259.7628L547.7054 259.7628L547.7054 416.0647L547.7054 416.0647L341.9486 416.0647z" /></clipPath><clipPath id="39"><path id="" clip-rule="evenodd" transform="matrix(1 0 0 1 0 0)" d="M0 -0.249939L595.5 -0.249939L595.5 -0.249939L595.5 842.0001L595.5 842.0001L0 842.0001z" /></clipPath><clipPath id="40"><path id="" clip-rule="evenodd" transform="matrix(1 0 0 1 0 0)" d="M0 -0.249939L595.5 -0.249939L595.5 -0.249939L595.5 842.0001L595.5 842.0001L0 842.0001z" /></clipPath><clipPath id="41"><path id="" clip-rule="evenodd" transform="matrix(1 0 0 1 0 0)" d="M0 -0.249939L595.5 -0.249939L595.5 -0.249939L595.5 842.0001L595.5 842.0001L0 842.0001z" /></clipPath><clipPath id="42"><path id="" clip-rule="evenodd" transform="matrix(1 0 0 1 0 0)" d="M329.8882 222.2717L377.1382 222.2717L377.1382 222.2717L377.1382 247.0217L377.1382 247.0217L329.8882 247.0217z" /></clipPath><clipPath id="43"><path id="" clip-rule="evenodd" transform="matrix(1 0 0 1 0 0)" d="M329.8882 234.6422C 329.8882 237.9231 331.1915 241.0696 333.5114 243.3895C 335.8314 245.7095 338.9779 247.0128 342.2587 247.0128L342.2587 247.0128L364.4689 247.0128C 367.7498 247.0128 370.8963 245.7095 373.2162 243.3895C 375.5362 241.0696 376.8395 237.9231 376.8395 234.6422C 376.8395 231.3614 375.5362 228.2148 373.2162 225.895C 370.8963 223.575 367.7498 222.2717 364.4689 222.2717L364.4689 222.2717L342.2587 222.2717C 338.9779 222.2717 335.8314 223.575 333.5114 225.895C 331.1915 228.2148 329.8882 231.3614 329.8882 234.6422z" /></clipPath><clipPath id="44"><path id="" clip-rule="evenodd" transform="matrix(1 0 0 1 0 0)" d="M330.6382 223.0217L376.3882 223.0217L376.3882 223.0217L376.3882 246.2717L376.3882 246.2717L330.6382 246.2717z" /></clipPath><clipPath id="45"><path id="" clip-rule="evenodd" transform="matrix(1 0 0 1 0 0)" d="M342.2587 223.1717L364.4689 223.1717C 367.5111 223.1717 370.4287 224.3802 372.5799 226.5314C 374.731 228.6825 375.9395 231.6001 375.9395 234.6422C 375.9395 237.6844 374.731 240.602 372.5799 242.7532C 370.4287 244.9043 367.5111 246.1128 364.4689 246.1128L364.4689 246.1128L342.2587 246.1128C 339.2166 246.1128 336.299 244.9043 334.1479 242.7532C 331.9967 240.602 330.7882 237.6844 330.7882 234.6422C 330.7882 231.6001 331.9967 228.6825 334.1479 226.5314C 336.299 224.3802 339.2166 223.1717 342.2587 223.1717z" /></clipPath><clipPath id="46"><path id="" clip-rule="evenodd" transform="matrix(1 0 0 1 0 0)" d="M330.6382 222.4166L376.3882 222.4166L376.3882 222.4166L376.3882 246.4166L376.3882 246.4166L330.6382 246.4166z" /></clipPath><clipPath id="47"><path id="" clip-rule="evenodd" transform="matrix(1 0 0 1 0 0)" d="M329.893 211.2391L377.143 211.2391L377.143 211.2391L377.143 258.4891L377.143 258.4891L329.893 258.4891z" /></clipPath><clipPath id="48"><path id="" clip-rule="evenodd" transform="matrix(1 0 0 1 0 0)" d="M0 -0.249939L595.5 -0.249939L595.5 -0.249939L595.5 842.0001L595.5 842.0001L0 842.0001z" /></clipPath><clipPath id="49"><path id="" clip-rule="evenodd" transform="matrix(1 0 0 1 0 0)" d="M0 -0.249939L595.5 -0.249939L595.5 -0.249939L595.5 842.0001L595.5 842.0001L0 842.0001z" /></clipPath><clipPath id="50"><path id="" clip-rule="evenodd" transform="matrix(1 0 0 1 0 0)" d="M329.8882 222.2717L377.1382 222.2717L377.1382 222.2717L377.1382 247.0217L377.1382 247.0217L329.8882 247.0217z" /></clipPath><clipPath id="51"><path id="" clip-rule="evenodd" transform="matrix(1 0 0 1 0 0)" d="M329.8882 234.6422C 329.8882 237.9231 331.1915 241.0696 333.5114 243.3895C 335.8314 245.7095 338.9779 247.0128 342.2587 247.0128L342.2587 247.0128L364.4689 247.0128C 367.7498 247.0128 370.8963 245.7095 373.2162 243.3895C 375.5362 241.0696 376.8395 237.9231 376.8395 234.6422C 376.8395 231.3614 375.5362 228.2148 373.2162 225.895C 370.8963 223.575 367.7498 222.2717 364.4689 222.2717L364.4689 222.2717L342.2587 222.2717C 338.9779 222.2717 335.8314 223.575 333.5114 225.895C 331.1915 228.2148 329.8882 231.3614 329.8882 234.6422z" /></clipPath><clipPath id="52"><path id="" clip-rule="evenodd" transform="matrix(1 0 0 1 0 0)" d="M329.8882 222.2717L377.1382 222.2717L377.1382 222.2717L377.1382 247.0217L377.1382 247.0217L329.8882 247.0217z" /></clipPath><clipPath id="53"><path id="" clip-rule="evenodd" transform="matrix(1 0 0 1 0 0)" d="M329.8882 222.2717L377.1322 222.2717L377.1322 222.2717L377.1322 247.0189L377.1322 247.0189L329.8882 247.0189z" /></clipPath><clipPath id="54"><path id="" clip-rule="evenodd" transform="matrix(1 0 0 1 0 0)" d="M329.8882 234.6409C 329.8882 237.9213 331.1913 241.0675 333.511 243.3871C 335.8306 245.7068 338.9767 247.0099 342.2572 247.0099L342.2572 247.0099L364.4645 247.0099C 367.745 247.0099 370.8911 245.7068 373.2107 243.3871C 375.5304 241.0675 376.8335 237.9213 376.8335 234.6409C 376.8335 231.3604 375.5304 228.2142 373.2107 225.8945C 370.8911 223.5749 367.745 222.2717 364.4645 222.2717L364.4645 222.2717L342.2572 222.2717C 338.9767 222.2717 335.8306 223.5749 333.511 225.8945C 331.1913 228.2142 329.8882 231.3604 329.8882 234.6409z" /></clipPath><clipPath id="55"><path id="" clip-rule="evenodd" transform="matrix(1 0 0 1 0 0)" d="M0 -0.249939L595.5 -0.249939L595.5 -0.249939L595.5 842.0001L595.5 842.0001L0 842.0001z" /></clipPath></defs><g transform="matrix(1.333333 0 0 1.333333 0 0)"><g clip-path="url(#1)"><g clip-path="url(#2)"><path id="1" transform="matrix(1 0 0 -1 0 842)" d="M0 842.2499L595.4999 842.2499L595.4999 -6.103516E-05L0 -6.103516E-05z" stroke="none" fill="#FFFFFF" fill-rule="nonzero" /></g><g clip-path="url(#3)"><path id="2" transform="matrix(1 0 0 -1 0 842)" d="M0 842.2499L595.4999 842.2499L595.4999 -6.103516E-05L0 -6.103516E-05z" stroke="none" fill="#FFFFFF" fill-rule="nonzero" /></g><g clip-path="url(#4)"><g><g clip-path="url(#5)"><g clip-path="url(#6)"><g transform="matrix(0 0.5128205 -0.5127462 0 522.3865 24.73328)"><g transform="matrix(1 0 0 1 0 0)"><image x="0" y="0" xlink:href="img_01.png" width="1521" height="863" /></g></g></g></g></g></g><g clip-path="url(#7)"><g transform="matrix(0.06607495 0 0 0.06604866 489.4179 6.839111)"><g transform="matrix(1 0 0 1 0 0)"><image x="0" y="0" xlink:href="img_02.png" width="1521" height="863" /></g></g></g><g clip-path="url(#8)"><g transform="matrix(0.2400611 0 0 0.2406948 16.35346 43.82727)"><g transform="matrix(1 0 0 1 0 0)"><image x="0" y="0" xlink:href="img_03.png" width="981" height="1209" /></g></g></g><g clip-path="url(#9)"><g transform="matrix(0.9530568 0 0 1 26.32848 299.2906)"><g transform="matrix(1 0 0 1 0 0)"><image x="0" y="0" xlink:href="img_04.png" width="229" height="3" /></g></g></g><g clip-path="url(#10)"><g clip-path="url(#11)"><g clip-path="url(#12)"><g clip-path="url(#13)"><g clip-path="url(#14)"><g transform="matrix(0.5980499 0 0 0.596028 54.38927 158.2766)"><g transform="matrix(1 0 0 1 0 0)"><image x="0" y="0" xlink:href="img_05.png" width="266" height="227" /></g></g></g></g></g></g></g><g clip-path="url(#15)"></g><g clip-path="url(#16)"><g clip-path="url(#17)"><g clip-path="url(#18)"><g clip-path="url(#19)"><g clip-path="url(#20)"><g clip-path="url(#21)"><g clip-path="url(#22)"><g clip-path="url(#23)"><path id="70" transform="matrix(1 0 0 -1 0 842)" d="M54.68299 797.4245C 41.84635 797.4245 31.40713 786.9852 31.40713 774.1486C 31.40713 761.312 41.84635 750.8727 54.68299 750.8727C 67.51962 750.8727 77.95885 761.312 77.95885 774.1486C 77.95885 786.9852 67.51962 797.4245 54.68299 797.4245zM54.68299 750.5236C 41.66014 750.5236 31.05799 761.1258 31.05799 774.1486C 31.05799 787.1714 41.66014 797.7736 54.68299 797.7736C 67.70583 797.7736 78.30798 787.1714 78.30798 774.1486C 78.30798 761.1258 67.70583 750.5236 54.68299 750.5236z" stroke="none" fill="#000000" fill-rule="nonzero" /></g></g></g></g></g></g></g></g><g clip-path="url(#24)"><g clip-path="url(#25)"><g clip-path="url(#26)"><g clip-path="url(#27)"><g clip-path="url(#28)"><g clip-path="url(#29)"><g clip-path="url(#30)"><path id="71" transform="matrix(1 0 0 -1 0 842)" d="M31.05315 774.3719C 31.05315 771.0914 32.35631 767.9453 34.67594 765.6257C 36.99557 763.306 40.14167 762.0028 43.42212 762.0028L43.42212 762.0028L65.62949 762.0028C 68.90994 762.0028 72.05605 763.306 74.37567 765.6257C 76.6953 767.9453 77.99846 771.0914 77.99846 774.3719C 77.99846 777.6525 76.6953 780.7986 74.37567 783.1182C 72.05605 785.4379 68.90994 786.7411 65.62949 786.7411L65.62949 786.7411L43.42212 786.7411C 40.14167 786.7411 36.99557 785.4379 34.67594 783.1182C 32.35631 780.7986 31.05315 777.6525 31.05315 774.3719z" stroke="#000000" stroke-width="1.5" fill="none" /></g></g></g></g></g></g></g><g clip-path="url(#31)"></g><g clip-path="url(#32)"><g transform="matrix(0.2400611 0 0 0.2406765 327.6572 191.988)"><g transform="matrix(1 0 0 1 0 0)"><image x="0" y="0" xlink:href="img_06.png" width="981" height="1153" /></g></g></g><g clip-path="url(#33)"><g transform="matrix(0.9530568 0 0 1 329.8882 433.2579)"><g transform="matrix(1 0 0 1 0 0)"><image x="0" y="0" xlink:href="img_07.png" width="229" height="3" /></g></g></g><g clip-path="url(#34)"><g clip-path="url(#35)"><g clip-path="url(#36)"><g clip-path="url(#37)"><g clip-path="url(#38)"><g transform="matrix(0.5862016 0 0 0.5857716 341.9485 258.5527)"><g transform="matrix(1 0 0 1 0 0)"><image x="0" y="0" xlink:href="img_08.png" width="351" height="271" /></g></g></g></g></g></g></g><g clip-path="url(#39)"></g><g clip-path="url(#40)"><g clip-path="url(#41)"><g clip-path="url(#42)"><g clip-path="url(#43)"><g clip-path="url(#44)"><g clip-path="url(#45)"><g clip-path="url(#46)"><g clip-path="url(#47)"><path id="143" transform="matrix(1 0 0 -1 0 842)" d="M353.518 630.4117C 340.6814 630.4117 330.2422 619.9724 330.2422 607.1358C 330.2422 594.2992 340.6814 583.8599 353.518 583.8599C 366.3546 583.8599 376.7939 594.2992 376.7939 607.1358C 376.7939 619.9724 366.3546 630.4117 353.518 630.4117zM353.518 583.5108C 340.4951 583.5108 329.893 594.113 329.893 607.1358C 329.893 620.1586 340.4951 630.7608 353.518 630.7608C 366.5408 630.7608 377.143 620.1586 377.143 607.1358C 377.143 594.113 366.5408 583.5108 353.518 583.5108z" stroke="none" fill="#000000" fill-rule="nonzero" /></g></g></g></g></g></g></g></g><g clip-path="url(#48)"><g clip-path="url(#49)"><g clip-path="url(#50)"><g clip-path="url(#51)"><g clip-path="url(#52)"><g clip-path="url(#53)"><g clip-path="url(#54)"><path id="144" transform="matrix(1 0 0 -1 0 842)" d="M329.8882 607.3591C 329.8882 604.0786 331.1913 600.9325 333.511 598.6129C 335.8306 596.2932 338.9767 594.99 342.2571 594.99L342.2571 594.99L364.4645 594.99C 367.745 594.99 370.8911 596.2932 373.2107 598.6129C 375.5303 600.9325 376.8335 604.0786 376.8335 607.3591C 376.8335 610.6396 375.5303 613.7858 373.2107 616.1054C 370.8911 618.4251 367.745 619.7283 364.4645 619.7283L364.4645 619.7283L342.2571 619.7283C 338.9767 619.7283 335.8306 618.4251 333.511 616.1054C 331.1913 613.7858 329.8882 610.6396 329.8882 607.3591z" stroke="#000000" stroke-width="1.5" fill="none" /></g></g></g></g></g></g></g><g clip-path="url(#55)"></g></g></g></svg>