<svg xmlns="http://www.w3.org/2000/svg" xmlns:xlink="http://www.w3.org/1999/xlink" id="body_1" preserveAspectRatio="xMinYMin meet" viewBox="0 0 793 1123"><defs><clipPath id="1"><path id="" clip-rule="evenodd" transform="matrix(1 0 0 1 0 0)" d="M0 842L0 -0.25L0 -0.25L595.5 -0.25L595.5 -0.25L595.5 842L595.5 842L0 842z" /></clipPath><clipPath id="2"><path id="" clip-rule="evenodd" transform="matrix(1 0 0 1 0 0)" d="M0 -0.249939L595.5 -0.249939L595.5 -0.249939L595.5 842.0001L595.5 842.0001L0 842.0001z" /></clipPath><clipPath id="3"><path id="" clip-rule="evenodd" transform="matrix(1 0 0 1 0 0)" d="M0 -0.249939L595.5 -0.249939L595.5 -0.249939L595.5 842.0001L595.5 842.0001L0 842.0001z" /></clipPath><clipPath id="4"><path id="" clip-rule="evenodd" transform="matrix(1 0 0 1 0 0)" d="M0 -0.249939L595.5 -0.249939L595.5 -0.249939L595.5 842.0001L595.5 842.0001L0 842.0001z" /></clipPath><clipPath id="5"><path id="" clip-rule="evenodd" transform="matrix(1 0 0 1 0 0)" d="M0 -0.249939L595.5 -0.249939L595.5 -0.249939L595.5 842.0001L595.5 842.0001L0 842.0001z" /></clipPath><clipPath id="6"><path id="" clip-rule="evenodd" transform="matrix(1 0 0 1 0 0)" d="M544.9348 426.4512L715.1848 426.4512L715.1848 426.4512L715.1848 596.7012L715.1848 596.7012L544.9348 596.7012z" /></clipPath><clipPath id="7"><path id="" clip-rule="evenodd" transform="matrix(1 0 0 1 0 0)" d="M544.9348 501.4512L544.9348 521.2377C 544.9348 562.6591 578.5135 596.2377 619.9348 596.2377L619.9348 596.2377L639.7213 596.2377C 681.1426 596.2377 714.7213 562.6591 714.7213 521.2377L714.7213 521.2377L714.7213 501.4512C 714.7213 460.0298 681.1426 426.4512 639.7213 426.4512L639.7213 426.4512L619.9348 426.4512C 578.5135 426.4512 544.9348 460.0298 544.9348 501.4512z" /></clipPath><clipPath id="8"><path id="" clip-rule="evenodd" transform="matrix(1 0 0 1 0 0)" d="M545.6848 427.2012L714.4348 427.2012L714.4348 427.2012L714.4348 595.9512L714.4348 595.9512L545.6848 595.9512z" /></clipPath><clipPath id="9"><path id="" clip-rule="evenodd" transform="matrix(1 0 0 1 0 0)" d="M620.8348 427.3512L638.8214 427.3512C 680.2427 427.3512 713.8214 460.9299 713.8214 502.3512L713.8214 502.3512L713.8214 520.3377C 713.8214 561.759 680.2427 595.3377 638.8214 595.3377L638.8214 595.3377L620.8348 595.3377C 579.4135 595.3377 545.8348 561.759 545.8348 520.3377L545.8348 520.3377L545.8348 502.3512C 545.8348 460.9299 579.4135 427.3512 620.8348 427.3512z" /></clipPath><clipPath id="10"><path id="" clip-rule="evenodd" transform="matrix(1 0 0 1 0 0)" d="M544.9348 426.4512L714.4348 426.4512L714.4348 426.4512L714.4348 595.9512L714.4348 595.9512L544.9348 595.9512z" /></clipPath><clipPath id="11"><path id="" clip-rule="evenodd" transform="matrix(1 0 0 1 0 0)" d="M545.7599 427.1901L595.6799 427.1901L595.6799 427.1901L595.6799 595.4301L595.6799 595.4301L545.7599 595.4301z" /></clipPath><mask id="m1"><clipPath id="12"><path id="" clip-rule="evenodd" transform="matrix(1 0 0 1 0 0)" d="M545.7599 427.1901L595.6799 427.1901L595.6799 427.1901L595.6799 595.4301L595.6799 595.4301L545.7599 595.4301z" /></clipPath><g><g><g clip-path="url(#12)"><path id="3" transform="matrix(1 0 0 -1 0 842)" d="M545.7599 414.8099L595.6799 414.8099L595.6799 246.5699L545.7599 246.5699z" stroke="none" fill="#000000" fill-rule="nonzero" /></g></g></g></mask><clipPath id="13"><path id="" clip-rule="evenodd" transform="matrix(1 0 0 1 0 0)" d="M545.7599 427.1901L595.6799 427.1901L595.6799 427.1901L595.6799 595.4301L595.6799 595.4301L545.7599 595.4301z" /></clipPath><clipPath id="14"><path id="" clip-rule="evenodd" transform="matrix(1 0 0 1 0 0)" d="M545.52 426.9501L595.9199 426.9501L595.9199 426.9501L595.9199 595.67L595.9199 595.67L545.52 595.67z" /></clipPath><mask id="m2"><clipPath id="15"><path id="" clip-rule="evenodd" transform="matrix(1 0 0 1 0 0)" d="M545.7599 427.1901L595.6799 427.1901L595.6799 427.1901L595.6799 595.4301L595.6799 595.4301L545.7599 595.4301z" /></clipPath><clipPath id="16"><path id="" clip-rule="evenodd" transform="matrix(1 0 0 1 0 0)" d="M545.7599 427.1901L595.6799 427.1901L595.6799 427.1901L595.6799 595.4301L595.6799 595.4301L545.7599 595.4301z" /></clipPath><mask id="m3"><clipPath id="17"><path id="" clip-rule="evenodd" transform="matrix(1 0 0 1 0 0)" d="M545.7599 427.1901L595.6799 427.1901L595.6799 427.1901L595.6799 595.4301L595.6799 595.4301L545.7599 595.4301z" /></clipPath><g><g><g clip-path="url(#17)"><path id="5" transform="matrix(1 0 0 -1 0 842)" d="M545.7599 414.8099L595.6799 414.8099L595.6799 246.5699L545.7599 246.5699z" stroke="none" fill="#000000" fill-rule="nonzero" /></g></g></g></mask><clipPath id="18"><path id="" clip-rule="evenodd" transform="matrix(1 0 0 1 0 0)" d="M545.7599 427.1901L595.6799 427.1901L595.6799 427.1901L595.6799 595.4301L595.6799 595.4301L545.7599 595.4301z" /></clipPath><mask id="m4"><clipPath id="19"><path id="" clip-rule="evenodd" transform="matrix(1 0 0 1 0 0)" d="M545.7599 427.1901L595.6799 427.1901L595.6799 427.1901L595.6799 595.4301L595.6799 595.4301L545.7599 595.4301z" /></clipPath><clipPath id="20"><path id="" clip-rule="evenodd" transform="matrix(1 0 0 1 0 0)" d="M545.7599 427.1901L595.6799 427.1901L595.6799 427.1901L595.6799 595.4301L595.6799 595.4301L545.7599 595.4301z" /></clipPath><g><g><g clip-path="url(#19)"><g><g clip-path="url(#20)"><path id="7" transform="matrix(1 0 0 -1 0 842)" d="M544.9348 415.5488L714.716 415.5488L714.716 245.7675L544.9348 245.7675z" stroke="none" fill="#000000" fill-rule="nonzero" /></g></g></g></g></g></mask><clipPath id="21"><path id="" clip-rule="evenodd" transform="matrix(1 0 0 1 0 0)" d="M545.7599 427.1901L595.6799 427.1901L595.6799 427.1901L595.6799 595.4301L595.6799 595.4301L545.7599 595.4301z" /></clipPath><g><g><g clip-path="url(#15)"><g><g clip-path="url(#16)"><g mask="url(#m3)"><g><g clip-path="url(#18)"><path id="6" transform="matrix(1 0 0 -1 0 842)" d="M629.8204 415.5488C 582.9428 415.5488 544.9348 377.5407 544.9348 330.6631C 544.9348 283.7855 582.9428 245.7775 629.8204 245.7775C 676.698 245.7775 714.706 283.7855 714.706 330.6631C 714.706 377.5407 676.7079 415.5488 629.8204 415.5488z" stroke="none" fill="#000000" fill-rule="nonzero" /></g></g></g><g mask="url(#m4)"><g><g clip-path="url(#21)"><path id="8" transform="matrix(1 0 0 -1 0 842)" d="M629.8204 415.5488C 582.9428 415.5488 544.9348 377.5407 544.9348 330.6631C 544.9348 283.7855 582.9428 245.7775 629.8204 245.7775C 676.698 245.7775 714.706 283.7855 714.706 330.6631C 714.706 377.5407 676.7079 415.5488 629.8204 415.5488z" stroke="none" fill="#000000" fill-rule="nonzero" /></g></g></g></g></g></g></g></g></mask><clipPath id="22"><path id="" clip-rule="evenodd" transform="matrix(1 0 0 1 0 0)" d="M545.7599 427.1901L595.6799 427.1901L595.6799 427.1901L595.6799 595.4301L595.6799 595.4301L545.7599 595.4301z" /></clipPath><clipPath id="23"><path id="" clip-rule="evenodd" transform="matrix(1 0 0 1 0 0)" d="M545.52 426.9501L595.9199 426.9501L595.9199 426.9501L595.9199 595.67L595.9199 595.67L545.52 595.67z" /></clipPath><clipPath id="24"><path id="" clip-rule="evenodd" transform="matrix(1 0 0 1 0 0)" d="M0 -0.249939L595.5 -0.249939L595.5 -0.249939L595.5 842.0001L595.5 842.0001L0 842.0001z" /></clipPath><clipPath id="25"><path id="" clip-rule="evenodd" transform="matrix(1 0 0 1 0 0)" d="M0 -0.249939L595.5 -0.249939L595.5 -0.249939L595.5 842.0001L595.5 842.0001L0 842.0001z" /></clipPath><clipPath id="26"><path id="" clip-rule="evenodd" transform="matrix(1 0 0 1 0 0)" d="M544.9348 426.4512L715.1848 426.4512L715.1848 426.4512L715.1848 596.7012L715.1848 596.7012L544.9348 596.7012z" /></clipPath><clipPath id="27"><path id="" clip-rule="evenodd" transform="matrix(1 0 0 1 0 0)" d="M544.9348 501.4512L544.9348 521.2377C 544.9348 562.6591 578.5135 596.2377 619.9348 596.2377L619.9348 596.2377L639.7213 596.2377C 681.1426 596.2377 714.7213 562.6591 714.7213 521.2377L714.7213 521.2377L714.7213 501.4512C 714.7213 460.0298 681.1426 426.4512 639.7213 426.4512L639.7213 426.4512L619.9348 426.4512C 578.5135 426.4512 544.9348 460.0298 544.9348 501.4512z" /></clipPath><clipPath id="28"><path id="" clip-rule="evenodd" transform="matrix(1 0 0 1 0 0)" d="M544.9348 426.4512L714.4348 426.4512L714.4348 426.4512L714.4348 595.9512L714.4348 595.9512L544.9348 595.9512z" /></clipPath><clipPath id="29"><path id="" clip-rule="evenodd" transform="matrix(1 0 0 1 0 0)" d="M544.9348 426.4512L715.1795 426.4512L715.1795 426.4512L715.1795 596.696L715.1795 596.696L544.9348 596.696z" /></clipPath><clipPath id="30"><path id="" clip-rule="evenodd" transform="matrix(1 0 0 1 0 0)" d="M544.9348 501.4489L544.9348 521.2348C 544.9348 562.6548 578.5125 596.2324 619.9325 596.2324L619.9325 596.2324L639.7184 596.2324C 681.1384 596.2324 714.7161 562.6548 714.7161 521.2348L714.7161 521.2348L714.7161 501.4489C 714.7161 460.0288 681.1384 426.4512 639.7184 426.4512L639.7184 426.4512L619.9325 426.4512C 578.5125 426.4512 544.9348 460.0288 544.9348 501.4489z" /></clipPath><clipPath id="31"><path id="" clip-rule="evenodd" transform="matrix(1 0 0 1 0 0)" d="M0 -0.249939L595.5 -0.249939L595.5 -0.249939L595.5 842.0001L595.5 842.0001L0 842.0001z" /></clipPath><clipPath id="32"><path id="" clip-rule="evenodd" transform="matrix(1 0 0 1 0 0)" d="M0 -0.249939L595.5 -0.249939L595.5 -0.249939L595.5 842.0001L595.5 842.0001L0 842.0001z" /></clipPath><clipPath id="33"><path id="" clip-rule="evenodd" transform="matrix(1 0 0 1 0 0)" d="M535.748 54.10565L621.2108 54.10565L621.2108 54.10565L621.2108 231.6821L621.2108 231.6821L535.748 231.6821z" /></clipPath><clipPath id="34"><path id="" clip-rule="evenodd" transform="matrix(1 0 0 1 0 0)" d="M620.8773 54.24768C 610.5273 54.5777 600.2174 56.73767 590.5975 60.65765C 579.9277 64.98761 570.1177 71.45752 561.8978 79.5675C 553.6779 87.67743 547.0579 97.4173 542.558 108.0872C 538.628 117.3571 536.3281 127.327 535.748 137.407L535.748 137.407L535.748 147.6368C 536.308 157.3268 538.448 166.9367 542.1279 175.9467C 546.5079 186.7266 553.0479 196.6464 561.2377 204.9464C 569.4277 213.2463 579.2776 219.9462 590.0576 224.4962C 599.7974 228.6161 610.2974 230.9662 620.8773 231.4362L620.8773 231.4362L620.8773 227.7162C 610.7673 227.3862 600.7075 225.2762 591.3175 221.4562C 580.8776 217.2162 571.2777 210.8864 563.2278 202.9564C 555.1778 195.0265 548.6979 185.4766 544.298 175.0466C 539.878 164.6167 537.568 153.2868 537.488 141.9269C 537.408 130.567 539.568 119.1771 543.8679 108.6272C 548.1379 98.06732 554.5479 88.36737 562.5678 80.22748C 570.5877 72.08752 580.2277 65.54761 590.7775 61.08765C 600.2875 57.05768 610.5374 54.7677 620.8773 54.28772L620.8773 54.28772L620.8773 54.24768zM620.8773 66.7876C 612.1674 67.1076 603.4974 68.94757 595.3875 72.23755C 586.2375 75.9375 577.8176 81.47748 570.7578 88.42737C 563.6978 95.37732 558.0078 103.7273 554.1378 112.8772C 550.2479 122.0271 548.2179 131.957 548.1379 141.9269C 548.0579 151.8969 549.9379 161.8867 553.7079 171.1567C 557.4578 180.4266 563.0677 188.9465 570.0977 196.0964C 577.1276 203.2464 585.5876 209.0063 594.8575 212.9263C 603.0874 216.4163 611.9374 218.4363 620.8873 218.8962L620.8873 218.8962L620.8873 215.1863C 612.4174 214.8663 603.9974 213.0763 596.1175 209.8864C 587.1976 206.2764 578.9777 200.8764 572.0977 194.1064C 565.2177 187.3365 559.6478 179.1666 555.8678 170.2467C 552.0779 161.3268 550.0879 151.6469 550.0079 141.9169C 549.9279 132.187 551.7679 122.4471 555.4379 113.4072C 559.0978 104.3672 564.5677 96.05731 571.4277 89.07739C 578.2877 82.09747 586.5375 76.47748 595.5775 72.65753C 603.5775 69.25757 612.1874 67.2876 620.8873 66.82758L620.8873 66.82758L620.8873 66.77759L620.8873 66.77759L620.8773 66.7876zM620.8773 79.32745C 613.8073 79.64746 606.7774 81.14746 600.1874 83.81744C 592.5475 86.8974 585.5176 91.50739 579.6176 97.28729C 573.7177 103.0673 568.9577 110.0372 565.7178 117.6771C 562.4578 125.3071 560.7478 133.597 560.6578 141.9269C 560.5678 150.2568 562.1378 158.6068 565.2778 166.3567C 568.3978 174.1066 573.0777 181.2466 578.9576 187.2266C 584.8376 193.2065 591.8975 198.0464 599.6475 201.3364C 606.3574 204.1964 613.5773 205.8864 620.8773 206.3364L620.8773 206.3364L620.8773 202.6364C 614.0473 202.3264 607.2674 200.8664 600.9074 198.2964C 593.4975 195.3165 586.6776 190.8465 580.9476 185.2266C 575.2177 179.6066 570.5977 172.8566 567.4478 165.4467C 564.2877 158.0468 562.6177 149.9968 562.5378 141.9169C 562.4578 133.837 563.9678 125.7271 567.0078 118.2072C 570.0377 110.6872 574.5777 103.7573 580.2776 97.94733C 585.9775 92.13733 592.8475 87.44739 600.3674 84.24744C 606.8474 81.47748 613.8173 79.83746 620.8773 79.38745L620.8773 79.38745L620.8773 79.32745zM620.8773 91.87738C 615.4473 92.17737 610.0474 93.35736 604.9874 95.39734C 598.8675 97.84729 593.2275 101.5273 588.4875 106.1572C 583.7476 110.7872 579.9076 116.3472 577.2977 122.4671C 574.6877 128.587 573.2776 135.2369 573.1977 141.9169C 573.1177 148.5969 574.3577 155.3168 576.8577 161.5468C 579.3577 167.7767 583.0976 173.5266 587.8175 178.3566C 592.5375 183.1866 598.2075 187.0865 604.4474 189.7465C 609.6473 191.9764 615.2274 193.3365 620.8773 193.7665L620.8773 193.7665L620.8773 190.0765C 615.6873 189.7765 610.5473 188.6465 605.7074 186.7065C 599.8174 184.3566 594.3775 180.8166 589.8176 176.3566C 585.2576 171.8967 581.5576 166.5367 579.0376 160.6467C 576.5176 154.7568 575.1677 148.3569 575.0776 141.9169C 574.9877 135.477 576.1877 129.007 578.5976 123.0071C 581.0076 117.0071 584.6076 111.4672 589.1475 106.8073C 593.6875 102.1473 599.1575 98.38733 605.1674 95.81732C 610.1373 93.67737 615.4673 92.37738 620.8773 91.94739L620.8773 91.94739L620.8773 91.86737L620.8773 91.86737L620.8773 91.87738zM620.8773 104.4272C 617.0873 104.7073 613.3273 105.5573 609.7773 106.9672C 605.1674 108.7872 600.9174 111.5372 597.3375 115.0071C 593.7575 118.4771 590.8575 122.6571 588.8676 127.267C 586.8776 131.877 585.7975 136.887 585.7176 141.9269C 585.6376 146.9669 586.5576 152.0468 588.4276 156.7668C 590.2975 161.4868 593.1175 165.8467 596.6675 169.5067C 600.2174 173.1666 604.5074 176.1466 609.2274 178.1866C 612.9073 179.7866 616.8573 180.7966 620.8672 181.2065L620.8672 181.2065L620.8672 177.5366C 617.3173 177.2566 613.8073 176.4566 610.4873 175.1466C 606.1074 173.4166 602.0674 170.8066 598.6575 167.5167C 595.2475 164.2267 592.4875 160.2468 590.5875 155.8668C 588.6875 151.4868 587.6676 146.7269 587.5875 141.9269C 587.5076 137.127 588.3776 132.297 590.1575 127.8071C 591.9376 123.3171 594.6075 119.1671 597.9875 115.6771C 601.3674 112.1872 605.4474 109.3472 609.9374 107.4072C 613.3973 105.9072 617.0873 104.9373 620.8572 104.5372L620.8572 104.5372L620.8572 104.4272L620.8572 104.4272L620.8773 104.4272zM620.8773 117.0071C 618.7272 117.2471 616.6073 117.7571 614.5773 118.5471C 611.4874 119.7371 608.6274 121.5571 606.2074 123.8671C 603.7874 126.1771 601.8174 128.9771 600.4575 132.057C 599.0975 135.137 598.3475 138.517 598.2574 141.9169C 598.1874 145.3169 598.7775 148.7568 600.0175 151.9568C 601.2574 155.1568 603.1474 158.1268 605.5374 160.6368C 607.9274 163.1467 610.8373 165.1768 614.0374 166.5867C 616.2073 167.5467 618.5173 168.2067 620.8773 168.5667L620.8773 168.5667L620.8773 164.9467C 618.9773 164.7167 617.0973 164.2567 615.2973 163.5568C 612.4373 162.4567 609.7773 160.7767 607.5374 158.6468C 605.2974 156.5168 603.4574 153.9168 602.1974 151.0668C 600.9374 148.2169 600.2275 145.0869 600.1475 141.9269C 600.0775 138.767 600.6174 135.577 601.7674 132.607C 602.9174 129.637 604.6574 126.8671 606.8774 124.5371C 609.0974 122.2071 611.7974 120.3071 614.7673 118.9871C 616.7073 118.1271 618.7773 117.5172 620.8873 117.1771L620.8873 117.1771L620.8873 117.0172L620.8873 117.0172L620.8773 117.0071zM620.8773 129.687C 618.7473 130.177 616.7173 131.207 615.0673 132.727C 612.5374 135.017 610.9373 138.387 610.7874 141.9169C 610.6174 145.4469 611.9174 149.0869 614.3973 151.7769C 616.1073 153.6569 618.3773 155.0568 620.8773 155.7768L620.8773 155.7768L620.8773 152.2168C 619.2372 151.7769 617.6873 150.9568 616.3973 149.7869C 614.2173 147.8369 612.8173 144.9669 612.6674 141.9269C 612.4973 138.887 613.5973 135.7469 615.7273 133.397C 617.0973 131.877 618.8873 130.707 620.8773 130.037L620.8773 130.037L620.8773 129.697L620.8773 129.697L620.8773 129.687z" /></clipPath><clipPath id="35"><path id="" clip-rule="evenodd" transform="matrix(1 0 0 1 0 0)" d="M0 -0.249939L595.5 -0.249939L595.5 -0.249939L595.5 842.0001L595.5 842.0001L0 842.0001z" /></clipPath><clipPath id="36"><path id="" clip-rule="evenodd" transform="matrix(1 0 0 1 0 0)" d="M0 -0.249939L595.5 -0.249939L595.5 -0.249939L595.5 842.0001L595.5 842.0001L0 842.0001z" /></clipPath><clipPath id="37"><path id="" clip-rule="evenodd" transform="matrix(1 0 0 1 0 0)" d="M-17.67877 170.094L67.78403 170.094L67.78403 170.094L67.78403 347.6704L67.78403 347.6704L-17.67877 347.6704z" /></clipPath><clipPath id="38"><path id="" clip-rule="evenodd" transform="matrix(1 0 0 1 0 0)" d="M-17.34523 347.5284C -6.995317 347.1984 3.31459 345.0384 12.93451 341.1184C 23.60441 336.7885 33.41433 330.3185 41.63426 322.2086C 49.85418 314.0986 56.47412 304.3588 60.97408 293.6888C 64.90405 284.4189 67.20403 274.449 67.78403 264.3691L67.78403 264.3691L67.78403 254.1392C 67.22403 244.4493 65.08405 234.8394 61.40408 225.8295C 57.02412 215.0496 50.48418 205.1296 42.29425 196.8297C 34.10432 188.5298 24.25441 181.8298 13.4745 177.2799C 3.73459 173.1599 -6.765315 170.8099 -17.34523 170.34L-17.34523 170.34L-17.34523 174.0599C -7.235317 174.3899 2.8246 176.4999 12.21451 180.3198C 22.65442 184.5598 32.25433 190.8898 40.30427 198.8197C 48.3542 206.7496 54.83414 216.2996 59.2341 226.7294C 63.65406 237.1594 65.96404 248.4893 66.04404 259.8491C 66.12404 271.209 63.96406 282.599 59.6641 293.1489C 55.39413 303.7087 48.98419 313.4087 40.96426 321.5486C 32.94433 329.6885 23.30441 336.2285 12.75451 340.6884C 3.244592 344.7184 -7.005315 347.0084 -17.34523 347.4884L-17.34523 347.4884L-17.34523 347.5284zM-17.34523 334.9885C -8.635298 334.6685 0.03462158 332.8285 8.144549 329.5386C 17.29447 325.8386 25.7144 320.2986 32.77433 313.3486C 39.83427 306.3987 45.52422 298.0488 49.39418 288.8989C 53.28415 279.749 55.31414 269.8191 55.39413 259.8491C 55.47413 249.8793 53.59415 239.8893 49.82418 230.6194C 46.07421 221.3495 40.46426 212.8296 33.43433 205.6796C 26.40439 198.5297 17.94446 192.7697 8.674544 188.8498C 0.4446167 185.3598 -8.405303 183.3398 -17.35523 182.8798L-17.35523 182.8798L-17.35523 186.5898C -8.885303 186.9098 -0.4653735 188.6998 7.414556 191.8898C 16.33448 195.4998 24.5544 200.8997 31.43435 207.6696C 38.31429 214.4396 43.88424 222.6095 47.6642 231.5294C 51.45417 240.4493 53.44415 250.1293 53.52415 259.8591C 53.60415 269.5891 51.76416 279.329 48.0942 288.3689C 44.43423 297.4088 38.96428 305.7188 32.10434 312.6987C 25.2444 319.6786 16.99447 325.2986 7.954552 329.1185C -0.04538086 332.5185 -8.6553 334.4885 -17.35523 334.9485L-17.35523 334.9485L-17.35523 334.9985L-17.35523 334.9985L-17.34523 334.9885zM-17.34523 322.4486C -10.27529 322.1286 -3.245347 320.6287 3.344597 317.9586C 10.98453 314.8787 18.01446 310.2687 23.91441 304.4888C 29.81436 298.7088 34.57432 291.7389 37.81429 284.0989C 41.07426 276.469 42.78425 268.1791 42.87424 259.8491C 42.96424 251.5192 41.39426 243.1693 38.25428 235.4194C 35.13431 227.6694 30.45435 220.5295 24.57441 214.5496C 18.69446 208.5696 11.63452 203.7296 3.884583 200.4397C -2.825354 197.5797 -10.04529 195.8897 -17.34523 195.4397L-17.34523 195.4397L-17.34523 199.1396C -10.51529 199.4497 -3.735344 200.9097 2.624597 203.4796C 10.03453 206.4596 16.85447 210.9296 22.58442 216.5496C 28.31437 222.1695 32.93433 228.9194 36.0843 236.3293C 39.24428 243.7293 40.91426 251.7792 40.99426 259.8591C 41.07426 267.9391 39.56427 276.049 36.5243 283.569C 33.49432 291.0889 28.95436 298.0188 23.25442 303.8287C 17.55446 309.6387 10.68453 314.3287 3.16459 317.5286C -3.315351 320.2986 -10.28528 321.9386 -17.34523 322.3886L-17.34523 322.3886L-17.34523 322.4486zM-17.34523 309.8987C -11.91527 309.5988 -6.515325 308.4187 -1.455366 306.3787C 4.664582 303.9287 10.30453 300.2488 15.04449 295.6188C 19.78445 290.9889 23.62441 285.429 26.23439 279.309C 28.84437 273.189 30.25435 266.5391 30.33435 259.8591C 30.41435 253.1792 29.17437 246.4593 26.67439 240.2293C 24.17441 233.9994 20.43444 228.2495 15.71448 223.4194C 10.99453 218.5895 5.324575 214.6896 -0.9153735 212.0295C -6.11532 209.7996 -11.69528 208.4396 -17.34523 208.0096L-17.34523 208.0096L-17.34523 211.6996C -12.15527 211.9996 -7.015312 213.1296 -2.175359 215.0696C 3.714595 217.4196 9.154541 220.9595 13.7145 225.4194C 18.27446 229.8794 21.97443 235.2394 24.49441 241.1293C 27.01438 247.0193 28.36437 253.4192 28.45437 259.8591C 28.54437 266.2991 27.34438 272.769 24.9344 278.769C 22.52443 284.7689 18.92446 290.3088 14.38449 294.9689C 9.844534 299.6288 4.37458 303.3888 -1.635366 305.9587C -6.605317 308.0988 -11.93528 309.3987 -17.34523 309.8287L-17.34523 309.8287L-17.34523 309.9087L-17.34523 309.9087L-17.34523 309.8987zM-17.34523 297.3488C -13.55526 297.0688 -9.795293 296.2189 -6.245325 294.8088C -1.635366 292.9889 2.614599 290.2389 6.194568 286.7689C 9.774536 283.299 12.67451 279.119 14.66449 274.509C 16.65447 269.899 17.73446 264.8892 17.81447 259.8491C 17.89446 254.8092 16.97447 249.7292 15.10449 245.0093C 13.2345 240.2893 10.41453 235.9294 6.864562 232.2694C 3.31459 228.6094 -0.9753735 225.6295 -5.695327 223.5895C -9.375293 221.9895 -13.32526 220.9795 -17.33522 220.5695L-17.33522 220.5695L-17.33522 224.2395C -13.78526 224.5195 -10.27529 225.3195 -6.95532 226.6295C -2.575356 228.3594 1.464609 230.9694 4.874582 234.2594C 8.284552 237.5493 11.04452 241.5293 12.94451 245.9093C 14.84449 250.2892 15.86448 255.0492 15.94448 259.8491C 16.02448 264.6491 15.15449 269.4791 13.37451 273.969C 11.59452 278.459 8.924545 282.6089 5.544573 286.0989C 2.164607 289.5889 -1.915356 292.4288 -6.405322 294.3689C -9.865291 295.8688 -13.55526 296.8389 -17.32523 297.2388L-17.32523 297.2388L-17.32523 297.3488L-17.32523 297.3488L-17.34523 297.3488zM-17.34523 284.7689C -15.19524 284.5289 -13.07526 284.0189 -11.04528 283.229C -7.95531 282.0389 -5.095335 280.219 -2.675354 277.909C -0.2553735 275.599 1.714607 272.7991 3.07459 269.7191C 4.434587 266.639 5.184573 263.2592 5.274573 259.8591C 5.34457 256.4592 4.754582 253.0192 3.514592 249.8192C 2.274602 246.6193 0.3846167 243.6493 -2.005364 241.1393C -4.395337 238.6293 -7.305315 236.5994 -10.50529 235.1893C -12.67526 234.2294 -14.98524 233.5694 -17.34523 233.2094L-17.34523 233.2094L-17.34523 236.8293C -15.44524 237.0593 -13.56526 237.5193 -11.76527 238.2194C -8.905305 239.3193 -6.245325 240.9993 -4.005344 243.1293C -1.765364 245.2593 0.07462646 247.8593 1.334612 250.7092C 2.594597 253.5592 3.304592 256.6892 3.384595 259.8491C 3.454592 263.0091 2.914592 266.1991 1.764609 269.1691C 0.6146191 272.139 -1.125366 274.9091 -3.345351 277.239C -5.56533 279.569 -8.2653 281.469 -11.23528 282.7889C -13.17526 283.6489 -15.24524 284.2589 -17.35523 284.5989L-17.35523 284.5989L-17.35523 284.7589L-17.35523 284.7589L-17.34523 284.7689zM-17.34523 272.089C -15.21524 271.599 -13.18526 270.5691 -11.53528 269.0491C -9.005295 266.759 -7.405313 263.3892 -7.255312 259.8591C -7.085317 256.3292 -8.3853 252.6892 -10.86528 249.9993C -12.57527 248.1193 -14.84525 246.7192 -17.34523 245.9993L-17.34523 245.9993L-17.34523 249.5592C -15.70523 249.9993 -14.15525 250.8192 -12.86527 251.9893C -10.68529 253.9392 -9.285293 256.8092 -9.1353 259.8491C -8.965298 262.8892 -10.06529 266.0291 -12.19527 268.3791C -13.56526 269.899 -15.35524 271.0691 -17.34523 271.739L-17.34523 271.739L-17.34523 272.079L-17.34523 272.079L-17.34523 272.089z" /></clipPath><clipPath id="39"><path id="" clip-rule="evenodd" transform="matrix(1 0 0 1 0 0)" d="M0 -0.249939L595.5 -0.249939L595.5 -0.249939L595.5 842.0001L595.5 842.0001L0 842.0001z" /></clipPath><clipPath id="40"><path id="" clip-rule="evenodd" transform="matrix(1 0 0 1 0 0)" d="M82.31999 5.990112L525.84 5.990112L525.84 5.990112L525.84 786.2301L525.84 786.2301L82.31999 786.2301z" /></clipPath><clipPath id="41"><path id="" clip-rule="evenodd" transform="matrix(1 0 0 1 0 0)" d="M83.20388 6.052917L525.7039 6.052917L525.7039 6.052917L525.7039 786.0529L525.7039 786.0529L83.20388 786.0529z" /></clipPath><clipPath id="42"><path id="" clip-rule="evenodd" transform="matrix(1 0 0 1 0 0)" d="M0 -0.249939L595.5 -0.249939L595.5 -0.249939L595.5 842.0001L595.5 842.0001L0 842.0001z" /></clipPath><clipPath id="43"><path id="" clip-rule="evenodd" transform="matrix(1 0 0 1 0 0)" d="M0 -0.249939L595.5 -0.249939L595.5 -0.249939L595.5 842.0001L595.5 842.0001L0 842.0001z" /></clipPath><clipPath id="44"><path id="" clip-rule="evenodd" transform="matrix(1 0 0 1 0 0)" d="M173.8561 450.4052L430.2979 450.4052L430.2979 450.4052L430.2979 539.7237L430.2979 539.7237L173.8561 539.7237z" /></clipPath><clipPath id="45"><path id="" clip-rule="evenodd" transform="matrix(1 0 0 1 0 0)" d="M385.6343 450.4052C 410.2914 450.4052 430.28 470.3998 430.28 495.0645C 430.28 519.729 410.2914 539.7237 385.6343 539.7237L385.6343 539.7237L218.5018 539.7237C 193.8447 539.7237 173.8561 519.729 173.8561 495.0645C 173.8561 470.3998 193.8447 450.4052 218.5018 450.4052L218.5018 450.4052L385.6343 450.4052z" /></clipPath><clipPath id="46"><path id="" clip-rule="evenodd" transform="matrix(1 0 0 1 0 0)" d="M0 -0.249939L595.5 -0.249939L595.5 -0.249939L595.5 842.0001L595.5 842.0001L0 842.0001z" /></clipPath><clipPath id="47"><path id="" clip-rule="evenodd" transform="matrix(1 0 0 1 0 0)" d="M0 -0.249939L595.5 -0.249939L595.5 -0.249939L595.5 842.0001L595.5 842.0001L0 842.0001z" /></clipPath><clipPath id="48"><path id="" clip-rule="evenodd" transform="matrix(1 0 0 1 0 0)" d="M0 -0.249939L595.5 -0.249939L595.5 -0.249939L595.5 842.0001L595.5 842.0001L0 842.0001z" /></clipPath><clipPath id="49"><path id="" clip-rule="evenodd" transform="matrix(1 0 0 1 0 0)" d="M173.2573 549.8316L429.6991 549.8316L429.6991 549.8316L429.6991 639.1501L429.6991 639.1501L173.2573 639.1501z" /></clipPath><clipPath id="50"><path id="" clip-rule="evenodd" transform="matrix(1 0 0 1 0 0)" d="M385.0355 549.8316C 409.6927 549.8316 429.6812 569.8263 429.6812 594.4909C 429.6812 619.1555 409.6927 639.1501 385.0355 639.1501L385.0355 639.1501L217.903 639.1501C 193.2459 639.1501 173.2573 619.1555 173.2573 594.4909C 173.2573 569.8263 193.2459 549.8316 217.903 549.8316L217.903 549.8316L385.0355 549.8316z" /></clipPath><clipPath id="51"><path id="" clip-rule="evenodd" transform="matrix(1 0 0 1 0 0)" d="M0 -0.249939L595.5 -0.249939L595.5 -0.249939L595.5 842.0001L595.5 842.0001L0 842.0001z" /></clipPath><clipPath id="52"><path id="" clip-rule="evenodd" transform="matrix(1 0 0 1 0 0)" d="M0 -0.249939L595.5 -0.249939L595.5 -0.249939L595.5 842.0001L595.5 842.0001L0 842.0001z" /></clipPath><clipPath id="53"><path id="" clip-rule="evenodd" transform="matrix(1 0 0 1 0 0)" d="M0 -0.249939L595.5 -0.249939L595.5 -0.249939L595.5 842.0001L595.5 842.0001L0 842.0001z" /></clipPath><clipPath id="54"><path id="" clip-rule="evenodd" transform="matrix(1 0 0 1 0 0)" d="M173.2573 648.5564L429.6991 648.5564L429.6991 648.5564L429.6991 737.8749L429.6991 737.8749L173.2573 737.8749z" /></clipPath><clipPath id="55"><path id="" clip-rule="evenodd" transform="matrix(1 0 0 1 0 0)" d="M385.0355 648.5564C 409.6927 648.5564 429.6812 668.5511 429.6812 693.2157C 429.6812 717.8803 409.6927 737.8749 385.0355 737.8749L385.0355 737.8749L217.903 737.8749C 193.2459 737.8749 173.2573 717.8803 173.2573 693.2157C 173.2573 668.5511 193.2459 648.5564 217.903 648.5564L217.903 648.5564L385.0355 648.5564z" /></clipPath><clipPath id="56"><path id="" clip-rule="evenodd" transform="matrix(1 0 0 1 0 0)" d="M0 -0.249939L595.5 -0.249939L595.5 -0.249939L595.5 842.0001L595.5 842.0001L0 842.0001z" /></clipPath><clipPath id="57"><path id="" clip-rule="evenodd" transform="matrix(1 0 0 1 0 0)" d="M0 -0.249939L595.5 -0.249939L595.5 -0.249939L595.5 842.0001L595.5 842.0001L0 842.0001z" /></clipPath><clipPath id="58"><path id="" clip-rule="evenodd" transform="matrix(1 0 0 1 0 0)" d="M0 -0.249939L595.5 -0.249939L595.5 -0.249939L595.5 842.0001L595.5 842.0001L0 842.0001z" /></clipPath><clipPath id="59"><path id="" clip-rule="evenodd" transform="matrix(1 0 0 1 0 0)" d="M0 -108.2745L170.25 -108.2745L170.25 -108.2745L170.25 61.97546L170.25 61.97546L0 61.97546z" /></clipPath><clipPath id="60"><path id="" clip-rule="evenodd" transform="matrix(1 0 0 1 0 0)" d="M0 -33.27454L0 -13.48804C 0 27.93329 33.57864 61.51196 75 61.51196L75 61.51196L94.7865 61.51196C 136.2079 61.51196 169.7865 27.93329 169.7865 -13.48804L169.7865 -13.48804L169.7865 -33.27454C 169.7865 -74.69592 136.2079 -108.2745 94.7865 -108.2745L94.7865 -108.2745L75 -108.2745C 33.57864 -108.2745 0 -74.69592 0 -33.27454z" /></clipPath><clipPath id="61"><path id="" clip-rule="evenodd" transform="matrix(1 0 0 1 0 0)" d="M0.75 -107.5245L169.5 -107.5245L169.5 -107.5245L169.5 61.22546L169.5 61.22546L0.75 61.22546z" /></clipPath><clipPath id="62"><path id="" clip-rule="evenodd" transform="matrix(1 0 0 1 0 0)" d="M75.9 -107.3746L93.8865 -107.3746C 135.3078 -107.3746 168.8865 -73.7959 168.8865 -32.37457L168.8865 -32.37457L168.8865 -14.38806C 168.8865 27.03333 135.3078 60.61194 93.8865 60.61194L93.8865 60.61194L75.9 60.61194C 34.47864 60.61194 0.9 27.03333 0.9 -14.38806L0.9 -14.38806L0.9 -32.37457C 0.9 -73.7959 34.47864 -107.3746 75.9 -107.3746z" /></clipPath><clipPath id="63"><path id="" clip-rule="evenodd" transform="matrix(1 0 0 1 0 0)" d="M0 -108.2745L169.5 -108.2745L169.5 -108.2745L169.5 61.22546L169.5 61.22546L0 61.22546z" /></clipPath><clipPath id="64"><path id="" clip-rule="evenodd" transform="matrix(1 0 0 1 0 0)" d="M0.72 -0.249939L168.96 -0.249939L168.96 -0.249939L168.96 60.71008L168.96 60.71008L0.72 60.71008z" /></clipPath><mask id="m5"><clipPath id="65"><path id="" clip-rule="evenodd" transform="matrix(1 0 0 1 0 0)" d="M0.72 -0.249939L168.96 -0.249939L168.96 -0.249939L168.96 60.71008L168.96 60.71008L0.72 60.71008z" /></clipPath><g><g><g clip-path="url(#65)"><path id="72" transform="matrix(1 0 0 -1 0 842)" d="M0.72 842.2499L168.96 842.2499L168.96 781.2899L0.72 781.2899z" stroke="none" fill="#000000" fill-rule="nonzero" /></g></g></g></mask><clipPath id="66"><path id="" clip-rule="evenodd" transform="matrix(1 0 0 1 0 0)" d="M0.72 -0.249939L168.96 -0.249939L168.96 -0.249939L168.96 60.71008L168.96 60.71008L0.72 60.71008z" /></clipPath><clipPath id="67"><path id="" clip-rule="evenodd" transform="matrix(1 0 0 1 0 0)" d="M0.48 -0.4899292L169.2 -0.4899292L169.2 -0.4899292L169.2 60.95007L169.2 60.95007L0.48 60.95007z" /></clipPath><mask id="m6"><clipPath id="68"><path id="" clip-rule="evenodd" transform="matrix(1 0 0 1 0 0)" d="M0.72 -0.249939L168.96 -0.249939L168.96 -0.249939L168.96 60.71008L168.96 60.71008L0.72 60.71008z" /></clipPath><clipPath id="69"><path id="" clip-rule="evenodd" transform="matrix(1 0 0 1 0 0)" d="M0.72 -0.249939L168.96 -0.249939L168.96 -0.249939L168.96 60.71008L168.96 60.71008L0.72 60.71008z" /></clipPath><mask id="m7"><clipPath id="70"><path id="" clip-rule="evenodd" transform="matrix(1 0 0 1 0 0)" d="M0.72 -0.249939L168.96 -0.249939L168.96 -0.249939L168.96 60.71008L168.96 60.71008L0.72 60.71008z" /></clipPath><g><g><g clip-path="url(#70)"><path id="74" transform="matrix(1 0 0 -1 0 842)" d="M0.72 842.2499L168.96 842.2499L168.96 781.2899L0.72 781.2899z" stroke="none" fill="#000000" fill-rule="nonzero" /></g></g></g></mask><clipPath id="71"><path id="" clip-rule="evenodd" transform="matrix(1 0 0 1 0 0)" d="M0.72 -0.249939L168.96 -0.249939L168.96 -0.249939L168.96 60.71008L168.96 60.71008L0.72 60.71008z" /></clipPath><mask id="m8"><clipPath id="72"><path id="" clip-rule="evenodd" transform="matrix(1 0 0 1 0 0)" d="M0.72 -0.249939L168.96 -0.249939L168.96 -0.249939L168.96 60.71008L168.96 60.71008L0.72 60.71008z" /></clipPath><g><g><g clip-path="url(#72)"><path id="75" transform="matrix(1 0 0 -1 0 842)" d="M0.72 842.2499L168.96 842.2499L168.96 781.2899L0.72 781.2899z" stroke="none" fill="#000000" fill-rule="nonzero" /></g></g></g></mask><clipPath id="73"><path id="" clip-rule="evenodd" transform="matrix(1 0 0 1 0 0)" d="M0.72 -0.249939L168.96 -0.249939L168.96 -0.249939L168.96 60.71008L168.96 60.71008L0.72 60.71008z" /></clipPath><mask id="m9"><clipPath id="74"><path id="" clip-rule="evenodd" transform="matrix(1 0 0 1 0 0)" d="M0.72 -0.249939L168.96 -0.249939L168.96 -0.249939L168.96 60.71008L168.96 60.71008L0.72 60.71008z" /></clipPath><g><g><g clip-path="url(#74)"><path id="76" transform="matrix(1 0 0 -1 0 842)" d="M0.72 842.2499L168.96 842.2499L168.96 781.2899L0.72 781.2899z" stroke="none" fill="#000000" fill-rule="nonzero" /></g></g></g></mask><clipPath id="75"><path id="" clip-rule="evenodd" transform="matrix(1 0 0 1 0 0)" d="M0.72 -0.249939L168.96 -0.249939L168.96 -0.249939L168.96 60.71008L168.96 60.71008L0.72 60.71008z" /></clipPath><mask id="m10"><clipPath id="76"><path id="" clip-rule="evenodd" transform="matrix(1 0 0 1 0 0)" d="M0.72 -0.249939L168.96 -0.249939L168.96 -0.249939L168.96 60.71008L168.96 60.71008L0.72 60.71008z" /></clipPath><g><g><g clip-path="url(#76)"><path id="77" transform="matrix(1 0 0 -1 0 842)" d="M0.72 842.2499L168.96 842.2499L168.96 781.2899L0.72 781.2899z" stroke="none" fill="#000000" fill-rule="nonzero" /></g></g></g></mask><clipPath id="77"><path id="" clip-rule="evenodd" transform="matrix(1 0 0 1 0 0)" d="M0.72 -0.249939L168.96 -0.249939L168.96 -0.249939L168.96 60.71008L168.96 60.71008L0.72 60.71008z" /></clipPath><mask id="m11"><clipPath id="78"><path id="" clip-rule="evenodd" transform="matrix(1 0 0 1 0 0)" d="M0.72 -0.249939L168.96 -0.249939L168.96 -0.249939L168.96 60.71008L168.96 60.71008L0.72 60.71008z" /></clipPath><clipPath id="79"><path id="" clip-rule="evenodd" transform="matrix(1 0 0 1 0 0)" d="M0.72 -0.249939L168.96 -0.249939L168.96 -0.249939L168.96 60.71008L168.96 60.71008L0.72 60.71008z" /></clipPath><g><g><g clip-path="url(#78)"><g><g clip-path="url(#79)"><path id="79" transform="matrix(1 0 0 -1 0 842)" d="M-1.490116E-08 950.2745L169.7813 950.2745L169.7813 780.4933L-1.490116E-08 780.4933z" stroke="none" fill="#000000" fill-rule="nonzero" /></g></g></g></g></g></mask><clipPath id="80"><path id="" clip-rule="evenodd" transform="matrix(1 0 0 1 0 0)" d="M0.72 -0.249939L168.96 -0.249939L168.96 -0.249939L168.96 60.71008L168.96 60.71008L0.72 60.71008z" /></clipPath><mask id="m12"><clipPath id="81"><path id="" clip-rule="evenodd" transform="matrix(1 0 0 1 0 0)" d="M0.72 -0.249939L168.96 -0.249939L168.96 -0.249939L168.96 60.71008L168.96 60.71008L0.72 60.71008z" /></clipPath><clipPath id="82"><path id="" clip-rule="evenodd" transform="matrix(1 0 0 1 0 0)" d="M0.72 -0.249939L168.96 -0.249939L168.96 -0.249939L168.96 60.71008L168.96 60.71008L0.72 60.71008z" /></clipPath><g><g><g clip-path="url(#81)"><g><g clip-path="url(#82)"><path id="81" transform="matrix(1 0 0 -1 0 842)" d="M84.88563 865.3889L680.355 865.3889L680.355 23.18219L84.88563 23.18219z" stroke="none" fill="#000000" fill-rule="nonzero" /></g></g></g></g></g></mask><clipPath id="83"><path id="" clip-rule="evenodd" transform="matrix(1 0 0 1 0 0)" d="M0.72 -0.249939L168.96 -0.249939L168.96 -0.249939L168.96 60.71008L168.96 60.71008L0.72 60.71008z" /></clipPath><mask id="m13"><clipPath id="84"><path id="" clip-rule="evenodd" transform="matrix(1 0 0 1 0 0)" d="M0.72 -0.249939L168.96 -0.249939L168.96 -0.249939L168.96 60.71008L168.96 60.71008L0.72 60.71008z" /></clipPath><g><g><g clip-path="url(#84)"><path id="82" transform="matrix(1 0 0 -1 0 842)" d="M0.72 842.2499L168.96 842.2499L168.96 781.2899L0.72 781.2899z" stroke="none" fill="#000000" fill-rule="nonzero" /></g></g></g></mask><clipPath id="85"><path id="" clip-rule="evenodd" transform="matrix(1 0 0 1 0 0)" d="M0.72 -0.249939L168.96 -0.249939L168.96 -0.249939L168.96 60.71008L168.96 60.71008L0.72 60.71008z" /></clipPath><mask id="m14"><clipPath id="86"><path id="" clip-rule="evenodd" transform="matrix(1 0 0 1 0 0)" d="M0.72 -0.249939L168.96 -0.249939L168.96 -0.249939L168.96 60.71008L168.96 60.71008L0.72 60.71008z" /></clipPath><clipPath id="87"><path id="" clip-rule="evenodd" transform="matrix(1 0 0 1 0 0)" d="M0.72 -0.249939L168.96 -0.249939L168.96 -0.249939L168.96 60.71008L168.96 60.71008L0.72 60.71008z" /></clipPath><g><g><g clip-path="url(#86)"><g><g clip-path="url(#87)"><path id="84" transform="matrix(1 0 0 -1 0 842)" d="M-1.490116E-08 950.2745L169.7813 950.2745L169.7813 780.4933L-1.490116E-08 780.4933z" stroke="none" fill="#000000" fill-rule="nonzero" /></g></g></g></g></g></mask><clipPath id="88"><path id="" clip-rule="evenodd" transform="matrix(1 0 0 1 0 0)" d="M0.72 -0.249939L168.96 -0.249939L168.96 -0.249939L168.96 60.71008L168.96 60.71008L0.72 60.71008z" /></clipPath><mask id="m15"><clipPath id="89"><path id="" clip-rule="evenodd" transform="matrix(1 0 0 1 0 0)" d="M0.72 -0.249939L168.96 -0.249939L168.96 -0.249939L168.96 60.71008L168.96 60.71008L0.72 60.71008z" /></clipPath><clipPath id="90"><path id="" clip-rule="evenodd" transform="matrix(1 0 0 1 0 0)" d="M0.72 -0.249939L168.96 -0.249939L168.96 -0.249939L168.96 60.71008L168.96 60.71008L0.72 60.71008z" /></clipPath><g><g><g clip-path="url(#89)"><g><g clip-path="url(#90)"><path id="86" transform="matrix(1 0 0 -1 0 842)" d="M84.88563 865.3889L680.355 865.3889L680.355 23.18219L84.88563 23.18219z" stroke="none" fill="#000000" fill-rule="nonzero" /></g></g></g></g></g></mask><clipPath id="91"><path id="" clip-rule="evenodd" transform="matrix(1 0 0 1 0 0)" d="M0.72 -0.249939L168.96 -0.249939L168.96 -0.249939L168.96 60.71008L168.96 60.71008L0.72 60.71008z" /></clipPath><mask id="m16"><clipPath id="92"><path id="" clip-rule="evenodd" transform="matrix(1 0 0 1 0 0)" d="M0.72 -0.249939L168.96 -0.249939L168.96 -0.249939L168.96 60.71008L168.96 60.71008L0.72 60.71008z" /></clipPath><g><g><g clip-path="url(#92)"><path id="87" transform="matrix(1 0 0 -1 0 842)" d="M0.72 842.2499L168.96 842.2499L168.96 781.2899L0.72 781.2899z" stroke="none" fill="#000000" fill-rule="nonzero" /></g></g></g></mask><clipPath id="93"><path id="" clip-rule="evenodd" transform="matrix(1 0 0 1 0 0)" d="M0.72 -0.249939L168.96 -0.249939L168.96 -0.249939L168.96 60.71008L168.96 60.71008L0.72 60.71008z" /></clipPath><mask id="m17"><clipPath id="94"><path id="" clip-rule="evenodd" transform="matrix(1 0 0 1 0 0)" d="M0.72 -0.249939L168.96 -0.249939L168.96 -0.249939L168.96 60.71008L168.96 60.71008L0.72 60.71008z" /></clipPath><g><g><g clip-path="url(#94)"><path id="88" transform="matrix(1 0 0 -1 0 842)" d="M0.72 842.2499L168.96 842.2499L168.96 781.2899L0.72 781.2899z" stroke="none" fill="#000000" fill-rule="nonzero" /></g></g></g></mask><clipPath id="95"><path id="" clip-rule="evenodd" transform="matrix(1 0 0 1 0 0)" d="M0.72 -0.249939L168.96 -0.249939L168.96 -0.249939L168.96 60.71008L168.96 60.71008L0.72 60.71008z" /></clipPath><mask id="m18"><clipPath id="96"><path id="" clip-rule="evenodd" transform="matrix(1 0 0 1 0 0)" d="M0.72 -0.249939L168.96 -0.249939L168.96 -0.249939L168.96 60.71008L168.96 60.71008L0.72 60.71008z" /></clipPath><clipPath id="97"><path id="" clip-rule="evenodd" transform="matrix(1 0 0 1 0 0)" d="M0.72 -0.249939L168.96 -0.249939L168.96 -0.249939L168.96 60.71008L168.96 60.71008L0.72 60.71008z" /></clipPath><g><g><g clip-path="url(#96)"><g><g clip-path="url(#97)"><path id="90" transform="matrix(1 0 0 -1 0 842)" d="M-1.490116E-08 950.2745L169.7813 950.2745L169.7813 780.4933L-1.490116E-08 780.4933z" stroke="none" fill="#000000" fill-rule="nonzero" /></g></g></g></g></g></mask><clipPath id="98"><path id="" clip-rule="evenodd" transform="matrix(1 0 0 1 0 0)" d="M0.72 -0.249939L168.96 -0.249939L168.96 -0.249939L168.96 60.71008L168.96 60.71008L0.72 60.71008z" /></clipPath><mask id="m19"><clipPath id="99"><path id="" clip-rule="evenodd" transform="matrix(1 0 0 1 0 0)" d="M0.72 -0.249939L168.96 -0.249939L168.96 -0.249939L168.96 60.71008L168.96 60.71008L0.72 60.71008z" /></clipPath><clipPath id="100"><path id="" clip-rule="evenodd" transform="matrix(1 0 0 1 0 0)" d="M0.72 -0.249939L168.96 -0.249939L168.96 -0.249939L168.96 60.71008L168.96 60.71008L0.72 60.71008z" /></clipPath><g><g><g clip-path="url(#99)"><g><g clip-path="url(#100)"><path id="92" transform="matrix(1 0 0 -1 0 842)" d="M84.88563 865.3889L680.355 865.3889L680.355 23.18219L84.88563 23.18219z" stroke="none" fill="#000000" fill-rule="nonzero" /></g></g></g></g></g></mask><clipPath id="101"><path id="" clip-rule="evenodd" transform="matrix(1 0 0 1 0 0)" d="M0.72 -0.249939L168.96 -0.249939L168.96 -0.249939L168.96 60.71008L168.96 60.71008L0.72 60.71008z" /></clipPath><mask id="m20"><clipPath id="102"><path id="" clip-rule="evenodd" transform="matrix(1 0 0 1 0 0)" d="M0.72 -0.249939L168.96 -0.249939L168.96 -0.249939L168.96 60.71008L168.96 60.71008L0.72 60.71008z" /></clipPath><g><g><g clip-path="url(#102)"><path id="93" transform="matrix(1 0 0 -1 0 842)" d="M0.72 842.2499L168.96 842.2499L168.96 781.2899L0.72 781.2899z" stroke="none" fill="#000000" fill-rule="nonzero" /></g></g></g></mask><clipPath id="103"><path id="" clip-rule="evenodd" transform="matrix(1 0 0 1 0 0)" d="M0.72 -0.249939L168.96 -0.249939L168.96 -0.249939L168.96 60.71008L168.96 60.71008L0.72 60.71008z" /></clipPath><mask id="m21"><clipPath id="104"><path id="" clip-rule="evenodd" transform="matrix(1 0 0 1 0 0)" d="M0.72 -0.249939L168.96 -0.249939L168.96 -0.249939L168.96 60.71008L168.96 60.71008L0.72 60.71008z" /></clipPath><clipPath id="105"><path id="" clip-rule="evenodd" transform="matrix(1 0 0 1 0 0)" d="M0.72 -0.249939L168.96 -0.249939L168.96 -0.249939L168.96 60.71008L168.96 60.71008L0.72 60.71008z" /></clipPath><g><g><g clip-path="url(#104)"><g><g clip-path="url(#105)"><path id="95" transform="matrix(1 0 0 -1 0 842)" d="M-1.490116E-08 950.2745L169.7813 950.2745L169.7813 780.4933L-1.490116E-08 780.4933z" stroke="none" fill="#000000" fill-rule="nonzero" /></g></g></g></g></g></mask><clipPath id="106"><path id="" clip-rule="evenodd" transform="matrix(1 0 0 1 0 0)" d="M0.72 -0.249939L168.96 -0.249939L168.96 -0.249939L168.96 60.71008L168.96 60.71008L0.72 60.71008z" /></clipPath><mask id="m22"><clipPath id="107"><path id="" clip-rule="evenodd" transform="matrix(1 0 0 1 0 0)" d="M0.72 -0.249939L168.96 -0.249939L168.96 -0.249939L168.96 60.71008L168.96 60.71008L0.72 60.71008z" /></clipPath><clipPath id="108"><path id="" clip-rule="evenodd" transform="matrix(1 0 0 1 0 0)" d="M0.72 -0.249939L168.96 -0.249939L168.96 -0.249939L168.96 60.71008L168.96 60.71008L0.72 60.71008z" /></clipPath><clipPath id="109"><path id="" clip-rule="evenodd" transform="matrix(1 0 0 1 0 0)" d="M84.88564 -0.4899292L169.2 -0.4899292L169.2 -0.4899292L169.2 60.95007L169.2 60.95007L84.88564 60.95007z" /></clipPath><g><g><g clip-path="url(#107)"><g><g clip-path="url(#108)"><g clip-path="url(#109)"><path id="97" transform="matrix(1 0 0 -1 0 842)" d="M84.88563 23.18219L680.355 23.18219L680.355 865.3889L84.88563 865.3889L84.88563 23.18219z" stroke="none" fill="#000000" fill-rule="nonzero" /></g></g></g></g></g></g></mask><clipPath id="110"><path id="" clip-rule="evenodd" transform="matrix(1 0 0 1 0 0)" d="M0.72 -0.249939L168.96 -0.249939L168.96 -0.249939L168.96 60.71008L168.96 60.71008L0.72 60.71008z" /></clipPath><mask id="m23"><clipPath id="111"><path id="" clip-rule="evenodd" transform="matrix(1 0 0 1 0 0)" d="M0.72 -0.249939L168.96 -0.249939L168.96 -0.249939L168.96 60.71008L168.96 60.71008L0.72 60.71008z" /></clipPath><g><g><g clip-path="url(#111)"><path id="98" transform="matrix(1 0 0 -1 0 842)" d="M0.72 842.2499L168.96 842.2499L168.96 781.2899L0.72 781.2899z" stroke="none" fill="#000000" fill-rule="nonzero" /></g></g></g></mask><clipPath id="112"><path id="" clip-rule="evenodd" transform="matrix(1 0 0 1 0 0)" d="M0.72 -0.249939L168.96 -0.249939L168.96 -0.249939L168.96 60.71008L168.96 60.71008L0.72 60.71008z" /></clipPath><mask id="m24"><clipPath id="113"><path id="" clip-rule="evenodd" transform="matrix(1 0 0 1 0 0)" d="M0.72 -0.249939L168.96 -0.249939L168.96 -0.249939L168.96 60.71008L168.96 60.71008L0.72 60.71008z" /></clipPath><g><g><g clip-path="url(#113)"><path id="99" transform="matrix(1 0 0 -1 0 842)" d="M0.72 842.2499L168.96 842.2499L168.96 781.2899L0.72 781.2899z" stroke="none" fill="#000000" fill-rule="nonzero" /></g></g></g></mask><clipPath id="114"><path id="" clip-rule="evenodd" transform="matrix(1 0 0 1 0 0)" d="M0.72 -0.249939L168.96 -0.249939L168.96 -0.249939L168.96 60.71008L168.96 60.71008L0.72 60.71008z" /></clipPath><mask id="m25"><clipPath id="115"><path id="" clip-rule="evenodd" transform="matrix(1 0 0 1 0 0)" d="M0.72 -0.249939L168.96 -0.249939L168.96 -0.249939L168.96 60.71008L168.96 60.71008L0.72 60.71008z" /></clipPath><g><g><g clip-path="url(#115)"><path id="100" transform="matrix(1 0 0 -1 0 842)" d="M0.72 842.2499L168.96 842.2499L168.96 781.2899L0.72 781.2899z" stroke="none" fill="#000000" fill-rule="nonzero" /></g></g></g></mask><clipPath id="116"><path id="" clip-rule="evenodd" transform="matrix(1 0 0 1 0 0)" d="M0.72 -0.249939L168.96 -0.249939L168.96 -0.249939L168.96 60.71008L168.96 60.71008L0.72 60.71008z" /></clipPath><mask id="m26"><clipPath id="117"><path id="" clip-rule="evenodd" transform="matrix(1 0 0 1 0 0)" d="M0.72 -0.249939L168.96 -0.249939L168.96 -0.249939L168.96 60.71008L168.96 60.71008L0.72 60.71008z" /></clipPath><clipPath id="118"><path id="" clip-rule="evenodd" transform="matrix(1 0 0 1 0 0)" d="M0.72 -0.249939L168.96 -0.249939L168.96 -0.249939L168.96 60.71008L168.96 60.71008L0.72 60.71008z" /></clipPath><g><g><g clip-path="url(#117)"><g><g clip-path="url(#118)"><path id="102" transform="matrix(1 0 0 -1 0 842)" d="M-1.490116E-08 950.2745L169.7813 950.2745L169.7813 780.4933L-1.490116E-08 780.4933z" stroke="none" fill="#000000" fill-rule="nonzero" /></g></g></g></g></g></mask><clipPath id="119"><path id="" clip-rule="evenodd" transform="matrix(1 0 0 1 0 0)" d="M0.72 -0.249939L168.96 -0.249939L168.96 -0.249939L168.96 60.71008L168.96 60.71008L0.72 60.71008z" /></clipPath><mask id="m27"><clipPath id="120"><path id="" clip-rule="evenodd" transform="matrix(1 0 0 1 0 0)" d="M0.72 -0.249939L168.96 -0.249939L168.96 -0.249939L168.96 60.71008L168.96 60.71008L0.72 60.71008z" /></clipPath><clipPath id="121"><path id="" clip-rule="evenodd" transform="matrix(1 0 0 1 0 0)" d="M0.72 -0.249939L168.96 -0.249939L168.96 -0.249939L168.96 60.71008L168.96 60.71008L0.72 60.71008z" /></clipPath><g><g><g clip-path="url(#120)"><g><g clip-path="url(#121)"><path id="104" transform="matrix(1 0 0 -1 0 842)" d="M84.88563 865.3889L680.355 865.3889L680.355 23.18219L84.88563 23.18219z" stroke="none" fill="#000000" fill-rule="nonzero" /></g></g></g></g></g></mask><clipPath id="122"><path id="" clip-rule="evenodd" transform="matrix(1 0 0 1 0 0)" d="M0.72 -0.249939L168.96 -0.249939L168.96 -0.249939L168.96 60.71008L168.96 60.71008L0.72 60.71008z" /></clipPath><mask id="m28"><clipPath id="123"><path id="" clip-rule="evenodd" transform="matrix(1 0 0 1 0 0)" d="M0.72 -0.249939L168.96 -0.249939L168.96 -0.249939L168.96 60.71008L168.96 60.71008L0.72 60.71008z" /></clipPath><g><g><g clip-path="url(#123)"><path id="105" transform="matrix(1 0 0 -1 0 842)" d="M0.72 842.2499L168.96 842.2499L168.96 781.2899L0.72 781.2899z" stroke="none" fill="#000000" fill-rule="nonzero" /></g></g></g></mask><clipPath id="124"><path id="" clip-rule="evenodd" transform="matrix(1 0 0 1 0 0)" d="M0.72 -0.249939L168.96 -0.249939L168.96 -0.249939L168.96 60.71008L168.96 60.71008L0.72 60.71008z" /></clipPath><mask id="m29"><clipPath id="125"><path id="" clip-rule="evenodd" transform="matrix(1 0 0 1 0 0)" d="M0.72 -0.249939L168.96 -0.249939L168.96 -0.249939L168.96 60.71008L168.96 60.71008L0.72 60.71008z" /></clipPath><clipPath id="126"><path id="" clip-rule="evenodd" transform="matrix(1 0 0 1 0 0)" d="M0.72 -0.249939L168.96 -0.249939L168.96 -0.249939L168.96 60.71008L168.96 60.71008L0.72 60.71008z" /></clipPath><g><g><g clip-path="url(#125)"><g><g clip-path="url(#126)"><path id="107" transform="matrix(1 0 0 -1 0 842)" d="M-1.490116E-08 950.2745L169.7813 950.2745L169.7813 780.4933L-1.490116E-08 780.4933z" stroke="none" fill="#000000" fill-rule="nonzero" /></g></g></g></g></g></mask><clipPath id="127"><path id="" clip-rule="evenodd" transform="matrix(1 0 0 1 0 0)" d="M0.72 -0.249939L168.96 -0.249939L168.96 -0.249939L168.96 60.71008L168.96 60.71008L0.72 60.71008z" /></clipPath><mask id="m30"><clipPath id="128"><path id="" clip-rule="evenodd" transform="matrix(1 0 0 1 0 0)" d="M0.72 -0.249939L168.96 -0.249939L168.96 -0.249939L168.96 60.71008L168.96 60.71008L0.72 60.71008z" /></clipPath><clipPath id="129"><path id="" clip-rule="evenodd" transform="matrix(1 0 0 1 0 0)" d="M0.72 -0.249939L168.96 -0.249939L168.96 -0.249939L168.96 60.71008L168.96 60.71008L0.72 60.71008z" /></clipPath><g><g><g clip-path="url(#128)"><g><g clip-path="url(#129)"><path id="109" transform="matrix(1 0 0 -1 0 842)" d="M84.88563 865.3889L680.355 865.3889L680.355 23.18219L84.88563 23.18219z" stroke="none" fill="#000000" fill-rule="nonzero" /></g></g></g></g></g></mask><clipPath id="130"><path id="" clip-rule="evenodd" transform="matrix(1 0 0 1 0 0)" d="M0.72 -0.249939L168.96 -0.249939L168.96 -0.249939L168.96 60.71008L168.96 60.71008L0.72 60.71008z" /></clipPath><mask id="m31"><clipPath id="131"><path id="" clip-rule="evenodd" transform="matrix(1 0 0 1 0 0)" d="M0.72 -0.249939L168.96 -0.249939L168.96 -0.249939L168.96 60.71008L168.96 60.71008L0.72 60.71008z" /></clipPath><g><g><g clip-path="url(#131)"><path id="110" transform="matrix(1 0 0 -1 0 842)" d="M0.72 842.2499L168.96 842.2499L168.96 781.2899L0.72 781.2899z" stroke="none" fill="#000000" fill-rule="nonzero" /></g></g></g></mask><clipPath id="132"><path id="" clip-rule="evenodd" transform="matrix(1 0 0 1 0 0)" d="M0.72 -0.249939L168.96 -0.249939L168.96 -0.249939L168.96 60.71008L168.96 60.71008L0.72 60.71008z" /></clipPath><mask id="m32"><clipPath id="133"><path id="" clip-rule="evenodd" transform="matrix(1 0 0 1 0 0)" d="M0.72 -0.249939L168.96 -0.249939L168.96 -0.249939L168.96 60.71008L168.96 60.71008L0.72 60.71008z" /></clipPath><g><g><g clip-path="url(#133)"><path id="111" transform="matrix(1 0 0 -1 0 842)" d="M0.72 842.2499L168.96 842.2499L168.96 781.2899L0.72 781.2899z" stroke="none" fill="#000000" fill-rule="nonzero" /></g></g></g></mask><clipPath id="134"><path id="" clip-rule="evenodd" transform="matrix(1 0 0 1 0 0)" d="M0.72 -0.249939L168.96 -0.249939L168.96 -0.249939L168.96 60.71008L168.96 60.71008L0.72 60.71008z" /></clipPath><mask id="m33"><clipPath id="135"><path id="" clip-rule="evenodd" transform="matrix(1 0 0 1 0 0)" d="M0.72 -0.249939L168.96 -0.249939L168.96 -0.249939L168.96 60.71008L168.96 60.71008L0.72 60.71008z" /></clipPath><clipPath id="136"><path id="" clip-rule="evenodd" transform="matrix(1 0 0 1 0 0)" d="M0.72 -0.249939L168.96 -0.249939L168.96 -0.249939L168.96 60.71008L168.96 60.71008L0.72 60.71008z" /></clipPath><g><g><g clip-path="url(#135)"><g><g clip-path="url(#136)"><path id="113" transform="matrix(1 0 0 -1 0 842)" d="M-1.490116E-08 950.2745L169.7813 950.2745L169.7813 780.4933L-1.490116E-08 780.4933z" stroke="none" fill="#000000" fill-rule="nonzero" /></g></g></g></g></g></mask><clipPath id="137"><path id="" clip-rule="evenodd" transform="matrix(1 0 0 1 0 0)" d="M0.72 -0.249939L168.96 -0.249939L168.96 -0.249939L168.96 60.71008L168.96 60.71008L0.72 60.71008z" /></clipPath><mask id="m34"><clipPath id="138"><path id="" clip-rule="evenodd" transform="matrix(1 0 0 1 0 0)" d="M0.72 -0.249939L168.96 -0.249939L168.96 -0.249939L168.96 60.71008L168.96 60.71008L0.72 60.71008z" /></clipPath><clipPath id="139"><path id="" clip-rule="evenodd" transform="matrix(1 0 0 1 0 0)" d="M0.72 -0.249939L168.96 -0.249939L168.96 -0.249939L168.96 60.71008L168.96 60.71008L0.72 60.71008z" /></clipPath><g><g><g clip-path="url(#138)"><g><g clip-path="url(#139)"><path id="115" transform="matrix(1 0 0 -1 0 842)" d="M84.88563 865.3889L680.355 865.3889L680.355 23.18219L84.88563 23.18219z" stroke="none" fill="#000000" fill-rule="nonzero" /></g></g></g></g></g></mask><clipPath id="140"><path id="" clip-rule="evenodd" transform="matrix(1 0 0 1 0 0)" d="M0.72 -0.249939L168.96 -0.249939L168.96 -0.249939L168.96 60.71008L168.96 60.71008L0.72 60.71008z" /></clipPath><mask id="m35"><clipPath id="141"><path id="" clip-rule="evenodd" transform="matrix(1 0 0 1 0 0)" d="M0.72 -0.249939L168.96 -0.249939L168.96 -0.249939L168.96 60.71008L168.96 60.71008L0.72 60.71008z" /></clipPath><g><g><g clip-path="url(#141)"><path id="116" transform="matrix(1 0 0 -1 0 842)" d="M0.72 842.2499L168.96 842.2499L168.96 781.2899L0.72 781.2899z" stroke="none" fill="#000000" fill-rule="nonzero" /></g></g></g></mask><clipPath id="142"><path id="" clip-rule="evenodd" transform="matrix(1 0 0 1 0 0)" d="M0.72 -0.249939L168.96 -0.249939L168.96 -0.249939L168.96 60.71008L168.96 60.71008L0.72 60.71008z" /></clipPath><mask id="m36"><clipPath id="143"><path id="" clip-rule="evenodd" transform="matrix(1 0 0 1 0 0)" d="M0.72 -0.249939L168.96 -0.249939L168.96 -0.249939L168.96 60.71008L168.96 60.71008L0.72 60.71008z" /></clipPath><clipPath id="144"><path id="" clip-rule="evenodd" transform="matrix(1 0 0 1 0 0)" d="M0.72 -0.249939L168.96 -0.249939L168.96 -0.249939L168.96 60.71008L168.96 60.71008L0.72 60.71008z" /></clipPath><g><g><g clip-path="url(#143)"><g><g clip-path="url(#144)"><path id="118" transform="matrix(1 0 0 -1 0 842)" d="M-1.490116E-08 950.2745L169.7813 950.2745L169.7813 780.4933L-1.490116E-08 780.4933z" stroke="none" fill="#000000" fill-rule="nonzero" /></g></g></g></g></g></mask><clipPath id="145"><path id="" clip-rule="evenodd" transform="matrix(1 0 0 1 0 0)" d="M0.72 -0.249939L168.96 -0.249939L168.96 -0.249939L168.96 60.71008L168.96 60.71008L0.72 60.71008z" /></clipPath><g><g><g clip-path="url(#68)"><g><g clip-path="url(#69)"><g mask="url(#m7)"><g><g clip-path="url(#71)"><g mask="url(#m8)"><g><g clip-path="url(#73)"><g mask="url(#m9)"><g><g clip-path="url(#75)"><g mask="url(#m10)"><g><g clip-path="url(#77)"><path id="78" transform="matrix(1 0 0 -1 0 842)" d="M84.88563 950.2745C 38.00804 950.2745 -1.490116E-08 912.2665 -1.490116E-08 865.3889C -1.490116E-08 818.5113 38.00804 780.5033 84.88563 780.5033C 131.7632 780.5033 169.7713 818.5113 169.7713 865.3889C 169.7713 912.2665 131.7732 950.2745 84.88563 950.2745z" stroke="none" fill="#000000" fill-rule="nonzero" /></g></g></g><g mask="url(#m11)"><g><g clip-path="url(#80)"><path id="80" transform="matrix(1 0 0 -1 0 842)" d="M84.88563 950.2745C 38.00804 950.2745 -1.490116E-08 912.2665 -1.490116E-08 865.3889C -1.490116E-08 818.5113 38.00804 780.5033 84.88563 780.5033C 131.7632 780.5033 169.7713 818.5113 169.7713 865.3889C 169.7713 912.2665 131.7732 950.2745 84.88563 950.2745z" stroke="none" fill="#000000" fill-rule="nonzero" /></g></g></g></g></g></g><g mask="url(#m12)"><g><g clip-path="url(#83)"><g mask="url(#m13)"><g><g clip-path="url(#85)"><path id="83" transform="matrix(1 0 0 -1 0 842)" d="M84.88563 950.2745C 38.00804 950.2745 -1.490116E-08 912.2665 -1.490116E-08 865.3889C -1.490116E-08 818.5113 38.00804 780.5033 84.88563 780.5033C 131.7632 780.5033 169.7713 818.5113 169.7713 865.3889C 169.7713 912.2665 131.7732 950.2745 84.88563 950.2745z" stroke="none" fill="#000000" fill-rule="nonzero" /></g></g></g><g mask="url(#m14)"><g><g clip-path="url(#88)"><path id="85" transform="matrix(1 0 0 -1 0 842)" d="M84.88563 950.2745C 38.00804 950.2745 -1.490116E-08 912.2665 -1.490116E-08 865.3889C -1.490116E-08 818.5113 38.00804 780.5033 84.88563 780.5033C 131.7632 780.5033 169.7713 818.5113 169.7713 865.3889C 169.7713 912.2665 131.7732 950.2745 84.88563 950.2745z" stroke="none" fill="#000000" fill-rule="nonzero" /></g></g></g></g></g></g></g></g></g><g mask="url(#m15)"><g><g clip-path="url(#91)"><g mask="url(#m16)"><g><g clip-path="url(#93)"><g mask="url(#m17)"><g><g clip-path="url(#95)"><path id="89" transform="matrix(1 0 0 -1 0 842)" d="M84.88563 950.2745C 38.00804 950.2745 -1.490116E-08 912.2665 -1.490116E-08 865.3889C -1.490116E-08 818.5113 38.00804 780.5033 84.88563 780.5033C 131.7632 780.5033 169.7713 818.5113 169.7713 865.3889C 169.7713 912.2665 131.7732 950.2745 84.88563 950.2745z" stroke="none" fill="#000000" fill-rule="nonzero" /></g></g></g><g mask="url(#m18)"><g><g clip-path="url(#98)"><path id="91" transform="matrix(1 0 0 -1 0 842)" d="M84.88563 950.2745C 38.00804 950.2745 -1.490116E-08 912.2665 -1.490116E-08 865.3889C -1.490116E-08 818.5113 38.00804 780.5033 84.88563 780.5033C 131.7632 780.5033 169.7713 818.5113 169.7713 865.3889C 169.7713 912.2665 131.7732 950.2745 84.88563 950.2745z" stroke="none" fill="#000000" fill-rule="nonzero" /></g></g></g></g></g></g><g mask="url(#m19)"><g><g clip-path="url(#101)"><g mask="url(#m20)"><g><g clip-path="url(#103)"><path id="94" transform="matrix(1 0 0 -1 0 842)" d="M84.88563 950.2745C 38.00804 950.2745 -1.490116E-08 912.2665 -1.490116E-08 865.3889C -1.490116E-08 818.5113 38.00804 780.5033 84.88563 780.5033C 131.7632 780.5033 169.7713 818.5113 169.7713 865.3889C 169.7713 912.2665 131.7732 950.2745 84.88563 950.2745z" stroke="none" fill="#000000" fill-rule="nonzero" /></g></g></g><g mask="url(#m21)"><g><g clip-path="url(#106)"><path id="96" transform="matrix(1 0 0 -1 0 842)" d="M84.88563 950.2745C 38.00804 950.2745 -1.490116E-08 912.2665 -1.490116E-08 865.3889C -1.490116E-08 818.5113 38.00804 780.5033 84.88563 780.5033C 131.7632 780.5033 169.7713 818.5113 169.7713 865.3889C 169.7713 912.2665 131.7732 950.2745 84.88563 950.2745z" stroke="none" fill="#000000" fill-rule="nonzero" /></g></g></g></g></g></g></g></g></g></g></g></g><g mask="url(#m22)"><g><g clip-path="url(#110)"><g mask="url(#m23)"><g><g clip-path="url(#112)"><g mask="url(#m24)"><g><g clip-path="url(#114)"><g mask="url(#m25)"><g><g clip-path="url(#116)"><path id="101" transform="matrix(1 0 0 -1 0 842)" d="M84.88563 950.2745C 38.00804 950.2745 -1.490116E-08 912.2665 -1.490116E-08 865.3889C -1.490116E-08 818.5113 38.00804 780.5033 84.88563 780.5033C 131.7632 780.5033 169.7713 818.5113 169.7713 865.3889C 169.7713 912.2665 131.7732 950.2745 84.88563 950.2745z" stroke="none" fill="#000000" fill-rule="nonzero" /></g></g></g><g mask="url(#m26)"><g><g clip-path="url(#119)"><path id="103" transform="matrix(1 0 0 -1 0 842)" d="M84.88563 950.2745C 38.00804 950.2745 -1.490116E-08 912.2665 -1.490116E-08 865.3889C -1.490116E-08 818.5113 38.00804 780.5033 84.88563 780.5033C 131.7632 780.5033 169.7713 818.5113 169.7713 865.3889C 169.7713 912.2665 131.7732 950.2745 84.88563 950.2745z" stroke="none" fill="#000000" fill-rule="nonzero" /></g></g></g></g></g></g><g mask="url(#m27)"><g><g clip-path="url(#122)"><g mask="url(#m28)"><g><g clip-path="url(#124)"><path id="106" transform="matrix(1 0 0 -1 0 842)" d="M84.88563 950.2745C 38.00804 950.2745 -1.490116E-08 912.2665 -1.490116E-08 865.3889C -1.490116E-08 818.5113 38.00804 780.5033 84.88563 780.5033C 131.7632 780.5033 169.7713 818.5113 169.7713 865.3889C 169.7713 912.2665 131.7732 950.2745 84.88563 950.2745z" stroke="none" fill="#000000" fill-rule="nonzero" /></g></g></g><g mask="url(#m29)"><g><g clip-path="url(#127)"><path id="108" transform="matrix(1 0 0 -1 0 842)" d="M84.88563 950.2745C 38.00804 950.2745 -1.490116E-08 912.2665 -1.490116E-08 865.3889C -1.490116E-08 818.5113 38.00804 780.5033 84.88563 780.5033C 131.7632 780.5033 169.7713 818.5113 169.7713 865.3889C 169.7713 912.2665 131.7732 950.2745 84.88563 950.2745z" stroke="none" fill="#000000" fill-rule="nonzero" /></g></g></g></g></g></g></g></g></g><g mask="url(#m30)"><g><g clip-path="url(#130)"><g mask="url(#m31)"><g><g clip-path="url(#132)"><g mask="url(#m32)"><g><g clip-path="url(#134)"><path id="112" transform="matrix(1 0 0 -1 0 842)" d="M84.88563 950.2745C 38.00804 950.2745 -1.490116E-08 912.2665 -1.490116E-08 865.3889C -1.490116E-08 818.5113 38.00804 780.5033 84.88563 780.5033C 131.7632 780.5033 169.7713 818.5113 169.7713 865.3889C 169.7713 912.2665 131.7732 950.2745 84.88563 950.2745z" stroke="none" fill="#000000" fill-rule="nonzero" /></g></g></g><g mask="url(#m33)"><g><g clip-path="url(#137)"><path id="114" transform="matrix(1 0 0 -1 0 842)" d="M84.88563 950.2745C 38.00804 950.2745 -1.490116E-08 912.2665 -1.490116E-08 865.3889C -1.490116E-08 818.5113 38.00804 780.5033 84.88563 780.5033C 131.7632 780.5033 169.7713 818.5113 169.7713 865.3889C 169.7713 912.2665 131.7732 950.2745 84.88563 950.2745z" stroke="none" fill="#000000" fill-rule="nonzero" /></g></g></g></g></g></g><g mask="url(#m34)"><g><g clip-path="url(#140)"><g mask="url(#m35)"><g><g clip-path="url(#142)"><path id="117" transform="matrix(1 0 0 -1 0 842)" d="M84.88563 950.2745C 38.00804 950.2745 -1.490116E-08 912.2665 -1.490116E-08 865.3889C -1.490116E-08 818.5113 38.00804 780.5033 84.88563 780.5033C 131.7632 780.5033 169.7713 818.5113 169.7713 865.3889C 169.7713 912.2665 131.7732 950.2745 84.88563 950.2745z" stroke="none" fill="#000000" fill-rule="nonzero" /></g></g></g><g mask="url(#m36)"><g><g clip-path="url(#145)"><path id="119" transform="matrix(1 0 0 -1 0 842)" d="M84.88563 950.2745C 38.00804 950.2745 -1.490116E-08 912.2665 -1.490116E-08 865.3889C -1.490116E-08 818.5113 38.00804 780.5033 84.88563 780.5033C 131.7632 780.5033 169.7713 818.5113 169.7713 865.3889C 169.7713 912.2665 131.7732 950.2745 84.88563 950.2745z" stroke="none" fill="#000000" fill-rule="nonzero" /></g></g></g></g></g></g></g></g></g></g></g></g></g></g></g></g></g></mask><clipPath id="146"><path id="" clip-rule="evenodd" transform="matrix(1 0 0 1 0 0)" d="M0.72 -0.249939L168.96 -0.249939L168.96 -0.249939L168.96 60.71008L168.96 60.71008L0.72 60.71008z" /></clipPath><clipPath id="147"><path id="" clip-rule="evenodd" transform="matrix(1 0 0 1 0 0)" d="M0.48 -0.4899292L169.2 -0.4899292L169.2 -0.4899292L169.2 60.95007L169.2 60.95007L0.48 60.95007z" /></clipPath><clipPath id="148"><path id="" clip-rule="evenodd" transform="matrix(1 0 0 1 0 0)" d="M0 -0.249939L595.5 -0.249939L595.5 -0.249939L595.5 842.0001L595.5 842.0001L0 842.0001z" /></clipPath><clipPath id="149"><path id="" clip-rule="evenodd" transform="matrix(1 0 0 1 0 0)" d="M0 -0.249939L595.5 -0.249939L595.5 -0.249939L595.5 842.0001L595.5 842.0001L0 842.0001z" /></clipPath><clipPath id="150"><path id="" clip-rule="evenodd" transform="matrix(1 0 0 1 0 0)" d="M0 -108.2745L170.25 -108.2745L170.25 -108.2745L170.25 61.97546L170.25 61.97546L0 61.97546z" /></clipPath><clipPath id="151"><path id="" clip-rule="evenodd" transform="matrix(1 0 0 1 0 0)" d="M0 -33.27454L0 -13.48804C 0 27.93329 33.57864 61.51196 75 61.51196L75 61.51196L94.7865 61.51196C 136.2079 61.51196 169.7865 27.93329 169.7865 -13.48804L169.7865 -13.48804L169.7865 -33.27454C 169.7865 -74.69592 136.2079 -108.2745 94.7865 -108.2745L94.7865 -108.2745L75 -108.2745C 33.57864 -108.2745 0 -74.69592 0 -33.27454z" /></clipPath><clipPath id="152"><path id="" clip-rule="evenodd" transform="matrix(1 0 0 1 0 0)" d="M0 -108.2745L169.5 -108.2745L169.5 -108.2745L169.5 61.22546L169.5 61.22546L0 61.22546z" /></clipPath><clipPath id="153"><path id="" clip-rule="evenodd" transform="matrix(1 0 0 1 0 0)" d="M0 -108.2745L170.2447 -108.2745L170.2447 -108.2745L170.2447 61.97021L170.2447 61.97021L0 61.97021z" /></clipPath><clipPath id="154"><path id="" clip-rule="evenodd" transform="matrix(1 0 0 1 0 0)" d="M0 -33.27686L0 -13.49097C 0 27.92908 33.57761 61.50671 74.99768 61.50671L74.99768 61.50671L94.78357 61.50671C 136.2036 61.50671 169.7813 27.92908 169.7813 -13.49097L169.7813 -13.49097L169.7813 -33.27686C 169.7813 -74.69696 136.2036 -108.2745 94.78357 -108.2745L94.78357 -108.2745L74.99768 -108.2745C 33.57761 -108.2745 0 -74.69696 0 -33.27686z" /></clipPath><clipPath id="155"><path id="" clip-rule="evenodd" transform="matrix(1 0 0 1 0 0)" d="M0 -0.249939L595.5 -0.249939L595.5 -0.249939L595.5 842.0001L595.5 842.0001L0 842.0001z" /></clipPath><clipPath id="156"><path id="" clip-rule="evenodd" transform="matrix(1 0 0 1 0 0)" d="M0 -0.249939L595.5 -0.249939L595.5 -0.249939L595.5 842.0001L595.5 842.0001L0 842.0001z" /></clipPath><clipPath id="157"><path id="" clip-rule="evenodd" transform="matrix(1 0 0 1 0 0)" d="M-3.621107 802.6971L599.0746 802.6971L599.0746 802.6971L599.0746 862.8727L599.0746 862.8727L-3.621107 862.8727z" /></clipPath><clipPath id="158"><path id="" clip-rule="evenodd" transform="matrix(1 0 0 1 0 0)" d="M554.251 802.6971C 578.9081 802.6971 598.8967 816.1678 598.8967 832.7849C 598.8967 849.4019 578.9081 862.8727 554.251 862.8727L554.251 862.8727L41.02456 862.8727C 16.36744 862.8727 -3.621107 849.4019 -3.621107 832.7849C -3.621107 816.1678 16.36744 802.6971 41.02456 802.6971L41.02456 802.6971L554.251 802.6971z" /></clipPath><clipPath id="159"><path id="" clip-rule="evenodd" transform="matrix(1 0 0 1 0 0)" d="M0 -0.249939L595.5 -0.249939L595.5 -0.249939L595.5 842.0001L595.5 842.0001L0 842.0001z" /></clipPath><clipPath id="160"><path id="" clip-rule="evenodd" transform="matrix(1 0 0 1 0 0)" d="M196.6934 38.52258L399.9434 38.52258L399.9434 38.52258L399.9434 154.0226L399.9434 154.0226L196.6934 154.0226z" /></clipPath><clipPath id="161"><path id="" clip-rule="evenodd" transform="matrix(1 0 0 1 0 0)" d="M0 -0.249939L595.5 -0.249939L595.5 -0.249939L595.5 842.0001L595.5 842.0001L0 842.0001z" /></clipPath><clipPath id="162"><path id="" clip-rule="evenodd" transform="matrix(1 0 0 1 0 0)" d="M0 -0.249939L595.5 -0.249939L595.5 -0.249939L595.5 842.0001L595.5 842.0001L0 842.0001z" /></clipPath><clipPath id="163"><path id="" clip-rule="evenodd" transform="matrix(1 0 0 1 0 0)" d="M173.8561 351.3367L430.2979 351.3367L430.2979 351.3367L430.2979 440.6552L430.2979 440.6552L173.8561 440.6552z" /></clipPath><clipPath id="164"><path id="" clip-rule="evenodd" transform="matrix(1 0 0 1 0 0)" d="M385.6343 351.3367C 410.2914 351.3367 430.28 371.3313 430.28 395.9959C 430.28 420.6606 410.2914 440.6552 385.6343 440.6552L385.6343 440.6552L218.5018 440.6552C 193.8447 440.6552 173.8561 420.6606 173.8561 395.9959C 173.8561 371.3313 193.8447 351.3367 218.5018 351.3367L218.5018 351.3367L385.6343 351.3367z" /></clipPath><clipPath id="165"><path id="" clip-rule="evenodd" transform="matrix(1 0 0 1 0 0)" d="M0 -0.249939L595.5 -0.249939L595.5 -0.249939L595.5 842.0001L595.5 842.0001L0 842.0001z" /></clipPath></defs><g transform="matrix(1.333333 0 0 1.333333 0 0)"><g clip-path="url(#1)"><g clip-path="url(#2)"><path id="1" transform="matrix(1 0 0 -1 0 842)" d="M0 842.2499L595.4999 842.2499L595.4999 -6.103516E-05L0 -6.103516E-05z" stroke="none" fill="#FFFFFF" fill-rule="nonzero" /></g><g clip-path="url(#3)"><path id="2" transform="matrix(1 0 0 -1 0 842)" d="M0 842.2499L595.4999 842.2499L595.4999 -6.103516E-05L0 -6.103516E-05z" stroke="none" fill="#E1E7FF" fill-rule="nonzero" /></g><g clip-path="url(#4)"><g clip-path="url(#5)"><g clip-path="url(#6)"><g clip-path="url(#7)"><g clip-path="url(#8)"><g clip-path="url(#9)"><g clip-path="url(#10)"><g><g clip-path="url(#11)"><g mask="url(#m1)"><g><g clip-path="url(#13)"><g clip-path="url(#14)"><path id="4" transform="matrix(1 0 0 -1 0 842)" d="M544.9348 415.5488L714.716 415.5488L714.716 245.7675L544.9348 245.7675z" stroke="none" fill="#FF5757" fill-rule="nonzero" /></g></g></g></g><g mask="url(#m2)"><g><g clip-path="url(#22)"><g clip-path="url(#23)"><path id="9" transform="matrix(1 0 0 -1 0 842)" d="M544.9348 415.5488L714.716 415.5488L714.716 245.7675L544.9348 245.7675z" stroke="none" fill="#FF5757" fill-rule="nonzero" /></g></g></g></g></g></g></g></g></g></g></g></g></g><g clip-path="url(#24)"><g clip-path="url(#25)"><g clip-path="url(#26)"><g clip-path="url(#27)"><g clip-path="url(#28)"><g clip-path="url(#29)"><g clip-path="url(#30)"><path id="10" transform="matrix(1 0 0 -1 0 842)" d="M544.9348 340.5511L544.9348 320.7652C 544.9348 279.3451 578.5123 245.7675 619.9324 245.7675L619.9324 245.7675L639.7183 245.7675C 681.1384 245.7675 714.716 279.3451 714.716 320.7652L714.716 320.7652L714.716 340.5511C 714.716 381.9712 681.1384 415.5488 639.7183 415.5488L639.7183 415.5488L619.9324 415.5488C 578.5123 415.5488 544.9348 381.9712 544.9348 340.5511z" stroke="#FF5757" stroke-width="150" fill="none" /></g></g></g></g></g></g></g><g clip-path="url(#31)"><g clip-path="url(#32)"><g clip-path="url(#33)"><g clip-path="url(#34)"><path id="11" transform="matrix(1 0 0 -1 0 842)" d="M535.748 791.5522L620.8782 791.5522L620.8782 610.3179L535.748 610.3179z" stroke="none" fill="#F2C70F" fill-rule="nonzero" /></g></g></g></g><g clip-path="url(#35)"><g clip-path="url(#36)"><g clip-path="url(#37)"><g clip-path="url(#38)"><path id="12" transform="matrix(1 0 0 -1 0 842)" d="M67.78402 490.6716L-17.34624 490.6716L-17.34624 671.9059L67.78402 671.9059z" stroke="none" fill="#ABD625" fill-rule="nonzero" /></g></g></g></g><g clip-path="url(#39)"><g><g clip-path="url(#40)"><g clip-path="url(#41)"><g transform="matrix(0 0.5128205 -0.5127462 0 525.7039 6.052917)"><g transform="matrix(1 0 0 1 0 0)"><image x="0" y="0" xlink:href="img_01.png" width="1521" height="863" /></g></g></g></g></g></g><g clip-path="url(#42)"><g clip-path="url(#43)"><g clip-path="url(#44)"><g clip-path="url(#45)"><path id="45" transform="matrix(1 0 0 -1 0 842)" d="M173.8561 391.5948L430.2979 391.5948L430.2979 302.2763L173.8561 302.2763z" stroke="none" fill="#88A923" fill-rule="nonzero" /></g></g></g></g><g clip-path="url(#46)"></g><g clip-path="url(#47)"><g clip-path="url(#48)"><g clip-path="url(#49)"><g clip-path="url(#50)"><path id="56" transform="matrix(1 0 0 -1 0 842)" d="M173.2573 292.1684L429.6991 292.1684L429.6991 202.8499L173.2573 202.8499z" stroke="none" fill="#F2C70F" fill-rule="nonzero" /></g></g></g></g><g clip-path="url(#51)"></g><g clip-path="url(#52)"><g clip-path="url(#53)"><g clip-path="url(#54)"><g clip-path="url(#55)"><path id="67" transform="matrix(1 0 0 -1 0 842)" d="M173.2573 193.4436L429.6991 193.4436L429.6991 104.1251L173.2573 104.1251z" stroke="none" fill="#FF5757" fill-rule="nonzero" /></g></g></g></g><g clip-path="url(#56)"></g><g clip-path="url(#57)"><g clip-path="url(#58)"><g clip-path="url(#59)"><g clip-path="url(#60)"><g clip-path="url(#61)"><g clip-path="url(#62)"><g clip-path="url(#63)"><g><g clip-path="url(#64)"><g mask="url(#m5)"><g><g clip-path="url(#66)"><g clip-path="url(#67)"><path id="73" transform="matrix(1 0 0 -1 0 842)" d="M-1.490116E-08 950.2745L169.7813 950.2745L169.7813 780.4933L-1.490116E-08 780.4933z" stroke="none" fill="#F2C70F" fill-rule="nonzero" /></g></g></g></g><g mask="url(#m6)"><g><g clip-path="url(#146)"><g clip-path="url(#147)"><path id="120" transform="matrix(1 0 0 -1 0 842)" d="M-1.490116E-08 950.2745L169.7813 950.2745L169.7813 780.4933L-1.490116E-08 780.4933z" stroke="none" fill="#F2C70F" fill-rule="nonzero" /></g></g></g></g></g></g></g></g></g></g></g></g></g><g clip-path="url(#148)"><g clip-path="url(#149)"><g clip-path="url(#150)"><g clip-path="url(#151)"><g clip-path="url(#152)"><g clip-path="url(#153)"><g clip-path="url(#154)"><path id="121" transform="matrix(1 0 0 -1 0 842)" d="M0 875.2769L0 855.491C 0 814.0709 33.57761 780.4933 74.99768 780.4933L74.99768 780.4933L94.78357 780.4933C 136.2036 780.4933 169.7813 814.0709 169.7813 855.491L169.7813 855.491L169.7813 875.2769C 169.7813 916.6969 136.2036 950.2745 94.78357 950.2745L94.78357 950.2745L74.99768 950.2745C 33.57761 950.2745 0 916.6969 0 875.2769z" stroke="#F2C70F" stroke-width="150" fill="none" /></g></g></g></g></g></g></g><g clip-path="url(#155)"><g clip-path="url(#156)"><g clip-path="url(#157)"><g clip-path="url(#158)"><path id="122" transform="matrix(1 0 0 -1 0 842)" d="M-3.621107 39.30288L598.8395 39.30288L598.8395 -20.87267L-3.621107 -20.87267z" stroke="none" fill="#1D70B7" fill-rule="nonzero" /></g></g></g></g><g clip-path="url(#159)"><path id="153" transform="matrix(1 0 0 -1 0 842)" d="M205.6913 12.66511L377.3827 12.66511L377.3827 11.16511L205.6913 11.16511z" stroke="none" fill="#FFEFE1" fill-rule="nonzero" /></g><g clip-path="url(#160)"><g transform="matrix(0.1336292 0 0 0.1338354 196.6934 38.52258)"><g transform="matrix(1 0 0 1 0 0)"><image x="0" y="0" xlink:href="img_02.png" width="1521" height="863" /></g></g></g><g clip-path="url(#161)"><g clip-path="url(#162)"><g clip-path="url(#163)"><g clip-path="url(#164)"><path id="170" transform="matrix(1 0 0 -1 0 842)" d="M173.8561 490.6633L430.2979 490.6633L430.2979 401.3448L173.8561 401.3448z" stroke="none" fill="#6DB2ED" fill-rule="nonzero" /></g></g></g></g><g clip-path="url(#165)"></g></g></g></svg>