<svg xmlns="http://www.w3.org/2000/svg" xmlns:xlink="http://www.w3.org/1999/xlink" id="body_1" preserveAspectRatio="xMinYMin meet" viewBox="0 0 793 1123"><defs><clipPath id="1"><path id="" clip-rule="evenodd" transform="matrix(1 0 0 1 0 0)" d="M0 842L0 -0.25L0 -0.25L595.5 -0.25L595.5 -0.25L595.5 842L595.5 842L0 842z" /></clipPath><clipPath id="2"><path id="" clip-rule="evenodd" transform="matrix(1 0 0 1 0 0)" d="M0 -0.249939L595.5 -0.249939L595.5 -0.249939L595.5 842.0001L595.5 842.0001L0 842.0001z" /></clipPath><clipPath id="3"><path id="" clip-rule="evenodd" transform="matrix(1 0 0 1 0 0)" d="M0 -0.249939L595.5 -0.249939L595.5 -0.249939L595.5 842.0001L595.5 842.0001L0 842.0001z" /></clipPath><clipPath id="4"><path id="" clip-rule="evenodd" transform="matrix(1 0 0 1 0 0)" d="M0 -0.249939L595.5 -0.249939L595.5 -0.249939L595.5 842.0001L595.5 842.0001L0 842.0001z" /></clipPath><clipPath id="5"><path id="" clip-rule="evenodd" transform="matrix(1 0 0 1 0 0)" d="M80.88 18.95007L537.12 18.95007L537.12 18.95007L537.12 823.1901L537.12 823.1901L80.88 823.1901z" /></clipPath><clipPath id="6"><path id="" clip-rule="evenodd" transform="matrix(1 0 0 1 0 0)" d="M81.0154 19.05255L537.0154 19.05255L537.0154 19.05255L537.0154 822.3026L537.0154 822.3026L81.0154 822.3026z" /></clipPath><clipPath id="7"><path id="" clip-rule="evenodd" transform="matrix(1 0 0 1 0 0)" d="M466.4401 23.61578L551.1901 23.61578L551.1901 23.61578L551.1901 71.61578L551.1901 71.61578L466.4401 71.61578z" /></clipPath><clipPath id="8"><path id="" clip-rule="evenodd" transform="matrix(1 0 0 1 0 0)" d="M38.88756 10.32037L128.8876 10.32037L128.8876 10.32037L128.8876 89.82037L128.8876 89.82037L38.88756 89.82037z" /></clipPath><clipPath id="9"><path id="" clip-rule="evenodd" transform="matrix(1 0 0 1 0 0)" d="M0 -0.249939L595.5 -0.249939L595.5 -0.249939L595.5 842.0001L595.5 842.0001L0 842.0001z" /></clipPath><clipPath id="10"><path id="" clip-rule="evenodd" transform="matrix(1 0 0 1 0 0)" d="M0 -0.249939L595.5 -0.249939L595.5 -0.249939L595.5 842.0001L595.5 842.0001L0 842.0001z" /></clipPath><clipPath id="11"><path id="" clip-rule="evenodd" transform="matrix(1 0 0 1 0 0)" d="M227.5977 108.7355L571.6284 108.7355L571.6284 108.7355L571.6284 354.061L571.6284 354.061L227.5977 354.061z" /></clipPath><clipPath id="12"><path id="" clip-rule="evenodd" transform="matrix(1 0 0 1 0 0)" d="M247.0977 108.7355L551.7253 108.7355C 562.4948 108.7355 571.2252 117.4659 571.2252 128.2355L571.2252 128.2355L571.2252 334.561C 571.2252 345.3305 562.4948 354.061 551.7253 354.061L551.7253 354.061L247.0977 354.061C 236.3282 354.061 227.5977 345.3305 227.5977 334.561L227.5977 334.561L227.5977 128.2355C 227.5977 117.4659 236.3282 108.7355 247.0977 108.7355z" /></clipPath><clipPath id="13"><path id="" clip-rule="evenodd" transform="matrix(1 0 0 1 0 0)" d="M0 -0.249939L595.5 -0.249939L595.5 -0.249939L595.5 842.0001L595.5 842.0001L0 842.0001z" /></clipPath><clipPath id="14"><path id="" clip-rule="evenodd" transform="matrix(1 0 0 1 0 0)" d="M0 -0.249939L595.5 -0.249939L595.5 -0.249939L595.5 842.0001L595.5 842.0001L0 842.0001z" /></clipPath><clipPath id="15"><path id="" clip-rule="evenodd" transform="matrix(1 0 0 1 0 0)" d="M0 -0.249939L595.5 -0.249939L595.5 -0.249939L595.5 842.0001L595.5 842.0001L0 842.0001z" /></clipPath><clipPath id="16"><path id="" clip-rule="evenodd" transform="matrix(1 0 0 1 0 0)" d="M255.443 594.36L571.907 594.36L571.907 594.36L571.907 819.4011L571.907 819.4011L255.443 819.4011z" /></clipPath><clipPath id="17"><path id="" clip-rule="evenodd" transform="matrix(1 0 0 1 0 0)" d="M274.943 594.36L551.7253 594.36C 562.4948 594.36 571.2253 603.0905 571.2253 613.86L571.2253 613.86L571.2253 799.9011C 571.2253 810.6707 562.4948 819.4011 551.7253 819.4011L551.7253 819.4011L274.943 819.4011C 264.1735 819.4011 255.443 810.6707 255.443 799.9011L255.443 799.9011L255.443 613.86C 255.443 603.0905 264.1735 594.36 274.943 594.36z" /></clipPath><clipPath id="18"><path id="" clip-rule="evenodd" transform="matrix(1 0 0 1 0 0)" d="M0 -0.249939L595.5 -0.249939L595.5 -0.249939L595.5 842.0001L595.5 842.0001L0 842.0001z" /></clipPath><clipPath id="19"><path id="" clip-rule="evenodd" transform="matrix(1 0 0 1 0 0)" d="M0 -0.249939L595.5 -0.249939L595.5 -0.249939L595.5 842.0001L595.5 842.0001L0 842.0001z" /></clipPath><clipPath id="20"><path id="" clip-rule="evenodd" transform="matrix(1 0 0 1 0 0)" d="M0 -0.249939L595.5 -0.249939L595.5 -0.249939L595.5 842.0001L595.5 842.0001L0 842.0001z" /></clipPath><clipPath id="21"><path id="" clip-rule="evenodd" transform="matrix(1 0 0 1 0 0)" d="M28.82379 373.561L360.573 373.561L360.573 373.561L360.573 580.1979L360.573 580.1979L28.82379 580.1979z" /></clipPath><clipPath id="22"><path id="" clip-rule="evenodd" transform="matrix(1 0 0 1 0 0)" d="M48.32379 373.561L340.5052 373.561C 351.2748 373.561 360.0053 382.2914 360.0053 393.061L360.0053 393.061L360.0053 560.6979C 360.0053 571.4675 351.2748 580.1979 340.5052 580.1979L340.5052 580.1979L48.32379 580.1979C 37.55423 580.1979 28.82379 571.4675 28.82379 560.6979L28.82379 560.6979L28.82379 393.061C 28.82379 382.2914 37.55423 373.561 48.32379 373.561z" /></clipPath><clipPath id="23"><path id="" clip-rule="evenodd" transform="matrix(1 0 0 1 0 0)" d="M0 -0.249939L595.5 -0.249939L595.5 -0.249939L595.5 842.0001L595.5 842.0001L0 842.0001z" /></clipPath><clipPath id="24"><path id="" clip-rule="evenodd" transform="matrix(1 0 0 1 0 0)" d="M0 -0.249939L595.5 -0.249939L595.5 -0.249939L595.5 842.0001L595.5 842.0001L0 842.0001z" /></clipPath><clipPath id="25"><path id="" clip-rule="evenodd" transform="matrix(1 0 0 1 0 0)" d="M0 -0.249939L595.5 -0.249939L595.5 -0.249939L595.5 842.0001L595.5 842.0001L0 842.0001z" /></clipPath><clipPath id="26"><path id="" clip-rule="evenodd" transform="matrix(1 0 0 1 0 0)" d="M28.82379 108.7355L210.3238 108.7355L210.3238 108.7355L210.3238 231.7355L210.3238 231.7355L28.82379 231.7355z" /></clipPath><clipPath id="27"><path id="" clip-rule="evenodd" transform="matrix(1 0 0 1 0 0)" d="M28.82379 136.4855L28.82379 203.6483C 28.82379 218.9741 41.24788 231.3983 56.57379 231.3983L56.57379 231.3983L182.2285 231.3983C 197.5544 231.3983 209.9785 218.9741 209.9785 203.6483L209.9785 203.6483L209.9785 136.4855C 209.9785 121.1596 197.5544 108.7355 182.2285 108.7355L182.2285 108.7355L56.57379 108.7355C 41.24788 108.7355 28.82379 121.1596 28.82379 136.4855z" /></clipPath><clipPath id="28"><path id="" clip-rule="evenodd" transform="matrix(1 0 0 1 0 0)" d="M28.82379 108.7355L210.3238 108.7355L210.3238 108.7355L210.3238 231.7355L210.3238 231.7355L28.82379 231.7355z" /></clipPath><clipPath id="29"><path id="" clip-rule="evenodd" transform="matrix(1 0 0 1 0 0)" d="M0 -0.249939L595.5 -0.249939L595.5 -0.249939L595.5 842.0001L595.5 842.0001L0 842.0001z" /></clipPath><clipPath id="30"><path id="" clip-rule="evenodd" transform="matrix(1 0 0 1 0 0)" d="M0 -0.249939L595.5 -0.249939L595.5 -0.249939L595.5 842.0001L595.5 842.0001L0 842.0001z" /></clipPath><clipPath id="31"><path id="" clip-rule="evenodd" transform="matrix(1 0 0 1 0 0)" d="M28.82379 238.5765L210.3238 238.5765L210.3238 238.5765L210.3238 354.0765L210.3238 354.0765L28.82379 354.0765z" /></clipPath><clipPath id="32"><path id="" clip-rule="evenodd" transform="matrix(1 0 0 1 0 0)" d="M28.82379 266.3265L28.82379 326.311C 28.82379 341.6369 41.24788 354.061 56.57379 354.061L56.57379 354.061L182.3952 354.061C 197.7211 354.061 210.1452 341.6369 210.1452 326.311L210.1452 326.311L210.1452 266.3265C 210.1452 251.0006 197.7211 238.5765 182.3952 238.5765L182.3952 238.5765L56.57379 238.5765C 41.24788 238.5765 28.82379 251.0006 28.82379 266.3265z" /></clipPath><clipPath id="33"><path id="" clip-rule="evenodd" transform="matrix(1 0 0 1 0 0)" d="M28.82379 238.5765L210.3238 238.5765L210.3238 238.5765L210.3238 354.0765L210.3238 354.0765L28.82379 354.0765z" /></clipPath><clipPath id="34"><path id="" clip-rule="evenodd" transform="matrix(1 0 0 1 0 0)" d="M0 -0.249939L595.5 -0.249939L595.5 -0.249939L595.5 842.0001L595.5 842.0001L0 842.0001z" /></clipPath><clipPath id="35"><path id="" clip-rule="evenodd" transform="matrix(1 0 0 1 0 0)" d="M0 -0.249939L595.5 -0.249939L595.5 -0.249939L595.5 842.0001L595.5 842.0001L0 842.0001z" /></clipPath><clipPath id="36"><path id="" clip-rule="evenodd" transform="matrix(1 0 0 1 0 0)" d="M376.3543 410.2307L571.3543 410.2307L571.3543 410.2307L571.3543 536.2307L571.3543 536.2307L376.3543 536.2307z" /></clipPath><clipPath id="37"><path id="" clip-rule="evenodd" transform="matrix(1 0 0 1 0 0)" d="M376.3543 437.9807L376.3543 507.8485C 376.3543 523.1744 388.7784 535.5985 404.1043 535.5985L404.1043 535.5985L543.4753 535.5985C 558.8012 535.5985 571.2253 523.1744 571.2253 507.8485L571.2253 507.8485L571.2253 437.9807C 571.2253 422.6548 558.8012 410.2307 543.4753 410.2307L543.4753 410.2307L404.1043 410.2307C 388.7784 410.2307 376.3543 422.6548 376.3543 437.9807z" /></clipPath><clipPath id="38"><path id="" clip-rule="evenodd" transform="matrix(1 0 0 1 0 0)" d="M376.3543 410.2307L571.3543 410.2307L571.3543 410.2307L571.3543 535.4807L571.3543 535.4807L376.3543 535.4807z" /></clipPath><clipPath id="39"><path id="" clip-rule="evenodd" transform="matrix(1 0 0 1 0 0)" d="M0 -0.249939L595.5 -0.249939L595.5 -0.249939L595.5 842.0001L595.5 842.0001L0 842.0001z" /></clipPath><clipPath id="40"><path id="" clip-rule="evenodd" transform="matrix(1 0 0 1 0 0)" d="M0 -0.249939L595.5 -0.249939L595.5 -0.249939L595.5 842.0001L595.5 842.0001L0 842.0001z" /></clipPath><clipPath id="41"><path id="" clip-rule="evenodd" transform="matrix(1 0 0 1 0 0)" d="M28.82379 636.1503L240.3238 636.1503L240.3238 636.1503L240.3238 776.4003L240.3238 776.4003L28.82379 776.4003z" /></clipPath><clipPath id="42"><path id="" clip-rule="evenodd" transform="matrix(1 0 0 1 0 0)" d="M28.82379 663.9003L28.82379 747.9287C 28.82379 763.2546 41.24788 775.6787 56.57379 775.6787L56.57379 775.6787L211.843 775.6787C 227.1689 775.6787 239.593 763.2546 239.593 747.9287L239.593 747.9287L239.593 663.9003C 239.593 648.5743 227.1689 636.1503 211.843 636.1503L211.843 636.1503L56.57379 636.1503C 41.24788 636.1503 28.82379 648.5743 28.82379 663.9003z" /></clipPath><clipPath id="43"><path id="" clip-rule="evenodd" transform="matrix(1 0 0 1 0 0)" d="M28.82379 636.1503L239.5738 636.1503L239.5738 636.1503L239.5738 775.6503L239.5738 775.6503L28.82379 775.6503z" /></clipPath></defs><g transform="matrix(1.333333 0 0 1.333333 0 0)"><g clip-path="url(#1)"><g clip-path="url(#2)"><path id="1" transform="matrix(1 0 0 -1 0 842)" d="M0 842.2499L595.4999 842.2499L595.4999 -6.103516E-05L0 -6.103516E-05z" stroke="none" fill="#FFFFFF" fill-rule="nonzero" /></g><g clip-path="url(#3)"><path id="2" transform="matrix(1 0 0 -1 0 842)" d="M0 842.2499L595.4999 842.2499L595.4999 -6.103516E-05L0 -6.103516E-05z" stroke="none" fill="#FFFFFF" fill-rule="nonzero" /></g><g clip-path="url(#4)"><g><g clip-path="url(#5)"><g clip-path="url(#6)"><g transform="matrix(0 0.5281065 -0.5283893 0 537.0154 19.05261)"><g transform="matrix(1 0 0 1 0 0)"><image x="0" y="0" xlink:href="img_01.png" width="1521" height="863" /></g></g></g></g></g></g><g clip-path="url(#7)"><g transform="matrix(0.05571992 0 0 0.05561992 466.4401 23.61584)"><g transform="matrix(1 0 0 1 0 0)"><image x="0" y="0" xlink:href="img_02.png" width="1521" height="863" /></g></g></g><g clip-path="url(#8)"><g transform="matrix(0.4225352 0 0 0.4228723 38.88755 10.32037)"><g transform="matrix(1 0 0 1 0 0)"><image x="0" y="0" xlink:href="img_03.png" width="213" height="188" /></g></g></g><g clip-path="url(#9)"><g clip-path="url(#10)"><g clip-path="url(#11)"><g clip-path="url(#12)"><path id="6" transform="matrix(1 0 0 -1 0 842)" d="M227.5977 733.2645L571.6284 733.2645L571.6284 487.939L227.5977 487.939z" stroke="none" fill="#D6E0E5" fill-rule="nonzero" /></g></g></g></g><g clip-path="url(#13)"></g><g clip-path="url(#14)"><g clip-path="url(#15)"><g clip-path="url(#16)"><g clip-path="url(#17)"><path id="429" transform="matrix(1 0 0 -1 0 842)" d="M255.443 247.6399L571.0279 247.6399L571.0279 22.59886L255.443 22.59886z" stroke="none" fill="#D6E0E5" fill-rule="nonzero" /></g></g></g></g><g clip-path="url(#18)"></g><g clip-path="url(#19)"><g clip-path="url(#20)"><g clip-path="url(#21)"><g clip-path="url(#22)"><path id="718" transform="matrix(1 0 0 -1 0 842)" d="M28.82379 468.439L359.7658 468.439L359.7658 261.802L28.82379 261.802z" stroke="none" fill="#D6E0E5" fill-rule="nonzero" /></g></g></g></g><g clip-path="url(#23)"></g><g clip-path="url(#24)"><g clip-path="url(#25)"><g clip-path="url(#26)"><g clip-path="url(#27)"><g clip-path="url(#28)"><g transform="matrix(0.6302083 0 0 0.6307692 28.82379 108.7355)"><g transform="matrix(1 0 0 1 0 0)"><image x="0" y="0" xlink:href="img_04.png" width="288" height="195" /></g></g></g></g></g></g></g><g clip-path="url(#29)"><g clip-path="url(#30)"><g clip-path="url(#31)"><g clip-path="url(#32)"><g clip-path="url(#33)"><g transform="matrix(0.5990099 0 0 0.5984455 28.82379 238.5765)"><g transform="matrix(1 0 0 1 0 0)"><image x="0" y="0" xlink:href="img_05.png" width="303" height="193" /></g></g></g></g></g></g></g><g clip-path="url(#34)"><g clip-path="url(#35)"><g clip-path="url(#36)"><g clip-path="url(#37)"><g clip-path="url(#38)"><g transform="matrix(0.5938416 0 0 0.5936019 376.3543 410.2307)"><g transform="matrix(1 0 0 1 0 0)"><image x="0" y="0" xlink:href="img_06.png" width="341" height="211" /></g></g></g></g></g></g></g><g clip-path="url(#39)"><g clip-path="url(#40)"><g clip-path="url(#41)"><g clip-path="url(#42)"><g clip-path="url(#43)"><g transform="matrix(0.6144315 0 0 0.6145374 28.82379 636.1503)"><g transform="matrix(1 0 0 1 0 0)"><image x="0" y="0" xlink:href="img_07.png" width="343" height="227" /></g></g></g></g></g></g></g></g></g></svg>