<svg xmlns="http://www.w3.org/2000/svg" xmlns:xlink="http://www.w3.org/1999/xlink" id="body_1" preserveAspectRatio="xMinYMin meet" viewBox="0 0 793 1123"><defs><clipPath id="1"><path id="" clip-rule="evenodd" transform="matrix(1 0 0 1 0 0)" d="M0 842L0 -0.25L0 -0.25L595.5 -0.25L595.5 -0.25L595.5 842L595.5 842L0 842z" /></clipPath><clipPath id="2"><path id="" clip-rule="evenodd" transform="matrix(1 0 0 1 0 0)" d="M0 -0.249939L595.5 -0.249939L595.5 -0.249939L595.5 842.0001L595.5 842.0001L0 842.0001z" /></clipPath><clipPath id="3"><path id="" clip-rule="evenodd" transform="matrix(1 0 0 1 0 0)" d="M0 -0.249939L595.5 -0.249939L595.5 -0.249939L595.5 842.0001L595.5 842.0001L0 842.0001z" /></clipPath><clipPath id="4"><path id="" clip-rule="evenodd" transform="matrix(1 0 0 1 0 0)" d="M0 -0.249939L595.5 -0.249939L595.5 -0.249939L595.5 842.0001L595.5 842.0001L0 842.0001z" /></clipPath><clipPath id="5"><path id="" clip-rule="evenodd" transform="matrix(1 0 0 1 0 0)" d="M78.71999 30.71008L522.24 30.71008L522.24 30.71008L522.24 810.9501L522.24 810.9501L78.71999 810.9501z" /></clipPath><clipPath id="6"><path id="" clip-rule="evenodd" transform="matrix(1 0 0 1 0 0)" d="M79.51787 30.75183L522.0178 30.75183L522.0178 30.75183L522.0178 810.7518L522.0178 810.7518L79.51787 810.7518z" /></clipPath><clipPath id="7"><path id="" clip-rule="evenodd" transform="matrix(1 0 0 1 0 0)" d="M58.25593 547.7314L305.7559 547.7314L305.7559 547.7314L305.7559 838.7314L305.7559 838.7314L58.25593 838.7314z" /></clipPath><clipPath id="8"><path id="" clip-rule="evenodd" transform="matrix(1 0 0 1 0 0)" d="M85.05821 768.6815L313.8082 768.6815L313.8082 768.6815L313.8082 771.6815L313.8082 771.6815L85.05821 771.6815z" /></clipPath><clipPath id="9"><path id="" clip-rule="evenodd" transform="matrix(1 0 0 1 0 0)" d="M0 -0.249939L595.5 -0.249939L595.5 -0.249939L595.5 842.0001L595.5 842.0001L0 842.0001z" /></clipPath><clipPath id="10"><path id="" clip-rule="evenodd" transform="matrix(1 0 0 1 0 0)" d="M0 -0.249939L595.5 -0.249939L595.5 -0.249939L595.5 842.0001L595.5 842.0001L0 842.0001z" /></clipPath><clipPath id="11"><path id="" clip-rule="evenodd" transform="matrix(1 0 0 1 0 0)" d="M86.53619 622.567L285.1259 622.567L285.1259 622.567L285.1259 772.9781L285.1259 772.9781L86.53619 772.9781z" /></clipPath><clipPath id="12"><path id="" clip-rule="evenodd" transform="matrix(1 0 0 1 0 0)" d="M98.2231 622.567C 95.12263 622.567 92.15278 623.7976 89.95976 625.9906C 87.76675 628.1836 86.53619 631.1535 86.53619 634.2539L86.53619 634.2539L86.53619 761.2905C 86.53619 764.3911 87.76675 767.3608 89.95976 769.5539C 92.15278 771.7469 95.12263 772.9774 98.2231 772.9774L98.2231 772.9774L273.0935 772.9774C 276.194 772.9774 279.1638 771.7469 281.3568 769.5539C 282.9792 767.9315 284.0792 765.876 284.5398 763.6623L284.5398 763.6623L284.5398 631.8822C 284.0792 629.6685 282.9861 627.613 281.3568 625.9906C 279.1707 623.7976 276.194 622.567 273.0935 622.567L273.0935 622.567L98.2231 622.567z" /></clipPath><clipPath id="13"><path id="" clip-rule="evenodd" transform="matrix(1 0 0 1 0 0)" d="M86.53619 622.567L284.5383 622.567L284.5383 622.567L284.5383 772.9781L284.5383 772.9781L86.53619 772.9781z" /></clipPath><clipPath id="14"><path id="" clip-rule="evenodd" transform="matrix(1 0 0 1 0 0)" d="M46.11343 21.40845L301.8634 21.40845L301.8634 21.40845L301.8634 250.9084L301.8634 250.9084L46.11343 250.9084z" /></clipPath><clipPath id="15"><path id="" clip-rule="evenodd" transform="matrix(1 0 0 1 0 0)" d="M68.11693 223.0467L275.8669 223.0467L275.8669 223.0467L275.8669 226.7967L275.8669 226.7967L68.11693 226.7967z" /></clipPath><clipPath id="16"><path id="" clip-rule="evenodd" transform="matrix(1 0 0 1 0 0)" d="M0 -0.249939L595.5 -0.249939L595.5 -0.249939L595.5 842.0001L595.5 842.0001L0 842.0001z" /></clipPath><clipPath id="17"><path id="" clip-rule="evenodd" transform="matrix(1 0 0 1 0 0)" d="M0 -0.249939L595.5 -0.249939L595.5 -0.249939L595.5 842.0001L595.5 842.0001L0 842.0001z" /></clipPath><clipPath id="18"><path id="" clip-rule="evenodd" transform="matrix(1 0 0 1 0 0)" d="M58.25593 63.57416L163.2346 63.57416L163.2346 63.57416L163.2346 168.5529L163.2346 168.5529L58.25593 168.5529z" /></clipPath><clipPath id="19"><path id="" clip-rule="evenodd" transform="matrix(1 0 0 1 0 0)" d="M71.00593 63.57416C 63.96342 63.57416 58.25593 69.28168 58.25593 76.32416L58.25593 76.32416L58.25593 155.3967C 58.25593 162.4242 63.94093 168.1241 70.96843 168.1467L70.96843 168.1467L150.1534 168.1467C 156.8434 168.1241 162.3184 162.9567 162.8284 156.3942L162.8284 156.3942L162.8284 75.32666C 162.3184 68.74921 156.8209 63.57416 150.1159 63.57416L150.1159 63.57416L71.00593 63.57416z" /></clipPath><clipPath id="20"><path id="" clip-rule="evenodd" transform="matrix(1 0 0 1 0 0)" d="M58.25593 63.57416L162.8262 63.57416L162.8262 63.57416L162.8262 168.1444L162.8262 168.1444L58.25593 168.1444z" /></clipPath><clipPath id="21"><path id="" clip-rule="evenodd" transform="matrix(1 0 0 1 0 0)" d="M0 -0.249939L595.5 -0.249939L595.5 -0.249939L595.5 842.0001L595.5 842.0001L0 842.0001z" /></clipPath><clipPath id="22"><path id="" clip-rule="evenodd" transform="matrix(1 0 0 1 0 0)" d="M0 -0.249939L595.5 -0.249939L595.5 -0.249939L595.5 842.0001L595.5 842.0001L0 842.0001z" /></clipPath><clipPath id="23"><path id="" clip-rule="evenodd" transform="matrix(1 0 0 1 0 0)" d="M188.8924 103.8019L295.3748 103.8019L295.3748 103.8019L295.3748 209.8699L295.3748 209.8699L188.8924 209.8699z" /></clipPath><clipPath id="24"><path id="" clip-rule="evenodd" transform="matrix(1 0 0 1 0 0)" d="M201.6124 103.8019C 194.5849 103.817 188.8924 109.5244 188.8924 116.5519L188.8924 116.5519L188.8924 197.1169C 188.8924 204.1594 194.5999 209.8669 201.6424 209.8669L201.6424 209.8669L282.2524 209.8669C 288.9574 209.8669 294.4549 204.6919 294.9649 198.1219L294.9649 198.1219L294.9649 115.5469C 294.4474 108.9844 288.9724 103.817 282.2824 103.8019L282.2824 103.8019L201.6124 103.8019z" /></clipPath><clipPath id="25"><path id="" clip-rule="evenodd" transform="matrix(1 0 0 1 0 0)" d="M188.8924 103.8019L294.9604 103.8019L294.9604 103.8019L294.9604 209.8699L294.9604 209.8699L188.8924 209.8699z" /></clipPath><clipPath id="26"><path id="" clip-rule="evenodd" transform="matrix(1 0 0 1 0 0)" d="M52.38192 272.7305L294.6319 272.7305L294.6319 272.7305L294.6319 514.2304L294.6319 514.2304L52.38192 514.2304z" /></clipPath><clipPath id="27"><path id="" clip-rule="evenodd" transform="matrix(1 0 0 1 0 0)" d="M65.11693 480.0469L290.8669 480.0469L290.8669 480.0469L290.8669 483.7969L290.8669 483.7969L65.11693 483.7969z" /></clipPath><clipPath id="28"><path id="" clip-rule="evenodd" transform="matrix(1 0 0 1 0 0)" d="M0 -0.249939L595.5 -0.249939L595.5 -0.249939L595.5 842.0001L595.5 842.0001L0 842.0001z" /></clipPath><clipPath id="29"><path id="" clip-rule="evenodd" transform="matrix(1 0 0 1 0 0)" d="M0 -0.249939L595.5 -0.249939L595.5 -0.249939L595.5 842.0001L595.5 842.0001L0 842.0001z" /></clipPath><clipPath id="30"><path id="" clip-rule="evenodd" transform="matrix(1 0 0 1 0 0)" d="M72.55468 337.7389L284.7779 337.7389L284.7779 337.7389L284.7779 473.9022L284.7779 473.9022L72.55468 473.9022z" /></clipPath><clipPath id="31"><path id="" clip-rule="evenodd" transform="matrix(1 0 0 1 0 0)" d="M85.30467 337.7389C 78.26218 337.7389 72.55468 343.4464 72.55468 350.4889L72.55468 350.4889L72.55468 461.1514C 72.55468 468.1939 78.26218 473.9014 85.30467 473.9014L85.30467 473.9014L271.7847 473.9014C 278.8272 473.9014 284.5347 468.1939 284.5347 461.1514L284.5347 461.1514L284.5347 350.4889C 284.5347 343.4464 278.8272 337.7389 271.7847 337.7389L271.7847 337.7389L85.30467 337.7389z" /></clipPath><clipPath id="32"><path id="" clip-rule="evenodd" transform="matrix(1 0 0 1 0 0)" d="M72.55468 337.7389L284.7779 337.7389L284.7779 337.7389L284.7779 473.9022L284.7779 473.9022L72.55468 473.9022z" /></clipPath><clipPath id="33"><path id="" clip-rule="evenodd" transform="matrix(1 0 0 1 0 0)" d="M0 -0.249939L595.5 -0.249939L595.5 -0.249939L595.5 842.0001L595.5 842.0001L0 842.0001z" /></clipPath><clipPath id="34"><path id="" clip-rule="evenodd" transform="matrix(1 0 0 1 0 0)" d="M0 -0.249939L595.5 -0.249939L595.5 -0.249939L595.5 842.0001L595.5 842.0001L0 842.0001z" /></clipPath><clipPath id="35"><path id="" clip-rule="evenodd" transform="matrix(1 0 0 1 0 0)" d="M0 -0.249939L595.5 -0.249939L595.5 -0.249939L595.5 842.0001L595.5 842.0001L0 842.0001z" /></clipPath><clipPath id="36"><path id="" clip-rule="evenodd" transform="matrix(1 0 0 1 0 0)" d="M56.75571 32.84088L86.75571 32.84088L86.75571 32.84088L86.75571 57.59088L86.75571 57.59088L56.75571 57.59088z" /></clipPath><clipPath id="37"><path id="" clip-rule="evenodd" transform="matrix(1 0 0 1 0 0)" d="M56.75571 45.20752C 56.75571 52.03748 62.29244 57.57422 69.12235 57.57422L69.12235 57.57422L74.16954 57.57422C 80.99945 57.57422 86.53619 52.03748 86.53619 45.20752C 86.53619 38.37762 80.99945 32.84088 74.16954 32.84088L74.16954 32.84088L69.12235 32.84088C 62.29244 32.84088 56.75571 38.37762 56.75571 45.20752z" /></clipPath><clipPath id="38"><path id="" clip-rule="evenodd" transform="matrix(1 0 0 1 0 0)" d="M57.50571 33.59088L86.00571 33.59088L86.00571 33.59088L86.00571 56.84088L86.00571 56.84088L57.50571 56.84088z" /></clipPath><clipPath id="39"><path id="" clip-rule="evenodd" transform="matrix(1 0 0 1 0 0)" d="M69.12235 33.74091L74.16954 33.74091C 80.5024 33.74091 85.63618 38.87469 85.63618 45.20752C 85.63618 51.54041 80.5024 56.67419 74.16954 56.67419L74.16954 56.67419L69.12235 56.67419C 62.7895 56.67419 57.65571 51.54041 57.65571 45.20752C 57.65571 38.87469 62.7895 33.74091 69.12235 33.74091z" /></clipPath><clipPath id="40"><path id="" clip-rule="evenodd" transform="matrix(1 0 0 1 0 0)" d="M57.50571 33.31732L86.00571 33.31732L86.00571 33.31732L86.00571 57.31732L86.00571 57.31732L57.50571 57.31732z" /></clipPath><clipPath id="41"><path id="" clip-rule="evenodd" transform="matrix(1 0 0 1 0 0)" d="M56.76127 30.3396L86.76128 30.3396L86.76128 30.3396L86.76128 60.3396L86.76128 60.3396L56.76127 60.3396z" /></clipPath><clipPath id="42"><path id="" clip-rule="evenodd" transform="matrix(1 0 0 1 0 0)" d="M0 -0.249939L595.5 -0.249939L595.5 -0.249939L595.5 842.0001L595.5 842.0001L0 842.0001z" /></clipPath><clipPath id="43"><path id="" clip-rule="evenodd" transform="matrix(1 0 0 1 0 0)" d="M0 -0.249939L595.5 -0.249939L595.5 -0.249939L595.5 842.0001L595.5 842.0001L0 842.0001z" /></clipPath><clipPath id="44"><path id="" clip-rule="evenodd" transform="matrix(1 0 0 1 0 0)" d="M56.75571 32.84088L86.75571 32.84088L86.75571 32.84088L86.75571 57.59088L86.75571 57.59088L56.75571 57.59088z" /></clipPath><clipPath id="45"><path id="" clip-rule="evenodd" transform="matrix(1 0 0 1 0 0)" d="M56.75571 45.20752C 56.75571 52.03748 62.29244 57.57422 69.12235 57.57422L69.12235 57.57422L74.16954 57.57422C 80.99945 57.57422 86.53619 52.03748 86.53619 45.20752C 86.53619 38.37762 80.99945 32.84088 74.16954 32.84088L74.16954 32.84088L69.12235 32.84088C 62.29244 32.84088 56.75571 38.37762 56.75571 45.20752z" /></clipPath><clipPath id="46"><path id="" clip-rule="evenodd" transform="matrix(1 0 0 1 0 0)" d="M56.75571 32.84088L86.75571 32.84088L86.75571 32.84088L86.75571 57.59088L86.75571 57.59088L56.75571 57.59088z" /></clipPath><clipPath id="47"><path id="" clip-rule="evenodd" transform="matrix(1 0 0 1 0 0)" d="M56.75571 32.84088L86.75255 32.84088L86.75255 32.84088L86.75255 57.58417L86.75255 57.58417L56.75571 57.58417z" /></clipPath><clipPath id="48"><path id="" clip-rule="evenodd" transform="matrix(1 0 0 1 0 0)" d="M56.75571 45.20416C 56.75571 52.03223 62.29185 57.56744 69.12105 57.56744L69.12105 57.56744L74.16771 57.56744C 80.9969 57.56744 86.53305 52.03223 86.53305 45.20416C 86.53305 38.3761 80.9969 32.84088 74.16771 32.84088L74.16771 32.84088L69.12105 32.84088C 62.29185 32.84088 56.75571 38.3761 56.75571 45.20416z" /></clipPath><clipPath id="49"><path id="" clip-rule="evenodd" transform="matrix(1 0 0 1 0 0)" d="M0 -0.249939L595.5 -0.249939L595.5 -0.249939L595.5 842.0001L595.5 842.0001L0 842.0001z" /></clipPath><clipPath id="50"><path id="" clip-rule="evenodd" transform="matrix(1 0 0 1 0 0)" d="M0 -0.249939L595.5 -0.249939L595.5 -0.249939L595.5 842.0001L595.5 842.0001L0 842.0001z" /></clipPath><clipPath id="51"><path id="" clip-rule="evenodd" transform="matrix(1 0 0 1 0 0)" d="M0 -0.249939L595.5 -0.249939L595.5 -0.249939L595.5 842.0001L595.5 842.0001L0 842.0001z" /></clipPath><clipPath id="52"><path id="" clip-rule="evenodd" transform="matrix(1 0 0 1 0 0)" d="M68.11693 300.2556L112.3669 300.2556L112.3669 300.2556L112.3669 325.0056L112.3669 325.0056L68.11693 325.0056z" /></clipPath><clipPath id="53"><path id="" clip-rule="evenodd" transform="matrix(1 0 0 1 0 0)" d="M68.11693 312.6223C 68.11693 319.4521 73.65366 324.9889 80.48357 324.9889L80.48357 324.9889L99.73078 324.9889C 106.5607 324.9889 112.0974 319.4521 112.0974 312.6223C 112.0974 305.7924 106.5607 300.2556 99.73078 300.2556L99.73078 300.2556L80.48357 300.2556C 73.65366 300.2556 68.11693 305.7924 68.11693 312.6223z" /></clipPath><clipPath id="54"><path id="" clip-rule="evenodd" transform="matrix(1 0 0 1 0 0)" d="M68.86693 301.0056L111.6169 301.0056L111.6169 301.0056L111.6169 324.2556L111.6169 324.2556L68.86693 324.2556z" /></clipPath><clipPath id="55"><path id="" clip-rule="evenodd" transform="matrix(1 0 0 1 0 0)" d="M80.48357 301.1556L99.73078 301.1556C 106.0636 301.1556 111.1974 306.2894 111.1974 312.6223C 111.1974 318.9551 106.0636 324.0889 99.73078 324.0889L99.73078 324.0889L80.48357 324.0889C 74.15072 324.0889 69.01692 318.9551 69.01692 312.6223C 69.01692 306.2894 74.15072 301.1556 80.48357 301.1556z" /></clipPath><clipPath id="56"><path id="" clip-rule="evenodd" transform="matrix(1 0 0 1 0 0)" d="M68.86693 300.382L111.6169 300.382L111.6169 300.382L111.6169 324.382L111.6169 324.382L68.86693 324.382z" /></clipPath><clipPath id="57"><path id="" clip-rule="evenodd" transform="matrix(1 0 0 1 0 0)" d="M68.1215 290.6914L112.3715 290.6914L112.3715 290.6914L112.3715 334.9414L112.3715 334.9414L68.1215 334.9414z" /></clipPath><clipPath id="58"><path id="" clip-rule="evenodd" transform="matrix(1 0 0 1 0 0)" d="M0 -0.249939L595.5 -0.249939L595.5 -0.249939L595.5 842.0001L595.5 842.0001L0 842.0001z" /></clipPath><clipPath id="59"><path id="" clip-rule="evenodd" transform="matrix(1 0 0 1 0 0)" d="M0 -0.249939L595.5 -0.249939L595.5 -0.249939L595.5 842.0001L595.5 842.0001L0 842.0001z" /></clipPath><clipPath id="60"><path id="" clip-rule="evenodd" transform="matrix(1 0 0 1 0 0)" d="M68.11693 300.2556L112.3669 300.2556L112.3669 300.2556L112.3669 325.0056L112.3669 325.0056L68.11693 325.0056z" /></clipPath><clipPath id="61"><path id="" clip-rule="evenodd" transform="matrix(1 0 0 1 0 0)" d="M68.11693 312.6223C 68.11693 319.4521 73.65366 324.9889 80.48357 324.9889L80.48357 324.9889L99.73078 324.9889C 106.5607 324.9889 112.0974 319.4521 112.0974 312.6223C 112.0974 305.7924 106.5607 300.2556 99.73078 300.2556L99.73078 300.2556L80.48357 300.2556C 73.65366 300.2556 68.11693 305.7924 68.11693 312.6223z" /></clipPath><clipPath id="62"><path id="" clip-rule="evenodd" transform="matrix(1 0 0 1 0 0)" d="M68.11693 300.2556L112.3669 300.2556L112.3669 300.2556L112.3669 325.0056L112.3669 325.0056L68.11693 325.0056z" /></clipPath><clipPath id="63"><path id="" clip-rule="evenodd" transform="matrix(1 0 0 1 0 0)" d="M68.11693 300.2556L112.3669 300.2556L112.3669 300.2556L112.3669 324.9989L112.3669 324.9989L68.11693 324.9989z" /></clipPath><clipPath id="64"><path id="" clip-rule="evenodd" transform="matrix(1 0 0 1 0 0)" d="M68.11693 312.6189C 68.11693 319.447 73.65366 324.9822 80.48356 324.9822L80.48356 324.9822L99.73075 324.9822C 106.5607 324.9822 112.0974 319.447 112.0974 312.6189C 112.0974 305.7909 106.5607 300.2556 99.73075 300.2556L99.73075 300.2556L80.48356 300.2556C 73.65366 300.2556 68.11693 305.7909 68.11693 312.6189z" /></clipPath><clipPath id="65"><path id="" clip-rule="evenodd" transform="matrix(1 0 0 1 0 0)" d="M0 -0.249939L595.5 -0.249939L595.5 -0.249939L595.5 842.0001L595.5 842.0001L0 842.0001z" /></clipPath><clipPath id="66"><path id="" clip-rule="evenodd" transform="matrix(1 0 0 1 0 0)" d="M0 -0.249939L595.5 -0.249939L595.5 -0.249939L595.5 842.0001L595.5 842.0001L0 842.0001z" /></clipPath><clipPath id="67"><path id="" clip-rule="evenodd" transform="matrix(1 0 0 1 0 0)" d="M0 -0.249939L595.5 -0.249939L595.5 -0.249939L595.5 842.0001L595.5 842.0001L0 842.0001z" /></clipPath><clipPath id="68"><path id="" clip-rule="evenodd" transform="matrix(1 0 0 1 0 0)" d="M62.87318 580.4016L107.1232 580.4016L107.1232 580.4016L107.1232 605.1516L107.1232 605.1516L62.87318 605.1516z" /></clipPath><clipPath id="69"><path id="" clip-rule="evenodd" transform="matrix(1 0 0 1 0 0)" d="M62.87318 592.7682C 62.87318 599.5981 68.40991 605.1349 75.23982 605.1349L75.23982 605.1349L94.48704 605.1349C 101.3169 605.1349 106.8537 599.5981 106.8537 592.7682C 106.8537 585.9384 101.3169 580.4016 94.48704 580.4016L94.48704 580.4016L75.23982 580.4016C 68.40991 580.4016 62.87318 585.9384 62.87318 592.7682z" /></clipPath><clipPath id="70"><path id="" clip-rule="evenodd" transform="matrix(1 0 0 1 0 0)" d="M63.62318 581.1516L106.3732 581.1516L106.3732 581.1516L106.3732 604.4016L106.3732 604.4016L63.62318 604.4016z" /></clipPath><clipPath id="71"><path id="" clip-rule="evenodd" transform="matrix(1 0 0 1 0 0)" d="M75.23982 581.3016L94.48704 581.3016C 100.8199 581.3016 105.9537 586.4354 105.9537 592.7682C 105.9537 599.1011 100.8199 604.2349 94.48704 604.2349L94.48704 604.2349L75.23982 604.2349C 68.90697 604.2349 63.77318 599.1011 63.77318 592.7682C 63.77318 586.4354 68.90697 581.3016 75.23982 581.3016z" /></clipPath><clipPath id="72"><path id="" clip-rule="evenodd" transform="matrix(1 0 0 1 0 0)" d="M63.62318 580.528L106.3732 580.528L106.3732 580.528L106.3732 604.528L106.3732 604.528L63.62318 604.528z" /></clipPath><clipPath id="73"><path id="" clip-rule="evenodd" transform="matrix(1 0 0 1 0 0)" d="M62.87775 570.8374L107.1277 570.8374L107.1277 570.8374L107.1277 615.0874L107.1277 615.0874L62.87775 615.0874z" /></clipPath><clipPath id="74"><path id="" clip-rule="evenodd" transform="matrix(1 0 0 1 0 0)" d="M0 -0.249939L595.5 -0.249939L595.5 -0.249939L595.5 842.0001L595.5 842.0001L0 842.0001z" /></clipPath><clipPath id="75"><path id="" clip-rule="evenodd" transform="matrix(1 0 0 1 0 0)" d="M0 -0.249939L595.5 -0.249939L595.5 -0.249939L595.5 842.0001L595.5 842.0001L0 842.0001z" /></clipPath><clipPath id="76"><path id="" clip-rule="evenodd" transform="matrix(1 0 0 1 0 0)" d="M62.87318 580.4016L107.1232 580.4016L107.1232 580.4016L107.1232 605.1516L107.1232 605.1516L62.87318 605.1516z" /></clipPath><clipPath id="77"><path id="" clip-rule="evenodd" transform="matrix(1 0 0 1 0 0)" d="M62.87318 592.7682C 62.87318 599.5981 68.40991 605.1349 75.23982 605.1349L75.23982 605.1349L94.48704 605.1349C 101.3169 605.1349 106.8537 599.5981 106.8537 592.7682C 106.8537 585.9384 101.3169 580.4016 94.48704 580.4016L94.48704 580.4016L75.23982 580.4016C 68.40991 580.4016 62.87318 585.9384 62.87318 592.7682z" /></clipPath><clipPath id="78"><path id="" clip-rule="evenodd" transform="matrix(1 0 0 1 0 0)" d="M62.87318 580.4016L107.1232 580.4016L107.1232 580.4016L107.1232 605.1516L107.1232 605.1516L62.87318 605.1516z" /></clipPath><clipPath id="79"><path id="" clip-rule="evenodd" transform="matrix(1 0 0 1 0 0)" d="M62.87318 580.4016L107.1231 580.4016L107.1231 580.4016L107.1231 605.1449L107.1231 605.1449L62.87318 605.1449z" /></clipPath><clipPath id="80"><path id="" clip-rule="evenodd" transform="matrix(1 0 0 1 0 0)" d="M62.87318 592.7649C 62.87318 599.593 68.4099 605.1282 75.23981 605.1282L75.23981 605.1282L94.48701 605.1282C 101.3169 605.1282 106.8536 599.593 106.8536 592.7649C 106.8536 585.9369 101.3169 580.4016 94.48701 580.4016L94.48701 580.4016L75.23981 580.4016C 68.4099 580.4016 62.87318 585.9369 62.87318 592.7649z" /></clipPath><clipPath id="81"><path id="" clip-rule="evenodd" transform="matrix(1 0 0 1 0 0)" d="M0 -0.249939L595.5 -0.249939L595.5 -0.249939L595.5 842.0001L595.5 842.0001L0 842.0001z" /></clipPath><clipPath id="82"><path id="" clip-rule="evenodd" transform="matrix(1 0 0 1 0 0)" d="M328.6975 467.7304L576.1974 467.7304L576.1974 467.7304L576.1974 772.9804L576.1974 772.9804L328.6975 772.9804z" /></clipPath><clipPath id="83"><path id="" clip-rule="evenodd" transform="matrix(1 0 0 1 0 0)" d="M339.1697 735.9281L567.9197 735.9281L567.9197 735.9281L567.9197 738.9281L567.9197 738.9281L339.1697 738.9281z" /></clipPath><clipPath id="84"><path id="" clip-rule="evenodd" transform="matrix(1 0 0 1 0 0)" d="M0 -0.249939L595.5 -0.249939L595.5 -0.249939L595.5 842.0001L595.5 842.0001L0 842.0001z" /></clipPath><clipPath id="85"><path id="" clip-rule="evenodd" transform="matrix(1 0 0 1 0 0)" d="M0 -0.249939L595.5 -0.249939L595.5 -0.249939L595.5 842.0001L595.5 842.0001L0 842.0001z" /></clipPath><clipPath id="86"><path id="" clip-rule="evenodd" transform="matrix(1 0 0 1 0 0)" d="M347.293 558.4264L539.886 558.4264L539.886 558.4264L539.886 723.4144L539.886 723.4144L347.293 723.4144z" /></clipPath><clipPath id="87"><path id="" clip-rule="evenodd" transform="matrix(1 0 0 1 0 0)" d="M360.013 558.4264C 352.9855 558.4414 347.293 564.1414 347.293 571.1764L347.293 571.1764L347.293 710.0239C 347.293 717.0664 353.0005 722.7739 360.043 722.7739L360.043 722.7739L527.428 722.7739C 533.5255 722.7739 538.6255 718.4914 539.8855 712.7689L539.8855 712.7689L539.8855 568.4314C 538.633 562.7164 533.548 558.4414 527.458 558.4264L527.458 558.4264L360.013 558.4264z" /></clipPath><clipPath id="88"><path id="" clip-rule="evenodd" transform="matrix(1 0 0 1 0 0)" d="M347.293 558.4264L539.886 558.4264L539.886 558.4264L539.886 722.7724L539.886 722.7724L347.293 722.7724z" /></clipPath><clipPath id="89"><path id="" clip-rule="evenodd" transform="matrix(1 0 0 1 0 0)" d="M314.058 130.7408L561.5579 130.7408L561.5579 130.7408L561.5579 417.2408L561.5579 417.2408L314.058 417.2408z" /></clipPath><clipPath id="90"><path id="" clip-rule="evenodd" transform="matrix(1 0 0 1 0 0)" d="M328.9544 382.3396L557.7045 382.3396L557.7045 382.3396L557.7045 385.3396L557.7045 385.3396L328.9544 385.3396z" /></clipPath><clipPath id="91"><path id="" clip-rule="evenodd" transform="matrix(1 0 0 1 0 0)" d="M0 -0.249939L595.5 -0.249939L595.5 -0.249939L595.5 842.0001L595.5 842.0001L0 842.0001z" /></clipPath><clipPath id="92"><path id="" clip-rule="evenodd" transform="matrix(1 0 0 1 0 0)" d="M0 -0.249939L595.5 -0.249939L595.5 -0.249939L595.5 842.0001L595.5 842.0001L0 842.0001z" /></clipPath><clipPath id="93"><path id="" clip-rule="evenodd" transform="matrix(1 0 0 1 0 0)" d="M329.0625 230.7998L545.5862 230.7998L545.5862 230.7998L545.5862 369.7223L545.5862 369.7223L329.0625 369.7223z" /></clipPath><clipPath id="94"><path id="" clip-rule="evenodd" transform="matrix(1 0 0 1 0 0)" d="M341.8125 230.7998C 338.43 230.7998 335.19 232.1423 332.7975 234.5348C 330.405 236.9273 329.0625 240.1673 329.0625 243.5498L329.0625 243.5498L329.0625 356.9723C 329.0625 360.3548 330.405 363.5948 332.7975 365.9873C 335.19 368.3798 338.43 369.7223 341.8125 369.7223L341.8125 369.7223L532.59 369.7223C 535.9725 369.7223 539.2125 368.3798 541.605 365.9873C 543.9975 363.5948 545.34 360.3548 545.34 356.9723L545.34 356.9723L545.34 243.5498C 545.34 240.1673 543.9975 236.9273 541.605 234.5348C 539.2125 232.1423 535.9725 230.7998 532.59 230.7998L532.59 230.7998L341.8125 230.7998z" /></clipPath><clipPath id="95"><path id="" clip-rule="evenodd" transform="matrix(1 0 0 1 0 0)" d="M329.0625 230.7998L545.5862 230.7998L545.5862 230.7998L545.5862 369.7223L545.5862 369.7223L329.0625 369.7223z" /></clipPath><clipPath id="96"><path id="" clip-rule="evenodd" transform="matrix(1 0 0 1 0 0)" d="M0 -0.249939L595.5 -0.249939L595.5 -0.249939L595.5 842.0001L595.5 842.0001L0 842.0001z" /></clipPath><clipPath id="97"><path id="" clip-rule="evenodd" transform="matrix(1 0 0 1 0 0)" d="M0 -0.249939L595.5 -0.249939L595.5 -0.249939L595.5 842.0001L595.5 842.0001L0 842.0001z" /></clipPath><clipPath id="98"><path id="" clip-rule="evenodd" transform="matrix(1 0 0 1 0 0)" d="M0 -0.249939L595.5 -0.249939L595.5 -0.249939L595.5 842.0001L595.5 842.0001L0 842.0001z" /></clipPath><clipPath id="99"><path id="" clip-rule="evenodd" transform="matrix(1 0 0 1 0 0)" d="M323.4818 143.3613L367.7318 143.3613L367.7318 143.3613L367.7318 168.1113L367.7318 168.1113L323.4818 168.1113z" /></clipPath><clipPath id="100"><path id="" clip-rule="evenodd" transform="matrix(1 0 0 1 0 0)" d="M323.4818 155.7279C 323.4818 162.5578 329.0185 168.0945 335.8484 168.0945L335.8484 168.0945L355.0956 168.0945C 361.9256 168.0945 367.4623 162.5578 367.4623 155.7279C 367.4623 148.898 361.9256 143.3613 355.0956 143.3613L355.0956 143.3613L335.8484 143.3613C 329.0185 143.3613 323.4818 148.898 323.4818 155.7279z" /></clipPath><clipPath id="101"><path id="" clip-rule="evenodd" transform="matrix(1 0 0 1 0 0)" d="M324.2318 144.1113L366.9818 144.1113L366.9818 144.1113L366.9818 167.3613L366.9818 167.3613L324.2318 167.3613z" /></clipPath><clipPath id="102"><path id="" clip-rule="evenodd" transform="matrix(1 0 0 1 0 0)" d="M335.8484 144.2612L355.0956 144.2612C 361.4285 144.2612 366.5623 149.395 366.5623 155.7279C 366.5623 162.0607 361.4285 167.1946 355.0956 167.1946L355.0956 167.1946L335.8484 167.1946C 329.5156 167.1946 324.3818 162.0607 324.3818 155.7279C 324.3818 149.395 329.5156 144.2612 335.8484 144.2612z" /></clipPath><clipPath id="103"><path id="" clip-rule="evenodd" transform="matrix(1 0 0 1 0 0)" d="M324.2318 143.4877L366.9818 143.4877L366.9818 143.4877L366.9818 167.4877L366.9818 167.4877L324.2318 167.4877z" /></clipPath><clipPath id="104"><path id="" clip-rule="evenodd" transform="matrix(1 0 0 1 0 0)" d="M323.4864 133.7971L367.7364 133.7971L367.7364 133.7971L367.7364 178.0471L367.7364 178.0471L323.4864 178.0471z" /></clipPath><clipPath id="105"><path id="" clip-rule="evenodd" transform="matrix(1 0 0 1 0 0)" d="M0 -0.249939L595.5 -0.249939L595.5 -0.249939L595.5 842.0001L595.5 842.0001L0 842.0001z" /></clipPath><clipPath id="106"><path id="" clip-rule="evenodd" transform="matrix(1 0 0 1 0 0)" d="M0 -0.249939L595.5 -0.249939L595.5 -0.249939L595.5 842.0001L595.5 842.0001L0 842.0001z" /></clipPath><clipPath id="107"><path id="" clip-rule="evenodd" transform="matrix(1 0 0 1 0 0)" d="M323.4818 143.3613L367.7318 143.3613L367.7318 143.3613L367.7318 168.1113L367.7318 168.1113L323.4818 168.1113z" /></clipPath><clipPath id="108"><path id="" clip-rule="evenodd" transform="matrix(1 0 0 1 0 0)" d="M323.4818 155.7279C 323.4818 162.5578 329.0185 168.0945 335.8484 168.0945L335.8484 168.0945L355.0956 168.0945C 361.9256 168.0945 367.4623 162.5578 367.4623 155.7279C 367.4623 148.898 361.9256 143.3613 355.0956 143.3613L355.0956 143.3613L335.8484 143.3613C 329.0185 143.3613 323.4818 148.898 323.4818 155.7279z" /></clipPath><clipPath id="109"><path id="" clip-rule="evenodd" transform="matrix(1 0 0 1 0 0)" d="M323.4818 143.3613L367.7318 143.3613L367.7318 143.3613L367.7318 168.1113L367.7318 168.1113L323.4818 168.1113z" /></clipPath><clipPath id="110"><path id="" clip-rule="evenodd" transform="matrix(1 0 0 1 0 0)" d="M323.4818 143.3613L367.7318 143.3613L367.7318 143.3613L367.7318 168.1045L367.7318 168.1045L323.4818 168.1045z" /></clipPath><clipPath id="111"><path id="" clip-rule="evenodd" transform="matrix(1 0 0 1 0 0)" d="M323.4818 155.7245C 323.4818 162.5526 329.0185 168.0878 335.8484 168.0878L335.8484 168.0878L355.0956 168.0878C 361.9255 168.0878 367.4622 162.5526 367.4622 155.7245C 367.4622 148.8965 361.9255 143.3613 355.0956 143.3613L355.0956 143.3613L335.8484 143.3613C 329.0185 143.3613 323.4818 148.8965 323.4818 155.7245z" /></clipPath><clipPath id="112"><path id="" clip-rule="evenodd" transform="matrix(1 0 0 1 0 0)" d="M0 -0.249939L595.5 -0.249939L595.5 -0.249939L595.5 842.0001L595.5 842.0001L0 842.0001z" /></clipPath><clipPath id="113"><path id="" clip-rule="evenodd" transform="matrix(1 0 0 1 0 0)" d="M0 -0.249939L595.5 -0.249939L595.5 -0.249939L595.5 842.0001L595.5 842.0001L0 842.0001z" /></clipPath><clipPath id="114"><path id="" clip-rule="evenodd" transform="matrix(1 0 0 1 0 0)" d="M0 -0.249939L595.5 -0.249939L595.5 -0.249939L595.5 842.0001L595.5 842.0001L0 842.0001z" /></clipPath><clipPath id="115"><path id="" clip-rule="evenodd" transform="matrix(1 0 0 1 0 0)" d="M334.2782 476.417L378.5282 476.417L378.5282 476.417L378.5282 501.167L378.5282 501.167L334.2782 501.167z" /></clipPath><clipPath id="116"><path id="" clip-rule="evenodd" transform="matrix(1 0 0 1 0 0)" d="M334.2782 488.7837C 334.2782 495.6136 339.8149 501.1503 346.6449 501.1503L346.6449 501.1503L365.8921 501.1503C 372.722 501.1503 378.2587 495.6136 378.2587 488.7837C 378.2587 481.9538 372.722 476.417 365.8921 476.417L365.8921 476.417L346.6449 476.417C 339.8149 476.417 334.2782 481.9538 334.2782 488.7837z" /></clipPath><clipPath id="117"><path id="" clip-rule="evenodd" transform="matrix(1 0 0 1 0 0)" d="M335.0282 477.167L377.7782 477.167L377.7782 477.167L377.7782 500.417L377.7782 500.417L335.0282 500.417z" /></clipPath><clipPath id="118"><path id="" clip-rule="evenodd" transform="matrix(1 0 0 1 0 0)" d="M346.6449 477.317L365.8921 477.317C 372.2249 477.317 377.3587 482.4508 377.3587 488.7837C 377.3587 495.1165 372.2249 500.2503 365.8921 500.2503L365.8921 500.2503L346.6449 500.2503C 340.312 500.2503 335.1782 495.1165 335.1782 488.7837C 335.1782 482.4508 340.312 477.317 346.6449 477.317z" /></clipPath><clipPath id="119"><path id="" clip-rule="evenodd" transform="matrix(1 0 0 1 0 0)" d="M335.0282 476.5434L377.7782 476.5434L377.7782 476.5434L377.7782 500.5435L377.7782 500.5435L335.0282 500.5435z" /></clipPath><clipPath id="120"><path id="" clip-rule="evenodd" transform="matrix(1 0 0 1 0 0)" d="M334.2828 466.8528L378.5328 466.8528L378.5328 466.8528L378.5328 511.1028L378.5328 511.1028L334.2828 511.1028z" /></clipPath><clipPath id="121"><path id="" clip-rule="evenodd" transform="matrix(1 0 0 1 0 0)" d="M0 -0.249939L595.5 -0.249939L595.5 -0.249939L595.5 842.0001L595.5 842.0001L0 842.0001z" /></clipPath><clipPath id="122"><path id="" clip-rule="evenodd" transform="matrix(1 0 0 1 0 0)" d="M0 -0.249939L595.5 -0.249939L595.5 -0.249939L595.5 842.0001L595.5 842.0001L0 842.0001z" /></clipPath><clipPath id="123"><path id="" clip-rule="evenodd" transform="matrix(1 0 0 1 0 0)" d="M334.2782 476.417L378.5282 476.417L378.5282 476.417L378.5282 501.167L378.5282 501.167L334.2782 501.167z" /></clipPath><clipPath id="124"><path id="" clip-rule="evenodd" transform="matrix(1 0 0 1 0 0)" d="M334.2782 488.7837C 334.2782 495.6136 339.8149 501.1503 346.6449 501.1503L346.6449 501.1503L365.8921 501.1503C 372.722 501.1503 378.2587 495.6136 378.2587 488.7837C 378.2587 481.9538 372.722 476.417 365.8921 476.417L365.8921 476.417L346.6449 476.417C 339.8149 476.417 334.2782 481.9538 334.2782 488.7837z" /></clipPath><clipPath id="125"><path id="" clip-rule="evenodd" transform="matrix(1 0 0 1 0 0)" d="M334.2782 476.417L378.5282 476.417L378.5282 476.417L378.5282 501.167L378.5282 501.167L334.2782 501.167z" /></clipPath><clipPath id="126"><path id="" clip-rule="evenodd" transform="matrix(1 0 0 1 0 0)" d="M334.2782 476.417L378.5282 476.417L378.5282 476.417L378.5282 501.1603L378.5282 501.1603L334.2782 501.1603z" /></clipPath><clipPath id="127"><path id="" clip-rule="evenodd" transform="matrix(1 0 0 1 0 0)" d="M334.2782 488.7803C 334.2782 495.6084 339.8149 501.1436 346.6448 501.1436L346.6448 501.1436L365.892 501.1436C 372.722 501.1436 378.2587 495.6084 378.2587 488.7803C 378.2587 481.9523 372.722 476.417 365.892 476.417L365.892 476.417L346.6448 476.417C 339.8149 476.417 334.2782 481.9523 334.2782 488.7803z" /></clipPath><clipPath id="128"><path id="" clip-rule="evenodd" transform="matrix(1 0 0 1 0 0)" d="M0 -0.249939L595.5 -0.249939L595.5 -0.249939L595.5 842.0001L595.5 842.0001L0 842.0001z" /></clipPath><clipPath id="129"><path id="" clip-rule="evenodd" transform="matrix(1 0 0 1 0 0)" d="M493.1609 10.02655L580.1608 10.02655L580.1608 10.02655L580.1608 59.52655L580.1608 59.52655L493.1609 59.52655z" /></clipPath><clipPath id="130"><path id="" clip-rule="evenodd" transform="matrix(1 0 0 1 0 0)" d="M0 -0.249939L595.5 -0.249939L595.5 -0.249939L595.5 842.0001L595.5 842.0001L0 842.0001z" /></clipPath><clipPath id="131"><path id="" clip-rule="evenodd" transform="matrix(1 0 0 1 0 0)" d="M0 -0.249939L595.5 -0.249939L595.5 -0.249939L595.5 842.0001L595.5 842.0001L0 842.0001z" /></clipPath><clipPath id="132"><path id="" clip-rule="evenodd" transform="matrix(1 0 0 1 0 0)" d="M14.3249 10.02655L46.5749 10.02655L46.5749 10.02655L46.5749 42.27655L46.5749 42.27655L14.3249 42.27655z" /></clipPath><clipPath id="133"><path id="" clip-rule="evenodd" transform="matrix(1 0 0 1 0 0)" d="M14.3249 25.92078L14.3249 25.9234C 14.3249 30.13879 15.99947 34.18158 18.98022 37.16235C 21.96097 40.14307 26.00374 41.81769 30.21917 41.81769C 34.43458 41.81769 38.47735 40.14307 41.45811 37.16235C 44.43886 34.18158 46.11343 30.13879 46.11343 25.9234L46.11343 25.9234L46.11343 25.92078C 46.11343 21.70538 44.43886 17.6626 41.45811 14.68188C 38.47735 11.70111 34.43458 10.02655 30.21917 10.02655C 26.00374 10.02655 21.96097 11.70111 18.98022 14.68188C 15.99947 17.6626 14.3249 21.70538 14.3249 25.92078z" /></clipPath><clipPath id="134"><path id="" clip-rule="evenodd" transform="matrix(1 0 0 1 0 0)" d="M15.0749 10.77655L45.8249 10.77655L45.8249 10.77655L45.8249 41.52655L45.8249 41.52655L15.0749 41.52655z" /></clipPath><clipPath id="135"><path id="" clip-rule="evenodd" transform="matrix(1 0 0 1 0 0)" d="M30.21917 10.92651C 34.19589 10.92651 38.00974 12.50629 40.82171 15.31824C 43.63368 18.13025 45.21343 21.94409 45.21343 25.92078L45.21343 25.92078L45.21343 25.9234C 45.21343 29.90015 43.63368 33.71399 40.82171 36.52594C 38.00974 39.33789 34.19589 40.91766 30.21917 40.91766C 26.24244 40.91766 22.42859 39.33789 19.61662 36.52594C 16.80465 33.71399 15.2249 29.90015 15.2249 25.9234L15.2249 25.9234L15.2249 25.92078C 15.2249 21.94409 16.80465 18.13025 19.61662 15.31824C 22.42859 12.50629 26.24244 10.92651 30.21917 10.92651z" /></clipPath><clipPath id="136"><path id="" clip-rule="evenodd" transform="matrix(1 0 0 1 0 0)" d="M15.0736 10.77655L45.8236 10.77655L45.8236 10.77655L45.8236 41.52655L45.8236 41.52655L15.0736 41.52655z" /></clipPath><clipPath id="137"><path id="" clip-rule="evenodd" transform="matrix(1 0 0 1 0 0)" d="M14.3169 10.01984L45.8169 10.01984L45.8169 10.01984L45.8169 41.51984L45.8169 41.51984L14.3169 41.51984z" /></clipPath><clipPath id="138"><path id="" clip-rule="evenodd" transform="matrix(1 0 0 1 0 0)" d="M0 -0.249939L595.5 -0.249939L595.5 -0.249939L595.5 842.0001L595.5 842.0001L0 842.0001z" /></clipPath><clipPath id="139"><path id="" clip-rule="evenodd" transform="matrix(1 0 0 1 0 0)" d="M0 -0.249939L595.5 -0.249939L595.5 -0.249939L595.5 842.0001L595.5 842.0001L0 842.0001z" /></clipPath><clipPath id="140"><path id="" clip-rule="evenodd" transform="matrix(1 0 0 1 0 0)" d="M14.3249 10.02655L46.5749 10.02655L46.5749 10.02655L46.5749 42.27655L46.5749 42.27655L14.3249 42.27655z" /></clipPath><clipPath id="141"><path id="" clip-rule="evenodd" transform="matrix(1 0 0 1 0 0)" d="M14.3249 25.92078L14.3249 25.9234C 14.3249 30.13879 15.99947 34.18158 18.98022 37.16235C 21.96097 40.14307 26.00374 41.81769 30.21917 41.81769C 34.43458 41.81769 38.47735 40.14307 41.45811 37.16235C 44.43886 34.18158 46.11343 30.13879 46.11343 25.9234L46.11343 25.9234L46.11343 25.92078C 46.11343 21.70538 44.43886 17.6626 41.45811 14.68188C 38.47735 11.70111 34.43458 10.02655 30.21917 10.02655C 26.00374 10.02655 21.96097 11.70111 18.98022 14.68188C 15.99947 17.6626 14.3249 21.70538 14.3249 25.92078z" /></clipPath><clipPath id="142"><path id="" clip-rule="evenodd" transform="matrix(1 0 0 1 0 0)" d="M14.3249 10.02655L45.8249 10.02655L45.8249 10.02655L45.8249 41.52655L45.8249 41.52655L14.3249 41.52655z" /></clipPath><clipPath id="143"><path id="" clip-rule="evenodd" transform="matrix(1 0 0 1 0 0)" d="M14.3249 10.02655L46.56752 10.02655L46.56752 10.02655L46.56752 42.26654L46.56752 42.26654L14.3249 42.26654z" /></clipPath><clipPath id="144"><path id="" clip-rule="evenodd" transform="matrix(1 0 0 1 0 0)" d="M14.3249 25.91583L14.3249 25.91846C 14.3249 30.13257 15.99909 34.17407 18.97916 37.15393C 21.95923 40.13373 26.00107 41.8078 30.21552 41.8078C 34.42998 41.8078 38.47182 40.13373 41.4519 37.15393C 44.43196 34.17407 46.10615 30.13257 46.10615 25.91846L46.10615 25.91846L46.10615 25.91583C 46.10615 21.70172 44.43196 17.66022 41.4519 14.68042C 38.47182 11.70056 34.42998 10.02655 30.21552 10.02655C 26.00107 10.02655 21.95923 11.70056 18.97916 14.68042C 15.99909 17.66022 14.3249 21.70172 14.3249 25.91583z" /></clipPath><clipPath id="145"><path id="" clip-rule="evenodd" transform="matrix(1 0 0 1 0 0)" d="M0 -0.249939L595.5 -0.249939L595.5 -0.249939L595.5 842.0001L595.5 842.0001L0 842.0001z" /></clipPath></defs><g transform="matrix(1.333333 0 0 1.333333 0 0)"><g clip-path="url(#1)"><g clip-path="url(#2)"><path id="1" transform="matrix(1 0 0 -1 0 842)" d="M0 842.2499L595.4999 842.2499L595.4999 -6.103516E-05L0 -6.103516E-05z" stroke="none" fill="#FFFFFF" fill-rule="nonzero" /></g><g clip-path="url(#3)"><path id="2" transform="matrix(1 0 0 -1 0 842)" d="M0 842.2499L595.4999 842.2499L595.4999 -6.103516E-05L0 -6.103516E-05z" stroke="none" fill="#FFFFFF" fill-rule="nonzero" /></g><g clip-path="url(#4)"><g><g clip-path="url(#5)"><g clip-path="url(#6)"><g transform="matrix(0 0.5128205 -0.5127462 0 522.0178 30.75189)"><g transform="matrix(1 0 0 1 0 0)"><image x="0" y="0" xlink:href="img_01.png" width="1521" height="863" /></g></g></g></g></g></g><g clip-path="url(#7)"><g transform="matrix(0.2400582 0 0 0.2399011 58.25592 547.7314)"><g transform="matrix(1 0 0 1 0 0)"><image x="0" y="0" xlink:href="img_02.png" width="1031" height="1213" /></g></g></g><g clip-path="url(#8)"><g transform="matrix(0.9989082 0 0 1 85.05821 768.6815)"><g transform="matrix(1 0 0 1 0 0)"><image x="0" y="0" xlink:href="img_03.png" width="229" height="3" /></g></g></g><g clip-path="url(#9)"><g clip-path="url(#10)"><g clip-path="url(#11)"><g clip-path="url(#12)"><g clip-path="url(#13)"><g transform="matrix(0.5641085 0 0 0.5636947 86.53619 621.4025)"><g transform="matrix(1 0 0 1 0 0)"><image x="0" y="0" xlink:href="img_04.png" width="351" height="271" /></g></g></g></g></g></g></g><g clip-path="url(#14)"><g transform="matrix(0.2399156 0 0 0.2400628 46.11343 21.40845)"><g transform="matrix(1 0 0 1 0 0)"><image x="0" y="0" xlink:href="img_05.png" width="1066" height="956" /></g></g></g><g clip-path="url(#15)"><g transform="matrix(0.998798 0 0 0.9374999 68.11692 223.0467)"><g transform="matrix(1 0 0 1 0 0)"><image x="0" y="0" xlink:href="img_06.png" width="208" height="4" /></g></g></g><g clip-path="url(#16)"><g clip-path="url(#17)"><g clip-path="url(#18)"><g clip-path="url(#19)"><g clip-path="url(#20)"><g transform="matrix(0.6146431 0 0 0.6151191 45.38893 63.57422)"><g transform="matrix(1 0 0 1 0 0)"><image x="0" y="0" xlink:href="img_07.png" width="212" height="170" /></g></g></g></g></g></g></g><g clip-path="url(#21)"><g clip-path="url(#22)"><g clip-path="url(#23)"><g clip-path="url(#24)"><g clip-path="url(#25)"><g transform="matrix(0.602659 0 0 0.602659 175.7502 103.802)"><g transform="matrix(1 0 0 1 0 0)"><image x="0" y="0" xlink:href="img_08.png" width="220" height="176" /></g></g></g></g></g></g></g><g clip-path="url(#26)"><g transform="matrix(0.2408052 0 0 0.2407776 52.38192 272.7305)"><g transform="matrix(1 0 0 1 0 0)"><image x="0" y="0" xlink:href="img_09.png" width="1006" height="1003" /></g></g></g><g clip-path="url(#27)"><g transform="matrix(0.9988937 0 0 0.9374999 65.11692 480.0469)"><g transform="matrix(1 0 0 1 0 0)"><image x="0" y="0" xlink:href="img_10.png" width="226" height="4" /></g></g></g><g clip-path="url(#28)"><g clip-path="url(#29)"><g clip-path="url(#30)"><g clip-path="url(#31)"><g clip-path="url(#32)"><g transform="matrix(0.6205356 0 0 0.6191505 72.55467 326.5444)"><g transform="matrix(1 0 0 1 0 0)"><image x="0" y="0" xlink:href="img_11.png" width="342" height="256" /></g></g></g></g></g></g></g><g clip-path="url(#33)"></g><g clip-path="url(#34)"><g clip-path="url(#35)"><g clip-path="url(#36)"><g clip-path="url(#37)"><g clip-path="url(#38)"><g clip-path="url(#39)"><g clip-path="url(#40)"><g clip-path="url(#41)"><path id="257" transform="matrix(1 0 0 -1 0 842)" d="M71.76127 811.4387C 63.61103 811.4387 56.98295 804.8107 56.98295 796.6604C 56.98295 788.5101 63.61103 781.8821 71.76127 781.8821C 79.91151 781.8821 86.5396 788.5101 86.5396 796.6604C 86.5396 804.8107 79.91151 811.4387 71.76127 811.4387zM71.76127 781.6604C 63.4928 781.6604 56.76127 788.3919 56.76127 796.6604C 56.76127 804.9289 63.4928 811.6604 71.76127 811.6604C 80.02974 811.6604 86.76127 804.9289 86.76127 796.6604C 86.76127 788.3919 80.02974 781.6604 71.76127 781.6604z" stroke="none" fill="#000000" fill-rule="nonzero" /></g></g></g></g></g></g></g></g><g clip-path="url(#42)"><g clip-path="url(#43)"><g clip-path="url(#44)"><g clip-path="url(#45)"><g clip-path="url(#46)"><g clip-path="url(#47)"><g clip-path="url(#48)"><path id="258" transform="matrix(1 0 0 -1 0 842)" d="M56.7557 796.7958C 56.7557 789.9677 62.29185 784.4325 69.12105 784.4325L69.12105 784.4325L74.1677 784.4325C 80.99689 784.4325 86.53304 789.9677 86.53304 796.7958C 86.53304 803.6238 80.99689 809.1591 74.1677 809.1591L74.1677 809.1591L69.12105 809.1591C 62.29185 809.1591 56.7557 803.6238 56.7557 796.7958z" stroke="#000000" stroke-width="1.5" fill="none" /></g></g></g></g></g></g></g><g clip-path="url(#49)"></g><g clip-path="url(#50)"><g clip-path="url(#51)"><g clip-path="url(#52)"><g clip-path="url(#53)"><g clip-path="url(#54)"><g clip-path="url(#55)"><g clip-path="url(#56)"><g clip-path="url(#57)"><path id="260" transform="matrix(1 0 0 -1 0 842)" d="M90.24649 550.9816C 78.22488 550.9816 68.44846 541.2052 68.44846 529.1836C 68.44846 517.162 78.22488 507.3856 90.24649 507.3856C 102.2681 507.3856 112.0445 517.162 112.0445 529.1836C 112.0445 541.2052 102.2681 550.9816 90.24649 550.9816zM90.24649 507.0586C 78.05049 507.0586 68.12149 516.9876 68.12149 529.1836C 68.12149 541.3796 78.05049 551.3086 90.24649 551.3086C 102.4425 551.3086 112.3715 541.3796 112.3715 529.1836C 112.3715 516.9876 102.4425 507.0586 90.24649 507.0586z" stroke="none" fill="#000000" fill-rule="nonzero" /></g></g></g></g></g></g></g></g><g clip-path="url(#58)"><g clip-path="url(#59)"><g clip-path="url(#60)"><g clip-path="url(#61)"><g clip-path="url(#62)"><g clip-path="url(#63)"><g clip-path="url(#64)"><path id="261" transform="matrix(1 0 0 -1 0 842)" d="M68.11692 529.381C 68.11692 522.553 73.65365 517.0178 80.48355 517.0178L80.48355 517.0178L99.73074 517.0178C 106.5607 517.0178 112.0974 522.553 112.0974 529.381C 112.0974 536.2091 106.5607 541.7443 99.73074 541.7443L99.73074 541.7443L80.48355 541.7443C 73.65365 541.7443 68.11692 536.2091 68.11692 529.381z" stroke="#000000" stroke-width="1.5" fill="none" /></g></g></g></g></g></g></g><g clip-path="url(#65)"></g><g clip-path="url(#66)"><g clip-path="url(#67)"><g clip-path="url(#68)"><g clip-path="url(#69)"><g clip-path="url(#70)"><g clip-path="url(#71)"><g clip-path="url(#72)"><g clip-path="url(#73)"><path id="264" transform="matrix(1 0 0 -1 0 842)" d="M85.00275 270.8356C 72.98113 270.8356 63.20472 261.0592 63.20472 249.0376C 63.20472 237.016 72.98113 227.2395 85.00275 227.2395C 97.02435 227.2395 106.8008 237.016 106.8008 249.0376C 106.8008 261.0592 97.02435 270.8356 85.00275 270.8356zM85.00275 226.9126C 72.80675 226.9126 62.87775 236.8416 62.87775 249.0376C 62.87775 261.2336 72.80675 271.1626 85.00275 271.1626C 97.19875 271.1626 107.1277 261.2336 107.1277 249.0376C 107.1277 236.8416 97.19875 226.9126 85.00275 226.9126z" stroke="none" fill="#000000" fill-rule="nonzero" /></g></g></g></g></g></g></g></g><g clip-path="url(#74)"><g clip-path="url(#75)"><g clip-path="url(#76)"><g clip-path="url(#77)"><g clip-path="url(#78)"><g clip-path="url(#79)"><g clip-path="url(#80)"><path id="265" transform="matrix(1 0 0 -1 0 842)" d="M62.87318 249.2351C 62.87318 242.407 68.4099 236.8718 75.23981 236.8718L75.23981 236.8718L94.487 236.8718C 101.3169 236.8718 106.8536 242.407 106.8536 249.2351C 106.8536 256.0631 101.3169 261.5984 94.487 261.5984L94.487 261.5984L75.23981 261.5984C 68.4099 261.5984 62.87318 256.0631 62.87318 249.2351z" stroke="#000000" stroke-width="1.5" fill="none" /></g></g></g></g></g></g></g><g clip-path="url(#81)"></g><g clip-path="url(#82)"><g transform="matrix(0.2400582 0 0 0.2405437 328.6975 467.7304)"><g transform="matrix(1 0 0 1 0 0)"><image x="0" y="0" xlink:href="img_12.png" width="1031" height="1269" /></g></g></g><g clip-path="url(#83)"><g transform="matrix(0.9989082 0 0 1 339.1697 735.9281)"><g transform="matrix(1 0 0 1 0 0)"><image x="0" y="0" xlink:href="img_13.png" width="229" height="3" /></g></g></g><g clip-path="url(#84)"><g clip-path="url(#85)"><g clip-path="url(#86)"><g clip-path="url(#87)"><g clip-path="url(#88)"><g transform="matrix(0.6356412 0 0 0.6321 347.1235 558.4265)"><g transform="matrix(1 0 0 1 0 0)"><image x="0" y="0" xlink:href="img_14.png" width="304" height="260" /></g></g></g></g></g></g></g><g clip-path="url(#89)"><g transform="matrix(0.2400582 0 0 0.2399497 314.0579 130.7408)"><g transform="matrix(1 0 0 1 0 0)"><image x="0" y="0" xlink:href="img_15.png" width="1031" height="1194" /></g></g></g><g clip-path="url(#90)"><g transform="matrix(0.9989082 0 0 1 328.9544 382.3396)"><g transform="matrix(1 0 0 1 0 0)"><image x="0" y="0" xlink:href="img_16.png" width="229" height="3" /></g></g></g><g clip-path="url(#91)"><g clip-path="url(#92)"><g clip-path="url(#93)"><g clip-path="url(#94)"><g clip-path="url(#95)"><g transform="matrix(0.6331103 0 0 0.6316971 329.0624 219.3781)"><g transform="matrix(1 0 0 1 0 0)"><image x="0" y="0" xlink:href="img_11.png" width="342" height="256" /></g></g></g></g></g></g></g><g clip-path="url(#96)"></g><g clip-path="url(#97)"><g clip-path="url(#98)"><g clip-path="url(#99)"><g clip-path="url(#100)"><g clip-path="url(#101)"><g clip-path="url(#102)"><g clip-path="url(#103)"><g clip-path="url(#104)"><path id="459" transform="matrix(1 0 0 -1 0 842)" d="M345.6114 707.876C 333.5898 707.876 323.8133 698.0995 323.8133 686.0779C 323.8133 674.0563 333.5898 664.2799 345.6114 664.2799C 357.633 664.2799 367.4094 674.0563 367.4094 686.0779C 367.4094 698.0995 357.633 707.876 345.6114 707.876zM345.6114 663.9529C 333.4154 663.9529 323.4864 673.882 323.4864 686.0779C 323.4864 698.2739 333.4154 708.2029 345.6114 708.2029C 357.8073 708.2029 367.7364 698.2739 367.7364 686.0779C 367.7364 673.882 357.8073 663.9529 345.6114 663.9529z" stroke="none" fill="#000000" fill-rule="nonzero" /></g></g></g></g></g></g></g></g><g clip-path="url(#105)"><g clip-path="url(#106)"><g clip-path="url(#107)"><g clip-path="url(#108)"><g clip-path="url(#109)"><g clip-path="url(#110)"><g clip-path="url(#111)"><path id="460" transform="matrix(1 0 0 -1 0 842)" d="M323.4818 686.2755C 323.4818 679.4474 329.0185 673.9122 335.8484 673.9122L335.8484 673.9122L355.0956 673.9122C 361.9255 673.9122 367.4622 679.4474 367.4622 686.2755C 367.4622 693.1035 361.9255 698.6387 355.0956 698.6387L355.0956 698.6387L335.8484 698.6387C 329.0185 698.6387 323.4818 693.1035 323.4818 686.2755z" stroke="#000000" stroke-width="1.5" fill="none" /></g></g></g></g></g></g></g><g clip-path="url(#112)"></g><g clip-path="url(#113)"><g clip-path="url(#114)"><g clip-path="url(#115)"><g clip-path="url(#116)"><g clip-path="url(#117)"><g clip-path="url(#118)"><g clip-path="url(#119)"><g clip-path="url(#120)"><path id="463" transform="matrix(1 0 0 -1 0 842)" d="M356.4078 374.8202C 344.3862 374.8202 334.6097 365.0438 334.6097 353.0222C 334.6097 341.0006 344.3862 331.2242 356.4078 331.2242C 368.4294 331.2242 378.2058 341.0006 378.2058 353.0222C 378.2058 365.0438 368.4294 374.8202 356.4078 374.8202zM356.4078 330.8972C 344.2118 330.8972 334.2828 340.8262 334.2828 353.0222C 334.2828 365.2182 344.2118 375.1472 356.4078 375.1472C 368.6038 375.1472 378.5328 365.2182 378.5328 353.0222C 378.5328 340.8262 368.6038 330.8972 356.4078 330.8972z" stroke="none" fill="#000000" fill-rule="nonzero" /></g></g></g></g></g></g></g></g><g clip-path="url(#121)"><g clip-path="url(#122)"><g clip-path="url(#123)"><g clip-path="url(#124)"><g clip-path="url(#125)"><g clip-path="url(#126)"><g clip-path="url(#127)"><path id="464" transform="matrix(1 0 0 -1 0 842)" d="M334.2782 353.2197C 334.2782 346.3916 339.8149 340.8564 346.6448 340.8564L346.6448 340.8564L365.892 340.8564C 372.7219 340.8564 378.2587 346.3916 378.2587 353.2197C 378.2587 360.0477 372.7219 365.5829 365.892 365.5829L365.892 365.5829L346.6448 365.5829C 339.8149 365.5829 334.2782 360.0477 334.2782 353.2197z" stroke="#000000" stroke-width="1.5" fill="none" /></g></g></g></g></g></g></g><g clip-path="url(#128)"></g><g clip-path="url(#129)"><g transform="matrix(0.05719921 0 0 0.05735804 493.1608 10.02655)"><g transform="matrix(1 0 0 1 0 0)"><image x="0" y="0" xlink:href="img_17.png" width="1521" height="863" /></g></g></g><g clip-path="url(#130)"><g clip-path="url(#131)"><g clip-path="url(#132)"><g clip-path="url(#133)"><g clip-path="url(#134)"><g clip-path="url(#135)"><g clip-path="url(#136)"><g clip-path="url(#137)"><path id="468" transform="matrix(1 0 0 -1 0 842)" d="M30.0669 831.7473C 21.50914 831.7473 14.54966 824.7878 14.54966 816.2301C 14.54966 807.6724 21.50914 800.7129 30.0669 800.7129C 38.62466 800.7129 45.58414 807.6724 45.58414 816.2301C 45.58414 824.7878 38.62466 831.7473 30.0669 831.7473zM30.0669 800.4801C 21.385 800.4801 14.3169 807.5482 14.3169 816.2301C 14.3169 824.912 21.385 831.9801 30.0669 831.9801C 38.74879 831.9801 45.8169 824.912 45.8169 816.2301C 45.8169 807.5482 38.74879 800.4801 30.0669 800.4801z" stroke="none" fill="#000000" fill-rule="nonzero" /></g></g></g></g></g></g></g></g><g clip-path="url(#138)"><g clip-path="url(#139)"><g clip-path="url(#140)"><g clip-path="url(#141)"><g clip-path="url(#142)"><g clip-path="url(#143)"><g clip-path="url(#144)"><path id="469" transform="matrix(1 0 0 -1 0 842)" d="M14.3249 816.0841L14.3249 816.0815C 14.3249 811.8674 15.99909 807.8259 18.97916 804.8461C 21.95922 801.8663 26.00107 800.1922 30.21552 800.1922C 34.42998 800.1922 38.47182 801.8663 41.45189 804.8461C 44.43196 807.8259 46.10615 811.8674 46.10615 816.0815L46.10615 816.0815L46.10615 816.0841C 46.10615 820.2982 44.43196 824.3397 41.45189 827.3196C 38.47182 830.2994 34.42998 831.9734 30.21552 831.9734C 26.00107 831.9734 21.95922 830.2994 18.97916 827.3196C 15.99909 824.3397 14.3249 820.2982 14.3249 816.0841z" stroke="#000000" stroke-width="1.5" fill="none" /></g></g></g></g></g></g></g><g clip-path="url(#145)"></g></g></g></svg>