<svg xmlns="http://www.w3.org/2000/svg" xmlns:xlink="http://www.w3.org/1999/xlink" id="body_1" preserveAspectRatio="xMinYMin meet" viewBox="0 0 793 1123"><defs><clipPath id="1"><path id="" clip-rule="evenodd" transform="matrix(1 0 0 1 0 0)" d="M0 842L0 -0.25L0 -0.25L595.5 -0.25L595.5 -0.25L595.5 842L595.5 842L0 842z" /></clipPath><clipPath id="2"><path id="" clip-rule="evenodd" transform="matrix(1 0 0 1 0 0)" d="M0 -0.249939L595.5 -0.249939L595.5 -0.249939L595.5 842.0001L595.5 842.0001L0 842.0001z" /></clipPath><clipPath id="3"><path id="" clip-rule="evenodd" transform="matrix(1 0 0 1 0 0)" d="M0 -0.249939L595.5 -0.249939L595.5 -0.249939L595.5 842.0001L595.5 842.0001L0 842.0001z" /></clipPath><clipPath id="4"><path id="" clip-rule="evenodd" transform="matrix(1 0 0 1 0 0)" d="M0 -0.249939L595.5 -0.249939L595.5 -0.249939L595.5 842.0001L595.5 842.0001L0 842.0001z" /></clipPath><clipPath id="5"><path id="" clip-rule="evenodd" transform="matrix(1 0 0 1 0 0)" d="M83.99999 42.71008L527.52 42.71008L527.52 42.71008L527.52 822.9501L527.52 822.9501L83.99999 822.9501z" /></clipPath><clipPath id="6"><path id="" clip-rule="evenodd" transform="matrix(1 0 0 1 0 0)" d="M84.8288 42.90796L527.3288 42.90796L527.3288 42.90796L527.3288 822.908L527.3288 822.908L84.8288 822.908z" /></clipPath><clipPath id="7"><path id="" clip-rule="evenodd" transform="matrix(1 0 0 1 0 0)" d="M20.16 84.71008L581.52 84.71008L581.52 84.71008L581.52 364.0701L581.52 364.0701L20.16 364.0701z" /></clipPath><clipPath id="8"><path id="" clip-rule="evenodd" transform="matrix(1 0 0 1 0 0)" d="M35.04834 99.72888L569.0914 99.72888L569.0914 99.72888L569.0914 349.2089L569.0914 349.2089L35.04834 349.2089z" /></clipPath><clipPath id="9"><path id="" clip-rule="evenodd" transform="matrix(1 0 0 1 0 0)" d="M64.29835 99.72888L539.3788 99.72888C 555.5332 99.72888 568.6288 112.8245 568.6288 128.9789L568.6288 128.9789L568.6288 319.9589C 568.6288 336.1132 555.5332 349.2089 539.3788 349.2089L539.3788 349.2089L64.29835 349.2089C 48.14401 349.2089 35.04834 336.1132 35.04834 319.9589L35.04834 319.9589L35.04834 128.9789C 35.04834 112.8245 48.14401 99.72888 64.29835 99.72888z" /></clipPath><clipPath id="10"><path id="" clip-rule="evenodd" transform="matrix(1 0 0 1 0 0)" d="M35.04834 99.72888L568.2983 99.72888L568.2983 99.72888L568.2983 349.4789L568.2983 349.4789L35.04834 349.4789z" /></clipPath><clipPath id="11"><path id="" clip-rule="evenodd" transform="matrix(1 0 0 1 0 0)" d="M35.05914 99.72888L569.4902 99.72888L569.4902 99.72888L569.4902 352.0991L569.4902 352.0991L35.05914 352.0991z" /></clipPath><clipPath id="12"><path id="" clip-rule="evenodd" transform="matrix(1 0 0 1 0 0)" d="M64.30782 99.72888L539.3669 99.72888C 555.5206 99.72888 568.6156 112.824 568.6156 128.9775L568.6156 128.9775L568.6156 319.9489C 568.6156 336.1025 555.5206 349.1976 539.3669 349.1976L539.3669 349.1976L64.30782 349.1976C 48.15422 349.1976 35.05914 336.1025 35.05914 319.9489L35.05914 319.9489L35.05914 128.9775C 35.05914 112.824 48.15422 99.72888 64.30782 99.72888z" /></clipPath><clipPath id="13"><path id="" clip-rule="evenodd" transform="matrix(1 0 0 1 0 0)" d="M0 -0.249939L595.5 -0.249939L595.5 -0.249939L595.5 842.0001L595.5 842.0001L0 842.0001z" /></clipPath><clipPath id="14"><path id="" clip-rule="evenodd" transform="matrix(1 0 0 1 0 0)" d="M0 -0.249939L595.5 -0.249939L595.5 -0.249939L595.5 842.0001L595.5 842.0001L0 842.0001z" /></clipPath><clipPath id="15"><path id="" clip-rule="evenodd" transform="matrix(1 0 0 1 0 0)" d="M55.32672 139.8876L178.2295 139.8876L178.2295 139.8876L178.2295 271.4319L178.2295 271.4319L55.32672 271.4319z" /></clipPath><clipPath id="16"><path id="" clip-rule="evenodd" transform="matrix(1 0 0 1 0 0)" d="M65.82672 139.8876L167.7295 139.8876C 170.5143 139.8876 173.185 140.9938 175.1541 142.963C 177.1233 144.9321 178.2295 147.6028 178.2295 150.3876L178.2295 150.3876L178.2295 260.5653C 178.2295 263.3501 177.1233 266.0208 175.1541 267.9899C 173.185 269.959 170.5143 271.0653 167.7295 271.0653L167.7295 271.0653L65.82672 271.0653C 63.04194 271.0653 60.37123 269.959 58.4021 267.9899C 56.43296 266.0208 55.32672 263.3501 55.32672 260.5653L55.32672 260.5653L55.32672 150.3876C 55.32672 147.6028 56.43296 144.9321 58.4021 142.963C 60.37123 140.9938 63.04194 139.8876 65.82672 139.8876z" /></clipPath><clipPath id="17"><path id="" clip-rule="evenodd" transform="matrix(1 0 0 1 0 0)" d="M55.32672 139.8876L178.2295 139.8876L178.2295 139.8876L178.2295 270.9519L178.2295 270.9519L55.32672 270.9519z" /></clipPath><clipPath id="18"><path id="" clip-rule="evenodd" transform="matrix(1 0 0 1 0 0)" d="M0 -0.249939L595.5 -0.249939L595.5 -0.249939L595.5 842.0001L595.5 842.0001L0 842.0001z" /></clipPath><clipPath id="19"><path id="" clip-rule="evenodd" transform="matrix(1 0 0 1 0 0)" d="M0 -0.249939L595.5 -0.249939L595.5 -0.249939L595.5 842.0001L595.5 842.0001L0 842.0001z" /></clipPath><clipPath id="20"><path id="" clip-rule="evenodd" transform="matrix(1 0 0 1 0 0)" d="M55.32672 139.8876L178.3267 139.8876L178.3267 139.8876L178.3267 271.1376L178.3267 271.1376L55.32672 271.1376z" /></clipPath><clipPath id="21"><path id="" clip-rule="evenodd" transform="matrix(1 0 0 1 0 0)" d="M55.32716 139.8876L178.2971 139.8876L178.2971 139.8876L178.2971 271.0555L178.2971 271.0555L55.32716 271.0555z" /></clipPath><clipPath id="22"><path id="" clip-rule="evenodd" transform="matrix(1 0 0 1 0 0)" d="M65.82637 139.8876L167.7216 139.8876C 170.5061 139.8876 173.1767 140.9937 175.1456 142.9627C 177.1146 144.9317 178.2208 147.6022 178.2208 150.3868L178.2208 150.3868L178.2208 260.5563C 178.2208 263.3408 177.1146 266.0114 175.1456 267.9803C 173.1767 269.9493 170.5061 271.0555 167.7216 271.0555L167.7216 271.0555L65.82637 271.0555C 63.04181 271.0555 60.37129 269.9493 58.40231 267.9803C 56.43332 266.0114 55.32716 263.3408 55.32716 260.5563L55.32716 260.5563L55.32716 150.3868C 55.32716 147.6022 56.43332 144.9317 58.40231 142.9627C 60.37129 140.9937 63.04181 139.8876 65.82637 139.8876z" /></clipPath><clipPath id="23"><path id="" clip-rule="evenodd" transform="matrix(1 0 0 1 0 0)" d="M0 -0.249939L595.5 -0.249939L595.5 -0.249939L595.5 842.0001L595.5 842.0001L0 842.0001z" /></clipPath><clipPath id="24"><path id="" clip-rule="evenodd" transform="matrix(1 0 0 1 0 0)" d="M14.4 507.5901L572.64 507.5901L572.64 507.5901L572.64 830.39L572.64 830.39L14.4 830.39z" /></clipPath><clipPath id="25"><path id="" clip-rule="evenodd" transform="matrix(1 0 0 1 0 0)" d="M26.64667 519.6893L561.0145 519.6893L561.0145 519.6893L561.0145 817.0765L561.0145 817.0765L26.64667 817.0765z" /></clipPath><clipPath id="26"><path id="" clip-rule="evenodd" transform="matrix(1 0 0 1 0 0)" d="M55.89667 519.6893L530.9773 519.6893C 547.1317 519.6893 560.2273 532.7849 560.2273 548.9393L560.2273 548.9393L560.2273 787.8265C 560.2273 803.9809 547.1317 817.0765 530.9773 817.0765L530.9773 817.0765L55.89667 817.0765C 39.74234 817.0765 26.64667 803.9809 26.64667 787.8265L26.64667 787.8265L26.64667 548.9393C 26.64667 532.7849 39.74234 519.6893 55.89667 519.6893z" /></clipPath><clipPath id="27"><path id="" clip-rule="evenodd" transform="matrix(1 0 0 1 0 0)" d="M26.64667 519.6893L559.8967 519.6893L559.8967 519.6893L559.8967 817.4392L559.8967 817.4392L26.64667 817.4392z" /></clipPath><clipPath id="28"><path id="" clip-rule="evenodd" transform="matrix(1 0 0 1 0 0)" d="M26.64667 519.6897L560.4056 519.6897L560.4056 519.6897L560.4056 818.2328L560.4056 818.2328L26.64667 818.2328z" /></clipPath><clipPath id="29"><path id="" clip-rule="evenodd" transform="matrix(1 0 0 1 0 0)" d="M55.89653 519.6897L530.9749 519.6897C 547.1292 519.6897 560.2248 532.7853 560.2248 548.9395L560.2248 548.9395L560.2248 787.8257C 560.2248 803.98 547.1292 817.0756 530.9749 817.0756L530.9749 817.0756L55.89653 817.0756C 39.74228 817.0756 26.64667 803.98 26.64667 787.8257L26.64667 787.8257L26.64667 548.9395C 26.64667 532.7853 39.74228 519.6897 55.89653 519.6897z" /></clipPath><clipPath id="30"><path id="" clip-rule="evenodd" transform="matrix(1 0 0 1 0 0)" d="M0 -0.249939L595.5 -0.249939L595.5 -0.249939L595.5 842.0001L595.5 842.0001L0 842.0001z" /></clipPath><clipPath id="31"><path id="" clip-rule="evenodd" transform="matrix(1 0 0 1 0 0)" d="M0 -0.249939L595.5 -0.249939L595.5 -0.249939L595.5 842.0001L595.5 842.0001L0 842.0001z" /></clipPath><clipPath id="32"><path id="" clip-rule="evenodd" transform="matrix(1 0 0 1 0 0)" d="M43.91328 573.8032L192.8714 573.8032L192.8714 573.8032L192.8714 746.036L192.8714 746.036L43.91328 746.036z" /></clipPath><clipPath id="33"><path id="" clip-rule="evenodd" transform="matrix(1 0 0 1 0 0)" d="M54.41328 573.8032L182.3714 573.8032C 188.1704 573.8032 192.8714 578.5042 192.8714 584.3032L192.8714 584.3032L192.8714 735.0071C 192.8714 740.806 188.1704 745.5071 182.3714 745.5071L182.3714 745.5071L54.41328 745.5071C 48.61429 745.5071 43.91328 740.806 43.91328 735.0071L43.91328 735.0071L43.91328 584.3032C 43.91328 578.5042 48.61429 573.8032 54.41328 573.8032z" /></clipPath><clipPath id="34"><path id="" clip-rule="evenodd" transform="matrix(1 0 0 1 0 0)" d="M43.91328 573.8032L192.8714 573.8032L192.8714 573.8032L192.8714 745.4541L192.8714 745.4541L43.91328 745.4541z" /></clipPath><clipPath id="35"><path id="" clip-rule="evenodd" transform="matrix(1 0 0 1 0 0)" d="M0 -0.249939L595.5 -0.249939L595.5 -0.249939L595.5 842.0001L595.5 842.0001L0 842.0001z" /></clipPath><clipPath id="36"><path id="" clip-rule="evenodd" transform="matrix(1 0 0 1 0 0)" d="M0 -0.249939L595.5 -0.249939L595.5 -0.249939L595.5 842.0001L595.5 842.0001L0 842.0001z" /></clipPath><clipPath id="37"><path id="" clip-rule="evenodd" transform="matrix(1 0 0 1 0 0)" d="M43.91328 573.8032L193.1633 573.8032L193.1633 573.8032L193.1633 745.5532L193.1633 745.5532L43.91328 745.5532z" /></clipPath><clipPath id="38"><path id="" clip-rule="evenodd" transform="matrix(1 0 0 1 0 0)" d="M43.91328 573.8034L193.7936 573.8034L193.7936 573.8034L193.7936 746.582L193.7936 746.582L43.91328 746.582z" /></clipPath><clipPath id="39"><path id="" clip-rule="evenodd" transform="matrix(1 0 0 1 0 0)" d="M54.4132 573.8034L182.3704 573.8034C 188.1693 573.8034 192.8703 578.5044 192.8703 584.3033L192.8703 584.3033L192.8703 735.0062C 192.8703 740.8051 188.1693 745.506 182.3704 745.506L182.3704 745.506L54.4132 745.506C 48.61426 745.506 43.91328 740.8051 43.91328 735.0062L43.91328 735.0062L43.91328 584.3033C 43.91328 578.5044 48.61426 573.8034 54.4132 573.8034z" /></clipPath><clipPath id="40"><path id="" clip-rule="evenodd" transform="matrix(1 0 0 1 0 0)" d="M0 -0.249939L595.5 -0.249939L595.5 -0.249939L595.5 842.0001L595.5 842.0001L0 842.0001z" /></clipPath><clipPath id="41"><path id="" clip-rule="evenodd" transform="matrix(1 0 0 1 0 0)" d="M0 -0.249939L595.5 -0.249939L595.5 -0.249939L595.5 842.0001L595.5 842.0001L0 842.0001z" /></clipPath><clipPath id="42"><path id="" clip-rule="evenodd" transform="matrix(1 0 0 1 0 0)" d="M133.106 362.7088L459.356 362.7088L459.356 362.7088L459.356 511.2088L459.356 511.2088L133.106 511.2088z" /></clipPath><clipPath id="43"><path id="" clip-rule="evenodd" transform="matrix(1 0 0 1 0 0)" d="M133.106 379.9588L133.106 493.2471C 133.106 502.774 140.8291 510.4971 150.356 510.4971L150.356 510.4971L441.9053 510.4971C 451.4322 510.4971 459.1553 502.774 459.1553 493.2471L459.1553 493.2471L459.1553 379.9588C 459.1553 370.4319 451.4322 362.7088 441.9053 362.7088L441.9053 362.7088L150.356 362.7088C 140.8291 362.7088 133.106 370.4319 133.106 379.9588z" /></clipPath><clipPath id="44"><path id="" clip-rule="evenodd" transform="matrix(1 0 0 1 0 0)" d="M133.106 362.7088L459.356 362.7088L459.356 362.7088L459.356 510.4588L459.356 510.4588L133.106 510.4588z" /></clipPath><clipPath id="45"><path id="" clip-rule="evenodd" transform="matrix(1 0 0 1 0 0)" d="M0 -0.249939L595.5 -0.249939L595.5 -0.249939L595.5 842.0001L595.5 842.0001L0 842.0001z" /></clipPath><clipPath id="46"><path id="" clip-rule="evenodd" transform="matrix(1 0 0 1 0 0)" d="M508.8131 17.08496L583.0631 17.08496L583.0631 17.08496L583.0631 59.08496L583.0631 59.08496L508.8131 59.08496z" /></clipPath><clipPath id="47"><path id="" clip-rule="evenodd" transform="matrix(1 0 0 1 0 0)" d="M0 -0.249939L595.5 -0.249939L595.5 -0.249939L595.5 842.0001L595.5 842.0001L0 842.0001z" /></clipPath></defs><g transform="matrix(1.333333 0 0 1.333333 0 0)"><g clip-path="url(#1)"><g clip-path="url(#2)"><path id="1" transform="matrix(1 0 0 -1 0 842)" d="M0 842.2499L595.4999 842.2499L595.4999 -6.103516E-05L0 -6.103516E-05z" stroke="none" fill="#FFFFFF" fill-rule="nonzero" /></g><g clip-path="url(#3)"><path id="2" transform="matrix(1 0 0 -1 0 842)" d="M0 842.2499L595.4999 842.2499L595.4999 -6.103516E-05L0 -6.103516E-05z" stroke="none" fill="#F9FFF8" fill-rule="nonzero" /></g><g clip-path="url(#4)"><g><g clip-path="url(#5)"><g clip-path="url(#6)"><g transform="matrix(0 0.5128205 -0.5127462 0 527.3287 42.90796)"><g transform="matrix(1 0 0 1 0 0)"><image x="0" y="0" xlink:href="img_01.png" width="1521" height="863" /></g></g></g></g></g><g><g clip-path="url(#7)"><g clip-path="url(#8)"><g clip-path="url(#9)"><path id="4" transform="matrix(1 0 0 -1 0 842)" d="M35.04834 742.2711L569.0914 742.2711L569.0914 492.7911L35.04834 492.7911z" stroke="none" fill="#A0FF8C" fill-rule="nonzero" fill-opacity="0.1764706" /></g></g><g clip-path="url(#10)"><g clip-path="url(#11)"><g clip-path="url(#12)"><path id="5" transform="matrix(1 0 0 -1 0 842)" d="M64.30782 742.2711L539.3668 742.2711C 555.5204 742.2711 568.6156 729.176 568.6156 713.0225L568.6156 713.0225L568.6156 522.0511C 568.6156 505.8975 555.5204 492.8024 539.3668 492.8024L539.3668 492.8024L64.30782 492.8024C 48.15421 492.8024 35.05914 505.8975 35.05914 522.0511L35.05914 522.0511L35.05914 713.0225C 35.05914 729.176 48.15421 742.2711 64.30782 742.2711z" stroke="#000000" stroke-width="5.999999" fill="none" /></g></g></g></g></g></g><g clip-path="url(#13)"><g clip-path="url(#14)"><g clip-path="url(#15)"><g clip-path="url(#16)"><g clip-path="url(#17)"><g transform="matrix(0.3877642 0 0 0.3877642 51.18925 139.8876)"><g transform="matrix(1 0 0 1 0 0)"><image x="0" y="0" xlink:href="img_02.png" width="338" height="338" /></g></g></g></g></g></g></g><g clip-path="url(#18)"><g clip-path="url(#19)"><g clip-path="url(#20)"><g clip-path="url(#21)"><g clip-path="url(#22)"><path id="7" transform="matrix(1 0 0 -1 0 842)" d="M65.82637 702.1124L167.7216 702.1124C 170.5061 702.1124 173.1767 701.0063 175.1457 699.0373C 177.1146 697.0683 178.2208 694.3978 178.2208 691.6132L178.2208 691.6132L178.2208 581.4437C 178.2208 578.6591 177.1146 575.9886 175.1457 574.0196C 173.1767 572.0506 170.5061 570.9445 167.7216 570.9445L167.7216 570.9445L65.82637 570.9445C 63.04181 570.9445 60.37129 572.0506 58.4023 574.0196C 56.43332 575.9886 55.32715 578.6591 55.32715 581.4437L55.32715 581.4437L55.32715 691.6132C 55.32715 694.3978 56.43332 697.0683 58.4023 699.0373C 60.37129 701.0063 63.04181 702.1124 65.82637 702.1124z" stroke="#000000" stroke-width="3" fill="none" /></g></g></g></g></g><g clip-path="url(#23)"><g><g clip-path="url(#24)"><g clip-path="url(#25)"><g clip-path="url(#26)"><path id="8" transform="matrix(1 0 0 -1 0 842)" d="M26.64667 322.3107L559.8527 322.3107L559.8527 24.92343L26.64667 24.92343z" stroke="none" fill="#A0FF8C" fill-rule="nonzero" fill-opacity="0.1764706" /></g></g><g clip-path="url(#27)"><g clip-path="url(#28)"><g clip-path="url(#29)"><path id="9" transform="matrix(1 0 0 -1 0 842)" d="M55.89653 322.3103L530.9749 322.3103C 547.1291 322.3103 560.2247 309.2147 560.2247 293.0605L560.2247 293.0605L560.2247 54.17429C 560.2247 38.02002 547.1291 24.92444 530.9749 24.92444L530.9749 24.92444L55.89653 24.92444C 39.74228 24.92444 26.64667 38.02002 26.64667 54.17429L26.64667 54.17429L26.64667 293.0605C 26.64667 309.2147 39.74228 322.3103 55.89653 322.3103z" stroke="#000000" stroke-width="6" fill="none" /></g></g></g></g></g></g><g clip-path="url(#30)"><g clip-path="url(#31)"><g clip-path="url(#32)"><g clip-path="url(#33)"><g clip-path="url(#34)"><g transform="matrix(0.5078431 0 0 0.5078431 32.54037 573.8032)"><g transform="matrix(1 0 0 1 0 0)"><image x="0" y="0" xlink:href="img_02.png" width="338" height="338" /></g></g></g></g></g></g></g><g clip-path="url(#35)"><g clip-path="url(#36)"><g clip-path="url(#37)"><g clip-path="url(#38)"><g clip-path="url(#39)"><path id="11" transform="matrix(1 0 0 -1 0 842)" d="M54.4132 268.1966L182.3704 268.1966C 188.1693 268.1966 192.8703 263.4956 192.8703 257.6967L192.8703 257.6967L192.8703 106.9938C 192.8703 101.1949 188.1693 96.49391 182.3704 96.49391L182.3704 96.49391L54.4132 96.49391C 48.61426 96.49391 43.91328 101.1949 43.91328 106.9938L43.91328 106.9938L43.91328 257.6967C 43.91328 263.4956 48.61426 268.1966 54.4132 268.1966z" stroke="#000000" stroke-width="3" fill="none" /></g></g></g></g></g><g clip-path="url(#40)"><g clip-path="url(#41)"><g clip-path="url(#42)"><g clip-path="url(#43)"><g clip-path="url(#44)"><g transform="matrix(0.2696281 0 0 0.2695167 133.106 336.7424)"><g transform="matrix(1 0 0 1 0 0)"><image x="0" y="0" xlink:href="img_03.png" width="1210" height="807" /></g></g></g></g></g></g></g><g clip-path="url(#45)"><path id="356" transform="matrix(1 0 0 -1 0 842)" d="M217.7111 189.2621C 217.7111 188.9638 217.654 188.6768 217.5399 188.4011C 217.4257 188.1255 217.2631 187.8821 217.0521 187.6712C 216.8411 187.4602 216.5978 187.2976 216.3222 187.1834C 216.0465 187.0692 215.7595 187.0121 215.4611 187.0121C 215.1628 187.0121 214.8757 187.0692 214.6001 187.1834C 214.3244 187.2976 214.0811 187.4602 213.8701 187.6712C 213.6592 187.8821 213.4966 188.1255 213.3824 188.4011C 213.2682 188.6768 213.2111 188.9638 213.2111 189.2621C 213.2111 189.5605 213.2682 189.8475 213.3824 190.1232C 213.4966 190.3988 213.6592 190.6422 213.8701 190.8531C 214.0811 191.0641 214.3244 191.2267 214.6001 191.3409C 214.8757 191.4551 215.1628 191.5121 215.4611 191.5121C 215.7595 191.5121 216.0465 191.4551 216.3222 191.3409C 216.5978 191.2267 216.8411 191.0641 217.0521 190.8531C 217.2631 190.6422 217.4257 190.3988 217.5399 190.1232C 217.654 189.8475 217.7111 189.5605 217.7111 189.2621z" stroke="none" fill="#000000" fill-rule="nonzero" /><path id="428" transform="matrix(1 0 0 -1 0 842)" d="M217.7111 153.2621C 217.7111 152.9638 217.654 152.6768 217.5399 152.4011C 217.4257 152.1255 217.2631 151.8822 217.0521 151.6712C 216.8411 151.4602 216.5978 151.2976 216.3222 151.1834C 216.0465 151.0692 215.7595 151.0122 215.4611 151.0121C 215.1628 151.0122 214.8757 151.0692 214.6001 151.1834C 214.3244 151.2976 214.0811 151.4602 213.8701 151.6712C 213.6592 151.8822 213.4966 152.1255 213.3824 152.4011C 213.2682 152.6768 213.2111 152.9638 213.2111 153.2621C 213.2111 153.5605 213.2682 153.8475 213.3824 154.1232C 213.4966 154.3988 213.6592 154.6422 213.8701 154.8531C 214.0811 155.0641 214.3244 155.2267 214.6001 155.3409C 214.8757 155.4551 215.1628 155.5121 215.4611 155.5121C 215.7595 155.5121 216.0465 155.4551 216.3222 155.3409C 216.5978 155.2267 216.8411 155.0641 217.0521 154.8531C 217.2631 154.6422 217.4257 154.3988 217.5399 154.1232C 217.654 153.8475 217.7111 153.5605 217.7111 153.2621z" stroke="none" fill="#000000" fill-rule="nonzero" /><path id="520" transform="matrix(1 0 0 -1 0 842)" d="M217.7111 99.26215C 217.7111 98.96381 217.654 98.6768 217.5399 98.40114C 217.4257 98.12549 217.2631 97.88217 217.0521 97.67117C 216.8411 97.46021 216.5978 97.29764 216.3222 97.18344C 216.0465 97.06924 215.7595 97.01218 215.4611 97.01215C 215.1628 97.01218 214.8757 97.06924 214.6001 97.18344C 214.3244 97.29764 214.0811 97.46021 213.8701 97.67117C 213.6592 97.88217 213.4966 98.12549 213.3824 98.40114C 213.2682 98.6768 213.2111 98.96381 213.2111 99.26215C 213.2111 99.56052 213.2682 99.84753 213.3824 100.1232C 213.4966 100.3988 213.6592 100.6422 213.8701 100.8531C 214.0811 101.0641 214.3244 101.2267 214.6001 101.3409C 214.8757 101.4551 215.1628 101.5121 215.4611 101.5121C 215.7595 101.5121 216.0465 101.4551 216.3222 101.3409C 216.5978 101.2267 216.8411 101.0641 217.0521 100.8531C 217.2631 100.6422 217.4257 100.3988 217.5399 100.1232C 217.654 99.84753 217.7111 99.56052 217.7111 99.26215z" stroke="none" fill="#000000" fill-rule="nonzero" /><path id="607" transform="matrix(1 0 0 -1 0 842)" d="M217.7111 45.26215C 217.7111 44.96381 217.654 44.67682 217.5399 44.40115C 217.4257 44.12549 217.2631 43.88217 217.0521 43.6712C 216.8411 43.46024 216.5978 43.29764 216.3222 43.18344C 216.0465 43.06924 215.7595 43.01218 215.4611 43.01215C 215.1628 43.01218 214.8757 43.06924 214.6001 43.18344C 214.3244 43.29764 214.0811 43.46024 213.8701 43.6712C 213.6592 43.88217 213.4966 44.12549 213.3824 44.40115C 213.2682 44.67682 213.2111 44.96381 213.2111 45.26215C 213.2111 45.56055 213.2682 45.84756 213.3824 46.12323C 213.4966 46.39886 213.6592 46.64218 213.8701 46.85315C 214.0811 47.06415 214.3244 47.22672 214.6001 47.34088C 214.8757 47.45506 215.1628 47.51215 215.4611 47.51215C 215.7595 47.51215 216.0465 47.45506 216.3222 47.34088C 216.5978 47.22672 216.8411 47.06415 217.0521 46.85315C 217.2631 46.64218 217.4257 46.39886 217.5399 46.12323C 217.654 45.84756 217.7111 45.56055 217.7111 45.26215z" stroke="none" fill="#000000" fill-rule="nonzero" /></g><g clip-path="url(#46)"><g transform="matrix(0.04881657 0 0 0.04866743 508.8131 17.08502)"><g transform="matrix(1 0 0 1 0 0)"><image x="0" y="0" xlink:href="img_04.png" width="1521" height="863" /></g></g></g><g clip-path="url(#47)"></g></g></g></svg>