<svg xmlns="http://www.w3.org/2000/svg" xmlns:xlink="http://www.w3.org/1999/xlink" id="body_1" preserveAspectRatio="xMinYMin meet" viewBox="0 0 793 1123"><defs><clipPath id="1"><path id="" clip-rule="evenodd" transform="matrix(1 0 0 1 0 0)" d="M0 842L0 -0.25L0 -0.25L595.5 -0.25L595.5 -0.25L595.5 842L595.5 842L0 842z" /></clipPath><clipPath id="2"><path id="" clip-rule="evenodd" transform="matrix(1 0 0 1 0 0)" d="M0 -0.249939L595.5 -0.249939L595.5 -0.249939L595.5 842.0001L595.5 842.0001L0 842.0001z" /></clipPath><clipPath id="3"><path id="" clip-rule="evenodd" transform="matrix(1 0 0 1 0 0)" d="M0 -0.249939L595.5 -0.249939L595.5 -0.249939L595.5 842.0001L595.5 842.0001L0 842.0001z" /></clipPath><clipPath id="4"><path id="" clip-rule="evenodd" transform="matrix(1 0 0 1 0 0)" d="M0 -0.249939L595.5 -0.249939L595.5 -0.249939L595.5 842.0001L595.5 842.0001L0 842.0001z" /></clipPath><clipPath id="5"><path id="" clip-rule="evenodd" transform="matrix(1 0 0 1 0 0)" d="M81.84 -0.249939L538.08 -0.249939L538.08 -0.249939L538.08 793.91L538.08 793.91L81.84 793.91z" /></clipPath><clipPath id="6"><path id="" clip-rule="evenodd" transform="matrix(1 0 0 1 0 0)" d="M81.95947 -0.4899292L537.9595 -0.4899292L537.9595 -0.4899292L537.9595 792.9415L537.9595 792.9415L81.95947 792.9415z" /></clipPath><clipPath id="7"><path id="" clip-rule="evenodd" transform="matrix(1 0 0 1 0 0)" d="M502.7415 10.17249L584.4915 10.17249L584.4915 10.17249L584.4915 56.67249L584.4915 56.67249L502.7415 56.67249z" /></clipPath><clipPath id="8"><path id="" clip-rule="evenodd" transform="matrix(1 0 0 1 0 0)" d="M7.072427 1.144775L80.57243 1.144775L80.57243 1.144775L80.57243 65.64478L80.57243 65.64478L7.072427 65.64478z" /></clipPath><clipPath id="9"><path id="" clip-rule="evenodd" transform="matrix(1 0 0 1 0 0)" d="M453.5224 249.7045L500.0224 249.7045L500.0224 249.7045L500.0224 261.7045L500.0224 261.7045L453.5224 261.7045z" /></clipPath><clipPath id="10"><path id="" clip-rule="evenodd" transform="matrix(1 0 0 1 0 0)" d="M0 -0.249939L595.5 -0.249939L595.5 -0.249939L595.5 842.0001L595.5 842.0001L0 842.0001z" /></clipPath><clipPath id="11"><path id="" clip-rule="evenodd" transform="matrix(1 0 0 1 0 0)" d="M48.72 87.3501L570.72 87.3501L570.72 87.3501L570.72 291.1101L570.72 291.1101L48.72 291.1101z" /></clipPath><clipPath id="12"><path id="" clip-rule="evenodd" transform="matrix(1 0 0 1 0 0)" d="M60.0155 98.56378L560.4742 98.56378L560.4742 98.56378L560.4742 280.5488L560.4742 280.5488L60.0155 280.5488z" /></clipPath><clipPath id="13"><path id="" clip-rule="evenodd" transform="matrix(1 0 0 1 0 0)" d="M96.7655 98.56378L523.3081 98.56378C 533.0547 98.56378 542.4023 102.4357 549.2943 109.3276C 556.1862 116.2195 560.0581 125.5671 560.0581 135.3138L560.0581 135.3138L560.0581 243.7988C 560.0581 253.5455 556.1862 262.893 549.2943 269.785C 542.4023 276.6769 533.0547 280.5488 523.3081 280.5488L523.3081 280.5488L96.7655 280.5488C 87.01879 280.5488 77.67129 276.6769 70.77933 269.785C 63.88736 262.893 60.0155 253.5455 60.0155 243.7988L60.0155 243.7988L60.0155 135.3138C 60.0155 125.5671 63.88736 116.2195 70.77933 109.3276C 77.67129 102.4357 87.01879 98.56378 96.7655 98.56378z" /></clipPath><clipPath id="14"><path id="" clip-rule="evenodd" transform="matrix(1 0 0 1 0 0)" d="M60.0155 98.56378L560.2655 98.56378L560.2655 98.56378L560.2655 280.8138L560.2655 280.8138L60.0155 280.8138z" /></clipPath><clipPath id="15"><path id="" clip-rule="evenodd" transform="matrix(1 0 0 1 0 0)" d="M60.01995 98.56378L562.2712 98.56378L562.2712 98.56378L562.2712 282.7226L562.2712 282.7226L60.01995 282.7226z" /></clipPath><clipPath id="16"><path id="" clip-rule="evenodd" transform="matrix(1 0 0 1 0 0)" d="M96.76904 98.56378L523.301 98.56378C 533.0475 98.56378 542.3948 102.4355 549.2866 109.3273C 556.1783 116.2191 560.0501 125.5664 560.0501 135.3129L560.0501 135.3129L560.0501 243.7952C 560.0501 253.5416 556.1783 262.8889 549.2866 269.7807C 542.3948 276.6725 533.0475 280.5443 523.301 280.5443L523.301 280.5443L96.76904 280.5443C 87.02257 280.5443 77.6753 276.6725 70.78351 269.7807C 63.89172 262.8889 60.01995 253.5416 60.01995 243.7952L60.01995 243.7952L60.01995 135.3129C 60.01995 125.5664 63.89172 116.2191 70.78351 109.3273C 77.6753 102.4355 87.02257 98.56378 96.76904 98.56378z" /></clipPath><clipPath id="17"><path id="" clip-rule="evenodd" transform="matrix(1 0 0 1 0 0)" d="M264.8153 108.6346L524.3153 108.6346L524.3153 108.6346L524.3153 270.6346L524.3153 270.6346L264.8153 270.6346z" /></clipPath><clipPath id="18"><path id="" clip-rule="evenodd" transform="matrix(1 0 0 1 0 0)" d="M0 -0.249939L595.5 -0.249939L595.5 -0.249939L595.5 842.0001L595.5 842.0001L0 842.0001z" /></clipPath><clipPath id="19"><path id="" clip-rule="evenodd" transform="matrix(1 0 0 1 0 0)" d="M48.72 281.9901L570.72 281.9901L570.72 281.9901L570.72 499.9101L570.72 499.9101L48.72 499.9101z" /></clipPath><clipPath id="20"><path id="" clip-rule="evenodd" transform="matrix(1 0 0 1 0 0)" d="M60.0155 293.2988L560.1479 293.2988L560.1479 293.2988L560.1479 489.3691L560.1479 489.3691L60.0155 489.3691z" /></clipPath><clipPath id="21"><path id="" clip-rule="evenodd" transform="matrix(1 0 0 1 0 0)" d="M96.7655 293.2988L523.308 293.2988C 533.0547 293.2988 542.4023 297.1707 549.2943 304.0626C 556.1862 310.9546 560.058 320.3021 560.058 330.0488L560.058 330.0488L560.058 452.6191C 560.058 462.3658 556.1862 471.7133 549.2943 478.6053C 542.4023 485.4973 533.0547 489.3691 523.308 489.3691L523.308 489.3691L96.7655 489.3691C 87.01879 489.3691 77.67129 485.4973 70.77933 478.6053C 63.88736 471.7133 60.0155 462.3658 60.0155 452.6191L60.0155 452.6191L60.0155 330.0488C 60.0155 320.3021 63.88736 310.9546 70.77933 304.0626C 77.67129 297.1707 87.01879 293.2988 96.7655 293.2988z" /></clipPath><clipPath id="22"><path id="" clip-rule="evenodd" transform="matrix(1 0 0 1 0 0)" d="M60.0155 293.2988L560.2655 293.2988L560.2655 293.2988L560.2655 489.0488L560.2655 489.0488L60.0155 489.0488z" /></clipPath><clipPath id="23"><path id="" clip-rule="evenodd" transform="matrix(1 0 0 1 0 0)" d="M60.01874 293.2988L562.2725 293.2988L562.2725 293.2988L562.2725 491.41L562.2725 491.41L60.01874 491.41z" /></clipPath><clipPath id="24"><path id="" clip-rule="evenodd" transform="matrix(1 0 0 1 0 0)" d="M96.76801 293.2988L523.3021 293.2988C 533.0486 293.2988 542.3959 297.1706 549.2877 304.0624C 556.1795 310.9542 560.0513 320.3016 560.0513 330.0481L560.0513 330.0481L560.0513 452.6159C 560.0513 462.3624 556.1795 471.7098 549.2877 478.6016C 542.3959 485.4934 533.0486 489.3652 523.3021 489.3652L523.3021 489.3652L96.76801 489.3652C 87.02149 489.3652 77.67417 485.4934 70.78235 478.6016C 63.89053 471.7098 60.01874 462.3624 60.01874 452.6159L60.01874 452.6159L60.01874 330.0481C 60.01874 320.3016 63.89053 310.9542 70.78235 304.0624C 77.67417 297.1706 87.02149 293.2988 96.76801 293.2988z" /></clipPath><clipPath id="25"><path id="" clip-rule="evenodd" transform="matrix(1 0 0 1 0 0)" d="M0 -0.249939L595.5 -0.249939L595.5 -0.249939L595.5 842.0001L595.5 842.0001L0 842.0001z" /></clipPath><clipPath id="26"><path id="" clip-rule="evenodd" transform="matrix(1 0 0 1 0 0)" d="M0 -0.249939L595.5 -0.249939L595.5 -0.249939L595.5 842.0001L595.5 842.0001L0 842.0001z" /></clipPath><clipPath id="27"><path id="" clip-rule="evenodd" transform="matrix(1 0 0 1 0 0)" d="M255.8538 312.1863L543.1038 312.1863L543.1038 312.1863L543.1038 477.1863L543.1038 477.1863L255.8538 477.1863z" /></clipPath><clipPath id="28"><path id="" clip-rule="evenodd" transform="matrix(1 0 0 1 0 0)" d="M255.8538 327.9363L255.8538 461.0636C 255.8538 469.7621 262.9053 476.8136 271.6038 476.8136L271.6038 476.8136L527.0954 476.8136C 535.7939 476.8136 542.8454 469.7621 542.8454 461.0636L542.8454 461.0636L542.8454 327.9363C 542.8454 319.2378 535.7939 312.1863 527.0954 312.1863L527.0954 312.1863L271.6038 312.1863C 262.9053 312.1863 255.8538 319.2378 255.8538 327.9363z" /></clipPath><clipPath id="29"><path id="" clip-rule="evenodd" transform="matrix(1 0 0 1 0 0)" d="M255.8538 312.1863L543.1038 312.1863L543.1038 312.1863L543.1038 477.1863L543.1038 477.1863L255.8538 477.1863z" /></clipPath><clipPath id="30"><path id="" clip-rule="evenodd" transform="matrix(1 0 0 1 0 0)" d="M0 -0.249939L595.5 -0.249939L595.5 -0.249939L595.5 842.0001L595.5 842.0001L0 842.0001z" /></clipPath><clipPath id="31"><path id="" clip-rule="evenodd" transform="matrix(1 0 0 1 0 0)" d="M48.72 490.7901L570.72 490.7901L570.72 490.7901L570.72 823.1901L570.72 823.1901L48.72 823.1901z" /></clipPath><clipPath id="32"><path id="" clip-rule="evenodd" transform="matrix(1 0 0 1 0 0)" d="M60.0155 502.119L561.2032 502.119L561.2032 502.119L561.2032 812.0322L561.2032 812.0322L60.0155 812.0322z" /></clipPath><clipPath id="33"><path id="" clip-rule="evenodd" transform="matrix(1 0 0 1 0 0)" d="M96.7655 502.119L523.3081 502.119C 533.0548 502.119 542.4023 505.9909 549.2943 512.8829C 556.1863 519.7748 560.0582 529.1223 560.0582 538.869L560.0582 538.869L560.0582 775.2822C 560.0582 785.0289 556.1863 794.3765 549.2943 801.2684C 542.4023 808.1604 533.0548 812.0322 523.3081 812.0322L523.3081 812.0322L96.7655 812.0322C 87.0188 812.0322 77.67129 808.1604 70.77933 801.2684C 63.88736 794.3765 60.0155 785.0289 60.0155 775.2822L60.0155 775.2822L60.0155 538.869C 60.0155 529.1223 63.88736 519.7748 70.77933 512.8829C 77.67129 505.9909 87.0188 502.119 96.7655 502.119z" /></clipPath><clipPath id="34"><path id="" clip-rule="evenodd" transform="matrix(1 0 0 1 0 0)" d="M60.0155 502.119L560.2655 502.119L560.2655 502.119L560.2655 811.869L560.2655 811.869L60.0155 811.869z" /></clipPath><clipPath id="35"><path id="" clip-rule="evenodd" transform="matrix(1 0 0 1 0 0)" d="M60.02245 502.119L562.2687 502.119L562.2687 502.119L562.2687 814.6278L562.2687 814.6278L60.02245 814.6278z" /></clipPath><clipPath id="36"><path id="" clip-rule="evenodd" transform="matrix(1 0 0 1 0 0)" d="M96.77117 502.119L523.2989 502.119C 533.0452 502.119 542.3924 505.9908 549.2842 512.8825C 556.1758 519.7742 560.0476 529.1214 560.0476 538.8678L560.0476 538.8678L560.0476 775.2727C 560.0476 785.019 556.1758 794.3662 549.2842 801.2579C 542.3924 808.1497 533.0452 812.0214 523.2989 812.0214L523.2989 812.0214L96.77117 812.0214C 87.0248 812.0214 77.67763 808.1497 70.7859 801.2579C 63.89418 794.3662 60.02245 785.019 60.02245 775.2727L60.02245 775.2727L60.02245 538.8678C 60.02245 529.1214 63.89418 519.7742 70.7859 512.8825C 77.67763 505.9908 87.0248 502.119 96.77117 502.119z" /></clipPath><clipPath id="37"><path id="" clip-rule="evenodd" transform="matrix(1 0 0 1 0 0)" d="M0 -0.249939L595.5 -0.249939L595.5 -0.249939L595.5 842.0001L595.5 842.0001L0 842.0001z" /></clipPath><clipPath id="38"><path id="" clip-rule="evenodd" transform="matrix(1 0 0 1 0 0)" d="M0 -0.249939L595.5 -0.249939L595.5 -0.249939L595.5 842.0001L595.5 842.0001L0 842.0001z" /></clipPath><clipPath id="39"><path id="" clip-rule="evenodd" transform="matrix(1 0 0 1 0 0)" d="M241.7047 519.369L540.2047 519.369L540.2047 519.369L540.2047 692.619L540.2047 692.619L241.7047 692.619z" /></clipPath><clipPath id="40"><path id="" clip-rule="evenodd" transform="matrix(1 0 0 1 0 0)" d="M241.7047 545.619L241.7047 666.2942C 241.7047 680.7917 253.4572 692.5442 267.9547 692.5442L267.9547 692.5442L513.7139 692.5442C 528.2114 692.5442 539.9639 680.7917 539.9639 666.2942L539.9639 666.2942L539.9639 545.619C 539.9639 531.1215 528.2114 519.369 513.7139 519.369L513.7139 519.369L267.9547 519.369C 253.4572 519.369 241.7047 531.1215 241.7047 545.619z" /></clipPath><clipPath id="41"><path id="" clip-rule="evenodd" transform="matrix(1 0 0 1 0 0)" d="M241.7047 519.369L540.2047 519.369L540.2047 519.369L540.2047 692.619L540.2047 692.619L241.7047 692.619z" /></clipPath><clipPath id="42"><path id="" clip-rule="evenodd" transform="matrix(1 0 0 1 0 0)" d="M0 -0.249939L595.5 -0.249939L595.5 -0.249939L595.5 842.0001L595.5 842.0001L0 842.0001z" /></clipPath><clipPath id="43"><path id="" clip-rule="evenodd" transform="matrix(1 0 0 1 0 0)" d="M0 -0.249939L595.5 -0.249939L595.5 -0.249939L595.5 842.0001L595.5 842.0001L0 842.0001z" /></clipPath><clipPath id="44"><path id="" clip-rule="evenodd" transform="matrix(1 0 0 1 0 0)" d="M0 -0.249939L595.5 -0.249939L595.5 -0.249939L595.5 842.0001L595.5 842.0001L0 842.0001z" /></clipPath><clipPath id="45"><path id="" clip-rule="evenodd" transform="matrix(1 0 0 1 0 0)" d="M75.82479 707.4567L547.4612 707.4567L547.4612 707.4567L547.4612 793.0872L547.4612 793.0872L75.82479 793.0872z" /></clipPath><clipPath id="46"><path id="" clip-rule="evenodd" transform="matrix(1 0 0 1 0 0)" d="M108.8248 707.4567L514.3867 707.4567C 523.1388 707.4567 531.5325 710.9335 537.7213 717.1222C 543.91 723.3109 547.3867 731.7046 547.3867 740.4567L547.3867 740.4567L547.3867 760.0872C 547.3867 768.8393 543.91 777.233 537.7213 783.4217C 531.5325 789.6104 523.1388 793.0872 514.3867 793.0872L514.3867 793.0872L108.8248 793.0872C 100.0727 793.0872 91.67897 789.6104 85.49027 783.4217C 79.30157 777.233 75.82479 768.8393 75.82479 760.0872L75.82479 760.0872L75.82479 740.4567C 75.82479 731.7046 79.30157 723.3109 85.49027 717.1222C 91.67897 710.9335 100.0727 707.4567 108.8248 707.4567z" /></clipPath><clipPath id="47"><path id="" clip-rule="evenodd" transform="matrix(1 0 0 1 0 0)" d="M0 -0.249939L595.5 -0.249939L595.5 -0.249939L595.5 842.0001L595.5 842.0001L0 842.0001z" /></clipPath><clipPath id="48"><path id="" clip-rule="evenodd" transform="matrix(1 0 0 1 0 0)" d="M0 -0.249939L595.5 -0.249939L595.5 -0.249939L595.5 842.0001L595.5 842.0001L0 842.0001z" /></clipPath><clipPath id="49"><path id="" clip-rule="evenodd" transform="matrix(1 0 0 1 0 0)" d="M75.82479 707.4567L547.5748 707.4567L547.5748 707.4567L547.5748 792.9567L547.5748 792.9567L75.82479 792.9567z" /></clipPath><clipPath id="50"><path id="" clip-rule="evenodd" transform="matrix(1 0 0 1 0 0)" d="M73.38157 705.0137L549.8114 705.0137L549.8114 705.0137L549.8114 795.4132L549.8114 795.4132L73.38157 795.4132z" /></clipPath><clipPath id="51"><path id="" clip-rule="evenodd" transform="matrix(1 0 0 1 0 0)" d="M108.824 707.457L514.3763 707.457C 523.1284 707.457 531.5218 710.9337 537.7104 717.1223C 543.8989 723.3108 547.3756 731.7042 547.3756 740.4562L547.3756 740.4562L547.3756 760.0862C 547.3756 768.8381 543.8989 777.2316 537.7104 783.4201C 531.5218 789.6087 523.1284 793.0854 514.3763 793.0854L514.3763 793.0854L108.824 793.0854C 100.0721 793.0854 91.6786 789.6087 85.49004 783.4201C 79.30149 777.2316 75.82479 768.8381 75.82479 760.0862L75.82479 760.0862L75.82479 740.4562C 75.82479 731.7042 79.30149 723.3108 85.49004 717.1223C 91.6786 710.9337 100.0721 707.457 108.824 707.457z" /></clipPath><clipPath id="52"><path id="" clip-rule="evenodd" transform="matrix(1 0 0 1 0 0)" d="M0 -0.249939L595.5 -0.249939L595.5 -0.249939L595.5 842.0001L595.5 842.0001L0 842.0001z" /></clipPath></defs><g transform="matrix(1.333333 0 0 1.333333 0 0)"><g clip-path="url(#1)"><g clip-path="url(#2)"><path id="1" transform="matrix(1 0 0 -1 0 842)" d="M0 842.2499L595.4999 842.2499L595.4999 -6.103516E-05L0 -6.103516E-05z" stroke="none" fill="#FFFFFF" fill-rule="nonzero" /></g><g clip-path="url(#3)"><path id="2" transform="matrix(1 0 0 -1 0 842)" d="M0 842.2499L595.4999 842.2499L595.4999 -6.103516E-05L0 -6.103516E-05z" stroke="none" fill="#E9FCFF" fill-rule="nonzero" /></g><g clip-path="url(#4)"><g><g clip-path="url(#5)"><g clip-path="url(#6)"><g transform="matrix(0 0.5281065 -0.5283893 0 537.9594 -10.30847)"><g transform="matrix(1 0 0 1 0 0)"><image x="0" y="0" xlink:href="img_01.png" width="1521" height="863" /></g></g></g></g></g></g><g clip-path="url(#7)"><g transform="matrix(0.05374753 0 0 0.0538818 502.7414 10.17249)"><g transform="matrix(1 0 0 1 0 0)"><image x="0" y="0" xlink:href="img_02.png" width="1521" height="863" /></g></g></g><g clip-path="url(#8)"><g transform="matrix(0.459375 0 0 0.4574468 7.072427 1.144775)"><g transform="matrix(1 0 0 1 0 0)"><image x="0" y="0" xlink:href="img_03.png" width="160" height="141" /></g></g></g><g clip-path="url(#9)"><g transform="matrix(0.5670731 0 0 0.5454545 453.5224 249.7045)"><g transform="matrix(1 0 0 1 0 0)"><image x="0" y="0" xlink:href="img_04.png" width="82" height="22" /></g></g></g><g clip-path="url(#10)"><g><g clip-path="url(#11)"><g clip-path="url(#12)"><g clip-path="url(#13)"><path id="25" transform="matrix(1 0 0 -1 0 842)" d="M60.0155 743.4362L559.7633 743.4362L559.7633 561.4512L60.0155 561.4512z" stroke="none" fill="#235B91" fill-rule="nonzero" fill-opacity="0.2392157" /></g></g><g clip-path="url(#14)"><g clip-path="url(#15)"><g clip-path="url(#16)"><path id="26" transform="matrix(1 0 0 -1 0 842)" d="M96.76904 743.4362L523.301 743.4362C 533.0475 743.4362 542.3947 739.5645 549.2866 732.6727C 556.1783 725.7809 560.0501 716.4336 560.0501 706.6871L560.0501 706.6871L560.0501 598.2048C 560.0501 588.4584 556.1783 579.1111 549.2866 572.2193C 542.3947 565.3275 533.0475 561.4557 523.301 561.4557L523.301 561.4557L96.76904 561.4557C 87.02257 561.4557 77.6753 565.3275 70.78351 572.2193C 63.89172 579.1111 60.01995 588.4584 60.01995 598.2048L60.01995 598.2048L60.01995 706.6871C 60.01995 716.4336 63.89172 725.7809 70.78351 732.6727C 77.6753 739.5645 87.02257 743.4362 96.76904 743.4362z" stroke="#000000" stroke-width="4.5" fill="none" /></g></g></g></g></g></g><g clip-path="url(#17)"><g transform="matrix(0.5690789 0 0 0.5704917 264.8153 102.6973)"><g transform="matrix(1 0 0 1 0 0)"><image x="0" y="0" xlink:href="img_05.png" width="456" height="305" /></g></g></g><g clip-path="url(#18)"><g><g clip-path="url(#19)"><g clip-path="url(#20)"><g clip-path="url(#21)"><path id="95" transform="matrix(1 0 0 -1 0 842)" d="M60.0155 548.7012L560.1479 548.7012L560.1479 352.6309L60.0155 352.6309z" stroke="none" fill="#235B91" fill-rule="nonzero" fill-opacity="0.2392157" /></g></g><g clip-path="url(#22)"><g clip-path="url(#23)"><g clip-path="url(#24)"><path id="96" transform="matrix(1 0 0 -1 0 842)" d="M96.768 548.7012L523.302 548.7012C 533.0486 548.7012 542.3959 544.8294 549.2877 537.9376C 556.1795 531.0457 560.0513 521.6984 560.0513 511.9519L560.0513 511.9519L560.0513 389.384C 560.0513 379.6375 556.1795 370.2902 549.2877 363.3984C 542.3959 356.5066 533.0486 352.6348 523.302 352.6348L523.302 352.6348L96.768 352.6348C 87.02148 352.6348 77.67417 356.5066 70.78235 363.3984C 63.89052 370.2902 60.01874 379.6375 60.01874 389.384L60.01874 389.384L60.01874 511.9519C 60.01874 521.6984 63.89052 531.0457 70.78235 537.9376C 77.67417 544.8294 87.02148 548.7012 96.768 548.7012z" stroke="#000000" stroke-width="4.5" fill="none" /></g></g></g></g></g></g><g clip-path="url(#25)"><g clip-path="url(#26)"><g clip-path="url(#27)"><g clip-path="url(#28)"><g clip-path="url(#29)"><g transform="matrix(0.5705009 0 0 0.5705979 255.8538 312.1863)"><g transform="matrix(1 0 0 1 0 0)"><image x="0" y="0" xlink:href="img_06.png" width="539" height="301" /></g></g></g></g></g></g></g><g clip-path="url(#30)"><g><g clip-path="url(#31)"><g clip-path="url(#32)"><g clip-path="url(#33)"><path id="223" transform="matrix(1 0 0 -1 0 842)" d="M60.0155 339.8809L559.9926 339.8809L559.9926 29.96774L60.0155 29.96774z" stroke="none" fill="#235B91" fill-rule="nonzero" fill-opacity="0.2392157" /></g></g><g clip-path="url(#34)"><g clip-path="url(#35)"><g clip-path="url(#36)"><path id="224" transform="matrix(1 0 0 -1 0 842)" d="M96.77116 339.8809L523.2989 339.8809C 533.0452 339.8809 542.3924 336.0092 549.2841 329.1175C 556.1758 322.2257 560.0475 312.8786 560.0475 303.1322L560.0475 303.1322L560.0475 66.72726C 560.0475 56.9809 556.1758 47.63373 549.2841 40.742C 542.3924 33.85028 533.0452 29.97858 523.2989 29.97858L523.2989 29.97858L96.77116 29.97858C 87.0248 29.97858 77.67762 33.85028 70.7859 40.742C 63.89418 47.63373 60.02245 56.9809 60.02245 66.72726L60.02245 66.72726L60.02245 303.1322C 60.02245 312.8786 63.89418 322.2257 70.7859 329.1175C 77.67762 336.0092 87.0248 339.8809 96.77116 339.8809z" stroke="#000000" stroke-width="4.5" fill="none" /></g></g></g></g></g></g><g clip-path="url(#37)"><g clip-path="url(#38)"><g clip-path="url(#39)"><g clip-path="url(#40)"><g clip-path="url(#41)"><g transform="matrix(0.5621468 0 0 0.5624999 241.7047 515.5871)"><g transform="matrix(1 0 0 1 0 0)"><image x="0" y="0" xlink:href="img_07.png" width="531" height="332" /></g></g></g></g></g></g></g><g clip-path="url(#42)"></g><g clip-path="url(#43)"><g clip-path="url(#44)"><g clip-path="url(#45)"><g clip-path="url(#46)"><path id="335" transform="matrix(1 0 0 -1 0 842)" d="M75.82479 134.5433L547.4611 134.5433L547.4611 48.91283L75.82479 48.91283z" stroke="none" fill="#E13131" fill-rule="nonzero" /></g></g></g></g><g clip-path="url(#47)"><g clip-path="url(#48)"><g clip-path="url(#49)"><g clip-path="url(#50)"><g clip-path="url(#51)"><path id="336" transform="matrix(1 0 0 -1 0 842)" d="M108.824 134.543L514.3763 134.543C 523.1283 134.543 531.5217 131.0663 537.7103 124.8778C 543.8989 118.6892 547.3755 110.2957 547.3755 101.5438L547.3755 101.5438L547.3755 81.91383C 547.3755 73.1619 543.8989 64.76841 537.7103 58.57986C 531.5217 52.3913 523.1283 48.91461 514.3763 48.91461L514.3763 48.91461L108.824 48.91461C 100.0721 48.91461 91.67859 52.3913 85.49004 58.57986C 79.30148 64.76841 75.82479 73.1619 75.82479 81.91383L75.82479 81.91383L75.82479 101.5438C 75.82479 110.2957 79.30148 118.6892 85.49004 124.8778C 91.67859 131.0663 100.0721 134.543 108.824 134.543z" stroke="#000000" stroke-width="1.5" fill="none" /></g></g></g></g></g><g clip-path="url(#52)"></g></g></g></svg>