<svg xmlns="http://www.w3.org/2000/svg" xmlns:xlink="http://www.w3.org/1999/xlink" id="body_1" preserveAspectRatio="xMinYMin meet" viewBox="0 0 793 1123"><defs><clipPath id="1"><path id="" clip-rule="evenodd" transform="matrix(1 0 0 1 0 0)" d="M0 842L0 -0.250061L0 -0.250061L595.5 -0.250061L595.5 -0.250061L595.5 842L595.5 842L0 842z" /></clipPath><clipPath id="2"><path id="" clip-rule="evenodd" transform="matrix(1 0 0 1 0 0)" d="M0 -0.25L595.5 -0.25L595.5 -0.25L595.5 842.0012L595.5 842.0012L0 842.0012z" /></clipPath><clipPath id="3"><path id="" clip-rule="evenodd" transform="matrix(1 0 0 1 0 0)" d="M0 -0.25L595.5 -0.25L595.5 -0.25L595.5 842.0012L595.5 842.0012L0 842.0012z" /></clipPath><clipPath id="4"><path id="" clip-rule="evenodd" transform="matrix(1 0 0 1 0 0)" d="M0 -0.25L595.68 -0.25L595.68 -0.25L595.68 842.15L595.68 842.15L0 842.15z" /></clipPath><clipPath id="5"><path id="" clip-rule="evenodd" transform="matrix(1 0 0 1 0 0)" d="M0 -0.25L595.5 -0.25L595.5 -0.25L595.5 842.0012L595.5 842.0012L0 842.0012z" /></clipPath><clipPath id="6"><path id="" clip-rule="evenodd" transform="matrix(1 0 0 1 0 0)" d="M0 -0.25L595.5 -0.25L595.5 -0.25L595.5 842.0012L595.5 842.0012L0 842.0012z" /></clipPath><clipPath id="7"><path id="" clip-rule="evenodd" transform="matrix(1 0 0 1 0 0)" d="M121.1681 330.7364L474.4193 330.7364L474.4193 330.7364L474.4193 820.4852L474.4193 820.4852L121.1681 820.4852z" /></clipPath><clipPath id="8"><path id="" clip-rule="evenodd" transform="matrix(1 0 0 1 0 0)" d="M121.1681 338.2364L121.1681 812.822C 121.1681 816.9644 124.5259 820.322 128.6681 820.322L128.6681 820.322L466.608 820.322C 470.7504 820.322 474.108 816.9644 474.108 812.822L474.108 812.822L474.108 338.2364C 474.108 334.094 470.7504 330.7364 466.608 330.7364L466.608 330.7364L128.6681 330.7364C 124.5259 330.7364 121.1681 334.094 121.1681 338.2364z" /></clipPath><clipPath id="9"><path id="" clip-rule="evenodd" transform="matrix(1 0 0 1 0 0)" d="M121.9181 331.4876L473.6669 331.4876L473.6669 331.4876L473.6669 819.7363L473.6669 819.7363L121.9181 819.7363z" /></clipPath><clipPath id="10"><path id="" clip-rule="evenodd" transform="matrix(1 0 0 1 0 0)" d="M129.5681 331.6364L465.708 331.6364C 469.8504 331.6364 473.208 334.994 473.208 339.1364L473.208 339.1364L473.208 811.922C 473.208 816.0644 469.8504 819.422 465.708 819.422L465.708 819.422L129.5681 819.422C 125.4259 819.422 122.0681 816.0644 122.0681 811.922L122.0681 811.922L122.0681 339.1364C 122.0681 334.994 125.4259 331.6364 129.5681 331.6364z" /></clipPath><clipPath id="11"><path id="" clip-rule="evenodd" transform="matrix(1 0 0 1 0 0)" d="M0 -0.25L595.5 -0.25L595.5 -0.25L595.5 842.0012L595.5 842.0012L0 842.0012z" /></clipPath><clipPath id="12"><path id="" clip-rule="evenodd" transform="matrix(1 0 0 1 0 0)" d="M0 -0.25L595.5 -0.25L595.5 -0.25L595.5 842.0012L595.5 842.0012L0 842.0012z" /></clipPath><clipPath id="13"><path id="" clip-rule="evenodd" transform="matrix(1 0 0 1 0 0)" d="M121.1681 330.7364L474.4193 330.7364L474.4193 330.7364L474.4193 820.4852L474.4193 820.4852L121.1681 820.4852z" /></clipPath><clipPath id="14"><path id="" clip-rule="evenodd" transform="matrix(1 0 0 1 0 0)" d="M121.1681 338.2364L121.1681 812.822C 121.1681 816.9644 124.5259 820.322 128.6681 820.322L128.6681 820.322L466.608 820.322C 470.7504 820.322 474.108 816.9644 474.108 812.822L474.108 812.822L474.108 338.2364C 474.108 334.094 470.7504 330.7364 466.608 330.7364L466.608 330.7364L128.6681 330.7364C 124.5259 330.7364 121.1681 334.094 121.1681 338.2364z" /></clipPath><clipPath id="15"><path id="" clip-rule="evenodd" transform="matrix(1 0 0 1 0 0)" d="M121.1681 330.7364L474.4193 330.7364L474.4193 330.7364L474.4193 820.4852L474.4193 820.4852L121.1681 820.4852z" /></clipPath><clipPath id="16"><path id="" clip-rule="evenodd" transform="matrix(1 0 0 1 0 0)" d="M121.1681 330.7364L474.4121 330.7364L474.4121 330.7364L474.4121 820.4756L474.4121 820.4756L121.1681 820.4756z" /></clipPath><clipPath id="17"><path id="" clip-rule="evenodd" transform="matrix(1 0 0 1 0 0)" d="M121.1681 338.2364L121.1681 812.8124C 121.1681 816.9548 124.5257 820.3124 128.6678 820.3124L128.6678 820.3124L466.6008 820.3124C 470.7432 820.3124 474.1008 816.9548 474.1008 812.8124L474.1008 812.8124L474.1008 338.2364C 474.1008 334.094 470.7432 330.7364 466.6008 330.7364L466.6008 330.7364L128.6678 330.7364C 124.5257 330.7364 121.1681 334.094 121.1681 338.2364z" /></clipPath><clipPath id="18"><path id="" clip-rule="evenodd" transform="matrix(1 0 0 1 0 0)" d="M0 -0.25L595.5 -0.25L595.5 -0.25L595.5 842.0012L595.5 842.0012L0 842.0012z" /></clipPath><clipPath id="19"><path id="" clip-rule="evenodd" transform="matrix(1 0 0 1 0 0)" d="M75.59999 30.71002L519.12 30.71002L519.12 30.71002L519.12 810.95L519.12 810.95L75.59999 810.95z" /></clipPath><clipPath id="20"><path id="" clip-rule="evenodd" transform="matrix(1 0 0 1 0 0)" d="M76.4271 30.75177L518.9271 30.75177L518.9271 30.75177L518.9271 810.7518L518.9271 810.7518L76.4271 810.7518z" /></clipPath><clipPath id="21"><path id="" clip-rule="evenodd" transform="matrix(1 0 0 1 0 0)" d="M489.6168 19.31152L581.8668 19.31152L581.8668 19.31152L581.8668 71.81152L581.8668 71.81152L489.6168 71.81152z" /></clipPath></defs><g transform="matrix(1.333333 0 0 1.333333 0 0)"><g clip-path="url(#1)"><g clip-path="url(#2)"><path id="1" transform="matrix(1 0 0 -1 0 842)" d="M0 842.25L595.4999 842.25L595.4999 0L0 0z" stroke="none" fill="#FFFFFF" fill-rule="nonzero" /></g><g clip-path="url(#3)"><path id="2" transform="matrix(1 0 0 -1 0 842)" d="M0 842.25L595.4999 842.25L595.4999 0L0 0z" stroke="none" fill="#FFFFFF" fill-rule="nonzero" /><g><g clip-path="url(#4)"><g transform="matrix(0.9295319 0 0 0.9558346 -446.1624 -9.249939)"><g transform="matrix(1 0 0 1 0 0)"><image x="0" y="0" xlink:href="img_01.png" width="1600" height="900" /></g></g></g></g></g><g clip-path="url(#5)"><g clip-path="url(#6)"><g clip-path="url(#7)"><g clip-path="url(#8)"><g clip-path="url(#9)"><g clip-path="url(#10)"><g transform="matrix(0.731369 0 0 0.7309684 121.1681 330.7388)"><g transform="matrix(1 0 0 1 0 0)"><image x="0" y="0" xlink:href="img_02.png" width="483" height="670" /></g></g></g></g></g></g></g></g><g clip-path="url(#11)"><g clip-path="url(#12)"><g clip-path="url(#13)"><g clip-path="url(#14)"><g clip-path="url(#15)"><g clip-path="url(#16)"><g clip-path="url(#17)"><path id="5" transform="matrix(1 0 0 -1 0 842)" d="M121.1681 503.7638L121.1681 29.18912C 121.1681 25.04688 124.5259 21.68912 128.668 21.68912L128.668 21.68912L466.6016 21.68912C 470.7438 21.68912 474.1016 25.04688 474.1016 29.18912L474.1016 29.18912L474.1016 503.7638C 474.1016 507.9058 470.7438 511.2636 466.6016 511.2636L466.6016 511.2636L128.668 511.2636C 124.5259 511.2636 121.1681 507.9058 121.1681 503.7638z" stroke="#000000" stroke-width="3" fill="none" /></g></g></g></g></g></g></g><g clip-path="url(#18)"><g><g clip-path="url(#19)"><g clip-path="url(#20)"><g transform="matrix(0 0.5128205 -0.5127462 0 518.9271 30.75183)"><g transform="matrix(1 0 0 1 0 0)"><image x="0" y="0" xlink:href="img_03.png" width="1521" height="863" /></g></g></g></g></g></g><g clip-path="url(#21)"><g transform="matrix(0.06065089 0 0 0.06083429 489.6168 19.31146)"><g transform="matrix(1 0 0 1 0 0)"><image x="0" y="0" xlink:href="img_04.png" width="1521" height="863" /></g></g></g></g></g></svg>