<svg xmlns="http://www.w3.org/2000/svg" xmlns:xlink="http://www.w3.org/1999/xlink" id="body_1" preserveAspectRatio="xMinYMin meet" viewBox="0 0 793 1123"><defs><clipPath id="1"><path id="" clip-rule="evenodd" transform="matrix(1 0 0 1 0 0)" d="M0 842L0 -0.25L0 -0.25L595.5 -0.25L595.5 -0.25L595.5 842L595.5 842L0 842z" /></clipPath><clipPath id="2"><path id="" clip-rule="evenodd" transform="matrix(1 0 0 1 0 0)" d="M0 -0.249939L595.5 -0.249939L595.5 -0.249939L595.5 842.0001L595.5 842.0001L0 842.0001z" /></clipPath><clipPath id="3"><path id="" clip-rule="evenodd" transform="matrix(1 0 0 1 0 0)" d="M0 -0.249939L595.5 -0.249939L595.5 -0.249939L595.5 842.0001L595.5 842.0001L0 842.0001z" /></clipPath><clipPath id="4"><path id="" clip-rule="evenodd" transform="matrix(1 0 0 1 0 0)" d="M0 -0.249939L595.5 -0.249939L595.5 -0.249939L595.5 842.0001L595.5 842.0001L0 842.0001z" /></clipPath><clipPath id="5"><path id="" clip-rule="evenodd" transform="matrix(1 0 0 1 0 0)" d="M78.71999 30.71008L522.24 30.71008L522.24 30.71008L522.24 810.9501L522.24 810.9501L78.71999 810.9501z" /></clipPath><clipPath id="6"><path id="" clip-rule="evenodd" transform="matrix(1 0 0 1 0 0)" d="M79.51787 30.75183L522.0178 30.75183L522.0178 30.75183L522.0178 810.7518L522.0178 810.7518L79.51787 810.7518z" /></clipPath><clipPath id="7"><path id="" clip-rule="evenodd" transform="matrix(1 0 0 1 0 0)" d="M0 -0.249939L84.60674 -0.249939L84.60674 -0.249939L84.60674 84.35681L84.60674 84.35681L0 84.35681z" /></clipPath><clipPath id="8"><path id="" clip-rule="evenodd" transform="matrix(1 0 0 1 0 0)" d="M0 784.0729L595.3876 784.0729L595.3876 784.0729L595.3876 842.0001L595.3876 842.0001L0 842.0001z" /></clipPath><clipPath id="9"><path id="" clip-rule="evenodd" transform="matrix(1 0 0 1 0 0)" d="M0 -0.249939L595.5 -0.249939L595.5 -0.249939L595.5 842.0001L595.5 842.0001L0 842.0001z" /></clipPath><clipPath id="10"><path id="" clip-rule="evenodd" transform="matrix(1 0 0 1 0 0)" d="M0 -0.249939L595.5 -0.249939L595.5 -0.249939L595.5 842.0001L595.5 842.0001L0 842.0001z" /></clipPath><clipPath id="11"><path id="" clip-rule="evenodd" transform="matrix(1 0 0 1 0 0)" d="M-1.115594 538.3785L147.7535 538.3785L147.7535 538.3785L147.7535 846.108L147.7535 846.108L-1.115594 846.108z" /></clipPath><clipPath id="12"><path id="" clip-rule="evenodd" transform="matrix(1 0 0 1 0 0)" d="M-0.1120821 538.533L-0.1120821 544.973C 17.40791 545.543 34.8279 549.1929 51.09789 555.8229C 69.18789 563.163 85.81788 574.1329 99.75787 587.8729C 113.6979 601.6129 124.9278 618.1329 132.5578 636.2229C 140.2178 654.2929 144.2178 673.9129 144.3579 693.6029C 144.4879 713.2829 140.7579 733.0129 133.3078 751.2928C 125.8879 769.5728 114.7979 786.3928 100.9079 800.4828C 87.01788 814.5728 70.31789 825.9229 52.03789 833.6428C 35.5579 840.6128 17.80791 844.5828 -0.1120821 845.4028L-0.1120821 845.4028L-0.1120821 845.4828C 17.82791 844.9128 35.6879 841.1728 52.34789 834.3829C 70.82789 826.8829 87.81788 815.6728 102.0579 801.6229C 116.2979 787.5728 127.7679 770.7028 135.5679 752.2229C 143.3878 733.7529 147.4779 713.7029 147.6179 693.5928C 147.7478 673.4929 143.9278 653.3329 136.3178 634.653C 128.7379 615.9729 117.4079 598.8029 103.2079 584.413C 89.00787 570.0229 71.95789 558.443 53.2879 550.5629C 36.4079 543.413 18.22791 539.353 -0.1120821 538.533zM-0.1120821 560.2729L-0.1120821 566.7029C 14.55791 567.2629 29.14791 570.3529 42.7879 575.8929C 58.24789 582.1429 72.47789 591.5029 84.40788 603.2329C 96.33787 614.9629 105.9579 629.0829 112.5079 644.5329C 119.0779 659.9829 122.5179 676.7629 122.6579 693.6029C 122.7879 710.4429 119.6179 727.3329 113.2579 742.9828C 106.9279 758.6429 97.44787 773.0428 85.55788 785.1229C 73.66789 797.2028 59.37789 806.9428 43.7279 813.5728C 29.8779 819.4628 14.95791 822.8728 -0.1120821 823.6729L-0.1120821 823.6729L-0.1120821 823.7629C 14.98791 823.2028 30.0079 820.0228 44.0379 814.3228C 59.89789 807.9028 74.47788 798.3129 86.70789 786.2728C 98.93787 774.2328 108.7979 759.7628 115.5079 743.9129C 122.2379 728.0729 125.7679 710.8529 125.9079 693.5928C 126.0379 676.3329 122.7779 659.0129 116.2579 642.963C 109.7579 626.9029 100.0379 612.1429 87.85789 599.7629C 75.67789 587.3829 61.02789 577.413 44.9779 570.6229C 30.7279 564.5629 15.37791 561.0729 -0.1120821 560.2729zM-0.1120821 582.0129L-0.1120821 588.4229C 11.71791 588.963 23.46791 591.493 34.4879 595.9429C 47.31789 601.1029 59.13789 608.853 69.05789 618.5829C 78.97788 628.3129 86.98788 640.0129 92.44788 652.8429C 97.92788 665.6629 100.8079 679.6029 100.9479 693.6029C 101.0779 707.6028 98.46787 721.6529 93.19788 734.6729C 87.94788 747.7028 80.08788 759.7028 70.20789 769.7728C 60.32789 779.8428 48.4479 787.9728 35.4179 793.5128C 24.18791 798.3129 12.11791 801.1429 -0.1120821 801.9229L-0.1120821 801.9229L-0.1120821 802.0328C 12.13791 801.4828 24.31791 798.8728 35.7279 794.2628C 48.9579 788.9329 61.13789 780.9529 71.35789 770.9229C 81.57788 760.8929 89.82788 748.8329 95.44788 735.6029C 101.0879 722.3829 104.0579 708.0129 104.1979 693.5928C 104.3279 679.1729 101.6279 664.6929 96.19788 651.2729C 90.78788 637.8429 82.67788 625.4829 72.50789 615.1129C 62.33789 604.7429 50.08789 596.3829 36.6679 590.6729C 25.03791 585.7129 12.53791 582.793 -0.1120821 582.0129zM-0.1120821 603.7729L-0.1120821 610.1629C 8.877914 610.6829 17.78791 612.6429 26.17791 616.0029C 36.3879 620.0829 45.7979 626.2129 53.70789 633.9329C 61.61789 641.6529 68.01788 650.9529 72.38789 661.1529C 76.76788 671.3529 79.09789 682.4429 79.23788 693.6029C 79.37789 704.7629 77.31789 715.9629 73.13789 726.3629C 68.97789 736.7729 62.72789 746.3629 54.85789 754.4229C 46.9879 762.4828 37.5079 769.0028 27.1079 773.4529C 18.49791 777.1528 9.257913 779.4128 -0.1120821 780.1628L-0.1120821 780.1628L-0.1120821 780.3028C 9.297915 779.7828 18.63791 777.7328 27.4179 774.2029C 38.0179 769.9628 47.79789 763.5829 56.00789 755.5729C 64.21789 747.5629 70.85789 737.9028 75.38789 727.2928C 79.93787 716.6929 82.34789 705.1729 82.48788 693.5928C 82.62788 682.0129 80.48788 670.3829 76.14789 659.5929C 71.82789 648.7929 65.32789 638.8329 57.15789 630.4729C 48.98789 622.1129 39.1579 615.3529 28.3579 610.7329C 19.35791 606.8729 9.687912 604.5229 -0.1120821 603.7629L-0.1120821 603.7629L-0.1120821 603.7729zM-0.1120821 625.5629L-0.1120821 631.9129C 6.027915 632.3929 12.10791 633.783 17.86791 636.0629C 25.44791 639.0529 32.4579 643.5729 38.3579 649.2829C 44.2579 654.9929 49.04789 661.8829 52.32789 669.4629C 55.61789 677.0329 57.38789 685.2929 57.52789 693.6029C 57.66789 701.9129 56.15789 710.2829 53.07789 718.0629C 50.00789 725.8428 45.3679 733.0329 39.5079 739.0829C 33.6479 745.1329 26.57791 750.0428 18.79791 753.4029C 12.80791 756.0029 6.407915 757.6729 -0.1220824 758.3729L-0.1220824 758.3729L-0.1220824 758.5629C 6.447915 758.0729 12.95791 756.6029 19.10791 754.1628C 27.08791 751.0028 34.4579 746.2429 40.6579 740.2429C 46.85789 734.2429 51.88789 726.9729 55.33789 718.9929C 58.79789 711.0228 60.6479 702.3329 60.78789 693.6029C 60.92789 684.8729 59.33789 676.0729 56.08789 667.9029C 52.84789 659.7229 47.96789 652.1829 41.8079 645.8329C 35.6479 639.4829 28.21791 634.3329 20.04791 630.8029C 13.66791 628.0229 6.837915 626.2629 -0.1120821 625.5629zM-0.1120821 647.4429L-0.1120821 653.7328C 3.187916 654.1329 6.437914 654.9329 9.557913 656.1329C 14.51791 658.0329 19.11791 660.9429 23.00791 664.6329C 26.89791 668.3229 30.06791 672.8229 32.2679 677.7729C 34.4679 682.7229 35.6779 688.1329 35.8279 693.6029C 35.9579 699.0829 35.0179 704.5929 33.0179 709.7529C 31.0179 714.9129 28.00791 719.6929 24.15791 723.7329C 20.30791 727.7729 15.63791 731.0629 10.48791 733.3428C 7.117915 734.8428 3.547916 735.8929 -0.1120821 736.4829L-0.1120821 736.4829L-0.1120821 736.7629C 3.607916 736.3428 7.287915 735.4529 10.80791 734.0928C 16.15791 732.0228 21.11791 728.8829 25.31791 724.8829C 29.51791 720.8829 32.9179 716.0328 35.2779 710.6929C 37.6379 705.3528 38.9379 699.5029 39.0879 693.6129C 39.2179 687.7229 38.1879 681.7729 36.0279 676.2228C 33.8679 670.6729 30.6079 665.5329 26.46791 661.1929C 22.32791 656.853 17.29791 653.3229 11.74791 650.8829C 7.987914 649.2229 3.987916 648.0729 -0.1020822 647.4529L-0.1020822 647.4529L-0.1120821 647.4429zM-0.1120821 669.5928L-0.1120821 675.7629C 2.717916 676.5229 5.407916 677.9529 7.657914 679.9828C 11.43791 683.3529 13.85791 688.3329 14.11791 693.6029C 14.40791 698.8729 12.50791 704.3129 8.807913 708.3729C 6.437914 711.0129 3.327917 713.0328 -0.1120821 714.2029L-0.1120821 714.2029L-0.1120821 714.7929C 3.577916 713.9529 7.097915 712.1529 9.957912 709.5229C 14.33791 705.5629 17.11791 699.7128 17.36791 693.5928C 17.66791 687.4828 15.40791 681.1629 11.10791 676.5129C 8.147915 673.2529 4.207916 670.8329 -0.1120821 669.5729L-0.1120821 669.5729L-0.1120821 669.5928z" /></clipPath><clipPath id="13"><path id="" clip-rule="evenodd" transform="matrix(1 0 0 1 0 0)" d="M0 -0.249939L595.5 -0.249939L595.5 -0.249939L595.5 842.0001L595.5 842.0001L0 842.0001z" /></clipPath><clipPath id="14"><path id="" clip-rule="evenodd" transform="matrix(1 0 0 1 0 0)" d="M0 -0.249939L595.5 -0.249939L595.5 -0.249939L595.5 842.0001L595.5 842.0001L0 842.0001z" /></clipPath><clipPath id="15"><path id="" clip-rule="evenodd" transform="matrix(1 0 0 1 0 0)" d="M510.3697 21.58649L595.8325 21.58649L595.8325 21.58649L595.8325 199.1629L595.8325 199.1629L510.3697 199.1629z" /></clipPath><clipPath id="16"><path id="" clip-rule="evenodd" transform="matrix(1 0 0 1 0 0)" d="M595.499 21.72852C 585.149 22.05853 574.8391 24.21851 565.2192 28.13849C 554.5493 32.46844 544.7394 38.93835 536.5195 47.04828C 528.2996 55.15826 521.6796 64.89813 517.1796 75.56805C 513.2497 84.83795 510.9497 94.80786 510.3697 104.8878L510.3697 104.8878L510.3697 115.1177C 510.9297 124.8076 513.0697 134.4175 516.7496 143.4275C 521.1296 154.2074 527.6696 164.1273 535.8595 172.4272C 544.0494 180.7272 553.8993 187.4271 564.6793 191.9771C 574.4191 196.097 584.9191 198.447 595.499 198.917L595.499 198.917L595.499 195.197C 585.389 194.867 575.3292 192.757 565.9392 188.9371C 555.4993 184.6971 545.8994 178.3672 537.8495 170.4373C 529.7995 162.5073 523.3196 152.9574 518.9197 142.5275C 514.4997 132.0975 512.1897 120.7676 512.1097 109.4077C 512.0297 98.04785 514.1897 86.65796 518.4896 76.10803C 522.7596 65.54816 529.1695 55.84821 537.1895 47.70831C 545.2094 39.56836 554.8494 33.02844 565.3992 28.56848C 574.9091 24.53851 585.1591 22.24854 595.499 21.76855L595.499 21.76855L595.499 21.72852zM595.499 34.26843C 586.789 34.58844 578.1191 36.42841 570.0092 39.71838C 560.8593 43.41833 552.4393 48.95831 545.3794 55.9082C 538.3195 62.85815 532.6295 71.20807 528.7595 80.35803C 524.8696 89.50793 522.8396 99.43787 522.7596 109.4077C 522.6796 119.3777 524.5596 129.3676 528.3296 138.6375C 532.0795 147.9074 537.6895 156.4274 544.7194 163.5773C 551.7493 170.7272 560.2093 176.4872 569.4792 180.4071C 577.7091 183.8971 586.559 185.9171 595.509 186.3771L595.509 186.3771L595.509 182.6671C 587.0391 182.3471 578.6191 180.5571 570.7392 177.3672C 561.8193 173.7572 553.5994 168.3572 546.7194 161.5873C 539.8394 154.8174 534.2695 146.6475 530.4895 137.7275C 526.6996 128.8076 524.7096 119.1277 524.6296 109.3978C 524.5496 99.66785 526.3896 89.92792 530.0596 80.888C 533.7195 71.84808 539.1895 63.53815 546.0494 56.55823C 552.9094 49.57831 561.1592 43.95831 570.1992 40.13837C 578.1992 36.7384 586.809 34.76843 595.509 34.30841L595.509 34.30841L595.509 34.25842L595.509 34.25842L595.499 34.26843zM595.499 46.80829C 588.429 47.1283 581.3991 48.6283 574.8091 51.29828C 567.1692 54.37823 560.1393 58.98822 554.2393 64.76813C 548.3394 70.5481 543.5794 77.51807 540.3395 85.15796C 537.0795 92.7879 535.3695 101.0778 535.2795 109.4077C 535.1895 117.7377 536.7595 126.0876 539.8994 133.8375C 543.0195 141.5875 547.6994 148.7274 553.5793 154.7074C 559.4593 160.6873 566.5192 165.5272 574.2691 168.8173C 580.9791 171.6772 588.199 173.3672 595.499 173.8172L595.499 173.8172L595.499 170.1172C 588.669 169.8073 581.8891 168.3472 575.5291 165.7773C 568.1192 162.7973 561.2993 158.3273 555.5693 152.7074C 549.8394 147.0874 545.2194 140.3375 542.0695 132.9276C 538.9094 125.5276 537.2394 117.4777 537.1595 109.3978C 537.0795 101.3178 538.5895 93.20789 541.6294 85.68799C 544.6594 78.16803 549.1994 71.2381 554.8994 65.42816C 560.5992 59.61816 567.4692 54.92822 574.9891 51.72827C 581.4691 48.95831 588.439 47.3183 595.499 46.86829L595.499 46.86829L595.499 46.80829zM595.499 59.35822C 590.069 59.6582 584.6691 60.8382 579.6091 62.87817C 573.4891 65.32813 567.8492 69.00812 563.1093 73.63806C 558.3693 78.26801 554.5293 83.828 551.9194 89.94794C 549.3094 96.06787 547.8994 102.7178 547.8194 109.3978C 547.7394 116.0777 548.9794 122.7976 551.4793 129.0276C 553.9794 135.2576 557.7193 141.0074 562.4393 145.8375C 567.1592 150.6674 572.8292 154.5674 579.0692 157.2274C 584.2691 159.4573 589.8491 160.8173 595.499 161.2473L595.499 161.2473L595.499 157.5574C 590.309 157.2573 585.169 156.1273 580.3291 154.1874C 574.4391 151.8374 568.9992 148.2974 564.4393 143.8375C 559.8793 139.3775 556.1793 134.0175 553.6594 128.1276C 551.1393 122.2376 549.7894 115.8377 549.6993 109.3978C 549.6094 102.9578 550.8094 96.48785 553.2193 90.48792C 555.6293 84.48798 559.2293 78.948 563.7692 74.28809C 568.3092 69.62811 573.7792 65.86816 579.7891 63.29816C 584.759 61.1582 590.0891 59.85822 595.499 59.42822L595.499 59.42822L595.499 59.34821L595.499 59.34821L595.499 59.35822zM595.499 71.90808C 591.709 72.18811 587.949 73.03809 584.399 74.44806C 579.7891 76.26807 575.5391 79.01801 571.9592 82.48798C 568.3792 85.95795 565.4792 90.13794 563.4892 94.74786C 561.4993 99.35785 560.4193 104.3678 560.3393 109.4077C 560.2592 114.4477 561.1793 119.5276 563.0493 124.2476C 564.9192 128.9676 567.7392 133.3275 571.2892 136.9875C 574.8391 140.6475 579.1292 143.6274 583.8491 145.6674C 587.529 147.2675 591.479 148.2774 595.489 148.6874L595.489 148.6874L595.489 145.0175C 591.939 144.7374 588.429 143.9374 585.1091 142.6274C 580.7291 140.8975 576.6891 138.2875 573.2791 134.9976C 569.8692 131.7076 567.1092 127.7276 565.2092 123.3477C 563.3092 118.9677 562.2893 114.2077 562.2092 109.4077C 562.1293 104.6078 562.9993 99.77783 564.7792 95.2879C 566.5593 90.79791 569.2292 86.64795 572.6092 83.15796C 575.9891 79.66803 580.0691 76.82806 584.5591 74.88806C 588.019 73.38806 591.709 72.41809 595.4789 72.01807L595.4789 72.01807L595.4789 71.90808L595.4789 71.90808L595.499 71.90808zM595.499 84.48798C 593.349 84.72797 591.2289 85.23798 589.199 86.02795C 586.1091 87.21796 583.2491 89.03796 580.8291 91.3479C 578.4091 93.6579 576.4391 96.45789 575.0791 99.53784C 573.7192 102.6178 572.9692 105.9978 572.8792 109.3978C 572.8091 112.7977 573.3991 116.2377 574.6392 119.4377C 575.8792 122.6376 577.7691 125.6076 580.1591 128.1176C 582.5491 130.6276 585.459 132.6576 588.6591 134.0676C 590.829 135.0275 593.139 135.6875 595.499 136.0475L595.499 136.0475L595.499 132.4276C 593.599 132.1976 591.719 131.7375 589.919 131.0376C 587.059 129.9376 584.399 128.2576 582.1591 126.1276C 579.9191 123.9976 578.0791 121.3976 576.8192 118.5477C 575.5591 115.6977 574.8491 112.5677 574.7692 109.4077C 574.6992 106.2478 575.2391 103.0578 576.3891 100.0878C 577.5391 97.11786 579.2791 94.3479 581.4991 92.01788C 583.7191 89.68793 586.419 87.78796 589.389 86.46796C 591.329 85.60797 593.399 84.99799 595.509 84.65796L595.509 84.65796L595.509 84.49799L595.509 84.49799L595.499 84.48798zM595.499 97.16785C 593.369 97.65784 591.339 98.68787 589.689 100.2078C 587.1591 102.4978 585.559 105.8678 585.4091 109.3978C 585.2391 112.9277 586.539 116.5677 589.019 119.2577C 590.729 121.1376 592.999 122.5377 595.499 123.2576L595.499 123.2576L595.499 119.6976C 593.8589 119.2577 592.309 118.4377 591.019 117.2677C 588.8391 115.3177 587.439 112.4478 587.289 109.4077C 587.119 106.3678 588.219 103.2278 590.349 100.8778C 591.719 99.35785 593.509 98.18787 595.499 97.51788L595.499 97.51788L595.499 97.17786L595.499 97.17786L595.499 97.16785z" /></clipPath><clipPath id="17"><path id="" clip-rule="evenodd" transform="matrix(1 0 0 1 0 0)" d="M181.3138 59.27759L382.3138 59.27759L382.3138 59.27759L382.3138 173.2776L382.3138 173.2776L181.3138 173.2776z" /></clipPath><clipPath id="18"><path id="" clip-rule="evenodd" transform="matrix(1 0 0 1 0 0)" d="M178.2938 503.9384L427.2938 503.9384L427.2938 503.9384L427.2938 752.9384L427.2938 752.9384L178.2938 752.9384z" /></clipPath><clipPath id="19"><path id="" clip-rule="evenodd" transform="matrix(1 0 0 1 0 0)" d="M0 -0.249939L595.5 -0.249939L595.5 -0.249939L595.5 842.0001L595.5 842.0001L0 842.0001z" /></clipPath></defs><g transform="matrix(1.333333 0 0 1.333333 0 0)"><g clip-path="url(#1)"><g clip-path="url(#2)"><path id="1" transform="matrix(1 0 0 -1 0 842)" d="M0 842.2499L595.4999 842.2499L595.4999 -6.103516E-05L0 -6.103516E-05z" stroke="none" fill="#FFFFFF" fill-rule="nonzero" /></g><g clip-path="url(#3)"><path id="2" transform="matrix(1 0 0 -1 0 842)" d="M0 842.2499L595.4999 842.2499L595.4999 -6.103516E-05L0 -6.103516E-05z" stroke="none" fill="#FFFFFF" fill-rule="nonzero" /></g><g clip-path="url(#4)"><g><g clip-path="url(#5)"><g clip-path="url(#6)"><g transform="matrix(0 0.5128205 -0.5127462 0 522.0178 30.75189)"><g transform="matrix(1 0 0 1 0 0)"><image x="0" y="0" xlink:href="img_01.png" width="1521" height="863" /></g></g></g></g></g></g><g clip-path="url(#7)"><g transform="matrix(0.2400849 0 0 0.2400849 -84.89326 -85.14319)"><g transform="matrix(1 0 0 1 0 0)"><image x="0" y="0" xlink:href="img_02.png" width="706" height="706" /></g></g></g><g clip-path="url(#8)"><path id="5" transform="matrix(1 0 0 -1 0 842)" d="M-5.11208 308.617L600.3556 308.617L600.3556 -19.09482L-5.11208 -19.09482z" stroke="none" fill="#1D70B7" fill-rule="nonzero" /></g><g clip-path="url(#9)"><g clip-path="url(#10)"><g clip-path="url(#11)"><g clip-path="url(#12)"><path id="6" transform="matrix(1 0 0 -1 0 842)" d="M-5.11208 308.617L600.3556 308.617L600.3556 -19.09482L-5.11208 -19.09482z" stroke="none" fill="#D9D9D9" fill-rule="nonzero" /></g></g></g></g><g clip-path="url(#13)"><g clip-path="url(#14)"><g clip-path="url(#15)"><g clip-path="url(#16)"><path id="7" transform="matrix(1 0 0 -1 0 842)" d="M510.3697 824.0714L595.4999 824.0714L595.4999 642.8371L510.3697 642.8371z" stroke="none" fill="#F2C70F" fill-rule="nonzero" /></g></g></g></g><g clip-path="url(#17)"><g transform="matrix(0.1321499 0 0 0.1320973 181.3138 59.27765)"><g transform="matrix(1 0 0 1 0 0)"><image x="0" y="0" xlink:href="img_03.png" width="1521" height="863" /></g></g></g><g clip-path="url(#18)"><g transform="matrix(0.607317 0 0 0.607317 178.2938 503.9384)"><g transform="matrix(1 0 0 1 0 0)"><image x="0" y="0" xlink:href="img_04.png" width="410" height="410" /></g></g></g><g clip-path="url(#19)"><path id="265" transform="matrix(1 0 0 -1 0 842)" d="M217.2186 24.93775L388.91 24.93775L388.91 23.43775L217.2186 23.43775z" stroke="none" fill="#FFEFE1" fill-rule="nonzero" /></g></g></g></svg>