<svg xmlns="http://www.w3.org/2000/svg" xmlns:xlink="http://www.w3.org/1999/xlink" id="body_1" preserveAspectRatio="xMinYMin meet" viewBox="0 0 793 1123"><defs><clipPath id="1"><path id="" clip-rule="evenodd" transform="matrix(1 0 0 1 0 0)" d="M0 842L0 -0.25L0 -0.25L595.5 -0.25L595.5 -0.25L595.5 842L595.5 842L0 842z" /></clipPath><clipPath id="2"><path id="" clip-rule="evenodd" transform="matrix(1 0 0 1 0 0)" d="M0 -0.249939L595.5 -0.249939L595.5 -0.249939L595.5 842.0001L595.5 842.0001L0 842.0001z" /></clipPath><clipPath id="3"><path id="" clip-rule="evenodd" transform="matrix(1 0 0 1 0 0)" d="M0 -0.249939L595.5 -0.249939L595.5 -0.249939L595.5 842.0001L595.5 842.0001L0 842.0001z" /></clipPath><clipPath id="4"><path id="" clip-rule="evenodd" transform="matrix(1 0 0 1 0 0)" d="M0 -0.249939L595.5 -0.249939L595.5 -0.249939L595.5 842.0001L595.5 842.0001L0 842.0001z" /></clipPath><clipPath id="5"><path id="" clip-rule="evenodd" transform="matrix(1 0 0 1 0 0)" d="M402.72 640.79L595.6799 640.79L595.6799 640.79L595.6799 842.15L595.6799 842.15L402.72 842.15z" /></clipPath><clipPath id="6"><path id="" clip-rule="evenodd" transform="matrix(1 0 0 1 0 0)" d="M588.2535 798.0313L595.5 798.0313L595.5 798.0313L595.5 842.0198L595.5 842.0198L588.2535 842.0198z" /></clipPath><clipPath id="7"><path id="" clip-rule="evenodd" transform="matrix(1 0 0 1 0 0)" d="M595.4985 798.0313C 591.621 812.1538 589.1535 826.8688 588.2535 842.0038L588.2535 842.0038L595.4985 842.0038L595.4985 842.0038L595.4985 798.0313z" /></clipPath><clipPath id="8"><path id="" clip-rule="evenodd" transform="matrix(1 0 0 1 0 0)" d="M588.2535 798.0313L595.5 798.0313L595.5 798.0313L595.5 841.9915L595.5 841.9915L588.2535 841.9915z" /></clipPath><clipPath id="9"><path id="" clip-rule="evenodd" transform="matrix(1 0 0 1 0 0)" d="M83.75999 18.47009L527.28 18.47009L527.28 18.47009L527.28 798.7101L527.28 798.7101L83.75999 798.7101z" /></clipPath><clipPath id="10"><path id="" clip-rule="evenodd" transform="matrix(1 0 0 1 0 0)" d="M84.60761 18.58173L527.1076 18.58173L527.1076 18.58173L527.1076 798.5817L527.1076 798.5817L84.60761 798.5817z" /></clipPath><clipPath id="11"><path id="" clip-rule="evenodd" transform="matrix(1 0 0 1 0 0)" d="M0 -0.249939L595.5 -0.249939L595.5 -0.249939L595.5 842.0001L595.5 842.0001L0 842.0001z" /></clipPath><clipPath id="12"><path id="" clip-rule="evenodd" transform="matrix(1 0 0 1 0 0)" d="M0 -0.249939L595.5 -0.249939L595.5 -0.249939L595.5 842.0001L595.5 842.0001L0 842.0001z" /></clipPath><clipPath id="13"><path id="" clip-rule="evenodd" transform="matrix(1 0 0 1 0 0)" d="M0 728.4428L22.382 728.4428L22.382 728.4428L22.382 842.014L22.382 842.014L0 842.014z" /></clipPath><clipPath id="14"><path id="" clip-rule="evenodd" transform="matrix(1 0 0 1 0 0)" d="M0 728.4951L0 737.1151C 2.72 741.955 5.16 746.9451 7.319999 752.0551C 14.98 770.125 18.98 789.745 19.12 809.4351C 19.19 820.3651 18.07 831.3051 15.79 842.005L15.79 842.005L18.66 842.005C 21.05 831.325 22.29 820.3951 22.37 809.4351C 22.5 789.335 18.68 769.175 11.07 750.4951C 7.99 742.885 4.28 735.515 0 728.4951zM0 795.075L0 821.715C 0.41 817.6351 0.6399999 813.535 0.67 809.4351C 0.71 804.6451 0.48 799.8451 0 795.075z" /></clipPath><clipPath id="15"><path id="" clip-rule="evenodd" transform="matrix(1 0 0 1 0 0)" d="M0 -0.249939L595.5 -0.249939L595.5 -0.249939L595.5 842.0001L595.5 842.0001L0 842.0001z" /></clipPath><clipPath id="16"><path id="" clip-rule="evenodd" transform="matrix(1 0 0 1 0 0)" d="M0 -0.249939L595.5 -0.249939L595.5 -0.249939L595.5 842.0001L595.5 842.0001L0 842.0001z" /></clipPath><clipPath id="17"><path id="" clip-rule="evenodd" transform="matrix(1 0 0 1 0 0)" d="M519.2456 153.684L604.7084 153.684L604.7084 153.684L604.7084 331.2603L604.7084 331.2603L519.2456 331.2603z" /></clipPath><clipPath id="18"><path id="" clip-rule="evenodd" transform="matrix(1 0 0 1 0 0)" d="M604.3749 153.8259C 594.025 154.1559 583.715 156.3159 574.0951 160.2359C 563.4252 164.5659 553.6153 171.0358 545.3954 179.1458C 537.1755 187.2557 530.5555 196.9956 526.0555 207.6655C 522.1256 216.9354 519.8256 226.9053 519.2456 236.9852L519.2456 236.9852L519.2456 247.2151C 519.8056 256.905 521.9456 266.515 525.6255 275.5249C 530.0056 286.3048 536.5455 296.2247 544.7354 304.5247C 552.9253 312.8246 562.7752 319.5245 573.5552 324.0745C 583.295 328.1945 593.795 330.5444 604.3749 331.0144L604.3749 331.0144L604.3749 327.2944C 594.265 326.9645 584.205 324.8544 574.8151 321.0344C 564.3752 316.7945 554.7753 310.4646 546.7254 302.5347C 538.6754 294.6047 532.1955 285.0548 527.7955 274.6249C 523.3756 264.1949 521.0656 252.8651 520.9856 241.5052C 520.9056 230.1453 523.0656 218.7554 527.3655 208.2054C 531.6355 197.6456 538.0454 187.9457 546.0654 179.8057C 554.0853 171.6658 563.7252 165.1259 574.2751 160.6659C 583.785 156.6359 594.035 154.3459 604.3749 153.866L604.3749 153.866L604.3749 153.8259zM604.3749 166.3658C 595.6649 166.6859 586.995 168.5258 578.8851 171.8158C 569.7352 175.5157 561.3152 181.0557 554.2553 188.0056C 547.1954 194.9556 541.5054 203.3055 537.6354 212.4554C 533.7455 221.6053 531.7155 231.5353 531.6355 241.5052C 531.5555 251.4751 533.4355 261.465 537.2055 270.7349C 540.9554 280.0049 546.5654 288.5248 553.5953 295.6747C 560.6252 302.8246 569.0851 308.5846 578.3551 312.5046C 586.585 315.9945 595.4349 318.0145 604.3848 318.4745L604.3848 318.4745L604.3848 314.7645C 595.915 314.4446 587.4951 312.6545 579.6151 309.4646C 570.6951 305.8546 562.4753 300.4547 555.5953 293.6847C 548.7153 286.9148 543.1454 278.7449 539.3654 269.825C 535.5754 260.905 533.5855 251.2251 533.5055 241.4952C 533.4255 231.7653 535.2655 222.0254 538.9355 212.9854C 542.5954 203.9455 548.0654 195.6356 554.9253 188.6556C 561.7853 181.6757 570.0352 176.0558 579.0751 172.2358C 587.075 168.8358 595.6849 166.8658 604.3848 166.4058L604.3848 166.4058L604.3848 166.3558L604.3848 166.3558L604.3749 166.3658zM604.3749 178.9058C 597.3049 179.2257 590.275 180.7257 583.685 183.3957C 576.0451 186.4756 569.0152 191.0856 563.1152 196.8656C 557.2153 202.6455 552.4553 209.6155 549.2154 217.2554C 545.9554 224.8853 544.2454 233.1752 544.1554 241.5052C 544.0654 249.8351 545.6354 258.1851 548.7753 265.9349C 551.8953 273.6849 556.5753 280.8248 562.4552 286.8048C 568.3351 292.7847 575.3951 297.6247 583.145 300.9147C 589.855 303.7747 597.075 305.4646 604.3749 305.9146L604.3749 305.9146L604.3749 302.2147C 597.5449 301.9047 590.765 300.4447 584.405 297.8747C 576.9951 294.8947 570.1752 290.4247 564.4453 284.8048C 558.7153 279.1848 554.0953 272.4349 550.9454 265.025C 547.7853 257.625 546.1154 249.5751 546.0354 241.4952C 545.9554 233.4153 547.4653 225.3053 550.5053 217.7854C 553.5353 210.2654 558.0753 203.3355 563.7752 197.5256C 569.4752 191.7156 576.3451 187.0256 583.8651 183.8257C 590.345 181.0557 597.3149 179.4158 604.3749 178.9657L604.3749 178.9657L604.3749 178.9058zM604.3749 191.4556C 598.9449 191.7556 593.5449 192.9356 588.485 194.9756C 582.3651 197.4255 576.7251 201.1055 571.9852 205.7355C 567.2452 210.3655 563.4052 215.9254 560.7953 222.0453C 558.1852 228.1653 556.7753 234.8152 556.6953 241.4952C 556.6153 248.1752 557.8553 254.8951 560.3552 261.125C 562.8552 267.355 566.5952 273.1049 571.3152 277.9349C 576.0351 282.7648 581.7051 286.6648 587.945 289.3248C 593.145 291.5547 598.7249 292.9147 604.3749 293.3447L604.3749 293.3447L604.3749 289.6548C 599.1849 289.3547 594.0449 288.2248 589.205 286.2848C 583.3151 283.9348 577.8751 280.3948 573.3152 275.9349C 568.7552 271.475 565.0552 266.115 562.5353 260.225C 560.0153 254.3351 558.6653 247.9351 558.5753 241.4952C 558.4853 235.0552 559.6852 228.5853 562.0952 222.5853C 564.5052 216.5854 568.1052 211.0454 572.6451 206.3855C 577.1851 201.7255 582.6551 197.9656 588.665 195.3956C 593.6349 193.2556 598.9649 191.9556 604.3749 191.5256L604.3749 191.5256L604.3749 191.4456L604.3749 191.4456L604.3749 191.4556zM604.3749 204.0055C 600.5849 204.2855 596.8249 205.1355 593.275 206.5455C 588.665 208.3655 584.415 211.1155 580.8351 214.5854C 577.2551 218.0554 574.3552 222.2354 572.3651 226.8453C 570.3752 231.4553 569.2952 236.4652 569.2152 241.5052C 569.1351 246.5452 570.0552 251.6251 571.9252 256.345C 573.7951 261.065 576.6151 265.4249 580.165 269.085C 583.715 272.7449 588.005 275.7249 592.725 277.7649C 596.4049 279.3649 600.3549 280.3749 604.3649 280.7849L604.3649 280.7849L604.3649 277.1149C 600.8149 276.8348 597.3049 276.0349 593.985 274.7249C 589.605 272.9949 585.565 270.3849 582.155 267.095C 578.7451 263.805 575.9851 259.8251 574.0851 255.4451C 572.1851 251.0651 571.1652 246.3052 571.0851 241.5052C 571.0052 236.7052 571.8752 231.8752 573.6552 227.3853C 575.4351 222.8954 578.1051 218.7454 581.485 215.2554C 584.8651 211.7654 588.945 208.9255 593.435 206.9855C 596.895 205.4855 600.5849 204.5155 604.3549 204.1155L604.3549 204.1155L604.3549 204.0055L604.3549 204.0055L604.3749 204.0055zM604.3749 216.5854C 602.2249 216.8254 600.1049 217.3354 598.075 218.1254C 594.9849 219.3154 592.125 221.1354 589.705 223.4453C 587.285 225.7553 585.3151 228.5553 583.955 231.6353C 582.5951 234.7152 581.8451 238.0952 581.7551 241.4952C 581.6851 244.8951 582.275 248.3351 583.5151 251.5351C 584.7551 254.735 586.645 257.7051 589.035 260.215C 591.425 262.725 594.335 264.755 597.535 266.165C 599.7049 267.125 602.0149 267.7849 604.3749 268.1449L604.3749 268.1449L604.3749 264.525C 602.4749 264.295 600.5949 263.835 598.7949 263.135C 595.9349 262.035 593.275 260.355 591.035 258.225C 588.795 256.0951 586.955 253.4951 585.695 250.6451C 584.435 247.7951 583.725 244.6652 583.6451 241.5052C 583.5751 238.3452 584.1151 235.1553 585.265 232.1853C 586.415 229.2153 588.155 226.4453 590.3749 224.1154C 592.595 221.7853 595.2949 219.8854 598.2649 218.5654C 600.2049 217.7054 602.2749 217.0954 604.3848 216.7554L604.3848 216.7554L604.3848 216.5954L604.3848 216.5954L604.3749 216.5854zM604.3749 229.2653C 602.2449 229.7552 600.2149 230.7853 598.5649 232.3053C 596.035 234.5952 594.4349 237.9652 594.2849 241.4952C 594.1149 245.0251 595.4149 248.6652 597.895 251.3551C 599.6049 253.2351 601.8749 254.6351 604.3749 255.3551L604.3749 255.3551L604.3749 251.7951C 602.7349 251.3551 601.1849 250.5351 599.895 249.3651C 597.715 247.4151 596.3149 244.5452 596.1649 241.5052C 595.9949 238.4652 597.0949 235.3252 599.2249 232.9753C 600.5949 231.4553 602.3849 230.2853 604.3749 229.6153L604.3749 229.6153L604.3749 229.2753L604.3749 229.2753L604.3749 229.2653z" /></clipPath><clipPath id="19"><path id="" clip-rule="evenodd" transform="matrix(1 0 0 1 0 0)" d="M529.7512 463.5816L592.0012 463.5816L592.0012 463.5816L592.0012 525.8315L592.0012 525.8315L529.7512 525.8315z" /></clipPath><clipPath id="20"><path id="" clip-rule="evenodd" transform="matrix(1 0 0 1 0 0)" d="M18.7935 557.6802L312.7935 557.6802L312.7935 557.6802L312.7935 727.1802L312.7935 727.1802L18.7935 727.1802z" /></clipPath><clipPath id="21"><path id="" clip-rule="evenodd" transform="matrix(1 0 0 1 0 0)" d="M83.52473 52.30121L488.5247 52.30121L488.5247 52.30121L488.5247 509.8012L488.5247 509.8012L83.52473 509.8012z" /></clipPath><clipPath id="22"><path id="" clip-rule="evenodd" transform="matrix(1 0 0 1 0 0)" d="M471.945 683.5531L560.445 683.5531L560.445 683.5531L560.445 771.3031L560.445 771.3031L471.945 771.3031z" /></clipPath><clipPath id="23"><path id="" clip-rule="evenodd" transform="matrix(1 0 0 1 0 0)" d="M0 -0.249939L595.5 -0.249939L595.5 -0.249939L595.5 842.0001L595.5 842.0001L0 842.0001z" /></clipPath><clipPath id="24"><path id="" clip-rule="evenodd" transform="matrix(1 0 0 1 0 0)" d="M0 -0.249939L595.5 -0.249939L595.5 -0.249939L595.5 842.0001L595.5 842.0001L0 842.0001z" /></clipPath><clipPath id="25"><path id="" clip-rule="evenodd" transform="matrix(1 0 0 1 0 0)" d="M100.6735 530.1786L446.2477 530.1786L446.2477 530.1786L446.2477 531.6786L446.2477 531.6786L100.6735 531.6786z" /></clipPath><clipPath id="26"><path id="" clip-rule="evenodd" transform="matrix(1 0 0 1 0 0)" d="M315.0635 530.1786L315.0635 531.6786L315.0635 531.6786L446.2435 531.6786L446.2435 531.6786L446.2435 530.1786L446.2435 530.1786L315.0635 530.1786zM100.6735 530.1786L100.6735 531.6786L100.6735 531.6786L307.9435 531.6786L307.9435 531.6786L307.9435 530.1786L307.9435 530.1786L100.6735 530.1786z" /></clipPath><clipPath id="27"><path id="" clip-rule="evenodd" transform="matrix(1 0 0 1 0 0)" d="M83.52473 509.4288L457.0247 509.4288L457.0247 509.4288L457.0247 553.6788L457.0247 553.6788L83.52473 553.6788z" /></clipPath><clipPath id="28"><path id="" clip-rule="evenodd" transform="matrix(1 0 0 1 0 0)" d="M0 -0.249939L595.5 -0.249939L595.5 -0.249939L595.5 842.0001L595.5 842.0001L0 842.0001z" /></clipPath><clipPath id="29"><path id="" clip-rule="evenodd" transform="matrix(1 0 0 1 0 0)" d="M507.2094 11.96155L579.9594 11.96155L579.9594 11.96155L579.9594 53.21155L579.9594 53.21155L507.2094 53.21155z" /></clipPath><clipPath id="30"><path id="" clip-rule="evenodd" transform="matrix(1 0 0 1 0 0)" d="M0 -0.249939L595.5 -0.249939L595.5 -0.249939L595.5 842.0001L595.5 842.0001L0 842.0001z" /></clipPath><clipPath id="31"><path id="" clip-rule="evenodd" transform="matrix(1 0 0 1 0 0)" d="M0 -0.249939L595.5 -0.249939L595.5 -0.249939L595.5 842.0001L595.5 842.0001L0 842.0001z" /></clipPath><clipPath id="32"><path id="" clip-rule="evenodd" transform="matrix(1 0 0 1 0 0)" d="M8.981736 11.96155L41.23174 11.96155L41.23174 11.96155L41.23174 44.21155L41.23174 44.21155L8.981736 44.21155z" /></clipPath><clipPath id="33"><path id="" clip-rule="evenodd" transform="matrix(1 0 0 1 0 0)" d="M8.981736 27.85583C 8.981736 32.07123 10.65631 36.11401 13.63706 39.09479C 16.61781 42.0755 20.66058 43.75012 24.876 43.75012C 29.09142 43.75012 33.13419 42.0755 36.11494 39.09479C 39.0957 36.11401 40.77027 32.07123 40.77027 27.85583C 40.77027 23.64038 39.0957 19.59766 36.11494 16.61688C 33.13419 13.63611 29.09142 11.96155 24.876 11.96155C 20.66058 11.96155 16.61781 13.63611 13.63706 16.61688C 10.65631 19.59766 8.981736 23.64038 8.981736 27.85583z" /></clipPath><clipPath id="34"><path id="" clip-rule="evenodd" transform="matrix(1 0 0 1 0 0)" d="M9.731736 12.71155L40.48174 12.71155L40.48174 12.71155L40.48174 43.46155L40.48174 43.46155L9.731736 43.46155z" /></clipPath><clipPath id="35"><path id="" clip-rule="evenodd" transform="matrix(1 0 0 1 0 0)" d="M24.876 12.86157C 28.85273 12.86157 32.66658 14.44128 35.47854 17.2533C 38.29052 20.06525 39.87026 23.87909 39.87026 27.85583C 39.87026 31.83252 38.29052 35.64642 35.47854 38.45837C 32.66658 41.27032 28.85273 42.8501 24.876 42.8501C 20.89927 42.8501 17.08542 41.27032 14.27345 38.45837C 11.46148 35.64642 9.881736 31.83252 9.881736 27.85583C 9.881736 23.87909 11.46148 20.06525 14.27345 17.2533C 17.08542 14.44128 20.89927 12.86157 24.876 12.86157z" /></clipPath><clipPath id="36"><path id="" clip-rule="evenodd" transform="matrix(1 0 0 1 0 0)" d="M9.731736 12.71155L40.48174 12.71155L40.48174 12.71155L40.48174 43.46155L40.48174 43.46155L9.731736 43.46155z" /></clipPath><clipPath id="37"><path id="" clip-rule="evenodd" transform="matrix(1 0 0 1 0 0)" d="M8.975039 11.95483L40.47504 11.95483L40.47504 11.95483L40.47504 43.45483L40.47504 43.45483L8.975039 43.45483z" /></clipPath><clipPath id="38"><path id="" clip-rule="evenodd" transform="matrix(1 0 0 1 0 0)" d="M0 -0.249939L595.5 -0.249939L595.5 -0.249939L595.5 842.0001L595.5 842.0001L0 842.0001z" /></clipPath><clipPath id="39"><path id="" clip-rule="evenodd" transform="matrix(1 0 0 1 0 0)" d="M0 -0.249939L595.5 -0.249939L595.5 -0.249939L595.5 842.0001L595.5 842.0001L0 842.0001z" /></clipPath><clipPath id="40"><path id="" clip-rule="evenodd" transform="matrix(1 0 0 1 0 0)" d="M8.981736 11.96155L41.23174 11.96155L41.23174 11.96155L41.23174 44.21155L41.23174 44.21155L8.981736 44.21155z" /></clipPath><clipPath id="41"><path id="" clip-rule="evenodd" transform="matrix(1 0 0 1 0 0)" d="M8.981736 27.85583C 8.981736 32.07123 10.65631 36.11401 13.63706 39.09479C 16.61781 42.0755 20.66058 43.75012 24.876 43.75012C 29.09142 43.75012 33.13419 42.0755 36.11494 39.09479C 39.0957 36.11401 40.77027 32.07123 40.77027 27.85583C 40.77027 23.64038 39.0957 19.59766 36.11494 16.61688C 33.13419 13.63611 29.09142 11.96155 24.876 11.96155C 20.66058 11.96155 16.61781 13.63611 13.63706 16.61688C 10.65631 19.59766 8.981736 23.64038 8.981736 27.85583z" /></clipPath><clipPath id="42"><path id="" clip-rule="evenodd" transform="matrix(1 0 0 1 0 0)" d="M8.981736 11.96155L40.48174 11.96155L40.48174 11.96155L40.48174 43.46155L40.48174 43.46155L8.981736 43.46155z" /></clipPath><clipPath id="43"><path id="" clip-rule="evenodd" transform="matrix(1 0 0 1 0 0)" d="M8.981736 11.96155L41.22435 11.96155L41.22435 11.96155L41.22435 44.20416L41.22435 44.20416L8.981736 44.20416z" /></clipPath><clipPath id="44"><path id="" clip-rule="evenodd" transform="matrix(1 0 0 1 0 0)" d="M8.981736 27.85217C 8.981736 32.06665 10.65592 36.10846 13.63599 39.08856C 16.61606 42.0686 20.6579 43.7428 24.87236 43.7428C 29.08681 43.7428 33.12866 42.0686 36.10873 39.08856C 39.0888 36.10846 40.76299 32.06665 40.76299 27.85217C 40.76299 23.63776 39.0888 19.59589 36.10873 16.61584C 33.12866 13.63574 29.08681 11.96155 24.87236 11.96155C 20.6579 11.96155 16.61606 13.63574 13.63599 16.61584C 10.65592 19.59589 8.981736 23.63776 8.981736 27.85217z" /></clipPath><clipPath id="45"><path id="" clip-rule="evenodd" transform="matrix(1 0 0 1 0 0)" d="M0 -0.249939L595.5 -0.249939L595.5 -0.249939L595.5 842.0001L595.5 842.0001L0 842.0001z" /></clipPath><clipPath id="46"><path id="" clip-rule="evenodd" transform="matrix(1 0 0 1 0 0)" d="M36.94721 657.2032L199.6972 657.2032L199.6972 657.2032L199.6972 819.9532L199.6972 819.9532L36.94721 819.9532z" /></clipPath><clipPath id="47"><path id="" clip-rule="evenodd" transform="matrix(1 0 0 1 0 0)" d="M501.5081 571.1032L572.0081 571.1032L572.0081 571.1032L572.0081 654.3532L572.0081 654.3532L501.5081 654.3532z" /></clipPath><clipPath id="48"><path id="" clip-rule="evenodd" transform="matrix(1 0 0 1 0 0)" d="M0 -0.249939L595.5 -0.249939L595.5 -0.249939L595.5 842.0001L595.5 842.0001L0 842.0001z" /></clipPath></defs><g transform="matrix(1.333333 0 0 1.333333 0 0)"><g clip-path="url(#1)"><g clip-path="url(#2)"><path id="1" transform="matrix(1 0 0 -1 0 842)" d="M0 842.2499L595.4999 842.2499L595.4999 -6.103516E-05L0 -6.103516E-05z" stroke="none" fill="#FFFFFF" fill-rule="nonzero" /></g><g clip-path="url(#3)"><path id="2" transform="matrix(1 0 0 -1 0 842)" d="M0 842.2499L595.4999 842.2499L595.4999 -6.103516E-05L0 -6.103516E-05z" stroke="none" fill="#FFFFFF" fill-rule="nonzero" /></g><g clip-path="url(#4)"><g><g clip-path="url(#5)"><g clip-path="url(#6)"><g clip-path="url(#7)"><g clip-path="url(#8)"><g transform="matrix(0.9534383 0 0 0.9532843 402.8055 640.8411)"><g transform="matrix(1 0 0 1 0 0)"><image x="0" y="0" xlink:href="img_01.png" width="800" height="449" /></g></g></g></g></g></g></g><g><g clip-path="url(#9)"><g clip-path="url(#10)"><g transform="matrix(0 0.5128205 -0.5127462 0 527.1075 18.58179)"><g transform="matrix(1 0 0 1 0 0)"><image x="0" y="0" xlink:href="img_02.png" width="1521" height="863" /></g></g></g></g></g></g><g clip-path="url(#11)"><g clip-path="url(#12)"><g clip-path="url(#13)"><g clip-path="url(#14)"><path id="5" transform="matrix(1 0 0 -1 0 842)" d="M0 187.7849L22.382 187.7849L22.382 -0.01402283L0 -0.01402283z" stroke="none" fill="#D9D9D9" fill-rule="nonzero" /></g></g></g></g><g clip-path="url(#15)"><g clip-path="url(#16)"><g clip-path="url(#17)"><g clip-path="url(#18)"><path id="6" transform="matrix(1 0 0 -1 0 842)" d="M519.2456 691.974L604.3759 691.974L604.3759 510.7397L519.2456 510.7397z" stroke="none" fill="#D9D9D9" fill-rule="nonzero" /></g></g></g></g><g clip-path="url(#19)"><g transform="matrix(0.243164 0 0 0.243164 529.7512 463.5816)"><g transform="matrix(1 0 0 1 0 0)"><image x="0" y="0" xlink:href="img_03.png" width="256" height="256" /></g></g></g><g clip-path="url(#20)"><g transform="matrix(0.2405892 0 0 0.2400849 18.7935 557.6803)"><g transform="matrix(1 0 0 1 0 0)"><image x="0" y="0" xlink:href="img_04.png" width="1222" height="706" /></g></g></g><g clip-path="url(#21)"><g transform="matrix(0.2399289 0 0 0.2404099 83.52473 52.30121)"><g transform="matrix(1 0 0 1 0 0)"><image x="0" y="0" xlink:href="img_05.png" width="1688" height="1903" /></g></g></g><g clip-path="url(#22)"><g transform="matrix(0.36875 0 0 0.3671548 471.945 683.5531)"><g transform="matrix(1 0 0 1 0 0)"><image x="0" y="0" xlink:href="img_06.png" width="240" height="239" /></g></g></g><g clip-path="url(#23)"><g clip-path="url(#24)"><g clip-path="url(#25)"><g clip-path="url(#26)"><path id="11" transform="matrix(1 0 0 -1 0 842)" d="M100.6735 311.8214L446.2477 311.8214L446.2477 310.3214L100.6735 310.3214z" stroke="none" fill="#000000" fill-rule="nonzero" /></g></g></g></g><g clip-path="url(#27)"><g transform="matrix(0.2400385 0 0 0.2404891 83.52473 509.4288)"><g transform="matrix(1 0 0 1 0 0)"><image x="0" y="0" xlink:href="img_07.png" width="1556" height="184" /></g></g></g><g clip-path="url(#28)"></g><g clip-path="url(#29)"><g transform="matrix(0.04783037 0 0 0.04779837 507.2094 11.96161)"><g transform="matrix(1 0 0 1 0 0)"><image x="0" y="0" xlink:href="img_08.png" width="1521" height="863" /></g></g></g><g clip-path="url(#30)"><g clip-path="url(#31)"><g clip-path="url(#32)"><g clip-path="url(#33)"><g clip-path="url(#34)"><g clip-path="url(#35)"><g clip-path="url(#36)"><g clip-path="url(#37)"><path id="39" transform="matrix(1 0 0 -1 0 842)" d="M24.72504 829.8123C 16.16728 829.8123 9.207798 822.8528 9.207798 814.2951C 9.207798 805.7374 16.16728 798.7778 24.72504 798.7778C 33.28279 798.7778 40.24228 805.7374 40.24228 814.2951C 40.24228 822.8528 33.28279 829.8123 24.72504 829.8123zM24.72504 798.5451C 16.04314 798.5451 8.975039 805.6132 8.975039 814.2951C 8.975039 822.977 16.04314 830.0451 24.72504 830.0451C 33.40693 830.0451 40.47504 822.977 40.47504 814.2951C 40.47504 805.6132 33.40693 798.5451 24.72504 798.5451z" stroke="none" fill="#000000" fill-rule="nonzero" /></g></g></g></g></g></g></g></g><g clip-path="url(#38)"><g clip-path="url(#39)"><g clip-path="url(#40)"><g clip-path="url(#41)"><g clip-path="url(#42)"><g clip-path="url(#43)"><g clip-path="url(#44)"><path id="40" transform="matrix(1 0 0 -1 0 842)" d="M8.981735 814.1478C 8.981735 809.9333 10.65592 805.8915 13.63599 802.9114C 16.61606 799.9313 20.6579 798.2571 24.87236 798.2571C 29.08681 798.2571 33.12865 799.9313 36.10873 802.9114C 39.08879 805.8915 40.76299 809.9333 40.76299 814.1478C 40.76299 818.3622 39.08879 822.4041 36.10873 825.3842C 33.12865 828.3642 29.08681 830.0384 24.87236 830.0384C 20.6579 830.0384 16.61606 828.3642 13.63599 825.3842C 10.65592 822.4041 8.981735 818.3622 8.981735 814.1478z" stroke="#000000" stroke-width="1.5" fill="none" /></g></g></g></g></g></g></g><g clip-path="url(#45)"></g><g clip-path="url(#46)"><g transform="matrix(0.5284091 0 0 0.5284091 36.9472 657.2032)"><g transform="matrix(1 0 0 1 0 0)"><image x="0" y="0" xlink:href="img_09.png" width="308" height="308" /></g></g></g><g clip-path="url(#47)"><g transform="matrix(0.592437 0 0 0.5946429 501.5081 571.1032)"><g transform="matrix(1 0 0 1 0 0)"><image x="0" y="0" xlink:href="img_10.png" width="119" height="140" /></g></g></g><g clip-path="url(#48)"></g></g></g></svg>