<svg xmlns="http://www.w3.org/2000/svg" xmlns:xlink="http://www.w3.org/1999/xlink" id="body_1" preserveAspectRatio="xMinYMin meet" viewBox="0 0 793 1123"><defs><clipPath id="1"><path id="" clip-rule="evenodd" transform="matrix(1 0 0 1 0 0)" d="M0 842L0 -0.25L0 -0.25L595.5 -0.25L595.5 -0.25L595.5 842L595.5 842L0 842z" /></clipPath><clipPath id="2"><path id="" clip-rule="evenodd" transform="matrix(1 0 0 1 0 0)" d="M0 -0.249939L595.5 -0.249939L595.5 -0.249939L595.5 842.0001L595.5 842.0001L0 842.0001z" /></clipPath><clipPath id="3"><path id="" clip-rule="evenodd" transform="matrix(1 0 0 1 0 0)" d="M0 -0.249939L595.5 -0.249939L595.5 -0.249939L595.5 842.0001L595.5 842.0001L0 842.0001z" /></clipPath><clipPath id="4"><path id="" clip-rule="evenodd" transform="matrix(1 0 0 1 0 0)" d="M0 -0.249939L595.5 -0.249939L595.5 -0.249939L595.5 842.0001L595.5 842.0001L0 842.0001z" /></clipPath><clipPath id="5"><path id="" clip-rule="evenodd" transform="matrix(1 0 0 1 0 0)" d="M78.71999 30.71008L522.24 30.71008L522.24 30.71008L522.24 810.9501L522.24 810.9501L78.71999 810.9501z" /></clipPath><clipPath id="6"><path id="" clip-rule="evenodd" transform="matrix(1 0 0 1 0 0)" d="M79.51787 30.75183L522.0178 30.75183L522.0178 30.75183L522.0178 810.7518L522.0178 810.7518L79.51787 810.7518z" /></clipPath><clipPath id="7"><path id="" clip-rule="evenodd" transform="matrix(1 0 0 1 0 0)" d="M342.9624 101.7173L578.4623 101.7173L578.4623 101.7173L578.4623 366.4673L578.4623 366.4673L342.9624 366.4673z" /></clipPath><clipPath id="8"><path id="" clip-rule="evenodd" transform="matrix(1 0 0 1 0 0)" d="M348.968 314.9966L565.718 314.9966L565.718 314.9966L565.718 318.7466L565.718 318.7466L348.968 318.7466z" /></clipPath><clipPath id="9"><path id="" clip-rule="evenodd" transform="matrix(1 0 0 1 0 0)" d="M0 -0.249939L595.5 -0.249939L595.5 -0.249939L595.5 842.0001L595.5 842.0001L0 842.0001z" /></clipPath><clipPath id="10"><path id="" clip-rule="evenodd" transform="matrix(1 0 0 1 0 0)" d="M0 -0.249939L595.5 -0.249939L595.5 -0.249939L595.5 842.0001L595.5 842.0001L0 842.0001z" /></clipPath><clipPath id="11"><path id="" clip-rule="evenodd" transform="matrix(1 0 0 1 0 0)" d="M381.252 175.6093L534.8212 175.6093L534.8212 175.6093L534.8212 310.3099L534.8212 310.3099L381.252 310.3099z" /></clipPath><clipPath id="12"><path id="" clip-rule="evenodd" transform="matrix(1 0 0 1 0 0)" d="M393.3158 175.6093C 386.6523 175.6093 381.252 181.0095 381.252 187.673L381.252 187.673L381.252 297.7227C 381.252 304.3862 386.6523 309.7865 393.3158 309.7865L393.3158 309.7865L522.7242 309.7865C 529.3877 309.7865 534.788 304.3862 534.788 297.7227L534.788 297.7227L534.788 187.673C 534.788 181.0095 529.3877 175.6093 522.7242 175.6093L522.7242 175.6093L393.3158 175.6093z" /></clipPath><clipPath id="13"><path id="" clip-rule="evenodd" transform="matrix(1 0 0 1 0 0)" d="M381.252 175.6093L534.8212 175.6093L534.8212 175.6093L534.8212 309.7858L534.8212 309.7858L381.252 309.7858z" /></clipPath><clipPath id="14"><path id="" clip-rule="evenodd" transform="matrix(1 0 0 1 0 0)" d="M0 -0.249939L595.5 -0.249939L595.5 -0.249939L595.5 842.0001L595.5 842.0001L0 842.0001z" /></clipPath><clipPath id="15"><path id="" clip-rule="evenodd" transform="matrix(1 0 0 1 0 0)" d="M72.45671 524.9643L318.699 524.9643L318.699 524.9643L318.699 810.946L318.699 810.946L72.45671 810.946z" /></clipPath><clipPath id="16"><path id="" clip-rule="evenodd" transform="matrix(1 0 0 1 0 0)" d="M0 -0.249939L595.5 -0.249939L595.5 -0.249939L595.5 842.0001L595.5 842.0001L0 842.0001z" /></clipPath><clipPath id="17"><path id="" clip-rule="evenodd" transform="matrix(1 0 0 1 0 0)" d="M0 -0.249939L595.5 -0.249939L595.5 -0.249939L595.5 842.0001L595.5 842.0001L0 842.0001z" /></clipPath><clipPath id="18"><path id="" clip-rule="evenodd" transform="matrix(1 0 0 1 0 0)" d="M88.00404 574.0246L174.0554 574.0246L174.0554 574.0246L174.0554 660.076L174.0554 660.076L88.00404 660.076z" /></clipPath><clipPath id="19"><path id="" clip-rule="evenodd" transform="matrix(1 0 0 1 0 0)" d="M100.0678 574.0246C 93.40434 574.0246 88.00404 579.4249 88.00404 586.0883L88.00404 586.0883L88.00404 648.0108C 88.00404 654.6743 93.40434 660.0745 100.0678 660.0745L100.0678 660.0745L161.9903 660.0745C 168.6537 660.0745 174.054 654.6743 174.054 648.0108L174.054 648.0108L174.054 586.0883C 174.054 579.4249 168.6537 574.0246 161.9903 574.0246L161.9903 574.0246L100.0678 574.0246z" /></clipPath><clipPath id="20"><path id="" clip-rule="evenodd" transform="matrix(1 0 0 1 0 0)" d="M88.00404 574.0246L174.0554 574.0246L174.0554 574.0246L174.0554 660.076L174.0554 660.076L88.00404 660.076z" /></clipPath><clipPath id="21"><path id="" clip-rule="evenodd" transform="matrix(1 0 0 1 0 0)" d="M0 -0.249939L595.5 -0.249939L595.5 -0.249939L595.5 842.0001L595.5 842.0001L0 842.0001z" /></clipPath><clipPath id="22"><path id="" clip-rule="evenodd" transform="matrix(1 0 0 1 0 0)" d="M0 -0.249939L595.5 -0.249939L595.5 -0.249939L595.5 842.0001L595.5 842.0001L0 842.0001z" /></clipPath><clipPath id="23"><path id="" clip-rule="evenodd" transform="matrix(1 0 0 1 0 0)" d="M197.0168 574.0246L281.3345 574.0246L281.3345 574.0246L281.3345 658.3423L281.3345 658.3423L197.0168 658.3423z" /></clipPath><clipPath id="24"><path id="" clip-rule="evenodd" transform="matrix(1 0 0 1 0 0)" d="M208.8167 574.0246C 202.2944 574.0385 197.0168 579.3231 197.0168 585.8453L197.0168 585.8453L197.0168 646.5202C 197.0168 653.0494 202.3083 658.3409 208.8375 658.3409L208.8375 658.3409L269.5125 658.3409C 276.0417 658.3409 281.3332 653.0494 281.3332 646.5202L281.3332 646.5202L281.3332 585.8453C 281.3332 579.3231 276.0556 574.0385 269.5333 574.0246L269.5333 574.0246L208.8167 574.0246z" /></clipPath><clipPath id="25"><path id="" clip-rule="evenodd" transform="matrix(1 0 0 1 0 0)" d="M197.0168 574.0246L281.3345 574.0246L281.3345 574.0246L281.3345 658.3423L281.3345 658.3423L197.0168 658.3423z" /></clipPath><clipPath id="26"><path id="" clip-rule="evenodd" transform="matrix(1 0 0 1 0 0)" d="M86.50175 776.4933L302.9395 776.4933L302.9395 776.4933L302.9395 780.0415L302.9395 780.0415L86.50175 780.0415z" /></clipPath><clipPath id="27"><path id="" clip-rule="evenodd" transform="matrix(1 0 0 1 0 0)" d="M0 -0.249939L595.5 -0.249939L595.5 -0.249939L595.5 842.0001L595.5 842.0001L0 842.0001z" /></clipPath><clipPath id="28"><path id="" clip-rule="evenodd" transform="matrix(1 0 0 1 0 0)" d="M0 -0.249939L595.5 -0.249939L595.5 -0.249939L595.5 842.0001L595.5 842.0001L0 842.0001z" /></clipPath><clipPath id="29"><path id="" clip-rule="evenodd" transform="matrix(1 0 0 1 0 0)" d="M142.039 672.0093L228.0904 672.0093L228.0904 672.0093L228.0904 758.0607L228.0904 758.0607L142.039 758.0607z" /></clipPath><clipPath id="30"><path id="" clip-rule="evenodd" transform="matrix(1 0 0 1 0 0)" d="M154.1027 672.0093C 147.4393 672.0093 142.039 677.4095 142.039 684.073L142.039 684.073L142.039 745.9955C 142.039 752.6589 147.4393 758.0592 154.1027 758.0592L154.1027 758.0592L216.0252 758.0592C 222.6886 758.0592 228.0889 752.6589 228.0889 745.9955L228.0889 745.9955L228.0889 684.073C 228.0889 677.4095 222.6886 672.0093 216.0252 672.0093L216.0252 672.0093L154.1027 672.0093z" /></clipPath><clipPath id="31"><path id="" clip-rule="evenodd" transform="matrix(1 0 0 1 0 0)" d="M142.039 672.0093L228.0904 672.0093L228.0904 672.0093L228.0904 758.0607L228.0904 758.0607L142.039 758.0607z" /></clipPath><clipPath id="32"><path id="" clip-rule="evenodd" transform="matrix(1 0 0 1 0 0)" d="M0 -0.249939L595.5 -0.249939L595.5 -0.249939L595.5 842.0001L595.5 842.0001L0 842.0001z" /></clipPath><clipPath id="33"><path id="" clip-rule="evenodd" transform="matrix(1 0 0 1 0 0)" d="M59.52756 198.5967L318.5433 198.5967L318.5433 198.5967L318.5433 493.8036L318.5433 493.8036L59.52756 493.8036z" /></clipPath><clipPath id="34"><path id="" clip-rule="evenodd" transform="matrix(1 0 0 1 0 0)" d="M79.74001 470.1729L296.1778 470.1729L296.1778 470.1729L296.1778 473.7211L296.1778 473.7211L79.74001 473.7211z" /></clipPath><clipPath id="35"><path id="" clip-rule="evenodd" transform="matrix(1 0 0 1 0 0)" d="M0 -0.249939L595.5 -0.249939L595.5 -0.249939L595.5 842.0001L595.5 842.0001L0 842.0001z" /></clipPath><clipPath id="36"><path id="" clip-rule="evenodd" transform="matrix(1 0 0 1 0 0)" d="M0 -0.249939L595.5 -0.249939L595.5 -0.249939L595.5 842.0001L595.5 842.0001L0 842.0001z" /></clipPath><clipPath id="37"><path id="" clip-rule="evenodd" transform="matrix(1 0 0 1 0 0)" d="M73.49028 280.4911L177.6231 280.4911L177.6231 280.4911L177.6231 406.9962L177.6231 406.9962L73.49028 406.9962z" /></clipPath><clipPath id="38"><path id="" clip-rule="evenodd" transform="matrix(1 0 0 1 0 0)" d="M85.52564 280.4911C 78.87639 280.5052 73.49028 285.8984 73.49028 292.5548L73.49028 292.5548L73.49028 394.9973C 73.49028 401.2279 78.20934 406.3514 84.26958 406.9901L84.26958 406.9901L166.8424 406.9901C 172.9026 406.3514 177.6217 401.2208 177.6217 394.9973L177.6217 394.9973L177.6217 292.5548C 177.6217 285.8984 172.2356 280.5052 165.5863 280.4911L165.5863 280.4911L85.52564 280.4911z" /></clipPath><clipPath id="39"><path id="" clip-rule="evenodd" transform="matrix(1 0 0 1 0 0)" d="M73.49028 280.4911L177.6231 280.4911L177.6231 280.4911L177.6231 406.9962L177.6231 406.9962L73.49028 406.9962z" /></clipPath><clipPath id="40"><path id="" clip-rule="evenodd" transform="matrix(1 0 0 1 0 0)" d="M0 -0.249939L595.5 -0.249939L595.5 -0.249939L595.5 842.0001L595.5 842.0001L0 842.0001z" /></clipPath><clipPath id="41"><path id="" clip-rule="evenodd" transform="matrix(1 0 0 1 0 0)" d="M0 -0.249939L595.5 -0.249939L595.5 -0.249939L595.5 842.0001L595.5 842.0001L0 842.0001z" /></clipPath><clipPath id="42"><path id="" clip-rule="evenodd" transform="matrix(1 0 0 1 0 0)" d="M194.9452 326.4142L306.735 326.4142L306.735 326.4142L306.735 452.9933L306.735 452.9933L194.9452 452.9933z" /></clipPath><clipPath id="43"><path id="" clip-rule="evenodd" transform="matrix(1 0 0 1 0 0)" d="M207.009 326.4142C 200.3455 326.4142 194.9452 331.8145 194.9452 338.4779L194.9452 338.4779L194.9452 440.9204C 194.9452 447.5839 200.3455 452.9842 207.009 452.9842L207.009 452.9842L294.2369 452.9842C 300.9004 452.9842 306.3007 447.5839 306.3007 440.9204L306.3007 440.9204L306.3007 338.4779C 306.3007 331.8145 300.9004 326.4142 294.2369 326.4142L294.2369 326.4142L207.009 326.4142z" /></clipPath><clipPath id="44"><path id="" clip-rule="evenodd" transform="matrix(1 0 0 1 0 0)" d="M194.9452 326.4142L306.3 326.4142L306.3 326.4142L306.3 452.9933L306.3 452.9933L194.9452 452.9933z" /></clipPath><clipPath id="45"><path id="" clip-rule="evenodd" transform="matrix(1 0 0 1 0 0)" d="M0 -0.249939L595.5 -0.249939L595.5 -0.249939L595.5 842.0001L595.5 842.0001L0 842.0001z" /></clipPath><clipPath id="46"><path id="" clip-rule="evenodd" transform="matrix(1 0 0 1 0 0)" d="M0 -0.249939L595.5 -0.249939L595.5 -0.249939L595.5 842.0001L595.5 842.0001L0 842.0001z" /></clipPath><clipPath id="47"><path id="" clip-rule="evenodd" transform="matrix(1 0 0 1 0 0)" d="M0 -0.249939L595.5 -0.249939L595.5 -0.249939L595.5 842.0001L595.5 842.0001L0 842.0001z" /></clipPath><clipPath id="48"><path id="" clip-rule="evenodd" transform="matrix(1 0 0 1 0 0)" d="M336.6424 377.2682L569.8449 377.2682L569.8449 377.2682L569.8449 645.9976L569.8449 645.9976L336.6424 645.9976z" /></clipPath><clipPath id="49"><path id="" clip-rule="evenodd" transform="matrix(1 0 0 1 0 0)" d="M364.3924 377.2682L542.0949 377.2682C 549.4547 377.2682 556.513 380.1918 561.7171 385.396C 566.9213 390.6001 569.8449 397.6584 569.8449 405.0182L569.8449 405.0182L569.8449 617.3462C 569.8449 624.7059 566.9213 631.7643 561.7171 636.9684C 556.513 642.1725 549.4547 645.0962 542.0949 645.0962L542.0949 645.0962L364.3924 645.0962C 357.0326 645.0962 349.9743 642.1725 344.7702 636.9684C 339.566 631.7643 336.6424 624.7059 336.6424 617.3462L336.6424 617.3462L336.6424 405.0182C 336.6424 397.6584 339.566 390.6001 344.7702 385.396C 349.9743 380.1918 357.0326 377.2682 364.3924 377.2682z" /></clipPath><clipPath id="50"><path id="" clip-rule="evenodd" transform="matrix(1 0 0 1 0 0)" d="M343.9293 624.2704L561.4293 624.2704L561.4293 624.2704L561.4293 628.0204L561.4293 628.0204L343.9293 628.0204z" /></clipPath><clipPath id="51"><path id="" clip-rule="evenodd" transform="matrix(1 0 0 1 0 0)" d="M0 -0.249939L595.5 -0.249939L595.5 -0.249939L595.5 842.0001L595.5 842.0001L0 842.0001z" /></clipPath><clipPath id="52"><path id="" clip-rule="evenodd" transform="matrix(1 0 0 1 0 0)" d="M0 -0.249939L595.5 -0.249939L595.5 -0.249939L595.5 842.0001L595.5 842.0001L0 842.0001z" /></clipPath><clipPath id="53"><path id="" clip-rule="evenodd" transform="matrix(1 0 0 1 0 0)" d="M344.6985 433.432L457.3048 433.432L457.3048 433.432L457.3048 519.4834L457.3048 519.4834L344.6985 519.4834z" /></clipPath><clipPath id="54"><path id="" clip-rule="evenodd" transform="matrix(1 0 0 1 0 0)" d="M356.7622 433.432C 350.0988 433.432 344.6985 438.8323 344.6985 445.4958L344.6985 445.4958L344.6985 507.4182C 344.6985 514.0817 350.0988 519.482 356.7622 519.482L356.7622 519.482L445.2818 519.482C 451.6117 519.482 456.7991 514.6139 457.3029 508.4188L457.3029 508.4188L457.3029 444.4952C 456.7991 438.3001 451.6117 433.432 445.2818 433.432L445.2818 433.432L356.7622 433.432z" /></clipPath><clipPath id="55"><path id="" clip-rule="evenodd" transform="matrix(1 0 0 1 0 0)" d="M344.6985 433.432L457.3048 433.432L457.3048 433.432L457.3048 519.4834L457.3048 519.4834L344.6985 519.4834z" /></clipPath><clipPath id="56"><path id="" clip-rule="evenodd" transform="matrix(1 0 0 1 0 0)" d="M0 -0.249939L595.5 -0.249939L595.5 -0.249939L595.5 842.0001L595.5 842.0001L0 842.0001z" /></clipPath><clipPath id="57"><path id="" clip-rule="evenodd" transform="matrix(1 0 0 1 0 0)" d="M0 -0.249939L595.5 -0.249939L595.5 -0.249939L595.5 842.0001L595.5 842.0001L0 842.0001z" /></clipPath><clipPath id="58"><path id="" clip-rule="evenodd" transform="matrix(1 0 0 1 0 0)" d="M468.3785 435.5609L554.4299 435.5609L554.4299 435.5609L554.4299 521.6124L554.4299 521.6124L468.3785 521.6124z" /></clipPath><clipPath id="59"><path id="" clip-rule="evenodd" transform="matrix(1 0 0 1 0 0)" d="M480.4422 435.5609C 473.7788 435.5609 468.3785 440.9612 468.3785 447.6247L468.3785 447.6247L468.3785 509.5472C 468.3785 516.2106 473.7788 521.6109 480.4422 521.6109L480.4422 521.6109L542.3647 521.6109C 549.0282 521.6109 554.4285 516.2106 554.4285 509.5472L554.4285 509.5472L554.4285 447.6247C 554.4285 440.9612 549.0282 435.5609 542.3647 435.5609L542.3647 435.5609L480.4422 435.5609z" /></clipPath><clipPath id="60"><path id="" clip-rule="evenodd" transform="matrix(1 0 0 1 0 0)" d="M468.3785 435.5609L554.4299 435.5609L554.4299 435.5609L554.4299 521.6124L554.4299 521.6124L468.3785 521.6124z" /></clipPath><clipPath id="61"><path id="" clip-rule="evenodd" transform="matrix(1 0 0 1 0 0)" d="M0 -0.249939L595.5 -0.249939L595.5 -0.249939L595.5 842.0001L595.5 842.0001L0 842.0001z" /></clipPath><clipPath id="62"><path id="" clip-rule="evenodd" transform="matrix(1 0 0 1 0 0)" d="M0 -0.249939L595.5 -0.249939L595.5 -0.249939L595.5 842.0001L595.5 842.0001L0 842.0001z" /></clipPath><clipPath id="63"><path id="" clip-rule="evenodd" transform="matrix(1 0 0 1 0 0)" d="M398.8178 532.2568L515.7939 532.2568L515.7939 532.2568L515.7939 618.3083L515.7939 618.3083L398.8178 618.3083z" /></clipPath><clipPath id="64"><path id="" clip-rule="evenodd" transform="matrix(1 0 0 1 0 0)" d="M410.8816 532.2568C 404.2181 532.2568 398.8178 537.6572 398.8178 544.3206L398.8178 544.3206L398.8178 606.243C 398.8178 612.9065 404.2181 618.3068 410.8816 618.3068L410.8816 618.3068L503.7299 618.3068C 510.3933 618.3068 515.7936 612.9065 515.7936 606.243L515.7936 606.243L515.7936 544.3206C 515.7936 537.6572 510.3933 532.2568 503.7299 532.2568L503.7299 532.2568L410.8816 532.2568z" /></clipPath><clipPath id="65"><path id="" clip-rule="evenodd" transform="matrix(1 0 0 1 0 0)" d="M398.8178 532.2568L515.7939 532.2568L515.7939 532.2568L515.7939 618.3083L515.7939 618.3083L398.8178 618.3083z" /></clipPath><clipPath id="66"><path id="" clip-rule="evenodd" transform="matrix(1 0 0 1 0 0)" d="M0 -0.249939L595.5 -0.249939L595.5 -0.249939L595.5 842.0001L595.5 842.0001L0 842.0001z" /></clipPath><clipPath id="67"><path id="" clip-rule="evenodd" transform="matrix(1 0 0 1 0 0)" d="M471.6194 10.22382L584.1194 10.22382L584.1194 10.22382L584.1194 73.97382L584.1194 73.97382L471.6194 73.97382z" /></clipPath><clipPath id="68"><path id="" clip-rule="evenodd" transform="matrix(1 0 0 1 0 0)" d="M0 -0.249939L595.5 -0.249939L595.5 -0.249939L595.5 842.0001L595.5 842.0001L0 842.0001z" /></clipPath><clipPath id="69"><path id="" clip-rule="evenodd" transform="matrix(1 0 0 1 0 0)" d="M0 -0.249939L595.5 -0.249939L595.5 -0.249939L595.5 842.0001L595.5 842.0001L0 842.0001z" /></clipPath><clipPath id="70"><path id="" clip-rule="evenodd" transform="matrix(1 0 0 1 0 0)" d="M353.3307 116.0548L383.3307 116.0548L383.3307 116.0548L383.3307 140.8048L383.3307 140.8048L353.3307 140.8048z" /></clipPath><clipPath id="71"><path id="" clip-rule="evenodd" transform="matrix(1 0 0 1 0 0)" d="M353.3307 128.4254C 353.3307 131.7062 354.6341 134.8527 356.954 137.1727C 359.274 139.4926 362.4204 140.7959 365.7013 140.7959L365.7013 140.7959L370.7407 140.7959C 374.0216 140.7959 377.1681 139.4926 379.488 137.1727C 381.8079 134.8527 383.1112 131.7062 383.1112 128.4254C 383.1112 125.1445 381.8079 121.998 379.488 119.678C 377.1681 117.3581 374.0216 116.0548 370.7407 116.0548L370.7407 116.0548L365.7013 116.0548C 362.4204 116.0548 359.274 117.3581 356.954 119.678C 354.6341 121.998 353.3307 125.1445 353.3307 128.4254z" /></clipPath><clipPath id="72"><path id="" clip-rule="evenodd" transform="matrix(1 0 0 1 0 0)" d="M354.0807 116.8048L382.5807 116.8048L382.5807 116.8048L382.5807 140.0548L382.5807 140.0548L354.0807 140.0548z" /></clipPath><clipPath id="73"><path id="" clip-rule="evenodd" transform="matrix(1 0 0 1 0 0)" d="M365.7013 116.9548L370.7407 116.9548C 373.7829 116.9548 376.7004 118.1633 378.8516 120.3145C 381.0027 122.4656 382.2112 125.3832 382.2112 128.4254C 382.2112 131.4675 381.0027 134.3851 378.8516 136.5363C 376.7004 138.6874 373.7829 139.8959 370.7407 139.8959L370.7407 139.8959L365.7013 139.8959C 362.6591 139.8959 359.7416 138.6874 357.5904 136.5363C 355.4393 134.3851 354.2308 131.4675 354.2308 128.4254C 354.2308 125.3832 355.4393 122.4656 357.5904 120.3145C 359.7416 118.1633 362.6591 116.9548 365.7013 116.9548z" /></clipPath><clipPath id="74"><path id="" clip-rule="evenodd" transform="matrix(1 0 0 1 0 0)" d="M354.0807 116.5351L382.5807 116.5351L382.5807 116.5351L382.5807 140.5351L382.5807 140.5351L354.0807 140.5351z" /></clipPath><clipPath id="75"><path id="" clip-rule="evenodd" transform="matrix(1 0 0 1 0 0)" d="M353.3363 113.5574L383.3363 113.5574L383.3363 113.5574L383.3363 143.5574L383.3363 143.5574L353.3363 143.5574z" /></clipPath><clipPath id="76"><path id="" clip-rule="evenodd" transform="matrix(1 0 0 1 0 0)" d="M0 -0.249939L595.5 -0.249939L595.5 -0.249939L595.5 842.0001L595.5 842.0001L0 842.0001z" /></clipPath><clipPath id="77"><path id="" clip-rule="evenodd" transform="matrix(1 0 0 1 0 0)" d="M0 -0.249939L595.5 -0.249939L595.5 -0.249939L595.5 842.0001L595.5 842.0001L0 842.0001z" /></clipPath><clipPath id="78"><path id="" clip-rule="evenodd" transform="matrix(1 0 0 1 0 0)" d="M353.3307 116.0548L383.3307 116.0548L383.3307 116.0548L383.3307 140.8048L383.3307 140.8048L353.3307 140.8048z" /></clipPath><clipPath id="79"><path id="" clip-rule="evenodd" transform="matrix(1 0 0 1 0 0)" d="M353.3307 128.4254C 353.3307 131.7062 354.6341 134.8527 356.954 137.1727C 359.274 139.4926 362.4204 140.7959 365.7013 140.7959L365.7013 140.7959L370.7407 140.7959C 374.0216 140.7959 377.1681 139.4926 379.488 137.1727C 381.8079 134.8527 383.1112 131.7062 383.1112 128.4254C 383.1112 125.1445 381.8079 121.998 379.488 119.678C 377.1681 117.3581 374.0216 116.0548 370.7407 116.0548L370.7407 116.0548L365.7013 116.0548C 362.4204 116.0548 359.274 117.3581 356.954 119.678C 354.6341 121.998 353.3307 125.1445 353.3307 128.4254z" /></clipPath><clipPath id="80"><path id="" clip-rule="evenodd" transform="matrix(1 0 0 1 0 0)" d="M353.3307 116.0548L383.3307 116.0548L383.3307 116.0548L383.3307 140.8048L383.3307 140.8048L353.3307 140.8048z" /></clipPath><clipPath id="81"><path id="" clip-rule="evenodd" transform="matrix(1 0 0 1 0 0)" d="M353.3307 116.0548L383.3276 116.0548L383.3276 116.0548L383.3276 140.802L383.3276 140.802L353.3307 140.802z" /></clipPath><clipPath id="82"><path id="" clip-rule="evenodd" transform="matrix(1 0 0 1 0 0)" d="M353.3307 128.424C 353.3307 131.7044 354.6339 134.8506 356.9536 137.1702C 359.2733 139.4899 362.4195 140.7931 365.7 140.7931L365.7 140.7931L370.7389 140.7931C 374.0194 140.7931 377.1656 139.4899 379.4852 137.1702C 381.8049 134.8506 383.1081 131.7044 383.1081 128.424C 383.1081 125.1434 381.8049 121.9973 379.4852 119.6776C 377.1656 117.358 374.0194 116.0548 370.7389 116.0548L370.7389 116.0548L365.7 116.0548C 362.4195 116.0548 359.2733 117.358 356.9536 119.6776C 354.6339 121.9973 353.3307 125.1434 353.3307 128.424z" /></clipPath><clipPath id="83"><path id="" clip-rule="evenodd" transform="matrix(1 0 0 1 0 0)" d="M0 -0.249939L595.5 -0.249939L595.5 -0.249939L595.5 842.0001L595.5 842.0001L0 842.0001z" /></clipPath><clipPath id="84"><path id="" clip-rule="evenodd" transform="matrix(1 0 0 1 0 0)" d="M0 -0.249939L595.5 -0.249939L595.5 -0.249939L595.5 842.0001L595.5 842.0001L0 842.0001z" /></clipPath><clipPath id="85"><path id="" clip-rule="evenodd" transform="matrix(1 0 0 1 0 0)" d="M0 -0.249939L595.5 -0.249939L595.5 -0.249939L595.5 842.0001L595.5 842.0001L0 842.0001z" /></clipPath><clipPath id="86"><path id="" clip-rule="evenodd" transform="matrix(1 0 0 1 0 0)" d="M64.54563 234.1705L94.54563 234.1705L94.54563 234.1705L94.54563 258.9205L94.54563 258.9205L64.54563 258.9205z" /></clipPath><clipPath id="87"><path id="" clip-rule="evenodd" transform="matrix(1 0 0 1 0 0)" d="M64.54563 246.5411C 64.54563 249.822 65.84895 252.9684 68.16888 255.2884C 70.48881 257.6083 73.63531 258.9116 76.91618 258.9116L76.91618 258.9116L81.95556 258.9116C 85.23643 258.9116 88.38293 257.6083 90.70286 255.2884C 93.02278 252.9684 94.3261 249.822 94.3261 246.5411C 94.3261 243.2603 93.02278 240.1137 90.70286 237.7938C 88.38293 235.4739 85.23643 234.1705 81.95556 234.1705L81.95556 234.1705L76.91618 234.1705C 73.63531 234.1705 70.48881 235.4739 68.16888 237.7938C 65.84895 240.1137 64.54563 243.2603 64.54563 246.5411z" /></clipPath><clipPath id="88"><path id="" clip-rule="evenodd" transform="matrix(1 0 0 1 0 0)" d="M65.29563 234.9205L93.79563 234.9205L93.79563 234.9205L93.79563 258.1705L93.79563 258.1705L65.29563 258.1705z" /></clipPath><clipPath id="89"><path id="" clip-rule="evenodd" transform="matrix(1 0 0 1 0 0)" d="M76.91618 235.0706L81.95556 235.0706C 84.99774 235.0706 87.91532 236.2791 90.06646 238.4302C 92.21761 240.5813 93.42611 243.4989 93.42611 246.5411C 93.42611 249.5833 92.21761 252.5009 90.06646 254.652C 87.91532 256.8032 84.99774 258.0117 81.95556 258.0117L81.95556 258.0117L76.91618 258.0117C 73.874 258.0117 70.95642 256.8032 68.80527 254.652C 66.65413 252.5009 65.44563 249.5833 65.44563 246.5411C 65.44563 243.4989 66.65413 240.5813 68.80527 238.4302C 70.95642 236.2791 73.874 235.0706 76.91618 235.0706z" /></clipPath><clipPath id="90"><path id="" clip-rule="evenodd" transform="matrix(1 0 0 1 0 0)" d="M65.29563 234.6509L93.79563 234.6509L93.79563 234.6509L93.79563 258.6509L93.79563 258.6509L65.29563 258.6509z" /></clipPath><clipPath id="91"><path id="" clip-rule="evenodd" transform="matrix(1 0 0 1 0 0)" d="M64.55119 231.6731L94.55119 231.6731L94.55119 231.6731L94.55119 261.6731L94.55119 261.6731L64.55119 261.6731z" /></clipPath><clipPath id="92"><path id="" clip-rule="evenodd" transform="matrix(1 0 0 1 0 0)" d="M0 -0.249939L595.5 -0.249939L595.5 -0.249939L595.5 842.0001L595.5 842.0001L0 842.0001z" /></clipPath><clipPath id="93"><path id="" clip-rule="evenodd" transform="matrix(1 0 0 1 0 0)" d="M0 -0.249939L595.5 -0.249939L595.5 -0.249939L595.5 842.0001L595.5 842.0001L0 842.0001z" /></clipPath><clipPath id="94"><path id="" clip-rule="evenodd" transform="matrix(1 0 0 1 0 0)" d="M64.54563 234.1705L94.54563 234.1705L94.54563 234.1705L94.54563 258.9205L94.54563 258.9205L64.54563 258.9205z" /></clipPath><clipPath id="95"><path id="" clip-rule="evenodd" transform="matrix(1 0 0 1 0 0)" d="M64.54563 246.5411C 64.54563 249.822 65.84895 252.9684 68.16888 255.2884C 70.48881 257.6083 73.63531 258.9116 76.91618 258.9116L76.91618 258.9116L81.95556 258.9116C 85.23643 258.9116 88.38293 257.6083 90.70286 255.2884C 93.02278 252.9684 94.3261 249.822 94.3261 246.5411C 94.3261 243.2603 93.02278 240.1137 90.70286 237.7938C 88.38293 235.4739 85.23643 234.1705 81.95556 234.1705L81.95556 234.1705L76.91618 234.1705C 73.63531 234.1705 70.48881 235.4739 68.16888 237.7938C 65.84895 240.1137 64.54563 243.2603 64.54563 246.5411z" /></clipPath><clipPath id="96"><path id="" clip-rule="evenodd" transform="matrix(1 0 0 1 0 0)" d="M64.54563 234.1705L94.54563 234.1705L94.54563 234.1705L94.54563 258.9205L94.54563 258.9205L64.54563 258.9205z" /></clipPath><clipPath id="97"><path id="" clip-rule="evenodd" transform="matrix(1 0 0 1 0 0)" d="M64.54563 234.1705L94.54247 234.1705L94.54247 234.1705L94.54247 258.9177L94.54247 258.9177L64.54563 258.9177z" /></clipPath><clipPath id="98"><path id="" clip-rule="evenodd" transform="matrix(1 0 0 1 0 0)" d="M64.54563 246.5397C 64.54563 249.8202 65.84881 252.9663 68.1685 255.286C 70.48818 257.6057 73.63435 258.9088 76.91488 258.9088L76.91488 258.9088L81.95373 258.9088C 85.23425 258.9088 88.38042 257.6057 90.7001 255.286C 93.01979 252.9663 94.32298 249.8202 94.32298 246.5397C 94.32298 243.2592 93.01979 240.113 90.7001 237.7934C 88.38042 235.4737 85.23425 234.1705 81.95373 234.1705L81.95373 234.1705L76.91488 234.1705C 73.63435 234.1705 70.48818 235.4737 68.1685 237.7934C 65.84881 240.113 64.54563 243.2592 64.54563 246.5397z" /></clipPath><clipPath id="99"><path id="" clip-rule="evenodd" transform="matrix(1 0 0 1 0 0)" d="M0 -0.249939L595.5 -0.249939L595.5 -0.249939L595.5 842.0001L595.5 842.0001L0 842.0001z" /></clipPath><clipPath id="100"><path id="" clip-rule="evenodd" transform="matrix(1 0 0 1 0 0)" d="M0 -0.249939L595.5 -0.249939L595.5 -0.249939L595.5 842.0001L595.5 842.0001L0 842.0001z" /></clipPath><clipPath id="101"><path id="" clip-rule="evenodd" transform="matrix(1 0 0 1 0 0)" d="M0 -0.249939L595.5 -0.249939L595.5 -0.249939L595.5 842.0001L595.5 842.0001L0 842.0001z" /></clipPath><clipPath id="102"><path id="" clip-rule="evenodd" transform="matrix(1 0 0 1 0 0)" d="M342.9624 394.3737L372.9624 394.3737L372.9624 394.3737L372.9624 419.1237L372.9624 419.1237L342.9624 419.1237z" /></clipPath><clipPath id="103"><path id="" clip-rule="evenodd" transform="matrix(1 0 0 1 0 0)" d="M342.9624 406.7442C 342.9624 410.0251 344.2657 413.1716 346.5856 415.4915C 348.9055 417.8115 352.052 419.1148 355.3329 419.1148L355.3329 419.1148L360.3723 419.1148C 363.6532 419.1148 366.7997 417.8115 369.1196 415.4915C 371.4395 413.1716 372.7428 410.0251 372.7428 406.7442C 372.7428 403.4633 371.4395 400.3169 369.1196 397.9969C 366.7997 395.677 363.6532 394.3737 360.3723 394.3737L360.3723 394.3737L355.3329 394.3737C 352.052 394.3737 348.9055 395.677 346.5856 397.9969C 344.2657 400.3169 342.9624 403.4633 342.9624 406.7442z" /></clipPath><clipPath id="104"><path id="" clip-rule="evenodd" transform="matrix(1 0 0 1 0 0)" d="M343.7124 395.1237L372.2124 395.1237L372.2124 395.1237L372.2124 418.3737L372.2124 418.3737L343.7124 418.3737z" /></clipPath><clipPath id="105"><path id="" clip-rule="evenodd" transform="matrix(1 0 0 1 0 0)" d="M355.3329 395.2737L360.3723 395.2737C 363.4145 395.2737 366.332 396.4822 368.4832 398.6333C 370.6343 400.7845 371.8428 403.7021 371.8428 406.7442C 371.8428 409.7864 370.6343 412.704 368.4832 414.8551C 366.332 417.0063 363.4145 418.2148 360.3723 418.2148L360.3723 418.2148L355.3329 418.2148C 352.2907 418.2148 349.3732 417.0063 347.222 414.8551C 345.0709 412.704 343.8624 409.7864 343.8624 406.7442C 343.8624 403.7021 345.0709 400.7845 347.222 398.6333C 349.3732 396.4822 352.2907 395.2737 355.3329 395.2737z" /></clipPath><clipPath id="106"><path id="" clip-rule="evenodd" transform="matrix(1 0 0 1 0 0)" d="M343.7124 394.854L372.2124 394.854L372.2124 394.854L372.2124 418.854L372.2124 418.854L343.7124 418.854z" /></clipPath><clipPath id="107"><path id="" clip-rule="evenodd" transform="matrix(1 0 0 1 0 0)" d="M342.9679 391.8763L372.9679 391.8763L372.9679 391.8763L372.9679 421.8763L372.9679 421.8763L342.9679 421.8763z" /></clipPath><clipPath id="108"><path id="" clip-rule="evenodd" transform="matrix(1 0 0 1 0 0)" d="M0 -0.249939L595.5 -0.249939L595.5 -0.249939L595.5 842.0001L595.5 842.0001L0 842.0001z" /></clipPath><clipPath id="109"><path id="" clip-rule="evenodd" transform="matrix(1 0 0 1 0 0)" d="M0 -0.249939L595.5 -0.249939L595.5 -0.249939L595.5 842.0001L595.5 842.0001L0 842.0001z" /></clipPath><clipPath id="110"><path id="" clip-rule="evenodd" transform="matrix(1 0 0 1 0 0)" d="M342.9624 394.3737L372.9624 394.3737L372.9624 394.3737L372.9624 419.1237L372.9624 419.1237L342.9624 419.1237z" /></clipPath><clipPath id="111"><path id="" clip-rule="evenodd" transform="matrix(1 0 0 1 0 0)" d="M342.9624 406.7442C 342.9624 410.0251 344.2657 413.1716 346.5856 415.4915C 348.9055 417.8115 352.052 419.1148 355.3329 419.1148L355.3329 419.1148L360.3723 419.1148C 363.6532 419.1148 366.7997 417.8115 369.1196 415.4915C 371.4395 413.1716 372.7428 410.0251 372.7428 406.7442C 372.7428 403.4633 371.4395 400.3169 369.1196 397.9969C 366.7997 395.677 363.6532 394.3737 360.3723 394.3737L360.3723 394.3737L355.3329 394.3737C 352.052 394.3737 348.9055 395.677 346.5856 397.9969C 344.2657 400.3169 342.9624 403.4633 342.9624 406.7442z" /></clipPath><clipPath id="112"><path id="" clip-rule="evenodd" transform="matrix(1 0 0 1 0 0)" d="M342.9624 394.3737L372.9624 394.3737L372.9624 394.3737L372.9624 419.1237L372.9624 419.1237L342.9624 419.1237z" /></clipPath><clipPath id="113"><path id="" clip-rule="evenodd" transform="matrix(1 0 0 1 0 0)" d="M342.9624 394.3737L372.9592 394.3737L372.9592 394.3737L372.9592 419.1209L372.9592 419.1209L342.9624 419.1209z" /></clipPath><clipPath id="114"><path id="" clip-rule="evenodd" transform="matrix(1 0 0 1 0 0)" d="M342.9624 406.7428C 342.9624 410.0233 344.2656 413.1695 346.5852 415.4891C 348.9049 417.8088 352.0511 419.112 355.3316 419.112L355.3316 419.112L360.3705 419.112C 363.651 419.112 366.7971 417.8088 369.1168 415.4891C 371.4365 413.1695 372.7397 410.0233 372.7397 406.7428C 372.7397 403.4623 371.4365 400.3162 369.1168 397.9966C 366.7971 395.6769 363.651 394.3737 360.3705 394.3737L360.3705 394.3737L355.3316 394.3737C 352.0511 394.3737 348.9049 395.6769 346.5852 397.9966C 344.2656 400.3162 342.9624 403.4623 342.9624 406.7428z" /></clipPath><clipPath id="115"><path id="" clip-rule="evenodd" transform="matrix(1 0 0 1 0 0)" d="M0 -0.249939L595.5 -0.249939L595.5 -0.249939L595.5 842.0001L595.5 842.0001L0 842.0001z" /></clipPath><clipPath id="116"><path id="" clip-rule="evenodd" transform="matrix(1 0 0 1 0 0)" d="M0 -0.249939L595.5 -0.249939L595.5 -0.249939L595.5 842.0001L595.5 842.0001L0 842.0001z" /></clipPath><clipPath id="117"><path id="" clip-rule="evenodd" transform="matrix(1 0 0 1 0 0)" d="M0 -0.249939L595.5 -0.249939L595.5 -0.249939L595.5 842.0001L595.5 842.0001L0 842.0001z" /></clipPath><clipPath id="118"><path id="" clip-rule="evenodd" transform="matrix(1 0 0 1 0 0)" d="M79.43587 541.7164L109.4359 541.7164L109.4359 541.7164L109.4359 566.4664L109.4359 566.4664L79.43587 566.4664z" /></clipPath><clipPath id="119"><path id="" clip-rule="evenodd" transform="matrix(1 0 0 1 0 0)" d="M79.43587 554.087C 79.43587 557.3679 80.73919 560.5144 83.05911 562.8343C 85.37904 565.1542 88.52554 566.4575 91.80642 566.4575L91.80642 566.4575L96.8458 566.4575C 100.1267 566.4575 103.2732 565.1542 105.5931 562.8343C 107.913 560.5144 109.2163 557.3679 109.2163 554.087C 109.2163 550.8061 107.913 547.6596 105.5931 545.3397C 103.2732 543.0198 100.1267 541.7164 96.8458 541.7164L96.8458 541.7164L91.80642 541.7164C 88.52554 541.7164 85.37904 543.0198 83.05911 545.3397C 80.73919 547.6596 79.43587 550.8061 79.43587 554.087z" /></clipPath><clipPath id="120"><path id="" clip-rule="evenodd" transform="matrix(1 0 0 1 0 0)" d="M80.18587 542.4664L108.6859 542.4664L108.6859 542.4664L108.6859 565.7164L108.6859 565.7164L80.18587 565.7164z" /></clipPath><clipPath id="121"><path id="" clip-rule="evenodd" transform="matrix(1 0 0 1 0 0)" d="M91.80642 542.6165L96.8458 542.6165C 99.88798 542.6165 102.8056 543.825 104.9567 545.9761C 107.1078 548.1273 108.3163 551.0448 108.3163 554.087C 108.3163 557.1292 107.1078 560.0468 104.9567 562.1979C 102.8056 564.3491 99.88798 565.5576 96.8458 565.5576L96.8458 565.5576L91.80642 565.5576C 88.76424 565.5576 85.84666 564.3491 83.69552 562.1979C 81.54437 560.0468 80.33587 557.1292 80.33587 554.087C 80.33587 551.0448 81.54437 548.1273 83.69552 545.9761C 85.84666 543.825 88.76424 542.6165 91.80642 542.6165z" /></clipPath><clipPath id="122"><path id="" clip-rule="evenodd" transform="matrix(1 0 0 1 0 0)" d="M80.18587 542.1968L108.6859 542.1968L108.6859 542.1968L108.6859 566.1968L108.6859 566.1968L80.18587 566.1968z" /></clipPath><clipPath id="123"><path id="" clip-rule="evenodd" transform="matrix(1 0 0 1 0 0)" d="M79.44144 539.2191L109.4414 539.2191L109.4414 539.2191L109.4414 569.2191L109.4414 569.2191L79.44144 569.2191z" /></clipPath><clipPath id="124"><path id="" clip-rule="evenodd" transform="matrix(1 0 0 1 0 0)" d="M0 -0.249939L595.5 -0.249939L595.5 -0.249939L595.5 842.0001L595.5 842.0001L0 842.0001z" /></clipPath><clipPath id="125"><path id="" clip-rule="evenodd" transform="matrix(1 0 0 1 0 0)" d="M0 -0.249939L595.5 -0.249939L595.5 -0.249939L595.5 842.0001L595.5 842.0001L0 842.0001z" /></clipPath><clipPath id="126"><path id="" clip-rule="evenodd" transform="matrix(1 0 0 1 0 0)" d="M79.43587 541.7164L109.4359 541.7164L109.4359 541.7164L109.4359 566.4664L109.4359 566.4664L79.43587 566.4664z" /></clipPath><clipPath id="127"><path id="" clip-rule="evenodd" transform="matrix(1 0 0 1 0 0)" d="M79.43587 554.087C 79.43587 557.3679 80.73919 560.5144 83.05911 562.8343C 85.37904 565.1542 88.52554 566.4575 91.80642 566.4575L91.80642 566.4575L96.8458 566.4575C 100.1267 566.4575 103.2732 565.1542 105.5931 562.8343C 107.913 560.5144 109.2163 557.3679 109.2163 554.087C 109.2163 550.8061 107.913 547.6596 105.5931 545.3397C 103.2732 543.0198 100.1267 541.7164 96.8458 541.7164L96.8458 541.7164L91.80642 541.7164C 88.52554 541.7164 85.37904 543.0198 83.05911 545.3397C 80.73919 547.6596 79.43587 550.8061 79.43587 554.087z" /></clipPath><clipPath id="128"><path id="" clip-rule="evenodd" transform="matrix(1 0 0 1 0 0)" d="M79.43587 541.7164L109.4359 541.7164L109.4359 541.7164L109.4359 566.4664L109.4359 566.4664L79.43587 566.4664z" /></clipPath><clipPath id="129"><path id="" clip-rule="evenodd" transform="matrix(1 0 0 1 0 0)" d="M79.43587 541.7164L109.4327 541.7164L109.4327 541.7164L109.4327 566.4636L109.4327 566.4636L79.43587 566.4636z" /></clipPath><clipPath id="130"><path id="" clip-rule="evenodd" transform="matrix(1 0 0 1 0 0)" d="M79.43587 554.0856C 79.43587 557.3661 80.73905 560.5122 83.05873 562.8319C 85.37843 565.1516 88.52458 566.4547 91.80511 566.4547L91.80511 566.4547L96.84397 566.4547C 100.1245 566.4547 103.2707 565.1516 105.5903 562.8319C 107.91 560.5122 109.2132 557.3661 109.2132 554.0856C 109.2132 550.8051 107.91 547.659 105.5903 545.3393C 103.2707 543.0197 100.1245 541.7164 96.84397 541.7164L96.84397 541.7164L91.80511 541.7164C 88.52458 541.7164 85.37843 543.0197 83.05873 545.3393C 80.73905 547.659 79.43587 550.8051 79.43587 554.0856z" /></clipPath><clipPath id="131"><path id="" clip-rule="evenodd" transform="matrix(1 0 0 1 0 0)" d="M0 -0.249939L595.5 -0.249939L595.5 -0.249939L595.5 842.0001L595.5 842.0001L0 842.0001z" /></clipPath></defs><g transform="matrix(1.333333 0 0 1.333333 0 0)"><g clip-path="url(#1)"><g clip-path="url(#2)"><path id="1" transform="matrix(1 0 0 -1 0 842)" d="M0 842.2499L595.4999 842.2499L595.4999 -6.103516E-05L0 -6.103516E-05z" stroke="none" fill="#FFFFFF" fill-rule="nonzero" /></g><g clip-path="url(#3)"><path id="2" transform="matrix(1 0 0 -1 0 842)" d="M0 842.2499L595.4999 842.2499L595.4999 -6.103516E-05L0 -6.103516E-05z" stroke="none" fill="#FFFFFF" fill-rule="nonzero" /></g><g clip-path="url(#4)"><g><g clip-path="url(#5)"><g clip-path="url(#6)"><g transform="matrix(0 0.5128205 -0.5127462 0 522.0178 30.75189)"><g transform="matrix(1 0 0 1 0 0)"><image x="0" y="0" xlink:href="img_01.png" width="1521" height="863" /></g></g></g></g></g></g><g clip-path="url(#7)"><g transform="matrix(0.2407975 0 0 0.2400272 342.9623 101.7174)"><g transform="matrix(1 0 0 1 0 0)"><image x="0" y="0" xlink:href="img_02.png" width="978" height="1103" /></g></g></g><g clip-path="url(#8)"><g transform="matrix(0.9465066 0 0 0.9374999 348.968 314.9966)"><g transform="matrix(1 0 0 1 0 0)"><image x="0" y="0" xlink:href="img_03.png" width="229" height="4" /></g></g></g><g clip-path="url(#9)"><g clip-path="url(#10)"><g clip-path="url(#11)"><g clip-path="url(#12)"><g clip-path="url(#13)"><g transform="matrix(0.5666761 0 0 0.5678043 381.252 174.5612)"><g transform="matrix(1 0 0 1 0 0)"><image x="0" y="0" xlink:href="img_04.png" width="271" height="240" /></g></g></g></g></g></g></g><g clip-path="url(#14)"></g><g clip-path="url(#15)"><g transform="matrix(0.2402364 0 0 0.2407254 72.4567 524.9643)"><g transform="matrix(1 0 0 1 0 0)"><image x="0" y="0" xlink:href="img_05.png" width="1025" height="1188" /></g></g></g><g clip-path="url(#16)"><g clip-path="url(#17)"><g clip-path="url(#18)"><g clip-path="url(#19)"><g clip-path="url(#20)"><g transform="matrix(0.5814284 0 0 0.5826397 88.00404 573.4129)"><g transform="matrix(1 0 0 1 0 0)"><image x="0" y="0" xlink:href="img_06.png" width="148" height="150" /></g></g></g></g></g></g></g><g clip-path="url(#21)"><g clip-path="url(#22)"><g clip-path="url(#23)"><g clip-path="url(#24)"><g clip-path="url(#25)"><g transform="matrix(0.5553267 0 0 0.554722 191.4697 574.0246)"><g transform="matrix(1 0 0 1 0 0)"><image x="0" y="0" xlink:href="img_07.png" width="172" height="152" /></g></g></g></g></g></g></g><g clip-path="url(#26)"><g transform="matrix(0.9451432 0 0 0.8870401 86.50174 776.4933)"><g transform="matrix(1 0 0 1 0 0)"><image x="0" y="0" xlink:href="img_08.png" width="229" height="4" /></g></g></g><g clip-path="url(#27)"><g clip-path="url(#28)"><g clip-path="url(#29)"><g clip-path="url(#30)"><g clip-path="url(#31)"><g transform="matrix(0.5480981 0 0 0.5485446 142.039 670.365)"><g transform="matrix(1 0 0 1 0 0)"><image x="0" y="0" xlink:href="img_09.png" width="157" height="163" /></g></g></g></g></g></g></g><g clip-path="url(#32)"></g><g clip-path="url(#33)"><g transform="matrix(0.2402743 0 0 0.2403965 59.52755 198.5967)"><g transform="matrix(1 0 0 1 0 0)"><image x="0" y="0" xlink:href="img_10.png" width="1078" height="1228" /></g></g></g><g clip-path="url(#34)"><g transform="matrix(0.9451432 0 0 0.8870401 79.74001 470.1729)"><g transform="matrix(1 0 0 1 0 0)"><image x="0" y="0" xlink:href="img_11.png" width="229" height="4" /></g></g></g><g clip-path="url(#35)"><g clip-path="url(#36)"><g clip-path="url(#37)"><g clip-path="url(#38)"><g clip-path="url(#39)"><g transform="matrix(0.6026821 0 0 0.5995503 51.79682 280.4911)"><g transform="matrix(1 0 0 1 0 0)"><image x="0" y="0" xlink:href="img_12.png" width="245" height="211" /></g></g></g></g></g></g></g><g clip-path="url(#40)"><g clip-path="url(#41)"><g clip-path="url(#42)"><g clip-path="url(#43)"><g clip-path="url(#44)"><g transform="matrix(0.5978485 0 0 0.5970711 185.2268 326.4142)"><g transform="matrix(1 0 0 1 0 0)"><image x="0" y="0" xlink:href="img_13.png" width="219" height="212" /></g></g></g></g></g></g></g><g clip-path="url(#45)"></g><g clip-path="url(#46)"><g clip-path="url(#47)"><g clip-path="url(#48)"><g clip-path="url(#49)"><path id="285" transform="matrix(1 0 0 -1 0 842)" d="M336.6424 464.7318L569.8448 464.7318L569.8448 196.9133L336.6424 196.9133z" stroke="none" fill="#939CAB" fill-rule="nonzero" /></g></g></g></g><g clip-path="url(#50)"><g transform="matrix(0.9456521 0 0 0.9374999 343.9292 624.2704)"><g transform="matrix(1 0 0 1 0 0)"><image x="0" y="0" xlink:href="img_14.png" width="230" height="4" /></g></g></g><g clip-path="url(#51)"><g clip-path="url(#52)"><g clip-path="url(#53)"><g clip-path="url(#54)"><g clip-path="url(#55)"><g transform="matrix(0.5078771 0 0 0.5091799 342.7844 433.432)"><g transform="matrix(1 0 0 1 0 0)"><image x="0" y="0" xlink:href="img_15.png" width="229" height="169" /></g></g></g></g></g></g></g><g clip-path="url(#56)"><g clip-path="url(#57)"><g clip-path="url(#58)"><g clip-path="url(#59)"><g clip-path="url(#60)"><g transform="matrix(0.5476847 0 0 0.5480981 440.4259 435.561)"><g transform="matrix(1 0 0 1 0 0)"><image x="0" y="0" xlink:href="img_16.png" width="259" height="157" /></g></g></g></g></g></g></g><g clip-path="url(#61)"><g clip-path="url(#62)"><g clip-path="url(#63)"><g clip-path="url(#64)"><g clip-path="url(#65)"><g transform="matrix(0.6498674 0 0 0.6500157 398.8178 526.1902)"><g transform="matrix(1 0 0 1 0 0)"><image x="0" y="0" xlink:href="img_17.png" width="180" height="151" /></g></g></g></g></g></g></g><g clip-path="url(#66)"></g><g clip-path="url(#67)"><g transform="matrix(0.07396449 0 0 0.07387021 471.6194 10.22382)"><g transform="matrix(1 0 0 1 0 0)"><image x="0" y="0" xlink:href="img_18.png" width="1521" height="863" /></g></g></g><g clip-path="url(#68)"><g clip-path="url(#69)"><g clip-path="url(#70)"><g clip-path="url(#71)"><g clip-path="url(#72)"><g clip-path="url(#73)"><g clip-path="url(#74)"><g clip-path="url(#75)"><path id="359" transform="matrix(1 0 0 -1 0 842)" d="M368.3363 728.2209C 360.1861 728.2209 353.558 721.5929 353.558 713.4426C 353.558 705.2924 360.1861 698.6643 368.3363 698.6643C 376.4865 698.6643 383.1146 705.2924 383.1146 713.4426C 383.1146 721.5929 376.4865 728.2209 368.3363 728.2209zM368.3363 698.4426C 360.0678 698.4426 353.3363 705.1741 353.3363 713.4426C 353.3363 721.7111 360.0678 728.4426 368.3363 728.4426C 376.6048 728.4426 383.3363 721.7111 383.3363 713.4426C 383.3363 705.1741 376.6048 698.4426 368.3363 698.4426z" stroke="none" fill="#000000" fill-rule="nonzero" /></g></g></g></g></g></g></g></g><g clip-path="url(#76)"><g clip-path="url(#77)"><g clip-path="url(#78)"><g clip-path="url(#79)"><g clip-path="url(#80)"><g clip-path="url(#81)"><g clip-path="url(#82)"><path id="360" transform="matrix(1 0 0 -1 0 842)" d="M353.3307 713.576C 353.3307 710.2955 354.6339 707.1494 356.9536 704.8298C 359.2733 702.5101 362.4195 701.2069 365.7 701.2069L365.7 701.2069L370.7388 701.2069C 374.0194 701.2069 377.1655 702.5101 379.4852 704.8298C 381.8049 707.1494 383.1081 710.2955 383.1081 713.576C 383.1081 716.8566 381.8049 720.0027 379.4852 722.3223C 377.1655 724.642 374.0194 725.9452 370.7388 725.9452L370.7388 725.9452L365.7 725.9452C 362.4195 725.9452 359.2733 724.642 356.9536 722.3223C 354.6339 720.0027 353.3307 716.8566 353.3307 713.576z" stroke="#000000" stroke-width="1.5" fill="none" /></g></g></g></g></g></g></g><g clip-path="url(#83)"></g><g clip-path="url(#84)"><g clip-path="url(#85)"><g clip-path="url(#86)"><g clip-path="url(#87)"><g clip-path="url(#88)"><g clip-path="url(#89)"><g clip-path="url(#90)"><g clip-path="url(#91)"><path id="362" transform="matrix(1 0 0 -1 0 842)" d="M79.55119 610.1052C 71.40095 610.1052 64.77287 603.4771 64.77287 595.3268C 64.77287 587.1766 71.40095 580.5485 79.55119 580.5485C 87.70144 580.5485 94.32951 587.1766 94.32951 595.3268C 94.32951 603.4771 87.70144 610.1052 79.55119 610.1052zM79.55119 580.3268C 71.28272 580.3268 64.55119 587.0583 64.55119 595.3268C 64.55119 603.5953 71.28272 610.3268 79.55119 610.3268C 87.81966 610.3268 94.55119 603.5953 94.55119 595.3268C 94.55119 587.0583 87.81966 580.3268 79.55119 580.3268z" stroke="none" fill="#000000" fill-rule="nonzero" /></g></g></g></g></g></g></g></g><g clip-path="url(#92)"><g clip-path="url(#93)"><g clip-path="url(#94)"><g clip-path="url(#95)"><g clip-path="url(#96)"><g clip-path="url(#97)"><g clip-path="url(#98)"><path id="363" transform="matrix(1 0 0 -1 0 842)" d="M64.54562 595.4603C 64.54562 592.1797 65.84881 589.0336 68.1685 586.714C 70.48817 584.3943 73.63434 583.0911 76.91487 583.0911L76.91487 583.0911L81.95372 583.0911C 85.23425 583.0911 88.38042 584.3943 90.7001 586.714C 93.01978 589.0336 94.32297 592.1797 94.32297 595.4603C 94.32297 598.7408 93.01978 601.8869 90.7001 604.2065C 88.38042 606.5262 85.23425 607.8294 81.95372 607.8294L81.95372 607.8294L76.91487 607.8294C 73.63434 607.8294 70.48817 606.5262 68.1685 604.2065C 65.84881 601.8869 64.54562 598.7408 64.54562 595.4603z" stroke="#000000" stroke-width="1.5" fill="none" /></g></g></g></g></g></g></g><g clip-path="url(#99)"></g><g clip-path="url(#100)"><g clip-path="url(#101)"><g clip-path="url(#102)"><g clip-path="url(#103)"><g clip-path="url(#104)"><g clip-path="url(#105)"><g clip-path="url(#106)"><g clip-path="url(#107)"><path id="365" transform="matrix(1 0 0 -1 0 842)" d="M357.9679 449.902C 349.8177 449.902 343.1896 443.274 343.1896 435.1237C 343.1896 426.9735 349.8177 420.3454 357.9679 420.3454C 366.1182 420.3454 372.7462 426.9735 372.7462 435.1237C 372.7462 443.274 366.1182 449.902 357.9679 449.902zM357.9679 420.1237C 349.6995 420.1237 342.9679 426.8553 342.9679 435.1237C 342.9679 443.3922 349.6995 450.1237 357.9679 450.1237C 366.2364 450.1237 372.9679 443.3922 372.9679 435.1237C 372.9679 426.8553 366.2364 420.1237 357.9679 420.1237z" stroke="none" fill="#000000" fill-rule="nonzero" /></g></g></g></g></g></g></g></g><g clip-path="url(#108)"><g clip-path="url(#109)"><g clip-path="url(#110)"><g clip-path="url(#111)"><g clip-path="url(#112)"><g clip-path="url(#113)"><g clip-path="url(#114)"><path id="366" transform="matrix(1 0 0 -1 0 842)" d="M342.9623 435.2572C 342.9623 431.9767 344.2655 428.8305 346.5852 426.5109C 348.9049 424.1912 352.0511 422.888 355.3316 422.888L355.3316 422.888L360.3704 422.888C 363.651 422.888 366.7971 424.1912 369.1168 426.5109C 371.4365 428.8305 372.7397 431.9767 372.7397 435.2572C 372.7397 438.5377 371.4365 441.6838 369.1168 444.0035C 366.7971 446.3232 363.651 447.6263 360.3704 447.6263L360.3704 447.6263L355.3316 447.6263C 352.0511 447.6263 348.9049 446.3232 346.5852 444.0035C 344.2655 441.6838 342.9623 438.5377 342.9623 435.2572z" stroke="#000000" stroke-width="1.5" fill="none" /></g></g></g></g></g></g></g><g clip-path="url(#115)"></g><g clip-path="url(#116)"><g clip-path="url(#117)"><g clip-path="url(#118)"><g clip-path="url(#119)"><g clip-path="url(#120)"><g clip-path="url(#121)"><g clip-path="url(#122)"><g clip-path="url(#123)"><path id="368" transform="matrix(1 0 0 -1 0 842)" d="M94.44143 302.5592C 86.29118 302.5592 79.6631 295.9312 79.6631 287.7809C 79.6631 279.6307 86.29118 273.0026 94.44143 273.0026C 102.5917 273.0026 109.2197 279.6307 109.2197 287.7809C 109.2197 295.9312 102.5917 302.5592 94.44143 302.5592zM94.44143 272.7809C 86.17296 272.7809 79.44143 279.5125 79.44143 287.7809C 79.44143 296.0494 86.17296 302.7809 94.44143 302.7809C 102.7099 302.7809 109.4414 296.0494 109.4414 287.7809C 109.4414 279.5125 102.7099 272.7809 94.44143 272.7809z" stroke="none" fill="#000000" fill-rule="nonzero" /></g></g></g></g></g></g></g></g><g clip-path="url(#124)"><g clip-path="url(#125)"><g clip-path="url(#126)"><g clip-path="url(#127)"><g clip-path="url(#128)"><g clip-path="url(#129)"><g clip-path="url(#130)"><path id="369" transform="matrix(1 0 0 -1 0 842)" d="M79.43587 287.9144C 79.43587 284.6339 80.73905 281.4878 83.05874 279.1681C 85.37842 276.8484 88.52458 275.5453 91.80511 275.5453L91.80511 275.5453L96.84396 275.5453C 100.1245 275.5453 103.2707 276.8484 105.5903 279.1681C 107.91 281.4878 109.2132 284.6339 109.2132 287.9144C 109.2132 291.1949 107.91 294.341 105.5903 296.6607C 103.2707 298.9804 100.1245 300.2835 96.84396 300.2835L96.84396 300.2835L91.80511 300.2835C 88.52458 300.2835 85.37842 298.9804 83.05874 296.6607C 80.73905 294.341 79.43587 291.1949 79.43587 287.9144z" stroke="#000000" stroke-width="1.5" fill="none" /></g></g></g></g></g></g></g><g clip-path="url(#131)"></g></g></g></svg>