<svg xmlns="http://www.w3.org/2000/svg" xmlns:xlink="http://www.w3.org/1999/xlink" id="body_1" preserveAspectRatio="xMinYMin meet" viewBox="0 0 793 1123"><defs><clipPath id="1"><path id="" clip-rule="evenodd" transform="matrix(1 0 0 1 0 0)" d="M0 842L0 -0.25L0 -0.25L595.5 -0.25L595.5 -0.25L595.5 842L595.5 842L0 842z" /></clipPath><clipPath id="2"><path id="" clip-rule="evenodd" transform="matrix(1 0 0 1 0 0)" d="M0 -0.249939L595.5 -0.249939L595.5 -0.249939L595.5 842.0001L595.5 842.0001L0 842.0001z" /></clipPath><clipPath id="3"><path id="" clip-rule="evenodd" transform="matrix(1 0 0 1 0 0)" d="M0 -0.249939L595.5 -0.249939L595.5 -0.249939L595.5 842.0001L595.5 842.0001L0 842.0001z" /></clipPath><clipPath id="4"><path id="" clip-rule="evenodd" transform="matrix(1 0 0 1 0 0)" d="M0 -0.249939L595.5 -0.249939L595.5 -0.249939L595.5 842.0001L595.5 842.0001L0 842.0001z" /></clipPath><clipPath id="5"><path id="" clip-rule="evenodd" transform="matrix(1 0 0 1 0 0)" d="M78.71999 30.71008L522.24 30.71008L522.24 30.71008L522.24 810.9501L522.24 810.9501L78.71999 810.9501z" /></clipPath><clipPath id="6"><path id="" clip-rule="evenodd" transform="matrix(1 0 0 1 0 0)" d="M79.51787 30.75183L522.0178 30.75183L522.0178 30.75183L522.0178 810.7518L522.0178 810.7518L79.51787 810.7518z" /></clipPath><clipPath id="7"><path id="" clip-rule="evenodd" transform="matrix(1 0 0 1 0 0)" d="M0 -0.249939L595.5 -0.249939L595.5 -0.249939L595.5 842.0001L595.5 842.0001L0 842.0001z" /></clipPath><clipPath id="8"><path id="" clip-rule="evenodd" transform="matrix(1 0 0 1 0 0)" d="M0 -0.249939L595.5 -0.249939L595.5 -0.249939L595.5 842.0001L595.5 842.0001L0 842.0001z" /></clipPath><clipPath id="9"><path id="" clip-rule="evenodd" transform="matrix(1 0 0 1 0 0)" d="M505.8939 640.3307L626.2519 640.3307L626.2519 640.3307L626.2519 866.0606L626.2519 866.0606L505.8939 866.0606z" /></clipPath><clipPath id="10"><path id="" clip-rule="evenodd" transform="matrix(1 0 0 1 0 0)" d="M625.7814 640.3307C 554.7789 675.1607 505.8939 748.1657 505.8939 832.5932C 505.8939 843.9557 506.7789 855.1157 508.4889 865.9982L508.4889 865.9982L625.7889 865.9982L625.7889 865.9982L625.7889 640.3307L625.7889 640.3307L625.7814 640.3307z" /></clipPath><clipPath id="11"><path id="" clip-rule="evenodd" transform="matrix(1 0 0 1 0 0)" d="M505.8939 640.3307L625.7836 640.3307L625.7836 640.3307L625.7836 866.0606L625.7836 866.0606L505.8939 866.0606z" /></clipPath><clipPath id="12"><path id="" clip-rule="evenodd" transform="matrix(1 0 0 1 0 0)" d="M0 -0.249939L84.24679 -0.249939L84.24679 -0.249939L84.24679 84.35681L84.24679 84.35681L0 84.35681z" /></clipPath><clipPath id="13"><path id="" clip-rule="evenodd" transform="matrix(1 0 0 1 0 0)" d="M302.1197 37.74384L595.5 37.74384L595.5 37.74384L595.5 337.7438L595.5 337.7438L302.1197 337.7438z" /></clipPath><clipPath id="14"><path id="" clip-rule="evenodd" transform="matrix(1 0 0 1 0 0)" d="M38.75791 218.8771L526.2579 218.8771L526.2579 218.8771L526.2579 728.1271L526.2579 728.1271L38.75791 728.1271z" /></clipPath><clipPath id="15"><path id="" clip-rule="evenodd" transform="matrix(1 0 0 1 0 0)" d="M0 -0.249939L595.5 -0.249939L595.5 -0.249939L595.5 842.0001L595.5 842.0001L0 842.0001z" /></clipPath><clipPath id="16"><path id="" clip-rule="evenodd" transform="matrix(1 0 0 1 0 0)" d="M84.48 718.0701L322.8 718.0701L322.8 718.0701L322.8 818.15L322.8 818.15L84.48 818.15z" /></clipPath><clipPath id="17"><path id="" clip-rule="evenodd" transform="matrix(1 0 0 1 0 0)" d="M84.53329 718.2916L322.7836 718.2916L322.7836 718.2916L322.7836 818.115L322.7836 818.115L84.53329 818.115z" /></clipPath><clipPath id="18"><path id="" clip-rule="evenodd" transform="matrix(1 0 0 1 0 0)" d="M203.5884 718.2916C 137.8361 718.2916 84.53329 740.6378 84.53329 768.2032C 84.53329 795.7687 137.8361 818.115 203.5884 818.115C 269.3407 818.115 322.6435 795.7687 322.6435 768.2032C 322.6435 740.6378 269.3407 718.2916 203.5884 718.2916z" /></clipPath><clipPath id="19"><path id="" clip-rule="evenodd" transform="matrix(1 0 0 1 0 0)" d="M0 -0.249939L595.5 -0.249939L595.5 -0.249939L595.5 842.0001L595.5 842.0001L0 842.0001z" /></clipPath><clipPath id="20"><path id="" clip-rule="evenodd" transform="matrix(1 0 0 1 0 0)" d="M0 -0.249939L595.5 -0.249939L595.5 -0.249939L595.5 842.0001L595.5 842.0001L0 842.0001z" /></clipPath><clipPath id="21"><path id="" clip-rule="evenodd" transform="matrix(1 0 0 1 0 0)" d="M330.7523 768.2017L252.1373 748.6907L252.1373 748.6907L267.6738 686.0898L267.6738 686.0898L346.2888 705.6009L346.2888 705.6009L330.7523 768.2017z" /></clipPath><clipPath id="22"><path id="" clip-rule="evenodd" transform="matrix(1 0 0 1 0 0)" d="M267.9669 686.2713L346.5819 705.7823L346.5819 705.7823L331.0453 768.3832L331.0453 768.3832L252.4304 748.8721L252.4304 748.8721L267.9669 686.2713z" /></clipPath><clipPath id="23"><path id="" clip-rule="evenodd" transform="matrix(1 0 0 1 0 0)" d="M0 -0.249939L595.5 -0.249939L595.5 -0.249939L595.5 842.0001L595.5 842.0001L0 842.0001z" /></clipPath><clipPath id="24"><path id="" clip-rule="evenodd" transform="matrix(1 0 0 1 0 0)" d="M494.8487 6.747437L590.0987 6.747437L590.0987 6.747437L590.0987 60.74744L590.0987 60.74744L494.8487 60.74744z" /></clipPath><clipPath id="25"><path id="" clip-rule="evenodd" transform="matrix(1 0 0 1 0 0)" d="M0 -0.249939L595.5 -0.249939L595.5 -0.249939L595.5 842.0001L595.5 842.0001L0 842.0001z" /></clipPath><clipPath id="26"><path id="" clip-rule="evenodd" transform="matrix(1 0 0 1 0 0)" d="M0 -0.249939L595.5 -0.249939L595.5 -0.249939L595.5 842.0001L595.5 842.0001L0 842.0001z" /></clipPath><clipPath id="27"><path id="" clip-rule="evenodd" transform="matrix(1 0 0 1 0 0)" d="M393.7462 183.1174L425.9962 183.1174L425.9962 183.1174L425.9962 215.3674L425.9962 215.3674L393.7462 215.3674z" /></clipPath><clipPath id="28"><path id="" clip-rule="evenodd" transform="matrix(1 0 0 1 0 0)" d="M393.7462 199.0116C 393.7462 203.2271 395.4207 207.2698 398.4015 210.2505C 401.3822 213.2313 405.425 214.9059 409.6404 214.9059C 413.8558 214.9059 417.8986 213.2313 420.8794 210.2505C 423.8601 207.2698 425.5347 203.2271 425.5347 199.0116C 425.5347 194.7962 423.8601 190.7534 420.8794 187.7727C 417.8986 184.7919 413.8558 183.1174 409.6404 183.1174C 405.425 183.1174 401.3822 184.7919 398.4015 187.7727C 395.4207 190.7534 393.7462 194.7962 393.7462 199.0116z" /></clipPath><clipPath id="29"><path id="" clip-rule="evenodd" transform="matrix(1 0 0 1 0 0)" d="M394.4962 183.8674L425.2462 183.8674L425.2462 183.8674L425.2462 214.6174L425.2462 214.6174L394.4962 214.6174z" /></clipPath><clipPath id="30"><path id="" clip-rule="evenodd" transform="matrix(1 0 0 1 0 0)" d="M409.6404 184.0173C 413.6171 184.0173 417.431 185.5971 420.243 188.4091C 423.0549 191.2211 424.6347 195.0349 424.6347 199.0116C 424.6347 202.9883 423.0549 206.8022 420.243 209.6141C 417.431 212.4261 413.6171 214.0059 409.6404 214.0059C 405.6637 214.0059 401.8499 212.4261 399.0379 209.6141C 396.2259 206.8022 394.6461 202.9883 394.6461 199.0116C 394.6461 195.0349 396.2259 191.2211 399.0379 188.4091C 401.8499 185.5971 405.6637 184.0173 409.6404 184.0173z" /></clipPath><clipPath id="31"><path id="" clip-rule="evenodd" transform="matrix(1 0 0 1 0 0)" d="M394.4962 183.8674L425.2462 183.8674L425.2462 183.8674L425.2462 214.6174L425.2462 214.6174L394.4962 214.6174z" /></clipPath><clipPath id="32"><path id="" clip-rule="evenodd" transform="matrix(1 0 0 1 0 0)" d="M393.7394 183.1107L425.2394 183.1107L425.2394 183.1107L425.2394 214.6107L425.2394 214.6107L393.7394 214.6107z" /></clipPath><clipPath id="33"><path id="" clip-rule="evenodd" transform="matrix(1 0 0 1 0 0)" d="M0 -0.249939L595.5 -0.249939L595.5 -0.249939L595.5 842.0001L595.5 842.0001L0 842.0001z" /></clipPath><clipPath id="34"><path id="" clip-rule="evenodd" transform="matrix(1 0 0 1 0 0)" d="M0 -0.249939L595.5 -0.249939L595.5 -0.249939L595.5 842.0001L595.5 842.0001L0 842.0001z" /></clipPath><clipPath id="35"><path id="" clip-rule="evenodd" transform="matrix(1 0 0 1 0 0)" d="M393.7462 183.1174L425.9962 183.1174L425.9962 183.1174L425.9962 215.3674L425.9962 215.3674L393.7462 215.3674z" /></clipPath><clipPath id="36"><path id="" clip-rule="evenodd" transform="matrix(1 0 0 1 0 0)" d="M393.7462 199.0116C 393.7462 203.2271 395.4207 207.2698 398.4015 210.2505C 401.3822 213.2313 405.425 214.9059 409.6404 214.9059C 413.8558 214.9059 417.8986 213.2313 420.8794 210.2505C 423.8601 207.2698 425.5347 203.2271 425.5347 199.0116C 425.5347 194.7962 423.8601 190.7534 420.8794 187.7727C 417.8986 184.7919 413.8558 183.1174 409.6404 183.1174C 405.425 183.1174 401.3822 184.7919 398.4015 187.7727C 395.4207 190.7534 393.7462 194.7962 393.7462 199.0116z" /></clipPath><clipPath id="37"><path id="" clip-rule="evenodd" transform="matrix(1 0 0 1 0 0)" d="M393.7462 183.1174L425.2462 183.1174L425.2462 183.1174L425.2462 214.6174L425.2462 214.6174L393.7462 214.6174z" /></clipPath><clipPath id="38"><path id="" clip-rule="evenodd" transform="matrix(1 0 0 1 0 0)" d="M393.7462 183.1174L425.9888 183.1174L425.9888 183.1174L425.9888 215.36L425.9888 215.36L393.7462 215.36z" /></clipPath><clipPath id="39"><path id="" clip-rule="evenodd" transform="matrix(1 0 0 1 0 0)" d="M393.7462 199.008C 393.7462 203.2224 395.4203 207.2643 398.4004 210.2444C 401.3805 213.2244 405.4223 214.8986 409.6368 214.8986C 413.8512 214.8986 417.8931 213.2244 420.8732 210.2444C 423.8532 207.2643 425.5274 203.2224 425.5274 199.008C 425.5274 194.7935 423.8532 190.7517 420.8732 187.7716C 417.8931 184.7915 413.8512 183.1174 409.6368 183.1174C 405.4223 183.1174 401.3805 184.7915 398.4004 187.7716C 395.4203 190.7517 393.7462 194.7935 393.7462 199.008z" /></clipPath><clipPath id="40"><path id="" clip-rule="evenodd" transform="matrix(1 0 0 1 0 0)" d="M0 -0.249939L595.5 -0.249939L595.5 -0.249939L595.5 842.0001L595.5 842.0001L0 842.0001z" /></clipPath><clipPath id="41"><path id="" clip-rule="evenodd" transform="matrix(1 0 0 1 0 0)" d="M0 -0.249939L595.5 -0.249939L595.5 -0.249939L595.5 842.0001L595.5 842.0001L0 842.0001z" /></clipPath><clipPath id="42"><path id="" clip-rule="evenodd" transform="matrix(1 0 0 1 0 0)" d="M0 -0.249939L595.5 -0.249939L595.5 -0.249939L595.5 842.0001L595.5 842.0001L0 842.0001z" /></clipPath><clipPath id="43"><path id="" clip-rule="evenodd" transform="matrix(1 0 0 1 0 0)" d="M59.73776 271.8334L91.98776 271.8334L91.98776 271.8334L91.98776 304.0834L91.98776 304.0834L59.73776 304.0834z" /></clipPath><clipPath id="44"><path id="" clip-rule="evenodd" transform="matrix(1 0 0 1 0 0)" d="M59.73776 287.7277C 59.73776 291.9431 61.41233 295.9858 64.39309 298.9666C 67.37384 301.9474 71.4166 303.6219 75.63203 303.6219C 79.84744 303.6219 83.89021 301.9474 86.87096 298.9666C 89.85172 295.9858 91.52629 291.9431 91.52629 287.7277C 91.52629 283.5123 89.85172 279.4695 86.87096 276.4888C 83.89021 273.508 79.84744 271.8334 75.63203 271.8334C 71.4166 271.8334 67.37384 273.508 64.39309 276.4888C 61.41233 279.4695 59.73776 283.5123 59.73776 287.7277z" /></clipPath><clipPath id="45"><path id="" clip-rule="evenodd" transform="matrix(1 0 0 1 0 0)" d="M60.48776 272.5834L91.23776 272.5834L91.23776 272.5834L91.23776 303.3334L91.23776 303.3334L60.48776 303.3334z" /></clipPath><clipPath id="46"><path id="" clip-rule="evenodd" transform="matrix(1 0 0 1 0 0)" d="M75.63203 272.7334C 79.60875 272.7334 83.4226 274.3132 86.23457 277.1251C 89.04655 279.9371 90.62629 283.751 90.62629 287.7277C 90.62629 291.7044 89.04655 295.5182 86.23457 298.3302C 83.4226 301.1422 79.60875 302.7219 75.63203 302.7219C 71.6553 302.7219 67.84145 301.1422 65.02948 298.3302C 62.21751 295.5182 60.63776 291.7044 60.63776 287.7277C 60.63776 283.751 62.21751 279.9371 65.02948 277.1251C 67.84145 274.3132 71.6553 272.7334 75.63203 272.7334z" /></clipPath><clipPath id="47"><path id="" clip-rule="evenodd" transform="matrix(1 0 0 1 0 0)" d="M60.48776 272.5834L91.23776 272.5834L91.23776 272.5834L91.23776 303.3334L91.23776 303.3334L60.48776 303.3334z" /></clipPath><clipPath id="48"><path id="" clip-rule="evenodd" transform="matrix(1 0 0 1 0 0)" d="M59.73106 271.8267L91.23106 271.8267L91.23106 271.8267L91.23106 303.3267L91.23106 303.3267L59.73106 303.3267z" /></clipPath><clipPath id="49"><path id="" clip-rule="evenodd" transform="matrix(1 0 0 1 0 0)" d="M0 -0.249939L595.5 -0.249939L595.5 -0.249939L595.5 842.0001L595.5 842.0001L0 842.0001z" /></clipPath><clipPath id="50"><path id="" clip-rule="evenodd" transform="matrix(1 0 0 1 0 0)" d="M0 -0.249939L595.5 -0.249939L595.5 -0.249939L595.5 842.0001L595.5 842.0001L0 842.0001z" /></clipPath><clipPath id="51"><path id="" clip-rule="evenodd" transform="matrix(1 0 0 1 0 0)" d="M59.73776 271.8334L91.98776 271.8334L91.98776 271.8334L91.98776 304.0834L91.98776 304.0834L59.73776 304.0834z" /></clipPath><clipPath id="52"><path id="" clip-rule="evenodd" transform="matrix(1 0 0 1 0 0)" d="M59.73776 287.7277C 59.73776 291.9431 61.41233 295.9858 64.39309 298.9666C 67.37384 301.9474 71.4166 303.6219 75.63203 303.6219C 79.84744 303.6219 83.89021 301.9474 86.87096 298.9666C 89.85172 295.9858 91.52629 291.9431 91.52629 287.7277C 91.52629 283.5123 89.85172 279.4695 86.87096 276.4888C 83.89021 273.508 79.84744 271.8334 75.63203 271.8334C 71.4166 271.8334 67.37384 273.508 64.39309 276.4888C 61.41233 279.4695 59.73776 283.5123 59.73776 287.7277z" /></clipPath><clipPath id="53"><path id="" clip-rule="evenodd" transform="matrix(1 0 0 1 0 0)" d="M59.73776 271.8334L91.23776 271.8334L91.23776 271.8334L91.23776 303.3334L91.23776 303.3334L59.73776 303.3334z" /></clipPath><clipPath id="54"><path id="" clip-rule="evenodd" transform="matrix(1 0 0 1 0 0)" d="M59.73776 271.8334L91.98038 271.8334L91.98038 271.8334L91.98038 304.076L91.98038 304.076L59.73776 304.076z" /></clipPath><clipPath id="55"><path id="" clip-rule="evenodd" transform="matrix(1 0 0 1 0 0)" d="M59.73776 287.724C 59.73776 291.9385 61.41195 295.9803 64.39202 298.9604C 67.37209 301.9404 71.41393 303.6146 75.62839 303.6146C 79.84284 303.6146 83.88469 301.9404 86.86475 298.9604C 89.84483 295.9803 91.51901 291.9385 91.51901 287.724C 91.51901 283.5096 89.84483 279.4678 86.86475 276.4877C 83.88469 273.5076 79.84284 271.8334 75.62839 271.8334C 71.41393 271.8334 67.37209 273.5076 64.39202 276.4877C 61.41195 279.4678 59.73776 283.5096 59.73776 287.724z" /></clipPath><clipPath id="56"><path id="" clip-rule="evenodd" transform="matrix(1 0 0 1 0 0)" d="M0 -0.249939L595.5 -0.249939L595.5 -0.249939L595.5 842.0001L595.5 842.0001L0 842.0001z" /></clipPath><clipPath id="57"><path id="" clip-rule="evenodd" transform="matrix(1 0 0 1 0 0)" d="M0 -0.249939L595.5 -0.249939L595.5 -0.249939L595.5 842.0001L595.5 842.0001L0 842.0001z" /></clipPath><clipPath id="58"><path id="" clip-rule="evenodd" transform="matrix(1 0 0 1 0 0)" d="M0 -0.249939L595.5 -0.249939L595.5 -0.249939L595.5 842.0001L595.5 842.0001L0 842.0001z" /></clipPath><clipPath id="59"><path id="" clip-rule="evenodd" transform="matrix(1 0 0 1 0 0)" d="M465.707 349.8706L497.957 349.8706L497.957 349.8706L497.957 382.1206L497.957 382.1206L465.707 382.1206z" /></clipPath><clipPath id="60"><path id="" clip-rule="evenodd" transform="matrix(1 0 0 1 0 0)" d="M465.707 365.7648C 465.707 369.9803 467.3816 374.023 470.3624 377.0038C 473.3431 379.9845 477.3859 381.6591 481.6013 381.6591C 485.8167 381.6591 489.8595 379.9845 492.8402 377.0038C 495.821 374.023 497.4955 369.9803 497.4955 365.7648C 497.4955 361.5494 495.821 357.5067 492.8402 354.5259C 489.8595 351.5451 485.8167 349.8706 481.6013 349.8706C 477.3859 349.8706 473.3431 351.5451 470.3624 354.5259C 467.3816 357.5067 465.707 361.5494 465.707 365.7648z" /></clipPath><clipPath id="61"><path id="" clip-rule="evenodd" transform="matrix(1 0 0 1 0 0)" d="M466.457 350.6206L497.207 350.6206L497.207 350.6206L497.207 381.3706L497.207 381.3706L466.457 381.3706z" /></clipPath><clipPath id="62"><path id="" clip-rule="evenodd" transform="matrix(1 0 0 1 0 0)" d="M481.6013 350.7706C 485.578 350.7706 489.3919 352.3503 492.2038 355.1623C 495.0158 357.9742 496.5956 361.7881 496.5956 365.7648C 496.5956 369.7415 495.0158 373.5554 492.2038 376.3674C 489.3919 379.1793 485.578 380.7591 481.6013 380.7591C 477.6246 380.7591 473.8107 379.1793 470.9987 376.3674C 468.1868 373.5554 466.607 369.7415 466.607 365.7648C 466.607 361.7881 468.1868 357.9742 470.9987 355.1623C 473.8107 352.3503 477.6246 350.7706 481.6013 350.7706z" /></clipPath><clipPath id="63"><path id="" clip-rule="evenodd" transform="matrix(1 0 0 1 0 0)" d="M466.457 350.6206L497.207 350.6206L497.207 350.6206L497.207 381.3706L497.207 381.3706L466.457 381.3706z" /></clipPath><clipPath id="64"><path id="" clip-rule="evenodd" transform="matrix(1 0 0 1 0 0)" d="M465.7003 349.8639L497.2003 349.8639L497.2003 349.8639L497.2003 381.3639L497.2003 381.3639L465.7003 381.3639z" /></clipPath><clipPath id="65"><path id="" clip-rule="evenodd" transform="matrix(1 0 0 1 0 0)" d="M0 -0.249939L595.5 -0.249939L595.5 -0.249939L595.5 842.0001L595.5 842.0001L0 842.0001z" /></clipPath><clipPath id="66"><path id="" clip-rule="evenodd" transform="matrix(1 0 0 1 0 0)" d="M0 -0.249939L595.5 -0.249939L595.5 -0.249939L595.5 842.0001L595.5 842.0001L0 842.0001z" /></clipPath><clipPath id="67"><path id="" clip-rule="evenodd" transform="matrix(1 0 0 1 0 0)" d="M465.707 349.8706L497.957 349.8706L497.957 349.8706L497.957 382.1206L497.957 382.1206L465.707 382.1206z" /></clipPath><clipPath id="68"><path id="" clip-rule="evenodd" transform="matrix(1 0 0 1 0 0)" d="M465.707 365.7648C 465.707 369.9803 467.3816 374.023 470.3624 377.0038C 473.3431 379.9845 477.3859 381.6591 481.6013 381.6591C 485.8167 381.6591 489.8595 379.9845 492.8402 377.0038C 495.821 374.023 497.4955 369.9803 497.4955 365.7648C 497.4955 361.5494 495.821 357.5067 492.8402 354.5259C 489.8595 351.5451 485.8167 349.8706 481.6013 349.8706C 477.3859 349.8706 473.3431 351.5451 470.3624 354.5259C 467.3816 357.5067 465.707 361.5494 465.707 365.7648z" /></clipPath><clipPath id="69"><path id="" clip-rule="evenodd" transform="matrix(1 0 0 1 0 0)" d="M465.707 349.8706L497.207 349.8706L497.207 349.8706L497.207 381.3706L497.207 381.3706L465.707 381.3706z" /></clipPath><clipPath id="70"><path id="" clip-rule="evenodd" transform="matrix(1 0 0 1 0 0)" d="M465.707 349.8706L497.9496 349.8706L497.9496 349.8706L497.9496 382.1132L497.9496 382.1132L465.707 382.1132z" /></clipPath><clipPath id="71"><path id="" clip-rule="evenodd" transform="matrix(1 0 0 1 0 0)" d="M465.707 365.7612C 465.707 369.9756 467.3812 374.0175 470.3613 376.9976C 473.3414 379.9776 477.3832 381.6518 481.5977 381.6518C 485.8121 381.6518 489.854 379.9776 492.834 376.9976C 495.8141 374.0175 497.4883 369.9756 497.4883 365.7612C 497.4883 361.5468 495.8141 357.5049 492.834 354.5248C 489.854 351.5448 485.8121 349.8706 481.5977 349.8706C 477.3832 349.8706 473.3414 351.5448 470.3613 354.5248C 467.3812 357.5049 465.707 361.5468 465.707 365.7612z" /></clipPath><clipPath id="72"><path id="" clip-rule="evenodd" transform="matrix(1 0 0 1 0 0)" d="M0 -0.249939L595.5 -0.249939L595.5 -0.249939L595.5 842.0001L595.5 842.0001L0 842.0001z" /></clipPath><clipPath id="73"><path id="" clip-rule="evenodd" transform="matrix(1 0 0 1 0 0)" d="M0 -0.249939L595.5 -0.249939L595.5 -0.249939L595.5 842.0001L595.5 842.0001L0 842.0001z" /></clipPath><clipPath id="74"><path id="" clip-rule="evenodd" transform="matrix(1 0 0 1 0 0)" d="M0 -0.249939L595.5 -0.249939L595.5 -0.249939L595.5 842.0001L595.5 842.0001L0 842.0001z" /></clipPath><clipPath id="75"><path id="" clip-rule="evenodd" transform="matrix(1 0 0 1 0 0)" d="M148.3824 396.1053L180.6324 396.1053L180.6324 396.1053L180.6324 428.3553L180.6324 428.3553L148.3824 428.3553z" /></clipPath><clipPath id="76"><path id="" clip-rule="evenodd" transform="matrix(1 0 0 1 0 0)" d="M148.3824 411.9996C 148.3824 416.215 150.057 420.2578 153.0377 423.2386C 156.0185 426.2193 160.0613 427.8939 164.2767 427.8939C 168.4921 427.8939 172.5349 426.2193 175.5156 423.2386C 178.4964 420.2578 180.1709 416.215 180.1709 411.9996C 180.1709 407.7842 178.4964 403.7414 175.5156 400.7607C 172.5349 397.7799 168.4921 396.1053 164.2767 396.1053C 160.0613 396.1053 156.0185 397.7799 153.0377 400.7607C 150.057 403.7414 148.3824 407.7842 148.3824 411.9996z" /></clipPath><clipPath id="77"><path id="" clip-rule="evenodd" transform="matrix(1 0 0 1 0 0)" d="M149.1324 396.8553L179.8824 396.8553L179.8824 396.8553L179.8824 427.6053L179.8824 427.6053L149.1324 427.6053z" /></clipPath><clipPath id="78"><path id="" clip-rule="evenodd" transform="matrix(1 0 0 1 0 0)" d="M164.2767 397.0053C 168.2534 397.0053 172.0672 398.5851 174.8792 401.3971C 177.6912 404.209 179.271 408.0229 179.271 411.9996C 179.271 415.9763 177.6912 419.7902 174.8792 422.6021C 172.0672 425.4141 168.2534 426.9938 164.2767 426.9938C 160.3 426.9938 156.4861 425.4141 153.6741 422.6021C 150.8622 419.7902 149.2824 415.9763 149.2824 411.9996C 149.2824 408.0229 150.8622 404.209 153.6741 401.3971C 156.4861 398.5851 160.3 397.0053 164.2767 397.0053z" /></clipPath><clipPath id="79"><path id="" clip-rule="evenodd" transform="matrix(1 0 0 1 0 0)" d="M149.1324 396.8553L179.8824 396.8553L179.8824 396.8553L179.8824 427.6053L179.8824 427.6053L149.1324 427.6053z" /></clipPath><clipPath id="80"><path id="" clip-rule="evenodd" transform="matrix(1 0 0 1 0 0)" d="M148.3757 396.0986L179.8757 396.0986L179.8757 396.0986L179.8757 427.5986L179.8757 427.5986L148.3757 427.5986z" /></clipPath><clipPath id="81"><path id="" clip-rule="evenodd" transform="matrix(1 0 0 1 0 0)" d="M0 -0.249939L595.5 -0.249939L595.5 -0.249939L595.5 842.0001L595.5 842.0001L0 842.0001z" /></clipPath><clipPath id="82"><path id="" clip-rule="evenodd" transform="matrix(1 0 0 1 0 0)" d="M0 -0.249939L595.5 -0.249939L595.5 -0.249939L595.5 842.0001L595.5 842.0001L0 842.0001z" /></clipPath><clipPath id="83"><path id="" clip-rule="evenodd" transform="matrix(1 0 0 1 0 0)" d="M148.3824 396.1053L180.6324 396.1053L180.6324 396.1053L180.6324 428.3553L180.6324 428.3553L148.3824 428.3553z" /></clipPath><clipPath id="84"><path id="" clip-rule="evenodd" transform="matrix(1 0 0 1 0 0)" d="M148.3824 411.9996C 148.3824 416.215 150.057 420.2578 153.0377 423.2386C 156.0185 426.2193 160.0613 427.8939 164.2767 427.8939C 168.4921 427.8939 172.5349 426.2193 175.5156 423.2386C 178.4964 420.2578 180.1709 416.215 180.1709 411.9996C 180.1709 407.7842 178.4964 403.7414 175.5156 400.7607C 172.5349 397.7799 168.4921 396.1053 164.2767 396.1053C 160.0613 396.1053 156.0185 397.7799 153.0377 400.7607C 150.057 403.7414 148.3824 407.7842 148.3824 411.9996z" /></clipPath><clipPath id="85"><path id="" clip-rule="evenodd" transform="matrix(1 0 0 1 0 0)" d="M148.3824 396.1053L179.8824 396.1053L179.8824 396.1053L179.8824 427.6053L179.8824 427.6053L148.3824 427.6053z" /></clipPath><clipPath id="86"><path id="" clip-rule="evenodd" transform="matrix(1 0 0 1 0 0)" d="M148.3824 396.1053L180.625 396.1053L180.625 396.1053L180.625 428.348L180.625 428.348L148.3824 428.348z" /></clipPath><clipPath id="87"><path id="" clip-rule="evenodd" transform="matrix(1 0 0 1 0 0)" d="M148.3824 411.996C 148.3824 416.2104 150.0566 420.2523 153.0367 423.2323C 156.0167 426.2124 160.0586 427.8866 164.273 427.8866C 168.4875 427.8866 172.5293 426.2124 175.5094 423.2323C 178.4895 420.2523 180.1637 416.2104 180.1637 411.996C 180.1637 407.7815 178.4895 403.7397 175.5094 400.7596C 172.5293 397.7795 168.4875 396.1053 164.273 396.1053C 160.0586 396.1053 156.0167 397.7795 153.0367 400.7596C 150.0566 403.7397 148.3824 407.7815 148.3824 411.996z" /></clipPath><clipPath id="88"><path id="" clip-rule="evenodd" transform="matrix(1 0 0 1 0 0)" d="M0 -0.249939L595.5 -0.249939L595.5 -0.249939L595.5 842.0001L595.5 842.0001L0 842.0001z" /></clipPath><clipPath id="89"><path id="" clip-rule="evenodd" transform="matrix(1 0 0 1 0 0)" d="M0 -0.249939L595.5 -0.249939L595.5 -0.249939L595.5 842.0001L595.5 842.0001L0 842.0001z" /></clipPath><clipPath id="90"><path id="" clip-rule="evenodd" transform="matrix(1 0 0 1 0 0)" d="M0 -0.249939L595.5 -0.249939L595.5 -0.249939L595.5 842.0001L595.5 842.0001L0 842.0001z" /></clipPath><clipPath id="91"><path id="" clip-rule="evenodd" transform="matrix(1 0 0 1 0 0)" d="M447.143 487.2739L475.643 487.2739L475.643 487.2739L475.643 515.7739L475.643 515.7739L447.143 515.7739z" /></clipPath><clipPath id="92"><path id="" clip-rule="evenodd" transform="matrix(1 0 0 1 0 0)" d="M447.143 501.4756C 447.143 505.2421 448.6393 508.8543 451.3026 511.5176C 453.9659 514.181 457.5781 515.6772 461.3446 515.6772C 465.1112 515.6772 468.7234 514.181 471.3867 511.5176C 474.05 508.8543 475.5463 505.2421 475.5463 501.4756C 475.5463 497.709 474.05 494.0968 471.3867 491.4335C 468.7234 488.7701 465.1112 487.2739 461.3446 487.2739C 457.5781 487.2739 453.9659 488.7701 451.3026 491.4335C 448.6393 494.0968 447.143 497.709 447.143 501.4756z" /></clipPath><clipPath id="93"><path id="" clip-rule="evenodd" transform="matrix(1 0 0 1 0 0)" d="M447.893 488.0239L474.893 488.0239L474.893 488.0239L474.893 515.0239L474.893 515.0239L447.893 515.0239z" /></clipPath><clipPath id="94"><path id="" clip-rule="evenodd" transform="matrix(1 0 0 1 0 0)" d="M461.3446 488.1739C 464.8725 488.1739 468.2558 489.5753 470.7503 492.0699C 473.2449 494.5644 474.6463 497.9478 474.6463 501.4756C 474.6463 505.0034 473.2449 508.3867 470.7503 510.8813C 468.2558 513.3758 464.8725 514.7772 461.3446 514.7772C 457.8168 514.7772 454.4335 513.3758 451.9389 510.8813C 449.4444 508.3867 448.043 505.0034 448.043 501.4756C 448.043 497.9478 449.4444 494.5644 451.9389 492.0699C 454.4335 489.5753 457.8168 488.1739 461.3446 488.1739z" /></clipPath><clipPath id="95"><path id="" clip-rule="evenodd" transform="matrix(1 0 0 1 0 0)" d="M447.893 488.0239L474.893 488.0239L474.893 488.0239L474.893 515.0239L474.893 515.0239L447.893 515.0239z" /></clipPath><clipPath id="96"><path id="" clip-rule="evenodd" transform="matrix(1 0 0 1 0 0)" d="M447.1458 487.2767L475.6458 487.2767L475.6458 487.2767L475.6458 515.7767L475.6458 515.7767L447.1458 515.7767z" /></clipPath><clipPath id="97"><path id="" clip-rule="evenodd" transform="matrix(1 0 0 1 0 0)" d="M0 -0.249939L595.5 -0.249939L595.5 -0.249939L595.5 842.0001L595.5 842.0001L0 842.0001z" /></clipPath><clipPath id="98"><path id="" clip-rule="evenodd" transform="matrix(1 0 0 1 0 0)" d="M0 -0.249939L595.5 -0.249939L595.5 -0.249939L595.5 842.0001L595.5 842.0001L0 842.0001z" /></clipPath><clipPath id="99"><path id="" clip-rule="evenodd" transform="matrix(1 0 0 1 0 0)" d="M447.143 487.2739L475.643 487.2739L475.643 487.2739L475.643 515.7739L475.643 515.7739L447.143 515.7739z" /></clipPath><clipPath id="100"><path id="" clip-rule="evenodd" transform="matrix(1 0 0 1 0 0)" d="M447.143 501.4756C 447.143 505.2421 448.6393 508.8543 451.3026 511.5176C 453.9659 514.181 457.5781 515.6772 461.3446 515.6772C 465.1112 515.6772 468.7234 514.181 471.3867 511.5176C 474.05 508.8543 475.5463 505.2421 475.5463 501.4756C 475.5463 497.709 474.05 494.0968 471.3867 491.4335C 468.7234 488.7701 465.1112 487.2739 461.3446 487.2739C 457.5781 487.2739 453.9659 488.7701 451.3026 491.4335C 448.6393 494.0968 447.143 497.709 447.143 501.4756z" /></clipPath><clipPath id="101"><path id="" clip-rule="evenodd" transform="matrix(1 0 0 1 0 0)" d="M447.143 487.2739L475.643 487.2739L475.643 487.2739L475.643 515.7739L475.643 515.7739L447.143 515.7739z" /></clipPath><clipPath id="102"><path id="" clip-rule="evenodd" transform="matrix(1 0 0 1 0 0)" d="M447.143 487.2739L475.6342 487.2739L475.6342 487.2739L475.6342 515.7651L475.6342 515.7651L447.143 515.7651z" /></clipPath><clipPath id="103"><path id="" clip-rule="evenodd" transform="matrix(1 0 0 1 0 0)" d="M447.143 501.4712C 447.143 505.2365 448.6388 508.8477 451.3013 511.5102C 453.9638 514.1727 457.5749 515.6685 461.3402 515.6685C 465.1056 515.6685 468.7167 514.1727 471.3792 511.5102C 474.0417 508.8477 475.5375 505.2365 475.5375 501.4712C 475.5375 497.7058 474.0417 494.0947 471.3792 491.4322C 468.7167 488.7697 465.1056 487.2739 461.3402 487.2739C 457.5749 487.2739 453.9638 488.7697 451.3013 491.4322C 448.6388 494.0947 447.143 497.7058 447.143 501.4712z" /></clipPath><clipPath id="104"><path id="" clip-rule="evenodd" transform="matrix(1 0 0 1 0 0)" d="M0 -0.249939L595.5 -0.249939L595.5 -0.249939L595.5 842.0001L595.5 842.0001L0 842.0001z" /></clipPath><clipPath id="105"><path id="" clip-rule="evenodd" transform="matrix(1 0 0 1 0 0)" d="M0 -0.249939L595.5 -0.249939L595.5 -0.249939L595.5 842.0001L595.5 842.0001L0 842.0001z" /></clipPath><clipPath id="106"><path id="" clip-rule="evenodd" transform="matrix(1 0 0 1 0 0)" d="M0 -0.249939L595.5 -0.249939L595.5 -0.249939L595.5 842.0001L595.5 842.0001L0 842.0001z" /></clipPath><clipPath id="107"><path id="" clip-rule="evenodd" transform="matrix(1 0 0 1 0 0)" d="M117.6344 552.9112L149.8844 552.9112L149.8844 552.9112L149.8844 585.1612L149.8844 585.1612L117.6344 585.1612z" /></clipPath><clipPath id="108"><path id="" clip-rule="evenodd" transform="matrix(1 0 0 1 0 0)" d="M117.6344 568.8055C 117.6344 573.0209 119.309 577.0637 122.2898 580.0444C 125.2705 583.0251 129.3133 584.6997 133.5287 584.6997C 137.7441 584.6997 141.7869 583.0251 144.7677 580.0444C 147.7484 577.0637 149.423 573.0209 149.423 568.8055C 149.423 564.59 147.7484 560.5472 144.7677 557.5665C 141.7869 554.5858 137.7441 552.9112 133.5287 552.9112C 129.3133 552.9112 125.2705 554.5858 122.2898 557.5665C 119.309 560.5472 117.6344 564.59 117.6344 568.8055z" /></clipPath><clipPath id="109"><path id="" clip-rule="evenodd" transform="matrix(1 0 0 1 0 0)" d="M118.3844 553.6612L149.1344 553.6612L149.1344 553.6612L149.1344 584.4112L149.1344 584.4112L118.3844 584.4112z" /></clipPath><clipPath id="110"><path id="" clip-rule="evenodd" transform="matrix(1 0 0 1 0 0)" d="M133.5287 553.8112C 137.5054 553.8112 141.3193 555.3909 144.1312 558.2029C 146.9432 561.0149 148.523 564.8287 148.523 568.8055C 148.523 572.7822 146.9432 576.596 144.1312 579.408C 141.3193 582.22 137.5054 583.7997 133.5287 583.7997C 129.552 583.7997 125.7381 582.22 122.9262 579.408C 120.1142 576.596 118.5344 572.7822 118.5344 568.8055C 118.5344 564.8287 120.1142 561.0149 122.9262 558.2029C 125.7381 555.3909 129.552 553.8112 133.5287 553.8112z" /></clipPath><clipPath id="111"><path id="" clip-rule="evenodd" transform="matrix(1 0 0 1 0 0)" d="M118.3844 553.6612L149.1344 553.6612L149.1344 553.6612L149.1344 584.4112L149.1344 584.4112L118.3844 584.4112z" /></clipPath><clipPath id="112"><path id="" clip-rule="evenodd" transform="matrix(1 0 0 1 0 0)" d="M117.6277 552.9045L149.1277 552.9045L149.1277 552.9045L149.1277 584.4045L149.1277 584.4045L117.6277 584.4045z" /></clipPath><clipPath id="113"><path id="" clip-rule="evenodd" transform="matrix(1 0 0 1 0 0)" d="M0 -0.249939L595.5 -0.249939L595.5 -0.249939L595.5 842.0001L595.5 842.0001L0 842.0001z" /></clipPath><clipPath id="114"><path id="" clip-rule="evenodd" transform="matrix(1 0 0 1 0 0)" d="M0 -0.249939L595.5 -0.249939L595.5 -0.249939L595.5 842.0001L595.5 842.0001L0 842.0001z" /></clipPath><clipPath id="115"><path id="" clip-rule="evenodd" transform="matrix(1 0 0 1 0 0)" d="M117.6344 552.9112L149.8844 552.9112L149.8844 552.9112L149.8844 585.1612L149.8844 585.1612L117.6344 585.1612z" /></clipPath><clipPath id="116"><path id="" clip-rule="evenodd" transform="matrix(1 0 0 1 0 0)" d="M117.6344 568.8055C 117.6344 573.0209 119.309 577.0637 122.2898 580.0444C 125.2705 583.0251 129.3133 584.6997 133.5287 584.6997C 137.7441 584.6997 141.7869 583.0251 144.7677 580.0444C 147.7484 577.0637 149.423 573.0209 149.423 568.8055C 149.423 564.59 147.7484 560.5472 144.7677 557.5665C 141.7869 554.5858 137.7441 552.9112 133.5287 552.9112C 129.3133 552.9112 125.2705 554.5858 122.2898 557.5665C 119.309 560.5472 117.6344 564.59 117.6344 568.8055z" /></clipPath><clipPath id="117"><path id="" clip-rule="evenodd" transform="matrix(1 0 0 1 0 0)" d="M117.6344 552.9112L149.1344 552.9112L149.1344 552.9112L149.1344 584.4112L149.1344 584.4112L117.6344 584.4112z" /></clipPath><clipPath id="118"><path id="" clip-rule="evenodd" transform="matrix(1 0 0 1 0 0)" d="M117.6344 552.9112L149.8771 552.9112L149.8771 552.9112L149.8771 585.1538L149.8771 585.1538L117.6344 585.1538z" /></clipPath><clipPath id="119"><path id="" clip-rule="evenodd" transform="matrix(1 0 0 1 0 0)" d="M117.6344 568.8018C 117.6344 573.0163 119.3086 577.0581 122.2887 580.0381C 125.2688 583.0182 129.3106 584.6924 133.5251 584.6924C 137.7395 584.6924 141.7814 583.0182 144.7614 580.0381C 147.7415 577.0581 149.4157 573.0163 149.4157 568.8018C 149.4157 564.5873 147.7415 560.5455 144.7614 557.5655C 141.7814 554.5854 137.7395 552.9112 133.5251 552.9112C 129.3106 552.9112 125.2688 554.5854 122.2887 557.5655C 119.3086 560.5455 117.6344 564.5873 117.6344 568.8018z" /></clipPath><clipPath id="120"><path id="" clip-rule="evenodd" transform="matrix(1 0 0 1 0 0)" d="M0 -0.249939L595.5 -0.249939L595.5 -0.249939L595.5 842.0001L595.5 842.0001L0 842.0001z" /></clipPath><clipPath id="121"><path id="" clip-rule="evenodd" transform="matrix(1 0 0 1 0 0)" d="M0 -0.249939L595.5 -0.249939L595.5 -0.249939L595.5 842.0001L595.5 842.0001L0 842.0001z" /></clipPath><clipPath id="122"><path id="" clip-rule="evenodd" transform="matrix(1 0 0 1 0 0)" d="M0 -0.249939L595.5 -0.249939L595.5 -0.249939L595.5 842.0001L595.5 842.0001L0 842.0001z" /></clipPath><clipPath id="123"><path id="" clip-rule="evenodd" transform="matrix(1 0 0 1 0 0)" d="M471.8064 654.6527L504.0564 654.6527L504.0564 654.6527L504.0564 686.9027L504.0564 686.9027L471.8064 686.9027z" /></clipPath><clipPath id="124"><path id="" clip-rule="evenodd" transform="matrix(1 0 0 1 0 0)" d="M471.8064 670.5469C 471.8064 674.7623 473.481 678.8051 476.4617 681.7859C 479.4425 684.7667 483.4852 686.4412 487.7007 686.4412C 491.9161 686.4412 495.9588 684.7667 498.9396 681.7859C 501.9203 678.8051 503.5949 674.7623 503.5949 670.5469C 503.5949 666.3315 501.9203 662.2888 498.9396 659.308C 495.9588 656.3272 491.9161 654.6527 487.7007 654.6527C 483.4852 654.6527 479.4425 656.3272 476.4617 659.308C 473.481 662.2888 471.8064 666.3315 471.8064 670.5469z" /></clipPath><clipPath id="125"><path id="" clip-rule="evenodd" transform="matrix(1 0 0 1 0 0)" d="M472.5564 655.4027L503.3064 655.4027L503.3064 655.4027L503.3064 686.1527L503.3064 686.1527L472.5564 686.1527z" /></clipPath><clipPath id="126"><path id="" clip-rule="evenodd" transform="matrix(1 0 0 1 0 0)" d="M487.7007 655.5527C 491.6774 655.5527 495.4912 657.1324 498.3032 659.9444C 501.1152 662.7563 502.6949 666.5703 502.6949 670.5469C 502.6949 674.5237 501.1152 678.3375 498.3032 681.1495C 495.4912 683.9614 491.6774 685.5412 487.7007 685.5412C 483.7239 685.5412 479.9101 683.9614 477.0981 681.1495C 474.2861 678.3375 472.7064 674.5237 472.7064 670.5469C 472.7064 666.5703 474.2861 662.7563 477.0981 659.9444C 479.9101 657.1324 483.7239 655.5527 487.7007 655.5527z" /></clipPath><clipPath id="127"><path id="" clip-rule="evenodd" transform="matrix(1 0 0 1 0 0)" d="M472.5564 655.4027L503.3064 655.4027L503.3064 655.4027L503.3064 686.1527L503.3064 686.1527L472.5564 686.1527z" /></clipPath><clipPath id="128"><path id="" clip-rule="evenodd" transform="matrix(1 0 0 1 0 0)" d="M471.7997 654.646L503.2997 654.646L503.2997 654.646L503.2997 686.146L503.2997 686.146L471.7997 686.146z" /></clipPath><clipPath id="129"><path id="" clip-rule="evenodd" transform="matrix(1 0 0 1 0 0)" d="M0 -0.249939L595.5 -0.249939L595.5 -0.249939L595.5 842.0001L595.5 842.0001L0 842.0001z" /></clipPath><clipPath id="130"><path id="" clip-rule="evenodd" transform="matrix(1 0 0 1 0 0)" d="M0 -0.249939L595.5 -0.249939L595.5 -0.249939L595.5 842.0001L595.5 842.0001L0 842.0001z" /></clipPath><clipPath id="131"><path id="" clip-rule="evenodd" transform="matrix(1 0 0 1 0 0)" d="M471.8064 654.6527L504.0564 654.6527L504.0564 654.6527L504.0564 686.9027L504.0564 686.9027L471.8064 686.9027z" /></clipPath><clipPath id="132"><path id="" clip-rule="evenodd" transform="matrix(1 0 0 1 0 0)" d="M471.8064 670.5469C 471.8064 674.7623 473.481 678.8051 476.4617 681.7859C 479.4425 684.7667 483.4852 686.4412 487.7007 686.4412C 491.9161 686.4412 495.9588 684.7667 498.9396 681.7859C 501.9203 678.8051 503.5949 674.7623 503.5949 670.5469C 503.5949 666.3315 501.9203 662.2888 498.9396 659.308C 495.9588 656.3272 491.9161 654.6527 487.7007 654.6527C 483.4852 654.6527 479.4425 656.3272 476.4617 659.308C 473.481 662.2888 471.8064 666.3315 471.8064 670.5469z" /></clipPath><clipPath id="133"><path id="" clip-rule="evenodd" transform="matrix(1 0 0 1 0 0)" d="M471.8064 654.6527L503.3064 654.6527L503.3064 654.6527L503.3064 686.1527L503.3064 686.1527L471.8064 686.1527z" /></clipPath><clipPath id="134"><path id="" clip-rule="evenodd" transform="matrix(1 0 0 1 0 0)" d="M471.8064 654.6527L504.049 654.6527L504.049 654.6527L504.049 686.8953L504.049 686.8953L471.8064 686.8953z" /></clipPath><clipPath id="135"><path id="" clip-rule="evenodd" transform="matrix(1 0 0 1 0 0)" d="M471.8064 670.5433C 471.8064 674.7578 473.4806 678.7996 476.4606 681.7797C 479.4407 684.7597 483.4826 686.434 487.697 686.434C 491.9115 686.434 495.9533 684.7597 498.9334 681.7797C 501.9135 678.7996 503.5876 674.7578 503.5876 670.5433C 503.5876 666.3289 501.9135 662.287 498.9334 659.3069C 495.9533 656.3269 491.9115 654.6527 487.697 654.6527C 483.4826 654.6527 479.4407 656.3269 476.4606 659.3069C 473.4806 662.287 471.8064 666.3289 471.8064 670.5433z" /></clipPath><clipPath id="136"><path id="" clip-rule="evenodd" transform="matrix(1 0 0 1 0 0)" d="M0 -0.249939L595.5 -0.249939L595.5 -0.249939L595.5 842.0001L595.5 842.0001L0 842.0001z" /></clipPath><clipPath id="137"><path id="" clip-rule="evenodd" transform="matrix(1 0 0 1 0 0)" d="M0 -0.249939L595.5 -0.249939L595.5 -0.249939L595.5 842.0001L595.5 842.0001L0 842.0001z" /></clipPath><clipPath id="138"><path id="" clip-rule="evenodd" transform="matrix(1 0 0 1 0 0)" d="M0 -0.249939L595.5 -0.249939L595.5 -0.249939L595.5 842.0001L595.5 842.0001L0 842.0001z" /></clipPath><clipPath id="139"><path id="" clip-rule="evenodd" transform="matrix(1 0 0 1 0 0)" d="M91.52629 752.309L123.7763 752.309L123.7763 752.309L123.7763 784.559L123.7763 784.559L91.52629 784.559z" /></clipPath><clipPath id="140"><path id="" clip-rule="evenodd" transform="matrix(1 0 0 1 0 0)" d="M91.52629 768.2032C 91.52629 772.4187 93.20087 776.4615 96.18162 779.4422C 99.16237 782.423 103.2051 784.0975 107.4206 784.0975C 111.636 784.0975 115.6787 782.423 118.6595 779.4422C 121.6403 776.4615 123.3148 772.4187 123.3148 768.2032C 123.3148 763.9879 121.6403 759.9451 118.6595 756.9644C 115.6787 753.9836 111.636 752.309 107.4206 752.309C 103.2051 752.309 99.16237 753.9836 96.18162 756.9644C 93.20087 759.9451 91.52629 763.9879 91.52629 768.2032z" /></clipPath><clipPath id="141"><path id="" clip-rule="evenodd" transform="matrix(1 0 0 1 0 0)" d="M92.27629 753.059L123.0263 753.059L123.0263 753.059L123.0263 783.809L123.0263 783.809L92.27629 783.809z" /></clipPath><clipPath id="142"><path id="" clip-rule="evenodd" transform="matrix(1 0 0 1 0 0)" d="M107.4206 753.209C 111.3973 753.209 115.2111 754.7888 118.0231 757.6007C 120.8351 760.4127 122.4148 764.2266 122.4148 768.2032C 122.4148 772.1801 120.8351 775.9938 118.0231 778.8058C 115.2111 781.6178 111.3973 783.1975 107.4206 783.1975C 103.4438 783.1975 99.62998 781.6178 96.81801 778.8058C 94.00603 775.9938 92.42629 772.1801 92.42629 768.2032C 92.42629 764.2266 94.00603 760.4127 96.81801 757.6007C 99.62998 754.7888 103.4438 753.209 107.4206 753.209z" /></clipPath><clipPath id="143"><path id="" clip-rule="evenodd" transform="matrix(1 0 0 1 0 0)" d="M92.27629 753.059L123.0263 753.059L123.0263 753.059L123.0263 783.809L123.0263 783.809L92.27629 783.809z" /></clipPath><clipPath id="144"><path id="" clip-rule="evenodd" transform="matrix(1 0 0 1 0 0)" d="M91.5196 752.3023L123.0196 752.3023L123.0196 752.3023L123.0196 783.8023L123.0196 783.8023L91.5196 783.8023z" /></clipPath><clipPath id="145"><path id="" clip-rule="evenodd" transform="matrix(1 0 0 1 0 0)" d="M0 -0.249939L595.5 -0.249939L595.5 -0.249939L595.5 842.0001L595.5 842.0001L0 842.0001z" /></clipPath><clipPath id="146"><path id="" clip-rule="evenodd" transform="matrix(1 0 0 1 0 0)" d="M0 -0.249939L595.5 -0.249939L595.5 -0.249939L595.5 842.0001L595.5 842.0001L0 842.0001z" /></clipPath><clipPath id="147"><path id="" clip-rule="evenodd" transform="matrix(1 0 0 1 0 0)" d="M91.52629 752.309L123.7763 752.309L123.7763 752.309L123.7763 784.559L123.7763 784.559L91.52629 784.559z" /></clipPath><clipPath id="148"><path id="" clip-rule="evenodd" transform="matrix(1 0 0 1 0 0)" d="M91.52629 768.2032C 91.52629 772.4187 93.20087 776.4615 96.18162 779.4422C 99.16237 782.423 103.2051 784.0975 107.4206 784.0975C 111.636 784.0975 115.6787 782.423 118.6595 779.4422C 121.6403 776.4615 123.3148 772.4187 123.3148 768.2032C 123.3148 763.9879 121.6403 759.9451 118.6595 756.9644C 115.6787 753.9836 111.636 752.309 107.4206 752.309C 103.2051 752.309 99.16237 753.9836 96.18162 756.9644C 93.20087 759.9451 91.52629 763.9879 91.52629 768.2032z" /></clipPath><clipPath id="149"><path id="" clip-rule="evenodd" transform="matrix(1 0 0 1 0 0)" d="M91.52629 752.309L123.0263 752.309L123.0263 752.309L123.0263 783.809L123.0263 783.809L91.52629 783.809z" /></clipPath><clipPath id="150"><path id="" clip-rule="evenodd" transform="matrix(1 0 0 1 0 0)" d="M91.52629 752.309L123.7689 752.309L123.7689 752.309L123.7689 784.5516L123.7689 784.5516L91.52629 784.5516z" /></clipPath><clipPath id="151"><path id="" clip-rule="evenodd" transform="matrix(1 0 0 1 0 0)" d="M91.52629 768.1996C 91.52629 772.4141 93.20048 776.4559 96.18055 779.436C 99.16062 782.4161 103.2025 784.0903 107.4169 784.0903C 111.6314 784.0903 115.6732 782.4161 118.6533 779.436C 121.6334 776.4559 123.3075 772.4141 123.3075 768.1996C 123.3075 763.9852 121.6334 759.9434 118.6533 756.9633C 115.6732 753.9832 111.6314 752.309 107.4169 752.309C 103.2025 752.309 99.16062 753.9832 96.18055 756.9633C 93.20048 759.9434 91.52629 763.9852 91.52629 768.1996z" /></clipPath><clipPath id="152"><path id="" clip-rule="evenodd" transform="matrix(1 0 0 1 0 0)" d="M0 -0.249939L595.5 -0.249939L595.5 -0.249939L595.5 842.0001L595.5 842.0001L0 842.0001z" /></clipPath></defs><g transform="matrix(1.333333 0 0 1.333333 0 0)"><g clip-path="url(#1)"><g clip-path="url(#2)"><path id="1" transform="matrix(1 0 0 -1 0 842)" d="M0 842.2499L595.4999 842.2499L595.4999 -6.103516E-05L0 -6.103516E-05z" stroke="none" fill="#FFFFFF" fill-rule="nonzero" /></g><g clip-path="url(#3)"><path id="2" transform="matrix(1 0 0 -1 0 842)" d="M0 842.2499L595.4999 842.2499L595.4999 -6.103516E-05L0 -6.103516E-05z" stroke="none" fill="#FFFFFF" fill-rule="nonzero" /></g><g clip-path="url(#4)"><g><g clip-path="url(#5)"><g clip-path="url(#6)"><g transform="matrix(0 0.5128205 -0.5127462 0 522.0178 30.75189)"><g transform="matrix(1 0 0 1 0 0)"><image x="0" y="0" xlink:href="img_01.png" width="1521" height="863" /></g></g></g></g></g></g><g clip-path="url(#7)"><g clip-path="url(#8)"><g clip-path="url(#9)"><g clip-path="url(#10)"><g clip-path="url(#11)"><g transform="matrix(0.9536152 0 0 0.9533271 320.8261 618.574)"><g transform="matrix(1 0 0 1 0 0)"><image x="0" y="0" xlink:href="img_02.png" width="800" height="449" /></g></g></g></g></g></g></g><g clip-path="url(#12)"><g transform="matrix(0.2400849 0 0 0.2400849 -85.25321 -85.14319)"><g transform="matrix(1 0 0 1 0 0)"><image x="0" y="0" xlink:href="img_03.png" width="706" height="706" /></g></g></g><g clip-path="url(#13)"><g transform="matrix(0.2406122 0 0 0.2405774 302.1196 37.7439)"><g transform="matrix(1 0 0 1 0 0)"><image x="0" y="0" xlink:href="img_04.png" width="1225" height="1247" /></g></g></g><g clip-path="url(#14)"><g transform="matrix(0.2403846 0 0 0.2403256 38.75791 218.8771)"><g transform="matrix(1 0 0 1 0 0)"><image x="0" y="0" xlink:href="img_05.png" width="2028" height="2119" /></g></g></g><g clip-path="url(#15)"><g><g clip-path="url(#16)"><g clip-path="url(#17)"><g clip-path="url(#18)"><path id="177" transform="matrix(1 0 0 -1 0 842)" d="M84.53328 123.7084L322.7836 123.7084L322.7836 23.88502L84.53328 23.88502z" stroke="none" fill="#FF000A" fill-rule="nonzero" fill-opacity="0.9294118" /></g></g></g></g></g><g clip-path="url(#19)"><g clip-path="url(#20)"><g clip-path="url(#21)"><g clip-path="url(#22)"><path id="184" transform="matrix(1 0 0 -1 0 842)" d="M255.3847 94.18678C 255.1981 94.23308 255.0347 94.37266 254.9877 94.58237C 254.9169 95.09509 254.9394 95.58464 254.8686 96.09735C 254.8448 96.40035 255.0776 96.54061 255.2873 96.58759C 255.5903 96.61141 255.7306 96.37856 255.7776 96.16883C 255.7551 95.67928 255.849 95.25985 255.9199 94.74714C 255.9437 94.44414 255.8041 94.28073 255.5011 94.2569C 255.5712 94.14047 255.478 94.16362 255.3847 94.18678z" stroke="none" fill="#040606" fill-rule="nonzero" /><path id="185" transform="matrix(1 0 0 -1 0 842)" d="M256.7425 104.4457C 256.4626 104.5151 256.3455 104.8413 256.4149 105.1211C 256.7629 106.1241 257.181 107.0106 257.6923 107.8739C 257.855 108.1306 258.0648 108.1776 258.3446 108.1082C 258.6013 107.9454 258.6483 107.7357 258.5788 107.4559C 258.1608 106.5694 257.7427 105.6829 257.4179 104.7732C 257.2552 104.5165 257.0223 104.3762 256.7425 104.4457zM255.4004 98.6391C 255.2138 98.68539 254.9803 98.94141 255.0266 99.12798C 255.0715 100.1071 255.3262 101.1332 255.4876 102.1824C 255.557 102.4623 255.7899 102.6025 256.0697 102.5331C 256.3495 102.4636 256.4898 102.2308 256.4204 101.9509C 256.1889 101.0181 256.0275 99.96886 255.8893 99.0129C 255.9362 98.80318 255.7735 98.54649 255.4004 98.6391C 255.4937 98.61594 255.4004 98.6391 255.4004 98.6391z" stroke="none" fill="#040606" fill-rule="nonzero" /><path id="186" transform="matrix(1 0 0 -1 0 842)" d="M338.3109 128.6648C 338.2176 128.688 338.1243 128.7111 338.0542 128.8276C 337.9139 129.0604 337.8901 129.3634 338.123 129.5037C 338.8679 130.111 339.6359 130.8116 340.3107 131.5354C 340.4502 131.6989 340.7532 131.7227 341.0099 131.5599C 341.1733 131.4203 341.1971 131.1174 341.0344 130.8607C 340.3596 130.1369 339.5916 129.4363 338.8236 128.7356C 338.5907 128.5954 338.4974 128.6185 338.3109 128.6648zM333.4684 125.1134C 333.3751 125.1365 333.1885 125.1828 333.1184 125.2992C 332.9781 125.5321 333.0476 125.812 333.2805 125.9522C 334.0955 126.4431 334.9337 127.0273 335.7718 127.6115C 336.0047 127.7518 336.2845 127.6823 336.4479 127.5427C 336.5882 127.3099 336.5187 127.03 336.3792 126.8666C 335.541 126.2824 334.7028 125.6982 333.8878 125.2073C 333.6549 125.0671 333.5616 125.0902 333.4684 125.1134zM328.0417 122.4001C 327.8551 122.4464 327.785 122.5628 327.7148 122.6792C 327.5746 122.9121 327.7373 123.1688 327.9702 123.3091C 328.8553 123.6835 329.7637 124.1513 330.6488 124.5258C 330.8817 124.666 331.1615 124.5966 331.2786 124.2704C 331.4189 124.0376 331.3494 123.7577 331.0233 123.6406C 330.115 123.1729 329.2067 122.7051 328.2282 122.3538C 328.3215 122.3306 328.1349 122.3769 328.0417 122.4001zM322.3338 120.5488C 322.1472 120.5951 321.9838 120.7347 322.0301 120.9212C 321.9831 121.131 322.1459 121.3876 322.3787 121.5279C 323.334 121.7859 324.2893 122.044 325.2446 122.302C 325.4543 122.349 325.7341 122.2796 325.8513 121.9534C 325.8982 121.7437 325.8288 121.4639 325.5026 121.3468C 324.5242 120.9954 323.5689 120.7374 322.5204 120.5025C 322.5204 120.5025 322.4271 120.5256 322.3338 120.5488zM316.3447 119.5595C 316.1581 119.6058 315.9947 119.7454 315.9478 119.9551C 315.9239 120.2581 316.1568 120.3984 316.3665 120.4453C 317.3688 120.4937 318.3942 120.6353 319.3263 120.8001C 319.6293 120.8239 319.7927 120.6843 319.9098 120.3582C 320.0269 120.032 319.7941 119.8918 319.4679 119.7746C 318.5358 119.6099 317.5104 119.4683 316.4148 119.4431C 316.438 119.5364 316.438 119.5364 316.3447 119.5595zM310.3542 119.3628C 310.1677 119.4091 310.0274 119.642 309.9805 119.8517C 309.9566 120.1547 310.1895 120.2949 310.4925 120.3187C 311.5649 120.2507 312.5671 120.299 313.4761 120.3705C 313.7791 120.3943 313.9194 120.1614 313.9664 119.9517C 313.9902 119.6487 313.7573 119.5085 313.5476 119.4615C 312.5453 119.4132 311.5662 119.4581 310.4707 119.4329C 310.4475 119.3396 310.3542 119.3628 310.3542 119.3628zM304.293 119.6788C 304.1064 119.7251 303.8729 119.9811 303.9192 120.1676C 303.9886 120.4475 304.1282 120.6109 304.4312 120.6347C 305.4103 120.5898 306.4827 120.5217 307.4619 120.4767C 307.7649 120.5006 307.9051 120.2677 307.929 119.9647C 307.9528 119.6617 307.7199 119.5215 307.4169 119.4976C 306.4378 119.5426 305.4587 119.5875 304.293 119.6788C 304.3863 119.6556 304.3863 119.6556 304.293 119.6788zM298.3012 120.2746C 298.1146 120.3209 297.8811 120.5769 297.9274 120.7635C 297.9969 121.0433 298.1364 121.2067 298.4394 121.2306L298.4394 121.2306L301.4469 120.9793C 301.7267 120.9098 301.8902 120.7703 301.914 120.4673C 301.9378 120.1643 301.705 120.024 301.4019 120.0002L301.4019 120.0002L298.3012 120.2746C 298.3945 120.2514 298.3945 120.2514 298.3012 120.2746zM292.2863 120.7771C 292.0997 120.8234 291.9594 121.0563 291.9124 121.266C 291.9819 121.5459 292.1215 121.7093 292.4245 121.7331C 293.4036 121.6882 294.476 121.6201 295.4319 121.4818C 295.7118 121.4124 295.8752 121.2728 295.899 120.9698C 295.8296 120.69 295.69 120.5265 295.387 120.5027C 294.4079 120.5477 293.4288 120.5926 292.2863 120.7771C 292.3795 120.754 292.3795 120.754 292.2863 120.7771zM286.272 120.8834C 286.0854 120.9297 285.9452 121.1626 285.8982 121.3723C 285.8744 121.6753 286.1072 121.8156 286.4102 121.8394C 287.4125 121.8877 288.4849 121.8196 289.464 121.7747C 289.767 121.7985 289.9072 121.5656 289.9311 121.2626C 289.9549 120.9596 289.722 120.8194 289.419 120.7956C 288.4399 120.8405 287.4608 120.8854 286.4585 120.8371C 286.3653 120.8603 286.3653 120.8603 286.272 120.8834zM280.2584 120.5934C 280.0718 120.6397 279.9084 120.7793 279.8614 120.989C 279.8376 121.292 279.9772 121.4554 280.2802 121.4792C 281.3056 121.6208 282.3079 121.6692 283.3101 121.7175C 283.6131 121.7413 283.7534 121.5085 283.8004 121.2988C 283.8242 120.9958 283.5913 120.8555 283.3816 120.8085C 282.3793 120.7602 281.3771 120.7119 280.4449 120.5471C 280.3517 120.5703 280.3517 120.5703 280.2584 120.5934zM274.3394 119.4877C 274.1529 119.534 274.0827 119.6504 274.0357 119.8601C 273.9888 120.0699 274.1515 120.3266 274.3844 120.4668C 275.3397 120.7249 276.3882 120.9598 277.3204 121.1245C 277.6234 121.1484 277.7868 121.0088 277.9039 120.6826C 277.9277 120.3796 277.7881 120.2162 277.462 120.0991C 276.4366 119.9575 275.4813 119.6994 274.526 119.4414C 274.526 119.4414 274.4327 119.4645 274.3394 119.4877zM268.6785 117.4267C 268.5852 117.4498 268.4218 117.5894 268.3517 117.7059C 268.2114 117.9387 268.3741 118.1954 268.607 118.3357C 269.5153 118.8035 270.4938 119.1548 271.4722 119.5061C 271.7051 119.6464 271.9618 119.4836 272.102 119.2508C 272.2423 119.0179 272.0796 118.7612 271.8467 118.6209C 270.8683 118.2696 269.9831 117.8951 269.0979 117.5207C 268.8882 117.4737 268.7718 117.4035 268.6785 117.4267zM263.6256 114.2245C 263.5323 114.2477 263.4391 114.2708 263.3689 114.3873C 263.2287 114.6201 263.2048 114.9231 263.4377 115.0634C 264.1826 115.6707 265.0439 116.3482 265.9522 116.816C 266.1851 116.9562 266.4649 116.8868 266.6052 116.6539C 266.7455 116.421 266.676 116.1412 266.4431 116.0009C 265.6281 115.51 264.7899 114.9258 264.0219 114.2252C 263.9286 114.2484 263.8122 114.1782 263.6256 114.2245zM259.5539 109.7886C 259.4606 109.8117 259.4606 109.8117 259.3673 109.8349C 259.1106 109.9976 259.0868 110.3006 259.2264 110.464C 259.831 111.3042 260.4356 112.1444 261.1104 112.8682C 261.25 113.0316 261.553 113.0555 261.8097 112.8927C 261.9731 112.7532 261.9969 112.4501 261.8342 112.1935C 261.1594 111.4697 260.5779 110.7228 259.9733 109.8825C 259.9502 109.7893 259.7404 109.7423 259.5539 109.7886z" stroke="none" fill="#040606" fill-rule="nonzero" /><path id="187" transform="matrix(1 0 0 -1 0 842)" d="M342.6161 132.8448C 342.5229 132.8679 342.5229 132.8679 342.4528 132.9843C 342.2893 133.1239 342.2655 133.4269 342.4282 133.6836C 342.7074 134.0104 343.0097 134.4305 343.2889 134.7574C 343.4516 135.0141 343.7546 135.0379 344.0113 134.8752C 344.268 134.7124 344.2918 134.4094 344.1291 134.1527C 343.8268 133.7326 343.5476 133.4058 343.2453 132.9857C 342.9191 132.8686 342.7094 132.8216 342.6161 132.8448z" stroke="none" fill="#040606" fill-rule="nonzero" /><path id="188" transform="matrix(1 0 0 -1 0 842)" d="M345.6679 133.9689C 345.5911 133.6596 345.4581 133.3768 345.2689 133.1205C 345.0797 132.8642 344.8485 132.6538 344.5756 132.4894C 344.3027 132.325 344.0086 132.2191 343.6936 132.1716C 343.3785 132.1242 343.0663 132.1389 342.7571 132.2156C 342.4478 132.2924 342.165 132.4254 341.9087 132.6146C 341.6524 132.8039 341.442 133.035 341.2776 133.3079C 341.1132 133.5809 341.0073 133.8749 340.9598 134.1899C 340.9124 134.505 340.9271 134.8172 341.0038 135.1264C 341.0806 135.4357 341.2136 135.7185 341.4028 135.9748C 341.5921 136.2311 341.8232 136.4415 342.0961 136.6059C 342.369 136.7703 342.6631 136.8762 342.9781 136.9236C 343.2932 136.9711 343.6054 136.9564 343.9146 136.8797C 344.2239 136.8029 344.5067 136.6699 344.763 136.4807C 345.0193 136.2914 345.2297 136.0603 345.3941 135.7874C 345.5585 135.5145 345.6644 135.2204 345.7119 134.9054C 345.7593 134.5903 345.7446 134.2781 345.6679 133.9689z" stroke="none" fill="#040606" fill-rule="nonzero" /><path id="189" transform="matrix(1 0 0 -1 0 842)" d="M257.7154 94.40056C 257.6386 94.09132 257.5056 93.80853 257.3163 93.55219C 257.1271 93.29586 256.896 93.08549 256.623 92.92109C 256.3501 92.75669 256.0561 92.65078 255.741 92.60334C 255.426 92.5559 255.1138 92.57056 254.8046 92.6473C 254.4953 92.72405 254.2125 92.85706 253.9562 93.04631C 253.6998 93.23557 253.4895 93.46666 253.3251 93.73959C 253.1607 94.01254 253.0547 94.30655 253.0073 94.62163C 252.9599 94.93671 252.9745 95.24887 253.0513 95.55811C 253.128 95.86736 253.261 96.15015 253.4503 96.40649C 253.6395 96.66283 253.8706 96.8732 254.1436 97.03759C 254.4165 97.20199 254.7105 97.30791 255.0256 97.35534C 255.3407 97.40277 255.6528 97.38811 255.9621 97.31137C 256.2713 97.23462 256.5541 97.10162 256.8105 96.91237C 257.0668 96.72312 257.2772 96.49202 257.4416 96.21909C 257.606 95.94614 257.7119 95.65214 257.7593 95.33705C 257.8068 95.02197 257.7921 94.70982 257.7154 94.40056z" stroke="none" fill="#040606" fill-rule="nonzero" /></g></g></g></g><g clip-path="url(#23)"></g><g clip-path="url(#24)"><g transform="matrix(0.06262327 0 0 0.06257242 494.8487 6.747498)"><g transform="matrix(1 0 0 1 0 0)"><image x="0" y="0" xlink:href="img_06.png" width="1521" height="863" /></g></g></g><g clip-path="url(#25)"><g clip-path="url(#26)"><g clip-path="url(#27)"><g clip-path="url(#28)"><g clip-path="url(#29)"><g clip-path="url(#30)"><g clip-path="url(#31)"><g clip-path="url(#32)"><path id="205" transform="matrix(1 0 0 -1 0 842)" d="M409.4894 658.6565C 400.9317 658.6565 393.9722 651.697 393.9722 643.1393C 393.9722 634.5815 400.9317 627.6221 409.4894 627.6221C 418.0472 627.6221 425.0067 634.5815 425.0067 643.1393C 425.0067 651.697 418.0472 658.6565 409.4894 658.6565zM409.4894 627.3893C 400.8076 627.3893 393.7394 634.4574 393.7394 643.1393C 393.7394 651.8212 400.8076 658.8893 409.4894 658.8893C 418.1713 658.8893 425.2394 651.8212 425.2394 643.1393C 425.2394 634.4574 418.1713 627.3893 409.4894 627.3893z" stroke="none" fill="#000000" fill-rule="nonzero" /></g></g></g></g></g></g></g></g><g clip-path="url(#33)"><g clip-path="url(#34)"><g clip-path="url(#35)"><g clip-path="url(#36)"><g clip-path="url(#37)"><g clip-path="url(#38)"><g clip-path="url(#39)"><path id="206" transform="matrix(1 0 0 -1 0 842)" d="M393.7461 642.992C 393.7461 638.7775 395.4203 634.7357 398.4004 631.7556C 401.3805 628.7756 405.4223 627.1014 409.6367 627.1014C 413.8512 627.1014 417.893 628.7756 420.8731 631.7556C 423.8532 634.7357 425.5274 638.7775 425.5274 642.992C 425.5274 647.2065 423.8532 651.2483 420.8731 654.2284C 417.893 657.2084 413.8512 658.8826 409.6367 658.8826C 405.4223 658.8826 401.3805 657.2084 398.4004 654.2284C 395.4203 651.2483 393.7461 647.2065 393.7461 642.992z" stroke="#000000" stroke-width="1.5" fill="none" /></g></g></g></g></g></g></g><g clip-path="url(#40)"></g><g clip-path="url(#41)"><g clip-path="url(#42)"><g clip-path="url(#43)"><g clip-path="url(#44)"><g clip-path="url(#45)"><g clip-path="url(#46)"><g clip-path="url(#47)"><g clip-path="url(#48)"><path id="208" transform="matrix(1 0 0 -1 0 842)" d="M75.48106 569.9405C 66.9233 569.9405 59.96382 562.981 59.96382 554.4233C 59.96382 545.8655 66.9233 538.906 75.48106 538.906C 84.03882 538.906 90.99831 545.8655 90.99831 554.4233C 90.99831 562.981 84.03882 569.9405 75.48106 569.9405zM75.48106 538.6733C 66.79916 538.6733 59.73106 545.7414 59.73106 554.4233C 59.73106 563.1052 66.79916 570.1733 75.48106 570.1733C 84.16296 570.1733 91.23106 563.1052 91.23106 554.4233C 91.23106 545.7414 84.16296 538.6733 75.48106 538.6733z" stroke="none" fill="#000000" fill-rule="nonzero" /></g></g></g></g></g></g></g></g><g clip-path="url(#49)"><g clip-path="url(#50)"><g clip-path="url(#51)"><g clip-path="url(#52)"><g clip-path="url(#53)"><g clip-path="url(#54)"><g clip-path="url(#55)"><path id="209" transform="matrix(1 0 0 -1 0 842)" d="M59.73776 554.2759C 59.73776 550.0615 61.41195 546.0197 64.39201 543.0396C 67.37209 540.0595 71.41393 538.3853 75.62838 538.3853C 79.84283 538.3853 83.88467 540.0595 86.86475 543.0396C 89.84482 546.0197 91.519 550.0615 91.519 554.2759C 91.519 558.4904 89.84482 562.5322 86.86475 565.5123C 83.88467 568.4924 79.84283 570.1666 75.62838 570.1666C 71.41393 570.1666 67.37209 568.4924 64.39201 565.5123C 61.41195 562.5322 59.73776 558.4904 59.73776 554.2759z" stroke="#000000" stroke-width="1.5" fill="none" /></g></g></g></g></g></g></g><g clip-path="url(#56)"></g><g clip-path="url(#57)"><g clip-path="url(#58)"><g clip-path="url(#59)"><g clip-path="url(#60)"><g clip-path="url(#61)"><g clip-path="url(#62)"><g clip-path="url(#63)"><g clip-path="url(#64)"><path id="211" transform="matrix(1 0 0 -1 0 842)" d="M481.4503 491.9034C 472.8925 491.9034 465.9331 484.9439 465.9331 476.3861C 465.9331 467.8284 472.8925 460.8689 481.4503 460.8689C 490.0081 460.8689 496.9676 467.8284 496.9676 476.3861C 496.9676 484.9439 490.0081 491.9034 481.4503 491.9034zM481.4503 460.6361C 472.7684 460.6361 465.7003 467.7043 465.7003 476.3861C 465.7003 485.068 472.7684 492.1361 481.4503 492.1361C 490.1322 492.1361 497.2003 485.068 497.2003 476.3861C 497.2003 467.7043 490.1322 460.6361 481.4503 460.6361z" stroke="none" fill="#000000" fill-rule="nonzero" /></g></g></g></g></g></g></g></g><g clip-path="url(#65)"><g clip-path="url(#66)"><g clip-path="url(#67)"><g clip-path="url(#68)"><g clip-path="url(#69)"><g clip-path="url(#70)"><g clip-path="url(#71)"><path id="212" transform="matrix(1 0 0 -1 0 842)" d="M465.707 476.2388C 465.707 472.0244 467.3812 467.9825 470.3613 465.0024C 473.3414 462.0224 477.3832 460.3482 481.5977 460.3482C 485.8121 460.3482 489.8539 462.0224 492.834 465.0024C 495.8141 467.9825 497.4883 472.0244 497.4883 476.2388C 497.4883 480.4532 495.8141 484.4951 492.834 487.4752C 489.8539 490.4552 485.8121 492.1294 481.5977 492.1294C 477.3832 492.1294 473.3414 490.4552 470.3613 487.4752C 467.3812 484.4951 465.707 480.4532 465.707 476.2388z" stroke="#000000" stroke-width="1.5" fill="none" /></g></g></g></g></g></g></g><g clip-path="url(#72)"></g><g clip-path="url(#73)"><g clip-path="url(#74)"><g clip-path="url(#75)"><g clip-path="url(#76)"><g clip-path="url(#77)"><g clip-path="url(#78)"><g clip-path="url(#79)"><g clip-path="url(#80)"><path id="214" transform="matrix(1 0 0 -1 0 842)" d="M164.1257 445.6686C 155.568 445.6686 148.6085 438.7091 148.6085 430.1514C 148.6085 421.5936 155.568 414.6341 164.1257 414.6341C 172.6835 414.6341 179.643 421.5936 179.643 430.1514C 179.643 438.7091 172.6835 445.6686 164.1257 445.6686zM164.1257 414.4014C 155.4438 414.4014 148.3757 421.4695 148.3757 430.1514C 148.3757 438.8333 155.4438 445.9014 164.1257 445.9014C 172.8076 445.9014 179.8757 438.8333 179.8757 430.1514C 179.8757 421.4695 172.8076 414.4014 164.1257 414.4014z" stroke="none" fill="#000000" fill-rule="nonzero" /></g></g></g></g></g></g></g></g><g clip-path="url(#81)"><g clip-path="url(#82)"><g clip-path="url(#83)"><g clip-path="url(#84)"><g clip-path="url(#85)"><g clip-path="url(#86)"><g clip-path="url(#87)"><path id="215" transform="matrix(1 0 0 -1 0 842)" d="M148.3824 430.004C 148.3824 425.7896 150.0566 421.7477 153.0367 418.7677C 156.0167 415.7876 160.0586 414.1134 164.273 414.1134C 168.4875 414.1134 172.5293 415.7876 175.5094 418.7677C 178.4895 421.7477 180.1637 425.7896 180.1637 430.004C 180.1637 434.2185 178.4895 438.2603 175.5094 441.2404C 172.5293 444.2205 168.4875 445.8947 164.273 445.8947C 160.0586 445.8947 156.0167 444.2205 153.0367 441.2404C 150.0566 438.2603 148.3824 434.2185 148.3824 430.004z" stroke="#000000" stroke-width="1.5" fill="none" /></g></g></g></g></g></g></g><g clip-path="url(#88)"></g><g clip-path="url(#89)"><g clip-path="url(#90)"><g clip-path="url(#91)"><g clip-path="url(#92)"><g clip-path="url(#93)"><g clip-path="url(#94)"><g clip-path="url(#95)"><g clip-path="url(#96)"><path id="217" transform="matrix(1 0 0 -1 0 842)" d="M461.3958 354.5127C 453.653 354.5127 447.3564 348.216 447.3564 340.4733C 447.3564 332.7306 453.653 326.4339 461.3958 326.4339C 469.1385 326.4339 475.4352 332.7306 475.4352 340.4733C 475.4352 348.216 469.1385 354.5127 461.3958 354.5127zM461.3958 326.2233C 453.5407 326.2233 447.1458 332.6183 447.1458 340.4733C 447.1458 348.3283 453.5407 354.7233 461.3958 354.7233C 469.2508 354.7233 475.6458 348.3283 475.6458 340.4733C 475.6458 332.6183 469.2508 326.2233 461.3958 326.2233z" stroke="none" fill="#000000" fill-rule="nonzero" /></g></g></g></g></g></g></g></g><g clip-path="url(#97)"><g clip-path="url(#98)"><g clip-path="url(#99)"><g clip-path="url(#100)"><g clip-path="url(#101)"><g clip-path="url(#102)"><g clip-path="url(#103)"><path id="218" transform="matrix(1 0 0 -1 0 842)" d="M447.143 340.5288C 447.143 336.7635 448.6388 333.1523 451.3013 330.4898C 453.9638 327.8273 457.5749 326.3315 461.3402 326.3315C 465.1056 326.3315 468.7167 327.8273 471.3792 330.4898C 474.0417 333.1523 475.5375 336.7635 475.5375 340.5288C 475.5375 344.2942 474.0417 347.9053 471.3792 350.5678C 468.7167 353.2303 465.1056 354.7261 461.3402 354.7261C 457.5749 354.7261 453.9638 353.2303 451.3013 350.5678C 448.6388 347.9053 447.143 344.2942 447.143 340.5288z" stroke="#000000" stroke-width="1.5" fill="none" /></g></g></g></g></g></g></g><g clip-path="url(#104)"></g><g clip-path="url(#105)"><g clip-path="url(#106)"><g clip-path="url(#107)"><g clip-path="url(#108)"><g clip-path="url(#109)"><g clip-path="url(#110)"><g clip-path="url(#111)"><g clip-path="url(#112)"><path id="220" transform="matrix(1 0 0 -1 0 842)" d="M133.3777 288.8627C 124.82 288.8627 117.8605 281.9032 117.8605 273.3455C 117.8605 264.7877 124.82 257.8282 133.3777 257.8282C 141.9355 257.8282 148.895 264.7877 148.895 273.3455C 148.895 281.9032 141.9355 288.8627 133.3777 288.8627zM133.3777 257.5955C 124.6958 257.5955 117.6277 264.6636 117.6277 273.3455C 117.6277 282.0273 124.6958 289.0955 133.3777 289.0955C 142.0596 289.0955 149.1277 282.0273 149.1277 273.3455C 149.1277 264.6636 142.0596 257.5955 133.3777 257.5955z" stroke="none" fill="#000000" fill-rule="nonzero" /></g></g></g></g></g></g></g></g><g clip-path="url(#113)"><g clip-path="url(#114)"><g clip-path="url(#115)"><g clip-path="url(#116)"><g clip-path="url(#117)"><g clip-path="url(#118)"><g clip-path="url(#119)"><path id="221" transform="matrix(1 0 0 -1 0 842)" d="M117.6344 273.1982C 117.6344 268.9837 119.3086 264.9419 122.2887 261.9618C 125.2688 258.9817 129.3106 257.3075 133.5251 257.3075C 137.7395 257.3075 141.7814 258.9817 144.7614 261.9618C 147.7415 264.9419 149.4157 268.9837 149.4157 273.1982C 149.4157 277.4126 147.7415 281.4544 144.7614 284.4345C 141.7814 287.4146 137.7395 289.0888 133.5251 289.0888C 129.3106 289.0888 125.2688 287.4146 122.2887 284.4345C 119.3086 281.4544 117.6344 277.4126 117.6344 273.1982z" stroke="#000000" stroke-width="1.5" fill="none" /></g></g></g></g></g></g></g><g clip-path="url(#120)"></g><g clip-path="url(#121)"><g clip-path="url(#122)"><g clip-path="url(#123)"><g clip-path="url(#124)"><g clip-path="url(#125)"><g clip-path="url(#126)"><g clip-path="url(#127)"><g clip-path="url(#128)"><path id="223" transform="matrix(1 0 0 -1 0 842)" d="M487.5497 187.1212C 478.9919 187.1212 472.0324 180.1617 472.0324 171.604C 472.0324 163.0462 478.9919 156.0867 487.5497 156.0867C 496.1074 156.0867 503.0669 163.0462 503.0669 171.604C 503.0669 180.1617 496.1074 187.1212 487.5497 187.1212zM487.5497 155.854C 478.8678 155.854 471.7997 162.9221 471.7997 171.604C 471.7997 180.2859 478.8678 187.354 487.5497 187.354C 496.2315 187.354 503.2997 180.2859 503.2997 171.604C 503.2997 162.9221 496.2315 155.854 487.5497 155.854z" stroke="none" fill="#000000" fill-rule="nonzero" /></g></g></g></g></g></g></g></g><g clip-path="url(#129)"><g clip-path="url(#130)"><g clip-path="url(#131)"><g clip-path="url(#132)"><g clip-path="url(#133)"><g clip-path="url(#134)"><g clip-path="url(#135)"><path id="224" transform="matrix(1 0 0 -1 0 842)" d="M471.8064 171.4567C 471.8064 167.2422 473.4806 163.2004 476.4606 160.2203C 479.4407 157.2402 483.4825 155.5661 487.697 155.5661C 491.9114 155.5661 495.9533 157.2402 498.9333 160.2203C 501.9134 163.2004 503.5876 167.2422 503.5876 171.4567C 503.5876 175.6711 501.9134 179.713 498.9333 182.6931C 495.9533 185.6731 491.9114 187.3473 487.697 187.3473C 483.4825 187.3473 479.4407 185.6731 476.4606 182.6931C 473.4806 179.713 471.8064 175.6711 471.8064 171.4567z" stroke="#000000" stroke-width="1.5" fill="none" /></g></g></g></g></g></g></g><g clip-path="url(#136)"></g><g clip-path="url(#137)"><g clip-path="url(#138)"><g clip-path="url(#139)"><g clip-path="url(#140)"><g clip-path="url(#141)"><g clip-path="url(#142)"><g clip-path="url(#143)"><g clip-path="url(#144)"><path id="226" transform="matrix(1 0 0 -1 0 842)" d="M107.2696 89.46491C 98.71183 89.46491 91.75235 82.50543 91.75235 73.94767C 91.75235 65.38991 98.71183 58.43043 107.2696 58.43043C 115.8273 58.43043 122.7868 65.38991 122.7868 73.94767C 122.7868 82.50542 115.8273 89.46491 107.2696 89.46491zM107.2696 58.19767C 98.58769 58.19767 91.51959 65.26577 91.51959 73.94767C 91.51959 82.62956 98.58769 89.69767 107.2696 89.69767C 115.9515 89.69767 123.0196 82.62956 123.0196 73.94767C 123.0196 65.26577 115.9515 58.19767 107.2696 58.19767z" stroke="none" fill="#000000" fill-rule="nonzero" /></g></g></g></g></g></g></g></g><g clip-path="url(#145)"><g clip-path="url(#146)"><g clip-path="url(#147)"><g clip-path="url(#148)"><g clip-path="url(#149)"><g clip-path="url(#150)"><g clip-path="url(#151)"><path id="227" transform="matrix(1 0 0 -1 0 842)" d="M91.52629 73.80036C 91.52629 69.58591 93.20048 65.54407 96.18055 62.56399C 99.16061 59.58392 103.2025 57.90974 107.4169 57.90974C 111.6314 57.90974 115.6732 59.58392 118.6533 62.56399C 121.6333 65.54407 123.3075 69.58591 123.3075 73.80036C 123.3075 78.01482 121.6333 82.05666 118.6533 85.03673C 115.6732 88.0168 111.6314 89.69099 107.4169 89.69099C 103.2025 89.69099 99.16061 88.0168 96.18055 85.03673C 93.20048 82.05666 91.52629 78.01482 91.52629 73.80036z" stroke="#000000" stroke-width="1.5" fill="none" /></g></g></g></g></g></g></g><g clip-path="url(#152)"></g></g></g></svg>