<svg xmlns="http://www.w3.org/2000/svg" xmlns:xlink="http://www.w3.org/1999/xlink" id="body_1" preserveAspectRatio="xMinYMin meet" viewBox="0 0 793 1123"><defs><clipPath id="1"><path id="" clip-rule="evenodd" transform="matrix(1 0 0 1 0 0)" d="M0 842L0 -0.25L0 -0.25L595.5 -0.25L595.5 -0.25L595.5 842L595.5 842L0 842z" /></clipPath><clipPath id="2"><path id="" clip-rule="evenodd" transform="matrix(1 0 0 1 0 0)" d="M0 -0.249939L595.5 -0.249939L595.5 -0.249939L595.5 842.0001L595.5 842.0001L0 842.0001z" /></clipPath><clipPath id="3"><path id="" clip-rule="evenodd" transform="matrix(1 0 0 1 0 0)" d="M0 -0.249939L595.5 -0.249939L595.5 -0.249939L595.5 842.0001L595.5 842.0001L0 842.0001z" /></clipPath><clipPath id="4"><path id="" clip-rule="evenodd" transform="matrix(1 0 0 1 0 0)" d="M0 -0.249939L595.5 -0.249939L595.5 -0.249939L595.5 842.0001L595.5 842.0001L0 842.0001z" /></clipPath><clipPath id="5"><path id="" clip-rule="evenodd" transform="matrix(1 0 0 1 0 0)" d="M75.59999 13.19006L519.12 13.19006L519.12 13.19006L519.12 793.4301L519.12 793.4301L75.59999 793.4301z" /></clipPath><clipPath id="6"><path id="" clip-rule="evenodd" transform="matrix(1 0 0 1 0 0)" d="M76.4271 13.31299L518.9271 13.31299L518.9271 13.31299L518.9271 793.3129L518.9271 793.3129L76.4271 793.3129z" /></clipPath><clipPath id="7"><path id="" clip-rule="evenodd" transform="matrix(1 0 0 1 0 0)" d="M465.9066 588.1743L571.6566 588.1743L571.6566 588.1743L571.6566 762.1743L571.6566 762.1743L465.9066 762.1743z" /></clipPath><clipPath id="8"><path id="" clip-rule="evenodd" transform="matrix(1 0 0 1 0 0)" d="M0 -0.249939L595.5 -0.249939L595.5 -0.249939L595.5 842.0001L595.5 842.0001L0 842.0001z" /></clipPath><clipPath id="9"><path id="" clip-rule="evenodd" transform="matrix(1 0 0 1 0 0)" d="M0 -0.249939L595.5 -0.249939L595.5 -0.249939L595.5 842.0001L595.5 842.0001L0 842.0001z" /></clipPath><clipPath id="10"><path id="" clip-rule="evenodd" transform="matrix(1 0 0 1 0 0)" d="M163.3158 403.2561L419.7577 403.2561L419.7577 403.2561L419.7577 492.5746L419.7577 492.5746L163.3158 492.5746z" /></clipPath><clipPath id="11"><path id="" clip-rule="evenodd" transform="matrix(1 0 0 1 0 0)" d="M375.094 403.2561C 399.7512 403.2561 419.7397 423.2507 419.7397 447.9153C 419.7397 472.5799 399.7512 492.5746 375.094 492.5746L375.094 492.5746L207.9615 492.5746C 183.3044 492.5746 163.3158 472.5799 163.3158 447.9153C 163.3158 423.2507 183.3044 403.2561 207.9615 403.2561L207.9615 403.2561L375.094 403.2561z" /></clipPath><clipPath id="12"><path id="" clip-rule="evenodd" transform="matrix(1 0 0 1 0 0)" d="M0 -0.249939L595.5 -0.249939L595.5 -0.249939L595.5 842.0001L595.5 842.0001L0 842.0001z" /></clipPath><clipPath id="13"><path id="" clip-rule="evenodd" transform="matrix(1 0 0 1 0 0)" d="M0 -0.249939L595.5 -0.249939L595.5 -0.249939L595.5 842.0001L595.5 842.0001L0 842.0001z" /></clipPath><clipPath id="14"><path id="" clip-rule="evenodd" transform="matrix(1 0 0 1 0 0)" d="M162.7171 502.6825L419.1589 502.6825L419.1589 502.6825L419.1589 592.001L419.1589 592.001L162.7171 592.001z" /></clipPath><clipPath id="15"><path id="" clip-rule="evenodd" transform="matrix(1 0 0 1 0 0)" d="M374.4953 502.6825C 399.1524 502.6825 419.141 522.6771 419.141 547.3417C 419.141 572.0063 399.1524 592.001 374.4953 592.001L374.4953 592.001L207.3627 592.001C 182.7056 592.001 162.7171 572.0063 162.7171 547.3417C 162.7171 522.6771 182.7056 502.6825 207.3627 502.6825L207.3627 502.6825L374.4953 502.6825z" /></clipPath><clipPath id="16"><path id="" clip-rule="evenodd" transform="matrix(1 0 0 1 0 0)" d="M0 -0.249939L595.5 -0.249939L595.5 -0.249939L595.5 842.0001L595.5 842.0001L0 842.0001z" /></clipPath><clipPath id="17"><path id="" clip-rule="evenodd" transform="matrix(1 0 0 1 0 0)" d="M0 -0.249939L595.5 -0.249939L595.5 -0.249939L595.5 842.0001L595.5 842.0001L0 842.0001z" /></clipPath><clipPath id="18"><path id="" clip-rule="evenodd" transform="matrix(1 0 0 1 0 0)" d="M162.7171 601.4072L419.1589 601.4072L419.1589 601.4072L419.1589 690.7258L419.1589 690.7258L162.7171 690.7258z" /></clipPath><clipPath id="19"><path id="" clip-rule="evenodd" transform="matrix(1 0 0 1 0 0)" d="M374.4953 601.4072C 399.1524 601.4072 419.141 621.4019 419.141 646.0665C 419.141 670.7311 399.1524 690.7258 374.4953 690.7258L374.4953 690.7258L207.3627 690.7258C 182.7056 690.7258 162.7171 670.7311 162.7171 646.0665C 162.7171 621.4019 182.7056 601.4072 207.3627 601.4072L207.3627 601.4072L374.4953 601.4072z" /></clipPath><clipPath id="20"><path id="" clip-rule="evenodd" transform="matrix(1 0 0 1 0 0)" d="M0 -0.249939L595.5 -0.249939L595.5 -0.249939L595.5 842.0001L595.5 842.0001L0 842.0001z" /></clipPath><clipPath id="21"><path id="" clip-rule="evenodd" transform="matrix(1 0 0 1 0 0)" d="M0 -0.249939L595.5 -0.249939L595.5 -0.249939L595.5 842.0001L595.5 842.0001L0 842.0001z" /></clipPath><clipPath id="22"><path id="" clip-rule="evenodd" transform="matrix(1 0 0 1 0 0)" d="M-3.621107 802.6971L599.0746 802.6971L599.0746 802.6971L599.0746 862.8727L599.0746 862.8727L-3.621107 862.8727z" /></clipPath><clipPath id="23"><path id="" clip-rule="evenodd" transform="matrix(1 0 0 1 0 0)" d="M554.251 802.6971C 578.9081 802.6971 598.8967 816.1678 598.8967 832.7849C 598.8967 849.4019 578.9081 862.8727 554.251 862.8727L554.251 862.8727L41.02456 862.8727C 16.36744 862.8727 -3.621107 849.4019 -3.621107 832.7849C -3.621107 816.1678 16.36744 802.6971 41.02456 802.6971L41.02456 802.6971L554.251 802.6971z" /></clipPath><clipPath id="24"><path id="" clip-rule="evenodd" transform="matrix(1 0 0 1 0 0)" d="M177.8355 88.89502L417.0855 88.89502L417.0855 88.89502L417.0855 224.645L417.0855 224.645L177.8355 224.645z" /></clipPath><clipPath id="25"><path id="" clip-rule="evenodd" transform="matrix(1 0 0 1 0 0)" d="M0 -0.249939L595.5 -0.249939L595.5 -0.249939L595.5 842.0001L595.5 842.0001L0 842.0001z" /></clipPath></defs><g transform="matrix(1.333333 0 0 1.333333 0 0)"><g clip-path="url(#1)"><g clip-path="url(#2)"><path id="1" transform="matrix(1 0 0 -1 0 842)" d="M0 842.2499L595.4999 842.2499L595.4999 -6.103516E-05L0 -6.103516E-05z" stroke="none" fill="#FFFFFF" fill-rule="nonzero" /></g><g clip-path="url(#3)"><path id="2" transform="matrix(1 0 0 -1 0 842)" d="M0 842.2499L595.4999 842.2499L595.4999 -6.103516E-05L0 -6.103516E-05z" stroke="none" fill="#EFFFEC" fill-rule="nonzero" /></g><g clip-path="url(#4)"><g><g clip-path="url(#5)"><g clip-path="url(#6)"><g transform="matrix(0 0.5128205 -0.5127462 0 518.9271 13.31299)"><g transform="matrix(1 0 0 1 0 0)"><image x="0" y="0" xlink:href="img_01.png" width="1521" height="863" /></g></g></g></g></g></g><g clip-path="url(#7)"><g transform="matrix(0.644817 0 0 0.6444444 465.9066 588.1743)"><g transform="matrix(1 0 0 1 0 0)"><image x="0" y="0" xlink:href="img_02.png" width="164" height="270" /></g></g></g><g clip-path="url(#8)"><g clip-path="url(#9)"><g clip-path="url(#10)"><g clip-path="url(#11)"><path id="5" transform="matrix(1 0 0 -1 0 842)" d="M163.3158 438.7439L419.7576 438.7439L419.7576 349.4254L163.3158 349.4254z" stroke="none" fill="#F2970F" fill-rule="nonzero" /></g></g></g></g><g clip-path="url(#12)"><g clip-path="url(#13)"><g clip-path="url(#14)"><g clip-path="url(#15)"><path id="6" transform="matrix(1 0 0 -1 0 842)" d="M162.717 339.3175L419.1588 339.3175L419.1588 249.999L162.717 249.999z" stroke="none" fill="#F2C70F" fill-rule="nonzero" /></g></g></g></g><g clip-path="url(#16)"><g clip-path="url(#17)"><g clip-path="url(#18)"><g clip-path="url(#19)"><path id="7" transform="matrix(1 0 0 -1 0 842)" d="M162.717 240.5927L419.1588 240.5927L419.1588 151.2742L162.717 151.2742z" stroke="none" fill="#FF5757" fill-rule="nonzero" /></g></g></g></g><g clip-path="url(#20)"><g clip-path="url(#21)"><g clip-path="url(#22)"><g clip-path="url(#23)"><path id="8" transform="matrix(1 0 0 -1 0 842)" d="M-3.621107 39.30288L598.8395 39.30288L598.8395 -20.87267L-3.621107 -20.87267z" stroke="none" fill="#1D70B7" fill-rule="nonzero" /></g></g></g></g><g clip-path="url(#24)"><g transform="matrix(0.1572978 0 0 0.1573001 177.8355 88.89508)"><g transform="matrix(1 0 0 1 0 0)"><image x="0" y="0" xlink:href="img_03.png" width="1521" height="863" /></g></g></g><g clip-path="url(#25)"><path id="55" transform="matrix(1 0 0 -1 0 842)" d="M205.6913 12.66511L377.3827 12.66511L377.3827 11.16511L205.6913 11.16511z" stroke="none" fill="#FFEFE1" fill-rule="nonzero" /></g></g></g></svg>