<svg xmlns="http://www.w3.org/2000/svg" xmlns:xlink="http://www.w3.org/1999/xlink" id="body_1" preserveAspectRatio="xMinYMin meet" viewBox="0 0 793 1123"><defs><clipPath id="1"><path id="" clip-rule="evenodd" transform="matrix(1 0 0 1 0 0)" d="M0 842L0 -0.25L0 -0.25L595.5 -0.25L595.5 -0.25L595.5 842L595.5 842L0 842z" /></clipPath><clipPath id="2"><path id="" clip-rule="evenodd" transform="matrix(1 0 0 1 0 0)" d="M0 -0.249939L595.5 -0.249939L595.5 -0.249939L595.5 842.0001L595.5 842.0001L0 842.0001z" /></clipPath><clipPath id="3"><path id="" clip-rule="evenodd" transform="matrix(1 0 0 1 0 0)" d="M0 -0.249939L595.5 -0.249939L595.5 -0.249939L595.5 842.0001L595.5 842.0001L0 842.0001z" /></clipPath><clipPath id="4"><path id="" clip-rule="evenodd" transform="matrix(1 0 0 1 0 0)" d="M0 -0.249939L595.5 -0.249939L595.5 -0.249939L595.5 842.0001L595.5 842.0001L0 842.0001z" /></clipPath><clipPath id="5"><path id="" clip-rule="evenodd" transform="matrix(1 0 0 1 0 0)" d="M80.88 18.95007L537.12 18.95007L537.12 18.95007L537.12 823.1901L537.12 823.1901L80.88 823.1901z" /></clipPath><clipPath id="6"><path id="" clip-rule="evenodd" transform="matrix(1 0 0 1 0 0)" d="M81.0154 19.05255L537.0154 19.05255L537.0154 19.05255L537.0154 822.3026L537.0154 822.3026L81.0154 822.3026z" /></clipPath><clipPath id="7"><path id="" clip-rule="evenodd" transform="matrix(1 0 0 1 0 0)" d="M466.4401 23.61578L551.1901 23.61578L551.1901 23.61578L551.1901 71.61578L551.1901 71.61578L466.4401 71.61578z" /></clipPath><clipPath id="8"><path id="" clip-rule="evenodd" transform="matrix(1 0 0 1 0 0)" d="M38.88756 10.32037L128.8876 10.32037L128.8876 10.32037L128.8876 89.82037L128.8876 89.82037L38.88756 89.82037z" /></clipPath><clipPath id="9"><path id="" clip-rule="evenodd" transform="matrix(1 0 0 1 0 0)" d="M0 -0.249939L595.5 -0.249939L595.5 -0.249939L595.5 842.0001L595.5 842.0001L0 842.0001z" /></clipPath><clipPath id="10"><path id="" clip-rule="evenodd" transform="matrix(1 0 0 1 0 0)" d="M0 -0.249939L595.5 -0.249939L595.5 -0.249939L595.5 842.0001L595.5 842.0001L0 842.0001z" /></clipPath><clipPath id="11"><path id="" clip-rule="evenodd" transform="matrix(1 0 0 1 0 0)" d="M27.26602 548.6786L354.6953 548.6786L354.6953 548.6786L354.6953 790.9384L354.6953 790.9384L27.26602 790.9384z" /></clipPath><clipPath id="12"><path id="" clip-rule="evenodd" transform="matrix(1 0 0 1 0 0)" d="M46.76602 548.6786L334.8077 548.6786C 345.5773 548.6786 354.3077 557.4091 354.3077 568.1786L354.3077 568.1786L354.3077 771.4384C 354.3077 782.2079 345.5773 790.9384 334.8077 790.9384L334.8077 790.9384L46.76602 790.9384C 35.99647 790.9384 27.26602 782.2079 27.26602 771.4384L27.26602 771.4384L27.26602 568.1786C 27.26602 557.4091 35.99647 548.6786 46.76602 548.6786z" /></clipPath><clipPath id="13"><path id="" clip-rule="evenodd" transform="matrix(1 0 0 1 0 0)" d="M0 -0.249939L595.5 -0.249939L595.5 -0.249939L595.5 842.0001L595.5 842.0001L0 842.0001z" /></clipPath><clipPath id="14"><path id="" clip-rule="evenodd" transform="matrix(1 0 0 1 0 0)" d="M0 -0.249939L595.5 -0.249939L595.5 -0.249939L595.5 842.0001L595.5 842.0001L0 842.0001z" /></clipPath><clipPath id="15"><path id="" clip-rule="evenodd" transform="matrix(1 0 0 1 0 0)" d="M0 -0.249939L595.5 -0.249939L595.5 -0.249939L595.5 842.0001L595.5 842.0001L0 842.0001z" /></clipPath><clipPath id="16"><path id="" clip-rule="evenodd" transform="matrix(1 0 0 1 0 0)" d="M207.1799 339.0233L578.8341 339.0233L578.8341 339.0233L578.8341 506.2351L578.8341 506.2351L207.1799 506.2351z" /></clipPath><clipPath id="17"><path id="" clip-rule="evenodd" transform="matrix(1 0 0 1 0 0)" d="M226.6799 339.0233L558.8264 339.0233C 569.5959 339.0233 578.3264 347.7538 578.3264 358.5233L578.3264 358.5233L578.3264 486.7351C 578.3264 497.5046 569.5959 506.2351 558.8264 506.2351L558.8264 506.2351L226.6799 506.2351C 215.9103 506.2351 207.1799 497.5046 207.1799 486.7351L207.1799 486.7351L207.1799 358.5233C 207.1799 347.7538 215.9103 339.0233 226.6799 339.0233z" /></clipPath><clipPath id="18"><path id="" clip-rule="evenodd" transform="matrix(1 0 0 1 0 0)" d="M0 -0.249939L595.5 -0.249939L595.5 -0.249939L595.5 842.0001L595.5 842.0001L0 842.0001z" /></clipPath><clipPath id="19"><path id="" clip-rule="evenodd" transform="matrix(1 0 0 1 0 0)" d="M0 -0.249939L595.5 -0.249939L595.5 -0.249939L595.5 842.0001L595.5 842.0001L0 842.0001z" /></clipPath><clipPath id="20"><path id="" clip-rule="evenodd" transform="matrix(1 0 0 1 0 0)" d="M0 -0.249939L595.5 -0.249939L595.5 -0.249939L595.5 842.0001L595.5 842.0001L0 842.0001z" /></clipPath><clipPath id="21"><path id="" clip-rule="evenodd" transform="matrix(1 0 0 1 0 0)" d="M27.26602 357.5042L191.516 357.5042L191.516 357.5042L191.516 480.5042L191.516 480.5042L27.26602 480.5042z" /></clipPath><clipPath id="22"><path id="" clip-rule="evenodd" transform="matrix(1 0 0 1 0 0)" d="M27.26602 385.2542L27.26602 452.4764C 27.26602 467.8023 39.69012 480.2264 55.01602 480.2264L55.01602 480.2264L163.0369 480.2264C 178.3628 480.2264 190.7869 467.8023 190.7869 452.4764L190.7869 452.4764L190.7869 385.2542C 190.7869 369.9283 178.3628 357.5042 163.0369 357.5042L163.0369 357.5042L55.01602 357.5042C 39.69012 357.5042 27.26602 369.9283 27.26602 385.2542z" /></clipPath><clipPath id="23"><path id="" clip-rule="evenodd" transform="matrix(1 0 0 1 0 0)" d="M27.26602 357.5042L190.766 357.5042L190.766 357.5042L190.766 480.5042L190.766 480.5042L27.26602 480.5042z" /></clipPath><clipPath id="24"><path id="" clip-rule="evenodd" transform="matrix(1 0 0 1 0 0)" d="M0 -0.249939L595.5 -0.249939L595.5 -0.249939L595.5 842.0001L595.5 842.0001L0 842.0001z" /></clipPath><clipPath id="25"><path id="" clip-rule="evenodd" transform="matrix(1 0 0 1 0 0)" d="M0 -0.249939L595.5 -0.249939L595.5 -0.249939L595.5 842.0001L595.5 842.0001L0 842.0001z" /></clipPath><clipPath id="26"><path id="" clip-rule="evenodd" transform="matrix(1 0 0 1 0 0)" d="M387.0937 596.5834L555.8437 596.5834L555.8437 596.5834L555.8437 726.3334L555.8437 726.3334L387.0937 726.3334z" /></clipPath><clipPath id="27"><path id="" clip-rule="evenodd" transform="matrix(1 0 0 1 0 0)" d="M387.0937 624.3334L387.0937 698.0649C 387.0937 713.3908 399.5178 725.8149 414.8437 725.8149L414.8437 725.8149L527.5083 725.8149C 542.8342 725.8149 555.2583 713.3908 555.2583 698.0649L555.2583 698.0649L555.2583 624.3334C 555.2583 609.0074 542.8342 596.5834 527.5083 596.5834L527.5083 596.5834L414.8437 596.5834C 399.5178 596.5834 387.0937 609.0074 387.0937 624.3334z" /></clipPath><clipPath id="28"><path id="" clip-rule="evenodd" transform="matrix(1 0 0 1 0 0)" d="M387.0937 596.5834L555.0937 596.5834L555.0937 596.5834L555.0937 725.5834L555.0937 725.5834L387.0937 725.5834z" /></clipPath><clipPath id="29"><path id="" clip-rule="evenodd" transform="matrix(1 0 0 1 0 0)" d="M0 -0.249939L595.5 -0.249939L595.5 -0.249939L595.5 842.0001L595.5 842.0001L0 842.0001z" /></clipPath><clipPath id="30"><path id="" clip-rule="evenodd" transform="matrix(1 0 0 1 0 0)" d="M0 -0.249939L595.5 -0.249939L595.5 -0.249939L595.5 842.0001L595.5 842.0001L0 842.0001z" /></clipPath><clipPath id="31"><path id="" clip-rule="evenodd" transform="matrix(1 0 0 1 0 0)" d="M27.26602 114.3364L393.1634 114.3364L393.1634 114.3364L393.1634 291.4058L393.1634 291.4058L27.26602 291.4058z" /></clipPath><clipPath id="32"><path id="" clip-rule="evenodd" transform="matrix(1 0 0 1 0 0)" d="M46.76602 114.3364L373.2531 114.3364C 384.0227 114.3364 392.7531 123.0668 392.7531 133.8364L392.7531 133.8364L392.7531 271.9058C 392.7531 282.6754 384.0227 291.4058 373.2531 291.4058L373.2531 291.4058L46.76602 291.4058C 35.99647 291.4058 27.26602 282.6754 27.26602 271.9058L27.26602 271.9058L27.26602 133.8364C 27.26602 123.0668 35.99647 114.3364 46.76602 114.3364z" /></clipPath><clipPath id="33"><path id="" clip-rule="evenodd" transform="matrix(1 0 0 1 0 0)" d="M0 -0.249939L595.5 -0.249939L595.5 -0.249939L595.5 842.0001L595.5 842.0001L0 842.0001z" /></clipPath><clipPath id="34"><path id="" clip-rule="evenodd" transform="matrix(1 0 0 1 0 0)" d="M0 -0.249939L595.5 -0.249939L595.5 -0.249939L595.5 842.0001L595.5 842.0001L0 842.0001z" /></clipPath><clipPath id="35"><path id="" clip-rule="evenodd" transform="matrix(1 0 0 1 0 0)" d="M0 -0.249939L595.5 -0.249939L595.5 -0.249939L595.5 842.0001L595.5 842.0001L0 842.0001z" /></clipPath><clipPath id="36"><path id="" clip-rule="evenodd" transform="matrix(1 0 0 1 0 0)" d="M457.8328 224.8297L578.5828 224.8297L578.5828 224.8297L578.5828 318.5797L578.5828 318.5797L457.8328 318.5797z" /></clipPath><clipPath id="37"><path id="" clip-rule="evenodd" transform="matrix(1 0 0 1 0 0)" d="M457.8328 252.5797L457.8328 290.356C 457.8328 305.6819 470.2569 318.106 485.5828 318.106L485.5828 318.106L550.5764 318.106C 565.9023 318.106 578.3264 305.6819 578.3264 290.356L578.3264 290.356L578.3264 252.5797C 578.3264 237.2538 565.9023 224.8297 550.5764 224.8297L550.5764 224.8297L485.5828 224.8297C 470.2569 224.8297 457.8328 237.2538 457.8328 252.5797z" /></clipPath><clipPath id="38"><path id="" clip-rule="evenodd" transform="matrix(1 0 0 1 0 0)" d="M457.8328 224.8297L578.5828 224.8297L578.5828 224.8297L578.5828 317.8297L578.5828 317.8297L457.8328 317.8297z" /></clipPath><clipPath id="39"><path id="" clip-rule="evenodd" transform="matrix(1 0 0 1 0 0)" d="M0 -0.249939L595.5 -0.249939L595.5 -0.249939L595.5 842.0001L595.5 842.0001L0 842.0001z" /></clipPath><clipPath id="40"><path id="" clip-rule="evenodd" transform="matrix(1 0 0 1 0 0)" d="M0 -0.249939L595.5 -0.249939L595.5 -0.249939L595.5 842.0001L595.5 842.0001L0 842.0001z" /></clipPath><clipPath id="41"><path id="" clip-rule="evenodd" transform="matrix(1 0 0 1 0 0)" d="M404.3466 116.7335L511.5966 116.7335L511.5966 116.7335L511.5966 210.4835L511.5966 210.4835L404.3466 210.4835z" /></clipPath><clipPath id="42"><path id="" clip-rule="evenodd" transform="matrix(1 0 0 1 0 0)" d="M404.3466 144.4835L404.3466 182.423C 404.3466 197.749 416.7707 210.173 432.0966 210.173L432.0966 210.173L483.569 210.173C 498.895 210.173 511.3191 197.749 511.3191 182.423L511.3191 182.423L511.3191 144.4835C 511.3191 129.1576 498.895 116.7335 483.569 116.7335L483.569 116.7335L432.0966 116.7335C 416.7707 116.7335 404.3466 129.1576 404.3466 144.4835z" /></clipPath><clipPath id="43"><path id="" clip-rule="evenodd" transform="matrix(1 0 0 1 0 0)" d="M404.3466 116.7335L511.5966 116.7335L511.5966 116.7335L511.5966 210.4835L511.5966 210.4835L404.3466 210.4835z" /></clipPath></defs><g transform="matrix(1.333333 0 0 1.333333 0 0)"><g clip-path="url(#1)"><g clip-path="url(#2)"><path id="1" transform="matrix(1 0 0 -1 0 842)" d="M0 842.2499L595.4999 842.2499L595.4999 -6.103516E-05L0 -6.103516E-05z" stroke="none" fill="#FFFFFF" fill-rule="nonzero" /></g><g clip-path="url(#3)"><path id="2" transform="matrix(1 0 0 -1 0 842)" d="M0 842.2499L595.4999 842.2499L595.4999 -6.103516E-05L0 -6.103516E-05z" stroke="none" fill="#FFFFFF" fill-rule="nonzero" /></g><g clip-path="url(#4)"><g><g clip-path="url(#5)"><g clip-path="url(#6)"><g transform="matrix(0 0.5281065 -0.5283893 0 537.0154 19.05261)"><g transform="matrix(1 0 0 1 0 0)"><image x="0" y="0" xlink:href="img_01.png" width="1521" height="863" /></g></g></g></g></g></g><g clip-path="url(#7)"><g transform="matrix(0.05571992 0 0 0.05561992 466.4401 23.61584)"><g transform="matrix(1 0 0 1 0 0)"><image x="0" y="0" xlink:href="img_02.png" width="1521" height="863" /></g></g></g><g clip-path="url(#8)"><g transform="matrix(0.4225352 0 0 0.4228723 38.88755 10.32037)"><g transform="matrix(1 0 0 1 0 0)"><image x="0" y="0" xlink:href="img_03.png" width="213" height="188" /></g></g></g><g clip-path="url(#9)"><g clip-path="url(#10)"><g clip-path="url(#11)"><g clip-path="url(#12)"><path id="6" transform="matrix(1 0 0 -1 0 842)" d="M27.26602 293.3214L354.6952 293.3214L354.6952 51.06158L27.26602 51.06158z" stroke="none" fill="#D6E0E5" fill-rule="nonzero" /></g></g></g></g><g clip-path="url(#13)"></g><g clip-path="url(#14)"><g clip-path="url(#15)"><g clip-path="url(#16)"><g clip-path="url(#17)"><path id="327" transform="matrix(1 0 0 -1 0 842)" d="M207.1798 502.9767L578.1809 502.9767L578.1809 335.7649L207.1798 335.7649z" stroke="none" fill="#D6E0E5" fill-rule="nonzero" /></g></g></g></g><g clip-path="url(#18)"></g><g clip-path="url(#19)"><g clip-path="url(#20)"><g clip-path="url(#21)"><g clip-path="url(#22)"><g clip-path="url(#23)"><g transform="matrix(0.5431893 0 0 0.5442477 27.26602 357.5042)"><g transform="matrix(1 0 0 1 0 0)"><image x="0" y="0" xlink:href="img_04.png" width="301" height="226" /></g></g></g></g></g></g></g><g clip-path="url(#24)"><g clip-path="url(#25)"><g clip-path="url(#26)"><g clip-path="url(#27)"><g clip-path="url(#28)"><g transform="matrix(0.5436893 0 0 0.5443037 387.0937 596.5834)"><g transform="matrix(1 0 0 1 0 0)"><image x="0" y="0" xlink:href="img_05.png" width="309" height="237" /></g></g></g></g></g></g></g><g clip-path="url(#29)"><g clip-path="url(#30)"><g clip-path="url(#31)"><g clip-path="url(#32)"><path id="634" transform="matrix(1 0 0 -1 0 842)" d="M27.26602 727.6636L392.4717 727.6636L392.4717 550.5941L27.26602 550.5941z" stroke="none" fill="#D6E0E5" fill-rule="nonzero" /></g></g></g></g><g clip-path="url(#33)"></g><g clip-path="url(#34)"><g clip-path="url(#35)"><g clip-path="url(#36)"><g clip-path="url(#37)"><g clip-path="url(#38)"><g transform="matrix(0.5669014 0 0 0.5636362 457.8328 224.8298)"><g transform="matrix(1 0 0 1 0 0)"><image x="0" y="0" xlink:href="img_06.png" width="213" height="165" /></g></g></g></g></g></g></g><g clip-path="url(#39)"><g clip-path="url(#40)"><g clip-path="url(#41)"><g clip-path="url(#42)"><g clip-path="url(#43)"><g transform="matrix(0.5615763 0 0 0.564759 404.3466 116.7336)"><g transform="matrix(1 0 0 1 0 0)"><image x="0" y="0" xlink:href="img_07.png" width="203" height="166" /></g></g></g></g></g></g></g></g></g></svg>