<svg xmlns="http://www.w3.org/2000/svg" xmlns:xlink="http://www.w3.org/1999/xlink" id="body_1" preserveAspectRatio="xMinYMin meet" viewBox="0 0 793 1123"><defs><clipPath id="1"><path id="" clip-rule="evenodd" transform="matrix(1 0 0 1 0 0)" d="M0 842L0 -0.25L0 -0.25L595.5 -0.25L595.5 -0.25L595.5 842L595.5 842L0 842z" /></clipPath><clipPath id="2"><path id="" clip-rule="evenodd" transform="matrix(1 0 0 1 0 0)" d="M0 -0.249939L595.5 -0.249939L595.5 -0.249939L595.5 842.0001L595.5 842.0001L0 842.0001z" /></clipPath><clipPath id="3"><path id="" clip-rule="evenodd" transform="matrix(1 0 0 1 0 0)" d="M0 -0.249939L595.5 -0.249939L595.5 -0.249939L595.5 842.0001L595.5 842.0001L0 842.0001z" /></clipPath><clipPath id="4"><path id="" clip-rule="evenodd" transform="matrix(1 0 0 1 0 0)" d="M0 -0.249939L595.68 -0.249939L595.68 -0.249939L595.68 842.15L595.68 842.15L0 842.15z" /></clipPath><clipPath id="5"><path id="" clip-rule="evenodd" transform="matrix(1 0 0 1 0 0)" d="M0 -0.249939L595.5 -0.249939L595.5 -0.249939L595.5 842.0001L595.5 842.0001L0 842.0001z" /></clipPath><clipPath id="6"><path id="" clip-rule="evenodd" transform="matrix(1 0 0 1 0 0)" d="M75.59999 34.31012L519.12 34.31012L519.12 34.31012L519.12 814.5501L519.12 814.5501L75.59999 814.5501z" /></clipPath><clipPath id="7"><path id="" clip-rule="evenodd" transform="matrix(1 0 0 1 0 0)" d="M76.4271 34.47314L518.9271 34.47314L518.9271 34.47314L518.9271 814.4731L518.9271 814.4731L76.4271 814.4731z" /></clipPath><clipPath id="8"><path id="" clip-rule="evenodd" transform="matrix(1 0 0 1 0 0)" d="M101.8499 285.1766L275.8481 285.1766L275.8481 285.1766L275.8481 327.3274L275.8481 327.3274L101.8499 327.3274z" /></clipPath><clipPath id="9"><path id="" clip-rule="evenodd" transform="matrix(1 0 0 1 0 0)" d="M0 -0.249939L595.5 -0.249939L595.5 -0.249939L595.5 842.0001L595.5 842.0001L0 842.0001z" /></clipPath><clipPath id="10"><path id="" clip-rule="evenodd" transform="matrix(1 0 0 1 0 0)" d="M99.53011 426.411L288.2347 426.411L288.2347 426.411L288.2347 468.411L288.2347 468.411L99.53011 468.411z" /></clipPath><clipPath id="11"><path id="" clip-rule="evenodd" transform="matrix(1 0 0 1 0 0)" d="M257.0265 446.7357L294.5265 446.7357L294.5265 446.7357L294.5265 502.2356L294.5265 502.2356L257.0265 502.2356z" /></clipPath><clipPath id="12"><path id="" clip-rule="evenodd" transform="matrix(1 0 0 1 0 0)" d="M0 -0.249939L595.5 -0.249939L595.5 -0.249939L595.5 842.0001L595.5 842.0001L0 842.0001z" /></clipPath><clipPath id="13"><path id="" clip-rule="evenodd" transform="matrix(1 0 0 1 0 0)" d="M99.53011 150.1374L288.2347 150.1374L288.2347 150.1374L288.2347 192.1374L288.2347 192.1374L99.53011 192.1374z" /></clipPath><clipPath id="14"><path id="" clip-rule="evenodd" transform="matrix(1 0 0 1 0 0)" d="M0 -0.249939L595.5 -0.249939L595.5 -0.249939L595.5 842.0001L595.5 842.0001L0 842.0001z" /></clipPath><clipPath id="15"><path id="" clip-rule="evenodd" transform="matrix(1 0 0 1 0 0)" d="M242.3261 170.6555L276.0761 170.6555L276.0761 170.6555L276.0761 220.1555L276.0761 220.1555L242.3261 220.1555z" /></clipPath><clipPath id="16"><path id="" clip-rule="evenodd" transform="matrix(1 0 0 1 0 0)" d="M0 -0.249939L595.5 -0.249939L595.5 -0.249939L595.5 842.0001L595.5 842.0001L0 842.0001z" /></clipPath><clipPath id="17"><path id="" clip-rule="evenodd" transform="matrix(1 0 0 1 0 0)" d="M0 -0.249939L595.5 -0.249939L595.5 -0.249939L595.5 842.0001L595.5 842.0001L0 842.0001z" /></clipPath><clipPath id="18"><path id="" clip-rule="evenodd" transform="matrix(1 0 0 1 0 0)" d="M372.1444 133.9222L460.3991 133.9222L460.3991 133.9222L460.3991 222.1769L460.3991 222.1769L372.1444 222.1769z" /></clipPath><clipPath id="19"><path id="" clip-rule="evenodd" transform="matrix(1 0 0 1 0 0)" d="M416.2718 133.9222C 391.9009 133.9222 372.1444 153.6787 372.1444 178.0496C 372.1444 202.4205 391.9009 222.1769 416.2718 222.1769C 440.6426 222.1769 460.3991 202.4205 460.3991 178.0496C 460.3991 153.6787 440.6426 133.9222 416.2718 133.9222z" /></clipPath><clipPath id="20"><path id="" clip-rule="evenodd" transform="matrix(1 0 0 1 0 0)" d="M372.1444 133.9222L460.3991 133.9222L460.3991 133.9222L460.3991 222.1769L460.3991 222.1769L372.1444 222.1769z" /></clipPath><clipPath id="21"><path id="" clip-rule="evenodd" transform="matrix(1 0 0 1 0 0)" d="M309.666 285.1766L483.6642 285.1766L483.6642 285.1766L483.6642 327.3274L483.6642 327.3274L309.666 327.3274z" /></clipPath><clipPath id="22"><path id="" clip-rule="evenodd" transform="matrix(1 0 0 1 0 0)" d="M0 -0.249939L595.5 -0.249939L595.5 -0.249939L595.5 842.0001L595.5 842.0001L0 842.0001z" /></clipPath><clipPath id="23"><path id="" clip-rule="evenodd" transform="matrix(1 0 0 1 0 0)" d="M0 -0.249939L595.5 -0.249939L595.5 -0.249939L595.5 842.0001L595.5 842.0001L0 842.0001z" /></clipPath><clipPath id="24"><path id="" clip-rule="evenodd" transform="matrix(1 0 0 1 0 0)" d="M0 -0.249939L595.5 -0.249939L595.5 -0.249939L595.5 842.0001L595.5 842.0001L0 842.0001z" /></clipPath><clipPath id="25"><path id="" clip-rule="evenodd" transform="matrix(1 0 0 1 0 0)" d="M457.226 300.5155L494.6934 298.9513L494.6934 298.9513L497.0085 354.403L497.0085 354.403L459.5411 355.9672L459.5411 355.9672L457.226 300.5155z" /></clipPath><clipPath id="26"><path id="" clip-rule="evenodd" transform="matrix(1 0 0 1 0 0)" d="M457.226 300.5155L494.6934 298.9513L494.6934 298.9513L497.0085 354.403L497.0085 354.403L459.5411 355.9672L459.5411 355.9672L457.226 300.5155z" /></clipPath><clipPath id="27"><path id="" clip-rule="evenodd" transform="matrix(1 0 0 1 0 0)" d="M457.226 300.5155L494.6934 298.9513L494.6934 298.9513L497.0085 354.403L497.0085 354.403L459.5411 355.9672L459.5411 355.9672L457.226 300.5155z" /></clipPath><clipPath id="28"><path id="" clip-rule="evenodd" transform="matrix(1 0 0 1 0 0)" d="M0 -0.249939L595.5 -0.249939L595.5 -0.249939L595.5 842.0001L595.5 842.0001L0 842.0001z" /></clipPath><clipPath id="29"><path id="" clip-rule="evenodd" transform="matrix(1 0 0 1 0 0)" d="M99.51851 573.3931L350.7672 573.3931L350.7672 573.3931L350.7672 629.6431L350.7672 629.6431L99.51851 629.6431z" /></clipPath><clipPath id="30"><path id="" clip-rule="evenodd" transform="matrix(1 0 0 1 0 0)" d="M316.3759 606.5709L347.1259 606.5709L347.1259 606.5709L347.1259 652.3209L347.1259 652.3209L316.3759 652.3209z" /></clipPath><clipPath id="31"><path id="" clip-rule="evenodd" transform="matrix(1 0 0 1 0 0)" d="M0 -0.249939L595.5 -0.249939L595.5 -0.249939L595.5 842.0001L595.5 842.0001L0 842.0001z" /></clipPath><clipPath id="32"><path id="" clip-rule="evenodd" transform="matrix(1 0 0 1 0 0)" d="M0 -0.249939L595.5 -0.249939L595.5 -0.249939L595.5 842.0001L595.5 842.0001L0 842.0001z" /></clipPath><clipPath id="33"><path id="" clip-rule="evenodd" transform="matrix(1 0 0 1 0 0)" d="M99.51715 529.8891L508.2823 529.8891L508.2823 529.8891L508.2823 559.3662L508.2823 559.3662L99.51715 559.3662z" /></clipPath><clipPath id="34"><path id="" clip-rule="evenodd" transform="matrix(1 0 0 1 0 0)" d="M114.2557 529.8891L493.4396 529.8891C 497.3485 529.8891 501.0974 531.4419 503.8614 534.2059C 506.6254 536.9699 508.1782 540.7188 508.1782 544.6276C 508.1782 548.5366 506.6254 552.2853 503.8614 555.0494C 501.0974 557.8134 497.3485 559.3662 493.4396 559.3662L493.4396 559.3662L114.2557 559.3662C 110.3468 559.3662 106.598 557.8134 103.834 555.0494C 101.07 552.2853 99.51715 548.5366 99.51715 544.6276C 99.51715 540.7188 101.07 536.9699 103.834 534.2059C 106.598 531.4419 110.3468 529.8891 114.2557 529.8891z" /></clipPath><clipPath id="35"><path id="" clip-rule="evenodd" transform="matrix(1 0 0 1 0 0)" d="M0 -0.249939L595.5 -0.249939L595.5 -0.249939L595.5 842.0001L595.5 842.0001L0 842.0001z" /></clipPath><clipPath id="36"><path id="" clip-rule="evenodd" transform="matrix(1 0 0 1 0 0)" d="M0 -0.249939L595.5 -0.249939L595.5 -0.249939L595.5 842.0001L595.5 842.0001L0 842.0001z" /></clipPath><clipPath id="37"><path id="" clip-rule="evenodd" transform="matrix(1 0 0 1 0 0)" d="M362.3786 423.2695L470.2255 423.2695L470.2255 423.2695L470.2255 497.3865L470.2255 497.3865L362.3786 497.3865z" /></clipPath><clipPath id="38"><path id="" clip-rule="evenodd" transform="matrix(1 0 0 1 0 0)" d="M470.1649 497.3865L362.3786 487.9635L362.3786 487.9635L362.3786 423.2695L362.3786 423.2695L470.1649 432.6924L470.1649 432.6924L470.1649 497.3865z" /></clipPath><clipPath id="39"><path id="" clip-rule="evenodd" transform="matrix(1 0 0 1 0 0)" d="M362.3786 423.2695L470.2255 423.2695L470.2255 423.2695L470.2255 497.3865L470.2255 497.3865L362.3786 497.3865z" /></clipPath><clipPath id="40"><path id="" clip-rule="evenodd" transform="matrix(1 0 0 1 0 0)" d="M0 -0.249939L595.5 -0.249939L595.5 -0.249939L595.5 842.0001L595.5 842.0001L0 842.0001z" /></clipPath><clipPath id="41"><path id="" clip-rule="evenodd" transform="matrix(1 0 0 1 0 0)" d="M0 -0.249939L595.5 -0.249939L595.5 -0.249939L595.5 842.0001L595.5 842.0001L0 842.0001z" /></clipPath><clipPath id="42"><path id="" clip-rule="evenodd" transform="matrix(1 0 0 1 0 0)" d="M375.2645 569.8662L460.3991 569.8662L460.3991 569.8662L460.3991 655.0009L460.3991 655.0009L375.2645 655.0009z" /></clipPath><clipPath id="43"><path id="" clip-rule="evenodd" transform="matrix(1 0 0 1 0 0)" d="M417.8318 569.8662C 394.3225 569.8662 375.2645 588.9243 375.2645 612.4335C 375.2645 635.9429 394.3225 655.0009 417.8318 655.0009C 441.3411 655.0009 460.3991 635.9429 460.3991 612.4335C 460.3991 588.9243 441.3411 569.8662 417.8318 569.8662z" /></clipPath><clipPath id="44"><path id="" clip-rule="evenodd" transform="matrix(1 0 0 1 0 0)" d="M375.2645 569.8662L460.3991 569.8662L460.3991 569.8662L460.3991 655.0009L460.3991 655.0009L375.2645 655.0009z" /></clipPath><clipPath id="45"><path id="" clip-rule="evenodd" transform="matrix(1 0 0 1 0 0)" d="M0 -0.249939L595.5 -0.249939L595.5 -0.249939L595.5 842.0001L595.5 842.0001L0 842.0001z" /></clipPath><clipPath id="46"><path id="" clip-rule="evenodd" transform="matrix(1 0 0 1 0 0)" d="M0 -0.249939L595.5 -0.249939L595.5 -0.249939L595.5 842.0001L595.5 842.0001L0 842.0001z" /></clipPath><clipPath id="47"><path id="" clip-rule="evenodd" transform="matrix(1 0 0 1 0 0)" d="M104.236 238.817L512.9099 238.817L512.9099 238.817L512.9099 273.0403L512.9099 273.0403L104.236 273.0403z" /></clipPath><clipPath id="48"><path id="" clip-rule="evenodd" transform="matrix(1 0 0 1 0 0)" d="M121.3476 238.817L495.7854 238.817C 500.3237 238.817 504.6761 240.6199 507.8852 243.8289C 511.0942 247.038 512.897 251.3904 512.897 255.9287C 512.897 260.4669 511.0942 264.8193 507.8852 268.0284C 504.6761 271.2374 500.3237 273.0403 495.7854 273.0403L495.7854 273.0403L121.3476 273.0403C 116.8093 273.0403 112.4569 271.2374 109.2479 268.0284C 106.0388 264.8193 104.236 260.4669 104.236 255.9287C 104.236 251.3904 106.0388 247.038 109.2479 243.8289C 112.4569 240.6199 116.8093 238.817 121.3476 238.817z" /></clipPath><clipPath id="49"><path id="" clip-rule="evenodd" transform="matrix(1 0 0 1 0 0)" d="M0 -0.249939L595.5 -0.249939L595.5 -0.249939L595.5 842.0001L595.5 842.0001L0 842.0001z" /></clipPath><clipPath id="50"><path id="" clip-rule="evenodd" transform="matrix(1 0 0 1 0 0)" d="M0 -0.249939L595.5 -0.249939L595.5 -0.249939L595.5 842.0001L595.5 842.0001L0 842.0001z" /></clipPath><clipPath id="51"><path id="" clip-rule="evenodd" transform="matrix(1 0 0 1 0 0)" d="M0 -0.249939L595.5 -0.249939L595.5 -0.249939L595.5 842.0001L595.5 842.0001L0 842.0001z" /></clipPath><clipPath id="52"><path id="" clip-rule="evenodd" transform="matrix(1 0 0 1 0 0)" d="M105.5964 376.4818L514.3322 376.4818L514.3322 376.4818L514.3322 408.5789L514.3322 408.5789L105.5964 408.5789z" /></clipPath><clipPath id="53"><path id="" clip-rule="evenodd" transform="matrix(1 0 0 1 0 0)" d="M121.6449 376.4818L498.2089 376.4818C 502.4652 376.4818 506.5472 378.1727 509.5569 381.1823C 512.5666 384.192 514.2574 388.274 514.2574 392.5304C 514.2574 396.7867 512.5666 400.8687 509.5569 403.8784C 506.5472 406.8881 502.4652 408.5789 498.2089 408.5789L498.2089 408.5789L121.6449 408.5789C 117.3886 408.5789 113.3066 406.8881 110.2969 403.8784C 107.2872 400.8687 105.5964 396.7867 105.5964 392.5304C 105.5964 388.274 107.2872 384.192 110.2969 381.1823C 113.3066 378.1727 117.3886 376.4818 121.6449 376.4818z" /></clipPath><clipPath id="54"><path id="" clip-rule="evenodd" transform="matrix(1 0 0 1 0 0)" d="M0 -0.249939L595.5 -0.249939L595.5 -0.249939L595.5 842.0001L595.5 842.0001L0 842.0001z" /></clipPath><clipPath id="55"><path id="" clip-rule="evenodd" transform="matrix(1 0 0 1 0 0)" d="M0 -0.249939L595.5 -0.249939L595.5 -0.249939L595.5 842.0001L595.5 842.0001L0 842.0001z" /></clipPath><clipPath id="56"><path id="" clip-rule="evenodd" transform="matrix(1 0 0 1 0 0)" d="M0 -0.249939L595.5 -0.249939L595.5 -0.249939L595.5 842.0001L595.5 842.0001L0 842.0001z" /></clipPath><clipPath id="57"><path id="" clip-rule="evenodd" transform="matrix(1 0 0 1 0 0)" d="M112.1269 24.67896L463.6762 24.67896L463.6762 24.67896L463.6762 74.2912L463.6762 74.2912L112.1269 74.2912z" /></clipPath><clipPath id="58"><path id="" clip-rule="evenodd" transform="matrix(1 0 0 1 0 0)" d="M136.933 24.67896L438.7651 24.67896C 445.3441 24.67896 451.6536 27.29242 456.3057 31.94452C 460.9577 36.59656 463.5712 42.90607 463.5712 49.48511C 463.5712 56.06409 460.9577 62.3736 456.3057 67.02563C 451.6536 71.67773 445.3441 74.2912 438.7651 74.2912L438.7651 74.2912L136.933 74.2912C 130.354 74.2912 124.0445 71.67773 119.3924 67.02563C 114.7404 62.3736 112.1269 56.06409 112.1269 49.48511C 112.1269 42.90607 114.7404 36.59656 119.3924 31.94452C 124.0445 27.29242 130.354 24.67896 136.933 24.67896z" /></clipPath><clipPath id="59"><path id="" clip-rule="evenodd" transform="matrix(1 0 0 1 0 0)" d="M0 -0.249939L595.5 -0.249939L595.5 -0.249939L595.5 842.0001L595.5 842.0001L0 842.0001z" /></clipPath><clipPath id="60"><path id="" clip-rule="evenodd" transform="matrix(1 0 0 1 0 0)" d="M0 -0.249939L595.5 -0.249939L595.5 -0.249939L595.5 842.0001L595.5 842.0001L0 842.0001z" /></clipPath><clipPath id="61"><path id="" clip-rule="evenodd" transform="matrix(1 0 0 1 0 0)" d="M112.1269 24.67896L463.8721 24.67896L463.8721 24.67896L463.8721 74.15717L463.8721 74.15717L112.1269 74.15717z" /></clipPath><clipPath id="62"><path id="" clip-rule="evenodd" transform="matrix(1 0 0 1 0 0)" d="M112.1493 24.67896L466.8726 24.67896L466.8726 24.67896L466.8726 74.87561L466.8726 74.87561L112.1493 74.87561z" /></clipPath><clipPath id="63"><path id="" clip-rule="evenodd" transform="matrix(1 0 0 1 0 0)" d="M136.9517 24.67896L438.7381 24.67896C 445.3161 24.67896 451.6246 27.29205 456.276 31.94342C 460.9274 36.59473 463.5404 42.90332 463.5404 49.48132C 463.5404 56.05933 460.9274 62.36792 456.276 67.01923C 451.6246 71.67059 445.3161 74.28369 438.7381 74.28369L438.7381 74.28369L136.9517 74.28369C 130.3737 74.28369 124.0651 71.67059 119.4138 67.01923C 114.7624 62.36792 112.1493 56.05933 112.1493 49.48132C 112.1493 42.90332 114.7624 36.59473 119.4138 31.94342C 124.0651 27.29205 130.3737 24.67896 136.9517 24.67896z" /></clipPath><clipPath id="64"><path id="" clip-rule="evenodd" transform="matrix(1 0 0 1 0 0)" d="M0 -0.249939L595.5 -0.249939L595.5 -0.249939L595.5 842.0001L595.5 842.0001L0 842.0001z" /></clipPath><clipPath id="65"><path id="" clip-rule="evenodd" transform="matrix(1 0 0 1 0 0)" d="M0 -0.249939L595.5 -0.249939L595.5 -0.249939L595.5 842.0001L595.5 842.0001L0 842.0001z" /></clipPath><clipPath id="66"><path id="" clip-rule="evenodd" transform="matrix(1 0 0 1 0 0)" d="M0 -0.249939L595.5 -0.249939L595.5 -0.249939L595.5 842.0001L595.5 842.0001L0 842.0001z" /></clipPath><clipPath id="67"><path id="" clip-rule="evenodd" transform="matrix(1 0 0 1 0 0)" d="M95.00936 97.5412L503.688 97.5412L503.688 97.5412L503.688 126.5786L503.688 126.5786L95.00936 126.5786z" /></clipPath><clipPath id="68"><path id="" clip-rule="evenodd" transform="matrix(1 0 0 1 0 0)" d="M109.5281 97.5412L489.1517 97.5412C 497.1702 97.5412 503.6704 104.0414 503.6704 112.0599C 503.6704 120.0784 497.1702 126.5786 489.1517 126.5786L489.1517 126.5786L109.5281 126.5786C 101.5096 126.5786 95.00936 120.0784 95.00936 112.0599C 95.00936 104.0414 101.5096 97.5412 109.5281 97.5412z" /></clipPath><clipPath id="69"><path id="" clip-rule="evenodd" transform="matrix(1 0 0 1 0 0)" d="M0 -0.249939L595.5 -0.249939L595.5 -0.249939L595.5 842.0001L595.5 842.0001L0 842.0001z" /></clipPath><clipPath id="70"><path id="" clip-rule="evenodd" transform="matrix(1 0 0 1 0 0)" d="M243.6286 306.3075L277.3786 306.3075L277.3786 306.3075L277.3786 355.8075L277.3786 355.8075L243.6286 355.8075z" /></clipPath><clipPath id="71"><path id="" clip-rule="evenodd" transform="matrix(1 0 0 1 0 0)" d="M484.4416 25.84943L587.1917 25.84943L587.1917 25.84943L587.1917 84.34943L587.1917 84.34943L484.4416 84.34943z" /></clipPath><clipPath id="72"><path id="" clip-rule="evenodd" transform="matrix(1 0 0 1 0 0)" d="M95.01072 729.452L346.2593 729.452L346.2593 729.452L346.2593 785.702L346.2593 785.702L95.01072 785.702z" /></clipPath><clipPath id="73"><path id="" clip-rule="evenodd" transform="matrix(1 0 0 1 0 0)" d="M311.8681 762.6298L342.6181 762.6298L342.6181 762.6298L342.6181 808.3798L342.6181 808.3798L311.8681 808.3798z" /></clipPath><clipPath id="74"><path id="" clip-rule="evenodd" transform="matrix(1 0 0 1 0 0)" d="M0 -0.249939L595.5 -0.249939L595.5 -0.249939L595.5 842.0001L595.5 842.0001L0 842.0001z" /></clipPath><clipPath id="75"><path id="" clip-rule="evenodd" transform="matrix(1 0 0 1 0 0)" d="M0 -0.249939L595.5 -0.249939L595.5 -0.249939L595.5 842.0001L595.5 842.0001L0 842.0001z" /></clipPath><clipPath id="76"><path id="" clip-rule="evenodd" transform="matrix(1 0 0 1 0 0)" d="M95.00936 685.9479L503.7159 685.9479L503.7159 685.9479L503.7159 715.1739L503.7159 715.1739L95.00936 715.1739z" /></clipPath><clipPath id="77"><path id="" clip-rule="evenodd" transform="matrix(1 0 0 1 0 0)" d="M109.6223 685.9479L489.0574 685.9479C 492.933 685.9479 496.6499 687.4875 499.3904 690.228C 502.1309 692.9685 503.6704 696.6853 503.6704 700.561C 503.6704 704.4365 502.1309 708.1534 499.3904 710.8939C 496.6499 713.6343 492.933 715.1739 489.0574 715.1739L489.0574 715.1739L109.6223 715.1739C 105.7467 715.1739 102.0299 713.6343 99.2894 710.8939C 96.54894 708.1534 95.00936 704.4365 95.00936 700.561C 95.00936 696.6853 96.54894 692.9685 99.2894 690.228C 102.0299 687.4875 105.7467 685.9479 109.6223 685.9479z" /></clipPath><clipPath id="78"><path id="" clip-rule="evenodd" transform="matrix(1 0 0 1 0 0)" d="M0 -0.249939L595.5 -0.249939L595.5 -0.249939L595.5 842.0001L595.5 842.0001L0 842.0001z" /></clipPath><clipPath id="79"><path id="" clip-rule="evenodd" transform="matrix(1 0 0 1 0 0)" d="M0 -0.249939L595.5 -0.249939L595.5 -0.249939L595.5 842.0001L595.5 842.0001L0 842.0001z" /></clipPath><clipPath id="80"><path id="" clip-rule="evenodd" transform="matrix(1 0 0 1 0 0)" d="M371.9061 725.6739L457.0407 725.6739L457.0407 725.6739L457.0407 810.8085L457.0407 810.8085L371.9061 810.8085z" /></clipPath><clipPath id="81"><path id="" clip-rule="evenodd" transform="matrix(1 0 0 1 0 0)" d="M414.4734 725.6739C 390.9641 725.6739 371.9061 744.7319 371.9061 768.2411C 371.9061 791.7505 390.9641 810.8085 414.4734 810.8085C 437.9827 810.8085 457.0407 791.7505 457.0407 768.2411C 457.0407 744.7319 437.9827 725.6739 414.4734 725.6739z" /></clipPath><clipPath id="82"><path id="" clip-rule="evenodd" transform="matrix(1 0 0 1 0 0)" d="M371.9061 725.6739L457.0407 725.6739L457.0407 725.6739L457.0407 810.8085L457.0407 810.8085L371.9061 810.8085z" /></clipPath><clipPath id="83"><path id="" clip-rule="evenodd" transform="matrix(1 0 0 1 0 0)" d="M0 -0.249939L595.5 -0.249939L595.5 -0.249939L595.5 842.0001L595.5 842.0001L0 842.0001z" /></clipPath></defs><g transform="matrix(1.333333 0 0 1.333333 0 0)"><g clip-path="url(#1)"><g clip-path="url(#2)"><path id="1" transform="matrix(1 0 0 -1 0 842)" d="M0 842.2499L595.4999 842.2499L595.4999 -6.103516E-05L0 -6.103516E-05z" stroke="none" fill="#FFFFFF" fill-rule="nonzero" /></g><g clip-path="url(#3)"><path id="2" transform="matrix(1 0 0 -1 0 842)" d="M0 842.2499L595.4999 842.2499L595.4999 -6.103516E-05L0 -6.103516E-05z" stroke="none" fill="#FFFFFF" fill-rule="nonzero" /><g><g clip-path="url(#4)"><g transform="matrix(0.9295312 0 0 0.9558333 -446.1619 -9.249878)"><g transform="matrix(1 0 0 1 0 0)"><image x="0" y="0" xlink:href="img_01.png" width="1600" height="900" /></g></g></g></g></g><g clip-path="url(#5)"><g><g clip-path="url(#6)"><g clip-path="url(#7)"><g transform="matrix(0 0.5128205 -0.5127462 0 518.9271 34.47314)"><g transform="matrix(1 0 0 1 0 0)"><image x="0" y="0" xlink:href="img_02.png" width="1521" height="863" /></g></g></g></g></g><path id="5" transform="matrix(1 0 0 -1 0 842)" d="M83.44195 479.4392L516.6188 479.4392" stroke="#000000" stroke-width="2.25" fill="none" /><path id="6" transform="matrix(1 0 0 -1 0 842)" d="M82.87945 482.8142L82.87945 476.0642" stroke="#000000" stroke-width="2.25" stroke-linecap="round" fill="none" /><path id="7" transform="matrix(1 0 0 -1 0 842)" d="M517.1813 482.8142L517.1813 476.0642" stroke="#000000" stroke-width="2.25" stroke-linecap="round" fill="none" /><path id="8" transform="matrix(1 0 0 -1 0 842)" d="M84.11181 328.1737L517.2887 328.1737" stroke="#000000" stroke-width="2.25" fill="none" /><path id="9" transform="matrix(1 0 0 -1 0 842)" d="M83.54931 331.5487L83.54931 324.7987" stroke="#000000" stroke-width="2.25" stroke-linecap="round" fill="none" /><path id="10" transform="matrix(1 0 0 -1 0 842)" d="M517.8512 331.5487L517.8512 324.7987" stroke="#000000" stroke-width="2.25" stroke-linecap="round" fill="none" /></g><g clip-path="url(#8)"><path id="11" transform="matrix(1 0 0 -1 0 842)" d="M273.8522 516.9318C 275.7944 518.8737 276.1219 522.3232 276.1219 529.321L276.1219 529.321L276.1219 539.6866C 276.1219 546.6844 275.7944 550.134 273.8522 552.076C 273.4196 552.5085 272.9123 552.8611 272.3075 553.1477L272.3075 553.1477L272.3019 553.1503L272.3019 553.1503L267.0661 555.6255L267.0661 555.6255L267.0605 555.6282C 264.9502 556.6257 261.6559 556.8233 256.2219 556.8233L256.2219 556.8233L116.1173 556.8233C 109.12 556.8233 105.6706 556.4956 103.7287 554.5538C 103.4315 554.2566 103.1721 553.9241 102.9459 553.549C 101.6943 551.4731 101.4592 548.0919 101.4592 542.1658L101.4592 542.1658L101.4592 531.8014C 101.4592 524.8043 101.7869 521.3551 103.7287 519.4134C 104.16 518.9824 104.6655 518.6307 105.2677 518.3445C 105.2696 518.3437 105.2715 518.3426 105.2734 518.3419L105.2734 518.3419L110.4862 515.8655L110.4862 515.8655L110.4919 515.8629L110.4919 515.8629L110.4975 515.8599C 112.6078 514.8602 115.9034 514.662 121.3427 514.662L121.3427 514.662L261.4622 514.662C 268.4603 514.662 271.91 514.9896 273.8522 516.9318z" stroke="none" fill="#000000" fill-rule="nonzero" /><path id="12" transform="matrix(1 0 0 -1 0 842)" d="M256.2223 556.551C 269.5638 556.551 270.6079 555.5069 270.6079 542.1658L270.6079 542.1658L270.6079 531.8014C 270.6079 518.4603 269.5638 517.4163 256.2223 517.4163L256.2223 517.4163L116.1174 517.4163C 102.7757 517.4163 101.7316 518.4603 101.7316 531.8014L101.7316 531.8014L101.7316 542.1658C 101.7316 555.5069 102.7757 556.551 116.1174 556.551L116.1174 556.551L256.2223 556.551z" stroke="none" fill="#CFCFCF" fill-rule="nonzero" /><path id="13" transform="matrix(1 0 0 -1 0 842)" d="M256.2223 556.551C 269.5638 556.551 270.6079 555.5069 270.6079 542.1658L270.6079 542.1658L270.6079 531.8014C 270.6079 518.4603 269.5638 517.4163 256.2223 517.4163L256.2223 517.4163L116.1174 517.4163C 102.7757 517.4163 101.7316 518.4603 101.7316 531.8014L101.7316 531.8014L101.7316 542.1658C 101.7316 555.5069 102.7757 556.551 116.1174 556.551L116.1174 556.551L256.2223 556.551z" stroke="#000000" stroke-width="0.3761041" fill="none" /></g><g clip-path="url(#9)"></g><g clip-path="url(#10)"><path id="25" transform="matrix(1 0 0 -1 0 842)" d="M285.7824 374.1748C 287.8807 376.2727 288.2347 379.9997 288.2347 387.56L288.2347 387.56L288.2347 398.7589C 288.2347 406.3193 287.8807 410.0462 285.7824 412.1443C 285.3151 412.6117 284.767 412.9925 284.1136 413.3022L284.1136 413.3022L284.1075 413.3051L284.1075 413.3051L278.4508 415.9792L278.4508 415.9792L278.4447 415.9821C 276.1647 417.0598 272.6056 417.2733 266.7348 417.2733L266.7348 417.2733L115.3666 417.2733C 107.8067 417.2733 104.0801 416.9193 101.9821 414.8214C 101.6609 414.5002 101.3807 414.141 101.1363 413.7357C 99.78403 411.493 99.5301 407.84 99.5301 401.4375L99.5301 401.4375L99.5301 390.2398C 99.5301 382.6802 99.88412 378.9537 101.9821 376.8558C 102.448 376.3901 102.9941 376.0102 103.6447 375.701C 103.6468 375.7002 103.6488 375.6989 103.6509 375.6982L103.6509 375.6982L109.2828 373.0228L109.2828 373.0228L109.2889 373.02L109.2889 373.02L109.295 373.0167C 111.5749 371.9366 115.1355 371.7225 121.012 371.7225L121.012 371.7225L272.3963 371.7225C 279.9571 371.7225 283.6841 372.0764 285.7824 374.1748z" stroke="none" fill="#000000" fill-rule="nonzero" /><path id="26" transform="matrix(1 0 0 -1 0 842)" d="M266.7352 416.9791C 281.1493 416.9791 282.2773 415.8511 282.2773 401.4375L282.2773 401.4375L282.2773 390.2398C 282.2773 375.8261 281.1493 374.6981 266.7352 374.6981L266.7352 374.6981L115.3667 374.6981C 100.9524 374.6981 99.82438 375.8261 99.82438 390.2398L99.82438 390.2398L99.82438 401.4375C 99.82438 415.8511 100.9524 416.9791 115.3667 416.9791L115.3667 416.9791L266.7352 416.9791z" stroke="none" fill="#CFCFCF" fill-rule="nonzero" /><path id="27" transform="matrix(1 0 0 -1 0 842)" d="M266.7352 416.9791C 281.1493 416.9791 282.2773 415.8511 282.2773 401.4375L282.2773 401.4375L282.2773 390.2398C 282.2773 375.8261 281.1493 374.6981 266.7352 374.6981L266.7352 374.6981L115.3667 374.6981C 100.9524 374.6981 99.82438 375.8261 99.82438 390.2398L99.82438 390.2398L99.82438 401.4375C 99.82438 415.8511 100.9524 416.9791 115.3667 416.9791L115.3667 416.9791L266.7352 416.9791z" stroke="#000000" stroke-width="0.4063406" fill="none" /></g><g clip-path="url(#11)"><path id="28" transform="matrix(1 0 0 -1 0 842)" d="M278.9875 382.7078C 278.8712 383.2443 279.2109 383.7739 279.7469 383.8904L279.7469 383.8904L284.4151 384.9086C 284.951 385.025 285.4801 384.6848 285.5964 384.1483C 285.7127 383.6118 285.3729 383.0822 284.837 382.9657L284.837 382.9657L280.1688 381.9475C 279.6328 381.8288 279.1038 382.1713 278.9875 382.7078zM275.6374 387.4952C 275.1721 387.7875 275.0308 388.3993 275.3227 388.8651L275.3227 388.8651L277.8609 392.9174C 278.1528 393.3831 278.764 393.5247 279.2292 393.2325C 279.6944 392.9402 279.8358 392.3284 279.5439 391.8626L279.5439 391.8626L277.008 387.8103C 276.7161 387.3445 276.1026 387.203 275.6374 387.4952zM263.7536 379.096C 263.8699 378.5595 263.5301 378.0299 262.9942 377.9135L262.9942 377.9135L258.326 376.8952C 257.79 376.7788 257.261 377.119 257.1447 377.6555C 257.0284 378.192 257.3682 378.7216 257.9041 378.8381L257.9041 378.8381L262.5723 379.8563C 263.1082 379.9727 263.6373 379.6325 263.7536 379.096zM264.6909 385.1392C 264.399 384.6734 263.7878 384.5319 263.3226 384.8241L263.3226 384.8241L259.2724 387.3651C 258.8072 387.6573 258.6658 388.2692 258.9577 388.7349C 259.2496 389.2007 259.8607 389.3422 260.326 389.05L260.326 389.05L264.3739 386.5113C 264.8414 386.219 264.9805 385.6049 264.6909 385.1392zM269.6852 388.534C 269.1493 388.4176 268.6202 388.7578 268.5039 389.2943L268.5039 389.2943L267.4891 393.9676C 267.3728 394.5041 267.7126 395.0338 268.2485 395.1502C 268.7844 395.2666 269.3135 394.9265 269.4298 394.3899L269.4298 394.3899L270.4469 389.7166C 270.5609 389.1801 270.2212 388.6505 269.6852 388.534zM293.0195 346.8257C 292.4243 344.4399 290.5178 342.3669 288.2053 341.5405C 286.8758 341.0656 285.4368 340.972 284.0365 340.9926C 282.5519 341.0131 281.065 341.1318 279.5827 341.2186C 278.8301 341.262 278.0775 341.3076 277.3272 341.3579C 276.618 341.4058 275.9019 341.4195 275.1949 341.488C 274.6317 341.5428 274.1003 341.6889 273.6556 342.0542C 273.1767 342.4469 272.7617 342.9308 272.3238 343.3692C 270.1938 345.5015 268.0638 347.6339 265.9338 349.7662C 264.0387 351.6634 262.1436 353.5605 260.2484 355.4577C 259.9976 355.7089 259.7513 355.9486 259.5688 356.2591C 259.3271 356.6723 259.2062 357.1426 259.2108 357.622C 259.2222 358.6448 259.8722 359.6699 260.8642 359.9941C 261.4594 360.1904 262.1048 360.1744 262.6863 359.9393C 262.9873 359.8183 263.2701 359.6265 263.5506 359.4644C 263.8357 359.3 264.1208 359.1357 264.4058 358.969C 265.5438 358.3115 266.6795 357.654 267.8175 356.9965C 267.9087 356.944 267.9999 356.8915 268.0912 356.839C 268.4651 356.6221 268.9486 356.8983 268.9486 357.3321C 268.9486 357.8869 268.9486 358.4417 268.9486 358.9964C 268.9486 360.389 268.9486 361.784 268.9486 363.1766C 268.9486 365.003 268.9486 366.8317 268.9486 368.6581C 268.9486 370.5142 268.9486 372.3703 268.9486 374.2241C 268.9486 375.6966 268.9486 377.1692 268.9486 378.6417C 268.9486 379.3426 268.9464 380.0435 268.9486 380.7444C 268.9532 381.5822 269.3203 382.3767 269.9954 382.8835C 271.0558 383.6758 272.5724 383.5342 273.48 382.5753C 274.0182 382.0069 274.187 381.2923 274.187 380.5343C 274.187 380.0047 274.187 379.475 274.187 378.9454C 274.187 377.1532 274.187 375.361 274.187 373.5711C 274.187 372.2173 274.187 370.8635 274.187 369.5097C 274.187 369.4389 274.187 369.3658 274.187 369.2951C 274.187 368.5599 275.3181 368.5599 275.3272 369.2951C 275.3477 370.9822 276.9601 372.2744 278.6135 371.8338C 279.5211 371.5918 280.2395 370.8726 280.4789 369.9663C 280.6112 369.4686 280.5656 368.9229 280.5656 368.4138C 280.5656 367.8956 280.5656 367.3796 280.5656 366.8614C 280.5656 366.1263 281.6967 366.1263 281.7058 366.8614C 281.7263 368.5508 283.3387 369.8339 284.9943 369.3978C 285.8997 369.1581 286.6204 368.4344 286.8598 367.5303C 286.9898 367.044 286.9442 366.5166 286.9442 366.019C 286.9442 365.4961 286.9442 364.9733 286.9442 364.4505C 286.9442 363.7154 288.0753 363.7154 288.0844 364.4505C 288.1004 365.7495 289.0742 366.907 290.3855 367.0577C 291.9431 367.2358 293.3 366.0075 293.3228 364.4505C 293.3228 361.4598 293.3228 358.4713 293.3228 355.4806C 293.3228 353.9487 293.3228 352.4145 293.3228 350.8826C 293.3251 349.5242 293.3502 348.1476 293.0195 346.8257zM294.4653 352.6451C 294.4653 355.8002 294.4653 358.953 294.4653 362.1082C 294.4653 362.8867 294.4653 363.6674 294.4653 364.446C 294.4402 366.1263 293.3182 367.6467 291.6763 368.0828C 290.3809 368.4252 289.0058 368.0371 288.0685 367.1171C 288.0457 367.4435 287.9932 367.77 287.8815 368.0851C 287.4641 369.2494 286.5018 370.174 285.2999 370.4937C 284.2486 370.7722 283.0696 370.5804 282.1825 369.9435C 282.0069 369.8179 281.8449 369.6786 281.6944 369.528C 281.6716 369.8635 281.6192 370.1969 281.5052 370.5211C 281.0924 371.674 280.1528 372.5849 278.9669 372.9182C 277.9042 373.215 276.7047 373.0232 275.8061 372.3794C 275.6374 372.2584 275.48 372.1237 275.3341 371.9799C 275.3341 372.1169 275.3341 372.2516 275.3341 372.3885C 275.3341 374.2629 275.3341 376.1373 275.3341 378.0093C 275.3341 378.7034 275.3341 379.3951 275.3341 380.0891C 275.3341 380.5435 275.3455 380.9886 275.2725 381.4384C 275.008 383.0913 273.5804 384.3378 271.9475 384.5182C 270.529 384.6757 269.1128 383.9497 268.3671 382.7397C 267.7878 381.7991 267.8152 380.7923 267.8152 379.7467C 267.8152 378.4751 267.8152 377.2011 267.8152 375.9295C 267.8152 374.11 267.8152 372.2904 267.8152 370.4731C 267.8152 368.5485 267.8152 366.624 267.8152 364.6971C 267.8152 363.1081 267.8152 361.5214 267.8152 359.9324C 267.8152 359.3959 267.8061 358.8549 267.8061 358.3184C 267.0809 358.7384 266.3534 359.1585 265.6282 359.5763C 265.2359 359.8023 264.8437 360.0306 264.4492 360.2566C 263.8061 360.6288 263.1721 361.0534 262.4309 361.1904C 260.9805 361.4575 259.5597 360.8936 258.7205 359.6767C 258.0569 358.7179 257.8927 357.4074 258.2963 356.3116C 258.6088 355.4646 259.204 354.887 259.8243 354.266C 260.8961 353.193 261.9702 352.1177 263.0421 351.0447C 265.2861 348.7982 267.5279 346.554 269.7719 344.3075C 270.3306 343.7482 270.8871 343.1911 271.4458 342.6318C 271.911 342.166 272.3534 341.6615 272.8574 341.2368C 273.3797 340.7985 273.9612 340.5223 274.6339 340.4104C 275.3774 340.2871 276.1345 340.2894 276.8848 340.2369C 278.463 340.1273 280.0433 340.0383 281.6237 339.9515C 283.1448 339.8671 284.6682 339.762 286.187 339.9355C 287.6466 340.1022 289.0445 340.4949 290.2874 341.2939C 291.4049 342.0131 292.3536 342.9742 293.0696 344.0929C 293.8542 345.3189 294.2487 346.6796 294.3901 348.1201C 294.5292 349.6246 294.4653 351.1451 294.4653 352.6451z" stroke="none" fill="#000000" fill-rule="nonzero" /></g><g clip-path="url(#12)"><path id="29" transform="matrix(1 0 0 -1 0 842)" d="M78.03258 618.5319L511.2095 618.5319" stroke="#000000" stroke-width="2.25" fill="none" /><path id="30" transform="matrix(1 0 0 -1 0 842)" d="M77.47008 621.9069L77.47008 615.1569" stroke="#000000" stroke-width="2.25" stroke-linecap="round" fill="none" /><path id="31" transform="matrix(1 0 0 -1 0 842)" d="M511.772 621.9069L511.772 615.1569" stroke="#000000" stroke-width="2.25" stroke-linecap="round" fill="none" /></g><g clip-path="url(#13)"><path id="32" transform="matrix(1 0 0 -1 0 842)" d="M285.7824 650.4484C 287.8807 652.5463 288.2347 656.2733 288.2347 663.8336L288.2347 663.8336L288.2347 675.0325C 288.2347 682.5929 287.8807 686.3198 285.7824 688.4179C 285.3151 688.8853 284.767 689.2661 284.1136 689.5757L284.1136 689.5757L284.1075 689.5786L284.1075 689.5786L278.4508 692.2528L278.4508 692.2528L278.4447 692.2557C 276.1647 693.3334 272.6056 693.5469 266.7348 693.5469L266.7348 693.5469L115.3666 693.5469C 107.8067 693.5469 104.0801 693.1929 101.9821 691.095C 101.6609 690.7739 101.3807 690.4146 101.1363 690.0093C 99.78403 687.7665 99.5301 684.1135 99.5301 677.7111L99.5301 677.7111L99.5301 666.5134C 99.5301 658.9537 99.88412 655.2272 101.9821 653.1295C 102.448 652.6637 102.9941 652.2838 103.6447 651.9745C 103.6468 651.9738 103.6488 651.9725 103.6509 651.9717L103.6509 651.9717L109.2828 649.2964L109.2828 649.2964L109.2889 649.2935L109.2889 649.2935L109.295 649.2903C 111.5749 648.2102 115.1355 647.9961 121.012 647.9961L121.012 647.9961L272.3963 647.9961C 279.9571 647.9961 283.6841 648.35 285.7824 650.4484z" stroke="none" fill="#000000" fill-rule="nonzero" /><path id="33" transform="matrix(1 0 0 -1 0 842)" d="M266.7352 693.2527C 281.1493 693.2527 282.2773 692.1247 282.2773 677.7111L282.2773 677.7111L282.2773 666.5134C 282.2773 652.0997 281.1493 650.9717 266.7352 650.9717L266.7352 650.9717L115.3667 650.9717C 100.9524 650.9717 99.82438 652.0997 99.82438 666.5134L99.82438 666.5134L99.82438 677.7111C 99.82438 692.1247 100.9524 693.2527 115.3667 693.2527L115.3667 693.2527L266.7352 693.2527z" stroke="none" fill="#CFCFCF" fill-rule="nonzero" /><path id="34" transform="matrix(1 0 0 -1 0 842)" d="M266.7352 693.2527C 281.1493 693.2527 282.2773 692.1247 282.2773 677.7111L282.2773 677.7111L282.2773 666.5134C 282.2773 652.0997 281.1493 650.9717 266.7352 650.9717L266.7352 650.9717L115.3667 650.9717C 100.9524 650.9717 99.82438 652.0997 99.82438 666.5134L99.82438 666.5134L99.82438 677.7111C 99.82438 692.1247 100.9524 693.2527 115.3667 693.2527L115.3667 693.2527L266.7352 693.2527z" stroke="#000000" stroke-width="0.4063406" fill="none" /></g><g clip-path="url(#14)"></g><g clip-path="url(#15)"><path id="38" transform="matrix(1 0 0 -1 0 842)" d="M262.0911 660.1453C 261.9864 660.6238 262.2923 661.0963 262.7746 661.2001L262.7746 661.2001L266.9762 662.1083C 267.4586 662.2121 267.9348 661.9087 268.0395 661.4302C 268.1441 660.9517 267.8383 660.4793 267.356 660.3754L267.356 660.3754L263.1543 659.4673C 262.672 659.3614 262.1958 659.6669 262.0911 660.1453zM259.0759 664.4153C 258.6572 664.6759 258.5299 665.2216 258.7926 665.637L258.7926 665.637L261.0771 669.2512C 261.3399 669.6666 261.89 669.7928 262.3087 669.5322C 262.7274 669.2716 262.8547 668.7259 262.5919 668.3105L262.5919 668.3105L260.3095 664.6963C 260.0468 664.2809 259.4946 664.1546 259.0759 664.4153zM248.3799 656.9241C 248.4846 656.4456 248.1788 655.9732 247.6964 655.8693L247.6964 655.8693L243.4948 654.9612C 243.0125 654.8574 242.5363 655.1608 242.4316 655.6392C 242.3269 656.1177 242.6327 656.5901 243.1151 656.694L243.1151 656.694L247.3167 657.6022C 247.7991 657.706 248.2753 657.4026 248.3799 656.9241zM249.2235 662.3139C 248.9608 661.8985 248.4107 661.7723 247.992 662.0329L247.992 662.0329L244.3466 664.2992C 243.9279 664.5598 243.8006 665.1055 244.0634 665.5209C 244.3261 665.9363 244.8762 666.0626 245.2949 665.8019L245.2949 665.8019L248.9382 663.5377C 249.359 663.277 249.4842 662.7293 249.2235 662.3139zM253.7187 665.3417C 253.2363 665.2379 252.7601 665.5413 252.6554 666.0198L252.6554 666.0198L251.742 670.1879C 251.6374 670.6664 251.9432 671.1388 252.4256 671.2426C 252.9079 671.3465 253.3841 671.0431 253.4888 670.5646L253.4888 670.5646L254.4042 666.3965C 254.5069 665.918 254.201 665.4456 253.7187 665.3417zM274.7206 628.1424C 274.1848 626.0146 272.4689 624.1657 270.3876 623.4286C 269.1909 623.0051 267.8958 622.9216 266.6355 622.9399C 265.2993 622.9583 263.961 623.0641 262.6268 623.1415C 261.9495 623.1802 261.2721 623.2209 260.5968 623.2657C 259.9585 623.3085 259.314 623.3207 258.6777 623.3818C 258.1707 623.4307 257.6924 623.561 257.2922 623.8868C 256.8611 624.237 256.4876 624.6686 256.0935 625.0596C 254.1764 626.9614 252.2593 628.8632 250.3422 630.765C 248.6365 632.4572 246.9308 634.1492 245.2251 635.8413C 244.9993 636.0652 244.7777 636.2791 244.6135 636.556C 244.3959 636.9246 244.2871 637.344 244.2912 637.7716C 244.3015 638.6838 244.8865 639.5981 245.7793 639.8872C 246.315 640.0623 246.8959 640.0481 247.4193 639.8383C 247.6903 639.7304 247.9448 639.5594 248.1973 639.4148C 248.4538 639.2682 248.7104 639.1216 248.967 638.973C 249.9912 638.3865 251.0134 637.8001 252.0376 637.2137C 252.1197 637.1669 252.2018 637.12 252.2839 637.0732C 252.6205 636.8798 253.0557 637.1261 253.0557 637.513C 253.0557 638.0078 253.0557 638.5026 253.0557 638.9974C 253.0557 640.2395 253.0557 641.4836 253.0557 642.7256C 253.0557 644.3546 253.0557 645.9856 253.0557 647.6146C 253.0557 649.27 253.0557 650.9254 253.0557 652.5789C 253.0557 653.8922 253.0557 655.2055 253.0557 656.5189C 253.0557 657.144 253.0536 657.7691 253.0557 658.3942C 253.0598 659.1415 253.3903 659.8501 253.9978 660.3021C 254.9523 661.0087 256.3172 660.8824 257.1342 660.0272C 257.6186 659.5203 257.7704 658.8829 257.7704 658.2069C 257.7704 657.7345 257.7704 657.2621 257.7704 656.7897C 257.7704 655.1913 257.7704 653.5929 257.7704 651.9965C 257.7704 650.789 257.7704 649.5815 257.7704 648.3741C 257.7704 648.311 257.7704 648.2458 257.7704 648.1827C 257.7704 647.527 258.7885 647.527 258.7967 648.1827C 258.8152 649.6874 260.2664 650.8399 261.7545 650.447C 262.5714 650.2311 263.218 649.5897 263.4335 648.7813C 263.5525 648.3375 263.5115 647.8508 263.5115 647.3967C 263.5115 646.9345 263.5115 646.4743 263.5115 646.0121C 263.5115 645.3564 264.5295 645.3564 264.5378 646.0121C 264.5562 647.5189 266.0074 648.6632 267.4976 648.2743C 268.3124 648.0605 268.9611 647.415 269.1766 646.6087C 269.2936 646.175 269.2525 645.7047 269.2525 645.2607C 269.2525 644.7944 269.2525 644.3282 269.2525 643.8619C 269.2525 643.2062 270.2706 643.2062 270.2788 643.8619C 270.2932 645.0204 271.1696 646.0528 272.3499 646.1872C 273.7517 646.346 274.973 645.2505 274.9936 643.8619C 274.9936 641.1945 274.9936 638.5291 274.9936 635.8616C 274.9936 634.4954 274.9936 633.127 274.9936 631.7607C 274.9956 630.5492 275.0182 629.3214 274.7206 628.1424zM276.0219 633.3327C 276.0219 636.1467 276.0219 638.9587 276.0219 641.7727C 276.0219 642.4671 276.0219 643.1635 276.0219 643.8578C 275.9993 645.3564 274.9894 646.7125 273.5116 647.1014C 272.3457 647.4069 271.108 647.0607 270.2644 646.2402C 270.2439 646.5313 270.1967 646.8225 270.0961 647.1035C 269.7205 648.142 268.8543 648.9666 267.7726 649.2517C 266.8264 649.5001 265.7652 649.329 264.9668 648.761C 264.8087 648.649 264.663 648.5248 264.5275 648.3904C 264.507 648.6897 264.4598 648.987 264.3571 649.2761C 263.9856 650.3044 263.14 651.1168 262.0726 651.4141C 261.1161 651.6788 260.0365 651.5078 259.2278 650.9336C 259.0759 650.8257 258.9343 650.7055 258.8029 650.5773C 258.8029 650.6994 258.8029 650.8196 258.8029 650.9417C 258.8029 652.6135 258.8029 654.2852 258.8029 655.9548C 258.8029 656.5739 258.8029 657.1909 258.8029 657.8098C 258.8029 658.215 258.8131 658.6121 258.7475 659.0132C 258.5094 660.4874 257.2245 661.5992 255.7548 661.7601C 254.4781 661.9006 253.2035 661.2531 252.5323 660.1739C 252.0109 659.335 252.0356 658.437 252.0356 657.5044C 252.0356 656.3702 252.0356 655.2341 252.0356 654.0999C 252.0356 652.4771 252.0356 650.8542 252.0356 649.2333C 252.0356 647.5168 252.0356 645.8004 252.0356 644.0818C 252.0356 642.6646 252.0356 641.2495 252.0356 639.8322C 252.0356 639.3537 252.0273 638.8712 252.0273 638.3926C 251.3746 638.7673 250.7199 639.142 250.0671 639.5146C 249.7141 639.7162 249.3611 639.9198 249.006 640.1214C 248.4271 640.4532 247.8565 640.832 247.1894 640.9542C 245.884 641.1924 244.6053 640.6895 243.8499 639.6042C 243.2526 638.749 243.1048 637.5802 243.4681 636.6028C 243.7493 635.8474 244.285 635.3322 244.8434 634.7784C 245.8081 633.8214 246.7748 632.8623 247.7395 631.9053C 249.7593 629.9017 251.7769 627.9001 253.7967 625.8965C 254.2995 625.3976 254.8004 624.9008 255.3033 624.4019C 255.722 623.9865 256.1202 623.5365 256.5738 623.1578C 257.0438 622.7668 257.5672 622.5204 258.1727 622.4207C 258.8419 622.3107 259.5233 622.3127 260.1986 622.2659C 261.619 622.1682 263.0414 622.0888 264.4639 622.0114C 265.8329 621.9361 267.204 621.8424 268.5711 621.9972C 269.8847 622.1458 271.1429 622.496 272.2616 623.2087C 273.2673 623.8501 274.1212 624.7073 274.7657 625.7051C 275.4718 626.7985 275.8269 628.0121 275.9542 629.2969C 276.0794 630.6388 276.0219 631.9949 276.0219 633.3327z" stroke="none" fill="#000000" fill-rule="nonzero" /></g><g clip-path="url(#16)"><g clip-path="url(#17)"><g clip-path="url(#18)"><g clip-path="url(#19)"><g clip-path="url(#20)"><g transform="matrix(0.4903039 0 0 0.4903039 372.1444 133.9223)"><g transform="matrix(1 0 0 1 0 0)"><image x="0" y="0" xlink:href="img_03.png" width="180" height="180" /></g></g></g></g></g></g></g><g clip-path="url(#21)"><path id="40" transform="matrix(1 0 0 -1 0 842)" d="M481.6682 516.9318C 483.6104 518.8737 483.938 522.3232 483.938 529.321L483.938 529.321L483.938 539.6866C 483.938 546.6844 483.6104 550.134 481.6682 552.076C 481.2357 552.5085 480.7284 552.8611 480.1236 553.1477L480.1236 553.1477L480.118 553.1503L480.118 553.1503L474.8822 555.6255L474.8822 555.6255L474.8766 555.6282C 472.7662 556.6257 469.4719 556.8233 464.038 556.8233L464.038 556.8233L323.9334 556.8233C 316.936 556.8233 313.4867 556.4956 311.5448 554.5538C 311.2476 554.2566 310.9882 553.9241 310.762 553.549C 309.5103 551.4731 309.2753 548.0919 309.2753 542.1658L309.2753 542.1658L309.2753 531.8014C 309.2753 524.8043 309.603 521.3551 311.5448 519.4134C 311.976 518.9824 312.4816 518.6307 313.0838 518.3445C 313.0857 518.3437 313.0875 518.3426 313.0894 518.3419L313.0894 518.3419L318.3023 515.8655L318.3023 515.8655L318.308 515.8629L318.308 515.8629L318.3136 515.8599C 320.4239 514.8602 323.7195 514.662 329.1587 514.662L329.1587 514.662L469.2783 514.662C 476.2764 514.662 479.726 514.9896 481.6682 516.9318z" stroke="none" fill="#000000" fill-rule="nonzero" /><path id="41" transform="matrix(1 0 0 -1 0 842)" d="M464.0384 556.551C 477.3799 556.551 478.424 555.5069 478.424 542.1658L478.424 542.1658L478.424 531.8014C 478.424 518.4603 477.3799 517.4163 464.0384 517.4163L464.0384 517.4163L323.9334 517.4163C 310.5918 517.4163 309.5477 518.4603 309.5477 531.8014L309.5477 531.8014L309.5477 542.1658C 309.5477 555.5069 310.5918 556.551 323.9334 556.551L323.9334 556.551L464.0384 556.551z" stroke="none" fill="#CFCFCF" fill-rule="nonzero" /><path id="42" transform="matrix(1 0 0 -1 0 842)" d="M464.0384 556.551C 477.3799 556.551 478.424 555.5069 478.424 542.1658L478.424 542.1658L478.424 531.8014C 478.424 518.4603 477.3799 517.4163 464.0384 517.4163L464.0384 517.4163L323.9334 517.4163C 310.5918 517.4163 309.5477 518.4603 309.5477 531.8014L309.5477 531.8014L309.5477 542.1658C 309.5477 555.5069 310.5918 556.551 323.9334 556.551L323.9334 556.551L464.0384 556.551z" stroke="#000000" stroke-width="0.3761041" fill="none" /></g><g clip-path="url(#22)"></g><g clip-path="url(#23)"><g clip-path="url(#24)"><g clip-path="url(#25)"><g clip-path="url(#26)"><g clip-path="url(#27)"><path id="52" transform="matrix(1 0 0 -1 0 842)" d="M479.6916 529.8549C 479.553 530.3861 479.8704 530.9294 480.401 531.0682L480.401 531.0682L485.0227 532.2802C 485.5533 532.4189 486.0961 532.1011 486.2347 531.5699C 486.3733 531.0387 486.0559 530.4954 485.5253 530.3567L485.5253 530.3567L480.9036 529.1446C 480.3731 529.0037 479.8302 529.3237 479.6916 529.8549zM476.1447 534.4985C 475.6677 534.7711 475.5009 535.3765 475.7732 535.8539L475.7732 535.8539L478.1401 540.0087C 478.4124 540.4861 479.0171 540.6531 479.4941 540.3805C 479.9711 540.108 480.1379 539.5025 479.8657 539.025L479.8657 539.025L477.501 534.8704C 477.2288 534.3929 476.6218 534.2259 476.1447 534.4985zM464.6217 525.6109C 464.7603 525.0797 464.4428 524.5363 463.9122 524.3976L463.9122 524.3976L459.2906 523.1855C 458.7599 523.0469 458.2172 523.3647 458.0786 523.8959C 457.94 524.4271 458.2574 524.9705 458.788 525.1091L458.788 525.1091L463.4097 526.3212C 463.9403 526.4598 464.4831 526.1421 464.6217 525.6109zM465.3061 531.6879C 465.0338 531.2103 464.4291 531.0434 463.9521 531.316L463.9521 531.316L459.7994 533.6858C 459.3224 533.9584 459.1556 534.5638 459.4279 535.0413C 459.7001 535.5188 460.3048 535.6857 460.7818 535.4131L460.7818 535.4131L464.9321 533.0455C 465.4114 532.7731 465.576 532.1653 465.3061 531.6879zM470.1544 535.2881C 469.6238 535.1494 469.081 535.4672 468.9424 535.9984L468.9424 535.9984L467.7336 540.6253C 467.595 541.1565 467.9124 541.6998 468.443 541.8386C 468.9736 541.9772 469.5164 541.6594 469.655 541.1282L469.655 541.1282L470.8661 536.5014C 471.0024 535.9701 470.685 535.4268 470.1544 535.2881zM495.2082 494.5894C 494.713 492.1809 492.8946 490.0302 490.6187 489.108C 489.3101 488.5781 487.8762 488.4245 486.4763 488.3867C 484.9922 488.3452 483.5016 488.4019 482.0169 488.4267C 481.2632 488.4386 480.5094 488.4529 479.7577 488.4717C 479.0471 488.4901 478.331 488.4739 477.6218 488.5128C 477.0567 488.5441 476.5197 488.6679 476.0602 489.0143C 475.5653 489.3867 475.1304 489.8529 474.6747 490.2726C 472.4576 492.3142 470.2405 494.3559 468.0234 496.3975C 466.0508 498.214 464.0782 500.0305 462.1056 501.847C 461.8445 502.0874 461.5884 502.3166 461.3932 502.6192C 461.1344 503.022 460.994 503.4869 460.9786 503.9661C 460.9473 504.9884 461.5539 506.0397 462.5316 506.405C 463.1181 506.626 463.7636 506.637 464.3544 506.4263C 464.6602 506.3179 464.9507 506.1381 465.2378 505.9879C 465.5294 505.8355 465.8211 505.6832 466.1129 505.5286C 467.2773 504.9191 468.4394 504.3095 469.6039 503.7001C 469.6972 503.6514 469.7905 503.6028 469.8839 503.5541C 470.2666 503.353 470.7381 503.6492 470.72 504.0826C 470.6969 504.6369 470.6737 505.1912 470.6506 505.7454C 470.5925 507.1369 470.5343 508.5306 470.4762 509.922C 470.4 511.7468 470.3237 513.5739 470.2476 515.3987C 470.1701 517.2532 470.0927 519.1077 470.0154 520.9598C 469.9539 522.4312 469.8925 523.9024 469.8311 525.3737C 469.8019 526.0739 469.7704 526.7741 469.7434 527.4745C 469.713 528.3118 470.0467 529.1209 470.7 529.6555C 471.7265 530.4912 473.2476 530.413 474.1945 529.4929C 474.7559 528.9473 474.9543 528.2404 474.986 527.4832C 475.0081 526.9539 475.0302 526.4247 475.0522 525.8955C 475.127 524.1049 475.2018 522.3143 475.2764 520.526C 475.3329 519.1733 475.3893 517.8207 475.4458 516.4681C 475.4488 516.3973 475.4518 516.3243 475.4548 516.2537C 475.4854 515.5192 476.6156 515.5663 476.5941 516.3012C 476.5442 517.9877 478.1012 519.3461 479.7715 518.9748C 480.6885 518.7709 481.4362 518.0823 481.7133 517.1867C 481.8662 516.6949 481.8434 516.1479 481.8646 515.6392C 481.8862 515.1215 481.9077 514.606 481.9294 514.0881C 481.96 513.3536 483.0902 513.4008 483.0686 514.1357C 483.0186 515.8245 484.576 517.1737 486.2485 516.8071C 487.163 516.6053 487.9132 515.9124 488.1902 515.019C 488.3404 514.5386 488.3168 514.0098 488.3376 513.5125C 488.3593 512.9902 488.3812 512.4678 488.403 511.9455C 488.4336 511.211 489.5638 511.2581 489.5422 511.993C 489.504 513.2916 490.4286 514.4887 491.7325 514.6939C 493.2813 514.9368 494.6883 513.7662 494.776 512.2115C 494.9008 509.2234 495.0255 506.2375 495.1502 503.2494C 495.2141 501.7188 495.2781 500.186 495.342 498.6554C 495.4009 497.2983 495.4834 495.9239 495.2082 494.5894zM496.41 500.464C 496.2784 503.6164 496.1469 506.7665 496.0153 509.9189C 495.9828 510.6967 495.9502 511.4768 495.9178 512.2546C 495.8226 513.9324 494.6382 515.4048 492.9794 515.772C 491.6709 516.0601 490.3132 515.6149 489.4151 514.6566C 489.3787 514.9818 489.3126 515.3058 489.1878 515.616C 488.7223 516.7618 487.7222 517.6455 486.5081 517.9147C 485.446 518.1492 484.2761 517.9084 483.4163 517.235C 483.2461 517.1022 483.0901 516.9563 482.946 516.7994C 482.9092 517.1339 482.8429 517.4647 482.7155 517.7838C 482.2549 518.9185 481.2782 519.7894 480.0795 520.073C 479.0053 520.3252 477.8148 520.0836 476.9439 519.4028C 476.7803 519.2749 476.6287 519.1338 476.4889 518.984C 476.4832 519.1208 476.4776 519.2554 476.4718 519.3923C 476.3936 521.265 476.3155 523.1377 476.2374 525.0082C 476.2084 525.7016 476.1796 526.3928 476.1506 527.0862C 476.1317 527.5401 476.1245 527.9854 476.0328 528.4317C 475.6996 530.0721 474.2212 531.258 472.5823 531.3701C 471.1584 531.4683 469.7737 530.6839 469.0792 529.4438C 468.5396 528.4799 468.609 527.4751 468.6526 526.4304C 468.7056 525.1599 468.7588 523.887 468.8118 522.6165C 468.8877 520.7985 468.9636 518.9806 469.0394 517.1649C 469.1197 515.2419 469.2 513.3191 469.2804 511.3939C 469.3466 509.8063 469.4128 508.221 469.4791 506.6334C 469.5015 506.0974 469.515 505.5564 469.5373 505.0203C 468.7952 505.4098 468.0508 505.7991 467.3088 506.1863C 466.9075 506.3958 466.5061 506.6075 466.1025 506.8169C 465.4444 507.1619 464.7932 507.5597 464.047 507.6656C 462.5867 507.872 461.1907 507.2493 460.403 505.9985C 459.7799 505.0128 459.6705 503.6967 460.1195 502.6186C 460.467 501.7854 461.0858 501.2331 461.7315 500.6385C 462.8472 499.6112 463.9652 498.5816 465.0809 497.5543C 467.4167 495.4033 469.7501 493.2546 472.0858 491.1037C 472.6674 490.5681 473.2466 490.0348 473.8282 489.4992C 474.3124 489.0533 474.7755 488.5676 475.2968 488.1644C 475.8369 487.7482 476.4294 487.4965 477.1062 487.4128C 477.8542 487.3206 478.6106 487.3545 479.3624 487.3333C 480.9437 487.2896 482.5264 487.2666 484.1091 487.2458C 485.6324 487.2249 487.1588 487.1835 488.6691 487.4202C 490.1204 487.6476 491.5008 488.0983 492.7092 488.9485C 493.7957 489.7136 494.7035 490.7135 495.3723 491.8611C 496.105 493.1187 496.4424 494.4947 496.5236 495.9399C 496.5998 497.4489 496.4726 498.9654 496.41 500.464z" stroke="none" fill="#000000" fill-rule="nonzero" /></g></g></g></g></g><g clip-path="url(#28)"><path id="53" transform="matrix(1 0 0 -1 0 842)" d="M82.7514 175.177L515.9283 175.177" stroke="#000000" stroke-width="2.25" fill="none" /><path id="54" transform="matrix(1 0 0 -1 0 842)" d="M82.1889 178.552L82.1889 171.802" stroke="#000000" stroke-width="2.25" stroke-linecap="round" fill="none" /><path id="55" transform="matrix(1 0 0 -1 0 842)" d="M516.4908 178.552L516.4908 171.802" stroke="#000000" stroke-width="2.25" stroke-linecap="round" fill="none" /></g><g clip-path="url(#29)"><path id="56" transform="matrix(1 0 0 -1 0 842)" d="M347.5355 213.4585C 350.3297 216.2522 350.8009 221.2151 350.8009 231.2826L350.8009 231.2826L350.8009 246.1952C 350.8009 256.2628 350.3297 261.2256 347.5355 264.0195C 346.9132 264.6418 346.1833 265.149 345.3132 265.5613L345.3132 265.5613L345.3051 265.5651L345.3051 265.5651L337.7726 269.1261L337.7726 269.1261L337.7644 269.1299C 334.7284 270.565 329.989 270.8493 322.1713 270.8493L322.1713 270.8493L120.6067 270.8493C 110.5398 270.8493 105.5773 270.3779 102.7836 267.5843C 102.3559 267.1567 101.9828 266.6783 101.6573 266.1385C 99.85664 263.1521 99.5185 258.2877 99.5185 249.762L99.5185 249.762L99.5185 234.851C 99.5185 224.7845 99.98994 219.8222 102.7836 217.0287C 103.404 216.4086 104.1313 215.9026 104.9976 215.4909C 105.0004 215.4898 105.0031 215.4882 105.0058 215.4871L105.0058 215.4871L112.5054 211.9245L112.5054 211.9245L112.5135 211.9208L112.5135 211.9208L112.5217 211.9164C 115.5576 210.4782 120.2989 210.1931 128.1242 210.1931L128.1242 210.1931L329.7103 210.1931C 339.7784 210.1931 344.7412 210.6643 347.5355 213.4585z" stroke="none" fill="#000000" fill-rule="nonzero" /><path id="57" transform="matrix(1 0 0 -1 0 842)" d="M322.1718 270.4576C 341.3659 270.4576 342.868 268.9555 342.868 249.762L342.868 249.762L342.868 234.851C 342.868 215.6575 341.3659 214.1555 322.1718 214.1555L322.1718 214.1555L120.6068 214.1555C 101.4125 214.1555 99.91037 215.6575 99.91037 234.851L99.91037 234.851L99.91037 249.762C 99.91037 268.9555 101.4125 270.4576 120.6068 270.4576L120.6068 270.4576L322.1718 270.4576z" stroke="none" fill="#CFCFCF" fill-rule="nonzero" /><path id="58" transform="matrix(1 0 0 -1 0 842)" d="M322.1718 270.4576C 341.3659 270.4576 342.868 268.9555 342.868 249.762L342.868 249.762L342.868 234.851C 342.868 215.6575 341.3659 214.1555 322.1718 214.1555L322.1718 214.1555L120.6068 214.1555C 101.4125 214.1555 99.91037 215.6575 99.91037 234.851L99.91037 234.851L99.91037 249.762C 99.91037 268.9555 101.4125 270.4576 120.6068 270.4576L120.6068 270.4576L322.1718 270.4576z" stroke="#000000" stroke-width="0.5410905" fill="none" /></g><g clip-path="url(#30)"><path id="59" transform="matrix(1 0 0 -1 0 842)" d="M334.3841 225.0784C 334.2887 225.5207 334.5674 225.9573 335.0069 226.0533L335.0069 226.0533L338.8352 226.8926C 339.2747 226.9886 339.7086 226.7082 339.804 226.2659C 339.8994 225.8237 339.6207 225.387 339.1812 225.2911L339.1812 225.2911L335.3529 224.4517C 334.9134 224.3539 334.4795 224.6362 334.3841 225.0784zM331.6368 229.0248C 331.2553 229.2657 331.1393 229.7701 331.3787 230.154L331.3787 230.154L333.4602 233.4944C 333.6996 233.8784 334.2008 233.995 334.5824 233.7542C 334.9639 233.5133 335.0798 233.0089 334.8405 232.625L334.8405 232.625L332.7608 229.2845C 332.5214 228.9006 332.0183 228.784 331.6368 229.0248zM321.8912 222.1012C 321.9866 221.6589 321.7079 221.2223 321.2684 221.1263L321.2684 221.1263L317.4401 220.287C 317.0006 220.191 316.5667 220.4714 316.4713 220.9137C 316.3759 221.3559 316.6546 221.7925 317.0941 221.8885L317.0941 221.8885L320.9224 222.7279C 321.3619 222.8238 321.7958 222.5434 321.8912 222.1012zM322.6598 227.0827C 322.4204 226.6988 321.9192 226.5821 321.5377 226.823L321.5377 226.823L318.2162 228.9176C 317.8347 229.1584 317.7188 229.6628 317.9582 230.0467C 318.1975 230.4306 318.6988 230.5473 319.0803 230.3064L319.0803 230.3064L322.3999 228.2137C 322.7833 227.9728 322.8973 227.4666 322.6598 227.0827zM326.7556 229.8811C 326.3161 229.7851 325.8822 230.0656 325.7868 230.5078L325.7868 230.5078L324.9546 234.3601C 324.8592 234.8024 325.1378 235.239 325.5773 235.335C 326.0168 235.431 326.4507 235.1506 326.5461 234.7083L326.5461 234.7083L327.3802 230.856C 327.4737 230.4137 327.1951 229.9771 326.7556 229.8811zM345.8915 195.4999C 345.4034 193.5333 343.8398 191.8245 341.9435 191.1432C 340.8531 190.7518 339.673 190.6746 338.5247 190.6916C 337.3073 190.7085 336.0879 190.8064 334.8723 190.8779C 334.2551 190.9136 333.6379 190.9513 333.0226 190.9927C 332.441 191.0322 331.8537 191.0435 331.274 191.0999C 330.812 191.1451 330.3763 191.2656 330.0116 191.5667C 329.6189 191.8904 329.2785 192.2893 328.9194 192.6507C 327.1726 194.4084 325.4259 196.1661 323.6791 197.9239C 322.125 199.4878 320.5708 201.0517 319.0167 202.6156C 318.811 202.8226 318.609 203.0202 318.4594 203.2761C 318.2611 203.6167 318.162 204.0044 318.1657 204.3996C 318.1751 205.2427 318.7081 206.0877 319.5216 206.355C 320.0098 206.5168 320.539 206.5036 321.0159 206.3098C 321.2628 206.2101 321.4947 206.052 321.7247 205.9184C 321.9585 205.7829 322.1923 205.6474 322.4261 205.51C 323.3593 204.968 324.2906 204.426 325.2239 203.884C 325.2987 203.8407 325.3735 203.7974 325.4483 203.7541C 325.755 203.5753 326.1515 203.8031 326.1515 204.1606C 326.1515 204.6179 326.1515 205.0753 326.1515 205.5326C 326.1515 206.6805 326.1515 207.8304 326.1515 208.9784C 326.1515 210.4839 326.1515 211.9914 326.1515 213.4969C 326.1515 215.0269 326.1515 216.557 326.1515 218.0851C 326.1515 219.299 326.1515 220.5128 326.1515 221.7267C 326.1515 222.3044 326.1496 222.8822 326.1515 223.4599C 326.1552 224.1506 326.4563 224.8055 327.0099 225.2233C 327.8796 225.8763 329.1233 225.7597 329.8676 224.9693C 330.309 224.5006 330.4474 223.9116 330.4474 223.2868C 330.4474 222.8502 330.4474 222.4136 330.4474 221.977C 330.4474 220.4996 330.4474 219.0223 330.4474 217.5469C 330.4474 216.4309 330.4474 215.3149 330.4474 214.1989C 330.4474 214.1406 330.4474 214.0803 330.4474 214.022C 330.4474 213.416 331.375 213.416 331.3824 214.022C 331.3993 215.4128 332.7215 216.4779 334.0774 216.1147C 334.8217 215.9152 335.4109 215.3224 335.6072 214.5753C 335.7157 214.165 335.6783 213.7152 335.6783 213.2956C 335.6783 212.8684 335.6783 212.4431 335.6783 212.0158C 335.6783 211.4099 336.6059 211.4099 336.6134 212.0158C 336.6302 213.4085 337.9525 214.4661 339.3102 214.1067C 340.0527 213.9091 340.6437 213.3125 340.8401 212.5673C 340.9467 212.1664 340.9092 211.7317 340.9092 211.3214C 340.9092 210.8904 340.9092 210.4595 340.9092 210.0285C 340.9092 209.4225 341.8369 209.4225 341.8444 210.0285C 341.8575 211.0993 342.656 212.0535 343.7314 212.1777C 345.0087 212.3245 346.1215 211.312 346.1402 210.0285C 346.1402 207.5632 346.1402 205.0997 346.1402 202.6344C 346.1402 201.3716 346.1402 200.1069 346.1402 198.8441C 346.1421 197.7244 346.1627 196.5896 345.8915 195.4999zM347.0772 200.297C 347.0772 202.8978 347.0772 205.4968 347.0772 208.0976C 347.0772 208.7394 347.0772 209.383 347.0772 210.0247C 347.0566 211.4099 346.1365 212.6632 344.7899 213.0227C 343.7277 213.305 342.5999 212.985 341.8313 212.2266C 341.8126 212.4957 341.7695 212.7649 341.6779 213.0246C 341.3357 213.9844 340.5464 214.7466 339.5609 215.01C 338.6987 215.2396 337.7318 215.0815 337.0043 214.5565C 336.8603 214.453 336.7275 214.3382 336.6041 214.214C 336.5854 214.4906 336.5423 214.7654 336.4488 215.0326C 336.1103 215.983 335.3398 216.7339 334.3673 217.0086C 333.4958 217.2533 332.5121 217.0952 331.7752 216.5645C 331.6368 216.4648 331.5078 216.3537 331.3881 216.2352C 331.3881 216.3481 331.3881 216.4591 331.3881 216.572C 331.3881 218.1171 331.3881 219.6622 331.3881 221.2054C 331.3881 221.7775 331.3881 222.3477 331.3881 222.9198C 331.3881 223.2943 331.3974 223.6613 331.3376 224.032C 331.1206 225.3946 329.9499 226.4221 328.6108 226.5708C 327.4475 226.7006 326.2862 226.1022 325.6746 225.1048C 325.1996 224.3294 325.222 223.4995 325.222 222.6375C 325.222 221.5893 325.222 220.5392 325.222 219.4909C 325.222 217.991 325.222 216.4911 325.222 214.9931C 325.222 213.4066 325.222 211.8201 325.222 210.2318C 325.222 208.9219 325.222 207.614 325.222 206.3042C 325.222 205.8619 325.2145 205.4159 325.2145 204.9736C 324.6198 205.3199 324.0232 205.6662 323.4285 206.0106C 323.1068 206.1969 322.7851 206.3851 322.4616 206.5714C 321.9342 206.8781 321.4143 207.2282 320.8065 207.3411C 319.617 207.5613 318.4519 207.0965 317.7636 206.0934C 317.2194 205.303 317.0848 204.2227 317.4158 203.3194C 317.672 202.6212 318.1601 202.1451 318.6688 201.6332C 319.5478 200.7487 320.4287 199.8623 321.3077 198.9778C 323.1479 197.1259 324.9864 195.276 326.8266 193.4241C 327.2849 192.9631 327.7412 192.5039 328.1994 192.0428C 328.5809 191.6589 328.9437 191.243 329.357 190.8929C 329.7853 190.5316 330.2622 190.3039 330.8139 190.2117C 331.4236 190.11 332.0445 190.1119 332.6598 190.0686C 333.954 189.9783 335.25 189.9049 336.5461 189.8334C 337.7935 189.7638 339.0428 189.6772 340.2884 189.8202C 341.4853 189.9576 342.6317 190.2813 343.651 190.94C 344.5674 191.5328 345.3454 192.3251 345.9326 193.2472C 346.576 194.2578 346.8995 195.3795 347.0154 196.567C 347.1295 197.8072 347.0772 199.0606 347.0772 200.297z" stroke="none" fill="#000000" fill-rule="nonzero" /></g><g clip-path="url(#31)"><g clip-path="url(#32)"><g clip-path="url(#33)"><g clip-path="url(#34)"><path id="60" transform="matrix(1 0 0 -1 0 842)" d="M99.51715 312.1109L508.1671 312.1109L508.1671 282.6338L99.51715 282.6338z" stroke="none" fill="#38B6FF" fill-rule="nonzero" /></g></g></g></g><g clip-path="url(#35)"><g clip-path="url(#36)"><g clip-path="url(#37)"><g clip-path="url(#38)"><g clip-path="url(#39)"><g transform="matrix(0.2779386 0 0 0.2775917 360.6493 423.2695)"><g transform="matrix(1 0 0 1 0 0)"><image x="0" y="0" xlink:href="img_04.png" width="400" height="267" /></g></g></g></g></g></g></g><g clip-path="url(#40)"><g clip-path="url(#41)"><g clip-path="url(#42)"><g clip-path="url(#43)"><g clip-path="url(#44)"><g transform="matrix(0.5805661 0 0 0.5791473 298.4745 569.8663)"><g transform="matrix(1 0 0 1 0 0)"><image x="0" y="0" xlink:href="img_05.png" width="413" height="147" /></g></g></g></g></g></g></g><g clip-path="url(#45)"><g clip-path="url(#46)"><g clip-path="url(#47)"><g clip-path="url(#48)"><path id="63" transform="matrix(1 0 0 -1 0 842)" d="M104.236 603.1829L512.9099 603.1829L512.9099 568.9597L104.236 568.9597z" stroke="none" fill="#38B6FF" fill-rule="nonzero" /></g></g></g></g><g clip-path="url(#49)"></g><g clip-path="url(#50)"><g clip-path="url(#51)"><g clip-path="url(#52)"><g clip-path="url(#53)"><path id="104" transform="matrix(1 0 0 -1 0 842)" d="M105.5964 465.5181L514.2068 465.5181L514.2068 433.4211L105.5964 433.4211z" stroke="none" fill="#38B6FF" fill-rule="nonzero" /></g></g></g></g><g clip-path="url(#54)"></g><g clip-path="url(#55)"><g clip-path="url(#56)"><g clip-path="url(#57)"><g clip-path="url(#58)"><path id="136" transform="matrix(1 0 0 -1 0 842)" d="M112.1269 817.321L463.4824 817.321L463.4824 767.7088L112.1269 767.7088z" stroke="none" fill="#FFDE59" fill-rule="nonzero" /></g></g></g></g><g clip-path="url(#59)"><g clip-path="url(#60)"><g clip-path="url(#61)"><g clip-path="url(#62)"><g clip-path="url(#63)"><path id="137" transform="matrix(1 0 0 -1 0 842)" d="M136.9517 817.321L438.738 817.321C 445.316 817.321 451.6246 814.7079 456.276 810.0566C 460.9273 805.4053 463.5404 799.0967 463.5404 792.5187C 463.5404 785.9407 460.9273 779.6321 456.276 774.9808C 451.6246 770.3294 445.316 767.7163 438.738 767.7163L438.738 767.7163L136.9517 767.7163C 130.3737 767.7163 124.0651 770.3294 119.4138 774.9808C 114.7624 779.6321 112.1493 785.9407 112.1493 792.5187C 112.1493 799.0967 114.7624 805.4053 119.4138 810.0566C 124.0651 814.7079 130.3737 817.321 136.9517 817.321z" stroke="#000000" stroke-width="4.5" fill="none" /></g></g></g></g></g><g clip-path="url(#64)"></g><g clip-path="url(#65)"><g clip-path="url(#66)"><g clip-path="url(#67)"><g clip-path="url(#68)"><path id="159" transform="matrix(1 0 0 -1 0 842)" d="M95.00935 744.4587L503.6879 744.4587L503.6879 715.4213L95.00935 715.4213z" stroke="none" fill="#38B6FF" fill-rule="nonzero" /></g></g></g></g><g clip-path="url(#69)"></g><g clip-path="url(#70)"><path id="194" transform="matrix(1 0 0 -1 0 842)" d="M263.3936 524.4933C 263.2889 524.9719 263.5948 525.4443 264.0771 525.5482L264.0771 525.5482L268.2787 526.4563C 268.7611 526.5601 269.2373 526.2567 269.3419 525.7782C 269.4466 525.2997 269.1408 524.8273 268.6584 524.7234L268.6584 524.7234L264.4568 523.8153C 263.9745 523.7094 263.4983 524.0149 263.3936 524.4933zM260.3784 528.7633C 259.9597 529.0239 259.8324 529.5696 260.0951 529.985L260.0951 529.985L262.3796 533.5992C 262.6424 534.0146 263.1924 534.1409 263.6112 533.8802C 264.0299 533.6196 264.1572 533.0739 263.8944 532.6585L263.8944 532.6585L261.612 529.0443C 261.3492 528.6289 260.7971 528.5026 260.3784 528.7633zM249.6824 521.2721C 249.7871 520.7936 249.4813 520.3212 248.9989 520.2173L248.9989 520.2173L244.7973 519.3092C 244.315 519.2054 243.8388 519.5088 243.7341 519.9872C 243.6294 520.4658 243.9352 520.9382 244.4176 521.042L244.4176 521.042L248.6192 521.9502C 249.1016 522.054 249.5778 521.7506 249.6824 521.2721zM250.526 526.6619C 250.2633 526.2465 249.7132 526.1203 249.2945 526.3809L249.2945 526.3809L245.6491 528.6472C 245.2304 528.9078 245.1031 529.4536 245.3659 529.869C 245.6286 530.2843 246.1787 530.4106 246.5974 530.15L246.5974 530.15L250.2407 527.8857C 250.6615 527.6251 250.7867 527.0773 250.526 526.6619zM255.0212 529.6898C 254.5388 529.5859 254.0626 529.8893 253.9579 530.3678L253.9579 530.3678L253.0445 534.5359C 252.9399 535.0144 253.2457 535.4868 253.7281 535.5906C 254.2104 535.6945 254.6866 535.3911 254.7913 534.9126L254.7913 534.9126L255.7067 530.7445C 255.8094 530.266 255.5035 529.7936 255.0212 529.6898zM276.0231 492.4904C 275.4874 490.3626 273.7714 488.5137 271.6901 487.7766C 270.4934 487.3531 269.1983 487.2696 267.938 487.288C 266.6018 487.3063 265.2635 487.4122 263.9293 487.4895C 263.252 487.5282 262.5746 487.5689 261.8994 487.6137C 261.261 487.6565 260.6165 487.6687 259.9802 487.7298C 259.4732 487.7787 258.995 487.909 258.5947 488.2348C 258.1637 488.585 257.7901 489.0167 257.396 489.4076C 255.4789 491.3094 253.5618 493.2112 251.6447 495.1131C 249.939 496.8051 248.2333 498.4972 246.5276 500.1893C 246.3018 500.4133 246.0802 500.6271 245.916 500.904C 245.6984 501.2726 245.5896 501.692 245.5937 502.1196C 245.604 503.0318 246.189 503.9461 247.0818 504.2352C 247.6176 504.4103 248.1984 504.3961 248.7218 504.1864C 248.9928 504.0784 249.2473 503.9074 249.4998 503.7628C 249.7563 503.6162 250.0129 503.4696 250.2695 503.321C 251.2937 502.7346 252.3159 502.1481 253.3401 501.5617C 253.4222 501.5149 253.5043 501.468 253.5864 501.4212C 253.923 501.2278 254.3582 501.4742 254.3582 501.861C 254.3582 502.3558 254.3582 502.8506 254.3582 503.3454C 254.3582 504.5875 254.3582 505.8316 254.3582 507.0737C 254.3582 508.7026 254.3582 510.3336 254.3582 511.9626C 254.3582 513.618 254.3582 515.2734 254.3582 516.9269C 254.3582 518.2402 254.3582 519.5535 254.3582 520.8669C 254.3582 521.492 254.3561 522.1171 254.3582 522.7422C 254.3623 523.4895 254.6928 524.1981 255.3003 524.6501C 256.2548 525.3568 257.6197 525.2305 258.4366 524.3752C 258.9211 523.8683 259.0729 523.231 259.0729 522.5549C 259.0729 522.0825 259.0729 521.6101 259.0729 521.1377C 259.0729 519.5393 259.0729 517.9409 259.0729 516.3445C 259.0729 515.137 259.0729 513.9296 259.0729 512.7221C 259.0729 512.659 259.0729 512.5938 259.0729 512.5307C 259.0729 511.8751 260.091 511.8751 260.0992 512.5307C 260.1177 514.0355 261.5689 515.1879 263.057 514.795C 263.8739 514.5791 264.5205 513.9377 264.736 513.1293C 264.855 512.6855 264.814 512.1988 264.814 511.7447C 264.814 511.2825 264.814 510.8223 264.814 510.3601C 264.814 509.7045 265.8321 509.7045 265.8403 510.3601C 265.8587 511.8669 267.3099 513.0112 268.8001 512.6223C 269.615 512.4085 270.2635 511.7631 270.4791 510.9567C 270.5961 510.523 270.555 510.0526 270.555 509.6088C 270.555 509.1425 270.555 508.6762 270.555 508.2099C 270.555 507.5542 271.5731 507.5542 271.5813 508.2099C 271.5957 509.3685 272.4721 510.4008 273.6523 510.5352C 275.0543 510.6941 276.2755 509.5986 276.2961 508.2099C 276.2961 505.5425 276.2961 502.8771 276.2961 500.2097C 276.2961 498.8434 276.2961 497.475 276.2961 496.1088C 276.2981 494.8972 276.3207 493.6694 276.0231 492.4904zM277.3244 497.6807C 277.3244 500.4948 277.3244 503.3067 277.3244 506.1208C 277.3244 506.8151 277.3244 507.5115 277.3244 508.2058C 277.3018 509.7045 276.292 511.0606 274.8141 511.4495C 273.6483 511.7549 272.4106 511.4088 271.567 510.5882C 271.5464 510.8794 271.4992 511.1705 271.3986 511.4515C 271.023 512.49 270.1568 513.3146 269.0751 513.5997C 268.1289 513.8481 267.0677 513.6771 266.2693 513.109C 266.1112 512.997 265.9655 512.8728 265.83 512.7384C 265.8095 513.0377 265.7623 513.335 265.6596 513.6241C 265.2881 514.6524 264.4425 515.4648 263.3751 515.7621C 262.4186 516.0269 261.339 515.8558 260.5303 515.2816C 260.3784 515.1737 260.2368 515.0535 260.1054 514.9253C 260.1054 515.0474 260.1054 515.1676 260.1054 515.2897C 260.1054 516.9615 260.1054 518.6332 260.1054 520.3029C 260.1054 520.9219 260.1054 521.5389 260.1054 522.1578C 260.1054 522.563 260.1157 522.9601 260.05 523.3613C 259.8119 524.8354 258.527 525.9472 257.0573 526.1081C 255.7806 526.2486 254.506 525.6011 253.8348 524.5219C 253.3134 523.683 253.3381 522.785 253.3381 521.8524C 253.3381 520.7183 253.3381 519.5821 253.3381 518.4479C 253.3381 516.8251 253.3381 515.2022 253.3381 513.5814C 253.3381 511.8649 253.3381 510.1483 253.3381 508.4298C 253.3381 507.0126 253.3381 505.5974 253.3381 504.1803C 253.3381 503.7018 253.3298 503.2192 253.3298 502.7407C 252.6771 503.1153 252.0224 503.49 251.3696 503.8626C 251.0166 504.0642 250.6636 504.2678 250.3085 504.4694C 249.7296 504.8013 249.159 505.18 248.4919 505.3022C 247.1865 505.5404 245.9078 505.0375 245.1524 503.9522C 244.5551 503.097 244.4073 501.9282 244.7706 500.9508C 245.0518 500.1954 245.5876 499.6802 246.1459 499.1264C 247.1106 498.1694 248.0773 497.2103 249.042 496.2533C 251.0618 494.2497 253.0794 492.2481 255.0992 490.2445C 255.6021 489.7456 256.1029 489.2488 256.6057 488.7499C 257.0245 488.3345 257.4227 487.8846 257.8763 487.5058C 258.3463 487.1149 258.8698 486.8685 259.4753 486.7687C 260.1444 486.6588 260.8258 486.6608 261.5011 486.614C 262.9215 486.5162 264.3439 486.4368 265.7664 486.3594C 267.1354 486.2841 268.5066 486.1904 269.8736 486.3452C 271.1872 486.4938 272.4454 486.8441 273.5641 487.5567C 274.5699 488.1981 275.4237 489.0554 276.0682 490.0531C 276.7743 491.1465 277.1294 492.3601 277.2567 493.645C 277.3819 494.9868 277.3244 496.3429 277.3244 497.6807z" stroke="none" fill="#000000" fill-rule="nonzero" /></g><g clip-path="url(#71)"><g transform="matrix(0.06755424 0 0 0.06778678 484.4416 25.84949)"><g transform="matrix(1 0 0 1 0 0)"><image x="0" y="0" xlink:href="img_06.png" width="1521" height="863" /></g></g></g><g clip-path="url(#72)"><path id="196" transform="matrix(1 0 0 -1 0 842)" d="M343.0276 57.39967C 345.8218 60.19332 346.2932 65.1562 346.2932 75.22374L346.2932 75.22374L346.2932 90.13635C 346.2932 100.2039 345.8218 105.1667 343.0276 107.9606C 342.4054 108.5829 341.6755 109.0901 340.8054 109.5024L340.8054 109.5024L340.7973 109.5063L340.7973 109.5063L333.2648 113.0672L333.2648 113.0672L333.2567 113.0711C 330.2206 114.5062 325.4812 114.7904 317.6635 114.7904L317.6635 114.7904L116.0989 114.7904C 106.032 114.7904 101.0695 114.319 98.27579 111.5254C 97.84816 111.0978 97.475 110.6194 97.14955 110.0797C 95.34885 107.0933 95.01071 102.2289 95.01071 93.70317L95.01071 93.70317L95.01071 78.79212C 95.01071 68.72562 95.48215 63.76333 98.27579 60.96984C 98.89619 60.3497 99.62347 59.84378 100.4898 59.43201C 100.4926 59.43093 100.4953 59.4293 100.498 59.42822L100.498 59.42822L107.9976 55.86568L107.9976 55.86568L108.0058 55.8619L108.0058 55.8619L108.0139 55.85756C 111.0498 54.41935 115.7911 54.13419 123.6164 54.13419L123.6164 54.13419L325.2025 54.13419C 335.2706 54.13419 340.2335 54.60548 343.0276 57.39967z" stroke="none" fill="#000000" fill-rule="nonzero" /><path id="197" transform="matrix(1 0 0 -1 0 842)" d="M317.6641 114.3987C 336.8582 114.3987 338.3602 112.8966 338.3602 93.70317L338.3602 93.70317L338.3602 78.79212C 338.3602 59.59866 336.8582 58.0966 317.6641 58.0966L317.6641 58.0966L116.099 58.0966C 96.90472 58.0966 95.40258 59.59866 95.40258 78.79212L95.40258 78.79212L95.40258 93.70317C 95.40258 112.8966 96.90472 114.3987 116.099 114.3987L116.099 114.3987L317.6641 114.3987z" stroke="none" fill="#CFCFCF" fill-rule="nonzero" /><path id="198" transform="matrix(1 0 0 -1 0 842)" d="M317.6641 114.3987C 336.8582 114.3987 338.3602 112.8966 338.3602 93.70317L338.3602 93.70317L338.3602 78.79212C 338.3602 59.59866 336.8582 58.0966 317.6641 58.0966L317.6641 58.0966L116.099 58.0966C 96.90472 58.0966 95.40258 59.59866 95.40258 78.79212L95.40258 78.79212L95.40258 93.70317C 95.40258 112.8966 96.90472 114.3987 116.099 114.3987L116.099 114.3987L317.6641 114.3987z" stroke="#000000" stroke-width="0.5410905" fill="none" /></g><g clip-path="url(#73)"><path id="199" transform="matrix(1 0 0 -1 0 842)" d="M329.8763 69.01953C 329.7809 69.46178 330.0596 69.89839 330.4991 69.99438L330.4991 69.99438L334.3274 70.83372C 334.7669 70.9297 335.2008 70.64929 335.2962 70.20703C 335.3916 69.76478 335.1129 69.32817 334.6734 69.23219L334.6734 69.23219L330.8451 68.39285C 330.4056 68.29498 329.9717 68.57727 329.8763 69.01953zM327.129 72.96596C 326.7475 73.20685 326.6315 73.71121 326.8709 74.09512L326.8709 74.09512L328.9525 77.43557C 329.1918 77.81949 329.6931 77.93616 330.0746 77.69528C 330.4561 77.45439 330.5721 76.95003 330.3327 76.56612L330.3327 76.56612L328.253 73.22567C 328.0136 72.84175 327.5105 72.72507 327.129 72.96596zM317.3834 66.0423C 317.4788 65.60004 317.2001 65.16343 316.7606 65.06745L316.7606 65.06745L312.9323 64.2281C 312.4928 64.13213 312.0589 64.41254 311.9636 64.85479C 311.8682 65.29705 312.1469 65.73366 312.5863 65.82964L312.5863 65.82964L316.4146 66.66898C 316.8541 66.76496 317.288 66.48455 317.3834 66.0423zM318.152 71.0238C 317.9127 70.63988 317.4114 70.5232 317.0299 70.76408L317.0299 70.76408L313.7085 72.85869C 313.3269 73.09958 313.211 73.60394 313.4504 73.98785C 313.6898 74.37177 314.191 74.48845 314.5725 74.24756L314.5725 74.24756L317.8921 72.15485C 318.2755 71.91396 318.3896 71.40771 318.152 71.0238zM322.2478 73.82224C 321.8083 73.72626 321.3744 74.00668 321.279 74.44893L321.279 74.44893L320.4468 78.30126C 320.3514 78.74352 320.6301 79.18013 321.0696 79.27611C 321.5091 79.37209 321.943 79.09168 322.0383 78.64942L322.0383 78.64942L322.8724 74.79709C 322.9659 74.35484 322.6873 73.91822 322.2478 73.82224zM341.3837 39.44105C 340.8956 37.47442 339.3321 35.76562 337.4357 35.08436C 336.3454 34.69291 335.1653 34.61575 334.017 34.63269C 332.7995 34.64963 331.5801 34.74749 330.3645 34.81901C 329.7473 34.85476 329.1301 34.8924 328.5148 34.93381C 327.9332 34.97333 327.3459 34.98462 326.7662 35.04108C 326.3043 35.08625 325.8685 35.20669 325.5038 35.5078C 325.1111 35.83149 324.7707 36.23046 324.4116 36.5918C 322.6649 38.34953 320.9181 40.10727 319.1713 41.865C 317.6172 43.42889 316.063 44.99278 314.5089 46.55667C 314.3032 46.76369 314.1012 46.96129 313.9516 47.21724C 313.7533 47.55787 313.6542 47.94555 313.658 48.34076C 313.6673 49.18386 314.2003 50.02886 315.0139 50.29609C 315.502 50.45794 316.0313 50.44476 316.5081 50.25092C 316.755 50.15118 316.9869 49.9931 317.2169 49.85948C 317.4507 49.72398 317.6845 49.58848 317.9183 49.4511C 318.8515 48.9091 319.7829 48.3671 320.7161 47.8251C 320.7909 47.78182 320.8657 47.73853 320.9405 47.69525C 321.2472 47.51646 321.6437 47.74418 321.6437 48.10175C 321.6437 48.55906 321.6437 49.01637 321.6437 49.47368C 321.6437 50.62167 321.6437 51.77153 321.6437 52.91952C 321.6437 54.42507 321.6437 55.93251 321.6437 57.43806C 321.6437 58.96808 321.6437 60.4981 321.6437 62.02623C 321.6437 63.24008 321.6437 64.45393 321.6437 65.66779C 321.6437 66.24554 321.6418 66.8233 321.6437 67.40105C 321.6475 68.09173 321.9485 68.74664 322.5021 69.16444C 323.3718 69.81747 324.6155 69.70079 325.3598 68.91037C 325.8012 68.44177 325.9396 67.85272 325.9396 67.22792C 325.9396 66.79131 325.9396 66.3547 325.9396 65.91809C 325.9396 64.44077 325.9396 62.96344 325.9396 61.488C 325.9396 60.37201 325.9396 59.25601 325.9396 58.14002C 325.9396 58.08168 325.9396 58.02146 325.9396 57.96312C 325.9396 57.35713 326.8672 57.35713 326.8747 57.96312C 326.8915 59.35387 328.2137 60.41905 329.5696 60.05584C 330.314 59.85635 330.9031 59.26354 331.0995 58.51641C 331.2079 58.10615 331.1705 57.65636 331.1705 57.23669C 331.1705 56.80949 331.1705 56.38417 331.1705 55.95697C 331.1705 55.35098 332.0981 55.35098 332.1056 55.95697C 332.1224 57.34961 333.4447 58.40726 334.8025 58.04781C 335.5449 57.8502 336.1359 57.25362 336.3323 56.50838C 336.4389 56.10752 336.4015 55.6728 336.4015 55.26253C 336.4015 54.83157 336.4015 54.4006 336.4015 53.96964C 336.4015 53.36366 337.3291 53.36366 337.3366 53.96964C 337.3497 55.04046 338.1482 55.99461 339.2236 56.11881C 340.5009 56.26561 341.6137 55.25312 341.6324 53.96964C 341.6324 51.5043 341.6324 49.04083 341.6324 46.57549C 341.6324 45.31271 341.6324 44.04805 341.6324 42.78526C 341.6343 41.66551 341.6549 40.5307 341.3837 39.44105zM342.5694 44.23812C 342.5694 46.83897 342.5694 49.43793 342.5694 52.03877C 342.5694 52.68051 342.5694 53.32413 342.5694 53.96588C 342.5488 55.35099 341.6287 56.60436 340.2821 56.96381C 339.2199 57.2461 338.0921 56.92617 337.3235 56.16775C 337.3048 56.43687 337.2618 56.70599 337.1701 56.96569C 336.8279 57.92548 336.0387 58.68767 335.0531 58.95114C 334.1909 59.18074 333.224 59.02266 332.4965 58.49759C 332.3525 58.39408 332.2197 58.27929 332.0963 58.15508C 332.0776 58.43172 332.0345 58.70649 331.941 58.97372C 331.6025 59.9241 330.832 60.675 329.8595 60.94976C 328.988 61.19442 328.0043 61.03633 327.2674 60.50562C 327.129 60.40588 327 60.29485 326.8803 60.17628C 326.8803 60.2892 326.8803 60.40024 326.8803 60.51315C 326.8803 62.05823 326.8803 63.6033 326.8803 65.14649C 326.8803 65.71861 326.8803 66.28883 326.8803 66.86094C 326.8803 67.23545 326.8896 67.60242 326.8298 67.97317C 326.6129 69.33569 325.4421 70.36324 324.103 70.51191C 322.9398 70.64176 321.7784 70.0433 321.1668 69.04588C 320.6918 68.27052 320.7142 67.44058 320.7142 66.57865C 320.7142 65.53041 320.7142 64.48029 320.7142 63.43204C 320.7142 61.93214 320.7142 60.43223 320.7142 58.9342C 320.7142 57.34772 320.7142 55.76125 320.7142 54.17289C 320.7142 52.86306 320.7142 51.55511 320.7142 50.24528C 320.7142 49.80302 320.7068 49.357 320.7068 48.91475C 320.112 49.26102 319.5154 49.6073 318.9207 49.95169C 318.599 50.13801 318.2773 50.3262 317.9538 50.51251C 317.4264 50.81927 316.9065 51.16931 316.2987 51.28223C 315.1092 51.50241 313.9441 51.03757 313.2559 50.0345C 312.7116 49.24408 312.577 48.16385 312.908 47.26051C 313.1642 46.56231 313.6523 46.08618 314.161 45.5743C 315.04 44.68978 315.9209 43.80339 316.7999 42.91887C 318.6402 41.06704 320.4786 39.21709 322.3188 37.36526C 322.7771 36.90419 323.2334 36.445 323.6916 35.98392C 324.0731 35.60001 324.4359 35.1841 324.8492 34.83405C 325.2775 34.47272 325.7544 34.24501 326.3061 34.15279C 326.9158 34.05117 327.5367 34.05305 328.152 34.00977C 329.4462 33.91943 330.7422 33.84604 332.0383 33.77452C 333.2857 33.70489 334.535 33.61832 335.7806 33.76135C 336.9775 33.89873 338.1239 34.22242 339.1432 34.8811C 340.0596 35.47392 340.8376 36.26621 341.4248 37.18836C 342.0682 38.19896 342.3917 39.3206 342.5077 40.50811C 342.6218 41.74831 342.5694 43.00169 342.5694 44.23812z" stroke="none" fill="#000000" fill-rule="nonzero" /></g><g clip-path="url(#74)"><g clip-path="url(#75)"><g clip-path="url(#76)"><g clip-path="url(#77)"><path id="200" transform="matrix(1 0 0 -1 0 842)" d="M95.00935 156.052L503.7159 156.052L503.7159 126.8261L95.00935 126.8261z" stroke="none" fill="#38B6FF" fill-rule="nonzero" /></g></g></g></g><g clip-path="url(#78)"><g clip-path="url(#79)"><g clip-path="url(#80)"><g clip-path="url(#81)"><g clip-path="url(#82)"><g transform="matrix(0.6081047 0 0 0.6081046 350.6224 725.6739)"><g transform="matrix(1 0 0 1 0 0)"><image x="0" y="0" xlink:href="img_07.png" width="210" height="140" /></g></g></g></g></g></g></g><g clip-path="url(#83)"></g></g></g></svg>