<svg xmlns="http://www.w3.org/2000/svg" xmlns:xlink="http://www.w3.org/1999/xlink" id="body_1" preserveAspectRatio="xMinYMin meet" viewBox="0 0 793 1123"><defs><clipPath id="1"><path id="" clip-rule="evenodd" transform="matrix(1 0 0 1 0 0)" d="M0 842L0 -0.25L0 -0.25L595.5 -0.25L595.5 -0.25L595.5 842L595.5 842L0 842z" /></clipPath><clipPath id="2"><path id="" clip-rule="evenodd" transform="matrix(1 0 0 1 0 0)" d="M0 -0.249939L595.5 -0.249939L595.5 -0.249939L595.5 842.0001L595.5 842.0001L0 842.0001z" /></clipPath><clipPath id="3"><path id="" clip-rule="evenodd" transform="matrix(1 0 0 1 0 0)" d="M0 -0.249939L595.5 -0.249939L595.5 -0.249939L595.5 842.0001L595.5 842.0001L0 842.0001z" /></clipPath><clipPath id="4"><path id="" clip-rule="evenodd" transform="matrix(1 0 0 1 0 0)" d="M0 -0.249939L595.5 -0.249939L595.5 -0.249939L595.5 842.0001L595.5 842.0001L0 842.0001z" /></clipPath><clipPath id="5"><path id="" clip-rule="evenodd" transform="matrix(1 0 0 1 0 0)" d="M78.71999 30.71008L522.24 30.71008L522.24 30.71008L522.24 810.9501L522.24 810.9501L78.71999 810.9501z" /></clipPath><clipPath id="6"><path id="" clip-rule="evenodd" transform="matrix(1 0 0 1 0 0)" d="M79.51787 30.75183L522.0178 30.75183L522.0178 30.75183L522.0178 810.7518L522.0178 810.7518L79.51787 810.7518z" /></clipPath><clipPath id="7"><path id="" clip-rule="evenodd" transform="matrix(1 0 0 1 0 0)" d="M0 -0.249939L595.5 -0.249939L595.5 -0.249939L595.5 842.0001L595.5 842.0001L0 842.0001z" /></clipPath><clipPath id="8"><path id="" clip-rule="evenodd" transform="matrix(1 0 0 1 0 0)" d="M0 -0.249939L595.5 -0.249939L595.5 -0.249939L595.5 842.0001L595.5 842.0001L0 842.0001z" /></clipPath><clipPath id="9"><path id="" clip-rule="evenodd" transform="matrix(1 0 0 1 0 0)" d="M404.451 151.557L405.9581 182.27L405.9581 182.27L315.3171 186.7176L315.3171 186.7176L313.8101 156.0045L313.8101 156.0045L404.451 151.557z" /></clipPath><clipPath id="10"><path id="" clip-rule="evenodd" transform="matrix(1 0 0 1 0 0)" d="M315.0675 186.413L313.5605 155.7L313.5605 155.7L404.2014 151.2524L404.2014 151.2524L405.7084 181.9655L405.7084 181.9655L315.0675 186.413z" /></clipPath><clipPath id="11"><path id="" clip-rule="evenodd" transform="matrix(1 0 0 1 0 0)" d="M315.0675 186.413L313.5605 155.7L313.5605 155.7L404.2014 151.2524L404.2014 151.2524L405.7084 181.9655L405.7084 181.9655L315.0675 186.413z" /></clipPath><clipPath id="12"><path id="" clip-rule="evenodd" transform="matrix(1 0 0 1 0 0)" d="M32.57383 306.1061L364.0738 306.1061L364.0738 306.1061L364.0738 482.3561L364.0738 482.3561L32.57383 482.3561z" /></clipPath><clipPath id="13"><path id="" clip-rule="evenodd" transform="matrix(1 0 0 1 0 0)" d="M0 -0.249939L595.5 -0.249939L595.5 -0.249939L595.5 842.0001L595.5 842.0001L0 842.0001z" /></clipPath><clipPath id="14"><path id="" clip-rule="evenodd" transform="matrix(1 0 0 1 0 0)" d="M0 -0.249939L595.5 -0.249939L595.5 -0.249939L595.5 842.0001L595.5 842.0001L0 842.0001z" /></clipPath><clipPath id="15"><path id="" clip-rule="evenodd" transform="matrix(1 0 0 1 0 0)" d="M0 -0.249939L595.5 -0.249939L595.5 -0.249939L595.5 842.0001L595.5 842.0001L0 842.0001z" /></clipPath><clipPath id="16"><path id="" clip-rule="evenodd" transform="matrix(1 0 0 1 0 0)" d="M380.895 337.1788L581.5757 337.1788L581.5757 337.1788L581.5757 450.8387L581.5757 450.8387L380.895 450.8387z" /></clipPath><clipPath id="17"><path id="" clip-rule="evenodd" transform="matrix(1 0 0 1 0 0)" d="M393.645 337.1788L568.4726 337.1788C 575.5142 337.1788 581.2226 342.8872 581.2226 349.9288L581.2226 349.9288L581.2226 438.0887C 581.2226 445.1303 575.5142 450.8387 568.4726 450.8387L568.4726 450.8387L393.645 450.8387C 386.6034 450.8387 380.895 445.1303 380.895 438.0887L380.895 438.0887L380.895 349.9288C 380.895 342.8872 386.6034 337.1788 393.645 337.1788z" /></clipPath><clipPath id="18"><path id="" clip-rule="evenodd" transform="matrix(1 0 0 1 0 0)" d="M380.895 337.1788L581.1318 337.1788L581.1318 337.1788L581.1318 450.8387L581.1318 450.8387L380.895 450.8387z" /></clipPath><clipPath id="19"><path id="" clip-rule="evenodd" transform="matrix(1 0 0 1 0 0)" d="M0 -0.249939L595.5 -0.249939L595.5 -0.249939L595.5 842.0001L595.5 842.0001L0 842.0001z" /></clipPath><clipPath id="20"><path id="" clip-rule="evenodd" transform="matrix(1 0 0 1 0 0)" d="M0 -0.249939L595.5 -0.249939L595.5 -0.249939L595.5 842.0001L595.5 842.0001L0 842.0001z" /></clipPath><clipPath id="21"><path id="" clip-rule="evenodd" transform="matrix(1 0 0 1 0 0)" d="M380.895 337.1788L581.145 337.1788L581.145 337.1788L581.145 451.1788L581.145 451.1788L380.895 451.1788z" /></clipPath><clipPath id="22"><path id="" clip-rule="evenodd" transform="matrix(1 0 0 1 0 0)" d="M380.9014 337.1788L581.3883 337.1788L581.3883 337.1788L581.3883 451.1812L581.3883 451.1812L380.9014 451.1812z" /></clipPath><clipPath id="23"><path id="" clip-rule="evenodd" transform="matrix(1 0 0 1 0 0)" d="M393.6501 337.1788L568.4602 337.1788C 575.5011 337.1788 581.2089 342.8866 581.2089 349.9276L581.2089 349.9276L581.2089 438.0786C 581.2089 445.1195 575.5011 450.8273 568.4602 450.8273L568.4602 450.8273L393.6501 450.8273C 386.6092 450.8273 380.9014 445.1195 380.9014 438.0786L380.9014 438.0786L380.9014 349.9276C 380.9014 342.8866 386.6092 337.1788 393.6501 337.1788z" /></clipPath><clipPath id="24"><path id="" clip-rule="evenodd" transform="matrix(1 0 0 1 0 0)" d="M0 -0.249939L595.5 -0.249939L595.5 -0.249939L595.5 842.0001L595.5 842.0001L0 842.0001z" /></clipPath><clipPath id="25"><path id="" clip-rule="evenodd" transform="matrix(1 0 0 1 0 0)" d="M0 -0.249939L595.5 -0.249939L595.5 -0.249939L595.5 842.0001L595.5 842.0001L0 842.0001z" /></clipPath><clipPath id="26"><path id="" clip-rule="evenodd" transform="matrix(1 0 0 1 0 0)" d="M389.2934 433.2116L385.4085 453.0855L385.4085 453.0855L326.523 441.5746L326.523 441.5746L330.4079 421.7008L330.4079 421.7008L389.2934 433.2116z" /></clipPath><clipPath id="27"><path id="" clip-rule="evenodd" transform="matrix(1 0 0 1 0 0)" d="M326.7037 441.3831L330.5886 421.5092L330.5886 421.5092L389.4741 433.0201L389.4741 433.0201L385.5892 452.894L385.5892 452.894L326.7037 441.3831z" /></clipPath><clipPath id="28"><path id="" clip-rule="evenodd" transform="matrix(1 0 0 1 0 0)" d="M326.7037 441.3831L330.5886 421.5092L330.5886 421.5092L389.4741 433.0201L389.4741 433.0201L385.5892 452.894L385.5892 452.894L326.7037 441.3831z" /></clipPath><clipPath id="29"><path id="" clip-rule="evenodd" transform="matrix(1 0 0 1 0 0)" d="M20.23451 35.35217L351.8026 35.35217L351.8026 35.35217L351.8026 211.6733L351.8026 211.6733L20.23451 211.6733z" /></clipPath><clipPath id="30"><path id="" clip-rule="evenodd" transform="matrix(1 0 0 1 0 0)" d="M0 -0.249939L595.5 -0.249939L595.5 -0.249939L595.5 842.0001L595.5 842.0001L0 842.0001z" /></clipPath><clipPath id="31"><path id="" clip-rule="evenodd" transform="matrix(1 0 0 1 0 0)" d="M0 -0.249939L595.5 -0.249939L595.5 -0.249939L595.5 842.0001L595.5 842.0001L0 842.0001z" /></clipPath><clipPath id="32"><path id="" clip-rule="evenodd" transform="matrix(1 0 0 1 0 0)" d="M0 -0.249939L595.5 -0.249939L595.5 -0.249939L595.5 842.0001L595.5 842.0001L0 842.0001z" /></clipPath><clipPath id="33"><path id="" clip-rule="evenodd" transform="matrix(1 0 0 1 0 0)" d="M413.8312 75.37878L503.5977 75.37878L503.5977 75.37878L503.5977 192.496L503.5977 192.496L413.8312 192.496z" /></clipPath><clipPath id="34"><path id="" clip-rule="evenodd" transform="matrix(1 0 0 1 0 0)" d="M426.5812 75.37878L490.8477 75.37878C 497.8894 75.37878 503.5977 81.08716 503.5977 88.12878L503.5977 88.12878L503.5977 179.6088C 503.5977 186.6505 497.8894 192.3588 490.8477 192.3588L490.8477 192.3588L426.5812 192.3588C 419.5396 192.3588 413.8312 186.6505 413.8312 179.6088L413.8312 179.6088L413.8312 88.12878C 413.8312 81.08716 419.5396 75.37878 426.5812 75.37878z" /></clipPath><clipPath id="35"><path id="" clip-rule="evenodd" transform="matrix(1 0 0 1 0 0)" d="M413.8312 75.37878L503.5977 75.37878L503.5977 75.37878L503.5977 192.496L503.5977 192.496L413.8312 192.496z" /></clipPath><clipPath id="36"><path id="" clip-rule="evenodd" transform="matrix(1 0 0 1 0 0)" d="M0 -0.249939L595.5 -0.249939L595.5 -0.249939L595.5 842.0001L595.5 842.0001L0 842.0001z" /></clipPath><clipPath id="37"><path id="" clip-rule="evenodd" transform="matrix(1 0 0 1 0 0)" d="M0 -0.249939L595.5 -0.249939L595.5 -0.249939L595.5 842.0001L595.5 842.0001L0 842.0001z" /></clipPath><clipPath id="38"><path id="" clip-rule="evenodd" transform="matrix(1 0 0 1 0 0)" d="M413.8312 75.37878L503.748 75.37878L503.748 75.37878L503.748 192.6921L503.748 192.6921L413.8312 192.6921z" /></clipPath><clipPath id="39"><path id="" clip-rule="evenodd" transform="matrix(1 0 0 1 0 0)" d="M413.8322 75.37878L505.2174 75.37878L505.2174 75.37878L505.2174 192.3518L505.2174 192.3518L413.8322 192.3518z" /></clipPath><clipPath id="40"><path id="" clip-rule="evenodd" transform="matrix(1 0 0 1 0 0)" d="M426.5815 75.37878L490.8441 75.37878C 497.8853 75.37878 503.5934 81.08679 503.5934 88.12799L503.5934 88.12799L503.5934 179.6025C 503.5934 186.6437 497.8853 192.3518 490.8441 192.3518L490.8441 192.3518L426.5815 192.3518C 419.5402 192.3518 413.8322 186.6437 413.8322 179.6025L413.8322 179.6025L413.8322 88.12799C 413.8322 81.08679 419.5402 75.37878 426.5815 75.37878z" /></clipPath><clipPath id="41"><path id="" clip-rule="evenodd" transform="matrix(1 0 0 1 0 0)" d="M245.7767 176.1501L568.2125 176.1501L568.2125 176.1501L568.2125 347.5539L568.2125 347.5539L245.7767 347.5539z" /></clipPath><clipPath id="42"><path id="" clip-rule="evenodd" transform="matrix(1 0 0 1 0 0)" d="M0 -0.249939L595.5 -0.249939L595.5 -0.249939L595.5 842.0001L595.5 842.0001L0 842.0001z" /></clipPath><clipPath id="43"><path id="" clip-rule="evenodd" transform="matrix(1 0 0 1 0 0)" d="M0 -0.249939L595.5 -0.249939L595.5 -0.249939L595.5 842.0001L595.5 842.0001L0 842.0001z" /></clipPath><clipPath id="44"><path id="" clip-rule="evenodd" transform="matrix(1 0 0 1 0 0)" d="M0 -0.249939L595.5 -0.249939L595.5 -0.249939L595.5 842.0001L595.5 842.0001L0 842.0001z" /></clipPath><clipPath id="45"><path id="" clip-rule="evenodd" transform="matrix(1 0 0 1 0 0)" d="M265.3668 284.3333L266.8471 314.5034L266.8471 314.5034L175.6352 318.9789L175.6352 318.9789L174.1548 288.8088L174.1548 288.8088L265.3668 284.3333z" /></clipPath><clipPath id="46"><path id="" clip-rule="evenodd" transform="matrix(1 0 0 1 0 0)" d="M266.8584 314.7335L265.3781 284.5635L265.3781 284.5635L174.1661 289.0391L174.1661 289.0391L175.6465 319.2091L175.6465 319.2091L266.8584 314.7335z" /></clipPath><clipPath id="47"><path id="" clip-rule="evenodd" transform="matrix(1 0 0 1 0 0)" d="M266.8584 314.7335L265.3781 284.5635L265.3781 284.5635L174.1661 289.0391L174.1661 289.0391L175.6465 319.2091L175.6465 319.2091L266.8584 314.7335z" /></clipPath><clipPath id="48"><path id="" clip-rule="evenodd" transform="matrix(1 0 0 1 0 0)" d="M0 -0.249939L595.5 -0.249939L595.5 -0.249939L595.5 842.0001L595.5 842.0001L0 842.0001z" /></clipPath><clipPath id="49"><path id="" clip-rule="evenodd" transform="matrix(1 0 0 1 0 0)" d="M0 -0.249939L595.5 -0.249939L595.5 -0.249939L595.5 842.0001L595.5 842.0001L0 842.0001z" /></clipPath><clipPath id="50"><path id="" clip-rule="evenodd" transform="matrix(1 0 0 1 0 0)" d="M58.94257 190.5785L163.8882 190.5785L163.8882 190.5785L163.8882 307.8225L163.8882 307.8225L58.94257 307.8225z" /></clipPath><clipPath id="51"><path id="" clip-rule="evenodd" transform="matrix(1 0 0 1 0 0)" d="M71.69257 190.5785L151.1382 190.5785C 158.1799 190.5785 163.8882 196.2869 163.8882 203.3285L163.8882 203.3285L163.8882 294.8085C 163.8882 301.8501 158.1799 307.5585 151.1382 307.5585L151.1382 307.5585L71.69257 307.5585C 64.65093 307.5585 58.94257 301.8501 58.94257 294.8085L58.94257 294.8085L58.94257 203.3285C 58.94257 196.2869 64.65093 190.5785 71.69257 190.5785z" /></clipPath><clipPath id="52"><path id="" clip-rule="evenodd" transform="matrix(1 0 0 1 0 0)" d="M58.94257 190.5785L163.8882 190.5785L163.8882 190.5785L163.8882 307.4125L163.8882 307.4125L58.94257 307.4125z" /></clipPath><clipPath id="53"><path id="" clip-rule="evenodd" transform="matrix(1 0 0 1 0 0)" d="M0 -0.249939L595.5 -0.249939L595.5 -0.249939L595.5 842.0001L595.5 842.0001L0 842.0001z" /></clipPath><clipPath id="54"><path id="" clip-rule="evenodd" transform="matrix(1 0 0 1 0 0)" d="M0 -0.249939L595.5 -0.249939L595.5 -0.249939L595.5 842.0001L595.5 842.0001L0 842.0001z" /></clipPath><clipPath id="55"><path id="" clip-rule="evenodd" transform="matrix(1 0 0 1 0 0)" d="M58.94257 190.5785L163.6113 190.5785L163.6113 190.5785L163.6113 307.8918L163.6113 307.8918L58.94257 307.8918z" /></clipPath><clipPath id="56"><path id="" clip-rule="evenodd" transform="matrix(1 0 0 1 0 0)" d="M58.94445 190.5785L164.9512 190.5785L164.9512 190.5785L164.9512 307.5515L164.9512 307.5515L58.94445 307.5515z" /></clipPath><clipPath id="57"><path id="" clip-rule="evenodd" transform="matrix(1 0 0 1 0 0)" d="M71.69369 190.5785L151.1346 190.5785C 158.1758 190.5785 163.8838 196.2865 163.8838 203.3277L163.8838 203.3277L163.8838 294.8022C 163.8838 301.8435 158.1758 307.5515 151.1346 307.5515L151.1346 307.5515L71.69369 307.5515C 64.65247 307.5515 58.94445 301.8435 58.94445 294.8022L58.94445 294.8022L58.94445 203.3277C 58.94445 196.2865 64.65247 190.5785 71.69369 190.5785z" /></clipPath><clipPath id="58"><path id="" clip-rule="evenodd" transform="matrix(1 0 0 1 0 0)" d="M0 -0.249939L595.5 -0.249939L595.5 -0.249939L595.5 842.0001L595.5 842.0001L0 842.0001z" /></clipPath><clipPath id="59"><path id="" clip-rule="evenodd" transform="matrix(1 0 0 1 0 0)" d="M0 -0.249939L595.5 -0.249939L595.5 -0.249939L595.5 842.0001L595.5 842.0001L0 842.0001z" /></clipPath><clipPath id="60"><path id="" clip-rule="evenodd" transform="matrix(1 0 0 1 0 0)" d="M43.2517 526.2851L327.6046 526.2851L327.6046 526.2851L327.6046 810.638L327.6046 810.638L43.2517 810.638z" /></clipPath><clipPath id="61"><path id="" clip-rule="evenodd" transform="matrix(1 0 0 1 0 0)" d="M185.4281 526.2851C 106.9063 526.2851 43.2517 589.9396 43.2517 668.4615C 43.2517 746.9834 106.9063 810.638 185.4281 810.638C 263.95 810.638 327.6046 746.9834 327.6046 668.4615C 327.6046 589.9396 263.95 526.2851 185.4281 526.2851z" /></clipPath><clipPath id="62"><path id="" clip-rule="evenodd" transform="matrix(1 0 0 1 0 0)" d="M43.2517 526.2851L327.6046 526.2851L327.6046 526.2851L327.6046 810.638L327.6046 810.638L43.2517 810.638z" /></clipPath><clipPath id="63"><path id="" clip-rule="evenodd" transform="matrix(1 0 0 1 0 0)" d="M0 -0.249939L595.5 -0.249939L595.5 -0.249939L595.5 842.0001L595.5 842.0001L0 842.0001z" /></clipPath><clipPath id="64"><path id="" clip-rule="evenodd" transform="matrix(1 0 0 1 0 0)" d="M0 -0.249939L595.5 -0.249939L595.5 -0.249939L595.5 842.0001L595.5 842.0001L0 842.0001z" /></clipPath><clipPath id="65"><path id="" clip-rule="evenodd" transform="matrix(1 0 0 1 0 0)" d="M43.2517 526.2851L327.5017 526.2851L327.5017 526.2851L327.5017 810.5351L327.5017 810.5351L43.2517 810.5351z" /></clipPath><clipPath id="66"><path id="" clip-rule="evenodd" transform="matrix(1 0 0 1 0 0)" d="M43.2517 526.2851L327.5955 526.2851L327.5955 526.2851L327.5955 810.6288L327.5955 810.6288L43.2517 810.6288z" /></clipPath><clipPath id="67"><path id="" clip-rule="evenodd" transform="matrix(1 0 0 1 0 0)" d="M185.4236 526.2851C 106.9042 526.2851 43.2517 589.9376 43.2517 668.457C 43.2517 746.9763 106.9042 810.6288 185.4236 810.6288C 263.9429 810.6288 327.5955 746.9763 327.5955 668.457C 327.5955 589.9376 263.9429 526.2851 185.4236 526.2851z" /></clipPath><clipPath id="68"><path id="" clip-rule="evenodd" transform="matrix(1 0 0 1 0 0)" d="M0 -0.249939L595.5 -0.249939L595.5 -0.249939L595.5 842.0001L595.5 842.0001L0 842.0001z" /></clipPath><clipPath id="69"><path id="" clip-rule="evenodd" transform="matrix(1 0 0 1 0 0)" d="M0 -0.249939L595.5 -0.249939L595.5 -0.249939L595.5 842.0001L595.5 842.0001L0 842.0001z" /></clipPath><clipPath id="70"><path id="" clip-rule="evenodd" transform="matrix(1 0 0 1 0 0)" d="M0 -0.249939L595.5 -0.249939L595.5 -0.249939L595.5 842.0001L595.5 842.0001L0 842.0001z" /></clipPath><clipPath id="71"><path id="" clip-rule="evenodd" transform="matrix(1 0 0 1 0 0)" d="M474.3106 728.7874L479.5123 778.7675L479.5123 778.7675L330.3181 794.2949L330.3181 794.2949L325.1164 744.3148L325.1164 744.3148L474.3106 728.7874z" /></clipPath><clipPath id="72"><path id="" clip-rule="evenodd" transform="matrix(1 0 0 1 0 0)" d="M479.5026 778.6741L474.3009 728.6941L474.3009 728.6941L325.1067 744.2216L325.1067 744.2216L330.3084 794.2016L330.3084 794.2016L479.5026 778.6741z" /></clipPath><clipPath id="73"><path id="" clip-rule="evenodd" transform="matrix(1 0 0 1 0 0)" d="M479.5026 778.6741L474.3009 728.6941L474.3009 728.6941L325.1067 744.2216L325.1067 744.2216L330.3084 794.2016L330.3084 794.2016L479.5026 778.6741z" /></clipPath><clipPath id="74"><path id="" clip-rule="evenodd" transform="matrix(1 0 0 1 0 0)" d="M431.7896 484.5262L527.0395 484.5262L527.0395 484.5262L527.0395 590.2761L527.0395 590.2761L431.7896 590.2761z" /></clipPath><clipPath id="75"><path id="" clip-rule="evenodd" transform="matrix(1 0 0 1 0 0)" d="M0 -0.249939L595.5 -0.249939L595.5 -0.249939L595.5 842.0001L595.5 842.0001L0 842.0001z" /></clipPath><clipPath id="76"><path id="" clip-rule="evenodd" transform="matrix(1 0 0 1 0 0)" d="M503.0795 14.9314L581.0795 14.9314L581.0795 14.9314L581.0795 59.1814L581.0795 59.1814L503.0795 59.1814z" /></clipPath><clipPath id="77"><path id="" clip-rule="evenodd" transform="matrix(1 0 0 1 0 0)" d="M0 -0.249939L595.5 -0.249939L595.5 -0.249939L595.5 842.0001L595.5 842.0001L0 842.0001z" /></clipPath><clipPath id="78"><path id="" clip-rule="evenodd" transform="matrix(1 0 0 1 0 0)" d="M0 -0.249939L595.5 -0.249939L595.5 -0.249939L595.5 842.0001L595.5 842.0001L0 842.0001z" /></clipPath><clipPath id="79"><path id="" clip-rule="evenodd" transform="matrix(1 0 0 1 0 0)" d="M44.63732 71.09546L74.63732 71.09546L74.63732 71.09546L74.63732 95.84546L74.63732 95.84546L44.63732 95.84546z" /></clipPath><clipPath id="80"><path id="" clip-rule="evenodd" transform="matrix(1 0 0 1 0 0)" d="M44.63732 83.4621C 44.63732 90.29199 50.17405 95.82874 57.00396 95.82874L57.00396 95.82874L62.05116 95.82874C 68.88106 95.82874 74.41779 90.29199 74.41779 83.4621C 74.41779 76.63214 68.88106 71.09546 62.05116 71.09546L62.05116 71.09546L57.00396 71.09546C 50.17405 71.09546 44.63732 76.63214 44.63732 83.4621z" /></clipPath><clipPath id="81"><path id="" clip-rule="evenodd" transform="matrix(1 0 0 1 0 0)" d="M45.38732 71.84546L73.88732 71.84546L73.88732 71.84546L73.88732 95.09546L73.88732 95.09546L45.38732 95.09546z" /></clipPath><clipPath id="82"><path id="" clip-rule="evenodd" transform="matrix(1 0 0 1 0 0)" d="M57.00396 71.99542L62.05116 71.99542C 68.38401 71.99542 73.5178 77.12921 73.5178 83.4621C 73.5178 89.79492 68.38401 94.92871 62.05116 94.92871L62.05116 94.92871L57.00396 94.92871C 50.67111 94.92871 45.53732 89.79492 45.53732 83.4621C 45.53732 77.12921 50.67111 71.99542 57.00396 71.99542z" /></clipPath><clipPath id="83"><path id="" clip-rule="evenodd" transform="matrix(1 0 0 1 0 0)" d="M45.38732 71.57184L73.88732 71.57184L73.88732 71.57184L73.88732 95.57184L73.88732 95.57184L45.38732 95.57184z" /></clipPath><clipPath id="84"><path id="" clip-rule="evenodd" transform="matrix(1 0 0 1 0 0)" d="M44.64288 68.59412L74.64288 68.59412L74.64288 68.59412L74.64288 98.59412L74.64288 98.59412L44.64288 98.59412z" /></clipPath><clipPath id="85"><path id="" clip-rule="evenodd" transform="matrix(1 0 0 1 0 0)" d="M0 -0.249939L595.5 -0.249939L595.5 -0.249939L595.5 842.0001L595.5 842.0001L0 842.0001z" /></clipPath><clipPath id="86"><path id="" clip-rule="evenodd" transform="matrix(1 0 0 1 0 0)" d="M0 -0.249939L595.5 -0.249939L595.5 -0.249939L595.5 842.0001L595.5 842.0001L0 842.0001z" /></clipPath><clipPath id="87"><path id="" clip-rule="evenodd" transform="matrix(1 0 0 1 0 0)" d="M44.63732 71.09546L74.63732 71.09546L74.63732 71.09546L74.63732 95.84546L74.63732 95.84546L44.63732 95.84546z" /></clipPath><clipPath id="88"><path id="" clip-rule="evenodd" transform="matrix(1 0 0 1 0 0)" d="M44.63732 83.4621C 44.63732 90.29199 50.17405 95.82874 57.00396 95.82874L57.00396 95.82874L62.05116 95.82874C 68.88106 95.82874 74.41779 90.29199 74.41779 83.4621C 74.41779 76.63214 68.88106 71.09546 62.05116 71.09546L62.05116 71.09546L57.00396 71.09546C 50.17405 71.09546 44.63732 76.63214 44.63732 83.4621z" /></clipPath><clipPath id="89"><path id="" clip-rule="evenodd" transform="matrix(1 0 0 1 0 0)" d="M44.63732 71.09546L74.63732 71.09546L74.63732 71.09546L74.63732 95.84546L74.63732 95.84546L44.63732 95.84546z" /></clipPath><clipPath id="90"><path id="" clip-rule="evenodd" transform="matrix(1 0 0 1 0 0)" d="M44.63732 71.09546L74.63416 71.09546L74.63416 71.09546L74.63416 95.83868L74.63416 95.83868L44.63732 95.83868z" /></clipPath><clipPath id="91"><path id="" clip-rule="evenodd" transform="matrix(1 0 0 1 0 0)" d="M44.63732 83.45874C 44.63732 90.28674 50.17347 95.82202 57.00266 95.82202L57.00266 95.82202L62.04932 95.82202C 68.87851 95.82202 74.41467 90.28674 74.41467 83.45874C 74.41467 76.63068 68.87851 71.09546 62.04932 71.09546L62.04932 71.09546L57.00266 71.09546C 50.17347 71.09546 44.63732 76.63068 44.63732 83.45874z" /></clipPath><clipPath id="92"><path id="" clip-rule="evenodd" transform="matrix(1 0 0 1 0 0)" d="M0 -0.249939L595.5 -0.249939L595.5 -0.249939L595.5 842.0001L595.5 842.0001L0 842.0001z" /></clipPath><clipPath id="93"><path id="" clip-rule="evenodd" transform="matrix(1 0 0 1 0 0)" d="M0 -0.249939L595.5 -0.249939L595.5 -0.249939L595.5 842.0001L595.5 842.0001L0 842.0001z" /></clipPath><clipPath id="94"><path id="" clip-rule="evenodd" transform="matrix(1 0 0 1 0 0)" d="M0 -0.249939L595.5 -0.249939L595.5 -0.249939L595.5 842.0001L595.5 842.0001L0 842.0001z" /></clipPath><clipPath id="95"><path id="" clip-rule="evenodd" transform="matrix(1 0 0 1 0 0)" d="M267.8573 211.6733L297.8573 211.6733L297.8573 211.6733L297.8573 236.4233L297.8573 236.4233L267.8573 236.4233z" /></clipPath><clipPath id="96"><path id="" clip-rule="evenodd" transform="matrix(1 0 0 1 0 0)" d="M267.8573 224.04C 267.8573 230.8699 273.394 236.4066 280.224 236.4066L280.224 236.4066L285.2711 236.4066C 292.101 236.4066 297.6378 230.8699 297.6378 224.04C 297.6378 217.2101 292.101 211.6733 285.2711 211.6733L285.2711 211.6733L280.224 211.6733C 273.394 211.6733 267.8573 217.2101 267.8573 224.04z" /></clipPath><clipPath id="97"><path id="" clip-rule="evenodd" transform="matrix(1 0 0 1 0 0)" d="M268.6073 212.4233L297.1073 212.4233L297.1073 212.4233L297.1073 235.6733L297.1073 235.6733L268.6073 235.6733z" /></clipPath><clipPath id="98"><path id="" clip-rule="evenodd" transform="matrix(1 0 0 1 0 0)" d="M280.224 212.5733L285.2711 212.5733C 291.604 212.5733 296.7378 217.7072 296.7378 224.04C 296.7378 230.3728 291.604 235.5066 285.2711 235.5066L285.2711 235.5066L280.224 235.5066C 273.8911 235.5066 268.7573 230.3728 268.7573 224.04C 268.7573 217.7072 273.8911 212.5733 280.224 212.5733z" /></clipPath><clipPath id="99"><path id="" clip-rule="evenodd" transform="matrix(1 0 0 1 0 0)" d="M268.6073 212.1497L297.1073 212.1497L297.1073 212.1497L297.1073 236.1497L297.1073 236.1497L268.6073 236.1497z" /></clipPath><clipPath id="100"><path id="" clip-rule="evenodd" transform="matrix(1 0 0 1 0 0)" d="M267.8629 209.172L297.8629 209.172L297.8629 209.172L297.8629 239.172L297.8629 239.172L267.8629 239.172z" /></clipPath><clipPath id="101"><path id="" clip-rule="evenodd" transform="matrix(1 0 0 1 0 0)" d="M0 -0.249939L595.5 -0.249939L595.5 -0.249939L595.5 842.0001L595.5 842.0001L0 842.0001z" /></clipPath><clipPath id="102"><path id="" clip-rule="evenodd" transform="matrix(1 0 0 1 0 0)" d="M0 -0.249939L595.5 -0.249939L595.5 -0.249939L595.5 842.0001L595.5 842.0001L0 842.0001z" /></clipPath><clipPath id="103"><path id="" clip-rule="evenodd" transform="matrix(1 0 0 1 0 0)" d="M267.8573 211.6733L297.8573 211.6733L297.8573 211.6733L297.8573 236.4233L297.8573 236.4233L267.8573 236.4233z" /></clipPath><clipPath id="104"><path id="" clip-rule="evenodd" transform="matrix(1 0 0 1 0 0)" d="M267.8573 224.04C 267.8573 230.8699 273.394 236.4066 280.224 236.4066L280.224 236.4066L285.2711 236.4066C 292.101 236.4066 297.6378 230.8699 297.6378 224.04C 297.6378 217.2101 292.101 211.6733 285.2711 211.6733L285.2711 211.6733L280.224 211.6733C 273.394 211.6733 267.8573 217.2101 267.8573 224.04z" /></clipPath><clipPath id="105"><path id="" clip-rule="evenodd" transform="matrix(1 0 0 1 0 0)" d="M267.8573 211.6733L297.8573 211.6733L297.8573 211.6733L297.8573 236.4233L297.8573 236.4233L267.8573 236.4233z" /></clipPath><clipPath id="106"><path id="" clip-rule="evenodd" transform="matrix(1 0 0 1 0 0)" d="M267.8573 211.6733L297.8542 211.6733L297.8542 211.6733L297.8542 236.4166L297.8542 236.4166L267.8573 236.4166z" /></clipPath><clipPath id="107"><path id="" clip-rule="evenodd" transform="matrix(1 0 0 1 0 0)" d="M267.8573 224.0366C 267.8573 230.8646 273.3935 236.3999 280.2226 236.3999L280.2226 236.3999L285.2693 236.3999C 292.0985 236.3999 297.6346 230.8646 297.6346 224.0366C 297.6346 217.2086 292.0985 211.6733 285.2693 211.6733L285.2693 211.6733L280.2226 211.6733C 273.3935 211.6733 267.8573 217.2086 267.8573 224.0366z" /></clipPath><clipPath id="108"><path id="" clip-rule="evenodd" transform="matrix(1 0 0 1 0 0)" d="M0 -0.249939L595.5 -0.249939L595.5 -0.249939L595.5 842.0001L595.5 842.0001L0 842.0001z" /></clipPath><clipPath id="109"><path id="" clip-rule="evenodd" transform="matrix(1 0 0 1 0 0)" d="M0 -0.249939L595.5 -0.249939L595.5 -0.249939L595.5 842.0001L595.5 842.0001L0 842.0001z" /></clipPath><clipPath id="110"><path id="" clip-rule="evenodd" transform="matrix(1 0 0 1 0 0)" d="M0 -0.249939L595.5 -0.249939L595.5 -0.249939L595.5 842.0001L595.5 842.0001L0 842.0001z" /></clipPath><clipPath id="111"><path id="" clip-rule="evenodd" transform="matrix(1 0 0 1 0 0)" d="M59.52756 337.6289L89.52756 337.6289L89.52756 337.6289L89.52756 362.3789L89.52756 362.3789L59.52756 362.3789z" /></clipPath><clipPath id="112"><path id="" clip-rule="evenodd" transform="matrix(1 0 0 1 0 0)" d="M59.52756 349.9955C 59.52756 356.8254 65.06429 362.3622 71.8942 362.3622L71.8942 362.3622L76.94139 362.3622C 83.7713 362.3622 89.30804 356.8254 89.30804 349.9955C 89.30804 343.1656 83.7713 337.6289 76.94139 337.6289L76.94139 337.6289L71.8942 337.6289C 65.06429 337.6289 59.52756 343.1656 59.52756 349.9955z" /></clipPath><clipPath id="113"><path id="" clip-rule="evenodd" transform="matrix(1 0 0 1 0 0)" d="M60.27756 338.3789L88.77756 338.3789L88.77756 338.3789L88.77756 361.6289L88.77756 361.6289L60.27756 361.6289z" /></clipPath><clipPath id="114"><path id="" clip-rule="evenodd" transform="matrix(1 0 0 1 0 0)" d="M71.8942 338.5289L76.94139 338.5289C 83.27425 338.5289 88.40804 343.6627 88.40804 349.9955C 88.40804 356.3284 83.27425 361.4622 76.94139 361.4622L76.94139 361.4622L71.8942 361.4622C 65.56135 361.4622 60.42756 356.3284 60.42756 349.9955C 60.42756 343.6627 65.56135 338.5289 71.8942 338.5289z" /></clipPath><clipPath id="115"><path id="" clip-rule="evenodd" transform="matrix(1 0 0 1 0 0)" d="M60.27756 338.1053L88.77756 338.1053L88.77756 338.1053L88.77756 362.1053L88.77756 362.1053L60.27756 362.1053z" /></clipPath><clipPath id="116"><path id="" clip-rule="evenodd" transform="matrix(1 0 0 1 0 0)" d="M59.53312 335.1276L89.53312 335.1276L89.53312 335.1276L89.53312 365.1276L89.53312 365.1276L59.53312 365.1276z" /></clipPath><clipPath id="117"><path id="" clip-rule="evenodd" transform="matrix(1 0 0 1 0 0)" d="M0 -0.249939L595.5 -0.249939L595.5 -0.249939L595.5 842.0001L595.5 842.0001L0 842.0001z" /></clipPath><clipPath id="118"><path id="" clip-rule="evenodd" transform="matrix(1 0 0 1 0 0)" d="M0 -0.249939L595.5 -0.249939L595.5 -0.249939L595.5 842.0001L595.5 842.0001L0 842.0001z" /></clipPath><clipPath id="119"><path id="" clip-rule="evenodd" transform="matrix(1 0 0 1 0 0)" d="M59.52756 337.6289L89.52756 337.6289L89.52756 337.6289L89.52756 362.3789L89.52756 362.3789L59.52756 362.3789z" /></clipPath><clipPath id="120"><path id="" clip-rule="evenodd" transform="matrix(1 0 0 1 0 0)" d="M59.52756 349.9955C 59.52756 356.8254 65.06429 362.3622 71.8942 362.3622L71.8942 362.3622L76.94139 362.3622C 83.7713 362.3622 89.30804 356.8254 89.30804 349.9955C 89.30804 343.1656 83.7713 337.6289 76.94139 337.6289L76.94139 337.6289L71.8942 337.6289C 65.06429 337.6289 59.52756 343.1656 59.52756 349.9955z" /></clipPath><clipPath id="121"><path id="" clip-rule="evenodd" transform="matrix(1 0 0 1 0 0)" d="M59.52756 337.6289L89.52756 337.6289L89.52756 337.6289L89.52756 362.3789L89.52756 362.3789L59.52756 362.3789z" /></clipPath><clipPath id="122"><path id="" clip-rule="evenodd" transform="matrix(1 0 0 1 0 0)" d="M59.52756 337.6289L89.5244 337.6289L89.5244 337.6289L89.5244 362.3722L89.5244 362.3722L59.52756 362.3722z" /></clipPath><clipPath id="123"><path id="" clip-rule="evenodd" transform="matrix(1 0 0 1 0 0)" d="M59.52756 349.9922C 59.52756 356.8202 65.06371 362.3554 71.8929 362.3554L71.8929 362.3554L76.93956 362.3554C 83.76875 362.3554 89.3049 356.8202 89.3049 349.9922C 89.3049 343.1641 83.76875 337.6289 76.93956 337.6289L76.93956 337.6289L71.8929 337.6289C 65.06371 337.6289 59.52756 343.1641 59.52756 349.9922z" /></clipPath><clipPath id="124"><path id="" clip-rule="evenodd" transform="matrix(1 0 0 1 0 0)" d="M0 -0.249939L595.5 -0.249939L595.5 -0.249939L595.5 842.0001L595.5 842.0001L0 842.0001z" /></clipPath><clipPath id="125"><path id="" clip-rule="evenodd" transform="matrix(1 0 0 1 0 0)" d="M0 -0.249939L595.5 -0.249939L595.5 -0.249939L595.5 842.0001L595.5 842.0001L0 842.0001z" /></clipPath><clipPath id="126"><path id="" clip-rule="evenodd" transform="matrix(1 0 0 1 0 0)" d="M0 -0.249939L595.5 -0.249939L595.5 -0.249939L595.5 842.0001L595.5 842.0001L0 842.0001z" /></clipPath><clipPath id="127"><path id="" clip-rule="evenodd" transform="matrix(1 0 0 1 0 0)" d="M264.9806 774.6107L291.4341 750.1931L291.4341 750.1931L327.0429 788.7711L327.0429 788.7711L300.5895 813.1886L300.5895 813.1886L264.9806 774.6107z" /></clipPath><clipPath id="128"><path id="" clip-rule="evenodd" transform="matrix(1 0 0 1 0 0)" d="M264.9806 774.6107L291.4341 750.1931L291.4341 750.1931L327.0429 788.7711L327.0429 788.7711L300.5895 813.1886L300.5895 813.1886L264.9806 774.6107z" /></clipPath><clipPath id="129"><path id="" clip-rule="evenodd" transform="matrix(1 0 0 1 0 0)" d="M264.9806 774.6107L291.4341 750.1931L291.4341 750.1931L327.0429 788.7711L327.0429 788.7711L300.5895 813.1886L300.5895 813.1886L264.9806 774.6107z" /></clipPath></defs><g transform="matrix(1.333333 0 0 1.333333 0 0)"><g clip-path="url(#1)"><g clip-path="url(#2)"><path id="1" transform="matrix(1 0 0 -1 0 842)" d="M0 842.2499L595.4999 842.2499L595.4999 -6.103516E-05L0 -6.103516E-05z" stroke="none" fill="#FFFFFF" fill-rule="nonzero" /></g><g clip-path="url(#3)"><path id="2" transform="matrix(1 0 0 -1 0 842)" d="M0 842.2499L595.4999 842.2499L595.4999 -6.103516E-05L0 -6.103516E-05z" stroke="none" fill="#FFFFFF" fill-rule="nonzero" /></g><g clip-path="url(#4)"><g><g clip-path="url(#5)"><g clip-path="url(#6)"><g transform="matrix(0 0.5128205 -0.5127462 0 522.0178 30.75189)"><g transform="matrix(1 0 0 1 0 0)"><image x="0" y="0" xlink:href="img_01.png" width="1521" height="863" /></g></g></g></g></g></g><g clip-path="url(#7)"><g clip-path="url(#8)"><g clip-path="url(#9)"><g clip-path="url(#10)"><g clip-path="url(#11)"><path id="4" transform="matrix(1 0 0 -1 0 842)" d="M382.5252 687.9448C 387.6699 686.6937 392.9502 686.2406 398.2088 686.6475C 390.8109 677.5684 381.2621 670.3226 370.6622 665.5085C 359.6094 660.4857 347.164 657.8796 335.0322 658.8501C 328.4574 659.3773 321.5711 661.1741 316.965 666.2708C 316.3593 666.9401 314.6082 666.8071 315.5326 665.7841C 319.7452 661.1241 325.7443 658.7976 331.7903 657.8262C 338.022 656.8244 344.501 657.0349 350.7317 657.9115C 363.3666 659.6884 375.5233 664.6542 385.8703 672.1954C 390.9074 675.8661 395.477 680.1563 399.4749 684.9536C 399.6793 678.1335 400.9801 671.373 403.3347 664.9675C 403.5085 664.4974 404.0216 664.1609 404.5044 664.1017C 404.8543 664.0585 405.4062 664.2213 405.2301 664.7006C 402.5968 671.8574 401.2954 679.4263 401.3951 687.0601C 401.3963 687.1506 401.3733 687.2399 401.3319 687.3245C 401.4758 687.8799 400.2522 688.4435 399.8677 688.3945C 394.1017 687.6386 388.2405 687.9144 382.5819 689.291C 381.2416 689.6171 381.4654 688.2037 382.5252 687.9448z" stroke="none" fill="#000000" fill-rule="nonzero" /></g></g></g></g></g><g clip-path="url(#12)"><g transform="matrix(0.5919642 0 0 0.5914429 32.57383 306.1061)"><g transform="matrix(1 0 0 1 0 0)"><image x="0" y="0" xlink:href="img_02.png" width="560" height="298" /></g></g></g><g clip-path="url(#13)"></g><g clip-path="url(#14)"><g clip-path="url(#15)"><g clip-path="url(#16)"><g clip-path="url(#17)"><g clip-path="url(#18)"><g transform="matrix(0.3403876 0 0 0.340299 378.8467 337.1788)"><g transform="matrix(1 0 0 1 0 0)"><image x="0" y="0" xlink:href="img_03.png" width="600" height="334" /></g></g></g></g></g></g></g><g clip-path="url(#19)"><g clip-path="url(#20)"><g clip-path="url(#21)"><g clip-path="url(#22)"><g clip-path="url(#23)"><path id="151" transform="matrix(1 0 0 -1 0 842)" d="M393.6501 504.8212L568.4601 504.8212C 575.5011 504.8212 581.2089 499.1134 581.2089 492.0724L581.2089 492.0724L581.2089 403.9214C 581.2089 396.8805 575.5011 391.1727 568.4601 391.1727L568.4601 391.1727L393.6501 391.1727C 386.6092 391.1727 380.9014 396.8805 380.9014 403.9214L380.9014 403.9214L380.9014 492.0724C 380.9014 499.1134 386.6092 504.8212 393.6501 504.8212z" stroke="#D8D4D3" stroke-width="5.999999" fill="none" /></g></g></g></g></g><g clip-path="url(#24)"><g clip-path="url(#25)"><g clip-path="url(#26)"><g clip-path="url(#27)"><g clip-path="url(#28)"><path id="152" transform="matrix(1 0 0 -1 0 842)" d="M375.121 410.6201C 378.2265 409.0054 381.5452 407.8793 384.9858 407.3065C 378.8014 402.674 371.5258 399.5541 363.9594 398.1554C 356.0692 396.6949 347.6667 397.0002 340.0308 399.5422C 335.8926 400.9206 331.7551 403.1601 329.6029 407.148C 329.3198 407.6719 328.1744 407.8642 328.6063 407.0638C 330.5749 403.4173 334.0591 400.9797 337.7875 399.4011C 341.6303 397.7736 345.8235 396.8819 349.9625 396.4554C 358.3556 395.5901 366.9455 396.8392 374.7804 400.0215C 378.5945 401.5704 382.2062 403.5894 385.5311 406.023C 384.5848 401.6306 384.3518 397.1024 384.8516 392.6344C 384.8889 392.3063 385.1652 392.0099 385.4658 391.8956C 385.6837 391.8126 386.0637 391.8292 386.0264 392.1635C 385.4664 397.156 385.8267 402.201 387.0968 407.0656C 387.1118 407.1233 387.1112 407.184 387.098 407.2447C 387.2781 407.5769 386.5815 408.131 386.327 408.1606C 382.5054 408.5907 378.7857 409.6954 375.3701 411.4717C 374.561 411.8925 374.4814 410.9535 375.121 410.6201z" stroke="none" fill="#000000" fill-rule="nonzero" /></g></g></g></g></g><g clip-path="url(#29)"><g transform="matrix(0.5920858 0 0 0.5916817 20.23451 35.35217)"><g transform="matrix(1 0 0 1 0 0)"><image x="0" y="0" xlink:href="img_02.png" width="560" height="298" /></g></g></g><g clip-path="url(#30)"></g><g clip-path="url(#31)"><g clip-path="url(#32)"><g clip-path="url(#33)"><g clip-path="url(#34)"><g clip-path="url(#35)"><g transform="matrix(0.2992217 0 0 0.2987998 413.8312 74.21899)"><g transform="matrix(1 0 0 1 0 0)"><image x="0" y="0" xlink:href="img_04.png" width="300" height="399" /></g></g></g></g></g></g></g><g clip-path="url(#36)"><g clip-path="url(#37)"><g clip-path="url(#38)"><g clip-path="url(#39)"><g clip-path="url(#40)"><path id="308" transform="matrix(1 0 0 -1 0 842)" d="M426.5814 766.6212L490.8441 766.6212C 497.8853 766.6212 503.5933 760.9132 503.5933 753.872L503.5933 753.872L503.5933 662.3975C 503.5933 655.3562 497.8853 649.6482 490.8441 649.6482L490.8441 649.6482L426.5814 649.6482C 419.5402 649.6482 413.8322 655.3562 413.8322 662.3975L413.8322 662.3975L413.8322 753.872C 413.8322 760.9132 419.5402 766.6212 426.5814 766.6212z" stroke="#D9D9D9" stroke-width="6" fill="none" /></g></g></g></g></g><g clip-path="url(#41)"><g transform="matrix(0.5757784 0 0 0.5751806 245.7767 176.1501)"><g transform="matrix(1 0 0 1 0 0)"><image x="0" y="0" xlink:href="img_02.png" width="560" height="298" /></g></g></g><g clip-path="url(#42)"></g><g clip-path="url(#43)"><g clip-path="url(#44)"><g clip-path="url(#45)"><g clip-path="url(#46)"><g clip-path="url(#47)"><path id="502" transform="matrix(1 0 0 -1 0 842)" d="M196.1447 552.3311C 191.1133 550.6072 185.8683 549.6502 180.5613 549.536C 188.8554 541.381 199.1255 535.2275 210.2117 531.5534C 221.7718 527.7193 234.4917 526.3834 246.5492 528.5131C 253.0836 529.6685 259.8065 532.0953 263.9241 537.526C 264.4656 538.2393 266.2326 538.2797 265.4063 537.1897C 261.6403 532.2242 255.8577 529.3659 249.8961 527.8278C 243.7516 526.2418 237.2413 525.8168 230.915 526.0673C 218.086 526.5742 205.4257 530.2451 194.3272 536.6097C 188.9245 539.7075 183.9296 543.4566 179.4581 547.7569C 179.9172 541.0701 179.2724 534.3348 177.5374 527.8439C 177.4091 527.3674 176.9279 526.9885 176.4501 526.8836C 176.1038 526.8074 175.5352 526.9127 175.6648 527.3985C 177.6059 534.6509 178.1725 542.1765 177.3295 549.6292C 177.3196 549.7175 177.3339 549.8071 177.3671 549.8939C 177.1689 550.4227 178.3397 551.0928 178.7296 551.0823C 184.5787 550.9047 190.4229 551.7449 195.9569 553.6415C 197.2677 554.0908 197.1812 552.6873 196.1447 552.3311z" stroke="none" fill="#000000" fill-rule="nonzero" /></g></g></g></g></g><g clip-path="url(#48)"><g clip-path="url(#49)"><g clip-path="url(#50)"><g clip-path="url(#51)"><g clip-path="url(#52)"><g transform="matrix(0.3552848 0 0 0.3540426 58.19427 190.5785)"><g transform="matrix(1 0 0 1 0 0)"><image x="0" y="0" xlink:href="img_05.png" width="300" height="330" /></g></g></g></g></g></g></g><g clip-path="url(#53)"><g clip-path="url(#54)"><g clip-path="url(#55)"><g clip-path="url(#56)"><g clip-path="url(#57)"><path id="504" transform="matrix(1 0 0 -1 0 842)" d="M71.69368 651.4215L151.1346 651.4215C 158.1758 651.4215 163.8838 645.7135 163.8838 638.6723L163.8838 638.6723L163.8838 547.1978C 163.8838 540.1565 158.1758 534.4485 151.1346 534.4485L151.1346 534.4485L71.69368 534.4485C 64.65247 534.4485 58.94445 540.1565 58.94445 547.1978L58.94445 547.1978L58.94445 638.6723C 58.94445 645.7135 64.65247 651.4215 71.69368 651.4215z" stroke="#D8D4D3" stroke-width="6" fill="none" /></g></g></g></g></g><g clip-path="url(#58)"><g clip-path="url(#59)"><g clip-path="url(#60)"><g clip-path="url(#61)"><g clip-path="url(#62)"><g transform="matrix(0.6347163 0 0 0.6333454 43.2517 521.7152)"><g transform="matrix(1 0 0 1 0 0)"><image x="0" y="0" xlink:href="img_06.png" width="448" height="463" /></g></g></g></g></g></g></g><g clip-path="url(#63)"><g clip-path="url(#64)"><g clip-path="url(#65)"><g clip-path="url(#66)"><g clip-path="url(#67)"><path id="506" transform="matrix(1 0 0 -1 0 842)" d="M185.4236 315.7149C 106.9042 315.7149 43.2517 252.0624 43.2517 173.543C 43.2517 95.02368 106.9042 31.37115 185.4236 31.37115C 263.9429 31.37115 327.5954 95.02368 327.5954 173.543C 327.5954 252.0624 263.9429 315.7149 185.4236 315.7149z" stroke="#1D70B7" stroke-width="16.5" fill="none" /></g></g></g></g></g><g clip-path="url(#68)"></g><g clip-path="url(#69)"><g clip-path="url(#70)"><g clip-path="url(#71)"><g clip-path="url(#72)"><g clip-path="url(#73)"><path id="564" transform="matrix(1 0 0 -1 0 842)" d="M361.2179 98.68287C 353.1247 95.37324 344.6107 93.31841 335.9176 92.65792C 350.27 79.84859 367.6789 70.53893 386.1984 65.41995C 405.5099 60.07731 426.4937 58.9869 446.0726 63.59394C 456.683 66.09267 467.4856 70.72006 473.7393 80.1055C 474.5619 81.3382 477.4561 81.56212 476.2011 79.67841C 470.4812 71.09676 461.2604 65.83629 451.6247 62.75261C 441.6934 59.57323 431.0552 58.28982 420.6568 58.14444C 399.5704 57.84827 378.4695 62.82227 359.6826 72.40901C 350.537 77.07514 342.0007 82.859 334.2718 89.605C 335.6396 78.53927 335.2014 67.29485 332.9526 56.35979C 332.7861 55.55713 332.0317 54.88497 331.2578 54.66838C 330.6968 54.51105 329.7546 54.6356 329.9225 55.45389C 332.4391 67.67212 332.6766 80.22206 330.6088 92.5259C 330.5844 92.67177 330.5996 92.82177 330.6461 92.96883C 330.2724 93.82968 332.1309 95.04652 332.7713 95.0637C 342.3805 95.28771 351.8878 97.20166 360.7893 100.8428C 362.8978 101.7053 362.8849 99.36652 361.2179 98.68287z" stroke="none" fill="#000000" fill-rule="nonzero" /></g></g></g></g></g><g clip-path="url(#74)"><path id="565" transform="matrix(1 0 0 -1 0 842)" d="M487.2536 337.822C 487.2536 338.3381 487.2033 338.8492 487.1027 339.3554C 487.0021 339.8616 486.8532 340.3531 486.6559 340.8299C 486.4587 341.3067 486.2169 341.7597 485.9305 342.1888C 485.6441 342.618 485.3186 343.015 484.9541 343.3799C 484.5896 343.7448 484.1931 344.0707 483.7644 344.3574C 483.3358 344.6441 482.8834 344.8863 482.4071 345.0838C 481.9309 345.2813 481.44 345.4304 480.9344 345.531C 480.4288 345.6317 479.9182 345.6821 479.4028 345.6821C 478.8873 345.6821 478.3767 345.6317 477.8712 345.531C 477.3655 345.4303 476.8746 345.2813 476.3984 345.0837C 475.9221 344.8862 475.4697 344.6441 475.0411 344.3574C 474.6125 344.0706 474.2159 343.7448 473.8514 343.3799C 473.4869 343.0149 473.1614 342.6179 472.8751 342.1888C 472.5887 341.7596 472.3468 341.3067 472.1496 340.8298C 471.9523 340.353 471.8034 339.8615 471.7028 339.3553C 471.6022 338.8492 471.5519 338.338 471.5519 337.8219C 471.5519 337.3058 471.6022 336.7946 471.7028 336.2885C 471.8034 335.7823 471.9523 335.2908 472.1496 334.8139C 472.3468 334.3371 472.5887 333.8842 472.8751 333.455C 473.1614 333.0259 473.4869 332.6288 473.8514 332.2639C 474.2159 331.899 474.6125 331.5731 475.0411 331.2864C 475.4697 330.9997 475.9221 330.7575 476.3984 330.5601C 476.8746 330.3625 477.3656 330.2134 477.8712 330.1128C 478.3767 330.0121 478.8873 329.9617 479.4028 329.9617C 479.9181 329.9623 480.4284 330.0132 480.9338 330.1143C 481.4391 330.2153 481.9298 330.3647 482.4058 330.5625C 482.8817 330.7602 483.334 331.0024 483.7623 331.2892C 484.1907 331.576 484.5872 331.9018 484.9515 332.2666C 485.3159 332.6314 485.6413 333.0283 485.9277 333.4572C 486.2142 333.8861 486.4561 334.3389 486.6536 334.8154C 486.8511 335.292 487.0003 335.7832 487.1013 336.2892C 487.2022 336.7951 487.253 337.3061 487.2536 337.822zM496.7149 329.7768C 494.2676 322.5977 481.1985 307.7178 480.6434 307.0879C 480.4614 306.8814 480.2445 306.7225 479.9929 306.6113C 479.7412 306.5001 479.4779 306.4467 479.2029 306.4511C 478.9278 306.4556 478.6663 306.5175 478.4184 306.6367C 478.1705 306.756 477.9589 306.9218 477.7836 307.1341C 477.2142 307.8237 463.8134 324.1063 461.4272 331.2521C 459.7476 336.2823 459.7028 343.8214 463.3892 349.3252C 466.5699 354.0743 471.8584 356.7285 479.1075 357.214C 482.946 357.472 490.6841 355.7226 495.1168 349.937C 499.0067 344.8602 499.5444 338.0774 496.7149 329.7768zM479.4028 341.9164C 479.1342 341.9164 478.8683 341.8902 478.6049 341.8378C 478.3416 341.7853 478.0858 341.7077 477.8377 341.6048C 477.5897 341.502 477.354 341.3758 477.1307 341.2265C 476.9074 341.0771 476.7008 340.9074 476.511 340.7173C 476.3211 340.5272 476.1516 340.3204 476.0023 340.0968C 475.8531 339.8733 475.7272 339.6373 475.6244 339.389C 475.5217 339.1406 475.4441 338.8846 475.3917 338.6209C 475.3393 338.3572 475.3131 338.0909 475.3131 337.8221C 475.3131 337.5533 475.3393 337.287 475.3917 337.0233C 475.4441 336.7596 475.5216 336.5036 475.6244 336.2552C 475.7271 336.0068 475.8531 335.7708 476.0023 335.5473C 476.1515 335.3238 476.321 335.1169 476.5109 334.9268C 476.7007 334.7367 476.9073 334.567 477.1306 334.4176C 477.3539 334.2683 477.5895 334.1422 477.8376 334.0392C 478.0857 333.9364 478.3414 333.8587 478.6048 333.8063C 478.8682 333.7538 479.1341 333.7276 479.4026 333.7276C 479.6712 333.7276 479.9371 333.7538 480.2005 333.8062C 480.4638 333.8587 480.7195 333.9364 480.9677 334.0392C 481.2157 334.1421 481.4514 334.2682 481.6747 334.4176C 481.8979 334.567 482.1045 334.7367 482.2944 334.9268C 482.4843 335.1169 482.6538 335.3237 482.803 335.5472C 482.9522 335.7708 483.0782 336.0067 483.1809 336.2551C 483.2837 336.5035 483.3612 336.7596 483.4136 337.0232C 483.466 337.2869 483.4922 337.5532 483.4922 337.822C 483.4919 338.0908 483.4655 338.3569 483.4128 338.6205C 483.3603 338.884 483.2826 339.1399 483.1797 339.3882C 483.0768 339.6364 482.9508 339.8722 482.8016 340.0956C 482.6524 340.3191 482.4829 340.5258 482.2931 340.7158C 482.1033 340.9059 481.8968 341.0756 481.6736 341.225C 481.4505 341.3743 481.215 341.5005 480.967 341.6035C 480.7191 341.7065 480.4635 341.7843 480.2003 341.837C 479.937 341.8896 479.6712 341.9161 479.4028 341.9164zM523.2538 278.0965L523.2538 287.2366L480.7697 265.8705L480.7697 256.7304L523.2538 278.0965zM437.9815 290.1893L449.2068 284.4156L460.4863 290.2172L449.9519 295.6585L437.9815 290.1893zM465.6213 302.8177L454.305 297.6474L464.5967 292.3314L475.3028 297.838L465.6213 302.8177zM520.7423 290.1877L508.7959 295.5178L498.4203 290.1812L509.4494 284.5084L520.7423 290.1877zM505.2877 282.4153L494.3048 288.0644L483.5584 282.5371L494.3974 276.9384L505.2877 282.4153zM468.7035 290.2101L479.4517 284.6584L490.1893 290.1812L479.4182 295.7213L468.7035 290.2101zM483.5337 297.838L494.3048 292.2979L504.3883 297.4843L492.8526 302.6312L483.5337 297.838zM464.0933 276.7589L475.3412 282.5441L464.593 288.0959L453.3223 282.2989L464.0933 276.7589zM490.2408 274.848L479.4479 280.4229L468.2088 274.6421L478.8986 269.1438L490.2408 274.848zM527.0153 290.2896L527.0153 276.9352C 527.0153 276.5792 526.9219 276.2497 526.7352 275.9467C 526.5486 275.6437 526.2964 275.4123 525.9787 275.2526L525.9787 275.2526L479.7331 251.9949C 479.164 251.7122 478.5962 251.7148 478.0297 252.0027L478.0297 252.0027L453.2504 264.7478C 453.0284 264.8619 452.8368 265.0141 452.6754 265.2045C 452.5139 265.3949 452.3951 265.6089 452.3187 265.8467C 452.2424 266.0844 452.2144 266.3278 452.2348 266.5767C 452.2551 266.8256 452.3223 267.0611 452.4363 267.2833C 452.5503 267.5054 452.7024 267.6972 452.8926 267.8588C 453.0828 268.0203 453.2967 268.1393 453.5342 268.2156C 453.7717 268.292 454.0147 268.3199 454.2633 268.2994C 454.5119 268.279 454.7471 268.2116 454.969 268.0974L454.969 268.0974L477.0083 256.7617L477.0083 256.7617L477.0083 265.8824L477.0083 265.8824L435.5517 287.2054L435.5517 287.2054L435.5517 276.9352C 435.5517 276.6855 435.5039 276.4453 435.4085 276.2146C 435.313 275.9839 435.1772 275.7803 435.0008 275.6037C 434.8245 275.4272 434.6211 275.2911 434.3907 275.1956C 434.1603 275.1 433.9204 275.0522 433.671 275.0522C 433.4216 275.0522 433.1817 275.1 432.9513 275.1956C 432.7209 275.2911 432.5175 275.4272 432.3411 275.6037C 432.1648 275.7803 432.0289 275.9839 431.9334 276.2146C 431.838 276.4453 431.7903 276.6855 431.7903 276.9352L431.7903 276.9352L431.7903 290.2896C 431.7917 290.6578 431.8918 290.9968 432.0908 291.3066C 432.2897 291.6164 432.5561 291.8483 432.8902 292.0025L432.8902 292.0025L469.8109 308.9321C 470.0367 309.0385 470.2743 309.0974 470.5237 309.1091C 470.773 309.1207 471.015 309.0841 471.2498 308.9993C 471.4846 308.9144 471.6942 308.7878 471.8786 308.6194C 472.063 308.4509 472.2082 308.2536 472.3141 308.0273C 472.42 307.801 472.4787 307.5631 472.49 307.3134C 472.5012 307.0638 472.4644 306.8215 472.3793 306.5865C 472.2942 306.3516 472.1674 306.1419 471.999 305.9575C 471.8305 305.7731 471.6332 305.628 471.4071 305.5222L471.4071 305.5222L469.9362 304.8319L469.9362 304.8319L479.4182 299.9548L479.4182 299.9548L488.5156 304.634L488.5156 304.634L487.0697 305.3071C 486.8434 305.4123 486.6459 305.5569 486.4771 305.7408C 486.3083 305.9247 486.1811 306.1339 486.0954 306.3685C 486.0098 306.6031 485.9723 306.8452 485.9828 307.0947C 485.9934 307.3442 486.0513 307.5823 486.1565 307.8087C 486.2617 308.0352 486.4062 308.2329 486.5899 308.4018C 486.7737 308.5707 486.9827 308.698 487.2171 308.7836C 487.4514 308.8693 487.6932 308.9067 487.9425 308.896C 488.1917 308.8853 488.4294 308.8272 488.6556 308.7218C 495.4657 305.5513 488.7012 308.606 525.8638 292.0255C 526.2113 291.8768 526.4895 291.6449 526.6985 291.3297C 526.9076 291.0146 527.0131 290.6678 527.0153 290.2896L527.0153 290.2896L527.0153 290.2896zM446.308 271.9733C 446.0248 271.8822 445.7699 271.7404 445.5431 271.5477C 445.3163 271.3551 445.135 271.1264 444.9991 270.8616C 444.8631 270.5967 444.783 270.316 444.7586 270.0192C 444.7342 269.7225 444.7674 269.4324 444.8583 269.1489C 444.9491 268.8654 445.0907 268.61 445.283 268.3829C 445.4753 268.1558 445.7036 267.9741 445.9681 267.8379C 446.2325 267.7017 446.5129 267.6213 446.8093 267.5968C 447.1057 267.5722 447.3955 267.6053 447.6787 267.6962C 447.9619 267.787 448.217 267.9287 448.4439 268.1211C 448.6709 268.3135 448.8524 268.5421 448.9886 268.8068C 449.1248 269.0715 449.2052 269.3522 449.2298 269.6489C 449.2545 269.9456 449.2215 270.2358 449.1309 270.5193C 449.04 270.8032 448.8984 271.0588 448.706 271.2862C 448.5135 271.5136 448.285 271.6955 448.0203 271.8318C 447.7556 271.9682 447.4749 272.0486 447.1782 272.0731C 446.8815 272.0976 446.5914 272.0643 446.308 271.9733L446.308 271.9733L446.308 271.9733zM441.5592 272.6343C 441.4231 272.3696 441.2416 272.1411 441.0147 271.9487C 440.7878 271.7562 440.5328 271.6146 440.2496 271.5238C 439.9665 271.4329 439.6767 271.3998 439.3804 271.4244C 439.084 271.4489 438.8037 271.5294 438.5393 271.6656C 438.2749 271.8018 438.0466 271.9835 437.8544 272.2107C 437.6623 272.4378 437.5208 272.6932 437.4301 272.9767C 437.3393 273.2602 437.3062 273.5503 437.3308 273.847C 437.3553 274.1437 437.4356 274.4244 437.5717 274.6891L437.5717 274.6891L437.5717 274.6893C 437.7078 274.954 437.8893 275.1826 438.1162 275.375C 438.3431 275.5674 438.5981 275.709 438.8813 275.7999C 439.1645 275.8907 439.4543 275.9238 439.7506 275.8992C 440.047 275.8746 440.3273 275.7942 440.5917 275.658C 440.8561 275.5217 441.0844 275.34 441.2766 275.1128C 441.4688 274.8856 441.6102 274.6303 441.7009 274.3467C 441.7917 274.0632 441.8247 273.7731 441.8002 273.4764C 441.7756 273.1797 441.6953 272.899 441.5592 272.6343L441.5592 272.6343L441.5592 272.6343z" stroke="none" fill="#000000" fill-rule="nonzero" /></g><g clip-path="url(#75)"></g><g clip-path="url(#76)"><g transform="matrix(0.05128205 0 0 0.05127461 503.0795 14.9314)"><g transform="matrix(1 0 0 1 0 0)"><image x="0" y="0" xlink:href="img_07.png" width="1521" height="863" /></g></g></g><g clip-path="url(#77)"><g clip-path="url(#78)"><g clip-path="url(#79)"><g clip-path="url(#80)"><g clip-path="url(#81)"><g clip-path="url(#82)"><g clip-path="url(#83)"><g clip-path="url(#84)"><path id="596" transform="matrix(1 0 0 -1 0 842)" d="M59.64288 773.1842C 51.49264 773.1842 44.86456 766.5562 44.86456 758.4059C 44.86456 750.2556 51.49264 743.6276 59.64288 743.6276C 67.79313 743.6276 74.4212 750.2556 74.4212 758.4059C 74.4212 766.5562 67.79313 773.1842 59.64288 773.1842zM59.64288 743.4059C 51.37441 743.4059 44.64288 750.1374 44.64288 758.4059C 44.64288 766.6744 51.37441 773.4059 59.64288 773.4059C 67.91135 773.4059 74.64288 766.6744 74.64288 758.4059C 74.64288 750.1374 67.91135 743.4059 59.64288 743.4059z" stroke="none" fill="#000000" fill-rule="nonzero" /></g></g></g></g></g></g></g></g><g clip-path="url(#85)"><g clip-path="url(#86)"><g clip-path="url(#87)"><g clip-path="url(#88)"><g clip-path="url(#89)"><g clip-path="url(#90)"><g clip-path="url(#91)"><path id="597" transform="matrix(1 0 0 -1 0 842)" d="M44.63732 758.5413C 44.63732 751.7132 50.17347 746.178 57.00266 746.178L57.00266 746.178L62.04932 746.178C 68.87851 746.178 74.41466 751.7132 74.41466 758.5413C 74.41466 765.3693 68.87851 770.9045 62.04932 770.9045L62.04932 770.9045L57.00266 770.9045C 50.17347 770.9045 44.63732 765.3693 44.63732 758.5413z" stroke="#000000" stroke-width="1.5" fill="none" /></g></g></g></g></g></g></g><g clip-path="url(#92)"></g><g clip-path="url(#93)"><g clip-path="url(#94)"><g clip-path="url(#95)"><g clip-path="url(#96)"><g clip-path="url(#97)"><g clip-path="url(#98)"><g clip-path="url(#99)"><g clip-path="url(#100)"><path id="599" transform="matrix(1 0 0 -1 0 842)" d="M282.8629 632.6063C 274.7126 632.6063 268.0845 625.9783 268.0845 617.828C 268.0845 609.6777 274.7126 603.0497 282.8629 603.0497C 291.0131 603.0497 297.6412 609.6777 297.6412 617.828C 297.6412 625.9783 291.0131 632.6063 282.8629 632.6063zM282.8629 602.828C 274.5944 602.828 267.8629 609.5595 267.8629 617.828C 267.8629 626.0965 274.5944 632.828 282.8629 632.828C 291.1313 632.828 297.8629 626.0965 297.8629 617.828C 297.8629 609.5595 291.1313 602.828 282.8629 602.828z" stroke="none" fill="#000000" fill-rule="nonzero" /></g></g></g></g></g></g></g></g><g clip-path="url(#101)"><g clip-path="url(#102)"><g clip-path="url(#103)"><g clip-path="url(#104)"><g clip-path="url(#105)"><g clip-path="url(#106)"><g clip-path="url(#107)"><path id="600" transform="matrix(1 0 0 -1 0 842)" d="M267.8573 617.9634C 267.8573 611.1353 273.3935 605.6001 280.2227 605.6001L280.2227 605.6001L285.2693 605.6001C 292.0985 605.6001 297.6346 611.1353 297.6346 617.9634C 297.6346 624.7914 292.0985 630.3267 285.2693 630.3267L285.2693 630.3267L280.2227 630.3267C 273.3935 630.3267 267.8573 624.7914 267.8573 617.9634z" stroke="#000000" stroke-width="1.5" fill="none" /></g></g></g></g></g></g></g><g clip-path="url(#108)"></g><g clip-path="url(#109)"><g clip-path="url(#110)"><g clip-path="url(#111)"><g clip-path="url(#112)"><g clip-path="url(#113)"><g clip-path="url(#114)"><g clip-path="url(#115)"><g clip-path="url(#116)"><path id="602" transform="matrix(1 0 0 -1 0 842)" d="M74.53312 506.6508C 66.38287 506.6508 59.7548 500.0227 59.7548 491.8724C 59.7548 483.7222 66.38287 477.0941 74.53312 477.0941C 82.68336 477.0941 89.31145 483.7222 89.31145 491.8724C 89.31145 500.0227 82.68336 506.6508 74.53312 506.6508zM74.53312 476.8724C 66.26465 476.8724 59.53312 483.604 59.53312 491.8724C 59.53312 500.1409 66.26465 506.8724 74.53312 506.8724C 82.80159 506.8724 89.53312 500.1409 89.53312 491.8724C 89.53312 483.604 82.80159 476.8724 74.53312 476.8724z" stroke="none" fill="#000000" fill-rule="nonzero" /></g></g></g></g></g></g></g></g><g clip-path="url(#117)"><g clip-path="url(#118)"><g clip-path="url(#119)"><g clip-path="url(#120)"><g clip-path="url(#121)"><g clip-path="url(#122)"><g clip-path="url(#123)"><path id="603" transform="matrix(1 0 0 -1 0 842)" d="M59.52755 492.0078C 59.52755 485.1797 65.06371 479.6445 71.8929 479.6445L71.8929 479.6445L76.93955 479.6445C 83.76875 479.6445 89.30489 485.1797 89.30489 492.0078C 89.30489 498.8359 83.76875 504.3711 76.93955 504.3711L76.93955 504.3711L71.8929 504.3711C 65.06371 504.3711 59.52755 498.8359 59.52755 492.0078z" stroke="#000000" stroke-width="1.5" fill="none" /></g></g></g></g></g></g></g><g clip-path="url(#124)"></g><g clip-path="url(#125)"><g clip-path="url(#126)"><g clip-path="url(#127)"><g clip-path="url(#128)"><g clip-path="url(#129)"><path id="605" transform="matrix(1 0 0 -1 0 842)" d="M288.5286 72.96074C 288.1024 73.25793 288.0022 73.84734 288.3055 74.27721L288.3055 74.27721L290.9452 78.02444C 291.2485 78.45432 291.84 78.56236 292.2662 78.26515C 292.6925 77.96796 292.7926 77.37855 292.4893 76.94868L292.4893 76.94868L289.8497 73.20144C 289.5478 72.76998 288.9549 72.66354 288.5286 72.96074zM283.0939 74.10726C 282.5782 74.00748 282.0859 74.34071 281.993 74.85451L281.993 74.85451L281.1834 79.32391C 281.0905 79.8377 281.4308 80.33403 281.9465 80.43382C 282.4622 80.53359 282.9545 80.20036 283.0474 79.68657L283.0474 79.68657L283.8586 75.21865C 283.9514 74.70486 283.6095 74.20705 283.0939 74.10726zM280.1002 60.53149C 280.5264 60.23429 280.6266 59.64488 280.3232 59.21501L280.3232 59.21501L277.6836 55.46777C 277.3803 55.0379 276.7888 54.92987 276.3626 55.22707C 275.9363 55.52427 275.8362 56.11367 276.1395 56.54354L276.1395 56.54354L278.7791 60.29078C 279.0824 60.72065 279.6739 60.82869 280.1002 60.53149zM276.884 65.34232C 276.9769 64.82853 276.6366 64.33221 276.121 64.23242L276.121 64.23242L271.6337 63.36158C 271.1181 63.2618 270.6258 63.59503 270.5329 64.10882C 270.4399 64.62261 270.7802 65.11894 271.2959 65.21872L271.2959 65.21872L275.7801 66.08967C 276.2974 66.19093 276.7895 65.85463 276.884 65.34232zM278.2288 70.95387C 277.9255 70.524 277.334 70.41597 276.9078 70.71317L276.9078 70.71317L273.1935 73.30083C 272.7673 73.59803 272.6671 74.18743 272.9705 74.6173C 273.2738 75.04717 273.8652 75.1552 274.2915 74.85801L274.2915 74.85801L278.0074 72.27184C 278.432 71.97315 278.5322 71.38374 278.2288 70.95387zM321.4486 57.15542C 322.5595 55.10955 322.5447 52.4273 321.4438 50.34721C 320.8106 49.15146 319.8556 48.14946 318.8547 47.25205C 317.7943 46.2997 316.6693 45.4141 315.568 44.50926C 315.0093 44.04942 314.4492 43.59115 313.8877 43.13756C 313.3567 42.7091 312.8427 42.25238 312.3001 41.83968C 311.8676 41.51101 311.3991 41.26661 310.851 41.23097C 310.2613 41.1921 309.658 41.25829 309.0679 41.27788C 306.1973 41.37321 303.3267 41.46856 300.4561 41.56389C 297.9021 41.64871 295.3481 41.73354 292.794 41.81836C 292.456 41.82959 292.1284 41.83585 291.8005 41.93288C 291.3649 42.06272 290.9779 42.31093 290.6735 42.64715C 290.0253 43.36551 289.8261 44.50122 290.3178 45.37247C 290.6117 45.89648 291.0772 46.30559 291.6383 46.52077C 291.9283 46.63266 292.2508 46.68348 292.5527 46.75345C 292.8592 46.82479 293.1658 46.89614 293.4738 46.9659C 294.6983 47.24981 295.9213 47.53223 297.1459 47.81613C 297.2439 47.83903 297.3419 47.86192 297.44 47.88482C 297.843 47.97757 298.0067 48.48438 297.7285 48.78589C 297.3725 49.17151 297.0165 49.55713 296.6606 49.94275C 295.7671 50.91077 294.8721 51.88037 293.9786 52.84839C 292.8068 54.11793 291.6335 55.38905 290.4616 56.65858C 289.2708 57.94874 288.0799 59.2389 286.8905 60.52748C 285.9457 61.55104 285.0009 62.5746 284.0562 63.59816C 283.6065 64.08534 283.1552 64.57104 282.7071 65.05971C 282.1727 65.64508 281.922 66.43639 282.073 67.2282C 282.3127 68.46931 283.4733 69.35834 284.7287 69.2828C 285.4731 69.23808 286.0506 68.85126 286.5369 68.32439C 286.8767 67.95623 287.2166 67.58807 287.5564 67.2199C 288.7062 65.97417 289.8561 64.72845 291.0045 63.48431C 291.8731 62.54326 292.7417 61.60222 293.6104 60.66118C 293.6558 60.61199 293.7026 60.56121 293.748 60.51201C 294.2197 60.00102 295.0176 60.7375 294.5524 61.25443C 293.4844 62.44053 293.7926 64.3885 295.2416 65.15874C 296.0371 65.5815 297.0052 65.54934 297.7556 65.07525C 298.1683 64.81541 298.4862 64.40645 298.8128 64.05257C 299.1453 63.69234 299.4764 63.33369 299.8089 62.97346C 300.2805 62.46247 301.0784 63.19896 300.6132 63.71588C 299.5438 64.90356 299.8578 66.8452 301.3055 67.62009C 302.0979 68.04295 303.0706 68.00911 303.8196 67.53659C 304.2233 67.28322 304.5294 66.88694 304.8488 66.54099C 305.1842 66.17759 305.5197 65.81419 305.8551 65.45078C 306.3268 64.9398 307.1246 65.67628 306.6594 66.19321C 305.8372 67.10655 305.7814 68.54514 306.6097 69.50366C 307.5942 70.64159 309.3394 70.67131 310.3545 69.60389C 312.2733 67.52502 314.1907 65.44775 316.1096 63.3689C 317.0925 62.30407 318.0768 61.23767 319.0597 60.17285C 319.9328 59.23012 320.8338 58.28954 321.4486 57.15542zM318.7348 62.14185C 316.7104 64.33498 314.6876 66.5265 312.6633 68.71962C 312.1638 69.26076 311.6628 69.80348 311.1633 70.34462C 310.0676 71.49626 308.3005 71.8226 306.8625 71.05662C 305.7291 70.45126 305.0081 69.28613 304.9373 68.03633C 304.7117 68.24841 304.4653 68.44119 304.1843 68.58743C 303.1429 69.12503 301.8708 69.14113 300.818 68.58078C 299.8977 68.08987 299.1891 67.18891 298.972 66.16856C 298.9286 65.96694 298.9038 65.76472 298.8943 65.56198C 298.6629 65.78041 298.412 65.97795 298.1236 66.12904C 297.0927 66.66168 295.8455 66.68311 294.7952 66.14268C 293.8551 65.65704 293.132 64.74271 292.9113 63.71017C 292.8698 63.51619 292.8453 63.32011 292.8346 63.1251C 292.7467 63.22031 292.6603 63.31395 292.5724 63.40916C 291.3698 64.71202 290.1672 66.01488 288.9661 67.31615C 288.5208 67.79857 288.077 68.2794 287.6317 68.76183C 287.3402 69.07762 287.0626 69.3945 286.7226 69.65961C 285.4755 70.63629 283.6687 70.57323 282.4012 69.63545C 281.2995 68.82138 280.7664 67.39465 281.0167 66.06804C 281.2115 65.03709 281.8768 64.35507 282.5477 63.62827C 283.3636 62.74435 284.1809 61.85885 284.9968 60.97494C 286.1642 59.71017 287.3317 58.4454 288.4977 57.18221C 289.7325 55.84444 290.9673 54.50667 292.2036 53.16731C 293.2231 52.06282 294.2411 50.95991 295.2606 49.85542C 295.6048 49.48249 295.9455 49.10046 296.2897 48.72753C 295.5087 48.54734 294.726 48.36567 293.9464 48.1839C 293.5247 48.08561 293.1015 47.98891 292.6782 47.88913C 291.9858 47.72908 291.2661 47.61145 290.6555 47.22409C 289.461 46.4654 288.8206 45.14838 289.0093 43.75613C 289.1564 42.65754 289.8814 41.63974 290.8692 41.14083C 291.633 40.75551 292.4235 40.74156 293.2595 40.7138C 294.704 40.66582 296.1516 40.61775 297.5961 40.56978C 300.6203 40.46934 303.6415 40.369 306.6658 40.26856C 307.4188 40.24355 308.1687 40.21864 308.9217 40.19364C 309.5486 40.17281 310.1844 40.11016 310.8124 40.14315C 311.462 40.17849 312.0495 40.3651 312.5958 40.72538C 313.1993 41.12374 313.7319 41.6183 314.2948 42.07031C 315.4783 43.02165 316.6502 43.98876 317.8207 44.95745C 318.9479 45.88913 320.0898 46.808 321.0499 47.91751C 321.9725 48.98365 322.7066 50.16682 323.0707 51.53148C 323.3975 52.75893 323.45 54.04471 323.2374 55.28854C 323.0042 56.6515 322.4095 57.85418 321.5849 58.94758C 320.7177 60.08394 319.6971 61.09925 318.7348 62.14185z" stroke="none" fill="#000000" fill-rule="nonzero" /></g></g></g></g></g></g></g></svg>