<svg xmlns="http://www.w3.org/2000/svg" xmlns:xlink="http://www.w3.org/1999/xlink" id="body_1" preserveAspectRatio="xMinYMin meet" viewBox="0 0 793 1123"><defs><clipPath id="1"><path id="" clip-rule="evenodd" transform="matrix(1 0 0 1 0 0)" d="M0 842L0 -0.25L0 -0.25L595.5 -0.25L595.5 -0.25L595.5 842L595.5 842L0 842z" /></clipPath><clipPath id="2"><path id="" clip-rule="evenodd" transform="matrix(1 0 0 1 0 0)" d="M0 -0.249939L595.5 -0.249939L595.5 -0.249939L595.5 842.0001L595.5 842.0001L0 842.0001z" /></clipPath><clipPath id="3"><path id="" clip-rule="evenodd" transform="matrix(1 0 0 1 0 0)" d="M0 -0.249939L595.5 -0.249939L595.5 -0.249939L595.5 842.0001L595.5 842.0001L0 842.0001z" /></clipPath><clipPath id="4"><path id="" clip-rule="evenodd" transform="matrix(1 0 0 1 0 0)" d="M0 -0.249939L595.5 -0.249939L595.5 -0.249939L595.5 842.0001L595.5 842.0001L0 842.0001z" /></clipPath><clipPath id="5"><path id="" clip-rule="evenodd" transform="matrix(1 0 0 1 0 0)" d="M80.88 18.95007L537.12 18.95007L537.12 18.95007L537.12 823.1901L537.12 823.1901L80.88 823.1901z" /></clipPath><clipPath id="6"><path id="" clip-rule="evenodd" transform="matrix(1 0 0 1 0 0)" d="M81.0154 19.05255L537.0154 19.05255L537.0154 19.05255L537.0154 822.3026L537.0154 822.3026L81.0154 822.3026z" /></clipPath><clipPath id="7"><path id="" clip-rule="evenodd" transform="matrix(1 0 0 1 0 0)" d="M466.4401 23.61578L551.1901 23.61578L551.1901 23.61578L551.1901 71.61578L551.1901 71.61578L466.4401 71.61578z" /></clipPath><clipPath id="8"><path id="" clip-rule="evenodd" transform="matrix(1 0 0 1 0 0)" d="M38.88756 10.32037L128.8876 10.32037L128.8876 10.32037L128.8876 89.82037L128.8876 89.82037L38.88756 89.82037z" /></clipPath><clipPath id="9"><path id="" clip-rule="evenodd" transform="matrix(1 0 0 1 0 0)" d="M0 -0.249939L595.5 -0.249939L595.5 -0.249939L595.5 842.0001L595.5 842.0001L0 842.0001z" /></clipPath><clipPath id="10"><path id="" clip-rule="evenodd" transform="matrix(1 0 0 1 0 0)" d="M0 -0.249939L595.5 -0.249939L595.5 -0.249939L595.5 842.0001L595.5 842.0001L0 842.0001z" /></clipPath><clipPath id="11"><path id="" clip-rule="evenodd" transform="matrix(1 0 0 1 0 0)" d="M29.59681 102.9316L332.0463 102.9316L332.0463 102.9316L332.0463 296.4993L332.0463 296.4993L29.59681 296.4993z" /></clipPath><clipPath id="12"><path id="" clip-rule="evenodd" transform="matrix(1 0 0 1 0 0)" d="M49.09681 102.9316L312.1957 102.9316C 322.9652 102.9316 331.6957 111.6621 331.6957 122.4316L331.6957 122.4316L331.6957 276.9993C 331.6957 287.7689 322.9652 296.4993 312.1957 296.4993L312.1957 296.4993L49.09681 296.4993C 38.32726 296.4993 29.59681 287.7689 29.59681 276.9993L29.59681 276.9993L29.59681 122.4316C 29.59681 111.6621 38.32726 102.9316 49.09681 102.9316z" /></clipPath><clipPath id="13"><path id="" clip-rule="evenodd" transform="matrix(1 0 0 1 0 0)" d="M0 -0.249939L595.5 -0.249939L595.5 -0.249939L595.5 842.0001L595.5 842.0001L0 842.0001z" /></clipPath><clipPath id="14"><path id="" clip-rule="evenodd" transform="matrix(1 0 0 1 0 0)" d="M0 -0.249939L595.5 -0.249939L595.5 -0.249939L595.5 842.0001L595.5 842.0001L0 842.0001z" /></clipPath><clipPath id="15"><path id="" clip-rule="evenodd" transform="matrix(1 0 0 1 0 0)" d="M0 -0.249939L595.5 -0.249939L595.5 -0.249939L595.5 842.0001L595.5 842.0001L0 842.0001z" /></clipPath><clipPath id="16"><path id="" clip-rule="evenodd" transform="matrix(1 0 0 1 0 0)" d="M286.1611 336.2596L565.0273 336.2596L565.0273 336.2596L565.0273 581.5851L565.0273 581.5851L286.1611 581.5851z" /></clipPath><clipPath id="17"><path id="" clip-rule="evenodd" transform="matrix(1 0 0 1 0 0)" d="M305.6611 336.2596L544.802 336.2596C 555.5715 336.2596 564.302 344.9901 564.302 355.7596L564.302 355.7596L564.302 562.0851C 564.302 572.8547 555.5715 581.5851 544.802 581.5851L544.802 581.5851L305.6611 581.5851C 294.8916 581.5851 286.1611 572.8547 286.1611 562.0851L286.1611 562.0851L286.1611 355.7596C 286.1611 344.9901 294.8916 336.2596 305.6611 336.2596z" /></clipPath><clipPath id="18"><path id="" clip-rule="evenodd" transform="matrix(1 0 0 1 0 0)" d="M0 -0.249939L595.5 -0.249939L595.5 -0.249939L595.5 842.0001L595.5 842.0001L0 842.0001z" /></clipPath><clipPath id="19"><path id="" clip-rule="evenodd" transform="matrix(1 0 0 1 0 0)" d="M0 -0.249939L595.5 -0.249939L595.5 -0.249939L595.5 842.0001L595.5 842.0001L0 842.0001z" /></clipPath><clipPath id="20"><path id="" clip-rule="evenodd" transform="matrix(1 0 0 1 0 0)" d="M0 -0.249939L595.5 -0.249939L595.5 -0.249939L595.5 842.0001L595.5 842.0001L0 842.0001z" /></clipPath><clipPath id="21"><path id="" clip-rule="evenodd" transform="matrix(1 0 0 1 0 0)" d="M350.0193 143.2345L564.5193 143.2345L564.5193 143.2345L564.5193 263.2345L564.5193 263.2345L350.0193 263.2345z" /></clipPath><clipPath id="22"><path id="" clip-rule="evenodd" transform="matrix(1 0 0 1 0 0)" d="M350.0193 170.9845L350.0193 235.2938C 350.0193 250.6198 362.4434 263.0438 377.7693 263.0438L377.7693 263.0438L536.552 263.0438C 551.8779 263.0438 564.302 250.6198 564.302 235.2938L564.302 235.2938L564.302 170.9845C 564.302 155.6586 551.8779 143.2345 536.552 143.2345L536.552 143.2345L377.7693 143.2345C 362.4434 143.2345 350.0193 155.6586 350.0193 170.9845z" /></clipPath><clipPath id="23"><path id="" clip-rule="evenodd" transform="matrix(1 0 0 1 0 0)" d="M350.0193 143.2345L564.5193 143.2345L564.5193 143.2345L564.5193 263.2345L564.5193 263.2345L350.0193 263.2345z" /></clipPath><clipPath id="24"><path id="" clip-rule="evenodd" transform="matrix(1 0 0 1 0 0)" d="M0 -0.249939L595.5 -0.249939L595.5 -0.249939L595.5 842.0001L595.5 842.0001L0 842.0001z" /></clipPath><clipPath id="25"><path id="" clip-rule="evenodd" transform="matrix(1 0 0 1 0 0)" d="M0 -0.249939L595.5 -0.249939L595.5 -0.249939L595.5 842.0001L595.5 842.0001L0 842.0001z" /></clipPath><clipPath id="26"><path id="" clip-rule="evenodd" transform="matrix(1 0 0 1 0 0)" d="M29.59681 396.3188L264.3468 396.3188L264.3468 396.3188L264.3468 521.5688L264.3468 521.5688L29.59681 521.5688z" /></clipPath><clipPath id="27"><path id="" clip-rule="evenodd" transform="matrix(1 0 0 1 0 0)" d="M29.59681 424.0688L29.59681 493.7759C 29.59681 509.1018 42.0209 521.5259 57.34681 521.5259L57.34681 521.5259L235.8912 521.5259C 251.2171 521.5259 263.6412 509.1018 263.6412 493.7759L263.6412 493.7759L263.6412 424.0688C 263.6412 408.7429 251.2171 396.3188 235.8912 396.3188L235.8912 396.3188L57.34681 396.3188C 42.0209 396.3188 29.59681 408.7429 29.59681 424.0688z" /></clipPath><clipPath id="28"><path id="" clip-rule="evenodd" transform="matrix(1 0 0 1 0 0)" d="M29.59681 396.3188L263.5968 396.3188L263.5968 396.3188L263.5968 521.5688L263.5968 521.5688L29.59681 521.5688z" /></clipPath><clipPath id="29"><path id="" clip-rule="evenodd" transform="matrix(1 0 0 1 0 0)" d="M0 -0.249939L595.5 -0.249939L595.5 -0.249939L595.5 842.0001L595.5 842.0001L0 842.0001z" /></clipPath><clipPath id="30"><path id="" clip-rule="evenodd" transform="matrix(1 0 0 1 0 0)" d="M0 -0.249939L595.5 -0.249939L595.5 -0.249939L595.5 842.0001L595.5 842.0001L0 842.0001z" /></clipPath><clipPath id="31"><path id="" clip-rule="evenodd" transform="matrix(1 0 0 1 0 0)" d="M339.6579 649.2887L564.6579 649.2887L564.6579 649.2887L564.6579 767.7887L564.6579 767.7887L339.6579 767.7887z" /></clipPath><clipPath id="32"><path id="" clip-rule="evenodd" transform="matrix(1 0 0 1 0 0)" d="M339.6579 677.0387L339.6579 739.3616C 339.6579 754.6874 352.082 767.1116 367.4079 767.1116L367.4079 767.1116L536.552 767.1116C 551.8779 767.1116 564.302 754.6874 564.302 739.3616L564.302 739.3616L564.302 677.0387C 564.302 661.7128 551.8779 649.2887 536.552 649.2887L536.552 649.2887L367.4079 649.2887C 352.082 649.2887 339.6579 661.7128 339.6579 677.0387z" /></clipPath><clipPath id="33"><path id="" clip-rule="evenodd" transform="matrix(1 0 0 1 0 0)" d="M339.6579 649.2887L564.6579 649.2887L564.6579 649.2887L564.6579 767.0387L564.6579 767.0387L339.6579 767.0387z" /></clipPath><clipPath id="34"><path id="" clip-rule="evenodd" transform="matrix(1 0 0 1 0 0)" d="M0 -0.249939L595.5 -0.249939L595.5 -0.249939L595.5 842.0001L595.5 842.0001L0 842.0001z" /></clipPath><clipPath id="35"><path id="" clip-rule="evenodd" transform="matrix(1 0 0 1 0 0)" d="M0 -0.249939L595.5 -0.249939L595.5 -0.249939L595.5 842.0001L595.5 842.0001L0 842.0001z" /></clipPath><clipPath id="36"><path id="" clip-rule="evenodd" transform="matrix(1 0 0 1 0 0)" d="M29.59681 604.1215L320.732 604.1215L320.732 604.1215L320.732 812.3075L320.732 812.3075L29.59681 812.3075z" /></clipPath><clipPath id="37"><path id="" clip-rule="evenodd" transform="matrix(1 0 0 1 0 0)" d="M49.09681 604.1215L301.0694 604.1215C 311.839 604.1215 320.5694 612.8519 320.5694 623.6215L320.5694 623.6215L320.5694 792.8075C 320.5694 803.5771 311.839 812.3075 301.0694 812.3075L301.0694 812.3075L49.09681 812.3075C 38.32726 812.3075 29.59681 803.5771 29.59681 792.8075L29.59681 792.8075L29.59681 623.6215C 29.59681 612.8519 38.32726 604.1215 49.09681 604.1215z" /></clipPath><clipPath id="38"><path id="" clip-rule="evenodd" transform="matrix(1 0 0 1 0 0)" d="M0 -0.249939L595.5 -0.249939L595.5 -0.249939L595.5 842.0001L595.5 842.0001L0 842.0001z" /></clipPath><clipPath id="39"><path id="" clip-rule="evenodd" transform="matrix(1 0 0 1 0 0)" d="M0 -0.249939L595.5 -0.249939L595.5 -0.249939L595.5 842.0001L595.5 842.0001L0 842.0001z" /></clipPath><clipPath id="40"><path id="" clip-rule="evenodd" transform="matrix(1 0 0 1 0 0)" d="M0 -0.249939L595.5 -0.249939L595.5 -0.249939L595.5 842.0001L595.5 842.0001L0 842.0001z" /></clipPath><clipPath id="41"><path id="" clip-rule="evenodd" transform="matrix(1 0 0 1 0 0)" d="M453.6452 677.5017L546.0007 677.5017L546.0007 677.5017L546.0007 738.6384L546.0007 738.6384L453.6452 738.6384z" /></clipPath><clipPath id="42"><path id="" clip-rule="evenodd" transform="matrix(1 0 0 1 0 0)" d="M454.1234 732.0502C 453.6733 720.8752 453.6733 719.3752 454.6483 716.9001C 456.3734 712.5502 462.4484 705.9501 465.5233 700.1752C 468.5233 694.5502 470.7733 686.6752 473.0233 682.7751C 474.2983 680.5251 475.1234 678.5002 476.4734 677.9001C 477.3734 677.3752 478.1234 677.7502 479.5483 677.9752C 482.9233 678.5751 492.4483 681.5751 496.4984 683.7502C 499.1983 685.2502 500.2484 687.2001 502.4984 688.4752C 504.7484 689.8251 507.5984 691.5502 509.9984 691.5502C 512.2484 691.5502 514.1234 690.1252 516.4484 688.8502C 519.7484 687.0502 525.4484 681.7252 527.5483 680.9001C 528.2233 680.6002 528.5983 680.5251 529.1234 680.6752C 529.5734 680.8251 530.0234 681.1252 530.3984 681.8002C 531.4484 683.3752 531.8984 688.1002 533.0234 691.4752C 534.3734 695.3002 536.4733 700.3251 538.0483 703.4001C 539.0983 705.5751 540.2983 706.7001 541.1234 708.5751C 542.0983 710.6752 542.7734 713.0751 543.4484 715.5502C 544.2734 718.3251 545.5483 722.5251 545.6984 724.6252C 545.7734 725.6002 545.7734 726.1252 545.5483 726.8752C 545.1733 727.7751 544.7983 728.5251 543.8234 729.3502C 541.7233 731.0002 536.4733 732.7252 531.9733 734.0751C 526.4233 735.8752 516.5983 738.2751 512.8483 738.4252C 511.3484 738.5002 510.6733 738.6501 509.6983 737.9752C 508.1234 737.0002 507.2234 732.8752 505.2733 731.4501C 503.4734 730.1752 501.2234 729.8752 498.5984 729.5002C 495.1483 728.9752 490.7234 729.1252 486.4483 729.3502C 481.4233 729.6501 475.7234 731.1501 470.3983 731.6002C 465.1483 731.9752 456.8234 733.3251 454.7983 731.9001C 453.9734 731.3002 453.8983 729.2001 453.9734 729.2001C 454.0483 729.2001 454.4984 730.9252 455.0233 731.2252C 455.4734 731.5251 455.9233 731.3002 456.7484 731.3002C 459.0734 731.3752 465.5984 731.3752 470.3233 731.0002C 475.4233 730.5502 481.4233 729.0502 486.3734 728.7502C 490.7234 728.4501 495.0733 728.2252 498.5233 728.7502C 501.2234 729.1252 503.6234 729.3502 505.4984 730.7001C 507.4483 732.1252 508.3484 736.3251 509.8484 737.3002C 510.6733 737.8251 511.1234 737.7502 512.3984 737.7502C 516.2983 737.6002 530.3234 733.8502 535.7233 732.1252C 538.7233 731.1501 540.8984 730.4752 542.4733 729.2751C 543.6733 728.4501 544.5734 727.8502 544.9484 726.3502C 545.6234 723.2751 542.9233 715.3251 541.2734 710.7502C 539.7734 706.7751 537.5234 703.8502 535.8734 700.3251C 534.2233 696.7252 532.4233 692.5251 531.3734 689.2252C 530.6234 686.6002 530.4733 683.3752 529.7233 682.1752C 529.4233 681.7252 529.2734 681.4252 528.7484 681.3502C 527.0234 681.2751 521.0983 687.2001 517.6484 689.0751C 514.9484 690.5002 512.6234 692.2252 510.0733 692.2252C 507.4483 692.3002 504.4483 690.5002 502.0483 689.1501C 499.7234 687.8002 498.5233 685.7751 495.8233 684.2751C 491.8484 682.1752 483.2983 679.6252 479.9233 678.8752C 478.4233 678.5751 477.4483 678.1252 476.4734 678.5751C 475.3484 679.1752 474.8983 680.9001 473.8484 682.8502C 471.8983 686.6002 469.3484 694.6252 466.2733 700.2502C 463.1984 706.1002 456.9734 712.7001 455.2484 717.0502C 454.2733 719.4501 454.1984 720.9501 454.1234 723.1252C 453.9734 725.8251 455.3234 731.2252 454.7234 731.9752C 454.5734 732.1252 454.1234 732.0502 454.1234 732.0502" /></clipPath></defs><g transform="matrix(1.333333 0 0 1.333333 0 0)"><g clip-path="url(#1)"><g clip-path="url(#2)"><path id="1" transform="matrix(1 0 0 -1 0 842)" d="M0 842.2499L595.4999 842.2499L595.4999 -6.103516E-05L0 -6.103516E-05z" stroke="none" fill="#FFFFFF" fill-rule="nonzero" /></g><g clip-path="url(#3)"><path id="2" transform="matrix(1 0 0 -1 0 842)" d="M0 842.2499L595.4999 842.2499L595.4999 -6.103516E-05L0 -6.103516E-05z" stroke="none" fill="#FFFFFF" fill-rule="nonzero" /></g><g clip-path="url(#4)"><g><g clip-path="url(#5)"><g clip-path="url(#6)"><g transform="matrix(0 0.5281065 -0.5283893 0 537.0154 19.05261)"><g transform="matrix(1 0 0 1 0 0)"><image x="0" y="0" xlink:href="img_01.png" width="1521" height="863" /></g></g></g></g></g></g><g clip-path="url(#7)"><g transform="matrix(0.05571992 0 0 0.05561992 466.4401 23.61584)"><g transform="matrix(1 0 0 1 0 0)"><image x="0" y="0" xlink:href="img_02.png" width="1521" height="863" /></g></g></g><g clip-path="url(#8)"><g transform="matrix(0.4225352 0 0 0.4228723 38.88755 10.32037)"><g transform="matrix(1 0 0 1 0 0)"><image x="0" y="0" xlink:href="img_03.png" width="213" height="188" /></g></g></g><g clip-path="url(#9)"><g clip-path="url(#10)"><g clip-path="url(#11)"><g clip-path="url(#12)"><path id="6" transform="matrix(1 0 0 -1 0 842)" d="M29.59681 739.0683L332.0463 739.0683L332.0463 545.5006L29.59681 545.5006z" stroke="none" fill="#D6E0E5" fill-rule="nonzero" /></g></g></g></g><g clip-path="url(#13)"></g><g clip-path="url(#14)"><g clip-path="url(#15)"><g clip-path="url(#16)"><g clip-path="url(#17)"><path id="293" transform="matrix(1 0 0 -1 0 842)" d="M286.1611 505.7404L564.069 505.7404L564.069 260.4149L286.1611 260.4149z" stroke="none" fill="#D6E0E5" fill-rule="nonzero" /></g></g></g></g><g clip-path="url(#18)"></g><g clip-path="url(#19)"><g clip-path="url(#20)"><g clip-path="url(#21)"><g clip-path="url(#22)"><g clip-path="url(#23)"><g transform="matrix(0.6128571 0 0 0.6122448 350.0193 143.2345)"><g transform="matrix(1 0 0 1 0 0)"><image x="0" y="0" xlink:href="img_04.png" width="350" height="196" /></g></g></g></g></g></g></g><g clip-path="url(#24)"><g clip-path="url(#25)"><g clip-path="url(#26)"><g clip-path="url(#27)"><g clip-path="url(#28)"><g transform="matrix(0.6307276 0 0 0.6293969 29.59681 396.3188)"><g transform="matrix(1 0 0 1 0 0)"><image x="0" y="0" xlink:href="img_05.png" width="371" height="199" /></g></g></g></g></g></g></g><g clip-path="url(#29)"><g clip-path="url(#30)"><g clip-path="url(#31)"><g clip-path="url(#32)"><g clip-path="url(#33)"><g transform="matrix(0.5921053 0 0 0.5887499 339.6578 649.2887)"><g transform="matrix(1 0 0 1 0 0)"><image x="0" y="0" xlink:href="img_06.png" width="380" height="200" /></g></g></g></g></g></g></g><g clip-path="url(#34)"><g clip-path="url(#35)"><g clip-path="url(#36)"><g clip-path="url(#37)"><path id="630" transform="matrix(1 0 0 -1 0 842)" d="M29.59681 237.8786L320.732 237.8786L320.732 29.69249L29.59681 29.69249z" stroke="none" fill="#D6E0E5" fill-rule="nonzero" /></g></g></g></g><g clip-path="url(#38)"></g><g clip-path="url(#39)"><g clip-path="url(#40)"><g clip-path="url(#41)"><g clip-path="url(#42)"><path id="926" transform="matrix(1 0 0 -1 0 842)" d="M450.5233 167.0998L548.6022 167.0998L548.6022 100.4998L450.5233 100.4998z" stroke="none" fill="#E7191F" fill-rule="nonzero" /></g></g></g></g></g></g></svg>