<svg xmlns="http://www.w3.org/2000/svg" xmlns:xlink="http://www.w3.org/1999/xlink" id="body_1" preserveAspectRatio="xMinYMin meet" viewBox="0 0 793 1123"><defs><clipPath id="1"><path id="" clip-rule="evenodd" transform="matrix(1 0 0 1 0 0)" d="M0 842L0 -0.25L0 -0.25L595.5 -0.25L595.5 -0.25L595.5 842L595.5 842L0 842z" /></clipPath><clipPath id="2"><path id="" clip-rule="evenodd" transform="matrix(1 0 0 1 0 0)" d="M0 -0.249939L595.5 -0.249939L595.5 -0.249939L595.5 842.0001L595.5 842.0001L0 842.0001z" /></clipPath><clipPath id="3"><path id="" clip-rule="evenodd" transform="matrix(1 0 0 1 0 0)" d="M0 -0.249939L595.5 -0.249939L595.5 -0.249939L595.5 842.0001L595.5 842.0001L0 842.0001z" /></clipPath><clipPath id="4"><path id="" clip-rule="evenodd" transform="matrix(1 0 0 1 0 0)" d="M0 -0.249939L595.5 -0.249939L595.5 -0.249939L595.5 842.0001L595.5 842.0001L0 842.0001z" /></clipPath><clipPath id="5"><path id="" clip-rule="evenodd" transform="matrix(1 0 0 1 0 0)" d="M78.71999 30.71008L522.24 30.71008L522.24 30.71008L522.24 810.9501L522.24 810.9501L78.71999 810.9501z" /></clipPath><clipPath id="6"><path id="" clip-rule="evenodd" transform="matrix(1 0 0 1 0 0)" d="M79.51787 30.75183L522.0178 30.75183L522.0178 30.75183L522.0178 810.7518L522.0178 810.7518L79.51787 810.7518z" /></clipPath><clipPath id="7"><path id="" clip-rule="evenodd" transform="matrix(1 0 0 1 0 0)" d="M504.6852 388.8594L566.9352 388.8594L566.9352 388.8594L566.9352 451.1094L566.9352 451.1094L504.6852 451.1094z" /></clipPath><clipPath id="8"><path id="" clip-rule="evenodd" transform="matrix(1 0 0 1 0 0)" d="M81.35277 59.27759L469.8623 59.27759L469.8623 59.27759L469.8623 497.9175L469.8623 497.9175L81.35277 497.9175z" /></clipPath><clipPath id="9"><path id="" clip-rule="evenodd" transform="matrix(1 0 0 1 0 0)" d="M0 -0.249939L595.5 -0.249939L595.5 -0.249939L595.5 842.0001L595.5 842.0001L0 842.0001z" /></clipPath><clipPath id="10"><path id="" clip-rule="evenodd" transform="matrix(1 0 0 1 0 0)" d="M491.5631 12.39099L583.0631 12.39099L583.0631 12.39099L583.0631 64.14099L583.0631 64.14099L491.5631 64.14099z" /></clipPath><clipPath id="11"><path id="" clip-rule="evenodd" transform="matrix(1 0 0 1 0 0)" d="M0 -0.249939L595.5 -0.249939L595.5 -0.249939L595.5 842.0001L595.5 842.0001L0 842.0001z" /></clipPath><clipPath id="12"><path id="" clip-rule="evenodd" transform="matrix(1 0 0 1 0 0)" d="M0 -0.249939L595.5 -0.249939L595.5 -0.249939L595.5 842.0001L595.5 842.0001L0 842.0001z" /></clipPath><clipPath id="13"><path id="" clip-rule="evenodd" transform="matrix(1 0 0 1 0 0)" d="M28.05133 22.52521L60.30133 22.52521L60.30133 22.52521L60.30133 54.77521L60.30133 54.77521L28.05133 54.77521z" /></clipPath><clipPath id="14"><path id="" clip-rule="evenodd" transform="matrix(1 0 0 1 0 0)" d="M28.05133 38.41949C 28.05133 42.63489 29.7259 46.67767 32.70665 49.65845C 35.6874 52.63916 39.73017 54.31372 43.9456 54.31372C 48.16101 54.31372 52.20378 52.63916 55.18454 49.65845C 58.16529 46.67767 59.83986 42.63489 59.83986 38.41949C 59.83986 34.20404 58.16529 30.16132 55.18454 27.18054C 52.20378 24.19977 48.16101 22.52521 43.9456 22.52521C 39.73017 22.52521 35.6874 24.19977 32.70665 27.18054C 29.7259 30.16132 28.05133 34.20404 28.05133 38.41949z" /></clipPath><clipPath id="15"><path id="" clip-rule="evenodd" transform="matrix(1 0 0 1 0 0)" d="M28.80133 23.27521L59.55133 23.27521L59.55133 23.27521L59.55133 54.02521L59.55133 54.02521L28.80133 54.02521z" /></clipPath><clipPath id="16"><path id="" clip-rule="evenodd" transform="matrix(1 0 0 1 0 0)" d="M43.9456 23.42523C 47.92232 23.42523 51.73617 25.00494 54.54814 27.81696C 57.36011 30.62891 58.93985 34.44275 58.93985 38.41949C 58.93985 42.39618 57.36011 46.21008 54.54814 49.02203C 51.73617 51.83398 47.92232 53.41376 43.9456 53.41376C 39.96887 53.41376 36.15502 51.83398 33.34305 49.02203C 30.53108 46.21008 28.95133 42.39618 28.95133 38.41949C 28.95133 34.44275 30.53108 30.62891 33.34305 27.81696C 36.15502 25.00494 39.96887 23.42523 43.9456 23.42523z" /></clipPath><clipPath id="17"><path id="" clip-rule="evenodd" transform="matrix(1 0 0 1 0 0)" d="M28.80133 23.27521L59.55133 23.27521L59.55133 23.27521L59.55133 54.02521L59.55133 54.02521L28.80133 54.02521z" /></clipPath><clipPath id="18"><path id="" clip-rule="evenodd" transform="matrix(1 0 0 1 0 0)" d="M28.04463 22.51849L59.54463 22.51849L59.54463 22.51849L59.54463 54.01849L59.54463 54.01849L28.04463 54.01849z" /></clipPath><clipPath id="19"><path id="" clip-rule="evenodd" transform="matrix(1 0 0 1 0 0)" d="M0 -0.249939L595.5 -0.249939L595.5 -0.249939L595.5 842.0001L595.5 842.0001L0 842.0001z" /></clipPath><clipPath id="20"><path id="" clip-rule="evenodd" transform="matrix(1 0 0 1 0 0)" d="M0 -0.249939L595.5 -0.249939L595.5 -0.249939L595.5 842.0001L595.5 842.0001L0 842.0001z" /></clipPath><clipPath id="21"><path id="" clip-rule="evenodd" transform="matrix(1 0 0 1 0 0)" d="M28.05133 22.52521L60.30133 22.52521L60.30133 22.52521L60.30133 54.77521L60.30133 54.77521L28.05133 54.77521z" /></clipPath><clipPath id="22"><path id="" clip-rule="evenodd" transform="matrix(1 0 0 1 0 0)" d="M28.05133 38.41949C 28.05133 42.63489 29.7259 46.67767 32.70665 49.65845C 35.6874 52.63916 39.73017 54.31372 43.9456 54.31372C 48.16101 54.31372 52.20378 52.63916 55.18454 49.65845C 58.16529 46.67767 59.83986 42.63489 59.83986 38.41949C 59.83986 34.20404 58.16529 30.16132 55.18454 27.18054C 52.20378 24.19977 48.16101 22.52521 43.9456 22.52521C 39.73017 22.52521 35.6874 24.19977 32.70665 27.18054C 29.7259 30.16132 28.05133 34.20404 28.05133 38.41949z" /></clipPath><clipPath id="23"><path id="" clip-rule="evenodd" transform="matrix(1 0 0 1 0 0)" d="M28.05133 22.52521L59.55133 22.52521L59.55133 22.52521L59.55133 54.02521L59.55133 54.02521L28.05133 54.02521z" /></clipPath><clipPath id="24"><path id="" clip-rule="evenodd" transform="matrix(1 0 0 1 0 0)" d="M28.05133 22.52521L60.29395 22.52521L60.29395 22.52521L60.29395 54.76782L60.29395 54.76782L28.05133 54.76782z" /></clipPath><clipPath id="25"><path id="" clip-rule="evenodd" transform="matrix(1 0 0 1 0 0)" d="M28.05133 38.41583C 28.05133 42.63031 29.72552 46.67212 32.70559 49.65222C 35.68566 52.63226 39.7275 54.30646 43.94196 54.30646C 48.15641 54.30646 52.19825 52.63226 55.17833 49.65222C 58.15839 46.67212 59.83258 42.63031 59.83258 38.41583C 59.83258 34.20135 58.15839 30.15955 55.17833 27.17944C 52.19825 24.1994 48.15641 22.52521 43.94196 22.52521C 39.7275 22.52521 35.68566 24.1994 32.70559 27.17944C 29.72552 30.15955 28.05133 34.20135 28.05133 38.41583z" /></clipPath><clipPath id="26"><path id="" clip-rule="evenodd" transform="matrix(1 0 0 1 0 0)" d="M0 -0.249939L595.5 -0.249939L595.5 -0.249939L595.5 842.0001L595.5 842.0001L0 842.0001z" /></clipPath><clipPath id="27"><path id="" clip-rule="evenodd" transform="matrix(1 0 0 1 0 0)" d="M0 -0.249939L595.5 -0.249939L595.5 -0.249939L595.5 842.0001L595.5 842.0001L0 842.0001z" /></clipPath><clipPath id="28"><path id="" clip-rule="evenodd" transform="matrix(1 0 0 1 0 0)" d="M0 -0.249939L595.5 -0.249939L595.5 -0.249939L595.5 842.0001L595.5 842.0001L0 842.0001z" /></clipPath><clipPath id="29"><path id="" clip-rule="evenodd" transform="matrix(1 0 0 1 0 0)" d="M30.43623 741.6533L52.81823 741.6533L52.81823 741.6533L52.81823 855.2244L52.81823 855.2244L30.43623 855.2244z" /></clipPath><clipPath id="30"><path id="" clip-rule="evenodd" transform="matrix(1 0 0 1 0 0)" d="M30.43623 741.7054L30.43623 750.3255C 33.15623 755.1655 35.59623 760.1555 37.75623 765.2655C 45.41623 783.3354 49.41623 802.9554 49.55623 822.6454C 49.62623 833.5755 48.50623 844.5154 46.22623 855.2155L46.22623 855.2155L49.09623 855.2155C 51.48623 844.5355 52.72623 833.6055 52.80623 822.6454C 52.93623 802.5455 49.11623 782.3855 41.50623 763.7055C 38.42624 756.0955 34.71623 748.7255 30.43623 741.7054zM30.43623 808.2855L30.43623 834.9254C 30.84623 830.8455 31.07623 826.7454 31.10624 822.6454C 31.14623 817.8555 30.91623 813.0555 30.43623 808.2855z" /></clipPath><clipPath id="31"><path id="" clip-rule="evenodd" transform="matrix(1 0 0 1 0 0)" d="M118.4734 521.9087L491.9733 521.9087L491.9733 521.9087L491.9733 566.1587L491.9733 566.1587L118.4734 566.1587z" /></clipPath><clipPath id="32"><path id="" clip-rule="evenodd" transform="matrix(1 0 0 1 0 0)" d="M18.94573 579.1109L312.9457 579.1109L312.9457 579.1109L312.9457 748.6109L312.9457 748.6109L18.94573 748.6109z" /></clipPath><clipPath id="33"><path id="" clip-rule="evenodd" transform="matrix(1 0 0 1 0 0)" d="M523.0707 590.8831L569.5707 590.8831L569.5707 590.8831L569.5707 646.3831L569.5707 646.3831L523.0707 646.3831z" /></clipPath><clipPath id="34"><path id="" clip-rule="evenodd" transform="matrix(1 0 0 1 0 0)" d="M421.5085 744.3365L482.2585 744.3365L482.2585 744.3365L482.2585 804.3365L482.2585 804.3365L421.5085 804.3365z" /></clipPath><clipPath id="35"><path id="" clip-rule="evenodd" transform="matrix(1 0 0 1 0 0)" d="M21.83323 677.6426L191.3332 677.6426L191.3332 677.6426L191.3332 774.3926L191.3332 774.3926L21.83323 774.3926z" /></clipPath><clipPath id="36"><path id="" clip-rule="evenodd" transform="matrix(1 0 0 1 0 0)" d="M0 -0.249939L595.5 -0.249939L595.5 -0.249939L595.5 842.0001L595.5 842.0001L0 842.0001z" /></clipPath></defs><g transform="matrix(1.333333 0 0 1.333333 0 0)"><g clip-path="url(#1)"><g clip-path="url(#2)"><path id="1" transform="matrix(1 0 0 -1 0 842)" d="M0 842.2499L595.4999 842.2499L595.4999 -6.103516E-05L0 -6.103516E-05z" stroke="none" fill="#FFFFFF" fill-rule="nonzero" /></g><g clip-path="url(#3)"><path id="2" transform="matrix(1 0 0 -1 0 842)" d="M0 842.2499L595.4999 842.2499L595.4999 -6.103516E-05L0 -6.103516E-05z" stroke="none" fill="#FFFFFF" fill-rule="nonzero" /></g><g clip-path="url(#4)"><g><g clip-path="url(#5)"><g clip-path="url(#6)"><g transform="matrix(0 0.5128205 -0.5127462 0 522.0178 30.75189)"><g transform="matrix(1 0 0 1 0 0)"><image x="0" y="0" xlink:href="img_01.png" width="1521" height="863" /></g></g></g></g></g></g><g clip-path="url(#7)"><g transform="matrix(0.243164 0 0 0.243164 504.6852 388.8594)"><g transform="matrix(1 0 0 1 0 0)"><image x="0" y="0" xlink:href="img_02.png" width="256" height="256" /></g></g></g><g clip-path="url(#8)"><g transform="matrix(0.2399689 0 0 0.2403506 81.35277 59.27765)"><g transform="matrix(1 0 0 1 0 0)"><image x="0" y="0" xlink:href="img_03.png" width="1619" height="1825" /></g></g></g><g clip-path="url(#9)"></g><g clip-path="url(#10)"><g transform="matrix(0.06015779 0 0 0.05996523 491.5631 12.39099)"><g transform="matrix(1 0 0 1 0 0)"><image x="0" y="0" xlink:href="img_04.png" width="1521" height="863" /></g></g></g><g clip-path="url(#11)"><g clip-path="url(#12)"><g clip-path="url(#13)"><g clip-path="url(#14)"><g clip-path="url(#15)"><g clip-path="url(#16)"><g clip-path="url(#17)"><g clip-path="url(#18)"><path id="1219" transform="matrix(1 0 0 -1 0 842)" d="M43.79463 819.2487C 35.23687 819.2487 28.27739 812.2892 28.27739 803.7314C 28.27739 795.1737 35.23687 788.2142 43.79463 788.2142C 52.35239 788.2142 59.31187 795.1737 59.31187 803.7314C 59.31187 812.2892 52.35239 819.2487 43.79463 819.2487zM43.79463 787.9814C 35.11274 787.9814 28.04463 795.0496 28.04463 803.7314C 28.04463 812.4133 35.11274 819.4814 43.79463 819.4814C 52.47653 819.4814 59.54463 812.4133 59.54463 803.7314C 59.54463 795.0496 52.47653 787.9814 43.79463 787.9814z" stroke="none" fill="#000000" fill-rule="nonzero" /></g></g></g></g></g></g></g></g><g clip-path="url(#19)"><g clip-path="url(#20)"><g clip-path="url(#21)"><g clip-path="url(#22)"><g clip-path="url(#23)"><g clip-path="url(#24)"><g clip-path="url(#25)"><path id="1220" transform="matrix(1 0 0 -1 0 842)" d="M28.05133 803.5841C 28.05133 799.3696 29.72552 795.3278 32.70559 792.3477C 35.68565 789.3677 39.7275 787.6935 43.94195 787.6935C 48.15641 787.6935 52.19825 789.3677 55.17832 792.3477C 58.15839 795.3278 59.83258 799.3696 59.83258 803.5841C 59.83258 807.7986 58.15839 811.8404 55.17832 814.8205C 52.19825 817.8005 48.15641 819.4747 43.94195 819.4747C 39.7275 819.4747 35.68565 817.8005 32.70559 814.8205C 29.72552 811.8404 28.05133 807.7986 28.05133 803.5841z" stroke="#000000" stroke-width="1.5" fill="none" /></g></g></g></g></g></g></g><g clip-path="url(#26)"></g><g clip-path="url(#27)"><g clip-path="url(#28)"><g clip-path="url(#29)"><g clip-path="url(#30)"><path id="1222" transform="matrix(1 0 0 -1 0 842)" d="M30.43623 174.5745L52.81823 174.5745L52.81823 -13.22444L30.43623 -13.22444z" stroke="none" fill="#D9D9D9" fill-rule="nonzero" /></g></g></g></g><g clip-path="url(#31)"><g transform="matrix(0.2400385 0 0 0.2404891 118.4734 521.9087)"><g transform="matrix(1 0 0 1 0 0)"><image x="0" y="0" xlink:href="img_05.png" width="1556" height="184" /></g></g></g><g clip-path="url(#32)"><g transform="matrix(0.2405892 0 0 0.2400849 18.94573 579.111)"><g transform="matrix(1 0 0 1 0 0)"><image x="0" y="0" xlink:href="img_06.png" width="1222" height="706" /></g></g></g><g clip-path="url(#33)"><g transform="matrix(0.3444444 0 0 0.346875 523.0706 590.8831)"><g transform="matrix(1 0 0 1 0 0)"><image x="0" y="0" xlink:href="img_07.png" width="135" height="160" /></g></g></g><g clip-path="url(#34)"><g transform="matrix(0.253125 0 0 0.251046 421.5085 744.3365)"><g transform="matrix(1 0 0 1 0 0)"><image x="0" y="0" xlink:href="img_08.png" width="240" height="239" /></g></g></g><g clip-path="url(#35)"><g transform="matrix(0.4618528 0 0 0.4629186 21.83323 677.6426)"><g transform="matrix(1 0 0 1 0 0)"><image x="0" y="0" xlink:href="img_09.png" width="367" height="209" /></g></g></g><g clip-path="url(#36)"></g></g></g></svg>