<svg xmlns="http://www.w3.org/2000/svg" xmlns:xlink="http://www.w3.org/1999/xlink" id="body_1" preserveAspectRatio="xMinYMin meet" viewBox="0 0 793 1123"><defs><clipPath id="1"><path id="" clip-rule="evenodd" transform="matrix(1 0 0 1 0 0)" d="M0 842L0 -0.25L0 -0.25L595.5 -0.25L595.5 -0.25L595.5 842L595.5 842L0 842z" /></clipPath><clipPath id="2"><path id="" clip-rule="evenodd" transform="matrix(1 0 0 1 0 0)" d="M0 -0.249939L595.5 -0.249939L595.5 -0.249939L595.5 842.0001L595.5 842.0001L0 842.0001z" /></clipPath><clipPath id="3"><path id="" clip-rule="evenodd" transform="matrix(1 0 0 1 0 0)" d="M0 -0.249939L595.5 -0.249939L595.5 -0.249939L595.5 842.0001L595.5 842.0001L0 842.0001z" /></clipPath><clipPath id="4"><path id="" clip-rule="evenodd" transform="matrix(1 0 0 1 0 0)" d="M0 -0.249939L595.5 -0.249939L595.5 -0.249939L595.5 842.0001L595.5 842.0001L0 842.0001z" /></clipPath><clipPath id="5"><path id="" clip-rule="evenodd" transform="matrix(1 0 0 1 0 0)" d="M78.71999 30.71008L522.24 30.71008L522.24 30.71008L522.24 810.9501L522.24 810.9501L78.71999 810.9501z" /></clipPath><clipPath id="6"><path id="" clip-rule="evenodd" transform="matrix(1 0 0 1 0 0)" d="M79.51787 30.75183L522.0178 30.75183L522.0178 30.75183L522.0178 810.7518L522.0178 810.7518L79.51787 810.7518z" /></clipPath><clipPath id="7"><path id="" clip-rule="evenodd" transform="matrix(1 0 0 1 0 0)" d="M35.35967 417.7267L97.60967 417.7267L97.60967 417.7267L97.60967 455.9767L97.60967 455.9767L35.35967 455.9767z" /></clipPath><clipPath id="8"><path id="" clip-rule="evenodd" transform="matrix(1 0 0 1 0 0)" d="M37.44 419.9901L92.88 419.9901L92.88 419.9901L92.88 440.8701L92.88 440.8701L37.44 440.8701z" /></clipPath><clipPath id="9"><path id="" clip-rule="evenodd" transform="matrix(1 0 0 1 0 0)" d="M0 -0.249939L595.5 -0.249939L595.5 -0.249939L595.5 842.0001L595.5 842.0001L0 842.0001z" /></clipPath><clipPath id="10"><path id="" clip-rule="evenodd" transform="matrix(1 0 0 1 0 0)" d="M34.58419 507.4525L96.8342 507.4525L96.8342 507.4525L96.8342 545.7025L96.8342 545.7025L34.58419 545.7025z" /></clipPath><clipPath id="11"><path id="" clip-rule="evenodd" transform="matrix(1 0 0 1 0 0)" d="M36.72 509.7501L92.16 509.7501L92.16 509.7501L92.16 530.6301L92.16 530.6301L36.72 530.6301z" /></clipPath><clipPath id="12"><path id="" clip-rule="evenodd" transform="matrix(1 0 0 1 0 0)" d="M0 -0.249939L595.5 -0.249939L595.5 -0.249939L595.5 842.0001L595.5 842.0001L0 842.0001z" /></clipPath><clipPath id="13"><path id="" clip-rule="evenodd" transform="matrix(1 0 0 1 0 0)" d="M34.58419 610.2239L96.8342 610.2239L96.8342 610.2239L96.8342 648.4739L96.8342 648.4739L34.58419 648.4739z" /></clipPath><clipPath id="14"><path id="" clip-rule="evenodd" transform="matrix(1 0 0 1 0 0)" d="M36.72 612.7101L92.16 612.7101L92.16 612.7101L92.16 633.5901L92.16 633.5901L36.72 633.5901z" /></clipPath><clipPath id="15"><path id="" clip-rule="evenodd" transform="matrix(1 0 0 1 0 0)" d="M0 -0.249939L595.5 -0.249939L595.5 -0.249939L595.5 842.0001L595.5 842.0001L0 842.0001z" /></clipPath><clipPath id="16"><path id="" clip-rule="evenodd" transform="matrix(1 0 0 1 0 0)" d="M503.015 5.097351L584.765 5.097351L584.765 5.097351L584.765 51.59735L584.765 51.59735L503.015 51.59735z" /></clipPath><clipPath id="17"><path id="" clip-rule="evenodd" transform="matrix(1 0 0 1 0 0)" d="M0 -0.249939L595.5 -0.249939L595.5 -0.249939L595.5 842.0001L595.5 842.0001L0 842.0001z" /></clipPath><clipPath id="18"><path id="" clip-rule="evenodd" transform="matrix(1 0 0 1 0 0)" d="M32.02514 713.198L94.27513 713.198L94.27513 713.198L94.27513 751.448L94.27513 751.448L32.02514 751.448z" /></clipPath><clipPath id="19"><path id="" clip-rule="evenodd" transform="matrix(1 0 0 1 0 0)" d="M34.08 715.67L89.52 715.67L89.52 715.67L89.52 736.55L89.52 736.55L34.08 736.55z" /></clipPath><clipPath id="20"><path id="" clip-rule="evenodd" transform="matrix(1 0 0 1 0 0)" d="M0 -0.249939L595.5 -0.249939L595.5 -0.249939L595.5 842.0001L595.5 842.0001L0 842.0001z" /></clipPath></defs><g transform="matrix(1.333333 0 0 1.333333 0 0)"><g clip-path="url(#1)"><g clip-path="url(#2)"><path id="1" transform="matrix(1 0 0 -1 0 842)" d="M0 842.2499L595.4999 842.2499L595.4999 -6.103516E-05L0 -6.103516E-05z" stroke="none" fill="#FFFFFF" fill-rule="nonzero" /></g><g clip-path="url(#3)"><path id="2" transform="matrix(1 0 0 -1 0 842)" d="M0 842.2499L595.4999 842.2499L595.4999 -6.103516E-05L0 -6.103516E-05z" stroke="none" fill="#E9FCFF" fill-rule="nonzero" /></g><g clip-path="url(#4)"><g><g clip-path="url(#5)"><g clip-path="url(#6)"><g transform="matrix(0 0.5128205 -0.5127462 0 522.0178 30.75189)"><g transform="matrix(1 0 0 1 0 0)"><image x="0" y="0" xlink:href="img_01.png" width="1521" height="863" /></g></g></g></g></g></g><g clip-path="url(#7)"><path id="4" transform="matrix(1 0 0 -1 0 842)" d="M40.4353 389.3799C 39.24765 388.6048 39.07263 387.3796 39.04763 386.6295C 39.04763 386.4045 38.8351 386.2795 38.69759 386.4045C 34.8346 389.7675 35.6347 402.9691 35.67221 404.3318C 35.88474 412.5453 35.43468 411.0701 36.28478 419.2586C 36.28478 419.2586 36.65983 422.8716 39.26015 423.0841C 53.39942 424.2468 62.53806 423.5092 76.71483 423.3466C 82.0405 423.2841 86.67857 421.2464 90.32903 417.821C 93.2794 415.0581 96.55481 411.7077 97.32991 407.8072C 98.20502 403.4066 94.64207 400.0938 91.6292 397.0309C 87.06612 392.3803 83.15314 390.6301 76.01474 390.6425C 67.7012 390.6676 64.4508 390.6425 56.12476 390.605C 50.74909 390.5926 42.68558 390.8426 40.4228 389.3674L40.4228 389.3674L40.4353 389.3799z" stroke="none" fill="#8EDFD2" fill-rule="nonzero" /><g><g clip-path="url(#8)"><path id="5" transform="matrix(1 0 0 -1 0 842)" d="M40.82285 403.8067C 41.01038 406.682 40.94787 409.6199 41.2354 412.4828C 41.39792 414.1205 41.84798 415.7832 42.7981 416.8708C 44.3983 418.6835 46.97362 418.446 48.97387 418.521C 51.68671 418.621 54.38705 418.4835 57.09988 418.4835C 65.93849 418.4835 52.53681 418.671 61.37542 418.571C 66.23853 418.5085 71.27666 418.6085 76.08975 417.6209C 78.77759 417.0583 81.42793 416.1707 83.92824 414.7705C 86.54106 413.2953 88.56631 410.9826 90.97911 409.1323C 92.12926 408.2572 92.96686 409.3699 92.66682 410.9326C 92.34178 412.6703 90.17902 414.0955 88.99136 415.1456C 87.07863 416.8333 85.15339 418.6085 82.89061 419.7212C 79.50269 421.3839 75.78972 421.2463 72.22678 421.3089C 68.4388 421.3714 64.66333 421.6589 60.88786 421.6839C 55.03713 421.7214 49.1739 421.7214 43.31067 421.6839C 39.11014 421.6589 57.1624 421.6089 52.96187 421.5214C 50.84911 421.4839 48.72384 421.4339 46.61108 421.3839C 43.5732 421.3089 38.89761 421.0338 38.11002 416.1207C 37.74747 413.8329 37.69746 411.4951 37.69746 409.1573C 37.69746 407.0321 37.54744 404.7818 37.88499 402.6815C 38.26003 400.3562 40.26028 401.0688 40.71034 402.9191C 40.78535 403.2066 40.82285 403.5066 40.83535 403.8192L40.83535 403.8192L40.82285 403.8067z" stroke="none" fill="#FFFFFF" fill-rule="nonzero" fill-opacity="0.09803922" /></g></g><path id="6" transform="matrix(1 0 0 -1 0 842)" d="M40.4353 389.3799C 40.91036 389.6799 41.42293 389.83 41.93549 389.9675C 42.97312 390.2175 44.01075 390.3425 45.06088 390.4425C 48.63633 390.7426 52.4743 390.7301 56.07476 390.8051C 61.86298 390.7926 65.21339 391.1676 68.46381 391.1551C 69.81396 391.1551 75.41467 391.1551 76.70233 391.1551C 77.60245 391.1676 78.52756 391.2051 79.42767 391.3051C 84.19077 391.7552 87.7037 393.5929 91.44167 397.4559C 92.85435 398.9061 94.34203 400.3188 95.54218 402.0565C 96.70483 403.7442 97.49243 405.8069 96.87985 408.0822C 96.31728 410.27 95.09213 412.0202 93.80447 413.5954C 93.04187 414.4955 92.24178 415.3456 91.41667 416.1582C 90.59157 416.9583 89.75396 417.7709 88.87885 418.471C 85.80347 420.9464 82.26553 422.334 78.66507 422.7091C 77.90248 422.7966 77.10238 422.8216 76.33978 422.8216C 63.32566 422.9841 71.42667 423.2716 58.47505 423.1841C 52.06175 423.1216 45.64845 423.0466 39.24765 422.5591C 38.43505 422.484 37.70996 421.934 37.2599 421.0338C 36.97237 420.4713 36.77234 419.7962 36.69733 419.1211L36.69733 419.1211L36.67233 418.8711L36.67233 418.8711L36.62232 418.371C 36.4598 416.6958 36.30978 415.0081 36.20977 413.3454C 36.13476 412.1953 36.13476 410.4825 36.10976 409.3074C 36.08475 407.5947 36.03475 405.907 35.95974 404.1942C 35.90973 403.2191 35.84723 402.1315 35.82222 401.1564C 35.72221 396.8558 35.79722 388.4923 39.06013 386.167C 39.06013 386.317 39.06013 386.492 39.07263 386.6545C 39.11013 387.8922 39.6102 388.8548 40.4728 389.3924L40.4728 389.3924L40.4353 389.3799zM40.4353 389.3799C 39.98524 389.0799 39.57269 388.6423 39.33517 388.0547C 39.21015 387.7672 39.13514 387.4421 39.09764 387.1171C 39.06013 386.7921 39.06013 386.7921 39.06013 386.6295C 39.06013 386.6295 38.69759 386.3795 38.69759 386.3795C 38.37254 386.6671 38.07251 387.0171 37.82248 387.4047C 36.19727 390.005 35.77222 393.8304 35.52219 397.0558C 35.34717 399.4312 35.33467 401.844 35.39717 404.2192C 35.42218 405.907 35.40968 407.6197 35.39717 409.2949C 35.38467 410.6576 35.34717 412.0327 35.39717 413.3954C 35.45968 415.1081 35.6347 416.8083 35.80973 418.496L35.80973 418.496L35.85973 418.9961L35.85973 418.9961L35.88474 419.2461C 35.98475 420.0837 36.22227 420.8713 36.57232 421.5839C 37.04738 422.5465 37.83498 423.2841 38.71009 423.4967C 38.97262 423.5717 39.27266 423.5842 39.54769 423.6092C 59.28766 424.8093 57.33741 424.0092 77.11488 423.8467C 82.65308 423.6842 87.54118 421.4714 91.87923 416.9833C 93.97949 414.8831 96.14226 412.5953 97.31741 409.4199C 99.33016 404.0317 95.45468 400.2688 92.54181 397.2934C 91.50418 396.2307 90.45405 395.1806 89.3289 394.2805C 87.74121 392.9929 86.01599 391.9802 84.21577 391.3301C 81.15289 390.205 77.90248 390.1175 74.73959 390.1425C 67.56369 390.1425 53.92449 390.6676 46.63608 390.4925C 45.06088 390.4175 43.48568 390.33 41.93549 389.955C 41.42293 389.83 40.91036 389.6674 40.4353 389.3799z" stroke="none" fill="#000000" fill-rule="nonzero" /></g><g clip-path="url(#9)"></g><g clip-path="url(#10)"><path id="272" transform="matrix(1 0 0 -1 0 842)" d="M39.65983 299.6541C 38.47218 298.879 38.29716 297.6538 38.27216 296.9037C 38.27216 296.6787 38.05963 296.5537 37.92211 296.6787C 34.05913 300.0416 34.85923 313.2433 34.89673 314.6059C 35.10926 322.8195 34.6592 321.3443 35.50931 329.5328C 35.50931 329.5328 35.88436 333.1458 38.48468 333.3583C 52.62395 334.5209 61.76259 333.7833 75.93936 333.6208C 81.26503 333.5583 85.90311 331.5205 89.55356 328.0951C 92.50393 325.3323 95.77934 321.9819 96.55443 318.0814C 97.42954 313.6808 93.86659 310.3679 90.85372 307.305C 86.29065 302.6544 82.37766 300.9042 75.23927 300.9167C 66.92574 300.9417 63.67532 300.9167 55.34929 300.8792C 49.97361 300.8667 41.91011 301.1168 39.64732 299.6416L39.64732 299.6416L39.65983 299.6541z" stroke="none" fill="#8EDFD2" fill-rule="nonzero" /><g><g clip-path="url(#11)"><path id="273" transform="matrix(1 0 0 -1 0 842)" d="M40.04737 314.0809C 40.2349 316.9562 40.17239 319.8941 40.45992 322.757C 40.62244 324.3947 41.0725 326.0574 42.02262 327.145C 43.62282 328.9577 46.19814 328.7202 48.19839 328.7952C 50.91123 328.8952 53.61156 328.7577 56.32441 328.7577C 65.16301 328.7577 51.76134 328.9452 60.59994 328.8452C 65.46304 328.7827 70.50117 328.8827 75.31428 327.8951C 78.00211 327.3325 80.65245 326.4449 83.15276 325.0447C 85.76558 323.5695 87.79083 321.2568 90.20364 319.4065C 91.35378 318.5314 92.19138 319.6441 91.89135 321.2068C 91.56631 322.9445 89.40353 324.3697 88.21589 325.4198C 86.30315 327.1075 84.37791 328.8827 82.11513 329.9954C 78.7272 331.6581 75.01424 331.5205 71.45129 331.5831C 67.66333 331.6456 63.88786 331.9331 60.11238 331.9581C 54.26165 331.9956 48.39842 331.9956 42.53519 331.9581C 38.33466 331.9331 56.38692 331.8831 52.18639 331.7956C 50.07363 331.7581 47.94836 331.7081 45.8356 331.6581C 42.79772 331.5831 38.12214 331.308 37.33454 326.3949C 36.97199 324.1071 36.92199 321.7693 36.92199 319.4315C 36.92199 317.3063 36.77197 315.056 37.10951 312.9557C 37.48455 310.6304 39.48481 311.343 39.93486 313.1933C 40.00987 313.4808 40.04737 313.7808 40.05988 314.0934L40.05988 314.0934L40.04737 314.0809z" stroke="none" fill="#FFFFFF" fill-rule="nonzero" fill-opacity="0.09803922" /></g></g><path id="274" transform="matrix(1 0 0 -1 0 842)" d="M39.65983 299.6541C 40.13489 299.9541 40.64745 300.1041 41.16002 300.2416C 42.19764 300.4917 43.23528 300.6167 44.28541 300.7167C 47.86085 301.0167 51.69883 301.0042 55.29928 301.0793C 61.08751 301.0667 64.43792 301.4418 67.68832 301.4293C 69.0385 301.4293 74.6392 301.4293 75.92686 301.4293C 76.82697 301.4418 77.75209 301.4793 78.65219 301.5793C 83.41529 302.0294 86.92822 303.8671 90.6662 307.7301C 92.07887 309.1803 93.56656 310.5929 94.76671 312.3307C 95.92935 314.0184 96.71695 316.0811 96.10438 318.3564C 95.54181 320.5442 94.31665 322.2944 93.02899 323.8696C 92.2664 324.7697 91.46629 325.6198 90.64119 326.4324C 89.81609 327.2325 88.97849 328.0451 88.10338 328.7452C 85.02799 331.2205 81.49005 332.6082 77.8896 332.9832C 77.127 333.0707 76.3269 333.0957 75.56431 333.0957C 62.55018 333.2583 70.6512 333.5458 57.69958 333.4583C 51.28628 333.3958 44.87297 333.3208 38.47218 332.8332C 37.65957 332.7582 36.93448 332.2081 36.48443 331.308C 36.19689 330.7455 35.99686 330.0704 35.92186 329.3953L35.92186 329.3953L35.89685 329.1453L35.89685 329.1453L35.84685 328.6452C 35.68433 326.97 35.53431 325.2823 35.4343 323.6196C 35.35929 322.4694 35.35929 320.7567 35.33428 319.5815C 35.30928 317.8688 35.25927 316.1811 35.18427 314.4684C 35.13426 313.4933 35.07175 312.4057 35.04675 311.4305C 34.94674 307.13 35.02174 298.7664 38.28465 296.4412C 38.28465 296.5912 38.28465 296.7662 38.29715 296.9287C 38.33466 298.1664 38.83472 299.129 39.69733 299.6666L39.69733 299.6666L39.65983 299.6541zM39.65983 299.6541C 39.20977 299.354 38.79722 298.9165 38.55969 298.3289C 38.43467 298.0414 38.35966 297.7163 38.32216 297.3913C 38.28466 297.0663 38.28466 297.0663 38.28466 296.9037C 38.28466 296.9037 37.92211 296.6537 37.92211 296.6537C 37.59707 296.9412 37.29703 297.2913 37.047 297.6788C 35.4218 300.2791 34.99675 304.1046 34.74672 307.33C 34.57169 309.7053 34.55919 312.1181 34.6217 314.4934C 34.6467 316.1811 34.6342 317.8939 34.6217 319.5691C 34.6092 320.9317 34.57169 322.3069 34.6217 323.6696C 34.68421 325.3823 34.85923 327.0825 35.03425 328.7702L35.03425 328.7702L35.08426 329.2703L35.08426 329.2703L35.10926 329.5203C 35.20927 330.3579 35.4468 331.1455 35.79684 331.8581C 36.2719 332.8207 37.0595 333.5583 37.93461 333.7708C 38.19714 333.8459 38.49718 333.8583 38.77222 333.8833C 58.51218 335.0835 56.56194 334.2834 76.33941 334.1209C 81.8776 333.9583 86.76572 331.7456 91.10376 327.2575C 93.20402 325.1573 95.36679 322.8695 96.54193 319.6941C 98.55469 314.3059 94.6792 310.5429 91.76633 307.5676C 90.72871 306.5049 89.67857 305.4548 88.55344 304.5547C 86.96573 303.267 85.24052 302.2544 83.44029 301.6043C 80.37741 300.4792 77.12701 300.3917 73.96411 300.4167C 66.78822 300.4167 53.14901 300.9417 45.8606 300.7667C 44.28541 300.6917 42.71021 300.6042 41.16002 300.2291C 40.64745 300.1041 40.13489 299.9416 39.65983 299.6541z" stroke="none" fill="#000000" fill-rule="nonzero" /></g><g clip-path="url(#12)"></g><g clip-path="url(#13)"><path id="276" transform="matrix(1 0 0 -1 0 842)" d="M39.65983 196.8827C 38.47218 196.1076 38.29716 194.8824 38.27216 194.1323C 38.27216 193.9073 38.05963 193.7823 37.92211 193.9073C 34.05913 197.2702 34.85923 210.4719 34.89673 211.8346C 35.10926 220.0481 34.6592 218.5729 35.50931 226.7614C 35.50931 226.7614 35.88436 230.3744 38.48468 230.5869C 52.62395 231.7495 61.76259 231.012 75.93936 230.8494C 81.26503 230.7869 85.90311 228.7492 89.55356 225.3237C 92.50393 222.5609 95.77934 219.2105 96.55443 215.31C 97.42954 210.9094 93.86659 207.5965 90.85372 204.5336C 86.29065 199.8831 82.37766 198.1328 75.23927 198.1454C 66.92574 198.1703 63.67532 198.1454 55.34929 198.1078C 49.97361 198.0953 41.91011 198.3454 39.64732 196.8702L39.64732 196.8702L39.65983 196.8827z" stroke="none" fill="#8EDFD2" fill-rule="nonzero" /><g><g clip-path="url(#14)"><path id="277" transform="matrix(1 0 0 -1 0 842)" d="M40.04737 211.3095C 40.2349 214.1848 40.17239 217.1227 40.45992 219.9856C 40.62244 221.6233 41.0725 223.286 42.02262 224.3736C 43.62282 226.1864 46.19814 225.9488 48.19839 226.0238C 50.91123 226.1238 53.61156 225.9863 56.32441 225.9863C 65.16301 225.9863 51.76134 226.1739 60.59994 226.0738C 65.46304 226.0113 70.50117 226.1113 75.31428 225.1237C 78.00211 224.5612 80.65245 223.6735 83.15276 222.2734C 85.76558 220.7982 87.79083 218.4854 90.20364 216.6352C 91.35378 215.7601 92.19138 216.8727 91.89135 218.4354C 91.56631 220.1731 89.40353 221.5983 88.21589 222.6484C 86.30315 224.3361 84.37791 226.1113 82.11513 227.224C 78.7272 228.8867 75.01424 228.7492 71.45129 228.8117C 67.66333 228.8742 63.88786 229.1617 60.11238 229.1867C 54.26165 229.2242 48.39842 229.2242 42.53519 229.1867C 38.33466 229.1617 56.38692 229.1117 52.18639 229.0242C 50.07363 228.9867 47.94836 228.9367 45.8356 228.8867C 42.79772 228.8117 38.12214 228.5367 37.33454 223.6235C 36.97199 221.3358 36.92199 218.998 36.92199 216.6602C 36.92199 214.5349 36.77197 212.2846 37.10951 210.1844C 37.48455 207.8591 39.48481 208.5717 39.93486 210.4219C 40.00987 210.7094 40.04737 211.0095 40.05988 211.322L40.05988 211.322L40.04737 211.3095z" stroke="none" fill="#FFFFFF" fill-rule="nonzero" fill-opacity="0.09803922" /></g></g><path id="278" transform="matrix(1 0 0 -1 0 842)" d="M39.65983 196.8827C 40.13489 197.1827 40.64745 197.3327 41.16002 197.4703C 42.19764 197.7203 43.23528 197.8453 44.28541 197.9453C 47.86085 198.2454 51.69883 198.2328 55.29928 198.3079C 61.08751 198.2954 64.43792 198.6704 67.68832 198.6579C 69.0385 198.6579 74.6392 198.6579 75.92686 198.6579C 76.82697 198.6704 77.75209 198.7079 78.65219 198.8079C 83.41529 199.258 86.92822 201.0957 90.6662 204.9587C 92.07887 206.4089 93.56656 207.8215 94.76671 209.5593C 95.92935 211.247 96.71695 213.3097 96.10438 215.585C 95.54181 217.7728 94.31665 219.523 93.02899 221.0982C 92.2664 221.9983 91.46629 222.8484 90.64119 223.661C 89.81609 224.4611 88.97849 225.2737 88.10338 225.9738C 85.02799 228.4491 81.49005 229.8368 77.8896 230.2119C 77.127 230.2994 76.3269 230.3244 75.56431 230.3244C 62.55018 230.4869 70.6512 230.7744 57.69958 230.6869C 51.28628 230.6244 44.87297 230.5494 38.47218 230.0618C 37.65957 229.9868 36.93448 229.4368 36.48443 228.5367C 36.19689 227.9741 35.99686 227.299 35.92186 226.6239L35.92186 226.6239L35.89685 226.3739L35.89685 226.3739L35.84685 225.8738C 35.68433 224.1986 35.53431 222.5109 35.4343 220.8482C 35.35929 219.698 35.35929 217.9853 35.33428 216.8102C 35.30928 215.0975 35.25927 213.4098 35.18427 211.697C 35.13426 210.7219 35.07175 209.6343 35.04675 208.6592C 34.94674 204.3586 35.02174 195.9951 38.28465 193.6698C 38.28465 193.8198 38.28465 193.9948 38.29715 194.1573C 38.33466 195.395 38.83472 196.3576 39.69733 196.8952L39.69733 196.8952L39.65983 196.8827zM39.65983 196.8827C 39.20977 196.5827 38.79722 196.1451 38.55969 195.5575C 38.43467 195.27 38.35966 194.9449 38.32216 194.6199C 38.28466 194.2949 38.28466 194.2949 38.28466 194.1323C 38.28466 194.1323 37.92211 193.8823 37.92211 193.8823C 37.59707 194.1698 37.29703 194.5199 37.047 194.9074C 35.4218 197.5078 34.99675 201.3333 34.74672 204.5587C 34.57169 206.9339 34.55919 209.3467 34.6217 211.722C 34.6467 213.4098 34.6342 215.1225 34.6217 216.7977C 34.6092 218.1604 34.57169 219.5355 34.6217 220.8982C 34.68421 222.6109 34.85923 224.3111 35.03425 225.9988L35.03425 225.9988L35.08426 226.4989L35.08426 226.4989L35.10926 226.7489C 35.20927 227.5865 35.4468 228.3741 35.79684 229.0867C 36.2719 230.0493 37.0595 230.7869 37.93461 230.9995C 38.19714 231.0745 38.49718 231.087 38.77222 231.112C 58.51218 232.3121 56.56194 231.512 76.33941 231.3495C 81.8776 231.187 86.76572 228.9742 91.10376 224.4861C 93.20402 222.3859 95.36679 220.0981 96.54193 216.9227C 98.55469 211.5345 94.6792 207.7715 91.76633 204.7962C 90.72871 203.7336 89.67857 202.6834 88.55344 201.7833C 86.96573 200.4956 85.24052 199.483 83.44029 198.8329C 80.37741 197.7078 77.12701 197.6203 73.96411 197.6453C 66.78822 197.6453 53.14901 198.1703 45.8606 197.9953C 44.28541 197.9203 42.71021 197.8328 41.16002 197.4578C 40.64745 197.3327 40.13489 197.1702 39.65983 196.8827z" stroke="none" fill="#000000" fill-rule="nonzero" /></g><g clip-path="url(#15)"></g><g clip-path="url(#16)"><g transform="matrix(0.05374753 0 0 0.0538818 503.015 5.097412)"><g transform="matrix(1 0 0 1 0 0)"><image x="0" y="0" xlink:href="img_02.png" width="1521" height="863" /></g></g></g><g clip-path="url(#17)"></g><g clip-path="url(#18)"><path id="483" transform="matrix(1 0 0 -1 0 842)" d="M37.10077 93.90863C 35.91312 93.13353 35.73809 91.90838 35.71309 91.15828C 35.71309 90.93326 35.50056 90.80824 35.36305 90.93326C 31.50006 94.29617 32.30017 107.4978 32.33767 108.8605C 32.5502 117.074 32.10014 115.5988 32.95025 123.7874C 32.95025 123.7874 33.32529 127.4003 35.92562 127.6128C 50.06488 128.7755 59.20353 128.0379 73.38029 127.8754C 78.70596 127.8129 83.34404 125.7751 86.99449 122.3497C 89.94487 119.5868 93.22028 116.2364 93.99537 112.3359C 94.87048 107.9354 91.30753 104.6225 88.29466 101.5596C 83.73158 96.909 79.8186 95.15878 72.68021 95.17129C 64.36667 95.19629 61.11626 95.17129 52.79022 95.13379C 47.41455 95.12128 39.35104 95.37131 37.08826 93.89613L37.08826 93.89613L37.10077 93.90863z" stroke="none" fill="#8EDFD2" fill-rule="nonzero" /><g><g clip-path="url(#19)"><path id="484" transform="matrix(1 0 0 -1 0 842)" d="M37.48831 108.3354C 37.67584 111.2108 37.61333 114.1487 37.90086 117.0115C 38.06339 118.6492 38.51344 120.3119 39.46356 121.3996C 41.06376 123.2123 43.63908 122.9748 45.63933 123.0498C 48.35217 123.1498 51.05251 123.0123 53.76535 123.0123C 62.60395 123.0123 49.20228 123.1998 58.04088 123.0998C 62.90399 123.0373 67.94212 123.1373 72.75522 122.1497C 75.44305 121.5871 78.09338 120.6995 80.5937 119.2993C 83.20653 117.8241 85.23178 115.5113 87.64458 113.6611C 88.79472 112.786 89.63232 113.8986 89.33229 115.4613C 89.00725 117.199 86.84448 118.6242 85.65683 119.6744C 83.74409 121.3621 81.81885 123.1373 79.55607 124.2499C 76.16815 125.9126 72.45518 125.7751 68.89224 125.8376C 65.10426 125.9001 61.3288 126.1877 57.55332 126.2127C 51.70259 126.2502 45.83936 126.2502 39.97613 126.2127C 35.7756 126.1877 53.82786 126.1377 49.62733 126.0501C 47.51457 126.0126 45.3893 125.9626 43.27654 125.9126C 40.23866 125.8376 35.56308 125.5626 34.77548 120.6495C 34.41293 118.3617 34.36293 116.0239 34.36293 113.6861C 34.36293 111.5608 34.21291 109.3106 34.55045 107.2103C 34.9255 104.885 36.92575 105.5976 37.3758 107.4478C 37.45081 107.7354 37.48832 108.0354 37.50082 108.3479L37.50082 108.3479L37.48831 108.3354z" stroke="none" fill="#FFFFFF" fill-rule="nonzero" fill-opacity="0.09803922" /></g></g><path id="485" transform="matrix(1 0 0 -1 0 842)" d="M37.10077 93.90863C 37.57582 94.20866 38.08839 94.35869 38.60095 94.4962C 39.63858 94.74623 40.67621 94.87125 41.72634 94.97126C 45.30179 95.2713 49.13977 95.2588 52.74022 95.3338C 58.52844 95.3213 61.87886 95.69635 65.12926 95.68385C 66.47943 95.68385 72.08014 95.68385 73.3678 95.68385C 74.26791 95.69635 75.19302 95.73386 76.09313 95.83386C 80.85623 96.28392 84.36916 98.12166 88.10713 101.9846C 89.51981 103.4348 91.00749 104.8475 92.20764 106.5852C 93.37029 108.2729 94.15789 110.3357 93.54532 112.611C 92.98274 114.7987 91.75759 116.549 90.46992 118.1242C 89.70734 119.0243 88.90723 119.8744 88.08213 120.687C 87.25703 121.4871 86.41942 122.2997 85.54431 122.9998C 82.46893 125.4751 78.93098 126.8627 75.33054 127.2378C 74.56794 127.3253 73.76784 127.3503 73.00525 127.3503C 59.99112 127.5128 68.09213 127.8004 55.14051 127.7129C 48.72721 127.6503 42.31391 127.5753 35.91311 127.0878C 35.10051 127.0128 34.37542 126.4627 33.92537 125.5626C 33.63783 125 33.4378 124.3249 33.36279 123.6498L33.36279 123.6498L33.33779 123.3998L33.33779 123.3998L33.28778 122.8997C 33.12526 121.2245 32.97525 119.5368 32.87523 117.8741C 32.80022 116.724 32.80022 115.0113 32.77522 113.8361C 32.75022 112.1234 32.70021 110.4357 32.6252 108.723C 32.5752 107.7479 32.51269 106.6602 32.48768 105.6851C 32.38767 101.3846 32.46268 93.02101 35.72559 90.69572C 35.72559 90.84575 35.72559 91.02077 35.73809 91.18329C 35.7756 92.42094 36.27566 93.38356 37.13826 93.92113L37.13826 93.92113L37.10077 93.90863zM37.10077 93.90863C 36.65071 93.6086 36.23816 93.17104 36.00063 92.58347C 35.87561 92.29593 35.8006 91.97089 35.7631 91.64584C 35.72559 91.3208 35.72559 91.3208 35.72559 91.15828C 35.72559 91.15828 35.36305 90.90825 35.36305 90.90825C 35.03801 91.19579 34.73797 91.54584 34.48794 91.93338C 32.86274 94.53371 32.43768 98.35918 32.18765 101.5846C 32.01263 103.9599 32.00013 106.3727 32.06264 108.748C 32.08764 110.4357 32.07514 112.1484 32.06264 113.8236C 32.05013 115.1863 32.01263 116.5615 32.06264 117.9241C 32.12514 119.6368 32.30017 121.3371 32.47519 123.0248L32.47519 123.0248L32.52519 123.5248L32.52519 123.5248L32.5502 123.7749C 32.65021 124.6125 32.88774 125.4001 33.23778 126.1127C 33.71284 127.0753 34.50044 127.8129 35.37555 128.0254C 35.63808 128.1004 35.93812 128.1129 36.21315 128.1379C 55.95312 129.3381 54.00288 128.538 73.78035 128.3754C 79.31854 128.2129 84.20665 126.0001 88.54469 121.5121C 90.64496 119.4118 92.80772 117.124 93.98287 113.9486C 95.99562 108.5605 92.12014 104.7975 89.20728 101.8221C 88.16965 100.7595 87.11951 99.70935 85.99437 98.80924C 84.40667 97.52158 82.68146 96.50896 80.88123 95.85887C 77.81835 94.73373 74.56795 94.64622 71.40505 94.67122C 64.22916 94.67122 50.58995 95.19629 43.30154 95.02127C 41.72634 94.94626 40.15115 94.85875 38.60095 94.4837C 38.08839 94.35869 37.57582 94.19617 37.10077 93.90863z" stroke="none" fill="#000000" fill-rule="nonzero" /></g><g clip-path="url(#20)"></g></g></g></svg>