<svg xmlns="http://www.w3.org/2000/svg" xmlns:xlink="http://www.w3.org/1999/xlink" id="body_1" preserveAspectRatio="xMinYMin meet" viewBox="0 0 793 1123"><defs><clipPath id="1"><path id="" clip-rule="evenodd" transform="matrix(1 0 0 1 0 0)" d="M0 842L0 -0.250061L0 -0.250061L595.5 -0.250061L595.5 -0.250061L595.5 842L595.5 842L0 842z" /></clipPath><clipPath id="2"><path id="" clip-rule="evenodd" transform="matrix(1 0 0 1 0 0)" d="M0 -0.25L595.5 -0.25L595.5 -0.25L595.5 842.0012L595.5 842.0012L0 842.0012z" /></clipPath><clipPath id="3"><path id="" clip-rule="evenodd" transform="matrix(1 0 0 1 0 0)" d="M0 -0.25L595.5 -0.25L595.5 -0.25L595.5 842.0012L595.5 842.0012L0 842.0012z" /></clipPath><clipPath id="4"><path id="" clip-rule="evenodd" transform="matrix(1 0 0 1 0 0)" d="M0 -0.25L595.5 -0.25L595.5 -0.25L595.5 842.0012L595.5 842.0012L0 842.0012z" /></clipPath><clipPath id="5"><path id="" clip-rule="evenodd" transform="matrix(1 0 0 1 0 0)" d="M78.71999 30.71002L522.24 30.71002L522.24 30.71002L522.24 810.95L522.24 810.95L78.71999 810.95z" /></clipPath><clipPath id="6"><path id="" clip-rule="evenodd" transform="matrix(1 0 0 1 0 0)" d="M79.51786 30.75177L522.0178 30.75177L522.0178 30.75177L522.0178 810.7518L522.0178 810.7518L79.51786 810.7518z" /></clipPath><clipPath id="7"><path id="" clip-rule="evenodd" transform="matrix(1 0 0 1 0 0)" d="M0 -0.25L595.5 -0.25L595.5 -0.25L595.5 842.0012L595.5 842.0012L0 842.0012z" /></clipPath><clipPath id="8"><path id="" clip-rule="evenodd" transform="matrix(1 0 0 1 0 0)" d="M0 -0.25L595.5 -0.25L595.5 -0.25L595.5 842.0012L595.5 842.0012L0 842.0012z" /></clipPath><clipPath id="9"><path id="" clip-rule="evenodd" transform="matrix(1 0 0 1 0 0)" d="M37.29288 213.6982L284.8265 213.6982L284.8265 213.6982L284.8265 465.1006L284.8265 465.1006L37.29288 465.1006z" /></clipPath><clipPath id="10"><path id="" clip-rule="evenodd" transform="matrix(1 0 0 1 0 0)" d="M65.04288 213.6982L257.076 213.6982C 264.4368 213.6982 271.4952 216.6219 276.6984 221.826C 281.904 227.0302 284.8272 234.0886 284.8272 241.4492L284.8272 241.4492L284.8272 436.7876C 284.8272 444.146 281.904 451.2044 276.6984 456.4076C 271.4952 461.6132 264.4368 464.5364 257.076 464.5364L257.076 464.5364L65.04288 464.5364C 57.68328 464.5364 50.62488 461.6132 45.42072 456.4076C 40.21656 451.2044 37.29288 444.146 37.29288 436.7876L37.29288 436.7876L37.29288 241.4492C 37.29288 234.0886 40.21656 227.0302 45.42072 221.826C 50.62488 216.6219 57.68328 213.6982 65.04288 213.6982z" /></clipPath><clipPath id="11"><path id="" clip-rule="evenodd" transform="matrix(1 0 0 1 0 0)" d="M38.4396 426.2252L276.1896 426.2252L276.1896 426.2252L276.1896 431.4752L276.1896 431.4752L38.4396 431.4752z" /></clipPath><clipPath id="12"><path id="" clip-rule="evenodd" transform="matrix(1 0 0 1 0 0)" d="M38.4 426.23L276.24 426.23L276.24 426.23L276.24 431.51L276.24 431.51L38.4 431.51z" /></clipPath><mask id="m1"><clipPath id="13"><path id="" clip-rule="evenodd" transform="matrix(1 0 0 1 0 0)" d="M38.4 426.23L276.24 426.23L276.24 426.23L276.24 431.51L276.24 431.51L38.4 431.51z" /></clipPath><g><g><g clip-path="url(#13)"><path id="5" transform="matrix(1 0 0 -1 0 842)" d="M38.4 415.77L276.24 415.77L276.24 410.49L38.4 410.49z" stroke="none" fill="#000000" fill-rule="nonzero" /></g></g></g></mask><clipPath id="14"><path id="" clip-rule="evenodd" transform="matrix(1 0 0 1 0 0)" d="M38.4 426.23L276.24 426.23L276.24 426.23L276.24 431.51L276.24 431.51L38.4 431.51z" /></clipPath><clipPath id="15"><path id="" clip-rule="evenodd" transform="matrix(1 0 0 1 0 0)" d="M38.16 426.3068L276.48 426.3068L276.48 426.3068L276.48 431.568L276.48 431.568L38.16 431.568z" /></clipPath><mask id="m2"><clipPath id="16"><path id="" clip-rule="evenodd" transform="matrix(1 0 0 1 0 0)" d="M38.4 426.23L276.24 426.23L276.24 426.23L276.24 431.51L276.24 431.51L38.4 431.51z" /></clipPath><clipPath id="17"><path id="" clip-rule="evenodd" transform="matrix(1 0 0 1 0 0)" d="M38.4 426.23L276.24 426.23L276.24 426.23L276.24 431.51L276.24 431.51L38.4 431.51z" /></clipPath><clipPath id="18"><path id="" clip-rule="evenodd" transform="matrix(1 0 0 1 0 0)" d="M38.46203 426.3068L276.1774 426.3068L276.1774 426.3068L276.1774 431.3575L276.1774 431.3575L38.46203 431.3575z" /></clipPath><g><g><g clip-path="url(#16)"><g><g clip-path="url(#17)"><g clip-path="url(#18)"><g transform="matrix(0.24 0 0 0.24 38.4 426.23)"><g transform="matrix(1 0 0 1 0 0)"><image x="0" y="0" xlink:href="img_02.png" width="991" height="22" /></g></g></g></g></g></g></g></g></mask><clipPath id="19"><path id="" clip-rule="evenodd" transform="matrix(1 0 0 1 0 0)" d="M38.4 426.23L276.24 426.23L276.24 426.23L276.24 431.51L276.24 431.51L38.4 431.51z" /></clipPath><clipPath id="20"><path id="" clip-rule="evenodd" transform="matrix(1 0 0 1 0 0)" d="M38.16 426.3068L276.48 426.3068L276.48 426.3068L276.48 431.568L276.48 431.568L38.16 431.568z" /></clipPath><clipPath id="21"><path id="" clip-rule="evenodd" transform="matrix(1 0 0 1 0 0)" d="M0 -0.25L595.5 -0.25L595.5 -0.25L595.5 842.0012L595.5 842.0012L0 842.0012z" /></clipPath><clipPath id="22"><path id="" clip-rule="evenodd" transform="matrix(1 0 0 1 0 0)" d="M0 -0.25L595.5 -0.25L595.5 -0.25L595.5 842.0012L595.5 842.0012L0 842.0012z" /></clipPath><clipPath id="23"><path id="" clip-rule="evenodd" transform="matrix(1 0 0 1 0 0)" d="M57.3504 292.3412L273.6826 292.3412L273.6826 292.3412L273.6826 416.2361L273.6826 416.2361L57.3504 416.2361z" /></clipPath><clipPath id="24"><path id="" clip-rule="evenodd" transform="matrix(1 0 0 1 0 0)" d="M70.1004 292.3412L260.88 292.3412C 264.2616 292.3412 267.504 293.6828 269.8944 296.0756C 272.2872 298.466 273.6288 301.7084 273.6288 305.09L273.6288 305.09L273.6288 403.4852C 273.6288 406.8668 272.2872 410.1092 269.8944 412.4996C 267.504 414.8924 264.2616 416.234 260.88 416.234L260.88 416.234L70.1004 416.234C 66.71904 416.234 63.47592 414.8924 61.0848 412.4996C 58.69368 410.1092 57.3504 406.8668 57.3504 403.4852L57.3504 403.4852L57.3504 305.09C 57.3504 301.7084 58.69368 298.466 61.0848 296.0756C 63.47592 293.6828 66.71904 292.3412 70.1004 292.3412z" /></clipPath><clipPath id="25"><path id="" clip-rule="evenodd" transform="matrix(1 0 0 1 0 0)" d="M57.3504 292.3412L273.6826 292.3412L273.6826 292.3412L273.6826 416.2361L273.6826 416.2361L57.3504 416.2361z" /></clipPath><clipPath id="26"><path id="" clip-rule="evenodd" transform="matrix(1 0 0 1 0 0)" d="M0 -0.25L595.5 -0.25L595.5 -0.25L595.5 842.0012L595.5 842.0012L0 842.0012z" /></clipPath><clipPath id="27"><path id="" clip-rule="evenodd" transform="matrix(1 0 0 1 0 0)" d="M84.09432 -0.25L276.0943 -0.25L276.0943 -0.25L276.0943 206.4622L276.0943 206.4622L84.09432 206.4622z" /></clipPath><clipPath id="28"><path id="" clip-rule="evenodd" transform="matrix(1 0 0 1 0 0)" d="M0 -0.25L595.5 -0.25L595.5 -0.25L595.5 842.0012L595.5 842.0012L0 842.0012z" /></clipPath><clipPath id="29"><path id="" clip-rule="evenodd" transform="matrix(1 0 0 1 0 0)" d="M0 -0.25L595.5 -0.25L595.5 -0.25L595.5 842.0012L595.5 842.0012L0 842.0012z" /></clipPath><clipPath id="30"><path id="" clip-rule="evenodd" transform="matrix(1 0 0 1 0 0)" d="M0 -0.25L595.5 -0.25L595.5 -0.25L595.5 842.0012L595.5 842.0012L0 842.0012z" /></clipPath><clipPath id="31"><path id="" clip-rule="evenodd" transform="matrix(1 0 0 1 0 0)" d="M32.5812 523.2859L280.1148 523.2859L280.1148 523.2859L280.1148 818.2004L280.1148 818.2004L32.5812 818.2004z" /></clipPath><clipPath id="32"><path id="" clip-rule="evenodd" transform="matrix(1 0 0 1 0 0)" d="M60.3312 523.2859L252.3648 523.2859C 259.7256 523.2859 266.784 526.2092 271.9872 531.4124C 277.1904 536.618 280.116 543.6764 280.116 551.0348L280.116 551.0348L280.116 790.2044C 280.116 797.5652 277.1904 804.6235 271.9872 809.8268C 266.784 815.0324 259.7256 817.9556 252.3648 817.9556L252.3648 817.9556L60.3312 817.9556C 52.97136 817.9556 45.91296 815.0324 40.70904 809.8268C 35.50488 804.6235 32.5812 797.5652 32.5812 790.2044L32.5812 790.2044L32.5812 551.0348C 32.5812 543.6764 35.50488 536.618 40.70904 531.4124C 45.91296 526.2092 52.97136 523.2859 60.3312 523.2859z" /></clipPath><clipPath id="33"><path id="" clip-rule="evenodd" transform="matrix(1 0 0 1 0 0)" d="M0 -0.25L595.5 -0.25L595.5 -0.25L595.5 842.0012L595.5 842.0012L0 842.0012z" /></clipPath><clipPath id="34"><path id="" clip-rule="evenodd" transform="matrix(1 0 0 1 0 0)" d="M0 -0.25L595.5 -0.25L595.5 -0.25L595.5 842.0012L595.5 842.0012L0 842.0012z" /></clipPath><clipPath id="35"><path id="" clip-rule="evenodd" transform="matrix(1 0 0 1 0 0)" d="M82.46376 604.5812L232.1431 604.5812L232.1431 604.5812L232.1431 771.8011L232.1431 771.8011L82.46376 771.8011z" /></clipPath><clipPath id="36"><path id="" clip-rule="evenodd" transform="matrix(1 0 0 1 0 0)" d="M95.21376 604.5812L219.3931 604.5812C 222.7747 604.5812 226.0176 605.9252 228.4087 608.3156C 230.7998 610.7084 232.1431 613.9507 232.1431 617.3324L232.1431 617.3324L232.1431 758.774C 232.1431 762.1556 230.7998 765.4004 228.4087 767.7908C 226.0176 770.1812 222.7747 771.5252 219.3931 771.5252L219.3931 771.5252L95.21376 771.5252C 91.83216 771.5252 88.58928 770.1812 86.19816 767.7908C 83.80704 765.4004 82.46376 762.1556 82.46376 758.774L82.46376 758.774L82.46376 617.3324C 82.46376 613.9507 83.80704 610.7084 86.19816 608.3156C 88.58928 605.9252 91.83216 604.5812 95.21376 604.5812z" /></clipPath><clipPath id="37"><path id="" clip-rule="evenodd" transform="matrix(1 0 0 1 0 0)" d="M82.46376 604.5812L232.1431 604.5812L232.1431 604.5812L232.1431 771.8011L232.1431 771.8011L82.46376 771.8011z" /></clipPath><clipPath id="38"><path id="" clip-rule="evenodd" transform="matrix(1 0 0 1 0 0)" d="M0 -0.25L595.5 -0.25L595.5 -0.25L595.5 842.0012L595.5 842.0012L0 842.0012z" /></clipPath><clipPath id="39"><path id="" clip-rule="evenodd" transform="matrix(1 0 0 1 0 0)" d="M37.29288 779.0252L275.0429 779.0252L275.0429 779.0252L275.0429 784.2752L275.0429 784.2752L37.29288 784.2752z" /></clipPath><clipPath id="40"><path id="" clip-rule="evenodd" transform="matrix(1 0 0 1 0 0)" d="M37.2 779.03L275.28 779.03L275.28 779.03L275.28 784.31L275.28 784.31L37.2 784.31z" /></clipPath><mask id="m3"><clipPath id="41"><path id="" clip-rule="evenodd" transform="matrix(1 0 0 1 0 0)" d="M37.2 779.03L275.28 779.03L275.28 779.03L275.28 784.31L275.28 784.31L37.2 784.31z" /></clipPath><g><g><g clip-path="url(#41)"><path id="279" transform="matrix(1 0 0 -1 0 842)" d="M37.2 62.97002L275.28 62.97002L275.28 57.69002L37.2 57.69002z" stroke="none" fill="#000000" fill-rule="nonzero" /></g></g></g></mask><clipPath id="42"><path id="" clip-rule="evenodd" transform="matrix(1 0 0 1 0 0)" d="M37.2 779.03L275.28 779.03L275.28 779.03L275.28 784.31L275.28 784.31L37.2 784.31z" /></clipPath><clipPath id="43"><path id="" clip-rule="evenodd" transform="matrix(1 0 0 1 0 0)" d="M36.96 779.1071L275.52 779.1071L275.52 779.1071L275.52 784.3683L275.52 784.3683L36.96 784.3683z" /></clipPath><mask id="m4"><clipPath id="44"><path id="" clip-rule="evenodd" transform="matrix(1 0 0 1 0 0)" d="M37.2 779.03L275.28 779.03L275.28 779.03L275.28 784.31L275.28 784.31L37.2 784.31z" /></clipPath><clipPath id="45"><path id="" clip-rule="evenodd" transform="matrix(1 0 0 1 0 0)" d="M37.2 779.03L275.28 779.03L275.28 779.03L275.28 784.31L275.28 784.31L37.2 784.31z" /></clipPath><clipPath id="46"><path id="" clip-rule="evenodd" transform="matrix(1 0 0 1 0 0)" d="M37.31549 779.1071L275.0308 779.1071L275.0308 779.1071L275.0308 784.1579L275.0308 784.1579L37.31549 784.1579z" /></clipPath><g><g><g clip-path="url(#44)"><g><g clip-path="url(#45)"><g clip-path="url(#46)"><g transform="matrix(0.24 0 0 0.24 37.2 779.03)"><g transform="matrix(1 0 0 1 0 0)"><image x="0" y="0" xlink:href="img_05.png" width="991" height="22" /></g></g></g></g></g></g></g></g></mask><clipPath id="47"><path id="" clip-rule="evenodd" transform="matrix(1 0 0 1 0 0)" d="M37.2 779.03L275.28 779.03L275.28 779.03L275.28 784.31L275.28 784.31L37.2 784.31z" /></clipPath><clipPath id="48"><path id="" clip-rule="evenodd" transform="matrix(1 0 0 1 0 0)" d="M36.96 779.1071L275.52 779.1071L275.52 779.1071L275.52 784.3683L275.52 784.3683L36.96 784.3683z" /></clipPath><clipPath id="49"><path id="" clip-rule="evenodd" transform="matrix(1 0 0 1 0 0)" d="M0 -0.25L595.5 -0.25L595.5 -0.25L595.5 842.0012L595.5 842.0012L0 842.0012z" /></clipPath><clipPath id="50"><path id="" clip-rule="evenodd" transform="matrix(1 0 0 1 0 0)" d="M0 -0.25L595.5 -0.25L595.5 -0.25L595.5 842.0012L595.5 842.0012L0 842.0012z" /></clipPath><clipPath id="51"><path id="" clip-rule="evenodd" transform="matrix(1 0 0 1 0 0)" d="M325.0464 142.3824L572.76 142.3824L572.76 142.3824L572.76 388.1761L572.76 388.1761L325.0464 388.1761z" /></clipPath><clipPath id="52"><path id="" clip-rule="evenodd" transform="matrix(1 0 0 1 0 0)" d="M352.7976 142.3824L544.8312 142.3824C 552.1896 142.3824 559.248 145.3062 564.4536 150.5101C 569.6568 155.7142 572.58 162.7726 572.58 170.1324L572.58 170.1324L572.58 360.4244C 572.58 367.7852 569.6568 374.8436 564.4536 380.0468C 559.248 385.2524 552.1896 388.1756 544.8312 388.1756L544.8312 388.1756L352.7976 388.1756C 345.4368 388.1756 338.3784 385.2524 333.1752 380.0468C 327.9696 374.8436 325.0464 367.7852 325.0464 360.4244L325.0464 360.4244L325.0464 170.1324C 325.0464 162.7726 327.9696 155.7142 333.1752 150.5101C 338.3784 145.3062 345.4368 142.3824 352.7976 142.3824z" /></clipPath><clipPath id="53"><path id="" clip-rule="evenodd" transform="matrix(1 0 0 1 0 0)" d="M329.7576 355.7876L567.5076 355.7876L567.5076 355.7876L567.5076 361.0376L567.5076 361.0376L329.7576 361.0376z" /></clipPath><clipPath id="54"><path id="" clip-rule="evenodd" transform="matrix(1 0 0 1 0 0)" d="M329.52 355.67L567.6 355.67L567.6 355.67L567.6 361.19L567.6 361.19L329.52 361.19z" /></clipPath><mask id="m5"><clipPath id="55"><path id="" clip-rule="evenodd" transform="matrix(1 0 0 1 0 0)" d="M329.52 355.67L567.6 355.67L567.6 355.67L567.6 361.19L567.6 361.19L329.52 361.19z" /></clipPath><g><g><g clip-path="url(#55)"><path id="284" transform="matrix(1 0 0 -1 0 842)" d="M329.52 486.33L567.6 486.33L567.6 480.81L329.52 480.81z" stroke="none" fill="#000000" fill-rule="nonzero" /></g></g></g></mask><clipPath id="56"><path id="" clip-rule="evenodd" transform="matrix(1 0 0 1 0 0)" d="M329.52 355.67L567.6 355.67L567.6 355.67L567.6 361.19L567.6 361.19L329.52 361.19z" /></clipPath><clipPath id="57"><path id="" clip-rule="evenodd" transform="matrix(1 0 0 1 0 0)" d="M329.28 355.8699L567.84 355.8699L567.84 355.8699L567.84 361.1311L567.84 361.1311L329.28 361.1311z" /></clipPath><mask id="m6"><clipPath id="58"><path id="" clip-rule="evenodd" transform="matrix(1 0 0 1 0 0)" d="M329.52 355.67L567.6 355.67L567.6 355.67L567.6 361.19L567.6 361.19L329.52 361.19z" /></clipPath><clipPath id="59"><path id="" clip-rule="evenodd" transform="matrix(1 0 0 1 0 0)" d="M329.52 355.67L567.6 355.67L567.6 355.67L567.6 361.19L567.6 361.19L329.52 361.19z" /></clipPath><clipPath id="60"><path id="" clip-rule="evenodd" transform="matrix(1 0 0 1 0 0)" d="M329.7809 355.8699L567.4963 355.8699L567.4963 355.8699L567.4963 360.9207L567.4963 360.9207L329.7809 360.9207z" /></clipPath><g><g><g clip-path="url(#58)"><g><g clip-path="url(#59)"><g clip-path="url(#60)"><g transform="matrix(0.24 0 0 0.24 329.76 355.67)"><g transform="matrix(1 0 0 1 0 0)"><image x="0" y="0" xlink:href="img_06.png" width="991" height="22" /></g></g></g></g></g></g></g></g></mask><clipPath id="61"><path id="" clip-rule="evenodd" transform="matrix(1 0 0 1 0 0)" d="M329.52 355.67L567.6 355.67L567.6 355.67L567.6 361.19L567.6 361.19L329.52 361.19z" /></clipPath><clipPath id="62"><path id="" clip-rule="evenodd" transform="matrix(1 0 0 1 0 0)" d="M329.28 355.8699L567.84 355.8699L567.84 355.8699L567.84 361.1311L567.84 361.1311L329.28 361.1311z" /></clipPath><clipPath id="63"><path id="" clip-rule="evenodd" transform="matrix(1 0 0 1 0 0)" d="M0 -0.25L595.5 -0.25L595.5 -0.25L595.5 842.0012L595.5 842.0012L0 842.0012z" /></clipPath><clipPath id="64"><path id="" clip-rule="evenodd" transform="matrix(1 0 0 1 0 0)" d="M0 -0.25L595.5 -0.25L595.5 -0.25L595.5 842.0012L595.5 842.0012L0 842.0012z" /></clipPath><clipPath id="65"><path id="" clip-rule="evenodd" transform="matrix(1 0 0 1 0 0)" d="M339.9912 218.1287L556.5957 218.1287L556.5957 218.1287L556.5957 348.2948L556.5957 348.2948L339.9912 348.2948z" /></clipPath><clipPath id="66"><path id="" clip-rule="evenodd" transform="matrix(1 0 0 1 0 0)" d="M352.74 218.1287L543.5208 218.1287C 546.9024 218.1287 550.1448 219.4719 552.5352 221.863C 554.9256 224.2542 556.2696 227.497 556.2696 230.8787L556.2696 230.8787L556.2696 335.546C 556.2696 338.9252 554.9256 342.17 552.5352 344.5604C 550.1448 346.9508 546.9024 348.2948 543.5208 348.2948L543.5208 348.2948L352.74 348.2948C 349.3584 348.2948 346.116 346.9508 343.7256 344.5604C 341.3328 342.17 339.9912 338.9252 339.9912 335.546L339.9912 335.546L339.9912 230.8787C 339.9912 227.497 341.3328 224.2542 343.7256 221.863C 346.116 219.4719 349.3584 218.1287 352.74 218.1287z" /></clipPath><clipPath id="67"><path id="" clip-rule="evenodd" transform="matrix(1 0 0 1 0 0)" d="M339.9912 218.1287L556.0874 218.1287L556.0874 218.1287L556.0874 348.2948L556.0874 348.2948L339.9912 348.2948z" /></clipPath><clipPath id="68"><path id="" clip-rule="evenodd" transform="matrix(1 0 0 1 0 0)" d="M0 -0.25L595.5 -0.25L595.5 -0.25L595.5 842.0012L595.5 842.0012L0 842.0012z" /></clipPath><clipPath id="69"><path id="" clip-rule="evenodd" transform="matrix(1 0 0 1 0 0)" d="M0 -0.25L595.5 -0.25L595.5 -0.25L595.5 842.0012L595.5 842.0012L0 842.0012z" /></clipPath><clipPath id="70"><path id="" clip-rule="evenodd" transform="matrix(1 0 0 1 0 0)" d="M0 -0.25L595.5 -0.25L595.5 -0.25L595.5 842.0012L595.5 842.0012L0 842.0012z" /></clipPath><clipPath id="71"><path id="" clip-rule="evenodd" transform="matrix(1 0 0 1 0 0)" d="M321.4824 420.626L569.016 420.626L569.016 420.626L569.016 681.6981L569.016 681.6981L321.4824 681.6981z" /></clipPath><clipPath id="72"><path id="" clip-rule="evenodd" transform="matrix(1 0 0 1 0 0)" d="M349.2312 420.626L541.2648 420.626C 548.6255 420.626 555.684 423.5516 560.8872 428.7548C 566.0904 433.958 569.016 441.0164 569.016 448.3772L569.016 448.3772L569.016 653.282C 569.016 660.6404 566.0904 667.6988 560.8872 672.9044C 555.684 678.1076 548.6255 681.0308 541.2648 681.0308L541.2648 681.0308L349.2312 681.0308C 341.8704 681.0308 334.8144 678.1076 329.6088 672.9044C 324.4056 667.6988 321.4824 660.6404 321.4824 653.282L321.4824 653.282L321.4824 448.3772C 321.4824 441.0164 324.4056 433.958 329.6088 428.7548C 334.8144 423.5516 341.8704 420.626 349.2312 420.626z" /></clipPath><clipPath id="73"><path id="" clip-rule="evenodd" transform="matrix(1 0 0 1 0 0)" d="M326.1936 647.4452L563.9436 647.4452L563.9436 647.4452L563.9436 652.6952L563.9436 652.6952L326.1936 652.6952z" /></clipPath><clipPath id="74"><path id="" clip-rule="evenodd" transform="matrix(1 0 0 1 0 0)" d="M326.16 647.51L564 647.51L564 647.51L564 652.79L564 652.79L326.16 652.79z" /></clipPath><mask id="m7"><clipPath id="75"><path id="" clip-rule="evenodd" transform="matrix(1 0 0 1 0 0)" d="M326.16 647.51L564 647.51L564 647.51L564 652.79L564 652.79L326.16 652.79z" /></clipPath><g><g><g clip-path="url(#75)"><path id="358" transform="matrix(1 0 0 -1 0 842)" d="M326.16 194.49L564 194.49L564 189.21L326.16 189.21z" stroke="none" fill="#000000" fill-rule="nonzero" /></g></g></g></mask><clipPath id="76"><path id="" clip-rule="evenodd" transform="matrix(1 0 0 1 0 0)" d="M326.16 647.51L564 647.51L564 647.51L564 652.79L564 652.79L326.16 652.79z" /></clipPath><clipPath id="77"><path id="" clip-rule="evenodd" transform="matrix(1 0 0 1 0 0)" d="M325.92 647.5281L564.24 647.5281L564.24 647.5281L564.24 652.7893L564.24 652.7893L325.92 652.7893z" /></clipPath><mask id="m8"><clipPath id="78"><path id="" clip-rule="evenodd" transform="matrix(1 0 0 1 0 0)" d="M326.16 647.51L564 647.51L564 647.51L564 652.79L564 652.79L326.16 652.79z" /></clipPath><clipPath id="79"><path id="" clip-rule="evenodd" transform="matrix(1 0 0 1 0 0)" d="M326.16 647.51L564 647.51L564 647.51L564 652.79L564 652.79L326.16 652.79z" /></clipPath><clipPath id="80"><path id="" clip-rule="evenodd" transform="matrix(1 0 0 1 0 0)" d="M326.2156 647.5281L563.931 647.5281L563.931 647.5281L563.931 652.5789L563.931 652.5789L326.2156 652.5789z" /></clipPath><g><g><g clip-path="url(#78)"><g><g clip-path="url(#79)"><g clip-path="url(#80)"><g transform="matrix(0.24 0 0 0.24 326.16 647.51)"><g transform="matrix(1 0 0 1 0 0)"><image x="0" y="0" xlink:href="img_08.png" width="991" height="22" /></g></g></g></g></g></g></g></g></mask><clipPath id="81"><path id="" clip-rule="evenodd" transform="matrix(1 0 0 1 0 0)" d="M326.16 647.51L564 647.51L564 647.51L564 652.79L564 652.79L326.16 652.79z" /></clipPath><clipPath id="82"><path id="" clip-rule="evenodd" transform="matrix(1 0 0 1 0 0)" d="M325.92 647.5281L564.24 647.5281L564.24 647.5281L564.24 652.7893L564.24 652.7893L325.92 652.7893z" /></clipPath><clipPath id="83"><path id="" clip-rule="evenodd" transform="matrix(1 0 0 1 0 0)" d="M0 -0.25L595.5 -0.25L595.5 -0.25L595.5 842.0012L595.5 842.0012L0 842.0012z" /></clipPath><clipPath id="84"><path id="" clip-rule="evenodd" transform="matrix(1 0 0 1 0 0)" d="M0 -0.25L595.5 -0.25L595.5 -0.25L595.5 842.0012L595.5 842.0012L0 842.0012z" /></clipPath><clipPath id="85"><path id="" clip-rule="evenodd" transform="matrix(1 0 0 1 0 0)" d="M339.9912 487.6652L556.3126 487.6652L556.3126 487.6652L556.3126 639.3864L556.3126 639.3864L339.9912 639.3864z" /></clipPath><clipPath id="86"><path id="" clip-rule="evenodd" transform="matrix(1 0 0 1 0 0)" d="M352.74 487.6652L543.5208 487.6652C 546.9024 487.6652 550.1448 489.0092 552.5352 491.3996C 554.9256 493.7924 556.2696 497.0348 556.2696 500.4164L556.2696 500.4164L556.2696 626.6372C 556.2696 630.0188 554.9256 633.2612 552.5352 635.6516C 550.1448 638.0444 546.9024 639.386 543.5208 639.386L543.5208 639.386L352.74 639.386C 349.3584 639.386 346.116 638.0444 343.7256 635.6516C 341.3328 633.2612 339.9912 630.0188 339.9912 626.6372L339.9912 626.6372L339.9912 500.4164C 339.9912 497.0348 341.3328 493.7924 343.7256 491.3996C 346.116 489.0092 349.3584 487.6652 352.74 487.6652z" /></clipPath><clipPath id="87"><path id="" clip-rule="evenodd" transform="matrix(1 0 0 1 0 0)" d="M339.9912 487.6652L556.3126 487.6652L556.3126 487.6652L556.3126 639.3864L556.3126 639.3864L339.9912 639.3864z" /></clipPath><clipPath id="88"><path id="" clip-rule="evenodd" transform="matrix(1 0 0 1 0 0)" d="M0 -0.25L595.5 -0.25L595.5 -0.25L595.5 842.0012L595.5 842.0012L0 842.0012z" /></clipPath><clipPath id="89"><path id="" clip-rule="evenodd" transform="matrix(1 0 0 1 0 0)" d="M489.3888 8.540771L589.1388 8.540771L589.1388 8.540771L589.1388 64.79077L589.1388 64.79077L489.3888 64.79077z" /></clipPath><clipPath id="90"><path id="" clip-rule="evenodd" transform="matrix(1 0 0 1 0 0)" d="M0 -0.25L595.5 -0.25L595.5 -0.25L595.5 842.0012L595.5 842.0012L0 842.0012z" /></clipPath></defs><g transform="matrix(1.333333 0 0 1.333333 0 0)"><g clip-path="url(#1)"><g clip-path="url(#2)"><path id="1" transform="matrix(1 0 0 -1 0 842)" d="M0 842.25L595.4999 842.25L595.4999 0L0 0z" stroke="none" fill="#FFFFFF" fill-rule="nonzero" /></g><g clip-path="url(#3)"><path id="2" transform="matrix(1 0 0 -1 0 842)" d="M0 842.25L595.4999 842.25L595.4999 0L0 0z" stroke="none" fill="#FFFFFF" fill-rule="nonzero" /></g><g clip-path="url(#4)"><g><g clip-path="url(#5)"><g clip-path="url(#6)"><g transform="matrix(0 0.975 -0.9768211 0 522.0178 30.75183)"><g transform="matrix(1 0 0 1 0 0)"><image x="0" y="0" xlink:href="img_01.png" width="800" height="453" /></g></g></g></g></g></g><g clip-path="url(#7)"><g clip-path="url(#8)"><g clip-path="url(#9)"><g clip-path="url(#10)"><path id="4" transform="matrix(1 0 0 -1 0 842)" d="M37.29288 628.3018L284.8267 628.3018L284.8267 377.8672L37.29288 377.8672z" stroke="none" fill="#1D70B7" fill-rule="nonzero" /></g></g></g></g><g clip-path="url(#11)"><g><g clip-path="url(#12)"><g mask="url(#m1)"><g><g clip-path="url(#14)"><g clip-path="url(#15)"><path id="6" transform="matrix(1 0 0 -1 0 842)" d="M38.46204 415.6932L276.1774 415.6932L276.1774 410.6424L38.46204 410.6424z" stroke="none" fill="#000000" fill-rule="nonzero" /></g></g></g></g><g mask="url(#m2)"><g><g clip-path="url(#19)"><g clip-path="url(#20)"><path id="8" transform="matrix(1 0 0 -1 0 842)" d="M38.46204 415.6932L276.1774 415.6932L276.1774 410.6424L38.46204 410.6424z" stroke="none" fill="#000000" fill-rule="nonzero" /></g></g></g></g></g></g></g><g clip-path="url(#21)"><g clip-path="url(#22)"><g clip-path="url(#23)"><g clip-path="url(#24)"><g clip-path="url(#25)"><g transform="matrix(0.4292305 0 0 0.4290821 57.3504 291.8488)"><g transform="matrix(1 0 0 1 0 0)"><image x="0" y="0" xlink:href="img_03.png" width="504" height="291" /></g></g></g></g></g></g></g><g clip-path="url(#26)"></g><g clip-path="url(#27)"><path id="89" transform="matrix(1 0 0 -1 0 842)" d="M88.20414 820.1079C 88.53841 819.4651 89.18124 819.3751 89.79835 819.2337C 89.36123 819.8636 88.87268 820.1465 88.20414 820.1079z" stroke="none" fill="#7ED957" fill-rule="nonzero" /><path id="90" transform="matrix(1 0 0 -1 0 842)" d="M89.8112 819.2208L89.8112 819.2337L89.79835 819.2337L89.8112 819.2208z" stroke="none" fill="#7ED957" fill-rule="nonzero" /><path id="91" transform="matrix(1 0 0 -1 0 842)" d="M89.91405 793.9835C 90.55688 793.4563 91.49541 793.5592 92.39537 793.5978C 91.61112 794.0734 90.85258 794.2148 89.91405 793.9835z" stroke="none" fill="#7ED957" fill-rule="nonzero" /><path id="92" transform="matrix(1 0 0 -1 0 842)" d="M92.40823 793.5978L92.42108 793.6106L92.38251 793.6106L92.40823 793.5978z" stroke="none" fill="#7ED957" fill-rule="nonzero" /><path id="93" transform="matrix(1 0 0 -1 0 842)" d="M233.2644 806.4157C 233.4316 806.5314 233.5987 806.6472 233.7401 806.75" stroke="none" fill="#7ED957" fill-rule="nonzero" /><path id="94" transform="matrix(1 0 0 -1 0 842)" d="M107.3732 697.2509C 108.0932 696.8137 109.0446 697.0323 109.9703 697.1866C 109.1217 697.5594 108.3118 697.598 107.3732 697.2509z" stroke="none" fill="#7ED957" fill-rule="nonzero" /><path id="95" transform="matrix(1 0 0 -1 0 842)" d="M109.996 697.1737L110.0088 697.1866L109.9703 697.1866L109.996 697.1737z" stroke="none" fill="#7ED957" fill-rule="nonzero" /><path id="96" transform="matrix(1 0 0 -1 0 842)" d="M89.02695 710.5703C 89.70835 710.0303 90.77544 710.1074 91.79111 710.1331C 90.95544 710.6216 90.1069 710.7759 89.02695 710.5703z" stroke="none" fill="#7ED957" fill-rule="nonzero" /><path id="97" transform="matrix(1 0 0 -1 0 842)" d="M91.81683 710.1202L91.82968 710.1331L91.79111 710.1331L91.81683 710.1202z" stroke="none" fill="#7ED957" fill-rule="nonzero" /><path id="98" transform="matrix(1 0 0 -1 0 842)" d="M257.6276 798.6761C 258.5018 799.1003 259.5046 799.4732 260.4174 799.846C 259.556 799.5375 258.5275 799.1518 257.6276 798.6761z" stroke="none" fill="#7ED957" fill-rule="nonzero" /><path id="99" transform="matrix(1 0 0 -1 0 842)" d="M113.1458 655.6857C 113.7758 655.2357 114.5729 655.4156 115.3314 655.5443C 114.5857 655.9428 113.9172 656.0071 113.1458 655.6857z" stroke="none" fill="#7ED957" fill-rule="nonzero" /><path id="100" transform="matrix(1 0 0 -1 0 842)" d="M270.7155 717.2814C 270.4713 717.2814 270.2398 717.2685 270.0084 717.2042C 270.227 717.2299 270.4713 717.2556 270.7155 717.2814z" stroke="none" fill="#7ED957" fill-rule="nonzero" /><path id="101" transform="matrix(1 0 0 -1 0 842)" d="M249.7208 742.9301C 249.9008 742.9559 250.0808 743.0073 250.2479 743.0973C 250.0936 743.0587 249.9137 742.9944 249.7208 742.9301z" stroke="none" fill="#7ED957" fill-rule="nonzero" /><path id="102" transform="matrix(1 0 0 -1 0 842)" d="M121.3997 636.1566C 122.0811 635.7195 122.9682 635.9252 123.8167 636.0795C 123.0068 636.4523 122.2611 636.4908 121.3997 636.1566z" stroke="none" fill="#7ED957" fill-rule="nonzero" /><path id="103" transform="matrix(1 0 0 -1 0 842)" d="M123.8296 636.0666L123.8425 636.0795L123.8167 636.0795L123.8296 636.0666z" stroke="none" fill="#7ED957" fill-rule="nonzero" /><path id="104" transform="matrix(1 0 0 -1 0 842)" d="M270.2527 716.2014C 270.4713 716.2657 270.7027 716.3557 270.8955 716.4843C 270.7027 716.4071 270.4841 716.3043 270.2527 716.2014z" stroke="none" fill="#7ED957" fill-rule="nonzero" /><path id="105" transform="matrix(1 0 0 -1 0 842)" d="M233.2644 806.4157C 233.4316 806.5314 233.5987 806.6472 233.7401 806.75C 233.5987 806.6472 233.4316 806.5314 233.2644 806.4157zM271.7826 715.9443C 271.5255 716.2142 270.4584 715.9957 269.9955 715.5972L269.9955 715.5972L270.1884 714.8129C 269.057 714.0801 269.7256 715.1472 268.5556 714.6329C 268.2599 715.2243 269.3141 715.7771 270.2527 716.2014C 269.3527 715.9314 268.3113 716.0471 268.2085 715.2372C 267.2828 715.1729 268.0157 716.0214 266.9229 715.8928C 266.2929 715.4429 265.5858 714.4915 264.6472 714.5429L264.6472 714.5429L264.6215 714.6586C 262.4102 714.53 261.9731 712.5759 259.9289 712.5116L259.9289 712.5116L260.0446 712.7944C 259.2732 712.9102 258.2061 711.9587 256.9076 711.8945C 257.2805 711.8945 257.7304 711.5602 257.0747 711.226C 256.2648 711.1616 255.6734 710.9174 255.1077 710.7245C 254.8506 711.2516 254.5677 711.8173 254.272 712.4216C 254.992 712.6787 255.5577 712.8587 255.9434 712.9487C 257.2676 713.0387 256.5862 711.9587 256.6119 711.843C 257.949 712.6658 256.9462 712.8073 258.1804 713.2316C 258.5661 713.2444 258.3218 712.6787 258.1804 712.4987C 258.6818 712.7944 259.2732 712.7687 259.1832 713.103C 258.4247 713.0773 258.3604 714.0286 257.859 714.4529L257.859 714.4529L259.4404 715.0186L259.4404 715.0186L259.5818 714.4658C 259.9418 714.5944 259.8774 716.2786 261.5231 716.6128C 264.1973 717.4485 266.9229 718.7727 269.5584 719.7626C 269.6484 719.4284 269.1856 719.017 268.7228 718.5927C 269.0699 718.7213 269.5713 719.0298 269.9827 718.9398C 269.1213 719.2355 270.9084 719.7755 270.3298 719.8012C 270.4584 720.007 270.6255 720.1869 270.7927 720.3541C 270.6769 719.0684 270.6127 718.1685 270.6255 717.8984C 270.0727 717.8856 269.507 717.8856 269.3399 717.9885C 269.507 717.6414 270.6127 717.5513 271.1783 717.7827L271.1783 717.7827L271.2298 718.5798C 272.554 718.9398 271.5769 718.1299 272.8754 718.2584C 272.9911 717.6156 271.7955 717.3971 270.7412 717.2685C 271.6926 717.2556 272.6826 716.8314 273.0168 717.577C 273.8654 717.3713 273.0811 716.8442 273.8911 716.6128L273.8911 716.6128L272.7083 721.5626C 273.9168 722.0768 275.1767 722.424 275.9224 723.3239C 275.8581 723.5296 275.691 724.2625 275.7296 725.4838L275.7296 725.4838L272.4897 739.0217C 272.3483 736.2833 271.8726 731.3464 271.4355 726.9238L271.4355 726.9238L266.8457 746.0928C 266.8071 746.0928 266.7429 746.0928 266.6786 746.08C 266.0615 745.6043 265.3929 744.6272 264.4415 744.6529L264.4415 744.6529L264.4158 744.7686C 262.2045 744.5629 261.8317 742.5959 259.7875 742.4545L259.7875 742.4545L259.8903 742.7373C 259.1189 742.8273 258.0776 741.8116 256.7791 741.7216C 257.1519 741.7345 257.6147 741.4131 256.959 741.0659C 255.4934 740.9117 254.7606 740.1531 253.6035 740.2303L253.6035 740.2303L252.9349 739.266C 252.3435 739.0346 251.5207 738.6875 250.5308 738.2761C 250.2608 740.436 250.0551 742.0045 249.9522 742.3644C 250.3765 742.4416 250.8008 742.5187 250.955 742.4416C 250.7622 742.7501 249.9008 742.7115 249.5151 742.403L249.5151 742.403L249.6308 741.6059C 248.7051 741.0788 249.2837 742.0045 248.3194 741.7087C 248.1009 742.3259 248.9751 742.6987 249.7465 742.9559C 249.0137 742.853 248.1909 743.123 248.0752 742.3644C 247.3423 742.4545 247.9466 743.1616 247.0724 743.2258C 246.5452 742.8916 245.9538 742.0816 245.1953 742.2873L245.1953 742.2873L245.1824 742.403C 243.4082 742.6473 242.9711 740.8217 241.3383 741.0917L241.3383 741.0917L241.4412 741.3488C 240.8241 741.5802 239.937 740.8345 238.8956 740.9888C 239.1913 740.9245 239.5384 740.5259 238.9985 740.3074C 237.8156 740.436 237.1857 739.8445 236.2857 740.1403L236.2857 740.1403L235.6943 739.3303C 234.0872 738.9703 230.5131 737.929 226.669 736.759C 229.8832 738.5332 232.7759 740.076 233.843 740.4745C 235.0129 740.6674 234.5758 739.5617 234.6272 739.446C 235.6943 740.3459 234.7686 740.4103 235.81 740.9117C 236.1443 740.9503 236.0286 740.3845 235.9257 740.2045C 236.3243 740.5259 236.8643 740.5259 236.7357 740.8474C 236.0543 740.7703 235.8486 741.6959 235.3343 742.0687L235.3343 742.0687L236.6714 742.7244L236.6714 742.7244L236.89 742.1973C 237.1214 742.313 236.9928 743.3287 237.5971 743.9715C 239.8984 744.9743 242.3283 746.0286 244.5396 746.9671C 244.5011 746.9156 244.4625 746.8771 244.4239 746.8257C 244.7196 746.9799 245.1181 747.3013 245.5039 747.2371C 245.4267 747.2628 245.3881 747.2885 245.3496 747.3142C 248.4094 748.6127 250.9679 749.6284 252.0478 749.937C 253.4878 750.1298 252.7421 748.9727 252.7678 748.857C 254.2334 749.7955 253.1406 749.8598 254.5034 750.3869C 254.9277 750.4384 254.6577 749.8341 254.4906 749.6412C 255.0434 749.9884 255.7119 750.0012 255.6091 750.3355C 254.7606 750.2455 254.6963 751.2097 254.1563 751.6083L254.1563 751.6083L255.9176 752.3154L255.9176 752.3154L256.0719 751.7626C 256.4833 751.9426 256.3933 753.6139 258.2576 754.1796C 261.2788 755.3881 264.4158 757.3038 267.4371 759.1937C 267.5786 758.8723 267.0771 758.2937 266.55 757.728C 266.9614 757.9723 267.5271 758.4222 268.0285 758.4866C 266.9743 758.4866 269.057 759.6822 268.3499 759.5022C 269.0313 760.8136 270.2141 761.7521 271.3969 762.7035C 272.5797 763.6292 273.7368 764.632 274.2768 765.8276C 273.9039 766.3547 271.0498 771.0088 267.5657 775.2129C 268.2085 776.28 268.6713 776.9871 268.5685 777.6042C 268.1442 778.0542 263.7087 781.2941 260.8417 786.1281C 260.1217 787.3366 259.5689 788.6223 259.1189 789.9337C 258.6947 791.2321 258.4633 792.5435 258.3218 793.7263C 258.1033 796.0919 258.3475 797.9304 258.1675 798.2518C 260.2503 799.2418 262.5388 799.6789 263.233 799.6789C 262.9244 799.7946 261.6259 799.7046 260.1603 799.2675C 258.6561 798.8304 257.139 798.0461 256.2133 797.3519L256.2133 797.3519L256.3291 796.4776C 255.3905 795.7705 254.8891 795.3848 254.5806 795.1405C 254.2849 794.9348 254.1434 794.8962 254.0149 794.8834C 253.7578 794.832 253.3592 794.7934 252.0864 793.4178C 251.7907 793.572 252.1507 794.292 253.0763 795.3077C 254.0149 796.3362 255.6477 797.6862 257.6661 798.689C 256.7791 798.2646 255.8791 797.8018 255.172 797.3519C 254.7991 797.1204 254.4391 796.889 254.092 796.6448C 253.7835 796.4262 253.5006 796.2076 253.2178 795.9762C 252.9478 795.7576 252.6907 795.5391 252.4592 795.3205C 252.2664 795.1148 252.0864 794.922 251.9321 794.7291C 251.6364 794.3434 251.4179 793.9706 251.3793 793.662C 250.505 792.8521 250.4022 793.0192 250.2479 793.1606C 250.1194 793.3021 249.8365 793.3406 248.9751 792.4021C 248.0237 790.795 247.6895 788.9437 246.7895 788.1723L246.7895 788.1723L246.6995 788.2495C 245.7224 787.2209 245.6324 786.5781 245.6967 786.2181C 245.7224 786.0381 245.8253 785.9995 245.8381 785.8967C 245.8253 785.8195 245.7738 785.7681 245.581 785.8067L245.581 785.8067L245.4524 785.9867C 245.0796 786.1667 245.2467 785.5753 244.591 785.5881C 244.771 785.5624 245.1696 785.2795 244.9767 785.0225C 244.2696 784.9967 243.9868 784.3411 243.164 784.4568C 243.074 784.1611 243.0097 783.8654 242.8683 783.5696C 242.264 783.2739 241.2612 782.7854 239.7313 782.104C 240.7469 783.1197 242.3669 783.4154 242.9454 784.6239C 242.5468 785.4467 238.2656 795.6034 235.6429 801.6074C 237.34 801.9031 239.037 802.2502 240.6955 802.4688C 240.7212 802.1216 240.1941 801.8259 239.6541 801.5174C 240.0141 801.5688 240.5541 801.7488 240.9269 801.5688C 240.1684 802.0445 241.9812 802.173 241.4283 802.3273C 243.1382 804.063 245.9153 803.2659 247.4838 804.5129C 247.4323 805.4129 247.3809 816.1481 247.2652 822.7563C 248.3966 822.9492 249.528 823.1421 250.6208 823.2706C 250.6336 822.9235 250.0679 822.6278 249.5151 822.3321C 249.9008 822.3835 250.4665 822.5635 250.8522 822.3707C 250.0679 822.8593 251.9707 822.9621 251.3921 823.1292C 253.2306 824.852 256.1234 824.0421 257.7947 825.2762C 257.7433 826.5362 258.1675 847.1709 257.9233 848.6365C 258.5018 848.7009 259.0675 848.778 259.2604 848.6751C 259.0546 848.9965 257.9104 848.9708 257.3576 848.6751L257.3576 848.6751L257.3833 847.8652C 256.0591 847.3638 256.9847 848.2766 255.6605 848.0066C 255.4805 848.6365 256.689 848.9837 257.7562 849.228C 256.7662 849.1379 255.7248 849.4465 255.442 848.6751C 254.4777 848.7908 255.4162 849.4851 254.272 849.5751C 253.5135 849.2537 252.6007 848.4565 251.6364 848.688L251.6364 848.688L251.6364 848.8037C 249.3351 849.0994 248.448 847.2737 246.3395 847.5952L246.3395 847.5952L246.5195 847.8523C 245.7481 848.1094 244.4368 847.3766 243.0997 847.5566C 243.4854 847.4923 243.8839 847.0681 243.1254 846.8624C 241.5955 847.0295 240.6569 846.4509 239.4999 846.7723L239.4999 846.7723L238.5742 845.9753C 233.4444 845.2424 213.4268 840.9869 208.3228 840.0355L208.3228 840.0355L208.5027 840.1641C 207.4742 839.9456 206.3043 839.7141 205.0186 839.4698C 204.9029 844.8953 204.7486 850.3336 204.6329 851.0665C 205.0186 851.0922 205.3914 851.1179 205.52 851.015C 205.3658 851.3493 204.6072 851.4136 204.2472 851.1564L204.2472 851.1564L204.2986 850.3593C 203.4373 849.9608 204.0158 850.7964 203.1416 850.6165C 203.0002 851.2593 203.7972 851.5036 204.4915 851.6707C 203.8358 851.6578 203.1287 852.0435 202.9744 851.2979C 202.3316 851.4778 202.923 852.095 202.1645 852.275C 201.6759 852.0178 201.0845 851.285 200.4417 851.5807L200.4417 851.5807L200.4417 851.6964C 198.8475 852.1721 198.3075 850.4108 196.8933 850.9122L196.8933 850.9122L197.009 851.1436C 196.4947 851.465 195.6334 850.8351 194.7462 851.1307C 195.0034 851.0279 195.2734 850.5908 194.772 850.4493C 193.7563 850.7322 193.1392 850.2437 192.3678 850.6551L192.3678 850.6551L191.7635 849.9351C 188.3823 849.6137 175.0886 847.2866 171.6688 846.9652L171.6688 846.9652L171.7973 847.0809C 166.629 846.2967 155.9324 845.6024 150.5712 844.5225C 149.7098 845.1139 148.5656 844.9082 147.6913 845.0367C 148.1799 844.7925 148.0385 844.3425 147.6656 844.3553C 145.0043 844.3297 147.4985 843.9182 144.8243 843.5454C 141.7388 842.7997 129.8593 843.2626 127.108 843.8026C 125.6295 842.8511 123.791 843.584 122.3382 842.9926L122.3382 842.9926L122.4797 843.2111C 120.924 842.8383 112.1301 843.8282 110.3174 843.5582L110.3174 843.5582L110.5617 843.4168C 108.9674 842.8897 109.2117 843.8925 107.9775 844.2525C 108.1061 843.2111 106.7433 842.6583 106.2161 842.594L106.2161 842.594L106.2419 842.8254C 105.4576 842.6711 103.6705 841.8098 102.372 841.7455L102.372 841.7455L102.4492 842.3112C 101.3564 841.7455 99.35075 842.0926 98.57936 842.0669C 96.84373 842.3626 94.18243 843.5197 91.79111 842.9026L91.79111 842.9026L90.37689 844.6125L90.37689 844.6125L90.14548 844.4582C 90.14548 844.4582 89.23266 839.5984 88.65411 834.1859C 88.08843 828.7861 87.86987 822.8335 89.34837 820.6608L89.34837 820.6608L89.25838 820.0951L89.25838 820.0951L89.9012 820.1337C 90.64688 819.8123 91.04543 820.4422 90.95544 819.8893L90.95544 819.8893L89.91405 820.0179C 90.67259 819.8123 90.11976 819.5422 89.8112 819.2337C 90.13262 819.1566 90.44118 819.0794 90.68545 818.8865C 90.85258 819.0923 90.59545 819.1309 90.47974 819.2594C 90.90401 819.4394 91.52113 819.9408 92.00967 819.6451C 92.79392 819.5422 92.00967 818.7194 92.92249 818.6037C 93.75816 818.488 94.59383 818.3594 95.42951 818.2309C 93.42389 818.1409 91.26399 817.9095 89.34837 817.1638L89.34837 817.1638L86.81564 818.3851L86.81564 818.3851L86.50707 818.1666C 86.50707 818.1666 86.08281 798.2004 91.40542 794.8448L91.40542 794.8448L91.43113 794.2663L91.43113 794.2663L92.33109 794.4849C 93.47532 794.3948 93.87387 795.1277 93.89958 794.5491L93.89958 794.5491L92.38251 794.3691C 93.51389 794.3948 92.79392 793.9706 92.42108 793.572C 92.89677 793.5978 93.34676 793.5978 93.74531 793.4949C 93.92529 793.752 93.55246 793.7006 93.35961 793.7906C 93.92529 794.0863 94.65812 794.7548 95.42951 794.6134C 96.57375 794.7548 95.64807 793.7134 96.98515 793.8806C 102.192 794.4206 107.2961 794.8191 112.4516 795.5134C 112.4387 795.5005 112.413 795.5005 112.4001 795.4877L112.4001 795.4877L112.7858 795.5005C 110.7802 794.0992 110.7159 795.1663 108.8517 794.7934C 109.456 793.9063 107.7846 792.6207 107.0904 792.2735L107.0904 792.2735L107.039 792.4921C 106.0104 791.9393 103.9277 790.0365 102.2178 789.1622L102.2178 789.1622L102.0635 789.7151C 100.8164 788.5323 97.94939 787.5809 96.93372 787.0023C 94.43956 786.1152 90.2869 785.2924 87.47131 782.9525L87.47131 782.9525L84.65573 783.3768L84.65573 783.3768L84.42432 783.0811C 84.42432 783.0811 85.88996 778.3242 88.16557 773.3873C 88.70554 772.2173 89.28409 771.0474 89.88834 769.9289C 89.47694 769.7489 89.09124 769.5432 88.7184 769.2989L88.7184 769.2989L86.44279 770.2374L86.44279 770.2374L86.23709 770.006C 86.23709 770.006 89.68264 750.9141 94.50384 747.8413C 92.33109 747.3271 89.56693 746.7742 87.49703 745.2829L87.49703 745.2829L85.04143 746.0414L85.04143 746.0414L84.83572 745.7843C 84.83572 745.7843 85.92853 740.9374 87.67702 735.7819C 87.79273 735.4348 87.9213 735.0748 88.04986 734.7277L88.04986 734.7277L87.25275 735.1262L87.25275 735.1262L86.91849 734.9205C 86.91849 734.9205 86.51993 729.9193 86.75135 724.481C 86.99562 719.0427 87.89558 713.1544 90.7883 711.4188L90.7883 711.4188L90.77544 710.8402L90.77544 710.8402L91.80397 711.0459C 93.08962 710.9302 93.59103 711.6501 93.57817 711.0845L93.57817 711.0845L91.85539 710.9302C 93.12819 710.9302 92.29252 710.5188 91.85539 710.1331C 92.38251 710.146 92.90963 710.146 93.34676 710.0174C 93.56532 710.2617 93.12819 710.2231 92.92249 710.3259C 93.57817 710.6088 94.45242 711.2645 95.30095 711.1102C 96.59946 711.226 95.50665 710.2103 97.02372 710.3388C 98.97791 710.4802 100.9193 710.6602 102.8606 710.8531C 102.8734 710.7759 102.8992 710.6988 102.912 710.6216C 104.0562 705.2991 105.9204 699.6422 108.8517 698.3179L108.8517 698.3179L108.9289 697.7523L108.9289 697.7523L109.8417 698.0865C 111.0373 698.1379 111.3716 698.9222 111.4488 698.3565L111.4488 698.3565L109.906 697.9837C 111.0759 698.1508 110.3688 697.6365 110.0345 697.1995C 110.5231 697.2766 110.9859 697.3409 111.4102 697.2894C 111.5645 697.5594 111.1788 697.4694 110.9731 697.5337C 111.5259 697.9066 112.2073 698.6522 113.0173 698.6136C 113.0301 698.6136 113.043 698.6136 113.0558 698.6136C 113.9172 695.9009 114.9329 693.1754 116.1028 691.054L116.1028 691.054L113.7244 692.0697L113.7244 692.0697L113.4544 691.8383C 113.4544 691.8383 113.7244 686.8628 114.6372 681.4888C 114.7143 681.0516 114.7915 680.6145 114.8815 680.1774C 112.9915 679.9074 110.8445 679.5217 109.1089 678.4675L109.1089 678.4675L106.7947 679.4574L106.7947 679.4574L106.5761 679.226C 106.5761 679.226 107.2704 674.3019 108.5689 669.0179C 109.8674 663.7339 111.783 658.1027 114.3286 656.7014L114.3286 656.7014L114.4315 656.1356L114.4315 656.1356L115.1772 656.4442C 115.2286 656.4442 115.2671 656.457 115.3057 656.457C 115.3057 656.4314 115.3186 656.3928 115.3186 656.3542L115.3186 656.3542L115.2286 656.3285C 115.2671 656.3285 115.2929 656.3285 115.3186 656.3414C 115.3571 656.1099 115.3957 655.8785 115.4343 655.6343C 115.4214 655.6085 115.3957 655.5828 115.3829 655.5571C 115.4086 655.5571 115.4214 655.5571 115.4471 655.5699C 116.4757 649.6174 118.8027 639.1007 122.7239 637.2108L122.7239 637.2108L122.8268 636.6451L122.8268 636.6451L123.6625 636.9794C 124.7681 637.0309 125.051 637.8022 125.141 637.2366L125.141 637.2366L123.7139 636.8637C 124.7938 637.0179 124.1639 636.5166 123.8682 636.0795C 124.3181 636.1566 124.7553 636.2209 125.141 636.1566C 125.2824 636.4266 124.9224 636.3366 124.7296 636.4009C 125.2181 636.7609 125.8352 637.5065 126.5809 637.468C 127.648 637.7379 126.9152 636.6066 128.1622 636.928C 134.7705 638.5093 141.2502 639.8593 147.7428 642.0706C 147.9613 641.8906 147.7813 641.8392 147.627 641.6849C 149.517 642.5463 151.304 643.0092 153.0139 643.8448C 153.5925 643.7677 153.8368 643.472 154.0553 643.292C 153.8368 643.472 156.2666 644.3976 158.7865 645.259C 160.0465 645.6962 161.3193 646.1204 162.2964 646.429C 163.2735 646.7375 163.942 646.9432 163.9934 646.9304L163.9934 646.9304L163.8006 647.946C 165.729 648.6017 164.7262 647.0204 166.4362 647.8432C 166.6804 649.4503 169.4574 648.6788 169.8303 649.6174C 169.856 649.5017 170.7431 649.746 170.8331 649.296C 170.8588 650.1317 171.6816 649.7717 172.1702 650.1445C 172.2987 650.4145 171.9516 650.3245 171.7202 650.4916L171.7202 650.4916L172.8901 651.173C 173.4687 651.0959 173.7258 650.6973 173.2244 650.4402C 176.6185 651.2631 192.6892 655.8657 196.0962 657.4856C 195.4534 657.897 194.4891 657.1385 193.7692 657.8842C 194.5406 658.707 195.2091 658.1799 195.4405 658.8484C 196.2505 657.6527 197.6004 659.2469 198.7704 658.1541L198.7704 658.1541L198.7832 658.9898L198.7832 658.9898L199.4003 658.6941C 203.2573 660.8926 200.2103 659.3884 203.9258 660.4811C 205.9957 661.3297 206.6385 662.7182 207.9499 662.7439C 207.7699 662.6925 207.1528 662.9882 207.6285 663.361C 207.9499 662.7439 208.9142 664.3381 209.4156 663.7725C 209.917 664.0424 211.6912 664.5567 210.7784 665.251C 211.2283 664.9038 212.8354 665.2638 212.0511 664.5567C 212.5783 664.7109 213.1311 664.7624 213.4397 665.0967L213.4397 665.0967L212.6811 665.1095C 214.391 665.868 215.5995 665.5081 216.4609 666.7294L216.4609 666.7294L215.6895 666.858C 216.7181 667.2823 217.5795 667.668 218.2994 666.9223L218.2994 666.9223L217.3095 666.2666C 219.0451 666.9094 220.0736 667.3337 221.3593 668.3237L221.3593 668.3237L220.8322 668.1694C 222.375 669.7122 231.7859 673.9034 233.0716 675.639L233.0716 675.639L232.0431 676.0376L232.0431 676.0376L233.2901 677.1432C 233.1102 677.0918 233.393 674.6619 233.1616 674.829C 236.2729 676.0247 252.3564 682.5302 255.4034 683.1858C 256.7019 683.2501 256.0205 682.183 256.0462 682.0673C 257.3704 682.8516 256.3805 683.0187 257.6147 683.4172C 257.9875 683.4172 257.7433 682.8516 257.6019 682.6844C 258.1033 682.9673 258.6818 682.9158 258.5918 683.2501C 257.8333 683.2501 257.7947 684.2015 257.319 684.6386L257.319 684.6386L258.9004 685.14L258.9004 685.14L259.0289 684.5743C 259.376 684.69 259.3503 686.3614 260.9831 686.6442C 263.6316 687.3899 266.3443 688.6241 268.967 689.4855C 269.0442 689.1512 268.5814 688.7527 268.1057 688.367C 268.4528 688.4827 268.9542 688.7656 269.3527 688.6498C 268.5171 688.9841 270.2913 689.4341 269.7127 689.4855C 271.1012 691.504 273.9939 691.2597 275.3053 692.7768C 275.0096 694.011 271.0884 714.2344 270.5484 715.6229C 271.0627 715.8286 271.5769 715.9957 271.7826 715.9443z" stroke="none" fill="#7ED957" fill-rule="nonzero" /></g><g clip-path="url(#28)"></g><g clip-path="url(#29)"><g clip-path="url(#30)"><g clip-path="url(#31)"><g clip-path="url(#32)"><path id="167" transform="matrix(1 0 0 -1 0 842)" d="M32.5812 318.714L280.115 318.714L280.115 23.80072L32.5812 23.80072z" stroke="none" fill="#1D70B7" fill-rule="nonzero" /></g></g></g></g><g clip-path="url(#33)"><g clip-path="url(#34)"><g clip-path="url(#35)"><g clip-path="url(#36)"><g clip-path="url(#37)"><g transform="matrix(0.5345691 0 0 0.534157 82.46375 601.6624)"><g transform="matrix(1 0 0 1 0 0)"><image x="0" y="0" xlink:href="img_04.png" width="280" height="324" /></g></g></g></g></g></g></g><g clip-path="url(#38)"></g><g clip-path="url(#39)"><g><g clip-path="url(#40)"><g mask="url(#m3)"><g><g clip-path="url(#42)"><g clip-path="url(#43)"><path id="280" transform="matrix(1 0 0 -1 0 842)" d="M37.31549 62.89291L275.0309 62.89291L275.0309 57.84213L37.31549 57.84213z" stroke="none" fill="#000000" fill-rule="nonzero" /></g></g></g></g><g mask="url(#m4)"><g><g clip-path="url(#47)"><g clip-path="url(#48)"><path id="282" transform="matrix(1 0 0 -1 0 842)" d="M37.31549 62.89291L275.0309 62.89291L275.0309 57.84213L37.31549 57.84213z" stroke="none" fill="#000000" fill-rule="nonzero" /></g></g></g></g></g></g></g><g clip-path="url(#49)"><g clip-path="url(#50)"><g clip-path="url(#51)"><g clip-path="url(#52)"><path id="283" transform="matrix(1 0 0 -1 0 842)" d="M325.0464 699.6175L572.7598 699.6175L572.7598 453.8243L325.0464 453.8243z" stroke="none" fill="#1D70B7" fill-rule="nonzero" /></g></g></g></g><g clip-path="url(#53)"><g><g clip-path="url(#54)"><g mask="url(#m5)"><g><g clip-path="url(#56)"><g clip-path="url(#57)"><path id="285" transform="matrix(1 0 0 -1 0 842)" d="M329.7809 486.1301L567.4963 486.1301L567.4963 481.0793L329.7809 481.0793z" stroke="none" fill="#000000" fill-rule="nonzero" /></g></g></g></g><g mask="url(#m6)"><g><g clip-path="url(#61)"><g clip-path="url(#62)"><path id="287" transform="matrix(1 0 0 -1 0 842)" d="M329.7809 486.1301L567.4963 486.1301L567.4963 481.0793L329.7809 481.0793z" stroke="none" fill="#000000" fill-rule="nonzero" /></g></g></g></g></g></g></g><g clip-path="url(#63)"><g clip-path="url(#64)"><g clip-path="url(#65)"><g clip-path="url(#66)"><g clip-path="url(#67)"><g transform="matrix(0.4946574 0 0 0.4949283 338.7504 218.1287)"><g transform="matrix(1 0 0 1 0 0)"><image x="0" y="0" xlink:href="img_07.png" width="442" height="263" /></g></g></g></g></g></g></g><g clip-path="url(#68)"></g><g clip-path="url(#69)"><g clip-path="url(#70)"><g clip-path="url(#71)"><g clip-path="url(#72)"><path id="357" transform="matrix(1 0 0 -1 0 842)" d="M321.4824 421.374L569.0162 421.374L569.0162 161.2701L321.4824 161.2701z" stroke="none" fill="#939CAB" fill-rule="nonzero" /></g></g></g></g><g clip-path="url(#73)"><g><g clip-path="url(#74)"><g mask="url(#m7)"><g><g clip-path="url(#76)"><g clip-path="url(#77)"><path id="359" transform="matrix(1 0 0 -1 0 842)" d="M326.2156 194.4719L563.931 194.4719L563.931 189.4211L326.2156 189.4211z" stroke="none" fill="#000000" fill-rule="nonzero" /></g></g></g></g><g mask="url(#m8)"><g><g clip-path="url(#81)"><g clip-path="url(#82)"><path id="361" transform="matrix(1 0 0 -1 0 842)" d="M326.2156 194.4719L563.931 194.4719L563.931 189.4211L326.2156 189.4211z" stroke="none" fill="#000000" fill-rule="nonzero" /></g></g></g></g></g></g></g><g clip-path="url(#83)"><g clip-path="url(#84)"><g clip-path="url(#85)"><g clip-path="url(#86)"><g clip-path="url(#87)"><g transform="matrix(0.5249638 0 0 0.5249871 326.3328 487.6647)"><g transform="matrix(1 0 0 1 0 0)"><image x="0" y="0" xlink:href="img_09.png" width="464" height="289" /></g></g></g></g></g></g></g><g clip-path="url(#88)"></g><g clip-path="url(#89)"><g transform="matrix(0.1246875 0 0 0.1241722 489.3888 8.540771)"><g transform="matrix(1 0 0 1 0 0)"><image x="0" y="0" xlink:href="img_10.png" width="800" height="453" /></g></g></g><g clip-path="url(#90)"></g></g></g></svg>