<svg xmlns="http://www.w3.org/2000/svg" xmlns:xlink="http://www.w3.org/1999/xlink" id="body_1" preserveAspectRatio="xMinYMin meet" viewBox="0 0 793 1123"><defs><clipPath id="1"><path id="" clip-rule="evenodd" transform="matrix(1 0 0 1 0 0)" d="M0 842L0 -0.25L0 -0.25L595.5 -0.25L595.5 -0.25L595.5 842L595.5 842L0 842z" /></clipPath><clipPath id="2"><path id="" clip-rule="evenodd" transform="matrix(1 0 0 1 0 0)" d="M0 -0.249939L595.5 -0.249939L595.5 -0.249939L595.5 842.0001L595.5 842.0001L0 842.0001z" /></clipPath><clipPath id="3"><path id="" clip-rule="evenodd" transform="matrix(1 0 0 1 0 0)" d="M0 -0.249939L595.5 -0.249939L595.5 -0.249939L595.5 842.0001L595.5 842.0001L0 842.0001z" /></clipPath><clipPath id="4"><path id="" clip-rule="evenodd" transform="matrix(1 0 0 1 0 0)" d="M0 -0.249939L595.5 -0.249939L595.5 -0.249939L595.5 842.0001L595.5 842.0001L0 842.0001z" /></clipPath><clipPath id="5"><path id="" clip-rule="evenodd" transform="matrix(1 0 0 1 0 0)" d="M78.71999 30.71008L522.24 30.71008L522.24 30.71008L522.24 810.9501L522.24 810.9501L78.71999 810.9501z" /></clipPath><clipPath id="6"><path id="" clip-rule="evenodd" transform="matrix(1 0 0 1 0 0)" d="M79.51787 30.75183L522.0178 30.75183L522.0178 30.75183L522.0178 810.7518L522.0178 810.7518L79.51787 810.7518z" /></clipPath><clipPath id="7"><path id="" clip-rule="evenodd" transform="matrix(1 0 0 1 0 0)" d="M497.8363 21.85486L582.5864 21.85486L582.5864 21.85486L582.5864 69.85486L582.5864 69.85486L497.8363 69.85486z" /></clipPath><clipPath id="8"><path id="" clip-rule="evenodd" transform="matrix(1 0 0 1 0 0)" d="M0 -0.249939L595.5 -0.249939L595.5 -0.249939L595.5 842.0001L595.5 842.0001L0 842.0001z" /></clipPath><clipPath id="9"><path id="" clip-rule="evenodd" transform="matrix(1 0 0 1 0 0)" d="M0 -0.249939L595.5 -0.249939L595.5 -0.249939L595.5 842.0001L595.5 842.0001L0 842.0001z" /></clipPath><clipPath id="10"><path id="" clip-rule="evenodd" transform="matrix(1 0 0 1 0 0)" d="M131.0579 305.0323L470.8079 305.0323L470.8079 305.0323L470.8079 531.5323L470.8079 531.5323L131.0579 531.5323z" /></clipPath><clipPath id="11"><path id="" clip-rule="evenodd" transform="matrix(1 0 0 1 0 0)" d="M131.0579 347.7823L131.0579 488.3685C 131.0579 511.9787 150.1977 531.1185 173.8079 531.1185L173.8079 531.1185L427.6493 531.1185C 451.2594 531.1185 470.3993 511.9787 470.3993 488.3685L470.3993 488.3685L470.3993 347.7823C 470.3993 324.1721 451.2594 305.0323 427.6493 305.0323L427.6493 305.0323L173.8079 305.0323C 150.1977 305.0323 131.0579 324.1721 131.0579 347.7823z" /></clipPath><clipPath id="12"><path id="" clip-rule="evenodd" transform="matrix(1 0 0 1 0 0)" d="M131.0579 305.0323L470.0579 305.0323L470.0579 305.0323L470.0579 530.7823L470.0579 530.7823L131.0579 530.7823z" /></clipPath><clipPath id="13"><path id="" clip-rule="evenodd" transform="matrix(1 0 0 1 0 0)" d="M0 -0.249939L595.5 -0.249939L595.5 -0.249939L595.5 842.0001L595.5 842.0001L0 842.0001z" /></clipPath></defs><g transform="matrix(1.333333 0 0 1.333333 0 0)"><g clip-path="url(#1)"><g clip-path="url(#2)"><path id="1" transform="matrix(1 0 0 -1 0 842)" d="M0 842.2499L595.4999 842.2499L595.4999 -6.103516E-05L0 -6.103516E-05z" stroke="none" fill="#FFFFFF" fill-rule="nonzero" /></g><g clip-path="url(#3)"><path id="2" transform="matrix(1 0 0 -1 0 842)" d="M0 842.2499L595.4999 842.2499L595.4999 -6.103516E-05L0 -6.103516E-05z" stroke="none" fill="#E9FCFF" fill-rule="nonzero" /></g><g clip-path="url(#4)"><g><g clip-path="url(#5)"><g clip-path="url(#6)"><g transform="matrix(0 0.5128205 -0.5127462 0 522.0178 30.75189)"><g transform="matrix(1 0 0 1 0 0)"><image x="0" y="0" xlink:href="img_01.png" width="1521" height="863" /></g></g></g></g></g></g><g clip-path="url(#7)"><g transform="matrix(0.05571992 0 0 0.05561992 497.8363 21.85492)"><g transform="matrix(1 0 0 1 0 0)"><image x="0" y="0" xlink:href="img_02.png" width="1521" height="863" /></g></g></g><g clip-path="url(#8)"><g clip-path="url(#9)"><g clip-path="url(#10)"><g clip-path="url(#11)"><g clip-path="url(#12)"><g transform="matrix(0.3037634 0 0 0.3034274 131.0579 305.0323)"><g transform="matrix(1 0 0 1 0 0)"><image x="0" y="0" xlink:href="img_03.png" width="1116" height="744" /></g></g></g></g></g></g></g><g clip-path="url(#13)"><path id="369" transform="matrix(1 0 0 -1 0 842)" d="M52.73124 236.302C 52.73124 236.0037 52.67415 235.7166 52.55996 235.441C 52.44578 235.1653 52.2832 234.922 52.07223 234.711C 51.86125 234.5001 51.61793 234.3375 51.34227 234.2233C 51.06662 234.1091 50.77961 234.052 50.48124 234.052C 50.18287 234.052 49.89585 234.1091 49.6202 234.2233C 49.34454 234.3375 49.10123 234.5001 48.89025 234.711C 48.67927 234.922 48.51669 235.1653 48.40251 235.441C 48.28833 235.7166 48.23124 236.0037 48.23124 236.302C 48.23124 236.6004 48.28833 236.8874 48.40251 237.1631C 48.51669 237.4387 48.67927 237.6821 48.89025 237.893C 49.10123 238.104 49.34454 238.2666 49.6202 238.3808C 49.89585 238.4949 50.18287 238.552 50.48124 238.552C 50.77961 238.552 51.06662 238.4949 51.34227 238.3808C 51.61793 238.2666 51.86125 238.104 52.07223 237.893C 52.2832 237.6821 52.44578 237.4387 52.55996 237.1631C 52.67415 236.8874 52.73124 236.6004 52.73124 236.302z" stroke="none" fill="#000000" fill-rule="nonzero" /><path id="401" transform="matrix(1 0 0 -1 0 842)" d="M52.73124 219.052C 52.73124 218.7537 52.67415 218.4666 52.55996 218.191C 52.44578 217.9153 52.2832 217.672 52.07223 217.461C 51.86125 217.2501 51.61793 217.0875 51.34227 216.9733C 51.06662 216.8591 50.77961 216.802 50.48124 216.802C 50.18287 216.802 49.89585 216.8591 49.6202 216.9733C 49.34454 217.0875 49.10123 217.2501 48.89025 217.461C 48.67927 217.672 48.51669 217.9153 48.40251 218.191C 48.28833 218.4666 48.23124 218.7537 48.23124 219.052C 48.23124 219.3504 48.28833 219.6374 48.40251 219.9131C 48.51669 220.1887 48.67927 220.4321 48.89025 220.643C 49.10123 220.854 49.34454 221.0166 49.6202 221.1308C 49.89585 221.2449 50.18287 221.302 50.48124 221.302C 50.77961 221.302 51.06662 221.2449 51.34227 221.1308C 51.61793 221.0166 51.86125 220.854 52.07223 220.643C 52.2832 220.4321 52.44578 220.1887 52.55996 219.9131C 52.67415 219.6374 52.73124 219.3504 52.73124 219.052z" stroke="none" fill="#000000" fill-rule="nonzero" /><path id="430" transform="matrix(1 0 0 -1 0 842)" d="M52.73124 201.802C 52.73124 201.5037 52.67415 201.2167 52.55996 200.941C 52.44578 200.6653 52.2832 200.422 52.07223 200.211C 51.86125 200.0001 51.61793 199.8375 51.34227 199.7233C 51.06662 199.6091 50.77961 199.552 50.48124 199.552C 50.18287 199.552 49.89585 199.6091 49.6202 199.7233C 49.34454 199.8375 49.10123 200.0001 48.89025 200.211C 48.67927 200.422 48.51669 200.6653 48.40251 200.941C 48.28833 201.2167 48.23124 201.5037 48.23124 201.802C 48.23124 202.1004 48.28833 202.3874 48.40251 202.6631C 48.51669 202.9387 48.67927 203.1821 48.89025 203.393C 49.10123 203.604 49.34454 203.7666 49.6202 203.8808C 49.89585 203.9949 50.18287 204.052 50.48124 204.052C 50.77961 204.052 51.06662 203.9949 51.34227 203.8808C 51.61793 203.7666 51.86125 203.604 52.07223 203.393C 52.2832 203.1821 52.44578 202.9387 52.55996 202.6631C 52.67415 202.3874 52.73124 202.1004 52.73124 201.802z" stroke="none" fill="#000000" fill-rule="nonzero" /><path id="474" transform="matrix(1 0 0 -1 0 842)" d="M52.73124 184.552C 52.73124 184.2537 52.67415 183.9667 52.55996 183.691C 52.44578 183.4153 52.2832 183.172 52.07223 182.961C 51.86125 182.7501 51.61793 182.5875 51.34227 182.4733C 51.06662 182.3591 50.77961 182.302 50.48124 182.302C 50.18287 182.302 49.89585 182.3591 49.6202 182.4733C 49.34454 182.5875 49.10123 182.7501 48.89025 182.961C 48.67927 183.172 48.51669 183.4153 48.40251 183.691C 48.28833 183.9667 48.23124 184.2537 48.23124 184.552C 48.23124 184.8504 48.28833 185.1374 48.40251 185.4131C 48.51669 185.6887 48.67927 185.932 48.89025 186.143C 49.10123 186.354 49.34454 186.5166 49.6202 186.6308C 49.89585 186.7449 50.18287 186.802 50.48124 186.802C 50.77961 186.802 51.06662 186.7449 51.34227 186.6308C 51.61793 186.5166 51.86125 186.354 52.07223 186.143C 52.2832 185.932 52.44578 185.6887 52.55996 185.4131C 52.67415 185.1374 52.73124 184.8504 52.73124 184.552z" stroke="none" fill="#000000" fill-rule="nonzero" /><path id="528" transform="matrix(1 0 0 -1 0 842)" d="M52.73124 167.302C 52.73124 167.0037 52.67415 166.7167 52.55996 166.441C 52.44578 166.1653 52.2832 165.922 52.07223 165.711C 51.86125 165.5001 51.61793 165.3375 51.34227 165.2233C 51.06662 165.1091 50.77961 165.052 50.48124 165.052C 50.18287 165.052 49.89585 165.1091 49.6202 165.2233C 49.34454 165.3375 49.10123 165.5001 48.89025 165.711C 48.67927 165.922 48.51669 166.1653 48.40251 166.441C 48.28833 166.7167 48.23124 167.0037 48.23124 167.302C 48.23124 167.6004 48.28833 167.8874 48.40251 168.1631C 48.51669 168.4387 48.67927 168.6821 48.89025 168.893C 49.10123 169.104 49.34454 169.2666 49.6202 169.3808C 49.89585 169.4949 50.18287 169.552 50.48124 169.552C 50.77961 169.552 51.06662 169.4949 51.34227 169.3808C 51.61793 169.2666 51.86125 169.104 52.07223 168.893C 52.2832 168.6821 52.44578 168.4387 52.55996 168.1631C 52.67415 167.8874 52.73124 167.6004 52.73124 167.302z" stroke="none" fill="#000000" fill-rule="nonzero" /><path id="574" transform="matrix(1 0 0 -1 0 842)" d="M52.73124 150.052C 52.73124 149.7537 52.67415 149.4667 52.55996 149.191C 52.44578 148.9153 52.2832 148.672 52.07223 148.461C 51.86125 148.2501 51.61793 148.0875 51.34227 147.9733C 51.06662 147.8591 50.77961 147.802 50.48124 147.802C 50.18287 147.802 49.89585 147.8591 49.6202 147.9733C 49.34454 148.0875 49.10123 148.2501 48.89025 148.461C 48.67927 148.672 48.51669 148.9153 48.40251 149.191C 48.28833 149.4667 48.23124 149.7537 48.23124 150.052C 48.23124 150.3504 48.28833 150.6374 48.40251 150.9131C 48.51669 151.1887 48.67927 151.4321 48.89025 151.643C 49.10123 151.854 49.34454 152.0166 49.6202 152.1308C 49.89585 152.2449 50.18287 152.302 50.48124 152.302C 50.77961 152.302 51.06662 152.2449 51.34227 152.1308C 51.61793 152.0166 51.86125 151.854 52.07223 151.643C 52.2832 151.4321 52.44578 151.1887 52.55996 150.9131C 52.67415 150.6374 52.73124 150.3504 52.73124 150.052z" stroke="none" fill="#000000" fill-rule="nonzero" /><path id="606" transform="matrix(1 0 0 -1 0 842)" d="M52.73124 132.802C 52.73124 132.5037 52.67415 132.2167 52.55996 131.941C 52.44578 131.6654 52.2832 131.422 52.07223 131.2111C 51.86125 131.0001 51.61793 130.8375 51.34227 130.7233C 51.06662 130.6091 50.77961 130.552 50.48124 130.552C 50.18287 130.552 49.89585 130.6091 49.6202 130.7233C 49.34454 130.8375 49.10123 131.0001 48.89025 131.2111C 48.67927 131.422 48.51669 131.6654 48.40251 131.941C 48.28833 132.2167 48.23124 132.5037 48.23124 132.802C 48.23124 133.1004 48.28833 133.3874 48.40251 133.6631C 48.51669 133.9387 48.67927 134.1821 48.89025 134.393C 49.10123 134.604 49.34454 134.7666 49.6202 134.8808C 49.89585 134.9949 50.18287 135.052 50.48124 135.052C 50.77961 135.052 51.06662 134.9949 51.34227 134.8808C 51.61793 134.7666 51.86125 134.604 52.07223 134.393C 52.2832 134.1821 52.44578 133.9387 52.55996 133.6631C 52.67415 133.3874 52.73124 133.1004 52.73124 132.802z" stroke="none" fill="#000000" fill-rule="nonzero" /><path id="657" transform="matrix(1 0 0 -1 0 842)" d="M52.73124 115.552C 52.73124 115.2537 52.67415 114.9667 52.55996 114.691C 52.44578 114.4154 52.2832 114.172 52.07223 113.961C 51.86125 113.7501 51.61793 113.5875 51.34227 113.4733C 51.06662 113.3591 50.77961 113.302 50.48124 113.302C 50.18287 113.302 49.89585 113.3591 49.6202 113.4733C 49.34454 113.5875 49.10123 113.7501 48.89025 113.961C 48.67927 114.172 48.51669 114.4154 48.40251 114.691C 48.28833 114.9667 48.23124 115.2537 48.23124 115.552C 48.23124 115.8504 48.28833 116.1374 48.40251 116.4131C 48.51669 116.6887 48.67927 116.9321 48.89025 117.143C 49.10123 117.354 49.34454 117.5166 49.6202 117.6308C 49.89585 117.7449 50.18287 117.802 50.48124 117.802C 50.77961 117.802 51.06662 117.7449 51.34227 117.6308C 51.61793 117.5166 51.86125 117.354 52.07223 117.143C 52.2832 116.9321 52.44578 116.6887 52.55996 116.4131C 52.67415 116.1374 52.73124 115.8504 52.73124 115.552z" stroke="none" fill="#000000" fill-rule="nonzero" /><path id="697" transform="matrix(1 0 0 -1 0 842)" d="M52.73124 98.30203C 52.73124 98.00368 52.67415 97.71667 52.55996 97.44102C 52.44578 97.16537 52.2832 96.92204 52.07223 96.71106C 51.86125 96.50009 51.61793 96.33751 51.34227 96.22333C 51.06662 96.10913 50.77961 96.05205 50.48124 96.05203C 50.18287 96.05205 49.89585 96.10913 49.6202 96.22333C 49.34454 96.33751 49.10123 96.50009 48.89025 96.71106C 48.67927 96.92204 48.51669 97.16537 48.40251 97.44102C 48.28833 97.71667 48.23124 98.00368 48.23124 98.30203C 48.23124 98.60042 48.28833 98.88744 48.40251 99.16309C 48.51669 99.43874 48.67927 99.68205 48.89025 99.89302C 49.10123 100.104 49.34454 100.2666 49.6202 100.3808C 49.89585 100.4949 50.18287 100.552 50.48124 100.552C 50.77961 100.552 51.06662 100.4949 51.34227 100.3808C 51.61793 100.2666 51.86125 100.104 52.07223 99.89302C 52.2832 99.68205 52.44578 99.43874 52.55996 99.16309C 52.67415 98.88744 52.73124 98.60042 52.73124 98.30203z" stroke="none" fill="#000000" fill-rule="nonzero" /><path id="744" transform="matrix(1 0 0 -1 0 842)" d="M52.73124 81.05203C 52.73124 80.75368 52.67415 80.46667 52.55996 80.19101C 52.44578 79.91534 52.2832 79.67203 52.07223 79.46104C 51.86125 79.25006 51.61793 79.08749 51.34227 78.97331C 51.06662 78.85913 50.77961 78.80205 50.48124 78.80203C 50.18287 78.80205 49.89585 78.85913 49.6202 78.97331C 49.34454 79.08749 49.10123 79.25006 48.89025 79.46104C 48.67927 79.67203 48.51669 79.91534 48.40251 80.19101C 48.28833 80.46667 48.23124 80.75368 48.23124 81.05203C 48.23124 81.35042 48.28833 81.63745 48.40251 81.9131C 48.51669 82.18875 48.67927 82.43207 48.89025 82.64304C 49.10123 82.85402 49.34454 83.0166 49.6202 83.13077C 49.89585 83.24495 50.18287 83.30203 50.48124 83.30203C 50.77961 83.30203 51.06662 83.24495 51.34227 83.13077C 51.61793 83.0166 51.86125 82.85402 52.07223 82.64304C 52.2832 82.43207 52.44578 82.18875 52.55996 81.9131C 52.67415 81.63745 52.73124 81.35042 52.73124 81.05203z" stroke="none" fill="#000000" fill-rule="nonzero" /><path id="785" transform="matrix(1 0 0 -1 0 842)" d="M52.73124 63.80203C 52.73124 63.50369 52.67415 63.21667 52.55996 62.94102C 52.44578 62.66537 52.2832 62.42204 52.07223 62.21106C 51.86125 62.00009 51.61793 61.83751 51.34227 61.72333C 51.06662 61.60915 50.77961 61.55205 50.48124 61.55203C 50.18287 61.55205 49.89585 61.60915 49.6202 61.72334C 49.34454 61.83752 49.10123 62.00009 48.89025 62.21106C 48.67927 62.42204 48.51669 62.66536 48.40251 62.94101C 48.28833 63.21667 48.23124 63.50369 48.23124 63.80203C 48.23124 64.10042 48.28833 64.38744 48.40251 64.6631C 48.51669 64.93875 48.67927 65.18205 48.89025 65.39302C 49.10123 65.604 49.34454 65.7666 49.6202 65.88077C 49.89585 65.99495 50.18287 66.05203 50.48124 66.05203C 50.77961 66.05203 51.06662 65.99495 51.34227 65.88077C 51.61793 65.7666 51.86125 65.604 52.07223 65.39302C 52.2832 65.18205 52.44578 64.93874 52.55996 64.66309C 52.67415 64.38744 52.73124 64.10042 52.73124 63.80203z" stroke="none" fill="#000000" fill-rule="nonzero" /></g></g></g></svg>