<svg xmlns="http://www.w3.org/2000/svg" xmlns:xlink="http://www.w3.org/1999/xlink" id="body_1" preserveAspectRatio="xMinYMin meet" viewBox="0 0 793 1123"><defs><clipPath id="1"><path id="" clip-rule="evenodd" transform="matrix(1 0 0 1 0 0)" d="M0 842L0 -0.25L0 -0.25L595.5 -0.25L595.5 -0.25L595.5 842L595.5 842L0 842z" /></clipPath><clipPath id="2"><path id="" clip-rule="evenodd" transform="matrix(1 0 0 1 0 0)" d="M0 -0.249939L595.5 -0.249939L595.5 -0.249939L595.5 842.0001L595.5 842.0001L0 842.0001z" /></clipPath><clipPath id="3"><path id="" clip-rule="evenodd" transform="matrix(1 0 0 1 0 0)" d="M0 -0.249939L595.5 -0.249939L595.5 -0.249939L595.5 842.0001L595.5 842.0001L0 842.0001z" /></clipPath><clipPath id="4"><path id="" clip-rule="evenodd" transform="matrix(1 0 0 1 0 0)" d="M0 -0.249939L595.5 -0.249939L595.5 -0.249939L595.5 842.0001L595.5 842.0001L0 842.0001z" /></clipPath><clipPath id="5"><path id="" clip-rule="evenodd" transform="matrix(1 0 0 1 0 0)" d="M78.71999 30.71008L522.24 30.71008L522.24 30.71008L522.24 810.9501L522.24 810.9501L78.71999 810.9501z" /></clipPath><clipPath id="6"><path id="" clip-rule="evenodd" transform="matrix(1 0 0 1 0 0)" d="M79.51787 30.75183L522.0178 30.75183L522.0178 30.75183L522.0178 810.7518L522.0178 810.7518L79.51787 810.7518z" /></clipPath><clipPath id="7"><path id="" clip-rule="evenodd" transform="matrix(1 0 0 1 0 0)" d="M0 -0.249939L595.5 -0.249939L595.5 -0.249939L595.5 842.0001L595.5 842.0001L0 842.0001z" /></clipPath><clipPath id="8"><path id="" clip-rule="evenodd" transform="matrix(1 0 0 1 0 0)" d="M0 -0.249939L595.5 -0.249939L595.5 -0.249939L595.5 842.0001L595.5 842.0001L0 842.0001z" /></clipPath><clipPath id="9"><path id="" clip-rule="evenodd" transform="matrix(1 0 0 1 0 0)" d="M453.0133 413.1325L164.7326 457.991L164.7326 457.991L133.251 255.6757L133.251 255.6757L421.5317 210.8173L421.5317 210.8173L453.0133 413.1325z" /></clipPath><clipPath id="10"><path id="" clip-rule="evenodd" transform="matrix(1 0 0 1 0 0)" d="M453.0133 413.1325L164.7326 457.991L164.7326 457.991L133.251 255.6757L133.251 255.6757L421.5317 210.8173L421.5317 210.8173L453.0133 413.1325z" /></clipPath><clipPath id="11"><path id="" clip-rule="evenodd" transform="matrix(1 0 0 1 0 0)" d="M0 -0.249939L595.5 -0.249939L595.5 -0.249939L595.5 842.0001L595.5 842.0001L0 842.0001z" /></clipPath><clipPath id="12"><path id="" clip-rule="evenodd" transform="matrix(1 0 0 1 0 0)" d="M0 -0.249939L595.5 -0.249939L595.5 -0.249939L595.5 842.0001L595.5 842.0001L0 842.0001z" /></clipPath><clipPath id="13"><path id="" clip-rule="evenodd" transform="matrix(1 0 0 1 0 0)" d="M133.0188 396.6949L409.0188 396.6949L409.0188 396.6949L409.0188 495.6949L409.0188 495.6949L133.0188 495.6949z" /></clipPath><clipPath id="14"><path id="" clip-rule="evenodd" transform="matrix(1 0 0 1 0 0)" d="M133.0188 445.852C 133.0188 458.8893 138.1979 471.3925 147.4166 480.6113C 156.6353 489.83 169.1386 495.0091 182.1759 495.0091L182.1759 495.0091L359.8313 495.0091C 372.8686 495.0091 385.3719 489.83 394.5906 480.6113C 403.8093 471.3925 408.9883 458.8893 408.9883 445.852C 408.9883 432.8148 403.8093 420.3114 394.5906 411.0927C 385.3719 401.874 372.8686 396.6949 359.8313 396.6949L359.8313 396.6949L182.1759 396.6949C 169.1386 396.6949 156.6353 401.874 147.4166 411.0927C 138.1979 420.3114 133.0188 432.8148 133.0188 445.852z" /></clipPath><clipPath id="15"><path id="" clip-rule="evenodd" transform="matrix(1 0 0 1 0 0)" d="M133.7688 397.4449L408.2688 397.4449L408.2688 397.4449L408.2688 494.1949L408.2688 494.1949L133.7688 494.1949z" /></clipPath><clipPath id="16"><path id="" clip-rule="evenodd" transform="matrix(1 0 0 1 0 0)" d="M182.1759 397.5949L359.8313 397.5949C 372.6299 397.5949 384.9042 402.6791 393.9542 411.7291C 403.0042 420.7791 408.0883 433.0534 408.0883 445.852C 408.0883 458.6506 403.0042 470.925 393.9542 479.9749C 384.9042 489.0248 372.6299 494.1091 359.8313 494.1091L359.8313 494.1091L182.1759 494.1091C 169.3773 494.1091 157.103 489.0248 148.053 479.9749C 139.003 470.925 133.9188 458.6506 133.9188 445.852C 133.9188 433.0534 139.003 420.7791 148.053 411.7291C 157.103 402.6791 169.3773 397.5949 182.1759 397.5949z" /></clipPath><clipPath id="17"><path id="" clip-rule="evenodd" transform="matrix(1 0 0 1 0 0)" d="M133.0188 396.6949L409.0188 396.6949L409.0188 396.6949L409.0188 494.9449L409.0188 494.9449L133.0188 494.9449z" /></clipPath><clipPath id="18"><path id="" clip-rule="evenodd" transform="matrix(1 0 0 1 0 0)" d="M0 -0.249939L595.5 -0.249939L595.5 -0.249939L595.5 842.0001L595.5 842.0001L0 842.0001z" /></clipPath><clipPath id="19"><path id="" clip-rule="evenodd" transform="matrix(1 0 0 1 0 0)" d="M0 -0.249939L595.5 -0.249939L595.5 -0.249939L595.5 842.0001L595.5 842.0001L0 842.0001z" /></clipPath><clipPath id="20"><path id="" clip-rule="evenodd" transform="matrix(1 0 0 1 0 0)" d="M133.0188 396.6949L409.0188 396.6949L409.0188 396.6949L409.0188 495.6949L409.0188 495.6949L133.0188 495.6949z" /></clipPath><clipPath id="21"><path id="" clip-rule="evenodd" transform="matrix(1 0 0 1 0 0)" d="M133.0188 445.852C 133.0188 458.8893 138.1979 471.3925 147.4166 480.6113C 156.6353 489.83 169.1386 495.0091 182.1759 495.0091L182.1759 495.0091L359.8313 495.0091C 372.8686 495.0091 385.3719 489.83 394.5906 480.6113C 403.8093 471.3925 408.9883 458.8893 408.9883 445.852C 408.9883 432.8148 403.8093 420.3114 394.5906 411.0927C 385.3719 401.874 372.8686 396.6949 359.8313 396.6949L359.8313 396.6949L182.1759 396.6949C 169.1386 396.6949 156.6353 401.874 147.4166 411.0927C 138.1979 420.3114 133.0188 432.8148 133.0188 445.852z" /></clipPath><clipPath id="22"><path id="" clip-rule="evenodd" transform="matrix(1 0 0 1 0 0)" d="M133.0188 396.6949L409.0188 396.6949L409.0188 396.6949L409.0188 494.9449L409.0188 494.9449L133.0188 494.9449z" /></clipPath><clipPath id="23"><path id="" clip-rule="evenodd" transform="matrix(1 0 0 1 0 0)" d="M133.0188 396.6949L409.0141 396.6949L409.0141 396.6949L409.0141 495.6894L409.0141 495.6894L133.0188 495.6894z" /></clipPath><clipPath id="24"><path id="" clip-rule="evenodd" transform="matrix(1 0 0 1 0 0)" d="M133.0188 445.8492C 133.0188 458.8857 138.1978 471.3883 147.4164 480.6066C 156.6349 489.8248 169.138 495.0035 182.175 495.0035L182.175 495.0035L359.8274 495.0035C 372.8645 495.0035 385.3676 489.8248 394.5862 480.6066C 403.8047 471.3883 408.9837 458.8857 408.9837 445.8492C 408.9837 432.8127 403.8047 420.3101 394.5862 411.0919C 385.3676 401.8737 372.8645 396.6949 359.8274 396.6949L359.8274 396.6949L182.175 396.6949C 169.138 396.6949 156.6349 401.8737 147.4164 411.0919C 138.1978 420.3101 133.0188 432.8127 133.0188 445.8492z" /></clipPath><clipPath id="25"><path id="" clip-rule="evenodd" transform="matrix(1 0 0 1 0 0)" d="M368.3071 47.79041L561.8071 47.79041L561.8071 47.79041L561.8071 174.5404L561.8071 174.5404L368.3071 174.5404z" /></clipPath><clipPath id="26"><path id="" clip-rule="evenodd" transform="matrix(1 0 0 1 0 0)" d="M348.7675 45.78223L594.5627 45.78223L594.5627 45.78223L594.5627 49.81781L594.5627 49.81781L348.7675 49.81781z" /></clipPath><clipPath id="27"><path id="" clip-rule="evenodd" transform="matrix(1 0 0 1 0 0)" d="M0 -0.249939L595.5 -0.249939L595.5 -0.249939L595.5 842.0001L595.5 842.0001L0 842.0001z" /></clipPath><clipPath id="28"><path id="" clip-rule="evenodd" transform="matrix(1 0 0 1 0 0)" d="M0 -0.249939L595.5 -0.249939L595.5 -0.249939L595.5 842.0001L595.5 842.0001L0 842.0001z" /></clipPath><clipPath id="29"><path id="" clip-rule="evenodd" transform="matrix(1 0 0 1 0 0)" d="M335.5772 41.6676L347.8242 41.6676L347.8242 41.6676L347.8242 53.91455L347.8242 53.91455L335.5772 53.91455z" /></clipPath><clipPath id="30"><path id="" clip-rule="evenodd" transform="matrix(1 0 0 1 0 0)" d="M335.6563 47.79108C 335.6563 44.45496 338.3646 41.7287 341.7186 41.7287C 345.0727 41.7287 347.781 44.43701 347.781 47.79108C 347.781 51.14508 345.0727 53.85345 341.7186 53.85345C 338.3646 53.85345 335.6563 51.12714 335.6563 47.79108" /></clipPath><clipPath id="31"><path id="" clip-rule="evenodd" transform="matrix(1 0 0 1 0 0)" d="M0 -0.249939L595.5 -0.249939L595.5 -0.249939L595.5 842.0001L595.5 842.0001L0 842.0001z" /></clipPath><clipPath id="32"><path id="" clip-rule="evenodd" transform="matrix(1 0 0 1 0 0)" d="M0 -0.249939L595.5 -0.249939L595.5 -0.249939L595.5 842.0001L595.5 842.0001L0 842.0001z" /></clipPath><clipPath id="33"><path id="" clip-rule="evenodd" transform="matrix(1 0 0 1 0 0)" d="M333.5804 39.67078L349.821 39.67078L349.821 39.67078L349.821 55.91132L349.821 55.91132L333.5804 55.91132z" /></clipPath><clipPath id="34"><path id="" clip-rule="evenodd" transform="matrix(1 0 0 1 0 0)" d="M333.6295 47.79108C 333.6295 43.32501 337.2346 39.71985 341.7007 39.71985L341.7007 39.71985L341.7007 41.7287L341.7007 41.7287L341.7007 39.71985C 346.1667 39.71985 349.7719 43.32501 349.7719 47.79108L349.7719 47.79108L347.7631 47.79108L347.7631 47.79108L349.7719 47.79108C 349.7719 52.25714 346.1667 55.86224 341.7007 55.86224C 337.2346 55.86224 333.6295 52.25714 333.6295 47.79108L333.6295 47.79108L334.5263 45.78223C 336.7503 45.78223 337.6651 46.67902 337.6651 47.79108C 337.6651 50.01514 339.4766 51.82666 341.7007 51.82666C 343.9247 51.82666 345.7363 50.01514 345.7363 47.79108C 345.7363 45.56702 343.9247 43.75543 341.7007 43.75543C 339.4766 43.75543 337.6651 45.56702 337.6651 47.79108L337.6651 47.79108L336.7683 49.79993C 334.5263 49.79993 333.6295 48.90308 333.6295 47.79108z" /></clipPath><clipPath id="35"><path id="" clip-rule="evenodd" transform="matrix(1 0 0 1 0 0)" d="M0 -0.249939L595.5 -0.249939L595.5 -0.249939L595.5 842.0001L595.5 842.0001L0 842.0001z" /></clipPath><clipPath id="36"><path id="" clip-rule="evenodd" transform="matrix(1 0 0 1 0 0)" d="M0 -0.249939L595.5 -0.249939L595.5 -0.249939L595.5 842.0001L595.5 842.0001L0 842.0001z" /></clipPath><clipPath id="37"><path id="" clip-rule="evenodd" transform="matrix(1 0 0 1 0 0)" d="M0 -0.249939L595.5 -0.249939L595.5 -0.249939L595.5 842.0001L595.5 842.0001L0 842.0001z" /></clipPath><clipPath id="38"><path id="" clip-rule="evenodd" transform="matrix(1 0 0 1 0 0)" d="M43.63329 30.75183L75.88329 30.75183L75.88329 30.75183L75.88329 63.00183L75.88329 63.00183L43.63329 63.00183z" /></clipPath><clipPath id="39"><path id="" clip-rule="evenodd" transform="matrix(1 0 0 1 0 0)" d="M43.63329 46.64612L43.63329 46.64868C 43.63329 50.86414 45.30786 54.90686 48.28861 57.88763C 51.26936 60.86841 55.31214 62.54297 59.52756 62.54297C 63.74297 62.54297 67.78574 60.86841 70.76649 57.88763C 73.74725 54.90686 75.42182 50.86414 75.42182 46.64868L75.42182 46.64868L75.42182 46.64612C 75.42182 42.43066 73.74725 38.38794 70.76649 35.40717C 67.78574 32.42639 63.74297 30.75183 59.52756 30.75183C 55.31214 30.75183 51.26936 32.42639 48.28861 35.40717C 45.30786 38.38794 43.63329 42.43066 43.63329 46.64612z" /></clipPath><clipPath id="40"><path id="" clip-rule="evenodd" transform="matrix(1 0 0 1 0 0)" d="M44.38329 31.50183L75.13329 31.50183L75.13329 31.50183L75.13329 62.25183L75.13329 62.25183L44.38329 62.25183z" /></clipPath><clipPath id="41"><path id="" clip-rule="evenodd" transform="matrix(1 0 0 1 0 0)" d="M59.52756 31.65186C 63.50428 31.65186 67.31813 33.23157 70.1301 36.04358C 72.94207 38.85553 74.52181 42.66937 74.52181 46.64612L74.52181 46.64612L74.52181 46.64868C 74.52181 50.62543 72.94207 54.43927 70.1301 57.25122C 67.31813 60.06323 63.50428 61.64294 59.52756 61.64294C 55.55083 61.64294 51.73698 60.06323 48.92501 57.25122C 46.11304 54.43927 44.53329 50.62543 44.53329 46.64868L44.53329 46.64868L44.53329 46.64612C 44.53329 42.66937 46.11304 38.85553 48.92501 36.04358C 51.73698 33.23157 55.55083 31.65186 59.52756 31.65186z" /></clipPath><clipPath id="42"><path id="" clip-rule="evenodd" transform="matrix(1 0 0 1 0 0)" d="M44.38199 31.50183L75.132 31.50183L75.132 31.50183L75.132 62.25183L75.132 62.25183L44.38199 62.25183z" /></clipPath><clipPath id="43"><path id="" clip-rule="evenodd" transform="matrix(1 0 0 1 0 0)" d="M43.62529 30.74512L75.12529 30.74512L75.12529 30.74512L75.12529 62.24512L75.12529 62.24512L43.62529 62.24512z" /></clipPath><clipPath id="44"><path id="" clip-rule="evenodd" transform="matrix(1 0 0 1 0 0)" d="M0 -0.249939L595.5 -0.249939L595.5 -0.249939L595.5 842.0001L595.5 842.0001L0 842.0001z" /></clipPath><clipPath id="45"><path id="" clip-rule="evenodd" transform="matrix(1 0 0 1 0 0)" d="M0 -0.249939L595.5 -0.249939L595.5 -0.249939L595.5 842.0001L595.5 842.0001L0 842.0001z" /></clipPath><clipPath id="46"><path id="" clip-rule="evenodd" transform="matrix(1 0 0 1 0 0)" d="M43.63329 30.75183L75.88329 30.75183L75.88329 30.75183L75.88329 63.00183L75.88329 63.00183L43.63329 63.00183z" /></clipPath><clipPath id="47"><path id="" clip-rule="evenodd" transform="matrix(1 0 0 1 0 0)" d="M43.63329 46.64612L43.63329 46.64868C 43.63329 50.86414 45.30786 54.90686 48.28861 57.88763C 51.26936 60.86841 55.31214 62.54297 59.52756 62.54297C 63.74297 62.54297 67.78574 60.86841 70.76649 57.88763C 73.74725 54.90686 75.42182 50.86414 75.42182 46.64868L75.42182 46.64868L75.42182 46.64612C 75.42182 42.43066 73.74725 38.38794 70.76649 35.40717C 67.78574 32.42639 63.74297 30.75183 59.52756 30.75183C 55.31214 30.75183 51.26936 32.42639 48.28861 35.40717C 45.30786 38.38794 43.63329 42.43066 43.63329 46.64612z" /></clipPath><clipPath id="48"><path id="" clip-rule="evenodd" transform="matrix(1 0 0 1 0 0)" d="M43.63329 30.75183L75.13329 30.75183L75.13329 30.75183L75.13329 62.25183L75.13329 62.25183L43.63329 62.25183z" /></clipPath><clipPath id="49"><path id="" clip-rule="evenodd" transform="matrix(1 0 0 1 0 0)" d="M43.63329 30.75183L75.87591 30.75183L75.87591 30.75183L75.87591 62.99182L75.87591 62.99182L43.63329 62.99182z" /></clipPath><clipPath id="50"><path id="" clip-rule="evenodd" transform="matrix(1 0 0 1 0 0)" d="M43.63329 46.64117L43.63329 46.64374C 43.63329 50.85785 45.30748 54.89941 48.28755 57.87921C 51.26762 60.85901 55.30946 62.53308 59.52392 62.53308C 63.73837 62.53308 67.78021 60.85901 70.76028 57.87921C 73.74035 54.89941 75.41454 50.85785 75.41454 46.64374L75.41454 46.64374L75.41454 46.64117C 75.41454 42.42706 73.74035 38.38556 70.76028 35.4057C 67.78021 32.4259 63.73837 30.75183 59.52392 30.75183C 55.30946 30.75183 51.26762 32.4259 48.28755 35.4057C 45.30748 38.38556 43.63329 42.42706 43.63329 46.64117z" /></clipPath><clipPath id="51"><path id="" clip-rule="evenodd" transform="matrix(1 0 0 1 0 0)" d="M0 -0.249939L595.5 -0.249939L595.5 -0.249939L595.5 842.0001L595.5 842.0001L0 842.0001z" /></clipPath><clipPath id="52"><path id="" clip-rule="evenodd" transform="matrix(1 0 0 1 0 0)" d="M0 -0.249939L595.5 -0.249939L595.5 -0.249939L595.5 842.0001L595.5 842.0001L0 842.0001z" /></clipPath><clipPath id="53"><path id="" clip-rule="evenodd" transform="matrix(1 0 0 1 0 0)" d="M0 -0.249939L595.5 -0.249939L595.5 -0.249939L595.5 842.0001L595.5 842.0001L0 842.0001z" /></clipPath><clipPath id="54"><path id="" clip-rule="evenodd" transform="matrix(1 0 0 1 0 0)" d="M345.8421 474.9367L399.1904 445.876L399.1904 445.876L442.2432 524.9105L442.2432 524.9105L388.8949 553.9712L388.8949 553.9712L345.8421 474.9367z" /></clipPath><clipPath id="55"><path id="" clip-rule="evenodd" transform="matrix(1 0 0 1 0 0)" d="M345.8421 474.9367L399.1904 445.876L399.1904 445.876L442.2432 524.9105L442.2432 524.9105L388.8949 553.9712L388.8949 553.9712L345.8421 474.9367z" /></clipPath><clipPath id="56"><path id="" clip-rule="evenodd" transform="matrix(1 0 0 1 0 0)" d="M345.8421 474.9367L399.1904 445.876L399.1904 445.876L442.2432 524.9105L442.2432 524.9105L388.8949 553.9712L388.8949 553.9712L345.8421 474.9367z" /></clipPath><clipPath id="57"><path id="" clip-rule="evenodd" transform="matrix(1 0 0 1 0 0)" d="M0 -0.249939L595.5 -0.249939L595.5 -0.249939L595.5 842.0001L595.5 842.0001L0 842.0001z" /></clipPath><clipPath id="58"><path id="" clip-rule="evenodd" transform="matrix(1 0 0 1 0 0)" d="M174.555 568.8854L394.305 568.8854L394.305 568.8854L394.305 826.8854L394.305 826.8854L174.555 826.8854z" /></clipPath><clipPath id="59"><path id="" clip-rule="evenodd" transform="matrix(1 0 0 1 0 0)" d="M0 -0.249939L595.5 -0.249939L595.5 -0.249939L595.5 842.0001L595.5 842.0001L0 842.0001z" /></clipPath></defs><g transform="matrix(1.333333 0 0 1.333333 0 0)"><g clip-path="url(#1)"><g clip-path="url(#2)"><path id="1" transform="matrix(1 0 0 -1 0 842)" d="M0 842.2499L595.4999 842.2499L595.4999 -6.103516E-05L0 -6.103516E-05z" stroke="none" fill="#FFFFFF" fill-rule="nonzero" /></g><g clip-path="url(#3)"><path id="2" transform="matrix(1 0 0 -1 0 842)" d="M0 842.2499L595.4999 842.2499L595.4999 -6.103516E-05L0 -6.103516E-05z" stroke="none" fill="#FAFBFF" fill-rule="nonzero" /></g><g clip-path="url(#4)"><g><g clip-path="url(#5)"><g clip-path="url(#6)"><g transform="matrix(0 0.5128205 -0.5127462 0 522.0178 30.75189)"><g transform="matrix(1 0 0 1 0 0)"><image x="0" y="0" xlink:href="img_01.png" width="1521" height="863" /></g></g></g></g></g></g><g clip-path="url(#7)"><g clip-path="url(#8)"><g clip-path="url(#9)"><g clip-path="url(#10)"><path id="4" transform="matrix(1 0 0 -1 0 842)" d="M268.0891 410.7899C 267.5582 410.6394 267.0114 410.3733 266.4432 410.1718C 265.8751 409.9703 265.3052 409.7798 264.7598 409.6497C 267.0318 410.3878 268.7683 409.6965 268.0798 410.7771L268.0798 410.7771L268.0891 410.7899zM242.2788 410.4727L241.8203 410.7294C 241.946 410.2852 242.0751 409.8188 242.2263 409.356L242.2263 409.356L242.2788 410.4727zM227.2253 438.0058L226.9106 438.1378C 226.7143 437.6548 226.8309 437.0508 227.0897 435.8241L227.0897 435.8241L227.2363 438.0075L227.2363 438.0075L227.2253 438.0058zM385.4106 604.1473L385.0827 605.0918L385.0827 605.0918L383.2522 605.0784C 383.8491 604.8772 385.0191 604.4823 385.3996 604.1456L385.3996 604.1456L385.4106 604.1473zM390.7719 602.8436L388.2838 604.2211L389.7805 603.1078L390.7719 602.8436zM161.8335 564.2554C 162.0811 564.5541 162.3364 564.8766 162.5975 565.234C 162.1361 564.7097 161.9402 564.4417 161.8335 564.2554zM160.9297 561.5582C 162.4395 562.6868 162.4467 563.0047 162.4061 563.3378C 162.3801 563.6504 162.3099 563.9562 163.8406 564.8053C 164.2844 565.7341 161.3353 563.386 161.8242 564.2427C 160.3283 562.3696 159.3377 561.6838 160.9203 561.5455L160.9203 561.5455L160.9297 561.5582zM201.7096 572.2477L202.5549 571.9042L203.1783 573.6414L201.7206 572.2495L201.7096 572.2477zM253.4976 559.0846C 253.2995 558.6127 248.5374 556.5028 253.1246 558.0651C 253.3975 558.4921 256.8196 560.0541 253.4976 559.0846zM263.1039 564.0862C 262.1519 563.7345 261.997 563.8574 261.3647 563.8495L261.3647 563.8495L261.8186 562.8229C 262.2657 563.2205 262.6712 563.6682 263.1039 564.0862L263.1039 564.0862L263.1039 564.0862zM252.1932 561.5061C 251.1182 560.9995 250.0039 560.5999 248.8931 560.1781C 248.6278 559.7748 249.6228 559.8505 250.8524 560.3812C 251.6216 560.8176 252.7933 561.4298 252.1821 561.5044L252.1821 561.5044L252.1932 561.5061zM290.0185 588.9304L289.1729 588.4029L287.4343 586.8541L290.0185 588.9304zM283.8115 584.4012C 284.5819 585.1206 285.2953 585.8425 285.6225 586.3572C 285.2102 585.9537 284.3406 585.0718 283.8115 584.4012zM280.843 581.4506L283.3871 583.5659C 283.2519 583.6354 283.4893 584.0004 283.8115 584.4012C 282.3318 583.0058 280.5946 581.593 280.843 581.4506zM293.1811 592.16L292.0216 592.3417L292.0216 592.3417L291.6381 591.0263C 292.1456 591.3994 292.6497 591.7946 293.17 592.1583L293.17 592.1583L293.1811 592.16zM273.553 579.5923C 274.3892 580.107 273.3608 580.6823 273.9597 580.832C 274.1273 582.2269 270.0142 575.7271 273.553 579.5923zM294.092 595.6841C 294.5671 596.1201 295.0627 596.5704 295.583 596.9342C 295.5091 597.4092 294.9149 596.5023 294.092 595.6841zM290.3253 592.8469C 290.9846 592.4631 292.2093 593.8979 293.7356 595.3572C 293.6355 595.2737 293.5464 595.192 293.4445 595.1196C 293.2606 596.3014 291.7517 594.5847 290.3253 592.8469zM310.6841 603.99C 311.0253 604.2693 311.4899 604.4094 311.8455 604.6684L311.8455 604.6684L311.5696 604.9875C 309.9088 604.1747 308.9143 603.296 310.6841 603.99L310.6841 603.99L310.6841 603.99zM286.3146 593.1051L284.2746 590.876C 285.3019 591.9069 285.8115 592.1219 286.4498 592.5266C 286.2635 592.6334 285.635 592.4564 286.3256 593.1069L286.3256 593.1069L286.3146 593.1051zM205.3743 567.1619C 204.6009 567.6976 204.217 568.0565 203.9794 568.3475C 203.8378 568.1672 204.1451 567.8643 205.3743 567.1619zM285.9141 419.7513L286.0253 419.8365C 286.0557 419.9318 286.0471 419.987 286.0385 420.0422L286.0385 420.0422L285.9158 419.7403L285.9158 419.7403L285.9141 419.7513zM187.4659 485.1673C 187.6838 484.9297 187.6892 484.7495 187.6946 484.5694C 188.1136 484.5667 188.1796 484.724 187.4659 485.1673zM370.1011 484.0051L371.0139 483.9549C 371.5156 484.2931 372.0207 484.6093 370.1011 484.0051zM267.7987 574.2625C 268.7137 574.9252 269.4758 575.5529 269.5643 575.9286C 269.7852 575.963 269.8873 575.8884 269.6296 575.5089C 268.7314 574.5207 268.1794 574.2877 267.7987 574.2625L267.7987 574.2625L267.7987 574.2625zM265.8846 572.9691C 265.8846 572.9691 265.9202 573.0313 265.9371 573.0678C 264.6739 572.3169 263.9886 571.9954 265.8846 572.9691zM181.7105 485.878C 180.6401 486.6504 179.6704 487.2122 178.897 487.2389C 179.8601 486.5742 180.8186 486.1578 181.7105 485.878zM228.1067 427.0344C 228.3654 427.8438 227.2485 429.4235 226.817 430.3065C 227.0034 428.6726 226.8333 427.7299 228.1067 427.0344zM256.7227 406.3402C 258.769 405.912 260.7936 406.2044 262.4685 406.7818C 263.3025 407.0926 264.0812 407.3947 264.7486 407.7588L264.7486 407.7588L266.4796 408.7747C 268.0686 408.8863 265.8026 406.6558 269.9789 408.4595C 272.8718 409.8599 272.3844 410.1573 271.6618 410.2938C 270.9392 410.4302 269.9746 410.4498 271.61 411.2812C 272.6018 411.2319 273.5509 411.3117 274.5656 411.3339C 275.5493 412.0638 276.4097 412.786 277.307 413.3442C 278.1923 413.9796 279.0786 414.5361 279.9462 415.067C 281.6745 416.1731 283.3835 417.1856 285.0222 418.504C 285.6711 419.2045 285.9365 419.6078 286.0219 419.8586C 289.7549 422.4757 291.8107 427.3657 294.2932 429.7317C 293.9742 428.9467 296.133 430.7758 296.6324 430.9101C 297.7435 432.712 298.829 434.5324 299.8889 436.3716C 298.4569 433.9429 299.0838 433.6219 299.3138 432.7979C 300.4616 434.4358 300.7183 435.4034 301.4455 436.5459C 301.1537 435.7313 300.8636 434.9056 301.7327 435.5725C 302.7524 437.5977 303.7466 439.6415 304.7373 441.7075C 304.4148 441.4537 303.9341 440.8359 303.5262 440.3312C 304.5002 441.7045 306.2368 444.9385 308.1018 446.6201C 308.1993 446.2846 307.9203 445.4607 308.0271 445.1379C 306.2275 443.9077 306.1049 442.5877 305.9233 441.4282C 308.5197 445.3164 306.7411 442.2794 308.4432 443.8452C 310.3157 446.5687 310.3409 448.2242 309.3592 447.8452C 311.743 450.7727 312.5684 451.6477 314.301 455.1979L314.301 455.1979L314.6268 454.0495C 315.248 455.0738 315.8708 456.087 316.5175 457.0926C 316.2439 456.0884 315.9686 455.0954 315.7188 454.0836C 320.3382 459.1464 315.1009 456.0916 320.2674 461.7824L320.2674 461.7824L320.9235 461.2736C 321.7142 462.5166 322.0286 463.5497 322.4257 464.4146C 322.8227 465.2796 323.277 465.9951 324.4293 466.5137C 326.0091 469.0107 320.2115 463.595 324.6854 468.7934C 325.8368 469.3911 327.8522 471.0509 329.413 472.2892C 330.75 474.0923 327.5024 471.8448 326.5993 470.7428C 328.3696 472.6698 329.7155 473.7616 330.8123 474.4187C 331.8964 475.0851 332.6931 475.3448 333.4729 475.568C 335.0307 476.0253 336.291 476.5043 339.8193 479.5646C 338.3256 478.9136 338.6456 479.6195 338.5702 479.9585C 338.5093 480.277 337.9382 480.3126 334.8863 477.9712C 335.5438 478.6165 336.2847 479.1617 337.0581 479.644C 337.857 480.1077 338.69 480.4974 339.5195 480.9094C 340.3364 481.3306 341.2111 481.6703 342.0083 482.145C 342.8054 482.6198 343.6102 483.1183 344.3578 483.7663C 343.7786 483.054 343.2053 482.3765 342.6882 481.6287C 343.8572 482.3309 345.0698 483.3341 345.6631 483.811L345.6631 483.811L345.7546 482.9316C 346.6115 483.8228 347.6278 484.343 348.5923 484.8324C 349.5696 485.3126 350.5455 485.6567 351.4671 485.9133C 352.3964 486.1936 353.2593 486.4636 354.0167 486.8304C 354.7741 487.1971 355.4363 487.5942 355.9672 488.2538C 354.5641 486.2933 359.2448 489.3633 361.1759 489.1661C 360.3252 488.6717 359.2517 488.301 358.1136 487.909C 356.9789 487.4949 355.7805 487.1274 354.6907 486.7881C 352.5174 485.9975 350.7561 485.2483 350.7761 484.5388C 352.568 484.7271 353.8015 485.9597 355.5375 486.0715C 354.4625 485.5649 352.9983 484.5791 352.6743 484.1893C 358.2556 485.3972 360.9661 487.6063 364.2878 488.7227C 363.3093 488.4687 362.3231 488.1907 361.3531 487.8815C 360.3721 487.5704 359.3953 487.3053 358.4305 486.9629C 358.5512 488.4409 361.0388 487.8665 362.4622 489.3323C 364.0497 489.3079 365.3528 489.6577 366.603 490.0558C 367.8474 490.4191 369.0128 490.7815 370.2662 490.7955C 369.6163 490.6831 369.6038 490.5454 368.9539 490.433C 375.4504 491.6475 377.5851 489.7059 380.144 490.1267C 382.6846 490.375 387.2487 492.0128 385.4246 492.2493C 386.3936 492.6376 384.3277 492.1013 382.399 491.8464C 380.4721 491.5805 378.7164 491.5222 380.3775 492.697C 382.3733 492.0121 384.2148 492.5362 386.5216 493.2684C 388.8489 494.0152 391.5973 494.9632 395.5363 495.3839C 392.4186 493.7562 397.8241 494.8575 394.9923 493.5005C 396.7997 494.0985 397.6776 494.5632 398.3118 494.9221C 398.9443 495.292 399.31 495.6317 399.965 496.22L399.965 496.22L401.235 496.0557C 403.2617 497.5701 403.3238 498.0436 403.7734 498.4982C 403.9872 498.7237 404.2766 498.9724 404.9005 499.3975C 405.5423 499.7802 406.43 500.4726 407.838 501.5288C 406.0341 499.8907 410.7695 502.2452 409.4452 500.9418C 410.2873 501.4914 411.0493 502.119 411.7469 502.7253C 412.0829 503.0378 412.424 503.3171 412.7014 503.6431C 412.9659 503.9783 413.2101 504.2991 413.4212 504.6148L413.4212 504.6148L413.2788 504.3664C 413.927 504.999 414.4895 505.5276 414.985 505.9781C 415.4951 506.4081 415.8419 506.8693 416.2203 507.1997C 416.9372 507.8995 417.4845 508.3806 418.0225 508.8489C 418.5204 509.3563 418.9725 509.8678 419.5466 510.6132C 419.8281 510.985 420.1359 511.4063 420.4851 511.9244C 420.785 512.4688 421.1153 513.1084 421.4854 513.8561L421.4854 513.8561L420.8291 513.4938C 422.7694 517.3817 424.7342 521.8389 426.0424 526.59C 427.3871 531.3242 428.0108 536.3307 427.7686 540.7952C 427.6378 539.7455 427.5512 538.7026 427.3949 537.6715C 427.5378 538.1349 427.3813 539.649 427.33 541.3605C 427.3098 542.217 427.1689 543.1227 427.1453 544.0014C 427.0995 544.8766 427.1619 545.7122 427.1785 546.4048C 427.3197 545.8611 427.5006 544.9164 427.4913 544.3946C 427.882 544.5007 428.4971 545.6371 428.2707 547.819L428.2707 547.819L427.5436 548.5656L427.5436 548.5656L427.9066 549.5045C 427.2781 552.7438 427.2388 548.4164 426.5934 551.6191C 426.9043 552.1652 426.9924 553.3441 426.6661 554.7865C 426.5195 555.5103 426.3278 556.3063 426.1071 557.143C 425.8643 557.9763 425.5153 558.8382 425.2104 559.707C 424.9038 560.587 424.5751 561.4634 424.1887 562.2744C 423.8338 563.1014 423.4933 563.9082 423.2056 564.6666C 422.547 566.1365 422.0809 567.3875 422.0752 568.2238C 420.9837 568.9136 421.7034 567.4871 422.4052 566.1031C 423.1511 564.726 423.7204 563.3214 422.7008 564.2034C 422.4339 565.1913 422.4008 565.6952 421.4609 567.6643L421.4609 567.6643L421.1576 566.6329C 420.6406 567.7742 420.0542 568.7803 419.5333 569.7286L419.5333 569.7286L418.7746 571.1151C 418.524 571.5625 418.2361 571.9589 417.9999 572.386L417.9999 572.386L416.5478 574.7391L416.5478 574.7391L415.0655 576.8502L415.0655 576.8502L414.3286 577.878L414.3286 577.878L413.5306 578.8624L413.5306 578.8624L411.8488 580.8745C 410.6041 582.1853 409.2632 583.6056 407.5354 585.1128L407.5354 585.1128L407.907 584.9783C 406.812 586.1993 405.9063 587.0765 405.0453 587.6664C 404.2046 588.2709 403.4791 588.6445 402.741 588.8803C 402.4177 589.5766 404.3195 588.187 403.5129 589.2267C 402.1132 589.7894 400.8805 590.5139 399.7819 591.3949C 398.6459 592.225 397.6008 593.1257 396.6254 594.0146C 394.6092 595.7031 392.7718 597.2611 390.9525 597.6115C 391.4329 598.0143 390.1565 599.4559 389.038 600.5376C 387.9474 601.6575 387.1011 602.5891 388.7833 602.3192C 388.0146 602.6068 387.2611 602.9421 386.4754 603.1931C 387.007 603.4116 388.7752 602.5894 390.6114 601.7666C 392.4231 600.8833 394.2892 599.9407 395.1313 599.9812L395.1313 599.9812L398.3187 597.6718C 399.3594 596.8722 400.3722 596.0343 401.3814 595.2185C 401.3527 595.6213 402.7316 595.3381 401.7198 596.0969C 403.3737 595.0647 404.7801 594.0958 402.9532 595.9495C 410.2051 589.8381 417.1578 583.2504 422.7375 575.4535C 425.5146 571.5643 427.9506 567.3959 429.8015 562.9893C 431.6395 558.5921 432.8051 553.864 433.159 549.1906C 433.4195 547.9528 433.6851 548.7181 433.8524 549.2419C 433.3546 545.6803 434.7656 545.9904 435.0315 544.0634C 434.8274 543.1945 434.6895 542.3359 434.4266 541.4806L434.4266 541.4806L433.6661 538.9528C 434.0555 536.8867 434.5228 538.4639 434.8077 538.3046C 434.7294 533.4282 433.6566 528.6911 432.2244 524.3732C 430.737 520.0468 428.8706 516.193 427.3498 512.5175C 425.582 510.6473 426.663 513.587 424.7801 510.9298C 425.6848 511.6588 425.8541 511.5155 425.647 510.8837C 425.4144 510.2706 424.8801 509.1241 424.106 508.0647L424.106 508.0647L422.1174 505.1422C 421.6155 504.4419 421.4903 504.0831 422.1797 504.4505C 421.3288 504.1032 420.3859 503.4022 419.4508 502.5779L419.4508 502.5779L416.4703 500.2137C 415.5614 499.4388 414.5824 498.9697 413.9403 498.734C 413.2838 498.5187 412.8697 498.6353 412.8346 499.2973C 411.2771 498.1839 410.6942 497.6407 410.6905 497.3007C 410.6851 496.9719 411.2342 496.9329 411.7786 497.142L411.7786 497.142L408.9676 495.5055C 408.0814 494.949 407.1676 494.5693 406.3262 494.0877C 404.6342 493.1118 402.9886 492.3466 401.3842 491.3164C 400.7726 491.176 399.2317 490.7552 397.2434 490.0839C 395.2303 489.4991 392.7323 488.7597 390.1701 488.214C 385.0434 487.0656 379.7247 486.3511 377.6868 486.871C 380.4822 486.2087 377.5774 486.2658 375.1748 485.3489L375.1748 485.3489L377.5851 484.7625L377.5851 484.7625L371.9743 483.8894C 370.8701 483.5705 370.5446 483.5538 370.5309 483.6422C 369.5887 483.5182 370.6514 484.2491 368.2161 484.0512C 364.4722 483.3216 364.4001 482.7673 362.5331 481.7528L362.5331 481.7528L363.1212 481.7538L363.1212 481.7538L360.6859 481.0469C 358.8417 480.6128 366.881 483.6172 360.7911 482.6243C 360.7406 482.3676 357.7004 480.0959 355.9546 480.2654C 358.8917 481.1636 358.3589 481.6802 357.1547 481.6399C 355.7302 481.2712 354.3918 480.7122 353.0014 480.2697L353.0014 480.2697L354.7839 479.5742C 354.0679 479.3044 353.3213 479.0864 352.6216 478.7852L352.6216 478.7852L350.5096 477.891C 349.7954 477.6101 349.0863 477.2962 348.4062 476.9415C 347.7261 476.5868 347.0153 476.2839 346.3404 475.8961C 343.5903 474.45 340.958 472.683 338.3864 470.7443C 333.2559 466.8578 328.5893 462.0253 324.3638 456.6845C 323.9951 457.091 322.4644 455.2238 321.0373 453.418C 319.5846 451.6309 318.2065 449.9459 317.9066 450.9286L317.9066 450.9286L318.3402 451.2676C 320.2194 454.0939 316.7044 451.2393 315.2527 448.8641C 317.3533 450.9217 313.5781 443.7053 317.8482 449.268L317.8482 449.268L315.3479 444.3993C 316.1532 440.1694 306.9245 432.5229 302.3707 425.3664C 302.6595 425.9091 302.6252 426.13 302.5952 426.2498C 300.6454 423.0052 297.6754 419.9186 295.0042 417.6025C 293.6958 416.4147 292.4065 415.4675 291.4459 414.6619C 290.4453 413.8954 289.7461 413.3001 289.5011 412.9113L289.5011 412.9113L288.4376 413.1305C 286.3701 410.5689 285.0817 409.1807 283.4954 407.961C 282.6823 407.3707 281.8633 406.7455 280.6899 406.1443L280.6899 406.1443L278.7642 405.1433C 278.0348 404.8149 277.2153 404.4838 276.2905 404.1023C 276.3309 404.2783 277.0378 404.8973 275.8427 404.5078C 274.3952 403.1965 272.8699 401.6583 267.5173 400.3616L267.5173 400.3616L267.6604 400.6779C 264.9245 399.8676 262.1039 399.3835 259.2482 399.0522C 259.1507 400.4058 255.6304 399.6205 251.5784 399.6348C 249.5602 399.5922 247.431 399.8265 245.7178 400.2952C 244.8624 400.558 244.114 400.8601 243.5296 401.199C 242.9452 401.538 242.5569 401.9979 242.3853 402.4463C 241.9256 402.42 241.2082 402.5233 240.33 402.7147C 239.4763 402.9665 238.4992 403.3575 237.4744 403.7636C 236.4666 404.2063 235.4917 404.8012 234.5561 405.2891C 233.6374 405.8136 232.8792 406.3969 232.242 406.7842C 232.3056 406.8846 232.2398 407.0893 231.9501 407.4967C 230.1832 408.0928 228.4488 410.0062 227.2153 412.1898C 225.9377 414.3666 225.0498 416.7284 224.1812 418.3127C 222.8223 420.2845 222.8454 419.1908 222.8916 418.0215C 222.3368 420.4239 220.8184 423.2758 219.5672 425.864C 218.2957 428.4376 217.1896 430.675 217.2247 431.5401C 216.5027 434.7988 217.9369 432.9971 218.3082 434.0277C 216.9158 438.6866 216.0644 432.6718 215.6537 439.2368C 215.9328 438.5337 216.343 437.2061 216.3803 437.7662C 216.054 440.2267 218.1564 445.1806 216.9417 447.3897L216.9417 447.3897L216.8502 445.7239C 215.9849 447.7951 215.8792 450.4371 215.6435 452.6063C 215.4188 454.7772 215.0896 456.4567 214.0936 456.4601L214.0936 456.4601L213.4192 455.7782C 213.0548 457.6107 212.7173 458.6894 212.4382 459.3925C 212.1701 460.0974 211.9588 460.4379 211.7271 460.7638C 211.2526 461.4139 210.9276 462.1213 209.3301 465.4813L209.3301 465.4813L209.4992 465.485C 207.5675 468.0125 207.021 469.9976 204.9362 470.0917C 205.1721 469.8116 205.3783 469.5044 205.5845 469.1971C 204.1673 470.5263 203.3307 471.1767 202.4908 471.8492C 202.0849 472.2045 201.6306 472.5071 201.0945 472.8989C 200.5677 473.3033 199.9033 473.7203 199.0509 474.2551C 198.5764 474.3962 196.7523 475.1417 196.3571 475.6458C 196.012 475.1736 193.8519 476.1157 191.4111 477.116C 188.9508 478.1698 186.2982 479.2955 185.4257 479.6688C 188.6619 478.6452 187.3387 479.6611 186.5937 480.4501C 184.3938 480.2662 183.0326 480.6539 180.6595 482.3095C 180.2102 481.7079 179.7039 481.1088 178.6487 480.9106C 177.5936 480.7125 175.9658 480.923 173.2646 482.143C 174.1871 481.9585 175.5417 481.4679 175.1209 481.9907C 174.7002 482.5134 173.3375 482.7652 172.8741 482.908C 172.4866 483.4359 174.2715 482.7974 173.9064 483.5438C 172.8788 483.6779 171.9664 483.9432 171.1084 484.2961C 170.2579 484.6729 169.4821 485.1517 168.6551 485.6678C 167.8468 486.2094 167.0266 486.8284 166.0779 487.4727C 165.1683 488.1569 164.1116 488.8409 162.9018 489.6368C 164.6061 488.8613 163.5274 490.0508 163.3246 490.8451C 162.6482 490.3213 161.3191 491.8113 160.3132 493.114C 159.2886 494.3913 158.5525 495.4871 158.5985 493.9558C 154.9064 498.2003 150.5058 503.726 147.629 509.2737C 144.7131 514.7816 143.3111 520.0837 143.5503 522.3268C 143.6254 522.644 143.5856 523.045 143.4786 523.5148C 143.3936 523.988 143.2321 524.5172 143.0561 525.0667C 142.6693 526.1716 142.3094 527.3939 142.1837 528.3472L142.1837 528.3472L142.9259 528.1572C 142.4307 529.449 142.2405 530.3809 142.0591 531.1106C 141.876 531.8513 141.8121 532.407 141.7652 532.9993C 141.6365 534.1896 141.4907 535.4905 141.1435 538.7396C 141.3914 537.3641 141.749 536.9561 142.0367 537.2157C 142.3243 537.4754 142.6924 538.3811 143.1874 539.6346C 143.0154 540.377 142.8875 541.1263 142.7689 541.8884C 142.663 542.6412 142.5079 543.4202 142.4445 544.1909L142.4445 544.1909L143.7225 544.7744C 143.7047 545.6879 143.8748 546.6307 144.1843 547.5499C 144.4682 548.4877 144.8456 549.4062 145.2945 550.3018C 144.9723 549.392 145.2401 549.8522 145.4567 549.8406C 145.1757 550.1928 145.143 550.9117 145.2613 551.8238C 145.4161 552.7189 145.7329 553.809 146.0956 554.8948C 146.5204 555.9451 146.9401 557.0284 147.3244 557.9027C 147.7215 558.7677 147.9973 559.4667 148.0086 559.8304C 149.1567 560.3032 149.878 561.4109 150.5296 562.5305C 151.2595 563.5829 151.9197 564.6472 152.9385 564.7152C 153.2264 565.3369 153.6772 566.0745 154.213 566.848C 153.0874 566.5936 152.2796 566.8412 153.8151 567.9512L153.8151 567.9512L154.1162 568.2695L154.1162 568.2695L155.295 568.1815C 155.8964 568.8972 156.547 569.5867 157.1927 570.1623C 157.8384 570.7379 158.4069 571.3015 158.9289 571.6542C 158.4135 571.4043 157.8183 571.0854 157.1593 570.8132C 157.8639 571.2283 158.5457 571.5719 159.2234 571.8697C 159.4272 572.0145 159.6308 572.1593 159.7751 572.2496C 159.6989 572.1586 159.5876 572.0734 159.4671 571.9755C 159.9936 572.2271 160.5056 572.499 161.0387 572.8535C 161.5862 573.1876 162.1455 573.5913 162.7616 574.1396C 165.8846 575.2252 168.8862 577.1628 172.339 578.673C 175.7476 580.1762 179.6515 581.2588 183.3462 580.4875C 182.2557 580.5894 180.6878 580.5603 180.3162 580.1858C 183.3342 580.5649 186.3896 580.339 189.0802 579.8414C 190.4301 579.5989 191.6986 579.2986 192.8539 579.0711C 193.9957 578.785 195.0523 578.61 196.0051 578.5208L196.0051 578.5208L195.9629 579.3739C 200.3333 578.5494 203.5297 577.4178 206.6103 575.9402L206.6103 575.9402L207.1733 576.684C 209.384 575.4895 212.905 573.9446 216.007 572.4024C 219.1106 570.8492 221.8199 569.359 222.6517 567.9387C 223.9433 568.0718 228.1284 565.2388 230.5095 564.8401L230.5095 564.8401L230.8899 563.9943C 231.6273 563.6906 232.3108 563.514 232.9306 563.3843C 233.5614 563.2562 234.1404 563.0974 234.6767 563.0677C 235.7603 563.0101 236.691 562.9174 237.5925 563.0124C 240.5999 562.0776 243.7421 562.3856 246.5774 563.2114C 249.4458 564.0424 252.0363 565.3505 254.6289 566.5005L254.6289 566.5005L254.7668 566.3409C 256.4333 567.3356 258.0709 568.3709 259.6419 569.543C 258.6481 568.2232 260.4255 570.4681 261.9546 571.3282C 263.3248 572.6274 265.8748 574.2686 267.8914 575.3402C 268.8903 576.1178 269.8585 576.9472 270.8395 577.7673C 267.9095 574.6417 271.7243 577.1697 272.4533 576.774L272.4533 576.774L273.8824 578.9308C 274.8955 579.326 273.1194 577.3641 274.6055 578.5004C 275.5692 579.9399 279.2082 583.3795 279.767 585.0953C 279.4433 585.0676 278.8778 584.776 278.2173 584.3678C 278.0995 584.1798 278.0961 584.2019 278.1545 584.3354L278.1545 584.3354L277.9991 584.2433L277.9991 584.2433L278.1714 584.3719C 278.2747 584.5804 278.4161 584.9078 278.4456 585.082C 280.8495 587.153 279.7831 586.5911 279.4506 586.7656C 282.9227 588.3693 283.8251 590.4214 286.8847 591.2595C 284.922 590.5695 286.4518 592.0066 288.1555 593.5613C 289.8593 595.116 291.7916 596.7289 290.3506 596.5386C 293.2929 597.4037 291.8612 597.7352 293.9283 598.0455C 290.6331 595.8134 288.563 592.3238 286.702 589.817L286.702 589.817L289.4435 591.3182C 288.9657 588.9363 284.1326 587.0643 283.1835 585.4573C 283.8182 586.5402 286.0062 588.1816 286.3057 588.002L286.3057 588.002L284.9557 588.2444C 281.5364 585.5743 279.7161 582.5874 277.8958 580.1096C 280.2222 581.8065 275.8288 577.254 277.8687 578.1031L277.8687 578.1031L279.421 579.7587C 280.44 580.1888 279.0833 578.4392 278.3748 577.3221C 275.4883 575.1536 271.6682 571.7876 268.0083 569.1367C 264.3611 566.4764 260.9219 564.5159 259.5837 564.319C 261.009 564.7557 263.2021 566.364 264.0656 567.358C 263.0568 566.8617 262.0285 566.4189 261.0111 565.9778C 263.2829 567.3719 265.6337 567.7491 268.64 570.4567C 267.6989 570.6157 269.3722 573.0933 266.4208 572.0684C 264.7593 571.1877 263.6965 570.4567 262.8734 569.7856C 262.063 569.1052 261.5193 568.455 260.9349 567.7759C 260.3523 567.0856 259.7196 566.3538 258.7224 565.5651C 258.2328 565.1495 257.6276 564.7499 256.8881 564.3407C 256.1648 563.9001 255.2893 563.4924 254.2337 563.0793C 253.8908 562.811 254.2045 563.267 254.0893 563.498C 253.9614 563.7383 253.4099 563.7203 251.2658 562.7419C 248.5962 561.4329 246.2101 560.3375 244.4356 559.3827C 242.6746 558.4865 241.5459 557.5982 241.593 556.8589C 242.2709 557.0096 243.1042 557.2524 243.9868 557.469C 244.8676 557.6965 245.779 558.0193 246.6395 558.2324C 248.3467 558.7469 249.8316 559.0911 250.3898 558.7029C 249.7836 558.3823 249.0252 558.0946 248.2447 557.8035C 247.4676 557.4902 246.6488 557.2271 245.8912 557.0074C 244.3989 556.4924 243.1477 556.1732 243.0591 555.7975C 241.5575 556.2878 242.8683 556.5144 244.0374 556.7076C 245.2157 556.9136 246.2385 557.1746 244.3387 557.3879C 242.4526 557.1511 241.6716 556.6449 240.7669 556.4249C 242.0211 557.016 239.0149 557.2156 238.4695 557.5946C 235.416 557.6624 233.0634 558.3145 230.7405 558.9937C 228.4446 559.7903 226.135 560.6752 223.233 562.0223C 222.9937 562.3245 222.5193 562.9746 222.8155 563.1791C 219.8777 564.1021 215.0229 564.4778 215.6913 563.2357C 212.3903 564.8939 212.5167 565.5358 209.6032 566.6661C 213.4467 563.3389 208.8271 567.292 207.7943 566.4412C 204.9452 567.7399 207.0923 567.4632 205.9333 568.3688C 205.4036 568.5013 204.1116 568.6623 203.8937 568.3908C 203.2336 569.2157 204.3288 569.3748 205.4095 569.5543C 206.4808 569.721 207.5504 569.8987 206.7601 570.907C 206.1938 571.5655 204.5088 572.9435 202.8139 574.0939C 201.1454 575.2935 199.4297 576.2143 199.2144 576.3618C 197.3685 575.9388 196.5507 571.6713 198.0064 569.658C 197.7699 569.361 197.1955 569.7806 196.5198 570.343C 195.8365 570.8814 195.0255 571.5131 194.4234 571.7475C 192.7806 572.7814 191.3026 572.9021 189.9576 572.7494C 189.288 572.6904 188.6422 572.6239 187.9778 572.5319C 187.3117 572.4508 186.6471 572.5057 185.8965 572.6039C 186.6635 572.8364 187.4384 572.9457 188.236 573.1263C 188.1212 573.2103 187.7395 573.264 187.2363 573.2988C 186.7314 573.3447 186.0975 573.3478 185.4534 573.2703C 184.8077 573.2037 184.1713 573.1499 183.648 573.0233C 183.1264 572.8855 182.717 572.754 182.5541 572.6381C 182.369 573.0278 184.8039 574.9 183.3322 575.2705C 180.3808 575.2637 177.6285 574.1228 175.8722 572.9785C 174.9962 572.3557 174.3284 571.7767 173.9478 571.2423C 173.5688 570.697 173.4557 570.2607 173.6312 570.0053C 176.084 571.3259 178.7235 572.3927 181.4918 573.1402C 181.6889 572.6732 180.2467 572.1998 178.8573 571.6782C 178.1686 571.3788 177.4909 571.081 177.0283 570.7828C 176.5656 570.4846 176.3342 570.1544 176.4893 569.8844C 174.0674 569.3831 171.7148 568.5081 169.4289 567.4962C 170.2209 568.004 172.8105 569.3912 171.5322 569.4637C 168.5364 568.0699 169.9219 568.9077 167.7066 568.3141C 169.0663 569.8267 171.1131 572.0117 173.3693 574.0143C 174.5116 574.9613 175.6469 575.9524 176.7155 576.7183C 177.7628 577.5486 178.7271 578.1851 179.3976 578.6741C 177.8678 578.255 176.4097 577.6661 174.9719 577.0917L174.9719 577.0917L173.701 577.3351C 172.276 576.7514 171.042 575.8127 169.9532 574.8855C 168.9038 573.8511 167.9834 572.8595 167.3157 571.7714C 165.9059 569.7081 165.306 567.7483 164.9852 566.9744C 162.3755 565.4258 161.9117 567.7518 162.3174 568.5615C 159.6606 566.7341 159.0228 565.0172 158.4306 563.4431C 157.8691 561.8173 157.3567 560.3123 155.4426 558.0009C 155.9813 558.5372 156.6238 558.9878 157.1933 559.4724C 157.0136 559.1729 156.6558 558.71 156.2368 558.2036L156.2368 558.2036L154.9854 556.5044C 154.1885 555.3736 153.6209 554.369 153.9257 554.5182C 152.812 553.8245 151.1368 553.3942 151.4352 554.8207C 151.318 553.8296 151.1624 552.8665 151.0859 551.9044C 151.0459 550.9253 150.9438 549.9818 150.9574 549.0224C 151.0341 549.8375 149.2331 549.9984 149.0743 550.4375C 148.195 548.3098 149.6849 546.2225 150.3907 547.4297C 149.1658 545.6328 148.7847 544.8834 148.4782 544.2361C 148.1734 543.5779 147.7654 543.0732 146.7629 541.4467C 146.6589 540.1522 148.6023 541.2578 148.9348 542.1013C 148.9194 540.6736 148.7717 539.5873 148.6662 538.6659C 148.5369 537.7521 148.3453 537.0209 148.2317 536.3698C 148.0271 538.7021 147.1756 539.158 146.093 539.1365C 145.0341 539.1075 143.8539 538.5505 143.2461 539.1121C 144.531 535.217 146.2715 531.6643 148.3403 528.5474C 147.9888 528.8433 146.2574 529.5015 146.0638 529.4374C 146.466 529.2512 146.8737 528.3757 147.2533 527.0999C 147.677 525.831 148.1166 524.1686 148.6763 522.3892C 149.7405 518.8218 151.4232 514.8416 152.6709 512.2755C 152.5302 512.5251 152.4117 512.7782 152.2804 513.0406C 151.8089 513.4536 151.9397 512.4672 152.5367 511.2479C 153.0708 509.9962 154.0456 508.5302 154.8117 507.8236C 154.3738 507.9478 154.2022 508.3962 153.7267 509.1254C 154.2366 507.1572 155.5007 506.4489 156.6584 505.7694C 157.8918 505.1129 159.0096 504.4723 159.7904 502.5803C 158.6731 503.9449 157.9554 504.7042 157.4279 505.0407C 156.8894 505.3754 156.5632 505.2907 156.3767 505.0355C 157.4832 504.0312 158.9974 502.1514 160.4154 500.8902C 161.802 499.6127 163.0022 498.9511 163.1209 500.0782C 164.1664 498.5214 165.6049 497.6366 164.8836 497.038C 165.8799 496.3785 166.9619 495.8229 167.992 495.2366C 169.0688 494.7141 170.0989 494.1278 171.1985 493.6767C 170.6595 493.7965 169.9664 493.5981 171.6605 492.3798C 170.043 493.5422 168.2213 494.3447 166.702 495.2395C 165.1657 496.0977 163.9557 497.0406 163.5543 498.166C 162.71 497.4124 163.4749 495.9138 161.3594 496.5688C 164.5183 494.006 167.4406 492.6734 170.0664 491.7924C 172.6939 490.9004 175.0995 490.562 177.524 490.1022C 179.4313 488.8945 181.4813 487.7881 183.5644 486.687L183.5644 486.687L184.0261 487.0642L184.0261 487.0642L184.7122 485.4176C 185.6454 485.3818 186.2725 485.4228 186.4028 485.2395C 186.5186 485.0765 186.2494 484.9893 185.8501 484.9385C 186.5719 484.7341 187.2596 484.6036 187.6438 484.6068C 187.6671 483.8751 186.2085 483.5803 184.6978 483.4018L184.6978 483.4018L183.1173 484.7621C 181.5836 484.6592 180.39 484.4056 182.0669 483.2978C 182.3533 483.2745 182.7205 483.2411 183.1005 483.1984C 182.0919 483.0641 181.4285 482.893 181.9791 482.481L181.9791 482.481L187.3344 481.1423C 186.8111 481.5247 186.074 482.1906 185.1948 482.97C 188.6934 482.5869 192.7606 482.1111 190.1772 484.0281C 191.4005 483.2909 192.6256 482.5426 193.8447 481.7595C 196.4042 481.3772 197.4822 481.1377 198.6547 480.7998C 199.2447 480.6427 199.8561 480.4211 200.709 480.1014C 201.5585 479.8037 202.636 479.3492 204.1559 478.6694C 204.2086 478.112 202.5539 478.7142 203.3491 477.8199C 205.7255 477.1602 207.8352 474.9433 209.2265 472.9086L209.2265 472.9086L210.1774 471.4503C 210.4425 470.9825 210.7007 470.5589 210.9359 470.2108C 211.4172 469.5165 211.7851 469.0421 212.1948 469.0267C 213.4566 467.6054 213.831 467.3808 214.2202 467.3509C 214.567 467.303 214.8736 467.4412 215.6478 466.4644C 215.4624 466.4922 215.1139 466.551 215.4379 465.9227C 216.2006 465.2382 216.9224 464.5247 217.6146 463.7841C 217.8444 462.5981 215.8528 465.8741 216.9535 462.7988C 219.8671 458.1052 221.2167 455.1025 221.9652 450.728C 223.7398 444.7033 223.0826 453.7978 224.2082 448.5997C 223.6633 447.6665 222.9757 446.7789 223.5938 443.6059C 224.4778 442.0692 225.0015 442.4109 225.9554 439.6974L225.9554 439.6974L224.7913 439.618C 225.4272 437.0586 226.1375 435.1104 225.3026 434.8786C 226.3053 432.9419 226.6026 431.5402 226.7396 430.4416C 227.5899 428.6848 227.93 429.5522 228.0993 430.936C 228.2686 432.3198 228.3137 434.2838 228.4182 434.7752C 228.5269 430.8781 229.7766 428.663 229.2104 426.2672C 228.732 427.2335 228.2926 428.2398 227.8532 429.2461C 228.2631 425.6674 229.3124 424.3035 230.0245 423.3622C 230.7493 422.4117 231.1666 421.911 230.8368 419.9593C 229.7948 422.003 228.1487 424.4391 228.1191 422.8848L228.1191 422.8848L229.1159 421.4222L229.1159 421.4222L230.1594 420.0235C 230.0804 419.5135 229.0653 421.6746 229.4913 420.1006C 230.1555 419.3216 231.6952 417.9322 232.4914 417.4679L232.4914 417.4679L232.4141 417.4558C 233.5879 415.8738 234.8804 414.4007 236.3367 413.1115C 235.5994 413.9243 235.093 413.8342 235.8559 413.0027C 236.3605 412.5948 236.9567 412.3256 237.4969 411.9798C 238.0465 411.6468 238.5629 411.3086 239.165 411.0742C 238.0392 411.4759 238.8158 410.5561 240.169 409.4205C 241.2239 408.7475 242.0717 408.4609 242.7484 408.3286C 243.4589 408.2695 243.9984 408.3648 244.4809 408.4625C 244.9745 408.5619 245.3849 408.6145 245.9008 408.5703C 246.4278 408.5279 247.0136 408.3249 247.8457 407.7757C 247.3313 407.9558 247.2014 407.8451 246.6759 408.0235C 247.2569 407.7067 247.8185 407.2963 248.4478 407.0323C 248.678 407.5884 249.5012 407.7505 250.5942 407.7056C 251.1474 407.7125 251.7924 407.7111 252.4554 407.6672C 253.1217 407.6012 253.8475 407.5897 254.5698 407.6003C 256.0062 407.5297 257.4599 407.7106 258.5592 407.9156C 259.6575 408.1996 260.3843 408.6182 260.4053 409.2097C 263.2574 408.692 260.7473 408.5389 257.1845 407.2266L257.1845 407.2266L258.7291 406.9692L258.7291 406.9692L260.2914 406.8164C 259.046 406.5321 257.9945 406.6739 256.6591 406.3869L256.6591 406.3869L256.7227 406.3402zM148.8446 531.7027C 147.8284 533.5807 147.9548 534.7316 148.2642 536.1599C 147.4857 535.7107 146.6995 535.2377 145.9186 534.7316C 146.9011 533.6514 147.8275 532.6417 148.8446 531.7027L148.8446 531.7027L148.8446 531.7027zM148.338 536.194C 148.3295 536.2492 148.3243 536.2823 148.3157 536.3376L148.3157 536.3376L148.2769 536.1505L148.2769 536.1505L148.3509 536.1847L148.3509 536.1847L148.338 536.194zM355.5665 486.0308C 355.6658 486.0463 355.7653 486.0617 355.8809 486.0458C 357.14 486.7507 356.5641 486.5254 355.5665 486.0308zM275.0187 581.7321C 275.5685 582.2701 276.1099 582.7164 276.6513 583.1626C 276.4255 583.0143 276.3185 582.9751 276.3413 583.0465L276.3413 583.0465L275.017 581.7431L275.017 581.7431L275.0187 581.7321zM277.6004 584.2605L278.4999 585.0226C 278.5335 585.2428 278.3619 585.1822 277.6004 584.2605zM278.0535 584.184C 277.6223 583.9019 277.1444 583.556 276.6513 583.1626C 276.8882 583.3126 277.327 583.6184 278.0535 584.184zM223.3094 561.9663L223.1997 562.0172C 223.5181 561.716 223.4636 561.7754 223.3094 561.9663zM283.2413 585.3759C 283.0896 585.1146 283.0135 584.8766 283.1166 584.7229C 283.0712 584.9421 283.1176 585.153 283.2413 585.3759zM276.3541 583.0372C 277.2889 584.0084 276.4464 583.2438 276.3541 583.0372zM399.5906 597.3494C 400.1332 597.0605 400.9857 596.5257 401.7871 596.0282C 401.4152 596.3098 400.7525 596.7157 399.5906 597.3494zM427.2254 546.3215C 427.2379 546.4592 427.2342 546.6284 427.2467 546.7661C 427.1515 546.7965 427.1696 546.607 427.2254 546.3215zM236.828 563.1989C 237.0968 563.071 237.3611 563.0443 237.6358 562.9512C 238.217 562.9965 238.7923 563.0068 239.388 563.0316C 239.9895 563.0913 240.6294 563.123 241.3314 563.1191C 240.6274 563.281 239.8786 563.3681 239.129 563.3872C 238.3819 563.4633 237.6147 563.3778 236.8187 563.1861L236.8187 563.1861L236.828 563.1989zM230.9187 407.291C 231.767 406.7103 232.2176 406.5768 232.2964 406.7248C 231.4091 407.2655 230.8851 407.5799 230.9187 407.291zM245.3382 563.1769C 243.6896 563.158 242.4403 563.1898 241.3297 563.1301C 242.2893 562.9966 243.1914 562.7976 243.9002 562.7495C 244.6149 562.7363 245.134 562.8171 245.3255 563.1863L245.3255 563.1863L245.3382 563.1769zM286.0478 420.055C 286.2815 420.5891 286.4768 421.1511 286.6866 421.6928C 284.9041 419.9901 285.9366 420.4788 286.0478 420.055zM187.796 485.4449L190.2519 483.9831C 189.7269 484.3766 188.929 484.8519 187.796 485.4449zM185.2585 482.9233L184.7597 483.3661L183.1624 483.1628L185.2585 482.9233zM157.195 570.7282L155.4856 570.0098C 154.9481 569.7564 154.4344 569.4955 154.0056 569.2704C 153.1608 568.8109 152.6771 568.4302 153.0666 568.2532L153.0666 568.2532L154.1502 568.1956C 154.699 568.8127 155.2318 569.3141 155.7198 569.7407C 156.2332 570.1487 156.7272 570.4631 157.1934 570.7393L157.1934 570.7393L157.195 570.7282zM232.974 417.4185L232.5678 417.4118C 232.9583 417.1559 233.1709 417.0984 232.974 417.4185zM239.2304 411.0165L240.3624 410.5026C 239.8452 410.7728 239.5051 410.9235 239.2304 411.0165zM296.1098 600.4551L295.8842 601.178C 295.4822 600.7081 295.1167 600.2214 294.7275 599.7423L294.7275 599.7423L296.108 600.4662L296.108 600.4662L296.1098 600.4551zM301.6583 604.4181L301.8187 605.4951C 301.1531 604.611 300.4824 603.7599 299.8754 602.8624C 300.4473 603.4038 301.0464 603.9156 301.6565 604.4291L301.6565 604.4291L301.6583 604.4181zM328.8454 612.0988C 327.2017 611.6846 325.5683 611.2042 323.9622 610.6941C 324.8425 610.7067 325.7384 610.6199 326.6146 610.5865L326.6146 610.5865L326.4109 610.9507C 329.2383 611.3907 328.5563 611.7031 328.8471 612.0877L328.8471 612.0877L328.8454 612.0988zM342.9774 611.9336C 343.4123 612.0465 343.7721 612.3513 345.1863 612.2773C 346.4096 612.0491 345.1768 611.9025 345.2384 611.6519C 346.0879 611.8633 348.2323 612.1857 345.5572 612.5839L345.5572 612.5839L345.1333 612.4727C 342.7329 612.7779 339.5455 613.5602 339.966 613.6935C 340.7158 613.0183 341.3633 612.5648 342.9791 611.9225L342.9791 611.9225L342.9774 611.9336zM345.4367 611.4678C 345.2556 611.5415 345.2598 611.5874 345.2512 611.6426C 344.8698 611.5493 344.722 611.4811 345.4367 611.4678zM314.7839 610.2841C 314.0523 609.2426 311.3177 607.6971 313.3922 607.6693C 316.908 609.0648 315.6381 609.2292 317.7005 610.2967C 311.9205 608.0398 319.2352 611.3387 314.8622 610.217C 315.9762 610.7637 317.0063 611.1954 317.9984 611.5082C 316.8914 611.2794 315.8245 611.0116 314.8077 610.7855L314.8077 610.7855L314.9658 610.7875L314.9658 610.7875L314.9878 610.7909C 315.2819 610.7914 315.3771 610.761 315.0789 610.7145C 315.0585 610.7001 314.9957 610.6677 314.9643 610.6515C 314.9594 610.5376 314.8899 610.4023 314.7967 610.2747C 313.0273 609.7958 314.454 610.3685 314.9643 610.6515C 314.9684 610.6974 315.0057 610.7484 315.0006 610.7816L315.0006 610.7816L314.9785 610.7781C 313.0364 609.9556 311.1642 608.9742 309.3048 607.9835C 309.9196 608.2488 310.6279 608.4948 311.5068 608.8805C 312.3875 609.2551 313.4293 609.7565 314.8077 610.2764L314.8077 610.2764L314.7839 610.2841zM308.1289 607.3254L309.281 607.9911C 308.5778 607.712 307.9399 607.5222 307.2323 607.3442C 306.512 607.1756 305.7236 607.0077 304.7136 606.7374C 302.9195 605.327 302.6739 604.8702 302.6616 604.5855C 304.5642 605.6621 306.4906 606.7311 308.4777 607.6285L308.4777 607.6285L308.1161 607.3347L308.1161 607.3347L308.1289 607.3254zM300.9461 597.5086C 300.6891 598.2152 303.2018 600.8234 306.2206 601.6326C 308.5255 603.541 305.765 604.7064 302.6857 604.4309C 302.7814 604.1064 302.882 603.8958 300.4739 601.7791C 301.0251 601.944 302.6393 602.6929 303.8572 603.1539C 305.104 603.5742 305.9434 603.7048 304.9558 602.7819C 301.627 600.3295 301.9654 601.208 300.0785 600.394C 301.0446 600.5104 300.1242 599.5187 299.2279 598.3725C 298.3154 597.2576 297.427 595.9882 298.1778 595.743C 298.9956 596.5943 299.8661 597.3972 300.7205 598.2314C 300.8881 598.0992 300.0612 597.0881 300.946 597.5087L300.946 597.5087L300.9461 597.5086zM328.4003 614.4503C 327.7089 614.241 327.1927 613.923 326.6697 613.6494C 327.4809 613.8887 328.2496 614.1101 328.8951 614.3237C 328.7208 614.3531 328.5321 614.403 328.3986 614.4614L328.3986 614.4614L328.4003 614.4503zM328.4003 614.4503L328.605 614.5161C 328.1281 614.6003 328.1953 614.5316 328.4003 614.4503zM312.3585 610.3138L314.7949 610.7948C 314.0395 610.7791 312.5126 610.632 312.3585 610.3138zM323.7802 612.736C 325.1677 612.9066 325.9413 613.2419 326.6714 613.6383C 325.6666 613.3349 324.5945 613.1002 323.4537 612.7983C 323.3733 612.6613 323.3615 612.5916 323.7912 612.7377L323.7912 612.7377L323.7802 612.736zM302.373 604.4048L302.6746 604.4292C 302.6746 604.4292 302.6591 604.5286 302.6523 604.5728L302.6523 604.5728L302.3636 604.3921L302.3636 604.3921L302.373 604.4048zM329.1992 614.405L328.8968 614.3127C 329.0949 614.2756 329.2512 614.2886 329.1992 614.405zM322.3848 613.1975C 321.7472 612.8607 321.0533 612.5944 320.3119 612.3433C 319.5866 612.0608 318.801 611.8027 317.9856 611.5175L317.9856 611.5175L320.7345 612.1715C 321.6537 612.3711 322.5601 612.58 323.441 612.8076C 323.6317 613.1088 324.3164 613.7244 322.3831 613.2086L322.3831 613.2086L322.3848 613.1975zM337.8483 614.1445C 338.3622 614.2584 338.871 614.4055 339.3884 614.4973C 338.9898 614.5145 338.5981 614.4874 338.2029 614.4825L338.2029 614.4825L337.8483 614.1445zM339.3884 614.4973L342.5745 614.4501C 342.5087 614.6548 341.9236 614.9257 342.79 615.1736L342.79 615.1736L339.3867 614.5083L339.3867 614.5083L339.3884 614.4973zM350.5822 614.531C 348.7923 614.1846 345.1718 613.8248 348.6497 613.0651C 349.9211 613.5458 347.9156 614.0029 350.5822 614.531zM337.8522 615.3555L337.5505 615.3312C 337.6747 615.26 337.7444 615.2482 337.8522 615.3555zM336.4009 615.2314L336.3533 615.2467C 335.0625 615.1816 334.1644 615.0645 333.7855 615.0281C 334.1202 615.0576 334.9079 615.1575 336.4026 615.2205L336.4026 615.2205L336.4009 615.2314zM337.5505 615.3312C 337.3021 615.4735 336.8213 615.8738 335.0944 615.9218L335.0944 615.9218L336.3643 615.2484L336.3643 615.2484L337.5616 615.3329L337.5616 615.3329L337.5505 615.3312zM316.763 612.3228C 317.5519 612.7057 318.3601 613.1821 319.2404 613.7037C 318.3853 613.3105 317.5482 612.8748 316.763 612.3228zM325.1599 614.9189C 326.339 615.702 323.2155 615.4196 324.5028 616.0158C 323.4453 615.7607 322.5111 615.3665 321.6357 614.9588C 320.7729 614.5417 319.9731 614.1571 319.2422 613.6927C 320.0531 614.079 320.9229 614.3049 321.8956 614.5242C 322.8683 614.7433 323.932 614.8862 325.1617 614.9079L325.1617 614.9079L325.1599 614.9189zM332.8824 616.3242L334.562 617.1625L331.5779 615.8384L332.8935 616.3259L332.8824 616.3242zM358.2985 613.1412C 359.9537 613.263 361.6107 613.3738 363.2704 613.3944C 361.3098 613.4174 359.3222 613.3231 357.3661 613.2449L357.3661 613.2449L358.2985 613.1411L358.2985 613.1411L358.2985 613.1412zM345.7367 615.9376L342.7104 615.4667C 345.4113 615.4119 345.908 615.6362 345.7367 615.9376zM344.6071 617.0175C 344.4351 616.7418 345.5347 616.2908 345.7367 615.9376C 346.4104 616.0424 347.0876 616.1251 347.7647 616.2079C 346.7309 616.4543 344.7404 616.597 344.5978 617.0047L344.5978 617.0047L344.6071 617.0175zM377.2195 607.8615C 377.8192 607.5701 378.4281 607.2916 379.0295 606.9893L379.0295 606.9893L380.7837 606.9115C 379.915 606.9686 377.2095 608.2897 377.2178 607.8724L377.2178 607.8724L377.2195 607.8615zM365.0184 613.938C 366.4641 613.3711 368.338 612.8143 365.6082 612.9098C 368.149 612.502 369.2759 612.5303 369.1352 612.7799C 369.0022 613.0533 367.5737 613.5098 365.0201 613.9269L365.0201 613.9269L365.0184 613.938zM363.3825 614.4187C 362.3813 614.4552 361.3895 614.5045 360.3732 614.4934C 360.7305 614.2323 360.7151 613.8226 361.7508 614.4363C 361.4531 614.0958 362.09 614.3646 363.3825 614.4186L363.3825 614.4186L363.3825 614.4187zM358.9471 614.4977L360.3732 614.4934C 360.1451 614.6502 359.7804 614.7405 358.9471 614.4977zM361.6401 615.0751L364.4037 615.0527C 363.8915 615.4368 361.4967 615.9239 362.4272 615.9781C 359.6028 616.1721 360.1406 615.7694 361.6511 615.0768L361.6511 615.0768L361.6401 615.0751zM371.0452 613.5183C 373.0677 613.0977 369.816 614.2207 371.0452 613.5183zM369.106 613.9857C 369.6339 613.3552 366.8189 614.071 371.4416 613.2972C 371.2222 613.3987 371.1694 613.4471 371.0342 613.5166C 370.6252 613.6 370.0497 613.7367 369.0949 613.984L369.0949 613.984L369.106 613.9857zM378.4799 608.8494C 379.8841 607.1675 385.1871 607.1102 388.2611 605.5298L388.2611 605.5298L388.7029 605.0895L388.7029 605.0895L390.4512 605.486C 386.5177 606.7743 381.1876 607.7323 378.4799 608.8494zM396.5407 602.7005L396.9646 602.8117C 395.9649 602.9842 394.9576 603.1329 393.9503 603.2816L393.9503 603.2816L396.5424 602.6895L396.5424 602.6895L396.5407 602.7005zM416.6594 595.8312C 416.4647 595.8461 416.68 595.1896 415.5929 595.7783C 415.5914 595.6423 414.7621 596.6106 416.6594 595.8312z" stroke="none" fill="#FF914D" fill-rule="nonzero" /></g></g></g></g><g clip-path="url(#11)"><g clip-path="url(#12)"><g clip-path="url(#13)"><g clip-path="url(#14)"><g clip-path="url(#15)"><g clip-path="url(#16)"><g clip-path="url(#17)"><path id="5" transform="matrix(1 0 0 -1 0 842)" d="M408.9836 396.2431C 408.9836 369.4594 387.3719 347.8477 360.5882 347.8477L360.5882 347.8477L181.4143 347.8477C 154.6305 347.663 133.0188 369.4594 133.0188 396.2431C 133.0188 423.0269 154.6305 444.6385 181.4143 444.6385L181.4143 444.6385L360.4035 444.6385C 387.3719 444.6385 408.9836 423.0269 408.9836 396.2431z" stroke="none" fill="#FF914D" fill-rule="nonzero" /></g></g></g></g></g></g></g><g clip-path="url(#18)"><g clip-path="url(#19)"><g clip-path="url(#20)"><g clip-path="url(#21)"><g clip-path="url(#22)"><g clip-path="url(#23)"><g clip-path="url(#24)"><path id="6" transform="matrix(1 0 0 -1 0 842)" d="M133.0188 396.1508C 133.0188 383.1142 138.1978 370.6116 147.4163 361.3934C 156.6349 352.1752 169.138 346.9965 182.175 346.9965L182.175 346.9965L359.8274 346.9965C 372.8644 346.9965 385.3676 352.1752 394.5861 361.3934C 403.8047 370.6116 408.9836 383.1142 408.9836 396.1508C 408.9836 409.1873 403.8047 421.6899 394.5861 430.9081C 385.3676 440.1263 372.8644 445.3051 359.8274 445.3051L359.8274 445.3051L182.175 445.3051C 169.138 445.3051 156.6349 440.1263 147.4163 430.9081C 138.1978 421.6899 133.0188 409.1873 133.0188 396.1508z" stroke="#000000" stroke-width="3" fill="none" /></g></g></g></g></g></g></g><g clip-path="url(#25)"><g transform="matrix(0.80625 0 0 0.8073247 368.3071 47.79041)"><g transform="matrix(1 0 0 1 0 0)"><image x="0" y="0" xlink:href="img_02.png" width="240" height="157" /></g></g></g><g clip-path="url(#26)"><path id="8" transform="matrix(1 0 0 -1 0 842)" d="M324.6614 811.2481L603.5456 811.2481L603.5456 777.1697L324.6614 777.1697z" stroke="none" fill="#000000" fill-rule="nonzero" /></g><g clip-path="url(#27)"><g clip-path="url(#28)"><g clip-path="url(#29)"><g clip-path="url(#30)"><path id="9" transform="matrix(1 0 0 -1 0 842)" d="M324.6614 811.2481L603.5456 811.2481L603.5456 777.1697L324.6614 777.1697z" stroke="none" fill="#000000" fill-rule="nonzero" /></g></g></g></g><g clip-path="url(#31)"><g clip-path="url(#32)"><g clip-path="url(#33)"><g clip-path="url(#34)"><path id="10" transform="matrix(1 0 0 -1 0 842)" d="M324.6614 811.2481L603.5456 811.2481L603.5456 777.1697L324.6614 777.1697z" stroke="none" fill="#000000" fill-rule="nonzero" /></g></g></g></g><g clip-path="url(#35)"></g><g clip-path="url(#36)"><g clip-path="url(#37)"><g clip-path="url(#38)"><g clip-path="url(#39)"><g clip-path="url(#40)"><g clip-path="url(#41)"><g clip-path="url(#42)"><g clip-path="url(#43)"><path id="21" transform="matrix(1 0 0 -1 0 842)" d="M59.37529 811.022C 50.81754 811.022 43.85805 804.0626 43.85805 795.5048C 43.85805 786.9471 50.81754 779.9875 59.37529 779.9875C 67.93305 779.9875 74.89253 786.9471 74.89253 795.5048C 74.89253 804.0626 67.93305 811.022 59.37529 811.022zM59.37529 779.7548C 50.6934 779.7548 43.62529 786.8229 43.62529 795.5048C 43.62529 804.1867 50.6934 811.2548 59.37529 811.2548C 68.05719 811.2548 75.12529 804.1867 75.12529 795.5048C 75.12529 786.8229 68.05719 779.7548 59.37529 779.7548z" stroke="none" fill="#000000" fill-rule="nonzero" /></g></g></g></g></g></g></g></g><g clip-path="url(#44)"><g clip-path="url(#45)"><g clip-path="url(#46)"><g clip-path="url(#47)"><g clip-path="url(#48)"><g clip-path="url(#49)"><g clip-path="url(#50)"><path id="22" transform="matrix(1 0 0 -1 0 842)" d="M43.63329 795.3588L43.63329 795.3562C 43.63329 791.1421 45.30748 787.1006 48.28754 784.1207C 51.26762 781.1409 55.30946 779.4669 59.52391 779.4669C 63.73837 779.4669 67.78021 781.1409 70.76028 784.1207C 73.74035 787.1006 75.41454 791.1421 75.41454 795.3562L75.41454 795.3562L75.41454 795.3588C 75.41454 799.5729 73.74035 803.6144 70.76028 806.5942C 67.78021 809.574 63.73837 811.2481 59.52391 811.2481C 55.30946 811.2481 51.26762 809.574 48.28754 806.5942C 45.30748 803.6144 43.63329 799.5729 43.63329 795.3588z" stroke="#000000" stroke-width="1.5" fill="none" /></g></g></g></g></g></g></g><g clip-path="url(#51)"></g><g clip-path="url(#52)"><g clip-path="url(#53)"><g clip-path="url(#54)"><g clip-path="url(#55)"><g clip-path="url(#56)"><path id="24" transform="matrix(1 0 0 -1 0 842)" d="M386.8254 366.2013C 386.2437 366.8751 386.3163 367.8928 386.9886 368.4739L386.9886 368.4739L392.8408 373.5421C 393.513 374.1233 394.5297 374.049 395.1113 373.3751C 395.693 372.7012 395.6204 371.6836 394.9482 371.1024L394.9482 371.1024L389.0959 366.0342C 388.4255 365.4498 387.4071 365.5274 386.8254 366.2013zM378.345 370.4223C 377.4564 370.4779 376.7806 371.2396 376.8347 372.1291L376.8347 372.1291L377.3026 379.8671C 377.3567 380.7565 378.1165 381.4318 379.0051 381.3763C 379.8937 381.3207 380.5695 380.559 380.5155 379.6695L380.5155 379.6695L380.0508 371.9333C 379.9967 371.0438 379.2337 370.3668 378.345 370.4223zM367.9519 349.2508C 368.5335 348.5769 368.4609 347.5593 367.7887 346.9781L367.7887 346.9781L361.9365 341.9099C 361.2643 341.3287 360.2476 341.4031 359.666 342.0769C 359.0843 342.7508 359.1569 343.7684 359.8291 344.3496L359.8291 344.3496L365.6813 349.4178C 366.3535 349.999 367.3702 349.9246 367.9519 349.2508zM364.5977 358.5829C 364.5436 357.6934 363.7838 357.0182 362.8952 357.0737L362.8952 357.0737L355.1613 357.553C 354.2727 357.6086 353.5969 358.3703 353.6509 359.2598C 353.705 360.1493 354.4648 360.8245 355.3534 360.769L355.3534 360.769L363.0823 360.2911C 363.9742 360.2373 364.6485 359.4706 364.5977 358.5829zM369.0703 367.2882C 368.3981 366.7071 367.3814 366.7814 366.7998 367.4553L366.7998 367.4553L361.7306 373.3237C 361.149 373.9976 361.2216 375.0152 361.8938 375.5964C 362.5659 376.1776 363.5826 376.1032 364.1643 375.4294L364.1643 375.4294L369.2367 369.5627C 369.8151 368.8871 369.7425 367.8694 369.0703 367.2882zM434.6253 325.9793C 435.6292 322.1205 434.5245 317.6909 431.8754 314.7217C 430.3521 313.015 428.3772 311.7663 426.369 310.7103C 424.2407 309.5889 422.033 308.6055 419.8565 307.5801C 418.7521 307.0586 417.6459 306.5403 416.5394 306.0304C 415.4931 305.5489 414.4636 305.0134 413.4046 304.563C 412.5606 304.2045 411.6912 304.0007 410.7751 304.1762C 409.7891 304.3642 408.8231 304.7318 407.8601 305.0166C 403.1753 306.4022 398.4906 307.7879 393.8058 309.1735C 389.6377 310.4063 385.4696 311.6392 381.3015 312.872C 380.7497 313.0352 380.2133 313.1857 379.7129 313.4864C 379.0484 313.8875 378.5116 314.4636 378.1462 315.1498C 377.369 316.6152 377.4986 318.5787 378.6586 319.8092C 379.3532 320.5501 380.2839 321.0276 381.2937 321.1435C 381.8159 321.2045 382.367 321.1505 382.8918 321.1371C 383.425 321.124 383.9581 321.1109 384.493 321.0945C 386.6222 321.0402 388.7481 320.9841 390.8773 320.9298C 391.0478 320.9257 391.2184 320.9216 391.3889 320.9175C 392.0893 320.8986 392.5629 321.6667 392.2264 322.2844C 391.7961 323.0744 391.3657 323.8644 390.9353 324.6544C 389.855 326.6376 388.7729 328.6241 387.6927 330.6072C 386.2758 333.2081 384.8573 335.8123 383.4405 338.4131C 382.0007 341.0563 380.5609 343.6995 379.1228 346.3394C 377.9805 348.4363 376.8383 350.5333 375.696 352.6302C 375.1523 353.6284 374.6053 354.6247 374.0649 355.6245C 373.4214 356.8212 373.3275 358.2372 373.8948 359.4821C 374.7891 361.4322 377.0567 362.406 379.0919 361.744C 380.2987 361.3517 381.0931 360.4649 381.6811 359.3855C 382.092 358.6313 382.5028 357.877 382.9137 357.1227C 384.304 354.5706 385.6942 352.0185 387.0826 349.4696C 388.1328 347.5417 389.183 345.6138 390.2332 343.6859C 390.2881 343.5851 390.3448 343.4811 390.3997 343.3803C 390.97 342.3334 392.5794 343.2101 392.0221 344.2641C 390.7425 346.6825 392.0342 349.7723 394.7285 350.4263C 396.2077 350.7852 397.7876 350.3179 398.8314 349.2128C 399.4057 348.6066 399.7641 347.7942 400.159 347.0692C 400.561 346.3312 400.9612 345.5964 401.3633 344.8584C 401.9335 343.8116 403.5429 344.6883 402.9857 345.7422C 401.7043 348.1639 403.0031 351.2407 405.6971 351.903C 407.1712 352.2634 408.758 351.7913 409.8 350.6895C 410.3622 350.0977 410.7064 349.3114 411.0925 348.6026C 411.498 347.8581 411.9036 347.1136 412.3091 346.3691C 412.8794 345.3223 414.4888 346.1989 413.9315 347.2529C 412.9466 349.1151 413.4342 351.5182 415.183 352.7491C 417.2611 354.2099 420.1446 353.5125 421.3848 351.313C 423.7048 347.054 426.0231 342.7983 428.3431 338.5393C 429.5314 336.3578 430.7215 334.1731 431.9099 331.9916C 432.9668 330.059 434.0704 328.118 434.6253 325.9793zM432.1683 335.387C 429.7208 339.8801 427.275 344.3698 424.8275 348.8629C 424.2236 349.9715 423.6179 351.0834 423.014 352.192C 421.6749 354.5654 418.899 355.861 416.2244 355.2093C 414.1158 354.693 412.4602 353.0745 411.8403 351.0378C 411.5546 351.485 411.2267 351.9093 410.8233 352.2714C 409.3263 353.606 407.2398 354.1768 405.2818 353.7004C 403.5699 353.2822 402.0411 352.0953 401.273 350.5006C 401.1205 350.1857 400.9982 349.8619 400.9009 349.5307C 400.6082 349.9909 400.275 350.4249 399.8612 350.7982C 398.3796 352.1201 396.3361 352.6891 394.3902 352.2446C 392.6479 351.8436 391.0899 350.6407 390.3109 349.0275C 390.1646 348.7244 390.0452 348.4106 389.9492 348.0927C 389.8429 348.2878 389.7384 348.4796 389.6321 348.6746C 388.1782 351.3438 386.7242 354.0129 385.2719 356.6789C 384.7336 357.6672 384.197 358.6523 383.6586 359.6406C 383.3062 360.2876 382.9771 360.9304 382.5243 361.5143C 380.8657 363.6631 377.8675 364.3317 375.4043 363.323C 373.2639 362.4479 371.812 360.3164 371.6896 358.0153C 371.5951 356.2269 372.415 354.8143 373.2261 353.3253C 374.2126 351.5145 375.2008 349.7003 376.1872 347.8895C 377.5987 345.2983 379.0102 342.7072 380.4199 340.1193C 381.9128 337.3786 383.4058 334.6379 384.9005 331.894C 386.1331 329.6312 387.364 327.3717 388.5966 325.1089C 389.0128 324.3449 389.4195 323.5674 389.8357 322.8033C 388.478 322.8394 387.117 322.8738 385.7611 322.9067C 385.0276 322.9245 384.2924 322.9456 383.5558 322.9617C 382.3521 322.9932 381.1206 323.1065 379.9598 322.7271C 377.6889 321.9833 376.1048 320.0791 375.8547 317.6958C 375.6542 315.816 376.4372 313.8226 377.8616 312.5749C 378.9632 311.6109 380.2581 311.2497 381.6224 310.8462C 383.9798 310.1489 386.3423 309.4501 388.6997 308.7529C 393.6352 307.293 398.5657 305.8347 403.5013 304.3749C 404.7302 304.0114 405.954 303.6494 407.1829 303.2859C 408.2061 302.9833 409.227 302.6077 410.2735 302.3936C 411.3566 302.1742 412.3983 302.2315 413.4423 302.5937C 414.5957 302.9943 415.6712 303.5844 416.7795 304.0912C 419.1099 305.1582 421.4276 306.2563 423.7435 307.3577C 425.9733 308.4164 428.2224 309.4476 430.2488 310.8719C 432.1962 312.2404 433.8806 313.8831 435.0292 315.9843C 436.0613 317.8745 436.6655 319.9785 436.8166 322.1266C 436.9818 324.4805 436.4876 326.7239 435.5713 328.885C 434.6022 331.1353 433.3318 333.251 432.1683 335.387z" stroke="none" fill="#000000" fill-rule="nonzero" /></g></g></g></g></g><g clip-path="url(#57)"></g><g clip-path="url(#58)"><g transform="matrix(0.24069 0 0 0.24 174.555 568.8855)"><g transform="matrix(1 0 0 1 0 0)"><image x="0" y="0" xlink:href="img_03.png" width="913" height="1075" /></g></g></g><g clip-path="url(#59)"></g></g></g></svg>