<svg xmlns="http://www.w3.org/2000/svg" xmlns:xlink="http://www.w3.org/1999/xlink" id="body_1" preserveAspectRatio="xMinYMin meet" viewBox="0 0 793 1123"><defs><clipPath id="1"><path id="" clip-rule="evenodd" transform="matrix(1 0 0 1 0 0)" d="M0 842L0 -0.250061L0 -0.250061L595.5 -0.250061L595.5 -0.250061L595.5 842L595.5 842L0 842z" /></clipPath><clipPath id="2"><path id="" clip-rule="evenodd" transform="matrix(1 0 0 1 0 0)" d="M0 -0.25L595.5 -0.25L595.5 -0.25L595.5 842.0012L595.5 842.0012L0 842.0012z" /></clipPath><clipPath id="3"><path id="" clip-rule="evenodd" transform="matrix(1 0 0 1 0 0)" d="M0 -0.25L595.5 -0.25L595.5 -0.25L595.5 842.0012L595.5 842.0012L0 842.0012z" /></clipPath><clipPath id="4"><path id="" clip-rule="evenodd" transform="matrix(1 0 0 1 0 0)" d="M0 -0.25L595.5 -0.25L595.5 -0.25L595.5 842.0012L595.5 842.0012L0 842.0012z" /></clipPath><clipPath id="5"><path id="" clip-rule="evenodd" transform="matrix(1 0 0 1 0 0)" d="M78.71999 30.71002L522.24 30.71002L522.24 30.71002L522.24 810.95L522.24 810.95L78.71999 810.95z" /></clipPath><clipPath id="6"><path id="" clip-rule="evenodd" transform="matrix(1 0 0 1 0 0)" d="M79.51786 30.75177L522.0178 30.75177L522.0178 30.75177L522.0178 810.7518L522.0178 810.7518L79.51786 810.7518z" /></clipPath><clipPath id="7"><path id="" clip-rule="evenodd" transform="matrix(1 0 0 1 0 0)" d="M59.286 -0.25L251.286 -0.25L251.286 -0.25L251.286 153.5302L251.286 153.5302L59.286 153.5302z" /></clipPath><clipPath id="8"><path id="" clip-rule="evenodd" transform="matrix(1 0 0 1 0 0)" d="M0 -0.25L595.5 -0.25L595.5 -0.25L595.5 842.0012L595.5 842.0012L0 842.0012z" /></clipPath><clipPath id="9"><path id="" clip-rule="evenodd" transform="matrix(1 0 0 1 0 0)" d="M0 -0.25L595.5 -0.25L595.5 -0.25L595.5 842.0012L595.5 842.0012L0 842.0012z" /></clipPath><clipPath id="10"><path id="" clip-rule="evenodd" transform="matrix(1 0 0 1 0 0)" d="M322.3224 106.3681L570.0359 106.3681L570.0359 106.3681L570.0359 352.1617L570.0359 352.1617L322.3224 352.1617z" /></clipPath><clipPath id="11"><path id="" clip-rule="evenodd" transform="matrix(1 0 0 1 0 0)" d="M350.0712 106.3681L542.1048 106.3681C 549.4656 106.3681 556.524 109.2917 561.7272 114.4959C 566.9304 119.7001 569.856 126.7582 569.856 134.118L569.856 134.118L569.856 324.41C 569.856 331.7708 566.9304 338.8292 561.7272 344.0324C 556.524 349.238 549.4656 352.1612 542.1048 352.1612L542.1048 352.1612L350.0712 352.1612C 342.7104 352.1612 335.652 349.238 330.4488 344.0324C 325.2456 338.8292 322.3224 331.7708 322.3224 324.41L322.3224 324.41L322.3224 134.118C 322.3224 126.7582 325.2456 119.7001 330.4488 114.4959C 335.652 109.2917 342.7104 106.3681 350.0712 106.3681z" /></clipPath><clipPath id="12"><path id="" clip-rule="evenodd" transform="matrix(1 0 0 1 0 0)" d="M327.0336 319.7732L564.7836 319.7732L564.7836 319.7732L564.7836 325.0232L564.7836 325.0232L327.0336 325.0232z" /></clipPath><clipPath id="13"><path id="" clip-rule="evenodd" transform="matrix(1 0 0 1 0 0)" d="M326.88 319.67L564.96 319.67L564.96 319.67L564.96 325.1901L564.96 325.1901L326.88 325.1901z" /></clipPath><mask id="m1"><clipPath id="14"><path id="" clip-rule="evenodd" transform="matrix(1 0 0 1 0 0)" d="M326.88 319.67L564.96 319.67L564.96 319.67L564.96 325.1901L564.96 325.1901L326.88 325.1901z" /></clipPath><g><g><g clip-path="url(#14)"><path id="16" transform="matrix(1 0 0 -1 0 842)" d="M326.88 522.33L564.96 522.33L564.96 516.8099L326.88 516.8099z" stroke="none" fill="#000000" fill-rule="nonzero" /></g></g></g></mask><clipPath id="15"><path id="" clip-rule="evenodd" transform="matrix(1 0 0 1 0 0)" d="M326.88 319.67L564.96 319.67L564.96 319.67L564.96 325.1901L564.96 325.1901L326.88 325.1901z" /></clipPath><clipPath id="16"><path id="" clip-rule="evenodd" transform="matrix(1 0 0 1 0 0)" d="M326.64 319.8557L565.2 319.8557L565.2 319.8557L565.2 325.1169L565.2 325.1169L326.64 325.1169z" /></clipPath><mask id="m2"><clipPath id="17"><path id="" clip-rule="evenodd" transform="matrix(1 0 0 1 0 0)" d="M326.88 319.67L564.96 319.67L564.96 319.67L564.96 325.1901L564.96 325.1901L326.88 325.1901z" /></clipPath><clipPath id="18"><path id="" clip-rule="evenodd" transform="matrix(1 0 0 1 0 0)" d="M326.88 319.67L564.96 319.67L564.96 319.67L564.96 325.1901L564.96 325.1901L326.88 325.1901z" /></clipPath><clipPath id="19"><path id="" clip-rule="evenodd" transform="matrix(1 0 0 1 0 0)" d="M327.0555 319.8557L564.7709 319.8557L564.7709 319.8557L564.7709 324.9064L564.7709 324.9064L327.0555 324.9064z" /></clipPath><g><g><g clip-path="url(#17)"><g><g clip-path="url(#18)"><g clip-path="url(#19)"><g transform="matrix(0.24 0 0 0.24 326.88 319.67)"><g transform="matrix(1 0 0 1 0 0)"><image x="0" y="0" xlink:href="img_02.png" width="992" height="22" /></g></g></g></g></g></g></g></g></mask><clipPath id="20"><path id="" clip-rule="evenodd" transform="matrix(1 0 0 1 0 0)" d="M326.88 319.67L564.96 319.67L564.96 319.67L564.96 325.1901L564.96 325.1901L326.88 325.1901z" /></clipPath><clipPath id="21"><path id="" clip-rule="evenodd" transform="matrix(1 0 0 1 0 0)" d="M326.64 319.8557L565.2 319.8557L565.2 319.8557L565.2 325.1169L565.2 325.1169L326.64 325.1169z" /></clipPath><clipPath id="22"><path id="" clip-rule="evenodd" transform="matrix(1 0 0 1 0 0)" d="M0 -0.25L595.5 -0.25L595.5 -0.25L595.5 842.0012L595.5 842.0012L0 842.0012z" /></clipPath><clipPath id="23"><path id="" clip-rule="evenodd" transform="matrix(1 0 0 1 0 0)" d="M0 -0.25L595.5 -0.25L595.5 -0.25L595.5 842.0012L595.5 842.0012L0 842.0012z" /></clipPath><clipPath id="24"><path id="" clip-rule="evenodd" transform="matrix(1 0 0 1 0 0)" d="M337.2648 182.1143L553.8694 182.1143L553.8694 182.1143L553.8694 312.2804L553.8694 312.2804L337.2648 312.2804z" /></clipPath><clipPath id="25"><path id="" clip-rule="evenodd" transform="matrix(1 0 0 1 0 0)" d="M350.016 182.1143L540.7944 182.1143C 544.176 182.1143 547.4184 183.4578 549.8088 185.8486C 552.2016 188.2397 553.5432 191.4829 553.5432 194.8643L553.5432 194.8643L553.5432 299.5316C 553.5432 302.9132 552.2016 306.1556 549.8088 308.546C 547.4184 310.9364 544.176 312.2804 540.7944 312.2804L540.7944 312.2804L350.016 312.2804C 346.6344 312.2804 343.3896 310.9364 340.9992 308.546C 338.6088 306.1556 337.2648 302.9132 337.2648 299.5316L337.2648 299.5316L337.2648 194.8643C 337.2648 191.4829 338.6088 188.2397 340.9992 185.8486C 343.3896 183.4578 346.6344 182.1143 350.016 182.1143z" /></clipPath><clipPath id="26"><path id="" clip-rule="evenodd" transform="matrix(1 0 0 1 0 0)" d="M337.2648 182.1143L553.361 182.1143L553.361 182.1143L553.361 312.2804L553.361 312.2804L337.2648 312.2804z" /></clipPath><clipPath id="27"><path id="" clip-rule="evenodd" transform="matrix(1 0 0 1 0 0)" d="M0 -0.25L595.5 -0.25L595.5 -0.25L595.5 842.0012L595.5 842.0012L0 842.0012z" /></clipPath><clipPath id="28"><path id="" clip-rule="evenodd" transform="matrix(1 0 0 1 0 0)" d="M0 -0.25L595.5 -0.25L595.5 -0.25L595.5 842.0012L595.5 842.0012L0 842.0012z" /></clipPath><clipPath id="29"><path id="" clip-rule="evenodd" transform="matrix(1 0 0 1 0 0)" d="M0 -0.25L595.5 -0.25L595.5 -0.25L595.5 842.0012L595.5 842.0012L0 842.0012z" /></clipPath><clipPath id="30"><path id="" clip-rule="evenodd" transform="matrix(1 0 0 1 0 0)" d="M318.756 384.614L566.2896 384.614L566.2896 384.614L566.2896 744.3115L566.2896 744.3115L318.756 744.3115z" /></clipPath><clipPath id="31"><path id="" clip-rule="evenodd" transform="matrix(1 0 0 1 0 0)" d="M346.5048 384.614L538.5408 384.614C 545.8992 384.614 552.9576 387.5372 558.1631 392.7404C 563.3664 397.946 566.2896 405.002 566.2896 412.3628L566.2896 412.3628L566.2896 715.8596C 566.2896 723.218 563.3664 730.2764 558.1631 735.482C 552.9576 740.6852 545.8992 743.6083 538.5408 743.6083L538.5408 743.6083L346.5048 743.6083C 339.1464 743.6083 332.088 740.6852 326.8848 735.482C 321.6792 730.2764 318.756 723.218 318.756 715.8596L318.756 715.8596L318.756 412.3628C 318.756 405.002 321.6792 397.946 326.8848 392.7404C 332.088 387.5372 339.1464 384.614 346.5048 384.614z" /></clipPath><clipPath id="32"><path id="" clip-rule="evenodd" transform="matrix(1 0 0 1 0 0)" d="M322.3224 703.1348L560.0724 703.1348L560.0724 703.1348L560.0724 708.3848L560.0724 708.3848L322.3224 708.3848z" /></clipPath><clipPath id="33"><path id="" clip-rule="evenodd" transform="matrix(1 0 0 1 0 0)" d="M322.32 703.19L560.16 703.19L560.16 703.19L560.16 708.47L560.16 708.47L322.32 708.47z" /></clipPath><mask id="m3"><clipPath id="34"><path id="" clip-rule="evenodd" transform="matrix(1 0 0 1 0 0)" d="M322.32 703.19L560.16 703.19L560.16 703.19L560.16 708.47L560.16 708.47L322.32 708.47z" /></clipPath><g><g><g clip-path="url(#34)"><path id="90" transform="matrix(1 0 0 -1 0 842)" d="M322.32 138.81L560.16 138.81L560.16 133.53L322.32 133.53z" stroke="none" fill="#000000" fill-rule="nonzero" /></g></g></g></mask><clipPath id="35"><path id="" clip-rule="evenodd" transform="matrix(1 0 0 1 0 0)" d="M322.32 703.19L560.16 703.19L560.16 703.19L560.16 708.47L560.16 708.47L322.32 708.47z" /></clipPath><clipPath id="36"><path id="" clip-rule="evenodd" transform="matrix(1 0 0 1 0 0)" d="M322.08 703.2167L560.4 703.2167L560.4 703.2167L560.4 708.4779L560.4 708.4779L322.08 708.4779z" /></clipPath><mask id="m4"><clipPath id="37"><path id="" clip-rule="evenodd" transform="matrix(1 0 0 1 0 0)" d="M322.32 703.19L560.16 703.19L560.16 703.19L560.16 708.47L560.16 708.47L322.32 708.47z" /></clipPath><clipPath id="38"><path id="" clip-rule="evenodd" transform="matrix(1 0 0 1 0 0)" d="M322.32 703.19L560.16 703.19L560.16 703.19L560.16 708.47L560.16 708.47L322.32 708.47z" /></clipPath><clipPath id="39"><path id="" clip-rule="evenodd" transform="matrix(1 0 0 1 0 0)" d="M322.3437 703.2167L560.059 703.2167L560.059 703.2167L560.059 708.2675L560.059 708.2675L322.3437 708.2675z" /></clipPath><g><g><g clip-path="url(#37)"><g><g clip-path="url(#38)"><g clip-path="url(#39)"><g transform="matrix(0.24 0 0 0.24 322.32 703.19)"><g transform="matrix(1 0 0 1 0 0)"><image x="0" y="0" xlink:href="img_04.png" width="991" height="22" /></g></g></g></g></g></g></g></g></mask><clipPath id="40"><path id="" clip-rule="evenodd" transform="matrix(1 0 0 1 0 0)" d="M322.32 703.19L560.16 703.19L560.16 703.19L560.16 708.47L560.16 708.47L322.32 708.47z" /></clipPath><clipPath id="41"><path id="" clip-rule="evenodd" transform="matrix(1 0 0 1 0 0)" d="M322.08 703.2167L560.4 703.2167L560.4 703.2167L560.4 708.4779L560.4 708.4779L322.08 708.4779z" /></clipPath><clipPath id="42"><path id="" clip-rule="evenodd" transform="matrix(1 0 0 1 0 0)" d="M0 -0.25L595.5 -0.25L595.5 -0.25L595.5 842.0012L595.5 842.0012L0 842.0012z" /></clipPath><clipPath id="43"><path id="" clip-rule="evenodd" transform="matrix(1 0 0 1 0 0)" d="M0 -0.25L595.5 -0.25L595.5 -0.25L595.5 842.0012L595.5 842.0012L0 842.0012z" /></clipPath><clipPath id="44"><path id="" clip-rule="evenodd" transform="matrix(1 0 0 1 0 0)" d="M44.8524 230.9951L292.386 230.9951L292.386 230.9951L292.386 496.9006L292.386 496.9006L44.8524 496.9006z" /></clipPath><clipPath id="45"><path id="" clip-rule="evenodd" transform="matrix(1 0 0 1 0 0)" d="M72.6024 230.9951L264.636 230.9951C 271.9968 230.9951 279.0552 233.9187 284.2584 239.1229C 289.4616 244.3268 292.3872 251.3852 292.3872 258.746L292.3872 258.746L292.3872 469.0844C 292.3872 476.4428 289.4616 483.5012 284.2584 488.7044C 279.0552 493.91 271.9968 496.8332 264.636 496.8332L264.636 496.8332L72.6024 496.8332C 65.24255 496.8332 58.1844 493.91 52.98024 488.7044C 47.77608 483.5012 44.8524 476.4428 44.8524 469.0844L44.8524 469.0844L44.8524 258.746C 44.8524 251.3852 47.77608 244.3268 52.98024 239.1229C 58.1844 233.9187 65.24255 230.9951 72.6024 230.9951z" /></clipPath><clipPath id="46"><path id="" clip-rule="evenodd" transform="matrix(1 0 0 1 0 0)" d="M45.99888 458.522L283.7489 458.522L283.7489 458.522L283.7489 463.772L283.7489 463.772L45.99888 463.772z" /></clipPath><clipPath id="47"><path id="" clip-rule="evenodd" transform="matrix(1 0 0 1 0 0)" d="M45.84 458.39L283.92 458.39L283.92 458.39L283.92 463.91L283.92 463.91L45.84 463.91z" /></clipPath><mask id="m5"><clipPath id="48"><path id="" clip-rule="evenodd" transform="matrix(1 0 0 1 0 0)" d="M45.84 458.39L283.92 458.39L283.92 458.39L283.92 463.91L283.92 463.91L45.84 463.91z" /></clipPath><g><g><g clip-path="url(#48)"><path id="95" transform="matrix(1 0 0 -1 0 842)" d="M45.84 383.61L283.92 383.61L283.92 378.09L45.84 378.09z" stroke="none" fill="#000000" fill-rule="nonzero" /></g></g></g></mask><clipPath id="49"><path id="" clip-rule="evenodd" transform="matrix(1 0 0 1 0 0)" d="M45.84 458.39L283.92 458.39L283.92 458.39L283.92 463.91L283.92 463.91L45.84 463.91z" /></clipPath><clipPath id="50"><path id="" clip-rule="evenodd" transform="matrix(1 0 0 1 0 0)" d="M45.59999 458.6035L284.16 458.6035L284.16 458.6035L284.16 463.8647L284.16 463.8647L45.59999 463.8647z" /></clipPath><mask id="m6"><clipPath id="51"><path id="" clip-rule="evenodd" transform="matrix(1 0 0 1 0 0)" d="M45.84 458.39L283.92 458.39L283.92 458.39L283.92 463.91L283.92 463.91L45.84 463.91z" /></clipPath><clipPath id="52"><path id="" clip-rule="evenodd" transform="matrix(1 0 0 1 0 0)" d="M45.84 458.39L283.92 458.39L283.92 458.39L283.92 463.91L283.92 463.91L45.84 463.91z" /></clipPath><clipPath id="53"><path id="" clip-rule="evenodd" transform="matrix(1 0 0 1 0 0)" d="M46.02146 458.6035L283.7368 458.6035L283.7368 458.6035L283.7368 463.6543L283.7368 463.6543L46.02146 463.6543z" /></clipPath><g><g><g clip-path="url(#51)"><g><g clip-path="url(#52)"><g clip-path="url(#53)"><g transform="matrix(0.24 0 0 0.24 45.84 458.39)"><g transform="matrix(1 0 0 1 0 0)"><image x="0" y="0" xlink:href="img_05.png" width="992" height="22" /></g></g></g></g></g></g></g></g></mask><clipPath id="54"><path id="" clip-rule="evenodd" transform="matrix(1 0 0 1 0 0)" d="M45.84 458.39L283.92 458.39L283.92 458.39L283.92 463.91L283.92 463.91L45.84 463.91z" /></clipPath><clipPath id="55"><path id="" clip-rule="evenodd" transform="matrix(1 0 0 1 0 0)" d="M45.59999 458.6035L284.16 458.6035L284.16 458.6035L284.16 463.8647L284.16 463.8647L45.59999 463.8647z" /></clipPath><clipPath id="56"><path id="" clip-rule="evenodd" transform="matrix(1 0 0 1 0 0)" d="M0 -0.25L595.5 -0.25L595.5 -0.25L595.5 842.0012L595.5 842.0012L0 842.0012z" /></clipPath><clipPath id="57"><path id="" clip-rule="evenodd" transform="matrix(1 0 0 1 0 0)" d="M0 -0.25L595.5 -0.25L595.5 -0.25L595.5 842.0012L595.5 842.0012L0 842.0012z" /></clipPath><clipPath id="58"><path id="" clip-rule="evenodd" transform="matrix(1 0 0 1 0 0)" d="M64.90992 324.6356L281.2421 324.6356L281.2421 324.6356L281.2421 448.5305L281.2421 448.5305L64.90992 448.5305z" /></clipPath><clipPath id="59"><path id="" clip-rule="evenodd" transform="matrix(1 0 0 1 0 0)" d="M77.65992 324.6356L268.44 324.6356C 271.8216 324.6356 275.064 325.9796 277.4544 328.37C 279.8448 330.7628 281.1888 334.0052 281.1888 337.3868L281.1888 337.3868L281.1888 435.782C 281.1888 439.1636 279.8448 442.406 277.4544 444.7964C 275.064 447.1892 271.8216 448.5308 268.44 448.5308L268.44 448.5308L77.65992 448.5308C 74.27832 448.5308 71.03544 447.1892 68.64432 444.7964C 66.2532 442.406 64.90992 439.1636 64.90992 435.782L64.90992 435.782L64.90992 337.3868C 64.90992 334.0052 66.2532 330.7628 68.64432 328.37C 71.03544 325.9796 74.27832 324.6356 77.65992 324.6356z" /></clipPath><clipPath id="60"><path id="" clip-rule="evenodd" transform="matrix(1 0 0 1 0 0)" d="M64.90992 324.6356L281.2421 324.6356L281.2421 324.6356L281.2421 448.5305L281.2421 448.5305L64.90992 448.5305z" /></clipPath><clipPath id="61"><path id="" clip-rule="evenodd" transform="matrix(1 0 0 1 0 0)" d="M0 -0.25L595.5 -0.25L595.5 -0.25L595.5 842.0012L595.5 842.0012L0 842.0012z" /></clipPath><clipPath id="62"><path id="" clip-rule="evenodd" transform="matrix(1 0 0 1 0 0)" d="M0 -0.25L595.5 -0.25L595.5 -0.25L595.5 842.0012L595.5 842.0012L0 842.0012z" /></clipPath><clipPath id="63"><path id="" clip-rule="evenodd" transform="matrix(1 0 0 1 0 0)" d="M0 -0.25L595.5 -0.25L595.5 -0.25L595.5 842.0012L595.5 842.0012L0 842.0012z" /></clipPath><clipPath id="64"><path id="" clip-rule="evenodd" transform="matrix(1 0 0 1 0 0)" d="M27.0864 517.5932L300.96 517.5932L300.96 517.5932L300.96 790.4012L300.96 790.4012L27.0864 790.4012z" /></clipPath><clipPath id="65"><path id="" clip-rule="evenodd" transform="matrix(1 0 0 1 0 0)" d="M54.8364 517.5932L272.9784 517.5932C 280.3392 517.5932 287.3976 520.5164 292.6008 525.7196C 297.804 530.9252 300.7296 537.9836 300.7296 545.342L300.7296 545.342L300.7296 762.65C 300.7296 770.0107 297.804 777.0692 292.6008 782.2724C 287.3976 787.4756 280.3392 790.4012 272.9784 790.4012L272.9784 790.4012L54.8364 790.4012C 47.4768 790.4012 40.4184 787.4756 35.21424 782.2724C 30.01008 777.0692 27.0864 770.0107 27.0864 762.65L27.0864 762.65L27.0864 545.342C 27.0864 537.9836 30.01008 530.9252 35.21424 525.7196C 40.4184 520.5164 47.4768 517.5932 54.8364 517.5932z" /></clipPath><clipPath id="66"><path id="" clip-rule="evenodd" transform="matrix(1 0 0 1 0 0)" d="M44.8524 765.71L282.6024 765.71L282.6024 765.71L282.6024 770.96L282.6024 770.96L44.8524 770.96z" /></clipPath><clipPath id="67"><path id="" clip-rule="evenodd" transform="matrix(1 0 0 1 0 0)" d="M44.64 765.59L282.72 765.59L282.72 765.59L282.72 771.11L282.72 771.11L44.64 771.11z" /></clipPath><mask id="m7"><clipPath id="68"><path id="" clip-rule="evenodd" transform="matrix(1 0 0 1 0 0)" d="M44.64 765.59L282.72 765.59L282.72 765.59L282.72 771.11L282.72 771.11L44.64 771.11z" /></clipPath><g><g><g clip-path="url(#68)"><path id="180" transform="matrix(1 0 0 -1 0 842)" d="M44.64 76.41001L282.72 76.41001L282.72 70.89001L44.64 70.89001z" stroke="none" fill="#000000" fill-rule="nonzero" /></g></g></g></mask><clipPath id="69"><path id="" clip-rule="evenodd" transform="matrix(1 0 0 1 0 0)" d="M44.64 765.59L282.72 765.59L282.72 765.59L282.72 771.11L282.72 771.11L44.64 771.11z" /></clipPath><clipPath id="70"><path id="" clip-rule="evenodd" transform="matrix(1 0 0 1 0 0)" d="M44.39999 765.7912L282.96 765.7912L282.96 765.7912L282.96 771.0524L282.96 771.0524L44.39999 771.0524z" /></clipPath><mask id="m8"><clipPath id="71"><path id="" clip-rule="evenodd" transform="matrix(1 0 0 1 0 0)" d="M44.64 765.59L282.72 765.59L282.72 765.59L282.72 771.11L282.72 771.11L44.64 771.11z" /></clipPath><clipPath id="72"><path id="" clip-rule="evenodd" transform="matrix(1 0 0 1 0 0)" d="M44.64 765.59L282.72 765.59L282.72 765.59L282.72 771.11L282.72 771.11L44.64 771.11z" /></clipPath><clipPath id="73"><path id="" clip-rule="evenodd" transform="matrix(1 0 0 1 0 0)" d="M44.87492 765.7912L282.5903 765.7912L282.5903 765.7912L282.5903 770.842L282.5903 770.842L44.87492 770.842z" /></clipPath><g><g><g clip-path="url(#71)"><g><g clip-path="url(#72)"><g clip-path="url(#73)"><g transform="matrix(0.24 0 0 0.24 44.64 765.59)"><g transform="matrix(1 0 0 1 0 0)"><image x="0" y="0" xlink:href="img_07.png" width="992" height="22" /></g></g></g></g></g></g></g></g></mask><clipPath id="74"><path id="" clip-rule="evenodd" transform="matrix(1 0 0 1 0 0)" d="M44.64 765.59L282.72 765.59L282.72 765.59L282.72 771.11L282.72 771.11L44.64 771.11z" /></clipPath><clipPath id="75"><path id="" clip-rule="evenodd" transform="matrix(1 0 0 1 0 0)" d="M44.39999 765.7912L282.96 765.7912L282.96 765.7912L282.96 771.0524L282.96 771.0524L44.39999 771.0524z" /></clipPath><clipPath id="76"><path id="" clip-rule="evenodd" transform="matrix(1 0 0 1 0 0)" d="M0 -0.25L595.5 -0.25L595.5 -0.25L595.5 842.0012L595.5 842.0012L0 842.0012z" /></clipPath><clipPath id="77"><path id="" clip-rule="evenodd" transform="matrix(1 0 0 1 0 0)" d="M0 -0.25L595.5 -0.25L595.5 -0.25L595.5 842.0012L595.5 842.0012L0 842.0012z" /></clipPath><clipPath id="78"><path id="" clip-rule="evenodd" transform="matrix(1 0 0 1 0 0)" d="M41.84352 620.222L200.8745 620.222L200.8745 620.222L200.8745 750.709L200.8745 750.709L41.84352 750.709z" /></clipPath><clipPath id="79"><path id="" clip-rule="evenodd" transform="matrix(1 0 0 1 0 0)" d="M54.59352 620.222L188.0405 620.222C 191.4221 620.222 194.665 621.566 197.0561 623.9564C 199.4472 626.3468 200.7905 629.5916 200.7905 632.9731L200.7905 632.9731L200.7905 737.9588C 200.7905 741.3404 199.4472 744.5828 197.0561 746.9756C 194.665 749.366 191.4221 750.71 188.0405 750.71L188.0405 750.71L54.59352 750.71C 51.21192 750.71 47.96904 749.366 45.57792 746.9756C 43.1868 744.5828 41.84352 741.3404 41.84352 737.9588L41.84352 737.9588L41.84352 632.9731C 41.84352 629.5916 43.1868 626.3468 45.57792 623.9564C 47.96904 621.566 51.21192 620.222 54.59352 620.222z" /></clipPath><clipPath id="80"><path id="" clip-rule="evenodd" transform="matrix(1 0 0 1 0 0)" d="M41.84352 620.222L200.8745 620.222L200.8745 620.222L200.8745 750.709L200.8745 750.709L41.84352 750.709z" /></clipPath><clipPath id="81"><path id="" clip-rule="evenodd" transform="matrix(1 0 0 1 0 0)" d="M0 -0.25L595.5 -0.25L595.5 -0.25L595.5 842.0012L595.5 842.0012L0 842.0012z" /></clipPath><clipPath id="82"><path id="" clip-rule="evenodd" transform="matrix(1 0 0 1 0 0)" d="M0 -0.25L595.5 -0.25L595.5 -0.25L595.5 842.0012L595.5 842.0012L0 842.0012z" /></clipPath><clipPath id="83"><path id="" clip-rule="evenodd" transform="matrix(1 0 0 1 0 0)" d="M0 -0.25L595.5 -0.25L595.5 -0.25L595.5 842.0012L595.5 842.0012L0 842.0012z" /></clipPath><clipPath id="84"><path id="" clip-rule="evenodd" transform="matrix(1 0 0 1 0 0)" d="M332.0688 449.0468L440.3337 449.0468L440.3337 449.0468L440.3337 611.4445L440.3337 611.4445L332.0688 611.4445z" /></clipPath><clipPath id="85"><path id="" clip-rule="evenodd" transform="matrix(1 0 0 1 0 0)" d="M332.0688 603.2156L332.0688 457.274C 332.0688 452.7284 335.7504 449.0468 340.296 449.0468L340.296 449.0468L432.1056 449.0468C 436.6536 449.0468 440.3328 452.75 440.3328 457.274L440.3328 457.274L440.3328 603.2156C 440.3328 607.7635 436.6536 611.4452 432.1056 611.4452L432.1056 611.4452L340.296 611.4452C 335.772 611.4452 332.0688 607.7635 332.0688 603.2156z" /></clipPath><clipPath id="86"><path id="" clip-rule="evenodd" transform="matrix(1 0 0 1 0 0)" d="M332.0688 449.0468L440.3337 449.0468L440.3337 449.0468L440.3337 611.4445L440.3337 611.4445L332.0688 611.4445z" /></clipPath><clipPath id="87"><path id="" clip-rule="evenodd" transform="matrix(1 0 0 1 0 0)" d="M0 -0.25L595.5 -0.25L595.5 -0.25L595.5 842.0012L595.5 842.0012L0 842.0012z" /></clipPath><clipPath id="88"><path id="" clip-rule="evenodd" transform="matrix(1 0 0 1 0 0)" d="M0 -0.25L595.5 -0.25L595.5 -0.25L595.5 842.0012L595.5 842.0012L0 842.0012z" /></clipPath><clipPath id="89"><path id="" clip-rule="evenodd" transform="matrix(1 0 0 1 0 0)" d="M448.4904 530.246L556.7553 530.246L556.7553 530.246L556.7553 692.6436L556.7553 692.6436L448.4904 692.6436z" /></clipPath><clipPath id="90"><path id="" clip-rule="evenodd" transform="matrix(1 0 0 1 0 0)" d="M448.4904 684.4148L448.4904 538.4731C 448.4904 533.9276 452.172 530.246 456.7176 530.246L456.7176 530.246L548.5272 530.246C 553.0728 530.246 556.7544 533.9492 556.7544 538.4731L556.7544 538.4731L556.7544 684.4148C 556.7544 688.9628 553.0728 692.642 548.5272 692.642L548.5272 692.642L456.7176 692.642C 452.1936 692.642 448.4904 688.9628 448.4904 684.4148z" /></clipPath><clipPath id="91"><path id="" clip-rule="evenodd" transform="matrix(1 0 0 1 0 0)" d="M448.4904 530.246L556.7553 530.246L556.7553 530.246L556.7553 692.6436L556.7553 692.6436L448.4904 692.6436z" /></clipPath><clipPath id="92"><path id="" clip-rule="evenodd" transform="matrix(1 0 0 1 0 0)" d="M0 -0.25L595.5 -0.25L595.5 -0.25L595.5 842.0012L595.5 842.0012L0 842.0012z" /></clipPath><clipPath id="93"><path id="" clip-rule="evenodd" transform="matrix(1 0 0 1 0 0)" d="M0 -0.25L595.5 -0.25L595.5 -0.25L595.5 842.0012L595.5 842.0012L0 842.0012z" /></clipPath><clipPath id="94"><path id="" clip-rule="evenodd" transform="matrix(1 0 0 1 0 0)" d="M461.7072 449.0468L555.6041 449.0468L555.6041 449.0468L555.6041 519.7455L555.6041 519.7455L461.7072 519.7455z" /></clipPath><clipPath id="95"><path id="" clip-rule="evenodd" transform="matrix(1 0 0 1 0 0)" d="M489.4584 449.0468L527.7048 449.0468C 535.0656 449.0468 542.124 451.97 547.3272 457.1732C 552.5328 462.3788 555.456 469.4372 555.456 476.7956L555.456 476.7956L555.456 491.9948C 555.456 499.3556 552.5328 506.414 547.3272 511.6172C 542.124 516.8228 535.0656 519.746 527.7048 519.746L527.7048 519.746L489.4584 519.746C 482.0976 519.746 475.0392 516.8228 469.836 511.6172C 464.6304 506.414 461.7072 499.3556 461.7072 491.9948L461.7072 491.9948L461.7072 476.7956C 461.7072 469.4372 464.6304 462.3788 469.836 457.1732C 475.0392 451.97 482.0976 449.0468 489.4584 449.0468z" /></clipPath><clipPath id="96"><path id="" clip-rule="evenodd" transform="matrix(1 0 0 1 0 0)" d="M345.9744 537.3235L378.9744 537.3235L378.9744 537.3235L378.9744 570.3235L378.9744 570.3235L345.9744 570.3235z" /></clipPath><clipPath id="97"><path id="" clip-rule="evenodd" transform="matrix(1 0 0 1 0 0)" d="M0 -0.25L595.5 -0.25L595.5 -0.25L595.5 842.0012L595.5 842.0012L0 842.0012z" /></clipPath><clipPath id="98"><path id="" clip-rule="evenodd" transform="matrix(1 0 0 1 0 0)" d="M0 -0.25L595.5 -0.25L595.5 -0.25L595.5 842.0012L595.5 842.0012L0 842.0012z" /></clipPath><clipPath id="99"><path id="" clip-rule="evenodd" transform="matrix(1 0 0 1 0 0)" d="M373.728 580.9148L362.3928 543.5996L362.3928 543.5996L474.3432 509.5964L474.3432 509.5964L485.6784 546.914L485.6784 546.914L373.728 580.9148z" /></clipPath><clipPath id="100"><path id="" clip-rule="evenodd" transform="matrix(1 0 0 1 0 0)" d="M373.728 580.9148L362.3928 543.5996L362.3928 543.5996L474.3432 509.5964L474.3432 509.5964L485.6784 546.914L485.6784 546.914L373.728 580.9148z" /></clipPath><clipPath id="101"><path id="" clip-rule="evenodd" transform="matrix(1 0 0 1 0 0)" d="M0 -0.25L595.5 -0.25L595.5 -0.25L595.5 842.0012L595.5 842.0012L0 842.0012z" /></clipPath><clipPath id="102"><path id="" clip-rule="evenodd" transform="matrix(1 0 0 1 0 0)" d="M489.3888 8.540771L589.1388 8.540771L589.1388 8.540771L589.1388 64.79077L589.1388 64.79077L489.3888 64.79077z" /></clipPath><clipPath id="103"><path id="" clip-rule="evenodd" transform="matrix(1 0 0 1 0 0)" d="M0 -0.25L595.5 -0.25L595.5 -0.25L595.5 842.0012L595.5 842.0012L0 842.0012z" /></clipPath></defs><g transform="matrix(1.333333 0 0 1.333333 0 0)"><g clip-path="url(#1)"><g clip-path="url(#2)"><path id="1" transform="matrix(1 0 0 -1 0 842)" d="M0 842.25L595.4999 842.25L595.4999 0L0 0z" stroke="none" fill="#FFFFFF" fill-rule="nonzero" /></g><g clip-path="url(#3)"><path id="2" transform="matrix(1 0 0 -1 0 842)" d="M0 842.25L595.4999 842.25L595.4999 0L0 0z" stroke="none" fill="#FFFFFF" fill-rule="nonzero" /></g><g clip-path="url(#4)"><g><g clip-path="url(#5)"><g clip-path="url(#6)"><g transform="matrix(0 0.975 -0.9768211 0 522.0178 30.75183)"><g transform="matrix(1 0 0 1 0 0)"><image x="0" y="0" xlink:href="img_01.png" width="800" height="453" /></g></g></g></g></g></g><g clip-path="url(#7)"><path id="4" transform="matrix(1 0 0 -1 0 842)" d="M82.55369 749.9357C 83.2733 749.498 84.22421 749.7169 85.14944 749.8713C 84.30132 750.2446 83.49175 750.2832 82.55369 749.9357z" stroke="none" fill="#C49A6C" fill-rule="nonzero" /><path id="5" transform="matrix(1 0 0 -1 0 842)" d="M85.17513 749.8585L85.18799 749.8713L85.14944 749.8713L85.17513 749.8585z" stroke="none" fill="#C49A6C" fill-rule="nonzero" /><path id="6" transform="matrix(1 0 0 -1 0 842)" d="M64.21638 763.2702C 64.89745 762.7296 65.96402 762.8069 66.97919 762.8326C 66.14392 763.3217 65.29581 763.4761 64.21638 763.2702z" stroke="none" fill="#C49A6C" fill-rule="nonzero" /><path id="7" transform="matrix(1 0 0 -1 0 842)" d="M67.00488 762.8197L67.01774 762.8326L66.97919 762.8326L67.00488 762.8197z" stroke="none" fill="#C49A6C" fill-rule="nonzero" /><path id="8" transform="matrix(1 0 0 -1 0 842)" d="M88.32345 708.3232C 88.95311 707.8728 89.74982 708.053 90.50799 708.1817C 89.76267 708.5807 89.09446 708.645 88.32345 708.3232z" stroke="none" fill="#C49A6C" fill-rule="nonzero" /><path id="9" transform="matrix(1 0 0 -1 0 842)" d="M245.8161 769.989C 245.5719 769.989 245.3406 769.9761 245.1093 769.9117C 245.3278 769.9375 245.5719 769.9632 245.8161 769.989z" stroke="none" fill="#C49A6C" fill-rule="nonzero" /><path id="10" transform="matrix(1 0 0 -1 0 842)" d="M224.8316 795.6669C 225.0115 795.6926 225.1915 795.7441 225.3585 795.8342C 225.2043 795.7956 225.0244 795.7313 224.8316 795.6669z" stroke="none" fill="#C49A6C" fill-rule="nonzero" /><path id="11" transform="matrix(1 0 0 -1 0 842)" d="M96.5733 688.772C 97.25437 688.3344 98.14104 688.5403 98.98915 688.6948C 98.17959 689.068 97.43427 689.1066 96.5733 688.772z" stroke="none" fill="#C49A6C" fill-rule="nonzero" /><path id="12" transform="matrix(1 0 0 -1 0 842)" d="M99.002 688.6819L99.01485 688.6948L98.98915 688.6948L99.002 688.6819z" stroke="none" fill="#C49A6C" fill-rule="nonzero" /><path id="13" transform="matrix(1 0 0 -1 0 842)" d="M245.3535 768.9078C 245.5719 768.9722 245.8032 769.0623 245.996 769.1909C 245.8032 769.1137 245.5848 769.0107 245.3535 768.9078z" stroke="none" fill="#C49A6C" fill-rule="nonzero" /><path id="14" transform="matrix(1 0 0 -1 0 842)" d="M208.3833 859.2247C 208.5504 859.3405 208.7174 859.4564 208.8588 859.5593C 208.7174 859.4564 208.5504 859.3405 208.3833 859.2247zM246.8826 768.6504C 246.6257 768.9207 245.5591 768.7018 245.0965 768.3029L245.0965 768.3029L245.2892 767.5177C 244.1584 766.7841 244.8266 767.8524 243.6572 767.3375C 243.3617 767.9296 244.4154 768.483 245.3535 768.9078C 244.4539 768.6375 243.4131 768.7533 243.3103 767.9424C 242.3851 767.8781 243.1175 768.7276 242.0253 768.5989C 241.3956 768.1484 240.6888 767.1959 239.7508 767.2474L239.7508 767.2474L239.7251 767.3632C 237.5148 767.2345 237.0779 765.2781 235.0347 765.2137L235.0347 765.2137L235.1504 765.4969C 234.3794 765.6128 233.3128 764.6603 232.0149 764.5959C 232.3876 764.5959 232.8373 764.2613 232.182 763.9266C 231.3724 763.8623 230.7813 763.6177 230.2159 763.4247C 229.9589 763.9524 229.6762 764.5187 229.3806 765.1237C 230.1002 765.3811 230.6656 765.5613 231.0512 765.6514C 232.3747 765.7415 231.6937 764.6603 231.7194 764.5444C 233.0558 765.3682 232.0535 765.5098 233.2871 765.9346C 233.6726 765.9474 233.4284 765.3811 233.2871 765.2009C 233.7882 765.4969 234.3794 765.4712 234.2894 765.8058C 233.5313 765.7801 233.467 766.7325 232.9658 767.1573L232.9658 767.1573L234.5464 767.7236L234.5464 767.7236L234.6878 767.1702C 235.0476 767.2989 234.9833 768.985 236.6282 769.3196C 239.301 770.1563 242.0253 771.482 244.6596 772.4731C 244.7495 772.1384 244.2869 771.7266 243.8243 771.3018C 244.1712 771.4305 244.6724 771.7394 245.0836 771.6494C 244.2227 771.9454 246.0089 772.486 245.4306 772.5117C 245.5591 772.7177 245.7261 772.8978 245.8932 773.0652C 245.7775 771.7781 245.7133 770.8771 245.7261 770.6068C 245.1736 770.5939 244.6082 770.5939 244.4411 770.6969C 244.6082 770.3494 245.7133 770.2593 246.2787 770.4909L246.2787 770.4909L246.3301 771.2889C 247.6537 771.6494 246.6771 770.8384 247.9749 770.9672C 248.0906 770.3236 246.8955 770.1048 245.8418 769.9761C 246.7927 769.9632 247.7822 769.5385 248.1163 770.285C 248.9644 770.079 248.1805 769.5513 248.9901 769.3196L248.9901 769.3196L247.8079 774.275C 249.0158 774.7899 250.2751 775.1375 251.0204 776.0384C 250.9562 776.2443 250.7891 776.978 250.8277 778.2007L250.8277 778.2007L247.5894 791.7541C 247.4481 789.0125 246.9726 784.07 246.5357 779.6423L246.5357 779.6423L241.9482 798.8332C 241.9096 798.8332 241.8454 798.8332 241.7811 798.8203C 241.1643 798.3441 240.4961 797.3659 239.5452 797.3917L239.5452 797.3917L239.5195 797.5075C 237.3092 797.3015 236.9366 795.3323 234.8934 795.1907L234.8934 795.1907L234.9962 795.4738C 234.2252 795.564 233.1843 794.5471 231.8864 794.457C 232.2591 794.4699 232.7217 794.1481 232.0663 793.8006C 230.6014 793.6461 229.8689 792.8867 228.7124 792.964L228.7124 792.964L228.0442 791.9986C 227.4531 791.767 226.6307 791.4194 225.6412 791.0076C 225.3714 793.1699 225.1657 794.7402 225.0629 795.1006C 225.487 795.1778 225.9111 795.255 226.0652 795.1778C 225.8725 795.4867 225.0115 795.4481 224.626 795.1392L224.626 795.1392L224.7417 794.3412C 223.8165 793.8135 224.3947 794.7402 223.431 794.4442C 223.2125 795.062 224.0863 795.4352 224.8573 795.6926C 224.1249 795.5897 223.3024 795.86 223.1868 795.1006C 222.4543 795.1907 223.0583 795.8986 222.1845 795.963C 221.6576 795.6283 221.0665 794.8174 220.3083 795.0234L220.3083 795.0234L220.2955 795.1392C 218.5222 795.3837 218.0853 793.556 216.4533 793.8264L216.4533 793.8264L216.5561 794.0837C 215.9393 794.3154 215.0526 793.5689 214.0117 793.7234C 214.3073 793.659 214.6542 793.26 214.1145 793.0412C 212.9323 793.1699 212.3026 792.5778 211.4031 792.8738L211.4031 792.8738L210.812 792.063C 209.2057 791.7026 205.6334 790.66 201.7911 789.4888C 205.0037 791.265 207.895 792.8095 208.9616 793.2085C 210.131 793.4016 209.694 792.2947 209.7454 792.1788C 210.812 793.0798 209.8868 793.1442 210.9277 793.6461C 211.2618 793.6848 211.1461 793.1184 211.0433 792.9382C 211.4417 793.26 211.9814 793.26 211.8529 793.5818C 211.1718 793.5046 210.9662 794.4313 210.4522 794.8046L210.4522 794.8046L211.7886 795.4609L211.7886 795.4609L212.0071 794.9332C 212.2384 795.0491 212.1099 796.0659 212.7139 796.7095C 215.014 797.7134 217.4427 798.7689 219.653 799.7084C 219.6144 799.657 219.5759 799.6183 219.5373 799.5669C 219.8329 799.7213 220.2312 800.0431 220.6167 799.9788C 220.5397 800.0045 220.5011 800.0302 220.4625 800.056C 223.5209 801.356 226.0781 802.3728 227.1575 802.6817C 228.5968 802.8748 227.8514 801.7164 227.8771 801.6005C 229.3421 802.5401 228.2498 802.6045 229.6119 803.1322C 230.036 803.1837 229.7661 802.5787 229.5991 802.3856C 230.1516 802.7332 230.8198 802.746 230.717 803.0807C 229.8689 802.9906 229.8047 803.9559 229.265 804.3549L229.265 804.3549L231.0255 805.0629L231.0255 805.0629L231.1796 804.5094C 231.5909 804.6896 231.5009 806.3629 233.3642 806.9292C 236.384 808.139 239.5195 810.0569 242.5393 811.9489C 242.6806 811.6271 242.1795 811.0479 241.6526 810.4816C 242.0638 810.7261 242.6292 811.1766 243.1304 811.241C 242.0767 811.241 244.1584 812.438 243.4516 812.2578C 244.1327 813.5707 245.3149 814.5103 246.4971 815.4628C 247.6794 816.3895 248.8359 817.3934 249.3756 818.5905C 249.003 819.1182 246.1502 823.7775 242.6678 827.9864C 243.3103 829.0547 243.7729 829.7626 243.6701 830.3804C 243.246 830.8309 238.8127 834.0744 235.9471 838.914C 235.2275 840.1238 234.6749 841.411 234.2252 842.7238C 233.8011 844.0238 233.5698 845.3367 233.4284 846.5208C 233.21 848.8891 233.4541 850.7297 233.2742 851.0515C 235.356 852.0425 237.6433 852.4802 238.3372 852.4802C 238.0288 852.596 236.731 852.5059 235.266 852.0683C 233.7626 851.6307 232.2462 850.8455 231.321 850.1505L231.321 850.1505L231.4367 849.2753C 230.4986 848.5673 229.9974 848.1812 229.689 847.9366C 229.3935 847.7307 229.2521 847.6921 229.1236 847.6792C 228.8666 847.6277 228.4682 847.5891 227.1961 846.2119C 226.9005 846.3664 227.2603 847.0872 228.1855 848.104C 229.1236 849.1337 230.7556 850.4852 232.7731 851.4891C 231.8864 851.0643 230.9869 850.601 230.2801 850.1505C 229.9075 849.9188 229.5477 849.6871 229.2007 849.4426C 228.8923 849.2238 228.6096 849.0049 228.3269 848.7733C 228.0571 848.5544 227.8 848.3356 227.5687 848.1168C 227.376 847.9109 227.1961 847.7178 227.0419 847.5248C 226.7463 847.1387 226.5279 846.7654 226.4893 846.4565C 225.6155 845.6456 225.5127 845.8129 225.3585 845.9545C 225.23 846.0961 224.9473 846.1347 224.0863 845.1951C 223.1354 843.5862 222.8013 841.7328 221.9018 840.9605L221.9018 840.9605L221.8118 841.0377C 220.8352 840.0081 220.7453 839.3644 220.8095 839.0041C 220.8352 838.8239 220.938 838.7853 220.9509 838.6823C 220.938 838.605 220.8866 838.5536 220.6938 838.5922L220.6938 838.5922L220.5654 838.7724C 220.1927 838.9526 220.3597 838.3605 219.7044 838.3734C 219.8843 838.3477 220.2826 838.0645 220.0899 837.8071C 219.3831 837.7813 219.1004 837.1249 218.278 837.2407C 218.188 836.9447 218.1238 836.6487 217.9825 836.3526C 217.3785 836.0566 216.3762 835.5675 214.847 834.8853C 215.8622 835.9021 217.4813 836.1982 218.0596 837.4081C 217.6612 838.2318 213.3821 848.4 210.7606 854.4108C 212.4568 854.7069 214.1531 855.0544 215.8108 855.2732C 215.8365 854.9257 215.3096 854.6296 214.7699 854.3207C 215.1297 854.3723 215.6694 854.5524 216.0421 854.3723C 215.2839 854.8484 217.0958 854.9772 216.5432 855.1317C 218.2523 856.8693 221.028 856.0712 222.5957 857.3197C 222.5443 858.2207 222.4929 868.9681 222.3772 875.5839C 223.5081 875.777 224.6389 875.97 225.7312 876.0988C 225.744 875.7512 225.1786 875.4552 224.626 875.1591C 225.0115 875.2106 225.5769 875.3908 225.9624 875.1978C 225.1786 875.6869 227.0804 875.7899 226.5022 875.9572C 228.3398 877.6819 231.2311 876.871 232.9016 878.1066C 232.8502 879.368 233.2742 900.0262 233.0301 901.4935C 233.6083 901.5579 234.1738 901.6351 234.3665 901.5321C 234.1609 901.8539 233.0172 901.8281 232.4647 901.5321L232.4647 901.5321L232.4904 900.7213C 231.1668 900.2192 232.092 901.1331 230.7684 900.8628C 230.5885 901.4935 231.7965 901.841 232.8631 902.0856C 231.8736 901.9955 230.8327 902.3044 230.55 901.5321C 229.5862 901.6479 230.5243 902.343 229.3806 902.4331C 228.6225 902.1113 227.7101 901.3133 226.7463 901.545L226.7463 901.545L226.7463 901.6608C 224.4461 901.9568 223.5595 900.1292 221.452 900.4509L221.452 900.4509L221.6319 900.7084C 220.8609 900.9658 219.5502 900.2321 218.2137 900.4123C 218.5993 900.348 218.9976 899.9232 218.2395 899.7173C 216.7103 899.8846 215.7722 899.3054 214.6157 899.6272L214.6157 899.6272L213.6905 898.8292C 208.5632 898.0955 188.5554 893.8351 183.4538 892.8827L183.4538 892.8827L183.6337 893.0114C 182.6057 892.7926 181.4363 892.5609 180.1513 892.3163C 180.0357 897.748 179.8815 903.1925 179.7658 903.9261C 180.1513 903.9519 180.524 903.9777 180.6525 903.8746C 180.4983 904.2093 179.7401 904.2737 179.3803 904.0162L179.3803 904.0162L179.4317 903.2182C 178.5707 902.8192 179.149 903.6559 178.2752 903.4756C 178.1338 904.1192 178.9305 904.3638 179.6245 904.5311C 178.9691 904.5182 178.2623 904.9044 178.1081 904.1578C 177.4656 904.338 178.0567 904.9558 177.2986 905.136C 176.8102 904.8786 176.2191 904.145 175.5766 904.441L175.5766 904.441L175.5766 904.5568C 173.9832 905.0331 173.4435 903.2697 172.03 903.7717L172.03 903.7717L172.1456 904.0034C 171.6316 904.3252 170.7706 903.6945 169.884 903.9905C 170.141 903.8876 170.4108 903.45 169.9097 903.3083C 168.8945 903.5915 168.2777 903.1024 167.5067 903.5143L167.5067 903.5143L166.9027 902.7935C 163.5231 902.4717 150.2359 900.142 146.8178 899.8203L146.8178 899.8203L146.9463 899.9361C 141.7805 899.1509 131.0891 898.4559 125.7305 897.3748C 124.8696 897.9668 123.7259 897.7609 122.8521 897.8896C 123.3404 897.645 123.199 897.1946 122.8264 897.2074C 120.1664 897.1817 122.6593 896.7698 119.9865 896.3965C 116.9024 895.65 105.0288 896.1134 102.2788 896.654C 100.801 895.7015 98.96346 896.4352 97.51137 895.8431L97.51137 895.8431L97.65273 896.0619C 96.09785 895.6886 87.30827 896.6797 85.49639 896.4094L85.49639 896.4094L85.74055 896.2678C 84.14712 895.7401 84.39127 896.7441 83.15765 897.1044C 83.28615 896.0619 81.92403 895.5084 81.39716 895.4441L81.39716 895.4441L81.42287 895.6758C 80.639 895.5213 78.85281 894.6589 77.55494 894.5946L77.55494 894.5946L77.63204 895.1609C 76.53977 894.5946 74.53513 894.9421 73.76411 894.9164C 72.02934 895.2124 69.36933 896.3708 66.97919 895.753L66.97919 895.753L65.56566 897.4648L65.56566 897.4648L65.33435 897.3104C 65.33435 897.3104 64.42199 892.4451 63.84372 887.0264C 63.27831 881.6205 63.05986 875.6611 64.53764 873.4859L64.53764 873.4859L64.44769 872.9196L64.44769 872.9196L65.0902 872.9582C 65.83551 872.6364 66.23387 873.2671 66.14392 872.7136L66.14392 872.7136L65.10305 872.8423C 65.86121 872.6364 65.30865 872.3661 65.00024 872.0572C 65.3215 871.98 65.62991 871.9027 65.87406 871.7097C 66.04111 871.9156 65.78411 871.9542 65.66846 872.0829C 66.09252 872.2631 66.70933 872.7651 67.19764 872.4691C 67.98151 872.3661 67.19764 871.5424 68.11001 871.4265C 68.94527 871.3107 69.78054 871.1819 70.61581 871.0532C 68.61117 870.9631 66.45232 870.7314 64.53764 869.9849L64.53764 869.9849L62.00614 871.2077L62.00614 871.2077L61.69773 870.9889C 61.69773 870.9889 61.27367 851 66.59367 847.6406L66.59367 847.6406L66.61938 847.0614L66.61938 847.0614L67.5189 847.2802C 68.66257 847.1901 69.06093 847.9238 69.08662 847.3446L69.08662 847.3446L67.5703 847.1644C 68.70112 847.1901 67.98151 846.7654 67.60885 846.3664C 68.0843 846.3921 68.53407 846.3921 68.93242 846.2891C 69.11233 846.5466 68.73967 846.4951 68.54691 846.5852C 69.11233 846.8812 69.84479 847.5505 70.61581 847.4089C 71.75948 847.5505 70.83426 846.5079 72.17068 846.6753C 77.37504 847.2159 82.47659 847.6149 87.62953 848.3099C 87.61668 848.2971 87.59098 848.2971 87.57813 848.2842L87.57813 848.2842L87.96364 848.2971C 85.959 846.8941 85.89475 847.9624 84.03146 847.5891C 84.63542 846.701 82.96489 845.4139 82.27098 845.0664L82.27098 845.0664L82.21958 845.2852C 81.19156 844.7318 79.10982 842.8268 77.40073 841.9516L77.40073 841.9516L77.24654 842.505C 76.00006 841.3209 73.13445 840.3684 72.11929 839.7892C 69.62634 838.9011 65.47571 838.0773 62.6615 835.7348L62.6615 835.7348L59.8473 836.1595L59.8473 836.1595L59.61599 835.8635C 59.61599 835.8635 61.08092 831.1012 63.35542 826.1587C 63.89513 824.9874 64.47339 823.8161 65.07735 822.6964C 64.66614 822.5161 64.28063 822.3102 63.90797 822.0656L63.90797 822.0656L61.63348 823.0052L61.63348 823.0052L61.42788 822.7736C 61.42788 822.7736 64.87174 803.6599 69.69059 800.5837C 67.5189 800.0688 64.7561 799.5154 62.6872 798.0223L62.6872 798.0223L60.23281 798.7817L60.23281 798.7817L60.0272 798.5243C 60.0272 798.5243 61.11947 793.6719 62.86711 788.5106C 62.98276 788.163 63.11126 787.8026 63.23976 787.4551L63.23976 787.4551L62.44305 787.8541L62.44305 787.8541L62.10894 787.6482C 62.10894 787.6482 61.71058 782.6413 61.94189 777.1968C 62.18604 771.7523 63.08556 765.8573 65.97687 764.1197L65.97687 764.1197L65.96402 763.5405L65.96402 763.5405L66.99203 763.7465C 68.27706 763.6306 68.77822 764.3514 68.76537 763.785L68.76537 763.785L67.04343 763.6306C 68.31561 763.6306 67.48035 763.2188 67.04343 762.8326C 67.5703 762.8455 68.09715 762.8455 68.53407 762.7167C 68.75252 762.9613 68.31561 762.9227 68.11001 763.0256C 68.76537 763.3088 69.63919 763.9653 70.4873 763.8108C 71.78518 763.9266 70.69291 762.9098 72.20924 763.0385C 74.16248 763.1801 76.10286 763.3603 78.04325 763.5533C 78.0561 763.4761 78.0818 763.3989 78.09465 763.3217C 79.23832 757.993 81.10161 752.3297 84.03146 751.004L84.03146 751.004L84.10857 750.4377L84.10857 750.4377L85.02094 750.7723C 86.216 750.8238 86.55011 751.6089 86.62721 751.0426L86.62721 751.0426L85.08518 750.6694C 86.25455 750.8367 85.54779 750.3218 85.21368 749.8842C 85.702 749.9614 86.1646 750.0258 86.58866 749.9743C 86.74287 750.2446 86.35736 750.1545 86.15176 750.2189C 86.70432 750.5922 87.38538 751.3386 88.19495 751.3C 88.20779 751.3 88.22064 751.3 88.2335 751.3C 89.09446 748.5842 90.10963 745.8555 91.27901 743.7318L91.27901 743.7318L88.90171 744.7487L88.90171 744.7487L88.63185 744.517C 88.63185 744.517 88.90171 739.5358 89.81407 734.1556C 89.89117 733.718 89.96828 733.2804 90.05823 732.8428C 88.16924 732.5725 86.02325 732.1864 84.28847 731.131L84.28847 731.131L81.97543 732.1221L81.97543 732.1221L81.75697 731.8904C 81.75697 731.8904 82.45088 726.9607 83.74876 721.6707C 85.04663 716.3806 86.96132 710.743 89.50567 709.3401L89.50567 709.3401L89.60847 708.7737L89.60847 708.7737L90.35379 709.0826C 90.40518 709.0826 90.44374 709.0955 90.48228 709.0955C 90.48228 709.0698 90.49514 709.0312 90.49514 708.9926L90.49514 708.9926L90.40518 708.9668C 90.44374 708.9668 90.46944 708.9668 90.49514 708.9797C 90.53369 708.748 90.57224 708.5164 90.61079 708.2718C 90.59794 708.246 90.57224 708.2203 90.55939 708.1946C 90.58509 708.1946 90.59794 708.1946 90.62364 708.2074C 91.65166 702.248 93.97755 691.7195 97.89688 689.8274L97.89688 689.8274L97.99968 689.2611L97.99968 689.2611L98.83495 689.5957C 99.94007 689.6472 100.2228 690.4195 100.3127 689.8531L100.3127 689.8531L98.88635 689.4799C 99.96577 689.6343 99.33611 689.1324 99.04056 688.6948C 99.49031 688.772 99.92722 688.8364 100.3127 688.772C 100.4541 689.0423 100.0943 688.9521 99.90152 689.0165C 100.3898 689.377 101.0066 690.1235 101.752 690.0848C 102.8185 690.3551 102.0861 689.2225 103.3325 689.5443C 109.9376 691.1274 116.4141 692.4789 122.9035 694.6927C 123.1219 694.5125 122.942 694.4611 122.7878 694.3066C 124.6768 695.1689 126.463 695.6323 128.1721 696.4689C 128.7503 696.3917 128.9945 696.0957 129.2129 695.9155C 128.9945 696.0957 131.4232 697.0224 133.9418 697.8848C 135.2012 698.3224 136.4733 698.7471 137.4499 699.056C 138.4266 699.3649 139.0948 699.5709 139.1462 699.558L139.1462 699.558L138.9534 700.5748C 140.881 701.2313 139.8786 699.6481 141.5877 700.4719C 141.8319 702.0807 144.6075 701.3085 144.9802 702.248C 145.0059 702.1323 145.8926 702.3768 145.9825 701.9263C 146.0082 702.7629 146.8306 702.4025 147.3189 702.7758C 147.4474 703.0461 147.1005 702.956 146.8692 703.1233L146.8692 703.1233L148.0385 703.8055C 148.6168 703.7283 148.8738 703.3292 148.3727 703.0718C 151.7651 703.8956 167.8279 708.5035 171.2332 710.1252C 170.5907 710.5371 169.627 709.7777 168.9073 710.5242C 169.6784 711.348 170.3466 710.8203 170.5779 711.4896C 171.3875 710.2925 172.7367 711.8885 173.9061 710.7946L173.9061 710.7946L173.9189 711.6312L173.9189 711.6312L174.5358 711.3351C 178.3908 713.5361 175.3453 712.0302 179.059 713.1242C 181.1279 713.9737 181.7704 715.3638 183.0812 715.3895C 182.9013 715.338 182.2845 715.6341 182.7599 716.0073C 183.0812 715.3895 184.0449 716.9855 184.5461 716.4192C 185.0473 716.6895 186.8206 717.2043 185.9082 717.8994C 186.358 717.5519 187.9643 717.9123 187.1804 717.2043C 187.7073 717.3588 188.2598 717.4103 188.5682 717.7449L188.5682 717.7449L187.8101 717.7578C 189.5191 718.5172 190.7271 718.1569 191.588 719.3796L191.588 719.3796L190.817 719.5083C 191.845 719.933 192.706 720.3192 193.4256 719.5726L193.4256 719.5726L192.4362 718.9163C 194.1709 719.5598 195.199 719.9845 196.484 720.9756L196.484 720.9756L195.9571 720.8212C 197.4992 722.3657 206.9055 726.5617 208.1906 728.2993L208.1906 728.2993L207.1625 728.6983L207.1625 728.6983L208.409 729.8052C 208.2291 729.7537 208.5118 727.321 208.2805 727.4884C 211.3903 728.6854 227.4659 735.1982 230.5114 735.8547C 231.8093 735.919 231.1283 734.8507 231.154 734.7349C 232.4775 735.52 231.4881 735.6873 232.7217 736.0863C 233.0943 736.0863 232.8502 735.52 232.7088 735.3527C 233.21 735.6359 233.7882 735.5844 233.6983 735.919C 232.9401 735.919 232.9016 736.8715 232.4261 737.3091L232.4261 737.3091L234.0067 737.8111L234.0067 737.8111L234.1352 737.2448C 234.4822 737.3606 234.4565 739.0338 236.0885 739.317C 238.7356 740.0635 241.447 741.2991 244.0684 742.1615C 244.1456 741.8269 243.683 741.4279 243.2075 741.0417C 243.5544 741.1576 244.0556 741.4407 244.4539 741.3249C 243.6187 741.6595 245.392 742.11 244.8138 742.1615C 246.2016 744.1823 249.0929 743.9377 250.4036 745.4565C 250.1081 746.6921 246.1888 766.9385 245.649 768.3286C 246.163 768.5345 246.6771 768.7018 246.8826 768.6504z" stroke="none" fill="#C49A6C" fill-rule="nonzero" /></g><g clip-path="url(#8)"><g clip-path="url(#9)"><g clip-path="url(#10)"><g clip-path="url(#11)"><path id="15" transform="matrix(1 0 0 -1 0 842)" d="M322.3224 735.6319L570.0358 735.6319L570.0358 489.8387L322.3224 489.8387z" stroke="none" fill="#1D70B7" fill-rule="nonzero" /></g></g></g></g><g clip-path="url(#12)"><g><g clip-path="url(#13)"><g mask="url(#m1)"><g><g clip-path="url(#15)"><g clip-path="url(#16)"><path id="17" transform="matrix(1 0 0 -1 0 842)" d="M327.0555 522.1443L564.7709 522.1443L564.7709 517.0936L327.0555 517.0936z" stroke="none" fill="#000000" fill-rule="nonzero" /></g></g></g></g><g mask="url(#m2)"><g><g clip-path="url(#20)"><g clip-path="url(#21)"><path id="19" transform="matrix(1 0 0 -1 0 842)" d="M327.0555 522.1443L564.7709 522.1443L564.7709 517.0936L327.0555 517.0936z" stroke="none" fill="#000000" fill-rule="nonzero" /></g></g></g></g></g></g></g><g clip-path="url(#22)"><g clip-path="url(#23)"><g clip-path="url(#24)"><g clip-path="url(#25)"><g clip-path="url(#26)"><g transform="matrix(0.7203208 0 0 0.720139 337.2648 163.208)"><g transform="matrix(1 0 0 1 0 0)"><image x="0" y="0" xlink:href="img_03.png" width="300" height="233" /></g></g></g></g></g></g></g><g clip-path="url(#27)"></g><g clip-path="url(#28)"><g clip-path="url(#29)"><g clip-path="url(#30)"><g clip-path="url(#31)"><path id="89" transform="matrix(1 0 0 -1 0 842)" d="M318.756 457.386L566.2897 457.386L566.2897 98.6554L318.756 98.6554z" stroke="none" fill="#939CAB" fill-rule="nonzero" /></g></g></g></g><g clip-path="url(#32)"><g><g clip-path="url(#33)"><g mask="url(#m3)"><g><g clip-path="url(#35)"><g clip-path="url(#36)"><path id="91" transform="matrix(1 0 0 -1 0 842)" d="M322.3437 138.7833L560.059 138.7833L560.059 133.7326L322.3437 133.7326z" stroke="none" fill="#000000" fill-rule="nonzero" /></g></g></g></g><g mask="url(#m4)"><g><g clip-path="url(#40)"><g clip-path="url(#41)"><path id="93" transform="matrix(1 0 0 -1 0 842)" d="M322.3437 138.7833L560.059 138.7833L560.059 133.7326L322.3437 133.7326z" stroke="none" fill="#000000" fill-rule="nonzero" /></g></g></g></g></g></g></g><g clip-path="url(#42)"><g clip-path="url(#43)"><g clip-path="url(#44)"><g clip-path="url(#45)"><path id="94" transform="matrix(1 0 0 -1 0 842)" d="M44.85239 611.0049L292.3862 611.0049L292.3862 345.0995L44.85239 345.0995z" stroke="none" fill="#1D70B7" fill-rule="nonzero" /></g></g></g></g><g clip-path="url(#46)"><g><g clip-path="url(#47)"><g mask="url(#m5)"><g><g clip-path="url(#49)"><g clip-path="url(#50)"><path id="96" transform="matrix(1 0 0 -1 0 842)" d="M46.02146 383.3965L283.7368 383.3965L283.7368 378.3457L46.02146 378.3457z" stroke="none" fill="#000000" fill-rule="nonzero" /></g></g></g></g><g mask="url(#m6)"><g><g clip-path="url(#54)"><g clip-path="url(#55)"><path id="98" transform="matrix(1 0 0 -1 0 842)" d="M46.02146 383.3965L283.7368 383.3965L283.7368 378.3457L46.02146 378.3457z" stroke="none" fill="#000000" fill-rule="nonzero" /></g></g></g></g></g></g></g><g clip-path="url(#56)"><g clip-path="url(#57)"><g clip-path="url(#58)"><g clip-path="url(#59)"><g clip-path="url(#60)"><g transform="matrix(0.7308518 0 0 0.7306451 64.90992 311.3259)"><g transform="matrix(1 0 0 1 0 0)"><image x="0" y="0" xlink:href="img_06.png" width="296" height="206" /></g></g></g></g></g></g></g><g clip-path="url(#61)"></g><g clip-path="url(#62)"><g clip-path="url(#63)"><g clip-path="url(#64)"><g clip-path="url(#65)"><path id="179" transform="matrix(1 0 0 -1 0 842)" d="M27.0864 324.4068L300.9604 324.4068L300.9604 51.59845L27.0864 51.59845z" stroke="none" fill="#1D70B7" fill-rule="nonzero" /></g></g></g></g><g clip-path="url(#66)"><g><g clip-path="url(#67)"><g mask="url(#m7)"><g><g clip-path="url(#69)"><g clip-path="url(#70)"><path id="181" transform="matrix(1 0 0 -1 0 842)" d="M44.87491 76.20879L282.5903 76.20879L282.5903 71.15801L44.87491 71.15801z" stroke="none" fill="#000000" fill-rule="nonzero" /></g></g></g></g><g mask="url(#m8)"><g><g clip-path="url(#74)"><g clip-path="url(#75)"><path id="183" transform="matrix(1 0 0 -1 0 842)" d="M44.87491 76.20879L282.5903 76.20879L282.5903 71.15801L44.87491 71.15801z" stroke="none" fill="#000000" fill-rule="nonzero" /></g></g></g></g></g></g></g><g clip-path="url(#76)"><g clip-path="url(#77)"><g clip-path="url(#78)"><g clip-path="url(#79)"><g clip-path="url(#80)"><g transform="matrix(0.5195169 0 0 0.5178057 26.77632 620.223)"><g transform="matrix(1 0 0 1 0 0)"><image x="0" y="0" xlink:href="img_08.png" width="364" height="252" /></g></g></g></g></g></g></g><g clip-path="url(#81)"></g><g clip-path="url(#82)"><g clip-path="url(#83)"><g clip-path="url(#84)"><g clip-path="url(#85)"><g clip-path="url(#86)"><g transform="matrix(0.5636003 0 0 0.5638807 327.3264 449.0475)"><g transform="matrix(1 0 0 1 0 0)"><image x="0" y="0" xlink:href="img_09.png" width="209" height="288" /></g></g></g></g></g></g></g><g clip-path="url(#87)"><g clip-path="url(#88)"><g clip-path="url(#89)"><g clip-path="url(#90)"><g clip-path="url(#91)"><g transform="matrix(0.5652071 0 0 0.5658455 425.7816 530.2443)"><g transform="matrix(1 0 0 1 0 0)"><image x="0" y="0" xlink:href="img_10.png" width="272" height="287" /></g></g></g></g></g></g></g><g clip-path="url(#92)"><g clip-path="url(#93)"><g clip-path="url(#94)"><g clip-path="url(#95)"><path id="308" transform="matrix(1 0 0 -1 0 842)" d="M461.7072 392.9532L555.3281 392.9532L555.3281 322.2542L461.7072 322.2542z" stroke="none" fill="#1D70B7" fill-rule="nonzero" /></g></g></g></g><g clip-path="url(#96)"><g transform="matrix(0.3586956 0 0 0.3586956 345.9744 537.3236)"><g transform="matrix(1 0 0 1 0 0)"><image x="0" y="0" xlink:href="img_11.png" width="92" height="92" /></g></g></g><g clip-path="url(#97)"><g clip-path="url(#98)"><g clip-path="url(#99)"><g clip-path="url(#100)"><path id="310" transform="matrix(1 0 0 -1 0 842)" d="M447.8372 322.061C 454.6342 322.1344 461.3547 323.2324 467.7831 325.3821C 461.3594 311.8882 451.6906 299.9762 439.9627 290.7275C 427.7347 281.0798 413.0267 273.9701 397.608 271.3604C 389.2515 269.9476 380.1157 269.9998 372.8054 274.8283C 371.8443 275.4621 369.7029 274.7493 371.17 273.7802C 377.8555 269.3657 386.0487 268.3834 393.883 269.0837C 401.9581 269.8047 409.968 272.0954 417.4633 275.128C 432.6628 281.2767 446.2841 291.2003 456.8569 303.7262C 462.0041 309.8234 466.3777 316.5364 469.8827 323.6943C 472.238 315.3646 475.9414 307.4518 480.8489 300.3065C 481.2102 299.7825 481.9534 299.5291 482.5733 299.6076C 483.0227 299.6643 483.6604 300.0376 483.2933 300.5724C 477.8071 308.555 473.8541 317.4623 471.6271 326.889C 471.6007 327.0007 471.5445 327.1035 471.4669 327.1947C 471.4752 327.9233 469.7766 328.2333 469.3125 328.0524C 462.3592 325.3141 454.9695 323.8157 447.4932 323.7357C 445.7224 323.7168 446.4365 322.0473 447.8372 322.061z" stroke="none" fill="#ED1C24" fill-rule="nonzero" /></g></g></g></g><g clip-path="url(#101)"></g><g clip-path="url(#102)"><g transform="matrix(0.1246875 0 0 0.1241722 489.3888 8.540771)"><g transform="matrix(1 0 0 1 0 0)"><image x="0" y="0" xlink:href="img_12.png" width="800" height="453" /></g></g></g><g clip-path="url(#103)"></g></g></g></svg>