<svg xmlns="http://www.w3.org/2000/svg" xmlns:xlink="http://www.w3.org/1999/xlink" id="body_1" preserveAspectRatio="xMinYMin meet" viewBox="0 0 793 1123"><defs><clipPath id="1"><path id="" clip-rule="evenodd" transform="matrix(1 0 0 1 0 0)" d="M0 842L0 -0.250061L0 -0.250061L595.5 -0.250061L595.5 -0.250061L595.5 842L595.5 842L0 842z" /></clipPath><clipPath id="2"><path id="" clip-rule="evenodd" transform="matrix(1 0 0 1 0 0)" d="M0 -0.25L595.5 -0.25L595.5 -0.25L595.5 842.0012L595.5 842.0012L0 842.0012z" /></clipPath><clipPath id="3"><path id="" clip-rule="evenodd" transform="matrix(1 0 0 1 0 0)" d="M0 -0.25L595.5 -0.25L595.5 -0.25L595.5 842.0012L595.5 842.0012L0 842.0012z" /></clipPath><clipPath id="4"><path id="" clip-rule="evenodd" transform="matrix(1 0 0 1 0 0)" d="M0 -0.25L595.5 -0.25L595.5 -0.25L595.5 842.0012L595.5 842.0012L0 842.0012z" /></clipPath><clipPath id="5"><path id="" clip-rule="evenodd" transform="matrix(1 0 0 1 0 0)" d="M78.71999 30.71002L522.24 30.71002L522.24 30.71002L522.24 810.95L522.24 810.95L78.71999 810.95z" /></clipPath><clipPath id="6"><path id="" clip-rule="evenodd" transform="matrix(1 0 0 1 0 0)" d="M79.51786 30.75177L522.0178 30.75177L522.0178 30.75177L522.0178 810.7518L522.0178 810.7518L79.51786 810.7518z" /></clipPath><clipPath id="7"><path id="" clip-rule="evenodd" transform="matrix(1 0 0 1 0 0)" d="M0 -0.25L595.5 -0.25L595.5 -0.25L595.5 842.0012L595.5 842.0012L0 842.0012z" /></clipPath><clipPath id="8"><path id="" clip-rule="evenodd" transform="matrix(1 0 0 1 0 0)" d="M0 -0.25L595.5 -0.25L595.5 -0.25L595.5 842.0012L595.5 842.0012L0 842.0012z" /></clipPath><clipPath id="9"><path id="" clip-rule="evenodd" transform="matrix(1 0 0 1 0 0)" d="M35.04264 532.6124L283.085 532.6124L283.085 532.6124L283.085 774.974L283.085 774.974L35.04264 774.974z" /></clipPath><clipPath id="10"><path id="" clip-rule="evenodd" transform="matrix(1 0 0 1 0 0)" d="M62.79264 532.6124L254.8272 532.6124C 262.1856 532.6124 269.244 535.5356 274.4496 540.7388C 279.6528 545.9444 282.576 553.0028 282.576 560.3611L282.576 560.3611L282.576 747.2228C 282.576 754.5836 279.6528 761.642 274.4496 766.8452C 269.244 772.0483 262.1856 774.974 254.8272 774.974L254.8272 774.974L62.79264 774.974C 55.4328 774.974 48.3744 772.0483 43.17024 766.8452C 37.96632 761.642 35.04264 754.5836 35.04264 747.2228L35.04264 747.2228L35.04264 560.3611C 35.04264 553.0028 37.96632 545.9444 43.17024 540.7388C 48.3744 535.5356 55.4328 532.6124 62.79264 532.6124z" /></clipPath><clipPath id="11"><path id="" clip-rule="evenodd" transform="matrix(1 0 0 1 0 0)" d="M35.04264 724.8452L272.7926 724.8452L272.7926 724.8452L272.7926 730.0952L272.7926 730.0952L35.04264 730.0952z" /></clipPath><clipPath id="12"><path id="" clip-rule="evenodd" transform="matrix(1 0 0 1 0 0)" d="M35.04 724.79L272.88 724.79L272.88 724.79L272.88 730.31L272.88 730.31L35.04 730.31z" /></clipPath><mask id="m1"><clipPath id="13"><path id="" clip-rule="evenodd" transform="matrix(1 0 0 1 0 0)" d="M35.04 724.79L272.88 724.79L272.88 724.79L272.88 730.31L272.88 730.31L35.04 730.31z" /></clipPath><g><g><g clip-path="url(#13)"><path id="5" transform="matrix(1 0 0 -1 0 842)" d="M35.04 117.21L272.88 117.21L272.88 111.69L35.04 111.69z" stroke="none" fill="#000000" fill-rule="nonzero" /></g></g></g></mask><clipPath id="14"><path id="" clip-rule="evenodd" transform="matrix(1 0 0 1 0 0)" d="M35.04 724.79L272.88 724.79L272.88 724.79L272.88 730.31L272.88 730.31L35.04 730.31z" /></clipPath><clipPath id="15"><path id="" clip-rule="evenodd" transform="matrix(1 0 0 1 0 0)" d="M34.8 724.9272L273.12 724.9272L273.12 724.9272L273.12 730.1885L273.12 730.1885L34.8 730.1885z" /></clipPath><mask id="m2"><clipPath id="16"><path id="" clip-rule="evenodd" transform="matrix(1 0 0 1 0 0)" d="M35.04 724.79L272.88 724.79L272.88 724.79L272.88 730.31L272.88 730.31L35.04 730.31z" /></clipPath><clipPath id="17"><path id="" clip-rule="evenodd" transform="matrix(1 0 0 1 0 0)" d="M35.04 724.79L272.88 724.79L272.88 724.79L272.88 730.31L272.88 730.31L35.04 730.31z" /></clipPath><clipPath id="18"><path id="" clip-rule="evenodd" transform="matrix(1 0 0 1 0 0)" d="M35.06507 724.9272L272.7804 724.9272L272.7804 724.9272L272.7804 729.978L272.7804 729.978L35.06507 729.978z" /></clipPath><g><g><g clip-path="url(#16)"><g><g clip-path="url(#17)"><g clip-path="url(#18)"><g transform="matrix(0.24 0 0 0.24 35.04 724.79)"><g transform="matrix(1 0 0 1 0 0)"><image x="0" y="0" xlink:href="img_02.png" width="991" height="22" /></g></g></g></g></g></g></g></g></mask><clipPath id="19"><path id="" clip-rule="evenodd" transform="matrix(1 0 0 1 0 0)" d="M35.04 724.79L272.88 724.79L272.88 724.79L272.88 730.31L272.88 730.31L35.04 730.31z" /></clipPath><clipPath id="20"><path id="" clip-rule="evenodd" transform="matrix(1 0 0 1 0 0)" d="M34.8 724.9272L273.12 724.9272L273.12 724.9272L273.12 730.1885L273.12 730.1885L34.8 730.1885z" /></clipPath><clipPath id="21"><path id="" clip-rule="evenodd" transform="matrix(1 0 0 1 0 0)" d="M0 -0.25L595.5 -0.25L595.5 -0.25L595.5 842.0012L595.5 842.0012L0 842.0012z" /></clipPath><clipPath id="22"><path id="" clip-rule="evenodd" transform="matrix(1 0 0 1 0 0)" d="M0 -0.25L595.5 -0.25L595.5 -0.25L595.5 842.0012L595.5 842.0012L0 842.0012z" /></clipPath><clipPath id="23"><path id="" clip-rule="evenodd" transform="matrix(1 0 0 1 0 0)" d="M50.66976 589.7012L267.0019 589.7012L267.0019 589.7012L267.0019 713.5961L267.0019 713.5961L50.66976 713.5961z" /></clipPath><clipPath id="24"><path id="" clip-rule="evenodd" transform="matrix(1 0 0 1 0 0)" d="M63.41976 589.7012L254.1984 589.7012C 257.58 589.7012 260.8248 591.0428 263.2152 593.4355C 265.6056 595.826 266.9496 599.0684 266.9496 602.45L266.9496 602.45L266.9496 700.8452C 266.9496 704.2268 265.6056 707.4692 263.2152 709.862C 260.8248 712.2524 257.58 713.5964 254.1984 713.5964L254.1984 713.5964L63.41976 713.5964C 60.0384 713.5964 56.79528 712.2524 54.40416 709.862C 52.01304 707.4692 50.66976 704.2268 50.66976 700.8452L50.66976 700.8452L50.66976 602.45C 50.66976 599.0684 52.01304 595.826 54.40416 593.4355C 56.79528 591.0428 60.0384 589.7012 63.41976 589.7012z" /></clipPath><clipPath id="25"><path id="" clip-rule="evenodd" transform="matrix(1 0 0 1 0 0)" d="M50.66976 589.7012L267.0019 589.7012L267.0019 589.7012L267.0019 713.5961L267.0019 713.5961L50.66976 713.5961z" /></clipPath><clipPath id="26"><path id="" clip-rule="evenodd" transform="matrix(1 0 0 1 0 0)" d="M0 -0.25L595.5 -0.25L595.5 -0.25L595.5 842.0012L595.5 842.0012L0 842.0012z" /></clipPath><clipPath id="27"><path id="" clip-rule="evenodd" transform="matrix(1 0 0 1 0 0)" d="M56.4876 -0.25L248.4876 -0.25L248.4876 -0.25L248.4876 186.6143L248.4876 186.6143L56.4876 186.6143z" /></clipPath><clipPath id="28"><path id="" clip-rule="evenodd" transform="matrix(1 0 0 1 0 0)" d="M0 -0.25L595.5 -0.25L595.5 -0.25L595.5 842.0012L595.5 842.0012L0 842.0012z" /></clipPath><clipPath id="29"><path id="" clip-rule="evenodd" transform="matrix(1 0 0 1 0 0)" d="M0 -0.25L595.5 -0.25L595.5 -0.25L595.5 842.0012L595.5 842.0012L0 842.0012z" /></clipPath><clipPath id="30"><path id="" clip-rule="evenodd" transform="matrix(1 0 0 1 0 0)" d="M0 -0.25L595.5 -0.25L595.5 -0.25L595.5 842.0012L595.5 842.0012L0 842.0012z" /></clipPath><clipPath id="31"><path id="" clip-rule="evenodd" transform="matrix(1 0 0 1 0 0)" d="M325.6872 140.3729L573.4008 140.3729L573.4008 140.3729L573.4008 386.1666L573.4008 386.1666L325.6872 386.1666z" /></clipPath><clipPath id="32"><path id="" clip-rule="evenodd" transform="matrix(1 0 0 1 0 0)" d="M353.4384 140.3729L545.472 140.3729C 552.8304 140.3729 559.8888 143.2966 565.0944 148.5008C 570.2976 153.705 573.2208 160.7631 573.2208 168.1229L573.2208 168.1229L573.2208 358.4156C 573.2208 365.7764 570.2976 372.8348 565.0944 378.038C 559.8888 383.2412 552.8304 386.1668 545.472 386.1668L545.472 386.1668L353.4384 386.1668C 346.0776 386.1668 339.0192 383.2412 333.816 378.038C 328.6104 372.8348 325.6872 365.7764 325.6872 358.4156L325.6872 358.4156L325.6872 168.1229C 325.6872 160.7631 328.6104 153.705 333.816 148.5008C 339.0192 143.2966 346.0776 140.3729 353.4384 140.3729z" /></clipPath><clipPath id="33"><path id="" clip-rule="evenodd" transform="matrix(1 0 0 1 0 0)" d="M330.3984 353.7788L568.1484 353.7788L568.1484 353.7788L568.1484 359.0288L568.1484 359.0288L330.3984 359.0288z" /></clipPath><clipPath id="34"><path id="" clip-rule="evenodd" transform="matrix(1 0 0 1 0 0)" d="M330.24 353.75L568.32 353.75L568.32 353.75L568.32 359.03L568.32 359.03L330.24 359.03z" /></clipPath><mask id="m3"><clipPath id="35"><path id="" clip-rule="evenodd" transform="matrix(1 0 0 1 0 0)" d="M330.24 353.75L568.32 353.75L568.32 353.75L568.32 359.03L568.32 359.03L330.24 359.03z" /></clipPath><g><g><g clip-path="url(#35)"><path id="166" transform="matrix(1 0 0 -1 0 842)" d="M330.24 488.25L568.32 488.25L568.32 482.97L330.24 482.97z" stroke="none" fill="#000000" fill-rule="nonzero" /></g></g></g></mask><clipPath id="36"><path id="" clip-rule="evenodd" transform="matrix(1 0 0 1 0 0)" d="M330.24 353.75L568.32 353.75L568.32 353.75L568.32 359.03L568.32 359.03L330.24 359.03z" /></clipPath><clipPath id="37"><path id="" clip-rule="evenodd" transform="matrix(1 0 0 1 0 0)" d="M330 353.8605L568.56 353.8605L568.56 353.8605L568.56 359.1217L568.56 359.1217L330 359.1217z" /></clipPath><mask id="m4"><clipPath id="38"><path id="" clip-rule="evenodd" transform="matrix(1 0 0 1 0 0)" d="M330.24 353.75L568.32 353.75L568.32 353.75L568.32 359.03L568.32 359.03L330.24 359.03z" /></clipPath><clipPath id="39"><path id="" clip-rule="evenodd" transform="matrix(1 0 0 1 0 0)" d="M330.24 353.75L568.32 353.75L568.32 353.75L568.32 359.03L568.32 359.03L330.24 359.03z" /></clipPath><clipPath id="40"><path id="" clip-rule="evenodd" transform="matrix(1 0 0 1 0 0)" d="M330.4219 353.8605L568.1373 353.8605L568.1373 353.8605L568.1373 358.9113L568.1373 358.9113L330.4219 358.9113z" /></clipPath><g><g><g clip-path="url(#38)"><g><g clip-path="url(#39)"><g clip-path="url(#40)"><g transform="matrix(0.24 0 0 0.24 330.24 353.75)"><g transform="matrix(1 0 0 1 0 0)"><image x="0" y="0" xlink:href="img_04.png" width="992" height="22" /></g></g></g></g></g></g></g></g></mask><clipPath id="41"><path id="" clip-rule="evenodd" transform="matrix(1 0 0 1 0 0)" d="M330.24 353.75L568.32 353.75L568.32 353.75L568.32 359.03L568.32 359.03L330.24 359.03z" /></clipPath><clipPath id="42"><path id="" clip-rule="evenodd" transform="matrix(1 0 0 1 0 0)" d="M330 353.8605L568.56 353.8605L568.56 353.8605L568.56 359.1217L568.56 359.1217L330 359.1217z" /></clipPath><clipPath id="43"><path id="" clip-rule="evenodd" transform="matrix(1 0 0 1 0 0)" d="M0 -0.25L595.5 -0.25L595.5 -0.25L595.5 842.0012L595.5 842.0012L0 842.0012z" /></clipPath><clipPath id="44"><path id="" clip-rule="evenodd" transform="matrix(1 0 0 1 0 0)" d="M0 -0.25L595.5 -0.25L595.5 -0.25L595.5 842.0012L595.5 842.0012L0 842.0012z" /></clipPath><clipPath id="45"><path id="" clip-rule="evenodd" transform="matrix(1 0 0 1 0 0)" d="M340.632 216.1194L557.2366 216.1194L557.2366 216.1194L557.2366 346.2855L557.2366 346.2855L340.632 346.2855z" /></clipPath><clipPath id="46"><path id="" clip-rule="evenodd" transform="matrix(1 0 0 1 0 0)" d="M353.3808 216.1194L544.1616 216.1194C 547.5432 216.1194 550.7856 217.4626 553.176 219.8538C 555.5664 222.2446 556.9104 225.4877 556.9104 228.8694L556.9104 228.8694L556.9104 333.5348C 556.9104 336.9164 555.5664 340.1588 553.176 342.5516C 550.7856 344.942 547.5432 346.286 544.1616 346.286L544.1616 346.286L353.3808 346.286C 349.9992 346.286 346.7568 344.942 344.3664 342.5516C 341.9736 340.1588 340.632 336.9164 340.632 333.5348L340.632 333.5348L340.632 228.8694C 340.632 225.4877 341.9736 222.2446 344.3664 219.8538C 346.7568 217.4626 349.9992 216.1194 353.3808 216.1194z" /></clipPath><clipPath id="47"><path id="" clip-rule="evenodd" transform="matrix(1 0 0 1 0 0)" d="M340.632 216.1194L556.7283 216.1194L556.7283 216.1194L556.7283 346.2855L556.7283 346.2855L340.632 346.2855z" /></clipPath><clipPath id="48"><path id="" clip-rule="evenodd" transform="matrix(1 0 0 1 0 0)" d="M0 -0.25L595.5 -0.25L595.5 -0.25L595.5 842.0012L595.5 842.0012L0 842.0012z" /></clipPath><clipPath id="49"><path id="" clip-rule="evenodd" transform="matrix(1 0 0 1 0 0)" d="M0 -0.25L595.5 -0.25L595.5 -0.25L595.5 842.0012L595.5 842.0012L0 842.0012z" /></clipPath><clipPath id="50"><path id="" clip-rule="evenodd" transform="matrix(1 0 0 1 0 0)" d="M0 -0.25L595.5 -0.25L595.5 -0.25L595.5 842.0012L595.5 842.0012L0 842.0012z" /></clipPath><clipPath id="51"><path id="" clip-rule="evenodd" transform="matrix(1 0 0 1 0 0)" d="M322.1232 418.6172L569.6568 418.6172L569.6568 418.6172L569.6568 679.6892L569.6568 679.6892L322.1232 679.6892z" /></clipPath><clipPath id="52"><path id="" clip-rule="evenodd" transform="matrix(1 0 0 1 0 0)" d="M349.872 418.6172L541.9056 418.6172C 549.2664 418.6172 556.3248 421.5404 561.528 426.746C 566.7336 431.9492 569.6568 439.0076 569.6568 446.3684L569.6568 446.3684L569.6568 651.2732C 569.6568 658.6316 566.7336 665.69 561.528 670.8932C 556.3248 676.0988 549.2664 679.022 541.9056 679.022L541.9056 679.022L349.872 679.022C 342.5136 679.022 335.4552 676.0988 330.2496 670.8932C 325.0464 665.69 322.1232 658.6316 322.1232 651.2732L322.1232 651.2732L322.1232 446.3684C 322.1232 439.0076 325.0464 431.9492 330.2496 426.746C 335.4552 421.5404 342.5136 418.6172 349.872 418.6172z" /></clipPath><clipPath id="53"><path id="" clip-rule="evenodd" transform="matrix(1 0 0 1 0 0)" d="M326.8344 645.4364L564.5844 645.4364L564.5844 645.4364L564.5844 650.6864L564.5844 650.6864L326.8344 650.6864z" /></clipPath><clipPath id="54"><path id="" clip-rule="evenodd" transform="matrix(1 0 0 1 0 0)" d="M326.64 645.35L564.72 645.35L564.72 645.35L564.72 650.87L564.72 650.87L326.64 650.87z" /></clipPath><mask id="m5"><clipPath id="55"><path id="" clip-rule="evenodd" transform="matrix(1 0 0 1 0 0)" d="M326.64 645.35L564.72 645.35L564.72 645.35L564.72 650.87L564.72 650.87L326.64 650.87z" /></clipPath><g><g><g clip-path="url(#55)"><path id="240" transform="matrix(1 0 0 -1 0 842)" d="M326.64 196.65L564.72 196.65L564.72 191.13L326.64 191.13z" stroke="none" fill="#000000" fill-rule="nonzero" /></g></g></g></mask><clipPath id="56"><path id="" clip-rule="evenodd" transform="matrix(1 0 0 1 0 0)" d="M326.64 645.35L564.72 645.35L564.72 645.35L564.72 650.87L564.72 650.87L326.64 650.87z" /></clipPath><clipPath id="57"><path id="" clip-rule="evenodd" transform="matrix(1 0 0 1 0 0)" d="M326.4 645.5187L564.96 645.5187L564.96 645.5187L564.96 650.78L564.96 650.78L326.4 650.78z" /></clipPath><mask id="m6"><clipPath id="58"><path id="" clip-rule="evenodd" transform="matrix(1 0 0 1 0 0)" d="M326.64 645.35L564.72 645.35L564.72 645.35L564.72 650.87L564.72 650.87L326.64 650.87z" /></clipPath><clipPath id="59"><path id="" clip-rule="evenodd" transform="matrix(1 0 0 1 0 0)" d="M326.64 645.35L564.72 645.35L564.72 645.35L564.72 650.87L564.72 650.87L326.64 650.87z" /></clipPath><clipPath id="60"><path id="" clip-rule="evenodd" transform="matrix(1 0 0 1 0 0)" d="M326.8567 645.5187L564.572 645.5187L564.572 645.5187L564.572 650.5695L564.572 650.5695L326.8567 650.5695z" /></clipPath><g><g><g clip-path="url(#58)"><g><g clip-path="url(#59)"><g clip-path="url(#60)"><g transform="matrix(0.24 0 0 0.24 326.64 645.35)"><g transform="matrix(1 0 0 1 0 0)"><image x="0" y="0" xlink:href="img_06.png" width="992" height="22" /></g></g></g></g></g></g></g></g></mask><clipPath id="61"><path id="" clip-rule="evenodd" transform="matrix(1 0 0 1 0 0)" d="M326.64 645.35L564.72 645.35L564.72 645.35L564.72 650.87L564.72 650.87L326.64 650.87z" /></clipPath><clipPath id="62"><path id="" clip-rule="evenodd" transform="matrix(1 0 0 1 0 0)" d="M326.4 645.5187L564.96 645.5187L564.96 645.5187L564.96 650.78L564.96 650.78L326.4 650.78z" /></clipPath><clipPath id="63"><path id="" clip-rule="evenodd" transform="matrix(1 0 0 1 0 0)" d="M0 -0.25L595.5 -0.25L595.5 -0.25L595.5 842.0012L595.5 842.0012L0 842.0012z" /></clipPath><clipPath id="64"><path id="" clip-rule="evenodd" transform="matrix(1 0 0 1 0 0)" d="M0 -0.25L595.5 -0.25L595.5 -0.25L595.5 842.0012L595.5 842.0012L0 842.0012z" /></clipPath><clipPath id="65"><path id="" clip-rule="evenodd" transform="matrix(1 0 0 1 0 0)" d="M340.632 485.6564L556.9534 485.6564L556.9534 485.6564L556.9534 637.3777L556.9534 637.3777L340.632 637.3777z" /></clipPath><clipPath id="66"><path id="" clip-rule="evenodd" transform="matrix(1 0 0 1 0 0)" d="M353.3808 485.6564L544.1616 485.6564C 547.5432 485.6564 550.7856 487.0004 553.176 489.3908C 555.5664 491.7812 556.9104 495.026 556.9104 498.4076L556.9104 498.4076L556.9104 624.6284C 556.9104 628.01 555.5664 631.2524 553.176 633.6428C 550.7856 636.0356 547.5432 637.3772 544.1616 637.3772L544.1616 637.3772L353.3808 637.3772C 349.9992 637.3772 346.7568 636.0356 344.3664 633.6428C 341.9736 631.2524 340.632 628.01 340.632 624.6284L340.632 624.6284L340.632 498.4076C 340.632 495.026 341.9736 491.7812 344.3664 489.3908C 346.7568 487.0004 349.9992 485.6564 353.3808 485.6564z" /></clipPath><clipPath id="67"><path id="" clip-rule="evenodd" transform="matrix(1 0 0 1 0 0)" d="M340.632 485.6564L556.9534 485.6564L556.9534 485.6564L556.9534 637.3777L556.9534 637.3777L340.632 637.3777z" /></clipPath><clipPath id="68"><path id="" clip-rule="evenodd" transform="matrix(1 0 0 1 0 0)" d="M0 -0.25L595.5 -0.25L595.5 -0.25L595.5 842.0012L595.5 842.0012L0 842.0012z" /></clipPath><clipPath id="69"><path id="" clip-rule="evenodd" transform="matrix(1 0 0 1 0 0)" d="M0 -0.25L595.5 -0.25L595.5 -0.25L595.5 842.0012L595.5 842.0012L0 842.0012z" /></clipPath><clipPath id="70"><path id="" clip-rule="evenodd" transform="matrix(1 0 0 1 0 0)" d="M0 -0.25L595.5 -0.25L595.5 -0.25L595.5 842.0012L595.5 842.0012L0 842.0012z" /></clipPath><clipPath id="71"><path id="" clip-rule="evenodd" transform="matrix(1 0 0 1 0 0)" d="M35.04264 226.365L282.5762 226.365L282.5762 226.365L282.5762 492.2705L282.5762 492.2705L35.04264 492.2705z" /></clipPath><clipPath id="72"><path id="" clip-rule="evenodd" transform="matrix(1 0 0 1 0 0)" d="M62.79264 226.365L254.8272 226.365C 262.1856 226.365 269.244 229.2886 274.4496 234.4928C 279.6528 239.697 282.576 246.7556 282.576 254.114L282.576 254.114L282.576 464.4524C 282.576 471.8132 279.6528 478.8716 274.4496 484.0748C 269.244 489.2804 262.1856 492.2036 254.8272 492.2036L254.8272 492.2036L62.79264 492.2036C 55.4328 492.2036 48.3744 489.2804 43.17024 484.0748C 37.96632 478.8716 35.04264 471.8132 35.04264 464.4524L35.04264 464.4524L35.04264 254.114C 35.04264 246.7556 37.96632 239.697 43.17024 234.4928C 48.3744 229.2886 55.4328 226.365 62.79264 226.365z" /></clipPath><clipPath id="73"><path id="" clip-rule="evenodd" transform="matrix(1 0 0 1 0 0)" d="M36.18912 453.8924L273.9391 453.8924L273.9391 453.8924L273.9391 459.1424L273.9391 459.1424L36.18912 459.1424z" /></clipPath><clipPath id="74"><path id="" clip-rule="evenodd" transform="matrix(1 0 0 1 0 0)" d="M36 453.83L274.08 453.83L274.08 453.83L274.08 459.35L274.08 459.35L36 459.35z" /></clipPath><mask id="m7"><clipPath id="75"><path id="" clip-rule="evenodd" transform="matrix(1 0 0 1 0 0)" d="M36 453.83L274.08 453.83L274.08 453.83L274.08 459.35L274.08 459.35L36 459.35z" /></clipPath><g><g><g clip-path="url(#75)"><path id="337" transform="matrix(1 0 0 -1 0 842)" d="M36 388.17L274.08 388.17L274.08 382.65L36 382.65z" stroke="none" fill="#000000" fill-rule="nonzero" /></g></g></g></mask><clipPath id="76"><path id="" clip-rule="evenodd" transform="matrix(1 0 0 1 0 0)" d="M36 453.83L274.08 453.83L274.08 453.83L274.08 459.35L274.08 459.35L36 459.35z" /></clipPath><clipPath id="77"><path id="" clip-rule="evenodd" transform="matrix(1 0 0 1 0 0)" d="M35.75999 453.9734L274.32 453.9734L274.32 453.9734L274.32 459.2347L274.32 459.2347L35.75999 459.2347z" /></clipPath><mask id="m8"><clipPath id="78"><path id="" clip-rule="evenodd" transform="matrix(1 0 0 1 0 0)" d="M36 453.83L274.08 453.83L274.08 453.83L274.08 459.35L274.08 459.35L36 459.35z" /></clipPath><clipPath id="79"><path id="" clip-rule="evenodd" transform="matrix(1 0 0 1 0 0)" d="M36 453.83L274.08 453.83L274.08 453.83L274.08 459.35L274.08 459.35L36 459.35z" /></clipPath><clipPath id="80"><path id="" clip-rule="evenodd" transform="matrix(1 0 0 1 0 0)" d="M36.21162 453.9734L273.927 453.9734L273.927 453.9734L273.927 459.0242L273.927 459.0242L36.21162 459.0242z" /></clipPath><g><g><g clip-path="url(#78)"><g><g clip-path="url(#79)"><g clip-path="url(#80)"><g transform="matrix(0.24 0 0 0.24 36 453.83)"><g transform="matrix(1 0 0 1 0 0)"><image x="0" y="0" xlink:href="img_08.png" width="992" height="22" /></g></g></g></g></g></g></g></g></mask><clipPath id="81"><path id="" clip-rule="evenodd" transform="matrix(1 0 0 1 0 0)" d="M36 453.83L274.08 453.83L274.08 453.83L274.08 459.35L274.08 459.35L36 459.35z" /></clipPath><clipPath id="82"><path id="" clip-rule="evenodd" transform="matrix(1 0 0 1 0 0)" d="M35.75999 453.9734L274.32 453.9734L274.32 453.9734L274.32 459.2347L274.32 459.2347L35.75999 459.2347z" /></clipPath><clipPath id="83"><path id="" clip-rule="evenodd" transform="matrix(1 0 0 1 0 0)" d="M0 -0.25L595.5 -0.25L595.5 -0.25L595.5 842.0012L595.5 842.0012L0 842.0012z" /></clipPath><clipPath id="84"><path id="" clip-rule="evenodd" transform="matrix(1 0 0 1 0 0)" d="M0 -0.25L595.5 -0.25L595.5 -0.25L595.5 842.0012L595.5 842.0012L0 842.0012z" /></clipPath><clipPath id="85"><path id="" clip-rule="evenodd" transform="matrix(1 0 0 1 0 0)" d="M55.10016 320.006L271.4323 320.006L271.4323 320.006L271.4323 443.901L271.4323 443.901L55.10016 443.901z" /></clipPath><clipPath id="86"><path id="" clip-rule="evenodd" transform="matrix(1 0 0 1 0 0)" d="M67.85016 320.006L258.6288 320.006C 262.0104 320.006 265.2528 321.35 267.6456 323.7404C 270.036 326.1332 271.38 329.3756 271.38 332.7572L271.38 332.7572L271.38 431.1524C 271.38 434.534 270.036 437.7764 267.6456 440.1668C 265.2528 442.5572 262.0104 443.9012 258.6288 443.9012L258.6288 443.9012L67.85016 443.9012C 64.46856 443.9012 61.22568 442.5572 58.83456 440.1668C 56.44344 437.7764 55.10016 434.534 55.10016 431.1524L55.10016 431.1524L55.10016 332.7572C 55.10016 329.3756 56.44344 326.1332 58.83456 323.7404C 61.22568 321.35 64.46856 320.006 67.85016 320.006z" /></clipPath><clipPath id="87"><path id="" clip-rule="evenodd" transform="matrix(1 0 0 1 0 0)" d="M55.10016 320.006L271.4323 320.006L271.4323 320.006L271.4323 443.901L271.4323 443.901L55.10016 443.901z" /></clipPath><clipPath id="88"><path id="" clip-rule="evenodd" transform="matrix(1 0 0 1 0 0)" d="M0 -0.25L595.5 -0.25L595.5 -0.25L595.5 842.0012L595.5 842.0012L0 842.0012z" /></clipPath><clipPath id="89"><path id="" clip-rule="evenodd" transform="matrix(1 0 0 1 0 0)" d="M489.3888 8.540771L589.1388 8.540771L589.1388 8.540771L589.1388 64.79077L589.1388 64.79077L489.3888 64.79077z" /></clipPath><clipPath id="90"><path id="" clip-rule="evenodd" transform="matrix(1 0 0 1 0 0)" d="M0 -0.25L595.5 -0.25L595.5 -0.25L595.5 842.0012L595.5 842.0012L0 842.0012z" /></clipPath></defs><g transform="matrix(1.333333 0 0 1.333333 0 0)"><g clip-path="url(#1)"><g clip-path="url(#2)"><path id="1" transform="matrix(1 0 0 -1 0 842)" d="M0 842.25L595.4999 842.25L595.4999 0L0 0z" stroke="none" fill="#FFFFFF" fill-rule="nonzero" /></g><g clip-path="url(#3)"><path id="2" transform="matrix(1 0 0 -1 0 842)" d="M0 842.25L595.4999 842.25L595.4999 0L0 0z" stroke="none" fill="#FFFFFF" fill-rule="nonzero" /></g><g clip-path="url(#4)"><g><g clip-path="url(#5)"><g clip-path="url(#6)"><g transform="matrix(0 0.975 -0.9768211 0 522.0178 30.75183)"><g transform="matrix(1 0 0 1 0 0)"><image x="0" y="0" xlink:href="img_01.png" width="800" height="453" /></g></g></g></g></g></g><g clip-path="url(#7)"><g clip-path="url(#8)"><g clip-path="url(#9)"><g clip-path="url(#10)"><path id="4" transform="matrix(1 0 0 -1 0 842)" d="M35.04264 309.3876L282.138 309.3876L282.138 67.02585L35.04264 67.02585z" stroke="none" fill="#1D70B7" fill-rule="nonzero" /></g></g></g></g><g clip-path="url(#11)"><g><g clip-path="url(#12)"><g mask="url(#m1)"><g><g clip-path="url(#14)"><g clip-path="url(#15)"><path id="6" transform="matrix(1 0 0 -1 0 842)" d="M35.06508 117.0727L272.7804 117.0727L272.7804 112.0219L35.06508 112.0219z" stroke="none" fill="#000000" fill-rule="nonzero" /></g></g></g></g><g mask="url(#m2)"><g><g clip-path="url(#19)"><g clip-path="url(#20)"><path id="8" transform="matrix(1 0 0 -1 0 842)" d="M35.06508 117.0727L272.7804 117.0727L272.7804 112.0219L35.06508 112.0219z" stroke="none" fill="#000000" fill-rule="nonzero" /></g></g></g></g></g></g></g><g clip-path="url(#21)"><g clip-path="url(#22)"><g clip-path="url(#23)"><g clip-path="url(#24)"><g clip-path="url(#25)"><g transform="matrix(0.4839645 0 0 0.4839645 50.66975 574.2318)"><g transform="matrix(1 0 0 1 0 0)"><image x="0" y="0" xlink:href="img_03.png" width="447" height="320" /></g></g></g></g></g></g></g><g clip-path="url(#26)"></g><g clip-path="url(#27)"><path id="77" transform="matrix(1 0 0 -1 0 842)" d="M60.59742 839.9558C 60.93169 839.313 61.57452 839.223 62.19163 839.0816C 61.75451 839.7115 61.26596 839.9944 60.59742 839.9558z" stroke="none" fill="#8C52FF" fill-rule="nonzero" /><path id="78" transform="matrix(1 0 0 -1 0 842)" d="M62.20448 839.0687L62.20448 839.0816L62.19163 839.0816L62.20448 839.0687z" stroke="none" fill="#8C52FF" fill-rule="nonzero" /><path id="79" transform="matrix(1 0 0 -1 0 842)" d="M62.30734 813.8314C 62.95016 813.3042 63.88869 813.4071 64.78865 813.4457C 64.0044 813.9213 63.24586 814.0627 62.30734 813.8314z" stroke="none" fill="#8C52FF" fill-rule="nonzero" /><path id="80" transform="matrix(1 0 0 -1 0 842)" d="M64.80151 813.4457L64.81436 813.4585L64.77579 813.4585L64.80151 813.4457z" stroke="none" fill="#8C52FF" fill-rule="nonzero" /><path id="81" transform="matrix(1 0 0 -1 0 842)" d="M205.6577 826.2636C 205.8248 826.3793 205.992 826.4951 206.1334 826.5979" stroke="none" fill="#8C52FF" fill-rule="nonzero" /><path id="82" transform="matrix(1 0 0 -1 0 842)" d="M79.76651 717.0988C 80.48648 716.6616 81.43787 716.8802 82.36353 717.0345C 81.515 717.4073 80.70504 717.4459 79.76651 717.0988z" stroke="none" fill="#8C52FF" fill-rule="nonzero" /><path id="83" transform="matrix(1 0 0 -1 0 842)" d="M82.38924 717.0216L82.4021 717.0345L82.36353 717.0345L82.38924 717.0216z" stroke="none" fill="#8C52FF" fill-rule="nonzero" /><path id="84" transform="matrix(1 0 0 -1 0 842)" d="M61.42023 730.4182C 62.10163 729.8782 63.16872 729.9553 64.18439 729.981C 63.34872 730.4695 62.50019 730.6238 61.42023 730.4182z" stroke="none" fill="#8C52FF" fill-rule="nonzero" /><path id="85" transform="matrix(1 0 0 -1 0 842)" d="M64.21011 729.9681L64.22296 729.981L64.18439 729.981L64.21011 729.9681z" stroke="none" fill="#8C52FF" fill-rule="nonzero" /><path id="86" transform="matrix(1 0 0 -1 0 842)" d="M230.0208 818.524C 230.8951 818.9482 231.8979 819.3211 232.8107 819.6939C 231.9493 819.3854 230.9208 818.9997 230.0208 818.524z" stroke="none" fill="#8C52FF" fill-rule="nonzero" /><path id="87" transform="matrix(1 0 0 -1 0 842)" d="M85.5391 675.5336C 86.16907 675.0836 86.96617 675.2635 87.72471 675.3922C 86.97903 675.7907 86.31049 675.855 85.5391 675.5336z" stroke="none" fill="#8C52FF" fill-rule="nonzero" /><path id="88" transform="matrix(1 0 0 -1 0 842)" d="M243.1088 737.1293C 242.8645 737.1293 242.6331 737.1164 242.4017 737.0521C 242.6203 737.0778 242.8645 737.1035 243.1088 737.1293z" stroke="none" fill="#8C52FF" fill-rule="nonzero" /><path id="89" transform="matrix(1 0 0 -1 0 842)" d="M222.1141 762.778C 222.2941 762.8038 222.4741 762.8552 222.6412 762.9452C 222.4869 762.9066 222.3069 762.8423 222.1141 762.778z" stroke="none" fill="#8C52FF" fill-rule="nonzero" /><path id="90" transform="matrix(1 0 0 -1 0 842)" d="M93.793 656.0045C 94.4744 655.5674 95.3615 655.7731 96.21002 655.9274C 95.40006 656.3002 94.65438 656.3387 93.793 656.0045z" stroke="none" fill="#8C52FF" fill-rule="nonzero" /><path id="91" transform="matrix(1 0 0 -1 0 842)" d="M96.22288 655.9145L96.23573 655.9274L96.21002 655.9274L96.22288 655.9145z" stroke="none" fill="#8C52FF" fill-rule="nonzero" /><path id="92" transform="matrix(1 0 0 -1 0 842)" d="M242.646 736.0493C 242.8645 736.1136 243.0959 736.2036 243.2888 736.3322C 243.0959 736.255 242.8774 736.1522 242.646 736.0493z" stroke="none" fill="#8C52FF" fill-rule="nonzero" /><path id="93" transform="matrix(1 0 0 -1 0 842)" d="M205.6577 826.2636C 205.8248 826.3793 205.992 826.4951 206.1334 826.5979C 205.992 826.4951 205.8248 826.3793 205.6577 826.2636zM244.1759 735.7922C 243.9188 736.0621 242.8517 735.8436 242.3888 735.4451L242.3888 735.4451L242.5817 734.6608C 241.4503 733.928 242.1189 734.9951 240.9489 734.4808C 240.6532 735.0722 241.7074 735.625 242.646 736.0493C 241.746 735.7793 240.7046 735.895 240.6018 735.0851C 239.6761 735.0208 240.4089 735.8693 239.3161 735.7407C 238.6862 735.2908 237.979 734.3394 237.0405 734.3908L237.0405 734.3908L237.0148 734.5065C 234.8035 734.3779 234.3664 732.4238 232.3222 732.3595L232.3222 732.3595L232.4379 732.6423C 231.6665 732.7581 230.5994 731.8066 229.3009 731.7424C 229.6737 731.7424 230.1237 731.4081 229.468 731.0739C 228.6581 731.0095 228.0667 730.7653 227.501 730.5724C 227.2438 731.0995 226.961 731.6652 226.6653 732.2695C 227.3853 732.5266 227.9509 732.7066 228.3366 732.7966C 229.6609 732.8866 228.9795 731.8066 229.0052 731.6909C 230.3423 732.5137 229.3395 732.6552 230.5737 733.0795C 230.9594 733.0923 230.7151 732.5266 230.5737 732.3466C 231.0751 732.6423 231.6665 732.6166 231.5765 732.9509C 230.8179 732.9252 230.7537 733.8765 230.2523 734.3008L230.2523 734.3008L231.8336 734.8665L231.8336 734.8665L231.9751 734.3137C 232.335 734.4423 232.2707 736.1265 233.9164 736.4607C 236.5905 737.2964 239.3161 738.6206 241.9517 739.6105C 242.0417 739.2763 241.5789 738.8649 241.116 738.4406C 241.4632 738.5692 241.9646 738.8777 242.376 738.7877C 241.5146 739.0834 243.3017 739.6234 242.7231 739.6491C 242.8517 739.8549 243.0188 740.0348 243.1859 740.202C 243.0702 738.9163 243.006 738.0164 243.0188 737.7463C 242.466 737.7335 241.9003 737.7335 241.7332 737.8364C 241.9003 737.4893 243.006 737.3992 243.5716 737.6306L243.5716 737.6306L243.6231 738.4277C 244.9473 738.7877 243.9702 737.9778 245.2687 738.1063C 245.3844 737.4635 244.1888 737.245 243.1345 737.1164C 244.0859 737.1035 245.0758 736.6793 245.4101 737.4249C 246.2587 737.2192 245.4744 736.6921 246.2844 736.4607L246.2844 736.4607L245.1016 741.4105C 246.3101 741.9247 247.57 742.2719 248.3157 743.1718C 248.2514 743.3775 248.0843 744.1104 248.1228 745.3317L248.1228 745.3317L244.883 758.8696C 244.7416 756.1312 244.2659 751.1943 243.8288 746.7717L243.8288 746.7717L239.239 765.9407C 239.2004 765.9407 239.1361 765.9407 239.0718 765.9279C 238.4547 765.4522 237.7862 764.4751 236.8348 764.5008L236.8348 764.5008L236.8091 764.6165C 234.5978 764.4108 234.2249 762.4438 232.1807 762.3024L232.1807 762.3024L232.2836 762.5852C 231.5122 762.6752 230.4708 761.6595 229.1723 761.5695C 229.5452 761.5824 230.008 761.261 229.3523 760.9138C 227.8867 760.7596 227.1539 760.001 225.9967 760.0782L225.9967 760.0782L225.3282 759.1139C 224.7368 758.8825 223.914 758.5354 222.924 758.124C 222.6541 760.2839 222.4483 761.8524 222.3455 762.2123C 222.7698 762.2895 223.194 762.3666 223.3483 762.2895C 223.1555 762.598 222.2941 762.5594 221.9084 762.2509L221.9084 762.2509L222.0241 761.4538C 221.0984 760.9267 221.677 761.8524 220.7127 761.5566C 220.4942 762.1738 221.3684 762.5466 222.1398 762.8038C 221.407 762.7009 220.5842 762.9709 220.4684 762.2123C 219.7356 762.3024 220.3399 763.0095 219.4656 763.0737C 218.9385 762.7395 218.3471 761.9295 217.5886 762.1352L217.5886 762.1352L217.5757 762.2509C 215.8015 762.4952 215.3644 760.6696 213.7316 760.9396L213.7316 760.9396L213.8345 761.1967C 213.2174 761.4281 212.3303 760.6824 211.2889 760.8367C 211.5846 760.7724 211.9317 760.3738 211.3917 760.1553C 210.2089 760.2839 209.5789 759.6924 208.679 759.9882L208.679 759.9882L208.0876 759.1782C 206.4805 758.8182 202.9064 757.7769 199.0623 756.6069C 202.2764 758.3811 205.1692 759.9239 206.2363 760.3224C 207.4062 760.5153 206.9691 759.4096 207.0205 759.2939C 208.0876 760.1938 207.1619 760.2582 208.2033 760.7596C 208.5376 760.7982 208.4219 760.2324 208.319 760.0524C 208.7176 760.3738 209.2575 760.3738 209.129 760.6953C 208.4476 760.6182 208.2419 761.5438 207.7276 761.9166L207.7276 761.9166L209.0647 762.5723L209.0647 762.5723L209.2832 762.0452C 209.5147 762.1609 209.3861 763.1766 209.9904 763.8194C 212.2917 764.8222 214.7216 765.8765 216.9329 766.815C 216.8943 766.7635 216.8558 766.725 216.8172 766.6736C 217.1129 766.8278 217.5114 767.1492 217.8971 767.085C 217.82 767.1107 217.7814 767.1364 217.7429 767.1621C 220.8027 768.4606 223.3612 769.4763 224.4411 769.7849C 225.881 769.9777 225.1354 768.8206 225.1611 768.7049C 226.6267 769.6434 225.5339 769.7077 226.8967 770.2348C 227.321 770.2863 227.051 769.682 226.8839 769.4891C 227.4367 769.8363 228.1052 769.8491 228.0024 770.1834C 227.1539 770.0934 227.0896 771.0576 226.5496 771.4562L226.5496 771.4562L228.3109 772.1633L228.3109 772.1633L228.4652 771.6105C 228.8766 771.7905 228.7866 773.4618 230.6508 774.0275C 233.6721 775.236 236.8091 777.1517 239.8304 779.0416C 239.9718 778.7202 239.4704 778.1416 238.9433 777.5759C 239.3547 777.8202 239.9204 778.2701 240.4218 778.3345C 239.3676 778.3345 241.4503 779.5301 240.7432 779.3501C 241.4246 780.6615 242.6074 781.6 243.7902 782.5514C 244.973 783.4771 246.1301 784.4799 246.6701 785.6755C 246.2972 786.2026 243.4431 790.8567 239.959 795.0608C 240.6018 796.1279 241.0646 796.835 240.9618 797.4521C 240.5375 797.9021 236.102 801.142 233.235 805.976C 232.515 807.1845 231.9622 808.4702 231.5122 809.7816C 231.088 811.08 230.8565 812.3914 230.7151 813.5742C 230.4965 815.9398 230.7408 817.7783 230.5608 818.0997C 232.6436 819.0897 234.932 819.5268 235.6263 819.5268C 235.3177 819.6425 234.0192 819.5525 232.5536 819.1154C 231.0494 818.6783 229.5323 817.894 228.6066 817.1998L228.6066 817.1998L228.7224 816.3255C 227.7838 815.6184 227.2824 815.2327 226.9739 814.9884C 226.6781 814.7827 226.5367 814.7441 226.4082 814.7313C 226.151 814.6799 225.7525 814.6413 224.4797 813.2657C 224.184 813.4199 224.544 814.1399 225.4696 815.1556C 226.4082 816.1841 228.0409 817.5341 230.0594 818.5369C 229.1723 818.1125 228.2724 817.6497 227.5652 817.1998C 227.1924 816.9683 226.8324 816.7369 226.4853 816.4927C 226.1767 816.2741 225.8939 816.0555 225.6111 815.8241C 225.3411 815.6055 225.0839 815.387 224.8525 815.1684C 224.6597 814.9627 224.4797 814.7699 224.3254 814.577C 224.0297 814.1913 223.8111 813.8185 223.7726 813.5099C 222.8983 812.7 222.7955 812.8671 222.6412 813.0085C 222.5126 813.15 222.2298 813.1885 221.3684 812.25C 220.417 810.6429 220.0827 808.7916 219.1828 808.0202L219.1828 808.0202L219.0928 808.0974C 218.1157 807.0688 218.0257 806.426 218.09 806.066C 218.1157 805.886 218.2186 805.8474 218.2314 805.7446C 218.2186 805.6674 218.1671 805.616 217.9743 805.6546L217.9743 805.6546L217.8457 805.8346C 217.4729 806.0146 217.64 805.4232 216.9843 805.436C 217.1643 805.4103 217.5629 805.1274 217.37 804.8704C 216.6629 804.8446 216.3801 804.189 215.5573 804.3047C 215.4673 804.009 215.403 803.7133 215.2615 803.4175C 214.6573 803.1218 213.6545 802.6333 212.1246 801.9519C 213.1402 802.9676 214.7601 803.2633 215.3387 804.4718C 214.9401 805.2946 210.6589 815.4513 208.0362 821.4553C 209.7332 821.751 211.4303 822.0981 213.0888 822.3167C 213.1145 821.9695 212.5874 821.6738 212.0474 821.3653C 212.4074 821.4167 212.9474 821.5967 213.3202 821.4167C 212.5617 821.8924 214.3745 822.0209 213.8216 822.1752C 215.5315 823.9109 218.3085 823.1138 219.877 824.3608C 219.8256 825.2608 219.7742 835.996 219.6585 842.6042C 220.7899 842.7971 221.9212 842.99 223.014 843.1185C 223.0269 842.7714 222.4612 842.4757 221.9084 842.18C 222.2941 842.2314 222.8598 842.4114 223.2455 842.2186C 222.4612 842.7072 224.364 842.81 223.7854 842.9771C 225.6239 844.6999 228.5166 843.89 230.188 845.1241C 230.1366 846.3841 230.5608 867.0188 230.3165 868.4844C 230.8951 868.5488 231.4608 868.6259 231.6536 868.523C 231.4479 868.8444 230.3037 868.8187 229.7509 868.523L229.7509 868.523L229.7766 867.7131C 228.4523 867.2117 229.378 868.1245 228.0538 867.8545C 227.8738 868.4844 229.0823 868.8316 230.1494 869.0759C 229.1595 868.9858 228.1181 869.2944 227.8352 868.523C 226.871 868.6387 227.8095 869.333 226.6653 869.423C 225.9068 869.1016 224.9939 868.3044 224.0297 868.5359L224.0297 868.5359L224.0297 868.6516C 221.7284 868.9473 220.8413 867.1216 218.7328 867.4431L218.7328 867.4431L218.9128 867.7002C 218.1414 867.9573 216.83 867.2245 215.493 867.4045C 215.8787 867.3402 216.2772 866.916 215.5187 866.7103C 213.9888 866.8774 213.0502 866.2988 211.8931 866.6202L211.8931 866.6202L210.9675 865.8232C 205.8377 865.0903 185.8201 860.8348 180.716 859.8834L180.716 859.8834L180.896 860.012C 179.8675 859.7935 178.6976 859.562 177.4119 859.3177C 177.2962 864.7432 177.1419 870.1815 177.0262 870.9144C 177.4119 870.9401 177.7847 870.9658 177.9133 870.8629C 177.759 871.1972 177.0005 871.2615 176.6405 871.0043L176.6405 871.0043L176.6919 870.2072C 175.8306 869.8087 176.4091 870.6443 175.5349 870.4644C 175.3934 871.1072 176.1905 871.3515 176.8848 871.5186C 176.2291 871.5057 175.522 871.8914 175.3677 871.1458C 174.7249 871.3257 175.3163 871.9429 174.5578 872.1229C 174.0692 871.8657 173.4778 871.1329 172.835 871.4286L172.835 871.4286L172.835 871.5443C 171.2408 872.02 170.7008 870.2587 169.2866 870.7601L169.2866 870.7601L169.4023 870.9915C 168.888 871.3129 168.0266 870.683 167.1395 870.9786C 167.3967 870.8758 167.6667 870.4387 167.1653 870.2972C 166.1496 870.5801 165.5325 870.0916 164.7611 870.503L164.7611 870.503L164.1568 869.783C 160.7755 869.4616 147.4819 867.1345 144.062 866.8131L144.062 866.8131L144.1906 866.9288C 139.0223 866.1446 128.3257 865.4503 122.9645 864.3704C 122.1031 864.9618 120.9589 864.7561 120.0846 864.8846C 120.5732 864.6404 120.4317 864.1904 120.0589 864.2032C 117.3976 864.1776 119.8918 863.7661 117.2176 863.3933C 114.132 862.6476 102.2526 863.1105 99.5013 863.6505C 98.0228 862.699 96.18431 863.4319 94.73152 862.8405L94.73152 862.8405L94.87294 863.059C 93.31731 862.6862 84.52343 863.6761 82.71066 863.4061L82.71066 863.4061L82.95493 863.2647C 81.36073 862.7376 81.605 863.7404 80.37077 864.1004C 80.49934 863.059 79.13654 862.5062 78.60943 862.4419L78.60943 862.4419L78.63514 862.6733C 77.85089 862.519 76.06383 861.6577 74.76532 861.5934L74.76532 861.5934L74.84246 862.1591C 73.74966 861.5934 71.74403 861.9405 70.97264 861.9148C 69.23701 862.2105 66.57571 863.3676 64.18439 862.7505L64.18439 862.7505L62.77017 864.4604L62.77017 864.4604L62.53875 864.3061C 62.53875 864.3061 61.62594 859.4464 61.0474 854.0338C 60.48171 848.634 60.26315 842.6814 61.74165 840.5087L61.74165 840.5087L61.65165 839.943L61.65165 839.943L62.29448 839.9816C 63.04016 839.6602 63.43871 840.2901 63.34872 839.7372L63.34872 839.7372L62.30734 839.8658C 63.06587 839.6602 62.51304 839.3901 62.20448 839.0816C 62.5259 839.0045 62.83445 838.9273 63.07873 838.7344C 63.24586 838.9402 62.98874 838.9788 62.87302 839.1073C 63.29729 839.2873 63.91441 839.7887 64.40295 839.493C 65.1872 839.3901 64.40295 838.5673 65.31577 838.4516C 66.15144 838.3359 66.98711 838.2073 67.82279 838.0788C 65.81717 837.9888 63.65727 837.7574 61.74165 837.0117L61.74165 837.0117L59.20891 838.233L59.20891 838.233L58.90036 838.0145C 58.90036 838.0145 58.47609 818.0483 63.79869 814.6927L63.79869 814.6927L63.82441 814.1142L63.82441 814.1142L64.72437 814.3328C 65.8686 814.2427 66.26715 814.9756 66.29286 814.397L66.29286 814.397L64.77579 814.217C 65.90717 814.2427 65.1872 813.8185 64.81436 813.4199C 65.29005 813.4457 65.74004 813.4457 66.13859 813.3428C 66.31857 813.5999 65.94574 813.5485 65.75289 813.6385C 66.31857 813.9342 67.0514 814.6027 67.82279 814.4613C 68.96703 814.6027 68.04135 813.5613 69.37843 813.7285C 74.58533 814.2685 79.68938 814.667 84.84484 815.3613C 84.83199 815.3484 84.80627 815.3484 84.79342 815.3356L84.79342 815.3356L85.17912 815.3484C 83.17349 813.9471 83.10921 815.0142 81.24501 814.6413C 81.84927 813.7542 80.17793 812.4686 79.48367 812.1214L79.48367 812.1214L79.43224 812.34C 78.40372 811.7872 76.32096 809.8844 74.61104 809.0101L74.61104 809.0101L74.45676 809.563C 73.20968 808.3802 70.34267 807.4288 69.327 806.8502C 66.83284 805.9631 62.68018 805.1403 59.86459 802.8004L59.86459 802.8004L57.04902 803.2247L57.04902 803.2247L56.8176 802.929C 56.8176 802.929 58.28324 798.1721 60.55885 793.2352C 61.09882 792.0652 61.67737 790.8953 62.28162 789.7768C 61.87022 789.5968 61.48452 789.3911 61.11168 789.1468L61.11168 789.1468L58.83607 790.0853L58.83607 790.0853L58.63037 789.8539C 58.63037 789.8539 62.07592 770.762 66.89712 767.6892C 64.72437 767.175 61.96021 766.6221 59.89031 765.1308L59.89031 765.1308L57.43471 765.8893L57.43471 765.8893L57.229 765.6322C 57.229 765.6322 58.32181 760.7853 60.0703 755.6298C 60.18601 755.2827 60.31458 754.9227 60.44314 754.5756L60.44314 754.5756L59.64603 754.9741L59.64603 754.9741L59.31176 754.7684C 59.31176 754.7684 58.91321 749.7672 59.14463 744.3289C 59.3889 738.8906 60.28886 733.0023 63.18158 731.2667L63.18158 731.2667L63.16872 730.6881L63.16872 730.6881L64.19725 730.8938C 65.4829 730.7781 65.98431 731.498 65.97145 730.9324L65.97145 730.9324L64.24867 730.7781C 65.52147 730.7781 64.6858 730.3667 64.24867 729.981C 64.77579 729.9939 65.30291 729.9939 65.74004 729.8653C 65.9586 730.1096 65.52147 730.071 65.31577 730.1738C 65.97145 730.4567 66.8457 731.1124 67.69423 730.9581C 68.99274 731.0739 67.89993 730.0582 69.417 730.1867C 71.37119 730.3281 73.31253 730.5081 75.25387 730.701C 75.26672 730.6238 75.29243 730.5467 75.3053 730.4695C 76.44952 725.147 78.31372 719.4901 81.24501 718.1658L81.24501 718.1658L81.32215 717.6002L81.32215 717.6002L82.23497 717.9344C 83.43063 717.9858 83.76489 718.7701 83.84203 718.2044L83.84203 718.2044L82.29925 717.8316C 83.46919 717.9987 82.76208 717.4844 82.42782 717.0474C 82.91637 717.1245 83.3792 717.1888 83.80347 717.1373C 83.95775 717.4073 83.57204 717.3173 83.36634 717.3816C 83.91917 717.7545 84.60057 718.5001 85.41053 718.4615C 85.42339 718.4615 85.43625 718.4615 85.4491 718.4615C 86.31049 715.7488 87.32616 713.0233 88.4961 710.9019L88.4961 710.9019L86.11765 711.9176L86.11765 711.9176L85.84766 711.6862C 85.84766 711.6862 86.11765 706.7107 87.03046 701.3367C 87.10759 700.8995 87.18474 700.4624 87.27473 700.0253C 85.38482 699.7553 83.23778 699.3696 81.50214 698.3154L81.50214 698.3154L79.18797 699.3053L79.18797 699.3053L78.96941 699.0739C 78.96941 699.0739 79.66367 694.1498 80.96217 688.8658C 82.26068 683.5818 84.17631 677.9506 86.7219 676.5493L86.7219 676.5493L86.82475 675.9835L86.82475 675.9835L87.57043 676.2921C 87.62186 676.2921 87.66042 676.3049 87.699 676.3049C 87.699 676.2793 87.71185 676.2407 87.71185 676.2021L87.71185 676.2021L87.62186 676.1764C 87.66042 676.1764 87.68614 676.1764 87.71185 676.1893C 87.75042 675.9578 87.78899 675.7264 87.82756 675.4822C 87.8147 675.4564 87.78899 675.4307 87.77614 675.405C 87.80185 675.405 87.8147 675.405 87.84042 675.4178C 88.86894 669.4653 91.19597 658.9486 95.11722 657.0587L95.11722 657.0587L95.22007 656.493L95.22007 656.493L96.05574 656.8273C 97.16141 656.8788 97.44425 657.6501 97.53424 657.0845L97.53424 657.0845L96.10717 656.7116C 97.18712 656.8658 96.55714 656.3645 96.26144 655.9274C 96.71143 656.0045 97.14855 656.0688 97.53424 656.0045C 97.67567 656.2745 97.31569 656.1845 97.12283 656.2488C 97.61139 656.6088 98.2285 657.3544 98.97418 657.3159C 100.0413 657.5858 99.30844 656.4545 100.5555 656.7759C 107.1638 658.3572 113.6435 659.7072 120.136 661.9185C 120.3546 661.7385 120.1746 661.6871 120.0203 661.5328C 121.9102 662.3942 123.6973 662.8571 125.4072 663.6927C 125.9858 663.6156 126.23 663.3199 126.4486 663.1399C 126.23 663.3199 128.6599 664.2455 131.1798 665.1069C 132.4397 665.5441 133.7125 665.9683 134.6896 666.2769C 135.6667 666.5854 136.3353 666.7911 136.3867 666.7783L136.3867 666.7783L136.1938 667.7939C 138.1223 668.4496 137.1195 666.8683 138.8294 667.6911C 139.0737 669.2982 141.8507 668.5267 142.2236 669.4653C 142.2493 669.3496 143.1364 669.5939 143.2264 669.1439C 143.2521 669.9796 144.0749 669.6196 144.5634 669.9924C 144.692 670.2624 144.3449 670.1724 144.1135 670.3395L144.1135 670.3395L145.2834 671.0209C 145.862 670.9438 146.1191 670.5452 145.6177 670.2881C 149.0118 671.111 165.0825 675.7136 168.4895 677.3335C 167.8466 677.7449 166.8824 676.9864 166.1624 677.7321C 166.9338 678.5549 167.6024 678.0278 167.8338 678.6963C 168.6438 677.5006 169.9937 679.0948 171.1636 678.002L171.1636 678.002L171.1765 678.8377L171.1765 678.8377L171.7936 678.542C 175.6506 680.7405 172.6035 679.2363 176.3191 680.329C 178.389 681.1776 179.0318 682.5661 180.3432 682.5918C 180.1632 682.5404 179.5461 682.8361 180.0218 683.2089C 180.3432 682.5918 181.3074 684.186 181.8088 683.6204C 182.3102 683.8903 184.0844 684.4046 183.1716 685.0989C 183.6216 684.7517 185.2287 685.1117 184.4444 684.4046C 184.9715 684.5588 185.5244 684.6103 185.8329 684.9446L185.8329 684.9446L185.0744 684.9574C 186.7843 685.7159 187.9928 685.356 188.8542 686.5773L188.8542 686.5773L188.0828 686.7059C 189.1114 687.1302 189.9727 687.5159 190.6927 686.7702L190.6927 686.7702L189.7028 686.1145C 191.4384 686.7573 192.4669 687.1816 193.7526 688.1716L193.7526 688.1716L193.2254 688.0173C 194.7682 689.5601 204.1792 693.7513 205.4649 695.4869L205.4649 695.4869L204.4363 695.8855L204.4363 695.8855L205.6834 696.9911C 205.5034 696.9397 205.7863 694.5098 205.5549 694.6769C 208.6661 695.8726 224.7497 702.3781 227.7967 703.0337C 229.0952 703.098 228.4138 702.0309 228.4395 701.9152C 229.7637 702.6995 228.7738 702.8666 230.008 703.2651C 230.3808 703.2651 230.1366 702.6995 229.9951 702.5323C 230.4965 702.8152 231.0751 702.7637 230.9851 703.098C 230.2266 703.098 230.188 704.0494 229.7123 704.4865L229.7123 704.4865L231.2937 704.9879L231.2937 704.9879L231.4222 704.4222C 231.7693 704.5379 231.7436 706.2093 233.3764 706.4921C 236.0249 707.2378 238.7376 708.472 241.3603 709.3334C 241.4375 708.9991 240.9746 708.6006 240.4989 708.2149C 240.8461 708.3306 241.3475 708.6135 241.746 708.4977C 240.9103 708.832 242.6845 709.282 242.106 709.3334C 243.4945 711.3519 246.3872 711.1076 247.6986 712.6247C 247.4029 713.8589 243.4816 734.0823 242.9417 735.4708C 243.4559 735.6765 243.9702 735.8436 244.1759 735.7922z" stroke="none" fill="#8C52FF" fill-rule="nonzero" /></g><g clip-path="url(#28)"></g><g clip-path="url(#29)"><g clip-path="url(#30)"><g clip-path="url(#31)"><g clip-path="url(#32)"><path id="165" transform="matrix(1 0 0 -1 0 842)" d="M325.6872 701.627L573.4006 701.627L573.4006 455.8339L325.6872 455.8339z" stroke="none" fill="#1D70B7" fill-rule="nonzero" /></g></g></g></g><g clip-path="url(#33)"><g><g clip-path="url(#34)"><g mask="url(#m3)"><g><g clip-path="url(#36)"><g clip-path="url(#37)"><path id="167" transform="matrix(1 0 0 -1 0 842)" d="M330.4219 488.1395L568.1373 488.1395L568.1373 483.0887L330.4219 483.0887z" stroke="none" fill="#000000" fill-rule="nonzero" /></g></g></g></g><g mask="url(#m4)"><g><g clip-path="url(#41)"><g clip-path="url(#42)"><path id="169" transform="matrix(1 0 0 -1 0 842)" d="M330.4219 488.1395L568.1373 488.1395L568.1373 483.0887L330.4219 483.0887z" stroke="none" fill="#000000" fill-rule="nonzero" /></g></g></g></g></g></g></g><g clip-path="url(#43)"><g clip-path="url(#44)"><g clip-path="url(#45)"><g clip-path="url(#46)"><g clip-path="url(#47)"><g transform="matrix(0.43922 0 0 0.44012 340.632 199.4046)"><g transform="matrix(1 0 0 1 0 0)"><image x="0" y="0" xlink:href="img_05.png" width="492" height="372" /></g></g></g></g></g></g></g><g clip-path="url(#48)"></g><g clip-path="url(#49)"><g clip-path="url(#50)"><g clip-path="url(#51)"><g clip-path="url(#52)"><path id="239" transform="matrix(1 0 0 -1 0 842)" d="M322.1232 423.3828L569.657 423.3828L569.657 163.2789L322.1232 163.2789z" stroke="none" fill="#939CAB" fill-rule="nonzero" /></g></g></g></g><g clip-path="url(#53)"><g><g clip-path="url(#54)"><g mask="url(#m5)"><g><g clip-path="url(#56)"><g clip-path="url(#57)"><path id="241" transform="matrix(1 0 0 -1 0 842)" d="M326.8567 196.4812L564.572 196.4812L564.572 191.4305L326.8567 191.4305z" stroke="none" fill="#000000" fill-rule="nonzero" /></g></g></g></g><g mask="url(#m6)"><g><g clip-path="url(#61)"><g clip-path="url(#62)"><path id="243" transform="matrix(1 0 0 -1 0 842)" d="M326.8567 196.4812L564.572 196.4812L564.572 191.4305L326.8567 191.4305z" stroke="none" fill="#000000" fill-rule="nonzero" /></g></g></g></g></g></g></g><g clip-path="url(#63)"><g clip-path="url(#64)"><g clip-path="url(#65)"><g clip-path="url(#66)"><g clip-path="url(#67)"><g transform="matrix(0.5768569 0 0 0.5775753 340.632 482.216)"><g transform="matrix(1 0 0 1 0 0)"><image x="0" y="0" xlink:href="img_07.png" width="375" height="275" /></g></g></g></g></g></g></g><g clip-path="url(#68)"></g><g clip-path="url(#69)"><g clip-path="url(#70)"><g clip-path="url(#71)"><g clip-path="url(#72)"><path id="336" transform="matrix(1 0 0 -1 0 842)" d="M35.04264 615.635L282.5764 615.635L282.5764 349.7296L35.04264 349.7296z" stroke="none" fill="#1D70B7" fill-rule="nonzero" /></g></g></g></g><g clip-path="url(#73)"><g><g clip-path="url(#74)"><g mask="url(#m7)"><g><g clip-path="url(#76)"><g clip-path="url(#77)"><path id="338" transform="matrix(1 0 0 -1 0 842)" d="M36.21161 388.0265L273.927 388.0265L273.927 382.9757L36.21161 382.9757z" stroke="none" fill="#000000" fill-rule="nonzero" /></g></g></g></g><g mask="url(#m8)"><g><g clip-path="url(#81)"><g clip-path="url(#82)"><path id="340" transform="matrix(1 0 0 -1 0 842)" d="M36.21161 388.0265L273.927 388.0265L273.927 382.9757L36.21161 382.9757z" stroke="none" fill="#000000" fill-rule="nonzero" /></g></g></g></g></g></g></g><g clip-path="url(#83)"><g clip-path="url(#84)"><g clip-path="url(#85)"><g clip-path="url(#86)"><g clip-path="url(#87)"><g transform="matrix(0.450692 0 0 0.4508988 55.10015 309.411)"><g transform="matrix(1 0 0 1 0 0)"><image x="0" y="0" xlink:href="img_09.png" width="480" height="322" /></g></g></g></g></g></g></g><g clip-path="url(#88)"></g><g clip-path="url(#89)"><g transform="matrix(0.1246875 0 0 0.1241722 489.3888 8.540771)"><g transform="matrix(1 0 0 1 0 0)"><image x="0" y="0" xlink:href="img_10.png" width="800" height="453" /></g></g></g><g clip-path="url(#90)"></g></g></g></svg>