<svg xmlns="http://www.w3.org/2000/svg" xmlns:xlink="http://www.w3.org/1999/xlink" id="body_1" preserveAspectRatio="xMinYMin meet" viewBox="0 0 793 1123"><defs><clipPath id="1"><path id="" clip-rule="evenodd" transform="matrix(1 0 0 1 0 0)" d="M0 842L0 -0.25L0 -0.25L595.5 -0.25L595.5 -0.25L595.5 842L595.5 842L0 842z" /></clipPath><clipPath id="2"><path id="" clip-rule="evenodd" transform="matrix(1 0 0 1 0 0)" d="M0 -0.249939L595.5 -0.249939L595.5 -0.249939L595.5 842.0001L595.5 842.0001L0 842.0001z" /></clipPath><clipPath id="3"><path id="" clip-rule="evenodd" transform="matrix(1 0 0 1 0 0)" d="M0 -0.249939L595.5 -0.249939L595.5 -0.249939L595.5 842.0001L595.5 842.0001L0 842.0001z" /></clipPath><clipPath id="4"><path id="" clip-rule="evenodd" transform="matrix(1 0 0 1 0 0)" d="M0 -0.249939L595.5 -0.249939L595.5 -0.249939L595.5 842.0001L595.5 842.0001L0 842.0001z" /></clipPath><clipPath id="5"><path id="" clip-rule="evenodd" transform="matrix(1 0 0 1 0 0)" d="M78.71999 30.71008L522.24 30.71008L522.24 30.71008L522.24 810.9501L522.24 810.9501L78.71999 810.9501z" /></clipPath><clipPath id="6"><path id="" clip-rule="evenodd" transform="matrix(1 0 0 1 0 0)" d="M79.51787 30.75183L522.0178 30.75183L522.0178 30.75183L522.0178 810.7518L522.0178 810.7518L79.51787 810.7518z" /></clipPath><clipPath id="7"><path id="" clip-rule="evenodd" transform="matrix(1 0 0 1 0 0)" d="M0 -0.249939L595.5 -0.249939L595.5 -0.249939L595.5 842.0001L595.5 842.0001L0 842.0001z" /></clipPath><clipPath id="8"><path id="" clip-rule="evenodd" transform="matrix(1 0 0 1 0 0)" d="M0 -0.249939L595.5 -0.249939L595.5 -0.249939L595.5 842.0001L595.5 842.0001L0 842.0001z" /></clipPath><clipPath id="9"><path id="" clip-rule="evenodd" transform="matrix(1 0 0 1 0 0)" d="M510.3697 21.58649L595.8325 21.58649L595.8325 21.58649L595.8325 199.1629L595.8325 199.1629L510.3697 199.1629z" /></clipPath><clipPath id="10"><path id="" clip-rule="evenodd" transform="matrix(1 0 0 1 0 0)" d="M595.499 21.72852C 585.149 22.05853 574.8391 24.21851 565.2192 28.13849C 554.5493 32.46844 544.7394 38.93835 536.5195 47.04828C 528.2996 55.15826 521.6796 64.89813 517.1796 75.56805C 513.2497 84.83795 510.9497 94.80786 510.3697 104.8878L510.3697 104.8878L510.3697 115.1177C 510.9297 124.8076 513.0697 134.4175 516.7496 143.4275C 521.1296 154.2074 527.6696 164.1273 535.8595 172.4272C 544.0494 180.7272 553.8993 187.4271 564.6793 191.9771C 574.4191 196.097 584.9191 198.447 595.499 198.917L595.499 198.917L595.499 195.197C 585.389 194.867 575.3292 192.757 565.9392 188.9371C 555.4993 184.6971 545.8994 178.3672 537.8495 170.4373C 529.7995 162.5073 523.3196 152.9574 518.9197 142.5275C 514.4997 132.0975 512.1897 120.7676 512.1097 109.4077C 512.0297 98.04785 514.1897 86.65796 518.4896 76.10803C 522.7596 65.54816 529.1695 55.84821 537.1895 47.70831C 545.2094 39.56836 554.8494 33.02844 565.3992 28.56848C 574.9091 24.53851 585.1591 22.24854 595.499 21.76855L595.499 21.76855L595.499 21.72852zM595.499 34.26843C 586.789 34.58844 578.1191 36.42841 570.0092 39.71838C 560.8593 43.41833 552.4393 48.95831 545.3794 55.9082C 538.3195 62.85815 532.6295 71.20807 528.7595 80.35803C 524.8696 89.50793 522.8396 99.43787 522.7596 109.4077C 522.6796 119.3777 524.5596 129.3676 528.3296 138.6375C 532.0795 147.9074 537.6895 156.4274 544.7194 163.5773C 551.7493 170.7272 560.2093 176.4872 569.4792 180.4071C 577.7091 183.8971 586.559 185.9171 595.509 186.3771L595.509 186.3771L595.509 182.6671C 587.0391 182.3471 578.6191 180.5571 570.7392 177.3672C 561.8193 173.7572 553.5994 168.3572 546.7194 161.5873C 539.8394 154.8174 534.2695 146.6475 530.4895 137.7275C 526.6996 128.8076 524.7096 119.1277 524.6296 109.3978C 524.5496 99.66785 526.3896 89.92792 530.0596 80.888C 533.7195 71.84808 539.1895 63.53815 546.0494 56.55823C 552.9094 49.57831 561.1592 43.95831 570.1992 40.13837C 578.1992 36.7384 586.809 34.76843 595.509 34.30841L595.509 34.30841L595.509 34.25842L595.509 34.25842L595.499 34.26843zM595.499 46.80829C 588.429 47.1283 581.3991 48.6283 574.8091 51.29828C 567.1692 54.37823 560.1393 58.98822 554.2393 64.76813C 548.3394 70.5481 543.5794 77.51807 540.3395 85.15796C 537.0795 92.7879 535.3695 101.0778 535.2795 109.4077C 535.1895 117.7377 536.7595 126.0876 539.8994 133.8375C 543.0195 141.5875 547.6994 148.7274 553.5793 154.7074C 559.4593 160.6873 566.5192 165.5272 574.2691 168.8173C 580.9791 171.6772 588.199 173.3672 595.499 173.8172L595.499 173.8172L595.499 170.1172C 588.669 169.8073 581.8891 168.3472 575.5291 165.7773C 568.1192 162.7973 561.2993 158.3273 555.5693 152.7074C 549.8394 147.0874 545.2194 140.3375 542.0695 132.9276C 538.9094 125.5276 537.2394 117.4777 537.1595 109.3978C 537.0795 101.3178 538.5895 93.20789 541.6294 85.68799C 544.6594 78.16803 549.1994 71.2381 554.8994 65.42816C 560.5992 59.61816 567.4692 54.92822 574.9891 51.72827C 581.4691 48.95831 588.439 47.3183 595.499 46.86829L595.499 46.86829L595.499 46.80829zM595.499 59.35822C 590.069 59.6582 584.6691 60.8382 579.6091 62.87817C 573.4891 65.32813 567.8492 69.00812 563.1093 73.63806C 558.3693 78.26801 554.5293 83.828 551.9194 89.94794C 549.3094 96.06787 547.8994 102.7178 547.8194 109.3978C 547.7394 116.0777 548.9794 122.7976 551.4793 129.0276C 553.9794 135.2576 557.7193 141.0074 562.4393 145.8375C 567.1592 150.6674 572.8292 154.5674 579.0692 157.2274C 584.2691 159.4573 589.8491 160.8173 595.499 161.2473L595.499 161.2473L595.499 157.5574C 590.309 157.2573 585.169 156.1273 580.3291 154.1874C 574.4391 151.8374 568.9992 148.2974 564.4393 143.8375C 559.8793 139.3775 556.1793 134.0175 553.6594 128.1276C 551.1393 122.2376 549.7894 115.8377 549.6993 109.3978C 549.6094 102.9578 550.8094 96.48785 553.2193 90.48792C 555.6293 84.48798 559.2293 78.948 563.7692 74.28809C 568.3092 69.62811 573.7792 65.86816 579.7891 63.29816C 584.759 61.1582 590.0891 59.85822 595.499 59.42822L595.499 59.42822L595.499 59.34821L595.499 59.34821L595.499 59.35822zM595.499 71.90808C 591.709 72.18811 587.949 73.03809 584.399 74.44806C 579.7891 76.26807 575.5391 79.01801 571.9592 82.48798C 568.3792 85.95795 565.4792 90.13794 563.4892 94.74786C 561.4993 99.35785 560.4193 104.3678 560.3393 109.4077C 560.2592 114.4477 561.1793 119.5276 563.0493 124.2476C 564.9192 128.9676 567.7392 133.3275 571.2892 136.9875C 574.8391 140.6475 579.1292 143.6274 583.8491 145.6674C 587.529 147.2675 591.479 148.2774 595.489 148.6874L595.489 148.6874L595.489 145.0175C 591.939 144.7374 588.429 143.9374 585.1091 142.6274C 580.7291 140.8975 576.6891 138.2875 573.2791 134.9976C 569.8692 131.7076 567.1092 127.7276 565.2092 123.3477C 563.3092 118.9677 562.2893 114.2077 562.2092 109.4077C 562.1293 104.6078 562.9993 99.77783 564.7792 95.2879C 566.5593 90.79791 569.2292 86.64795 572.6092 83.15796C 575.9891 79.66803 580.0691 76.82806 584.5591 74.88806C 588.019 73.38806 591.709 72.41809 595.4789 72.01807L595.4789 72.01807L595.4789 71.90808L595.4789 71.90808L595.499 71.90808zM595.499 84.48798C 593.349 84.72797 591.2289 85.23798 589.199 86.02795C 586.1091 87.21796 583.2491 89.03796 580.8291 91.3479C 578.4091 93.6579 576.4391 96.45789 575.0791 99.53784C 573.7192 102.6178 572.9692 105.9978 572.8792 109.3978C 572.8091 112.7977 573.3991 116.2377 574.6392 119.4377C 575.8792 122.6376 577.7691 125.6076 580.1591 128.1176C 582.5491 130.6276 585.459 132.6576 588.6591 134.0676C 590.829 135.0275 593.139 135.6875 595.499 136.0475L595.499 136.0475L595.499 132.4276C 593.599 132.1976 591.719 131.7375 589.919 131.0376C 587.059 129.9376 584.399 128.2576 582.1591 126.1276C 579.9191 123.9976 578.0791 121.3976 576.8192 118.5477C 575.5591 115.6977 574.8491 112.5677 574.7692 109.4077C 574.6992 106.2478 575.2391 103.0578 576.3891 100.0878C 577.5391 97.11786 579.2791 94.3479 581.4991 92.01788C 583.7191 89.68793 586.419 87.78796 589.389 86.46796C 591.329 85.60797 593.399 84.99799 595.509 84.65796L595.509 84.65796L595.509 84.49799L595.509 84.49799L595.499 84.48798zM595.499 97.16785C 593.369 97.65784 591.339 98.68787 589.689 100.2078C 587.1591 102.4978 585.559 105.8678 585.4091 109.3978C 585.2391 112.9277 586.539 116.5677 589.019 119.2577C 590.729 121.1376 592.999 122.5377 595.499 123.2576L595.499 123.2576L595.499 119.6976C 593.8589 119.2577 592.309 118.4377 591.019 117.2677C 588.8391 115.3177 587.439 112.4478 587.289 109.4077C 587.119 106.3678 588.219 103.2278 590.349 100.8778C 591.719 99.35785 593.509 98.18787 595.499 97.51788L595.499 97.51788L595.499 97.17786L595.499 97.17786L595.499 97.16785z" /></clipPath><clipPath id="11"><path id="" clip-rule="evenodd" transform="matrix(1 0 0 1 0 0)" d="M0 769.9777L595.4994 769.9777L595.4994 769.9777L595.4994 841.9976L595.4994 841.9976L0 841.9976z" /></clipPath><clipPath id="12"><path id="" clip-rule="evenodd" transform="matrix(1 0 0 1 0 0)" d="M0 -0.249939L595.5 -0.249939L595.5 -0.249939L595.5 842.0001L595.5 842.0001L0 842.0001z" /></clipPath><clipPath id="13"><path id="" clip-rule="evenodd" transform="matrix(1 0 0 1 0 0)" d="M0 -0.249939L595.5 -0.249939L595.5 -0.249939L595.5 842.0001L595.5 842.0001L0 842.0001z" /></clipPath><clipPath id="14"><path id="" clip-rule="evenodd" transform="matrix(1 0 0 1 0 0)" d="M-1.003764 524.2833L147.8653 524.2833L147.8653 524.2833L147.8653 832.0128L147.8653 832.0128L-1.003764 832.0128z" /></clipPath><clipPath id="15"><path id="" clip-rule="evenodd" transform="matrix(1 0 0 1 0 0)" d="M-0.00025177 524.4377L-0.00025177 530.8778C 17.51974 531.4478 34.93973 535.0978 51.20973 541.7278C 69.29971 549.0677 85.9297 560.0377 99.8697 573.7777C 113.8097 587.5177 125.0397 604.0377 132.6697 622.1277C 140.3297 640.1977 144.3297 659.8177 144.4697 679.5077C 144.5997 699.1877 140.8697 718.9177 133.4197 737.1977C 125.9997 755.4777 114.9097 772.2976 101.0197 786.3876C 87.12971 800.4776 70.42972 811.8276 52.14973 819.5476C 35.66973 826.5176 17.91974 830.4876 -0.00025177 831.3076L-0.00025177 831.3076L-0.00025177 831.3876C 17.93974 830.8176 35.79973 827.0776 52.45972 820.2877C 70.93971 812.7877 87.9297 801.5776 102.1697 787.5276C 116.4097 773.4777 127.8797 756.6076 135.6797 738.1277C 143.4997 719.6577 147.5897 699.6077 147.7297 679.4977C 147.8597 659.3977 144.0397 639.2377 136.4297 620.5577C 128.8497 601.8777 117.5197 584.7078 103.3197 570.3177C 89.1197 555.9277 72.06972 544.3478 53.39973 536.4678C 36.51973 529.3178 18.33974 525.2578 -0.00025177 524.4377zM-0.00025177 546.1777L-0.00025177 552.6077C 14.66974 553.1677 29.25974 556.2578 42.89973 561.7978C 58.35972 568.0477 72.58971 577.4077 84.51971 589.1377C 96.4497 600.8677 106.0697 614.9877 112.6197 630.4377C 119.1897 645.8877 122.6297 662.6677 122.7697 679.5077C 122.8997 696.3477 119.7297 713.2377 113.3697 728.8877C 107.0397 744.5477 97.5597 758.9476 85.6697 771.0276C 73.77972 783.1077 59.48972 792.8476 43.83973 799.4776C 29.98973 805.3676 15.06974 808.7776 -0.00025177 809.5776L-0.00025177 809.5776L-0.00025177 809.6677C 15.09974 809.1076 30.11973 805.9276 44.14973 800.2276C 60.00972 793.8076 74.58971 784.2177 86.81971 772.1776C 99.0497 760.1376 108.9097 745.6677 115.6197 729.8177C 122.3497 713.9777 125.8797 696.7577 126.0197 679.4977C 126.1497 662.2377 122.8897 644.9177 116.3697 628.8677C 109.8697 612.8077 100.1497 598.0477 87.96971 585.6677C 75.78971 573.2878 61.13972 563.3177 45.08973 556.5277C 30.83974 550.4677 15.48974 546.9778 -0.00025177 546.1777zM-0.00025177 567.9178L-0.00025177 574.3278C 11.82974 574.8677 23.57974 577.3978 34.59973 581.8477C 47.42973 587.0078 59.24972 594.7578 69.16972 604.4877C 79.08971 614.2177 87.0997 625.9177 92.5597 638.7477C 98.0397 651.5677 100.9197 665.5077 101.0597 679.5077C 101.1897 693.5077 98.5797 707.5577 93.30971 720.5777C 88.05971 733.6077 80.1997 745.6077 70.31971 755.6776C 60.43972 765.7477 48.55973 773.8777 35.52973 779.4177C 24.29974 784.2177 12.22974 787.0477 -0.00025177 787.8276L-0.00025177 787.8276L-0.00025177 787.9376C 12.24974 787.3876 24.42974 784.7776 35.83973 780.1677C 49.06973 774.8376 61.24971 766.8577 71.46971 756.8276C 81.6897 746.7977 89.9397 734.7377 95.5597 721.5077C 101.1997 708.2877 104.1697 693.9177 104.3097 679.4977C 104.4397 665.0777 101.7397 650.5977 96.3097 637.1777C 90.8997 623.7477 82.78971 611.3877 72.61971 601.0177C 62.44971 590.6478 50.19973 582.2877 36.77973 576.5778C 25.14974 571.6177 12.64974 568.6978 -0.00025177 567.9178zM-0.00025177 589.6777L-0.00025177 596.0677C 8.989744 596.5878 17.89974 598.5477 26.28974 601.9077C 36.49973 605.9877 45.90973 612.1177 53.81972 619.8378C 61.72972 627.5577 68.12971 636.8577 72.49972 647.0577C 76.87971 657.2577 79.20971 668.3477 79.34971 679.5077C 79.48972 690.6677 77.42971 701.8677 73.24972 712.2677C 69.08971 722.6777 62.83971 732.2676 54.96972 740.3276C 47.09973 748.3876 37.61973 754.9077 27.21973 759.3577C 18.60974 763.0576 9.369743 765.3176 -0.00025177 766.0676L-0.00025177 766.0676L-0.00025177 766.2076C 9.409744 765.6877 18.74974 763.6376 27.52973 760.1077C 38.12973 755.8676 47.90973 749.4877 56.11972 741.4777C 64.32972 733.4677 70.96972 723.8077 75.49972 713.1977C 80.04971 702.5977 82.45972 691.0776 82.59971 679.4977C 82.73971 667.9177 80.59971 656.2877 76.25971 645.4977C 71.93971 634.6977 65.43972 624.7377 57.26972 616.3777C 49.09972 608.0178 39.26973 601.2578 28.46973 596.6377C 19.46974 592.7778 9.799743 590.4277 -0.00025177 589.6677L-0.00025177 589.6677L-0.00025177 589.6777zM-0.00025177 611.4677L-0.00025177 617.8177C 6.139745 618.2977 12.21974 619.6877 17.97974 621.9677C 25.55974 624.9577 32.56973 629.4777 38.46973 635.1877C 44.36973 640.8977 49.15972 647.7877 52.43972 655.3677C 55.72972 662.9377 57.49972 671.1977 57.63972 679.5077C 57.77972 687.8177 56.26972 696.1877 53.18972 703.9677C 50.11972 711.7477 45.47973 718.9377 39.61973 724.9877C 33.75973 731.0377 26.68974 735.9476 18.90974 739.3077C 12.91974 741.9077 6.519745 743.5776 -0.01025208 744.2777L-0.01025208 744.2777L-0.01025208 744.4677C 6.559745 743.9777 13.06974 742.5077 19.21974 740.0677C 27.19974 736.9077 34.56973 732.1476 40.76973 726.1476C 46.96972 720.1476 51.99973 712.8777 55.44973 704.8977C 58.90971 696.9277 60.75972 688.2377 60.89972 679.5077C 61.03971 670.7777 59.44971 661.9777 56.19973 653.8077C 52.95972 645.6277 48.07972 638.0877 41.91973 631.7377C 35.75974 625.3878 28.32973 620.2377 20.15974 616.7077C 13.77974 613.9277 6.949745 612.1677 -0.00025177 611.4677zM-0.00025177 633.3477L-0.00025177 639.6377C 3.299746 640.0377 6.549745 640.8378 9.669743 642.0377C 14.62974 643.9377 19.22974 646.8477 23.11974 650.5377C 27.00974 654.2277 30.17974 658.7277 32.37973 663.6777C 34.57973 668.6277 35.78973 674.0377 35.93973 679.5077C 36.06973 684.9877 35.12973 690.4977 33.12973 695.6577C 31.12973 700.8177 28.11974 705.5977 24.26974 709.6377C 20.41974 713.6777 15.74974 716.9677 10.59974 719.2477C 7.229745 720.7477 3.659746 721.7977 -0.00025177 722.3877L-0.00025177 722.3877L-0.00025177 722.6677C 3.719746 722.2477 7.399745 721.3577 10.91974 719.9977C 16.26974 717.9277 21.22974 714.7877 25.42974 710.7877C 29.62974 706.7877 33.02974 701.9377 35.38973 696.5977C 37.74973 691.2577 39.04973 685.4077 39.19973 679.5177C 39.32973 673.6277 38.29973 667.6777 36.13973 662.1277C 33.97973 656.5777 30.71973 651.4377 26.57974 647.0977C 22.43974 642.7578 17.40974 639.2277 11.85974 636.7877C 8.099745 635.1277 4.099746 633.9777 0.009748077 633.3577L0.009748077 633.3577L-0.00025177 633.3477zM-0.00025177 655.4977L-0.00025177 661.6677C 2.829747 662.4277 5.519746 663.8577 7.769744 665.8877C 11.54974 669.2577 13.96974 674.2377 14.22974 679.5077C 14.51974 684.7776 12.61974 690.2177 8.919744 694.2777C 6.549745 696.9177 3.439747 698.9377 -0.00025177 700.1077L-0.00025177 700.1077L-0.00025177 700.6977C 3.689746 699.8577 7.209745 698.0577 10.06974 695.4277C 14.44974 691.4677 17.22974 685.6177 17.47974 679.4977C 17.77974 673.3877 15.51974 667.0677 11.21974 662.4177C 8.259745 659.1577 4.319746 656.7377 -0.00025177 655.4777L-0.00025177 655.4777L-0.00025177 655.4977z" /></clipPath><clipPath id="16"><path id="" clip-rule="evenodd" transform="matrix(1 0 0 1 0 0)" d="M0 -0.249939L84.60674 -0.249939L84.60674 -0.249939L84.60674 84.35681L84.60674 84.35681L0 84.35681z" /></clipPath><clipPath id="17"><path id="" clip-rule="evenodd" transform="matrix(1 0 0 1 0 0)" d="M195.8212 72.43518L399.0712 72.43518L399.0712 72.43518L399.0712 187.9352L399.0712 187.9352L195.8212 187.9352z" /></clipPath><clipPath id="18"><path id="" clip-rule="evenodd" transform="matrix(1 0 0 1 0 0)" d="M0 -0.249939L595.5 -0.249939L595.5 -0.249939L595.5 842.0001L595.5 842.0001L0 842.0001z" /></clipPath><clipPath id="19"><path id="" clip-rule="evenodd" transform="matrix(1 0 0 1 0 0)" d="M0 -0.249939L595.5 -0.249939L595.5 -0.249939L595.5 842.0001L595.5 842.0001L0 842.0001z" /></clipPath><clipPath id="20"><path id="" clip-rule="evenodd" transform="matrix(1 0 0 1 0 0)" d="M326.9639 542.6465L662.165 542.6465L662.165 542.6465L662.165 877.8477L662.165 877.8477L326.9639 877.8477z" /></clipPath><clipPath id="21"><path id="" clip-rule="evenodd" transform="matrix(1 0 0 1 0 0)" d="M494.5645 542.6465C 402.0013 542.6465 326.9639 617.6839 326.9639 710.2471C 326.9639 802.8103 402.0013 877.8477 494.5645 877.8477C 587.1276 877.8477 662.165 802.8103 662.165 710.2471C 662.165 617.6839 587.1276 542.6465 494.5645 542.6465z" /></clipPath><clipPath id="22"><path id="" clip-rule="evenodd" transform="matrix(1 0 0 1 0 0)" d="M326.9639 542.6465L662.165 542.6465L662.165 542.6465L662.165 877.8477L662.165 877.8477L326.9639 877.8477z" /></clipPath><clipPath id="23"><path id="" clip-rule="evenodd" transform="matrix(1 0 0 1 0 0)" d="M0 -0.249939L595.5 -0.249939L595.5 -0.249939L595.5 842.0001L595.5 842.0001L0 842.0001z" /></clipPath></defs><g transform="matrix(1.333333 0 0 1.333333 0 0)"><g clip-path="url(#1)"><g clip-path="url(#2)"><path id="1" transform="matrix(1 0 0 -1 0 842)" d="M0 842.2499L595.4999 842.2499L595.4999 -6.103516E-05L0 -6.103516E-05z" stroke="none" fill="#FFFFFF" fill-rule="nonzero" /></g><g clip-path="url(#3)"><path id="2" transform="matrix(1 0 0 -1 0 842)" d="M0 842.2499L595.4999 842.2499L595.4999 -6.103516E-05L0 -6.103516E-05z" stroke="none" fill="#FFFFFF" fill-rule="nonzero" /></g><g clip-path="url(#4)"><g><g clip-path="url(#5)"><g clip-path="url(#6)"><g transform="matrix(0 0.5128205 -0.5127462 0 522.0178 30.75189)"><g transform="matrix(1 0 0 1 0 0)"><image x="0" y="0" xlink:href="img_01.png" width="1521" height="863" /></g></g></g></g></g></g><g clip-path="url(#7)"><g clip-path="url(#8)"><g clip-path="url(#9)"><g clip-path="url(#10)"><path id="4" transform="matrix(1 0 0 -1 0 842)" d="M510.3697 824.0714L595.4999 824.0714L595.4999 642.8371L510.3697 642.8371z" stroke="none" fill="#D9D9D9" fill-rule="nonzero" /></g></g></g></g><g clip-path="url(#11)"><path id="5" transform="matrix(1 0 0 -1 0 842)" d="M-5.00025 322.7122L600.4674 322.7122L600.4674 -4.999634L-5.00025 -4.999634z" stroke="none" fill="#1D70B7" fill-rule="nonzero" /></g><g clip-path="url(#12)"><g clip-path="url(#13)"><g clip-path="url(#14)"><g clip-path="url(#15)"><path id="6" transform="matrix(1 0 0 -1 0 842)" d="M-5.00025 322.7122L600.4674 322.7122L600.4674 -4.999634L-5.00025 -4.999634z" stroke="none" fill="#D9D9D9" fill-rule="nonzero" /></g></g></g></g><g clip-path="url(#16)"><g transform="matrix(0.2400849 0 0 0.2400849 -84.89326 -85.14319)"><g transform="matrix(1 0 0 1 0 0)"><image x="0" y="0" xlink:href="img_02.png" width="706" height="706" /></g></g></g><g clip-path="url(#17)"><g transform="matrix(0.1336292 0 0 0.1338354 195.8212 72.43518)"><g transform="matrix(1 0 0 1 0 0)"><image x="0" y="0" xlink:href="img_03.png" width="1521" height="863" /></g></g></g><g clip-path="url(#18)"><g clip-path="url(#19)"><g clip-path="url(#20)"><g clip-path="url(#21)"><g clip-path="url(#22)"><g transform="matrix(0.5450423 0 0 0.545169 326.9639 416.8544)"><g transform="matrix(1 0 0 1 0 0)"><image x="0" y="0" xlink:href="img_04.png" width="615" height="1076" /></g></g></g></g></g></g></g><g clip-path="url(#23)"></g></g></g></svg>