<svg xmlns="http://www.w3.org/2000/svg" xmlns:xlink="http://www.w3.org/1999/xlink" id="body_1" preserveAspectRatio="xMinYMin meet" viewBox="0 0 793 1123"><defs><clipPath id="1"><path id="" clip-rule="evenodd" transform="matrix(1 0 0 1 0 0)" d="M0 842L0 -0.25L0 -0.25L595.5 -0.25L595.5 -0.25L595.5 842L595.5 842L0 842z" /></clipPath><clipPath id="2"><path id="" clip-rule="evenodd" transform="matrix(1 0 0 1 0 0)" d="M0 -0.249939L595.5 -0.249939L595.5 -0.249939L595.5 842.0001L595.5 842.0001L0 842.0001z" /></clipPath><clipPath id="3"><path id="" clip-rule="evenodd" transform="matrix(1 0 0 1 0 0)" d="M0 -0.249939L595.5 -0.249939L595.5 -0.249939L595.5 842.0001L595.5 842.0001L0 842.0001z" /></clipPath><clipPath id="4"><path id="" clip-rule="evenodd" transform="matrix(1 0 0 1 0 0)" d="M0 -0.249939L595.5 -0.249939L595.5 -0.249939L595.5 842.0001L595.5 842.0001L0 842.0001z" /></clipPath><clipPath id="5"><path id="" clip-rule="evenodd" transform="matrix(1 0 0 1 0 0)" d="M92.39999 30.71008L535.92 30.71008L535.92 30.71008L535.92 810.9501L535.92 810.9501L92.39999 810.9501z" /></clipPath><clipPath id="6"><path id="" clip-rule="evenodd" transform="matrix(1 0 0 1 0 0)" d="M93.24462 30.75183L535.7446 30.75183L535.7446 30.75183L535.7446 810.7518L535.7446 810.7518L93.24462 810.7518z" /></clipPath><clipPath id="7"><path id="" clip-rule="evenodd" transform="matrix(1 0 0 1 0 0)" d="M0 -0.249939L112.9065 -0.249939L112.9065 -0.249939L112.9065 93.87769L112.9065 93.87769L0 93.87769z" /></clipPath><clipPath id="8"><path id="" clip-rule="evenodd" transform="matrix(1 0 0 1 0 0)" d="M0 -0.249939L595.5 -0.249939L595.5 -0.249939L595.5 842.0001L595.5 842.0001L0 842.0001z" /></clipPath><clipPath id="9"><path id="" clip-rule="evenodd" transform="matrix(1 0 0 1 0 0)" d="M0 -0.249939L83.28 -0.249939L83.28 -0.249939L83.28 116.3901L83.28 116.3901L0 116.3901z" /></clipPath><clipPath id="10"><path id="" clip-rule="evenodd" transform="matrix(1 0 0 1 0 0)" d="M-78.11486 -25.94476L51.51409 -54.5611L51.51409 -54.5611L83.04057 88.25049L83.04057 88.25049L-46.58839 116.8668L-46.58839 116.8668L-78.11486 -25.94476z" /></clipPath><clipPath id="11"><path id="" clip-rule="evenodd" transform="matrix(1 0 0 1 0 0)" d="M-78.11486 -25.94476L51.51409 -54.5611L51.51409 -54.5611L83.04057 88.25049L83.04057 88.25049L-46.58839 116.8668L-46.58839 116.8668L-78.11486 -25.94476z" /></clipPath><clipPath id="12"><path id="" clip-rule="evenodd" transform="matrix(1 0 0 1 0 0)" d="M535.748 795.8223L595.5 795.8223L595.5 795.8223L595.5 842.0001L595.5 842.0001L535.748 842.0001z" /></clipPath><clipPath id="13"><path id="" clip-rule="evenodd" transform="matrix(1 0 0 1 0 0)" d="M0 -0.249939L595.5 -0.249939L595.5 -0.249939L595.5 842.0001L595.5 842.0001L0 842.0001z" /></clipPath><clipPath id="14"><path id="" clip-rule="evenodd" transform="matrix(1 0 0 1 0 0)" d="M0 -0.249939L595.5 -0.249939L595.5 -0.249939L595.5 842.0001L595.5 842.0001L0 842.0001z" /></clipPath><clipPath id="15"><path id="" clip-rule="evenodd" transform="matrix(1 0 0 1 0 0)" d="M61.47654 827.1927L-97.25669 892.781L-97.25669 892.781L-169.4324 718.1052L-169.4324 718.1052L-10.69921 652.5169L-10.69921 652.5169L61.47654 827.1927z" /></clipPath><clipPath id="16"><path id="" clip-rule="evenodd" transform="matrix(1 0 0 1 0 0)" d="M61.47654 827.1927L-97.25669 892.781L-97.25669 892.781L-169.4324 718.1052L-169.4324 718.1052L-10.69921 652.5169L-10.69921 652.5169L61.47654 827.1927z" /></clipPath><clipPath id="17"><path id="" clip-rule="evenodd" transform="matrix(1 0 0 1 0 0)" d="M0 610.0798L83.15002 610.0798L83.15002 610.0798L83.15002 842.0001L83.15002 842.0001L0 842.0001z" /></clipPath><clipPath id="18"><path id="" clip-rule="evenodd" transform="matrix(1 0 0 1 0 0)" d="M482.0088 11.00061L587.7588 11.00061L587.7588 11.00061L587.7588 71.00061L587.7588 71.00061L482.0088 71.00061z" /></clipPath><clipPath id="19"><path id="" clip-rule="evenodd" transform="matrix(1 0 0 1 0 0)" d="M0 -0.249939L595.5 -0.249939L595.5 -0.249939L595.5 842.0001L595.5 842.0001L0 842.0001z" /></clipPath><clipPath id="20"><path id="" clip-rule="evenodd" transform="matrix(1 0 0 1 0 0)" d="M0 -0.249939L595.5 -0.249939L595.5 -0.249939L595.5 842.0001L595.5 842.0001L0 842.0001z" /></clipPath><clipPath id="21"><path id="" clip-rule="evenodd" transform="matrix(1 0 0 1 0 0)" d="M26.34994 339.1761L278.3499 339.1761L278.3499 339.1761L278.3499 530.4261L278.3499 530.4261L26.34994 530.4261z" /></clipPath><clipPath id="22"><path id="" clip-rule="evenodd" transform="matrix(1 0 0 1 0 0)" d="M26.34994 414.1761L26.34994 454.7978C 26.34994 496.2191 59.92858 529.7978 101.3499 529.7978L101.3499 529.7978L203.0263 529.7978C 244.4477 529.7978 278.0263 496.2191 278.0263 454.7978L278.0263 454.7978L278.0263 414.1761C 278.0263 372.7548 244.4477 339.1761 203.0263 339.1761L203.0263 339.1761L101.3499 339.1761C 59.92858 339.1761 26.34994 372.7548 26.34994 414.1761z" /></clipPath><clipPath id="23"><path id="" clip-rule="evenodd" transform="matrix(1 0 0 1 0 0)" d="M26.34994 339.1761L278.3499 339.1761L278.3499 339.1761L278.3499 529.6761L278.3499 529.6761L26.34994 529.6761z" /></clipPath><clipPath id="24"><path id="" clip-rule="evenodd" transform="matrix(1 0 0 1 0 0)" d="M74.0068 595.1104L259.2568 595.1104L259.2568 595.1104L259.2568 751.1104L259.2568 751.1104L74.0068 751.1104z" /></clipPath><clipPath id="25"><path id="" clip-rule="evenodd" transform="matrix(1 0 0 1 0 0)" d="M0 -0.249939L595.5 -0.249939L595.5 -0.249939L595.5 842.0001L595.5 842.0001L0 842.0001z" /></clipPath><clipPath id="26"><path id="" clip-rule="evenodd" transform="matrix(1 0 0 1 0 0)" d="M0 -0.249939L595.5 -0.249939L595.5 -0.249939L595.5 842.0001L595.5 842.0001L0 842.0001z" /></clipPath><clipPath id="27"><path id="" clip-rule="evenodd" transform="matrix(1 0 0 1 0 0)" d="M314.4553 339.1761L555.2053 339.1761L555.2053 339.1761L555.2053 673.6761L555.2053 673.6761L314.4553 673.6761z" /></clipPath><clipPath id="28"><path id="" clip-rule="evenodd" transform="matrix(1 0 0 1 0 0)" d="M314.4553 367.6761L314.4553 644.6119C 314.4553 660.3521 327.2152 673.1119 342.9553 673.1119L342.9553 673.1119L526.6881 673.1119C 542.4283 673.1119 555.1881 660.3521 555.1881 644.6119L555.1881 644.6119L555.1881 367.6761C 555.1881 351.936 542.4283 339.1761 526.6881 339.1761L526.6881 339.1761L342.9553 339.1761C 327.2152 339.1761 314.4553 351.936 314.4553 367.6761z" /></clipPath><clipPath id="29"><path id="" clip-rule="evenodd" transform="matrix(1 0 0 1 0 0)" d="M315.2053 339.9261L554.4553 339.9261L554.4553 339.9261L554.4553 672.9261L554.4553 672.9261L315.2053 672.9261z" /></clipPath><clipPath id="30"><path id="" clip-rule="evenodd" transform="matrix(1 0 0 1 0 0)" d="M343.8553 340.0761L525.7882 340.0761C 541.5283 340.0761 554.2882 352.836 554.2882 368.5761L554.2882 368.5761L554.2882 643.7119C 554.2882 659.452 541.5283 672.2119 525.7882 672.2119L525.7882 672.2119L343.8553 672.2119C 328.1152 672.2119 315.3553 659.452 315.3553 643.7119L315.3553 643.7119L315.3553 368.5761C 315.3553 352.836 328.1152 340.0761 343.8553 340.0761z" /></clipPath><clipPath id="31"><path id="" clip-rule="evenodd" transform="matrix(1 0 0 1 0 0)" d="M0 -0.249939L595.5 -0.249939L595.5 -0.249939L595.5 842.0001L595.5 842.0001L0 842.0001z" /></clipPath><clipPath id="32"><path id="" clip-rule="evenodd" transform="matrix(1 0 0 1 0 0)" d="M0 -0.249939L595.5 -0.249939L595.5 -0.249939L595.5 842.0001L595.5 842.0001L0 842.0001z" /></clipPath><clipPath id="33"><path id="" clip-rule="evenodd" transform="matrix(1 0 0 1 0 0)" d="M314.4553 339.1761L555.2053 339.1761L555.2053 339.1761L555.2053 673.6761L555.2053 673.6761L314.4553 673.6761z" /></clipPath><clipPath id="34"><path id="" clip-rule="evenodd" transform="matrix(1 0 0 1 0 0)" d="M314.4553 367.6761L314.4553 644.6119C 314.4553 660.3521 327.2152 673.1119 342.9553 673.1119L342.9553 673.1119L526.6881 673.1119C 542.4283 673.1119 555.1881 660.3521 555.1881 644.6119L555.1881 644.6119L555.1881 367.6761C 555.1881 351.936 542.4283 339.1761 526.6881 339.1761L526.6881 339.1761L342.9553 339.1761C 327.2152 339.1761 314.4553 351.936 314.4553 367.6761z" /></clipPath><clipPath id="35"><path id="" clip-rule="evenodd" transform="matrix(1 0 0 1 0 0)" d="M314.4553 339.1761L555.2053 339.1761L555.2053 339.1761L555.2053 672.9261L555.2053 672.9261L314.4553 672.9261z" /></clipPath><clipPath id="36"><path id="" clip-rule="evenodd" transform="matrix(1 0 0 1 0 0)" d="M314.4553 339.1761L555.1991 339.1761L555.1991 339.1761L555.1991 673.6661L555.1991 673.6661L314.4553 673.6661z" /></clipPath><clipPath id="37"><path id="" clip-rule="evenodd" transform="matrix(1 0 0 1 0 0)" d="M314.4553 367.6753L314.4553 644.6027C 314.4553 660.3423 327.2149 673.1019 342.9546 673.1019L342.9546 673.1019L526.6826 673.1019C 542.4224 673.1019 555.1819 660.3423 555.1819 644.6027L555.1819 644.6027L555.1819 367.6753C 555.1819 351.9356 542.4224 339.1761 526.6826 339.1761L526.6826 339.1761L342.9546 339.1761C 327.2149 339.1761 314.4553 351.9356 314.4553 367.6753z" /></clipPath><clipPath id="38"><path id="" clip-rule="evenodd" transform="matrix(1 0 0 1 0 0)" d="M0 -0.249939L595.5 -0.249939L595.5 -0.249939L595.5 842.0001L595.5 842.0001L0 842.0001z" /></clipPath><clipPath id="39"><path id="" clip-rule="evenodd" transform="matrix(1 0 0 1 0 0)" d="M0 -0.249939L595.5 -0.249939L595.5 -0.249939L595.5 842.0001L595.5 842.0001L0 842.0001z" /></clipPath><clipPath id="40"><path id="" clip-rule="evenodd" transform="matrix(1 0 0 1 0 0)" d="M0 -0.249939L595.5 -0.249939L595.5 -0.249939L595.5 842.0001L595.5 842.0001L0 842.0001z" /></clipPath><clipPath id="41"><path id="" clip-rule="evenodd" transform="matrix(1 0 0 1 0 0)" d="M297.6378 701.9203L569.7831 701.9203L569.7831 701.9203L569.7831 771.4504L569.7831 771.4504L297.6378 771.4504z" /></clipPath><clipPath id="42"><path id="" clip-rule="evenodd" transform="matrix(1 0 0 1 0 0)" d="M323.1378 701.9203L544.0497 701.9203C 558.133 701.9203 569.5497 713.337 569.5497 727.4203L569.5497 727.4203L569.5497 745.9504C 569.5497 760.0336 558.133 771.4504 544.0497 771.4504L544.0497 771.4504L323.1378 771.4504C 309.0545 771.4504 297.6378 760.0336 297.6378 745.9504L297.6378 745.9504L297.6378 727.4203C 297.6378 713.337 309.0545 701.9203 323.1378 701.9203z" /></clipPath><clipPath id="43"><path id="" clip-rule="evenodd" transform="matrix(1 0 0 1 0 0)" d="M0 -0.249939L595.5 -0.249939L595.5 -0.249939L595.5 842.0001L595.5 842.0001L0 842.0001z" /></clipPath><clipPath id="44"><path id="" clip-rule="evenodd" transform="matrix(1 0 0 1 0 0)" d="M0 -0.249939L595.5 -0.249939L595.5 -0.249939L595.5 842.0001L595.5 842.0001L0 842.0001z" /></clipPath><clipPath id="45"><path id="" clip-rule="evenodd" transform="matrix(1 0 0 1 0 0)" d="M297.6378 701.9203L569.8878 701.9203L569.8878 701.9203L569.8878 771.6703L569.8878 771.6703L297.6378 771.6703z" /></clipPath><clipPath id="46"><path id="" clip-rule="evenodd" transform="matrix(1 0 0 1 0 0)" d="M297.6424 701.9203L573.1929 701.9203L573.1929 701.9203L573.1929 773.6389L573.1929 773.6389L297.6424 773.6389z" /></clipPath><clipPath id="47"><path id="" clip-rule="evenodd" transform="matrix(1 0 0 1 0 0)" d="M323.1413 701.9203L544.0444 701.9203C 558.1271 701.9203 569.5434 713.3365 569.5434 727.4193L569.5434 727.4193L569.5434 745.9487C 569.5434 760.0313 558.1271 771.4476 544.0444 771.4476L544.0444 771.4476L323.1413 771.4476C 309.0587 771.4476 297.6424 760.0313 297.6424 745.9487L297.6424 745.9487L297.6424 727.4193C 297.6424 713.3365 309.0587 701.9203 323.1413 701.9203z" /></clipPath><clipPath id="48"><path id="" clip-rule="evenodd" transform="matrix(1 0 0 1 0 0)" d="M511.9705 741.1674L559.2205 741.1674L559.2205 741.1674L559.2205 810.9174L559.2205 810.9174L511.9705 810.9174z" /></clipPath><clipPath id="49"><path id="" clip-rule="evenodd" transform="matrix(1 0 0 1 0 0)" d="M0 -0.249939L595.5 -0.249939L595.5 -0.249939L595.5 842.0001L595.5 842.0001L0 842.0001z" /></clipPath></defs><g transform="matrix(1.333333 0 0 1.333333 0 0)"><g clip-path="url(#1)"><g clip-path="url(#2)"><path id="1" transform="matrix(1 0 0 -1 0 842)" d="M0 842.2499L595.4999 842.2499L595.4999 -6.103516E-05L0 -6.103516E-05z" stroke="none" fill="#FFFFFF" fill-rule="nonzero" /></g><g clip-path="url(#3)"><path id="2" transform="matrix(1 0 0 -1 0 842)" d="M0 842.2499L595.4999 842.2499L595.4999 -6.103516E-05L0 -6.103516E-05z" stroke="none" fill="#FFFFFF" fill-rule="nonzero" /></g><g clip-path="url(#4)"><g><g clip-path="url(#5)"><g clip-path="url(#6)"><g transform="matrix(0 0.5128205 -0.5127462 0 535.7446 30.75189)"><g transform="matrix(1 0 0 1 0 0)"><image x="0" y="0" xlink:href="img_01.png" width="1521" height="863" /></g></g></g></g></g></g><g clip-path="url(#7)"><path id="4" transform="matrix(1 0 0 -1 0 842)" d="M-112.7455 837.1385C -112.4957 837.1385 -112.2913 836.7296 -112.2913 836.2299C -112.2913 835.7301 -112.4957 835.3212 -112.7455 835.3212C -112.9954 835.3212 -113.1998 835.7301 -113.1998 836.2299C -113.1998 836.7296 -112.9955 837.1385 -112.7455 837.1385zM71.80966 896.5432C 68.87009 896.5289 65.87624 896.2701 62.87552 895.7589C 55.73042 894.5415 39.16467 890.0646 26.91302 886.0405C 9.875854 880.4442 5.174438 879.6276 -9.842896 879.6561C -18.61777 879.6728 -21.16574 879.8369 -25.7439 880.6803C -34.50668 882.2946 -39.84586 883.7981 -46.86972 886.6296C -53.57925 889.3345 -65.22763 892.9615 -70.41064 893.9598C -75.67554 894.9738 -84.49939 893.6798 -90.02979 891.0826C -96.92987 887.8422 -105.1519 876.6485 -108.465 865.9839C -109.163 863.7372 -111.3231 858.83 -113.2652 855.0793C -117.7313 846.454 -119.1934 842.8953 -120.9357 836.4109C -124.4717 823.2504 -124.8434 813.7912 -122.2859 802.0521C -120.5511 794.0885 -111.8835 774.6996 -106.2504 766.1816C -99.84293 756.4923 -89.49606 750.8688 -74.25424 748.7914C -68.63098 748.025 -67.22647 748.0043 -58.97025 748.5659C -51.64911 749.064 -38.17822 751.4227 -31.87726 753.3101C -25.81378 755.1262 -22.30252 756.5504 -12.7959 761.0497C 1.767822 767.9423 6.459229 769.1687 18.09756 769.1245C 27.19968 769.0901 33.07735 768.3261 41.94771 766.0248C 47.45399 764.5963 59.45975 760.6931 64.66502 758.639C 65.91437 758.1461 68.67433 757.3154 70.79826 756.7933C 85.08089 753.2822 94.36226 755.5439 102.9226 764.6218C 109.9665 772.0916 113.254 781.6796 112.1579 791.5556C 111.2134 800.0656 109.3869 806.3806 105.0676 816.0695C 100.4828 826.3539 100.0948 827.942 100.1413 836.2299C 100.1859 844.163 100.9214 847.4603 104.3693 855.1835C 109.1844 865.9694 109.6337 871.8495 106.1803 878.8814C 104.408 882.4901 99.43039 887.8146 95.52084 890.2837C 88.95892 894.4279 80.62839 896.5859 71.80968 896.5432L71.80968 896.5432L71.80966 896.5432z" stroke="none" fill="#737373" fill-rule="nonzero" /></g><g clip-path="url(#8)"><g><g clip-path="url(#9)"><g clip-path="url(#10)"><g clip-path="url(#11)"><path id="5" transform="matrix(1 0 0 -1 0 842)" d="M55.83958 861.6552C 51.05727 869.194 44.39966 875.3835 36.36301 879.3142C 29.48233 882.6778 21.95248 884.4905 14.32938 885.0507C 6.659744 885.6138 -1.122658 884.9387 -8.619965 883.2523C -15.84509 881.6271 -22.92596 879.0478 -29.38969 875.4172C -35.15696 872.1769 -40.52877 868.0569 -44.61165 862.8131C -46.35431 860.575 -47.79856 858.1202 -48.86871 855.4916C -50.00961 852.6481 -50.62092 849.5814 -50.47797 846.5126C -50.34314 843.6206 -49.65775 840.8245 -48.74953 838.0862C -48.24245 836.5574 -47.68123 835.0479 -47.12034 833.5383C -46.50544 831.8832 -46.09135 830.7867 -45.52229 829.1473C -44.26451 825.5245 -43.22304 821.8301 -42.56097 818.0502C -40.85257 808.2946 -41.62211 798.0684 -44.10872 788.5125C -45.15382 784.4967 -46.53857 780.5854 -48.07514 776.7336C -49.30875 773.6411 -50.656 770.5863 -51.72578 767.4302C -52.6472 764.7134 -53.3565 761.8513 -53.33175 758.9652C -53.3037 755.7053 -52.37069 752.5447 -50.78981 749.7033C -46.52829 742.0426 -38.31034 737.3568 -30.08457 735.0773C -21.37277 732.6633 -11.98883 732.5996 -3.419289 735.6205C 5.284714 738.6888 12.894 744.3357 18.70271 751.4719C 21.28703 754.6486 23.47037 758.143 25.10678 761.8983C 26.49741 765.0887 27.48296 768.5571 27.58554 772.0534C 27.63182 773.6133 27.50392 775.208 27.1198 776.7229C 26.55254 778.9651 25.44029 780.9525 24.10714 782.8212C 21.83025 786.0132 18.72929 788.9614 18.63715 793.0737C 18.53601 797.5825 21.16901 801.954 24.71986 804.5936C 27.89751 806.956 31.5329 807.3787 35.11978 806.4784C 38.54456 805.618 41.72156 803.9579 45.17781 803.2084C 46.98312 802.817 48.81137 802.668 50.64117 803C 52.44647 803.3265 54.10225 804.1352 55.56877 805.2186C 58.57268 807.4377 60.4787 810.9272 61.77075 814.3549C 63.23859 818.2456 64.00168 822.4131 64.39543 826.5426C 64.88297 831.653 64.81046 836.8177 63.7623 841.8507C 62.31096 848.8203 59.65613 855.6401 55.83958 861.6552M-41.60168 862.1819C -41.57212 862.218 -41.58167 862.2062 -41.60168 862.1819zM61.20587 840.5753C 61.36723 839.7515 61.50981 838.9246 61.62486 838.0933C 61.65865 837.8505 61.69102 837.6078 61.71796 837.3646C 61.72586 837.2926 61.73358 837.2214 61.74156 837.1491C 61.74492 837.1133 61.74738 837.0944 61.7486 837.0856C 61.74931 837.0698 61.75163 837.0436 61.75481 837.0009C 62.05447 833.1718 61.9549 829.303 61.51399 825.4894C 61.06207 821.5748 60.22839 817.6655 58.6666 814.0084C 58.02142 812.4977 57.12157 810.8798 56.03198 809.4962C 55.98259 809.4335 55.93295 809.3718 55.88258 809.3103C 55.85866 809.2817 55.81367 809.2273 55.80592 809.2183C 55.66837 809.059 55.52676 808.9023 55.38255 808.7495C 55.08192 808.4315 54.76752 808.1272 54.43753 807.8399C 53.7666 807.2567 53.4687 807.046 52.68367 806.6207C 51.87524 806.1833 51.39436 805.9955 50.53252 805.7938C 49.62204 805.581 49.21074 805.5472 48.3454 805.5643C 46.62073 805.6 45.31599 805.9482 43.62862 806.4981C 40.22638 807.6074 36.96397 809.1507 33.37625 809.5952C 29.10269 810.1254 24.97966 808.5994 21.79327 805.7555C 18.32539 802.6597 15.77598 797.9473 15.88167 793.2164C 15.93068 791.0155 16.57114 788.9156 17.67795 787.0174C 18.73401 785.2043 20.10073 783.5959 21.36235 781.9269C 22.55681 780.3479 23.70036 778.6013 24.27853 776.6639C 24.49616 775.9363 24.64846 775.1897 24.74367 774.4357C 24.75997 774.3051 24.77403 774.1738 24.78703 774.0425C 24.79024 773.9949 24.8084 773.7678 24.81207 773.707C 24.83459 773.3106 24.84264 772.912 24.83782 772.5151C 24.82745 771.7309 24.76805 770.9484 24.66663 770.1704C 24.55164 769.2776 24.47707 768.8927 24.26836 768.0167C 23.85732 766.2846 23.27402 764.5944 22.57384 762.9583C 19.40977 755.5721 13.65845 748.9946 7.104301 744.2229C -0.03875732 739.0223 -8.69223 735.9707 -17.46133 736.0499C -25.84128 736.1263 -34.56627 738.4269 -41.41001 743.3817C -44.6166 745.7032 -47.32011 748.6899 -49.00719 752.272C -49.17344 752.6252 -49.33005 752.9821 -49.47549 753.3433C -49.52989 753.478 -49.58219 753.6141 -49.6335 753.7505C -49.63814 753.77 -49.75591 754.1051 -49.77929 754.1764C -50.00166 754.8578 -50.18322 755.5527 -50.31796 756.256C -50.38267 756.5948 -50.43719 756.9362 -50.48022 757.2791C -50.49918 757.4296 -50.51502 757.58 -50.53101 757.7311C -50.5313 757.7356 -50.5317 757.739 -50.5322 757.7444C -50.53939 757.8416 -50.54614 757.9398 -50.55148 758.038C -50.58905 758.7088 -50.58479 759.3822 -50.54322 760.0535C -50.50098 760.728 -50.42116 761.4007 -50.31079 762.0673C -50.30032 762.1301 -50.26709 762.3101 -50.2577 762.3636C -50.23001 762.5043 -50.20213 762.6456 -50.17223 762.7856C -50.09527 763.147 -50.01 763.5054 -49.91847 763.8638C -49.5575 765.2717 -49.09512 766.6517 -48.59295 768.0151C -47.4191 771.2004 -46.04983 774.3098 -44.825 777.4751C -41.39938 786.3275 -39.258 795.5928 -38.94913 805.1035C -38.79543 809.8323 -39.11322 814.5905 -39.97585 819.2443C -40.6553 822.9109 -41.69162 826.494 -42.92214 830.0104C -43.47989 831.6034 -44.07056 833.185 -44.65852 834.7668C -44.78617 835.1105 -44.91382 835.4542 -45.04081 835.798C -45.07011 835.8787 -45.09959 835.9588 -45.129 836.0385C -45.13343 836.0507 -45.13758 836.0616 -45.1411 836.0712C -45.1447 836.0812 -45.14898 836.0928 -45.15503 836.1092C -45.2268 836.3067 -45.29841 836.5036 -45.36925 836.7017C -45.61924 837.3965 -45.86297 838.0944 -46.09411 838.7951C -46.52882 840.1157 -46.92089 841.4509 -47.21688 842.8091C -47.3622 843.4752 -47.4842 844.1475 -47.57653 844.8239C -47.61993 845.1417 -47.65467 845.4597 -47.6861 845.7784C -47.68654 845.7835 -47.68694 845.7869 -47.68741 845.7906C -47.68784 845.7957 -47.68791 845.7992 -47.68842 845.8046C -47.69358 845.8799 -47.69907 845.9552 -47.7039 846.0306C -47.71597 846.2191 -47.72523 846.4075 -47.73185 846.5964C -47.83706 849.5651 -47.3503 851.8846 -46.24249 854.645C -46.11303 854.9638 -45.97845 855.2798 -45.83704 855.5933C -45.81237 855.6484 -45.73303 855.8164 -45.70929 855.8679C -45.63712 856.0179 -45.56381 856.1676 -45.4888 856.3159C -45.17229 856.9429 -44.83165 857.5581 -44.46948 858.1594C -43.72343 859.4004 -42.8868 860.5853 -41.98162 861.7148C -41.879 861.8434 -41.77484 861.9714 -41.67012 862.0984C -41.65998 862.1107 -41.6511 862.1224 -41.64284 862.1322C -41.59457 862.1891 -41.5462 862.247 -41.49727 862.3041C -41.23904 862.6047 -40.97765 862.9036 -40.71062 863.1974C -40.19631 863.7628 -39.66534 864.3141 -39.11989 864.8502C -38.00864 865.9434 -36.83784 866.9748 -35.62225 867.9497C -34.98614 868.4592 -34.33775 868.954 -33.67875 869.4338C -33.2759 869.7264 -33.26003 869.7379 -32.84441 870.0247C -32.50018 870.2615 -32.15354 870.4955 -31.80438 870.7258C -30.37569 871.6658 -28.90581 872.5435 -27.40486 873.3624C -24.32412 875.0445 -21.11007 876.4863 -17.81605 877.6965C -17.77837 877.71 -17.70158 877.7385 -17.69253 877.7415C -17.57243 877.7847 -17.45274 877.8281 -17.3325 877.8707C -17.11636 877.9479 -16.89944 878.0233 -16.68253 878.0986C -16.24664 878.2494 -15.80989 878.3962 -15.37166 878.5396C -14.48956 878.8274 -13.6027 879.1 -12.71108 879.3573C -10.9101 879.8765 -9.091148 880.3333 -7.258972 880.727C -3.688286 881.4948 0.1449585 882.0539 3.618683 882.2974C 11.03909 882.8192 18.57099 882.2958 25.65267 880.3911C 33.0256 878.4075 39.86855 875.0009 45.54495 869.7815C 48.9007 866.6945 51.77428 863.1154 54.11536 859.206C 55.1806 857.4268 56.14203 855.5859 57.00264 853.6993C 57.7518 852.0579 58.45488 850.301 58.98038 848.7863C 59.91037 846.1053 60.66296 843.3605 61.20587 840.5753z" stroke="none" fill="#737373" fill-rule="nonzero" fill-opacity="0.7490196" /></g></g></g></g></g><g clip-path="url(#12)"><path id="6" transform="matrix(1 0 0 -1 0 842)" d="M545.014 -67.59694C 549.2658 -59.03468 556.3326 -51.35208 556.8898 -41.82216C 557.7108 -28.01109 544.4862 -15.93007 546.3922 -2.236305C 547.9169 8.759766 558.8544 16.17845 569.7039 18.58292C 580.524 20.9874 591.8426 19.8438 602.8386 21.39792C 616.6497 23.33323 629.4638 29.43238 642.2485 34.9744C 655.0333 40.51643 668.4338 45.70657 682.3622 45.64792C 696.2906 45.58928 711.04 39.16757 717.2858 26.70536C 721.0097 19.316 721.3909 10.69508 724.2939 2.95385C 729.7479 -11.61961 743.1778 -21.3548 753.9686 -32.5268C 764.7888 -43.69882 773.7615 -60.09029 767.4865 -74.31187C 760.6542 -89.79433 740.2455 -93.57698 728.6337 -105.8633C 717.7842 -117.3285 714.588 -136.2124 700.3078 -142.9567C 690.6019 -147.531 678.9901 -144.5987 669.2842 -139.9951C 659.5784 -135.3914 650.4883 -129.1163 640.02 -126.7704C 614.9783 -121.1698 587.9133 -134.8636 562.813 -126.1253C 540.9381 -118.4428 535.7186 -86.2756 545.014 -67.59694z" stroke="none" fill="#737373" fill-rule="nonzero" /></g><g clip-path="url(#13)"><g clip-path="url(#14)"><g clip-path="url(#15)"><g clip-path="url(#16)"><path id="7" transform="matrix(1 0 0 -1 0 842)" d="M-110.2676 -7.235251C -102.496 -15.74886 -92.64249 -22.12636 -81.54198 -25.3222C -72.03851 -28.0562 -62.05739 -28.67266 -52.23856 -27.67546C -42.35992 -26.67156 -32.61552 -24.068 -23.46043 -20.24246C -14.63771 -16.55569 -6.212387 -11.68805 1.192467 -5.622033C 7.799278 -0.2086339 13.70592 6.23491 17.72165 13.81823C 19.43565 17.05489 20.72163 20.50015 21.49291 24.08264C 22.306 27.95406 22.39561 31.99069 21.52567 35.86079C 20.7057 39.50785 19.20718 42.9096 17.43827 46.18779C 16.45066 48.01799 15.39854 49.81158 14.34682 51.60534C 13.19378 53.57201 12.42137 54.87336 11.33012 56.83048C 8.918396 61.15492 6.76564 65.61909 5.076141 70.27703C 0.7161484 82.29871 -0.5985107 95.47441 0.4204559 108.183C 0.8488617 113.5236 1.732529 118.8076 2.822632 124.0499C 3.697731 128.2589 4.72583 132.4453 5.378357 136.6984C 5.940758 140.3596 6.200859 144.158 5.522202 147.8222C 4.755493 151.9611 2.860374 155.7708 0.2130203 159.0293C -6.923637 167.8147 -18.42401 171.9301 -29.39471 172.9839C -41.0136 174.1 -52.96011 172.0766 -63.17934 166.3137C -73.55893 160.4603 -81.96828 151.5735 -87.75414 141.1969C -90.3279 136.5781 -92.32051 131.6451 -93.55919 126.5031C -94.61198 122.1344 -95.0874 117.5031 -94.43382 113.0344C -94.14287 111.0406 -93.62262 109.0414 -92.79448 107.2013C -91.57037 104.4774 -89.71042 102.1998 -87.59618 100.1225C -83.98517 96.57429 -79.381 93.52084 -78.34171 88.3126C -77.202 82.60204 -79.56973 76.45304 -83.49289 72.30023C -87.00371 68.58379 -91.53154 67.2311 -96.29434 67.57157C -100.8421 67.89755 -105.2541 69.2961 -109.817 69.47405C -112.2003 69.56693 -114.5585 69.34638 -116.8107 68.5139C -119.033 67.6938 -120.9571 66.29427 -122.5789 64.58774C -125.9009 61.09248 -127.542 56.22796 -128.4163 51.57978C -129.4103 46.30328 -129.446 40.83289 -129.0207 35.49377C -128.4946 28.88629 -127.2443 22.33536 -124.7828 16.17057C -121.3745 7.633909 -116.4694 -0.4426446 -110.2676 -7.235251M13.75278 13.94579C 13.72326 13.8933 13.73275 13.91049 13.75278 13.94579zM-121.8182 18.36558C -122.2081 19.37694 -122.5748 20.39647 -122.9075 21.42768C -123.0049 21.7288 -123.1006 22.03018 -123.1893 22.33343C -123.2155 22.42313 -123.2413 22.51202 -123.2677 22.60213C -123.28 22.64683 -123.2873 22.67034 -123.2908 22.6812C -123.2953 22.70118 -123.3041 22.73403 -123.3178 22.78766C -124.5574 27.58928 -125.2984 32.53106 -125.593 37.47905C -125.8961 42.55809 -125.7127 47.71589 -124.5469 52.71637C -124.0653 54.78196 -123.2839 57.0411 -122.2087 59.04472C -122.1599 59.13552 -122.1106 59.2251 -122.0604 59.31461C -122.0364 59.3563 -121.9914 59.43557 -121.9836 59.44876C -121.8444 59.68218 -121.6994 59.91321 -121.5503 60.13981C -121.2394 60.61156 -120.9079 61.06905 -120.5527 61.50834C -119.8303 62.40039 -119.4988 62.7351 -118.5959 63.45189C -117.666 64.18932 -117.0967 64.53599 -116.0461 64.98576C -114.9361 65.46053 -114.4206 65.59576 -113.3165 65.768C -111.1154 66.10946 -109.3783 65.95914 -107.1094 65.63836C -102.5345 64.99077 -98.04007 63.75997 -93.37839 63.99928C -87.82545 64.2835 -82.92499 67.14851 -79.51103 71.47919C -75.79564 76.19332 -73.61064 82.75704 -74.80594 88.74902C -75.3618 91.53658 -76.64705 94.06307 -78.4801 96.22855C -80.22954 98.29726 -82.32806 100.0359 -84.30658 101.8753C -86.17947 103.6152 -88.02522 105.5796 -89.19487 107.9135C -89.63477 108.7899 -89.99585 109.7051 -90.286 110.6425C -90.336 110.8048 -90.38335 110.9687 -90.42931 111.1328C -90.44405 111.1926 -90.51808 111.4773 -90.53636 111.5536C -90.6539 112.0527 -90.75352 112.5577 -90.8364 113.0635C -90.99907 114.063 -91.09901 115.0714 -91.1445 116.0833C -91.1985 117.2444 -91.18999 117.7504 -91.12103 118.9111C -90.9868 121.2058 -90.62413 123.4858 -90.10069 125.7233C -87.73372 135.8246 -81.89558 145.4781 -74.63164 153.0153C -66.71504 161.23 -56.39598 167.0508 -45.2278 168.9166C -34.55506 170.6985 -22.94484 169.7297 -13.13153 164.9642C -8.533554 162.7312 -4.426147 159.5398 -1.477646 155.3632C -1.187042 154.9513 -0.9079132 154.5328 -0.6419525 154.106C -0.5425797 153.947 -0.445549 153.7856 -0.3497238 153.6237C -0.339447 153.6 -0.114563 153.2003 -0.06884003 153.1149C 0.3667221 152.2983 0.7534332 151.4553 1.082443 150.5914C 1.240715 150.1751 1.386597 149.7532 1.518204 149.3268C 1.576065 149.1397 1.629944 148.952 1.684158 148.7634C 1.685516 148.7578 1.68679 148.7536 1.68866 148.7467C 1.719574 148.6249 1.750183 148.5014 1.779015 148.3778C 1.977203 147.5332 2.122803 146.676 2.220459 145.8132C 2.318001 144.946 2.367355 144.0727 2.376503 143.2003C 2.377274 143.1181 2.375397 142.8817 2.375458 142.8116C 2.371773 142.6266 2.368027 142.4406 2.361404 142.2558C 2.344589 141.779 2.316528 141.3042 2.280502 140.828C 2.137238 138.9568 1.858749 137.0984 1.525932 135.2522C 0.7476349 130.9386 -0.2962189 126.6778 -1.143845 122.3783C -3.514603 110.3537 -4.159752 98.09212 -2.419754 85.92946C -1.554779 79.88208 -0.08370972 73.90308 2.056793 68.17889C 3.742989 63.66891 5.864212 59.34534 8.217438 55.14986C 9.283875 53.24935 10.38961 51.37075 11.49194 49.49124C 11.73133 49.08285 11.97072 48.67447 12.20929 48.26574C 12.26466 48.16962 12.32009 48.07447 12.37536 47.97972C 12.38374 47.96518 12.39146 47.95224 12.3981 47.94076C 12.40491 47.92887 12.41295 47.91514 12.42432 47.89565C 12.55987 47.66055 12.69508 47.42627 12.82957 47.19027C 13.30326 46.36285 13.76968 45.53007 14.22072 44.69094C 15.06962 43.10922 15.86757 41.49934 16.54852 39.83874C 16.88266 39.02431 17.18855 38.1968 17.45764 37.35739C 17.58409 36.96302 17.69957 36.5665 17.811 36.1683C 17.81271 36.16189 17.81397 36.15767 17.81541 36.15305C 17.81711 36.14664 17.81797 36.14226 17.81984 36.13544C 17.84329 36.04082 17.86714 35.94638 17.89019 35.85159C 17.9478 35.61464 18.00183 35.37715 18.05263 35.13833C 18.85213 31.38705 18.75333 28.3285 17.96369 24.57012C 17.87056 24.13576 17.77031 23.70367 17.66077 23.27343C 17.64178 23.19778 17.57857 22.96637 17.55992 22.89561C 17.50181 22.68859 17.44214 22.48188 17.38002 22.27652C 17.11815 21.40831 16.82297 20.54958 16.49729 19.70384C 15.82693 17.95852 15.02881 16.26424 14.13111 14.62507C 14.02948 14.43847 13.92571 14.25241 13.82105 14.0674C 13.81092 14.04947 13.80224 14.03261 13.79395 14.01827C 13.74533 13.93513 13.69681 13.8506 13.64738 13.76712C 13.38644 13.32695 13.12109 12.88827 12.84746 12.45471C 12.32025 11.62052 11.76872 10.80046 11.19535 9.996511C 10.0275 8.357122 8.77005 6.783119 7.44297 5.270904C 6.748375 4.48039 6.034882 3.705774 5.304512 2.947893C 4.85788 2.485515 4.840271 2.467332 4.376091 2.009559C 3.991501 1.63113 3.603203 1.255918 3.210876 0.8847251C 1.604973 -0.6308141 -0.06723022 -2.07655 -1.792114 -3.454449C -5.33226 -6.284096 -9.095818 -8.838144 -13.01295 -11.11571C -13.05782 -11.14137 -13.14909 -11.19472 -13.15993 -11.20063C -13.30295 -11.28248 -13.4454 -11.36457 -13.58876 -11.44561C -13.84627 -11.59232 -14.10519 -11.73676 -14.36411 -11.8812C -14.88454 -12.17068 -15.407 -12.4553 -15.93209 -12.7358C -16.98917 -13.29964 -18.05573 -13.84513 -19.13179 -14.37224C -21.30541 -15.43632 -23.51587 -16.42506 -25.7573 -17.33652C -30.12547 -19.11346 -34.87428 -20.68404 -39.23674 -21.77259C -48.55518 -24.10011 -58.24979 -25.12373 -67.68167 -24.2898C -77.5016 -23.42089 -86.96672 -20.62364 -95.35504 -15.25981C -100.3143 -12.08709 -104.7708 -8.180395 -108.6243 -3.734358C -110.3778 -1.710932 -112.0131 0.4143958 -113.5305 2.620245C -114.8512 4.539442 -116.1392 6.615819 -117.147 8.42391C -118.9308 11.62438 -120.5033 14.94579 -121.8182 18.36558z" stroke="none" fill="#737373" fill-rule="nonzero" /></g></g></g></g><g clip-path="url(#17)"><path id="8" transform="matrix(1 0 0 -1 0 842)" d="M-183.5343 184.9293C -191.2015 171.5538 -187.9297 154.4857 -183.6606 139.5447C -179.3935 124.6017 -174.3438 108.5835 -179.12 93.81088C -180.5634 89.34396 -182.8926 85.09377 -183.2292 80.39328C -183.8731 71.41737 -176.8308 63.44719 -168.7806 60.24481C -160.7326 57.04242 -151.8472 57.47165 -143.2374 57.64839C -134.6275 57.82513 -125.6137 57.60211 -118.0391 53.32034C -102.6669 44.63057 -98.82485 22.98401 -85.72287 10.89197C -75.77277 1.707748 -61.44412 -0.8192291 -48.28532 1.017609C -35.12444 2.852356 -22.78622 8.550156 -10.65422 14.18272C 7.316559 22.52742 25.4241 30.95207 41.43599 42.87999C 56.32433 53.9705 69.45366 68.40015 76.34236 86.10161C 83.23314 103.8031 83.16371 125.0435 73.43034 141.2175C 65.44331 154.4857 51.09573 165.149 50.6665 180.818C 50.41402 190.0253 55.31227 199.0497 53.70688 208.1076C 50.0374 228.7948 21.81984 231.9046 6.062546 229.6217C -12.79195 226.8906 -28.54083 215.7896 -41.70172 201.9869C -50.21686 193.0594 -58.2691 181.8868 -71.04074 180.0879C -90.07196 177.4073 -109.4735 191.919 -126.8636 197.823C -145.6023 204.1878 -171.882 205.2587 -183.5343 184.9293" stroke="none" fill="#737373" fill-rule="nonzero" /></g><g clip-path="url(#18)"><g transform="matrix(0.06952663 0 0 0.06952491 482.0088 11.00061)"><g transform="matrix(1 0 0 1 0 0)"><image x="0" y="0" xlink:href="img_02.png" width="1521" height="863" /></g></g></g><g clip-path="url(#19)"><g clip-path="url(#20)"><g clip-path="url(#21)"><g clip-path="url(#22)"><g clip-path="url(#23)"><g transform="matrix(0.6051624 0 0 0.6047618 26.34993 339.1761)"><g transform="matrix(1 0 0 1 0 0)"><image x="0" y="0" xlink:href="img_03.png" width="523" height="315" /></g></g></g></g></g></g></g><g clip-path="url(#24)"><g transform="matrix(0.5369565 0 0 0.5382652 74.00679 594.0115)"><g transform="matrix(1 0 0 1 0 0)"><image x="0" y="0" xlink:href="img_04.png" width="345" height="294" /></g></g></g><g clip-path="url(#25)"><g clip-path="url(#26)"><g clip-path="url(#27)"><g clip-path="url(#28)"><g clip-path="url(#29)"><g clip-path="url(#30)"><g transform="matrix(0.622093 0 0 0.6226678 314.4553 339.1762)"><g transform="matrix(1 0 0 1 0 0)"><image x="0" y="0" xlink:href="img_05.png" width="387" height="536" /></g></g></g></g></g></g></g></g><g clip-path="url(#31)"><g clip-path="url(#32)"><g clip-path="url(#33)"><g clip-path="url(#34)"><g clip-path="url(#35)"><g clip-path="url(#36)"><g clip-path="url(#37)"><path id="13" transform="matrix(1 0 0 -1 0 842)" d="M314.4553 474.3247L314.4553 197.3972C 314.4553 181.6576 327.2149 168.8981 342.9546 168.8981L342.9546 168.8981L526.6826 168.8981C 542.4224 168.8981 555.1819 181.6576 555.1819 197.3972L555.1819 197.3972L555.1819 474.3247C 555.1819 490.0644 542.4224 502.8239 526.6826 502.8239L526.6826 502.8239L342.9546 502.8239C 327.2149 502.8239 314.4553 490.0644 314.4553 474.3247z" stroke="#000000" stroke-width="3" fill="none" /></g></g></g></g></g></g></g><g clip-path="url(#38)"></g><g clip-path="url(#39)"><g clip-path="url(#40)"><g clip-path="url(#41)"><g clip-path="url(#42)"><path id="22" transform="matrix(1 0 0 -1 0 842)" d="M297.6378 140.0797L569.5115 140.0797L569.5115 70.54958L297.6378 70.54958z" stroke="none" fill="#7ED957" fill-rule="nonzero" /></g></g></g></g><g clip-path="url(#43)"><g clip-path="url(#44)"><g clip-path="url(#45)"><g clip-path="url(#46)"><g clip-path="url(#47)"><path id="23" transform="matrix(1 0 0 -1 0 842)" d="M323.1413 140.0797L544.0444 140.0797C 558.1271 140.0797 569.5433 128.6635 569.5433 114.5807L569.5433 114.5807L569.5433 96.05135C 569.5433 81.96866 558.1271 70.55238 544.0444 70.55238L544.0444 70.55238L323.1413 70.55238C 309.0586 70.55238 297.6423 81.96866 297.6423 96.05135L297.6423 96.05135L297.6423 114.5807C 297.6423 128.6635 309.0586 140.0797 323.1413 140.0797z" stroke="#000000" stroke-width="1.5" fill="none" /></g></g></g></g></g><g clip-path="url(#48)"><path id="24" transform="matrix(1 0 0 -1 0 842)" d="M539.642 85.05203C 539.4955 85.72629 539.9237 86.39194 540.5991 86.53827L540.5991 86.53827L546.4822 87.81792C 547.1576 87.96426 547.8243 87.53674 547.9709 86.86249C 548.1175 86.18822 547.6893 85.52258 547.0139 85.37624L547.0139 85.37624L541.1308 84.09659C 540.4554 83.94739 539.7886 84.37777 539.642 85.05203zM535.4201 91.06872C 534.8338 91.43597 534.6556 92.20492 535.0235 92.79023L535.0235 92.79023L538.2223 97.88304C 538.5901 98.46836 539.3604 98.64625 539.9467 98.27899C 540.533 97.91174 540.7112 97.14279 540.3433 96.55748L540.3433 96.55748L537.1474 91.46467C 536.7795 90.87935 536.0064 90.70146 535.4201 91.06872zM520.4436 80.51297C 520.5902 79.83871 520.162 79.17306 519.4866 79.02673L519.4866 79.02673L513.6035 77.74707C 512.9281 77.60074 512.2613 78.02825 512.1147 78.70251C 511.9682 79.37677 512.3964 80.04242 513.0718 80.18875L513.0718 80.18875L518.9549 81.46841C 519.6303 81.61474 520.2971 81.18723 520.4436 80.51297zM521.6249 88.10771C 521.257 87.5224 520.4868 87.34451 519.9005 87.71177L519.9005 87.71177L514.7962 90.90517C 514.2099 91.27243 514.0317 92.04137 514.3996 92.62669C 514.7675 93.21201 515.5377 93.38989 516.124 93.02264L516.124 93.02264L521.2253 89.8321C 521.8145 89.46484 521.9899 88.69303 521.6249 88.10771zM527.9189 92.3742C 527.2435 92.22787 526.5768 92.65538 526.4302 93.32964L526.4302 93.32964L525.1512 99.20287C 525.0047 99.87713 525.4329 100.5428 526.1083 100.6891C 526.7837 100.8354 527.4505 100.4079 527.597 99.73367L527.597 99.73367L528.8788 93.86044C 529.0226 93.18618 528.5944 92.52053 527.9189 92.3742zM557.3259 39.95697C 556.5757 36.95867 554.1731 34.35345 551.2588 33.3148C 549.5833 32.71801 547.7698 32.60037 546.0051 32.6262C 544.1342 32.65202 542.2603 32.80122 540.3922 32.91025C 539.4437 32.96476 538.4953 33.02215 537.5497 33.08527C 536.6559 33.14552 535.7535 33.16273 534.8625 33.24882C 534.1527 33.31768 533.483 33.5013 532.9226 33.96037C 532.3191 34.45387 531.796 35.06214 531.2442 35.61302C 528.5599 38.29285 525.8755 40.97267 523.1912 43.6525C 520.8029 46.03679 518.4146 48.42109 516.0262 50.80538C 515.7101 51.12099 515.3997 51.42226 515.1698 51.81247C 514.8652 52.33179 514.7128 52.92284 514.7186 53.52537C 514.733 54.81077 515.5521 56.09904 516.8022 56.50646C 517.5524 56.75321 518.3657 56.73312 519.0986 56.4376C 519.478 56.28553 519.8344 56.04452 520.1879 55.84081C 520.5471 55.63422 520.9064 55.42764 521.2656 55.21819C 522.6997 54.39186 524.131 53.56554 525.5651 52.73921C 525.6801 52.67323 525.795 52.60723 525.91 52.54124C 526.3813 52.26867 526.9907 52.61584 526.9907 53.16098C 526.9907 53.8582 526.9907 54.55541 526.9907 55.25262C 526.9907 57.00283 526.9907 58.75591 526.9907 60.50611C 526.9907 62.80146 526.9907 65.09969 526.9907 67.39503C 526.9907 69.72768 526.9907 72.06033 526.9907 74.39011C 526.9907 76.24075 526.9907 78.09137 526.9907 79.942C 526.9907 80.82284 526.9878 81.70368 526.9907 82.58452C 526.9964 83.63751 527.4591 84.63599 528.3098 85.27295C 529.6462 86.26856 531.5574 86.09067 532.7013 84.88561C 533.3796 84.17118 533.5922 83.27313 533.5922 82.32056C 533.5922 81.65491 533.5922 80.98925 533.5922 80.3236C 533.5922 78.07129 533.5922 75.81897 533.5922 73.56953C 533.5922 71.8681 533.5922 70.16667 533.5922 68.46524C 533.5922 68.3763 533.5922 68.28448 533.5922 68.19553C 533.5922 67.27165 535.0178 67.27165 535.0292 68.19553C 535.0551 70.31586 537.087 71.93983 539.1707 71.38608C 540.3146 71.08194 541.2199 70.17815 541.5217 69.03908C 541.6884 68.41359 541.6309 67.72786 541.6309 67.08803C 541.6309 66.43672 541.6309 65.78828 541.6309 65.13698C 541.6309 64.2131 543.0564 64.2131 543.0679 65.13698C 543.0938 67.26018 545.1257 68.87267 547.2122 68.32465C 548.3532 68.02338 549.2614 67.11385 549.5632 65.97765C 549.727 65.36652 549.6695 64.70373 549.6695 64.07825C 549.6695 63.4212 549.6695 62.76416 549.6695 62.10711C 549.6695 61.18323 551.095 61.18323 551.1065 62.10711C 551.1266 63.73968 552.3538 65.19436 554.0063 65.38373C 555.9693 65.60752 557.6794 64.0639 557.7081 62.10711C 557.7081 58.34847 557.7081 54.5927 557.7081 50.83407C 557.7081 48.90884 557.7081 46.98075 557.7081 45.05552C 557.711 43.34836 557.7426 41.61824 557.3259 39.95697zM559.148 47.27054C 559.148 51.23576 559.148 55.19811 559.148 59.16333C 559.148 60.14172 559.148 61.12299 559.148 62.10138C 559.1164 64.2131 557.7023 66.12399 555.6331 66.672C 554.0006 67.10238 552.2676 66.61462 551.0864 65.45833C 551.0576 65.86862 550.9915 66.27892 550.8507 66.67487C 550.3248 68.13815 549.1119 69.30018 547.5973 69.70187C 546.2724 70.0519 544.7866 69.81089 543.6685 69.01039C 543.4473 68.85258 543.2432 68.67757 543.0535 68.4882C 543.0248 68.90997 542.9587 69.32887 542.8149 69.73629C 542.2947 71.18523 541.1107 72.33004 539.6162 72.74894C 538.2769 73.12193 536.7651 72.88092 535.6328 72.07182C 535.4201 71.91975 535.2218 71.75047 535.0379 71.5697C 535.0379 71.74185 535.0379 71.91114 535.0379 72.08329C 535.0379 74.4389 535.0379 76.79449 535.0379 79.14723C 535.0379 80.01947 535.0379 80.88883 535.0379 81.76107C 535.0379 82.33203 535.0522 82.89153 534.9603 83.45676C 534.6269 85.53405 532.8278 87.10063 530.77 87.32729C 528.9824 87.52527 527.1976 86.61287 526.2578 85.09219C 525.5278 83.9101 525.5623 82.64478 525.5623 81.33069C 525.5623 79.73255 525.5623 78.13155 525.5623 76.5334C 525.5623 74.24666 525.5623 71.95992 525.5623 69.67604C 525.5623 67.25731 525.5623 64.83858 525.5623 62.41699C 525.5623 60.42003 525.5623 58.42595 525.5623 56.42899C 525.5623 55.75473 525.5508 55.07473 525.5508 54.40047C 524.6368 54.9284 523.72 55.45633 522.8061 55.9814C 522.3118 56.26545 521.8174 56.55236 521.3202 56.83641C 520.5098 57.30409 519.7108 57.83776 518.7767 58.00991C 516.9489 58.3456 515.1583 57.63691 514.1007 56.10764C 513.2643 54.90258 513.0574 53.25566 513.5661 51.87845C 513.9598 50.81398 514.71 50.08807 515.4917 49.30765C 516.8425 47.95913 518.1962 46.60774 519.5469 45.25922C 522.375 42.43594 525.2001 39.61553 528.0281 36.79225C 528.7323 36.08929 529.4335 35.38921 530.1377 34.68626C 530.724 34.10095 531.2816 33.46686 531.9167 32.93319C 532.5748 32.3823 533.3077 32.03513 534.1556 31.89455C 535.0925 31.73961 536.0466 31.74248 536.9922 31.67648C 538.981 31.53876 540.9727 31.42687 542.9644 31.31784C 544.8813 31.21168 546.8012 31.0797 548.7153 31.29775C 550.5547 31.5072 552.3165 32.0007 553.8828 33.00492C 555.2911 33.90871 556.4866 35.11665 557.3891 36.52254C 558.3777 38.0633 558.8749 39.77333 559.0532 41.58379C 559.2285 43.4746 559.148 45.38548 559.148 47.27054z" stroke="none" fill="#000000" fill-rule="nonzero" /></g><g clip-path="url(#49)"></g></g></g></svg>