<svg xmlns="http://www.w3.org/2000/svg" xmlns:xlink="http://www.w3.org/1999/xlink" id="body_1" preserveAspectRatio="xMinYMin meet" viewBox="0 0 793 1123"><defs><clipPath id="1"><path id="" clip-rule="evenodd" transform="matrix(1 0 0 1 0 0)" d="M0 842L0 -0.25L0 -0.25L595.5 -0.25L595.5 -0.25L595.5 842L595.5 842L0 842z" /></clipPath><clipPath id="2"><path id="" clip-rule="evenodd" transform="matrix(1 0 0 1 0 0)" d="M0 -0.249939L595.5 -0.249939L595.5 -0.249939L595.5 842.0001L595.5 842.0001L0 842.0001z" /></clipPath><clipPath id="3"><path id="" clip-rule="evenodd" transform="matrix(1 0 0 1 0 0)" d="M0 -0.249939L595.5 -0.249939L595.5 -0.249939L595.5 842.0001L595.5 842.0001L0 842.0001z" /></clipPath><clipPath id="4"><path id="" clip-rule="evenodd" transform="matrix(1 0 0 1 0 0)" d="M0 -0.249939L595.5 -0.249939L595.5 -0.249939L595.5 842.0001L595.5 842.0001L0 842.0001z" /></clipPath><clipPath id="5"><path id="" clip-rule="evenodd" transform="matrix(1 0 0 1 0 0)" d="M59.27999 35.51007L535.92 35.51007L535.92 35.51007L535.92 842.15L535.92 842.15L59.27999 842.15z" /></clipPath><clipPath id="6"><path id="" clip-rule="evenodd" transform="matrix(1 0 0 1 0 0)" d="M59.48994 35.64948L535.7399 35.64948L535.7399 35.64948L535.7399 842.3901L535.7399 842.3901L59.48994 842.3901z" /></clipPath><clipPath id="7"><path id="" clip-rule="evenodd" transform="matrix(1 0 0 1 0 0)" d="M0 -0.249939L595.5 -0.249939L595.5 -0.249939L595.5 842.0001L595.5 842.0001L0 842.0001z" /></clipPath><clipPath id="8"><path id="" clip-rule="evenodd" transform="matrix(1 0 0 1 0 0)" d="M0 -0.249939L595.5 -0.249939L595.5 -0.249939L595.5 842.0001L595.5 842.0001L0 842.0001z" /></clipPath><clipPath id="9"><path id="" clip-rule="evenodd" transform="matrix(1 0 0 1 0 0)" d="M-9.319663 224.9272L-183.517 73.21594L-183.517 73.21594L41.587 -185.2522L41.587 -185.2522L215.7843 -33.54095L215.7843 -33.54095L-9.319663 224.9272z" /></clipPath><clipPath id="10"><path id="" clip-rule="evenodd" transform="matrix(1 0 0 1 0 0)" d="M-47.8728 269.1945L-460.1775 -89.88818L-460.1775 -89.88818L-162.6659 -431.4958L-162.6659 -431.4958L249.6388 -72.41321L249.6388 -72.41321L-47.8728 269.1945z" /></clipPath><clipPath id="11"><path id="" clip-rule="evenodd" transform="matrix(1 0 0 1 0 0)" d="M465.2802 29.22406L571.7802 29.22406L571.7802 29.22406L571.7802 89.22406L571.7802 89.22406L465.2802 89.22406z" /></clipPath><clipPath id="12"><path id="" clip-rule="evenodd" transform="matrix(1 0 0 1 0 0)" d="M39.3294 29.22406L144.3294 29.22406L144.3294 29.22406L144.3294 121.4741L144.3294 121.4741L39.3294 121.4741z" /></clipPath><clipPath id="13"><path id="" clip-rule="evenodd" transform="matrix(1 0 0 1 0 0)" d="M0 -0.249939L595.5 -0.249939L595.5 -0.249939L595.5 842.0001L595.5 842.0001L0 842.0001z" /></clipPath><clipPath id="14"><path id="" clip-rule="evenodd" transform="matrix(1 0 0 1 0 0)" d="M0 -0.249939L595.5 -0.249939L595.5 -0.249939L595.5 842.0001L595.5 842.0001L0 842.0001z" /></clipPath><clipPath id="15"><path id="" clip-rule="evenodd" transform="matrix(1 0 0 1 0 0)" d="M53.4877 348.8293L228.9877 348.8293L228.9877 348.8293L228.9877 411.8293L228.9877 411.8293L53.4877 411.8293z" /></clipPath><clipPath id="16"><path id="" clip-rule="evenodd" transform="matrix(1 0 0 1 0 0)" d="M53.4877 380.0036C 53.4877 397.2206 67.44491 411.1779 84.66199 411.1779L84.66199 411.1779L197.327 411.1779C 214.5441 411.1779 228.5013 397.2206 228.5013 380.0036C 228.5013 362.7865 214.5441 348.8293 197.327 348.8293L197.327 348.8293L84.66199 348.8293C 67.44491 348.8293 53.4877 362.7865 53.4877 380.0036z" /></clipPath><clipPath id="17"><path id="" clip-rule="evenodd" transform="matrix(1 0 0 1 0 0)" d="M54.2377 349.5793L228.2377 349.5793L228.2377 349.5793L228.2377 410.3293L228.2377 410.3293L54.2377 410.3293z" /></clipPath><clipPath id="18"><path id="" clip-rule="evenodd" transform="matrix(1 0 0 1 0 0)" d="M84.66199 349.7292L197.327 349.7292C 214.047 349.7292 227.6013 363.2835 227.6013 380.0036C 227.6013 396.7236 214.047 410.2778 197.327 410.2778L197.327 410.2778L84.66199 410.2778C 67.94196 410.2778 54.3877 396.7236 54.3877 380.0036C 54.3877 363.2835 67.94196 349.7292 84.66199 349.7292z" /></clipPath><clipPath id="19"><path id="" clip-rule="evenodd" transform="matrix(1 0 0 1 0 0)" d="M53.4877 348.8293L228.2377 348.8293L228.2377 348.8293L228.2377 411.0793L228.2377 411.0793L53.4877 411.0793z" /></clipPath><clipPath id="20"><path id="" clip-rule="evenodd" transform="matrix(1 0 0 1 0 0)" d="M0 -0.249939L595.5 -0.249939L595.5 -0.249939L595.5 842.0001L595.5 842.0001L0 842.0001z" /></clipPath><clipPath id="21"><path id="" clip-rule="evenodd" transform="matrix(1 0 0 1 0 0)" d="M0 -0.249939L595.5 -0.249939L595.5 -0.249939L595.5 842.0001L595.5 842.0001L0 842.0001z" /></clipPath><clipPath id="22"><path id="" clip-rule="evenodd" transform="matrix(1 0 0 1 0 0)" d="M53.4877 348.8293L228.9877 348.8293L228.9877 348.8293L228.9877 411.8293L228.9877 411.8293L53.4877 411.8293z" /></clipPath><clipPath id="23"><path id="" clip-rule="evenodd" transform="matrix(1 0 0 1 0 0)" d="M53.4877 380.0036C 53.4877 397.2206 67.44491 411.1779 84.66199 411.1779L84.66199 411.1779L197.327 411.1779C 214.5441 411.1779 228.5013 397.2206 228.5013 380.0036C 228.5013 362.7865 214.5441 348.8293 197.327 348.8293L197.327 348.8293L84.66199 348.8293C 67.44491 348.8293 53.4877 362.7865 53.4877 380.0036z" /></clipPath><clipPath id="24"><path id="" clip-rule="evenodd" transform="matrix(1 0 0 1 0 0)" d="M53.4877 348.8293L228.2377 348.8293L228.2377 348.8293L228.2377 411.0793L228.2377 411.0793L53.4877 411.0793z" /></clipPath><clipPath id="25"><path id="" clip-rule="evenodd" transform="matrix(1 0 0 1 0 0)" d="M53.4877 348.8293L228.9819 348.8293L228.9819 348.8293L228.9819 411.8244L228.9819 411.8244L53.4877 411.8244z" /></clipPath><clipPath id="26"><path id="" clip-rule="evenodd" transform="matrix(1 0 0 1 0 0)" d="M53.4877 380.0011C 53.4877 397.2169 67.44445 411.173 84.66096 411.173L84.66096 411.173L197.3222 411.173C 214.5388 411.173 228.4955 397.2169 228.4955 380.0011C 228.4955 362.7854 214.5388 348.8293 197.3222 348.8293L197.3222 348.8293L84.66096 348.8293C 67.44445 348.8293 53.4877 362.7854 53.4877 380.0011z" /></clipPath><clipPath id="27"><path id="" clip-rule="evenodd" transform="matrix(1 0 0 1 0 0)" d="M0 -0.249939L595.5 -0.249939L595.5 -0.249939L595.5 842.0001L595.5 842.0001L0 842.0001z" /></clipPath><clipPath id="28"><path id="" clip-rule="evenodd" transform="matrix(1 0 0 1 0 0)" d="M0 -0.249939L595.5 -0.249939L595.5 -0.249939L595.5 842.0001L595.5 842.0001L0 842.0001z" /></clipPath><clipPath id="29"><path id="" clip-rule="evenodd" transform="matrix(1 0 0 1 0 0)" d="M0 -0.249939L595.5 -0.249939L595.5 -0.249939L595.5 842.0001L595.5 842.0001L0 842.0001z" /></clipPath><clipPath id="30"><path id="" clip-rule="evenodd" transform="matrix(1 0 0 1 0 0)" d="M192.0019 389.108L219.0054 374.3983L219.0054 374.3983L240.8906 414.5742L240.8906 414.5742L213.8871 429.2839L213.8871 429.2839L192.0019 389.108z" /></clipPath><clipPath id="31"><path id="" clip-rule="evenodd" transform="matrix(1 0 0 1 0 0)" d="M192.0019 389.108L219.0054 374.3983L219.0054 374.3983L240.8906 414.5742L240.8906 414.5742L213.8871 429.2839L213.8871 429.2839L192.0019 389.108z" /></clipPath><clipPath id="32"><path id="" clip-rule="evenodd" transform="matrix(1 0 0 1 0 0)" d="M192.0019 389.108L219.0054 374.3983L219.0054 374.3983L240.8906 414.5742L240.8906 414.5742L213.8871 429.2839L213.8871 429.2839L192.0019 389.108z" /></clipPath><clipPath id="33"><path id="" clip-rule="evenodd" transform="matrix(1 0 0 1 0 0)" d="M0 -0.249939L595.5 -0.249939L595.5 -0.249939L595.5 842.0001L595.5 842.0001L0 842.0001z" /></clipPath><clipPath id="34"><path id="" clip-rule="evenodd" transform="matrix(1 0 0 1 0 0)" d="M0 -0.249939L595.5 -0.249939L595.5 -0.249939L595.5 842.0001L595.5 842.0001L0 842.0001z" /></clipPath><clipPath id="35"><path id="" clip-rule="evenodd" transform="matrix(1 0 0 1 0 0)" d="M65.56741 443.0102L217.0674 443.0102L217.0674 443.0102L217.0674 497.0103L217.0674 497.0103L65.56741 497.0103z" /></clipPath><clipPath id="36"><path id="" clip-rule="evenodd" transform="matrix(1 0 0 1 0 0)" d="M65.56741 469.8811C 65.56741 477.0077 68.39845 483.8424 73.43772 488.8817C 78.47699 493.921 85.31171 496.752 92.43832 496.752L92.43832 496.752L189.5507 496.752C 196.6773 496.752 203.512 493.921 208.5513 488.8817C 213.5905 483.8424 216.4216 477.0077 216.4216 469.8811C 216.4216 462.7545 213.5905 455.9198 208.5513 450.8805C 203.512 445.8412 196.6773 443.0102 189.5507 443.0102L189.5507 443.0102L92.43832 443.0102C 85.31171 443.0102 78.47699 445.8412 73.43772 450.8805C 68.39845 455.9198 65.56741 462.7545 65.56741 469.8811z" /></clipPath><clipPath id="37"><path id="" clip-rule="evenodd" transform="matrix(1 0 0 1 0 0)" d="M66.31741 443.7602L215.5674 443.7602L215.5674 443.7602L215.5674 496.2603L215.5674 496.2603L66.31741 496.2603z" /></clipPath><clipPath id="38"><path id="" clip-rule="evenodd" transform="matrix(1 0 0 1 0 0)" d="M92.43832 443.9102L189.5507 443.9102C 196.4386 443.9102 203.0444 446.6464 207.9149 451.5169C 212.7854 456.3874 215.5216 462.9932 215.5216 469.8811C 215.5216 476.769 212.7854 483.3748 207.9149 488.2453C 203.0444 493.1158 196.4386 495.852 189.5507 495.852L189.5507 495.852L92.43832 495.852C 85.5504 495.852 78.9446 493.1158 74.07411 488.2453C 69.20363 483.3748 66.46741 476.769 66.46741 469.8811C 66.46741 462.9932 69.20363 456.3874 74.07411 451.5169C 78.9446 446.6464 85.5504 443.9102 92.43832 443.9102z" /></clipPath><clipPath id="39"><path id="" clip-rule="evenodd" transform="matrix(1 0 0 1 0 0)" d="M65.56741 443.0102L216.3174 443.0102L216.3174 443.0102L216.3174 497.0103L216.3174 497.0103L65.56741 497.0103z" /></clipPath><clipPath id="40"><path id="" clip-rule="evenodd" transform="matrix(1 0 0 1 0 0)" d="M0 -0.249939L595.5 -0.249939L595.5 -0.249939L595.5 842.0001L595.5 842.0001L0 842.0001z" /></clipPath><clipPath id="41"><path id="" clip-rule="evenodd" transform="matrix(1 0 0 1 0 0)" d="M0 -0.249939L595.5 -0.249939L595.5 -0.249939L595.5 842.0001L595.5 842.0001L0 842.0001z" /></clipPath><clipPath id="42"><path id="" clip-rule="evenodd" transform="matrix(1 0 0 1 0 0)" d="M65.56741 443.0102L217.0674 443.0102L217.0674 443.0102L217.0674 497.0103L217.0674 497.0103L65.56741 497.0103z" /></clipPath><clipPath id="43"><path id="" clip-rule="evenodd" transform="matrix(1 0 0 1 0 0)" d="M65.56741 469.8811C 65.56741 477.0077 68.39845 483.8424 73.43772 488.8817C 78.47699 493.921 85.31171 496.752 92.43832 496.752L92.43832 496.752L189.5507 496.752C 196.6773 496.752 203.512 493.921 208.5513 488.8817C 213.5905 483.8424 216.4216 477.0077 216.4216 469.8811C 216.4216 462.7545 213.5905 455.9198 208.5513 450.8805C 203.512 445.8412 196.6773 443.0102 189.5507 443.0102L189.5507 443.0102L92.43832 443.0102C 85.31171 443.0102 78.47699 445.8412 73.43772 450.8805C 68.39845 455.9198 65.56741 462.7545 65.56741 469.8811z" /></clipPath><clipPath id="44"><path id="" clip-rule="evenodd" transform="matrix(1 0 0 1 0 0)" d="M65.56741 443.0102L216.3174 443.0102L216.3174 443.0102L216.3174 497.0103L216.3174 497.0103L65.56741 497.0103z" /></clipPath><clipPath id="45"><path id="" clip-rule="evenodd" transform="matrix(1 0 0 1 0 0)" d="M65.56741 443.0102L217.0569 443.0102L217.0569 443.0102L217.0569 496.9988L217.0569 496.9988L65.56741 496.9988z" /></clipPath><clipPath id="46"><path id="" clip-rule="evenodd" transform="matrix(1 0 0 1 0 0)" d="M65.56741 469.8755C 65.56741 477.0005 68.39825 483.8338 73.43718 488.872C 78.4761 493.9102 85.31035 496.7407 92.43645 496.7407L92.43645 496.7407L189.5421 496.7407C 196.6682 496.7407 203.5025 493.9102 208.5414 488.872C 213.5803 483.8338 216.4112 477.0005 216.4112 469.8755C 216.4112 462.7504 213.5803 455.9171 208.5414 450.8788C 203.5025 445.8406 196.6682 443.0102 189.5421 443.0102L189.5421 443.0102L92.43645 443.0102C 85.31035 443.0102 78.4761 445.8406 73.43718 450.8788C 68.39825 455.9171 65.56741 462.7504 65.56741 469.8755z" /></clipPath><clipPath id="47"><path id="" clip-rule="evenodd" transform="matrix(1 0 0 1 0 0)" d="M0 -0.249939L595.5 -0.249939L595.5 -0.249939L595.5 842.0001L595.5 842.0001L0 842.0001z" /></clipPath><clipPath id="48"><path id="" clip-rule="evenodd" transform="matrix(1 0 0 1 0 0)" d="M0 -0.249939L595.5 -0.249939L595.5 -0.249939L595.5 842.0001L595.5 842.0001L0 842.0001z" /></clipPath><clipPath id="49"><path id="" clip-rule="evenodd" transform="matrix(1 0 0 1 0 0)" d="M0 -0.249939L595.5 -0.249939L595.5 -0.249939L595.5 842.0001L595.5 842.0001L0 842.0001z" /></clipPath><clipPath id="50"><path id="" clip-rule="evenodd" transform="matrix(1 0 0 1 0 0)" d="M185.2962 478.6077L212.2996 463.898L212.2996 463.898L234.1848 504.0739L234.1848 504.0739L207.1813 518.7836L207.1813 518.7836L185.2962 478.6077z" /></clipPath><clipPath id="51"><path id="" clip-rule="evenodd" transform="matrix(1 0 0 1 0 0)" d="M185.2962 478.6077L212.2996 463.898L212.2996 463.898L234.1848 504.0739L234.1848 504.0739L207.1813 518.7836L207.1813 518.7836L185.2962 478.6077z" /></clipPath><clipPath id="52"><path id="" clip-rule="evenodd" transform="matrix(1 0 0 1 0 0)" d="M185.2962 478.6077L212.2996 463.898L212.2996 463.898L234.1848 504.0739L234.1848 504.0739L207.1813 518.7836L207.1813 518.7836L185.2962 478.6077z" /></clipPath><clipPath id="53"><path id="" clip-rule="evenodd" transform="matrix(1 0 0 1 0 0)" d="M0 -0.249939L595.5 -0.249939L595.5 -0.249939L595.5 842.0001L595.5 842.0001L0 842.0001z" /></clipPath><clipPath id="54"><path id="" clip-rule="evenodd" transform="matrix(1 0 0 1 0 0)" d="M0 -0.249939L595.5 -0.249939L595.5 -0.249939L595.5 842.0001L595.5 842.0001L0 842.0001z" /></clipPath><clipPath id="55"><path id="" clip-rule="evenodd" transform="matrix(1 0 0 1 0 0)" d="M64.95686 539.3434L219.4568 539.3434L219.4568 539.3434L219.4568 594.8434L219.4568 594.8434L64.95686 594.8434z" /></clipPath><clipPath id="56"><path id="" clip-rule="evenodd" transform="matrix(1 0 0 1 0 0)" d="M64.95686 566.77C 64.95686 574.0439 67.84644 581.02 72.98992 586.1636C 78.1334 591.3071 85.10947 594.1966 92.38345 594.1966L92.38345 594.1966L191.5041 594.1966C 198.7781 594.1966 205.7542 591.3071 210.8976 586.1636C 216.0411 581.02 218.9307 574.0439 218.9307 566.77C 218.9307 559.496 216.0411 552.52 210.8976 547.3765C 205.7542 542.233 198.7781 539.3434 191.5041 539.3434L191.5041 539.3434L92.38345 539.3434C 85.10947 539.3434 78.1334 542.233 72.98992 547.3765C 67.84644 552.52 64.95686 559.496 64.95686 566.77z" /></clipPath><clipPath id="57"><path id="" clip-rule="evenodd" transform="matrix(1 0 0 1 0 0)" d="M65.70686 540.0934L218.7068 540.0934L218.7068 540.0934L218.7068 593.3434L218.7068 593.3434L65.70686 593.3434z" /></clipPath><clipPath id="58"><path id="" clip-rule="evenodd" transform="matrix(1 0 0 1 0 0)" d="M92.38345 540.2434L191.5041 540.2434C 198.5394 540.2434 205.2866 543.0381 210.2613 548.0129C 215.236 552.9875 218.0307 559.7347 218.0307 566.77C 218.0307 573.8053 215.236 580.5524 210.2613 585.5271C 205.2866 590.5018 198.5394 593.2966 191.5041 593.2966L191.5041 593.2966L92.38345 593.2966C 85.34816 593.2966 78.60101 590.5018 73.62631 585.5271C 68.65161 580.5524 65.85686 573.8053 65.85686 566.77C 65.85686 559.7347 68.65161 552.9875 73.62631 548.0129C 78.60101 543.0381 85.34816 540.2434 92.38345 540.2434z" /></clipPath><clipPath id="59"><path id="" clip-rule="evenodd" transform="matrix(1 0 0 1 0 0)" d="M64.95686 539.3434L218.7068 539.3434L218.7068 539.3434L218.7068 594.0934L218.7068 594.0934L64.95686 594.0934z" /></clipPath><clipPath id="60"><path id="" clip-rule="evenodd" transform="matrix(1 0 0 1 0 0)" d="M0 -0.249939L595.5 -0.249939L595.5 -0.249939L595.5 842.0001L595.5 842.0001L0 842.0001z" /></clipPath><clipPath id="61"><path id="" clip-rule="evenodd" transform="matrix(1 0 0 1 0 0)" d="M0 -0.249939L595.5 -0.249939L595.5 -0.249939L595.5 842.0001L595.5 842.0001L0 842.0001z" /></clipPath><clipPath id="62"><path id="" clip-rule="evenodd" transform="matrix(1 0 0 1 0 0)" d="M64.95686 539.3434L219.4568 539.3434L219.4568 539.3434L219.4568 594.8434L219.4568 594.8434L64.95686 594.8434z" /></clipPath><clipPath id="63"><path id="" clip-rule="evenodd" transform="matrix(1 0 0 1 0 0)" d="M64.95686 566.77C 64.95686 574.0439 67.84644 581.02 72.98992 586.1636C 78.1334 591.3071 85.10947 594.1966 92.38345 594.1966L92.38345 594.1966L191.5041 594.1966C 198.7781 594.1966 205.7542 591.3071 210.8976 586.1636C 216.0411 581.02 218.9307 574.0439 218.9307 566.77C 218.9307 559.496 216.0411 552.52 210.8976 547.3765C 205.7542 542.233 198.7781 539.3434 191.5041 539.3434L191.5041 539.3434L92.38345 539.3434C 85.10947 539.3434 78.1334 542.233 72.98992 547.3765C 67.84644 552.52 64.95686 559.496 64.95686 566.77z" /></clipPath><clipPath id="64"><path id="" clip-rule="evenodd" transform="matrix(1 0 0 1 0 0)" d="M64.95686 539.3434L218.7068 539.3434L218.7068 539.3434L218.7068 594.0934L218.7068 594.0934L64.95686 594.0934z" /></clipPath><clipPath id="65"><path id="" clip-rule="evenodd" transform="matrix(1 0 0 1 0 0)" d="M64.95686 539.3434L219.4556 539.3434L219.4556 539.3434L219.4556 594.8339L219.4556 594.8339L64.95686 594.8339z" /></clipPath><clipPath id="66"><path id="" clip-rule="evenodd" transform="matrix(1 0 0 1 0 0)" d="M64.95686 566.7653C 64.95686 574.038 67.84641 581.0129 72.98985 586.1555C 78.1333 591.2981 85.10931 594.1871 92.38323 594.1871L92.38323 594.1871L191.5031 594.1871C 198.7771 594.1871 205.7531 591.2981 210.8965 586.1555C 216.04 581.0129 218.9295 574.038 218.9295 566.7653C 218.9295 559.4926 216.04 552.5177 210.8965 547.3751C 205.7531 542.2325 198.7771 539.3434 191.5031 539.3434L191.5031 539.3434L92.38323 539.3434C 85.10931 539.3434 78.1333 542.2325 72.98985 547.3751C 67.84641 552.5177 64.95686 559.4926 64.95686 566.7653z" /></clipPath><clipPath id="67"><path id="" clip-rule="evenodd" transform="matrix(1 0 0 1 0 0)" d="M0 -0.249939L595.5 -0.249939L595.5 -0.249939L595.5 842.0001L595.5 842.0001L0 842.0001z" /></clipPath><clipPath id="68"><path id="" clip-rule="evenodd" transform="matrix(1 0 0 1 0 0)" d="M0 -0.249939L595.5 -0.249939L595.5 -0.249939L595.5 842.0001L595.5 842.0001L0 842.0001z" /></clipPath><clipPath id="69"><path id="" clip-rule="evenodd" transform="matrix(1 0 0 1 0 0)" d="M0 -0.249939L595.5 -0.249939L595.5 -0.249939L595.5 842.0001L595.5 842.0001L0 842.0001z" /></clipPath><clipPath id="70"><path id="" clip-rule="evenodd" transform="matrix(1 0 0 1 0 0)" d="M187.8053 576.0523L214.8087 561.3426L214.8087 561.3426L236.6939 601.5185L236.6939 601.5185L209.6905 616.2282L209.6905 616.2282L187.8053 576.0523z" /></clipPath><clipPath id="71"><path id="" clip-rule="evenodd" transform="matrix(1 0 0 1 0 0)" d="M187.8053 576.0523L214.8087 561.3426L214.8087 561.3426L236.6939 601.5185L236.6939 601.5185L209.6905 616.2282L209.6905 616.2282L187.8053 576.0523z" /></clipPath><clipPath id="72"><path id="" clip-rule="evenodd" transform="matrix(1 0 0 1 0 0)" d="M187.8053 576.0523L214.8087 561.3426L214.8087 561.3426L236.6939 601.5185L236.6939 601.5185L209.6905 616.2282L209.6905 616.2282L187.8053 576.0523z" /></clipPath><clipPath id="73"><path id="" clip-rule="evenodd" transform="matrix(1 0 0 1 0 0)" d="M0 -0.249939L595.5 -0.249939L595.5 -0.249939L595.5 842.0001L595.5 842.0001L0 842.0001z" /></clipPath><clipPath id="74"><path id="" clip-rule="evenodd" transform="matrix(1 0 0 1 0 0)" d="M0 -0.249939L595.5 -0.249939L595.5 -0.249939L595.5 842.0001L595.5 842.0001L0 842.0001z" /></clipPath><clipPath id="75"><path id="" clip-rule="evenodd" transform="matrix(1 0 0 1 0 0)" d="M271.819 295.1895L536.3572 295.1895L536.3572 295.1895L536.3572 473.1642L536.3572 473.1642L271.819 473.1642z" /></clipPath><clipPath id="76"><path id="" clip-rule="evenodd" transform="matrix(1 0 0 1 0 0)" d="M536.3102 452.3469C 536.1691 408.1383 534.4753 348.3728 534.4753 304.2761C 534.4753 303.6045 534.6165 302.933 534.6165 302.3734C 534.4753 302.2615 534.3342 302.2615 534.1931 302.1495C 534.1931 302.1495 534.0519 302.2615 534.0519 302.3734C 533.7696 302.933 533.205 302.933 532.6405 302.933C 531.9348 302.8211 531.229 302.2615 530.3822 302.4854C 530.0999 302.5972 529.5353 302.3734 529.3942 302.1495C 528.9707 301.7019 528.4062 301.7019 527.8416 301.9257C 527.5593 302.0376 527.2769 301.9257 526.9947 301.9257C 526.5712 301.9257 526.0067 301.8138 525.5833 301.7019C 525.4421 301.7019 525.1599 301.59 525.0187 301.59C 524.5952 301.478 524.1718 301.1423 523.7484 301.59C 523.7484 301.59 523.4661 301.59 523.3249 301.478C 523.1838 301.2542 523.0427 300.9185 522.9015 300.6946C 522.6192 300.3589 522.6192 299.7993 522.1958 299.5754C 521.9135 299.4635 521.7723 299.3516 521.6312 299.1277C 521.6312 299.0157 521.3489 298.9039 521.3489 298.792L521.3489 298.792L520.9255 298.4562C 520.7844 298.2324 520.6432 297.8966 520.3609 297.7847C 519.7963 297.4489 519.6552 297.0012 519.9375 296.4417C 519.5141 296.3297 519.2318 296.1058 518.8083 296.1058C 517.1146 296.2178 515.2797 296.4417 513.586 296.5535C 513.3037 296.5535 512.8803 296.6655 512.7391 296.7773C 511.61 297.337 510.4808 296.8893 509.3517 296.7773C 508.5048 296.7773 507.6579 296.4417 506.8111 296.3297C 505.8231 296.2178 504.9762 296.3297 503.9882 296.2178C 503.847 296.2178 503.7059 296.1058 503.5648 295.9939C 503.2824 295.6582 502.7178 295.7701 502.4356 295.882C 502.0121 296.1058 501.871 296.4417 501.5887 296.7773C 500.883 296.8893 499.895 297.0012 499.1893 297.337C 498.6247 297.5608 498.3424 297.6727 497.9189 297.4489L497.9189 297.4489L497.7778 297.5608C 498.0601 297.7847 498.2013 298.1204 498.4836 298.3442C 498.0601 298.4562 497.4955 298.6801 497.2133 298.5681C 496.5075 298.4562 496.2253 298.6801 495.6607 298.9039C 495.0961 299.2396 494.3904 299.4635 493.8258 299.6873C 493.6847 299.6873 493.5435 299.6873 493.4024 299.5754C 493.2612 299.5754 493.1201 299.4635 493.1201 299.4635C 492.4144 299.6873 491.7086 299.9111 491.0029 299.6873C 490.8618 299.6873 490.8618 299.7993 490.7206 299.7993C 489.8737 300.0231 489.3092 300.8065 488.18 300.8065C 487.3331 300.8065 486.4863 301.3661 485.6394 301.3661C 484.6514 301.478 483.8045 301.7019 482.9577 302.0376C 482.6754 302.1495 482.3931 302.1495 482.252 302.1495C 481.5462 301.9257 481.1228 302.2615 480.8405 302.5972C 480.1348 303.3807 479.0056 303.6045 478.0176 303.8284C 476.7473 304.0522 475.477 304.1641 474.2067 304.2761C 474.0656 304.2761 473.9245 304.6118 473.6422 304.7238C 473.501 304.7238 473.3599 304.6118 473.3599 304.6118C 472.6541 305.2833 472.2307 306.2906 470.8193 306.1787L470.8193 306.1787L470.6781 306.1787C 469.549 306.7383 468.4198 306.5145 467.4318 306.2906C 467.1495 306.2906 466.7261 306.0668 466.5849 305.843C 466.1615 305.1714 465.0323 304.9476 464.1855 305.1714C 463.4798 305.3953 462.774 305.5072 462.0683 305.731C 460.9392 305.9548 459.9511 306.0668 458.822 305.6191C 457.6928 305.1714 456.846 305.5072 456.2814 306.5145C 455.858 307.186 454.7288 307.2979 454.0231 306.7383C 453.5996 306.4026 453.3174 306.5145 452.8939 306.7383L452.8939 306.7383L452.0471 307.4099C 451.9059 307.5217 451.6236 307.5217 451.4825 307.5217L451.4825 307.5217L450.6357 307.5217C 450.0711 307.5217 449.5065 307.4099 448.9419 307.2979C 448.2362 307.186 447.6716 306.8502 446.9659 306.7383C 445.8367 306.6263 445.5544 305.843 445.131 305.2833C 444.8487 304.9476 444.2841 304.4999 443.7196 304.6118C 443.155 304.8357 442.5904 304.6118 442.167 304.4999C 442.0258 304.4999 441.7435 304.3879 441.6024 304.3879C 440.6144 304.1641 439.9087 304.6118 439.2029 305.1714L439.2029 305.1714L438.6384 305.6191C 438.4972 305.731 438.4972 305.9548 438.3561 306.0668C 437.5092 306.6263 436.6624 306.4026 435.6743 306.0668C 434.8275 305.731 433.8394 306.0668 433.5572 306.7383C 433.416 307.186 433.2749 307.5217 432.5692 307.7456C 431.8634 308.0814 431.0165 308.3052 430.8754 309.0886C 430.8754 309.2006 430.7343 309.3125 430.5931 309.3125C 430.1697 309.4244 429.8874 309.5363 429.464 309.6482L429.464 309.6482L428.1937 309.6482C 427.3468 309.5363 426.5 309.3125 425.6531 309.2006C 424.6651 309.0886 423.8182 309.5363 422.8302 309.6482L422.8302 309.6482L422.6891 309.7601C 422.4068 310.0959 421.9833 309.984 421.701 309.7601C 421.1365 309.3125 420.1485 309.2006 419.4427 309.4244C 418.5959 309.7601 417.749 309.984 416.9021 310.2078C 416.6198 310.2078 416.3376 310.0959 416.1964 310.0959C 415.9141 310.0959 415.4907 309.984 415.3495 310.0959C 414.2204 310.7675 413.0912 310.5436 412.1032 310.0959C 411.5386 309.8721 410.6918 309.6482 410.4095 308.9767C 410.2684 308.5291 409.7038 308.0814 409.2804 307.7456C 408.5746 307.186 407.8689 306.4026 406.5986 306.4026C 406.3163 306.4026 406.034 305.9548 405.8929 306.0668C 405.3283 306.1787 405.3283 305.9548 405.046 305.731C 404.7637 305.5072 404.3403 305.2833 404.058 304.9476C 403.6346 304.4999 403.2112 303.9403 402.7877 303.4926C 402.3643 303.0449 402.082 302.4854 401.6586 302.0376C 401.5174 301.9257 401.094 301.8138 400.9528 301.9257L400.9528 301.9257L399.2591 302.5972C 398.9768 302.7092 398.8357 302.933 398.6945 303.1569L398.6945 303.1569L398.5534 303.0449C 398.6945 302.7092 398.8357 302.3734 398.9768 302.2615L398.9768 302.2615L397.2831 301.9257C 396.8597 301.8138 396.1539 301.8138 395.8716 301.8138L395.8716 301.8138L393.6133 301.8138C 392.7665 301.8138 392.0607 301.7019 391.2139 301.8138C 390.6493 301.9257 390.2259 301.7019 389.8024 301.478C 388.6733 300.8065 387.5442 300.0231 385.9915 300.3589C 385.8504 300.3589 385.5681 300.2469 385.4269 300.135C 385.0035 300.0231 384.7213 299.7993 384.1567 299.5754C 384.1567 299.9111 384.1567 300.0231 384.2978 300.2469C 384.0155 300.4708 383.8744 300.3589 383.7332 300.2469C 383.5921 300.3589 383.4509 300.5826 383.3098 300.5826C 382.6041 300.8065 381.8983 300.9185 381.1927 301.1423C 380.9103 301.2542 380.6281 301.3661 380.4869 301.478C 379.9223 301.8138 379.4989 302.3734 378.5109 302.2615C 378.3698 302.2615 378.0875 302.4854 377.8052 302.4854C 377.5229 302.5972 377.0995 302.5972 376.8172 302.7092L376.8172 302.7092L376.5349 302.7092C 375.688 302.933 374.9823 303.1569 374.1354 303.2688L374.1354 303.2688L373.5708 303.2688C 372.8651 303.2688 372.3005 303.1569 371.5948 303.1569C 370.8891 303.1569 370.1834 303.3807 369.4777 303.3807C 368.6308 303.3807 367.6428 303.3807 366.9371 302.933C 366.7959 302.8211 366.3725 302.8211 366.0902 302.933C 365.1022 303.0449 364.1142 303.1569 363.2673 303.3807C 362.4204 303.6045 361.997 303.3807 361.7148 302.8211C 361.5736 302.5972 361.2913 302.3734 361.009 302.1495C 360.5856 301.9257 360.1621 301.59 359.7387 301.59C 358.7507 301.59 358.1861 301.1423 357.4804 300.8065C 356.3512 300.2469 355.3632 299.5754 353.9518 299.6873L353.9518 299.6873L353.9518 299.1277C 354.2341 299.1277 354.5164 299.1277 354.7986 299.0157C 354.3752 298.792 354.3752 298.4562 354.0929 298.2324C 353.5284 297.8966 352.9638 297.7847 352.3992 297.5608C 351.9758 297.4489 351.4112 297.4489 351.6935 298.0085C 350.9877 298.1204 350.4232 298.1204 350.1409 298.3442C 349.5763 298.6801 349.0117 298.4562 348.5883 298.2324C 348.306 298.1204 348.0237 298.0085 347.7415 298.1204C 346.0477 298.792 344.354 298.4562 342.6602 298.4562C 342.378 298.4562 342.0957 298.3442 341.6722 298.3442C 341.1077 298.2324 340.6842 298.0085 340.1197 297.8966C 339.5551 297.7847 338.8493 297.6727 338.2848 297.5608L338.2848 297.5608L337.8613 297.5608C 336.8733 297.5608 335.8853 297.6727 335.0385 297.6727C 334.3327 297.6727 333.627 297.4489 332.7802 297.337C 332.639 296.4417 331.5098 296.6655 330.8041 296.2178C 330.663 296.1058 330.3807 296.2178 330.2396 296.2178C 329.3927 296.1058 328.8281 296.4417 328.5458 297.0012C 328.1224 297.5608 326.9932 297.7847 327.4167 298.6801C 327.5578 298.792 327.8401 298.9039 327.9812 299.1277C 327.9812 299.4635 327.8401 299.6873 327.4167 299.5754C 327.2755 299.5754 327.1344 299.7993 326.9932 299.9111C 326.8521 300.0231 326.8521 300.2469 326.7109 300.2469C 325.8641 300.4708 325.2995 301.0304 324.3115 300.9185L324.3115 300.9185L324.0292 300.9185C 323.1823 301.478 322.3354 301.3661 321.3474 301.2542C 320.924 301.1423 320.3594 301.2542 319.7949 301.2542C 319.3714 301.2542 318.948 301.2542 318.5246 301.0304C 317.96 300.8065 317.3954 300.4708 316.8308 300.2469C 316.2663 300.0231 315.5605 300.0231 315.5605 299.2396C 315.5605 299.1277 315.2783 299.0157 315.2783 298.9039C 314.2903 299.5754 313.4434 300.135 312.5965 300.6946C 312.1731 301.0304 311.6085 301.478 311.8908 302.0376C 311.8908 302.1495 311.7497 302.2615 311.7497 302.3734C 311.6085 302.5972 311.4673 302.8211 311.1851 302.933C 310.9028 303.2688 310.6205 303.6045 310.3382 304.0522L310.3382 304.0522L309.4913 304.7238C 309.209 305.0595 308.9268 305.3953 308.5033 305.6191C 307.5153 306.2906 306.5273 306.9622 305.3981 307.6337C 304.8336 308.0814 304.1279 308.4171 303.5633 308.8648C 302.5753 309.5363 301.4461 310.0959 300.8815 311.1032C 300.8815 311.2151 300.5992 311.327 300.4581 311.439C 299.7524 311.8867 298.6232 311.8867 298.6232 312.782C 297.494 312.782 296.9295 313.4536 296.3649 314.0132C 295.9415 314.4608 295.518 315.0204 294.9535 315.3562C 294.3889 315.5801 293.6832 315.4681 292.9774 315.4681C 292.6952 315.4681 292.4129 315.4681 292.4129 315.5801C 291.8483 316.0277 291.1426 316.3635 290.7191 316.9231C 290.2957 317.4827 289.8723 317.8184 289.1666 317.9304C 288.4608 318.0423 287.7551 318.6019 286.7671 318.2661C 285.9202 318.0423 284.9322 318.2661 284.3676 317.8184C 283.2385 317.9304 282.3916 318.1542 281.4036 318.2661C 280.2745 318.49 279.0042 318.3781 278.0161 319.0496C 277.1693 319.6091 276.4636 320.1688 275.1933 320.0569C 275.3344 320.7284 275.4756 321.288 275.6167 321.9595C 275.899 323.7502 276.1813 325.541 276.3224 327.3317C 276.7458 329.5701 276.887 331.6966 276.6047 333.8231C 276.3224 336.8449 275.0521 440.2595 273.7818 443.0575L273.7818 443.0575L272.5115 445.4078C 272.2877 445.9675 272.6527 446.3032 273.3584 446.4151C 274.2053 446.527 274.4875 446.9748 274.7698 447.5343C 275.0521 448.4297 274.6287 449.3251 275.1933 450.2204C 275.4756 450.6681 275.1933 451.4516 275.0521 452.1231C 274.911 453.0184 275.1933 453.9138 275.6167 454.6972C 276.6047 456.0403 276.7458 457.6072 276.7458 459.0622C 276.7458 459.3979 276.887 459.7337 277.0281 459.9575C 277.3105 460.1813 277.875 460.4052 278.4396 460.5171L278.4396 460.5171L281.8271 461.8602C 283.3796 462.5317 284.6499 462.4198 286.0614 461.6363C 286.2025 461.5244 286.626 461.4125 286.7671 461.4125C 287.7551 461.5244 288.7431 461.5244 289.59 462.196C 290.578 462.8675 291.9894 463.3152 293.1186 463.8747C 293.8243 464.2105 294.6712 464.6582 295.0946 465.1059C 295.3769 465.3297 295.6592 465.5536 295.9415 465.6655C 297.494 466.1132 298.3409 467.2323 299.3289 468.1277C 300.1758 468.9111 301.305 469.3589 302.5753 469.4708C 303.9867 469.6946 305.3981 469.8065 306.8096 470.0304C 307.3742 470.1423 308.0799 470.2542 308.6445 470.4781C 309.3502 470.7019 310.0559 470.7019 310.6205 471.0377C 311.4673 471.5973 312.3142 471.933 313.4434 471.7092C 313.8668 471.5973 314.4314 471.8211 314.8548 471.933C 314.9959 471.933 315.1371 472.0449 315.2783 472.0449C 316.8308 472.1569 318.2423 471.933 319.6537 471.7092C 320.2183 471.5973 320.7829 471.4854 321.3474 471.2615C 322.9001 470.7019 324.4526 470.1423 325.8641 469.4708C 326.8521 469.0231 327.8401 468.5754 328.9692 469.0231L328.9692 469.0231L329.5338 469.0231C 330.5218 469.0231 331.5098 468.9111 332.3567 468.7992C 332.4978 468.7992 332.7802 468.7992 332.7802 468.6873C 333.2036 468.2396 333.9093 468.2396 334.615 468.1277C 335.7442 468.0158 336.8733 468.0158 337.7202 467.4562C 338.567 467.0085 339.4139 466.8966 340.4019 466.7847C 340.5431 466.7847 340.8254 466.6728 340.9665 466.6728C 341.6722 466.5608 342.378 466.2251 342.9425 466.337C 344.2128 466.5608 344.7774 466.2251 345.6243 465.3297C 345.7654 465.1059 346.1889 464.994 346.4711 464.882C 347.1769 464.7701 347.8826 464.882 348.5883 464.7701C 349.0117 464.7701 349.4352 464.4344 349.7175 464.4344C 350.8466 464.5463 352.1169 464.2105 353.1049 464.7701C 353.2461 464.882 353.5284 464.882 353.8106 464.882C 355.6455 464.994 357.1981 465.4416 358.4684 466.337C 358.8918 466.6728 359.4564 466.8966 359.8799 467.1204C 360.3033 467.3443 360.8679 467.3443 361.2913 467.4562C 361.7148 467.5681 361.997 467.68 362.4204 467.68C 363.1262 467.68 363.6908 467.9039 364.1142 468.3516C 364.2553 468.4635 364.3965 468.5754 364.5376 468.7992C 364.3965 469.135 365.2433 470.0304 365.8079 470.0304C 366.7959 470.0304 367.7839 470.2542 368.6308 470.8138C 368.7719 470.9257 369.0542 470.9257 369.3365 470.8138C 369.7599 470.7019 370.0422 470.7019 370.3245 471.0377C 370.4657 471.1496 371.0303 471.1496 371.3125 471.1496C 372.0183 471.1496 372.8651 471.0377 373.5708 471.1496C 374.8412 471.2615 375.9703 471.3734 377.2406 471.5973C 377.5229 471.5973 377.8052 471.7092 377.9463 471.8211C 378.2286 472.3807 378.9343 472.3807 379.3578 472.4926C 379.7812 472.6046 380.3458 472.7165 380.6281 472.7165C 380.7692 472.6046 381.0515 472.4926 381.3338 472.2688C 380.7692 472.2688 380.4869 472.3807 380.2047 472.3807C 380.7692 471.8211 381.3338 471.7092 382.0395 472.0449C 382.8864 472.6046 383.5921 472.6046 384.5801 472.0449L384.5801 472.0449L385.4269 471.7092L385.4269 471.7092L385.4269 471.1496C 385.8504 471.2615 386.2738 471.4854 386.5561 471.4854C 387.403 471.1496 388.2498 470.8138 388.9556 470.3661C 389.8024 469.9184 390.5082 469.3589 391.2139 468.9111C 391.355 468.9111 391.355 468.7992 391.4962 468.7992C 392.4842 468.5754 393.3311 468.4635 394.3191 468.2396C 394.8836 468.1277 395.3071 467.9039 395.8716 467.7919C 396.2951 467.68 396.5774 467.68 397.0008 467.5681L397.0008 467.5681L398.4122 467.5681C 398.6945 467.5681 399.118 467.5681 399.4002 467.4562C 399.5414 467.2323 399.8237 466.8966 399.9648 466.8966C 400.3882 466.8966 400.6706 467.1204 401.094 467.2323C 401.2351 467.2323 401.2351 467.3443 401.2351 467.4562C 401.7997 467.9039 402.2231 468.4635 402.7877 468.9111C 403.4934 469.4708 404.1992 469.4708 404.6226 469.135C 405.3283 468.6873 405.8929 468.3516 406.8809 468.5754C 407.0221 468.5754 407.3044 468.6873 407.4455 468.5754C 408.1512 468.3516 408.9981 468.1277 409.7038 467.7919C 410.1272 467.68 410.6918 467.68 410.8329 467.4562C 411.2564 466.7847 411.9621 466.4489 412.6678 466.0012C 413.0912 465.6655 413.5147 465.2178 413.9381 465.1059C 414.9261 464.882 415.6318 464.2105 416.4787 463.7628C 417.1844 463.4271 417.6079 462.7555 418.3136 462.6436C 419.4427 462.4198 420.2896 461.8602 421.2776 461.3006C 421.8422 460.9648 422.5479 460.7409 423.2536 460.8529C 423.6771 460.9648 424.2416 460.8529 424.524 460.7409C 425.0885 460.5171 425.6531 460.1813 426.2177 459.9575C 426.6411 459.7337 427.0645 459.5098 427.488 459.5098C 428.8994 459.3979 430.0285 459.1741 430.7343 458.0549C 431.0165 457.6072 432.428 457.0476 432.9926 457.2714C 433.9806 457.6072 434.6863 457.3834 435.2509 456.7118C 435.6743 456.3761 436.2389 456.488 436.6624 456.7118C 436.9446 456.9357 437.2269 457.0476 437.5092 457.0476C 438.4972 457.1595 439.6264 457.0476 440.6144 457.1595C 441.4612 457.2714 442.3081 457.0476 442.8727 456.5999C 443.4373 456.1523 443.8607 456.1523 444.7076 456.3761C 445.4133 456.5999 445.9779 457.1595 446.9659 457.0476C 447.8127 456.9357 448.8008 457.2714 449.7888 456.9357L449.7888 456.9357L450.3533 456.9357C 451.2002 457.1595 452.0471 457.2714 452.7528 457.831C 453.5996 458.3906 453.7408 454.2496 454.5877 454.6972C 455.858 455.3688 455.5757 454.6972 456.846 455.2569C 457.834 455.5926 457.4106 454.3615 458.5397 454.5853C 458.6808 454.5853 460.3746 455.4807 460.3746 455.3688C 461.0803 455.033 461.786 451.6754 462.4918 451.7873C 463.9032 452.1231 465.1735 451.8992 466.4438 451.4516C 467.1495 451.2277 468.2787 450.4443 468.8433 450.78C 469.8312 451.3396 470.8193 451.5635 471.9484 451.6754C 472.0895 451.6754 472.2307 451.7873 472.3719 451.8992C 472.7953 452.3469 474.7713 451.1158 475.1947 451.5635C 475.7593 452.235 476.3239 452.9065 476.8885 453.4661C 477.1707 453.6899 477.5942 453.8019 477.7354 454.0257C 477.8765 454.5853 478.1588 454.8092 478.8645 454.8092C 479.2879 454.8092 479.7114 454.9211 479.9937 455.145C 480.6994 455.4807 481.2639 455.8164 481.8285 456.1523C 482.5342 456.488 483.24 456.8237 483.5223 457.3834C 483.6634 457.6072 483.8045 457.7191 483.9457 457.831C 484.5103 458.2787 485.0749 458.6145 485.6394 459.0622C 486.4863 459.6218 487.192 460.2933 488.0389 460.8529C 488.3212 460.9648 488.6035 461.1887 488.8857 461.3006C 489.4503 461.5244 490.0149 461.7482 490.4383 462.084C 490.8618 462.4198 492.8378 460.4052 493.1201 460.8529C 493.1201 460.9648 493.2612 460.9648 493.4024 460.9648C 494.2492 461.5244 495.0961 461.3006 495.9429 461.0767C 496.2253 460.9648 496.5075 460.8529 496.6487 460.9648C 497.6367 461.3006 498.3424 462.084 499.6127 462.196C 499.6127 462.196 499.7538 462.196 499.7538 462.3079C 500.0361 462.9793 500.883 462.9793 501.5887 463.0913C 502.0121 463.0913 502.4356 463.2032 502.7178 463.3152C 503.5648 463.6509 504.4116 464.0986 505.3996 464.3224C 506.6699 464.6582 507.9402 464.882 508.9283 465.4416C 509.0693 465.4416 509.2105 465.4416 509.2105 465.5536C 509.6339 465.7774 510.3397 465.8893 510.6219 466.2251C 511.0454 466.8966 512.1745 466.7847 512.7391 467.3443L512.7391 467.3443L512.8803 467.3443C 513.4448 467.3443 514.0095 467.4562 514.7151 467.4562C 514.9974 467.3443 515.4208 467.1204 515.7031 467.1204C 516.9734 467.4562 518.2438 467.4562 519.0906 466.5608C 519.2318 466.4489 519.5141 466.4489 519.7963 466.4489L519.7963 466.4489L520.9255 466.4489C 522.1958 466.2251 523.3249 466.0012 524.5952 465.8893C 525.1599 465.7774 525.8655 466.0012 526.4301 466.1132C 526.9947 466.2251 527.5593 466.2251 528.1238 466.2251C 528.8295 466.2251 529.3942 466.0012 530.0999 466.0012C 530.6645 465.8893 531.3702 465.8893 531.9348 465.7774C 533.205 465.5536 534.3342 465.3297 535.6045 465.2178C 536.4514 461.4125 536.3102 456.9357 536.3102 452.3469z" /></clipPath><clipPath id="77"><path id="" clip-rule="evenodd" transform="matrix(1 0 0 1 0 0)" d="M272.5115 295.882L536.3572 295.882L536.3572 295.882L536.3572 473.1642L536.3572 473.1642L272.5115 473.1642z" /></clipPath><clipPath id="78"><path id="" clip-rule="evenodd" transform="matrix(1 0 0 1 0 0)" d="M0 -0.249939L595.5 -0.249939L595.5 -0.249939L595.5 842.0001L595.5 842.0001L0 842.0001z" /></clipPath><clipPath id="79"><path id="" clip-rule="evenodd" transform="matrix(1 0 0 1 0 0)" d="M0 -0.249939L595.5 -0.249939L595.5 -0.249939L595.5 842.0001L595.5 842.0001L0 842.0001z" /></clipPath><clipPath id="80"><path id="" clip-rule="evenodd" transform="matrix(1 0 0 1 0 0)" d="M575.9644 563.1298L755.3566 751.6729L755.3566 751.6729L457.0565 1035.495L457.0565 1035.495L277.6643 846.952L277.6643 846.952L575.9644 563.1298z" /></clipPath><clipPath id="81"><path id="" clip-rule="evenodd" transform="matrix(1 0 0 1 0 0)" d="M630.5363 511.2066L1082.377 986.0961L1082.377 986.0961L688.4471 1360.907L688.4471 1360.907L236.6062 886.0174L236.6062 886.0174L630.5363 511.2066z" /></clipPath><clipPath id="82"><path id="" clip-rule="evenodd" transform="matrix(1 0 0 1 0 0)" d="M0 -0.249939L595.5 -0.249939L595.5 -0.249939L595.5 842.0001L595.5 842.0001L0 842.0001z" /></clipPath><clipPath id="83"><path id="" clip-rule="evenodd" transform="matrix(1 0 0 1 0 0)" d="M39.12 661.91L377.28 661.91L377.28 661.91L377.28 768.9501L377.28 768.9501L39.12 768.9501z" /></clipPath><clipPath id="84"><path id="" clip-rule="evenodd" transform="matrix(1 0 0 1 0 0)" d="M39.3294 661.9459L377.0959 661.9459L377.0959 661.9459L377.0959 768.8287L377.0959 768.8287L39.3294 768.8287z" /></clipPath><clipPath id="85"><path id="" clip-rule="evenodd" transform="matrix(1 0 0 1 0 0)" d="M60.3294 661.9459L355.9135 661.9459C 367.5115 661.9459 376.9135 671.3479 376.9135 682.9459L376.9135 682.9459L376.9135 747.8287C 376.9135 759.4267 367.5115 768.8287 355.9135 768.8287L355.9135 768.8287L60.3294 768.8287C 48.73142 768.8287 39.3294 759.4267 39.3294 747.8287L39.3294 747.8287L39.3294 682.9459C 39.3294 671.3479 48.73142 661.9459 60.3294 661.9459z" /></clipPath><clipPath id="86"><path id="" clip-rule="evenodd" transform="matrix(1 0 0 1 0 0)" d="M313.8584 504.1221L532.8583 504.1221L532.8583 504.1221L532.8583 629.3721L532.8583 629.3721L313.8584 629.3721z" /></clipPath><clipPath id="87"><path id="" clip-rule="evenodd" transform="matrix(1 0 0 1 0 0)" d="M0 -0.249939L595.5 -0.249939L595.5 -0.249939L595.5 842.0001L595.5 842.0001L0 842.0001z" /></clipPath></defs><g transform="matrix(1.333333 0 0 1.333333 0 0)"><g clip-path="url(#1)"><g clip-path="url(#2)"><path id="1" transform="matrix(1 0 0 -1 0 842)" d="M0 842.2499L595.4999 842.2499L595.4999 -6.103516E-05L0 -6.103516E-05z" stroke="none" fill="#FFFFFF" fill-rule="nonzero" /></g><g clip-path="url(#3)"><path id="2" transform="matrix(1 0 0 -1 0 842)" d="M0 842.2499L595.4999 842.2499L595.4999 -6.103516E-05L0 -6.103516E-05z" stroke="none" fill="#E9FCFF" fill-rule="nonzero" /></g><g clip-path="url(#4)"><g><g clip-path="url(#5)"><g clip-path="url(#6)"><g transform="matrix(0 0.5517752 -0.551854 0 535.7399 35.64954)"><g transform="matrix(1 0 0 1 0 0)"><image x="0" y="0" xlink:href="img_01.png" width="1521" height="863" /></g></g></g></g></g></g><g clip-path="url(#7)"><g clip-path="url(#8)"><g clip-path="url(#9)"><g clip-path="url(#10)"><path id="4" transform="matrix(1 0 0 -1 0 842)" d="M-215.2587 789.7688C -175.8862 778.0044 -147.1239 744.1517 -117.4277 717.0768C -87.71223 689.9797 -42.69012 655.011 -1.849052 684.5676C 13.76608 695.8682 23.83279 715.0364 24.33384 734.4043C 24.86295 754.8166 15.71149 776.2834 24.68282 794.7695C 31.77396 809.3951 48.08514 816.7952 63.52741 820.0602C 88.30869 825.3004 113.8647 823.0679 138.7578 827.5826C 163.6542 832.0947 189.8833 845.9679 198.4601 870.5983C 207.0882 895.3824 195.1771 921.8088 181.8845 943.5493C 153.756 989.5535 114.4196 1032.632 62.26049 1043.44C 31.37881 1049.843 -2.169395 1044.492 -31.14669 1056.794C -68.61741 1072.703 -89.12615 1113.851 -121.9277 1138.094C -161.0116 1166.971 -217.9534 1168.189 -259.9056 1141.038C -301.861 1113.889 -326.2759 1060.023 -319.065 1010.521C -315.6938 987.3504 -306.1178 965.6184 -303.6462 942.3009C -301.7018 923.9761 -304.2832 905.0153 -311.0839 887.6742C -318.2852 869.3103 -330.4039 850.778 -326.6038 831.7185C -322.7131 812.2001 -303.0984 800.5271 -284.0432 797.0482C -264.9821 793.5697 -245.0865 795.8759 -226.0351 792.3672C -222.3518 791.688 -218.7642 790.8166 -215.2587 789.7688" stroke="none" fill="#FB1005" fill-rule="nonzero" /></g></g></g></g><g clip-path="url(#11)"><g transform="matrix(0.07001972 0 0 0.06952491 465.2802 29.22412)"><g transform="matrix(1 0 0 1 0 0)"><image x="0" y="0" xlink:href="img_02.png" width="1521" height="863" /></g></g></g><g clip-path="url(#12)"><g transform="matrix(0.4929577 0 0 0.4906914 39.3294 29.22412)"><g transform="matrix(1 0 0 1 0 0)"><image x="0" y="0" xlink:href="img_03.png" width="213" height="188" /></g></g></g><g clip-path="url(#13)"><g clip-path="url(#14)"><g clip-path="url(#15)"><g clip-path="url(#16)"><g clip-path="url(#17)"><g clip-path="url(#18)"><g clip-path="url(#19)"><path id="7" transform="matrix(1 0 0 -1 0 842)" d="M228.4955 462.0574C 228.4955 445.072 214.7901 431.3666 197.8047 431.3666L197.8047 431.3666L84.1785 431.3666C 67.19313 431.2495 53.4877 445.072 53.4877 462.0574C 53.4877 479.0428 67.19313 492.7482 84.1785 492.7482L84.1785 492.7482L197.6876 492.7482C 214.7901 492.7482 228.4955 479.0428 228.4955 462.0574z" stroke="none" fill="#7ED957" fill-rule="nonzero" /></g></g></g></g></g></g></g><g clip-path="url(#20)"><g clip-path="url(#21)"><g clip-path="url(#22)"><g clip-path="url(#23)"><g clip-path="url(#24)"><g clip-path="url(#25)"><g clip-path="url(#26)"><path id="8" transform="matrix(1 0 0 -1 0 842)" d="M53.4877 461.9988C 53.4877 444.7831 67.44444 430.827 84.66096 430.827L84.66096 430.827L197.3222 430.827C 214.5387 430.827 228.4955 444.7831 228.4955 461.9988C 228.4955 479.2146 214.5387 493.1707 197.3222 493.1707L197.3222 493.1707L84.66096 493.1707C 67.44444 493.1707 53.4877 479.2146 53.4877 461.9988z" stroke="#000000" stroke-width="6" fill="none" /></g></g></g></g></g></g></g><g clip-path="url(#27)"></g><g clip-path="url(#28)"><g clip-path="url(#29)"><g clip-path="url(#30)"><g clip-path="url(#31)"><g clip-path="url(#32)"><path id="45" transform="matrix(1 0 0 -1 0 842)" d="M212.7677 452.417C 212.4724 452.7598 212.5083 453.2765 212.8484 453.571L212.8484 453.571L215.8091 456.1396C 216.1492 456.4342 216.6644 456.3955 216.9597 456.0528C 217.255 455.7101 217.2192 455.1933 216.8791 454.8988L216.8791 454.8988L213.9184 452.3302C 213.5792 452.034 213.0631 452.0743 212.7677 452.417zM208.467 454.5683C 208.0167 454.5973 207.6736 454.9847 207.7002 455.4364L207.7002 455.4364L207.9304 459.3657C 207.957 459.8174 208.3414 460.1596 208.7917 460.1306C 209.242 460.1016 209.5851 459.7141 209.5585 459.2625L209.5585 459.2625L209.33 455.3341C 209.3034 454.8824 208.9173 454.5392 208.467 454.5683zM203.2199 443.8257C 203.5152 443.4829 203.4793 442.9662 203.1393 442.6717L203.1393 442.6717L200.1785 440.1031C 199.8384 439.8085 199.3232 439.8472 199.0279 440.1899C 198.7326 440.5327 198.7684 441.0494 199.1085 441.3439L199.1085 441.3439L202.0693 443.9125C 202.4093 444.2071 202.9245 444.1684 203.2199 443.8257zM201.512 448.568C 201.4854 448.1163 201.101 447.774 200.6507 447.8031L200.6507 447.8031L196.7316 448.0534C 196.2813 448.0824 195.9382 448.4698 195.9648 448.9215C 195.9914 449.3732 196.3757 449.7155 196.826 449.6864L196.826 449.6864L200.7426 449.4369C 201.1946 449.4087 201.5369 449.0187 201.512 448.568zM203.7704 452.985C 203.4303 452.6904 202.9151 452.7291 202.6198 453.0718L202.6198 453.0718L200.0461 456.0566C 199.7507 456.3994 199.7866 456.9161 200.1267 457.2106C 200.4668 457.5052 200.982 457.4665 201.2773 457.1238L201.2773 457.1238L203.8527 454.1399C 204.1464 453.7962 204.1105 453.2795 203.7704 452.985zM237.0235 431.9477C 237.5356 429.9872 236.9798 427.7385 235.6402 426.233C 234.8699 425.3676 233.8703 424.7353 232.8537 424.2008C 231.7763 423.6332 230.6586 423.1358 229.5568 422.617C 228.9976 422.3531 228.4376 422.0909 227.8774 421.8329C 227.3477 421.5893 226.8265 421.3183 226.2903 421.0905C 225.863 420.9092 225.4227 420.8065 224.9583 420.8964C 224.4586 420.9928 223.9688 421.1803 223.4806 421.3258C 221.1056 422.0337 218.7307 422.7416 216.3557 423.4495C 214.2426 424.0793 212.1296 424.7091 210.0165 425.339C 209.7368 425.4223 209.4649 425.4992 209.2111 425.6524C 208.874 425.8567 208.6015 426.1497 208.4158 426.4985C 208.0207 427.2434 208.0846 428.2404 208.6712 428.8643C 209.0225 429.24 209.4936 429.4816 210.0052 429.5396C 210.2697 429.5701 210.549 429.5422 210.815 429.5349C 211.0851 429.5278 211.3552 429.5206 211.6263 429.5118C 212.7052 429.4823 213.7824 429.452 214.8613 429.4225C 214.9477 429.4203 215.0341 429.418 215.1205 429.4158C 215.4754 429.4055 215.7147 429.7952 215.5437 430.1092C 215.3249 430.5108 215.1061 430.9124 214.8874 431.314C 214.3382 432.3221 213.7882 433.3318 213.239 434.34C 212.5188 435.6621 211.7977 436.9859 211.0775 438.308C 210.3456 439.6516 209.6137 440.9952 208.8827 442.3371C 208.302 443.4031 207.7214 444.4691 207.1407 445.535C 206.8643 446.0424 206.5863 446.5489 206.3116 447.0571C 205.9845 447.6654 205.9356 448.3846 206.2219 449.0163C 206.6733 450.0059 207.8214 450.4984 208.8533 450.1604C 209.4651 449.96 209.8684 449.509 210.1673 448.9603C 210.3761 448.5769 210.585 448.1935 210.7938 447.81C 211.5005 446.5127 212.2072 445.2154 212.913 443.9197C 213.4469 442.9397 213.9807 441.9597 214.5146 440.9796C 214.5425 440.9284 214.5713 440.8755 214.5992 440.8243C 214.8891 440.2921 215.7038 440.7359 215.4205 441.2717C 214.77 442.501 215.4217 444.069 216.7863 444.3987C 217.5354 444.5797 218.3364 444.3409 218.8663 443.7787C 219.1578 443.4704 219.3401 443.0575 219.5408 442.689C 219.7452 442.3138 219.9487 441.9403 220.153 441.5652C 220.4429 441.033 221.2576 441.4768 220.9743 442.0125C 220.3229 443.2435 220.9782 444.8049 222.3426 445.1388C 223.0892 445.3205 223.8937 445.0794 224.4226 444.5189C 224.708 444.2178 224.8831 443.8182 225.0794 443.4579C 225.2855 443.0795 225.4917 442.701 225.6978 442.3225C 225.9877 441.7904 226.8024 442.2342 226.5191 442.7699C 226.0184 443.7165 226.2633 444.9365 227.1483 445.56C 228.1999 446.3 229.6616 445.9433 230.292 444.8251C 231.4713 442.6602 232.6497 440.4969 233.8291 438.3319C 234.4331 437.223 235.0381 436.1124 235.6422 435.0034C 236.1795 434.021 236.7404 433.0343 237.0235 431.9477zM235.7701 436.7275C 234.5259 439.0115 233.2827 441.2938 232.0385 443.5778C 231.7316 444.1413 231.4237 444.7065 231.1167 445.2701C 230.436 446.4766 229.0283 447.1371 227.6738 446.8085C 226.6058 446.5482 225.7684 445.7277 225.4561 444.6939C 225.3109 444.9213 225.1444 445.1371 224.9397 445.3213C 224.18 446.0004 223.1223 446.2921 222.1306 446.052C 221.2636 445.8412 220.49 445.2397 220.1022 444.4306C 220.0253 444.2708 219.9636 444.1065 219.9146 443.9384C 219.7658 444.1723 219.5966 444.393 219.3866 444.583C 218.6347 445.2556 217.5988 445.5464 216.6133 445.3224C 215.7308 445.1203 214.9424 444.5109 214.5492 443.6923C 214.4753 443.5385 214.4151 443.3792 214.3667 443.2179C 214.3127 443.317 214.2596 443.4145 214.2056 443.5137C 213.4665 444.8705 212.7273 446.2273 211.9891 447.5825C 211.7155 448.0849 211.4427 448.5857 211.169 449.0881C 210.9899 449.4169 210.8225 449.7437 210.5926 450.0406C 209.7503 451.1334 208.2305 451.4756 206.9834 450.9655C 205.8996 450.523 205.1659 449.4418 205.1059 448.2734C 205.0596 447.3652 205.4763 446.6471 205.8886 445.8902C 206.3901 444.9697 206.8924 444.0475 207.3939 443.127C 208.1114 441.8098 208.8289 440.4927 209.5455 439.1772C 210.3044 437.784 211.0633 436.3908 211.8231 434.996C 212.4497 433.8457 213.0754 432.6971 213.702 431.5469C 213.9135 431.1585 214.1203 430.7632 214.3318 430.3749C 213.6439 430.3944 212.9543 430.4131 212.2672 430.431C 211.8956 430.4407 211.523 430.4521 211.1497 430.4609C 210.5398 430.478 209.9157 430.5367 209.3279 430.345C 208.1779 429.9693 207.377 429.0037 207.2524 427.7935C 207.1525 426.8391 207.551 425.826 208.2738 425.1911C 208.8329 424.7006 209.4893 424.516 210.181 424.3098C 211.3761 423.9536 212.5737 423.5966 213.7688 423.2404C 216.2709 422.4946 218.7705 421.7496 221.2726 421.0038C 221.8956 420.8181 222.516 420.6332 223.139 420.4475C 223.6577 420.2929 224.1753 420.1013 224.7057 419.9916C 225.2547 419.8792 225.7825 419.9074 226.3112 420.0904C 226.8952 420.2928 227.4397 420.5915 228.0008 420.8479C 229.1806 421.3877 230.354 421.9433 231.5265 422.5005C 232.6553 423.0362 233.7939 423.5579 234.8195 424.2794C 235.8049 424.9726 236.657 425.8054 237.2371 426.8714C 237.7583 427.8304 238.0626 428.8984 238.1372 429.9891C 238.2188 431.1844 237.9664 432.3242 237.5002 433.4225C 237.0071 434.5662 236.3616 435.6418 235.7701 436.7275z" stroke="none" fill="#000000" fill-rule="nonzero" /></g></g></g></g></g><g clip-path="url(#33)"><g clip-path="url(#34)"><g clip-path="url(#35)"><g clip-path="url(#36)"><g clip-path="url(#37)"><g clip-path="url(#38)"><g clip-path="url(#39)"><path id="46" transform="matrix(1 0 0 -1 0 842)" d="M216.4111 372.175C 216.4111 357.5349 204.5981 345.7218 189.958 345.7218L189.958 345.7218L92.0206 345.7218C 77.38048 345.6208 65.56741 357.5349 65.56741 372.175C 65.56741 386.8151 77.38048 398.6282 92.0206 398.6282L92.0206 398.6282L189.857 398.6282C 204.5981 398.6282 216.4111 386.8151 216.4111 372.175z" stroke="none" fill="#7ED957" fill-rule="nonzero" /></g></g></g></g></g></g></g><g clip-path="url(#40)"><g clip-path="url(#41)"><g clip-path="url(#42)"><g clip-path="url(#43)"><g clip-path="url(#44)"><g clip-path="url(#45)"><g clip-path="url(#46)"><path id="47" transform="matrix(1 0 0 -1 0 842)" d="M65.56741 372.1245C 65.56741 364.9995 68.39825 358.1662 73.43717 353.128C 78.4761 348.0898 85.31035 345.2593 92.43645 345.2593L92.43645 345.2593L189.5421 345.2593C 196.6682 345.2593 203.5025 348.0898 208.5414 353.128C 213.5803 358.1662 216.4112 364.9995 216.4112 372.1245C 216.4112 379.2496 213.5803 386.0829 208.5414 391.1211C 203.5025 396.1593 196.6682 398.9898 189.5421 398.9898L189.5421 398.9898L92.43645 398.9898C 85.31035 398.9898 78.4761 396.1593 73.43717 391.1211C 68.39825 386.0829 65.56741 379.2496 65.56741 372.1245z" stroke="#000000" stroke-width="6" fill="none" /></g></g></g></g></g></g></g><g clip-path="url(#47)"></g><g clip-path="url(#48)"><g clip-path="url(#49)"><g clip-path="url(#50)"><g clip-path="url(#51)"><g clip-path="url(#52)"><path id="68" transform="matrix(1 0 0 -1 0 842)" d="M206.0619 362.9173C 205.7666 363.2601 205.8025 363.7768 206.1426 364.0714L206.1426 364.0714L209.1033 366.64C 209.4434 366.9345 209.9586 366.8958 210.2539 366.5531C 210.5492 366.2104 210.5134 365.6936 210.1733 365.3991L210.1733 365.3991L207.2126 362.8305C 206.8734 362.5343 206.3573 362.5746 206.0619 362.9173zM201.7612 365.0686C 201.3109 365.0976 200.9678 365.485 200.9944 365.9367L200.9944 365.9367L201.2246 369.866C 201.2512 370.3177 201.6356 370.6599 202.0859 370.6309C 202.5362 370.6019 202.8793 370.2144 202.8527 369.7628L202.8527 369.7628L202.6242 365.8344C 202.5976 365.3827 202.2115 365.0396 201.7612 365.0686zM196.5141 354.326C 196.8094 353.9832 196.7735 353.4665 196.4334 353.172L196.4334 353.172L193.4727 350.6034C 193.1326 350.3088 192.6174 350.3475 192.3221 350.6902C 192.0268 351.033 192.0627 351.5497 192.4027 351.8442L192.4027 351.8442L195.3635 354.4128C 195.7036 354.7074 196.2188 354.6687 196.5141 354.326zM194.8062 359.0683C 194.7796 358.6166 194.3952 358.2744 193.9449 358.3034L193.9449 358.3034L190.0258 358.5537C 189.5755 358.5827 189.2324 358.9702 189.259 359.4218C 189.2856 359.8735 189.67 360.2158 190.1203 360.1867L190.1203 360.1867L194.0368 359.9372C 194.4888 359.909 194.8311 359.519 194.8062 359.0683zM197.0646 363.4853C 196.7245 363.1907 196.2094 363.2294 195.914 363.5721L195.914 363.5721L193.3403 366.5569C 193.045 366.8997 193.0808 367.4164 193.4209 367.7109C 193.761 368.0055 194.2762 367.9668 194.5715 367.6241L194.5715 367.6241L197.1469 364.6402C 197.4406 364.2965 197.4047 363.7798 197.0646 363.4853zM230.3177 342.448C 230.8298 340.4875 230.274 338.2388 228.9344 336.7333C 228.1641 335.8679 227.1646 335.2356 226.1479 334.7011C 225.0706 334.1335 223.9528 333.6361 222.851 333.1173C 222.2918 332.8534 221.7318 332.5912 221.1716 332.3332C 220.6418 332.0896 220.1207 331.8186 219.5845 331.5908C 219.1572 331.4095 218.7169 331.3068 218.2525 331.3967C 217.7528 331.4931 217.263 331.6806 216.7748 331.8261C 214.3998 332.534 212.0249 333.2419 209.6499 333.9498C 207.5368 334.5796 205.4238 335.2094 203.3107 335.8393C 203.031 335.9226 202.7591 335.9995 202.5053 336.1527C 202.1682 336.357 201.8957 336.65 201.71 336.9988C 201.3149 337.7437 201.3788 338.7408 201.9654 339.3647C 202.3167 339.7403 202.7878 339.9819 203.2994 340.0399C 203.5639 340.0704 203.8432 340.0425 204.1092 340.0352C 204.3793 340.0281 204.6494 340.0209 204.9205 340.0121C 205.9994 339.9826 207.0766 339.9523 208.1555 339.9228C 208.2419 339.9206 208.3283 339.9183 208.4147 339.9161C 208.7696 339.9059 209.0089 340.2955 208.8379 340.6095C 208.6191 341.0111 208.4003 341.4127 208.1816 341.8143C 207.6324 342.8224 207.0824 343.8322 206.5332 344.8403C 205.813 346.1624 205.0919 347.4862 204.3717 348.8083C 203.6398 350.1519 202.9079 351.4955 202.1769 352.8374C 201.5962 353.9034 201.0156 354.9694 200.4349 356.0353C 200.1585 356.5427 199.8805 357.0492 199.6058 357.5574C 199.2787 358.1657 199.2298 358.8849 199.5161 359.5166C 199.9675 360.5062 201.1156 360.9987 202.1475 360.6607C 202.7593 360.4603 203.1626 360.0093 203.4615 359.4606C 203.6703 359.0772 203.8792 358.6938 204.088 358.3103C 204.7947 357.013 205.5014 355.7157 206.2072 354.42C 206.7411 353.44 207.2749 352.46 207.8088 351.4799C 207.8367 351.4287 207.8655 351.3758 207.8934 351.3246C 208.1833 350.7924 208.998 351.2362 208.7147 351.772C 208.0642 353.0013 208.7159 354.5693 210.0805 354.899C 210.8296 355.08 211.6306 354.8412 212.1605 354.2791C 212.452 353.9707 212.6343 353.5578 212.8351 353.1893C 213.0394 352.8141 213.2429 352.4406 213.4472 352.0655C 213.7371 351.5333 214.5518 351.9771 214.2685 352.5128C 213.6171 353.7438 214.2724 355.3052 215.6368 355.6391C 216.3834 355.8208 217.1879 355.5797 217.7168 355.0192C 218.0022 354.7181 218.1773 354.3185 218.3736 353.9582C 218.5797 353.5798 218.7859 353.2013 218.992 352.8228C 219.2819 352.2907 220.0966 352.7345 219.8133 353.2702C 219.3126 354.2168 219.5575 355.4368 220.4425 356.0603C 221.4941 356.8004 222.9558 356.4436 223.5862 355.3254C 224.7655 353.1605 225.9439 350.9972 227.1233 348.8322C 227.7274 347.7233 228.3323 346.6127 228.9364 345.5038C 229.4737 344.5213 230.0346 343.5346 230.3177 342.448zM229.0643 347.2278C 227.8201 349.5118 226.5769 351.7941 225.3327 354.0781C 225.0258 354.6416 224.7179 355.2068 224.4109 355.7704C 223.7302 356.9769 222.3225 357.6374 220.968 357.3088C 219.9 357.0485 219.0626 356.228 218.7503 355.1942C 218.6051 355.4216 218.4386 355.6374 218.2339 355.8216C 217.4742 356.5007 216.4165 356.7924 215.4248 356.5523C 214.5578 356.3415 213.7842 355.7401 213.3964 354.9309C 213.3195 354.7711 213.2578 354.6068 213.2088 354.4387C 213.06 354.6726 212.8908 354.8933 212.6808 355.0833C 211.9289 355.7559 210.893 356.0467 209.9074 355.8227C 209.025 355.6206 208.2366 355.0112 207.8434 354.1926C 207.7695 354.0388 207.7093 353.8795 207.6609 353.7182C 207.6069 353.8173 207.5538 353.9148 207.4998 354.014C 206.7607 355.3708 206.0215 356.7276 205.2833 358.0828C 205.0097 358.5852 204.7369 359.086 204.4632 359.5884C 204.2841 359.9172 204.1167 360.244 203.8868 360.5409C 203.0445 361.6337 201.5247 361.9759 200.2776 361.4658C 199.1938 361.0233 198.4601 359.9421 198.4001 358.7737C 198.3538 357.8655 198.7705 357.1474 199.1828 356.3905C 199.6843 355.47 200.1866 354.5478 200.6881 353.6273C 201.4056 352.3101 202.1231 350.993 202.8397 349.6775C 203.5986 348.2843 204.3575 346.8911 205.1173 345.4963C 205.7439 344.346 206.3696 343.1974 206.9962 342.0472C 207.2077 341.6588 207.4145 341.2635 207.6261 340.8752C 206.9381 340.8947 206.2485 340.9134 205.5614 340.9313C 205.1898 340.941 204.8172 340.9524 204.444 340.9612C 203.834 340.9783 203.2099 341.037 202.6221 340.8453C 201.4721 340.4696 200.6712 339.504 200.5466 338.2939C 200.4467 337.3394 200.8452 336.3263 201.5681 335.6914C 202.1271 335.2009 202.7835 335.0163 203.4752 334.8102C 204.6703 334.4539 205.8679 334.097 207.063 333.7407C 209.5651 332.9949 212.0647 332.2499 214.5668 331.5042C 215.1898 331.3185 215.8102 331.1335 216.4332 330.9478C 216.9519 330.7932 217.4695 330.6016 218 330.4919C 218.549 330.3795 219.0767 330.4077 219.6054 330.5907C 220.1895 330.7931 220.7339 331.0918 221.295 331.3482C 222.4748 331.888 223.6482 332.4436 224.8207 333.0009C 225.9495 333.5365 227.0882 334.0582 228.1136 334.7797C 229.0992 335.4729 229.9512 336.3057 230.5313 337.3717C 231.0525 338.3307 231.3568 339.3987 231.4314 340.4894C 231.513 341.6847 231.2606 342.8245 230.7944 343.9228C 230.3013 345.0665 229.6558 346.1421 229.0643 347.2278z" stroke="none" fill="#000000" fill-rule="nonzero" /></g></g></g></g></g><g clip-path="url(#53)"><g clip-path="url(#54)"><g clip-path="url(#55)"><g clip-path="url(#56)"><g clip-path="url(#57)"><g clip-path="url(#58)"><g clip-path="url(#59)"><path id="69" transform="matrix(1 0 0 -1 0 842)" d="M218.9295 275.2863C 218.9295 260.3424 206.8714 248.2843 191.9276 248.2843L191.9276 248.2843L91.95875 248.2843C 77.01495 248.1813 64.95685 260.3424 64.95685 275.2863C 64.95685 290.23 77.01495 302.2881 91.95875 302.2881L91.95875 302.2881L191.8246 302.2881C 206.8714 302.2881 218.9295 290.23 218.9295 275.2863z" stroke="none" fill="#7ED957" fill-rule="nonzero" /></g></g></g></g></g></g></g><g clip-path="url(#60)"><g clip-path="url(#61)"><g clip-path="url(#62)"><g clip-path="url(#63)"><g clip-path="url(#64)"><g clip-path="url(#65)"><g clip-path="url(#66)"><path id="70" transform="matrix(1 0 0 -1 0 842)" d="M64.95685 275.2347C 64.95685 267.962 67.84641 260.9871 72.98985 255.8445C 78.13329 250.7019 85.1093 247.8128 92.38322 247.8128L92.38322 247.8128L191.5031 247.8128C 198.777 247.8128 205.7531 250.7019 210.8965 255.8445C 216.0399 260.9871 218.9295 267.962 218.9295 275.2347C 218.9295 282.5074 216.0399 289.4823 210.8965 294.6249C 205.7531 299.7675 198.777 302.6566 191.5031 302.6566L191.5031 302.6566L92.38322 302.6566C 85.1093 302.6566 78.13329 299.7675 72.98985 294.6249C 67.84641 289.4823 64.95685 282.5074 64.95685 275.2347z" stroke="#000000" stroke-width="6" fill="none" /></g></g></g></g></g></g></g><g clip-path="url(#67)"></g><g clip-path="url(#68)"><g clip-path="url(#69)"><g clip-path="url(#70)"><g clip-path="url(#71)"><g clip-path="url(#72)"><path id="91" transform="matrix(1 0 0 -1 0 842)" d="M208.5711 265.4727C 208.2757 265.8155 208.3116 266.3322 208.6517 266.6267L208.6517 266.6267L211.6124 269.1953C 211.9525 269.4899 212.4677 269.4512 212.763 269.1085C 213.0584 268.7657 213.0225 268.249 212.6824 267.9545L212.6824 267.9545L209.7217 265.3859C 209.3825 265.0897 208.8664 265.13 208.5711 265.4727zM204.2704 267.624C 203.8201 267.653 203.4769 268.0404 203.5035 268.4921L203.5035 268.4921L203.7337 272.4214C 203.7603 272.873 204.1447 273.2153 204.595 273.1863C 205.0453 273.1573 205.3884 272.7698 205.3618 272.3181L205.3618 272.3181L205.1333 268.3898C 205.1067 267.9381 204.7207 267.5949 204.2704 267.624zM199.0232 256.8814C 199.3185 256.5386 199.2827 256.0219 198.9426 255.7274L198.9426 255.7274L195.9818 253.1587C 195.6418 252.8642 195.1266 252.9029 194.8312 253.2456C 194.5359 253.5883 194.5718 254.1051 194.9118 254.3996L194.9118 254.3996L197.8726 256.9682C 198.2127 257.2628 198.7279 257.2241 199.0232 256.8814zM197.3153 261.6237C 197.2887 261.172 196.9043 260.8297 196.454 260.8588L196.454 260.8588L192.5349 261.1091C 192.0846 261.1381 191.7415 261.5255 191.7681 261.9772C 191.7947 262.4289 192.1791 262.7711 192.6294 262.7421L192.6294 262.7421L196.5459 262.4926C 196.9979 262.4644 197.3403 262.0744 197.3153 261.6237zM199.5738 266.0406C 199.2337 265.7461 198.7185 265.7848 198.4231 266.1275L198.4231 266.1275L195.8494 269.1123C 195.5541 269.455 195.59 269.9718 195.93 270.2663C 196.2701 270.5609 196.7853 270.5222 197.0806 270.1795L197.0806 270.1795L199.656 267.1956C 199.9497 266.8519 199.9138 266.3352 199.5738 266.0406zM232.8268 245.0034C 233.3389 243.0428 232.7832 240.7942 231.4435 239.2887C 230.6732 238.4233 229.6737 237.791 228.6571 237.2565C 227.5797 236.6889 226.4619 236.1915 225.3601 235.6727C 224.8009 235.4088 224.2409 235.1466 223.6807 234.8886C 223.151 234.645 222.6298 234.374 222.0936 234.1462C 221.6663 233.9649 221.226 233.8622 220.7617 233.9521C 220.2619 234.0485 219.7721 234.236 219.2839 234.3815C 216.9089 235.0894 214.534 235.7973 212.159 236.5052C 210.046 237.135 207.9329 237.7648 205.8199 238.3946C 205.5402 238.478 205.2682 238.5549 205.0144 238.7081C 204.6774 238.9124 204.4049 239.2054 204.2191 239.5542C 203.824 240.2991 203.8879 241.2961 204.4745 241.92C 204.8258 242.2957 205.297 242.5373 205.8085 242.5953C 206.0731 242.6258 206.3524 242.5979 206.6183 242.5906C 206.8884 242.5835 207.1586 242.5763 207.4296 242.5675C 208.5085 242.538 209.5858 242.5077 210.6646 242.4782C 210.7511 242.4759 210.8375 242.4737 210.9239 242.4715C 211.2788 242.4612 211.5181 242.8509 211.347 243.1649C 211.1282 243.5665 210.9095 243.9681 210.6907 244.3697C 210.1416 245.3778 209.5915 246.3876 209.0423 247.3957C 208.3221 248.7178 207.601 250.0416 206.8808 251.3637C 206.1489 252.7073 205.417 254.0509 204.686 255.3928C 204.1053 256.4588 203.5247 257.5247 202.944 258.5907C 202.6676 259.0981 202.3896 259.6046 202.1149 260.1128C 201.7878 260.7211 201.7389 261.4403 202.0253 262.072C 202.4767 263.0616 203.6248 263.5541 204.6566 263.2161C 205.2684 263.0157 205.6717 262.5647 205.9706 262.016C 206.1794 261.6326 206.3883 261.2491 206.5972 260.8657C 207.3039 259.5684 208.0106 258.2711 208.7164 256.9754C 209.2502 255.9954 209.7841 255.0154 210.3179 254.0353C 210.3458 253.9841 210.3746 253.9312 210.4025 253.88C 210.6924 253.3478 211.5071 253.7916 211.2238 254.3274C 210.5733 255.5567 211.225 257.1247 212.5896 257.4544C 213.3388 257.6353 214.1397 257.3966 214.6696 256.8344C 214.9611 256.5261 215.1434 256.1132 215.3442 255.7446C 215.5485 255.3695 215.752 254.996 215.9564 254.6208C 216.2462 254.0887 217.0609 254.5325 216.7776 255.0682C 216.1262 256.2992 216.7815 257.8606 218.146 258.1945C 218.8926 258.3762 219.697 258.1351 220.226 257.5746C 220.5113 257.2735 220.6864 256.8739 220.8827 256.5136C 221.0889 256.1352 221.295 255.7567 221.5012 255.3782C 221.791 254.8461 222.6057 255.2899 222.3224 255.8256C 221.8217 256.7722 222.0666 257.9922 222.9516 258.6157C 224.0033 259.3557 225.4649 258.999 226.0953 257.8808C 227.2746 255.7159 228.4531 253.5525 229.6324 251.3876C 230.2365 250.2786 230.8414 249.1681 231.4455 248.0591C 231.9828 247.0767 232.5437 246.09 232.8268 245.0034zM231.5734 249.7832C 230.3293 252.0672 229.086 254.3495 227.8419 256.6335C 227.5349 257.197 227.227 257.7622 226.92 258.3258C 226.2393 259.5323 224.8317 260.1927 223.4771 259.8642C 222.4091 259.6039 221.5717 258.7834 221.2594 257.7496C 221.1143 257.977 220.9478 258.1928 220.743 258.377C 219.9833 259.0561 218.9256 259.3478 217.9339 259.1077C 217.0669 258.8969 216.2933 258.2954 215.9056 257.4863C 215.8286 257.3265 215.7669 257.1622 215.7179 256.994C 215.5692 257.228 215.3999 257.4487 215.19 257.6387C 214.438 258.3113 213.4021 258.6021 212.4166 258.3781C 211.5341 258.176 210.7458 257.5666 210.3525 256.748C 210.2787 256.5942 210.2184 256.4349 210.17 256.2736C 210.116 256.3727 210.0629 256.4702 210.0089 256.5694C 209.2698 257.9262 208.5307 259.283 207.7925 260.6382C 207.5188 261.1406 207.246 261.6414 206.9723 262.1438C 206.7932 262.4726 206.6258 262.7994 206.3959 263.0963C 205.5536 264.1891 204.0339 264.5313 202.7867 264.0212C 201.7029 263.5787 200.9692 262.4975 200.9092 261.3291C 200.8629 260.4209 201.2796 259.7028 201.692 258.9459C 202.1934 258.0254 202.6958 257.1032 203.1972 256.1827C 203.9147 254.8655 204.6322 253.5484 205.3488 252.2328C 206.1077 250.8397 206.8666 249.4465 207.6264 248.0517C 208.253 246.9014 208.8787 245.7528 209.5053 244.6026C 209.7168 244.2142 209.9236 243.8189 210.1352 243.4306C 209.4472 243.4501 208.7576 243.4688 208.0705 243.4867C 207.6989 243.4964 207.3264 243.5078 206.9531 243.5166C 206.3431 243.5337 205.7191 243.5923 205.1312 243.4007C 203.9813 243.025 203.1803 242.0594 203.0557 240.8493C 202.9558 239.8948 203.3543 238.8817 204.0772 238.2468C 204.6362 237.7563 205.2927 237.5717 205.9843 237.3655C 207.1794 237.0093 208.3771 236.6523 209.5722 236.2961C 212.0742 235.5503 214.5738 234.8053 217.0759 234.0595C 217.6989 233.8738 218.3193 233.6889 218.9423 233.5032C 219.461 233.3486 219.9786 233.157 220.5091 233.0473C 221.0581 232.9349 221.5858 232.9631 222.1145 233.146C 222.6986 233.3485 223.243 233.6472 223.8041 233.9035C 224.9839 234.4434 226.1573 234.999 227.3298 235.5562C 228.4587 236.0919 229.5973 236.6136 230.6228 237.3351C 231.6083 238.0283 232.4603 238.8611 233.0404 239.9271C 233.5616 240.8861 233.8659 241.9541 233.9406 243.0448C 234.0222 244.2401 233.7697 245.3799 233.3035 246.4782C 232.8105 247.6219 232.1649 248.6975 231.5734 249.7832z" stroke="none" fill="#000000" fill-rule="nonzero" /></g></g></g></g></g><g clip-path="url(#73)"><g clip-path="url(#74)"><g clip-path="url(#75)"><g clip-path="url(#76)"><g clip-path="url(#77)"><g transform="matrix(0.3462542 0 0 0.3462541 271.4192 295.6579)"><g transform="matrix(1 0 0 1 0 0)"><image x="0" y="0" xlink:href="img_04.png" width="768" height="512" /></g></g></g></g></g></g></g><g clip-path="url(#78)"><g clip-path="url(#79)"><g clip-path="url(#80)"><g clip-path="url(#81)"><path id="93" transform="matrix(1 0 0 -1 0 842)" d="M805.9747 53.04645C 760.3015 71.50668 729.7711 115.1399 697.3654 150.7881C 664.9392 186.4651 615.127 233.2551 563.0636 202.561C 543.1577 190.8255 528.9913 169.0769 526.2197 146.0162C 523.2973 121.7123 531.811 95.06326 519.0285 74.00586C 508.9234 57.34506 488.6245 50.3432 469.8268 48.17932C 439.6607 44.70593 409.4086 50.23856 379.1903 47.64359C 348.9687 45.05228 316.1057 31.43741 303.1045 3.002014C 290.0249 -25.61105 301.2757 -58.48926 314.7014 -85.92978C 343.1115 -143.9953 385.2273 -199.8267 446.2695 -218.5811C 482.4102 -229.6885 523.0525 -227.0675 556.2581 -245.0027C 599.1962 -268.1963 619.0568 -319.6097 655.4868 -352.2266C 698.895 -391.0792 766.7219 -398.9237 819.8416 -371.2255C 872.9646 -343.5308 908.1507 -281.9779 905.0996 -222.0843C 903.6762 -194.051 894.6855 -167.0378 894.3524 -138.9296C 894.0881 -116.8397 899.2971 -94.49838 909.3604 -74.564C 920.0165 -53.45374 936.5608 -32.69421 934.1641 -9.519135C 931.7108 14.21393 909.6095 30.34772 887.2563 36.63852C 864.8962 42.92947 840.8906 42.40985 818.5454 48.73566C 814.2255 49.95978 810.0412 51.4024 805.9747 53.04645" stroke="none" fill="#FB1005" fill-rule="nonzero" /></g></g></g></g><g clip-path="url(#82)"><g><g clip-path="url(#83)"><g clip-path="url(#84)"><g clip-path="url(#85)"><path id="94" transform="matrix(1 0 0 -1 0 842)" d="M39.3294 180.0541L377.096 180.0541L377.096 73.17126L39.3294 73.17126z" stroke="none" fill="#FFB5B1" fill-rule="nonzero" fill-opacity="0.3294118" /></g></g></g></g></g><g clip-path="url(#86)"><g transform="matrix(0.4211538 0 0 0.420302 313.8584 504.1221)"><g transform="matrix(1 0 0 1 0 0)"><image x="0" y="0" xlink:href="img_05.png" width="520" height="298" /></g></g></g><g clip-path="url(#87)"></g></g></g></svg>