<svg xmlns="http://www.w3.org/2000/svg" xmlns:xlink="http://www.w3.org/1999/xlink" id="body_1" preserveAspectRatio="xMinYMin meet" viewBox="0 0 793 1123"><defs><clipPath id="1"><path id="" clip-rule="evenodd" transform="matrix(1 0 0 1 0 0)" d="M0 842L0 -0.250061L0 -0.250061L595.5 -0.250061L595.5 -0.250061L595.5 842L595.5 842L0 842z" /></clipPath><clipPath id="2"><path id="" clip-rule="evenodd" transform="matrix(1 0 0 1 0 0)" d="M0 -0.25L595.5 -0.25L595.5 -0.25L595.5 842.0012L595.5 842.0012L0 842.0012z" /></clipPath><clipPath id="3"><path id="" clip-rule="evenodd" transform="matrix(1 0 0 1 0 0)" d="M0 -0.25L595.5 -0.25L595.5 -0.25L595.5 842.0012L595.5 842.0012L0 842.0012z" /></clipPath><clipPath id="4"><path id="" clip-rule="evenodd" transform="matrix(1 0 0 1 0 0)" d="M0 -0.25L595.5 -0.25L595.5 -0.25L595.5 842.0012L595.5 842.0012L0 842.0012z" /></clipPath><clipPath id="5"><path id="" clip-rule="evenodd" transform="matrix(1 0 0 1 0 0)" d="M78.71999 30.71002L522.24 30.71002L522.24 30.71002L522.24 810.95L522.24 810.95L78.71999 810.95z" /></clipPath><clipPath id="6"><path id="" clip-rule="evenodd" transform="matrix(1 0 0 1 0 0)" d="M79.51786 30.75177L522.0178 30.75177L522.0178 30.75177L522.0178 810.7518L522.0178 810.7518L79.51786 810.7518z" /></clipPath><clipPath id="7"><path id="" clip-rule="evenodd" transform="matrix(1 0 0 1 0 0)" d="M0 -0.25L595.5 -0.25L595.5 -0.25L595.5 842.0012L595.5 842.0012L0 842.0012z" /></clipPath><clipPath id="8"><path id="" clip-rule="evenodd" transform="matrix(1 0 0 1 0 0)" d="M0 -0.25L595.5 -0.25L595.5 -0.25L595.5 842.0012L595.5 842.0012L0 842.0012z" /></clipPath><clipPath id="9"><path id="" clip-rule="evenodd" transform="matrix(1 0 0 1 0 0)" d="M315.0432 82.68994L562.5768 82.68994L562.5768 82.68994L562.5768 388.2387L562.5768 388.2387L315.0432 388.2387z" /></clipPath><clipPath id="10"><path id="" clip-rule="evenodd" transform="matrix(1 0 0 1 0 0)" d="M342.7944 82.68994L534.828 82.68994C 542.1864 82.68994 549.2448 85.61359 554.4504 90.81775C 559.6536 96.02191 562.5768 103.0801 562.5768 110.4399L562.5768 110.4399L562.5768 360.1868C 562.5768 367.5476 559.6536 374.606 554.4504 379.8092C 549.2448 385.0148 542.1864 387.938 534.828 387.938L534.828 387.938L342.7944 387.938C 335.4336 387.938 328.3752 385.0148 323.172 379.8092C 317.9664 374.606 315.0432 367.5476 315.0432 360.1868L315.0432 360.1868L315.0432 110.4399C 315.0432 103.0801 317.9664 96.02191 323.172 90.81775C 328.3752 85.61359 335.4336 82.68994 342.7944 82.68994z" /></clipPath><clipPath id="11"><path id="" clip-rule="evenodd" transform="matrix(1 0 0 1 0 0)" d="M320.0256 348.9188L557.7756 348.9188L557.7756 348.9188L557.7756 354.1688L557.7756 354.1688L320.0256 354.1688z" /></clipPath><clipPath id="12"><path id="" clip-rule="evenodd" transform="matrix(1 0 0 1 0 0)" d="M319.92 348.95L558 348.95L558 348.95L558 354.23L558 354.23L319.92 354.23z" /></clipPath><mask id="m1"><clipPath id="13"><path id="" clip-rule="evenodd" transform="matrix(1 0 0 1 0 0)" d="M319.92 348.95L558 348.95L558 348.95L558 354.23L558 354.23L319.92 354.23z" /></clipPath><g><g><g clip-path="url(#13)"><path id="5" transform="matrix(1 0 0 -1 0 842)" d="M319.92 493.05L558 493.05L558 487.77L319.92 487.77z" stroke="none" fill="#000000" fill-rule="nonzero" /></g></g></g></mask><clipPath id="14"><path id="" clip-rule="evenodd" transform="matrix(1 0 0 1 0 0)" d="M319.92 348.95L558 348.95L558 348.95L558 354.23L558 354.23L319.92 354.23z" /></clipPath><clipPath id="15"><path id="" clip-rule="evenodd" transform="matrix(1 0 0 1 0 0)" d="M319.68 349.0019L558.24 349.0019L558.24 349.0019L558.24 354.2631L558.24 354.2631L319.68 354.2631z" /></clipPath><mask id="m2"><clipPath id="16"><path id="" clip-rule="evenodd" transform="matrix(1 0 0 1 0 0)" d="M319.92 348.95L558 348.95L558 348.95L558 354.23L558 354.23L319.92 354.23z" /></clipPath><clipPath id="17"><path id="" clip-rule="evenodd" transform="matrix(1 0 0 1 0 0)" d="M319.92 348.95L558 348.95L558 348.95L558 354.23L558 354.23L319.92 354.23z" /></clipPath><clipPath id="18"><path id="" clip-rule="evenodd" transform="matrix(1 0 0 1 0 0)" d="M320.0475 349.0019L557.7628 349.0019L557.7628 349.0019L557.7628 354.0527L557.7628 354.0527L320.0475 354.0527z" /></clipPath><g><g><g clip-path="url(#16)"><g><g clip-path="url(#17)"><g clip-path="url(#18)"><g transform="matrix(0.24 0 0 0.24 319.92 348.95)"><g transform="matrix(1 0 0 1 0 0)"><image x="0" y="0" xlink:href="img_02.png" width="992" height="22" /></g></g></g></g></g></g></g></g></mask><clipPath id="19"><path id="" clip-rule="evenodd" transform="matrix(1 0 0 1 0 0)" d="M319.92 348.95L558 348.95L558 348.95L558 354.23L558 354.23L319.92 354.23z" /></clipPath><clipPath id="20"><path id="" clip-rule="evenodd" transform="matrix(1 0 0 1 0 0)" d="M319.68 349.0019L558.24 349.0019L558.24 349.0019L558.24 354.2631L558.24 354.2631L319.68 354.2631z" /></clipPath><clipPath id="21"><path id="" clip-rule="evenodd" transform="matrix(1 0 0 1 0 0)" d="M0 -0.25L595.5 -0.25L595.5 -0.25L595.5 842.0012L595.5 842.0012L0 842.0012z" /></clipPath><clipPath id="22"><path id="" clip-rule="evenodd" transform="matrix(1 0 0 1 0 0)" d="M0 -0.25L595.5 -0.25L595.5 -0.25L595.5 842.0012L595.5 842.0012L0 842.0012z" /></clipPath><clipPath id="23"><path id="" clip-rule="evenodd" transform="matrix(1 0 0 1 0 0)" d="M333.6384 173.3864L526.8729 173.3864L526.8729 173.3864L526.8729 337.7321L526.8729 337.7321L333.6384 337.7321z" /></clipPath><clipPath id="24"><path id="" clip-rule="evenodd" transform="matrix(1 0 0 1 0 0)" d="M346.3896 173.3864L513.7776 173.3864C 520.8192 173.3864 526.5264 179.0948 526.5264 186.1364L526.5264 186.1364L526.5264 324.9812C 526.5264 332.0228 520.8192 337.7324 513.7776 337.7324L513.7776 337.7324L346.3896 337.7324C 339.348 337.7324 333.6384 332.0228 333.6384 324.9812L333.6384 324.9812L333.6384 186.1364C 333.6384 179.0948 339.348 173.3864 346.3896 173.3864z" /></clipPath><clipPath id="25"><path id="" clip-rule="evenodd" transform="matrix(1 0 0 1 0 0)" d="M333.6384 173.3864L526.2309 173.3864L526.2309 173.3864L526.2309 337.7321L526.2309 337.7321L333.6384 337.7321z" /></clipPath><clipPath id="26"><path id="" clip-rule="evenodd" transform="matrix(1 0 0 1 0 0)" d="M0 -0.25L595.5 -0.25L595.5 -0.25L595.5 842.0012L595.5 842.0012L0 842.0012z" /></clipPath><clipPath id="27"><path id="" clip-rule="evenodd" transform="matrix(1 0 0 1 0 0)" d="M0 -0.25L595.5 -0.25L595.5 -0.25L595.5 842.0012L595.5 842.0012L0 842.0012z" /></clipPath><clipPath id="28"><path id="" clip-rule="evenodd" transform="matrix(1 0 0 1 0 0)" d="M0 -0.25L595.5 -0.25L595.5 -0.25L595.5 842.0012L595.5 842.0012L0 842.0012z" /></clipPath><clipPath id="29"><path id="" clip-rule="evenodd" transform="matrix(1 0 0 1 0 0)" d="M36.99792 30.75177L284.5315 30.75177L284.5315 30.75177L284.5315 303.4254L284.5315 303.4254L36.99792 303.4254z" /></clipPath><clipPath id="30"><path id="" clip-rule="evenodd" transform="matrix(1 0 0 1 0 0)" d="M64.74792 30.75177L256.7808 30.75177C 264.1416 30.75177 271.2 33.67542 276.4032 38.87958C 281.6088 44.08374 284.532 51.14191 284.532 58.50177L284.532 58.50177L284.532 275.2604C 284.532 282.6188 281.6088 289.6772 276.4032 294.8828C 271.2 300.086 264.1416 303.0092 256.7808 303.0092L256.7808 303.0092L64.74792 303.0092C 57.38808 303.0092 50.32968 300.086 45.12552 294.8828C 39.92136 289.6772 36.99792 282.6188 36.99792 275.2604L36.99792 275.2604L36.99792 58.50177C 36.99792 51.14191 39.92136 44.08374 45.12552 38.87958C 50.32968 33.67542 57.38808 30.75177 64.74792 30.75177z" /></clipPath><clipPath id="31"><path id="" clip-rule="evenodd" transform="matrix(1 0 0 1 0 0)" d="M38.2452 261.4988L275.9952 261.4988L275.9952 261.4988L275.9952 266.7488L275.9952 266.7488L38.2452 266.7488z" /></clipPath><clipPath id="32"><path id="" clip-rule="evenodd" transform="matrix(1 0 0 1 0 0)" d="M38.16 261.35L276 261.35L276 261.35L276 266.8701L276 266.8701L38.16 266.8701z" /></clipPath><mask id="m3"><clipPath id="33"><path id="" clip-rule="evenodd" transform="matrix(1 0 0 1 0 0)" d="M38.16 261.35L276 261.35L276 261.35L276 266.8701L276 266.8701L38.16 266.8701z" /></clipPath><g><g><g clip-path="url(#33)"><path id="123" transform="matrix(1 0 0 -1 0 842)" d="M38.16 580.65L276 580.65L276 575.1299L38.16 575.1299z" stroke="none" fill="#000000" fill-rule="nonzero" /></g></g></g></mask><clipPath id="34"><path id="" clip-rule="evenodd" transform="matrix(1 0 0 1 0 0)" d="M38.16 261.35L276 261.35L276 261.35L276 266.8701L276 266.8701L38.16 266.8701z" /></clipPath><clipPath id="35"><path id="" clip-rule="evenodd" transform="matrix(1 0 0 1 0 0)" d="M37.91999 261.5807L276.24 261.5807L276.24 261.5807L276.24 266.842L276.24 266.842L37.91999 266.842z" /></clipPath><mask id="m4"><clipPath id="36"><path id="" clip-rule="evenodd" transform="matrix(1 0 0 1 0 0)" d="M38.16 261.35L276 261.35L276 261.35L276 266.8701L276 266.8701L38.16 266.8701z" /></clipPath><clipPath id="37"><path id="" clip-rule="evenodd" transform="matrix(1 0 0 1 0 0)" d="M38.16 261.35L276 261.35L276 261.35L276 266.8701L276 266.8701L38.16 266.8701z" /></clipPath><clipPath id="38"><path id="" clip-rule="evenodd" transform="matrix(1 0 0 1 0 0)" d="M38.26759 261.5807L275.9829 261.5807L275.9829 261.5807L275.9829 266.6315L275.9829 266.6315L38.26759 266.6315z" /></clipPath><g><g><g clip-path="url(#36)"><g><g clip-path="url(#37)"><g clip-path="url(#38)"><g transform="matrix(0.24 0 0 0.24 38.16 261.35)"><g transform="matrix(1 0 0 1 0 0)"><image x="0" y="0" xlink:href="img_04.png" width="991" height="23" /></g></g></g></g></g></g></g></g></mask><clipPath id="39"><path id="" clip-rule="evenodd" transform="matrix(1 0 0 1 0 0)" d="M38.16 261.35L276 261.35L276 261.35L276 266.8701L276 266.8701L38.16 266.8701z" /></clipPath><clipPath id="40"><path id="" clip-rule="evenodd" transform="matrix(1 0 0 1 0 0)" d="M37.91999 261.5807L276.24 261.5807L276.24 261.5807L276.24 266.842L276.24 266.842L37.91999 266.842z" /></clipPath><clipPath id="41"><path id="" clip-rule="evenodd" transform="matrix(1 0 0 1 0 0)" d="M0 -0.25L595.5 -0.25L595.5 -0.25L595.5 842.0012L595.5 842.0012L0 842.0012z" /></clipPath><clipPath id="42"><path id="" clip-rule="evenodd" transform="matrix(1 0 0 1 0 0)" d="M0 -0.25L595.5 -0.25L595.5 -0.25L595.5 842.0012L595.5 842.0012L0 842.0012z" /></clipPath><clipPath id="43"><path id="" clip-rule="evenodd" transform="matrix(1 0 0 1 0 0)" d="M55.5924 86.90503L272.2471 86.90503L272.2471 86.90503L272.2471 250.9985L272.2471 250.9985L55.5924 250.9985z" /></clipPath><clipPath id="44"><path id="" clip-rule="evenodd" transform="matrix(1 0 0 1 0 0)" d="M68.3424 86.90503L259.1208 86.90503C 262.5024 86.90503 265.7472 88.24829 268.1376 90.6394C 270.528 93.03058 271.872 96.27368 271.872 99.65503L271.872 99.65503L271.872 238.2488C 271.872 241.6292 270.528 244.874 268.1376 247.2644C 265.7472 249.6548 262.5024 250.9988 259.1208 250.9988L259.1208 250.9988L68.3424 250.9988C 64.9608 250.9988 61.71791 249.6548 59.3268 247.2644C 56.93568 244.874 55.5924 241.6292 55.5924 238.2488L55.5924 238.2488L55.5924 99.65503C 55.5924 96.27368 56.93568 93.03058 59.3268 90.6394C 61.71791 88.24829 64.9608 86.90503 68.3424 86.90503z" /></clipPath><clipPath id="45"><path id="" clip-rule="evenodd" transform="matrix(1 0 0 1 0 0)" d="M55.5924 86.90503L271.6063 86.90503L271.6063 86.90503L271.6063 250.9985L271.6063 250.9985L55.5924 250.9985z" /></clipPath><clipPath id="46"><path id="" clip-rule="evenodd" transform="matrix(1 0 0 1 0 0)" d="M0 -0.25L595.5 -0.25L595.5 -0.25L595.5 842.0012L595.5 842.0012L0 842.0012z" /></clipPath><clipPath id="47"><path id="" clip-rule="evenodd" transform="matrix(1 0 0 1 0 0)" d="M17.43984 387.938L551.4398 387.938L551.4398 387.938L551.4398 409.688L551.4398 409.688L17.43984 409.688z" /></clipPath><clipPath id="48"><path id="" clip-rule="evenodd" transform="matrix(1 0 0 1 0 0)" d="M489.3888 8.540771L589.1388 8.540771L589.1388 8.540771L589.1388 64.79077L589.1388 64.79077L489.3888 64.79077z" /></clipPath><clipPath id="49"><path id="" clip-rule="evenodd" transform="matrix(1 0 0 1 0 0)" d="M0 -0.25L595.5 -0.25L595.5 -0.25L595.5 842.0012L595.5 842.0012L0 842.0012z" /></clipPath><clipPath id="50"><path id="" clip-rule="evenodd" transform="matrix(1 0 0 1 0 0)" d="M0 -0.25L595.5 -0.25L595.5 -0.25L595.5 842.0012L595.5 842.0012L0 842.0012z" /></clipPath><clipPath id="51"><path id="" clip-rule="evenodd" transform="matrix(1 0 0 1 0 0)" d="M0 -0.25L595.5 -0.25L595.5 -0.25L595.5 842.0012L595.5 842.0012L0 842.0012z" /></clipPath><clipPath id="52"><path id="" clip-rule="evenodd" transform="matrix(1 0 0 1 0 0)" d="M114.5165 529.3988L229.3951 529.3988L229.3951 529.3988L229.3951 597.0495L229.3951 597.0495L114.5165 597.0495z" /></clipPath><clipPath id="53"><path id="" clip-rule="evenodd" transform="matrix(1 0 0 1 0 0)" d="M131.7924 530.5004L129.9218 531.494L129.9218 531.494L129.8172 531.7052C 126.8738 540.9908 122.2171 549.6116 115.6766 557.6972L115.6766 557.6972L117.3509 558.338L117.3509 558.338L118.5151 557.6444C 123.996 550.8548 128.3258 543.2156 131.3345 535.0388C 134.317 542.4955 138.2021 549.5732 142.9243 556.1011C 152.6042 569.4955 165.5676 580.5236 180.3886 587.8868C 187.7009 591.5228 195.5887 594.4412 203.6597 595.802C 206.119 596.2196 208.6306 596.4692 211.1813 596.4692C 216.7538 596.4692 222.5095 595.2788 228.4221 592.0196L228.4221 592.0196L225.3089 591.6932C 221.1754 593.9828 216.623 594.8468 212.0054 594.8468C 208.0027 594.8468 203.9474 594.1916 200.0887 593.2244C 184.7707 589.3916 170.5123 581.1116 158.9486 570.4772C 147.8558 560.2724 139.0262 547.5716 133.5977 533.522C 139.9027 536.1788 146.587 537.8132 153.4154 538.4156L153.4154 538.4156L154.8281 538.5331L154.8281 538.5331L153.8993 536.7524C 146.3777 536.0852 139.0654 534.0068 131.8186 530.5004L131.8186 530.5004L131.7924 530.5004z" /></clipPath><clipPath id="54"><path id="" clip-rule="evenodd" transform="matrix(1 0 0 1 0 0)" d="M0 -0.25L595.5 -0.25L595.5 -0.25L595.5 842.0012L595.5 842.0012L0 842.0012z" /></clipPath><clipPath id="55"><path id="" clip-rule="evenodd" transform="matrix(1 0 0 1 0 0)" d="M0 -0.25L595.5 -0.25L595.5 -0.25L595.5 842.0012L595.5 842.0012L0 842.0012z" /></clipPath><clipPath id="56"><path id="" clip-rule="evenodd" transform="matrix(1 0 0 1 0 0)" d="M168.1265 459.194L516.592 459.194L516.592 459.194L516.592 773.1956L516.592 773.1956L168.1265 773.1956z" /></clipPath><clipPath id="57"><path id="" clip-rule="evenodd" transform="matrix(1 0 0 1 0 0)" d="M338.8128 459.3524C 322.9056 459.3524 306.96 463.67 295.332 473.27C 279.0072 486.7316 278.4312 508.3532 273.7992 527.5172C 265.8864 560.1956 240.7056 582.9811 213.0518 600.314C 198.4927 609.4316 183.5933 619.3604 174.8028 634.1156C 165.0444 650.558 168.9557 673.2811 182.8869 686.2052C 199.1206 701.2868 224.9556 695.7524 243.5304 708.8468C 259.4112 720.0452 264.3024 738.3835 276.6384 752.5004C 285.8616 763.0555 299.1504 769.5956 312.9792 771.9116C 317.4648 772.658 321.8088 773.0228 326.0208 773.0228C 341.376 773.0228 355.0608 768.0908 367.8144 758.138C 379.3896 749.0972 390.1944 738.0308 405.1992 738.0308C 407.0712 738.0308 409.02 738.2012 411.0336 738.5804C 418.7904 740.006 426.1032 743.1716 433.8216 744.8468C 437.9544 745.7492 442.1016 746.1812 446.196 746.1812C 464.1432 746.1812 481.3704 737.954 494.0856 725.03C 519.0312 699.638 515.616 664.7372 514.8984 659.978C 511.4304 636.9404 499.3056 616.3124 481.6968 601.3076C 471.324 592.478 459.9576 584.8124 450.4344 575.0684C 420.0456 544.106 419.3784 492.7484 379.0104 469.4132C 367.8528 462.95 353.3472 459.3524 338.8128 459.3524z" /></clipPath><clipPath id="58"><path id="" clip-rule="evenodd" transform="matrix(1 0 0 1 0 0)" d="M109.733 651.7796L272.483 651.7796L272.483 651.7796L272.483 814.5296L272.483 814.5296L109.733 814.5296z" /></clipPath><clipPath id="59"><path id="" clip-rule="evenodd" transform="matrix(1 0 0 1 0 0)" d="M0 -0.25L595.5 -0.25L595.5 -0.25L595.5 842.0012L595.5 842.0012L0 842.0012z" /></clipPath><clipPath id="60"><path id="" clip-rule="evenodd" transform="matrix(1 0 0 1 0 0)" d="M0 -0.25L595.5 -0.25L595.5 -0.25L595.5 842.0012L595.5 842.0012L0 842.0012z" /></clipPath><clipPath id="61"><path id="" clip-rule="evenodd" transform="matrix(1 0 0 1 0 0)" d="M75.42192 452.8124L157.495 452.8124L157.495 452.8124L157.495 534.8854L157.495 534.8854L75.42192 534.8854z" /></clipPath><clipPath id="62"><path id="" clip-rule="evenodd" transform="matrix(1 0 0 1 0 0)" d="M116.4571 452.8124C 139.1266 452.8124 157.4923 471.1772 157.4923 493.8476C 157.4923 516.5156 139.1266 534.8828 116.4571 534.8828C 93.78768 534.8828 75.42192 516.5156 75.42192 493.8476C 75.42192 471.1772 93.78768 452.8124 116.4571 452.8124z" /></clipPath><clipPath id="63"><path id="" clip-rule="evenodd" transform="matrix(1 0 0 1 0 0)" d="M0 -0.25L595.5 -0.25L595.5 -0.25L595.5 842.0012L595.5 842.0012L0 842.0012z" /></clipPath></defs><g transform="matrix(1.333333 0 0 1.333333 0 0)"><g clip-path="url(#1)"><g clip-path="url(#2)"><path id="1" transform="matrix(1 0 0 -1 0 842)" d="M0 842.25L595.4999 842.25L595.4999 0L0 0z" stroke="none" fill="#FFFFFF" fill-rule="nonzero" /></g><g clip-path="url(#3)"><path id="2" transform="matrix(1 0 0 -1 0 842)" d="M0 842.25L595.4999 842.25L595.4999 0L0 0z" stroke="none" fill="#FFFFFF" fill-rule="nonzero" /></g><g clip-path="url(#4)"><g><g clip-path="url(#5)"><g clip-path="url(#6)"><g transform="matrix(0 0.975 -0.9768211 0 522.0178 30.75183)"><g transform="matrix(1 0 0 1 0 0)"><image x="0" y="0" xlink:href="img_01.png" width="800" height="453" /></g></g></g></g></g></g><g clip-path="url(#7)"><g clip-path="url(#8)"><g clip-path="url(#9)"><g clip-path="url(#10)"><path id="4" transform="matrix(1 0 0 -1 0 842)" d="M315.0432 759.3101L562.577 759.3101L562.577 453.7606L315.0432 453.7606z" stroke="none" fill="#939CAB" fill-rule="nonzero" /></g></g></g></g><g clip-path="url(#11)"><g><g clip-path="url(#12)"><g mask="url(#m1)"><g><g clip-path="url(#14)"><g clip-path="url(#15)"><path id="6" transform="matrix(1 0 0 -1 0 842)" d="M320.0475 492.9981L557.7628 492.9981L557.7628 487.9473L320.0475 487.9473z" stroke="none" fill="#000000" fill-rule="nonzero" /></g></g></g></g><g mask="url(#m2)"><g><g clip-path="url(#19)"><g clip-path="url(#20)"><path id="8" transform="matrix(1 0 0 -1 0 842)" d="M320.0475 492.9981L557.7628 492.9981L557.7628 487.9473L320.0475 487.9473z" stroke="none" fill="#000000" fill-rule="nonzero" /></g></g></g></g></g></g></g><g clip-path="url(#21)"><g clip-path="url(#22)"><g clip-path="url(#23)"><g clip-path="url(#24)"><g clip-path="url(#25)"><g transform="matrix(0.5560275 0 0 0.5552222 328.2024 173.3867)"><g transform="matrix(1 0 0 1 0 0)"><image x="0" y="0" xlink:href="img_03.png" width="366" height="296" /></g></g></g></g></g></g></g><g clip-path="url(#26)"></g><g clip-path="url(#27)"><g clip-path="url(#28)"><g clip-path="url(#29)"><g clip-path="url(#30)"><path id="122" transform="matrix(1 0 0 -1 0 842)" d="M36.99792 811.2482L284.5317 811.2482L284.5317 538.5743L36.99792 538.5743z" stroke="none" fill="#1D70B7" fill-rule="nonzero" /></g></g></g></g><g clip-path="url(#31)"><g><g clip-path="url(#32)"><g mask="url(#m3)"><g><g clip-path="url(#34)"><g clip-path="url(#35)"><path id="124" transform="matrix(1 0 0 -1 0 842)" d="M38.26759 580.4192L275.9829 580.4192L275.9829 575.3684L38.26759 575.3684z" stroke="none" fill="#000000" fill-rule="nonzero" /></g></g></g></g><g mask="url(#m4)"><g><g clip-path="url(#39)"><g clip-path="url(#40)"><path id="126" transform="matrix(1 0 0 -1 0 842)" d="M38.26759 580.4192L275.9829 580.4192L275.9829 575.3684L38.26759 575.3684z" stroke="none" fill="#000000" fill-rule="nonzero" /></g></g></g></g></g></g></g><g clip-path="url(#41)"><g clip-path="url(#42)"><g clip-path="url(#43)"><g clip-path="url(#44)"><g clip-path="url(#45)"><g transform="matrix(0.4068058 0 0 0.4067554 55.5924 75.86841)"><g transform="matrix(1 0 0 1 0 0)"><image x="0" y="0" xlink:href="img_05.png" width="531" height="457" /></g></g></g></g></g></g></g><g clip-path="url(#46)"></g><g clip-path="url(#47)"><g transform="matrix(0.24 0 0 0.239011 17.43984 387.9368)"><g transform="matrix(1 0 0 1 0 0)"><image x="0" y="0" xlink:href="img_06.png" width="2225" height="91" /></g></g></g><g clip-path="url(#48)"><g transform="matrix(0.1246875 0 0 0.1241722 489.3888 8.540771)"><g transform="matrix(1 0 0 1 0 0)"><image x="0" y="0" xlink:href="img_07.png" width="800" height="453" /></g></g></g><g clip-path="url(#49)"></g><g clip-path="url(#50)"><g clip-path="url(#51)"><g clip-path="url(#52)"><g clip-path="url(#53)"><path id="203" transform="matrix(1 0 0 -1 0 842)" d="M109.4107 389.1876L521.6978 389.1876L521.6978 62.42139L109.4107 62.42139z" stroke="none" fill="#000000" fill-rule="nonzero" /></g></g></g></g><g clip-path="url(#54)"><g clip-path="url(#55)"><g clip-path="url(#56)"><g clip-path="url(#57)"><path id="204" transform="matrix(1 0 0 -1 0 842)" d="M109.4107 389.1876L521.6978 389.1876L521.6978 62.42139L109.4107 62.42139z" stroke="none" fill="#BDB1B1" fill-rule="nonzero" /></g></g></g></g><g clip-path="url(#58)"><g transform="matrix(0.6357421 0 0 0.6357421 109.733 651.7808)"><g transform="matrix(1 0 0 1 0 0)"><image x="0" y="0" xlink:href="img_08.png" width="256" height="256" /></g></g></g><g clip-path="url(#59)"><g clip-path="url(#60)"><g clip-path="url(#61)"><g clip-path="url(#62)"><path id="206" transform="matrix(1 0 0 -1 0 842)" d="M75.42191 389.1876L157.4947 389.1876L157.4947 307.1148L75.42191 307.1148z" stroke="none" fill="#BDB1B1" fill-rule="nonzero" /></g></g></g></g><g clip-path="url(#63)"></g></g></g></svg>