<svg xmlns="http://www.w3.org/2000/svg" xmlns:xlink="http://www.w3.org/1999/xlink" id="body_1" preserveAspectRatio="xMinYMin meet" viewBox="0 0 793 1123"><defs><clipPath id="1"><path id="" clip-rule="evenodd" transform="matrix(1 0 0 1 0 0)" d="M0 842L0 -0.25L0 -0.25L595.5 -0.25L595.5 -0.25L595.5 842L595.5 842L0 842z" /></clipPath><clipPath id="2"><path id="" clip-rule="evenodd" transform="matrix(1 0 0 1 0 0)" d="M0 -0.249939L595.5 -0.249939L595.5 -0.249939L595.5 842.0001L595.5 842.0001L0 842.0001z" /></clipPath><clipPath id="3"><path id="" clip-rule="evenodd" transform="matrix(1 0 0 1 0 0)" d="M0 -0.249939L595.5 -0.249939L595.5 -0.249939L595.5 842.0001L595.5 842.0001L0 842.0001z" /></clipPath><clipPath id="4"><path id="" clip-rule="evenodd" transform="matrix(1 0 0 1 0 0)" d="M0 -0.249939L595.5 -0.249939L595.5 -0.249939L595.5 842.0001L595.5 842.0001L0 842.0001z" /></clipPath><clipPath id="5"><path id="" clip-rule="evenodd" transform="matrix(1 0 0 1 0 0)" d="M0 -0.249939L595.5 -0.249939L595.5 -0.249939L595.5 842.0001L595.5 842.0001L0 842.0001z" /></clipPath><clipPath id="6"><path id="" clip-rule="evenodd" transform="matrix(1 0 0 1 0 0)" d="M-79.60584 418.2794L20.58145 418.2794L20.58145 418.2794L20.58145 518.4666L20.58145 518.4666L-79.60584 518.4666z" /></clipPath><clipPath id="7"><path id="" clip-rule="evenodd" transform="matrix(1 0 0 1 0 0)" d="M-29.5122 418.2794C -57.17815 418.2794 -79.60584 440.707 -79.60584 468.373C -79.60584 496.0389 -57.17815 518.4666 -29.5122 518.4666C -1.846238 518.4666 20.58145 496.0389 20.58145 468.373C 20.58145 440.707 -1.846238 418.2794 -29.5122 418.2794z" /></clipPath><clipPath id="8"><path id="" clip-rule="evenodd" transform="matrix(1 0 0 1 0 0)" d="M0 -0.249939L595.5 -0.249939L595.5 -0.249939L595.5 842.0001L595.5 842.0001L0 842.0001z" /></clipPath><clipPath id="9"><path id="" clip-rule="evenodd" transform="matrix(1 0 0 1 0 0)" d="M0 -0.249939L595.5 -0.249939L595.5 -0.249939L595.5 842.0001L595.5 842.0001L0 842.0001z" /></clipPath><clipPath id="10"><path id="" clip-rule="evenodd" transform="matrix(1 0 0 1 0 0)" d="M-79.60584 418.2794L20.89416 418.2794L20.89416 418.2794L20.89416 518.7794L20.89416 518.7794L-79.60584 518.7794z" /></clipPath><clipPath id="11"><path id="" clip-rule="evenodd" transform="matrix(1 0 0 1 0 0)" d="M-79.60584 418.2794L20.57775 418.2794L20.57775 418.2794L20.57775 518.463L20.57775 518.463L-79.60584 518.463z" /></clipPath><clipPath id="12"><path id="" clip-rule="evenodd" transform="matrix(1 0 0 1 0 0)" d="M-29.51404 418.2794C -57.17898 418.2794 -79.60584 440.7062 -79.60584 468.3712C -79.60584 496.0361 -57.17898 518.463 -29.51404 518.463C -1.849109 518.463 20.57775 496.0361 20.57775 468.3712C 20.57775 440.7062 -1.849109 418.2794 -29.51404 418.2794z" /></clipPath><clipPath id="13"><path id="" clip-rule="evenodd" transform="matrix(1 0 0 1 0 0)" d="M0 -0.249939L595.5 -0.249939L595.5 -0.249939L595.5 842.0001L595.5 842.0001L0 842.0001z" /></clipPath><clipPath id="14"><path id="" clip-rule="evenodd" transform="matrix(1 0 0 1 0 0)" d="M75.59999 21.83008L519.12 21.83008L519.12 21.83008L519.12 802.0701L519.12 802.0701L75.59999 802.0701z" /></clipPath><clipPath id="15"><path id="" clip-rule="evenodd" transform="matrix(1 0 0 1 0 0)" d="M76.4271 21.85492L518.9271 21.85492L518.9271 21.85492L518.9271 801.8549L518.9271 801.8549L76.4271 801.8549z" /></clipPath><clipPath id="16"><path id="" clip-rule="evenodd" transform="matrix(1 0 0 1 0 0)" d="M0 -0.249939L595.5 -0.249939L595.5 -0.249939L595.5 842.0001L595.5 842.0001L0 842.0001z" /></clipPath><clipPath id="17"><path id="" clip-rule="evenodd" transform="matrix(1 0 0 1 0 0)" d="M0 -0.249939L595.5 -0.249939L595.5 -0.249939L595.5 842.0001L595.5 842.0001L0 842.0001z" /></clipPath><clipPath id="18"><path id="" clip-rule="evenodd" transform="matrix(1 0 0 1 0 0)" d="M504.5195 759.5762L637.4714 759.5762L637.4714 759.5762L637.4714 892.5281L637.4714 892.5281L504.5195 892.5281z" /></clipPath><clipPath id="19"><path id="" clip-rule="evenodd" transform="matrix(1 0 0 1 0 0)" d="M570.9955 759.5762C 534.2818 759.5762 504.5195 789.3385 504.5195 826.0522C 504.5195 862.7659 534.2818 892.5281 570.9955 892.5281C 607.7092 892.5281 637.4714 862.7659 637.4714 826.0522C 637.4714 789.3385 607.7092 759.5762 570.9955 759.5762z" /></clipPath><clipPath id="20"><path id="" clip-rule="evenodd" transform="matrix(1 0 0 1 0 0)" d="M485.9258 11.00061L570.6758 11.00061L570.6758 11.00061L570.6758 59.00061L570.6758 59.00061L485.9258 59.00061z" /></clipPath><clipPath id="21"><path id="" clip-rule="evenodd" transform="matrix(1 0 0 1 0 0)" d="M0 -0.249939L595.5 -0.249939L595.5 -0.249939L595.5 842.0001L595.5 842.0001L0 842.0001z" /></clipPath><clipPath id="22"><path id="" clip-rule="evenodd" transform="matrix(1 0 0 1 0 0)" d="M0 -0.249939L595.5 -0.249939L595.5 -0.249939L595.5 842.0001L595.5 842.0001L0 842.0001z" /></clipPath><clipPath id="23"><path id="" clip-rule="evenodd" transform="matrix(1 0 0 1 0 0)" d="M551.1393 172.3469L684.0913 172.3469L684.0913 172.3469L684.0913 305.2989L684.0913 305.2989L551.1393 305.2989z" /></clipPath><clipPath id="24"><path id="" clip-rule="evenodd" transform="matrix(1 0 0 1 0 0)" d="M617.6154 172.3469C 580.9017 172.3469 551.1393 202.1093 551.1393 238.8229C 551.1393 275.5366 580.9017 305.2989 617.6154 305.2989C 654.329 305.2989 684.0913 275.5366 684.0913 238.8229C 684.0913 202.1093 654.329 172.3469 617.6154 172.3469z" /></clipPath><clipPath id="25"><path id="" clip-rule="evenodd" transform="matrix(1 0 0 1 0 0)" d="M109.8563 540.2397L466.1063 540.2397L466.1063 540.2397L466.1063 746.4897L466.1063 746.4897L109.8563 746.4897z" /></clipPath><clipPath id="26"><path id="" clip-rule="evenodd" transform="matrix(1 0 0 1 0 0)" d="M0 -0.249939L595.5 -0.249939L595.5 -0.249939L595.5 842.0001L595.5 842.0001L0 842.0001z" /></clipPath></defs><g transform="matrix(1.333333 0 0 1.333333 0 0)"><g clip-path="url(#1)"><g clip-path="url(#2)"><path id="1" transform="matrix(1 0 0 -1 0 842)" d="M0 842.2499L595.4999 842.2499L595.4999 -6.103516E-05L0 -6.103516E-05z" stroke="none" fill="#FFFFFF" fill-rule="nonzero" /></g><g clip-path="url(#3)"><path id="2" transform="matrix(1 0 0 -1 0 842)" d="M0 842.2499L595.4999 842.2499L595.4999 -6.103516E-05L0 -6.103516E-05z" stroke="none" fill="#FFFFFF" fill-rule="nonzero" /></g><g clip-path="url(#4)"><g clip-path="url(#5)"><g clip-path="url(#6)"><g clip-path="url(#7)"><path id="3" transform="matrix(1 0 0 -1 0 842)" d="M-79.60584 423.7206L20.58144 423.7206L20.58144 323.5334L-79.60584 323.5334z" stroke="none" fill="#A4BBCD" fill-rule="nonzero" /></g></g></g></g><g clip-path="url(#8)"><g clip-path="url(#9)"><g clip-path="url(#10)"><g clip-path="url(#11)"><g clip-path="url(#12)"><path id="4" transform="matrix(1 0 0 -1 0 842)" d="M-29.51405 423.7206C -57.17899 423.7206 -79.60584 401.2938 -79.60584 373.6288C -79.60584 345.9639 -57.17899 323.537 -29.51405 323.537C -1.849113 323.537 20.57774 345.9639 20.57774 373.6288C 20.57774 401.2938 -1.849113 423.7206 -29.51405 423.7206z" stroke="#FFFFFF" stroke-width="7.5" fill="none" /></g></g></g></g></g><g clip-path="url(#13)"><g><g clip-path="url(#14)"><g clip-path="url(#15)"><g transform="matrix(0 0.5128205 -0.5127462 0 518.9271 21.85492)"><g transform="matrix(1 0 0 1 0 0)"><image x="0" y="0" xlink:href="img_01.png" width="1521" height="863" /></g></g></g></g></g></g><g clip-path="url(#16)"><g clip-path="url(#17)"><g clip-path="url(#18)"><g clip-path="url(#19)"><path id="6" transform="matrix(1 0 0 -1 0 842)" d="M504.5195 82.42384L637.4714 82.42384L637.4714 -50.52816L504.5195 -50.52816z" stroke="none" fill="#38B6FF" fill-rule="nonzero" /></g></g></g></g><g clip-path="url(#20)"><g transform="matrix(0.05571992 0 0 0.05561992 485.9258 11.00061)"><g transform="matrix(1 0 0 1 0 0)"><image x="0" y="0" xlink:href="img_02.png" width="1521" height="863" /></g></g></g><g clip-path="url(#21)"><g clip-path="url(#22)"><g clip-path="url(#23)"><g clip-path="url(#24)"><path id="8" transform="matrix(1 0 0 -1 0 842)" d="M551.1393 669.6531L684.0913 669.6531L684.0913 536.701L551.1393 536.701z" stroke="none" fill="#38B6FF" fill-rule="nonzero" /></g></g></g></g><g clip-path="url(#25)"><g transform="matrix(0.6453804 0 0 0.6445312 109.8563 540.2398)"><g transform="matrix(1 0 0 1 0 0)"><image x="0" y="0" xlink:href="img_03.png" width="552" height="320" /></g></g></g><g clip-path="url(#26)"></g></g></g></svg>