<svg xmlns="http://www.w3.org/2000/svg" xmlns:xlink="http://www.w3.org/1999/xlink" id="body_1" preserveAspectRatio="xMinYMin meet" viewBox="0 0 793 1123"><defs><clipPath id="1"><path id="" clip-rule="evenodd" transform="matrix(1 0 0 1 0 0)" d="M0 842L0 -0.25L0 -0.25L595.5 -0.25L595.5 -0.25L595.5 842L595.5 842L0 842z" /></clipPath><clipPath id="2"><path id="" clip-rule="evenodd" transform="matrix(1 0 0 1 0 0)" d="M0 -0.249939L595.5 -0.249939L595.5 -0.249939L595.5 842.0001L595.5 842.0001L0 842.0001z" /></clipPath><clipPath id="3"><path id="" clip-rule="evenodd" transform="matrix(1 0 0 1 0 0)" d="M0 -0.249939L595.5 -0.249939L595.5 -0.249939L595.5 842.0001L595.5 842.0001L0 842.0001z" /></clipPath><clipPath id="4"><path id="" clip-rule="evenodd" transform="matrix(1 0 0 1 0 0)" d="M0 -0.249939L595.5 -0.249939L595.5 -0.249939L595.5 842.0001L595.5 842.0001L0 842.0001z" /></clipPath><clipPath id="5"><path id="" clip-rule="evenodd" transform="matrix(1 0 0 1 0 0)" d="M79.67999 29.03009L535.92 29.03009L535.92 29.03009L535.92 833.2701L535.92 833.2701L79.67999 833.2701z" /></clipPath><clipPath id="6"><path id="" clip-rule="evenodd" transform="matrix(1 0 0 1 0 0)" d="M79.74117 29.25854L535.7411 29.25854L535.7411 29.25854L535.7411 832.5085L535.7411 832.5085L79.74117 832.5085z" /></clipPath><clipPath id="7"><path id="" clip-rule="evenodd" transform="matrix(1 0 0 1 0 0)" d="M14.16 614.3901L578.8799 614.3901L578.8799 614.3901L578.8799 715.91L578.8799 715.91L14.16 715.91z" /></clipPath><clipPath id="8"><path id="" clip-rule="evenodd" transform="matrix(1 0 0 1 0 0)" d="M14.38099 614.5342L578.8407 614.5342L578.8407 614.5342L578.8407 715.8679L578.8407 715.8679L14.38099 715.8679z" /></clipPath><clipPath id="9"><path id="" clip-rule="evenodd" transform="matrix(1 0 0 1 0 0)" d="M39.13098 614.5342L553.7274 614.5342C 567.3965 614.5342 578.4774 625.6152 578.4774 639.2842L578.4774 639.2842L578.4774 691.1179C 578.4774 704.7869 567.3965 715.8679 553.7274 715.8679L553.7274 715.8679L39.13098 715.8679C 25.46194 715.8679 14.38099 704.7869 14.38099 691.1179L14.38099 691.1179L14.38099 639.2842C 14.38099 625.6152 25.46194 614.5342 39.13098 614.5342z" /></clipPath><clipPath id="10"><path id="" clip-rule="evenodd" transform="matrix(1 0 0 1 0 0)" d="M0 -0.249939L595.5 -0.249939L595.5 -0.249939L595.5 842.0001L595.5 842.0001L0 842.0001z" /></clipPath><clipPath id="11"><path id="" clip-rule="evenodd" transform="matrix(1 0 0 1 0 0)" d="M0 -0.249939L595.5 -0.249939L595.5 -0.249939L595.5 842.0001L595.5 842.0001L0 842.0001z" /></clipPath><clipPath id="12"><path id="" clip-rule="evenodd" transform="matrix(1 0 0 1 0 0)" d="M42.96556 626.4753L106.7156 626.4753L106.7156 626.4753L106.7156 708.9753L106.7156 708.9753L42.96556 708.9753z" /></clipPath><clipPath id="13"><path id="" clip-rule="evenodd" transform="matrix(1 0 0 1 0 0)" d="M42.96556 633.9753L42.96556 701.2732C 42.96556 705.4153 46.32342 708.7732 50.46556 708.7732L50.46556 708.7732L98.53493 708.7732C 102.6771 708.7732 106.0349 705.4153 106.0349 701.2732L106.0349 701.2732L106.0349 633.9753C 106.0349 629.8333 102.6771 626.4753 98.53493 626.4753L98.53493 626.4753L50.46556 626.4753C 46.32342 626.4753 42.96556 629.8333 42.96556 633.9753z" /></clipPath><clipPath id="14"><path id="" clip-rule="evenodd" transform="matrix(1 0 0 1 0 0)" d="M42.96556 626.4753L105.9656 626.4753L105.9656 626.4753L105.9656 708.9753L105.9656 708.9753L42.96556 708.9753z" /></clipPath><clipPath id="15"><path id="" clip-rule="evenodd" transform="matrix(1 0 0 1 0 0)" d="M0 -0.249939L595.5 -0.249939L595.5 -0.249939L595.5 842.0001L595.5 842.0001L0 842.0001z" /></clipPath><clipPath id="16"><path id="" clip-rule="evenodd" transform="matrix(1 0 0 1 0 0)" d="M14.16 725.5101L578.64 725.5101L578.64 725.5101L578.64 825.11L578.64 825.11L14.16 825.11z" /></clipPath><clipPath id="17"><path id="" clip-rule="evenodd" transform="matrix(1 0 0 1 0 0)" d="M14.38099 725.5485L578.5137 725.5485L578.5137 725.5485L578.5137 825.0099L578.5137 825.0099L14.38099 825.0099z" /></clipPath><clipPath id="18"><path id="" clip-rule="evenodd" transform="matrix(1 0 0 1 0 0)" d="M39.13099 725.5485L553.7275 725.5485C 567.3967 725.5485 578.4775 736.6295 578.4775 750.2985L578.4775 750.2985L578.4775 800.2599C 578.4775 813.929 567.3967 825.0099 553.7275 825.0099L553.7275 825.0099L39.13099 825.0099C 25.46194 825.0099 14.38099 813.929 14.38099 800.2599L14.38099 800.2599L14.38099 750.2985C 14.38099 736.6295 25.46194 725.5485 39.13099 725.5485z" /></clipPath><clipPath id="19"><path id="" clip-rule="evenodd" transform="matrix(1 0 0 1 0 0)" d="M0 -0.249939L595.5 -0.249939L595.5 -0.249939L595.5 842.0001L595.5 842.0001L0 842.0001z" /></clipPath><clipPath id="20"><path id="" clip-rule="evenodd" transform="matrix(1 0 0 1 0 0)" d="M0 -0.249939L595.5 -0.249939L595.5 -0.249939L595.5 842.0001L595.5 842.0001L0 842.0001z" /></clipPath><clipPath id="21"><path id="" clip-rule="evenodd" transform="matrix(1 0 0 1 0 0)" d="M503.1174 736.7706L566.1174 736.7706L566.1174 736.7706L566.1174 817.7706L566.1174 817.7706L503.1174 817.7706z" /></clipPath><clipPath id="22"><path id="" clip-rule="evenodd" transform="matrix(1 0 0 1 0 0)" d="M503.1174 747.2706L503.1174 807.213C 503.1174 813.012 507.8184 817.713 513.6174 817.713L513.6174 817.713L555.3192 817.713C 561.1182 817.713 565.8192 813.012 565.8192 807.213L565.8192 807.213L565.8192 747.2706C 565.8192 741.4717 561.1182 736.7706 555.3192 736.7706L555.3192 736.7706L513.6174 736.7706C 507.8184 736.7706 503.1174 741.4717 503.1174 747.2706z" /></clipPath><clipPath id="23"><path id="" clip-rule="evenodd" transform="matrix(1 0 0 1 0 0)" d="M503.1174 736.7706L566.1174 736.7706L566.1174 736.7706L566.1174 817.7706L566.1174 817.7706L503.1174 817.7706z" /></clipPath><clipPath id="24"><path id="" clip-rule="evenodd" transform="matrix(1 0 0 1 0 0)" d="M0 -0.249939L595.5 -0.249939L595.5 -0.249939L595.5 842.0001L595.5 842.0001L0 842.0001z" /></clipPath><clipPath id="25"><path id="" clip-rule="evenodd" transform="matrix(1 0 0 1 0 0)" d="M15.36 497.0301L579.84 497.0301L579.84 497.0301L579.84 604.79L579.84 604.79L15.36 604.79z" /></clipPath><clipPath id="26"><path id="" clip-rule="evenodd" transform="matrix(1 0 0 1 0 0)" d="M15.58952 497.0699L579.8276 497.0699L579.8276 497.0699L579.8276 604.7842L579.8276 604.7842L15.58952 604.7842z" /></clipPath><clipPath id="27"><path id="" clip-rule="evenodd" transform="matrix(1 0 0 1 0 0)" d="M40.33952 497.0699L554.936 497.0699C 568.6051 497.0699 579.686 508.1508 579.686 521.8199L579.686 521.8199L579.686 580.0342C 579.686 593.7033 568.6051 604.7842 554.936 604.7842L554.936 604.7842L40.33952 604.7842C 26.67047 604.7842 15.58952 593.7033 15.58952 580.0342L15.58952 580.0342L15.58952 521.8199C 15.58952 508.1508 26.67047 497.0699 40.33952 497.0699z" /></clipPath><clipPath id="28"><path id="" clip-rule="evenodd" transform="matrix(1 0 0 1 0 0)" d="M0 -0.249939L595.5 -0.249939L595.5 -0.249939L595.5 842.0001L595.5 842.0001L0 842.0001z" /></clipPath><clipPath id="29"><path id="" clip-rule="evenodd" transform="matrix(1 0 0 1 0 0)" d="M0 -0.249939L595.5 -0.249939L595.5 -0.249939L595.5 842.0001L595.5 842.0001L0 842.0001z" /></clipPath><clipPath id="30"><path id="" clip-rule="evenodd" transform="matrix(1 0 0 1 0 0)" d="M495.9564 508.1248L557.4564 508.1248L557.4564 508.1248L557.4564 594.3748L557.4564 594.3748L495.9564 594.3748z" /></clipPath><clipPath id="31"><path id="" clip-rule="evenodd" transform="matrix(1 0 0 1 0 0)" d="M495.9564 512.6248L495.9564 589.2294C 495.9564 591.7146 497.9712 593.7294 500.4564 593.7294L500.4564 593.7294L552.5486 593.7294C 555.0339 593.7294 557.0486 591.7146 557.0486 589.2294L557.0486 589.2294L557.0486 512.6248C 557.0486 510.1395 555.0339 508.1248 552.5486 508.1248L552.5486 508.1248L500.4564 508.1248C 497.9712 508.1248 495.9564 510.1395 495.9564 512.6248z" /></clipPath><clipPath id="32"><path id="" clip-rule="evenodd" transform="matrix(1 0 0 1 0 0)" d="M495.9564 508.1248L556.7064 508.1248L556.7064 508.1248L556.7064 593.6248L556.7064 593.6248L495.9564 593.6248z" /></clipPath><clipPath id="33"><path id="" clip-rule="evenodd" transform="matrix(1 0 0 1 0 0)" d="M0 -0.249939L595.5 -0.249939L595.5 -0.249939L595.5 842.0001L595.5 842.0001L0 842.0001z" /></clipPath><clipPath id="34"><path id="" clip-rule="evenodd" transform="matrix(1 0 0 1 0 0)" d="M14.88 384.7101L579.36 384.7101L579.36 384.7101L579.36 482.39L579.36 482.39L14.88 482.39z" /></clipPath><clipPath id="35"><path id="" clip-rule="evenodd" transform="matrix(1 0 0 1 0 0)" d="M15.02322 384.9241L579.3248 384.9241L579.3248 384.9241L579.3248 482.2044L579.3248 482.2044L15.02322 482.2044z" /></clipPath><clipPath id="36"><path id="" clip-rule="evenodd" transform="matrix(1 0 0 1 0 0)" d="M39.77322 384.9241L554.3697 384.9241C 568.0388 384.9241 579.1198 396.0051 579.1198 409.6741L579.1198 409.6741L579.1198 457.4544C 579.1198 471.1234 568.0388 482.2044 554.3697 482.2044L554.3697 482.2044L39.77322 482.2044C 26.10418 482.2044 15.02322 471.1234 15.02322 457.4544L15.02322 457.4544L15.02322 409.6741C 15.02322 396.0051 26.10418 384.9241 39.77322 384.9241z" /></clipPath><clipPath id="37"><path id="" clip-rule="evenodd" transform="matrix(1 0 0 1 0 0)" d="M0 -0.249939L595.5 -0.249939L595.5 -0.249939L595.5 842.0001L595.5 842.0001L0 842.0001z" /></clipPath><clipPath id="38"><path id="" clip-rule="evenodd" transform="matrix(1 0 0 1 0 0)" d="M0 -0.249939L595.5 -0.249939L595.5 -0.249939L595.5 842.0001L595.5 842.0001L0 842.0001z" /></clipPath><clipPath id="39"><path id="" clip-rule="evenodd" transform="matrix(1 0 0 1 0 0)" d="M39.52136 391.6741L101.0214 391.6741L101.0214 391.6741L101.0214 472.6741L101.0214 472.6741L39.52136 472.6741z" /></clipPath><clipPath id="40"><path id="" clip-rule="evenodd" transform="matrix(1 0 0 1 0 0)" d="M39.52136 401.4241L39.52136 462.6585C 39.52136 468.0433 43.88658 472.4085 49.27136 472.4085L49.27136 472.4085L91.24803 472.4085C 96.63281 472.4085 100.998 468.0433 100.998 462.6585L100.998 462.6585L100.998 401.4241C 100.998 396.0394 96.63281 391.6741 91.24803 391.6741L91.24803 391.6741L49.27136 391.6741C 43.88658 391.6741 39.52136 396.0394 39.52136 401.4241z" /></clipPath><clipPath id="41"><path id="" clip-rule="evenodd" transform="matrix(1 0 0 1 0 0)" d="M39.52136 391.6741L101.0214 391.6741L101.0214 391.6741L101.0214 472.6741L101.0214 472.6741L39.52136 472.6741z" /></clipPath><clipPath id="42"><path id="" clip-rule="evenodd" transform="matrix(1 0 0 1 0 0)" d="M0 -0.249939L595.5 -0.249939L595.5 -0.249939L595.5 842.0001L595.5 842.0001L0 842.0001z" /></clipPath><clipPath id="43"><path id="" clip-rule="evenodd" transform="matrix(1 0 0 1 0 0)" d="M14.16 257.9901L578.64 257.9901L578.64 257.9901L578.64 370.0701L578.64 370.0701L14.16 370.0701z" /></clipPath><clipPath id="44"><path id="" clip-rule="evenodd" transform="matrix(1 0 0 1 0 0)" d="M14.38099 258.1964L578.5455 258.1964L578.5455 258.1964L578.5455 369.8949L578.5455 369.8949L14.38099 369.8949z" /></clipPath><clipPath id="45"><path id="" clip-rule="evenodd" transform="matrix(1 0 0 1 0 0)" d="M39.13099 258.1964L553.7275 258.1964C 567.3965 258.1964 578.4775 269.2773 578.4775 282.9464L578.4775 282.9464L578.4775 345.1449C 578.4775 358.814 567.3965 369.8949 553.7275 369.8949L553.7275 369.8949L39.13099 369.8949C 25.46194 369.8949 14.38099 358.814 14.38099 345.1449L14.38099 345.1449L14.38099 282.9464C 14.38099 269.2773 25.46194 258.1964 39.13099 258.1964z" /></clipPath><clipPath id="46"><path id="" clip-rule="evenodd" transform="matrix(1 0 0 1 0 0)" d="M0 -0.249939L595.5 -0.249939L595.5 -0.249939L595.5 842.0001L595.5 842.0001L0 842.0001z" /></clipPath><clipPath id="47"><path id="" clip-rule="evenodd" transform="matrix(1 0 0 1 0 0)" d="M0 -0.249939L595.5 -0.249939L595.5 -0.249939L595.5 842.0001L595.5 842.0001L0 842.0001z" /></clipPath><clipPath id="48"><path id="" clip-rule="evenodd" transform="matrix(1 0 0 1 0 0)" d="M426.672 272.6652L568.4221 272.6652L568.4221 272.6652L568.4221 349.1652L568.4221 349.1652L426.672 349.1652z" /></clipPath><clipPath id="49"><path id="" clip-rule="evenodd" transform="matrix(1 0 0 1 0 0)" d="M426.672 285.4152L426.672 336.1741C 426.672 343.2158 432.3804 348.9241 439.422 348.9241L439.422 348.9241L555.4863 348.9241C 562.5279 348.9241 568.2363 343.2158 568.2363 336.1741L568.2363 336.1741L568.2363 285.4152C 568.2363 278.3736 562.5279 272.6652 555.4863 272.6652L555.4863 272.6652L439.422 272.6652C 432.3804 272.6652 426.672 278.3736 426.672 285.4152z" /></clipPath><clipPath id="50"><path id="" clip-rule="evenodd" transform="matrix(1 0 0 1 0 0)" d="M426.672 272.6652L568.4221 272.6652L568.4221 272.6652L568.4221 349.1652L568.4221 349.1652L426.672 349.1652z" /></clipPath><clipPath id="51"><path id="" clip-rule="evenodd" transform="matrix(1 0 0 1 0 0)" d="M0 -0.249939L595.5 -0.249939L595.5 -0.249939L595.5 842.0001L595.5 842.0001L0 842.0001z" /></clipPath><clipPath id="52"><path id="" clip-rule="evenodd" transform="matrix(1 0 0 1 0 0)" d="M15.36 144.7101L579.84 144.7101L579.84 144.7101L579.84 241.4301L579.84 241.4301L15.36 241.4301z" /></clipPath><clipPath id="53"><path id="" clip-rule="evenodd" transform="matrix(1 0 0 1 0 0)" d="M15.58952 144.8541L579.769 144.8541L579.769 144.8541L579.769 241.2693L579.769 241.2693L15.58952 241.2693z" /></clipPath><clipPath id="54"><path id="" clip-rule="evenodd" transform="matrix(1 0 0 1 0 0)" d="M40.33952 144.8541L554.936 144.8541C 568.6051 144.8541 579.686 155.9351 579.686 169.6041L579.686 169.6041L579.686 216.5193C 579.686 230.1883 568.6051 241.2693 554.936 241.2693L554.936 241.2693L40.33952 241.2693C 26.67047 241.2693 15.58952 230.1883 15.58952 216.5193L15.58952 216.5193L15.58952 169.6041C 15.58952 155.9351 26.67047 144.8541 40.33952 144.8541z" /></clipPath><clipPath id="55"><path id="" clip-rule="evenodd" transform="matrix(1 0 0 1 0 0)" d="M0 -0.249939L595.5 -0.249939L595.5 -0.249939L595.5 842.0001L595.5 842.0001L0 842.0001z" /></clipPath><clipPath id="56"><path id="" clip-rule="evenodd" transform="matrix(1 0 0 1 0 0)" d="M0 -0.249939L595.5 -0.249939L595.5 -0.249939L595.5 842.0001L595.5 842.0001L0 842.0001z" /></clipPath><clipPath id="57"><path id="" clip-rule="evenodd" transform="matrix(1 0 0 1 0 0)" d="M48.31358 158.4127L154.0636 158.4127L154.0636 158.4127L154.0636 227.4127L154.0636 227.4127L48.31358 227.4127z" /></clipPath><clipPath id="58"><path id="" clip-rule="evenodd" transform="matrix(1 0 0 1 0 0)" d="M48.31358 170.4127L48.31358 215.3884C 48.31358 222.0157 53.68616 227.3884 60.31358 227.3884L60.31358 227.3884L141.6825 227.3884C 148.3099 227.3884 153.6825 222.0157 153.6825 215.3884L153.6825 215.3884L153.6825 170.4127C 153.6825 163.7852 148.3099 158.4127 141.6825 158.4127L141.6825 158.4127L60.31358 158.4127C 53.68616 158.4127 48.31358 163.7852 48.31358 170.4127z" /></clipPath><clipPath id="59"><path id="" clip-rule="evenodd" transform="matrix(1 0 0 1 0 0)" d="M48.31358 158.4127L153.3136 158.4127L153.3136 158.4127L153.3136 227.4127L153.3136 227.4127L48.31358 227.4127z" /></clipPath><clipPath id="60"><path id="" clip-rule="evenodd" transform="matrix(1 0 0 1 0 0)" d="M0 -0.249939L595.5 -0.249939L595.5 -0.249939L595.5 842.0001L595.5 842.0001L0 842.0001z" /></clipPath><clipPath id="61"><path id="" clip-rule="evenodd" transform="matrix(1 0 0 1 0 0)" d="M499.6608 11.00061L584.4108 11.00061L584.4108 11.00061L584.4108 59.00061L584.4108 59.00061L499.6608 59.00061z" /></clipPath><clipPath id="62"><path id="" clip-rule="evenodd" transform="matrix(1 0 0 1 0 0)" d="M6.042091 6.794739L79.54209 6.794739L79.54209 6.794739L79.54209 72.04474L79.54209 72.04474L6.042091 72.04474z" /></clipPath></defs><g transform="matrix(1.333333 0 0 1.333333 0 0)"><g clip-path="url(#1)"><g clip-path="url(#2)"><path id="1" transform="matrix(1 0 0 -1 0 842)" d="M0 842.2499L595.4999 842.2499L595.4999 -6.103516E-05L0 -6.103516E-05z" stroke="none" fill="#FFFFFF" fill-rule="nonzero" /></g><g clip-path="url(#3)"><path id="2" transform="matrix(1 0 0 -1 0 842)" d="M0 842.2499L595.4999 842.2499L595.4999 -6.103516E-05L0 -6.103516E-05z" stroke="none" fill="#FFFFFF" fill-rule="nonzero" /></g><g clip-path="url(#4)"><g><g clip-path="url(#5)"><g clip-path="url(#6)"><g transform="matrix(0 0.5281065 -0.5283893 0 535.7411 29.25854)"><g transform="matrix(1 0 0 1 0 0)"><image x="0" y="0" xlink:href="img_01.png" width="1521" height="863" /></g></g></g></g></g><g><g clip-path="url(#7)"><g clip-path="url(#8)"><g clip-path="url(#9)"><path id="4" transform="matrix(1 0 0 -1 0 842)" d="M14.38098 227.4657L578.4448 227.4657L578.4448 126.1321L14.38098 126.1321z" stroke="none" fill="#004AAD" fill-rule="nonzero" fill-opacity="0.3490196" /></g></g></g></g></g><g clip-path="url(#10)"><g clip-path="url(#11)"><g clip-path="url(#12)"><g clip-path="url(#13)"><g clip-path="url(#14)"><g transform="matrix(0.5478261 0 0 0.55 42.96556 626.4753)"><g transform="matrix(1 0 0 1 0 0)"><image x="0" y="0" xlink:href="img_02.png" width="115" height="150" /></g></g></g></g></g></g></g><g clip-path="url(#15)"><g><g clip-path="url(#16)"><g clip-path="url(#17)"><g clip-path="url(#18)"><path id="169" transform="matrix(1 0 0 -1 0 842)" d="M14.38098 116.4515L578.5138 116.4515L578.5138 16.99007L14.38098 16.99007z" stroke="none" fill="#004AAD" fill-rule="nonzero" fill-opacity="0.3490196" /></g></g></g></g></g><g clip-path="url(#19)"><g clip-path="url(#20)"><g clip-path="url(#21)"><g clip-path="url(#22)"><g clip-path="url(#23)"><g transform="matrix(0.5431033 0 0 0.54 503.1174 736.7706)"><g transform="matrix(1 0 0 1 0 0)"><image x="0" y="0" xlink:href="img_03.png" width="116" height="150" /></g></g></g></g></g></g></g><g clip-path="url(#24)"><g><g clip-path="url(#25)"><g clip-path="url(#26)"><g clip-path="url(#27)"><path id="333" transform="matrix(1 0 0 -1 0 842)" d="M15.58952 344.9301L579.8276 344.9301L579.8276 237.2157L15.58952 237.2157z" stroke="none" fill="#004AAD" fill-rule="nonzero" fill-opacity="0.3490196" /></g></g></g></g></g><g clip-path="url(#28)"><g clip-path="url(#29)"><g clip-path="url(#30)"><g clip-path="url(#31)"><g clip-path="url(#32)"><g transform="matrix(0.5328947 0 0 0.5377358 495.9564 508.1248)"><g transform="matrix(1 0 0 1 0 0)"><image x="0" y="0" xlink:href="img_04.png" width="114" height="159" /></g></g></g></g></g></g></g><g clip-path="url(#33)"><g><g clip-path="url(#34)"><g clip-path="url(#35)"><g clip-path="url(#36)"><path id="526" transform="matrix(1 0 0 -1 0 842)" d="M15.02322 457.0759L578.9448 457.0759L578.9448 359.7956L15.02322 359.7956z" stroke="none" fill="#004AAD" fill-rule="nonzero" fill-opacity="0.3490196" /></g></g></g></g></g><g clip-path="url(#37)"><g clip-path="url(#38)"><g clip-path="url(#39)"><g clip-path="url(#40)"><g clip-path="url(#41)"><g transform="matrix(0.6149999 0 0 0.6183205 39.52136 391.6741)"><g transform="matrix(1 0 0 1 0 0)"><image x="0" y="0" xlink:href="img_05.png" width="100" height="131" /></g></g></g></g></g></g></g><g clip-path="url(#42)"><g><g clip-path="url(#43)"><g clip-path="url(#44)"><g clip-path="url(#45)"><path id="669" transform="matrix(1 0 0 -1 0 842)" d="M14.38098 583.8035L578.5456 583.8035L578.5456 472.105L14.38098 472.105z" stroke="none" fill="#004AAD" fill-rule="nonzero" fill-opacity="0.3490196" /></g></g></g></g></g><g clip-path="url(#46)"><g clip-path="url(#47)"><g clip-path="url(#48)"><g clip-path="url(#49)"><g clip-path="url(#50)"><g transform="matrix(0.6396104 0 0 0.6375 421.0402 272.6652)"><g transform="matrix(1 0 0 1 0 0)"><image x="0" y="0" xlink:href="img_06.png" width="231" height="120" /></g></g></g></g></g></g></g><g clip-path="url(#51)"><g><g clip-path="url(#52)"><g clip-path="url(#53)"><g clip-path="url(#54)"><path id="842" transform="matrix(1 0 0 -1 0 842)" d="M15.58952 697.1459L579.769 697.1459L579.769 600.7307L15.58952 600.7307z" stroke="none" fill="#004AAD" fill-rule="nonzero" fill-opacity="0.3490196" /></g></g></g></g></g><g clip-path="url(#55)"><g clip-path="url(#56)"><g clip-path="url(#57)"><g clip-path="url(#58)"><g clip-path="url(#59)"><g transform="matrix(0.5032467 0 0 0.5049999 42.74256 153.6071)"><g transform="matrix(1 0 0 1 0 0)"><image x="0" y="0" xlink:href="img_07.png" width="231" height="150" /></g></g></g></g></g></g></g><g clip-path="url(#60)"></g><g clip-path="url(#61)"><g transform="matrix(0.05571992 0 0 0.05561992 499.6608 11.00061)"><g transform="matrix(1 0 0 1 0 0)"><image x="0" y="0" xlink:href="img_08.png" width="1521" height="863" /></g></g></g><g clip-path="url(#62)"><g transform="matrix(0.459375 0 0 0.4627659 6.042091 6.7948)"><g transform="matrix(1 0 0 1 0 0)"><image x="0" y="0" xlink:href="img_09.png" width="160" height="141" /></g></g></g></g></g></svg>