<svg xmlns="http://www.w3.org/2000/svg" xmlns:xlink="http://www.w3.org/1999/xlink" id="body_1" preserveAspectRatio="xMinYMin meet" viewBox="0 0 793 1123"><defs><clipPath id="1"><path id="" clip-rule="evenodd" transform="matrix(1 0 0 1 0 0)" d="M0 842L0 -0.25L0 -0.25L595.5 -0.25L595.5 -0.25L595.5 842L595.5 842L0 842z" /></clipPath><clipPath id="2"><path id="" clip-rule="evenodd" transform="matrix(1 0 0 1 0 0)" d="M0 -0.249939L595.5 -0.249939L595.5 -0.249939L595.5 842.0001L595.5 842.0001L0 842.0001z" /></clipPath><clipPath id="3"><path id="" clip-rule="evenodd" transform="matrix(1 0 0 1 0 0)" d="M0 -0.249939L595.5 -0.249939L595.5 -0.249939L595.5 842.0001L595.5 842.0001L0 842.0001z" /></clipPath><clipPath id="4"><path id="" clip-rule="evenodd" transform="matrix(1 0 0 1 0 0)" d="M0 -0.249939L595.5 -0.249939L595.5 -0.249939L595.5 842.0001L595.5 842.0001L0 842.0001z" /></clipPath><clipPath id="5"><path id="" clip-rule="evenodd" transform="matrix(1 0 0 1 0 0)" d="M0 -0.249939L595.5 -0.249939L595.5 -0.249939L595.5 842.0001L595.5 842.0001L0 842.0001z" /></clipPath><clipPath id="6"><path id="" clip-rule="evenodd" transform="matrix(1 0 0 1 0 0)" d="M-25.94048 -31.42767L59.52231 -31.42767L59.52231 -31.42767L59.52231 146.1487L59.52231 146.1487L-25.94048 146.1487z" /></clipPath><clipPath id="7"><path id="" clip-rule="evenodd" transform="matrix(1 0 0 1 0 0)" d="M-25.60694 146.0067C -15.25703 145.6767 -4.947125 143.5167 4.672793 139.5967C 15.3427 135.2668 25.15261 128.7968 33.37254 120.6869C 41.59247 112.577 48.21241 102.837 52.71237 92.16718C 56.64233 82.89722 58.94231 72.92731 59.52231 62.84741L59.52231 62.84741L59.52231 52.61749C 58.96231 42.92761 56.82233 33.31769 53.14236 24.30774C 48.76241 13.52783 42.22246 3.60791 34.03254 -4.692017C 25.84261 -12.99194 15.99269 -19.69183 5.212786 -24.24182C -4.527125 -28.36176 -15.02703 -30.71179 -25.60694 -31.18176L-25.60694 -31.18176L-25.60694 -27.46179C -15.49703 -27.13177 -5.437115 -25.02179 3.952796 -21.20184C 14.3927 -16.96191 23.99262 -10.63196 32.04255 -2.702026C 40.09248 5.227905 46.57243 14.77783 50.97239 25.20776C 55.39235 35.63763 57.70232 46.96753 57.78233 58.32745C 57.86232 69.68738 55.70235 81.07727 51.40238 91.62714C 47.13242 102.1871 40.72248 111.887 32.70255 120.0269C 24.68262 128.1668 15.0427 134.7068 4.492793 139.1667C -5.017123 143.1967 -15.26703 145.4867 -25.60694 145.9667L-25.60694 145.9667L-25.60694 146.0067zM-25.60694 133.4668C -16.89701 133.1468 -8.227094 131.3068 -0.1171655 128.0168C 9.032754 124.3169 17.45268 118.7769 24.51262 111.827C 31.57256 104.877 37.2625 96.5271 41.13247 87.3772C 45.02244 78.22729 47.05242 68.29736 47.13242 58.32745C 47.21242 48.35754 45.33244 38.36761 41.56247 29.09772C 37.8125 19.82776 32.20255 11.30786 25.17261 4.157898C 18.14268 -2.992004 9.682749 -8.751953 0.4128296 -12.67194C -7.817098 -16.16187 -16.66702 -18.18188 -25.61694 -18.64185L-25.61694 -18.64185L-25.61694 -14.93188C -17.14702 -14.61194 -8.727088 -12.82196 -0.8471594 -9.631958C 8.072764 -6.021973 16.29269 -0.6220093 23.17263 6.147888C 30.05257 12.91785 35.62252 21.08777 39.40249 30.00769C 43.19246 38.92761 45.18244 48.60754 45.26244 58.33746C 45.34243 68.06738 43.50245 77.80725 39.83249 86.84717C 36.17251 95.88715 30.70256 104.197 23.84262 111.177C 16.98268 118.1569 8.732754 123.7769 -0.3071631 127.5969C -8.307096 130.9968 -16.91702 132.9668 -25.61694 133.4268L-25.61694 133.4268L-25.61694 133.4768L-25.61694 133.4768L-25.60694 133.4668zM-25.60694 120.9269C -18.53701 120.6069 -11.50706 119.1069 -4.917118 116.437C 2.722811 113.3569 9.752747 108.747 15.65269 102.967C 21.55264 97.18713 26.3126 90.21716 29.55257 82.57727C 32.81254 74.94733 34.52253 66.65735 34.61253 58.32745C 34.70253 49.9975 33.13255 41.64758 29.99257 33.89764C 26.8726 26.14771 22.19264 19.00781 16.31269 13.02783C 10.43274 7.047913 3.372806 2.207947 -4.377132 -1.082031C -11.08707 -3.942017 -18.307 -5.631958 -25.60694 -6.08197L-25.60694 -6.08197L-25.60694 -2.382019C -18.777 -2.072021 -11.99706 -0.6120605 -5.637118 1.957947C 1.772816 4.937927 8.592758 9.407898 14.32271 15.02783C 20.05266 20.64777 24.67262 27.39771 27.82259 34.80768C 30.98256 42.20758 32.65255 50.25751 32.73254 58.33746C 32.81254 66.41736 31.30256 74.52728 28.26258 82.04724C 25.23261 89.5672 20.69265 96.49713 14.9927 102.3071C 9.292748 108.117 2.422811 112.8069 -5.097125 116.007C -11.57707 118.7769 -18.547 120.4169 -25.60694 120.8669L-25.60694 120.8669L-25.60694 120.9269zM-25.60694 108.377C -20.17699 108.077 -14.77704 106.897 -9.717081 104.8571C -3.597132 102.407 2.042816 98.72711 6.782776 94.09717C 11.52273 89.46716 15.36269 83.90723 17.97268 77.78729C 20.58265 71.66736 21.99264 65.0174 22.07264 58.33746C 22.15264 51.65753 20.91265 44.93756 18.41267 38.70764C 15.9127 32.47766 12.17273 26.72772 7.45277 21.89777C 2.732812 17.06781 -2.93714 13.16785 -9.177089 10.50787C -14.37703 8.277893 -19.95699 6.917908 -25.60694 6.487915L-25.60694 6.487915L-25.60694 10.17786C -20.41699 10.47784 -15.27703 11.60785 -10.43707 13.54785C -4.54712 15.89783 0.8928259 19.43781 5.452785 23.89777C 10.01275 28.35773 13.71271 33.71765 16.23269 39.6076C 18.75267 45.49756 20.10266 51.89752 20.19265 58.33746C 20.28265 64.7774 19.08267 71.24731 16.67269 77.24731C 14.26271 83.24725 10.66274 88.78717 6.122779 93.44714C 1.582819 98.10712 -3.887135 101.8671 -9.897081 104.437C -14.86703 106.577 -20.19699 107.877 -25.60694 108.307L-25.60694 108.307L-25.60694 108.387L-25.60694 108.387L-25.60694 108.377zM-25.60694 95.82715C -21.81698 95.54712 -18.05701 94.69714 -14.50704 93.28717C -9.897081 91.46716 -5.647115 88.71716 -2.067147 85.24719C 1.512821 81.77722 4.412794 77.59729 6.402777 72.9873C 8.39276 68.37738 9.472749 63.36743 9.552752 58.32745C 9.63275 53.28748 8.712759 48.20752 6.842772 43.48761C 4.972789 38.76764 2.152815 34.40765 -1.397153 30.74768C -4.947125 27.08771 -9.237088 24.10773 -13.95704 22.06775C -17.63701 20.46777 -21.58697 19.45776 -25.59694 19.04779L-25.59694 19.04779L-25.59694 22.71777C -22.04697 22.99774 -18.53701 23.79773 -15.21703 25.10773C -10.83707 26.83771 -6.797106 29.44769 -3.387132 32.73767C 0.02283691 36.02765 2.782808 40.00763 4.68279 44.38757C 6.582773 48.76752 7.602766 53.52747 7.682765 58.32745C 7.762764 63.12738 6.892775 67.9574 5.112792 72.44733C 3.332805 76.93726 0.6628308 81.08722 -2.717142 84.57721C -6.097108 88.0672 -10.17707 90.90717 -14.66704 92.84717C -18.127 94.34717 -21.81698 95.31714 -25.58694 95.7171L-25.58694 95.7171L-25.58694 95.82715L-25.58694 95.82715L-25.60694 95.82715zM-25.60694 83.24725C -23.45696 83.00726 -21.33698 82.49725 -19.307 81.70728C -16.21702 80.51727 -13.35705 78.69727 -10.93707 76.38727C -8.517089 74.07733 -6.547108 71.27734 -5.187125 68.19739C -3.827128 65.11737 -3.077142 61.73743 -2.987142 58.33746C -2.917145 54.9375 -3.507133 51.4975 -4.747123 48.29755C -5.987113 45.0976 -7.877098 42.12756 -10.26708 39.61761C -12.65705 37.10767 -15.56703 35.07764 -18.767 33.66766C -20.93698 32.7077 -23.24696 32.04767 -25.60694 31.68768L-25.60694 31.68768L-25.60694 35.30768C -23.70695 35.53766 -21.82697 35.99762 -20.02699 36.69763C -17.16702 37.79761 -14.50704 39.4776 -12.26706 41.6076C -10.02708 43.73755 -8.187088 46.33752 -6.927103 49.1875C -5.667118 52.03754 -4.957123 55.16748 -4.87712 58.32745C -4.807123 61.48743 -5.347123 64.67737 -6.497106 67.64734C -7.647096 70.61731 -9.387081 73.38733 -11.60707 75.71729C -13.82704 78.0473 -16.52702 79.94727 -19.49699 81.26727C -21.43697 82.12726 -23.50696 82.73724 -25.61694 83.07721L-25.61694 83.07721L-25.61694 83.23724L-25.61694 83.23724L-25.60694 83.24725zM-25.60694 70.56732C -23.47696 70.07733 -21.44698 69.04736 -19.79699 67.52734C -17.26701 65.23737 -15.66703 61.86743 -15.51703 58.33746C -15.34703 54.8075 -16.64701 51.16748 -19.127 48.47754C -20.83698 46.59753 -23.10696 45.19757 -25.60694 44.47754L-25.60694 44.47754L-25.60694 48.03754C -23.96695 48.47754 -22.41697 49.29755 -21.12698 50.46753C -18.947 52.41748 -17.54701 55.28748 -17.39701 58.32745C -17.22701 61.36743 -18.32701 64.50739 -20.45699 66.85736C -21.82697 68.37738 -23.61695 69.54736 -25.60694 70.21735L-25.60694 70.21735L-25.60694 70.55737L-25.60694 70.55737L-25.60694 70.56732z" /></clipPath><clipPath id="8"><path id="" clip-rule="evenodd" transform="matrix(1 0 0 1 0 0)" d="M0 -0.249939L595.5 -0.249939L595.5 -0.249939L595.5 842.0001L595.5 842.0001L0 842.0001z" /></clipPath><clipPath id="9"><path id="" clip-rule="evenodd" transform="matrix(1 0 0 1 0 0)" d="M0 -0.249939L595.5 -0.249939L595.5 -0.249939L595.5 842.0001L595.5 842.0001L0 842.0001z" /></clipPath><clipPath id="10"><path id="" clip-rule="evenodd" transform="matrix(1 0 0 1 0 0)" d="M773.3092 316.3472L640.3112 421.427L640.3112 421.427L535.2314 288.429L535.2314 288.429L668.2294 183.3492L668.2294 183.3492L773.3092 316.3472z" /></clipPath><clipPath id="11"><path id="" clip-rule="evenodd" transform="matrix(1 0 0 1 0 0)" d="M0 -0.249939L595.5 -0.249939L595.5 -0.249939L595.5 842.0001L595.5 842.0001L0 842.0001z" /></clipPath><clipPath id="12"><path id="" clip-rule="evenodd" transform="matrix(1 0 0 1 0 0)" d="M75.59999 42.2301L519.12 42.2301L519.12 42.2301L519.12 822.4701L519.12 822.4701L75.59999 822.4701z" /></clipPath><clipPath id="13"><path id="" clip-rule="evenodd" transform="matrix(1 0 0 1 0 0)" d="M76.4271 42.29669L518.9271 42.29669L518.9271 42.29669L518.9271 822.2966L518.9271 822.2966L76.4271 822.2966z" /></clipPath><clipPath id="14"><path id="" clip-rule="evenodd" transform="matrix(1 0 0 1 0 0)" d="M0 757.0277L84.60674 757.0277L84.60674 757.0277L84.60674 842.0001L84.60674 842.0001L0 842.0001z" /></clipPath><clipPath id="15"><path id="" clip-rule="evenodd" transform="matrix(1 0 0 1 0 0)" d="M0 -0.249939L595.5 -0.249939L595.5 -0.249939L595.5 842.0001L595.5 842.0001L0 842.0001z" /></clipPath><clipPath id="16"><path id="" clip-rule="evenodd" transform="matrix(1 0 0 1 0 0)" d="M0 -0.249939L595.5 -0.249939L595.5 -0.249939L595.5 842.0001L595.5 842.0001L0 842.0001z" /></clipPath><clipPath id="17"><path id="" clip-rule="evenodd" transform="matrix(1 0 0 1 0 0)" d="M549.2971 760.4045L634.7598 760.4045L634.7598 760.4045L634.7598 937.9809L634.7598 937.9809L549.2971 937.9809z" /></clipPath><clipPath id="18"><path id="" clip-rule="evenodd" transform="matrix(1 0 0 1 0 0)" d="M634.4263 760.5465C 624.0764 760.8765 613.7665 763.0365 604.1465 766.9564C 593.4767 771.2864 583.6667 777.7564 575.4468 785.8663C 567.2269 793.9762 560.6069 803.7161 556.107 814.386C 552.1771 823.656 549.8771 833.6259 549.2971 843.7057L549.2971 843.7057L549.2971 853.9357C 549.8571 863.6256 551.9971 873.2355 555.677 882.2454C 560.057 893.0253 566.5969 902.9453 574.7869 911.2452C 582.9767 919.5451 592.8267 926.2451 603.6066 930.795C 613.3465 934.915 623.8464 937.265 634.4263 937.735L634.4263 937.735L634.4263 934.015C 624.3164 933.6849 614.2565 931.575 604.8666 927.7551C 594.4267 923.5151 584.8267 917.1851 576.7768 909.2552C 568.7269 901.3253 562.2469 891.7754 557.847 881.3455C 553.4271 870.9155 551.1171 859.5857 551.037 848.2258C 550.957 836.8658 553.117 825.476 557.417 814.926C 561.687 804.3661 568.0969 794.6662 576.1168 786.5263C 584.1367 778.3864 593.7767 771.8464 604.3265 767.3865C 613.8365 763.3565 624.0864 761.0665 634.4263 760.5865L634.4263 760.5865L634.4263 760.5465zM634.4263 773.0864C 625.7164 773.4064 617.0464 775.2464 608.9365 778.5363C 599.7866 782.2363 591.3666 787.7762 584.3068 794.7262C 577.2468 801.6761 571.5569 810.0261 567.6869 819.176C 563.7969 828.3259 561.7669 838.2559 561.687 848.2258C 561.6069 858.1956 563.4869 868.1856 567.2569 877.4554C 571.0068 886.7254 576.6168 895.2454 583.6468 902.3953C 590.6767 909.5452 599.1366 915.3052 608.4066 919.2251C 616.6365 922.7151 625.4864 924.735 634.4363 925.1951L634.4363 925.1951L634.4363 921.4851C 625.9664 921.1651 617.5464 919.3751 609.6666 916.1851C 600.7466 912.5751 592.5267 907.1752 585.6467 900.4053C 578.7668 893.6353 573.1968 885.4654 569.4169 876.5455C 565.6269 867.6255 563.637 857.9456 563.5569 848.2157C 563.4769 838.4858 565.317 828.7459 568.9869 819.706C 572.6469 810.6661 578.1168 802.3561 584.9767 795.3762C 591.8367 788.3962 600.0866 782.7763 609.1265 778.9564C 617.1265 775.5564 625.7363 773.5864 634.4363 773.1264L634.4363 773.1264L634.4363 773.0764L634.4363 773.0764L634.4263 773.0864zM634.4263 785.6263C 627.3563 785.9463 620.3265 787.4463 613.7365 790.1163C 606.0966 793.1962 599.0667 797.8062 593.1667 803.5862C 587.2667 809.3661 582.5068 816.3361 579.2668 823.976C 576.0068 831.6058 574.2968 839.8958 574.2068 848.2258C 574.1168 856.5557 575.6868 864.9056 578.8268 872.6555C 581.9468 880.4055 586.6267 887.5454 592.5067 893.5253C 598.3866 899.5053 605.4466 904.3453 613.1965 907.6353C 619.9064 910.4952 627.1263 912.1852 634.4263 912.6351L634.4263 912.6351L634.4263 908.9352C 627.5964 908.6252 620.8164 907.1652 614.4565 904.5953C 607.0465 901.6152 600.2266 897.1453 594.4967 891.5253C 588.7667 885.9054 584.1467 879.1555 580.9968 871.7455C 577.8368 864.3456 576.1668 856.2957 576.0869 848.2157C 576.0068 840.1358 577.5168 832.0259 580.5568 824.5059C 583.5868 816.986 588.1267 810.0561 593.8267 804.2462C 599.5266 798.4362 606.3965 793.7462 613.9164 790.5463C 620.3964 787.7762 627.3664 786.1363 634.4263 785.6863L634.4263 785.6863L634.4263 785.6263zM634.4263 798.1762C 628.9963 798.4762 623.5964 799.6561 618.5365 801.6962C 612.4164 804.1461 606.7766 807.8261 602.0366 812.4561C 597.2966 817.0861 593.4567 822.6459 590.8467 828.7659C 588.2367 834.8859 586.8267 841.5358 586.7467 848.2157C 586.6667 854.8957 587.9067 861.6157 590.4067 867.8456C 592.9067 874.0756 596.6467 879.8255 601.3666 884.6554C 606.0865 889.4854 611.7565 893.3854 617.9965 896.0453C 623.1964 898.2753 628.7764 899.6353 634.4263 900.0652L634.4263 900.0652L634.4263 896.3753C 629.2363 896.0753 624.0964 894.9454 619.2565 893.0053C 613.3665 890.6553 607.9266 887.1154 603.3666 882.6555C 598.8066 878.1955 595.1066 872.8355 592.5867 866.9456C 590.0667 861.0556 588.7167 854.6557 588.6267 848.2157C 588.5367 841.7758 589.7367 835.3058 592.1467 829.306C 594.5566 823.306 598.1566 817.766 602.6966 813.1061C 607.2366 808.4461 612.7065 804.6862 618.7165 802.1161C 623.6864 799.9762 629.0164 798.6761 634.4263 798.2462L634.4263 798.2462L634.4263 798.1662L634.4263 798.1662L634.4263 798.1762zM634.4263 810.7261C 630.6363 811.006 626.8763 811.8561 623.3264 813.266C 618.7165 815.0861 614.4665 817.836 610.8865 821.306C 607.3066 824.7759 604.4066 828.9559 602.4166 833.5659C 600.4266 838.1758 599.3466 843.1858 599.2666 848.2258C 599.1866 853.2657 600.1066 858.3456 601.9766 863.0656C 603.8466 867.7856 606.6666 872.1455 610.2165 875.8055C 613.7665 879.4655 618.0565 882.4454 622.7764 884.4854C 626.4564 886.0854 630.4063 887.0955 634.4163 887.5054L634.4163 887.5054L634.4163 883.8354C 630.8663 883.5554 627.3563 882.7554 624.0364 881.4455C 619.6564 879.7155 615.6165 877.1055 612.2065 873.8155C 608.7966 870.5255 606.0366 866.5455 604.1366 862.1656C 602.2366 857.7856 601.2166 853.0257 601.1366 848.2258C 601.0566 843.4258 601.9266 838.5958 603.7065 834.1059C 605.4866 829.6159 608.1566 825.4659 611.5365 821.976C 614.9165 818.486 618.9965 815.6461 623.4864 813.7061C 626.9464 812.2061 630.6363 811.2361 634.4063 810.8361L634.4063 810.8361L634.4063 810.7261L634.4063 810.7261L634.4263 810.7261zM634.4263 823.306C 632.2764 823.546 630.1563 824.056 628.1264 824.8459C 625.0364 826.0359 622.1765 827.8559 619.7565 830.1659C 617.3365 832.4759 615.3665 835.2758 614.0065 838.3558C 612.6465 841.4358 611.8965 844.8157 611.8065 848.2157C 611.7365 851.6157 612.3265 855.0557 613.5665 858.2557C 614.8065 861.4556 616.6965 864.4256 619.0864 866.9355C 621.4764 869.4456 624.3864 871.4755 627.5864 872.8855C 629.7563 873.8455 632.0663 874.5055 634.4263 874.8655L634.4263 874.8655L634.4263 871.2455C 632.5263 871.0156 630.6464 870.5555 628.8463 869.8556C 625.9864 868.7556 623.3264 867.0756 621.0864 864.9456C 618.8464 862.8156 617.0065 860.2156 615.7465 857.3657C 614.4865 854.5157 613.7765 851.3857 613.6965 848.2258C 613.6265 845.0658 614.1665 841.8758 615.3165 838.9058C 616.4665 835.9359 618.2065 833.1658 620.4264 830.8359C 622.6464 828.5059 625.3464 826.606 628.3163 825.2859C 630.2563 824.426 632.3264 823.8159 634.4363 823.476L634.4363 823.476L634.4363 823.316L634.4363 823.316L634.4263 823.306zM634.4263 835.9858C 632.2963 836.4758 630.2664 837.5059 628.6163 839.0258C 626.0864 841.3158 624.4864 844.6857 624.3364 848.2157C 624.1664 851.7457 625.4664 855.3857 627.9464 858.0756C 629.6563 859.9556 631.9263 861.3556 634.4263 862.0756L634.4263 862.0756L634.4263 858.5156C 632.7863 858.0756 631.2363 857.2556 629.9464 856.0857C 627.7664 854.1357 626.3663 851.2657 626.2164 848.2258C 626.0464 845.1858 627.1464 842.0458 629.2764 839.6959C 630.6464 838.1758 632.4363 837.0059 634.4263 836.3358L634.4263 836.3358L634.4263 835.9958L634.4263 835.9958L634.4263 835.9858z" /></clipPath><clipPath id="19"><path id="" clip-rule="evenodd" transform="matrix(1 0 0 1 0 0)" d="M0 -0.249939L595.5 -0.249939L595.5 -0.249939L595.5 842.0001L595.5 842.0001L0 842.0001z" /></clipPath><clipPath id="20"><path id="" clip-rule="evenodd" transform="matrix(1 0 0 1 0 0)" d="M0 -0.249939L595.5 -0.249939L595.5 -0.249939L595.5 842.0001L595.5 842.0001L0 842.0001z" /></clipPath><clipPath id="21"><path id="" clip-rule="evenodd" transform="matrix(1 0 0 1 0 0)" d="M201.8835 213.6833L393.3921 213.6833L393.3921 213.6833L393.3921 405.192L393.3921 405.192L201.8835 405.192z" /></clipPath><clipPath id="22"><path id="" clip-rule="evenodd" transform="matrix(1 0 0 1 0 0)" d="M297.6378 213.6833C 244.7541 213.6833 201.8835 256.554 201.8835 309.4376C 201.8835 362.3213 244.7541 405.192 297.6378 405.192C 350.5215 405.192 393.3921 362.3213 393.3921 309.4376C 393.3921 256.554 350.5215 213.6833 297.6378 213.6833z" /></clipPath><clipPath id="23"><path id="" clip-rule="evenodd" transform="matrix(1 0 0 1 0 0)" d="M201.8835 213.6833L393.3921 213.6833L393.3921 213.6833L393.3921 405.192L393.3921 405.192L201.8835 405.192z" /></clipPath><clipPath id="24"><path id="" clip-rule="evenodd" transform="matrix(1 0 0 1 0 0)" d="M0 -0.249939L595.5 -0.249939L595.5 -0.249939L595.5 842.0001L595.5 842.0001L0 842.0001z" /></clipPath><clipPath id="25"><path id="" clip-rule="evenodd" transform="matrix(1 0 0 1 0 0)" d="M0 -0.249939L595.5 -0.249939L595.5 -0.249939L595.5 842.0001L595.5 842.0001L0 842.0001z" /></clipPath><clipPath id="26"><path id="" clip-rule="evenodd" transform="matrix(1 0 0 1 0 0)" d="M0 -0.249939L595.5 -0.249939L595.5 -0.249939L595.5 842.0001L595.5 842.0001L0 842.0001z" /></clipPath><clipPath id="27"><path id="" clip-rule="evenodd" transform="matrix(1 0 0 1 0 0)" d="M187.8617 644.502L394.1117 644.502L394.1117 644.502L394.1117 820.752L394.1117 820.752L187.8617 820.752z" /></clipPath><clipPath id="28"><path id="" clip-rule="evenodd" transform="matrix(1 0 0 1 0 0)" d="M187.8617 692.502L187.8617 772.3477C 187.8617 798.8574 209.352 820.3477 235.8617 820.3477L235.8617 820.3477L345.3921 820.3477C 371.9018 820.3477 393.3921 798.8574 393.3921 772.3477L393.3921 772.3477L393.3921 692.502C 393.3921 665.9922 371.9018 644.502 345.3921 644.502L345.3921 644.502L235.8617 644.502C 209.352 644.502 187.8617 665.9922 187.8617 692.502z" /></clipPath><clipPath id="29"><path id="" clip-rule="evenodd" transform="matrix(1 0 0 1 0 0)" d="M187.8617 644.502L393.3617 644.502L393.3617 644.502L393.3617 820.002L393.3617 820.002L187.8617 820.002z" /></clipPath><clipPath id="30"><path id="" clip-rule="evenodd" transform="matrix(1 0 0 1 0 0)" d="M0 -0.249939L595.5 -0.249939L595.5 -0.249939L595.5 842.0001L595.5 842.0001L0 842.0001z" /></clipPath><clipPath id="31"><path id="" clip-rule="evenodd" transform="matrix(1 0 0 1 0 0)" d="M508.0592 17.08496L582.3092 17.08496L582.3092 17.08496L582.3092 59.08496L582.3092 59.08496L508.0592 59.08496z" /></clipPath></defs><g transform="matrix(1.333333 0 0 1.333333 0 0)"><g clip-path="url(#1)"><g clip-path="url(#2)"><path id="1" transform="matrix(1 0 0 -1 0 842)" d="M0 842.2499L595.4999 842.2499L595.4999 -6.103516E-05L0 -6.103516E-05z" stroke="none" fill="#FFFFFF" fill-rule="nonzero" /></g><g clip-path="url(#3)"><path id="2" transform="matrix(1 0 0 -1 0 842)" d="M0 842.2499L595.4999 842.2499L595.4999 -6.103516E-05L0 -6.103516E-05z" stroke="none" fill="#FFFFFF" fill-rule="nonzero" /></g><g clip-path="url(#4)"><g clip-path="url(#5)"><g clip-path="url(#6)"><g clip-path="url(#7)"><path id="3" transform="matrix(1 0 0 -1 0 842)" d="M59.52231 692.1933L-25.60795 692.1933L-25.60795 873.4276L59.52231 873.4276z" stroke="none" fill="#09A459" fill-rule="nonzero" /></g></g></g></g><g clip-path="url(#8)"><g clip-path="url(#9)"><g clip-path="url(#10)"><g transform="matrix(-0.1883825 0.1488383 -0.1488383 -0.1883825 773.3091 316.3472)"><g transform="matrix(1 0 0 1 0 0)"><image x="0" y="0" xlink:href="img_01.png" width="706" height="706" /></g></g></g></g></g><g clip-path="url(#11)"><g><g clip-path="url(#12)"><g clip-path="url(#13)"><g transform="matrix(0 0.5128205 -0.5127462 0 518.9271 42.29669)"><g transform="matrix(1 0 0 1 0 0)"><image x="0" y="0" xlink:href="img_02.png" width="1521" height="863" /></g></g></g></g></g></g><g clip-path="url(#14)"><g transform="matrix(0 -0.2400849 0.240085 0 -84.89326 926.5277)"><g transform="matrix(1 0 0 1 0 0)"><image x="0" y="0" xlink:href="img_01.png" width="706" height="706" /></g></g></g><g clip-path="url(#15)"><g clip-path="url(#16)"><g clip-path="url(#17)"><g clip-path="url(#18)"><path id="7" transform="matrix(1 0 0 -1 0 842)" d="M549.297 85.25345L634.4272 85.25345L634.4272 -95.98088L549.297 -95.98088z" stroke="none" fill="#09A459" fill-rule="nonzero" /></g></g></g></g><g clip-path="url(#19)"><g clip-path="url(#20)"><g clip-path="url(#21)"><g clip-path="url(#22)"><g clip-path="url(#23)"><g transform="matrix(0.3989764 0 0 0.3989764 201.8835 213.6833)"><g transform="matrix(1 0 0 1 0 0)"><image x="0" y="0" xlink:href="img_03.png" width="480" height="480" /></g></g></g></g></g></g></g><g clip-path="url(#24)"></g><g clip-path="url(#25)"><g clip-path="url(#26)"><g clip-path="url(#27)"><g clip-path="url(#28)"><g clip-path="url(#29)"><g transform="matrix(0.7903845 0 0 0.7896475 187.8617 642.7029)"><g transform="matrix(1 0 0 1 0 0)"><image x="0" y="0" xlink:href="img_04.png" width="260" height="227" /></g></g></g></g></g></g></g><g clip-path="url(#30)"></g><g clip-path="url(#31)"><g transform="matrix(0.04881657 0 0 0.04866743 508.0592 17.08502)"><g transform="matrix(1 0 0 1 0 0)"><image x="0" y="0" xlink:href="img_05.png" width="1521" height="863" /></g></g></g></g></g></svg>