<svg xmlns="http://www.w3.org/2000/svg" xmlns:xlink="http://www.w3.org/1999/xlink" id="body_1" preserveAspectRatio="xMinYMin meet" viewBox="0 0 793 1123"><defs><clipPath id="1"><path id="" clip-rule="evenodd" transform="matrix(1 0 0 1 0 0)" d="M0 842L0 -0.25L0 -0.25L595.5 -0.25L595.5 -0.25L595.5 842L595.5 842L0 842z" /></clipPath><clipPath id="2"><path id="" clip-rule="evenodd" transform="matrix(1 0 0 1 0 0)" d="M0 -0.249939L595.5 -0.249939L595.5 -0.249939L595.5 842.0001L595.5 842.0001L0 842.0001z" /></clipPath><clipPath id="3"><path id="" clip-rule="evenodd" transform="matrix(1 0 0 1 0 0)" d="M0 -0.249939L595.5 -0.249939L595.5 -0.249939L595.5 842.0001L595.5 842.0001L0 842.0001z" /></clipPath><clipPath id="4"><path id="" clip-rule="evenodd" transform="matrix(1 0 0 1 0 0)" d="M0 -0.249939L595.5 -0.249939L595.5 -0.249939L595.5 842.0001L595.5 842.0001L0 842.0001z" /></clipPath><clipPath id="5"><path id="" clip-rule="evenodd" transform="matrix(1 0 0 1 0 0)" d="M79.67999 17.27008L535.92 17.27008L535.92 17.27008L535.92 821.5101L535.92 821.5101L79.67999 821.5101z" /></clipPath><clipPath id="6"><path id="" clip-rule="evenodd" transform="matrix(1 0 0 1 0 0)" d="M79.74117 17.50403L535.7411 17.50403L535.7411 17.50403L535.7411 820.754L535.7411 820.754L79.74117 820.754z" /></clipPath><clipPath id="7"><path id="" clip-rule="evenodd" transform="matrix(1 0 0 1 0 0)" d="M370.5572 149.3904L573.0572 149.3904L573.0572 149.3904L573.0572 381.8904L573.0572 381.8904L370.5572 381.8904z" /></clipPath><clipPath id="8"><path id="" clip-rule="evenodd" transform="matrix(1 0 0 1 0 0)" d="M0 -0.249939L595.5 -0.249939L595.5 -0.249939L595.5 842.0001L595.5 842.0001L0 842.0001z" /></clipPath><clipPath id="9"><path id="" clip-rule="evenodd" transform="matrix(1 0 0 1 0 0)" d="M0 -0.249939L595.5 -0.249939L595.5 -0.249939L595.5 842.0001L595.5 842.0001L0 842.0001z" /></clipPath><clipPath id="10"><path id="" clip-rule="evenodd" transform="matrix(1 0 0 1 0 0)" d="M284.4609 300.5256L349.7109 300.5256L349.7109 300.5256L349.7109 380.0256L349.7109 380.0256L284.4609 380.0256z" /></clipPath><clipPath id="11"><path id="" clip-rule="evenodd" transform="matrix(1 0 0 1 0 0)" d="M284.4609 311.0256L284.4609 369.4144C 284.4609 375.2134 289.1619 379.9144 294.9609 379.9144L294.9609 379.9144L339.1053 379.9144C 344.9043 379.9144 349.6053 375.2134 349.6053 369.4144L349.6053 369.4144L349.6053 311.0256C 349.6053 305.2266 344.9043 300.5256 339.1053 300.5256L339.1053 300.5256L294.9609 300.5256C 289.1619 300.5256 284.4609 305.2266 284.4609 311.0256z" /></clipPath><clipPath id="12"><path id="" clip-rule="evenodd" transform="matrix(1 0 0 1 0 0)" d="M285.2109 301.2756L348.9609 301.2756L348.9609 301.2756L348.9609 379.2756L348.9609 379.2756L285.2109 379.2756z" /></clipPath><clipPath id="13"><path id="" clip-rule="evenodd" transform="matrix(1 0 0 1 0 0)" d="M295.8609 301.4257L338.2053 301.4257C 344.0043 301.4257 348.7053 306.1266 348.7053 311.9257L348.7053 311.9257L348.7053 368.5144C 348.7053 374.3134 344.0043 379.0144 338.2053 379.0144L338.2053 379.0144L295.8609 379.0144C 290.062 379.0144 285.3609 374.3134 285.3609 368.5144L285.3609 368.5144L285.3609 311.9257C 285.3609 306.1266 290.062 301.4257 295.8609 301.4257z" /></clipPath><clipPath id="14"><path id="" clip-rule="evenodd" transform="matrix(1 0 0 1 0 0)" d="M0 -0.249939L595.5 -0.249939L595.5 -0.249939L595.5 842.0001L595.5 842.0001L0 842.0001z" /></clipPath><clipPath id="15"><path id="" clip-rule="evenodd" transform="matrix(1 0 0 1 0 0)" d="M0 -0.249939L595.5 -0.249939L595.5 -0.249939L595.5 842.0001L595.5 842.0001L0 842.0001z" /></clipPath><clipPath id="16"><path id="" clip-rule="evenodd" transform="matrix(1 0 0 1 0 0)" d="M284.4609 300.5256L349.7109 300.5256L349.7109 300.5256L349.7109 380.0256L349.7109 380.0256L284.4609 380.0256z" /></clipPath><clipPath id="17"><path id="" clip-rule="evenodd" transform="matrix(1 0 0 1 0 0)" d="M284.4609 311.0256L284.4609 369.4144C 284.4609 375.2134 289.1619 379.9144 294.9609 379.9144L294.9609 379.9144L339.1053 379.9144C 344.9043 379.9144 349.6053 375.2134 349.6053 369.4144L349.6053 369.4144L349.6053 311.0256C 349.6053 305.2266 344.9043 300.5256 339.1053 300.5256L339.1053 300.5256L294.9609 300.5256C 289.1619 300.5256 284.4609 305.2266 284.4609 311.0256z" /></clipPath><clipPath id="18"><path id="" clip-rule="evenodd" transform="matrix(1 0 0 1 0 0)" d="M284.4609 300.5256L349.7109 300.5256L349.7109 300.5256L349.7109 380.0256L349.7109 380.0256L284.4609 380.0256z" /></clipPath><clipPath id="19"><path id="" clip-rule="evenodd" transform="matrix(1 0 0 1 0 0)" d="M284.4609 300.5256L349.6994 300.5256L349.6994 300.5256L349.6994 380.0197L349.6994 380.0197L284.4609 380.0197z" /></clipPath><clipPath id="20"><path id="" clip-rule="evenodd" transform="matrix(1 0 0 1 0 0)" d="M284.4609 311.0248L284.4609 369.4092C 284.4609 375.2078 289.1611 379.9084 294.959 379.9084L294.959 379.9084L339.0956 379.9084C 344.8936 379.9084 349.5938 375.2078 349.5938 369.4092L349.5938 369.4092L349.5938 311.0248C 349.5938 305.2263 344.8936 300.5256 339.0956 300.5256L339.0956 300.5256L294.959 300.5256C 289.1611 300.5256 284.4609 305.2263 284.4609 311.0248z" /></clipPath><clipPath id="21"><path id="" clip-rule="evenodd" transform="matrix(1 0 0 1 0 0)" d="M339.9237 480.5266L567.1737 480.5266L567.1737 480.5266L567.1737 713.7766L567.1737 713.7766L339.9237 713.7766z" /></clipPath><clipPath id="22"><path id="" clip-rule="evenodd" transform="matrix(1 0 0 1 0 0)" d="M368.0322 729.3382L479.7822 729.3382L479.7822 729.3382L479.7822 835.0882L479.7822 835.0882L368.0322 835.0882z" /></clipPath><clipPath id="23"><path id="" clip-rule="evenodd" transform="matrix(1 0 0 1 0 0)" d="M130.2376 721.7966L284.7376 721.7966L284.7376 721.7966L284.7376 827.5466L284.7376 827.5466L130.2376 827.5466z" /></clipPath><clipPath id="24"><path id="" clip-rule="evenodd" transform="matrix(1 0 0 1 0 0)" d="M0 -0.249939L595.5 -0.249939L595.5 -0.249939L595.5 842.0001L595.5 842.0001L0 842.0001z" /></clipPath><clipPath id="25"><path id="" clip-rule="evenodd" transform="matrix(1 0 0 1 0 0)" d="M42.24 408.9501L567.36 408.9501L567.36 408.9501L567.36 421.1901L567.36 421.1901L42.24 421.1901z" /></clipPath><clipPath id="26"><path id="" clip-rule="evenodd" transform="matrix(1 0 0 1 0 0)" d="M499.6608 11.00061L584.4108 11.00061L584.4108 11.00061L584.4108 59.00061L584.4108 59.00061L499.6608 59.00061z" /></clipPath><clipPath id="27"><path id="" clip-rule="evenodd" transform="matrix(1 0 0 1 0 0)" d="M6.042091 6.794739L79.54209 6.794739L79.54209 6.794739L79.54209 72.04474L79.54209 72.04474L6.042091 72.04474z" /></clipPath></defs><g transform="matrix(1.333333 0 0 1.333333 0 0)"><g clip-path="url(#1)"><g clip-path="url(#2)"><path id="1" transform="matrix(1 0 0 -1 0 842)" d="M0 842.2499L595.4999 842.2499L595.4999 -6.103516E-05L0 -6.103516E-05z" stroke="none" fill="#FFFFFF" fill-rule="nonzero" /></g><g clip-path="url(#3)"><path id="2" transform="matrix(1 0 0 -1 0 842)" d="M0 842.2499L595.4999 842.2499L595.4999 -6.103516E-05L0 -6.103516E-05z" stroke="none" fill="#FFFFFF" fill-rule="nonzero" /></g><g clip-path="url(#4)"><g><g clip-path="url(#5)"><g clip-path="url(#6)"><g transform="matrix(0 0.5281065 -0.5283893 0 535.7411 17.50409)"><g transform="matrix(1 0 0 1 0 0)"><image x="0" y="0" xlink:href="img_01.png" width="1521" height="863" /></g></g></g></g></g></g><g clip-path="url(#7)"><g transform="matrix(0.6008901 0 0 0.6007752 370.5572 149.3904)"><g transform="matrix(1 0 0 1 0 0)"><image x="0" y="0" xlink:href="img_02.png" width="337" height="387" /></g></g></g><g clip-path="url(#8)"><g clip-path="url(#9)"><g clip-path="url(#10)"><g clip-path="url(#11)"><g clip-path="url(#12)"><g clip-path="url(#13)"><g transform="matrix(0.5673912 0 0 0.5662251 284.4609 294.6603)"><g transform="matrix(1 0 0 1 0 0)"><image x="0" y="0" xlink:href="img_03.png" width="115" height="151" /></g></g></g></g></g></g></g></g><g clip-path="url(#14)"><g clip-path="url(#15)"><g clip-path="url(#16)"><g clip-path="url(#17)"><g clip-path="url(#18)"><g clip-path="url(#19)"><g clip-path="url(#20)"><path id="6" transform="matrix(1 0 0 -1 0 842)" d="M284.4609 530.9752L284.4609 472.5908C 284.4609 466.7922 289.1611 462.0916 294.959 462.0916L294.959 462.0916L339.0956 462.0916C 344.8936 462.0916 349.5937 466.7922 349.5937 472.5908L349.5937 472.5908L349.5937 530.9752C 349.5937 536.7737 344.8936 541.4744 339.0956 541.4744L339.0956 541.4744L294.959 541.4744C 289.1611 541.4744 284.4609 536.7737 284.4609 530.9752z" stroke="#63778C" stroke-width="3" fill="none" /></g></g></g></g></g></g></g><g clip-path="url(#21)"><g transform="matrix(0.5964566 0 0 0.5950254 339.9237 480.4748)"><g transform="matrix(1 0 0 1 0 0)"><image x="0" y="0" xlink:href="img_04.png" width="381" height="392" /></g></g></g><g clip-path="url(#22)"><g transform="matrix(0.519685 0 0 0.5206311 356.1456 727.5736)"><g transform="matrix(1 0 0 1 0 0)"><image x="0" y="0" xlink:href="img_05.png" width="254" height="206" /></g></g></g><g clip-path="url(#23)"><g transform="matrix(0.513289 0 0 0.5133495 130.2376 721.7966)"><g transform="matrix(1 0 0 1 0 0)"><image x="0" y="0" xlink:href="img_06.png" width="301" height="206" /></g></g></g><g clip-path="url(#24)"><g><g clip-path="url(#25)"><path id="585" transform="matrix(1 0 0 -1 0 842)" d="M53.5071 426.9543L555.7388 426.9543" stroke="#000000" stroke-width="3" fill="none" /><path id="586" transform="matrix(1 0 0 -1 0 842)" d="M43.7571 426.9543C 43.7571 429.4396 45.77181 431.4543 48.2571 431.4543C 50.74238 431.4543 52.7571 429.4396 52.7571 426.9543C 52.7571 424.4691 50.74238 422.4543 48.2571 422.4543C 45.77181 422.4543 43.7571 424.4691 43.7571 426.9543" stroke="#000000" stroke-width="3" stroke-linecap="round" fill="none" /><path id="587" transform="matrix(1 0 0 -1 0 842)" d="M565.4888 426.9543C 565.4888 424.4691 563.4741 422.4543 560.9888 422.4543C 558.5035 422.4543 556.4888 424.4691 556.4888 426.9543C 556.4888 429.4396 558.5035 431.4543 560.9888 431.4543C 563.4741 431.4543 565.4888 429.4396 565.4888 426.9543" stroke="#000000" stroke-width="3" stroke-linecap="round" fill="none" /></g></g></g><g clip-path="url(#26)"><g transform="matrix(0.05571992 0 0 0.05561992 499.6608 11.00061)"><g transform="matrix(1 0 0 1 0 0)"><image x="0" y="0" xlink:href="img_07.png" width="1521" height="863" /></g></g></g><g clip-path="url(#27)"><g transform="matrix(0.459375 0 0 0.4627659 6.042091 6.7948)"><g transform="matrix(1 0 0 1 0 0)"><image x="0" y="0" xlink:href="img_08.png" width="160" height="141" /></g></g></g></g></g></svg>