<svg xmlns="http://www.w3.org/2000/svg" xmlns:xlink="http://www.w3.org/1999/xlink" id="body_1" preserveAspectRatio="xMinYMin meet" viewBox="0 0 793 1123"><defs><clipPath id="1"><path id="" clip-rule="evenodd" transform="matrix(1 0 0 1 0 0)" d="M0 842L0 -0.25L0 -0.25L595.5 -0.25L595.5 -0.25L595.5 842L595.5 842L0 842z" /></clipPath><clipPath id="2"><path id="" clip-rule="evenodd" transform="matrix(1 0 0 1 0 0)" d="M0 -0.249939L595.5 -0.249939L595.5 -0.249939L595.5 842.0001L595.5 842.0001L0 842.0001z" /></clipPath><clipPath id="3"><path id="" clip-rule="evenodd" transform="matrix(1 0 0 1 0 0)" d="M0 -0.249939L595.5 -0.249939L595.5 -0.249939L595.5 842.0001L595.5 842.0001L0 842.0001z" /></clipPath><clipPath id="4"><path id="" clip-rule="evenodd" transform="matrix(1 0 0 1 0 0)" d="M0 -0.249939L595.5 -0.249939L595.5 -0.249939L595.5 842.0001L595.5 842.0001L0 842.0001z" /></clipPath><clipPath id="5"><path id="" clip-rule="evenodd" transform="matrix(1 0 0 1 0 0)" d="M80.88 18.95007L537.12 18.95007L537.12 18.95007L537.12 823.1901L537.12 823.1901L80.88 823.1901z" /></clipPath><clipPath id="6"><path id="" clip-rule="evenodd" transform="matrix(1 0 0 1 0 0)" d="M81.0154 19.05255L537.0154 19.05255L537.0154 19.05255L537.0154 822.3026L537.0154 822.3026L81.0154 822.3026z" /></clipPath><clipPath id="7"><path id="" clip-rule="evenodd" transform="matrix(1 0 0 1 0 0)" d="M466.4401 23.61578L551.1901 23.61578L551.1901 23.61578L551.1901 71.61578L551.1901 71.61578L466.4401 71.61578z" /></clipPath><clipPath id="8"><path id="" clip-rule="evenodd" transform="matrix(1 0 0 1 0 0)" d="M38.88756 10.32037L128.8876 10.32037L128.8876 10.32037L128.8876 89.82037L128.8876 89.82037L38.88756 89.82037z" /></clipPath><clipPath id="9"><path id="" clip-rule="evenodd" transform="matrix(1 0 0 1 0 0)" d="M0 -0.249939L595.5 -0.249939L595.5 -0.249939L595.5 842.0001L595.5 842.0001L0 842.0001z" /></clipPath><clipPath id="10"><path id="" clip-rule="evenodd" transform="matrix(1 0 0 1 0 0)" d="M0 -0.249939L595.5 -0.249939L595.5 -0.249939L595.5 842.0001L595.5 842.0001L0 842.0001z" /></clipPath><clipPath id="11"><path id="" clip-rule="evenodd" transform="matrix(1 0 0 1 0 0)" d="M244.4723 108.7355L561.6362 108.7355L561.6362 108.7355L561.6362 336.8084L561.6362 336.8084L244.4723 336.8084z" /></clipPath><clipPath id="12"><path id="" clip-rule="evenodd" transform="matrix(1 0 0 1 0 0)" d="M263.9724 108.7355L541.3127 108.7355C 552.0823 108.7355 560.8127 117.4659 560.8127 128.2355L560.8127 128.2355L560.8127 317.3083C 560.8127 328.078 552.0823 336.8084 541.3127 336.8084L541.3127 336.8084L263.9724 336.8084C 253.2028 336.8084 244.4723 328.078 244.4723 317.3083L244.4723 317.3083L244.4723 128.2355C 244.4723 117.4659 253.2028 108.7355 263.9724 108.7355z" /></clipPath><clipPath id="13"><path id="" clip-rule="evenodd" transform="matrix(1 0 0 1 0 0)" d="M0 -0.249939L595.5 -0.249939L595.5 -0.249939L595.5 842.0001L595.5 842.0001L0 842.0001z" /></clipPath><clipPath id="14"><path id="" clip-rule="evenodd" transform="matrix(1 0 0 1 0 0)" d="M0 -0.249939L595.5 -0.249939L595.5 -0.249939L595.5 842.0001L595.5 842.0001L0 842.0001z" /></clipPath><clipPath id="15"><path id="" clip-rule="evenodd" transform="matrix(1 0 0 1 0 0)" d="M0 -0.249939L595.5 -0.249939L595.5 -0.249939L595.5 842.0001L595.5 842.0001L0 842.0001z" /></clipPath><clipPath id="16"><path id="" clip-rule="evenodd" transform="matrix(1 0 0 1 0 0)" d="M200.0214 584.4359L571.342 584.4359L571.342 584.4359L571.342 800.477L571.342 800.477L200.0214 800.477z" /></clipPath><clipPath id="17"><path id="" clip-rule="evenodd" transform="matrix(1 0 0 1 0 0)" d="M219.5214 584.4359L551.7252 584.4359C 562.4948 584.4359 571.2253 593.1663 571.2253 603.9359L571.2253 603.9359L571.2253 780.977C 571.2253 791.7465 562.4948 800.477 551.7252 800.477L551.7252 800.477L219.5214 800.477C 208.7518 800.477 200.0214 791.7465 200.0214 780.977L200.0214 780.977L200.0214 603.9359C 200.0214 593.1663 208.7518 584.4359 219.5214 584.4359z" /></clipPath><clipPath id="18"><path id="" clip-rule="evenodd" transform="matrix(1 0 0 1 0 0)" d="M0 -0.249939L595.5 -0.249939L595.5 -0.249939L595.5 842.0001L595.5 842.0001L0 842.0001z" /></clipPath><clipPath id="19"><path id="" clip-rule="evenodd" transform="matrix(1 0 0 1 0 0)" d="M0 -0.249939L595.5 -0.249939L595.5 -0.249939L595.5 842.0001L595.5 842.0001L0 842.0001z" /></clipPath><clipPath id="20"><path id="" clip-rule="evenodd" transform="matrix(1 0 0 1 0 0)" d="M0 -0.249939L595.5 -0.249939L595.5 -0.249939L595.5 842.0001L595.5 842.0001L0 842.0001z" /></clipPath><clipPath id="21"><path id="" clip-rule="evenodd" transform="matrix(1 0 0 1 0 0)" d="M28.82379 389.5438L371.7426 389.5438L371.7426 389.5438L371.7426 561.6756L371.7426 561.6756L28.82379 561.6756z" /></clipPath><clipPath id="22"><path id="" clip-rule="evenodd" transform="matrix(1 0 0 1 0 0)" d="M48.32378 389.5438L351.7189 389.5438C 362.4885 389.5438 371.219 398.2742 371.219 409.0438L371.219 409.0438L371.219 542.1756C 371.219 552.9451 362.4885 561.6756 351.7189 561.6756L351.7189 561.6756L48.32378 561.6756C 37.55423 561.6756 28.82379 552.9451 28.82379 542.1756L28.82379 542.1756L28.82379 409.0438C 28.82379 398.2742 37.55423 389.5438 48.32378 389.5438z" /></clipPath><clipPath id="23"><path id="" clip-rule="evenodd" transform="matrix(1 0 0 1 0 0)" d="M0 -0.249939L595.5 -0.249939L595.5 -0.249939L595.5 842.0001L595.5 842.0001L0 842.0001z" /></clipPath><clipPath id="24"><path id="" clip-rule="evenodd" transform="matrix(1 0 0 1 0 0)" d="M0 -0.249939L595.5 -0.249939L595.5 -0.249939L595.5 842.0001L595.5 842.0001L0 842.0001z" /></clipPath><clipPath id="25"><path id="" clip-rule="evenodd" transform="matrix(1 0 0 1 0 0)" d="M0 -0.249939L595.5 -0.249939L595.5 -0.249939L595.5 842.0001L595.5 842.0001L0 842.0001z" /></clipPath><clipPath id="26"><path id="" clip-rule="evenodd" transform="matrix(1 0 0 1 0 0)" d="M21.03677 108.7355L218.2868 108.7355L218.2868 108.7355L218.2868 320.9855L218.2868 320.9855L21.03677 320.9855z" /></clipPath><clipPath id="27"><path id="" clip-rule="evenodd" transform="matrix(1 0 0 1 0 0)" d="M21.03677 136.4855L21.03677 292.9284C 21.03677 308.2543 33.46087 320.6784 48.78677 320.6784L48.78677 320.6784L190.4704 320.6784C 205.7963 320.6784 218.2204 308.2543 218.2204 292.9284L218.2204 292.9284L218.2204 136.4855C 218.2204 121.1596 205.7963 108.7355 190.4704 108.7355L190.4704 108.7355L48.78677 108.7355C 33.46087 108.7355 21.03677 121.1596 21.03677 136.4855z" /></clipPath><clipPath id="28"><path id="" clip-rule="evenodd" transform="matrix(1 0 0 1 0 0)" d="M21.03677 108.7355L218.2868 108.7355L218.2868 108.7355L218.2868 320.9855L218.2868 320.9855L21.03677 320.9855z" /></clipPath><clipPath id="29"><path id="" clip-rule="evenodd" transform="matrix(1 0 0 1 0 0)" d="M0 -0.249939L595.5 -0.249939L595.5 -0.249939L595.5 842.0001L595.5 842.0001L0 842.0001z" /></clipPath><clipPath id="30"><path id="" clip-rule="evenodd" transform="matrix(1 0 0 1 0 0)" d="M0 -0.249939L595.5 -0.249939L595.5 -0.249939L595.5 842.0001L595.5 842.0001L0 842.0001z" /></clipPath><clipPath id="31"><path id="" clip-rule="evenodd" transform="matrix(1 0 0 1 0 0)" d="M383.947 425.4597L560.947 425.4597L560.947 425.4597L560.947 525.9597L560.947 525.9597L383.947 525.9597z" /></clipPath><clipPath id="32"><path id="" clip-rule="evenodd" transform="matrix(1 0 0 1 0 0)" d="M383.947 453.2097L383.947 497.9862C 383.947 513.3121 396.3711 525.7363 411.697 525.7363L411.697 525.7363L533.0627 525.7363C 548.3886 525.7363 560.8127 513.3121 560.8127 497.9862L560.8127 497.9862L560.8127 453.2097C 560.8127 437.8838 548.3886 425.4597 533.0627 425.4597L533.0627 425.4597L411.697 425.4597C 396.3711 425.4597 383.947 437.8838 383.947 453.2097z" /></clipPath><clipPath id="33"><path id="" clip-rule="evenodd" transform="matrix(1 0 0 1 0 0)" d="M383.947 425.4597L560.947 425.4597L560.947 425.4597L560.947 525.9597L560.947 525.9597L383.947 525.9597z" /></clipPath><clipPath id="34"><path id="" clip-rule="evenodd" transform="matrix(1 0 0 1 0 0)" d="M0 -0.249939L595.5 -0.249939L595.5 -0.249939L595.5 842.0001L595.5 842.0001L0 842.0001z" /></clipPath><clipPath id="35"><path id="" clip-rule="evenodd" transform="matrix(1 0 0 1 0 0)" d="M0 -0.249939L595.5 -0.249939L595.5 -0.249939L595.5 842.0001L595.5 842.0001L0 842.0001z" /></clipPath><clipPath id="36"><path id="" clip-rule="evenodd" transform="matrix(1 0 0 1 0 0)" d="M28.82379 581.1521L166.8238 581.1521L166.8238 581.1521L166.8238 684.6521L166.8238 684.6521L28.82379 684.6521z" /></clipPath><clipPath id="37"><path id="" clip-rule="evenodd" transform="matrix(1 0 0 1 0 0)" d="M28.82379 608.9021L28.82379 656.5334C 28.82379 671.8593 41.24788 684.2834 56.57379 684.2834L56.57379 684.2834L138.5822 684.2834C 153.9081 684.2834 166.3322 671.8593 166.3322 656.5334L166.3322 656.5334L166.3322 608.9021C 166.3322 593.5762 153.9081 581.1521 138.5822 581.1521L138.5822 581.1521L56.57379 581.1521C 41.24788 581.1521 28.82379 593.5762 28.82379 608.9021z" /></clipPath><clipPath id="38"><path id="" clip-rule="evenodd" transform="matrix(1 0 0 1 0 0)" d="M28.82379 581.1521L166.0738 581.1521L166.0738 581.1521L166.0738 684.6521L166.0738 684.6521L28.82379 684.6521z" /></clipPath><clipPath id="39"><path id="" clip-rule="evenodd" transform="matrix(1 0 0 1 0 0)" d="M0 -0.249939L595.5 -0.249939L595.5 -0.249939L595.5 842.0001L595.5 842.0001L0 842.0001z" /></clipPath><clipPath id="40"><path id="" clip-rule="evenodd" transform="matrix(1 0 0 1 0 0)" d="M0 -0.249939L595.5 -0.249939L595.5 -0.249939L595.5 842.0001L595.5 842.0001L0 842.0001z" /></clipPath><clipPath id="41"><path id="" clip-rule="evenodd" transform="matrix(1 0 0 1 0 0)" d="M28.82379 692.5334L166.8238 692.5334L166.8238 692.5334L166.8238 799.0334L166.8238 799.0334L28.82379 799.0334z" /></clipPath><clipPath id="42"><path id="" clip-rule="evenodd" transform="matrix(1 0 0 1 0 0)" d="M28.82379 720.2834L28.82379 770.8813C 28.82379 786.2072 41.24788 798.6313 56.57379 798.6313L56.57379 798.6313L138.5822 798.6313C 153.9081 798.6313 166.3322 786.2072 166.3322 770.8813L166.3322 770.8813L166.3322 720.2834C 166.3322 704.9575 153.9081 692.5334 138.5822 692.5334L138.5822 692.5334L56.57379 692.5334C 41.24788 692.5334 28.82379 704.9575 28.82379 720.2834z" /></clipPath><clipPath id="43"><path id="" clip-rule="evenodd" transform="matrix(1 0 0 1 0 0)" d="M28.82379 692.5334L166.0738 692.5334L166.0738 692.5334L166.0738 798.2834L166.0738 798.2834L28.82379 798.2834z" /></clipPath></defs><g transform="matrix(1.333333 0 0 1.333333 0 0)"><g clip-path="url(#1)"><g clip-path="url(#2)"><path id="1" transform="matrix(1 0 0 -1 0 842)" d="M0 842.2499L595.4999 842.2499L595.4999 -6.103516E-05L0 -6.103516E-05z" stroke="none" fill="#FFFFFF" fill-rule="nonzero" /></g><g clip-path="url(#3)"><path id="2" transform="matrix(1 0 0 -1 0 842)" d="M0 842.2499L595.4999 842.2499L595.4999 -6.103516E-05L0 -6.103516E-05z" stroke="none" fill="#FFFFFF" fill-rule="nonzero" /></g><g clip-path="url(#4)"><g><g clip-path="url(#5)"><g clip-path="url(#6)"><g transform="matrix(0 0.5281065 -0.5283893 0 537.0154 19.05261)"><g transform="matrix(1 0 0 1 0 0)"><image x="0" y="0" xlink:href="img_01.png" width="1521" height="863" /></g></g></g></g></g></g><g clip-path="url(#7)"><g transform="matrix(0.05571992 0 0 0.05561992 466.4401 23.61584)"><g transform="matrix(1 0 0 1 0 0)"><image x="0" y="0" xlink:href="img_02.png" width="1521" height="863" /></g></g></g><g clip-path="url(#8)"><g transform="matrix(0.4225352 0 0 0.4228723 38.88755 10.32037)"><g transform="matrix(1 0 0 1 0 0)"><image x="0" y="0" xlink:href="img_03.png" width="213" height="188" /></g></g></g><g clip-path="url(#9)"><g clip-path="url(#10)"><g clip-path="url(#11)"><g clip-path="url(#12)"><path id="6" transform="matrix(1 0 0 -1 0 842)" d="M244.4723 733.2645L560.7453 733.2645L560.7453 505.1916L244.4723 505.1916z" stroke="none" fill="#D6E0E5" fill-rule="nonzero" /></g></g></g></g><g clip-path="url(#13)"></g><g clip-path="url(#14)"><g clip-path="url(#15)"><g clip-path="url(#16)"><g clip-path="url(#17)"><path id="350" transform="matrix(1 0 0 -1 0 842)" d="M200.0214 257.5641L571.342 257.5641L571.342 41.52301L200.0214 41.52301z" stroke="none" fill="#D6E0E5" fill-rule="nonzero" /></g></g></g></g><g clip-path="url(#18)"></g><g clip-path="url(#19)"><g clip-path="url(#20)"><g clip-path="url(#21)"><g clip-path="url(#22)"><path id="723" transform="matrix(1 0 0 -1 0 842)" d="M28.82379 452.4562L371.0702 452.4562L371.0702 280.3244L28.82379 280.3244z" stroke="none" fill="#D6E0E5" fill-rule="nonzero" /></g></g></g></g><g clip-path="url(#23)"></g><g clip-path="url(#24)"><g clip-path="url(#25)"><g clip-path="url(#26)"><g clip-path="url(#27)"><g clip-path="url(#28)"><g transform="matrix(0.6553155 0 0 0.6550925 21.03677 108.7355)"><g transform="matrix(1 0 0 1 0 0)"><image x="0" y="0" xlink:href="img_04.png" width="301" height="324" /></g></g></g></g></g></g></g><g clip-path="url(#29)"><g clip-path="url(#30)"><g clip-path="url(#31)"><g clip-path="url(#32)"><g clip-path="url(#33)"><g transform="matrix(0.5636942 0 0 0.5646067 383.947 425.4597)"><g transform="matrix(1 0 0 1 0 0)"><image x="0" y="0" xlink:href="img_05.png" width="314" height="178" /></g></g></g></g></g></g></g><g clip-path="url(#34)"><g clip-path="url(#35)"><g clip-path="url(#36)"><g clip-path="url(#37)"><g clip-path="url(#38)"><g transform="matrix(0.5648148 0 0 0.5686814 28.82379 581.1521)"><g transform="matrix(1 0 0 1 0 0)"><image x="0" y="0" xlink:href="img_06.png" width="243" height="182" /></g></g></g></g></g></g></g><g clip-path="url(#39)"><g clip-path="url(#40)"><g clip-path="url(#41)"><g clip-path="url(#42)"><g clip-path="url(#43)"><g transform="matrix(0.5791138 0 0 0.5778688 28.82379 692.5334)"><g transform="matrix(1 0 0 1 0 0)"><image x="0" y="0" xlink:href="img_07.png" width="237" height="183" /></g></g></g></g></g></g></g></g></g></svg>