<svg xmlns="http://www.w3.org/2000/svg" xmlns:xlink="http://www.w3.org/1999/xlink" id="body_1" preserveAspectRatio="xMinYMin meet" viewBox="0 0 793 1123"><defs><clipPath id="1"><path id="" clip-rule="evenodd" transform="matrix(1 0 0 1 0 0)" d="M0 842L0 -0.25L0 -0.25L595.5 -0.25L595.5 -0.25L595.5 842L595.5 842L0 842z" /></clipPath><clipPath id="2"><path id="" clip-rule="evenodd" transform="matrix(1 0 0 1 0 0)" d="M0 -0.249939L595.5 -0.249939L595.5 -0.249939L595.5 842.0001L595.5 842.0001L0 842.0001z" /></clipPath><clipPath id="3"><path id="" clip-rule="evenodd" transform="matrix(1 0 0 1 0 0)" d="M0 -0.249939L595.5 -0.249939L595.5 -0.249939L595.5 842.0001L595.5 842.0001L0 842.0001z" /></clipPath><clipPath id="4"><path id="" clip-rule="evenodd" transform="matrix(1 0 0 1 0 0)" d="M0 -0.249939L595.5 -0.249939L595.5 -0.249939L595.5 842.0001L595.5 842.0001L0 842.0001z" /></clipPath><clipPath id="5"><path id="" clip-rule="evenodd" transform="matrix(1 0 0 1 0 0)" d="M78.71999 30.71008L522.24 30.71008L522.24 30.71008L522.24 810.9501L522.24 810.9501L78.71999 810.9501z" /></clipPath><clipPath id="6"><path id="" clip-rule="evenodd" transform="matrix(1 0 0 1 0 0)" d="M79.51787 30.75183L522.0178 30.75183L522.0178 30.75183L522.0178 810.7518L522.0178 810.7518L79.51787 810.7518z" /></clipPath><clipPath id="7"><path id="" clip-rule="evenodd" transform="matrix(1 0 0 1 0 0)" d="M304.3272 558.2202L581.8272 558.2202L581.8272 558.2202L581.8272 807.2202L581.8272 807.2202L304.3272 807.2202z" /></clipPath><clipPath id="8"><path id="" clip-rule="evenodd" transform="matrix(1 0 0 1 0 0)" d="M331.7734 782.8646L539.5234 782.8646L539.5234 782.8646L539.5234 786.6146L539.5234 786.6146L331.7734 786.6146z" /></clipPath><clipPath id="9"><path id="" clip-rule="evenodd" transform="matrix(1 0 0 1 0 0)" d="M0 -0.249939L595.5 -0.249939L595.5 -0.249939L595.5 842.0001L595.5 842.0001L0 842.0001z" /></clipPath><clipPath id="10"><path id="" clip-rule="evenodd" transform="matrix(1 0 0 1 0 0)" d="M0 -0.249939L595.5 -0.249939L595.5 -0.249939L595.5 842.0001L595.5 842.0001L0 842.0001z" /></clipPath><clipPath id="11"><path id="" clip-rule="evenodd" transform="matrix(1 0 0 1 0 0)" d="M323.4004 600.3859L428.3791 600.3859L428.3791 600.3859L428.3791 705.3646L428.3791 705.3646L323.4004 705.3646z" /></clipPath><clipPath id="12"><path id="" clip-rule="evenodd" transform="matrix(1 0 0 1 0 0)" d="M336.1504 600.3859C 329.1079 600.3859 323.4004 606.0934 323.4004 613.1359L323.4004 613.1359L323.4004 692.2084C 323.4004 699.2359 329.0854 704.9359 336.1129 704.9584L336.1129 704.9584L415.2979 704.9584C 421.9879 704.9359 427.4629 699.7684 427.9729 693.2059L427.9729 693.2059L427.9729 612.1384C 427.4629 605.5609 421.9654 600.3859 415.2604 600.3859L415.2604 600.3859L336.1504 600.3859z" /></clipPath><clipPath id="13"><path id="" clip-rule="evenodd" transform="matrix(1 0 0 1 0 0)" d="M323.4004 600.3859L427.9706 600.3859L427.9706 600.3859L427.9706 704.9562L427.9706 704.9562L323.4004 704.9562z" /></clipPath><clipPath id="14"><path id="" clip-rule="evenodd" transform="matrix(1 0 0 1 0 0)" d="M0 -0.249939L595.5 -0.249939L595.5 -0.249939L595.5 842.0001L595.5 842.0001L0 842.0001z" /></clipPath><clipPath id="15"><path id="" clip-rule="evenodd" transform="matrix(1 0 0 1 0 0)" d="M0 -0.249939L595.5 -0.249939L595.5 -0.249939L595.5 842.0001L595.5 842.0001L0 842.0001z" /></clipPath><clipPath id="16"><path id="" clip-rule="evenodd" transform="matrix(1 0 0 1 0 0)" d="M451.7504 668.5467L558.2327 668.5467L558.2327 668.5467L558.2327 774.6146L558.2327 774.6146L451.7504 774.6146z" /></clipPath><clipPath id="17"><path id="" clip-rule="evenodd" transform="matrix(1 0 0 1 0 0)" d="M464.4704 668.5467C 457.4429 668.5616 451.7504 674.2692 451.7504 681.2967L451.7504 681.2967L451.7504 761.8617C 451.7504 768.9042 457.4579 774.6117 464.5004 774.6117L464.5004 774.6117L545.1104 774.6117C 551.8154 774.6117 557.3129 769.4366 557.8229 762.8666L557.8229 762.8666L557.8229 680.2917C 557.3054 673.7292 551.8304 668.5616 545.1404 668.5467L545.1404 668.5467L464.4704 668.5467z" /></clipPath><clipPath id="18"><path id="" clip-rule="evenodd" transform="matrix(1 0 0 1 0 0)" d="M451.7504 668.5467L557.8184 668.5467L557.8184 668.5467L557.8184 774.6146L557.8184 774.6146L451.7504 774.6146z" /></clipPath><clipPath id="19"><path id="" clip-rule="evenodd" transform="matrix(1 0 0 1 0 0)" d="M481.518 10.7713L582.018 10.7713L582.018 10.7713L582.018 67.7713L582.018 67.7713L481.518 67.7713z" /></clipPath><clipPath id="20"><path id="" clip-rule="evenodd" transform="matrix(1 0 0 1 0 0)" d="M38.97876 149.4778L284.9788 149.4778L284.9788 149.4778L284.9788 434.4778L284.9788 434.4778L38.97876 434.4778z" /></clipPath><clipPath id="21"><path id="" clip-rule="evenodd" transform="matrix(1 0 0 1 0 0)" d="M40.64989 401.3354L269.3999 401.3354L269.3999 401.3354L269.3999 405.0854L269.3999 405.0854L40.64989 405.0854z" /></clipPath><clipPath id="22"><path id="" clip-rule="evenodd" transform="matrix(1 0 0 1 0 0)" d="M0 -0.249939L595.5 -0.249939L595.5 -0.249939L595.5 842.0001L595.5 842.0001L0 842.0001z" /></clipPath><clipPath id="23"><path id="" clip-rule="evenodd" transform="matrix(1 0 0 1 0 0)" d="M0 -0.249939L595.5 -0.249939L595.5 -0.249939L595.5 842.0001L595.5 842.0001L0 842.0001z" /></clipPath><clipPath id="24"><path id="" clip-rule="evenodd" transform="matrix(1 0 0 1 0 0)" d="M53.85382 241.413L270.3776 241.413L270.3776 241.413L270.3776 380.3355L270.3776 380.3355L53.85382 380.3355z" /></clipPath><clipPath id="25"><path id="" clip-rule="evenodd" transform="matrix(1 0 0 1 0 0)" d="M66.60382 241.413C 63.22132 241.413 59.98132 242.7555 57.58882 245.1479C 55.19632 247.5405 53.85382 250.7805 53.85382 254.163L53.85382 254.163L53.85382 367.5855C 53.85382 370.968 55.19632 374.208 57.58882 376.6005C 59.98132 378.993 63.22132 380.3355 66.60382 380.3355L66.60382 380.3355L257.3813 380.3355C 260.7638 380.3355 264.0038 378.993 266.3963 376.6005C 268.7888 374.208 270.1313 370.968 270.1313 367.5855L270.1313 367.5855L270.1313 254.163C 270.1313 250.7805 268.7888 247.5405 266.3963 245.1479C 264.0038 242.7555 260.7638 241.413 257.3813 241.413L257.3813 241.413L66.60382 241.413z" /></clipPath><clipPath id="26"><path id="" clip-rule="evenodd" transform="matrix(1 0 0 1 0 0)" d="M53.85382 241.413L270.3776 241.413L270.3776 241.413L270.3776 380.3355L270.3776 380.3355L53.85382 380.3355z" /></clipPath><clipPath id="27"><path id="" clip-rule="evenodd" transform="matrix(1 0 0 1 0 0)" d="M0 -0.249939L595.5 -0.249939L595.5 -0.249939L595.5 842.0001L595.5 842.0001L0 842.0001z" /></clipPath><clipPath id="28"><path id="" clip-rule="evenodd" transform="matrix(1 0 0 1 0 0)" d="M0 -0.249939L595.5 -0.249939L595.5 -0.249939L595.5 842.0001L595.5 842.0001L0 842.0001z" /></clipPath><clipPath id="29"><path id="" clip-rule="evenodd" transform="matrix(1 0 0 1 0 0)" d="M63.6071 227.2545L112.9332 271.1058L112.9332 271.1058L88.51598 298.5714L88.51598 298.5714L39.1899 254.7201L39.1899 254.7201L63.6071 227.2545z" /></clipPath><clipPath id="30"><path id="" clip-rule="evenodd" transform="matrix(1 0 0 1 0 0)" d="M38.97967 254.9566L88.30576 298.8079L88.30576 298.8079L112.723 271.3423L112.723 271.3423L63.39688 227.491L63.39688 227.491L38.97967 254.9566z" /></clipPath><clipPath id="31"><path id="" clip-rule="evenodd" transform="matrix(1 0 0 1 0 0)" d="M0 -0.249939L595.5 -0.249939L595.5 -0.249939L595.5 842.0001L595.5 842.0001L0 842.0001z" /></clipPath><clipPath id="32"><path id="" clip-rule="evenodd" transform="matrix(1 0 0 1 0 0)" d="M0 -0.249939L595.5 -0.249939L595.5 -0.249939L595.5 842.0001L595.5 842.0001L0 842.0001z" /></clipPath><clipPath id="33"><path id="" clip-rule="evenodd" transform="matrix(1 0 0 1 0 0)" d="M49.46678 161.2466L89.96677 161.2466L89.96677 161.2466L89.96677 183.7466L89.96677 183.7466L49.46678 183.7466z" /></clipPath><clipPath id="34"><path id="" clip-rule="evenodd" transform="matrix(1 0 0 1 0 0)" d="M49.46678 172.2899C 49.46678 175.2187 50.63025 178.0275 52.70125 180.0986C 54.77226 182.1696 57.58114 183.333 60.50998 183.333L60.50998 183.333L78.72196 183.333C 81.6508 183.333 84.45968 182.1696 86.53069 180.0986C 88.60168 178.0275 89.76516 175.2187 89.76516 172.2899C 89.76516 169.361 88.60168 166.5521 86.53069 164.4811C 84.45968 162.4101 81.6508 161.2466 78.72196 161.2466L78.72196 161.2466L60.50998 161.2466C 57.58114 161.2466 54.77226 162.4101 52.70125 164.4811C 50.63025 166.5521 49.46678 169.361 49.46678 172.2899z" /></clipPath><clipPath id="35"><path id="" clip-rule="evenodd" transform="matrix(1 0 0 1 0 0)" d="M50.21678 161.9966L89.21677 161.9966L89.21677 161.9966L89.21677 182.9966L89.21677 182.9966L50.21678 182.9966z" /></clipPath><clipPath id="36"><path id="" clip-rule="evenodd" transform="matrix(1 0 0 1 0 0)" d="M60.50998 162.1466L78.72196 162.1466C 81.4121 162.1466 83.99207 163.2153 85.89429 165.1175C 87.79651 167.0197 88.86516 169.5997 88.86516 172.2899C 88.86516 174.98 87.79651 177.5599 85.89429 179.4622C 83.99207 181.3644 81.4121 182.433 78.72196 182.433L78.72196 182.433L60.50998 182.433C 57.81983 182.433 55.23987 181.3644 53.33765 179.4622C 51.43543 177.5599 50.36678 174.98 50.36678 172.2899C 50.36678 169.5997 51.43543 167.0197 53.33765 165.1175C 55.23987 163.2153 57.81983 162.1466 60.50998 162.1466z" /></clipPath><clipPath id="37"><path id="" clip-rule="evenodd" transform="matrix(1 0 0 1 0 0)" d="M50.21678 161.8906L89.21677 161.8906L89.21677 161.8906L89.21677 183.6406L89.21677 183.6406L50.21678 183.6406z" /></clipPath><clipPath id="38"><path id="" clip-rule="evenodd" transform="matrix(1 0 0 1 0 0)" d="M49.47068 152.1914L89.97069 152.1914L89.97069 152.1914L89.97069 192.6914L89.97069 192.6914L49.47068 192.6914z" /></clipPath><clipPath id="39"><path id="" clip-rule="evenodd" transform="matrix(1 0 0 1 0 0)" d="M0 -0.249939L595.5 -0.249939L595.5 -0.249939L595.5 842.0001L595.5 842.0001L0 842.0001z" /></clipPath><clipPath id="40"><path id="" clip-rule="evenodd" transform="matrix(1 0 0 1 0 0)" d="M0 -0.249939L595.5 -0.249939L595.5 -0.249939L595.5 842.0001L595.5 842.0001L0 842.0001z" /></clipPath><clipPath id="41"><path id="" clip-rule="evenodd" transform="matrix(1 0 0 1 0 0)" d="M49.46678 161.2466L89.96677 161.2466L89.96677 161.2466L89.96677 183.7466L89.96677 183.7466L49.46678 183.7466z" /></clipPath><clipPath id="42"><path id="" clip-rule="evenodd" transform="matrix(1 0 0 1 0 0)" d="M49.46678 172.2899C 49.46678 175.2187 50.63025 178.0275 52.70125 180.0986C 54.77226 182.1696 57.58114 183.333 60.50998 183.333L60.50998 183.333L78.72196 183.333C 81.6508 183.333 84.45968 182.1696 86.53069 180.0986C 88.60168 178.0275 89.76516 175.2187 89.76516 172.2899C 89.76516 169.361 88.60168 166.5521 86.53069 164.4811C 84.45968 162.4101 81.6508 161.2466 78.72196 161.2466L78.72196 161.2466L60.50998 161.2466C 57.58114 161.2466 54.77226 162.4101 52.70125 164.4811C 50.63025 166.5521 49.46678 169.361 49.46678 172.2899z" /></clipPath><clipPath id="43"><path id="" clip-rule="evenodd" transform="matrix(1 0 0 1 0 0)" d="M49.46678 161.2466L89.96677 161.2466L89.96677 161.2466L89.96677 182.9966L89.96677 182.9966L49.46678 182.9966z" /></clipPath><clipPath id="44"><path id="" clip-rule="evenodd" transform="matrix(1 0 0 1 0 0)" d="M49.46678 161.2466L89.9574 161.2466L89.9574 161.2466L89.9574 183.7382L89.9574 183.7382L49.46678 183.7382z" /></clipPath><clipPath id="45"><path id="" clip-rule="evenodd" transform="matrix(1 0 0 1 0 0)" d="M49.46678 172.2857C 49.46678 175.2134 50.62998 178.0212 52.70051 180.0915C 54.77103 182.1617 57.57926 183.3248 60.50742 183.3248L60.50742 183.3248L78.71519 183.3248C 81.64336 183.3248 84.45158 182.1617 86.52211 180.0915C 88.59263 178.0212 89.75584 175.2134 89.75584 172.2857C 89.75584 169.358 88.59263 166.5501 86.52211 164.4799C 84.45158 162.4097 81.64336 161.2466 78.71519 161.2466L78.71519 161.2466L60.50742 161.2466C 57.57926 161.2466 54.77103 162.4097 52.70051 164.4799C 50.62998 166.5501 49.46678 169.358 49.46678 172.2857z" /></clipPath><clipPath id="46"><path id="" clip-rule="evenodd" transform="matrix(1 0 0 1 0 0)" d="M34.17027 475.5045L276.4203 475.5045L276.4203 475.5045L276.4203 717.0045L276.4203 717.0045L34.17027 717.0045z" /></clipPath><clipPath id="47"><path id="" clip-rule="evenodd" transform="matrix(1 0 0 1 0 0)" d="M0 -0.249939L595.5 -0.249939L595.5 -0.249939L595.5 842.0001L595.5 842.0001L0 842.0001z" /></clipPath><clipPath id="48"><path id="" clip-rule="evenodd" transform="matrix(1 0 0 1 0 0)" d="M0 -0.249939L595.5 -0.249939L595.5 -0.249939L595.5 842.0001L595.5 842.0001L0 842.0001z" /></clipPath><clipPath id="49"><path id="" clip-rule="evenodd" transform="matrix(1 0 0 1 0 0)" d="M54.34301 540.513L266.5662 540.513L266.5662 540.513L266.5662 676.6763L266.5662 676.6763L54.34301 676.6763z" /></clipPath><clipPath id="50"><path id="" clip-rule="evenodd" transform="matrix(1 0 0 1 0 0)" d="M67.09301 540.513C 60.05051 540.513 54.34301 546.2205 54.34301 553.263L54.34301 553.263L54.34301 663.9255C 54.34301 670.968 60.05051 676.6755 67.09301 676.6755L67.09301 676.6755L253.573 676.6755C 260.6155 676.6755 266.323 670.968 266.323 663.9255L266.323 663.9255L266.323 553.263C 266.323 546.2205 260.6155 540.513 253.573 540.513L253.573 540.513L67.09301 540.513z" /></clipPath><clipPath id="51"><path id="" clip-rule="evenodd" transform="matrix(1 0 0 1 0 0)" d="M54.34301 540.513L266.5662 540.513L266.5662 540.513L266.5662 676.6763L266.5662 676.6763L54.34301 676.6763z" /></clipPath><clipPath id="52"><path id="" clip-rule="evenodd" transform="matrix(1 0 0 1 0 0)" d="M0 -0.249939L595.5 -0.249939L595.5 -0.249939L595.5 842.0001L595.5 842.0001L0 842.0001z" /></clipPath><clipPath id="53"><path id="" clip-rule="evenodd" transform="matrix(1 0 0 1 0 0)" d="M0 -0.249939L595.5 -0.249939L595.5 -0.249939L595.5 842.0001L595.5 842.0001L0 842.0001z" /></clipPath><clipPath id="54"><path id="" clip-rule="evenodd" transform="matrix(1 0 0 1 0 0)" d="M0 -0.249939L595.5 -0.249939L595.5 -0.249939L595.5 842.0001L595.5 842.0001L0 842.0001z" /></clipPath><clipPath id="55"><path id="" clip-rule="evenodd" transform="matrix(1 0 0 1 0 0)" d="M49.46678 506.8099L89.96677 506.8099L89.96677 506.8099L89.96677 531.5599L89.96677 531.5599L49.46678 531.5599z" /></clipPath><clipPath id="56"><path id="" clip-rule="evenodd" transform="matrix(1 0 0 1 0 0)" d="M49.46678 519.1805C 49.46678 522.4614 50.7701 525.6078 53.09003 527.9277C 55.40995 530.2477 58.55645 531.551 61.83733 531.551L61.83733 531.551L77.39461 531.551C 80.67549 531.551 83.82198 530.2477 86.14191 527.9277C 88.46184 525.6078 89.76516 522.4614 89.76516 519.1805C 89.76516 515.8996 88.46184 512.7531 86.14191 510.4332C 83.82198 508.1132 80.67549 506.8099 77.39461 506.8099L77.39461 506.8099L61.83733 506.8099C 58.55645 506.8099 55.40995 508.1132 53.09003 510.4332C 50.7701 512.7531 49.46678 515.8996 49.46678 519.1805z" /></clipPath><clipPath id="57"><path id="" clip-rule="evenodd" transform="matrix(1 0 0 1 0 0)" d="M50.21678 507.5599L89.21677 507.5599L89.21677 507.5599L89.21677 530.8099L89.21677 530.8099L50.21678 530.8099z" /></clipPath><clipPath id="58"><path id="" clip-rule="evenodd" transform="matrix(1 0 0 1 0 0)" d="M61.83733 507.7099L77.39461 507.7099C 80.4368 507.7099 83.35437 508.9184 85.50552 511.0696C 87.65666 513.2207 88.86516 516.1383 88.86516 519.1805C 88.86516 522.2227 87.65666 525.1402 85.50552 527.2914C 83.35437 529.4425 80.4368 530.651 77.39461 530.651L77.39461 530.651L61.83733 530.651C 58.79515 530.651 55.87757 529.4425 53.72643 527.2914C 51.57528 525.1402 50.36678 522.2227 50.36678 519.1805C 50.36678 516.1383 51.57528 513.2207 53.72643 511.0696C 55.87757 508.9184 58.79515 507.7099 61.83733 507.7099z" /></clipPath><clipPath id="59"><path id="" clip-rule="evenodd" transform="matrix(1 0 0 1 0 0)" d="M50.21678 507.2813L89.21677 507.2813L89.21677 507.2813L89.21677 531.2813L89.21677 531.2813L50.21678 531.2813z" /></clipPath><clipPath id="60"><path id="" clip-rule="evenodd" transform="matrix(1 0 0 1 0 0)" d="M49.47068 499.0743L89.97069 499.0743L89.97069 499.0743L89.97069 539.5743L89.97069 539.5743L49.47068 539.5743z" /></clipPath><clipPath id="61"><path id="" clip-rule="evenodd" transform="matrix(1 0 0 1 0 0)" d="M0 -0.249939L595.5 -0.249939L595.5 -0.249939L595.5 842.0001L595.5 842.0001L0 842.0001z" /></clipPath><clipPath id="62"><path id="" clip-rule="evenodd" transform="matrix(1 0 0 1 0 0)" d="M0 -0.249939L595.5 -0.249939L595.5 -0.249939L595.5 842.0001L595.5 842.0001L0 842.0001z" /></clipPath><clipPath id="63"><path id="" clip-rule="evenodd" transform="matrix(1 0 0 1 0 0)" d="M49.46678 506.8099L89.96677 506.8099L89.96677 506.8099L89.96677 531.5599L89.96677 531.5599L49.46678 531.5599z" /></clipPath><clipPath id="64"><path id="" clip-rule="evenodd" transform="matrix(1 0 0 1 0 0)" d="M49.46678 519.1805C 49.46678 522.4614 50.7701 525.6078 53.09003 527.9277C 55.40995 530.2477 58.55645 531.551 61.83733 531.551L61.83733 531.551L77.39461 531.551C 80.67549 531.551 83.82198 530.2477 86.14191 527.9277C 88.46184 525.6078 89.76516 522.4614 89.76516 519.1805C 89.76516 515.8996 88.46184 512.7531 86.14191 510.4332C 83.82198 508.1132 80.67549 506.8099 77.39461 506.8099L77.39461 506.8099L61.83733 506.8099C 58.55645 506.8099 55.40995 508.1132 53.09003 510.4332C 50.7701 512.7531 49.46678 515.8996 49.46678 519.1805z" /></clipPath><clipPath id="65"><path id="" clip-rule="evenodd" transform="matrix(1 0 0 1 0 0)" d="M49.46678 506.8099L89.96677 506.8099L89.96677 506.8099L89.96677 531.5599L89.96677 531.5599L49.46678 531.5599z" /></clipPath><clipPath id="66"><path id="" clip-rule="evenodd" transform="matrix(1 0 0 1 0 0)" d="M49.46678 506.8099L89.9574 506.8099L89.9574 506.8099L89.9574 531.5571L89.9574 531.5571L49.46678 531.5571z" /></clipPath><clipPath id="67"><path id="" clip-rule="evenodd" transform="matrix(1 0 0 1 0 0)" d="M49.46678 519.1791C 49.46678 522.4595 50.7698 525.6057 53.08919 527.9254C 55.40858 530.2451 58.55435 531.5482 61.83447 531.5482L61.83447 531.5482L77.38815 531.5482C 80.66827 531.5482 83.81403 530.2451 86.13342 527.9254C 88.45281 525.6057 89.75584 522.4595 89.75584 519.1791C 89.75584 515.8986 88.45281 512.7524 86.13342 510.4328C 83.81403 508.1131 80.66827 506.8099 77.38815 506.8099L77.38815 506.8099L61.83447 506.8099C 58.55435 506.8099 55.40858 508.1131 53.08919 510.4328C 50.7698 512.7524 49.46678 515.8986 49.46678 519.1791z" /></clipPath><clipPath id="68"><path id="" clip-rule="evenodd" transform="matrix(1 0 0 1 0 0)" d="M0 -0.249939L595.5 -0.249939L595.5 -0.249939L595.5 842.0001L595.5 842.0001L0 842.0001z" /></clipPath><clipPath id="69"><path id="" clip-rule="evenodd" transform="matrix(1 0 0 1 0 0)" d="M0 -0.249939L595.5 -0.249939L595.5 -0.249939L595.5 842.0001L595.5 842.0001L0 842.0001z" /></clipPath><clipPath id="70"><path id="" clip-rule="evenodd" transform="matrix(1 0 0 1 0 0)" d="M0 -0.249939L595.5 -0.249939L595.5 -0.249939L595.5 842.0001L595.5 842.0001L0 842.0001z" /></clipPath><clipPath id="71"><path id="" clip-rule="evenodd" transform="matrix(1 0 0 1 0 0)" d="M327.8665 567.7534L369.8665 567.7534L369.8665 567.7534L369.8665 592.5034L369.8665 592.5034L327.8665 592.5034z" /></clipPath><clipPath id="72"><path id="" clip-rule="evenodd" transform="matrix(1 0 0 1 0 0)" d="M327.8665 580.1239C 327.8665 583.4048 329.1698 586.5513 331.4898 588.8712C 333.8097 591.1912 336.9562 592.4944 340.2371 592.4944L340.2371 592.4944L357.3411 592.4944C 360.622 592.4944 363.7685 591.1912 366.0884 588.8712C 368.4084 586.5513 369.7117 583.4048 369.7117 580.1239C 369.7117 576.843 368.4084 573.6965 366.0884 571.3766C 363.7685 569.0566 360.622 567.7534 357.3411 567.7534L357.3411 567.7534L340.2371 567.7534C 336.9562 567.7534 333.8097 569.0566 331.4898 571.3766C 329.1698 573.6965 327.8665 576.843 327.8665 580.1239z" /></clipPath><clipPath id="73"><path id="" clip-rule="evenodd" transform="matrix(1 0 0 1 0 0)" d="M328.6165 568.5034L369.1165 568.5034L369.1165 568.5034L369.1165 591.7534L369.1165 591.7534L328.6165 591.7534z" /></clipPath><clipPath id="74"><path id="" clip-rule="evenodd" transform="matrix(1 0 0 1 0 0)" d="M340.2371 568.6533L357.3411 568.6533C 360.3833 568.6533 363.3009 569.8618 365.452 572.013C 367.6032 574.1641 368.8117 577.0817 368.8117 580.1239C 368.8117 583.1661 367.6032 586.0836 365.452 588.2348C 363.3009 590.3859 360.3833 591.5944 357.3411 591.5944L357.3411 591.5944L340.2371 591.5944C 337.1949 591.5944 334.2773 590.3859 332.1262 588.2348C 329.975 586.0836 328.7665 583.1661 328.7665 580.1239C 328.7665 577.0817 329.975 574.1641 332.1262 572.013C 334.2773 569.8618 337.1949 568.6533 340.2371 568.6533z" /></clipPath><clipPath id="75"><path id="" clip-rule="evenodd" transform="matrix(1 0 0 1 0 0)" d="M328.6165 568.2013L369.1165 568.2013L369.1165 568.2013L369.1165 592.2013L369.1165 592.2013L328.6165 592.2013z" /></clipPath><clipPath id="76"><path id="" clip-rule="evenodd" transform="matrix(1 0 0 1 0 0)" d="M327.8694 559.2365L369.8694 559.2365L369.8694 559.2365L369.8694 601.2365L369.8694 601.2365L327.8694 601.2365z" /></clipPath><clipPath id="77"><path id="" clip-rule="evenodd" transform="matrix(1 0 0 1 0 0)" d="M0 -0.249939L595.5 -0.249939L595.5 -0.249939L595.5 842.0001L595.5 842.0001L0 842.0001z" /></clipPath><clipPath id="78"><path id="" clip-rule="evenodd" transform="matrix(1 0 0 1 0 0)" d="M0 -0.249939L595.5 -0.249939L595.5 -0.249939L595.5 842.0001L595.5 842.0001L0 842.0001z" /></clipPath><clipPath id="79"><path id="" clip-rule="evenodd" transform="matrix(1 0 0 1 0 0)" d="M327.8665 567.7534L369.8665 567.7534L369.8665 567.7534L369.8665 592.5034L369.8665 592.5034L327.8665 592.5034z" /></clipPath><clipPath id="80"><path id="" clip-rule="evenodd" transform="matrix(1 0 0 1 0 0)" d="M327.8665 580.1239C 327.8665 583.4048 329.1698 586.5513 331.4898 588.8712C 333.8097 591.1912 336.9562 592.4944 340.2371 592.4944L340.2371 592.4944L357.3411 592.4944C 360.622 592.4944 363.7685 591.1912 366.0884 588.8712C 368.4084 586.5513 369.7117 583.4048 369.7117 580.1239C 369.7117 576.843 368.4084 573.6965 366.0884 571.3766C 363.7685 569.0566 360.622 567.7534 357.3411 567.7534L357.3411 567.7534L340.2371 567.7534C 336.9562 567.7534 333.8097 569.0566 331.4898 571.3766C 329.1698 573.6965 327.8665 576.843 327.8665 580.1239z" /></clipPath><clipPath id="81"><path id="" clip-rule="evenodd" transform="matrix(1 0 0 1 0 0)" d="M327.8665 567.7534L369.8665 567.7534L369.8665 567.7534L369.8665 592.5034L369.8665 592.5034L327.8665 592.5034z" /></clipPath><clipPath id="82"><path id="" clip-rule="evenodd" transform="matrix(1 0 0 1 0 0)" d="M327.8665 567.7534L369.8572 567.7534L369.8572 567.7534L369.8572 592.5005L369.8572 592.5005L327.8665 592.5005z" /></clipPath><clipPath id="83"><path id="" clip-rule="evenodd" transform="matrix(1 0 0 1 0 0)" d="M327.8665 580.1225C 327.8665 583.403 329.1696 586.5491 331.489 588.8688C 333.8084 591.1885 336.9542 592.4916 340.2343 592.4916L340.2343 592.4916L357.3346 592.4916C 360.6147 592.4916 363.7606 591.1885 366.08 588.8688C 368.3994 586.5491 369.7025 583.403 369.7025 580.1225C 369.7025 576.842 368.3994 573.6959 366.08 571.3762C 363.7606 569.0565 360.6147 567.7534 357.3346 567.7534L357.3346 567.7534L340.2343 567.7534C 336.9542 567.7534 333.8084 569.0565 331.489 571.3762C 329.1696 573.6959 327.8665 576.842 327.8665 580.1225z" /></clipPath><clipPath id="84"><path id="" clip-rule="evenodd" transform="matrix(1 0 0 1 0 0)" d="M0 -0.249939L595.5 -0.249939L595.5 -0.249939L595.5 842.0001L595.5 842.0001L0 842.0001z" /></clipPath><clipPath id="85"><path id="" clip-rule="evenodd" transform="matrix(1 0 0 1 0 0)" d="M0 -0.249939L595.5 -0.249939L595.5 -0.249939L595.5 842.0001L595.5 842.0001L0 842.0001z" /></clipPath><clipPath id="86"><path id="" clip-rule="evenodd" transform="matrix(1 0 0 1 0 0)" d="M0 -0.249939L595.5 -0.249939L595.5 -0.249939L595.5 842.0001L595.5 842.0001L0 842.0001z" /></clipPath><clipPath id="87"><path id="" clip-rule="evenodd" transform="matrix(1 0 0 1 0 0)" d="M330.1038 170.1678L536.6246 170.1678L536.6246 170.1678L536.6246 302.6725L536.6246 302.6725L330.1038 302.6725z" /></clipPath><clipPath id="88"><path id="" clip-rule="evenodd" transform="matrix(1 0 0 1 0 0)" d="M342.2648 170.1678C 339.0385 170.1678 335.9482 171.4484 333.6662 173.7303C 331.3843 176.0123 330.1038 179.1027 330.1038 182.3289L330.1038 182.3289L330.1038 290.5115C 330.1038 293.7377 331.3843 296.828 333.6662 299.11C 335.9482 301.392 339.0385 302.6725 342.2648 302.6725L342.2648 302.6725L524.2287 302.6725C 527.455 302.6725 530.5453 301.392 532.8272 299.11C 535.1093 296.828 536.3896 293.7377 536.3896 290.5115L536.3896 290.5115L536.3896 182.3289C 536.3896 179.1027 535.1093 176.0123 532.8272 173.7303C 530.5453 171.4484 527.455 170.1678 524.2287 170.1678L524.2287 170.1678L342.2648 170.1678z" /></clipPath><clipPath id="89"><path id="" clip-rule="evenodd" transform="matrix(1 0 0 1 0 0)" d="M330.1038 170.1678L536.6246 170.1678L536.6246 170.1678L536.6246 302.6725L536.6246 302.6725L330.1038 302.6725z" /></clipPath><clipPath id="90"><path id="" clip-rule="evenodd" transform="matrix(1 0 0 1 0 0)" d="M0 -0.249939L595.5 -0.249939L595.5 -0.249939L595.5 842.0001L595.5 842.0001L0 842.0001z" /></clipPath><clipPath id="91"><path id="" clip-rule="evenodd" transform="matrix(1 0 0 1 0 0)" d="M0 -0.249939L595.5 -0.249939L595.5 -0.249939L595.5 842.0001L595.5 842.0001L0 842.0001z" /></clipPath><clipPath id="92"><path id="" clip-rule="evenodd" transform="matrix(1 0 0 1 0 0)" d="M314.6176 85.16321L562.9608 85.16321L562.9608 85.16321L562.9608 534.5L562.9608 534.5L314.6176 534.5z" /></clipPath><clipPath id="93"><path id="" clip-rule="evenodd" transform="matrix(1 0 0 1 0 0)" d="M343.334 86.12952L535.2108 86.12952C 550.5367 86.12952 562.9608 98.55359 562.9608 113.8795L562.9608 113.8795L562.9608 505.8612C 562.9608 521.1871 550.5367 533.6113 535.2108 533.6113L535.2108 533.6113L343.334 533.6113C 328.0081 533.6113 315.584 521.1871 315.584 505.8612L315.584 505.8612L315.584 113.8795C 315.584 98.55359 328.0081 86.12952 343.334 86.12952z" /></clipPath><clipPath id="94"><path id="" clip-rule="evenodd" transform="matrix(1 0 0 1 0 0)" d="M317.3895 501.3288L561.1395 501.3288L561.1395 501.3288L561.1395 504.3288L561.1395 504.3288L317.3895 504.3288z" /></clipPath><clipPath id="95"><path id="" clip-rule="evenodd" transform="matrix(1 0 0 1 0 0)" d="M0 -0.249939L595.5 -0.249939L595.5 -0.249939L595.5 842.0001L595.5 842.0001L0 842.0001z" /></clipPath><clipPath id="96"><path id="" clip-rule="evenodd" transform="matrix(1 0 0 1 0 0)" d="M0 -0.249939L595.5 -0.249939L595.5 -0.249939L595.5 842.0001L595.5 842.0001L0 842.0001z" /></clipPath><clipPath id="97"><path id="" clip-rule="evenodd" transform="matrix(1 0 0 1 0 0)" d="M0 -0.249939L595.5 -0.249939L595.5 -0.249939L595.5 842.0001L595.5 842.0001L0 842.0001z" /></clipPath><clipPath id="98"><path id="" clip-rule="evenodd" transform="matrix(1 0 0 1 0 0)" d="M333.4858 340.792L540.0067 340.792L540.0067 340.792L540.0067 473.2965L540.0067 473.2965L333.4858 473.2965z" /></clipPath><clipPath id="99"><path id="" clip-rule="evenodd" transform="matrix(1 0 0 1 0 0)" d="M345.6469 340.792C 342.4206 340.792 339.3303 342.0725 337.0483 344.3544C 334.7663 346.6364 333.4858 349.7267 333.4858 352.953L333.4858 352.953L333.4858 461.1356C 333.4858 464.3618 334.7663 467.4521 337.0483 469.7341C 339.3303 472.0161 342.4206 473.2965 345.6469 473.2965L345.6469 473.2965L527.6108 473.2965C 530.837 473.2965 533.9273 472.0161 536.2094 469.7341C 538.4913 467.4521 539.7718 464.3618 539.7718 461.1356L539.7718 461.1356L539.7718 352.953C 539.7718 349.7267 538.4913 346.6364 536.2094 344.3544C 533.9273 342.0725 530.837 340.792 527.6108 340.792L527.6108 340.792L345.6469 340.792z" /></clipPath><clipPath id="100"><path id="" clip-rule="evenodd" transform="matrix(1 0 0 1 0 0)" d="M333.4858 340.792L540.0067 340.792L540.0067 340.792L540.0067 473.2965L540.0067 473.2965L333.4858 473.2965z" /></clipPath><clipPath id="101"><path id="" clip-rule="evenodd" transform="matrix(1 0 0 1 0 0)" d="M0 -0.249939L595.5 -0.249939L595.5 -0.249939L595.5 842.0001L595.5 842.0001L0 842.0001z" /></clipPath><clipPath id="102"><path id="" clip-rule="evenodd" transform="matrix(1 0 0 1 0 0)" d="M0 -0.249939L595.5 -0.249939L595.5 -0.249939L595.5 842.0001L595.5 842.0001L0 842.0001z" /></clipPath><clipPath id="103"><path id="" clip-rule="evenodd" transform="matrix(1 0 0 1 0 0)" d="M0 -0.249939L595.5 -0.249939L595.5 -0.249939L595.5 842.0001L595.5 842.0001L0 842.0001z" /></clipPath><clipPath id="104"><path id="" clip-rule="evenodd" transform="matrix(1 0 0 1 0 0)" d="M328.6577 100.3569L358.6577 100.3569L358.6577 100.3569L358.6577 125.1069L358.6577 125.1069L328.6577 125.1069z" /></clipPath><clipPath id="105"><path id="" clip-rule="evenodd" transform="matrix(1 0 0 1 0 0)" d="M328.6577 112.7275C 328.6577 116.0084 329.9611 119.1548 332.281 121.4748C 334.601 123.7947 337.7474 125.098 341.0283 125.098L341.0283 125.098L346.0677 125.098C 349.3486 125.098 352.4951 123.7947 354.815 121.4748C 357.1349 119.1548 358.4382 116.0084 358.4382 112.7275C 358.4382 109.4467 357.1349 106.3001 354.815 103.9802C 352.4951 101.6603 349.3486 100.3569 346.0677 100.3569L346.0677 100.3569L341.0283 100.3569C 337.7474 100.3569 334.601 101.6603 332.281 103.9802C 329.9611 106.3001 328.6577 109.4467 328.6577 112.7275z" /></clipPath><clipPath id="106"><path id="" clip-rule="evenodd" transform="matrix(1 0 0 1 0 0)" d="M329.4077 101.1069L357.9077 101.1069L357.9077 101.1069L357.9077 124.3569L357.9077 124.3569L329.4077 124.3569z" /></clipPath><clipPath id="107"><path id="" clip-rule="evenodd" transform="matrix(1 0 0 1 0 0)" d="M341.0283 101.257L346.0677 101.257C 349.1099 101.257 352.0274 102.4655 354.1786 104.6166C 356.3297 106.7678 357.5382 109.6853 357.5382 112.7275C 357.5382 115.7697 356.3297 118.6873 354.1786 120.8384C 352.0274 122.9896 349.1099 124.1981 346.0677 124.1981L346.0677 124.1981L341.0283 124.1981C 337.9861 124.1981 335.0685 122.9896 332.9174 120.8384C 330.7663 118.6873 329.5578 115.7697 329.5578 112.7275C 329.5578 109.6853 330.7663 106.7678 332.9174 104.6166C 335.0685 102.4655 337.9861 101.257 341.0283 101.257z" /></clipPath><clipPath id="108"><path id="" clip-rule="evenodd" transform="matrix(1 0 0 1 0 0)" d="M329.4077 100.8373L357.9077 100.8373L357.9077 100.8373L357.9077 124.8373L357.9077 124.8373L329.4077 124.8373z" /></clipPath><clipPath id="109"><path id="" clip-rule="evenodd" transform="matrix(1 0 0 1 0 0)" d="M328.6633 97.8595L358.6633 97.8595L358.6633 97.8595L358.6633 127.8595L358.6633 127.8595L328.6633 127.8595z" /></clipPath><clipPath id="110"><path id="" clip-rule="evenodd" transform="matrix(1 0 0 1 0 0)" d="M0 -0.249939L595.5 -0.249939L595.5 -0.249939L595.5 842.0001L595.5 842.0001L0 842.0001z" /></clipPath><clipPath id="111"><path id="" clip-rule="evenodd" transform="matrix(1 0 0 1 0 0)" d="M0 -0.249939L595.5 -0.249939L595.5 -0.249939L595.5 842.0001L595.5 842.0001L0 842.0001z" /></clipPath><clipPath id="112"><path id="" clip-rule="evenodd" transform="matrix(1 0 0 1 0 0)" d="M328.6577 100.3569L358.6577 100.3569L358.6577 100.3569L358.6577 125.1069L358.6577 125.1069L328.6577 125.1069z" /></clipPath><clipPath id="113"><path id="" clip-rule="evenodd" transform="matrix(1 0 0 1 0 0)" d="M328.6577 112.7275C 328.6577 116.0084 329.9611 119.1548 332.281 121.4748C 334.601 123.7947 337.7474 125.098 341.0283 125.098L341.0283 125.098L346.0677 125.098C 349.3486 125.098 352.4951 123.7947 354.815 121.4748C 357.1349 119.1548 358.4382 116.0084 358.4382 112.7275C 358.4382 109.4467 357.1349 106.3001 354.815 103.9802C 352.4951 101.6603 349.3486 100.3569 346.0677 100.3569L346.0677 100.3569L341.0283 100.3569C 337.7474 100.3569 334.601 101.6603 332.281 103.9802C 329.9611 106.3001 328.6577 109.4467 328.6577 112.7275z" /></clipPath><clipPath id="114"><path id="" clip-rule="evenodd" transform="matrix(1 0 0 1 0 0)" d="M328.6577 100.3569L358.6577 100.3569L358.6577 100.3569L358.6577 125.1069L358.6577 125.1069L328.6577 125.1069z" /></clipPath><clipPath id="115"><path id="" clip-rule="evenodd" transform="matrix(1 0 0 1 0 0)" d="M328.6577 100.3569L358.6546 100.3569L358.6546 100.3569L358.6546 125.1041L358.6546 125.1041L328.6577 125.1041z" /></clipPath><clipPath id="116"><path id="" clip-rule="evenodd" transform="matrix(1 0 0 1 0 0)" d="M328.6577 112.7261C 328.6577 116.0066 329.9609 119.1527 332.2806 121.4724C 334.6003 123.7921 337.7465 125.0952 341.027 125.0952L341.027 125.0952L346.0659 125.0952C 349.3464 125.0952 352.4926 123.7921 354.8122 121.4724C 357.1319 119.1527 358.4351 116.0066 358.4351 112.7261C 358.4351 109.4456 357.1319 106.2994 354.8122 103.9798C 352.4926 101.6602 349.3464 100.3569 346.0659 100.3569L346.0659 100.3569L341.027 100.3569C 337.7465 100.3569 334.6003 101.6602 332.2806 103.9798C 329.9609 106.2994 328.6577 109.4456 328.6577 112.7261z" /></clipPath><clipPath id="117"><path id="" clip-rule="evenodd" transform="matrix(1 0 0 1 0 0)" d="M0 -0.249939L595.5 -0.249939L595.5 -0.249939L595.5 842.0001L595.5 842.0001L0 842.0001z" /></clipPath><clipPath id="118"><path id="" clip-rule="evenodd" transform="matrix(1 0 0 1 0 0)" d="M0 -0.249939L595.5 -0.249939L595.5 -0.249939L595.5 842.0001L595.5 842.0001L0 842.0001z" /></clipPath><clipPath id="119"><path id="" clip-rule="evenodd" transform="matrix(1 0 0 1 0 0)" d="M333.4858 181.0951L541.9858 181.0951L541.9858 181.0951L541.9858 313.8451L541.9858 313.8451L333.4858 313.8451z" /></clipPath><clipPath id="120"><path id="" clip-rule="evenodd" transform="matrix(1 0 0 1 0 0)" d="M333.4858 193.0951L333.4858 301.3763C 333.4858 308.0038 338.8584 313.3763 345.4858 313.3763L345.4858 313.3763L529.7487 313.3763C 536.3761 313.3763 541.7487 308.0038 541.7487 301.3763L541.7487 301.3763L541.7487 193.0951C 541.7487 189.9125 540.4844 186.8603 538.2339 184.6099C 535.9835 182.3594 532.9312 181.0951 529.7487 181.0951L529.7487 181.0951L345.4858 181.0951C 338.8584 181.0951 333.4858 186.4677 333.4858 193.0951z" /></clipPath><clipPath id="121"><path id="" clip-rule="evenodd" transform="matrix(1 0 0 1 0 0)" d="M333.4858 181.0951L541.9858 181.0951L541.9858 181.0951L541.9858 313.0951L541.9858 313.0951L333.4858 313.0951z" /></clipPath><clipPath id="122"><path id="" clip-rule="evenodd" transform="matrix(1 0 0 1 0 0)" d="M0 -0.249939L595.5 -0.249939L595.5 -0.249939L595.5 842.0001L595.5 842.0001L0 842.0001z" /></clipPath></defs><g transform="matrix(1.333333 0 0 1.333333 0 0)"><g clip-path="url(#1)"><g clip-path="url(#2)"><path id="1" transform="matrix(1 0 0 -1 0 842)" d="M0 842.2499L595.4999 842.2499L595.4999 -6.103516E-05L0 -6.103516E-05z" stroke="none" fill="#FFFFFF" fill-rule="nonzero" /></g><g clip-path="url(#3)"><path id="2" transform="matrix(1 0 0 -1 0 842)" d="M0 842.2499L595.4999 842.2499L595.4999 -6.103516E-05L0 -6.103516E-05z" stroke="none" fill="#FFFFFF" fill-rule="nonzero" /></g><g clip-path="url(#4)"><g><g clip-path="url(#5)"><g clip-path="url(#6)"><g transform="matrix(0 0.5128205 -0.5127462 0 522.0178 30.75189)"><g transform="matrix(1 0 0 1 0 0)"><image x="0" y="0" xlink:href="img_01.png" width="1521" height="863" /></g></g></g></g></g></g><g clip-path="url(#7)"><g transform="matrix(0.2400519 0 0 0.2398844 304.3272 558.2202)"><g transform="matrix(1 0 0 1 0 0)"><image x="0" y="0" xlink:href="img_02.png" width="1156" height="1038" /></g></g></g><g clip-path="url(#8)"><g transform="matrix(0.998798 0 0 0.9374999 331.7734 782.8646)"><g transform="matrix(1 0 0 1 0 0)"><image x="0" y="0" xlink:href="img_03.png" width="208" height="4" /></g></g></g><g clip-path="url(#9)"><g clip-path="url(#10)"><g clip-path="url(#11)"><g clip-path="url(#12)"><g clip-path="url(#13)"><g transform="matrix(0.6146431 0 0 0.6151191 310.5334 600.386)"><g transform="matrix(1 0 0 1 0 0)"><image x="0" y="0" xlink:href="img_04.png" width="212" height="170" /></g></g></g></g></g></g></g><g clip-path="url(#14)"><g clip-path="url(#15)"><g clip-path="url(#16)"><g clip-path="url(#17)"><g clip-path="url(#18)"><g transform="matrix(0.602659 0 0 0.602659 438.6082 668.5466)"><g transform="matrix(1 0 0 1 0 0)"><image x="0" y="0" xlink:href="img_05.png" width="220" height="176" /></g></g></g></g></g></g></g><g clip-path="url(#19)"><g transform="matrix(0.06607495 0 0 0.06604866 481.518 10.77136)"><g transform="matrix(1 0 0 1 0 0)"><image x="0" y="0" xlink:href="img_06.png" width="1521" height="863" /></g></g></g><g clip-path="url(#20)"><g transform="matrix(0.24 0 0 0.239899 38.97876 149.4779)"><g transform="matrix(1 0 0 1 0 0)"><image x="0" y="0" xlink:href="img_07.png" width="1025" height="1188" /></g></g></g><g clip-path="url(#21)"><g transform="matrix(0.9989082 0 0 0.9374999 40.64989 401.3354)"><g transform="matrix(1 0 0 1 0 0)"><image x="0" y="0" xlink:href="img_08.png" width="229" height="4" /></g></g></g><g clip-path="url(#22)"><g clip-path="url(#23)"><g clip-path="url(#24)"><g clip-path="url(#25)"><g clip-path="url(#26)"><g transform="matrix(0.6541502 0 0 0.6545313 53.85382 236.3263)"><g transform="matrix(1 0 0 1 0 0)"><image x="0" y="0" xlink:href="img_09.png" width="331" height="228" /></g></g></g></g></g></g></g><g clip-path="url(#27)"><g clip-path="url(#28)"><g clip-path="url(#29)"><g clip-path="url(#30)"><path id="12" transform="matrix(1 0 0 -1 0 842)" d="M88.507 557.5864C 87.50112 556.455 86.59708 555.438 85.69199 554.42C 87.1503 554.3184 88.63744 554.0469 90.05795 554.1736C 91.12689 554.2696 92.14131 554.8222 93.1178 555.285C 93.61357 555.5202 94.41394 556.1333 94.332 556.3589C 93.25755 559.3168 92.07842 562.2464 90.8094 565.1407C 90.71992 565.3438 89.55943 565.4296 89.19679 565.1723C 88.85117 564.9271 88.6933 564.1257 88.81757 563.6323C 89.05921 562.6683 89.55517 561.7502 90.09305 560.458C 84.76871 561.14 80.38548 563.3773 76.39272 566.4351C 64.51393 575.5368 59.40121 590.3027 62.89811 605.2432C 63.39323 607.356 64.30553 609.345 64.79052 611.4606C 64.96955 612.2411 64.47658 613.2213 64.29039 614.1088C 63.55354 613.6589 62.409 613.3978 62.13776 612.7349C 52.3415 588.7125 65.45023 563.5233 87.86423 557.8168C 88.23206 557.722 88.58623 557.5579 88.507 557.5864z" stroke="none" fill="#FFFFFF" fill-rule="nonzero" /><path id="13" transform="matrix(1 0 0 -1 0 842)" d="M83.32727 557.014C 84.51921 559.2021 85.56921 561.4684 86.46282 563.7942C 86.71652 564.4538 86.95555 565.1182 87.18432 565.7874C 87.37774 566.1721 87.65414 566.483 88.01355 566.7202C 88.26994 566.9003 88.5518 567.0055 88.85676 567.0378C 89.15004 567.1182 89.44772 567.1235 89.74995 567.0515C 90.16479 566.9673 90.53001 566.7849 90.84782 566.5045C 91.85576 565.4138 92.86383 564.3209 93.87177 563.2302C 94.97906 562.0324 96.10649 560.8501 97.16014 559.6037C 97.67197 559.0001 98.13937 558.3607 98.4978 557.6528C 98.72091 557.3058 98.84518 556.9254 98.87048 556.5137C 98.89357 556.1019 98.81354 555.7105 98.63376 555.3388C 98.44033 554.9541 98.16393 554.6432 97.80452 554.4061C 97.4576 554.1829 97.07716 554.0587 96.66544 554.0334C 93.73189 553.4877 90.75574 553.1765 87.77287 553.1121C 86.92097 553.093 86.06778 553.0961 85.21576 553.1169C 84.81416 553.1265 84.40816 553.1736 84.04086 553.3536C 83.8667 553.4708 83.69254 553.588 83.51837 553.7051C 83.2681 553.9109 83.08836 554.1606 82.97681 554.4565C 82.86578 554.6306 82.8037 554.8197 82.79047 555.0261C 82.72801 555.2218 82.71646 555.4183 82.75557 555.62C 82.78976 556.1128 82.96267 556.658 83.32377 557.0172C 84.3964 558.0872 85.71619 558.9103 87.18623 559.3068C 87.91032 559.5023 88.6734 559.6379 89.42463 559.6544C 90.16483 559.6702 90.92697 559.6141 91.65002 559.4506C 92.45177 559.2672 93.26183 558.9803 93.97316 558.5634C 92.97144 557.4366 91.96867 556.3087 90.96694 555.1819C 90.93707 555.2189 90.90604 555.257 90.87512 555.2928C 91.01187 555.1336 91.14864 554.9744 91.28539 554.8151C 91.10773 555.0107 90.90953 555.1785 90.69238 555.3297C 90.86655 555.2125 91.04071 555.0954 91.21487 554.9782C 90.47795 555.4722 89.6214 555.721 88.84175 556.1316C 88.66342 556.2253 88.49107 556.3303 88.32172 556.4412C 88.00236 556.6539 87.66909 556.8581 87.3857 557.1184C 86.78841 557.6683 86.38751 558.2883 86.0865 559.0372C 85.9617 559.4265 85.93835 559.824 86.01669 560.2252C 86.06686 560.5405 86.19117 560.8192 86.38847 561.0624C 86.54266 561.3417 86.76102 561.5662 87.04144 561.7333C 87.38837 561.9564 87.7688 562.0807 88.18053 562.106C 88.9715 562.0682 89.74442 561.9985 90.50072 561.7593C 91.25934 561.5181 91.9864 561.2484 92.65968 560.8193C 91.65796 559.6925 90.65519 558.5646 89.65347 557.4378C 88.97581 558.4692 88.42804 559.6091 88.03795 560.7804C 87.85226 561.3389 87.90426 562.0189 88.16367 562.5437C 88.421 563.0662 88.97031 563.5781 89.5414 563.738C 90.11472 563.8979 90.76776 563.9075 91.30467 563.6122C 91.85989 563.307 92.29575 562.8463 92.49898 562.2345C 92.65402 561.764 92.83946 561.304 93.05075 560.8567C 92.96361 561.0388 92.87634 561.2231 92.78921 561.4052C 93.024 560.9161 93.29101 560.4443 93.59023 559.99C 93.67737 559.8079 93.76463 559.6235 93.85177 559.4415C 93.95864 559.1497 93.98824 558.8535 93.94275 558.5528C 93.90778 558.0544 93.73396 557.5247 93.37456 557.1557C 93.08412 556.8572 92.73966 556.6298 92.34831 556.4839C 92.05659 556.377 91.76033 556.3474 91.45966 556.3929C 91.15196 556.3881 90.86078 556.4608 90.58505 556.6096C 90.11893 556.9068 89.62083 557.1445 89.09743 557.3231C 89.28848 557.2579 89.48174 557.1928 89.67279 557.1276C 89.14639 557.3005 88.60712 557.4095 88.05513 557.4525C 88.25424 557.4387 88.45335 557.4249 88.65466 557.4112C 88.58907 557.4151 88.52232 557.42 88.45569 557.4228C 89.15335 558.4453 89.85206 559.469 90.54855 560.4926C 90.57323 560.4308 90.5988 560.3726 90.62672 560.3121C 90.53959 560.4943 90.45232 560.6785 90.36518 560.8607C 90.45401 560.6875 90.56194 560.5288 90.687 560.3799C 90.55025 560.5392 90.41349 560.6984 90.27673 560.8577C 90.46661 560.6428 90.6822 560.4616 90.91663 560.2993C 90.74246 560.4164 90.5683 560.5336 90.39413 560.6508C 90.98468 560.2534 91.6481 560.011 92.29437 559.7211C 92.62778 559.5712 92.95312 559.4075 93.25742 559.206C 93.55704 559.0087 93.87654 558.8126 94.14772 558.5715C 94.43045 558.3222 94.66747 558.0215 94.905 557.7308C 94.99214 557.5487 95.07941 557.3644 95.16655 557.1823C 95.27342 556.8906 95.30301 556.5944 95.25753 556.2936C 95.22256 555.7953 95.04874 555.2655 94.68933 554.8965C 94.3989 554.5981 94.05444 554.3707 93.66309 554.2247C 93.37137 554.1179 93.0751 554.0883 92.77444 554.1337C 92.46674 554.129 92.17555 554.2016 91.89983 554.3505C 91.5476 554.5569 91.17757 554.7267 90.79196 554.8603C 90.98302 554.7951 91.17628 554.73 91.36732 554.6648C 90.8395 554.8431 90.29478 554.9507 89.74058 554.9935C 89.93968 554.9797 90.13879 554.9659 90.34011 554.9523C 89.74616 554.9927 89.15221 554.9578 88.56696 554.8503C 88.76308 554.8873 88.9592 554.9243 89.15753 554.9615C 88.59229 554.8529 88.0443 554.6767 87.52254 554.4312C 87.70465 554.5183 87.88895 554.6055 88.07106 554.6927C 87.56892 554.4527 87.10249 554.1517 86.67944 553.7911C 86.83868 553.9279 86.99792 554.0646 87.15717 554.2014C 87.04547 554.104 86.93623 554.0023 86.83154 553.8987C 86.20118 555.1999 85.57095 556.4989 84.9406 557.8C 87.92371 557.7283 90.91167 557.895 93.86638 558.3068C 94.7114 558.424 95.55187 558.562 96.3891 558.7176C 95.7787 557.5107 95.16818 556.3062 94.55779 555.0993C 94.17689 555.8502 93.67325 556.5219 93.12727 557.16C 93.26402 557.0007 93.40078 556.8415 93.53754 556.6823C 92.61505 557.7513 91.63126 558.7704 90.6741 559.8076C 89.69214 560.871 88.71134 561.9333 87.72937 562.9967C 88.95055 563.2357 90.17171 563.4748 91.39288 563.7138C 90.58758 561.3556 89.62733 559.0515 88.51657 556.8204C 88.20143 556.1882 87.87486 555.5619 87.53583 554.9404C 87.2368 554.3922 86.76024 553.9432 86.1581 553.7461C 85.62219 553.5717 84.89627 553.5955 84.39482 553.8718C 83.85558 554.1692 83.3705 554.6381 83.20052 555.2496C 83.04158 555.824 83.03331 556.4739 83.32727 557.014z" stroke="none" fill="#FFFFFF" fill-rule="nonzero" /></g></g></g></g><g clip-path="url(#31)"><g clip-path="url(#32)"><g clip-path="url(#33)"><g clip-path="url(#34)"><g clip-path="url(#35)"><g clip-path="url(#36)"><g clip-path="url(#37)"><g clip-path="url(#38)"><path id="14" transform="matrix(1 0 0 -1 0 842)" d="M69.72068 689.5093C 58.71785 689.5093 49.76994 680.5613 49.76994 669.5585C 49.76994 658.5557 58.71785 649.6078 69.72068 649.6078C 80.72351 649.6078 89.67142 658.5557 89.67142 669.5585C 89.67142 680.5613 80.72351 689.5093 69.72068 689.5093zM69.72068 649.3085C 58.55824 649.3085 49.47068 658.3961 49.47068 669.5585C 49.47068 680.7209 58.55824 689.8085 69.72068 689.8085C 80.88312 689.8085 89.97067 680.7209 89.97067 669.5585C 89.97067 658.3961 80.88312 649.3085 69.72068 649.3085z" stroke="none" fill="#000000" fill-rule="nonzero" /></g></g></g></g></g></g></g></g><g clip-path="url(#39)"><g clip-path="url(#40)"><g clip-path="url(#41)"><g clip-path="url(#42)"><g clip-path="url(#43)"><g clip-path="url(#44)"><g clip-path="url(#45)"><path id="15" transform="matrix(1 0 0 -1 0 842)" d="M49.46677 669.7143C 49.46677 666.7866 50.62998 663.9787 52.7005 661.9085C 54.77103 659.8383 57.57925 658.6752 60.50742 658.6752L60.50742 658.6752L78.71519 658.6752C 81.64334 658.6752 84.45158 659.8383 86.52209 661.9085C 88.59262 663.9787 89.75583 666.7866 89.75583 669.7143C 89.75583 672.642 88.59262 675.4499 86.52209 677.5201C 84.45158 679.5903 81.64334 680.7534 78.71519 680.7534L78.71519 680.7534L60.50742 680.7534C 57.57925 680.7534 54.77103 679.5903 52.7005 677.5201C 50.62998 675.4499 49.46677 672.642 49.46677 669.7143z" stroke="#000000" stroke-width="1.5" fill="none" /></g></g></g></g></g></g></g><g clip-path="url(#46)"><g transform="matrix(0.2408052 0 0 0.2407776 34.17027 475.5045)"><g transform="matrix(1 0 0 1 0 0)"><image x="0" y="0" xlink:href="img_10.png" width="1006" height="1003" /></g></g></g><g clip-path="url(#47)"><g clip-path="url(#48)"><g clip-path="url(#49)"><g clip-path="url(#50)"><g clip-path="url(#51)"><g transform="matrix(0.6205356 0 0 0.6191505 54.34301 529.3185)"><g transform="matrix(1 0 0 1 0 0)"><image x="0" y="0" xlink:href="img_11.png" width="342" height="256" /></g></g></g></g></g></g></g><g clip-path="url(#52)"></g><g clip-path="url(#53)"><g clip-path="url(#54)"><g clip-path="url(#55)"><g clip-path="url(#56)"><g clip-path="url(#57)"><g clip-path="url(#58)"><g clip-path="url(#59)"><g clip-path="url(#60)"><path id="44" transform="matrix(1 0 0 -1 0 842)" d="M69.72068 342.6265C 58.71785 342.6265 49.76994 333.6786 49.76994 322.6757C 49.76994 311.6729 58.71785 302.725 69.72068 302.725C 80.72351 302.725 89.67142 311.6729 89.67142 322.6757C 89.67142 333.6786 80.72351 342.6265 69.72068 342.6265zM69.72068 302.4257C 58.55824 302.4257 49.47068 311.5133 49.47068 322.6757C 49.47068 333.8382 58.55824 342.9257 69.72068 342.9257C 80.88312 342.9257 89.97067 333.8382 89.97067 322.6757C 89.97067 311.5133 80.88312 302.4257 69.72068 302.4257z" stroke="none" fill="#000000" fill-rule="nonzero" /></g></g></g></g></g></g></g></g><g clip-path="url(#61)"><g clip-path="url(#62)"><g clip-path="url(#63)"><g clip-path="url(#64)"><g clip-path="url(#65)"><g clip-path="url(#66)"><g clip-path="url(#67)"><path id="45" transform="matrix(1 0 0 -1 0 842)" d="M49.46677 322.8209C 49.46677 319.5404 50.76979 316.3943 53.08918 314.0746C 55.40858 311.7549 58.55434 310.4518 61.83446 310.4518L61.83446 310.4518L77.38814 310.4518C 80.66826 310.4518 83.81403 311.7549 86.13342 314.0746C 88.4528 316.3943 89.75583 319.5404 89.75583 322.8209C 89.75583 326.1014 88.4528 329.2476 86.13342 331.5672C 83.81403 333.8869 80.66826 335.1901 77.38814 335.1901L77.38814 335.1901L61.83446 335.1901C 58.55434 335.1901 55.40858 333.8869 53.08918 331.5672C 50.76979 329.2476 49.46677 326.1014 49.46677 322.8209z" stroke="#000000" stroke-width="1.5" fill="none" /></g></g></g></g></g></g></g><g clip-path="url(#68)"></g><g clip-path="url(#69)"><g clip-path="url(#70)"><g clip-path="url(#71)"><g clip-path="url(#72)"><g clip-path="url(#73)"><g clip-path="url(#74)"><g clip-path="url(#75)"><g clip-path="url(#76)"><path id="92" transform="matrix(1 0 0 -1 0 842)" d="M348.8694 282.4532C 337.4591 282.4532 328.1797 273.1739 328.1797 261.7635C 328.1797 250.3532 337.4591 241.0739 348.8694 241.0739C 360.2798 241.0739 369.5591 250.3532 369.5591 261.7635C 369.5591 273.1739 360.2798 282.4532 348.8694 282.4532zM348.8694 240.7635C 337.2935 240.7635 327.8694 250.1877 327.8694 261.7635C 327.8694 273.3394 337.2935 282.7635 348.8694 282.7635C 360.4453 282.7635 369.8694 273.3394 369.8694 261.7635C 369.8694 250.1877 360.4453 240.7635 348.8694 240.7635z" stroke="none" fill="#000000" fill-rule="nonzero" /></g></g></g></g></g></g></g></g><g clip-path="url(#77)"><g clip-path="url(#78)"><g clip-path="url(#79)"><g clip-path="url(#80)"><g clip-path="url(#81)"><g clip-path="url(#82)"><g clip-path="url(#83)"><path id="93" transform="matrix(1 0 0 -1 0 842)" d="M327.8665 261.8775C 327.8665 258.597 329.1695 255.4509 331.4889 253.1312C 333.8083 250.8115 336.9542 249.5084 340.2343 249.5084L340.2343 249.5084L357.3346 249.5084C 360.6147 249.5084 363.7606 250.8115 366.08 253.1312C 368.3994 255.4509 369.7024 258.597 369.7024 261.8775C 369.7024 265.158 368.3994 268.3041 366.08 270.6238C 363.7606 272.9435 360.6147 274.2466 357.3346 274.2466L357.3346 274.2466L340.2343 274.2466C 336.9542 274.2466 333.8083 272.9435 331.4889 270.6238C 329.1695 268.3041 327.8665 265.158 327.8665 261.8775z" stroke="#000000" stroke-width="1.5" fill="none" /></g></g></g></g></g></g></g><g clip-path="url(#84)"></g><g clip-path="url(#85)"><g clip-path="url(#86)"><g clip-path="url(#87)"><g clip-path="url(#88)"><g clip-path="url(#89)"><g transform="matrix(0.5581642 0 0 0.5581917 330.1038 165.3141)"><g transform="matrix(1 0 0 1 0 0)"><image x="0" y="0" xlink:href="img_12.png" width="370" height="255" /></g></g></g></g></g></g></g><g clip-path="url(#90)"><g clip-path="url(#91)"><g clip-path="url(#92)"><g clip-path="url(#93)"><path id="97" transform="matrix(1 0 0 -1 0 842)" d="M315.584 755.8705L562.9608 755.8705L562.9608 308.4663L315.584 308.4663z" stroke="none" fill="#1D70B7" fill-rule="nonzero" /></g></g></g></g><g clip-path="url(#94)"><g transform="matrix(1.06441 0 0 1 317.3895 501.1628)"><g transform="matrix(1 0 0 1 0 0)"><image x="0" y="0" xlink:href="img_13.png" width="229" height="3" /></g></g></g><g clip-path="url(#95)"></g><g clip-path="url(#96)"><g clip-path="url(#97)"><g clip-path="url(#98)"><g clip-path="url(#99)"><g clip-path="url(#100)"><g transform="matrix(0.5768737 0 0 0.5771606 333.4858 334.3596)"><g transform="matrix(1 0 0 1 0 0)"><image x="0" y="0" xlink:href="img_14.png" width="358" height="252" /></g></g></g></g></g></g></g><g clip-path="url(#101)"></g><g clip-path="url(#102)"><g clip-path="url(#103)"><g clip-path="url(#104)"><g clip-path="url(#105)"><g clip-path="url(#106)"><g clip-path="url(#107)"><g clip-path="url(#108)"><g clip-path="url(#109)"><path id="164" transform="matrix(1 0 0 -1 0 842)" d="M343.6633 743.9188C 335.5131 743.9188 328.885 737.2907 328.885 729.1404C 328.885 720.9902 335.5131 714.3621 343.6633 714.3621C 351.8135 714.3621 358.4416 720.9902 358.4416 729.1404C 358.4416 737.2907 351.8135 743.9188 343.6633 743.9188zM343.6633 714.1404C 335.3948 714.1404 328.6633 720.8719 328.6633 729.1404C 328.6633 737.4089 335.3948 744.1404 343.6633 744.1404C 351.9318 744.1404 358.6633 737.4089 358.6633 729.1404C 358.6633 720.8719 351.9318 714.1404 343.6633 714.1404z" stroke="none" fill="#000000" fill-rule="nonzero" /></g></g></g></g></g></g></g></g><g clip-path="url(#110)"><g clip-path="url(#111)"><g clip-path="url(#112)"><g clip-path="url(#113)"><g clip-path="url(#114)"><g clip-path="url(#115)"><g clip-path="url(#116)"><path id="165" transform="matrix(1 0 0 -1 0 842)" d="M328.6577 729.2739C 328.6577 725.9933 329.9609 722.8472 332.2806 720.5276C 334.6003 718.2079 337.7465 716.9047 341.027 716.9047L341.027 716.9047L346.0658 716.9047C 349.3464 716.9047 352.4925 718.2079 354.8122 720.5276C 357.1319 722.8472 358.4351 725.9933 358.4351 729.2739C 358.4351 732.5544 357.1319 735.7005 354.8122 738.0201C 352.4925 740.3398 349.3464 741.643 346.0658 741.643L346.0658 741.643L341.027 741.643C 337.7465 741.643 334.6003 740.3398 332.2806 738.0201C 329.9609 735.7005 328.6577 732.5544 328.6577 729.2739z" stroke="#000000" stroke-width="1.5" fill="none" /></g></g></g></g></g></g></g><g clip-path="url(#117)"><g clip-path="url(#118)"><g clip-path="url(#119)"><g clip-path="url(#120)"><g clip-path="url(#121)"><g transform="matrix(0.5728022 0 0 0.5689654 333.4858 181.0952)"><g transform="matrix(1 0 0 1 0 0)"><image x="0" y="0" xlink:href="img_15.png" width="364" height="232" /></g></g></g></g></g></g></g><g clip-path="url(#122)"></g></g></g></svg>