<svg xmlns="http://www.w3.org/2000/svg" xmlns:xlink="http://www.w3.org/1999/xlink" id="body_1" preserveAspectRatio="xMinYMin meet" viewBox="0 0 793 1123"><defs><clipPath id="1"><path id="" clip-rule="evenodd" transform="matrix(1 0 0 1 0 0)" d="M0 842L0 -0.25L0 -0.25L595.5 -0.25L595.5 -0.25L595.5 842L595.5 842L0 842z" /></clipPath><clipPath id="2"><path id="" clip-rule="evenodd" transform="matrix(1 0 0 1 0 0)" d="M0 -0.249939L595.5 -0.249939L595.5 -0.249939L595.5 842.0001L595.5 842.0001L0 842.0001z" /></clipPath><clipPath id="3"><path id="" clip-rule="evenodd" transform="matrix(1 0 0 1 0 0)" d="M0 -0.249939L595.5 -0.249939L595.5 -0.249939L595.5 842.0001L595.5 842.0001L0 842.0001z" /></clipPath><clipPath id="4"><path id="" clip-rule="evenodd" transform="matrix(1 0 0 1 0 0)" d="M0 -0.249939L595.5 -0.249939L595.5 -0.249939L595.5 842.0001L595.5 842.0001L0 842.0001z" /></clipPath><clipPath id="5"><path id="" clip-rule="evenodd" transform="matrix(1 0 0 1 0 0)" d="M78.71999 30.71008L522.24 30.71008L522.24 30.71008L522.24 810.9501L522.24 810.9501L78.71999 810.9501z" /></clipPath><clipPath id="6"><path id="" clip-rule="evenodd" transform="matrix(1 0 0 1 0 0)" d="M79.51787 30.75183L522.0178 30.75183L522.0178 30.75183L522.0178 810.7518L522.0178 810.7518L79.51787 810.7518z" /></clipPath><clipPath id="7"><path id="" clip-rule="evenodd" transform="matrix(1 0 0 1 0 0)" d="M0 -0.249939L595.5 -0.249939L595.5 -0.249939L595.5 842.0001L595.5 842.0001L0 842.0001z" /></clipPath><clipPath id="8"><path id="" clip-rule="evenodd" transform="matrix(1 0 0 1 0 0)" d="M0 -0.249939L595.5 -0.249939L595.5 -0.249939L595.5 842.0001L595.5 842.0001L0 842.0001z" /></clipPath><clipPath id="9"><path id="" clip-rule="evenodd" transform="matrix(1 0 0 1 0 0)" d="M522.0223 63.09192L717.1463 18.07318L717.1463 18.07318L761.8278 211.7356L761.8278 211.7356L566.7039 256.7543L566.7039 256.7543L522.0223 63.09192z" /></clipPath><clipPath id="10"><path id="" clip-rule="evenodd" transform="matrix(1 0 0 1 0 0)" d="M522.0223 63.09192L717.1463 18.07318L717.1463 18.07318L761.8278 211.7356L761.8278 211.7356L566.7039 256.7543L566.7039 256.7543L522.0223 63.09192z" /></clipPath><clipPath id="11"><path id="" clip-rule="evenodd" transform="matrix(1 0 0 1 0 0)" d="M0 -0.249939L595.5 -0.249939L595.5 -0.249939L595.5 842.0001L595.5 842.0001L0 842.0001z" /></clipPath><clipPath id="12"><path id="" clip-rule="evenodd" transform="matrix(1 0 0 1 0 0)" d="M0 -0.249939L595.5 -0.249939L595.5 -0.249939L595.5 842.0001L595.5 842.0001L0 842.0001z" /></clipPath><clipPath id="13"><path id="" clip-rule="evenodd" transform="matrix(1 0 0 1 0 0)" d="M151.2971 42.745L78.30802 150.0187L78.30802 150.0187L-115.1567 18.38519L-115.1567 18.38519L-42.16761 -88.88855L-42.16761 -88.88855L151.2971 42.745z" /></clipPath><clipPath id="14"><path id="" clip-rule="evenodd" transform="matrix(1 0 0 1 0 0)" d="M151.2971 42.745L78.30802 150.0187L78.30802 150.0187L-115.1567 18.38519L-115.1567 18.38519L-42.16761 -88.88855L-42.16761 -88.88855L151.2971 42.745z" /></clipPath><clipPath id="15"><path id="" clip-rule="evenodd" transform="matrix(1 0 0 1 0 0)" d="M0 -0.249939L595.5 -0.249939L595.5 -0.249939L595.5 842.0001L595.5 842.0001L0 842.0001z" /></clipPath><clipPath id="16"><path id="" clip-rule="evenodd" transform="matrix(1 0 0 1 0 0)" d="M0 -0.249939L595.5 -0.249939L595.5 -0.249939L595.5 842.0001L595.5 842.0001L0 842.0001z" /></clipPath><clipPath id="17"><path id="" clip-rule="evenodd" transform="matrix(1 0 0 1 0 0)" d="M-66.21495 868.5667L84.42924 749.5276L84.42924 749.5276L192.3085 886.0488L192.3085 886.0488L41.66431 1005.088L41.66431 1005.088L-66.21495 868.5667z" /></clipPath><clipPath id="18"><path id="" clip-rule="evenodd" transform="matrix(1 0 0 1 0 0)" d="M-66.21495 868.5667L84.42924 749.5276L84.42924 749.5276L192.3085 886.0488L192.3085 886.0488L41.66431 1005.088L41.66431 1005.088L-66.21495 868.5667z" /></clipPath><clipPath id="19"><path id="" clip-rule="evenodd" transform="matrix(1 0 0 1 0 0)" d="M475.3274 10.8963L569.0774 10.8963L569.0774 10.8963L569.0774 64.1463L569.0774 64.1463L475.3274 64.1463z" /></clipPath><clipPath id="20"><path id="" clip-rule="evenodd" transform="matrix(1 0 0 1 0 0)" d="M0 -0.249939L595.5 -0.249939L595.5 -0.249939L595.5 842.0001L595.5 842.0001L0 842.0001z" /></clipPath><clipPath id="21"><path id="" clip-rule="evenodd" transform="matrix(1 0 0 1 0 0)" d="M0 -0.249939L595.5 -0.249939L595.5 -0.249939L595.5 842.0001L595.5 842.0001L0 842.0001z" /></clipPath><clipPath id="22"><path id="" clip-rule="evenodd" transform="matrix(1 0 0 1 0 0)" d="M36.13978 591.3017L267.1398 591.3017L267.1398 591.3017L267.1398 762.3017L267.1398 762.3017L36.13978 762.3017z" /></clipPath><clipPath id="23"><path id="" clip-rule="evenodd" transform="matrix(1 0 0 1 0 0)" d="M36.13978 666.3017L36.13978 687.2075C 36.13978 728.6288 69.71843 762.2074 111.1398 762.2074L111.1398 762.2074L191.4619 762.2074C 232.8833 762.2074 266.4619 728.6288 266.4619 687.2075L266.4619 687.2075L266.4619 666.3017C 266.4619 624.8804 232.8833 591.3017 191.4619 591.3017L191.4619 591.3017L111.1398 591.3017C 69.71843 591.3017 36.13978 624.8804 36.13978 666.3017z" /></clipPath><clipPath id="24"><path id="" clip-rule="evenodd" transform="matrix(1 0 0 1 0 0)" d="M36.13978 591.3017L266.3898 591.3017L266.3898 591.3017L266.3898 762.3017L266.3898 762.3017L36.13978 762.3017z" /></clipPath><clipPath id="25"><path id="" clip-rule="evenodd" transform="matrix(1 0 0 1 0 0)" d="M0 -0.249939L595.5 -0.249939L595.5 -0.249939L595.5 842.0001L595.5 842.0001L0 842.0001z" /></clipPath><clipPath id="26"><path id="" clip-rule="evenodd" transform="matrix(1 0 0 1 0 0)" d="M0 -0.249939L595.5 -0.249939L595.5 -0.249939L595.5 842.0001L595.5 842.0001L0 842.0001z" /></clipPath><clipPath id="27"><path id="" clip-rule="evenodd" transform="matrix(1 0 0 1 0 0)" d="M0 -0.249939L595.5 -0.249939L595.5 -0.249939L595.5 842.0001L595.5 842.0001L0 842.0001z" /></clipPath><clipPath id="28"><path id="" clip-rule="evenodd" transform="matrix(1 0 0 1 0 0)" d="M338.9613 740.6725L540.1318 740.6725L540.1318 740.6725L540.1318 792.0693L540.1318 792.0693L338.9613 792.0693z" /></clipPath><clipPath id="29"><path id="" clip-rule="evenodd" transform="matrix(1 0 0 1 0 0)" d="M364.4613 740.6725L514.4594 740.6725C 528.5425 740.6725 539.9594 752.0892 539.9594 766.1725L539.9594 766.1725L539.9594 766.5693C 539.9594 780.6526 528.5425 792.0693 514.4594 792.0693L514.4594 792.0693L364.4613 792.0693C 350.3781 792.0693 338.9613 780.6526 338.9613 766.5693L338.9613 766.5693L338.9613 766.1725C 338.9613 752.0892 350.3781 740.6725 364.4613 740.6725z" /></clipPath><clipPath id="30"><path id="" clip-rule="evenodd" transform="matrix(1 0 0 1 0 0)" d="M0 -0.249939L595.5 -0.249939L595.5 -0.249939L595.5 842.0001L595.5 842.0001L0 842.0001z" /></clipPath><clipPath id="31"><path id="" clip-rule="evenodd" transform="matrix(1 0 0 1 0 0)" d="M0 -0.249939L595.5 -0.249939L595.5 -0.249939L595.5 842.0001L595.5 842.0001L0 842.0001z" /></clipPath><clipPath id="32"><path id="" clip-rule="evenodd" transform="matrix(1 0 0 1 0 0)" d="M338.9613 740.6725L539.9613 740.6725L539.9613 740.6725L539.9613 792.4225L539.9613 792.4225L338.9613 792.4225z" /></clipPath><clipPath id="33"><path id="" clip-rule="evenodd" transform="matrix(1 0 0 1 0 0)" d="M338.9763 740.6725L542.632 740.6725L542.632 740.6725L542.632 793.6788L542.632 793.6788L338.9763 793.6788z" /></clipPath><clipPath id="34"><path id="" clip-rule="evenodd" transform="matrix(1 0 0 1 0 0)" d="M364.4713 740.6725L514.4397 740.6725C 528.5202 740.6725 539.9346 752.0869 539.9346 766.1674L539.9346 766.1674L539.9346 766.5642C 539.9346 780.6447 528.5202 792.0592 514.4397 792.0592L514.4397 792.0592L364.4713 792.0592C 350.3908 792.0592 338.9763 780.6447 338.9763 766.5642L338.9763 766.5642L338.9763 766.1674C 338.9763 752.0869 350.3908 740.6725 364.4713 740.6725z" /></clipPath><clipPath id="35"><path id="" clip-rule="evenodd" transform="matrix(1 0 0 1 0 0)" d="M502.5233 772.1991L537.0233 772.1991L537.0233 772.1991L537.0233 823.1991L537.0233 823.1991L502.5233 823.1991z" /></clipPath><clipPath id="36"><path id="" clip-rule="evenodd" transform="matrix(1 0 0 1 0 0)" d="M0 -0.249939L595.5 -0.249939L595.5 -0.249939L595.5 842.0001L595.5 842.0001L0 842.0001z" /></clipPath></defs><g transform="matrix(1.333333 0 0 1.333333 0 0)"><g clip-path="url(#1)"><g clip-path="url(#2)"><path id="1" transform="matrix(1 0 0 -1 0 842)" d="M0 842.2499L595.4999 842.2499L595.4999 -6.103516E-05L0 -6.103516E-05z" stroke="none" fill="#FFFFFF" fill-rule="nonzero" /></g><g clip-path="url(#3)"><path id="2" transform="matrix(1 0 0 -1 0 842)" d="M0 842.2499L595.4999 842.2499L595.4999 -6.103516E-05L0 -6.103516E-05z" stroke="none" fill="#FFFFFF" fill-rule="nonzero" /></g><g clip-path="url(#4)"><g><g clip-path="url(#5)"><g clip-path="url(#6)"><g transform="matrix(0 0.5128205 -0.5127462 0 522.0178 30.75189)"><g transform="matrix(1 0 0 1 0 0)"><image x="0" y="0" xlink:href="img_01.png" width="1521" height="863" /></g></g></g></g></g></g><g clip-path="url(#7)"><g clip-path="url(#8)"><g clip-path="url(#9)"><g clip-path="url(#10)"><path id="4" transform="matrix(1 0 0 -1 0 842)" d="M714.9493 741.1488C 713.1962 741.4431 689.7159 737.2177 685.8586 736.6565C 682.0013 736.0953 673.7551 731.3979 668.3878 728.4744C 668.8054 737.5308 669.0369 743.2972 668.6618 747.2386C 668.2867 751.1801 658.9341 770.5181 657.9556 772.2652C 656.1697 775.5522 639.4985 793.1196 638.3759 793.8881C 637.2532 794.6566 628.9627 803.5123 627.3237 803.1342C 625.6847 802.756 609.168 786.1628 608.0211 781.8704C 606.8742 777.5778 597.1738 744.8016 598.1851 738.4587C 599.1964 732.1159 601.1473 725.6199 602.5369 720.844C 599.511 720.598 585.6307 720.1904 584.5261 720.3466C 583.4214 720.5027 561.1388 715.896 559.9171 715.4908C 558.6953 715.0856 539.3512 704.3341 539.7263 702.53C 540.4946 698.8438 556.1902 682.6543 557.0577 681.7447C 557.9252 680.8351 577.7636 670.7391 582.1192 669.8534C 586.4747 668.9677 601.4927 668.8979 601.4927 668.8979C 601.4927 668.8979 595.0475 661.2045 594.5042 659.6406C 593.9607 658.0767 587.2207 637.4097 587.1606 635.7106C 587.1005 634.0116 586.5235 621.0139 587.7992 620.1163C 589.075 619.2186 602.6521 619.5152 605.7289 619.8962C 608.8058 620.2773 629.8821 633.3192 631.7583 634.9851C 633.6345 636.651 638.1764 640.6581 642.0159 644.5033L642.0159 644.5033L643.402 628.3415C 643.402 628.3415 642.5034 606.2273 643.1517 605.5549C 643.8 604.8824 653.0997 605.5483 654.0363 605.7645C 654.9728 605.9805 658.8663 608.5229 659.1905 609.2553C 659.5148 609.9877 652.2578 639.3037 652.2578 639.3037L652.2578 639.3037L651.3995 645.5175C 652.6783 644.2506 654.3382 642.5786 654.3382 642.5786C 654.3382 642.5786 666.7712 634.4731 668.4792 633.8396C 670.1873 633.2062 687.2163 629.9424 689.3686 630.2335C 691.5209 630.5245 709.0365 632.0996 709.724 633.5735C 710.4114 635.0474 707.4733 646.5353 707.2842 647.8892C 707.0952 649.243 699.6214 664.5345 698.9491 666.0234C 698.2767 667.5124 693.5492 673.5732 690.6016 677.0855C 693.5674 678.8384 703.5127 684.5444 706.1694 686.3903C 708.826 688.2363 723.3586 706.8378 724.6855 708.2125C 726.0124 709.5873 738.2819 732.4755 737.8677 734.2705C 737.4535 736.0656 716.7413 740.8635 714.9883 741.1578L714.9883 741.1578L714.9493 741.1488z" stroke="none" fill="#50B0A4" fill-rule="nonzero" /></g></g></g></g><g clip-path="url(#11)"><g clip-path="url(#12)"><g clip-path="url(#13)"><g clip-path="url(#14)"><path id="5" transform="matrix(1 0 0 -1 0 842)" d="M-1.9505 757.3177C -2.834869 763.4886 -2.911896 766.0432 -2.317413 769.7363C -1.88205 772.4453 -1.45282 773.5009 0.2321777 776.1705C 2.748474 780.1309 5.167648 782.3291 9.717682 784.7762C 13.31029 786.7072 19.77289 788.4368 20.15723 787.5671C 20.5779 786.6239 19.47969 780.2758 18.2338 776.4253C 15.67924 768.5547 11.23172 762.7437 2.669373 756.0852L2.669373 756.0852L-1.327347 752.9781L-1.327347 752.9781L-1.9505 757.3177zM17.4592 810.0223C 16.095 811.9209 14.72878 813.9242 14.437 814.4775L14.437 814.4775L13.89209 815.4808L13.89209 815.4808L15.23842 815.6553C 21.7598 816.5002 31.49016 813.3879 39.62735 807.8513C 43.48169 805.2288 46.86476 802.1124 46.29141 801.7028C 45.81033 801.3544 38.85924 800.8132 35.42558 800.8538C 30.02592 800.9182 27.00027 801.7736 23.24216 804.3306C 20.41679 806.2474 19.57835 807.0731 17.4592 810.0223zM0.7891541 826.5115C 0.4374084 823.9972 0.2120819 823.5198 -1.844849 820.8912C -3.673553 818.5483 -5.169556 817.2462 -9.925598 813.8618C -13.13676 811.5756 -16.70892 808.938 -17.87646 808.0055L-17.87646 808.0055L-19.98407 806.3011L-19.98407 806.3011L-20.16742 810.4484C -20.38443 815.4069 -20.09048 817.908 -18.91206 821.2207L-18.91206 821.2207L-18.91975 821.226C -16.53564 827.9135 -9.563171 833.9982 -2.804657 835.2936L-2.804657 835.2936L0.1599731 835.8631L0.1599731 835.8631L0.6711121 832.559C 0.950058 830.7399 1.003571 828.0211 0.7891541 826.5115zM-0.218399 866.0201C 4.599625 867.6279 9.602234 867.1317 15.85246 864.4277C 20.20523 862.5322 24.11247 860.4068 23.86455 860.0424C 23.52844 859.5484 13.52715 857.5837 10.26672 857.3713C 6.144012 857.0999 0.3782349 857.9146 -4.231766 859.4182C -6.315521 860.102 -8.081604 860.6955 -8.168854 860.7548L-8.168854 860.7548L-8.170593 860.7523C -8.906204 861.2546 -3.229767 865.0151 -0.218399 866.0201zM-29.70238 869.8671C -28.84836 863.9026 -31.0287 858.0524 -36.49821 851.6359C -39.78583 847.7724 -40.67574 846.9307 -41.13509 847.2432C -41.27878 847.341 -41.80164 849.0858 -42.29465 851.1199C -43.47585 855.9856 -43.34207 860.1686 -41.89969 863.8555C -40.81989 866.6177 -38.89554 869.6087 -34.40184 875.5236C -33.40758 876.8386 -32.46762 877.8284 -32.31236 877.7227C -31.57635 877.2181 -30.13786 872.8851 -29.70238 869.8671zM-52.0466 899.5516C -50.72261 901.5527 -48.97894 903.8726 -48.18204 904.71C -44.46138 908.6224 -36.26546 911.076 -26.92233 911.0803C -23.85594 911.0737 -21.46741 910.8957 -21.62717 910.6609C -22.61977 909.202 -29.05724 903.4348 -32.14833 901.2338C -36.6357 898.0402 -40.40622 896.0932 -44.41585 894.8983C -48.39267 893.713 -50.10707 893.7177 -52.49196 894.9217L-52.49196 894.9217L-54.50148 895.9436L-54.50148 895.9436L-52.0466 899.5516zM41.28087 773.9322C 48.9216 774.8001 61.58713 770.9146 70.18752 765.0628L70.18752 765.0628L72.52399 763.4731L72.52399 763.4731L70.33638 762.4125C 66.18387 760.4007 58.33551 757.6938 55.70674 757.3669C 48.74087 756.4922 43.51346 758.3878 36.4181 764.3549C 34.11761 766.2899 31.84389 768.278 31.36514 768.769C 30.82677 769.3267 30.65569 769.8974 30.92632 770.2951C 31.5937 771.2733 38.15253 773.5774 41.28087 773.9322zM62.86275 736.3159C 73.58825 733.4744 79.18575 729.2454 86.86453 718.1962L86.86453 718.1962L88.99039 715.1355L88.99039 715.1355L86.38963 715.0844C 82.66689 715.0063 74.60205 716.2214 69.88899 717.5681C 57.94255 720.9794 51.26065 727.0161 49.56969 735.9246C 49.22437 737.7344 49.03857 739.3455 49.15031 739.5098C 49.3489 739.7988 52.45671 739.0752 62.86275 736.3159zM-2.504578 748.1498C -1.417236 748.4762 7.977783 755.7488 10.86362 758.5004C 16.09708 763.4858 20.68024 771.397 22.18681 778.0529L22.18681 778.0529L22.69392 780.2906L22.69392 780.2906L23.37163 778.8535C 23.74423 778.0631 24.61399 775.7688 25.30212 773.7483C 25.99286 771.7316 26.78496 769.646 27.0731 769.1177C 27.35908 768.589 28.57281 765.9368 29.77043 763.2167C 34.44974 752.6035 40.0885 743.6763 43.87611 741.0992C 45.75596 739.7902 45.8185 739.6669 45.95377 737.0822C 46.1196 733.996 47.89415 729.288 50.0392 726.2554C 55.23659 718.9031 64.72491 714.3206 78.62035 712.455C 86.81626 711.3553 91.86728 712.02 92.39687 714.2687C 92.61935 715.2192 89.70835 720.0999 86.50541 724.1487C 78.95828 733.6892 72.29249 737.6503 58.77866 740.6339C 55.58157 741.3395 51.16342 742.5098 48.96085 743.237L48.96085 743.237L44.95945 744.5536L44.95945 744.5536L42.97845 746.8644C 41.21715 748.9188 35.36098 758.7541 34.67025 760.8177C 34.46207 761.4249 34.86527 761.2312 36.42773 759.9523C 40.2348 756.8382 44.82288 754.7451 49.2173 754.1165C 55.39053 753.2386 61.24083 754.5814 71.17 759.163C 76.76469 761.744 77.44936 763.4124 74.11069 766.3541C 68.34778 771.4352 53.55482 777.1212 45.4194 777.3801C 40.18987 777.5483 34.04622 775.8627 30.91444 773.4116L30.91444 773.4116L29.535 772.3305L29.535 772.3305L27.35219 777.9283C 25.01349 783.9288 18.39969 802.2289 18.20088 803.2389C 18.09113 803.6045 18.59641 803.4146 19.61926 802.5648C 23.57049 799.2625 29.50497 797.4434 36.20686 797.486C 42.30653 797.5234 50.1075 798.4944 50.64265 799.2809C 52.55016 802.0844 44.56004 809.9311 35.29321 814.3591C 27.17691 818.2354 18.4675 819.8384 14.68738 818.1532L14.68738 818.1532L13.1001 817.4424L13.1001 817.4424L10.1376 824.7083C 5.530716 836.0155 -0.4907837 847.8948 -5.48317 855.5319C -6.085663 856.4562 -5.906525 856.4656 -3.002045 855.6307C 5.328873 853.2397 12.82114 853.4728 23.94611 856.4655C 29.32608 857.9143 29.78177 858.173 29.61356 859.639C 29.48322 860.7413 29.24021 860.9442 25.0325 863.3397C 14.18492 869.5247 6.536041 871.3484 -0.3750916 869.3872C -3.968979 868.3674 -7.634201 866.1311 -9.115677 863.9537C -9.979172 862.7205 -10.42633 862.364 -10.67401 862.709C -13.65132 866.9929 -22.30957 875.5625 -28.99568 880.8344C -33.62033 884.4766 -35.91068 885.9824 -42.66022 889.8258L-42.66022 889.8258L-45.08258 891.2093L-45.08258 891.2093L-41.81891 892.3561C -35.26695 894.6612 -27.94899 899.4991 -21.83972 905.5648C -16.79803 910.5718 -15.74722 912.5879 -17.53967 913.8075C -18.42883 914.4125 -27.04744 914.6924 -32.20016 914.2865C -37.20261 913.8891 -42.62659 912.29 -46.63206 910.0337C -49.80498 908.2394 -49.86613 908.1909 -53.6051 902.9771C -55.67101 900.0842 -57.65305 897.6375 -57.9893 897.5377C -58.33167 897.4291 -59.20038 897.6034 -59.92966 897.9081C -60.66023 898.2138 -61.80276 898.4712 -62.47581 898.4862L-62.47581 898.4862L-62.4787 898.5013C -63.90579 898.5281 -64.63858 897.6884 -64.008 896.775C -63.76385 896.4193 -61.39633 895.2008 -58.75443 894.049C -56.10641 892.9061 -53.01959 891.5529 -51.88065 891.0557C -48.30434 889.4839 -41.85472 885.8314 -37.85669 883.1112C -34.0511 880.5219 -34.01576 880.4828 -34.76683 879.8038C -36.92769 877.839 -41.77917 871.7322 -43.18524 869.1994C -47.29391 861.8063 -47.56163 854.0635 -44.03268 844.8825C -43.12061 842.5125 -42.53279 841.9474 -41.32988 842.2946C -38.66122 843.0635 -29.74498 854.2864 -27.83923 859.2723C -25.92654 864.2628 -25.65559 869.2047 -27.05228 873.406C -27.48599 874.6997 -27.72758 875.6882 -27.59544 875.5983C -27.46329 875.5083 -25.92021 874.0905 -24.15663 872.4589C -16.17532 865.0461 -9.134338 855.8763 -3.097046 845.0299C -1.808197 842.717 -0.6867065 840.2796 -0.5909424 839.6176C -0.4257202 838.4258 -0.4517517 838.4041 -1.864929 838.5811C -7.186417 839.221 -14.53104 834.5703 -19.29674 827.566C -23.09053 821.9708 -23.91769 818.0681 -23.50522 807.6945C -23.31908 803.0217 -22.66115 801.1775 -21.26144 801.4414C -20.90396 801.5117 -17.43954 803.9522 -13.56346 806.8654C -9.685638 809.7811 -5.245621 813.1121 -3.696304 814.2691C 1.405991 818.0824 4.400909 823.3614 4.296494 828.3447C 4.256607 830.2283 4.208832 830.3208 7.008469 823.4474C 9.867096 816.4399 10.98961 813.4275 15.33368 801.1353L15.33368 801.1353L19.06624 790.59L19.06624 790.59L17.53818 790.8188C 15.83948 791.0699 12.77272 790.2621 9.090439 788.5911C 2.684357 785.6893 -3.228271 779.3884 -5.044922 773.5349C -6.335175 769.3654 -6.512497 764.9942 -5.661102 758.2975C -5.264893 755.1749 -4.920746 751.8267 -4.91095 750.8589C -4.882828 749.0078 -3.774506 747.7732 -2.504578 748.1498z" stroke="none" fill="#A7CA65" fill-rule="nonzero" /></g></g></g></g><g clip-path="url(#15)"><g clip-path="url(#16)"><g clip-path="url(#17)"><g clip-path="url(#18)"><path id="6" transform="matrix(1 0 0 -1 0 842)" d="M134.3516 29.59536C 131.8497 32.76156 119.3866 40.35119 114.6068 39.02338C 112.1717 38.32373 108.8748 37.04103 105.1766 34.90244C 105.6015 39.69568 102.2451 43.50925 101.6534 45.9317C 101.0618 48.35416 92.58658 56.35202 90.75856 57.79753C 88.90672 59.2732 79.76453 57.14326 77.66112 56.70573C 75.55769 56.26819 67.09258 48.94225 66.45532 46.77327C 65.64684 44.0771 64.83055 41.08089 62.87514 36.30283C 60.50711 41.77909 57.08559 45.7371 55.02267 47.04597C 52.95975 48.35484 40.15922 50.73056 37.49364 50.63251C 34.82805 50.53448 21.70313 39.86926 20.40691 37.9143C 19.11071 35.95935 18.34184 29.86568 20.11708 18.63083C 11.23112 22.18949 3.865288 24.01038 0.6505966 23.42945C -2.564087 22.84853 -12.73282 15.69489 -14.48768 13.32853C -16.24255 10.96218 -17.27207 -1.558327 -16.08173 -4.242477C -14.92155 -6.950457 -11.87559 -12.4788 -7.293884 -19.14479C -18.51253 -25.21774 -26.37943 -31.87501 -27.17378 -34.21712C -27.96813 -36.55923 -30.82817 -42.05212 -30.47097 -45.54157C -30.11378 -49.03102 -22.65905 -65.03575 -19.82436 -66.76341C -16.96584 -68.52122 -9.378811 -71.48987 -3.696548 -71.80008C -6.54393 -77.18501 -10.74784 -84.57254 -10.21646 -87.04266C -9.918938 -88.47298 -8.907669 -98.98899 -7.644787 -100.5872C -6.381905 -102.1853 -1.627914 -107.1477 0.4472504 -107.4183C 2.552551 -107.665 14.36856 -106.0673 19.7647 -102.0482C 19.85365 -109.2274 22.43526 -120.119 24.41592 -122.1296C 26.37277 -124.1101 42.63089 -129.4357 45.3802 -128.3898C 48.10568 -127.3138 58.52322 -122.7066 60.86408 -120.7099C 63.20493 -118.7132 63.99805 -113.58 64.61803 -108.2897C 67.5575 -113.5594 69.17294 -115.4177 70.98198 -117.0252C 72.81483 -118.6628 85.73871 -123.4882 88.29782 -123.1314C 90.8569 -122.7746 101.3164 -116.1749 103.9238 -113.7717C 106.5312 -111.3684 110.4625 -94.39968 110.4862 -90.46235C 114.794 -91.76069 120.4807 -91.33265 124.0051 -91.14375C 127.4994 -90.97865 138.7974 -84.69611 141.8731 -82.26566C 144.9488 -79.83521 145.0938 -66.69116 145.6982 -62.00104C 146.3025 -57.31091 142.4131 -54.31044 138.4986 -48.48876C 143.1684 -46.46404 152.3902 -41.08736 154.2612 -39.36395C 156.1322 -37.64053 157.1322 -37.04631 158.5311 -33.98156C 159.8999 -30.94064 160.0671 -18.07283 159.6914 -15.67567C 159.3156 -13.27853 155.5447 -5.530998 154.3723 -3.861328C 152.0863 -0.7204361 142.9629 1.279068 137.4544 3.538971C 138.1418 7.070168 142.2922 13.53368 140.9395 17.16715C 139.5868 20.80063 137.8256 25.38491 134.4182 29.69697L134.4182 29.69697L134.3516 29.59536z" stroke="none" fill="#296251" fill-rule="nonzero" /></g></g></g></g><g clip-path="url(#19)"><g transform="matrix(0.06163707 0 0 0.06170335 475.3274 10.8963)"><g transform="matrix(1 0 0 1 0 0)"><image x="0" y="0" xlink:href="img_02.png" width="1521" height="863" /></g></g></g><g clip-path="url(#20)"><g clip-path="url(#21)"><g clip-path="url(#22)"><g clip-path="url(#23)"><g clip-path="url(#24)"><g transform="matrix(0.5561594 0 0 0.5551948 36.13978 591.3017)"><g transform="matrix(1 0 0 1 0 0)"><image x="0" y="0" xlink:href="img_03.png" width="414" height="308" /></g></g></g></g></g></g></g><g clip-path="url(#25)"></g><g clip-path="url(#26)"><g clip-path="url(#27)"><g clip-path="url(#28)"><g clip-path="url(#29)"><path id="531" transform="matrix(1 0 0 -1 0 842)" d="M338.9613 101.3275L539.931 101.3275L539.931 49.93068L338.9613 49.93068z" stroke="none" fill="#7ED957" fill-rule="nonzero" /></g></g></g></g><g clip-path="url(#30)"><g clip-path="url(#31)"><g clip-path="url(#32)"><g clip-path="url(#33)"><g clip-path="url(#34)"><path id="532" transform="matrix(1 0 0 -1 0 842)" d="M364.4713 101.3275L514.4397 101.3275C 528.5201 101.3275 539.9347 89.91304 539.9347 75.83255L539.9347 75.83255L539.9347 75.43578C 539.9347 61.35529 528.5201 49.94081 514.4397 49.94081L514.4397 49.94081L364.4713 49.94081C 350.3908 49.94081 338.9763 61.35529 338.9763 75.43578L338.9763 75.43578L338.9763 75.83255C 338.9763 89.91304 350.3908 101.3275 364.4713 101.3275z" stroke="#000000" stroke-width="1.5" fill="none" /></g></g></g></g></g><g clip-path="url(#35)"><path id="533" transform="matrix(1 0 0 -1 0 842)" d="M522.7281 58.26054C 522.621 58.75348 522.9337 59.24012 523.4269 59.3471L523.4269 59.3471L527.7226 60.28265C 528.2158 60.38962 528.7026 60.07708 528.8096 59.58414C 528.9167 59.09119 528.604 58.60455 528.1108 58.49757L528.1108 58.49757L523.8151 57.56203C 523.322 57.45295 522.8351 57.76759 522.7281 58.26054zM519.6453 62.65925C 519.2172 62.92775 519.0871 63.48991 519.3557 63.91783L519.3557 63.91783L521.6914 67.64111C 521.96 68.06902 522.5224 68.19907 522.9505 67.93058C 523.3786 67.66209 523.5087 67.09992 523.2401 66.672L523.2401 66.672L520.9066 62.94872C 520.6379 62.52081 520.0734 62.39075 519.6453 62.65925zM508.7098 54.94209C 508.8169 54.44915 508.5042 53.9625 508.011 53.85552L508.011 53.85552L503.7153 52.91998C 503.2221 52.813 502.7353 53.12555 502.6283 53.61849C 502.5212 54.11143 502.8339 54.59808 503.3271 54.70506L503.3271 54.70506L507.6228 55.6406C 508.1159 55.74758 508.6028 55.43504 508.7098 54.94209zM509.5723 60.4945C 509.3037 60.06659 508.7413 59.93653 508.3132 60.20503L508.3132 60.20503L504.5862 62.53969C 504.1581 62.80818 504.028 63.37035 504.2966 63.79826C 504.5652 64.22618 505.1276 64.35623 505.5557 64.08773L505.5557 64.08773L509.2806 61.75518C 509.7108 61.48668 509.8388 60.92242 509.5723 60.4945zM514.1682 63.61367C 513.675 63.50669 513.1881 63.81924 513.0811 64.31218L513.0811 64.31218L512.1472 68.60602C 512.0402 69.09896 512.3529 69.58561 512.8461 69.69259C 513.3392 69.79957 513.826 69.48701 513.9331 68.99408L513.9331 68.99408L514.869 64.70024C 514.9739 64.2073 514.6613 63.72065 514.1682 63.61367zM535.6404 25.29218C 535.0927 23.10016 533.3383 21.19551 531.2104 20.43618C 529.9869 19.99987 528.6627 19.91387 527.3743 19.93275C 526.0081 19.95163 524.6398 20.0607 523.2758 20.14042C 522.5833 20.18027 521.8907 20.22222 521.2003 20.26837C 520.5477 20.31242 519.8887 20.32501 519.2382 20.38794C 518.7198 20.43828 518.2309 20.57253 517.8217 20.90815C 517.381 21.26894 516.9991 21.71363 516.5961 22.11637C 514.6361 24.07556 512.6761 26.03474 510.716 27.99392C 508.9721 29.73705 507.2282 31.48017 505.4844 33.22329C 505.2535 33.45404 505.0269 33.67428 504.859 33.95956C 504.6366 34.33923 504.5253 34.77134 504.5295 35.21184C 504.54 36.15158 505.1381 37.09341 506.051 37.39127C 506.5987 37.57167 507.1926 37.55698 507.7277 37.34093C 508.0047 37.22976 508.2649 37.05355 508.523 36.90462C 508.7854 36.75359 509.0477 36.60257 509.31 36.44944C 510.3572 35.84532 511.4023 35.24121 512.4494 34.63709C 512.5334 34.58885 512.6173 34.5406 512.7012 34.49236C 513.0454 34.29308 513.4903 34.54689 513.4903 34.94544C 513.4903 35.45516 513.4903 35.96489 513.4903 36.47461C 513.4903 37.75416 513.4903 39.03581 513.4903 40.31536C 513.4903 41.99346 513.4903 43.67365 513.4903 45.35175C 513.4903 47.05712 513.4903 48.76249 513.4903 50.46576C 513.4903 51.81873 513.4903 53.1717 513.4903 54.52467C 513.4903 55.16863 513.4882 55.81261 513.4903 56.45657C 513.4945 57.2264 513.8323 57.95638 514.4536 58.42205C 515.4293 59.14993 516.8249 59.01987 517.6601 58.13887C 518.1553 57.61656 518.3107 56.96001 518.3107 56.2636C 518.3107 55.77695 518.3107 55.2903 518.3107 54.80365C 518.3107 53.15701 518.3107 51.51038 518.3107 49.86584C 518.3107 48.62195 518.3107 47.37806 518.3107 46.13417C 518.3107 46.06914 518.3107 46.00202 518.3107 45.93699C 518.3107 45.26155 519.3515 45.26155 519.3599 45.93699C 519.3788 47.48714 520.8625 48.67439 522.3839 48.26955C 523.2191 48.0472 523.8802 47.38645 524.1005 46.55369C 524.2222 46.09641 524.1802 45.59508 524.1802 45.12731C 524.1802 44.65115 524.1802 44.17709 524.1802 43.70092C 524.1802 43.02549 525.2211 43.02549 525.2296 43.70092C 525.2484 45.25317 526.7321 46.43203 528.2556 46.03138C 529.0887 45.81113 529.7519 45.14619 529.9722 44.31553C 530.0919 43.86873 530.0499 43.38418 530.0499 42.9269C 530.0499 42.44654 530.0499 41.96619 530.0499 41.48583C 530.0499 40.81039 531.0908 40.81039 531.0991 41.48583C 531.1138 42.67938 532.0099 43.74287 533.2166 43.88132C 534.6499 44.04493 535.8985 42.91641 535.9195 41.48583C 535.9195 38.73794 535.9195 35.99215 535.9195 33.24427C 535.9195 31.83676 535.9195 30.42716 535.9195 29.01965C 535.9216 27.77157 535.9447 26.5067 535.6404 25.29218zM536.9709 30.63902C 536.9709 33.53794 536.9709 36.43476 536.9709 39.33367C 536.9709 40.04896 536.9709 40.76635 536.9709 41.48164C 536.9478 43.02549 535.9153 44.42251 534.4044 44.82315C 533.2124 45.1378 531.947 44.7812 531.0845 43.93586C 531.0635 44.23582 531.0152 44.53578 530.9124 44.82525C 530.5283 45.89504 529.6428 46.74458 528.5368 47.03825C 527.5694 47.29416 526.4844 47.11795 525.6682 46.53272C 525.5065 46.41735 525.3575 46.28939 525.2191 46.15095C 525.1981 46.4593 525.1498 46.76556 525.0449 47.06342C 524.665 48.12272 523.8004 48.95967 522.7092 49.26592C 521.7313 49.53861 520.6274 49.36241 519.8006 48.77088C 519.6453 48.65971 519.5005 48.53595 519.3662 48.4038C 519.3662 48.52966 519.3662 48.65342 519.3662 48.77927C 519.3662 50.50142 519.3662 52.22357 519.3662 53.94362C 519.3662 54.5813 519.3662 55.21688 519.3662 55.85456C 519.3662 56.27199 519.3767 56.68102 519.3096 57.09425C 519.0661 58.61294 517.7524 59.75824 516.2499 59.92395C 514.9446 60.06869 513.6414 59.40164 512.9552 58.2899C 512.4221 57.42568 512.4473 56.50063 512.4473 55.53992C 512.4473 54.37154 512.4473 53.20107 512.4473 52.03269C 512.4473 50.36088 512.4473 48.68908 512.4473 47.01937C 512.4473 45.25107 512.4473 43.48277 512.4473 41.71238C 512.4473 40.25243 512.4473 38.79458 512.4473 37.33464C 512.4473 36.84169 512.4389 36.34456 512.4389 35.85162C 511.7716 36.23758 511.1022 36.62354 510.4348 37.0074C 510.0739 37.21507 509.7129 37.42483 509.3499 37.6325C 508.7581 37.97441 508.1747 38.36457 507.4927 38.49043C 506.158 38.73584 504.8506 38.21773 504.0783 37.0997C 503.4677 36.2187 503.3166 35.01466 503.688 34.0078C 503.9755 33.22958 504.5232 32.69888 505.0941 32.12833C 506.0804 31.14244 507.0688 30.15446 508.0551 29.16858C 510.1201 27.10452 512.1829 25.04255 514.2479 22.97849C 514.762 22.46457 515.274 21.95275 515.7882 21.43884C 516.2163 21.01092 516.6234 20.54734 517.0872 20.15718C 517.5677 19.75444 518.1029 19.50063 518.722 19.39785C 519.4061 19.28458 520.1028 19.28667 520.7932 19.23843C 522.2454 19.13774 523.6997 19.05594 525.154 18.97623C 526.5537 18.89862 527.9556 18.80212 529.3531 18.96154C 530.6962 19.11467 531.9827 19.47546 533.1263 20.20963C 534.1546 20.87038 535.0276 21.75348 535.6866 22.78131C 536.4084 23.90774 536.7715 25.15792 536.9016 26.48152C 537.0296 27.86386 536.9709 29.26088 536.9709 30.63902z" stroke="none" fill="#000000" fill-rule="nonzero" /></g><g clip-path="url(#36)"></g></g></g></svg>