<svg xmlns="http://www.w3.org/2000/svg" xmlns:xlink="http://www.w3.org/1999/xlink" id="body_1" preserveAspectRatio="xMinYMin meet" viewBox="0 0 793 1123"><defs><clipPath id="1"><path id="" clip-rule="evenodd" transform="matrix(1 0 0 1 0 0)" d="M0 842L0 -0.25L0 -0.25L595.5 -0.25L595.5 -0.25L595.5 842L595.5 842L0 842z" /></clipPath><clipPath id="2"><path id="" clip-rule="evenodd" transform="matrix(1 0 0 1 0 0)" d="M0 -0.249939L595.5 -0.249939L595.5 -0.249939L595.5 842.0001L595.5 842.0001L0 842.0001z" /></clipPath><clipPath id="3"><path id="" clip-rule="evenodd" transform="matrix(1 0 0 1 0 0)" d="M0 -0.249939L595.5 -0.249939L595.5 -0.249939L595.5 842.0001L595.5 842.0001L0 842.0001z" /></clipPath><clipPath id="4"><path id="" clip-rule="evenodd" transform="matrix(1 0 0 1 0 0)" d="M0 -0.249939L595.5 -0.249939L595.5 -0.249939L595.5 842.0001L595.5 842.0001L0 842.0001z" /></clipPath><clipPath id="5"><path id="" clip-rule="evenodd" transform="matrix(1 0 0 1 0 0)" d="M80.88 18.95007L537.12 18.95007L537.12 18.95007L537.12 823.1901L537.12 823.1901L80.88 823.1901z" /></clipPath><clipPath id="6"><path id="" clip-rule="evenodd" transform="matrix(1 0 0 1 0 0)" d="M81.0154 19.05255L537.0154 19.05255L537.0154 19.05255L537.0154 822.3026L537.0154 822.3026L81.0154 822.3026z" /></clipPath><clipPath id="7"><path id="" clip-rule="evenodd" transform="matrix(1 0 0 1 0 0)" d="M466.4401 23.61578L551.1901 23.61578L551.1901 23.61578L551.1901 71.61578L551.1901 71.61578L466.4401 71.61578z" /></clipPath><clipPath id="8"><path id="" clip-rule="evenodd" transform="matrix(1 0 0 1 0 0)" d="M38.88756 10.32037L128.8876 10.32037L128.8876 10.32037L128.8876 89.82037L128.8876 89.82037L38.88756 89.82037z" /></clipPath><clipPath id="9"><path id="" clip-rule="evenodd" transform="matrix(1 0 0 1 0 0)" d="M0 -0.249939L595.5 -0.249939L595.5 -0.249939L595.5 842.0001L595.5 842.0001L0 842.0001z" /></clipPath><clipPath id="10"><path id="" clip-rule="evenodd" transform="matrix(1 0 0 1 0 0)" d="M0 -0.249939L595.5 -0.249939L595.5 -0.249939L595.5 842.0001L595.5 842.0001L0 842.0001z" /></clipPath><clipPath id="11"><path id="" clip-rule="evenodd" transform="matrix(1 0 0 1 0 0)" d="M32.98094 122.7909L406.4796 122.7909L406.4796 122.7909L406.4796 325.3665L406.4796 325.3665L32.98094 325.3665z" /></clipPath><clipPath id="12"><path id="" clip-rule="evenodd" transform="matrix(1 0 0 1 0 0)" d="M52.48094 122.7909L386.8839 122.7909C 397.6534 122.7909 406.3839 131.5214 406.3839 142.2909L406.3839 142.2909L406.3839 305.8665C 406.3839 316.636 397.6534 325.3665 386.8839 325.3665L386.8839 325.3665L52.48094 325.3665C 41.71138 325.3665 32.98094 316.636 32.98094 305.8665L32.98094 305.8665L32.98094 142.2909C 32.98094 131.5214 41.71138 122.7909 52.48094 122.7909z" /></clipPath><clipPath id="13"><path id="" clip-rule="evenodd" transform="matrix(1 0 0 1 0 0)" d="M0 -0.249939L595.5 -0.249939L595.5 -0.249939L595.5 842.0001L595.5 842.0001L0 842.0001z" /></clipPath><clipPath id="14"><path id="" clip-rule="evenodd" transform="matrix(1 0 0 1 0 0)" d="M0 -0.249939L595.5 -0.249939L595.5 -0.249939L595.5 842.0001L595.5 842.0001L0 842.0001z" /></clipPath><clipPath id="15"><path id="" clip-rule="evenodd" transform="matrix(1 0 0 1 0 0)" d="M0 -0.249939L595.5 -0.249939L595.5 -0.249939L595.5 842.0001L595.5 842.0001L0 842.0001z" /></clipPath><clipPath id="16"><path id="" clip-rule="evenodd" transform="matrix(1 0 0 1 0 0)" d="M281.0599 349.465L573.0536 349.465L573.0536 349.465L573.0536 552.0405L573.0536 552.0405L281.0599 552.0405z" /></clipPath><clipPath id="17"><path id="" clip-rule="evenodd" transform="matrix(1 0 0 1 0 0)" d="M300.5599 349.465L553.2773 349.465C 564.0469 349.465 572.7773 358.1954 572.7773 368.965L572.7773 368.965L572.7773 532.5405C 572.7773 543.3101 564.0469 552.0405 553.2773 552.0405L553.2773 552.0405L300.5599 552.0405C 289.7903 552.0405 281.0599 543.3101 281.0599 532.5405L281.0599 532.5405L281.0599 368.965C 281.0599 358.1954 289.7903 349.465 300.5599 349.465z" /></clipPath><clipPath id="18"><path id="" clip-rule="evenodd" transform="matrix(1 0 0 1 0 0)" d="M0 -0.249939L595.5 -0.249939L595.5 -0.249939L595.5 842.0001L595.5 842.0001L0 842.0001z" /></clipPath><clipPath id="19"><path id="" clip-rule="evenodd" transform="matrix(1 0 0 1 0 0)" d="M0 -0.249939L595.5 -0.249939L595.5 -0.249939L595.5 842.0001L595.5 842.0001L0 842.0001z" /></clipPath><clipPath id="20"><path id="" clip-rule="evenodd" transform="matrix(1 0 0 1 0 0)" d="M0 -0.249939L595.5 -0.249939L595.5 -0.249939L595.5 842.0001L595.5 842.0001L0 842.0001z" /></clipPath><clipPath id="21"><path id="" clip-rule="evenodd" transform="matrix(1 0 0 1 0 0)" d="M29.59681 585.3578L284.9269 585.3578L284.9269 585.3578L284.9269 801.7965L284.9269 801.7965L29.59681 801.7965z" /></clipPath><clipPath id="22"><path id="" clip-rule="evenodd" transform="matrix(1 0 0 1 0 0)" d="M49.09681 585.3578L264.9402 585.3578C 275.7098 585.3578 284.4402 594.0883 284.4402 604.8578L284.4402 604.8578L284.4402 782.2965C 284.4402 793.066 275.7098 801.7965 264.9402 801.7965L264.9402 801.7965L49.09681 801.7965C 38.32726 801.7965 29.59681 793.066 29.59681 782.2965L29.59681 782.2965L29.59681 604.8578C 29.59681 594.0883 38.32726 585.3578 49.09681 585.3578z" /></clipPath><clipPath id="23"><path id="" clip-rule="evenodd" transform="matrix(1 0 0 1 0 0)" d="M0 -0.249939L595.5 -0.249939L595.5 -0.249939L595.5 842.0001L595.5 842.0001L0 842.0001z" /></clipPath><clipPath id="24"><path id="" clip-rule="evenodd" transform="matrix(1 0 0 1 0 0)" d="M0 -0.249939L595.5 -0.249939L595.5 -0.249939L595.5 842.0001L595.5 842.0001L0 842.0001z" /></clipPath><clipPath id="25"><path id="" clip-rule="evenodd" transform="matrix(1 0 0 1 0 0)" d="M0 -0.249939L595.5 -0.249939L595.5 -0.249939L595.5 842.0001L595.5 842.0001L0 842.0001z" /></clipPath><clipPath id="26"><path id="" clip-rule="evenodd" transform="matrix(1 0 0 1 0 0)" d="M412.5147 171.4288L573.0148 171.4288L573.0148 171.4288L573.0148 271.1788L573.0148 271.1788L412.5147 271.1788z" /></clipPath><clipPath id="27"><path id="" clip-rule="evenodd" transform="matrix(1 0 0 1 0 0)" d="M412.5147 199.1788L412.5147 242.965C 412.5147 258.2909 424.9388 270.715 440.2647 270.715L440.2647 270.715L545.0273 270.715C 560.3532 270.715 572.7773 258.2909 572.7773 242.965L572.7773 242.965L572.7773 199.1788C 572.7773 183.8529 560.3532 171.4288 545.0273 171.4288L545.0273 171.4288L440.2647 171.4288C 424.9388 171.4288 412.5147 183.8529 412.5147 199.1788z" /></clipPath><clipPath id="28"><path id="" clip-rule="evenodd" transform="matrix(1 0 0 1 0 0)" d="M412.5147 171.4288L573.0148 171.4288L573.0148 171.4288L573.0148 270.4288L573.0148 270.4288L412.5147 270.4288z" /></clipPath><clipPath id="29"><path id="" clip-rule="evenodd" transform="matrix(1 0 0 1 0 0)" d="M0 -0.249939L595.5 -0.249939L595.5 -0.249939L595.5 842.0001L595.5 842.0001L0 842.0001z" /></clipPath><clipPath id="30"><path id="" clip-rule="evenodd" transform="matrix(1 0 0 1 0 0)" d="M0 -0.249939L595.5 -0.249939L595.5 -0.249939L595.5 842.0001L595.5 842.0001L0 842.0001z" /></clipPath><clipPath id="31"><path id="" clip-rule="evenodd" transform="matrix(1 0 0 1 0 0)" d="M32.98094 366.3945L263.2309 366.3945L263.2309 366.3945L263.2309 518.6445L263.2309 518.6445L32.98094 518.6445z" /></clipPath><clipPath id="32"><path id="" clip-rule="evenodd" transform="matrix(1 0 0 1 0 0)" d="M32.98094 394.1445L32.98094 490.8897C 32.98094 506.2156 45.40504 518.6397 60.73094 518.6397L60.73094 518.6397L235.3094 518.6397C 250.6353 518.6397 263.0594 506.2156 263.0594 490.8897L263.0594 490.8897L263.0594 394.1445C 263.0594 378.8186 250.6353 366.3945 235.3094 366.3945L235.3094 366.3945L60.73094 366.3945C 45.40504 366.3945 32.98094 378.8186 32.98094 394.1445z" /></clipPath><clipPath id="33"><path id="" clip-rule="evenodd" transform="matrix(1 0 0 1 0 0)" d="M32.98094 366.3945L263.2309 366.3945L263.2309 366.3945L263.2309 518.6445L263.2309 518.6445L32.98094 518.6445z" /></clipPath><clipPath id="34"><path id="" clip-rule="evenodd" transform="matrix(1 0 0 1 0 0)" d="M0 -0.249939L595.5 -0.249939L595.5 -0.249939L595.5 842.0001L595.5 842.0001L0 842.0001z" /></clipPath><clipPath id="35"><path id="" clip-rule="evenodd" transform="matrix(1 0 0 1 0 0)" d="M0 -0.249939L595.5 -0.249939L595.5 -0.249939L595.5 842.0001L595.5 842.0001L0 842.0001z" /></clipPath><clipPath id="36"><path id="" clip-rule="evenodd" transform="matrix(1 0 0 1 0 0)" d="M297.6378 713.3651L423.6378 713.3651L423.6378 713.3651L423.6378 809.3651L423.6378 809.3651L297.6378 809.3651z" /></clipPath><clipPath id="37"><path id="" clip-rule="evenodd" transform="matrix(1 0 0 1 0 0)" d="M297.6378 741.1151L297.6378 781.36C 297.6378 796.6859 310.0619 809.11 325.3878 809.11L325.3878 809.11L395.2265 809.11C 410.5524 809.11 422.9765 796.6859 422.9765 781.36L422.9765 781.36L422.9765 741.1151C 422.9765 725.7892 410.5524 713.3651 395.2265 713.3651L395.2265 713.3651L325.3878 713.3651C 310.0619 713.3651 297.6378 725.7892 297.6378 741.1151z" /></clipPath><clipPath id="38"><path id="" clip-rule="evenodd" transform="matrix(1 0 0 1 0 0)" d="M297.6378 713.3651L422.8878 713.3651L422.8878 713.3651L422.8878 809.3651L422.8878 809.3651L297.6378 809.3651z" /></clipPath><clipPath id="39"><path id="" clip-rule="evenodd" transform="matrix(1 0 0 1 0 0)" d="M0 -0.249939L595.5 -0.249939L595.5 -0.249939L595.5 842.0001L595.5 842.0001L0 842.0001z" /></clipPath><clipPath id="40"><path id="" clip-rule="evenodd" transform="matrix(1 0 0 1 0 0)" d="M0 -0.249939L595.5 -0.249939L595.5 -0.249939L595.5 842.0001L595.5 842.0001L0 842.0001z" /></clipPath><clipPath id="41"><path id="" clip-rule="evenodd" transform="matrix(1 0 0 1 0 0)" d="M423.5345 623.0981L572.7845 623.0981L572.7845 623.0981L572.7845 764.0981L572.7845 764.0981L423.5345 764.0981z" /></clipPath><clipPath id="42"><path id="" clip-rule="evenodd" transform="matrix(1 0 0 1 0 0)" d="M423.5345 650.8481L423.5345 736.3062C 423.5345 751.6321 435.9586 764.0562 451.2845 764.0562L451.2845 764.0562L545.0273 764.0562C 560.3532 764.0562 572.7773 751.6321 572.7773 736.3062L572.7773 736.3062L572.7773 650.8481C 572.7773 635.5222 560.3532 623.0981 545.0273 623.0981L545.0273 623.0981L451.2845 623.0981C 435.9586 623.0981 423.5345 635.5222 423.5345 650.8481z" /></clipPath><clipPath id="43"><path id="" clip-rule="evenodd" transform="matrix(1 0 0 1 0 0)" d="M423.5345 623.0981L572.7845 623.0981L572.7845 623.0981L572.7845 764.0981L572.7845 764.0981L423.5345 764.0981z" /></clipPath><clipPath id="44"><path id="" clip-rule="evenodd" transform="matrix(1 0 0 1 0 0)" d="M0 -0.249939L595.5 -0.249939L595.5 -0.249939L595.5 842.0001L595.5 842.0001L0 842.0001z" /></clipPath><clipPath id="45"><path id="" clip-rule="evenodd" transform="matrix(1 0 0 1 0 0)" d="M0 -0.249939L595.5 -0.249939L595.5 -0.249939L595.5 842.0001L595.5 842.0001L0 842.0001z" /></clipPath><clipPath id="46"><path id="" clip-rule="evenodd" transform="matrix(1 0 0 1 0 0)" d="M305.9555 578.0443L414.7054 578.0443L414.7054 578.0443L414.7054 700.2943L414.7054 700.2943L305.9555 700.2943z" /></clipPath><clipPath id="47"><path id="" clip-rule="evenodd" transform="matrix(1 0 0 1 0 0)" d="M305.9555 605.7943L305.9555 672.1152C 305.9555 687.441 318.3796 699.8652 333.7055 699.8652L333.7055 699.8652L386.9089 699.8652C 402.2348 699.8652 414.6589 687.441 414.6589 672.1152L414.6589 672.1152L414.6589 605.7943C 414.6589 590.4684 402.2348 578.0443 386.9089 578.0443L386.9089 578.0443L333.7055 578.0443C 318.3796 578.0443 305.9555 590.4684 305.9555 605.7943z" /></clipPath><clipPath id="48"><path id="" clip-rule="evenodd" transform="matrix(1 0 0 1 0 0)" d="M305.9555 578.0443L414.7054 578.0443L414.7054 578.0443L414.7054 699.5443L414.7054 699.5443L305.9555 699.5443z" /></clipPath></defs><g transform="matrix(1.333333 0 0 1.333333 0 0)"><g clip-path="url(#1)"><g clip-path="url(#2)"><path id="1" transform="matrix(1 0 0 -1 0 842)" d="M0 842.2499L595.4999 842.2499L595.4999 -6.103516E-05L0 -6.103516E-05z" stroke="none" fill="#FFFFFF" fill-rule="nonzero" /></g><g clip-path="url(#3)"><path id="2" transform="matrix(1 0 0 -1 0 842)" d="M0 842.2499L595.4999 842.2499L595.4999 -6.103516E-05L0 -6.103516E-05z" stroke="none" fill="#FFFFFF" fill-rule="nonzero" /></g><g clip-path="url(#4)"><g><g clip-path="url(#5)"><g clip-path="url(#6)"><g transform="matrix(0 0.5281065 -0.5283893 0 537.0154 19.05261)"><g transform="matrix(1 0 0 1 0 0)"><image x="0" y="0" xlink:href="img_01.png" width="1521" height="863" /></g></g></g></g></g></g><g clip-path="url(#7)"><g transform="matrix(0.05571992 0 0 0.05561992 466.4401 23.61584)"><g transform="matrix(1 0 0 1 0 0)"><image x="0" y="0" xlink:href="img_02.png" width="1521" height="863" /></g></g></g><g clip-path="url(#8)"><g transform="matrix(0.4225352 0 0 0.4228723 38.88755 10.32037)"><g transform="matrix(1 0 0 1 0 0)"><image x="0" y="0" xlink:href="img_03.png" width="213" height="188" /></g></g></g><g clip-path="url(#9)"><g clip-path="url(#10)"><g clip-path="url(#11)"><g clip-path="url(#12)"><path id="6" transform="matrix(1 0 0 -1 0 842)" d="M32.98094 719.209L406.4796 719.209L406.4796 516.6335L32.98094 516.6335z" stroke="none" fill="#D6E0E5" fill-rule="nonzero" /></g></g></g></g><g clip-path="url(#13)"></g><g clip-path="url(#14)"><g clip-path="url(#15)"><g clip-path="url(#16)"><g clip-path="url(#17)"><path id="360" transform="matrix(1 0 0 -1 0 842)" d="M281.0599 492.535L573.0536 492.535L573.0536 289.9594L281.0599 289.9594z" stroke="none" fill="#D6E0E5" fill-rule="nonzero" /></g></g></g></g><g clip-path="url(#18)"></g><g clip-path="url(#19)"><g clip-path="url(#20)"><g clip-path="url(#21)"><g clip-path="url(#22)"><path id="620" transform="matrix(1 0 0 -1 0 842)" d="M29.59681 256.6422L284.0814 256.6422L284.0814 40.20346L29.59681 40.20346z" stroke="none" fill="#D6E0E5" fill-rule="nonzero" /></g></g></g></g><g clip-path="url(#23)"></g><g clip-path="url(#24)"><g clip-path="url(#25)"><g clip-path="url(#26)"><g clip-path="url(#27)"><g clip-path="url(#28)"><g transform="matrix(0.5314569 0 0 0.5294117 412.5147 171.4288)"><g transform="matrix(1 0 0 1 0 0)"><image x="0" y="0" xlink:href="img_04.png" width="302" height="187" /></g></g></g></g></g></g></g><g clip-path="url(#29)"><g clip-path="url(#30)"><g clip-path="url(#31)"><g clip-path="url(#32)"><g clip-path="url(#33)"><g transform="matrix(0.6107426 0 0 0.609 32.98094 366.3945)"><g transform="matrix(1 0 0 1 0 0)"><image x="0" y="0" xlink:href="img_05.png" width="377" height="250" /></g></g></g></g></g></g></g><g clip-path="url(#34)"><g clip-path="url(#35)"><g clip-path="url(#36)"><g clip-path="url(#37)"><g clip-path="url(#38)"><g transform="matrix(0.6109756 0 0 0.6112499 297.6378 686.7088)"><g transform="matrix(1 0 0 1 0 0)"><image x="0" y="0" xlink:href="img_06.png" width="205" height="200" /></g></g></g></g></g></g></g><g clip-path="url(#39)"><g clip-path="url(#40)"><g clip-path="url(#41)"><g clip-path="url(#42)"><g clip-path="url(#43)"><g transform="matrix(0.6259615 0 0 0.6266666 410.3936 623.0981)"><g transform="matrix(1 0 0 1 0 0)"><image x="0" y="0" xlink:href="img_07.png" width="260" height="225" /></g></g></g></g></g></g></g><g clip-path="url(#44)"><g clip-path="url(#45)"><g clip-path="url(#46)"><g clip-path="url(#47)"><g clip-path="url(#48)"><g transform="matrix(0.5897436 0 0 0.5892857 297.421 570.4698)"><g transform="matrix(1 0 0 1 0 0)"><image x="0" y="0" xlink:href="img_08.png" width="234" height="224" /></g></g></g></g></g></g></g></g></g></svg>