<svg xmlns="http://www.w3.org/2000/svg" xmlns:xlink="http://www.w3.org/1999/xlink" id="body_1" preserveAspectRatio="xMinYMin meet" viewBox="0 0 793 1123"><defs><clipPath id="1"><path id="" clip-rule="evenodd" transform="matrix(1 0 0 1 0 0)" d="M0 842L0 -0.250061L0 -0.250061L595.5 -0.250061L595.5 -0.250061L595.5 842L595.5 842L0 842z" /></clipPath><clipPath id="2"><path id="" clip-rule="evenodd" transform="matrix(1 0 0 1 0 0)" d="M0 -0.25L595.5 -0.25L595.5 -0.25L595.5 842.0012L595.5 842.0012L0 842.0012z" /></clipPath><clipPath id="3"><path id="" clip-rule="evenodd" transform="matrix(1 0 0 1 0 0)" d="M0 -0.25L595.5 -0.25L595.5 -0.25L595.5 842.0012L595.5 842.0012L0 842.0012z" /></clipPath><clipPath id="4"><path id="" clip-rule="evenodd" transform="matrix(1 0 0 1 0 0)" d="M0 -0.25L595.5 -0.25L595.5 -0.25L595.5 842.0012L595.5 842.0012L0 842.0012z" /></clipPath><clipPath id="5"><path id="" clip-rule="evenodd" transform="matrix(1 0 0 1 0 0)" d="M78.71999 30.71002L522.24 30.71002L522.24 30.71002L522.24 810.95L522.24 810.95L78.71999 810.95z" /></clipPath><clipPath id="6"><path id="" clip-rule="evenodd" transform="matrix(1 0 0 1 0 0)" d="M79.51786 30.75177L522.0178 30.75177L522.0178 30.75177L522.0178 810.7518L522.0178 810.7518L79.51786 810.7518z" /></clipPath><clipPath id="7"><path id="" clip-rule="evenodd" transform="matrix(1 0 0 1 0 0)" d="M0 -0.25L595.5 -0.25L595.5 -0.25L595.5 842.0012L595.5 842.0012L0 842.0012z" /></clipPath><clipPath id="8"><path id="" clip-rule="evenodd" transform="matrix(1 0 0 1 0 0)" d="M0 -0.25L595.5 -0.25L595.5 -0.25L595.5 842.0012L595.5 842.0012L0 842.0012z" /></clipPath><clipPath id="9"><path id="" clip-rule="evenodd" transform="matrix(1 0 0 1 0 0)" d="M48.46128 8.540771L295.9949 8.540771L295.9949 8.540771L295.9949 259.9431L295.9949 259.9431L48.46128 259.9431z" /></clipPath><clipPath id="10"><path id="" clip-rule="evenodd" transform="matrix(1 0 0 1 0 0)" d="M76.21128 8.540771L268.2456 8.540771C 275.604 8.540771 282.6624 11.46442 287.868 16.66852C 293.0712 21.87268 295.9944 28.93091 295.9944 36.29071L295.9944 36.29071L295.9944 231.3939C 295.9944 238.7535 293.0712 245.8124 287.868 251.0156C 282.6624 256.2212 275.604 259.1444 268.2456 259.1444L268.2456 259.1444L76.21128 259.1444C 68.85168 259.1444 61.79327 256.2212 56.58912 251.0156C 51.38496 245.8124 48.46128 238.7535 48.46128 231.3939L48.46128 231.3939L48.46128 36.29071C 48.46128 28.93091 51.38496 21.87268 56.58912 16.66852C 61.79327 11.46442 68.85168 8.540771 76.21128 8.540771z" /></clipPath><clipPath id="11"><path id="" clip-rule="evenodd" transform="matrix(1 0 0 1 0 0)" d="M53.2212 219.1993L290.9712 219.1993L290.9712 219.1993L290.9712 224.4493L290.9712 224.4493L53.2212 224.4493z" /></clipPath><clipPath id="12"><path id="" clip-rule="evenodd" transform="matrix(1 0 0 1 0 0)" d="M53.04 219.11L291.12 219.11L291.12 219.11L291.12 224.6301L291.12 224.6301L53.04 224.6301z" /></clipPath><mask id="m1"><clipPath id="13"><path id="" clip-rule="evenodd" transform="matrix(1 0 0 1 0 0)" d="M53.04 219.11L291.12 219.11L291.12 219.11L291.12 224.6301L291.12 224.6301L53.04 224.6301z" /></clipPath><g><g><g clip-path="url(#13)"><path id="5" transform="matrix(1 0 0 -1 0 842)" d="M53.04 622.89L291.12 622.89L291.12 617.3699L53.04 617.3699z" stroke="none" fill="#000000" fill-rule="nonzero" /></g></g></g></mask><clipPath id="14"><path id="" clip-rule="evenodd" transform="matrix(1 0 0 1 0 0)" d="M53.04 219.11L291.12 219.11L291.12 219.11L291.12 224.6301L291.12 224.6301L53.04 224.6301z" /></clipPath><clipPath id="15"><path id="" clip-rule="evenodd" transform="matrix(1 0 0 1 0 0)" d="M52.8 219.2815L291.36 219.2815L291.36 219.2815L291.36 224.5427L291.36 224.5427L52.8 224.5427z" /></clipPath><mask id="m2"><clipPath id="16"><path id="" clip-rule="evenodd" transform="matrix(1 0 0 1 0 0)" d="M53.04 219.11L291.12 219.11L291.12 219.11L291.12 224.6301L291.12 224.6301L53.04 224.6301z" /></clipPath><clipPath id="17"><path id="" clip-rule="evenodd" transform="matrix(1 0 0 1 0 0)" d="M53.04 219.11L291.12 219.11L291.12 219.11L291.12 224.6301L291.12 224.6301L53.04 224.6301z" /></clipPath><clipPath id="18"><path id="" clip-rule="evenodd" transform="matrix(1 0 0 1 0 0)" d="M53.24369 219.2815L290.959 219.2815L290.959 219.2815L290.959 224.3323L290.959 224.3323L53.24369 224.3323z" /></clipPath><g><g><g clip-path="url(#16)"><g><g clip-path="url(#17)"><g clip-path="url(#18)"><g transform="matrix(0.24 0 0 0.24 53.04 219.11)"><g transform="matrix(1 0 0 1 0 0)"><image x="0" y="0" xlink:href="img_02.png" width="992" height="22" /></g></g></g></g></g></g></g></g></mask><clipPath id="19"><path id="" clip-rule="evenodd" transform="matrix(1 0 0 1 0 0)" d="M53.04 219.11L291.12 219.11L291.12 219.11L291.12 224.6301L291.12 224.6301L53.04 224.6301z" /></clipPath><clipPath id="20"><path id="" clip-rule="evenodd" transform="matrix(1 0 0 1 0 0)" d="M52.8 219.2815L291.36 219.2815L291.36 219.2815L291.36 224.5427L291.36 224.5427L52.8 224.5427z" /></clipPath><clipPath id="21"><path id="" clip-rule="evenodd" transform="matrix(1 0 0 1 0 0)" d="M0 -0.25L595.5 -0.25L595.5 -0.25L595.5 842.0012L595.5 842.0012L0 842.0012z" /></clipPath><clipPath id="22"><path id="" clip-rule="evenodd" transform="matrix(1 0 0 1 0 0)" d="M0 -0.25L595.5 -0.25L595.5 -0.25L595.5 842.0012L595.5 842.0012L0 842.0012z" /></clipPath><clipPath id="23"><path id="" clip-rule="evenodd" transform="matrix(1 0 0 1 0 0)" d="M63.25776 83.44061L275.4165 83.44061L275.4165 83.44061L275.4165 212.4493L275.4165 212.4493L63.25776 212.4493z" /></clipPath><clipPath id="24"><path id="" clip-rule="evenodd" transform="matrix(1 0 0 1 0 0)" d="M76.00776 83.44061L262.608 83.44061C 269.6496 83.44061 275.3592 89.14905 275.3592 96.19061L275.3592 96.19061L275.3592 199.6993C 275.3592 206.7411 269.6496 212.4493 262.608 212.4493L262.608 212.4493L76.00776 212.4493C 68.96616 212.4493 63.25776 206.7411 63.25776 199.6993L63.25776 199.6993L63.25776 96.19061C 63.25776 89.14905 68.96616 83.44061 76.00776 83.44061z" /></clipPath><clipPath id="25"><path id="" clip-rule="evenodd" transform="matrix(1 0 0 1 0 0)" d="M63.25776 83.44061L275.4165 83.44061L275.4165 83.44061L275.4165 212.4493L275.4165 212.4493L63.25776 212.4493z" /></clipPath><clipPath id="26"><path id="" clip-rule="evenodd" transform="matrix(1 0 0 1 0 0)" d="M0 -0.25L595.5 -0.25L595.5 -0.25L595.5 842.0012L595.5 842.0012L0 842.0012z" /></clipPath><clipPath id="27"><path id="" clip-rule="evenodd" transform="matrix(1 0 0 1 0 0)" d="M0 -0.25L595.5 -0.25L595.5 -0.25L595.5 842.0012L595.5 842.0012L0 842.0012z" /></clipPath><clipPath id="28"><path id="" clip-rule="evenodd" transform="matrix(1 0 0 1 0 0)" d="M0 -0.25L595.5 -0.25L595.5 -0.25L595.5 842.0012L595.5 842.0012L0 842.0012z" /></clipPath><clipPath id="29"><path id="" clip-rule="evenodd" transform="matrix(1 0 0 1 0 0)" d="M309.3336 106.91L582.9768 106.91L582.9768 106.91L582.9768 383.7596L582.9768 383.7596L309.3336 383.7596z" /></clipPath><clipPath id="30"><path id="" clip-rule="evenodd" transform="matrix(1 0 0 1 0 0)" d="M337.0824 106.91L555.2256 106.91C 562.5864 106.91 569.6448 109.8337 574.848 115.0378C 580.0511 120.242 582.9744 127.3004 582.9744 134.66L582.9744 134.66L582.9744 355.682C 582.9744 363.0428 580.0511 370.1012 574.848 375.3044C 569.6448 380.51 562.5864 383.4332 555.2256 383.4332L555.2256 383.4332L337.0824 383.4332C 329.724 383.4332 322.6656 380.51 317.4624 375.3044C 312.2568 370.1012 309.3336 363.0428 309.3336 355.682L309.3336 355.682L309.3336 134.66C 309.3336 127.3004 312.2568 120.242 317.4624 115.0378C 322.6656 109.8337 329.724 106.91 337.0824 106.91z" /></clipPath><clipPath id="31"><path id="" clip-rule="evenodd" transform="matrix(1 0 0 1 0 0)" d="M327.0984 358.742L564.8484 358.742L564.8484 358.742L564.8484 363.992L564.8484 363.992L327.0984 363.992z" /></clipPath><clipPath id="32"><path id="" clip-rule="evenodd" transform="matrix(1 0 0 1 0 0)" d="M326.88 358.79L564.96 358.79L564.96 358.79L564.96 364.07L564.96 364.07L326.88 364.07z" /></clipPath><mask id="m3"><clipPath id="33"><path id="" clip-rule="evenodd" transform="matrix(1 0 0 1 0 0)" d="M326.88 358.79L564.96 358.79L564.96 358.79L564.96 364.07L564.96 364.07L326.88 364.07z" /></clipPath><g><g><g clip-path="url(#33)"><path id="124" transform="matrix(1 0 0 -1 0 842)" d="M326.88 483.21L564.96 483.21L564.96 477.93L326.88 477.93z" stroke="none" fill="#000000" fill-rule="nonzero" /></g></g></g></mask><clipPath id="34"><path id="" clip-rule="evenodd" transform="matrix(1 0 0 1 0 0)" d="M326.88 358.79L564.96 358.79L564.96 358.79L564.96 364.07L564.96 364.07L326.88 364.07z" /></clipPath><clipPath id="35"><path id="" clip-rule="evenodd" transform="matrix(1 0 0 1 0 0)" d="M326.64 358.8239L565.2 358.8239L565.2 358.8239L565.2 364.0851L565.2 364.0851L326.64 364.0851z" /></clipPath><mask id="m4"><clipPath id="36"><path id="" clip-rule="evenodd" transform="matrix(1 0 0 1 0 0)" d="M326.88 358.79L564.96 358.79L564.96 358.79L564.96 364.07L564.96 364.07L326.88 364.07z" /></clipPath><clipPath id="37"><path id="" clip-rule="evenodd" transform="matrix(1 0 0 1 0 0)" d="M326.88 358.79L564.96 358.79L564.96 358.79L564.96 364.07L564.96 364.07L326.88 364.07z" /></clipPath><clipPath id="38"><path id="" clip-rule="evenodd" transform="matrix(1 0 0 1 0 0)" d="M327.1219 358.8239L564.8373 358.8239L564.8373 358.8239L564.8373 363.8747L564.8373 363.8747L327.1219 363.8747z" /></clipPath><g><g><g clip-path="url(#36)"><g><g clip-path="url(#37)"><g clip-path="url(#38)"><g transform="matrix(0.24 0 0 0.24 327.12 358.79)"><g transform="matrix(1 0 0 1 0 0)"><image x="0" y="0" xlink:href="img_04.png" width="991" height="22" /></g></g></g></g></g></g></g></g></mask><clipPath id="39"><path id="" clip-rule="evenodd" transform="matrix(1 0 0 1 0 0)" d="M326.88 358.79L564.96 358.79L564.96 358.79L564.96 364.07L564.96 364.07L326.88 364.07z" /></clipPath><clipPath id="40"><path id="" clip-rule="evenodd" transform="matrix(1 0 0 1 0 0)" d="M326.64 358.8239L565.2 358.8239L565.2 358.8239L565.2 364.0851L565.2 364.0851L326.64 364.0851z" /></clipPath><clipPath id="41"><path id="" clip-rule="evenodd" transform="matrix(1 0 0 1 0 0)" d="M0 -0.25L595.5 -0.25L595.5 -0.25L595.5 842.0012L595.5 842.0012L0 842.0012z" /></clipPath><clipPath id="42"><path id="" clip-rule="evenodd" transform="matrix(1 0 0 1 0 0)" d="M0 -0.25L595.5 -0.25L595.5 -0.25L595.5 842.0012L595.5 842.0012L0 842.0012z" /></clipPath><clipPath id="43"><path id="" clip-rule="evenodd" transform="matrix(1 0 0 1 0 0)" d="M327.0984 224.5049L486.1294 224.5049L486.1294 224.5049L486.1294 354.992L486.1294 354.992L327.0984 354.992z" /></clipPath><clipPath id="44"><path id="" clip-rule="evenodd" transform="matrix(1 0 0 1 0 0)" d="M339.8496 224.5049L473.2968 224.5049C 476.6784 224.5049 479.9208 225.8483 482.3112 228.2394C 484.704 230.6302 486.0456 233.8734 486.0456 237.2549L486.0456 237.2549L486.0456 342.242C 486.0456 345.6236 484.704 348.866 482.3112 351.2564C 479.9208 353.6492 476.6784 354.9908 473.2968 354.9908L473.2968 354.9908L339.8496 354.9908C 336.468 354.9908 333.2256 353.6492 330.8328 351.2564C 328.4424 348.866 327.0984 345.6236 327.0984 342.242L327.0984 342.242L327.0984 237.2549C 327.0984 233.8734 328.4424 230.6302 330.8328 228.2394C 333.2256 225.8483 336.468 224.5049 339.8496 224.5049z" /></clipPath><clipPath id="45"><path id="" clip-rule="evenodd" transform="matrix(1 0 0 1 0 0)" d="M327.0984 224.5049L486.1294 224.5049L486.1294 224.5049L486.1294 354.992L486.1294 354.992L327.0984 354.992z" /></clipPath><clipPath id="46"><path id="" clip-rule="evenodd" transform="matrix(1 0 0 1 0 0)" d="M0 -0.25L595.5 -0.25L595.5 -0.25L595.5 842.0012L595.5 842.0012L0 842.0012z" /></clipPath><clipPath id="47"><path id="" clip-rule="evenodd" transform="matrix(1 0 0 1 0 0)" d="M0 -0.25L595.5 -0.25L595.5 -0.25L595.5 842.0012L595.5 842.0012L0 842.0012z" /></clipPath><clipPath id="48"><path id="" clip-rule="evenodd" transform="matrix(1 0 0 1 0 0)" d="M0 -0.25L595.5 -0.25L595.5 -0.25L595.5 842.0012L595.5 842.0012L0 842.0012z" /></clipPath><clipPath id="49"><path id="" clip-rule="evenodd" transform="matrix(1 0 0 1 0 0)" d="M46.09056 273.122L293.6242 273.122L293.6242 273.122L293.6242 536.126L293.6242 536.126L46.09056 536.126z" /></clipPath><clipPath id="50"><path id="" clip-rule="evenodd" transform="matrix(1 0 0 1 0 0)" d="M73.84056 273.122L265.8744 273.122C 273.2352 273.122 280.2936 276.0452 285.4968 281.2508C 290.7 286.454 293.6256 293.5124 293.6256 300.8732L293.6256 300.8732L293.6256 507.4316C 293.6256 514.7924 290.7 521.8508 285.4968 527.054C 280.2936 532.2596 273.2352 535.1828 265.8744 535.1828L265.8744 535.1828L73.84056 535.1828C 66.48096 535.1828 59.42256 532.2596 54.2184 527.054C 49.01424 521.8508 46.09056 514.7924 46.09056 507.4316L46.09056 507.4316L46.09056 300.8732C 46.09056 293.5124 49.01424 286.454 54.2184 281.2508C 59.42256 276.0452 66.48096 273.122 73.84056 273.122z" /></clipPath><clipPath id="51"><path id="" clip-rule="evenodd" transform="matrix(1 0 0 1 0 0)" d="M57.88488 492.8492L295.6349 492.8492L295.6349 492.8492L295.6349 498.0992L295.6349 498.0992L57.88488 498.0992z" /></clipPath><clipPath id="52"><path id="" clip-rule="evenodd" transform="matrix(1 0 0 1 0 0)" d="M57.84 492.71L295.68 492.71L295.68 492.71L295.68 498.23L295.68 498.23L57.84 498.23z" /></clipPath><mask id="m5"><clipPath id="53"><path id="" clip-rule="evenodd" transform="matrix(1 0 0 1 0 0)" d="M57.84 492.71L295.68 492.71L295.68 492.71L295.68 498.23L295.68 498.23L57.84 498.23z" /></clipPath><g><g><g clip-path="url(#53)"><path id="249" transform="matrix(1 0 0 -1 0 842)" d="M57.84 349.29L295.68 349.29L295.68 343.77L57.84 343.77z" stroke="none" fill="#000000" fill-rule="nonzero" /></g></g></g></mask><clipPath id="54"><path id="" clip-rule="evenodd" transform="matrix(1 0 0 1 0 0)" d="M57.84 492.71L295.68 492.71L295.68 492.71L295.68 498.23L295.68 498.23L57.84 498.23z" /></clipPath><clipPath id="55"><path id="" clip-rule="evenodd" transform="matrix(1 0 0 1 0 0)" d="M57.59999 492.9304L295.92 492.9304L295.92 492.9304L295.92 498.1916L295.92 498.1916L57.59999 498.1916z" /></clipPath><mask id="m6"><clipPath id="56"><path id="" clip-rule="evenodd" transform="matrix(1 0 0 1 0 0)" d="M57.84 492.71L295.68 492.71L295.68 492.71L295.68 498.23L295.68 498.23L57.84 498.23z" /></clipPath><clipPath id="57"><path id="" clip-rule="evenodd" transform="matrix(1 0 0 1 0 0)" d="M57.84 492.71L295.68 492.71L295.68 492.71L295.68 498.23L295.68 498.23L57.84 498.23z" /></clipPath><clipPath id="58"><path id="" clip-rule="evenodd" transform="matrix(1 0 0 1 0 0)" d="M57.9075 492.9304L295.6229 492.9304L295.6229 492.9304L295.6229 497.9811L295.6229 497.9811L57.9075 497.9811z" /></clipPath><g><g><g clip-path="url(#56)"><g><g clip-path="url(#57)"><g clip-path="url(#58)"><g transform="matrix(0.24 0 0 0.24 57.84 492.71)"><g transform="matrix(1 0 0 1 0 0)"><image x="0" y="0" xlink:href="img_06.png" width="991" height="22" /></g></g></g></g></g></g></g></g></mask><clipPath id="59"><path id="" clip-rule="evenodd" transform="matrix(1 0 0 1 0 0)" d="M57.84 492.71L295.68 492.71L295.68 492.71L295.68 498.23L295.68 498.23L57.84 498.23z" /></clipPath><clipPath id="60"><path id="" clip-rule="evenodd" transform="matrix(1 0 0 1 0 0)" d="M57.59999 492.9304L295.92 492.9304L295.92 492.9304L295.92 498.1916L295.92 498.1916L57.59999 498.1916z" /></clipPath><clipPath id="61"><path id="" clip-rule="evenodd" transform="matrix(1 0 0 1 0 0)" d="M0 -0.25L595.5 -0.25L595.5 -0.25L595.5 842.0012L595.5 842.0012L0 842.0012z" /></clipPath><clipPath id="62"><path id="" clip-rule="evenodd" transform="matrix(1 0 0 1 0 0)" d="M0 -0.25L595.5 -0.25L595.5 -0.25L595.5 842.0012L595.5 842.0012L0 842.0012z" /></clipPath><clipPath id="63"><path id="" clip-rule="evenodd" transform="matrix(1 0 0 1 0 0)" d="M72.09984 352.9892L270.21 352.9892L270.21 352.9892L270.21 480.0975L270.21 480.0975L72.09984 480.0975z" /></clipPath><clipPath id="64"><path id="" clip-rule="evenodd" transform="matrix(1 0 0 1 0 0)" d="M84.84984 352.9892L257.2368 352.9892C 264.2784 352.9892 269.9856 358.6988 269.9856 365.7404L269.9856 365.7404L269.9856 467.3468C 269.9856 474.3884 264.2784 480.098 257.2368 480.098L257.2368 480.098L84.84984 480.098C 77.80824 480.098 72.09984 474.3884 72.09984 467.3468L72.09984 467.3468L72.09984 365.7404C 72.09984 358.6988 77.80824 352.9892 84.84984 352.9892z" /></clipPath><clipPath id="65"><path id="" clip-rule="evenodd" transform="matrix(1 0 0 1 0 0)" d="M72.09984 352.9892L270.21 352.9892L270.21 352.9892L270.21 480.0975L270.21 480.0975L72.09984 480.0975z" /></clipPath><clipPath id="66"><path id="" clip-rule="evenodd" transform="matrix(1 0 0 1 0 0)" d="M0 -0.25L595.5 -0.25L595.5 -0.25L595.5 842.0012L595.5 842.0012L0 842.0012z" /></clipPath><clipPath id="67"><path id="" clip-rule="evenodd" transform="matrix(1 0 0 1 0 0)" d="M0 -0.25L595.5 -0.25L595.5 -0.25L595.5 842.0012L595.5 842.0012L0 842.0012z" /></clipPath><clipPath id="68"><path id="" clip-rule="evenodd" transform="matrix(1 0 0 1 0 0)" d="M0 -0.25L595.5 -0.25L595.5 -0.25L595.5 842.0012L595.5 842.0012L0 842.0012z" /></clipPath><clipPath id="69"><path id="" clip-rule="evenodd" transform="matrix(1 0 0 1 0 0)" d="M309.3336 395.0732L556.8672 395.0732L556.8672 395.0732L556.8672 700.622L556.8672 700.622L309.3336 700.622z" /></clipPath><clipPath id="70"><path id="" clip-rule="evenodd" transform="matrix(1 0 0 1 0 0)" d="M337.0824 395.0732L529.1183 395.0732C 536.4768 395.0732 543.5352 397.9964 548.7408 403.1996C 553.944 408.4052 556.8672 415.4636 556.8672 422.822L556.8672 422.822L556.8672 672.5707C 556.8672 679.9292 553.944 686.9876 548.7408 692.1932C 543.5352 697.3964 536.4768 700.3196 529.1183 700.3196L529.1183 700.3196L337.0824 700.3196C 329.724 700.3196 322.6656 697.3964 317.4624 692.1932C 312.2568 686.9876 309.3336 679.9292 309.3336 672.5707L309.3336 672.5707L309.3336 422.822C 309.3336 415.4636 312.2568 408.4052 317.4624 403.1996C 322.6656 397.9964 329.724 395.0732 337.0824 395.0732z" /></clipPath><clipPath id="71"><path id="" clip-rule="evenodd" transform="matrix(1 0 0 1 0 0)" d="M314.316 661.3028L552.066 661.3028L552.066 661.3028L552.066 666.5528L552.066 666.5528L314.316 666.5528z" /></clipPath><clipPath id="72"><path id="" clip-rule="evenodd" transform="matrix(1 0 0 1 0 0)" d="M314.16 661.19L552.24 661.19L552.24 661.19L552.24 666.71L552.24 666.71L314.16 666.71z" /></clipPath><mask id="m7"><clipPath id="73"><path id="" clip-rule="evenodd" transform="matrix(1 0 0 1 0 0)" d="M314.16 661.19L552.24 661.19L552.24 661.19L552.24 666.71L552.24 666.71L314.16 666.71z" /></clipPath><g><g><g clip-path="url(#73)"><path id="340" transform="matrix(1 0 0 -1 0 842)" d="M314.16 180.81L552.24 180.81L552.24 175.29L314.16 175.29z" stroke="none" fill="#000000" fill-rule="nonzero" /></g></g></g></mask><clipPath id="74"><path id="" clip-rule="evenodd" transform="matrix(1 0 0 1 0 0)" d="M314.16 661.19L552.24 661.19L552.24 661.19L552.24 666.71L552.24 666.71L314.16 666.71z" /></clipPath><clipPath id="75"><path id="" clip-rule="evenodd" transform="matrix(1 0 0 1 0 0)" d="M313.92 661.3849L552.48 661.3849L552.48 661.3849L552.48 666.6461L552.48 666.6461L313.92 666.6461z" /></clipPath><mask id="m8"><clipPath id="76"><path id="" clip-rule="evenodd" transform="matrix(1 0 0 1 0 0)" d="M314.16 661.19L552.24 661.19L552.24 661.19L552.24 666.71L552.24 666.71L314.16 666.71z" /></clipPath><clipPath id="77"><path id="" clip-rule="evenodd" transform="matrix(1 0 0 1 0 0)" d="M314.16 661.19L552.24 661.19L552.24 661.19L552.24 666.71L552.24 666.71L314.16 666.71z" /></clipPath><clipPath id="78"><path id="" clip-rule="evenodd" transform="matrix(1 0 0 1 0 0)" d="M314.3373 661.3849L552.0527 661.3849L552.0527 661.3849L552.0527 666.4357L552.0527 666.4357L314.3373 666.4357z" /></clipPath><g><g><g clip-path="url(#76)"><g><g clip-path="url(#77)"><g clip-path="url(#78)"><g transform="matrix(0.24 0 0 0.24 314.16 661.19)"><g transform="matrix(1 0 0 1 0 0)"><image x="0" y="0" xlink:href="img_08.png" width="992" height="22" /></g></g></g></g></g></g></g></g></mask><clipPath id="79"><path id="" clip-rule="evenodd" transform="matrix(1 0 0 1 0 0)" d="M314.16 661.19L552.24 661.19L552.24 661.19L552.24 666.71L552.24 666.71L314.16 666.71z" /></clipPath><clipPath id="80"><path id="" clip-rule="evenodd" transform="matrix(1 0 0 1 0 0)" d="M313.92 661.3849L552.48 661.3849L552.48 661.3849L552.48 666.6461L552.48 666.6461L313.92 666.6461z" /></clipPath><clipPath id="81"><path id="" clip-rule="evenodd" transform="matrix(1 0 0 1 0 0)" d="M0 -0.25L595.5 -0.25L595.5 -0.25L595.5 842.0012L595.5 842.0012L0 842.0012z" /></clipPath><clipPath id="82"><path id="" clip-rule="evenodd" transform="matrix(1 0 0 1 0 0)" d="M0 -0.25L595.5 -0.25L595.5 -0.25L595.5 842.0012L595.5 842.0012L0 842.0012z" /></clipPath><clipPath id="83"><path id="" clip-rule="evenodd" transform="matrix(1 0 0 1 0 0)" d="M327.9288 485.7692L521.1633 485.7692L521.1633 485.7692L521.1633 650.1149L521.1633 650.1149L327.9288 650.1149z" /></clipPath><clipPath id="84"><path id="" clip-rule="evenodd" transform="matrix(1 0 0 1 0 0)" d="M340.6776 485.7692L508.068 485.7692C 515.1096 485.7692 520.8168 491.4788 520.8168 498.5204L520.8168 498.5204L520.8168 637.3652C 520.8168 644.4068 515.1096 650.114 508.068 650.114L508.068 650.114L340.6776 650.114C 333.636 650.114 327.9288 644.4068 327.9288 637.3652L327.9288 637.3652L327.9288 498.5204C 327.9288 491.4788 333.636 485.7692 340.6776 485.7692z" /></clipPath><clipPath id="85"><path id="" clip-rule="evenodd" transform="matrix(1 0 0 1 0 0)" d="M327.9288 485.7692L520.5213 485.7692L520.5213 485.7692L520.5213 650.1149L520.5213 650.1149L327.9288 650.1149z" /></clipPath><clipPath id="86"><path id="" clip-rule="evenodd" transform="matrix(1 0 0 1 0 0)" d="M0 -0.25L595.5 -0.25L595.5 -0.25L595.5 842.0012L595.5 842.0012L0 842.0012z" /></clipPath><clipPath id="87"><path id="" clip-rule="evenodd" transform="matrix(1 0 0 1 0 0)" d="M0 -0.25L595.5 -0.25L595.5 -0.25L595.5 842.0012L595.5 842.0012L0 842.0012z" /></clipPath><clipPath id="88"><path id="" clip-rule="evenodd" transform="matrix(1 0 0 1 0 0)" d="M0 -0.25L595.5 -0.25L595.5 -0.25L595.5 842.0012L595.5 842.0012L0 842.0012z" /></clipPath><clipPath id="89"><path id="" clip-rule="evenodd" transform="matrix(1 0 0 1 0 0)" d="M48.46128 549.4316L295.9949 549.4316L295.9949 549.4316L295.9949 822.1052L295.9949 822.1052L48.46128 822.1052z" /></clipPath><clipPath id="90"><path id="" clip-rule="evenodd" transform="matrix(1 0 0 1 0 0)" d="M76.21128 549.4316L268.2456 549.4316C 275.604 549.4316 282.6624 552.3548 287.868 557.5604C 293.0712 562.7635 295.9944 569.822 295.9944 577.1828L295.9944 577.1828L295.9944 793.9388C 295.9944 801.2996 293.0712 808.358 287.868 813.5612C 282.6624 818.7668 275.604 821.69 268.2456 821.69L268.2456 821.69L76.21128 821.69C 68.85168 821.69 61.79327 818.7668 56.58912 813.5612C 51.38496 808.358 48.46128 801.2996 48.46128 793.9388L48.46128 793.9388L48.46128 577.1828C 48.46128 569.822 51.38496 562.7635 56.58912 557.5604C 61.79327 552.3548 68.85168 549.4316 76.21128 549.4316z" /></clipPath><clipPath id="91"><path id="" clip-rule="evenodd" transform="matrix(1 0 0 1 0 0)" d="M49.70856 780.1796L287.4586 780.1796L287.4586 780.1796L287.4586 785.4296L287.4586 785.4296L49.70856 785.4296z" /></clipPath><clipPath id="92"><path id="" clip-rule="evenodd" transform="matrix(1 0 0 1 0 0)" d="M49.68 780.23L287.52 780.23L287.52 780.23L287.52 785.51L287.52 785.51L49.68 785.51z" /></clipPath><mask id="m9"><clipPath id="93"><path id="" clip-rule="evenodd" transform="matrix(1 0 0 1 0 0)" d="M49.68 780.23L287.52 780.23L287.52 780.23L287.52 785.51L287.52 785.51L49.68 785.51z" /></clipPath><g><g><g clip-path="url(#93)"><path id="458" transform="matrix(1 0 0 -1 0 842)" d="M49.68 61.77002L287.52 61.77002L287.52 56.49002L49.68 56.49002z" stroke="none" fill="#000000" fill-rule="nonzero" /></g></g></g></mask><clipPath id="94"><path id="" clip-rule="evenodd" transform="matrix(1 0 0 1 0 0)" d="M49.68 780.23L287.52 780.23L287.52 780.23L287.52 785.51L287.52 785.51L49.68 785.51z" /></clipPath><clipPath id="95"><path id="" clip-rule="evenodd" transform="matrix(1 0 0 1 0 0)" d="M49.43999 780.261L287.76 780.261L287.76 780.261L287.76 785.5222L287.76 785.5222L49.43999 785.5222z" /></clipPath><mask id="m10"><clipPath id="96"><path id="" clip-rule="evenodd" transform="matrix(1 0 0 1 0 0)" d="M49.68 780.23L287.52 780.23L287.52 780.23L287.52 785.51L287.52 785.51L49.68 785.51z" /></clipPath><clipPath id="97"><path id="" clip-rule="evenodd" transform="matrix(1 0 0 1 0 0)" d="M49.68 780.23L287.52 780.23L287.52 780.23L287.52 785.51L287.52 785.51L49.68 785.51z" /></clipPath><clipPath id="98"><path id="" clip-rule="evenodd" transform="matrix(1 0 0 1 0 0)" d="M49.73111 780.261L287.4465 780.261L287.4465 780.261L287.4465 785.3118L287.4465 785.3118L49.73111 785.3118z" /></clipPath><g><g><g clip-path="url(#96)"><g><g clip-path="url(#97)"><g clip-path="url(#98)"><g transform="matrix(0.24 0 0 0.24 49.68 780.23)"><g transform="matrix(1 0 0 1 0 0)"><image x="0" y="0" xlink:href="img_10.png" width="991" height="22" /></g></g></g></g></g></g></g></g></mask><clipPath id="99"><path id="" clip-rule="evenodd" transform="matrix(1 0 0 1 0 0)" d="M49.68 780.23L287.52 780.23L287.52 780.23L287.52 785.51L287.52 785.51L49.68 785.51z" /></clipPath><clipPath id="100"><path id="" clip-rule="evenodd" transform="matrix(1 0 0 1 0 0)" d="M49.43999 780.261L287.76 780.261L287.76 780.261L287.76 785.5222L287.76 785.5222L49.43999 785.5222z" /></clipPath><clipPath id="101"><path id="" clip-rule="evenodd" transform="matrix(1 0 0 1 0 0)" d="M0 -0.25L595.5 -0.25L595.5 -0.25L595.5 842.0012L595.5 842.0012L0 842.0012z" /></clipPath><clipPath id="102"><path id="" clip-rule="evenodd" transform="matrix(1 0 0 1 0 0)" d="M0 -0.25L595.5 -0.25L595.5 -0.25L595.5 842.0012L595.5 842.0012L0 842.0012z" /></clipPath><clipPath id="103"><path id="" clip-rule="evenodd" transform="matrix(1 0 0 1 0 0)" d="M67.056 605.5844L283.7107 605.5844L283.7107 605.5844L283.7107 769.678L283.7107 769.678L67.056 769.678z" /></clipPath><clipPath id="104"><path id="" clip-rule="evenodd" transform="matrix(1 0 0 1 0 0)" d="M79.806 605.5844L270.5856 605.5844C 273.9672 605.5844 277.2096 606.9283 279.6 609.3188C 281.9928 611.7116 283.3344 614.954 283.3344 618.3356L283.3344 618.3356L283.3344 756.9283C 283.3344 760.31 281.9928 763.5524 279.6 765.9452C 277.2096 768.3356 273.9672 769.6796 270.5856 769.6796L270.5856 769.6796L79.806 769.6796C 76.4244 769.6796 73.18127 768.3356 70.7904 765.9452C 68.39928 763.5524 67.056 760.31 67.056 756.9283L67.056 756.9283L67.056 618.3356C 67.056 614.954 68.39928 611.7116 70.7904 609.3188C 73.18127 606.9283 76.4244 605.5844 79.806 605.5844z" /></clipPath><clipPath id="105"><path id="" clip-rule="evenodd" transform="matrix(1 0 0 1 0 0)" d="M67.056 605.5844L283.0699 605.5844L283.0699 605.5844L283.0699 769.678L283.0699 769.678L67.056 769.678z" /></clipPath><clipPath id="106"><path id="" clip-rule="evenodd" transform="matrix(1 0 0 1 0 0)" d="M0 -0.25L595.5 -0.25L595.5 -0.25L595.5 842.0012L595.5 842.0012L0 842.0012z" /></clipPath><clipPath id="107"><path id="" clip-rule="evenodd" transform="matrix(1 0 0 1 0 0)" d="M489.3888 8.540771L589.1388 8.540771L589.1388 8.540771L589.1388 64.79077L589.1388 64.79077L489.3888 64.79077z" /></clipPath><clipPath id="108"><path id="" clip-rule="evenodd" transform="matrix(1 0 0 1 0 0)" d="M0 -0.25L595.5 -0.25L595.5 -0.25L595.5 842.0012L595.5 842.0012L0 842.0012z" /></clipPath></defs><g transform="matrix(1.333333 0 0 1.333333 0 0)"><g clip-path="url(#1)"><g clip-path="url(#2)"><path id="1" transform="matrix(1 0 0 -1 0 842)" d="M0 842.25L595.4999 842.25L595.4999 0L0 0z" stroke="none" fill="#FFFFFF" fill-rule="nonzero" /></g><g clip-path="url(#3)"><path id="2" transform="matrix(1 0 0 -1 0 842)" d="M0 842.25L595.4999 842.25L595.4999 0L0 0z" stroke="none" fill="#FFFFFF" fill-rule="nonzero" /></g><g clip-path="url(#4)"><g><g clip-path="url(#5)"><g clip-path="url(#6)"><g transform="matrix(0 0.975 -0.9768211 0 522.0178 30.75183)"><g transform="matrix(1 0 0 1 0 0)"><image x="0" y="0" xlink:href="img_01.png" width="800" height="453" /></g></g></g></g></g></g><g clip-path="url(#7)"><g clip-path="url(#8)"><g clip-path="url(#9)"><g clip-path="url(#10)"><path id="4" transform="matrix(1 0 0 -1 0 842)" d="M48.46128 833.4592L295.9951 833.4592L295.9951 583.0247L48.46128 583.0247z" stroke="none" fill="#1D70B7" fill-rule="nonzero" /></g></g></g></g><g clip-path="url(#11)"><g><g clip-path="url(#12)"><g mask="url(#m1)"><g><g clip-path="url(#14)"><g clip-path="url(#15)"><path id="6" transform="matrix(1 0 0 -1 0 842)" d="M53.24369 622.7184L290.959 622.7184L290.959 617.6677L53.24369 617.6677z" stroke="none" fill="#000000" fill-rule="nonzero" /></g></g></g></g><g mask="url(#m2)"><g><g clip-path="url(#19)"><g clip-path="url(#20)"><path id="8" transform="matrix(1 0 0 -1 0 842)" d="M53.24369 622.7184L290.959 622.7184L290.959 617.6677L53.24369 617.6677z" stroke="none" fill="#000000" fill-rule="nonzero" /></g></g></g></g></g></g></g><g clip-path="url(#21)"><g clip-path="url(#22)"><g clip-path="url(#23)"><g clip-path="url(#24)"><g clip-path="url(#25)"><g transform="matrix(0.700194 0 0 0.6996191 63.25776 82.14471)"><g transform="matrix(1 0 0 1 0 0)"><image x="0" y="0" xlink:href="img_03.png" width="303" height="188" /></g></g></g></g></g></g></g><g clip-path="url(#26)"></g><g clip-path="url(#27)"><g clip-path="url(#28)"><g clip-path="url(#29)"><g clip-path="url(#30)"><path id="123" transform="matrix(1 0 0 -1 0 842)" d="M309.3336 735.09L582.9757 735.09L582.9757 458.2411L309.3336 458.2411z" stroke="none" fill="#1D70B7" fill-rule="nonzero" /></g></g></g></g><g clip-path="url(#31)"><g><g clip-path="url(#32)"><g mask="url(#m3)"><g><g clip-path="url(#34)"><g clip-path="url(#35)"><path id="125" transform="matrix(1 0 0 -1 0 842)" d="M327.1219 483.1761L564.8372 483.1761L564.8372 478.1253L327.1219 478.1253z" stroke="none" fill="#000000" fill-rule="nonzero" /></g></g></g></g><g mask="url(#m4)"><g><g clip-path="url(#39)"><g clip-path="url(#40)"><path id="127" transform="matrix(1 0 0 -1 0 842)" d="M327.1219 483.1761L564.8372 483.1761L564.8372 478.1253L327.1219 478.1253z" stroke="none" fill="#000000" fill-rule="nonzero" /></g></g></g></g></g></g></g><g clip-path="url(#41)"><g clip-path="url(#42)"><g clip-path="url(#43)"><g clip-path="url(#44)"><g clip-path="url(#45)"><g transform="matrix(0.5464649 0 0 0.5459708 319.4184 224.5038)"><g transform="matrix(1 0 0 1 0 0)"><image x="0" y="0" xlink:href="img_05.png" width="319" height="239" /></g></g></g></g></g></g></g><g clip-path="url(#46)"></g><g clip-path="url(#47)"><g clip-path="url(#48)"><g clip-path="url(#49)"><g clip-path="url(#50)"><path id="248" transform="matrix(1 0 0 -1 0 842)" d="M46.09056 568.878L293.6243 568.878L293.6243 306.8403L46.09056 306.8403z" stroke="none" fill="#939CAB" fill-rule="nonzero" /></g></g></g></g><g clip-path="url(#51)"><g><g clip-path="url(#52)"><g mask="url(#m5)"><g><g clip-path="url(#54)"><g clip-path="url(#55)"><path id="250" transform="matrix(1 0 0 -1 0 842)" d="M57.90751 349.0696L295.6229 349.0696L295.6229 344.0188L57.90751 344.0188z" stroke="none" fill="#000000" fill-rule="nonzero" /></g></g></g></g><g mask="url(#m6)"><g><g clip-path="url(#59)"><g clip-path="url(#60)"><path id="252" transform="matrix(1 0 0 -1 0 842)" d="M57.90751 349.0696L295.6229 349.0696L295.6229 344.0188L57.90751 344.0188z" stroke="none" fill="#000000" fill-rule="nonzero" /></g></g></g></g></g></g></g><g clip-path="url(#61)"><g clip-path="url(#62)"><g clip-path="url(#63)"><g clip-path="url(#64)"><g clip-path="url(#65)"><g transform="matrix(0.5779127 0 0 0.577765 65.31191 352.9897)"><g transform="matrix(1 0 0 1 0 0)"><image x="0" y="0" xlink:href="img_07.png" width="366" height="220" /></g></g></g></g></g></g></g><g clip-path="url(#66)"></g><g clip-path="url(#67)"><g clip-path="url(#68)"><g clip-path="url(#69)"><g clip-path="url(#70)"><path id="339" transform="matrix(1 0 0 -1 0 842)" d="M309.3336 446.9268L556.8674 446.9268L556.8674 141.3773L309.3336 141.3773z" stroke="none" fill="#939CAB" fill-rule="nonzero" /></g></g></g></g><g clip-path="url(#71)"><g><g clip-path="url(#72)"><g mask="url(#m7)"><g><g clip-path="url(#74)"><g clip-path="url(#75)"><path id="341" transform="matrix(1 0 0 -1 0 842)" d="M314.3373 180.6151L552.0527 180.6151L552.0527 175.5643L314.3373 175.5643z" stroke="none" fill="#000000" fill-rule="nonzero" /></g></g></g></g><g mask="url(#m8)"><g><g clip-path="url(#79)"><g clip-path="url(#80)"><path id="343" transform="matrix(1 0 0 -1 0 842)" d="M314.3373 180.6151L552.0527 180.6151L552.0527 175.5643L314.3373 175.5643z" stroke="none" fill="#000000" fill-rule="nonzero" /></g></g></g></g></g></g></g><g clip-path="url(#81)"><g clip-path="url(#82)"><g clip-path="url(#83)"><g clip-path="url(#84)"><g clip-path="url(#85)"><g transform="matrix(0.7303006 0 0 0.7304256 315.54 485.7682)"><g transform="matrix(1 0 0 1 0 0)"><image x="0" y="0" xlink:href="img_09.png" width="298" height="225" /></g></g></g></g></g></g></g><g clip-path="url(#86)"></g><g clip-path="url(#87)"><g clip-path="url(#88)"><g clip-path="url(#89)"><g clip-path="url(#90)"><path id="457" transform="matrix(1 0 0 -1 0 842)" d="M48.46128 292.5684L295.9951 292.5684L295.9951 19.89447L48.46128 19.89447z" stroke="none" fill="#1D70B7" fill-rule="nonzero" /></g></g></g></g><g clip-path="url(#91)"><g><g clip-path="url(#92)"><g mask="url(#m9)"><g><g clip-path="url(#94)"><g clip-path="url(#95)"><path id="459" transform="matrix(1 0 0 -1 0 842)" d="M49.73109 61.73902L287.4464 61.73902L287.4464 56.68824L49.73109 56.68824z" stroke="none" fill="#000000" fill-rule="nonzero" /></g></g></g></g><g mask="url(#m10)"><g><g clip-path="url(#99)"><g clip-path="url(#100)"><path id="461" transform="matrix(1 0 0 -1 0 842)" d="M49.73109 61.73902L287.4464 61.73902L287.4464 56.68824L49.73109 56.68824z" stroke="none" fill="#000000" fill-rule="nonzero" /></g></g></g></g></g></g></g><g clip-path="url(#101)"><g clip-path="url(#102)"><g clip-path="url(#103)"><g clip-path="url(#104)"><g clip-path="url(#105)"><g transform="matrix(0.697787 0 0 0.6982703 64.86887 605.5861)"><g transform="matrix(1 0 0 1 0 0)"><image x="0" y="0" xlink:href="img_11.png" width="316" height="235" /></g></g></g></g></g></g></g><g clip-path="url(#106)"></g><g clip-path="url(#107)"><g transform="matrix(0.1246875 0 0 0.1241722 489.3888 8.540771)"><g transform="matrix(1 0 0 1 0 0)"><image x="0" y="0" xlink:href="img_12.png" width="800" height="453" /></g></g></g><g clip-path="url(#108)"></g></g></g></svg>