<svg xmlns="http://www.w3.org/2000/svg" xmlns:xlink="http://www.w3.org/1999/xlink" id="body_1" preserveAspectRatio="xMinYMin meet" viewBox="0 0 793 1123"><defs><clipPath id="1"><path id="" clip-rule="evenodd" transform="matrix(1 0 0 1 0 0)" d="M0 842L0 -0.25L0 -0.25L595.5 -0.25L595.5 -0.25L595.5 842L595.5 842L0 842z" /></clipPath><clipPath id="2"><path id="" clip-rule="evenodd" transform="matrix(1 0 0 1 0 0)" d="M0 -0.249939L595.5 -0.249939L595.5 -0.249939L595.5 842.0001L595.5 842.0001L0 842.0001z" /></clipPath><clipPath id="3"><path id="" clip-rule="evenodd" transform="matrix(1 0 0 1 0 0)" d="M0 -0.249939L595.5 -0.249939L595.5 -0.249939L595.5 842.0001L595.5 842.0001L0 842.0001z" /></clipPath><clipPath id="4"><path id="" clip-rule="evenodd" transform="matrix(1 0 0 1 0 0)" d="M0 -0.249939L595.5 -0.249939L595.5 -0.249939L595.5 842.0001L595.5 842.0001L0 842.0001z" /></clipPath><clipPath id="5"><path id="" clip-rule="evenodd" transform="matrix(1 0 0 1 0 0)" d="M79.67999 38.15009L535.92 38.15009L535.92 38.15009L535.92 842.1501L535.92 842.1501L79.67999 842.1501z" /></clipPath><clipPath id="6"><path id="" clip-rule="evenodd" transform="matrix(1 0 0 1 0 0)" d="M79.74931 38.35956L535.7493 38.35956L535.7493 38.35956L535.7493 841.6096L535.7493 841.6096L79.74931 841.6096z" /></clipPath><clipPath id="7"><path id="" clip-rule="evenodd" transform="matrix(1 0 0 1 0 0)" d="M18.72 136.7901L563.7599 136.7901L563.7599 136.7901L563.7599 234.7101L563.7599 234.7101L18.72 234.7101z" /></clipPath><clipPath id="8"><path id="" clip-rule="evenodd" transform="matrix(1 0 0 1 0 0)" d="M18.91059 137.0208L563.6843 137.0208L563.6843 137.0208L563.6843 234.6832L563.6843 234.6832L18.91059 234.6832z" /></clipPath><clipPath id="9"><path id="" clip-rule="evenodd" transform="matrix(1 0 0 1 0 0)" d="M43.66059 137.0208L538.7057 137.0208C 552.3748 137.0208 563.4557 148.1017 563.4557 161.7708L563.4557 161.7708L563.4557 209.9332C 563.4557 223.6023 552.3748 234.6832 538.7057 234.6832L538.7057 234.6832L43.66059 234.6832C 29.99154 234.6832 18.91059 223.6023 18.91059 209.9332L18.91059 209.9332L18.91059 161.7708C 18.91059 148.1017 29.99154 137.0208 43.66059 137.0208z" /></clipPath><clipPath id="10"><path id="" clip-rule="evenodd" transform="matrix(1 0 0 1 0 0)" d="M0 -0.249939L595.5 -0.249939L595.5 -0.249939L595.5 842.0001L595.5 842.0001L0 842.0001z" /></clipPath><clipPath id="11"><path id="" clip-rule="evenodd" transform="matrix(1 0 0 1 0 0)" d="M0 -0.249939L595.5 -0.249939L595.5 -0.249939L595.5 842.0001L595.5 842.0001L0 842.0001z" /></clipPath><clipPath id="12"><path id="" clip-rule="evenodd" transform="matrix(1 0 0 1 0 0)" d="M42.96556 145.9854L120.2156 145.9854L120.2156 145.9854L120.2156 226.2354L120.2156 226.2354L42.96556 226.2354z" /></clipPath><clipPath id="13"><path id="" clip-rule="evenodd" transform="matrix(1 0 0 1 0 0)" d="M42.96556 173.7354L42.96556 197.7869C 42.96556 213.1128 55.38966 225.5369 70.71556 225.5369L70.71556 225.5369L92.15343 225.5369C 107.4793 225.5369 119.9034 213.1128 119.9034 197.7869L119.9034 197.7869L119.9034 173.7354C 119.9034 158.4095 107.4793 145.9854 92.15343 145.9854L92.15343 145.9854L70.71556 145.9854C 55.38966 145.9854 42.96556 158.4095 42.96556 173.7354z" /></clipPath><clipPath id="14"><path id="" clip-rule="evenodd" transform="matrix(1 0 0 1 0 0)" d="M42.96556 145.9854L120.2156 145.9854L120.2156 145.9854L120.2156 225.4854L120.2156 225.4854L42.96556 225.4854z" /></clipPath><clipPath id="15"><path id="" clip-rule="evenodd" transform="matrix(1 0 0 1 0 0)" d="M0 -0.249939L595.5 -0.249939L595.5 -0.249939L595.5 842.0001L595.5 842.0001L0 842.0001z" /></clipPath><clipPath id="16"><path id="" clip-rule="evenodd" transform="matrix(1 0 0 1 0 0)" d="M18.72 245.2701L563.52 245.2701L563.52 245.2701L563.52 366.9501L563.52 366.9501L18.72 366.9501z" /></clipPath><clipPath id="17"><path id="" clip-rule="evenodd" transform="matrix(1 0 0 1 0 0)" d="M18.4362 244.9421L563.5125 244.9421L563.5125 244.9421L563.5125 366.8608L563.5125 366.8608L18.4362 366.8608z" /></clipPath><clipPath id="18"><path id="" clip-rule="evenodd" transform="matrix(1 0 0 1 0 0)" d="M43.66059 245.4166L538.7057 245.4166C 552.3747 245.4166 563.4557 256.4975 563.4557 270.1665L563.4557 270.1665L563.4557 342.1108C 563.4557 355.7799 552.3747 366.8608 538.7057 366.8608L538.7057 366.8608L43.66059 366.8608C 29.99154 366.8608 18.91059 355.7799 18.91059 342.1108L18.91059 342.1108L18.91059 270.1665C 18.91059 256.4975 29.99154 245.4166 43.66059 245.4166z" /></clipPath><clipPath id="19"><path id="" clip-rule="evenodd" transform="matrix(1 0 0 1 0 0)" d="M0 -0.249939L595.5 -0.249939L595.5 -0.249939L595.5 842.0001L595.5 842.0001L0 842.0001z" /></clipPath><clipPath id="20"><path id="" clip-rule="evenodd" transform="matrix(1 0 0 1 0 0)" d="M0 -0.249939L595.5 -0.249939L595.5 -0.249939L595.5 842.0001L595.5 842.0001L0 842.0001z" /></clipPath><clipPath id="21"><path id="" clip-rule="evenodd" transform="matrix(1 0 0 1 0 0)" d="M460.4218 262.8442L545.9218 262.8442L545.9218 262.8442L545.9218 344.5942L545.9218 344.5942L460.4218 344.5942z" /></clipPath><clipPath id="22"><path id="" clip-rule="evenodd" transform="matrix(1 0 0 1 0 0)" d="M460.4218 290.5942L460.4218 316.713C 460.4218 332.0388 472.8459 344.463 488.1718 344.463L488.1718 344.463L518.053 344.463C 533.379 344.463 545.803 332.0388 545.803 316.713L545.803 316.713L545.803 290.5942C 545.803 275.2683 533.379 262.8442 518.053 262.8442L518.053 262.8442L488.1718 262.8442C 472.8459 262.8442 460.4218 275.2683 460.4218 290.5942z" /></clipPath><clipPath id="23"><path id="" clip-rule="evenodd" transform="matrix(1 0 0 1 0 0)" d="M460.4218 262.8442L545.9218 262.8442L545.9218 262.8442L545.9218 344.5942L545.9218 344.5942L460.4218 344.5942z" /></clipPath><clipPath id="24"><path id="" clip-rule="evenodd" transform="matrix(1 0 0 1 0 0)" d="M0 -0.249939L595.5 -0.249939L595.5 -0.249939L595.5 842.0001L595.5 842.0001L0 842.0001z" /></clipPath><clipPath id="25"><path id="" clip-rule="evenodd" transform="matrix(1 0 0 1 0 0)" d="M18.72 379.9101L563.7599 379.9101L563.7599 379.9101L563.7599 479.2701L563.7599 479.2701L18.72 479.2701z" /></clipPath><clipPath id="26"><path id="" clip-rule="evenodd" transform="matrix(1 0 0 1 0 0)" d="M18.91059 380.0562L563.7401 380.0562L563.7401 380.0562L563.7401 479.257L563.7401 479.257L18.91059 479.257z" /></clipPath><clipPath id="27"><path id="" clip-rule="evenodd" transform="matrix(1 0 0 1 0 0)" d="M43.66059 380.0562L538.7057 380.0562C 552.3747 380.0562 563.4557 391.1372 563.4557 404.8062L563.4557 404.8062L563.4557 454.507C 563.4557 468.1761 552.3747 479.257 538.7057 479.257L538.7057 479.257L43.66059 479.257C 29.99154 479.257 18.91059 468.1761 18.91059 454.507L18.91059 454.507L18.91059 404.8062C 18.91059 391.1372 29.99154 380.0562 43.66059 380.0562z" /></clipPath><clipPath id="28"><path id="" clip-rule="evenodd" transform="matrix(1 0 0 1 0 0)" d="M0 -0.249939L595.5 -0.249939L595.5 -0.249939L595.5 842.0001L595.5 842.0001L0 842.0001z" /></clipPath><clipPath id="29"><path id="" clip-rule="evenodd" transform="matrix(1 0 0 1 0 0)" d="M0 -0.249939L595.5 -0.249939L595.5 -0.249939L595.5 842.0001L595.5 842.0001L0 842.0001z" /></clipPath><clipPath id="30"><path id="" clip-rule="evenodd" transform="matrix(1 0 0 1 0 0)" d="M52.38667 385.7265L145.3867 385.7265L145.3867 385.7265L145.3867 473.4765L145.3867 473.4765L52.38667 473.4765z" /></clipPath><clipPath id="31"><path id="" clip-rule="evenodd" transform="matrix(1 0 0 1 0 0)" d="M52.38667 413.4765L52.38667 445.0418C 52.38667 460.3677 64.81077 472.7918 80.13667 472.7918L80.13667 472.7918L117.5292 472.7918C 132.8551 472.7918 145.2792 460.3677 145.2792 445.0418L145.2792 445.0418L145.2792 413.4765C 145.2792 398.1506 132.8551 385.7265 117.5292 385.7265L117.5292 385.7265L80.13667 385.7265C 64.81077 385.7265 52.38667 398.1506 52.38667 413.4765z" /></clipPath><clipPath id="32"><path id="" clip-rule="evenodd" transform="matrix(1 0 0 1 0 0)" d="M52.38667 385.7265L145.3867 385.7265L145.3867 385.7265L145.3867 472.7265L145.3867 472.7265L52.38667 472.7265z" /></clipPath><clipPath id="33"><path id="" clip-rule="evenodd" transform="matrix(1 0 0 1 0 0)" d="M0 -0.249939L595.5 -0.249939L595.5 -0.249939L595.5 842.0001L595.5 842.0001L0 842.0001z" /></clipPath><clipPath id="34"><path id="" clip-rule="evenodd" transform="matrix(1 0 0 1 0 0)" d="M18.72 489.5901L563.7599 489.5901L563.7599 489.5901L563.7599 589.67L563.7599 589.67L18.72 589.67z" /></clipPath><clipPath id="35"><path id="" clip-rule="evenodd" transform="matrix(1 0 0 1 0 0)" d="M18.91059 489.757L563.7511 489.757L563.7511 489.757L563.7511 589.599L563.7511 589.599L18.91059 589.599z" /></clipPath><clipPath id="36"><path id="" clip-rule="evenodd" transform="matrix(1 0 0 1 0 0)" d="M43.66059 489.757L538.7057 489.757C 552.3748 489.757 563.4557 500.838 563.4557 514.5071L563.4557 514.5071L563.4557 564.849C 563.4557 578.518 552.3748 589.599 538.7057 589.599L538.7057 589.599L43.66059 589.599C 29.99154 589.599 18.91059 578.518 18.91059 564.849L18.91059 564.849L18.91059 514.5071C 18.91059 500.838 29.99154 489.757 43.66059 489.757z" /></clipPath><clipPath id="37"><path id="" clip-rule="evenodd" transform="matrix(1 0 0 1 0 0)" d="M0 -0.249939L595.5 -0.249939L595.5 -0.249939L595.5 842.0001L595.5 842.0001L0 842.0001z" /></clipPath><clipPath id="38"><path id="" clip-rule="evenodd" transform="matrix(1 0 0 1 0 0)" d="M0 -0.249939L595.5 -0.249939L595.5 -0.249939L595.5 842.0001L595.5 842.0001L0 842.0001z" /></clipPath><clipPath id="39"><path id="" clip-rule="evenodd" transform="matrix(1 0 0 1 0 0)" d="M462.4748 499.5221L549.4748 499.5221L549.4748 499.5221L549.4748 584.2721L549.4748 584.2721L462.4748 584.2721z" /></clipPath><clipPath id="40"><path id="" clip-rule="evenodd" transform="matrix(1 0 0 1 0 0)" d="M462.4748 527.2721L462.4748 556.2166C 462.4748 571.5424 474.8989 583.9666 490.2248 583.9666L490.2248 583.9666L521.2005 583.9666C 536.5264 583.9666 548.9505 571.5424 548.9505 556.2166L548.9505 556.2166L548.9505 527.2721C 548.9505 511.9462 536.5264 499.5221 521.2005 499.5221L521.2005 499.5221L490.2248 499.5221C 474.8989 499.5221 462.4748 511.9462 462.4748 527.2721z" /></clipPath><clipPath id="41"><path id="" clip-rule="evenodd" transform="matrix(1 0 0 1 0 0)" d="M462.4748 499.5221L548.7248 499.5221L548.7248 499.5221L548.7248 584.2721L548.7248 584.2721L462.4748 584.2721z" /></clipPath><clipPath id="42"><path id="" clip-rule="evenodd" transform="matrix(1 0 0 1 0 0)" d="M0 -0.249939L595.5 -0.249939L595.5 -0.249939L595.5 842.0001L595.5 842.0001L0 842.0001z" /></clipPath><clipPath id="43"><path id="" clip-rule="evenodd" transform="matrix(1 0 0 1 0 0)" d="M14.4 599.9901L559.68 599.9901L559.68 599.9901L559.68 724.79L559.68 724.79L14.4 724.79z" /></clipPath><clipPath id="44"><path id="" clip-rule="evenodd" transform="matrix(1 0 0 1 0 0)" d="M14.6346 600.099L559.6221 600.099L559.6221 600.099L559.6221 724.6675L559.6221 724.6675L14.6346 724.6675z" /></clipPath><clipPath id="45"><path id="" clip-rule="evenodd" transform="matrix(1 0 0 1 0 0)" d="M39.3846 600.099L534.4297 600.099C 548.0988 600.099 559.1797 611.1799 559.1797 624.849L559.1797 624.849L559.1797 699.9175C 559.1797 713.5866 548.0988 724.6675 534.4297 724.6675L534.4297 724.6675L39.3846 724.6675C 25.71555 724.6675 14.6346 713.5866 14.6346 699.9175L14.6346 699.9175L14.6346 624.849C 14.6346 611.1799 25.71555 600.099 39.3846 600.099z" /></clipPath><clipPath id="46"><path id="" clip-rule="evenodd" transform="matrix(1 0 0 1 0 0)" d="M0 -0.249939L595.5 -0.249939L595.5 -0.249939L595.5 842.0001L595.5 842.0001L0 842.0001z" /></clipPath><clipPath id="47"><path id="" clip-rule="evenodd" transform="matrix(1 0 0 1 0 0)" d="M0 -0.249939L595.5 -0.249939L595.5 -0.249939L595.5 842.0001L595.5 842.0001L0 842.0001z" /></clipPath><clipPath id="48"><path id="" clip-rule="evenodd" transform="matrix(1 0 0 1 0 0)" d="M30.12788 620.6502L132.1279 620.6502L132.1279 620.6502L132.1279 704.6502L132.1279 704.6502L30.12788 704.6502z" /></clipPath><clipPath id="49"><path id="" clip-rule="evenodd" transform="matrix(1 0 0 1 0 0)" d="M30.12788 648.4002L30.12788 676.8051C 30.12788 692.131 42.55198 704.5551 57.87788 704.5551L57.87788 704.5551L103.9814 704.5551C 119.3073 704.5551 131.7314 692.131 131.7314 676.8051L131.7314 676.8051L131.7314 648.4002C 131.7314 633.0743 119.3073 620.6502 103.9814 620.6502L103.9814 620.6502L57.87788 620.6502C 42.55198 620.6502 30.12788 633.0743 30.12788 648.4002z" /></clipPath><clipPath id="50"><path id="" clip-rule="evenodd" transform="matrix(1 0 0 1 0 0)" d="M30.12788 620.6502L131.3779 620.6502L131.3779 620.6502L131.3779 704.6502L131.3779 704.6502L30.12788 704.6502z" /></clipPath><clipPath id="51"><path id="" clip-rule="evenodd" transform="matrix(1 0 0 1 0 0)" d="M0 -0.249939L595.5 -0.249939L595.5 -0.249939L595.5 842.0001L595.5 842.0001L0 842.0001z" /></clipPath><clipPath id="52"><path id="" clip-rule="evenodd" transform="matrix(1 0 0 1 0 0)" d="M14.4 738.23L559.44 738.23L559.44 738.23L559.44 825.8301L559.44 825.8301L14.4 825.8301z" /></clipPath><clipPath id="53"><path id="" clip-rule="evenodd" transform="matrix(1 0 0 1 0 0)" d="M14.6346 738.4593L559.274 738.4593L559.274 738.4593L559.274 825.7653L559.274 825.7653L14.6346 825.7653z" /></clipPath><clipPath id="54"><path id="" clip-rule="evenodd" transform="matrix(1 0 0 1 0 0)" d="M39.3846 738.4593L534.4297 738.4593C 548.0988 738.4593 559.1797 749.5402 559.1797 763.2093L559.1797 763.2093L559.1797 801.0153C 559.1797 814.6843 548.0988 825.7653 534.4297 825.7653L534.4297 825.7653L39.3846 825.7653C 25.71555 825.7653 14.6346 814.6843 14.6346 801.0153L14.6346 801.0153L14.6346 763.2093C 14.6346 749.5402 25.71555 738.4593 39.3846 738.4593z" /></clipPath><clipPath id="55"><path id="" clip-rule="evenodd" transform="matrix(1 0 0 1 0 0)" d="M0 -0.249939L595.5 -0.249939L595.5 -0.249939L595.5 842.0001L595.5 842.0001L0 842.0001z" /></clipPath><clipPath id="56"><path id="" clip-rule="evenodd" transform="matrix(1 0 0 1 0 0)" d="M0 -0.249939L595.5 -0.249939L595.5 -0.249939L595.5 842.0001L595.5 842.0001L0 842.0001z" /></clipPath><clipPath id="57"><path id="" clip-rule="evenodd" transform="matrix(1 0 0 1 0 0)" d="M475.4905 747.0261L536.9905 747.0261L536.9905 747.0261L536.9905 817.5261L536.9905 817.5261L475.4905 817.5261z" /></clipPath><clipPath id="58"><path id="" clip-rule="evenodd" transform="matrix(1 0 0 1 0 0)" d="M475.4905 762.0261L475.4905 802.1985C 475.4905 810.4828 482.2062 817.1985 490.4905 817.1985L490.4905 817.1985L521.7563 817.1985C 530.0406 817.1985 536.7563 810.4828 536.7563 802.1985L536.7563 802.1985L536.7563 762.0261C 536.7563 753.7418 530.0406 747.0261 521.7563 747.0261L521.7563 747.0261L490.4905 747.0261C 482.2062 747.0261 475.4905 753.7418 475.4905 762.0261z" /></clipPath><clipPath id="59"><path id="" clip-rule="evenodd" transform="matrix(1 0 0 1 0 0)" d="M475.4905 747.0261L536.9905 747.0261L536.9905 747.0261L536.9905 817.5261L536.9905 817.5261L475.4905 817.5261z" /></clipPath><clipPath id="60"><path id="" clip-rule="evenodd" transform="matrix(1 0 0 1 0 0)" d="M0 -0.249939L595.5 -0.249939L595.5 -0.249939L595.5 842.0001L595.5 842.0001L0 842.0001z" /></clipPath><clipPath id="61"><path id="" clip-rule="evenodd" transform="matrix(1 0 0 1 0 0)" d="M499.6608 11.00061L584.4108 11.00061L584.4108 11.00061L584.4108 59.00061L584.4108 59.00061L499.6608 59.00061z" /></clipPath><clipPath id="62"><path id="" clip-rule="evenodd" transform="matrix(1 0 0 1 0 0)" d="M6.042091 6.794739L79.54209 6.794739L79.54209 6.794739L79.54209 72.04474L79.54209 72.04474L6.042091 72.04474z" /></clipPath></defs><g transform="matrix(1.333333 0 0 1.333333 0 0)"><g clip-path="url(#1)"><g clip-path="url(#2)"><path id="1" transform="matrix(1 0 0 -1 0 842)" d="M0 842.2499L595.4999 842.2499L595.4999 -6.103516E-05L0 -6.103516E-05z" stroke="none" fill="#FFFFFF" fill-rule="nonzero" /></g><g clip-path="url(#3)"><path id="2" transform="matrix(1 0 0 -1 0 842)" d="M0 842.2499L595.4999 842.2499L595.4999 -6.103516E-05L0 -6.103516E-05z" stroke="none" fill="#FFFFFF" fill-rule="nonzero" /></g><g clip-path="url(#4)"><g><g clip-path="url(#5)"><g clip-path="url(#6)"><g transform="matrix(0 0.5281065 -0.5283893 0 535.7493 38.35962)"><g transform="matrix(1 0 0 1 0 0)"><image x="0" y="0" xlink:href="img_01.png" width="1521" height="863" /></g></g></g></g></g><g><g clip-path="url(#7)"><g clip-path="url(#8)"><g clip-path="url(#9)"><path id="38" transform="matrix(1 0 0 -1 0 842)" d="M18.91059 704.9792L563.3027 704.9792L563.3027 607.3167L18.91059 607.3167z" stroke="none" fill="#FF914D" fill-rule="nonzero" fill-opacity="0.3490196" /></g></g></g></g></g><g clip-path="url(#10)"><g clip-path="url(#11)"><g clip-path="url(#12)"><g clip-path="url(#13)"><g clip-path="url(#14)"><g transform="matrix(0.4087301 0 0 0.4076923 42.96556 145.9854)"><g transform="matrix(1 0 0 1 0 0)"><image x="0" y="0" xlink:href="img_02.png" width="189" height="195" /></g></g></g></g></g></g></g><g clip-path="url(#15)"><g><g clip-path="url(#16)"><g clip-path="url(#17)"><g clip-path="url(#18)"><path id="158" transform="matrix(1 0 0 -1 0 842)" d="M18.91059 596.5834L563.5125 596.5834L563.5125 475.1391L18.91059 475.1391z" stroke="none" fill="#FF914D" fill-rule="nonzero" fill-opacity="0.3490196" /></g></g></g></g></g><g clip-path="url(#19)"><g clip-path="url(#20)"><g clip-path="url(#21)"><g clip-path="url(#22)"><g clip-path="url(#23)"><g transform="matrix(0.5777027 0 0 0.5797871 460.4218 262.8442)"><g transform="matrix(1 0 0 1 0 0)"><image x="0" y="0" xlink:href="img_03.png" width="148" height="141" /></g></g></g></g></g></g></g><g clip-path="url(#24)"><g><g clip-path="url(#25)"><g clip-path="url(#26)"><g clip-path="url(#27)"><path id="399" transform="matrix(1 0 0 -1 0 842)" d="M18.91059 461.9438L563.3525 461.9438L563.3525 362.7429L18.91059 362.7429z" stroke="none" fill="#FF914D" fill-rule="nonzero" fill-opacity="0.3490196" /></g></g></g></g></g><g clip-path="url(#28)"><g clip-path="url(#29)"><g clip-path="url(#30)"><g clip-path="url(#31)"><g clip-path="url(#32)"><g transform="matrix(0.4285714 0 0 0.4264706 52.38667 385.7265)"><g transform="matrix(1 0 0 1 0 0)"><image x="0" y="0" xlink:href="img_04.png" width="217" height="204" /></g></g></g></g></g></g></g><g clip-path="url(#33)"><g><g clip-path="url(#34)"><g clip-path="url(#35)"><g clip-path="url(#36)"><path id="498" transform="matrix(1 0 0 -1 0 842)" d="M18.91059 352.243L563.3611 352.243L563.3611 252.401L18.91059 252.401z" stroke="none" fill="#FF914D" fill-rule="nonzero" fill-opacity="0.3490196" /></g></g></g></g></g><g clip-path="url(#37)"><g clip-path="url(#38)"><g clip-path="url(#39)"><g clip-path="url(#40)"><g clip-path="url(#41)"><g transform="matrix(0.578859 0 0 0.5804794 462.4748 499.5221)"><g transform="matrix(1 0 0 1 0 0)"><image x="0" y="0" xlink:href="img_05.png" width="149" height="146" /></g></g></g></g></g></g></g><g clip-path="url(#42)"><g><g clip-path="url(#43)"><g clip-path="url(#44)"><g clip-path="url(#45)"><path id="639" transform="matrix(1 0 0 -1 0 842)" d="M14.6346 241.901L559.1354 241.901L559.1354 117.3324L14.6346 117.3324z" stroke="none" fill="#FF914D" fill-rule="nonzero" fill-opacity="0.3490196" /></g></g></g></g></g><g clip-path="url(#46)"><g clip-path="url(#47)"><g clip-path="url(#48)"><g clip-path="url(#49)"><g clip-path="url(#50)"><g transform="matrix(0.5443549 0 0 0.5454545 30.12788 620.6502)"><g transform="matrix(1 0 0 1 0 0)"><image x="0" y="0" xlink:href="img_06.png" width="186" height="154" /></g></g></g></g></g></g></g><g clip-path="url(#51)"><g><g clip-path="url(#52)"><g clip-path="url(#53)"><g clip-path="url(#54)"><path id="862" transform="matrix(1 0 0 -1 0 842)" d="M14.6346 103.5407L559.274 103.5407L559.274 16.23471L14.6346 16.23471z" stroke="none" fill="#FF914D" fill-rule="nonzero" fill-opacity="0.3490196" /></g></g></g></g></g><g clip-path="url(#55)"><g clip-path="url(#56)"><g clip-path="url(#57)"><g clip-path="url(#58)"><g clip-path="url(#59)"><g transform="matrix(0.5394737 0 0 0.5423076 475.4904 747.0261)"><g transform="matrix(1 0 0 1 0 0)"><image x="0" y="0" xlink:href="img_07.png" width="114" height="130" /></g></g></g></g></g></g></g><g clip-path="url(#60)"></g><g clip-path="url(#61)"><g transform="matrix(0.05571992 0 0 0.05561992 499.6608 11.00061)"><g transform="matrix(1 0 0 1 0 0)"><image x="0" y="0" xlink:href="img_08.png" width="1521" height="863" /></g></g></g><g clip-path="url(#62)"><g transform="matrix(0.459375 0 0 0.4627659 6.042091 6.7948)"><g transform="matrix(1 0 0 1 0 0)"><image x="0" y="0" xlink:href="img_09.png" width="160" height="141" /></g></g></g></g></g></svg>