<svg xmlns="http://www.w3.org/2000/svg" xmlns:xlink="http://www.w3.org/1999/xlink" id="body_1" preserveAspectRatio="xMinYMin meet" viewBox="0 0 793 1123"><defs><clipPath id="1"><path id="" clip-rule="evenodd" transform="matrix(1 0 0 1 0 0)" d="M0 842L0 -0.250061L0 -0.250061L595.5 -0.250061L595.5 -0.250061L595.5 842L595.5 842L0 842z" /></clipPath><clipPath id="2"><path id="" clip-rule="evenodd" transform="matrix(1 0 0 1 0 0)" d="M0 -0.25L595.5 -0.25L595.5 -0.25L595.5 842.0012L595.5 842.0012L0 842.0012z" /></clipPath><clipPath id="3"><path id="" clip-rule="evenodd" transform="matrix(1 0 0 1 0 0)" d="M0 -0.25L595.5 -0.25L595.5 -0.25L595.5 842.0012L595.5 842.0012L0 842.0012z" /></clipPath><clipPath id="4"><path id="" clip-rule="evenodd" transform="matrix(1 0 0 1 0 0)" d="M0 -0.25L595.5 -0.25L595.5 -0.25L595.5 842.0012L595.5 842.0012L0 842.0012z" /></clipPath><clipPath id="5"><path id="" clip-rule="evenodd" transform="matrix(1 0 0 1 0 0)" d="M75.59999 23.27002L519.12 23.27002L519.12 23.27002L519.12 803.51L519.12 803.51L75.59999 803.51z" /></clipPath><clipPath id="6"><path id="" clip-rule="evenodd" transform="matrix(1 0 0 1 0 0)" d="M76.4271 23.4798L518.9271 23.4798L518.9271 23.4798L518.9271 803.4798L518.9271 803.4798L76.4271 803.4798z" /></clipPath><clipPath id="7"><path id="" clip-rule="evenodd" transform="matrix(1 0 0 1 0 0)" d="M65.03999 -0.25L256.8 -0.25L256.8 -0.25L256.8 157.67L256.8 157.67L65.03999 157.67z" /></clipPath><clipPath id="8"><path id="" clip-rule="evenodd" transform="matrix(1 0 0 1 0 0)" d="M64.8 -0.4899902L256.7673 -0.4899902L256.7673 -0.4899902L256.7673 156.9557L256.7673 156.9557L64.8 156.9557z" /></clipPath><clipPath id="9"><path id="" clip-rule="evenodd" transform="matrix(1 0 0 1 0 0)" d="M0 -0.25L595.5 -0.25L595.5 -0.25L595.5 842.0012L595.5 842.0012L0 842.0012z" /></clipPath><clipPath id="10"><path id="" clip-rule="evenodd" transform="matrix(1 0 0 1 0 0)" d="M0 -0.25L595.5 -0.25L595.5 -0.25L595.5 842.0012L595.5 842.0012L0 842.0012z" /></clipPath><clipPath id="11"><path id="" clip-rule="evenodd" transform="matrix(1 0 0 1 0 0)" d="M41.76168 167.7217L289.2953 167.7217L289.2953 167.7217L289.2953 433.6273L289.2953 433.6273L41.76168 433.6273z" /></clipPath><clipPath id="12"><path id="" clip-rule="evenodd" transform="matrix(1 0 0 1 0 0)" d="M69.51167 167.7217L261.5448 167.7217C 268.9056 167.7217 275.964 170.6454 281.1672 175.8495C 286.3728 181.0537 289.296 188.1118 289.296 195.4717L289.296 195.4717L289.296 405.8108C 289.296 413.1692 286.3728 420.2276 281.1672 425.4332C 275.964 430.6364 268.9056 433.5596 261.5448 433.5596L261.5448 433.5596L69.51167 433.5596C 62.15184 433.5596 55.09344 430.6364 49.88952 425.4332C 44.68536 420.2276 41.76168 413.1692 41.76168 405.8108L41.76168 405.8108L41.76168 195.4717C 41.76168 188.1118 44.68536 181.0537 49.88952 175.8495C 55.09344 170.6454 62.15184 167.7217 69.51167 167.7217z" /></clipPath><clipPath id="13"><path id="" clip-rule="evenodd" transform="matrix(1 0 0 1 0 0)" d="M42.90816 395.2484L280.6581 395.2484L280.6581 395.2484L280.6581 400.4984L280.6581 400.4984L42.90816 400.4984z" /></clipPath><clipPath id="14"><path id="" clip-rule="evenodd" transform="matrix(1 0 0 1 0 0)" d="M42.72 395.27L280.8 395.27L280.8 395.27L280.8 400.55L280.8 400.55L42.72 400.55z" /></clipPath><mask id="m1"><clipPath id="15"><path id="" clip-rule="evenodd" transform="matrix(1 0 0 1 0 0)" d="M42.72 395.27L280.8 395.27L280.8 395.27L280.8 400.55L280.8 400.55L42.72 400.55z" /></clipPath><g><g><g clip-path="url(#15)"><path id="91" transform="matrix(1 0 0 -1 0 842)" d="M42.72 446.73L280.8 446.73L280.8 441.45L42.72 441.45z" stroke="none" fill="#000000" fill-rule="nonzero" /></g></g></g></mask><clipPath id="16"><path id="" clip-rule="evenodd" transform="matrix(1 0 0 1 0 0)" d="M42.72 395.27L280.8 395.27L280.8 395.27L280.8 400.55L280.8 400.55L42.72 400.55z" /></clipPath><clipPath id="17"><path id="" clip-rule="evenodd" transform="matrix(1 0 0 1 0 0)" d="M42.48 395.3301L281.04 395.3301L281.04 395.3301L281.04 400.5913L281.04 400.5913L42.48 400.5913z" /></clipPath><mask id="m2"><clipPath id="18"><path id="" clip-rule="evenodd" transform="matrix(1 0 0 1 0 0)" d="M42.72 395.27L280.8 395.27L280.8 395.27L280.8 400.55L280.8 400.55L42.72 400.55z" /></clipPath><clipPath id="19"><path id="" clip-rule="evenodd" transform="matrix(1 0 0 1 0 0)" d="M42.72 395.27L280.8 395.27L280.8 395.27L280.8 400.55L280.8 400.55L42.72 400.55z" /></clipPath><clipPath id="20"><path id="" clip-rule="evenodd" transform="matrix(1 0 0 1 0 0)" d="M42.93068 395.3301L280.646 395.3301L280.646 395.3301L280.646 400.3809L280.646 400.3809L42.93068 400.3809z" /></clipPath><g><g><g clip-path="url(#18)"><g><g clip-path="url(#19)"><g clip-path="url(#20)"><g transform="matrix(0.24 0 0 0.24 42.72 395.2701)"><g transform="matrix(1 0 0 1 0 0)"><image x="0" y="0" xlink:href="img_02.png" width="992" height="22" /></g></g></g></g></g></g></g></g></mask><clipPath id="21"><path id="" clip-rule="evenodd" transform="matrix(1 0 0 1 0 0)" d="M42.72 395.27L280.8 395.27L280.8 395.27L280.8 400.55L280.8 400.55L42.72 400.55z" /></clipPath><clipPath id="22"><path id="" clip-rule="evenodd" transform="matrix(1 0 0 1 0 0)" d="M42.48 395.3301L281.04 395.3301L281.04 395.3301L281.04 400.5913L281.04 400.5913L42.48 400.5913z" /></clipPath><clipPath id="23"><path id="" clip-rule="evenodd" transform="matrix(1 0 0 1 0 0)" d="M0 -0.25L595.5 -0.25L595.5 -0.25L595.5 842.0012L595.5 842.0012L0 842.0012z" /></clipPath><clipPath id="24"><path id="" clip-rule="evenodd" transform="matrix(1 0 0 1 0 0)" d="M0 -0.25L595.5 -0.25L595.5 -0.25L595.5 842.0012L595.5 842.0012L0 842.0012z" /></clipPath><clipPath id="25"><path id="" clip-rule="evenodd" transform="matrix(1 0 0 1 0 0)" d="M61.81919 261.3644L278.1513 261.3644L278.1513 261.3644L278.1513 385.2594L278.1513 385.2594L61.81919 385.2594z" /></clipPath><clipPath id="26"><path id="" clip-rule="evenodd" transform="matrix(1 0 0 1 0 0)" d="M74.5692 261.3644L265.3488 261.3644C 268.7304 261.3644 271.9728 262.706 274.3632 265.0988C 276.756 267.4892 278.0976 270.7316 278.0976 274.1132L278.0976 274.1132L278.0976 372.5084C 278.0976 375.89 276.756 379.1324 274.3632 381.5228C 271.9728 383.9156 268.7304 385.2572 265.3488 385.2572L265.3488 385.2572L74.5692 385.2572C 71.1876 385.2572 67.94472 383.9156 65.5536 381.5228C 63.16248 379.1324 61.81919 375.89 61.81919 372.5084L61.81919 372.5084L61.81919 274.1132C 61.81919 270.7316 63.16248 267.4892 65.5536 265.0988C 67.94472 262.706 71.1876 261.3644 74.5692 261.3644z" /></clipPath><clipPath id="27"><path id="" clip-rule="evenodd" transform="matrix(1 0 0 1 0 0)" d="M61.81919 261.3644L278.1513 261.3644L278.1513 261.3644L278.1513 385.2594L278.1513 385.2594L61.81919 385.2594z" /></clipPath><clipPath id="28"><path id="" clip-rule="evenodd" transform="matrix(1 0 0 1 0 0)" d="M0 -0.25L595.5 -0.25L595.5 -0.25L595.5 842.0012L595.5 842.0012L0 842.0012z" /></clipPath><clipPath id="29"><path id="" clip-rule="evenodd" transform="matrix(1 0 0 1 0 0)" d="M0 -0.25L595.5 -0.25L595.5 -0.25L595.5 842.0012L595.5 842.0012L0 842.0012z" /></clipPath><clipPath id="30"><path id="" clip-rule="evenodd" transform="matrix(1 0 0 1 0 0)" d="M0 -0.25L595.5 -0.25L595.5 -0.25L595.5 842.0012L595.5 842.0012L0 842.0012z" /></clipPath><clipPath id="31"><path id="" clip-rule="evenodd" transform="matrix(1 0 0 1 0 0)" d="M23.9957 480.422L298.4981 480.422L298.4981 480.422L298.4981 739.73L298.4981 739.73L23.9957 739.73z" /></clipPath><clipPath id="32"><path id="" clip-rule="evenodd" transform="matrix(1 0 0 1 0 0)" d="M51.74568 480.422L269.8872 480.422C 277.248 480.422 284.3064 483.3452 289.5096 488.5484C 294.7152 493.754 297.6384 500.8124 297.6384 508.1708L297.6384 508.1708L297.6384 711.9788C 297.6384 719.3396 294.7152 726.3979 289.5096 731.6011C 284.3064 736.8068 277.248 739.73 269.8872 739.73L269.8872 739.73L51.74568 739.73C 44.38584 739.73 37.32768 736.8068 32.12352 731.6011C 26.91936 726.3979 23.9957 719.3396 23.9957 711.9788L23.9957 711.9788L23.9957 508.1708C 23.9957 500.8124 26.91936 493.754 32.12352 488.5484C 37.32768 483.3452 44.38584 480.422 51.74568 480.422z" /></clipPath><clipPath id="33"><path id="" clip-rule="evenodd" transform="matrix(1 0 0 1 0 0)" d="M41.76168 715.0388L279.5117 715.0388L279.5117 715.0388L279.5117 720.2888L279.5117 720.2888L41.76168 720.2888z" /></clipPath><clipPath id="34"><path id="" clip-rule="evenodd" transform="matrix(1 0 0 1 0 0)" d="M41.76 714.95L279.6 714.95L279.6 714.95L279.6 720.47L279.6 720.47L41.76 720.47z" /></clipPath><mask id="m3"><clipPath id="35"><path id="" clip-rule="evenodd" transform="matrix(1 0 0 1 0 0)" d="M41.76 714.95L279.6 714.95L279.6 714.95L279.6 720.47L279.6 720.47L41.76 720.47z" /></clipPath><g><g><g clip-path="url(#35)"><path id="176" transform="matrix(1 0 0 -1 0 842)" d="M41.76 127.05L279.6 127.05L279.6 121.53L41.76 121.53z" stroke="none" fill="#000000" fill-rule="nonzero" /></g></g></g></mask><clipPath id="36"><path id="" clip-rule="evenodd" transform="matrix(1 0 0 1 0 0)" d="M41.76 714.95L279.6 714.95L279.6 714.95L279.6 720.47L279.6 720.47L41.76 720.47z" /></clipPath><clipPath id="37"><path id="" clip-rule="evenodd" transform="matrix(1 0 0 1 0 0)" d="M41.52 715.1207L279.84 715.1207L279.84 715.1207L279.84 720.3819L279.84 720.3819L41.52 720.3819z" /></clipPath><mask id="m4"><clipPath id="38"><path id="" clip-rule="evenodd" transform="matrix(1 0 0 1 0 0)" d="M41.76 714.95L279.6 714.95L279.6 714.95L279.6 720.47L279.6 720.47L41.76 720.47z" /></clipPath><clipPath id="39"><path id="" clip-rule="evenodd" transform="matrix(1 0 0 1 0 0)" d="M41.76 714.95L279.6 714.95L279.6 714.95L279.6 720.47L279.6 720.47L41.76 720.47z" /></clipPath><clipPath id="40"><path id="" clip-rule="evenodd" transform="matrix(1 0 0 1 0 0)" d="M41.78413 715.1207L279.4995 715.1207L279.4995 715.1207L279.4995 720.1714L279.4995 720.1714L41.78413 720.1714z" /></clipPath><g><g><g clip-path="url(#38)"><g><g clip-path="url(#39)"><g clip-path="url(#40)"><g transform="matrix(0.24 0 0 0.24 41.76 714.95)"><g transform="matrix(1 0 0 1 0 0)"><image x="0" y="0" xlink:href="img_04.png" width="991" height="22" /></g></g></g></g></g></g></g></g></mask><clipPath id="41"><path id="" clip-rule="evenodd" transform="matrix(1 0 0 1 0 0)" d="M41.76 714.95L279.6 714.95L279.6 714.95L279.6 720.47L279.6 720.47L41.76 720.47z" /></clipPath><clipPath id="42"><path id="" clip-rule="evenodd" transform="matrix(1 0 0 1 0 0)" d="M41.52 715.1207L279.84 715.1207L279.84 715.1207L279.84 720.3819L279.84 720.3819L41.52 720.3819z" /></clipPath><clipPath id="43"><path id="" clip-rule="evenodd" transform="matrix(1 0 0 1 0 0)" d="M0 -0.25L595.5 -0.25L595.5 -0.25L595.5 842.0012L595.5 842.0012L0 842.0012z" /></clipPath><clipPath id="44"><path id="" clip-rule="evenodd" transform="matrix(1 0 0 1 0 0)" d="M0 -0.25L595.5 -0.25L595.5 -0.25L595.5 842.0012L595.5 842.0012L0 842.0012z" /></clipPath><clipPath id="45"><path id="" clip-rule="evenodd" transform="matrix(1 0 0 1 0 0)" d="M38.7528 569.5508L197.7838 569.5508L197.7838 569.5508L197.7838 700.0378L197.7838 700.0378L38.7528 700.0378z" /></clipPath><clipPath id="46"><path id="" clip-rule="evenodd" transform="matrix(1 0 0 1 0 0)" d="M51.5028 569.5508L184.9498 569.5508C 188.3311 569.5508 191.5742 570.8948 193.9654 573.2852C 196.3565 575.678 197.6998 578.9203 197.6998 582.302L197.6998 582.302L197.6998 687.2876C 197.6998 690.6692 196.3565 693.914 193.9654 696.3044C 191.5742 698.6948 188.3311 700.0388 184.9498 700.0388L184.9498 700.0388L51.5028 700.0388C 48.1212 700.0388 44.87832 698.6948 42.4872 696.3044C 40.09608 693.914 38.7528 690.6692 38.7528 687.2876L38.7528 687.2876L38.7528 582.302C 38.7528 578.9203 40.09608 575.678 42.4872 573.2852C 44.87832 570.8948 48.1212 569.5508 51.5028 569.5508z" /></clipPath><clipPath id="47"><path id="" clip-rule="evenodd" transform="matrix(1 0 0 1 0 0)" d="M38.7528 569.5508L197.7838 569.5508L197.7838 569.5508L197.7838 700.0378L197.7838 700.0378L38.7528 700.0378z" /></clipPath><clipPath id="48"><path id="" clip-rule="evenodd" transform="matrix(1 0 0 1 0 0)" d="M0 -0.25L595.5 -0.25L595.5 -0.25L595.5 842.0012L595.5 842.0012L0 842.0012z" /></clipPath><clipPath id="49"><path id="" clip-rule="evenodd" transform="matrix(1 0 0 1 0 0)" d="M0 -0.25L595.5 -0.25L595.5 -0.25L595.5 842.0012L595.5 842.0012L0 842.0012z" /></clipPath><clipPath id="50"><path id="" clip-rule="evenodd" transform="matrix(1 0 0 1 0 0)" d="M0 -0.25L595.5 -0.25L595.5 -0.25L595.5 842.0012L595.5 842.0012L0 842.0012z" /></clipPath><clipPath id="51"><path id="" clip-rule="evenodd" transform="matrix(1 0 0 1 0 0)" d="M334.5168 108.6918L582.2304 108.6918L582.2304 108.6918L582.2304 354.4854L582.2304 354.4854L334.5168 354.4854z" /></clipPath><clipPath id="52"><path id="" clip-rule="evenodd" transform="matrix(1 0 0 1 0 0)" d="M362.2656 108.6918L554.2992 108.6918C 561.66 108.6918 568.7184 111.6154 573.9216 116.8196C 579.1248 122.0237 582.0504 129.0819 582.0504 136.4418L582.0504 136.4418L582.0504 326.7356C 582.0504 334.094 579.1248 341.1524 573.9216 346.358C 568.7184 351.5612 561.66 354.4844 554.2992 354.4844L554.2992 354.4844L362.2656 354.4844C 354.9048 354.4844 347.8464 351.5612 342.6432 346.358C 337.44 341.1524 334.5168 334.094 334.5168 326.7356L334.5168 326.7356L334.5168 136.4418C 334.5168 129.0819 337.44 122.0237 342.6432 116.8196C 347.8464 111.6154 354.9048 108.6918 362.2656 108.6918z" /></clipPath><clipPath id="53"><path id="" clip-rule="evenodd" transform="matrix(1 0 0 1 0 0)" d="M339.228 322.0964L576.978 322.0964L576.978 322.0964L576.978 327.3464L576.978 327.3464L339.228 327.3464z" /></clipPath><clipPath id="54"><path id="" clip-rule="evenodd" transform="matrix(1 0 0 1 0 0)" d="M339.12 322.07L577.2 322.07L577.2 322.07L577.2 327.35L577.2 327.35L339.12 327.35z" /></clipPath><mask id="m5"><clipPath id="55"><path id="" clip-rule="evenodd" transform="matrix(1 0 0 1 0 0)" d="M339.12 322.07L577.2 322.07L577.2 322.07L577.2 327.35L577.2 327.35L339.12 327.35z" /></clipPath><g><g><g clip-path="url(#55)"><path id="283" transform="matrix(1 0 0 -1 0 842)" d="M339.12 519.93L577.2 519.93L577.2 514.65L339.12 514.65z" stroke="none" fill="#000000" fill-rule="nonzero" /></g></g></g></mask><clipPath id="56"><path id="" clip-rule="evenodd" transform="matrix(1 0 0 1 0 0)" d="M339.12 322.07L577.2 322.07L577.2 322.07L577.2 327.35L577.2 327.35L339.12 327.35z" /></clipPath><clipPath id="57"><path id="" clip-rule="evenodd" transform="matrix(1 0 0 1 0 0)" d="M338.88 322.1793L577.4399 322.1793L577.4399 322.1793L577.4399 327.4406L577.4399 327.4406L338.88 327.4406z" /></clipPath><mask id="m6"><clipPath id="58"><path id="" clip-rule="evenodd" transform="matrix(1 0 0 1 0 0)" d="M339.12 322.07L577.2 322.07L577.2 322.07L577.2 327.35L577.2 327.35L339.12 327.35z" /></clipPath><clipPath id="59"><path id="" clip-rule="evenodd" transform="matrix(1 0 0 1 0 0)" d="M339.12 322.07L577.2 322.07L577.2 322.07L577.2 327.35L577.2 327.35L339.12 327.35z" /></clipPath><clipPath id="60"><path id="" clip-rule="evenodd" transform="matrix(1 0 0 1 0 0)" d="M339.2499 322.1793L576.9653 322.1793L576.9653 322.1793L576.9653 327.2301L576.9653 327.2301L339.2499 327.2301z" /></clipPath><g><g><g clip-path="url(#58)"><g><g clip-path="url(#59)"><g clip-path="url(#60)"><g transform="matrix(0.24 0 0 0.24 339.12 322.07)"><g transform="matrix(1 0 0 1 0 0)"><image x="0" y="0" xlink:href="img_06.png" width="992" height="22" /></g></g></g></g></g></g></g></g></mask><clipPath id="61"><path id="" clip-rule="evenodd" transform="matrix(1 0 0 1 0 0)" d="M339.12 322.07L577.2 322.07L577.2 322.07L577.2 327.35L577.2 327.35L339.12 327.35z" /></clipPath><clipPath id="62"><path id="" clip-rule="evenodd" transform="matrix(1 0 0 1 0 0)" d="M338.88 322.1793L577.4399 322.1793L577.4399 322.1793L577.4399 327.4406L577.4399 327.4406L338.88 327.4406z" /></clipPath><clipPath id="63"><path id="" clip-rule="evenodd" transform="matrix(1 0 0 1 0 0)" d="M0 -0.25L595.5 -0.25L595.5 -0.25L595.5 842.0012L595.5 842.0012L0 842.0012z" /></clipPath><clipPath id="64"><path id="" clip-rule="evenodd" transform="matrix(1 0 0 1 0 0)" d="M0 -0.25L595.5 -0.25L595.5 -0.25L595.5 842.0012L595.5 842.0012L0 842.0012z" /></clipPath><clipPath id="65"><path id="" clip-rule="evenodd" transform="matrix(1 0 0 1 0 0)" d="M349.4592 184.4382L566.0637 184.4382L566.0637 184.4382L566.0637 314.6044L566.0637 314.6044L349.4592 314.6044z" /></clipPath><clipPath id="66"><path id="" clip-rule="evenodd" transform="matrix(1 0 0 1 0 0)" d="M362.2104 184.4382L552.9888 184.4382C 556.3704 184.4382 559.6128 185.7814 562.0032 188.1725C 564.3959 190.5635 565.7376 193.8065 565.7376 197.1882L565.7376 197.1882L565.7376 301.8548C 565.7376 305.2364 564.3959 308.4788 562.0032 310.8691C 559.6128 313.262 556.3704 314.6036 552.9888 314.6036L552.9888 314.6036L362.2104 314.6036C 358.8288 314.6036 355.584 313.262 353.1936 310.8691C 350.8032 308.4788 349.4592 305.2364 349.4592 301.8548L349.4592 301.8548L349.4592 197.1882C 349.4592 193.8065 350.8032 190.5635 353.1936 188.1725C 355.584 185.7814 358.8288 184.4382 362.2104 184.4382z" /></clipPath><clipPath id="67"><path id="" clip-rule="evenodd" transform="matrix(1 0 0 1 0 0)" d="M349.4592 184.4382L565.5554 184.4382L565.5554 184.4382L565.5554 314.6044L565.5554 314.6044L349.4592 314.6044z" /></clipPath><clipPath id="68"><path id="" clip-rule="evenodd" transform="matrix(1 0 0 1 0 0)" d="M0 -0.25L595.5 -0.25L595.5 -0.25L595.5 842.0012L595.5 842.0012L0 842.0012z" /></clipPath><clipPath id="69"><path id="" clip-rule="evenodd" transform="matrix(1 0 0 1 0 0)" d="M0 -0.25L595.5 -0.25L595.5 -0.25L595.5 842.0012L595.5 842.0012L0 842.0012z" /></clipPath><clipPath id="70"><path id="" clip-rule="evenodd" transform="matrix(1 0 0 1 0 0)" d="M0 -0.25L595.5 -0.25L595.5 -0.25L595.5 842.0012L595.5 842.0012L0 842.0012z" /></clipPath><clipPath id="71"><path id="" clip-rule="evenodd" transform="matrix(1 0 0 1 0 0)" d="M330.9504 386.9372L578.484 386.9372L578.484 386.9372L578.484 648.0092L578.484 648.0092L330.9504 648.0092z" /></clipPath><clipPath id="72"><path id="" clip-rule="evenodd" transform="matrix(1 0 0 1 0 0)" d="M358.6992 386.9372L550.7352 386.9372C 558.0936 386.9372 565.152 389.8604 570.3576 395.0636C 575.5608 400.2692 578.484 407.3276 578.484 414.686L578.484 414.686L578.484 619.5908C 578.484 626.9516 575.5608 634.01 570.3576 639.2132C 565.152 644.4164 558.0936 647.342 550.7352 647.342L550.7352 647.342L358.6992 647.342C 351.3408 647.342 344.2824 644.4164 339.0792 639.2132C 333.8736 634.01 330.9504 626.9516 330.9504 619.5908L330.9504 619.5908L330.9504 414.686C 330.9504 407.3276 333.8736 400.2692 339.0792 395.0636C 344.2824 389.8604 351.3408 386.9372 358.6992 386.9372z" /></clipPath><clipPath id="73"><path id="" clip-rule="evenodd" transform="matrix(1 0 0 1 0 0)" d="M335.6616 613.7564L573.4116 613.7564L573.4116 613.7564L573.4116 619.0064L573.4116 619.0064L335.6616 619.0064z" /></clipPath><clipPath id="74"><path id="" clip-rule="evenodd" transform="matrix(1 0 0 1 0 0)" d="M335.52 613.67L573.6 613.67L573.6 613.67L573.6 619.19L573.6 619.19L335.52 619.19z" /></clipPath><mask id="m7"><clipPath id="75"><path id="" clip-rule="evenodd" transform="matrix(1 0 0 1 0 0)" d="M335.52 613.67L573.6 613.67L573.6 613.67L573.6 619.19L573.6 619.19L335.52 619.19z" /></clipPath><g><g><g clip-path="url(#75)"><path id="357" transform="matrix(1 0 0 -1 0 842)" d="M335.52 228.33L573.6 228.33L573.6 222.81L335.52 222.81z" stroke="none" fill="#000000" fill-rule="nonzero" /></g></g></g></mask><clipPath id="76"><path id="" clip-rule="evenodd" transform="matrix(1 0 0 1 0 0)" d="M335.52 613.67L573.6 613.67L573.6 613.67L573.6 619.19L573.6 619.19L335.52 619.19z" /></clipPath><clipPath id="77"><path id="" clip-rule="evenodd" transform="matrix(1 0 0 1 0 0)" d="M335.28 613.8376L573.84 613.8376L573.84 613.8376L573.84 619.0988L573.84 619.0988L335.28 619.0988z" /></clipPath><mask id="m8"><clipPath id="78"><path id="" clip-rule="evenodd" transform="matrix(1 0 0 1 0 0)" d="M335.52 613.67L573.6 613.67L573.6 613.67L573.6 619.19L573.6 619.19L335.52 619.19z" /></clipPath><clipPath id="79"><path id="" clip-rule="evenodd" transform="matrix(1 0 0 1 0 0)" d="M335.52 613.67L573.6 613.67L573.6 613.67L573.6 619.19L573.6 619.19L335.52 619.19z" /></clipPath><clipPath id="80"><path id="" clip-rule="evenodd" transform="matrix(1 0 0 1 0 0)" d="M335.6847 613.8376L573.4 613.8376L573.4 613.8376L573.4 618.8884L573.4 618.8884L335.6847 618.8884z" /></clipPath><g><g><g clip-path="url(#78)"><g><g clip-path="url(#79)"><g clip-path="url(#80)"><g transform="matrix(0.24 0 0 0.24 335.52 613.67)"><g transform="matrix(1 0 0 1 0 0)"><image x="0" y="0" xlink:href="img_08.png" width="992" height="22" /></g></g></g></g></g></g></g></g></mask><clipPath id="81"><path id="" clip-rule="evenodd" transform="matrix(1 0 0 1 0 0)" d="M335.52 613.67L573.6 613.67L573.6 613.67L573.6 619.19L573.6 619.19L335.52 619.19z" /></clipPath><clipPath id="82"><path id="" clip-rule="evenodd" transform="matrix(1 0 0 1 0 0)" d="M335.28 613.8376L573.84 613.8376L573.84 613.8376L573.84 619.0988L573.84 619.0988L335.28 619.0988z" /></clipPath><clipPath id="83"><path id="" clip-rule="evenodd" transform="matrix(1 0 0 1 0 0)" d="M0 -0.25L595.5 -0.25L595.5 -0.25L595.5 842.0012L595.5 842.0012L0 842.0012z" /></clipPath><clipPath id="84"><path id="" clip-rule="evenodd" transform="matrix(1 0 0 1 0 0)" d="M0 -0.25L595.5 -0.25L595.5 -0.25L595.5 842.0012L595.5 842.0012L0 842.0012z" /></clipPath><clipPath id="85"><path id="" clip-rule="evenodd" transform="matrix(1 0 0 1 0 0)" d="M349.4592 453.9764L565.7805 453.9764L565.7805 453.9764L565.7805 605.6976L565.7805 605.6976L349.4592 605.6976z" /></clipPath><clipPath id="86"><path id="" clip-rule="evenodd" transform="matrix(1 0 0 1 0 0)" d="M362.2104 453.9764L552.9888 453.9764C 556.3704 453.9764 559.6128 455.318 562.0032 457.7108C 564.3959 460.1012 565.7376 463.3436 565.7376 466.7252L565.7376 466.7252L565.7376 592.946C 565.7376 596.3276 564.3959 599.57 562.0032 601.9628C 559.6128 604.3531 556.3704 605.6972 552.9888 605.6972L552.9888 605.6972L362.2104 605.6972C 358.8288 605.6972 355.584 604.3531 353.1936 601.9628C 350.8032 599.57 349.4592 596.3276 349.4592 592.946L349.4592 592.946L349.4592 466.7252C 349.4592 463.3436 350.8032 460.1012 353.1936 457.7108C 355.584 455.318 358.8288 453.9764 362.2104 453.9764z" /></clipPath><clipPath id="87"><path id="" clip-rule="evenodd" transform="matrix(1 0 0 1 0 0)" d="M349.4592 453.9764L565.7805 453.9764L565.7805 453.9764L565.7805 605.6976L565.7805 605.6976L349.4592 605.6976z" /></clipPath><clipPath id="88"><path id="" clip-rule="evenodd" transform="matrix(1 0 0 1 0 0)" d="M0 -0.25L595.5 -0.25L595.5 -0.25L595.5 842.0012L595.5 842.0012L0 842.0012z" /></clipPath><clipPath id="89"><path id="" clip-rule="evenodd" transform="matrix(1 0 0 1 0 0)" d="M489.3888 8.540771L589.1388 8.540771L589.1388 8.540771L589.1388 64.79077L589.1388 64.79077L489.3888 64.79077z" /></clipPath><clipPath id="90"><path id="" clip-rule="evenodd" transform="matrix(1 0 0 1 0 0)" d="M0 -0.25L595.5 -0.25L595.5 -0.25L595.5 842.0012L595.5 842.0012L0 842.0012z" /></clipPath></defs><g transform="matrix(1.333333 0 0 1.333333 0 0)"><g clip-path="url(#1)"><g clip-path="url(#2)"><path id="1" transform="matrix(1 0 0 -1 0 842)" d="M0 842.25L595.4999 842.25L595.4999 0L0 0z" stroke="none" fill="#FFFFFF" fill-rule="nonzero" /></g><g clip-path="url(#3)"><path id="2" transform="matrix(1 0 0 -1 0 842)" d="M0 842.25L595.4999 842.25L595.4999 0L0 0z" stroke="none" fill="#FFFFFF" fill-rule="nonzero" /></g><g clip-path="url(#4)"><g><g clip-path="url(#5)"><g clip-path="url(#6)"><g transform="matrix(0 0.975 -0.9768211 0 518.9271 23.47986)"><g transform="matrix(1 0 0 1 0 0)"><image x="0" y="0" xlink:href="img_01.png" width="800" height="453" /></g></g></g></g></g><g><g clip-path="url(#7)"><g clip-path="url(#8)"><path id="4" transform="matrix(1 0 0 -1 0 842)" d="M88.04642 746.7572C 88.76638 746.3201 89.71776 746.5386 90.64343 746.6929C 89.7949 747.0658 88.98494 747.1044 88.04642 746.7572z" stroke="none" fill="#545454" fill-rule="nonzero" fill-opacity="0.6" /><path id="5" transform="matrix(1 0 0 -1 0 842)" d="M90.66914 746.6801L90.682 746.6929L90.64343 746.6929L90.66914 746.6801z" stroke="none" fill="#545454" fill-rule="nonzero" fill-opacity="0.6" /><path id="6" transform="matrix(1 0 0 -1 0 842)" d="M69.70013 760.0766C 70.38153 759.5366 71.44862 759.6138 72.46429 759.6395C 71.62862 760.128 70.78008 760.2823 69.70013 760.0766z" stroke="none" fill="#545454" fill-rule="nonzero" fill-opacity="0.6" /><path id="7" transform="matrix(1 0 0 -1 0 842)" d="M72.49001 759.6266L72.50286 759.6395L72.46429 759.6395L72.49001 759.6266z" stroke="none" fill="#545454" fill-rule="nonzero" fill-opacity="0.6" /><path id="8" transform="matrix(1 0 0 -1 0 842)" d="M93.819 705.192C 94.44897 704.7421 95.24608 704.922 96.00461 705.0506C 95.25893 705.4492 94.59039 705.5134 93.819 705.192z" stroke="none" fill="#545454" fill-rule="nonzero" fill-opacity="0.6" /><path id="9" transform="matrix(1 0 0 -1 0 842)" d="M251.3887 766.7877C 251.1444 766.7877 250.913 766.7748 250.6816 766.7106C 250.9001 766.7363 251.1444 766.762 251.3887 766.7877z" stroke="none" fill="#545454" fill-rule="nonzero" fill-opacity="0.6" /><path id="10" transform="matrix(1 0 0 -1 0 842)" d="M230.394 792.4365C 230.574 792.4622 230.754 792.5136 230.9211 792.6036C 230.7668 792.5651 230.5868 792.5007 230.394 792.4365z" stroke="none" fill="#545454" fill-rule="nonzero" fill-opacity="0.6" /><path id="11" transform="matrix(1 0 0 -1 0 842)" d="M102.0729 685.663C 102.7543 685.2258 103.6414 685.4315 104.4899 685.5858C 103.68 685.9586 102.9343 685.9972 102.0729 685.663z" stroke="none" fill="#545454" fill-rule="nonzero" fill-opacity="0.6" /><path id="12" transform="matrix(1 0 0 -1 0 842)" d="M104.5028 685.5729L104.5156 685.5858L104.4899 685.5858L104.5028 685.5729z" stroke="none" fill="#545454" fill-rule="nonzero" fill-opacity="0.6" /><path id="13" transform="matrix(1 0 0 -1 0 842)" d="M250.9258 765.7078C 251.1444 765.772 251.3759 765.862 251.5687 765.9906C 251.3759 765.9135 251.1573 765.8106 250.9258 765.7078z" stroke="none" fill="#545454" fill-rule="nonzero" fill-opacity="0.6" /><path id="14" transform="matrix(1 0 0 -1 0 842)" d="M213.9376 855.9221C 214.1047 856.0378 214.2719 856.1535 214.4133 856.2563C 214.2719 856.1535 214.1047 856.0378 213.9376 855.9221zM252.4558 765.4506C 252.1987 765.7206 251.1316 765.502 250.6687 765.1035L250.6687 765.1035L250.8616 764.3192C 249.7302 763.5864 250.3987 764.6535 249.2288 764.1393C 248.9331 764.7307 249.9873 765.2834 250.9258 765.7078C 250.0259 765.4377 248.9845 765.5535 248.8817 764.7435C 247.956 764.6792 248.6888 765.5278 247.596 765.3992C 246.9661 764.9492 246.2589 763.9978 245.3204 764.0493L245.3204 764.0493L245.2947 764.165C 243.0834 764.0364 242.6463 762.0822 240.6021 762.0179L240.6021 762.0179L240.7178 762.3008C 239.9464 762.4165 238.8793 761.4651 237.5808 761.4008C 237.9536 761.4008 238.4036 761.0665 237.7479 760.7323C 236.938 760.668 236.3466 760.4237 235.7809 760.2308C 235.5237 760.758 235.2409 761.3237 234.9452 761.9279C 235.6652 762.1851 236.2308 762.3651 236.6165 762.4551C 237.9408 762.545 237.2594 761.4651 237.2851 761.3494C 238.6222 762.1722 237.6194 762.3136 238.8536 762.7379C 239.2393 762.7507 238.995 762.1851 238.8536 762.0051C 239.355 762.3008 239.9464 762.275 239.8564 762.6093C 239.0978 762.5836 239.0336 763.535 238.5322 763.9592L238.5322 763.9592L240.1135 764.525L240.1135 764.525L240.2549 763.9721C 240.6149 764.1007 240.5506 765.7849 242.1963 766.1191C 244.8705 766.9548 247.596 768.2791 250.2316 769.269C 250.3216 768.9348 249.8588 768.5233 249.3959 768.0991C 249.7431 768.2277 250.2445 768.5362 250.6559 768.4462C 249.7945 768.7419 251.5815 769.2819 251.003 769.3076C 251.1316 769.5133 251.2987 769.6932 251.4659 769.8604C 251.3501 768.5748 251.2859 767.6748 251.2987 767.4048C 250.7459 767.392 250.1802 767.392 250.0131 767.4948C 250.1802 767.1477 251.2859 767.0577 251.8515 767.2891L251.8515 767.2891L251.903 768.0862C 253.2272 768.4462 252.2501 767.6362 253.5486 767.7648C 253.6643 767.1219 252.4687 766.9034 251.4144 766.7748C 252.3658 766.762 253.3557 766.3377 253.69 767.0834C 254.5386 766.8777 253.7543 766.3506 254.5643 766.1191L254.5643 766.1191L253.3815 771.0689C 254.59 771.5832 255.8499 771.9303 256.5956 772.8303C 256.5313 773.0359 256.3642 773.7688 256.4027 774.9902L256.4027 774.9902L253.1629 788.5281C 253.0215 785.7897 252.5458 780.8527 252.1087 776.4301L252.1087 776.4301L247.5189 795.5992C 247.4803 795.5992 247.416 795.5992 247.3517 795.5863C 246.7346 795.1107 246.0661 794.1335 245.1147 794.1592L245.1147 794.1592L245.089 794.275C 242.8777 794.0693 242.5049 792.1022 240.4606 791.9608L240.4606 791.9608L240.5635 792.2437C 239.7921 792.3336 238.7507 791.318 237.4522 791.228C 237.8251 791.2408 238.2879 790.9194 237.6322 790.5723C 236.1666 790.418 235.4337 789.6595 234.2766 789.7366L234.2766 789.7366L233.6081 788.7723C 233.0167 788.541 232.1939 788.1938 231.2039 787.7824C 230.934 789.9423 230.7282 791.5108 230.6254 791.8708C 231.0497 791.9479 231.4739 792.0251 231.6282 791.9479C 231.4354 792.2565 230.574 792.2179 230.1883 791.9094L230.1883 791.9094L230.304 791.1122C 229.3783 790.5851 229.9568 791.5108 228.9926 791.2151C 228.774 791.8322 229.6483 792.2051 230.4197 792.4622C 229.6869 792.3594 228.864 792.6293 228.7484 791.8708C 228.0155 791.9608 228.6198 792.6679 227.7455 792.7322C 227.2184 792.3979 226.627 791.588 225.8685 791.7936L225.8685 791.7936L225.8556 791.9094C 224.0814 792.1536 223.6443 790.328 222.0115 790.598L222.0115 790.598L222.1144 790.8551C 221.4973 791.0865 220.6102 790.3409 219.5688 790.4951C 219.8645 790.4308 220.2116 790.0323 219.6716 789.8137C 218.4888 789.9423 217.8589 789.3509 216.9589 789.6466L216.9589 789.6466L216.3675 788.8367C 214.7604 788.4767 211.1863 787.4353 207.3422 786.2653C 210.5563 788.0396 213.4491 789.5823 214.5161 789.9809C 215.6861 790.1737 215.249 789.0681 215.3004 788.9524C 216.3675 789.8523 215.4418 789.9166 216.4832 790.418C 216.8175 790.4566 216.7018 789.8909 216.5989 789.7109C 216.9975 790.0323 217.5374 790.0323 217.4089 790.3538C 216.7275 790.2766 216.5218 791.2023 216.0075 791.5751L216.0075 791.5751L217.3446 792.2308L217.3446 792.2308L217.5631 791.7037C 217.7946 791.8193 217.666 792.835 218.2703 793.4778C 220.5716 794.4807 223.0015 795.5349 225.2128 796.4734C 225.1742 796.422 225.1357 796.3834 225.0971 796.332C 225.3928 796.4863 225.7913 796.8077 226.177 796.7434C 226.0999 796.7692 226.0613 796.7949 226.0228 796.8206C 229.0826 798.1191 231.6411 799.1348 232.721 799.4433C 234.1609 799.6362 233.4153 798.4791 233.441 798.3633C 234.9066 799.3019 233.8138 799.3661 235.1766 799.8932C 235.6009 799.9447 235.3309 799.3405 235.1638 799.1476C 235.7166 799.4948 236.3851 799.5076 236.2823 799.8419C 235.4337 799.7518 235.3694 800.7161 234.8295 801.1146L234.8295 801.1146L236.5908 801.8218L236.5908 801.8218L236.7451 801.2689C 237.1565 801.4489 237.0665 803.1202 238.9307 803.686C 241.952 804.8945 245.089 806.8101 248.1103 808.7C 248.2517 808.3786 247.7503 807.8 247.2232 807.2344C 247.6346 807.4786 248.2003 807.9286 248.7017 807.9929C 247.6475 807.9929 249.7302 809.1885 249.0231 809.0085C 249.7045 810.3199 250.8873 811.2585 252.0701 812.2098C 253.2529 813.1355 254.41 814.1383 254.95 815.334C 254.5771 815.8611 251.723 820.5151 248.2389 824.7192C 248.8817 825.7864 249.3445 826.4935 249.2417 827.1106C 248.8174 827.5605 244.3819 830.8004 241.5149 835.6345C 240.7949 836.843 240.2421 838.1286 239.7921 839.44C 239.3679 840.7385 239.1364 842.0499 238.995 843.2327C 238.7764 845.5983 239.0207 847.4368 238.8407 847.7582C 240.9235 848.7481 243.2119 849.1852 243.9062 849.1852C 243.5976 849.301 242.2991 849.2109 240.8335 848.7738C 239.3293 848.3367 237.8122 847.5525 236.8865 846.8582L236.8865 846.8582L237.0023 845.9839C 236.0637 845.2769 235.5623 844.8912 235.2538 844.6469C 234.958 844.4412 234.8166 844.4026 234.6881 844.3898C 234.4309 844.3383 234.0324 844.2997 232.7596 842.9241C 232.4639 843.0784 232.8239 843.7983 233.7495 844.814C 234.6881 845.8425 236.3208 847.1925 238.3393 848.1953C 237.4522 847.771 236.5522 847.3082 235.8452 846.8582C 235.4723 846.6268 235.1123 846.3954 234.7652 846.1511C 234.4566 845.9326 234.1738 845.714 233.891 845.4825C 233.621 845.264 233.3638 845.0454 233.1324 844.8268C 232.9396 844.6212 232.7596 844.4283 232.6053 844.2355C 232.3096 843.8498 232.091 843.4769 232.0525 843.1684C 231.1782 842.3584 231.0754 842.5256 230.9211 842.667C 230.7925 842.8084 230.5097 842.847 229.6483 841.9084C 228.6969 840.3014 228.3626 838.45 227.4627 837.6786L227.4627 837.6786L227.3727 837.7558C 226.3956 836.7272 226.3056 836.0844 226.3699 835.7244C 226.3956 835.5444 226.4984 835.5059 226.5113 835.403C 226.4984 835.3259 226.447 835.2745 226.2542 835.313L226.2542 835.313L226.1256 835.493C 225.7528 835.673 225.9199 835.0816 225.2642 835.0945C 225.4442 835.0688 225.8428 834.7859 225.6499 834.5288C 224.9428 834.5031 224.66 833.8474 223.8372 833.9631C 223.7472 833.6674 223.6829 833.3717 223.5414 833.076C 222.9372 832.7803 221.9344 832.2917 220.4044 831.6104C 221.4201 832.626 223.04 832.9218 223.6186 834.1302C 223.22 834.9531 218.9388 845.1097 216.3161 851.1137C 218.0131 851.4094 219.7102 851.7565 221.3687 851.9751C 221.3944 851.628 220.8673 851.3323 220.3273 851.0237C 220.6873 851.0751 221.2273 851.2551 221.6001 851.0751C 220.8416 851.5508 222.6544 851.6794 222.1015 851.8337C 223.8114 853.5693 226.5884 852.7722 228.157 854.0193C 228.1055 854.9193 228.0541 865.6545 227.9384 872.2627C 229.0698 872.4556 230.2011 872.6484 231.2939 872.777C 231.3068 872.4299 230.7411 872.1342 230.1883 871.8384C 230.574 871.8899 231.1396 872.0699 231.5254 871.877C 230.7411 872.3656 232.6439 872.4684 232.0653 872.6356C 233.9038 874.3583 236.7965 873.5484 238.4679 874.7826C 238.4164 876.0425 238.8407 896.6772 238.5964 898.1429C 239.175 898.2072 239.7407 898.2843 239.9335 898.1815C 239.7278 898.5029 238.5836 898.4772 238.0308 898.1815L238.0308 898.1815L238.0565 897.3715C 236.7322 896.8701 237.6579 897.7829 236.3337 897.5129C 236.1537 898.1429 237.3622 898.4901 238.4293 898.7343C 237.4394 898.6443 236.398 898.9529 236.1151 898.1815C 235.1509 898.2972 236.0894 898.9915 234.9452 899.0814C 234.1867 898.76 233.2738 897.9629 232.3096 898.1943L232.3096 898.1943L232.3096 898.3101C 230.0083 898.6057 229.1212 896.7801 227.0127 897.1015L227.0127 897.1015L227.1927 897.3586C 226.4213 897.6158 225.11 896.883 223.7729 897.063C 224.1586 896.9987 224.5571 896.5744 223.7986 896.3687C 222.2686 896.5358 221.3301 895.9573 220.173 896.2787L220.173 896.2787L219.2474 895.4816C 214.1176 894.7488 194.1 890.4933 188.9959 889.5419L188.9959 889.5419L189.1759 889.6705C 188.1474 889.4519 186.9775 889.2205 185.6918 888.9762C 185.5761 894.4017 185.4218 899.84 185.3061 900.5728C 185.6918 900.5985 186.0646 900.6242 186.1932 900.5214C 186.0389 900.8557 185.2804 900.9199 184.9204 900.6628L184.9204 900.6628L184.9718 899.8657C 184.1104 899.4671 184.689 900.3028 183.8147 900.1228C 183.6733 900.7656 184.4704 901.0099 185.1647 901.1771C 184.509 901.1642 183.8019 901.5499 183.6476 900.8042C 183.0048 900.9842 183.5962 901.6013 182.8376 901.7813C 182.3491 901.5242 181.7577 900.7914 181.1149 901.087L181.1149 901.087L181.1149 901.2028C 179.5207 901.6785 178.9807 899.9171 177.5665 900.4185L177.5665 900.4185L177.6822 900.65C 177.1679 900.9714 176.3065 900.3414 175.4194 900.6371C 175.6766 900.5342 175.9465 900.0971 175.4451 899.9557C 174.4295 900.2385 173.8124 899.75 173.041 900.1614L173.041 900.1614L172.4367 899.4415C 169.0555 899.1201 155.7618 896.793 152.3419 896.4716L152.3419 896.4716L152.4705 896.5873C 147.3022 895.803 136.6055 895.1088 131.2444 894.0289C 130.383 894.6202 129.2388 894.4146 128.3645 894.5431C 128.8531 894.2988 128.7116 893.8489 128.3388 893.8617C 125.6775 893.836 128.1717 893.4246 125.4975 893.0518C 122.4119 892.3061 110.5325 892.7689 107.7812 893.3089C 106.3027 892.3575 104.4642 893.0903 103.0114 892.4989L103.0114 892.4989L103.1528 892.7175C 101.5972 892.3446 92.80333 893.3346 90.99055 893.0646L90.99055 893.0646L91.23483 892.9232C 89.64063 892.3961 89.8849 893.3989 88.65067 893.7589C 88.77924 892.7175 87.41644 892.1647 86.88933 892.1003L86.88933 892.1003L86.91504 892.3318C 86.13079 892.1775 84.34373 891.3161 83.04522 891.2518L83.04522 891.2518L83.12236 891.8175C 82.02956 891.2518 80.02393 891.5989 79.25254 891.5732C 77.51691 891.869 74.85561 893.026 72.46429 892.4089L72.46429 892.4089L71.05007 894.1188L71.05007 894.1188L70.81866 893.9645C 70.81866 893.9645 69.90584 889.1048 69.32729 883.6922C 68.76161 878.2924 68.54305 872.3398 70.02155 870.1671L70.02155 870.1671L69.93156 869.6014L69.93156 869.6014L70.57438 869.64C 71.32006 869.3186 71.71861 869.9485 71.62862 869.3957L71.62862 869.3957L70.58723 869.5243C 71.34577 869.3186 70.79294 869.0486 70.48438 868.7401C 70.8058 868.6629 71.11436 868.5858 71.35863 868.3929C 71.52576 868.5986 71.26863 868.6372 71.15292 868.7657C 71.57719 868.9457 72.19431 869.4471 72.68285 869.1514C 73.4671 869.0486 72.68285 868.2258 73.59566 868.11C 74.43134 867.9943 75.26701 867.8658 76.10269 867.7372C 74.09707 867.6472 71.93717 867.4158 70.02155 866.6701L70.02155 866.6701L67.48882 867.8915L67.48882 867.8915L67.18025 867.6729C 67.18025 867.6729 66.75599 847.7067 72.0786 844.3512L72.0786 844.3512L72.10431 843.7726L72.10431 843.7726L73.00426 843.9912C 74.1485 843.9012 74.54705 844.634 74.57276 844.0555L74.57276 844.0555L73.05569 843.8755C 74.18707 843.9012 73.4671 843.4769 73.09426 843.0784C 73.56995 843.1041 74.01993 843.1041 74.41849 843.0012C 74.59847 843.2584 74.22564 843.207 74.03279 843.2969C 74.59847 843.5927 75.3313 844.2612 76.10269 844.1198C 77.24693 844.2612 76.32125 843.2198 77.65833 843.387C 82.86523 843.9269 87.96928 844.3254 93.12474 845.0197C 93.11189 845.0068 93.08617 845.0068 93.07332 844.994L93.07332 844.994L93.45901 845.0068C 91.45339 843.6055 91.38911 844.6726 89.52492 844.2997C 90.12917 843.4127 88.45782 842.127 87.76357 841.7798L87.76357 841.7798L87.71214 841.9984C 86.68362 841.4456 84.60086 839.5428 82.89095 838.6686L82.89095 838.6686L82.73666 839.2214C 81.48958 838.0386 78.62257 837.0872 77.6069 836.5087C 75.11274 835.6216 70.96008 834.7988 68.14449 832.4589L68.14449 832.4589L65.32891 832.8832L65.32891 832.8832L65.0975 832.5875C 65.0975 832.5875 66.56314 827.8306 68.83875 822.8936C 69.37872 821.7237 69.95727 820.5537 70.56152 819.4352C 70.15012 819.2552 69.76442 819.0495 69.39158 818.8052L69.39158 818.8052L67.11597 819.7438L67.11597 819.7438L66.91027 819.5123C 66.91027 819.5123 70.35582 800.4204 75.17702 797.3477C 73.00426 796.8334 70.24011 796.2806 68.17021 794.7892L68.17021 794.7892L65.71461 795.5478L65.71461 795.5478L65.5089 795.2906C 65.5089 795.2906 66.60171 790.4437 68.3502 785.2883C 68.46591 784.9411 68.59447 784.5812 68.72304 784.234L68.72304 784.234L67.92593 784.6326L67.92593 784.6326L67.59167 784.4269C 67.59167 784.4269 67.19312 779.4257 67.42453 773.9874C 67.6688 768.5491 68.56876 762.6608 71.46148 760.9251L71.46148 760.9251L71.44862 760.3466L71.44862 760.3466L72.47715 760.5522C 73.7628 760.4366 74.26421 761.1565 74.25135 760.5908L74.25135 760.5908L72.52857 760.4366C 73.80137 760.4366 72.9657 760.0251 72.52857 759.6395C 73.05569 759.6523 73.58281 759.6523 74.01993 759.5237C 74.23849 759.768 73.80137 759.7295 73.59566 759.8323C 74.25135 760.1152 75.1256 760.7708 75.97413 760.6166C 77.27264 760.7323 76.17983 759.7166 77.6969 759.8452C 79.65109 759.9866 81.59243 760.1666 83.53377 760.3594C 83.54662 760.2823 83.57234 760.2051 83.5852 760.128C 84.72943 754.8054 86.59363 749.1485 89.52492 747.8243L89.52492 747.8243L89.60205 747.2586L89.60205 747.2586L90.51487 747.5929C 91.71053 747.6443 92.04479 748.4286 92.12193 747.8629L92.12193 747.8629L90.57915 747.4901C 91.74909 747.6572 91.04198 747.1429 90.70772 746.7058C 91.19626 746.783 91.6591 746.8472 92.08337 746.7958C 92.23764 747.0658 91.85194 746.9758 91.64624 747.04C 92.19907 747.4129 92.88047 748.1586 93.69043 748.12C 93.70329 748.12 93.71614 748.12 93.729 748.12C 94.59039 745.4073 95.60606 742.6817 96.776 740.5604L96.776 740.5604L94.39754 741.576L94.39754 741.576L94.12756 741.3446C 94.12756 741.3446 94.39754 736.3691 95.31036 730.9951C 95.3875 730.558 95.46464 730.1208 95.55463 729.6837C 93.66472 729.4138 91.51768 729.028 89.78204 727.9738L89.78204 727.9738L87.46786 728.9637L87.46786 728.9637L87.24931 728.7324C 87.24931 728.7324 87.94356 723.8083 89.24207 718.5242C 90.54058 713.2402 92.45621 707.6091 95.0018 706.2077L95.0018 706.2077L95.10465 705.642L95.10465 705.642L95.85033 705.9506C 95.90176 705.9506 95.94032 705.9634 95.9789 705.9634C 95.9789 705.9377 95.99175 705.8992 95.99175 705.8606L95.99175 705.8606L95.90176 705.8348C 95.94032 705.8348 95.96604 705.8348 95.99175 705.8477C 96.03032 705.6163 96.06889 705.3849 96.10746 705.1406C 96.0946 705.1149 96.06889 705.0892 96.05603 705.0635C 96.08175 705.0635 96.0946 705.0635 96.12032 705.0763C 97.14884 699.1237 99.47588 688.6071 103.3971 686.7172L103.3971 686.7172L103.5 686.1515L103.5 686.1515L104.3356 686.4858C 105.4413 686.5372 105.7242 687.3086 105.8141 686.7429L105.8141 686.7429L104.3871 686.3701C 105.467 686.5243 104.8371 686.0229 104.5414 685.5858C 104.9913 685.663 105.4285 685.7272 105.8141 685.663C 105.9556 685.9329 105.5956 685.843 105.4027 685.9072C 105.8913 686.2672 106.5084 687.0129 107.2541 686.9743C 108.3212 687.2443 107.5883 686.1129 108.8354 686.4343C 115.4437 688.0157 121.9234 689.3656 128.4159 691.577C 128.6345 691.397 128.4545 691.3455 128.3002 691.1913C 130.1901 692.0526 131.9772 692.5155 133.6871 693.3511C 134.2657 693.274 134.5099 692.9783 134.7285 692.7983C 134.5099 692.9783 136.9398 693.904 139.4597 694.7654C 140.7196 695.2025 141.9924 695.6268 142.9695 695.9353C 143.9466 696.2439 144.6152 696.4496 144.6666 696.4367L144.6666 696.4367L144.4738 697.4524C 146.4022 698.1081 145.3994 696.5267 147.1093 697.3495C 147.3536 698.9566 150.1306 698.1852 150.5035 699.1237C 150.5292 699.0081 151.4163 699.2523 151.5063 698.8023C 151.532 699.638 152.3548 699.278 152.8434 699.6509C 152.9719 699.9208 152.6248 699.8309 152.3934 699.998L152.3934 699.998L153.5633 700.6794C 154.1419 700.6022 154.399 700.2037 153.8976 699.9465C 157.2917 700.7694 173.3624 705.372 176.7694 706.9919C 176.1265 707.4033 175.1623 706.6448 174.4423 707.3905C 175.2137 708.2133 175.8823 707.6862 176.1137 708.3547C 176.9236 707.1591 178.2736 708.7533 179.4435 707.6605L179.4435 707.6605L179.4564 708.4962L179.4564 708.4962L180.0735 708.2004C 183.9305 710.3989 180.8835 708.8947 184.599 709.9875C 186.6689 710.8361 187.3117 712.2245 188.6231 712.2502C 188.4431 712.1989 187.826 712.4945 188.3017 712.8674C 188.6231 712.2502 189.5873 713.8445 190.0887 713.2788C 190.5901 713.5488 192.3643 714.063 191.4515 714.7573C 191.9015 714.4102 193.5086 714.7701 192.7243 714.063C 193.2514 714.2173 193.8043 714.2687 194.1128 714.603L194.1128 714.603L193.3543 714.6158C 195.0642 715.3744 196.2727 715.0144 197.1341 716.2358L197.1341 716.2358L196.3627 716.3644C 197.3913 716.7886 198.2526 717.1743 198.9726 716.4286L198.9726 716.4286L197.9827 715.7729C 199.7183 716.4158 200.7468 716.84 202.0325 717.83L202.0325 717.83L201.5053 717.6757C 203.0481 719.2185 212.4591 723.4097 213.7448 725.1454L213.7448 725.1454L212.7162 725.5439L212.7162 725.5439L213.9633 726.6496C 213.7833 726.5981 214.0662 724.1683 213.8348 724.3354C 216.946 725.5311 233.0296 732.0365 236.0766 732.6921C 237.3751 732.7565 236.6937 731.6893 236.7194 731.5736C 238.0436 732.3579 237.0536 732.525 238.2879 732.9236C 238.6607 732.9236 238.4164 732.3579 238.275 732.1907C 238.7764 732.4736 239.355 732.4222 239.265 732.7565C 238.5065 732.7565 238.4679 733.7078 237.9922 734.145L237.9922 734.145L239.5735 734.6464L239.5735 734.6464L239.7021 734.0807C 240.0492 734.1964 240.0235 735.8677 241.6563 736.1506C 244.3047 736.8962 247.0175 738.1305 249.6402 738.9919C 249.7173 738.6576 249.2545 738.259 248.7788 737.8734C 249.1259 737.989 249.6273 738.2719 250.0259 738.1562C 249.1902 738.4905 250.9644 738.9404 250.3859 738.9919C 251.7744 741.0104 254.6671 740.7661 255.9785 742.2831C 255.6828 743.5173 251.7615 763.7407 251.2216 765.1292C 251.7358 765.3349 252.2501 765.502 252.4558 765.4506z" stroke="none" fill="#545454" fill-rule="nonzero" fill-opacity="0.6" /></g></g></g></g><g clip-path="url(#9)"><g clip-path="url(#10)"><g clip-path="url(#11)"><g clip-path="url(#12)"><path id="90" transform="matrix(1 0 0 -1 0 842)" d="M41.76168 674.2783L289.2954 674.2783L289.2954 408.3728L41.76168 408.3728z" stroke="none" fill="#1D70B7" fill-rule="nonzero" /></g></g></g></g><g clip-path="url(#13)"><g><g clip-path="url(#14)"><g mask="url(#m1)"><g><g clip-path="url(#16)"><g clip-path="url(#17)"><path id="92" transform="matrix(1 0 0 -1 0 842)" d="M42.93067 446.6699L280.646 446.6699L280.646 441.6191L42.93067 441.6191z" stroke="none" fill="#000000" fill-rule="nonzero" /></g></g></g></g><g mask="url(#m2)"><g><g clip-path="url(#21)"><g clip-path="url(#22)"><path id="94" transform="matrix(1 0 0 -1 0 842)" d="M42.93067 446.6699L280.646 446.6699L280.646 441.6191L42.93067 441.6191z" stroke="none" fill="#000000" fill-rule="nonzero" /></g></g></g></g></g></g></g><g clip-path="url(#23)"><g clip-path="url(#24)"><g clip-path="url(#25)"><g clip-path="url(#26)"><g clip-path="url(#27)"><g transform="matrix(0.5354756 0 0 0.5358776 61.81919 245.9526)"><g transform="matrix(1 0 0 1 0 0)"><image x="0" y="0" xlink:href="img_03.png" width="404" height="289" /></g></g></g></g></g></g></g><g clip-path="url(#28)"></g><g clip-path="url(#29)"><g clip-path="url(#30)"><g clip-path="url(#31)"><g clip-path="url(#32)"><path id="175" transform="matrix(1 0 0 -1 0 842)" d="M23.9957 361.578L297.4847 361.578L297.4847 102.2698L23.9957 102.2698z" stroke="none" fill="#1D70B7" fill-rule="nonzero" /></g></g></g></g><g clip-path="url(#33)"><g><g clip-path="url(#34)"><g mask="url(#m3)"><g><g clip-path="url(#36)"><g clip-path="url(#37)"><path id="177" transform="matrix(1 0 0 -1 0 842)" d="M41.78415 126.8793L279.4995 126.8793L279.4995 121.8285L41.78415 121.8285z" stroke="none" fill="#000000" fill-rule="nonzero" /></g></g></g></g><g mask="url(#m4)"><g><g clip-path="url(#41)"><g clip-path="url(#42)"><path id="179" transform="matrix(1 0 0 -1 0 842)" d="M41.78415 126.8793L279.4995 126.8793L279.4995 121.8285L41.78415 121.8285z" stroke="none" fill="#000000" fill-rule="nonzero" /></g></g></g></g></g></g></g><g clip-path="url(#43)"><g clip-path="url(#44)"><g clip-path="url(#45)"><g clip-path="url(#46)"><g clip-path="url(#47)"><g transform="matrix(0.5464649 0 0 0.5459708 31.07088 569.5518)"><g transform="matrix(1 0 0 1 0 0)"><image x="0" y="0" xlink:href="img_05.png" width="319" height="239" /></g></g></g></g></g></g></g><g clip-path="url(#48)"></g><g clip-path="url(#49)"><g clip-path="url(#50)"><g clip-path="url(#51)"><g clip-path="url(#52)"><path id="282" transform="matrix(1 0 0 -1 0 842)" d="M334.5168 733.3082L582.2302 733.3082L582.2302 487.5151L334.5168 487.5151z" stroke="none" fill="#1D70B7" fill-rule="nonzero" /></g></g></g></g><g clip-path="url(#53)"><g><g clip-path="url(#54)"><g mask="url(#m5)"><g><g clip-path="url(#56)"><g clip-path="url(#57)"><path id="284" transform="matrix(1 0 0 -1 0 842)" d="M339.2499 519.8207L576.9653 519.8207L576.9653 514.7699L339.2499 514.7699z" stroke="none" fill="#000000" fill-rule="nonzero" /></g></g></g></g><g mask="url(#m6)"><g><g clip-path="url(#61)"><g clip-path="url(#62)"><path id="286" transform="matrix(1 0 0 -1 0 842)" d="M339.2499 519.8207L576.9653 519.8207L576.9653 514.7699L339.2499 514.7699z" stroke="none" fill="#000000" fill-rule="nonzero" /></g></g></g></g></g></g></g><g clip-path="url(#63)"><g clip-path="url(#64)"><g clip-path="url(#65)"><g clip-path="url(#66)"><g clip-path="url(#67)"><g transform="matrix(0.7016111 0 0 0.7016321 349.4592 169.1194)"><g transform="matrix(1 0 0 1 0 0)"><image x="0" y="0" xlink:href="img_07.png" width="308" height="229" /></g></g></g></g></g></g></g><g clip-path="url(#68)"></g><g clip-path="url(#69)"><g clip-path="url(#70)"><g clip-path="url(#71)"><g clip-path="url(#72)"><path id="356" transform="matrix(1 0 0 -1 0 842)" d="M330.9504 455.0628L578.4841 455.0628L578.4841 194.9589L330.9504 194.9589z" stroke="none" fill="#939CAB" fill-rule="nonzero" /></g></g></g></g><g clip-path="url(#73)"><g><g clip-path="url(#74)"><g mask="url(#m7)"><g><g clip-path="url(#76)"><g clip-path="url(#77)"><path id="358" transform="matrix(1 0 0 -1 0 842)" d="M335.6847 228.1624L573.4 228.1624L573.4 223.1116L335.6847 223.1116z" stroke="none" fill="#000000" fill-rule="nonzero" /></g></g></g></g><g mask="url(#m8)"><g><g clip-path="url(#81)"><g clip-path="url(#82)"><path id="360" transform="matrix(1 0 0 -1 0 842)" d="M335.6847 228.1624L573.4 228.1624L573.4 223.1116L335.6847 223.1116z" stroke="none" fill="#000000" fill-rule="nonzero" /></g></g></g></g></g></g></g><g clip-path="url(#83)"><g clip-path="url(#84)"><g clip-path="url(#85)"><g clip-path="url(#86)"><g clip-path="url(#87)"><g transform="matrix(0.6676585 0 0 0.6676819 349.4592 450.7325)"><g transform="matrix(1 0 0 1 0 0)"><image x="0" y="0" xlink:href="img_09.png" width="324" height="237" /></g></g></g></g></g></g></g><g clip-path="url(#88)"></g><g clip-path="url(#89)"><g transform="matrix(0.1246875 0 0 0.1241722 489.3888 8.540771)"><g transform="matrix(1 0 0 1 0 0)"><image x="0" y="0" xlink:href="img_10.png" width="800" height="453" /></g></g></g><g clip-path="url(#90)"></g></g></g></svg>