<svg xmlns="http://www.w3.org/2000/svg" xmlns:xlink="http://www.w3.org/1999/xlink" id="body_1" preserveAspectRatio="xMinYMin meet" viewBox="0 0 793 1123"><defs><clipPath id="1"><path id="" clip-rule="evenodd" transform="matrix(1 0 0 1 0 0)" d="M0 842L0 -0.25L0 -0.25L595.5 -0.25L595.5 -0.25L595.5 842L595.5 842L0 842z" /></clipPath><clipPath id="2"><path id="" clip-rule="evenodd" transform="matrix(1 0 0 1 0 0)" d="M0 -0.249939L595.5 -0.249939L595.5 -0.249939L595.5 842.0001L595.5 842.0001L0 842.0001z" /></clipPath><clipPath id="3"><path id="" clip-rule="evenodd" transform="matrix(1 0 0 1 0 0)" d="M0 -0.249939L595.5 -0.249939L595.5 -0.249939L595.5 842.0001L595.5 842.0001L0 842.0001z" /></clipPath><clipPath id="4"><path id="" clip-rule="evenodd" transform="matrix(1 0 0 1 0 0)" d="M0 -0.249939L595.5 -0.249939L595.5 -0.249939L595.5 842.0001L595.5 842.0001L0 842.0001z" /></clipPath><clipPath id="5"><path id="" clip-rule="evenodd" transform="matrix(1 0 0 1 0 0)" d="M78.71999 30.71008L522.24 30.71008L522.24 30.71008L522.24 810.9501L522.24 810.9501L78.71999 810.9501z" /></clipPath><clipPath id="6"><path id="" clip-rule="evenodd" transform="matrix(1 0 0 1 0 0)" d="M79.51787 30.75183L522.0178 30.75183L522.0178 30.75183L522.0178 810.7518L522.0178 810.7518L79.51787 810.7518z" /></clipPath><clipPath id="7"><path id="" clip-rule="evenodd" transform="matrix(1 0 0 1 0 0)" d="M50.85395 180.6569L89.10394 180.6569L89.10394 180.6569L89.10394 323.9069L89.10394 323.9069L50.85395 323.9069z" /></clipPath><clipPath id="8"><path id="" clip-rule="evenodd" transform="matrix(1 0 0 1 0 0)" d="M53.04 294.4701L83.28 294.4701L83.28 294.4701L83.28 323.9901L83.28 323.9901L53.04 323.9901z" /></clipPath><clipPath id="9"><path id="" clip-rule="evenodd" transform="matrix(1 0 0 1 0 0)" d="M50.85395 344.5343L89.10394 344.5343L89.10394 344.5343L89.10394 487.7843L89.10394 487.7843L50.85395 487.7843z" /></clipPath><clipPath id="10"><path id="" clip-rule="evenodd" transform="matrix(1 0 0 1 0 0)" d="M53.04 458.3901L83.28 458.3901L83.28 458.3901L83.28 487.9101L83.28 487.9101L53.04 487.9101z" /></clipPath><clipPath id="11"><path id="" clip-rule="evenodd" transform="matrix(1 0 0 1 0 0)" d="M50.85395 727.9006L89.10394 727.9006L89.10394 727.9006L89.10394 842.0001L89.10394 842.0001L50.85395 842.0001z" /></clipPath><clipPath id="12"><path id="" clip-rule="evenodd" transform="matrix(1 0 0 1 0 0)" d="M53.04 841.67L83.28 841.67L83.28 841.67L83.28 842.15L83.28 842.15L53.04 842.15z" /></clipPath><clipPath id="13"><path id="" clip-rule="evenodd" transform="matrix(1 0 0 1 0 0)" d="M50.85395 662.4062L89.10394 662.4062L89.10394 662.4062L89.10394 805.6562L89.10394 805.6562L50.85395 805.6562z" /></clipPath><clipPath id="14"><path id="" clip-rule="evenodd" transform="matrix(1 0 0 1 0 0)" d="M53.04 776.39L83.28 776.39L83.28 776.39L83.28 805.67L83.28 805.67L53.04 805.67z" /></clipPath><clipPath id="15"><path id="" clip-rule="evenodd" transform="matrix(1 0 0 1 0 0)" d="M50.85395 552.4953L89.10394 552.4953L89.10394 552.4953L89.10394 695.7453L89.10394 695.7453L50.85395 695.7453z" /></clipPath><clipPath id="16"><path id="" clip-rule="evenodd" transform="matrix(1 0 0 1 0 0)" d="M53.04 666.47L83.28 666.47L83.28 666.47L83.28 695.7501L83.28 695.7501L53.04 695.7501z" /></clipPath><clipPath id="17"><path id="" clip-rule="evenodd" transform="matrix(1 0 0 1 0 0)" d="M50.85395 468.4953L89.10394 468.4953L89.10394 468.4953L89.10394 611.7453L89.10394 611.7453L50.85395 611.7453z" /></clipPath><clipPath id="18"><path id="" clip-rule="evenodd" transform="matrix(1 0 0 1 0 0)" d="M53.04 582.4701L83.28 582.4701L83.28 582.4701L83.28 611.7501L83.28 611.7501L53.04 611.7501z" /></clipPath><clipPath id="19"><path id="" clip-rule="evenodd" transform="matrix(1 0 0 1 0 0)" d="M48.16107 175.6881L110.4111 175.6881L110.4111 175.6881L110.4111 213.9381L110.4111 213.9381L48.16107 213.9381z" /></clipPath><clipPath id="20"><path id="" clip-rule="evenodd" transform="matrix(1 0 0 1 0 0)" d="M50.4 178.0701L105.6 178.0701L105.6 178.0701L105.6 198.9501L105.6 198.9501L50.4 198.9501z" /></clipPath><clipPath id="21"><path id="" clip-rule="evenodd" transform="matrix(1 0 0 1 0 0)" d="M50.99572 314.577L113.2457 314.577L113.2457 314.577L113.2457 352.8271L113.2457 352.8271L50.99572 352.8271z" /></clipPath><clipPath id="22"><path id="" clip-rule="evenodd" transform="matrix(1 0 0 1 0 0)" d="M53.04 317.0301L108.48 317.0301L108.48 317.0301L108.48 337.9101L108.48 337.9101L53.04 337.9101z" /></clipPath><clipPath id="23"><path id="" clip-rule="evenodd" transform="matrix(1 0 0 1 0 0)" d="M48.16107 458.98L110.4111 458.98L110.4111 458.98L110.4111 497.23L110.4111 497.23L48.16107 497.23z" /></clipPath><clipPath id="24"><path id="" clip-rule="evenodd" transform="matrix(1 0 0 1 0 0)" d="M50.4 461.2701L105.6 461.2701L105.6 461.2701L105.6 482.1501L105.6 482.1501L50.4 482.1501z" /></clipPath><clipPath id="25"><path id="" clip-rule="evenodd" transform="matrix(1 0 0 1 0 0)" d="M50.99572 624.0275L113.2457 624.0275L113.2457 624.0275L113.2457 662.2775L113.2457 662.2775L50.99572 662.2775z" /></clipPath><clipPath id="26"><path id="" clip-rule="evenodd" transform="matrix(1 0 0 1 0 0)" d="M53.04 626.3901L108.48 626.3901L108.48 626.3901L108.48 647.2701L108.48 647.2701L53.04 647.2701z" /></clipPath><clipPath id="27"><path id="" clip-rule="evenodd" transform="matrix(1 0 0 1 0 0)" d="M16.58362 51.65436L102.8336 51.65436L102.8336 51.65436L102.8336 137.1544L102.8336 137.1544L16.58362 137.1544z" /></clipPath><clipPath id="28"><path id="" clip-rule="evenodd" transform="matrix(1 0 0 1 0 0)" d="M0 -0.249939L595.5 -0.249939L595.5 -0.249939L595.5 842.0001L595.5 842.0001L0 842.0001z" /></clipPath><clipPath id="29"><path id="" clip-rule="evenodd" transform="matrix(1 0 0 1 0 0)" d="M503.015 5.097351L584.765 5.097351L584.765 5.097351L584.765 51.59735L584.765 51.59735L503.015 51.59735z" /></clipPath></defs><g transform="matrix(1.333333 0 0 1.333333 0 0)"><g clip-path="url(#1)"><g clip-path="url(#2)"><path id="1" transform="matrix(1 0 0 -1 0 842)" d="M0 842.2499L595.4999 842.2499L595.4999 -6.103516E-05L0 -6.103516E-05z" stroke="none" fill="#FFFFFF" fill-rule="nonzero" /></g><g clip-path="url(#3)"><path id="2" transform="matrix(1 0 0 -1 0 842)" d="M0 842.2499L595.4999 842.2499L595.4999 -6.103516E-05L0 -6.103516E-05z" stroke="none" fill="#E9FCFF" fill-rule="nonzero" /></g><g clip-path="url(#4)"><g><g clip-path="url(#5)"><g clip-path="url(#6)"><g transform="matrix(0 0.5128205 -0.5127462 0 522.0178 30.75189)"><g transform="matrix(1 0 0 1 0 0)"><image x="0" y="0" xlink:href="img_01.png" width="1521" height="863" /></g></g></g></g></g></g><g clip-path="url(#7)"><path id="4" transform="matrix(1 0 0 -1 0 842)" d="M51.85537 451.8192C 51.67232 453.5477 51.60396 455.3179 51.6086 457.0453C 51.62714 464.0175 51.55878 470.8947 51.49969 477.8599C 51.18109 515.719 51.52866 553.5909 51.52866 591.4535C 51.52866 602.9243 51.26335 614.4299 51.58543 625.8937C 51.72098 630.711 51.74414 644.8361 53.59899 649.286C 56.39805 656.0033 61.37634 661.6373 70.11298 661.3315C 80.29896 660.9735 85.9828 655.6198 87.73338 648.1078C 88.77376 643.6428 88.49686 629.8734 88.51192 626.4244C 88.71931 581.0161 88.59303 535.6021 88.65906 490.1903C 88.66138 488.3586 88.66485 486.5247 88.66717 484.693C 88.67876 477.6212 88.6915 470.5494 88.7054 463.4776C 88.7054 463.0223 88.70772 462.5682 88.70888 462.1129L88.70888 462.1129L88.70888 461.9947C 88.72394 455.2067 89.22211 446.8026 85.49158 441.8046C 83.37607 438.9708 80.7253 438.6673 78.04326 438.5051C 71.15567 438.0857 60.18767 434.3551 54.62894 442.743C 53.0313 445.1528 52.21799 448.4014 51.85537 451.818L51.85537 451.818L51.85537 451.8192z" stroke="none" fill="#FFFFFF" fill-rule="nonzero" /><g><g clip-path="url(#8)"><path id="5" transform="matrix(1 0 0 -1 0 842)" d="M82.71106 443.1751C 83.98199 444.9384 82.42606 447.0806 80.35341 447.4467C 72.90045 448.7605 65.95494 452.7899 63.37948 459.4702C 59.57248 469.3456 59.23071 483.232 58.34557 495.8904C 57.7802 506.4204 57.23452 514.5986 56.90434 524.5494C 56.81397 527.2778 56.75141 530.0085 56.72244 532.738C 56.67842 536.8301 57.24727 540.9812 57.00282 545.0396C 56.97501 545.4984 56.92519 545.9653 56.73403 546.3777C 56.17445 547.5907 54.00217 547.6405 53.98711 546.2711C 53.94192 542.1143 53.99406 540.7506 53.94192 537.8079C 53.89211 534.9822 53.88052 532.6697 53.86893 529.8417C 53.84113 523.3376 53.50978 516.8381 53.50978 510.334C 53.50978 501.7827 53.45533 493.2315 53.39508 484.6802C 53.33368 476.1301 53.26649 467.58 53.23752 459.0287C 53.22362 454.6935 52.90734 449.7696 55.33682 445.9464C 55.61023 445.5143 55.92188 445.1145 56.26482 444.7473C 58.74412 442.0896 62.63685 441.2264 66.12988 441.0527C 68.27204 440.9461 70.40262 441.0457 72.53899 441.0388C 74.74718 441.0318 76.96696 441.0747 79.15083 441.435C 80.24799 441.6157 81.37988 441.9008 82.2152 442.6353C 82.41331 442.8102 82.57899 442.9909 82.71222 443.1763L82.71222 443.1763L82.71106 443.1751z" stroke="none" fill="#000000" fill-rule="nonzero" fill-opacity="0.03921569" /></g></g><path id="6" transform="matrix(1 0 0 -1 0 842)" d="M51.85537 451.811C 52.25854 448.0075 53.25258 444.3025 55.3681 441.7838C 60.18883 436.042 67.50855 437.4323 73.31637 438.2595C 74.86535 438.4981 76.41781 438.7576 77.97606 438.8851C 79.06394 438.9731 80.18426 439.0693 81.25012 439.3751C 81.87806 439.5489 82.51527 439.8073 83.10497 440.1664C 85.77774 441.7374 87.31746 445.4413 87.89558 449.3688C 88.46442 453.0912 88.37985 456.8774 88.34972 460.6913C 88.19216 511.1729 88.3671 571.1105 88.16436 621.5688C 88.09485 625.1384 88.32308 644.4653 87.73338 647.9514C 87.57697 648.8434 87.3638 649.7043 87.05795 650.5071C 86.76598 651.2637 86.36166 652.1071 85.96195 652.7709C 81.56062 660.0791 75.62305 661.6605 65.99085 660.5101C 63.32387 660.1915 60.89786 658.9507 58.97583 657.0923C 56.29378 654.4995 54.57797 650.9659 53.47387 647.444C 52.87374 645.5266 52.46825 643.5477 52.26666 641.5493C 52.06507 639.5461 51.83915 637.2823 51.79976 635.2769C 51.77659 634.1067 51.79397 631.8232 51.77427 630.6542C 51.73141 628.0266 51.97934 626.7673 51.91562 624.1409C 51.76153 617.7688 51.78006 611.3945 51.82177 605.0143C 52.0419 557.0515 51.53329 507.3751 51.61903 459.4575C 51.60744 456.9805 51.575 454.2741 51.85421 451.8134L51.85421 451.8134L51.85537 451.811zM51.85537 451.811C 51.65146 453.7053 51.59586 455.625 51.60396 457.54C 51.6086 460.7284 51.58195 463.9364 51.54835 467.1155C 51.10578 492.4055 50.87639 518.3883 51.05249 543.7247C 51.21237 567.5862 51.21469 630.594 51.15676 634.942C 50.99457 647.4752 55.54999 661.7045 70.11298 661.3315C 77.46861 661.1426 80.58859 660.2366 85.19036 654.8981C 85.96427 653.9098 86.97453 651.9785 87.51441 650.7111C 87.93613 649.7101 88.1771 648.8342 88.37174 647.7057C 88.81083 645.1813 88.8676 627.9768 88.8815 625.406C 89.04254 591.764 88.99851 540.8398 89.00894 506.6626C 89.02168 491.423 89.04022 475.9518 89.08309 460.704C 89.10742 456.0791 89.26151 451.212 88.1493 446.7713C 87.58045 444.5133 86.60958 442.4418 85.29694 440.9369L85.29694 440.9369L85.15676 440.7886L85.15676 440.7886L84.87523 440.4931C 84.77792 440.4016 84.67944 440.3135 84.58096 440.2244L84.58096 440.2244L84.43382 440.0911C 84.384 440.0471 84.33187 440.01 84.2809 439.9706L84.2809 439.9706L83.97504 439.7331C 83.87077 439.6613 83.76534 439.5941 83.65991 439.5234L83.65991 439.5234L83.50235 439.4203C 83.44906 439.389 83.3946 439.36 83.34131 439.3299L83.34131 439.3299L83.01807 439.1526C 82.48051 438.8966 81.91513 438.6788 81.35555 438.5491C 80.25377 438.2571 79.11259 438.2119 77.99692 438.1482C 76.44562 438.074 74.90127 437.8713 73.35344 437.6871C 67.10886 436.9908 58.61899 435.7651 54.18058 443.4613C 52.84361 445.8352 52.17397 448.8289 51.85421 451.8133L51.85421 451.8133L51.85421 451.8121L51.85421 451.8121L51.85537 451.811z" stroke="none" fill="#000000" fill-rule="nonzero" /></g><g clip-path="url(#9)"><path id="7" transform="matrix(1 0 0 -1 0 842)" d="M51.85537 287.9417C 51.67232 289.6703 51.60396 291.4405 51.6086 293.1679C 51.62714 300.1401 51.55878 307.0172 51.49969 313.9825C 51.18109 351.8416 51.52866 389.7134 51.52866 427.576C 51.52866 439.0469 51.26335 450.5524 51.58543 462.0163C 51.72098 466.8336 51.74414 480.9586 53.59899 485.4086C 56.39805 492.1259 61.37634 497.7599 70.11298 497.454C 80.29896 497.0961 85.9828 491.7424 87.73338 484.2303C 88.77376 479.7653 88.49686 465.9959 88.51192 462.5469C 88.71931 417.1387 88.59303 371.7246 88.65906 326.3129C 88.66138 324.4812 88.66485 322.6472 88.66717 320.8156C 88.67876 313.7438 88.6915 306.672 88.7054 299.6002C 88.7054 299.1449 88.70772 298.6907 88.70888 298.2354L88.70888 298.2354L88.70888 298.1172C 88.72394 291.3293 89.22211 282.9252 85.49158 277.9272C 83.37607 275.0934 80.7253 274.7898 78.04326 274.6276C 71.15567 274.2082 60.18767 270.4777 54.62894 278.8656C 53.0313 281.2754 52.21799 284.524 51.85537 287.9405L51.85537 287.9405L51.85537 287.9417z" stroke="none" fill="#FFFFFF" fill-rule="nonzero" /><g><g clip-path="url(#10)"><path id="8" transform="matrix(1 0 0 -1 0 842)" d="M82.71106 279.2977C 83.98199 281.061 82.42606 283.2032 80.35341 283.5693C 72.90045 284.8831 65.95494 288.9125 63.37948 295.5927C 59.57248 305.4682 59.23071 319.3546 58.34557 332.0129C 57.7802 342.543 57.23452 350.7212 56.90434 360.672C 56.81397 363.4004 56.75141 366.1311 56.72244 368.8607C 56.67842 372.9527 57.24727 377.1038 57.00282 381.1622C 56.97501 381.6209 56.92519 382.0878 56.73403 382.5003C 56.17445 383.7133 54.00217 383.7631 53.98711 382.3937C 53.94192 378.2368 53.99406 376.8732 53.94192 373.9305C 53.89211 371.1048 53.88052 368.7923 53.86893 365.9643C 53.84113 359.4602 53.50978 352.9607 53.50978 346.4566C 53.50978 337.9053 53.45533 329.3541 53.39508 320.8028C 53.33368 312.2527 53.26649 303.7026 53.23752 295.1513C 53.22362 290.816 52.90734 285.8922 55.33682 282.069C 55.61023 281.6368 55.92188 281.2371 56.26482 280.8699C 58.74412 278.2122 62.63685 277.3491 66.12988 277.1753C 68.27204 277.0687 70.40262 277.1683 72.53899 277.1613C 74.74718 277.1544 76.96696 277.1973 79.15083 277.5576C 80.24799 277.7383 81.37988 278.0233 82.2152 278.7578C 82.41331 278.9328 82.57899 279.1135 82.71222 279.2989L82.71222 279.2989L82.71106 279.2977z" stroke="none" fill="#000000" fill-rule="nonzero" fill-opacity="0.03921569" /></g></g><path id="9" transform="matrix(1 0 0 -1 0 842)" d="M51.85537 287.9336C 52.25854 284.1301 53.25258 280.425 55.3681 277.9063C 60.18883 272.1646 67.50855 273.5548 73.31637 274.382C 74.86535 274.6207 76.41781 274.8802 77.97606 275.0076C 79.06394 275.0957 80.18426 275.1918 81.25012 275.4977C 81.87806 275.6715 82.51527 275.9298 83.10497 276.289C 85.77774 277.86 87.31746 281.5638 87.89558 285.4913C 88.46442 289.2138 88.37985 292.9999 88.34972 296.8139C 88.19216 347.2954 88.3671 407.233 88.16436 457.6914C 88.09485 461.2609 88.32308 480.5879 87.73338 484.0739C 87.57697 484.966 87.3638 485.8268 87.05795 486.6297C 86.76598 487.3862 86.36166 488.2297 85.96195 488.8935C 81.56062 496.2017 75.62305 497.7831 65.99085 496.6326C 63.32387 496.314 60.89786 495.0732 58.97583 493.2149C 56.29378 490.6221 54.57797 487.0885 53.47387 483.5665C 52.87374 481.6491 52.46825 479.6703 52.26666 477.6718C 52.06507 475.6687 51.83915 473.4048 51.79976 471.3994C 51.77659 470.2292 51.79397 467.9458 51.77427 466.7768C 51.73141 464.1492 51.97934 462.8898 51.91562 460.2634C 51.76153 453.8914 51.78006 447.517 51.82177 441.1369C 52.0419 393.174 51.53329 343.4977 51.61903 295.58C 51.60744 293.103 51.575 290.3967 51.85421 287.9359L51.85421 287.9359L51.85537 287.9336zM51.85537 287.9336C 51.65146 289.8278 51.59586 291.7476 51.60396 293.6626C 51.6086 296.851 51.58195 300.059 51.54835 303.238C 51.10578 328.5281 50.87639 354.5109 51.05249 379.8472C 51.21237 403.7087 51.21469 466.7166 51.15676 471.0646C 50.99457 483.5978 55.54999 497.8271 70.11298 497.454C 77.46861 497.2652 80.58859 496.3592 85.19036 491.0206C 85.96427 490.0324 86.97453 488.1011 87.51441 486.8336C 87.93613 485.8326 88.1771 484.9568 88.37174 483.8283C 88.81083 481.3039 88.8676 464.0994 88.8815 461.5285C 89.04254 427.8865 88.99851 376.9624 89.00894 342.7852C 89.02168 327.5456 89.04022 312.0743 89.08309 296.8266C 89.10742 292.2017 89.26151 287.3346 88.1493 282.8939C 87.58045 280.6359 86.60958 278.5644 85.29694 277.0594L85.29694 277.0594L85.15676 276.9111L85.15676 276.9111L84.87523 276.6157C 84.77792 276.5242 84.67944 276.4361 84.58096 276.3469L84.58096 276.3469L84.43382 276.2137C 84.384 276.1696 84.33187 276.1326 84.2809 276.0932L84.2809 276.0932L83.97504 275.8557C 83.87077 275.7838 83.76534 275.7166 83.65991 275.646L83.65991 275.646L83.50235 275.5428C 83.44906 275.5116 83.3946 275.4826 83.34131 275.4525L83.34131 275.4525L83.01807 275.2752C 82.48051 275.0192 81.91513 274.8014 81.35555 274.6716C 80.25377 274.3796 79.11259 274.3345 77.99692 274.2708C 76.44562 274.1966 74.90127 273.9939 73.35344 273.8097C 67.10886 273.1134 58.61899 271.8876 54.18058 279.5839C 52.84361 281.9578 52.17397 284.9514 51.85421 287.9359L51.85421 287.9359L51.85421 287.9347L51.85421 287.9347L51.85537 287.9336z" stroke="none" fill="#000000" fill-rule="nonzero" /></g><g clip-path="url(#11)"><path id="10" transform="matrix(1 0 0 -1 0 842)" d="M51.85537 -95.42461C 51.67232 -93.69605 51.60396 -91.9258 51.6086 -90.1984C 51.62714 -83.22623 51.55878 -76.34907 51.49969 -69.38386C 51.18109 -31.52473 51.52866 6.347137 51.52866 44.20974C 51.52866 55.68055 51.26335 67.18613 51.58543 78.64998C 51.72098 83.46724 51.74414 97.59229 53.59899 102.0423C 56.39805 108.7596 61.37634 114.3936 70.11298 114.0877C 80.29896 113.7298 85.9828 108.3761 87.73338 100.864C 88.77376 96.39899 88.49686 82.62961 88.51192 79.1806C 88.71931 33.77235 88.59303 -11.64168 88.65906 -57.05341C 88.66138 -58.88509 88.66485 -60.71908 88.66717 -62.55073C 88.67876 -69.62254 88.6915 -76.69431 88.7054 -83.76612C 88.7054 -84.22143 88.70772 -84.67558 88.70888 -85.1309L88.70888 -85.1309L88.70888 -85.24906C 88.72394 -92.03701 89.22211 -100.4412 85.49158 -105.4391C 83.37607 -108.273 80.7253 -108.5765 78.04326 -108.7387C 71.15567 -109.1581 60.18767 -112.8886 54.62894 -104.5007C 53.0313 -102.0909 52.21799 -98.84235 51.85537 -95.42579L51.85537 -95.42579L51.85537 -95.42461z" stroke="none" fill="#FFFFFF" fill-rule="nonzero" /><g><g clip-path="url(#12)"><path id="11" transform="matrix(1 0 0 -1 0 842)" d="M82.71106 -104.0686C 83.98199 -102.3053 82.42606 -100.1631 80.35341 -99.79699C 72.90045 -98.48319 65.95494 -94.45376 63.37948 -87.77354C 59.57248 -77.89805 59.23071 -64.01167 58.34557 -51.35334C 57.7802 -40.82327 57.23452 -32.64506 56.90434 -22.69427C 56.81397 -19.96587 56.75141 -17.23518 56.72244 -14.50562C 56.67842 -10.41362 57.24727 -6.26252 57.00282 -2.204124C 56.97501 -1.745331 56.92519 -1.278442 56.73403 -0.8659973C 56.17445 0.3470001 54.00217 0.3968277 53.98711 -0.97258C 53.94192 -5.129456 53.99406 -6.493073 53.94192 -9.435799C 53.89211 -12.26151 53.88052 -14.57397 53.86893 -17.402C 53.84113 -23.90611 53.50978 -30.40557 53.50978 -36.90968C 53.50978 -45.46095 53.45533 -54.0122 53.39508 -62.56347C 53.33368 -71.11358 53.26649 -79.66367 53.23752 -88.21494C 53.22362 -92.55024 52.90734 -97.47408 55.33682 -101.2973C 55.61023 -101.7294 55.92188 -102.1292 56.26482 -102.4964C 58.74412 -105.1541 62.63685 -106.0172 66.12988 -106.191C 68.27204 -106.2976 70.40262 -106.198 72.53899 -106.2049C 74.74718 -106.2119 76.96696 -106.169 79.15083 -105.8087C 80.24799 -105.628 81.37988 -105.3429 82.2152 -104.6084C 82.41331 -104.4335 82.57899 -104.2528 82.71222 -104.0674L82.71222 -104.0674L82.71106 -104.0686z" stroke="none" fill="#000000" fill-rule="nonzero" fill-opacity="0.03921569" /></g></g><path id="12" transform="matrix(1 0 0 -1 0 842)" d="M51.85537 -95.43272C 52.25854 -99.23624 53.25258 -102.9413 55.3681 -105.46C 60.18883 -111.2018 67.50855 -109.8115 73.31637 -108.9843C 74.86535 -108.7456 76.41781 -108.4861 77.97606 -108.3587C 79.06394 -108.2706 80.18426 -108.1745 81.25012 -107.8686C 81.87806 -107.6948 82.51527 -107.4365 83.10497 -107.0773C 85.77774 -105.5063 87.31746 -101.8025 87.89558 -97.87496C 88.46442 -94.15253 88.37985 -90.36639 88.34972 -86.55244C 88.19216 -36.0709 88.3671 23.86674 88.16436 74.3251C 88.09485 77.89461 88.32308 97.22155 87.73338 100.7076C 87.57697 101.5997 87.3638 102.4605 87.05795 103.2634C 86.76598 104.0199 86.36166 104.8633 85.96195 105.5272C 81.56062 112.8354 75.62305 114.4168 65.99085 113.2663C 63.32387 112.9477 60.89786 111.7069 58.97583 109.8486C 56.29378 107.2558 54.57797 103.7222 53.47387 100.2002C 52.87374 98.28279 52.46825 96.30399 52.26666 94.30548C 52.06507 92.30235 51.83915 90.03854 51.79976 88.03309C 51.77659 86.86295 51.79397 84.57945 51.77427 83.41047C 51.73141 80.78288 51.97934 79.52353 51.91562 76.89709C 51.76153 70.52506 51.78006 64.15072 51.82177 57.77058C 52.0419 9.807724 51.53329 -39.86861 51.61903 -87.78629C 51.60744 -90.26328 51.575 -92.96966 51.85421 -95.43041L51.85421 -95.43041L51.85537 -95.43272zM51.85537 -95.43272C 51.65146 -93.53849 51.59586 -91.61877 51.60396 -89.7037C 51.6086 -86.51536 51.58195 -83.30733 51.54835 -80.12826C 51.10578 -54.83825 50.87639 -28.85543 51.05249 -3.519081C 51.21237 20.34244 51.21469 83.35023 51.15676 87.69827C 50.99457 100.2315 55.54999 114.4608 70.11298 114.0877C 77.46861 113.8989 80.58859 112.9929 85.19036 107.6543C 85.96427 106.6661 86.97453 104.7348 87.51441 103.4673C 87.93613 102.4663 88.1771 101.5905 88.37174 100.462C 88.81083 97.93754 88.8676 80.73306 88.8815 78.16223C 89.04254 44.52023 88.99851 -6.403877 89.00894 -40.58112C 89.02168 -55.82072 89.04022 -71.292 89.08309 -86.5397C 89.10742 -91.16463 89.26151 -96.03172 88.1493 -100.4724C 87.58045 -102.7304 86.60958 -104.8019 85.29694 -106.3069L85.29694 -106.3069L85.15676 -106.4552L85.15676 -106.4552L84.87523 -106.7506C 84.77792 -106.8422 84.67944 -106.9302 84.58096 -107.0194L84.58096 -107.0194L84.43382 -107.1526C 84.384 -107.1967 84.33187 -107.2337 84.2809 -107.2731L84.2809 -107.2731L83.97504 -107.5106C 83.87077 -107.5825 83.76534 -107.6497 83.65991 -107.7203L83.65991 -107.7203L83.50235 -107.8235C 83.44906 -107.8547 83.3946 -107.8837 83.34131 -107.9138L83.34131 -107.9138L83.01807 -108.0911C 82.48051 -108.3471 81.91513 -108.5649 81.35555 -108.6947C 80.25377 -108.9867 79.11259 -109.0318 77.99692 -109.0955C 76.44562 -109.1697 74.90127 -109.3724 73.35344 -109.5566C 67.10886 -110.2529 58.61899 -111.4787 54.18058 -103.7824C 52.84361 -101.4086 52.17397 -98.41488 51.85421 -95.43044L51.85421 -95.43044L51.85421 -95.4316L51.85421 -95.4316L51.85537 -95.43272z" stroke="none" fill="#000000" fill-rule="nonzero" /></g><g clip-path="url(#13)"><path id="13" transform="matrix(1 0 0 -1 0 842)" d="M51.85537 -29.93022C 51.67232 -28.20166 51.60396 -26.43141 51.6086 -24.70401C 51.62714 -17.73184 51.55878 -10.85468 51.49969 -3.889465C 51.18109 33.96967 51.52866 71.84153 51.52866 109.7041C 51.52866 121.1749 51.26335 132.6805 51.58543 144.1444C 51.72098 148.9616 51.74414 163.0867 53.59899 167.5367C 56.39805 174.254 61.37634 179.888 70.11298 179.5821C 80.29896 179.2241 85.9828 173.8705 87.73338 166.3584C 88.77376 161.8934 88.49686 148.124 88.51192 144.675C 88.71931 99.26675 88.59303 53.85271 88.65906 8.440979C 88.66138 6.609299 88.66485 4.775314 88.66717 2.943665C 88.67876 -4.128143 88.6915 -11.19992 88.7054 -18.27173C 88.7054 -18.72704 88.70772 -19.18118 88.70888 -19.63651L88.70888 -19.63651L88.70888 -19.75467C 88.72394 -26.54262 89.22211 -34.94676 85.49158 -39.94475C 83.37607 -42.77856 80.7253 -43.08209 78.04326 -43.24429C 71.15567 -43.6637 60.18767 -47.39423 54.62894 -39.00632C 53.0313 -36.59653 52.21799 -33.34796 51.85537 -29.9314L51.85537 -29.9314L51.85537 -29.93022z" stroke="none" fill="#FFFFFF" fill-rule="nonzero" /><g><g clip-path="url(#14)"><path id="14" transform="matrix(1 0 0 -1 0 842)" d="M82.71106 -38.57417C 83.98199 -36.81087 82.42606 -34.6687 80.35341 -34.3026C 72.90045 -32.9888 65.95494 -28.95937 63.37948 -22.27914C 59.57248 -12.40366 59.23071 1.482727 58.34557 14.14105C 57.7802 24.67113 57.23452 32.84933 56.90434 42.80013C 56.81397 45.52852 56.75141 48.25922 56.72244 50.98877C 56.67842 55.08077 57.24727 59.23187 57.00282 63.29027C 56.97501 63.74906 56.92519 64.21595 56.73403 64.6284C 56.17445 65.84139 54.00217 65.89122 53.98711 64.52181C 53.94192 60.36494 53.99406 59.00132 53.94192 56.05859C 53.89211 53.23289 53.88052 50.92043 53.86893 48.09239C 53.84113 41.58829 53.50978 35.08882 53.50978 28.58472C 53.50978 20.03345 53.45533 11.48219 53.39508 2.930923C 53.33368 -5.619186 53.26649 -14.16928 53.23752 -22.72055C 53.22362 -27.05585 52.90734 -31.97969 55.33682 -35.80292C 55.61023 -36.23505 55.92188 -36.63477 56.26482 -37.00201C 58.74412 -39.65971 62.63685 -40.52284 66.12988 -40.69662C 68.27204 -40.80322 70.40262 -40.70358 72.53899 -40.71054C 74.74718 -40.7175 76.96696 -40.67461 79.15083 -40.3143C 80.24799 -40.13356 81.37988 -39.84856 82.2152 -39.11404C 82.41331 -38.9391 82.57899 -38.75838 82.71222 -38.573L82.71222 -38.573L82.71106 -38.57417z" stroke="none" fill="#000000" fill-rule="nonzero" fill-opacity="0.03921569" /></g></g><path id="15" transform="matrix(1 0 0 -1 0 842)" d="M51.85537 -29.93832C 52.25854 -33.74185 53.25258 -37.44688 55.3681 -39.96559C 60.18883 -45.70738 67.50855 -44.31712 73.31637 -43.48991C 74.86535 -43.25124 76.41781 -42.99173 77.97606 -42.86429C 79.06394 -42.77625 80.18426 -42.68008 81.25012 -42.37422C 81.87806 -42.20044 82.51527 -41.94209 83.10497 -41.58295C 85.77774 -40.01193 87.31746 -36.30806 87.89558 -32.38057C 88.46442 -28.65814 88.37985 -24.87199 88.34972 -21.05804C 88.19216 29.42349 88.3671 89.36113 88.16436 139.8195C 88.09485 143.389 88.32308 162.7159 87.73338 166.202C 87.57697 167.0941 87.3638 167.9549 87.05795 168.7578C 86.76598 169.5143 86.36166 170.3577 85.96195 171.0216C 81.56062 178.3297 75.62305 179.9112 65.99085 178.7607C 63.32387 178.4421 60.89786 177.2013 58.97583 175.343C 56.29378 172.7502 54.57797 169.2166 53.47387 165.6946C 52.87374 163.7772 52.46825 161.7984 52.26666 159.7999C 52.06507 157.7967 51.83915 155.5329 51.79976 153.5275C 51.77659 152.3573 51.79397 150.0738 51.77427 148.9049C 51.73141 146.2773 51.97934 145.0179 51.91562 142.3915C 51.76153 136.0195 51.78006 129.6451 51.82177 123.265C 52.0419 75.30212 51.53329 25.62578 51.61903 -22.2919C 51.60744 -24.76889 51.575 -27.47527 51.85421 -29.93602L51.85421 -29.93602L51.85537 -29.93832zM51.85537 -29.93832C 51.65146 -28.0441 51.59586 -26.12437 51.60396 -24.2093C 51.6086 -21.02097 51.58195 -17.81294 51.54835 -14.63387C 51.10578 10.65614 50.87639 36.63896 51.05249 61.97531C 51.21237 85.83683 51.21469 148.8446 51.15676 153.1927C 50.99457 165.7259 55.54999 179.9552 70.11298 179.5821C 77.46861 179.3933 80.58859 178.4873 85.19036 173.1487C 85.96427 172.1605 86.97453 170.2292 87.51441 168.9617C 87.93613 167.9607 88.1771 167.0848 88.37174 165.9564C 88.81083 163.4319 88.8676 146.2274 88.8815 143.6566C 89.04254 110.0146 88.99851 59.09052 89.00894 24.91327C 89.02168 9.673676 89.04022 -5.797607 89.08309 -21.0453C 89.10742 -25.67024 89.26151 -30.53732 88.1493 -34.97804C 87.58045 -37.23605 86.60958 -39.30754 85.29694 -40.8125L85.29694 -40.8125L85.15676 -40.9608L85.15676 -40.9608L84.87523 -41.25624C 84.77792 -41.34776 84.67944 -41.43582 84.58096 -41.52501L84.58096 -41.52501L84.43382 -41.65825C 84.384 -41.70227 84.33187 -41.73933 84.2809 -41.77875L84.2809 -41.77875L83.97504 -42.01625C 83.87077 -42.08807 83.76534 -42.15527 83.65991 -42.22595L83.65991 -42.22595L83.50235 -42.32907C 83.44906 -42.36035 83.3946 -42.38931 83.34131 -42.41943L83.34131 -42.41943L83.01807 -42.59669C 82.48051 -42.85274 81.91513 -43.07054 81.35555 -43.2003C 80.25377 -43.49226 79.11259 -43.53745 77.99692 -43.60115C 76.44562 -43.67531 74.90127 -43.87805 73.35344 -44.06226C 67.10886 -44.75854 58.61899 -45.98428 54.18058 -38.28804C 52.84361 -35.91417 52.17397 -32.92049 51.85421 -29.93605L51.85421 -29.93605L51.85421 -29.93721L51.85421 -29.93721L51.85537 -29.93832z" stroke="none" fill="#000000" fill-rule="nonzero" /></g><g clip-path="url(#15)"><path id="16" transform="matrix(1 0 0 -1 0 842)" d="M51.85537 79.9807C 51.67232 81.70926 51.60396 83.47951 51.6086 85.20691C 51.62714 92.17908 51.55878 99.05624 51.49969 106.0215C 51.18109 143.8806 51.52866 181.7524 51.52866 219.6151C 51.52866 231.0859 51.26335 242.5914 51.58543 254.0553C 51.72098 258.8726 51.74414 272.9976 53.59899 277.4476C 56.39805 284.1649 61.37634 289.7989 70.11298 289.493C 80.29896 289.1351 85.9828 283.7814 87.73338 276.2693C 88.77376 271.8043 88.49686 258.0349 88.51192 254.5859C 88.71931 209.1777 88.59303 163.7636 88.65906 118.3519C 88.66138 116.5202 88.66485 114.6862 88.66717 112.8546C 88.67876 105.7828 88.6915 98.711 88.7054 91.63919C 88.7054 91.18388 88.70772 90.72974 88.70888 90.27441L88.70888 90.27441L88.70888 90.15625C 88.72394 83.3683 89.22211 74.96416 85.49158 69.96617C 83.37607 67.13235 80.7253 66.82883 78.04326 66.66663C 71.15567 66.24722 60.18767 62.51669 54.62894 70.9046C 53.0313 73.31439 52.21799 76.56296 51.85537 79.97952L51.85537 79.97952L51.85537 79.9807z" stroke="none" fill="#FFFFFF" fill-rule="nonzero" /><g><g clip-path="url(#16)"><path id="17" transform="matrix(1 0 0 -1 0 842)" d="M82.71106 71.33672C 83.98199 73.10002 82.42606 75.24219 80.35341 75.60829C 72.90045 76.92209 65.95494 80.95152 63.37948 87.63174C 59.57248 97.50723 59.23071 111.3936 58.34557 124.0519C 57.7802 134.582 57.23452 142.7602 56.90434 152.711C 56.81397 155.4394 56.75141 158.1701 56.72244 160.8997C 56.67842 164.9917 57.24727 169.1428 57.00282 173.2012C 56.97501 173.6599 56.92519 174.1268 56.73403 174.5393C 56.17445 175.7523 54.00217 175.8021 53.98711 174.4327C 53.94192 170.2758 53.99406 168.9122 53.94192 165.9695C 53.89211 163.1438 53.88052 160.8313 53.86893 158.0033C 53.84113 151.4992 53.50978 144.9997 53.50978 138.4956C 53.50978 129.9443 53.45533 121.3931 53.39508 112.8418C 53.33368 104.2917 53.26649 95.74161 53.23752 87.19034C 53.22362 82.85504 52.90734 77.9312 55.33682 74.10797C 55.61023 73.67584 55.92188 73.27612 56.26482 72.90887C 58.74412 70.25117 62.63685 69.38805 66.12988 69.21426C 68.27204 69.10767 70.40262 69.20731 72.53899 69.20035C 74.74718 69.19339 76.96696 69.23628 79.15083 69.59659C 80.24799 69.77733 81.37988 70.06233 82.2152 70.79684C 82.41331 70.97179 82.57899 71.15251 82.71222 71.33789L82.71222 71.33789L82.71106 71.33672z" stroke="none" fill="#000000" fill-rule="nonzero" fill-opacity="0.03921569" /></g></g><path id="18" transform="matrix(1 0 0 -1 0 842)" d="M51.85537 79.9726C 52.25854 76.16907 53.25258 72.46404 55.3681 69.94533C 60.18883 64.20354 67.50855 65.5938 73.31637 66.42101C 74.86535 66.65968 76.41781 66.91919 77.97606 67.04663C 79.06394 67.13467 80.18426 67.23083 81.25012 67.5367C 81.87806 67.71048 82.51527 67.96883 83.10497 68.32797C 85.77774 69.89899 87.31746 73.60286 87.89558 77.53035C 88.46442 81.25278 88.37985 85.03893 88.34972 88.85287C 88.19216 139.3344 88.3671 199.272 88.16436 249.7304C 88.09485 253.2999 88.32308 272.6269 87.73338 276.1129C 87.57697 277.005 87.3638 277.8658 87.05795 278.6687C 86.76598 279.4252 86.36166 280.2687 85.96195 280.9325C 81.56062 288.2407 75.62305 289.8221 65.99085 288.6716C 63.32387 288.353 60.89786 287.1122 58.97583 285.2539C 56.29378 282.6611 54.57797 279.1275 53.47387 275.6055C 52.87374 273.6881 52.46825 271.7093 52.26666 269.7108C 52.06507 267.7077 51.83915 265.4438 51.79976 263.4384C 51.77659 262.2682 51.79397 259.9848 51.77427 258.8158C 51.73141 256.1882 51.97934 254.9288 51.91562 252.3024C 51.76153 245.9304 51.78006 239.556 51.82177 233.1759C 52.0419 185.213 51.53329 135.5367 51.61903 87.61902C 51.60744 85.14203 51.575 82.43565 51.85421 79.9749L51.85421 79.9749L51.85537 79.9726zM51.85537 79.9726C 51.65146 81.86682 51.59586 83.78654 51.60396 85.70161C 51.6086 88.88995 51.58195 92.09798 51.54835 95.27705C 51.10578 120.5671 50.87639 146.5499 51.05249 171.8862C 51.21237 195.7477 51.21469 258.7556 51.15676 263.1036C 50.99457 275.6368 55.54999 289.8661 70.11298 289.493C 77.46861 289.3042 80.58859 288.3982 85.19036 283.0596C 85.96427 282.0714 86.97453 280.1401 87.51441 278.8726C 87.93613 277.8716 88.1771 276.9958 88.37174 275.8673C 88.81083 273.3429 88.8676 256.1384 88.8815 253.5676C 89.04254 219.9255 88.99851 169.0014 89.00894 134.8242C 89.02168 119.5846 89.04022 104.1133 89.08309 88.86562C 89.10742 84.24068 89.26151 79.3736 88.1493 74.93288C 87.58045 72.67487 86.60958 70.60338 85.29694 69.09842L85.29694 69.09842L85.15676 68.95012L85.15676 68.95012L84.87523 68.65468C 84.77792 68.56316 84.67944 68.4751 84.58096 68.38591L84.58096 68.38591L84.43382 68.25267C 84.384 68.20865 84.33187 68.17159 84.2809 68.13217L84.2809 68.13217L83.97504 67.89467C 83.87077 67.82285 83.76534 67.75565 83.65991 67.68497L83.65991 67.68497L83.50235 67.58185C 83.44906 67.55057 83.3946 67.52161 83.34131 67.49149L83.34131 67.49149L83.01807 67.31422C 82.48051 67.05818 81.91513 66.84038 81.35555 66.71062C 80.25377 66.41866 79.11259 66.37347 77.99692 66.30977C 76.44562 66.23561 74.90127 66.03287 73.35344 65.84866C 67.10886 65.15237 58.61899 63.92664 54.18058 71.62288C 52.84361 73.99675 52.17397 76.99043 51.85421 79.97487L51.85421 79.97487L51.85421 79.97371L51.85421 79.97371L51.85537 79.9726z" stroke="none" fill="#000000" fill-rule="nonzero" /></g><g clip-path="url(#17)"><path id="19" transform="matrix(1 0 0 -1 0 842)" d="M51.85537 163.9807C 51.67232 165.7093 51.60396 167.4795 51.6086 169.2069C 51.62714 176.1791 51.55878 183.0562 51.49969 190.0215C 51.18109 227.8806 51.52866 265.7524 51.52866 303.6151C 51.52866 315.0859 51.26335 326.5914 51.58543 338.0553C 51.72098 342.8726 51.74414 356.9976 53.59899 361.4476C 56.39805 368.1649 61.37634 373.7989 70.11298 373.493C 80.29896 373.1351 85.9828 367.7814 87.73338 360.2693C 88.77376 355.8043 88.49686 342.0349 88.51192 338.5859C 88.71931 293.1777 88.59303 247.7636 88.65906 202.3519C 88.66138 200.5202 88.66485 198.6862 88.66717 196.8546C 88.67876 189.7828 88.6915 182.711 88.7054 175.6392C 88.7054 175.1839 88.70772 174.7297 88.70888 174.2744L88.70888 174.2744L88.70888 174.1563C 88.72394 167.3683 89.22211 158.9642 85.49158 153.9662C 83.37607 151.1324 80.7253 150.8288 78.04326 150.6666C 71.15567 150.2472 60.18767 146.5167 54.62894 154.9046C 53.0313 157.3144 52.21799 160.563 51.85537 163.9795L51.85537 163.9795L51.85537 163.9807z" stroke="none" fill="#FFFFFF" fill-rule="nonzero" /><g><g clip-path="url(#18)"><path id="20" transform="matrix(1 0 0 -1 0 842)" d="M82.71106 155.3367C 83.98199 157.1001 82.42606 159.2422 80.35341 159.6083C 72.90045 160.9221 65.95494 164.9516 63.37948 171.6318C 59.57248 181.5073 59.23071 195.3936 58.34557 208.052C 57.7802 218.582 57.23452 226.7603 56.90434 236.711C 56.81397 239.4394 56.75141 242.1701 56.72244 244.8997C 56.67842 248.9917 57.24727 253.1428 57.00282 257.2012C 56.97501 257.66 56.92519 258.1269 56.73403 258.5393C 56.17445 259.7523 54.00217 259.8021 53.98711 258.4327C 53.94192 254.2758 53.99406 252.9122 53.94192 249.9695C 53.89211 247.1438 53.88052 244.8313 53.86893 242.0033C 53.84113 235.4992 53.50978 228.9997 53.50978 222.4956C 53.50978 213.9444 53.45533 205.3931 53.39508 196.8418C 53.33368 188.2917 53.26649 179.7416 53.23752 171.1904C 53.22362 166.8551 52.90734 161.9312 55.33682 158.108C 55.61023 157.6759 55.92188 157.2762 56.26482 156.9089C 58.74412 154.2512 62.63685 153.3881 66.12988 153.2143C 68.27204 153.1077 70.40262 153.2073 72.53899 153.2004C 74.74718 153.1934 76.96696 153.2363 79.15083 153.5966C 80.24799 153.7774 81.37988 154.0624 82.2152 154.7969C 82.41331 154.9718 82.57899 155.1525 82.71222 155.3379L82.71222 155.3379L82.71106 155.3367z" stroke="none" fill="#000000" fill-rule="nonzero" fill-opacity="0.03921569" /></g></g><path id="21" transform="matrix(1 0 0 -1 0 842)" d="M51.85537 163.9726C 52.25854 160.1691 53.25258 156.464 55.3681 153.9453C 60.18883 148.2035 67.50855 149.5938 73.31637 150.421C 74.86535 150.6597 76.41781 150.9192 77.97606 151.0466C 79.06394 151.1347 80.18426 151.2308 81.25012 151.5367C 81.87806 151.7105 82.51527 151.9688 83.10497 152.328C 85.77774 153.899 87.31746 157.6029 87.89558 161.5303C 88.46442 165.2528 88.37985 169.0389 88.34972 172.8529C 88.19216 223.3344 88.3671 283.272 88.16436 333.7304C 88.09485 337.2999 88.32308 356.6269 87.73338 360.1129C 87.57697 361.005 87.3638 361.8658 87.05795 362.6687C 86.76598 363.4252 86.36166 364.2687 85.96195 364.9325C 81.56062 372.2407 75.62305 373.8221 65.99085 372.6716C 63.32387 372.353 60.89786 371.1122 58.97583 369.2539C 56.29378 366.6611 54.57797 363.1275 53.47387 359.6055C 52.87374 357.6881 52.46825 355.7093 52.26666 353.7108C 52.06507 351.7077 51.83915 349.4438 51.79976 347.4384C 51.77659 346.2682 51.79397 343.9848 51.77427 342.8158C 51.73141 340.1882 51.97934 338.9288 51.91562 336.3024C 51.76153 329.9304 51.78006 323.556 51.82177 317.1759C 52.0419 269.213 51.53329 219.5367 51.61903 171.619C 51.60744 169.142 51.575 166.4357 51.85421 163.9749L51.85421 163.9749L51.85537 163.9726zM51.85537 163.9726C 51.65146 165.8668 51.59586 167.7865 51.60396 169.7016C 51.6086 172.89 51.58195 176.098 51.54835 179.2771C 51.10578 204.5671 50.87639 230.5499 51.05249 255.8862C 51.21237 279.7477 51.21469 342.7556 51.15676 347.1036C 50.99457 359.6368 55.54999 373.8661 70.11298 373.493C 77.46861 373.3042 80.58859 372.3982 85.19036 367.0596C 85.96427 366.0714 86.97453 364.1401 87.51441 362.8726C 87.93613 361.8716 88.1771 360.9958 88.37174 359.8673C 88.81083 357.3429 88.8676 340.1384 88.8815 337.5675C 89.04254 303.9255 88.99851 253.0014 89.00894 218.8242C 89.02168 203.5846 89.04022 188.1133 89.08309 172.8656C 89.10742 168.2407 89.26151 163.3736 88.1493 158.9329C 87.58045 156.6749 86.60958 154.6034 85.29694 153.0984L85.29694 153.0984L85.15676 152.9501L85.15676 152.9501L84.87523 152.6547C 84.77792 152.5632 84.67944 152.4751 84.58096 152.3859L84.58096 152.3859L84.43382 152.2527C 84.384 152.2086 84.33187 152.1716 84.2809 152.1322L84.2809 152.1322L83.97504 151.8947C 83.87077 151.8228 83.76534 151.7556 83.65991 151.685L83.65991 151.685L83.50235 151.5818C 83.44906 151.5506 83.3946 151.5216 83.34131 151.4915L83.34131 151.4915L83.01807 151.3142C 82.48051 151.0582 81.91513 150.8404 81.35555 150.7106C 80.25377 150.4187 79.11259 150.3735 77.99692 150.3098C 76.44562 150.2356 74.90127 150.0329 73.35344 149.8487C 67.10886 149.1524 58.61899 147.9266 54.18058 155.6229C 52.84361 157.9967 52.17397 160.9904 51.85421 163.9749L51.85421 163.9749L51.85421 163.9737L51.85421 163.9737L51.85537 163.9726z" stroke="none" fill="#000000" fill-rule="nonzero" /></g><g clip-path="url(#19)"><path id="22" transform="matrix(1 0 0 -1 0 842)" d="M53.2367 631.4185C 52.04905 630.6434 51.87403 629.4183 51.84903 628.6682C 51.84903 628.4431 51.6365 628.3181 51.49899 628.4431C 47.636 631.806 48.4361 645.0077 48.47361 646.3704C 48.68613 654.5839 48.23608 653.1087 49.08618 661.2972C 49.08618 661.2972 49.46123 664.9102 52.06155 665.1227C 66.20082 666.2853 75.33946 665.5478 89.51624 665.3853C 94.8419 665.3228 99.47998 663.285 103.1304 659.8596C 106.0808 657.0967 109.3562 653.7463 110.1313 649.8458C 111.0064 645.4453 107.4435 642.1323 104.4306 639.0695C 99.86752 634.4189 95.95454 632.6686 88.81615 632.6812C 80.50261 632.7062 77.2522 632.6812 68.92616 632.6437C 63.55049 632.6312 55.48698 632.8812 53.2242 631.406L53.2242 631.406L53.2367 631.4185z" stroke="none" fill="#8EDFD2" fill-rule="nonzero" /><g><g clip-path="url(#20)"><path id="23" transform="matrix(1 0 0 -1 0 842)" d="M53.62425 645.8453C 53.81178 648.7206 53.74927 651.6585 54.0368 654.5214C 54.19932 656.1591 54.64938 657.8218 55.5995 658.9094C 57.1997 660.7222 59.77502 660.4846 61.77527 660.5596C 64.48811 660.6597 67.18845 660.5222 69.90128 660.5222C 78.73988 660.5222 65.33821 660.7097 74.17682 660.6097C 79.03992 660.5471 84.07805 660.6472 88.89116 659.6595C 91.57899 659.097 94.22932 658.2094 96.72963 656.8092C 99.34246 655.334 101.3677 653.0212 103.7805 651.171C 104.9307 650.2958 105.7683 651.4085 105.4682 652.9712C 105.1432 654.7089 102.9804 656.1341 101.7928 657.1842C 99.88004 658.8719 97.95479 660.6472 95.692 661.7598C 92.30408 663.4225 88.59113 663.285 85.02818 663.3475C 81.2402 663.41 77.46473 663.6975 73.68926 663.7225C 67.83853 663.7601 61.9753 663.7601 56.11206 663.7225C 51.91154 663.6975 69.96379 663.6475 65.76327 663.56C 63.65051 663.5225 61.52524 663.4725 59.41248 663.4225C 56.3746 663.3475 51.69901 663.0724 50.91142 658.1594C 50.54887 655.8716 50.49886 653.5338 50.49886 651.196C 50.49886 649.0707 50.34884 646.8204 50.68639 644.7202C 51.06143 642.3949 53.06168 643.1075 53.51174 644.9577C 53.58675 645.2452 53.62425 645.5453 53.63675 645.8578L53.63675 645.8578L53.62425 645.8453z" stroke="none" fill="#FFFFFF" fill-rule="nonzero" fill-opacity="0.09803922" /></g></g><path id="24" transform="matrix(1 0 0 -1 0 842)" d="M53.2367 631.4185C 53.71176 631.7185 54.22433 631.8685 54.73689 632.0061C 55.77452 632.2561 56.81215 632.3811 57.86228 632.4811C 61.43773 632.7812 65.2757 632.7687 68.87616 632.8437C 74.66438 632.8312 78.01479 633.2062 81.2652 633.1937C 82.61537 633.1937 88.21607 633.1937 89.50373 633.1937C 90.40384 633.2062 91.32896 633.2437 92.22906 633.3438C 96.99216 633.7938 100.5051 635.6315 104.2431 639.4945C 105.6557 640.9447 107.1434 642.3574 108.3436 644.0951C 109.5062 645.7828 110.2938 647.8456 109.6813 650.1208C 109.1187 652.3086 107.8935 654.0588 106.6059 655.634C 105.8433 656.5341 105.0432 657.3842 104.2181 658.1968C 103.393 658.9969 102.5554 659.8096 101.6803 660.5096C 98.60487 662.9849 95.06693 664.3726 91.46648 664.7477C 90.70387 664.8352 89.90378 664.8602 89.14118 664.8602C 76.12706 665.0227 84.22807 665.3102 71.27645 665.2227C 64.86315 665.1602 58.44985 665.0852 52.04905 664.5977C 51.23645 664.5226 50.51136 663.9726 50.0613 663.0724C 49.77377 662.5099 49.57374 661.8348 49.49873 661.1597L49.49873 661.1597L49.47373 660.9097L49.47373 660.9097L49.42372 660.4096C 49.2612 658.7344 49.11118 657.0467 49.01117 655.384C 48.93616 654.2338 48.93616 652.5211 48.91116 651.346C 48.88615 649.6333 48.83615 647.9456 48.76114 646.2328C 48.71113 645.2578 48.64862 644.1701 48.62362 643.1949C 48.52361 638.8944 48.59862 630.5309 51.86153 628.2056C 51.86153 628.3556 51.86153 628.5306 51.87403 628.6932C 51.91153 629.9308 52.41159 630.8934 53.2742 631.431L53.2742 631.431L53.2367 631.4185zM53.2367 631.4185C 52.78664 631.1185 52.37409 630.6809 52.13657 630.0933C 52.01155 629.8058 51.93654 629.4808 51.89904 629.1557C 51.86153 628.8307 51.86153 628.8307 51.86153 628.6682C 51.86153 628.6682 51.49899 628.4182 51.49899 628.4182C 51.17394 628.7057 50.87391 629.0557 50.62387 629.4432C 48.99867 632.0436 48.57362 635.8691 48.32359 639.0945C 48.14857 641.4698 48.13607 643.8826 48.19857 646.2579C 48.22358 647.9456 48.21107 649.6583 48.19857 651.3335C 48.18607 652.6962 48.14857 654.0714 48.19857 655.434C 48.26108 657.1467 48.4361 658.8469 48.61113 660.5347L48.61113 660.5347L48.66113 661.0347L48.66113 661.0347L48.68613 661.2847C 48.78614 662.1223 49.02367 662.9099 49.37372 663.6225C 49.84878 664.5851 50.63638 665.3228 51.51149 665.5353C 51.77402 665.6103 52.07406 665.6228 52.34909 665.6478C 72.08906 666.848 70.13881 666.0479 89.91628 665.8853C 95.45448 665.7228 100.3426 663.51 104.6806 659.022C 106.7809 656.9217 108.9437 654.6339 110.1188 651.4585C 112.1316 646.0703 108.2561 642.3074 105.3432 639.332C 104.3056 638.2693 103.2554 637.2192 102.1303 636.3191C 100.5426 635.0314 98.8174 634.0188 97.01717 633.3688C 93.95428 632.2436 90.70388 632.1561 87.54099 632.1811C 80.3651 632.1811 66.72589 632.7062 59.43748 632.5311C 57.86228 632.4561 56.28708 632.3686 54.73689 631.9936C 54.22433 631.8685 53.71176 631.7061 53.2367 631.4185z" stroke="none" fill="#000000" fill-rule="nonzero" /></g><g clip-path="url(#21)"><path id="25" transform="matrix(1 0 0 -1 0 842)" d="M56.07135 492.5295C 54.8837 491.7544 54.70868 490.5293 54.68367 489.7792C 54.68367 489.5541 54.47115 489.4291 54.33363 489.5541C 50.47065 492.9171 51.27075 506.1187 51.30825 507.4814C 51.52078 515.6949 51.07072 514.2197 51.92083 522.4083C 51.92083 522.4083 52.29588 526.0212 54.8962 526.2338C 69.03546 527.3964 78.1741 526.6588 92.35088 526.4963C 97.67654 526.4338 102.3146 524.396 105.9651 520.9706C 108.9155 518.2078 112.1909 514.8573 112.966 510.9568C 113.8411 506.5563 110.2781 503.2434 107.2652 500.1805C 102.7022 495.5299 98.78918 493.7797 91.65079 493.7922C 83.33725 493.8172 80.08685 493.7922 71.7608 493.7547C 66.38513 493.7422 58.32162 493.9922 56.05884 492.517L56.05884 492.517L56.07135 492.5295z" stroke="none" fill="#8EDFD2" fill-rule="nonzero" /><g><g clip-path="url(#22)"><path id="26" transform="matrix(1 0 0 -1 0 842)" d="M56.45889 506.9563C 56.64642 509.8316 56.58391 512.7695 56.87144 515.6323C 57.03397 517.2701 57.48402 518.9327 58.43414 520.0204C 60.03434 521.8331 62.60966 521.5956 64.60991 521.6706C 67.32275 521.7706 70.02309 521.6331 72.73593 521.6331C 81.57453 521.6331 68.17286 521.8206 77.01146 521.7206C 81.87457 521.6581 86.9127 521.7581 91.7258 520.7705C 94.41364 520.2079 97.06396 519.3203 99.56428 517.9202C 102.1771 516.4449 104.2024 514.1321 106.6152 512.2819C 107.7653 511.4068 108.6029 512.5195 108.3029 514.0822C 107.9778 515.8199 105.8151 517.2451 104.6274 518.2952C 102.7147 519.9829 100.7894 521.7581 98.52665 522.8708C 95.13873 524.5334 91.42577 524.3959 87.86282 524.4584C 84.07484 524.5209 80.29938 524.8085 76.5239 524.8335C 70.67317 524.871 64.80994 524.871 58.94671 524.8335C 54.74619 524.8085 72.79844 524.7585 68.59792 524.671C 66.48515 524.6335 64.35989 524.5835 62.24712 524.5334C 59.20924 524.4584 54.53366 524.1834 53.74606 519.2703C 53.38351 516.9825 53.33351 514.6447 53.33351 512.3069C 53.33351 510.1817 53.18349 507.9314 53.52103 505.8311C 53.89608 503.5058 55.89633 504.2184 56.34638 506.0687C 56.42139 506.3562 56.4589 506.6562 56.4714 506.9688L56.4714 506.9688L56.45889 506.9563z" stroke="none" fill="#FFFFFF" fill-rule="nonzero" fill-opacity="0.09803922" /></g></g><path id="27" transform="matrix(1 0 0 -1 0 842)" d="M56.07135 492.5295C 56.54641 492.8296 57.05897 492.9796 57.57153 493.1171C 58.60916 493.3671 59.64679 493.4922 60.69692 493.5922C 64.27237 493.8922 68.11035 493.8797 71.7108 493.9547C 77.49902 493.9422 80.84944 494.3173 84.09985 494.3047C 85.45001 494.3047 91.05072 494.3047 92.33838 494.3047C 93.23849 494.3173 94.1636 494.3547 95.06371 494.4548C 99.82681 494.9048 103.3397 496.7426 107.0777 500.6055C 108.4904 502.0557 109.9781 503.4684 111.1782 505.2061C 112.3409 506.8938 113.1285 508.9566 112.5159 511.2319C 111.9533 513.4196 110.7282 515.1699 109.4405 516.7451C 108.6779 517.6451 107.8778 518.4952 107.0527 519.3079C 106.2276 520.108 105.39 520.9206 104.5149 521.6207C 101.4395 524.0959 97.90157 525.4836 94.30112 525.8587C 93.53852 525.9462 92.73842 525.9712 91.97583 525.9712C 78.9617 526.1337 87.06271 526.4213 74.1111 526.3337C 67.69779 526.2712 61.28449 526.1962 54.88369 525.7087C 54.07109 525.6337 53.346 525.0836 52.89595 524.1835C 52.60841 523.6209 52.40838 522.9458 52.33337 522.2708L52.33337 522.2708L52.30837 522.0207L52.30837 522.0207L52.25837 521.5206C 52.09584 519.8455 51.94583 518.1577 51.84581 516.495C 51.77081 515.3448 51.77081 513.6321 51.7458 512.457C 51.7208 510.7443 51.67079 509.0566 51.59578 507.3439C 51.54578 506.3687 51.48327 505.2811 51.45826 504.306C 51.35825 500.0055 51.43326 491.6419 54.69617 489.3166C 54.69617 489.4666 54.69617 489.6417 54.70867 489.8042C 54.74618 491.0418 55.24624 492.0045 56.10884 492.542L56.10884 492.542L56.07135 492.5295zM56.07135 492.5295C 55.62129 492.2295 55.20874 491.7919 54.97121 491.2043C 54.84619 490.9168 54.77118 490.5918 54.73368 490.2667C 54.69617 489.9417 54.69617 489.9417 54.69617 489.7792C 54.69617 489.7792 54.33363 489.5291 54.33363 489.5291C 54.00859 489.8167 53.70855 490.1667 53.45852 490.5543C 51.83332 493.1546 51.40826 496.9801 51.15823 500.2055C 50.98321 502.5808 50.97071 504.9936 51.03322 507.3689C 51.05822 509.0566 51.04572 510.7693 51.03322 512.4445C 51.02071 513.8072 50.98321 515.1824 51.03322 516.545C 51.09573 518.2578 51.27075 519.9579 51.44577 521.6457L51.44577 521.6457L51.49577 522.1458L51.49577 522.1458L51.52078 522.3958C 51.62079 523.2333 51.85832 524.0209 52.20836 524.7335C 52.68342 525.6962 53.47102 526.4338 54.34613 526.6463C 54.60867 526.7213 54.9087 526.7338 55.18373 526.7588C 74.9237 527.959 72.97346 527.1589 92.75093 526.9963C 98.28912 526.8338 103.1772 524.621 107.5153 520.133C 109.6155 518.0327 111.7783 515.7449 112.9535 512.5695C 114.9662 507.1814 111.0907 503.4184 108.1779 500.443C 107.1402 499.3804 106.0901 498.3303 104.965 497.4301C 103.3773 496.1425 101.652 495.1299 99.85181 494.4798C 96.78893 493.3546 93.53853 493.2671 90.37563 493.2921C 83.19974 493.2921 69.56053 493.8172 62.27212 493.6422C 60.69692 493.5671 59.12173 493.4796 57.57153 493.1046C 57.05897 492.9796 56.54641 492.8171 56.07135 492.5295z" stroke="none" fill="#000000" fill-rule="nonzero" /></g><g clip-path="url(#23)"><path id="28" transform="matrix(1 0 0 -1 0 842)" d="M53.2367 348.1266C 52.04905 347.3515 51.87403 346.1264 51.84903 345.3763C 51.84903 345.1512 51.6365 345.0262 51.49899 345.1512C 47.636 348.5142 48.4361 361.7158 48.47361 363.0785C 48.68613 371.292 48.23608 369.8168 49.08618 378.0054C 49.08618 378.0054 49.46123 381.6183 52.06155 381.8308C 66.20082 382.9935 75.33946 382.2559 89.51624 382.0934C 94.8419 382.0309 99.47998 379.9931 103.1304 376.5677C 106.0808 373.8048 109.3562 370.4544 110.1313 366.5539C 111.0064 362.1534 107.4435 358.8405 104.4306 355.7776C 99.86752 351.127 95.95454 349.3768 88.81615 349.3893C 80.50261 349.4143 77.2522 349.3893 68.92616 349.3518C 63.55049 349.3393 55.48698 349.5893 53.2242 348.1141L53.2242 348.1141L53.2367 348.1266z" stroke="none" fill="#8EDFD2" fill-rule="nonzero" /><g><g clip-path="url(#24)"><path id="29" transform="matrix(1 0 0 -1 0 842)" d="M53.62425 362.5534C 53.81178 365.4288 53.74927 368.3666 54.0368 371.2295C 54.19932 372.8672 54.64938 374.5299 55.5995 375.6175C 57.1997 377.4303 59.77502 377.1927 61.77527 377.2677C 64.48811 377.3678 67.18845 377.2302 69.90128 377.2302C 78.73988 377.2302 65.33821 377.4178 74.17682 377.3177C 79.03992 377.2552 84.07805 377.3553 88.89116 376.3676C 91.57899 375.8051 94.22932 374.9174 96.72963 373.5173C 99.34246 372.0421 101.3677 369.7293 103.7805 367.8791C 104.9307 367.004 105.7683 368.1166 105.4682 369.6793C 105.1432 371.417 102.9804 372.8422 101.7928 373.8923C 99.88004 375.58 97.95479 377.3553 95.692 378.4679C 92.30408 380.1306 88.59113 379.9931 85.02818 380.0556C 81.2402 380.1181 77.46473 380.4056 73.68926 380.4306C 67.83853 380.4681 61.9753 380.4681 56.11206 380.4306C 51.91154 380.4056 69.96379 380.3556 65.76327 380.2681C 63.65051 380.2306 61.52524 380.1806 59.41248 380.1306C 56.3746 380.0556 51.69901 379.7805 50.91142 374.8674C 50.54887 372.5797 50.49886 370.2419 50.49886 367.9041C 50.49886 365.7788 50.34884 363.5285 50.68639 361.4283C 51.06143 359.103 53.06168 359.8156 53.51174 361.6658C 53.58675 361.9533 53.62425 362.2534 53.63675 362.5659L53.63675 362.5659L53.62425 362.5534z" stroke="none" fill="#FFFFFF" fill-rule="nonzero" fill-opacity="0.09803922" /></g></g><path id="30" transform="matrix(1 0 0 -1 0 842)" d="M53.2367 348.1266C 53.71176 348.4267 54.22433 348.5767 54.73689 348.7142C 55.77452 348.9642 56.81215 349.0893 57.86228 349.1893C 61.43773 349.4893 65.2757 349.4768 68.87616 349.5518C 74.66438 349.5393 78.01479 349.9144 81.2652 349.9019C 82.61537 349.9019 88.21607 349.9019 89.50373 349.9019C 90.40384 349.9144 91.32896 349.9518 92.22906 350.0519C 96.99216 350.5019 100.5051 352.3397 104.2431 356.2026C 105.6557 357.6528 107.1434 359.0655 108.3436 360.8032C 109.5062 362.4909 110.2938 364.5537 109.6813 366.829C 109.1187 369.0168 107.8935 370.767 106.6059 372.3422C 105.8433 373.2423 105.0432 374.0924 104.2181 374.905C 103.393 375.7051 102.5554 376.5177 101.6803 377.2178C 98.60487 379.6931 95.06693 381.0807 91.46648 381.4558C 90.70387 381.5433 89.90378 381.5683 89.14118 381.5683C 76.12706 381.7308 84.22807 382.0184 71.27645 381.9308C 64.86315 381.8683 58.44985 381.7933 52.04905 381.3058C 51.23645 381.2308 50.51136 380.6807 50.0613 379.7806C 49.77377 379.218 49.57374 378.5429 49.49873 377.8679L49.49873 377.8679L49.47373 377.6178L49.47373 377.6178L49.42372 377.1178C 49.2612 375.4425 49.11118 373.7548 49.01117 372.0921C 48.93616 370.942 48.93616 369.2293 48.91116 368.0541C 48.88615 366.3414 48.83615 364.6537 48.76114 362.941C 48.71113 361.9659 48.64862 360.8782 48.62362 359.9031C 48.52361 355.6026 48.59862 347.239 51.86153 344.9137C 51.86153 345.0638 51.86153 345.2388 51.87403 345.4013C 51.91153 346.6389 52.41159 347.6016 53.2742 348.1391L53.2742 348.1391L53.2367 348.1266zM53.2367 348.1266C 52.78664 347.8266 52.37409 347.389 52.13657 346.8015C 52.01155 346.5139 51.93654 346.1889 51.89904 345.8638C 51.86153 345.5388 51.86153 345.5388 51.86153 345.3763C 51.86153 345.3763 51.49899 345.1263 51.49899 345.1263C 51.17394 345.4138 50.87391 345.7638 50.62387 346.1514C 48.99867 348.7517 48.57362 352.5772 48.32359 355.8026C 48.14857 358.1779 48.13607 360.5907 48.19857 362.966C 48.22358 364.6537 48.21107 366.3664 48.19857 368.0416C 48.18607 369.4043 48.14857 370.7794 48.19857 372.1421C 48.26108 373.8549 48.4361 375.5551 48.61113 377.2428L48.61113 377.2428L48.66113 377.7428L48.66113 377.7428L48.68613 377.9929C 48.78614 378.8305 49.02367 379.6181 49.37372 380.3307C 49.84878 381.2933 50.63638 382.0309 51.51149 382.2434C 51.77402 382.3184 52.07406 382.3309 52.34909 382.3559C 72.08906 383.5561 70.13881 382.756 89.91628 382.5934C 95.45448 382.4309 100.3426 380.2181 104.6806 375.7301C 106.7809 373.6298 108.9437 371.342 110.1188 368.1666C 112.1316 362.7785 108.2561 359.0155 105.3432 356.0401C 104.3056 354.9775 103.2554 353.9274 102.1303 353.0273C 100.5426 351.7396 98.8174 350.727 97.01717 350.0769C 93.95428 348.9517 90.70388 348.8642 87.54099 348.8892C 80.3651 348.8892 66.72589 349.4143 59.43748 349.2393C 57.86228 349.1642 56.28708 349.0768 54.73689 348.7017C 54.22433 348.5767 53.71176 348.4142 53.2367 348.1266z" stroke="none" fill="#000000" fill-rule="nonzero" /></g><g clip-path="url(#25)"><path id="31" transform="matrix(1 0 0 -1 0 842)" d="M56.07135 183.0791C 54.8837 182.304 54.70868 181.0789 54.68367 180.3288C 54.68367 180.1037 54.47115 179.9787 54.33363 180.1037C 50.47065 183.4667 51.27075 196.6683 51.30825 198.031C 51.52078 206.2445 51.07072 204.7693 51.92083 212.9579C 51.92083 212.9579 52.29588 216.5708 54.8962 216.7833C 69.03546 217.946 78.1741 217.2084 92.35088 217.0459C 97.67654 216.9834 102.3146 214.9456 105.9651 211.5202C 108.9155 208.7573 112.1909 205.4069 112.966 201.5064C 113.8411 197.1059 110.2781 193.793 107.2652 190.7301C 102.7022 186.0795 98.78918 184.3293 91.65079 184.3418C 83.33725 184.3668 80.08685 184.3418 71.7608 184.3043C 66.38513 184.2918 58.32162 184.5418 56.05884 183.0666L56.05884 183.0666L56.07135 183.0791z" stroke="none" fill="#8EDFD2" fill-rule="nonzero" /><g><g clip-path="url(#26)"><path id="32" transform="matrix(1 0 0 -1 0 842)" d="M56.45889 197.5059C 56.64642 200.3813 56.58391 203.3191 56.87144 206.182C 57.03397 207.8197 57.48402 209.4824 58.43414 210.57C 60.03434 212.3828 62.60966 212.1452 64.60991 212.2202C 67.32275 212.3203 70.02309 212.1827 72.73593 212.1827C 81.57453 212.1827 68.17286 212.3703 77.01146 212.2702C 81.87457 212.2077 86.9127 212.3078 91.7258 211.3201C 94.41364 210.7576 97.06396 209.8699 99.56428 208.4698C 102.1771 206.9946 104.2024 204.6818 106.6152 202.8316C 107.7653 201.9565 108.6029 203.0691 108.3029 204.6318C 107.9778 206.3695 105.8151 207.7947 104.6274 208.8448C 102.7147 210.5325 100.7894 212.3078 98.52665 213.4204C 95.13873 215.0831 91.42577 214.9456 87.86282 215.0081C 84.07484 215.0706 80.29938 215.3581 76.5239 215.3831C 70.67317 215.4206 64.80994 215.4206 58.94671 215.3831C 54.74619 215.3581 72.79844 215.3081 68.59792 215.2206C 66.48515 215.1831 64.35989 215.1331 62.24712 215.0831C 59.20924 215.0081 54.53366 214.7331 53.74606 209.8199C 53.38351 207.5322 53.33351 205.1944 53.33351 202.8566C 53.33351 200.7313 53.18349 198.481 53.52103 196.3808C 53.89608 194.0555 55.89633 194.7681 56.34638 196.6183C 56.42139 196.9058 56.4589 197.2059 56.4714 197.5184L56.4714 197.5184L56.45889 197.5059z" stroke="none" fill="#FFFFFF" fill-rule="nonzero" fill-opacity="0.09803922" /></g></g><path id="33" transform="matrix(1 0 0 -1 0 842)" d="M56.07135 183.0791C 56.54641 183.3792 57.05897 183.5292 57.57153 183.6667C 58.60916 183.9167 59.64679 184.0417 60.69692 184.1418C 64.27237 184.4418 68.11035 184.4293 71.7108 184.5043C 77.49902 184.4918 80.84944 184.8668 84.09985 184.8543C 85.45001 184.8543 91.05072 184.8543 92.33838 184.8543C 93.23849 184.8668 94.1636 184.9043 95.06371 185.0043C 99.82681 185.4544 103.3397 187.2921 107.0777 191.1551C 108.4904 192.6053 109.9781 194.018 111.1782 195.7557C 112.3409 197.4434 113.1285 199.5062 112.5159 201.7814C 111.9533 203.9692 110.7282 205.7195 109.4405 207.2946C 108.6779 208.1947 107.8778 209.0449 107.0527 209.8575C 106.2276 210.6576 105.39 211.4702 104.5149 212.1703C 101.4395 214.6456 97.90157 216.0332 94.30112 216.4083C 93.53852 216.4958 92.73842 216.5208 91.97583 216.5208C 78.9617 216.6833 87.06271 216.9709 74.1111 216.8833C 67.69779 216.8208 61.28449 216.7458 54.88369 216.2583C 54.07109 216.1833 53.346 215.6332 52.89595 214.7331C 52.60841 214.1705 52.40838 213.4954 52.33337 212.8203L52.33337 212.8203L52.30837 212.5703L52.30837 212.5703L52.25837 212.0702C 52.09584 210.395 51.94583 208.7073 51.84581 207.0446C 51.77081 205.8945 51.77081 204.1817 51.7458 203.0066C 51.7208 201.2939 51.67079 199.6062 51.59578 197.8935C 51.54578 196.9184 51.48327 195.8307 51.45826 194.8556C 51.35825 190.5551 51.43326 182.1915 54.69617 179.8662C 54.69617 180.0162 54.69617 180.1913 54.70867 180.3538C 54.74618 181.5914 55.24624 182.554 56.10884 183.0916L56.10884 183.0916L56.07135 183.0791zM56.07135 183.0791C 55.62129 182.7791 55.20874 182.3415 54.97121 181.754C 54.84619 181.4664 54.77118 181.1414 54.73368 180.8163C 54.69617 180.4913 54.69617 180.4913 54.69617 180.3288C 54.69617 180.3288 54.33363 180.0787 54.33363 180.0787C 54.00859 180.3663 53.70855 180.7163 53.45852 181.1039C 51.83332 183.7042 51.40826 187.5297 51.15823 190.7551C 50.98321 193.1304 50.97071 195.5432 51.03322 197.9185C 51.05822 199.6062 51.04572 201.3189 51.03322 202.9941C 51.02071 204.3568 50.98321 205.7319 51.03322 207.0946C 51.09573 208.8073 51.27075 210.5075 51.44577 212.1953L51.44577 212.1953L51.49577 212.6953L51.49577 212.6953L51.52078 212.9453C 51.62079 213.783 51.85832 214.5706 52.20836 215.2831C 52.68342 216.2458 53.47102 216.9834 54.34613 217.1959C 54.60867 217.2709 54.9087 217.2834 55.18373 217.3084C 74.9237 218.5085 72.97346 217.7085 92.75093 217.5459C 98.28912 217.3834 103.1772 215.1706 107.5153 210.6826C 109.6155 208.5823 111.7783 206.2945 112.9535 203.1191C 114.9662 197.7309 111.0907 193.968 108.1779 190.9926C 107.1402 189.93 106.0901 188.8798 104.965 187.9797C 103.3773 186.6921 101.652 185.6794 99.85181 185.0294C 96.78893 183.9042 93.53853 183.8167 90.37563 183.8417C 83.19974 183.8417 69.56053 184.3668 62.27212 184.1918C 60.69692 184.1167 59.12173 184.0292 57.57153 183.6542C 57.05897 183.5292 56.54641 183.3667 56.07135 183.0791z" stroke="none" fill="#000000" fill-rule="nonzero" /></g><g clip-path="url(#27)"><path id="34" transform="matrix(1 0 0 -1 0 842)" d="M18.41104 748.9926C 18.39883 749.7917 18.96873 750.6727 19.53033 751.2198L19.53033 751.2198L57.17563 787.8947C 57.74913 788.4534 58.65456 788.6957 59.41057 788.687C 60.16656 788.6782 61.0957 788.3763 61.63864 787.8774L61.63864 787.8774L100.1225 752.5128C 100.6881 751.9929 101.0487 751.1142 101.0308 750.3305C 101.0163 749.6962 100.5361 748.7949 100.1112 748.3385L100.1112 748.3385L62.26331 707.6995C 61.7281 707.1248 60.80159 706.543 60.03165 706.5187C 59.31963 706.4961 58.38279 707.0119 57.87628 707.5315L57.87628 707.5315L19.52754 746.8688C 19.03803 747.3709 18.42323 748.2783 18.41231 748.9923L18.41231 748.9923L18.41104 748.9926z" stroke="none" fill="#E3D818" fill-rule="evenodd" /><path id="35" transform="matrix(1 0 0 -1 0 842)" d="M18.41104 748.9926C 18.39883 749.7917 18.96873 750.6727 19.53033 751.2198L19.53033 751.2198L57.17563 787.8947C 57.74913 788.4534 58.65456 788.6957 59.41057 788.687C 60.16656 788.6782 61.0957 788.3763 61.63864 787.8774L61.63864 787.8774L100.1225 752.5128C 100.6881 751.9929 101.0487 751.1142 101.0308 750.3305C 101.0163 749.6962 100.5361 748.7949 100.1112 748.3385L100.1112 748.3385L62.26331 707.6995C 61.7281 707.1248 60.80159 706.543 60.03165 706.5187C 59.31963 706.4961 58.38279 707.0119 57.87628 707.5315L57.87628 707.5315L19.52754 746.8688C 19.03803 747.3709 18.42323 748.2783 18.41231 748.9923L18.41231 748.9923L18.41104 748.9926z" stroke="#000000" stroke-width="3.334306" fill="none" /><path id="36" transform="matrix(1 0 0 -1 0 842)" d="M25.72119 751.0027L43.02385 751.2502" stroke="#000000" stroke-width="0.5908897" stroke-linecap="round" fill="none" /><path id="37" transform="matrix(1 0 0 -1 0 842)" d="M23.62494 747.1841L33.60873 747.2548" stroke="#000000" stroke-width="0.5908897" stroke-linecap="round" fill="none" /><path id="38" transform="matrix(1 0 0 -1 0 842)" d="M36.23621 747.3604L39.07867 747.3958" stroke="#000000" stroke-width="0.5908897" stroke-linecap="round" fill="none" /><path id="39" transform="matrix(1 0 0 -1 0 842)" d="M28.24232 742.2007L36.27195 742.4128" stroke="#000000" stroke-width="0.5908897" stroke-linecap="round" fill="none" /><path id="40" transform="matrix(1 0 0 -1 0 842)" d="M31.7961 739.6195L36.55698 739.9023" stroke="#000000" stroke-width="0.5908897" stroke-linecap="round" fill="none" /><path id="41" transform="matrix(1 0 0 -1 0 842)" d="M64.22469 765.4627L64.17445 761.2131L64.17445 761.2131L70.63091 755.2139L70.63091 755.2139L70.75653 750.9395" stroke="#000000" stroke-width="1.547568" stroke-linecap="round" fill="none" /><path id="42" transform="matrix(1 0 0 -1 0 842)" d="M67.39468 756.5236C 67.39467 756.2584 67.3465 756.0033 67.25018 755.7583C 67.15384 755.5132 67.01669 755.297 66.83871 755.1095C 66.66071 754.922 66.45544 754.7775 66.22289 754.676C 65.99034 754.5745 65.74821 754.5238 65.49651 754.5238C 65.2448 754.5238 65.00266 754.5745 64.7701 754.676C 64.53755 754.7775 64.33229 754.922 64.1543 755.1095C 63.97631 755.297 63.83915 755.5133 63.74282 755.7583C 63.6465 756.0033 63.59834 756.2584 63.59834 756.5236C 63.59834 756.7888 63.6465 757.0438 63.74282 757.2888C 63.83915 757.5338 63.97631 757.7501 64.1543 757.9376C 64.33228 758.1251 64.53754 758.2696 64.7701 758.3711C 65.00266 758.4725 65.2448 758.5233 65.49651 758.5233C 65.74821 758.5233 65.99034 758.4725 66.22289 758.3711C 66.45544 758.2696 66.66071 758.1251 66.83871 757.9376C 67.01669 757.7501 67.15384 757.5338 67.25018 757.2888C 67.3465 757.0438 67.39467 756.7888 67.39468 756.5236z" stroke="none" fill="#000000" fill-rule="nonzero" /><path id="43" transform="matrix(1 0 0 -1 0 842)" d="M65.93827 759.4855L71.19662 762.0485L71.19662 762.0485L72.99974 761.6154L72.99974 761.6154L73.72333 759.2943L73.72333 759.2943L69.1715 756.5868L69.1715 756.5868L65.93827 759.4855z" stroke="none" fill="#000000" fill-rule="evenodd" /><path id="44" transform="matrix(1 0 0 -1 0 842)" d="M71.76557 761.3249L74.46577 765.3902L74.46577 765.3902L78.97792 765.3548" stroke="#000000" stroke-width="1.772669" stroke-linecap="round" fill="none" /><path id="45" transform="matrix(1 0 0 -1 0 842)" d="M72.11729 760.149L79.26424 760.2149L79.26424 760.2149L77.92281 756.205" stroke="#000000" stroke-width="1.772669" stroke-linecap="round" fill="none" /><path id="46" transform="matrix(1 0 0 -1 0 842)" d="M47.08916 739.1407C 47.08916 738.7832 47.02039 738.4393 46.88287 738.1089C 46.74535 737.7786 46.54954 737.4871 46.29543 737.2342C 46.04132 736.9814 45.74827 736.7866 45.41628 736.6497C 45.08427 736.5129 44.73859 736.4445 44.37923 736.4445C 44.01987 736.4445 43.67419 736.5129 43.34217 736.6497C 43.01018 736.7866 42.71712 736.9814 42.46302 737.2342C 42.20891 737.4871 42.0131 737.7786 41.87558 738.1089C 41.73806 738.4393 41.6693 738.7832 41.6693 739.1407C 41.6693 739.4984 41.73806 739.8423 41.87558 740.1726C 42.0131 740.5029 42.20891 740.7946 42.46302 741.0474C 42.71712 741.3002 43.01018 741.495 43.34217 741.6318C 43.67419 741.7687 44.01987 741.8371 44.37923 741.8371C 44.73859 741.8371 45.08427 741.7687 45.41628 741.6318C 45.74828 741.495 46.04133 741.3002 46.29545 741.0474C 46.54954 740.7946 46.74535 740.5029 46.88287 740.1726C 47.02039 739.8423 47.08916 739.4984 47.08916 739.1407z" stroke="none" fill="#000000" fill-rule="nonzero" /><path id="47" transform="matrix(1 0 0 -1 0 842)" d="M47.08916 739.1407C 47.08916 738.7832 47.02039 738.4393 46.88287 738.1089C 46.74535 737.7786 46.54954 737.4871 46.29543 737.2342C 46.04132 736.9814 45.74827 736.7866 45.41628 736.6497C 45.08427 736.5129 44.73859 736.4445 44.37923 736.4445C 44.01987 736.4445 43.67419 736.5129 43.34217 736.6497C 43.01018 736.7866 42.71712 736.9814 42.46302 737.2342C 42.20891 737.4871 42.0131 737.7786 41.87558 738.1089C 41.73806 738.4393 41.6693 738.7832 41.6693 739.1407C 41.6693 739.4984 41.73806 739.8423 41.87558 740.1726C 42.0131 740.5029 42.20891 740.7946 42.46302 741.0474C 42.71712 741.3002 43.01018 741.495 43.34217 741.6318C 43.67419 741.7687 44.01987 741.8371 44.37923 741.8371C 44.73859 741.8371 45.08427 741.7687 45.41628 741.6318C 45.74828 741.495 46.04133 741.3002 46.29545 741.0474C 46.54954 740.7946 46.74535 740.5029 46.88287 740.1726C 47.02039 739.8423 47.08916 739.4984 47.08916 739.1407z" stroke="#000000" stroke-width="1.156174" stroke-linecap="round" fill="none" /><path id="48" transform="matrix(1 0 0 -1 0 842)" d="M76.583 739.6391C 76.58299 739.2816 76.51424 738.9376 76.37672 738.6073C 76.23918 738.277 76.04337 737.9854 75.78928 737.7325C 75.53516 737.4797 75.24211 737.2849 74.9101 737.1481C 74.5781 737.0112 74.23243 736.9428 73.87307 736.9428C 73.51371 736.9428 73.16801 737.0112 72.83601 737.1481C 72.50401 737.2849 72.21095 737.4797 71.95685 737.7325C 71.70274 737.9854 71.50693 738.277 71.36941 738.6073C 71.23188 738.9376 71.16312 739.2816 71.16314 739.6391C 71.16312 739.9967 71.23188 740.3406 71.3694 740.671C 71.50692 741.0013 71.70274 741.2928 71.95685 741.5457C 72.21095 741.7985 72.50401 741.9933 72.83601 742.1302C 73.16803 742.267 73.51371 742.3354 73.87307 742.3354C 74.23243 742.3354 74.5781 742.267 74.9101 742.1302C 75.24211 741.9933 75.53516 741.7985 75.78928 741.5457C 76.04337 741.2928 76.23918 741.0013 76.37671 740.671C 76.51423 740.3406 76.58299 739.9967 76.583 739.6391z" stroke="none" fill="#000000" fill-rule="nonzero" /><path id="49" transform="matrix(1 0 0 -1 0 842)" d="M76.583 739.6391C 76.58299 739.2816 76.51424 738.9376 76.37672 738.6073C 76.23918 738.277 76.04337 737.9854 75.78928 737.7325C 75.53516 737.4797 75.24211 737.2849 74.9101 737.1481C 74.5781 737.0112 74.23243 736.9428 73.87307 736.9428C 73.51371 736.9428 73.16801 737.0112 72.83601 737.1481C 72.50401 737.2849 72.21095 737.4797 71.95685 737.7325C 71.70274 737.9854 71.50693 738.277 71.36941 738.6073C 71.23188 738.9376 71.16312 739.2816 71.16314 739.6391C 71.16312 739.9967 71.23188 740.3406 71.3694 740.671C 71.50692 741.0013 71.70274 741.2928 71.95685 741.5457C 72.21095 741.7985 72.50401 741.9933 72.83601 742.1302C 73.16803 742.267 73.51371 742.3354 73.87307 742.3354C 74.23243 742.3354 74.5781 742.267 74.9101 742.1302C 75.24211 741.9933 75.53516 741.7985 75.78928 741.5457C 76.04337 741.2928 76.23918 741.0013 76.37671 740.671C 76.51423 740.3406 76.58299 739.9967 76.583 739.6391z" stroke="#000000" stroke-width="1.156174" stroke-linecap="round" fill="none" /><path id="50" transform="matrix(1 0 0 -1 0 842)" d="M39.93349 739.194L38.08598 739.2293L38.08598 739.2293L36.98459 740.5373L36.98459 740.5373L37.07898 742.2452L37.07898 742.2452L38.05046 742.2341C 38.05046 742.2341 37.56248 744.1956 37.87283 745.0267C 38.25704 746.0557 44.41032 751.6727 44.41032 751.6727C 44.41032 751.6727 46.19908 752.099 47.11051 752.203C 49.92416 752.524 52.76984 752.4663 55.60188 752.4858C 58.01826 752.5025 62.84985 752.3444 62.84985 752.3444L62.84985 752.3444L70.23991 747.5366C 70.23991 747.5366 73.51935 747.5547 75.14289 747.3599C 76.59563 747.1857 78.09171 747.0375 79.44203 746.4761C 79.79662 746.3287 80.13987 746.1201 80.40133 745.8398C 81.12289 745.0664 81.96459 743.0825 81.96459 743.0825C 81.96459 743.0825 82.34836 742.2053 82.35542 741.7393C 82.36186 741.3134 82.22303 740.8848 82.03567 740.502C 81.75464 739.9277 80.8632 738.9819 80.8632 738.9819L80.8632 738.9819L78.58934 739.1233C 78.58934 739.1233 78.27515 740.1661 78.09193 740.6787C 77.95119 741.0725 77.88342 741.5119 77.63004 741.8453C 77.06425 742.5897 76.24654 743.1579 75.3917 743.5421C 75.00647 743.7152 74.26941 743.7595 73.84672 743.7645C 73.1614 743.7726 72.76978 743.6617 72.12304 743.436C 71.5879 743.2493 71.02427 743.0294 70.63081 742.6229C 70.1715 742.1486 69.91505 741.4914 69.74259 740.8554C 69.54785 740.1372 69.60048 738.6284 69.60048 738.6284L69.60048 738.6284L48.99362 738.4869C 48.99362 738.4869 48.72349 740.7773 48.1054 741.7037C 47.71365 742.291 47.07883 742.7164 46.43555 743.0117C 45.83236 743.2885 45.14569 743.4055 44.48145 743.4005C 43.86358 743.3959 43.23456 743.2603 42.66947 743.0117C 42.11044 742.7657 41.57872 742.4098 41.17725 741.9512C 40.80847 741.5298 40.62175 740.9778 40.39561 740.4664C 40.21305 740.0536 39.93373 739.1938 39.93373 739.1938L39.93373 739.1938L39.93349 739.194z" stroke="none" fill="#000000" fill-rule="evenodd" /><path id="51" transform="matrix(1 0 0 -1 0 842)" d="M39.93349 739.194L38.08598 739.2293L38.08598 739.2293L36.98459 740.5373L36.98459 740.5373L37.07898 742.2452L37.07898 742.2452L38.05046 742.2341C 38.05046 742.2341 37.56248 744.1956 37.87283 745.0267C 38.25704 746.0557 44.41032 751.6727 44.41032 751.6727C 44.41032 751.6727 46.19908 752.099 47.11051 752.203C 49.92416 752.524 52.76984 752.4663 55.60188 752.4858C 58.01826 752.5025 62.84985 752.3444 62.84985 752.3444L62.84985 752.3444L70.23991 747.5366C 70.23991 747.5366 73.51935 747.5547 75.14289 747.3599C 76.59563 747.1857 78.09171 747.0375 79.44203 746.4761C 79.79662 746.3287 80.13987 746.1201 80.40133 745.8398C 81.12289 745.0664 81.96459 743.0825 81.96459 743.0825C 81.96459 743.0825 82.34836 742.2053 82.35542 741.7393C 82.36186 741.3134 82.22303 740.8848 82.03567 740.502C 81.75464 739.9277 80.8632 738.9819 80.8632 738.9819L80.8632 738.9819L78.58934 739.1233C 78.58934 739.1233 78.27515 740.1661 78.09193 740.6787C 77.95119 741.0725 77.88342 741.5119 77.63004 741.8453C 77.06425 742.5897 76.24654 743.1579 75.3917 743.5421C 75.00647 743.7152 74.26941 743.7595 73.84672 743.7645C 73.1614 743.7726 72.76978 743.6617 72.12304 743.436C 71.5879 743.2493 71.02427 743.0294 70.63081 742.6229C 70.1715 742.1486 69.91505 741.4914 69.74259 740.8554C 69.54785 740.1372 69.60048 738.6284 69.60048 738.6284L69.60048 738.6284L48.99362 738.4869C 48.99362 738.4869 48.72349 740.7773 48.1054 741.7037C 47.71365 742.291 47.07883 742.7164 46.43555 743.0117C 45.83236 743.2885 45.14569 743.4055 44.48145 743.4005C 43.86358 743.3959 43.23456 743.2603 42.66947 743.0117C 42.11044 742.7657 41.57872 742.4098 41.17725 741.9512C 40.80847 741.5298 40.62175 740.9778 40.39561 740.4664C 40.21305 740.0536 39.93373 739.1938 39.93373 739.1938L39.93373 739.1938L39.93349 739.194z" stroke="#000000" stroke-width="0.7034402" fill="none" /><path id="52" transform="matrix(1 0 0 -1 0 842)" d="M44.95324 746.5737C 44.85851 746.7665 44.82903 747.0435 44.94449 747.2236C 45.68588 748.3796 46.90464 749.4883 47.7757 750.2125C 48.04247 750.4342 48.46586 750.5828 48.80666 750.5968L48.80666 750.5968L54.83683 750.7445L54.83683 750.7445L54.90197 746.007C 54.90197 746.007 46.52907 745.8552 45.50064 745.9441C 45.29058 745.9623 45.04937 746.3778 44.9532 746.5735L44.9532 746.5735L44.95324 746.5737z" stroke="none" fill="#E3D818" fill-rule="evenodd" /><path id="53" transform="matrix(1 0 0 -1 0 842)" d="M67.54211 746.2098C 68.16868 746.3627 67.83235 746.9401 67.70048 747.1166C 66.85373 748.2499 65.34635 749.2902 64.01811 750.1385C 63.3605 750.5584 62.90398 750.6524 62.3036 750.748C 61.86475 750.8179 57.48616 750.834 57.48616 750.834L57.48616 750.834L57.5545 745.9977C 57.5545 745.9977 66.8779 745.955 67.54222 746.21L67.54222 746.21L67.54211 746.2098z" stroke="none" fill="#E3D818" fill-rule="evenodd" /></g><g clip-path="url(#28)"><path id="90" transform="matrix(1 0 0 -1 0 842)" d="M135.1479 615.2466C 135.1479 614.9483 135.0908 614.6613 134.9767 614.3856C 134.8625 614.1099 134.6999 613.8666 134.4889 613.6556C 134.2779 613.4447 134.0346 613.2821 133.759 613.1679C 133.4833 613.0537 133.1963 612.9966 132.8979 612.9966C 132.5995 612.9966 132.3125 613.0537 132.0369 613.1679C 131.7612 613.2821 131.5179 613.4447 131.3069 613.6556C 131.0959 613.8666 130.9334 614.1099 130.8192 614.3856C 130.705 614.6613 130.6479 614.9483 130.6479 615.2466C 130.6479 615.545 130.705 615.832 130.8192 616.1077C 130.9334 616.3834 131.0959 616.6266 131.3069 616.8376C 131.5179 617.0486 131.7612 617.2112 132.0369 617.3254C 132.3125 617.4396 132.5995 617.4966 132.8979 617.4966C 133.1963 617.4966 133.4833 617.4396 133.759 617.3254C 134.0346 617.2112 134.2779 617.0486 134.4889 616.8376C 134.6999 616.6266 134.8625 616.3834 134.9767 616.1077C 135.0908 615.832 135.1479 615.545 135.1479 615.2466z" stroke="none" fill="#242424" fill-rule="nonzero" /><path id="340" transform="matrix(1 0 0 -1 0 842)" d="M387.6894 615.2466C 387.6894 614.9483 387.6323 614.6613 387.5181 614.3856C 387.4039 614.1099 387.2413 613.8666 387.0303 613.6556C 386.8194 613.4447 386.576 613.2821 386.3004 613.1679C 386.0247 613.0537 385.7377 612.9966 385.4394 612.9966C 385.141 612.9966 384.854 613.0537 384.5783 613.1679C 384.3027 613.2821 384.0594 613.4447 383.8484 613.6556C 383.6374 613.8666 383.4748 614.1099 383.3606 614.3856C 383.2465 614.6613 383.1894 614.9483 383.1894 615.2466C 383.1894 615.545 383.2465 615.832 383.3606 616.1077C 383.4748 616.3834 383.6374 616.6266 383.8484 616.8376C 384.0594 617.0486 384.3027 617.2112 384.5783 617.3254C 384.854 617.4396 385.141 617.4966 385.4394 617.4966C 385.7377 617.4966 386.0247 617.4396 386.3004 617.3254C 386.576 617.2112 386.8194 617.0486 387.0303 616.8376C 387.2413 616.6266 387.4039 616.3834 387.5181 616.1077C 387.6323 615.832 387.6894 615.545 387.6894 615.2466z" stroke="none" fill="#242424" fill-rule="nonzero" /><path id="440" transform="matrix(1 0 0 -1 0 842)" d="M127.7607 477.1888C 127.7607 476.8904 127.7036 476.6034 127.5895 476.3277C 127.4753 476.0521 127.3127 475.8087 127.1017 475.5977C 126.8907 475.3868 126.6474 475.2242 126.3718 475.11C 126.0961 474.9958 125.8091 474.9388 125.5107 474.9388C 125.2124 474.9388 124.9254 474.9958 124.6497 475.11C 124.374 475.2242 124.1307 475.3868 123.9197 475.5977C 123.7088 475.8087 123.5462 476.0521 123.432 476.3277C 123.3178 476.6034 123.2607 476.8904 123.2607 477.1888C 123.2607 477.4871 123.3178 477.7741 123.432 478.0498C 123.5462 478.3254 123.7088 478.5688 123.9197 478.7798C 124.1307 478.9907 124.374 479.1533 124.6497 479.2675C 124.9254 479.3817 125.2124 479.4388 125.5107 479.4388C 125.8091 479.4388 126.0961 479.3817 126.3718 479.2675C 126.6474 479.1533 126.8907 478.9907 127.1017 478.7798C 127.3127 478.5688 127.4753 478.3254 127.5895 478.0498C 127.7036 477.7741 127.7607 477.4871 127.7607 477.1888z" stroke="none" fill="#242424" fill-rule="nonzero" /><path id="558" transform="matrix(1 0 0 -1 0 842)" d="M377.4675 478.7941C 377.4675 478.4957 377.4104 478.2087 377.2963 477.933C 377.1821 477.6574 377.0195 477.4141 376.8085 477.2031C 376.5975 476.9921 376.3542 476.8295 376.0786 476.7153C 375.8029 476.6012 375.5159 476.5441 375.2175 476.5441C 374.9192 476.5441 374.6321 476.6012 374.3565 476.7153C 374.0808 476.8295 373.8375 476.9921 373.6265 477.2031C 373.4156 477.4141 373.253 477.6574 373.1388 477.933C 373.0246 478.2087 372.9675 478.4957 372.9675 478.7941C 372.9675 479.0924 373.0246 479.3795 373.1388 479.6551C 373.253 479.9308 373.4156 480.1741 373.6265 480.3851C 373.8375 480.596 374.0808 480.7586 374.3565 480.8728C 374.6321 480.987 374.9192 481.0441 375.2175 481.0441C 375.5159 481.0441 375.8029 480.987 376.0786 480.8728C 376.3542 480.7586 376.5975 480.596 376.8085 480.3851C 377.0195 480.1741 377.1821 479.9308 377.2963 479.6551C 377.4104 479.3795 377.4675 479.0924 377.4675 478.7941z" stroke="none" fill="#242424" fill-rule="nonzero" /><path id="646" transform="matrix(1 0 0 -1 0 842)" d="M135.1479 339.1574C 135.1479 338.8591 135.0908 338.5721 134.9767 338.2964C 134.8625 338.0208 134.6999 337.7774 134.4889 337.5664C 134.2779 337.3555 134.0346 337.1929 133.759 337.0787C 133.4833 336.9645 133.1963 336.9074 132.8979 336.9074C 132.5995 336.9074 132.3125 336.9645 132.0369 337.0787C 131.7612 337.1929 131.5179 337.3555 131.3069 337.5664C 131.0959 337.7774 130.9334 338.0208 130.8192 338.2964C 130.705 338.5721 130.6479 338.8591 130.6479 339.1574C 130.6479 339.4558 130.705 339.7428 130.8192 340.0185C 130.9334 340.2941 131.0959 340.5374 131.3069 340.7484C 131.5179 340.9594 131.7612 341.122 132.0369 341.2362C 132.3125 341.3503 132.5995 341.4074 132.8979 341.4074C 133.1963 341.4074 133.4833 341.3503 133.759 341.2362C 134.0346 341.122 134.2779 340.9594 134.4889 340.7484C 134.6999 340.5374 134.8625 340.2941 134.9767 340.0185C 135.0908 339.7428 135.1479 339.4558 135.1479 339.1574z" stroke="none" fill="#242424" fill-rule="nonzero" /><path id="746" transform="matrix(1 0 0 -1 0 842)" d="M380.5039 337.7972C 380.5039 337.4989 380.4468 337.2119 380.3326 336.9362C 380.2184 336.6606 380.0558 336.4172 379.8448 336.2062C 379.6339 335.9953 379.3906 335.8327 379.1149 335.7185C 378.8393 335.6043 378.5522 335.5472 378.2539 335.5472C 377.9555 335.5472 377.6685 335.6043 377.3928 335.7185C 377.1172 335.8327 376.8739 335.9953 376.6629 336.2062C 376.4519 336.4172 376.2893 336.6606 376.1751 336.9362C 376.061 337.2119 376.0039 337.4989 376.0039 337.7972C 376.0039 338.0956 376.061 338.3826 376.1751 338.6583C 376.2893 338.9339 376.4519 339.1772 376.6629 339.3882C 376.8739 339.5992 377.1172 339.7618 377.3928 339.876C 377.6685 339.9901 377.9555 340.0472 378.2539 340.0472C 378.5522 340.0472 378.8393 339.9901 379.1149 339.876C 379.3906 339.7618 379.6339 339.5992 379.8448 339.3882C 380.0558 339.1772 380.2184 338.9339 380.3326 338.6583C 380.4468 338.3826 380.5039 338.0956 380.5039 337.7972z" stroke="none" fill="#242424" fill-rule="nonzero" /><path id="823" transform="matrix(1 0 0 -1 0 842)" d="M387.6894 167.9848C 387.6894 167.6864 387.6323 167.3994 387.5181 167.1237C 387.4039 166.8481 387.2413 166.6048 387.0303 166.3938C 386.8194 166.1828 386.576 166.0202 386.3004 165.906C 386.0247 165.7919 385.7377 165.7348 385.4394 165.7348C 385.141 165.7348 384.854 165.7919 384.5783 165.906C 384.3027 166.0202 384.0594 166.1828 383.8484 166.3938C 383.6374 166.6048 383.4748 166.8481 383.3606 167.1237C 383.2465 167.3994 383.1894 167.6864 383.1894 167.9848C 383.1894 168.2831 383.2465 168.5702 383.3606 168.8458C 383.4748 169.1215 383.6374 169.3648 383.8484 169.5758C 384.0594 169.7867 384.3027 169.9493 384.5783 170.0635C 384.854 170.1777 385.141 170.2348 385.4394 170.2348C 385.7377 170.2348 386.0247 170.1777 386.3004 170.0635C 386.576 169.9493 386.8194 169.7867 387.0303 169.5758C 387.2413 169.3648 387.4039 169.1215 387.5181 168.8458C 387.6323 168.5702 387.6894 168.2831 387.6894 167.9848z" stroke="none" fill="#242424" fill-rule="nonzero" /><path id="926" transform="matrix(1 0 0 -1 0 842)" d="M135.1479 170.9848C 135.1479 170.6864 135.0908 170.3994 134.9767 170.1237C 134.8625 169.8481 134.6999 169.6048 134.4889 169.3938C 134.2779 169.1828 134.0346 169.0202 133.759 168.906C 133.4833 168.7919 133.1963 168.7348 132.8979 168.7348C 132.5995 168.7348 132.3125 168.7919 132.0369 168.906C 131.7612 169.0202 131.5179 169.1828 131.3069 169.3938C 131.0959 169.6048 130.9334 169.8481 130.8192 170.1237C 130.705 170.3994 130.6479 170.6864 130.6479 170.9848C 130.6479 171.2831 130.705 171.5702 130.8192 171.8458C 130.9334 172.1215 131.0959 172.3648 131.3069 172.5758C 131.5179 172.7867 131.7612 172.9493 132.0369 173.0635C 132.3125 173.1777 132.5995 173.2348 132.8979 173.2348C 133.1963 173.2348 133.4833 173.1777 133.759 173.0635C 134.0346 172.9493 134.2779 172.7867 134.4889 172.5758C 134.6999 172.3648 134.8625 172.1215 134.9767 171.8458C 135.0908 171.5702 135.1479 171.2831 135.1479 170.9848z" stroke="none" fill="#242424" fill-rule="nonzero" /></g><g clip-path="url(#29)"><g transform="matrix(0.05374753 0 0 0.0538818 503.015 5.097412)"><g transform="matrix(1 0 0 1 0 0)"><image x="0" y="0" xlink:href="img_02.png" width="1521" height="863" /></g></g></g></g></g></svg>