<svg xmlns="http://www.w3.org/2000/svg" xmlns:xlink="http://www.w3.org/1999/xlink" id="body_1" preserveAspectRatio="xMinYMin meet" viewBox="0 0 793 1123"><defs><clipPath id="1"><path id="" clip-rule="evenodd" transform="matrix(1 0 0 1 0 0)" d="M0 842L0 -0.250061L0 -0.250061L595.5 -0.250061L595.5 -0.250061L595.5 842L595.5 842L0 842z" /></clipPath><clipPath id="2"><path id="" clip-rule="evenodd" transform="matrix(1 0 0 1 0 0)" d="M0 -0.25L595.5 -0.25L595.5 -0.25L595.5 842.0012L595.5 842.0012L0 842.0012z" /></clipPath><clipPath id="3"><path id="" clip-rule="evenodd" transform="matrix(1 0 0 1 0 0)" d="M0 -0.25L595.5 -0.25L595.5 -0.25L595.5 842.0012L595.5 842.0012L0 842.0012z" /></clipPath><clipPath id="4"><path id="" clip-rule="evenodd" transform="matrix(1 0 0 1 0 0)" d="M0 -0.25L595.5 -0.25L595.5 -0.25L595.5 842.0012L595.5 842.0012L0 842.0012z" /></clipPath><clipPath id="5"><path id="" clip-rule="evenodd" transform="matrix(1 0 0 1 0 0)" d="M78.71999 30.71002L522.24 30.71002L522.24 30.71002L522.24 810.95L522.24 810.95L78.71999 810.95z" /></clipPath><clipPath id="6"><path id="" clip-rule="evenodd" transform="matrix(1 0 0 1 0 0)" d="M79.51786 30.75177L522.0178 30.75177L522.0178 30.75177L522.0178 810.7518L522.0178 810.7518L79.51786 810.7518z" /></clipPath><clipPath id="7"><path id="" clip-rule="evenodd" transform="matrix(1 0 0 1 0 0)" d="M0 -0.25L595.5 -0.25L595.5 -0.25L595.5 842.0012L595.5 842.0012L0 842.0012z" /></clipPath><clipPath id="8"><path id="" clip-rule="evenodd" transform="matrix(1 0 0 1 0 0)" d="M0 -0.25L595.5 -0.25L595.5 -0.25L595.5 842.0012L595.5 842.0012L0 842.0012z" /></clipPath><clipPath id="9"><path id="" clip-rule="evenodd" transform="matrix(1 0 0 1 0 0)" d="M329.8248 505.3916L577.3584 505.3916L577.3584 505.3916L577.3584 810.9404L577.3584 810.9404L329.8248 810.9404z" /></clipPath><clipPath id="10"><path id="" clip-rule="evenodd" transform="matrix(1 0 0 1 0 0)" d="M357.5736 505.3916L549.6072 505.3916C 556.968 505.3916 564.0264 508.3148 569.2296 513.518C 574.4352 518.7211 577.3583 525.7796 577.3583 533.1404L577.3583 533.1404L577.3583 782.8868C 577.3583 790.2476 574.4352 797.306 569.2296 802.5092C 564.0264 807.7148 556.968 810.638 549.6072 810.638L549.6072 810.638L357.5736 810.638C 350.2128 810.638 343.1568 807.7148 337.9512 802.5092C 332.748 797.306 329.8248 790.2476 329.8248 782.8868L329.8248 782.8868L329.8248 533.1404C 329.8248 525.7796 332.748 518.7211 337.9512 513.518C 343.1568 508.3148 350.2128 505.3916 357.5736 505.3916z" /></clipPath><clipPath id="11"><path id="" clip-rule="evenodd" transform="matrix(1 0 0 1 0 0)" d="M334.8048 771.6212L572.5548 771.6212L572.5548 771.6212L572.5548 776.8712L572.5548 776.8712L334.8048 776.8712z" /></clipPath><clipPath id="12"><path id="" clip-rule="evenodd" transform="matrix(1 0 0 1 0 0)" d="M334.8 771.59L572.64 771.59L572.64 771.59L572.64 777.11L572.64 777.11L334.8 777.11z" /></clipPath><mask id="m1"><clipPath id="13"><path id="" clip-rule="evenodd" transform="matrix(1 0 0 1 0 0)" d="M334.8 771.59L572.64 771.59L572.64 771.59L572.64 777.11L572.64 777.11L334.8 777.11z" /></clipPath><g><g><g clip-path="url(#13)"><path id="5" transform="matrix(1 0 0 -1 0 842)" d="M334.8 70.41001L572.64 70.41001L572.64 64.89001L334.8 64.89001z" stroke="none" fill="#000000" fill-rule="nonzero" /></g></g></g></mask><clipPath id="14"><path id="" clip-rule="evenodd" transform="matrix(1 0 0 1 0 0)" d="M334.8 771.59L572.64 771.59L572.64 771.59L572.64 777.11L572.64 777.11L334.8 777.11z" /></clipPath><clipPath id="15"><path id="" clip-rule="evenodd" transform="matrix(1 0 0 1 0 0)" d="M334.56 771.7025L572.88 771.7025L572.88 771.7025L572.88 776.9637L572.88 776.9637L334.56 776.9637z" /></clipPath><mask id="m2"><clipPath id="16"><path id="" clip-rule="evenodd" transform="matrix(1 0 0 1 0 0)" d="M334.8 771.59L572.64 771.59L572.64 771.59L572.64 777.11L572.64 777.11L334.8 777.11z" /></clipPath><clipPath id="17"><path id="" clip-rule="evenodd" transform="matrix(1 0 0 1 0 0)" d="M334.8 771.59L572.64 771.59L572.64 771.59L572.64 777.11L572.64 777.11L334.8 777.11z" /></clipPath><clipPath id="18"><path id="" clip-rule="evenodd" transform="matrix(1 0 0 1 0 0)" d="M334.8277 771.7025L572.543 771.7025L572.543 771.7025L572.543 776.7533L572.543 776.7533L334.8277 776.7533z" /></clipPath><g><g><g clip-path="url(#16)"><g><g clip-path="url(#17)"><g clip-path="url(#18)"><g transform="matrix(0.24 0 0 0.24 334.8 771.59)"><g transform="matrix(1 0 0 1 0 0)"><image x="0" y="0" xlink:href="img_02.png" width="991" height="22" /></g></g></g></g></g></g></g></g></mask><clipPath id="19"><path id="" clip-rule="evenodd" transform="matrix(1 0 0 1 0 0)" d="M334.8 771.59L572.64 771.59L572.64 771.59L572.64 777.11L572.64 777.11L334.8 777.11z" /></clipPath><clipPath id="20"><path id="" clip-rule="evenodd" transform="matrix(1 0 0 1 0 0)" d="M334.56 771.7025L572.88 771.7025L572.88 771.7025L572.88 776.9637L572.88 776.9637L334.56 776.9637z" /></clipPath><clipPath id="21"><path id="" clip-rule="evenodd" transform="matrix(1 0 0 1 0 0)" d="M0 -0.25L595.5 -0.25L595.5 -0.25L595.5 842.0012L595.5 842.0012L0 842.0012z" /></clipPath><clipPath id="22"><path id="" clip-rule="evenodd" transform="matrix(1 0 0 1 0 0)" d="M0 -0.25L595.5 -0.25L595.5 -0.25L595.5 842.0012L595.5 842.0012L0 842.0012z" /></clipPath><clipPath id="23"><path id="" clip-rule="evenodd" transform="matrix(1 0 0 1 0 0)" d="M348.42 596.0876L541.6545 596.0876L541.6545 596.0876L541.6545 760.4333L541.6545 760.4333L348.42 760.4333z" /></clipPath><clipPath id="24"><path id="" clip-rule="evenodd" transform="matrix(1 0 0 1 0 0)" d="M361.1688 596.0876L528.5568 596.0876C 535.5984 596.0876 541.308 601.7948 541.308 608.8364L541.308 608.8364L541.308 747.6835C 541.308 754.7252 535.5984 760.4324 528.5568 760.4324L528.5568 760.4324L361.1688 760.4324C 354.1272 760.4324 348.42 754.7252 348.42 747.6835L348.42 747.6835L348.42 608.8364C 348.42 601.7948 354.1272 596.0876 361.1688 596.0876z" /></clipPath><clipPath id="25"><path id="" clip-rule="evenodd" transform="matrix(1 0 0 1 0 0)" d="M348.42 596.0876L541.0126 596.0876L541.0126 596.0876L541.0126 760.4333L541.0126 760.4333L348.42 760.4333z" /></clipPath><clipPath id="26"><path id="" clip-rule="evenodd" transform="matrix(1 0 0 1 0 0)" d="M0 -0.25L595.5 -0.25L595.5 -0.25L595.5 842.0012L595.5 842.0012L0 842.0012z" /></clipPath><clipPath id="27"><path id="" clip-rule="evenodd" transform="matrix(1 0 0 1 0 0)" d="M0 -0.25L595.5 -0.25L595.5 -0.25L595.5 842.0012L595.5 842.0012L0 842.0012z" /></clipPath><clipPath id="28"><path id="" clip-rule="evenodd" transform="matrix(1 0 0 1 0 0)" d="M0 -0.25L595.5 -0.25L595.5 -0.25L595.5 842.0012L595.5 842.0012L0 842.0012z" /></clipPath><clipPath id="29"><path id="" clip-rule="evenodd" transform="matrix(1 0 0 1 0 0)" d="M38.71512 329.6924L286.2487 329.6924L286.2487 329.6924L286.2487 602.366L286.2487 602.366L38.71512 602.366z" /></clipPath><clipPath id="30"><path id="" clip-rule="evenodd" transform="matrix(1 0 0 1 0 0)" d="M66.46512 329.6924L258.4992 329.6924C 265.86 329.6924 272.916 332.618 278.1216 337.8212C 283.3248 343.0244 286.248 350.0828 286.248 357.4436L286.248 357.4436L286.248 574.202C 286.248 581.5604 283.3248 588.6188 278.1216 593.8244C 272.916 599.0276 265.86 601.9507 258.4992 601.9507L258.4992 601.9507L66.46512 601.9507C 59.10552 601.9507 52.04712 599.0276 46.84296 593.8244C 41.6388 588.6188 38.71512 581.5604 38.71512 574.202L38.71512 574.202L38.71512 357.4436C 38.71512 350.0828 41.6388 343.0244 46.84296 337.8212C 52.04712 332.618 59.10552 329.6924 66.46512 329.6924z" /></clipPath><clipPath id="31"><path id="" clip-rule="evenodd" transform="matrix(1 0 0 1 0 0)" d="M39.9624 560.4404L277.7124 560.4404L277.7124 560.4404L277.7124 565.6904L277.7124 565.6904L39.9624 565.6904z" /></clipPath><clipPath id="32"><path id="" clip-rule="evenodd" transform="matrix(1 0 0 1 0 0)" d="M39.84 560.39L277.92 560.39L277.92 560.39L277.92 565.91L277.92 565.91L39.84 565.91z" /></clipPath><mask id="m3"><clipPath id="33"><path id="" clip-rule="evenodd" transform="matrix(1 0 0 1 0 0)" d="M39.84 560.39L277.92 560.39L277.92 560.39L277.92 565.91L277.92 565.91L39.84 565.91z" /></clipPath><g><g><g clip-path="url(#33)"><path id="123" transform="matrix(1 0 0 -1 0 842)" d="M39.84 281.61L277.92 281.61L277.92 276.09L39.84 276.09z" stroke="none" fill="#000000" fill-rule="nonzero" /></g></g></g></mask><clipPath id="34"><path id="" clip-rule="evenodd" transform="matrix(1 0 0 1 0 0)" d="M39.84 560.39L277.92 560.39L277.92 560.39L277.92 565.91L277.92 565.91L39.84 565.91z" /></clipPath><clipPath id="35"><path id="" clip-rule="evenodd" transform="matrix(1 0 0 1 0 0)" d="M39.59999 560.5226L278.16 560.5226L278.16 560.5226L278.16 565.7838L278.16 565.7838L39.59999 565.7838z" /></clipPath><mask id="m4"><clipPath id="36"><path id="" clip-rule="evenodd" transform="matrix(1 0 0 1 0 0)" d="M39.84 560.39L277.92 560.39L277.92 560.39L277.92 565.91L277.92 565.91L39.84 565.91z" /></clipPath><clipPath id="37"><path id="" clip-rule="evenodd" transform="matrix(1 0 0 1 0 0)" d="M39.84 560.39L277.92 560.39L277.92 560.39L277.92 565.91L277.92 565.91L39.84 565.91z" /></clipPath><clipPath id="38"><path id="" clip-rule="evenodd" transform="matrix(1 0 0 1 0 0)" d="M39.98492 560.5226L277.7003 560.5226L277.7003 560.5226L277.7003 565.5734L277.7003 565.5734L39.98492 565.5734z" /></clipPath><g><g><g clip-path="url(#36)"><g><g clip-path="url(#37)"><g clip-path="url(#38)"><g transform="matrix(0.24 0 0 0.24 39.84 560.39)"><g transform="matrix(1 0 0 1 0 0)"><image x="0" y="0" xlink:href="img_04.png" width="992" height="22" /></g></g></g></g></g></g></g></g></mask><clipPath id="39"><path id="" clip-rule="evenodd" transform="matrix(1 0 0 1 0 0)" d="M39.84 560.39L277.92 560.39L277.92 560.39L277.92 565.91L277.92 565.91L39.84 565.91z" /></clipPath><clipPath id="40"><path id="" clip-rule="evenodd" transform="matrix(1 0 0 1 0 0)" d="M39.59999 560.5226L278.16 560.5226L278.16 560.5226L278.16 565.7838L278.16 565.7838L39.59999 565.7838z" /></clipPath><clipPath id="41"><path id="" clip-rule="evenodd" transform="matrix(1 0 0 1 0 0)" d="M0 -0.25L595.5 -0.25L595.5 -0.25L595.5 842.0012L595.5 842.0012L0 842.0012z" /></clipPath><clipPath id="42"><path id="" clip-rule="evenodd" transform="matrix(1 0 0 1 0 0)" d="M0 -0.25L595.5 -0.25L595.5 -0.25L595.5 842.0012L595.5 842.0012L0 842.0012z" /></clipPath><clipPath id="43"><path id="" clip-rule="evenodd" transform="matrix(1 0 0 1 0 0)" d="M57.3096 385.8476L273.9643 385.8476L273.9643 385.8476L273.9643 549.9411L273.9643 549.9411L57.3096 549.9411z" /></clipPath><clipPath id="44"><path id="" clip-rule="evenodd" transform="matrix(1 0 0 1 0 0)" d="M70.0596 385.8476L260.8392 385.8476C 264.2208 385.8476 267.4632 387.1892 269.8536 389.582C 272.2464 391.9724 273.588 395.2148 273.588 398.5964L273.588 398.5964L273.588 537.1916C 273.588 540.5707 272.2464 543.8156 269.8536 546.206C 267.4632 548.5964 264.2208 549.9404 260.8392 549.9404L260.8392 549.9404L70.0596 549.9404C 66.67824 549.9404 63.43512 548.5964 61.044 546.206C 58.65312 543.8156 57.3096 540.5707 57.3096 537.1916L57.3096 537.1916L57.3096 398.5964C 57.3096 395.2148 58.65312 391.9724 61.044 389.582C 63.43512 387.1892 66.67824 385.8476 70.0596 385.8476z" /></clipPath><clipPath id="45"><path id="" clip-rule="evenodd" transform="matrix(1 0 0 1 0 0)" d="M57.3096 385.8476L273.3235 385.8476L273.3235 385.8476L273.3235 549.9411L273.3235 549.9411L57.3096 549.9411z" /></clipPath><clipPath id="46"><path id="" clip-rule="evenodd" transform="matrix(1 0 0 1 0 0)" d="M0 -0.25L595.5 -0.25L595.5 -0.25L595.5 842.0012L595.5 842.0012L0 842.0012z" /></clipPath><clipPath id="47"><path id="" clip-rule="evenodd" transform="matrix(1 0 0 1 0 0)" d="M0 -0.25L595.5 -0.25L595.5 -0.25L595.5 842.0012L595.5 842.0012L0 842.0012z" /></clipPath><clipPath id="48"><path id="" clip-rule="evenodd" transform="matrix(1 0 0 1 0 0)" d="M0 -0.25L595.5 -0.25L595.5 -0.25L595.5 842.0012L595.5 842.0012L0 842.0012z" /></clipPath><clipPath id="49"><path id="" clip-rule="evenodd" transform="matrix(1 0 0 1 0 0)" d="M36.3444 30.75177L283.878 30.75177L283.878 30.75177L283.878 293.7557L283.878 293.7557L36.3444 293.7557z" /></clipPath><clipPath id="50"><path id="" clip-rule="evenodd" transform="matrix(1 0 0 1 0 0)" d="M64.0944 30.75177L256.128 30.75177C 263.4888 30.75177 270.5472 33.67542 275.7504 38.87958C 280.9536 44.08374 283.8792 51.14191 283.8792 58.50177L283.8792 58.50177L283.8792 265.0627C 283.8792 272.4212 280.9536 279.4796 275.7504 284.6852C 270.5472 289.8884 263.4888 292.8116 256.128 292.8116L256.128 292.8116L64.0944 292.8116C 56.73456 292.8116 49.6764 289.8884 44.47224 284.6852C 39.26808 279.4796 36.3444 272.4212 36.3444 265.0627L36.3444 265.0627L36.3444 58.50177C 36.3444 51.14191 39.26808 44.08374 44.47224 38.87958C 49.6764 33.67542 56.73456 30.75177 64.0944 30.75177z" /></clipPath><clipPath id="51"><path id="" clip-rule="evenodd" transform="matrix(1 0 0 1 0 0)" d="M48.13872 250.478L285.8887 250.478L285.8887 250.478L285.8887 255.728L285.8887 255.728L48.13872 255.728z" /></clipPath><clipPath id="52"><path id="" clip-rule="evenodd" transform="matrix(1 0 0 1 0 0)" d="M48 250.55L286.08 250.55L286.08 250.55L286.08 255.8301L286.08 255.8301L48 255.8301z" /></clipPath><mask id="m5"><clipPath id="53"><path id="" clip-rule="evenodd" transform="matrix(1 0 0 1 0 0)" d="M48 250.55L286.08 250.55L286.08 250.55L286.08 255.8301L286.08 255.8301L48 255.8301z" /></clipPath><g><g><g clip-path="url(#53)"><path id="200" transform="matrix(1 0 0 -1 0 842)" d="M48 591.45L286.08 591.45L286.08 586.1699L48 586.1699z" stroke="none" fill="#000000" fill-rule="nonzero" /></g></g></g></mask><clipPath id="54"><path id="" clip-rule="evenodd" transform="matrix(1 0 0 1 0 0)" d="M48 250.55L286.08 250.55L286.08 250.55L286.08 255.8301L286.08 255.8301L48 255.8301z" /></clipPath><clipPath id="55"><path id="" clip-rule="evenodd" transform="matrix(1 0 0 1 0 0)" d="M47.75999 250.5602L286.32 250.5602L286.32 250.5602L286.32 255.8214L286.32 255.8214L47.75999 255.8214z" /></clipPath><mask id="m6"><clipPath id="56"><path id="" clip-rule="evenodd" transform="matrix(1 0 0 1 0 0)" d="M48 250.55L286.08 250.55L286.08 250.55L286.08 255.8301L286.08 255.8301L48 255.8301z" /></clipPath><clipPath id="57"><path id="" clip-rule="evenodd" transform="matrix(1 0 0 1 0 0)" d="M48 250.55L286.08 250.55L286.08 250.55L286.08 255.8301L286.08 255.8301L48 255.8301z" /></clipPath><clipPath id="58"><path id="" clip-rule="evenodd" transform="matrix(1 0 0 1 0 0)" d="M48.16132 250.5602L285.8767 250.5602L285.8767 250.5602L285.8767 255.611L285.8767 255.611L48.16132 255.611z" /></clipPath><g><g><g clip-path="url(#56)"><g><g clip-path="url(#57)"><g clip-path="url(#58)"><g transform="matrix(0.24 0 0 0.24 48 250.55)"><g transform="matrix(1 0 0 1 0 0)"><image x="0" y="0" xlink:href="img_06.png" width="992" height="22" /></g></g></g></g></g></g></g></g></mask><clipPath id="59"><path id="" clip-rule="evenodd" transform="matrix(1 0 0 1 0 0)" d="M48 250.55L286.08 250.55L286.08 250.55L286.08 255.8301L286.08 255.8301L48 255.8301z" /></clipPath><clipPath id="60"><path id="" clip-rule="evenodd" transform="matrix(1 0 0 1 0 0)" d="M47.75999 250.5602L286.32 250.5602L286.32 250.5602L286.32 255.8214L286.32 255.8214L47.75999 255.8214z" /></clipPath><clipPath id="61"><path id="" clip-rule="evenodd" transform="matrix(1 0 0 1 0 0)" d="M0 -0.25L595.5 -0.25L595.5 -0.25L595.5 842.0012L595.5 842.0012L0 842.0012z" /></clipPath><clipPath id="62"><path id="" clip-rule="evenodd" transform="matrix(1 0 0 1 0 0)" d="M0 -0.25L595.5 -0.25L595.5 -0.25L595.5 842.0012L595.5 842.0012L0 842.0012z" /></clipPath><clipPath id="63"><path id="" clip-rule="evenodd" transform="matrix(1 0 0 1 0 0)" d="M62.35368 110.6192L152.6074 110.6192L152.6074 110.6192L152.6074 237.8912L152.6074 237.8912L62.35368 237.8912z" /></clipPath><clipPath id="64"><path id="" clip-rule="evenodd" transform="matrix(1 0 0 1 0 0)" d="M75.10368 110.6192L139.8576 110.6192C 146.8992 110.6192 152.6076 116.3276 152.6076 123.3692L152.6076 123.3692L152.6076 224.9775C 152.6076 232.0191 146.8992 237.7275 139.8576 237.7275L139.8576 237.7275L75.10368 237.7275C 68.06208 237.7275 62.35368 232.0191 62.35368 224.9775L62.35368 224.9775L62.35368 123.3692C 62.35368 116.3276 68.06208 110.6192 75.10368 110.6192z" /></clipPath><clipPath id="65"><path id="" clip-rule="evenodd" transform="matrix(1 0 0 1 0 0)" d="M62.35368 110.6192L152.6074 110.6192L152.6074 110.6192L152.6074 237.8912L152.6074 237.8912L62.35368 237.8912z" /></clipPath><clipPath id="66"><path id="" clip-rule="evenodd" transform="matrix(1 0 0 1 0 0)" d="M0 -0.25L595.5 -0.25L595.5 -0.25L595.5 842.0012L595.5 842.0012L0 842.0012z" /></clipPath><clipPath id="67"><path id="" clip-rule="evenodd" transform="matrix(1 0 0 1 0 0)" d="M0 -0.25L595.5 -0.25L595.5 -0.25L595.5 842.0012L595.5 842.0012L0 842.0012z" /></clipPath><clipPath id="68"><path id="" clip-rule="evenodd" transform="matrix(1 0 0 1 0 0)" d="M169.986 110.6192L260.2399 110.6192L260.2399 110.6192L260.2399 237.8912L260.2399 237.8912L169.986 237.8912z" /></clipPath><clipPath id="69"><path id="" clip-rule="evenodd" transform="matrix(1 0 0 1 0 0)" d="M182.736 110.6192L247.4904 110.6192C 254.532 110.6192 260.2392 116.3276 260.2392 123.3692L260.2392 123.3692L260.2392 224.9775C 260.2392 232.0191 254.532 237.7275 247.4904 237.7275L247.4904 237.7275L182.736 237.7275C 175.6944 237.7275 169.986 232.0191 169.986 224.9775L169.986 224.9775L169.986 123.3692C 169.986 116.3276 175.6944 110.6192 182.736 110.6192z" /></clipPath><clipPath id="70"><path id="" clip-rule="evenodd" transform="matrix(1 0 0 1 0 0)" d="M169.986 110.6192L260.2399 110.6192L260.2399 110.6192L260.2399 237.8912L260.2399 237.8912L169.986 237.8912z" /></clipPath><clipPath id="71"><path id="" clip-rule="evenodd" transform="matrix(1 0 0 1 0 0)" d="M0 -0.25L595.5 -0.25L595.5 -0.25L595.5 842.0012L595.5 842.0012L0 842.0012z" /></clipPath><clipPath id="72"><path id="" clip-rule="evenodd" transform="matrix(1 0 0 1 0 0)" d="M0 -0.25L595.5 -0.25L595.5 -0.25L595.5 842.0012L595.5 842.0012L0 842.0012z" /></clipPath><clipPath id="73"><path id="" clip-rule="evenodd" transform="matrix(1 0 0 1 0 0)" d="M0 -0.25L595.5 -0.25L595.5 -0.25L595.5 842.0012L595.5 842.0012L0 842.0012z" /></clipPath><clipPath id="74"><path id="" clip-rule="evenodd" transform="matrix(1 0 0 1 0 0)" d="M321.804 233.9434L569.8464 233.9434L569.8464 233.9434L569.8464 476.305L569.8464 476.305L321.804 476.305z" /></clipPath><clipPath id="75"><path id="" clip-rule="evenodd" transform="matrix(1 0 0 1 0 0)" d="M349.5528 233.9434L541.5864 233.9434C 548.9472 233.9434 556.0056 236.8671 561.2088 242.0708C 566.4144 247.2764 569.3376 254.3348 569.3376 261.6932L569.3376 261.6932L569.3376 448.5548C 569.3376 455.9156 566.4144 462.974 561.2088 468.1772C 556.0056 473.3804 548.9472 476.306 541.5864 476.306L541.5864 476.306L349.5528 476.306C 342.1944 476.306 335.136 473.3804 329.9304 468.1772C 324.7272 462.974 321.804 455.9156 321.804 448.5548L321.804 448.5548L321.804 261.6932C 321.804 254.3348 324.7272 247.2764 329.9304 242.0708C 335.136 236.8671 342.1944 233.9434 349.5528 233.9434z" /></clipPath><clipPath id="76"><path id="" clip-rule="evenodd" transform="matrix(1 0 0 1 0 0)" d="M321.804 426.1772L559.554 426.1772L559.554 426.1772L559.554 431.4272L559.554 431.4272L321.804 431.4272z" /></clipPath><clipPath id="77"><path id="" clip-rule="evenodd" transform="matrix(1 0 0 1 0 0)" d="M321.6 426.23L559.68 426.23L559.68 426.23L559.68 431.51L559.68 431.51L321.6 431.51z" /></clipPath><mask id="m7"><clipPath id="78"><path id="" clip-rule="evenodd" transform="matrix(1 0 0 1 0 0)" d="M321.6 426.23L559.68 426.23L559.68 426.23L559.68 431.51L559.68 431.51L321.6 431.51z" /></clipPath><g><g><g clip-path="url(#78)"><path id="292" transform="matrix(1 0 0 -1 0 842)" d="M321.6 415.77L559.68 415.77L559.68 410.49L321.6 410.49z" stroke="none" fill="#000000" fill-rule="nonzero" /></g></g></g></mask><clipPath id="79"><path id="" clip-rule="evenodd" transform="matrix(1 0 0 1 0 0)" d="M321.6 426.23L559.68 426.23L559.68 426.23L559.68 431.51L559.68 431.51L321.6 431.51z" /></clipPath><clipPath id="80"><path id="" clip-rule="evenodd" transform="matrix(1 0 0 1 0 0)" d="M321.36 426.2592L559.92 426.2592L559.92 426.2592L559.92 431.5204L559.92 431.5204L321.36 431.5204z" /></clipPath><mask id="m8"><clipPath id="81"><path id="" clip-rule="evenodd" transform="matrix(1 0 0 1 0 0)" d="M321.6 426.23L559.68 426.23L559.68 426.23L559.68 431.51L559.68 431.51L321.6 431.51z" /></clipPath><clipPath id="82"><path id="" clip-rule="evenodd" transform="matrix(1 0 0 1 0 0)" d="M321.6 426.23L559.68 426.23L559.68 426.23L559.68 431.51L559.68 431.51L321.6 431.51z" /></clipPath><clipPath id="83"><path id="" clip-rule="evenodd" transform="matrix(1 0 0 1 0 0)" d="M321.8261 426.2592L559.5414 426.2592L559.5414 426.2592L559.5414 431.3099L559.5414 431.3099L321.8261 431.3099z" /></clipPath><g><g><g clip-path="url(#81)"><g><g clip-path="url(#82)"><g clip-path="url(#83)"><g transform="matrix(0.24 0 0 0.24 321.6 426.23)"><g transform="matrix(1 0 0 1 0 0)"><image x="0" y="0" xlink:href="img_09.png" width="992" height="22" /></g></g></g></g></g></g></g></g></mask><clipPath id="84"><path id="" clip-rule="evenodd" transform="matrix(1 0 0 1 0 0)" d="M321.6 426.23L559.68 426.23L559.68 426.23L559.68 431.51L559.68 431.51L321.6 431.51z" /></clipPath><clipPath id="85"><path id="" clip-rule="evenodd" transform="matrix(1 0 0 1 0 0)" d="M321.36 426.2592L559.92 426.2592L559.92 426.2592L559.92 431.5204L559.92 431.5204L321.36 431.5204z" /></clipPath><clipPath id="86"><path id="" clip-rule="evenodd" transform="matrix(1 0 0 1 0 0)" d="M0 -0.25L595.5 -0.25L595.5 -0.25L595.5 842.0012L595.5 842.0012L0 842.0012z" /></clipPath><clipPath id="87"><path id="" clip-rule="evenodd" transform="matrix(1 0 0 1 0 0)" d="M0 -0.25L595.5 -0.25L595.5 -0.25L595.5 842.0012L595.5 842.0012L0 842.0012z" /></clipPath><clipPath id="88"><path id="" clip-rule="evenodd" transform="matrix(1 0 0 1 0 0)" d="M337.4304 291.0332L553.7626 291.0332L553.7626 291.0332L553.7626 414.9282L553.7626 414.9282L337.4304 414.9282z" /></clipPath><clipPath id="89"><path id="" clip-rule="evenodd" transform="matrix(1 0 0 1 0 0)" d="M350.1816 291.0332L540.96 291.0332C 544.3416 291.0332 547.584 292.3748 549.9768 294.7676C 552.3672 297.158 553.7112 300.4004 553.7112 303.782L553.7112 303.782L553.7112 402.1772C 553.7112 405.5588 552.3672 408.8012 549.9768 411.1916C 547.584 413.5844 544.3416 414.926 540.96 414.926L540.96 414.926L350.1816 414.926C 346.8 414.926 343.5552 413.5844 341.1648 411.1916C 338.7744 408.8012 337.4304 405.5588 337.4304 402.1772L337.4304 402.1772L337.4304 303.782C 337.4304 300.4004 338.7744 297.158 341.1648 294.7676C 343.5552 292.3748 346.8 291.0332 350.1816 291.0332z" /></clipPath><clipPath id="90"><path id="" clip-rule="evenodd" transform="matrix(1 0 0 1 0 0)" d="M337.4304 291.0332L553.7626 291.0332L553.7626 291.0332L553.7626 414.9282L553.7626 414.9282L337.4304 414.9282z" /></clipPath><clipPath id="91"><path id="" clip-rule="evenodd" transform="matrix(1 0 0 1 0 0)" d="M0 -0.25L595.5 -0.25L595.5 -0.25L595.5 842.0012L595.5 842.0012L0 842.0012z" /></clipPath><clipPath id="92"><path id="" clip-rule="evenodd" transform="matrix(1 0 0 1 0 0)" d="M485.9664 12.9223L585.7164 12.9223L585.7164 12.9223L585.7164 69.1723L585.7164 69.1723L485.9664 69.1723z" /></clipPath><clipPath id="93"><path id="" clip-rule="evenodd" transform="matrix(1 0 0 1 0 0)" d="M0 -0.25L595.5 -0.25L595.5 -0.25L595.5 842.0012L595.5 842.0012L0 842.0012z" /></clipPath></defs><g transform="matrix(1.333333 0 0 1.333333 0 0)"><g clip-path="url(#1)"><g clip-path="url(#2)"><path id="1" transform="matrix(1 0 0 -1 0 842)" d="M0 842.25L595.4999 842.25L595.4999 0L0 0z" stroke="none" fill="#FFFFFF" fill-rule="nonzero" /></g><g clip-path="url(#3)"><path id="2" transform="matrix(1 0 0 -1 0 842)" d="M0 842.25L595.4999 842.25L595.4999 0L0 0z" stroke="none" fill="#FFFFFF" fill-rule="nonzero" /></g><g clip-path="url(#4)"><g><g clip-path="url(#5)"><g clip-path="url(#6)"><g transform="matrix(0 0.975 -0.9768211 0 522.0178 30.75183)"><g transform="matrix(1 0 0 1 0 0)"><image x="0" y="0" xlink:href="img_01.png" width="800" height="453" /></g></g></g></g></g></g><g clip-path="url(#7)"><g clip-path="url(#8)"><g clip-path="url(#9)"><g clip-path="url(#10)"><path id="4" transform="matrix(1 0 0 -1 0 842)" d="M329.8248 336.6084L577.3585 336.6084L577.3585 31.05887L329.8248 31.05887z" stroke="none" fill="#939CAB" fill-rule="nonzero" /></g></g></g></g><g clip-path="url(#11)"><g><g clip-path="url(#12)"><g mask="url(#m1)"><g><g clip-path="url(#14)"><g clip-path="url(#15)"><path id="6" transform="matrix(1 0 0 -1 0 842)" d="M334.8277 70.29751L572.543 70.29751L572.543 65.24673L334.8277 65.24673z" stroke="none" fill="#000000" fill-rule="nonzero" /></g></g></g></g><g mask="url(#m2)"><g><g clip-path="url(#19)"><g clip-path="url(#20)"><path id="8" transform="matrix(1 0 0 -1 0 842)" d="M334.8277 70.29751L572.543 70.29751L572.543 65.24673L334.8277 65.24673z" stroke="none" fill="#000000" fill-rule="nonzero" /></g></g></g></g></g></g></g><g clip-path="url(#21)"><g clip-path="url(#22)"><g clip-path="url(#23)"><g clip-path="url(#24)"><g clip-path="url(#25)"><g transform="matrix(0.6344007 0 0 0.6345395 337.308 596.0867)"><g transform="matrix(1 0 0 1 0 0)"><image x="0" y="0" xlink:href="img_03.png" width="339" height="259" /></g></g></g></g></g></g></g><g clip-path="url(#26)"></g><g clip-path="url(#27)"><g clip-path="url(#28)"><g clip-path="url(#29)"><g clip-path="url(#30)"><path id="122" transform="matrix(1 0 0 -1 0 842)" d="M38.71512 512.3076L286.2489 512.3076L286.2489 239.6336L38.71512 239.6336z" stroke="none" fill="#1D70B7" fill-rule="nonzero" /></g></g></g></g><g clip-path="url(#31)"><g><g clip-path="url(#32)"><g mask="url(#m3)"><g><g clip-path="url(#34)"><g clip-path="url(#35)"><path id="124" transform="matrix(1 0 0 -1 0 842)" d="M39.98493 281.4774L277.7003 281.4774L277.7003 276.4266L39.98493 276.4266z" stroke="none" fill="#000000" fill-rule="nonzero" /></g></g></g></g><g mask="url(#m4)"><g><g clip-path="url(#39)"><g clip-path="url(#40)"><path id="126" transform="matrix(1 0 0 -1 0 842)" d="M39.98493 281.4774L277.7003 281.4774L277.7003 276.4266L39.98493 276.4266z" stroke="none" fill="#000000" fill-rule="nonzero" /></g></g></g></g></g></g></g><g clip-path="url(#41)"><g clip-path="url(#42)"><g clip-path="url(#43)"><g clip-path="url(#44)"><g clip-path="url(#45)"><g transform="matrix(0.4557255 0 0 0.4556645 57.3096 381.8845)"><g transform="matrix(1 0 0 1 0 0)"><image x="0" y="0" xlink:href="img_05.png" width="474" height="377" /></g></g></g></g></g></g></g><g clip-path="url(#46)"></g><g clip-path="url(#47)"><g clip-path="url(#48)"><g clip-path="url(#49)"><g clip-path="url(#50)"><path id="199" transform="matrix(1 0 0 -1 0 842)" d="M36.3444 811.2482L283.8782 811.2482L283.8782 549.2105L36.3444 549.2105z" stroke="none" fill="#939CAB" fill-rule="nonzero" /></g></g></g></g><g clip-path="url(#51)"><g><g clip-path="url(#52)"><g mask="url(#m5)"><g><g clip-path="url(#54)"><g clip-path="url(#55)"><path id="201" transform="matrix(1 0 0 -1 0 842)" d="M48.16132 591.4398L285.8767 591.4398L285.8767 586.389L48.16132 586.389z" stroke="none" fill="#000000" fill-rule="nonzero" /></g></g></g></g><g mask="url(#m6)"><g><g clip-path="url(#59)"><g clip-path="url(#60)"><path id="203" transform="matrix(1 0 0 -1 0 842)" d="M48.16132 591.4398L285.8767 591.4398L285.8767 586.389L48.16132 586.389z" stroke="none" fill="#000000" fill-rule="nonzero" /></g></g></g></g></g></g></g><g clip-path="url(#61)"><g clip-path="url(#62)"><g clip-path="url(#63)"><g clip-path="url(#64)"><g clip-path="url(#65)"><g transform="matrix(0.6622044 0 0 0.6663455 44.82576 110.6193)"><g transform="matrix(1 0 0 1 0 0)"><image x="0" y="0" xlink:href="img_07.png" width="189" height="191" /></g></g></g></g></g></g></g><g clip-path="url(#66)"><g clip-path="url(#67)"><g clip-path="url(#68)"><g clip-path="url(#69)"><g clip-path="url(#70)"><g transform="matrix(0.4782166 0 0 0.4802717 166.7877 110.6193)"><g transform="matrix(1 0 0 1 0 0)"><image x="0" y="0" xlink:href="img_08.png" width="202" height="265" /></g></g></g></g></g></g></g><g clip-path="url(#71)"></g><g clip-path="url(#72)"><g clip-path="url(#73)"><g clip-path="url(#74)"><g clip-path="url(#75)"><path id="291" transform="matrix(1 0 0 -1 0 842)" d="M321.804 608.0565L568.8994 608.0565L568.8994 365.6948L321.804 365.6948z" stroke="none" fill="#1D70B7" fill-rule="nonzero" /></g></g></g></g><g clip-path="url(#76)"><g><g clip-path="url(#77)"><g mask="url(#m7)"><g><g clip-path="url(#79)"><g clip-path="url(#80)"><path id="293" transform="matrix(1 0 0 -1 0 842)" d="M321.8261 415.7408L559.5414 415.7408L559.5414 410.69L321.8261 410.69z" stroke="none" fill="#000000" fill-rule="nonzero" /></g></g></g></g><g mask="url(#m8)"><g><g clip-path="url(#84)"><g clip-path="url(#85)"><path id="295" transform="matrix(1 0 0 -1 0 842)" d="M321.8261 415.7408L559.5414 415.7408L559.5414 410.69L321.8261 410.69z" stroke="none" fill="#000000" fill-rule="nonzero" /></g></g></g></g></g></g></g><g clip-path="url(#86)"><g clip-path="url(#87)"><g clip-path="url(#88)"><g clip-path="url(#89)"><g clip-path="url(#90)"><g transform="matrix(0.599258 0 0 0.5984904 337.4304 274.4967)"><g transform="matrix(1 0 0 1 0 0)"><image x="0" y="0" xlink:href="img_10.png" width="361" height="262" /></g></g></g></g></g></g></g><g clip-path="url(#91)"></g><g clip-path="url(#92)"><g transform="matrix(0.1246875 0 0 0.1241722 485.9664 12.92242)"><g transform="matrix(1 0 0 1 0 0)"><image x="0" y="0" xlink:href="img_11.png" width="800" height="453" /></g></g></g><g clip-path="url(#93)"></g></g></g></svg>