<svg xmlns="http://www.w3.org/2000/svg" xmlns:xlink="http://www.w3.org/1999/xlink" id="body_1" preserveAspectRatio="xMinYMin meet" viewBox="0 0 793 1123"><defs><clipPath id="1"><path id="" clip-rule="evenodd" transform="matrix(1 0 0 1 0 0)" d="M0 842L0 -0.25L0 -0.25L595.5 -0.25L595.5 -0.25L595.5 842L595.5 842L0 842z" /></clipPath><clipPath id="2"><path id="" clip-rule="evenodd" transform="matrix(1 0 0 1 0 0)" d="M0 -0.249939L595.5 -0.249939L595.5 -0.249939L595.5 842.0001L595.5 842.0001L0 842.0001z" /></clipPath><clipPath id="3"><path id="" clip-rule="evenodd" transform="matrix(1 0 0 1 0 0)" d="M0 -0.249939L595.5 -0.249939L595.5 -0.249939L595.5 842.0001L595.5 842.0001L0 842.0001z" /></clipPath><clipPath id="4"><path id="" clip-rule="evenodd" transform="matrix(1 0 0 1 0 0)" d="M0 -0.249939L595.5 -0.249939L595.5 -0.249939L595.5 842.0001L595.5 842.0001L0 842.0001z" /></clipPath><clipPath id="5"><path id="" clip-rule="evenodd" transform="matrix(1 0 0 1 0 0)" d="M75.59999 30.71008L519.12 30.71008L519.12 30.71008L519.12 810.9501L519.12 810.9501L75.59999 810.9501z" /></clipPath><clipPath id="6"><path id="" clip-rule="evenodd" transform="matrix(1 0 0 1 0 0)" d="M76.4271 30.75183L518.9271 30.75183L518.9271 30.75183L518.9271 810.7518L518.9271 810.7518L76.4271 810.7518z" /></clipPath><clipPath id="7"><path id="" clip-rule="evenodd" transform="matrix(1 0 0 1 0 0)" d="M0 -0.249939L595.5 -0.249939L595.5 -0.249939L595.5 842.0001L595.5 842.0001L0 842.0001z" /></clipPath><clipPath id="8"><path id="" clip-rule="evenodd" transform="matrix(1 0 0 1 0 0)" d="M0 -0.249939L595.5 -0.249939L595.5 -0.249939L595.5 842.0001L595.5 842.0001L0 842.0001z" /></clipPath><clipPath id="9"><path id="" clip-rule="evenodd" transform="matrix(1 0 0 1 0 0)" d="M188.9642 227.3348L429.7142 227.3348L429.7142 227.3348L429.7142 551.3348L429.7142 551.3348L188.9642 551.3348z" /></clipPath><clipPath id="10"><path id="" clip-rule="evenodd" transform="matrix(1 0 0 1 0 0)" d="M188.9642 270.8348L188.9642 507.6724C 188.9642 531.6968 208.4398 551.1724 232.4642 551.1724L232.4642 551.1724L385.9486 551.1724C 409.973 551.1724 429.4486 531.6968 429.4486 507.6724L429.4486 507.6724L429.4486 270.8348C 429.4486 259.2979 424.8656 248.2335 416.7078 240.0757C 408.5499 231.9179 397.4855 227.3348 385.9486 227.3348L385.9486 227.3348L232.4642 227.3348C 208.4398 227.3348 188.9642 246.8105 188.9642 270.8348z" /></clipPath><clipPath id="11"><path id="" clip-rule="evenodd" transform="matrix(1 0 0 1 0 0)" d="M188.9642 227.3348L429.7142 227.3348L429.7142 227.3348L429.7142 551.3348L429.7142 551.3348L188.9642 551.3348z" /></clipPath><clipPath id="12"><path id="" clip-rule="evenodd" transform="matrix(1 0 0 1 0 0)" d="M490.4886 20.63416L579.7386 20.63416L579.7386 20.63416L579.7386 70.88416L579.7386 70.88416L490.4886 70.88416z" /></clipPath><clipPath id="13"><path id="" clip-rule="evenodd" transform="matrix(1 0 0 1 0 0)" d="M0 -0.249939L595.5 -0.249939L595.5 -0.249939L595.5 842.0001L595.5 842.0001L0 842.0001z" /></clipPath><clipPath id="14"><path id="" clip-rule="evenodd" transform="matrix(1 0 0 1 0 0)" d="M0 -0.249939L595.5 -0.249939L595.5 -0.249939L595.5 842.0001L595.5 842.0001L0 842.0001z" /></clipPath><clipPath id="15"><path id="" clip-rule="evenodd" transform="matrix(1 0 0 1 0 0)" d="M220.0658 608.2682L388.0658 608.2682L388.0658 608.2682L388.0658 668.2682L388.0658 668.2682L220.0658 668.2682z" /></clipPath><clipPath id="16"><path id="" clip-rule="evenodd" transform="matrix(1 0 0 1 0 0)" d="M220.0658 638.1268C 220.0658 654.6172 233.434 667.9854 249.9244 667.9854L249.9244 667.9854L357.8344 667.9854C 374.3249 667.9854 387.693 654.6172 387.693 638.1268C 387.693 621.6364 374.3249 608.2682 357.8344 608.2682L357.8344 608.2682L249.9244 608.2682C 233.434 608.2682 220.0658 621.6364 220.0658 638.1268z" /></clipPath><clipPath id="17"><path id="" clip-rule="evenodd" transform="matrix(1 0 0 1 0 0)" d="M220.8158 609.0182L387.3158 609.0182L387.3158 609.0182L387.3158 667.5182L387.3158 667.5182L220.8158 667.5182z" /></clipPath><clipPath id="18"><path id="" clip-rule="evenodd" transform="matrix(1 0 0 1 0 0)" d="M249.9244 609.1682L357.8344 609.1682C 373.8278 609.1682 386.793 622.1334 386.793 638.1268C 386.793 654.1202 373.8278 667.0854 357.8344 667.0854L357.8344 667.0854L249.9244 667.0854C 233.931 667.0854 220.9658 654.1202 220.9658 638.1268C 220.9658 622.1334 233.931 609.1682 249.9244 609.1682z" /></clipPath><clipPath id="19"><path id="" clip-rule="evenodd" transform="matrix(1 0 0 1 0 0)" d="M220.0658 608.2682L388.0658 608.2682L388.0658 608.2682L388.0658 668.2682L388.0658 668.2682L220.0658 668.2682z" /></clipPath><clipPath id="20"><path id="" clip-rule="evenodd" transform="matrix(1 0 0 1 0 0)" d="M0 -0.249939L595.5 -0.249939L595.5 -0.249939L595.5 842.0001L595.5 842.0001L0 842.0001z" /></clipPath><clipPath id="21"><path id="" clip-rule="evenodd" transform="matrix(1 0 0 1 0 0)" d="M0 -0.249939L595.5 -0.249939L595.5 -0.249939L595.5 842.0001L595.5 842.0001L0 842.0001z" /></clipPath><clipPath id="22"><path id="" clip-rule="evenodd" transform="matrix(1 0 0 1 0 0)" d="M220.0658 608.2682L388.0658 608.2682L388.0658 608.2682L388.0658 668.2682L388.0658 668.2682L220.0658 668.2682z" /></clipPath><clipPath id="23"><path id="" clip-rule="evenodd" transform="matrix(1 0 0 1 0 0)" d="M220.0658 638.1268C 220.0658 654.6172 233.434 667.9854 249.9244 667.9854L249.9244 667.9854L357.8344 667.9854C 374.3249 667.9854 387.693 654.6172 387.693 638.1268C 387.693 621.6364 374.3249 608.2682 357.8344 608.2682L357.8344 608.2682L249.9244 608.2682C 233.434 608.2682 220.0658 621.6364 220.0658 638.1268z" /></clipPath><clipPath id="24"><path id="" clip-rule="evenodd" transform="matrix(1 0 0 1 0 0)" d="M220.0658 608.2682L388.0658 608.2682L388.0658 608.2682L388.0658 668.2682L388.0658 668.2682L220.0658 668.2682z" /></clipPath><clipPath id="25"><path id="" clip-rule="evenodd" transform="matrix(1 0 0 1 0 0)" d="M220.0658 608.2682L388.0636 608.2682L388.0636 608.2682L388.0636 668.258L388.0636 668.258L220.0658 668.258z" /></clipPath><clipPath id="26"><path id="" clip-rule="evenodd" transform="matrix(1 0 0 1 0 0)" d="M220.0658 638.1217C 220.0658 654.6093 233.4338 667.9752 249.924 667.9752L249.924 667.9752L357.8326 667.9752C 374.3228 667.9752 387.6908 654.6093 387.6908 638.1217C 387.6908 621.634 374.3228 608.2682 357.8326 608.2682L357.8326 608.2682L249.924 608.2682C 233.4338 608.2682 220.0658 621.634 220.0658 638.1217z" /></clipPath><clipPath id="27"><path id="" clip-rule="evenodd" transform="matrix(1 0 0 1 0 0)" d="M0 -0.249939L595.5 -0.249939L595.5 -0.249939L595.5 842.0001L595.5 842.0001L0 842.0001z" /></clipPath><clipPath id="28"><path id="" clip-rule="evenodd" transform="matrix(1 0 0 1 0 0)" d="M0 -0.249939L595.5 -0.249939L595.5 -0.249939L595.5 842.0001L595.5 842.0001L0 842.0001z" /></clipPath><clipPath id="29"><path id="" clip-rule="evenodd" transform="matrix(1 0 0 1 0 0)" d="M0 -0.249939L595.5 -0.249939L595.5 -0.249939L595.5 842.0001L595.5 842.0001L0 842.0001z" /></clipPath><clipPath id="30"><path id="" clip-rule="evenodd" transform="matrix(1 0 0 1 0 0)" d="M340.4424 655.7921L372.7149 638.2122L372.7149 638.2122L398.9054 686.2916L398.9054 686.2916L366.6329 703.8715L366.6329 703.8715L340.4424 655.7921z" /></clipPath><clipPath id="31"><path id="" clip-rule="evenodd" transform="matrix(1 0 0 1 0 0)" d="M340.4424 655.7921L372.7149 638.2122L372.7149 638.2122L398.9054 686.2916L398.9054 686.2916L366.6329 703.8715L366.6329 703.8715L340.4424 655.7921z" /></clipPath><clipPath id="32"><path id="" clip-rule="evenodd" transform="matrix(1 0 0 1 0 0)" d="M340.4424 655.7921L372.7149 638.2122L372.7149 638.2122L398.9054 686.2916L398.9054 686.2916L366.6329 703.8715L366.6329 703.8715L340.4424 655.7921z" /></clipPath><clipPath id="33"><path id="" clip-rule="evenodd" transform="matrix(1 0 0 1 0 0)" d="M0 -0.249939L595.5 -0.249939L595.5 -0.249939L595.5 842.0001L595.5 842.0001L0 842.0001z" /></clipPath><clipPath id="34"><path id="" clip-rule="evenodd" transform="matrix(1 0 0 1 0 0)" d="M0 -0.249939L595.5 -0.249939L595.5 -0.249939L595.5 842.0001L595.5 842.0001L0 842.0001z" /></clipPath><clipPath id="35"><path id="" clip-rule="evenodd" transform="matrix(1 0 0 1 0 0)" d="M-28.29552 -19.51593L57.16727 -19.51593L57.16727 -19.51593L57.16727 158.0604L57.16727 158.0604L-28.29552 158.0604z" /></clipPath><clipPath id="36"><path id="" clip-rule="evenodd" transform="matrix(1 0 0 1 0 0)" d="M-27.96199 157.9185C -17.61208 157.5884 -7.302169 155.4285 2.317749 151.5085C 12.98766 147.1785 22.79757 140.7086 31.01749 132.5986C 39.23742 124.4887 45.85736 114.7488 50.35732 104.0789C 54.28729 94.80896 56.58727 84.83905 57.16727 74.75916L57.16727 74.75916L57.16727 64.52924C 56.60727 54.83936 54.46729 45.22943 50.78732 36.21948C 46.40736 25.43958 39.86742 15.51965 31.67749 7.219727C 23.48756 -1.0802 13.63765 -7.78009 2.857742 -12.33008C -6.882169 -16.45001 -17.38207 -18.80005 -27.96199 -19.27002L-27.96199 -19.27002L-27.96199 -15.55005C -17.85208 -15.22003 -7.792159 -13.11005 1.597753 -9.2901C 12.03766 -5.050171 21.63758 1.279785 29.68751 9.209717C 37.73743 17.13965 44.21738 26.68958 48.61734 37.11951C 53.0373 47.54938 55.34728 58.87927 55.42728 70.2392C 55.50728 81.59912 53.3473 92.98901 49.04734 103.5389C 44.77737 114.0988 38.36743 123.7987 30.3475 131.9387C 22.32757 140.0786 12.68766 146.6185 2.137749 151.0785C -7.372167 155.1085 -17.62207 157.3984 -27.96199 157.8784L-27.96199 157.8784L-27.96199 157.9185zM-27.96199 145.3785C -19.25206 145.0585 -10.58214 143.2186 -2.472209 139.9286C 6.67771 136.2286 15.09764 130.6887 22.15757 123.7387C 29.21751 116.7888 34.90746 108.4388 38.77743 99.28894C 42.66739 90.13904 44.69738 80.20911 44.77737 70.2392C 44.85738 60.26929 42.97739 50.27936 39.20742 41.00946C 35.45746 31.7395 29.84751 23.2196 22.81757 16.06964C 15.78763 8.919739 7.327705 3.15979 -1.942214 -0.7601929C -10.17214 -4.250122 -19.02206 -6.270142 -27.97198 -6.730103L-27.97198 -6.730103L-27.97198 -3.020142C -19.50206 -2.700195 -11.08213 -0.9102173 -3.202203 2.279785C 5.717721 5.889771 13.93764 11.28973 20.81759 18.05963C 27.69753 24.82959 33.26748 32.99951 37.04744 41.91943C 40.83741 50.83936 42.82739 60.51929 42.90739 70.24921C 42.98739 79.97913 41.14741 89.71899 37.47744 98.75891C 33.81747 107.7989 28.34752 116.1088 21.48758 123.0887C 14.62764 130.0687 6.37771 135.6886 -2.662207 139.5086C -10.66214 142.9086 -19.27206 144.8785 -27.97198 145.3385L-27.97198 145.3385L-27.97198 145.3885L-27.97198 145.3885L-27.96199 145.3785zM-27.96199 132.8386C -20.89205 132.5187 -13.86211 131.0187 -7.272161 128.3487C 0.3677673 125.2687 7.397703 120.6588 13.29765 114.8788C 19.1976 109.0989 23.95756 102.1289 27.19753 94.48901C 30.4575 86.85907 32.16748 78.56909 32.25748 70.2392C 32.34748 61.90924 30.7775 53.55933 27.63753 45.80939C 24.51756 38.05945 19.83759 30.91956 13.95765 24.93958C 8.077698 18.95966 1.017762 14.11969 -6.732176 10.82971C -13.44211 7.969727 -20.66205 6.279785 -27.96199 5.829773L-27.96199 5.829773L-27.96199 9.529724C -21.13204 9.839722 -14.3521 11.29968 -7.992162 13.86969C -0.5822278 16.84967 6.237715 21.31964 11.96766 26.93958C 17.69761 32.55951 22.31758 39.30945 25.46755 46.71942C 28.62752 54.11932 30.2975 62.16925 30.3775 70.24921C 30.4575 78.3291 28.94752 86.43903 25.90754 93.95898C 22.87757 101.4789 18.33761 108.4089 12.63766 114.2188C 6.937705 120.0287 0.06776733 124.7188 -7.452169 127.9187C -13.93211 130.6887 -20.90204 132.3286 -27.96199 132.7786L-27.96199 132.7786L-27.96199 132.8386zM-27.96199 120.2888C -22.53203 119.9888 -17.13208 118.8088 -12.07213 116.7688C -5.952177 114.3188 -0.3122278 110.6389 4.427732 106.0089C 9.167687 101.3789 13.00765 95.81897 15.61763 89.69904C 18.22761 83.5791 19.6376 76.92914 19.71759 70.24921C 19.79759 63.56927 18.55761 56.8493 16.05763 50.61938C 13.55765 44.3894 9.817683 38.63947 5.097726 33.80951C 0.3777685 28.97955 -5.292184 25.07959 -11.53213 22.41962C -16.73208 20.18964 -22.31203 18.82965 -27.96199 18.39966L-27.96199 18.39966L-27.96199 22.0896C -22.77203 22.38959 -17.63207 23.51959 -12.79212 25.45959C -6.902164 27.80957 -1.462218 31.34955 3.097742 35.80951C 7.657705 40.26947 11.35767 45.62939 13.87765 51.51935C 16.39762 57.4093 17.74761 63.80927 17.83761 70.24921C 17.92761 76.68915 16.72762 83.15906 14.31764 89.15906C 11.90767 95.159 8.307696 100.6989 3.767735 105.3589C -0.7722253 110.0189 -6.242179 113.7788 -12.25212 116.3488C -17.22208 118.4888 -22.55203 119.7888 -27.96199 120.2188L-27.96199 120.2188L-27.96199 120.2988L-27.96199 120.2988L-27.96199 120.2888zM-27.96199 107.7389C -24.17202 107.4589 -20.41205 106.6089 -16.86208 105.1989C -12.25212 103.3789 -8.002159 100.6289 -4.422191 97.15894C -0.8422229 93.68896 2.05775 89.50903 4.047733 84.89905C 6.037716 80.28912 7.117705 75.27917 7.197707 70.2392C 7.277706 65.19922 6.357715 60.11926 4.487728 55.39935C 2.617745 50.67938 -0.202229 46.3194 -3.752197 42.65942C -7.302169 38.99945 -11.59213 36.01947 -16.31209 33.97949C -19.99205 32.37952 -23.94202 31.36951 -27.95198 30.95953L-27.95198 30.95953L-27.95198 34.62952C -24.40202 34.90948 -20.89205 35.70947 -17.57208 37.01947C -13.19211 38.74945 -9.152149 41.35944 -5.742177 44.64941C -2.332207 47.93939 0.4277637 51.91937 2.327747 56.29932C 4.227729 60.67926 5.247722 65.43921 5.327721 70.2392C 5.40772 75.03912 4.537731 79.86914 2.757748 84.35907C 0.9777612 88.849 -1.692213 92.99896 -5.072186 96.48895C -8.452152 99.97894 -12.53211 102.8189 -17.02208 104.7589C -20.48205 106.2589 -24.17202 107.2289 -27.94199 107.6288L-27.94199 107.6288L-27.94199 107.7389L-27.94199 107.7389L-27.96199 107.7389zM-27.96199 95.159C -25.812 94.91901 -23.69202 94.409 -21.66204 93.61902C -18.57207 92.42902 -15.71209 90.60901 -13.29211 88.29901C -10.87213 85.98907 -8.902152 83.18909 -7.542169 80.10913C -6.182171 77.02911 -5.432186 73.64917 -5.342186 70.24921C -5.272189 66.84924 -5.862176 63.40924 -7.102167 60.20929C -8.342156 57.00934 -10.23214 54.03931 -12.62212 51.52936C -15.0121 49.01941 -17.92207 46.98938 -21.12205 45.57941C -23.29202 44.61945 -25.602 43.95941 -27.96199 43.59943L-27.96199 43.59943L-27.96199 47.21942C -26.062 47.4494 -24.18202 47.90936 -22.38203 48.60938C -19.52206 49.70935 -16.86208 51.38934 -14.6221 53.51935C -12.38212 55.64929 -10.54213 58.24927 -9.282147 61.09924C -8.022161 63.94928 -7.312167 67.07922 -7.232164 70.2392C -7.162167 73.39917 -7.702167 76.58911 -8.852149 79.55908C -10.00214 82.52905 -11.74212 85.29907 -13.96211 87.62903C -16.18209 89.95905 -18.88206 91.85901 -21.85204 93.17902C -23.79202 94.039 -25.862 94.64899 -27.97198 94.98895L-27.97198 94.98895L-27.97198 95.14899L-27.97198 95.14899L-27.96199 95.159zM-27.96199 82.47906C -25.832 81.98907 -23.80202 80.95911 -22.15204 79.43909C -19.62205 77.14911 -18.02207 73.77917 -17.87207 70.24921C -17.70208 66.71924 -19.00206 63.07922 -21.48204 60.38928C -23.19202 58.50928 -25.46201 57.10931 -27.96199 56.38928L-27.96199 56.38928L-27.96199 59.94928C -26.32199 60.38928 -24.77201 61.20929 -23.48203 62.37927C -21.30205 64.32922 -19.90205 67.19922 -19.75206 70.2392C -19.58206 73.27917 -20.68205 76.41913 -22.81203 78.7691C -24.18202 80.28912 -25.972 81.45911 -27.96199 82.12909L-27.96199 82.12909L-27.96199 82.46912L-27.96199 82.46912L-27.96199 82.47906z" /></clipPath><clipPath id="37"><path id="" clip-rule="evenodd" transform="matrix(1 0 0 1 0 0)" d="M0 757.0277L84.60674 757.0277L84.60674 757.0277L84.60674 842.0001L84.60674 842.0001L0 842.0001z" /></clipPath><clipPath id="38"><path id="" clip-rule="evenodd" transform="matrix(1 0 0 1 0 0)" d="M0 -0.249939L595.5 -0.249939L595.5 -0.249939L595.5 842.0001L595.5 842.0001L0 842.0001z" /></clipPath><clipPath id="39"><path id="" clip-rule="evenodd" transform="matrix(1 0 0 1 0 0)" d="M0 -0.249939L595.5 -0.249939L595.5 -0.249939L595.5 842.0001L595.5 842.0001L0 842.0001z" /></clipPath><clipPath id="40"><path id="" clip-rule="evenodd" transform="matrix(1 0 0 1 0 0)" d="M775.7593 223.9236L659.356 347.1328L659.356 347.1328L536.1467 230.7296L536.1467 230.7296L652.55 107.5203L652.55 107.5203L775.7593 223.9236z" /></clipPath><clipPath id="41"><path id="" clip-rule="evenodd" transform="matrix(1 0 0 1 0 0)" d="M0 -0.249939L595.5 -0.249939L595.5 -0.249939L595.5 842.0001L595.5 842.0001L0 842.0001z" /></clipPath><clipPath id="42"><path id="" clip-rule="evenodd" transform="matrix(1 0 0 1 0 0)" d="M0 -0.249939L595.5 -0.249939L595.5 -0.249939L595.5 842.0001L595.5 842.0001L0 842.0001z" /></clipPath><clipPath id="43"><path id="" clip-rule="evenodd" transform="matrix(1 0 0 1 0 0)" d="M522.4744 733.6544L607.9372 733.6544L607.9372 733.6544L607.9372 911.2307L607.9372 911.2307L522.4744 911.2307z" /></clipPath><clipPath id="44"><path id="" clip-rule="evenodd" transform="matrix(1 0 0 1 0 0)" d="M607.6037 733.7964C 597.2538 734.1263 586.9438 736.2863 577.3239 740.2063C 566.6541 744.5363 556.8441 751.0062 548.6241 759.1161C 540.4043 767.226 533.7843 776.9659 529.2844 787.6359C 525.3544 796.9058 523.0544 806.8757 522.4744 816.9556L522.4744 816.9556L522.4744 827.1855C 523.0344 836.8754 525.1744 846.4854 528.8544 855.4953C 533.2343 866.2752 539.7743 876.1951 547.9642 884.4951C 556.1541 892.795 566.004 899.4949 576.784 904.0449C 586.5239 908.1648 597.0238 910.5148 607.6037 910.9848L607.6037 910.9848L607.6037 907.2648C 597.4938 906.9348 587.4338 904.8248 578.0439 901.0049C 567.604 896.765 558.0041 890.435 549.9542 882.5051C 541.9042 874.5751 535.4243 865.0252 531.0244 854.5953C 526.6044 844.1653 524.2944 832.8355 524.2144 821.4756C 524.1344 810.1157 526.2944 798.7258 530.5944 788.1759C 534.8643 777.616 541.2743 767.916 549.2942 759.7761C 557.3141 751.6362 566.954 745.0963 577.5039 740.6363C 587.0139 736.6063 597.2638 734.3163 607.6037 733.8363L607.6037 733.8363L607.6037 733.7964zM607.6037 746.3362C 598.8937 746.6563 590.2239 748.4963 582.1139 751.7862C 572.9639 755.4861 564.544 761.0261 557.4841 767.976C 550.4242 774.926 544.7343 783.2759 540.8643 792.4258C 536.9742 801.5757 534.9443 811.5057 534.8643 821.4756C 534.7843 831.4455 536.6643 841.4354 540.4343 850.7053C 544.1842 859.9753 549.7942 868.4952 556.8242 875.6451C 563.854 882.795 572.314 888.555 581.5839 892.4749C 589.8138 895.965 598.6638 897.9849 607.6136 898.4449L607.6136 898.4449L607.6136 894.7349C 599.1437 894.415 590.7238 892.625 582.8439 889.4349C 573.924 885.825 565.704 880.425 558.8241 873.6552C 551.9442 866.8851 546.3742 858.7153 542.5942 849.7953C 538.8043 840.8754 536.8143 831.1955 536.7343 821.4656C 536.6543 811.7357 538.4943 801.9957 542.1642 792.9559C 545.8242 783.916 551.2942 775.606 558.1541 768.626C 565.0141 761.6461 573.264 756.0261 582.3039 752.2062C 590.3038 748.8062 598.9138 746.8362 607.6136 746.3763L607.6136 746.3763L607.6136 746.3262L607.6136 746.3262L607.6037 746.3362zM607.6037 758.8762C 600.5337 759.1961 593.5038 760.6961 586.9138 763.3661C 579.2739 766.4461 572.244 771.056 566.3441 776.836C 560.4441 782.6159 555.6841 789.5859 552.4442 797.2258C 549.1842 804.8557 547.4742 813.1457 547.3842 821.4756C 547.2942 829.8055 548.8642 838.1554 552.0042 845.9054C 555.1241 853.6553 559.8041 860.7953 565.684 866.7752C 571.564 872.7551 578.624 877.5951 586.3739 880.8851C 593.0838 883.7451 600.3037 885.435 607.6037 885.885L607.6037 885.885L607.6037 882.1851C 600.7737 881.8751 593.9938 880.415 587.6339 877.8451C 580.2239 874.8651 573.404 870.3951 567.6741 864.7752C 561.944 859.1552 557.3241 852.4053 554.1742 844.9954C 551.0142 837.5955 549.3442 829.5455 549.2642 821.4656C 549.1842 813.3857 550.6942 805.2757 553.7341 797.7558C 556.7641 790.2358 561.3041 783.3059 567.004 777.496C 572.704 771.686 579.5739 766.996 587.0938 763.7961C 593.5738 761.0261 600.5438 759.3861 607.6037 758.9362L607.6037 758.9362L607.6037 758.8762zM607.6037 771.426C 602.1737 771.726 596.7737 772.906 591.7138 774.946C 585.5939 777.396 579.9539 781.076 575.2139 785.7059C 570.474 790.3359 566.634 795.8958 564.024 802.0158C 561.4141 808.1357 560.0041 814.7856 559.9241 821.4656C 559.8441 828.1456 561.084 834.8655 563.5841 841.0954C 566.084 847.3254 569.824 853.0753 574.5439 857.9053C 579.2639 862.7352 584.9339 866.6352 591.1738 869.2952C 596.3737 871.5251 601.9537 872.8851 607.6037 873.3151L607.6037 873.3151L607.6037 869.6252C 602.4137 869.3252 597.2737 868.1952 592.4338 866.2552C 586.5439 863.9052 581.1039 860.3652 576.5439 855.9053C 571.9839 851.4454 568.284 846.0854 565.764 840.1954C 563.2441 834.3055 561.894 827.9056 561.8041 821.4656C 561.7141 815.0256 562.9141 808.5557 565.324 802.5558C 567.7341 796.5558 571.334 791.0159 575.874 786.3559C 580.4139 781.6959 585.8839 777.936 591.8939 775.366C 596.8638 773.226 602.1937 771.926 607.6037 771.496L607.6037 771.496L607.6037 771.416L607.6037 771.416L607.6037 771.426zM607.6037 783.976C 603.8137 784.2559 600.0537 785.1059 596.5038 786.5159C 591.8939 788.3359 587.6439 791.0858 584.0639 794.5558C 580.4839 798.0258 577.5839 802.2057 575.5939 806.8157C 573.6039 811.4257 572.524 816.4357 572.444 821.4756C 572.364 826.5155 573.284 831.5955 575.1539 836.3154C 577.024 841.0354 579.8439 845.3954 583.3939 849.0553C 586.9438 852.7153 591.2338 855.6953 595.9538 857.7353C 599.6337 859.3353 603.5837 860.3453 607.5937 860.7552L607.5937 860.7552L607.5937 857.0853C 604.0437 856.8053 600.5337 856.0053 597.2137 854.6953C 592.8338 852.9653 588.7938 850.3553 585.3839 847.0654C 581.9739 843.7754 579.2139 839.7954 577.314 835.4155C 575.4139 831.0355 574.394 826.2755 574.314 821.4756C 574.2339 816.6757 575.1039 811.8456 576.8839 807.3557C 578.6639 802.8657 581.3339 798.7158 584.7139 795.2258C 588.0939 791.7358 592.1738 788.8959 596.6638 786.9559C 600.1237 785.4559 603.8137 784.486 607.5837 784.0859L607.5837 784.0859L607.5837 783.976L607.5837 783.976L607.6037 783.976zM607.6037 796.5558C 605.4537 796.7958 603.3337 797.3058 601.3037 798.0958C 598.2137 799.2858 595.3538 801.1058 592.9338 803.4158C 590.5139 805.7257 588.5439 808.5257 587.1838 811.6057C 585.8239 814.6856 585.0739 818.0656 584.9839 821.4656C 584.9139 824.8655 585.5039 828.3055 586.7438 831.5055C 587.9838 834.7054 589.8738 837.6755 592.2638 840.1854C 594.6537 842.6954 597.5638 844.7253 600.7637 846.1354C 602.9337 847.0953 605.2437 847.7554 607.6037 848.1154L607.6037 848.1154L607.6037 844.4954C 605.7037 844.2654 603.8237 843.8054 602.0237 843.1054C 599.1638 842.0054 596.5038 840.3254 594.2638 838.1954C 592.0238 836.0654 590.1838 833.4655 588.9238 830.6155C 587.6638 827.7655 586.9539 824.6356 586.8739 821.4756C 586.8038 818.3156 587.3439 815.1257 588.4938 812.1556C 589.6439 809.1857 591.3839 806.4157 593.6038 804.0858C 595.8238 801.7557 598.5238 799.8558 601.4937 798.5358C 603.4337 797.6758 605.5037 797.0658 607.6136 796.7258L607.6136 796.7258L607.6136 796.5658L607.6136 796.5658L607.6037 796.5558zM607.6037 809.2357C 605.4737 809.7256 603.4437 810.7557 601.7937 812.2757C 599.2637 814.5656 597.6638 817.9356 597.5137 821.4656C 597.3438 824.9955 598.6438 828.6355 601.1237 831.3255C 602.8337 833.2054 605.1037 834.6055 607.6037 835.3254L607.6037 835.3254L607.6037 831.7654C 605.9637 831.3255 604.4137 830.5055 603.1237 829.3355C 600.9437 827.3856 599.5437 824.5156 599.3938 821.4756C 599.2238 818.4356 600.3237 815.2957 602.4537 812.9457C 603.8237 811.4257 605.6136 810.2557 607.6037 809.5857L607.6037 809.5857L607.6037 809.2457L607.6037 809.2457L607.6037 809.2357z" /></clipPath><clipPath id="45"><path id="" clip-rule="evenodd" transform="matrix(1 0 0 1 0 0)" d="M0 -0.249939L595.5 -0.249939L595.5 -0.249939L595.5 842.0001L595.5 842.0001L0 842.0001z" /></clipPath></defs><g transform="matrix(1.333333 0 0 1.333333 0 0)"><g clip-path="url(#1)"><g clip-path="url(#2)"><path id="1" transform="matrix(1 0 0 -1 0 842)" d="M0 842.2499L595.4999 842.2499L595.4999 -6.103516E-05L0 -6.103516E-05z" stroke="none" fill="#FFFFFF" fill-rule="nonzero" /></g><g clip-path="url(#3)"><path id="2" transform="matrix(1 0 0 -1 0 842)" d="M0 842.2499L595.4999 842.2499L595.4999 -6.103516E-05L0 -6.103516E-05z" stroke="none" fill="#FFFFFF" fill-rule="nonzero" /></g><g clip-path="url(#4)"><g><g clip-path="url(#5)"><g clip-path="url(#6)"><g transform="matrix(0 0.5128205 -0.5127462 0 518.9271 30.75189)"><g transform="matrix(1 0 0 1 0 0)"><image x="0" y="0" xlink:href="img_01.png" width="1521" height="863" /></g></g></g></g></g></g><g clip-path="url(#7)"><g clip-path="url(#8)"><g clip-path="url(#9)"><g clip-path="url(#10)"><g clip-path="url(#11)"><g transform="matrix(0.6946201 0 0 0.6949429 139.2457 192.8228)"><g transform="matrix(1 0 0 1 0 0)"><image x="0" y="0" xlink:href="img_02.png" width="474" height="613" /></g></g></g></g></g></g></g><g clip-path="url(#12)"><g transform="matrix(0.0586785 0 0 0.05822711 490.4886 20.63422)"><g transform="matrix(1 0 0 1 0 0)"><image x="0" y="0" xlink:href="img_03.png" width="1521" height="863" /></g></g></g><g clip-path="url(#13)"><g clip-path="url(#14)"><g clip-path="url(#15)"><g clip-path="url(#16)"><g clip-path="url(#17)"><g clip-path="url(#18)"><g clip-path="url(#19)"><path id="6" transform="matrix(1 0 0 -1 0 842)" d="M387.6908 203.9344C 387.6908 187.6656 374.5635 174.5383 358.2947 174.5383L358.2947 174.5383L249.4619 174.5383C 233.1931 174.4261 220.0658 187.6656 220.0658 203.9344C 220.0658 220.2032 233.1931 233.3305 249.4619 233.3305L249.4619 233.3305L358.1826 233.3305C 374.5635 233.3305 387.6908 220.2032 387.6908 203.9344z" stroke="none" fill="#7ED957" fill-rule="nonzero" /></g></g></g></g></g></g></g><g clip-path="url(#20)"><g clip-path="url(#21)"><g clip-path="url(#22)"><g clip-path="url(#23)"><g clip-path="url(#24)"><g clip-path="url(#25)"><g clip-path="url(#26)"><path id="7" transform="matrix(1 0 0 -1 0 842)" d="M220.0658 203.8783C 220.0658 187.3907 233.4338 174.0248 249.924 174.0248L249.924 174.0248L357.8326 174.0248C 374.3228 174.0248 387.6908 187.3907 387.6908 203.8783C 387.6908 220.366 374.3228 233.7318 357.8326 233.7318L357.8326 233.7318L249.924 233.7318C 233.4338 233.7318 220.0658 220.366 220.0658 203.8783z" stroke="#000000" stroke-width="3" fill="none" /></g></g></g></g></g></g></g><g clip-path="url(#27)"></g><g clip-path="url(#28)"><g clip-path="url(#29)"><g clip-path="url(#30)"><g clip-path="url(#31)"><g clip-path="url(#32)"><path id="25" transform="matrix(1 0 0 -1 0 842)" d="M365.2678 185.6257C 364.9145 186.0359 364.9571 186.6541 365.3634 187.0062L365.3634 187.0062L368.9009 190.077C 369.3072 190.4291 369.9231 190.3825 370.2764 189.9723C 370.6297 189.562 370.5872 188.9439 370.1808 188.5917L370.1808 188.5917L366.6433 185.5209C 366.2381 185.1668 365.6211 185.2154 365.2678 185.6257zM360.1252 188.2023C 359.5868 188.2373 359.1764 188.7011 359.2079 189.2414L359.2079 189.2414L359.4802 193.942C 359.5117 194.4823 359.9709 194.8915 360.5093 194.8565C 361.0476 194.8214 361.458 194.3577 361.4266 193.8174L361.4266 193.8174L361.1562 189.1178C 361.1247 188.5775 360.6635 188.1673 360.1252 188.2023zM353.8602 175.3543C 354.2135 174.9441 354.171 174.3259 353.7647 173.9738L353.7647 173.9738L350.2272 170.903C 349.8209 170.5508 349.2049 170.5974 348.8517 171.0077C 348.4984 171.4179 348.5409 172.0361 348.9472 172.3882L348.9472 172.3882L352.4847 175.459C 352.8911 175.8112 353.507 175.7645 353.8602 175.3543zM351.8152 181.0289C 351.7838 180.4886 351.3245 180.0794 350.7862 180.1144L350.7862 180.1144L346.101 180.4167C 345.5627 180.4517 345.1523 180.9155 345.1837 181.4558C 345.2152 181.9961 345.6745 182.4053 346.2128 182.3703L346.2128 182.3703L350.8949 182.0689C 351.4352 182.0349 351.8447 181.5681 351.8152 181.0289zM354.5119 186.3115C 354.1055 185.9593 353.4896 186.0059 353.1364 186.4162L353.1364 186.4162L350.0575 189.9888C 349.7043 190.3991 349.7468 191.0172 350.1531 191.3694C 350.5594 191.7215 351.1753 191.6749 351.5286 191.2647L351.5286 191.2647L354.6094 187.6931C 354.9607 187.2818 354.9182 186.6636 354.5119 186.3115zM394.2781 161.1202C 394.8916 158.7744 394.2289 156.0847 392.6286 154.2846C 391.7083 153.2498 390.5139 152.494 389.299 151.8553C 388.0115 151.1771 386.6757 150.5828 385.3589 149.9629C 384.6906 149.6476 384.0214 149.3343 383.3519 149.0261C 382.7188 148.7351 382.096 148.4112 381.4552 148.1391C 380.9445 147.9224 380.4182 147.7999 379.8631 147.9078C 379.2656 148.0234 378.6799 148.2481 378.0962 148.4225C 375.2566 149.2711 372.4171 150.1197 369.5775 150.9682C 367.0511 151.7232 364.5247 152.4782 361.9982 153.2332C 361.6638 153.3331 361.3387 153.4253 361.0351 153.6087C 360.6321 153.8533 360.3061 154.2041 360.0838 154.6216C 359.611 155.513 359.6866 156.7057 360.3875 157.4517C 360.8072 157.9008 361.3702 158.1896 361.9817 158.2585C 362.2979 158.2948 362.6318 158.2613 362.9497 158.2524C 363.2726 158.2436 363.5956 158.2349 363.9196 158.2242C 365.2093 158.1881 366.4971 158.151 367.7868 158.115C 367.8901 158.1123 367.9934 158.1095 368.0967 158.1068C 368.521 158.0943 368.8068 158.5603 368.6021 158.9361C 368.3403 159.4167 368.0785 159.8972 367.8167 160.3778C 367.1595 161.5843 366.5012 162.7927 365.844 163.9991C 364.9821 165.5813 364.1192 167.1655 363.2573 168.7477C 362.3814 170.3556 361.5055 171.9636 360.6307 173.5695C 359.9358 174.8452 359.2409 176.1208 358.5461 177.3965C 358.2153 178.0036 357.8826 178.6097 357.5538 179.218C 357.1623 179.946 357.1034 180.8064 357.4453 181.5619C 357.9842 182.7454 359.3563 183.3338 360.59 182.9287C 361.3215 182.6886 361.804 182.1487 362.1616 181.4921C 362.4116 181.0332 362.6615 180.5744 362.9115 180.1156C 363.7572 178.563 364.6029 177.0105 365.4475 175.4599C 366.0864 174.2871 366.7253 173.1143 367.3642 171.9415C 367.3976 171.8802 367.432 171.8169 367.4654 171.7556C 367.8123 171.1187 368.7859 171.6491 368.4469 172.2902C 367.6684 173.7614 368.4463 175.6367 370.0773 176.0302C 370.9728 176.2461 371.9304 175.96 372.5642 175.2871C 372.913 174.9179 373.1312 174.4239 373.3714 173.9828C 373.616 173.5339 373.8595 173.0869 374.104 172.6379C 374.4509 172.0011 375.4245 172.5314 375.0854 173.1726C 374.3059 174.6457 375.0882 176.5132 376.719 176.9117C 377.6114 177.1285 378.5732 176.8394 379.2059 176.1685C 379.5472 175.8082 379.7568 175.33 379.9917 174.8988C 380.2384 174.4459 380.4851 173.993 380.7319 173.5401C 381.0788 172.9032 382.0523 173.4336 381.7133 174.0747C 381.114 175.2075 381.4059 176.6668 382.4635 177.4122C 383.7201 178.2967 385.4676 177.8689 386.222 176.5308C 387.6333 173.9399 389.0436 171.351 390.4549 168.7601C 391.1778 167.4331 391.9018 166.104 392.6247 164.7769C 393.2677 163.6012 393.9389 162.4204 394.2781 161.1202zM392.7764 166.8394C 391.2875 169.5727 389.7997 172.304 388.3108 175.0373C 387.9434 175.7117 387.5749 176.3881 387.2076 177.0625C 386.393 178.5064 384.7098 179.2975 383.0907 178.9054C 381.8142 178.5947 380.8138 177.6138 380.4412 176.3773C 380.2675 176.6494 380.0683 176.9076 379.8235 177.1281C 378.9148 177.9411 377.6501 178.2909 376.4649 178.0043C 375.4286 177.7527 374.5042 177.0337 374.0413 176.066C 373.9494 175.8749 373.8757 175.6783 373.8173 175.4772C 373.6393 175.7573 373.4369 176.0214 373.1857 176.2488C 372.2864 177.054 371.0478 177.4026 369.8698 177.1354C 368.8151 176.8942 367.8731 176.1657 367.4036 175.1867C 367.3154 175.0027 367.2435 174.8123 367.1858 174.6192C 367.1212 174.7379 367.0576 174.8546 366.993 174.9733C 366.1084 176.597 365.2239 178.2207 364.3405 179.8425C 364.013 180.4437 363.6866 181.043 363.359 181.6442C 363.1446 182.0378 362.9444 182.4288 362.6693 182.7842C 361.6616 184.0921 359.8446 184.5026 358.3541 183.8933C 357.0589 183.3647 356.1825 182.0717 356.1117 180.6739C 356.0569 179.5875 356.5556 178.7281 357.0491 177.8223C 357.6491 176.7207 358.2503 175.6171 358.8504 174.5155C 359.709 172.9392 360.5677 171.3629 361.4253 169.7886C 362.3335 168.1214 363.2417 166.4541 364.151 164.7849C 364.9008 163.4084 365.6496 162.0338 366.3994 160.6573C 366.6526 160.1925 366.9001 159.7195 367.1533 159.2548C 366.3308 159.2786 365.5064 159.3015 364.6851 159.3234C 364.2408 159.3353 363.7955 159.3491 363.3492 159.36C 362.6201 159.3808 361.874 159.4514 361.1714 159.2226C 359.797 158.7739 358.8403 157.6193 358.6922 156.1717C 358.5735 155.0298 359.0505 153.8176 359.9151 153.0576C 360.5837 152.4703 361.3686 152.249 362.1955 152.0019C 363.6244 151.5749 365.0564 151.147 366.4853 150.72C 369.4768 149.826 372.4654 148.9329 375.457 148.0389C 376.2018 147.8163 376.9436 147.5947 377.6885 147.3721C 378.3087 147.1867 378.9276 146.9571 379.5618 146.8255C 380.2181 146.6906 380.849 146.724 381.4808 146.9425C 382.1789 147.1843 382.8295 147.5413 383.5001 147.8475C 384.9101 148.4925 386.3124 149.1564 387.7136 149.8222C 389.0627 150.4622 390.4234 151.0855 391.6488 151.9479C 392.8264 152.7766 393.8443 153.7722 394.537 155.0472C 395.1595 156.1941 395.5225 157.4715 395.6109 158.7764C 395.7076 160.2063 395.405 161.57 394.8469 162.8842C 394.2567 164.2528 393.4842 165.5401 392.7764 166.8394z" stroke="none" fill="#000000" fill-rule="nonzero" /></g></g></g></g></g><g clip-path="url(#33)"><g clip-path="url(#34)"><g clip-path="url(#35)"><g clip-path="url(#36)"><path id="26" transform="matrix(1 0 0 -1 0 842)" d="M57.16726 680.2816L-27.96299 680.2816L-27.96299 861.5159L57.16726 861.5159z" stroke="none" fill="#09A459" fill-rule="nonzero" /></g></g></g></g><g clip-path="url(#37)"><g transform="matrix(0 -0.2400849 0.240085 0 -84.89326 926.5277)"><g transform="matrix(1 0 0 1 0 0)"><image x="0" y="0" xlink:href="img_04.png" width="706" height="706" /></g></g></g><g clip-path="url(#38)"><g clip-path="url(#39)"><g clip-path="url(#40)"><g transform="matrix(-0.1648771 0.1745174 -0.1745174 -0.1648771 775.7592 223.9236)"><g transform="matrix(1 0 0 1 0 0)"><image x="0" y="0" xlink:href="img_04.png" width="706" height="706" /></g></g></g></g></g><g clip-path="url(#41)"><g clip-path="url(#42)"><g clip-path="url(#43)"><g clip-path="url(#44)"><path id="29" transform="matrix(1 0 0 -1 0 842)" d="M522.4744 112.0036L607.6046 112.0036L607.6046 -69.23073L522.4744 -69.23073z" stroke="none" fill="#09A459" fill-rule="nonzero" /></g></g></g></g><g clip-path="url(#45)"></g></g></g></svg>