<svg xmlns="http://www.w3.org/2000/svg" xmlns:xlink="http://www.w3.org/1999/xlink" id="body_1" preserveAspectRatio="xMinYMin meet" viewBox="0 0 793 1123"><defs><clipPath id="1"><path id="" clip-rule="evenodd" transform="matrix(1 0 0 1 0 0)" d="M0 842L0 -0.25L0 -0.25L595.5 -0.25L595.5 -0.25L595.5 842L595.5 842L0 842z" /></clipPath><clipPath id="2"><path id="" clip-rule="evenodd" transform="matrix(1 0 0 1 0 0)" d="M0 -0.249939L595.5 -0.249939L595.5 -0.249939L595.5 842.0001L595.5 842.0001L0 842.0001z" /></clipPath><clipPath id="3"><path id="" clip-rule="evenodd" transform="matrix(1 0 0 1 0 0)" d="M0 -0.249939L595.5 -0.249939L595.5 -0.249939L595.5 842.0001L595.5 842.0001L0 842.0001z" /></clipPath><clipPath id="4"><path id="" clip-rule="evenodd" transform="matrix(1 0 0 1 0 0)" d="M0 -0.249939L595.5 -0.249939L595.5 -0.249939L595.5 842.0001L595.5 842.0001L0 842.0001z" /></clipPath><clipPath id="5"><path id="" clip-rule="evenodd" transform="matrix(1 0 0 1 0 0)" d="M78.71999 30.71008L522.24 30.71008L522.24 30.71008L522.24 810.9501L522.24 810.9501L78.71999 810.9501z" /></clipPath><clipPath id="6"><path id="" clip-rule="evenodd" transform="matrix(1 0 0 1 0 0)" d="M79.51787 30.75183L522.0178 30.75183L522.0178 30.75183L522.0178 810.7518L522.0178 810.7518L79.51787 810.7518z" /></clipPath><clipPath id="7"><path id="" clip-rule="evenodd" transform="matrix(1 0 0 1 0 0)" d="M0 -0.249939L595.5 -0.249939L595.5 -0.249939L595.5 842.0001L595.5 842.0001L0 842.0001z" /></clipPath><clipPath id="8"><path id="" clip-rule="evenodd" transform="matrix(1 0 0 1 0 0)" d="M0 -0.249939L595.5 -0.249939L595.5 -0.249939L595.5 842.0001L595.5 842.0001L0 842.0001z" /></clipPath><clipPath id="9"><path id="" clip-rule="evenodd" transform="matrix(1 0 0 1 0 0)" d="M549.8673 678.4644L729.2595 867.0074L729.2595 867.0074L430.9594 1150.83L430.9594 1150.83L251.5671 962.2866L251.5671 962.2866L549.8673 678.4644z" /></clipPath><clipPath id="10"><path id="" clip-rule="evenodd" transform="matrix(1 0 0 1 0 0)" d="M604.4391 626.5411L1056.28 1101.431L1056.28 1101.431L662.35 1476.241L662.35 1476.241L210.5091 1001.352L210.5091 1001.352L604.4391 626.5411z" /></clipPath><clipPath id="11"><path id="" clip-rule="evenodd" transform="matrix(1 0 0 1 0 0)" d="M0 -0.249939L595.5 -0.249939L595.5 -0.249939L595.5 842.0001L595.5 842.0001L0 842.0001z" /></clipPath><clipPath id="12"><path id="" clip-rule="evenodd" transform="matrix(1 0 0 1 0 0)" d="M0 -0.249939L595.5 -0.249939L595.5 -0.249939L595.5 842.0001L595.5 842.0001L0 842.0001z" /></clipPath><clipPath id="13"><path id="" clip-rule="evenodd" transform="matrix(1 0 0 1 0 0)" d="M2.389017 220.5653L-171.8083 68.85406L-171.8083 68.85406L53.29568 -189.614L53.29568 -189.614L227.493 -37.90283L227.493 -37.90283L2.389017 220.5653z" /></clipPath><clipPath id="14"><path id="" clip-rule="evenodd" transform="matrix(1 0 0 1 0 0)" d="M-36.16412 264.8326L-448.4688 -94.25006L-448.4688 -94.25006L-150.9572 -435.8578L-150.9572 -435.8578L261.3475 -76.77509L261.3475 -76.77509L-36.16412 264.8326z" /></clipPath><clipPath id="15"><path id="" clip-rule="evenodd" transform="matrix(1 0 0 1 0 0)" d="M501.1008 24.86218L582.8508 24.86218L582.8508 24.86218L582.8508 71.36218L582.8508 71.36218L501.1008 71.36218z" /></clipPath><clipPath id="16"><path id="" clip-rule="evenodd" transform="matrix(1 0 0 1 0 0)" d="M51.03807 24.86218L156.0381 24.86218L156.0381 24.86218L156.0381 117.1122L156.0381 117.1122L51.03807 117.1122z" /></clipPath><clipPath id="17"><path id="" clip-rule="evenodd" transform="matrix(1 0 0 1 0 0)" d="M0 -0.249939L595.5 -0.249939L595.5 -0.249939L595.5 842.0001L595.5 842.0001L0 842.0001z" /></clipPath><clipPath id="18"><path id="" clip-rule="evenodd" transform="matrix(1 0 0 1 0 0)" d="M0 -0.249939L595.5 -0.249939L595.5 -0.249939L595.5 842.0001L595.5 842.0001L0 842.0001z" /></clipPath><clipPath id="19"><path id="" clip-rule="evenodd" transform="matrix(1 0 0 1 0 0)" d="M129.3554 106.4064L518.719 106.4064L518.719 106.4064L518.719 182.3219L518.719 182.3219L129.3554 182.3219z" /></clipPath><clipPath id="20"><path id="" clip-rule="evenodd" transform="matrix(1 0 0 1 0 0)" d="M167.3131 106.4064L480.7515 106.4064C 490.8186 106.4064 500.4733 110.4055 507.5917 117.524C 514.7101 124.6425 518.7093 134.2971 518.7093 144.3641C 518.7093 154.4312 514.7101 164.0859 507.5917 171.2043C 500.4733 178.3228 490.8186 182.3219 480.7515 182.3219L480.7515 182.3219L167.3131 182.3219C 157.2461 182.3219 147.5914 178.3228 140.4729 171.2043C 133.3545 164.0859 129.3554 154.4312 129.3554 144.3641C 129.3554 134.2971 133.3545 124.6425 140.4729 117.524C 147.5914 110.4055 157.2461 106.4064 167.3131 106.4064z" /></clipPath><clipPath id="21"><path id="" clip-rule="evenodd" transform="matrix(1 0 0 1 0 0)" d="M0 -0.249939L595.5 -0.249939L595.5 -0.249939L595.5 842.0001L595.5 842.0001L0 842.0001z" /></clipPath><clipPath id="22"><path id="" clip-rule="evenodd" transform="matrix(1 0 0 1 0 0)" d="M0 -0.249939L595.5 -0.249939L595.5 -0.249939L595.5 842.0001L595.5 842.0001L0 842.0001z" /></clipPath><clipPath id="23"><path id="" clip-rule="evenodd" transform="matrix(1 0 0 1 0 0)" d="M303.2693 323.4312L470.5193 323.4312L470.5193 323.4312L470.5193 383.4311L470.5193 383.4311L303.2693 383.4311z" /></clipPath><clipPath id="24"><path id="" clip-rule="evenodd" transform="matrix(1 0 0 1 0 0)" d="M303.2693 353.097C 303.2693 360.9649 306.3948 368.5105 311.9582 374.074C 317.5216 379.6374 325.0673 382.7629 332.9352 382.7629L332.9352 382.7629L440.1487 382.7629C 448.0166 382.7629 455.5622 379.6374 461.1256 374.074C 466.6891 368.5105 469.8146 360.9649 469.8146 353.097C 469.8146 345.2292 466.6891 337.6835 461.1256 332.1201C 455.5622 326.5566 448.0166 323.4312 440.1487 323.4312L440.1487 323.4312L332.9352 323.4312C 325.0673 323.4312 317.5216 326.5566 311.9582 332.1201C 306.3948 337.6835 303.2693 345.2292 303.2693 353.097z" /></clipPath><clipPath id="25"><path id="" clip-rule="evenodd" transform="matrix(1 0 0 1 0 0)" d="M304.0193 324.1812L469.0193 324.1812L469.0193 324.1812L469.0193 381.9311L469.0193 381.9311L304.0193 381.9311z" /></clipPath><clipPath id="26"><path id="" clip-rule="evenodd" transform="matrix(1 0 0 1 0 0)" d="M332.9352 324.3311L440.1487 324.3311C 447.7779 324.3311 455.0946 327.3618 460.4893 332.7565C 465.8839 338.1511 468.9146 345.4678 468.9146 353.097C 468.9146 360.7262 465.8839 368.0429 460.4893 373.4376C 455.0946 378.8322 447.7779 381.8629 440.1487 381.8629L440.1487 381.8629L332.9352 381.8629C 325.306 381.8629 317.9892 378.8322 312.5946 373.4376C 307.1999 368.0429 304.1693 360.7262 304.1693 353.097C 304.1693 345.4678 307.1999 338.1511 312.5946 332.7565C 317.9892 327.3618 325.306 324.3311 332.9352 324.3311z" /></clipPath><clipPath id="27"><path id="" clip-rule="evenodd" transform="matrix(1 0 0 1 0 0)" d="M303.2693 323.4312L469.7693 323.4312L469.7693 323.4312L469.7693 382.6811L469.7693 382.6811L303.2693 382.6811z" /></clipPath><clipPath id="28"><path id="" clip-rule="evenodd" transform="matrix(1 0 0 1 0 0)" d="M0 -0.249939L595.5 -0.249939L595.5 -0.249939L595.5 842.0001L595.5 842.0001L0 842.0001z" /></clipPath><clipPath id="29"><path id="" clip-rule="evenodd" transform="matrix(1 0 0 1 0 0)" d="M0 -0.249939L595.5 -0.249939L595.5 -0.249939L595.5 842.0001L595.5 842.0001L0 842.0001z" /></clipPath><clipPath id="30"><path id="" clip-rule="evenodd" transform="matrix(1 0 0 1 0 0)" d="M303.2693 323.4312L470.5193 323.4312L470.5193 323.4312L470.5193 383.4311L470.5193 383.4311L303.2693 383.4311z" /></clipPath><clipPath id="31"><path id="" clip-rule="evenodd" transform="matrix(1 0 0 1 0 0)" d="M303.2693 353.097C 303.2693 360.9649 306.3948 368.5105 311.9582 374.074C 317.5216 379.6374 325.0673 382.7629 332.9352 382.7629L332.9352 382.7629L440.1487 382.7629C 448.0166 382.7629 455.5622 379.6374 461.1256 374.074C 466.6891 368.5105 469.8146 360.9649 469.8146 353.097C 469.8146 345.2292 466.6891 337.6835 461.1256 332.1201C 455.5622 326.5566 448.0166 323.4312 440.1487 323.4312L440.1487 323.4312L332.9352 323.4312C 325.0673 323.4312 317.5216 326.5566 311.9582 332.1201C 306.3948 337.6835 303.2693 345.2292 303.2693 353.097z" /></clipPath><clipPath id="32"><path id="" clip-rule="evenodd" transform="matrix(1 0 0 1 0 0)" d="M303.2693 323.4312L469.7693 323.4312L469.7693 323.4312L469.7693 382.6811L469.7693 382.6811L303.2693 382.6811z" /></clipPath><clipPath id="33"><path id="" clip-rule="evenodd" transform="matrix(1 0 0 1 0 0)" d="M303.2693 323.4312L470.509 323.4312L470.509 323.4312L470.509 383.4195L470.509 383.4195L303.2693 383.4195z" /></clipPath><clipPath id="34"><path id="" clip-rule="evenodd" transform="matrix(1 0 0 1 0 0)" d="M303.2693 353.0913C 303.2693 360.9576 306.3946 368.5018 311.9577 374.0642C 317.5208 379.6266 325.0659 382.7514 332.9333 382.7514L332.9333 382.7514L440.1404 382.7514C 448.0078 382.7514 455.5529 379.6266 461.116 374.0642C 466.6791 368.5018 469.8044 360.9576 469.8044 353.0913C 469.8044 345.2249 466.6791 337.6808 461.116 332.1184C 455.5529 326.556 448.0078 323.4312 440.1404 323.4312L440.1404 323.4312L332.9333 323.4312C 325.0659 323.4312 317.5208 326.556 311.9577 332.1184C 306.3946 337.6808 303.2693 345.2249 303.2693 353.0913z" /></clipPath><clipPath id="35"><path id="" clip-rule="evenodd" transform="matrix(1 0 0 1 0 0)" d="M0 -0.249939L595.5 -0.249939L595.5 -0.249939L595.5 842.0001L595.5 842.0001L0 842.0001z" /></clipPath><clipPath id="36"><path id="" clip-rule="evenodd" transform="matrix(1 0 0 1 0 0)" d="M0 -0.249939L595.5 -0.249939L595.5 -0.249939L595.5 842.0001L595.5 842.0001L0 842.0001z" /></clipPath><clipPath id="37"><path id="" clip-rule="evenodd" transform="matrix(1 0 0 1 0 0)" d="M0 -0.249939L595.5 -0.249939L595.5 -0.249939L595.5 842.0001L595.5 842.0001L0 842.0001z" /></clipPath><clipPath id="38"><path id="" clip-rule="evenodd" transform="matrix(1 0 0 1 0 0)" d="M437.1438 360.1539L464.1472 345.4442L464.1472 345.4442L486.0324 385.6201L486.0324 385.6201L459.029 400.3298L459.029 400.3298L437.1438 360.1539z" /></clipPath><clipPath id="39"><path id="" clip-rule="evenodd" transform="matrix(1 0 0 1 0 0)" d="M437.1438 360.1539L464.1472 345.4442L464.1472 345.4442L486.0324 385.6201L486.0324 385.6201L459.029 400.3298L459.029 400.3298L437.1438 360.1539z" /></clipPath><clipPath id="40"><path id="" clip-rule="evenodd" transform="matrix(1 0 0 1 0 0)" d="M437.1438 360.1539L464.1472 345.4442L464.1472 345.4442L486.0324 385.6201L486.0324 385.6201L459.029 400.3298L459.029 400.3298L437.1438 360.1539z" /></clipPath><clipPath id="41"><path id="" clip-rule="evenodd" transform="matrix(1 0 0 1 0 0)" d="M0 -0.249939L595.5 -0.249939L595.5 -0.249939L595.5 842.0001L595.5 842.0001L0 842.0001z" /></clipPath><clipPath id="42"><path id="" clip-rule="evenodd" transform="matrix(1 0 0 1 0 0)" d="M0 -0.249939L595.5 -0.249939L595.5 -0.249939L595.5 842.0001L595.5 842.0001L0 842.0001z" /></clipPath><clipPath id="43"><path id="" clip-rule="evenodd" transform="matrix(1 0 0 1 0 0)" d="M363.0627 411.3117L516.7984 411.3117L516.7984 411.3117L516.7984 466.3935L516.7984 466.3935L363.0627 466.3935z" /></clipPath><clipPath id="44"><path id="" clip-rule="evenodd" transform="matrix(1 0 0 1 0 0)" d="M363.0627 438.6123C 363.0627 445.8529 365.9391 452.7969 371.0589 457.9167C 376.1787 463.0366 383.1227 465.9129 390.3633 465.9129L390.3633 465.9129L489.0286 465.9129C 496.2691 465.9129 503.2132 463.0366 508.333 457.9167C 513.4529 452.7969 516.3292 445.8529 516.3292 438.6123C 516.3292 431.3717 513.4529 424.4277 508.333 419.3079C 503.2132 414.188 496.2691 411.3117 489.0286 411.3117L489.0286 411.3117L390.3633 411.3117C 383.1227 411.3117 376.1787 414.188 371.0589 419.3079C 365.9391 424.4277 363.0627 431.3717 363.0627 438.6123z" /></clipPath><clipPath id="45"><path id="" clip-rule="evenodd" transform="matrix(1 0 0 1 0 0)" d="M363.8849 412.1339L515.9763 412.1339L515.9763 412.1339L515.9763 465.5714L515.9763 465.5714L363.8849 465.5714z" /></clipPath><clipPath id="46"><path id="" clip-rule="evenodd" transform="matrix(1 0 0 1 0 0)" d="M390.3633 412.2983L489.0286 412.2983C 496.0075 412.2983 502.7006 415.0706 507.6354 420.0055C 512.5703 424.9403 515.3427 431.6334 515.3427 438.6123C 515.3427 445.5912 512.5703 452.2843 507.6354 457.2191C 502.7006 462.154 496.0075 464.9264 489.0286 464.9264L489.0286 464.9264L390.3633 464.9264C 383.3844 464.9264 376.6913 462.154 371.7565 457.2191C 366.8217 452.2843 364.0493 445.5912 364.0493 438.6123C 364.0493 431.6334 366.8217 424.9403 371.7565 420.0055C 376.6913 415.0706 383.3844 412.2983 390.3633 412.2983z" /></clipPath><clipPath id="47"><path id="" clip-rule="evenodd" transform="matrix(1 0 0 1 0 0)" d="M363.0627 411.3117L515.9763 411.3117L515.9763 411.3117L515.9763 465.5714L515.9763 465.5714L363.0627 465.5714z" /></clipPath><clipPath id="48"><path id="" clip-rule="evenodd" transform="matrix(1 0 0 1 0 0)" d="M0 -0.249939L595.5 -0.249939L595.5 -0.249939L595.5 842.0001L595.5 842.0001L0 842.0001z" /></clipPath><clipPath id="49"><path id="" clip-rule="evenodd" transform="matrix(1 0 0 1 0 0)" d="M0 -0.249939L595.5 -0.249939L595.5 -0.249939L595.5 842.0001L595.5 842.0001L0 842.0001z" /></clipPath><clipPath id="50"><path id="" clip-rule="evenodd" transform="matrix(1 0 0 1 0 0)" d="M363.0627 411.3117L516.7984 411.3117L516.7984 411.3117L516.7984 466.3935L516.7984 466.3935L363.0627 466.3935z" /></clipPath><clipPath id="51"><path id="" clip-rule="evenodd" transform="matrix(1 0 0 1 0 0)" d="M363.0627 438.6123C 363.0627 445.8529 365.9391 452.7969 371.0589 457.9167C 376.1787 463.0366 383.1227 465.9129 390.3633 465.9129L390.3633 465.9129L489.0286 465.9129C 496.2691 465.9129 503.2132 463.0366 508.333 457.9167C 513.4529 452.7969 516.3292 445.8529 516.3292 438.6123C 516.3292 431.3717 513.4529 424.4277 508.333 419.3079C 503.2132 414.188 496.2691 411.3117 489.0286 411.3117L489.0286 411.3117L390.3633 411.3117C 383.1227 411.3117 376.1787 414.188 371.0589 419.3079C 365.9391 424.4277 363.0627 431.3717 363.0627 438.6123z" /></clipPath><clipPath id="52"><path id="" clip-rule="evenodd" transform="matrix(1 0 0 1 0 0)" d="M363.0627 411.3117L515.9763 411.3117L515.9763 411.3117L515.9763 465.5714L515.9763 465.5714L363.0627 465.5714z" /></clipPath><clipPath id="53"><path id="" clip-rule="evenodd" transform="matrix(1 0 0 1 0 0)" d="M363.0627 411.3117L516.7922 411.3117L516.7922 411.3117L516.7922 466.3858L516.7922 466.3858L363.0627 466.3858z" /></clipPath><clipPath id="54"><path id="" clip-rule="evenodd" transform="matrix(1 0 0 1 0 0)" d="M363.0627 438.6086C 363.0627 445.8481 365.9389 452.7912 371.0586 457.9103C 376.1782 463.0294 383.122 465.9053 390.3622 465.9053L390.3622 465.9053L489.0236 465.9053C 496.2639 465.9053 503.2076 463.0294 508.3272 457.9103C 513.4469 452.7912 516.3231 445.8481 516.3231 438.6086C 516.3231 431.369 513.4469 424.4259 508.3272 419.3068C 503.2076 414.1876 496.2639 411.3117 489.0236 411.3117L489.0236 411.3117L390.3622 411.3117C 383.122 411.3117 376.1782 414.1876 371.0586 419.3068C 365.9389 424.4259 363.0627 431.369 363.0627 438.6086z" /></clipPath><clipPath id="55"><path id="" clip-rule="evenodd" transform="matrix(1 0 0 1 0 0)" d="M0 -0.249939L595.5 -0.249939L595.5 -0.249939L595.5 842.0001L595.5 842.0001L0 842.0001z" /></clipPath><clipPath id="56"><path id="" clip-rule="evenodd" transform="matrix(1 0 0 1 0 0)" d="M0 -0.249939L595.5 -0.249939L595.5 -0.249939L595.5 842.0001L595.5 842.0001L0 842.0001z" /></clipPath><clipPath id="57"><path id="" clip-rule="evenodd" transform="matrix(1 0 0 1 0 0)" d="M0 -0.249939L595.5 -0.249939L595.5 -0.249939L595.5 842.0001L595.5 842.0001L0 842.0001z" /></clipPath><clipPath id="58"><path id="" clip-rule="evenodd" transform="matrix(1 0 0 1 0 0)" d="M482.2109 446.024L511.8109 429.8999L511.8109 429.8999L535.8004 473.9388L535.8004 473.9388L506.2004 490.0629L506.2004 490.0629L482.2109 446.024z" /></clipPath><clipPath id="59"><path id="" clip-rule="evenodd" transform="matrix(1 0 0 1 0 0)" d="M482.2109 446.024L511.8109 429.8999L511.8109 429.8999L535.8004 473.9388L535.8004 473.9388L506.2004 490.0629L506.2004 490.0629L482.2109 446.024z" /></clipPath><clipPath id="60"><path id="" clip-rule="evenodd" transform="matrix(1 0 0 1 0 0)" d="M482.2109 446.024L511.8109 429.8999L511.8109 429.8999L535.8004 473.9388L535.8004 473.9388L506.2004 490.0629L506.2004 490.0629L482.2109 446.024z" /></clipPath><clipPath id="61"><path id="" clip-rule="evenodd" transform="matrix(1 0 0 1 0 0)" d="M0 -0.249939L595.5 -0.249939L595.5 -0.249939L595.5 842.0001L595.5 842.0001L0 842.0001z" /></clipPath><clipPath id="62"><path id="" clip-rule="evenodd" transform="matrix(1 0 0 1 0 0)" d="M0 -0.249939L595.5 -0.249939L595.5 -0.249939L595.5 842.0001L595.5 842.0001L0 842.0001z" /></clipPath><clipPath id="63"><path id="" clip-rule="evenodd" transform="matrix(1 0 0 1 0 0)" d="M414.0432 491.5299L575.388 491.5299L575.388 491.5299L575.388 549.3379L575.388 549.3379L414.0432 549.3379z" /></clipPath><clipPath id="64"><path id="" clip-rule="evenodd" transform="matrix(1 0 0 1 0 0)" d="M414.0432 520.1817C 414.0432 527.7807 417.0619 535.0684 422.4351 540.4417C 427.8084 545.8149 435.0961 548.8336 442.695 548.8336L442.695 548.8336L546.2437 548.8336C 553.8427 548.8336 561.1304 545.8149 566.5037 540.4417C 571.8769 535.0684 574.8956 527.7807 574.8956 520.1817C 574.8956 512.5828 571.8769 505.2951 566.5037 499.9218C 561.1304 494.5486 553.8427 491.5299 546.2437 491.5299L546.2437 491.5299L442.695 491.5299C 435.0961 491.5299 427.8084 494.5486 422.4351 499.9218C 417.0619 505.2951 414.0432 512.5828 414.0432 520.1817z" /></clipPath><clipPath id="65"><path id="" clip-rule="evenodd" transform="matrix(1 0 0 1 0 0)" d="M414.906 492.3927L574.5252 492.3927L574.5252 492.3927L574.5252 548.4751L574.5252 548.4751L414.906 548.4751z" /></clipPath><clipPath id="66"><path id="" clip-rule="evenodd" transform="matrix(1 0 0 1 0 0)" d="M442.695 492.5653L546.2437 492.5653C 553.5681 492.5653 560.5925 495.4749 565.7715 500.654C 570.9506 505.8331 573.8603 512.8574 573.8603 520.1817C 573.8603 527.506 570.9506 534.5305 565.7715 539.7095C 560.5925 544.8886 553.5681 547.7982 546.2437 547.7982L546.2437 547.7982L442.695 547.7982C 435.3707 547.7982 428.3463 544.8886 423.1672 539.7095C 417.9882 534.5305 415.0786 527.506 415.0786 520.1817C 415.0786 512.8574 417.9882 505.8331 423.1672 500.654C 428.3463 495.4749 435.3707 492.5653 442.695 492.5653z" /></clipPath><clipPath id="67"><path id="" clip-rule="evenodd" transform="matrix(1 0 0 1 0 0)" d="M414.0432 491.5299L574.5252 491.5299L574.5252 491.5299L574.5252 548.4751L574.5252 548.4751L414.0432 548.4751z" /></clipPath><clipPath id="68"><path id="" clip-rule="evenodd" transform="matrix(1 0 0 1 0 0)" d="M0 -0.249939L595.5 -0.249939L595.5 -0.249939L595.5 842.0001L595.5 842.0001L0 842.0001z" /></clipPath><clipPath id="69"><path id="" clip-rule="evenodd" transform="matrix(1 0 0 1 0 0)" d="M0 -0.249939L595.5 -0.249939L595.5 -0.249939L595.5 842.0001L595.5 842.0001L0 842.0001z" /></clipPath><clipPath id="70"><path id="" clip-rule="evenodd" transform="matrix(1 0 0 1 0 0)" d="M414.0432 491.5299L575.388 491.5299L575.388 491.5299L575.388 549.3379L575.388 549.3379L414.0432 549.3379z" /></clipPath><clipPath id="71"><path id="" clip-rule="evenodd" transform="matrix(1 0 0 1 0 0)" d="M414.0432 520.1817C 414.0432 527.7807 417.0619 535.0684 422.4351 540.4417C 427.8084 545.8149 435.0961 548.8336 442.695 548.8336L442.695 548.8336L546.2437 548.8336C 553.8427 548.8336 561.1304 545.8149 566.5037 540.4417C 571.8769 535.0684 574.8956 527.7807 574.8956 520.1817C 574.8956 512.5828 571.8769 505.2951 566.5037 499.9218C 561.1304 494.5486 553.8427 491.5299 546.2437 491.5299L546.2437 491.5299L442.695 491.5299C 435.0961 491.5299 427.8084 494.5486 422.4351 499.9218C 417.0619 505.2951 414.0432 512.5828 414.0432 520.1817z" /></clipPath><clipPath id="72"><path id="" clip-rule="evenodd" transform="matrix(1 0 0 1 0 0)" d="M414.0432 491.5299L574.5252 491.5299L574.5252 491.5299L574.5252 548.4751L574.5252 548.4751L414.0432 548.4751z" /></clipPath><clipPath id="73"><path id="" clip-rule="evenodd" transform="matrix(1 0 0 1 0 0)" d="M414.0432 491.5299L575.3816 491.5299L575.3816 491.5299L575.3816 549.33L575.3816 549.33L414.0432 549.33z" /></clipPath><clipPath id="74"><path id="" clip-rule="evenodd" transform="matrix(1 0 0 1 0 0)" d="M414.0432 520.1778C 414.0432 527.7756 417.0617 535.0624 422.4348 540.4349C 427.8078 545.8074 435.0953 548.8256 442.6939 548.8256L442.6939 548.8256L546.2385 548.8256C 553.8372 548.8256 561.1246 545.8074 566.4976 540.4349C 571.8707 535.0624 574.8892 527.7756 574.8892 520.1778C 574.8892 512.5799 571.8707 505.2932 566.4976 499.9207C 561.1246 494.5481 553.8372 491.5299 546.2385 491.5299L546.2385 491.5299L442.6939 491.5299C 435.0953 491.5299 427.8078 494.5481 422.4348 499.9207C 417.0617 505.2932 414.0432 512.5799 414.0432 520.1778z" /></clipPath><clipPath id="75"><path id="" clip-rule="evenodd" transform="matrix(1 0 0 1 0 0)" d="M0 -0.249939L595.5 -0.249939L595.5 -0.249939L595.5 842.0001L595.5 842.0001L0 842.0001z" /></clipPath><clipPath id="76"><path id="" clip-rule="evenodd" transform="matrix(1 0 0 1 0 0)" d="M0 -0.249939L595.5 -0.249939L595.5 -0.249939L595.5 842.0001L595.5 842.0001L0 842.0001z" /></clipPath><clipPath id="77"><path id="" clip-rule="evenodd" transform="matrix(1 0 0 1 0 0)" d="M0 -0.249939L595.5 -0.249939L595.5 -0.249939L595.5 842.0001L595.5 842.0001L0 842.0001z" /></clipPath><clipPath id="78"><path id="" clip-rule="evenodd" transform="matrix(1 0 0 1 0 0)" d="M539.0886 527.9603L570.1536 511.0381L570.1536 511.0381L595.3305 557.2568L595.3305 557.2568L564.2656 574.179L564.2656 574.179L539.0886 527.9603z" /></clipPath><clipPath id="79"><path id="" clip-rule="evenodd" transform="matrix(1 0 0 1 0 0)" d="M539.0886 527.9603L570.1536 511.0381L570.1536 511.0381L595.3305 557.2568L595.3305 557.2568L564.2656 574.179L564.2656 574.179L539.0886 527.9603z" /></clipPath><clipPath id="80"><path id="" clip-rule="evenodd" transform="matrix(1 0 0 1 0 0)" d="M539.0886 527.9603L570.1536 511.0381L570.1536 511.0381L595.3305 557.2568L595.3305 557.2568L564.2656 574.179L564.2656 574.179L539.0886 527.9603z" /></clipPath><clipPath id="81"><path id="" clip-rule="evenodd" transform="matrix(1 0 0 1 0 0)" d="M0 -0.249939L595.5 -0.249939L595.5 -0.249939L595.5 842.0001L595.5 842.0001L0 842.0001z" /></clipPath><clipPath id="82"><path id="" clip-rule="evenodd" transform="matrix(1 0 0 1 0 0)" d="M0 -0.249939L595.5 -0.249939L595.5 -0.249939L595.5 842.0001L595.5 842.0001L0 842.0001z" /></clipPath><clipPath id="83"><path id="" clip-rule="evenodd" transform="matrix(1 0 0 1 0 0)" d="M50.34557 420.0024L314.8837 420.0024L314.8837 420.0024L314.8837 597.9771L314.8837 597.9771L50.34557 597.9771z" /></clipPath><clipPath id="84"><path id="" clip-rule="evenodd" transform="matrix(1 0 0 1 0 0)" d="M314.8368 577.1598C 314.6956 532.9512 313.0019 473.1857 313.0019 429.089C 313.0019 428.4174 313.143 427.7459 313.143 427.1863C 313.0019 427.0744 312.8607 427.0744 312.7196 426.9625C 312.7196 426.9625 312.5785 427.0744 312.5785 427.1863C 312.2962 427.7459 311.7316 427.7459 311.167 427.7459C 310.4613 427.634 309.7556 427.0744 308.9087 427.2982C 308.6264 427.4102 308.0619 427.1863 307.9207 426.9625C 307.4973 426.5148 306.9327 426.5148 306.3681 426.7386C 306.0858 426.8506 305.8035 426.7386 305.5212 426.7386C 305.0978 426.7386 304.5332 426.6267 304.1098 426.5148C 303.9687 426.5148 303.6864 426.4029 303.5452 426.4029C 303.1218 426.291 302.6984 425.9552 302.2749 426.4029C 302.2749 426.4029 301.9926 426.4029 301.8515 426.291C 301.7104 426.0671 301.5692 425.7314 301.4281 425.5075C 301.1458 425.1718 301.1458 424.6122 300.7224 424.3883C 300.4401 424.2764 300.2989 424.1645 300.1577 423.9406C 300.1577 423.8287 299.8755 423.7168 299.8755 423.6049L299.8755 423.6049L299.4521 423.2691C 299.3109 423.0453 299.1697 422.7095 298.8875 422.5976C 298.3229 422.2618 298.1817 421.8141 298.4641 421.2545C 298.0406 421.1426 297.7583 420.9188 297.3349 420.9188C 295.6411 421.0307 293.8063 421.2545 292.1125 421.3665C 291.8303 421.3665 291.4068 421.4784 291.2657 421.5903C 290.1365 422.1499 289.0074 421.7022 287.8782 421.5903C 287.0313 421.5903 286.1845 421.2545 285.3376 421.1426C 284.3496 421.0307 283.5027 421.1426 282.5147 421.0307C 282.3736 421.0307 282.2324 420.9188 282.0913 420.8069C 281.809 420.4711 281.2444 420.583 280.9622 420.6949C 280.5387 420.9188 280.3976 421.2545 280.1153 421.5903C 279.4096 421.7022 278.4215 421.8141 277.7158 422.1499C 277.1512 422.3737 276.8689 422.4857 276.4455 422.2618L276.4455 422.2618L276.3044 422.3737C 276.5867 422.5976 276.7278 422.9333 277.0101 423.1572C 276.5867 423.2691 276.0221 423.493 275.7398 423.381C 275.0341 423.2691 274.7518 423.493 274.1872 423.7168C 273.6226 424.0526 272.9169 424.2764 272.3524 424.5002C 272.2112 424.5002 272.07 424.5002 271.9289 424.3883C 271.7878 424.3883 271.6466 424.2764 271.6466 424.2764C 270.9409 424.5002 270.2352 424.7241 269.5294 424.5002C 269.3883 424.5002 269.3883 424.6122 269.2472 424.6122C 268.4003 424.836 267.8357 425.6194 266.7065 425.6194C 265.8597 425.6194 265.0128 426.179 264.166 426.179C 263.1779 426.291 262.3311 426.5148 261.4842 426.8506C 261.2019 426.9625 260.9196 426.9625 260.7785 426.9625C 260.0728 426.7386 259.6494 427.0744 259.367 427.4102C 258.6613 428.1936 257.5322 428.4174 256.5442 428.6413C 255.2739 428.8651 254.0036 428.9771 252.7333 429.089C 252.5921 429.089 252.451 429.4247 252.1687 429.5367C 252.0276 429.5367 251.8864 429.4247 251.8864 429.4247C 251.1807 430.0963 250.7572 431.1035 249.3458 430.9916L249.3458 430.9916L249.2047 430.9916C 248.0755 431.5512 246.9464 431.3274 245.9583 431.1035C 245.6761 431.1035 245.2526 430.8797 245.1115 430.6559C 244.688 429.9843 243.5589 429.7605 242.712 429.9843C 242.0063 430.2082 241.3006 430.3201 240.5949 430.5439C 239.4657 430.7678 238.4777 430.8797 237.3485 430.432C 236.2194 429.9843 235.3725 430.3201 234.8079 431.3274C 234.3845 431.9989 233.2554 432.1108 232.5496 431.5512C 232.1262 431.2155 231.8439 431.3274 231.4205 431.5512L231.4205 431.5512L230.5736 432.2227C 230.4325 432.3347 230.1502 432.3347 230.009 432.3347L230.009 432.3347L229.1622 432.3347C 228.5976 432.3347 228.033 432.2227 227.4684 432.1108C 226.7627 431.9989 226.1981 431.6631 225.4924 431.5512C 224.3633 431.4393 224.081 430.6559 223.6575 430.0963C 223.3752 429.7605 222.8107 429.3128 222.2461 429.4247C 221.6815 429.6486 221.117 429.4247 220.6935 429.3128C 220.5524 429.3128 220.2701 429.2009 220.1289 429.2009C 219.1409 428.9771 218.4352 429.4247 217.7295 429.9843L217.7295 429.9843L217.1649 430.432C 217.0238 430.5439 217.0238 430.7678 216.8826 430.8797C 216.0358 431.4393 215.1889 431.2155 214.2009 430.8797C 213.354 430.5439 212.366 430.8797 212.0837 431.5512C 211.9426 431.9989 211.8014 432.3347 211.0957 432.5585C 210.39 432.8943 209.5431 433.1181 209.402 433.9016C 209.402 434.0135 209.2608 434.1254 209.1197 434.1254C 208.6962 434.2373 208.414 434.3492 207.9905 434.4612L207.9905 434.4612L206.7202 434.4612C 205.8734 434.3492 205.0265 434.1254 204.1796 434.0135C 203.1916 433.9016 202.3448 434.3492 201.3568 434.4612L201.3568 434.4612L201.2156 434.5731C 200.9333 434.9088 200.5099 434.7969 200.2276 434.5731C 199.663 434.1254 198.675 434.0135 197.9693 434.2373C 197.1224 434.5731 196.2756 434.7969 195.4287 435.0208C 195.1464 435.0208 194.8641 434.9088 194.723 434.9088C 194.4407 434.9088 194.0172 434.7969 193.8761 434.9088C 192.7469 435.5804 191.6178 435.3565 190.6298 434.9088C 190.0652 434.685 189.2183 434.4612 188.936 433.7896C 188.7949 433.3419 188.2303 432.8943 187.8069 432.5585C 187.1012 431.9989 186.3954 431.2155 185.1252 431.2155C 184.8429 431.2155 184.5606 430.7678 184.4194 430.8797C 183.8548 430.9916 183.8548 430.7678 183.5726 430.5439C 183.2903 430.3201 182.8668 430.0963 182.5845 429.7605C 182.1611 429.3128 181.7377 428.7532 181.3143 428.3055C 180.8908 427.8578 180.6085 427.2982 180.1851 426.8506C 180.044 426.7386 179.6205 426.6267 179.4794 426.7386L179.4794 426.7386L177.7856 427.4102C 177.5034 427.5221 177.3622 427.7459 177.2211 427.9698L177.2211 427.9698L177.0799 427.8578C 177.2211 427.5221 177.3622 427.1863 177.5034 427.0744L177.5034 427.0744L175.8096 426.7386C 175.3862 426.6267 174.6805 426.6267 174.3982 426.6267L174.3982 426.6267L172.1399 426.6267C 171.293 426.6267 170.5873 426.5148 169.7404 426.6267C 169.1759 426.7386 168.7524 426.5148 168.329 426.291C 167.1998 425.6194 166.0707 424.836 164.5181 425.1718C 164.3769 425.1718 164.0947 425.0598 163.9535 424.9479C 163.5301 424.836 163.2478 424.6122 162.6832 424.3883C 162.6832 424.7241 162.6832 424.836 162.8244 425.0598C 162.5421 425.2837 162.4009 425.1718 162.2598 425.0598C 162.1186 425.1718 161.9775 425.3956 161.8363 425.3956C 161.1306 425.6194 160.4249 425.7314 159.7192 425.9552C 159.4369 426.0671 159.1546 426.179 159.0135 426.291C 158.4489 426.6267 158.0255 427.1863 157.0374 427.0744C 156.8963 427.0744 156.614 427.2982 156.3317 427.2982C 156.0494 427.4102 155.626 427.4102 155.3437 427.5221L155.3437 427.5221L155.0614 427.5221C 154.2146 427.7459 153.5088 427.9698 152.662 428.0817L152.662 428.0817L152.0974 428.0817C 151.3917 428.0817 150.8271 427.9698 150.1214 427.9698C 149.4156 427.9698 148.7099 428.1936 148.0042 428.1936C 147.1573 428.1936 146.1693 428.1936 145.4636 427.7459C 145.3225 427.634 144.899 427.634 144.6167 427.7459C 143.6287 427.8578 142.6407 427.9698 141.7939 428.1936C 140.947 428.4174 140.5236 428.1936 140.2413 427.634C 140.1001 427.4102 139.8178 427.1863 139.5356 426.9625C 139.1121 426.7386 138.6887 426.4029 138.2652 426.4029C 137.2772 426.4029 136.7127 425.9552 136.0069 425.6194C 134.8778 425.0598 133.8898 424.3883 132.4783 424.5002L132.4783 424.5002L132.4783 423.9406C 132.7606 423.9406 133.0429 423.9406 133.3252 423.8287C 132.9018 423.6049 132.9018 423.2691 132.6195 423.0453C 132.0549 422.7095 131.4903 422.5976 130.9258 422.3737C 130.5023 422.2618 129.9377 422.2618 130.22 422.8214C 129.5143 422.9333 128.9497 422.9333 128.6674 423.1572C 128.1029 423.493 127.5383 423.2691 127.1148 423.0453C 126.8326 422.9333 126.5503 422.8214 126.268 422.9333C 124.5742 423.6049 122.8805 423.2691 121.1868 423.2691C 120.9045 423.2691 120.6222 423.1572 120.1988 423.1572C 119.6342 423.0453 119.2108 422.8214 118.6462 422.7095C 118.0816 422.5976 117.3759 422.4857 116.8113 422.3737L116.8113 422.3737L116.3879 422.3737C 115.3999 422.3737 114.4119 422.4857 113.565 422.4857C 112.8593 422.4857 112.1536 422.2618 111.3067 422.1499C 111.1655 421.2545 110.0364 421.4784 109.3307 421.0307C 109.1895 420.9188 108.9072 421.0307 108.7661 421.0307C 107.9192 420.9188 107.3546 421.2545 107.0724 421.8141C 106.6489 422.3737 105.5198 422.5976 105.9432 423.493C 106.0844 423.6049 106.3666 423.7168 106.5078 423.9406C 106.5078 424.2764 106.3666 424.5002 105.9432 424.3883C 105.8021 424.3883 105.6609 424.6122 105.5198 424.7241C 105.3786 424.836 105.3786 425.0598 105.2375 425.0598C 104.3906 425.2837 103.826 425.8433 102.838 425.7314L102.838 425.7314L102.5557 425.7314C 101.7089 426.291 100.862 426.179 99.874 426.0671C 99.45057 425.9552 98.88599 426.0671 98.32141 426.0671C 97.89798 426.0671 97.47455 426.0671 97.05112 425.8433C 96.48653 425.6194 95.92197 425.2837 95.35738 425.0598C 94.79281 424.836 94.08709 424.836 94.08709 424.0526C 94.08709 423.9406 93.80479 423.8287 93.80479 423.7168C 92.81679 424.3883 91.96992 424.9479 91.12305 425.5075C 90.69962 425.8433 90.13504 426.291 90.41734 426.8506C 90.41734 426.9625 90.27618 427.0744 90.27618 427.1863C 90.13504 427.4102 89.9939 427.634 89.71162 427.7459C 89.42932 428.0817 89.14703 428.4174 88.86475 428.8651L88.86475 428.8651L88.01788 429.5367C 87.73559 429.8724 87.4533 430.2082 87.02987 430.432C 86.04185 431.1035 85.05385 431.7751 83.92469 432.4466C 83.36012 432.8943 82.6544 433.23 82.08982 433.6777C 81.10181 434.3492 79.97266 434.9088 79.40808 435.9161C 79.40808 436.028 79.12579 436.14 78.98464 436.2519C 78.27892 436.6996 77.14977 436.6996 77.14977 437.5949C 76.02061 437.5949 75.45603 438.2665 74.89146 438.8261C 74.46803 439.2737 74.0446 439.8333 73.48002 440.1691C 72.91544 440.3929 72.20972 440.281 71.504 440.281C 71.22171 440.281 70.93942 440.281 70.93942 440.3929C 70.37484 440.8406 69.66912 441.1764 69.24569 441.736C 68.82226 442.2956 68.39883 442.6313 67.6931 442.7433C 66.98737 442.8552 66.28166 443.4148 65.29365 443.079C 64.44678 442.8552 63.45877 443.079 62.89419 442.6313C 61.76504 442.7433 60.91817 442.9671 59.93016 443.079C 58.80101 443.3029 57.53071 443.1909 56.5427 443.8625C 55.69584 444.4221 54.99012 444.9817 53.71981 444.8698C 53.86096 445.5413 54.00211 446.1009 54.14325 446.7724C 54.42554 448.5631 54.70782 450.3539 54.84897 452.1446C 55.2724 454.383 55.41355 456.5095 55.13126 458.636C 54.84897 461.6579 53.57867 565.0724 52.30837 567.8704L52.30837 567.8704L51.03807 570.2208C 50.81423 570.7803 51.17922 571.1161 51.88494 571.228C 52.73181 571.34 53.01409 571.7877 53.29638 572.3473C 53.57867 573.2426 53.15524 574.138 53.71981 575.0333C 54.00211 575.481 53.71981 576.2645 53.57867 576.936C 53.43753 577.8314 53.71981 578.7267 54.14325 579.5102C 55.13126 580.8532 55.2724 582.4201 55.2724 583.8751C 55.2724 584.2109 55.41355 584.5466 55.55469 584.7704C 55.83698 584.9943 56.40156 585.2181 56.96614 585.33L56.96614 585.33L60.3536 586.6731C 61.90619 587.3446 63.17648 587.2327 64.58793 586.4493C 64.72907 586.3373 65.1525 586.2255 65.29365 586.2255C 66.28166 586.3373 67.26967 586.3373 68.11654 587.0089C 69.10455 587.6804 70.51598 588.1281 71.64514 588.6877C 72.35087 589.0234 73.19773 589.4711 73.62116 589.9188C 73.90345 590.1426 74.18574 590.3665 74.46803 590.4784C 76.02061 590.9261 76.86749 592.0453 77.85549 592.9406C 78.70236 593.7241 79.8315 594.1718 81.10181 594.2837C 82.51325 594.5076 83.92469 594.6194 85.33614 594.8433C 85.90071 594.9552 86.60644 595.0671 87.17102 595.291C 87.87674 595.5148 88.58245 595.5148 89.14703 595.8506C 89.9939 596.4102 90.84077 596.746 91.96992 596.5221C 92.39335 596.4102 92.95792 596.634 93.38136 596.746C 93.52251 596.746 93.66365 596.8578 93.80479 596.8578C 95.35738 596.9698 96.76883 596.746 98.18027 596.5221C 98.74485 596.4102 99.30943 596.2982 99.874 596.0744C 101.4266 595.5148 102.9792 594.9552 104.3906 594.2837C 105.3786 593.836 106.3666 593.3883 107.4958 593.836L107.4958 593.836L108.0604 593.836C 109.0484 593.836 110.0364 593.7241 110.8833 593.6122C 111.0244 593.6122 111.3067 593.6122 111.3067 593.5002C 111.7301 593.0526 112.4358 593.0526 113.1416 592.9406C 114.2707 592.8287 115.3999 592.8287 116.2467 592.2691C 117.0936 591.8214 117.9405 591.7095 118.9285 591.5976C 119.0696 591.5976 119.3519 591.4857 119.4931 591.4857C 120.1988 591.3737 120.9045 591.038 121.4691 591.1499C 122.7394 591.3737 123.304 591.038 124.1508 590.1426C 124.292 589.9188 124.7154 589.8069 124.9977 589.6949C 125.7034 589.583 126.4091 589.6949 127.1148 589.583C 127.5383 589.583 127.9617 589.2473 128.244 589.2473C 129.3732 589.3591 130.6435 589.0234 131.6315 589.583C 131.7726 589.6949 132.0549 589.6949 132.3372 589.6949C 134.1721 589.8069 135.7247 590.2545 136.9949 591.1499C 137.4184 591.4857 137.983 591.7095 138.4064 591.9333C 138.8298 592.1572 139.3944 592.1572 139.8178 592.2691C 140.2413 592.381 140.5236 592.493 140.947 592.493C 141.6527 592.493 142.2173 592.7168 142.6407 593.1645C 142.7819 593.2764 142.923 593.3883 143.0642 593.6122C 142.923 593.9479 143.7699 594.8433 144.3345 594.8433C 145.3225 594.8433 146.3105 595.0671 147.1573 595.6268C 147.2985 595.7386 147.5808 595.7386 147.8631 595.6268C 148.2865 595.5148 148.5688 595.5148 148.8511 595.8506C 148.9922 595.9625 149.5568 595.9625 149.8391 595.9625C 150.5448 595.9625 151.3917 595.8506 152.0974 595.9625C 153.3677 596.0744 154.4968 596.1863 155.7672 596.4102C 156.0494 596.4102 156.3317 596.5221 156.4729 596.634C 156.7552 597.1936 157.4609 597.1936 157.8843 597.3055C 158.3077 597.4174 158.8723 597.5294 159.1546 597.5294C 159.2957 597.4174 159.578 597.3055 159.8603 597.0817C 159.2957 597.0817 159.0135 597.1936 158.7312 597.1936C 159.2957 596.634 159.8603 596.5221 160.566 596.8578C 161.4129 597.4174 162.1186 597.4174 163.1067 596.8578L163.1067 596.8578L163.9535 596.5221L163.9535 596.5221L163.9535 595.9625C 164.3769 596.0744 164.8004 596.2982 165.0827 596.2982C 165.9295 595.9625 166.7764 595.6268 167.4821 595.179C 168.329 594.7314 169.0347 594.1718 169.7404 593.7241C 169.8816 593.7241 169.8816 593.6122 170.0227 593.6122C 171.0107 593.3883 171.8576 593.2764 172.8456 593.0526C 173.4102 592.9406 173.8336 592.7168 174.3982 592.6049C 174.8216 592.493 175.1039 592.493 175.5273 592.381L175.5273 592.381L176.9388 592.381C 177.2211 592.381 177.6445 592.381 177.9268 592.2691C 178.0679 592.0453 178.3502 591.7095 178.4914 591.7095C 178.9148 591.7095 179.1971 591.9333 179.6205 592.0453C 179.7617 592.0453 179.7617 592.1572 179.7617 592.2691C 180.3262 592.7168 180.7497 593.2764 181.3143 593.7241C 182.02 594.2837 182.7257 594.2837 183.1491 593.9479C 183.8548 593.5002 184.4194 593.1645 185.4074 593.3883C 185.5486 593.3883 185.8309 593.5002 185.972 593.3883C 186.6777 593.1645 187.5246 592.9406 188.2303 592.6049C 188.6538 592.493 189.2183 592.493 189.3595 592.2691C 189.7829 591.5976 190.4886 591.2618 191.1944 590.8141C 191.6178 590.4784 192.0412 590.0307 192.4647 589.9188C 193.4527 589.6949 194.1584 589.0234 195.0052 588.5757C 195.711 588.2399 196.1344 587.5685 196.8401 587.4565C 197.9693 587.2327 198.8161 586.6731 199.8042 586.1135C 200.3687 585.7777 201.0744 585.5539 201.7802 585.6658C 202.2036 585.7777 202.7682 585.6658 203.0505 585.5539C 203.6151 585.33 204.1796 584.9943 204.7442 584.7704C 205.1676 584.5466 205.5911 584.3228 206.0145 584.3228C 207.426 584.2109 208.5551 583.987 209.2608 582.8678C 209.5431 582.4201 210.9546 581.8605 211.5191 582.0844C 212.5071 582.4201 213.2129 582.1963 213.7775 581.5248C 214.2009 581.189 214.7655 581.3008 215.1889 581.5248C 215.4712 581.7486 215.7535 581.8605 216.0358 581.8605C 217.0238 581.9724 218.1529 581.8605 219.1409 581.9724C 219.9878 582.0844 220.8347 581.8605 221.3992 581.4128C 221.9638 580.9651 222.3872 580.9651 223.2341 581.189C 223.9398 581.4128 224.5044 581.9724 225.4924 581.8605C 226.3393 581.7486 227.3273 582.0844 228.3153 581.7486L228.3153 581.7486L228.8799 581.7486C 229.7267 581.9724 230.5736 582.0844 231.2793 582.644C 232.1262 583.2036 232.2673 579.0625 233.1142 579.5102C 234.3845 580.1816 234.1022 579.5102 235.3725 580.0698C 236.3605 580.4056 235.9371 579.1744 237.0663 579.3983C 237.2074 579.3983 238.9011 580.2936 238.9011 580.1816C 239.6068 579.8459 240.3126 576.4883 241.0183 576.6002C 242.4297 576.936 243.7 576.7122 244.9703 576.2645C 245.6761 576.0406 246.8052 575.2572 247.3698 575.593C 248.3578 576.1526 249.3458 576.3764 250.475 576.4883C 250.6161 576.4883 250.7572 576.6002 250.8984 576.7122C 251.3218 577.1598 253.2979 575.9287 253.7213 576.3764C 254.2859 577.0479 254.8504 577.7194 255.415 578.2791C 255.6973 578.5029 256.1208 578.6148 256.2619 578.8386C 256.403 579.3983 256.6853 579.6221 257.391 579.6221C 257.8145 579.6221 258.2379 579.734 258.5202 579.9578C 259.2259 580.2936 259.7905 580.6294 260.3551 580.9651C 261.0608 581.3008 261.7665 581.6367 262.0488 582.1963C 262.1899 582.4201 262.3311 582.532 262.4723 582.644C 263.0368 583.0916 263.6014 583.4274 264.166 583.8751C 265.0128 584.4347 265.7185 585.1062 266.5654 585.6658C 266.8477 585.7777 267.13 586.0015 267.4123 586.1135C 267.9769 586.3373 268.5414 586.5612 268.9649 586.8969C 269.3883 587.2327 271.3643 585.2181 271.6466 585.6658C 271.6466 585.7777 271.7878 585.7777 271.9289 585.7777C 272.7758 586.3373 273.6226 586.1135 274.4695 585.8896C 274.7518 585.7777 275.0341 585.6658 275.1752 585.7777C 276.1632 586.1135 276.8689 586.8969 278.1393 587.0089C 278.1393 587.0089 278.2804 587.0089 278.2804 587.1207C 278.5627 587.7923 279.4096 587.7923 280.1153 587.9042C 280.5387 587.9042 280.9622 588.0161 281.2444 588.1281C 282.0913 588.4639 282.9382 588.9115 283.9261 589.1353C 285.1965 589.4711 286.4668 589.6949 287.4548 590.2545C 287.5959 590.2545 287.7371 590.2545 287.7371 590.3665C 288.1605 590.5903 288.8662 590.7022 289.1485 591.038C 289.572 591.7095 290.7011 591.5976 291.2657 592.1572L291.2657 592.1572L291.4068 592.1572C 291.9714 592.1572 292.536 592.2691 293.2417 592.2691C 293.524 592.1572 293.9474 591.9333 294.2297 591.9333C 295.5 592.2691 296.7703 592.2691 297.6172 591.3737C 297.7583 591.2618 298.0406 591.2618 298.3229 591.2618L298.3229 591.2618L299.4521 591.2618C 300.7224 591.038 301.8515 590.8141 303.1218 590.7022C 303.6864 590.5903 304.3921 590.8141 304.9567 590.9261C 305.5212 591.038 306.0858 591.038 306.6504 591.038C 307.3561 591.038 307.9207 590.8141 308.6264 590.8141C 309.191 590.7022 309.8967 590.7022 310.4613 590.5903C 311.7316 590.3665 312.8607 590.1426 314.131 590.0307C 314.9779 586.2255 314.8368 581.7486 314.8368 577.1598z" /></clipPath><clipPath id="85"><path id="" clip-rule="evenodd" transform="matrix(1 0 0 1 0 0)" d="M51.03807 420.6949L314.8837 420.6949L314.8837 420.6949L314.8837 597.9771L314.8837 597.9771L51.03807 597.9771z" /></clipPath><clipPath id="86"><path id="" clip-rule="evenodd" transform="matrix(1 0 0 1 0 0)" d="M0 -0.249939L595.5 -0.249939L595.5 -0.249939L595.5 842.0001L595.5 842.0001L0 842.0001z" /></clipPath><clipPath id="87"><path id="" clip-rule="evenodd" transform="matrix(1 0 0 1 0 0)" d="M339.7373 575.4787L558.7373 575.4787L558.7373 575.4787L558.7373 700.7287L558.7373 700.7287L339.7373 700.7287z" /></clipPath><clipPath id="88"><path id="" clip-rule="evenodd" transform="matrix(1 0 0 1 0 0)" d="M0 -0.249939L595.5 -0.249939L595.5 -0.249939L595.5 842.0001L595.5 842.0001L0 842.0001z" /></clipPath><clipPath id="89"><path id="" clip-rule="evenodd" transform="matrix(1 0 0 1 0 0)" d="M14.4 711.8301L352.32 711.8301L352.32 711.8301L352.32 819.11L352.32 819.11L14.4 819.11z" /></clipPath><clipPath id="90"><path id="" clip-rule="evenodd" transform="matrix(1 0 0 1 0 0)" d="M14.52404 712.0245L352.2906 712.0245L352.2906 712.0245L352.2906 818.9073L352.2906 818.9073L14.52404 818.9073z" /></clipPath><clipPath id="91"><path id="" clip-rule="evenodd" transform="matrix(1 0 0 1 0 0)" d="M35.52404 712.0245L331.1082 712.0245C 342.7061 712.0245 352.1082 721.4265 352.1082 733.0245L352.1082 733.0245L352.1082 797.9073C 352.1082 809.5053 342.7061 818.9073 331.1082 818.9073L331.1082 818.9073L35.52404 818.9073C 23.92606 818.9073 14.52404 809.5053 14.52404 797.9073L14.52404 797.9073L14.52404 733.0245C 14.52404 721.4265 23.92606 712.0245 35.52404 712.0245z" /></clipPath></defs><g transform="matrix(1.333333 0 0 1.333333 0 0)"><g clip-path="url(#1)"><g clip-path="url(#2)"><path id="1" transform="matrix(1 0 0 -1 0 842)" d="M0 842.2499L595.4999 842.2499L595.4999 -6.103516E-05L0 -6.103516E-05z" stroke="none" fill="#FFFFFF" fill-rule="nonzero" /></g><g clip-path="url(#3)"><path id="2" transform="matrix(1 0 0 -1 0 842)" d="M0 842.2499L595.4999 842.2499L595.4999 -6.103516E-05L0 -6.103516E-05z" stroke="none" fill="#DBD9D9" fill-rule="nonzero" /></g><g clip-path="url(#4)"><g><g clip-path="url(#5)"><g clip-path="url(#6)"><g transform="matrix(0 0.5128205 -0.5127462 0 522.0178 30.75189)"><g transform="matrix(1 0 0 1 0 0)"><image x="0" y="0" xlink:href="img_01.png" width="1521" height="863" /></g></g></g></g></g></g><g clip-path="url(#7)"><g clip-path="url(#8)"><g clip-path="url(#9)"><g clip-path="url(#10)"><path id="4" transform="matrix(1 0 0 -1 0 842)" d="M779.8776 -62.28819C 734.2043 -43.82796 703.674 -0.1947479 671.2682 35.45351C 638.842 71.13048 589.0298 117.9204 536.9664 87.22633C 517.0605 75.49084 502.8942 53.74222 500.1225 30.68158C 497.2001 6.377686 505.7138 -20.27138 492.9313 -41.32878C 482.8262 -57.98958 462.5273 -64.99144 443.7296 -67.15532C 413.5635 -70.62871 383.3114 -65.09608 353.0932 -67.69106C 322.8715 -70.28236 290.0085 -83.89723 277.0073 -112.3326C 263.9277 -140.9457 275.1785 -173.8239 288.6042 -201.2644C 317.0143 -259.33 359.1302 -315.1613 420.1723 -333.9157C 456.313 -345.0231 496.9553 -342.4022 530.1609 -360.3373C 573.0991 -383.5309 592.9597 -434.9444 629.3896 -467.5612C 672.7979 -506.4139 740.6248 -514.2584 793.7444 -486.5601C 846.8674 -458.8655 882.0535 -397.3126 879.0024 -337.4189C 877.579 -309.3857 868.5883 -282.3725 868.2552 -254.2642C 867.991 -232.1743 873.2 -209.833 883.2632 -189.8986C 893.9194 -168.7884 910.4636 -148.0289 908.0669 -124.8538C 905.6136 -101.1207 883.5123 -84.98692 861.1592 -78.69612C 838.7991 -72.40517 814.7935 -72.92479 792.4482 -66.59898C 788.1283 -65.37486 783.944 -63.93224 779.8776 -62.28819" stroke="none" fill="#FB1005" fill-rule="nonzero" /></g></g></g></g><g clip-path="url(#11)"><g clip-path="url(#12)"><g clip-path="url(#13)"><g clip-path="url(#14)"><path id="5" transform="matrix(1 0 0 -1 0 842)" d="M-203.55 794.1306C -164.1775 782.3662 -135.4152 748.5135 -105.719 721.4387C -76.00354 694.3416 -30.98143 659.3729 9.859634 688.9295C 25.47476 700.2301 35.54147 719.3983 36.04253 738.7662C 36.57164 759.1785 27.42018 780.6453 36.3915 799.1313C 43.48264 813.757 59.79383 821.157 75.2361 824.422C 100.0174 829.6622 125.5734 827.4298 150.4665 831.9446C 175.3629 836.4566 201.592 850.3298 210.1688 874.9602C 218.7969 899.7443 206.8858 926.1707 193.5932 947.9113C 165.4647 993.9153 126.1283 1036.994 73.96918 1047.802C 43.08749 1054.205 9.539291 1048.854 -19.438 1061.156C -56.90872 1077.065 -77.41747 1118.213 -110.219 1142.456C -149.3029 1171.333 -206.2447 1172.551 -248.1969 1145.4C -290.1523 1118.251 -314.5672 1064.385 -307.3563 1014.882C -303.9852 991.7123 -294.4091 969.9803 -291.9376 946.6628C -289.993 928.338 -292.5745 909.3771 -299.3752 892.0361C -306.5765 873.6722 -318.6952 855.1398 -314.8951 836.0804C -311.0044 816.562 -291.3897 804.889 -272.3345 801.41C -253.2735 797.9316 -233.3778 800.2377 -214.3264 796.7291C -210.6431 796.0498 -207.0555 795.1785 -203.55 794.1306" stroke="none" fill="#FB1005" fill-rule="nonzero" /></g></g></g></g><g clip-path="url(#15)"><g transform="matrix(0.05374753 0 0 0.0538818 501.1008 24.86224)"><g transform="matrix(1 0 0 1 0 0)"><image x="0" y="0" xlink:href="img_02.png" width="1521" height="863" /></g></g></g><g clip-path="url(#16)"><g transform="matrix(0.4929577 0 0 0.4906914 51.03807 24.86218)"><g transform="matrix(1 0 0 1 0 0)"><image x="0" y="0" xlink:href="img_03.png" width="213" height="188" /></g></g></g><g clip-path="url(#17)"><g clip-path="url(#18)"><g clip-path="url(#19)"><g clip-path="url(#20)"><path id="8" transform="matrix(1 0 0 -1 0 842)" d="M129.3554 735.5936L518.7189 735.5936L518.7189 659.678L129.3554 659.678z" stroke="none" fill="#FB1005" fill-rule="nonzero" /></g></g></g></g><g clip-path="url(#21)"><g clip-path="url(#22)"><g clip-path="url(#23)"><g clip-path="url(#24)"><g clip-path="url(#25)"><g clip-path="url(#26)"><g clip-path="url(#27)"><path id="9" transform="matrix(1 0 0 -1 0 842)" d="M469.8044 488.9644C 469.8044 472.8014 456.7625 459.7594 440.5995 459.7594L440.5995 459.7594L332.4742 459.7594C 316.3112 459.648 303.2693 472.8014 303.2693 488.9644C 303.2693 505.1275 316.3112 518.1694 332.4742 518.1694L332.4742 518.1694L440.488 518.1694C 456.7625 518.1694 469.8044 505.1275 469.8044 488.9644z" stroke="none" fill="#7ED957" fill-rule="nonzero" /></g></g></g></g></g></g></g><g clip-path="url(#28)"><g clip-path="url(#29)"><g clip-path="url(#30)"><g clip-path="url(#31)"><g clip-path="url(#32)"><g clip-path="url(#33)"><g clip-path="url(#34)"><path id="10" transform="matrix(1 0 0 -1 0 842)" d="M303.2693 488.9087C 303.2693 481.0423 306.3946 473.4982 311.9577 467.9358C 317.5208 462.3734 325.0659 459.2485 332.9333 459.2485L332.9333 459.2485L440.1404 459.2485C 448.0078 459.2485 455.5529 462.3734 461.116 467.9358C 466.6791 473.4982 469.8044 481.0423 469.8044 488.9087C 469.8044 496.7751 466.6791 504.3192 461.116 509.8816C 455.5529 515.444 448.0078 518.5688 440.1404 518.5688L440.1404 518.5688L332.9333 518.5688C 325.0659 518.5688 317.5208 515.444 311.9577 509.8816C 306.3946 504.3192 303.2693 496.7751 303.2693 488.9087z" stroke="#000000" stroke-width="6" fill="none" /></g></g></g></g></g></g></g><g clip-path="url(#35)"></g><g clip-path="url(#36)"><g clip-path="url(#37)"><g clip-path="url(#38)"><g clip-path="url(#39)"><g clip-path="url(#40)"><path id="47" transform="matrix(1 0 0 -1 0 842)" d="M457.9096 481.3712C 457.6143 481.7139 457.6501 482.2307 457.9902 482.5252L457.9902 482.5252L460.9509 485.0938C 461.291 485.3884 461.8062 485.3497 462.1016 485.007C 462.3969 484.6642 462.361 484.1475 462.0209 483.8529L462.0209 483.8529L459.0602 481.2843C 458.721 480.9881 458.2049 481.0284 457.9096 481.3712zM453.6089 483.5224C 453.1586 483.5514 452.8155 483.9389 452.8421 484.3905L452.8421 484.3905L453.0722 488.3198C 453.0988 488.7715 453.4832 489.1138 453.9335 489.0847C 454.3838 489.0557 454.7269 488.6683 454.7003 488.2166L454.7003 488.2166L454.4718 484.2882C 454.4452 483.8365 454.0592 483.4934 453.6089 483.5224zM448.3617 472.7798C 448.657 472.4371 448.6212 471.9204 448.2811 471.6258L448.2811 471.6258L445.3203 469.0572C 444.9803 468.7627 444.4651 468.8013 444.1697 469.1441C 443.8744 469.4868 443.9103 470.0035 444.2504 470.2981L444.2504 470.2981L447.2111 472.8667C 447.5512 473.1613 448.0664 473.1226 448.3617 472.7798zM446.6538 477.5221C 446.6272 477.0705 446.2429 476.7282 445.7925 476.7572L445.7925 476.7572L441.8734 477.0076C 441.4231 477.0366 441.08 477.424 441.1066 477.8757C 441.1332 478.3274 441.5176 478.6696 441.9679 478.6406L441.9679 478.6406L445.8845 478.391C 446.3364 478.3629 446.6788 477.9729 446.6538 477.5221zM448.9123 481.9391C 448.5722 481.6446 448.057 481.6832 447.7617 482.026L447.7617 482.026L445.1879 485.0108C 444.8926 485.3535 444.9285 485.8702 445.2686 486.1648C 445.6086 486.4594 446.1238 486.4207 446.4192 486.0779L446.4192 486.0779L448.9945 483.094C 449.2882 482.7504 449.2523 482.2336 448.9123 481.9391zM482.1653 460.9019C 482.6774 458.9413 482.1217 456.6927 480.782 455.1872C 480.0117 454.3218 479.0122 453.6895 477.9956 453.155C 476.9182 452.5873 475.8004 452.0899 474.6986 451.5711C 474.1395 451.3073 473.5794 451.0451 473.0192 450.787C 472.4895 450.5435 471.9684 450.2725 471.4322 450.0447C 471.0049 449.8633 470.5645 449.7606 470.1002 449.8506C 469.6004 449.947 469.1106 450.1345 468.6224 450.28C 466.2474 450.9879 463.8725 451.6957 461.4975 452.4037C 459.3845 453.0335 457.2714 453.6633 455.1584 454.2931C 454.8787 454.3765 454.6068 454.4534 454.3529 454.6066C 454.0159 454.8109 453.7434 455.1039 453.5576 455.4527C 453.1625 456.1976 453.2264 457.1946 453.8131 457.8185C 454.1643 458.1942 454.6355 458.4358 455.1471 458.4937C 455.4116 458.5242 455.6909 458.4964 455.9568 458.4891C 456.227 458.4819 456.4971 458.4748 456.7681 458.466C 457.847 458.4365 458.9243 458.4061 460.0032 458.3766C 460.0896 458.3744 460.176 458.3722 460.2624 458.37C 460.6173 458.3597 460.8566 458.7494 460.6855 459.0634C 460.4668 459.465 460.248 459.8665 460.0292 460.2681C 459.4801 461.2762 458.93 462.286 458.3809 463.2941C 457.6606 464.6163 456.9395 465.94 456.2194 467.2621C 455.4875 468.6057 454.7556 469.9493 454.0245 471.2913C 453.4439 472.3573 452.8632 473.4232 452.2825 474.4892C 452.0062 474.9966 451.7281 475.503 451.4534 476.0113C 451.1263 476.6196 451.0775 477.3387 451.3638 477.9705C 451.8152 478.96 452.9633 479.4525 453.9951 479.1145C 454.6069 478.9142 455.0102 478.4631 455.3091 477.9144C 455.518 477.531 455.7268 477.1476 455.9357 476.7642C 456.6424 475.4669 457.3491 474.1696 458.0549 472.8739C 458.5887 471.8939 459.1226 470.9138 459.6564 469.9338C 459.6844 469.8826 459.7132 469.8297 459.7411 469.7784C 460.0309 469.2463 460.8456 469.6901 460.5623 470.2258C 459.9118 471.4552 460.5635 473.0232 461.9281 473.3529C 462.6773 473.5338 463.4782 473.2951 464.0081 472.7329C 464.2996 472.4245 464.4819 472.0117 464.6827 471.6431C 464.8871 471.268 465.0905 470.8945 465.2949 470.5193C 465.5847 469.9872 466.3994 470.431 466.1161 470.9667C 465.4647 472.1977 466.1201 473.7591 467.4845 474.093C 468.2311 474.2747 469.0355 474.0335 469.5645 473.473C 469.8499 473.172 470.025 472.7723 470.2212 472.4121C 470.4274 472.0336 470.6335 471.6552 470.8397 471.2767C 471.1296 470.7445 471.9442 471.1884 471.6609 471.7241C 471.1602 472.6707 471.4051 473.8907 472.2902 474.5142C 473.3418 475.2542 474.8034 474.8975 475.4338 473.7793C 476.6132 471.6143 477.7916 469.451 478.9709 467.286C 479.575 466.1771 480.18 465.0665 480.784 463.9576C 481.3213 462.9752 481.8823 461.9885 482.1653 460.9019zM480.9119 465.6817C 479.6678 467.9657 478.4245 470.248 477.1804 472.532C 476.8734 473.0955 476.5655 473.6607 476.2585 474.2242C 475.5779 475.4308 474.1702 476.0912 472.8156 475.7627C 471.7476 475.5023 470.9102 474.6819 470.598 473.6481C 470.4528 473.8755 470.2863 474.0912 470.0815 474.2755C 469.3218 474.9546 468.2641 475.2463 467.2725 475.0062C 466.4054 474.7953 465.6318 474.1939 465.2441 473.3848C 465.1671 473.225 465.1054 473.0606 465.0564 472.8925C 464.9077 473.1265 464.7385 473.3472 464.5285 473.5371C 463.7766 474.2098 462.7406 474.5005 461.7551 474.2766C 460.8727 474.0745 460.0843 473.465 459.691 472.6465C 459.6172 472.4926 459.5569 472.3334 459.5085 472.172C 459.4545 472.2712 459.4014 472.3687 459.3474 472.4678C 458.6083 473.8247 457.8692 475.1815 457.131 476.5367C 456.8573 477.0391 456.5845 477.5398 456.3109 478.0422C 456.1317 478.3711 455.9644 478.6978 455.7344 478.9948C 454.8921 480.0875 453.3724 480.4297 452.1252 479.9197C 451.0414 479.4772 450.3077 478.396 450.2477 477.2275C 450.2014 476.3194 450.6182 475.6013 451.0305 474.8444C 451.5319 473.9239 452.0343 473.0017 452.5357 472.0811C 453.2532 470.764 453.9707 469.4468 454.6873 468.1313C 455.4462 466.7381 456.2051 465.345 456.965 463.9501C 457.5916 462.7999 458.2172 461.6513 458.8438 460.501C 459.0554 460.1127 459.2621 459.7174 459.4737 459.329C 458.7857 459.3486 458.0961 459.3672 457.4091 459.3852C 457.0374 459.3949 456.6649 459.4063 456.2916 459.4151C 455.6816 459.4322 455.0576 459.4908 454.4698 459.2992C 453.3198 458.9235 452.5189 457.9579 452.3942 456.7477C 452.2944 455.7932 452.6928 454.7802 453.4157 454.1453C 453.9747 453.6547 454.6312 453.4702 455.3228 453.264C 456.5179 452.9078 457.7156 452.5508 458.9107 452.1946C 461.4128 451.4488 463.9123 450.7038 466.4144 449.958C 467.0374 449.7723 467.6578 449.5874 468.2808 449.4017C 468.7996 449.2471 469.3171 449.0554 469.8476 448.9458C 470.3966 448.8333 470.9243 448.8615 471.453 449.0445C 472.0371 449.2469 472.5815 449.5457 473.1426 449.802C 474.3224 450.3419 475.4958 450.8975 476.6683 451.4547C 477.7972 451.9904 478.9358 452.512 479.9613 453.2335C 480.9468 453.9268 481.7988 454.7595 482.3789 455.8256C 482.9001 456.7846 483.2044 457.8526 483.2791 458.9433C 483.3607 460.1386 483.1083 461.2784 482.642 462.3766C 482.149 463.5203 481.5034 464.5959 480.9119 465.6817z" stroke="none" fill="#000000" fill-rule="nonzero" /></g></g></g></g></g><g clip-path="url(#41)"><g clip-path="url(#42)"><g clip-path="url(#43)"><g clip-path="url(#44)"><g clip-path="url(#45)"><g clip-path="url(#46)"><g clip-path="url(#47)"><path id="48" transform="matrix(1 0 0 -1 0 842)" d="M516.3231 403.4427C 516.3231 388.5681 504.3207 376.5657 489.4461 376.5657L489.4461 376.5657L389.9397 376.5657C 375.0651 376.4632 363.0627 388.5681 363.0627 403.4427C 363.0627 418.3174 375.0651 430.3197 389.9397 430.3197L389.9397 430.3197L489.3435 430.3197C 504.3207 430.3197 516.3231 418.3174 516.3231 403.4427z" stroke="none" fill="#7ED957" fill-rule="nonzero" /></g></g></g></g></g></g></g><g clip-path="url(#48)"><g clip-path="url(#49)"><g clip-path="url(#50)"><g clip-path="url(#51)"><g clip-path="url(#52)"><g clip-path="url(#53)"><g clip-path="url(#54)"><path id="49" transform="matrix(1 0 0 -1 0 842)" d="M363.0627 403.3914C 363.0627 396.1519 365.9389 389.2089 371.0586 384.0897C 376.1782 378.9706 383.1219 376.0947 390.3622 376.0947L390.3622 376.0947L489.0236 376.0947C 496.2639 376.0947 503.2076 378.9706 508.3272 384.0897C 513.4469 389.2089 516.3231 396.1519 516.3231 403.3914C 516.3231 410.631 513.4469 417.5741 508.3272 422.6932C 503.2076 427.8123 496.2639 430.6883 489.0236 430.6883L489.0236 430.6883L390.3622 430.6883C 383.1219 430.6883 376.1782 427.8123 371.0586 422.6932C 365.9389 417.5741 363.0627 410.631 363.0627 403.3914z" stroke="#000000" stroke-width="6" fill="none" /></g></g></g></g></g></g></g><g clip-path="url(#55)"></g><g clip-path="url(#56)"><g clip-path="url(#57)"><g clip-path="url(#58)"><g clip-path="url(#59)"><g clip-path="url(#60)"><path id="70" transform="matrix(1 0 0 -1 0 842)" d="M504.9734 395.4554C 504.6497 395.8311 504.689 396.3976 505.0618 396.7204L505.0618 396.7204L508.3072 399.536C 508.68 399.8589 509.2447 399.8165 509.5685 399.4408C 509.8922 399.0651 509.8528 398.4987 509.4801 398.1758L509.4801 398.1758L506.2346 395.3602C 505.8629 395.0356 505.2971 395.0797 504.9734 395.4554zM500.2592 397.8135C 499.7656 397.8453 499.3895 398.27 499.4186 398.7651L499.4186 398.7651L499.6709 403.0722C 499.7001 403.5673 500.1214 403.9425 500.615 403.9107C 501.1086 403.8789 501.4847 403.4542 501.4556 402.9591L501.4556 402.9591L501.2051 398.653C 501.1759 398.1579 500.7528 397.7817 500.2592 397.8135zM494.5075 386.038C 494.8312 385.6623 494.7919 385.0959 494.4191 384.773L494.4191 384.773L491.1737 381.9574C 490.8009 381.6346 490.2361 381.6769 489.9124 382.0526C 489.5887 382.4283 489.628 382.9948 490.0008 383.3176L490.0008 383.3176L493.2462 386.1332C 493.619 386.4561 494.1837 386.4137 494.5075 386.038zM492.6353 391.2363C 492.6062 390.7412 492.1849 390.366 491.6913 390.3978L491.6913 390.3978L487.3953 390.6722C 486.9017 390.704 486.5256 391.1287 486.5548 391.6238C 486.5839 392.1189 487.0052 392.4941 487.4989 392.4623L487.4989 392.4623L491.792 392.1887C 492.2874 392.1579 492.6627 391.7304 492.6353 391.2363zM495.111 396.078C 494.7382 395.7551 494.1735 395.7975 493.8497 396.1732L493.8497 396.1732L491.0285 399.445C 490.7048 399.8207 490.7441 400.3871 491.1169 400.71C 491.4897 401.0328 492.0544 400.9904 492.3781 400.6148L492.3781 400.6148L495.2011 397.3439C 495.5231 396.9673 495.4838 396.4008 495.111 396.078zM531.5615 373.0179C 532.1227 370.8688 531.5136 368.404 530.0452 366.7537C 529.2007 365.8051 528.1051 365.112 526.9907 364.5261C 525.8098 363.9039 524.5845 363.3587 523.3768 362.79C 522.7639 362.5008 522.15 362.2133 521.5359 361.9305C 520.9553 361.6635 520.384 361.3665 519.7962 361.1168C 519.3278 360.918 518.8452 360.8054 518.3362 360.904C 517.7883 361.0096 517.2515 361.2152 516.7163 361.3747C 514.113 362.1506 511.5097 362.9266 508.9064 363.7025C 506.5901 364.3929 504.2739 365.0833 501.9577 365.7737C 501.6511 365.8651 501.353 365.9494 501.0748 366.1173C 500.7053 366.3412 500.4066 366.6624 500.203 367.0448C 499.7699 367.8613 499.8399 368.9542 500.483 369.6381C 500.868 370.0498 501.3845 370.3147 501.9453 370.3782C 502.2352 370.4117 502.5414 370.3811 502.8329 370.3731C 503.129 370.3653 503.4251 370.3575 503.7222 370.3478C 504.9048 370.3155 506.0857 370.2822 507.2683 370.2499C 507.363 370.2474 507.4577 370.245 507.5524 370.2426C 507.9415 370.2313 508.2037 370.6584 508.0163 371.0026C 507.7765 371.4428 507.5367 371.8831 507.2969 372.3232C 506.6949 373.4283 506.0919 374.5352 505.49 375.6402C 504.7006 377.0894 503.9101 378.5405 503.1207 379.9898C 502.3184 381.4626 501.5161 382.9354 500.7148 384.4063C 500.0783 385.5748 499.4418 386.7433 498.8053 387.9117C 498.5023 388.4678 498.1976 389.023 497.8965 389.5801C 497.5379 390.2469 497.4843 391.0353 497.7982 391.7278C 498.293 392.8124 499.5515 393.3523 500.6825 392.9818C 501.3531 392.7622 501.7953 392.2678 502.1229 391.6663C 502.3518 391.246 502.5808 390.8257 502.8097 390.4055C 503.5844 388.9834 504.359 387.5613 505.1327 386.1411C 505.7179 385.0668 506.303 383.9926 506.8882 382.9183C 506.9188 382.8622 506.9504 382.8042 506.981 382.748C 507.2987 382.1647 508.1918 382.6512 507.8812 383.2384C 507.1682 384.586 507.8826 386.3047 509.3784 386.6661C 510.1995 386.8645 511.0775 386.6028 511.6583 385.9866C 511.9779 385.6485 512.1777 385.196 512.3978 384.792C 512.6218 384.3808 512.8448 383.9713 513.0688 383.5601C 513.3866 382.9768 514.2796 383.4633 513.9691 384.0505C 513.255 385.3999 513.9733 387.1114 515.469 387.4774C 516.2874 387.6766 517.1691 387.4122 517.749 386.7979C 518.0618 386.4679 518.2537 386.0298 518.4689 385.6349C 518.6948 385.22 518.9208 384.8052 519.1468 384.3903C 519.4645 383.807 520.3575 384.2935 520.047 384.8807C 519.4981 385.9184 519.7666 387.2556 520.7368 387.9391C 521.8895 388.7503 523.4916 388.3592 524.1827 387.1335C 525.4754 384.7604 526.7672 382.3891 528.0599 380.016C 528.722 378.8004 529.3852 377.583 530.0473 376.3675C 530.6363 375.2906 531.2512 374.209 531.5615 373.0179zM530.1876 378.2574C 528.8237 380.7609 527.4609 383.2627 526.0972 385.7663C 525.7607 386.384 525.4232 387.0036 525.0867 387.6213C 524.3406 388.9438 522.7975 389.6678 521.3127 389.3076C 520.142 389.0223 519.2241 388.1229 518.8818 386.9897C 518.7227 387.239 518.5402 387.4755 518.3158 387.6774C 517.483 388.4218 516.3235 388.7416 515.2366 388.4784C 514.2861 388.2473 513.4382 387.588 513.0131 386.7011C 512.9288 386.5259 512.8611 386.3458 512.8074 386.1615C 512.6444 386.418 512.4589 386.6599 512.2288 386.8681C 511.4045 387.6054 510.269 387.9242 509.1887 387.6786C 508.2214 387.4571 507.3572 386.7891 506.9261 385.8918C 506.8452 385.7232 506.7792 385.5486 506.7261 385.3717C 506.6669 385.4804 506.6087 385.5873 506.5495 385.696C 505.7393 387.1833 504.9291 388.6706 504.1199 390.1561C 503.8199 390.7068 503.5209 391.2557 503.2209 391.8064C 503.0246 392.1669 502.8412 392.5251 502.5891 392.8506C 501.6658 394.0483 499.9999 394.4235 498.6328 393.8644C 497.4449 393.3793 496.6406 392.1942 496.5749 390.9134C 496.5241 389.9179 496.9809 389.1307 497.4329 388.3011C 497.9825 387.292 498.5331 386.2812 499.0828 385.2721C 499.8693 383.8283 500.6558 382.3845 501.4413 380.9425C 502.2732 379.4154 503.1051 377.8882 503.938 376.3593C 504.6248 375.0984 505.3106 373.8394 505.9974 372.5786C 506.2293 372.1528 506.456 371.7196 506.6879 371.2939C 505.9338 371.3153 505.1779 371.3358 504.4247 371.3554C 504.0174 371.366 503.609 371.3785 503.1998 371.3882C 502.5313 371.4069 501.8472 371.4712 501.2028 371.2611C 499.9423 370.8493 499.0643 369.7908 498.9277 368.4643C 498.8183 367.4181 499.2551 366.3076 500.0474 365.6117C 500.6602 365.0739 501.3798 364.8716 502.1379 364.6456C 503.4479 364.2552 504.7607 363.8639 506.0708 363.4734C 508.8134 362.6559 511.5533 361.8392 514.296 361.0218C 514.9789 360.8182 515.659 360.6155 516.3419 360.412C 516.9105 360.2425 517.4778 360.0324 518.0593 359.9122C 518.6611 359.789 519.2396 359.8199 519.8191 360.0204C 520.4594 360.2423 521.0561 360.5698 521.6711 360.8508C 522.9644 361.4425 524.2506 362.0515 525.5358 362.6624C 526.7733 363.2495 528.0214 363.8214 529.1455 364.6122C 530.2257 365.3722 531.1597 366.285 531.7955 367.4535C 532.3669 368.5047 532.7004 369.6754 532.7823 370.871C 532.8717 372.1812 532.595 373.4306 532.084 374.6345C 531.5435 375.8881 530.8359 377.0672 530.1876 378.2574z" stroke="none" fill="#000000" fill-rule="nonzero" /></g></g></g></g></g><g clip-path="url(#61)"><g clip-path="url(#62)"><g clip-path="url(#63)"><g clip-path="url(#64)"><g clip-path="url(#65)"><g clip-path="url(#66)"><g clip-path="url(#67)"><path id="71" transform="matrix(1 0 0 -1 0 842)" d="M574.8892 321.876C 574.8892 306.2651 562.2928 293.6688 546.6819 293.6688L546.6819 293.6688L442.2504 293.6688C 426.6396 293.5611 414.0432 306.2651 414.0432 321.876C 414.0432 337.4869 426.6396 350.0833 442.2504 350.0833L442.2504 350.0833L546.5742 350.0833C 562.2928 350.0833 574.8892 337.4869 574.8892 321.876z" stroke="none" fill="#7ED957" fill-rule="nonzero" /></g></g></g></g></g></g></g><g clip-path="url(#68)"><g clip-path="url(#69)"><g clip-path="url(#70)"><g clip-path="url(#71)"><g clip-path="url(#72)"><g clip-path="url(#73)"><g clip-path="url(#74)"><path id="72" transform="matrix(1 0 0 -1 0 842)" d="M414.0432 321.8222C 414.0432 314.2243 417.0617 306.9376 422.4348 301.5651C 427.8078 296.1926 435.0952 293.1743 442.6939 293.1743L442.6939 293.1743L546.2385 293.1743C 553.8371 293.1743 561.1245 296.1926 566.4976 301.5651C 571.8706 306.9376 574.8892 314.2243 574.8892 321.8222C 574.8892 329.4201 571.8706 336.7068 566.4976 342.0793C 561.1245 347.4518 553.8371 350.4701 546.2385 350.4701L546.2385 350.4701L442.6939 350.4701C 435.0952 350.4701 427.8078 347.4518 422.4348 342.0793C 417.0617 336.7068 414.0432 329.4201 414.0432 321.8222z" stroke="#000000" stroke-width="5.999999" fill="none" /></g></g></g></g></g></g></g><g clip-path="url(#75)"></g><g clip-path="url(#76)"><g clip-path="url(#77)"><g clip-path="url(#78)"><g clip-path="url(#79)"><g clip-path="url(#80)"><path id="93" transform="matrix(1 0 0 -1 0 842)" d="M562.9777 313.4933C 562.6379 313.8877 562.6792 314.4821 563.0704 314.821L563.0704 314.821L566.4765 317.7759C 566.8677 318.1147 567.4604 318.0703 567.8002 317.676C 568.1399 317.2817 568.0986 316.6873 567.7074 316.3484L567.7074 316.3484L564.3014 313.3934C 563.9112 313.0527 563.3174 313.0991 562.9777 313.4933zM558.0302 315.9682C 557.5121 316.0015 557.1174 316.4472 557.1479 316.9669L557.1479 316.9669L557.4128 321.4872C 557.4434 322.0067 557.8856 322.4005 558.4036 322.3671C 558.9216 322.3337 559.3163 321.888 559.2858 321.3684L559.2858 321.3684L559.0228 316.8492C 558.9922 316.3295 558.5482 315.9348 558.0302 315.9682zM551.9938 303.6098C 552.3335 303.2155 552.2922 302.6211 551.901 302.2822L551.901 302.2822L548.4949 299.3272C 548.1037 298.9884 547.511 299.0329 547.1713 299.4272C 546.8315 299.8215 546.8728 300.4159 547.264 300.7548L547.264 300.7548L550.6701 303.7097C 551.0613 304.0486 551.654 304.0041 551.9938 303.6098zM550.029 309.0654C 549.9984 308.5458 549.5562 308.152 549.0381 308.1854L549.0381 308.1854L544.5296 308.4734C 544.0115 308.5068 543.6168 308.9525 543.6474 309.4721C 543.678 309.9917 544.1202 310.3854 544.6382 310.3521L544.6382 310.3521L549.1439 310.0649C 549.6638 310.0326 550.0577 309.584 550.029 309.0654zM552.6271 314.1467C 552.2359 313.8078 551.6432 313.8523 551.3035 314.2466L551.3035 314.2466L548.3426 317.6804C 548.0028 318.0747 548.0441 318.6691 548.4354 319.008C 548.8265 319.3468 549.4193 319.3023 549.759 318.9081L549.759 318.9081L552.7217 315.4753C 553.0596 315.08 553.0184 314.4855 552.6271 314.1467zM590.8817 289.9453C 591.4708 287.6898 590.8315 285.103 589.2904 283.3711C 588.4042 282.3755 587.2543 281.648 586.0848 281.0332C 584.8453 280.3802 583.5595 279.808 582.2919 279.2111C 581.6487 278.9076 581.0044 278.6059 580.36 278.3091C 579.7505 278.0289 579.151 277.7171 578.5342 277.4551C 578.0426 277.2465 577.536 277.1283 577.0019 277.2318C 576.4269 277.3427 575.8635 277.5584 575.3018 277.7258C 572.5696 278.5401 569.8375 279.3545 567.1053 280.1689C 564.6744 280.8934 562.2436 281.618 559.8127 282.3425C 559.4909 282.4384 559.1781 282.5269 558.8861 282.7031C 558.4984 282.9381 558.1849 283.2752 557.9711 283.6765C 557.5166 284.5334 557.5901 285.6804 558.265 286.3981C 558.6691 286.8303 559.2111 287.1083 559.7997 287.1749C 560.1039 287.2101 560.4253 287.178 560.7312 287.1696C 561.042 287.1614 561.3527 287.1531 561.6646 287.143C 562.9057 287.1091 564.145 287.0742 565.3862 287.0402C 565.4856 287.0377 565.585 287.0351 565.6844 287.0326C 566.0927 287.0208 566.3679 287.469 566.1711 287.8303C 565.9195 288.2922 565.6678 288.7542 565.4161 289.2162C 564.7844 290.376 564.1516 291.5376 563.5198 292.6974C 562.6913 294.2184 561.8618 295.7412 561.0333 297.2622C 560.1912 298.8079 559.3492 300.3536 558.5083 301.8974C 557.8403 303.1237 557.1723 304.3499 556.5043 305.5762C 556.1863 306.1599 555.8665 306.7426 555.5505 307.3273C 555.1741 308.0271 555.118 308.8544 555.4473 309.5811C 555.9666 310.7195 557.2874 311.2861 558.4744 310.8973C 559.1783 310.6668 559.6423 310.1479 559.9861 309.5167C 560.2264 309.0756 560.4666 308.6345 560.7069 308.1935C 561.5199 306.701 562.3329 305.2085 563.1448 303.718C 563.759 302.5905 564.3732 301.4631 564.9873 300.3357C 565.0194 300.2768 565.0526 300.2159 565.0847 300.157C 565.4182 299.5448 566.3553 300.0553 566.0294 300.6716C 565.2811 302.0859 566.0308 303.8897 567.6006 304.269C 568.4625 304.4772 569.3839 304.2025 569.9935 303.5558C 570.3289 303.201 570.5386 302.7261 570.7695 302.3021C 571.0046 301.8705 571.2387 301.4409 571.4738 301.0093C 571.8073 300.3971 572.7445 300.9076 572.4186 301.5239C 571.6692 302.9401 572.4231 304.7363 573.9927 305.1205C 574.8516 305.3295 575.777 305.0521 576.3856 304.4073C 576.7139 304.0609 576.9153 303.6012 577.1411 303.1867C 577.3782 302.7513 577.6154 302.3159 577.8526 301.8806C 578.1861 301.2684 579.1233 301.7789 578.7974 302.3952C 578.2213 303.4843 578.5031 304.8877 579.5212 305.605C 580.731 306.4563 582.4125 306.0459 583.1377 304.7596C 584.4944 302.269 585.8501 299.7803 587.2068 297.2897C 587.9017 296.0139 588.5977 294.7364 589.2927 293.4606C 589.9108 292.3304 590.556 291.1953 590.8817 289.9453zM589.4398 295.4441C 588.0085 298.0715 586.5782 300.6971 585.147 303.3246C 584.7938 303.9729 584.4396 304.6231 584.0865 305.2715C 583.3035 306.6595 581.684 307.4193 580.1257 307.0413C 578.8971 306.7418 577.9337 305.7979 577.5745 304.6087C 577.4075 304.8702 577.2159 305.1184 576.9804 305.3304C 576.1064 306.1116 574.8896 306.4473 573.7488 306.171C 572.7513 305.9284 571.8615 305.2365 571.4153 304.3057C 571.3268 304.1219 571.2559 303.9328 571.1995 303.7394C 571.0283 304.0086 570.8337 304.2625 570.5922 304.481C 569.7271 305.2548 568.5354 305.5893 567.4016 305.3317C 566.3864 305.0992 565.4795 304.398 565.027 303.4564C 564.9421 303.2794 564.8729 303.0962 564.8171 302.9106C 564.755 303.0246 564.6939 303.1368 564.6318 303.2509C 563.7815 304.8118 562.9312 306.3727 562.082 307.9317C 561.7672 308.5096 561.4534 309.0857 561.1385 309.6637C 560.9324 310.0421 560.7399 310.4179 560.4754 310.7595C 559.5064 312.0166 557.7581 312.4103 556.3233 311.8235C 555.0765 311.3145 554.2324 310.0707 554.1635 308.7264C 554.1102 307.6817 554.5896 306.8556 555.0639 305.9849C 555.6408 304.9259 556.2187 303.865 556.7955 302.806C 557.621 301.2907 558.4464 299.7755 559.2708 298.2621C 560.1439 296.6594 561.0169 295.0566 561.891 293.452C 562.6118 292.1288 563.3316 290.8074 564.0524 289.4842C 564.2958 289.0374 564.5337 288.5827 564.7771 288.1359C 563.9856 288.1584 563.1923 288.1799 562.4019 288.2005C 561.9744 288.2116 561.5458 288.2247 561.1163 288.2349C 560.4147 288.2545 559.6967 288.322 559.0205 288.1015C 557.6976 287.6693 556.7761 286.5584 556.6328 285.1663C 556.5179 284.0683 556.9763 282.9029 557.8079 282.1725C 558.451 281.6081 559.2062 281.3958 560.0018 281.1586C 561.3767 280.7488 562.7545 280.3381 564.1294 279.9283C 567.0078 279.0704 569.8833 278.2133 572.7617 277.3553C 573.4784 277.1418 574.1921 276.929 574.9089 276.7154C 575.5056 276.5375 576.1011 276.317 576.7113 276.1909C 577.3428 276.0616 577.95 276.094 578.5582 276.3045C 579.2301 276.5374 579.8564 276.881 580.5019 277.1759C 581.8592 277.7969 583.209 278.4361 584.5579 279.0772C 585.8566 279.6934 587.1664 280.2935 588.3462 281.1235C 589.4799 281.9211 590.4601 282.8791 591.1274 284.1055C 591.7271 285.2087 592.0771 286.4373 592.163 287.6921C 592.2568 289.0672 591.9665 290.3784 591.4301 291.6419C 590.8629 292.9576 590.1202 294.1949 589.4398 295.4441z" stroke="none" fill="#000000" fill-rule="nonzero" /></g></g></g></g></g><g clip-path="url(#81)"><g clip-path="url(#82)"><g clip-path="url(#83)"><g clip-path="url(#84)"><g clip-path="url(#85)"><g transform="matrix(0.4397427 0 0 0.4401275 50.97244 410.1038)"><g transform="matrix(1 0 0 1 0 0)"><image x="0" y="0" xlink:href="img_04.png" width="600" height="450" /></g></g></g></g></g></g></g><g clip-path="url(#86)"></g><g clip-path="url(#87)"><g transform="matrix(0.4211538 0 0 0.420302 339.7373 575.4787)"><g transform="matrix(1 0 0 1 0 0)"><image x="0" y="0" xlink:href="img_05.png" width="520" height="298" /></g></g></g><g clip-path="url(#88)"><g><g clip-path="url(#89)"><g clip-path="url(#90)"><g clip-path="url(#91)"><path id="339" transform="matrix(1 0 0 -1 0 842)" d="M14.52404 129.9755L352.2906 129.9755L352.2906 23.09265L14.52404 23.09265z" stroke="none" fill="#FFB5B1" fill-rule="nonzero" fill-opacity="0.3294118" /></g></g></g></g></g></g></g></svg>