<svg xmlns="http://www.w3.org/2000/svg" xmlns:xlink="http://www.w3.org/1999/xlink" id="body_1" preserveAspectRatio="xMinYMin meet" viewBox="0 0 793 1123"><defs><clipPath id="1"><path id="" clip-rule="evenodd" transform="matrix(1 0 0 1 0 0)" d="M0 842L0 -0.25L0 -0.25L595.5 -0.25L595.5 -0.25L595.5 842L595.5 842L0 842z" /></clipPath><clipPath id="2"><path id="" clip-rule="evenodd" transform="matrix(1 0 0 1 0 0)" d="M0 -0.249939L595.5 -0.249939L595.5 -0.249939L595.5 842.0001L595.5 842.0001L0 842.0001z" /></clipPath><clipPath id="3"><path id="" clip-rule="evenodd" transform="matrix(1 0 0 1 0 0)" d="M0 -0.249939L595.5 -0.249939L595.5 -0.249939L595.5 842.0001L595.5 842.0001L0 842.0001z" /></clipPath><clipPath id="4"><path id="" clip-rule="evenodd" transform="matrix(1 0 0 1 0 0)" d="M0 -0.249939L595.5 -0.249939L595.5 -0.249939L595.5 842.0001L595.5 842.0001L0 842.0001z" /></clipPath><clipPath id="5"><path id="" clip-rule="evenodd" transform="matrix(1 0 0 1 0 0)" d="M63.36 18.95007L519.6 18.95007L519.6 18.95007L519.6 823.1901L519.6 823.1901L63.36 823.1901z" /></clipPath><clipPath id="6"><path id="" clip-rule="evenodd" transform="matrix(1 0 0 1 0 0)" d="M63.50156 19.05255L519.5015 19.05255L519.5015 19.05255L519.5015 822.3026L519.5015 822.3026L63.50156 822.3026z" /></clipPath><clipPath id="7"><path id="" clip-rule="evenodd" transform="matrix(1 0 0 1 0 0)" d="M493.2132 25.98041L577.9632 25.98041L577.9632 25.98041L577.9632 73.98041L577.9632 73.98041L493.2132 73.98041z" /></clipPath><clipPath id="8"><path id="" clip-rule="evenodd" transform="matrix(1 0 0 1 0 0)" d="M38.88756 10.32037L128.8876 10.32037L128.8876 10.32037L128.8876 89.82037L128.8876 89.82037L38.88756 89.82037z" /></clipPath><clipPath id="9"><path id="" clip-rule="evenodd" transform="matrix(1 0 0 1 0 0)" d="M63.64943 101.9335L250.3994 101.9335L250.3994 101.9335L250.3994 251.1835L250.3994 251.1835L63.64943 251.1835z" /></clipPath><clipPath id="10"><path id="" clip-rule="evenodd" transform="matrix(1 0 0 1 0 0)" d="M0 -0.249939L595.5 -0.249939L595.5 -0.249939L595.5 842.0001L595.5 842.0001L0 842.0001z" /></clipPath><clipPath id="11"><path id="" clip-rule="evenodd" transform="matrix(1 0 0 1 0 0)" d="M19.44 278.8701L578.88 278.8701L578.88 278.8701L578.88 424.79L578.88 424.79L19.44 424.79z" /></clipPath><clipPath id="12"><path id="" clip-rule="evenodd" transform="matrix(1 0 0 1 0 0)" d="M19.53266 279.0123L578.6977 279.0123L578.6977 279.0123L578.6977 424.7824L578.6977 424.7824L19.53266 424.7824z" /></clipPath><clipPath id="13"><path id="" clip-rule="evenodd" transform="matrix(1 0 0 1 0 0)" d="M44.28266 279.0123L553.5328 279.0123C 567.2019 279.0123 578.2828 290.0932 578.2828 303.7623L578.2828 303.7623L578.2828 400.0324C 578.2828 413.7014 567.2019 424.7824 553.5328 424.7824L553.5328 424.7824L44.28266 424.7824C 30.61361 424.7824 19.53266 413.7014 19.53266 400.0324L19.53266 400.0324L19.53266 303.7623C 19.53266 290.0932 30.61361 279.0123 44.28266 279.0123z" /></clipPath><clipPath id="14"><path id="" clip-rule="evenodd" transform="matrix(1 0 0 1 0 0)" d="M494.4493 288.2247L561.1993 288.2247L561.1993 288.2247L561.1993 417.2248L561.1993 417.2248L494.4493 417.2248z" /></clipPath><clipPath id="15"><path id="" clip-rule="evenodd" transform="matrix(1 0 0 1 0 0)" d="M0 -0.249939L595.5 -0.249939L595.5 -0.249939L595.5 842.0001L595.5 842.0001L0 842.0001z" /></clipPath><clipPath id="16"><path id="" clip-rule="evenodd" transform="matrix(1 0 0 1 0 0)" d="M19.44 626.6301L578.64 626.6301L578.64 626.6301L578.64 788.39L578.64 788.39L19.44 788.39z" /></clipPath><clipPath id="17"><path id="" clip-rule="evenodd" transform="matrix(1 0 0 1 0 0)" d="M19.53266 626.819L578.6006 626.819L578.6006 626.819L578.6006 788.3555L578.6006 788.3555L19.53266 788.3555z" /></clipPath><clipPath id="18"><path id="" clip-rule="evenodd" transform="matrix(1 0 0 1 0 0)" d="M44.28266 626.819L553.5328 626.819C 567.2019 626.819 578.2828 637.8999 578.2828 651.569L578.2828 651.569L578.2828 763.6055C 578.2828 777.2746 567.2019 788.3555 553.5328 788.3555L553.5328 788.3555L44.28266 788.3555C 30.61361 788.3555 19.53266 777.2746 19.53266 763.6055L19.53266 763.6055L19.53266 651.569C 19.53266 637.8999 30.61361 626.819 44.28266 626.819z" /></clipPath><clipPath id="19"><path id="" clip-rule="evenodd" transform="matrix(1 0 0 1 0 0)" d="M505.9001 641.069L569.6501 641.069L569.6501 641.069L569.6501 772.319L569.6501 772.319L505.9001 772.319z" /></clipPath><clipPath id="20"><path id="" clip-rule="evenodd" transform="matrix(1 0 0 1 0 0)" d="M0 -0.249939L595.5 -0.249939L595.5 -0.249939L595.5 842.0001L595.5 842.0001L0 842.0001z" /></clipPath><clipPath id="21"><path id="" clip-rule="evenodd" transform="matrix(1 0 0 1 0 0)" d="M19.44 437.5101L578.64 437.5101L578.64 437.5101L578.64 599.2701L578.64 599.2701L19.44 599.2701z" /></clipPath><clipPath id="22"><path id="" clip-rule="evenodd" transform="matrix(1 0 0 1 0 0)" d="M19.53266 437.5324L578.6006 437.5324L578.6006 437.5324L578.6006 599.069L578.6006 599.069L19.53266 599.069z" /></clipPath><clipPath id="23"><path id="" clip-rule="evenodd" transform="matrix(1 0 0 1 0 0)" d="M44.28266 437.5324L553.5328 437.5324C 567.2019 437.5324 578.2828 448.6133 578.2828 462.2824L578.2828 462.2824L578.2828 574.319C 578.2828 587.988 567.2019 599.069 553.5328 599.069L553.5328 599.069L44.28266 599.069C 30.61361 599.069 19.53266 587.988 19.53266 574.319L19.53266 574.319L19.53266 462.2824C 19.53266 448.6133 30.61361 437.5324 44.28266 437.5324z" /></clipPath><clipPath id="24"><path id="" clip-rule="evenodd" transform="matrix(1 0 0 1 0 0)" d="M36.42442 449.9091L109.9244 449.9091L109.9244 449.9091L109.9244 586.4091L109.9244 586.4091L36.42442 586.4091z" /></clipPath></defs><g transform="matrix(1.333333 0 0 1.333333 0 0)"><g clip-path="url(#1)"><g clip-path="url(#2)"><path id="1" transform="matrix(1 0 0 -1 0 842)" d="M0 842.2499L595.4999 842.2499L595.4999 -6.103516E-05L0 -6.103516E-05z" stroke="none" fill="#FFFFFF" fill-rule="nonzero" /></g><g clip-path="url(#3)"><path id="2" transform="matrix(1 0 0 -1 0 842)" d="M0 842.2499L595.4999 842.2499L595.4999 -6.103516E-05L0 -6.103516E-05z" stroke="none" fill="#FFFFFF" fill-rule="nonzero" /></g><g clip-path="url(#4)"><g><g clip-path="url(#5)"><g clip-path="url(#6)"><g transform="matrix(0 0.5281065 -0.5283893 0 519.5015 19.05261)"><g transform="matrix(1 0 0 1 0 0)"><image x="0" y="0" xlink:href="img_01.png" width="1521" height="863" /></g></g></g></g></g></g><g clip-path="url(#7)"><g transform="matrix(0.05571992 0 0 0.05561992 493.2132 25.98047)"><g transform="matrix(1 0 0 1 0 0)"><image x="0" y="0" xlink:href="img_02.png" width="1521" height="863" /></g></g></g><g clip-path="url(#8)"><g transform="matrix(0.4225352 0 0 0.4228723 38.88755 10.32037)"><g transform="matrix(1 0 0 1 0 0)"><image x="0" y="0" xlink:href="img_03.png" width="213" height="188" /></g></g></g><g clip-path="url(#9)"><g transform="matrix(0.5574626 0 0 0.5548327 63.64943 101.9335)"><g transform="matrix(1 0 0 1 0 0)"><image x="0" y="0" xlink:href="img_04.png" width="335" height="269" /></g></g></g><g clip-path="url(#10)"><g><g clip-path="url(#11)"><g clip-path="url(#12)"><g clip-path="url(#13)"><path id="98" transform="matrix(1 0 0 -1 0 842)" d="M19.53266 562.9877L578.1283 562.9877L578.1283 417.2176L19.53266 417.2176z" stroke="none" fill="#E80808" fill-rule="nonzero" fill-opacity="0.3490196" /></g></g></g></g></g><g clip-path="url(#14)"><g transform="matrix(0.483582 0 0 0.4823419 399.1107 287.9299)"><g transform="matrix(1 0 0 1 0 0)"><image x="0" y="0" xlink:href="img_04.png" width="335" height="269" /></g></g></g><g clip-path="url(#15)"><g><g clip-path="url(#16)"><g clip-path="url(#17)"><g clip-path="url(#18)"><path id="303" transform="matrix(1 0 0 -1 0 842)" d="M19.53266 215.181L577.9697 215.181L577.9697 53.64442L19.53266 53.64442z" stroke="none" fill="#7ED957" fill-rule="nonzero" fill-opacity="0.3490196" /></g></g></g></g></g><g clip-path="url(#19)"><g transform="matrix(0.6089552 0 0 0.6078066 505.9001 609.0884)"><g transform="matrix(1 0 0 1 0 0)"><image x="0" y="0" xlink:href="img_04.png" width="335" height="269" /></g></g></g><g clip-path="url(#20)"><g><g clip-path="url(#21)"><g clip-path="url(#22)"><g clip-path="url(#23)"><path id="495" transform="matrix(1 0 0 -1 0 842)" d="M19.53266 404.4676L577.9697 404.4676L577.9697 242.931L19.53266 242.931z" stroke="none" fill="#F2FF00" fill-rule="nonzero" fill-opacity="0.3490196" /></g></g></g></g></g><g clip-path="url(#24)"><g transform="matrix(0.5574626 0 0 0.5548327 -14.52169 437.3636)"><g transform="matrix(1 0 0 1 0 0)"><image x="0" y="0" xlink:href="img_04.png" width="335" height="269" /></g></g></g></g></g></svg>