<svg xmlns="http://www.w3.org/2000/svg" xmlns:xlink="http://www.w3.org/1999/xlink" id="body_1" preserveAspectRatio="xMinYMin meet" viewBox="0 0 793 1123"><defs><clipPath id="1"><path id="" clip-rule="evenodd" transform="matrix(1 0 0 1 0 0)" d="M0 842L0 -0.25L0 -0.25L595.5 -0.25L595.5 -0.25L595.5 842L595.5 842L0 842z" /></clipPath><clipPath id="2"><path id="" clip-rule="evenodd" transform="matrix(1 0 0 1 0 0)" d="M0 -0.249939L595.5 -0.249939L595.5 -0.249939L595.5 842.0001L595.5 842.0001L0 842.0001z" /></clipPath><clipPath id="3"><path id="" clip-rule="evenodd" transform="matrix(1 0 0 1 0 0)" d="M0 -0.249939L595.5 -0.249939L595.5 -0.249939L595.5 842.0001L595.5 842.0001L0 842.0001z" /></clipPath><clipPath id="4"><path id="" clip-rule="evenodd" transform="matrix(1 0 0 1 0 0)" d="M0 -0.249939L595.5 -0.249939L595.5 -0.249939L595.5 842.0001L595.5 842.0001L0 842.0001z" /></clipPath><clipPath id="5"><path id="" clip-rule="evenodd" transform="matrix(1 0 0 1 0 0)" d="M62.64 14.15009L506.16 14.15009L506.16 14.15009L506.16 794.3901L506.16 794.3901L62.64 794.3901z" /></clipPath><clipPath id="6"><path id="" clip-rule="evenodd" transform="matrix(1 0 0 1 0 0)" d="M63.4534 14.2832L505.9534 14.2832L505.9534 14.2832L505.9534 794.2832L505.9534 794.2832L63.4534 794.2832z" /></clipPath><clipPath id="7"><path id="" clip-rule="evenodd" transform="matrix(1 0 0 1 0 0)" d="M35.28 157.4301L560.4 157.4301L560.4 157.4301L560.4 265.6701L560.4 265.6701L35.28 265.6701z" /></clipPath><clipPath id="8"><path id="" clip-rule="evenodd" transform="matrix(1 0 0 1 0 0)" d="M35.3187 157.5275L560.3446 157.5275L560.3446 157.5275L560.3446 265.4847L560.3446 265.4847L35.3187 265.4847z" /></clipPath><clipPath id="9"><path id="" clip-rule="evenodd" transform="matrix(1 0 0 1 0 0)" d="M60.0687 157.5275L535.2068 157.5275C 548.8759 157.5275 559.9568 168.6085 559.9568 182.2775L559.9568 182.2775L559.9568 240.7347C 559.9568 254.4037 548.8759 265.4847 535.2068 265.4847L535.2068 265.4847L60.0687 265.4847C 46.39965 265.4847 35.3187 254.4037 35.3187 240.7347L35.3187 240.7347L35.3187 182.2775C 35.3187 168.6085 46.39965 157.5275 60.0687 157.5275z" /></clipPath><clipPath id="10"><path id="" clip-rule="evenodd" transform="matrix(1 0 0 1 0 0)" d="M0 -0.249939L595.5 -0.249939L595.5 -0.249939L595.5 842.0001L595.5 842.0001L0 842.0001z" /></clipPath><clipPath id="11"><path id="" clip-rule="evenodd" transform="matrix(1 0 0 1 0 0)" d="M0 -0.249939L595.5 -0.249939L595.5 -0.249939L595.5 842.0001L595.5 842.0001L0 842.0001z" /></clipPath><clipPath id="12"><path id="" clip-rule="evenodd" transform="matrix(1 0 0 1 0 0)" d="M55.24239 170.058L137.7424 170.058L137.7424 170.058L137.7424 253.308L137.7424 253.308L55.24239 253.308z" /></clipPath><clipPath id="13"><path id="" clip-rule="evenodd" transform="matrix(1 0 0 1 0 0)" d="M55.24239 197.808L55.24239 225.0858C 55.24239 240.4117 67.6665 252.8358 82.99239 252.8358L82.99239 252.8358L109.7855 252.8358C 125.1113 252.8358 137.5354 240.4117 137.5354 225.0858L137.5354 225.0858L137.5354 197.808C 137.5354 182.4821 125.1113 170.058 109.7855 170.058L109.7855 170.058L82.99239 170.058C 67.6665 170.058 55.24239 182.4821 55.24239 197.808z" /></clipPath><clipPath id="14"><path id="" clip-rule="evenodd" transform="matrix(1 0 0 1 0 0)" d="M55.24239 170.058L137.7424 170.058L137.7424 170.058L137.7424 252.558L137.7424 252.558L55.24239 252.558z" /></clipPath><clipPath id="15"><path id="" clip-rule="evenodd" transform="matrix(1 0 0 1 0 0)" d="M0 -0.249939L595.5 -0.249939L595.5 -0.249939L595.5 842.0001L595.5 842.0001L0 842.0001z" /></clipPath><clipPath id="16"><path id="" clip-rule="evenodd" transform="matrix(1 0 0 1 0 0)" d="M35.28 278.8701L560.4 278.8701L560.4 278.8701L560.4 369.35L560.4 369.35L35.28 369.35z" /></clipPath><clipPath id="17"><path id="" clip-rule="evenodd" transform="matrix(1 0 0 1 0 0)" d="M35.3187 278.9846L560.2633 278.9846L560.2633 278.9846L560.2633 369.237L560.2633 369.237L35.3187 369.237z" /></clipPath><clipPath id="18"><path id="" clip-rule="evenodd" transform="matrix(1 0 0 1 0 0)" d="M60.0687 278.9846L535.2068 278.9846C 548.8759 278.9846 559.9568 290.0656 559.9568 303.7346L559.9568 303.7346L559.9568 344.487C 559.9568 358.1561 548.8759 369.237 535.2068 369.237L535.2068 369.237L60.0687 369.237C 46.39965 369.237 35.3187 358.1561 35.3187 344.487L35.3187 344.487L35.3187 303.7346C 35.3187 290.0656 46.39965 278.9846 60.0687 278.9846z" /></clipPath><clipPath id="19"><path id="" clip-rule="evenodd" transform="matrix(1 0 0 1 0 0)" d="M0 -0.249939L595.5 -0.249939L595.5 -0.249939L595.5 842.0001L595.5 842.0001L0 842.0001z" /></clipPath><clipPath id="20"><path id="" clip-rule="evenodd" transform="matrix(1 0 0 1 0 0)" d="M0 -0.249939L595.5 -0.249939L595.5 -0.249939L595.5 842.0001L595.5 842.0001L0 842.0001z" /></clipPath><clipPath id="21"><path id="" clip-rule="evenodd" transform="matrix(1 0 0 1 0 0)" d="M455.7069 283.0131L538.2069 283.0131L538.2069 283.0131L538.2069 365.5131L538.2069 365.5131L455.7069 365.5131z" /></clipPath><clipPath id="22"><path id="" clip-rule="evenodd" transform="matrix(1 0 0 1 0 0)" d="M455.7069 310.7631L455.7069 337.4585C 455.7069 352.7844 468.131 365.2085 483.4569 365.2085L483.4569 365.2085L510.1523 365.2085C 525.4782 365.2085 537.9023 352.7844 537.9023 337.4585L537.9023 337.4585L537.9023 310.7631C 537.9023 295.4372 525.4782 283.0131 510.1523 283.0131L510.1523 283.0131L483.4569 283.0131C 468.131 283.0131 455.7069 295.4372 455.7069 310.7631z" /></clipPath><clipPath id="23"><path id="" clip-rule="evenodd" transform="matrix(1 0 0 1 0 0)" d="M455.7069 283.0131L538.2069 283.0131L538.2069 283.0131L538.2069 365.5131L538.2069 365.5131L455.7069 365.5131z" /></clipPath><clipPath id="24"><path id="" clip-rule="evenodd" transform="matrix(1 0 0 1 0 0)" d="M0 -0.249939L595.5 -0.249939L595.5 -0.249939L595.5 842.0001L595.5 842.0001L0 842.0001z" /></clipPath><clipPath id="25"><path id="" clip-rule="evenodd" transform="matrix(1 0 0 1 0 0)" d="M35.28 378.9501L560.16 378.9501L560.16 378.9501L560.16 477.3501L560.16 477.3501L35.28 477.3501z" /></clipPath><clipPath id="26"><path id="" clip-rule="evenodd" transform="matrix(1 0 0 1 0 0)" d="M35.3187 379.0511L559.988 379.0511L559.988 379.0511L559.988 477.1631L559.988 477.1631L35.3187 477.1631z" /></clipPath><clipPath id="27"><path id="" clip-rule="evenodd" transform="matrix(1 0 0 1 0 0)" d="M60.0687 379.0511L535.2068 379.0511C 548.8759 379.0511 559.9568 390.132 559.9568 403.8011L559.9568 403.8011L559.9568 452.4131C 559.9568 466.0822 548.8759 477.1631 535.2068 477.1631L535.2068 477.1631L60.0687 477.1631C 46.39965 477.1631 35.3187 466.0822 35.3187 452.4131L35.3187 452.4131L35.3187 403.8011C 35.3187 390.132 46.39965 379.0511 60.0687 379.0511z" /></clipPath><clipPath id="28"><path id="" clip-rule="evenodd" transform="matrix(1 0 0 1 0 0)" d="M0 -0.249939L595.5 -0.249939L595.5 -0.249939L595.5 842.0001L595.5 842.0001L0 842.0001z" /></clipPath><clipPath id="29"><path id="" clip-rule="evenodd" transform="matrix(1 0 0 1 0 0)" d="M0 -0.249939L595.5 -0.249939L595.5 -0.249939L595.5 842.0001L595.5 842.0001L0 842.0001z" /></clipPath><clipPath id="30"><path id="" clip-rule="evenodd" transform="matrix(1 0 0 1 0 0)" d="M59.52755 388.4773L142.0276 388.4773L142.0276 388.4773L142.0276 470.9773L142.0276 470.9773L59.52755 470.9773z" /></clipPath><clipPath id="31"><path id="" clip-rule="evenodd" transform="matrix(1 0 0 1 0 0)" d="M59.52755 416.2273L59.52755 442.9228C 59.52755 458.2487 71.95165 470.6728 87.27756 470.6728L87.27756 470.6728L113.973 470.6728C 129.2989 470.6728 141.723 458.2487 141.723 442.9228L141.723 442.9228L141.723 416.2273C 141.723 400.9014 129.2989 388.4773 113.973 388.4773L113.973 388.4773L87.27756 388.4773C 71.95165 388.4773 59.52755 400.9014 59.52755 416.2273z" /></clipPath><clipPath id="32"><path id="" clip-rule="evenodd" transform="matrix(1 0 0 1 0 0)" d="M59.52755 388.4773L142.0276 388.4773L142.0276 388.4773L142.0276 470.9773L142.0276 470.9773L59.52755 470.9773z" /></clipPath><clipPath id="33"><path id="" clip-rule="evenodd" transform="matrix(1 0 0 1 0 0)" d="M0 -0.249939L595.5 -0.249939L595.5 -0.249939L595.5 842.0001L595.5 842.0001L0 842.0001z" /></clipPath><clipPath id="34"><path id="" clip-rule="evenodd" transform="matrix(1 0 0 1 0 0)" d="M35.28 609.11L560.4 609.11L560.4 609.11L560.4 714.7101L560.4 714.7101L35.28 714.7101z" /></clipPath><clipPath id="35"><path id="" clip-rule="evenodd" transform="matrix(1 0 0 1 0 0)" d="M35.3187 609.3015L560.2866 609.3015L560.2866 609.3015L560.2866 714.5417L560.2866 714.5417L35.3187 714.5417z" /></clipPath><clipPath id="36"><path id="" clip-rule="evenodd" transform="matrix(1 0 0 1 0 0)" d="M60.0687 609.3015L535.2068 609.3015C 548.8759 609.3015 559.9568 620.3824 559.9568 634.0515L559.9568 634.0515L559.9568 689.7917C 559.9568 703.4608 548.8759 714.5417 535.2068 714.5417L535.2068 714.5417L60.0687 714.5417C 46.39965 714.5417 35.3187 703.4608 35.3187 689.7917L35.3187 689.7917L35.3187 634.0515C 35.3187 620.3824 46.39965 609.3015 60.0687 609.3015z" /></clipPath><clipPath id="37"><path id="" clip-rule="evenodd" transform="matrix(1 0 0 1 0 0)" d="M0 -0.249939L595.5 -0.249939L595.5 -0.249939L595.5 842.0001L595.5 842.0001L0 842.0001z" /></clipPath><clipPath id="38"><path id="" clip-rule="evenodd" transform="matrix(1 0 0 1 0 0)" d="M0 -0.249939L595.5 -0.249939L595.5 -0.249939L595.5 842.0001L595.5 842.0001L0 842.0001z" /></clipPath><clipPath id="39"><path id="" clip-rule="evenodd" transform="matrix(1 0 0 1 0 0)" d="M52.19131 620.9457L134.6913 620.9457L134.6913 620.9457L134.6913 703.4457L134.6913 703.4457L52.19131 703.4457z" /></clipPath><clipPath id="40"><path id="" clip-rule="evenodd" transform="matrix(1 0 0 1 0 0)" d="M52.19131 648.6957L52.19131 675.1475C 52.19131 690.4734 64.61541 702.8975 79.94131 702.8975L79.94131 702.8975L106.6367 702.8975C 121.9626 702.8975 134.3867 690.4734 134.3867 675.1475L134.3867 675.1475L134.3867 648.6957C 134.3867 633.3699 121.9626 620.9457 106.6367 620.9457L106.6367 620.9457L79.94131 620.9457C 64.61541 620.9457 52.19131 633.3699 52.19131 648.6957z" /></clipPath><clipPath id="41"><path id="" clip-rule="evenodd" transform="matrix(1 0 0 1 0 0)" d="M52.19131 620.9457L134.6913 620.9457L134.6913 620.9457L134.6913 702.6957L134.6913 702.6957L52.19131 702.6957z" /></clipPath><clipPath id="42"><path id="" clip-rule="evenodd" transform="matrix(1 0 0 1 0 0)" d="M0 -0.249939L595.5 -0.249939L595.5 -0.249939L595.5 842.0001L595.5 842.0001L0 842.0001z" /></clipPath><clipPath id="43"><path id="" clip-rule="evenodd" transform="matrix(1 0 0 1 0 0)" d="M35.28 489.8301L560.4 489.8301L560.4 489.8301L560.4 595.91L560.4 595.91L35.28 595.91z" /></clipPath><clipPath id="44"><path id="" clip-rule="evenodd" transform="matrix(1 0 0 1 0 0)" d="M35.3187 489.9131L560.2106 489.9131L560.2106 489.9131L560.2106 595.8015L560.2106 595.8015L35.3187 595.8015z" /></clipPath><clipPath id="45"><path id="" clip-rule="evenodd" transform="matrix(1 0 0 1 0 0)" d="M60.0687 489.9131L535.2068 489.9131C 548.8759 489.9131 559.9568 500.994 559.9568 514.6631L559.9568 514.6631L559.9568 571.0515C 559.9568 584.7205 548.8759 595.8015 535.2068 595.8015L535.2068 595.8015L60.0687 595.8015C 46.39965 595.8015 35.3187 584.7205 35.3187 571.0515L35.3187 571.0515L35.3187 514.6631C 35.3187 500.994 46.39965 489.9131 60.0687 489.9131z" /></clipPath><clipPath id="46"><path id="" clip-rule="evenodd" transform="matrix(1 0 0 1 0 0)" d="M0 -0.249939L595.5 -0.249939L595.5 -0.249939L595.5 842.0001L595.5 842.0001L0 842.0001z" /></clipPath><clipPath id="47"><path id="" clip-rule="evenodd" transform="matrix(1 0 0 1 0 0)" d="M0 -0.249939L595.5 -0.249939L595.5 -0.249939L595.5 842.0001L595.5 842.0001L0 842.0001z" /></clipPath><clipPath id="48"><path id="" clip-rule="evenodd" transform="matrix(1 0 0 1 0 0)" d="M455.7069 501.1521L538.2069 501.1521L538.2069 501.1521L538.2069 583.652L538.2069 583.652L455.7069 583.652z" /></clipPath><clipPath id="49"><path id="" clip-rule="evenodd" transform="matrix(1 0 0 1 0 0)" d="M455.7069 528.902L455.7069 555.5975C 455.7069 570.9234 468.131 583.3475 483.4569 583.3475L483.4569 583.3475L510.2583 583.3475C 525.5842 583.3475 538.0082 570.9234 538.0082 555.5975L538.0082 555.5975L538.0082 528.902C 538.0082 513.5762 525.5842 501.1521 510.2583 501.1521L510.2583 501.1521L483.4569 501.1521C 468.131 501.1521 455.7069 513.5762 455.7069 528.902z" /></clipPath><clipPath id="50"><path id="" clip-rule="evenodd" transform="matrix(1 0 0 1 0 0)" d="M455.7069 501.1521L538.2069 501.1521L538.2069 501.1521L538.2069 583.652L538.2069 583.652L455.7069 583.652z" /></clipPath><clipPath id="51"><path id="" clip-rule="evenodd" transform="matrix(1 0 0 1 0 0)" d="M0 -0.249939L595.5 -0.249939L595.5 -0.249939L595.5 842.0001L595.5 842.0001L0 842.0001z" /></clipPath><clipPath id="52"><path id="" clip-rule="evenodd" transform="matrix(1 0 0 1 0 0)" d="M35.28 725.9901L560.16 725.9901L560.16 725.9901L560.16 825.11L560.16 825.11L35.28 825.11z" /></clipPath><clipPath id="53"><path id="" clip-rule="evenodd" transform="matrix(1 0 0 1 0 0)" d="M35.3187 726.0877L560.0496 726.0877L560.0496 726.0877L560.0496 824.9333L560.0496 824.9333L35.3187 824.9333z" /></clipPath><clipPath id="54"><path id="" clip-rule="evenodd" transform="matrix(1 0 0 1 0 0)" d="M60.0687 726.0877L535.2069 726.0877C 548.8759 726.0877 559.9569 737.1687 559.9569 750.8377L559.9569 750.8377L559.9569 800.1833C 559.9569 813.8524 548.8759 824.9333 535.2069 824.9333L535.2069 824.9333L60.0687 824.9333C 46.39965 824.9333 35.3187 813.8524 35.3187 800.1833L35.3187 800.1833L35.3187 750.8377C 35.3187 737.1687 46.39965 726.0877 60.0687 726.0877z" /></clipPath><clipPath id="55"><path id="" clip-rule="evenodd" transform="matrix(1 0 0 1 0 0)" d="M0 -0.249939L595.5 -0.249939L595.5 -0.249939L595.5 842.0001L595.5 842.0001L0 842.0001z" /></clipPath><clipPath id="56"><path id="" clip-rule="evenodd" transform="matrix(1 0 0 1 0 0)" d="M0 -0.249939L595.5 -0.249939L595.5 -0.249939L595.5 842.0001L595.5 842.0001L0 842.0001z" /></clipPath><clipPath id="57"><path id="" clip-rule="evenodd" transform="matrix(1 0 0 1 0 0)" d="M462.0744 736.403L543.8244 736.403L543.8244 736.403L543.8244 818.903L543.8244 818.903L462.0744 818.903z" /></clipPath><clipPath id="58"><path id="" clip-rule="evenodd" transform="matrix(1 0 0 1 0 0)" d="M462.0744 764.153L462.0744 790.6047C 462.0744 805.9306 474.4985 818.3547 489.8244 818.3547L489.8244 818.3547L515.7962 818.3547C 531.1221 818.3547 543.5462 805.9306 543.5462 790.6047L543.5462 790.6047L543.5462 764.153C 543.5462 748.8271 531.1221 736.403 515.7962 736.403L515.7962 736.403L489.8244 736.403C 474.4985 736.403 462.0744 748.8271 462.0744 764.153z" /></clipPath><clipPath id="59"><path id="" clip-rule="evenodd" transform="matrix(1 0 0 1 0 0)" d="M462.0744 736.403L543.8244 736.403L543.8244 736.403L543.8244 818.153L543.8244 818.153L462.0744 818.153z" /></clipPath><clipPath id="60"><path id="" clip-rule="evenodd" transform="matrix(1 0 0 1 0 0)" d="M0 -0.249939L595.5 -0.249939L595.5 -0.249939L595.5 842.0001L595.5 842.0001L0 842.0001z" /></clipPath><clipPath id="61"><path id="" clip-rule="evenodd" transform="matrix(1 0 0 1 0 0)" d="M499.6608 11.00061L584.4108 11.00061L584.4108 11.00061L584.4108 59.00061L584.4108 59.00061L499.6608 59.00061z" /></clipPath><clipPath id="62"><path id="" clip-rule="evenodd" transform="matrix(1 0 0 1 0 0)" d="M6.042091 6.794739L79.54209 6.794739L79.54209 6.794739L79.54209 72.04474L79.54209 72.04474L6.042091 72.04474z" /></clipPath></defs><g transform="matrix(1.333333 0 0 1.333333 0 0)"><g clip-path="url(#1)"><g clip-path="url(#2)"><path id="1" transform="matrix(1 0 0 -1 0 842)" d="M0 842.2499L595.4999 842.2499L595.4999 -6.103516E-05L0 -6.103516E-05z" stroke="none" fill="#FFFFFF" fill-rule="nonzero" /></g><g clip-path="url(#3)"><path id="2" transform="matrix(1 0 0 -1 0 842)" d="M0 842.2499L595.4999 842.2499L595.4999 -6.103516E-05L0 -6.103516E-05z" stroke="none" fill="#FFFFFF" fill-rule="nonzero" /></g><g clip-path="url(#4)"><g><g clip-path="url(#5)"><g clip-path="url(#6)"><g transform="matrix(0 0.5128205 -0.5127462 0 505.9534 14.2832)"><g transform="matrix(1 0 0 1 0 0)"><image x="0" y="0" xlink:href="img_01.png" width="1521" height="863" /></g></g></g></g></g><g><g clip-path="url(#7)"><g clip-path="url(#8)"><g clip-path="url(#9)"><path id="4" transform="matrix(1 0 0 -1 0 842)" d="M35.3187 684.4724L559.9229 684.4724L559.9229 576.5153L35.3187 576.5153z" stroke="none" fill="#004AAD" fill-rule="nonzero" fill-opacity="0.3490196" /></g></g></g></g></g><g clip-path="url(#10)"><g clip-path="url(#11)"><g clip-path="url(#12)"><g clip-path="url(#13)"><g clip-path="url(#14)"><g transform="matrix(0.2546296 0 0 0.2546296 54.99999 170.058)"><g transform="matrix(1 0 0 1 0 0)"><image x="0" y="0" xlink:href="img_02.png" width="324" height="324" /></g></g></g></g></g></g></g><g clip-path="url(#15)"><g><g clip-path="url(#16)"><g clip-path="url(#17)"><g clip-path="url(#18)"><path id="132" transform="matrix(1 0 0 -1 0 842)" d="M35.3187 563.0154L559.9109 563.0154L559.9109 472.763L35.3187 472.763z" stroke="none" fill="#004AAD" fill-rule="nonzero" fill-opacity="0.3490196" /></g></g></g></g></g><g clip-path="url(#19)"><g clip-path="url(#20)"><g clip-path="url(#21)"><g clip-path="url(#22)"><g clip-path="url(#23)"><g transform="matrix(0.2546296 0 0 0.2546296 455.7069 283.0131)"><g transform="matrix(1 0 0 1 0 0)"><image x="0" y="0" xlink:href="img_03.png" width="324" height="324" /></g></g></g></g></g></g></g><g clip-path="url(#24)"><g><g clip-path="url(#25)"><g clip-path="url(#26)"><g clip-path="url(#27)"><path id="243" transform="matrix(1 0 0 -1 0 842)" d="M35.3187 462.9489L559.988 462.9489L559.988 364.8369L35.3187 364.8369z" stroke="none" fill="#004AAD" fill-rule="nonzero" fill-opacity="0.3490196" /></g></g></g></g></g><g clip-path="url(#28)"><g clip-path="url(#29)"><g clip-path="url(#30)"><g clip-path="url(#31)"><g clip-path="url(#32)"><g transform="matrix(0.2546296 0 0 0.2546296 59.52755 388.4774)"><g transform="matrix(1 0 0 1 0 0)"><image x="0" y="0" xlink:href="img_04.png" width="324" height="324" /></g></g></g></g></g></g></g><g clip-path="url(#33)"><g><g clip-path="url(#34)"><g clip-path="url(#35)"><g clip-path="url(#36)"><path id="322" transform="matrix(1 0 0 -1 0 842)" d="M35.3187 232.6985L559.8756 232.6985L559.8756 127.4582L35.3187 127.4582z" stroke="none" fill="#004AAD" fill-rule="nonzero" fill-opacity="0.3490196" /></g></g></g></g></g><g clip-path="url(#37)"><g clip-path="url(#38)"><g clip-path="url(#39)"><g clip-path="url(#40)"><g clip-path="url(#41)"><g transform="matrix(0.2546296 0 0 0.2546296 51.94919 620.9458)"><g transform="matrix(1 0 0 1 0 0)"><image x="0" y="0" xlink:href="img_05.png" width="324" height="324" /></g></g></g></g></g></g></g><g clip-path="url(#42)"><g><g clip-path="url(#43)"><g clip-path="url(#44)"><g clip-path="url(#45)"><path id="427" transform="matrix(1 0 0 -1 0 842)" d="M35.3187 352.0869L559.797 352.0869L559.797 246.1985L35.3187 246.1985z" stroke="none" fill="#004AAD" fill-rule="nonzero" fill-opacity="0.3490196" /></g></g></g></g></g><g clip-path="url(#46)"><g clip-path="url(#47)"><g clip-path="url(#48)"><g clip-path="url(#49)"><g clip-path="url(#50)"><g transform="matrix(0.2546296 0 0 0.2546296 455.7069 501.0991)"><g transform="matrix(1 0 0 1 0 0)"><image x="0" y="0" xlink:href="img_06.png" width="324" height="324" /></g></g></g></g></g></g></g><g clip-path="url(#51)"><g><g clip-path="url(#52)"><g clip-path="url(#53)"><g clip-path="url(#54)"><path id="576" transform="matrix(1 0 0 -1 0 842)" d="M35.3187 115.9123L560.0496 115.9123L560.0496 17.0667L35.3187 17.0667z" stroke="none" fill="#004AAD" fill-rule="nonzero" fill-opacity="0.3490196" /></g></g></g></g></g><g clip-path="url(#55)"><g clip-path="url(#56)"><g clip-path="url(#57)"><g clip-path="url(#58)"><g clip-path="url(#59)"><g transform="matrix(0.2523148 0 0 0.2523148 461.8344 736.403)"><g transform="matrix(1 0 0 1 0 0)"><image x="0" y="0" xlink:href="img_07.png" width="324" height="324" /></g></g></g></g></g></g></g><g clip-path="url(#60)"></g><g clip-path="url(#61)"><g transform="matrix(0.05571992 0 0 0.05561992 499.6608 11.00061)"><g transform="matrix(1 0 0 1 0 0)"><image x="0" y="0" xlink:href="img_08.png" width="1521" height="863" /></g></g></g><g clip-path="url(#62)"><g transform="matrix(0.459375 0 0 0.4627659 6.042091 6.7948)"><g transform="matrix(1 0 0 1 0 0)"><image x="0" y="0" xlink:href="img_09.png" width="160" height="141" /></g></g></g></g></g></svg>