<svg xmlns="http://www.w3.org/2000/svg" xmlns:xlink="http://www.w3.org/1999/xlink" id="body_1" preserveAspectRatio="xMinYMin meet" viewBox="0 0 793 1123"><defs><clipPath id="1"><path id="" clip-rule="evenodd" transform="matrix(1 0 0 1 0 0)" d="M0 842L0 -0.25L0 -0.25L595.5 -0.25L595.5 -0.25L595.5 842L595.5 842L0 842z" /></clipPath><clipPath id="2"><path id="" clip-rule="evenodd" transform="matrix(1 0 0 1 0 0)" d="M0 -0.249939L595.5 -0.249939L595.5 -0.249939L595.5 842.0001L595.5 842.0001L0 842.0001z" /></clipPath><clipPath id="3"><path id="" clip-rule="evenodd" transform="matrix(1 0 0 1 0 0)" d="M0 -0.249939L595.5 -0.249939L595.5 -0.249939L595.5 842.0001L595.5 842.0001L0 842.0001z" /></clipPath><clipPath id="4"><path id="" clip-rule="evenodd" transform="matrix(1 0 0 1 0 0)" d="M0 -0.249939L595.5 -0.249939L595.5 -0.249939L595.5 842.0001L595.5 842.0001L0 842.0001z" /></clipPath><clipPath id="5"><path id="" clip-rule="evenodd" transform="matrix(1 0 0 1 0 0)" d="M80.88 18.95007L537.12 18.95007L537.12 18.95007L537.12 823.1901L537.12 823.1901L80.88 823.1901z" /></clipPath><clipPath id="6"><path id="" clip-rule="evenodd" transform="matrix(1 0 0 1 0 0)" d="M81.0154 19.05255L537.0154 19.05255L537.0154 19.05255L537.0154 822.3026L537.0154 822.3026L81.0154 822.3026z" /></clipPath><clipPath id="7"><path id="" clip-rule="evenodd" transform="matrix(1 0 0 1 0 0)" d="M466.4401 23.61578L551.1901 23.61578L551.1901 23.61578L551.1901 71.61578L551.1901 71.61578L466.4401 71.61578z" /></clipPath><clipPath id="8"><path id="" clip-rule="evenodd" transform="matrix(1 0 0 1 0 0)" d="M38.88756 10.32037L128.8876 10.32037L128.8876 10.32037L128.8876 89.82037L128.8876 89.82037L38.88756 89.82037z" /></clipPath><clipPath id="9"><path id="" clip-rule="evenodd" transform="matrix(1 0 0 1 0 0)" d="M0 -0.249939L595.5 -0.249939L595.5 -0.249939L595.5 842.0001L595.5 842.0001L0 842.0001z" /></clipPath><clipPath id="10"><path id="" clip-rule="evenodd" transform="matrix(1 0 0 1 0 0)" d="M0 -0.249939L595.5 -0.249939L595.5 -0.249939L595.5 842.0001L595.5 842.0001L0 842.0001z" /></clipPath><clipPath id="11"><path id="" clip-rule="evenodd" transform="matrix(1 0 0 1 0 0)" d="M211.3976 89.47375L571.2758 89.47375L571.2758 89.47375L571.2758 317.5154L571.2758 317.5154L211.3976 317.5154z" /></clipPath><clipPath id="12"><path id="" clip-rule="evenodd" transform="matrix(1 0 0 1 0 0)" d="M230.8976 89.47375L551.7252 89.47375C 562.4948 89.47375 571.2253 98.20416 571.2253 108.9738L571.2253 108.9738L571.2253 298.0154C 571.2253 308.7849 562.4948 317.5154 551.7252 317.5154L551.7252 317.5154L230.8976 317.5154C 220.1281 317.5154 211.3976 308.7849 211.3976 298.0154L211.3976 298.0154L211.3976 108.9738C 211.3976 98.20416 220.1281 89.47375 230.8976 89.47375z" /></clipPath><clipPath id="13"><path id="" clip-rule="evenodd" transform="matrix(1 0 0 1 0 0)" d="M0 -0.249939L595.5 -0.249939L595.5 -0.249939L595.5 842.0001L595.5 842.0001L0 842.0001z" /></clipPath><clipPath id="14"><path id="" clip-rule="evenodd" transform="matrix(1 0 0 1 0 0)" d="M0 -0.249939L595.5 -0.249939L595.5 -0.249939L595.5 842.0001L595.5 842.0001L0 842.0001z" /></clipPath><clipPath id="15"><path id="" clip-rule="evenodd" transform="matrix(1 0 0 1 0 0)" d="M0 -0.249939L595.5 -0.249939L595.5 -0.249939L595.5 842.0001L595.5 842.0001L0 842.0001z" /></clipPath><clipPath id="16"><path id="" clip-rule="evenodd" transform="matrix(1 0 0 1 0 0)" d="M26.13266 336.7143L408.0934 336.7143L408.0934 336.7143L408.0934 572.9026L408.0934 572.9026L26.13266 572.9026z" /></clipPath><clipPath id="17"><path id="" clip-rule="evenodd" transform="matrix(1 0 0 1 0 0)" d="M45.63266 336.7143L387.9889 336.7143C 398.7585 336.7143 407.4889 345.4447 407.4889 356.2143L407.4889 356.2143L407.4889 553.4026C 407.4889 564.1722 398.7585 572.9026 387.9889 572.9026L387.9889 572.9026L45.63266 572.9026C 34.86311 572.9026 26.13266 564.1722 26.13266 553.4026L26.13266 553.4026L26.13266 356.2143C 26.13266 345.4447 34.86311 336.7143 45.63266 336.7143z" /></clipPath><clipPath id="18"><path id="" clip-rule="evenodd" transform="matrix(1 0 0 1 0 0)" d="M0 -0.249939L595.5 -0.249939L595.5 -0.249939L595.5 842.0001L595.5 842.0001L0 842.0001z" /></clipPath><clipPath id="19"><path id="" clip-rule="evenodd" transform="matrix(1 0 0 1 0 0)" d="M0 -0.249939L595.5 -0.249939L595.5 -0.249939L595.5 842.0001L595.5 842.0001L0 842.0001z" /></clipPath><clipPath id="20"><path id="" clip-rule="evenodd" transform="matrix(1 0 0 1 0 0)" d="M0 -0.249939L595.5 -0.249939L595.5 -0.249939L595.5 842.0001L595.5 842.0001L0 842.0001z" /></clipPath><clipPath id="21"><path id="" clip-rule="evenodd" transform="matrix(1 0 0 1 0 0)" d="M38.88756 97.85645L147.6376 97.85645L147.6376 97.85645L147.6376 199.8564L147.6376 199.8564L38.88756 199.8564z" /></clipPath><clipPath id="22"><path id="" clip-rule="evenodd" transform="matrix(1 0 0 1 0 0)" d="M38.88756 125.6064L38.88756 171.3805C 38.88756 186.7064 51.31166 199.1305 66.63756 199.1305L66.63756 199.1305L119.3235 199.1305C 134.6494 199.1305 147.0735 186.7064 147.0735 171.3805L147.0735 171.3805L147.0735 125.6064C 147.0735 110.2805 134.6494 97.85645 119.3235 97.85645L119.3235 97.85645L66.63756 97.85645C 51.31166 97.85645 38.88756 110.2805 38.88756 125.6064z" /></clipPath><clipPath id="23"><path id="" clip-rule="evenodd" transform="matrix(1 0 0 1 0 0)" d="M38.88756 97.85645L146.8876 97.85645L146.8876 97.85645L146.8876 199.1064L146.8876 199.1064L38.88756 199.1064z" /></clipPath><clipPath id="24"><path id="" clip-rule="evenodd" transform="matrix(1 0 0 1 0 0)" d="M0 -0.249939L595.5 -0.249939L595.5 -0.249939L595.5 842.0001L595.5 842.0001L0 842.0001z" /></clipPath><clipPath id="25"><path id="" clip-rule="evenodd" transform="matrix(1 0 0 1 0 0)" d="M0 -0.249939L595.5 -0.249939L595.5 -0.249939L595.5 842.0001L595.5 842.0001L0 842.0001z" /></clipPath><clipPath id="26"><path id="" clip-rule="evenodd" transform="matrix(1 0 0 1 0 0)" d="M65.508 220.3468L192.258 220.3468L192.258 220.3468L192.258 317.8468L192.258 317.8468L65.508 317.8468z" /></clipPath><clipPath id="27"><path id="" clip-rule="evenodd" transform="matrix(1 0 0 1 0 0)" d="M65.508 248.0968L65.508 289.7966C 65.508 305.1226 77.93211 317.5466 93.258 317.5466L93.258 317.5466L164.0889 317.5466C 179.4148 317.5466 191.8389 305.1226 191.8389 289.7966L191.8389 289.7966L191.8389 248.0968C 191.8389 232.7709 179.4148 220.3468 164.0889 220.3468L164.0889 220.3468L93.258 220.3468C 77.93211 220.3468 65.508 232.7709 65.508 248.0968z" /></clipPath><clipPath id="28"><path id="" clip-rule="evenodd" transform="matrix(1 0 0 1 0 0)" d="M65.508 220.3468L191.508 220.3468L191.508 220.3468L191.508 317.8468L191.508 317.8468L65.508 317.8468z" /></clipPath><clipPath id="29"><path id="" clip-rule="evenodd" transform="matrix(1 0 0 1 0 0)" d="M428.8401 351.5348L571.34 351.5348L571.34 351.5348L571.34 455.7848L571.34 455.7848L428.8401 455.7848z" /></clipPath><clipPath id="30"><path id="" clip-rule="evenodd" transform="matrix(1 0 0 1 0 0)" d="M429.7496 474.4365L571.4996 474.4365L571.4996 474.4365L571.4996 563.6865L571.4996 563.6865L429.7496 563.6865z" /></clipPath><clipPath id="31"><path id="" clip-rule="evenodd" transform="matrix(1 0 0 1 0 0)" d="M0 -0.249939L595.5 -0.249939L595.5 -0.249939L595.5 842.0001L595.5 842.0001L0 842.0001z" /></clipPath><clipPath id="32"><path id="" clip-rule="evenodd" transform="matrix(1 0 0 1 0 0)" d="M0 -0.249939L595.5 -0.249939L595.5 -0.249939L595.5 842.0001L595.5 842.0001L0 842.0001z" /></clipPath><clipPath id="33"><path id="" clip-rule="evenodd" transform="matrix(1 0 0 1 0 0)" d="M184.0947 611.8033L571.3904 611.8033L571.3904 611.8033L571.3904 779.8503L571.3904 779.8503L184.0947 779.8503z" /></clipPath><clipPath id="34"><path id="" clip-rule="evenodd" transform="matrix(1 0 0 1 0 0)" d="M203.5947 611.8033L551.7253 611.8033C 562.4948 611.8033 571.2253 620.5338 571.2253 631.3033L571.2253 631.3033L571.2253 760.3503C 571.2253 771.1199 562.4948 779.8503 551.7253 779.8503L551.7253 779.8503L203.5947 779.8503C 192.8251 779.8503 184.0947 771.1199 184.0947 760.3503L184.0947 760.3503L184.0947 631.3033C 184.0947 620.5338 192.8251 611.8033 203.5947 611.8033z" /></clipPath><clipPath id="35"><path id="" clip-rule="evenodd" transform="matrix(1 0 0 1 0 0)" d="M0 -0.249939L595.5 -0.249939L595.5 -0.249939L595.5 842.0001L595.5 842.0001L0 842.0001z" /></clipPath><clipPath id="36"><path id="" clip-rule="evenodd" transform="matrix(1 0 0 1 0 0)" d="M0 -0.249939L595.5 -0.249939L595.5 -0.249939L595.5 842.0001L595.5 842.0001L0 842.0001z" /></clipPath><clipPath id="37"><path id="" clip-rule="evenodd" transform="matrix(1 0 0 1 0 0)" d="M0 -0.249939L595.5 -0.249939L595.5 -0.249939L595.5 842.0001L595.5 842.0001L0 842.0001z" /></clipPath><clipPath id="38"><path id="" clip-rule="evenodd" transform="matrix(1 0 0 1 0 0)" d="M38.88756 598.3469L168.6376 598.3469L168.6376 598.3469L168.6376 695.8469L168.6376 695.8469L38.88756 695.8469z" /></clipPath><clipPath id="39"><path id="" clip-rule="evenodd" transform="matrix(1 0 0 1 0 0)" d="M38.88756 626.0969L38.88756 667.9681C 38.88756 683.294 51.31166 695.7181 66.63756 695.7181L66.63756 695.7181L140.6708 695.7181C 155.9967 695.7181 168.4208 683.294 168.4208 667.9681L168.4208 667.9681L168.4208 626.0969C 168.4208 610.771 155.9967 598.3469 140.6708 598.3469L140.6708 598.3469L66.63756 598.3469C 51.31166 598.3469 38.88756 610.771 38.88756 626.0969z" /></clipPath><clipPath id="40"><path id="" clip-rule="evenodd" transform="matrix(1 0 0 1 0 0)" d="M38.88756 598.3469L168.6376 598.3469L168.6376 598.3469L168.6376 695.8469L168.6376 695.8469L38.88756 695.8469z" /></clipPath><clipPath id="41"><path id="" clip-rule="evenodd" transform="matrix(1 0 0 1 0 0)" d="M0 -0.249939L595.5 -0.249939L595.5 -0.249939L595.5 842.0001L595.5 842.0001L0 842.0001z" /></clipPath><clipPath id="42"><path id="" clip-rule="evenodd" transform="matrix(1 0 0 1 0 0)" d="M0 -0.249939L595.5 -0.249939L595.5 -0.249939L595.5 842.0001L595.5 842.0001L0 842.0001z" /></clipPath><clipPath id="43"><path id="" clip-rule="evenodd" transform="matrix(1 0 0 1 0 0)" d="M38.88756 710.5952L171.6376 710.5952L171.6376 710.5952L171.6376 803.5952L171.6376 803.5952L38.88756 803.5952z" /></clipPath><clipPath id="44"><path id="" clip-rule="evenodd" transform="matrix(1 0 0 1 0 0)" d="M38.88756 738.3452L38.88756 775.3571C 38.88756 790.683 51.31166 803.1071 66.63756 803.1071L66.63756 803.1071L143.4084 803.1071C 158.7344 803.1071 171.1584 790.683 171.1584 775.3571L171.1584 775.3571L171.1584 738.3452C 171.1584 723.0193 158.7344 710.5952 143.4084 710.5952L143.4084 710.5952L66.63756 710.5952C 51.31166 710.5952 38.88756 723.0193 38.88756 738.3452z" /></clipPath><clipPath id="45"><path id="" clip-rule="evenodd" transform="matrix(1 0 0 1 0 0)" d="M38.88756 710.5952L170.8876 710.5952L170.8876 710.5952L170.8876 802.8452L170.8876 802.8452L38.88756 802.8452z" /></clipPath></defs><g transform="matrix(1.333333 0 0 1.333333 0 0)"><g clip-path="url(#1)"><g clip-path="url(#2)"><path id="1" transform="matrix(1 0 0 -1 0 842)" d="M0 842.2499L595.4999 842.2499L595.4999 -6.103516E-05L0 -6.103516E-05z" stroke="none" fill="#FFFFFF" fill-rule="nonzero" /></g><g clip-path="url(#3)"><path id="2" transform="matrix(1 0 0 -1 0 842)" d="M0 842.2499L595.4999 842.2499L595.4999 -6.103516E-05L0 -6.103516E-05z" stroke="none" fill="#FFFFFF" fill-rule="nonzero" /></g><g clip-path="url(#4)"><g><g clip-path="url(#5)"><g clip-path="url(#6)"><g transform="matrix(0 0.5281065 -0.5283893 0 537.0154 19.05261)"><g transform="matrix(1 0 0 1 0 0)"><image x="0" y="0" xlink:href="img_01.png" width="1521" height="863" /></g></g></g></g></g></g><g clip-path="url(#7)"><g transform="matrix(0.05571992 0 0 0.05561992 466.4401 23.61584)"><g transform="matrix(1 0 0 1 0 0)"><image x="0" y="0" xlink:href="img_02.png" width="1521" height="863" /></g></g></g><g clip-path="url(#8)"><g transform="matrix(0.4225352 0 0 0.4228723 38.88755 10.32037)"><g transform="matrix(1 0 0 1 0 0)"><image x="0" y="0" xlink:href="img_03.png" width="213" height="188" /></g></g></g><g clip-path="url(#9)"><g clip-path="url(#10)"><g clip-path="url(#11)"><g clip-path="url(#12)"><path id="6" transform="matrix(1 0 0 -1 0 842)" d="M211.3976 752.5262L571.2758 752.5262L571.2758 524.4846L211.3976 524.4846z" stroke="none" fill="#D6E0E5" fill-rule="nonzero" /></g></g></g></g><g clip-path="url(#13)"></g><g clip-path="url(#14)"><g clip-path="url(#15)"><g clip-path="url(#16)"><g clip-path="url(#17)"><path id="389" transform="matrix(1 0 0 -1 0 842)" d="M26.13266 505.2857L407.1708 505.2857L407.1708 269.0974L26.13266 269.0974z" stroke="none" fill="#D6E0E5" fill-rule="nonzero" /></g></g></g></g><g clip-path="url(#18)"></g><g clip-path="url(#19)"><g clip-path="url(#20)"><g clip-path="url(#21)"><g clip-path="url(#22)"><g clip-path="url(#23)"><g transform="matrix(0.5 0 0 0.4987684 38.88755 97.85645)"><g transform="matrix(1 0 0 1 0 0)"><image x="0" y="0" xlink:href="img_04.png" width="216" height="203" /></g></g></g></g></g></g></g><g clip-path="url(#24)"><g clip-path="url(#25)"><g clip-path="url(#26)"><g clip-path="url(#27)"><g clip-path="url(#28)"><g transform="matrix(0.5753424 0 0 0.5769231 65.508 220.3468)"><g transform="matrix(1 0 0 1 0 0)"><image x="0" y="0" xlink:href="img_05.png" width="219" height="169" /></g></g></g></g></g></g></g><g clip-path="url(#29)"><g transform="matrix(0.5920303 0 0 0.5923295 428.8401 351.5348)"><g transform="matrix(1 0 0 1 0 0)"><image x="0" y="0" xlink:href="img_06.png" width="527" height="176" /></g></g></g><g clip-path="url(#30)"><g transform="matrix(0.5052181 0 0 0.5071023 304.8629 474.4365)"><g transform="matrix(1 0 0 1 0 0)"><image x="0" y="0" xlink:href="img_06.png" width="527" height="176" /></g></g></g><g clip-path="url(#31)"><g clip-path="url(#32)"><g clip-path="url(#33)"><g clip-path="url(#34)"><path id="839" transform="matrix(1 0 0 -1 0 842)" d="M184.0947 230.1966L571.3904 230.1966L571.3904 62.14967L184.0947 62.14967z" stroke="none" fill="#D6E0E5" fill-rule="nonzero" /></g></g></g></g><g clip-path="url(#35)"></g><g clip-path="url(#36)"><g clip-path="url(#37)"><g clip-path="url(#38)"><g clip-path="url(#39)"><g clip-path="url(#40)"><g transform="matrix(0.5897726 0 0 0.590909 38.88755 598.3469)"><g transform="matrix(1 0 0 1 0 0)"><image x="0" y="0" xlink:href="img_07.png" width="220" height="165" /></g></g></g></g></g></g></g><g clip-path="url(#41)"><g clip-path="url(#42)"><g clip-path="url(#43)"><g clip-path="url(#44)"><g clip-path="url(#45)"><g transform="matrix(0.5814977 0 0 0.5846154 38.88755 689.3821)"><g transform="matrix(1 0 0 1 0 0)"><image x="0" y="0" xlink:href="img_08.png" width="227" height="195" /></g></g></g></g></g></g></g></g></g></svg>