<svg xmlns="http://www.w3.org/2000/svg" xmlns:xlink="http://www.w3.org/1999/xlink" id="body_1" preserveAspectRatio="xMinYMin meet" viewBox="0 0 793 1123"><defs><clipPath id="1"><path id="" clip-rule="evenodd" transform="matrix(1 0 0 1 0 0)" d="M0 842L0 -0.250061L0 -0.250061L595.5 -0.250061L595.5 -0.250061L595.5 842L595.5 842L0 842z" /></clipPath><clipPath id="2"><path id="" clip-rule="evenodd" transform="matrix(1 0 0 1 0 0)" d="M0 -0.25L595.5 -0.25L595.5 -0.25L595.5 842.0012L595.5 842.0012L0 842.0012z" /></clipPath><clipPath id="3"><path id="" clip-rule="evenodd" transform="matrix(1 0 0 1 0 0)" d="M0 -0.25L595.5 -0.25L595.5 -0.25L595.5 842.0012L595.5 842.0012L0 842.0012z" /></clipPath><clipPath id="4"><path id="" clip-rule="evenodd" transform="matrix(1 0 0 1 0 0)" d="M0 -0.25L595.5 -0.25L595.5 -0.25L595.5 842.0012L595.5 842.0012L0 842.0012z" /></clipPath><clipPath id="5"><path id="" clip-rule="evenodd" transform="matrix(1 0 0 1 0 0)" d="M78.71999 30.71002L522.24 30.71002L522.24 30.71002L522.24 810.95L522.24 810.95L78.71999 810.95z" /></clipPath><clipPath id="6"><path id="" clip-rule="evenodd" transform="matrix(1 0 0 1 0 0)" d="M79.51786 30.75177L522.0178 30.75177L522.0178 30.75177L522.0178 810.7518L522.0178 810.7518L79.51786 810.7518z" /></clipPath><clipPath id="7"><path id="" clip-rule="evenodd" transform="matrix(1 0 0 1 0 0)" d="M34.08 301.67L558.72 301.67L558.72 301.67L558.72 313.91L558.72 313.91L34.08 313.91z" /></clipPath><clipPath id="8"><path id="" clip-rule="evenodd" transform="matrix(1 0 0 1 0 0)" d="M0 -0.25L595.5 -0.25L595.5 -0.25L595.5 842.0012L595.5 842.0012L0 842.0012z" /></clipPath><clipPath id="9"><path id="" clip-rule="evenodd" transform="matrix(1 0 0 1 0 0)" d="M0 -0.25L595.5 -0.25L595.5 -0.25L595.5 842.0012L595.5 842.0012L0 842.0012z" /></clipPath><clipPath id="10"><path id="" clip-rule="evenodd" transform="matrix(1 0 0 1 0 0)" d="M284.1264 444.7244L481.4448 444.7244L481.4448 444.7244L481.4448 585.8235L481.4448 585.8235L284.1264 585.8235z" /></clipPath><clipPath id="11"><path id="" clip-rule="evenodd" transform="matrix(1 0 0 1 0 0)" d="M290.1264 444.7244L475.0872 444.7244C 478.4016 444.7244 481.0872 447.41 481.0872 450.7244L481.0872 450.7244L481.0872 579.8228C 481.0872 583.1372 478.4016 585.8228 475.0872 585.8228L475.0872 585.8228L290.1264 585.8228C 286.8144 585.8228 284.1264 583.1372 284.1264 579.8228L284.1264 579.8228L284.1264 450.7244C 284.1264 447.41 286.8144 444.7244 290.1264 444.7244z" /></clipPath><clipPath id="12"><path id="" clip-rule="evenodd" transform="matrix(1 0 0 1 0 0)" d="M0 -0.25L595.5 -0.25L595.5 -0.25L595.5 842.0012L595.5 842.0012L0 842.0012z" /></clipPath><clipPath id="13"><path id="" clip-rule="evenodd" transform="matrix(1 0 0 1 0 0)" d="M0 -0.25L595.5 -0.25L595.5 -0.25L595.5 842.0012L595.5 842.0012L0 842.0012z" /></clipPath><clipPath id="14"><path id="" clip-rule="evenodd" transform="matrix(1 0 0 1 0 0)" d="M307.5432 461.6276L457.5727 461.6276L457.5727 461.6276L457.5727 495.4371L457.5727 495.4371L307.5432 495.4371z" /></clipPath><clipPath id="15"><path id="" clip-rule="evenodd" transform="matrix(1 0 0 1 0 0)" d="M312.0432 461.6276L452.988 461.6276C 455.4744 461.6276 457.488 463.6436 457.488 466.1276L457.488 466.1276L457.488 490.9388C 457.488 493.4228 455.4744 495.4388 452.988 495.4388L452.988 495.4388L312.0432 495.4388C 309.5568 495.4388 307.5432 493.4228 307.5432 490.9388L307.5432 490.9388L307.5432 466.1276C 307.5432 463.6436 309.5568 461.6276 312.0432 461.6276z" /></clipPath><clipPath id="16"><path id="" clip-rule="evenodd" transform="matrix(1 0 0 1 0 0)" d="M307.5432 461.6276L457.5432 461.6276L457.5432 461.6276L457.5432 495.3776L457.5432 495.3776L307.5432 495.3776z" /></clipPath><clipPath id="17"><path id="" clip-rule="evenodd" transform="matrix(1 0 0 1 0 0)" d="M0 -0.25L595.5 -0.25L595.5 -0.25L595.5 842.0012L595.5 842.0012L0 842.0012z" /></clipPath><clipPath id="18"><path id="" clip-rule="evenodd" transform="matrix(1 0 0 1 0 0)" d="M0 -0.25L595.5 -0.25L595.5 -0.25L595.5 842.0012L595.5 842.0012L0 842.0012z" /></clipPath><clipPath id="19"><path id="" clip-rule="evenodd" transform="matrix(1 0 0 1 0 0)" d="M70.67064 690.8804L267.989 690.8804L267.989 690.8804L267.989 831.9795L267.989 831.9795L70.67064 831.9795z" /></clipPath><clipPath id="20"><path id="" clip-rule="evenodd" transform="matrix(1 0 0 1 0 0)" d="M76.67064 690.8804L261.6312 690.8804C 264.9456 690.8804 267.6312 693.566 267.6312 696.8804L267.6312 696.8804L267.6312 825.9788C 267.6312 829.2932 264.9456 831.9788 261.6312 831.9788L261.6312 831.9788L76.67064 831.9788C 73.35696 831.9788 70.67064 829.2932 70.67064 825.9788L70.67064 825.9788L70.67064 696.8804C 70.67064 693.566 73.35696 690.8804 76.67064 690.8804z" /></clipPath><clipPath id="21"><path id="" clip-rule="evenodd" transform="matrix(1 0 0 1 0 0)" d="M0 -0.25L595.5 -0.25L595.5 -0.25L595.5 842.0012L595.5 842.0012L0 842.0012z" /></clipPath><clipPath id="22"><path id="" clip-rule="evenodd" transform="matrix(1 0 0 1 0 0)" d="M0 -0.25L595.5 -0.25L595.5 -0.25L595.5 842.0012L595.5 842.0012L0 842.0012z" /></clipPath><clipPath id="23"><path id="" clip-rule="evenodd" transform="matrix(1 0 0 1 0 0)" d="M94.08624 707.7836L244.1158 707.7836L244.1158 707.7836L244.1158 741.5931L244.1158 741.5931L94.08624 741.5931z" /></clipPath><clipPath id="24"><path id="" clip-rule="evenodd" transform="matrix(1 0 0 1 0 0)" d="M98.58624 707.7836L239.5318 707.7836C 242.016 707.7836 244.032 709.7996 244.032 712.2836L244.032 712.2836L244.032 737.0924C 244.032 739.5788 242.016 741.5924 239.5318 741.5924L239.5318 741.5924L98.58624 741.5924C 96.10104 741.5924 94.08624 739.5788 94.08624 737.0924L94.08624 737.0924L94.08624 712.2836C 94.08624 709.7996 96.10104 707.7836 98.58624 707.7836z" /></clipPath><clipPath id="25"><path id="" clip-rule="evenodd" transform="matrix(1 0 0 1 0 0)" d="M94.08624 707.7836L244.0862 707.7836L244.0862 707.7836L244.0862 741.5336L244.0862 741.5336L94.08624 741.5336z" /></clipPath><clipPath id="26"><path id="" clip-rule="evenodd" transform="matrix(1 0 0 1 0 0)" d="M0 -0.25L595.5 -0.25L595.5 -0.25L595.5 842.0012L595.5 842.0012L0 842.0012z" /></clipPath><clipPath id="27"><path id="" clip-rule="evenodd" transform="matrix(1 0 0 1 0 0)" d="M0 -0.25L595.5 -0.25L595.5 -0.25L595.5 842.0012L595.5 842.0012L0 842.0012z" /></clipPath><clipPath id="28"><path id="" clip-rule="evenodd" transform="matrix(1 0 0 1 0 0)" d="M70.53048 383.3684L267.8489 383.3684L267.8489 383.3684L267.8489 524.4675L267.8489 524.4675L70.53048 524.4675z" /></clipPath><clipPath id="29"><path id="" clip-rule="evenodd" transform="matrix(1 0 0 1 0 0)" d="M76.53048 383.3684L261.492 383.3684C 264.804 383.3684 267.492 386.054 267.492 389.3684L267.492 389.3684L267.492 518.4668C 267.492 521.7812 264.804 524.4668 261.492 524.4668L261.492 524.4668L76.53048 524.4668C 73.2168 524.4668 70.53048 521.7812 70.53048 518.4668L70.53048 518.4668L70.53048 389.3684C 70.53048 386.054 73.2168 383.3684 76.53048 383.3684z" /></clipPath><clipPath id="30"><path id="" clip-rule="evenodd" transform="matrix(1 0 0 1 0 0)" d="M0 -0.25L595.5 -0.25L595.5 -0.25L595.5 842.0012L595.5 842.0012L0 842.0012z" /></clipPath><clipPath id="31"><path id="" clip-rule="evenodd" transform="matrix(1 0 0 1 0 0)" d="M0 -0.25L595.5 -0.25L595.5 -0.25L595.5 842.0012L595.5 842.0012L0 842.0012z" /></clipPath><clipPath id="32"><path id="" clip-rule="evenodd" transform="matrix(1 0 0 1 0 0)" d="M93.94632 400.274L243.9758 400.274L243.9758 400.274L243.9758 434.0835L243.9758 434.0835L93.94632 434.0835z" /></clipPath><clipPath id="33"><path id="" clip-rule="evenodd" transform="matrix(1 0 0 1 0 0)" d="M98.44632 400.274L239.3918 400.274C 241.8768 400.274 243.8928 402.2876 243.8928 404.774L243.8928 404.774L243.8928 429.5828C 243.8928 432.0668 241.8768 434.0828 239.3918 434.0828L239.3918 434.0828L98.44632 434.0828C 95.96088 434.0828 93.94632 432.0668 93.94632 429.5828L93.94632 429.5828L93.94632 404.774C 93.94632 402.2876 95.96088 400.274 98.44632 400.274z" /></clipPath><clipPath id="34"><path id="" clip-rule="evenodd" transform="matrix(1 0 0 1 0 0)" d="M93.94632 400.274L243.9463 400.274L243.9463 400.274L243.9463 434.024L243.9463 434.024L93.94632 434.024z" /></clipPath><clipPath id="35"><path id="" clip-rule="evenodd" transform="matrix(1 0 0 1 0 0)" d="M0 -0.25L595.5 -0.25L595.5 -0.25L595.5 842.0012L595.5 842.0012L0 842.0012z" /></clipPath><clipPath id="36"><path id="" clip-rule="evenodd" transform="matrix(1 0 0 1 0 0)" d="M0 -0.25L595.5 -0.25L595.5 -0.25L595.5 842.0012L595.5 842.0012L0 842.0012z" /></clipPath><clipPath id="37"><path id="" clip-rule="evenodd" transform="matrix(1 0 0 1 0 0)" d="M0 -0.25L595.5 -0.25L595.5 -0.25L595.5 842.0012L595.5 842.0012L0 842.0012z" /></clipPath><clipPath id="38"><path id="" clip-rule="evenodd" transform="matrix(1 0 0 1 0 0)" d="M70.57872 539.522L267.8971 539.522L267.8971 539.522L267.8971 680.6212L267.8971 680.6212L70.57872 680.6212z" /></clipPath><clipPath id="39"><path id="" clip-rule="evenodd" transform="matrix(1 0 0 1 0 0)" d="M76.57872 539.522L261.54 539.522C 264.852 539.522 267.54 542.2076 267.54 545.522L267.54 545.522L267.54 674.6204C 267.54 677.9348 264.852 680.6204 261.54 680.6204L261.54 680.6204L76.57872 680.6204C 73.26504 680.6204 70.57872 677.9348 70.57872 674.6204L70.57872 674.6204L70.57872 545.522C 70.57872 542.2076 73.26504 539.522 76.57872 539.522z" /></clipPath><clipPath id="40"><path id="" clip-rule="evenodd" transform="matrix(1 0 0 1 0 0)" d="M0 -0.25L595.5 -0.25L595.5 -0.25L595.5 842.0012L595.5 842.0012L0 842.0012z" /></clipPath><clipPath id="41"><path id="" clip-rule="evenodd" transform="matrix(1 0 0 1 0 0)" d="M0 -0.25L595.5 -0.25L595.5 -0.25L595.5 842.0012L595.5 842.0012L0 842.0012z" /></clipPath><clipPath id="42"><path id="" clip-rule="evenodd" transform="matrix(1 0 0 1 0 0)" d="M93.99432 556.4252L244.0238 556.4252L244.0238 556.4252L244.0238 590.2347L244.0238 590.2347L93.99432 590.2347z" /></clipPath><clipPath id="43"><path id="" clip-rule="evenodd" transform="matrix(1 0 0 1 0 0)" d="M98.49432 556.4252L239.4398 556.4252C 241.9248 556.4252 243.9408 558.4412 243.9408 560.9252L243.9408 560.9252L243.9408 585.7364C 243.9408 588.2204 241.9248 590.2364 239.4398 590.2364L239.4398 590.2364L98.49432 590.2364C 96.00912 590.2364 93.99432 588.2204 93.99432 585.7364L93.99432 585.7364L93.99432 560.9252C 93.99432 558.4412 96.00912 556.4252 98.49432 556.4252z" /></clipPath><clipPath id="44"><path id="" clip-rule="evenodd" transform="matrix(1 0 0 1 0 0)" d="M93.99432 556.4252L243.9943 556.4252L243.9943 556.4252L243.9943 590.1752L243.9943 590.1752L93.99432 590.1752z" /></clipPath><clipPath id="45"><path id="" clip-rule="evenodd" transform="matrix(1 0 0 1 0 0)" d="M0 -0.25L595.5 -0.25L595.5 -0.25L595.5 842.0012L595.5 842.0012L0 842.0012z" /></clipPath><clipPath id="46"><path id="" clip-rule="evenodd" transform="matrix(1 0 0 1 0 0)" d="M0 -0.25L595.5 -0.25L595.5 -0.25L595.5 842.0012L595.5 842.0012L0 842.0012z" /></clipPath><clipPath id="47"><path id="" clip-rule="evenodd" transform="matrix(1 0 0 1 0 0)" d="M284.1264 600.8755L481.4448 600.8755L481.4448 600.8755L481.4448 741.9747L481.4448 741.9747L284.1264 741.9747z" /></clipPath><clipPath id="48"><path id="" clip-rule="evenodd" transform="matrix(1 0 0 1 0 0)" d="M290.1264 600.8755L475.0872 600.8755C 478.4016 600.8755 481.0872 603.5635 481.0872 606.8755L481.0872 606.8755L481.0872 735.9764C 481.0872 739.2908 478.4016 741.9764 475.0872 741.9764L475.0872 741.9764L290.1264 741.9764C 286.8144 741.9764 284.1264 739.2908 284.1264 735.9764L284.1264 735.9764L284.1264 606.8755C 284.1264 603.5635 286.8144 600.8755 290.1264 600.8755z" /></clipPath><clipPath id="49"><path id="" clip-rule="evenodd" transform="matrix(1 0 0 1 0 0)" d="M0 -0.25L595.5 -0.25L595.5 -0.25L595.5 842.0012L595.5 842.0012L0 842.0012z" /></clipPath><clipPath id="50"><path id="" clip-rule="evenodd" transform="matrix(1 0 0 1 0 0)" d="M0 -0.25L595.5 -0.25L595.5 -0.25L595.5 842.0012L595.5 842.0012L0 842.0012z" /></clipPath><clipPath id="51"><path id="" clip-rule="evenodd" transform="matrix(1 0 0 1 0 0)" d="M307.5432 617.7811L457.5727 617.7811L457.5727 617.7811L457.5727 651.5907L457.5727 651.5907L307.5432 651.5907z" /></clipPath><clipPath id="52"><path id="" clip-rule="evenodd" transform="matrix(1 0 0 1 0 0)" d="M312.0432 617.7811L452.988 617.7811C 455.4744 617.7811 457.488 619.7972 457.488 622.2811L457.488 622.2811L457.488 647.09C 457.488 649.5764 455.4744 651.59 452.988 651.59L452.988 651.59L312.0432 651.59C 309.5568 651.59 307.5432 649.5764 307.5432 647.09L307.5432 647.09L307.5432 622.2811C 307.5432 619.7972 309.5568 617.7811 312.0432 617.7811z" /></clipPath><clipPath id="53"><path id="" clip-rule="evenodd" transform="matrix(1 0 0 1 0 0)" d="M307.5432 617.7811L457.5432 617.7811L457.5432 617.7811L457.5432 651.5311L457.5432 651.5311L307.5432 651.5311z" /></clipPath><clipPath id="54"><path id="" clip-rule="evenodd" transform="matrix(1 0 0 1 0 0)" d="M0 -0.25L595.5 -0.25L595.5 -0.25L595.5 842.0012L595.5 842.0012L0 842.0012z" /></clipPath><clipPath id="55"><path id="" clip-rule="evenodd" transform="matrix(1 0 0 1 0 0)" d="M152.699 -0.25L492.4478 -0.25L492.4478 -0.25L492.4478 168.6195L492.4478 168.6195L152.699 168.6195z" /></clipPath><clipPath id="56"><path id="" clip-rule="evenodd" transform="matrix(1 0 0 1 0 0)" d="M0 -0.25L595.5 -0.25L595.5 -0.25L595.5 842.0012L595.5 842.0012L0 842.0012z" /></clipPath><clipPath id="57"><path id="" clip-rule="evenodd" transform="matrix(1 0 0 1 0 0)" d="M0 -0.25L595.5 -0.25L595.5 -0.25L595.5 842.0012L595.5 842.0012L0 842.0012z" /></clipPath><clipPath id="58"><path id="" clip-rule="evenodd" transform="matrix(1 0 0 1 0 0)" d="M0 -0.25L595.5 -0.25L595.5 -0.25L595.5 842.0012L595.5 842.0012L0 842.0012z" /></clipPath><clipPath id="59"><path id="" clip-rule="evenodd" transform="matrix(1 0 0 1 0 0)" d="M38.80248 14.90955L134.6419 14.90955L134.6419 14.90955L134.6419 139.9503L134.6419 139.9503L38.80248 139.9503z" /></clipPath><clipPath id="60"><path id="" clip-rule="evenodd" transform="matrix(1 0 0 1 0 0)" d="M51.55248 14.90955L121.8919 14.90955C 125.2735 14.90955 128.5164 16.25287 130.9075 18.64398C 133.2986 21.0351 134.6419 24.27802 134.6419 27.65961L134.6419 27.65961L134.6419 127.0537C 134.6419 130.4353 133.2986 133.6784 130.9075 136.0695C 128.5164 138.4604 125.2735 139.8037 121.8919 139.8037L121.8919 139.8037L51.55248 139.8037C 48.17088 139.8037 44.928 138.4604 42.53688 136.0695C 40.14576 133.6784 38.80248 130.4353 38.80248 127.0537L38.80248 127.0537L38.80248 27.65961C 38.80248 24.27802 40.14576 21.0351 42.53688 18.64398C 44.928 16.25287 48.17088 14.90955 51.55248 14.90955z" /></clipPath><clipPath id="61"><path id="" clip-rule="evenodd" transform="matrix(1 0 0 1 0 0)" d="M38.80248 14.90955L134.6419 14.90955L134.6419 14.90955L134.6419 139.9503L134.6419 139.9503L38.80248 139.9503z" /></clipPath><clipPath id="62"><path id="" clip-rule="evenodd" transform="matrix(1 0 0 1 0 0)" d="M0 -0.25L595.5 -0.25L595.5 -0.25L595.5 842.0012L595.5 842.0012L0 842.0012z" /></clipPath><clipPath id="63"><path id="" clip-rule="evenodd" transform="matrix(1 0 0 1 0 0)" d="M0 -0.25L595.5 -0.25L595.5 -0.25L595.5 842.0012L595.5 842.0012L0 842.0012z" /></clipPath><clipPath id="64"><path id="" clip-rule="evenodd" transform="matrix(1 0 0 1 0 0)" d="M38.80248 14.90955L134.8025 14.90955L134.8025 14.90955L134.8025 140.1595L134.8025 140.1595L38.80248 140.1595z" /></clipPath><clipPath id="65"><path id="" clip-rule="evenodd" transform="matrix(1 0 0 1 0 0)" d="M38.80344 14.90955L136.3711 14.90955L136.3711 14.90955L136.3711 139.7962L136.3711 139.7962L38.80344 139.7962z" /></clipPath><clipPath id="66"><path id="" clip-rule="evenodd" transform="matrix(1 0 0 1 0 0)" d="M51.55272 14.90955L121.8881 14.90955C 125.2694 14.90955 128.5121 16.25281 130.9032 18.64374C 133.2941 21.03467 134.6374 24.27753 134.6374 27.65887L134.6374 27.65887L134.6374 127.0469C 134.6374 130.4283 133.2941 133.6712 130.9032 136.0621C 128.5121 138.4529 125.2694 139.7963 121.8881 139.7963L121.8881 139.7963L51.55272 139.7963C 48.17136 139.7963 44.92848 138.4529 42.5376 136.0621C 40.14672 133.6712 38.80344 130.4283 38.80344 127.0469L38.80344 127.0469L38.80344 27.65887C 38.80344 24.27753 40.14672 21.03467 42.5376 18.64374C 44.92848 16.25281 48.17136 14.90955 51.55272 14.90955z" /></clipPath><clipPath id="67"><path id="" clip-rule="evenodd" transform="matrix(1 0 0 1 0 0)" d="M0 -0.25L595.5 -0.25L595.5 -0.25L595.5 842.0012L595.5 842.0012L0 842.0012z" /></clipPath><clipPath id="68"><path id="" clip-rule="evenodd" transform="matrix(1 0 0 1 0 0)" d="M0 -0.25L595.5 -0.25L595.5 -0.25L595.5 842.0012L595.5 842.0012L0 842.0012z" /></clipPath><clipPath id="69"><path id="" clip-rule="evenodd" transform="matrix(1 0 0 1 0 0)" d="M216.4032 100.3028L218.7562 132.4669L218.7562 132.4669L121.5161 139.5807L121.5161 139.5807L119.1631 107.4166L119.1631 107.4166L216.4032 100.3028z" /></clipPath><clipPath id="70"><path id="" clip-rule="evenodd" transform="matrix(1 0 0 1 0 0)" d="M218.7742 132.7124L216.4212 100.5483L216.4212 100.5483L119.1809 107.6622L119.1809 107.6622L121.5341 139.8262L121.5341 139.8262L218.7742 132.7124z" /></clipPath><clipPath id="71"><path id="" clip-rule="evenodd" transform="matrix(1 0 0 1 0 0)" d="M218.7742 132.7124L216.4212 100.5483L216.4212 100.5483L119.1809 107.6622L119.1809 107.6622L121.5341 139.8262L121.5341 139.8262L218.7742 132.7124z" /></clipPath><clipPath id="72"><path id="" clip-rule="evenodd" transform="matrix(1 0 0 1 0 0)" d="M0 -0.25L595.5 -0.25L595.5 -0.25L595.5 842.0012L595.5 842.0012L0 842.0012z" /></clipPath><clipPath id="73"><path id="" clip-rule="evenodd" transform="matrix(1 0 0 1 0 0)" d="M18.70901 123.3951L372.709 123.3951L372.709 123.3951L372.709 311.6451L372.709 311.6451L18.70901 311.6451z" /></clipPath><clipPath id="74"><path id="" clip-rule="evenodd" transform="matrix(1 0 0 1 0 0)" d="M0 -0.25L595.5 -0.25L595.5 -0.25L595.5 842.0012L595.5 842.0012L0 842.0012z" /></clipPath><clipPath id="75"><path id="" clip-rule="evenodd" transform="matrix(1 0 0 1 0 0)" d="M0 -0.25L595.5 -0.25L595.5 -0.25L595.5 842.0012L595.5 842.0012L0 842.0012z" /></clipPath><clipPath id="76"><path id="" clip-rule="evenodd" transform="matrix(1 0 0 1 0 0)" d="M0 -0.25L595.5 -0.25L595.5 -0.25L595.5 842.0012L595.5 842.0012L0 842.0012z" /></clipPath><clipPath id="77"><path id="" clip-rule="evenodd" transform="matrix(1 0 0 1 0 0)" d="M402.9216 158.1596L514.9673 158.1596L514.9673 158.1596L514.9673 283.3357L514.9673 283.3357L402.9216 283.3357z" /></clipPath><clipPath id="78"><path id="" clip-rule="evenodd" transform="matrix(1 0 0 1 0 0)" d="M415.6704 158.1596L502.2168 158.1596C 505.5984 158.1596 508.8408 159.5029 511.2312 161.894C 513.624 164.2851 514.9656 167.528 514.9656 170.9096L514.9656 170.9096L514.9656 270.3044C 514.9656 273.686 513.624 276.9284 511.2312 279.3188C 508.8408 281.7115 505.5984 283.0532 502.2168 283.0532L502.2168 283.0532L415.6704 283.0532C 412.2888 283.0532 409.0464 281.7115 406.656 279.3188C 404.2632 276.9284 402.9216 273.686 402.9216 270.3044L402.9216 270.3044L402.9216 170.9096C 402.9216 167.528 404.2632 164.2851 406.656 161.894C 409.0464 159.5029 412.2888 158.1596 415.6704 158.1596z" /></clipPath><clipPath id="79"><path id="" clip-rule="evenodd" transform="matrix(1 0 0 1 0 0)" d="M402.9216 158.1596L514.9673 158.1596L514.9673 158.1596L514.9673 282.8979L514.9673 282.8979L402.9216 282.8979z" /></clipPath><clipPath id="80"><path id="" clip-rule="evenodd" transform="matrix(1 0 0 1 0 0)" d="M0 -0.25L595.5 -0.25L595.5 -0.25L595.5 842.0012L595.5 842.0012L0 842.0012z" /></clipPath><clipPath id="81"><path id="" clip-rule="evenodd" transform="matrix(1 0 0 1 0 0)" d="M0 -0.25L595.5 -0.25L595.5 -0.25L595.5 842.0012L595.5 842.0012L0 842.0012z" /></clipPath><clipPath id="82"><path id="" clip-rule="evenodd" transform="matrix(1 0 0 1 0 0)" d="M402.9216 158.1596L514.6716 158.1596L514.6716 158.1596L514.6716 283.4096L514.6716 283.4096L402.9216 283.4096z" /></clipPath><clipPath id="83"><path id="" clip-rule="evenodd" transform="matrix(1 0 0 1 0 0)" d="M402.9216 158.1596L516.1003 158.1596L516.1003 158.1596L516.1003 283.0463L516.1003 283.0463L402.9216 283.0463z" /></clipPath><clipPath id="84"><path id="" clip-rule="evenodd" transform="matrix(1 0 0 1 0 0)" d="M415.6728 158.1596L502.212 158.1596C 505.5936 158.1596 508.836 159.5029 511.2264 161.8937C 513.6192 164.2847 514.9608 167.5275 514.9608 170.9089L514.9608 170.9089L514.9608 270.2972C 514.9608 273.6788 513.6192 276.9212 511.2264 279.3116C 508.836 281.702 505.5936 283.046 502.212 283.046L502.212 283.046L415.6728 283.046C 412.2912 283.046 409.0488 281.702 406.656 279.3116C 404.2656 276.9212 402.9216 273.6788 402.9216 270.2972L402.9216 270.2972L402.9216 170.9089C 402.9216 167.5275 404.2656 164.2847 406.656 161.8937C 409.0488 159.5029 412.2912 158.1596 415.6728 158.1596z" /></clipPath><clipPath id="85"><path id="" clip-rule="evenodd" transform="matrix(1 0 0 1 0 0)" d="M0 -0.25L595.5 -0.25L595.5 -0.25L595.5 842.0012L595.5 842.0012L0 842.0012z" /></clipPath><clipPath id="86"><path id="" clip-rule="evenodd" transform="matrix(1 0 0 1 0 0)" d="M0 -0.25L595.5 -0.25L595.5 -0.25L595.5 842.0012L595.5 842.0012L0 842.0012z" /></clipPath><clipPath id="87"><path id="" clip-rule="evenodd" transform="matrix(1 0 0 1 0 0)" d="M421.0656 253.298L415.464 285.0572L415.464 285.0572L319.4472 268.118L319.4472 268.118L325.0488 236.3581L325.0488 236.3581L421.0656 253.298z" /></clipPath><clipPath id="88"><path id="" clip-rule="evenodd" transform="matrix(1 0 0 1 0 0)" d="M319.7616 268.4228L325.3632 236.6636L325.3632 236.6636L421.3824 253.6028L421.3824 253.6028L415.7784 285.362L415.7784 285.362L319.7616 268.4228z" /></clipPath><clipPath id="89"><path id="" clip-rule="evenodd" transform="matrix(1 0 0 1 0 0)" d="M319.7616 268.4228L325.3632 236.6636L325.3632 236.6636L421.3824 253.6028L421.3824 253.6028L415.7784 285.362L415.7784 285.362L319.7616 268.4228z" /></clipPath><clipPath id="90"><path id="" clip-rule="evenodd" transform="matrix(1 0 0 1 0 0)" d="M495.7128 3.542664L595.4628 3.542664L595.4628 3.542664L595.4628 59.79266L595.4628 59.79266L495.7128 59.79266z" /></clipPath><clipPath id="91"><path id="" clip-rule="evenodd" transform="matrix(1 0 0 1 0 0)" d="M0 -0.25L595.5 -0.25L595.5 -0.25L595.5 842.0012L595.5 842.0012L0 842.0012z" /></clipPath><clipPath id="92"><path id="" clip-rule="evenodd" transform="matrix(1 0 0 1 0 0)" d="M0 -0.25L595.5 -0.25L595.5 -0.25L595.5 842.0012L595.5 842.0012L0 842.0012z" /></clipPath><clipPath id="93"><path id="" clip-rule="evenodd" transform="matrix(1 0 0 1 0 0)" d="M442.5984 64.76459L472.5984 64.76459L472.5984 64.76459L472.5984 89.51459L472.5984 89.51459L442.5984 89.51459z" /></clipPath><clipPath id="94"><path id="" clip-rule="evenodd" transform="matrix(1 0 0 1 0 0)" d="M442.5984 77.13129C 442.5984 83.96118 448.1352 89.49799 454.9656 89.49799L454.9656 89.49799L460.0128 89.49799C 466.8408 89.49799 472.3776 83.96118 472.3776 77.13129C 472.3776 70.30133 466.8408 64.76459 460.0128 64.76459L460.0128 64.76459L454.9656 64.76459C 448.1352 64.76459 442.5984 70.30133 442.5984 77.13129z" /></clipPath><clipPath id="95"><path id="" clip-rule="evenodd" transform="matrix(1 0 0 1 0 0)" d="M443.3472 65.51459L471.8472 65.51459L471.8472 65.51459L471.8472 88.76459L471.8472 88.76459L443.3472 88.76459z" /></clipPath><clipPath id="96"><path id="" clip-rule="evenodd" transform="matrix(1 0 0 1 0 0)" d="M454.9656 65.66455L460.0128 65.66455C 466.344 65.66455 471.4776 70.7984 471.4776 77.13129C 471.4776 83.46417 466.344 88.59802 460.0128 88.59802L460.0128 88.59802L454.9656 88.59802C 448.632 88.59802 443.4984 83.46417 443.4984 77.13129C 443.4984 70.7984 448.632 65.66455 454.9656 65.66455z" /></clipPath><clipPath id="97"><path id="" clip-rule="evenodd" transform="matrix(1 0 0 1 0 0)" d="M0 -0.25L595.5 -0.25L595.5 -0.25L595.5 842.0012L595.5 842.0012L0 842.0012z" /></clipPath><clipPath id="98"><path id="" clip-rule="evenodd" transform="matrix(1 0 0 1 0 0)" d="M0 -0.25L595.5 -0.25L595.5 -0.25L595.5 842.0012L595.5 842.0012L0 842.0012z" /></clipPath><clipPath id="99"><path id="" clip-rule="evenodd" transform="matrix(1 0 0 1 0 0)" d="M442.5984 64.76459L472.5984 64.76459L472.5984 64.76459L472.5984 89.51459L472.5984 89.51459L442.5984 89.51459z" /></clipPath><clipPath id="100"><path id="" clip-rule="evenodd" transform="matrix(1 0 0 1 0 0)" d="M442.5984 77.13129C 442.5984 83.96118 448.1352 89.49799 454.9656 89.49799L454.9656 89.49799L460.0128 89.49799C 466.8408 89.49799 472.3776 83.96118 472.3776 77.13129C 472.3776 70.30133 466.8408 64.76459 460.0128 64.76459L460.0128 64.76459L454.9656 64.76459C 448.1352 64.76459 442.5984 70.30133 442.5984 77.13129z" /></clipPath><clipPath id="101"><path id="" clip-rule="evenodd" transform="matrix(1 0 0 1 0 0)" d="M442.5984 64.76459L472.5984 64.76459L472.5984 64.76459L472.5984 89.51459L472.5984 89.51459L442.5984 89.51459z" /></clipPath><clipPath id="102"><path id="" clip-rule="evenodd" transform="matrix(1 0 0 1 0 0)" d="M442.5984 64.76459L472.5953 64.76459L472.5953 64.76459L472.5953 89.50781L472.5953 89.50781L442.5984 89.50781z" /></clipPath><clipPath id="103"><path id="" clip-rule="evenodd" transform="matrix(1 0 0 1 0 0)" d="M442.5984 77.12793C 442.5984 83.95593 448.1352 89.49127 454.9632 89.49127L454.9632 89.49127L460.0104 89.49127C 466.8384 89.49127 472.3752 83.95593 472.3752 77.12793C 472.3752 70.29993 466.8384 64.76459 460.0104 64.76459L460.0104 64.76459L454.9632 64.76459C 448.1352 64.76459 442.5984 70.29993 442.5984 77.12793z" /></clipPath><clipPath id="104"><path id="" clip-rule="evenodd" transform="matrix(1 0 0 1 0 0)" d="M0 -0.25L595.5 -0.25L595.5 -0.25L595.5 842.0012L595.5 842.0012L0 842.0012z" /></clipPath><clipPath id="105"><path id="" clip-rule="evenodd" transform="matrix(1 0 0 1 0 0)" d="M0 -0.25L595.5 -0.25L595.5 -0.25L595.5 842.0012L595.5 842.0012L0 842.0012z" /></clipPath><clipPath id="106"><path id="" clip-rule="evenodd" transform="matrix(1 0 0 1 0 0)" d="M0 -0.25L595.5 -0.25L595.5 -0.25L595.5 842.0012L595.5 842.0012L0 842.0012z" /></clipPath><clipPath id="107"><path id="" clip-rule="evenodd" transform="matrix(1 0 0 1 0 0)" d="M44.63736 192.7794L74.63736 192.7794L74.63736 192.7794L74.63736 217.5294L74.63736 217.5294L44.63736 217.5294z" /></clipPath><clipPath id="108"><path id="" clip-rule="evenodd" transform="matrix(1 0 0 1 0 0)" d="M44.63736 205.1461C 44.63736 211.976 50.17416 217.5126 57.00408 217.5126L57.00408 217.5126L62.05104 217.5126C 68.88096 217.5126 74.41776 211.976 74.41776 205.1461C 74.41776 198.3162 68.88096 192.7794 62.05104 192.7794L62.05104 192.7794L57.00408 192.7794C 50.17416 192.7794 44.63736 198.3162 44.63736 205.1461z" /></clipPath><clipPath id="109"><path id="" clip-rule="evenodd" transform="matrix(1 0 0 1 0 0)" d="M45.38736 193.5294L73.88736 193.5294L73.88736 193.5294L73.88736 216.7794L73.88736 216.7794L45.38736 216.7794z" /></clipPath><clipPath id="110"><path id="" clip-rule="evenodd" transform="matrix(1 0 0 1 0 0)" d="M57.00408 193.6793L62.05104 193.6793C 68.38392 193.6793 73.51776 198.8132 73.51776 205.1461C 73.51776 211.4789 68.38392 216.6125 62.05104 216.6125L62.05104 216.6125L57.00408 216.6125C 50.6712 216.6125 45.53736 211.4789 45.53736 205.1461C 45.53736 198.8132 50.6712 193.6793 57.00408 193.6793z" /></clipPath><clipPath id="111"><path id="" clip-rule="evenodd" transform="matrix(1 0 0 1 0 0)" d="M0 -0.25L595.5 -0.25L595.5 -0.25L595.5 842.0012L595.5 842.0012L0 842.0012z" /></clipPath><clipPath id="112"><path id="" clip-rule="evenodd" transform="matrix(1 0 0 1 0 0)" d="M0 -0.25L595.5 -0.25L595.5 -0.25L595.5 842.0012L595.5 842.0012L0 842.0012z" /></clipPath><clipPath id="113"><path id="" clip-rule="evenodd" transform="matrix(1 0 0 1 0 0)" d="M44.63736 192.7794L74.63736 192.7794L74.63736 192.7794L74.63736 217.5294L74.63736 217.5294L44.63736 217.5294z" /></clipPath><clipPath id="114"><path id="" clip-rule="evenodd" transform="matrix(1 0 0 1 0 0)" d="M44.63736 205.1461C 44.63736 211.976 50.17416 217.5126 57.00408 217.5126L57.00408 217.5126L62.05104 217.5126C 68.88096 217.5126 74.41776 211.976 74.41776 205.1461C 74.41776 198.3162 68.88096 192.7794 62.05104 192.7794L62.05104 192.7794L57.00408 192.7794C 50.17416 192.7794 44.63736 198.3162 44.63736 205.1461z" /></clipPath><clipPath id="115"><path id="" clip-rule="evenodd" transform="matrix(1 0 0 1 0 0)" d="M44.63736 192.7794L74.63736 192.7794L74.63736 192.7794L74.63736 217.5294L74.63736 217.5294L44.63736 217.5294z" /></clipPath><clipPath id="116"><path id="" clip-rule="evenodd" transform="matrix(1 0 0 1 0 0)" d="M44.63736 192.7794L74.63424 192.7794L74.63424 192.7794L74.63424 217.5226L74.63424 217.5226L44.63736 217.5226z" /></clipPath><clipPath id="117"><path id="" clip-rule="evenodd" transform="matrix(1 0 0 1 0 0)" d="M44.63736 205.1427C 44.63736 211.9707 50.17344 217.5059 57.00264 217.5059L57.00264 217.5059L62.04936 217.5059C 68.87856 217.5059 74.41464 211.9707 74.41464 205.1427C 74.41464 198.3147 68.87856 192.7794 62.04936 192.7794L62.04936 192.7794L57.00264 192.7794C 50.17344 192.7794 44.63736 198.3147 44.63736 205.1427z" /></clipPath><clipPath id="118"><path id="" clip-rule="evenodd" transform="matrix(1 0 0 1 0 0)" d="M0 -0.25L595.5 -0.25L595.5 -0.25L595.5 842.0012L595.5 842.0012L0 842.0012z" /></clipPath></defs><g transform="matrix(1.333333 0 0 1.333333 0 0)"><g clip-path="url(#1)"><g clip-path="url(#2)"><path id="1" transform="matrix(1 0 0 -1 0 842)" d="M0 842.25L595.4999 842.25L595.4999 0L0 0z" stroke="none" fill="#FFFFFF" fill-rule="nonzero" /></g><g clip-path="url(#3)"><path id="2" transform="matrix(1 0 0 -1 0 842)" d="M0 842.25L595.4999 842.25L595.4999 0L0 0z" stroke="none" fill="#FFFFFF" fill-rule="nonzero" /></g><g clip-path="url(#4)"><g><g clip-path="url(#5)"><g clip-path="url(#6)"><g transform="matrix(0 0.975 -0.9768211 0 522.0178 30.75183)"><g transform="matrix(1 0 0 1 0 0)"><image x="0" y="0" xlink:href="img_01.png" width="800" height="453" /></g></g></g></g></g><g><g clip-path="url(#7)"><path id="4" transform="matrix(1 0 0 -1 0 842)" d="M45.502 534.1961L547.1852 534.1961" stroke="#000000" stroke-width="3" fill="none" /><path id="5" transform="matrix(1 0 0 -1 0 842)" d="M35.752 538.6961L44.752 538.6961L44.752 538.6961L44.752 529.6961L44.752 529.6961L35.752 529.6961z" stroke="#000000" stroke-width="3" stroke-linecap="round" fill="none" /><path id="6" transform="matrix(1 0 0 -1 0 842)" d="M556.9352 538.6961L547.9352 538.6961L547.9352 538.6961L547.9352 529.6961L547.9352 529.6961L556.9352 529.6961L556.9352 529.6961L556.9352 538.6961z" stroke="#000000" stroke-width="3" stroke-linecap="round" fill="none" /></g></g></g><g clip-path="url(#8)"><g clip-path="url(#9)"><g clip-path="url(#10)"><g clip-path="url(#11)"><path id="33" transform="matrix(1 0 0 -1 0 842)" d="M284.1264 397.2756L480.8939 397.2756L480.8939 256.1761L284.1264 256.1761z" stroke="none" fill="#F29D4B" fill-rule="nonzero" /></g></g></g></g><g clip-path="url(#12)"><g clip-path="url(#13)"><g clip-path="url(#14)"><g clip-path="url(#15)"><path id="34" transform="matrix(1 0 0 -1 0 842)" d="M307.5432 380.3724L457.4408 380.3724L457.4408 346.5629L307.5432 346.5629z" stroke="none" fill="#FFFFFF" fill-rule="nonzero" /></g></g></g></g><g clip-path="url(#16)"></g><g clip-path="url(#17)"><g clip-path="url(#18)"><g clip-path="url(#19)"><g clip-path="url(#20)"><path id="61" transform="matrix(1 0 0 -1 0 842)" d="M70.67063 151.1196L267.4382 151.1196L267.4382 10.02019L70.67063 10.02019z" stroke="none" fill="#41B8D5" fill-rule="nonzero" /></g></g></g></g><g clip-path="url(#21)"><g clip-path="url(#22)"><g clip-path="url(#23)"><g clip-path="url(#24)"><path id="62" transform="matrix(1 0 0 -1 0 842)" d="M94.08624 134.2164L243.9839 134.2164L243.9839 100.4069L94.08624 100.4069z" stroke="none" fill="#FFFFFF" fill-rule="nonzero" /></g></g></g></g><g clip-path="url(#25)"></g><g clip-path="url(#26)"><g clip-path="url(#27)"><g clip-path="url(#28)"><g clip-path="url(#29)"><path id="85" transform="matrix(1 0 0 -1 0 842)" d="M70.53048 458.6316L267.298 458.6316L267.298 317.5322L70.53048 317.5322z" stroke="none" fill="#41B8D5" fill-rule="nonzero" /></g></g></g></g><g clip-path="url(#30)"><g clip-path="url(#31)"><g clip-path="url(#32)"><g clip-path="url(#33)"><path id="86" transform="matrix(1 0 0 -1 0 842)" d="M93.94631 441.726L243.8439 441.726L243.8439 407.9165L93.94631 407.9165z" stroke="none" fill="#FFFFFF" fill-rule="nonzero" /></g></g></g></g><g clip-path="url(#34)"></g><g clip-path="url(#35)"></g><g clip-path="url(#36)"><g clip-path="url(#37)"><g clip-path="url(#38)"><g clip-path="url(#39)"><path id="248" transform="matrix(1 0 0 -1 0 842)" d="M70.57871 302.478L267.3463 302.478L267.3463 161.3786L70.57871 161.3786z" stroke="none" fill="#F29D4B" fill-rule="nonzero" /></g></g></g></g><g clip-path="url(#40)"><g clip-path="url(#41)"><g clip-path="url(#42)"><g clip-path="url(#43)"><path id="249" transform="matrix(1 0 0 -1 0 842)" d="M93.99432 285.5748L243.8919 285.5748L243.8919 251.7653L93.99432 251.7653z" stroke="none" fill="#FFFFFF" fill-rule="nonzero" /></g></g></g></g><g clip-path="url(#44)"></g><g clip-path="url(#45)"><g clip-path="url(#46)"><g clip-path="url(#47)"><g clip-path="url(#48)"><path id="286" transform="matrix(1 0 0 -1 0 842)" d="M284.1264 241.1244L480.8939 241.1244L480.8939 100.025L284.1264 100.025z" stroke="none" fill="#41B8D5" fill-rule="nonzero" /></g></g></g></g><g clip-path="url(#49)"><g clip-path="url(#50)"><g clip-path="url(#51)"><g clip-path="url(#52)"><path id="287" transform="matrix(1 0 0 -1 0 842)" d="M307.5432 224.2188L457.4408 224.2188L457.4408 190.4093L307.5432 190.4093z" stroke="none" fill="#FFFFFF" fill-rule="nonzero" /></g></g></g></g><g clip-path="url(#53)"></g><g clip-path="url(#54)"></g><g clip-path="url(#55)"><g transform="matrix(0.424689 0 0 0.4252941 152.699 -12.13043)"><g transform="matrix(1 0 0 1 0 0)"><image x="0" y="0" xlink:href="img_02.png" width="800" height="425" /></g></g></g><g clip-path="url(#56)"></g><g clip-path="url(#57)"><g clip-path="url(#58)"><g clip-path="url(#59)"><g clip-path="url(#60)"><g clip-path="url(#61)"><g transform="matrix(0.397675 0 0 0.3977715 38.80248 13.67145)"><g transform="matrix(1 0 0 1 0 0)"><image x="0" y="0" xlink:href="img_03.png" width="241" height="320" /></g></g></g></g></g></g></g><g clip-path="url(#62)"><g clip-path="url(#63)"><g clip-path="url(#64)"><g clip-path="url(#65)"><g clip-path="url(#66)"><path id="876" transform="matrix(1 0 0 -1 0 842)" d="M51.55268 827.0904L121.8877 827.0904C 125.2694 827.0904 128.5124 825.7472 130.9034 823.3562C 133.2937 820.9653 134.6369 817.7225 134.6369 814.3411L134.6369 814.3411L134.6369 714.9526C 134.6369 711.5717 133.2937 708.3286 130.9034 705.9376C 128.5124 703.5466 125.2694 702.2034 121.8877 702.2034L121.8877 702.2034L51.55268 702.2034C 48.17139 702.2034 44.92854 703.5466 42.53761 705.9376C 40.14666 708.3286 38.80344 711.5717 38.80344 714.9526L38.80344 714.9526L38.80344 814.3411C 38.80344 817.7225 40.14666 820.9653 42.53761 823.3562C 44.92854 825.7472 48.17139 827.0904 51.55268 827.0904z" stroke="#D9D9D9" stroke-width="6" fill="none" /></g></g></g></g></g><g clip-path="url(#67)"><g clip-path="url(#68)"><g clip-path="url(#69)"><g clip-path="url(#70)"><g clip-path="url(#71)"><path id="877" transform="matrix(1 0 0 -1 0 842)" d="M142.656 734.2286C 137.3299 732.2598 131.7561 731.104 126.0947 730.8462C 135.1563 722.3544 146.2757 716.0496 158.2026 712.412C 170.6395 708.616 184.2503 707.516 197.0652 710.098C 204.0101 711.4986 211.1236 714.2611 215.3793 720.163C 215.9391 720.9382 217.8241 721.0266 216.97 719.842C 213.0776 714.4456 206.9788 711.2467 200.6552 709.4523C 194.1375 707.6021 187.1996 706.9817 180.4408 707.0869C 166.7348 707.2993 153.1278 710.893 141.1189 717.4019C 135.2729 720.57 129.8456 724.4435 124.9627 728.9189C 125.6241 721.7936 125.1084 714.5881 123.4229 707.6156C 123.2982 707.1038 122.7943 706.687 122.287 706.5628C 121.9193 706.4726 121.3097 706.5705 121.4356 707.0922C 123.3215 714.8829 123.7336 722.9297 122.6429 730.8628C 122.63 730.9568 122.643 731.0528 122.6762 731.1462C 122.4511 731.7056 123.6836 732.4509 124.1 732.4496C 130.3476 732.41 136.5638 733.4565 142.4219 735.6226C 143.8094 736.1357 143.7531 734.6354 142.656 734.2286z" stroke="none" fill="#000000" fill-rule="nonzero" /></g></g></g></g></g><g clip-path="url(#72)"></g><g clip-path="url(#73)"><g transform="matrix(0.4425 0 0 0.4429411 18.70901 123.3944)"><g transform="matrix(1 0 0 1 0 0)"><image x="0" y="0" xlink:href="img_02.png" width="800" height="425" /></g></g></g><g clip-path="url(#74)"></g><g clip-path="url(#75)"><g clip-path="url(#76)"><g clip-path="url(#77)"><g clip-path="url(#78)"><g clip-path="url(#79)"><g transform="matrix(0.3910532 0 0 0.3898072 402.1224 158.1589)"><g transform="matrix(1 0 0 1 0 0)"><image x="0" y="0" xlink:href="img_04.png" width="291" height="320" /></g></g></g></g></g></g></g><g clip-path="url(#80)"><g clip-path="url(#81)"><g clip-path="url(#82)"><g clip-path="url(#83)"><g clip-path="url(#84)"><path id="1002" transform="matrix(1 0 0 -1 0 842)" d="M415.6708 683.8404L502.2111 683.8404C 505.5928 683.8404 508.8351 682.4972 511.2261 680.1062C 513.6171 677.7153 514.9603 674.4725 514.9603 671.0911L514.9603 671.0911L514.9603 571.7026C 514.9603 568.3217 513.6171 565.0786 511.2261 562.6876C 508.8351 560.2966 505.5928 558.9534 502.2111 558.9534L502.2111 558.9534L415.6708 558.9534C 412.2895 558.9534 409.0467 560.2966 406.6557 562.6876C 404.2648 565.0786 402.9216 568.3217 402.9216 571.7026L402.9216 571.7026L402.9216 671.0911C 402.9216 674.4725 404.2648 677.7153 406.6557 680.1062C 409.0467 682.4972 412.2895 683.8404 415.6708 683.8404z" stroke="#D8D4D3" stroke-width="6" fill="none" /></g></g></g></g></g><g clip-path="url(#85)"><g clip-path="url(#86)"><g clip-path="url(#87)"><g clip-path="url(#88)"><g clip-path="url(#89)"><path id="1003" transform="matrix(1 0 0 -1 0 842)" d="M398.0162 590.6685C 403.1152 588.1696 408.5429 586.4545 414.149 585.6238C 404.2729 578.0949 392.5714 572.9503 380.3371 570.5412C 367.5793 568.0261 353.9272 568.3121 341.4401 572.1805C 334.6731 574.2783 327.8765 577.748 324.2413 584.0511C 323.763 584.8791 321.8967 585.1582 322.6263 583.8932C 325.9513 578.1298 331.6942 574.3289 337.8032 571.9023C 344.0997 569.4006 350.9389 568.0798 357.6735 567.4989C 371.3303 566.3201 385.2316 568.5153 397.8388 573.7726C 403.976 576.3315 409.7681 579.6346 415.0797 583.5917C 413.6991 576.5702 413.4813 569.3495 414.451 562.2421C 414.5232 561.7203 414.9822 561.2545 415.4743 561.0795C 415.8309 560.9525 416.4473 560.988 416.3749 561.5198C 415.2889 569.4615 415.6951 577.5087 417.5848 585.2902C 417.6071 585.3825 417.6039 585.4792 417.5804 585.5756C 417.861 586.1093 416.7105 586.9756 416.2961 587.0167C 410.0767 587.6109 403.9987 589.2824 398.3904 592.0315C 397.0621 592.6827 396.966 591.1845 398.0162 590.6685z" stroke="none" fill="#000000" fill-rule="nonzero" /></g></g></g></g></g><g clip-path="url(#90)"><g transform="matrix(0.1246875 0 0 0.1241722 495.7128 3.542725)"><g transform="matrix(1 0 0 1 0 0)"><image x="0" y="0" xlink:href="img_05.png" width="800" height="453" /></g></g></g><g clip-path="url(#91)"><g clip-path="url(#92)"><g clip-path="url(#93)"><g clip-path="url(#94)"><g clip-path="url(#95)"><g clip-path="url(#96)"><g transform="matrix(0.3448276 0 0 0.3448276 442.5984 62.24097)"><g transform="matrix(1 0 0 1 0 0)"><image x="0" y="0" xlink:href="img_06.png" width="87" height="87" /></g></g></g></g></g></g></g></g><g clip-path="url(#97)"><g clip-path="url(#98)"><g clip-path="url(#99)"><g clip-path="url(#100)"><g clip-path="url(#101)"><g clip-path="url(#102)"><g clip-path="url(#103)"><path id="1006" transform="matrix(1 0 0 -1 0 842)" d="M442.5984 764.8721C 442.5984 758.0441 448.1346 752.5088 454.9637 752.5088L454.9637 752.5088L460.0104 752.5088C 466.8396 752.5088 472.3757 758.0441 472.3757 764.8721C 472.3757 771.7002 466.8396 777.2354 460.0104 777.2354L460.0104 777.2354L454.9637 777.2354C 448.1346 777.2354 442.5984 771.7002 442.5984 764.8721z" stroke="#000000" stroke-width="1.5" fill="none" /></g></g></g></g></g></g></g><g clip-path="url(#104)"></g><g clip-path="url(#105)"><g clip-path="url(#106)"><g clip-path="url(#107)"><g clip-path="url(#108)"><g clip-path="url(#109)"><g clip-path="url(#110)"><g transform="matrix(0.3448276 0 0 0.3448276 44.63736 190.2558)"><g transform="matrix(1 0 0 1 0 0)"><image x="0" y="0" xlink:href="img_06.png" width="87" height="87" /></g></g></g></g></g></g></g></g><g clip-path="url(#111)"><g clip-path="url(#112)"><g clip-path="url(#113)"><g clip-path="url(#114)"><g clip-path="url(#115)"><g clip-path="url(#116)"><g clip-path="url(#117)"><path id="1009" transform="matrix(1 0 0 -1 0 842)" d="M44.63736 636.8574C 44.63736 630.0294 50.17351 624.494 57.00268 624.494L57.00268 624.494L62.04935 624.494C 68.87856 624.494 74.41467 630.0294 74.41467 636.8574C 74.41467 643.6854 68.87856 649.2206 62.04935 649.2206L62.04935 649.2206L57.00268 649.2206C 50.17351 649.2206 44.63736 643.6854 44.63736 636.8574z" stroke="#000000" stroke-width="1.5" fill="none" /></g></g></g></g></g></g></g><g clip-path="url(#118)"></g></g></g></svg>