<svg xmlns="http://www.w3.org/2000/svg" xmlns:xlink="http://www.w3.org/1999/xlink" id="body_1" preserveAspectRatio="xMinYMin meet" viewBox="0 0 793 1123"><defs><clipPath id="1"><path id="" clip-rule="evenodd" transform="matrix(1 0 0 1 0 0)" d="M0 842L0 -0.25L0 -0.25L595.5 -0.25L595.5 -0.25L595.5 842L595.5 842L0 842z" /></clipPath><clipPath id="2"><path id="" clip-rule="evenodd" transform="matrix(1 0 0 1 0 0)" d="M0 -0.249939L595.5 -0.249939L595.5 -0.249939L595.5 842.0001L595.5 842.0001L0 842.0001z" /></clipPath><clipPath id="3"><path id="" clip-rule="evenodd" transform="matrix(1 0 0 1 0 0)" d="M0 -0.249939L595.5 -0.249939L595.5 -0.249939L595.5 842.0001L595.5 842.0001L0 842.0001z" /></clipPath><clipPath id="4"><path id="" clip-rule="evenodd" transform="matrix(1 0 0 1 0 0)" d="M0 -0.249939L595.5 -0.249939L595.5 -0.249939L595.5 842.0001L595.5 842.0001L0 842.0001z" /></clipPath><clipPath id="5"><path id="" clip-rule="evenodd" transform="matrix(1 0 0 1 0 0)" d="M78.71999 30.71008L522.24 30.71008L522.24 30.71008L522.24 810.9501L522.24 810.9501L78.71999 810.9501z" /></clipPath><clipPath id="6"><path id="" clip-rule="evenodd" transform="matrix(1 0 0 1 0 0)" d="M79.51787 30.75183L522.0178 30.75183L522.0178 30.75183L522.0178 810.7518L522.0178 810.7518L79.51787 810.7518z" /></clipPath><clipPath id="7"><path id="" clip-rule="evenodd" transform="matrix(1 0 0 1 0 0)" d="M52.50797 -0.249939L90.75797 -0.249939L90.75797 -0.249939L90.75797 75.06378L90.75797 75.06378L52.50797 75.06378z" /></clipPath><clipPath id="8"><path id="" clip-rule="evenodd" transform="matrix(1 0 0 1 0 0)" d="M54.72 45.59009L84.96 45.59009L84.96 45.59009L84.96 75.11011L84.96 75.11011L54.72 75.11011z" /></clipPath><clipPath id="9"><path id="" clip-rule="evenodd" transform="matrix(1 0 0 1 0 0)" d="M49.87474 92.41644L88.12473 92.41644L88.12473 92.41644L88.12473 235.6664L88.12473 235.6664L49.87474 235.6664z" /></clipPath><clipPath id="10"><path id="" clip-rule="evenodd" transform="matrix(1 0 0 1 0 0)" d="M52.08 206.3901L82.32 206.3901L82.32 206.3901L82.32 235.67L82.32 235.67L52.08 235.67z" /></clipPath><clipPath id="11"><path id="" clip-rule="evenodd" transform="matrix(1 0 0 1 0 0)" d="M55.34261 501.9412L93.59261 501.9412L93.59261 501.9412L93.59261 645.1912L93.59261 645.1912L55.34261 645.1912z" /></clipPath><clipPath id="12"><path id="" clip-rule="evenodd" transform="matrix(1 0 0 1 0 0)" d="M57.6 615.8301L87.84 615.8301L87.84 615.8301L87.84 645.35L87.84 645.35L57.6 645.35z" /></clipPath><clipPath id="13"><path id="" clip-rule="evenodd" transform="matrix(1 0 0 1 0 0)" d="M55.94991 377.6137L94.19991 377.6137L94.19991 377.6137L94.19991 520.8638L94.19991 520.8638L55.94991 520.8638z" /></clipPath><clipPath id="14"><path id="" clip-rule="evenodd" transform="matrix(1 0 0 1 0 0)" d="M58.08 491.5101L88.32 491.5101L88.32 491.5101L88.32 521.03L88.32 521.03L58.08 521.03z" /></clipPath><clipPath id="15"><path id="" clip-rule="evenodd" transform="matrix(1 0 0 1 0 0)" d="M47.18186 69.13531L109.4319 69.13531L109.4319 69.13531L109.4319 107.3853L109.4319 107.3853L47.18186 107.3853z" /></clipPath><clipPath id="16"><path id="" clip-rule="evenodd" transform="matrix(1 0 0 1 0 0)" d="M49.2 71.51007L104.64 71.51007L104.64 71.51007L104.64 92.39008L104.64 92.39008L49.2 92.39008z" /></clipPath><clipPath id="17"><path id="" clip-rule="evenodd" transform="matrix(1 0 0 1 0 0)" d="M52.70938 241.8112L90.95938 241.8112L90.95938 241.8112L90.95938 385.0611L90.95938 385.0611L52.70938 385.0611z" /></clipPath><clipPath id="18"><path id="" clip-rule="evenodd" transform="matrix(1 0 0 1 0 0)" d="M54.96 355.6701L85.2 355.6701L85.2 355.6701L85.2 385.1901L85.2 385.1901L54.96 385.1901z" /></clipPath><clipPath id="19"><path id="" clip-rule="evenodd" transform="matrix(1 0 0 1 0 0)" d="M50.01651 377.6126L112.2665 377.6126L112.2665 377.6126L112.2665 415.8626L112.2665 415.8626L50.01651 415.8626z" /></clipPath><clipPath id="20"><path id="" clip-rule="evenodd" transform="matrix(1 0 0 1 0 0)" d="M52.08 379.9101L107.52 379.9101L107.52 379.9101L107.52 400.7901L107.52 400.7901L52.08 400.7901z" /></clipPath><clipPath id="21"><path id="" clip-rule="evenodd" transform="matrix(1 0 0 1 0 0)" d="M0 -0.249939L595.5 -0.249939L595.5 -0.249939L595.5 842.0001L595.5 842.0001L0 842.0001z" /></clipPath><clipPath id="22"><path id="" clip-rule="evenodd" transform="matrix(1 0 0 1 0 0)" d="M47.18186 228.2179L109.4319 228.2179L109.4319 228.2179L109.4319 266.4679L109.4319 266.4679L47.18186 266.4679z" /></clipPath><clipPath id="23"><path id="" clip-rule="evenodd" transform="matrix(1 0 0 1 0 0)" d="M49.2 230.6301L104.64 230.6301L104.64 230.6301L104.64 251.5101L104.64 251.5101L49.2 251.5101z" /></clipPath><clipPath id="24"><path id="" clip-rule="evenodd" transform="matrix(1 0 0 1 0 0)" d="M50.01651 631.6794L112.2665 631.6794L112.2665 631.6794L112.2665 669.9294L112.2665 669.9294L50.01651 669.9294z" /></clipPath><clipPath id="25"><path id="" clip-rule="evenodd" transform="matrix(1 0 0 1 0 0)" d="M52.08 634.0701L107.52 634.0701L107.52 634.0701L107.52 654.9501L107.52 654.9501L52.08 654.9501z" /></clipPath><clipPath id="26"><path id="" clip-rule="evenodd" transform="matrix(1 0 0 1 0 0)" d="M43.53545 667.0515L100.3712 667.0515L100.3712 667.0515L100.3712 727.7444L100.3712 727.7444L43.53545 727.7444z" /></clipPath><clipPath id="27"><path id="" clip-rule="evenodd" transform="matrix(1 0 0 1 0 0)" d="M55.68 666.9501L58.8 666.9501L58.8 666.9501L58.8 697.1901L58.8 697.1901L55.68 697.1901z" /></clipPath><clipPath id="28"><path id="" clip-rule="evenodd" transform="matrix(1 0 0 1 0 0)" d="M46.8 698.15L54.23999 698.15L54.23999 698.15L54.23999 708.7101L54.23999 708.7101L46.8 708.7101z" /></clipPath><clipPath id="29"><path id="" clip-rule="evenodd" transform="matrix(1 0 0 1 0 0)" d="M0 -0.249939L595.5 -0.249939L595.5 -0.249939L595.5 842.0001L595.5 842.0001L0 842.0001z" /></clipPath><clipPath id="30"><path id="" clip-rule="evenodd" transform="matrix(1 0 0 1 0 0)" d="M0 -0.249939L595.5 -0.249939L595.5 -0.249939L595.5 842.0001L595.5 842.0001L0 842.0001z" /></clipPath><clipPath id="31"><path id="" clip-rule="evenodd" transform="matrix(1 0 0 1 0 0)" d="M0 -0.249939L595.5 -0.249939L595.5 -0.249939L595.5 842.0001L595.5 842.0001L0 842.0001z" /></clipPath><clipPath id="32"><path id="" clip-rule="evenodd" transform="matrix(1 0 0 1 0 0)" d="M383.9883 759.804L545.9883 759.804L545.9883 759.804L545.9883 817.554L545.9883 817.554L383.9883 817.554z" /></clipPath><clipPath id="33"><path id="" clip-rule="evenodd" transform="matrix(1 0 0 1 0 0)" d="M383.9883 788.5648C 383.9883 796.1927 387.0185 803.5081 392.4122 808.9018C 397.8059 814.2955 405.1213 817.3256 412.7491 817.3256L412.7491 817.3256L516.6917 817.3256C 524.3195 817.3256 531.6349 814.2955 537.0286 808.9018C 542.4223 803.5081 545.4525 796.1927 545.4525 788.5648C 545.4525 780.937 542.4223 773.6215 537.0286 768.2279C 531.6349 762.8342 524.3195 759.804 516.6917 759.804L516.6917 759.804L412.7491 759.804C 405.1213 759.804 397.8059 762.8342 392.4122 768.2279C 387.0185 773.6215 383.9883 780.937 383.9883 788.5648z" /></clipPath><clipPath id="34"><path id="" clip-rule="evenodd" transform="matrix(1 0 0 1 0 0)" d="M384.7383 760.554L545.2383 760.554L545.2383 760.554L545.2383 816.804L545.2383 816.804L384.7383 816.804z" /></clipPath><clipPath id="35"><path id="" clip-rule="evenodd" transform="matrix(1 0 0 1 0 0)" d="M412.7491 760.704L516.6917 760.704C 524.0808 760.704 531.1674 763.6393 536.3923 768.8643C 541.6171 774.0892 544.5525 781.1757 544.5525 788.5648C 544.5525 795.954 541.6171 803.0405 536.3923 808.2654C 531.1674 813.4903 524.0808 816.4257 516.6917 816.4257L516.6917 816.4257L412.7491 816.4257C 405.36 816.4257 398.2735 813.4903 393.0486 808.2654C 387.8236 803.0405 384.8883 795.954 384.8883 788.5648C 384.8883 781.1757 387.8236 774.0892 393.0486 768.8643C 398.2735 763.6393 405.36 760.704 412.7491 760.704z" /></clipPath><clipPath id="36"><path id="" clip-rule="evenodd" transform="matrix(1 0 0 1 0 0)" d="M383.9883 759.804L545.2383 759.804L545.2383 759.804L545.2383 817.554L545.2383 817.554L383.9883 817.554z" /></clipPath><clipPath id="37"><path id="" clip-rule="evenodd" transform="matrix(1 0 0 1 0 0)" d="M0 -0.249939L595.5 -0.249939L595.5 -0.249939L595.5 842.0001L595.5 842.0001L0 842.0001z" /></clipPath><clipPath id="38"><path id="" clip-rule="evenodd" transform="matrix(1 0 0 1 0 0)" d="M0 -0.249939L595.5 -0.249939L595.5 -0.249939L595.5 842.0001L595.5 842.0001L0 842.0001z" /></clipPath><clipPath id="39"><path id="" clip-rule="evenodd" transform="matrix(1 0 0 1 0 0)" d="M383.9883 759.804L545.9883 759.804L545.9883 759.804L545.9883 817.554L545.9883 817.554L383.9883 817.554z" /></clipPath><clipPath id="40"><path id="" clip-rule="evenodd" transform="matrix(1 0 0 1 0 0)" d="M383.9883 788.5648C 383.9883 796.1927 387.0185 803.5081 392.4122 808.9018C 397.8059 814.2955 405.1213 817.3256 412.7491 817.3256L412.7491 817.3256L516.6917 817.3256C 524.3195 817.3256 531.6349 814.2955 537.0286 808.9018C 542.4223 803.5081 545.4525 796.1927 545.4525 788.5648C 545.4525 780.937 542.4223 773.6215 537.0286 768.2279C 531.6349 762.8342 524.3195 759.804 516.6917 759.804L516.6917 759.804L412.7491 759.804C 405.1213 759.804 397.8059 762.8342 392.4122 768.2279C 387.0185 773.6215 383.9883 780.937 383.9883 788.5648z" /></clipPath><clipPath id="41"><path id="" clip-rule="evenodd" transform="matrix(1 0 0 1 0 0)" d="M383.9883 759.804L545.2383 759.804L545.2383 759.804L545.2383 817.554L545.2383 817.554L383.9883 817.554z" /></clipPath><clipPath id="42"><path id="" clip-rule="evenodd" transform="matrix(1 0 0 1 0 0)" d="M383.9883 759.804L545.9851 759.804L545.9851 759.804L545.9851 817.548L545.9851 817.548L383.9883 817.548z" /></clipPath><clipPath id="43"><path id="" clip-rule="evenodd" transform="matrix(1 0 0 1 0 0)" d="M383.9883 788.5618C 383.9883 796.1888 387.0184 803.5035 392.412 808.8967C 397.8056 814.2899 405.1209 817.3196 412.7486 817.3196L412.7486 817.3196L516.689 817.3196C 524.3167 817.3196 531.632 814.2899 537.0256 808.8967C 542.4192 803.5035 545.4493 796.1888 545.4493 788.5618C 545.4493 780.9348 542.4192 773.6201 537.0256 768.227C 531.632 762.8339 524.3167 759.804 516.689 759.804L516.689 759.804L412.7486 759.804C 405.1209 759.804 397.8056 762.8339 392.412 768.227C 387.0184 773.6201 383.9883 780.9348 383.9883 788.5618z" /></clipPath><clipPath id="44"><path id="" clip-rule="evenodd" transform="matrix(1 0 0 1 0 0)" d="M0 -0.249939L595.5 -0.249939L595.5 -0.249939L595.5 842.0001L595.5 842.0001L0 842.0001z" /></clipPath><clipPath id="45"><path id="" clip-rule="evenodd" transform="matrix(1 0 0 1 0 0)" d="M518.3179 790.287L552.8179 790.287L552.8179 790.287L552.8179 841.2869L552.8179 841.2869L518.3179 841.2869z" /></clipPath><clipPath id="46"><path id="" clip-rule="evenodd" transform="matrix(1 0 0 1 0 0)" d="M0 -0.249939L595.5 -0.249939L595.5 -0.249939L595.5 842.0001L595.5 842.0001L0 842.0001z" /></clipPath></defs><g transform="matrix(1.333333 0 0 1.333333 0 0)"><g clip-path="url(#1)"><g clip-path="url(#2)"><path id="1" transform="matrix(1 0 0 -1 0 842)" d="M0 842.2499L595.4999 842.2499L595.4999 -6.103516E-05L0 -6.103516E-05z" stroke="none" fill="#FFFFFF" fill-rule="nonzero" /></g><g clip-path="url(#3)"><path id="2" transform="matrix(1 0 0 -1 0 842)" d="M0 842.2499L595.4999 842.2499L595.4999 -6.103516E-05L0 -6.103516E-05z" stroke="none" fill="#E9FCFF" fill-rule="nonzero" /></g><g clip-path="url(#4)"><g><g clip-path="url(#5)"><g clip-path="url(#6)"><g transform="matrix(0 0.5128205 -0.5127462 0 522.0178 30.75189)"><g transform="matrix(1 0 0 1 0 0)"><image x="0" y="0" xlink:href="img_01.png" width="1521" height="863" /></g></g></g></g></g></g><g clip-path="url(#7)"><path id="87" transform="matrix(1 0 0 -1 0 842)" d="M53.50939 700.6622C 53.32634 702.3907 53.25798 704.161 53.26262 705.8884C 53.28116 712.8606 53.2128 719.7378 53.15372 726.703C 52.83511 764.5621 53.18268 802.434 53.18268 840.2966C 53.18268 851.7674 52.91737 863.2729 53.23945 874.7368C 53.375 879.5541 53.39817 893.6791 55.25301 898.1291C 58.05207 904.8464 63.03036 910.4804 71.767 910.1746C 81.95298 909.8166 87.63683 904.4629 89.3874 896.9509C 90.42778 892.4858 90.15089 878.7164 90.16595 875.2675C 90.37333 829.8592 90.24705 784.4451 90.31308 739.0334C 90.3154 737.2017 90.31887 735.3677 90.32119 733.5361C 90.33278 726.4643 90.34552 719.3925 90.35942 712.3207C 90.35942 711.8654 90.36174 711.4113 90.3629 710.9559L90.3629 710.9559L90.3629 710.8378C 90.37796 704.0498 90.87614 695.6457 87.1456 690.6477C 85.03009 687.8138 82.37933 687.5104 79.69728 687.3481C 72.80969 686.9287 61.84169 683.1982 56.28296 691.5861C 54.68532 693.9959 53.87202 697.2445 53.50939 700.661L53.50939 700.661L53.50939 700.6622z" stroke="none" fill="#FFFFFF" fill-rule="nonzero" /><g><g clip-path="url(#8)"><path id="88" transform="matrix(1 0 0 -1 0 842)" d="M84.36508 692.0182C 85.63601 693.7816 84.08008 695.9237 82.00743 696.2899C 74.55447 697.6036 67.60896 701.6331 65.0335 708.3133C 61.2265 718.1888 60.88473 732.0752 59.9996 744.7335C 59.43422 755.2635 58.88855 763.4418 58.55836 773.3926C 58.46799 776.121 58.40543 778.8517 58.37646 781.5812C 58.33244 785.6732 58.90129 789.8243 58.65684 793.8827C 58.62903 794.3415 58.57921 794.8084 58.38805 795.2208C 57.82847 796.4338 55.65619 796.4836 55.64113 795.1143C 55.59594 790.9574 55.64808 789.5938 55.59594 786.651C 55.54613 783.8253 55.53454 781.5129 55.52295 778.6848C 55.49515 772.1807 55.1638 765.6813 55.1638 759.1771C 55.1638 750.6259 55.10935 742.0746 55.04911 733.5234C 54.98771 724.9733 54.92051 716.4232 54.89154 707.8719C 54.87764 703.5366 54.56136 698.6127 56.99084 694.7896C 57.26426 694.3574 57.5759 693.9576 57.91884 693.5905C 60.39814 690.9327 64.29087 690.0696 67.78391 689.8958C 69.92606 689.7892 72.05664 689.8889 74.19301 689.8819C 76.4012 689.8749 78.62099 689.9178 80.80486 690.2781C 81.90201 690.4589 83.03391 690.7439 83.86922 691.4784C 84.06734 691.6533 84.23301 691.834 84.36624 692.0194L84.36624 692.0194L84.36508 692.0182z" stroke="none" fill="#000000" fill-rule="nonzero" fill-opacity="0.03921569" /></g></g><path id="89" transform="matrix(1 0 0 -1 0 842)" d="M53.50939 700.6541C 53.91257 696.8506 54.9066 693.1456 57.02212 690.6268C 61.84285 684.8851 69.16257 686.2753 74.97039 687.1025C 76.51937 687.3412 78.07183 687.6007 79.63008 687.7281C 80.71796 687.8162 81.83828 687.9124 82.90414 688.2182C 83.53208 688.392 84.16929 688.6503 84.75899 689.0095C 87.43176 690.5805 88.97148 694.2844 89.5496 698.2119C 90.11845 701.9343 90.03387 705.7205 90.00375 709.5344C 89.84618 760.0159 90.02113 819.9536 89.81838 870.4119C 89.74887 873.9814 89.9771 893.3083 89.3874 896.7944C 89.231 897.6865 89.01782 898.5474 88.71197 899.3502C 88.42001 900.1068 88.01568 900.9502 87.61597 901.614C 83.21464 908.9222 77.27707 910.5036 67.64487 909.3531C 64.97789 909.0345 62.55188 907.7938 60.62985 905.9354C 57.9478 903.3426 56.23199 899.809 55.12789 896.287C 54.52776 894.3696 54.12227 892.3908 53.92068 890.3923C 53.71909 888.3892 53.49317 886.1254 53.45378 884.1199C 53.43061 882.9498 53.44799 880.6663 53.4283 879.4973C 53.38543 876.8697 53.63336 875.6104 53.56964 872.9839C 53.41555 866.6119 53.43409 860.2375 53.4758 853.8574C 53.69592 805.8945 53.18732 756.2182 53.27305 708.3005C 53.26146 705.8235 53.22902 703.1172 53.50824 700.6564L53.50824 700.6564L53.50939 700.6541zM53.50939 700.6541C 53.30548 702.5483 53.24988 704.4681 53.25798 706.3831C 53.26262 709.5715 53.23597 712.7795 53.20237 715.9586C 52.7598 741.2486 52.53041 767.2314 52.70651 792.5677C 52.86639 816.4293 52.86871 879.4371 52.81078 883.7851C 52.64859 896.3183 57.20401 910.5476 71.767 910.1746C 79.12263 909.9857 82.24261 909.0797 86.84438 903.7411C 87.61829 902.7529 88.62855 900.8216 89.16843 899.5541C 89.59015 898.5532 89.83112 897.6773 90.02576 896.5488C 90.46485 894.0244 90.52162 876.8199 90.53552 874.2491C 90.69656 840.6071 90.65253 789.683 90.66296 755.5057C 90.6757 740.2661 90.69424 724.7948 90.73711 709.5471C 90.76144 704.9222 90.91553 700.0551 89.80332 695.6144C 89.23447 693.3564 88.2636 691.2849 86.95097 689.7799L86.95097 689.7799L86.81078 689.6317L86.81078 689.6317L86.52925 689.3362C 86.43194 689.2447 86.33346 689.1566 86.23499 689.0674L86.23499 689.0674L86.08784 688.9342C 86.03802 688.8901 85.98589 688.8531 85.93492 688.8137L85.93492 688.8137L85.62906 688.5762C 85.52479 688.5044 85.41936 688.4371 85.31393 688.3665L85.31393 688.3665L85.15637 688.2634C 85.10308 688.2321 85.04862 688.2031 84.99533 688.173L84.99533 688.173L84.6721 687.9957C 84.13453 687.7397 83.56915 687.5219 83.00957 687.3922C 81.90779 687.1002 80.76662 687.055 79.65094 686.9913C 78.09964 686.9171 76.55529 686.7144 75.00746 686.5302C 68.76288 685.8339 60.27301 684.6082 55.8346 692.3044C 54.49763 694.6783 53.82799 697.6719 53.50824 700.6564L53.50824 700.6564L53.50824 700.6552L53.50824 700.6552L53.50939 700.6541z" stroke="none" fill="#000000" fill-rule="nonzero" /></g><g clip-path="url(#9)"><path id="90" transform="matrix(1 0 0 -1 0 842)" d="M50.87616 540.0596C 50.69311 541.7881 50.62475 543.5583 50.62939 545.2858C 50.64793 552.2579 50.57957 559.1351 50.52048 566.1003C 50.20188 603.9595 50.54945 641.8313 50.54945 679.6939C 50.54945 691.1647 50.28414 702.6703 50.60622 714.1342C 50.74177 718.9514 50.76493 733.0765 52.61978 737.5264C 55.41884 744.2437 60.39713 749.8777 69.13377 749.5719C 79.31975 749.2139 85.00359 743.8602 86.75417 736.3482C 87.79455 731.8832 87.51765 718.1138 87.53271 714.6648C 87.7401 669.2565 87.61382 623.8425 87.67985 578.4308C 87.68217 576.5991 87.68564 574.7651 87.68796 572.9335C 87.69955 565.8616 87.71229 558.7899 87.72619 551.718C 87.72619 551.2628 87.72851 550.8086 87.72967 550.3533L87.72967 550.3533L87.72967 550.2351C 87.74473 543.4471 88.2429 535.043 84.51237 530.045C 82.39686 527.2112 79.74609 526.9077 77.06405 526.7455C 70.17646 526.326 59.20846 522.5956 53.64973 530.9835C 52.05209 533.3932 51.23878 536.6418 50.87616 540.0583L50.87616 540.0583L50.87616 540.0596z" stroke="none" fill="#FFFFFF" fill-rule="nonzero" /><g><g clip-path="url(#10)"><path id="91" transform="matrix(1 0 0 -1 0 842)" d="M81.73185 531.4156C 83.00278 533.1789 81.44685 535.321 79.3742 535.6872C 71.92124 537.001 64.97572 541.0304 62.40027 547.7106C 58.59327 557.5861 58.2515 571.4725 57.36636 584.1309C 56.80099 594.6609 56.25531 602.8391 55.92513 612.7899C 55.83476 615.5183 55.7722 618.249 55.74323 620.9785C 55.69921 625.0706 56.26806 629.2217 56.02361 633.28C 55.9958 633.7388 55.94598 634.2057 55.75482 634.6182C 55.19524 635.8312 53.02296 635.881 53.0079 634.5116C 52.96271 630.3547 53.01485 628.9911 52.96271 626.0483C 52.9129 623.2227 52.90131 620.9102 52.88972 618.0822C 52.86192 611.5781 52.53057 605.0786 52.53057 598.5745C 52.53057 590.0232 52.47612 581.472 52.41587 572.9207C 52.35447 564.3706 52.28728 555.8205 52.25831 547.2692C 52.24441 542.934 51.92813 538.0101 54.35761 534.1869C 54.63102 533.7548 54.94267 533.355 55.28561 532.9878C 57.76491 530.3301 61.65764 529.4669 65.15067 529.2932C 67.29283 529.1865 69.4234 529.2862 71.55977 529.2792C 73.76797 529.2723 75.98775 529.3152 78.17162 529.6755C 79.26877 529.8562 80.40067 530.1412 81.23599 530.8757C 81.4341 531.0507 81.59978 531.2314 81.73301 531.4167L81.73301 531.4167L81.73185 531.4156z" stroke="none" fill="#000000" fill-rule="nonzero" fill-opacity="0.03921569" /></g></g><path id="92" transform="matrix(1 0 0 -1 0 842)" d="M50.87616 540.0515C 51.27934 536.2479 52.27337 532.5429 54.38889 530.0242C 59.20962 524.2824 66.52934 525.6727 72.33716 526.4999C 73.88614 526.7385 75.4386 526.998 76.99685 527.1255C 78.08473 527.2135 79.20505 527.3097 80.27092 527.6155C 80.89885 527.7893 81.53606 528.0477 82.12576 528.4069C 84.79853 529.9778 86.33825 533.6817 86.91637 537.6092C 87.48521 541.3317 87.40063 545.1178 87.37051 548.9318C 87.21295 599.4133 87.38789 659.3509 87.18515 709.8093C 87.11563 713.3788 87.34387 732.7057 86.75417 736.1918C 86.59776 737.0839 86.38459 737.9447 86.07874 738.7476C 85.78677 739.5041 85.38245 740.3475 84.98274 741.0114C 80.58141 748.3195 74.64384 749.9009 65.01164 748.7505C 62.34466 748.4319 59.91865 747.1911 57.99662 745.3328C 55.31457 742.7399 53.59876 739.2064 52.49466 735.6844C 51.89453 733.767 51.48904 731.7881 51.28745 729.7897C 51.08586 727.7865 50.85994 725.5227 50.82055 723.5173C 50.79738 722.3471 50.81476 720.0636 50.79506 718.8947C 50.7522 716.267 51.00013 715.0077 50.93641 712.3813C 50.78232 706.0092 50.80085 699.6349 50.84256 693.2548C 51.06269 645.2919 50.55408 595.6155 50.63982 547.6979C 50.62823 545.2209 50.59579 542.5145 50.875 540.0538L50.875 540.0538L50.87616 540.0515zM50.87616 540.0515C 50.67225 541.9457 50.61665 543.8654 50.62475 545.7805C 50.62939 548.9688 50.60274 552.1768 50.56914 555.3559C 50.12657 580.6459 49.89718 606.6287 50.07328 631.9651C 50.23316 655.8266 50.23548 718.8344 50.17755 723.1824C 50.01536 735.7156 54.57078 749.9449 69.13377 749.5719C 76.4894 749.3831 79.60938 748.4771 84.21115 743.1385C 84.98506 742.1502 85.99532 740.2189 86.5352 738.9515C 86.95692 737.9505 87.19789 737.0746 87.39253 735.9462C 87.83162 733.4217 87.88839 716.2172 87.90229 713.6464C 88.06333 680.0044 88.0193 629.0803 88.02973 594.9031C 88.04247 579.6635 88.06101 564.1921 88.10388 548.9445C 88.12821 544.3195 88.2823 539.4525 87.17009 535.0117C 86.60124 532.7537 85.63037 530.6823 84.31773 529.1772L84.31773 529.1772L84.17755 529.029L84.17755 529.029L83.89602 528.7335C 83.79871 528.642 83.70023 528.554 83.60175 528.4648L83.60175 528.4648L83.45461 528.3315C 83.40479 528.2875 83.35266 528.2504 83.30168 528.2111L83.30168 528.2111L82.99583 527.9735C 82.89156 527.9017 82.78613 527.8345 82.6807 527.7638L82.6807 527.7638L82.52314 527.6607C 82.46985 527.6294 82.41539 527.6005 82.3621 527.5703L82.3621 527.5703L82.03886 527.3931C 81.5013 527.137 80.93592 526.9193 80.37634 526.7895C 79.27456 526.4975 78.13339 526.4523 77.0177 526.3886C 75.46641 526.3145 73.92206 526.1117 72.37423 525.9275C 66.12964 525.2312 57.63978 524.0055 53.20137 531.7017C 51.8644 534.0756 51.19476 537.0693 50.875 540.0537L50.875 540.0537L50.875 540.0526L50.875 540.0526L50.87616 540.0515z" stroke="none" fill="#000000" fill-rule="nonzero" /></g><g clip-path="url(#11)"><path id="93" transform="matrix(1 0 0 -1 0 842)" d="M56.34403 130.5348C 56.16098 132.2633 56.09262 134.0336 56.09726 135.761C 56.1158 142.7332 56.04744 149.6103 55.98836 156.5755C 55.66975 194.4347 56.01732 232.3065 56.01732 270.1691C 56.01732 281.64 55.75201 293.1455 56.07409 304.6094C 56.20964 309.4266 56.23281 323.5517 58.08765 328.0017C 60.88671 334.719 65.86501 340.353 74.60164 340.0471C 84.78762 339.6891 90.47147 334.3355 92.22204 326.8234C 93.26242 322.3584 92.98553 308.589 93.00059 305.14C 93.20797 259.7318 93.08169 214.3177 93.14772 168.906C 93.15004 167.0743 93.15351 165.2403 93.15583 163.4087C 93.16742 156.3369 93.18016 149.2651 93.19406 142.1933C 93.19406 141.738 93.19638 141.2838 93.19754 140.8285L93.19754 140.8285L93.19754 140.7103C 93.2126 133.9224 93.71078 125.5182 89.98024 120.5202C 87.86473 117.6864 85.21397 117.3829 82.53192 117.2207C 75.64433 116.8013 64.67633 113.0708 59.1176 121.4587C 57.51996 123.8685 56.70666 127.117 56.34403 130.5336L56.34403 130.5336L56.34403 130.5348z" stroke="none" fill="#FFFFFF" fill-rule="nonzero" /><g><g clip-path="url(#12)"><path id="94" transform="matrix(1 0 0 -1 0 842)" d="M87.19972 121.8908C 88.47065 123.6541 86.91472 125.7963 84.84207 126.1624C 77.38911 127.4762 70.4436 131.5056 67.86814 138.1859C 64.06114 148.0613 63.71937 161.9477 62.83424 174.606C 62.26886 185.1361 61.72319 193.3143 61.393 203.2651C 61.30263 205.9935 61.24007 208.7242 61.21111 211.4538C 61.16708 215.5458 61.73593 219.6969 61.49148 223.7553C 61.46367 224.2141 61.41385 224.6809 61.22269 225.0934C 60.66311 226.3064 58.49083 226.3562 58.47577 224.9868C 58.43058 220.8299 58.48272 219.4663 58.43058 216.5236C 58.38077 213.6979 58.36918 211.3854 58.35759 208.5574C 58.32979 202.0533 57.99844 195.5538 57.99844 189.0497C 57.99844 180.4984 57.94399 171.9472 57.88375 163.3959C 57.82235 154.8458 57.75515 146.2957 57.72618 137.7444C 57.71228 133.4091 57.396 128.4853 59.82548 124.6621C 60.0989 124.2299 60.41055 123.8302 60.75348 123.463C 63.23278 120.8053 67.12551 119.9422 70.61855 119.7684C 72.7607 119.6618 74.89128 119.7614 77.02765 119.7545C 79.23584 119.7475 81.45563 119.7904 83.6395 120.1507C 84.73665 120.3314 85.86855 120.6164 86.70387 121.351C 86.90198 121.5259 87.06765 121.7066 87.20088 121.892L87.20088 121.892L87.19972 121.8908z" stroke="none" fill="#000000" fill-rule="nonzero" fill-opacity="0.03921569" /></g></g><path id="95" transform="matrix(1 0 0 -1 0 842)" d="M56.34403 130.5267C 56.74721 126.7231 57.74125 123.0181 59.85676 120.4994C 64.67749 114.7576 71.99722 116.1479 77.80503 116.9751C 79.35401 117.2138 80.90647 117.4733 82.46472 117.6007C 83.5526 117.6888 84.67292 117.7849 85.73878 118.0908C 86.36672 118.2646 87.00393 118.5229 87.59363 118.882C 90.2664 120.4531 91.80612 124.1569 92.38424 128.0844C 92.95309 131.8069 92.86852 135.593 92.83839 139.407C 92.68082 189.8885 92.85577 249.8261 92.65302 300.2845C 92.58351 303.854 92.81174 323.1809 92.22204 326.667C 92.06564 327.5591 91.85246 328.4199 91.54661 329.2228C 91.25465 329.9793 90.85032 330.8228 90.45061 331.4866C 86.04928 338.7947 80.11171 340.3762 70.47952 339.2257C 67.81253 338.9071 65.38652 337.6663 63.46449 335.808C 60.78244 333.2151 59.06663 329.6816 57.96253 326.1596C 57.3624 324.2422 56.95691 322.2634 56.75532 320.2649C 56.55373 318.2617 56.32781 315.9979 56.28843 313.9925C 56.26525 312.8223 56.28263 310.5388 56.26294 309.3699C 56.22007 306.7422 56.468 305.4829 56.40428 302.8565C 56.25019 296.4844 56.26873 290.1101 56.31044 283.73C 56.53056 235.7671 56.02196 186.0908 56.10769 138.1731C 56.0961 135.6961 56.06366 132.9897 56.34288 130.529L56.34288 130.529L56.34403 130.5267zM56.34403 130.5267C 56.14013 132.4209 56.08452 134.3406 56.09262 136.2557C 56.09726 139.444 56.07061 142.6521 56.03701 145.8311C 55.59444 171.1211 55.36506 197.104 55.54115 222.4403C 55.70103 246.3018 55.70335 309.3096 55.64542 313.6577C 55.48323 326.1909 60.03865 340.4202 74.60164 340.0471C 81.95728 339.8583 85.07726 338.9523 89.67902 333.6137C 90.45293 332.6255 91.46319 330.6942 92.00307 329.4267C 92.42479 328.4257 92.66576 327.5498 92.8604 326.4214C 93.29949 323.8969 93.35626 306.6924 93.37016 304.1216C 93.5312 270.4796 93.48717 219.5555 93.4976 185.3783C 93.51035 170.1387 93.52888 154.6674 93.57175 139.4197C 93.59608 134.7948 93.75017 129.9277 92.63796 125.487C 92.06911 123.2289 91.09824 121.1575 89.78561 119.6525L89.78561 119.6525L89.64542 119.5042L89.64542 119.5042L89.36389 119.2088C 89.26658 119.1172 89.1681 119.0292 89.06963 118.94L89.06963 118.94L88.92249 118.8067C 88.87267 118.7627 88.82053 118.7257 88.76956 118.6862L88.76956 118.6862L88.4637 118.4487C 88.35943 118.3769 88.25401 118.3097 88.14857 118.239L88.14857 118.239L87.99101 118.1359C 87.93772 118.1046 87.88326 118.0757 87.82997 118.0456L87.82997 118.0456L87.50674 117.8683C 86.96917 117.6123 86.40379 117.3945 85.84422 117.2647C 84.74243 116.9727 83.60126 116.9276 82.48558 116.8638C 80.93428 116.7897 79.38993 116.5869 77.8421 116.4027C 71.59752 115.7065 63.10765 114.4807 58.66924 122.177C 57.33228 124.5508 56.66263 127.5445 56.34288 130.5289L56.34288 130.5289L56.34288 130.5278L56.34288 130.5278L56.34403 130.5267z" stroke="none" fill="#000000" fill-rule="nonzero" /></g><g clip-path="url(#13)"><path id="96" transform="matrix(1 0 0 -1 0 842)" d="M56.95133 254.8623C 56.76828 256.5909 56.69992 258.3611 56.70456 260.0885C 56.7231 267.0607 56.65474 273.9378 56.59566 280.903C 56.27705 318.7622 56.62462 356.634 56.62462 394.4966C 56.62462 405.9675 56.35931 417.473 56.68139 428.9369C 56.81694 433.7542 56.84011 447.8792 58.69495 452.3292C 61.49401 459.0465 66.47231 464.6805 75.20894 464.3746C 85.39492 464.0167 91.07877 458.663 92.82934 451.1509C 93.86972 446.6859 93.59283 432.9165 93.60789 429.4675C 93.81527 384.0593 93.68899 338.6452 93.75502 293.2335C 93.75734 291.4018 93.76081 289.5678 93.76313 287.7362C 93.77472 280.6644 93.78746 273.5926 93.80136 266.5208C 93.80136 266.0655 93.80368 265.6113 93.80484 265.156L93.80484 265.156L93.80484 265.0378C 93.8199 258.2499 94.31808 249.8457 90.58754 244.8478C 88.47203 242.0139 85.82127 241.7104 83.13922 241.5482C 76.25163 241.1288 65.28363 237.3983 59.7249 245.7862C 58.12726 248.196 57.31396 251.4445 56.95133 254.8611L56.95133 254.8611L56.95133 254.8623z" stroke="none" fill="#FFFFFF" fill-rule="nonzero" /><g><g clip-path="url(#14)"><path id="97" transform="matrix(1 0 0 -1 0 842)" d="M87.80702 246.2183C 89.07795 247.9816 87.52202 250.1238 85.44937 250.4899C 77.99641 251.8037 71.0509 255.8331 68.47544 262.5133C 64.66844 272.3888 64.32667 286.2752 63.44154 298.9335C 62.87616 309.4636 62.33049 317.6418 62.0003 327.5926C 61.90993 330.321 61.84737 333.0517 61.81841 335.7813C 61.77438 339.8733 62.34323 344.0244 62.09878 348.0828C 62.07097 348.5415 62.02115 349.0084 61.82999 349.4209C 61.27041 350.6339 59.09813 350.6837 59.08307 349.3143C 59.03788 345.1574 59.09002 343.7938 59.03788 340.8511C 58.98807 338.0254 58.97648 335.7129 58.96489 332.8849C 58.93709 326.3808 58.60574 319.8813 58.60574 313.3772C 58.60574 304.8259 58.55129 296.2747 58.49105 287.7234C 58.42965 279.1733 58.36245 270.6232 58.33348 262.0719C 58.31958 257.7366 58.0033 252.8128 60.43278 248.9896C 60.7062 248.5574 61.01785 248.1577 61.36078 247.7905C 63.84008 245.1328 67.73281 244.2696 71.22585 244.0959C 73.368 243.9893 75.49858 244.0889 77.63495 244.0819C 79.84314 244.075 82.06293 244.1179 84.2468 244.4782C 85.34395 244.6589 86.47585 244.9439 87.31116 245.6784C 87.50928 245.8534 87.67495 246.0341 87.80818 246.2195L87.80818 246.2195L87.80702 246.2183z" stroke="none" fill="#000000" fill-rule="nonzero" fill-opacity="0.03921569" /></g></g><path id="98" transform="matrix(1 0 0 -1 0 842)" d="M56.95133 254.8542C 57.35451 251.0507 58.34855 247.3456 60.46406 244.8269C 65.28479 239.0851 72.60452 240.4754 78.41233 241.3026C 79.96131 241.5413 81.51377 241.8008 83.07202 241.9282C 84.1599 242.0163 85.28022 242.1124 86.34608 242.4183C 86.97402 242.5921 87.61123 242.8504 88.20093 243.2096C 90.8737 244.7806 92.41342 248.4845 92.99154 252.4119C 93.56039 256.1344 93.47581 259.9205 93.44569 263.7345C 93.28812 314.216 93.46307 374.1536 93.26032 424.612C 93.19081 428.1815 93.41904 447.5085 92.82934 450.9945C 92.67294 451.8866 92.45976 452.7474 92.15391 453.5503C 91.86195 454.3068 91.45762 455.1503 91.05791 455.8141C 86.65658 463.1223 80.71901 464.7037 71.08681 463.5532C 68.41983 463.2346 65.99382 461.9938 64.07179 460.1355C 61.38974 457.5427 59.67393 454.0091 58.56983 450.4871C 57.9697 448.5697 57.56421 446.5909 57.36262 444.5924C 57.16103 442.5893 56.93511 440.3254 56.89573 438.32C 56.87255 437.1498 56.88993 434.8664 56.87024 433.6974C 56.82737 431.0698 57.0753 429.8104 57.01158 427.184C 56.85749 420.812 56.87603 414.4376 56.91774 408.0575C 57.13786 360.0946 56.62926 310.4183 56.71499 262.5006C 56.7034 260.0236 56.67096 257.3173 56.95018 254.8565L56.95018 254.8565L56.95133 254.8542zM56.95133 254.8542C 56.74743 256.7484 56.69182 258.6682 56.69992 260.5832C 56.70456 263.7715 56.67791 266.9796 56.64431 270.1586C 56.20174 295.4487 55.97235 321.4315 56.14845 346.7678C 56.30833 370.6293 56.31065 433.6371 56.25272 437.9852C 56.09053 450.5184 60.64595 464.7477 75.20894 464.3746C 82.56458 464.1858 85.68456 463.2798 90.28632 457.9412C 91.06023 456.953 92.07049 455.0217 92.61037 453.7542C 93.03209 452.7532 93.27306 451.8773 93.4677 450.7489C 93.90679 448.2245 93.96356 431.02 93.97746 428.4491C 94.1385 394.8071 94.09447 343.883 94.1049 309.7058C 94.11765 294.4662 94.13618 278.9949 94.17905 263.7472C 94.20338 259.1223 94.35747 254.2552 93.24526 249.8145C 92.67641 247.5565 91.70554 245.485 90.39291 243.98L90.39291 243.98L90.25272 243.8317L90.25272 243.8317L89.97119 243.5363C 89.87388 243.4447 89.7754 243.3567 89.67693 243.2675L89.67693 243.2675L89.52979 243.1343C 89.47997 243.0902 89.42783 243.0532 89.37686 243.0138L89.37686 243.0138L89.071 242.7763C 88.96673 242.7044 88.86131 242.6372 88.75587 242.5666L88.75587 242.5666L88.59831 242.4634C 88.54502 242.4322 88.49056 242.4032 88.43727 242.3731L88.43727 242.3731L88.11404 242.1958C 87.57647 241.9398 87.01109 241.722 86.45152 241.5922C 85.34973 241.3002 84.20856 241.2551 83.09288 241.1914C 81.54158 241.1172 79.99723 240.9145 78.4494 240.7303C 72.20482 240.034 63.71495 238.8082 59.27654 246.5045C 57.93958 248.8783 57.26993 251.872 56.95018 254.8565L56.95018 254.8565L56.95018 254.8553L56.95018 254.8553L56.95133 254.8542z" stroke="none" fill="#000000" fill-rule="nonzero" /></g><g clip-path="url(#15)"><path id="99" transform="matrix(1 0 0 -1 0 842)" d="M52.25749 737.9713C 51.06984 737.1962 50.89482 735.971 50.86982 735.2209C 50.86982 734.9958 50.65729 734.8708 50.51978 734.9958C 46.65679 738.3588 47.45689 751.5604 47.4944 752.9231C 47.70692 761.1367 47.25687 759.6614 48.10697 767.85C 48.10697 767.85 48.48202 771.463 51.08234 771.6755C 65.22161 772.8381 74.36025 772.1005 88.53702 771.938C 93.86269 771.8755 98.50076 769.8377 102.1512 766.4123C 105.1016 763.6495 108.377 760.299 109.1521 756.3986C 110.0272 751.998 106.4643 748.6851 103.4514 745.6222C 98.88831 740.9716 94.97533 739.2214 87.83693 739.2339C 79.52339 739.2589 76.27299 739.2339 67.94695 739.1964C 62.57128 739.1839 54.50777 739.4339 52.24499 737.9587L52.24499 737.9587L52.25749 737.9713z" stroke="none" fill="#8EDFD2" fill-rule="nonzero" /><g><g clip-path="url(#16)"><path id="100" transform="matrix(1 0 0 -1 0 842)" d="M52.64503 752.398C 52.83256 755.2734 52.77005 758.2112 53.05759 761.0741C 53.22011 762.7119 53.67017 764.3745 54.62029 765.4622C 56.22048 767.2749 58.79581 767.0374 60.79605 767.1124C 63.5089 767.2124 66.20923 767.0749 68.92207 767.0749C 77.76067 767.0749 64.359 767.2624 73.1976 767.1624C 78.06071 767.0999 83.09884 767.1999 87.91194 766.2123C 90.59978 765.6497 93.25011 764.7621 95.75042 763.3619C 98.36325 761.8867 100.3885 759.5739 102.8013 757.7237C 103.9514 756.8486 104.789 757.9612 104.489 759.5239C 104.164 761.2617 102.0012 762.6868 100.8136 763.7369C 98.90082 765.4247 96.97557 767.1999 94.71279 768.3126C 91.32487 769.9752 87.61191 769.8377 84.04897 769.9002C 80.26099 769.9627 76.48552 770.2502 72.71004 770.2753C 66.85931 770.3128 60.99608 770.3128 55.13285 770.2753C 50.93233 770.2502 68.98458 770.2003 64.78406 770.1127C 62.67129 770.0753 60.54602 770.0253 58.43326 769.9752C 55.39538 769.9002 50.7198 769.6252 49.9322 764.7121C 49.56966 762.4243 49.51965 760.0865 49.51965 757.7487C 49.51965 755.6235 49.36963 753.3732 49.70717 751.2729C 50.08222 748.9476 52.08247 749.6602 52.53252 751.5104C 52.60753 751.798 52.64504 752.098 52.65754 752.4105L52.65754 752.4105L52.64503 752.398z" stroke="none" fill="#FFFFFF" fill-rule="nonzero" fill-opacity="0.09803922" /></g></g><path id="101" transform="matrix(1 0 0 -1 0 842)" d="M52.25749 737.9713C 52.73255 738.2712 53.24512 738.4213 53.75768 738.5588C 54.79531 738.8088 55.83294 738.9338 56.88307 739.0339C 60.45852 739.3339 64.29649 739.3214 67.89694 739.3964C 73.68517 739.3839 77.03558 739.759 80.286 739.7465C 81.63615 739.7465 87.23686 739.7465 88.52452 739.7465C 89.42464 739.759 90.34975 739.7964 91.24986 739.8965C 96.01295 740.3466 99.52589 742.1843 103.2639 746.0472C 104.6765 747.4974 106.1642 748.9101 107.3644 750.6478C 108.527 752.3355 109.3146 754.3983 108.702 756.6736C 108.1395 758.8613 106.9143 760.6116 105.6267 762.1868C 104.8641 763.0869 104.064 763.937 103.2389 764.7496C 102.4138 765.5497 101.5761 766.3623 100.701 767.0624C 97.62566 769.5377 94.08772 770.9254 90.48726 771.3004C 89.72467 771.3879 88.92457 771.4129 88.16197 771.4129C 75.14784 771.5754 83.24886 771.863 70.29724 771.7755C 63.88394 771.713 57.47064 771.6379 51.06984 771.1504C 50.25724 771.0754 49.53215 770.5253 49.08209 769.6252C 48.79456 769.0626 48.59453 768.3875 48.51952 767.7125L48.51952 767.7125L48.49452 767.4624L48.49452 767.4624L48.44451 766.9623C 48.28199 765.2872 48.13197 763.5994 48.03196 761.9367C 47.95695 760.7866 47.95695 759.0739 47.93195 757.8987C 47.90694 756.186 47.85694 754.4983 47.78193 752.7856C 47.73192 751.8105 47.66941 750.7228 47.64441 749.7477C 47.5444 745.4471 47.61941 737.0836 50.88232 734.7583C 50.88232 734.9083 50.88232 735.0834 50.89482 735.2459C 50.93232 736.4835 51.43238 737.4462 52.29499 737.9838L52.29499 737.9838L52.25749 737.9713zM52.25749 737.9713C 51.80743 737.6712 51.39488 737.2336 51.15736 736.6461C 51.03234 736.3585 50.95733 736.0335 50.91983 735.7084C 50.88232 735.3834 50.88232 735.3834 50.88232 735.2209C 50.88232 735.2209 50.51978 734.9709 50.51978 734.9709C 50.19473 735.2584 49.8947 735.6085 49.64466 735.996C 48.01946 738.5963 47.59441 742.4218 47.34438 745.6472C 47.16936 748.0225 47.15686 750.4353 47.21936 752.8106C 47.24437 754.4983 47.23186 756.211 47.21936 757.8862C 47.20686 759.2489 47.16936 760.6241 47.21936 761.9868C 47.28187 763.6995 47.45689 765.3997 47.63192 767.0874L47.63192 767.0874L47.68192 767.5875L47.68192 767.5875L47.70692 767.8375C 47.80693 768.675 48.04446 769.4626 48.39451 770.1752C 48.86957 771.1379 49.65717 771.8755 50.53228 772.088C 50.79481 772.163 51.09485 772.1755 51.36988 772.2005C 71.10985 773.4007 69.15961 772.6006 88.93707 772.438C 94.47527 772.2755 99.36337 770.0627 103.7014 765.5747C 105.8017 763.4744 107.9644 761.1866 109.1396 758.0112C 111.1524 752.623 107.2769 748.8601 104.364 745.8847C 103.3264 744.8221 102.2762 743.772 101.1511 742.8718C 99.5634 741.5842 97.83818 740.5715 96.03796 739.9215C 92.97508 738.7963 89.72467 738.7088 86.56178 738.7338C 79.38588 738.7338 65.74667 739.2589 58.45827 739.0839C 56.88307 739.0089 55.30787 738.9213 53.75768 738.5463C 53.24512 738.4213 52.73255 738.2588 52.25749 737.9713z" stroke="none" fill="#000000" fill-rule="nonzero" /></g><g clip-path="url(#17)"><path id="102" transform="matrix(1 0 0 -1 0 842)" d="M53.71081 390.6649C 53.52776 392.3934 53.4594 394.1636 53.46404 395.8911C 53.48257 402.8632 53.41422 409.7404 53.35513 416.7056C 53.03653 454.5647 53.38409 492.4366 53.38409 530.2992C 53.38409 541.77 53.11879 553.2756 53.44086 564.7394C 53.57642 569.5567 53.59958 583.6818 55.45443 588.1317C 58.25349 594.849 63.23178 600.483 71.96841 600.1772C 82.1544 599.8192 87.83824 594.4655 89.58881 586.9535C 90.6292 582.4885 90.3523 568.7191 90.36736 565.2701C 90.57475 519.8618 90.44846 474.4478 90.5145 429.036C 90.51682 427.2043 90.52029 425.3704 90.52261 423.5387C 90.53419 416.4669 90.54694 409.3951 90.56084 402.3233C 90.56084 401.868 90.56316 401.4139 90.56432 400.9586L90.56432 400.9586L90.56432 400.8404C 90.57938 394.0524 91.07755 385.6483 87.34702 380.6503C 85.23151 377.8165 82.58074 377.513 79.8987 377.3508C 73.01111 376.9314 62.04311 373.2008 56.48438 381.5887C 54.88674 383.9985 54.07343 387.2471 53.71081 390.6637L53.71081 390.6637L53.71081 390.6649z" stroke="none" fill="#FFFFFF" fill-rule="nonzero" /><g><g clip-path="url(#18)"><path id="103" transform="matrix(1 0 0 -1 0 842)" d="M84.56649 382.0209C 85.83742 383.7842 84.28149 385.9264 82.20884 386.2925C 74.75588 387.6063 67.81036 391.6357 65.23491 398.3159C 61.42791 408.1914 61.08614 422.0778 60.201 434.7361C 59.63563 445.2662 59.08995 453.4444 58.75977 463.3952C 58.6694 466.1236 58.60684 468.8543 58.57787 471.5838C 58.53385 475.6758 59.1027 479.8269 58.85825 483.8853C 58.83044 484.3441 58.78062 484.811 58.58946 485.2234C 58.02988 486.4365 55.8576 486.4863 55.84254 485.1169C 55.79735 480.96 55.84949 479.5964 55.79735 476.6537C 55.74754 473.8279 55.73595 471.5155 55.72436 468.6874C 55.69656 462.1833 55.36521 455.6839 55.36521 449.1798C 55.36521 440.6285 55.31076 432.0773 55.25051 423.526C 55.18911 414.9759 55.12192 406.4258 55.09295 397.8745C 55.07905 393.5392 54.76277 388.6154 57.19225 384.7921C 57.46566 384.36 57.77731 383.9603 58.12025 383.593C 60.59955 380.9354 64.49228 380.0722 67.98531 379.8984C 70.12747 379.7918 72.25804 379.8915 74.39441 379.8845C 76.60262 379.8776 78.8224 379.9205 81.00626 380.2808C 82.10341 380.4615 83.23531 380.7465 84.07063 381.481C 84.26875 381.6559 84.43442 381.8367 84.56765 382.0221L84.56765 382.0221L84.56649 382.0209z" stroke="none" fill="#000000" fill-rule="nonzero" fill-opacity="0.03921569" /></g></g><path id="104" transform="matrix(1 0 0 -1 0 842)" d="M53.71081 390.6567C 54.11398 386.8532 55.10802 383.1482 57.22353 380.6295C 62.04427 374.8877 69.36399 376.278 75.17181 377.1052C 76.72079 377.3438 78.27325 377.6033 79.8315 377.7308C 80.91938 377.8188 82.0397 377.915 83.10556 378.2208C 83.7335 378.3946 84.3707 378.653 84.9604 379.0121C 87.63318 380.5831 89.1729 384.287 89.75101 388.2145C 90.31986 391.9369 90.23529 395.7231 90.20516 399.537C 90.0476 450.0186 90.22254 509.9562 90.0198 560.4146C 89.95029 563.9841 90.17852 583.311 89.58881 586.7971C 89.43241 587.6891 89.21924 588.55 88.91338 589.3528C 88.62142 590.1094 88.21709 590.9528 87.81739 591.6166C 83.41605 598.9248 77.47849 600.5062 67.84629 599.3558C 65.17931 599.0372 62.7533 597.7964 60.83126 595.938C 58.14922 593.3452 56.43341 589.8116 55.32931 586.2897C 54.72918 584.3723 54.32368 582.3934 54.1221 580.395C 53.92051 578.3918 53.69459 576.128 53.6552 574.1226C 53.63203 572.9524 53.64941 570.6689 53.62971 569.4999C 53.58685 566.8723 53.83477 565.613 53.77105 562.9866C 53.61697 556.6145 53.6355 550.2402 53.67721 543.86C 53.89734 495.8972 53.38873 446.2208 53.47446 398.3032C 53.46288 395.8262 53.43044 393.1198 53.70965 390.6591L53.70965 390.6591L53.71081 390.6567zM53.71081 390.6567C 53.5069 392.551 53.45129 394.4707 53.4594 396.3857C 53.46404 399.5741 53.43739 402.7821 53.40379 405.9612C 52.96122 431.2512 52.73183 457.234 52.90793 482.5704C 53.06781 506.4319 53.07013 569.4397 53.0122 573.7877C 52.85001 586.3209 57.40543 600.5502 71.96841 600.1772C 79.32405 599.9883 82.44403 599.0823 87.0458 593.7438C 87.81971 592.7555 88.82996 590.8242 89.36985 589.5568C 89.79156 588.5558 90.03254 587.6799 90.22718 586.5515C 90.66627 584.027 90.72304 566.8225 90.73694 564.2517C 90.89798 530.6097 90.85395 479.6856 90.86438 445.5083C 90.87712 430.2687 90.89566 414.7975 90.93853 399.5497C 90.96286 394.9248 91.11694 390.0577 90.00474 385.617C 89.43589 383.359 88.46502 381.2875 87.15238 379.7826L87.15238 379.7826L87.0122 379.6343L87.0122 379.6343L86.73067 379.3388C 86.63335 379.2473 86.53487 379.1592 86.4364 379.0701L86.4364 379.0701L86.28926 378.9368C 86.23944 378.8928 86.18731 378.8557 86.13634 378.8163L86.13634 378.8163L85.83047 378.5788C 85.7262 378.507 85.62078 378.4398 85.51535 378.3691L85.51535 378.3691L85.35779 378.266C 85.3045 378.2347 85.25004 378.2057 85.19675 378.1756L85.19675 378.1756L84.87351 377.9984C 84.33595 377.7423 83.77057 377.5245 83.21099 377.3948C 82.10921 377.1028 80.96803 377.0576 79.85236 376.9939C 78.30106 376.9197 76.75671 376.717 75.20888 376.5328C 68.96429 375.8365 60.47443 374.6108 56.03602 382.307C 54.69905 384.6809 54.02941 387.6746 53.70965 390.659L53.70965 390.659L53.70965 390.6578L53.70965 390.6578L53.71081 390.6567z" stroke="none" fill="#000000" fill-rule="nonzero" /></g><g clip-path="url(#19)"><path id="105" transform="matrix(1 0 0 -1 0 842)" d="M55.09214 429.494C 53.90449 428.7189 53.72947 427.4937 53.70447 426.7437C 53.70447 426.5186 53.49194 426.3936 53.35442 426.5186C 49.49144 429.8816 50.29154 443.0832 50.32904 444.4459C 50.54157 452.6594 50.09151 451.1842 50.94162 459.3727C 50.94162 459.3727 51.31667 462.9857 53.91699 463.1982C 68.05626 464.3609 77.1949 463.6233 91.37167 463.4608C 96.69734 463.3983 101.3354 461.3605 104.9859 457.9351C 107.9362 455.1722 111.2116 451.8218 111.9867 447.9213C 112.8619 443.5208 109.2989 440.2079 106.286 437.145C 101.723 432.4944 97.80997 430.7441 90.67159 430.7567C 82.35805 430.7817 79.10764 430.7567 70.7816 430.7191C 65.40593 430.7067 57.34242 430.9567 55.07964 429.4815L55.07964 429.4815L55.09214 429.494z" stroke="none" fill="#8EDFD2" fill-rule="nonzero" /><g><g clip-path="url(#20)"><path id="106" transform="matrix(1 0 0 -1 0 842)" d="M55.47968 443.9208C 55.66721 446.7962 55.6047 449.734 55.89223 452.5969C 56.05476 454.2346 56.50481 455.8973 57.45493 456.9849C 59.05513 458.7977 61.63046 458.5602 63.6307 458.6351C 66.34354 458.7352 69.04388 458.5977 71.75671 458.5977C 80.59532 458.5977 67.19365 458.7852 76.03225 458.6852C 80.89536 458.6227 85.93349 458.7227 90.74659 457.735C 93.43443 457.1725 96.08476 456.2849 98.58507 454.8847C 101.1979 453.4095 103.2231 451.0967 105.6359 449.2465C 106.7861 448.3714 107.6237 449.484 107.3237 451.0467C 106.9986 452.7844 104.8358 454.2096 103.6482 455.2597C 101.7355 456.9474 99.81023 458.7227 97.54744 459.8353C 94.15952 461.498 90.44656 461.3605 86.88361 461.423C 83.09564 461.4855 79.32017 461.773 75.54469 461.798C 69.69396 461.8355 63.83073 461.8355 57.9675 461.798C 53.76698 461.773 71.81923 461.723 67.61871 461.6355C 65.50594 461.598 63.38067 461.548 61.26791 461.498C 58.23003 461.423 53.55445 461.1479 52.76685 456.2348C 52.4043 453.9471 52.3543 451.6093 52.3543 449.2715C 52.3543 447.1462 52.20428 444.8959 52.54182 442.7957C 52.91687 440.4704 54.91712 441.183 55.36717 443.0332C 55.44218 443.3207 55.47969 443.6208 55.49219 443.9333L55.49219 443.9333L55.47968 443.9208z" stroke="none" fill="#FFFFFF" fill-rule="nonzero" fill-opacity="0.09803922" /></g></g><path id="107" transform="matrix(1 0 0 -1 0 842)" d="M55.09214 429.494C 55.5672 429.794 56.07977 429.9441 56.59233 430.0816C 57.62996 430.3316 58.66759 430.4566 59.71772 430.5566C 63.29316 430.8567 67.13114 430.8442 70.7316 430.9192C 76.51982 430.9067 79.87023 431.2817 83.12064 431.2692C 84.47081 431.2692 90.07151 431.2692 91.35917 431.2692C 92.25928 431.2817 93.1844 431.3192 94.0845 431.4193C 98.8476 431.8693 102.3605 433.707 106.0985 437.57C 107.5112 439.0202 108.9989 440.4329 110.199 442.1706C 111.3617 443.8583 112.1493 445.9211 111.5367 448.1964C 110.9741 450.3841 109.749 452.1343 108.4613 453.7095C 107.6987 454.6096 106.8986 455.4597 106.0735 456.2723C 105.2484 457.0724 104.4108 457.885 103.5357 458.5851C 100.4603 461.0605 96.92236 462.4481 93.32191 462.8232C 92.55931 462.9107 91.75922 462.9357 90.99662 462.9357C 77.9825 463.0982 86.08351 463.3857 73.13189 463.2982C 66.71859 463.2357 60.30529 463.1607 53.90449 462.6732C 53.09188 462.5981 52.36679 462.0481 51.91674 461.1479C 51.6292 460.5854 51.42918 459.9103 51.35417 459.2352L51.35417 459.2352L51.32917 458.9852L51.32917 458.9852L51.27916 458.4851C 51.11664 456.8099 50.96662 455.1222 50.86661 453.4595C 50.7916 452.3094 50.7916 450.5966 50.76659 449.4215C 50.74159 447.7088 50.69159 446.0211 50.61658 444.3083C 50.56657 443.3332 50.50406 442.2456 50.47906 441.2705C 50.37905 436.9699 50.45406 428.6064 53.71696 426.2811C 53.71696 426.4311 53.71696 426.6061 53.72947 426.7686C 53.76697 428.0063 54.26703 428.9689 55.12964 429.5065L55.12964 429.5065L55.09214 429.494zM55.09214 429.494C 54.64208 429.194 54.22953 428.7564 53.992 428.1688C 53.86699 427.8813 53.79198 427.5563 53.75447 427.2312C 53.71697 426.9062 53.71697 426.9062 53.71697 426.7437C 53.71697 426.7437 53.35442 426.4936 53.35442 426.4936C 53.02938 426.7812 52.72934 427.1312 52.47931 427.5188C 50.85411 430.1191 50.42906 433.9445 50.17903 437.17C 50.00401 439.5453 49.9915 441.9581 50.05401 444.3333C 50.07901 446.0211 50.06651 447.7338 50.05401 449.409C 50.04151 450.7717 50.00401 452.1468 50.05401 453.5095C 50.11652 455.2222 50.29154 456.9224 50.46656 458.6101L50.46656 458.6101L50.51657 459.1102L50.51657 459.1102L50.54157 459.3602C 50.64158 460.1978 50.87911 460.9854 51.22916 461.698C 51.70422 462.6606 52.49181 463.3983 53.36692 463.6108C 53.62946 463.6858 53.9295 463.6983 54.20453 463.7233C 73.9445 464.9234 71.99425 464.1233 91.77172 463.9608C 97.30991 463.7983 102.198 461.5855 106.5361 457.0974C 108.6363 454.9972 110.7991 452.7094 111.9742 449.534C 113.987 444.1458 110.1115 440.3829 107.1986 437.4075C 106.161 436.3448 105.1109 435.2947 103.9857 434.3946C 102.398 433.107 100.6728 432.0943 98.8726 431.4442C 95.80972 430.3191 92.55932 430.2316 89.39642 430.2566C 82.22054 430.2566 68.58133 430.7817 61.29292 430.6066C 59.71772 430.5316 58.14252 430.4441 56.59233 430.0691C 56.07977 429.9441 55.5672 429.7816 55.09214 429.494z" stroke="none" fill="#000000" fill-rule="nonzero" /></g><g clip-path="url(#21)"></g><g clip-path="url(#22)"><path id="109" transform="matrix(1 0 0 -1 0 842)" d="M52.25749 578.8887C 51.06984 578.1136 50.89482 576.8885 50.86982 576.1384C 50.86982 575.9133 50.65729 575.7883 50.51978 575.9133C 46.65679 579.2762 47.45689 592.4779 47.4944 593.8406C 47.70692 602.0541 47.25687 600.5789 48.10697 608.7675C 48.10697 608.7675 48.48202 612.3804 51.08234 612.593C 65.22161 613.7556 74.36025 613.018 88.53702 612.8555C 93.86269 612.793 98.50076 610.7552 102.1512 607.3298C 105.1016 604.567 108.377 601.2165 109.1521 597.316C 110.0272 592.9155 106.4643 589.6025 103.4514 586.5397C 98.88831 581.8891 94.97533 580.1389 87.83693 580.1514C 79.52339 580.1764 76.27299 580.1514 67.94695 580.1139C 62.57128 580.1014 54.50777 580.3514 52.24499 578.8762L52.24499 578.8762L52.25749 578.8887z" stroke="none" fill="#8EDFD2" fill-rule="nonzero" /><g><g clip-path="url(#23)"><path id="110" transform="matrix(1 0 0 -1 0 842)" d="M52.64503 593.3154C 52.83256 596.1908 52.77005 599.1287 53.05759 601.9915C 53.22011 603.6293 53.67017 605.2919 54.62029 606.3796C 56.22048 608.1923 58.79581 607.9548 60.79605 608.0298C 63.5089 608.1298 66.20923 607.9923 68.92207 607.9923C 77.76067 607.9923 64.359 608.1798 73.1976 608.0798C 78.06071 608.0173 83.09884 608.1173 87.91194 607.1297C 90.59978 606.5671 93.25011 605.6795 95.75042 604.2794C 98.36325 602.8041 100.3885 600.4913 102.8013 598.6411C 103.9514 597.766 104.789 598.8787 104.489 600.4413C 104.164 602.1791 102.0012 603.6042 100.8136 604.6544C 98.90082 606.3421 96.97557 608.1173 94.71279 609.23C 91.32487 610.8926 87.61191 610.7551 84.04897 610.8176C 80.26099 610.8801 76.48552 611.1677 72.71004 611.1927C 66.85931 611.2302 60.99608 611.2302 55.13285 611.1927C 50.93233 611.1677 68.98458 611.1177 64.78406 611.0302C 62.67129 610.9927 60.54602 610.9427 58.43326 610.8926C 55.39538 610.8176 50.7198 610.5426 49.9322 605.6295C 49.56966 603.3417 49.51965 601.0039 49.51965 598.6661C 49.51965 596.5409 49.36963 594.2906 49.70717 592.1903C 50.08222 589.8651 52.08247 590.5776 52.53252 592.4279C 52.60753 592.7154 52.64504 593.0154 52.65754 593.3279L52.65754 593.3279L52.64503 593.3154z" stroke="none" fill="#FFFFFF" fill-rule="nonzero" fill-opacity="0.09803922" /></g></g><path id="111" transform="matrix(1 0 0 -1 0 842)" d="M52.25749 578.8887C 52.73255 579.1887 53.24512 579.3387 53.75768 579.4763C 54.79531 579.7263 55.83294 579.8513 56.88307 579.9514C 60.45852 580.2514 64.29649 580.2389 67.89694 580.3139C 73.68517 580.3014 77.03558 580.6765 80.286 580.6639C 81.63615 580.6639 87.23686 580.6639 88.52452 580.6639C 89.42464 580.6765 90.34975 580.7139 91.24986 580.814C 96.01295 581.264 99.52589 583.1017 103.2639 586.9647C 104.6765 588.4149 106.1642 589.8276 107.3644 591.5653C 108.527 593.253 109.3146 595.3158 108.702 597.5911C 108.1395 599.7788 106.9143 601.5291 105.6267 603.1042C 104.8641 604.0043 104.064 604.8544 103.2389 605.6671C 102.4138 606.4672 101.5761 607.2798 100.701 607.9799C 97.62566 610.4551 94.08772 611.8428 90.48726 612.2179C 89.72467 612.3054 88.92457 612.3304 88.16197 612.3304C 75.14784 612.4929 83.24886 612.7805 70.29724 612.6929C 63.88394 612.6304 57.47064 612.5554 51.06984 612.0679C 50.25724 611.9929 49.53215 611.4428 49.08209 610.5427C 48.79456 609.9801 48.59453 609.305 48.51952 608.6299L48.51952 608.6299L48.49452 608.3799L48.49452 608.3799L48.44451 607.8798C 48.28199 606.2047 48.13197 604.5169 48.03196 602.8542C 47.95695 601.704 47.95695 599.9913 47.93195 598.8162C 47.90694 597.1035 47.85694 595.4158 47.78193 593.7031C 47.73192 592.728 47.66941 591.6403 47.64441 590.6652C 47.5444 586.3646 47.61941 578.0011 50.88232 575.6758C 50.88232 575.8258 50.88232 576.0009 50.89482 576.1634C 50.93232 577.401 51.43238 578.3636 52.29499 578.9012L52.29499 578.9012L52.25749 578.8887zM52.25749 578.8887C 51.80743 578.5887 51.39488 578.1511 51.15736 577.5635C 51.03234 577.276 50.95733 576.951 50.91983 576.6259C 50.88232 576.3009 50.88232 576.3009 50.88232 576.1384C 50.88232 576.1384 50.51978 575.8884 50.51978 575.8884C 50.19473 576.1759 49.8947 576.5259 49.64466 576.9135C 48.01946 579.5138 47.59441 583.3393 47.34438 586.5647C 47.16936 588.94 47.15686 591.3528 47.21936 593.7281C 47.24437 595.4158 47.23186 597.1285 47.21936 598.8037C 47.20686 600.1664 47.16936 601.5416 47.21936 602.9042C 47.28187 604.6169 47.45689 606.3171 47.63192 608.0049L47.63192 608.0049L47.68192 608.5049L47.68192 608.5049L47.70692 608.7549C 47.80693 609.5925 48.04446 610.3801 48.39451 611.0927C 48.86957 612.0554 49.65717 612.793 50.53228 613.0055C 50.79481 613.0805 51.09485 613.093 51.36988 613.118C 71.10985 614.3182 69.15961 613.5181 88.93707 613.3555C 94.47527 613.193 99.36337 610.9802 103.7014 606.4922C 105.8017 604.3919 107.9644 602.1041 109.1396 598.9287C 111.1524 593.5405 107.2769 589.7776 104.364 586.8022C 103.3264 585.7396 102.2762 584.6895 101.1511 583.7893C 99.5634 582.5016 97.83818 581.489 96.03796 580.839C 92.97508 579.7138 89.72467 579.6263 86.56178 579.6513C 79.38588 579.6513 65.74667 580.1764 58.45827 580.0013C 56.88307 579.9263 55.30787 579.8388 53.75768 579.4638C 53.24512 579.3387 52.73255 579.1763 52.25749 578.8887z" stroke="none" fill="#000000" fill-rule="nonzero" /></g><g clip-path="url(#24)"><path id="112" transform="matrix(1 0 0 -1 0 842)" d="M55.09214 175.4272C 53.90449 174.6521 53.72947 173.427 53.70447 172.6769C 53.70447 172.4519 53.49194 172.3269 53.35442 172.4519C 49.49144 175.8148 50.29154 189.0164 50.32904 190.3791C 50.54157 198.5926 50.09151 197.1175 50.94162 205.306C 50.94162 205.306 51.31667 208.9189 53.91699 209.1315C 68.05626 210.2941 77.1949 209.5565 91.37167 209.394C 96.69734 209.3315 101.3354 207.2937 104.9859 203.8683C 107.9362 201.1055 111.2116 197.755 111.9867 193.8546C 112.8619 189.454 109.2989 186.1411 106.286 183.0782C 101.723 178.4276 97.80997 176.6774 90.67159 176.6899C 82.35805 176.7149 79.10764 176.6899 70.7816 176.6524C 65.40593 176.6399 57.34242 176.8899 55.07964 175.4147L55.07964 175.4147L55.09214 175.4272z" stroke="none" fill="#8EDFD2" fill-rule="nonzero" /><g><g clip-path="url(#25)"><path id="113" transform="matrix(1 0 0 -1 0 842)" d="M55.47968 189.854C 55.66721 192.7294 55.6047 195.6673 55.89223 198.5301C 56.05476 200.1678 56.50481 201.8305 57.45493 202.9182C 59.05513 204.7309 61.63046 204.4934 63.6307 204.5684C 66.34354 204.6684 69.04388 204.5309 71.75671 204.5309C 80.59532 204.5309 67.19365 204.7184 76.03225 204.6184C 80.89536 204.5559 85.93349 204.6559 90.74659 203.6683C 93.43443 203.1057 96.08476 202.2181 98.58507 200.8179C 101.1979 199.3427 103.2231 197.0299 105.6359 195.1797C 106.7861 194.3046 107.6237 195.4172 107.3237 196.9799C 106.9986 198.7176 104.8358 200.1428 103.6482 201.1929C 101.7355 202.8807 99.81023 204.6559 97.54744 205.7685C 94.15952 207.4312 90.44656 207.2937 86.88361 207.3562C 83.09564 207.4187 79.32017 207.7063 75.54469 207.7313C 69.69396 207.7688 63.83073 207.7688 57.9675 207.7313C 53.76698 207.7063 71.81923 207.6563 67.61871 207.5688C 65.50594 207.5313 63.38067 207.4812 61.26791 207.4312C 58.23003 207.3562 53.55445 207.0812 52.76685 202.1681C 52.4043 199.8803 52.3543 197.5425 52.3543 195.2047C 52.3543 193.0794 52.20428 190.8292 52.54182 188.7289C 52.91687 186.4036 54.91712 187.1162 55.36717 188.9664C 55.44218 189.254 55.47969 189.554 55.49219 189.8665L55.49219 189.8665L55.47968 189.854z" stroke="none" fill="#FFFFFF" fill-rule="nonzero" fill-opacity="0.09803922" /></g></g><path id="114" transform="matrix(1 0 0 -1 0 842)" d="M55.09214 175.4272C 55.5672 175.7273 56.07977 175.8773 56.59233 176.0148C 57.62996 176.2648 58.66759 176.3899 59.71772 176.4899C 63.29316 176.7899 67.13114 176.7774 70.7316 176.8524C 76.51982 176.8399 79.87023 177.215 83.12064 177.2025C 84.47081 177.2025 90.07151 177.2025 91.35917 177.2025C 92.25928 177.215 93.1844 177.2525 94.0845 177.3525C 98.8476 177.8025 102.3605 179.6403 106.0985 183.5033C 107.5112 184.9534 108.9989 186.3661 110.199 188.1038C 111.3617 189.7915 112.1493 191.8543 111.5367 194.1296C 110.9741 196.3174 109.749 198.0676 108.4613 199.6428C 107.6987 200.5429 106.8986 201.393 106.0735 202.2056C 105.2484 203.0057 104.4108 203.8183 103.5357 204.5184C 100.4603 206.9937 96.92236 208.3814 93.32191 208.7564C 92.55931 208.8439 91.75922 208.8689 90.99662 208.8689C 77.9825 209.0314 86.08351 209.319 73.13189 209.2315C 66.71859 209.169 60.30529 209.0939 53.90449 208.6064C 53.09188 208.5314 52.36679 207.9813 51.91674 207.0812C 51.6292 206.5186 51.42918 205.8436 51.35417 205.1685L51.35417 205.1685L51.32917 204.9184L51.32917 204.9184L51.27916 204.4184C 51.11664 202.7432 50.96662 201.0555 50.86661 199.3927C 50.7916 198.2426 50.7916 196.5299 50.76659 195.3547C 50.74159 193.642 50.69159 191.9543 50.61658 190.2416C 50.56657 189.2665 50.50406 188.1788 50.47906 187.2037C 50.37905 182.9032 50.45406 174.5396 53.71696 172.2143C 53.71696 172.3644 53.71696 172.5394 53.72947 172.7019C 53.76697 173.9396 54.26703 174.9022 55.12964 175.4397L55.12964 175.4397L55.09214 175.4272zM55.09214 175.4272C 54.64208 175.1272 54.22953 174.6897 53.992 174.1021C 53.86699 173.8145 53.79198 173.4895 53.75447 173.1645C 53.71697 172.8394 53.71697 172.8394 53.71697 172.6769C 53.71697 172.6769 53.35442 172.4269 53.35442 172.4269C 53.02938 172.7144 52.72934 173.0645 52.47931 173.452C 50.85411 176.0523 50.42906 179.8778 50.17903 183.1032C 50.00401 185.4785 49.9915 187.8913 50.05401 190.2666C 50.07901 191.9543 50.06651 193.667 50.05401 195.3422C 50.04151 196.7049 50.00401 198.0801 50.05401 199.4427C 50.11652 201.1555 50.29154 202.8557 50.46656 204.5434L50.46656 204.5434L50.51657 205.0434L50.51657 205.0434L50.54157 205.2935C 50.64158 206.1311 50.87911 206.9187 51.22916 207.6313C 51.70422 208.5939 52.49181 209.3315 53.36692 209.544C 53.62946 209.619 53.9295 209.6315 54.20453 209.6565C 73.9445 210.8567 71.99425 210.0566 91.77172 209.8941C 97.30991 209.7315 102.198 207.5188 106.5361 203.0307C 108.6363 200.9304 110.7991 198.6426 111.9742 195.4673C 113.987 190.0791 110.1115 186.3161 107.1986 183.3407C 106.161 182.2781 105.1109 181.228 103.9857 180.3279C 102.398 179.0402 100.6728 178.0276 98.8726 177.3775C 95.80972 176.2523 92.55932 176.1648 89.39642 176.1898C 82.22054 176.1898 68.58133 176.7149 61.29292 176.5399C 59.71772 176.4649 58.14252 176.3774 56.59233 176.0023C 56.07977 175.8773 55.5672 175.7148 55.09214 175.4272z" stroke="none" fill="#000000" fill-rule="nonzero" /></g><g clip-path="url(#26)"><path id="115" transform="matrix(1 0 0 -1 0 842)" d="M91.48779 145.9129C 91.3335 145.8358 91.14063 145.9322 91.14063 146.1251C 91.14063 156.0963 91.39136 186.6657 91.17921 196.637C 91.06348 202.1723 90.31131 209.9448 83.13664 209.8869C 83.04021 209.8869 82.92449 209.8869 82.80877 209.8869C 81.22726 210.292 79.37573 210.4848 77.23491 210.4848C 74.99765 210.4848 72.76039 210.4848 70.52313 210.4848C 69.32735 210.5234 68.13158 210.5234 66.95509 210.4848C 60.01187 210.4848 35.51774 210.4848 28.57452 210.5041C 20.04979 210.5234 16.82891 207.6304 16.86748 202.5773C 16.92534 196.367 16.9832 190.1759 17.04106 183.9656C 17.04106 182.4227 17.11821 180.764 18.48757 179.4718C 21.70845 176.4245 47.86124 176.0773 53.70511 175.9616C 53.66654 164.0038 53.70511 147.5909 54.41872 145.5272C 54.47658 145.3536 54.32229 145.18 54.12942 145.2379C 50.34922 146.4337 47.08977 146.7422 45.46968 144.64C 43.61816 142.2484 44.8718 138.9118 48.69056 135.1509C 54.68874 129.2299 60.43618 122.4603 67.03223 117.2143C 67.16724 117.0793 67.32153 116.9443 67.45654 116.79C 68.17015 116.0956 68.94162 115.4013 70.13739 115.382C 70.15668 115.382 70.17596 115.382 70.19525 115.382C 72.12392 114.7263 75.7884 115.2277 77.11919 116.6164C 83.96597 123.7139 90.92847 130.5028 97.23522 138.1211C 97.37023 138.2946 97.50524 138.4489 97.64025 138.6225C 98.54672 139.7219 99.39534 140.8791 99.83893 142.0363C 101.8062 147.1858 94.78581 147.7837 91.44921 145.9708L91.44921 145.9708L91.48779 145.9129z" stroke="none" fill="#FFFFFF" fill-rule="nonzero" /><g><g clip-path="url(#27)"><path id="116" transform="matrix(1 0 0 -1 0 842)" d="M58.25677 144.8714C 58.35321 144.91 58.43036 144.9679 58.50751 145.0836C 58.60394 145.2572 58.58465 145.4693 58.58465 145.6622C 58.16035 151.0625 57.79389 167.5526 57.79389 172.9915C 57.79389 178.4303 56.01952 176.4245 56.01952 171.5064C 56.01952 166.5497 54.97803 150.1174 57.09957 145.6815C 57.33102 145.2186 57.89034 144.7557 58.25677 144.8714z" stroke="none" fill="#FFFFFF" fill-rule="nonzero" fill-opacity="0.2" /></g></g><path id="117" transform="matrix(1 0 0 -1 0 842)" d="M91.48779 145.9129C 93.41647 146.9158 96.07803 147.1665 98.12242 146.4337C 99.3182 145.9901 100.244 145.045 100.2632 143.6949C 100.2632 142.2677 99.53036 140.9562 98.7396 139.8183C 92.29784 131.4093 84.81458 123.8296 77.46635 116.2114C 75.88484 114.6684 72.3168 114.2441 70.25312 114.8227L70.25312 114.8227L70.11811 114.8613L70.11811 114.8613L70.07954 114.8613C 70.06024 114.8613 70.07954 114.8613 70.07954 114.8613C 70.07954 114.8613 70.09882 114.8613 70.11811 114.8613C 70.1374 114.8613 70.1374 114.8613 70.11811 114.8613C 68.96091 114.8806 68.07372 115.4977 67.28296 116.2692C 67.12867 116.4235 66.85865 116.6742 66.70436 116.8092C 66.70436 116.8092 66.68507 116.8285 66.70436 116.8092C 66.72365 116.8092 66.70436 116.8092 66.70436 116.8092L66.70436 116.8092L66.6465 116.8478C 61.94054 120.6087 57.77461 124.9868 53.62797 129.3263C 52.18147 130.85 50.73496 132.3543 49.24988 133.8394C 48.24697 134.823 47.20549 135.8452 46.35688 136.9446C 45.46968 138.0825 44.65965 139.3747 44.2932 140.8019C 43.88818 142.3642 44.19676 143.965 45.2961 145.1607C 47.41764 147.4366 51.13998 146.5494 53.76298 145.7972C 53.89798 145.7586 54.09085 145.7007 54.24514 145.6429C 54.05228 145.7007 53.8787 145.4886 53.93656 145.315C 53.89798 145.4115 53.85941 145.5465 53.84012 145.6622C 53.64725 146.6265 53.58939 147.6294 53.53153 148.613C 53.08794 157.7164 53.20366 166.8197 53.18437 175.9423L53.18437 175.9423L53.66654 175.4602C 44.21605 175.6723 34.72698 175.8266 25.33435 177.0224C 23.32854 177.331 19.8955 177.7939 18.31399 178.9318L18.31399 178.9318L18.19827 179.0282C 18.15969 179.0668 18.12112 179.1053 18.08255 179.1246L18.08255 179.1246L17.88968 179.3175C 17.83182 179.3754 17.77396 179.4525 17.7161 179.5296L17.7161 179.5296L17.61967 179.6454L17.61967 179.6454L17.54252 179.7611L17.54252 179.7611L17.46537 179.8768C 17.44608 179.9154 17.40751 179.954 17.38823 179.9925L17.38823 179.9925L17.23393 180.2433C 16.9832 180.7254 16.79034 181.2847 16.6939 181.8248C 16.5589 182.5384 16.53961 183.252 16.53961 183.927C 16.53961 187.9579 16.42389 196.097 16.38532 200.1086L16.38532 200.1086L16.38532 202.1337C 16.38532 202.1337 16.36603 202.3844 16.36603 202.3844C 16.36603 203.0016 16.38532 203.6188 16.48175 204.2359C 17.09892 208.2862 20.35838 210.0605 24.1 210.6777C 25.45007 210.8899 26.81943 211.0056 28.20807 211.0056C 39.4908 211.0442 56.34739 210.9477 67.6687 211.0056C 68.51731 211.0056 69.36592 211.0056 70.21455 211.0056C 70.38812 211.0056 70.54242 211.0056 70.716 211.0056L70.716 211.0056L74.76621 211.0056C 75.92342 210.9863 77.6785 211.0249 78.83571 210.9477C 80.20506 210.8706 81.57442 210.7163 82.9245 210.3691L82.9245 210.3691L82.80878 210.3691C 82.80878 210.3691 83.07879 210.3691 83.07879 210.3691C 83.11736 210.3691 83.17522 210.3691 83.2138 210.3691L83.2138 210.3691L83.34881 210.3691C 85.31606 210.3691 87.16757 209.7134 88.53693 208.2669C 92.31713 204.2359 91.56495 196.0777 91.73853 190.8317C 91.79639 176.1352 91.14064 161.4387 91.14064 146.723L91.14064 146.723L91.14064 146.1829C 91.14064 146.1443 91.14064 146.0865 91.14064 146.0479C 91.17921 145.9129 91.35279 145.855 91.46851 145.9322L91.46851 145.9322L91.48779 145.9129zM91.48779 145.9129C 91.41064 145.8743 91.31421 145.8743 91.23707 145.9129C 91.15992 145.9708 91.14063 146.0672 91.14063 146.1443L91.14063 146.1443L91.14063 146.6844C 91.19849 160.648 90.88991 174.6694 90.7549 188.633C 90.7549 190.6967 90.7549 193.0304 90.71632 195.0748C 90.61989 199.0092 90.65846 203.9659 88.17047 207.1675C 86.97469 208.6719 85.21961 209.3469 83.32951 209.3469C 83.23307 209.3469 82.92448 209.3469 82.78948 209.3469C 80.84152 209.8098 78.77785 209.9834 76.77202 209.9448C 75.20979 209.9448 71.77676 209.9448 70.17596 209.9448C 69.17305 209.9448 68.15086 209.9641 67.16724 209.9448C 56.4824 209.9062 39.85724 209.9834 29.21097 209.9448C 28.20807 209.9448 27.20515 209.9448 26.22153 209.8677C 23.15494 209.6362 19.45189 208.8648 18.00539 205.8175C 17.65823 205.1039 17.48465 204.3324 17.4075 203.5416C 17.34964 203.0595 17.36893 202.558 17.36893 202.0758C 17.34964 200.9379 17.46536 193.3004 17.46536 191.9503L17.46536 191.9503L17.54251 183.8499C 17.54251 182.6541 17.60037 181.4583 18.23683 180.4361C 18.23683 180.3976 18.2754 180.3783 18.29469 180.3397L18.29469 180.3397L18.35255 180.2433L18.35255 180.2433L18.41041 180.1468L18.41041 180.1468L18.48756 180.0697C 18.54542 180.0118 18.58399 179.954 18.64185 179.8961C 18.719 179.819 18.81543 179.7225 18.87329 179.6647C 19.10473 179.4525 19.41332 179.3175 19.72191 179.1825C 20.3198 178.9318 20.93697 178.7582 21.57343 178.6039C 26.80013 177.4467 32.2197 177.1767 37.56212 176.8488C 42.94312 176.5595 48.32411 176.4245 53.72439 176.3281C 53.9944 176.3281 54.20656 176.0966 54.20656 175.8459C 54.20656 167.4562 54.1487 159.0665 54.438 150.6767C 54.49586 149.2881 54.55372 147.8994 54.70801 146.5301C 54.74659 146.2794 54.76587 146.0479 54.82373 145.7972C 54.82373 145.7586 54.82373 145.72 54.84302 145.6815L54.84302 145.6815L54.84302 145.585C 54.86231 145.585 54.8816 145.5658 54.8816 145.5658C 54.8816 145.5272 54.8816 145.5079 54.90088 145.4693C 55.01661 144.9486 54.47658 144.4664 53.97512 144.6593L53.97512 144.6593L53.93655 144.6593C 53.93655 144.6593 53.87868 144.6978 53.87868 144.6978C 51.60285 145.3729 47.88052 146.4144 46.02899 144.4471C 44.89108 143.2128 44.91036 141.5541 45.56611 140.0497C 46.51116 137.8511 48.28554 136.1153 49.96349 134.4566C 55.63378 128.767 60.89906 122.6531 67.16724 117.6193L67.16724 117.6193L67.26367 117.5422L67.26367 117.5422L67.32153 117.5036L67.32153 117.5036L67.36011 117.465C 67.39868 117.4264 67.39868 117.4264 67.39868 117.4264L67.39868 117.4264L67.59155 117.2528C 68.30516 116.5585 69.07663 115.7678 70.15668 115.7485C 70.15668 115.7485 70.17596 115.7485 70.21454 115.7485C 70.25311 115.7485 70.29169 115.7485 70.31097 115.7485C 70.34955 115.7485 70.38812 115.7292 70.38812 115.7292L70.38812 115.7292L70.40741 115.7292C 70.40741 115.7292 70.52313 115.6906 70.52313 115.6906C 70.83171 115.6135 71.1403 115.5556 71.46817 115.517C 73.06897 115.382 75.0748 115.6521 76.44415 116.5392C 76.54058 116.5971 76.61772 116.6742 76.69487 116.7514L76.69487 116.7514L76.77202 116.8285C 77.7942 117.8893 78.83569 118.9694 79.87718 120.0301C 86.0875 126.3562 93.06929 132.933 98.5853 139.8569C 98.99032 140.4162 99.37605 140.9948 99.66535 141.6313C 101.2469 145.0643 98.77816 146.7615 95.51871 146.7808C 94.13007 146.7808 92.70285 146.5108 91.4685 145.8551L91.4685 145.8551L91.48779 145.9129z" stroke="none" fill="#000000" fill-rule="nonzero" /><g><g clip-path="url(#28)"><path id="118" transform="matrix(1 0 0 -1 0 842)" d="M49.26917 142.7499C 49.71276 141.7856 49.69347 140.5705 50.11778 139.6254C 50.59995 138.5454 51.56428 137.6389 52.29718 136.7517C 55.61449 132.8365 53.70511 132.933 51.42928 135.3052C 50.05992 136.7324 45.77827 139.2783 47.34049 142.3256C 48.22768 144.0421 48.84486 143.6178 49.24988 142.7306L49.24988 142.7306L49.26917 142.7499z" stroke="none" fill="#FFFFFF" fill-rule="nonzero" fill-opacity="0.2" /></g></g></g><g clip-path="url(#29)"><path id="122" transform="matrix(1 0 0 -1 0 842)" d="M142.4691 567.2979C 142.4691 566.9996 142.412 566.7125 142.2978 566.4369C 142.1836 566.1612 142.0211 565.9179 141.8101 565.7069C 141.5991 565.496 141.3558 565.3334 141.0801 565.2192C 140.8045 565.105 140.5175 565.0479 140.2191 565.0479C 139.9207 565.0479 139.6337 565.105 139.358 565.2192C 139.0824 565.3334 138.8391 565.496 138.6281 565.7069C 138.4171 565.9179 138.2545 566.1612 138.1404 566.4369C 138.0262 566.7125 137.9691 566.9996 137.9691 567.2979C 137.9691 567.5963 138.0262 567.8833 138.1404 568.1589C 138.2545 568.4346 138.4171 568.6779 138.6281 568.8889C 138.8391 569.0999 139.0824 569.2625 139.358 569.3766C 139.6337 569.4908 139.9207 569.5479 140.2191 569.5479C 140.5175 569.5479 140.8045 569.4908 141.0801 569.3766C 141.3558 569.2625 141.5991 569.0999 141.8101 568.8889C 142.0211 568.6779 142.1836 568.4346 142.2978 568.1589C 142.412 567.8833 142.4691 567.5963 142.4691 567.2979z" stroke="none" fill="#242424" fill-rule="nonzero" /><path id="239" transform="matrix(1 0 0 -1 0 842)" d="M395.0105 567.2979C 395.0105 566.9996 394.9534 566.7125 394.8392 566.4369C 394.725 566.1612 394.5625 565.9179 394.3515 565.7069C 394.1405 565.496 393.8972 565.3334 393.6215 565.2192C 393.3459 565.105 393.0589 565.0479 392.7605 565.0479C 392.4621 565.0479 392.1751 565.105 391.8994 565.2192C 391.6238 565.3334 391.3805 565.496 391.1695 565.7069C 390.9585 565.9179 390.796 566.1612 390.6818 566.4369C 390.5676 566.7125 390.5105 566.9996 390.5105 567.2979C 390.5105 567.5963 390.5676 567.8833 390.6818 568.1589C 390.796 568.4346 390.9585 568.6779 391.1695 568.8889C 391.3805 569.0999 391.6238 569.2625 391.8994 569.3766C 392.1751 569.4908 392.4621 569.5479 392.7605 569.5479C 393.0589 569.5479 393.3459 569.4908 393.6215 569.3766C 393.8972 569.2625 394.1405 569.0999 394.3515 568.8889C 394.5625 568.6779 394.725 568.4346 394.8392 568.1589C 394.9534 567.8833 395.0105 567.5963 395.0105 567.2979z" stroke="none" fill="#242424" fill-rule="nonzero" /><path id="326" transform="matrix(1 0 0 -1 0 842)" d="M142.4691 408.2982C 142.4691 407.9998 142.412 407.7128 142.2978 407.4372C 142.1836 407.1615 142.0211 406.9182 141.8101 406.7072C 141.5991 406.4962 141.3558 406.3337 141.0801 406.2195C 140.8045 406.1053 140.5175 406.0482 140.2191 406.0482C 139.9207 406.0482 139.6337 406.1053 139.358 406.2195C 139.0824 406.3337 138.8391 406.4962 138.6281 406.7072C 138.4171 406.9182 138.2545 407.1615 138.1404 407.4372C 138.0262 407.7128 137.9691 407.9998 137.9691 408.2982C 137.9691 408.5966 138.0262 408.8836 138.1404 409.1592C 138.2545 409.4349 138.4171 409.6782 138.6281 409.8892C 138.8391 410.1002 139.0824 410.2628 139.358 410.377C 139.6337 410.4911 139.9207 410.5482 140.2191 410.5482C 140.5175 410.5482 140.8045 410.4911 141.0801 410.377C 141.3558 410.2628 141.5991 410.1002 141.8101 409.8892C 142.0211 409.6782 142.1836 409.4349 142.2978 409.1592C 142.412 408.8836 142.4691 408.5966 142.4691 408.2982z" stroke="none" fill="#242424" fill-rule="nonzero" /><path id="543" transform="matrix(1 0 0 -1 0 842)" d="M142.4691 310.7982C 142.4691 310.4999 142.412 310.2128 142.2978 309.9372C 142.1836 309.6615 142.0211 309.4182 141.8101 309.2072C 141.5991 308.9963 141.3558 308.8337 141.0801 308.7195C 140.8045 308.6053 140.5175 308.5482 140.2191 308.5482C 139.9207 308.5482 139.6337 308.6053 139.358 308.7195C 139.0824 308.8337 138.8391 308.9963 138.6281 309.2072C 138.4171 309.4182 138.2545 309.6615 138.1404 309.9372C 138.0262 310.2128 137.9691 310.4999 137.9691 310.7982C 137.9691 311.0966 138.0262 311.3836 138.1404 311.6592C 138.2545 311.9349 138.4171 312.1782 138.6281 312.3892C 138.8391 312.6002 139.0824 312.7628 139.358 312.877C 139.6337 312.9911 139.9207 313.0482 140.2191 313.0482C 140.5175 313.0482 140.8045 312.9911 141.0801 312.877C 141.3558 312.7628 141.5991 312.6002 141.8101 312.3892C 142.0211 312.1782 142.1836 311.9349 142.2978 311.6592C 142.412 311.3836 142.4691 311.0966 142.4691 310.7982z" stroke="none" fill="#242424" fill-rule="nonzero" /><path id="703" transform="matrix(1 0 0 -1 0 842)" d="M142.4691 164.137C 142.4691 163.8387 142.412 163.5517 142.2978 163.276C 142.1836 163.0004 142.0211 162.757 141.8101 162.5461C 141.5991 162.3351 141.3558 162.1725 141.0801 162.0583C 140.8045 161.9441 140.5175 161.887 140.2191 161.887C 139.9207 161.887 139.6337 161.9441 139.358 162.0583C 139.0824 162.1725 138.8391 162.3351 138.6281 162.5461C 138.4171 162.757 138.2545 163.0004 138.1404 163.276C 138.0262 163.5517 137.9691 163.8387 137.9691 164.137C 137.9691 164.4354 138.0262 164.7224 138.1404 164.9981C 138.2545 165.2737 138.4171 165.5171 138.6281 165.728C 138.8391 165.939 139.0824 166.1016 139.358 166.2158C 139.6337 166.33 139.9207 166.387 140.2191 166.387C 140.5175 166.387 140.8045 166.33 141.0801 166.2158C 141.3558 166.1016 141.5991 165.939 141.8101 165.728C 142.0211 165.5171 142.1836 165.2737 142.2978 164.9981C 142.412 164.7224 142.4691 164.4354 142.4691 164.137z" stroke="none" fill="#242424" fill-rule="nonzero" /></g><g clip-path="url(#30)"><g clip-path="url(#31)"><g clip-path="url(#32)"><g clip-path="url(#33)"><g clip-path="url(#34)"><g clip-path="url(#35)"><g clip-path="url(#36)"><path id="923" transform="matrix(1 0 0 -1 0 842)" d="M545.4492 53.4922C 545.4492 37.82163 532.8047 25.1771 517.1342 25.1771L517.1342 25.1771L412.3034 25.1771C 396.6328 25.06903 383.9883 37.82163 383.9883 53.4922C 383.9883 69.16278 396.6328 81.80731 412.3034 81.80731L412.3034 81.80731L517.0261 81.80731C 532.8047 81.80731 545.4492 69.16278 545.4492 53.4922z" stroke="none" fill="#7ED957" fill-rule="nonzero" /></g></g></g></g></g></g></g><g clip-path="url(#37)"><g clip-path="url(#38)"><g clip-path="url(#39)"><g clip-path="url(#40)"><g clip-path="url(#41)"><g clip-path="url(#42)"><g clip-path="url(#43)"><path id="924" transform="matrix(1 0 0 -1 0 842)" d="M383.9883 53.43816C 383.9883 45.81111 387.0184 38.49644 392.412 33.10331C 397.8056 27.71018 405.1208 24.68034 412.7485 24.68034L412.7485 24.68034L516.689 24.68034C 524.3167 24.68034 531.632 27.71018 537.0256 33.10331C 542.4191 38.49644 545.4492 45.81111 545.4492 53.43816C 545.4492 61.0652 542.4191 68.37987 537.0256 73.773C 531.632 79.16614 524.3167 82.19597 516.689 82.19597L516.689 82.19597L412.7485 82.19597C 405.1208 82.19597 397.8056 79.16614 392.412 73.773C 387.0184 68.37987 383.9883 61.0652 383.9883 53.43816z" stroke="#000000" stroke-width="6" fill="none" /></g></g></g></g></g></g></g><g clip-path="url(#44)"></g><g clip-path="url(#45)"><path id="967" transform="matrix(1 0 0 -1 0 842)" d="M538.5227 40.17271C 538.4157 40.66565 538.7284 41.1523 539.2216 41.25928L539.2216 41.25928L543.5173 42.19482C 544.0104 42.3018 544.4973 41.98925 544.6043 41.49631C 544.7113 41.00337 544.3986 40.51672 543.9055 40.40974L543.9055 40.40974L539.6097 39.4742C 539.1166 39.36512 538.6298 39.67977 538.5227 40.17271zM535.4399 44.57143C 535.0118 44.83992 534.8818 45.40208 535.1504 45.83L535.1504 45.83L537.486 49.55328C 537.7546 49.9812 538.3171 50.11125 538.7452 49.84275C 539.1733 49.57426 539.3034 49.0121 539.0348 48.58418L539.0348 48.58418L536.7012 44.8609C 536.4326 44.43298 535.868 44.30293 535.4399 44.57143zM524.5045 36.85427C 524.6115 36.36133 524.2988 35.87468 523.8057 35.7677L523.8057 35.7677L519.5099 34.83216C 519.0168 34.72518 518.5299 35.03773 518.4229 35.53067C 518.3159 36.02361 518.6285 36.51026 519.1217 36.61724L519.1217 36.61724L523.4174 37.55278C 523.9106 37.65976 524.3975 37.34721 524.5045 36.85427zM525.3669 42.40668C 525.0983 41.97876 524.5359 41.84871 524.1078 42.11721L524.1078 42.11721L520.3809 44.45186C 519.9528 44.72036 519.8226 45.28252 520.0912 45.71044C 520.3599 46.13835 520.9222 46.2684 521.3503 45.99991L521.3503 45.99991L525.0753 43.66735C 525.5055 43.39885 525.6335 42.83459 525.3669 42.40668zM529.9628 45.52584C 529.4696 45.41887 528.9827 45.73141 528.8757 46.22435L528.8757 46.22435L527.9419 50.51819C 527.8348 51.01113 528.1475 51.49778 528.6407 51.60476C 529.1339 51.71174 529.6207 51.39919 529.7277 50.90625L529.7277 50.90625L530.6637 46.61242C 530.7686 46.11947 530.4559 45.63282 529.9628 45.52584zM551.4351 7.20435C 550.8873 5.012333 549.1329 3.107689 547.005 2.348351C 545.7816 1.912045 544.4574 1.826042 543.1689 1.844921C 541.8027 1.8638 540.4345 1.972878 539.0704 2.052589C 538.3779 2.092445 537.6854 2.134396 536.995 2.180546C 536.3423 2.224594 535.6834 2.237183 535.0328 2.30011C 534.5145 2.350452 534.0256 2.484703 533.6163 2.82032C 533.1757 3.18111 532.7937 3.625809 532.3908 4.028549C 530.4307 5.987732 528.4707 7.946915 526.5107 9.906094C 524.7668 11.64922 523.0229 13.39235 521.279 15.13547C 521.0482 15.36621 520.8215 15.58646 520.6536 15.87173C 520.4312 16.2514 520.32 16.68351 520.3242 17.12402C 520.3347 18.06375 520.9327 19.00558 521.8456 19.30345C 522.3933 19.48384 522.9872 19.46916 523.5223 19.2531C 523.7994 19.14193 524.0596 18.96573 524.3177 18.8168C 524.58 18.66577 524.8423 18.51474 525.1047 18.36161C 526.1519 17.7575 527.1969 17.15338 528.2441 16.54927C 528.328 16.50102 528.4119 16.45277 528.4959 16.40453C 528.84 16.20526 529.285 16.45907 529.285 16.85762C 529.285 17.36734 529.285 17.87706 529.285 18.38678C 529.285 19.66634 529.285 20.94798 529.285 22.22753C 529.285 23.90563 529.285 25.58583 529.285 27.26393C 529.285 28.9693 529.285 30.67467 529.285 32.37794C 529.285 33.7309 529.285 35.08387 529.285 36.43684C 529.285 37.08081 529.2828 37.72478 529.285 38.36875C 529.2891 39.13858 529.627 39.86855 530.2482 40.33422C 531.224 41.0621 532.6195 40.93204 533.4548 40.05104C 533.95 39.52874 534.1053 38.87218 534.1053 38.17577C 534.1053 37.68912 534.1053 37.20247 534.1053 36.71582C 534.1053 35.06919 534.1053 33.42255 534.1053 31.77802C 534.1053 30.53412 534.1053 29.29023 534.1053 28.04634C 534.1053 27.98132 534.1053 27.91419 534.1053 27.84916C 534.1053 27.17373 535.1462 27.17373 535.1545 27.84916C 535.1735 29.39931 536.6571 30.58657 538.1786 30.18172C 539.0138 29.95938 539.6748 29.29862 539.8951 28.46587C 540.0169 28.00858 539.9749 27.50725 539.9749 27.03948C 539.9749 26.56332 539.9749 26.08926 539.9749 25.6131C 539.9749 24.93766 541.0158 24.93766 541.0242 25.6131C 541.0431 27.16534 542.5267 28.3442 544.0503 27.94356C 544.8834 27.7233 545.5465 27.05836 545.7669 26.2277C 545.8865 25.78091 545.8445 25.29635 545.8445 24.83907C 545.8445 24.35872 545.8445 23.87836 545.8445 23.398C 545.8445 22.72257 546.8854 22.72257 546.8938 23.398C 546.9085 24.59155 547.8046 25.65505 549.0112 25.79349C 550.4445 25.95711 551.6932 24.82858 551.7141 23.398C 551.7141 20.65012 551.7141 17.90433 551.7141 15.15644C 551.7141 13.74893 551.7141 12.33933 551.7141 10.93182C 551.7162 9.683743 551.7393 8.418877 551.4351 7.20435zM552.7655 12.55119C 552.7655 15.45011 552.7655 18.34693 552.7655 21.24585C 552.7655 21.96114 552.7655 22.67852 552.7655 23.39381C 552.7424 24.93767 551.71 26.33468 550.199 26.73533C 549.007 27.04997 547.7416 26.69338 546.8791 25.84803C 546.8581 26.14799 546.8099 26.44795 546.707 26.73743C 546.323 27.80721 545.4374 28.65675 544.3315 28.95042C 543.3641 29.20633 542.2791 29.03013 541.4628 28.44489C 541.3012 28.32952 541.1522 28.20157 541.0137 28.06312C 540.9927 28.37148 540.9445 28.67773 540.8395 28.97559C 540.4597 30.03489 539.5951 30.87184 538.5038 31.1781C 537.5259 31.45079 536.4221 31.27459 535.5953 30.68306C 535.4399 30.57188 535.2952 30.44812 535.1609 30.31597C 535.1609 30.44183 535.1609 30.56559 535.1609 30.69145C 535.1609 32.4136 535.1609 34.13575 535.1609 35.8558C 535.1609 36.49348 535.1609 37.12906 535.1609 37.76674C 535.1609 38.18416 535.1713 38.5932 535.1042 39.00643C 534.8608 40.52511 533.5471 41.67041 532.0446 41.83612C 530.7393 41.98086 529.436 41.31382 528.7498 40.20208C 528.2168 39.33785 528.2419 38.4128 528.2419 37.45209C 528.2419 36.28371 528.2419 35.11324 528.2419 33.94486C 528.2419 32.27306 528.2419 30.60125 528.2419 28.93154C 528.2419 27.16324 528.2419 25.39495 528.2419 23.62455C 528.2419 22.1646 528.2419 20.70675 528.2419 19.24681C 528.2419 18.75387 528.2336 18.25673 528.2336 17.76379C 527.5662 18.14975 526.8968 18.53571 526.2295 18.91958C 525.8685 19.12724 525.5076 19.33701 525.1445 19.54467C 524.5527 19.88658 523.9694 20.27674 523.2873 20.4026C 521.9526 20.64802 520.6453 20.12991 519.873 19.01187C 519.2623 18.13087 519.1112 16.92683 519.4827 15.91997C 519.7701 15.14175 520.3179 14.61105 520.8887 14.0405C 521.875 13.05462 522.8634 12.06664 523.8497 11.08075C 525.9147 9.016689 527.9775 6.954727 530.0425 4.890663C 530.5566 4.376747 531.0687 3.864925 531.5828 3.351009C 532.0109 2.923096 532.4181 2.459518 532.8818 2.069359C 533.3624 1.666618 533.8975 1.412804 534.5166 1.31002C 535.2007 1.196751 535.8975 1.198849 536.5879 1.150604C 538.04 1.049919 539.4943 0.9681129 540.9486 0.888401C 542.3484 0.810791 543.7502 0.7142982 545.1478 0.8737144C 546.4909 1.02684 547.7773 1.387634 548.921 2.121799C 549.9493 2.782551 550.8223 3.665653 551.4812 4.693489C 552.2031 5.819912 552.5662 7.070095 552.6963 8.393696C 552.8243 9.776039 552.7655 11.17305 552.7655 12.55119z" stroke="none" fill="#000000" fill-rule="nonzero" /></g><g clip-path="url(#46)"><path id="972" transform="matrix(1 0 0 -1 0 842)" d="M142.4691 720.9106C 142.4691 720.6123 142.412 720.3253 142.2978 720.0496C 142.1836 719.7739 142.0211 719.5306 141.8101 719.3196C 141.5991 719.1087 141.3558 718.9461 141.0801 718.8319C 140.8045 718.7177 140.5175 718.6606 140.2191 718.6606C 139.9207 718.6606 139.6337 718.7177 139.358 718.8319C 139.0824 718.9461 138.8391 719.1087 138.6281 719.3196C 138.4171 719.5306 138.2545 719.7739 138.1404 720.0496C 138.0262 720.3253 137.9691 720.6123 137.9691 720.9106C 137.9691 721.209 138.0262 721.496 138.1404 721.7717C 138.2545 722.0474 138.4171 722.2906 138.6281 722.5016C 138.8391 722.7126 139.0824 722.8752 139.358 722.9894C 139.6337 723.1036 139.9207 723.1606 140.2191 723.1606C 140.5175 723.1606 140.8045 723.1036 141.0801 722.9894C 141.3558 722.8752 141.5991 722.7126 141.8101 722.5016C 142.0211 722.2906 142.1836 722.0474 142.2978 721.7717C 142.412 721.496 142.4691 721.209 142.4691 720.9106z" stroke="none" fill="#242424" fill-rule="nonzero" /><path id="1121" transform="matrix(1 0 0 -1 0 842)" d="M392.5271 717.044C 392.5271 716.7457 392.47 716.4586 392.3558 716.183C 392.2416 715.9073 392.0791 715.664 391.8681 715.453C 391.6571 715.2421 391.4138 715.0795 391.1381 714.9653C 390.8625 714.8511 390.5755 714.794 390.2771 714.794C 389.9787 714.794 389.6917 714.8511 389.416 714.9653C 389.1404 715.0795 388.8971 715.2421 388.6861 715.453C 388.4751 715.664 388.3126 715.9073 388.1984 716.183C 388.0842 716.4586 388.0271 716.7457 388.0271 717.044C 388.0271 717.3423 388.0842 717.6294 388.1984 717.905C 388.3126 718.1807 388.4751 718.424 388.6861 718.635C 388.8971 718.8459 389.1404 719.0085 389.416 719.1227C 389.6917 719.2369 389.9787 719.294 390.2771 719.294C 390.5755 719.294 390.8625 719.2369 391.1381 719.1227C 391.4138 719.0085 391.6571 718.8459 391.8681 718.635C 392.0791 718.424 392.2416 718.1807 392.3558 717.905C 392.47 717.6294 392.5271 717.3423 392.5271 717.044z" stroke="none" fill="#242424" fill-rule="nonzero" /></g></g></g></svg>