<svg xmlns="http://www.w3.org/2000/svg" xmlns:xlink="http://www.w3.org/1999/xlink" id="body_1" preserveAspectRatio="xMinYMin meet" viewBox="0 0 793 1123"><defs><clipPath id="1"><path id="" clip-rule="evenodd" transform="matrix(1 0 0 1 0 0)" d="M0 842L0 -0.25L0 -0.25L595.5 -0.25L595.5 -0.25L595.5 842L595.5 842L0 842z" /></clipPath><clipPath id="2"><path id="" clip-rule="evenodd" transform="matrix(1 0 0 1 0 0)" d="M0 -0.249939L595.5 -0.249939L595.5 -0.249939L595.5 842.0001L595.5 842.0001L0 842.0001z" /></clipPath><clipPath id="3"><path id="" clip-rule="evenodd" transform="matrix(1 0 0 1 0 0)" d="M0 -0.249939L595.5 -0.249939L595.5 -0.249939L595.5 842.0001L595.5 842.0001L0 842.0001z" /></clipPath><clipPath id="4"><path id="" clip-rule="evenodd" transform="matrix(1 0 0 1 0 0)" d="M0 -0.249939L595.5 -0.249939L595.5 -0.249939L595.5 842.0001L595.5 842.0001L0 842.0001z" /></clipPath><clipPath id="5"><path id="" clip-rule="evenodd" transform="matrix(1 0 0 1 0 0)" d="M63.12 30.71008L506.64 30.71008L506.64 30.71008L506.64 810.9501L506.64 810.9501L63.12 810.9501z" /></clipPath><clipPath id="6"><path id="" clip-rule="evenodd" transform="matrix(1 0 0 1 0 0)" d="M63.90158 30.75183L506.4016 30.75183L506.4016 30.75183L506.4016 810.7518L506.4016 810.7518L63.90158 810.7518z" /></clipPath><clipPath id="7"><path id="" clip-rule="evenodd" transform="matrix(1 0 0 1 0 0)" d="M487.7199 14.24402L581.47 14.24402L581.47 14.24402L581.47 67.49402L581.47 67.49402L487.7199 67.49402z" /></clipPath><clipPath id="8"><path id="" clip-rule="evenodd" transform="matrix(1 0 0 1 0 0)" d="M0 -0.249939L595.5 -0.249939L595.5 -0.249939L595.5 842.0001L595.5 842.0001L0 842.0001z" /></clipPath><clipPath id="9"><path id="" clip-rule="evenodd" transform="matrix(1 0 0 1 0 0)" d="M0 -0.249939L595.5 -0.249939L595.5 -0.249939L595.5 842.0001L595.5 842.0001L0 842.0001z" /></clipPath><clipPath id="10"><path id="" clip-rule="evenodd" transform="matrix(1 0 0 1 0 0)" d="M76.34509 320.9094L519.5951 320.9094L519.5951 320.9094L519.5951 655.4094L519.5951 655.4094L76.34509 655.4094z" /></clipPath><clipPath id="11"><path id="" clip-rule="evenodd" transform="matrix(1 0 0 1 0 0)" d="M76.34509 370.4094L76.34509 605.7177C 76.34509 633.0558 98.50699 655.2177 125.8451 655.2177L125.8451 655.2177L469.4305 655.2177C 496.7686 655.2177 518.9305 633.0558 518.9305 605.7177L518.9305 605.7177L518.9305 370.4094C 518.9305 343.0714 496.7686 320.9094 469.4305 320.9094L469.4305 320.9094L125.8451 320.9094C 98.50699 320.9094 76.34509 343.0714 76.34509 370.4094z" /></clipPath><clipPath id="12"><path id="" clip-rule="evenodd" transform="matrix(1 0 0 1 0 0)" d="M76.34509 320.9094L518.8451 320.9094L518.8451 320.9094L518.8451 655.4094L518.8451 655.4094L76.34509 655.4094z" /></clipPath><clipPath id="13"><path id="" clip-rule="evenodd" transform="matrix(1 0 0 1 0 0)" d="M0 -0.249939L595.5 -0.249939L595.5 -0.249939L595.5 842.0001L595.5 842.0001L0 842.0001z" /></clipPath><clipPath id="14"><path id="" clip-rule="evenodd" transform="matrix(1 0 0 1 0 0)" d="M0 -0.249939L595.5 -0.249939L595.5 -0.249939L595.5 842.0001L595.5 842.0001L0 842.0001z" /></clipPath><clipPath id="15"><path id="" clip-rule="evenodd" transform="matrix(1 0 0 1 0 0)" d="M0 -0.249939L595.5 -0.249939L595.5 -0.249939L595.5 842.0001L595.5 842.0001L0 842.0001z" /></clipPath><clipPath id="16"><path id="" clip-rule="evenodd" transform="matrix(1 0 0 1 0 0)" d="M197.1388 713.7177L398.3093 713.7177L398.3093 713.7177L398.3093 765.1146L398.3093 765.1146L197.1388 765.1146z" /></clipPath><clipPath id="17"><path id="" clip-rule="evenodd" transform="matrix(1 0 0 1 0 0)" d="M222.6388 713.7177L372.6367 713.7177C 386.72 713.7177 398.1367 725.1345 398.1367 739.2177L398.1367 739.2177L398.1367 739.6146C 398.1367 753.6978 386.72 765.1146 372.6367 765.1146L372.6367 765.1146L222.6388 765.1146C 208.5555 765.1146 197.1388 753.6978 197.1388 739.6146L197.1388 739.6146L197.1388 739.2177C 197.1388 725.1345 208.5555 713.7177 222.6388 713.7177z" /></clipPath><clipPath id="18"><path id="" clip-rule="evenodd" transform="matrix(1 0 0 1 0 0)" d="M0 -0.249939L595.5 -0.249939L595.5 -0.249939L595.5 842.0001L595.5 842.0001L0 842.0001z" /></clipPath><clipPath id="19"><path id="" clip-rule="evenodd" transform="matrix(1 0 0 1 0 0)" d="M0 -0.249939L595.5 -0.249939L595.5 -0.249939L595.5 842.0001L595.5 842.0001L0 842.0001z" /></clipPath><clipPath id="20"><path id="" clip-rule="evenodd" transform="matrix(1 0 0 1 0 0)" d="M197.1388 713.7177L398.1388 713.7177L398.1388 713.7177L398.1388 765.4677L398.1388 765.4677L197.1388 765.4677z" /></clipPath><clipPath id="21"><path id="" clip-rule="evenodd" transform="matrix(1 0 0 1 0 0)" d="M197.1537 713.7177L400.8094 713.7177L400.8094 713.7177L400.8094 766.724L400.8094 766.724L197.1537 766.724z" /></clipPath><clipPath id="22"><path id="" clip-rule="evenodd" transform="matrix(1 0 0 1 0 0)" d="M222.6487 713.7177L372.6172 713.7177C 386.6976 713.7177 398.1121 725.1322 398.1121 739.2126L398.1121 739.2126L398.1121 739.6094C 398.1121 753.6899 386.6976 765.1044 372.6172 765.1044L372.6172 765.1044L222.6487 765.1044C 208.5682 765.1044 197.1537 753.6899 197.1537 739.6094L197.1537 739.6094L197.1537 739.2126C 197.1537 725.1322 208.5682 713.7177 222.6487 713.7177z" /></clipPath><clipPath id="23"><path id="" clip-rule="evenodd" transform="matrix(1 0 0 1 0 0)" d="M360.7008 748.4278L395.2008 748.4278L395.2008 748.4278L395.2008 799.4278L395.2008 799.4278L360.7008 799.4278z" /></clipPath><clipPath id="24"><path id="" clip-rule="evenodd" transform="matrix(1 0 0 1 0 0)" d="M0 -0.249939L595.5 -0.249939L595.5 -0.249939L595.5 842.0001L595.5 842.0001L0 842.0001z" /></clipPath></defs><g transform="matrix(1.333333 0 0 1.333333 0 0)"><g clip-path="url(#1)"><g clip-path="url(#2)"><path id="1" transform="matrix(1 0 0 -1 0 842)" d="M0 842.2499L595.4999 842.2499L595.4999 -6.103516E-05L0 -6.103516E-05z" stroke="none" fill="#FFFFFF" fill-rule="nonzero" /></g><g clip-path="url(#3)"><path id="2" transform="matrix(1 0 0 -1 0 842)" d="M0 842.2499L595.4999 842.2499L595.4999 -6.103516E-05L0 -6.103516E-05z" stroke="none" fill="#FFFFFF" fill-rule="nonzero" /></g><g clip-path="url(#4)"><g><g clip-path="url(#5)"><g clip-path="url(#6)"><g transform="matrix(0 0.5128205 -0.5127462 0 506.4016 30.75189)"><g transform="matrix(1 0 0 1 0 0)"><image x="0" y="0" xlink:href="img_01.png" width="1521" height="863" /></g></g></g></g></g></g><g clip-path="url(#7)"><g transform="matrix(0.06163707 0 0 0.06170335 487.7199 14.24402)"><g transform="matrix(1 0 0 1 0 0)"><image x="0" y="0" xlink:href="img_02.png" width="1521" height="863" /></g></g></g><g clip-path="url(#8)"><g clip-path="url(#9)"><g clip-path="url(#10)"><g clip-path="url(#11)"><g clip-path="url(#12)"><g transform="matrix(0.4804687 0 0 0.4806034 51.82287 320.9094)"><g transform="matrix(1 0 0 1 0 0)"><image x="0" y="0" xlink:href="img_03.png" width="1024" height="696" /></g></g></g></g></g></g></g><g clip-path="url(#13)"></g><g clip-path="url(#14)"><g clip-path="url(#15)"><g clip-path="url(#16)"><g clip-path="url(#17)"><path id="278" transform="matrix(1 0 0 -1 0 842)" d="M197.1388 128.2823L398.1085 128.2823L398.1085 76.88544L197.1388 76.88544z" stroke="none" fill="#7ED957" fill-rule="nonzero" /></g></g></g></g><g clip-path="url(#18)"><g clip-path="url(#19)"><g clip-path="url(#20)"><g clip-path="url(#21)"><g clip-path="url(#22)"><path id="279" transform="matrix(1 0 0 -1 0 842)" d="M222.6487 128.2823L372.6171 128.2823C 386.6976 128.2823 398.1121 116.8678 398.1121 102.7873L398.1121 102.7873L398.1121 102.3905C 398.1121 88.31004 386.6976 76.89557 372.6171 76.89557L372.6171 76.89557L222.6487 76.89557C 208.5682 76.89557 197.1537 88.31004 197.1537 102.3905L197.1537 102.3905L197.1537 102.7873C 197.1537 116.8678 208.5682 128.2823 222.6487 128.2823z" stroke="#000000" stroke-width="1.5" fill="none" /></g></g></g></g></g><g clip-path="url(#23)"><path id="280" transform="matrix(1 0 0 -1 0 842)" d="M380.9055 82.03185C 380.7985 82.52479 381.1111 83.01144 381.6043 83.11842L381.6043 83.11842L385.9 84.05396C 386.3932 84.16093 386.88 83.84839 386.9871 83.35545C 387.0941 82.8625 386.7814 82.37585 386.2883 82.26888L386.2883 82.26888L381.9926 81.33334C 381.4994 81.22426 381.0125 81.5389 380.9055 82.03185zM377.8228 86.43056C 377.3947 86.69906 377.2645 87.26122 377.5331 87.68913L377.5331 87.68913L379.8688 91.41241C 380.1375 91.84033 380.6998 91.97038 381.128 91.70189C 381.5561 91.4334 381.6862 90.87123 381.4175 90.44331L381.4175 90.44331L379.084 86.72003C 378.8154 86.29211 378.2509 86.16206 377.8228 86.43056zM366.8873 78.7134C 366.9943 78.22046 366.6816 77.73381 366.1884 77.62683L366.1884 77.62683L361.8927 76.69129C 361.3996 76.58431 360.9127 76.89686 360.8057 77.3898C 360.6987 77.88274 361.0114 78.36939 361.5045 78.47637L361.5045 78.47637L365.8002 79.41191C 366.2934 79.51889 366.7802 79.20634 366.8873 78.7134zM367.7498 84.26582C 367.4811 83.8379 366.9187 83.70785 366.4906 83.97634L366.4906 83.97634L362.7636 86.311C 362.3355 86.57949 362.2054 87.14165 362.474 87.56957C 362.7426 87.99748 363.3051 88.12754 363.7332 87.85904L363.7332 87.85904L367.4581 85.52648C 367.8882 85.25799 368.0163 84.69373 367.7498 84.26582zM372.3456 87.38498C 371.8524 87.278 371.3655 87.59055 371.2585 88.08349L371.2585 88.08349L370.3246 92.37733C 370.2177 92.87027 370.5303 93.35692 371.0235 93.4639C 371.5166 93.57088 372.0035 93.25832 372.1105 92.76539L372.1105 92.76539L373.0465 88.47155C 373.1514 87.97861 372.8387 87.49196 372.3456 87.38498zM393.8178 49.06348C 393.2701 46.87147 391.5157 44.96682 389.3878 44.20749C 388.1643 43.77118 386.8402 43.68518 385.5517 43.70406C 384.1855 43.72293 382.8173 43.83201 381.4532 43.91172C 380.7607 43.95158 380.0682 43.99353 379.3778 44.03968C 378.7251 44.08373 378.0662 44.09632 377.4156 44.15924C 376.8973 44.20959 376.4083 44.34384 375.9991 44.67945C 375.5584 45.04025 375.1765 45.48494 374.7736 45.88768C 372.8135 47.84687 370.8535 49.80605 368.8935 51.76523C 367.1496 53.50835 365.4057 55.25148 363.6618 56.9946C 363.431 57.22535 363.2043 57.44559 363.0364 57.73087C 362.814 58.11054 362.7028 58.54265 362.707 58.98315C 362.7175 59.92289 363.3156 60.86472 364.2284 61.16258C 364.7761 61.34298 365.37 61.32829 365.9052 61.11224C 366.1821 61.00106 366.4424 60.82486 366.7005 60.67593C 366.9628 60.5249 367.2251 60.37387 367.4874 60.22075C 368.5346 59.61663 369.5797 59.01252 370.6269 58.4084C 370.7108 58.36016 370.7947 58.31191 370.8787 58.26366C 371.2228 58.06439 371.6677 58.3182 371.6677 58.71675C 371.6677 59.22647 371.6677 59.7362 371.6677 60.24592C 371.6677 61.52547 371.6677 62.80712 371.6677 64.08667C 371.6677 65.76477 371.6677 67.44496 371.6677 69.12306C 371.6677 70.82843 371.6677 72.5338 371.6677 74.23707C 371.6677 75.59003 371.6677 76.94301 371.6677 78.29597C 371.6677 78.93994 371.6656 79.58392 371.6677 80.22788C 371.6719 80.99771 372.0098 81.72768 372.631 82.19336C 373.6068 82.92123 375.0023 82.79118 375.8375 81.91018C 376.3328 81.38787 376.4881 80.73132 376.4881 80.0349C 376.4881 79.54826 376.4881 79.06161 376.4881 78.57496C 376.4881 76.92832 376.4881 75.28168 376.4881 73.63715C 376.4881 72.39326 376.4881 71.14937 376.4881 69.90547C 376.4881 69.84045 376.4881 69.77333 376.4881 69.7083C 376.4881 69.03287 377.529 69.03287 377.5374 69.7083C 377.5562 71.25845 379.0399 72.4457 380.5613 72.04086C 381.3965 71.81851 382.0576 71.15776 382.278 70.325C 382.3997 69.86772 382.3577 69.36639 382.3577 68.89862C 382.3577 68.42245 382.3577 67.94839 382.3577 67.47223C 382.3577 66.7968 383.3986 66.7968 383.407 67.47223C 383.4258 69.02448 384.9095 70.20334 386.433 69.80269C 387.2662 69.58244 387.9293 68.9175 388.1497 68.08684C 388.2693 67.64005 388.2273 67.15549 388.2273 66.69821C 388.2273 66.21785 388.2273 65.7375 388.2273 65.25714C 388.2273 64.5817 389.2682 64.5817 389.2766 65.25714C 389.2913 66.45068 390.1873 67.51418 391.394 67.65263C 392.8273 67.81624 394.0759 66.68771 394.0969 65.25714C 394.0969 62.50925 394.0969 59.76346 394.0969 57.01558C 394.0969 55.60807 394.0969 54.19847 394.0969 52.79096C 394.099 51.54288 394.1221 50.27801 393.8178 49.06348zM395.1483 54.41033C 395.1483 57.30925 395.1483 60.20607 395.1483 63.10498C 395.1483 63.82027 395.1483 64.53766 395.1483 65.25294C 395.1252 66.7968 394.0927 68.19382 392.5818 68.59447C 391.3898 68.9091 390.1244 68.55251 389.2619 67.70717C 389.2409 68.00713 389.1926 68.30709 389.0898 68.59656C 388.7058 69.66635 387.8202 70.51588 386.7143 70.80956C 385.7468 71.06547 384.6619 70.88927 383.8456 70.30403C 383.684 70.18866 383.535 70.0607 383.3965 69.92226C 383.3755 70.23061 383.3272 70.53687 383.2223 70.83472C 382.8425 71.89403 381.9778 72.73098 380.8866 73.03723C 379.9087 73.30992 378.8049 73.13372 377.978 72.54219C 377.8228 72.43102 377.6779 72.30726 377.5436 72.17511C 377.5436 72.30096 377.5436 72.42473 377.5436 72.55058C 377.5436 74.27274 377.5436 75.99488 377.5436 77.71494C 377.5436 78.35261 377.5436 78.98819 377.5436 79.62587C 377.5436 80.0433 377.5541 80.45233 377.487 80.86556C 377.2436 82.38425 375.9299 83.52955 374.4273 83.69526C 373.122 83.84 371.8188 83.17295 371.1326 82.06121C 370.5996 81.19699 370.6248 80.27193 370.6248 79.31123C 370.6248 78.14285 370.6248 76.97237 370.6248 75.804C 370.6248 74.13219 370.6248 72.46039 370.6248 70.79068C 370.6248 69.02238 370.6248 67.25408 370.6248 65.48369C 370.6248 64.02374 370.6248 62.56589 370.6248 61.10595C 370.6248 60.613 370.6164 60.11587 370.6164 59.62292C 369.949 60.00888 369.2796 60.39485 368.6122 60.77871C 368.2513 60.98638 367.8904 61.19614 367.5273 61.4038C 366.9355 61.74572 366.3521 62.13588 365.6701 62.26173C 364.3354 62.50715 363.028 61.98904 362.2558 60.87101C 361.6451 59.99001 361.494 58.78597 361.8654 57.77911C 362.153 57.00089 362.7007 56.47019 363.2715 55.89964C 364.2578 54.91375 365.2462 53.92577 366.2325 52.93989C 368.2975 50.87582 370.3604 48.81386 372.4253 46.7498C 372.9395 46.23588 373.4515 45.72406 373.9656 45.21014C 374.3937 44.78223 374.8008 44.31865 375.2646 43.92849C 375.7452 43.52575 376.2803 43.27194 376.8994 43.16916C 377.5835 43.05589 378.2802 43.05798 378.9706 43.00974C 380.4229 42.90905 381.8771 42.82725 383.3314 42.74754C 384.7311 42.66993 386.133 42.57343 387.5306 42.73285C 388.8737 42.88597 390.1601 43.24677 391.3038 43.98093C 392.3321 44.64169 393.205 45.52479 393.864 46.55262C 394.5859 47.67905 394.9489 48.92923 395.079 50.25283C 395.2071 51.63517 395.1483 53.03219 395.1483 54.41033z" stroke="none" fill="#000000" fill-rule="nonzero" /></g><g clip-path="url(#24)"></g></g></g></svg>