<svg xmlns="http://www.w3.org/2000/svg" xmlns:xlink="http://www.w3.org/1999/xlink" id="body_1" preserveAspectRatio="xMinYMin meet" viewBox="0 0 793 1123"><defs><clipPath id="1"><path id="" clip-rule="evenodd" transform="matrix(1 0 0 1 0 0)" d="M0 842L0 -0.250061L0 -0.250061L595.5 -0.250061L595.5 -0.250061L595.5 842L595.5 842L0 842z" /></clipPath><clipPath id="2"><path id="" clip-rule="evenodd" transform="matrix(1 0 0 1 0 0)" d="M0 -0.25L595.5 -0.25L595.5 -0.25L595.5 842.0012L595.5 842.0012L0 842.0012z" /></clipPath><clipPath id="3"><path id="" clip-rule="evenodd" transform="matrix(1 0 0 1 0 0)" d="M0 -0.25L595.5 -0.25L595.5 -0.25L595.5 842.0012L595.5 842.0012L0 842.0012z" /></clipPath><clipPath id="4"><path id="" clip-rule="evenodd" transform="matrix(1 0 0 1 0 0)" d="M0 -0.25L595.5 -0.25L595.5 -0.25L595.5 842.0012L595.5 842.0012L0 842.0012z" /></clipPath><clipPath id="5"><path id="" clip-rule="evenodd" transform="matrix(1 0 0 1 0 0)" d="M78.71999 30.71002L522.24 30.71002L522.24 30.71002L522.24 810.95L522.24 810.95L78.71999 810.95z" /></clipPath><clipPath id="6"><path id="" clip-rule="evenodd" transform="matrix(1 0 0 1 0 0)" d="M79.51786 30.75177L522.0178 30.75177L522.0178 30.75177L522.0178 810.7518L522.0178 810.7518L79.51786 810.7518z" /></clipPath><clipPath id="7"><path id="" clip-rule="evenodd" transform="matrix(1 0 0 1 0 0)" d="M0 -0.25L595.5 -0.25L595.5 -0.25L595.5 842.0012L595.5 842.0012L0 842.0012z" /></clipPath><clipPath id="8"><path id="" clip-rule="evenodd" transform="matrix(1 0 0 1 0 0)" d="M0 -0.25L595.5 -0.25L595.5 -0.25L595.5 842.0012L595.5 842.0012L0 842.0012z" /></clipPath><clipPath id="9"><path id="" clip-rule="evenodd" transform="matrix(1 0 0 1 0 0)" d="M297.6384 524.198L726.5256 524.198L726.5256 524.198L726.5256 952.2283L726.5256 952.2283L297.6384 952.2283z" /></clipPath><clipPath id="10"><path id="" clip-rule="evenodd" transform="matrix(1 0 0 1 0 0)" d="M725.6711 738.218C 725.6711 856.4108 629.8511 952.2308 511.6536 952.2308C 393.456 952.2308 297.6384 856.4108 297.6384 738.218C 297.6384 620.0179 393.456 524.198 511.6536 524.198C 629.8511 524.198 725.6711 620.0179 725.6711 738.218z" /></clipPath><clipPath id="11"><path id="" clip-rule="evenodd" transform="matrix(1 0 0 1 0 0)" d="M297.6384 524.198L725.6688 524.198L725.6688 524.198L725.6688 952.2283L725.6688 952.2283L297.6384 952.2283z" /></clipPath><clipPath id="12"><path id="" clip-rule="evenodd" transform="matrix(1 0 0 1 0 0)" d="M0 771.2635L595.5 771.2635L595.5 771.2635L595.5 842.0009L595.5 842.0009L0 842.0009z" /></clipPath><clipPath id="13"><path id="" clip-rule="evenodd" transform="matrix(1 0 0 1 0 0)" d="M0 524.2004L148.0152 524.2004L148.0152 524.2004L148.0152 837.7004L148.0152 837.7004L0 837.7004z" /></clipPath><clipPath id="14"><path id="" clip-rule="evenodd" transform="matrix(1 0 0 1 0 0)" d="M510.3696 17.90552L595.5002 17.90552L595.5002 17.90552L595.5002 199.0539L595.5002 199.0539L510.3696 199.0539z" /></clipPath><clipPath id="15"><path id="" clip-rule="evenodd" transform="matrix(1 0 0 1 0 0)" d="M0 -0.25L595.5 -0.25L595.5 -0.25L595.5 842.0012L595.5 842.0012L0 842.0012z" /></clipPath><clipPath id="16"><path id="" clip-rule="evenodd" transform="matrix(1 0 0 1 0 0)" d="M0 -0.25L595.5 -0.25L595.5 -0.25L595.5 842.0012L595.5 842.0012L0 842.0012z" /></clipPath><clipPath id="17"><path id="" clip-rule="evenodd" transform="matrix(1 0 0 1 0 0)" d="M-84.89327 -85.14325L84.89327 -85.14325L84.89327 -85.14325L84.89327 84.64325L84.89327 84.64325L-84.89327 84.64325z" /></clipPath><clipPath id="18"><path id="" clip-rule="evenodd" transform="matrix(1 0 0 1 0 0)" d="M0 -85.14325C -46.8852 -85.14325 -84.89327 -47.13519 -84.89327 -0.25C -84.89327 46.63519 -46.8852 84.64325 0 84.64325C 46.8852 84.64325 84.89327 46.63519 84.89327 -0.25C 84.89327 -47.13519 46.8852 -85.14325 0 -85.14325z" /></clipPath><clipPath id="19"><path id="" clip-rule="evenodd" transform="matrix(1 0 0 1 0 0)" d="M0 -0.25L595.5 -0.25L595.5 -0.25L595.5 842.0012L595.5 842.0012L0 842.0012z" /></clipPath><clipPath id="20"><path id="" clip-rule="evenodd" transform="matrix(1 0 0 1 0 0)" d="M192.1219 46.8512L409.6219 46.8512L409.6219 46.8512L409.6219 169.8512L409.6219 169.8512L192.1219 169.8512z" /></clipPath></defs><g transform="matrix(1.333333 0 0 1.333333 0 0)"><g clip-path="url(#1)"><g clip-path="url(#2)"><path id="1" transform="matrix(1 0 0 -1 0 842)" d="M0 842.25L595.4999 842.25L595.4999 0L0 0z" stroke="none" fill="#FFFFFF" fill-rule="nonzero" /></g><g clip-path="url(#3)"><path id="2" transform="matrix(1 0 0 -1 0 842)" d="M0 842.25L595.4999 842.25L595.4999 0L0 0z" stroke="none" fill="#FFFFFF" fill-rule="nonzero" /></g><g clip-path="url(#4)"><g><g clip-path="url(#5)"><g clip-path="url(#6)"><g transform="matrix(0 0.975 -0.9768211 0 522.0178 30.75183)"><g transform="matrix(1 0 0 1 0 0)"><image x="0" y="0" xlink:href="img_01.png" width="800" height="453" /></g></g></g></g></g></g><g clip-path="url(#7)"><g clip-path="url(#8)"><g clip-path="url(#9)"><g clip-path="url(#10)"><g clip-path="url(#11)"><g transform="matrix(0.63695 0 0 0.6367203 297.6384 520.694)"><g transform="matrix(1 0 0 1 0 0)"><image x="0" y="0" xlink:href="img_02.png" width="672" height="683" /></g></g></g></g></g></g></g><g clip-path="url(#12)"><path id="5" transform="matrix(1 0 0 -1 0 842)" d="M-10.46635 70.73644L599.8516 70.73644L599.8516 -8.014275L-10.46635 -8.014275z" stroke="none" fill="#1D70B7" fill-rule="nonzero" /></g><g clip-path="url(#13)"><path id="6" transform="matrix(1 0 0 -1 0 842)" d="M-5.853806 10.53641C 14.0406 10.67969 33.87684 14.72351 52.14832 22.46295C 70.4285 30.17639 87.12396 41.53244 101.0217 55.61945C 114.9176 69.70903 126.0054 86.52 133.4262 104.8045C 140.8739 123.0821 144.6051 142.8098 144.4766 162.494C 144.3333 182.1801 140.3312 201.7992 132.6742 219.8719C 125.0433 237.954 113.8079 254.4698 99.87025 268.2181C 85.93001 281.9638 69.2988 292.9309 51.21226 300.2701C 33.13267 307.6353 13.62207 311.3239 -5.853806 311.1963C -25.33055 311.0522 -44.73262 307.0926 -62.60814 299.5181C -80.4915 291.9697 -96.82835 280.855 -110.4265 267.0667C -124.0228 253.2758 -134.8692 236.8243 -142.1259 218.9366C -149.4086 201.055 -153.0556 181.7607 -152.928 162.494C -152.7838 143.2257 -148.8659 124.0407 -141.3739 106.3632C -133.9071 88.6778 -122.914 72.52158 -109.275 59.07281C -95.63438 45.62579 -79.36179 34.90097 -61.67296 27.72592C -43.98932 20.52573 -24.912 16.92126 -5.853806 17.04803L-5.853806 17.04803L-5.853806 10.53641zM-5.853806 4.023895C -26.58356 4.165436 -47.28726 8.377716 -66.34981 16.44714C -85.42365 24.4888 -102.8381 36.32852 -117.3341 51.01468C -131.8291 65.70256 -143.3997 83.23248 -151.1496 102.3107C -158.9273 121.3793 -162.827 141.9753 -162.6967 162.4949C -162.5552 183.0163 -158.3846 203.5029 -150.3976 222.3674C -142.4376 241.2433 -130.7194 258.4771 -116.1827 272.8238C -101.6441 287.1686 -84.29395 298.6185 -65.4146 306.2867C -46.54309 313.9819 -26.16502 317.8391 -5.853806 317.7097C 14.45827 317.5673 34.72866 313.4392 53.39525 305.5348C 72.07226 297.6573 89.12721 286.0598 103.3236 271.6732C 117.5191 257.284 128.8483 240.1145 136.4332 221.4323C 144.0459 202.7596 147.8614 182.5977 147.732 162.4949C 147.5896 142.3912 143.5032 122.3388 135.6812 103.8693C 127.8862 85.3903 116.4094 68.51508 102.1722 54.46802C 87.93239 40.42273 70.94255 29.21426 52.45919 21.71097C 33.9845 14.18079 14.03886 10.40787 -5.854675 10.53641L-5.854675 10.53641L-5.854675 4.023895L-5.854675 4.023895L-5.853806 4.023895zM-5.853806 32.24475C 11.19855 32.38629 28.19358 35.87265 43.8401 42.52148C 59.49443 49.14777 73.78374 58.89218 85.67211 70.96985C 97.55875 83.05014 107.034 97.45493 113.3685 113.1136C 119.7256 128.7662 122.8985 145.6527 122.7691 162.4949C 122.6267 179.3389 119.1829 196.116 112.6165 211.5645C 106.0728 227.0208 96.44901 241.1304 84.5207 252.8686C 72.59065 264.605 58.3656 273.9604 42.90491 280.2124C 27.45029 286.487 10.78087 289.6173 -5.852951 289.4888C -22.48763 289.3464 -39.04849 285.9443 -54.29906 279.4604C -69.55655 272.9983 -83.48724 263.4961 -95.07516 251.7171C -106.6622 239.9365 -115.8961 225.8911 -122.0665 210.6293C -128.2586 195.3727 -131.3472 178.9203 -131.2187 162.4949C -131.0755 146.0686 -127.7159 129.7249 -121.3145 114.6723C -114.9349 99.61273 -105.5525 85.86266 -93.92377 74.42323C -82.2924 62.98639 -68.42686 53.87238 -53.36299 47.78445C -38.30434 41.67487 -22.06822 38.62875 -5.852066 38.75638L-5.852066 38.75638L-5.852066 32.24475L-5.852066 32.24475L-5.853806 32.24475zM-5.853806 25.73224C -23.7415 25.87289 -41.604 29.52686 -58.04156 36.50568C -74.48956 43.46103 -89.49785 53.68829 -101.9836 66.3651C -114.4686 79.04362 -124.4284 94.16655 -131.0911 110.6189C -137.7781 127.0625 -141.1186 144.8174 -140.9884 162.4949C -140.8477 180.1742 -137.2354 197.8196 -130.3391 214.0592C -123.4662 230.3084 -113.3597 245.1369 -100.8322 257.4733C -88.30302 269.8089 -73.35986 279.6471 -57.1055 286.2282C -40.85983 292.8328 -23.3221 296.1316 -5.852951 296.0013C 11.61708 295.8598 29.04542 292.2901 45.0879 285.4763C 61.13906 278.6859 75.78786 268.7 87.97493 256.3228C 100.1611 243.9438 109.8787 229.1795 116.3764 213.124C 122.8985 197.0755 126.1547 179.7557 126.0253 162.4949C 125.8838 145.2333 122.3558 128.022 115.6244 112.1775C 108.9157 96.32523 99.05054 81.8553 86.82352 69.81845C 74.5939 57.78247 60.00935 48.18564 44.1527 41.7695C 28.30212 35.32996 11.19855 32.11536 -5.852951 32.24475L-5.852951 32.24475L-5.852951 25.73224L-5.852951 25.73224L-5.853806 25.73224zM-5.853806 53.95313C 8.356476 54.09378 22.50947 57.02182 35.53188 62.58002C 48.56037 68.11913 60.44352 76.25194 70.32169 86.32028C 80.19813 96.39035 88.06264 108.389 93.30998 121.4218C 98.57643 134.4494 101.1901 148.4948 101.0607 162.4949C 100.9192 176.4968 98.03372 190.4327 92.558 203.2563C 87.10052 216.0859 79.08927 227.7902 69.17029 237.5181C 59.24957 247.2452 47.43066 254.989 34.59668 260.1539C 21.76704 265.3378 7.938812 267.9099 -5.852951 267.7805C -19.64555 267.6389 -33.36525 264.7951 -45.99083 259.4019C -58.6225 254.0269 -70.14703 246.1355 -79.72562 236.3667C -89.30334 226.5954 -96.9256 214.9562 -102.0088 202.3202C -107.1103 189.6886 -109.6398 176.0774 -109.5112 162.494C -109.3688 148.9098 -106.5676 135.4081 -101.2568 122.9796C -95.96436 110.5459 -88.19363 99.20203 -78.57509 89.77278C -68.95393 80.34528 -57.49365 72.84286 -45.0565 67.843C -32.62282 62.82402 -19.22791 60.33621 -5.853806 60.46475L-5.853806 60.46475L-5.853806 53.95313L-5.853806 53.95313L-5.853806 53.95313zM-5.853806 47.44061C -20.89943 47.57956 -35.92076 50.67599 -49.73335 56.56418C -63.5555 62.43239 -76.15678 71.04802 -86.63324 81.71548C -97.10881 92.38385 -105.4561 105.1015 -111.0326 118.928C -116.629 132.7475 -119.4111 147.6603 -119.28 162.4958C -119.1402 177.333 -116.0863 192.1364 -110.2806 205.7519C -104.4949 219.3752 -95.99995 231.7975 -85.48181 242.1246C -74.96281 252.4509 -62.42493 260.6775 -48.79729 266.1714C -35.17574 271.6854 -20.48004 274.4258 -5.852951 274.2947C 8.775024 274.1549 23.36217 271.1426 36.77968 265.4195C 50.20499 259.7154 62.44764 251.342 72.62452 240.9741C 82.80053 230.6045 90.90643 218.2472 96.31789 204.8175C 101.7493 191.394 104.4472 176.9153 104.317 162.4967C 104.1763 148.0771 101.2066 133.707 95.56591 120.4875C 89.94432 107.261 81.6908 95.19812 71.47311 85.16975C 61.25281 75.14307 49.07529 67.15788 35.84361 61.82892C 22.61801 56.47998 8.356476 53.82373 -5.853806 53.95398L-5.853806 53.95398L-5.853806 47.44061zM-5.853806 75.66148C 5.51442 75.80128 16.82622 78.1701 27.22366 82.63766C 37.6263 87.09048 47.1033 93.61081 54.97128 101.6698C 62.83839 109.7306 69.09126 119.3231 73.25146 129.7292C 77.42728 140.1318 79.48263 151.336 79.35151 162.494C 79.21083 173.6539 76.8837 184.7486 72.49948 194.9472C 68.12915 205.151 61.72953 214.4491 53.81987 222.1677C 45.90934 229.8855 36.4966 236.0168 26.28759 240.0954C 16.08205 244.1887 5.095886 246.2024 -5.853806 246.0712C -16.80438 245.9306 -27.68199 243.6451 -37.68347 239.3434C -47.68929 235.0555 -56.80681 228.7758 -64.37607 221.0163C -71.94362 213.2551 -77.95508 204.0222 -81.95117 194.012C -85.96201 184.0044 -87.93311 173.2354 -87.80287 162.494C -87.66133 151.7519 -85.41843 141.0913 -81.19917 131.2879C -76.99297 121.4809 -70.83475 112.5422 -63.22552 105.1232C -55.61372 97.70502 -46.56046 91.81509 -36.74915 87.90065C -26.93958 83.97229 -16.3867 82.04286 -5.854675 82.17311L-5.854675 82.17311L-5.854675 75.66148L-5.854675 75.66148L-5.853806 75.66148zM-5.853806 69.14897C -18.05737 69.28703 -30.23663 71.8243 -41.42513 76.62184C -52.62144 81.40291 -62.81654 88.40689 -71.28368 97.06505C -79.74994 105.7241 -86.48561 116.0347 -90.9749 127.2353C -95.48068 138.4299 -97.7045 150.5015 -97.57162 162.4949C -97.43269 174.4901 -94.93799 186.4523 -90.2229 197.4428C -85.52348 208.4402 -78.64108 218.4565 -70.13226 226.7734C -61.62259 235.0903 -51.49173 241.7044 -40.48993 246.112C -29.49335 250.5353 -17.63885 252.7175 -5.853806 252.5846C 5.932098 252.4457 17.67804 249.9926 28.47057 245.3601C 39.27006 240.7431 49.10655 233.9805 57.27323 225.6228C 65.43992 217.2634 71.9342 207.3114 76.2585 196.5076C 80.5993 185.709 82.73888 174.0715 82.6069 162.4949C 82.46709 150.9174 80.05659 139.3894 75.50652 128.794C 70.97208 118.1934 64.33018 108.5366 56.12183 100.5184C 47.91172 92.50108 38.13949 86.12837 27.53452 81.8857C 16.93388 77.6274 5.513565 75.52948 -5.854675 75.66148L-5.854675 75.66148L-5.854675 69.14897L-5.854675 69.14897L-5.853806 69.14897zM-5.853806 97.36984C 2.672363 97.50877 11.14297 99.31924 18.91542 102.6962C 26.69224 106.0619 33.76308 110.9706 39.62173 117.0202C 45.47952 123.0708 50.1199 130.2571 53.1938 138.0383C 56.27899 145.8168 57.776 154.1789 57.64401 162.4949C 57.50507 170.8127 55.73628 179.0653 52.44182 186.6398C 49.15865 194.2178 44.36978 201.1097 38.47032 206.8182C 32.56911 212.5266 25.56252 217.0463 17.98024 220.0377C 10.39967 223.0404 2.2547 224.4957 -5.852951 224.3637C -13.96146 224.2239 -21.99788 222.4977 -29.37439 219.2857C -36.75435 216.0842 -43.46571 211.4169 -49.02478 205.6668C -54.58299 199.9149 -58.98198 193.0881 -61.89177 185.7046C -64.81197 178.3221 -66.22476 170.3941 -66.09364 162.4949C -65.95384 154.5948 -64.26927 146.7755 -61.1398 139.5969C -58.02074 132.4158 -53.47414 125.8833 -47.87425 120.4736C -42.27263 115.0647 -35.62465 110.7865 -28.43919 107.96C -21.25459 105.1223 -13.54291 103.7512 -5.852951 103.8823L-5.852951 103.8823L-5.852951 97.36984L-5.852951 97.36984L-5.853806 97.36984zM-5.853806 90.85733C -15.21533 90.99452 -24.55339 92.97346 -33.11691 96.68037C -41.68651 100.3751 -49.47632 105.7666 -55.93326 112.4155C -62.3902 119.0643 -67.51424 126.9696 -70.91638 135.5435C -74.33153 144.1131 -75.99698 153.3427 -75.86327 162.4949C -75.72609 171.648 -73.78882 180.769 -70.16438 189.1346C -66.55212 197.5062 -61.28047 205.1162 -54.78185 211.423C -48.28236 217.7297 -40.55679 222.733 -32.18083 226.0527C -23.80923 229.3853 -14.79591 231.0091 -5.852951 230.8754C 3.090897 230.7373 11.9948 228.8426 20.16322 225.3007C 28.33686 221.7709 35.76719 216.6199 41.92455 210.2715C 48.08192 203.9214 52.96369 196.3765 56.20171 188.1985C 59.45189 180.0249 61.03313 171.2286 60.90027 162.494C 60.7622 153.7586 58.90918 145.0718 55.44973 137.1013C 52.00158 129.1266 46.97218 121.876 40.77315 115.868C 34.57323 109.8608 27.20716 105.0989 19.22803 101.9434C 11.25151 98.77568 2.673233 97.23611 -5.852951 97.36896L-5.852951 97.36896L-5.852951 90.85733L-5.852951 90.85733L-5.853806 90.85733zM-5.853806 119.0782C -0.1688232 119.2241 5.457123 120.4771 10.6046 122.7617C 15.75468 125.0384 20.42025 128.3329 24.27131 132.3707C 28.11716 136.4136 31.14331 141.1947 33.12833 146.3491C 35.12116 151.5027 36.0607 157.0201 35.93565 162.4958C 35.78976 167.9715 34.57845 173.3812 32.37634 178.3307C 30.1812 183.282 27.00831 187.7687 23.11991 191.4695C 19.22629 195.166 14.62498 198.0706 9.669403 199.974C 4.713821 201.8843 -0.5873566 202.7822 -5.852951 202.6571C -11.12025 202.5104 -16.31203 201.3416 -21.06355 199.222C -25.81682 197.1093 -30.12375 194.0571 -33.67438 190.319C -37.22066 186.5756 -40.0054 182.1531 -41.82542 177.3955C -43.65327 172.6379 -44.50859 167.5538 -44.38441 162.4967C -44.23766 157.4386 -43.11057 152.463 -41.07346 147.9095C -39.04242 143.3542 -36.11092 139.2279 -32.52296 135.8258C -28.92892 132.4288 -24.6871 129.7657 -20.12749 128.0273C -15.56786 126.2819 -10.7 125.4683 -5.852066 125.5924L-5.852066 125.5924L-5.852066 119.0782L-5.852066 119.0782L-5.853806 119.0782zM-5.853806 112.5657C -12.37413 112.7098 -18.86754 114.1313 -24.80695 116.7458C -30.75069 119.3517 -36.13437 123.129 -40.58371 127.765C -45.02872 132.4063 -48.53766 137.9063 -50.85091 143.8535C -53.17369 149.7981 -54.28168 156.1839 -54.15491 162.494C -54.01077 168.806 -52.63098 175.0823 -50.09891 180.8228C -47.57555 186.5677 -43.91899 191.7726 -39.4323 196.0725C -34.94041 200.3682 -29.62099 203.7556 -23.87088 205.9872C -18.12424 208.2275 -11.9556 209.2938 -5.853806 209.167C 0.2488403 209.022 6.30896 207.6848 11.85153 205.2352C 17.39845 202.7935 22.42351 199.2585 26.57327 194.9211C 30.7187 190.5786 33.98624 185.4389 36.13538 179.8876C 38.29317 174.339 39.31695 168.3866 39.19104 162.494C 39.04603 156.6007 37.75047 150.7576 35.38338 145.4122C 33.02412 140.0641 29.60896 135.2179 25.42187 131.2184C 21.22955 127.2223 16.26875 124.0763 10.91634 122.0088C 5.565659 119.9335 -0.169693 118.9514 -5.853806 119.0773L-5.853806 119.0773L-5.853806 112.5657L-5.853806 112.5657L-5.853806 112.5657zM-5.853806 140.7866C -0.1558075 141.041 5.254791 143.6408 8.920898 147.7202C 12.62088 151.7805 14.51558 157.2293 14.22643 162.4949C 13.96854 167.7709 11.54848 172.7482 7.769485 176.1182C 4.004395 179.5177 -1.010239 181.2327 -5.853806 180.947C -10.70779 180.6857 -15.25093 178.4454 -18.3257 174.9668C -21.42479 171.4969 -22.95999 166.9165 -22.67778 162.4949C -22.41295 158.0629 -20.35239 153.954 -17.17429 151.1744C -13.99965 148.3758 -9.853363 147.0203 -5.853806 147.2991L-5.853806 147.2991L-5.853806 140.7866zM-5.853806 134.274C -9.532074 134.413 -13.18517 135.2761 -16.4996 136.8C -19.8175 138.3196 -22.79501 140.487 -25.23331 143.1146C -27.66985 145.7447 -29.56889 148.8378 -30.79584 152.16C -32.02888 155.4805 -32.57767 159.0251 -32.44569 162.494C -32.30588 165.9639 -31.48531 169.3999 -30.04387 172.5164C -28.6059 175.6354 -26.56012 178.4341 -24.08189 180.723C -19.13498 185.3252 -12.38542 187.7591 -5.853806 187.4595C 0.6882172 187.2121 6.967148 184.2528 11.22285 179.5716C 15.52458 174.9208 17.77878 168.6037 17.48268 162.4949C 17.23174 156.3749 14.45219 150.5301 10.07231 146.5688C 5.716751 142.5675 -0.166214 140.4931 -5.853806 140.7866L-5.853806 140.7866L-5.853806 134.274L-5.853806 134.274L-5.853806 134.274z" stroke="none" fill="#D9D9D9" fill-rule="nonzero" /></g><g clip-path="url(#14)"><path id="7" transform="matrix(1 0 0 -1 0 842)" d="M598.8796 820.3119C 587.3957 820.2291 575.9454 817.8949 565.3983 813.4274C 554.8461 808.9748 545.2088 802.4196 537.1865 794.288C 529.1651 786.1548 522.7648 776.4509 518.4812 765.8962C 514.1821 755.3456 512.0283 743.9579 512.1024 732.5953C 512.1851 721.2318 514.4954 709.9067 518.9153 699.4744C 523.3202 689.0366 529.8057 679.5031 537.8511 671.5669C 545.898 663.6323 555.4983 657.3016 565.9386 653.0651C 576.3749 648.8136 587.6373 646.6843 598.8796 646.7581C 610.1224 646.8412 621.3221 649.1269 631.6406 653.4992C 641.9637 657.8565 651.394 664.2723 659.2434 672.2316C 667.0918 680.1923 673.3528 689.6887 677.5417 700.0143C 681.7456 710.3363 683.8508 721.4739 683.7771 732.5953C 683.6939 743.7179 681.4323 754.7923 677.1076 764.9965C 672.7974 775.2053 666.4517 784.5314 658.5787 792.2946C 650.7048 800.0568 641.3115 806.2476 631.1008 810.3893C 620.8931 814.5456 609.8808 816.6262 598.8796 816.553L598.8796 816.553L598.8796 820.3119zM598.8796 824.0712C 610.8457 823.9894 622.7968 821.5579 633.8005 816.8999C 644.8107 812.2579 654.8631 805.4235 663.2308 796.946C 671.598 788.4676 678.277 778.3486 682.7505 767.3358C 687.2402 756.3286 689.4912 744.4396 689.416 732.5948C 689.3344 720.7491 686.9269 708.9233 682.3165 698.0339C 677.7216 687.1379 670.9574 677.1898 662.5662 668.9083C 654.1739 660.6278 644.1586 654.0185 633.2606 649.592C 622.3672 645.15 610.6041 642.9235 598.8796 642.9982C 587.1546 643.0804 575.4536 645.4633 564.6785 650.0261C 553.8973 654.5734 544.0524 661.2679 535.8577 669.5724C 527.6634 677.8785 521.1237 687.7896 516.7454 698.5737C 512.351 709.3524 510.1486 720.9907 510.2233 732.5948C 510.3055 744.1996 512.6643 755.7747 517.1795 766.4361C 521.6791 777.103 528.304 786.8441 536.5223 794.9526C 544.7422 803.0602 554.5494 809.5302 565.2188 813.8614C 575.8832 818.2081 587.3967 820.386 598.8801 820.3119L598.8801 820.3119L598.8801 824.0712L598.8801 824.0712L598.8796 824.0712zM598.8796 807.7809C 589.0363 807.6992 579.226 805.6866 570.1942 801.8487C 561.1578 798.0237 552.9094 792.3988 546.0469 785.4271C 539.1854 778.4538 533.7159 770.1387 530.0593 761.0999C 526.3898 752.0645 524.5582 742.3169 524.6329 732.5948C 524.7151 722.8718 526.7031 713.1874 530.4934 704.2698C 534.2708 695.3477 539.826 687.2031 546.7115 680.4273C 553.5981 673.6525 561.8094 668.2522 570.7339 664.6432C 579.655 661.0213 589.2773 659.2144 598.8791 659.2885C 608.4813 659.3707 618.041 661.3346 626.8442 665.0773C 635.6516 668.8076 643.6929 674.2927 650.382 681.092C 657.0706 687.8923 662.4008 695.9998 665.9625 704.8096C 669.5369 713.6164 671.3198 723.1134 671.2456 732.5948C 671.1629 742.0768 669.2236 751.5112 665.5284 760.2001C 661.8458 768.8932 656.4299 776.8303 649.7173 783.4336C 643.0032 790.0355 634.9995 795.2964 626.304 798.8107C 617.6115 802.3374 608.2393 804.0958 598.8786 804.0221L598.8786 804.0221L598.8786 807.7809L598.8786 807.7809L598.8796 807.7809zM598.8796 811.5402C 609.2051 811.459 619.5161 809.3497 629.0046 805.3213C 638.4991 801.3063 647.1625 795.4027 654.3699 788.0851C 661.5767 780.7665 667.3259 772.0369 671.1719 762.5399C 675.032 753.048 676.9602 742.7991 676.8851 732.5948C 676.8038 722.3896 674.7187 712.2039 670.7379 702.8297C 666.7705 693.45 660.9366 684.8904 653.7052 677.7692C 646.4728 670.6486 637.847 664.9696 628.4643 661.1707C 619.0865 657.3582 608.963 655.454 598.8791 655.5292C 588.7946 655.6109 578.7343 657.6715 569.4738 661.6047C 560.2084 665.5244 551.7525 671.2887 544.7176 678.4333C 537.6832 685.579 532.0739 694.1016 528.3231 703.3696C 524.5582 712.6335 522.6786 722.6312 522.7533 732.5948C 522.835 742.559 524.8715 752.4941 528.7571 761.6402C 532.6297 770.7908 538.3243 779.1435 545.3823 786.0917C 552.4417 793.0394 560.8605 798.5791 570.0137 802.2828C 579.1633 805.9999 589.0363 807.8555 598.8791 807.7809L598.8791 807.7809L598.8791 811.5402L598.8791 811.5402L598.8796 811.5402zM598.8796 795.2499C 590.6768 795.1686 582.5071 793.4785 574.99 790.27C 567.4694 787.0726 560.6099 782.3781 554.9078 776.5662C 549.2067 770.7532 544.667 763.8271 541.638 756.304C 538.598 748.7839 537.0892 740.6763 537.1639 732.5948C 537.2456 724.5124 538.9113 716.468 542.0721 709.0657C 545.2224 701.6599 549.8468 694.9036 555.5724 689.2882C 561.2991 683.6733 568.1215 679.2033 575.5298 676.2219C 582.9357 673.2295 590.9179 671.7448 598.8791 671.8195C 606.8408 671.9012 614.7604 673.5428 622.0484 676.656C 629.34 679.7587 635.9924 684.3139 641.5216 689.9529C 647.0502 695.5933 651.4501 702.312 654.3844 709.606C 657.3292 716.8975 658.7893 724.7545 658.7151 732.5953C 658.6329 740.4368 657.0159 748.2305 653.9503 755.4048C 650.8953 762.582 646.4097 769.1302 640.8574 774.5732C 635.3037 780.0151 628.6884 784.3459 621.509 787.2321C 614.3318 790.1292 606.5997 791.5652 598.8796 791.4911L598.8796 791.4911L598.8796 795.2499L598.8796 795.2499L598.8796 795.2499zM598.8796 799.0092C 607.5646 798.929 616.2355 797.1415 624.2087 793.7426C 632.1875 790.3552 639.4615 785.382 645.5089 779.2242C 651.5559 773.066 656.3743 765.7249 659.5933 757.7436C 662.8237 749.7664 664.4297 741.158 664.3541 732.5944C 664.2733 724.0297 662.5105 715.4846 659.1592 707.6251C 655.8195 699.7611 650.9158 692.5904 644.8443 686.6292C 638.7723 680.6684 631.5349 675.9197 623.6684 672.7483C 615.8055 669.5654 607.3225 667.9835 598.8791 668.0592C 590.4352 668.1399 582.0149 669.8787 574.2697 673.1824C 566.52 676.475 559.4531 681.3085 553.5785 687.2933C 547.7045 693.2791 543.0254 700.4122 539.9017 708.1644C 536.7664 715.9131 535.2091 724.2708 535.2842 732.5939C 535.3655 740.9175 537.0797 749.2125 540.3358 756.8433C 543.5808 764.4783 548.3451 771.4415 554.2432 777.2303C 560.1428 783.0181 567.1721 787.6275 574.8101 790.7036C 582.4445 793.7913 590.6768 795.3246 598.8796 795.2493L598.8796 795.2493L598.8796 799.0092zM598.8796 782.7189C 592.3174 782.6382 585.7877 781.2708 579.7858 778.6919C 573.781 776.1215 568.3105 772.3577 563.7687 767.7057C 559.2275 763.0527 555.618 757.5155 553.2166 751.5087C 550.8062 745.5038 549.6198 739.0363 549.6954 732.5953C 549.7766 726.1534 551.1199 719.7491 553.6507 713.862C 556.1735 707.9719 559.8676 702.6047 564.4333 698.1492C 568.9997 693.6942 574.4331 690.1549 580.3262 687.8005C 586.2173 685.4377 592.559 684.2753 598.8796 684.351C 605.2007 684.4323 611.4797 685.7515 617.2531 688.2346C 623.0288 690.7098 628.2919 694.3347 632.6611 698.8138C 637.0295 703.2939 640.4995 708.6235 642.8063 714.4019C 645.1215 720.1786 646.2593 726.395 646.1841 732.5953C 646.1024 738.7962 644.8077 744.95 642.3722 750.6089C 639.9442 756.2699 636.3894 761.4297 631.997 765.7123C 627.6031 769.9944 622.3772 773.3943 616.7137 775.6539C 611.0512 777.9215 604.9596 779.0353 598.8801 778.9601L598.8801 778.9601L598.8801 782.7189L598.8801 782.7189L598.8796 782.7189zM598.8796 786.4781C 605.924 786.3984 612.9544 784.9338 619.4129 782.1645C 625.8759 779.4047 631.7609 775.3616 636.6485 770.3638C 641.5356 765.3654 645.4237 759.4137 648.0151 752.9482C 650.6161 746.4862 651.8998 739.518 651.8231 732.5948C 651.7429 725.6707 650.3028 718.7656 647.5811 712.4214C 644.8683 706.0732 640.8955 700.2914 635.9839 695.4906C 631.0717 690.6897 625.2238 686.8718 618.873 684.3275C 612.5253 681.7742 605.6824 680.5145 598.8796 680.5912C 592.0762 680.6714 585.296 682.0874 579.0661 684.7615C 572.8322 687.4266 567.1541 691.3303 562.4399 696.1547C 557.7258 700.9802 553.977 706.7249 551.4808 712.9613C 548.9752 719.1947 547.7401 725.9124 547.8163 732.5948C 547.897 739.2779 549.2884 745.9324 551.9149 752.0485C 554.5323 758.1676 558.3664 763.7419 563.1046 768.3704C 567.8438 772.9983 573.4847 776.6769 579.6064 779.126C 585.7255 781.584 592.3179 782.795 598.8801 782.7189L598.8801 782.7189L598.8801 786.4781L598.8801 786.4781L598.8796 786.4781zM598.8796 770.1879C 593.9579 770.1077 589.0683 769.0626 584.5817 767.1133C 580.0926 765.1705 576.011 762.3369 572.6292 758.8448C 569.2478 755.3522 566.5692 751.2039 564.7947 746.7123C 563.0139 742.2222 562.1497 737.3953 562.2259 732.5948C 562.3061 727.7935 563.3271 723.0297 565.2288 718.6574C 567.124 714.2831 569.8884 710.3047 573.2938 707.0096C 576.7002 703.7144 580.7448 701.1055 585.1216 699.3787C 589.4974 697.6454 594.199 696.8053 598.8791 696.8815C 603.5597 696.9622 608.1986 697.9587 612.4567 699.8127C 616.7167 701.6608 620.5908 704.355 623.7997 707.6742C 627.0082 710.9944 629.5475 714.9352 631.2271 719.1972C 632.9128 723.4587 633.7283 728.0351 633.6526 732.5948C 633.5719 737.1552 632.5995 741.6688 630.793 745.8126C 628.9926 749.9578 626.3681 753.7286 623.1356 756.8514C 619.9021 759.9736 616.0646 762.4432 611.9169 764.0747C 607.7696 765.7128 603.3181 766.5043 598.8791 766.4286L598.8791 766.4286L598.8791 770.1879L598.8791 770.1879L598.8796 770.1879zM598.8796 773.9471C 604.2834 773.868 609.6738 772.7256 614.617 770.5858C 619.5638 768.4531 624.0604 765.3409 627.7876 761.5029C 631.5148 757.6649 634.4727 753.1016 636.4365 748.1523C 638.4078 743.2056 639.3693 737.8779 639.2921 732.5948C 639.2129 727.3113 638.0946 722.0463 636.0024 717.2173C 633.9172 712.3849 630.8743 707.992 627.1229 704.3515C 623.3712 700.711 618.9116 697.8229 614.0767 695.9066C 609.2443 693.9828 604.0414 693.0455 598.8791 693.1227C 593.7163 693.2024 588.5766 694.2961 583.8615 696.3407C 579.1432 698.3782 574.8541 701.3516 571.2999 705.0161C 567.7455 708.6817 564.9276 713.037 563.0585 717.7577C 561.1823 722.4758 560.2696 727.5534 560.3463 732.5953C 560.426 737.6378 561.4956 742.6522 563.4926 747.2531C 565.483 751.8565 568.3862 756.0419 571.9645 759.5099C 575.5433 762.9775 579.7953 765.7263 584.4012 767.5479C 589.0057 769.3763 593.9574 770.2651 598.8791 770.1884L598.8791 770.1884L598.8791 773.9471L598.8791 773.9471L598.8796 773.9471zM598.8796 757.6569C 595.598 757.5726 592.3505 756.8494 589.3791 755.5306C 586.4063 754.2164 583.7131 752.3146 581.4901 749.9839C 579.2701 747.6501 577.5233 744.8903 576.3774 741.9149C 575.2271 738.9401 574.6848 735.7552 574.7569 732.5944C 574.8411 729.4335 575.5403 726.3108 576.8115 723.4537C 578.0786 720.5957 579.9102 718.0057 582.1547 715.8695C 584.4023 713.7357 587.0583 712.0591 589.9189 710.9603C 592.7795 709.8576 595.8395 709.3394 598.8791 709.4115C 601.9196 709.4962 604.9165 710.1709 607.6593 711.3944C 610.4031 712.614 612.8892 714.3758 614.9388 716.5336C 616.9859 718.6945 618.5934 721.2473 619.6439 723.9936C 620.6991 726.7399 621.1928 729.6746 621.1211 732.5939C 621.0364 735.5135 620.3858 738.3857 619.2099 741.0142C 618.0375 743.6437 616.3453 746.0256 614.2742 747.9894C 612.1995 749.9503 609.751 751.4876 607.119 752.4911C 604.4869 753.4986 601.677 753.9683 598.8786 753.8965L598.8786 753.8965L598.8786 757.6569L598.8786 757.6569L598.8796 757.6569zM598.8796 761.4161C 602.6434 761.3329 606.3917 760.5125 609.8201 759.0032C 613.2512 757.499 616.3588 755.3186 618.9272 752.6425C 621.493 749.9633 623.5186 746.7885 624.8538 743.3555C 626.1946 739.924 626.8342 736.2379 626.761 732.5953C 626.6779 728.9518 625.8813 725.3289 624.4197 722.0152C 622.9631 718.699 620.8524 715.6946 618.2625 713.2124C 615.6696 710.7328 612.599 708.7775 609.2798 707.4893C 605.9626 706.196 602.4018 705.5806 598.8796 705.6537C 595.3569 705.7374 591.8587 706.5093 588.6593 707.9233C 585.4574 709.3328 582.5567 711.3734 580.1613 713.8771C 577.7684 716.3838 575.8822 719.3506 574.6416 722.5551C 573.3961 725.7579 572.8051 729.194 572.8777 732.5953C 572.9615 735.9973 573.7094 739.3701 575.0757 742.4557C 576.4376 745.5429 578.4089 748.3403 580.8259 750.649C 583.2459 752.9557 586.1095 754.7717 589.1992 755.9651C 592.2878 757.1631 595.5984 757.73 598.8796 757.6573L598.8796 757.6573L598.8796 761.4161L598.8796 761.4161L598.8796 761.4161zM598.8796 745.1259C 595.5905 744.979 592.4672 743.4783 590.351 741.1235C 588.2152 738.7797 587.1215 735.6344 587.2884 732.5948C 587.4373 729.5493 588.8342 726.6762 591.0156 724.7309C 593.189 722.7686 596.0837 721.7786 598.8796 721.9435C 601.6815 722.0944 604.304 723.3876 606.0789 725.3956C 607.8678 727.3985 608.754 730.0425 608.5911 732.5948C 608.4382 735.1532 607.2488 737.525 605.4142 739.1295C 603.5817 740.745 601.1883 741.5275 598.8796 741.3666L598.8796 741.3666L598.8796 745.1259zM598.8796 748.8851C 601.0028 748.8049 603.1116 748.3068 605.0248 747.4271C 606.9401 746.5499 608.6588 745.2988 610.0663 743.782C 611.4727 742.2638 612.569 740.4784 613.2772 738.5606C 613.989 736.6439 614.3057 734.5978 614.2296 732.5953C 614.1489 730.5924 613.6752 728.609 612.8431 726.8101C 612.0131 725.0096 610.8322 723.3941 609.4016 722.0728C 606.546 719.4163 602.6499 718.0113 598.8796 718.1842C 595.1033 718.3271 591.4788 720.0353 589.0222 722.7375C 586.5391 725.4221 585.2379 729.0686 585.4088 732.5948C 585.5536 736.1276 587.1581 739.5015 589.6863 741.7881C 592.2006 744.0978 595.5964 745.2953 598.8796 745.1259L598.8796 745.1259L598.8796 748.8851L598.8796 748.8851L598.8796 748.8851z" stroke="none" fill="#D9D9D9" fill-rule="nonzero" /></g><g clip-path="url(#15)"><g clip-path="url(#16)"><g clip-path="url(#17)"><g clip-path="url(#18)"><path id="8" transform="matrix(1 0 0 -1 0 842)" d="M-84.89328 927.1432L84.89307 927.1432L84.89307 757.3569L-84.89328 757.3569z" stroke="none" fill="#ABD625" fill-rule="nonzero" /></g></g></g></g><g clip-path="url(#19)"></g><g clip-path="url(#20)"><g transform="matrix(0.271875 0 0 0.2715231 192.1219 46.85126)"><g transform="matrix(1 0 0 1 0 0)"><image x="0" y="0" xlink:href="img_03.png" width="800" height="453" /></g></g></g></g></g></svg>