<svg xmlns="http://www.w3.org/2000/svg" xmlns:xlink="http://www.w3.org/1999/xlink" id="body_1" preserveAspectRatio="xMinYMin meet" viewBox="0 0 793 1123"><defs><clipPath id="1"><path id="" clip-rule="evenodd" transform="matrix(1 0 0 1 0 0)" d="M0 842L0 -0.25L0 -0.25L595.5 -0.25L595.5 -0.25L595.5 842L595.5 842L0 842z" /></clipPath><clipPath id="2"><path id="" clip-rule="evenodd" transform="matrix(1 0 0 1 0 0)" d="M0 -0.249939L595.5 -0.249939L595.5 -0.249939L595.5 842.0001L595.5 842.0001L0 842.0001z" /></clipPath><clipPath id="3"><path id="" clip-rule="evenodd" transform="matrix(1 0 0 1 0 0)" d="M0 -0.249939L595.5 -0.249939L595.5 -0.249939L595.5 842.0001L595.5 842.0001L0 842.0001z" /></clipPath><clipPath id="4"><path id="" clip-rule="evenodd" transform="matrix(1 0 0 1 0 0)" d="M0 282.7404L591.6276 282.7404L591.6276 282.7404L591.6276 782.2404L591.6276 782.2404L0 782.2404z" /></clipPath><clipPath id="5"><path id="" clip-rule="evenodd" transform="matrix(1 0 0 1 0 0)" d="M0 -0.249939L595.5 -0.249939L595.5 -0.249939L595.5 842.0001L595.5 842.0001L0 842.0001z" /></clipPath><clipPath id="6"><path id="" clip-rule="evenodd" transform="matrix(1 0 0 1 0 0)" d="M73.2 41.99011L516.72 41.99011L516.72 41.99011L516.72 822.2301L516.72 822.2301L73.2 822.2301z" /></clipPath><clipPath id="7"><path id="" clip-rule="evenodd" transform="matrix(1 0 0 1 0 0)" d="M74.18613 42.15967L516.6861 42.15967L516.6861 42.15967L516.6861 822.1597L516.6861 822.1597L74.18613 822.1597z" /></clipPath><clipPath id="8"><path id="" clip-rule="evenodd" transform="matrix(1 0 0 1 0 0)" d="M0 -0.249939L595.5 -0.249939L595.5 -0.249939L595.5 842.0001L595.5 842.0001L0 842.0001z" /></clipPath><clipPath id="9"><path id="" clip-rule="evenodd" transform="matrix(1 0 0 1 0 0)" d="M0 -0.249939L595.5 -0.249939L595.5 -0.249939L595.5 842.0001L595.5 842.0001L0 842.0001z" /></clipPath><clipPath id="10"><path id="" clip-rule="evenodd" transform="matrix(1 0 0 1 0 0)" d="M175.4088 -45.19708L510.2263 147.3809L510.2263 147.3809L378.2262 376.8772L378.2262 376.8772L43.40873 184.2992L43.40873 184.2992L175.4088 -45.19708z" /></clipPath><clipPath id="11"><path id="" clip-rule="evenodd" transform="matrix(1 0 0 1 0 0)" d="M175.4088 -45.19708L584.3412 190.0099L584.3412 190.0099L419.0607 477.3678L419.0607 477.3678L10.12825 242.1609L10.12825 242.1609L175.4088 -45.19708z" /></clipPath><clipPath id="12"><path id="" clip-rule="evenodd" transform="matrix(1 0 0 1 0 0)" d="M475.9692 14.82153L571.9692 14.82153L571.9692 14.82153L571.9692 69.57153L571.9692 69.57153L475.9692 69.57153z" /></clipPath><clipPath id="13"><path id="" clip-rule="evenodd" transform="matrix(1 0 0 1 0 0)" d="M0 -0.249939L595.5 -0.249939L595.5 -0.249939L595.5 842.0001L595.5 842.0001L0 842.0001z" /></clipPath></defs><g transform="matrix(1.333333 0 0 1.333333 0 0)"><g clip-path="url(#1)"><g clip-path="url(#2)"><path id="1" transform="matrix(1 0 0 -1 0 842)" d="M0 842.2499L595.4999 842.2499L595.4999 -6.103516E-05L0 -6.103516E-05z" stroke="none" fill="#FFFFFF" fill-rule="nonzero" /></g><g clip-path="url(#3)"><path id="2" transform="matrix(1 0 0 -1 0 842)" d="M0 842.2499L595.4999 842.2499L595.4999 -6.103516E-05L0 -6.103516E-05z" stroke="none" fill="#FFFFFF" fill-rule="nonzero" /></g><g clip-path="url(#4)"><g transform="matrix(0.7452829 0 0 0.7455223 -0.8723196 282.7404)"><g transform="matrix(1 0 0 1 0 0)"><image x="0" y="0" xlink:href="img_01.png" width="795" height="670" /></g></g></g><g clip-path="url(#5)"><g><g clip-path="url(#6)"><g clip-path="url(#7)"><g transform="matrix(0 0.5128205 -0.5127462 0 516.6861 42.15973)"><g transform="matrix(1 0 0 1 0 0)"><image x="0" y="0" xlink:href="img_02.png" width="1521" height="863" /></g></g></g></g></g></g><g clip-path="url(#8)"><g clip-path="url(#9)"><g clip-path="url(#10)"><g clip-path="url(#11)"><path id="5" transform="matrix(1 0 0 -1 0 842)" d="M426.8549 722.8552C 427.6765 722.5078 428.6352 722.2899 429.5555 721.969C 430.4758 721.6481 431.3871 721.3116 432.2064 720.9238C 428.5948 722.2922 427.105 724.9211 426.8795 722.8619L426.8795 722.8619L426.8549 722.8552zM459.7177 697.1366L460.0359 696.349C 460.327 697.0363 460.6361 697.7549 460.9139 698.4915L460.9139 698.4915L459.7177 697.1366zM450.8354 647.1895L451.0985 646.7045C 451.8348 647.1149 452.2991 647.9944 453.2142 649.8029L453.2142 649.8029L450.8197 647.1984L450.8197 647.1984L450.8354 647.1895zM83.26877 597.7914L82.72653 596.2687L82.72653 596.2687L85.04794 594.4332C 84.49895 595.291 83.42336 596.9728 83.28441 597.7823L83.28441 597.7823L83.26877 597.7914zM77.82861 604.8604L79.57166 600.6058L78.81107 603.524L77.82861 604.8604zM405.5245 421.8404C 404.91 421.7144 404.2618 421.566 403.571 421.3797C 404.6833 421.5737 405.2014 421.7136 405.5245 421.8404zM409.3935 424.3264C 406.3477 424.4313 406.0171 424.0378 405.7312 423.5769C 405.4476 423.1563 405.2267 422.6997 402.4374 423.1782C 400.9382 422.4562 407.0325 422.4323 405.5492 421.847C 409.3306 422.6948 411.2735 422.5571 409.4182 424.333L409.4182 424.333L409.3935 424.3264zM347.1607 452.1159L346.4426 453.4045L343.8987 451.8449L347.145 452.1249L347.1607 452.1159zM295.1863 521.1185C 295.9137 521.5131 304.0529 519.3541 296.6884 522.0265C 295.9122 521.7642 290.017 523.2579 295.1863 521.1185zM278.0134 524.5334C 279.5696 524.0135 279.6405 523.7018 280.4456 523.0719L280.4456 523.0719L280.9123 524.8256C 279.9462 524.7768 278.9819 524.6226 278.0134 524.5334L278.0134 524.5334L278.0134 524.5334zM294.3806 516.7455C 296.2487 516.2964 298.058 515.6727 299.8853 515.0803C 300.6279 515.3203 299.2968 516.2318 297.2094 516.807C 295.798 517.0352 293.7012 517.449 294.3962 516.7365L294.3962 516.7365L294.3806 516.7455zM218.9385 520.4457L220.5383 520.2552L224.2977 520.4486L218.9385 520.4458zM231.3475 519.8751C 229.6482 519.7476 228.0182 519.5594 227.0848 519.2416C 228.013 519.3331 230.0018 519.5651 231.3475 519.8751zM238.076 520.5913L232.7278 520.4988C 232.828 520.2743 232.1594 520.0543 231.3475 519.8751C 234.6252 520.137 238.2451 520.1605 238.076 520.5913zM211.6828 519.5741L212.9609 518.1718L212.9609 518.1718L214.7756 519.4421C 213.7581 519.4854 212.7226 519.4972 211.6985 519.5651L211.6985 519.5651L211.6828 519.5741zM249.1478 515.5573C 247.5727 515.7545 248.2872 513.9885 247.3806 514.4057C 245.7578 512.8166 257.5209 516.8494 249.1478 515.5573zM206.9682 516.0527C 205.928 515.9839 204.8474 515.9175 203.8233 515.9854C 203.4359 515.3118 205.1027 515.854 206.9682 516.0527zM214.5883 515.8183C 214.1455 516.9694 211.1494 516.3995 207.7483 516.1042C 207.959 516.1082 208.1541 516.1211 208.3557 516.1093C 207.3917 514.4332 211.0313 515.0707 214.5883 515.8183zM177.6437 522.371C 176.9309 522.364 176.2033 522.6574 175.4928 522.6908L175.4928 522.6908L175.5178 522.0093C 178.4343 521.3534 180.5773 521.4549 177.6437 522.3709L177.6437 522.3709L177.6437 522.371zM219.3838 511.434L224.2116 512.1803C 221.8731 511.9201 221.0131 512.1646 219.7986 512.3003C 219.9255 511.9772 220.8971 511.5643 219.3681 511.4431L219.3681 511.4431L219.3838 511.434zM347.6868 462.2366C 348.1198 460.7785 348.2407 459.9376 348.2457 459.3302C 348.6068 459.4144 348.5258 460.1072 347.6868 462.2366zM395.3126 729.5944L395.0862 729.5995C 394.9515 729.5103 394.9064 729.4319 394.8614 729.3536L394.8614 729.3536L395.3216 729.61L395.3216 729.61L395.3126 729.5944zM453.2396 547.4938C 453.2052 548.0139 453.3807 548.2465 453.5562 548.4791C 453.0306 548.9064 452.7882 548.7749 453.2396 547.4938zM224.148 733.7751L223.048 734.7621C 222.0732 734.8434 221.1164 734.9559 224.148 733.7751zM261.7963 516.454C 259.9721 516.5443 258.3762 516.5242 257.8842 516.1401C 257.5709 516.3203 257.5177 516.5177 258.2266 516.7354C 260.3591 517.0723 261.2908 516.8074 261.7963 516.4541L261.7963 516.4541L261.7963 516.454zM265.5184 516.1477C 265.5184 516.1477 265.4108 516.1054 265.3524 516.0765C 267.7049 515.7448 268.8943 515.4568 265.5184 516.1477zM459.7768 540.7736C 460.3448 538.7166 460.999 537.027 461.947 536.2106C 461.4052 538.0233 460.6183 539.5182 459.7768 540.7736zM460.8265 661.9142C 459.6813 661.1554 459.4909 658.0336 459.1414 656.4835C 460.5598 658.7322 461.7281 659.7487 460.8265 661.9142zM445.6885 716.9633C 443.5419 719.5739 440.6933 721.254 437.9974 722.2209C 436.6313 722.673 435.3437 723.0801 434.134 723.2964L434.134 723.2964L430.9234 723.7672C 428.8071 725.2346 433.9213 725.7537 426.8304 727.7057C 421.7659 728.8676 422.0795 727.9993 422.8525 727.0961C 423.6254 726.1929 424.8218 725.192 421.9186 725.7987C 420.718 726.8645 419.4406 727.7243 418.1389 728.7231C 416.1599 728.7982 414.3443 728.7585 412.6481 728.9628C 410.8889 729.0574 409.2084 729.2526 407.5772 729.4612C 404.2789 729.8157 401.0995 730.2684 397.6993 730.2646C 396.1723 730.038 395.4297 729.798 395.0682 729.5682C 387.7132 730.0461 380.1728 725.9612 374.6487 725.4904C 375.8452 726.1571 371.2724 726.0355 370.5068 726.3717C 367.2827 725.2242 364.0718 724.0273 360.8743 722.7812C 365.1375 724.3942 364.672 725.4333 365.2158 726.7048C 362.1111 725.8014 360.8083 724.8412 358.7354 724.1365C 359.9276 724.8683 361.1288 725.6158 359.3582 725.6544C 356.0233 724.1329 352.7015 722.5621 349.3618 720.96C 350.0252 720.9536 351.2566 721.246 352.2815 721.4695C 349.6637 720.7238 344.2016 718.4036 340.1484 718.1708C 340.3651 718.6924 341.5507 719.4489 341.7427 719.9639C 345.2564 719.694 346.7468 721.2341 348.149 722.5122C 340.941 720.2373 346.2567 722.2665 342.5262 722.0148C 337.4092 720.4759 335.7022 718.4141 337.3235 717.8985C 331.3555 716.6198 329.4294 716.3518 323.6523 713.629L323.6523 713.629L324.4037 715.4066C 322.584 714.7438 320.7734 714.0967 318.9405 713.4832C 320.3015 714.4723 321.6536 715.4458 322.9924 716.4686C 312.045 714.7601 321.7395 713.3117 309.4668 711.3649L309.4668 711.3649L309.1544 712.6703C 306.8997 711.9033 305.4579 710.9189 304.082 710.2302C 302.7061 709.5415 301.4092 709.0991 299.4316 709.6112C 294.913 708.0617 307.7029 709.0231 296.8018 706.9962C 294.7453 707.4077 290.5246 707.3546 287.3037 707.3726C 283.7933 706.4523 290.1621 705.9995 292.4161 706.4751C 288.234 705.8369 285.4323 705.8224 283.3844 706.1038C 281.3432 706.3606 280.0759 706.8394 278.8669 707.3471C 276.4401 708.3469 274.3664 709.0184 266.821 708.7303C 269.3631 708.0396 268.2453 707.4734 267.9973 706.9698C 267.7517 706.5065 268.4358 705.8837 274.6531 705.7474C 273.1711 705.5991 271.6852 705.6616 270.2221 705.8361C 268.7456 706.0599 267.3009 706.4114 265.8381 706.7316C 264.3821 707.027 262.9354 707.4839 261.45 707.692C 259.9645 707.9002 258.4453 708.0861 256.847 708.0255C 258.2981 708.3375 259.7065 708.6115 261.1152 709.0311C 258.9307 709.3286 256.3866 709.291 255.1561 709.29L255.1561 709.29L255.9305 710.4915C 253.9484 710.2348 252.1406 710.6075 250.4292 710.9664C 248.7111 711.3501 247.1325 711.9037 245.7109 712.5128C 244.2556 713.0997 242.8944 713.6326 241.5683 713.9366C 240.2423 714.2407 239.0055 714.41 237.6688 714.1157C 241.4216 715.1676 232.4136 716.0335 230.1784 718.2364C 231.7512 717.9988 233.4798 717.3798 235.3114 716.7224C 237.1611 716.0963 239.044 715.3469 240.7612 714.6719C 244.3015 713.4694 247.2802 712.6317 247.9731 713.5465C 245.5233 715.1224 242.7206 714.8165 240.4188 716.4323C 242.2868 715.9833 245.1305 715.7444 245.9334 715.908C 237.6742 720.033 232.0213 719.9907 226.7034 721.9445C 228.1943 721.2745 229.7189 720.627 231.2549 720.0354C 232.8064 719.4348 234.3063 718.7806 235.8693 718.236C 234.2215 716.4946 231.6664 719.7361 228.3883 719.3285C 226.4115 720.9658 224.4147 721.8433 222.4354 722.6065C 220.4989 723.4077 218.6629 724.1301 217.0683 725.3808C 218.0016 724.8649 218.1567 725.0258 219.0899 724.5099C 209.67 729.5527 208.9433 734.1609 205.2911 736.2198C 201.8368 738.4777 194.4249 741.0314 196.4854 738.8873C 194.8708 739.3782 198.0182 737.964 200.7078 736.3336C 203.4064 734.7189 205.6789 733.0157 202.3958 733.2155C 200.5726 736.0986 197.7205 737.3013 194.071 738.7125C 190.3811 740.126 185.9565 741.712 180.5645 745.1677C 186.1425 744.0649 178.2127 748.1465 183.1562 746.9916C 180.2723 748.0667 178.6952 748.3693 177.5324 748.5585C 176.3607 748.7322 175.5558 748.674 174.1346 748.595L174.1346 748.595L172.6998 750.0874C 168.6119 750.2289 168.0545 749.6948 167.0276 749.5767C 166.5298 749.5085 165.9134 749.4879 164.6965 749.5832C 163.5001 749.7502 161.6801 749.7755 158.8361 749.8687C 162.7682 750.1086 154.4151 751.932 157.4037 752.2351C 155.7859 752.3943 154.19 752.3742 152.697 752.3157C 151.9572 752.2617 151.2444 752.2548 150.5649 752.1244C 149.892 751.9694 149.2595 751.8121 148.674 751.6277L148.674 751.6277L149.1048 751.7968C 147.6475 751.6552 146.4032 751.5579 145.3227 751.4914C 144.2445 751.4653 143.3406 751.2347 142.5291 751.2012C 140.9171 751.0443 139.7402 750.9916 138.588 750.9456C 137.4467 750.8098 136.3591 750.6223 134.881 750.2634C 134.1498 750.0794 133.3355 749.8599 132.3709 749.5599C 131.4418 749.1771 130.3781 748.7049 129.1549 748.1368L129.1549 748.1368L130.349 747.9294C 123.9684 744.991 116.9807 741.3594 110.5235 736.6931C 104.0373 732.0851 98.18466 726.4039 93.97219 720.5298C 95.19936 721.7211 96.36387 722.9484 97.60434 724.0902C 96.95534 723.6505 95.62035 721.5831 93.95324 719.3734C 93.11185 718.2729 92.37305 716.9885 91.51364 715.8567C 90.68556 714.707 89.76156 713.7167 89.03965 712.8602C 89.41182 713.6885 90.13966 715.0627 90.67944 715.7112C 90.07948 715.9729 88.15405 715.1624 86.23151 712.1823L86.23151 712.1823L86.39265 710.5052L86.39265 710.5052L84.98499 709.6888C 82.4994 704.9688 86.928 710.3849 84.50078 705.6938C 83.55609 705.3199 82.25215 703.9227 81.20384 701.7739C 80.65619 700.713 80.09245 699.5154 79.52402 698.2372C 78.98691 696.9409 78.55475 695.501 78.05992 694.097C 77.55608 692.6774 77.08358 691.2397 76.75011 689.8263C 76.36064 688.4243 75.97353 687.0626 75.56878 685.8153C 74.91168 683.2955 74.23347 681.2466 73.39444 680.1865C 74.07251 678.2122 74.6086 680.739 75.12431 683.1941C 75.57739 685.6852 76.28108 688.0322 76.674 685.8883C 76.01074 684.3728 75.54266 683.7039 74.73504 680.2701L74.73504 680.2701L76.16113 681.2635C 75.658 679.3015 75.37931 677.4396 75.07634 675.7169L75.07634 675.7169L74.62993 673.201C 74.49315 672.3833 74.45505 671.5922 74.32061 670.8148L74.32061 670.8148L73.77017 666.3784L73.77017 666.3784L73.50293 662.2168L73.50293 662.2168L73.39182 660.1752L73.39182 660.1752L73.40175 658.1265L73.40175 658.1265L73.48618 653.8878C 73.72901 650.9755 73.98238 647.8279 74.63556 644.1793L74.63556 644.1793L74.30313 644.7249C 74.44808 642.0774 74.70237 640.0549 75.19094 638.4397C 75.63916 636.8268 76.17593 635.6217 76.86783 634.5775C 76.5708 633.3724 75.57927 637.049 75.54414 634.9219C 76.73954 632.7959 77.56052 630.6351 78.0541 628.4125C 78.64637 626.2166 79.0526 624.0233 79.38289 621.9154C 80.21614 617.7463 80.95625 613.9226 82.89534 611.6399C 81.88217 611.618 82.03254 608.5088 82.34827 606.0132C 82.58997 603.4977 82.71425 601.4666 80.86636 603.5093C 81.54453 602.3687 82.15534 601.1835 82.89188 600.0719C 82.00053 600.3345 80.60315 603.1604 79.12077 606.0559C 77.73044 609.0028 76.33149 612.0797 75.22874 612.8808L75.22874 612.8808L73.54704 619.018C 73.04406 621.0793 72.61507 623.1605 72.16809 625.2104C 71.79676 624.6735 70.34477 626.4259 70.85249 624.4453C 69.81189 627.4204 69.01917 630.0652 69.44669 625.8793C 66.48782 640.923 64.38827 656.2646 65.24329 671.7415C 65.67746 679.4551 66.82439 687.1758 68.95 694.6046C 71.08228 702.0087 74.39728 709.1494 78.6803 715.3998C 79.60442 717.224 78.49521 716.5278 77.75415 716.0367C 81.98596 720.0235 79.89316 721.0604 81.50787 723.759C 82.64452 724.6479 83.68719 725.5908 84.88415 726.4034L84.88415 726.4034L88.40101 728.8209C 90.00085 731.8198 87.8157 730.3041 87.61759 730.7933C 92.65097 736.8623 98.79723 741.7491 104.9724 745.7439C 111.2258 749.6936 117.4787 752.6638 123.1156 755.7589C 127.237 756.3279 122.8992 753.7153 127.9621 755.1603C 126.0838 755.1566 126.0153 755.5087 126.9158 756.0956C 127.8296 756.6332 129.6633 757.5381 131.7113 758.0905L131.7113 758.0905L137.1761 759.7628C 138.5175 760.1378 139.0384 760.4636 137.7974 760.698C 139.2217 760.2748 141.12 760.2045 143.133 760.2974L143.133 760.2974L149.2833 760.2621C 151.2133 760.3195 152.9224 759.9202 153.9704 759.5676C 155.016 759.1746 155.4201 758.6086 154.7946 757.7385C 157.885 757.5662 159.1696 757.6611 159.5182 758.0861C 159.8578 758.4952 159.205 759.1 158.307 759.3872L158.307 759.3872L163.5071 758.606C 165.1877 758.4108 166.724 757.9648 168.2721 757.7207C 171.393 757.2389 174.2421 756.5383 177.3075 756.2136C 178.2207 755.7717 180.5892 754.743 183.7755 753.5774C 186.9053 752.2776 190.8031 750.6819 194.5857 748.7772C 202.2116 745.0372 209.6405 740.5559 211.6837 737.838C 208.8295 741.5018 212.4342 738.4904 216.3912 737.2151L216.3912 737.2151L213.9458 740.3936L213.9458 740.3936L221.9033 735.8167C 223.6182 735.1013 224.0455 734.793 223.9734 734.6677C 225.2868 733.8705 223.2072 734.0243 226.478 731.8096C 231.9367 728.9409 232.5884 729.5667 235.969 728.9564L235.969 728.9564L235.2265 729.5502L235.2265 729.5502L239.0123 727.9773C 241.7767 726.6583 228.6005 731.0056 237.2834 726.0949C 237.6069 726.3674 243.7388 726.1552 245.7684 724.1747C 241.1563 726.0145 241.3054 724.8239 242.8643 723.6563C 245.0335 722.6796 247.2865 722.0299 249.4874 721.1809L249.4874 721.1809L247.9439 723.8616C 249.1196 723.4772 250.2815 722.9965 251.4685 722.6682L251.4685 722.6682L255.0363 721.6584C 256.2209 721.2898 257.4326 720.968 258.649 720.7271C 259.8654 720.486 261.0681 720.1487 262.3116 719.9547C 267.2422 718.9949 272.3491 718.5591 277.5532 718.401C 287.9548 718.1094 298.7286 719.48 309.4607 721.9376C 309.5142 721.0521 313.3336 721.8572 316.9603 722.6898C 320.6003 723.473 324.0429 724.203 323.4267 722.6604L323.4267 722.6604L322.5369 722.6719C 317.3075 721.01 324.6281 721.0521 328.8619 722.5778C 324.1312 722.1093 336.1936 727.3874 325.1807 724.6951L325.1807 724.6951L333.2599 728.3034C 336.5251 734.4514 355.8984 734.7532 368.8819 739.168C 367.9686 738.7761 367.7883 738.4628 367.7049 738.2815C 373.4466 740.3992 380.3146 741.2853 386.0263 741.5023C 388.8778 741.6758 391.4619 741.5654 393.4882 741.6091C 395.5255 741.563 397.0095 741.6058 397.7117 741.8481L397.7117 741.8481L398.8309 740.4957C 404.0296 741.6331 407.059 742.0796 410.2932 742.0122C 411.9158 741.9337 413.581 741.8931 415.6688 741.4636L415.6688 741.4636L419.1097 740.777C 420.3617 740.4529 421.73 740.0411 423.282 739.5862C 423.0529 739.4053 421.5353 739.3401 423.4362 738.622C 426.5882 738.8104 430.068 739.2063 438.1287 735.4247L438.1287 735.4247L437.6281 735.1706C 441.8975 733.4237 445.9437 731.1799 449.8793 728.7077C 448.6325 726.9024 453.8657 724.3302 458.96 720.2118C 461.5477 718.2231 463.9952 715.7731 465.6808 713.4485C 466.4933 712.2515 467.1312 711.1133 467.525 710.0947C 467.9189 709.0759 467.9431 708.1031 467.7056 707.3641C 468.3118 706.932 469.1118 706.0758 470.0254 704.9458C 470.8469 703.7645 471.6833 702.2828 472.5643 700.7338C 473.3869 699.1558 474.014 697.4191 474.7 695.8572C 475.3276 694.2662 475.6932 692.7634 476.1047 691.6304C 475.9229 691.5682 475.7988 691.2435 475.7516 690.4367C 477.3762 687.8971 477.6267 683.7296 476.9722 679.7283C 476.3802 675.691 475.1097 671.8147 474.6017 668.9381C 474.3196 665.077 475.3972 666.4793 476.5222 668.0003C 474.7906 664.41 473.8192 659.2776 472.7776 654.7484C 471.7764 650.2169 470.9067 646.2767 469.987 645.2214C 467.5997 640.3822 467.6147 644.1051 466.1036 643.1814C 463.1447 635.8984 470.3047 642.6204 464.1791 633.9276C 464.5388 635.0966 465.365 637.1855 464.7512 636.517C 462.6727 633.0846 455.009 628.9663 454.3051 624.9517L454.3051 624.9517L456.1061 626.9594C 455.1011 623.4724 452.5609 620.0344 450.663 617.061C 448.7493 614.0966 447.4649 611.6458 448.7172 610.6336L448.7172 610.6336L450.2575 610.8109C 448.8625 608.1318 448.1965 606.4302 447.8369 605.2612C 447.4615 604.1012 447.3835 603.4581 447.3458 602.8127C 447.2861 601.5129 446.9801 600.2922 445.5941 594.4393L445.5941 594.4393L445.3771 594.6058C 445.2551 589.4643 443.9352 586.4085 446.4685 584.1801C 446.4545 584.7719 446.5054 585.368 446.5565 585.9641C 446.9982 582.8539 447.3947 581.1875 447.7732 579.4897C 447.9254 578.6308 448.192 577.7896 448.4716 576.7532C 448.7264 575.7102 449.1421 574.5121 449.6757 572.9752C 450.1311 572.3173 451.6766 569.5313 451.6647 568.4958C 452.5776 568.7421 454.3478 565.3682 456.4128 561.6371C 458.4485 557.8188 460.6536 553.7153 461.376 552.3617C 458.3317 556.927 458.972 554.3073 459.1128 552.5585C 462.0726 550.5643 463.3965 548.698 464.713 544.2092C 465.8883 544.5129 467.133 544.756 468.6638 543.938C 470.1946 543.1201 472.0339 541.2075 474.205 536.936C 473.2288 538.1021 472.0173 540.0914 472.0187 539.0065C 472.0201 537.9216 473.4835 536.2252 473.9232 535.5763C 473.8776 534.5184 472.2734 537.1297 471.9783 535.8193C 473.1382 534.6102 474.02 533.3525 474.7448 532.0392C 475.4359 530.7036 475.9296 529.3148 476.4498 527.8273C 476.9208 526.3265 477.3287 524.716 477.8729 522.9437C 478.3273 521.1605 478.9673 519.2289 479.6873 517.0011C 478.3232 519.7036 478.4796 517.1121 477.9315 515.9056C 479.3144 515.8815 479.4824 512.6578 479.4323 509.9974C 479.4315 507.3503 479.2507 505.2238 480.7423 507.201C 481.1022 498.1133 481.0588 486.6934 479.0719 476.7875C 477.1747 466.8925 473.5768 458.7888 471.0053 456.2027C 470.5898 455.8789 470.2341 455.333 469.8937 454.6324C 469.5219 453.9498 469.1901 453.1192 468.8559 452.2482C 468.2255 450.4636 467.4424 448.5584 466.6362 447.2292L466.6362 447.2292L465.8926 448.2198C 465.2097 446.0901 464.5065 444.7227 463.9968 443.6191C 463.4781 442.4998 462.9963 441.7346 462.4562 440.9404C 461.4138 439.3093 460.2813 437.5217 457.4312 433.0738C 458.5104 435.0589 458.4725 435.9354 457.8471 435.899C 457.2216 435.8627 455.841 435.0933 453.9485 434.0138C 453.4141 432.9036 452.8171 431.8293 452.1954 430.7485C 451.5671 429.6924 450.9744 428.5531 450.2744 427.5173L450.2744 427.5173L448.0727 428.075C 447.1706 426.9052 446.0021 425.8887 444.6818 425.0429C 443.3748 424.1478 441.9695 423.3717 440.4973 422.6967C 441.8243 423.5178 441.0209 423.2086 440.7594 423.4423C 440.7573 422.7139 440.071 421.7744 438.999 420.7441C 437.8979 419.7722 436.3955 418.7186 434.8394 417.7166C 433.241 416.8222 431.6155 415.881 430.2462 415.1675C 428.8703 414.4788 427.8152 413.8766 427.4329 413.4294C 425.5069 413.9952 423.4765 413.3285 421.5222 412.5764C 419.5368 411.988 417.6275 411.3143 416.2741 412.2595C 415.282 411.7669 413.9672 411.2932 412.509 410.8602C 414.1855 410.0419 414.9534 408.9123 411.8943 409.0666L411.8943 409.0666L411.1925 408.9699L411.1925 408.9699L409.7953 410.2739C 408.3129 409.9799 406.7949 409.769 405.3983 409.6968C 404.0016 409.6245 402.7147 409.4892 401.6996 409.5728C 402.6023 409.3662 403.6754 409.1659 404.7817 408.8423C 403.4733 409.032 402.2659 409.2887 401.1102 409.5991C 400.7068 409.6226 400.3034 409.6461 400.03 409.6783C 400.2184 409.7159 400.4448 409.7108 400.6958 409.7123C 399.7774 409.9279 398.8568 410.103 397.8259 410.1956C 396.7975 410.3285 395.6837 410.3854 394.3521 410.3174C 389.3162 412.1091 383.5709 412.7036 377.6894 414.2936C 371.8706 415.8476 365.853 418.4332 361.9752 423.1444C 363.2471 421.9125 365.2533 420.3625 366.1008 420.4587C 361.9122 423.0348 358.2883 426.4116 355.3997 429.7616C 353.9429 431.4333 352.6476 433.0956 351.4212 434.5515C 350.2711 436.0677 349.116 437.3575 348.005 438.4343L348.005 438.4343L347.1949 437.3159C 342.5191 442.7779 339.6341 447.4392 337.2453 452.4196L337.2453 452.4196L335.7829 452.0517C 334.2043 455.7948 331.3284 461.3056 328.978 466.389C 326.6367 471.4881 324.7288 476.1085 325.1172 478.741C 323.3542 479.8802 320.9443 487.6871 318.3458 490.5993L318.3458 490.5993L318.7219 492.0507C 318.0997 493.1798 317.4164 494.094 316.7664 494.8848C 316.1008 495.6847 315.5314 496.4708 314.8853 497.0508C 313.5774 498.2201 312.4977 499.2788 311.265 500.0713C 308.4191 504.2932 304.1458 507.0845 299.7354 508.9125C 295.278 510.7675 290.6881 511.7397 286.2556 512.9133L286.2556 512.9133L286.2431 513.254C 283.1355 513.6864 280.0232 514.0381 276.8564 514.1501C 279.4448 514.8086 274.9322 513.7767 272.134 514.2397C 269.0917 513.9882 264.2159 514.4996 260.5889 515.189C 258.5426 515.2194 256.4826 515.1535 254.4159 515.1122C 261.2729 516.0881 253.905 516.7611 253.3862 517.9976L253.3862 517.9976L249.4019 516.7245C 247.7246 517.2514 251.9493 517.9276 248.9258 517.9989C 246.254 517.1592 238.1853 516.505 235.7444 514.9071C 236.1806 514.6144 237.1887 514.4099 238.4345 514.2562C 238.7733 514.374 238.7552 514.3427 238.5465 514.2335L238.5465 514.2335L238.8355 514.1923L238.8355 514.1923L238.4881 514.2045C 238.147 514.0463 237.6374 513.7766 237.424 513.5867C 232.2973 513.4083 234.2105 513.0376 234.4532 512.481C 228.4527 513.9728 225.2383 512.2985 220.5326 514.338C 223.7055 513.2218 220.3225 512.9579 216.6011 512.7219C 212.8797 512.4858 208.8113 512.4076 210.8206 511.1893C 206.2355 513.076 207.7051 511.2093 204.7849 512.9098C 211.1983 512.3896 217.3396 514.6945 222.2227 515.9717L222.2227 515.9717L217.247 516.8532C 220.2598 519.373 228.2478 516.8423 231.0705 517.9081C 229.1745 517.1849 224.7549 517.3296 224.5591 517.8591L224.5591 517.8591L226.0158 516.1874C 233.0289 516.0938 238.3465 518.0176 243.1489 519.2996C 238.4986 519.5144 248.6446 520.8082 245.2136 521.8019L245.2136 521.8019L241.5811 521.2854C 239.861 521.7744 243.342 522.6073 245.3657 523.2987C 251.1996 523.1119 259.4221 523.49 266.7191 523.1287C 274.0095 522.7921 280.3297 521.7836 282.2161 520.6777C 279.9771 521.5695 275.5845 521.7611 273.49 521.3815C 275.2641 520.9865 277.0088 520.5042 278.7378 520.0308C 274.4627 520.5718 271.1172 522.4753 264.5869 522.1036C 265.6125 520.9509 260.9956 519.5204 265.7538 517.826C 268.74 517.255 270.8196 517.1012 272.5366 517.1143C 274.2469 517.1521 275.5902 517.4218 277.0143 517.6866C 278.4473 517.9673 279.9857 518.2499 282.041 518.2351C 283.0789 518.2635 284.2464 518.1549 285.5928 517.9225C 286.9506 517.7461 288.467 517.3742 290.2159 516.8269C 290.9197 516.8182 290.0628 516.5606 289.9742 516.1529C 289.8923 515.7205 290.6059 515.1851 294.2993 514.2489C 298.9898 513.1979 303.1066 512.1642 306.3102 511.5725C 309.4373 510.9204 311.7594 510.8981 312.448 511.8779C 311.4408 512.3739 310.1445 512.9109 308.8126 513.5311C 307.4717 514.1356 305.9961 514.6508 304.6956 515.2529C 302.0223 516.3318 299.8019 517.4005 299.4911 518.4548C 300.5798 518.2456 301.8271 517.8409 303.1058 517.4181C 304.4024 517.0267 305.701 516.5299 306.8787 516.0402C 309.2813 515.1795 311.1818 514.3157 311.6738 514.6998C 313.0708 512.562 311.1888 513.6028 309.5193 514.5422C 307.8252 515.475 306.2716 516.1809 308.4508 513.9894C 311.0687 512.3794 312.5656 512.2272 313.9288 511.5891C 311.7494 512.113 315.3375 508.8192 315.6417 507.7896C 319.423 504.6141 321.7293 501.4113 323.9706 498.2042C 326.0592 494.8766 328.0757 491.4236 330.3713 486.7886C 330.3673 486.1655 330.3076 484.8657 329.7272 484.9077C 332.4972 480.7712 338.2379 475.3846 338.6522 477.6271C 341.136 472.1959 340.3272 471.5145 342.8566 467.1411C 341.3777 475.2256 343.2018 465.5667 345.3649 465.5942C 347.6429 461.0736 345.2158 463.5953 345.7607 461.2806C 346.2944 460.5775 347.7605 459.0672 348.31 459.1889C 348.3074 457.481 346.7657 458.3886 345.2215 459.2559C 343.7021 460.1298 342.1736 460.9881 342.1498 458.9171C 342.1974 457.5139 342.9274 454.0712 343.9002 450.9059C 344.79 447.7049 346.0213 444.8077 346.1435 444.404C 348.8989 443.0693 354.2485 447.6222 354.4503 451.6337C 355.0492 451.7687 355.3486 450.6584 355.6316 449.2657C 355.9482 447.8953 356.3315 446.2782 356.8535 445.3734C 357.8784 442.4074 359.6198 440.7595 361.4701 439.5911C 362.374 438.9878 363.2554 438.4182 364.1863 437.8619C 365.1082 437.29 365.8906 436.5482 366.7375 435.6649C 365.5353 436.1479 364.4478 436.7943 363.2592 437.3737C 363.3191 437.1516 363.746 436.6976 364.3451 436.1446C 364.9352 435.5759 365.7314 434.9304 366.6219 434.3765C 367.5034 433.8069 368.3602 433.2307 369.1481 432.8608C 369.9451 432.5067 370.5944 432.2583 370.9171 432.2395C 370.756 431.5608 365.7916 431.6644 367.2722 429.708C 371.0002 426.7299 375.6249 425.3832 378.9973 425.0486C 380.7319 424.9474 382.1598 425.0016 383.1805 425.2902C 384.2101 425.5944 384.7941 426.0298 384.8314 426.5295C 380.4024 427.3467 375.9951 428.6725 371.7484 430.5314C 371.9725 431.3198 374.2697 430.4571 376.5494 429.7087C 377.7207 429.3894 378.8764 429.0791 379.7615 428.9869C 380.6466 428.8948 381.2725 429.0768 381.3501 429.5742C 384.9111 427.7553 388.7627 426.478 392.6688 425.4405C 391.1563 425.6017 386.4876 426.4733 388.0258 425.0882C 393.2133 423.814 390.6187 424.1597 394.0125 422.6663C 390.7677 422.1353 385.9759 421.4517 381.1046 421.2099C 378.7062 421.1719 376.2718 421.0712 374.1495 421.187C 371.9888 421.1998 370.1289 421.3731 368.7887 421.4352C 371.1416 420.4154 373.5759 419.6823 375.9699 418.9516L375.9699 418.9516L377.326 417.3586C 379.7133 416.6526 382.219 416.5872 384.5301 416.6547C 386.9 416.8969 389.0638 417.2157 391.0068 417.9118C 394.8721 419.0866 397.6118 420.9505 398.7994 421.6016C 403.6568 420.9133 401.8877 417.5113 400.5569 416.9009C 405.7559 416.5164 408.2974 418.0356 410.6369 419.421C 412.9901 420.9026 415.1592 422.2817 419.9115 423.259C 418.6896 423.1279 417.4234 423.21 416.2151 423.1753C 416.7447 423.371 417.6642 423.5926 418.7049 423.8071L418.7049 423.8071L422.0023 424.6831C 424.1512 425.3024 425.8836 425.9946 425.3482 426.1149C 427.4544 425.8625 430.0019 424.7099 428.1821 423.2133C 429.3329 424.3442 430.5037 425.4011 431.5738 426.5367C 432.6149 427.7307 433.6984 428.817 434.6522 430.0403C 433.7305 429.0903 435.8384 427.0648 435.5944 426.3506C 438.8562 428.1434 439.0898 432.2827 436.9783 431.475C 440.341 432.501 441.5799 433.0602 442.6213 433.566C 443.6718 434.0875 444.6968 434.311 447.6068 435.3473C 449.0478 436.8741 445.4788 437.4468 444.2059 436.7197C 445.6701 438.5042 446.9556 439.7244 448.021 440.7794C 449.1087 441.8006 450.0903 442.5285 450.8925 443.2346C 448.7901 440.0869 449.4025 438.6506 450.7891 437.582C 452.1535 436.5471 454.2052 436.0549 454.4032 434.732C 456.7249 440.9431 458.1254 447.1837 458.6714 453.207C 458.815 452.4782 460.3318 449.8963 460.6409 449.7811C 460.3222 450.423 460.694 451.9394 461.5065 453.932C 462.2563 455.9606 463.3843 458.5014 464.4793 461.3113C 466.7476 466.886 468.6538 473.6071 469.6774 478.105C 469.6021 477.6479 469.4955 477.2089 469.3956 476.7452C 469.5721 475.7473 470.4053 477.1234 470.8865 479.2649C 471.4797 481.3835 471.7343 484.2182 471.4834 485.8843C 471.9099 485.2847 471.6724 484.5457 471.5339 483.1452C 472.8828 486.1426 472.0057 488.3148 471.2337 490.3432C 470.343 492.419 469.5819 494.3577 470.5121 497.5334C 470.5399 494.6823 470.6763 492.9986 471.0009 492.0406C 471.3411 491.0736 471.8381 490.8503 472.3315 490.9833C 471.9528 493.3693 471.9458 497.2716 471.4344 500.2967C 470.9789 503.3104 470.1352 505.3592 468.8449 504.0583C 469.1022 507.079 468.1838 509.6503 469.699 509.6752C 469.1102 511.5148 468.3083 513.3102 467.6029 515.0919C 466.774 516.8402 466.0685 518.6219 465.1385 520.3033C 465.697 519.6069 466.7716 519.1556 465.8685 522.4059C 466.7316 519.3036 468.2163 516.4484 469.2264 513.7828C 470.2949 511.1461 470.8663 508.7327 470.2336 506.9078C 472.0606 507.0035 472.6129 509.667 474.6172 506.7004C 473.2277 513.1282 470.8918 517.7655 468.4727 521.5334C 466.0627 525.317 463.3721 528.1779 460.7806 531.2111C 459.598 534.6639 458.1329 538.1333 456.6208 541.6296L456.6208 541.6296L455.657 541.6212L455.657 541.6212L456.4582 544.3916C 455.3179 545.381 454.4857 545.9639 454.5069 546.3269C 454.5258 546.6497 454.9534 546.4871 455.5084 546.147C 454.8051 547.1353 454.0701 547.9957 453.5825 548.3804C 454.2935 549.3265 456.4309 548.2222 458.5162 546.9186L458.5162 546.9186L459.1323 543.604C 461.1702 542.1817 462.9317 541.2936 461.9385 544.3873C 461.601 544.7065 461.1718 545.1202 460.7359 545.5585C 462.1434 544.7073 463.153 544.2517 462.8758 545.3283L462.8758 545.3283L457.4783 552.4354C 457.7512 551.4237 458.0067 549.8383 458.3265 547.9658C 454.3033 551.9893 449.6566 556.7049 450.9739 551.6737C 450.1776 553.8411 449.3903 556.0242 448.6456 558.2453C 445.8055 561.3174 444.6887 562.7101 443.5524 564.3227C 442.9673 565.1178 442.4208 566.0159 441.6689 567.2822C 440.8992 568.5171 440.0005 570.1805 438.7723 572.5756C 439.2698 573.3318 440.7467 570.8979 440.649 572.8303C 438.3204 576.0667 437.9039 580.9968 438.2087 584.9699L438.2087 584.9699L438.4856 587.7709C 438.6248 588.629 438.7278 589.4244 438.7836 590.1011C 438.8793 591.4636 438.8955 592.4341 438.3947 592.8681C 438.2419 595.937 437.9972 596.5989 437.5367 597.0306C 437.1478 597.4419 436.6215 597.5778 436.6339 599.5928C 436.8395 599.3704 437.2194 598.9434 437.4467 600.0635C 437.1778 601.6982 436.9896 603.3282 436.8665 604.9626C 437.7769 606.6904 436.9728 600.5445 438.6971 605.5357C 439.7733 614.4019 441.1102 619.5534 444.5931 625.8263C 448.4524 635.2181 440.0779 623.0865 443.9189 630.7794C 445.5502 631.4047 447.3154 631.8278 449.7469 636.454C 450.1875 639.2859 449.1813 639.3851 450.7246 643.7717L450.7246 643.7717L452.2726 642.6937C 454.061 646.564 455.1368 649.7393 456.4241 649.1865C 457.1197 652.6431 458.1633 654.7112 459.1022 656.2349C 459.808 659.3104 458.5014 658.561 456.8876 656.9875C 455.2738 655.4142 453.2296 652.9835 452.6005 652.4698C 456.4072 657.4933 457.0731 661.5505 460.2112 663.9983C 459.8366 662.2959 459.3723 660.5825 458.9079 658.8691C 462.0127 663.796 462.0699 666.5774 462.1246 668.4847C 462.1726 670.4166 462.1531 671.4702 464.544 673.5973C 463.7896 669.9661 463.3997 665.2288 465.01 667.1586L465.01 667.1586L465.2332 670.0113L465.2332 670.0113L465.3331 672.8307C 465.9488 673.3938 465.0417 669.642 466.0975 672.0575C 466.0483 673.7118 465.513 677.0216 464.979 678.4128L464.979 678.4128L465.0886 678.3497C 465.2097 681.5322 465.0707 684.6974 464.5392 687.7966C 464.6463 686.0256 465.3759 685.6268 465.2555 687.4471C 465.032 688.4721 464.5527 689.4149 464.2216 690.3975C 463.8657 691.3735 463.5568 692.3225 463.0349 693.2273C 464.0479 691.5815 463.9995 693.5271 463.4426 696.3282C 462.7935 698.2443 462.0146 699.4635 461.2953 700.3151C 460.4593 701.1086 459.6827 701.5344 458.9755 701.8995C 458.2525 702.2736 457.6819 702.6227 457.0761 703.2004C 456.4547 703.7872 455.9214 704.6359 455.4281 706.1704C 455.8944 705.4227 456.1702 705.4309 456.6522 704.6742C 456.2403 705.6616 455.9475 706.7473 455.4213 707.717C 454.5682 707.2487 453.3663 707.8774 452.0338 709.04C 451.3292 709.5912 450.5175 710.2457 449.726 710.9719C 448.9526 711.7294 448.0492 712.4784 447.1278 713.196C 445.3884 714.7385 443.3723 715.9814 441.7789 716.8354C 440.1066 717.5887 438.7668 717.7965 438.1417 717.072C 435.0698 720.611 438.3893 718.2638 444.2093 716.313L444.2093 716.313L442.5223 718.2006L442.5223 718.2006L440.7073 719.9742C 442.5651 719.0724 443.7474 717.8295 445.7215 716.84L445.7215 716.84L445.6885 716.9633zM454.8425 449.7391C 454.2232 446.3429 452.8993 445.0197 451.0638 443.5321C 452.5 443.3106 453.9698 443.1115 455.4666 442.9594C 455.3208 445.3155 455.1746 447.5259 454.8424 449.7391L454.8424 449.7391L454.8425 449.7391zM450.9362 443.5638C 450.8911 443.4855 450.8641 443.4385 450.819 443.3602L450.819 443.3602L451.0572 443.5568L451.0572 443.5568L450.9295 443.5885L450.9295 443.5885L450.9362 443.5638zM240.4235 716.5129C 240.2825 716.594 240.1416 716.6751 240.0119 716.8122C 237.7111 717.1975 238.6651 716.8989 240.4235 716.5129zM245.1345 514.3425C 243.8969 514.2205 242.7627 514.2057 241.6285 514.191C 242.0633 514.1495 242.2379 514.0907 242.1369 514.0237L242.1369 514.0237L245.1255 514.3268L245.1255 514.3268L245.1345 514.3425zM239.3209 513.7672L237.4156 513.7165C 237.1504 513.4729 237.4281 513.3757 239.3209 513.7672zM238.8271 514.3222C 239.6562 514.2414 240.6087 514.1938 241.6285 514.191C 241.1782 514.2416 240.3154 514.3 238.8271 514.3222zM330.3317 486.9365L330.4186 486.7615C 330.3219 487.4633 330.3305 487.3333 330.3317 486.9365zM231.0802 518.0692C 231.5357 518.2451 231.8725 518.4683 231.898 518.7662C 231.7335 518.444 231.4617 518.225 231.0802 518.0692zM242.1302 514.0484C 239.9687 513.7698 241.8047 513.8812 242.1302 514.0484zM72.26977 620.7115C 71.87785 621.625 71.34425 623.1618 70.83726 624.6C 71.02123 623.8688 71.44602 622.6863 72.26977 620.7115zM89.06477 713.0126C 88.90966 712.8516 88.74318 712.6346 88.58807 712.4738C 88.67736 712.339 88.84618 712.5963 89.06477 713.0126zM312.0401 499.0626C 311.8306 499.4958 311.5244 499.797 311.2723 500.1922C 310.4937 500.7233 309.7579 501.2925 308.9818 501.864C 308.1629 502.3975 307.3241 503.0051 306.443 503.7203C 307.1667 502.8038 308.0226 501.9362 308.9484 501.1536C 309.8134 500.3016 310.8672 499.633 312.0648 499.0692L312.0648 499.0692L312.0401 499.0626zM477.2603 689.6524C 476.7783 691.2429 476.3453 691.8672 476.0961 691.7604C 476.6678 690.1808 477.0103 689.2542 477.2603 689.6524zM301.3326 507.702C 303.4304 506.0576 304.9733 504.7533 306.434 503.7047C 305.3591 504.8441 304.4232 506.0078 303.5782 506.7857C 302.6904 507.5256 301.9542 507.9491 301.3392 507.6774L301.3392 507.6774L301.3326 507.702zM394.8367 729.3469C 394.0016 728.91 393.1866 728.399 392.3739 727.9283C 396.3444 728.2712 394.548 728.7 394.8367 729.3469zM452.5425 547.4778L450.9252 551.806C 451.1891 550.7787 451.7141 549.3719 452.5425 547.4778zM458.2935 548.0892L458.4743 547.0262L460.694 545.6661L458.2935 548.0892zM404.8226 408.9856L407.705 408.1616C 408.639 407.9371 409.5507 407.7462 410.3191 407.5961C 411.8492 407.3206 412.8444 407.3111 412.5323 407.9283L412.5323 407.9283L411.2244 409.0976C 409.908 408.8749 408.7288 408.7819 407.6819 408.7378C 406.6218 408.743 405.6807 408.8465 404.8136 408.97L404.8136 408.97L404.8226 408.9856zM464.4205 678.9634L464.9393 678.5608C 464.706 679.2787 464.4961 679.5662 464.4205 678.9634zM463.0109 693.3662L462.1037 695.1597C 462.4822 694.2957 462.7587 693.7614 463.0109 693.3662zM199.5961 512.0793L199.1492 510.9397C 200.1314 511.1252 201.0847 511.3691 202.0603 511.5792L202.0603 511.5792L199.5871 512.0636L199.5871 512.0636L199.5961 512.0793zM188.5903 512.6976L187.2982 511.502C 189.032 511.9432 190.7388 512.3374 192.4124 512.8549C 191.1435 512.7509 189.8702 512.7119 188.5814 512.6819L188.5814 512.6819L188.5903 512.6976zM146.5402 530.5254C 149.0317 529.3842 151.5772 528.337 154.1184 527.3549C 152.9957 528.23 151.9541 529.246 150.8831 530.1747L150.8831 530.1747L150.7714 529.5093C 146.7613 531.8159 147.3051 530.7318 146.5492 530.5411L146.5492 530.5411L146.5402 530.5254zM128.8896 545.0345C 128.227 545.3322 127.4649 545.312 125.7568 546.8364C 124.4453 548.3621 126.1481 547.2993 126.324 547.6776C 125.039 548.2707 122.0092 550.0343 124.979 546.8252L124.979 546.8252L125.6259 546.5364C 128.3435 543.7225 131.5705 539.5108 130.9055 539.7682C 130.6433 541.3783 130.2859 542.6053 128.8987 545.0501L128.8987 545.0501L128.8896 545.0345zM126.2602 548.1104C 126.4141 547.8342 126.3624 547.7806 126.3173 547.7023C 126.8926 547.434 127.1479 547.3705 126.2602 548.1104zM166.1054 518.5841C 168.0817 519.1568 173.0934 518.338 170.5061 520.4724C 164.6611 522.2708 166.0959 520.7784 162.4154 521.5195C 171.9867 518.516 159.426 521.7588 166.0745 518.7478C 164.1167 519.1859 162.381 519.6839 160.8138 520.2935C 162.4409 519.4618 164.0571 518.7198 165.568 517.9759L165.568 517.9759L165.3667 518.1334L165.3667 518.1334L165.3354 518.1514C 164.9641 518.4483 164.8749 518.5831 165.2978 518.3398C 165.3382 518.3374 165.4502 518.3147 165.5062 518.3033C 165.6276 518.442 165.852 518.5422 166.0988 518.6087C 168.8142 517.4221 166.4359 518.1438 165.5062 518.3033C 165.4545 518.2497 165.3558 518.223 165.3287 518.176L165.3287 518.176L165.36 518.158C 168.6411 517.2299 171.9946 516.5726 175.3415 515.9401C 174.2979 516.2277 173.1559 516.6343 171.6575 517.0375C 170.1681 517.4564 168.3471 517.8784 166.0831 518.6177L166.0831 518.6177L166.1054 518.5841zM177.49 515.5799L175.3639 515.9064C 176.5329 515.5468 177.5291 515.1404 178.6014 514.6488C 179.6803 514.1324 180.8442 513.5464 182.3911 512.8652C 186.0803 512.8279 186.8523 513.1552 187.1558 513.5018C 183.6676 514.0697 180.157 514.6713 176.7435 515.5506L176.7435 515.5506L177.4967 515.5552L177.4967 515.5552L177.49 515.5799zM196.4802 520.6884C 196.0892 519.5374 190.2819 518.7916 185.6568 520.8264C 180.8197 520.7527 183.1208 516.4897 187.282 513.7211C 187.4897 514.2271 187.5758 514.5944 192.7542 514.8263C 191.8922 515.1761 189.0991 515.8654 187.0971 516.5166C 185.0999 517.2484 183.9094 517.9332 186.0885 518.0974C 192.7671 517.8208 191.4515 517.0557 194.6542 516.1725C 193.3184 517.0033 195.4823 517.3223 197.7723 517.8605C 200.0509 518.3427 202.4557 519.0442 201.7571 520.113C 199.8647 519.8673 197.9546 519.736 196.0332 519.5487C 195.9557 519.8851 198.0213 520.323 196.4802 520.6882L196.4802 520.6882L196.4802 520.6884zM144.7218 527.1101C 145.8054 526.6745 146.7778 526.553 147.7142 526.3688C 146.4492 526.8879 145.256 527.3866 144.226 527.7705C 144.4159 527.557 144.6035 527.3033 144.7127 527.0945L144.7127 527.0945L144.7218 527.1101zM144.7218 527.1101L144.3971 527.2344C 144.9132 526.6456 144.8979 526.8003 144.7218 527.1101zM169.1333 516.092L165.5747 517.9513C 166.5431 517.2067 168.6171 515.847 169.1333 516.092zM152.2816 524.5964C 150.3596 525.7853 149.0449 526.1454 147.7232 526.3844C 149.2971 525.7502 150.8863 524.9612 152.6302 524.1875C 152.8702 524.2787 152.9556 524.3547 152.266 524.6054L152.266 524.6054L152.2816 524.5964zM187.7026 513.4374L187.2976 513.712C 187.2976 513.712 187.2165 513.571 187.1805 513.5084L187.1805 513.5084L187.7272 513.4441L187.7272 513.4441L187.7026 513.4374zM143.7604 527.9758L144.235 527.7861C 144.0228 528.0333 143.8125 528.1752 143.7604 527.9758zM153.5738 522.6024C 154.7186 522.3817 155.8629 522.0154 157.0518 521.5817C 158.2522 521.204 159.5038 520.7343 160.8204 520.2688L160.8204 520.2688L156.6928 522.226C 155.3319 522.9045 153.9777 523.5583 152.6368 524.1628C 152.0916 523.9761 150.6053 523.8928 153.5648 522.5867L153.5648 522.5867L153.5738 522.6024zM133.1191 537.0566C 132.3559 537.433 131.5656 537.7625 130.8203 538.1703C 131.3055 537.7453 131.8267 537.3829 132.3299 536.9894L132.3299 536.9894L133.1191 537.0566zM130.8203 538.1703L126.8511 541.454C 126.7269 541.1293 127.1905 540.1956 125.8472 540.7597L125.8472 540.7597L130.8113 538.1547L130.8113 538.1547L130.8203 538.1703zM116.673 549.4553C 119.2803 548.0807 124.2091 544.8706 120.5929 549.3479C 118.5036 550.0284 120.5695 547.4226 116.673 549.4553zM131.8887 535.5336L132.2937 535.259C 132.2091 535.4745 132.1331 535.5599 131.8887 535.5336zM133.8441 534.2214L133.8887 534.1541C 135.582 532.9299 136.8328 532.1688 137.3474 531.8311C 136.8954 532.1328 135.8013 532.8038 133.8531 534.2371L133.8531 534.2371L133.8441 534.2214zM132.2937 535.259C 132.4628 534.8282 132.664 533.837 134.7927 532.0289L134.7927 532.0289L133.873 534.1631L133.873 534.1631L132.278 535.2681L132.278 535.2681L132.2937 535.259zM161.547 518.0164C 160.165 518.3318 158.6638 518.5491 157.026 518.7822C 158.5021 518.4127 159.9985 518.1149 161.547 518.0164zM148.333 523.2402C 146.054 523.4462 150.2779 520.6415 148.0515 521.1924C 149.643 520.4438 151.2197 519.9955 152.7361 519.6237C 154.2458 519.2765 155.6436 518.952 157.035 518.7979C 155.6217 519.1313 154.2964 519.7268 152.8482 520.4348C 151.4 521.1426 149.9143 522.0389 148.342 523.2559L148.342 523.2559L148.333 523.2402zM137.1743 529.2832L134.2085 529.9258L139.3107 528.5756L137.1587 529.2922L137.1743 529.2832zM108.3507 559.016C 106.1404 560.5374 103.9392 562.0745 101.8258 563.7279C 104.2745 561.715 106.8759 559.8226 109.4213 557.9416L109.4213 557.9416L108.3507 559.016L108.3507 559.016L108.3507 559.016zM121.3589 542.7784L125.651 540.3098C 122.3012 543.112 121.4479 543.3318 121.3589 542.7784zM121.6903 540.2738C 122.1861 540.4473 121.2562 542.1287 121.3589 542.7784C 120.4034 543.328 119.4659 543.9089 118.5283 544.4899C 119.5824 543.1331 121.9477 540.9388 121.715 540.2805L121.715 540.2805L121.6903 540.2738zM89.83765 584.8197C 89.37643 585.7938 88.89052 586.7612 88.43831 587.751L88.43831 587.751L86.30527 589.6241C 87.34261 588.673 89.41695 584.2695 89.82864 584.8041L89.82864 584.8041L89.83765 584.8197zM99.07189 564.8115C 97.82285 566.9893 96.02358 569.5876 99.36863 566.7047C 96.5778 569.79 95.12846 570.8947 95.05324 570.4376C 94.9443 569.9583 96.28344 567.9373 99.08092 564.8272L99.08092 564.8272L99.07189 564.8115zM100.6479 562.55C 101.8733 561.4908 103.0739 560.425 104.3666 559.4105C 104.1802 560.1014 104.6143 560.6023 102.6874 560.8766C 103.4073 561.0046 102.3323 561.3103 100.648 562.55L100.648 562.55L100.6479 562.55zM106.1601 557.962L104.3666 559.4105C 104.4954 558.9821 104.8638 558.4991 106.1601 557.962zM102.1805 559.9591L98.71877 562.7841C 98.97595 561.7814 101.5024 558.7439 100.2743 559.6171C 103.6389 556.5145 103.3684 557.5664 102.1649 559.9681L102.1649 559.9681L102.1805 559.9591zM91.89791 571.4395C 89.77359 574.0164 92.73692 569.31 91.89791 571.4395zM93.86988 568.8877C 93.84226 570.2169 96.66706 566.4658 91.62189 572.1194C 91.79574 571.7692 91.81334 571.6549 91.91358 571.4304C 92.3447 570.9114 92.93206 570.1567 93.88555 568.8787L93.88555 568.8787L93.86988 568.8877zM87.24893 584.8495C 87.18044 588.3911 80.55225 593.8295 78.27592 598.9329L78.27592 598.9329L78.16441 599.9351L78.16441 599.9351L75.55899 601.2043C 79.21464 595.5995 84.96542 588.998 87.24893 584.8495zM70.7 610.8785L70.05304 611.1672C 71.13891 609.9381 72.25845 608.7313 73.378 607.5245L73.378 607.5245L70.70901 610.8942L70.70901 610.8942L70.7 610.8785zM52.28568 639.8983C 52.51593 639.6826 52.90889 640.7281 53.6837 638.8857C 53.82314 639.0557 53.88905 636.9957 52.28568 639.8983z" stroke="none" fill="#004AAD" fill-rule="nonzero" /></g></g></g></g><g clip-path="url(#12)"><g transform="matrix(0.06311637 0 0 0.06344148 475.9692 14.82153)"><g transform="matrix(1 0 0 1 0 0)"><image x="0" y="0" xlink:href="img_03.png" width="1521" height="863" /></g></g></g><g clip-path="url(#13)"></g></g></g></svg>