<svg xmlns="http://www.w3.org/2000/svg" xmlns:xlink="http://www.w3.org/1999/xlink" id="body_1" preserveAspectRatio="xMinYMin meet" viewBox="0 0 793 1123"><defs><clipPath id="1"><path id="" clip-rule="evenodd" transform="matrix(1 0 0 1 0 0)" d="M0 842L0 -0.25L0 -0.25L595.5 -0.25L595.5 -0.25L595.5 842L595.5 842L0 842z" /></clipPath><clipPath id="2"><path id="" clip-rule="evenodd" transform="matrix(1 0 0 1 0 0)" d="M0 -0.249939L595.5 -0.249939L595.5 -0.249939L595.5 842.0001L595.5 842.0001L0 842.0001z" /></clipPath><clipPath id="3"><path id="" clip-rule="evenodd" transform="matrix(1 0 0 1 0 0)" d="M0 -0.249939L595.5 -0.249939L595.5 -0.249939L595.5 842.0001L595.5 842.0001L0 842.0001z" /></clipPath><clipPath id="4"><path id="" clip-rule="evenodd" transform="matrix(1 0 0 1 0 0)" d="M0 -0.249939L595.5 -0.249939L595.5 -0.249939L595.5 842.0001L595.5 842.0001L0 842.0001z" /></clipPath><clipPath id="5"><path id="" clip-rule="evenodd" transform="matrix(1 0 0 1 0 0)" d="M83.99999 42.71008L527.52 42.71008L527.52 42.71008L527.52 822.9501L527.52 822.9501L83.99999 822.9501z" /></clipPath><clipPath id="6"><path id="" clip-rule="evenodd" transform="matrix(1 0 0 1 0 0)" d="M84.8288 42.90796L527.3288 42.90796L527.3288 42.90796L527.3288 822.908L527.3288 822.908L84.8288 822.908z" /></clipPath><clipPath id="7"><path id="" clip-rule="evenodd" transform="matrix(1 0 0 1 0 0)" d="M34.08 64.07007L577.68 64.07007L577.68 64.07007L577.68 322.79L577.68 322.79L34.08 322.79z" /></clipPath><clipPath id="8"><path id="" clip-rule="evenodd" transform="matrix(1 0 0 1 0 0)" d="M49.04298 79.15332L563.2053 79.15332L563.2053 79.15332L563.2053 309.2679L563.2053 309.2679L49.04298 309.2679z" /></clipPath><clipPath id="9"><path id="" clip-rule="evenodd" transform="matrix(1 0 0 1 0 0)" d="M78.29298 79.15332L533.7859 79.15332C 549.9403 79.15332 563.0359 92.24896 563.0359 108.4033L563.0359 108.4033L563.0359 280.0179C 563.0359 296.1722 549.9403 309.2679 533.7859 309.2679L533.7859 309.2679L78.29298 309.2679C 62.13866 309.2679 49.04298 296.1722 49.04298 280.0179L49.04298 280.0179L49.04298 108.4033C 49.04298 92.24896 62.13866 79.15332 78.29298 79.15332z" /></clipPath><clipPath id="10"><path id="" clip-rule="evenodd" transform="matrix(1 0 0 1 0 0)" d="M49.04298 79.15332L562.793 79.15332L562.793 79.15332L562.793 309.4033L562.793 309.4033L49.04298 309.4033z" /></clipPath><clipPath id="11"><path id="" clip-rule="evenodd" transform="matrix(1 0 0 1 0 0)" d="M49.04448 79.15332L565.6729 79.15332L565.6729 79.15332L565.6729 310.7454L565.6729 310.7454L49.04448 310.7454z" /></clipPath><clipPath id="12"><path id="" clip-rule="evenodd" transform="matrix(1 0 0 1 0 0)" d="M78.29382 79.15332L533.7764 79.15332C 549.9305 79.15332 563.0259 92.24872 563.0259 108.4026L563.0259 108.4026L563.0259 280.0133C 563.0259 296.1673 549.9305 309.2627 533.7764 309.2627L533.7764 309.2627L78.29382 309.2627C 62.13986 309.2627 49.04448 296.1673 49.04448 280.0133L49.04448 280.0133L49.04448 108.4026C 49.04448 92.24872 62.13986 79.15332 78.29382 79.15332z" /></clipPath><clipPath id="13"><path id="" clip-rule="evenodd" transform="matrix(1 0 0 1 0 0)" d="M0 -0.249939L595.5 -0.249939L595.5 -0.249939L595.5 842.0001L595.5 842.0001L0 842.0001z" /></clipPath><clipPath id="14"><path id="" clip-rule="evenodd" transform="matrix(1 0 0 1 0 0)" d="M0 -0.249939L595.5 -0.249939L595.5 -0.249939L595.5 842.0001L595.5 842.0001L0 842.0001z" /></clipPath><clipPath id="15"><path id="" clip-rule="evenodd" transform="matrix(1 0 0 1 0 0)" d="M402.4682 129.5921L546.8286 129.5921L546.8286 129.5921L546.8286 273.9525L546.8286 273.9525L402.4682 273.9525z" /></clipPath><clipPath id="16"><path id="" clip-rule="evenodd" transform="matrix(1 0 0 1 0 0)" d="M474.6484 129.5921C 434.7844 129.5921 402.4682 161.9083 402.4682 201.7723C 402.4682 241.6363 434.7844 273.9525 474.6484 273.9525C 514.5124 273.9525 546.8286 241.6363 546.8286 201.7723C 546.8286 161.9083 514.5124 129.5921 474.6484 129.5921z" /></clipPath><clipPath id="17"><path id="" clip-rule="evenodd" transform="matrix(1 0 0 1 0 0)" d="M402.4682 129.5921L546.8286 129.5921L546.8286 129.5921L546.8286 273.9525L546.8286 273.9525L402.4682 273.9525z" /></clipPath><clipPath id="18"><path id="" clip-rule="evenodd" transform="matrix(1 0 0 1 0 0)" d="M0 -0.249939L595.5 -0.249939L595.5 -0.249939L595.5 842.0001L595.5 842.0001L0 842.0001z" /></clipPath><clipPath id="19"><path id="" clip-rule="evenodd" transform="matrix(1 0 0 1 0 0)" d="M0 -0.249939L595.5 -0.249939L595.5 -0.249939L595.5 842.0001L595.5 842.0001L0 842.0001z" /></clipPath><clipPath id="20"><path id="" clip-rule="evenodd" transform="matrix(1 0 0 1 0 0)" d="M402.4682 129.5921L546.4683 129.5921L546.4683 129.5921L546.4683 273.5921L546.4683 273.5921L402.4682 273.5921z" /></clipPath><clipPath id="21"><path id="" clip-rule="evenodd" transform="matrix(1 0 0 1 0 0)" d="M402.4682 129.5921L546.8198 129.5921L546.8198 129.5921L546.8198 273.9437L546.8198 273.9437L402.4682 273.9437z" /></clipPath><clipPath id="22"><path id="" clip-rule="evenodd" transform="matrix(1 0 0 1 0 0)" d="M474.644 129.5921C 434.7824 129.5921 402.4682 161.9063 402.4682 201.7679C 402.4682 241.6295 434.7824 273.9437 474.644 273.9437C 514.5056 273.9437 546.8198 241.6295 546.8198 201.7679C 546.8198 161.9063 514.5056 129.5921 474.644 129.5921z" /></clipPath><clipPath id="23"><path id="" clip-rule="evenodd" transform="matrix(1 0 0 1 0 0)" d="M0 -0.249939L595.5 -0.249939L595.5 -0.249939L595.5 842.0001L595.5 842.0001L0 842.0001z" /></clipPath><clipPath id="24"><path id="" clip-rule="evenodd" transform="matrix(1 0 0 1 0 0)" d="M25.68 517.4301L575.28 517.4301L575.28 517.4301L575.28 835.4301L575.28 835.4301L25.68 835.4301z" /></clipPath><clipPath id="25"><path id="" clip-rule="evenodd" transform="matrix(1 0 0 1 0 0)" d="M40.64131 532.3754L563.6221 532.3754L563.6221 532.3754L563.6221 822.7941L563.6221 822.7941L40.64131 822.7941z" /></clipPath><clipPath id="26"><path id="" clip-rule="evenodd" transform="matrix(1 0 0 1 0 0)" d="M69.8913 532.3754L533.786 532.3754C 549.9403 532.3754 563.0359 545.471 563.0359 561.6254L563.0359 561.6254L563.0359 793.5441C 563.0359 809.6985 549.9403 822.7941 533.786 822.7941L533.786 822.7941L69.8913 822.7941C 53.73698 822.7941 40.64131 809.6985 40.64131 793.5441L40.64131 793.5441L40.64131 561.6254C 40.64131 545.471 53.73698 532.3754 69.8913 532.3754z" /></clipPath><clipPath id="27"><path id="" clip-rule="evenodd" transform="matrix(1 0 0 1 0 0)" d="M40.64131 532.3754L563.3913 532.3754L563.3913 532.3754L563.3913 822.6253L563.3913 822.6253L40.64131 822.6253z" /></clipPath><clipPath id="28"><path id="" clip-rule="evenodd" transform="matrix(1 0 0 1 0 0)" d="M40.64162 532.3754L563.2115 532.3754L563.2115 532.3754L563.2115 823.3517L563.2115 823.3517L40.64162 823.3517z" /></clipPath><clipPath id="29"><path id="" clip-rule="evenodd" transform="matrix(1 0 0 1 0 0)" d="M69.89114 532.3754L533.7782 532.3754C 549.9323 532.3754 563.0277 545.4708 563.0277 561.6249L563.0277 561.6249L563.0277 793.5399C 563.0277 809.6939 549.9323 822.7894 533.7782 822.7894L533.7782 822.7894L69.89114 822.7894C 53.73708 822.7894 40.64162 809.6939 40.64162 793.5399L40.64162 793.5399L40.64162 561.6249C 40.64162 545.4708 53.73708 532.3754 69.89114 532.3754z" /></clipPath><clipPath id="30"><path id="" clip-rule="evenodd" transform="matrix(1 0 0 1 0 0)" d="M0 -0.249939L595.5 -0.249939L595.5 -0.249939L595.5 842.0001L595.5 842.0001L0 842.0001z" /></clipPath><clipPath id="31"><path id="" clip-rule="evenodd" transform="matrix(1 0 0 1 0 0)" d="M0 -0.249939L595.5 -0.249939L595.5 -0.249939L595.5 842.0001L595.5 842.0001L0 842.0001z" /></clipPath><clipPath id="32"><path id="" clip-rule="evenodd" transform="matrix(1 0 0 1 0 0)" d="M428.6992 584.1602L554.6342 584.1602L554.6342 584.1602L554.6342 710.0952L554.6342 710.0952L428.6992 710.0952z" /></clipPath><clipPath id="33"><path id="" clip-rule="evenodd" transform="matrix(1 0 0 1 0 0)" d="M491.6668 584.1602C 456.8907 584.1602 428.6992 612.3517 428.6992 647.1277C 428.6992 681.9037 456.8907 710.0952 491.6668 710.0952C 526.4427 710.0952 554.6342 681.9037 554.6342 647.1277C 554.6342 612.3517 526.4427 584.1602 491.6668 584.1602z" /></clipPath><clipPath id="34"><path id="" clip-rule="evenodd" transform="matrix(1 0 0 1 0 0)" d="M428.6992 584.1602L554.6342 584.1602L554.6342 584.1602L554.6342 710.0952L554.6342 710.0952L428.6992 710.0952z" /></clipPath><clipPath id="35"><path id="" clip-rule="evenodd" transform="matrix(1 0 0 1 0 0)" d="M0 -0.249939L595.5 -0.249939L595.5 -0.249939L595.5 842.0001L595.5 842.0001L0 842.0001z" /></clipPath><clipPath id="36"><path id="" clip-rule="evenodd" transform="matrix(1 0 0 1 0 0)" d="M0 -0.249939L595.5 -0.249939L595.5 -0.249939L595.5 842.0001L595.5 842.0001L0 842.0001z" /></clipPath><clipPath id="37"><path id="" clip-rule="evenodd" transform="matrix(1 0 0 1 0 0)" d="M428.6992 584.1602L554.6992 584.1602L554.6992 584.1602L554.6992 710.1602L554.6992 710.1602L428.6992 710.1602z" /></clipPath><clipPath id="38"><path id="" clip-rule="evenodd" transform="matrix(1 0 0 1 0 0)" d="M428.6992 584.1602L554.6289 584.1602L554.6289 584.1602L554.6289 710.0898L554.6289 710.0898L428.6992 710.0898z" /></clipPath><clipPath id="39"><path id="" clip-rule="evenodd" transform="matrix(1 0 0 1 0 0)" d="M491.6641 584.1602C 456.8896 584.1602 428.6992 612.3505 428.6992 647.125C 428.6992 681.8995 456.8896 710.0898 491.6641 710.0898C 526.4386 710.0898 554.6289 681.8995 554.6289 647.125C 554.6289 612.3505 526.4386 584.1602 491.6641 584.1602z" /></clipPath><clipPath id="40"><path id="" clip-rule="evenodd" transform="matrix(1 0 0 1 0 0)" d="M193.5546 328.7679L402.0546 328.7679L402.0546 328.7679L402.0546 537.2679L402.0546 537.2679L193.5546 537.2679z" /></clipPath><clipPath id="41"><path id="" clip-rule="evenodd" transform="matrix(1 0 0 1 0 0)" d="M509.6544 17.08496L583.9044 17.08496L583.9044 17.08496L583.9044 59.08496L583.9044 59.08496L509.6544 59.08496z" /></clipPath><clipPath id="42"><path id="" clip-rule="evenodd" transform="matrix(1 0 0 1 0 0)" d="M0 -0.249939L595.5 -0.249939L595.5 -0.249939L595.5 842.0001L595.5 842.0001L0 842.0001z" /></clipPath></defs><g transform="matrix(1.333333 0 0 1.333333 0 0)"><g clip-path="url(#1)"><g clip-path="url(#2)"><path id="1" transform="matrix(1 0 0 -1 0 842)" d="M0 842.2499L595.4999 842.2499L595.4999 -6.103516E-05L0 -6.103516E-05z" stroke="none" fill="#FFFFFF" fill-rule="nonzero" /></g><g clip-path="url(#3)"><path id="2" transform="matrix(1 0 0 -1 0 842)" d="M0 842.2499L595.4999 842.2499L595.4999 -6.103516E-05L0 -6.103516E-05z" stroke="none" fill="#FFFFFF" fill-rule="nonzero" /></g><g clip-path="url(#4)"><g><g clip-path="url(#5)"><g clip-path="url(#6)"><g transform="matrix(0 0.5128205 -0.5127462 0 527.3287 42.90796)"><g transform="matrix(1 0 0 1 0 0)"><image x="0" y="0" xlink:href="img_01.png" width="1521" height="863" /></g></g></g></g></g><g><g clip-path="url(#7)"><g clip-path="url(#8)"><g clip-path="url(#9)"><path id="4" transform="matrix(1 0 0 -1 0 842)" d="M49.04298 762.8467L563.2052 762.8467L563.2052 532.7321L49.04298 532.7321z" stroke="none" fill="#A0FF8C" fill-rule="nonzero" fill-opacity="0.1764706" /></g></g><g clip-path="url(#10)"><g clip-path="url(#11)"><g clip-path="url(#12)"><path id="5" transform="matrix(1 0 0 -1 0 842)" d="M78.29382 762.8467L533.7764 762.8467C 549.9304 762.8467 563.0258 749.7513 563.0258 733.5974L563.0258 733.5974L563.0258 561.9867C 563.0258 545.8327 549.9304 532.7373 533.7764 532.7373L533.7764 532.7373L78.29382 532.7373C 62.13985 532.7373 49.04448 545.8327 49.04448 561.9867L49.04448 561.9867L49.04448 733.5974C 49.04448 749.7513 62.13985 762.8467 78.29382 762.8467z" stroke="#000000" stroke-width="6" fill="none" /></g></g></g></g></g><path id="87" transform="matrix(1 0 0 -1 0 842)" d="M87.30605 647.9668C 87.30605 647.6685 87.24895 647.3814 87.13477 647.1058C 87.02059 646.8301 86.85801 646.5868 86.64703 646.3758C 86.43605 646.1649 86.19273 646.0023 85.91708 645.8881C 85.64143 645.7739 85.35442 645.7168 85.05605 645.7168C 84.75768 645.7168 84.47066 645.7739 84.19501 645.8881C 83.91935 646.0023 83.67603 646.1649 83.46506 646.3758C 83.25407 646.5868 83.09149 646.8301 82.97731 647.1058C 82.86314 647.3814 82.80605 647.6685 82.80605 647.9668C 82.80605 648.2652 82.86314 648.5522 82.97731 648.8279C 83.09149 649.1035 83.25407 649.3468 83.46506 649.5578C 83.67603 649.7688 83.91935 649.9313 84.19501 650.0455C 84.47066 650.1597 84.75768 650.2168 85.05605 650.2168C 85.35442 650.2168 85.64143 650.1597 85.91708 650.0455C 86.19273 649.9313 86.43605 649.7688 86.64703 649.5578C 86.85801 649.3468 87.02059 649.1035 87.13477 648.8279C 87.24895 648.5522 87.30605 648.2652 87.30605 647.9668z" stroke="none" fill="#000000" fill-rule="nonzero" /><path id="107" transform="matrix(1 0 0 -1 0 842)" d="M87.30605 629.9668C 87.30605 629.6685 87.24895 629.3814 87.13477 629.1058C 87.02059 628.8301 86.85801 628.5868 86.64703 628.3758C 86.43605 628.1649 86.19273 628.0023 85.91708 627.8881C 85.64143 627.7739 85.35442 627.7168 85.05605 627.7168C 84.75768 627.7168 84.47066 627.7739 84.19501 627.8881C 83.91935 628.0023 83.67603 628.1649 83.46506 628.3758C 83.25407 628.5868 83.09149 628.8301 82.97731 629.1058C 82.86314 629.3814 82.80605 629.6685 82.80605 629.9668C 82.80605 630.2652 82.86314 630.5522 82.97731 630.8278C 83.09149 631.1035 83.25407 631.3468 83.46506 631.5578C 83.67603 631.7688 83.91935 631.9313 84.19501 632.0455C 84.47066 632.1597 84.75768 632.2168 85.05605 632.2168C 85.35442 632.2168 85.64143 632.1597 85.91708 632.0455C 86.19273 631.9313 86.43605 631.7688 86.64703 631.5578C 86.85801 631.3468 87.02059 631.1035 87.13477 630.8278C 87.24895 630.5522 87.30605 630.2652 87.30605 629.9668z" stroke="none" fill="#000000" fill-rule="nonzero" /><path id="123" transform="matrix(1 0 0 -1 0 842)" d="M87.30605 611.9668C 87.30605 611.6685 87.24895 611.3814 87.13477 611.1058C 87.02059 610.8301 86.85801 610.5868 86.64703 610.3759C 86.43605 610.1649 86.19273 610.0023 85.91708 609.8881C 85.64143 609.7739 85.35442 609.7168 85.05605 609.7168C 84.75768 609.7168 84.47066 609.7739 84.19501 609.8881C 83.91935 610.0023 83.67603 610.1649 83.46506 610.3759C 83.25407 610.5868 83.09149 610.8301 82.97731 611.1058C 82.86314 611.3815 82.80605 611.6685 82.80605 611.9668C 82.80605 612.2652 82.86314 612.5522 82.97731 612.8279C 83.09149 613.1035 83.25407 613.3468 83.46506 613.5578C 83.67603 613.7688 83.91935 613.9314 84.19501 614.0455C 84.47066 614.1597 84.75768 614.2168 85.05605 614.2168C 85.35442 614.2168 85.64143 614.1597 85.91708 614.0455C 86.19273 613.9314 86.43605 613.7688 86.64703 613.5578C 86.85801 613.3468 87.02059 613.1035 87.13477 612.8279C 87.24895 612.5522 87.30605 612.2652 87.30605 611.9668z" stroke="none" fill="#000000" fill-rule="nonzero" /><path id="140" transform="matrix(1 0 0 -1 0 842)" d="M87.30605 593.9668C 87.30605 593.6685 87.24895 593.3815 87.13477 593.1058C 87.02059 592.8301 86.85801 592.5868 86.64703 592.3759C 86.43605 592.1649 86.19273 592.0023 85.91708 591.8881C 85.64143 591.7739 85.35442 591.7168 85.05605 591.7168C 84.75768 591.7168 84.47066 591.7739 84.19501 591.8881C 83.91935 592.0023 83.67603 592.1649 83.46506 592.3759C 83.25407 592.5868 83.09149 592.8301 82.97731 593.1058C 82.86314 593.3815 82.80605 593.6685 82.80605 593.9668C 82.80605 594.2651 82.86314 594.5522 82.97731 594.8279C 83.09149 595.1035 83.25407 595.3468 83.46506 595.5578C 83.67603 595.7688 83.91935 595.9314 84.19501 596.0455C 84.47066 596.1597 84.75768 596.2168 85.05605 596.2168C 85.35442 596.2168 85.64143 596.1597 85.91708 596.0455C 86.19273 595.9314 86.43605 595.7688 86.64703 595.5578C 86.85801 595.3468 87.02059 595.1035 87.13477 594.8279C 87.24895 594.5522 87.30605 594.2651 87.30605 593.9668z" stroke="none" fill="#000000" fill-rule="nonzero" /><path id="159" transform="matrix(1 0 0 -1 0 842)" d="M87.30605 575.9668C 87.30605 575.6685 87.24895 575.3815 87.13477 575.1058C 87.02059 574.8301 86.85801 574.5868 86.64703 574.3759C 86.43605 574.1649 86.19273 574.0023 85.91708 573.8881C 85.64143 573.7739 85.35442 573.7168 85.05605 573.7168C 84.75768 573.7168 84.47066 573.7739 84.19501 573.8881C 83.91935 574.0023 83.67603 574.1649 83.46506 574.3759C 83.25407 574.5868 83.09149 574.8301 82.97731 575.1058C 82.86314 575.3815 82.80605 575.6685 82.80605 575.9668C 82.80605 576.2652 82.86314 576.5522 82.97731 576.8279C 83.09149 577.1035 83.25407 577.3468 83.46506 577.5578C 83.67603 577.7688 83.91935 577.9314 84.19501 578.0455C 84.47066 578.1597 84.75768 578.2168 85.05605 578.2168C 85.35442 578.2168 85.64143 578.1597 85.91708 578.0455C 86.19273 577.9314 86.43605 577.7688 86.64703 577.5578C 86.85801 577.3468 87.02059 577.1035 87.13477 576.8279C 87.24895 576.5522 87.30605 576.2652 87.30605 575.9668z" stroke="none" fill="#000000" fill-rule="nonzero" /><path id="181" transform="matrix(1 0 0 -1 0 842)" d="M87.30605 557.9668C 87.30605 557.6685 87.24895 557.3814 87.13477 557.1058C 87.02059 556.8301 86.85801 556.5868 86.64703 556.3759C 86.43605 556.1649 86.19273 556.0023 85.91708 555.8881C 85.64143 555.7739 85.35442 555.7168 85.05605 555.7168C 84.75768 555.7168 84.47066 555.7739 84.19501 555.8881C 83.91935 556.0023 83.67603 556.1649 83.46506 556.3759C 83.25407 556.5868 83.09149 556.8301 82.97731 557.1058C 82.86314 557.3814 82.80605 557.6685 82.80605 557.9668C 82.80605 558.2652 82.86314 558.5522 82.97731 558.8279C 83.09149 559.1035 83.25407 559.3468 83.46506 559.5578C 83.67603 559.7688 83.91935 559.9314 84.19501 560.0455C 84.47066 560.1597 84.75768 560.2168 85.05605 560.2168C 85.35442 560.2168 85.64143 560.1597 85.91708 560.0455C 86.19273 559.9314 86.43605 559.7688 86.64703 559.5578C 86.85801 559.3468 87.02059 559.1035 87.13477 558.8279C 87.24895 558.5522 87.30605 558.2652 87.30605 557.9668z" stroke="none" fill="#000000" fill-rule="nonzero" /></g><g clip-path="url(#13)"><g clip-path="url(#14)"><g clip-path="url(#15)"><g clip-path="url(#16)"><g clip-path="url(#17)"><g transform="matrix(0.5441214 0 0 0.5449208 397.1283 129.5922)"><g transform="matrix(1 0 0 1 0 0)"><image x="0" y="0" xlink:href="img_02.png" width="285" height="297" /></g></g></g></g></g></g></g><g clip-path="url(#18)"><g clip-path="url(#19)"><g clip-path="url(#20)"><g clip-path="url(#21)"><g clip-path="url(#22)"><path id="202" transform="matrix(1 0 0 -1 0 842)" d="M474.8939 711.6574L474.6428 711.6578L473.8901 711.6539L473.8824 713.1539L474.6453 713.1578L474.8964 713.1574L474.8939 711.6574zM476.3934 711.6368L475.6382 711.6511L475.6664 713.1508L476.4216 713.1366L476.3934 711.6368zM477.8827 711.5858L477.1313 711.6154L477.1904 713.1142L477.9417 713.0846L477.8827 711.5858zM479.364 711.5044L478.6166 711.5493L478.7065 713.0466L479.4539 713.0017L479.364 711.5044zM480.8372 711.3931L480.094 711.4531L480.2145 712.9482L480.9577 712.8883L480.8372 711.3931zM482.3086 711.2515L481.5629 711.3271L481.7142 712.8195L482.4598 712.7438L482.3086 711.2515zM483.7923 711.0775L483.0439 711.1692L483.2262 712.6581L483.9747 712.5664L483.7923 711.0775zM485.2666 710.8734L484.5229 710.9803L484.7363 712.465L485.4799 712.3582L485.2666 710.8734zM486.731 710.6395L485.9923 710.7614L486.2366 712.2414L486.9753 712.1195L486.731 710.6395zM488.1854 710.376L487.4518 710.5128L487.7268 711.9874L488.4604 711.8506L488.1854 710.376zM489.6382 710.0815L488.9011 710.2349L489.2066 711.7035L489.9438 711.55L489.6382 710.0815zM491.093 709.7548L490.3593 709.9236L490.6957 711.3854L491.4293 711.2166L491.093 709.7548zM492.5363 709.3986L491.8084 709.5822L492.1754 711.0366L492.9032 710.853L492.5363 709.3986zM493.9679 709.0133L493.246 709.2116L493.6432 710.658L494.3652 710.4598L493.9679 709.0133zM495.3875 708.5993L494.6717 708.8121L495.0991 710.2499L495.8149 710.0371L495.3875 708.5993zM496.805 708.1535L496.0875 708.3832L496.5449 709.8118L497.2625 709.582L496.805 708.1535zM498.2153 707.6772L497.5044 707.9214L497.9917 709.3401L498.7026 709.0958L498.2153 707.6772zM499.6123 707.1725L498.9081 707.4311L499.425 708.8392L500.1292 708.5806L499.6123 707.1725zM500.9955 706.6398L500.2983 706.9125L500.8446 708.3094L501.5419 708.0368L500.9955 706.6398zM502.3648 706.0794L501.6747 706.366L502.2501 707.7513L502.9402 707.4647L502.3648 706.0794zM503.7303 705.4869L503.0419 705.7899L503.6461 707.1628L504.3345 706.8599L503.7303 705.4869zM505.0815 704.8667L504.4007 705.1835L505.0335 706.5435L505.7144 706.2267L505.0815 704.8667zM506.4175 704.2193L505.7444 704.5497L506.4055 705.8962L507.0786 705.5658L506.4175 704.2193zM507.7378 703.5452L507.0726 703.8891L507.7616 705.2215L508.4268 704.8776L507.7378 703.5452zM509.0441 702.8436L508.3851 703.2019L509.1016 704.5197L509.7606 704.1613L509.0441 702.8436zM510.3394 702.1126L509.687 702.4852L510.4309 703.7878L511.0833 703.4152L510.3394 702.1126zM511.6177 701.3557L510.974 701.7414L511.7448 703.0282L512.3886 702.6425L511.6177 701.3557zM512.8789 700.5732L512.2439 700.9717L513.0413 702.2422L513.6763 701.8437L512.8789 700.5732zM514.1224 699.7654L513.4963 700.1766L514.3199 701.4303L514.946 701.019L514.1224 699.7654zM515.3522 698.9296L514.7319 699.3559L515.5813 700.5922L516.2017 700.166L515.3522 698.9296zM516.5661 698.0673L515.9551 698.5061L516.8301 699.7245L517.441 699.2858L516.5661 698.0673zM517.761 697.1806L517.1597 697.6317L518.0598 698.8316L518.6611 698.3806L517.761 697.1806zM518.9367 696.2697L518.3452 696.7329L519.2699 697.9139L519.8615 697.4507L518.9367 696.2697zM520.0927 695.3351L519.5111 695.8102L520.4601 696.9719L521.0417 696.4967L520.0927 695.3351zM521.2287 694.3771L520.6573 694.864L521.6302 696.0057L522.2016 695.5189L521.2287 694.3771zM522.3444 693.3961L521.7833 693.8946L522.7795 695.0159L523.3406 694.5175L522.3444 693.3961zM523.4393 692.3925L522.8887 692.9023L523.908 694.0028L524.4585 693.4929L523.4393 692.3925zM524.5131 691.3665L523.9732 691.8876L525.015 692.9668L525.5548 692.4457L524.5131 691.3665zM525.5641 690.3198L525.2634 690.6237L525.038 690.8492L526.0987 691.9098L526.3296 691.6788L526.6304 691.3749L525.5641 690.3198zM526.5958 689.2492L526.0779 689.7922L527.1634 690.8275L527.6813 690.2845L526.5958 689.2492zM527.6041 688.1586L527.0975 688.7122L528.2041 689.7249L528.7107 689.1713L527.6041 688.1586zM528.5897 687.0472L528.0946 687.6113L529.2219 688.6008L529.717 688.0367L528.5897 687.0472zM529.5525 685.9153L529.069 686.4897L530.2165 687.4557L530.7001 686.8813L529.5525 685.9153zM530.4919 684.7634L530.0203 685.3478L531.1876 686.2899L531.6592 685.7054L530.4919 684.7634zM531.4077 683.5917L530.9481 684.1861L532.1346 685.1038L532.5943 684.5093L531.4077 683.5917zM532.2994 682.4007L531.8519 683.0048L533.0573 683.8976L533.5048 683.2935L532.2994 682.4007zM533.1668 681.1907L532.7317 681.8044L533.9553 682.672L534.3904 682.0583L533.1668 681.1907zM534.0086 679.9632L533.5868 680.5851L534.8282 681.4271L535.25 680.8052L534.0086 679.9632zM534.8215 678.7233L534.4139 679.352L535.6725 680.168L536.0802 679.5394L534.8215 678.7233zM535.6093 677.4658L535.2145 678.1033L536.4897 678.8931L536.8846 678.2556L535.6093 677.4658zM536.3715 676.1909L535.9896 676.8372L537.281 677.6002L537.6629 676.954L536.3715 676.1909zM537.1078 674.899L536.739 675.5538L538.046 676.2899L538.4148 675.6351L537.1078 674.899zM537.8157 673.5945L537.4623 674.2539L538.7843 674.9625L539.1377 674.3031L537.8157 673.5945zM538.4952 672.2775L538.1552 672.9449L539.4917 673.6259L539.8318 672.9584L538.4952 672.2775zM539.1481 670.9447L538.8216 671.6201L540.172 672.273L540.4985 671.5977L539.1481 670.9447zM539.7739 669.5966L539.4611 670.2797L540.825 670.9042L541.1377 670.2211L539.7739 669.5966zM540.3724 668.2335L540.0734 668.9241L541.45 669.5199L541.749 668.8293L540.3724 668.2335zM540.9391 666.8654L540.6566 667.5576L542.0453 668.1246L542.3279 667.4324L540.9391 666.8654zM541.4775 665.485L541.209 666.1843L542.6093 666.722L542.8778 666.0228L541.4775 665.485zM541.988 664.0908L541.7336 664.7969L543.1448 665.3054L543.3992 664.5992L541.988 664.0908zM542.4702 662.6832L542.2301 663.3961L543.6516 663.8748L543.8917 663.1619L542.4702 662.6832zM542.9229 661.265L542.6981 661.9821L544.1294 662.4307L544.3542 661.7136L542.9229 661.265zM543.3428 659.8479L543.1342 660.5654L544.5745 660.9841L544.7831 660.2666L543.3428 659.8479zM543.7339 658.4187L543.5399 659.1423L544.9886 659.5309L545.1827 658.8073L543.7339 658.4187zM544.0961 656.9778L543.9167 657.7073L545.3734 658.0654L545.5527 657.3359L544.0961 656.9778zM544.429 655.5254L544.2644 656.2606L545.7283 656.5881L545.8927 655.8528L544.429 655.5254zM544.7304 654.0703L544.5826 654.8027L546.053 655.0994L546.2008 654.367L544.7304 654.0703zM544.9999 652.618L544.8674 653.3531L546.3436 653.6191L546.4761 652.8841L544.9999 652.618zM545.2399 651.1556L545.1223 651.8958L546.6037 652.1311L546.7213 651.3909L545.2399 651.1556zM545.4501 649.6833L545.3476 650.4284L546.8336 650.6328L546.9361 649.8878L545.4501 649.6833zM545.6302 648.2015L545.543 648.9514L547.033 649.1248L547.1202 648.3749L545.6302 648.2015zM545.7786 646.7261L545.708 647.4663L547.2012 647.6087L547.2719 646.8685L545.7786 646.7261zM545.896 645.2548L545.8404 645.9992L547.3362 646.1109L547.3918 645.3665L545.896 645.2548zM545.9835 643.7751L545.943 644.5237L547.4409 644.6046L547.4813 643.8561L545.9835 643.7751zM546.0408 642.2875L546.0156 643.04L547.5148 643.0901L547.54 642.3376L546.0408 642.2875zM546.0676 640.7921L546.0579 641.5485L547.5578 641.5677L547.5675 640.8115L546.0676 640.7921zM546.0637 639.2922L546.0696 640.0495L547.5695 640.038L547.5637 639.2807L546.0637 639.2922zM546.0292 637.7988L546.0504 638.5522L547.5499 638.5099L547.5286 637.7564L546.0292 637.7988zM545.9641 636.3131L546.0007 637.0626L547.499 636.9894L547.4623 636.2399L545.9641 636.3131zM545.869 634.8355L545.9208 635.5809L547.4172 635.477L547.3654 634.7315L545.869 634.8355zM545.7441 633.3662L545.8109 634.1074L547.3049 633.9728L547.238 633.2316L545.7441 633.3662zM545.5874 631.8859L545.6708 632.637L547.1617 632.4714L547.0782 631.7204L545.5874 631.8859zM545.3996 630.4065L545.4983 631.1528L546.9854 630.9562L546.8867 630.2099L545.3996 630.4065zM545.1818 628.9367L545.2956 629.6781L546.7783 629.4506L546.6644 628.7092L545.1818 628.9367zM544.9343 627.4768L545.063 628.2132L546.5406 627.9548L546.4119 627.2185L544.9343 627.4768zM544.6575 626.0272L544.801 626.7583L546.2729 626.4694L546.1293 625.7382L544.6575 626.0272zM544.3473 624.5693L544.5081 625.306L545.9735 624.9863L545.8129 624.2496L544.3473 624.5693zM544.007 623.1198L544.1826 623.8508L545.6411 623.5004L545.4655 622.7694L544.007 623.1198zM543.6375 621.6818L543.8278 622.407L545.2787 622.0261L545.0883 621.3009L543.6375 621.6818zM543.239 620.2557L543.4439 620.9748L544.8865 620.5637L544.6815 619.8445L543.239 620.2557zM542.8113 618.84L543.0313 619.5546L544.4649 619.1135L544.245 618.3989L542.8113 618.84zM542.3506 617.4227L542.587 618.1372L544.011 617.666L543.7747 616.9515L542.3506 617.4227zM541.8612 616.0184L542.1121 616.7263L543.5259 616.2253L543.2751 615.5175L541.8612 616.0184zM541.3436 614.6277L541.6086 615.3287L543.0117 614.7983L542.7467 614.0972L541.3436 614.6277zM540.7982 613.2508L541.0773 613.9448L542.469 613.3851L542.1899 612.6912L540.7982 613.2508zM540.2233 611.8835L540.5181 612.5748L541.8978 611.9863L541.6029 611.295L540.2233 611.8835zM539.6178 610.5242L539.9271 611.2092L541.2942 610.5918L540.9849 609.9069L539.6178 610.5242zM538.9851 609.1799L539.3082 609.8572L540.662 609.2114L540.3389 608.5341L538.9851 609.1799zM538.3254 607.8511L538.6621 608.5206L540.0022 607.8467L539.6655 607.1772L538.3254 607.8511zM537.6392 606.5381L537.9892 607.1996L539.3149 606.4979L538.9649 605.8365L537.6392 606.5381zM536.9236 605.2359L537.2889 605.8928L538.5999 605.1637L538.2344 604.5068L536.9236 605.2359zM536.1807 603.9483L536.5593 604.5968L537.8547 603.8405L537.4761 603.192L536.1807 603.9483zM535.412 602.6778L535.8036 603.3176L537.0829 602.5345L536.6913 601.8947L535.412 602.6778zM534.6178 601.4247L535.0222 602.0556L536.285 601.2462L535.8806 600.6152L534.6178 601.4247zM533.7981 600.1888L534.2156 600.8113L535.4614 599.9758L535.0439 599.3533L533.7981 600.1888zM532.9492 598.9648L533.3812 599.5809L534.6094 598.7197L534.1774 598.1036L532.9492 598.9648zM532.0757 597.7596L532.5201 598.3661L533.73 597.4796L533.2856 596.8731L532.0757 597.7596zM531.1778 596.5735L531.6344 597.1703L532.8257 596.2589L532.3691 595.662L531.1778 596.5735zM530.256 595.4067L530.7247 595.9938L531.8969 595.0579L531.4282 594.4708L530.256 595.4067zM529.3106 594.2599L529.7911 594.8368L530.9437 593.8768L530.4631 593.2999L529.3106 594.2599zM528.342 593.1332L528.8342 593.6998L529.9667 592.7162L529.4744 592.1495L528.342 593.1332zM527.3505 592.027L527.8542 592.5833L528.9661 591.5764L528.4624 591.0201L527.3505 592.027zM526.3366 590.9417L526.8517 591.4874L527.9425 590.4578L527.4274 589.9121L526.3366 590.9417zM525.3006 589.8777L525.8267 590.4126L526.8961 589.3607L526.3699 588.8258L525.3006 589.8777zM524.2443 588.8369L524.4952 589.0803L524.7786 589.358L525.8286 588.2867L525.5396 588.0035L525.2886 587.7601L524.2443 588.8369zM523.1636 587.8151L523.7115 588.3278L524.7365 587.2326L524.1886 586.7198L523.1636 587.8151zM522.0634 586.8171L522.6218 587.3185L523.624 586.2023L523.0656 585.7009L522.0634 586.8171zM520.9426 585.8419L521.5114 586.3317L522.4902 585.1951L521.9214 584.7053L520.9426 585.8419zM519.8015 584.8898L520.3805 585.3679L521.3356 584.2112L520.7565 583.7332L519.8015 584.8898zM518.6404 583.9612L519.2295 584.4274L520.1604 583.2512L519.5714 582.785L518.6404 583.9612zM517.4598 583.0564L518.0587 583.5105L518.9651 582.3152L518.3661 581.8611L517.4598 583.0564zM516.2601 582.1758L516.8686 582.6176L517.7499 581.4038L517.1414 580.962L516.2601 582.1758zM515.0414 581.3198L515.6594 581.7491L516.5154 580.5173L515.8973 580.0879L515.0414 581.3198zM513.8087 580.4915L514.4325 580.9059L515.2626 579.6566L514.6389 579.2422L513.8087 580.4915zM512.5607 579.6901L513.1935 580.0919L513.9976 578.8256L513.3647 578.4238L512.5607 579.6901zM511.2952 578.9139L511.9368 579.3029L512.7144 578.0201L512.0728 577.6312L511.2952 578.9139zM510.0125 578.1636L510.6627 578.5395L511.4134 577.2408L510.7632 576.865L510.0125 578.1636zM508.713 577.4394L509.3716 577.802L510.0951 576.488L509.4364 576.1254L508.713 577.4394zM507.4044 576.7454L508.0675 577.0928L508.7635 575.764L508.1004 575.4167L507.4044 576.7454zM506.0801 576.0781L506.7512 576.4119L507.4194 575.069L506.7483 574.7351L506.0801 576.0781zM504.7403 575.4376L505.4192 575.7578L506.0591 574.4012L505.3802 574.0809L504.7403 575.4376zM503.3852 574.8242L504.0718 575.1307L504.6832 573.761L503.9967 573.4545L503.3852 574.8242zM502.0189 574.24L502.7094 574.531L503.2919 573.1487L502.6015 572.8577L502.0189 574.24zM500.646 573.6865L501.3415 573.9627L501.8951 572.5686L501.1996 572.2925L500.646 573.6865zM499.2592 573.1609L499.9617 573.423L500.486 572.0176L499.7836 571.7556L499.2592 573.1609zM497.8589 572.6634L498.5681 572.9113L499.0629 571.4952L498.3536 571.2474L497.8589 572.6634zM496.4453 572.1944L497.1612 572.4278L497.6261 571.0017L496.9102 570.7682L496.4453 572.1944zM495.0285 571.7571L495.7428 571.9735L496.1777 570.538L495.4635 570.3215L495.0285 571.7571zM493.6059 571.3503L494.3262 571.5522L494.7311 570.108L494.0108 569.906L493.6059 571.3503zM492.1713 570.9724L492.8976 571.1597L493.2722 569.7073L492.5458 569.5199L492.1713 570.9724zM490.725 570.6237L491.4572 570.7962L491.8013 569.3362L491.0691 569.1636L490.725 570.6237zM489.2675 570.3044L490.0054 570.462L490.3187 568.9951L489.5809 568.8375L489.2675 570.3044zM487.8175 570.0184L488.5497 570.1589L488.8324 568.6858L488.1002 568.5453L487.8175 570.0184zM486.3605 569.7625L487.098 569.8881L487.35 568.4094L486.6125 568.2838L486.3605 569.7625zM484.8936 569.5361L485.636 569.6467L485.8571 568.1631L485.1147 568.0524L484.8936 569.5361zM483.4169 569.3396L484.1642 569.4351L484.3543 567.9472L483.6071 567.8517L483.4169 569.3396zM481.9311 569.1733L482.6828 569.2535L482.8419 567.762L482.0901 567.6818L481.9311 569.1733zM480.4644 569.0399L481.2065 569.1036L481.3348 567.6091L480.5927 567.5454L480.4644 569.0399zM478.9891 568.9362L479.7355 568.9849L479.8331 567.488L479.0868 567.4394L478.9891 568.9362zM477.5058 568.8625L478.2562 568.896L478.323 567.3975L477.5726 567.364L477.5058 568.8625zM476.0146 568.8192L476.7689 568.8373L476.8049 567.3376L476.0506 567.3196L476.0146 568.8192zM474.5184 568.8064L474.5203 568.8064L474.6447 568.8063L475.2732 568.809L475.2796 567.309L474.6433 567.3063L474.5203 567.3064L474.5184 567.3064L474.5184 568.8064zM473.0183 568.8244L473.7739 568.8114L473.7482 567.3116L472.9926 567.3246L473.0183 568.8244zM471.5284 568.873L472.2801 568.8446L472.2236 567.3457L471.4719 567.374L471.5284 568.873zM470.0464 568.9518L470.7941 568.9082L470.7068 567.4108L469.9591 567.4543L470.0464 568.9518zM468.5726 569.0607L469.3161 569.002L469.1981 567.5066L468.4545 567.5653L468.5726 569.0607zM467.1028 569.1996L467.8465 569.1255L467.6978 567.6328L466.954 567.707L467.1028 569.1996zM465.6183 569.371L466.3671 569.2806L466.1873 567.7914L465.4385 567.8818L465.6183 569.371zM464.1432 569.5726L464.8873 569.467L464.6765 567.9819L463.9324 568.0875L464.1432 569.5726zM462.6779 569.8041L463.417 569.6834L463.1753 568.203L462.4362 568.3237L462.6779 569.8041zM461.2227 570.0651L461.9567 569.9296L461.6842 568.4545L460.9502 568.5901L461.2227 570.0651zM459.7708 570.3569L460.5066 570.2051L460.2035 568.736L459.4677 568.8878L459.7708 570.3569zM458.3151 570.6812L459.0492 570.5136L458.7154 569.0512L457.9813 569.2188L458.3151 570.6812zM456.8708 571.0349L457.5992 570.8525L457.2347 569.3975L456.5064 569.5798L456.8708 571.0349zM455.4382 571.4178L456.1606 571.2207L455.7658 569.7736L455.0435 569.9707L455.4382 571.4178zM454.0176 571.8295L454.7339 571.6179L454.309 570.1793L453.5927 570.3909L454.0176 571.8295zM452.6003 572.2725L453.3185 572.0439L452.8635 570.6146L452.1454 570.8431L452.6003 572.2725zM451.189 572.7464L451.9005 572.5034L451.4156 571.0839L450.7041 571.3269L451.189 572.7464zM449.7909 573.2487L450.4957 572.9913L449.9811 571.5824L449.2764 571.8397L449.7909 573.2487zM448.4065 573.7791L449.1043 573.5076L448.5604 572.1097L447.8626 572.3812L448.4065 573.7791zM447.036 574.3373L447.7267 574.0518L447.1537 572.6655L446.4631 572.951L447.036 574.3373zM445.6702 574.9271L446.3593 574.6252L445.7575 573.2513L445.0684 573.5531L445.6702 574.9271zM444.3178 575.545L444.9993 575.2294L444.3688 573.8683L443.6873 574.184L444.3178 575.545zM442.9806 576.1902L443.6543 575.8608L442.9955 574.5132L442.3218 574.8426L442.9806 576.1902zM441.659 576.8621L442.3247 576.5193L441.6381 575.1857L440.9723 575.5285L441.659 576.8621zM440.3519 577.5612L441.011 577.2043L440.2967 575.8853L439.6376 576.2422L440.3519 577.5612zM439.0552 578.29L439.7083 577.9185L438.9667 576.6147L438.3136 576.9861L439.0552 578.29zM437.7755 579.0447L438.42 578.6602L437.6513 577.3721L437.0068 577.7566L437.7755 579.0447zM436.5129 579.8251L437.1486 579.4277L436.3534 578.1558L435.7177 578.5533L436.5129 579.8251zM435.2679 580.6309L435.8947 580.2207L435.0732 578.9656L434.4464 579.3759L435.2679 580.6309zM434.0371 581.4642L434.6583 581.039L433.811 579.8013L433.1898 580.2264L434.0371 581.4642zM432.8217 582.3245L433.4334 581.8867L432.5606 580.6669L431.9489 581.1046L432.8217 582.3245zM431.6252 583.2092L432.2274 582.7592L431.3293 581.5576L430.7272 582.0077L431.6252 583.2092zM430.4479 584.118L431.0403 583.6559L430.1176 582.4733L429.5252 582.9354L430.4479 584.118zM429.2903 585.0507L429.8727 584.5766L428.9257 583.4133L428.3432 583.8875L429.2903 585.0507zM428.1526 586.0068L428.7249 585.5209L427.7539 584.3775L427.1817 584.8634L428.1526 586.0068zM427.0352 586.986L427.5972 586.4884L426.6028 585.3654L426.0409 585.8629L427.0352 586.986zM425.9386 587.9877L426.4901 587.4788L425.4727 586.3765L424.9213 586.8855L425.9386 587.9877zM424.8631 589.0118L425.4038 588.4917L424.3639 587.4106L423.8232 587.9308L424.8631 589.0118zM423.809 590.0579L424.3388 589.5267L423.2768 588.4674L422.7469 588.9986L423.809 590.0579zM422.7767 591.1255L423.2955 590.5835L422.2118 589.5464L421.693 590.0884L422.7767 591.1255zM421.7666 592.2144L422.2741 591.6616L421.1692 590.6472L420.6617 591.1999L421.7666 592.2144zM420.779 593.3242L421.2751 592.7609L420.1495 591.7694L419.6534 592.3326L420.779 593.3242zM419.8143 594.4543L420.2988 593.8807L419.1529 592.9128L418.6684 593.4864L419.8143 594.4543zM418.8729 595.6046L419.3456 595.021L418.1799 594.0769L417.7073 594.6606L418.8729 595.6046zM417.9552 596.7747L418.4159 596.1811L417.2309 595.2614L416.7702 595.855L417.9552 596.7747zM417.0615 597.9641L417.51 597.3608L416.3062 596.4659L415.8576 597.0692L417.0615 597.9641zM416.1921 599.1725L416.6282 598.5597L415.4061 597.6899L414.9699 598.3029L416.1921 599.1725zM415.3478 600.3991L415.7711 599.7773L414.5311 598.9332L414.1078 599.555L415.3478 600.3991zM414.5328 601.6375L414.9415 601.0095L413.6843 600.1913L413.2756 600.8193L414.5328 601.6375zM413.7429 602.8936L414.1388 602.2568L412.8649 601.4648L412.469 602.1016L413.7429 602.8936zM412.9786 604.1671L413.3616 603.5215L412.0715 602.7562L411.6885 603.4017L412.9786 604.1671zM412.2402 605.4575L412.61 604.8034L411.3043 604.0651L410.9344 604.7192L412.2402 605.4575zM411.5298 606.7613L411.8846 606.1021L410.5637 605.3912L410.2089 606.0504L411.5298 606.7613zM410.848 608.077L411.1892 607.4102L409.8538 606.727L409.5127 607.3938L410.848 608.077zM410.1929 609.4085L410.5206 608.7338L409.1713 608.0786L408.8436 608.7532L410.1929 609.4085zM409.5648 610.7554L409.8788 610.0729L408.5161 609.446L408.2021 610.1285L409.5648 610.7554zM408.9641 612.1172L409.2642 611.4272L407.8887 610.829L407.5886 611.519L408.9641 612.1172zM408.3947 613.485L408.6784 612.7935L407.2907 612.2241L407.0069 612.9157L408.3947 613.485zM407.854 614.8644L408.1237 614.1656L406.7244 613.6254L406.4546 614.3241L407.854 614.8644zM407.3412 616.2574L407.5968 615.5518L406.1864 615.041L405.9308 615.7466L407.3412 616.2574zM406.8567 617.6639L407.098 616.9515L405.6772 616.4704L405.436 617.1827L406.8567 617.6639zM406.4012 619.0825L406.6276 618.3646L405.1971 617.9133L404.9706 618.6313L406.4012 619.0825zM405.9789 620.4985L406.1888 619.7814L404.7491 619.3602L404.5393 620.0773L405.9789 620.4985zM405.5854 621.9266L405.7806 621.2035L404.3325 620.8125L404.1372 621.5356L405.5854 621.9266zM405.2208 623.3666L405.4014 622.6376L403.9454 622.277L403.7648 623.006L405.2208 623.3666zM404.8855 624.8181L405.0512 624.0833L403.588 623.7533L403.4223 624.4881L404.8855 624.8181zM404.5812 626.2741L404.7306 625.5403L403.2608 625.2411L403.1114 625.9749L404.5812 626.2741zM404.3094 627.7255L404.4431 626.9908L402.9673 626.7222L402.8336 627.4568L404.3094 627.7255zM404.0669 629.1871L404.1857 628.4473L402.7047 628.2095L402.5859 628.9492L404.0669 629.1871zM403.8542 630.6585L403.9579 629.9138L402.4723 629.7069L402.3685 630.4515L403.8542 630.6585zM403.6715 632.1395L403.76 631.3901L402.2704 631.2142L402.1819 631.9636L403.6715 632.1395zM403.5205 633.6165L403.5924 632.8758L402.0994 632.7309L402.0275 633.4716L403.5205 633.6165zM403.4006 635.0872L403.4575 634.3431L401.9618 634.2289L401.905 634.973L403.4006 635.0872zM403.3106 636.5662L403.3524 635.818L401.8547 635.7345L401.813 636.4827L403.3106 636.5662zM403.2508 638.0532L403.2773 637.301L401.7782 637.2483L401.7517 638.0005L403.2508 638.0532zM403.2214 639.5479L403.2325 638.7919L401.7326 638.77L401.7216 639.5261L403.2214 639.5479zM403.2228 641.0479L403.2182 640.2903L401.7183 640.2993L401.7228 641.0569L403.2228 641.0479zM403.2549 642.542L403.2348 641.7882L401.7354 641.828L401.7554 642.5818L403.2549 642.542zM403.3174 644.0283L403.282 643.2784L401.7837 643.3491L401.819 644.099L403.3174 644.0283zM403.41 645.5067L403.3594 644.7608L401.8629 644.8622L401.9134 645.608L403.41 645.5067zM403.5324 646.9766L403.4669 646.235L401.9727 646.3671L402.0383 647.1087L403.5324 646.9766zM403.6864 648.4553L403.6043 647.7039L402.1132 647.8668L402.1953 648.6182L403.6864 648.4553zM403.8717 649.9355L403.7743 649.1888L402.2869 649.3828L402.3843 650.1295L403.8717 649.9355zM404.0871 651.4061L403.9745 650.6643L402.4915 650.8893L402.604 651.6311L404.0871 651.4061zM404.3321 652.8668L404.2046 652.1301L402.7266 652.3858L402.8541 653.1226L404.3321 652.8668zM404.6066 654.3174L404.4642 653.5858L402.9919 653.8722L403.1342 654.6038L404.6066 654.3174zM404.9139 655.7743L404.7544 655.0372L403.2883 655.3543L403.4478 656.0914L404.9139 655.7743zM405.2517 657.2247L405.0773 656.4933L403.6182 656.8411L403.7926 657.5726L405.2517 657.2247zM405.6189 658.6637L405.4297 657.938L403.9782 658.3164L404.1674 659.0421L405.6189 658.6637zM406.015 660.0908L405.8112 659.3712L404.368 659.7798L404.5717 660.4995L406.015 660.0908zM406.4398 661.5062L406.2216 660.7924L404.7871 661.2311L405.0054 661.9448L406.4398 661.5062zM406.8982 662.9246L406.663 662.2095L405.2381 662.6782L405.4733 663.3933L406.8982 662.9246zM407.3852 664.3299L407.1356 663.6215L405.7209 664.12L405.9705 664.8284L407.3852 664.3299zM407.9005 665.7218L407.6366 665.0202L406.2326 665.5482L406.4965 666.2498L407.9005 665.7218zM408.4436 667.0999L408.1657 666.4053L406.773 666.9625L407.051 667.6571L408.4436 667.0999zM409.0159 668.4673L408.7226 667.7764L407.3418 668.3625L407.6352 669.0535L409.0159 668.4673zM409.619 669.8279L409.3109 669.1423L407.9427 669.7573L408.2509 670.4429L409.619 669.8279zM410.2495 671.1735L409.9276 670.4955L408.5726 671.139L408.8946 671.817L410.2495 671.1735zM410.907 672.5035L410.5714 671.8335L409.2302 672.5051L409.5657 673.1752L410.907 672.5035zM411.5911 673.8179L411.2421 673.1558L409.9152 673.8552L410.2641 674.5173L411.5911 673.8179zM412.3041 675.1209L411.9398 674.4633L410.6277 675.1901L410.992 675.8477L412.3041 675.1209zM413.0449 676.4099L412.6674 675.7607L411.3707 676.5148L411.7482 677.1639L413.0449 676.4099zM413.8114 677.6818L413.4209 677.0413L412.1402 677.8221L412.5307 678.4626L413.8114 677.6818zM414.6035 678.9363L414.2002 678.3047L412.9359 679.112L413.3393 679.7437L414.6035 678.9363zM415.4208 680.1732L415.0047 679.5505L413.7575 680.3839L414.1736 681.0065L415.4208 680.1732zM416.2676 681.3987L415.8366 680.7818L414.607 681.6409L415.038 682.2578L416.2676 681.3987zM417.1391 682.6055L416.6957 681.9981L415.4842 682.8826L415.9276 683.4899L417.1391 682.6055zM418.035 683.7932L417.5794 683.1955L416.3865 684.1049L416.8421 684.7026L418.035 683.7932zM418.9548 684.9615L418.4871 684.3737L417.3134 685.3076L417.781 685.8954L418.9548 684.9615zM419.8983 686.11L419.4187 685.5323L418.2645 686.4903L418.7441 687.0681L419.8983 686.11zM420.865 687.2385L420.3737 686.6709L419.2396 687.6526L419.7308 688.2202L420.865 687.2385zM421.8546 688.3463L421.3518 687.7892L420.2382 688.7941L420.741 689.3513L421.8546 688.3463zM422.8666 689.4333L422.3525 688.8868L421.2599 689.9146L421.774 690.4611L422.8666 689.4333zM423.9008 690.4991L423.3756 689.9633L422.3045 691.0134L422.8297 691.5492L423.9008 690.4991zM424.9568 691.5433L424.4207 691.0184L423.3715 692.0905L423.9077 692.6152L424.9568 691.5433zM426.0343 692.5654L425.4873 692.0518L424.4605 693.1452L425.0074 693.6589L426.0343 692.5654zM427.1328 693.5652L426.5752 693.0629L425.5712 694.1774L426.1287 694.6797L427.1328 693.5652zM428.2519 694.5424L427.6839 694.0516L426.7032 695.1865L427.2711 695.6773L428.2519 694.5424zM429.3914 695.4964L428.8131 695.0173L427.8561 696.1723L428.4343 696.6514L429.3914 695.4964zM430.5508 696.427L429.9625 695.9598L429.0296 697.1343L429.6178 697.6016L430.5508 696.427zM431.7297 697.3337L431.1317 696.8786L430.2233 698.0723L430.8214 698.5274L431.7297 697.3337zM432.9279 698.2164L432.3202 697.7735L431.4368 698.9858L432.0445 699.4286L432.9279 698.2164zM434.145 699.0745L433.5278 698.644L432.6697 699.8744L433.287 700.3048L434.145 699.0745zM435.3768 699.9052L434.7538 699.4896L433.9215 700.7375L434.5445 701.1531L435.3768 699.9052zM436.6233 700.7087L435.9913 700.3058L435.1851 701.5707L435.8171 701.9736L436.6233 700.7087zM437.8874 701.4869L437.2466 701.0969L436.4668 702.3782L437.1077 702.7682L437.8874 701.4869zM439.1687 702.2393L438.5192 701.8624L437.7663 703.1597L438.4158 703.5367L439.1687 702.2393zM440.4669 702.9658L439.8089 702.602L439.0832 703.9147L439.7411 704.2785L440.4669 702.9658zM441.7747 703.6622L441.1122 703.3138L440.414 704.6414L441.0764 704.9898L441.7747 703.6622zM443.0977 704.3318L442.4272 703.9968L441.7568 705.3386L442.4272 705.6736L443.0977 704.3318zM444.4362 704.9745L443.758 704.6532L443.1157 706.0087L443.7939 706.3301L444.4362 704.9745zM445.7901 705.5901L445.1041 705.2825L444.4903 706.6512L445.1763 706.9588L445.7901 705.5901zM447.1562 706.1771L446.4654 705.8845L445.8804 707.2657L446.5711 707.5583L447.1562 706.1771zM448.5278 706.7328L447.833 706.4554L447.2769 707.8486L447.9718 708.1259L448.5278 706.7328zM449.9135 707.2607L449.2116 706.9975L448.6848 708.4019L449.3867 708.6652L449.9135 707.2607zM451.3127 707.7606L450.604 707.5116L450.1068 708.9268L450.8155 709.1758L451.3127 707.7606zM452.7253 708.232L452.0099 707.9974L451.5424 709.4227L452.2578 709.6573L452.7253 708.232zM454.1423 708.6721L453.4286 708.4545L452.9911 709.8893L453.7048 710.1069L454.1423 708.6721zM455.5639 709.0812L454.8441 708.8781L454.4367 710.3217L455.1566 710.5248L455.5639 709.0812zM456.9976 709.4615L456.2717 709.2729L455.8946 710.7248L456.6205 710.9133L456.9976 709.4615zM458.4428 709.8127L457.7111 709.6389L457.3645 711.0983L458.0962 711.2721L458.4428 709.8127zM459.8994 710.1344L459.162 709.9755L458.8462 711.4419L459.5836 711.6008L459.8994 710.1344zM461.3504 710.4232L460.6185 710.2814L460.3334 711.7541L461.0652 711.8958L461.3504 710.4232zM462.8065 710.6816L462.0695 710.5547L461.815 712.0329L462.552 712.1599L462.8065 710.6816zM464.2726 710.9105L463.5306 710.7985L463.3069 712.2817L464.049 712.3937L464.2726 710.9105zM465.7485 711.1094L465.0016 711.0126L464.8089 712.5002L465.5558 712.597L465.7485 711.1094zM467.2338 711.2781L466.4822 711.1967L466.3206 712.6879L467.0721 712.7694L467.2338 711.2781zM468.7019 711.4142L467.9601 711.3493L467.8293 712.8436L468.571 712.9085L468.7019 711.4142zM470.1765 711.5204L469.4305 711.4705L469.3303 712.9672L470.0763 713.0171L470.1765 711.5204zM471.6591 711.5966L470.9091 711.5619L470.8397 713.0603L471.5898 713.095L471.6591 711.5966zM473.1497 711.6425L472.3958 711.6232L472.3572 713.1226L473.1111 713.142L473.1497 711.6425z" stroke="none" fill="#000000" fill-rule="nonzero" /></g></g></g></g></g><g clip-path="url(#23)"><g><g clip-path="url(#24)"><g clip-path="url(#25)"><g clip-path="url(#26)"><path id="203" transform="matrix(1 0 0 -1 0 842)" d="M40.64131 309.6247L562.4875 309.6247L562.4875 19.20584L40.64131 19.20584z" stroke="none" fill="#A0FF8C" fill-rule="nonzero" fill-opacity="0.1764706" /></g></g><g clip-path="url(#27)"><g clip-path="url(#28)"><g clip-path="url(#29)"><path id="204" transform="matrix(1 0 0 -1 0 842)" d="M69.89114 309.6247L533.7781 309.6247C 549.9323 309.6247 563.0276 296.5292 563.0276 280.3752L563.0276 280.3752L563.0276 48.46014C 563.0276 32.30606 549.9323 19.2106 533.7781 19.2106L533.7781 19.2106L69.89114 19.2106C 53.73707 19.2106 40.64162 32.30606 40.64162 48.46014L40.64162 48.46014L40.64162 280.3752C 40.64162 296.5292 53.73707 309.6247 69.89114 309.6247z" stroke="#000000" stroke-width="6" fill="none" /></g></g></g></g></g><path id="281" transform="matrix(1 0 0 -1 0 842)" d="M87.40414 181.2058C 87.40414 180.9075 87.34705 180.6205 87.23287 180.3448C 87.11869 180.0691 86.95611 179.8258 86.74513 179.6148C 86.53415 179.4039 86.29083 179.2413 86.01518 179.1271C 85.73952 179.0129 85.45251 178.9558 85.15414 178.9558C 84.85577 178.9558 84.56876 179.0129 84.29311 179.1271C 84.01745 179.2413 83.77413 179.4039 83.56316 179.6148C 83.35217 179.8258 83.18959 180.0691 83.07541 180.3448C 82.96124 180.6205 82.90414 180.9075 82.90414 181.2058C 82.90414 181.5042 82.96124 181.7912 83.07541 182.0669C 83.18959 182.3425 83.35217 182.5858 83.56316 182.7968C 83.77413 183.0078 84.01745 183.1704 84.29311 183.2845C 84.56876 183.3987 84.85577 183.4558 85.15414 183.4558C 85.45251 183.4558 85.73952 183.3987 86.01518 183.2845C 86.29083 183.1704 86.53415 183.0078 86.74513 182.7968C 86.95611 182.5858 87.11869 182.3425 87.23287 182.0669C 87.34705 181.7912 87.40414 181.5042 87.40414 181.2058z" stroke="none" fill="#000000" fill-rule="nonzero" /><path id="316" transform="matrix(1 0 0 -1 0 842)" d="M87.40414 163.2058C 87.40414 162.9075 87.34705 162.6205 87.23287 162.3448C 87.11869 162.0691 86.95611 161.8258 86.74513 161.6148C 86.53415 161.4039 86.29083 161.2413 86.01518 161.1271C 85.73952 161.0129 85.45251 160.9558 85.15414 160.9558C 84.85577 160.9558 84.56876 161.0129 84.29311 161.1271C 84.01745 161.2413 83.77413 161.4039 83.56316 161.6148C 83.35217 161.8258 83.18959 162.0691 83.07541 162.3448C 82.96124 162.6205 82.90414 162.9075 82.90414 163.2058C 82.90414 163.5042 82.96124 163.7912 83.07541 164.0668C 83.18959 164.3425 83.35217 164.5858 83.56316 164.7968C 83.77413 165.0078 84.01745 165.1704 84.29311 165.2845C 84.56876 165.3987 84.85577 165.4558 85.15414 165.4558C 85.45251 165.4558 85.73952 165.3987 86.01518 165.2845C 86.29083 165.1704 86.53415 165.0078 86.74513 164.7968C 86.95611 164.5858 87.11869 164.3425 87.23287 164.0668C 87.34705 163.7912 87.40414 163.5042 87.40414 163.2058z" stroke="none" fill="#000000" fill-rule="nonzero" /><path id="377" transform="matrix(1 0 0 -1 0 842)" d="M87.40414 127.2058C 87.40414 126.9075 87.34705 126.6205 87.23287 126.3448C 87.11869 126.0691 86.95611 125.8258 86.74513 125.6148C 86.53415 125.4039 86.29083 125.2413 86.01518 125.1271C 85.73952 125.0129 85.45251 124.9558 85.15414 124.9558C 84.85577 124.9558 84.56876 125.0129 84.29311 125.1271C 84.01745 125.2413 83.77413 125.4039 83.56316 125.6148C 83.35217 125.8258 83.18959 126.0691 83.07541 126.3448C 82.96124 126.6205 82.90414 126.9075 82.90414 127.2058C 82.90414 127.5042 82.96124 127.7912 83.07541 128.0669C 83.18959 128.3425 83.35217 128.5858 83.56316 128.7968C 83.77413 129.0078 84.01745 129.1704 84.29311 129.2845C 84.56876 129.3987 84.85577 129.4558 85.15414 129.4558C 85.45251 129.4558 85.73952 129.3987 86.01518 129.2845C 86.29083 129.1704 86.53415 129.0078 86.74513 128.7968C 86.95611 128.5858 87.11869 128.3425 87.23287 128.0669C 87.34705 127.7912 87.40414 127.5042 87.40414 127.2058z" stroke="none" fill="#000000" fill-rule="nonzero" /><path id="429" transform="matrix(1 0 0 -1 0 842)" d="M87.40414 109.2058C 87.40414 108.9075 87.34705 108.6205 87.23287 108.3448C 87.11869 108.0691 86.95611 107.8258 86.74513 107.6148C 86.53415 107.4039 86.29083 107.2413 86.01518 107.1271C 85.73952 107.0129 85.45251 106.9558 85.15414 106.9558C 84.85577 106.9558 84.56876 107.0129 84.29311 107.1271C 84.01745 107.2413 83.77413 107.4039 83.56316 107.6148C 83.35217 107.8258 83.18959 108.0691 83.07541 108.3448C 82.96124 108.6205 82.90414 108.9075 82.90414 109.2058C 82.90414 109.5042 82.96124 109.7912 83.07541 110.0669C 83.18959 110.3425 83.35217 110.5858 83.56316 110.7968C 83.77413 111.0078 84.01745 111.1704 84.29311 111.2846C 84.56876 111.3987 84.85577 111.4558 85.15414 111.4558C 85.45251 111.4558 85.73952 111.3987 86.01518 111.2846C 86.29083 111.1704 86.53415 111.0078 86.74513 110.7968C 86.95611 110.5858 87.11869 110.3425 87.23287 110.0669C 87.34705 109.7912 87.40414 109.5042 87.40414 109.2058z" stroke="none" fill="#000000" fill-rule="nonzero" /><path id="476" transform="matrix(1 0 0 -1 0 842)" d="M87.40414 91.20581C 87.40414 90.90744 87.34705 90.62042 87.23287 90.34479C 87.11869 90.06914 86.95611 89.82581 86.74513 89.61484C 86.53415 89.40387 86.29083 89.2413 86.01518 89.12711C 85.73952 89.01291 85.45251 88.95584 85.15414 88.95581C 84.85577 88.95584 84.56876 89.01291 84.29311 89.12711C 84.01745 89.2413 83.77413 89.40387 83.56316 89.61484C 83.35217 89.82581 83.18959 90.06914 83.07541 90.34479C 82.96124 90.62042 82.90414 90.90744 82.90414 91.20581C 82.90414 91.50421 82.96124 91.79123 83.07541 92.06686C 83.18959 92.34253 83.35217 92.58585 83.56316 92.79681C 83.77413 93.0078 84.01745 93.17038 84.29311 93.28456C 84.56876 93.39873 84.85577 93.45581 85.15414 93.45581C 85.45251 93.45581 85.73952 93.39873 86.01518 93.28456C 86.29083 93.17038 86.53415 93.0078 86.74513 92.79681C 86.95611 92.58585 87.11869 92.34253 87.23287 92.06686C 87.34705 91.79123 87.40414 91.50421 87.40414 91.20581z" stroke="none" fill="#000000" fill-rule="nonzero" /></g><g clip-path="url(#30)"><g clip-path="url(#31)"><g clip-path="url(#32)"><g clip-path="url(#33)"><g clip-path="url(#34)"><g transform="matrix(0.4746729 0 0 0.4753703 424.0408 584.1602)"><g transform="matrix(1 0 0 1 0 0)"><image x="0" y="0" xlink:href="img_02.png" width="285" height="297" /></g></g></g></g></g></g></g><g clip-path="url(#35)"><g clip-path="url(#36)"><g clip-path="url(#37)"><g clip-path="url(#38)"><g clip-path="url(#39)"><path id="528" transform="matrix(1 0 0 -1 0 842)" d="M491.6685 257.0898L490.9109 257.0854L490.902 258.5853L491.6596 258.5898L491.6685 257.0898zM492.4582 257.0849L491.7007 257.0898L491.7105 258.5898L492.468 258.5848L492.4582 257.0849zM493.949 257.0486L493.1959 257.0714L493.241 258.5706L493.9941 258.548L493.949 257.0486zM495.4308 256.9777L494.6822 257.0179L494.7627 258.5157L495.5113 258.4755L495.4308 256.9777zM496.9033 256.8724L496.1595 256.9299L496.2752 258.4255L497.019 258.3679L496.9033 256.8724zM498.3726 256.7324L497.6272 256.8078L497.7781 258.3002L498.5236 258.2248L498.3726 256.7324zM499.8532 256.5558L499.1054 256.6495L499.2919 258.1378L500.0397 258.0441L499.8532 256.5558zM501.3228 256.3447L500.5805 256.4558L500.8026 257.9392L501.5448 257.8282L501.3228 256.3447zM502.7811 256.0995L502.0446 256.2278L502.3019 257.7056L503.0385 257.5773L502.7811 256.0995zM504.228 255.8208L503.4972 255.966L503.7896 257.4373L504.5205 257.292L504.228 255.8208zM505.6841 255.5039L504.9489 255.6685L505.2766 257.1323L506.0118 256.9677L505.6841 255.5039zM507.1271 255.1532L506.3985 255.3349L506.7613 256.7903L507.4899 256.6087L507.1271 255.1532zM508.5568 254.7693L507.835 254.9677L508.2326 256.4141L508.9544 256.2156L508.5568 254.7693zM509.9727 254.3524L509.2579 254.5675L509.69 256.0039L510.4048 255.7888L509.9727 254.3524zM511.3881 253.8985L510.6725 254.1327L511.139 255.5583L511.8546 255.3241L511.3881 253.8985zM512.7907 253.4112L512.0828 253.6619L512.5835 255.0758L513.2914 254.8251L512.7907 253.4112zM514.1779 252.8915L513.4778 253.1585L514.0123 254.5601L514.7124 254.2931L514.1779 252.8915zM515.5491 252.3401L514.8572 252.6231L515.4251 254.0114L516.1171 253.7284L515.5491 252.3401zM516.9167 251.7516L516.2247 252.0542L516.8257 253.4285L517.5178 253.1259L516.9167 251.7516zM518.2712 251.1296L517.588 251.4483L518.222 252.8077L518.9053 252.489L518.2712 251.1296zM519.6081 250.4764L518.9338 250.8108L519.6003 252.1546L520.2746 251.8202L519.6081 250.4764zM520.9268 249.7924L520.2618 250.1424L520.9603 251.4698L521.6253 251.1199L520.9268 249.7924zM522.2269 249.0781L521.5714 249.4433L522.3014 250.7537L522.9569 250.3885L522.2269 249.0781zM523.5079 248.334L522.8621 248.7142L523.6232 250.0068L524.269 249.6265L523.5079 248.334zM524.7693 247.5604L524.1335 247.9555L524.9251 249.2296L525.561 248.8345L524.7693 247.5604zM526.0108 246.7579L525.3851 247.1676L526.2068 248.4225L526.8325 248.0129L526.0108 246.7579zM527.2374 245.9231L526.6177 246.3502L527.469 247.5852L528.0887 247.1581L527.2374 245.9231zM528.446 245.0576L527.8372 245.4991L528.7176 246.7135L529.3265 246.2721L528.446 245.0576zM529.6329 244.1643L529.035 244.6198L529.9442 245.813L530.5419 245.3575L529.6329 244.1643zM530.7975 243.2436L530.211 243.7129L531.1482 244.8841L531.7347 244.4148L530.7975 243.2436zM531.9394 242.2959L531.3644 242.7787L532.3292 243.9274L532.9041 243.4445L531.9394 242.2959zM533.0581 241.3217L532.495 241.8179L533.4866 242.9433L534.0498 242.4471L533.0581 241.3217zM534.1531 240.3216L533.6021 240.8308L534.6201 241.9325L535.1712 241.4232L534.1531 240.3216zM535.2216 239.2983L535.1108 239.4066L534.6859 239.8174L535.7285 240.8958L536.1597 240.4789L536.2704 240.3706L535.2216 239.2983zM536.2679 238.2477L536.1534 238.3651L535.7447 238.7792L536.8124 239.8328L537.2273 239.4123L537.3418 239.2949L536.2679 238.2477zM537.2914 237.1699L536.778 237.717L537.8716 238.7436L538.3851 238.1965L537.2914 237.1699zM538.287 236.0706L537.7865 236.6298L538.9042 237.6302L539.4047 237.071L538.287 236.0706zM539.2565 234.9477L538.7692 235.5188L539.9103 236.4924L540.3976 235.9213L539.2565 234.9477zM540.1994 233.8017L539.7256 234.3844L540.8895 235.3307L541.3633 234.7479L540.1994 233.8017zM541.1153 232.6331L540.6553 233.2272L541.8412 234.1455L542.3013 233.5514L541.1153 232.6331zM542.0036 231.4423L541.5576 232.0476L542.7651 232.9374L543.2112 232.3321L542.0036 231.4423zM542.864 230.2298L542.4322 230.846L543.6606 231.7069L544.0924 231.0907L542.864 230.2298zM543.6927 229.0011L543.2784 229.6233L544.5269 230.4547L544.9413 229.8324L543.6927 229.0011zM544.4901 227.756L544.0902 228.3885L545.3581 229.19L545.7579 228.5575L544.4901 227.756zM545.2584 226.491L544.8732 227.1336L546.1599 227.9047L546.545 227.2621L545.2584 226.491zM545.9973 225.2065L545.6271 225.8589L546.9317 226.5992L547.3019 225.9468L545.9973 225.2065zM546.7062 223.903L546.3512 224.565L547.6731 225.2739L548.0281 224.6119L546.7062 223.903zM547.3847 222.5811L547.0452 223.2523L548.3837 223.9294L548.7232 223.2581L547.3847 222.5811zM548.0323 221.241L547.7085 221.9214L549.0629 222.5661L549.3867 221.8857L548.0323 221.241zM548.6486 219.8834L548.3407 220.5726L549.7102 221.1845L550.0181 220.4953L548.6486 219.8834zM549.2302 218.5158L548.9413 219.2064L550.3252 219.7852L550.614 219.0945L549.2302 218.5158zM549.776 217.1416L549.5038 217.8391L550.9011 218.3845L551.1733 217.6871L549.776 217.1416zM550.2899 215.7516L550.0338 216.457L551.4438 216.9688L551.6999 216.2635L550.2899 215.7516zM550.7714 214.3463L550.5318 215.0594L551.9537 215.5371L552.1933 214.8241L550.7714 214.3463zM551.2185 212.9311L550.9971 213.6466L552.4301 214.09L552.6515 213.3745L551.2185 212.9311zM551.6295 211.5128L551.4257 212.2323L552.8688 212.6413L553.0727 211.9217L551.6295 211.5128zM552.0076 210.0806L551.8204 210.8071L553.2729 211.1814L553.4601 210.4549L552.0076 210.0806zM552.3522 208.6353L552.182 209.3684L553.6431 209.7076L553.8133 208.9745L552.3522 208.6353zM552.6622 207.1805L552.5099 207.9166L553.9788 208.2205L554.1311 207.4845L552.6622 207.1805zM552.935 205.7318L552.8011 206.4665L554.2769 206.7353L554.4107 206.0007L552.935 205.7318zM553.1741 204.2715L553.0573 205.0119L554.539 205.2455L554.6558 204.5051L553.1741 204.2715zM553.379 202.7999L553.2796 203.546L554.7664 203.7441L554.8658 202.9981L553.379 202.7999zM553.5494 201.3175L553.4675 202.0689L554.9587 202.2315L555.0406 201.48L553.5494 201.3175zM553.6828 199.8514L553.6196 200.5937L555.1143 200.7209L555.1774 199.9787L553.6828 199.8514zM553.782 198.3773L553.7361 199.1243L555.2333 199.2164L555.2792 198.4693L553.782 198.3773zM553.8468 196.8939L553.8184 197.6455L555.3173 197.7022L555.3457 196.9506L553.8468 196.8939zM553.8767 195.4016L553.866 196.1576L555.3658 196.179L555.3766 195.4229L553.8767 195.4016zM553.8715 193.9043L553.8785 194.6612L555.3785 194.6472L555.3714 193.8903L553.8715 193.9043zM553.8312 192.4145L553.856 193.1671L555.3551 193.1178L555.3303 192.3651L553.8312 192.4145zM553.7561 190.9337L553.7984 191.6818L555.296 191.5972L555.2537 190.8491L553.7561 190.9337zM553.6468 189.4624L553.7064 190.2057L555.2015 190.0858L555.142 189.3425L553.6468 189.4624zM553.5024 187.9909L553.5802 188.7391L555.0722 188.584L554.9944 187.8358L553.5024 187.9909zM553.3217 186.5116L553.4175 187.2588L554.9053 187.0681L554.8095 186.3209L553.3217 186.5116zM553.1066 185.0433L553.2197 185.7849L554.7025 185.5587L554.5894 184.8171L553.1066 185.0433zM552.8574 183.5864L552.9877 184.3222L554.4648 184.0607L554.3345 183.3248L552.8574 183.5864zM552.5742 182.1383L552.722 182.871L554.1924 182.5744L554.0446 181.8416L552.5742 182.1383zM552.2533 180.6838L552.4199 181.4182L553.8828 181.0863L553.7161 180.3519L552.2533 180.6838zM551.8987 179.2423L552.0823 179.9702L553.5367 179.6032L553.3531 178.8753L551.8987 179.2423zM551.5108 177.8142L551.7112 178.5352L553.1564 178.1335L552.956 177.4125L551.5108 177.8142zM551.0901 176.4L551.3071 177.114L552.7422 176.6778L552.5253 175.9638L551.0901 176.4zM550.6317 174.9844L550.8679 175.6991L552.2921 175.2285L552.056 174.5139L550.6317 174.9844zM550.1406 173.5836L550.3932 174.2906L551.8057 173.7859L551.5531 173.0789L550.1406 173.5836zM549.6171 172.1983L549.886 172.8974L551.286 172.3589L551.0172 171.6598L549.6171 172.1983zM549.0619 170.8289L549.3468 171.5199L550.7336 170.9481L550.4486 170.2571L549.0619 170.8289zM548.4688 169.4613L548.7734 170.1523L550.146 169.5474L549.8414 168.8564L548.4688 169.4613zM547.8431 168.1089L548.1637 168.7911L549.5213 168.1532L549.2007 167.471L547.8431 168.1089zM547.1863 166.7742L547.5226 167.4474L548.8644 166.777L548.5282 166.1039L547.1863 166.7742zM546.4987 165.4576L546.8505 166.1216L548.1759 165.4193L547.8241 164.7554L546.4987 165.4576zM545.7808 164.1598L546.1478 164.8142L547.4561 164.0804L547.0891 163.426L545.7808 164.1598zM545.0331 162.8811L545.4152 163.5257L546.7056 162.761L546.3236 162.1163L545.0331 162.8811zM544.2562 161.622L544.653 162.2566L545.9249 161.4614L545.528 160.8267L544.2562 161.622zM543.4503 160.3829L543.8617 161.0074L545.1143 160.1822L544.7029 159.5577L543.4503 160.3829zM542.6114 159.1577L543.0402 159.7761L544.2728 158.9214L543.844 158.3029L542.6114 159.1577zM541.7426 157.9516L542.1857 158.5592L543.3976 157.6754L542.9546 157.0678L541.7426 157.9516zM540.8461 156.7674L541.3032 157.3638L542.4938 156.4514L542.0366 155.8549L540.8461 156.7674zM539.9221 155.6054L540.393 156.1906L541.5616 155.2501L541.0906 154.665L539.9221 155.6054zM538.9713 154.4662L539.4557 155.0398L540.6016 154.0719L540.1171 153.4983L538.9713 154.4662zM537.994 153.3503L538.4918 153.912L539.6144 152.9172L539.1166 152.3555L537.994 153.3503zM536.9908 152.2581L537.5016 152.8077L538.6003 151.7866L538.0895 151.2369L536.9908 152.2581zM535.9621 151.19L536.4857 151.7274L537.56 150.6805L537.0364 150.1432L535.9621 151.19zM534.9088 150.147L535.3942 150.6216L535.4418 150.6687L536.4967 149.6023L536.4427 149.549L535.9573 149.0744L534.9088 150.147zM533.8303 149.1286L534.3789 149.6406L535.4024 148.544L534.8539 148.032L533.8303 149.1286zM532.7282 148.1361L533.2889 148.635L534.2861 147.5145L533.7255 147.0156L532.7282 148.1361zM531.6025 147.1697L532.175 147.6554L533.1454 146.5116L532.5729 146.0259L531.6025 147.1697zM530.4539 146.23L531.0379 146.7021L531.9809 145.5356L531.3969 145.0635L530.4539 146.23zM529.2826 145.3173L529.8781 145.7757L530.793 144.5871L530.1976 144.1287L529.2826 145.3173zM528.0892 144.4322L528.6958 144.8766L529.5823 143.6666L528.9757 143.2222L528.0892 144.4322zM526.8742 143.5752L527.4917 144.0053L528.3491 142.7746L527.7316 142.3444L526.8742 143.5752zM525.644 142.7506L526.2676 143.1632L527.0954 141.9124L526.4719 141.4997L525.644 142.7506zM524.3966 141.9567L525.0304 142.3548L525.8283 141.0847L525.1946 140.6865L524.3966 141.9567zM523.1293 141.1918L523.7731 141.5752L524.5405 140.2864L523.8968 139.903L523.1293 141.1918zM521.8425 140.4564L522.4961 140.8248L523.2327 139.5181L522.5792 139.1497L521.8425 140.4564zM520.5369 139.7511L521.2 140.1042L521.9051 138.7803L521.2421 138.4272L520.5369 139.7511zM519.2128 139.0762L519.8851 139.4139L520.5583 138.0734L519.886 137.7358L519.2128 139.0762zM517.8706 138.4322L518.552 138.7542L519.1929 137.398L518.5115 137.076L517.8706 138.4322zM516.5109 137.8197L517.2012 138.1257L517.8091 136.7544L517.1189 136.4484L516.5109 137.8197zM515.1434 137.2427L515.8336 137.5291L516.4084 136.1436L515.7182 135.8572L515.1434 137.2427zM513.7673 136.7006L514.4656 136.971L515.0072 135.5721L514.3088 135.3018L513.7673 136.7006zM512.3755 136.1906L513.0818 136.4447L513.5896 135.0332L512.8833 134.7791L512.3755 136.1906zM510.9684 135.7129L511.6823 135.9505L512.1561 134.5273L511.442 134.2897L510.9684 135.7129zM509.5534 135.2702L510.2678 135.4891L510.7071 134.0549L509.9927 133.836L509.5534 135.2702zM508.1334 134.8631L508.8537 135.0651L509.2586 133.6207L508.5382 133.4188L508.1334 134.8631zM506.6997 134.489L507.4269 134.6742L507.797 133.2206L507.0698 133.0354L506.6997 134.489zM505.2527 134.1484L505.9866 134.3165L506.3217 132.8544L505.5878 132.6863L505.2527 134.1484zM503.7991 133.8428L504.5333 133.9926L504.8331 132.5228L504.0989 132.3731L503.7991 133.8428zM502.349 133.574L503.0844 133.7059L503.3491 132.2294L502.6137 132.0976L502.349 133.574zM500.8873 133.339L501.6284 133.4537L501.8578 131.9713L501.1167 131.8566L500.8873 133.339zM499.4144 133.1381L500.1611 133.2354L500.3551 131.748L499.6084 131.6507L499.4144 133.1381zM497.9325 132.9719L498.6828 133.0516L498.8412 131.56L498.0908 131.4803L497.9325 132.9719zM496.4669 132.8427L497.2097 132.9039L497.3328 131.4089L496.5899 131.3478L496.4669 132.8427zM494.9916 132.7476L495.7392 132.7914L495.8271 131.294L495.0794 131.2502L494.9916 132.7476zM493.5071 132.6869L494.2593 132.7133L494.3119 131.2142L493.5596 131.1878L493.5071 132.6869zM492.0138 132.6611L492.7704 132.6698L492.7875 131.1698L492.031 131.1612L492.0138 132.6611zM490.5169 132.6705L491.2733 132.6613L491.2552 131.1614L490.4987 131.1706L490.5169 132.6705zM489.0282 132.7149L489.7802 132.6881L489.7267 131.189L488.9747 131.2159L489.0282 132.7149zM487.5485 132.794L488.296 132.7497L488.2072 131.2523L487.4597 131.2967L487.5485 132.794zM486.0783 132.9074L486.821 132.8458L486.697 131.3509L485.9542 131.4126L486.0783 132.9074zM484.6046 133.0561L485.3556 132.976L485.1964 131.4844L484.4454 131.5646L484.6046 133.0561zM483.1267 133.241L483.8732 133.1431L483.6783 131.6558L482.9317 131.7537L483.1267 133.241zM481.6597 133.4601L482.4006 133.345L482.1702 131.8628L481.4293 131.9779L481.6597 133.4601zM480.2041 133.7132L480.9392 133.5809L480.6736 132.1046L479.9384 132.2369L480.2041 133.7132zM478.7549 134.001L479.4895 133.8506L479.1887 132.3811L478.4541 132.5315L478.7549 134.001zM477.3019 134.3259L478.0356 134.1572L477.6995 132.6953L476.9659 132.864L477.3019 134.3259zM475.862 134.6844L476.589 134.4988L476.2179 133.0454L475.4909 133.2311L475.862 134.6844zM474.4355 135.0762L475.1557 134.8738L474.7499 133.4298L474.0297 133.6322L474.4355 135.0762zM473.0214 135.5013L473.7361 135.2819L473.2958 133.8479L472.5811 134.0673L473.0214 135.5013zM471.6072 135.9637L472.321 135.7255L471.8464 134.3026L471.1326 134.5407L471.6072 135.9637zM470.2082 136.4586L470.9143 136.2041L470.4056 134.793L469.6995 135.0475L470.2082 136.4586zM468.8248 136.9858L469.5229 136.715L468.9805 135.3166L468.2823 135.5874L468.8248 136.9858zM467.4573 137.5448L468.1473 137.258L467.5716 135.8729L466.8816 136.1597L467.4573 137.5448zM466.0897 138.1425L466.7797 137.836L466.1708 136.4652L465.4808 136.7716L466.0897 138.1425zM464.7393 138.7719L465.4205 138.4495L464.7788 137.0937L464.0976 137.4161L464.7393 138.7719zM463.4067 139.4324L464.0789 139.0943L463.4048 137.7543L462.7326 138.0924L463.4067 139.4324zM462.0924 140.1236L462.7552 139.77L462.0492 138.4465L461.3864 138.8001L462.0924 140.1236zM460.7968 140.845L461.45 140.4762L460.7126 139.17L460.0594 139.5388L460.7968 140.845zM459.5204 141.5961L460.1638 141.2123L459.3955 139.9241L458.752 140.3079L459.5204 141.5961zM458.2636 142.3766L458.8971 141.978L458.0983 140.7084L457.4648 141.1069L458.2636 142.3766zM457.0269 143.1858L457.6502 142.7727L456.8215 141.5224L456.1983 141.9355L457.0269 143.1858zM455.8032 144.0288L456.4203 143.5983L455.5621 142.3681L454.9449 142.7986L455.8032 144.0288zM454.5996 144.9009L455.2059 144.4561L454.3187 143.2467L453.7124 143.6914L454.5996 144.9009zM453.418 145.8007L454.0132 145.3419L453.0974 144.1539L452.5023 144.6127L453.418 145.8007zM452.2587 146.7279L452.8425 146.2554L451.8988 145.0894L451.315 145.562L452.2587 146.7279zM451.1222 147.6819L451.6944 147.1959L450.7233 146.0527L450.1511 146.5387L451.1222 147.6819zM450.0091 148.6622L450.5694 148.1629L449.5714 147.0431L449.0111 147.5424L450.0091 148.6622zM448.9197 149.6685L449.4679 149.1561L448.4437 148.0602L447.8955 148.5726L448.9197 149.6685zM447.856 150.6987L448.1494 150.4097L448.3887 150.1767L447.3423 149.1019L447.0967 149.3411L446.8033 149.6302L447.856 150.6987zM446.8152 151.7556L447.1714 151.3883L447.3354 151.2211L446.2647 150.1706L446.0945 150.3441L445.7383 150.7115L446.8152 151.7556zM445.7991 152.8376L446.3095 152.2876L445.2101 151.2672L444.6996 151.8172L445.7991 152.8376zM444.8097 153.9426L445.307 153.3805L444.1837 152.3864L443.6863 152.9485L444.8097 153.9426zM443.8464 155.071L444.3305 154.4971L443.184 153.5299L442.6999 154.1038L443.8464 155.071zM442.9099 156.2224L443.3804 155.6369L442.2112 154.6972L441.7407 155.2827L442.9099 156.2224zM442.0004 157.3963L442.4572 156.7995L441.266 155.8878L440.8092 156.4846L442.0004 157.3963zM441.1186 158.5922L441.5613 157.9844L440.3488 157.1013L439.9061 157.7092L441.1186 158.5922zM440.2649 159.8097L440.6934 159.191L439.4601 158.3371L439.0317 158.9558L440.2649 159.8097zM439.4444 161.0413L439.8553 160.4165L438.6022 159.5922L438.1912 160.2169L439.4444 161.0413zM438.6539 162.2911L439.0503 161.6562L437.7779 160.8618L437.3815 161.4967L438.6539 162.2911zM437.8925 163.5607L438.2741 162.9158L436.9832 162.1519L436.6015 162.7968L437.8925 163.5607zM437.1606 164.8497L437.5273 164.1951L436.2185 163.4622L435.8519 164.1168L437.1606 164.8497zM436.4589 166.1576L436.8102 165.4934L435.4843 164.792L435.133 165.4562L436.4589 166.1576zM435.7876 167.4839L436.1234 166.8105L434.7811 166.141L434.4453 166.8145L435.7876 167.4839zM435.1473 168.8281L435.4674 168.1457L434.1094 167.5087L433.7893 168.1912L435.1473 168.8281zM434.5385 170.1899L434.8426 169.4986L433.4697 168.8945L433.1655 169.5858L434.5385 170.1899zM433.9661 171.5574L434.2506 170.8662L432.8635 170.2953L432.579 170.9865L433.9661 171.5574zM433.4278 172.9353L433.6962 172.236L432.2959 171.6985L432.0274 172.3978L433.4278 172.9353zM432.9215 174.329L433.1737 173.6218L431.7608 173.118L431.5087 173.8252L432.9215 174.329zM432.4477 175.7379L432.6834 175.023L431.2589 174.5533L431.0232 175.2682L432.4477 175.7379zM432.0095 177.1527L432.2261 176.4385L430.7906 176.0033L430.5741 176.7174L432.0095 177.1527zM431.6063 178.5743L431.8062 177.8531L430.3608 177.4524L430.1608 178.1736L431.6063 178.5743zM431.2361 180.0096L431.4193 179.2816L429.9646 178.9156L429.7814 179.6436L431.2361 180.0096zM430.8994 181.4581L431.0656 180.7234L429.6026 180.3925L429.4364 181.1271L430.8994 181.4581zM430.5984 182.9106L430.7456 182.1783L429.2751 181.8826L429.1278 182.6149L430.5984 182.9106zM430.3336 184.3621L430.4634 183.6261L428.9862 183.3655L428.8564 184.1015L430.3336 184.3621zM430.1025 185.8251L430.2152 185.0834L428.7322 184.8581L428.6195 185.5999L430.1025 185.8251zM429.9057 187.2993L430.001 186.552L428.5131 186.3622L428.4178 187.1096L429.9057 187.2993zM429.744 188.7791L429.8212 188.0316L428.3292 187.8774L428.2519 188.625L429.744 188.7791zM429.6188 190.2459L429.6779 189.5025L428.1826 189.3836L428.1235 190.127L429.6188 190.2459zM429.5277 191.7224L429.5695 190.9742L428.0718 190.8905L428.03 191.6387L429.5277 191.7224zM429.4711 193.2079L429.4954 192.4552L427.9962 192.4068L427.9719 193.1595L429.4711 193.2079zM429.4494 194.7022L429.456 193.9452L427.9561 193.9322L427.9495 194.6892L429.4494 194.7022zM429.463 196.1985L429.4518 195.4425L427.9519 195.4649L427.9632 196.2208L429.463 196.1985zM429.5116 197.6862L429.4826 196.9346L427.9838 196.9923L428.0127 197.7438L429.5116 197.6862zM429.5948 199.1647L429.5484 198.4178L428.0512 198.5107L428.0976 199.2577L429.5948 199.1647zM429.7122 200.6339L429.6485 199.8917L428.154 200.0199L428.2176 200.762L429.7122 200.6339zM429.8653 202.1096L429.7829 201.3583L428.2918 201.5217L428.3742 202.273L429.8653 202.1096zM430.0542 203.5863L429.9543 202.8404L428.4675 203.0395L428.5674 203.7854L430.0542 203.5863zM430.2774 205.0519L430.1602 204.3117L428.6786 204.5462L428.7958 205.2865L430.2774 205.0519zM430.5345 206.5062L430.4001 205.7717L428.9246 206.0415L429.0589 206.776L430.5345 206.5062zM430.8267 207.9565L430.6738 207.2201L429.2051 207.525L429.358 208.2615L430.8267 207.9565zM431.1556 209.408L430.9849 208.675L429.524 209.0152L429.6947 209.7482L431.1556 209.408zM431.5181 210.8463L431.3305 210.1201L429.8781 210.4953L430.0658 211.2215L431.5181 210.8463zM431.9138 212.2711L431.7094 211.5518L430.2665 211.9617L430.4709 212.6811L431.9138 212.2711zM432.3433 213.6855L432.1213 212.9698L430.6886 213.4141L430.9106 214.1299L432.3433 213.6855zM432.8095 215.0979L432.5695 214.385L431.1479 214.8637L431.388 215.5766L432.8095 215.0979zM433.3083 216.4951L433.0519 215.7899L431.6422 216.3026L431.8987 217.0078L433.3083 216.4951zM433.8393 217.8767L433.5667 217.1795L432.1697 217.7258L432.4424 218.4231L433.8393 217.8767zM434.4028 219.244L434.1133 218.5532L432.7299 219.1328L433.0193 219.8237L434.4028 219.244zM435.0043 220.6098L434.696 219.9208L433.3268 220.5336L433.6352 221.2226L435.0043 220.6098zM435.6374 221.9581L435.3131 221.278L433.9591 221.9235L434.2834 222.6037L435.6374 221.9581zM436.3016 223.2885L435.9616 222.6175L434.6235 223.2954L434.9635 223.9664L436.3016 223.2885zM436.9963 224.6007L436.641 223.939L435.3195 224.6487L435.6749 225.3104L436.9963 224.6007zM437.7213 225.8941L437.3507 225.2419L436.0466 225.9831L436.4172 226.6352L437.7213 225.8941zM438.4759 227.1682L438.0904 226.5259L436.8043 227.2979L437.1898 227.9402L438.4759 227.1682zM439.2598 228.4226L438.8595 227.7903L437.5921 228.5927L437.9924 229.2249L439.2598 228.4226zM440.0724 229.6568L439.6576 229.0349L438.4096 229.867L438.8244 230.489L440.0724 229.6568zM440.9195 230.8792L440.4873 230.2633L439.2595 231.125L439.6917 231.7409L440.9195 230.8792zM441.7949 232.0801L441.3484 231.4752L440.1415 232.3658L440.5879 232.9708L441.7949 232.0801zM442.6979 233.2592L442.2375 232.6653L441.0521 233.5844L441.5125 234.1783L442.6979 233.2592zM443.6283 234.4158L443.1542 233.8334L441.9909 234.7804L442.465 235.3628L443.6283 234.4158zM444.5854 235.5495L444.0978 234.9788L442.9573 235.9531L443.445 236.5239L444.5854 235.5495zM445.5689 236.6599L445.068 236.101L443.951 237.1021L444.4518 237.661L445.5689 236.6599zM446.5782 237.7465L446.0643 237.1997L444.9713 238.2269L445.4851 238.7737L446.5782 237.7465zM447.6127 238.8087L447.0861 238.2743L446.0177 239.3271L446.5443 239.8615L447.6127 238.8087zM448.6722 239.8461L448.1331 239.3243L447.0899 240.4022L447.629 240.924L448.6722 239.8461zM449.756 240.8582L449.2046 240.3493L448.1873 241.4516L448.7387 241.9605L449.756 240.8582zM450.8638 241.8446L450.3003 241.3487L449.3094 242.4748L449.8728 242.9706L450.8638 241.8446zM451.9949 242.8047L451.4197 242.3222L450.4557 243.4714L451.0309 243.9539L451.9949 242.8047zM453.149 243.7381L452.5622 243.2691L451.6258 244.4409L452.2126 244.9099L453.149 243.7381zM454.3255 244.6443L453.7274 244.1891L452.8191 245.3829L453.4172 245.838L454.3255 244.6443zM455.524 245.5228L454.9149 245.0817L454.0352 246.2967L454.6444 246.7377L455.524 245.5228zM456.7441 246.3731L456.1241 245.9464L455.2736 247.182L455.8936 247.6087L456.7441 246.3731zM457.977 247.1895L457.351 246.7803L456.5302 248.0358L457.1562 248.445L457.977 247.1895zM459.2292 247.9767L458.593 247.582L457.8022 248.8566L458.4384 249.2513L459.2292 247.9767zM460.5011 248.7346L459.855 248.3547L459.0948 249.6478L459.7409 250.0276L460.5011 248.7346zM461.7924 249.4629L461.1366 249.0981L460.4074 250.4089L461.0632 250.7737L461.7924 249.4629zM463.1024 250.1611L462.4372 249.8116L461.7395 251.1395L462.4048 251.489L463.1024 250.1611zM464.4309 250.8287L463.7564 250.4947L463.0908 251.8389L463.7653 252.1729L464.4309 250.8287zM465.7772 251.4653L465.0937 251.1471L464.4606 252.5069L465.1441 252.8251L465.7772 251.4653zM467.141 252.0704L466.4487 251.7681L465.8485 253.1428L466.5408 253.4451L467.141 252.0704zM468.5085 252.6382L467.8163 252.3556L467.2493 253.7443L467.9415 254.0269L468.5085 252.6382zM469.8883 253.1727L469.188 252.9062L468.6544 254.3081L469.3547 254.5746L469.8883 253.1727zM471.2838 253.6752L470.5756 253.425L470.0759 254.8392L470.784 255.0895L471.2838 253.6752zM472.6944 254.1451L471.9787 253.9114L471.5131 255.3373L472.2289 255.571L472.6944 254.1451zM474.109 254.5789L473.394 254.3643L472.9628 255.8009L473.6778 256.0155L474.109 254.5789zM475.5323 254.9782L474.8103 254.7802L474.4136 256.2268L475.1356 256.4248L475.5323 254.9782zM476.9692 255.3445L476.2404 255.1633L475.8785 256.619L476.6073 256.8002L476.9692 255.3445zM478.4192 255.6771L477.6837 255.513L477.357 256.977L478.0924 257.1411L478.4192 255.6771zM479.8706 255.9737L479.1398 255.8289L478.8483 257.3003L479.5791 257.4451L479.8706 255.9737zM481.3235 256.2345L480.5868 256.1067L480.3304 257.5847L481.0671 257.7124L481.3235 256.2345zM482.7878 256.4615L482.0454 256.3509L481.8243 257.8345L482.5668 257.9452L482.7878 256.4615zM484.2633 256.6543L483.5154 256.5611L483.3298 258.0496L484.0778 258.1428L484.2633 256.6543zM485.7411 256.8116L484.9962 256.7368L484.8463 258.2292L485.5911 258.3041L485.7411 256.8116zM487.209 256.9328L486.465 256.8757L486.3503 258.3713L487.0943 258.4284L487.209 256.9328zM488.6865 257.0198L487.9378 256.9801L487.8583 258.478L488.607 258.5177L488.6865 257.0198zM490.1731 257.0723L489.4199 257.0501L489.3757 258.5495L490.1289 258.5717L490.1731 257.0723z" stroke="none" fill="#000000" fill-rule="nonzero" /></g></g></g></g></g><g clip-path="url(#40)"><g transform="matrix(0.6435185 0 0 0.6435185 193.5546 328.7679)"><g transform="matrix(1 0 0 1 0 0)"><image x="0" y="0" xlink:href="img_03.png" width="324" height="324" /></g></g></g><g clip-path="url(#41)"><g transform="matrix(0.04881657 0 0 0.04866743 509.6544 17.08502)"><g transform="matrix(1 0 0 1 0 0)"><image x="0" y="0" xlink:href="img_04.png" width="1521" height="863" /></g></g></g><g clip-path="url(#42)"></g></g></g></svg>