<svg xmlns="http://www.w3.org/2000/svg" xmlns:xlink="http://www.w3.org/1999/xlink" id="body_1" preserveAspectRatio="xMinYMin meet" viewBox="0 0 793 1123"><defs><clipPath id="1"><path id="" clip-rule="evenodd" transform="matrix(1 0 0 1 0 0)" d="M0 842L0 -0.25L0 -0.25L595.5 -0.25L595.5 -0.25L595.5 842L595.5 842L0 842z" /></clipPath><clipPath id="2"><path id="" clip-rule="evenodd" transform="matrix(1 0 0 1 0 0)" d="M0 -0.249939L595.5 -0.249939L595.5 -0.249939L595.5 842.0001L595.5 842.0001L0 842.0001z" /></clipPath><clipPath id="3"><path id="" clip-rule="evenodd" transform="matrix(1 0 0 1 0 0)" d="M0 -0.249939L595.5 -0.249939L595.5 -0.249939L595.5 842.0001L595.5 842.0001L0 842.0001z" /></clipPath><clipPath id="4"><path id="" clip-rule="evenodd" transform="matrix(1 0 0 1 0 0)" d="M0 -0.249939L595.5 -0.249939L595.5 -0.249939L595.5 842.0001L595.5 842.0001L0 842.0001z" /></clipPath><clipPath id="5"><path id="" clip-rule="evenodd" transform="matrix(1 0 0 1 0 0)" d="M79.67999 38.15009L535.92 38.15009L535.92 38.15009L535.92 842.1501L535.92 842.1501L79.67999 842.1501z" /></clipPath><clipPath id="6"><path id="" clip-rule="evenodd" transform="matrix(1 0 0 1 0 0)" d="M79.74117 38.35956L535.7411 38.35956L535.7411 38.35956L535.7411 841.6096L535.7411 841.6096L79.74117 841.6096z" /></clipPath><clipPath id="7"><path id="" clip-rule="evenodd" transform="matrix(1 0 0 1 0 0)" d="M489.3922 29.22406L571.1422 29.22406L571.1422 29.22406L571.1422 75.72406L571.1422 75.72406L489.3922 75.72406z" /></clipPath><clipPath id="8"><path id="" clip-rule="evenodd" transform="matrix(1 0 0 1 0 0)" d="M7.072427 22.42804L112.0724 22.42804L112.0724 22.42804L112.0724 114.678L112.0724 114.678L7.072427 114.678z" /></clipPath><clipPath id="9"><path id="" clip-rule="evenodd" transform="matrix(1 0 0 1 0 0)" d="M0 -0.249939L595.5 -0.249939L595.5 -0.249939L595.5 842.0001L595.5 842.0001L0 842.0001z" /></clipPath><clipPath id="10"><path id="" clip-rule="evenodd" transform="matrix(1 0 0 1 0 0)" d="M7.2 243.8301L585.12 243.8301L585.12 243.8301L585.12 436.5501L585.12 436.5501L7.2 436.5501z" /></clipPath><clipPath id="11"><path id="" clip-rule="evenodd" transform="matrix(1 0 0 1 0 0)" d="M15.6797 252.3269L578.7352 252.3269L578.7352 252.3269L578.7352 430.0608L578.7352 430.0608L15.6797 430.0608z" /></clipPath><clipPath id="12"><path id="" clip-rule="evenodd" transform="matrix(1 0 0 1 0 0)" d="M40.4297 252.3269L553.8237 252.3269C 567.4928 252.3269 578.5737 263.4078 578.5737 277.0769L578.5737 277.0769L578.5737 405.3108C 578.5737 418.9798 567.4928 430.0608 553.8237 430.0608L553.8237 430.0608L40.4297 430.0608C 26.76065 430.0608 15.6797 418.9798 15.6797 405.3108L15.6797 405.3108L15.6797 277.0769C 15.6797 263.4078 26.76065 252.3269 40.4297 252.3269z" /></clipPath><clipPath id="13"><path id="" clip-rule="evenodd" transform="matrix(1 0 0 1 0 0)" d="M15.6797 252.3269L578.9297 252.3269L578.9297 252.3269L578.9297 430.0769L578.9297 430.0769L15.6797 430.0769z" /></clipPath><clipPath id="14"><path id="" clip-rule="evenodd" transform="matrix(1 0 0 1 0 0)" d="M15.68769 252.3269L579.316 252.3269L579.316 252.3269L579.316 430.9022L579.316 430.9022L15.68769 430.9022z" /></clipPath><clipPath id="15"><path id="" clip-rule="evenodd" transform="matrix(1 0 0 1 0 0)" d="M40.43667 252.3269L553.8095 252.3269C 567.478 252.3269 578.5585 263.4073 578.5585 277.0759L578.5585 277.0759L578.5585 405.3044C 578.5585 418.973 567.478 430.0535 553.8095 430.0535L553.8095 430.0535L40.43667 430.0535C 26.76818 430.0535 15.68769 418.973 15.68769 405.3044L15.68769 405.3044L15.68769 277.0759C 15.68769 263.4073 26.76818 252.3269 40.43667 252.3269z" /></clipPath><clipPath id="16"><path id="" clip-rule="evenodd" transform="matrix(1 0 0 1 0 0)" d="M437.476 296.0474L564.976 296.0474L564.976 296.0474L564.976 419.0474L564.976 419.0474L437.476 419.0474z" /></clipPath><clipPath id="17"><path id="" clip-rule="evenodd" transform="matrix(1 0 0 1 0 0)" d="M0 -0.249939L595.5 -0.249939L595.5 -0.249939L595.5 842.0001L595.5 842.0001L0 842.0001z" /></clipPath><clipPath id="18"><path id="" clip-rule="evenodd" transform="matrix(1 0 0 1 0 0)" d="M46.32 434.3901L548.88 434.3901L548.88 434.3901L548.88 691.1901L548.88 691.1901L46.32 691.1901z" /></clipPath><clipPath id="19"><path id="" clip-rule="evenodd" transform="matrix(1 0 0 1 0 0)" d="M54.78149 442.8108L540.5748 442.8108L540.5748 442.8108L540.5748 682.8939L540.5748 682.8939L54.78149 682.8939z" /></clipPath><clipPath id="20"><path id="" clip-rule="evenodd" transform="matrix(1 0 0 1 0 0)" d="M79.53149 442.8108L515.7441 442.8108C 529.4131 442.8108 540.4941 453.8917 540.4941 467.5608L540.4941 467.5608L540.4941 658.1439C 540.4941 671.813 529.4131 682.8939 515.7441 682.8939L515.7441 682.8939L79.53149 682.8939C 65.86244 682.8939 54.78149 671.813 54.78149 658.1439L54.78149 658.1439L54.78149 467.5608C 54.78149 453.8917 65.86244 442.8108 79.53149 442.8108z" /></clipPath><clipPath id="21"><path id="" clip-rule="evenodd" transform="matrix(1 0 0 1 0 0)" d="M54.78149 442.8108L540.7815 442.8108L540.7815 442.8108L540.7815 682.8108L540.7815 682.8108L54.78149 682.8108z" /></clipPath><clipPath id="22"><path id="" clip-rule="evenodd" transform="matrix(1 0 0 1 0 0)" d="M54.78149 442.8116L543.0879 442.8116L543.0879 442.8116L543.0879 685.5696L543.0879 685.5696L54.78149 685.5696z" /></clipPath><clipPath id="23"><path id="" clip-rule="evenodd" transform="matrix(1 0 0 1 0 0)" d="M79.5312 442.8116L515.7388 442.8116C 529.4077 442.8116 540.4885 453.8924 540.4885 467.5613L540.4885 467.5613L540.4885 658.1423C 540.4885 671.8112 529.4077 682.892 515.7388 682.892L515.7388 682.892L79.5312 682.892C 65.86231 682.892 54.78149 671.8112 54.78149 658.1423L54.78149 658.1423L54.78149 467.5613C 54.78149 453.8924 65.86231 442.8116 79.5312 442.8116z" /></clipPath><clipPath id="24"><path id="" clip-rule="evenodd" transform="matrix(1 0 0 1 0 0)" d="M0 -0.249939L595.5 -0.249939L595.5 -0.249939L595.5 842.0001L595.5 842.0001L0 842.0001z" /></clipPath><clipPath id="25"><path id="" clip-rule="evenodd" transform="matrix(1 0 0 1 0 0)" d="M0 -0.249939L595.5 -0.249939L595.5 -0.249939L595.5 842.0001L595.5 842.0001L0 842.0001z" /></clipPath><clipPath id="26"><path id="" clip-rule="evenodd" transform="matrix(1 0 0 1 0 0)" d="M176.8002 571.5544L291.5502 571.5544L291.5502 571.5544L291.5502 657.8044L291.5502 657.8044L176.8002 657.8044z" /></clipPath><clipPath id="27"><path id="" clip-rule="evenodd" transform="matrix(1 0 0 1 0 0)" d="M176.8002 583.5544L176.8002 645.3914C 176.8002 652.0189 182.1728 657.3914 188.8002 657.3914L188.8002 657.3914L279.2496 657.3914C 285.877 657.3914 291.2496 652.0189 291.2496 645.3914L291.2496 645.3914L291.2496 583.5544C 291.2496 580.3718 289.9853 577.3195 287.7349 575.0692C 285.4844 572.8187 282.4322 571.5544 279.2496 571.5544L279.2496 571.5544L188.8002 571.5544C 182.1728 571.5544 176.8002 576.9269 176.8002 583.5544z" /></clipPath><clipPath id="28"><path id="" clip-rule="evenodd" transform="matrix(1 0 0 1 0 0)" d="M176.8002 571.5544L291.5502 571.5544L291.5502 571.5544L291.5502 657.0544L291.5502 657.0544L176.8002 657.0544z" /></clipPath><clipPath id="29"><path id="" clip-rule="evenodd" transform="matrix(1 0 0 1 0 0)" d="M0 -0.249939L595.5 -0.249939L595.5 -0.249939L595.5 842.0001L595.5 842.0001L0 842.0001z" /></clipPath><clipPath id="30"><path id="" clip-rule="evenodd" transform="matrix(1 0 0 1 0 0)" d="M0 -0.249939L595.5 -0.249939L595.5 -0.249939L595.5 842.0001L595.5 842.0001L0 842.0001z" /></clipPath><clipPath id="31"><path id="" clip-rule="evenodd" transform="matrix(1 0 0 1 0 0)" d="M65.48248 467.7199L177.2325 467.7199L177.2325 467.7199L177.2325 557.7199L177.2325 557.7199L65.48248 557.7199z" /></clipPath><clipPath id="32"><path id="" clip-rule="evenodd" transform="matrix(1 0 0 1 0 0)" d="M65.48248 480.4699L65.48248 544.2754C 65.48248 551.317 71.19086 557.0254 78.23248 557.0254L78.23248 557.0254L164.0502 557.0254C 171.0919 557.0254 176.8002 551.317 176.8002 544.2754L176.8002 544.2754L176.8002 480.4699C 176.8002 473.4283 171.0919 467.7199 164.0502 467.7199L164.0502 467.7199L78.23248 467.7199C 71.19086 467.7199 65.48248 473.4283 65.48248 480.4699z" /></clipPath><clipPath id="33"><path id="" clip-rule="evenodd" transform="matrix(1 0 0 1 0 0)" d="M65.48248 467.7199L176.4825 467.7199L176.4825 467.7199L176.4825 556.9699L176.4825 556.9699L65.48248 556.9699z" /></clipPath><clipPath id="34"><path id="" clip-rule="evenodd" transform="matrix(1 0 0 1 0 0)" d="M0 -0.249939L595.5 -0.249939L595.5 -0.249939L595.5 842.0001L595.5 842.0001L0 842.0001z" /></clipPath><clipPath id="35"><path id="" clip-rule="evenodd" transform="matrix(1 0 0 1 0 0)" d="M5.76 687.11L586.32 687.11L586.32 687.11L586.32 826.79L586.32 826.79L5.76 826.79z" /></clipPath><clipPath id="36"><path id="" clip-rule="evenodd" transform="matrix(1 0 0 1 0 0)" d="M14.2152 695.6439L579.038 695.6439L579.038 695.6439L579.038 818.4941L579.038 818.4941L14.2152 818.4941z" /></clipPath><clipPath id="37"><path id="" clip-rule="evenodd" transform="matrix(1 0 0 1 0 0)" d="M38.9652 695.6439L553.8237 695.6439C 567.4928 695.6439 578.5737 706.7249 578.5737 720.3939L578.5737 720.3939L578.5737 793.7441C 578.5737 807.4131 567.4928 818.4941 553.8237 818.4941L553.8237 818.4941L38.9652 818.4941C 25.29616 818.4941 14.2152 807.4131 14.2152 793.7441L14.2152 793.7441L14.2152 720.3939C 14.2152 706.7249 25.29616 695.6439 38.9652 695.6439z" /></clipPath><clipPath id="38"><path id="" clip-rule="evenodd" transform="matrix(1 0 0 1 0 0)" d="M14.2152 695.6439L578.2152 695.6439L578.2152 695.6439L578.2152 818.6439L578.2152 818.6439L14.2152 818.6439z" /></clipPath><clipPath id="39"><path id="" clip-rule="evenodd" transform="matrix(1 0 0 1 0 0)" d="M14.21748 695.6439L580.6479 695.6439L580.6479 695.6439L580.6479 821.2073L580.6479 821.2073L14.21748 821.2073z" /></clipPath><clipPath id="40"><path id="" clip-rule="evenodd" transform="matrix(1 0 0 1 0 0)" d="M38.96697 695.6439L553.815 695.6439C 567.4838 695.6439 578.5645 706.7247 578.5645 720.3934L578.5645 720.3934L578.5645 793.7421C 578.5645 807.4109 567.4838 818.4916 553.815 818.4916L553.815 818.4916L38.96697 818.4916C 25.2982 818.4916 14.21748 807.4109 14.21748 793.7421L14.21748 793.7421L14.21748 720.3934C 14.21748 706.7247 25.2982 695.6439 38.96697 695.6439z" /></clipPath></defs><g transform="matrix(1.333333 0 0 1.333333 0 0)"><g clip-path="url(#1)"><g clip-path="url(#2)"><path id="1" transform="matrix(1 0 0 -1 0 842)" d="M0 842.2499L595.4999 842.2499L595.4999 -6.103516E-05L0 -6.103516E-05z" stroke="none" fill="#FFFFFF" fill-rule="nonzero" /></g><g clip-path="url(#3)"><path id="2" transform="matrix(1 0 0 -1 0 842)" d="M0 842.2499L595.4999 842.2499L595.4999 -6.103516E-05L0 -6.103516E-05z" stroke="none" fill="#E9FCFF" fill-rule="nonzero" /></g><g clip-path="url(#4)"><g><g clip-path="url(#5)"><g clip-path="url(#6)"><g transform="matrix(0 0.5281065 -0.5283893 0 535.7411 38.35962)"><g transform="matrix(1 0 0 1 0 0)"><image x="0" y="0" xlink:href="img_01.png" width="1521" height="863" /></g></g></g></g></g></g><g clip-path="url(#7)"><g transform="matrix(0.05374753 0 0 0.0538818 489.3922 29.22412)"><g transform="matrix(1 0 0 1 0 0)"><image x="0" y="0" xlink:href="img_02.png" width="1521" height="863" /></g></g></g><g clip-path="url(#8)"><g transform="matrix(0.4929577 0 0 0.4906914 7.072427 22.42804)"><g transform="matrix(1 0 0 1 0 0)"><image x="0" y="0" xlink:href="img_03.png" width="213" height="188" /></g></g></g><g clip-path="url(#9)"><g><g clip-path="url(#10)"><g clip-path="url(#11)"><g clip-path="url(#12)"><path id="224" transform="matrix(1 0 0 -1 0 842)" d="M15.6797 589.6731L578.7351 589.6731L578.7351 411.9392L15.6797 411.9392z" stroke="none" fill="#80EEFF" fill-rule="nonzero" fill-opacity="0.227451" /></g></g><g clip-path="url(#13)"><g clip-path="url(#14)"><g clip-path="url(#15)"><path id="225" transform="matrix(1 0 0 -1 0 842)" d="M40.43667 589.6731L553.8094 589.6731C 567.478 589.6731 578.5584 578.5926 578.5584 564.9241L578.5584 564.9241L578.5584 436.6955C 578.5584 423.027 567.478 411.9465 553.8094 411.9465L553.8094 411.9465L40.43667 411.9465C 26.76818 411.9465 15.68769 423.027 15.68769 436.6955L15.68769 436.6955L15.68769 564.9241C 15.68769 578.5926 26.76818 589.6731 40.43667 589.6731z" stroke="#000000" stroke-width="3" fill="none" /></g></g></g></g></g></g><g clip-path="url(#16)"><g transform="matrix(0.402439 0 0 0.403481 419.3363 293.8215)"><g transform="matrix(1 0 0 1 0 0)"><image x="0" y="0" xlink:href="img_04.png" width="410" height="316" /></g></g></g><g clip-path="url(#17)"><g><g clip-path="url(#18)"><g clip-path="url(#19)"><g clip-path="url(#20)"><path id="498" transform="matrix(1 0 0 -1 0 842)" d="M54.78149 399.1892L540.5747 399.1892L540.5747 159.106L54.78149 159.106z" stroke="none" fill="#80EEFF" fill-rule="nonzero" fill-opacity="0.227451" /></g></g><g clip-path="url(#21)"><g clip-path="url(#22)"><g clip-path="url(#23)"><path id="499" transform="matrix(1 0 0 -1 0 842)" d="M79.5312 399.1884L515.7388 399.1884C 529.4077 399.1884 540.4885 388.1075 540.4885 374.4387L540.4885 374.4387L540.4885 183.8577C 540.4885 170.1888 529.4077 159.108 515.7388 159.108L515.7388 159.108L79.5312 159.108C 65.86231 159.108 54.78149 170.1888 54.78149 183.8577L54.78149 183.8577L54.78149 374.4387C 54.78149 388.1075 65.86231 399.1884 79.5312 399.1884z" stroke="#000000" stroke-width="3" fill="none" /></g></g></g></g></g></g><g clip-path="url(#24)"><g clip-path="url(#25)"><g clip-path="url(#26)"><g clip-path="url(#27)"><g clip-path="url(#28)"><g transform="matrix(0.4482422 0 0 0.4453125 176.8002 571.5544)"><g transform="matrix(1 0 0 1 0 0)"><image x="0" y="0" xlink:href="img_05.png" width="256" height="192" /></g></g></g></g></g></g></g><g clip-path="url(#29)"><g clip-path="url(#30)"><g clip-path="url(#31)"><g clip-path="url(#32)"><g clip-path="url(#33)"><g transform="matrix(0.5051414 0 0 0.5038461 65.48248 467.7199)"><g transform="matrix(1 0 0 1 0 0)"><image x="0" y="0" xlink:href="img_06.png" width="389" height="195" /></g></g></g></g></g></g></g><g clip-path="url(#34)"><g><g clip-path="url(#35)"><g clip-path="url(#36)"><g clip-path="url(#37)"><path id="716" transform="matrix(1 0 0 -1 0 842)" d="M14.2152 146.3561L578.5581 146.3561L578.5581 23.50591L14.2152 23.50591z" stroke="none" fill="#80EEFF" fill-rule="nonzero" fill-opacity="0.227451" /></g></g><g clip-path="url(#38)"><g clip-path="url(#39)"><g clip-path="url(#40)"><path id="717" transform="matrix(1 0 0 -1 0 842)" d="M38.96697 146.3561L553.8149 146.3561C 567.4837 146.3561 578.5644 135.2753 578.5644 121.6066L578.5644 121.6066L578.5644 48.2579C 578.5644 34.58914 567.4837 23.50841 553.8149 23.50841L553.8149 23.50841L38.96697 23.50841C 25.2982 23.50841 14.21748 34.58914 14.21748 48.2579L14.21748 48.2579L14.21748 121.6066C 14.21748 135.2753 25.2982 146.3561 38.96697 146.3561z" stroke="#000000" stroke-width="3" fill="none" /></g></g></g></g></g></g></g></g></svg>