<svg xmlns="http://www.w3.org/2000/svg" xmlns:xlink="http://www.w3.org/1999/xlink" id="body_1" preserveAspectRatio="xMinYMin meet" viewBox="0 0 793 1123"><defs><clipPath id="1"><path id="" clip-rule="evenodd" transform="matrix(1 0 0 1 0 0)" d="M0 842L0 -0.25L0 -0.25L595.5 -0.25L595.5 -0.25L595.5 842L595.5 842L0 842z" /></clipPath><clipPath id="2"><path id="" clip-rule="evenodd" transform="matrix(1 0 0 1 0 0)" d="M0 -0.249939L595.5 -0.249939L595.5 -0.249939L595.5 842.0001L595.5 842.0001L0 842.0001z" /></clipPath><clipPath id="3"><path id="" clip-rule="evenodd" transform="matrix(1 0 0 1 0 0)" d="M0 -0.249939L595.5 -0.249939L595.5 -0.249939L595.5 842.0001L595.5 842.0001L0 842.0001z" /></clipPath><clipPath id="4"><path id="" clip-rule="evenodd" transform="matrix(1 0 0 1 0 0)" d="M0 -0.249939L595.5 -0.249939L595.5 -0.249939L595.5 842.0001L595.5 842.0001L0 842.0001z" /></clipPath><clipPath id="5"><path id="" clip-rule="evenodd" transform="matrix(1 0 0 1 0 0)" d="M78.71999 30.71008L522.24 30.71008L522.24 30.71008L522.24 810.9501L522.24 810.9501L78.71999 810.9501z" /></clipPath><clipPath id="6"><path id="" clip-rule="evenodd" transform="matrix(1 0 0 1 0 0)" d="M79.51787 30.75183L522.0178 30.75183L522.0178 30.75183L522.0178 810.7518L522.0178 810.7518L79.51787 810.7518z" /></clipPath><clipPath id="7"><path id="" clip-rule="evenodd" transform="matrix(1 0 0 1 0 0)" d="M0 -0.249939L595.5 -0.249939L595.5 -0.249939L595.5 842.0001L595.5 842.0001L0 842.0001z" /></clipPath><clipPath id="8"><path id="" clip-rule="evenodd" transform="matrix(1 0 0 1 0 0)" d="M0 -0.249939L595.5 -0.249939L595.5 -0.249939L595.5 842.0001L595.5 842.0001L0 842.0001z" /></clipPath><clipPath id="9"><path id="" clip-rule="evenodd" transform="matrix(1 0 0 1 0 0)" d="M185.6557 336.1159L476.4867 336.1159L476.4867 336.1159L476.4867 395.5829L476.4867 395.5829L185.6557 395.5829z" /></clipPath><clipPath id="10"><path id="" clip-rule="evenodd" transform="matrix(1 0 0 1 0 0)" d="M446.5349 336.1159C 462.9513 336.1159 476.2594 349.428 476.2594 365.8494C 476.2594 382.2708 462.9513 395.5829 446.5349 395.5829L446.5349 395.5829L215.3802 395.5829C 198.9638 395.5829 185.6557 382.2708 185.6557 365.8494C 185.6557 349.428 198.9638 336.1159 215.3802 336.1159L215.3802 336.1159L446.5349 336.1159z" /></clipPath><clipPath id="11"><path id="" clip-rule="evenodd" transform="matrix(1 0 0 1 0 0)" d="M0 -0.249939L595.5 -0.249939L595.5 -0.249939L595.5 842.0001L595.5 842.0001L0 842.0001z" /></clipPath><clipPath id="12"><path id="" clip-rule="evenodd" transform="matrix(1 0 0 1 0 0)" d="M0 -0.249939L595.5 -0.249939L595.5 -0.249939L595.5 842.0001L595.5 842.0001L0 842.0001z" /></clipPath><clipPath id="13"><path id="" clip-rule="evenodd" transform="matrix(1 0 0 1 0 0)" d="M184.2986 405.2155L475.1295 405.2155L475.1295 405.2155L475.1295 464.6826L475.1295 464.6826L184.2986 464.6826z" /></clipPath><clipPath id="14"><path id="" clip-rule="evenodd" transform="matrix(1 0 0 1 0 0)" d="M445.1777 405.2155C 461.5941 405.2155 474.9022 418.5277 474.9022 434.9491C 474.9022 451.3704 461.5941 464.6826 445.1777 464.6826L445.1777 464.6826L214.023 464.6826C 197.6067 464.6826 184.2986 451.3704 184.2986 434.9491C 184.2986 418.5277 197.6067 405.2155 214.023 405.2155L214.023 405.2155L445.1777 405.2155z" /></clipPath><clipPath id="15"><path id="" clip-rule="evenodd" transform="matrix(1 0 0 1 0 0)" d="M0 -0.249939L595.5 -0.249939L595.5 -0.249939L595.5 842.0001L595.5 842.0001L0 842.0001z" /></clipPath><clipPath id="16"><path id="" clip-rule="evenodd" transform="matrix(1 0 0 1 0 0)" d="M0 -0.249939L595.5 -0.249939L595.5 -0.249939L595.5 842.0001L595.5 842.0001L0 842.0001z" /></clipPath><clipPath id="17"><path id="" clip-rule="evenodd" transform="matrix(1 0 0 1 0 0)" d="M184.8788 477.0306L475.7097 477.0306L475.7097 477.0306L475.7097 536.4976L475.7097 536.4976L184.8788 536.4976z" /></clipPath><clipPath id="18"><path id="" clip-rule="evenodd" transform="matrix(1 0 0 1 0 0)" d="M445.758 477.0306C 462.1744 477.0306 475.4825 490.3428 475.4825 506.7641C 475.4825 523.1855 462.1744 536.4976 445.758 536.4976L445.758 536.4976L214.6033 536.4976C 198.1869 536.4976 184.8788 523.1855 184.8788 506.7641C 184.8788 490.3428 198.1869 477.0306 214.6033 477.0306L214.6033 477.0306L445.758 477.0306z" /></clipPath><clipPath id="19"><path id="" clip-rule="evenodd" transform="matrix(1 0 0 1 0 0)" d="M0 -0.249939L595.5 -0.249939L595.5 -0.249939L595.5 842.0001L595.5 842.0001L0 842.0001z" /></clipPath><clipPath id="20"><path id="" clip-rule="evenodd" transform="matrix(1 0 0 1 0 0)" d="M0 -0.249939L595.5 -0.249939L595.5 -0.249939L595.5 842.0001L595.5 842.0001L0 842.0001z" /></clipPath><clipPath id="21"><path id="" clip-rule="evenodd" transform="matrix(1 0 0 1 0 0)" d="M0 -0.249939L595.5 -0.249939L595.5 -0.249939L595.5 842.0001L595.5 842.0001L0 842.0001z" /></clipPath><clipPath id="22"><path id="" clip-rule="evenodd" transform="matrix(1 0 0 1 0 0)" d="M183.8662 617.2523L474.6972 617.2523L474.6972 617.2523L474.6972 676.7192L474.6972 676.7192L183.8662 676.7192z" /></clipPath><clipPath id="23"><path id="" clip-rule="evenodd" transform="matrix(1 0 0 1 0 0)" d="M444.7454 617.2523C 461.1617 617.2523 474.4698 630.5644 474.4698 646.9858C 474.4698 663.4071 461.1617 676.7192 444.7454 676.7192L444.7454 676.7192L213.5907 676.7192C 197.1743 676.7192 183.8662 663.4071 183.8662 646.9858C 183.8662 630.5644 197.1743 617.2523 213.5907 617.2523L213.5907 617.2523L444.7454 617.2523z" /></clipPath><clipPath id="24"><path id="" clip-rule="evenodd" transform="matrix(1 0 0 1 0 0)" d="M0 -0.249939L595.5 -0.249939L595.5 -0.249939L595.5 842.0001L595.5 842.0001L0 842.0001z" /></clipPath><clipPath id="25"><path id="" clip-rule="evenodd" transform="matrix(1 0 0 1 0 0)" d="M0 -0.249939L595.5 -0.249939L595.5 -0.249939L595.5 842.0001L595.5 842.0001L0 842.0001z" /></clipPath><clipPath id="26"><path id="" clip-rule="evenodd" transform="matrix(1 0 0 1 0 0)" d="M184.2986 686.6441L475.1295 686.6441L475.1295 686.6441L475.1295 746.1111L475.1295 746.1111L184.2986 746.1111z" /></clipPath><clipPath id="27"><path id="" clip-rule="evenodd" transform="matrix(1 0 0 1 0 0)" d="M445.1777 686.6441C 461.5941 686.6441 474.9022 699.9562 474.9022 716.3776C 474.9022 732.799 461.5941 746.1111 445.1777 746.1111L445.1777 746.1111L214.023 746.1111C 197.6067 746.1111 184.2986 732.799 184.2986 716.3776C 184.2986 699.9562 197.6067 686.6441 214.023 686.6441L214.023 686.6441L445.1777 686.6441z" /></clipPath><clipPath id="28"><path id="" clip-rule="evenodd" transform="matrix(1 0 0 1 0 0)" d="M0 -0.249939L595.5 -0.249939L595.5 -0.249939L595.5 842.0001L595.5 842.0001L0 842.0001z" /></clipPath><clipPath id="29"><path id="" clip-rule="evenodd" transform="matrix(1 0 0 1 0 0)" d="M0 -0.249939L595.5 -0.249939L595.5 -0.249939L595.5 842.0001L595.5 842.0001L0 842.0001z" /></clipPath><clipPath id="30"><path id="" clip-rule="evenodd" transform="matrix(1 0 0 1 0 0)" d="M0 -0.249939L595.5 -0.249939L595.5 -0.249939L595.5 842.0001L595.5 842.0001L0 842.0001z" /></clipPath><clipPath id="31"><path id="" clip-rule="evenodd" transform="matrix(1 0 0 1 0 0)" d="M447.1492 395.7099L465.336 378.9229L465.336 378.9229L490.2622 405.9274L490.2622 405.9274L472.0754 422.7144L472.0754 422.7144L447.1492 395.7099z" /></clipPath><clipPath id="32"><path id="" clip-rule="evenodd" transform="matrix(1 0 0 1 0 0)" d="M447.1492 395.7099L465.336 378.9229L465.336 378.9229L490.2622 405.9274L490.2622 405.9274L472.0754 422.7144L472.0754 422.7144L447.1492 395.7099z" /></clipPath><clipPath id="33"><path id="" clip-rule="evenodd" transform="matrix(1 0 0 1 0 0)" d="M447.1492 395.7099L465.336 378.9229L465.336 378.9229L490.2622 405.9274L490.2622 405.9274L472.0754 422.7144L472.0754 422.7144L447.1492 395.7099z" /></clipPath><clipPath id="34"><path id="" clip-rule="evenodd" transform="matrix(1 0 0 1 0 0)" d="M0 -0.249939L595.5 -0.249939L595.5 -0.249939L595.5 842.0001L595.5 842.0001L0 842.0001z" /></clipPath><clipPath id="35"><path id="" clip-rule="evenodd" transform="matrix(1 0 0 1 0 0)" d="M0 -0.249939L595.5 -0.249939L595.5 -0.249939L595.5 842.0001L595.5 842.0001L0 842.0001z" /></clipPath><clipPath id="36"><path id="" clip-rule="evenodd" transform="matrix(1 0 0 1 0 0)" d="M449.8086 463.9811L467.9953 447.194L467.9953 447.194L492.9215 474.1985L492.9215 474.1985L474.7348 490.9856L474.7348 490.9856L449.8086 463.9811z" /></clipPath><clipPath id="37"><path id="" clip-rule="evenodd" transform="matrix(1 0 0 1 0 0)" d="M449.8086 463.9811L467.9953 447.194L467.9953 447.194L492.9215 474.1985L492.9215 474.1985L474.7348 490.9856L474.7348 490.9856L449.8086 463.9811z" /></clipPath><clipPath id="38"><path id="" clip-rule="evenodd" transform="matrix(1 0 0 1 0 0)" d="M449.8086 463.9811L467.9953 447.194L467.9953 447.194L492.9215 474.1985L492.9215 474.1985L474.7348 490.9856L474.7348 490.9856L449.8086 463.9811z" /></clipPath><clipPath id="39"><path id="" clip-rule="evenodd" transform="matrix(1 0 0 1 0 0)" d="M0 -0.249939L595.5 -0.249939L595.5 -0.249939L595.5 842.0001L595.5 842.0001L0 842.0001z" /></clipPath><clipPath id="40"><path id="" clip-rule="evenodd" transform="matrix(1 0 0 1 0 0)" d="M0 -0.249939L595.5 -0.249939L595.5 -0.249939L595.5 842.0001L595.5 842.0001L0 842.0001z" /></clipPath><clipPath id="41"><path id="" clip-rule="evenodd" transform="matrix(1 0 0 1 0 0)" d="M449.0316 533.7072L467.2184 516.9202L467.2184 516.9202L492.1446 543.9247L492.1446 543.9247L473.9579 560.7118L473.9579 560.7118L449.0316 533.7072z" /></clipPath><clipPath id="42"><path id="" clip-rule="evenodd" transform="matrix(1 0 0 1 0 0)" d="M449.0316 533.7072L467.2184 516.9202L467.2184 516.9202L492.1446 543.9247L492.1446 543.9247L473.9579 560.7118L473.9579 560.7118L449.0316 533.7072z" /></clipPath><clipPath id="43"><path id="" clip-rule="evenodd" transform="matrix(1 0 0 1 0 0)" d="M449.0316 533.7072L467.2184 516.9202L467.2184 516.9202L492.1446 543.9247L492.1446 543.9247L473.9579 560.7118L473.9579 560.7118L449.0316 533.7072z" /></clipPath><clipPath id="44"><path id="" clip-rule="evenodd" transform="matrix(1 0 0 1 0 0)" d="M0 -0.249939L595.5 -0.249939L595.5 -0.249939L595.5 842.0001L595.5 842.0001L0 842.0001z" /></clipPath><clipPath id="45"><path id="" clip-rule="evenodd" transform="matrix(1 0 0 1 0 0)" d="M0 -0.249939L595.5 -0.249939L595.5 -0.249939L595.5 842.0001L595.5 842.0001L0 842.0001z" /></clipPath><clipPath id="46"><path id="" clip-rule="evenodd" transform="matrix(1 0 0 1 0 0)" d="M452.3687 674.5317L470.5555 657.7446L470.5555 657.7446L495.4817 684.7492L495.4817 684.7492L477.295 701.5363L477.295 701.5363L452.3687 674.5317z" /></clipPath><clipPath id="47"><path id="" clip-rule="evenodd" transform="matrix(1 0 0 1 0 0)" d="M452.3687 674.5317L470.5555 657.7446L470.5555 657.7446L495.4817 684.7492L495.4817 684.7492L477.295 701.5363L477.295 701.5363L452.3687 674.5317z" /></clipPath><clipPath id="48"><path id="" clip-rule="evenodd" transform="matrix(1 0 0 1 0 0)" d="M452.3687 674.5317L470.5555 657.7446L470.5555 657.7446L495.4817 684.7492L495.4817 684.7492L477.295 701.5363L477.295 701.5363L452.3687 674.5317z" /></clipPath><clipPath id="49"><path id="" clip-rule="evenodd" transform="matrix(1 0 0 1 0 0)" d="M0 -0.249939L595.5 -0.249939L595.5 -0.249939L595.5 842.0001L595.5 842.0001L0 842.0001z" /></clipPath><clipPath id="50"><path id="" clip-rule="evenodd" transform="matrix(1 0 0 1 0 0)" d="M0 -0.249939L595.5 -0.249939L595.5 -0.249939L595.5 842.0001L595.5 842.0001L0 842.0001z" /></clipPath><clipPath id="51"><path id="" clip-rule="evenodd" transform="matrix(1 0 0 1 0 0)" d="M187.6722 266.0798L478.5031 266.0798L478.5031 266.0798L478.5031 325.5469L478.5031 325.5469L187.6722 325.5469z" /></clipPath><clipPath id="52"><path id="" clip-rule="evenodd" transform="matrix(1 0 0 1 0 0)" d="M448.5514 266.0798C 464.9678 266.0798 478.2759 279.392 478.2759 295.8134C 478.2759 312.2347 464.9678 325.5469 448.5514 325.5469L448.5514 325.5469L217.3967 325.5469C 200.9803 325.5469 187.6722 312.2347 187.6722 295.8134C 187.6722 279.392 200.9803 266.0798 217.3967 266.0798L217.3967 266.0798L448.5514 266.0798z" /></clipPath><clipPath id="53"><path id="" clip-rule="evenodd" transform="matrix(1 0 0 1 0 0)" d="M0 -0.249939L595.5 -0.249939L595.5 -0.249939L595.5 842.0001L595.5 842.0001L0 842.0001z" /></clipPath><clipPath id="54"><path id="" clip-rule="evenodd" transform="matrix(1 0 0 1 0 0)" d="M0 -0.249939L595.5 -0.249939L595.5 -0.249939L595.5 842.0001L595.5 842.0001L0 842.0001z" /></clipPath><clipPath id="55"><path id="" clip-rule="evenodd" transform="matrix(1 0 0 1 0 0)" d="M0 -0.249939L595.5 -0.249939L595.5 -0.249939L595.5 842.0001L595.5 842.0001L0 842.0001z" /></clipPath><clipPath id="56"><path id="" clip-rule="evenodd" transform="matrix(1 0 0 1 0 0)" d="M449.3698 323.0441L467.5565 306.2571L467.5565 306.2571L492.4828 333.2616L492.4828 333.2616L474.296 350.0486L474.296 350.0486L449.3698 323.0441z" /></clipPath><clipPath id="57"><path id="" clip-rule="evenodd" transform="matrix(1 0 0 1 0 0)" d="M449.3698 323.0441L467.5565 306.2571L467.5565 306.2571L492.4828 333.2616L492.4828 333.2616L474.296 350.0486L474.296 350.0486L449.3698 323.0441z" /></clipPath><clipPath id="58"><path id="" clip-rule="evenodd" transform="matrix(1 0 0 1 0 0)" d="M449.3698 323.0441L467.5565 306.2571L467.5565 306.2571L492.4828 333.2616L492.4828 333.2616L474.296 350.0486L474.296 350.0486L449.3698 323.0441z" /></clipPath><clipPath id="59"><path id="" clip-rule="evenodd" transform="matrix(1 0 0 1 0 0)" d="M0 -0.249939L595.5 -0.249939L595.5 -0.249939L595.5 842.0001L595.5 842.0001L0 842.0001z" /></clipPath><clipPath id="60"><path id="" clip-rule="evenodd" transform="matrix(1 0 0 1 0 0)" d="M0 -0.249939L595.5 -0.249939L595.5 -0.249939L595.5 842.0001L595.5 842.0001L0 842.0001z" /></clipPath><clipPath id="61"><path id="" clip-rule="evenodd" transform="matrix(1 0 0 1 0 0)" d="M0 -0.249939L595.5 -0.249939L595.5 -0.249939L595.5 842.0001L595.5 842.0001L0 842.0001z" /></clipPath><clipPath id="62"><path id="" clip-rule="evenodd" transform="matrix(1 0 0 1 0 0)" d="M447.7233 740.8411L465.91 724.054L465.91 724.054L490.8362 751.0585L490.8362 751.0585L472.6495 767.8456L472.6495 767.8456L447.7233 740.8411z" /></clipPath><clipPath id="63"><path id="" clip-rule="evenodd" transform="matrix(1 0 0 1 0 0)" d="M447.7233 740.8411L465.91 724.054L465.91 724.054L490.8362 751.0585L490.8362 751.0585L472.6495 767.8456L472.6495 767.8456L447.7233 740.8411z" /></clipPath><clipPath id="64"><path id="" clip-rule="evenodd" transform="matrix(1 0 0 1 0 0)" d="M447.7233 740.8411L465.91 724.054L465.91 724.054L490.8362 751.0585L490.8362 751.0585L472.6495 767.8456L472.6495 767.8456L447.7233 740.8411z" /></clipPath><clipPath id="65"><path id="" clip-rule="evenodd" transform="matrix(1 0 0 1 0 0)" d="M0 -0.249939L595.5 -0.249939L595.5 -0.249939L595.5 842.0001L595.5 842.0001L0 842.0001z" /></clipPath><clipPath id="66"><path id="" clip-rule="evenodd" transform="matrix(1 0 0 1 0 0)" d="M0 -0.249939L595.5 -0.249939L595.5 -0.249939L595.5 842.0001L595.5 842.0001L0 842.0001z" /></clipPath><clipPath id="67"><path id="" clip-rule="evenodd" transform="matrix(1 0 0 1 0 0)" d="M0 -0.249939L595.5 -0.249939L595.5 -0.249939L595.5 842.0001L595.5 842.0001L0 842.0001z" /></clipPath><clipPath id="68"><path id="" clip-rule="evenodd" transform="matrix(1 0 0 1 0 0)" d="M184.2717 546.1996L475.1027 546.1996L475.1027 546.1996L475.1027 605.6667L475.1027 605.6667L184.2717 605.6667z" /></clipPath><clipPath id="69"><path id="" clip-rule="evenodd" transform="matrix(1 0 0 1 0 0)" d="M445.1509 546.1996C 461.5673 546.1996 474.8753 559.5118 474.8753 575.9332C 474.8753 592.3545 461.5673 605.6667 445.1509 605.6667L445.1509 605.6667L213.9962 605.6667C 197.5798 605.6667 184.2717 592.3545 184.2717 575.9332C 184.2717 559.5118 197.5798 546.1996 213.9962 546.1996L213.9962 546.1996L445.1509 546.1996z" /></clipPath><clipPath id="70"><path id="" clip-rule="evenodd" transform="matrix(1 0 0 1 0 0)" d="M0 -0.249939L595.5 -0.249939L595.5 -0.249939L595.5 842.0001L595.5 842.0001L0 842.0001z" /></clipPath><clipPath id="71"><path id="" clip-rule="evenodd" transform="matrix(1 0 0 1 0 0)" d="M0 -0.249939L595.5 -0.249939L595.5 -0.249939L595.5 842.0001L595.5 842.0001L0 842.0001z" /></clipPath><clipPath id="72"><path id="" clip-rule="evenodd" transform="matrix(1 0 0 1 0 0)" d="M452.7742 603.4791L470.961 586.692L470.961 586.692L495.8872 613.6966L495.8872 613.6966L477.7004 630.4836L477.7004 630.4836L452.7742 603.4791z" /></clipPath><clipPath id="73"><path id="" clip-rule="evenodd" transform="matrix(1 0 0 1 0 0)" d="M452.7742 603.4791L470.961 586.692L470.961 586.692L495.8872 613.6966L495.8872 613.6966L477.7004 630.4836L477.7004 630.4836L452.7742 603.4791z" /></clipPath><clipPath id="74"><path id="" clip-rule="evenodd" transform="matrix(1 0 0 1 0 0)" d="M452.7742 603.4791L470.961 586.692L470.961 586.692L495.8872 613.6966L495.8872 613.6966L477.7004 630.4836L477.7004 630.4836L452.7742 603.4791z" /></clipPath><clipPath id="75"><path id="" clip-rule="evenodd" transform="matrix(1 0 0 1 0 0)" d="M0 -0.249939L595.5 -0.249939L595.5 -0.249939L595.5 842.0001L595.5 842.0001L0 842.0001z" /></clipPath><clipPath id="76"><path id="" clip-rule="evenodd" transform="matrix(1 0 0 1 0 0)" d="M482.3717 13.39941L582.1218 13.39941L582.1218 13.39941L582.1218 69.64941L582.1218 69.64941L482.3717 69.64941z" /></clipPath><clipPath id="77"><path id="" clip-rule="evenodd" transform="matrix(1 0 0 1 0 0)" d="M13.43191 13.39941L92.93192 13.39941L92.93192 13.39941L92.93192 83.14941L92.93192 83.14941L13.43191 83.14941z" /></clipPath><clipPath id="78"><path id="" clip-rule="evenodd" transform="matrix(1 0 0 1 0 0)" d="M0 -0.249939L595.5 -0.249939L595.5 -0.249939L595.5 842.0001L595.5 842.0001L0 842.0001z" /></clipPath><clipPath id="79"><path id="" clip-rule="evenodd" transform="matrix(1 0 0 1 0 0)" d="M0 -0.249939L595.5 -0.249939L595.5 -0.249939L595.5 842.0001L595.5 842.0001L0 842.0001z" /></clipPath><clipPath id="80"><path id="" clip-rule="evenodd" transform="matrix(1 0 0 1 0 0)" d="M151.3134 497.7113L169.419 497.7113L169.419 497.7113L169.419 515.817L169.419 515.817L151.3134 515.817z" /></clipPath><clipPath id="81"><path id="" clip-rule="evenodd" transform="matrix(1 0 0 1 0 0)" d="M160.3662 497.7113C 155.3665 497.7113 151.3134 501.7644 151.3134 506.7641C 151.3134 511.7639 155.3665 515.817 160.3662 515.817C 165.3659 515.817 169.419 511.7639 169.419 506.7641C 169.419 501.7644 165.3659 497.7113 160.3662 497.7113z" /></clipPath><clipPath id="82"><path id="" clip-rule="evenodd" transform="matrix(1 0 0 1 0 0)" d="M0 -0.249939L595.5 -0.249939L595.5 -0.249939L595.5 842.0001L595.5 842.0001L0 842.0001z" /></clipPath><clipPath id="83"><path id="" clip-rule="evenodd" transform="matrix(1 0 0 1 0 0)" d="M0 -0.249939L595.5 -0.249939L595.5 -0.249939L595.5 842.0001L595.5 842.0001L0 842.0001z" /></clipPath><clipPath id="84"><path id="" clip-rule="evenodd" transform="matrix(1 0 0 1 0 0)" d="M151.3134 567.9246L169.419 567.9246L169.419 567.9246L169.419 586.0303L169.419 586.0303L151.3134 586.0303z" /></clipPath><clipPath id="85"><path id="" clip-rule="evenodd" transform="matrix(1 0 0 1 0 0)" d="M160.3662 567.9246C 155.3665 567.9246 151.3134 571.9777 151.3134 576.9774C 151.3134 581.9772 155.3665 586.0303 160.3662 586.0303C 165.3659 586.0303 169.419 581.9772 169.419 576.9774C 169.419 571.9777 165.3659 567.9246 160.3662 567.9246z" /></clipPath><clipPath id="86"><path id="" clip-rule="evenodd" transform="matrix(1 0 0 1 0 0)" d="M0 -0.249939L595.5 -0.249939L595.5 -0.249939L595.5 842.0001L595.5 842.0001L0 842.0001z" /></clipPath><clipPath id="87"><path id="" clip-rule="evenodd" transform="matrix(1 0 0 1 0 0)" d="M0 -0.249939L595.5 -0.249939L595.5 -0.249939L595.5 842.0001L595.5 842.0001L0 842.0001z" /></clipPath><clipPath id="88"><path id="" clip-rule="evenodd" transform="matrix(1 0 0 1 0 0)" d="M112.9578 282.3197L131.0634 282.3197L131.0634 282.3197L131.0634 300.4254L131.0634 300.4254L112.9578 300.4254z" /></clipPath><clipPath id="89"><path id="" clip-rule="evenodd" transform="matrix(1 0 0 1 0 0)" d="M122.0106 282.3197C 117.0109 282.3197 112.9578 286.3728 112.9578 291.3726C 112.9578 296.3723 117.0109 300.4254 122.0106 300.4254C 127.0103 300.4254 131.0634 296.3723 131.0634 291.3726C 131.0634 286.3728 127.0103 282.3197 122.0106 282.3197z" /></clipPath><clipPath id="90"><path id="" clip-rule="evenodd" transform="matrix(1 0 0 1 0 0)" d="M0 -0.249939L595.5 -0.249939L595.5 -0.249939L595.5 842.0001L595.5 842.0001L0 842.0001z" /></clipPath><clipPath id="91"><path id="" clip-rule="evenodd" transform="matrix(1 0 0 1 0 0)" d="M0 -0.249939L595.5 -0.249939L595.5 -0.249939L595.5 842.0001L595.5 842.0001L0 842.0001z" /></clipPath><clipPath id="92"><path id="" clip-rule="evenodd" transform="matrix(1 0 0 1 0 0)" d="M151.3134 354.8534L169.419 354.8534L169.419 354.8534L169.419 372.959L169.419 372.959L151.3134 372.959z" /></clipPath><clipPath id="93"><path id="" clip-rule="evenodd" transform="matrix(1 0 0 1 0 0)" d="M160.3662 354.8534C 155.3665 354.8534 151.3134 358.9065 151.3134 363.9062C 151.3134 368.9059 155.3665 372.959 160.3662 372.959C 165.3659 372.959 169.419 368.9059 169.419 363.9062C 169.419 358.9065 165.3659 354.8534 160.3662 354.8534z" /></clipPath><clipPath id="94"><path id="" clip-rule="evenodd" transform="matrix(1 0 0 1 0 0)" d="M0 -0.249939L595.5 -0.249939L595.5 -0.249939L595.5 842.0001L595.5 842.0001L0 842.0001z" /></clipPath><clipPath id="95"><path id="" clip-rule="evenodd" transform="matrix(1 0 0 1 0 0)" d="M0 -0.249939L595.5 -0.249939L595.5 -0.249939L595.5 842.0001L595.5 842.0001L0 842.0001z" /></clipPath><clipPath id="96"><path id="" clip-rule="evenodd" transform="matrix(1 0 0 1 0 0)" d="M151.3134 282.3197L169.419 282.3197L169.419 282.3197L169.419 300.4254L169.419 300.4254L151.3134 300.4254z" /></clipPath><clipPath id="97"><path id="" clip-rule="evenodd" transform="matrix(1 0 0 1 0 0)" d="M160.3662 282.3197C 155.3665 282.3197 151.3134 286.3728 151.3134 291.3726C 151.3134 296.3723 155.3665 300.4254 160.3662 300.4254C 165.3659 300.4254 169.419 296.3723 169.419 291.3726C 169.419 286.3728 165.3659 282.3197 160.3662 282.3197z" /></clipPath><clipPath id="98"><path id="" clip-rule="evenodd" transform="matrix(1 0 0 1 0 0)" d="M0 -0.249939L595.5 -0.249939L595.5 -0.249939L595.5 842.0001L595.5 842.0001L0 842.0001z" /></clipPath><clipPath id="99"><path id="" clip-rule="evenodd" transform="matrix(1 0 0 1 0 0)" d="M0 -0.249939L595.5 -0.249939L595.5 -0.249939L595.5 842.0001L595.5 842.0001L0 842.0001z" /></clipPath><clipPath id="100"><path id="" clip-rule="evenodd" transform="matrix(1 0 0 1 0 0)" d="M151.3134 421.7622L169.419 421.7622L169.419 421.7622L169.419 439.8679L169.419 439.8679L151.3134 439.8679z" /></clipPath><clipPath id="101"><path id="" clip-rule="evenodd" transform="matrix(1 0 0 1 0 0)" d="M160.3662 421.7622C 155.3665 421.7622 151.3134 425.8153 151.3134 430.8151C 151.3134 435.8148 155.3665 439.8679 160.3662 439.8679C 165.3659 439.8679 169.419 435.8148 169.419 430.8151C 169.419 425.8153 165.3659 421.7622 160.3662 421.7622z" /></clipPath><clipPath id="102"><path id="" clip-rule="evenodd" transform="matrix(1 0 0 1 0 0)" d="M0 -0.249939L595.5 -0.249939L595.5 -0.249939L595.5 842.0001L595.5 842.0001L0 842.0001z" /></clipPath><clipPath id="103"><path id="" clip-rule="evenodd" transform="matrix(1 0 0 1 0 0)" d="M0 -0.249939L595.5 -0.249939L595.5 -0.249939L595.5 842.0001L595.5 842.0001L0 842.0001z" /></clipPath><clipPath id="104"><path id="" clip-rule="evenodd" transform="matrix(1 0 0 1 0 0)" d="M151.5106 637.933L169.6162 637.933L169.6162 637.933L169.6162 656.0386L169.6162 656.0386L151.5106 656.0386z" /></clipPath><clipPath id="105"><path id="" clip-rule="evenodd" transform="matrix(1 0 0 1 0 0)" d="M160.5634 637.933C 155.5637 637.933 151.5106 641.9861 151.5106 646.9858C 151.5106 651.9855 155.5637 656.0386 160.5634 656.0386C 165.5631 656.0386 169.6162 651.9855 169.6162 646.9858C 169.6162 641.9861 165.5631 637.933 160.5634 637.933z" /></clipPath><clipPath id="106"><path id="" clip-rule="evenodd" transform="matrix(1 0 0 1 0 0)" d="M0 -0.249939L595.5 -0.249939L595.5 -0.249939L595.5 842.0001L595.5 842.0001L0 842.0001z" /></clipPath><clipPath id="107"><path id="" clip-rule="evenodd" transform="matrix(1 0 0 1 0 0)" d="M0 -0.249939L595.5 -0.249939L595.5 -0.249939L595.5 842.0001L595.5 842.0001L0 842.0001z" /></clipPath><clipPath id="108"><path id="" clip-rule="evenodd" transform="matrix(1 0 0 1 0 0)" d="M112.9578 707.3248L131.0634 707.3248L131.0634 707.3248L131.0634 725.4305L131.0634 725.4305L112.9578 725.4305z" /></clipPath><clipPath id="109"><path id="" clip-rule="evenodd" transform="matrix(1 0 0 1 0 0)" d="M122.0106 707.3248C 117.0109 707.3248 112.9578 711.3779 112.9578 716.3776C 112.9578 721.3774 117.0109 725.4305 122.0106 725.4305C 127.0103 725.4305 131.0634 721.3774 131.0634 716.3776C 131.0634 711.3779 127.0103 707.3248 122.0106 707.3248z" /></clipPath><clipPath id="110"><path id="" clip-rule="evenodd" transform="matrix(1 0 0 1 0 0)" d="M0 -0.249939L595.5 -0.249939L595.5 -0.249939L595.5 842.0001L595.5 842.0001L0 842.0001z" /></clipPath><clipPath id="111"><path id="" clip-rule="evenodd" transform="matrix(1 0 0 1 0 0)" d="M0 -0.249939L595.5 -0.249939L595.5 -0.249939L595.5 842.0001L595.5 842.0001L0 842.0001z" /></clipPath><clipPath id="112"><path id="" clip-rule="evenodd" transform="matrix(1 0 0 1 0 0)" d="M151.3134 707.3248L169.419 707.3248L169.419 707.3248L169.419 725.4305L169.419 725.4305L151.3134 725.4305z" /></clipPath><clipPath id="113"><path id="" clip-rule="evenodd" transform="matrix(1 0 0 1 0 0)" d="M160.3662 707.3248C 155.3665 707.3248 151.3134 711.3779 151.3134 716.3776C 151.3134 721.3774 155.3665 725.4305 160.3662 725.4305C 165.3659 725.4305 169.419 721.3774 169.419 716.3776C 169.419 711.3779 165.3659 707.3248 160.3662 707.3248z" /></clipPath><clipPath id="114"><path id="" clip-rule="evenodd" transform="matrix(1 0 0 1 0 0)" d="M0 -0.249939L595.5 -0.249939L595.5 -0.249939L595.5 842.0001L595.5 842.0001L0 842.0001z" /></clipPath><clipPath id="115"><path id="" clip-rule="evenodd" transform="matrix(1 0 0 1 0 0)" d="M0 -0.249939L595.5 -0.249939L595.5 -0.249939L595.5 842.0001L595.5 842.0001L0 842.0001z" /></clipPath><clipPath id="116"><path id="" clip-rule="evenodd" transform="matrix(1 0 0 1 0 0)" d="M324.2071 187.0128L482.4266 187.0128L482.4266 187.0128L482.4266 237.5798L482.4266 237.5798L324.2071 237.5798z" /></clipPath><clipPath id="117"><path id="" clip-rule="evenodd" transform="matrix(1 0 0 1 0 0)" d="M457.0959 187.0128C 471.0553 187.0128 482.3717 198.3326 482.3717 212.2963C 482.3717 226.26 471.0553 237.5798 457.0959 237.5798L457.0959 237.5798L349.4829 237.5798C 335.5234 237.5798 324.2071 226.26 324.2071 212.2963C 324.2071 198.3326 335.5234 187.0128 349.4829 187.0128L349.4829 187.0128L457.0959 187.0128z" /></clipPath><clipPath id="118"><path id="" clip-rule="evenodd" transform="matrix(1 0 0 1 0 0)" d="M324.2071 187.0128L482.4571 187.0128L482.4571 187.0128L482.4571 237.2628L482.4571 237.2628L324.2071 237.2628z" /></clipPath><clipPath id="119"><path id="" clip-rule="evenodd" transform="matrix(1 0 0 1 0 0)" d="M0 -0.249939L595.5 -0.249939L595.5 -0.249939L595.5 842.0001L595.5 842.0001L0 842.0001z" /></clipPath><clipPath id="120"><path id="" clip-rule="evenodd" transform="matrix(1 0 0 1 0 0)" d="M0 -0.249939L595.5 -0.249939L595.5 -0.249939L595.5 842.0001L595.5 842.0001L0 842.0001z" /></clipPath><clipPath id="121"><path id="" clip-rule="evenodd" transform="matrix(1 0 0 1 0 0)" d="M92.86778 185.0237L249.1996 185.0237L249.1996 185.0237L249.1996 233.8298L249.1996 233.8298L92.86778 233.8298z" /></clipPath><clipPath id="122"><path id="" clip-rule="evenodd" transform="matrix(1 0 0 1 0 0)" d="M223.7445 185.0237C 237.704 185.0237 249.0203 195.9493 249.0203 209.4268C 249.0203 222.9042 237.704 233.8298 223.7445 233.8298L223.7445 233.8298L118.1436 233.8298C 104.1842 233.8298 92.86778 222.9042 92.86778 209.4268C 92.86778 195.9493 104.1842 185.0237 118.1436 185.0237L118.1436 185.0237L223.7445 185.0237z" /></clipPath><clipPath id="123"><path id="" clip-rule="evenodd" transform="matrix(1 0 0 1 0 0)" d="M92.86778 185.0237L248.8678 185.0237L248.8678 185.0237L248.8678 233.7737L248.8678 233.7737L92.86778 233.7737z" /></clipPath><clipPath id="124"><path id="" clip-rule="evenodd" transform="matrix(1 0 0 1 0 0)" d="M0 -0.249939L595.5 -0.249939L595.5 -0.249939L595.5 842.0001L595.5 842.0001L0 842.0001z" /></clipPath><clipPath id="125"><path id="" clip-rule="evenodd" transform="matrix(1 0 0 1 0 0)" d="M0 -0.249939L595.5 -0.249939L595.5 -0.249939L595.5 842.0001L595.5 842.0001L0 842.0001z" /></clipPath><clipPath id="126"><path id="" clip-rule="evenodd" transform="matrix(1 0 0 1 0 0)" d="M262.1318 194.5433L297.6378 194.5433L297.6378 194.5433L297.6378 230.0493L297.6378 230.0493L262.1318 230.0493z" /></clipPath><clipPath id="127"><path id="" clip-rule="evenodd" transform="matrix(1 0 0 1 0 0)" d="M279.8848 194.5433C 270.0801 194.5433 262.1318 202.4916 262.1318 212.2963C 262.1318 222.101 270.0801 230.0493 279.8848 230.0493C 289.6895 230.0493 297.6378 222.101 297.6378 212.2963C 297.6378 202.4916 289.6895 194.5433 279.8848 194.5433z" /></clipPath><clipPath id="128"><path id="" clip-rule="evenodd" transform="matrix(1 0 0 1 0 0)" d="M0 -0.249939L595.5 -0.249939L595.5 -0.249939L595.5 842.0001L595.5 842.0001L0 842.0001z" /></clipPath><clipPath id="129"><path id="" clip-rule="evenodd" transform="matrix(1 0 0 1 0 0)" d="M0 -0.249939L595.5 -0.249939L595.5 -0.249939L595.5 842.0001L595.5 842.0001L0 842.0001z" /></clipPath><clipPath id="130"><path id="" clip-rule="evenodd" transform="matrix(1 0 0 1 0 0)" d="M500.2421 194.5433L535.748 194.5433L535.748 194.5433L535.748 230.0493L535.748 230.0493L500.2421 230.0493z" /></clipPath><clipPath id="131"><path id="" clip-rule="evenodd" transform="matrix(1 0 0 1 0 0)" d="M517.9951 194.5433C 508.1904 194.5433 500.2421 202.4916 500.2421 212.2963C 500.2421 222.101 508.1904 230.0493 517.9951 230.0493C 527.7997 230.0493 535.748 222.101 535.748 212.2963C 535.748 202.4916 527.7997 194.5433 517.9951 194.5433z" /></clipPath></defs><g transform="matrix(1.333333 0 0 1.333333 0 0)"><g clip-path="url(#1)"><g clip-path="url(#2)"><path id="1" transform="matrix(1 0 0 -1 0 842)" d="M0 842.2499L595.4999 842.2499L595.4999 -6.103516E-05L0 -6.103516E-05z" stroke="none" fill="#FFFFFF" fill-rule="nonzero" /></g><g clip-path="url(#3)"><path id="2" transform="matrix(1 0 0 -1 0 842)" d="M0 842.2499L595.4999 842.2499L595.4999 -6.103516E-05L0 -6.103516E-05z" stroke="none" fill="#E9FCFF" fill-rule="nonzero" /></g><g clip-path="url(#4)"><g><g clip-path="url(#5)"><g clip-path="url(#6)"><g transform="matrix(0 0.5128205 -0.5127462 0 522.0178 30.75189)"><g transform="matrix(1 0 0 1 0 0)"><image x="0" y="0" xlink:href="img_01.png" width="1521" height="863" /></g></g></g></g></g></g><g clip-path="url(#7)"><g clip-path="url(#8)"><g clip-path="url(#9)"><g clip-path="url(#10)"><path id="64" transform="matrix(1 0 0 -1 0 842)" d="M185.6557 505.8841L476.2544 505.8841L476.2544 446.4171L185.6557 446.4171z" stroke="none" fill="#38B6FF" fill-rule="nonzero" /></g></g></g></g><g clip-path="url(#11)"><g clip-path="url(#12)"><g clip-path="url(#13)"><g clip-path="url(#14)"><path id="65" transform="matrix(1 0 0 -1 0 842)" d="M184.2985 436.7844L474.8972 436.7844L474.8972 377.3174L184.2985 377.3174z" stroke="none" fill="#38B6FF" fill-rule="nonzero" /></g></g></g></g><g clip-path="url(#15)"><g clip-path="url(#16)"><g clip-path="url(#17)"><g clip-path="url(#18)"><path id="66" transform="matrix(1 0 0 -1 0 842)" d="M184.8788 364.9694L475.4775 364.9694L475.4775 305.5023L184.8788 305.5023z" stroke="none" fill="#38B6FF" fill-rule="nonzero" /></g></g></g></g><g clip-path="url(#19)"></g><g clip-path="url(#20)"><g clip-path="url(#21)"><g clip-path="url(#22)"><g clip-path="url(#23)"><path id="80" transform="matrix(1 0 0 -1 0 842)" d="M183.8662 224.7478L474.4649 224.7478L474.4649 165.2807L183.8662 165.2807z" stroke="none" fill="#38B6FF" fill-rule="nonzero" /></g></g></g></g><g clip-path="url(#24)"><g clip-path="url(#25)"><g clip-path="url(#26)"><g clip-path="url(#27)"><path id="81" transform="matrix(1 0 0 -1 0 842)" d="M184.2985 155.3559L474.8972 155.3559L474.8972 95.88885L184.2985 95.88885z" stroke="none" fill="#FF914D" fill-rule="nonzero" /></g></g></g></g><g clip-path="url(#28)"></g><g clip-path="url(#29)"><g clip-path="url(#30)"><g clip-path="url(#31)"><g clip-path="url(#32)"><g clip-path="url(#33)"><path id="97" transform="matrix(1 0 0 -1 0 842)" d="M463.4391 450.0112C 463.1418 450.2202 463.0687 450.63 463.2762 450.9266L463.2762 450.9266L465.0827 453.5115C 465.2903 453.8081 465.6996 453.8794 465.997 453.6704C 466.2944 453.4614 466.3675 453.0516 466.1599 452.7551L466.1599 452.7551L464.3534 450.1701C 464.1469 449.8724 463.7365 449.8022 463.4391 450.0112zM459.6644 450.8411C 459.3076 450.7751 458.9642 451.0095 458.8966 451.3668L458.8966 451.3668L458.3074 454.4746C 458.2398 454.8319 458.4726 455.1743 458.8295 455.2404C 459.1863 455.3065 459.5297 455.0721 459.5973 454.7148L459.5973 454.7148L460.1875 451.6079C 460.2552 451.2506 460.0212 450.9072 459.6644 450.8411zM457.6738 441.435C 457.9712 441.226 458.0443 440.8162 457.8367 440.5197L457.8367 440.5197L456.0302 437.9347C 455.8226 437.6382 455.4133 437.5669 455.1159 437.7758C 454.8186 437.9848 454.7455 438.3947 454.9531 438.6912L454.9531 438.6912L456.7595 441.2762C 456.9671 441.5727 457.3765 441.644 457.6738 441.435zM455.4142 444.795C 455.4819 444.4377 455.2491 444.0952 454.8922 444.0292L454.8922 444.0292L451.7869 443.4526C 451.4301 443.3866 451.0867 443.621 451.0191 443.9783C 450.9515 444.3355 451.1843 444.678 451.5411 444.744L451.5411 444.744L454.6443 445.3207C 455.0023 445.3878 455.3455 445.1512 455.4142 444.795zM456.3115 448.6823C 456.1039 448.3858 455.6945 448.3145 455.3972 448.5234L455.3972 448.5234L452.8062 450.3431C 452.5088 450.5521 452.4357 450.9619 452.6433 451.2584C 452.8509 451.555 453.2602 451.6263 453.5576 451.4173L453.5576 451.4173L456.1497 449.5987C 456.446 449.3886 456.5191 448.9789 456.3115 448.6823zM486.3591 438.833C 487.142 437.4058 487.1484 435.5438 486.3983 434.1065C 485.9668 433.2804 485.311 432.5907 484.6227 431.9739C 483.8936 431.3194 483.1192 430.7116 482.3614 430.0903C 481.977 429.7746 481.5915 429.4599 481.2051 429.1485C 480.8397 428.8544 480.4863 428.5405 480.1127 428.2574C 479.8149 428.032 479.4916 427.8652 479.1119 427.8439C 478.7033 427.8206 478.2847 427.8703 477.8755 427.8876C 475.8849 427.9717 473.8943 428.0558 471.9037 428.1399C 470.1327 428.2148 468.3616 428.2896 466.5905 428.3644C 466.3561 428.3743 466.129 428.3807 465.9011 428.4501C 465.5982 428.543 465.3284 428.7177 465.1153 428.953C 464.6615 429.4558 464.5163 430.2455 464.8517 430.8473C 465.0522 431.2092 465.3723 431.4904 465.7599 431.6362C 465.9603 431.7121 466.1835 431.7454 466.3924 431.7921C 466.6044 431.8397 466.8165 431.8873 467.0296 431.9338C 467.8767 432.1232 468.7228 432.3117 469.5699 432.5011C 469.6377 432.5164 469.7055 432.5317 469.7734 432.547C 470.0521 432.6089 470.1625 432.9597 469.9677 433.1707C 469.7185 433.4407 469.4694 433.7106 469.2202 433.9805C 468.5948 434.6581 467.9683 435.3369 467.3428 436.0145C 466.5225 436.9031 465.7012 437.7929 464.881 438.6816C 464.0473 439.5847 463.2137 440.4878 462.3812 441.3898C 461.7198 442.1063 461.0584 442.8228 460.3971 443.5393C 460.0823 443.8803 459.7664 444.2203 459.4528 444.5624C 459.0787 444.9721 458.8999 445.523 458.9996 446.0718C 459.1581 446.9319 459.9571 447.5419 460.8279 447.4816C 461.3441 447.4459 461.7469 447.1737 462.0873 446.805C 462.3252 446.5472 462.5631 446.2895 462.801 446.0318C 463.6059 445.1598 464.4108 444.2878 465.2147 443.4169C 465.8227 442.7581 466.4307 442.0994 467.0388 441.4407C 467.0705 441.4063 467.1033 441.3707 467.1351 441.3363C 467.4653 440.9786 468.0138 441.4849 467.6881 441.8467C 466.9403 442.6768 467.1418 444.0272 468.1415 444.5529C 468.6903 444.8414 469.3617 444.813 469.8849 444.4792C 470.1725 444.2963 470.3954 444.0103 470.6241 443.7626C 470.8569 443.5105 471.0886 443.2594 471.3214 443.0073C 471.6515 442.6496 472.2 443.1559 471.8743 443.5176C 471.1255 444.3488 471.3311 445.6949 472.3298 446.2238C 472.8765 446.5124 473.551 446.4828 474.0732 446.1501C 474.3546 445.9717 474.5694 445.6946 474.7929 445.4525C 475.0277 445.1981 475.2625 444.9437 475.4973 444.6893C 475.8275 444.3317 476.376 444.838 476.0503 445.1997C 475.4746 445.839 475.4269 446.838 475.9951 447.4983C 476.6705 448.2821 477.8802 448.2919 478.5905 447.5445C 479.9337 446.0893 481.2759 444.6352 482.6191 443.18C 483.3071 442.4346 483.9962 441.6881 484.6841 440.9427C 485.2953 440.2828 485.9258 439.6242 486.3591 438.833zM484.4466 442.3117C 483.0296 443.8469 481.6136 445.381 480.1966 446.9162C 479.8469 447.295 479.4962 447.6749 479.1466 448.0537C 478.3798 448.86 477.1528 449.0976 476.1607 448.5748C 475.3788 448.1617 474.8862 447.3573 474.8449 446.4901C 474.6872 446.6387 474.5152 446.7741 474.3195 446.8773C 473.5942 447.2571 472.7122 447.2762 471.9858 446.8938C 471.351 446.5587 470.8653 445.9377 470.7212 445.2306C 470.6924 445.0909 470.6765 444.9507 470.6711 444.81C 470.5094 444.9631 470.3342 445.1018 470.1333 445.2085C 469.4154 445.5847 468.5506 445.6074 467.8259 445.2387C 467.1772 444.9075 466.6816 444.2772 466.5351 443.5618C 466.5076 443.4274 466.4918 443.2914 466.4856 443.1561C 466.4241 443.2227 466.3636 443.2883 466.302 443.3549C 465.4602 444.2669 464.6184 445.1789 463.7776 446.0898C 463.4659 446.4275 463.1552 446.7641 462.8435 447.1018C 462.6395 447.3228 462.4451 447.5446 462.2077 447.7307C 461.3371 448.4166 460.0849 448.3841 459.2121 447.741C 458.4535 447.1827 458.0928 446.1955 458.2746 445.273C 458.4161 444.556 458.8816 444.0784 459.3512 443.5696C 459.9223 442.9509 460.4945 442.3311 461.0656 441.7123C 461.8828 440.827 462.7 439.9416 463.5162 439.0574C 464.3805 438.121 465.2449 437.1845 466.1103 436.247C 466.8239 435.4738 467.5366 434.7018 468.2502 433.9286C 468.4911 433.6676 468.7297 433.4002 468.9707 433.1392C 468.4304 433.019 467.8889 432.8977 467.3496 432.7764C 467.0579 432.7108 466.7651 432.6463 466.4723 432.5797C 465.9933 432.4729 465.4951 432.3958 465.0742 432.1306C 464.2509 431.6114 463.8152 430.701 463.9547 429.7333C 464.0636 428.9697 464.5725 428.2586 465.2604 427.9061C 465.7923 427.6338 466.3404 427.6192 466.92 427.5947C 467.9218 427.5524 468.9256 427.5099 469.9272 427.4676C 472.0244 427.379 474.1194 427.2905 476.2166 427.2019C 476.7387 427.1798 477.2587 427.1578 477.7809 427.1358C 478.2157 427.1174 478.6568 427.0699 479.0919 427.0889C 479.5421 427.1094 479.9481 427.2353 480.3246 427.482C 480.7405 427.7548 481.1066 428.0948 481.494 428.4051C 482.3085 429.0581 483.1149 429.7222 483.9203 430.3874C 484.6958 431.0272 485.4818 431.658 486.1404 432.4222C 486.7733 433.1566 487.2748 433.9734 487.5187 434.9185C 487.7376 435.7686 487.766 436.6609 487.6108 437.5258C 487.4406 438.4735 487.0208 439.3121 486.4424 440.0764C 485.8341 440.8707 485.1203 441.5819 484.4466 442.3117z" stroke="none" fill="#000000" fill-rule="nonzero" /></g></g></g></g></g><g clip-path="url(#34)"><g clip-path="url(#35)"><g clip-path="url(#36)"><g clip-path="url(#37)"><g clip-path="url(#38)"><path id="98" transform="matrix(1 0 0 -1 0 842)" d="M466.0984 381.7401C 465.8011 381.9491 465.728 382.3589 465.9356 382.6554L465.9356 382.6554L467.742 385.2404C 467.9496 385.5369 468.359 385.6082 468.6563 385.3993C 468.9537 385.1903 469.0268 384.7805 468.8192 384.4839L468.8192 384.4839L467.0128 381.8989C 466.8062 381.6013 466.3958 381.5311 466.0984 381.7401zM462.3237 382.57C 461.9669 382.5039 461.6235 382.7383 461.5559 383.0956L461.5559 383.0956L460.9668 386.2035C 460.8992 386.5608 461.132 386.9032 461.4888 386.9693C 461.8457 387.0353 462.189 386.8009 462.2567 386.4436L462.2567 386.4436L462.8469 383.3368C 462.9145 382.9795 462.6806 382.636 462.3237 382.57zM460.3332 373.1639C 460.6305 372.9549 460.7036 372.5451 460.496 372.2485L460.496 372.2485L458.6895 369.6635C 458.482 369.367 458.0726 369.2957 457.7753 369.5047C 457.4779 369.7137 457.4048 370.1235 457.6124 370.42L457.6124 370.42L459.4189 373.005C 459.6265 373.3015 460.0358 373.3729 460.3332 373.1639zM458.0736 376.5238C 458.1412 376.1665 457.9084 375.8241 457.5515 375.7581L457.5515 375.7581L454.4463 375.1815C 454.0894 375.1154 453.746 375.3499 453.6784 375.7071C 453.6108 376.0644 453.8436 376.4069 454.2005 376.4729L454.2005 376.4729L457.3036 377.0495C 457.6616 377.1166 458.0049 376.8801 458.0736 376.5238zM458.9708 380.4112C 458.7632 380.1146 458.3539 380.0433 458.0565 380.2523L458.0565 380.2523L455.4655 382.0719C 455.1681 382.2809 455.095 382.6907 455.3026 382.9873C 455.5102 383.2838 455.9196 383.3551 456.2169 383.1461L456.2169 383.1461L458.8091 381.3275C 459.1053 381.1175 459.1784 380.7077 458.9708 380.4112zM489.0184 370.5619C 489.8013 369.1346 489.8078 367.2726 489.0576 365.8354C 488.6261 365.0092 487.9703 364.3196 487.2821 363.7028C 486.5529 363.0483 485.7785 362.4405 485.0208 361.8192C 484.6363 361.5034 484.2509 361.1888 483.8645 360.8774C 483.499 360.5833 483.1456 360.2694 482.772 359.9863C 482.4742 359.7608 482.1509 359.5941 481.7712 359.5727C 481.3626 359.5494 480.944 359.5992 480.5348 359.6164C 478.5442 359.7006 476.5536 359.7847 474.563 359.8688C 472.792 359.9436 471.0209 360.0184 469.2498 360.0933C 469.0154 360.1032 468.7883 360.1096 468.5604 360.179C 468.2576 360.2719 467.9877 360.4466 467.7746 360.6819C 467.3208 361.1847 467.1756 361.9744 467.5111 362.5761C 467.7115 362.9381 468.0317 363.2192 468.4193 363.3651C 468.6196 363.4409 468.8429 363.4742 469.0517 363.5209C 469.2638 363.5685 469.4758 363.6161 469.6889 363.6627C 470.5361 363.8521 471.3821 364.0405 472.2292 364.23C 472.2971 364.2452 472.3649 364.2605 472.4327 364.2758C 472.7115 364.3377 472.8218 364.6885 472.627 364.8996C 472.3779 365.1695 472.1287 365.4395 471.8795 365.7094C 471.2541 366.387 470.6276 367.0657 470.0021 367.7433C 469.1819 368.632 468.3606 369.5218 467.5403 370.4105C 466.7067 371.3136 465.8731 372.2167 465.0405 373.1187C 464.3791 373.8352 463.7178 374.5517 463.0564 375.2682C 462.7416 375.6092 462.4258 375.9492 462.1121 376.2913C 461.738 376.701 461.5592 377.2519 461.6589 377.8007C 461.8174 378.6608 462.6164 379.2707 463.4872 379.2104C 464.0035 379.1747 464.4063 378.9026 464.7467 378.5338C 464.9846 378.2761 465.2224 378.0184 465.4603 377.7607C 466.2652 376.8886 467.0701 376.0166 467.874 375.1457C 468.482 374.487 469.09 373.8283 469.6981 373.1696C 469.7299 373.1351 469.7627 373.0996 469.7945 373.0651C 470.1246 372.7074 470.6732 373.2137 470.3474 373.5755C 469.5996 374.4056 469.8011 375.756 470.8008 376.2817C 471.3496 376.5703 472.021 376.5419 472.5442 376.2081C 472.8318 376.0251 473.0548 375.7392 473.2834 375.4915C 473.5162 375.2393 473.7479 374.9883 473.9807 374.7361C 474.3109 374.3784 474.8594 374.8847 474.5336 375.2465C 473.7848 376.0777 473.9904 377.4237 474.9892 377.9526C 475.5359 378.2412 476.2104 378.2117 476.7325 377.8789C 477.014 377.7005 477.2287 377.4235 477.4522 377.1813C 477.687 376.927 477.9218 376.6726 478.1566 376.4182C 478.4868 376.0605 479.0353 376.5668 478.7096 376.9286C 478.1339 377.5678 478.0863 378.5669 478.6545 379.2271C 479.3298 380.011 480.5395 380.0207 481.2498 379.2733C 482.593 377.8181 483.9352 376.364 485.2784 374.9088C 485.9664 374.1635 486.6555 373.417 487.3435 372.6716C 487.9547 372.0117 488.5851 371.3531 489.0184 370.5619zM487.106 374.0406C 485.6889 375.5758 484.2729 377.1098 482.8559 378.645C 482.5063 379.0238 482.1556 379.4037 481.8059 379.7825C 481.0391 380.5889 479.8121 380.8265 478.82 380.3037C 478.0381 379.8905 477.5455 379.0861 477.5042 378.2189C 477.3466 378.3676 477.1745 378.5029 476.9788 378.6062C 476.2535 378.9859 475.3716 379.005 474.6452 378.6226C 474.0103 378.2875 473.5247 377.6665 473.3805 376.9595C 473.3518 376.8198 473.3358 376.6795 473.3305 376.5388C 473.1687 376.692 472.9936 376.8307 472.7927 376.9373C 472.0747 377.3136 471.21 377.3362 470.4852 376.9676C 469.8365 376.6363 469.341 376.0061 469.1944 375.2906C 469.1669 375.1562 469.1511 375.0202 469.1449 374.8849C 469.0834 374.9516 469.0229 375.0171 468.9614 375.0838C 468.1196 375.9958 467.2777 376.9078 466.437 377.8187C 466.1253 378.1564 465.8146 378.493 465.5029 378.8306C 465.2988 379.0517 465.1044 379.2734 464.867 379.4596C 463.9964 380.1454 462.7443 380.1129 461.8714 379.4698C 461.1128 378.9115 460.7521 377.9244 460.9339 377.0018C 461.0755 376.2849 461.5409 375.8073 462.0105 375.2985C 462.5817 374.6797 463.1538 374.0599 463.7249 373.4412C 464.5421 372.5558 465.3593 371.6705 466.1755 370.7863C 467.0399 369.8498 467.9042 368.9134 468.7696 367.9758C 469.4833 367.2027 470.1959 366.4306 470.9095 365.6575C 471.1505 365.3965 471.3891 365.1291 471.63 364.868C 471.0897 364.7478 470.5482 364.6266 470.0089 364.5053C 469.7172 364.4397 469.4245 364.3752 469.1316 364.3086C 468.6526 364.2018 468.1545 364.1246 467.7336 363.8595C 466.9102 363.3402 466.4745 362.4299 466.614 361.4622C 466.7229 360.6986 467.2318 359.9875 467.9197 359.6349C 468.4516 359.3627 468.9997 359.3481 469.5794 359.3235C 470.5811 359.2812 471.5849 359.2388 472.5866 359.1965C 474.6837 359.1079 476.7787 359.0193 478.8759 358.9307C 479.398 358.9087 479.9181 358.8867 480.4402 358.8646C 480.875 358.8463 481.3161 358.7988 481.7513 358.8178C 482.2014 358.8383 482.6075 358.9641 482.9839 359.2108C 483.3998 359.4836 483.766 359.8236 484.1534 360.1339C 484.9679 360.787 485.7742 361.4511 486.5796 362.1163C 487.3552 362.756 488.1411 363.3868 488.7997 364.1511C 489.4326 364.8855 489.9341 365.7023 490.178 366.6474C 490.3969 367.4975 490.4253 368.3898 490.2701 369.2546C 490.0999 370.2023 489.6801 371.041 489.1017 371.8052C 488.4935 372.5995 487.7796 373.3108 487.106 374.0406z" stroke="none" fill="#000000" fill-rule="nonzero" /></g></g></g></g></g><g clip-path="url(#39)"><g clip-path="url(#40)"><g clip-path="url(#41)"><g clip-path="url(#42)"><g clip-path="url(#43)"><path id="99" transform="matrix(1 0 0 -1 0 842)" d="M465.3215 312.0139C 465.0242 312.2229 464.9511 312.6328 465.1587 312.9293L465.1587 312.9293L466.9651 315.5143C 467.1727 315.8108 467.5821 315.8821 467.8794 315.6731C 468.1768 315.4641 468.2499 315.0543 468.0423 314.7578L468.0423 314.7578L466.2358 312.1728C 466.0293 311.8752 465.6189 311.805 465.3215 312.0139zM461.5468 312.8438C 461.19 312.7778 460.8466 313.0122 460.779 313.3695L460.779 313.3695L460.1898 316.4774C 460.1223 316.8346 460.355 317.1771 460.7119 317.2431C 461.0688 317.3092 461.4121 317.0748 461.4797 316.7175L461.4797 316.7175L462.0699 313.6106C 462.1376 313.2534 461.9037 312.9099 461.5468 312.8438zM459.5562 303.4377C 459.8536 303.2288 459.9267 302.8189 459.7191 302.5224L459.7191 302.5224L457.9126 299.9374C 457.705 299.6409 457.2957 299.5696 456.9984 299.7786C 456.701 299.9875 456.6279 300.3974 456.8355 300.6939L456.8355 300.6939L458.6419 303.2789C 458.8495 303.5754 459.2589 303.6467 459.5562 303.4377zM457.2967 306.7977C 457.3643 306.4404 457.1315 306.098 456.7746 306.0319L456.7746 306.0319L453.6693 305.4554C 453.3125 305.3893 452.9691 305.6237 452.9015 305.981C 452.8339 306.3383 453.0667 306.6807 453.4236 306.7468L453.4236 306.7468L456.5267 307.3234C 456.8847 307.3905 457.2279 307.1539 457.2967 306.7977zM458.1939 310.685C 457.9863 310.3885 457.5769 310.3172 457.2796 310.5262L457.2796 310.5262L454.6886 312.3458C 454.3912 312.5548 454.3181 312.9646 454.5257 313.2611C 454.7333 313.5577 455.1426 313.629 455.44 313.42L455.44 313.42L458.0321 311.6014C 458.3284 311.3914 458.4015 310.9816 458.1939 310.685zM488.2415 300.8358C 489.0244 299.4085 489.0309 297.5465 488.2806 296.1093C 487.8492 295.2831 487.1934 294.5934 486.5052 293.9767C 485.776 293.3221 485.0016 292.7144 484.2438 292.093C 483.8594 291.7773 483.4739 291.4626 483.0876 291.1512C 482.7221 290.8571 482.3687 290.5432 481.9951 290.2601C 481.6973 290.0347 481.374 289.8679 480.9943 289.8466C 480.5857 289.8233 480.1671 289.873 479.7579 289.8903C 477.7673 289.9744 475.7767 290.0585 473.7861 290.1426C 472.0151 290.2175 470.244 290.2923 468.4729 290.3672C 468.2385 290.377 468.0114 290.3835 467.7835 290.4529C 467.4807 290.5457 467.2108 290.7205 466.9977 290.9557C 466.5439 291.4585 466.3987 292.2482 466.7342 292.85C 466.9346 293.2119 467.2548 293.4931 467.6424 293.6389C 467.8427 293.7148 468.0659 293.7481 468.2748 293.7948C 468.4868 293.8424 468.6989 293.89 468.912 293.9365C 469.7592 294.1259 470.6052 294.3144 471.4523 294.5038C 471.5201 294.5191 471.588 294.5344 471.6558 294.5497C 471.9345 294.6116 472.0449 294.9624 471.8501 295.1734C 471.601 295.4434 471.3518 295.7133 471.1026 295.9832C 470.4772 296.6609 469.8507 297.3396 469.2252 298.0172C 468.4049 298.9059 467.5836 299.7957 466.7634 300.6843C 465.9297 301.5874 465.0962 302.4905 464.2636 303.3925C 463.6022 304.109 462.9409 304.8255 462.2795 305.542C 461.9647 305.8831 461.6488 306.2231 461.3352 306.5651C 460.9611 306.9748 460.7823 307.5258 460.882 308.0745C 461.0405 308.9346 461.8395 309.5446 462.7103 309.4843C 463.2266 309.4486 463.6293 309.1765 463.9698 308.8077C 464.2076 308.55 464.4455 308.2922 464.6834 308.0345C 465.4883 307.1625 466.2932 306.2905 467.0971 305.4196C 467.7051 304.7609 468.3131 304.1021 468.9211 303.4434C 468.9529 303.409 468.9857 303.3734 469.0175 303.339C 469.3477 302.9813 469.8962 303.4876 469.5705 303.8494C 468.8227 304.6795 469.0242 306.0299 470.0239 306.5556C 470.5727 306.8441 471.2441 306.8157 471.7673 306.4819C 472.0549 306.299 472.2779 306.0131 472.5065 305.7654C 472.7393 305.5132 472.971 305.2621 473.2038 305.01C 473.5339 304.6523 474.0825 305.1586 473.7567 305.5204C 473.0079 306.3516 473.2135 307.6976 474.2122 308.2265C 474.7589 308.5151 475.4334 308.4855 475.9556 308.1528C 476.2371 307.9744 476.4518 307.6974 476.6753 307.4552C 476.9101 307.2008 477.1449 306.9464 477.3797 306.692C 477.7099 306.3344 478.2584 306.8407 477.9327 307.2025C 477.357 307.8417 477.3094 308.8407 477.8776 309.501C 478.5529 310.2849 479.7626 310.2946 480.4729 309.5472C 481.8161 308.092 483.1583 306.6379 484.5015 305.1827C 485.1895 304.4373 485.8785 303.6909 486.5666 302.9455C 487.1777 302.2856 487.8082 301.6269 488.2415 300.8358zM486.329 304.3145C 484.912 305.8496 483.496 307.3837 482.079 308.9189C 481.7293 309.2977 481.3787 309.6776 481.029 310.0564C 480.2622 310.8627 479.0352 311.1003 478.0431 310.5775C 477.2612 310.1644 476.7686 309.36 476.7273 308.4928C 476.5696 308.6414 476.3976 308.7768 476.2019 308.8801C 475.4766 309.2598 474.5946 309.2789 473.8683 308.8965C 473.2334 308.5614 472.7477 307.9404 472.6036 307.2333C 472.5749 307.0937 472.5589 306.9534 472.5536 306.8127C 472.3918 306.9658 472.2166 307.1045 472.0157 307.2112C 471.2978 307.5874 470.433 307.6101 469.7083 307.2415C 469.0596 306.9102 468.5641 306.2799 468.4175 305.5645C 468.39 305.4301 468.3742 305.2941 468.368 305.1588C 468.3065 305.2255 468.246 305.291 468.1844 305.3576C 467.3427 306.2697 466.5008 307.1816 465.6601 308.0925C 465.3484 308.4302 465.0377 308.7668 464.726 309.1045C 464.5219 309.3256 464.3275 309.5473 464.0901 309.7335C 463.2195 310.4193 461.9673 310.3868 461.0945 309.7437C 460.3359 309.1854 459.9752 308.1982 460.157 307.2757C 460.2986 306.5587 460.764 306.0811 461.2336 305.5724C 461.8047 304.9536 462.3769 304.3338 462.948 303.715C 463.7652 302.8297 464.5824 301.9443 465.3986 301.0601C 466.2629 300.1237 467.1273 299.1872 467.9927 298.2497C 468.7064 297.4765 469.419 296.7045 470.1326 295.9314C 470.3736 295.6703 470.6122 295.403 470.8531 295.1419C 470.3128 295.0217 469.7713 294.9005 469.232 294.7791C 468.9403 294.7135 468.6476 294.649 468.3547 294.5824C 467.8757 294.4756 467.3776 294.3985 466.9566 294.1334C 466.1333 293.6141 465.6976 292.7038 465.8371 291.7361C 465.946 290.9724 466.4549 290.2613 467.1428 289.9088C 467.6747 289.6365 468.2228 289.6219 468.8025 289.5974C 469.8042 289.5551 470.808 289.5127 471.8097 289.4703C 473.9068 289.3817 476.0018 289.2932 478.099 289.2046C 478.6211 289.1825 479.1411 289.1606 479.6633 289.1385C 480.0981 289.1201 480.5392 289.0727 480.9743 289.0916C 481.4245 289.1121 481.8305 289.238 482.207 289.4847C 482.6229 289.7575 482.989 290.0975 483.3765 290.4078C 484.1909 291.0609 484.9973 291.7249 485.8027 292.3901C 486.5782 293.0299 487.3642 293.6607 488.0228 294.425C 488.6557 295.1593 489.1572 295.9761 489.4011 296.9213C 489.62 297.7714 489.6484 298.6637 489.4932 299.5285C 489.323 300.4762 488.9032 301.3148 488.3248 302.0791C 487.7166 302.8734 487.0027 303.5846 486.329 304.3145z" stroke="none" fill="#000000" fill-rule="nonzero" /></g></g></g></g></g><g clip-path="url(#44)"><g clip-path="url(#45)"><g clip-path="url(#46)"><g clip-path="url(#47)"><g clip-path="url(#48)"><path id="100" transform="matrix(1 0 0 -1 0 842)" d="M468.6586 171.1895C 468.3613 171.3985 468.2882 171.8083 468.4958 172.1048L468.4958 172.1048L470.3022 174.6898C 470.5098 174.9863 470.9192 175.0577 471.2165 174.8487C 471.5139 174.6397 471.587 174.2299 471.3794 173.9333L471.3794 173.9333L469.5729 171.3483C 469.3664 171.0507 468.956 170.9805 468.6586 171.1895zM464.8839 172.0194C 464.5271 171.9533 464.1837 172.1878 464.1161 172.545L464.1161 172.545L463.5269 175.6529C 463.4594 176.0102 463.6921 176.3526 464.049 176.4187C 464.4059 176.4847 464.7492 176.2503 464.8168 175.893L464.8168 175.893L465.407 172.7862C 465.4747 172.4289 465.2408 172.0854 464.8839 172.0194zM462.8933 162.6133C 463.1907 162.4043 463.2638 161.9945 463.0562 161.698L463.0562 161.698L461.2497 159.113C 461.0421 158.8164 460.6328 158.7451 460.3354 158.9541C 460.0381 159.1631 459.965 159.5729 460.1726 159.8694L460.1726 159.8694L461.979 162.4544C 462.1866 162.751 462.596 162.8223 462.8933 162.6133zM460.6338 165.9732C 460.7014 165.616 460.4686 165.2735 460.1117 165.2075L460.1117 165.2075L457.0064 164.6309C 456.6496 164.5649 456.3062 164.7993 456.2386 165.1566C 456.171 165.5138 456.4038 165.8563 456.7607 165.9223L456.7607 165.9223L459.8638 166.499C 460.2218 166.566 460.565 166.3295 460.6338 165.9732zM461.531 169.8606C 461.3234 169.564 460.914 169.4927 460.6167 169.7017L460.6167 169.7017L458.0257 171.5214C 457.7283 171.7303 457.6552 172.1402 457.8628 172.4367C 458.0704 172.7332 458.4797 172.8045 458.7771 172.5956L458.7771 172.5956L461.3692 170.7769C 461.6655 170.5669 461.7386 170.1571 461.531 169.8606zM491.5786 160.0113C 492.3615 158.584 492.368 156.722 491.6177 155.2848C 491.1863 154.4586 490.5305 153.769 489.8423 153.1522C 489.1131 152.4977 488.3387 151.8899 487.5809 151.2686C 487.1965 150.9529 486.811 150.6382 486.4247 150.3268C 486.0592 150.0327 485.7058 149.7188 485.3322 149.4357C 485.0344 149.2102 484.7111 149.0435 484.3314 149.0222C 483.9228 148.9988 483.5042 149.0486 483.095 149.0659C 481.1044 149.15 479.1138 149.2341 477.1232 149.3182C 475.3522 149.393 473.5811 149.4679 471.81 149.5427C 471.5756 149.5526 471.3485 149.559 471.1206 149.6284C 470.8177 149.7213 470.5479 149.896 470.3348 150.1313C 469.881 150.6341 469.7358 151.4238 470.0713 152.0255C 470.2717 152.3875 470.5919 152.6686 470.9795 152.8145C 471.1798 152.8904 471.403 152.9236 471.6119 152.9703C 471.8239 153.0179 472.036 153.0656 472.2491 153.1121C 473.0963 153.3015 473.9423 153.4899 474.7894 153.6794C 474.8572 153.6947 474.925 153.71 474.9929 153.7252C 475.2716 153.7871 475.382 154.1379 475.1872 154.349C 474.938 154.6189 474.6889 154.8889 474.4397 155.1588C 473.8143 155.8364 473.1878 156.5151 472.5623 157.1927C 471.742 158.0814 470.9207 158.9712 470.1005 159.8599C 469.2668 160.763 468.4333 161.6661 467.6007 162.5681C 466.9393 163.2846 466.278 164.0011 465.6166 164.7176C 465.3018 165.0586 464.9859 165.3986 464.6723 165.7407C 464.2982 166.1504 464.1194 166.7013 464.2191 167.2501C 464.3776 168.1102 465.1766 168.7201 466.0474 168.6599C 466.5637 168.6242 466.9664 168.352 467.3069 167.9832C 467.5447 167.7255 467.7826 167.4678 468.0205 167.2101C 468.8254 166.3381 469.6303 165.466 470.4342 164.5952C 471.0422 163.9364 471.6502 163.2777 472.2582 162.619C 472.29 162.5845 472.3228 162.549 472.3546 162.5145C 472.6848 162.1569 473.2333 162.6632 472.9076 163.0249C 472.1598 163.855 472.3613 165.2055 473.361 165.7311C 473.9098 166.0197 474.5812 165.9913 475.1044 165.6575C 475.392 165.4745 475.615 165.1886 475.8436 164.9409C 476.0764 164.6887 476.3081 164.4377 476.5409 164.1855C 476.871 163.8278 477.4196 164.3341 477.0938 164.6959C 476.345 165.5271 476.5506 166.8731 477.5493 167.402C 478.096 167.6906 478.7705 167.6611 479.2927 167.3284C 479.5742 167.1499 479.7889 166.8729 480.0124 166.6308C 480.2472 166.3764 480.482 166.122 480.7168 165.8676C 481.047 165.5099 481.5955 166.0162 481.2698 166.378C 480.6941 167.0172 480.6465 168.0163 481.2147 168.6766C 481.89 169.4604 483.0997 169.4701 483.81 168.7227C 485.1532 167.2675 486.4954 165.8135 487.8386 164.3582C 488.5266 163.6129 489.2156 162.8664 489.9037 162.121C 490.5148 161.4611 491.1453 160.8025 491.5786 160.0113zM489.6661 163.49C 488.2491 165.0252 486.8331 166.5593 485.4161 168.0945C 485.0664 168.4732 484.7158 168.8531 484.3661 169.2319C 483.5993 170.0383 482.3723 170.2759 481.3802 169.7531C 480.5983 169.3399 480.1057 168.5355 480.0644 167.6683C 479.9067 167.817 479.7347 167.9523 479.539 168.0556C 478.8137 168.4353 477.9317 168.4545 477.2054 168.072C 476.5705 167.737 476.0848 167.1159 475.9407 166.4089C 475.912 166.2692 475.896 166.129 475.8907 165.9883C 475.7289 166.1414 475.5537 166.2801 475.3528 166.3868C 474.6349 166.763 473.7701 166.7856 473.0454 166.417C 472.3967 166.0857 471.9012 165.4555 471.7546 164.7401C 471.7271 164.6056 471.7113 164.4697 471.7051 164.3344C 471.6436 164.401 471.5831 164.4665 471.5215 164.5332C 470.6797 165.4452 469.8379 166.3572 468.9972 167.2681C 468.6855 167.6058 468.3748 167.9424 468.063 168.2801C 467.859 168.5011 467.6646 168.7228 467.4272 168.909C 466.5566 169.5948 465.3044 169.5623 464.4316 168.9192C 463.673 168.3609 463.3123 167.3738 463.4941 166.4512C 463.6357 165.7343 464.1011 165.2567 464.5707 164.7479C 465.1418 164.1292 465.714 163.5093 466.2851 162.8906C 467.1023 162.0052 467.9195 161.1199 468.7357 160.2357C 469.6 159.2992 470.4644 158.3628 471.3298 157.4252C 472.0435 156.6521 472.7561 155.8801 473.4697 155.1069C 473.7107 154.8459 473.9492 154.5785 474.1902 154.3175C 473.6499 154.1973 473.1084 154.076 472.5691 153.9547C 472.2774 153.8891 471.9846 153.8246 471.6918 153.758C 471.2128 153.6512 470.7147 153.574 470.2937 153.3089C 469.4704 152.7897 469.0347 151.8793 469.1742 150.9116C 469.2831 150.148 469.792 149.4369 470.4799 149.0844C 471.0118 148.8121 471.5599 148.7975 472.1396 148.773C 473.1413 148.7306 474.1451 148.6882 475.1468 148.6459C 477.2439 148.5573 479.3389 148.4688 481.4361 148.3801C 481.9582 148.3581 482.4782 148.3361 483.0004 148.314C 483.4352 148.2957 483.8763 148.2482 484.3114 148.2672C 484.7616 148.2877 485.1676 148.4135 485.5441 148.6602C 485.96 148.933 486.3261 149.2731 486.7136 149.5833C 487.528 150.2364 488.3344 150.9005 489.1398 151.5657C 489.9153 152.2054 490.7013 152.8362 491.3599 153.6005C 491.9928 154.3349 492.4943 155.1517 492.7382 156.0968C 492.9571 156.9469 492.9855 157.8392 492.8303 158.7041C 492.6601 159.6517 492.2403 160.4904 491.6619 161.2546C 491.0536 162.049 490.3398 162.7602 489.6661 163.49z" stroke="none" fill="#000000" fill-rule="nonzero" /></g></g></g></g></g><g clip-path="url(#49)"><g clip-path="url(#50)"><g clip-path="url(#51)"><g clip-path="url(#52)"><path id="101" transform="matrix(1 0 0 -1 0 842)" d="M187.6722 575.9202L478.2709 575.9202L478.2709 516.4531L187.6722 516.4531z" stroke="none" fill="#38B6FF" fill-rule="nonzero" /></g></g></g></g><g clip-path="url(#53)"></g><g clip-path="url(#54)"><g clip-path="url(#55)"><g clip-path="url(#56)"><g clip-path="url(#57)"><g clip-path="url(#58)"><path id="120" transform="matrix(1 0 0 -1 0 842)" d="M465.6597 522.677C 465.3623 522.886 465.2892 523.2958 465.4968 523.5923L465.4968 523.5923L467.3033 526.1773C 467.5109 526.4739 467.9202 526.5452 468.2176 526.3362C 468.5149 526.1272 468.588 525.7173 468.3804 525.4208L468.3804 525.4208L466.574 522.8359C 466.3674 522.5382 465.957 522.468 465.6597 522.677zM461.8849 523.5069C 461.5281 523.4409 461.1848 523.6752 461.1171 524.0325L461.1171 524.0325L460.528 527.1404C 460.4604 527.4977 460.6932 527.8401 461.05 527.9062C 461.4069 527.9722 461.7502 527.7378 461.8179 527.3806L461.8179 527.3806L462.4081 524.2737C 462.4757 523.9164 462.2418 523.5729 461.8849 523.5069zM459.8944 514.1008C 460.1917 513.8918 460.2648 513.482 460.0573 513.1855L460.0573 513.1855L458.2508 510.6005C 458.0432 510.3039 457.6338 510.2326 457.3365 510.4416C 457.0391 510.6506 456.966 511.0604 457.1736 511.357L457.1736 511.357L458.9801 513.942C 459.1877 514.2385 459.597 514.3098 459.8944 514.1008zM457.6348 517.4608C 457.7024 517.1035 457.4696 516.761 457.1128 516.6949L457.1128 516.6949L454.0075 516.1184C 453.6506 516.0524 453.3073 516.2868 453.2397 516.644C 453.172 517.0013 453.4048 517.3438 453.7617 517.4099L453.7617 517.4099L456.8648 517.9865C 457.2228 518.0535 457.5661 517.817 457.6348 517.4608zM458.532 521.3481C 458.3244 521.0515 457.9151 520.9802 457.6177 521.1892L457.6177 521.1892L455.0267 523.0089C 454.7293 523.2178 454.6563 523.6277 454.8638 523.9242C 455.0714 524.2208 455.4808 524.2921 455.7781 524.0831L455.7781 524.0831L458.3703 522.2644C 458.6665 522.0544 458.7396 521.6446 458.532 521.3481zM488.5797 511.4988C 489.3625 510.0715 489.369 508.2095 488.6188 506.7723C 488.1873 505.9461 487.5316 505.2565 486.8433 504.6397C 486.1141 503.9852 485.3398 503.3774 484.582 502.7561C 484.1975 502.4403 483.8121 502.1257 483.4257 501.8143C 483.0602 501.5202 482.7068 501.2063 482.3332 500.9232C 482.0355 500.6977 481.7122 500.531 481.3325 500.5096C 480.9239 500.4864 480.5052 500.5361 480.096 500.5533C 478.1054 500.6375 476.1148 500.7216 474.1243 500.8057C 472.3532 500.8805 470.5821 500.9554 468.8111 501.0302C 468.5766 501.0401 468.3495 501.0465 468.1216 501.1159C 467.8188 501.2088 467.549 501.3835 467.3358 501.6188C 466.882 502.1216 466.7368 502.9113 467.0723 503.5131C 467.2728 503.875 467.5929 504.1561 467.9805 504.302C 468.1808 504.3779 468.4041 504.4111 468.6129 504.4578C 468.825 504.5054 469.037 504.5531 469.2501 504.5996C 470.0973 504.789 470.9433 504.9774 471.7905 505.1669C 471.8583 505.1822 471.9261 505.1974 471.9939 505.2127C 472.2727 505.2746 472.3831 505.6254 472.1883 505.8365C 471.9391 506.1064 471.6899 506.3764 471.4408 506.6463C 470.8153 507.3239 470.1888 508.0026 469.5634 508.6802C 468.7431 509.5689 467.9218 510.4587 467.1015 511.3474C 466.2679 512.2505 465.4343 513.1536 464.6017 514.0556C 463.9403 514.7721 463.279 515.4886 462.6176 516.2051C 462.3029 516.5461 461.987 516.8861 461.6733 517.2281C 461.2992 517.6379 461.1205 518.1888 461.2202 518.7375C 461.3786 519.5977 462.1776 520.2076 463.0484 520.1473C 463.5647 520.1117 463.9675 519.8395 464.3079 519.4707C 464.5458 519.213 464.7837 518.9553 465.0215 518.6976C 465.8264 517.8256 466.6313 516.9536 467.4352 516.0826C 468.0432 515.424 468.6512 514.7652 469.2593 514.1064C 469.2911 514.072 469.3239 514.0365 469.3557 514.0021C 469.6859 513.6443 470.2344 514.1506 469.9086 514.5125C 469.1609 515.3425 469.3624 516.693 470.362 517.2186C 470.9109 517.5072 471.5822 517.4788 472.1054 517.145C 472.3931 516.962 472.616 516.6761 472.8447 516.4284C 473.0774 516.1763 473.3091 515.9252 473.5419 515.673C 473.8721 515.3153 474.4206 515.8217 474.0948 516.1834C 473.346 517.0146 473.5517 518.3606 474.5504 518.8895C 475.0971 519.1782 475.7716 519.1486 476.2937 518.8159C 476.5752 518.6375 476.7899 518.3604 477.0134 518.1183C 477.2482 517.8639 477.4831 517.6095 477.7179 517.3551C 478.048 516.9974 478.5966 517.5037 478.2708 517.8655C 477.6951 518.5047 477.6475 519.5038 478.2157 520.1641C 478.8911 520.9479 480.1007 520.9576 480.811 520.2103C 482.1543 518.7551 483.4964 517.301 484.8397 515.8458C 485.5276 515.1004 486.2167 514.3539 486.9047 513.6085C 487.5159 512.9486 488.1463 512.29 488.5797 511.4988zM486.6672 514.9775C 485.2502 516.5127 483.8341 518.0468 482.4171 519.582C 482.0675 519.9608 481.7168 520.3406 481.3672 520.7194C 480.6003 521.5258 479.3734 521.7634 478.3813 521.2406C 477.5993 520.8274 477.1068 520.023 477.0655 519.1558C 476.9078 519.3044 476.7357 519.4398 476.54 519.5431C 475.8147 519.9229 474.9328 519.942 474.2064 519.5595C 473.5715 519.2245 473.0859 518.6034 472.9417 517.8964C 472.913 517.7567 472.897 517.6165 472.8917 517.4758C 472.7299 517.6288 472.5548 517.7676 472.3539 517.8743C 471.6359 518.2505 470.7712 518.2731 470.0464 517.9045C 469.3978 517.5732 468.9022 516.943 468.7556 516.2275C 468.7281 516.0931 468.7123 515.9572 468.7061 515.8218C 468.6446 515.8885 468.5841 515.954 468.5226 516.0207C 467.6808 516.9327 466.839 517.8447 465.9982 518.7556C 465.6865 519.0933 465.3758 519.4299 465.0641 519.7676C 464.86 519.9886 464.6656 520.2103 464.4283 520.3965C 463.5576 521.0823 462.3055 521.0499 461.4326 520.4067C 460.674 519.8484 460.3134 518.8613 460.4951 517.9387C 460.6367 517.2218 461.1021 516.7441 461.5717 516.2354C 462.1429 515.6166 462.715 514.9968 463.2861 514.3781C 464.1033 513.4927 464.9205 512.6074 465.7367 511.7232C 466.6011 510.7867 467.4655 509.8503 468.3308 508.9128C 469.0445 508.1396 469.7571 507.3676 470.4708 506.5944C 470.7117 506.3334 470.9503 506.066 471.1913 505.805C 470.6509 505.6848 470.1095 505.5635 469.5702 505.4422C 469.2784 505.3766 468.9857 505.3121 468.6928 505.2455C 468.2139 505.1387 467.7157 505.0615 467.2948 504.7964C 466.4714 504.2772 466.0357 503.3668 466.1753 502.3991C 466.2841 501.6355 466.793 500.9244 467.481 500.5719C 468.0128 500.2996 468.5609 500.285 469.1406 500.2605C 470.1423 500.2181 471.1461 500.1757 472.1478 500.1334C 474.2449 500.0448 476.34 499.9563 478.4371 499.8676C 478.9593 499.8456 479.4793 499.8236 480.0014 499.8015C 480.4362 499.7832 480.8773 499.7357 481.3125 499.7547C 481.7626 499.7752 482.1687 499.9011 482.5451 500.1478C 482.961 500.4206 483.3272 500.7606 483.7146 501.0709C 484.5291 501.7239 485.3354 502.388 486.1408 503.0532C 486.9164 503.693 487.7023 504.3237 488.3609 505.088C 488.9938 505.8224 489.4954 506.6392 489.7392 507.5843C 489.9581 508.4344 489.9865 509.3267 489.8313 510.1916C 489.6612 511.1393 489.2414 511.9779 488.6629 512.7421C 488.0547 513.5364 487.3408 514.2477 486.6672 514.9775z" stroke="none" fill="#000000" fill-rule="nonzero" /></g></g></g></g></g><g clip-path="url(#59)"></g><g clip-path="url(#60)"><g clip-path="url(#61)"><g clip-path="url(#62)"><g clip-path="url(#63)"><g clip-path="url(#64)"><path id="166" transform="matrix(1 0 0 -1 0 842)" d="M464.0132 104.8801C 463.7158 105.0891 463.6427 105.4989 463.8503 105.7955L463.8503 105.7955L465.6567 108.3804C 465.8643 108.677 466.2737 108.7483 466.571 108.5393C 466.8684 108.3303 466.9415 107.9205 466.7339 107.624L466.7339 107.624L464.9275 105.039C 464.7209 104.7413 464.3105 104.6711 464.0132 104.8801zM460.2384 105.71C 459.8816 105.644 459.5382 105.8784 459.4706 106.2357L459.4706 106.2357L458.8815 109.3435C 458.8139 109.7008 459.0467 110.0432 459.4035 110.1093C 459.7604 110.1754 460.1037 109.9409 460.1713 109.5837L460.1713 109.5837L460.7616 106.4768C 460.8292 106.1195 460.5953 105.7761 460.2384 105.71zM458.2479 96.30392C 458.5452 96.09493 458.6183 95.68512 458.4107 95.38858L458.4107 95.38858L456.6042 92.8036C 456.3967 92.50706 455.9873 92.43576 455.69 92.64474C 455.3926 92.85373 455.3195 93.26354 455.5271 93.56008L455.5271 93.56008L457.3336 96.14507C 457.5412 96.4416 457.9505 96.51291 458.2479 96.30392zM455.9883 99.66386C 456.0559 99.30659 455.8231 98.96414 455.4662 98.89809L455.4662 98.89809L452.361 98.32154C 452.0041 98.25549 451.6607 98.48991 451.5931 98.84718C 451.5255 99.20445 451.7583 99.5469 452.1152 99.61295L452.1152 99.61295L455.2183 100.1896C 455.5763 100.2567 455.9196 100.0201 455.9883 99.66386zM456.8855 103.5512C 456.6779 103.2547 456.2686 103.1834 455.9712 103.3923L455.9712 103.3923L453.3802 105.212C 453.0828 105.421 453.0097 105.8308 453.2173 106.1273C 453.4249 106.4239 453.8343 106.4952 454.1316 106.2862L454.1316 106.2862L456.7238 104.4676C 457.02 104.2576 457.0931 103.8477 456.8855 103.5512zM486.9331 93.70192C 487.716 92.27467 487.7225 90.41265 486.9723 88.97545C 486.5408 88.14928 485.885 87.45961 485.1968 86.84285C 484.4676 86.18832 483.6932 85.58053 482.9355 84.95923C 482.551 84.64348 482.1656 84.32883 481.7792 84.01743C 481.4137 83.7233 481.0603 83.40944 480.6867 83.12632C 480.3889 82.90085 480.0656 82.73409 479.6859 82.71278C 479.2773 82.68948 478.8587 82.73919 478.4495 82.75648C 476.4589 82.84059 474.4683 82.92471 472.4778 83.00882C 470.7067 83.08365 468.9356 83.15849 467.1646 83.23332C 466.9301 83.24323 466.703 83.24963 466.4751 83.31903C 466.1723 83.4119 465.9025 83.58662 465.6893 83.82195C 465.2355 84.32471 465.0903 85.1144 465.4258 85.71618C 465.6262 86.07813 465.9464 86.35924 466.334 86.50513C 466.5343 86.58099 466.7576 86.61426 466.9664 86.66095C 467.1785 86.70856 467.3905 86.75618 467.6036 86.80269C 468.4508 86.99214 469.2968 87.18057 470.144 87.37002C 470.2118 87.3853 470.2796 87.40058 470.3474 87.41586C 470.6262 87.47775 470.7366 87.82856 470.5417 88.03962C 470.2926 88.30956 470.0434 88.57949 469.7943 88.84943C 469.1688 89.52704 468.5423 90.20576 467.9168 90.88338C 467.0966 91.77205 466.2753 92.66183 465.455 93.55051C 464.6214 94.45362 463.7878 95.35674 462.9552 96.25874C 462.2938 96.97523 461.6325 97.69172 460.9711 98.40821C 460.6563 98.74924 460.3405 99.08925 460.0268 99.4313C 459.6527 99.84102 459.4739 100.3919 459.5736 100.9407C 459.7321 101.8008 460.5311 102.4108 461.4019 102.3505C 461.9182 102.3148 462.321 102.0426 462.6614 101.6738C 462.8993 101.4161 463.1371 101.1584 463.375 100.9007C 464.1799 100.0287 464.9848 99.15668 465.7887 98.28578C 466.3967 97.62705 467.0048 96.96832 467.6128 96.30959C 467.6446 96.27515 467.6774 96.23961 467.7092 96.20517C 468.0393 95.84748 468.5879 96.35379 468.2621 96.71556C 467.5143 97.54566 467.7159 98.8961 468.7155 99.42178C 469.2643 99.7103 469.9357 99.68193 470.4589 99.34811C 470.7466 99.16515 470.9695 98.87924 471.1982 98.63152C 471.4309 98.37936 471.6626 98.12831 471.8954 97.87615C 472.2255 97.51846 472.7741 98.02477 472.4483 98.38654C 471.6995 99.21776 471.9052 100.5637 472.9039 101.0927C 473.4506 101.3813 474.1251 101.3517 474.6472 101.019C 474.9286 100.8406 475.1434 100.5636 475.3669 100.3214C 475.6017 100.067 475.8365 99.81262 476.0714 99.55824C 476.4015 99.20055 476.95 99.70686 476.6243 100.0686C 476.0486 100.7078 476.001 101.7069 476.5692 102.3672C 477.2445 103.151 478.4542 103.1608 479.1646 102.4134C 480.5078 100.9582 481.8499 99.50408 483.1931 98.04888C 483.8811 97.3035 484.5702 96.55702 485.2582 95.81165C 485.8694 95.15172 486.4998 94.49312 486.9331 93.70192zM485.0207 97.18063C 483.6036 98.71582 482.1876 100.2499 480.7706 101.7851C 480.421 102.1639 480.0703 102.5438 479.7206 102.9226C 478.9538 103.7289 477.7268 103.9665 476.7347 103.4437C 475.9528 103.0305 475.4602 102.2262 475.4189 101.359C 475.2613 101.5076 475.0892 101.643 474.8935 101.7462C 474.1682 102.126 473.2863 102.1451 472.5599 101.7627C 471.925 101.4276 471.4394 100.8065 471.2952 100.0995C 471.2665 99.95983 471.2505 99.8196 471.2452 99.67891C 471.0834 99.83199 470.9083 99.9707 470.7074 100.0774C 469.9894 100.4536 469.1247 100.4763 468.3999 100.1076C 467.7513 99.77637 467.2557 99.14613 467.1091 98.43068C 467.0816 98.29626 467.0658 98.16029 467.0596 98.02498C 466.9981 98.09163 466.9376 98.15717 466.8761 98.22382C 466.0343 99.13582 465.1924 100.0478 464.3517 100.9587C 464.04 101.2964 463.7293 101.633 463.4176 101.9707C 463.2135 102.1917 463.0191 102.4135 462.7817 102.5996C 461.9111 103.2855 460.659 103.253 459.7861 102.6099C 459.0275 102.0516 458.6668 101.0644 458.8486 100.1419C 458.9902 99.42493 459.4556 98.9473 459.9252 98.43853C 460.4964 97.81979 461.0685 97.19994 461.6396 96.58121C 462.4568 95.69586 463.274 94.81052 464.0902 93.92629C 464.9546 92.98985 465.8189 92.05341 466.6843 91.11586C 467.398 90.34272 468.1106 89.57069 468.8242 88.79754C 469.0652 88.53649 469.3038 88.26914 469.5447 88.00809C 469.0044 87.88788 468.463 87.76664 467.9236 87.64531C 467.6319 87.57971 467.3392 87.51522 467.0463 87.4486C 466.5674 87.3418 466.0692 87.26464 465.6483 86.99953C 464.8249 86.48029 464.3892 85.56995 464.5287 84.60223C 464.6376 83.83862 465.1465 83.12751 465.8344 82.77498C 466.3663 82.50271 466.9144 82.48809 467.4941 82.46359C 468.4958 82.42126 469.4996 82.37885 470.5013 82.33652C 472.5984 82.24791 474.6935 82.15939 476.7906 82.07077C 477.3127 82.04871 477.8328 82.02673 478.3549 82.00467C 478.7897 81.9863 479.2308 81.93884 479.666 81.95782C 480.1161 81.97829 480.5222 82.10418 480.8986 82.35088C 481.3145 82.62367 481.6807 82.96368 482.0681 83.27397C 482.8826 83.92704 483.689 84.59112 484.4943 85.25631C 485.2699 85.89607 486.0558 86.52686 486.7144 87.29112C 487.3473 88.02552 487.8489 88.84233 488.0927 89.78745C 488.3116 90.63755 488.34 91.52986 488.1848 92.3947C 488.0146 93.34237 487.5948 94.18103 487.0164 94.94525C 486.4082 95.73958 485.6943 96.45081 485.0207 97.18063z" stroke="none" fill="#000000" fill-rule="nonzero" /></g></g></g></g></g><g clip-path="url(#65)"></g><g clip-path="url(#66)"><g clip-path="url(#67)"><g clip-path="url(#68)"><g clip-path="url(#69)"><path id="191" transform="matrix(1 0 0 -1 0 842)" d="M184.2717 295.8004L474.8704 295.8004L474.8704 236.3333L184.2717 236.3333z" stroke="none" fill="#38B6FF" fill-rule="nonzero" /></g></g></g></g><g clip-path="url(#70)"><g clip-path="url(#71)"><g clip-path="url(#72)"><g clip-path="url(#73)"><g clip-path="url(#74)"><path id="192" transform="matrix(1 0 0 -1 0 842)" d="M469.0641 242.2421C 468.7668 242.4511 468.6937 242.8609 468.9012 243.1574L468.9012 243.1574L470.7077 245.7424C 470.9153 246.0389 471.3246 246.1103 471.622 245.9013C 471.9194 245.6923 471.9925 245.2825 471.7849 244.9859L471.7849 244.9859L469.9784 242.4009C 469.7719 242.1033 469.3615 242.0331 469.0641 242.2421zM465.2894 243.072C 464.9326 243.0059 464.5892 243.2404 464.5216 243.5976L464.5216 243.5976L463.9324 246.7055C 463.8648 247.0628 464.0976 247.4052 464.4545 247.4713C 464.8113 247.5373 465.1547 247.3029 465.2223 246.9456L465.2223 246.9456L465.8125 243.8388C 465.8802 243.4815 465.6462 243.138 465.2894 243.072zM463.2988 233.6659C 463.5962 233.4569 463.6693 233.0471 463.4617 232.7505L463.4617 232.7505L461.6552 230.1656C 461.4476 229.869 461.0383 229.7977 460.7409 230.0067C 460.4436 230.2157 460.3705 230.6255 460.5781 230.9221L460.5781 230.9221L462.3845 233.507C 462.5921 233.8036 463.0015 233.8749 463.2988 233.6659zM461.0392 237.0258C 461.1069 236.6686 460.8741 236.3261 460.5172 236.2601L460.5172 236.2601L457.4119 235.6835C 457.0551 235.6175 456.7117 235.8519 456.6441 236.2092C 456.5765 236.5664 456.8093 236.9089 457.1661 236.9749L457.1661 236.9749L460.2693 237.5516C 460.6273 237.6186 460.9705 237.3821 461.0392 237.0258zM461.9365 240.9132C 461.7289 240.6166 461.3195 240.5453 461.0222 240.7543L461.0222 240.7543L458.4312 242.574C 458.1338 242.7829 458.0607 243.1927 458.2683 243.4893C 458.4759 243.7858 458.8852 243.8571 459.1826 243.6481L459.1826 243.6481L461.7747 241.8295C 462.071 241.6195 462.1441 241.2097 461.9365 240.9132zM491.9841 231.0639C 492.767 229.6366 492.7734 227.7746 492.0233 226.3374C 491.5918 225.5112 490.936 224.8216 490.2477 224.2048C 489.5186 223.5503 488.7442 222.9425 487.9864 222.3212C 487.602 222.0054 487.2165 221.6908 486.8301 221.3794C 486.4647 221.0853 486.1113 220.7714 485.7377 220.4883C 485.4399 220.2628 485.1166 220.0961 484.7369 220.0747C 484.3283 220.0515 483.9097 220.1012 483.5005 220.1185C 481.5099 220.2026 479.5193 220.2867 477.5287 220.3708C 475.7577 220.4456 473.9866 220.5205 472.2155 220.5953C 471.9811 220.6052 471.754 220.6116 471.5261 220.681C 471.2232 220.7739 470.9534 220.9486 470.7403 221.1839C 470.2865 221.6867 470.1413 222.4764 470.4767 223.0782C 470.6772 223.4401 470.9973 223.7212 471.3849 223.8671C 471.5853 223.943 471.8085 223.9762 472.0174 224.0229C 472.2294 224.0705 472.4415 224.1181 472.6546 224.1647C 473.5017 224.3541 474.3478 224.5425 475.1949 224.732C 475.2627 224.7473 475.3305 224.7626 475.3984 224.7778C 475.6771 224.8397 475.7875 225.1905 475.5927 225.4016C 475.3435 225.6715 475.0944 225.9415 474.8452 226.2114C 474.2198 226.889 473.5933 227.5677 472.9678 228.2453C 472.1475 229.134 471.3262 230.0238 470.506 230.9125C 469.6723 231.8156 468.8387 232.7187 468.0062 233.6207C 467.3448 234.3372 466.6834 235.0537 466.0221 235.7702C 465.7073 236.1112 465.3914 236.4512 465.0778 236.7933C 464.7037 237.203 464.5249 237.7539 464.6246 238.3027C 464.7831 239.1628 465.5821 239.7727 466.4529 239.7125C 466.9691 239.6768 467.3719 239.4046 467.7123 239.0358C 467.9502 238.7781 468.1881 238.5204 468.426 238.2627C 469.2309 237.3907 470.0358 236.5186 470.8397 235.6478C 471.4477 234.989 472.0557 234.3303 472.6638 233.6716C 472.6955 233.6371 472.7283 233.6016 472.7601 233.5671C 473.0903 233.2095 473.6388 233.7158 473.3131 234.0775C 472.5653 234.9076 472.7668 236.2581 473.7665 236.7837C 474.3153 237.0723 474.9867 237.0439 475.5099 236.7101C 475.7975 236.5271 476.0204 236.2412 476.2491 235.9935C 476.4819 235.7413 476.7136 235.4903 476.9464 235.2381C 477.2765 234.8804 477.825 235.3867 477.4993 235.7485C 476.7505 236.5797 476.9561 237.9257 477.9548 238.4546C 478.5015 238.7432 479.176 238.7137 479.6982 238.381C 479.9796 238.2025 480.1944 237.9255 480.4179 237.6833C 480.6527 237.429 480.8875 237.1746 481.1223 236.9202C 481.4525 236.5625 482.001 237.0688 481.6753 237.4306C 481.0996 238.0698 481.0519 239.0689 481.6201 239.7292C 482.2955 240.513 483.5052 240.5227 484.2155 239.7753C 485.5587 238.3201 486.9009 236.8661 488.2441 235.4109C 488.9321 234.6655 489.6212 233.919 490.3091 233.1736C 490.9203 232.5137 491.5508 231.8551 491.9841 231.0639zM490.0716 234.5426C 488.6546 236.0778 487.2386 237.6119 485.8216 239.147C 485.4719 239.5258 485.1212 239.9057 484.7716 240.2845C 484.0048 241.0909 482.7778 241.3285 481.7857 240.8057C 481.0038 240.3925 480.5112 239.5881 480.4699 238.7209C 480.3122 238.8696 480.1402 239.0049 479.9445 239.1082C 479.2192 239.4879 478.3372 239.5071 477.6108 239.1246C 476.976 238.7896 476.4903 238.1685 476.3462 237.4615C 476.3174 237.3218 476.3015 237.1816 476.2961 237.0409C 476.1344 237.194 475.9592 237.3327 475.7583 237.4394C 475.0404 237.8156 474.1756 237.8382 473.4509 237.4696C 472.8022 237.1383 472.3066 236.5081 472.1601 235.7926C 472.1326 235.6582 472.1168 235.5223 472.1106 235.3869C 472.0491 235.4536 471.9886 235.5191 471.927 235.5858C 471.0852 236.4978 470.2434 237.4098 469.4026 238.3207C 469.0909 238.6584 468.7802 238.995 468.4685 239.3327C 468.2645 239.5537 468.0701 239.7754 467.8327 239.9616C 466.9621 240.6474 465.7099 240.6149 464.8371 239.9718C 464.0785 239.4135 463.7178 238.4264 463.8996 237.5038C 464.0411 236.7869 464.5066 236.3093 464.9762 235.8005C 465.5473 235.1818 466.1195 234.5619 466.6906 233.9432C 467.5078 233.0578 468.325 232.1725 469.1412 231.2883C 470.0055 230.3518 470.8699 229.4154 471.7353 228.4778C 472.4489 227.7047 473.1616 226.9326 473.8752 226.1595C 474.1161 225.8985 474.3547 225.6311 474.5957 225.3701C 474.0554 225.2498 473.5139 225.1286 472.9746 225.0073C 472.6829 224.9417 472.3901 224.8772 472.0973 224.8106C 471.6183 224.7038 471.1201 224.6266 470.6992 224.3615C 469.8759 223.8423 469.4402 222.9319 469.5797 221.9642C 469.6886 221.2006 470.1975 220.4895 470.8854 220.1369C 471.4173 219.8647 471.9654 219.8501 472.545 219.8256C 473.5468 219.7832 474.5506 219.7408 475.5522 219.6985C 477.6494 219.6099 479.7444 219.5214 481.8416 219.4327C 482.3637 219.4107 482.8837 219.3887 483.4059 219.3666C 483.8407 219.3483 484.2818 219.3008 484.7169 219.3198C 485.1671 219.3403 485.5731 219.4662 485.9496 219.7129C 486.3655 219.9856 486.7316 220.3257 487.119 220.6359C 487.9335 221.289 488.7399 221.9531 489.5453 222.6183C 490.3208 223.258 491.1068 223.8888 491.7654 224.6531C 492.3983 225.3875 492.8998 226.2043 493.1437 227.1494C 493.3626 227.9995 493.391 228.8918 493.2358 229.7567C 493.0656 230.7043 492.6458 231.543 492.0674 232.3072C 491.4591 233.1015 490.7453 233.8128 490.0716 234.5426z" stroke="none" fill="#000000" fill-rule="nonzero" /></g></g></g></g></g><g clip-path="url(#75)"></g><g clip-path="url(#76)"><g transform="matrix(0.06558185 0 0 0.0651796 482.3717 13.39948)"><g transform="matrix(1 0 0 1 0 0)"><image x="0" y="0" xlink:href="img_02.png" width="1521" height="863" /></g></g></g><g clip-path="url(#77)"><g transform="matrix(0.496875 0 0 0.4946807 13.43191 13.39948)"><g transform="matrix(1 0 0 1 0 0)"><image x="0" y="0" xlink:href="img_03.png" width="160" height="141" /></g></g></g><g clip-path="url(#78)"><g clip-path="url(#79)"><g clip-path="url(#80)"><g clip-path="url(#81)"><path id="214" transform="matrix(1 0 0 -1 0 842)" d="M151.3134 344.2887L169.419 344.2887L169.419 326.183L151.3134 326.183z" stroke="none" fill="#054BB2" fill-rule="nonzero" /></g></g></g></g><g clip-path="url(#82)"><g clip-path="url(#83)"><g clip-path="url(#84)"><g clip-path="url(#85)"><path id="215" transform="matrix(1 0 0 -1 0 842)" d="M151.3134 274.0754L169.419 274.0754L169.419 255.9698L151.3134 255.9698z" stroke="none" fill="#88A923" fill-rule="nonzero" /></g></g></g></g><g clip-path="url(#86)"><g clip-path="url(#87)"><g clip-path="url(#88)"><g clip-path="url(#89)"><path id="216" transform="matrix(1 0 0 -1 0 842)" d="M112.9578 559.6802L131.0634 559.6802L131.0634 541.5746L112.9578 541.5746z" stroke="none" fill="#88A923" fill-rule="nonzero" /></g></g></g></g><g clip-path="url(#90)"><g clip-path="url(#91)"><g clip-path="url(#92)"><g clip-path="url(#93)"><path id="217" transform="matrix(1 0 0 -1 0 842)" d="M151.3134 487.1466L169.419 487.1466L169.419 469.041L151.3134 469.041z" stroke="none" fill="#054BB2" fill-rule="nonzero" /></g></g></g></g><g clip-path="url(#94)"><g clip-path="url(#95)"><g clip-path="url(#96)"><g clip-path="url(#97)"><path id="218" transform="matrix(1 0 0 -1 0 842)" d="M151.3134 559.6802L169.419 559.6802L169.419 541.5746L151.3134 541.5746z" stroke="none" fill="#054BB2" fill-rule="nonzero" /></g></g></g></g><g clip-path="url(#98)"><g clip-path="url(#99)"><g clip-path="url(#100)"><g clip-path="url(#101)"><path id="219" transform="matrix(1 0 0 -1 0 842)" d="M151.3134 420.2377L169.419 420.2377L169.419 402.1321L151.3134 402.1321z" stroke="none" fill="#054BB2" fill-rule="nonzero" /></g></g></g></g><g clip-path="url(#102)"><g clip-path="url(#103)"><g clip-path="url(#104)"><g clip-path="url(#105)"><path id="220" transform="matrix(1 0 0 -1 0 842)" d="M151.5106 204.067L169.6162 204.067L169.6162 185.9614L151.5106 185.9614z" stroke="none" fill="#88A923" fill-rule="nonzero" /></g></g></g></g><g clip-path="url(#106)"><g clip-path="url(#107)"><g clip-path="url(#108)"><g clip-path="url(#109)"><path id="221" transform="matrix(1 0 0 -1 0 842)" d="M112.9578 134.6752L131.0634 134.6752L131.0634 116.5695L112.9578 116.5695z" stroke="none" fill="#88A923" fill-rule="nonzero" /></g></g></g></g><g clip-path="url(#110)"><g clip-path="url(#111)"><g clip-path="url(#112)"><g clip-path="url(#113)"><path id="222" transform="matrix(1 0 0 -1 0 842)" d="M151.3134 134.6752L169.419 134.6752L169.419 116.5695L151.3134 116.5695z" stroke="none" fill="#054BB2" fill-rule="nonzero" /></g></g></g></g><g clip-path="url(#114)"><g clip-path="url(#115)"><g clip-path="url(#116)"><g clip-path="url(#117)"><path id="223" transform="matrix(1 0 0 -1 0 842)" d="M324.2071 654.9872L482.4266 654.9872L482.4266 604.4202L324.2071 604.4202z" stroke="none" fill="#38B6FF" fill-rule="nonzero" /></g></g></g></g><g clip-path="url(#118)"></g><g clip-path="url(#119)"><g clip-path="url(#120)"><g clip-path="url(#121)"><g clip-path="url(#122)"><path id="243" transform="matrix(1 0 0 -1 0 842)" d="M92.86777 656.9762L249.009 656.9762L249.009 608.1702L92.86777 608.1702z" stroke="none" fill="#38B6FF" fill-rule="nonzero" /></g></g></g></g><g clip-path="url(#123)"></g><g clip-path="url(#124)"><g clip-path="url(#125)"><g clip-path="url(#126)"><g clip-path="url(#127)"><path id="258" transform="matrix(1 0 0 -1 0 842)" d="M262.1318 647.4567L297.6378 647.4567L297.6378 611.9507L262.1318 611.9507z" stroke="none" fill="#88A923" fill-rule="nonzero" /></g></g></g></g><g clip-path="url(#128)"><g clip-path="url(#129)"><g clip-path="url(#130)"><g clip-path="url(#131)"><path id="259" transform="matrix(1 0 0 -1 0 842)" d="M500.2421 647.4567L535.748 647.4567L535.748 611.9507L500.2421 611.9507z" stroke="none" fill="#054BB2" fill-rule="nonzero" /></g></g></g></g></g></g></svg>