<svg xmlns="http://www.w3.org/2000/svg" xmlns:xlink="http://www.w3.org/1999/xlink" id="body_1" preserveAspectRatio="xMinYMin meet" viewBox="0 0 793 1123"><defs><clipPath id="1"><path id="" clip-rule="evenodd" transform="matrix(1 0 0 1 0 0)" d="M0 842L0 -0.25L0 -0.25L595.5 -0.25L595.5 -0.25L595.5 842L595.5 842L0 842z" /></clipPath><clipPath id="2"><path id="" clip-rule="evenodd" transform="matrix(1 0 0 1 0 0)" d="M0 -0.249939L595.5 -0.249939L595.5 -0.249939L595.5 842.0001L595.5 842.0001L0 842.0001z" /></clipPath><clipPath id="3"><path id="" clip-rule="evenodd" transform="matrix(1 0 0 1 0 0)" d="M0 -0.249939L595.5 -0.249939L595.5 -0.249939L595.5 842.0001L595.5 842.0001L0 842.0001z" /></clipPath><clipPath id="4"><path id="" clip-rule="evenodd" transform="matrix(1 0 0 1 0 0)" d="M0 -0.249939L595.5 -0.249939L595.5 -0.249939L595.5 842.0001L595.5 842.0001L0 842.0001z" /></clipPath><clipPath id="5"><path id="" clip-rule="evenodd" transform="matrix(1 0 0 1 0 0)" d="M78.71999 30.71008L522.24 30.71008L522.24 30.71008L522.24 810.9501L522.24 810.9501L78.71999 810.9501z" /></clipPath><clipPath id="6"><path id="" clip-rule="evenodd" transform="matrix(1 0 0 1 0 0)" d="M79.51787 30.75183L522.0178 30.75183L522.0178 30.75183L522.0178 810.7518L522.0178 810.7518L79.51787 810.7518z" /></clipPath><clipPath id="7"><path id="" clip-rule="evenodd" transform="matrix(1 0 0 1 0 0)" d="M466.5931 25.7998L562.593 25.7998L562.593 25.7998L562.593 80.5498L562.593 80.5498L466.5931 80.5498z" /></clipPath><clipPath id="8"><path id="" clip-rule="evenodd" transform="matrix(1 0 0 1 0 0)" d="M249.0564 110.5798L595.5 110.5798L595.5 110.5798L595.5 294.3298L595.5 294.3298L249.0564 294.3298z" /></clipPath><clipPath id="9"><path id="" clip-rule="evenodd" transform="matrix(1 0 0 1 0 0)" d="M5.675037 256.0417L355.175 256.0417L355.175 256.0417L355.175 424.0417L355.175 424.0417L5.675037 424.0417z" /></clipPath><clipPath id="10"><path id="" clip-rule="evenodd" transform="matrix(1 0 0 1 0 0)" d="M259.531 403.7548L595.5 403.7548L595.5 403.7548L595.5 568.0048L595.5 568.0048L259.531 568.0048z" /></clipPath><clipPath id="11"><path id="" clip-rule="evenodd" transform="matrix(1 0 0 1 0 0)" d="M5.675037 539.791L380.675 539.791L380.675 539.791L380.675 719.041L380.675 719.041L5.675037 719.041z" /></clipPath><clipPath id="12"><path id="" clip-rule="evenodd" transform="matrix(1 0 0 1 0 0)" d="M0 -0.249939L595.5 -0.249939L595.5 -0.249939L595.5 842.0001L595.5 842.0001L0 842.0001z" /></clipPath><clipPath id="13"><path id="" clip-rule="evenodd" transform="matrix(1 0 0 1 0 0)" d="M0 -0.249939L595.5 -0.249939L595.5 -0.249939L595.5 842.0001L595.5 842.0001L0 842.0001z" /></clipPath><clipPath id="14"><path id="" clip-rule="evenodd" transform="matrix(1 0 0 1 0 0)" d="M71.93285 122.9337L207.302 122.9337L207.302 122.9337L207.302 257.2535L207.302 257.2535L71.93285 257.2535z" /></clipPath><clipPath id="15"><path id="" clip-rule="evenodd" transform="matrix(1 0 0 1 0 0)" d="M84.68285 122.9337L194.0618 122.9337C 201.1035 122.9337 206.8118 128.642 206.8118 135.6837L206.8118 135.6837L206.8118 244.5035C 206.8118 251.5451 201.1035 257.2535 194.0618 257.2535L194.0618 257.2535L84.68285 257.2535C 77.64121 257.2535 71.93285 251.5451 71.93285 244.5035L71.93285 244.5035L71.93285 135.6837C 71.93285 128.642 77.64121 122.9337 84.68285 122.9337z" /></clipPath><clipPath id="16"><path id="" clip-rule="evenodd" transform="matrix(1 0 0 1 0 0)" d="M71.93285 122.9337L206.7774 122.9337L206.7774 122.9337L206.7774 257.2535L206.7774 257.2535L71.93285 257.2535z" /></clipPath><clipPath id="17"><path id="" clip-rule="evenodd" transform="matrix(1 0 0 1 0 0)" d="M0 -0.249939L595.5 -0.249939L595.5 -0.249939L595.5 842.0001L595.5 842.0001L0 842.0001z" /></clipPath><clipPath id="18"><path id="" clip-rule="evenodd" transform="matrix(1 0 0 1 0 0)" d="M0 -0.249939L595.5 -0.249939L595.5 -0.249939L595.5 842.0001L595.5 842.0001L0 842.0001z" /></clipPath><clipPath id="19"><path id="" clip-rule="evenodd" transform="matrix(1 0 0 1 0 0)" d="M71.93285 122.9337L206.9328 122.9337L206.9328 122.9337L206.9328 257.1837L206.9328 257.1837L71.93285 257.1837z" /></clipPath><clipPath id="20"><path id="" clip-rule="evenodd" transform="matrix(1 0 0 1 0 0)" d="M71.93452 122.9337L208.3417 122.9337L208.3417 122.9337L208.3417 257.2422L208.3417 257.2422L71.93452 257.2422z" /></clipPath><clipPath id="21"><path id="" clip-rule="evenodd" transform="matrix(1 0 0 1 0 0)" d="M84.68345 122.9337L194.0533 122.9337C 201.0944 122.9337 206.8023 128.6415 206.8023 135.6826L206.8023 135.6826L206.8023 244.4933C 206.8023 251.5344 201.0944 257.2422 194.0533 257.2422L194.0533 257.2422L84.68345 257.2422C 77.64242 257.2422 71.93452 251.5344 71.93452 244.4933L71.93452 244.4933L71.93452 135.6826C 71.93452 128.6415 77.64242 122.9337 84.68345 122.9337z" /></clipPath><clipPath id="22"><path id="" clip-rule="evenodd" transform="matrix(1 0 0 1 0 0)" d="M0 -0.249939L595.5 -0.249939L595.5 -0.249939L595.5 842.0001L595.5 842.0001L0 842.0001z" /></clipPath><clipPath id="23"><path id="" clip-rule="evenodd" transform="matrix(1 0 0 1 0 0)" d="M0 -0.249939L595.5 -0.249939L595.5 -0.249939L595.5 842.0001L595.5 842.0001L0 842.0001z" /></clipPath><clipPath id="24"><path id="" clip-rule="evenodd" transform="matrix(1 0 0 1 0 0)" d="M0 -0.249939L595.5 -0.249939L595.5 -0.249939L595.5 842.0001L595.5 842.0001L0 842.0001z" /></clipPath><clipPath id="25"><path id="" clip-rule="evenodd" transform="matrix(1 0 0 1 0 0)" d="M280.2584 230.7493L281.5448 256.9677L281.5448 256.9677L202.8895 260.8271L202.8895 260.8271L201.603 234.6087L201.603 234.6087L280.2584 230.7493z" /></clipPath><clipPath id="26"><path id="" clip-rule="evenodd" transform="matrix(1 0 0 1 0 0)" d="M281.5477 257.0262L280.2612 230.8077L280.2612 230.8077L201.6059 234.6672L201.6059 234.6672L202.8923 260.8857L202.8923 260.8857L281.5477 257.0262z" /></clipPath><clipPath id="27"><path id="" clip-rule="evenodd" transform="matrix(1 0 0 1 0 0)" d="M281.5477 257.0262L280.2612 230.8077L280.2612 230.8077L201.6058 234.6672L201.6058 234.6672L202.8923 260.8857L202.8923 260.8857L281.5477 257.0262z" /></clipPath><clipPath id="28"><path id="" clip-rule="evenodd" transform="matrix(1 0 0 1 0 0)" d="M0 -0.249939L595.5 -0.249939L595.5 -0.249939L595.5 842.0001L595.5 842.0001L0 842.0001z" /></clipPath><clipPath id="29"><path id="" clip-rule="evenodd" transform="matrix(1 0 0 1 0 0)" d="M0 -0.249939L595.5 -0.249939L595.5 -0.249939L595.5 842.0001L595.5 842.0001L0 842.0001z" /></clipPath><clipPath id="30"><path id="" clip-rule="evenodd" transform="matrix(1 0 0 1 0 0)" d="M71.93285 415.0246L207.302 415.0246L207.302 415.0246L207.302 549.3444L207.302 549.3444L71.93285 549.3444z" /></clipPath><clipPath id="31"><path id="" clip-rule="evenodd" transform="matrix(1 0 0 1 0 0)" d="M84.68285 415.0246L194.0618 415.0246C 201.1035 415.0246 206.8118 420.7329 206.8118 427.7746L206.8118 427.7746L206.8118 536.5944C 206.8118 543.636 201.1035 549.3444 194.0618 549.3444L194.0618 549.3444L84.68285 549.3444C 77.64121 549.3444 71.93285 543.636 71.93285 536.5944L71.93285 536.5944L71.93285 427.7746C 71.93285 420.7329 77.64121 415.0246 84.68285 415.0246z" /></clipPath><clipPath id="32"><path id="" clip-rule="evenodd" transform="matrix(1 0 0 1 0 0)" d="M71.93285 415.0246L206.7774 415.0246L206.7774 415.0246L206.7774 549.3444L206.7774 549.3444L71.93285 549.3444z" /></clipPath><clipPath id="33"><path id="" clip-rule="evenodd" transform="matrix(1 0 0 1 0 0)" d="M0 -0.249939L595.5 -0.249939L595.5 -0.249939L595.5 842.0001L595.5 842.0001L0 842.0001z" /></clipPath><clipPath id="34"><path id="" clip-rule="evenodd" transform="matrix(1 0 0 1 0 0)" d="M0 -0.249939L595.5 -0.249939L595.5 -0.249939L595.5 842.0001L595.5 842.0001L0 842.0001z" /></clipPath><clipPath id="35"><path id="" clip-rule="evenodd" transform="matrix(1 0 0 1 0 0)" d="M71.93285 415.0246L206.9328 415.0246L206.9328 415.0246L206.9328 549.2746L206.9328 549.2746L71.93285 549.2746z" /></clipPath><clipPath id="36"><path id="" clip-rule="evenodd" transform="matrix(1 0 0 1 0 0)" d="M71.93452 415.0246L208.3417 415.0246L208.3417 415.0246L208.3417 549.3332L208.3417 549.3332L71.93452 549.3332z" /></clipPath><clipPath id="37"><path id="" clip-rule="evenodd" transform="matrix(1 0 0 1 0 0)" d="M84.68345 415.0246L194.0533 415.0246C 201.0944 415.0246 206.8023 420.7324 206.8023 427.7735L206.8023 427.7735L206.8023 536.5842C 206.8023 543.6252 201.0944 549.3332 194.0533 549.3332L194.0533 549.3332L84.68345 549.3332C 77.64242 549.3332 71.93452 543.6252 71.93452 536.5842L71.93452 536.5842L71.93452 427.7735C 71.93452 420.7324 77.64242 415.0246 84.68345 415.0246z" /></clipPath><clipPath id="38"><path id="" clip-rule="evenodd" transform="matrix(1 0 0 1 0 0)" d="M0 -0.249939L595.5 -0.249939L595.5 -0.249939L595.5 842.0001L595.5 842.0001L0 842.0001z" /></clipPath><clipPath id="39"><path id="" clip-rule="evenodd" transform="matrix(1 0 0 1 0 0)" d="M0 -0.249939L595.5 -0.249939L595.5 -0.249939L595.5 842.0001L595.5 842.0001L0 842.0001z" /></clipPath><clipPath id="40"><path id="" clip-rule="evenodd" transform="matrix(1 0 0 1 0 0)" d="M392.4728 279.6266L540.7847 279.6266L540.7847 279.6266L540.7847 404.5208L540.7847 404.5208L392.4728 404.5208z" /></clipPath><clipPath id="41"><path id="" clip-rule="evenodd" transform="matrix(1 0 0 1 0 0)" d="M405.2228 279.6266L527.9632 279.6266C 531.3447 279.6266 534.5878 280.9699 536.9788 283.361C 539.3699 285.7521 540.7132 288.9951 540.7132 292.3766L540.7132 292.3766L540.7132 391.7708C 540.7132 395.1523 539.3699 398.3954 536.9788 400.7864C 534.5878 403.1776 531.3447 404.5208 527.9632 404.5208L527.9632 404.5208L405.2228 404.5208C 401.8413 404.5208 398.5983 403.1776 396.2072 400.7864C 393.8161 398.3954 392.4728 395.1523 392.4728 391.7708L392.4728 391.7708L392.4728 292.3766C 392.4728 288.9951 393.8161 285.7521 396.2072 283.361C 398.5983 280.9699 401.8413 279.6266 405.2228 279.6266z" /></clipPath><clipPath id="42"><path id="" clip-rule="evenodd" transform="matrix(1 0 0 1 0 0)" d="M392.4728 279.6266L540.7847 279.6266L540.7847 279.6266L540.7847 404.5208L540.7847 404.5208L392.4728 404.5208z" /></clipPath><clipPath id="43"><path id="" clip-rule="evenodd" transform="matrix(1 0 0 1 0 0)" d="M0 -0.249939L595.5 -0.249939L595.5 -0.249939L595.5 842.0001L595.5 842.0001L0 842.0001z" /></clipPath><clipPath id="44"><path id="" clip-rule="evenodd" transform="matrix(1 0 0 1 0 0)" d="M0 -0.249939L595.5 -0.249939L595.5 -0.249939L595.5 842.0001L595.5 842.0001L0 842.0001z" /></clipPath><clipPath id="45"><path id="" clip-rule="evenodd" transform="matrix(1 0 0 1 0 0)" d="M392.4728 279.6266L540.9728 279.6266L540.9728 279.6266L540.9728 404.8766L540.9728 404.8766L392.4728 404.8766z" /></clipPath><clipPath id="46"><path id="" clip-rule="evenodd" transform="matrix(1 0 0 1 0 0)" d="M392.4728 279.6271L540.7748 279.6271L540.7748 279.6271L540.7748 404.5129L540.7748 404.5129L392.4728 404.5129z" /></clipPath><clipPath id="47"><path id="" clip-rule="evenodd" transform="matrix(1 0 0 1 0 0)" d="M405.222 279.6271L527.9542 279.6271C 531.3354 279.6271 534.5782 280.9702 536.9692 283.3612C 539.3601 285.7521 540.7033 288.9949 540.7033 292.3762L540.7033 292.3762L540.7033 391.7638C 540.7033 395.1451 539.3601 398.3878 536.9692 400.7788C 534.5782 403.1697 531.3354 404.5129 527.9542 404.5129L527.9542 404.5129L405.222 404.5129C 401.8407 404.5129 398.5979 403.1697 396.207 400.7788C 393.816 398.3878 392.4728 395.1451 392.4728 391.7638L392.4728 391.7638L392.4728 292.3762C 392.4728 288.9949 393.816 285.7521 396.207 283.3612C 398.5979 280.9702 401.8407 279.6271 405.222 279.6271z" /></clipPath><clipPath id="48"><path id="" clip-rule="evenodd" transform="matrix(1 0 0 1 0 0)" d="M0 -0.249939L595.5 -0.249939L595.5 -0.249939L595.5 842.0001L595.5 842.0001L0 842.0001z" /></clipPath><clipPath id="49"><path id="" clip-rule="evenodd" transform="matrix(1 0 0 1 0 0)" d="M0 -0.249939L595.5 -0.249939L595.5 -0.249939L595.5 842.0001L595.5 842.0001L0 842.0001z" /></clipPath><clipPath id="50"><path id="" clip-rule="evenodd" transform="matrix(1 0 0 1 0 0)" d="M415.4806 361.4958L417.0611 393.707L417.0611 393.707L319.6783 398.4854L319.6783 398.4854L318.0977 366.2741L318.0977 366.2741L415.4806 361.4958z" /></clipPath><clipPath id="51"><path id="" clip-rule="evenodd" transform="matrix(1 0 0 1 0 0)" d="M320.0532 398.7134L318.4727 366.5021L318.4727 366.5021L415.8555 361.7238L415.8555 361.7238L417.436 393.935L417.436 393.935L320.0532 398.7134z" /></clipPath><clipPath id="52"><path id="" clip-rule="evenodd" transform="matrix(1 0 0 1 0 0)" d="M320.0532 398.7134L318.4727 366.5021L318.4727 366.5021L415.8555 361.7238L415.8555 361.7238L417.436 393.935L417.436 393.935L320.0532 398.7134z" /></clipPath><clipPath id="53"><path id="" clip-rule="evenodd" transform="matrix(1 0 0 1 0 0)" d="M0 -0.249939L595.5 -0.249939L595.5 -0.249939L595.5 842.0001L595.5 842.0001L0 842.0001z" /></clipPath><clipPath id="54"><path id="" clip-rule="evenodd" transform="matrix(1 0 0 1 0 0)" d="M0 -0.249939L595.5 -0.249939L595.5 -0.249939L595.5 842.0001L595.5 842.0001L0 842.0001z" /></clipPath><clipPath id="55"><path id="" clip-rule="evenodd" transform="matrix(1 0 0 1 0 0)" d="M428.4782 646.2874L430.0587 678.4987L430.0587 678.4987L332.6759 683.277L332.6759 683.277L331.0953 651.0658L331.0953 651.0658L428.4782 646.2874z" /></clipPath><clipPath id="56"><path id="" clip-rule="evenodd" transform="matrix(1 0 0 1 0 0)" d="M333.0508 683.5051L331.4702 651.2938L331.4702 651.2938L428.8531 646.5155L428.8531 646.5155L430.4336 678.7267L430.4336 678.7267L333.0508 683.5051z" /></clipPath><clipPath id="57"><path id="" clip-rule="evenodd" transform="matrix(1 0 0 1 0 0)" d="M333.0508 683.5051L331.4702 651.2938L331.4702 651.2938L428.8531 646.5155L428.8531 646.5155L430.4336 678.7267L430.4336 678.7267L333.0508 683.5051z" /></clipPath><clipPath id="58"><path id="" clip-rule="evenodd" transform="matrix(1 0 0 1 0 0)" d="M0 -0.249939L595.5 -0.249939L595.5 -0.249939L595.5 842.0001L595.5 842.0001L0 842.0001z" /></clipPath><clipPath id="59"><path id="" clip-rule="evenodd" transform="matrix(1 0 0 1 0 0)" d="M0 -0.249939L595.5 -0.249939L595.5 -0.249939L595.5 842.0001L595.5 842.0001L0 842.0001z" /></clipPath><clipPath id="60"><path id="" clip-rule="evenodd" transform="matrix(1 0 0 1 0 0)" d="M282.9587 512.1227L284.5392 544.334L284.5392 544.334L187.1564 549.1123L187.1564 549.1123L185.5758 516.9011L185.5758 516.9011L282.9587 512.1227z" /></clipPath><clipPath id="61"><path id="" clip-rule="evenodd" transform="matrix(1 0 0 1 0 0)" d="M284.5513 544.5798L282.9707 512.3685L282.9707 512.3685L185.5879 517.1469L185.5879 517.1469L187.1684 549.3582L187.1684 549.3582L284.5513 544.5798z" /></clipPath><clipPath id="62"><path id="" clip-rule="evenodd" transform="matrix(1 0 0 1 0 0)" d="M284.5513 544.5798L282.9707 512.3685L282.9707 512.3685L185.5879 517.1469L185.5879 517.1469L187.1684 549.3582L187.1684 549.3582L284.5513 544.5798z" /></clipPath><clipPath id="63"><path id="" clip-rule="evenodd" transform="matrix(1 0 0 1 0 0)" d="M428.1285 568.0048L530.1285 568.0048L530.1285 568.0048L530.1285 674.5048L530.1285 674.5048L428.1285 674.5048z" /></clipPath><clipPath id="64"><path id="" clip-rule="evenodd" transform="matrix(1 0 0 1 0 0)" d="M0 -0.249939L595.5 -0.249939L595.5 -0.249939L595.5 842.0001L595.5 842.0001L0 842.0001z" /></clipPath><clipPath id="65"><path id="" clip-rule="evenodd" transform="matrix(1 0 0 1 0 0)" d="M0 -0.249939L595.5 -0.249939L595.5 -0.249939L595.5 842.0001L595.5 842.0001L0 842.0001z" /></clipPath><clipPath id="66"><path id="" clip-rule="evenodd" transform="matrix(1 0 0 1 0 0)" d="M0 -0.249939L595.5 -0.249939L595.5 -0.249939L595.5 842.0001L595.5 842.0001L0 842.0001z" /></clipPath><clipPath id="67"><path id="" clip-rule="evenodd" transform="matrix(1 0 0 1 0 0)" d="M364.8714 22.17133L397.1214 22.17133L397.1214 22.17133L397.1214 54.42133L397.1214 54.42133L364.8714 54.42133z" /></clipPath><clipPath id="68"><path id="" clip-rule="evenodd" transform="matrix(1 0 0 1 0 0)" d="M364.8714 38.06555C 364.8714 42.28101 366.546 46.32379 369.5268 49.3045C 372.5075 52.28528 376.5503 53.95984 380.7657 53.95984C 384.9811 53.95984 389.0239 52.28528 392.0046 49.3045C 394.9854 46.32379 396.6599 42.28101 396.6599 38.06555C 396.6599 33.85016 394.9854 29.80737 392.0046 26.82666C 389.0239 23.84589 384.9811 22.17133 380.7657 22.17133C 376.5503 22.17133 372.5075 23.84589 369.5268 26.82666C 366.546 29.80737 364.8714 33.85016 364.8714 38.06555z" /></clipPath><clipPath id="69"><path id="" clip-rule="evenodd" transform="matrix(1 0 0 1 0 0)" d="M365.6214 22.92133L396.3714 22.92133L396.3714 22.92133L396.3714 53.67133L396.3714 53.67133L365.6214 53.67133z" /></clipPath><clipPath id="70"><path id="" clip-rule="evenodd" transform="matrix(1 0 0 1 0 0)" d="M380.7657 23.07129C 384.7424 23.07129 388.5562 24.65106 391.3682 27.46301C 394.1802 30.27502 395.7599 34.08887 395.7599 38.06555C 395.7599 42.0423 394.1802 45.85614 391.3682 48.66809C 388.5562 51.4801 384.7424 53.05981 380.7657 53.05981C 376.7889 53.05981 372.9751 51.4801 370.1631 48.66809C 367.3512 45.85614 365.7714 42.0423 365.7714 38.06555C 365.7714 34.08887 367.3512 30.27502 370.1631 27.46301C 372.9751 24.65106 376.7889 23.07129 380.7657 23.07129z" /></clipPath><clipPath id="71"><path id="" clip-rule="evenodd" transform="matrix(1 0 0 1 0 0)" d="M365.6214 22.92133L396.3714 22.92133L396.3714 22.92133L396.3714 53.67133L396.3714 53.67133L365.6214 53.67133z" /></clipPath><clipPath id="72"><path id="" clip-rule="evenodd" transform="matrix(1 0 0 1 0 0)" d="M364.8647 22.16461L396.3647 22.16461L396.3647 22.16461L396.3647 53.66461L396.3647 53.66461L364.8647 53.66461z" /></clipPath><clipPath id="73"><path id="" clip-rule="evenodd" transform="matrix(1 0 0 1 0 0)" d="M0 -0.249939L595.5 -0.249939L595.5 -0.249939L595.5 842.0001L595.5 842.0001L0 842.0001z" /></clipPath><clipPath id="74"><path id="" clip-rule="evenodd" transform="matrix(1 0 0 1 0 0)" d="M0 -0.249939L595.5 -0.249939L595.5 -0.249939L595.5 842.0001L595.5 842.0001L0 842.0001z" /></clipPath><clipPath id="75"><path id="" clip-rule="evenodd" transform="matrix(1 0 0 1 0 0)" d="M364.8714 22.17133L397.1214 22.17133L397.1214 22.17133L397.1214 54.42133L397.1214 54.42133L364.8714 54.42133z" /></clipPath><clipPath id="76"><path id="" clip-rule="evenodd" transform="matrix(1 0 0 1 0 0)" d="M364.8714 38.06555C 364.8714 42.28101 366.546 46.32379 369.5268 49.3045C 372.5075 52.28528 376.5503 53.95984 380.7657 53.95984C 384.9811 53.95984 389.0239 52.28528 392.0046 49.3045C 394.9854 46.32379 396.6599 42.28101 396.6599 38.06555C 396.6599 33.85016 394.9854 29.80737 392.0046 26.82666C 389.0239 23.84589 384.9811 22.17133 380.7657 22.17133C 376.5503 22.17133 372.5075 23.84589 369.5268 26.82666C 366.546 29.80737 364.8714 33.85016 364.8714 38.06555z" /></clipPath><clipPath id="77"><path id="" clip-rule="evenodd" transform="matrix(1 0 0 1 0 0)" d="M364.8714 22.17133L396.3714 22.17133L396.3714 22.17133L396.3714 53.67133L396.3714 53.67133L364.8714 53.67133z" /></clipPath><clipPath id="78"><path id="" clip-rule="evenodd" transform="matrix(1 0 0 1 0 0)" d="M364.8714 22.17133L397.114 22.17133L397.114 22.17133L397.114 54.41394L397.114 54.41394L364.8714 54.41394z" /></clipPath><clipPath id="79"><path id="" clip-rule="evenodd" transform="matrix(1 0 0 1 0 0)" d="M364.8714 38.06195C 364.8714 42.27637 366.5456 46.31824 369.5257 49.29828C 372.5057 52.27838 376.5476 53.95258 380.7621 53.95258C 384.9765 53.95258 389.0183 52.27838 391.9984 49.29828C 394.9785 46.31824 396.6527 42.27637 396.6527 38.06195C 396.6527 33.84747 394.9785 29.80566 391.9984 26.82556C 389.0183 23.84552 384.9765 22.17133 380.7621 22.17133C 376.5476 22.17133 372.5057 23.84552 369.5257 26.82556C 366.5456 29.80566 364.8714 33.84747 364.8714 38.06195z" /></clipPath><clipPath id="80"><path id="" clip-rule="evenodd" transform="matrix(1 0 0 1 0 0)" d="M0 -0.249939L595.5 -0.249939L595.5 -0.249939L595.5 842.0001L595.5 842.0001L0 842.0001z" /></clipPath><clipPath id="81"><path id="" clip-rule="evenodd" transform="matrix(1 0 0 1 0 0)" d="M0 -0.249939L595.5 -0.249939L595.5 -0.249939L595.5 842.0001L595.5 842.0001L0 842.0001z" /></clipPath><clipPath id="82"><path id="" clip-rule="evenodd" transform="matrix(1 0 0 1 0 0)" d="M0 -0.249939L595.5 -0.249939L595.5 -0.249939L595.5 842.0001L595.5 842.0001L0 842.0001z" /></clipPath><clipPath id="83"><path id="" clip-rule="evenodd" transform="matrix(1 0 0 1 0 0)" d="M270.9481 157.7971L300.9481 157.7971L300.9481 157.7971L300.9481 182.5471L300.9481 182.5471L270.9481 182.5471z" /></clipPath><clipPath id="84"><path id="" clip-rule="evenodd" transform="matrix(1 0 0 1 0 0)" d="M270.9481 170.1638C 270.9481 176.9937 276.4848 182.5304 283.3148 182.5304L283.3148 182.5304L288.3619 182.5304C 295.1919 182.5304 300.7286 176.9937 300.7286 170.1638C 300.7286 163.3339 295.1919 157.7971 288.3619 157.7971L288.3619 157.7971L283.3148 157.7971C 276.4848 157.7971 270.9481 163.3339 270.9481 170.1638z" /></clipPath><clipPath id="85"><path id="" clip-rule="evenodd" transform="matrix(1 0 0 1 0 0)" d="M271.6981 158.5471L300.1981 158.5471L300.1981 158.5471L300.1981 181.7971L300.1981 181.7971L271.6981 181.7971z" /></clipPath><clipPath id="86"><path id="" clip-rule="evenodd" transform="matrix(1 0 0 1 0 0)" d="M283.3148 158.6971L288.3619 158.6971C 294.6948 158.6971 299.8286 163.8309 299.8286 170.1638C 299.8286 176.4966 294.6948 181.6304 288.3619 181.6304L288.3619 181.6304L283.3148 181.6304C 276.9819 181.6304 271.8481 176.4966 271.8481 170.1638C 271.8481 163.8309 276.9819 158.6971 283.3148 158.6971z" /></clipPath><clipPath id="87"><path id="" clip-rule="evenodd" transform="matrix(1 0 0 1 0 0)" d="M271.6981 158.2736L300.1981 158.2736L300.1981 158.2736L300.1981 182.2736L300.1981 182.2736L271.6981 182.2736z" /></clipPath><clipPath id="88"><path id="" clip-rule="evenodd" transform="matrix(1 0 0 1 0 0)" d="M270.9537 155.2958L300.9537 155.2958L300.9537 155.2958L300.9537 185.2958L300.9537 185.2958L270.9537 185.2958z" /></clipPath><clipPath id="89"><path id="" clip-rule="evenodd" transform="matrix(1 0 0 1 0 0)" d="M0 -0.249939L595.5 -0.249939L595.5 -0.249939L595.5 842.0001L595.5 842.0001L0 842.0001z" /></clipPath><clipPath id="90"><path id="" clip-rule="evenodd" transform="matrix(1 0 0 1 0 0)" d="M0 -0.249939L595.5 -0.249939L595.5 -0.249939L595.5 842.0001L595.5 842.0001L0 842.0001z" /></clipPath><clipPath id="91"><path id="" clip-rule="evenodd" transform="matrix(1 0 0 1 0 0)" d="M270.9481 157.7971L300.9481 157.7971L300.9481 157.7971L300.9481 182.5471L300.9481 182.5471L270.9481 182.5471z" /></clipPath><clipPath id="92"><path id="" clip-rule="evenodd" transform="matrix(1 0 0 1 0 0)" d="M270.9481 170.1638C 270.9481 176.9937 276.4848 182.5304 283.3148 182.5304L283.3148 182.5304L288.3619 182.5304C 295.1919 182.5304 300.7286 176.9937 300.7286 170.1638C 300.7286 163.3339 295.1919 157.7971 288.3619 157.7971L288.3619 157.7971L283.3148 157.7971C 276.4848 157.7971 270.9481 163.3339 270.9481 170.1638z" /></clipPath><clipPath id="93"><path id="" clip-rule="evenodd" transform="matrix(1 0 0 1 0 0)" d="M270.9481 157.7971L300.9481 157.7971L300.9481 157.7971L300.9481 182.5471L300.9481 182.5471L270.9481 182.5471z" /></clipPath><clipPath id="94"><path id="" clip-rule="evenodd" transform="matrix(1 0 0 1 0 0)" d="M270.9481 157.7971L300.9449 157.7971L300.9449 157.7971L300.9449 182.5404L300.9449 182.5404L270.9481 182.5404z" /></clipPath><clipPath id="95"><path id="" clip-rule="evenodd" transform="matrix(1 0 0 1 0 0)" d="M270.9481 170.1604C 270.9481 176.9885 276.4843 182.5237 283.3134 182.5237L283.3134 182.5237L288.3601 182.5237C 295.1893 182.5237 300.7254 176.9885 300.7254 170.1604C 300.7254 163.3324 295.1893 157.7971 288.3601 157.7971L288.3601 157.7971L283.3134 157.7971C 276.4843 157.7971 270.9481 163.3324 270.9481 170.1604z" /></clipPath><clipPath id="96"><path id="" clip-rule="evenodd" transform="matrix(1 0 0 1 0 0)" d="M0 -0.249939L595.5 -0.249939L595.5 -0.249939L595.5 842.0001L595.5 842.0001L0 842.0001z" /></clipPath><clipPath id="97"><path id="" clip-rule="evenodd" transform="matrix(1 0 0 1 0 0)" d="M0 -0.249939L595.5 -0.249939L595.5 -0.249939L595.5 842.0001L595.5 842.0001L0 842.0001z" /></clipPath><clipPath id="98"><path id="" clip-rule="evenodd" transform="matrix(1 0 0 1 0 0)" d="M0 -0.249939L595.5 -0.249939L595.5 -0.249939L595.5 842.0001L595.5 842.0001L0 842.0001z" /></clipPath><clipPath id="99"><path id="" clip-rule="evenodd" transform="matrix(1 0 0 1 0 0)" d="M36.13588 578.5132L66.13588 578.5132L66.13588 578.5132L66.13588 603.2631L66.13588 603.2631L36.13588 603.2631z" /></clipPath><clipPath id="100"><path id="" clip-rule="evenodd" transform="matrix(1 0 0 1 0 0)" d="M36.13588 590.8798C 36.13588 597.7097 41.67261 603.2465 48.50252 603.2465L48.50252 603.2465L53.54971 603.2465C 60.37962 603.2465 65.91636 597.7097 65.91636 590.8798C 65.91636 584.0499 60.37962 578.5132 53.54971 578.5132L53.54971 578.5132L48.50252 578.5132C 41.67261 578.5132 36.13588 584.0499 36.13588 590.8798z" /></clipPath><clipPath id="101"><path id="" clip-rule="evenodd" transform="matrix(1 0 0 1 0 0)" d="M36.88588 579.2632L65.38588 579.2632L65.38588 579.2632L65.38588 602.5131L65.38588 602.5131L36.88588 602.5131z" /></clipPath><clipPath id="102"><path id="" clip-rule="evenodd" transform="matrix(1 0 0 1 0 0)" d="M48.50252 579.4131L53.54971 579.4131C 59.88256 579.4131 65.01636 584.5469 65.01636 590.8798C 65.01636 597.2126 59.88256 602.3464 53.54971 602.3464L53.54971 602.3464L48.50252 602.3464C 42.16967 602.3464 37.03587 597.2126 37.03587 590.8798C 37.03587 584.5469 42.16967 579.4131 48.50252 579.4131z" /></clipPath><clipPath id="103"><path id="" clip-rule="evenodd" transform="matrix(1 0 0 1 0 0)" d="M36.88588 578.9895L65.38588 578.9895L65.38588 578.9895L65.38588 602.9895L65.38588 602.9895L36.88588 602.9895z" /></clipPath><clipPath id="104"><path id="" clip-rule="evenodd" transform="matrix(1 0 0 1 0 0)" d="M36.14144 576.0118L66.14144 576.0118L66.14144 576.0118L66.14144 606.0118L66.14144 606.0118L36.14144 606.0118z" /></clipPath><clipPath id="105"><path id="" clip-rule="evenodd" transform="matrix(1 0 0 1 0 0)" d="M0 -0.249939L595.5 -0.249939L595.5 -0.249939L595.5 842.0001L595.5 842.0001L0 842.0001z" /></clipPath><clipPath id="106"><path id="" clip-rule="evenodd" transform="matrix(1 0 0 1 0 0)" d="M0 -0.249939L595.5 -0.249939L595.5 -0.249939L595.5 842.0001L595.5 842.0001L0 842.0001z" /></clipPath><clipPath id="107"><path id="" clip-rule="evenodd" transform="matrix(1 0 0 1 0 0)" d="M36.13588 578.5132L66.13588 578.5132L66.13588 578.5132L66.13588 603.2631L66.13588 603.2631L36.13588 603.2631z" /></clipPath><clipPath id="108"><path id="" clip-rule="evenodd" transform="matrix(1 0 0 1 0 0)" d="M36.13588 590.8798C 36.13588 597.7097 41.67261 603.2465 48.50252 603.2465L48.50252 603.2465L53.54971 603.2465C 60.37962 603.2465 65.91636 597.7097 65.91636 590.8798C 65.91636 584.0499 60.37962 578.5132 53.54971 578.5132L53.54971 578.5132L48.50252 578.5132C 41.67261 578.5132 36.13588 584.0499 36.13588 590.8798z" /></clipPath><clipPath id="109"><path id="" clip-rule="evenodd" transform="matrix(1 0 0 1 0 0)" d="M36.13588 578.5132L66.13588 578.5132L66.13588 578.5132L66.13588 603.2631L66.13588 603.2631L36.13588 603.2631z" /></clipPath><clipPath id="110"><path id="" clip-rule="evenodd" transform="matrix(1 0 0 1 0 0)" d="M36.13588 578.5132L66.13271 578.5132L66.13271 578.5132L66.13271 603.2564L66.13271 603.2564L36.13588 603.2564z" /></clipPath><clipPath id="111"><path id="" clip-rule="evenodd" transform="matrix(1 0 0 1 0 0)" d="M36.13588 590.8765C 36.13588 597.7045 41.67203 603.2397 48.50122 603.2397L48.50122 603.2397L53.54787 603.2397C 60.37706 603.2397 65.91322 597.7045 65.91322 590.8765C 65.91322 584.0484 60.37706 578.5132 53.54787 578.5132L53.54787 578.5132L48.50122 578.5132C 41.67203 578.5132 36.13588 584.0484 36.13588 590.8765z" /></clipPath><clipPath id="112"><path id="" clip-rule="evenodd" transform="matrix(1 0 0 1 0 0)" d="M0 -0.249939L595.5 -0.249939L595.5 -0.249939L595.5 842.0001L595.5 842.0001L0 842.0001z" /></clipPath><clipPath id="113"><path id="" clip-rule="evenodd" transform="matrix(1 0 0 1 0 0)" d="M0 -0.249939L595.5 -0.249939L595.5 -0.249939L595.5 842.0001L595.5 842.0001L0 842.0001z" /></clipPath><clipPath id="114"><path id="" clip-rule="evenodd" transform="matrix(1 0 0 1 0 0)" d="M0 -0.249939L595.5 -0.249939L595.5 -0.249939L595.5 842.0001L595.5 842.0001L0 842.0001z" /></clipPath><clipPath id="115"><path id="" clip-rule="evenodd" transform="matrix(1 0 0 1 0 0)" d="M45.4005 283.0588L75.4005 283.0588L75.4005 283.0588L75.4005 307.8088L75.4005 307.8088L45.4005 307.8088z" /></clipPath><clipPath id="116"><path id="" clip-rule="evenodd" transform="matrix(1 0 0 1 0 0)" d="M45.4005 295.4254C 45.4005 302.2554 50.93723 307.7921 57.76714 307.7921L57.76714 307.7921L62.81434 307.7921C 69.64424 307.7921 75.18098 302.2554 75.18098 295.4254C 75.18098 288.5955 69.64424 283.0588 62.81434 283.0588L62.81434 283.0588L57.76714 283.0588C 50.93723 283.0588 45.4005 288.5955 45.4005 295.4254z" /></clipPath><clipPath id="117"><path id="" clip-rule="evenodd" transform="matrix(1 0 0 1 0 0)" d="M46.1505 283.8088L74.65051 283.8088L74.65051 283.8088L74.65051 307.0588L74.65051 307.0588L46.1505 307.0588z" /></clipPath><clipPath id="118"><path id="" clip-rule="evenodd" transform="matrix(1 0 0 1 0 0)" d="M57.76714 283.9588L62.81434 283.9588C 69.14719 283.9588 74.28098 289.0926 74.28098 295.4254C 74.28098 301.7583 69.14719 306.8921 62.81434 306.8921L62.81434 306.8921L57.76714 306.8921C 51.43429 306.8921 46.3005 301.7583 46.3005 295.4254C 46.3005 289.0926 51.43429 283.9588 57.76714 283.9588z" /></clipPath><clipPath id="119"><path id="" clip-rule="evenodd" transform="matrix(1 0 0 1 0 0)" d="M46.1505 283.5352L74.65051 283.5352L74.65051 283.5352L74.65051 307.5352L74.65051 307.5352L46.1505 307.5352z" /></clipPath><clipPath id="120"><path id="" clip-rule="evenodd" transform="matrix(1 0 0 1 0 0)" d="M45.40606 280.5575L75.40607 280.5575L75.40607 280.5575L75.40607 310.5575L75.40607 310.5575L45.40606 310.5575z" /></clipPath><clipPath id="121"><path id="" clip-rule="evenodd" transform="matrix(1 0 0 1 0 0)" d="M0 -0.249939L595.5 -0.249939L595.5 -0.249939L595.5 842.0001L595.5 842.0001L0 842.0001z" /></clipPath><clipPath id="122"><path id="" clip-rule="evenodd" transform="matrix(1 0 0 1 0 0)" d="M0 -0.249939L595.5 -0.249939L595.5 -0.249939L595.5 842.0001L595.5 842.0001L0 842.0001z" /></clipPath><clipPath id="123"><path id="" clip-rule="evenodd" transform="matrix(1 0 0 1 0 0)" d="M45.4005 283.0588L75.4005 283.0588L75.4005 283.0588L75.4005 307.8088L75.4005 307.8088L45.4005 307.8088z" /></clipPath><clipPath id="124"><path id="" clip-rule="evenodd" transform="matrix(1 0 0 1 0 0)" d="M45.4005 295.4254C 45.4005 302.2554 50.93723 307.7921 57.76714 307.7921L57.76714 307.7921L62.81434 307.7921C 69.64424 307.7921 75.18098 302.2554 75.18098 295.4254C 75.18098 288.5955 69.64424 283.0588 62.81434 283.0588L62.81434 283.0588L57.76714 283.0588C 50.93723 283.0588 45.4005 288.5955 45.4005 295.4254z" /></clipPath><clipPath id="125"><path id="" clip-rule="evenodd" transform="matrix(1 0 0 1 0 0)" d="M45.4005 283.0588L75.4005 283.0588L75.4005 283.0588L75.4005 307.8088L75.4005 307.8088L45.4005 307.8088z" /></clipPath><clipPath id="126"><path id="" clip-rule="evenodd" transform="matrix(1 0 0 1 0 0)" d="M45.4005 283.0588L75.39734 283.0588L75.39734 283.0588L75.39734 307.8021L75.39734 307.8021L45.4005 307.8021z" /></clipPath><clipPath id="127"><path id="" clip-rule="evenodd" transform="matrix(1 0 0 1 0 0)" d="M45.4005 295.4221C 45.4005 302.2501 50.93665 307.7854 57.76584 307.7854L57.76584 307.7854L62.8125 307.7854C 69.64169 307.7854 75.17784 302.2501 75.17784 295.4221C 75.17784 288.594 69.64169 283.0588 62.8125 283.0588L62.8125 283.0588L57.76584 283.0588C 50.93665 283.0588 45.4005 288.594 45.4005 295.4221z" /></clipPath><clipPath id="128"><path id="" clip-rule="evenodd" transform="matrix(1 0 0 1 0 0)" d="M0 -0.249939L595.5 -0.249939L595.5 -0.249939L595.5 842.0001L595.5 842.0001L0 842.0001z" /></clipPath><clipPath id="129"><path id="" clip-rule="evenodd" transform="matrix(1 0 0 1 0 0)" d="M0 -0.249939L595.5 -0.249939L595.5 -0.249939L595.5 842.0001L595.5 842.0001L0 842.0001z" /></clipPath><clipPath id="130"><path id="" clip-rule="evenodd" transform="matrix(1 0 0 1 0 0)" d="M0 -0.249939L595.5 -0.249939L595.5 -0.249939L595.5 842.0001L595.5 842.0001L0 842.0001z" /></clipPath><clipPath id="131"><path id="" clip-rule="evenodd" transform="matrix(1 0 0 1 0 0)" d="M285.8383 427.9897L315.8383 427.9897L315.8383 427.9897L315.8383 452.7397L315.8383 452.7397L285.8383 452.7397z" /></clipPath><clipPath id="132"><path id="" clip-rule="evenodd" transform="matrix(1 0 0 1 0 0)" d="M285.8383 440.3564C 285.8383 447.1863 291.3751 452.7231 298.205 452.7231L298.205 452.7231L303.2522 452.7231C 310.0821 452.7231 315.6188 447.1863 315.6188 440.3564C 315.6188 433.5265 310.0821 427.9897 303.2522 427.9897L303.2522 427.9897L298.205 427.9897C 291.3751 427.9897 285.8383 433.5265 285.8383 440.3564z" /></clipPath><clipPath id="133"><path id="" clip-rule="evenodd" transform="matrix(1 0 0 1 0 0)" d="M286.5883 428.7397L315.0883 428.7397L315.0883 428.7397L315.0883 451.9897L315.0883 451.9897L286.5883 451.9897z" /></clipPath><clipPath id="134"><path id="" clip-rule="evenodd" transform="matrix(1 0 0 1 0 0)" d="M298.205 428.8897L303.2522 428.8897C 309.5851 428.8897 314.7188 434.0235 314.7188 440.3564C 314.7188 446.6892 309.5851 451.823 303.2522 451.823L303.2522 451.823L298.205 451.823C 291.8721 451.823 286.7383 446.6892 286.7383 440.3564C 286.7383 434.0235 291.8721 428.8897 298.205 428.8897z" /></clipPath><clipPath id="135"><path id="" clip-rule="evenodd" transform="matrix(1 0 0 1 0 0)" d="M286.5883 428.4661L315.0883 428.4661L315.0883 428.4661L315.0883 452.4661L315.0883 452.4661L286.5883 452.4661z" /></clipPath><clipPath id="136"><path id="" clip-rule="evenodd" transform="matrix(1 0 0 1 0 0)" d="M285.8439 425.4884L315.8439 425.4884L315.8439 425.4884L315.8439 455.4884L315.8439 455.4884L285.8439 455.4884z" /></clipPath><clipPath id="137"><path id="" clip-rule="evenodd" transform="matrix(1 0 0 1 0 0)" d="M0 -0.249939L595.5 -0.249939L595.5 -0.249939L595.5 842.0001L595.5 842.0001L0 842.0001z" /></clipPath><clipPath id="138"><path id="" clip-rule="evenodd" transform="matrix(1 0 0 1 0 0)" d="M0 -0.249939L595.5 -0.249939L595.5 -0.249939L595.5 842.0001L595.5 842.0001L0 842.0001z" /></clipPath><clipPath id="139"><path id="" clip-rule="evenodd" transform="matrix(1 0 0 1 0 0)" d="M285.8383 427.9897L315.8383 427.9897L315.8383 427.9897L315.8383 452.7397L315.8383 452.7397L285.8383 452.7397z" /></clipPath><clipPath id="140"><path id="" clip-rule="evenodd" transform="matrix(1 0 0 1 0 0)" d="M285.8383 440.3564C 285.8383 447.1863 291.3751 452.7231 298.205 452.7231L298.205 452.7231L303.2522 452.7231C 310.0821 452.7231 315.6188 447.1863 315.6188 440.3564C 315.6188 433.5265 310.0821 427.9897 303.2522 427.9897L303.2522 427.9897L298.205 427.9897C 291.3751 427.9897 285.8383 433.5265 285.8383 440.3564z" /></clipPath><clipPath id="141"><path id="" clip-rule="evenodd" transform="matrix(1 0 0 1 0 0)" d="M285.8383 427.9897L315.8383 427.9897L315.8383 427.9897L315.8383 452.7397L315.8383 452.7397L285.8383 452.7397z" /></clipPath><clipPath id="142"><path id="" clip-rule="evenodd" transform="matrix(1 0 0 1 0 0)" d="M285.8383 427.9897L315.8352 427.9897L315.8352 427.9897L315.8352 452.733L315.8352 452.733L285.8383 452.733z" /></clipPath><clipPath id="143"><path id="" clip-rule="evenodd" transform="matrix(1 0 0 1 0 0)" d="M285.8383 440.353C 285.8383 447.1811 291.3745 452.7163 298.2037 452.7163L298.2037 452.7163L303.2504 452.7163C 310.0796 452.7163 315.6157 447.1811 315.6157 440.353C 315.6157 433.525 310.0796 427.9897 303.2504 427.9897L303.2504 427.9897L298.2037 427.9897C 291.3745 427.9897 285.8383 433.525 285.8383 440.353z" /></clipPath><clipPath id="144"><path id="" clip-rule="evenodd" transform="matrix(1 0 0 1 0 0)" d="M0 -0.249939L595.5 -0.249939L595.5 -0.249939L595.5 842.0001L595.5 842.0001L0 842.0001z" /></clipPath></defs><g transform="matrix(1.333333 0 0 1.333333 0 0)"><g clip-path="url(#1)"><g clip-path="url(#2)"><path id="1" transform="matrix(1 0 0 -1 0 842)" d="M0 842.2499L595.4999 842.2499L595.4999 -6.103516E-05L0 -6.103516E-05z" stroke="none" fill="#FFFFFF" fill-rule="nonzero" /></g><g clip-path="url(#3)"><path id="2" transform="matrix(1 0 0 -1 0 842)" d="M0 842.2499L595.4999 842.2499L595.4999 -6.103516E-05L0 -6.103516E-05z" stroke="none" fill="#FFFFFF" fill-rule="nonzero" /></g><g clip-path="url(#4)"><g><g clip-path="url(#5)"><g clip-path="url(#6)"><g transform="matrix(0 0.5128205 -0.5127462 0 522.0178 30.75189)"><g transform="matrix(1 0 0 1 0 0)"><image x="0" y="0" xlink:href="img_01.png" width="1521" height="863" /></g></g></g></g></g></g><g clip-path="url(#7)"><g transform="matrix(0.6315789 0 0 0.6293103 466.593 25.79987)"><g transform="matrix(1 0 0 1 0 0)"><image x="0" y="0" xlink:href="img_02.png" width="152" height="87" /></g></g></g><g clip-path="url(#8)"><g transform="matrix(0.5414062 0 0 0.5404412 249.0564 110.5798)"><g transform="matrix(1 0 0 1 0 0)"><image x="0" y="0" xlink:href="img_03.png" width="640" height="340" /></g></g></g><g clip-path="url(#9)"><g transform="matrix(0.5460937 0 0 0.5448529 5.675037 247.4344)"><g transform="matrix(1 0 0 1 0 0)"><image x="0" y="0" xlink:href="img_03.png" width="640" height="340" /></g></g></g><g clip-path="url(#10)"><g transform="matrix(0.5378906 0 0 0.5360294 259.531 394.6077)"><g transform="matrix(1 0 0 1 0 0)"><image x="0" y="0" xlink:href="img_03.png" width="640" height="340" /></g></g></g><g clip-path="url(#11)"><g transform="matrix(0.5859374 0 0 0.5845588 5.675037 529.8244)"><g transform="matrix(1 0 0 1 0 0)"><image x="0" y="0" xlink:href="img_03.png" width="640" height="340" /></g></g></g><g clip-path="url(#12)"><g clip-path="url(#13)"><g clip-path="url(#14)"><g clip-path="url(#15)"><g clip-path="url(#16)"><g transform="matrix(0.4494817 0 0 0.4491637 71.93284 120.7806)"><g transform="matrix(1 0 0 1 0 0)"><image x="0" y="0" xlink:href="img_04.png" width="300" height="396" /></g></g></g></g></g></g></g><g clip-path="url(#17)"><g clip-path="url(#18)"><g clip-path="url(#19)"><g clip-path="url(#20)"><g clip-path="url(#21)"><path id="10" transform="matrix(1 0 0 -1 0 842)" d="M84.68345 719.0663L194.0533 719.0663C 201.0944 719.0663 206.8022 713.3584 206.8022 706.3174L206.8022 706.3174L206.8022 597.5067C 206.8022 590.4656 201.0944 584.7577 194.0533 584.7577L194.0533 584.7577L84.68345 584.7577C 77.64241 584.7577 71.93452 590.4656 71.93452 597.5067L71.93452 597.5067L71.93452 706.3174C 71.93452 713.3584 77.64241 719.0663 84.68345 719.0663z" stroke="#D8D4D3" stroke-width="5.999999" fill="none" /></g></g></g></g></g><g clip-path="url(#22)"></g><g clip-path="url(#23)"><g clip-path="url(#24)"><g clip-path="url(#25)"><g clip-path="url(#26)"><g clip-path="url(#27)"><path id="161" transform="matrix(1 0 0 -1 0 842)" d="M220.5633 606.7784C 216.2259 605.282 211.704 604.4521 207.1285 604.3547C 214.2823 597.2652 223.139 591.9143 232.6986 588.7178C 242.667 585.3821 253.6343 584.2169 264.0294 586.0635C 269.6629 587.0654 275.4585 589.1721 279.0068 593.89C 279.4735 594.5096 280.9969 594.5442 280.2849 593.5972C 277.0395 589.2834 272.0548 586.8016 266.9153 585.4669C 261.6182 584.0908 256.0052 583.7236 250.5506 583.9434C 239.4895 584.3882 228.5726 587.5825 219.0016 593.1171C 214.3423 595.8109 210.0346 599.0705 206.1779 602.809C 206.576 596.998 206.0223 591.1452 204.5285 585.5051C 204.4181 585.0912 204.0034 584.762 203.5914 584.671C 203.2929 584.6049 202.8026 584.6967 202.9142 585.1187C 204.5853 591.4205 205.0714 597.96 204.342 604.4368C 204.3334 604.5135 204.3457 604.5913 204.3743 604.6667C 204.2033 605.1264 205.2125 605.7083 205.5486 605.699C 210.5918 605.5428 215.6302 606.2709 220.4009 607.9172C 221.5309 608.3072 221.4568 607.0876 220.5633 606.7784z" stroke="none" fill="#000000" fill-rule="nonzero" /></g></g></g></g></g><g clip-path="url(#28)"><g clip-path="url(#29)"><g clip-path="url(#30)"><g clip-path="url(#31)"><g clip-path="url(#32)"><g transform="matrix(0.4547285 0 0 0.4537832 71.25885 415.0246)"><g transform="matrix(1 0 0 1 0 0)"><image x="0" y="0" xlink:href="img_05.png" width="300" height="296" /></g></g></g></g></g></g></g><g clip-path="url(#33)"><g clip-path="url(#34)"><g clip-path="url(#35)"><g clip-path="url(#36)"><g clip-path="url(#37)"><path id="163" transform="matrix(1 0 0 -1 0 842)" d="M84.68345 426.9754L194.0533 426.9754C 201.0944 426.9754 206.8022 421.2675 206.8022 414.2265L206.8022 414.2265L206.8022 305.4158C 206.8022 298.3748 201.0944 292.6669 194.0533 292.6669L194.0533 292.6669L84.68345 292.6669C 77.64241 292.6669 71.93452 298.3748 71.93452 305.4158L71.93452 305.4158L71.93452 414.2265C 71.93452 421.2675 77.64241 426.9754 84.68345 426.9754z" stroke="#D8D4D3" stroke-width="5.999999" fill="none" /></g></g></g></g></g><g clip-path="url(#38)"><g clip-path="url(#39)"><g clip-path="url(#40)"><g clip-path="url(#41)"><g clip-path="url(#42)"><g transform="matrix(0.3707797 0 0 0.3713622 392.1804 219.5603)"><g transform="matrix(1 0 0 1 0 0)"><image x="0" y="0" xlink:href="img_06.png" width="400" height="804" /></g></g></g></g></g></g></g><g clip-path="url(#43)"><g clip-path="url(#44)"><g clip-path="url(#45)"><g clip-path="url(#46)"><g clip-path="url(#47)"><path id="165" transform="matrix(1 0 0 -1 0 842)" d="M405.222 562.3729L527.9541 562.3729C 531.3354 562.3729 534.5782 561.0297 536.9691 558.6388C 539.36 556.2479 540.7032 553.0051 540.7032 549.6238L540.7032 549.6238L540.7032 450.2362C 540.7032 446.8549 539.36 443.6122 536.9691 441.2212C 534.5782 438.8303 531.3354 437.4871 527.9541 437.4871L527.9541 437.4871L405.222 437.4871C 401.8407 437.4871 398.5979 438.8303 396.2069 441.2212C 393.816 443.6122 392.4728 446.8549 392.4728 450.2362L392.4728 450.2362L392.4728 549.6238C 392.4728 553.0051 393.816 556.2479 396.2069 558.6388C 398.5979 561.0297 401.8407 562.3729 405.222 562.3729z" stroke="#D8D4D3" stroke-width="6" fill="none" /></g></g></g></g></g><g clip-path="url(#48)"><g clip-path="url(#49)"><g clip-path="url(#50)"><g clip-path="url(#51)"><g clip-path="url(#52)"><path id="166" transform="matrix(1 0 0 -1 0 842)" d="M392.5685 477.3097C 398.0947 476.0039 403.7676 475.5353 409.4184 475.9687C 401.458 466.4369 391.1891 458.8251 379.7937 453.7625C 367.9115 448.4804 354.536 445.7315 341.502 446.734C 334.4382 447.2786 327.0414 449.1545 322.0987 454.4944C 321.4487 455.1956 319.567 455.0539 320.5589 453.9821C 325.0794 449.0998 331.5223 446.6672 338.0174 445.656C 344.7119 444.6131 351.6737 444.8421 358.3694 445.7694C 371.9475 447.6489 385.0157 452.8727 396.1428 460.7953C 401.5596 464.6516 406.4749 469.1571 410.7766 474.1937C 410.9876 467.0408 412.3768 459.9517 414.8987 453.2363C 415.0848 452.7435 415.6357 452.3911 416.1544 452.3297C 416.5303 452.2849 417.1234 452.4562 416.9349 452.9588C 414.1145 460.4618 412.7257 468.3987 412.8425 476.4055C 412.8438 476.5004 412.8193 476.594 412.7749 476.6827C 412.9302 477.2654 411.6162 477.855 411.203 477.8031C 405.0067 477.0031 398.7094 477.2849 392.6311 478.7216C 391.1914 479.062 391.43 477.5799 392.5685 477.3097z" stroke="none" fill="#000000" fill-rule="nonzero" /></g></g></g></g></g><g clip-path="url(#53)"><g clip-path="url(#54)"><g clip-path="url(#55)"><g clip-path="url(#56)"><g clip-path="url(#57)"><path id="167" transform="matrix(1 0 0 -1 0 842)" d="M405.566 192.518C 411.0923 191.2123 416.7653 190.7437 422.416 191.1771C 414.4556 181.6452 404.1866 174.0335 392.7913 168.9709C 380.9091 163.6888 367.5336 160.9398 354.4996 161.9424C 347.4358 162.487 340.0389 164.3629 335.0963 169.7028C 334.4463 170.404 332.5646 170.2623 333.5565 169.1905C 338.077 164.3082 344.5199 161.8756 351.015 160.8644C 357.7094 159.8215 364.6713 160.0505 371.367 160.9778C 384.9451 162.8573 398.0133 168.081 409.1404 176.0036C 414.5572 179.8599 419.4725 184.3654 423.7742 189.402C 423.9852 182.2492 425.3743 175.1601 427.8963 168.4447C 428.0824 167.9519 428.6333 167.5995 429.1519 167.538C 429.5279 167.4932 430.121 167.6646 429.9325 168.1672C 427.1121 175.6702 425.7233 183.6071 425.8401 191.6138C 425.8414 191.7088 425.8168 191.8024 425.7725 191.8911C 425.9278 192.4738 424.6138 193.0634 424.2006 193.0115C 418.0043 192.2115 411.7069 192.4933 405.6287 193.93C 404.189 194.2704 404.4276 192.7882 405.566 192.518z" stroke="none" fill="#000000" fill-rule="nonzero" /></g></g></g></g></g><g clip-path="url(#58)"><g clip-path="url(#59)"><g clip-path="url(#60)"><g clip-path="url(#61)"><g clip-path="url(#62)"><path id="168" transform="matrix(1 0 0 -1 0 842)" d="M209.0535 324.1806C 203.6817 322.3401 198.0818 321.3184 192.4158 321.1965C 201.2711 312.4897 212.2359 305.9199 224.0721 301.9972C 236.4144 297.9038 249.9948 296.4775 262.868 298.7513C 269.8445 299.9848 277.0222 302.5758 281.4184 308.3739C 281.9966 309.1354 283.8831 309.1786 283.0009 308.0149C 278.9801 302.7134 272.8063 299.6618 266.4414 298.0196C 259.8812 296.3263 252.9304 295.8726 246.1761 296.1399C 232.4792 296.6812 218.9623 300.6004 207.1131 307.3956C 201.3448 310.7031 196.012 314.7057 191.2379 319.297C 191.7281 312.1578 191.0397 304.9668 189.1873 298.0367C 189.0504 297.5281 188.5366 297.1235 188.0265 297.0115C 187.6567 296.9301 187.0496 297.0426 187.1881 297.5612C 189.2604 305.3043 189.8654 313.339 188.9654 321.2959C 188.9548 321.3903 188.9701 321.4859 189.0055 321.5785C 188.7939 322.1432 190.0439 322.8586 190.4601 322.8474C 196.705 322.6578 202.9446 323.5548 208.8529 325.5797C 210.2524 326.0594 210.1601 324.5609 209.0535 324.1806z" stroke="none" fill="#000000" fill-rule="nonzero" /></g></g></g></g></g><g clip-path="url(#63)"><path id="169" transform="matrix(1 0 0 -1 0 842)" d="M458.3121 223.8747L469.7611 223.8747C 470.9108 223.8747 471.8427 224.8087 471.8427 225.961C 471.8427 227.1133 470.9108 228.0474 469.7611 228.0474L469.7611 228.0474L458.3121 228.0474C 457.1624 228.0474 456.2305 227.1133 456.2305 225.961C 456.2305 224.8087 457.1624 223.8747 458.3121 223.8747z" stroke="none" fill="#000000" fill-rule="nonzero" /><path id="170" transform="matrix(1 0 0 -1 0 842)" d="M452.0672 225.961C 452.0672 227.1133 451.1351 228.0474 449.9856 228.0474L449.9856 228.0474L438.5366 228.0474C 437.3871 228.0474 436.455 227.1133 436.455 225.961C 436.455 224.8087 437.3871 223.8747 438.5366 223.8747L438.5366 223.8747L449.9856 223.8747C 451.1351 223.8747 452.0672 224.8087 452.0672 225.961z" stroke="none" fill="#000000" fill-rule="nonzero" /><path id="171" transform="matrix(1 0 0 -1 0 842)" d="M509.3121 236.3927C 500.1296 236.3927 492.6591 243.8802 492.6591 253.0834C 492.6591 262.2867 500.1296 269.7741 509.3121 269.7741C 518.4946 269.7741 525.9652 262.2867 525.9652 253.0834C 525.9652 243.8802 518.4946 236.3927 509.3121 236.3927zM509.3121 188.4069L453.108 188.4069L453.108 188.4069L453.108 215.5293L453.108 215.5293L478.0876 215.5293C 479.2371 215.5293 480.1693 216.4636 480.1693 217.6157L480.1693 217.6157L480.1693 242.6517C 480.1693 243.804 479.2371 244.7381 478.0876 244.7381L478.0876 244.7381L453.108 244.7381L453.108 244.7381L453.108 253.0834L453.108 253.0834L488.4958 253.0834C 488.4958 241.5791 497.8338 232.22 509.3121 232.22L509.3121 232.22L509.3121 188.4069zM505.1489 171.7162L457.2713 171.7162C 454.9757 171.7162 453.108 173.5881 453.108 175.8889L453.108 175.8889L453.108 184.2342L453.108 184.2342L509.3121 184.2342L509.3121 184.2342L509.3121 175.8889C 509.3121 173.5881 507.4445 171.7162 505.1489 171.7162zM432.2917 232.22L476.006 232.22L476.006 219.702L432.2917 219.702L432.2917 232.22zM476.006 240.5654L476.006 236.3927L432.2917 236.3927L432.2917 240.5654L476.006 240.5654zM457.2713 269.7741L496.8361 269.7741C 492.8358 266.7629 489.9488 262.3432 488.9144 257.2561L488.9144 257.2561L453.108 257.2561L453.108 257.2561L453.108 265.6015C 453.108 267.9023 454.9757 269.7741 457.2713 269.7741zM530.1284 253.0834C 530.1284 264.5877 520.7905 273.9468 509.3121 273.9468C 508.147 273.9468 459.1841 273.9468 457.2713 273.9468C 452.6801 273.9468 448.9448 270.2031 448.9448 265.6015L448.9448 265.6015L448.9448 244.7381L448.9448 244.7381L430.2101 244.7381C 429.0604 244.7381 428.1284 243.804 428.1284 242.6517L428.1284 242.6517L428.1284 217.6157C 428.1284 216.4636 429.0604 215.5293 430.2101 215.5293L430.2101 215.5293L448.9448 215.5293L448.9448 215.5293L448.9448 175.8889C 448.9448 171.2873 452.6801 167.5435 457.2713 167.5435L457.2713 167.5435L505.1489 167.5435C 509.7401 167.5435 513.4754 171.2873 513.4754 175.8889L513.4754 175.8889L513.4754 232.6396C 522.9656 234.5778 530.1284 243.0079 530.1284 253.0834z" stroke="none" fill="#000000" fill-rule="nonzero" /><path id="172" transform="matrix(1 0 0 -1 0 842)" d="M515.6463 260.0353L506.1897 250.5575L506.1897 250.5575L502.9779 253.7765C 502.1649 254.591 500.8472 254.591 500.0339 253.7765C 499.221 252.9618 499.221 251.6407 500.0339 250.8258L500.0339 250.8258L504.7175 246.1315C 505.531 245.3166 506.8483 245.317 507.6616 246.1315L507.6616 246.1315L518.5901 257.0848C 519.4031 257.8995 519.4031 259.2206 518.5901 260.0355C 517.7771 260.85 516.4594 260.85 515.6463 260.0353z" stroke="none" fill="#000000" fill-rule="nonzero" /><path id="173" transform="matrix(1 0 0 -1 0 842)" d="M486.4142 180.0616L476.006 180.0616C 474.8563 180.0616 473.9244 179.1273 473.9244 177.9752C 473.9244 176.8232 474.8563 175.8889 476.006 175.8889L476.006 175.8889L486.4142 175.8889C 487.5636 175.8889 488.4958 176.8232 488.4958 177.9752C 488.4958 179.1273 487.5636 180.0616 486.4142 180.0616z" stroke="none" fill="#000000" fill-rule="nonzero" /><path id="174" transform="matrix(1 0 0 -1 0 842)" d="M473.9244 261.4288L484.3325 261.4288C 485.482 261.4288 486.4142 262.363 486.4142 263.5151C 486.4142 264.6672 485.482 265.6015 484.3325 265.6015L484.3325 265.6015L473.9244 265.6015C 472.7747 265.6015 471.8427 264.6672 471.8427 263.5151C 471.8427 262.363 472.7747 261.4288 473.9244 261.4288z" stroke="none" fill="#000000" fill-rule="nonzero" /></g><g clip-path="url(#64)"></g><g clip-path="url(#65)"><g clip-path="url(#66)"><g clip-path="url(#67)"><g clip-path="url(#68)"><g clip-path="url(#69)"><g clip-path="url(#70)"><g clip-path="url(#71)"><g clip-path="url(#72)"><path id="718" transform="matrix(1 0 0 -1 0 842)" d="M380.6147 819.6025C 372.0569 819.6025 365.0974 812.6431 365.0974 804.0853C 365.0974 795.5276 372.0569 788.5681 380.6147 788.5681C 389.1725 788.5681 396.1319 795.5276 396.1319 804.0853C 396.1319 812.6431 389.1725 819.6025 380.6147 819.6025zM380.6147 788.3353C 371.9328 788.3353 364.8647 795.4034 364.8647 804.0853C 364.8647 812.7672 371.9328 819.8353 380.6147 819.8353C 389.2966 819.8353 396.3647 812.7672 396.3647 804.0853C 396.3647 795.4034 389.2966 788.3353 380.6147 788.3353z" stroke="none" fill="#000000" fill-rule="nonzero" /></g></g></g></g></g></g></g></g><g clip-path="url(#73)"><g clip-path="url(#74)"><g clip-path="url(#75)"><g clip-path="url(#76)"><g clip-path="url(#77)"><g clip-path="url(#78)"><g clip-path="url(#79)"><path id="719" transform="matrix(1 0 0 -1 0 842)" d="M364.8714 803.938C 364.8714 799.7236 366.5456 795.6818 369.5257 792.7017C 372.5057 789.7216 376.5476 788.0474 380.762 788.0474C 384.9765 788.0474 389.0183 789.7216 391.9984 792.7017C 394.9785 795.6818 396.6526 799.7236 396.6526 803.938C 396.6526 808.1525 394.9785 812.1943 391.9984 815.1744C 389.0183 818.1545 384.9765 819.8287 380.762 819.8287C 376.5476 819.8287 372.5057 818.1545 369.5257 815.1744C 366.5456 812.1943 364.8714 808.1525 364.8714 803.938z" stroke="#000000" stroke-width="1.5" fill="none" /></g></g></g></g></g></g></g><g clip-path="url(#80)"></g><g clip-path="url(#81)"><g clip-path="url(#82)"><g clip-path="url(#83)"><g clip-path="url(#84)"><g clip-path="url(#85)"><g clip-path="url(#86)"><g clip-path="url(#87)"><g clip-path="url(#88)"><path id="721" transform="matrix(1 0 0 -1 0 842)" d="M285.9536 686.4825C 277.8034 686.4825 271.1753 679.8544 271.1753 671.7042C 271.1753 663.5539 277.8034 656.9258 285.9536 656.9258C 294.1039 656.9258 300.732 663.5539 300.732 671.7042C 300.732 679.8544 294.1039 686.4825 285.9536 686.4825zM285.9536 656.7042C 277.6852 656.7042 270.9536 663.4357 270.9536 671.7042C 270.9536 679.9727 277.6852 686.7042 285.9536 686.7042C 294.2221 686.7042 300.9536 679.9727 300.9536 671.7042C 300.9536 663.4357 294.2221 656.7042 285.9536 656.7042z" stroke="none" fill="#000000" fill-rule="nonzero" /></g></g></g></g></g></g></g></g><g clip-path="url(#89)"><g clip-path="url(#90)"><g clip-path="url(#91)"><g clip-path="url(#92)"><g clip-path="url(#93)"><g clip-path="url(#94)"><g clip-path="url(#95)"><path id="722" transform="matrix(1 0 0 -1 0 842)" d="M270.9481 671.8395C 270.9481 665.0115 276.4843 659.4763 283.3134 659.4763L283.3134 659.4763L288.3601 659.4763C 295.1893 659.4763 300.7254 665.0115 300.7254 671.8395C 300.7254 678.6676 295.1893 684.2028 288.3601 684.2028L288.3601 684.2028L283.3134 684.2028C 276.4843 684.2028 270.9481 678.6676 270.9481 671.8395z" stroke="#000000" stroke-width="1.5" fill="none" /></g></g></g></g></g></g></g><g clip-path="url(#96)"></g><g clip-path="url(#97)"><g clip-path="url(#98)"><g clip-path="url(#99)"><g clip-path="url(#100)"><g clip-path="url(#101)"><g clip-path="url(#102)"><g clip-path="url(#103)"><g clip-path="url(#104)"><path id="724" transform="matrix(1 0 0 -1 0 842)" d="M51.14143 265.7665C 42.99119 265.7665 36.36311 259.1384 36.36311 250.9882C 36.36311 242.838 42.99119 236.2099 51.14143 236.2099C 59.29168 236.2099 65.91976 242.838 65.91976 250.9882C 65.91976 259.1384 59.29168 265.7665 51.14143 265.7665zM51.14143 235.9882C 42.87296 235.9882 36.14144 242.7197 36.14144 250.9882C 36.14144 259.2567 42.87296 265.9882 51.14143 265.9882C 59.40991 265.9882 66.14143 259.2567 66.14143 250.9882C 66.14143 242.7197 59.40991 235.9882 51.14143 235.9882z" stroke="none" fill="#000000" fill-rule="nonzero" /></g></g></g></g></g></g></g></g><g clip-path="url(#105)"><g clip-path="url(#106)"><g clip-path="url(#107)"><g clip-path="url(#108)"><g clip-path="url(#109)"><g clip-path="url(#110)"><g clip-path="url(#111)"><path id="725" transform="matrix(1 0 0 -1 0 842)" d="M36.13587 251.1235C 36.13587 244.2955 41.67202 238.7603 48.50121 238.7603L48.50121 238.7603L53.54787 238.7603C 60.37706 238.7603 65.91322 244.2955 65.91322 251.1235C 65.91322 257.9516 60.37706 263.4868 53.54787 263.4868L53.54787 263.4868L48.50121 263.4868C 41.67202 263.4868 36.13587 257.9516 36.13587 251.1235z" stroke="#000000" stroke-width="1.5" fill="none" /></g></g></g></g></g></g></g><g clip-path="url(#112)"></g><g clip-path="url(#113)"><g clip-path="url(#114)"><g clip-path="url(#115)"><g clip-path="url(#116)"><g clip-path="url(#117)"><g clip-path="url(#118)"><g clip-path="url(#119)"><g clip-path="url(#120)"><path id="727" transform="matrix(1 0 0 -1 0 842)" d="M60.40606 561.2208C 52.25582 561.2208 45.62774 554.5928 45.62774 546.4425C 45.62774 538.2922 52.25582 531.6642 60.40606 531.6642C 68.5563 531.6642 75.18439 538.2922 75.18439 546.4425C 75.18439 554.5928 68.5563 561.2208 60.40606 561.2208zM60.40606 531.4425C 52.13759 531.4425 45.40606 538.174 45.40606 546.4425C 45.40606 554.711 52.13759 561.4425 60.40606 561.4425C 68.67453 561.4425 75.40606 554.711 75.40606 546.4425C 75.40606 538.174 68.67453 531.4425 60.40606 531.4425z" stroke="none" fill="#000000" fill-rule="nonzero" /></g></g></g></g></g></g></g></g><g clip-path="url(#121)"><g clip-path="url(#122)"><g clip-path="url(#123)"><g clip-path="url(#124)"><g clip-path="url(#125)"><g clip-path="url(#126)"><g clip-path="url(#127)"><path id="728" transform="matrix(1 0 0 -1 0 842)" d="M45.4005 546.5779C 45.4005 539.7498 50.93665 534.2146 57.76584 534.2146L57.76584 534.2146L62.8125 534.2146C 69.64169 534.2146 75.17784 539.7498 75.17784 546.5779C 75.17784 553.4059 69.64169 558.9412 62.8125 558.9412L62.8125 558.9412L57.76584 558.9412C 50.93665 558.9412 45.4005 553.4059 45.4005 546.5779z" stroke="#000000" stroke-width="1.5" fill="none" /></g></g></g></g></g></g></g><g clip-path="url(#128)"></g><g clip-path="url(#129)"><g clip-path="url(#130)"><g clip-path="url(#131)"><g clip-path="url(#132)"><g clip-path="url(#133)"><g clip-path="url(#134)"><g clip-path="url(#135)"><g clip-path="url(#136)"><path id="730" transform="matrix(1 0 0 -1 0 842)" d="M300.8439 416.2899C 292.6937 416.2899 286.0656 409.6618 286.0656 401.5116C 286.0656 393.3614 292.6937 386.7333 300.8439 386.7333C 308.9941 386.7333 315.6222 393.3614 315.6222 401.5116C 315.6222 409.6618 308.9941 416.2899 300.8439 416.2899zM300.8439 386.5116C 292.5754 386.5116 285.8439 393.2431 285.8439 401.5116C 285.8439 409.7801 292.5754 416.5116 300.8439 416.5116C 309.1124 416.5116 315.8439 409.7801 315.8439 401.5116C 315.8439 393.2431 309.1124 386.5116 300.8439 386.5116z" stroke="none" fill="#000000" fill-rule="nonzero" /></g></g></g></g></g></g></g></g><g clip-path="url(#137)"><g clip-path="url(#138)"><g clip-path="url(#139)"><g clip-path="url(#140)"><g clip-path="url(#141)"><g clip-path="url(#142)"><g clip-path="url(#143)"><path id="731" transform="matrix(1 0 0 -1 0 842)" d="M285.8383 401.647C 285.8383 394.8189 291.3745 389.2837 298.2037 389.2837L298.2037 389.2837L303.2503 389.2837C 310.0795 389.2837 315.6157 394.8189 315.6157 401.647C 315.6157 408.475 310.0795 414.0103 303.2503 414.0103L303.2503 414.0103L298.2037 414.0103C 291.3745 414.0103 285.8383 408.475 285.8383 401.647z" stroke="#000000" stroke-width="1.5" fill="none" /></g></g></g></g></g></g></g><g clip-path="url(#144)"></g></g></g></svg>