<svg xmlns="http://www.w3.org/2000/svg" xmlns:xlink="http://www.w3.org/1999/xlink" id="body_1" preserveAspectRatio="xMinYMin meet" viewBox="0 0 793 1123"><defs><clipPath id="1"><path id="" clip-rule="evenodd" transform="matrix(1 0 0 1 0 0)" d="M0 842L0 -0.25L0 -0.25L595.5 -0.25L595.5 -0.25L595.5 842L595.5 842L0 842z" /></clipPath><clipPath id="2"><path id="" clip-rule="evenodd" transform="matrix(1 0 0 1 0 0)" d="M0 -0.249939L595.5 -0.249939L595.5 -0.249939L595.5 842.0001L595.5 842.0001L0 842.0001z" /></clipPath><clipPath id="3"><path id="" clip-rule="evenodd" transform="matrix(1 0 0 1 0 0)" d="M0 -0.249939L595.5 -0.249939L595.5 -0.249939L595.5 842.0001L595.5 842.0001L0 842.0001z" /></clipPath><clipPath id="4"><path id="" clip-rule="evenodd" transform="matrix(1 0 0 1 0 0)" d="M0 -0.249939L595.5 -0.249939L595.5 -0.249939L595.5 842.0001L595.5 842.0001L0 842.0001z" /></clipPath><clipPath id="5"><path id="" clip-rule="evenodd" transform="matrix(1 0 0 1 0 0)" d="M80.88 18.95007L537.12 18.95007L537.12 18.95007L537.12 823.1901L537.12 823.1901L80.88 823.1901z" /></clipPath><clipPath id="6"><path id="" clip-rule="evenodd" transform="matrix(1 0 0 1 0 0)" d="M81.0154 19.05255L537.0154 19.05255L537.0154 19.05255L537.0154 822.3026L537.0154 822.3026L81.0154 822.3026z" /></clipPath><clipPath id="7"><path id="" clip-rule="evenodd" transform="matrix(1 0 0 1 0 0)" d="M466.4401 23.61578L551.1901 23.61578L551.1901 23.61578L551.1901 71.61578L551.1901 71.61578L466.4401 71.61578z" /></clipPath><clipPath id="8"><path id="" clip-rule="evenodd" transform="matrix(1 0 0 1 0 0)" d="M38.88756 10.32037L128.8876 10.32037L128.8876 10.32037L128.8876 89.82037L128.8876 89.82037L38.88756 89.82037z" /></clipPath><clipPath id="9"><path id="" clip-rule="evenodd" transform="matrix(1 0 0 1 0 0)" d="M0 -0.249939L595.5 -0.249939L595.5 -0.249939L595.5 842.0001L595.5 842.0001L0 842.0001z" /></clipPath><clipPath id="10"><path id="" clip-rule="evenodd" transform="matrix(1 0 0 1 0 0)" d="M0 -0.249939L595.5 -0.249939L595.5 -0.249939L595.5 842.0001L595.5 842.0001L0 842.0001z" /></clipPath><clipPath id="11"><path id="" clip-rule="evenodd" transform="matrix(1 0 0 1 0 0)" d="M34.8061 94.74945L362.5212 94.74945L362.5212 94.74945L362.5212 305.5411L362.5212 305.5411L34.8061 305.5411z" /></clipPath><clipPath id="12"><path id="" clip-rule="evenodd" transform="matrix(1 0 0 1 0 0)" d="M54.3061 94.74945L342.6323 94.74945C 353.4019 94.74945 362.1323 103.4799 362.1323 114.2495L362.1323 114.2495L362.1323 286.0411C 362.1323 296.8107 353.4019 305.5411 342.6323 305.5411L342.6323 305.5411L54.3061 305.5411C 43.53655 305.5411 34.8061 296.8107 34.8061 286.0411L34.8061 286.0411L34.8061 114.2495C 34.8061 103.4799 43.53655 94.74945 54.3061 94.74945z" /></clipPath><clipPath id="13"><path id="" clip-rule="evenodd" transform="matrix(1 0 0 1 0 0)" d="M0 -0.249939L595.5 -0.249939L595.5 -0.249939L595.5 842.0001L595.5 842.0001L0 842.0001z" /></clipPath><clipPath id="14"><path id="" clip-rule="evenodd" transform="matrix(1 0 0 1 0 0)" d="M373.68 103.1901L472.8 103.1901L472.8 103.1901L472.8 192.7101L472.8 192.7101L373.68 192.7101z" /></clipPath><clipPath id="15"><path id="" clip-rule="evenodd" transform="matrix(1 0 0 1 0 0)" d="M373.7481 103.3615L472.7481 103.3615L472.7481 103.3615L472.7481 192.6115L472.7481 192.6115L373.7481 192.6115z" /></clipPath><clipPath id="16"><path id="" clip-rule="evenodd" transform="matrix(1 0 0 1 0 0)" d="M373.7481 131.1115L373.7481 164.3018C 373.7481 179.6277 386.1722 192.0518 401.4981 192.0518L401.4981 192.0518L444.4549 192.0518C 459.7808 192.0518 472.2049 179.6277 472.2049 164.3018L472.2049 164.3018L472.2049 131.1115C 472.2049 115.7855 459.7808 103.3615 444.4549 103.3615L444.4549 103.3615L401.4981 103.3615C 386.1722 103.3615 373.7481 115.7855 373.7481 131.1115z" /></clipPath><clipPath id="17"><path id="" clip-rule="evenodd" transform="matrix(1 0 0 1 0 0)" d="M373.7481 103.3615L471.9981 103.3615L471.9981 103.3615L471.9981 191.8615L471.9981 191.8615L373.7481 191.8615z" /></clipPath><clipPath id="18"><path id="" clip-rule="evenodd" transform="matrix(1 0 0 1 0 0)" d="M0 -0.249939L595.5 -0.249939L595.5 -0.249939L595.5 842.0001L595.5 842.0001L0 842.0001z" /></clipPath><clipPath id="19"><path id="" clip-rule="evenodd" transform="matrix(1 0 0 1 0 0)" d="M0 -0.249939L595.5 -0.249939L595.5 -0.249939L595.5 842.0001L595.5 842.0001L0 842.0001z" /></clipPath><clipPath id="20"><path id="" clip-rule="evenodd" transform="matrix(1 0 0 1 0 0)" d="M455.2847 200.1453L563.2847 200.1453L563.2847 200.1453L563.2847 292.3953L563.2847 292.3953L455.2847 292.3953z" /></clipPath><clipPath id="21"><path id="" clip-rule="evenodd" transform="matrix(1 0 0 1 0 0)" d="M455.2847 227.8953L455.2847 264.016C 455.2847 279.3419 467.7088 291.766 483.0347 291.766L483.0347 291.766L534.9152 291.766C 550.2411 291.766 562.6652 279.3419 562.6652 264.016L562.6652 264.016L562.6652 227.8953C 562.6652 212.5694 550.2411 200.1453 534.9152 200.1453L534.9152 200.1453L483.0347 200.1453C 467.7088 200.1453 455.2847 212.5694 455.2847 227.8953z" /></clipPath><clipPath id="22"><path id="" clip-rule="evenodd" transform="matrix(1 0 0 1 0 0)" d="M455.2847 200.1453L562.5347 200.1453L562.5347 200.1453L562.5347 291.6453L562.5347 291.6453L455.2847 291.6453z" /></clipPath><clipPath id="23"><path id="" clip-rule="evenodd" transform="matrix(1 0 0 1 0 0)" d="M0 -0.249939L595.5 -0.249939L595.5 -0.249939L595.5 842.0001L595.5 842.0001L0 842.0001z" /></clipPath><clipPath id="24"><path id="" clip-rule="evenodd" transform="matrix(1 0 0 1 0 0)" d="M0 -0.249939L595.5 -0.249939L595.5 -0.249939L595.5 842.0001L595.5 842.0001L0 842.0001z" /></clipPath><clipPath id="25"><path id="" clip-rule="evenodd" transform="matrix(1 0 0 1 0 0)" d="M255.5826 315.2848L583.3925 315.2848L583.3925 315.2848L583.3925 543.3264L583.3925 543.3264L255.5826 543.3264z" /></clipPath><clipPath id="26"><path id="" clip-rule="evenodd" transform="matrix(1 0 0 1 0 0)" d="M275.0826 315.2848L563.4088 315.2848C 574.1784 315.2848 582.9088 324.0153 582.9088 334.7848L582.9088 334.7848L582.9088 523.8264C 582.9088 534.5959 574.1784 543.3264 563.4088 543.3264L563.4088 543.3264L275.0826 543.3264C 264.313 543.3264 255.5826 534.5959 255.5826 523.8264L255.5826 523.8264L255.5826 334.7848C 255.5826 324.0153 264.313 315.2848 275.0826 315.2848z" /></clipPath><clipPath id="27"><path id="" clip-rule="evenodd" transform="matrix(1 0 0 1 0 0)" d="M0 -0.249939L595.5 -0.249939L595.5 -0.249939L595.5 842.0001L595.5 842.0001L0 842.0001z" /></clipPath><clipPath id="28"><path id="" clip-rule="evenodd" transform="matrix(1 0 0 1 0 0)" d="M0 -0.249939L595.5 -0.249939L595.5 -0.249939L595.5 842.0001L595.5 842.0001L0 842.0001z" /></clipPath><clipPath id="29"><path id="" clip-rule="evenodd" transform="matrix(1 0 0 1 0 0)" d="M0 -0.249939L595.5 -0.249939L595.5 -0.249939L595.5 842.0001L595.5 842.0001L0 842.0001z" /></clipPath><clipPath id="30"><path id="" clip-rule="evenodd" transform="matrix(1 0 0 1 0 0)" d="M34.8061 315.2848L157.0561 315.2848L157.0561 315.2848L157.0561 417.2848L157.0561 417.2848L34.8061 417.2848z" /></clipPath><clipPath id="31"><path id="" clip-rule="evenodd" transform="matrix(1 0 0 1 0 0)" d="M34.8061 343.0348L34.8061 389.0551C 34.8061 404.381 47.2302 416.8051 62.55611 416.8051L62.55611 416.8051L129.2685 416.8051C 144.5944 416.8051 157.0185 404.381 157.0185 389.0551L157.0185 389.0551L157.0185 343.0348C 157.0185 327.7089 144.5944 315.2848 129.2685 315.2848L129.2685 315.2848L62.55611 315.2848C 47.2302 315.2848 34.8061 327.7089 34.8061 343.0348z" /></clipPath><clipPath id="32"><path id="" clip-rule="evenodd" transform="matrix(1 0 0 1 0 0)" d="M34.8061 315.2848L157.0561 315.2848L157.0561 315.2848L157.0561 416.5348L157.0561 416.5348L34.8061 416.5348z" /></clipPath><clipPath id="33"><path id="" clip-rule="evenodd" transform="matrix(1 0 0 1 0 0)" d="M0 -0.249939L595.5 -0.249939L595.5 -0.249939L595.5 842.0001L595.5 842.0001L0 842.0001z" /></clipPath><clipPath id="34"><path id="" clip-rule="evenodd" transform="matrix(1 0 0 1 0 0)" d="M0 -0.249939L595.5 -0.249939L595.5 -0.249939L595.5 842.0001L595.5 842.0001L0 842.0001z" /></clipPath><clipPath id="35"><path id="" clip-rule="evenodd" transform="matrix(1 0 0 1 0 0)" d="M85.84904 425.679L215.599 425.679L215.599 425.679L215.599 526.179L215.599 526.179L85.84904 526.179z" /></clipPath><clipPath id="36"><path id="" clip-rule="evenodd" transform="matrix(1 0 0 1 0 0)" d="M85.84904 453.429L85.84904 498.3551C 85.84904 513.681 98.27314 526.1051 113.599 526.1051L113.599 526.1051L187.4942 526.1051C 202.8201 526.1051 215.2442 513.681 215.2442 498.3551L215.2442 498.3551L215.2442 453.429C 215.2442 438.1031 202.8201 425.679 187.4942 425.679L187.4942 425.679L113.599 425.679C 98.27314 425.679 85.84904 438.1031 85.84904 453.429z" /></clipPath><clipPath id="37"><path id="" clip-rule="evenodd" transform="matrix(1 0 0 1 0 0)" d="M85.84904 425.679L215.599 425.679L215.599 425.679L215.599 526.179L215.599 526.179L85.84904 526.179z" /></clipPath><clipPath id="38"><path id="" clip-rule="evenodd" transform="matrix(1 0 0 1 0 0)" d="M0 -0.249939L595.5 -0.249939L595.5 -0.249939L595.5 842.0001L595.5 842.0001L0 842.0001z" /></clipPath><clipPath id="39"><path id="" clip-rule="evenodd" transform="matrix(1 0 0 1 0 0)" d="M0 -0.249939L595.5 -0.249939L595.5 -0.249939L595.5 842.0001L595.5 842.0001L0 842.0001z" /></clipPath><clipPath id="40"><path id="" clip-rule="evenodd" transform="matrix(1 0 0 1 0 0)" d="M32.98094 559.7547L307.8674 559.7547L307.8674 559.7547L307.8674 822.3328L307.8674 822.3328L32.98094 822.3328z" /></clipPath><clipPath id="41"><path id="" clip-rule="evenodd" transform="matrix(1 0 0 1 0 0)" d="M52.48094 559.7547L287.7676 559.7547C 298.5372 559.7547 307.2676 568.4852 307.2676 579.2547L307.2676 579.2547L307.2676 802.8328C 307.2676 813.6024 298.5372 822.3328 287.7676 822.3328L287.7676 822.3328L52.48094 822.3328C 41.71139 822.3328 32.98094 813.6024 32.98094 802.8328L32.98094 802.8328L32.98094 579.2547C 32.98094 568.4852 41.71139 559.7547 52.48094 559.7547z" /></clipPath><clipPath id="42"><path id="" clip-rule="evenodd" transform="matrix(1 0 0 1 0 0)" d="M0 -0.249939L595.5 -0.249939L595.5 -0.249939L595.5 842.0001L595.5 842.0001L0 842.0001z" /></clipPath><clipPath id="43"><path id="" clip-rule="evenodd" transform="matrix(1 0 0 1 0 0)" d="M0 -0.249939L595.5 -0.249939L595.5 -0.249939L595.5 842.0001L595.5 842.0001L0 842.0001z" /></clipPath><clipPath id="44"><path id="" clip-rule="evenodd" transform="matrix(1 0 0 1 0 0)" d="M0 -0.249939L595.5 -0.249939L595.5 -0.249939L595.5 842.0001L595.5 842.0001L0 842.0001z" /></clipPath><clipPath id="45"><path id="" clip-rule="evenodd" transform="matrix(1 0 0 1 0 0)" d="M329.4944 689.4092L475.7444 689.4092L475.7444 689.4092L475.7444 822.9092L475.7444 822.9092L329.4944 822.9092z" /></clipPath><clipPath id="46"><path id="" clip-rule="evenodd" transform="matrix(1 0 0 1 0 0)" d="M329.4944 717.1592L329.4944 794.5828C 329.4944 809.9087 341.9185 822.3328 357.2444 822.3328L357.2444 822.3328L447.9638 822.3328C 463.2897 822.3328 475.7138 809.9087 475.7138 794.5828L475.7138 794.5828L475.7138 717.1592C 475.7138 701.8334 463.2897 689.4092 447.9638 689.4092L447.9638 689.4092L357.2444 689.4092C 341.9185 689.4092 329.4944 701.8334 329.4944 717.1592z" /></clipPath><clipPath id="47"><path id="" clip-rule="evenodd" transform="matrix(1 0 0 1 0 0)" d="M329.4944 689.4092L475.7444 689.4092L475.7444 689.4092L475.7444 822.1592L475.7444 822.1592L329.4944 822.1592z" /></clipPath><clipPath id="48"><path id="" clip-rule="evenodd" transform="matrix(1 0 0 1 0 0)" d="M0 -0.249939L595.5 -0.249939L595.5 -0.249939L595.5 842.0001L595.5 842.0001L0 842.0001z" /></clipPath><clipPath id="49"><path id="" clip-rule="evenodd" transform="matrix(1 0 0 1 0 0)" d="M0 -0.249939L595.5 -0.249939L595.5 -0.249939L595.5 842.0001L595.5 842.0001L0 842.0001z" /></clipPath><clipPath id="50"><path id="" clip-rule="evenodd" transform="matrix(1 0 0 1 0 0)" d="M450.6447 559.7547L583.3948 559.7547L583.3948 559.7547L583.3948 687.2547L583.3948 687.2547L450.6447 687.2547z" /></clipPath><clipPath id="51"><path id="" clip-rule="evenodd" transform="matrix(1 0 0 1 0 0)" d="M450.6447 587.5047L450.6447 659.3089C 450.6447 674.6348 463.0688 687.0589 478.3947 687.0589L478.3947 687.0589L555.1588 687.0589C 570.4847 687.0589 582.9088 674.6348 582.9088 659.3089L582.9088 659.3089L582.9088 587.5047C 582.9088 572.1788 570.4847 559.7547 555.1588 559.7547L555.1588 559.7547L478.3947 559.7547C 463.0688 559.7547 450.6447 572.1788 450.6447 587.5047z" /></clipPath><clipPath id="52"><path id="" clip-rule="evenodd" transform="matrix(1 0 0 1 0 0)" d="M450.6447 559.7547L582.6448 559.7547L582.6448 559.7547L582.6448 687.2547L582.6448 687.2547L450.6447 687.2547z" /></clipPath></defs><g transform="matrix(1.333333 0 0 1.333333 0 0)"><g clip-path="url(#1)"><g clip-path="url(#2)"><path id="1" transform="matrix(1 0 0 -1 0 842)" d="M0 842.2499L595.4999 842.2499L595.4999 -6.103516E-05L0 -6.103516E-05z" stroke="none" fill="#FFFFFF" fill-rule="nonzero" /></g><g clip-path="url(#3)"><path id="2" transform="matrix(1 0 0 -1 0 842)" d="M0 842.2499L595.4999 842.2499L595.4999 -6.103516E-05L0 -6.103516E-05z" stroke="none" fill="#FFFFFF" fill-rule="nonzero" /></g><g clip-path="url(#4)"><g><g clip-path="url(#5)"><g clip-path="url(#6)"><g transform="matrix(0 0.5281065 -0.5283893 0 537.0154 19.05261)"><g transform="matrix(1 0 0 1 0 0)"><image x="0" y="0" xlink:href="img_01.png" width="1521" height="863" /></g></g></g></g></g></g><g clip-path="url(#7)"><g transform="matrix(0.05571992 0 0 0.05561992 466.4401 23.61584)"><g transform="matrix(1 0 0 1 0 0)"><image x="0" y="0" xlink:href="img_02.png" width="1521" height="863" /></g></g></g><g clip-path="url(#8)"><g transform="matrix(0.4225352 0 0 0.4228723 38.88755 10.32037)"><g transform="matrix(1 0 0 1 0 0)"><image x="0" y="0" xlink:href="img_03.png" width="213" height="188" /></g></g></g><g clip-path="url(#9)"><g clip-path="url(#10)"><g clip-path="url(#11)"><g clip-path="url(#12)"><path id="6" transform="matrix(1 0 0 -1 0 842)" d="M34.8061 747.2505L362.5212 747.2505L362.5212 536.4589L34.8061 536.4589z" stroke="none" fill="#D6E0E5" fill-rule="nonzero" /></g></g></g></g><g clip-path="url(#13)"><g><g clip-path="url(#14)"><g clip-path="url(#15)"><g clip-path="url(#16)"><g clip-path="url(#17)"><g transform="matrix(0.5254011 0 0 0.5267857 373.748 103.3615)"><g transform="matrix(1 0 0 1 0 0)"><image x="0" y="0" xlink:href="img_04.png" width="187" height="168" /></g></g></g></g></g></g></g></g><g clip-path="url(#18)"><g clip-path="url(#19)"><g clip-path="url(#20)"><g clip-path="url(#21)"><g clip-path="url(#22)"><g transform="matrix(0.533582 0 0 0.5319766 455.2847 200.1453)"><g transform="matrix(1 0 0 1 0 0)"><image x="0" y="0" xlink:href="img_05.png" width="201" height="172" /></g></g></g></g></g></g></g><g clip-path="url(#23)"><g clip-path="url(#24)"><g clip-path="url(#25)"><g clip-path="url(#26)"><path id="311" transform="matrix(1 0 0 -1 0 842)" d="M255.5826 526.7152L582.5016 526.7152L582.5016 298.6736L255.5826 298.6736z" stroke="none" fill="#D6E0E5" fill-rule="nonzero" /></g></g></g></g><g clip-path="url(#27)"></g><g clip-path="url(#28)"><g clip-path="url(#29)"><g clip-path="url(#30)"><g clip-path="url(#31)"><g clip-path="url(#32)"><g transform="matrix(0.5385462 0 0 0.5357142 34.8061 315.2848)"><g transform="matrix(1 0 0 1 0 0)"><image x="0" y="0" xlink:href="img_06.png" width="227" height="189" /></g></g></g></g></g></g></g><g clip-path="url(#33)"><g clip-path="url(#34)"><g clip-path="url(#35)"><g clip-path="url(#36)"><g clip-path="url(#37)"><g transform="matrix(0.536157 0 0 0.5345744 85.84904 425.679)"><g transform="matrix(1 0 0 1 0 0)"><image x="0" y="0" xlink:href="img_07.png" width="242" height="188" /></g></g></g></g></g></g></g><g clip-path="url(#38)"><g clip-path="url(#39)"><g clip-path="url(#40)"><g clip-path="url(#41)"><path id="653" transform="matrix(1 0 0 -1 0 842)" d="M32.98094 282.2453L306.8417 282.2453L306.8417 19.66714L32.98094 19.66714z" stroke="none" fill="#D6E0E5" fill-rule="nonzero" /></g></g></g></g><g clip-path="url(#42)"></g><g clip-path="url(#43)"><g clip-path="url(#44)"><g clip-path="url(#45)"><g clip-path="url(#46)"><g clip-path="url(#47)"><g transform="matrix(0.5518867 0 0 0.5520446 329.4944 673.7925)"><g transform="matrix(1 0 0 1 0 0)"><image x="0" y="0" xlink:href="img_08.png" width="265" height="269" /></g></g></g></g></g></g></g><g clip-path="url(#48)"><g clip-path="url(#49)"><g clip-path="url(#50)"><g clip-path="url(#51)"><g clip-path="url(#52)"><g transform="matrix(0.55 0 0 0.551948 450.6447 559.7548)"><g transform="matrix(1 0 0 1 0 0)"><image x="0" y="0" xlink:href="img_09.png" width="240" height="231" /></g></g></g></g></g></g></g></g></g></svg>