<svg xmlns="http://www.w3.org/2000/svg" xmlns:xlink="http://www.w3.org/1999/xlink" id="body_1" preserveAspectRatio="xMinYMin meet" viewBox="0 0 793 1123"><defs><clipPath id="1"><path id="" clip-rule="evenodd" transform="matrix(1 0 0 1 0 0)" d="M0 842L0 -0.25L0 -0.25L595.5 -0.25L595.5 -0.25L595.5 842L595.5 842L0 842z" /></clipPath><clipPath id="2"><path id="" clip-rule="evenodd" transform="matrix(1 0 0 1 0 0)" d="M0 -0.249939L595.5 -0.249939L595.5 -0.249939L595.5 842.0001L595.5 842.0001L0 842.0001z" /></clipPath><clipPath id="3"><path id="" clip-rule="evenodd" transform="matrix(1 0 0 1 0 0)" d="M0 -0.249939L595.5 -0.249939L595.5 -0.249939L595.5 842.0001L595.5 842.0001L0 842.0001z" /></clipPath><clipPath id="4"><path id="" clip-rule="evenodd" transform="matrix(1 0 0 1 0 0)" d="M0 -0.249939L595.5 -0.249939L595.5 -0.249939L595.5 842.0001L595.5 842.0001L0 842.0001z" /></clipPath><clipPath id="5"><path id="" clip-rule="evenodd" transform="matrix(1 0 0 1 0 0)" d="M80.88 18.95007L537.12 18.95007L537.12 18.95007L537.12 823.1901L537.12 823.1901L80.88 823.1901z" /></clipPath><clipPath id="6"><path id="" clip-rule="evenodd" transform="matrix(1 0 0 1 0 0)" d="M81.0154 19.05255L537.0154 19.05255L537.0154 19.05255L537.0154 822.3026L537.0154 822.3026L81.0154 822.3026z" /></clipPath><clipPath id="7"><path id="" clip-rule="evenodd" transform="matrix(1 0 0 1 0 0)" d="M466.4401 23.61578L551.1901 23.61578L551.1901 23.61578L551.1901 71.61578L551.1901 71.61578L466.4401 71.61578z" /></clipPath><clipPath id="8"><path id="" clip-rule="evenodd" transform="matrix(1 0 0 1 0 0)" d="M38.88756 10.32037L128.8876 10.32037L128.8876 10.32037L128.8876 89.82037L128.8876 89.82037L38.88756 89.82037z" /></clipPath><clipPath id="9"><path id="" clip-rule="evenodd" transform="matrix(1 0 0 1 0 0)" d="M0 -0.249939L595.5 -0.249939L595.5 -0.249939L595.5 842.0001L595.5 842.0001L0 842.0001z" /></clipPath><clipPath id="10"><path id="" clip-rule="evenodd" transform="matrix(1 0 0 1 0 0)" d="M0 -0.249939L595.5 -0.249939L595.5 -0.249939L595.5 842.0001L595.5 842.0001L0 842.0001z" /></clipPath><clipPath id="11"><path id="" clip-rule="evenodd" transform="matrix(1 0 0 1 0 0)" d="M211.3976 108.7355L571.6697 108.7355L571.6697 108.7355L571.6697 354.0271L571.6697 354.0271L211.3976 354.0271z" /></clipPath><clipPath id="12"><path id="" clip-rule="evenodd" transform="matrix(1 0 0 1 0 0)" d="M230.8976 108.7355L551.7252 108.7355C 562.4948 108.7355 571.2252 117.4659 571.2252 128.2355L571.2252 128.2355L571.2252 334.5271C 571.2252 345.2967 562.4948 354.0271 551.7252 354.0271L551.7252 354.0271L230.8976 354.0271C 220.1281 354.0271 211.3976 345.2967 211.3976 334.5271L211.3976 334.5271L211.3976 128.2355C 211.3976 117.4659 220.1281 108.7355 230.8976 108.7355z" /></clipPath><clipPath id="13"><path id="" clip-rule="evenodd" transform="matrix(1 0 0 1 0 0)" d="M0 -0.249939L595.5 -0.249939L595.5 -0.249939L595.5 842.0001L595.5 842.0001L0 842.0001z" /></clipPath><clipPath id="14"><path id="" clip-rule="evenodd" transform="matrix(1 0 0 1 0 0)" d="M0 -0.249939L595.5 -0.249939L595.5 -0.249939L595.5 842.0001L595.5 842.0001L0 842.0001z" /></clipPath><clipPath id="15"><path id="" clip-rule="evenodd" transform="matrix(1 0 0 1 0 0)" d="M0 -0.249939L595.5 -0.249939L595.5 -0.249939L595.5 842.0001L595.5 842.0001L0 842.0001z" /></clipPath><clipPath id="16"><path id="" clip-rule="evenodd" transform="matrix(1 0 0 1 0 0)" d="M241.1739 578.16L564.8631 578.16L564.8631 578.16L564.8631 820.4536L564.8631 820.4536L241.1739 820.4536z" /></clipPath><clipPath id="17"><path id="" clip-rule="evenodd" transform="matrix(1 0 0 1 0 0)" d="M260.6739 578.16L545.1252 578.16C 555.8948 578.16 564.6252 586.8904 564.6252 597.66L564.6252 597.66L564.6252 800.9536C 564.6252 811.7231 555.8948 820.4536 545.1252 820.4536L545.1252 820.4536L260.6739 820.4536C 249.9043 820.4536 241.1739 811.7231 241.1739 800.9536L241.1739 800.9536L241.1739 597.66C 241.1739 586.8904 249.9043 578.16 260.6739 578.16z" /></clipPath><clipPath id="18"><path id="" clip-rule="evenodd" transform="matrix(1 0 0 1 0 0)" d="M0 -0.249939L595.5 -0.249939L595.5 -0.249939L595.5 842.0001L595.5 842.0001L0 842.0001z" /></clipPath><clipPath id="19"><path id="" clip-rule="evenodd" transform="matrix(1 0 0 1 0 0)" d="M0 -0.249939L595.5 -0.249939L595.5 -0.249939L595.5 842.0001L595.5 842.0001L0 842.0001z" /></clipPath><clipPath id="20"><path id="" clip-rule="evenodd" transform="matrix(1 0 0 1 0 0)" d="M0 -0.249939L595.5 -0.249939L595.5 -0.249939L595.5 842.0001L595.5 842.0001L0 842.0001z" /></clipPath><clipPath id="21"><path id="" clip-rule="evenodd" transform="matrix(1 0 0 1 0 0)" d="M28.82379 363.0464L377.2615 363.0464L377.2615 363.0464L377.2615 552.4308L377.2615 552.4308L28.82379 552.4308z" /></clipPath><clipPath id="22"><path id="" clip-rule="evenodd" transform="matrix(1 0 0 1 0 0)" d="M48.32378 363.0464L357.6282 363.0464C 368.3978 363.0464 377.1282 371.7769 377.1282 382.5464L377.1282 382.5464L377.1282 532.9308C 377.1282 543.7004 368.3978 552.4308 357.6282 552.4308L357.6282 552.4308L48.32378 552.4308C 37.55423 552.4308 28.82379 543.7004 28.82379 532.9308L28.82379 532.9308L28.82379 382.5464C 28.82379 371.7769 37.55423 363.0464 48.32378 363.0464z" /></clipPath><clipPath id="23"><path id="" clip-rule="evenodd" transform="matrix(1 0 0 1 0 0)" d="M0 -0.249939L595.5 -0.249939L595.5 -0.249939L595.5 842.0001L595.5 842.0001L0 842.0001z" /></clipPath><clipPath id="24"><path id="" clip-rule="evenodd" transform="matrix(1 0 0 1 0 0)" d="M0 -0.249939L595.5 -0.249939L595.5 -0.249939L595.5 842.0001L595.5 842.0001L0 842.0001z" /></clipPath><clipPath id="25"><path id="" clip-rule="evenodd" transform="matrix(1 0 0 1 0 0)" d="M0 -0.249939L595.5 -0.249939L595.5 -0.249939L595.5 842.0001L595.5 842.0001L0 842.0001z" /></clipPath><clipPath id="26"><path id="" clip-rule="evenodd" transform="matrix(1 0 0 1 0 0)" d="M28.82379 108.5707L140.5738 108.5707L140.5738 108.5707L140.5738 223.3207L140.5738 223.3207L28.82379 223.3207z" /></clipPath><clipPath id="27"><path id="" clip-rule="evenodd" transform="matrix(1 0 0 1 0 0)" d="M28.82379 136.3207L28.82379 195.0219C 28.82379 210.3478 41.24788 222.7719 56.57379 222.7719L56.57379 222.7719L112.7719 222.7719C 128.0979 222.7719 140.5219 210.3478 140.5219 195.0219L140.5219 195.0219L140.5219 136.3207C 140.5219 120.9948 128.0979 108.5707 112.7719 108.5707L112.7719 108.5707L56.57379 108.5707C 41.24788 108.5707 28.82379 120.9948 28.82379 136.3207z" /></clipPath><clipPath id="28"><path id="" clip-rule="evenodd" transform="matrix(1 0 0 1 0 0)" d="M28.82379 108.5707L140.5738 108.5707L140.5738 108.5707L140.5738 222.5707L140.5738 222.5707L28.82379 222.5707z" /></clipPath><clipPath id="29"><path id="" clip-rule="evenodd" transform="matrix(1 0 0 1 0 0)" d="M0 -0.249939L595.5 -0.249939L595.5 -0.249939L595.5 842.0001L595.5 842.0001L0 842.0001z" /></clipPath><clipPath id="30"><path id="" clip-rule="evenodd" transform="matrix(1 0 0 1 0 0)" d="M0 -0.249939L595.5 -0.249939L595.5 -0.249939L595.5 842.0001L595.5 842.0001L0 842.0001z" /></clipPath><clipPath id="31"><path id="" clip-rule="evenodd" transform="matrix(1 0 0 1 0 0)" d="M81.16327 230.6299L182.4133 230.6299L182.4133 230.6299L182.4133 337.1299L182.4133 337.1299L81.16327 337.1299z" /></clipPath><clipPath id="32"><path id="" clip-rule="evenodd" transform="matrix(1 0 0 1 0 0)" d="M81.16327 258.3799L81.16327 309.0583C 81.16327 324.3843 93.58737 336.8084 108.9133 336.8084L108.9133 336.8084L154.66 336.8084C 169.9859 336.8084 182.41 324.3843 182.41 309.0583L182.41 309.0583L182.41 258.3799C 182.41 243.054 169.9859 230.6299 154.66 230.6299L154.66 230.6299L108.9133 230.6299C 93.58737 230.6299 81.16327 243.054 81.16327 258.3799z" /></clipPath><clipPath id="33"><path id="" clip-rule="evenodd" transform="matrix(1 0 0 1 0 0)" d="M81.16327 230.6299L182.4133 230.6299L182.4133 230.6299L182.4133 337.1299L182.4133 337.1299L81.16327 337.1299z" /></clipPath><clipPath id="34"><path id="" clip-rule="evenodd" transform="matrix(1 0 0 1 0 0)" d="M0 -0.249939L595.5 -0.249939L595.5 -0.249939L595.5 842.0001L595.5 842.0001L0 842.0001z" /></clipPath><clipPath id="35"><path id="" clip-rule="evenodd" transform="matrix(1 0 0 1 0 0)" d="M0 -0.249939L595.5 -0.249939L595.5 -0.249939L595.5 842.0001L595.5 842.0001L0 842.0001z" /></clipPath><clipPath id="36"><path id="" clip-rule="evenodd" transform="matrix(1 0 0 1 0 0)" d="M393.8233 402.8337L564.8234 402.8337L564.8234 402.8337L564.8234 530.3337L564.8234 530.3337L393.8233 530.3337z" /></clipPath><clipPath id="37"><path id="" clip-rule="evenodd" transform="matrix(1 0 0 1 0 0)" d="M393.8233 430.5837L393.8233 502.1176C 393.8233 517.4435 406.2474 529.8676 421.5733 529.8676L421.5733 529.8676L536.8752 529.8676C 552.2011 529.8676 564.6252 517.4435 564.6252 502.1176L564.6252 502.1176L564.6252 430.5837C 564.6252 415.2578 552.2011 402.8337 536.8752 402.8337L536.8752 402.8337L421.5733 402.8337C 406.2474 402.8337 393.8233 415.2578 393.8233 430.5837z" /></clipPath><clipPath id="38"><path id="" clip-rule="evenodd" transform="matrix(1 0 0 1 0 0)" d="M393.8233 402.8337L564.8234 402.8337L564.8234 402.8337L564.8234 529.5837L564.8234 529.5837L393.8233 529.5837z" /></clipPath><clipPath id="39"><path id="" clip-rule="evenodd" transform="matrix(1 0 0 1 0 0)" d="M0 -0.249939L595.5 -0.249939L595.5 -0.249939L595.5 842.0001L595.5 842.0001L0 842.0001z" /></clipPath><clipPath id="40"><path id="" clip-rule="evenodd" transform="matrix(1 0 0 1 0 0)" d="M0 -0.249939L595.5 -0.249939L595.5 -0.249939L595.5 842.0001L595.5 842.0001L0 842.0001z" /></clipPath><clipPath id="41"><path id="" clip-rule="evenodd" transform="matrix(1 0 0 1 0 0)" d="M28.82379 578.16L161.5738 578.16L161.5738 578.16L161.5738 691.41L161.5738 691.41L28.82379 691.41z" /></clipPath><clipPath id="42"><path id="" clip-rule="evenodd" transform="matrix(1 0 0 1 0 0)" d="M28.82379 605.91L28.82379 662.9518C 28.82379 678.2778 41.24788 690.7018 56.57379 690.7018L56.57379 690.7018L133.7001 690.7018C 149.026 690.7018 161.45 678.2778 161.45 662.9518L161.45 662.9518L161.45 605.91C 161.45 590.584 149.026 578.16 133.7001 578.16L133.7001 578.16L56.57379 578.16C 41.24788 578.16 28.82379 590.584 28.82379 605.91z" /></clipPath><clipPath id="43"><path id="" clip-rule="evenodd" transform="matrix(1 0 0 1 0 0)" d="M28.82379 578.16L161.5738 578.16L161.5738 578.16L161.5738 690.66L161.5738 690.66L28.82379 690.66z" /></clipPath><clipPath id="44"><path id="" clip-rule="evenodd" transform="matrix(1 0 0 1 0 0)" d="M0 -0.249939L595.5 -0.249939L595.5 -0.249939L595.5 842.0001L595.5 842.0001L0 842.0001z" /></clipPath><clipPath id="45"><path id="" clip-rule="evenodd" transform="matrix(1 0 0 1 0 0)" d="M0 -0.249939L595.5 -0.249939L595.5 -0.249939L595.5 842.0001L595.5 842.0001L0 842.0001z" /></clipPath><clipPath id="46"><path id="" clip-rule="evenodd" transform="matrix(1 0 0 1 0 0)" d="M84.67287 701.186L216.6729 701.186L216.6729 701.186L216.6729 822.686L216.6729 822.686L84.67287 822.686z" /></clipPath><clipPath id="47"><path id="" clip-rule="evenodd" transform="matrix(1 0 0 1 0 0)" d="M84.67287 728.936L84.67287 794.5828C 84.67287 809.9087 97.09698 822.3328 112.4229 822.3328L112.4229 822.3328L188.507 822.3328C 203.8329 822.3328 216.257 809.9087 216.257 794.5828L216.257 794.5828L216.257 728.936C 216.257 713.61 203.8329 701.186 188.507 701.186L188.507 701.186L112.4229 701.186C 97.09698 701.186 84.67287 713.61 84.67287 728.936z" /></clipPath><clipPath id="48"><path id="" clip-rule="evenodd" transform="matrix(1 0 0 1 0 0)" d="M84.67287 701.186L215.9229 701.186L215.9229 701.186L215.9229 822.686L215.9229 822.686L84.67287 822.686z" /></clipPath></defs><g transform="matrix(1.333333 0 0 1.333333 0 0)"><g clip-path="url(#1)"><g clip-path="url(#2)"><path id="1" transform="matrix(1 0 0 -1 0 842)" d="M0 842.2499L595.4999 842.2499L595.4999 -6.103516E-05L0 -6.103516E-05z" stroke="none" fill="#FFFFFF" fill-rule="nonzero" /></g><g clip-path="url(#3)"><path id="2" transform="matrix(1 0 0 -1 0 842)" d="M0 842.2499L595.4999 842.2499L595.4999 -6.103516E-05L0 -6.103516E-05z" stroke="none" fill="#FFFFFF" fill-rule="nonzero" /></g><g clip-path="url(#4)"><g><g clip-path="url(#5)"><g clip-path="url(#6)"><g transform="matrix(0 0.5281065 -0.5283893 0 537.0154 19.05261)"><g transform="matrix(1 0 0 1 0 0)"><image x="0" y="0" xlink:href="img_01.png" width="1521" height="863" /></g></g></g></g></g></g><g clip-path="url(#7)"><g transform="matrix(0.05571992 0 0 0.05561992 466.4401 23.61584)"><g transform="matrix(1 0 0 1 0 0)"><image x="0" y="0" xlink:href="img_02.png" width="1521" height="863" /></g></g></g><g clip-path="url(#8)"><g transform="matrix(0.4225352 0 0 0.4228723 38.88755 10.32037)"><g transform="matrix(1 0 0 1 0 0)"><image x="0" y="0" xlink:href="img_03.png" width="213" height="188" /></g></g></g><g clip-path="url(#9)"><g clip-path="url(#10)"><g clip-path="url(#11)"><g clip-path="url(#12)"><path id="6" transform="matrix(1 0 0 -1 0 842)" d="M211.3976 733.2645L571.6697 733.2645L571.6697 487.9728L211.3976 487.9728z" stroke="none" fill="#D6E0E5" fill-rule="nonzero" /></g></g></g></g><g clip-path="url(#13)"></g><g clip-path="url(#14)"><g clip-path="url(#15)"><g clip-path="url(#16)"><g clip-path="url(#17)"><path id="421" transform="matrix(1 0 0 -1 0 842)" d="M241.1739 263.84L564.863 263.84L564.863 21.54637L241.1739 21.54637z" stroke="none" fill="#D6E0E5" fill-rule="nonzero" /></g></g></g></g><g clip-path="url(#18)"></g><g clip-path="url(#19)"><g clip-path="url(#20)"><g clip-path="url(#21)"><g clip-path="url(#22)"><path id="746" transform="matrix(1 0 0 -1 0 842)" d="M28.82379 478.9535L377.2615 478.9535L377.2615 289.5691L28.82379 289.5691z" stroke="none" fill="#D6E0E5" fill-rule="nonzero" /></g></g></g></g><g clip-path="url(#23)"></g><g clip-path="url(#24)"><g clip-path="url(#25)"><g clip-path="url(#26)"><g clip-path="url(#27)"><g clip-path="url(#28)"><g transform="matrix(0.5197675 0 0 0.5205479 28.82379 108.5707)"><g transform="matrix(1 0 0 1 0 0)"><image x="0" y="0" xlink:href="img_04.png" width="215" height="219" /></g></g></g></g></g></g></g><g clip-path="url(#29)"><g clip-path="url(#30)"><g clip-path="url(#31)"><g clip-path="url(#32)"><g clip-path="url(#33)"><g transform="matrix(0.5785714 0 0 0.5819672 81.16327 230.6299)"><g transform="matrix(1 0 0 1 0 0)"><image x="0" y="0" xlink:href="img_05.png" width="175" height="183" /></g></g></g></g></g></g></g><g clip-path="url(#34)"><g clip-path="url(#35)"><g clip-path="url(#36)"><g clip-path="url(#37)"><g clip-path="url(#38)"><g transform="matrix(0.59375 0 0 0.5895348 393.8233 402.8337)"><g transform="matrix(1 0 0 1 0 0)"><image x="0" y="0" xlink:href="img_06.png" width="288" height="215" /></g></g></g></g></g></g></g><g clip-path="url(#39)"><g clip-path="url(#40)"><g clip-path="url(#41)"><g clip-path="url(#42)"><g clip-path="url(#43)"><g transform="matrix(0.5771738 0 0 0.5769231 28.82379 578.16)"><g transform="matrix(1 0 0 1 0 0)"><image x="0" y="0" xlink:href="img_07.png" width="230" height="195" /></g></g></g></g></g></g></g><g clip-path="url(#44)"><g clip-path="url(#45)"><g clip-path="url(#46)"><g clip-path="url(#47)"><g clip-path="url(#48)"><g transform="matrix(0.6191037 0 0 0.6230769 84.67287 701.186)"><g transform="matrix(1 0 0 1 0 0)"><image x="0" y="0" xlink:href="img_08.png" width="212" height="195" /></g></g></g></g></g></g></g></g></g></svg>