<svg xmlns="http://www.w3.org/2000/svg" xmlns:xlink="http://www.w3.org/1999/xlink" id="body_1" preserveAspectRatio="xMinYMin meet" viewBox="0 0 793 1123"><defs><clipPath id="1"><path id="" clip-rule="evenodd" transform="matrix(1 0 0 1 0 0)" d="M0 842L0 -0.250061L0 -0.250061L595.5 -0.250061L595.5 -0.250061L595.5 842L595.5 842L0 842z" /></clipPath><clipPath id="2"><path id="" clip-rule="evenodd" transform="matrix(1 0 0 1 0 0)" d="M0 -0.25L595.5 -0.25L595.5 -0.25L595.5 842.0012L595.5 842.0012L0 842.0012z" /></clipPath><clipPath id="3"><path id="" clip-rule="evenodd" transform="matrix(1 0 0 1 0 0)" d="M0 -0.25L595.5 -0.25L595.5 -0.25L595.5 842.0012L595.5 842.0012L0 842.0012z" /></clipPath><clipPath id="4"><path id="" clip-rule="evenodd" transform="matrix(1 0 0 1 0 0)" d="M0 -0.25L595.5 -0.25L595.5 -0.25L595.5 842.0012L595.5 842.0012L0 842.0012z" /></clipPath><clipPath id="5"><path id="" clip-rule="evenodd" transform="matrix(1 0 0 1 0 0)" d="M78.71999 30.71002L522.24 30.71002L522.24 30.71002L522.24 810.95L522.24 810.95L78.71999 810.95z" /></clipPath><clipPath id="6"><path id="" clip-rule="evenodd" transform="matrix(1 0 0 1 0 0)" d="M79.51786 30.75177L522.0178 30.75177L522.0178 30.75177L522.0178 810.7518L522.0178 810.7518L79.51786 810.7518z" /></clipPath><clipPath id="7"><path id="" clip-rule="evenodd" transform="matrix(1 0 0 1 0 0)" d="M0 -0.25L595.5 -0.25L595.5 -0.25L595.5 842.0012L595.5 842.0012L0 842.0012z" /></clipPath><clipPath id="8"><path id="" clip-rule="evenodd" transform="matrix(1 0 0 1 0 0)" d="M0 -0.25L595.5 -0.25L595.5 -0.25L595.5 842.0012L595.5 842.0012L0 842.0012z" /></clipPath><clipPath id="9"><path id="" clip-rule="evenodd" transform="matrix(1 0 0 1 0 0)" d="M502.0511 37.68103L449.0184 90.71411L449.0184 90.71411L395.9856 37.68103L395.9856 37.68103L449.0184 -15.35199L449.0184 -15.35199L502.0511 37.68103z" /></clipPath><clipPath id="10"><path id="" clip-rule="evenodd" transform="matrix(1 0 0 1 0 0)" d="M502.0511 37.68103L449.0184 90.71411L449.0184 90.71411L395.9856 37.68103L395.9856 37.68103L449.0184 -15.35199L449.0184 -15.35199L502.0511 37.68103z" /></clipPath><clipPath id="11"><path id="" clip-rule="evenodd" transform="matrix(1 0 0 1 0 0)" d="M248.832 90.53601L595.332 90.53601L595.332 90.53601L595.332 274.286L595.332 274.286L248.832 274.286z" /></clipPath><clipPath id="12"><path id="" clip-rule="evenodd" transform="matrix(1 0 0 1 0 0)" d="M0 -0.25L595.5 -0.25L595.5 -0.25L595.5 842.0012L595.5 842.0012L0 842.0012z" /></clipPath><clipPath id="13"><path id="" clip-rule="evenodd" transform="matrix(1 0 0 1 0 0)" d="M0 -0.25L595.5 -0.25L595.5 -0.25L595.5 842.0012L595.5 842.0012L0 842.0012z" /></clipPath><clipPath id="14"><path id="" clip-rule="evenodd" transform="matrix(1 0 0 1 0 0)" d="M0 -0.25L595.5 -0.25L595.5 -0.25L595.5 842.0012L595.5 842.0012L0 842.0012z" /></clipPath><clipPath id="15"><path id="" clip-rule="evenodd" transform="matrix(1 0 0 1 0 0)" d="M59.52744 107.0283L194.8966 107.0283L194.8966 107.0283L194.8966 241.3481L194.8966 241.3481L59.52744 241.3481z" /></clipPath><clipPath id="16"><path id="" clip-rule="evenodd" transform="matrix(1 0 0 1 0 0)" d="M72.27744 107.0283L181.6565 107.0283C 188.6983 107.0283 194.4065 112.7367 194.4065 119.7783L194.4065 119.7783L194.4065 228.5981C 194.4065 235.6398 188.6983 241.3484 181.6565 241.3484L181.6565 241.3484L72.27744 241.3484C 65.23584 241.3484 59.52744 235.6398 59.52744 228.5981L59.52744 228.5981L59.52744 119.7783C 59.52744 112.7367 65.23584 107.0283 72.27744 107.0283z" /></clipPath><clipPath id="17"><path id="" clip-rule="evenodd" transform="matrix(1 0 0 1 0 0)" d="M59.52744 107.0283L194.3719 107.0283L194.3719 107.0283L194.3719 241.3481L194.3719 241.3481L59.52744 241.3481z" /></clipPath><clipPath id="18"><path id="" clip-rule="evenodd" transform="matrix(1 0 0 1 0 0)" d="M0 -0.25L595.5 -0.25L595.5 -0.25L595.5 842.0012L595.5 842.0012L0 842.0012z" /></clipPath><clipPath id="19"><path id="" clip-rule="evenodd" transform="matrix(1 0 0 1 0 0)" d="M0 -0.25L595.5 -0.25L595.5 -0.25L595.5 842.0012L595.5 842.0012L0 842.0012z" /></clipPath><clipPath id="20"><path id="" clip-rule="evenodd" transform="matrix(1 0 0 1 0 0)" d="M59.52744 107.0283L194.5274 107.0283L194.5274 107.0283L194.5274 241.2783L194.5274 241.2783L59.52744 241.2783z" /></clipPath><clipPath id="21"><path id="" clip-rule="evenodd" transform="matrix(1 0 0 1 0 0)" d="M59.52912 107.0283L195.9362 107.0283L195.9362 107.0283L195.9362 241.3369L195.9362 241.3369L59.52912 241.3369z" /></clipPath><clipPath id="22"><path id="" clip-rule="evenodd" transform="matrix(1 0 0 1 0 0)" d="M72.27816 107.0283L181.6481 107.0283C 188.6889 107.0283 194.3969 112.7362 194.3969 119.7773L194.3969 119.7773L194.3969 228.5881C 194.3969 235.629 188.6889 241.3364 181.6481 241.3364L181.6481 241.3364L72.27816 241.3364C 65.23705 241.3364 59.52912 235.629 59.52912 228.5881L59.52912 228.5881L59.52912 119.7773C 59.52912 112.7362 65.23705 107.0283 72.27816 107.0283z" /></clipPath><clipPath id="23"><path id="" clip-rule="evenodd" transform="matrix(1 0 0 1 0 0)" d="M0 -0.25L595.5 -0.25L595.5 -0.25L595.5 842.0012L595.5 842.0012L0 842.0012z" /></clipPath><clipPath id="24"><path id="" clip-rule="evenodd" transform="matrix(1 0 0 1 0 0)" d="M0 -0.25L595.5 -0.25L595.5 -0.25L595.5 842.0012L595.5 842.0012L0 842.0012z" /></clipPath><clipPath id="25"><path id="" clip-rule="evenodd" transform="matrix(1 0 0 1 0 0)" d="M272.796 204.1265L274.3776 236.3376L274.3776 236.3376L176.9945 241.1156L176.9945 241.1156L175.4138 208.905L175.4138 208.905L272.796 204.1265z" /></clipPath><clipPath id="26"><path id="" clip-rule="evenodd" transform="matrix(1 0 0 1 0 0)" d="M274.3896 236.5834L272.808 204.3723L272.808 204.3723L175.4261 209.1507L175.4261 209.1507L177.0065 241.3628L177.0065 241.3628L274.3896 236.5834z" /></clipPath><clipPath id="27"><path id="" clip-rule="evenodd" transform="matrix(1 0 0 1 0 0)" d="M274.3896 236.5834L272.808 204.3723L272.808 204.3723L175.4261 209.1507L175.4261 209.1507L177.0065 241.3628L177.0065 241.3628L274.3896 236.5834z" /></clipPath><clipPath id="28"><path id="" clip-rule="evenodd" transform="matrix(1 0 0 1 0 0)" d="M0 -0.25L595.5 -0.25L595.5 -0.25L595.5 842.0012L595.5 842.0012L0 842.0012z" /></clipPath><clipPath id="29"><path id="" clip-rule="evenodd" transform="matrix(1 0 0 1 0 0)" d="M492.5736 13.18188L578.8235 13.18188L578.8235 13.18188L578.8235 61.93188L578.8235 61.93188L492.5736 61.93188z" /></clipPath><clipPath id="30"><path id="" clip-rule="evenodd" transform="matrix(1 0 0 1 0 0)" d="M0 -0.25L595.5 -0.25L595.5 -0.25L595.5 842.0012L595.5 842.0012L0 842.0012z" /></clipPath><clipPath id="31"><path id="" clip-rule="evenodd" transform="matrix(1 0 0 1 0 0)" d="M0 -0.25L595.5 -0.25L595.5 -0.25L595.5 842.0012L595.5 842.0012L0 842.0012z" /></clipPath><clipPath id="32"><path id="" clip-rule="evenodd" transform="matrix(1 0 0 1 0 0)" d="M553.872 169.6436L583.872 169.6436L583.872 169.6436L583.872 194.3936L583.872 194.3936L553.872 194.3936z" /></clipPath><clipPath id="33"><path id="" clip-rule="evenodd" transform="matrix(1 0 0 1 0 0)" d="M553.872 182.0101C 553.872 188.84 559.4088 194.3768 566.2368 194.3768L566.2368 194.3768L571.284 194.3768C 578.1144 194.3768 583.6512 188.84 583.6512 182.0101C 583.6512 175.1802 578.1144 169.6436 571.284 169.6436L571.284 169.6436L566.2368 169.6436C 559.4088 169.6436 553.872 175.1802 553.872 182.0101z" /></clipPath><clipPath id="34"><path id="" clip-rule="evenodd" transform="matrix(1 0 0 1 0 0)" d="M554.6208 170.3936L583.1208 170.3936L583.1208 170.3936L583.1208 193.6436L583.1208 193.6436L554.6208 193.6436z" /></clipPath><clipPath id="35"><path id="" clip-rule="evenodd" transform="matrix(1 0 0 1 0 0)" d="M566.2368 170.5436L571.284 170.5436C 577.6176 170.5436 582.7512 175.6774 582.7512 182.0101C 582.7512 188.343 577.6176 193.4768 571.284 193.4768L571.284 193.4768L566.2368 193.4768C 559.9056 193.4768 554.772 188.343 554.772 182.0101C 554.772 175.6774 559.9056 170.5436 566.2368 170.5436z" /></clipPath><clipPath id="36"><path id="" clip-rule="evenodd" transform="matrix(1 0 0 1 0 0)" d="M0 -0.25L595.5 -0.25L595.5 -0.25L595.5 842.0012L595.5 842.0012L0 842.0012z" /></clipPath><clipPath id="37"><path id="" clip-rule="evenodd" transform="matrix(1 0 0 1 0 0)" d="M0 -0.25L595.5 -0.25L595.5 -0.25L595.5 842.0012L595.5 842.0012L0 842.0012z" /></clipPath><clipPath id="38"><path id="" clip-rule="evenodd" transform="matrix(1 0 0 1 0 0)" d="M553.872 169.6436L583.872 169.6436L583.872 169.6436L583.872 194.3936L583.872 194.3936L553.872 194.3936z" /></clipPath><clipPath id="39"><path id="" clip-rule="evenodd" transform="matrix(1 0 0 1 0 0)" d="M553.872 182.0101C 553.872 188.84 559.4088 194.3768 566.2368 194.3768L566.2368 194.3768L571.284 194.3768C 578.1144 194.3768 583.6512 188.84 583.6512 182.0101C 583.6512 175.1802 578.1144 169.6436 571.284 169.6436L571.284 169.6436L566.2368 169.6436C 559.4088 169.6436 553.872 175.1802 553.872 182.0101z" /></clipPath><clipPath id="40"><path id="" clip-rule="evenodd" transform="matrix(1 0 0 1 0 0)" d="M553.872 169.6436L583.872 169.6436L583.872 169.6436L583.872 194.3936L583.872 194.3936L553.872 194.3936z" /></clipPath><clipPath id="41"><path id="" clip-rule="evenodd" transform="matrix(1 0 0 1 0 0)" d="M553.872 169.6436L583.8689 169.6436L583.8689 169.6436L583.8689 194.3868L583.8689 194.3868L553.872 194.3868z" /></clipPath><clipPath id="42"><path id="" clip-rule="evenodd" transform="matrix(1 0 0 1 0 0)" d="M553.872 182.0067C 553.872 188.835 559.4064 194.3701 566.2368 194.3701L566.2368 194.3701L571.284 194.3701C 578.112 194.3701 583.6488 188.835 583.6488 182.0067C 583.6488 175.1787 578.112 169.6436 571.284 169.6436L571.284 169.6436L566.2368 169.6436C 559.4064 169.6436 553.872 175.1787 553.872 182.0067z" /></clipPath><clipPath id="43"><path id="" clip-rule="evenodd" transform="matrix(1 0 0 1 0 0)" d="M0 -0.25L595.5 -0.25L595.5 -0.25L595.5 842.0012L595.5 842.0012L0 842.0012z" /></clipPath><clipPath id="44"><path id="" clip-rule="evenodd" transform="matrix(1 0 0 1 0 0)" d="M0 250.3484L348.648 250.3484L348.648 250.3484L348.648 440.0984L348.648 440.0984L0 440.0984z" /></clipPath><clipPath id="45"><path id="" clip-rule="evenodd" transform="matrix(1 0 0 1 0 0)" d="M0 -0.25L595.5 -0.25L595.5 -0.25L595.5 842.0012L595.5 842.0012L0 842.0012z" /></clipPath><clipPath id="46"><path id="" clip-rule="evenodd" transform="matrix(1 0 0 1 0 0)" d="M0 -0.25L595.5 -0.25L595.5 -0.25L595.5 842.0012L595.5 842.0012L0 842.0012z" /></clipPath><clipPath id="47"><path id="" clip-rule="evenodd" transform="matrix(1 0 0 1 0 0)" d="M0 -0.25L595.5 -0.25L595.5 -0.25L595.5 842.0012L595.5 842.0012L0 842.0012z" /></clipPath><clipPath id="48"><path id="" clip-rule="evenodd" transform="matrix(1 0 0 1 0 0)" d="M405.6312 282.926L553.943 282.926L553.943 282.926L553.943 407.8203L553.943 407.8203L405.6312 407.8203z" /></clipPath><clipPath id="49"><path id="" clip-rule="evenodd" transform="matrix(1 0 0 1 0 0)" d="M418.38 282.926L541.1208 282.926C 544.5024 282.926 547.7448 284.27 550.1376 286.6604C 552.528 289.0532 553.872 292.2956 553.872 295.6772L553.872 295.6772L553.872 395.0708C 553.872 398.4524 552.528 401.6948 550.1376 404.0876C 547.7448 406.478 544.5024 407.822 541.1208 407.822L541.1208 407.822L418.38 407.822C 414.9984 407.822 411.756 406.478 409.3656 404.0876C 406.9752 401.6948 405.6312 398.4524 405.6312 395.0708L405.6312 395.0708L405.6312 295.6772C 405.6312 292.2956 406.9752 289.0532 409.3656 286.6604C 411.756 284.27 414.9984 282.926 418.38 282.926z" /></clipPath><clipPath id="50"><path id="" clip-rule="evenodd" transform="matrix(1 0 0 1 0 0)" d="M405.6312 282.926L553.943 282.926L553.943 282.926L553.943 407.8203L553.943 407.8203L405.6312 407.8203z" /></clipPath><clipPath id="51"><path id="" clip-rule="evenodd" transform="matrix(1 0 0 1 0 0)" d="M0 -0.25L595.5 -0.25L595.5 -0.25L595.5 842.0012L595.5 842.0012L0 842.0012z" /></clipPath><clipPath id="52"><path id="" clip-rule="evenodd" transform="matrix(1 0 0 1 0 0)" d="M0 -0.25L595.5 -0.25L595.5 -0.25L595.5 842.0012L595.5 842.0012L0 842.0012z" /></clipPath><clipPath id="53"><path id="" clip-rule="evenodd" transform="matrix(1 0 0 1 0 0)" d="M405.6312 282.926L554.1312 282.926L554.1312 282.926L554.1312 408.176L554.1312 408.176L405.6312 408.176z" /></clipPath><clipPath id="54"><path id="" clip-rule="evenodd" transform="matrix(1 0 0 1 0 0)" d="M405.6312 282.9284L553.9332 282.9284L553.9332 282.9284L553.9332 407.8143L553.9332 407.8143L405.6312 407.8143z" /></clipPath><clipPath id="55"><path id="" clip-rule="evenodd" transform="matrix(1 0 0 1 0 0)" d="M418.38 282.9284L541.1111 282.9284C 544.4928 282.9284 547.7352 284.27 550.128 286.6604C 552.5184 289.0532 553.8624 292.2956 553.8624 295.6772L553.8624 295.6772L553.8624 395.0636C 553.8624 398.4452 552.5184 401.6876 550.128 404.078C 547.7352 406.4708 544.4928 407.8124 541.1111 407.8124L541.1111 407.8124L418.38 407.8124C 414.9984 407.8124 411.756 406.4708 409.3656 404.078C 406.9752 401.6876 405.6312 398.4452 405.6312 395.0636L405.6312 395.0636L405.6312 295.6772C 405.6312 292.2956 406.9752 289.0532 409.3656 286.6604C 411.756 284.27 414.9984 282.9284 418.38 282.9284z" /></clipPath><clipPath id="56"><path id="" clip-rule="evenodd" transform="matrix(1 0 0 1 0 0)" d="M0 -0.25L595.5 -0.25L595.5 -0.25L595.5 842.0012L595.5 842.0012L0 842.0012z" /></clipPath><clipPath id="57"><path id="" clip-rule="evenodd" transform="matrix(1 0 0 1 0 0)" d="M0 -0.25L595.5 -0.25L595.5 -0.25L595.5 842.0012L595.5 842.0012L0 842.0012z" /></clipPath><clipPath id="58"><path id="" clip-rule="evenodd" transform="matrix(1 0 0 1 0 0)" d="M412.7136 366.4292L414.2928 398.6396L414.2928 398.6396L316.9104 403.418L316.9104 403.418L315.3312 371.2076L315.3312 371.2076L412.7136 366.4292z" /></clipPath><clipPath id="59"><path id="" clip-rule="evenodd" transform="matrix(1 0 0 1 0 0)" d="M317.2848 403.646L315.7056 371.4356L315.7056 371.4356L413.088 366.6572L413.088 366.6572L414.6696 398.8676L414.6696 398.8676L317.2848 403.646z" /></clipPath><clipPath id="60"><path id="" clip-rule="evenodd" transform="matrix(1 0 0 1 0 0)" d="M317.2848 403.646L315.7056 371.4356L315.7056 371.4356L413.088 366.6572L413.088 366.6572L414.6696 398.8676L414.6696 398.8676L317.2848 403.646z" /></clipPath><clipPath id="61"><path id="" clip-rule="evenodd" transform="matrix(1 0 0 1 0 0)" d="M0 -0.25L595.5 -0.25L595.5 -0.25L595.5 842.0012L595.5 842.0012L0 842.0012z" /></clipPath><clipPath id="62"><path id="" clip-rule="evenodd" transform="matrix(1 0 0 1 0 0)" d="M0 -0.25L595.5 -0.25L595.5 -0.25L595.5 842.0012L595.5 842.0012L0 842.0012z" /></clipPath><clipPath id="63"><path id="" clip-rule="evenodd" transform="matrix(1 0 0 1 0 0)" d="M23.01113 333.0068L53.01113 333.0068L53.01113 333.0068L53.01113 357.7568L53.01113 357.7568L23.01113 357.7568z" /></clipPath><clipPath id="64"><path id="" clip-rule="evenodd" transform="matrix(1 0 0 1 0 0)" d="M23.01113 345.374C 23.01113 352.2044 28.54776 357.7412 35.37768 357.7412L35.37768 357.7412L40.42488 357.7412C 47.2548 357.7412 52.7916 352.2044 52.7916 345.374C 52.7916 338.5436 47.2548 333.0068 40.42488 333.0068L40.42488 333.0068L35.37768 333.0068C 28.54776 333.0068 23.01113 338.5436 23.01113 345.374z" /></clipPath><clipPath id="65"><path id="" clip-rule="evenodd" transform="matrix(1 0 0 1 0 0)" d="M23.76113 333.758L52.26113 333.758L52.26113 333.758L52.26113 357.008L52.26113 357.008L23.76113 357.008z" /></clipPath><clipPath id="66"><path id="" clip-rule="evenodd" transform="matrix(1 0 0 1 0 0)" d="M35.37768 333.9068L40.42488 333.9068C 46.75776 333.9068 51.8916 339.0404 51.8916 345.374C 51.8916 351.7076 46.75776 356.8412 40.42488 356.8412L40.42488 356.8412L35.37768 356.8412C 29.0448 356.8412 23.91113 351.7076 23.91113 345.374C 23.91113 339.0404 29.0448 333.9068 35.37768 333.9068z" /></clipPath><clipPath id="67"><path id="" clip-rule="evenodd" transform="matrix(1 0 0 1 0 0)" d="M0 -0.25L595.5 -0.25L595.5 -0.25L595.5 842.0012L595.5 842.0012L0 842.0012z" /></clipPath><clipPath id="68"><path id="" clip-rule="evenodd" transform="matrix(1 0 0 1 0 0)" d="M0 -0.25L595.5 -0.25L595.5 -0.25L595.5 842.0012L595.5 842.0012L0 842.0012z" /></clipPath><clipPath id="69"><path id="" clip-rule="evenodd" transform="matrix(1 0 0 1 0 0)" d="M23.01113 333.0068L53.01113 333.0068L53.01113 333.0068L53.01113 357.7568L53.01113 357.7568L23.01113 357.7568z" /></clipPath><clipPath id="70"><path id="" clip-rule="evenodd" transform="matrix(1 0 0 1 0 0)" d="M23.01113 345.374C 23.01113 352.2044 28.54776 357.7412 35.37768 357.7412L35.37768 357.7412L40.42488 357.7412C 47.2548 357.7412 52.7916 352.2044 52.7916 345.374C 52.7916 338.5436 47.2548 333.0068 40.42488 333.0068L40.42488 333.0068L35.37768 333.0068C 28.54776 333.0068 23.01113 338.5436 23.01113 345.374z" /></clipPath><clipPath id="71"><path id="" clip-rule="evenodd" transform="matrix(1 0 0 1 0 0)" d="M23.01113 333.0068L53.01113 333.0068L53.01113 333.0068L53.01113 357.7568L53.01113 357.7568L23.01113 357.7568z" /></clipPath><clipPath id="72"><path id="" clip-rule="evenodd" transform="matrix(1 0 0 1 0 0)" d="M23.01113 333.0068L53.00801 333.0068L53.00801 333.0068L53.00801 357.7501L53.00801 357.7501L23.01113 357.7501z" /></clipPath><clipPath id="73"><path id="" clip-rule="evenodd" transform="matrix(1 0 0 1 0 0)" d="M23.01113 345.3716C 23.01113 352.1996 28.54728 357.734 35.37648 357.734L35.37648 357.734L40.4232 357.734C 47.2524 357.734 52.78848 352.1996 52.78848 345.3716C 52.78848 338.5436 47.2524 333.0068 40.4232 333.0068L40.4232 333.0068L35.37648 333.0068C 28.54728 333.0068 23.01113 338.5436 23.01113 345.3716z" /></clipPath><clipPath id="74"><path id="" clip-rule="evenodd" transform="matrix(1 0 0 1 0 0)" d="M0 -0.25L595.5 -0.25L595.5 -0.25L595.5 842.0012L595.5 842.0012L0 842.0012z" /></clipPath><clipPath id="75"><path id="" clip-rule="evenodd" transform="matrix(1 0 0 1 0 0)" d="M244.272 427.6868L595.272 427.6868L595.272 427.6868L595.272 614.4368L595.272 614.4368L244.272 614.4368z" /></clipPath><clipPath id="76"><path id="" clip-rule="evenodd" transform="matrix(1 0 0 1 0 0)" d="M0 -0.25L595.5 -0.25L595.5 -0.25L595.5 842.0012L595.5 842.0012L0 842.0012z" /></clipPath><clipPath id="77"><path id="" clip-rule="evenodd" transform="matrix(1 0 0 1 0 0)" d="M0 -0.25L595.5 -0.25L595.5 -0.25L595.5 842.0012L595.5 842.0012L0 842.0012z" /></clipPath><clipPath id="78"><path id="" clip-rule="evenodd" transform="matrix(1 0 0 1 0 0)" d="M0 -0.25L595.5 -0.25L595.5 -0.25L595.5 842.0012L595.5 842.0012L0 842.0012z" /></clipPath><clipPath id="79"><path id="" clip-rule="evenodd" transform="matrix(1 0 0 1 0 0)" d="M14.81251 453.0332L163.1244 453.0332L163.1244 453.0332L163.1244 577.9275L163.1244 577.9275L14.81251 577.9275z" /></clipPath><clipPath id="80"><path id="" clip-rule="evenodd" transform="matrix(1 0 0 1 0 0)" d="M27.56256 453.0332L150.3029 453.0332C 153.6845 453.0332 156.9274 454.3772 159.3185 456.7676C 161.7096 459.158 163.0529 462.4004 163.0529 465.782L163.0529 465.782L163.0529 565.178C 163.0529 568.5596 161.7096 571.802 159.3185 574.1924C 156.9274 576.5828 153.6845 577.9268 150.3029 577.9268L150.3029 577.9268L27.56256 577.9268C 24.18096 577.9268 20.93801 576.5828 18.54691 574.1924C 16.15582 571.802 14.81251 568.5596 14.81251 565.178L14.81251 565.178L14.81251 465.782C 14.81251 462.4004 16.15582 459.158 18.54691 456.7676C 20.93801 454.3772 24.18096 453.0332 27.56256 453.0332z" /></clipPath><clipPath id="81"><path id="" clip-rule="evenodd" transform="matrix(1 0 0 1 0 0)" d="M14.81251 453.0332L163.1244 453.0332L163.1244 453.0332L163.1244 577.9275L163.1244 577.9275L14.81251 577.9275z" /></clipPath><clipPath id="82"><path id="" clip-rule="evenodd" transform="matrix(1 0 0 1 0 0)" d="M0 -0.25L595.5 -0.25L595.5 -0.25L595.5 842.0012L595.5 842.0012L0 842.0012z" /></clipPath><clipPath id="83"><path id="" clip-rule="evenodd" transform="matrix(1 0 0 1 0 0)" d="M0 -0.25L595.5 -0.25L595.5 -0.25L595.5 842.0012L595.5 842.0012L0 842.0012z" /></clipPath><clipPath id="84"><path id="" clip-rule="evenodd" transform="matrix(1 0 0 1 0 0)" d="M14.81251 453.0332L163.3125 453.0332L163.3125 453.0332L163.3125 578.2832L163.3125 578.2832L14.81251 578.2832z" /></clipPath><clipPath id="85"><path id="" clip-rule="evenodd" transform="matrix(1 0 0 1 0 0)" d="M14.81251 453.0332L163.1145 453.0332L163.1145 453.0332L163.1145 577.9191L163.1145 577.9191L14.81251 577.9191z" /></clipPath><clipPath id="86"><path id="" clip-rule="evenodd" transform="matrix(1 0 0 1 0 0)" d="M27.5616 453.0332L150.2938 453.0332C 153.6751 453.0332 156.918 454.3772 159.3089 456.7676C 161.6998 459.158 163.043 462.4004 163.043 465.782L163.043 465.782L163.043 565.1708C 163.043 568.5524 161.6998 571.7948 159.3089 574.1852C 156.918 576.5756 153.6751 577.9196 150.2938 577.9196L150.2938 577.9196L27.5616 577.9196C 24.18048 577.9196 20.93757 576.5756 18.54665 574.1852C 16.15572 571.7948 14.81251 568.5524 14.81251 565.1708L14.81251 565.1708L14.81251 465.782C 14.81251 462.4004 16.15572 459.158 18.54665 456.7676C 20.93757 454.3772 24.18048 453.0332 27.5616 453.0332z" /></clipPath><clipPath id="87"><path id="" clip-rule="evenodd" transform="matrix(1 0 0 1 0 0)" d="M0 -0.25L595.5 -0.25L595.5 -0.25L595.5 842.0012L595.5 842.0012L0 842.0012z" /></clipPath><clipPath id="88"><path id="" clip-rule="evenodd" transform="matrix(1 0 0 1 0 0)" d="M0 -0.25L595.5 -0.25L595.5 -0.25L595.5 842.0012L595.5 842.0012L0 842.0012z" /></clipPath><clipPath id="89"><path id="" clip-rule="evenodd" transform="matrix(1 0 0 1 0 0)" d="M255.636 539.9756L257.5104 578.1812L257.5104 578.1812L144.397 583.73L144.397 583.73L142.5223 545.5268L142.5223 545.5268L255.636 539.9756z" /></clipPath><clipPath id="90"><path id="" clip-rule="evenodd" transform="matrix(1 0 0 1 0 0)" d="M257.4984 577.922L255.624 539.7188L255.624 539.7188L142.5096 545.27L142.5096 545.27L144.3842 583.4731L144.3842 583.4731L257.4984 577.922z" /></clipPath><clipPath id="91"><path id="" clip-rule="evenodd" transform="matrix(1 0 0 1 0 0)" d="M257.4984 577.922L255.624 539.7188L255.624 539.7188L142.5096 545.27L142.5096 545.27L144.3842 583.4731L144.3842 583.4731L257.4984 577.922z" /></clipPath><clipPath id="92"><path id="" clip-rule="evenodd" transform="matrix(1 0 0 1 0 0)" d="M0 -0.25L595.5 -0.25L595.5 -0.25L595.5 842.0012L595.5 842.0012L0 842.0012z" /></clipPath><clipPath id="93"><path id="" clip-rule="evenodd" transform="matrix(1 0 0 1 0 0)" d="M0 -0.25L595.5 -0.25L595.5 -0.25L595.5 842.0012L595.5 842.0012L0 842.0012z" /></clipPath><clipPath id="94"><path id="" clip-rule="evenodd" transform="matrix(1 0 0 1 0 0)" d="M543.9024 508.5548L573.9024 508.5548L573.9024 508.5548L573.9024 533.3048L573.9024 533.3048L543.9024 533.3048z" /></clipPath><clipPath id="95"><path id="" clip-rule="evenodd" transform="matrix(1 0 0 1 0 0)" d="M543.9024 520.922C 543.9024 527.7524 549.4392 533.2892 556.2696 533.2892L556.2696 533.2892L561.3168 533.2892C 568.1472 533.2892 573.684 527.7524 573.684 520.922C 573.684 514.0916 568.1472 508.5548 561.3168 508.5548L561.3168 508.5548L556.2696 508.5548C 549.4392 508.5548 543.9024 514.0916 543.9024 520.922z" /></clipPath><clipPath id="96"><path id="" clip-rule="evenodd" transform="matrix(1 0 0 1 0 0)" d="M544.6536 509.306L573.1536 509.306L573.1536 509.306L573.1536 532.556L573.1536 532.556L544.6536 532.556z" /></clipPath><clipPath id="97"><path id="" clip-rule="evenodd" transform="matrix(1 0 0 1 0 0)" d="M556.2696 509.4548L561.3168 509.4548C 567.6504 509.4548 572.784 514.5884 572.784 520.922C 572.784 527.2556 567.6504 532.3892 561.3168 532.3892L561.3168 532.3892L556.2696 532.3892C 549.936 532.3892 544.8024 527.2556 544.8024 520.922C 544.8024 514.5884 549.936 509.4548 556.2696 509.4548z" /></clipPath><clipPath id="98"><path id="" clip-rule="evenodd" transform="matrix(1 0 0 1 0 0)" d="M0 -0.25L595.5 -0.25L595.5 -0.25L595.5 842.0012L595.5 842.0012L0 842.0012z" /></clipPath><clipPath id="99"><path id="" clip-rule="evenodd" transform="matrix(1 0 0 1 0 0)" d="M0 -0.25L595.5 -0.25L595.5 -0.25L595.5 842.0012L595.5 842.0012L0 842.0012z" /></clipPath><clipPath id="100"><path id="" clip-rule="evenodd" transform="matrix(1 0 0 1 0 0)" d="M543.9024 508.5548L573.9024 508.5548L573.9024 508.5548L573.9024 533.3048L573.9024 533.3048L543.9024 533.3048z" /></clipPath><clipPath id="101"><path id="" clip-rule="evenodd" transform="matrix(1 0 0 1 0 0)" d="M543.9024 520.922C 543.9024 527.7524 549.4392 533.2892 556.2696 533.2892L556.2696 533.2892L561.3168 533.2892C 568.1472 533.2892 573.684 527.7524 573.684 520.922C 573.684 514.0916 568.1472 508.5548 561.3168 508.5548L561.3168 508.5548L556.2696 508.5548C 549.4392 508.5548 543.9024 514.0916 543.9024 520.922z" /></clipPath><clipPath id="102"><path id="" clip-rule="evenodd" transform="matrix(1 0 0 1 0 0)" d="M543.9024 508.5548L573.9024 508.5548L573.9024 508.5548L573.9024 533.3048L573.9024 533.3048L543.9024 533.3048z" /></clipPath><clipPath id="103"><path id="" clip-rule="evenodd" transform="matrix(1 0 0 1 0 0)" d="M543.9024 508.5548L573.8993 508.5548L573.8993 508.5548L573.8993 533.298L573.8993 533.298L543.9024 533.298z" /></clipPath><clipPath id="104"><path id="" clip-rule="evenodd" transform="matrix(1 0 0 1 0 0)" d="M543.9024 520.9196C 543.9024 527.7476 549.4392 533.282 556.2696 533.282L556.2696 533.282L561.3144 533.282C 568.1448 533.282 573.6816 527.7476 573.6816 520.9196C 573.6816 514.0916 568.1448 508.5548 561.3144 508.5548L561.3144 508.5548L556.2696 508.5548C 549.4392 508.5548 543.9024 514.0916 543.9024 520.9196z" /></clipPath><clipPath id="105"><path id="" clip-rule="evenodd" transform="matrix(1 0 0 1 0 0)" d="M0 -0.25L595.5 -0.25L595.5 -0.25L595.5 842.0012L595.5 842.0012L0 842.0012z" /></clipPath><clipPath id="106"><path id="" clip-rule="evenodd" transform="matrix(1 0 0 1 0 0)" d="M2.131627E-14 601.2211L366.7488 601.2211L366.7488 601.2211L366.7488 796.2211L366.7488 796.2211L2.131627E-14 796.2211z" /></clipPath><clipPath id="107"><path id="" clip-rule="evenodd" transform="matrix(1 0 0 1 0 0)" d="M0 -0.25L595.5 -0.25L595.5 -0.25L595.5 842.0012L595.5 842.0012L0 842.0012z" /></clipPath><clipPath id="108"><path id="" clip-rule="evenodd" transform="matrix(1 0 0 1 0 0)" d="M0 -0.25L595.5 -0.25L595.5 -0.25L595.5 842.0012L595.5 842.0012L0 842.0012z" /></clipPath><clipPath id="109"><path id="" clip-rule="evenodd" transform="matrix(1 0 0 1 0 0)" d="M0 -0.25L595.5 -0.25L595.5 -0.25L595.5 842.0012L595.5 842.0012L0 842.0012z" /></clipPath><clipPath id="110"><path id="" clip-rule="evenodd" transform="matrix(1 0 0 1 0 0)" d="M381.48 624.6884L589.3118 624.6884L589.3118 624.6884L589.3118 749.5827L589.3118 749.5827L381.48 749.5827z" /></clipPath><clipPath id="111"><path id="" clip-rule="evenodd" transform="matrix(1 0 0 1 0 0)" d="M394.2288 624.6884L576.1152 624.6884C 579.4968 624.6884 582.7416 626.0324 585.132 628.4228C 587.5224 630.8156 588.8664 634.058 588.8664 637.4396L588.8664 637.4396L588.8664 736.8332C 588.8664 740.2148 587.5224 743.4572 585.132 745.85C 582.7416 748.2404 579.4968 749.5844 576.1152 749.5844L576.1152 749.5844L394.2288 749.5844C 390.8472 749.5844 387.6048 748.2404 385.2144 745.85C 382.824 743.4572 381.48 740.2148 381.48 736.8332L381.48 736.8332L381.48 637.4396C 381.48 634.058 382.824 630.8156 385.2144 628.4228C 387.6048 626.0324 390.8472 624.6884 394.2288 624.6884z" /></clipPath><clipPath id="112"><path id="" clip-rule="evenodd" transform="matrix(1 0 0 1 0 0)" d="M381.48 624.6884L588.8239 624.6884L588.8239 624.6884L588.8239 749.5827L588.8239 749.5827L381.48 749.5827z" /></clipPath><clipPath id="113"><path id="" clip-rule="evenodd" transform="matrix(1 0 0 1 0 0)" d="M0 -0.25L595.5 -0.25L595.5 -0.25L595.5 842.0012L595.5 842.0012L0 842.0012z" /></clipPath><clipPath id="114"><path id="" clip-rule="evenodd" transform="matrix(1 0 0 1 0 0)" d="M0 -0.25L595.5 -0.25L595.5 -0.25L595.5 842.0012L595.5 842.0012L0 842.0012z" /></clipPath><clipPath id="115"><path id="" clip-rule="evenodd" transform="matrix(1 0 0 1 0 0)" d="M381.48 624.6884L589.23 624.6884L589.23 624.6884L589.23 749.9384L589.23 749.9384L381.48 749.9384z" /></clipPath><clipPath id="116"><path id="" clip-rule="evenodd" transform="matrix(1 0 0 1 0 0)" d="M381.48 624.6884L590.275 624.6884L590.275 624.6884L590.275 749.575L590.275 749.575L381.48 749.575z" /></clipPath><clipPath id="117"><path id="" clip-rule="evenodd" transform="matrix(1 0 0 1 0 0)" d="M394.2288 624.6884L576.1056 624.6884C 579.4872 624.6884 582.7296 626.0324 585.12 628.4228C 587.5104 630.8156 588.8544 634.058 588.8544 637.4396L588.8544 637.4396L588.8544 736.826C 588.8544 740.2076 587.5104 743.45 585.12 745.8428C 582.7296 748.2332 579.4872 749.5772 576.1056 749.5772L576.1056 749.5772L394.2288 749.5772C 390.8472 749.5772 387.6048 748.2332 385.2144 745.8428C 382.824 743.45 381.48 740.2076 381.48 736.826L381.48 736.826L381.48 637.4396C 381.48 634.058 382.824 630.8156 385.2144 628.4228C 387.6048 626.0324 390.8472 624.6884 394.2288 624.6884z" /></clipPath><clipPath id="118"><path id="" clip-rule="evenodd" transform="matrix(1 0 0 1 0 0)" d="M0 -0.25L595.5 -0.25L595.5 -0.25L595.5 842.0012L595.5 842.0012L0 842.0012z" /></clipPath><clipPath id="119"><path id="" clip-rule="evenodd" transform="matrix(1 0 0 1 0 0)" d="M0 -0.25L595.5 -0.25L595.5 -0.25L595.5 842.0012L595.5 842.0012L0 842.0012z" /></clipPath><clipPath id="120"><path id="" clip-rule="evenodd" transform="matrix(1 0 0 1 0 0)" d="M428.7312 749.582L431.0856 781.7468L431.0856 781.7468L333.8448 788.8604L333.8448 788.8604L331.4928 756.6956L331.4928 756.6956L428.7312 749.582z" /></clipPath><clipPath id="121"><path id="" clip-rule="evenodd" transform="matrix(1 0 0 1 0 0)" d="M334.224 789.0788L331.872 756.9164L331.872 756.9164L429.1128 749.8004L429.1128 749.8004L431.4648 781.9651L431.4648 781.9651L334.224 789.0788z" /></clipPath><clipPath id="122"><path id="" clip-rule="evenodd" transform="matrix(1 0 0 1 0 0)" d="M334.224 789.0788L331.872 756.9164L331.872 756.9164L429.1128 749.8004L429.1128 749.8004L431.4648 781.9651L431.4648 781.9651L334.224 789.0788z" /></clipPath><clipPath id="123"><path id="" clip-rule="evenodd" transform="matrix(1 0 0 1 0 0)" d="M0 -0.25L595.5 -0.25L595.5 -0.25L595.5 842.0012L595.5 842.0012L0 842.0012z" /></clipPath><clipPath id="124"><path id="" clip-rule="evenodd" transform="matrix(1 0 0 1 0 0)" d="M0 -0.25L595.5 -0.25L595.5 -0.25L595.5 842.0012L595.5 842.0012L0 842.0012z" /></clipPath><clipPath id="125"><path id="" clip-rule="evenodd" transform="matrix(1 0 0 1 0 0)" d="M24.45888 691.5212L54.45888 691.5212L54.45888 691.5212L54.45888 716.2712L54.45888 716.2712L24.45888 716.2712z" /></clipPath><clipPath id="126"><path id="" clip-rule="evenodd" transform="matrix(1 0 0 1 0 0)" d="M24.45888 703.8884C 24.45888 710.7164 29.99568 716.2532 36.8256 716.2532L36.8256 716.2532L41.8728 716.2532C 48.70272 716.2532 54.23952 710.7164 54.23952 703.8884C 54.23952 697.058 48.70272 691.5212 41.8728 691.5212L41.8728 691.5212L36.8256 691.5212C 29.99568 691.5212 24.45888 697.058 24.45888 703.8884z" /></clipPath><clipPath id="127"><path id="" clip-rule="evenodd" transform="matrix(1 0 0 1 0 0)" d="M25.20888 692.27L53.70888 692.27L53.70888 692.27L53.70888 715.52L53.70888 715.52L25.20888 715.52z" /></clipPath><clipPath id="128"><path id="" clip-rule="evenodd" transform="matrix(1 0 0 1 0 0)" d="M36.8256 692.4211L41.8728 692.4211C 48.20568 692.4211 53.33952 697.5548 53.33952 703.8884C 53.33952 710.2196 48.20568 715.3531 41.8728 715.3531L41.8728 715.3531L36.8256 715.3531C 30.49272 715.3531 25.35888 710.2196 25.35888 703.8884C 25.35888 697.5548 30.49272 692.4211 36.8256 692.4211z" /></clipPath><clipPath id="129"><path id="" clip-rule="evenodd" transform="matrix(1 0 0 1 0 0)" d="M0 -0.25L595.5 -0.25L595.5 -0.25L595.5 842.0012L595.5 842.0012L0 842.0012z" /></clipPath><clipPath id="130"><path id="" clip-rule="evenodd" transform="matrix(1 0 0 1 0 0)" d="M0 -0.25L595.5 -0.25L595.5 -0.25L595.5 842.0012L595.5 842.0012L0 842.0012z" /></clipPath><clipPath id="131"><path id="" clip-rule="evenodd" transform="matrix(1 0 0 1 0 0)" d="M24.45888 691.5212L54.45888 691.5212L54.45888 691.5212L54.45888 716.2712L54.45888 716.2712L24.45888 716.2712z" /></clipPath><clipPath id="132"><path id="" clip-rule="evenodd" transform="matrix(1 0 0 1 0 0)" d="M24.45888 703.8884C 24.45888 710.7164 29.99568 716.2532 36.8256 716.2532L36.8256 716.2532L41.8728 716.2532C 48.70272 716.2532 54.23952 710.7164 54.23952 703.8884C 54.23952 697.058 48.70272 691.5212 41.8728 691.5212L41.8728 691.5212L36.8256 691.5212C 29.99568 691.5212 24.45888 697.058 24.45888 703.8884z" /></clipPath><clipPath id="133"><path id="" clip-rule="evenodd" transform="matrix(1 0 0 1 0 0)" d="M24.45888 691.5212L54.45888 691.5212L54.45888 691.5212L54.45888 716.2712L54.45888 716.2712L24.45888 716.2712z" /></clipPath><clipPath id="134"><path id="" clip-rule="evenodd" transform="matrix(1 0 0 1 0 0)" d="M24.45888 691.5212L54.45576 691.5212L54.45576 691.5212L54.45576 716.2644L54.45576 716.2644L24.45888 716.2644z" /></clipPath><clipPath id="135"><path id="" clip-rule="evenodd" transform="matrix(1 0 0 1 0 0)" d="M24.45888 703.8835C 24.45888 710.7116 29.9952 716.2484 36.8244 716.2484L36.8244 716.2484L41.87088 716.2484C 48.70008 716.2484 54.2364 710.7116 54.2364 703.8835C 54.2364 697.0555 48.70008 691.5212 41.87088 691.5212L41.87088 691.5212L36.8244 691.5212C 29.9952 691.5212 24.45888 697.0555 24.45888 703.8835z" /></clipPath><clipPath id="136"><path id="" clip-rule="evenodd" transform="matrix(1 0 0 1 0 0)" d="M0 -0.25L595.5 -0.25L595.5 -0.25L595.5 842.0012L595.5 842.0012L0 842.0012z" /></clipPath></defs><g transform="matrix(1.333333 0 0 1.333333 0 0)"><g clip-path="url(#1)"><g clip-path="url(#2)"><path id="1" transform="matrix(1 0 0 -1 0 842)" d="M0 842.25L595.4999 842.25L595.4999 0L0 0z" stroke="none" fill="#FFFFFF" fill-rule="nonzero" /></g><g clip-path="url(#3)"><path id="2" transform="matrix(1 0 0 -1 0 842)" d="M0 842.25L595.4999 842.25L595.4999 0L0 0z" stroke="none" fill="#FFFFFF" fill-rule="nonzero" /></g><g clip-path="url(#4)"><g><g clip-path="url(#5)"><g clip-path="url(#6)"><g transform="matrix(0 0.975 -0.9768211 0 522.0178 30.75183)"><g transform="matrix(1 0 0 1 0 0)"><image x="0" y="0" xlink:href="img_01.png" width="800" height="453" /></g></g></g></g></g></g><g clip-path="url(#7)"><g clip-path="url(#8)"><g clip-path="url(#9)"><g clip-path="url(#10)"><path id="4" transform="matrix(1 0 0 -1 0 842)" d="M415.338 790.0392L421.2921 790.0476C 421.6116 790.0443 421.9285 790.072 422.2425 790.1307C 422.5565 790.1894 422.8619 790.2782 423.1585 790.3968C 423.4551 790.5155 423.7374 790.6618 424.0055 790.8358C 424.2734 791.0099 424.5219 791.2083 424.7509 791.431C 424.9799 791.6537 425.1852 791.8967 425.3666 792.1597C 425.548 792.4227 425.7021 792.7007 425.8289 792.994C 425.9558 793.2872 426.0529 793.59 426.1205 793.9023C 426.188 794.2145 426.2245 794.5306 426.23 794.8499C 426.2331 795.4771 426.1141 796.0801 425.8732 796.6591C 425.6322 797.238 425.2881 797.7473 424.8409 798.187C 424.3726 798.6576 423.8314 799.019 423.2174 799.2717C 422.6034 799.5244 421.9645 799.6484 421.3006 799.6438L421.3006 799.6438L415.3634 799.6353C 415.8421 800.2698 416.3951 800.8313 417.0222 801.3198C 417.6494 801.8081 418.3292 802.2066 419.0618 802.5153C 419.7943 802.8239 420.5544 803.032 421.3419 803.1397C 422.1295 803.2474 422.9175 803.2509 423.706 803.1502C 424.4601 803.0563 425.1892 802.8666 425.8934 802.5811C 426.5977 802.2955 427.2529 801.9238 427.8595 801.4659C 428.4659 801.0081 429.0029 800.4797 429.4706 799.8807C 429.9382 799.2816 430.3204 798.6324 430.6172 797.9329C 430.715 797.7127 430.8656 797.5379 431.0688 797.4084C 431.2722 797.2791 431.4943 797.2168 431.7353 797.2214L431.7353 797.2214L433.7341 797.2214L433.7341 797.2214L433.7341 796.4761L433.7341 796.4761L433.7172 792.4276L433.7172 792.4276L431.7183 792.4276C 431.4758 792.4284 431.2537 792.3617 431.0517 792.2277C 430.8497 792.0935 430.7021 791.9146 430.6088 791.6907C 430.4485 791.3414 430.2663 791.0037 430.0623 790.6778C 429.8585 790.3519 429.6344 790.0405 429.3903 789.7434C 429.1463 789.4464 428.8842 789.1663 428.604 788.9031C 428.3239 788.6398 428.0279 788.3956 427.7163 788.1705C 427.4046 787.9454 427.0798 787.7412 426.7419 787.5579C 426.4039 787.3748 426.0556 787.2139 425.6969 787.0756C 425.3382 786.9373 424.9721 786.8224 424.5986 786.7313C 424.2251 786.6402 423.8474 786.5735 423.4653 786.531C 423.0831 786.4885 422.7 786.4707 422.3156 786.4777C 421.9312 786.4847 421.5489 786.5162 421.1686 786.5724C 420.7883 786.6287 420.4131 786.709 420.0431 786.8137C 419.6732 786.9183 419.3116 787.0461 418.9581 787.1974C 418.6046 787.3486 418.2624 787.5218 417.9312 787.7171C 417.6 787.9124 417.2829 788.1282 416.9796 788.3644C 416.6763 788.6006 416.3893 788.8553 416.1189 789.1285C 415.8484 789.4017 415.5966 789.6912 415.3634 789.9968L415.3634 789.9968L415.338 790.0392zM436.1903 809.4347L440.5183 813.7627C 440.7629 814.0089 440.8786 814.3053 440.8656 814.652L440.8656 814.652L440.6962 819.1749L440.6962 819.1749L455.679 819.1664L455.679 819.1664L455.8569 814.1608C 455.8672 813.8471 455.983 813.5789 456.2041 813.3562L456.2041 813.3562L463.4711 806.0892L463.4711 806.0892L463.4626 798.2039C 463.4521 797.7894 463.3651 797.3917 463.2015 797.0106C 463.0381 796.6297 462.8097 796.2926 462.5165 795.9994C 462.2233 795.7061 461.8862 795.4778 461.5052 795.3143C 461.1242 795.1508 460.7264 795.0637 460.3119 795.0532L460.3119 795.0532L446.3539 795.0363L446.3539 795.0363L446.3539 795.8155C 446.3519 796.2946 446.4422 796.7556 446.6246 797.1986C 446.807 797.6415 447.0676 798.0323 447.4063 798.3712C 447.7451 798.7099 448.1359 798.9705 448.5789 799.1529C 449.0219 799.3353 449.4828 799.4255 449.962 799.4236L449.962 799.4236L457.0681 799.3981C 457.2274 799.3983 457.3808 799.4289 457.528 799.49C 457.6752 799.551 457.8052 799.638 457.9178 799.7507C 458.0305 799.8635 458.1173 799.9935 458.1783 800.1409C 458.2393 800.2881 458.2699 800.4415 458.2699 800.6008C 458.2698 800.7603 458.2393 800.9136 458.1783 801.0609C 458.1173 801.2082 458.0305 801.3382 457.9178 801.4509C 457.8052 801.5637 457.6752 801.6507 457.528 801.7117C 457.3808 801.7728 457.2274 801.8033 457.0681 801.8035C 456.4792 801.8019 455.8959 801.8578 455.3181 801.9715C 454.7403 802.0851 454.1792 802.2543 453.6349 802.4788C 453.0905 802.7034 452.5734 802.9791 452.0836 803.3059C 451.5938 803.6326 451.1406 804.0043 450.7242 804.4207C 450.3079 804.837 449.9362 805.2902 449.6095 805.78C 449.2827 806.2698 449.007 806.7869 448.7824 807.3313C 448.5579 807.8756 448.3887 808.4367 448.2751 809.0145C 448.1614 809.5923 448.1054 810.1757 448.1071 810.7645L448.1071 810.7645L445.7018 810.7645C 445.6984 809.2565 445.9851 807.8058 446.562 806.4127C 447.139 805.0195 447.9618 803.7909 449.0303 802.7267C 449.3631 802.3907 449.716 802.0773 450.089 801.7866L450.089 801.7866L449.9874 801.7866C 449.2045 801.7924 448.4496 801.6501 447.7225 801.36C 446.9954 801.0697 446.3501 800.653 445.7864 800.1096L445.7864 800.1096L444.0925 800.1096C 443.1578 800.1068 442.3475 799.7877 441.6617 799.1525C 440.9759 799.7877 440.1656 800.1068 439.2309 800.1096L439.2309 800.1096L437.3845 800.0419C 436.9733 800.0453 436.5753 799.9747 436.1903 799.8301L436.1903 799.8301L436.1903 809.4347zM438.5787 827.6445L458.2115 827.6445L458.2115 821.5633L438.5787 821.5633L438.5787 827.6445zM467.9261 798.0261C 468.2254 798.7276 468.6099 799.3788 469.0796 799.9797C 469.5491 800.5805 470.0882 801.111 470.6966 801.5708C 471.3051 802.0307 471.9624 802.4045 472.6687 802.6924C 473.3749 802.9802 474.1062 803.1723 474.8628 803.2688C 475.6516 803.3739 476.4404 803.3737 477.2291 803.2679C 478.0179 803.1624 478.7789 802.9551 479.5122 802.646C 480.2455 802.337 480.9255 801.9373 481.552 801.4467C 482.1785 800.956 482.7297 800.3918 483.2054 799.7539L483.2054 799.7539L477.2597 799.7539C 476.9405 799.7565 476.624 799.7281 476.3103 799.6688C 475.9966 799.6096 475.6915 799.5204 475.3951 799.4015C 475.0989 799.2825 474.8169 799.1361 474.5492 798.962C 474.2816 798.7879 474.0333 798.5897 473.8044 798.367C 473.5755 798.1444 473.3703 797.9017 473.1889 797.639C 473.0074 797.3763 472.8531 797.0984 472.726 796.8057C 472.5989 796.5127 472.5013 796.2103 472.4334 795.8983C 472.3654 795.5864 472.3283 795.2708 472.3219 794.9516C 472.3228 794.3232 472.4444 793.7191 472.6866 793.1392C 472.9288 792.5595 473.2731 792.0483 473.7194 791.6061C 474.1875 791.1382 474.7276 790.7786 475.34 790.5275C 475.9524 790.2764 476.5895 790.1531 477.2513 790.1578L477.2513 790.1578L483.2393 790.1323C 482.3957 788.9915 481.3396 788.1031 480.0711 787.4675C 478.8027 786.8317 477.459 786.5173 476.0401 786.5242C 475.1802 786.5123 474.337 786.6252 473.5105 786.8631C 472.684 787.101 471.9098 787.4536 471.1877 787.9208C 470.4657 788.3881 469.8269 788.95 469.2715 789.6066C 468.7159 790.2631 468.2675 790.9861 467.9261 791.7755C 467.8322 791.9962 467.6851 792.1727 467.485 792.305C 467.2849 792.4374 467.065 792.5037 466.8251 792.5038L466.8251 792.5038L463.3102 792.5123L463.3102 792.5123L463.3102 793.5456C 463.9741 793.9662 464.5209 794.5053 464.951 795.1631C 465.3811 795.8207 465.6557 796.5378 465.7749 797.3146L465.7749 797.3146L466.8336 797.3062C 467.0734 797.3063 467.2934 797.3726 467.4935 797.505C 467.6936 797.6373 467.8406 797.8138 467.9346 798.0345L467.9346 798.0345L467.9261 798.0261zM460.9048 787.7693C 460.9066 787.6081 460.8771 787.4529 460.8163 787.3037C 460.7554 787.1544 460.6681 787.0229 460.5541 786.9089C 460.4401 786.7949 460.3085 786.7075 460.1592 786.6467C 460.01 786.5858 459.8548 786.5563 459.6936 786.5581L459.6936 786.5581L456.509 786.5581L456.509 786.5581L456.5175 792.6478L456.5175 792.6478L460.3204 792.6563C 460.5237 792.6563 460.7185 792.6987 460.9218 792.7156L460.9218 792.7156L460.9048 787.7693zM452.9094 784.8557L450.936 784.7964C 450.7762 784.7958 450.6226 784.8259 450.475 784.8867C 450.3273 784.9474 450.197 785.0344 450.0841 785.1473C 449.9712 785.2601 449.8843 785.3904 449.8235 785.5381C 449.7628 785.6857 449.7326 785.8394 449.7333 785.9991L449.7333 785.9991L449.7418 792.5801L449.7418 792.5801L454.1375 792.5886L454.1375 792.5886L454.1291 786.0076C 454.122 785.8524 454.0861 785.7042 454.0214 785.5629C 453.9566 785.4215 453.8678 785.2976 453.7548 785.1909C 453.6417 785.0842 453.5129 785.0027 453.3681 784.9461C 453.2233 784.8896 453.0732 784.8623 452.9179 784.8642L452.9179 784.8642L452.9094 784.8557zM443.2879 786.8884C 443.0521 787.1215 442.9335 787.4039 442.9322 787.7354L442.9322 787.7354L442.9915 795.4852L442.9915 795.4852L442.9915 796.4846C 442.9908 796.6443 443.0209 796.798 443.0817 796.9456C 443.1425 797.0933 443.2294 797.2236 443.3423 797.3365C 443.4552 797.4493 443.5854 797.5363 443.7331 797.5971C 443.8808 797.6578 444.0344 797.688 444.1942 797.6873L444.1942 797.6873L444.3297 797.6873C 444.1117 797.0737 443.9988 796.4412 443.9909 795.7901L443.9909 795.7901L443.9824 793.7997C 443.9817 793.64 444.0119 793.4863 444.0726 793.3387C 444.1334 793.191 444.2203 793.0607 444.3332 792.9478C 444.4461 792.8349 444.5764 792.748 444.7241 792.6872C 444.8717 792.6265 445.0254 792.5963 445.1851 792.597L445.1851 792.597L447.3787 792.6055L447.3787 792.6055L447.3703 786.5158L447.3703 786.5158L444.1603 786.4904C 443.8134 786.5008 443.5255 786.6363 443.2964 786.8969L443.2964 786.8969L443.2879 786.8884zM436.5121 788.5824C 436.2764 788.8155 436.1578 789.0978 436.1564 789.4293L436.1564 789.4293L436.1734 796.3575L436.1734 796.3575L436.1734 796.51C 436.1727 796.6697 436.2028 796.8234 436.2635 796.971C 436.3244 797.1187 436.4113 797.249 436.5242 797.3619C 436.6371 797.4748 436.7673 797.5616 436.915 797.6225C 437.0627 797.6832 437.2163 797.7134 437.376 797.7127L437.376 797.7127L439.3664 797.7212C 439.5262 797.7219 439.6798 797.6917 439.8274 797.631C 439.9752 797.5701 440.1054 797.4833 440.2183 797.3704C 440.3312 797.2574 440.4181 797.1272 440.4789 796.9795C 440.5396 796.8318 440.5698 796.6782 440.5691 796.5185L440.5691 796.5185L440.5606 795.5275L440.5606 795.5275L440.5522 788.2351L440.5522 788.2351L437.3845 788.1843C 437.0358 788.19 436.745 788.3226 436.5121 788.5824zM422.5287 784.0511C 423.5572 784.046 424.5671 784.1801 425.5585 784.4537C 426.55 784.7274 427.4858 785.1302 428.366 785.6622C 429.2462 786.1943 430.0378 786.8355 430.741 787.5861C 431.4442 788.3367 432.0325 789.1685 432.506 790.0815L432.506 790.0815L433.7849 790.09L433.7849 790.09L433.7849 789.4463C 433.7852 788.9702 433.8765 788.5121 434.0588 788.0723C 434.2412 787.6325 434.5007 787.2443 434.8373 786.9076C 435.174 786.5709 435.5623 786.3114 436.0021 786.129C 436.442 785.9467 436.8999 785.8555 437.376 785.8552L437.376 785.8552L441.1197 785.8552C 441.2623 785.6246 441.4288 785.4128 441.6194 785.2199C 442.3213 784.5192 443.1684 784.1691 444.1603 784.1697L444.1603 784.1697L447.9039 784.1697C 448.0465 783.9391 448.213 783.7274 448.4036 783.5345C 449.1055 782.8337 449.9526 782.4836 450.9445 782.4843L450.9445 782.4843L452.9264 782.4843C 453.5467 782.4844 454.128 782.6353 454.6702 782.9364C 455.2125 783.2377 455.6476 783.6516 455.9755 784.1782L455.9755 784.1782L459.7191 784.1951C 460.1966 784.1943 460.6561 784.285 461.0975 784.4674C 461.5389 784.6498 461.9285 784.9099 462.2662 785.2476C 462.6039 785.5852 462.8639 785.9749 463.0463 786.4162C 463.2287 786.8576 463.3194 787.3171 463.3187 787.7947L463.3187 787.7947L463.3271 790.1238L463.3271 790.1238L466.0798 790.1323C 466.5789 789.199 467.1969 788.3525 467.9338 787.5928C 468.6707 786.833 469.4979 786.1894 470.4155 785.6619C 471.3331 785.1345 472.3056 784.7435 473.333 784.4892C 474.3604 784.2348 475.4029 784.1268 476.4606 784.1652C 477.5183 784.2036 478.5503 784.3869 479.5566 784.7151C 480.5627 785.0432 481.5044 785.5037 482.3813 786.0963C 483.2582 786.6888 484.0367 787.3907 484.7165 788.2018C 485.3964 789.013 485.9514 789.9022 486.3816 790.8692C 486.5522 791.2658 486.5183 791.6441 486.2799 792.0042C 486.0403 792.3639 485.7043 792.5417 485.2721 792.5377L485.2721 792.5377L477.2936 792.5208C 476.5776 792.5201 475.965 792.7714 475.4557 793.2746C 474.9911 793.7107 474.7483 794.2471 474.7273 794.8839C 474.7294 795.223 474.7979 795.5482 474.9329 795.8594C 475.0679 796.1706 475.2585 796.443 475.5046 796.6765C 475.7507 796.9097 476.0327 797.0855 476.3508 797.2037C 476.6687 797.3219 476.9971 797.373 477.336 797.357L477.336 797.357L485.2975 797.34C 485.4975 797.3407 485.6856 797.3884 485.8617 797.4833C 486.0378 797.5782 486.1811 797.709 486.2917 797.8757C 486.4023 798.0425 486.467 798.2254 486.4859 798.4245C 486.5049 798.6237 486.4757 798.8155 486.3985 799.0001C 486.1556 799.5554 485.8696 800.0873 485.5406 800.5963C 485.2114 801.1051 484.8436 801.5843 484.4368 802.0335C 484.0302 802.4828 483.59 802.8965 483.1163 803.2745C 482.6425 803.6525 482.1415 803.9899 481.6132 804.2867C 481.0847 804.5836 480.536 804.8359 479.9667 805.0438C 479.3975 805.2517 478.8152 805.4125 478.2198 805.5261C 477.6247 805.6397 477.0241 805.7047 476.4183 805.721C 475.8124 805.7374 475.2093 805.7048 474.6087 805.6234C 473.7108 805.5139 472.8391 805.2983 471.9937 804.9768C 471.1482 804.6551 470.3536 804.2369 469.6099 803.7219C 468.8662 803.2069 468.1951 802.6103 467.5966 801.932C 466.998 801.2537 466.4896 800.5135 466.0713 799.7115L466.0713 799.7115L465.868 799.7115L465.868 799.7115L465.9104 806.5466C 465.909 806.8781 465.7905 807.1605 465.5547 807.3936L465.5547 807.3936L458.2623 814.6859L458.2623 814.6859L458.1098 819.141L458.1098 819.141L459.4395 819.1325C 459.5993 819.1318 459.7529 819.162 459.9005 819.2227C 460.0483 819.2835 460.1785 819.3704 460.2914 819.4833C 460.4043 819.5962 460.4912 819.7265 460.552 819.8742C 460.6128 820.0218 460.6429 820.1755 460.6422 820.3352L460.6422 820.3352L460.6422 828.8049C 460.6429 828.9646 460.6128 829.1182 460.552 829.2659C 460.4912 829.4136 460.4043 829.5438 460.2914 829.6567C 460.1785 829.7697 460.0483 829.8566 459.9005 829.9174C 459.7529 829.9781 459.5993 830.0082 459.4395 830.0076L459.4395 830.0076L458.9398 829.9991L458.9398 829.9991L458.9144 847.472L458.9144 847.472L456.509 847.472L456.509 847.472L456.5175 830.033L456.5175 830.033L440.2727 830.033L440.2727 830.033L440.2812 845.7781L440.2812 845.7781L437.8758 845.7781L437.8758 845.7781L437.8842 830.033L437.8842 830.033L437.3845 830.0414C 437.2248 830.0421 437.0712 830.012 436.9235 829.9512C 436.7758 829.8904 436.6455 829.8035 436.5327 829.6906C 436.4197 829.5777 436.3329 829.4474 436.272 829.2997C 436.2113 829.1521 436.1812 828.9985 436.1818 828.8387L436.1818 828.8387L436.1818 820.3691C 436.1812 820.2094 436.2113 820.0557 436.272 819.9081C 436.3329 819.7604 436.4197 819.6301 436.5327 819.5172C 436.6455 819.4043 436.7758 819.3174 436.9235 819.2566C 437.0711 819.1959 437.2248 819.1657 437.3845 819.1664L437.3845 819.1664L438.3077 819.1749L438.3077 819.1749L438.4517 815.084L438.4517 815.084L434.1491 810.7814C 433.9133 810.5483 433.7947 810.2659 433.7934 809.9344L433.7934 809.9344L433.7849 799.6607L433.7849 799.6607L432.5399 799.6522C 432.1234 800.4546 431.6164 801.1948 431.019 801.8732C 430.4216 802.5516 429.7512 803.1479 429.0079 803.6624C 428.2648 804.1768 427.4704 804.5941 426.6252 804.9144C 425.7799 805.2346 424.9084 805.4485 424.0109 805.5556C 423.1495 805.6614 422.2872 805.6696 421.424 805.5802C 420.5606 805.4908 419.7182 805.306 418.8969 805.0258C 418.0754 804.7457 417.2957 804.3772 416.5577 803.9205C 415.8197 803.4637 415.1422 802.9304 414.5249 802.3202C 413.5307 801.332 412.7628 800.1913 412.2211 798.8984C 412.0505 798.5018 412.0843 798.1235 412.3228 797.7635C 412.5624 797.4104 412.8956 797.2354 413.3222 797.2384L413.3222 797.2384L421.3091 797.2468C 422.0256 797.2489 422.6383 796.9977 423.147 796.493C 423.5983 796.0382 423.8297 795.4905 423.8415 794.8499C 423.8336 794.5198 423.7628 794.2037 423.6291 793.9017C 423.4955 793.5997 423.3091 793.3347 423.0701 793.1067C 422.831 792.8788 422.5575 792.7053 422.2496 792.5862C 421.9414 792.4671 421.6223 792.4114 421.2921 792.4191L421.2921 792.4191L413.2968 792.4022C 412.8718 792.4001 412.5414 792.2223 412.3058 791.8686C 412.0678 791.5127 412.0312 791.1373 412.1957 790.7421C 412.6308 789.7371 413.2022 788.8166 413.9098 787.9805C 414.6173 787.1445 415.4308 786.4289 416.35 785.8336C 417.2694 785.2382 418.2552 784.7888 419.3075 784.4853C 420.3598 784.1817 421.4335 784.037 422.5287 784.0511z" stroke="none" fill="#2E597F" fill-rule="nonzero" /></g></g></g></g><g clip-path="url(#11)"><g transform="matrix(0.61875 0 0 0.6166107 248.832 90.53601)"><g transform="matrix(1 0 0 1 0 0)"><image x="0" y="0" xlink:href="img_02.png" width="560" height="298" /></g></g></g><g clip-path="url(#12)"></g><g clip-path="url(#13)"><g clip-path="url(#14)"><g clip-path="url(#15)"><g clip-path="url(#16)"><g clip-path="url(#17)"><g transform="matrix(0.5549155 0 0 0.55584 59.52744 104.8749)"><g transform="matrix(1 0 0 1 0 0)"><image x="0" y="0" xlink:href="img_03.png" width="243" height="320" /></g></g></g></g></g></g></g><g clip-path="url(#18)"><g clip-path="url(#19)"><g clip-path="url(#20)"><g clip-path="url(#21)"><g clip-path="url(#22)"><path id="140" transform="matrix(1 0 0 -1 0 842)" d="M72.27806 734.9716L181.6479 734.9716C 188.6889 734.9716 194.3971 729.2637 194.3971 722.2227L194.3971 722.2227L194.3971 613.4116C 194.3971 606.3706 188.6889 600.6631 181.6479 600.6631L181.6479 600.6631L72.27806 600.6631C 65.237 600.6631 59.52911 606.3706 59.52911 613.4116L59.52911 613.4116L59.52911 722.2227C 59.52911 729.2637 65.237 734.9716 72.27806 734.9716z" stroke="#D8D4D3" stroke-width="6" fill="none" /></g></g></g></g></g><g clip-path="url(#23)"><g clip-path="url(#24)"><g clip-path="url(#25)"><g clip-path="url(#26)"><g clip-path="url(#27)"><path id="141" transform="matrix(1 0 0 -1 0 842)" d="M198.8905 632.1769C 193.5186 630.3364 187.9188 629.3147 182.2528 629.1927C 191.108 620.486 202.0729 613.9161 213.9091 609.9935C 226.2513 605.9 239.8317 604.4738 252.705 606.7476C 259.6815 607.9811 266.8592 610.5721 271.2553 616.3702C 271.8335 617.1317 273.7201 617.1749 272.8378 616.0112C 268.817 610.7097 262.6432 607.6581 256.2784 606.0159C 249.7182 604.3226 242.7674 603.8689 236.013 604.1362C 222.3162 604.6774 208.7993 608.5967 196.95 615.3918C 191.1817 618.6993 185.849 622.702 181.0749 627.2933C 181.5651 620.1541 180.8767 612.9631 179.0243 606.033C 178.8873 605.5244 178.3736 605.1198 177.8634 605.0078C 177.4937 604.9265 176.8866 605.0389 177.0251 605.5575C 179.0974 613.3006 179.7024 621.3353 178.8023 629.2922C 178.7917 629.3865 178.807 629.4821 178.8425 629.5748C 178.6309 630.1394 179.8809 630.8549 180.2971 630.8436C 186.542 630.6541 192.7815 631.5511 198.6899 633.576C 200.0894 634.0557 199.997 632.5573 198.8905 632.1769z" stroke="none" fill="#000000" fill-rule="nonzero" /></g></g></g></g></g><g clip-path="url(#28)"></g><g clip-path="url(#29)"><g transform="matrix(0.1078125 0 0 0.1076159 492.5735 13.18188)"><g transform="matrix(1 0 0 1 0 0)"><image x="0" y="0" xlink:href="img_04.png" width="800" height="453" /></g></g></g><g clip-path="url(#30)"><g clip-path="url(#31)"><g clip-path="url(#32)"><g clip-path="url(#33)"><g clip-path="url(#34)"><g clip-path="url(#35)"><g transform="matrix(0.3448276 0 0 0.3448276 553.8719 167.1201)"><g transform="matrix(1 0 0 1 0 0)"><image x="0" y="0" xlink:href="img_05.png" width="87" height="87" /></g></g></g></g></g></g></g></g><g clip-path="url(#36)"><g clip-path="url(#37)"><g clip-path="url(#38)"><g clip-path="url(#39)"><g clip-path="url(#40)"><g clip-path="url(#41)"><g clip-path="url(#42)"><path id="194" transform="matrix(1 0 0 -1 0 842)" d="M553.8719 659.9931C 553.8719 653.1651 559.4081 647.6298 566.2372 647.6298L566.2372 647.6298L571.2839 647.6298C 578.1132 647.6298 583.6493 653.1651 583.6493 659.9931C 583.6493 666.8212 578.1132 672.3564 571.2839 672.3564L571.2839 672.3564L566.2372 672.3564C 559.4081 672.3564 553.8719 666.8212 553.8719 659.9931z" stroke="#000000" stroke-width="1.5" fill="none" /></g></g></g></g></g></g></g><g clip-path="url(#43)"></g><g clip-path="url(#44)"><g transform="matrix(0.447189 0 0 0.4464705 -9.103152 250.3472)"><g transform="matrix(1 0 0 1 0 0)"><image x="0" y="0" xlink:href="img_06.png" width="800" height="425" /></g></g></g><g clip-path="url(#45)"></g><g clip-path="url(#46)"><g clip-path="url(#47)"><g clip-path="url(#48)"><g clip-path="url(#49)"><g clip-path="url(#50)"><g transform="matrix(0.4549443 0 0 0.4549368 405.6312 271.2001)"><g transform="matrix(1 0 0 1 0 0)"><image x="0" y="0" xlink:href="img_07.png" width="326" height="400" /></g></g></g></g></g></g></g><g clip-path="url(#51)"><g clip-path="url(#52)"><g clip-path="url(#53)"><g clip-path="url(#54)"><g clip-path="url(#55)"><path id="330" transform="matrix(1 0 0 -1 0 842)" d="M418.3803 559.0716L541.1127 559.0716C 544.4937 559.0716 547.7366 557.7284 550.1277 555.3375C 552.5187 552.9465 553.8619 549.7037 553.8619 546.3224L553.8619 546.3224L553.8619 446.9346C 553.8619 443.5536 552.5187 440.3106 550.1277 437.9196C 547.7366 435.5286 544.4937 434.1861 541.1127 434.1861L541.1127 434.1861L418.3803 434.1861C 414.999 434.1861 411.7562 435.5286 409.3653 437.9196C 406.9744 440.3106 405.6312 443.5536 405.6312 446.9346L405.6312 446.9346L405.6312 546.3224C 405.6312 549.7037 406.9744 552.9465 409.3653 555.3375C 411.7562 557.7284 414.999 559.0716 418.3803 559.0716z" stroke="#D9D9D9" stroke-width="6" fill="none" /></g></g></g></g></g><g clip-path="url(#56)"><g clip-path="url(#57)"><g clip-path="url(#58)"><g clip-path="url(#59)"><g clip-path="url(#60)"><path id="331" transform="matrix(1 0 0 -1 0 842)" d="M389.8001 472.3781C 395.3263 471.0724 400.9993 470.6038 406.65 471.0372C 398.6897 461.5053 388.4208 453.8936 377.0254 448.831C 365.1432 443.5489 351.7677 440.8 338.7337 441.8025C 331.67 442.3471 324.2731 444.223 319.3304 449.5629C 318.6804 450.2641 316.7987 450.1223 317.7906 449.0506C 322.3112 444.1683 328.754 441.7357 335.2491 440.7245C 341.9435 439.6816 348.9054 439.9106 355.6011 440.8379C 369.1792 442.7174 382.2474 447.9411 393.3745 455.8637C 398.7913 459.72 403.7066 464.2255 408.0082 469.2621C 408.2193 462.1093 409.6084 455.0202 412.1304 448.3048C 412.3165 447.812 412.8674 447.4596 413.386 447.3981C 413.7619 447.3533 414.3551 447.5247 414.1666 448.0273C 411.3461 455.5303 409.9574 463.4672 410.0742 471.4739C 410.0755 471.5688 410.0509 471.6625 410.0066 471.7512C 410.1619 472.3339 408.8479 472.9235 408.4347 472.8716C 402.2384 472.0716 395.941 472.3534 389.8628 473.7901C 388.4231 474.1305 388.6617 472.6483 389.8001 472.3781z" stroke="none" fill="#000000" fill-rule="nonzero" /></g></g></g></g></g><g clip-path="url(#61)"><g clip-path="url(#62)"><g clip-path="url(#63)"><g clip-path="url(#64)"><g clip-path="url(#65)"><g clip-path="url(#66)"><g transform="matrix(0.3448276 0 0 0.3448276 23.01113 330.4844)"><g transform="matrix(1 0 0 1 0 0)"><image x="0" y="0" xlink:href="img_05.png" width="87" height="87" /></g></g></g></g></g></g></g></g><g clip-path="url(#67)"><g clip-path="url(#68)"><g clip-path="url(#69)"><g clip-path="url(#70)"><g clip-path="url(#71)"><g clip-path="url(#72)"><g clip-path="url(#73)"><path id="333" transform="matrix(1 0 0 -1 0 842)" d="M23.01113 496.6299C 23.01113 489.8019 28.54728 484.2666 35.37645 484.2666L35.37645 484.2666L40.42313 484.2666C 47.25233 484.2666 52.78844 489.8019 52.78844 496.6299C 52.78844 503.4579 47.25233 508.9932 40.42313 508.9932L40.42313 508.9932L35.37645 508.9932C 28.54728 508.9932 23.01113 503.4579 23.01113 496.6299z" stroke="#000000" stroke-width="1.5" fill="none" /></g></g></g></g></g></g></g><g clip-path="url(#74)"></g><g clip-path="url(#75)"><g transform="matrix(0.4387499 0 0 0.4394117 244.272 427.688)"><g transform="matrix(1 0 0 1 0 0)"><image x="0" y="0" xlink:href="img_06.png" width="800" height="425" /></g></g></g><g clip-path="url(#76)"></g><g clip-path="url(#77)"><g clip-path="url(#78)"><g clip-path="url(#79)"><g clip-path="url(#80)"><g clip-path="url(#81)"><g transform="matrix(0.5315836 0 0 0.5331686 14.52012 392.9684)"><g transform="matrix(1 0 0 1 0 0)"><image x="0" y="0" xlink:href="img_08.png" width="279" height="560" /></g></g></g></g></g></g></g><g clip-path="url(#82)"><g clip-path="url(#83)"><g clip-path="url(#84)"><g clip-path="url(#85)"><g clip-path="url(#86)"><path id="454" transform="matrix(1 0 0 -1 0 842)" d="M27.56168 388.9668L150.294 388.9668C 153.675 388.9668 156.918 387.6236 159.309 385.2327C 161.7 382.8417 163.0433 379.5989 163.0433 376.2176L163.0433 376.2176L163.0433 276.8298C 163.0433 273.4488 161.7 270.2058 159.309 267.8148C 156.918 265.4238 153.675 264.0813 150.294 264.0813L150.294 264.0813L27.56168 264.0813C 24.18039 264.0813 20.93758 265.4238 18.54665 267.8148C 16.15572 270.2058 14.81251 273.4488 14.81251 276.8298L14.81251 276.8298L14.81251 376.2176C 14.81251 379.5989 16.15572 382.8417 18.54665 385.2327C 20.93758 387.6236 24.18039 388.9668 27.56168 388.9668z" stroke="#D8D4D3" stroke-width="6" fill="none" /></g></g></g></g></g><g clip-path="url(#87)"><g clip-path="url(#88)"><g clip-path="url(#89)"><g clip-path="url(#90)"><g clip-path="url(#91)"><path id="455" transform="matrix(1 0 0 -1 0 842)" d="M169.7672 295.9053C 163.5295 293.7289 157.026 292.5239 150.4446 292.3861C 160.7412 282.0494 173.4857 274.2445 187.2393 269.5781C 201.5808 264.7085 217.3574 263.0006 232.308 265.6818C 240.4104 267.1364 248.7448 270.2007 253.8444 277.0719C 254.5151 277.9743 256.7064 278.0233 255.683 276.6442C 251.0188 270.3615 243.8511 266.7498 236.4597 264.8098C 228.8415 262.8094 220.7681 262.2797 212.922 262.6049C 197.0112 263.2632 181.3055 267.9276 167.5333 276.0008C 160.8289 279.9303 154.6297 284.6838 149.0786 290.1348C 149.6566 281.6672 148.8656 273.1396 146.7222 264.9229C 146.5638 264.3198 145.9675 263.8405 145.375 263.7083C 144.9456 263.6123 144.2403 263.7464 144.4005 264.3613C 146.7984 273.542 147.4916 283.0703 146.4365 292.5082C 146.424 292.6201 146.4417 292.7335 146.4827 292.8433C 146.2363 293.5132 147.6874 294.3602 148.1709 294.3464C 155.4251 294.1141 162.6718 295.1704 169.5325 297.5648C 171.1575 298.132 171.0521 296.355 169.7672 295.9053z" stroke="none" fill="#000000" fill-rule="nonzero" /></g></g></g></g></g><g clip-path="url(#92)"><g clip-path="url(#93)"><g clip-path="url(#94)"><g clip-path="url(#95)"><g clip-path="url(#96)"><g clip-path="url(#97)"><g transform="matrix(0.3448276 0 0 0.3448276 543.9023 506.0324)"><g transform="matrix(1 0 0 1 0 0)"><image x="0" y="0" xlink:href="img_05.png" width="87" height="87" /></g></g></g></g></g></g></g></g><g clip-path="url(#98)"><g clip-path="url(#99)"><g clip-path="url(#100)"><g clip-path="url(#101)"><g clip-path="url(#102)"><g clip-path="url(#103)"><g clip-path="url(#104)"><path id="457" transform="matrix(1 0 0 -1 0 842)" d="M543.9023 321.0819C 543.9023 314.2539 549.4385 308.7186 556.2676 308.7186L556.2676 308.7186L561.3143 308.7186C 568.1436 308.7186 573.6797 314.2539 573.6797 321.0819C 573.6797 327.91 568.1436 333.4452 561.3143 333.4452L561.3143 333.4452L556.2676 333.4452C 549.4385 333.4452 543.9023 327.91 543.9023 321.0819z" stroke="#000000" stroke-width="1.5" fill="none" /></g></g></g></g></g></g></g><g clip-path="url(#105)"></g><g clip-path="url(#106)"><g><g transform="matrix(0.7499999 0 0 0.75 288.9609 1128.679)"><path id="184" transform="matrix(1 0 0 1 0 0)" d="M5.417747 4.001995C 6.125403 4.001995 6.821758 4.147337 7.506814 4.438021C 8.191871 4.728261 8.774789 5.118423 9.255569 5.608509L7.853773 7.269526C 7.545365 6.888447 7.175586 6.586686 6.744434 6.364242C 6.313283 6.141798 5.884348 6.030576 5.457628 6.030576C 4.704332 6.030576 4.073558 6.296002 3.565305 6.826854C 3.057052 7.357706 2.802925 8.013295 2.802925 8.793621C 2.802925 9.592114 3.057052 10.259 3.565305 10.79429C 4.073558 11.33001 4.704332 11.59788 5.457628 11.59788C 5.856875 11.59788 6.272073 11.49817 6.703225 11.29877C 7.134376 11.09893 7.517892 10.82663 7.853773 10.48189L9.269526 11.9794C 8.752411 12.50582 8.142241 12.92789 7.439017 13.2456C 6.735794 13.56331 6.034785 13.72217 5.335993 13.72217C 3.902072 13.72217 2.708763 13.25468 1.756065 12.31971C 0.8029247 11.38518 0.3263543 10.21912 0.3263543 8.821537C 0.3263543 7.451425 0.8120085 6.305972 1.783317 5.385179C 2.754182 4.463943 3.965659 4.002881 5.417747 4.001995zM5.417747 4.001995z" stroke="none" fill="#321019" fill-rule="evenodd" /></g><g transform="matrix(0.7499999 0 0 0.75 309.2726 1128.679)"><path id="185" transform="matrix(1 0 0 1 0 0)" d="M4.233301 6.166169C 5.240502 6.166169 6.023264 6.399691 6.58159 6.866735C 7.139472 7.334221 7.422844 7.985379 7.431706 8.820208L7.431706 13.61183L5.131274 13.61183L5.131274 12.7677C 4.650494 13.40313 3.901851 13.72084 2.885345 13.72084C 2.113881 13.72084 1.501274 13.5077 1.047524 13.08142C 0.5937743 12.65471 0.3668994 12.10103 0.3668994 11.42041C 0.3668994 10.72161 0.6097265 10.17946 1.095381 9.793953C 1.580592 9.408 2.276947 9.210592 3.184447 9.20173L5.117316 9.20173L5.117316 9.092724C 5.117316 8.729813 4.997231 8.446218 4.757063 8.241942C 4.516451 8.037666 4.160187 7.935528 3.688269 7.935528C 3.025812 7.935528 2.295336 8.139805 1.496843 8.548357L0.8295116 6.996346C 2.01839 6.442894 3.152986 6.166169 4.233301 6.166169zM3.606514 12.12828C 3.978731 12.12828 4.305529 12.03523 4.586907 11.84912C 4.868285 11.66301 5.045309 11.42019 5.11798 11.12064L5.11798 10.46727L3.634431 10.46727C 2.926776 10.46727 2.572948 10.73048 2.572948 11.2569C 2.572948 11.52897 2.663787 11.74211 2.845464 11.89631C 3.026698 12.05052 3.280382 12.12784 3.606514 12.12828zM3.606514 12.12828z" stroke="none" fill="#321019" fill-rule="evenodd" /></g><g transform="matrix(0.7499999 0 0 0.75 327.3939 1128.679)"><path id="186" transform="matrix(1 0 0 1 0 0)" d="M5.744767 6.166169C 6.552566 6.166169 7.201508 6.422512 7.691593 6.935196C 8.181679 7.44788 8.426722 8.13072 8.426722 8.983717L8.426722 13.61183L6.085079 13.61183L6.085079 9.637091C 6.085079 9.210371 5.969426 8.872274 5.73812 8.6228C 5.506814 8.373325 5.191537 8.248589 4.792291 8.248589C 4.374876 8.248589 4.032348 8.384625 3.764706 8.656698C 3.497065 8.929214 3.340645 9.287916 3.295448 9.732803L3.295448 13.6125L0.9405119 13.6125L0.9405119 6.275176L3.295448 6.275176L3.295448 7.472916C 3.812563 6.61992 4.629003 6.184337 5.744767 6.166169zM5.744767 6.166169z" stroke="none" fill="#321019" fill-rule="evenodd" /></g><g transform="matrix(0.7499999 0 0 0.75 347.2532 1128.679)"><path id="187" transform="matrix(1 0 0 1 0 0)" d="M8.331008 3.512131L8.331008 13.6125L5.976073 13.6125L5.976073 12.64606C 5.44079 13.35372 4.705883 13.70755 3.771353 13.70755C 2.736679 13.70755 1.906281 13.35815 1.28016 12.65936C 0.654038 11.96056 0.3409771 11.04398 0.3409771 9.909607C 0.3409771 8.784094 0.6493853 7.881025 1.266202 7.2004C 1.883461 6.519775 2.700344 6.179463 3.71685 6.179463C 4.687715 6.179463 5.44079 6.53329 5.976073 7.240945L5.976073 3.510801L8.331008 3.512131zM3.607179 11.88235C 4.58735 11.88235 5.227208 11.70555 5.526754 11.35195C 5.8263 10.9979 5.976073 10.53506 5.976073 9.963445C 5.976073 9.400688 5.8263 8.942507 5.526754 8.588902C 5.227208 8.234853 4.832393 8.057828 4.342307 8.057828C 3.852222 8.057828 3.457406 8.232415 3.15786 8.581591C 2.858315 8.931208 2.70411 9.391827 2.695248 9.963445C 2.70411 10.53506 2.858315 10.99768 3.15786 11.35128zM3.607179 11.88235zM3.607179 11.88235z" stroke="none" fill="#321019" fill-rule="evenodd" /></g><g transform="matrix(0.7499999 0 0 0.75 367.4222 1128.679)"><path id="188" transform="matrix(1 0 0 1 0 0)" d="M4.233301 6.166169C 5.240502 6.166169 6.023264 6.399691 6.58159 6.866735C 7.139472 7.334221 7.422844 7.985379 7.431706 8.820208L7.431706 13.61183L5.131274 13.61183L5.131274 12.7677C 4.650494 13.40313 3.901851 13.72084 2.885345 13.72084C 2.113881 13.72084 1.501274 13.5077 1.047524 13.08142C 0.5937743 12.65471 0.3668994 12.10103 0.3668994 11.42041C 0.3668994 10.72161 0.6097265 10.17946 1.095381 9.793953C 1.580592 9.408 2.276947 9.210592 3.184447 9.20173L5.117316 9.20173L5.117316 9.092724C 5.117316 8.729813 4.997231 8.446218 4.757063 8.241942C 4.516451 8.037666 4.160187 7.935528 3.688269 7.935528C 3.025812 7.935528 2.295336 8.139805 1.496843 8.548357L0.8295116 6.996346C 2.01839 6.442894 3.152986 6.166169 4.233301 6.166169zM3.606514 12.12828C 3.978731 12.12828 4.305529 12.03523 4.586907 11.84912C 4.868285 11.66301 5.045309 11.42019 5.11798 11.12064L5.11798 10.46727L3.634431 10.46727C 2.926776 10.46727 2.572948 10.73048 2.572948 11.2569C 2.572948 11.52897 2.663787 11.74211 2.845464 11.89631C 3.026698 12.05052 3.280382 12.12784 3.606514 12.12828zM3.606514 12.12828z" stroke="none" fill="#321019" fill-rule="evenodd" /></g><g transform="matrix(0.7499999 0 0 0.75 385.5435 1128.679)"><path id="189" transform="matrix(1 0 0 1 0 0)" d="M8.331008 3.512131L8.331008 13.6125L5.976073 13.6125L5.976073 12.64606C 5.44079 13.35372 4.705883 13.70755 3.771353 13.70755C 2.736679 13.70755 1.906281 13.35815 1.28016 12.65936C 0.654038 11.96056 0.3409771 11.04398 0.3409771 9.909607C 0.3409771 8.784094 0.6493853 7.881025 1.266202 7.2004C 1.883461 6.519775 2.700344 6.179463 3.71685 6.179463C 4.687715 6.179463 5.44079 6.53329 5.976073 7.240945L5.976073 3.510801L8.331008 3.512131zM3.607179 11.88235C 4.58735 11.88235 5.227208 11.70555 5.526754 11.35195C 5.8263 10.9979 5.976073 10.53506 5.976073 9.963445C 5.976073 9.400688 5.8263 8.942507 5.526754 8.588902C 5.227208 8.234853 4.832393 8.057828 4.342307 8.057828C 3.852222 8.057828 3.457406 8.232415 3.15786 8.581591C 2.858315 8.931208 2.70411 9.391827 2.695248 9.963445C 2.70411 10.53506 2.858315 10.99768 3.15786 11.35128zM3.607179 11.88235zM3.607179 11.88235z" stroke="none" fill="#321019" fill-rule="evenodd" /></g><g transform="matrix(0.7499999 0 0 0.75 405.7124 1128.679)"><path id="190" transform="matrix(1 0 0 1 0 0)" d="M4.342307 6.193421C 5.540048 6.193421 6.506482 6.535949 7.24161 7.221005C 7.976738 7.906061 8.344302 8.811345 8.344302 9.936858C 8.344302 11.06193 7.976738 11.96921 7.24161 12.65869C 6.506482 13.34862 5.540048 13.69359 4.342307 13.69359C 3.135261 13.69359 2.164175 13.34884 1.429046 12.65936C 0.6939183 11.96943 0.3263543 11.06171 0.3263543 9.936193C 0.3263543 8.811124 0.6939183 7.906061 1.429046 7.221005C 2.164175 6.535949 3.135261 6.193421 4.342307 6.193421zM4.342307 8.058493C 3.852222 8.058493 3.455191 8.235296 3.151214 8.588902C 2.847236 8.942951 2.695248 9.401354 2.695248 9.964109C 2.695248 10.53573 2.847236 10.99612 3.151214 11.3453C 3.455191 11.69492 3.852222 11.86973 4.342307 11.86973C 4.823087 11.86973 5.215466 11.69514 5.519443 11.34596C 5.82342 10.99635 5.975408 10.53573 5.975408 9.964109C 5.975408 9.401354 5.82342 8.943172 5.519443 8.589566C 5.215466 8.235518 4.823087 8.058493 4.342307 8.058493zM4.342307 8.058493z" stroke="none" fill="#321019" fill-rule="evenodd" /></g><g transform="matrix(0.7499999 0 0 0.75 424.7146 1128.679)"><path id="191" transform="matrix(1 0 0 1 0 0)" d="M3.566634 6.166169C 4.646505 6.166169 5.653707 6.442894 6.588236 6.996346L5.785312 8.521105C 4.877812 8.031019 4.106349 7.785977 3.470921 7.785977C 2.990141 7.785977 2.749751 7.953918 2.749751 8.289799C 2.749751 8.471476 2.881356 8.623465 3.144567 8.745764C 3.407777 8.868507 3.729922 8.979951 4.111001 9.080095C 4.49208 9.179796 4.870944 9.304533 5.247591 9.454306C 5.624239 9.604078 5.944169 9.842474 6.207379 10.16949C 6.470589 10.49607 6.602194 10.89532 6.602194 11.36723C 6.602194 12.10236 6.316385 12.67642 5.744767 13.0894C 5.173148 13.50238 4.429158 13.70888 3.512795 13.70888C 2.214911 13.70888 1.11665 13.36413 0.2180127 12.67465L0.9664342 11.17714C 1.828736 11.78509 2.69547 12.08907 3.566634 12.08907C 4.101917 12.08907 4.369559 11.92113 4.369559 11.58525C 4.369559 11.39471 4.240169 11.23607 3.98139 11.10934C 3.723054 10.98217 3.407777 10.86851 3.03556 10.76836C 2.663787 10.66866 2.291792 10.54393 1.919575 10.39415C 1.547801 10.24438 1.232525 10.01064 0.9737456 9.692923C 0.7154095 9.37521 0.5862414 8.975963 0.5862414 8.495182C 0.5862414 7.760055 0.8631883 7.188215 1.417082 6.779662C 1.970533 6.371553 2.68705 6.167056 3.566634 6.166169zM3.566634 6.166169z" stroke="none" fill="#321019" fill-rule="evenodd" /></g><g transform="matrix(0.458436 0 0 0.4588235 2.131627E-14 601.2212)"><g transform="matrix(1 0 0 1 0 0)"><image x="0" y="0" xlink:href="img_06.png" width="800" height="425" /></g></g></g></g><g clip-path="url(#107)"></g><g clip-path="url(#108)"><g clip-path="url(#109)"><g clip-path="url(#110)"><g clip-path="url(#111)"><g clip-path="url(#112)"><g transform="matrix(0.3691536 0 0 0.3695098 374.3208 624.6901)"><g transform="matrix(1 0 0 1 0 0)"><image x="0" y="0" xlink:href="img_09.png" width="600" height="338" /></g></g></g></g></g></g></g><g clip-path="url(#113)"><g clip-path="url(#114)"><g clip-path="url(#115)"><g clip-path="url(#116)"><g clip-path="url(#117)"><path id="675" transform="matrix(1 0 0 -1 0 842)" d="M394.2292 217.3116L576.105 217.3116C 579.486 217.3116 582.7289 215.9684 585.1199 213.5775C 587.511 211.1865 588.8542 207.9437 588.8542 204.5624L588.8542 204.5624L588.8542 105.1739C 588.8542 101.7929 587.511 98.54988 585.1199 96.15887C 582.7289 93.76788 579.486 92.42462 576.105 92.42462L576.105 92.42462L394.2292 92.42462C 390.8479 92.42462 387.6051 93.76788 385.2141 96.15887C 382.8232 98.54988 381.48 101.7929 381.48 105.1739L381.48 105.1739L381.48 204.5624C 381.48 207.9437 382.8232 211.1865 385.2141 213.5775C 387.6051 215.9684 390.8479 217.3116 394.2292 217.3116z" stroke="#D8D4D3" stroke-width="6" fill="none" /></g></g></g></g></g><g clip-path="url(#118)"><g clip-path="url(#119)"><g clip-path="url(#120)"><g clip-path="url(#121)"><g clip-path="url(#122)"><path id="676" transform="matrix(1 0 0 -1 0 842)" d="M405.9021 88.67439C 411.4581 87.50164 417.1407 87.16932 422.7794 87.73817C 415.05 78.01804 404.9667 70.16206 393.6961 64.82748C 381.9441 59.26176 368.6383 56.19263 355.584 56.88213C 348.5093 57.25706 341.0695 58.95495 336.0001 64.17465C 335.3335 64.86008 333.4557 64.67323 334.4731 63.62559C 339.1095 58.85312 345.6089 56.57587 352.1263 55.72083C 358.8439 54.83887 365.7982 55.23483 372.4698 56.32253C 385.9988 58.52736 398.938 64.06316 409.8717 72.2505C 415.1945 76.23567 420.0002 80.85785 424.1797 85.99623C 424.5624 78.85049 426.1212 71.79674 428.8036 65.1438C 429.0015 64.65562 429.5607 64.31657 430.0806 64.26753C 430.4575 64.23177 431.0464 64.41734 430.8459 64.91522C 427.8462 72.34841 426.2674 80.24968 426.192 88.25697C 426.1911 88.35189 426.1642 88.44492 426.1178 88.53255C 426.2591 89.11876 424.9313 89.67667 424.5195 89.61487C 418.3441 88.66638 412.0418 88.79703 405.9308 90.08749C 404.4834 90.39322 404.7575 88.91718 405.9021 88.67439z" stroke="none" fill="#000000" fill-rule="nonzero" /></g></g></g></g></g><g clip-path="url(#123)"><g clip-path="url(#124)"><g clip-path="url(#125)"><g clip-path="url(#126)"><g clip-path="url(#127)"><g clip-path="url(#128)"><g transform="matrix(0.3448276 0 0 0.3448276 24.45888 688.9964)"><g transform="matrix(1 0 0 1 0 0)"><image x="0" y="0" xlink:href="img_05.png" width="87" height="87" /></g></g></g></g></g></g></g></g><g clip-path="url(#129)"><g clip-path="url(#130)"><g clip-path="url(#131)"><g clip-path="url(#132)"><g clip-path="url(#133)"><g clip-path="url(#134)"><g clip-path="url(#135)"><path id="678" transform="matrix(1 0 0 -1 0 842)" d="M24.45888 138.1155C 24.45888 131.2875 29.99503 125.7522 36.8242 125.7522L36.8242 125.7522L41.87088 125.7522C 48.70008 125.7522 54.2362 131.2875 54.2362 138.1155C 54.2362 144.9436 48.70008 150.4788 41.87088 150.4788L41.87088 150.4788L36.8242 150.4788C 29.99503 150.4788 24.45888 144.9436 24.45888 138.1155z" stroke="#000000" stroke-width="1.5" fill="none" /></g></g></g></g></g></g></g><g clip-path="url(#136)"></g></g></g></svg>