<svg xmlns="http://www.w3.org/2000/svg" xmlns:xlink="http://www.w3.org/1999/xlink" id="body_1" preserveAspectRatio="xMinYMin meet" viewBox="0 0 793 1123"><defs><clipPath id="1"><path id="" clip-rule="evenodd" transform="matrix(1 0 0 1 0 0)" d="M0 842L0 -0.25L0 -0.25L595.5 -0.25L595.5 -0.25L595.5 842L595.5 842L0 842z" /></clipPath><clipPath id="2"><path id="" clip-rule="evenodd" transform="matrix(1 0 0 1 0 0)" d="M0 -0.249939L595.5 -0.249939L595.5 -0.249939L595.5 842.0001L595.5 842.0001L0 842.0001z" /></clipPath><clipPath id="3"><path id="" clip-rule="evenodd" transform="matrix(1 0 0 1 0 0)" d="M0 -0.249939L595.5 -0.249939L595.5 -0.249939L595.5 842.0001L595.5 842.0001L0 842.0001z" /></clipPath><clipPath id="4"><path id="" clip-rule="evenodd" transform="matrix(1 0 0 1 0 0)" d="M0 -0.249939L595.5 -0.249939L595.5 -0.249939L595.5 842.0001L595.5 842.0001L0 842.0001z" /></clipPath><clipPath id="5"><path id="" clip-rule="evenodd" transform="matrix(1 0 0 1 0 0)" d="M79.67999 2.150085L535.92 2.150085L535.92 2.150085L535.92 806.3901L535.92 806.3901L79.67999 806.3901z" /></clipPath><clipPath id="6"><path id="" clip-rule="evenodd" transform="matrix(1 0 0 1 0 0)" d="M79.74117 2.221558L535.7411 2.221558L535.7411 2.221558L535.7411 805.4716L535.7411 805.4716L79.74117 805.4716z" /></clipPath><clipPath id="7"><path id="" clip-rule="evenodd" transform="matrix(1 0 0 1 0 0)" d="M489.3922 29.22406L571.1422 29.22406L571.1422 29.22406L571.1422 75.72406L571.1422 75.72406L489.3922 75.72406z" /></clipPath><clipPath id="8"><path id="" clip-rule="evenodd" transform="matrix(1 0 0 1 0 0)" d="M7.072427 22.42804L112.0724 22.42804L112.0724 22.42804L112.0724 114.678L112.0724 114.678L7.072427 114.678z" /></clipPath><clipPath id="9"><path id="" clip-rule="evenodd" transform="matrix(1 0 0 1 0 0)" d="M0 -0.249939L595.5 -0.249939L595.5 -0.249939L595.5 842.0001L595.5 842.0001L0 842.0001z" /></clipPath><clipPath id="10"><path id="" clip-rule="evenodd" transform="matrix(1 0 0 1 0 0)" d="M13.92 184.3101L578.4 184.3101L578.4 184.3101L578.4 830.39L578.4 830.39L13.92 830.39z" /></clipPath><clipPath id="11"><path id="" clip-rule="evenodd" transform="matrix(1 0 0 1 0 0)" d="M13.95595 184.3496L578.3145 184.3496L578.3145 184.3496L578.3145 830.2756L578.3145 830.2756L13.95595 830.2756z" /></clipPath><clipPath id="12"><path id="" clip-rule="evenodd" transform="matrix(1 0 0 1 0 0)" d="M24.45595 184.3496L567.8145 184.3496C 570.5992 184.3496 573.2699 185.4559 575.239 187.425C 577.2082 189.3942 578.3145 192.0649 578.3145 194.8496L578.3145 194.8496L578.3145 817.9537C 578.3145 820.7386 577.2082 823.4093 575.239 825.3784C 573.2699 827.3475 570.5992 828.4539 567.8145 828.4539L567.8145 828.4539L24.45595 828.4539C 21.67117 828.4539 19.00046 827.3475 17.03133 825.3784C 15.06219 823.4093 13.95595 820.7386 13.95595 817.9537L13.95595 817.9537L13.95595 194.8496C 13.95595 192.0649 15.06219 189.3942 17.03133 187.425C 19.00046 185.4559 21.67117 184.3496 24.45595 184.3496z" /></clipPath><clipPath id="13"><path id="" clip-rule="evenodd" transform="matrix(1 0 0 1 0 0)" d="M407.9553 316.1639L567.7053 316.1639L567.7053 316.1639L567.7053 439.1639L567.7053 439.1639L407.9553 439.1639z" /></clipPath><clipPath id="14"><path id="" clip-rule="evenodd" transform="matrix(1 0 0 1 0 0)" d="M0 -0.249939L595.5 -0.249939L595.5 -0.249939L595.5 842.0001L595.5 842.0001L0 842.0001z" /></clipPath><clipPath id="15"><path id="" clip-rule="evenodd" transform="matrix(1 0 0 1 0 0)" d="M0 -0.249939L595.5 -0.249939L595.5 -0.249939L595.5 842.0001L595.5 842.0001L0 842.0001z" /></clipPath><clipPath id="16"><path id="" clip-rule="evenodd" transform="matrix(1 0 0 1 0 0)" d="M79.88902 574.1493L232.139 574.1493L232.139 574.1493L232.139 688.1493L232.139 688.1493L79.88902 688.1493z" /></clipPath><clipPath id="17"><path id="" clip-rule="evenodd" transform="matrix(1 0 0 1 0 0)" d="M79.88902 581.6493L79.88902 680.4289C 79.88902 684.571 83.24689 687.9289 87.38902 687.9289L87.38902 687.9289L224.0952 687.9289C 228.2373 687.9289 231.5952 684.571 231.5952 680.4289L231.5952 680.4289L231.5952 581.6493C 231.5952 577.5071 228.2373 574.1493 224.0952 574.1493L224.0952 574.1493L87.38902 574.1493C 83.24689 574.1493 79.88902 577.5071 79.88902 581.6493z" /></clipPath><clipPath id="18"><path id="" clip-rule="evenodd" transform="matrix(1 0 0 1 0 0)" d="M79.88902 574.1493L231.389 574.1493L231.389 574.1493L231.389 688.1493L231.389 688.1493L79.88902 688.1493z" /></clipPath><clipPath id="19"><path id="" clip-rule="evenodd" transform="matrix(1 0 0 1 0 0)" d="M0 -0.249939L595.5 -0.249939L595.5 -0.249939L595.5 842.0001L595.5 842.0001L0 842.0001z" /></clipPath><clipPath id="20"><path id="" clip-rule="evenodd" transform="matrix(1 0 0 1 0 0)" d="M0 -0.249939L595.5 -0.249939L595.5 -0.249939L595.5 842.0001L595.5 842.0001L0 842.0001z" /></clipPath><clipPath id="21"><path id="" clip-rule="evenodd" transform="matrix(1 0 0 1 0 0)" d="M345.6601 574.1493L497.1601 574.1493L497.1601 574.1493L497.1601 695.6493L497.1601 695.6493L345.6601 695.6493z" /></clipPath><clipPath id="22"><path id="" clip-rule="evenodd" transform="matrix(1 0 0 1 0 0)" d="M345.6601 581.6493L345.6601 687.9473C 345.6601 692.0895 349.018 695.4473 353.1601 695.4473L353.1601 695.4473L489.3562 695.4473C 493.4984 695.4473 496.8562 692.0895 496.8562 687.9473L496.8562 687.9473L496.8562 581.6493C 496.8562 577.5071 493.4984 574.1493 489.3562 574.1493L489.3562 574.1493L353.1601 574.1493C 349.018 574.1493 345.6601 577.5071 345.6601 581.6493z" /></clipPath><clipPath id="23"><path id="" clip-rule="evenodd" transform="matrix(1 0 0 1 0 0)" d="M345.6601 574.1493L497.1601 574.1493L497.1601 574.1493L497.1601 695.6493L497.1601 695.6493L345.6601 695.6493z" /></clipPath><clipPath id="24"><path id="" clip-rule="evenodd" transform="matrix(1 0 0 1 0 0)" d="M0 -0.249939L595.5 -0.249939L595.5 -0.249939L595.5 842.0001L595.5 842.0001L0 842.0001z" /></clipPath></defs><g transform="matrix(1.333333 0 0 1.333333 0 0)"><g clip-path="url(#1)"><g clip-path="url(#2)"><path id="1" transform="matrix(1 0 0 -1 0 842)" d="M0 842.2499L595.4999 842.2499L595.4999 -6.103516E-05L0 -6.103516E-05z" stroke="none" fill="#FFFFFF" fill-rule="nonzero" /></g><g clip-path="url(#3)"><path id="2" transform="matrix(1 0 0 -1 0 842)" d="M0 842.2499L595.4999 842.2499L595.4999 -6.103516E-05L0 -6.103516E-05z" stroke="none" fill="#E9FCFF" fill-rule="nonzero" /></g><g clip-path="url(#4)"><g><g clip-path="url(#5)"><g clip-path="url(#6)"><g transform="matrix(0 0.5281065 -0.5283893 0 535.7411 2.221619)"><g transform="matrix(1 0 0 1 0 0)"><image x="0" y="0" xlink:href="img_01.png" width="1521" height="863" /></g></g></g></g></g></g><g clip-path="url(#7)"><g transform="matrix(0.05374753 0 0 0.0538818 489.3922 29.22412)"><g transform="matrix(1 0 0 1 0 0)"><image x="0" y="0" xlink:href="img_02.png" width="1521" height="863" /></g></g></g><g clip-path="url(#8)"><g transform="matrix(0.4929577 0 0 0.4906914 7.072427 22.42804)"><g transform="matrix(1 0 0 1 0 0)"><image x="0" y="0" xlink:href="img_03.png" width="213" height="188" /></g></g></g><g clip-path="url(#9)"><g><g clip-path="url(#10)"><g clip-path="url(#11)"><g clip-path="url(#12)"><path id="6" transform="matrix(1 0 0 -1 0 842)" d="M13.95595 657.6503L578.3144 657.6503L578.3144 13.92889L13.95595 13.92889z" stroke="none" fill="#80EEFF" fill-rule="nonzero" fill-opacity="0.227451" /></g></g></g></g></g><g clip-path="url(#13)"><g transform="matrix(0.3896341 0 0 0.3892405 407.9553 316.1639)"><g transform="matrix(1 0 0 1 0 0)"><image x="0" y="0" xlink:href="img_04.png" width="410" height="316" /></g></g></g><g clip-path="url(#14)"><g clip-path="url(#15)"><g clip-path="url(#16)"><g clip-path="url(#17)"><g clip-path="url(#18)"><g transform="matrix(0.4734375 0 0 0.475 79.88902 574.1493)"><g transform="matrix(1 0 0 1 0 0)"><image x="0" y="0" xlink:href="img_05.png" width="320" height="240" /></g></g></g></g></g></g></g><g clip-path="url(#19)"><g clip-path="url(#20)"><g clip-path="url(#21)"><g clip-path="url(#22)"><g clip-path="url(#23)"><g transform="matrix(0.5881056 0 0 0.5881056 345.6601 574.1493)"><g transform="matrix(1 0 0 1 0 0)"><image x="0" y="0" xlink:href="img_06.png" width="454" height="227" /></g></g></g></g></g></g></g><g clip-path="url(#24)"></g></g></g></svg>