<svg xmlns="http://www.w3.org/2000/svg" xmlns:xlink="http://www.w3.org/1999/xlink" id="body_1" preserveAspectRatio="xMinYMin meet" viewBox="0 0 793 1123"><defs><clipPath id="1"><path id="" clip-rule="evenodd" transform="matrix(1 0 0 1 0 0)" d="M0 842L0 -0.250061L0 -0.250061L595.5 -0.250061L595.5 -0.250061L595.5 842L595.5 842L0 842z" /></clipPath><clipPath id="2"><path id="" clip-rule="evenodd" transform="matrix(1 0 0 1 0 0)" d="M0 -0.25L595.5 -0.25L595.5 -0.25L595.5 842.0012L595.5 842.0012L0 842.0012z" /></clipPath><clipPath id="3"><path id="" clip-rule="evenodd" transform="matrix(1 0 0 1 0 0)" d="M0 -0.25L595.5 -0.25L595.5 -0.25L595.5 842.0012L595.5 842.0012L0 842.0012z" /></clipPath><clipPath id="4"><path id="" clip-rule="evenodd" transform="matrix(1 0 0 1 0 0)" d="M0 -0.25L595.5 -0.25L595.5 -0.25L595.5 842.0012L595.5 842.0012L0 842.0012z" /></clipPath><clipPath id="5"><path id="" clip-rule="evenodd" transform="matrix(1 0 0 1 0 0)" d="M78.71999 30.71002L522.24 30.71002L522.24 30.71002L522.24 810.95L522.24 810.95L78.71999 810.95z" /></clipPath><clipPath id="6"><path id="" clip-rule="evenodd" transform="matrix(1 0 0 1 0 0)" d="M79.51786 30.75177L522.0178 30.75177L522.0178 30.75177L522.0178 810.7518L522.0178 810.7518L79.51786 810.7518z" /></clipPath><clipPath id="7"><path id="" clip-rule="evenodd" transform="matrix(1 0 0 1 0 0)" d="M0 -0.25L595.5 -0.25L595.5 -0.25L595.5 842.0012L595.5 842.0012L0 842.0012z" /></clipPath><clipPath id="8"><path id="" clip-rule="evenodd" transform="matrix(1 0 0 1 0 0)" d="M0 -0.25L595.5 -0.25L595.5 -0.25L595.5 842.0012L595.5 842.0012L0 842.0012z" /></clipPath><clipPath id="9"><path id="" clip-rule="evenodd" transform="matrix(1 0 0 1 0 0)" d="M32.59128 28.46698L286.3913 28.46698L286.3913 28.46698L286.3913 268.2183L286.3913 268.2183L32.59128 268.2183z" /></clipPath><clipPath id="10"><path id="" clip-rule="evenodd" transform="matrix(1 0 0 1 0 0)" d="M60.34128 28.46698L257.88 28.46698C 265.2384 28.46698 272.2968 31.39063 277.5024 36.59479C 282.7056 41.79895 285.6288 48.85736 285.6288 56.21698L285.6288 56.21698L285.6288 240.4676C 285.6288 247.8284 282.7056 254.8868 277.5024 260.09C 272.2968 265.2956 265.2384 268.2188 257.88 268.2188L257.88 268.2188L60.34128 268.2188C 52.98144 268.2188 45.92304 265.2956 40.71888 260.09C 35.51496 254.8868 32.59128 247.8284 32.59128 240.4676L32.59128 240.4676L32.59128 56.21698C 32.59128 48.85736 35.51496 41.79895 40.71888 36.59479C 45.92304 31.39063 52.98144 28.46698 60.34128 28.46698z" /></clipPath><clipPath id="11"><path id="" clip-rule="evenodd" transform="matrix(1 0 0 1 0 0)" d="M49.01952 245.3852L268.8684 245.3852L268.8684 245.3852L268.8684 250.2399L268.8684 250.2399L49.01952 250.2399z" /></clipPath><clipPath id="12"><path id="" clip-rule="evenodd" transform="matrix(1 0 0 1 0 0)" d="M48.96 245.27L269.04 245.27L269.04 245.27L269.04 250.31L269.04 250.31L48.96 250.31z" /></clipPath><mask id="m1"><clipPath id="13"><path id="" clip-rule="evenodd" transform="matrix(1 0 0 1 0 0)" d="M48.96 245.27L269.04 245.27L269.04 245.27L269.04 250.31L269.04 250.31L48.96 250.31z" /></clipPath><g><g><g clip-path="url(#13)"><path id="5" transform="matrix(1 0 0 -1 0 842)" d="M48.96 596.73L269.04 596.73L269.04 591.69L48.96 591.69z" stroke="none" fill="#000000" fill-rule="nonzero" /></g></g></g></mask><clipPath id="14"><path id="" clip-rule="evenodd" transform="matrix(1 0 0 1 0 0)" d="M48.96 245.27L269.04 245.27L269.04 245.27L269.04 250.31L269.04 250.31L48.96 250.31z" /></clipPath><clipPath id="15"><path id="" clip-rule="evenodd" transform="matrix(1 0 0 1 0 0)" d="M48.71999 245.4622L269.28 245.4622L269.28 245.4622L269.28 250.3273L269.28 250.3273L48.71999 250.3273z" /></clipPath><mask id="m2"><clipPath id="16"><path id="" clip-rule="evenodd" transform="matrix(1 0 0 1 0 0)" d="M48.96 245.27L269.04 245.27L269.04 245.27L269.04 250.31L269.04 250.31L48.96 250.31z" /></clipPath><clipPath id="17"><path id="" clip-rule="evenodd" transform="matrix(1 0 0 1 0 0)" d="M48.96 245.27L269.04 245.27L269.04 245.27L269.04 250.31L269.04 250.31L48.96 250.31z" /></clipPath><clipPath id="18"><path id="" clip-rule="evenodd" transform="matrix(1 0 0 1 0 0)" d="M49.04028 245.4622L268.8572 245.4622L268.8572 245.4622L268.8572 250.1327L268.8572 250.1327L49.04028 250.1327z" /></clipPath><g><g><g clip-path="url(#16)"><g><g clip-path="url(#17)"><g clip-path="url(#18)"><g transform="matrix(0.24 0 0 0.24 48.96 245.2701)"><g transform="matrix(1 0 0 1 0 0)"><image x="0" y="0" xlink:href="img_02.png" width="917" height="21" /></g></g></g></g></g></g></g></g></mask><clipPath id="19"><path id="" clip-rule="evenodd" transform="matrix(1 0 0 1 0 0)" d="M48.96 245.27L269.04 245.27L269.04 245.27L269.04 250.31L269.04 250.31L48.96 250.31z" /></clipPath><clipPath id="20"><path id="" clip-rule="evenodd" transform="matrix(1 0 0 1 0 0)" d="M48.71999 245.4622L269.28 245.4622L269.28 245.4622L269.28 250.3273L269.28 250.3273L48.71999 250.3273z" /></clipPath><clipPath id="21"><path id="" clip-rule="evenodd" transform="matrix(1 0 0 1 0 0)" d="M0 -0.25L595.5 -0.25L595.5 -0.25L595.5 842.0012L595.5 842.0012L0 842.0012z" /></clipPath><clipPath id="22"><path id="" clip-rule="evenodd" transform="matrix(1 0 0 1 0 0)" d="M0 -0.25L595.5 -0.25L595.5 -0.25L595.5 842.0012L595.5 842.0012L0 842.0012z" /></clipPath><clipPath id="23"><path id="" clip-rule="evenodd" transform="matrix(1 0 0 1 0 0)" d="M46.2372 110.8537L193.2941 110.8537L193.2941 110.8537L193.2941 231.5159L193.2941 231.5159L46.2372 231.5159z" /></clipPath><clipPath id="24"><path id="" clip-rule="evenodd" transform="matrix(1 0 0 1 0 0)" d="M58.9872 110.8537L180.4663 110.8537C 183.8479 110.8537 187.0908 112.197 189.4819 114.5881C 191.873 116.9789 193.2163 120.222 193.2163 123.6037L193.2163 123.6037L193.2163 218.7656C 193.2163 222.1472 191.873 225.3903 189.4819 227.7812C 187.0908 230.1723 183.8479 231.5156 180.4663 231.5156L180.4663 231.5156L58.9872 231.5156C 55.6056 231.5156 52.36272 230.1723 49.9716 227.7812C 47.58048 225.3903 46.2372 222.1472 46.2372 218.7656L46.2372 218.7656L46.2372 123.6037C 46.2372 120.222 47.58048 116.9789 49.9716 114.5881C 52.36272 112.197 55.6056 110.8537 58.9872 110.8537z" /></clipPath><clipPath id="25"><path id="" clip-rule="evenodd" transform="matrix(1 0 0 1 0 0)" d="M46.2372 110.8537L193.2941 110.8537L193.2941 110.8537L193.2941 231.5159L193.2941 231.5159L46.2372 231.5159z" /></clipPath><clipPath id="26"><path id="" clip-rule="evenodd" transform="matrix(1 0 0 1 0 0)" d="M0 -0.25L595.5 -0.25L595.5 -0.25L595.5 842.0012L595.5 842.0012L0 842.0012z" /></clipPath><clipPath id="27"><path id="" clip-rule="evenodd" transform="matrix(1 0 0 1 0 0)" d="M0 -0.25L595.5 -0.25L595.5 -0.25L595.5 842.0012L595.5 842.0012L0 842.0012z" /></clipPath><clipPath id="28"><path id="" clip-rule="evenodd" transform="matrix(1 0 0 1 0 0)" d="M0 -0.25L595.5 -0.25L595.5 -0.25L595.5 842.0012L595.5 842.0012L0 842.0012z" /></clipPath><clipPath id="29"><path id="" clip-rule="evenodd" transform="matrix(1 0 0 1 0 0)" d="M32.59128 285.2252L280.1249 285.2252L280.1249 285.2252L280.1249 590.774L280.1249 590.774L32.59128 590.774z" /></clipPath><clipPath id="30"><path id="" clip-rule="evenodd" transform="matrix(1 0 0 1 0 0)" d="M60.34128 285.2252L252.3744 285.2252C 259.7352 285.2252 266.7936 288.1508 271.9968 293.354C 277.2024 298.5572 280.1256 305.6156 280.1256 312.9764L280.1256 312.9764L280.1256 562.7228C 280.1256 570.0836 277.2024 577.142 271.9968 582.3452C 266.7936 587.5508 259.7352 590.474 252.3744 590.474L252.3744 590.474L60.34128 590.474C 52.98144 590.474 45.92304 587.5508 40.71888 582.3452C 35.51496 577.142 32.59128 570.0836 32.59128 562.7228L32.59128 562.7228L32.59128 312.9764C 32.59128 305.6156 35.51496 298.5572 40.71888 293.354C 45.92304 288.1508 52.98144 285.2252 60.34128 285.2252z" /></clipPath><clipPath id="31"><path id="" clip-rule="evenodd" transform="matrix(1 0 0 1 0 0)" d="M37.57248 551.4572L275.3225 551.4572L275.3225 551.4572L275.3225 556.7072L275.3225 556.7072L37.57248 556.7072z" /></clipPath><clipPath id="32"><path id="" clip-rule="evenodd" transform="matrix(1 0 0 1 0 0)" d="M37.44 551.51L275.52 551.51L275.52 551.51L275.52 556.79L275.52 556.79L37.44 556.79z" /></clipPath><mask id="m3"><clipPath id="33"><path id="" clip-rule="evenodd" transform="matrix(1 0 0 1 0 0)" d="M37.44 551.51L275.52 551.51L275.52 551.51L275.52 556.79L275.52 556.79L37.44 556.79z" /></clipPath><g><g><g clip-path="url(#33)"><path id="115" transform="matrix(1 0 0 -1 0 842)" d="M37.44 290.49L275.52 290.49L275.52 285.21L37.44 285.21z" stroke="none" fill="#000000" fill-rule="nonzero" /></g></g></g></mask><clipPath id="34"><path id="" clip-rule="evenodd" transform="matrix(1 0 0 1 0 0)" d="M37.44 551.51L275.52 551.51L275.52 551.51L275.52 556.79L275.52 556.79L37.44 556.79z" /></clipPath><clipPath id="35"><path id="" clip-rule="evenodd" transform="matrix(1 0 0 1 0 0)" d="M37.2 551.5383L275.76 551.5383L275.76 551.5383L275.76 556.7996L275.76 556.7996L37.2 556.7996z" /></clipPath><mask id="m4"><clipPath id="36"><path id="" clip-rule="evenodd" transform="matrix(1 0 0 1 0 0)" d="M37.44 551.51L275.52 551.51L275.52 551.51L275.52 556.79L275.52 556.79L37.44 556.79z" /></clipPath><clipPath id="37"><path id="" clip-rule="evenodd" transform="matrix(1 0 0 1 0 0)" d="M37.44 551.51L275.52 551.51L275.52 551.51L275.52 556.79L275.52 556.79L37.44 556.79z" /></clipPath><clipPath id="38"><path id="" clip-rule="evenodd" transform="matrix(1 0 0 1 0 0)" d="M37.59509 551.5383L275.3104 551.5383L275.3104 551.5383L275.3104 556.5891L275.3104 556.5891L37.59509 556.5891z" /></clipPath><g><g><g clip-path="url(#36)"><g><g clip-path="url(#37)"><g clip-path="url(#38)"><g transform="matrix(0.24 0 0 0.24 37.44 551.51)"><g transform="matrix(1 0 0 1 0 0)"><image x="0" y="0" xlink:href="img_04.png" width="992" height="22" /></g></g></g></g></g></g></g></g></mask><clipPath id="39"><path id="" clip-rule="evenodd" transform="matrix(1 0 0 1 0 0)" d="M37.44 551.51L275.52 551.51L275.52 551.51L275.52 556.79L275.52 556.79L37.44 556.79z" /></clipPath><clipPath id="40"><path id="" clip-rule="evenodd" transform="matrix(1 0 0 1 0 0)" d="M37.2 551.5383L275.76 551.5383L275.76 551.5383L275.76 556.7996L275.76 556.7996L37.2 556.7996z" /></clipPath><clipPath id="41"><path id="" clip-rule="evenodd" transform="matrix(1 0 0 1 0 0)" d="M0 -0.25L595.5 -0.25L595.5 -0.25L595.5 842.0012L595.5 842.0012L0 842.0012z" /></clipPath><clipPath id="42"><path id="" clip-rule="evenodd" transform="matrix(1 0 0 1 0 0)" d="M0 -0.25L595.5 -0.25L595.5 -0.25L595.5 842.0012L595.5 842.0012L0 842.0012z" /></clipPath><clipPath id="43"><path id="" clip-rule="evenodd" transform="matrix(1 0 0 1 0 0)" d="M51.18648 375.9236L244.421 375.9236L244.421 375.9236L244.421 540.2693L244.421 540.2693L51.18648 540.2693z" /></clipPath><clipPath id="44"><path id="" clip-rule="evenodd" transform="matrix(1 0 0 1 0 0)" d="M63.93648 375.9236L231.325 375.9236C 238.3665 375.9236 244.0752 381.6308 244.0752 388.6724L244.0752 388.6724L244.0752 527.5196C 244.0752 534.5612 238.3665 540.2684 231.325 540.2684L231.325 540.2684L63.93648 540.2684C 56.89488 540.2684 51.18648 534.5612 51.18648 527.5196L51.18648 527.5196L51.18648 388.6724C 51.18648 381.6308 56.89488 375.9236 63.93648 375.9236z" /></clipPath><clipPath id="45"><path id="" clip-rule="evenodd" transform="matrix(1 0 0 1 0 0)" d="M51.18648 375.9236L243.779 375.9236L243.779 375.9236L243.779 540.2693L243.779 540.2693L51.18648 540.2693z" /></clipPath><clipPath id="46"><path id="" clip-rule="evenodd" transform="matrix(1 0 0 1 0 0)" d="M0 -0.25L595.5 -0.25L595.5 -0.25L595.5 842.0012L595.5 842.0012L0 842.0012z" /></clipPath><clipPath id="47"><path id="" clip-rule="evenodd" transform="matrix(1 0 0 1 0 0)" d="M0 -0.25L595.5 -0.25L595.5 -0.25L595.5 842.0012L595.5 842.0012L0 842.0012z" /></clipPath><clipPath id="48"><path id="" clip-rule="evenodd" transform="matrix(1 0 0 1 0 0)" d="M0 -0.25L595.5 -0.25L595.5 -0.25L595.5 842.0012L595.5 842.0012L0 842.0012z" /></clipPath><clipPath id="49"><path id="" clip-rule="evenodd" transform="matrix(1 0 0 1 0 0)" d="M32.59128 597.2228L280.3553 597.2228L280.3553 597.2228L280.3553 832.1398L280.3553 832.1398L32.59128 832.1398z" /></clipPath><clipPath id="50"><path id="" clip-rule="evenodd" transform="matrix(1 0 0 1 0 0)" d="M60.34128 597.2228L252.3744 597.2228C 259.7352 597.2228 266.7936 600.1484 271.9968 605.3516C 277.2024 610.5548 280.1256 617.6132 280.1256 624.974L280.1256 624.974L280.1256 804.3907C 280.1256 811.7516 277.2024 818.81 271.9968 824.0132C 266.7936 829.2164 259.7352 832.1396 252.3744 832.1396L252.3744 832.1396L60.34128 832.1396C 52.98144 832.1396 45.92304 829.2164 40.71888 824.0132C 35.51496 818.81 32.59128 811.7516 32.59128 804.3907L32.59128 804.3907L32.59128 624.974C 32.59128 617.6132 35.51496 610.5548 40.71888 605.3516C 45.92304 600.1484 52.98144 597.2228 60.34128 597.2228z" /></clipPath><clipPath id="51"><path id="" clip-rule="evenodd" transform="matrix(1 0 0 1 0 0)" d="M33.83856 790.6292L271.5886 790.6292L271.5886 790.6292L271.5886 795.8792L271.5886 795.8792L33.83856 795.8792z" /></clipPath><clipPath id="52"><path id="" clip-rule="evenodd" transform="matrix(1 0 0 1 0 0)" d="M33.6 790.55L271.68 790.55L271.68 790.55L271.68 796.07L271.68 796.07L33.6 796.07z" /></clipPath><mask id="m5"><clipPath id="53"><path id="" clip-rule="evenodd" transform="matrix(1 0 0 1 0 0)" d="M33.6 790.55L271.68 790.55L271.68 790.55L271.68 796.07L271.68 796.07L33.6 796.07z" /></clipPath><g><g><g clip-path="url(#53)"><path id="233" transform="matrix(1 0 0 -1 0 842)" d="M33.6 51.45002L271.68 51.45002L271.68 45.93002L33.6 45.93002z" stroke="none" fill="#000000" fill-rule="nonzero" /></g></g></g></mask><clipPath id="54"><path id="" clip-rule="evenodd" transform="matrix(1 0 0 1 0 0)" d="M33.6 790.55L271.68 790.55L271.68 790.55L271.68 796.07L271.68 796.07L33.6 796.07z" /></clipPath><clipPath id="55"><path id="" clip-rule="evenodd" transform="matrix(1 0 0 1 0 0)" d="M33.36 790.712L271.92 790.712L271.92 790.712L271.92 795.9732L271.92 795.9732L33.36 795.9732z" /></clipPath><mask id="m6"><clipPath id="56"><path id="" clip-rule="evenodd" transform="matrix(1 0 0 1 0 0)" d="M33.6 790.55L271.68 790.55L271.68 790.55L271.68 796.07L271.68 796.07L33.6 796.07z" /></clipPath><clipPath id="57"><path id="" clip-rule="evenodd" transform="matrix(1 0 0 1 0 0)" d="M33.6 790.55L271.68 790.55L271.68 790.55L271.68 796.07L271.68 796.07L33.6 796.07z" /></clipPath><clipPath id="58"><path id="" clip-rule="evenodd" transform="matrix(1 0 0 1 0 0)" d="M33.86095 790.712L271.5763 790.712L271.5763 790.712L271.5763 795.7628L271.5763 795.7628L33.86095 795.7628z" /></clipPath><g><g><g clip-path="url(#56)"><g><g clip-path="url(#57)"><g clip-path="url(#58)"><g transform="matrix(0.24 0 0 0.24 33.84 790.55)"><g transform="matrix(1 0 0 1 0 0)"><image x="0" y="0" xlink:href="img_06.png" width="991" height="22" /></g></g></g></g></g></g></g></g></mask><clipPath id="59"><path id="" clip-rule="evenodd" transform="matrix(1 0 0 1 0 0)" d="M33.6 790.55L271.68 790.55L271.68 790.55L271.68 796.07L271.68 796.07L33.6 796.07z" /></clipPath><clipPath id="60"><path id="" clip-rule="evenodd" transform="matrix(1 0 0 1 0 0)" d="M33.36 790.712L271.92 790.712L271.92 790.712L271.92 795.9732L271.92 795.9732L33.36 795.9732z" /></clipPath><clipPath id="61"><path id="" clip-rule="evenodd" transform="matrix(1 0 0 1 0 0)" d="M0 -0.25L595.5 -0.25L595.5 -0.25L595.5 842.0012L595.5 842.0012L0 842.0012z" /></clipPath><clipPath id="62"><path id="" clip-rule="evenodd" transform="matrix(1 0 0 1 0 0)" d="M0 -0.25L595.5 -0.25L595.5 -0.25L595.5 842.0012L595.5 842.0012L0 842.0012z" /></clipPath><clipPath id="63"><path id="" clip-rule="evenodd" transform="matrix(1 0 0 1 0 0)" d="M76.00127 656.6083L246.0197 656.6083L246.0197 656.6083L246.0197 785.3797L246.0197 785.3797L76.00127 785.3797z" /></clipPath><clipPath id="64"><path id="" clip-rule="evenodd" transform="matrix(1 0 0 1 0 0)" d="M88.75127 656.6083L232.975 656.6083C 236.3566 656.6083 239.5994 657.9524 241.9896 660.3428C 244.3824 662.7332 245.724 665.978 245.724 669.3596L245.724 669.3596L245.724 772.6292C 245.724 776.0107 244.3824 779.2556 241.9896 781.6459C 239.5994 784.0364 236.3566 785.3804 232.975 785.3804L232.975 785.3804L88.75127 785.3804C 85.36992 785.3804 82.1268 784.0364 79.73568 781.6459C 77.34456 779.2556 76.00127 776.0107 76.00127 772.6292L76.00127 772.6292L76.00127 669.3596C 76.00127 665.978 77.34456 662.7332 79.73568 660.3428C 82.1268 657.9524 85.36992 656.6083 88.75127 656.6083z" /></clipPath><clipPath id="65"><path id="" clip-rule="evenodd" transform="matrix(1 0 0 1 0 0)" d="M76.00127 656.6083L245.5166 656.6083L245.5166 656.6083L245.5166 785.3797L245.5166 785.3797L76.00127 785.3797z" /></clipPath><clipPath id="66"><path id="" clip-rule="evenodd" transform="matrix(1 0 0 1 0 0)" d="M0 -0.25L595.5 -0.25L595.5 -0.25L595.5 842.0012L595.5 842.0012L0 842.0012z" /></clipPath><clipPath id="67"><path id="" clip-rule="evenodd" transform="matrix(1 0 0 1 0 0)" d="M0 -0.25L595.5 -0.25L595.5 -0.25L595.5 842.0012L595.5 842.0012L0 842.0012z" /></clipPath><clipPath id="68"><path id="" clip-rule="evenodd" transform="matrix(1 0 0 1 0 0)" d="M0 -0.25L595.5 -0.25L595.5 -0.25L595.5 842.0012L595.5 842.0012L0 842.0012z" /></clipPath><clipPath id="69"><path id="" clip-rule="evenodd" transform="matrix(1 0 0 1 0 0)" d="M317.6016 479.6084L565.1352 479.6084L565.1352 479.6084L565.1352 752.282L565.1352 752.282L317.6016 752.282z" /></clipPath><clipPath id="70"><path id="" clip-rule="evenodd" transform="matrix(1 0 0 1 0 0)" d="M345.3528 479.6084L537.3864 479.6084C 544.7448 479.6084 551.8032 482.5316 557.0088 487.7348C 562.212 492.9404 565.1352 499.9988 565.1352 507.3572L565.1352 507.3572L565.1352 724.1155C 565.1352 731.4764 562.212 738.5348 557.0088 743.738C 551.8032 748.9412 544.7448 751.8668 537.3864 751.8668L537.3864 751.8668L345.3528 751.8668C 337.992 751.8668 330.9336 748.9412 325.7304 743.738C 320.5248 738.5348 317.6016 731.4764 317.6016 724.1155L317.6016 724.1155L317.6016 507.3572C 317.6016 499.9988 320.5248 492.9404 325.7304 487.7348C 330.9336 482.5316 337.992 479.6084 345.3528 479.6084z" /></clipPath><clipPath id="71"><path id="" clip-rule="evenodd" transform="matrix(1 0 0 1 0 0)" d="M318.8496 710.354L556.5996 710.354L556.5996 710.354L556.5996 715.604L556.5996 715.604L318.8496 715.604z" /></clipPath><clipPath id="72"><path id="" clip-rule="evenodd" transform="matrix(1 0 0 1 0 0)" d="M318.72 710.39L556.8 710.39L556.8 710.39L556.8 715.67L556.8 715.67L318.72 715.67z" /></clipPath><mask id="m7"><clipPath id="73"><path id="" clip-rule="evenodd" transform="matrix(1 0 0 1 0 0)" d="M318.72 710.39L556.8 710.39L556.8 710.39L556.8 715.67L556.8 715.67L318.72 715.67z" /></clipPath><g><g><g clip-path="url(#73)"><path id="358" transform="matrix(1 0 0 -1 0 842)" d="M318.72 131.61L556.8 131.61L556.8 126.33L318.72 126.33z" stroke="none" fill="#000000" fill-rule="nonzero" /></g></g></g></mask><clipPath id="74"><path id="" clip-rule="evenodd" transform="matrix(1 0 0 1 0 0)" d="M318.72 710.39L556.8 710.39L556.8 710.39L556.8 715.67L556.8 715.67L318.72 715.67z" /></clipPath><clipPath id="75"><path id="" clip-rule="evenodd" transform="matrix(1 0 0 1 0 0)" d="M318.48 710.4369L557.04 710.4369L557.04 710.4369L557.04 715.6981L557.04 715.6981L318.48 715.6981z" /></clipPath><mask id="m8"><clipPath id="76"><path id="" clip-rule="evenodd" transform="matrix(1 0 0 1 0 0)" d="M318.72 710.39L556.8 710.39L556.8 710.39L556.8 715.67L556.8 715.67L318.72 715.67z" /></clipPath><clipPath id="77"><path id="" clip-rule="evenodd" transform="matrix(1 0 0 1 0 0)" d="M318.72 710.39L556.8 710.39L556.8 710.39L556.8 715.67L556.8 715.67L318.72 715.67z" /></clipPath><clipPath id="78"><path id="" clip-rule="evenodd" transform="matrix(1 0 0 1 0 0)" d="M318.8719 710.4369L556.5872 710.4369L556.5872 710.4369L556.5872 715.4877L556.5872 715.4877L318.8719 715.4877z" /></clipPath><g><g><g clip-path="url(#76)"><g><g clip-path="url(#77)"><g clip-path="url(#78)"><g transform="matrix(0.24 0 0 0.24 318.72 710.39)"><g transform="matrix(1 0 0 1 0 0)"><image x="0" y="0" xlink:href="img_08.png" width="992" height="22" /></g></g></g></g></g></g></g></g></mask><clipPath id="79"><path id="" clip-rule="evenodd" transform="matrix(1 0 0 1 0 0)" d="M318.72 710.39L556.8 710.39L556.8 710.39L556.8 715.67L556.8 715.67L318.72 715.67z" /></clipPath><clipPath id="80"><path id="" clip-rule="evenodd" transform="matrix(1 0 0 1 0 0)" d="M318.48 710.4369L557.04 710.4369L557.04 710.4369L557.04 715.6981L557.04 715.6981L318.48 715.6981z" /></clipPath><clipPath id="81"><path id="" clip-rule="evenodd" transform="matrix(1 0 0 1 0 0)" d="M0 -0.25L595.5 -0.25L595.5 -0.25L595.5 842.0012L595.5 842.0012L0 842.0012z" /></clipPath><clipPath id="82"><path id="" clip-rule="evenodd" transform="matrix(1 0 0 1 0 0)" d="M0 -0.25L595.5 -0.25L595.5 -0.25L595.5 842.0012L595.5 842.0012L0 842.0012z" /></clipPath><clipPath id="83"><path id="" clip-rule="evenodd" transform="matrix(1 0 0 1 0 0)" d="M336.1968 535.7612L552.8515 535.7612L552.8515 535.7612L552.8515 699.8547L552.8515 699.8547L336.1968 699.8547z" /></clipPath><clipPath id="84"><path id="" clip-rule="evenodd" transform="matrix(1 0 0 1 0 0)" d="M348.9456 535.7612L539.7264 535.7612C 543.108 535.7612 546.3504 537.1052 548.7408 539.4955C 551.1335 541.886 552.4752 545.1308 552.4752 548.5124L552.4752 548.5124L552.4752 687.1052C 552.4752 690.4868 551.1335 693.7292 548.7408 696.1196C 546.3504 698.5124 543.108 699.854 539.7264 699.854L539.7264 699.854L348.9456 699.854C 345.564 699.854 342.3216 698.5124 339.9312 696.1196C 337.5408 693.7292 336.1968 690.4868 336.1968 687.1052L336.1968 687.1052L336.1968 548.5124C 336.1968 545.1308 337.5408 541.886 339.9312 539.4955C 342.3216 537.1052 345.564 535.7612 348.9456 535.7612z" /></clipPath><clipPath id="85"><path id="" clip-rule="evenodd" transform="matrix(1 0 0 1 0 0)" d="M336.1968 535.7612L552.2107 535.7612L552.2107 535.7612L552.2107 699.8547L552.2107 699.8547L336.1968 699.8547z" /></clipPath><clipPath id="86"><path id="" clip-rule="evenodd" transform="matrix(1 0 0 1 0 0)" d="M0 -0.25L595.5 -0.25L595.5 -0.25L595.5 842.0012L595.5 842.0012L0 842.0012z" /></clipPath><clipPath id="87"><path id="" clip-rule="evenodd" transform="matrix(1 0 0 1 0 0)" d="M0 -0.25L595.5 -0.25L595.5 -0.25L595.5 842.0012L595.5 842.0012L0 842.0012z" /></clipPath><clipPath id="88"><path id="" clip-rule="evenodd" transform="matrix(1 0 0 1 0 0)" d="M0 -0.25L595.5 -0.25L595.5 -0.25L595.5 842.0012L595.5 842.0012L0 842.0012z" /></clipPath><clipPath id="89"><path id="" clip-rule="evenodd" transform="matrix(1 0 0 1 0 0)" d="M317.6016 133.2937L592.0992 133.2937L592.0992 133.2937L592.0992 392.5969L592.0992 392.5969L317.6016 392.5969z" /></clipPath><clipPath id="90"><path id="" clip-rule="evenodd" transform="matrix(1 0 0 1 0 0)" d="M345.3528 133.2937L563.4936 133.2937C 570.8544 133.2937 577.9128 136.2173 583.116 141.4213C 588.3216 146.6254 591.2448 153.6838 591.2448 161.0437L591.2448 161.0437L591.2448 364.8476C 591.2448 372.2084 588.3216 379.2668 583.116 384.47C 577.9128 389.6732 570.8544 392.5988 563.4936 392.5988L563.4936 392.5988L345.3528 392.5988C 337.992 392.5988 330.9336 389.6732 325.7304 384.47C 320.5248 379.2668 317.6016 372.2084 317.6016 364.8476L317.6016 364.8476L317.6016 161.0437C 317.6016 153.6838 320.5248 146.6254 325.7304 141.4213C 330.9336 136.2173 337.992 133.2937 345.3528 133.2937z" /></clipPath><clipPath id="91"><path id="" clip-rule="evenodd" transform="matrix(1 0 0 1 0 0)" d="M335.3688 367.9076L573.1188 367.9076L573.1188 367.9076L573.1188 373.1576L573.1188 373.1576L335.3688 373.1576z" /></clipPath><clipPath id="92"><path id="" clip-rule="evenodd" transform="matrix(1 0 0 1 0 0)" d="M335.28 367.91L573.12 367.91L573.12 367.91L573.12 373.19L573.12 373.19L335.28 373.19z" /></clipPath><mask id="m9"><clipPath id="93"><path id="" clip-rule="evenodd" transform="matrix(1 0 0 1 0 0)" d="M335.28 367.91L573.12 367.91L573.12 367.91L573.12 373.19L573.12 373.19L335.28 373.19z" /></clipPath><g><g><g clip-path="url(#93)"><path id="435" transform="matrix(1 0 0 -1 0 842)" d="M335.28 474.09L573.12 474.09L573.12 468.81L335.28 468.81z" stroke="none" fill="#000000" fill-rule="nonzero" /></g></g></g></mask><clipPath id="94"><path id="" clip-rule="evenodd" transform="matrix(1 0 0 1 0 0)" d="M335.28 367.91L573.12 367.91L573.12 367.91L573.12 373.19L573.12 373.19L335.28 373.19z" /></clipPath><clipPath id="95"><path id="" clip-rule="evenodd" transform="matrix(1 0 0 1 0 0)" d="M335.04 367.9887L573.36 367.9887L573.36 367.9887L573.36 373.2499L573.36 373.2499L335.04 373.2499z" /></clipPath><mask id="m10"><clipPath id="96"><path id="" clip-rule="evenodd" transform="matrix(1 0 0 1 0 0)" d="M335.28 367.91L573.12 367.91L573.12 367.91L573.12 373.19L573.12 373.19L335.28 373.19z" /></clipPath><clipPath id="97"><path id="" clip-rule="evenodd" transform="matrix(1 0 0 1 0 0)" d="M335.28 367.91L573.12 367.91L573.12 367.91L573.12 373.19L573.12 373.19L335.28 373.19z" /></clipPath><clipPath id="98"><path id="" clip-rule="evenodd" transform="matrix(1 0 0 1 0 0)" d="M335.3906 367.9887L573.1059 367.9887L573.1059 367.9887L573.1059 373.0395L573.1059 373.0395L335.3906 373.0395z" /></clipPath><g><g><g clip-path="url(#96)"><g><g clip-path="url(#97)"><g clip-path="url(#98)"><g transform="matrix(0.24 0 0 0.24 335.28 367.91)"><g transform="matrix(1 0 0 1 0 0)"><image x="0" y="0" xlink:href="img_10.png" width="991" height="22" /></g></g></g></g></g></g></g></g></mask><clipPath id="99"><path id="" clip-rule="evenodd" transform="matrix(1 0 0 1 0 0)" d="M335.28 367.91L573.12 367.91L573.12 367.91L573.12 373.19L573.12 373.19L335.28 373.19z" /></clipPath><clipPath id="100"><path id="" clip-rule="evenodd" transform="matrix(1 0 0 1 0 0)" d="M335.04 367.9887L573.36 367.9887L573.36 367.9887L573.36 373.2499L573.36 373.2499L335.04 373.2499z" /></clipPath><clipPath id="101"><path id="" clip-rule="evenodd" transform="matrix(1 0 0 1 0 0)" d="M0 -0.25L595.5 -0.25L595.5 -0.25L595.5 842.0012L595.5 842.0012L0 842.0012z" /></clipPath><clipPath id="102"><path id="" clip-rule="evenodd" transform="matrix(1 0 0 1 0 0)" d="M0 -0.25L595.5 -0.25L595.5 -0.25L595.5 842.0012L595.5 842.0012L0 842.0012z" /></clipPath><clipPath id="103"><path id="" clip-rule="evenodd" transform="matrix(1 0 0 1 0 0)" d="M355.7592 207.0752L555.9043 207.0752L555.9043 207.0752L555.9043 357.7729L555.9043 357.7729L355.7592 357.7729z" /></clipPath><clipPath id="104"><path id="" clip-rule="evenodd" transform="matrix(1 0 0 1 0 0)" d="M368.508 207.0752L542.6088 207.0752C 545.9904 207.0752 549.2328 208.4185 551.6255 210.8096C 554.016 213.2007 555.36 216.4436 555.36 219.8252L555.36 219.8252L555.36 345.0236C 555.36 348.4052 554.016 351.6476 551.6255 354.038C 549.2328 356.4284 545.9904 357.7724 542.6088 357.7724L542.6088 357.7724L368.508 357.7724C 365.1264 357.7724 361.884 356.4284 359.4936 354.038C 357.1032 351.6476 355.7592 348.4052 355.7592 345.0236L355.7592 345.0236L355.7592 219.8252C 355.7592 216.4436 357.1032 213.2007 359.4936 210.8096C 361.884 208.4185 365.1264 207.0752 368.508 207.0752z" /></clipPath><clipPath id="105"><path id="" clip-rule="evenodd" transform="matrix(1 0 0 1 0 0)" d="M355.7592 207.0752L555.3158 207.0752L555.3158 207.0752L555.3158 357.7729L555.3158 357.7729L355.7592 357.7729z" /></clipPath><clipPath id="106"><path id="" clip-rule="evenodd" transform="matrix(1 0 0 1 0 0)" d="M0 -0.25L595.5 -0.25L595.5 -0.25L595.5 842.0012L595.5 842.0012L0 842.0012z" /></clipPath><clipPath id="107"><path id="" clip-rule="evenodd" transform="matrix(1 0 0 1 0 0)" d="M489.3888 8.540771L589.1388 8.540771L589.1388 8.540771L589.1388 64.79077L589.1388 64.79077L489.3888 64.79077z" /></clipPath><clipPath id="108"><path id="" clip-rule="evenodd" transform="matrix(1 0 0 1 0 0)" d="M0 -0.25L595.5 -0.25L595.5 -0.25L595.5 842.0012L595.5 842.0012L0 842.0012z" /></clipPath></defs><g transform="matrix(1.333333 0 0 1.333333 0 0)"><g clip-path="url(#1)"><g clip-path="url(#2)"><path id="1" transform="matrix(1 0 0 -1 0 842)" d="M0 842.25L595.4999 842.25L595.4999 0L0 0z" stroke="none" fill="#FFFFFF" fill-rule="nonzero" /></g><g clip-path="url(#3)"><path id="2" transform="matrix(1 0 0 -1 0 842)" d="M0 842.25L595.4999 842.25L595.4999 0L0 0z" stroke="none" fill="#FFFFFF" fill-rule="nonzero" /></g><g clip-path="url(#4)"><g><g clip-path="url(#5)"><g clip-path="url(#6)"><g transform="matrix(0 0.975 -0.9768211 0 522.0178 30.75183)"><g transform="matrix(1 0 0 1 0 0)"><image x="0" y="0" xlink:href="img_01.png" width="800" height="453" /></g></g></g></g></g></g><g clip-path="url(#7)"><g clip-path="url(#8)"><g clip-path="url(#9)"><g clip-path="url(#10)"><path id="4" transform="matrix(1 0 0 -1 0 842)" d="M32.59128 813.533L285.4538 813.533L285.4538 573.7819L32.59128 573.7819z" stroke="none" fill="#1D70B7" fill-rule="nonzero" /></g></g></g></g><g clip-path="url(#11)"><g><g clip-path="url(#12)"><g mask="url(#m1)"><g><g clip-path="url(#14)"><g clip-path="url(#15)"><path id="6" transform="matrix(1 0 0 -1 0 842)" d="M49.04026 596.5378L268.8574 596.5378L268.8574 591.8673L49.04026 591.8673z" stroke="none" fill="#000000" fill-rule="nonzero" /></g></g></g></g><g mask="url(#m2)"><g><g clip-path="url(#19)"><g clip-path="url(#20)"><path id="8" transform="matrix(1 0 0 -1 0 842)" d="M49.04026 596.5378L268.8574 596.5378L268.8574 591.8673L49.04026 591.8673z" stroke="none" fill="#000000" fill-rule="nonzero" /></g></g></g></g></g></g></g><g clip-path="url(#21)"><g clip-path="url(#22)"><g clip-path="url(#23)"><g clip-path="url(#24)"><g clip-path="url(#25)"><g transform="matrix(0.5256116 0 0 0.524618 33.09288 110.8535)"><g transform="matrix(1 0 0 1 0 0)"><image x="0" y="0" xlink:href="img_03.png" width="330" height="230" /></g></g></g></g></g></g></g><g clip-path="url(#26)"></g><g clip-path="url(#27)"><g clip-path="url(#28)"><g clip-path="url(#29)"><g clip-path="url(#30)"><path id="114" transform="matrix(1 0 0 -1 0 842)" d="M32.59128 556.7748L280.1251 556.7748L280.1251 251.2253L32.59128 251.2253z" stroke="none" fill="#939CAB" fill-rule="nonzero" /></g></g></g></g><g clip-path="url(#31)"><g><g clip-path="url(#32)"><g mask="url(#m3)"><g><g clip-path="url(#34)"><g clip-path="url(#35)"><path id="116" transform="matrix(1 0 0 -1 0 842)" d="M37.59509 290.4616L275.3105 290.4616L275.3105 285.4108L37.59509 285.4108z" stroke="none" fill="#000000" fill-rule="nonzero" /></g></g></g></g><g mask="url(#m4)"><g><g clip-path="url(#39)"><g clip-path="url(#40)"><path id="118" transform="matrix(1 0 0 -1 0 842)" d="M37.59509 290.4616L275.3105 290.4616L275.3105 285.4108L37.59509 285.4108z" stroke="none" fill="#000000" fill-rule="nonzero" /></g></g></g></g></g></g></g><g clip-path="url(#41)"><g clip-path="url(#42)"><g clip-path="url(#43)"><g clip-path="url(#44)"><g clip-path="url(#45)"><g transform="matrix(0.5277697 0 0 0.5267492 49.7832 375.9226)"><g transform="matrix(1 0 0 1 0 0)"><image x="0" y="0" xlink:href="img_05.png" width="371" height="312" /></g></g></g></g></g></g></g><g clip-path="url(#46)"></g><g clip-path="url(#47)"><g clip-path="url(#48)"><g clip-path="url(#49)"><g clip-path="url(#50)"><path id="232" transform="matrix(1 0 0 -1 0 842)" d="M32.59128 244.7772L280.3553 244.7772L280.3553 9.860138L32.59128 9.860138z" stroke="none" fill="#1D70B7" fill-rule="nonzero" /></g></g></g></g><g clip-path="url(#51)"><g><g clip-path="url(#52)"><g mask="url(#m5)"><g><g clip-path="url(#54)"><g clip-path="url(#55)"><path id="234" transform="matrix(1 0 0 -1 0 842)" d="M33.86095 51.288L271.5763 51.288L271.5763 46.23722L33.86095 46.23722z" stroke="none" fill="#000000" fill-rule="nonzero" /></g></g></g></g><g mask="url(#m6)"><g><g clip-path="url(#59)"><g clip-path="url(#60)"><path id="236" transform="matrix(1 0 0 -1 0 842)" d="M33.86095 51.288L271.5763 51.288L271.5763 46.23722L33.86095 46.23722z" stroke="none" fill="#000000" fill-rule="nonzero" /></g></g></g></g></g></g></g><g clip-path="url(#61)"><g clip-path="url(#62)"><g clip-path="url(#63)"><g clip-path="url(#64)"><g clip-path="url(#65)"><g transform="matrix(0.3949089 0 0 0.3950039 70.86552 656.6091)"><g transform="matrix(1 0 0 1 0 0)"><image x="0" y="0" xlink:href="img_07.png" width="456" height="326" /></g></g></g></g></g></g></g><g clip-path="url(#66)"></g><g clip-path="url(#67)"><g clip-path="url(#68)"><g clip-path="url(#69)"><g clip-path="url(#70)"><path id="357" transform="matrix(1 0 0 -1 0 842)" d="M317.6016 362.3916L565.1353 362.3916L565.1353 89.71768L317.6016 89.71768z" stroke="none" fill="#1D70B7" fill-rule="nonzero" /></g></g></g></g><g clip-path="url(#71)"><g><g clip-path="url(#72)"><g mask="url(#m7)"><g><g clip-path="url(#74)"><g clip-path="url(#75)"><path id="359" transform="matrix(1 0 0 -1 0 842)" d="M318.8719 131.5631L556.5872 131.5631L556.5872 126.5123L318.8719 126.5123z" stroke="none" fill="#000000" fill-rule="nonzero" /></g></g></g></g><g mask="url(#m8)"><g><g clip-path="url(#79)"><g clip-path="url(#80)"><path id="361" transform="matrix(1 0 0 -1 0 842)" d="M318.8719 131.5631L556.5872 131.5631L556.5872 126.5123L318.8719 126.5123z" stroke="none" fill="#000000" fill-rule="nonzero" /></g></g></g></g></g></g></g><g clip-path="url(#81)"><g clip-path="url(#82)"><g clip-path="url(#83)"><g clip-path="url(#84)"><g clip-path="url(#85)"><g transform="matrix(0.4557255 0 0 0.4556645 336.1968 531.7981)"><g transform="matrix(1 0 0 1 0 0)"><image x="0" y="0" xlink:href="img_09.png" width="474" height="377" /></g></g></g></g></g></g></g><g clip-path="url(#86)"></g><g clip-path="url(#87)"><g clip-path="url(#88)"><g clip-path="url(#89)"><g clip-path="url(#90)"><path id="434" transform="matrix(1 0 0 -1 0 842)" d="M317.6016 708.7063L591.0867 708.7063L591.0867 449.4019L317.6016 449.4019z" stroke="none" fill="#1D70B7" fill-rule="nonzero" /></g></g></g></g><g clip-path="url(#91)"><g><g clip-path="url(#92)"><g mask="url(#m9)"><g><g clip-path="url(#94)"><g clip-path="url(#95)"><path id="436" transform="matrix(1 0 0 -1 0 842)" d="M335.3906 474.0113L573.1059 474.0113L573.1059 468.9605L335.3906 468.9605z" stroke="none" fill="#000000" fill-rule="nonzero" /></g></g></g></g><g mask="url(#m10)"><g><g clip-path="url(#99)"><g clip-path="url(#100)"><path id="438" transform="matrix(1 0 0 -1 0 842)" d="M335.3906 474.0113L573.1059 474.0113L573.1059 468.9605L335.3906 468.9605z" stroke="none" fill="#000000" fill-rule="nonzero" /></g></g></g></g></g></g></g><g clip-path="url(#101)"><g clip-path="url(#102)"><g clip-path="url(#103)"><g clip-path="url(#104)"><g clip-path="url(#105)"><g transform="matrix(0.5026615 0 0 0.5026118 355.7592 206.8391)"><g transform="matrix(1 0 0 1 0 0)"><image x="0" y="0" xlink:href="img_11.png" width="397" height="301" /></g></g></g></g></g></g></g><g clip-path="url(#106)"></g><g clip-path="url(#107)"><g transform="matrix(0.1246875 0 0 0.1241722 489.3888 8.540771)"><g transform="matrix(1 0 0 1 0 0)"><image x="0" y="0" xlink:href="img_12.png" width="800" height="453" /></g></g></g><g clip-path="url(#108)"></g></g></g></svg>