<svg xmlns="http://www.w3.org/2000/svg" xmlns:xlink="http://www.w3.org/1999/xlink" id="body_1" preserveAspectRatio="xMinYMin meet" viewBox="0 0 793 1123"><defs><clipPath id="1"><path id="" clip-rule="evenodd" transform="matrix(1 0 0 1 0 0)" d="M0 842L0 -0.25L0 -0.25L595.5 -0.25L595.5 -0.25L595.5 842L595.5 842L0 842z" /></clipPath><clipPath id="2"><path id="" clip-rule="evenodd" transform="matrix(1 0 0 1 0 0)" d="M0 -0.249939L595.5 -0.249939L595.5 -0.249939L595.5 842.0001L595.5 842.0001L0 842.0001z" /></clipPath><clipPath id="3"><path id="" clip-rule="evenodd" transform="matrix(1 0 0 1 0 0)" d="M0 -0.249939L595.5 -0.249939L595.5 -0.249939L595.5 842.0001L595.5 842.0001L0 842.0001z" /></clipPath><clipPath id="4"><path id="" clip-rule="evenodd" transform="matrix(1 0 0 1 0 0)" d="M0 -0.249939L595.5 -0.249939L595.5 -0.249939L595.5 842.0001L595.5 842.0001L0 842.0001z" /></clipPath><clipPath id="5"><path id="" clip-rule="evenodd" transform="matrix(1 0 0 1 0 0)" d="M83.27999 18.95007L539.52 18.95007L539.52 18.95007L539.52 823.1901L539.52 823.1901L83.27999 823.1901z" /></clipPath><clipPath id="6"><path id="" clip-rule="evenodd" transform="matrix(1 0 0 1 0 0)" d="M83.35973 19.05255L539.3597 19.05255L539.3597 19.05255L539.3597 822.3026L539.3597 822.3026L83.35973 822.3026z" /></clipPath><clipPath id="7"><path id="" clip-rule="evenodd" transform="matrix(1 0 0 1 0 0)" d="M489.3922 29.22406L571.1422 29.22406L571.1422 29.22406L571.1422 75.72406L571.1422 75.72406L489.3922 75.72406z" /></clipPath><clipPath id="8"><path id="" clip-rule="evenodd" transform="matrix(1 0 0 1 0 0)" d="M0 -0.249939L595.5 -0.249939L595.5 -0.249939L595.5 842.0001L595.5 842.0001L0 842.0001z" /></clipPath><clipPath id="9"><path id="" clip-rule="evenodd" transform="matrix(1 0 0 1 0 0)" d="M0 -0.249939L595.5 -0.249939L595.5 -0.249939L595.5 842.0001L595.5 842.0001L0 842.0001z" /></clipPath><clipPath id="10"><path id="" clip-rule="evenodd" transform="matrix(1 0 0 1 0 0)" d="M128.2303 360.2451L269.9496 360.2451L269.9496 360.2451L269.9496 409.4718L269.9496 409.4718L128.2303 409.4718z" /></clipPath><clipPath id="11"><path id="" clip-rule="evenodd" transform="matrix(1 0 0 1 0 0)" d="M140.9803 360.2451L257.1518 360.2451C 260.5333 360.2451 263.7763 361.5883 266.1674 363.9794C 268.5585 366.3705 269.9018 369.6136 269.9018 372.9951L269.9018 372.9951L269.9018 396.7218C 269.9018 400.1033 268.5585 403.3463 266.1674 405.7375C 263.7763 408.1285 260.5333 409.4718 257.1518 409.4718L257.1518 409.4718L140.9803 409.4718C 137.5988 409.4718 134.3558 408.1285 131.9647 405.7375C 129.5736 403.3463 128.2303 400.1033 128.2303 396.7218L128.2303 396.7218L128.2303 372.9951C 128.2303 369.6136 129.5736 366.3705 131.9647 363.9794C 134.3558 361.5883 137.5988 360.2451 140.9803 360.2451z" /></clipPath><clipPath id="12"><path id="" clip-rule="evenodd" transform="matrix(1 0 0 1 0 0)" d="M0 -0.249939L595.5 -0.249939L595.5 -0.249939L595.5 842.0001L595.5 842.0001L0 842.0001z" /></clipPath><clipPath id="13"><path id="" clip-rule="evenodd" transform="matrix(1 0 0 1 0 0)" d="M0 -0.249939L595.5 -0.249939L595.5 -0.249939L595.5 842.0001L595.5 842.0001L0 842.0001z" /></clipPath><clipPath id="14"><path id="" clip-rule="evenodd" transform="matrix(1 0 0 1 0 0)" d="M0 -0.249939L595.5 -0.249939L595.5 -0.249939L595.5 842.0001L595.5 842.0001L0 842.0001z" /></clipPath><clipPath id="15"><path id="" clip-rule="evenodd" transform="matrix(1 0 0 1 0 0)" d="M128.2303 501.0027L269.9496 501.0027L269.9496 501.0027L269.9496 550.2295L269.9496 550.2295L128.2303 550.2295z" /></clipPath><clipPath id="16"><path id="" clip-rule="evenodd" transform="matrix(1 0 0 1 0 0)" d="M140.9803 501.0027L257.1518 501.0027C 260.5333 501.0027 263.7763 502.346 266.1674 504.7371C 268.5585 507.1281 269.9018 510.3712 269.9018 513.7527L269.9018 513.7527L269.9018 537.4795C 269.9018 540.861 268.5585 544.104 266.1674 546.4951C 263.7763 548.8862 260.5333 550.2295 257.1518 550.2295L257.1518 550.2295L140.9803 550.2295C 137.5988 550.2295 134.3558 548.8862 131.9647 546.4951C 129.5736 544.104 128.2303 540.861 128.2303 537.4795L128.2303 537.4795L128.2303 513.7527C 128.2303 510.3712 129.5736 507.1281 131.9647 504.7371C 134.3558 502.346 137.5988 501.0027 140.9803 501.0027z" /></clipPath><clipPath id="17"><path id="" clip-rule="evenodd" transform="matrix(1 0 0 1 0 0)" d="M0 -0.249939L595.5 -0.249939L595.5 -0.249939L595.5 842.0001L595.5 842.0001L0 842.0001z" /></clipPath><clipPath id="18"><path id="" clip-rule="evenodd" transform="matrix(1 0 0 1 0 0)" d="M0 -0.249939L595.5 -0.249939L595.5 -0.249939L595.5 842.0001L595.5 842.0001L0 842.0001z" /></clipPath><clipPath id="19"><path id="" clip-rule="evenodd" transform="matrix(1 0 0 1 0 0)" d="M0 -0.249939L595.5 -0.249939L595.5 -0.249939L595.5 842.0001L595.5 842.0001L0 842.0001z" /></clipPath><clipPath id="20"><path id="" clip-rule="evenodd" transform="matrix(1 0 0 1 0 0)" d="M249.9519 399.1519L272.345 386.9536L272.345 386.9536L290.2837 419.8846L290.2837 419.8846L267.8906 432.0829L267.8906 432.0829L249.9519 399.1519z" /></clipPath><clipPath id="21"><path id="" clip-rule="evenodd" transform="matrix(1 0 0 1 0 0)" d="M249.9519 399.1519L272.345 386.9536L272.345 386.9536L290.2837 419.8846L290.2837 419.8846L267.8906 432.0829L267.8906 432.0829L249.9519 399.1519z" /></clipPath><clipPath id="22"><path id="" clip-rule="evenodd" transform="matrix(1 0 0 1 0 0)" d="M249.9519 399.1519L272.345 386.9536L272.345 386.9536L290.2837 419.8846L290.2837 419.8846L267.8906 432.0829L267.8906 432.0829L249.9519 399.1519z" /></clipPath><clipPath id="23"><path id="" clip-rule="evenodd" transform="matrix(1 0 0 1 0 0)" d="M0 -0.249939L595.5 -0.249939L595.5 -0.249939L595.5 842.0001L595.5 842.0001L0 842.0001z" /></clipPath><clipPath id="24"><path id="" clip-rule="evenodd" transform="matrix(1 0 0 1 0 0)" d="M0 -0.249939L595.5 -0.249939L595.5 -0.249939L595.5 842.0001L595.5 842.0001L0 842.0001z" /></clipPath><clipPath id="25"><path id="" clip-rule="evenodd" transform="matrix(1 0 0 1 0 0)" d="M249.9519 545.6387L272.345 533.4404L272.345 533.4404L290.2837 566.3715L290.2837 566.3715L267.8906 578.5698L267.8906 578.5698L249.9519 545.6387z" /></clipPath><clipPath id="26"><path id="" clip-rule="evenodd" transform="matrix(1 0 0 1 0 0)" d="M249.9519 545.6387L272.345 533.4404L272.345 533.4404L290.2837 566.3715L290.2837 566.3715L267.8906 578.5698L267.8906 578.5698L249.9519 545.6387z" /></clipPath><clipPath id="27"><path id="" clip-rule="evenodd" transform="matrix(1 0 0 1 0 0)" d="M249.9519 545.6387L272.345 533.4404L272.345 533.4404L290.2837 566.3715L290.2837 566.3715L267.8906 578.5698L267.8906 578.5698L249.9519 545.6387z" /></clipPath><clipPath id="28"><path id="" clip-rule="evenodd" transform="matrix(1 0 0 1 0 0)" d="M0 -0.249939L595.5 -0.249939L595.5 -0.249939L595.5 842.0001L595.5 842.0001L0 842.0001z" /></clipPath><clipPath id="29"><path id="" clip-rule="evenodd" transform="matrix(1 0 0 1 0 0)" d="M0 -0.249939L595.5 -0.249939L595.5 -0.249939L595.5 842.0001L595.5 842.0001L0 842.0001z" /></clipPath><clipPath id="30"><path id="" clip-rule="evenodd" transform="matrix(1 0 0 1 0 0)" d="M323.7247 360.2451L466.4152 360.2451L466.4152 360.2451L466.4152 409.675L466.4152 409.675L323.7247 409.675z" /></clipPath><clipPath id="31"><path id="" clip-rule="evenodd" transform="matrix(1 0 0 1 0 0)" d="M336.4747 360.2451L453.591 360.2451C 456.9725 360.2451 460.2155 361.5883 462.6066 363.9794C 464.9977 366.3705 466.341 369.6136 466.341 372.9951L466.341 372.9951L466.341 396.925C 466.341 400.3066 464.9977 403.5496 462.6066 405.9407C 460.2155 408.3318 456.9725 409.675 453.591 409.675L453.591 409.675L336.4747 409.675C 333.0932 409.675 329.8502 408.3318 327.4591 405.9407C 325.068 403.5496 323.7247 400.3066 323.7247 396.925L323.7247 396.925L323.7247 372.9951C 323.7247 369.6136 325.068 366.3705 327.4591 363.9794C 329.8502 361.5883 333.0932 360.2451 336.4747 360.2451z" /></clipPath><clipPath id="32"><path id="" clip-rule="evenodd" transform="matrix(1 0 0 1 0 0)" d="M0 -0.249939L595.5 -0.249939L595.5 -0.249939L595.5 842.0001L595.5 842.0001L0 842.0001z" /></clipPath><clipPath id="33"><path id="" clip-rule="evenodd" transform="matrix(1 0 0 1 0 0)" d="M0 -0.249939L595.5 -0.249939L595.5 -0.249939L595.5 842.0001L595.5 842.0001L0 842.0001z" /></clipPath><clipPath id="34"><path id="" clip-rule="evenodd" transform="matrix(1 0 0 1 0 0)" d="M0 -0.249939L595.5 -0.249939L595.5 -0.249939L595.5 842.0001L595.5 842.0001L0 842.0001z" /></clipPath><clipPath id="35"><path id="" clip-rule="evenodd" transform="matrix(1 0 0 1 0 0)" d="M446.2582 401.7527L468.6513 389.5544L468.6513 389.5544L486.59 422.4855L486.59 422.4855L464.1969 434.6838L464.1969 434.6838L446.2582 401.7527z" /></clipPath><clipPath id="36"><path id="" clip-rule="evenodd" transform="matrix(1 0 0 1 0 0)" d="M446.2582 401.7527L468.6513 389.5544L468.6513 389.5544L486.59 422.4855L486.59 422.4855L464.1969 434.6838L464.1969 434.6838L446.2582 401.7527z" /></clipPath><clipPath id="37"><path id="" clip-rule="evenodd" transform="matrix(1 0 0 1 0 0)" d="M446.2582 401.7527L468.6513 389.5544L468.6513 389.5544L486.59 422.4855L486.59 422.4855L464.1969 434.6838L464.1969 434.6838L446.2582 401.7527z" /></clipPath><clipPath id="38"><path id="" clip-rule="evenodd" transform="matrix(1 0 0 1 0 0)" d="M0 -0.249939L595.5 -0.249939L595.5 -0.249939L595.5 842.0001L595.5 842.0001L0 842.0001z" /></clipPath><clipPath id="39"><path id="" clip-rule="evenodd" transform="matrix(1 0 0 1 0 0)" d="M0 -0.249939L595.5 -0.249939L595.5 -0.249939L595.5 842.0001L595.5 842.0001L0 842.0001z" /></clipPath><clipPath id="40"><path id="" clip-rule="evenodd" transform="matrix(1 0 0 1 0 0)" d="M323.7247 500.04L466.4588 500.04L466.4588 500.04L466.4588 546.3517L466.4588 546.3517L323.7247 546.3517z" /></clipPath><clipPath id="41"><path id="" clip-rule="evenodd" transform="matrix(1 0 0 1 0 0)" d="M336.4747 500.04L453.591 500.04C 456.9725 500.04 460.2155 501.3833 462.6066 503.7744C 464.9977 506.1655 466.341 509.4085 466.341 512.79L466.341 512.79L466.341 533.6017C 466.341 536.9833 464.9977 540.2263 462.6066 542.6173C 460.2155 545.0084 456.9725 546.3517 453.591 546.3517L453.591 546.3517L336.4747 546.3517C 333.0932 546.3517 329.8502 545.0084 327.4591 542.6173C 325.068 540.2263 323.7247 536.9833 323.7247 533.6017L323.7247 533.6017L323.7247 512.79C 323.7247 509.4085 325.068 506.1655 327.4591 503.7744C 329.8502 501.3833 333.0932 500.04 336.4747 500.04z" /></clipPath><clipPath id="42"><path id="" clip-rule="evenodd" transform="matrix(1 0 0 1 0 0)" d="M0 -0.249939L595.5 -0.249939L595.5 -0.249939L595.5 842.0001L595.5 842.0001L0 842.0001z" /></clipPath><clipPath id="43"><path id="" clip-rule="evenodd" transform="matrix(1 0 0 1 0 0)" d="M0 -0.249939L595.5 -0.249939L595.5 -0.249939L595.5 842.0001L595.5 842.0001L0 842.0001z" /></clipPath><clipPath id="44"><path id="" clip-rule="evenodd" transform="matrix(1 0 0 1 0 0)" d="M0 -0.249939L595.5 -0.249939L595.5 -0.249939L595.5 842.0001L595.5 842.0001L0 842.0001z" /></clipPath><clipPath id="45"><path id="" clip-rule="evenodd" transform="matrix(1 0 0 1 0 0)" d="M446.2582 535.9619L468.6513 523.7635L468.6513 523.7635L486.59 556.6946L486.59 556.6946L464.1969 568.8929L464.1969 568.8929L446.2582 535.9619z" /></clipPath><clipPath id="46"><path id="" clip-rule="evenodd" transform="matrix(1 0 0 1 0 0)" d="M446.2582 535.9619L468.6513 523.7635L468.6513 523.7635L486.59 556.6946L486.59 556.6946L464.1969 568.8929L464.1969 568.8929L446.2582 535.9619z" /></clipPath><clipPath id="47"><path id="" clip-rule="evenodd" transform="matrix(1 0 0 1 0 0)" d="M446.2582 535.9619L468.6513 523.7635L468.6513 523.7635L486.59 556.6946L486.59 556.6946L464.1969 568.8929L464.1969 568.8929L446.2582 535.9619z" /></clipPath><clipPath id="48"><path id="" clip-rule="evenodd" transform="matrix(1 0 0 1 0 0)" d="M0 -0.249939L595.5 -0.249939L595.5 -0.249939L595.5 842.0001L595.5 842.0001L0 842.0001z" /></clipPath><clipPath id="49"><path id="" clip-rule="evenodd" transform="matrix(1 0 0 1 0 0)" d="M0 -0.249939L595.5 -0.249939L595.5 -0.249939L595.5 842.0001L595.5 842.0001L0 842.0001z" /></clipPath><clipPath id="50"><path id="" clip-rule="evenodd" transform="matrix(1 0 0 1 0 0)" d="M59.52756 659.3159L564.4745 659.3159L564.4745 659.3159L564.4745 703.7985L564.4745 703.7985L59.52756 703.7985z" /></clipPath><clipPath id="51"><path id="" clip-rule="evenodd" transform="matrix(1 0 0 1 0 0)" d="M72.27756 659.3159L551.564 659.3159C 554.9456 659.3159 558.1885 660.6592 560.5797 663.0504C 562.9706 665.4413 564.314 668.6844 564.314 672.0659L564.314 672.0659L564.314 691.0485C 564.314 694.4301 562.9706 697.673 560.5797 700.0641C 558.1885 702.4552 554.9456 703.7985 551.564 703.7985L551.564 703.7985L72.27756 703.7985C 68.89605 703.7985 65.65304 702.4552 63.26194 700.0641C 60.87086 697.673 59.52756 694.4301 59.52756 691.0485L59.52756 691.0485L59.52756 672.0659C 59.52756 668.6844 60.87086 665.4413 63.26194 663.0504C 65.65304 660.6592 68.89605 659.3159 72.27756 659.3159z" /></clipPath><clipPath id="52"><path id="" clip-rule="evenodd" transform="matrix(1 0 0 1 0 0)" d="M15.12432 7.397827L99.12432 7.397827L99.12432 7.397827L99.12432 91.39783L99.12432 91.39783L15.12432 91.39783z" /></clipPath><clipPath id="53"><path id="" clip-rule="evenodd" transform="matrix(1 0 0 1 0 0)" d="M446.258 711.199L557.2579 711.199L557.2579 711.199L557.2579 822.199L557.2579 822.199L446.258 822.199z" /></clipPath><clipPath id="54"><path id="" clip-rule="evenodd" transform="matrix(1 0 0 1 0 0)" d="M10.40078 523.8455L94.40078 523.8455L94.40078 523.8455L94.40078 607.8455L94.40078 607.8455L10.40078 607.8455z" /></clipPath><clipPath id="55"><path id="" clip-rule="evenodd" transform="matrix(1 0 0 1 0 0)" d="M0 -0.249939L595.5 -0.249939L595.5 -0.249939L595.5 842.0001L595.5 842.0001L0 842.0001z" /></clipPath></defs><g transform="matrix(1.333333 0 0 1.333333 0 0)"><g clip-path="url(#1)"><g clip-path="url(#2)"><path id="1" transform="matrix(1 0 0 -1 0 842)" d="M0 842.2499L595.4999 842.2499L595.4999 -6.103516E-05L0 -6.103516E-05z" stroke="none" fill="#FFFFFF" fill-rule="nonzero" /></g><g clip-path="url(#3)"><path id="2" transform="matrix(1 0 0 -1 0 842)" d="M0 842.2499L595.4999 842.2499L595.4999 -6.103516E-05L0 -6.103516E-05z" stroke="none" fill="#E9FCFF" fill-rule="nonzero" /></g><g clip-path="url(#4)"><g><g clip-path="url(#5)"><g clip-path="url(#6)"><g transform="matrix(0 0.5281065 -0.5283893 0 539.3597 19.05261)"><g transform="matrix(1 0 0 1 0 0)"><image x="0" y="0" xlink:href="img_01.png" width="1521" height="863" /></g></g></g></g></g></g><g clip-path="url(#7)"><g transform="matrix(0.05374753 0 0 0.0538818 489.3922 29.22412)"><g transform="matrix(1 0 0 1 0 0)"><image x="0" y="0" xlink:href="img_02.png" width="1521" height="863" /></g></g></g><g clip-path="url(#8)"><g clip-path="url(#9)"><g clip-path="url(#10)"><g clip-path="url(#11)"><path id="5" transform="matrix(1 0 0 -1 0 842)" d="M128.2303 481.7549L269.9495 481.7549L269.9495 432.5282L128.2303 432.5282z" stroke="none" fill="#7ED957" fill-rule="nonzero" /></g></g></g></g><g clip-path="url(#12)"></g><g clip-path="url(#13)"><g clip-path="url(#14)"><g clip-path="url(#15)"><g clip-path="url(#16)"><path id="11" transform="matrix(1 0 0 -1 0 842)" d="M128.2303 340.9973L269.9495 340.9973L269.9495 291.7705L128.2303 291.7705z" stroke="none" fill="#7ED957" fill-rule="nonzero" /></g></g></g></g><g clip-path="url(#17)"></g><g clip-path="url(#18)"><g clip-path="url(#19)"><g clip-path="url(#20)"><g clip-path="url(#21)"><g clip-path="url(#22)"><path id="17" transform="matrix(1 0 0 -1 0 842)" d="M267.1252 442.5409C 266.8823 442.8214 266.9141 443.2462 267.1965 443.4897L267.1965 443.4897L269.6557 445.6126C 269.9381 445.8561 270.3641 445.8264 270.607 445.5459C 270.8498 445.2654 270.8181 444.8406 270.5356 444.5972L270.5356 444.5972L268.0764 442.4742C 267.7947 442.2294 267.368 442.2604 267.1252 442.5409zM263.5769 444.2914C 263.2046 444.3134 262.9224 444.6304 262.9462 445.0017L262.9462 445.0017L263.1525 448.2319C 263.1764 448.6032 263.4957 448.886 263.868 448.864C 264.2403 448.842 264.5225 448.525 264.4987 448.1537L264.4987 448.1537L264.2937 444.9243C 264.2699 444.5529 263.9492 444.2694 263.5769 444.2914zM259.1935 435.4415C 259.4364 435.1611 259.4046 434.7363 259.1222 434.4928L259.1222 434.4928L256.663 432.3698C 256.3806 432.1264 255.9546 432.1561 255.7117 432.4365C 255.4689 432.717 255.5006 433.1418 255.7831 433.3853L255.7831 433.3853L258.2423 435.5082C 258.5247 435.7517 258.9507 435.722 259.1935 435.4415zM257.8003 439.332C 257.7764 438.9607 257.4571 438.6778 257.0848 438.6998L257.0848 438.6998L253.8445 438.8897C 253.4721 438.9117 253.1899 439.2287 253.2138 439.6C 253.2376 439.9713 253.5569 440.2542 253.9292 440.2321L253.9292 440.2321L257.1674 440.0429C 257.5411 440.0216 257.8227 439.7025 257.8003 439.332zM259.6861 442.9711C 259.4036 442.7277 258.9777 442.7574 258.7348 443.0378L258.7348 443.0378L256.6182 445.4804C 256.3754 445.7609 256.4071 446.1857 256.6896 446.4291C 256.9721 446.6726 257.398 446.6429 257.6409 446.3624L257.6409 446.3624L259.7588 443.9206C 260.0003 443.6394 259.9685 443.2146 259.6861 442.9711zM287.1032 425.817C 287.5188 424.2079 287.05 422.3577 285.936 421.115C 285.2953 420.4006 284.4661 419.8769 283.6231 419.4335C 282.7298 418.9626 281.8033 418.5493 280.8899 418.1185C 280.4264 417.8994 279.9621 417.6816 279.4977 417.4673C 279.0586 417.265 278.6265 417.0401 278.1821 416.8507C 277.8279 416.7 277.4634 416.6138 277.0797 416.6858C 276.6667 416.763 276.2624 416.9151 275.8592 417.0327C 273.8978 417.6049 271.9365 418.177 269.9751 418.7491C 268.23 419.2581 266.4849 419.7672 264.7398 420.2762C 264.5089 420.3436 264.2842 420.4056 264.075 420.5305C 263.797 420.697 263.5728 420.9367 263.4206 421.2227C 263.0968 421.8332 263.1537 422.6529 263.6415 423.168C 263.9335 423.4781 264.3242 423.6786 264.7475 423.7283C 264.9664 423.7545 265.1973 423.7327 265.4172 423.7278C 265.6406 423.723 265.864 423.7183 266.0881 423.7121C 266.9803 423.6923 267.8712 423.6717 268.7634 423.6518C 268.8348 423.6503 268.9063 423.6489 268.9777 423.6474C 269.2712 423.6404 269.4707 423.9616 269.3305 424.219C 269.1512 424.5481 268.9719 424.8773 268.7926 425.2064C 268.3425 426.0327 267.8917 426.8603 267.4416 427.6866C 266.8513 428.7702 266.2603 429.8552 265.67 430.9388C 265.0701 432.0401 264.4702 433.1413 263.871 434.2412C 263.3951 435.1149 262.9192 435.9886 262.4433 436.8622C 262.2167 437.2781 261.9889 437.6932 261.7637 438.1098C 261.4956 438.6084 261.4582 439.1992 261.6975 439.7195C 262.0749 440.5346 263.0264 440.944 263.8784 440.6704C 264.3836 440.5083 264.7154 440.1392 264.9604 439.6895C 265.1315 439.3752 265.3027 439.061 265.4739 438.7467C 266.0531 437.6834 266.6324 436.6201 267.2108 435.5581C 267.6484 434.7549 268.0859 433.9517 268.5235 433.1484C 268.5464 433.1064 268.57 433.0631 268.5929 433.0211C 268.8304 432.5849 269.5061 432.9529 269.2739 433.3921C 268.7409 434.3998 269.2863 435.691 270.4162 435.9675C 271.0366 436.1193 271.698 435.9263 272.134 435.4665C 272.3738 435.2142 272.5229 434.8756 272.6875 434.5736C 272.855 434.2661 273.0218 433.96 273.1893 433.6525C 273.4268 433.2163 274.1024 433.5844 273.8703 434.0235C 273.3365 435.0325 273.8849 436.3184 275.0147 436.5983C 275.6329 436.7507 276.2973 436.5558 276.7325 436.0973C 276.9673 435.851 277.1105 435.5233 277.2714 435.228C 277.4403 434.9178 277.6093 434.6076 277.7783 434.2974C 278.0159 433.8613 278.6915 434.2293 278.4593 434.6684C 278.049 435.4444 278.2565 436.4479 278.9911 436.964C 279.8638 437.5764 281.0712 437.2892 281.5881 436.3728C 282.5547 434.5983 283.5206 432.8252 284.4872 431.0508C 284.9823 430.1419 285.4781 429.2317 285.9732 428.3228C 286.4136 427.5175 286.8735 426.7089 287.1032 425.817zM286.086 429.7402C 285.0663 431.6122 284.0473 433.4828 283.0276 435.3548C 282.7759 435.8167 282.5236 436.2799 282.272 436.7418C 281.7139 437.7306 280.5524 438.2677 279.4307 437.9922C 278.5464 437.7739 277.8504 437.0962 277.588 436.2454C 277.4688 436.4316 277.332 436.6083 277.1634 436.7588C 276.5378 437.3139 275.6642 437.5493 274.843 437.3479C 274.1251 437.1711 273.4829 436.6737 273.1589 436.0072C 273.0946 435.8755 273.0429 435.7403 273.0017 435.6019C 272.8796 435.7936 272.7405 435.9743 272.5677 436.1295C 271.9485 436.6793 271.0929 436.914 270.2769 436.726C 269.5462 436.5563 268.8917 436.0522 268.5631 435.3779C 268.5014 435.2512 268.451 435.1201 268.4103 434.9872C 268.366 435.0685 268.3225 435.1484 268.2782 435.2297C 267.6724 436.3418 267.0666 437.4539 266.4616 438.5646C 266.2373 438.9764 266.0137 439.3868 265.7894 439.7986C 265.6425 440.0681 265.5055 440.336 265.3165 440.5791C 264.6243 441.4737 263.3687 441.7488 262.3352 441.3245C 261.437 440.9565 260.8258 440.065 260.7715 439.1044C 260.7295 438.3579 261.0712 437.7694 261.4092 437.1491C 261.8202 436.3946 262.2319 435.6388 262.6429 434.8843C 263.231 433.8047 263.819 432.7251 264.4064 431.6469C 265.0284 430.505 265.6504 429.3632 266.2732 428.2199C 266.7867 427.2772 267.2996 426.3358 267.8131 425.393C 267.9865 425.0747 268.1559 424.7507 268.3293 424.4324C 267.7604 424.4456 267.1901 424.4582 266.6219 424.4701C 266.3146 424.4766 266.0066 424.4844 265.6978 424.4902C 265.1935 424.5017 264.6776 424.5474 264.1906 424.3875C 263.238 424.0741 262.5716 423.2773 262.4637 422.2822C 262.3772 421.4974 262.7026 420.6665 263.2979 420.1476C 263.7583 419.7468 264.3004 419.5977 264.8716 419.4311C 265.8586 419.1432 266.8477 418.8547 267.8347 418.5668C 269.9011 417.9641 271.9654 417.3619 274.0317 416.7592C 274.5462 416.6091 275.0586 416.4596 275.5731 416.3095C 276.0015 416.1846 276.4288 416.0292 276.8671 415.9412C 277.3207 415.851 277.7573 415.8763 278.1953 416.0289C 278.6792 416.1976 279.1307 416.4453 279.5958 416.6583C 280.5738 417.1067 281.5465 417.5681 282.5185 418.0308C 283.4543 418.4756 284.3981 418.9089 285.2492 419.506C 286.0671 420.0798 286.7752 420.7676 287.2593 421.6461C 287.6943 422.4363 287.9503 423.3153 288.0164 424.212C 288.0888 425.1946 287.8846 426.1303 287.5035 427.031C 287.1003 427.9689 286.5708 428.8503 286.086 429.7402z" stroke="none" fill="#000000" fill-rule="nonzero" /></g></g></g></g></g><g clip-path="url(#23)"><g clip-path="url(#24)"><g clip-path="url(#25)"><g clip-path="url(#26)"><g clip-path="url(#27)"><path id="18" transform="matrix(1 0 0 -1 0 842)" d="M267.1252 296.0541C 266.8823 296.3346 266.9141 296.7594 267.1965 297.0029L267.1965 297.0029L269.6557 299.1258C 269.9381 299.3693 270.3641 299.3396 270.607 299.0591C 270.8498 298.7787 270.8181 298.3538 270.5356 298.1104L270.5356 298.1104L268.0764 295.9874C 267.7947 295.7426 267.368 295.7737 267.1252 296.0541zM263.5769 297.8046C 263.2046 297.8266 262.9224 298.1436 262.9462 298.515L262.9462 298.515L263.1525 301.7451C 263.1764 302.1164 263.4957 302.3992 263.868 302.3772C 264.2403 302.3552 264.5225 302.0382 264.4987 301.6669L264.4987 301.6669L264.2937 298.4375C 264.2699 298.0662 263.9492 297.7826 263.5769 297.8046zM259.1935 288.9547C 259.4364 288.6743 259.4046 288.2495 259.1222 288.006L259.1222 288.006L256.663 285.883C 256.3806 285.6396 255.9546 285.6693 255.7117 285.9497C 255.4689 286.2302 255.5006 286.655 255.7831 286.8985L255.7831 286.8985L258.2423 289.0215C 258.5247 289.2649 258.9507 289.2352 259.1935 288.9547zM257.8003 292.8452C 257.7764 292.4739 257.4571 292.191 257.0848 292.213L257.0848 292.213L253.8445 292.4029C 253.4721 292.4249 253.1899 292.7419 253.2138 293.1132C 253.2376 293.4845 253.5569 293.7674 253.9292 293.7453L253.9292 293.7453L257.1674 293.5561C 257.5411 293.5349 257.8227 293.2157 257.8003 292.8452zM259.6861 296.4843C 259.4036 296.2409 258.9777 296.2706 258.7348 296.5511L258.7348 296.5511L256.6182 298.9936C 256.3754 299.2741 256.4071 299.6989 256.6896 299.9424C 256.9721 300.1858 257.398 300.1561 257.6409 299.8756L257.6409 299.8756L259.7588 297.4338C 260.0003 297.1526 259.9685 296.7278 259.6861 296.4843zM287.1032 279.3303C 287.5188 277.7211 287.05 275.8709 285.936 274.6282C 285.2953 273.9138 284.4661 273.3901 283.6231 272.9467C 282.7298 272.4759 281.8033 272.0625 280.8899 271.6317C 280.4264 271.4126 279.9621 271.1948 279.4977 270.9805C 279.0586 270.7782 278.6265 270.5533 278.1821 270.364C 277.8279 270.2132 277.4634 270.127 277.0797 270.199C 276.6667 270.2762 276.2624 270.4283 275.8592 270.5459C 273.8978 271.1181 271.9365 271.6902 269.9751 272.2623C 268.23 272.7713 266.4849 273.2804 264.7398 273.7894C 264.5089 273.8568 264.2842 273.9189 264.075 274.0437C 263.797 274.2103 263.5728 274.45 263.4206 274.7359C 263.0968 275.3464 263.1537 276.1661 263.6415 276.6812C 263.9335 276.9914 264.3242 277.1919 264.7475 277.2415C 264.9664 277.2677 265.1973 277.2459 265.4172 277.241C 265.6406 277.2362 265.864 277.2314 266.0881 277.2253C 266.9803 277.2055 267.8712 277.1849 268.7634 277.165C 268.8348 277.1635 268.9063 277.1621 268.9777 277.1606C 269.2712 277.1536 269.4707 277.4748 269.3305 277.7322C 269.1512 278.0613 268.9719 278.3905 268.7926 278.7196C 268.3425 279.5459 267.8917 280.3735 267.4416 281.1998C 266.8513 282.2834 266.2603 283.3684 265.67 284.452C 265.0701 285.5533 264.4702 286.6545 263.871 287.7544C 263.3951 288.6281 262.9192 289.5018 262.4433 290.3755C 262.2167 290.7913 261.9889 291.2064 261.7637 291.623C 261.4956 292.1216 261.4582 292.7124 261.6975 293.2328C 262.0749 294.0478 263.0264 294.4572 263.8784 294.1837C 264.3836 294.0215 264.7154 293.6524 264.9604 293.2027C 265.1315 292.8885 265.3027 292.5742 265.4739 292.2599C 266.0531 291.1966 266.6324 290.1333 267.2108 289.0714C 267.6484 288.2681 268.0859 287.4649 268.5235 286.6616C 268.5464 286.6196 268.57 286.5763 268.5929 286.5343C 268.8304 286.0981 269.5061 286.4662 269.2739 286.9053C 268.7409 287.913 269.2863 289.2043 270.4162 289.4807C 271.0366 289.6325 271.698 289.4395 272.134 288.9797C 272.3738 288.7274 272.5229 288.3889 272.6875 288.0868C 272.855 287.7793 273.0218 287.4732 273.1893 287.1657C 273.4268 286.7296 274.1024 287.0976 273.8703 287.5367C 273.3365 288.5457 273.8849 289.8316 275.0147 290.1115C 275.6329 290.2639 276.2973 290.069 276.7325 289.6105C 276.9673 289.3643 277.1105 289.0365 277.2714 288.7412C 277.4403 288.431 277.6093 288.1208 277.7783 287.8107C 278.0159 287.3745 278.6915 287.7425 278.4593 288.1816C 278.049 288.9576 278.2565 289.9612 278.9911 290.4772C 279.8638 291.0896 281.0712 290.8024 281.5881 289.886C 282.5547 288.1115 283.5206 286.3384 284.4872 284.564C 284.9823 283.6551 285.4781 282.7449 285.9732 281.836C 286.4136 281.0308 286.8735 280.2221 287.1032 279.3303zM286.086 283.2534C 285.0663 285.1254 284.0473 286.996 283.0276 288.868C 282.7759 289.3299 282.5236 289.7931 282.272 290.255C 281.7139 291.2438 280.5524 291.7809 279.4307 291.5054C 278.5464 291.2871 277.8504 290.6094 277.588 289.7586C 277.4688 289.9449 277.332 290.1215 277.1634 290.272C 276.5378 290.8271 275.6642 291.0626 274.843 290.8611C 274.1251 290.6844 273.4829 290.187 273.1589 289.5204C 273.0946 289.3888 273.0429 289.2535 273.0017 289.1151C 272.8796 289.3068 272.7405 289.4875 272.5677 289.6427C 271.9485 290.1925 271.0929 290.4272 270.2769 290.2392C 269.5462 290.0695 268.8917 289.5654 268.5631 288.8911C 268.5014 288.7644 268.451 288.6333 268.4103 288.5005C 268.366 288.5817 268.3225 288.6617 268.2782 288.7429C 267.6724 289.855 267.0666 290.9671 266.4616 292.0778C 266.2373 292.4896 266.0137 292.9 265.7894 293.3118C 265.6425 293.5814 265.5055 293.8492 265.3165 294.0923C 264.6243 294.9869 263.3687 295.262 262.3352 294.8378C 261.437 294.4697 260.8258 293.5782 260.7715 292.6176C 260.7295 291.8711 261.0712 291.2827 261.4092 290.6623C 261.8202 289.9078 262.2319 289.152 262.6429 288.3975C 263.231 287.3179 263.819 286.2383 264.4064 285.1601C 265.0284 284.0182 265.6504 282.8764 266.2732 281.7332C 266.7867 280.7904 267.2996 279.849 267.8131 278.9062C 267.9865 278.5879 268.1559 278.2639 268.3293 277.9456C 267.7604 277.9589 267.1901 277.9714 266.6219 277.9833C 266.3146 277.9898 266.0066 277.9977 265.6978 278.0034C 265.1935 278.0149 264.6776 278.0606 264.1906 277.9007C 263.238 277.5873 262.5716 276.7905 262.4637 275.7954C 262.3772 275.0106 262.7026 274.1797 263.2979 273.6609C 263.7583 273.26 264.3004 273.1109 264.8716 272.9443C 265.8586 272.6564 266.8477 272.3679 267.8347 272.08C 269.9011 271.4773 271.9654 270.8751 274.0317 270.2724C 274.5462 270.1223 275.0586 269.9728 275.5731 269.8228C 276.0015 269.6978 276.4288 269.5424 276.8671 269.4544C 277.3207 269.3643 277.7573 269.3896 278.1953 269.5421C 278.6792 269.7108 279.1307 269.9585 279.5958 270.1715C 280.5738 270.6199 281.5465 271.0813 282.5185 271.544C 283.4543 271.9888 284.3981 272.4221 285.2492 273.0193C 286.0671 273.593 286.7752 274.2808 287.2593 275.1593C 287.6943 275.9496 287.9503 276.8285 288.0164 277.7252C 288.0888 278.7078 287.8846 279.6435 287.5035 280.5442C 287.1003 281.4821 286.5708 282.3635 286.086 283.2534z" stroke="none" fill="#000000" fill-rule="nonzero" /></g></g></g></g></g><g clip-path="url(#28)"><g clip-path="url(#29)"><g clip-path="url(#30)"><g clip-path="url(#31)"><path id="19" transform="matrix(1 0 0 -1 0 842)" d="M323.7247 481.7549L466.4152 481.7549L466.4152 432.3249L323.7247 432.3249z" stroke="none" fill="#7ED957" fill-rule="nonzero" /></g></g></g></g><g clip-path="url(#32)"></g><g clip-path="url(#33)"><g clip-path="url(#34)"><g clip-path="url(#35)"><g clip-path="url(#36)"><g clip-path="url(#37)"><path id="25" transform="matrix(1 0 0 -1 0 842)" d="M463.4319 439.9392C 463.1891 440.2197 463.2209 440.6445 463.5033 440.8879L463.5033 440.8879L465.9625 443.0108C 466.245 443.2543 466.6709 443.2246 466.9138 442.9442C 467.1566 442.6637 467.1248 442.2389 466.8424 441.9955L466.8424 441.9955L464.3832 439.8726C 464.1014 439.6278 463.6748 439.6588 463.4319 439.9392zM459.8838 441.6895C 459.5115 441.7115 459.2293 442.0284 459.2532 442.3997L459.2532 442.3997L459.4596 445.6296C 459.4835 446.0009 459.8028 446.2838 460.175 446.2617C 460.5474 446.2397 460.8296 445.9228 460.8057 445.5515L460.8057 445.5515L460.6006 442.3223C 460.5768 441.951 460.2561 441.6674 459.8838 441.6895zM455.5002 432.8401C 455.7431 432.5596 455.7113 432.1348 455.4288 431.8914L455.4288 431.8914L452.9696 429.7685C 452.6872 429.525 452.2612 429.5547 452.0184 429.8351C 451.7755 430.1156 451.8073 430.5404 452.0898 430.7838L452.0898 430.7838L454.549 432.9067C 454.8314 433.1502 455.2574 433.1205 455.5002 432.8401zM454.1071 436.7302C 454.0833 436.3589 453.7639 436.076 453.3916 436.0981L453.3916 436.0981L450.1514 436.2878C 449.7791 436.3098 449.4969 436.6267 449.5207 436.998C 449.5446 437.3693 449.8639 437.6521 450.2362 437.6301L450.2362 437.6301L453.4743 437.441C 453.848 437.4198 454.1296 437.1007 454.1071 436.7302zM455.993 440.3691C 455.7105 440.1257 455.2846 440.1554 455.0417 440.4358L455.0417 440.4358L452.9254 442.8781C 452.6825 443.1585 452.7143 443.5833 452.9967 443.8268C 453.2792 444.0702 453.7052 444.0406 453.948 443.7601L453.948 443.7601L456.0658 441.3185C 456.3073 441.0374 456.2755 440.6126 455.993 440.3691zM483.4089 423.2173C 483.8244 421.6083 483.3556 419.7582 482.2415 418.5155C 481.6009 417.8012 480.7716 417.2775 479.9286 416.8341C 479.0353 416.3633 478.1088 415.95 477.1954 415.5191C 476.7319 415.3 476.2676 415.0822 475.8033 414.8679C 475.3642 414.6656 474.932 414.4407 474.4876 414.2513C 474.1335 414.1006 473.7689 414.0144 473.3853 414.0864C 472.9723 414.1635 472.568 414.3156 472.1648 414.4332C 470.2035 415.0052 468.2422 415.5772 466.2809 416.1492C 464.5358 416.6582 462.7908 417.1671 461.0458 417.676C 460.8148 417.7434 460.5902 417.8055 460.3809 417.9303C 460.103 418.0968 459.8788 418.3365 459.7266 418.6224C 459.4029 419.2329 459.4598 420.0525 459.9476 420.5676C 460.2396 420.8777 460.6302 421.0782 461.0536 421.1279C 461.2725 421.1541 461.5034 421.1323 461.7233 421.1274C 461.9467 421.1227 462.1701 421.1179 462.3942 421.1118C 463.2864 421.0919 464.1772 421.0714 465.0694 421.0515C 465.1408 421.0501 465.2123 421.0486 465.2837 421.0471C 465.5772 421.0402 465.7767 421.3613 465.6365 421.6187C 465.4572 421.9478 465.278 422.2769 465.0987 422.606C 464.6486 423.4323 464.1978 424.2598 463.7477 425.086C 463.1575 426.1695 462.5665 427.2544 461.9763 428.3379C 461.3765 429.4391 460.7766 430.5402 460.1776 431.64C 459.7017 432.5136 459.2258 433.3872 458.7499 434.2608C 458.5234 434.6766 458.2956 435.0916 458.0704 435.5082C 457.8024 436.0067 457.7649 436.5976 458.0043 437.1179C 458.3817 437.9329 459.3332 438.3423 460.1852 438.0688C 460.6904 437.9066 461.0221 437.5376 461.2671 437.088C 461.4382 436.7737 461.6094 436.4595 461.7806 436.1453C 462.3597 435.0821 462.9389 434.0188 463.5173 432.957C 463.9549 432.1538 464.3924 431.3506 464.8299 430.5475C 464.8528 430.5055 464.8764 430.4622 464.8992 430.4202C 465.1368 429.984 465.8124 430.3521 465.5803 430.7912C 465.0473 431.7987 465.5927 433.0899 466.7227 433.3665C 467.343 433.5182 468.0045 433.3253 468.4404 432.8655C 468.6802 432.6133 468.8293 432.2747 468.9938 431.9727C 469.1613 431.6653 469.3281 431.3592 469.4955 431.0517C 469.7331 430.6156 470.4087 430.9836 470.1766 431.4227C 469.6429 432.4316 470.1913 433.7174 471.3211 433.9974C 471.9393 434.1497 472.6036 433.9549 473.0388 433.4964C 473.2736 433.2502 473.4168 432.9225 473.5776 432.6273C 473.7466 432.3171 473.9155 432.0069 474.0845 431.6968C 474.3221 431.2607 474.9977 431.6287 474.7655 432.0678C 474.3553 432.8436 474.5628 433.8471 475.2974 434.3632C 476.1701 434.9756 477.3775 434.6884 477.8943 433.7721C 478.8608 431.9978 479.8266 430.2249 480.7931 428.4506C 481.2882 427.5418 481.784 426.6317 482.2791 425.7228C 482.7194 424.9177 483.1793 424.1091 483.4089 423.2173zM482.3919 427.1402C 481.3723 429.012 480.3533 430.8824 479.3337 432.7542C 479.0821 433.2161 478.8298 433.6793 478.5782 434.1411C 478.0202 435.1298 476.8587 435.6668 475.737 435.3913C 474.8527 435.173 474.1568 434.4953 473.8943 433.6445C 473.7751 433.8308 473.6383 434.0074 473.4698 434.158C 472.8442 434.7129 471.9706 434.9484 471.1494 434.7469C 470.4315 434.5701 469.7893 434.0728 469.4653 433.4062C 469.401 433.2746 469.3492 433.1393 469.308 433.0009C 469.186 433.1926 469.0469 433.3733 468.8741 433.5285C 468.2549 434.0782 467.3994 434.3129 466.5833 434.1248C 465.8527 433.9551 465.1982 433.4511 464.8696 432.7768C 464.8079 432.6501 464.7574 432.519 464.7167 432.3862C 464.6725 432.4674 464.6289 432.5474 464.5847 432.6286C 463.9789 433.7406 463.3732 434.8526 462.7682 435.9632C 462.5439 436.3749 462.3204 436.7853 462.0961 437.1971C 461.9492 437.4666 461.8122 437.7344 461.6233 437.9775C 460.9311 438.872 459.6756 439.147 458.642 438.7228C 457.7439 438.3547 457.1326 437.4632 457.0782 436.5027C 457.0362 435.7563 457.378 435.1679 457.7159 434.5475C 458.1268 433.7932 458.5385 433.0374 458.9495 432.283C 459.5375 431.2035 460.1255 430.124 460.7128 429.0459C 461.3347 427.9041 461.9567 426.7624 462.5794 425.6193C 463.0929 424.6766 463.6057 423.7353 464.1192 422.7926C 464.2926 422.4743 464.462 422.1503 464.6354 421.8321C 464.0665 421.8453 463.4962 421.8578 462.928 421.8697C 462.6207 421.8762 462.3127 421.884 462.004 421.8897C 461.4996 421.9013 460.9837 421.9469 460.4967 421.787C 459.5441 421.4736 458.8777 420.6768 458.7697 419.6818C 458.6832 418.8971 459.0087 418.0662 459.6039 417.5474C 460.0642 417.1466 460.6064 416.9976 461.1776 416.831C 462.1645 416.5432 463.1536 416.2547 464.1405 415.9669C 466.2068 415.3642 468.2711 414.7622 470.3374 414.1596C 470.8518 414.0096 471.3642 413.8601 471.8787 413.7101C 472.3071 413.5851 472.7344 413.4297 473.1726 413.3418C 473.6262 413.2517 474.0628 413.277 474.5008 413.4295C 474.9847 413.5983 475.4362 413.846 475.9013 414.0589C 476.8793 414.5074 477.852 414.9688 478.824 415.4315C 479.7598 415.8763 480.7036 416.3096 481.5547 416.9067C 482.3726 417.4805 483.0807 418.1683 483.5648 419.0467C 483.9998 419.8369 484.2559 420.7158 484.3221 421.6124C 484.3944 422.595 484.1903 423.5306 483.8092 424.4312C 483.4061 425.369 482.8766 426.2503 482.3919 427.1402z" stroke="none" fill="#000000" fill-rule="nonzero" /></g></g></g></g></g><g clip-path="url(#38)"><g clip-path="url(#39)"><g clip-path="url(#40)"><g clip-path="url(#41)"><path id="26" transform="matrix(1 0 0 -1 0 842)" d="M323.7247 341.96L466.2779 341.96L466.2779 295.6483L323.7247 295.6483z" stroke="none" fill="#7ED957" fill-rule="nonzero" /></g></g></g></g><g clip-path="url(#42)"></g><g clip-path="url(#43)"><g clip-path="url(#44)"><g clip-path="url(#45)"><g clip-path="url(#46)"><g clip-path="url(#47)"><path id="32" transform="matrix(1 0 0 -1 0 842)" d="M463.4319 305.7302C 463.1891 306.0106 463.2209 306.4354 463.5033 306.6788L463.5033 306.6788L465.9625 308.8018C 466.245 309.0452 466.6709 309.0155 466.9138 308.7351C 467.1566 308.4547 467.1248 308.0298 466.8424 307.7864L466.8424 307.7864L464.3832 305.6635C 464.1014 305.4187 463.6748 305.4497 463.4319 305.7302zM459.8838 307.4804C 459.5115 307.5024 459.2293 307.8194 459.2532 308.1906L459.2532 308.1906L459.4596 311.4206C 459.4835 311.7918 459.8028 312.0747 460.175 312.0527C 460.5474 312.0307 460.8296 311.7137 460.8057 311.3424L460.8057 311.3424L460.6006 308.1132C 460.5768 307.7419 460.2561 307.4584 459.8838 307.4804zM455.5002 298.631C 455.7431 298.3506 455.7113 297.9258 455.4288 297.6823L455.4288 297.6823L452.9696 295.5594C 452.6872 295.3159 452.2612 295.3456 452.0184 295.6261C 451.7755 295.9065 451.8073 296.3313 452.0898 296.5747L452.0898 296.5747L454.549 298.6977C 454.8314 298.9411 455.2574 298.9114 455.5002 298.631zM454.1071 302.5211C 454.0833 302.1498 453.7639 301.867 453.3916 301.889L453.3916 301.889L450.1514 302.0787C 449.7791 302.1007 449.4969 302.4177 449.5207 302.7889C 449.5446 303.1602 449.8639 303.443 450.2362 303.421L450.2362 303.421L453.4743 303.232C 453.848 303.2107 454.1296 302.8916 454.1071 302.5211zM455.993 306.1601C 455.7105 305.9166 455.2846 305.9463 455.0417 306.2267L455.0417 306.2267L452.9254 308.669C 452.6825 308.9495 452.7143 309.3743 452.9967 309.6177C 453.2792 309.8611 453.7052 309.8315 453.948 309.551L453.948 309.551L456.0658 307.1095C 456.3073 306.8283 456.2755 306.4035 455.993 306.1601zM483.4089 289.0083C 483.8244 287.3993 483.3556 285.5491 482.2415 284.3065C 481.6009 283.5922 480.7716 283.0685 479.9286 282.6251C 479.0353 282.1542 478.1088 281.7408 477.1954 281.31C 476.7319 281.0909 476.2676 280.8731 475.8033 280.6588C 475.3642 280.4565 474.932 280.2317 474.4876 280.0423C 474.1335 279.8915 473.7689 279.8053 473.3853 279.8773C 472.9723 279.9545 472.568 280.1066 472.1648 280.2242C 470.2035 280.7961 468.2422 281.3682 466.2809 281.9402C 464.5358 282.4491 462.7908 282.958 461.0458 283.4669C 460.8148 283.5343 460.5902 283.5964 460.3809 283.7212C 460.103 283.8877 459.8788 284.1274 459.7266 284.4133C 459.4029 285.0238 459.4598 285.8434 459.9476 286.3585C 460.2396 286.6686 460.6302 286.8691 461.0536 286.9189C 461.2725 286.945 461.5034 286.9232 461.7233 286.9183C 461.9467 286.9136 462.1701 286.9088 462.3942 286.9027C 463.2864 286.8828 464.1772 286.8623 465.0694 286.8425C 465.1408 286.841 465.2123 286.8395 465.2837 286.8381C 465.5772 286.8311 465.7767 287.1523 465.6365 287.4096C 465.4572 287.7387 465.278 288.0678 465.0987 288.397C 464.6486 289.2232 464.1978 290.0507 463.7477 290.8769C 463.1575 291.9604 462.5665 293.0453 461.9763 294.1288C 461.3765 295.23 460.7766 296.3311 460.1776 297.4309C 459.7017 298.3045 459.2258 299.1781 458.7499 300.0517C 458.5234 300.4675 458.2956 300.8826 458.0704 301.2991C 457.8024 301.7977 457.7649 302.3885 458.0043 302.9088C 458.3817 303.7238 459.3332 304.1332 460.1852 303.8597C 460.6904 303.6976 461.0221 303.3285 461.2671 302.8789C 461.4382 302.5646 461.6094 302.2504 461.7806 301.9362C 462.3597 300.873 462.9389 299.8098 463.5173 298.7479C 463.9549 297.9447 464.3924 297.1416 464.8299 296.3384C 464.8528 296.2964 464.8764 296.2531 464.8992 296.2111C 465.1368 295.775 465.8124 296.143 465.5803 296.5821C 465.0473 297.5897 465.5927 298.8809 466.7227 299.1574C 467.343 299.3091 468.0045 299.1162 468.4404 298.6564C 468.6802 298.4042 468.8293 298.0656 468.9938 297.7636C 469.1613 297.4562 469.3281 297.1501 469.4955 296.8426C 469.7331 296.4065 470.4087 296.7745 470.1766 297.2136C 469.6429 298.2226 470.1913 299.5083 471.3211 299.7883C 471.9393 299.9407 472.6036 299.7458 473.0388 299.2874C 473.2736 299.0412 473.4168 298.7134 473.5776 298.4182C 473.7466 298.108 473.9155 297.7979 474.0845 297.4877C 474.3221 297.0516 474.9977 297.4196 474.7655 297.8587C 474.3553 298.6346 474.5628 299.6381 475.2974 300.1541C 476.1701 300.7665 477.3775 300.4793 477.8943 299.563C 478.8608 297.7888 479.8266 296.0158 480.7931 294.2415C 481.2882 293.3327 481.784 292.4226 482.2791 291.5138C 482.7194 290.7086 483.1793 289.9001 483.4089 289.0083zM482.3919 292.9311C 481.3723 294.8029 480.3533 296.6733 479.3337 298.5452C 479.0821 299.007 478.8298 299.4702 478.5782 299.9321C 478.0202 300.9208 476.8587 301.4577 475.737 301.1822C 474.8527 300.9639 474.1568 300.2863 473.8943 299.4355C 473.7751 299.6217 473.6383 299.7983 473.4698 299.9489C 472.8442 300.5038 471.9706 300.7393 471.1494 300.5379C 470.4315 300.3611 469.7893 299.8637 469.4653 299.1971C 469.401 299.0655 469.3492 298.9302 469.308 298.7919C 469.186 298.9836 469.0469 299.1642 468.8741 299.3195C 468.2549 299.8691 467.3994 300.1039 466.5833 299.9157C 465.8527 299.7461 465.1982 299.242 464.8696 298.5677C 464.8079 298.441 464.7574 298.3099 464.7167 298.1771C 464.6725 298.2584 464.6289 298.3383 464.5847 298.4195C 463.9789 299.5315 463.3732 300.6435 462.7682 301.7541C 462.5439 302.1659 462.3204 302.5762 462.0961 302.988C 461.9492 303.2575 461.8122 303.5253 461.6233 303.7684C 460.9311 304.6629 459.6756 304.938 458.642 304.5137C 457.7439 304.1456 457.1326 303.2542 457.0782 302.2937C 457.0362 301.5472 457.378 300.9588 457.7159 300.3385C 458.1268 299.5841 458.5385 298.8283 458.9495 298.0739C 459.5375 296.9944 460.1255 295.9149 460.7128 294.8369C 461.3347 293.6951 461.9567 292.5533 462.5794 291.4102C 463.0929 290.4675 463.6057 289.5262 464.1192 288.5835C 464.2926 288.2652 464.462 287.9413 464.6354 287.623C 464.0665 287.6362 463.4962 287.6487 462.928 287.6606C 462.6207 287.6671 462.3127 287.6749 462.004 287.6807C 461.4996 287.6922 460.9837 287.7379 460.4967 287.5779C 459.5441 287.2645 458.8777 286.4677 458.7697 285.4727C 458.6832 284.688 459.0087 283.8571 459.6039 283.3383C 460.0642 282.9375 460.6064 282.7885 461.1776 282.6219C 462.1645 282.3341 463.1536 282.0456 464.1405 281.7578C 466.2068 281.1552 468.2711 280.5531 470.3374 279.9505C 470.8518 279.8005 471.3642 279.651 471.8787 279.501C 472.3071 279.3761 472.7344 279.2207 473.1726 279.1328C 473.6262 279.0426 474.0628 279.0679 474.5008 279.2205C 474.9847 279.3892 475.4362 279.6369 475.9013 279.8499C 476.8793 280.2983 477.852 280.7597 478.824 281.2224C 479.7598 281.6672 480.7036 282.1006 481.5547 282.6977C 482.3726 283.2714 483.0807 283.9592 483.5648 284.8376C 483.9998 285.6278 484.2559 286.5067 484.3221 287.4034C 484.3944 288.3859 484.1903 289.3215 483.8092 290.2222C 483.4061 291.16 482.8766 292.0413 482.3919 292.9311z" stroke="none" fill="#000000" fill-rule="nonzero" /></g></g></g></g></g><g clip-path="url(#48)"><g clip-path="url(#49)"><g clip-path="url(#50)"><g clip-path="url(#51)"><path id="33" transform="matrix(1 0 0 -1 0 842)" d="M59.52755 182.6841L564.3007 182.6841L564.3007 138.2015L59.52755 138.2015z" stroke="none" fill="#7ED957" fill-rule="nonzero" /></g></g></g></g><g clip-path="url(#52)"><g transform="matrix(0.5454545 0 0 0.5454545 15.12432 7.397827)"><g transform="matrix(1 0 0 1 0 0)"><image x="0" y="0" xlink:href="img_03.png" width="154" height="154" /></g></g></g><g clip-path="url(#53)"><g transform="matrix(0.6166666 0 0 0.6166666 446.2579 711.199)"><g transform="matrix(1 0 0 1 0 0)"><image x="0" y="0" xlink:href="img_04.png" width="180" height="180" /></g></g></g><g clip-path="url(#54)"><g transform="matrix(0.5454545 0 0 0.5454545 10.40078 523.8455)"><g transform="matrix(1 0 0 1 0 0)"><image x="0" y="0" xlink:href="img_05.png" width="154" height="154" /></g></g></g><g clip-path="url(#55)"></g></g></g></svg>