<svg xmlns="http://www.w3.org/2000/svg" xmlns:xlink="http://www.w3.org/1999/xlink" id="body_1" preserveAspectRatio="xMinYMin meet" viewBox="0 0 793 1123"><defs><clipPath id="1"><path id="" clip-rule="evenodd" transform="matrix(1 0 0 1 0 0)" d="M0 842L0 -0.25L0 -0.25L595.5 -0.25L595.5 -0.25L595.5 842L595.5 842L0 842z" /></clipPath><clipPath id="2"><path id="" clip-rule="evenodd" transform="matrix(1 0 0 1 0 0)" d="M0 -0.249939L595.5 -0.249939L595.5 -0.249939L595.5 842.0001L595.5 842.0001L0 842.0001z" /></clipPath><clipPath id="3"><path id="" clip-rule="evenodd" transform="matrix(1 0 0 1 0 0)" d="M0 -0.249939L595.5 -0.249939L595.5 -0.249939L595.5 842.0001L595.5 842.0001L0 842.0001z" /></clipPath><clipPath id="4"><path id="" clip-rule="evenodd" transform="matrix(1 0 0 1 0 0)" d="M0 -0.249939L595.5 -0.249939L595.5 -0.249939L595.5 842.0001L595.5 842.0001L0 842.0001z" /></clipPath><clipPath id="5"><path id="" clip-rule="evenodd" transform="matrix(1 0 0 1 0 0)" d="M78.71999 30.71008L522.24 30.71008L522.24 30.71008L522.24 810.9501L522.24 810.9501L78.71999 810.9501z" /></clipPath><clipPath id="6"><path id="" clip-rule="evenodd" transform="matrix(1 0 0 1 0 0)" d="M79.51787 30.75183L522.0178 30.75183L522.0178 30.75183L522.0178 810.7518L522.0178 810.7518L79.51787 810.7518z" /></clipPath><clipPath id="7"><path id="" clip-rule="evenodd" transform="matrix(1 0 0 1 0 0)" d="M3.41925 500.5386L357.4192 500.5386L357.4192 500.5386L357.4192 688.7886L357.4192 688.7886L3.41925 688.7886z" /></clipPath><clipPath id="8"><path id="" clip-rule="evenodd" transform="matrix(1 0 0 1 0 0)" d="M0 -0.249939L595.5 -0.249939L595.5 -0.249939L595.5 842.0001L595.5 842.0001L0 842.0001z" /></clipPath><clipPath id="9"><path id="" clip-rule="evenodd" transform="matrix(1 0 0 1 0 0)" d="M0 -0.249939L595.5 -0.249939L595.5 -0.249939L595.5 842.0001L595.5 842.0001L0 842.0001z" /></clipPath><clipPath id="10"><path id="" clip-rule="evenodd" transform="matrix(1 0 0 1 0 0)" d="M0 -0.249939L595.5 -0.249939L595.5 -0.249939L595.5 842.0001L595.5 842.0001L0 842.0001z" /></clipPath><clipPath id="11"><path id="" clip-rule="evenodd" transform="matrix(1 0 0 1 0 0)" d="M421.4176 534.569L517.2572 534.569L517.2572 534.569L517.2572 659.6097L517.2572 659.6097L421.4176 659.6097z" /></clipPath><clipPath id="12"><path id="" clip-rule="evenodd" transform="matrix(1 0 0 1 0 0)" d="M434.1676 534.569L504.5072 534.569C 507.8887 534.569 511.1317 535.9124 513.5228 538.3034C 515.9139 540.6945 517.2572 543.9375 517.2572 547.319L517.2572 547.319L517.2572 646.7133C 517.2572 650.0947 515.9139 653.3378 513.5228 655.7288C 511.1317 658.1199 507.8887 659.4633 504.5072 659.4633L504.5072 659.4633L434.1676 659.4633C 430.7861 659.4633 427.5431 658.1199 425.152 655.7288C 422.7609 653.3378 421.4176 650.0947 421.4176 646.7133L421.4176 646.7133L421.4176 547.319C 421.4176 543.9375 422.7609 540.6945 425.152 538.3034C 427.5431 535.9124 430.7861 534.569 434.1676 534.569z" /></clipPath><clipPath id="13"><path id="" clip-rule="evenodd" transform="matrix(1 0 0 1 0 0)" d="M421.4176 534.569L517.2572 534.569L517.2572 534.569L517.2572 659.6097L517.2572 659.6097L421.4176 659.6097z" /></clipPath><clipPath id="14"><path id="" clip-rule="evenodd" transform="matrix(1 0 0 1 0 0)" d="M0 -0.249939L595.5 -0.249939L595.5 -0.249939L595.5 842.0001L595.5 842.0001L0 842.0001z" /></clipPath><clipPath id="15"><path id="" clip-rule="evenodd" transform="matrix(1 0 0 1 0 0)" d="M0 -0.249939L595.5 -0.249939L595.5 -0.249939L595.5 842.0001L595.5 842.0001L0 842.0001z" /></clipPath><clipPath id="16"><path id="" clip-rule="evenodd" transform="matrix(1 0 0 1 0 0)" d="M421.4176 534.569L517.4176 534.569L517.4176 534.569L517.4176 659.819L517.4176 659.819L421.4176 659.819z" /></clipPath><clipPath id="17"><path id="" clip-rule="evenodd" transform="matrix(1 0 0 1 0 0)" d="M421.4187 534.569L518.9864 534.569L518.9864 534.569L518.9864 659.4557L518.9864 659.4557L421.4187 659.4557z" /></clipPath><clipPath id="18"><path id="" clip-rule="evenodd" transform="matrix(1 0 0 1 0 0)" d="M434.1679 534.569L504.5033 534.569C 507.8845 534.569 511.1273 535.9122 513.5183 538.3032C 515.9092 540.6941 517.2525 543.937 517.2525 547.3182L517.2525 547.3182L517.2525 646.7065C 517.2525 650.0878 515.9092 653.3306 513.5183 655.7216C 511.1273 658.1125 507.8845 659.4557 504.5033 659.4557L504.5033 659.4557L434.1679 659.4557C 430.7866 659.4557 427.5438 658.1125 425.1528 655.7216C 422.7619 653.3306 421.4187 650.0878 421.4187 646.7065L421.4187 646.7065L421.4187 547.3182C 421.4187 543.937 422.7619 540.6941 425.1528 538.3032C 427.5438 535.9122 430.7866 534.569 434.1679 534.569z" /></clipPath><clipPath id="19"><path id="" clip-rule="evenodd" transform="matrix(1 0 0 1 0 0)" d="M0 -0.249939L595.5 -0.249939L595.5 -0.249939L595.5 842.0001L595.5 842.0001L0 842.0001z" /></clipPath><clipPath id="20"><path id="" clip-rule="evenodd" transform="matrix(1 0 0 1 0 0)" d="M0 -0.249939L595.5 -0.249939L595.5 -0.249939L595.5 842.0001L595.5 842.0001L0 842.0001z" /></clipPath><clipPath id="21"><path id="" clip-rule="evenodd" transform="matrix(1 0 0 1 0 0)" d="M409.2429 616.6548L410.8235 648.8661L410.8235 648.8661L313.4406 653.6445L313.4406 653.6445L311.8601 621.4332L311.8601 621.4332L409.2429 616.6548z" /></clipPath><clipPath id="22"><path id="" clip-rule="evenodd" transform="matrix(1 0 0 1 0 0)" d="M313.8155 653.8725L312.235 621.6613L312.235 621.6613L409.6178 616.8829L409.6178 616.8829L411.1984 649.0941L411.1984 649.0941L313.8155 653.8725z" /></clipPath><clipPath id="23"><path id="" clip-rule="evenodd" transform="matrix(1 0 0 1 0 0)" d="M313.8155 653.8725L312.235 621.6613L312.235 621.6613L409.6178 616.8829L409.6178 616.8829L411.1984 649.0941L411.1984 649.0941L313.8155 653.8725z" /></clipPath><clipPath id="24"><path id="" clip-rule="evenodd" transform="matrix(1 0 0 1 0 0)" d="M281.2125 383.7553L584.2125 383.7553L584.2125 383.7553L584.2125 544.2553L584.2125 544.2553L281.2125 544.2553z" /></clipPath><clipPath id="25"><path id="" clip-rule="evenodd" transform="matrix(1 0 0 1 0 0)" d="M0 -0.249939L595.5 -0.249939L595.5 -0.249939L595.5 842.0001L595.5 842.0001L0 842.0001z" /></clipPath><clipPath id="26"><path id="" clip-rule="evenodd" transform="matrix(1 0 0 1 0 0)" d="M0 -0.249939L595.5 -0.249939L595.5 -0.249939L595.5 842.0001L595.5 842.0001L0 842.0001z" /></clipPath><clipPath id="27"><path id="" clip-rule="evenodd" transform="matrix(1 0 0 1 0 0)" d="M0 -0.249939L595.5 -0.249939L595.5 -0.249939L595.5 842.0001L595.5 842.0001L0 842.0001z" /></clipPath><clipPath id="28"><path id="" clip-rule="evenodd" transform="matrix(1 0 0 1 0 0)" d="M90.4741 401.5582L238.786 401.5582L238.786 401.5582L238.786 526.4525L238.786 526.4525L90.4741 526.4525z" /></clipPath><clipPath id="29"><path id="" clip-rule="evenodd" transform="matrix(1 0 0 1 0 0)" d="M103.2241 401.5582L225.9645 401.5582C 229.346 401.5582 232.589 402.9015 234.9801 405.2926C 237.3712 407.6837 238.7145 410.9267 238.7145 414.3082L238.7145 414.3082L238.7145 513.7025C 238.7145 517.0839 237.3712 520.3269 234.9801 522.718C 232.589 525.1091 229.346 526.4525 225.9645 526.4525L225.9645 526.4525L103.2241 526.4525C 99.84258 526.4525 96.59957 525.1091 94.20849 522.718C 91.81739 520.3269 90.4741 517.0839 90.4741 513.7025L90.4741 513.7025L90.4741 414.3082C 90.4741 410.9267 91.81739 407.6837 94.20849 405.2926C 96.59957 402.9015 99.84258 401.5582 103.2241 401.5582z" /></clipPath><clipPath id="30"><path id="" clip-rule="evenodd" transform="matrix(1 0 0 1 0 0)" d="M90.4741 401.5582L238.786 401.5582L238.786 401.5582L238.786 526.4525L238.786 526.4525L90.4741 526.4525z" /></clipPath><clipPath id="31"><path id="" clip-rule="evenodd" transform="matrix(1 0 0 1 0 0)" d="M0 -0.249939L595.5 -0.249939L595.5 -0.249939L595.5 842.0001L595.5 842.0001L0 842.0001z" /></clipPath><clipPath id="32"><path id="" clip-rule="evenodd" transform="matrix(1 0 0 1 0 0)" d="M0 -0.249939L595.5 -0.249939L595.5 -0.249939L595.5 842.0001L595.5 842.0001L0 842.0001z" /></clipPath><clipPath id="33"><path id="" clip-rule="evenodd" transform="matrix(1 0 0 1 0 0)" d="M90.4741 401.5582L238.9741 401.5582L238.9741 401.5582L238.9741 526.8082L238.9741 526.8082L90.4741 526.8082z" /></clipPath><clipPath id="34"><path id="" clip-rule="evenodd" transform="matrix(1 0 0 1 0 0)" d="M90.4741 401.5587L238.776 401.5587L238.776 401.5587L238.776 526.4445L238.776 526.4445L90.4741 526.4445z" /></clipPath><clipPath id="35"><path id="" clip-rule="evenodd" transform="matrix(1 0 0 1 0 0)" d="M103.2232 401.5587L225.9554 401.5587C 229.3367 401.5587 232.5795 402.9019 234.9704 405.2928C 237.3614 407.6837 238.7046 410.9265 238.7046 414.3078L238.7046 414.3078L238.7046 513.6953C 238.7046 517.0767 237.3614 520.3194 234.9704 522.7103C 232.5795 525.1013 229.3367 526.4445 225.9554 526.4445L225.9554 526.4445L103.2232 526.4445C 99.84196 526.4445 96.59916 525.1013 94.20823 522.7103C 91.81731 520.3194 90.4741 517.0767 90.4741 513.6953L90.4741 513.6953L90.4741 414.3078C 90.4741 410.9265 91.81731 407.6837 94.20823 405.2928C 96.59916 402.9019 99.84196 401.5587 103.2232 401.5587z" /></clipPath><clipPath id="36"><path id="" clip-rule="evenodd" transform="matrix(1 0 0 1 0 0)" d="M0 -0.249939L595.5 -0.249939L595.5 -0.249939L595.5 842.0001L595.5 842.0001L0 842.0001z" /></clipPath><clipPath id="37"><path id="" clip-rule="evenodd" transform="matrix(1 0 0 1 0 0)" d="M0 -0.249939L595.5 -0.249939L595.5 -0.249939L595.5 842.0001L595.5 842.0001L0 842.0001z" /></clipPath><clipPath id="38"><path id="" clip-rule="evenodd" transform="matrix(1 0 0 1 0 0)" d="M304.7895 481.927L306.3701 514.1382L306.3701 514.1382L208.9872 518.9166L208.9872 518.9166L207.4067 486.7054L207.4067 486.7054L304.7895 481.927z" /></clipPath><clipPath id="39"><path id="" clip-rule="evenodd" transform="matrix(1 0 0 1 0 0)" d="M306.3821 514.384L304.8016 482.1728L304.8016 482.1728L207.4188 486.9512L207.4188 486.9512L208.9993 519.1624L208.9993 519.1624L306.3821 514.384z" /></clipPath><clipPath id="40"><path id="" clip-rule="evenodd" transform="matrix(1 0 0 1 0 0)" d="M306.3821 514.384L304.8016 482.1728L304.8016 482.1728L207.4188 486.9512L207.4188 486.9512L208.9993 519.1624L208.9993 519.1624L306.3821 514.384z" /></clipPath><clipPath id="41"><path id="" clip-rule="evenodd" transform="matrix(1 0 0 1 0 0)" d="M0 251.2494L349.5 251.2494L349.5 251.2494L349.5 420.7494L349.5 420.7494L0 420.7494z" /></clipPath><clipPath id="42"><path id="" clip-rule="evenodd" transform="matrix(1 0 0 1 0 0)" d="M0 -0.249939L595.5 -0.249939L595.5 -0.249939L595.5 842.0001L595.5 842.0001L0 842.0001z" /></clipPath><clipPath id="43"><path id="" clip-rule="evenodd" transform="matrix(1 0 0 1 0 0)" d="M0 -0.249939L595.5 -0.249939L595.5 -0.249939L595.5 842.0001L595.5 842.0001L0 842.0001z" /></clipPath><clipPath id="44"><path id="" clip-rule="evenodd" transform="matrix(1 0 0 1 0 0)" d="M0 -0.249939L595.5 -0.249939L595.5 -0.249939L595.5 842.0001L595.5 842.0001L0 842.0001z" /></clipPath><clipPath id="45"><path id="" clip-rule="evenodd" transform="matrix(1 0 0 1 0 0)" d="M417.9016 276.6639L566.2135 276.6639L566.2135 276.6639L566.2135 401.5582L566.2135 401.5582L417.9016 401.5582z" /></clipPath><clipPath id="46"><path id="" clip-rule="evenodd" transform="matrix(1 0 0 1 0 0)" d="M430.6516 276.6639L553.392 276.6639C 556.7735 276.6639 560.0165 278.0073 562.4077 280.3983C 564.7987 282.7894 566.142 286.0325 566.142 289.4139L566.142 289.4139L566.142 388.8082C 566.142 392.1897 564.7987 395.4327 562.4077 397.8238C 560.0165 400.2149 556.7735 401.5582 553.392 401.5582L553.392 401.5582L430.6516 401.5582C 427.2701 401.5582 424.0271 400.2149 421.636 397.8238C 419.2449 395.4327 417.9016 392.1897 417.9016 388.8082L417.9016 388.8082L417.9016 289.4139C 417.9016 286.0325 419.2449 282.7894 421.636 280.3983C 424.0271 278.0073 427.2701 276.6639 430.6516 276.6639z" /></clipPath><clipPath id="47"><path id="" clip-rule="evenodd" transform="matrix(1 0 0 1 0 0)" d="M417.9016 276.6639L566.2135 276.6639L566.2135 276.6639L566.2135 401.5582L566.2135 401.5582L417.9016 401.5582z" /></clipPath><clipPath id="48"><path id="" clip-rule="evenodd" transform="matrix(1 0 0 1 0 0)" d="M0 -0.249939L595.5 -0.249939L595.5 -0.249939L595.5 842.0001L595.5 842.0001L0 842.0001z" /></clipPath><clipPath id="49"><path id="" clip-rule="evenodd" transform="matrix(1 0 0 1 0 0)" d="M0 -0.249939L595.5 -0.249939L595.5 -0.249939L595.5 842.0001L595.5 842.0001L0 842.0001z" /></clipPath><clipPath id="50"><path id="" clip-rule="evenodd" transform="matrix(1 0 0 1 0 0)" d="M417.9016 276.6639L566.4016 276.6639L566.4016 276.6639L566.4016 401.914L566.4016 401.914L417.9016 401.914z" /></clipPath><clipPath id="51"><path id="" clip-rule="evenodd" transform="matrix(1 0 0 1 0 0)" d="M417.9016 276.6644L566.2036 276.6644L566.2036 276.6644L566.2036 401.5503L566.2036 401.5503L417.9016 401.5503z" /></clipPath><clipPath id="52"><path id="" clip-rule="evenodd" transform="matrix(1 0 0 1 0 0)" d="M430.6508 276.6644L553.3829 276.6644C 556.7642 276.6644 560.007 278.0076 562.3979 280.3986C 564.7889 282.7895 566.1321 286.0322 566.1321 289.4136L566.1321 289.4136L566.1321 388.8011C 566.1321 392.1824 564.7889 395.4252 562.3979 397.8161C 560.007 400.207 556.7642 401.5503 553.3829 401.5503L553.3829 401.5503L430.6508 401.5503C 427.2694 401.5503 424.0267 400.207 421.6357 397.8161C 419.2448 395.4252 417.9016 392.1824 417.9016 388.8011L417.9016 388.8011L417.9016 289.4136C 417.9016 286.0322 419.2448 282.7895 421.6357 280.3986C 424.0267 278.0076 427.2694 276.6644 430.6508 276.6644z" /></clipPath><clipPath id="53"><path id="" clip-rule="evenodd" transform="matrix(1 0 0 1 0 0)" d="M0 -0.249939L595.5 -0.249939L595.5 -0.249939L595.5 842.0001L595.5 842.0001L0 842.0001z" /></clipPath><clipPath id="54"><path id="" clip-rule="evenodd" transform="matrix(1 0 0 1 0 0)" d="M0 -0.249939L595.5 -0.249939L595.5 -0.249939L595.5 842.0001L595.5 842.0001L0 842.0001z" /></clipPath><clipPath id="55"><path id="" clip-rule="evenodd" transform="matrix(1 0 0 1 0 0)" d="M416.305 347.917L417.8856 380.1282L417.8856 380.1282L320.5027 384.9066L320.5027 384.9066L318.9222 352.6953L318.9222 352.6953L416.305 347.917z" /></clipPath><clipPath id="56"><path id="" clip-rule="evenodd" transform="matrix(1 0 0 1 0 0)" d="M320.8776 385.1346L319.2971 352.9233L319.2971 352.9233L416.6799 348.145L416.6799 348.145L418.2605 380.3562L418.2605 380.3562L320.8776 385.1346z" /></clipPath><clipPath id="57"><path id="" clip-rule="evenodd" transform="matrix(1 0 0 1 0 0)" d="M320.8776 385.1346L319.2971 352.9233L319.2971 352.9233L416.6799 348.145L416.6799 348.145L418.2605 380.3562L418.2605 380.3562L320.8776 385.1346z" /></clipPath><clipPath id="58"><path id="" clip-rule="evenodd" transform="matrix(1 0 0 1 0 0)" d="M0 -0.249939L595.5 -0.249939L595.5 -0.249939L595.5 842.0001L595.5 842.0001L0 842.0001z" /></clipPath><clipPath id="59"><path id="" clip-rule="evenodd" transform="matrix(1 0 0 1 0 0)" d="M267.855 120.563L595.5 120.563L595.5 120.563L595.5 299.813L595.5 299.813L267.855 299.813z" /></clipPath><clipPath id="60"><path id="" clip-rule="evenodd" transform="matrix(1 0 0 1 0 0)" d="M0 -0.249939L595.5 -0.249939L595.5 -0.249939L595.5 842.0001L595.5 842.0001L0 842.0001z" /></clipPath><clipPath id="61"><path id="" clip-rule="evenodd" transform="matrix(1 0 0 1 0 0)" d="M0 -0.249939L595.5 -0.249939L595.5 -0.249939L595.5 842.0001L595.5 842.0001L0 842.0001z" /></clipPath><clipPath id="62"><path id="" clip-rule="evenodd" transform="matrix(1 0 0 1 0 0)" d="M59.52756 128.9258L207.8394 128.9258L207.8394 128.9258L207.8394 253.8201L207.8394 253.8201L59.52756 253.8201z" /></clipPath><clipPath id="63"><path id="" clip-rule="evenodd" transform="matrix(1 0 0 1 0 0)" d="M72.27756 128.9258L195.018 128.9258C 198.3995 128.9258 201.6425 130.2692 204.0336 132.6602C 206.4247 135.0513 207.768 138.2943 207.768 141.6758L207.768 141.6758L207.768 241.0701C 207.768 244.4515 206.4247 247.6946 204.0336 250.0857C 201.6425 252.4767 198.3995 253.8201 195.018 253.8201L195.018 253.8201L72.27756 253.8201C 68.89605 253.8201 65.65304 252.4767 63.26195 250.0857C 60.87086 247.6946 59.52756 244.4515 59.52756 241.0701L59.52756 241.0701L59.52756 141.6758C 59.52756 138.2943 60.87086 135.0513 63.26195 132.6602C 65.65304 130.2692 68.89605 128.9258 72.27756 128.9258z" /></clipPath><clipPath id="64"><path id="" clip-rule="evenodd" transform="matrix(1 0 0 1 0 0)" d="M59.52756 128.9258L207.8394 128.9258L207.8394 128.9258L207.8394 253.8201L207.8394 253.8201L59.52756 253.8201z" /></clipPath><clipPath id="65"><path id="" clip-rule="evenodd" transform="matrix(1 0 0 1 0 0)" d="M0 -0.249939L595.5 -0.249939L595.5 -0.249939L595.5 842.0001L595.5 842.0001L0 842.0001z" /></clipPath><clipPath id="66"><path id="" clip-rule="evenodd" transform="matrix(1 0 0 1 0 0)" d="M0 -0.249939L595.5 -0.249939L595.5 -0.249939L595.5 842.0001L595.5 842.0001L0 842.0001z" /></clipPath><clipPath id="67"><path id="" clip-rule="evenodd" transform="matrix(1 0 0 1 0 0)" d="M59.52756 128.9258L208.0276 128.9258L208.0276 128.9258L208.0276 254.1758L208.0276 254.1758L59.52756 254.1758z" /></clipPath><clipPath id="68"><path id="" clip-rule="evenodd" transform="matrix(1 0 0 1 0 0)" d="M59.52756 128.9263L207.8295 128.9263L207.8295 128.9263L207.8295 253.8121L207.8295 253.8121L59.52756 253.8121z" /></clipPath><clipPath id="69"><path id="" clip-rule="evenodd" transform="matrix(1 0 0 1 0 0)" d="M72.27671 128.9263L195.0089 128.9263C 198.3902 128.9263 201.633 130.2695 204.0239 132.6604C 206.4148 135.0513 207.758 138.2941 207.758 141.6754L207.758 141.6754L207.758 241.063C 207.758 244.4443 206.4148 247.687 204.0239 250.078C 201.633 252.4689 198.3902 253.8121 195.0089 253.8121L195.0089 253.8121L72.27671 253.8121C 68.89542 253.8121 65.65263 252.4689 63.26169 250.078C 60.87077 247.687 59.52756 244.4443 59.52756 241.063L59.52756 241.063L59.52756 141.6754C 59.52756 138.2941 60.87077 135.0513 63.26169 132.6604C 65.65263 130.2695 68.89542 128.9263 72.27671 128.9263z" /></clipPath><clipPath id="70"><path id="" clip-rule="evenodd" transform="matrix(1 0 0 1 0 0)" d="M0 -0.249939L595.5 -0.249939L595.5 -0.249939L595.5 842.0001L595.5 842.0001L0 842.0001z" /></clipPath><clipPath id="71"><path id="" clip-rule="evenodd" transform="matrix(1 0 0 1 0 0)" d="M0 -0.249939L595.5 -0.249939L595.5 -0.249939L595.5 842.0001L595.5 842.0001L0 842.0001z" /></clipPath><clipPath id="72"><path id="" clip-rule="evenodd" transform="matrix(1 0 0 1 0 0)" d="M324.6411 219.6708L326.2216 251.8821L326.2216 251.8821L228.8387 256.6604L228.8387 256.6604L227.2582 224.4492L227.2582 224.4492L324.6411 219.6708z" /></clipPath><clipPath id="73"><path id="" clip-rule="evenodd" transform="matrix(1 0 0 1 0 0)" d="M326.2336 252.1279L324.6531 219.9166L324.6531 219.9166L227.2703 224.695L227.2703 224.695L228.8508 256.9063L228.8508 256.9063L326.2336 252.1279z" /></clipPath><clipPath id="74"><path id="" clip-rule="evenodd" transform="matrix(1 0 0 1 0 0)" d="M326.2336 252.1279L324.6531 219.9166L324.6531 219.9166L227.2703 224.695L227.2703 224.695L228.8508 256.9063L228.8508 256.9063L326.2336 252.1279z" /></clipPath><clipPath id="75"><path id="" clip-rule="evenodd" transform="matrix(1 0 0 1 0 0)" d="M0 -0.249939L595.5 -0.249939L595.5 -0.249939L595.5 842.0001L595.5 842.0001L0 842.0001z" /></clipPath><clipPath id="76"><path id="" clip-rule="evenodd" transform="matrix(1 0 0 1 0 0)" d="M238.7145 642.8443L582.9645 642.8443L582.9645 642.8443L582.9645 825.8443L582.9645 825.8443L238.7145 825.8443z" /></clipPath><clipPath id="77"><path id="" clip-rule="evenodd" transform="matrix(1 0 0 1 0 0)" d="M0 -0.249939L595.5 -0.249939L595.5 -0.249939L595.5 842.0001L595.5 842.0001L0 842.0001z" /></clipPath><clipPath id="78"><path id="" clip-rule="evenodd" transform="matrix(1 0 0 1 0 0)" d="M0 -0.249939L595.5 -0.249939L595.5 -0.249939L595.5 842.0001L595.5 842.0001L0 842.0001z" /></clipPath><clipPath id="79"><path id="" clip-rule="evenodd" transform="matrix(1 0 0 1 0 0)" d="M77.62492 674.2025L189.6706 674.2025L189.6706 674.2025L189.6706 799.3785L189.6706 799.3785L77.62492 799.3785z" /></clipPath><clipPath id="80"><path id="" clip-rule="evenodd" transform="matrix(1 0 0 1 0 0)" d="M90.37492 674.2025L176.9206 674.2025C 180.3021 674.2025 183.5451 675.5458 185.9362 677.9368C 188.3273 680.3279 189.6706 683.5709 189.6706 686.9525L189.6706 686.9525L189.6706 786.3466C 189.6706 789.7281 188.3273 792.9711 185.9362 795.3622C 183.5451 797.7533 180.3021 799.0966 176.9206 799.0966L176.9206 799.0966L90.37492 799.0966C 86.99341 799.0966 83.7504 797.7533 81.3593 795.3622C 78.96822 792.9711 77.62492 789.7281 77.62492 786.3466L77.62492 786.3466L77.62492 686.9525C 77.62492 683.5709 78.96822 680.3279 81.3593 677.9368C 83.7504 675.5458 86.99341 674.2025 90.37492 674.2025z" /></clipPath><clipPath id="81"><path id="" clip-rule="evenodd" transform="matrix(1 0 0 1 0 0)" d="M77.62492 674.2025L189.6706 674.2025L189.6706 674.2025L189.6706 798.9408L189.6706 798.9408L77.62492 798.9408z" /></clipPath><clipPath id="82"><path id="" clip-rule="evenodd" transform="matrix(1 0 0 1 0 0)" d="M0 -0.249939L595.5 -0.249939L595.5 -0.249939L595.5 842.0001L595.5 842.0001L0 842.0001z" /></clipPath><clipPath id="83"><path id="" clip-rule="evenodd" transform="matrix(1 0 0 1 0 0)" d="M0 -0.249939L595.5 -0.249939L595.5 -0.249939L595.5 842.0001L595.5 842.0001L0 842.0001z" /></clipPath><clipPath id="84"><path id="" clip-rule="evenodd" transform="matrix(1 0 0 1 0 0)" d="M77.62492 674.2025L189.3749 674.2025L189.3749 674.2025L189.3749 799.4525L189.3749 799.4525L77.62492 799.4525z" /></clipPath><clipPath id="85"><path id="" clip-rule="evenodd" transform="matrix(1 0 0 1 0 0)" d="M77.62692 674.2025L190.8055 674.2025L190.8055 674.2025L190.8055 799.0892L190.8055 799.0892L77.62692 799.0892z" /></clipPath><clipPath id="86"><path id="" clip-rule="evenodd" transform="matrix(1 0 0 1 0 0)" d="M90.37615 674.2025L176.9166 674.2025C 180.2979 674.2025 183.5408 675.5457 185.9317 677.9366C 188.3226 680.3275 189.6659 683.5703 189.6659 686.9517L189.6659 686.9517L189.6659 786.3399C 189.6659 789.7213 188.3226 792.9641 185.9317 795.355C 183.5408 797.746 180.2979 799.0892 176.9166 799.0892L176.9166 799.0892L90.37615 799.0892C 86.99485 799.0892 83.75204 797.746 81.36109 795.355C 78.97014 792.9641 77.62692 789.7213 77.62692 786.3399L77.62692 786.3399L77.62692 686.9517C 77.62692 683.5703 78.97014 680.3275 81.36109 677.9366C 83.75204 675.5457 86.99485 674.2025 90.37615 674.2025z" /></clipPath><clipPath id="87"><path id="" clip-rule="evenodd" transform="matrix(1 0 0 1 0 0)" d="M0 -0.249939L595.5 -0.249939L595.5 -0.249939L595.5 842.0001L595.5 842.0001L0 842.0001z" /></clipPath><clipPath id="88"><path id="" clip-rule="evenodd" transform="matrix(1 0 0 1 0 0)" d="M0 -0.249939L595.5 -0.249939L595.5 -0.249939L595.5 842.0001L595.5 842.0001L0 842.0001z" /></clipPath><clipPath id="89"><path id="" clip-rule="evenodd" transform="matrix(1 0 0 1 0 0)" d="M0 -0.249939L595.5 -0.249939L595.5 -0.249939L595.5 842.0001L595.5 842.0001L0 842.0001z" /></clipPath><clipPath id="90"><path id="" clip-rule="evenodd" transform="matrix(1 0 0 1 0 0)" d="M256.7956 744.8906L258.3761 777.1019L258.3761 777.1019L160.9933 781.8802L160.9933 781.8802L159.4127 749.6689L159.4127 749.6689L256.7956 744.8906z" /></clipPath><clipPath id="91"><path id="" clip-rule="evenodd" transform="matrix(1 0 0 1 0 0)" d="M258.3882 777.3477L256.8076 745.1364L256.8076 745.1364L159.4248 749.9147L159.4248 749.9147L161.0053 782.126L161.0053 782.126L258.3882 777.3477z" /></clipPath><clipPath id="92"><path id="" clip-rule="evenodd" transform="matrix(1 0 0 1 0 0)" d="M258.3882 777.3477L256.8076 745.1364L256.8076 745.1364L159.4248 749.9147L159.4248 749.9147L161.0053 782.126L161.0053 782.126L258.3882 777.3477z" /></clipPath><clipPath id="93"><path id="" clip-rule="evenodd" transform="matrix(1 0 0 1 0 0)" d="M481.6858 13.96661L582.9357 13.96661L582.9357 13.96661L582.9357 71.71661L582.9357 71.71661L481.6858 71.71661z" /></clipPath><clipPath id="94"><path id="" clip-rule="evenodd" transform="matrix(1 0 0 1 0 0)" d="M0 -0.249939L595.5 -0.249939L595.5 -0.249939L595.5 842.0001L595.5 842.0001L0 842.0001z" /></clipPath><clipPath id="95"><path id="" clip-rule="evenodd" transform="matrix(1 0 0 1 0 0)" d="M0 -0.249939L595.5 -0.249939L595.5 -0.249939L595.5 842.0001L595.5 842.0001L0 842.0001z" /></clipPath><clipPath id="96"><path id="" clip-rule="evenodd" transform="matrix(1 0 0 1 0 0)" d="M30.08009 39.65375L62.33008 39.65375L62.33008 39.65375L62.33008 71.90375L62.33008 71.90375L30.08009 71.90375z" /></clipPath><clipPath id="97"><path id="" clip-rule="evenodd" transform="matrix(1 0 0 1 0 0)" d="M30.08009 55.54803L30.08009 55.55066C 30.08009 59.76605 31.75466 63.80884 34.73541 66.78955C 37.71616 69.77032 41.75893 71.44489 45.97435 71.44489C 50.18977 71.44489 54.23254 69.77032 57.21329 66.78955C 60.19404 63.80884 61.86861 59.76605 61.86861 55.55066L61.86861 55.55066L61.86861 55.54803C 61.86861 51.33264 60.19404 47.28986 57.21329 44.30908C 54.23254 41.32831 50.18977 39.65375 45.97435 39.65375C 41.75893 39.65375 37.71616 41.32831 34.73541 44.30908C 31.75466 47.28986 30.08009 51.33264 30.08009 55.54803z" /></clipPath><clipPath id="98"><path id="" clip-rule="evenodd" transform="matrix(1 0 0 1 0 0)" d="M30.83009 40.40375L61.58008 40.40375L61.58008 40.40375L61.58008 71.15375L61.58008 71.15375L30.83009 71.15375z" /></clipPath><clipPath id="99"><path id="" clip-rule="evenodd" transform="matrix(1 0 0 1 0 0)" d="M45.97435 40.55377C 49.95108 40.55377 53.76492 42.13354 56.57689 44.9455C 59.38887 47.75745 60.96861 51.57129 60.96861 55.54803L60.96861 55.54803L60.96861 55.55066C 60.96861 59.52734 59.38887 63.34119 56.57689 66.1532C 53.76492 68.96515 49.95108 70.54492 45.97435 70.54492C 41.99762 70.54492 38.18377 68.96515 35.3718 66.1532C 32.55984 63.34119 30.98009 59.52734 30.98009 55.55066L30.98009 55.55066L30.98009 55.54803C 30.98009 51.57129 32.55984 47.75745 35.3718 44.9455C 38.18377 42.13354 41.99762 40.55377 45.97435 40.55377z" /></clipPath><clipPath id="100"><path id="" clip-rule="evenodd" transform="matrix(1 0 0 1 0 0)" d="M30.82879 40.40375L61.57878 40.40375L61.57878 40.40375L61.57878 71.15375L61.57878 71.15375L30.82879 71.15375z" /></clipPath><clipPath id="101"><path id="" clip-rule="evenodd" transform="matrix(1 0 0 1 0 0)" d="M30.07209 39.64709L61.57208 39.64709L61.57208 39.64709L61.57208 71.14709L61.57208 71.14709L30.07209 71.14709z" /></clipPath><clipPath id="102"><path id="" clip-rule="evenodd" transform="matrix(1 0 0 1 0 0)" d="M0 -0.249939L595.5 -0.249939L595.5 -0.249939L595.5 842.0001L595.5 842.0001L0 842.0001z" /></clipPath><clipPath id="103"><path id="" clip-rule="evenodd" transform="matrix(1 0 0 1 0 0)" d="M0 -0.249939L595.5 -0.249939L595.5 -0.249939L595.5 842.0001L595.5 842.0001L0 842.0001z" /></clipPath><clipPath id="104"><path id="" clip-rule="evenodd" transform="matrix(1 0 0 1 0 0)" d="M30.08009 39.65375L62.33008 39.65375L62.33008 39.65375L62.33008 71.90375L62.33008 71.90375L30.08009 71.90375z" /></clipPath><clipPath id="105"><path id="" clip-rule="evenodd" transform="matrix(1 0 0 1 0 0)" d="M30.08009 55.54803L30.08009 55.55066C 30.08009 59.76605 31.75466 63.80884 34.73541 66.78955C 37.71616 69.77032 41.75893 71.44489 45.97435 71.44489C 50.18977 71.44489 54.23254 69.77032 57.21329 66.78955C 60.19404 63.80884 61.86861 59.76605 61.86861 55.55066L61.86861 55.55066L61.86861 55.54803C 61.86861 51.33264 60.19404 47.28986 57.21329 44.30908C 54.23254 41.32831 50.18977 39.65375 45.97435 39.65375C 41.75893 39.65375 37.71616 41.32831 34.73541 44.30908C 31.75466 47.28986 30.08009 51.33264 30.08009 55.54803z" /></clipPath><clipPath id="106"><path id="" clip-rule="evenodd" transform="matrix(1 0 0 1 0 0)" d="M30.08009 39.65375L61.58008 39.65375L61.58008 39.65375L61.58008 71.15375L61.58008 71.15375L30.08009 71.15375z" /></clipPath><clipPath id="107"><path id="" clip-rule="evenodd" transform="matrix(1 0 0 1 0 0)" d="M30.08009 39.65375L62.3227 39.65375L62.3227 39.65375L62.3227 71.89374L62.3227 71.89374L30.08009 71.89374z" /></clipPath><clipPath id="108"><path id="" clip-rule="evenodd" transform="matrix(1 0 0 1 0 0)" d="M30.08009 55.54309L30.08009 55.54572C 30.08009 59.75983 31.75427 63.80133 34.73434 66.78113C 37.71441 69.76099 41.75626 71.435 45.97071 71.435C 50.18517 71.435 54.22701 69.76099 57.20708 66.78113C 60.18715 63.80133 61.86133 59.75983 61.86133 55.54572L61.86133 55.54572L61.86133 55.54309C 61.86133 51.32898 60.18715 47.28748 57.20708 44.30762C 54.22701 41.32782 50.18517 39.65375 45.97071 39.65375C 41.75626 39.65375 37.71441 41.32782 34.73434 44.30762C 31.75427 47.28748 30.08009 51.32898 30.08009 55.54309z" /></clipPath><clipPath id="109"><path id="" clip-rule="evenodd" transform="matrix(1 0 0 1 0 0)" d="M0 -0.249939L595.5 -0.249939L595.5 -0.249939L595.5 842.0001L595.5 842.0001L0 842.0001z" /></clipPath><clipPath id="110"><path id="" clip-rule="evenodd" transform="matrix(1 0 0 1 0 0)" d="M0 -0.249939L595.5 -0.249939L595.5 -0.249939L595.5 842.0001L595.5 842.0001L0 842.0001z" /></clipPath><clipPath id="111"><path id="" clip-rule="evenodd" transform="matrix(1 0 0 1 0 0)" d="M0 -0.249939L595.5 -0.249939L595.5 -0.249939L595.5 842.0001L595.5 842.0001L0 842.0001z" /></clipPath><clipPath id="112"><path id="" clip-rule="evenodd" transform="matrix(1 0 0 1 0 0)" d="M289.7675 164.1148L319.7675 164.1148L319.7675 164.1148L319.7675 188.8648L319.7675 188.8648L289.7675 188.8648z" /></clipPath><clipPath id="113"><path id="" clip-rule="evenodd" transform="matrix(1 0 0 1 0 0)" d="M289.7675 176.4814C 289.7675 183.3114 295.3042 188.8481 302.1342 188.8481L302.1342 188.8481L307.1813 188.8481C 314.0113 188.8481 319.548 183.3114 319.548 176.4814C 319.548 169.6516 314.0113 164.1148 307.1813 164.1148L307.1813 164.1148L302.1342 164.1148C 295.3042 164.1148 289.7675 169.6516 289.7675 176.4814z" /></clipPath><clipPath id="114"><path id="" clip-rule="evenodd" transform="matrix(1 0 0 1 0 0)" d="M290.5175 164.8648L319.0175 164.8648L319.0175 164.8648L319.0175 188.1148L319.0175 188.1148L290.5175 188.1148z" /></clipPath><clipPath id="115"><path id="" clip-rule="evenodd" transform="matrix(1 0 0 1 0 0)" d="M302.1342 165.0148L307.1813 165.0148C 313.5142 165.0148 318.648 170.1486 318.648 176.4814C 318.648 182.8143 313.5142 187.9481 307.1813 187.9481L307.1813 187.9481L302.1342 187.9481C 295.8013 187.9481 290.6675 182.8143 290.6675 176.4814C 290.6675 170.1486 295.8013 165.0148 302.1342 165.0148z" /></clipPath><clipPath id="116"><path id="" clip-rule="evenodd" transform="matrix(1 0 0 1 0 0)" d="M290.5175 164.5912L319.0175 164.5912L319.0175 164.5912L319.0175 188.5912L319.0175 188.5912L290.5175 188.5912z" /></clipPath><clipPath id="117"><path id="" clip-rule="evenodd" transform="matrix(1 0 0 1 0 0)" d="M289.7731 161.6135L319.7731 161.6135L319.7731 161.6135L319.7731 191.6135L319.7731 191.6135L289.7731 191.6135z" /></clipPath><clipPath id="118"><path id="" clip-rule="evenodd" transform="matrix(1 0 0 1 0 0)" d="M0 -0.249939L595.5 -0.249939L595.5 -0.249939L595.5 842.0001L595.5 842.0001L0 842.0001z" /></clipPath><clipPath id="119"><path id="" clip-rule="evenodd" transform="matrix(1 0 0 1 0 0)" d="M0 -0.249939L595.5 -0.249939L595.5 -0.249939L595.5 842.0001L595.5 842.0001L0 842.0001z" /></clipPath><clipPath id="120"><path id="" clip-rule="evenodd" transform="matrix(1 0 0 1 0 0)" d="M289.7675 164.1148L319.7675 164.1148L319.7675 164.1148L319.7675 188.8648L319.7675 188.8648L289.7675 188.8648z" /></clipPath><clipPath id="121"><path id="" clip-rule="evenodd" transform="matrix(1 0 0 1 0 0)" d="M289.7675 176.4814C 289.7675 183.3114 295.3042 188.8481 302.1342 188.8481L302.1342 188.8481L307.1813 188.8481C 314.0113 188.8481 319.548 183.3114 319.548 176.4814C 319.548 169.6516 314.0113 164.1148 307.1813 164.1148L307.1813 164.1148L302.1342 164.1148C 295.3042 164.1148 289.7675 169.6516 289.7675 176.4814z" /></clipPath><clipPath id="122"><path id="" clip-rule="evenodd" transform="matrix(1 0 0 1 0 0)" d="M289.7675 164.1148L319.7675 164.1148L319.7675 164.1148L319.7675 188.8648L319.7675 188.8648L289.7675 188.8648z" /></clipPath><clipPath id="123"><path id="" clip-rule="evenodd" transform="matrix(1 0 0 1 0 0)" d="M289.7675 164.1148L319.7643 164.1148L319.7643 164.1148L319.7643 188.8581L319.7643 188.8581L289.7675 188.8581z" /></clipPath><clipPath id="124"><path id="" clip-rule="evenodd" transform="matrix(1 0 0 1 0 0)" d="M289.7675 176.4781C 289.7675 183.3062 295.3036 188.8414 302.1328 188.8414L302.1328 188.8414L307.1795 188.8414C 314.0087 188.8414 319.5449 183.3062 319.5449 176.4781C 319.5449 169.65 314.0087 164.1148 307.1795 164.1148L307.1795 164.1148L302.1328 164.1148C 295.3036 164.1148 289.7675 169.65 289.7675 176.4781z" /></clipPath><clipPath id="125"><path id="" clip-rule="evenodd" transform="matrix(1 0 0 1 0 0)" d="M0 -0.249939L595.5 -0.249939L595.5 -0.249939L595.5 842.0001L595.5 842.0001L0 842.0001z" /></clipPath><clipPath id="126"><path id="" clip-rule="evenodd" transform="matrix(1 0 0 1 0 0)" d="M0 -0.249939L595.5 -0.249939L595.5 -0.249939L595.5 842.0001L595.5 842.0001L0 842.0001z" /></clipPath><clipPath id="127"><path id="" clip-rule="evenodd" transform="matrix(1 0 0 1 0 0)" d="M0 -0.249939L595.5 -0.249939L595.5 -0.249939L595.5 842.0001L595.5 842.0001L0 842.0001z" /></clipPath><clipPath id="128"><path id="" clip-rule="evenodd" transform="matrix(1 0 0 1 0 0)" d="M15.18984 276.6639L45.18984 276.6639L45.18984 276.6639L45.18984 301.4139L45.18984 301.4139L15.18984 301.4139z" /></clipPath><clipPath id="129"><path id="" clip-rule="evenodd" transform="matrix(1 0 0 1 0 0)" d="M15.18984 289.0306C 15.18984 295.8605 20.72658 301.3973 27.55649 301.3973L27.55649 301.3973L32.60368 301.3973C 39.43359 301.3973 44.97032 295.8605 44.97032 289.0306C 44.97032 282.2007 39.43359 276.6639 32.60368 276.6639L32.60368 276.6639L27.55649 276.6639C 20.72658 276.6639 15.18984 282.2007 15.18984 289.0306z" /></clipPath><clipPath id="130"><path id="" clip-rule="evenodd" transform="matrix(1 0 0 1 0 0)" d="M15.93984 277.4139L44.43984 277.4139L44.43984 277.4139L44.43984 300.6639L44.43984 300.6639L15.93984 300.6639z" /></clipPath><clipPath id="131"><path id="" clip-rule="evenodd" transform="matrix(1 0 0 1 0 0)" d="M27.55649 277.564L32.60368 277.564C 38.93653 277.564 44.07032 282.6978 44.07032 289.0306C 44.07032 295.3635 38.93653 300.4973 32.60368 300.4973L32.60368 300.4973L27.55649 300.4973C 21.22363 300.4973 16.08985 295.3635 16.08985 289.0306C 16.08985 282.6978 21.22363 277.564 27.55649 277.564z" /></clipPath><clipPath id="132"><path id="" clip-rule="evenodd" transform="matrix(1 0 0 1 0 0)" d="M15.93984 277.1404L44.43984 277.1404L44.43984 277.1404L44.43984 301.1404L44.43984 301.1404L15.93984 301.1404z" /></clipPath><clipPath id="133"><path id="" clip-rule="evenodd" transform="matrix(1 0 0 1 0 0)" d="M15.19541 274.1626L45.19541 274.1626L45.19541 274.1626L45.19541 304.1626L45.19541 304.1626L15.19541 304.1626z" /></clipPath><clipPath id="134"><path id="" clip-rule="evenodd" transform="matrix(1 0 0 1 0 0)" d="M0 -0.249939L595.5 -0.249939L595.5 -0.249939L595.5 842.0001L595.5 842.0001L0 842.0001z" /></clipPath><clipPath id="135"><path id="" clip-rule="evenodd" transform="matrix(1 0 0 1 0 0)" d="M0 -0.249939L595.5 -0.249939L595.5 -0.249939L595.5 842.0001L595.5 842.0001L0 842.0001z" /></clipPath><clipPath id="136"><path id="" clip-rule="evenodd" transform="matrix(1 0 0 1 0 0)" d="M15.18984 276.6639L45.18984 276.6639L45.18984 276.6639L45.18984 301.4139L45.18984 301.4139L15.18984 301.4139z" /></clipPath><clipPath id="137"><path id="" clip-rule="evenodd" transform="matrix(1 0 0 1 0 0)" d="M15.18984 289.0306C 15.18984 295.8605 20.72658 301.3973 27.55649 301.3973L27.55649 301.3973L32.60368 301.3973C 39.43359 301.3973 44.97032 295.8605 44.97032 289.0306C 44.97032 282.2007 39.43359 276.6639 32.60368 276.6639L32.60368 276.6639L27.55649 276.6639C 20.72658 276.6639 15.18984 282.2007 15.18984 289.0306z" /></clipPath><clipPath id="138"><path id="" clip-rule="evenodd" transform="matrix(1 0 0 1 0 0)" d="M15.18984 276.6639L45.18984 276.6639L45.18984 276.6639L45.18984 301.4139L45.18984 301.4139L15.18984 301.4139z" /></clipPath><clipPath id="139"><path id="" clip-rule="evenodd" transform="matrix(1 0 0 1 0 0)" d="M15.18984 276.6639L45.18669 276.6639L45.18669 276.6639L45.18669 301.4072L45.18669 301.4072L15.18984 301.4072z" /></clipPath><clipPath id="140"><path id="" clip-rule="evenodd" transform="matrix(1 0 0 1 0 0)" d="M15.18984 289.0272C 15.18984 295.8553 20.726 301.3905 27.55519 301.3905L27.55519 301.3905L32.60185 301.3905C 39.43104 301.3905 44.96719 295.8553 44.96719 289.0272C 44.96719 282.1992 39.43104 276.6639 32.60185 276.6639L32.60185 276.6639L27.55519 276.6639C 20.726 276.6639 15.18984 282.1992 15.18984 289.0272z" /></clipPath><clipPath id="141"><path id="" clip-rule="evenodd" transform="matrix(1 0 0 1 0 0)" d="M0 -0.249939L595.5 -0.249939L595.5 -0.249939L595.5 842.0001L595.5 842.0001L0 842.0001z" /></clipPath><clipPath id="142"><path id="" clip-rule="evenodd" transform="matrix(1 0 0 1 0 0)" d="M0 -0.249939L595.5 -0.249939L595.5 -0.249939L595.5 842.0001L595.5 842.0001L0 842.0001z" /></clipPath><clipPath id="143"><path id="" clip-rule="evenodd" transform="matrix(1 0 0 1 0 0)" d="M0 -0.249939L595.5 -0.249939L595.5 -0.249939L595.5 842.0001L595.5 842.0001L0 842.0001z" /></clipPath><clipPath id="144"><path id="" clip-rule="evenodd" transform="matrix(1 0 0 1 0 0)" d="M304.6577 413.6951L334.6577 413.6951L334.6577 413.6951L334.6577 438.4451L334.6577 438.4451L304.6577 438.4451z" /></clipPath><clipPath id="145"><path id="" clip-rule="evenodd" transform="matrix(1 0 0 1 0 0)" d="M304.6577 426.0618C 304.6577 432.8917 310.1945 438.4284 317.0244 438.4284L317.0244 438.4284L322.0716 438.4284C 328.9015 438.4284 334.4382 432.8917 334.4382 426.0618C 334.4382 419.2318 328.9015 413.6951 322.0716 413.6951L322.0716 413.6951L317.0244 413.6951C 310.1945 413.6951 304.6577 419.2318 304.6577 426.0618z" /></clipPath><clipPath id="146"><path id="" clip-rule="evenodd" transform="matrix(1 0 0 1 0 0)" d="M305.4077 414.4451L333.9077 414.4451L333.9077 414.4451L333.9077 437.6951L333.9077 437.6951L305.4077 437.6951z" /></clipPath><clipPath id="147"><path id="" clip-rule="evenodd" transform="matrix(1 0 0 1 0 0)" d="M317.0244 414.5951L322.0716 414.5951C 328.4044 414.5951 333.5382 419.7289 333.5382 426.0618C 333.5382 432.3946 328.4044 437.5284 322.0716 437.5284L322.0716 437.5284L317.0244 437.5284C 310.6915 437.5284 305.5578 432.3946 305.5578 426.0618C 305.5578 419.7289 310.6915 414.5951 317.0244 414.5951z" /></clipPath><clipPath id="148"><path id="" clip-rule="evenodd" transform="matrix(1 0 0 1 0 0)" d="M305.4077 414.1715L333.9077 414.1715L333.9077 414.1715L333.9077 438.1715L333.9077 438.1715L305.4077 438.1715z" /></clipPath><clipPath id="149"><path id="" clip-rule="evenodd" transform="matrix(1 0 0 1 0 0)" d="M304.6633 411.1938L334.6633 411.1938L334.6633 411.1938L334.6633 441.1938L334.6633 441.1938L304.6633 441.1938z" /></clipPath><clipPath id="150"><path id="" clip-rule="evenodd" transform="matrix(1 0 0 1 0 0)" d="M0 -0.249939L595.5 -0.249939L595.5 -0.249939L595.5 842.0001L595.5 842.0001L0 842.0001z" /></clipPath><clipPath id="151"><path id="" clip-rule="evenodd" transform="matrix(1 0 0 1 0 0)" d="M0 -0.249939L595.5 -0.249939L595.5 -0.249939L595.5 842.0001L595.5 842.0001L0 842.0001z" /></clipPath><clipPath id="152"><path id="" clip-rule="evenodd" transform="matrix(1 0 0 1 0 0)" d="M304.6577 413.6951L334.6577 413.6951L334.6577 413.6951L334.6577 438.4451L334.6577 438.4451L304.6577 438.4451z" /></clipPath><clipPath id="153"><path id="" clip-rule="evenodd" transform="matrix(1 0 0 1 0 0)" d="M304.6577 426.0618C 304.6577 432.8917 310.1945 438.4284 317.0244 438.4284L317.0244 438.4284L322.0716 438.4284C 328.9015 438.4284 334.4382 432.8917 334.4382 426.0618C 334.4382 419.2318 328.9015 413.6951 322.0716 413.6951L322.0716 413.6951L317.0244 413.6951C 310.1945 413.6951 304.6577 419.2318 304.6577 426.0618z" /></clipPath><clipPath id="154"><path id="" clip-rule="evenodd" transform="matrix(1 0 0 1 0 0)" d="M304.6577 413.6951L334.6577 413.6951L334.6577 413.6951L334.6577 438.4451L334.6577 438.4451L304.6577 438.4451z" /></clipPath><clipPath id="155"><path id="" clip-rule="evenodd" transform="matrix(1 0 0 1 0 0)" d="M304.6577 413.6951L334.6546 413.6951L334.6546 413.6951L334.6546 438.4384L334.6546 438.4384L304.6577 438.4384z" /></clipPath><clipPath id="156"><path id="" clip-rule="evenodd" transform="matrix(1 0 0 1 0 0)" d="M304.6577 426.0584C 304.6577 432.8864 310.1939 438.4217 317.0231 438.4217L317.0231 438.4217L322.0698 438.4217C 328.899 438.4217 334.4351 432.8864 334.4351 426.0584C 334.4351 419.2303 328.899 413.6951 322.0698 413.6951L322.0698 413.6951L317.0231 413.6951C 310.1939 413.6951 304.6577 419.2303 304.6577 426.0584z" /></clipPath><clipPath id="157"><path id="" clip-rule="evenodd" transform="matrix(1 0 0 1 0 0)" d="M0 -0.249939L595.5 -0.249939L595.5 -0.249939L595.5 842.0001L595.5 842.0001L0 842.0001z" /></clipPath><clipPath id="158"><path id="" clip-rule="evenodd" transform="matrix(1 0 0 1 0 0)" d="M0 -0.249939L595.5 -0.249939L595.5 -0.249939L595.5 842.0001L595.5 842.0001L0 842.0001z" /></clipPath><clipPath id="159"><path id="" clip-rule="evenodd" transform="matrix(1 0 0 1 0 0)" d="M0 -0.249939L595.5 -0.249939L595.5 -0.249939L595.5 842.0001L595.5 842.0001L0 842.0001z" /></clipPath><clipPath id="160"><path id="" clip-rule="evenodd" transform="matrix(1 0 0 1 0 0)" d="M40.72852 535.5495L70.72852 535.5495L70.72852 535.5495L70.72852 560.2995L70.72852 560.2995L40.72852 560.2995z" /></clipPath><clipPath id="161"><path id="" clip-rule="evenodd" transform="matrix(1 0 0 1 0 0)" d="M40.72852 547.9161C 40.72852 554.7461 46.26525 560.2828 53.09516 560.2828L53.09516 560.2828L58.14235 560.2828C 64.97226 560.2828 70.509 554.7461 70.509 547.9161C 70.509 541.0863 64.97226 535.5495 58.14235 535.5495L58.14235 535.5495L53.09516 535.5495C 46.26525 535.5495 40.72852 541.0863 40.72852 547.9161z" /></clipPath><clipPath id="162"><path id="" clip-rule="evenodd" transform="matrix(1 0 0 1 0 0)" d="M41.47852 536.2995L69.97852 536.2995L69.97852 536.2995L69.97852 559.5495L69.97852 559.5495L41.47852 559.5495z" /></clipPath><clipPath id="163"><path id="" clip-rule="evenodd" transform="matrix(1 0 0 1 0 0)" d="M53.09516 536.4495L58.14235 536.4495C 64.4752 536.4495 69.60899 541.5833 69.60899 547.9161C 69.60899 554.249 64.4752 559.3828 58.14235 559.3828L58.14235 559.3828L53.09516 559.3828C 46.76231 559.3828 41.62851 554.249 41.62851 547.9161C 41.62851 541.5833 46.76231 536.4495 53.09516 536.4495z" /></clipPath><clipPath id="164"><path id="" clip-rule="evenodd" transform="matrix(1 0 0 1 0 0)" d="M41.47852 536.0259L69.97852 536.0259L69.97852 536.0259L69.97852 560.0259L69.97852 560.0259L41.47852 560.0259z" /></clipPath><clipPath id="165"><path id="" clip-rule="evenodd" transform="matrix(1 0 0 1 0 0)" d="M40.73408 533.0482L70.73408 533.0482L70.73408 533.0482L70.73408 563.0482L70.73408 563.0482L40.73408 563.0482z" /></clipPath><clipPath id="166"><path id="" clip-rule="evenodd" transform="matrix(1 0 0 1 0 0)" d="M0 -0.249939L595.5 -0.249939L595.5 -0.249939L595.5 842.0001L595.5 842.0001L0 842.0001z" /></clipPath><clipPath id="167"><path id="" clip-rule="evenodd" transform="matrix(1 0 0 1 0 0)" d="M0 -0.249939L595.5 -0.249939L595.5 -0.249939L595.5 842.0001L595.5 842.0001L0 842.0001z" /></clipPath><clipPath id="168"><path id="" clip-rule="evenodd" transform="matrix(1 0 0 1 0 0)" d="M40.72852 535.5495L70.72852 535.5495L70.72852 535.5495L70.72852 560.2995L70.72852 560.2995L40.72852 560.2995z" /></clipPath><clipPath id="169"><path id="" clip-rule="evenodd" transform="matrix(1 0 0 1 0 0)" d="M40.72852 547.9161C 40.72852 554.7461 46.26525 560.2828 53.09516 560.2828L53.09516 560.2828L58.14235 560.2828C 64.97226 560.2828 70.509 554.7461 70.509 547.9161C 70.509 541.0863 64.97226 535.5495 58.14235 535.5495L58.14235 535.5495L53.09516 535.5495C 46.26525 535.5495 40.72852 541.0863 40.72852 547.9161z" /></clipPath><clipPath id="170"><path id="" clip-rule="evenodd" transform="matrix(1 0 0 1 0 0)" d="M40.72852 535.5495L70.72852 535.5495L70.72852 535.5495L70.72852 560.2995L70.72852 560.2995L40.72852 560.2995z" /></clipPath><clipPath id="171"><path id="" clip-rule="evenodd" transform="matrix(1 0 0 1 0 0)" d="M40.72852 535.5495L70.72536 535.5495L70.72536 535.5495L70.72536 560.2928L70.72536 560.2928L40.72852 560.2928z" /></clipPath><clipPath id="172"><path id="" clip-rule="evenodd" transform="matrix(1 0 0 1 0 0)" d="M40.72852 547.9128C 40.72852 554.7408 46.26467 560.2761 53.09386 560.2761L53.09386 560.2761L58.14052 560.2761C 64.96971 560.2761 70.50586 554.7408 70.50586 547.9128C 70.50586 541.0848 64.96971 535.5495 58.14052 535.5495L58.14052 535.5495L53.09386 535.5495C 46.26467 535.5495 40.72852 541.0848 40.72852 547.9128z" /></clipPath><clipPath id="173"><path id="" clip-rule="evenodd" transform="matrix(1 0 0 1 0 0)" d="M0 -0.249939L595.5 -0.249939L595.5 -0.249939L595.5 842.0001L595.5 842.0001L0 842.0001z" /></clipPath><clipPath id="174"><path id="" clip-rule="evenodd" transform="matrix(1 0 0 1 0 0)" d="M0 -0.249939L595.5 -0.249939L595.5 -0.249939L595.5 842.0001L595.5 842.0001L0 842.0001z" /></clipPath><clipPath id="175"><path id="" clip-rule="evenodd" transform="matrix(1 0 0 1 0 0)" d="M0 -0.249939L595.5 -0.249939L595.5 -0.249939L595.5 842.0001L595.5 842.0001L0 842.0001z" /></clipPath><clipPath id="176"><path id="" clip-rule="evenodd" transform="matrix(1 0 0 1 0 0)" d="M252.9647 676.4219L282.9648 676.4219L282.9648 676.4219L282.9648 701.1719L282.9648 701.1719L252.9647 701.1719z" /></clipPath><clipPath id="177"><path id="" clip-rule="evenodd" transform="matrix(1 0 0 1 0 0)" d="M252.9647 688.7885C 252.9647 695.6185 258.5015 701.1552 265.3314 701.1552L265.3314 701.1552L270.3786 701.1552C 277.2085 701.1552 282.7452 695.6185 282.7452 688.7885C 282.7452 681.9587 277.2085 676.4219 270.3786 676.4219L270.3786 676.4219L265.3314 676.4219C 258.5015 676.4219 252.9647 681.9587 252.9647 688.7885z" /></clipPath><clipPath id="178"><path id="" clip-rule="evenodd" transform="matrix(1 0 0 1 0 0)" d="M253.7147 677.1719L282.2148 677.1719L282.2148 677.1719L282.2148 700.4219L282.2148 700.4219L253.7147 700.4219z" /></clipPath><clipPath id="179"><path id="" clip-rule="evenodd" transform="matrix(1 0 0 1 0 0)" d="M265.3314 677.3219L270.3786 677.3219C 276.7114 677.3219 281.8452 682.4557 281.8452 688.7885C 281.8452 695.1214 276.7114 700.2552 270.3786 700.2552L270.3786 700.2552L265.3314 700.2552C 258.9985 700.2552 253.8647 695.1214 253.8647 688.7885C 253.8647 682.4557 258.9985 677.3219 265.3314 677.3219z" /></clipPath><clipPath id="180"><path id="" clip-rule="evenodd" transform="matrix(1 0 0 1 0 0)" d="M253.7147 676.8983L282.2148 676.8983L282.2148 676.8983L282.2148 700.8983L282.2148 700.8983L253.7147 700.8983z" /></clipPath><clipPath id="181"><path id="" clip-rule="evenodd" transform="matrix(1 0 0 1 0 0)" d="M252.9703 673.9205L282.9703 673.9205L282.9703 673.9205L282.9703 703.9205L282.9703 703.9205L252.9703 703.9205z" /></clipPath><clipPath id="182"><path id="" clip-rule="evenodd" transform="matrix(1 0 0 1 0 0)" d="M0 -0.249939L595.5 -0.249939L595.5 -0.249939L595.5 842.0001L595.5 842.0001L0 842.0001z" /></clipPath><clipPath id="183"><path id="" clip-rule="evenodd" transform="matrix(1 0 0 1 0 0)" d="M0 -0.249939L595.5 -0.249939L595.5 -0.249939L595.5 842.0001L595.5 842.0001L0 842.0001z" /></clipPath><clipPath id="184"><path id="" clip-rule="evenodd" transform="matrix(1 0 0 1 0 0)" d="M252.9647 676.4219L282.9648 676.4219L282.9648 676.4219L282.9648 701.1719L282.9648 701.1719L252.9647 701.1719z" /></clipPath><clipPath id="185"><path id="" clip-rule="evenodd" transform="matrix(1 0 0 1 0 0)" d="M252.9647 688.7885C 252.9647 695.6185 258.5015 701.1552 265.3314 701.1552L265.3314 701.1552L270.3786 701.1552C 277.2085 701.1552 282.7452 695.6185 282.7452 688.7885C 282.7452 681.9587 277.2085 676.4219 270.3786 676.4219L270.3786 676.4219L265.3314 676.4219C 258.5015 676.4219 252.9647 681.9587 252.9647 688.7885z" /></clipPath><clipPath id="186"><path id="" clip-rule="evenodd" transform="matrix(1 0 0 1 0 0)" d="M252.9647 676.4219L282.9648 676.4219L282.9648 676.4219L282.9648 701.1719L282.9648 701.1719L252.9647 701.1719z" /></clipPath><clipPath id="187"><path id="" clip-rule="evenodd" transform="matrix(1 0 0 1 0 0)" d="M252.9647 676.4219L282.9616 676.4219L282.9616 676.4219L282.9616 701.1652L282.9616 701.1652L252.9647 701.1652z" /></clipPath><clipPath id="188"><path id="" clip-rule="evenodd" transform="matrix(1 0 0 1 0 0)" d="M252.9647 688.7852C 252.9647 695.6132 258.5009 701.1484 265.3301 701.1484L265.3301 701.1484L270.3767 701.1484C 277.2059 701.1484 282.7421 695.6132 282.7421 688.7852C 282.7421 681.9572 277.2059 676.4219 270.3767 676.4219L270.3767 676.4219L265.3301 676.4219C 258.5009 676.4219 252.9647 681.9572 252.9647 688.7852z" /></clipPath><clipPath id="189"><path id="" clip-rule="evenodd" transform="matrix(1 0 0 1 0 0)" d="M0 -0.249939L595.5 -0.249939L595.5 -0.249939L595.5 842.0001L595.5 842.0001L0 842.0001z" /></clipPath><clipPath id="190"><path id="" clip-rule="evenodd" transform="matrix(1 0 0 1 0 0)" d="M384.2188 -0.249939L458.4688 -0.249939L458.4688 -0.249939L458.4688 59.3631L458.4688 59.3631L384.2188 59.3631z" /></clipPath></defs><g transform="matrix(1.333333 0 0 1.333333 0 0)"><g clip-path="url(#1)"><g clip-path="url(#2)"><path id="1" transform="matrix(1 0 0 -1 0 842)" d="M0 842.2499L595.4999 842.2499L595.4999 -6.103516E-05L0 -6.103516E-05z" stroke="none" fill="#FFFFFF" fill-rule="nonzero" /></g><g clip-path="url(#3)"><path id="2" transform="matrix(1 0 0 -1 0 842)" d="M0 842.2499L595.4999 842.2499L595.4999 -6.103516E-05L0 -6.103516E-05z" stroke="none" fill="#FFFFFF" fill-rule="nonzero" /></g><g clip-path="url(#4)"><g><g clip-path="url(#5)"><g clip-path="url(#6)"><g transform="matrix(0 0.5128205 -0.5127462 0 522.0178 30.75189)"><g transform="matrix(1 0 0 1 0 0)"><image x="0" y="0" xlink:href="img_01.png" width="1521" height="863" /></g></g></g></g></g></g><g clip-path="url(#7)"><g transform="matrix(0.6321428 0 0 0.6317114 3.41925 500.5386)"><g transform="matrix(1 0 0 1 0 0)"><image x="0" y="0" xlink:href="img_02.png" width="560" height="298" /></g></g></g><g clip-path="url(#8)"></g><g clip-path="url(#9)"><g clip-path="url(#10)"><g clip-path="url(#11)"><g clip-path="url(#12)"><g clip-path="url(#13)"><g transform="matrix(0.3194652 0 0 0.3190148 421.4176 533.3308)"><g transform="matrix(1 0 0 1 0 0)"><image x="0" y="0" xlink:href="img_03.png" width="300" height="399" /></g></g></g></g></g></g></g><g clip-path="url(#14)"><g clip-path="url(#15)"><g clip-path="url(#16)"><g clip-path="url(#17)"><g clip-path="url(#18)"><path id="172" transform="matrix(1 0 0 -1 0 842)" d="M434.1679 307.431L504.5032 307.431C 507.8845 307.431 511.1273 306.0877 513.5183 303.6968C 515.9092 301.3058 517.2524 298.063 517.2524 294.6817L517.2524 294.6817L517.2524 195.2935C 517.2524 191.9122 515.9092 188.6694 513.5183 186.2784C 511.1273 183.8875 507.8845 182.5443 504.5032 182.5443L504.5032 182.5443L434.1679 182.5443C 430.7866 182.5443 427.5438 183.8875 425.1528 186.2784C 422.7619 188.6694 421.4186 191.9122 421.4186 195.2935L421.4186 195.2935L421.4186 294.6817C 421.4186 298.063 422.7619 301.3058 425.1528 303.6968C 427.5438 306.0877 430.7866 307.431 434.1679 307.431z" stroke="#D9D9D9" stroke-width="6" fill="none" /></g></g></g></g></g><g clip-path="url(#19)"><g clip-path="url(#20)"><g clip-path="url(#21)"><g clip-path="url(#22)"><g clip-path="url(#23)"><path id="173" transform="matrix(1 0 0 -1 0 842)" d="M386.3307 222.1506C 391.857 220.8449 397.53 220.3763 403.1807 220.8097C 395.2203 211.2778 384.9514 203.666 373.556 198.6035C 361.6738 193.3214 348.2983 190.5724 335.2643 191.575C 328.2005 192.1196 320.8036 193.9955 315.861 199.3353C 315.211 200.0366 313.3293 199.8948 314.3212 198.8231C 318.8417 193.9407 325.2846 191.5082 331.7797 190.497C 338.4742 189.4541 345.436 189.683 352.1317 190.6103C 365.7098 192.4899 378.778 197.7136 389.9051 205.6362C 395.3219 209.4925 400.2372 213.998 404.5389 219.0346C 404.7499 211.8818 406.139 204.7926 408.661 198.0772C 408.8471 197.5845 409.398 197.2321 409.9166 197.1706C 410.2926 197.1258 410.8857 197.2972 410.6972 197.7997C 407.8768 205.3027 406.488 213.2396 406.6048 221.2464C 406.6061 221.3413 406.5815 221.435 406.5372 221.5237C 406.6925 222.1064 405.3785 222.696 404.9653 222.6441C 398.769 221.844 392.4716 222.1259 386.3934 223.5626C 384.9537 223.903 385.1923 222.4208 386.3307 222.1506z" stroke="none" fill="#000000" fill-rule="nonzero" /></g></g></g></g></g><g clip-path="url(#24)"><g transform="matrix(0.5410714 0 0 0.5385906 281.2125 383.7554)"><g transform="matrix(1 0 0 1 0 0)"><image x="0" y="0" xlink:href="img_02.png" width="560" height="298" /></g></g></g><g clip-path="url(#25)"></g><g clip-path="url(#26)"><g clip-path="url(#27)"><g clip-path="url(#28)"><g clip-path="url(#29)"><g clip-path="url(#30)"><g transform="matrix(0.3707797 0 0 0.3713622 90.18169 341.4919)"><g transform="matrix(1 0 0 1 0 0)"><image x="0" y="0" xlink:href="img_04.png" width="400" height="804" /></g></g></g></g></g></g></g><g clip-path="url(#31)"><g clip-path="url(#32)"><g clip-path="url(#33)"><g clip-path="url(#34)"><g clip-path="url(#35)"><path id="317" transform="matrix(1 0 0 -1 0 842)" d="M103.2232 440.4413L225.9554 440.4413C 229.3367 440.4413 232.5795 439.0981 234.9704 436.7072C 237.3613 434.3163 238.7045 431.0735 238.7045 427.6922L238.7045 427.6922L238.7045 328.3046C 238.7045 324.9233 237.3613 321.6805 234.9704 319.2896C 232.5795 316.8987 229.3367 315.5555 225.9554 315.5555L225.9554 315.5555L103.2232 315.5555C 99.84195 315.5555 96.59916 316.8987 94.20823 319.2896C 91.8173 321.6805 90.47409 324.9233 90.47409 328.3046L90.47409 328.3046L90.47409 427.6922C 90.47409 431.0735 91.8173 434.3163 94.20823 436.7072C 96.59916 439.0981 99.84195 440.4413 103.2232 440.4413z" stroke="#D8D4D3" stroke-width="6" fill="none" /></g></g></g></g></g><g clip-path="url(#36)"><g clip-path="url(#37)"><g clip-path="url(#38)"><g clip-path="url(#39)"><g clip-path="url(#40)"><path id="318" transform="matrix(1 0 0 -1 0 842)" d="M230.8844 354.3763C 225.5125 352.5358 219.9127 351.5141 214.2467 351.3922C 223.1019 342.6855 234.0667 336.1156 245.903 332.1929C 258.2452 328.0995 271.8257 326.6732 284.6989 328.947C 291.6754 330.1805 298.8531 332.7715 303.2493 338.5696C 303.8275 339.3311 305.714 339.3743 304.8318 338.2106C 300.8109 332.9091 294.6371 329.8575 288.2723 328.2153C 281.7121 326.522 274.7613 326.0683 268.007 326.3356C 254.3101 326.8769 240.7932 330.7961 228.9439 337.5913C 223.1756 340.8988 217.8428 344.9014 213.0688 349.4927C 213.559 342.3535 212.8706 335.1625 211.0182 328.2325C 210.8812 327.7238 210.3675 327.3192 209.8573 327.2072C 209.4876 327.1259 208.8805 327.2383 209.0189 327.7569C 211.0912 335.5 211.6963 343.5347 210.7962 351.4916C 210.7856 351.586 210.8009 351.6816 210.8363 351.7742C 210.6247 352.3389 211.8747 353.0543 212.291 353.0431C 218.5359 352.8535 224.7754 353.7505 230.6838 355.7754C 232.0833 356.2551 231.9909 354.7567 230.8844 354.3763z" stroke="none" fill="#000000" fill-rule="nonzero" /></g></g></g></g></g><g clip-path="url(#41)"><g transform="matrix(0.6241071 0 0 0.6216442 -4.263256E-14 243.3779)"><g transform="matrix(1 0 0 1 0 0)"><image x="0" y="0" xlink:href="img_02.png" width="560" height="298" /></g></g></g><g clip-path="url(#42)"></g><g clip-path="url(#43)"><g clip-path="url(#44)"><g clip-path="url(#45)"><g clip-path="url(#46)"><g clip-path="url(#47)"><g transform="matrix(0.3707797 0 0 0.3708996 417.9016 248.6844)"><g transform="matrix(1 0 0 1 0 0)"><image x="0" y="0" xlink:href="img_05.png" width="400" height="488" /></g></g></g></g></g></g></g><g clip-path="url(#48)"><g clip-path="url(#49)"><g clip-path="url(#50)"><g clip-path="url(#51)"><g clip-path="url(#52)"><path id="535" transform="matrix(1 0 0 -1 0 842)" d="M430.6507 565.3356L553.3829 565.3356C 556.7642 565.3356 560.007 563.9924 562.3979 561.6014C 564.7888 559.2105 566.132 555.9677 566.132 552.5864L566.132 552.5864L566.132 453.1989C 566.132 449.8176 564.7888 446.5748 562.3979 444.1839C 560.007 441.7929 556.7642 440.4497 553.3829 440.4497L553.3829 440.4497L430.6507 440.4497C 427.2694 440.4497 424.0266 441.7929 421.6357 444.1839C 419.2448 446.5748 417.9016 449.8176 417.9016 453.1989L417.9016 453.1989L417.9016 552.5864C 417.9016 555.9677 419.2448 559.2105 421.6357 561.6014C 424.0266 563.9924 427.2694 565.3356 430.6507 565.3356z" stroke="#D9D9D9" stroke-width="6" fill="none" /></g></g></g></g></g><g clip-path="url(#53)"><g clip-path="url(#54)"><g clip-path="url(#55)"><g clip-path="url(#56)"><g clip-path="url(#57)"><path id="536" transform="matrix(1 0 0 -1 0 842)" d="M393.3929 490.8885C 398.9191 489.5828 404.592 489.1142 410.2428 489.5475C 402.2824 480.0157 392.0135 472.4039 380.6181 467.3414C 368.7359 462.0593 355.3604 459.3103 342.3264 460.3128C 335.2626 460.8575 327.8658 462.7334 322.9231 468.0732C 322.2731 468.7744 320.3914 468.6327 321.3833 467.5609C 325.9038 462.6786 332.3467 460.246 338.8418 459.2349C 345.5363 458.192 352.4981 458.4209 359.1938 459.3482C 372.7719 461.2278 385.8401 466.4515 396.9672 474.3741C 402.384 478.2304 407.2993 482.7359 411.601 487.7725C 411.812 480.6196 413.2012 473.5305 415.7231 466.8151C 415.9092 466.3223 416.4601 465.97 416.9788 465.9085C 417.3547 465.8637 417.9478 466.0351 417.7593 466.5376C 414.9389 474.0406 413.5501 481.9775 413.6669 489.9843C 413.6682 490.0792 413.6437 490.1729 413.5993 490.2616C 413.7546 490.8442 412.4406 491.4338 412.0274 491.382C 405.8311 490.5819 399.5338 490.8638 393.4555 492.3005C 392.0158 492.6409 392.2544 491.1587 393.3929 490.8885z" stroke="none" fill="#000000" fill-rule="nonzero" /></g></g></g></g></g><g clip-path="url(#58)"></g><g clip-path="url(#59)"><g transform="matrix(0.6026785 0 0 0.60151 267.855 120.563)"><g transform="matrix(1 0 0 1 0 0)"><image x="0" y="0" xlink:href="img_02.png" width="560" height="298" /></g></g></g><g clip-path="url(#60)"><g clip-path="url(#61)"><g clip-path="url(#62)"><g clip-path="url(#63)"><g clip-path="url(#64)"><g transform="matrix(0.3707797 0 0 0.3698674 59.52755 117.1992)"><g transform="matrix(1 0 0 1 0 0)"><image x="0" y="0" xlink:href="img_06.png" width="400" height="492" /></g></g></g></g></g></g></g><g clip-path="url(#65)"><g clip-path="url(#66)"><g clip-path="url(#67)"><g clip-path="url(#68)"><g clip-path="url(#69)"><path id="562" transform="matrix(1 0 0 -1 0 842)" d="M72.2767 713.0737L195.0089 713.0737C 198.3902 713.0737 201.6329 711.7305 204.0239 709.3395C 206.4148 706.9486 207.758 703.7058 207.758 700.3245L207.758 700.3245L207.758 600.937C 207.758 597.5557 206.4148 594.3129 204.0239 591.9219C 201.6329 589.531 198.3902 588.1878 195.0089 588.1878L195.0089 588.1878L72.2767 588.1878C 68.89542 588.1878 65.65262 589.531 63.26169 591.9219C 60.87076 594.3129 59.52755 597.5557 59.52755 600.937L59.52755 600.937L59.52755 700.3245C 59.52755 703.7058 60.87076 706.9486 63.26169 709.3395C 65.65262 711.7305 68.89542 713.0737 72.2767 713.0737z" stroke="#D9D9D9" stroke-width="6" fill="none" /></g></g></g></g></g><g clip-path="url(#70)"><g clip-path="url(#71)"><g clip-path="url(#72)"><g clip-path="url(#73)"><g clip-path="url(#74)"><path id="563" transform="matrix(1 0 0 -1 0 842)" d="M250.7359 616.6324C 245.364 614.792 239.7642 613.7703 234.0982 613.6483C 242.9534 604.9416 253.9182 598.3717 265.7545 594.4491C 278.0967 590.3556 291.6772 588.9293 304.5504 591.2031C 311.5269 592.4366 318.7046 595.0277 323.1008 600.8257C 323.679 601.5873 325.5655 601.6304 324.6833 600.4667C 320.6624 595.1653 314.4886 592.1136 308.1238 590.4714C 301.5636 588.7781 294.6128 588.3245 287.8585 588.5918C 274.1616 589.133 260.6447 593.0522 248.7954 599.8475C 243.0271 603.1549 237.6943 607.1576 232.9203 611.7488C 233.4105 604.6097 232.7221 597.4186 230.8697 590.4886C 230.7327 589.98 230.219 589.5753 229.7088 589.4634C 229.3391 589.382 228.732 589.4945 228.8704 590.0131C 230.9427 597.7562 231.5478 605.7909 230.6477 613.7478C 230.6371 613.8421 230.6524 613.9377 230.6878 614.0303C 230.4762 614.595 231.7262 615.3104 232.1425 615.2992C 238.3874 615.1096 244.6269 616.0067 250.5353 618.0316C 251.9348 618.5112 251.8424 617.0128 250.7359 616.6324z" stroke="none" fill="#000000" fill-rule="nonzero" /></g></g></g></g></g><g clip-path="url(#75)"></g><g clip-path="url(#76)"><g transform="matrix(0.6147321 0 0 0.6140939 238.7145 642.8443)"><g transform="matrix(1 0 0 1 0 0)"><image x="0" y="0" xlink:href="img_02.png" width="560" height="298" /></g></g></g><g clip-path="url(#77)"><g clip-path="url(#78)"><g clip-path="url(#79)"><g clip-path="url(#80)"><g clip-path="url(#81)"><g transform="matrix(0.3793213 0 0 0.377995 76.826 674.2025)"><g transform="matrix(1 0 0 1 0 0)"><image x="0" y="0" xlink:href="img_07.png" width="300" height="330" /></g></g></g></g></g></g></g><g clip-path="url(#82)"><g clip-path="url(#83)"><g clip-path="url(#84)"><g clip-path="url(#85)"><g clip-path="url(#86)"><path id="716" transform="matrix(1 0 0 -1 0 842)" d="M90.37616 167.7976L176.9166 167.7976C 180.2979 167.7976 183.5408 166.4543 185.9317 164.0634C 188.3226 161.6725 189.6659 158.4296 189.6659 155.0483L189.6659 155.0483L189.6659 55.66008C 189.6659 52.27877 188.3226 49.03595 185.9317 46.645C 183.5408 44.25406 180.2979 42.91084 176.9166 42.91084L176.9166 42.91084L90.37616 42.91084C 86.99485 42.91084 83.75203 44.25406 81.36108 46.645C 78.97014 49.03595 77.62692 52.27877 77.62692 55.66008L77.62692 55.66008L77.62692 155.0483C 77.62692 158.4296 78.97014 161.6725 81.36108 164.0634C 83.75203 166.4543 86.99485 167.7976 90.37616 167.7976z" stroke="#D8D4D3" stroke-width="6" fill="none" /></g></g></g></g></g><g clip-path="url(#87)"></g><g clip-path="url(#88)"><g clip-path="url(#89)"><g clip-path="url(#90)"><g clip-path="url(#91)"><g clip-path="url(#92)"><path id="888" transform="matrix(1 0 0 -1 0 842)" d="M182.8904 91.41272C 177.5186 89.57224 171.9187 88.55052 166.2527 88.4286C 175.108 79.72187 186.0728 73.15201 197.909 69.22935C 210.2513 65.13589 223.8317 63.70961 236.7049 65.98338C 243.6814 67.2169 250.8591 69.80797 255.2553 75.60604C 255.8335 76.36753 257.72 76.4107 256.8378 75.24699C 252.817 69.94553 246.6432 66.8939 240.2783 65.2517C 233.7181 63.55842 226.7673 63.10472 220.013 63.37205C 206.3161 63.91327 192.7992 67.83251 180.95 74.62772C 175.1816 77.93518 169.8489 81.93784 165.0748 86.52913C 165.565 79.38997 164.8766 72.19891 163.0242 65.26887C 162.8873 64.76023 162.3735 64.35562 161.8634 64.24364C 161.4936 64.16226 160.8865 64.27475 161.025 64.79334C 163.0973 72.53645 163.7023 80.57115 162.8023 88.52805C 162.7916 88.62238 162.8069 88.71798 162.8424 88.81062C 162.6308 89.37527 163.8808 90.09068 164.297 90.07948C 170.5419 89.88992 176.7814 90.78692 182.6898 92.81181C 184.0893 93.2915 183.9969 91.79307 182.8904 91.41272z" stroke="none" fill="#000000" fill-rule="nonzero" /></g></g></g></g></g><g clip-path="url(#93)"><g transform="matrix(0.06656805 0 0 0.06691772 481.6858 13.96661)"><g transform="matrix(1 0 0 1 0 0)"><image x="0" y="0" xlink:href="img_08.png" width="1521" height="863" /></g></g></g><g clip-path="url(#94)"><g clip-path="url(#95)"><g clip-path="url(#96)"><g clip-path="url(#97)"><g clip-path="url(#98)"><g clip-path="url(#99)"><g clip-path="url(#100)"><g clip-path="url(#101)"><path id="890" transform="matrix(1 0 0 -1 0 842)" d="M45.82209 802.1201C 37.26433 802.1201 30.30485 795.1606 30.30485 786.6029C 30.30485 778.0452 37.26433 771.0857 45.82209 771.0857C 54.37984 771.0857 61.33932 778.0452 61.33932 786.6029C 61.33932 795.1606 54.37984 802.1201 45.82209 802.1201zM45.82209 770.8529C 37.14019 770.8529 30.07209 777.921 30.07209 786.6029C 30.07209 795.2848 37.14019 802.3529 45.82209 802.3529C 54.50398 802.3529 61.57208 795.2848 61.57208 786.6029C 61.57208 777.921 54.50398 770.8529 45.82209 770.8529z" stroke="none" fill="#000000" fill-rule="nonzero" /></g></g></g></g></g></g></g></g><g clip-path="url(#102)"><g clip-path="url(#103)"><g clip-path="url(#104)"><g clip-path="url(#105)"><g clip-path="url(#106)"><g clip-path="url(#107)"><g clip-path="url(#108)"><path id="891" transform="matrix(1 0 0 -1 0 842)" d="M30.08009 786.4568L30.08009 786.4543C 30.08009 782.2402 31.75427 778.1987 34.73434 775.2188C 37.71441 772.239 41.75626 770.5649 45.97071 770.5649C 50.18517 770.5649 54.22701 772.239 57.20708 775.2188C 60.18715 778.1987 61.86134 782.2402 61.86134 786.4543L61.86134 786.4543L61.86134 786.4568C 61.86134 790.671 60.18715 794.7125 57.20708 797.6923C 54.22701 800.6721 50.18517 802.3462 45.97071 802.3462C 41.75626 802.3462 37.71441 800.6721 34.73434 797.6923C 31.75427 794.7125 30.08009 790.671 30.08009 786.4568z" stroke="#000000" stroke-width="1.5" fill="none" /></g></g></g></g></g></g></g><g clip-path="url(#109)"></g><g clip-path="url(#110)"><g clip-path="url(#111)"><g clip-path="url(#112)"><g clip-path="url(#113)"><g clip-path="url(#114)"><g clip-path="url(#115)"><g clip-path="url(#116)"><g clip-path="url(#117)"><path id="893" transform="matrix(1 0 0 -1 0 842)" d="M304.773 680.1648C 296.6228 680.1648 289.9947 673.5367 289.9947 665.3865C 289.9947 657.2362 296.6228 650.6082 304.773 650.6082C 312.9233 650.6082 319.5514 657.2362 319.5514 665.3865C 319.5514 673.5367 312.9233 680.1648 304.773 680.1648zM304.773 650.3865C 296.5046 650.3865 289.773 657.118 289.773 665.3865C 289.773 673.655 296.5046 680.3865 304.773 680.3865C 313.0415 680.3865 319.773 673.655 319.773 665.3865C 319.773 657.118 313.0415 650.3865 304.773 650.3865z" stroke="none" fill="#000000" fill-rule="nonzero" /></g></g></g></g></g></g></g></g><g clip-path="url(#118)"><g clip-path="url(#119)"><g clip-path="url(#120)"><g clip-path="url(#121)"><g clip-path="url(#122)"><g clip-path="url(#123)"><g clip-path="url(#124)"><path id="894" transform="matrix(1 0 0 -1 0 842)" d="M289.7675 665.5219C 289.7675 658.6938 295.3036 653.1586 302.1328 653.1586L302.1328 653.1586L307.1795 653.1586C 314.0087 653.1586 319.5448 658.6938 319.5448 665.5219C 319.5448 672.3499 314.0087 677.8851 307.1795 677.8851L307.1795 677.8851L302.1328 677.8851C 295.3036 677.8851 289.7675 672.3499 289.7675 665.5219z" stroke="#000000" stroke-width="1.5" fill="none" /></g></g></g></g></g></g></g><g clip-path="url(#125)"></g><g clip-path="url(#126)"><g clip-path="url(#127)"><g clip-path="url(#128)"><g clip-path="url(#129)"><g clip-path="url(#130)"><g clip-path="url(#131)"><g clip-path="url(#132)"><g clip-path="url(#133)"><path id="896" transform="matrix(1 0 0 -1 0 842)" d="M30.19541 567.6157C 22.04516 567.6157 15.41709 560.9876 15.41709 552.8373C 15.41709 544.6871 22.04516 538.059 30.19541 538.059C 38.34565 538.059 44.97373 544.6871 44.97373 552.8373C 44.97373 560.9876 38.34565 567.6157 30.19541 567.6157zM30.19541 537.8373C 21.92694 537.8373 15.19541 544.5688 15.19541 552.8373C 15.19541 561.1058 21.92694 567.8373 30.19541 567.8373C 38.46388 567.8373 45.19541 561.1058 45.19541 552.8373C 45.19541 544.5688 38.46388 537.8373 30.19541 537.8373z" stroke="none" fill="#000000" fill-rule="nonzero" /></g></g></g></g></g></g></g></g><g clip-path="url(#134)"><g clip-path="url(#135)"><g clip-path="url(#136)"><g clip-path="url(#137)"><g clip-path="url(#138)"><g clip-path="url(#139)"><g clip-path="url(#140)"><path id="897" transform="matrix(1 0 0 -1 0 842)" d="M15.18984 552.9727C 15.18984 546.1447 20.726 540.6094 27.55519 540.6094L27.55519 540.6094L32.60184 540.6094C 39.43103 540.6094 44.96719 546.1447 44.96719 552.9727C 44.96719 559.8008 39.43103 565.336 32.60184 565.336L32.60184 565.336L27.55519 565.336C 20.726 565.336 15.18984 559.8008 15.18984 552.9727z" stroke="#000000" stroke-width="1.5" fill="none" /></g></g></g></g></g></g></g><g clip-path="url(#141)"></g><g clip-path="url(#142)"><g clip-path="url(#143)"><g clip-path="url(#144)"><g clip-path="url(#145)"><g clip-path="url(#146)"><g clip-path="url(#147)"><g clip-path="url(#148)"><g clip-path="url(#149)"><path id="899" transform="matrix(1 0 0 -1 0 842)" d="M319.6633 430.5845C 311.5131 430.5845 304.885 423.9565 304.885 415.8062C 304.885 407.656 311.5131 401.0279 319.6633 401.0279C 327.8135 401.0279 334.4416 407.656 334.4416 415.8062C 334.4416 423.9565 327.8135 430.5845 319.6633 430.5845zM319.6633 400.8062C 311.3948 400.8062 304.6633 407.5378 304.6633 415.8062C 304.6633 424.0747 311.3948 430.8062 319.6633 430.8062C 327.9318 430.8062 334.6633 424.0747 334.6633 415.8062C 334.6633 407.5378 327.9318 400.8062 319.6633 400.8062z" stroke="none" fill="#000000" fill-rule="nonzero" /></g></g></g></g></g></g></g></g><g clip-path="url(#150)"><g clip-path="url(#151)"><g clip-path="url(#152)"><g clip-path="url(#153)"><g clip-path="url(#154)"><g clip-path="url(#155)"><g clip-path="url(#156)"><path id="900" transform="matrix(1 0 0 -1 0 842)" d="M304.6577 415.9416C 304.6577 409.1135 310.1939 403.5783 317.0231 403.5783L317.0231 403.5783L322.0697 403.5783C 328.8989 403.5783 334.4351 409.1135 334.4351 415.9416C 334.4351 422.7697 328.8989 428.3049 322.0697 428.3049L322.0697 428.3049L317.0231 428.3049C 310.1939 428.3049 304.6577 422.7697 304.6577 415.9416z" stroke="#000000" stroke-width="1.5" fill="none" /></g></g></g></g></g></g></g><g clip-path="url(#157)"></g><g clip-path="url(#158)"><g clip-path="url(#159)"><g clip-path="url(#160)"><g clip-path="url(#161)"><g clip-path="url(#162)"><g clip-path="url(#163)"><g clip-path="url(#164)"><g clip-path="url(#165)"><path id="902" transform="matrix(1 0 0 -1 0 842)" d="M55.73408 308.7302C 47.58383 308.7302 40.95575 302.1021 40.95575 293.9518C 40.95575 285.8016 47.58383 279.1735 55.73408 279.1735C 63.88432 279.1735 70.5124 285.8016 70.5124 293.9518C 70.5124 302.1021 63.88432 308.7302 55.73408 308.7302zM55.73408 278.9518C 47.4656 278.9518 40.73408 285.6834 40.73408 293.9518C 40.73408 302.2203 47.4656 308.9518 55.73408 308.9518C 64.00255 308.9518 70.73407 302.2203 70.73407 293.9518C 70.73407 285.6834 64.00255 278.9518 55.73408 278.9518z" stroke="none" fill="#000000" fill-rule="nonzero" /></g></g></g></g></g></g></g></g><g clip-path="url(#166)"><g clip-path="url(#167)"><g clip-path="url(#168)"><g clip-path="url(#169)"><g clip-path="url(#170)"><g clip-path="url(#171)"><g clip-path="url(#172)"><path id="903" transform="matrix(1 0 0 -1 0 842)" d="M40.72851 294.0872C 40.72851 287.2591 46.26466 281.7239 53.09385 281.7239L53.09385 281.7239L58.14051 281.7239C 64.9697 281.7239 70.50585 287.2591 70.50585 294.0872C 70.50585 300.9153 64.9697 306.4505 58.14051 306.4505L58.14051 306.4505L53.09385 306.4505C 46.26466 306.4505 40.72851 300.9153 40.72851 294.0872z" stroke="#000000" stroke-width="1.5" fill="none" /></g></g></g></g></g></g></g><g clip-path="url(#173)"></g><g clip-path="url(#174)"><g clip-path="url(#175)"><g clip-path="url(#176)"><g clip-path="url(#177)"><g clip-path="url(#178)"><g clip-path="url(#179)"><g clip-path="url(#180)"><g clip-path="url(#181)"><path id="905" transform="matrix(1 0 0 -1 0 842)" d="M267.9703 167.8578C 259.8201 167.8578 253.192 161.2297 253.192 153.0795C 253.192 144.9292 259.8201 138.3011 267.9703 138.3011C 276.1205 138.3011 282.7486 144.9292 282.7486 153.0795C 282.7486 161.2297 276.1205 167.8578 267.9703 167.8578zM267.9703 138.0795C 259.7018 138.0795 252.9703 144.811 252.9703 153.0795C 252.9703 161.3479 259.7018 168.0795 267.9703 168.0795C 276.2388 168.0795 282.9703 161.3479 282.9703 153.0795C 282.9703 144.811 276.2388 138.0795 267.9703 138.0795z" stroke="none" fill="#000000" fill-rule="nonzero" /></g></g></g></g></g></g></g></g><g clip-path="url(#182)"><g clip-path="url(#183)"><g clip-path="url(#184)"><g clip-path="url(#185)"><g clip-path="url(#186)"><g clip-path="url(#187)"><g clip-path="url(#188)"><path id="906" transform="matrix(1 0 0 -1 0 842)" d="M252.9647 153.2148C 252.9647 146.3868 258.5009 140.8515 265.3301 140.8515L265.3301 140.8515L270.3767 140.8515C 277.2059 140.8515 282.7421 146.3868 282.7421 153.2148C 282.7421 160.0429 277.2059 165.5781 270.3767 165.5781L270.3767 165.5781L265.3301 165.5781C 258.5009 165.5781 252.9647 160.0429 252.9647 153.2148z" stroke="#000000" stroke-width="1.5" fill="none" /></g></g></g></g></g></g></g><g clip-path="url(#189)"></g><g clip-path="url(#190)"><g transform="matrix(0 -0.242565 0.2402913 0 384.2188 59.36316)"><g transform="matrix(1 0 0 1 0 0)"><image x="0" y="0" xlink:href="img_09.png" width="269" height="309" /></g></g></g></g></g></svg>