<svg xmlns="http://www.w3.org/2000/svg" xmlns:xlink="http://www.w3.org/1999/xlink" id="body_1" preserveAspectRatio="xMinYMin meet" viewBox="0 0 793 1123"><defs><clipPath id="1"><path id="" clip-rule="evenodd" transform="matrix(1 0 0 1 0 0)" d="M0 842L0 -0.250061L0 -0.250061L595.5 -0.250061L595.5 -0.250061L595.5 842L595.5 842L0 842z" /></clipPath><clipPath id="2"><path id="" clip-rule="evenodd" transform="matrix(1 0 0 1 0 0)" d="M0 -0.25L595.5 -0.25L595.5 -0.25L595.5 842.0012L595.5 842.0012L0 842.0012z" /></clipPath><clipPath id="3"><path id="" clip-rule="evenodd" transform="matrix(1 0 0 1 0 0)" d="M0 -0.25L595.5 -0.25L595.5 -0.25L595.5 842.0012L595.5 842.0012L0 842.0012z" /></clipPath><clipPath id="4"><path id="" clip-rule="evenodd" transform="matrix(1 0 0 1 0 0)" d="M0 -0.25L595.5 -0.25L595.5 -0.25L595.5 842.0012L595.5 842.0012L0 842.0012z" /></clipPath><clipPath id="5"><path id="" clip-rule="evenodd" transform="matrix(1 0 0 1 0 0)" d="M78.71999 30.71002L522.24 30.71002L522.24 30.71002L522.24 810.95L522.24 810.95L78.71999 810.95z" /></clipPath><clipPath id="6"><path id="" clip-rule="evenodd" transform="matrix(1 0 0 1 0 0)" d="M79.51786 30.75177L522.0178 30.75177L522.0178 30.75177L522.0178 810.7518L522.0178 810.7518L79.51786 810.7518z" /></clipPath><clipPath id="7"><path id="" clip-rule="evenodd" transform="matrix(1 0 0 1 0 0)" d="M0 -0.25L595.5 -0.25L595.5 -0.25L595.5 842.0012L595.5 842.0012L0 842.0012z" /></clipPath><clipPath id="8"><path id="" clip-rule="evenodd" transform="matrix(1 0 0 1 0 0)" d="M0 -0.25L595.5 -0.25L595.5 -0.25L595.5 842.0012L595.5 842.0012L0 842.0012z" /></clipPath><clipPath id="9"><path id="" clip-rule="evenodd" transform="matrix(1 0 0 1 0 0)" d="M312.3504 399.5228L553.3296 399.5228L553.3296 399.5228L553.3296 641.4427L553.3296 641.4427L312.3504 641.4427z" /></clipPath><clipPath id="10"><path id="" clip-rule="evenodd" transform="matrix(1 0 0 1 0 0)" d="M340.0992 399.5228L525.5784 399.5228C 532.9392 399.5228 539.9976 402.4484 545.2007 407.6516C 550.4064 412.8548 553.3296 419.9132 553.3296 427.274L553.3296 427.274L553.3296 612.938C 553.3296 620.2964 550.4064 627.3548 545.2007 632.5604C 539.9976 637.7635 532.9392 640.6868 525.5784 640.6868L525.5784 640.6868L340.0992 640.6868C 332.7408 640.6868 325.6824 637.7635 320.4768 632.5604C 315.2736 627.3548 312.3504 620.2964 312.3504 612.938L312.3504 612.938L312.3504 427.274C 312.3504 419.9132 315.2736 412.8548 320.4768 407.6516C 325.6824 402.4484 332.7408 399.5228 340.0992 399.5228z" /></clipPath><clipPath id="11"><path id="" clip-rule="evenodd" transform="matrix(1 0 0 1 0 0)" d="M325.2864 614.3611L535.2864 614.3611L535.2864 614.3611L535.2864 618.8611L535.2864 618.8611L325.2864 618.8611z" /></clipPath><clipPath id="12"><path id="" clip-rule="evenodd" transform="matrix(1 0 0 1 0 0)" d="M325.2 614.39L535.4399 614.39L535.4399 614.39L535.4399 618.95L535.4399 618.95L325.2 618.95z" /></clipPath><mask id="m1"><clipPath id="13"><path id="" clip-rule="evenodd" transform="matrix(1 0 0 1 0 0)" d="M325.2 614.39L535.4399 614.39L535.4399 614.39L535.4399 618.95L535.4399 618.95L325.2 618.95z" /></clipPath><g><g><g clip-path="url(#13)"><path id="5" transform="matrix(1 0 0 -1 0 842)" d="M325.2 227.61L535.4399 227.61L535.4399 223.05L325.2 223.05z" stroke="none" fill="#000000" fill-rule="nonzero" /></g></g></g></mask><clipPath id="14"><path id="" clip-rule="evenodd" transform="matrix(1 0 0 1 0 0)" d="M325.2 614.39L535.4399 614.39L535.4399 614.39L535.4399 618.95L535.4399 618.95L325.2 618.95z" /></clipPath><clipPath id="15"><path id="" clip-rule="evenodd" transform="matrix(1 0 0 1 0 0)" d="M324.96 614.4306L535.68 614.4306L535.68 614.4306L535.68 618.9405L535.68 618.9405L324.96 618.9405z" /></clipPath><mask id="m2"><clipPath id="16"><path id="" clip-rule="evenodd" transform="matrix(1 0 0 1 0 0)" d="M325.2 614.39L535.4399 614.39L535.4399 614.39L535.4399 618.95L535.4399 618.95L325.2 618.95z" /></clipPath><clipPath id="17"><path id="" clip-rule="evenodd" transform="matrix(1 0 0 1 0 0)" d="M325.2 614.39L535.4399 614.39L535.4399 614.39L535.4399 618.95L535.4399 618.95L325.2 618.95z" /></clipPath><clipPath id="18"><path id="" clip-rule="evenodd" transform="matrix(1 0 0 1 0 0)" d="M325.3064 614.4306L535.2758 614.4306L535.2758 614.4306L535.2758 618.7601L535.2758 618.7601L325.3064 618.7601z" /></clipPath><g><g><g clip-path="url(#16)"><g><g clip-path="url(#17)"><g clip-path="url(#18)"><g transform="matrix(0.24 0 0 0.24 325.2 614.39)"><g transform="matrix(1 0 0 1 0 0)"><image x="0" y="0" xlink:href="img_02.png" width="876" height="19" /></g></g></g></g></g></g></g></g></mask><clipPath id="19"><path id="" clip-rule="evenodd" transform="matrix(1 0 0 1 0 0)" d="M325.2 614.39L535.4399 614.39L535.4399 614.39L535.4399 618.95L535.4399 618.95L325.2 618.95z" /></clipPath><clipPath id="20"><path id="" clip-rule="evenodd" transform="matrix(1 0 0 1 0 0)" d="M324.96 614.4306L535.68 614.4306L535.68 614.4306L535.68 618.9405L535.68 618.9405L324.96 618.9405z" /></clipPath><clipPath id="21"><path id="" clip-rule="evenodd" transform="matrix(1 0 0 1 0 0)" d="M0 -0.25L595.5 -0.25L595.5 -0.25L595.5 842.0012L595.5 842.0012L0 842.0012z" /></clipPath><clipPath id="22"><path id="" clip-rule="evenodd" transform="matrix(1 0 0 1 0 0)" d="M0 -0.25L595.5 -0.25L595.5 -0.25L595.5 842.0012L595.5 842.0012L0 842.0012z" /></clipPath><clipPath id="23"><path id="" clip-rule="evenodd" transform="matrix(1 0 0 1 0 0)" d="M325.2864 446.0156L430.2648 446.0156L430.2648 446.0156L430.2648 550.5855L430.2648 550.5855L325.2864 550.5855z" /></clipPath><clipPath id="24"><path id="" clip-rule="evenodd" transform="matrix(1 0 0 1 0 0)" d="M338.0376 446.0156L417.144 446.0156C 424.1856 446.0156 429.8952 451.7228 429.8952 458.7644L429.8952 458.7644L429.8952 537.8348C 429.8952 544.8764 424.1856 550.5836 417.144 550.5836L417.144 550.5836L338.0376 550.5836C 330.996 550.5836 325.2864 544.8764 325.2864 537.8348L325.2864 537.8348L325.2864 458.7644C 325.2864 451.7228 330.996 446.0156 338.0376 446.0156z" /></clipPath><clipPath id="25"><path id="" clip-rule="evenodd" transform="matrix(1 0 0 1 0 0)" d="M325.2864 446.0156L429.8563 446.0156L429.8563 446.0156L429.8563 550.5855L429.8563 550.5855L325.2864 550.5855z" /></clipPath><clipPath id="26"><path id="" clip-rule="evenodd" transform="matrix(1 0 0 1 0 0)" d="M0 -0.25L595.5 -0.25L595.5 -0.25L595.5 842.0012L595.5 842.0012L0 842.0012z" /></clipPath><clipPath id="27"><path id="" clip-rule="evenodd" transform="matrix(1 0 0 1 0 0)" d="M0 -0.25L595.5 -0.25L595.5 -0.25L595.5 842.0012L595.5 842.0012L0 842.0012z" /></clipPath><clipPath id="28"><path id="" clip-rule="evenodd" transform="matrix(1 0 0 1 0 0)" d="M436.3344 503.042L542.8164 503.042L542.8164 503.042L542.8164 609.1095L542.8164 609.1095L436.3344 609.1095z" /></clipPath><clipPath id="29"><path id="" clip-rule="evenodd" transform="matrix(1 0 0 1 0 0)" d="M449.0856 503.042L529.692 503.042C 536.7336 503.042 542.4408 508.7516 542.4408 515.7932L542.4408 515.7932L542.4408 596.3611C 542.4408 603.4028 536.7336 609.11 529.692 609.11L529.692 609.11L449.0856 609.11C 442.0416 609.11 436.3344 603.4028 436.3344 596.3611L436.3344 596.3611L436.3344 515.7932C 436.3344 508.7516 442.0416 503.042 449.0856 503.042z" /></clipPath><clipPath id="30"><path id="" clip-rule="evenodd" transform="matrix(1 0 0 1 0 0)" d="M436.3344 503.042L542.4019 503.042L542.4019 503.042L542.4019 609.1095L542.4019 609.1095L436.3344 609.1095z" /></clipPath><clipPath id="31"><path id="" clip-rule="evenodd" transform="matrix(1 0 0 1 0 0)" d="M0 -0.25L595.5 -0.25L595.5 -0.25L595.5 842.0012L595.5 842.0012L0 842.0012z" /></clipPath><clipPath id="32"><path id="" clip-rule="evenodd" transform="matrix(1 0 0 1 0 0)" d="M0 -0.25L595.5 -0.25L595.5 -0.25L595.5 842.0012L595.5 842.0012L0 842.0012z" /></clipPath><clipPath id="33"><path id="" clip-rule="evenodd" transform="matrix(1 0 0 1 0 0)" d="M26.02656 -0.25L273.5602 -0.25L273.5602 -0.25L273.5602 279.1916L273.5602 279.1916L26.02656 279.1916z" /></clipPath><clipPath id="34"><path id="" clip-rule="evenodd" transform="matrix(1 0 0 1 0 0)" d="M53.77656 -0.25L245.8104 -0.25C 253.1712 -0.25 260.2296 2.673645 265.4328 7.877808C 270.636 13.08191 273.5616 20.14026 273.5616 27.5L273.5616 27.5L273.5616 250.8092C 273.5616 258.1676 270.636 265.226 265.4328 270.4316C 260.2296 275.6348 253.1712 278.558 245.8104 278.558L245.8104 278.558L53.77656 278.558C 46.41672 278.558 39.35856 275.6348 34.1544 270.4316C 28.95024 265.226 26.02656 258.1676 26.02656 250.8092L26.02656 250.8092L26.02656 27.5C 26.02656 20.14026 28.95024 13.08191 34.1544 7.877808C 39.35856 2.673645 46.41672 -0.25 53.77656 -0.25z" /></clipPath><clipPath id="35"><path id="" clip-rule="evenodd" transform="matrix(1 0 0 1 0 0)" d="M27.8184 234.8636L265.5684 234.8636L265.5684 234.8636L265.5684 240.1136L265.5684 240.1136L27.8184 240.1136z" /></clipPath><clipPath id="36"><path id="" clip-rule="evenodd" transform="matrix(1 0 0 1 0 0)" d="M27.6 234.71L265.68 234.71L265.68 234.71L265.68 240.23L265.68 240.23L27.6 240.23z" /></clipPath><mask id="m3"><clipPath id="37"><path id="" clip-rule="evenodd" transform="matrix(1 0 0 1 0 0)" d="M27.6 234.71L265.68 234.71L265.68 234.71L265.68 240.23L265.68 240.23L27.6 240.23z" /></clipPath><g><g><g clip-path="url(#37)"><path id="12" transform="matrix(1 0 0 -1 0 842)" d="M27.6 607.29L265.68 607.29L265.68 601.77L27.6 601.77z" stroke="none" fill="#000000" fill-rule="nonzero" /></g></g></g></mask><clipPath id="38"><path id="" clip-rule="evenodd" transform="matrix(1 0 0 1 0 0)" d="M27.6 234.71L265.68 234.71L265.68 234.71L265.68 240.23L265.68 240.23L27.6 240.23z" /></clipPath><clipPath id="39"><path id="" clip-rule="evenodd" transform="matrix(1 0 0 1 0 0)" d="M27.36 234.9457L265.92 234.9457L265.92 234.9457L265.92 240.207L265.92 240.207L27.36 240.207z" /></clipPath><mask id="m4"><clipPath id="40"><path id="" clip-rule="evenodd" transform="matrix(1 0 0 1 0 0)" d="M27.6 234.71L265.68 234.71L265.68 234.71L265.68 240.23L265.68 240.23L27.6 240.23z" /></clipPath><clipPath id="41"><path id="" clip-rule="evenodd" transform="matrix(1 0 0 1 0 0)" d="M27.6 234.71L265.68 234.71L265.68 234.71L265.68 240.23L265.68 240.23L27.6 240.23z" /></clipPath><clipPath id="42"><path id="" clip-rule="evenodd" transform="matrix(1 0 0 1 0 0)" d="M27.84098 234.9457L265.5563 234.9457L265.5563 234.9457L265.5563 239.9965L265.5563 239.9965L27.84098 239.9965z" /></clipPath><g><g><g clip-path="url(#40)"><g><g clip-path="url(#41)"><g clip-path="url(#42)"><g transform="matrix(0.24 0 0 0.24 27.84 234.71)"><g transform="matrix(1 0 0 1 0 0)"><image x="0" y="0" xlink:href="img_05.png" width="991" height="23" /></g></g></g></g></g></g></g></g></mask><clipPath id="43"><path id="" clip-rule="evenodd" transform="matrix(1 0 0 1 0 0)" d="M27.6 234.71L265.68 234.71L265.68 234.71L265.68 240.23L265.68 240.23L27.6 240.23z" /></clipPath><clipPath id="44"><path id="" clip-rule="evenodd" transform="matrix(1 0 0 1 0 0)" d="M27.36 234.9457L265.92 234.9457L265.92 234.9457L265.92 240.207L265.92 240.207L27.36 240.207z" /></clipPath><clipPath id="45"><path id="" clip-rule="evenodd" transform="matrix(1 0 0 1 0 0)" d="M0 -0.25L595.5 -0.25L595.5 -0.25L595.5 842.0012L595.5 842.0012L0 842.0012z" /></clipPath><clipPath id="46"><path id="" clip-rule="evenodd" transform="matrix(1 0 0 1 0 0)" d="M0 -0.25L595.5 -0.25L595.5 -0.25L595.5 842.0012L595.5 842.0012L0 842.0012z" /></clipPath><clipPath id="47"><path id="" clip-rule="evenodd" transform="matrix(1 0 0 1 0 0)" d="M40.4904 86.99286L252.6492 86.99286L252.6492 86.99286L252.6492 216.0015L252.6492 216.0015L40.4904 216.0015z" /></clipPath><clipPath id="48"><path id="" clip-rule="evenodd" transform="matrix(1 0 0 1 0 0)" d="M53.2404 86.99286L239.8414 86.99286C 246.8832 86.99286 252.5904 92.70129 252.5904 99.74286L252.5904 99.74286L252.5904 203.2518C 252.5904 210.2933 246.8832 216.0018 239.8414 216.0018L239.8414 216.0018L53.2404 216.0018C 46.1988 216.0018 40.4904 210.2933 40.4904 203.2518L40.4904 203.2518L40.4904 99.74286C 40.4904 92.70129 46.1988 86.99286 53.2404 86.99286z" /></clipPath><clipPath id="49"><path id="" clip-rule="evenodd" transform="matrix(1 0 0 1 0 0)" d="M40.4904 86.99286L252.6492 86.99286L252.6492 86.99286L252.6492 216.0015L252.6492 216.0015L40.4904 216.0015z" /></clipPath><clipPath id="50"><path id="" clip-rule="evenodd" transform="matrix(1 0 0 1 0 0)" d="M0 -0.25L595.5 -0.25L595.5 -0.25L595.5 842.0012L595.5 842.0012L0 842.0012z" /></clipPath><clipPath id="51"><path id="" clip-rule="evenodd" transform="matrix(1 0 0 1 0 0)" d="M0 -0.25L595.5 -0.25L595.5 -0.25L595.5 842.0012L595.5 842.0012L0 842.0012z" /></clipPath><clipPath id="52"><path id="" clip-rule="evenodd" transform="matrix(1 0 0 1 0 0)" d="M0 -0.25L595.5 -0.25L595.5 -0.25L595.5 842.0012L595.5 842.0012L0 842.0012z" /></clipPath><clipPath id="53"><path id="" clip-rule="evenodd" transform="matrix(1 0 0 1 0 0)" d="M26.02656 302.6348L273.5602 302.6348L273.5602 302.6348L273.5602 565.6388L273.5602 565.6388L26.02656 565.6388z" /></clipPath><clipPath id="54"><path id="" clip-rule="evenodd" transform="matrix(1 0 0 1 0 0)" d="M53.77656 302.6348L245.8104 302.6348C 253.1712 302.6348 260.2296 305.558 265.4328 310.7612C 270.636 315.9668 273.5616 323.0251 273.5616 330.3836L273.5616 330.3836L273.5616 536.9444C 273.5616 544.3052 270.636 551.3611 265.4328 556.5668C 260.2296 561.77 253.1712 564.6932 245.8104 564.6932L245.8104 564.6932L53.77656 564.6932C 46.41672 564.6932 39.35856 561.77 34.1544 556.5668C 28.95024 551.3611 26.02656 544.3052 26.02656 536.9444L26.02656 536.9444L26.02656 330.3836C 26.02656 323.0251 28.95024 315.9668 34.1544 310.7612C 39.35856 305.558 46.41672 302.6348 53.77656 302.6348z" /></clipPath><clipPath id="55"><path id="" clip-rule="evenodd" transform="matrix(1 0 0 1 0 0)" d="M37.82088 522.3596L275.5709 522.3596L275.5709 522.3596L275.5709 527.6096L275.5709 527.6096L37.82088 527.6096z" /></clipPath><clipPath id="56"><path id="" clip-rule="evenodd" transform="matrix(1 0 0 1 0 0)" d="M37.68 522.23L275.76 522.23L275.76 522.23L275.76 527.75L275.76 527.75L37.68 527.75z" /></clipPath><mask id="m5"><clipPath id="57"><path id="" clip-rule="evenodd" transform="matrix(1 0 0 1 0 0)" d="M37.68 522.23L275.76 522.23L275.76 522.23L275.76 527.75L275.76 527.75L37.68 527.75z" /></clipPath><g><g><g clip-path="url(#57)"><path id="131" transform="matrix(1 0 0 -1 0 842)" d="M37.68 319.77L275.76 319.77L275.76 314.25L37.68 314.25z" stroke="none" fill="#000000" fill-rule="nonzero" /></g></g></g></mask><clipPath id="58"><path id="" clip-rule="evenodd" transform="matrix(1 0 0 1 0 0)" d="M37.68 522.23L275.76 522.23L275.76 522.23L275.76 527.75L275.76 527.75L37.68 527.75z" /></clipPath><clipPath id="59"><path id="" clip-rule="evenodd" transform="matrix(1 0 0 1 0 0)" d="M37.43999 522.4426L276 522.4426L276 522.4426L276 527.7039L276 527.7039L37.43999 527.7039z" /></clipPath><mask id="m6"><clipPath id="60"><path id="" clip-rule="evenodd" transform="matrix(1 0 0 1 0 0)" d="M37.68 522.23L275.76 522.23L275.76 522.23L275.76 527.75L275.76 527.75L37.68 527.75z" /></clipPath><clipPath id="61"><path id="" clip-rule="evenodd" transform="matrix(1 0 0 1 0 0)" d="M37.68 522.23L275.76 522.23L275.76 522.23L275.76 527.75L275.76 527.75L37.68 527.75z" /></clipPath><clipPath id="62"><path id="" clip-rule="evenodd" transform="matrix(1 0 0 1 0 0)" d="M37.84345 522.4426L275.5588 522.4426L275.5588 522.4426L275.5588 527.4934L275.5588 527.4934L37.84345 527.4934z" /></clipPath><g><g><g clip-path="url(#60)"><g><g clip-path="url(#61)"><g clip-path="url(#62)"><g transform="matrix(0.24 0 0 0.24 37.68 522.23)"><g transform="matrix(1 0 0 1 0 0)"><image x="0" y="0" xlink:href="img_07.png" width="992" height="22" /></g></g></g></g></g></g></g></g></mask><clipPath id="63"><path id="" clip-rule="evenodd" transform="matrix(1 0 0 1 0 0)" d="M37.68 522.23L275.76 522.23L275.76 522.23L275.76 527.75L275.76 527.75L37.68 527.75z" /></clipPath><clipPath id="64"><path id="" clip-rule="evenodd" transform="matrix(1 0 0 1 0 0)" d="M37.43999 522.4426L276 522.4426L276 522.4426L276 527.7039L276 527.7039L37.43999 527.7039z" /></clipPath><clipPath id="65"><path id="" clip-rule="evenodd" transform="matrix(1 0 0 1 0 0)" d="M0 -0.25L595.5 -0.25L595.5 -0.25L595.5 842.0012L595.5 842.0012L0 842.0012z" /></clipPath><clipPath id="66"><path id="" clip-rule="evenodd" transform="matrix(1 0 0 1 0 0)" d="M0 -0.25L595.5 -0.25L595.5 -0.25L595.5 842.0012L595.5 842.0012L0 842.0012z" /></clipPath><clipPath id="67"><path id="" clip-rule="evenodd" transform="matrix(1 0 0 1 0 0)" d="M52.03584 382.502L250.146 382.502L250.146 382.502L250.146 509.6103L250.146 509.6103L52.03584 509.6103z" /></clipPath><clipPath id="68"><path id="" clip-rule="evenodd" transform="matrix(1 0 0 1 0 0)" d="M64.78584 382.502L237.1718 382.502C 244.2144 382.502 249.9216 388.2092 249.9216 395.2508L249.9216 395.2508L249.9216 496.8596C 249.9216 503.9012 244.2144 509.6108 237.1718 509.6108L237.1718 509.6108L64.78584 509.6108C 57.74424 509.6108 52.03584 503.9012 52.03584 496.8596L52.03584 496.8596L52.03584 395.2508C 52.03584 388.2092 57.74424 382.502 64.78584 382.502z" /></clipPath><clipPath id="69"><path id="" clip-rule="evenodd" transform="matrix(1 0 0 1 0 0)" d="M52.03584 382.502L250.146 382.502L250.146 382.502L250.146 509.6103L250.146 509.6103L52.03584 509.6103z" /></clipPath><clipPath id="70"><path id="" clip-rule="evenodd" transform="matrix(1 0 0 1 0 0)" d="M0 -0.25L595.5 -0.25L595.5 -0.25L595.5 842.0012L595.5 842.0012L0 842.0012z" /></clipPath><clipPath id="71"><path id="" clip-rule="evenodd" transform="matrix(1 0 0 1 0 0)" d="M0 -0.25L595.5 -0.25L595.5 -0.25L595.5 842.0012L595.5 842.0012L0 842.0012z" /></clipPath><clipPath id="72"><path id="" clip-rule="evenodd" transform="matrix(1 0 0 1 0 0)" d="M0 -0.25L595.5 -0.25L595.5 -0.25L595.5 842.0012L595.5 842.0012L0 842.0012z" /></clipPath><clipPath id="73"><path id="" clip-rule="evenodd" transform="matrix(1 0 0 1 0 0)" d="M312.3504 101.3448L586.8528 101.3448L586.8528 101.3448L586.8528 360.6529L586.8528 360.6529L312.3504 360.6529z" /></clipPath><clipPath id="74"><path id="" clip-rule="evenodd" transform="matrix(1 0 0 1 0 0)" d="M340.0992 101.3448L558.2424 101.3448C 565.6008 101.3448 572.6592 104.2686 577.8648 109.4727C 583.068 114.6769 585.9911 121.7353 585.9911 129.0948L585.9911 129.0948L585.9911 332.9036C 585.9911 340.262 583.068 347.3204 577.8648 352.526C 572.6592 357.7292 565.6008 360.6524 558.2424 360.6524L558.2424 360.6524L340.0992 360.6524C 332.7408 360.6524 325.6824 357.7292 320.4768 352.526C 315.2736 347.3204 312.3504 340.262 312.3504 332.9036L312.3504 332.9036L312.3504 129.0948C 312.3504 121.7353 315.2736 114.6769 320.4768 109.4727C 325.6824 104.2686 332.7408 101.3448 340.0992 101.3448z" /></clipPath><clipPath id="75"><path id="" clip-rule="evenodd" transform="matrix(1 0 0 1 0 0)" d="M330.1152 335.9612L567.8652 335.9612L567.8652 335.9612L567.8652 341.2112L567.8652 341.2112L330.1152 341.2112z" /></clipPath><clipPath id="76"><path id="" clip-rule="evenodd" transform="matrix(1 0 0 1 0 0)" d="M330 335.99L568.08 335.99L568.08 335.99L568.08 341.27L568.08 341.27L330 341.27z" /></clipPath><mask id="m7"><clipPath id="77"><path id="" clip-rule="evenodd" transform="matrix(1 0 0 1 0 0)" d="M330 335.99L568.08 335.99L568.08 335.99L568.08 341.27L568.08 341.27L330 341.27z" /></clipPath><g><g><g clip-path="url(#77)"><path id="212" transform="matrix(1 0 0 -1 0 842)" d="M330 506.01L568.08 506.01L568.08 500.73L330 500.73z" stroke="none" fill="#000000" fill-rule="nonzero" /></g></g></g></mask><clipPath id="78"><path id="" clip-rule="evenodd" transform="matrix(1 0 0 1 0 0)" d="M330 335.99L568.08 335.99L568.08 335.99L568.08 341.27L568.08 341.27L330 341.27z" /></clipPath><clipPath id="79"><path id="" clip-rule="evenodd" transform="matrix(1 0 0 1 0 0)" d="M329.76 336.044L568.3199 336.044L568.3199 336.044L568.3199 341.3052L568.3199 341.3052L329.76 341.3052z" /></clipPath><mask id="m8"><clipPath id="80"><path id="" clip-rule="evenodd" transform="matrix(1 0 0 1 0 0)" d="M330 335.99L568.08 335.99L568.08 335.99L568.08 341.27L568.08 341.27L330 341.27z" /></clipPath><clipPath id="81"><path id="" clip-rule="evenodd" transform="matrix(1 0 0 1 0 0)" d="M330 335.99L568.08 335.99L568.08 335.99L568.08 341.27L568.08 341.27L330 341.27z" /></clipPath><clipPath id="82"><path id="" clip-rule="evenodd" transform="matrix(1 0 0 1 0 0)" d="M330.1379 336.044L567.8533 336.044L567.8533 336.044L567.8533 341.0948L567.8533 341.0948L330.1379 341.0948z" /></clipPath><g><g><g clip-path="url(#80)"><g><g clip-path="url(#81)"><g clip-path="url(#82)"><g transform="matrix(0.24 0 0 0.24 330 335.9901)"><g transform="matrix(1 0 0 1 0 0)"><image x="0" y="0" xlink:href="img_09.png" width="992" height="22" /></g></g></g></g></g></g></g></g></mask><clipPath id="83"><path id="" clip-rule="evenodd" transform="matrix(1 0 0 1 0 0)" d="M330 335.99L568.08 335.99L568.08 335.99L568.08 341.27L568.08 341.27L330 341.27z" /></clipPath><clipPath id="84"><path id="" clip-rule="evenodd" transform="matrix(1 0 0 1 0 0)" d="M329.76 336.044L568.3199 336.044L568.3199 336.044L568.3199 341.3052L568.3199 341.3052L329.76 341.3052z" /></clipPath><clipPath id="85"><path id="" clip-rule="evenodd" transform="matrix(1 0 0 1 0 0)" d="M0 -0.25L595.5 -0.25L595.5 -0.25L595.5 842.0012L595.5 842.0012L0 842.0012z" /></clipPath><clipPath id="86"><path id="" clip-rule="evenodd" transform="matrix(1 0 0 1 0 0)" d="M0 -0.25L595.5 -0.25L595.5 -0.25L595.5 842.0012L595.5 842.0012L0 842.0012z" /></clipPath><clipPath id="87"><path id="" clip-rule="evenodd" transform="matrix(1 0 0 1 0 0)" d="M327.1056 190.4749L449.2341 190.4749L449.2341 190.4749L449.2341 290.6828L449.2341 290.6828L327.1056 290.6828z" /></clipPath><clipPath id="88"><path id="" clip-rule="evenodd" transform="matrix(1 0 0 1 0 0)" d="M339.8568 190.4749L436.4208 190.4749C 443.4624 190.4749 449.1696 196.1833 449.1696 203.2249L449.1696 203.2249L449.1696 277.934C 449.1696 284.9756 443.4624 290.6828 436.4208 290.6828L436.4208 290.6828L339.8568 290.6828C 332.8152 290.6828 327.1056 284.9756 327.1056 277.934L327.1056 277.934L327.1056 203.2249C 327.1056 196.1833 332.8152 190.4749 339.8568 190.4749z" /></clipPath><clipPath id="89"><path id="" clip-rule="evenodd" transform="matrix(1 0 0 1 0 0)" d="M327.1056 190.4749L449.2341 190.4749L449.2341 190.4749L449.2341 290.6828L449.2341 290.6828L327.1056 290.6828z" /></clipPath><clipPath id="90"><path id="" clip-rule="evenodd" transform="matrix(1 0 0 1 0 0)" d="M0 -0.25L595.5 -0.25L595.5 -0.25L595.5 842.0012L595.5 842.0012L0 842.0012z" /></clipPath><clipPath id="91"><path id="" clip-rule="evenodd" transform="matrix(1 0 0 1 0 0)" d="M0 -0.25L595.5 -0.25L595.5 -0.25L595.5 842.0012L595.5 842.0012L0 842.0012z" /></clipPath><clipPath id="92"><path id="" clip-rule="evenodd" transform="matrix(1 0 0 1 0 0)" d="M456.4344 224.9629L574.2133 224.9629L574.2133 224.9629L574.2133 309.6577L574.2133 309.6577L456.4344 309.6577z" /></clipPath><clipPath id="93"><path id="" clip-rule="evenodd" transform="matrix(1 0 0 1 0 0)" d="M469.1832 224.9629L561.372 224.9629C 568.4136 224.9629 574.1232 230.6713 574.1232 237.7129L574.1232 237.7129L574.1232 296.9084C 574.1232 303.95 568.4136 309.6572 561.372 309.6572L561.372 309.6572L469.1832 309.6572C 462.1416 309.6572 456.4344 303.95 456.4344 296.9084L456.4344 296.9084L456.4344 237.7129C 456.4344 230.6713 462.1416 224.9629 469.1832 224.9629z" /></clipPath><clipPath id="94"><path id="" clip-rule="evenodd" transform="matrix(1 0 0 1 0 0)" d="M456.4344 224.9629L574.2133 224.9629L574.2133 224.9629L574.2133 309.6577L574.2133 309.6577L456.4344 309.6577z" /></clipPath><clipPath id="95"><path id="" clip-rule="evenodd" transform="matrix(1 0 0 1 0 0)" d="M0 -0.25L595.5 -0.25L595.5 -0.25L595.5 842.0012L595.5 842.0012L0 842.0012z" /></clipPath><clipPath id="96"><path id="" clip-rule="evenodd" transform="matrix(1 0 0 1 0 0)" d="M0 -0.25L595.5 -0.25L595.5 -0.25L595.5 842.0012L595.5 842.0012L0 842.0012z" /></clipPath><clipPath id="97"><path id="" clip-rule="evenodd" transform="matrix(1 0 0 1 0 0)" d="M0 -0.25L595.5 -0.25L595.5 -0.25L595.5 842.0012L595.5 842.0012L0 842.0012z" /></clipPath><clipPath id="98"><path id="" clip-rule="evenodd" transform="matrix(1 0 0 1 0 0)" d="M26.02656 572.6396L273.5602 572.6396L273.5602 572.6396L273.5602 835.6436L273.5602 835.6436L26.02656 835.6436z" /></clipPath><clipPath id="99"><path id="" clip-rule="evenodd" transform="matrix(1 0 0 1 0 0)" d="M53.77656 572.6396L245.8104 572.6396C 253.1712 572.6396 260.2296 575.5628 265.4328 580.766C 270.636 585.9716 273.5616 593.03 273.5616 600.3884L273.5616 600.3884L273.5616 806.9492C 273.5616 814.3076 270.636 821.366 265.4328 826.5716C 260.2296 831.7748 253.1712 834.698 245.8104 834.698L245.8104 834.698L53.77656 834.698C 46.41672 834.698 39.35856 831.7748 34.1544 826.5716C 28.95024 821.366 26.02656 814.3076 26.02656 806.9492L26.02656 806.9492L26.02656 600.3884C 26.02656 593.03 28.95024 585.9716 34.1544 580.766C 39.35856 575.5628 46.41672 572.6396 53.77656 572.6396z" /></clipPath><clipPath id="100"><path id="" clip-rule="evenodd" transform="matrix(1 0 0 1 0 0)" d="M37.82088 792.3644L275.5709 792.3644L275.5709 792.3644L275.5709 797.6144L275.5709 797.6144L37.82088 797.6144z" /></clipPath><clipPath id="101"><path id="" clip-rule="evenodd" transform="matrix(1 0 0 1 0 0)" d="M37.68 792.23L275.76 792.23L275.76 792.23L275.76 797.75L275.76 797.75L37.68 797.75z" /></clipPath><mask id="m9"><clipPath id="102"><path id="" clip-rule="evenodd" transform="matrix(1 0 0 1 0 0)" d="M37.68 792.23L275.76 792.23L275.76 792.23L275.76 797.75L275.76 797.75L37.68 797.75z" /></clipPath><g><g><g clip-path="url(#102)"><path id="327" transform="matrix(1 0 0 -1 0 842)" d="M37.68 49.77002L275.76 49.77002L275.76 44.25002L37.68 44.25002z" stroke="none" fill="#000000" fill-rule="nonzero" /></g></g></g></mask><clipPath id="103"><path id="" clip-rule="evenodd" transform="matrix(1 0 0 1 0 0)" d="M37.68 792.23L275.76 792.23L275.76 792.23L275.76 797.75L275.76 797.75L37.68 797.75z" /></clipPath><clipPath id="104"><path id="" clip-rule="evenodd" transform="matrix(1 0 0 1 0 0)" d="M37.43999 792.4471L276 792.4471L276 792.4471L276 797.7084L276 797.7084L37.43999 797.7084z" /></clipPath><mask id="m10"><clipPath id="105"><path id="" clip-rule="evenodd" transform="matrix(1 0 0 1 0 0)" d="M37.68 792.23L275.76 792.23L275.76 792.23L275.76 797.75L275.76 797.75L37.68 797.75z" /></clipPath><clipPath id="106"><path id="" clip-rule="evenodd" transform="matrix(1 0 0 1 0 0)" d="M37.68 792.23L275.76 792.23L275.76 792.23L275.76 797.75L275.76 797.75L37.68 797.75z" /></clipPath><clipPath id="107"><path id="" clip-rule="evenodd" transform="matrix(1 0 0 1 0 0)" d="M37.84344 792.4471L275.5588 792.4471L275.5588 792.4471L275.5588 797.4979L275.5588 797.4979L37.84344 797.4979z" /></clipPath><g><g><g clip-path="url(#105)"><g><g clip-path="url(#106)"><g clip-path="url(#107)"><g transform="matrix(0.24 0 0 0.24 37.68 792.23)"><g transform="matrix(1 0 0 1 0 0)"><image x="0" y="0" xlink:href="img_12.png" width="992" height="22" /></g></g></g></g></g></g></g></g></mask><clipPath id="108"><path id="" clip-rule="evenodd" transform="matrix(1 0 0 1 0 0)" d="M37.68 792.23L275.76 792.23L275.76 792.23L275.76 797.75L275.76 797.75L37.68 797.75z" /></clipPath><clipPath id="109"><path id="" clip-rule="evenodd" transform="matrix(1 0 0 1 0 0)" d="M37.43999 792.4471L276 792.4471L276 792.4471L276 797.7084L276 797.7084L37.43999 797.7084z" /></clipPath><clipPath id="110"><path id="" clip-rule="evenodd" transform="matrix(1 0 0 1 0 0)" d="M0 -0.25L595.5 -0.25L595.5 -0.25L595.5 842.0012L595.5 842.0012L0 842.0012z" /></clipPath><clipPath id="111"><path id="" clip-rule="evenodd" transform="matrix(1 0 0 1 0 0)" d="M0 -0.25L595.5 -0.25L595.5 -0.25L595.5 842.0012L595.5 842.0012L0 842.0012z" /></clipPath><clipPath id="112"><path id="" clip-rule="evenodd" transform="matrix(1 0 0 1 0 0)" d="M52.03584 652.5068L250.146 652.5068L250.146 652.5068L250.146 779.6151L250.146 779.6151L52.03584 779.6151z" /></clipPath><clipPath id="113"><path id="" clip-rule="evenodd" transform="matrix(1 0 0 1 0 0)" d="M64.78584 652.5068L237.1718 652.5068C 244.2144 652.5068 249.9216 658.214 249.9216 665.2556L249.9216 665.2556L249.9216 766.8644C 249.9216 773.9059 244.2144 779.6155 237.1718 779.6155L237.1718 779.6155L64.78584 779.6155C 57.74424 779.6155 52.03584 773.9059 52.03584 766.8644L52.03584 766.8644L52.03584 665.2556C 52.03584 658.214 57.74424 652.5068 64.78584 652.5068z" /></clipPath><clipPath id="114"><path id="" clip-rule="evenodd" transform="matrix(1 0 0 1 0 0)" d="M52.03584 652.5068L250.146 652.5068L250.146 652.5068L250.146 779.6151L250.146 779.6151L52.03584 779.6151z" /></clipPath><clipPath id="115"><path id="" clip-rule="evenodd" transform="matrix(1 0 0 1 0 0)" d="M0 -0.25L595.5 -0.25L595.5 -0.25L595.5 842.0012L595.5 842.0012L0 842.0012z" /></clipPath><clipPath id="116"><path id="" clip-rule="evenodd" transform="matrix(1 0 0 1 0 0)" d="M0 -0.25L595.5 -0.25L595.5 -0.25L595.5 842.0012L595.5 842.0012L0 842.0012z" /></clipPath><clipPath id="117"><path id="" clip-rule="evenodd" transform="matrix(1 0 0 1 0 0)" d="M0 -0.25L595.5 -0.25L595.5 -0.25L595.5 842.0012L595.5 842.0012L0 842.0012z" /></clipPath><clipPath id="118"><path id="" clip-rule="evenodd" transform="matrix(1 0 0 1 0 0)" d="M226.3898 775.2332L287.352 748.0436L287.352 748.0436L302.6256 782.2916L302.6256 782.2916L241.6632 809.4811L241.6632 809.4811L226.3898 775.2332z" /></clipPath><clipPath id="119"><path id="" clip-rule="evenodd" transform="matrix(1 0 0 1 0 0)" d="M241.6296 809.4068L302.592 782.2172L302.592 782.2172L287.3184 747.9692L287.3184 747.9692L226.3562 775.1564L226.3562 775.1564L241.6296 809.4068z" /></clipPath><clipPath id="120"><path id="" clip-rule="evenodd" transform="matrix(1 0 0 1 0 0)" d="M241.6296 809.4068L302.592 782.2172L302.592 782.2172L287.3184 747.9692L287.3184 747.9692L226.3562 775.1564L226.3562 775.1564L241.6296 809.4068z" /></clipPath><clipPath id="121"><path id="" clip-rule="evenodd" transform="matrix(1 0 0 1 0 0)" d="M0 -0.25L595.5 -0.25L595.5 -0.25L595.5 842.0012L595.5 842.0012L0 842.0012z" /></clipPath><clipPath id="122"><path id="" clip-rule="evenodd" transform="matrix(1 0 0 1 0 0)" d="M302.16 671.27L462 671.27L462 671.27L462 797.75L462 797.75L302.16 797.75z" /></clipPath><clipPath id="123"><path id="" clip-rule="evenodd" transform="matrix(1 0 0 1 0 0)" d="M301.7834 670.8899L461.9695 670.8899L461.9695 670.8899L461.9695 797.5602L461.9695 797.5602L301.7834 797.5602z" /></clipPath><clipPath id="124"><path id="" clip-rule="evenodd" transform="matrix(1 0 0 1 0 0)" d="M330.0261 671.3828L434.0604 671.3828C 441.42 671.3828 448.4784 674.3065 453.6825 679.5106C 458.8867 684.7147 461.8104 691.773 461.8104 699.1328L461.8104 699.1328L461.8104 769.8102C 461.8104 777.17 458.8867 784.2281 453.6825 789.4323C 448.4784 794.6365 441.42 797.5601 434.0604 797.5601L434.0604 797.5601L330.0261 797.5601C 322.6665 797.5601 315.6082 794.6365 310.4041 789.4323C 305.1999 784.2281 302.2762 777.17 302.2762 769.8102L302.2762 769.8102L302.2762 699.1328C 302.2762 691.773 305.1999 684.7147 310.4041 679.5106C 315.6082 674.3065 322.6665 671.3828 330.0261 671.3828z" /></clipPath><clipPath id="125"><path id="" clip-rule="evenodd" transform="matrix(1 0 0 1 0 0)" d="M482.3712 13.39935L582.1212 13.39935L582.1212 13.39935L582.1212 69.64935L582.1212 69.64935L482.3712 69.64935z" /></clipPath><clipPath id="126"><path id="" clip-rule="evenodd" transform="matrix(1 0 0 1 0 0)" d="M0 -0.25L595.5 -0.25L595.5 -0.25L595.5 842.0012L595.5 842.0012L0 842.0012z" /></clipPath></defs><g transform="matrix(1.333333 0 0 1.333333 0 0)"><g clip-path="url(#1)"><g clip-path="url(#2)"><path id="1" transform="matrix(1 0 0 -1 0 842)" d="M0 842.25L595.4999 842.25L595.4999 0L0 0z" stroke="none" fill="#FFFFFF" fill-rule="nonzero" /></g><g clip-path="url(#3)"><path id="2" transform="matrix(1 0 0 -1 0 842)" d="M0 842.25L595.4999 842.25L595.4999 0L0 0z" stroke="none" fill="#FFFFFF" fill-rule="nonzero" /></g><g clip-path="url(#4)"><g><g clip-path="url(#5)"><g clip-path="url(#6)"><g transform="matrix(0 0.975 -0.9768211 0 522.0178 30.75183)"><g transform="matrix(1 0 0 1 0 0)"><image x="0" y="0" xlink:href="img_01.png" width="800" height="453" /></g></g></g></g></g></g><g clip-path="url(#7)"><g clip-path="url(#8)"><g clip-path="url(#9)"><g clip-path="url(#10)"><path id="4" transform="matrix(1 0 0 -1 0 842)" d="M312.3504 442.4772L553.3297 442.4772L553.3297 201.4978L312.3504 201.4978z" stroke="none" fill="#1D70B7" fill-rule="nonzero" /></g></g></g></g><g clip-path="url(#11)"><g><g clip-path="url(#12)"><g mask="url(#m1)"><g><g clip-path="url(#14)"><g clip-path="url(#15)"><path id="6" transform="matrix(1 0 0 -1 0 842)" d="M325.3064 227.5694L535.2755 227.5694L535.2755 223.2399L325.3064 223.2399z" stroke="none" fill="#000000" fill-rule="nonzero" /></g></g></g></g><g mask="url(#m2)"><g><g clip-path="url(#19)"><g clip-path="url(#20)"><path id="8" transform="matrix(1 0 0 -1 0 842)" d="M325.3064 227.5694L535.2755 227.5694L535.2755 223.2399L325.3064 223.2399z" stroke="none" fill="#000000" fill-rule="nonzero" /></g></g></g></g></g></g></g><g clip-path="url(#21)"><g clip-path="url(#22)"><g clip-path="url(#23)"><g clip-path="url(#24)"><g clip-path="url(#25)"><g transform="matrix(0.4639122 0 0 0.4647552 312.6528 446.0137)"><g transform="matrix(1 0 0 1 0 0)"><image x="0" y="0" xlink:href="img_03.png" width="280" height="225" /></g></g></g></g></g></g></g><g clip-path="url(#26)"><g clip-path="url(#27)"><g clip-path="url(#28)"><g clip-path="url(#29)"><g clip-path="url(#30)"><g transform="matrix(0.5069227 0 0 0.5075012 422.472 503.0422)"><g transform="matrix(1 0 0 1 0 0)"><image x="0" y="0" xlink:href="img_04.png" width="264" height="209" /></g></g></g></g></g></g></g><g clip-path="url(#31)"><g clip-path="url(#32)"><g clip-path="url(#33)"><g clip-path="url(#34)"><path id="11" transform="matrix(1 0 0 -1 0 842)" d="M26.02656 842.25L273.5603 842.25L273.5603 563.7745L26.02656 563.7745z" stroke="none" fill="#1D70B7" fill-rule="nonzero" /></g></g></g></g><g clip-path="url(#35)"><g><g clip-path="url(#36)"><g mask="url(#m3)"><g><g clip-path="url(#38)"><g clip-path="url(#39)"><path id="13" transform="matrix(1 0 0 -1 0 842)" d="M27.84098 607.0542L265.5563 607.0542L265.5563 602.0034L27.84098 602.0034z" stroke="none" fill="#000000" fill-rule="nonzero" /></g></g></g></g><g mask="url(#m4)"><g><g clip-path="url(#43)"><g clip-path="url(#44)"><path id="15" transform="matrix(1 0 0 -1 0 842)" d="M27.84098 607.0542L265.5563 607.0542L265.5563 602.0034L27.84098 602.0034z" stroke="none" fill="#000000" fill-rule="nonzero" /></g></g></g></g></g></g></g><g clip-path="url(#45)"><g clip-path="url(#46)"><g clip-path="url(#47)"><g clip-path="url(#48)"><g clip-path="url(#49)"><g transform="matrix(0.511226 0 0 0.5117235 40.4904 85.31152)"><g transform="matrix(1 0 0 1 0 0)"><image x="0" y="0" xlink:href="img_06.png" width="415" height="259" /></g></g></g></g></g></g></g><g clip-path="url(#50)"></g><g clip-path="url(#51)"><g clip-path="url(#52)"><g clip-path="url(#53)"><g clip-path="url(#54)"><path id="130" transform="matrix(1 0 0 -1 0 842)" d="M26.02656 539.3652L273.5603 539.3652L273.5603 277.3275L26.02656 277.3275z" stroke="none" fill="#939CAB" fill-rule="nonzero" /></g></g></g></g><g clip-path="url(#55)"><g><g clip-path="url(#56)"><g mask="url(#m5)"><g><g clip-path="url(#58)"><g clip-path="url(#59)"><path id="132" transform="matrix(1 0 0 -1 0 842)" d="M37.84344 319.5574L275.5588 319.5574L275.5588 314.5066L37.84344 314.5066z" stroke="none" fill="#000000" fill-rule="nonzero" /></g></g></g></g><g mask="url(#m6)"><g><g clip-path="url(#63)"><g clip-path="url(#64)"><path id="134" transform="matrix(1 0 0 -1 0 842)" d="M37.84344 319.5574L275.5588 319.5574L275.5588 314.5066L37.84344 314.5066z" stroke="none" fill="#000000" fill-rule="nonzero" /></g></g></g></g></g></g></g><g clip-path="url(#65)"><g clip-path="url(#66)"><g clip-path="url(#67)"><g clip-path="url(#68)"><g clip-path="url(#69)"><g transform="matrix(0.7126264 0 0 0.7109746 52.03584 370.2476)"><g transform="matrix(1 0 0 1 0 0)"><image x="0" y="0" xlink:href="img_08.png" width="278" height="213" /></g></g></g></g></g></g></g><g clip-path="url(#70)"></g><g clip-path="url(#71)"><g clip-path="url(#72)"><g clip-path="url(#73)"><g clip-path="url(#74)"><path id="211" transform="matrix(1 0 0 -1 0 842)" d="M312.3504 740.6551L585.8394 740.6551L585.8394 481.347L312.3504 481.347z" stroke="none" fill="#1D70B7" fill-rule="nonzero" /></g></g></g></g><g clip-path="url(#75)"><g><g clip-path="url(#76)"><g mask="url(#m7)"><g><g clip-path="url(#78)"><g clip-path="url(#79)"><path id="213" transform="matrix(1 0 0 -1 0 842)" d="M330.1379 505.956L567.8533 505.956L567.8533 500.9052L330.1379 500.9052z" stroke="none" fill="#000000" fill-rule="nonzero" /></g></g></g></g><g mask="url(#m8)"><g><g clip-path="url(#83)"><g clip-path="url(#84)"><path id="215" transform="matrix(1 0 0 -1 0 842)" d="M330.1379 505.956L567.8533 505.956L567.8533 500.9052L330.1379 500.9052z" stroke="none" fill="#000000" fill-rule="nonzero" /></g></g></g></g></g></g></g><g clip-path="url(#85)"><g clip-path="url(#86)"><g clip-path="url(#87)"><g clip-path="url(#88)"><g clip-path="url(#89)"><g transform="matrix(0.5069907 0 0 0.5061005 319.38 190.4749)"><g transform="matrix(1 0 0 1 0 0)"><image x="0" y="0" xlink:href="img_10.png" width="271" height="198" /></g></g></g></g></g></g></g><g clip-path="url(#90)"><g clip-path="url(#91)"><g clip-path="url(#92)"><g clip-path="url(#93)"><g clip-path="url(#94)"><g transform="matrix(0.5427594 0 0 0.5419258 456.4344 223.1281)"><g transform="matrix(1 0 0 1 0 0)"><image x="0" y="0" xlink:href="img_11.png" width="217" height="163" /></g></g></g></g></g></g></g><g clip-path="url(#95)"></g><g clip-path="url(#96)"><g clip-path="url(#97)"><g clip-path="url(#98)"><g clip-path="url(#99)"><path id="326" transform="matrix(1 0 0 -1 0 842)" d="M26.02656 269.3604L273.5603 269.3604L273.5603 7.322662L26.02656 7.322662z" stroke="none" fill="#1D70B7" fill-rule="nonzero" /></g></g></g></g><g clip-path="url(#100)"><g><g clip-path="url(#101)"><g mask="url(#m9)"><g><g clip-path="url(#103)"><g clip-path="url(#104)"><path id="328" transform="matrix(1 0 0 -1 0 842)" d="M37.84344 49.55286L275.5588 49.55286L275.5588 44.50209L37.84344 44.50209z" stroke="none" fill="#000000" fill-rule="nonzero" /></g></g></g></g><g mask="url(#m10)"><g><g clip-path="url(#108)"><g clip-path="url(#109)"><path id="330" transform="matrix(1 0 0 -1 0 842)" d="M37.84344 49.55286L275.5588 49.55286L275.5588 44.50209L37.84344 44.50209z" stroke="none" fill="#000000" fill-rule="nonzero" /></g></g></g></g></g></g></g><g clip-path="url(#110)"><g clip-path="url(#111)"><g clip-path="url(#112)"><g clip-path="url(#113)"><g clip-path="url(#114)"><g transform="matrix(0.4694553 0 0 0.4680969 52.03584 646.4252)"><g transform="matrix(1 0 0 1 0 0)"><image x="0" y="0" xlink:href="img_13.png" width="422" height="297" /></g></g></g></g></g></g></g><g clip-path="url(#115)"></g><g clip-path="url(#116)"><g clip-path="url(#117)"><g clip-path="url(#118)"><g clip-path="url(#119)"><g clip-path="url(#120)"><path id="377" transform="matrix(1 0 0 -1 0 842)" d="M289.5963 66.04932C 290.2202 64.65029 290.781 63.3929 291.3424 62.13406C 292.0471 63.43777 292.9211 64.69736 293.3992 66.06113C 293.7583 67.08766 293.6727 68.25377 293.6542 69.34753C 293.6447 69.90294 293.4135 70.89668 293.1707 70.9149C 289.9878 71.15361 286.7872 71.28393 283.5815 71.31665C 283.3564 71.31851 282.791 70.28313 282.8767 69.8414C 282.9584 69.42041 283.6327 68.94138 284.1406 68.85081C 285.1325 68.67285 286.1884 68.74873 287.6077 68.70764C 284.747 64.07722 280.8436 60.96233 276.3457 58.54916C 262.96 51.37163 247.1759 52.79491 234.8375 62.23709C 233.0928 63.57295 231.6375 65.24228 229.886 66.56992C 229.24 67.0598 228.1278 67.01257 227.2298 67.20989C 227.3368 66.34269 227.0985 65.17772 227.5973 64.65164C 245.6874 45.61768 274.4515 47.23859 289.1142 65.55188C 289.3558 65.85197 289.6559 66.11055 289.5963 66.04932z" stroke="none" fill="#000000" fill-rule="nonzero" /><path id="378" transform="matrix(1 0 0 -1 0 842)" d="M287.9551 61.03057C 286.4328 63.04088 284.7789 64.95264 283.0045 66.74483C 282.5014 67.25337 281.9878 67.75032 281.4653 68.23985C 281.1909 68.5784 281.0194 68.96284 280.9509 69.39319C 280.8919 69.70476 280.9128 70.00865 281.0107 70.30356C 281.0593 70.60767 281.1791 70.88464 281.3723 71.13364C 281.6238 71.48149 281.9453 71.74271 282.3376 71.91937C 283.7675 72.39597 285.1996 72.87176 286.6295 73.34835C 288.2001 73.87207 289.7647 74.42085 291.3577 74.87485C 292.1298 75.09616 292.9164 75.26157 293.7206 75.29793C 294.1346 75.35954 294.5381 75.31599 294.9291 75.16808C 295.3193 75.01807 295.6473 74.78142 295.9154 74.46088C 296.1898 74.12233 296.3613 73.73789 296.4298 73.30754C 296.4906 72.89453 296.446 72.49172 296.2969 72.1012C 295.5721 69.16668 294.6127 66.29044 293.4225 63.51057C 293.0833 62.71639 292.723 61.9302 292.3468 61.15249C 292.1696 60.78584 291.9561 60.43069 291.6358 60.16659C 291.4546 60.05458 291.2734 59.94257 291.0922 59.83056C 290.7972 59.68516 290.4912 59.62317 290.1711 59.64329C 289.9638 59.6132 289.763 59.63458 289.5668 59.70821C 289.3598 59.73199 289.1734 59.80307 289.0034 59.92307C 288.5625 60.1596 288.1312 60.54598 287.9507 61.02863C 287.4115 62.46371 287.204 64.02419 287.4535 65.54591C 287.5763 66.29552 287.7706 67.05623 288.0701 67.75642C 288.3657 68.44616 288.7367 69.12628 289.1908 69.72557C 289.696 70.38929 290.3005 71.01756 290.9836 71.5007C 291.605 70.10745 292.227 68.71276 292.8484 67.31951C 292.8017 67.30734 292.7535 67.29453 292.7074 67.28091C 292.9119 67.34089 293.1163 67.40086 293.3207 67.46085C 293.0656 67.37823 292.8275 67.26513 292.5968 67.1276C 292.778 67.23961 292.9592 67.35161 293.1404 67.46362C 292.3753 66.98897 291.7866 66.3019 291.0806 65.75311C 290.9194 65.62749 290.7501 65.51213 290.5768 65.40191C 290.2464 65.19566 289.9181 64.97301 289.5589 64.81973C 288.8007 64.49718 288.0598 64.38509 287.2418 64.41879C 286.8298 64.46554 286.4529 64.60931 286.115 64.8485C 285.8447 65.02597 285.6393 65.25664 285.4973 65.53987C 285.3038 65.79839 285.1879 66.09326 285.151 66.42161C 285.0902 66.83462 285.1348 67.23743 285.2839 67.62796C 285.6501 68.3423 286.0384 69.02664 286.5762 69.62517C 287.1169 70.22499 287.6707 70.78386 288.3492 71.22679C 288.9706 69.83355 289.5925 68.43886 290.2139 67.04561C 288.9771 66.84921 287.6945 66.81779 286.4489 66.94498C 285.8551 67.00592 285.2487 67.33673 284.8724 67.79447C 284.4975 68.24931 284.2546 68.96925 284.3463 69.56284C 284.4386 70.15852 284.7034 70.76523 285.2011 71.13795C 285.7158 71.52342 286.324 71.73405 286.9743 71.66715C 287.4741 71.61452 287.9767 71.59435 288.4785 71.60329C 288.2737 71.59861 288.0669 71.59473 287.8622 71.59006C 288.4124 71.60329 288.9601 71.65349 289.5053 71.74066C 289.71 71.74534 289.9169 71.74922 290.1216 71.75389C 290.4359 71.73119 290.722 71.63527 290.9808 71.46822C 291.4265 71.22865 291.8432 70.84785 292.0335 70.36266C 292.1876 69.97046 292.2533 69.55794 292.2242 69.13603C 292.2007 68.82233 292.104 68.53659 291.936 68.278C 291.8115 67.99203 291.6224 67.75348 291.3694 67.56092C 290.8995 67.25433 290.4712 66.89351 290.0869 66.48473C 290.2272 66.63393 290.3683 66.78523 290.5086 66.93443C 290.1283 66.52052 289.8016 66.06815 289.5308 65.57652C 289.6269 65.75456 289.7231 65.93259 289.82 66.11272C 289.7889 66.05381 289.7564 65.99425 289.726 65.93388C 289.0735 67.00313 288.4205 68.07381 287.7666 69.14241C 287.834 69.13951 287.8986 69.13887 287.9661 69.13951C 287.7613 69.13484 287.5545 69.13096 287.3497 69.12628C 287.5469 69.13625 287.7387 69.16983 287.9287 69.22334C 287.7242 69.16336 287.5198 69.10339 287.3154 69.04341C 287.5934 69.12929 287.8512 69.2529 288.0994 69.40172C 287.9182 69.2897 287.737 69.1777 287.5558 69.06569C 288.1703 69.44545 288.6722 69.95692 289.2108 70.4328C 289.489 70.67816 289.7765 70.91035 290.0901 71.10741C 290.3979 71.30186 290.713 71.51515 291.0493 71.66516C 291.3981 71.82243 291.7752 71.91611 292.1433 72.01442C 292.3481 72.01909 292.5549 72.02297 292.7596 72.02765C 293.0739 72.00494 293.36 71.90903 293.6188 71.74197C 294.0646 71.5024 294.4812 71.12161 294.6715 70.63641C 294.8256 70.24421 294.8914 69.8317 294.8622 69.40979C 294.8388 69.09609 294.742 68.81035 294.574 68.55176C 294.4495 68.26578 294.2604 68.02724 294.0074 67.83467C 293.6691 67.59544 293.3571 67.32461 293.0722 67.02426C 293.2125 67.17346 293.3536 67.32476 293.4939 67.47397C 293.1079 67.061 292.7803 66.603 292.5086 66.10928C 292.6048 66.28732 292.701 66.46536 292.7979 66.64548C 292.5117 66.11412 292.2951 65.55141 292.1492 64.96654C 292.1972 65.16293 292.2452 65.35934 292.294 65.55784C 292.1575 64.99099 292.0907 64.41193 292.099 63.82823C 292.0948 64.03255 292.0913 64.23895 292.0871 64.44327C 292.0985 63.87999 292.1812 63.32428 292.337 62.78386C 292.2774 62.98772 292.2178 63.19158 292.1581 63.39544C 292.2014 63.25183 292.2495 63.10871 292.3014 62.96897C 290.8351 62.92844 289.371 62.8871 287.9047 62.84656C 289.2208 65.56998 290.3186 68.39705 291.176 71.29539C 291.4218 72.12407 291.6464 72.9572 291.8534 73.79462C 292.7126 72.72926 293.5698 71.66469 294.4291 70.59933C 293.5758 70.56012 292.7442 70.37468 291.9259 70.13621C 292.1303 70.19618 292.3347 70.25616 292.5392 70.31615C 291.1649 69.90945 289.8113 69.42533 288.4521 68.97334C 287.0582 68.50938 285.6658 68.04606 284.2719 67.58209C 284.5627 68.8086 284.8535 70.0351 285.1442 71.26161C 286.9856 69.53743 288.7121 67.69272 290.308 65.73949C 290.7601 65.18565 291.2019 64.62374 291.634 64.05232C 292.0152 63.5483 292.2304 62.9217 292.1602 62.28395C 292.0969 61.71679 291.7707 61.05672 291.3054 60.70883C 290.8047 60.33481 290.1683 60.08215 289.5321 60.17964C 288.9348 60.27191 288.331 60.53457 287.9551 61.03057z" stroke="none" fill="#000000" fill-rule="nonzero" /></g></g></g></g></g><g clip-path="url(#121)"><g><g clip-path="url(#122)"><g clip-path="url(#123)"><g clip-path="url(#124)"><path id="379" transform="matrix(1 0 0 -1 0 842)" d="M302.2762 170.6172L461.9696 170.6172L461.9696 44.43972L302.2762 44.43972z" stroke="none" fill="#D10404" fill-rule="nonzero" fill-opacity="0.6588235" /></g></g></g></g></g><g clip-path="url(#125)"><g transform="matrix(0.1246875 0 0 0.1241722 482.3712 13.39929)"><g transform="matrix(1 0 0 1 0 0)"><image x="0" y="0" xlink:href="img_14.png" width="800" height="453" /></g></g></g><g clip-path="url(#126)"></g></g></g></svg>