<svg xmlns="http://www.w3.org/2000/svg" xmlns:xlink="http://www.w3.org/1999/xlink" id="body_1" preserveAspectRatio="xMinYMin meet" viewBox="0 0 793 1123"><defs><clipPath id="1"><path id="" clip-rule="evenodd" transform="matrix(1 0 0 1 0 0)" d="M0 842L0 -0.25L0 -0.25L595.5 -0.25L595.5 -0.25L595.5 842L595.5 842L0 842z" /></clipPath><clipPath id="2"><path id="" clip-rule="evenodd" transform="matrix(1 0 0 1 0 0)" d="M0 -0.249939L595.5 -0.249939L595.5 -0.249939L595.5 842.0001L595.5 842.0001L0 842.0001z" /></clipPath><clipPath id="3"><path id="" clip-rule="evenodd" transform="matrix(1 0 0 1 0 0)" d="M0 -0.249939L595.5 -0.249939L595.5 -0.249939L595.5 842.0001L595.5 842.0001L0 842.0001z" /></clipPath><clipPath id="4"><path id="" clip-rule="evenodd" transform="matrix(1 0 0 1 0 0)" d="M24.9282 299.514L85.67821 299.514L85.67821 299.514L85.67821 336.264L85.67821 336.264L24.9282 336.264z" /></clipPath><clipPath id="5"><path id="" clip-rule="evenodd" transform="matrix(1 0 0 1 0 0)" d="M26.88 301.9101L80.64 301.9101L80.64 301.9101L80.64 322.0701L80.64 322.0701L26.88 322.0701z" /></clipPath><clipPath id="6"><path id="" clip-rule="evenodd" transform="matrix(1 0 0 1 0 0)" d="M23.08231 351.8068L83.83231 351.8068L83.83231 351.8068L83.83231 388.5568L83.83231 388.5568L23.08231 388.5568z" /></clipPath><clipPath id="7"><path id="" clip-rule="evenodd" transform="matrix(1 0 0 1 0 0)" d="M25.2 354.2301L78.96 354.2301L78.96 354.2301L78.96 374.3901L78.96 374.3901L25.2 374.3901z" /></clipPath><clipPath id="8"><path id="" clip-rule="evenodd" transform="matrix(1 0 0 1 0 0)" d="M23.08231 408.2205L83.83231 408.2205L83.83231 408.2205L83.83231 444.9705L83.83231 444.9705L23.08231 444.9705z" /></clipPath><clipPath id="9"><path id="" clip-rule="evenodd" transform="matrix(1 0 0 1 0 0)" d="M25.2 410.6301L78.96 410.6301L78.96 410.6301L78.96 430.7901L78.96 430.7901L25.2 430.7901z" /></clipPath><clipPath id="10"><path id="" clip-rule="evenodd" transform="matrix(1 0 0 1 0 0)" d="M0 -0.249939L595.5 -0.249939L595.5 -0.249939L595.5 842.0001L595.5 842.0001L0 842.0001z" /></clipPath><clipPath id="11"><path id="" clip-rule="evenodd" transform="matrix(1 0 0 1 0 0)" d="M24.9282 486.8343L85.83194 486.8343L85.83194 486.8343L85.83194 524.1378L85.83194 524.1378L24.9282 524.1378z" /></clipPath><clipPath id="12"><path id="" clip-rule="evenodd" transform="matrix(1 0 0 1 0 0)" d="M26.88 489.1101L80.64 489.1101L80.64 489.1101L80.64 509.5101L80.64 509.5101L26.88 509.5101z" /></clipPath><clipPath id="13"><path id="" clip-rule="evenodd" transform="matrix(1 0 0 1 0 0)" d="M0 -0.249939L595.5 -0.249939L595.5 -0.249939L595.5 842.0001L595.5 842.0001L0 842.0001z" /></clipPath><clipPath id="14"><path id="" clip-rule="evenodd" transform="matrix(1 0 0 1 0 0)" d="M24.9282 555.1926L85.83194 555.1926L85.83194 555.1926L85.83194 592.4961L85.83194 592.4961L24.9282 592.4961z" /></clipPath><clipPath id="15"><path id="" clip-rule="evenodd" transform="matrix(1 0 0 1 0 0)" d="M26.88 557.5101L80.64 557.5101L80.64 557.5101L80.64 577.67L80.64 577.67L26.88 577.67z" /></clipPath><clipPath id="16"><path id="" clip-rule="evenodd" transform="matrix(1 0 0 1 0 0)" d="M0 -0.249939L595.5 -0.249939L595.5 -0.249939L595.5 842.0001L595.5 842.0001L0 842.0001z" /></clipPath><clipPath id="17"><path id="" clip-rule="evenodd" transform="matrix(1 0 0 1 0 0)" d="M24.9282 616.5513L85.83194 616.5513L85.83194 616.5513L85.83194 653.8548L85.83194 653.8548L24.9282 653.8548z" /></clipPath><clipPath id="18"><path id="" clip-rule="evenodd" transform="matrix(1 0 0 1 0 0)" d="M26.88 618.9501L80.64 618.9501L80.64 618.9501L80.64 639.11L80.64 639.11L26.88 639.11z" /></clipPath><clipPath id="19"><path id="" clip-rule="evenodd" transform="matrix(1 0 0 1 0 0)" d="M0 -0.249939L595.5 -0.249939L595.5 -0.249939L595.5 842.0001L595.5 842.0001L0 842.0001z" /></clipPath><clipPath id="20"><path id="" clip-rule="evenodd" transform="matrix(1 0 0 1 0 0)" d="M503.015 5.097351L584.765 5.097351L584.765 5.097351L584.765 51.59735L584.765 51.59735L503.015 51.59735z" /></clipPath></defs><g transform="matrix(1.333333 0 0 1.333333 0 0)"><g clip-path="url(#1)"><g clip-path="url(#2)"><path id="1" transform="matrix(1 0 0 -1 0 842)" d="M0 842.2499L595.4999 842.2499L595.4999 -6.103516E-05L0 -6.103516E-05z" stroke="none" fill="#FFFFFF" fill-rule="nonzero" /></g><g clip-path="url(#3)"><path id="2" transform="matrix(1 0 0 -1 0 842)" d="M0 842.2499L595.4999 842.2499L595.4999 -6.103516E-05L0 -6.103516E-05z" stroke="none" fill="#E9FCFF" fill-rule="nonzero" /></g><g clip-path="url(#4)"><path id="3" transform="matrix(1 0 0 -1 0 842)" d="M29.85254 508.6327C 28.70029 507.8807 28.53049 506.692 28.50623 505.9643C 28.50623 505.746 28.30004 505.6247 28.16662 505.746C 24.41879 509.0087 25.19504 521.8168 25.23142 523.1389C 25.43762 531.1075 25.00097 529.6763 25.82574 537.6207C 25.82574 537.6207 26.18961 541.126 28.71242 541.3322C 42.43021 542.4602 51.29644 541.7446 65.05062 541.5869C 70.21754 541.5262 74.71736 539.5493 78.259 536.2259C 81.12142 533.5454 84.29919 530.2949 85.05119 526.5107C 85.90021 522.2413 82.44347 519.0272 79.5204 516.0555C 75.09335 511.5436 71.297 509.8456 64.3714 509.8577C 56.30568 509.8819 53.15216 509.8577 45.07431 509.8213C 39.85888 509.8092 32.03574 510.0517 29.84041 508.6205L29.84041 508.6205L29.85254 508.6327z" stroke="none" fill="#8EDFD2" fill-rule="nonzero" /><g><g clip-path="url(#5)"><path id="4" transform="matrix(1 0 0 -1 0 842)" d="M30.22853 522.6294C 30.41047 525.4191 30.34982 528.2693 30.62879 531.0469C 30.78646 532.6357 31.2231 534.2489 32.1449 535.3041C 33.6974 537.0628 36.19595 536.8323 38.13658 536.9052C 40.76855 537.0022 43.3884 536.8688 46.02037 536.8688C 54.5955 536.8688 41.59332 537.0507 50.16845 536.9537C 54.8866 536.893 59.77454 536.9901 64.44418 536.0319C 67.05189 535.4861 69.62322 534.6249 72.049 533.2665C 74.58394 531.8353 76.54883 529.5914 78.8897 527.7963C 80.00556 526.9473 80.8182 528.0268 80.52711 529.5429C 80.21175 531.2288 78.11346 532.6115 76.9612 533.6303C 75.10548 535.2678 73.23763 536.9901 71.0423 538.0695C 67.75537 539.6827 64.15308 539.5493 60.69635 539.6099C 57.02129 539.6705 53.35836 539.9495 49.69543 539.9738C 44.0191 540.0101 38.33065 540.0101 32.64219 539.9738C 28.56688 539.9495 46.08102 539.901 42.0057 539.8161C 39.95592 539.7797 37.894 539.7312 35.84422 539.6827C 32.8969 539.6099 28.36068 539.3431 27.59656 534.5764C 27.24483 532.3568 27.19631 530.0887 27.19631 527.8206C 27.19631 525.7587 27.05076 523.5755 27.37824 521.5378C 27.74211 519.2819 29.68274 519.9732 30.11938 521.7682C 30.19215 522.0472 30.22854 522.3383 30.24067 522.6415L30.24067 522.6415L30.22853 522.6294z" stroke="none" fill="#FFFFFF" fill-rule="nonzero" fill-opacity="0.09803922" /></g></g><path id="5" transform="matrix(1 0 0 -1 0 842)" d="M29.85254 508.6327C 30.31343 508.9237 30.81072 509.0693 31.30801 509.2027C 32.3147 509.4453 33.3214 509.5666 34.34023 509.6636C 37.8091 509.9547 41.53267 509.9426 45.0258 510.0154C 50.64148 510.0032 53.89203 510.3671 57.04554 510.3549C 58.35546 510.3549 63.78922 510.3549 65.03849 510.3549C 65.91177 510.3671 66.80931 510.4035 67.68259 510.5005C 72.3037 510.9371 75.71192 512.7201 79.33847 516.468C 80.70904 517.8749 82.15238 519.2454 83.31675 520.9314C 84.44474 522.5688 85.20886 524.5701 84.61455 526.7775C 84.06874 528.9001 82.88011 530.5981 81.63084 532.1263C 80.89097 532.9996 80.11472 533.8244 79.31421 534.6128C 78.5137 535.389 77.70107 536.1774 76.85204 536.8566C 73.86833 539.2581 70.43585 540.6044 66.94273 540.9683C 66.20287 541.0532 65.42661 541.0775 64.68675 541.0775C 52.06056 541.2352 59.92009 541.5141 47.35455 541.4292C 41.13242 541.3686 34.91029 541.2958 28.70029 540.8228C 27.91191 540.75 27.20843 540.2163 26.77179 539.343C 26.49283 538.7972 26.29876 538.1423 26.22599 537.4873L26.22599 537.4873L26.20173 537.2448L26.20173 537.2448L26.15322 536.7596C 25.99554 535.1343 25.84999 533.4969 25.75296 531.8838C 25.68019 530.7679 25.68019 529.1063 25.65593 527.9661C 25.63167 526.3044 25.58316 524.6671 25.51038 523.0054C 25.46187 522.0593 25.40122 521.0042 25.37697 520.0581C 25.27994 515.8857 25.35271 507.7715 28.51835 505.5155C 28.51835 505.6611 28.51835 505.8309 28.53048 505.9886C 28.56687 507.1893 29.05202 508.1232 29.88892 508.6448L29.88892 508.6448L29.85254 508.6327zM29.85254 508.6327C 29.4159 508.3416 29.01564 507.9171 28.78519 507.347C 28.6639 507.068 28.59113 506.7527 28.55474 506.4373C 28.51836 506.122 28.51836 506.122 28.51836 505.9643C 28.51836 505.9643 28.16662 505.7217 28.16662 505.7217C 27.85127 506.0007 27.56017 506.3403 27.3176 506.7163C 25.74084 509.2391 25.32845 512.9506 25.08588 516.0798C 24.91607 518.3843 24.90394 520.7252 24.96459 523.0297C 24.98885 524.6671 24.97672 526.3287 24.96459 527.954C 24.95246 529.2761 24.91607 530.6102 24.96459 531.9323C 25.02523 533.5939 25.19504 535.2435 25.36484 536.8809L25.36484 536.8809L25.41336 537.366L25.41336 537.366L25.43762 537.6086C 25.53465 538.4213 25.7651 539.1854 26.10471 539.8767C 26.5656 540.8107 27.32973 541.5262 28.17875 541.7324C 28.43346 541.8052 28.72455 541.8173 28.99138 541.8416C 48.14293 543.006 46.25082 542.2297 65.43875 542.0721C 70.81185 541.9144 75.55425 539.7676 79.76299 535.4133C 81.80064 533.3756 83.89894 531.1561 85.03906 528.0753C 86.99181 522.8477 83.23186 519.197 80.40582 516.3102C 79.39912 515.2793 78.38029 514.2605 77.28869 513.3872C 75.74831 512.1379 74.07452 511.1555 72.32796 510.5248C 69.35638 509.4332 66.20287 509.3483 63.13425 509.3725C 56.17226 509.3725 42.93963 509.8819 35.86847 509.7121C 34.34023 509.6393 32.81199 509.5544 31.30801 509.1906C 30.81072 509.0693 30.31343 508.9116 29.85254 508.6327z" stroke="none" fill="#000000" fill-rule="nonzero" /></g><g clip-path="url(#6)"><path id="6" transform="matrix(1 0 0 -1 0 842)" d="M28.00665 456.34C 26.8544 455.588 26.6846 454.3994 26.66034 453.6716C 26.66034 453.4533 26.45415 453.332 26.32073 453.4533C 22.5729 456.7159 23.34915 469.5241 23.38553 470.8461C 23.59173 478.8148 23.15508 477.3836 23.97985 485.3281C 23.97985 485.3281 24.34372 488.8333 26.86653 489.0395C 40.58432 490.1675 49.45055 489.4519 63.20473 489.2942C 68.37164 489.2336 72.87147 487.2566 76.41311 483.9332C 79.27553 481.2527 82.4533 478.0022 83.2053 474.218C 84.05432 469.9486 80.59758 466.7344 77.67451 463.7628C 73.24747 459.2509 69.45112 457.5529 62.52551 457.565C 54.45979 457.5892 51.30627 457.565 43.22842 457.5286C 38.01299 457.5165 30.18985 457.759 27.99452 456.3278L27.99452 456.3278L28.00665 456.34z" stroke="none" fill="#8EDFD2" fill-rule="nonzero" /><g><g clip-path="url(#7)"><path id="7" transform="matrix(1 0 0 -1 0 842)" d="M28.38264 470.3367C 28.56458 473.1263 28.50393 475.9766 28.7829 478.7542C 28.94057 480.343 29.37721 481.9562 30.29901 483.0114C 31.85151 484.7701 34.35007 484.5396 36.29069 484.6124C 38.92266 484.7094 41.5425 484.576 44.17448 484.576C 52.74961 484.576 39.74743 484.758 48.32256 484.6609C 53.04071 484.6003 57.92866 484.6973 62.59829 483.7391C 65.206 483.1933 67.77733 482.3322 70.20311 480.9738C 72.73805 479.5425 74.70293 477.2987 77.04382 475.5036C 78.15968 474.6546 78.97231 475.7341 78.68121 477.2502C 78.36586 478.9361 76.26756 480.3188 75.11532 481.3376C 73.2596 482.975 71.39174 484.6973 69.19641 485.7768C 65.90948 487.3899 62.3072 487.2565 58.85046 487.3172C 55.1754 487.3778 51.51247 487.6568 47.84954 487.681C 42.17321 487.7174 36.48476 487.7174 30.7963 487.681C 26.72099 487.6568 44.23513 487.6082 40.15981 487.5233C 38.11003 487.487 36.04811 487.4384 33.99833 487.3899C 31.051 487.3172 26.51479 487.0503 25.75067 482.2837C 25.39894 480.0641 25.35042 477.796 25.35042 475.5279C 25.35042 473.4659 25.20487 471.2827 25.53235 469.2451C 25.89622 466.9891 27.83685 467.6805 28.27349 469.4755C 28.34626 469.7545 28.38265 470.0456 28.39478 470.3488L28.39478 470.3488L28.38264 470.3367z" stroke="none" fill="#FFFFFF" fill-rule="nonzero" fill-opacity="0.09803922" /></g></g><path id="8" transform="matrix(1 0 0 -1 0 842)" d="M28.00665 456.34C 28.46754 456.631 28.96483 456.7766 29.46212 456.91C 30.46881 457.1526 31.47551 457.2739 32.49434 457.3709C 35.96321 457.662 39.68678 457.6499 43.17991 457.7227C 48.79559 457.7105 52.04613 458.0744 55.19965 458.0623C 56.50957 458.0623 61.94333 458.0623 63.1926 458.0623C 64.06589 458.0744 64.96342 458.1108 65.8367 458.2078C 70.45782 458.6445 73.86604 460.4274 77.49258 464.1752C 78.86314 465.5822 80.30649 466.9528 81.47086 468.6387C 82.59885 470.2761 83.36297 472.2773 82.76865 474.4848C 82.22285 476.6074 81.03423 478.3054 79.78494 479.8336C 79.04508 480.7069 78.26883 481.5317 77.46832 482.3201C 76.66782 483.0963 75.85518 483.8847 75.00616 484.5639C 72.02245 486.9655 68.58997 488.3118 65.09684 488.6756C 64.35697 488.7605 63.58073 488.7848 62.84086 488.7848C 50.21467 488.9425 58.0742 489.2214 45.50865 489.1365C 39.28653 489.0759 33.0644 489.0031 26.8544 488.5301C 26.06602 488.4573 25.36254 487.9236 24.9259 487.0504C 24.64694 486.5045 24.45287 485.8496 24.3801 485.1946L24.3801 485.1946L24.35584 484.9521L24.35584 484.9521L24.30733 484.4669C 24.14965 482.8416 24.0041 481.2042 23.90707 479.5911C 23.8343 478.4752 23.8343 476.8136 23.81004 475.6734C 23.78578 474.0118 23.73727 472.3744 23.66449 470.7127C 23.61598 469.7667 23.55533 468.7115 23.53108 467.7654C 23.43405 463.593 23.50682 455.4788 26.67246 453.2228C 26.67246 453.3684 26.67246 453.5382 26.68459 453.6959C 26.72098 454.8966 27.20613 455.8305 28.04303 456.3521L28.04303 456.3521L28.00665 456.34zM28.00665 456.34C 27.57001 456.0489 27.16975 455.6244 26.9393 455.0543C 26.81801 454.7753 26.74524 454.46 26.70885 454.1446C 26.67247 453.8293 26.67247 453.8293 26.67247 453.6716C 26.67247 453.6716 26.32073 453.429 26.32073 453.429C 26.00538 453.708 25.71428 454.0476 25.47171 454.4236C 23.89495 456.9464 23.48256 460.6579 23.23999 463.7871C 23.07018 466.0916 23.05805 468.4325 23.1187 470.737C 23.14296 472.3744 23.13083 474.036 23.1187 475.6613C 23.10657 476.9834 23.07018 478.3175 23.1187 479.6396C 23.17934 481.3012 23.34915 482.9508 23.51895 484.5882L23.51895 484.5882L23.56747 485.0733L23.56747 485.0733L23.59173 485.3159C 23.68876 486.1286 23.91921 486.8927 24.25882 487.584C 24.71971 488.5179 25.48384 489.2336 26.33286 489.4398C 26.58757 489.5125 26.87866 489.5247 27.14549 489.5489C 46.29704 490.7133 44.40493 489.937 63.59286 489.7794C 68.96596 489.6217 73.70837 487.4749 77.9171 483.1206C 79.95475 481.0829 82.05305 478.8633 83.19317 475.7826C 85.14593 470.5551 81.38596 466.9042 78.55993 464.0175C 77.55323 462.9866 76.5344 461.9678 75.44279 461.0945C 73.90243 459.8452 72.22864 458.8628 70.48207 458.2321C 67.51049 457.1405 64.35698 457.0556 61.28837 457.0798C 54.32637 457.0798 41.09373 457.5892 34.02258 457.4194C 32.49434 457.3466 30.9661 457.2617 29.46212 456.8979C 28.96483 456.7766 28.46754 456.6189 28.00665 456.34z" stroke="none" fill="#000000" fill-rule="nonzero" /></g><g clip-path="url(#8)"><path id="9" transform="matrix(1 0 0 -1 0 842)" d="M28.00665 399.9262C 26.8544 399.1742 26.6846 397.9856 26.66034 397.2578C 26.66034 397.0395 26.45415 396.9182 26.32073 397.0395C 22.5729 400.3022 23.34915 413.1103 23.38553 414.4324C 23.59173 422.4011 23.15508 420.9698 23.97985 428.9143C 23.97985 428.9143 24.34372 432.4196 26.86653 432.6257C 40.58432 433.7537 49.45055 433.0381 63.20473 432.8804C 68.37164 432.8198 72.87147 430.8428 76.41311 427.5195C 79.27553 424.839 82.4533 421.5884 83.2053 417.8042C 84.05432 413.5349 80.59758 410.3207 77.67451 407.3491C 73.24747 402.8372 69.45112 401.1391 62.52551 401.1512C 54.45979 401.1755 51.30627 401.1512 43.22842 401.1148C 38.01299 401.1027 30.18985 401.3453 27.99452 399.9141L27.99452 399.9141L28.00665 399.9262z" stroke="none" fill="#8EDFD2" fill-rule="nonzero" /><g><g clip-path="url(#9)"><path id="10" transform="matrix(1 0 0 -1 0 842)" d="M28.38264 413.923C 28.56458 416.7126 28.50393 419.5629 28.7829 422.3404C 28.94057 423.9293 29.37721 425.5424 30.29901 426.5977C 31.85151 428.3564 34.35007 428.1259 36.29069 428.1987C 38.92266 428.2957 41.5425 428.1623 44.17448 428.1623C 52.74961 428.1623 39.74743 428.3442 48.32256 428.2472C 53.04071 428.1866 57.92866 428.2836 62.59829 427.3254C 65.206 426.7796 67.77733 425.9185 70.20311 424.56C 72.73805 423.1288 74.70293 420.8849 77.04382 419.0899C 78.15968 418.2408 78.97231 419.3203 78.68121 420.8365C 78.36586 422.5224 76.26756 423.9051 75.11532 424.9239C 73.2596 426.5613 71.39174 428.2836 69.19641 429.3631C 65.90948 430.9762 62.3072 430.8428 58.85046 430.9034C 55.1754 430.9641 51.51247 431.243 47.84954 431.2673C 42.17321 431.3037 36.48476 431.3037 30.7963 431.2673C 26.72099 431.243 44.23513 431.1945 40.15981 431.1096C 38.11003 431.0732 36.04811 431.0247 33.99833 430.9762C 31.051 430.9034 26.51479 430.6366 25.75067 425.8699C 25.39894 423.6504 25.35042 421.3822 25.35042 419.1141C 25.35042 417.0522 25.20487 414.869 25.53235 412.8314C 25.89622 410.5754 27.83685 411.2667 28.27349 413.0618C 28.34626 413.3408 28.38265 413.6319 28.39478 413.9351L28.39478 413.9351L28.38264 413.923z" stroke="none" fill="#FFFFFF" fill-rule="nonzero" fill-opacity="0.09803922" /></g></g><path id="11" transform="matrix(1 0 0 -1 0 842)" d="M28.00665 399.9262C 28.46754 400.2173 28.96483 400.3629 29.46212 400.4963C 30.46881 400.7388 31.47551 400.8601 32.49434 400.9572C 35.96321 401.2483 39.68678 401.2361 43.17991 401.3089C 48.79559 401.2968 52.04613 401.6606 55.19965 401.6485C 56.50957 401.6485 61.94333 401.6485 63.1926 401.6485C 64.06589 401.6606 64.96342 401.697 65.8367 401.7941C 70.45782 402.2307 73.86604 404.0136 77.49258 407.7615C 78.86314 409.1684 80.30649 410.539 81.47086 412.2249C 82.59885 413.8623 83.36297 415.8636 82.76865 418.071C 82.22285 420.1936 81.03423 421.8917 79.78494 423.4199C 79.04508 424.2932 78.26883 425.118 77.46832 425.9063C 76.66782 426.6826 75.85518 427.4709 75.00616 428.1502C 72.02245 430.5517 68.58997 431.898 65.09684 432.2619C 64.35697 432.3468 63.58073 432.371 62.84086 432.371C 50.21467 432.5287 58.0742 432.8077 45.50865 432.7228C 39.28653 432.6621 33.0644 432.5894 26.8544 432.1163C 26.06602 432.0435 25.36254 431.5099 24.9259 430.6366C 24.64694 430.0908 24.45287 429.4358 24.3801 428.7809L24.3801 428.7809L24.35584 428.5383L24.35584 428.5383L24.30733 428.0531C 24.14965 426.4279 24.0041 424.7905 23.90707 423.1773C 23.8343 422.0615 23.8343 420.3998 23.81004 419.2597C 23.78578 417.598 23.73727 415.9606 23.66449 414.299C 23.61598 413.3529 23.55533 412.2977 23.53108 411.3516C 23.43405 407.1793 23.50682 399.0651 26.67246 396.8091C 26.67246 396.9546 26.67246 397.1244 26.68459 397.2821C 26.72098 398.4828 27.20613 399.4168 28.04303 399.9383L28.04303 399.9383L28.00665 399.9262zM28.00665 399.9262C 27.57001 399.6351 27.16975 399.2106 26.9393 398.6405C 26.81801 398.3616 26.74524 398.0462 26.70885 397.7309C 26.67247 397.4155 26.67247 397.4155 26.67247 397.2578C 26.67247 397.2578 26.32073 397.0153 26.32073 397.0153C 26.00538 397.2942 25.71428 397.6339 25.47171 398.0098C 23.89495 400.5327 23.48256 404.2441 23.23999 407.3734C 23.07018 409.6779 23.05805 412.0187 23.1187 414.3232C 23.14296 415.9606 23.13083 417.6223 23.1187 419.2476C 23.10657 420.5696 23.07018 421.9038 23.1187 423.2258C 23.17934 424.8875 23.34915 426.537 23.51895 428.1744L23.51895 428.1744L23.56747 428.6596L23.56747 428.6596L23.59173 428.9022C 23.68876 429.7148 23.91921 430.4789 24.25882 431.1703C 24.71971 432.1042 25.48384 432.8198 26.33286 433.026C 26.58757 433.0988 26.87866 433.1109 27.14549 433.1352C 46.29704 434.2995 44.40493 433.5233 63.59286 433.3656C 68.96596 433.2079 73.70837 431.0611 77.9171 426.7068C 79.95475 424.6692 82.05305 422.4496 83.19317 419.3688C 85.14593 414.1413 81.38596 410.4905 78.55993 407.6038C 77.55323 406.5728 76.5344 405.554 75.44279 404.6807C 73.90243 403.4315 72.22864 402.449 70.48207 401.8183C 67.51049 400.7267 64.35698 400.6418 61.28837 400.6661C 54.32637 400.6661 41.09373 401.1755 34.02258 401.0057C 32.49434 400.9329 30.9661 400.848 29.46212 400.4841C 28.96483 400.3629 28.46754 400.2052 28.00665 399.9262z" stroke="none" fill="#000000" fill-rule="nonzero" /></g><g clip-path="url(#10)"></g><g clip-path="url(#11)"><path id="400" transform="matrix(1 0 0 -1 0 842)" d="M29.85233 321.314C 28.70014 320.562 28.53034 319.3735 28.50608 318.6458C 28.50608 318.4275 28.2999 318.3062 28.16649 318.4275C 24.41881 321.69 25.19503 334.4976 25.23141 335.8196C 25.4376 343.788 25.00097 342.3568 25.8257 350.3009C 25.8257 350.3009 26.18956 353.806 28.71227 354.0122C 42.4295 355.1401 51.29536 354.4246 65.04897 354.2669C 70.21568 354.2063 74.71532 352.2293 78.25681 348.9061C 81.11911 346.2258 84.29675 342.9753 85.04871 339.1913C 85.89771 334.9221 82.44111 331.7081 79.51816 328.7366C 75.09129 324.2248 71.2951 322.5269 64.36978 322.539C 56.30439 322.5632 53.151 322.539 45.07349 322.5026C 39.85827 322.4905 32.03545 322.733 29.8402 321.3019L29.8402 321.3019L29.85233 321.314z" stroke="none" fill="#8EDFD2" fill-rule="nonzero" /><g><g clip-path="url(#12)"><path id="401" transform="matrix(1 0 0 -1 0 842)" d="M30.22832 335.3102C 30.41024 338.0997 30.3496 340.9499 30.62855 343.7273C 30.78622 345.3161 31.22285 346.9292 32.1446 347.9843C 33.69704 349.743 36.19549 349.5125 38.13604 349.5853C 40.7679 349.6823 43.38764 349.5489 46.0195 349.5489C 54.59428 349.5489 41.59263 349.7308 50.16742 349.6338C 54.88537 349.5732 59.77312 349.6702 64.44255 348.7121C 67.05016 348.1663 69.62138 347.3051 72.04707 345.9468C 74.5819 344.5156 76.54671 342.2719 78.88749 340.4769C 80.0033 339.6279 80.8159 340.7073 80.52482 342.2234C 80.20948 343.9092 78.11127 345.2918 76.95907 346.3106C 75.10342 347.948 73.23565 349.6702 71.04041 350.7496C 67.75361 352.3627 64.15147 352.2293 60.69488 352.2899C 57.01997 352.3506 53.35719 352.6295 49.69441 352.6538C 44.01832 352.6902 38.33009 352.6902 32.64187 352.6538C 28.56673 352.6295 46.08015 352.581 42.005 352.4961C 39.9553 352.4597 37.89347 352.4112 35.84377 352.3627C 32.89657 352.2899 28.36054 352.0231 27.59645 347.2567C 27.24473 345.0371 27.19622 342.7691 27.19622 340.5011C 27.19622 338.4393 27.05067 336.2562 27.37814 334.2186C 27.74199 331.9627 29.68254 332.6541 30.11916 334.449C 30.19193 334.728 30.22832 335.0191 30.24045 335.3223L30.24045 335.3223L30.22832 335.3102z" stroke="none" fill="#FFFFFF" fill-rule="nonzero" fill-opacity="0.09803922" /></g></g><path id="402" transform="matrix(1 0 0 -1 0 842)" d="M29.85233 321.314C 30.31321 321.6051 30.81048 321.7506 31.30774 321.884C 32.3144 322.1266 33.32106 322.2479 34.33984 322.3449C 37.80857 322.636 41.53199 322.6239 45.02497 322.6967C 50.64043 322.6845 53.89084 323.0484 57.04422 323.0363C 58.35409 323.0363 63.78762 323.0363 65.03684 323.0363C 65.91009 323.0484 66.80759 323.0847 67.68083 323.1818C 72.30176 323.6184 75.70984 325.4013 79.33624 329.149C 80.70674 330.5558 82.15002 331.9264 83.31435 333.6122C 84.44229 335.2495 85.20638 337.2507 84.61209 339.4581C 84.06631 341.5806 82.87773 343.2786 81.6285 344.8067C 80.88867 345.68 80.11245 346.5047 79.31197 347.2931C 78.5115 348.0693 77.6989 348.8576 76.84991 349.5368C 73.86633 351.9382 70.43398 353.2845 66.941 353.6483C 66.20116 353.7332 65.42495 353.7575 64.68512 353.7575C 52.05944 353.9152 59.91866 354.1941 47.35362 354.1092C 41.13175 354.0486 34.90988 353.9758 28.70013 353.5028C 27.91179 353.43 27.20834 352.8964 26.77172 352.0231C 26.49276 351.4774 26.29871 350.8224 26.22594 350.1675L26.22594 350.1675L26.20168 349.9249L26.20168 349.9249L26.15317 349.4398C 25.9955 347.8146 25.84996 346.1772 25.75293 344.5642C 25.68016 343.4484 25.68016 341.7868 25.6559 340.6467C 25.63165 338.9851 25.58313 337.3478 25.51036 335.6862C 25.46185 334.7402 25.40121 333.685 25.37695 332.739C 25.27992 328.5668 25.35269 320.4529 28.51821 318.197C 28.51821 318.3426 28.51821 318.5124 28.53033 318.67C 28.56672 319.8707 29.05186 320.8046 29.88872 321.3261L29.88872 321.3261L29.85233 321.314zM29.85233 321.314C 29.41571 321.0229 29.01547 320.5984 28.78503 320.0284C 28.66375 319.7495 28.59098 319.4341 28.5546 319.1188C 28.51821 318.8034 28.51821 318.8034 28.51821 318.6458C 28.51821 318.6458 28.16649 318.4032 28.16649 318.4032C 27.85115 318.6821 27.56007 319.0217 27.3175 319.3977C 25.7408 321.9204 25.32844 325.6317 25.08587 328.7609C 24.91607 331.0652 24.90394 333.406 24.96459 335.7104C 24.98884 337.3478 24.97672 339.0094 24.96459 340.6346C 24.95246 341.9566 24.91607 343.2907 24.96459 344.6127C 25.02523 346.2743 25.19503 347.9237 25.36482 349.5611L25.36482 349.5611L25.41334 350.0462L25.41334 350.0462L25.4376 350.2888C 25.53462 351.1014 25.76506 351.8655 26.10466 352.5568C 26.56554 353.4907 27.32963 354.2063 28.17862 354.4124C 28.43331 354.4852 28.72439 354.4973 28.99122 354.5216C 48.14198 355.6859 46.24994 354.9097 65.43708 354.752C 70.80997 354.5944 75.55218 352.4476 79.76073 348.0935C 81.7983 346.056 83.89652 343.8365 85.03659 340.7559C 86.98927 335.5285 83.22946 331.8779 80.40353 328.9913C 79.39688 327.9604 78.37809 326.9416 77.28654 326.0684C 75.74622 324.8191 74.07251 323.8367 72.32602 323.2061C 69.35455 322.1145 66.20117 322.0296 63.13268 322.0538C 56.17098 322.0538 42.93889 322.5632 35.86803 322.3934C 34.33984 322.3207 32.81167 322.2358 31.30774 321.8719C 30.81048 321.7506 30.31321 321.593 29.85233 321.314z" stroke="none" fill="#000000" fill-rule="nonzero" /></g><g clip-path="url(#13)"></g><g clip-path="url(#14)"><path id="547" transform="matrix(1 0 0 -1 0 842)" d="M29.85233 252.9557C 28.70014 252.2037 28.53034 251.0152 28.50608 250.2874C 28.50608 250.0692 28.2999 249.9479 28.16649 250.0692C 24.41881 253.3317 25.19503 266.1393 25.23141 267.4613C 25.4376 275.4297 25.00097 273.9985 25.8257 281.9426C 25.8257 281.9426 26.18956 285.4477 28.71227 285.6539C 42.4295 286.7818 51.29536 286.0663 65.04897 285.9086C 70.21568 285.848 74.71532 283.871 78.25681 280.5478C 81.11911 277.8675 84.29675 274.617 85.04871 270.833C 85.89771 266.5638 82.44111 263.3498 79.51816 260.3783C 75.09129 255.8665 71.2951 254.1685 64.36978 254.1807C 56.30439 254.2049 53.151 254.1807 45.07349 254.1443C 39.85827 254.1322 32.03545 254.3747 29.8402 252.9436L29.8402 252.9436L29.85233 252.9557z" stroke="none" fill="#8EDFD2" fill-rule="nonzero" /><g><g clip-path="url(#15)"><path id="548" transform="matrix(1 0 0 -1 0 842)" d="M30.22832 266.9518C 30.41024 269.7414 30.3496 272.5916 30.62855 275.369C 30.78622 276.9578 31.22285 278.5709 32.1446 279.626C 33.69704 281.3847 36.19549 281.1542 38.13604 281.227C 40.7679 281.324 43.38764 281.1906 46.0195 281.1906C 54.59428 281.1906 41.59263 281.3725 50.16742 281.2755C 54.88537 281.2149 59.77312 281.3119 64.44255 280.3538C 67.05016 279.808 69.62138 278.9468 72.04707 277.5885C 74.5819 276.1573 76.54671 273.9136 78.88749 272.1186C 80.0033 271.2696 80.8159 272.349 80.52482 273.8651C 80.20948 275.5509 78.11127 276.9335 76.95907 277.9523C 75.10342 279.5897 73.23565 281.3119 71.04041 282.3913C 67.75361 284.0044 64.15147 283.871 60.69488 283.9316C 57.01997 283.9923 53.35719 284.2712 49.69441 284.2955C 44.01832 284.3319 38.33009 284.3319 32.64187 284.2955C 28.56673 284.2712 46.08015 284.2227 42.005 284.1378C 39.9553 284.1014 37.89347 284.0529 35.84377 284.0044C 32.89657 283.9316 28.36054 283.6648 27.59645 278.8983C 27.24473 276.6788 27.19622 274.4108 27.19622 272.1428C 27.19622 270.081 27.05067 267.8979 27.37814 265.8603C 27.74199 263.6044 29.68254 264.2957 30.11916 266.0907C 30.19193 266.3697 30.22832 266.6608 30.24045 266.964L30.24045 266.964L30.22832 266.9518z" stroke="none" fill="#FFFFFF" fill-rule="nonzero" fill-opacity="0.09803922" /></g></g><path id="549" transform="matrix(1 0 0 -1 0 842)" d="M29.85233 252.9557C 30.31321 253.2468 30.81048 253.3923 31.30774 253.5257C 32.3144 253.7683 33.32106 253.8896 34.33984 253.9866C 37.80857 254.2777 41.53199 254.2656 45.02497 254.3383C 50.64043 254.3262 53.89084 254.6901 57.04422 254.6779C 58.35409 254.6779 63.78762 254.6779 65.03684 254.6779C 65.91009 254.6901 66.80759 254.7264 67.68083 254.8235C 72.30176 255.2601 75.70984 257.043 79.33624 260.7906C 80.70674 262.1975 82.15002 263.5681 83.31435 265.2539C 84.44229 266.8912 85.20638 268.8924 84.61209 271.0998C 84.06631 273.2223 82.87773 274.9203 81.6285 276.4484C 80.88867 277.3217 80.11245 278.1464 79.31197 278.9348C 78.5115 279.711 77.6989 280.4993 76.84991 281.1785C 73.86633 283.5799 70.43398 284.9262 66.941 285.29C 66.20116 285.3749 65.42495 285.3992 64.68512 285.3992C 52.05944 285.5569 59.91866 285.8358 47.35362 285.7509C 41.13175 285.6903 34.90988 285.6175 28.70013 285.1445C 27.91179 285.0717 27.20834 284.5381 26.77172 283.6648C 26.49276 283.119 26.29871 282.4641 26.22594 281.8092L26.22594 281.8092L26.20168 281.5666L26.20168 281.5666L26.15317 281.0815C 25.9955 279.4563 25.84996 277.8189 25.75293 276.2059C 25.68016 275.0901 25.68016 273.4285 25.6559 272.2884C 25.63165 270.6268 25.58313 268.9895 25.51036 267.3279C 25.46185 266.3818 25.40121 265.3267 25.37695 264.3807C 25.27992 260.2085 25.35269 252.0946 28.51821 249.8387C 28.51821 249.9842 28.51821 250.154 28.53033 250.3117C 28.56672 251.5124 29.05186 252.4463 29.88872 252.9678L29.88872 252.9678L29.85233 252.9557zM29.85233 252.9557C 29.41571 252.6646 29.01547 252.2401 28.78503 251.6701C 28.66375 251.3911 28.59098 251.0758 28.5546 250.7605C 28.51821 250.4451 28.51821 250.4451 28.51821 250.2874C 28.51821 250.2874 28.16649 250.0449 28.16649 250.0449C 27.85115 250.3238 27.56007 250.6634 27.3175 251.0394C 25.7408 253.5621 25.32844 257.2734 25.08587 260.4026C 24.91607 262.7069 24.90394 265.0477 24.96459 267.3521C 24.98884 268.9895 24.97672 270.6511 24.96459 272.2762C 24.95246 273.5983 24.91607 274.9324 24.96459 276.2544C 25.02523 277.916 25.19503 279.5654 25.36482 281.2028L25.36482 281.2028L25.41334 281.6879L25.41334 281.6879L25.4376 281.9305C 25.53462 282.7431 25.76506 283.5072 26.10466 284.1985C 26.56554 285.1324 27.32963 285.848 28.17862 286.0541C 28.43331 286.1269 28.72439 286.139 28.99122 286.1633C 48.14198 287.3276 46.24994 286.5514 65.43708 286.3937C 70.80997 286.2361 75.55218 284.0893 79.76073 279.7352C 81.7983 277.6977 83.89652 275.4781 85.03659 272.3976C 86.98927 267.1702 83.22946 263.5195 80.40353 260.633C 79.39688 259.6021 78.37809 258.5833 77.28654 257.7101C 75.74622 256.4608 74.07251 255.4784 72.32602 254.8477C 69.35455 253.7562 66.20117 253.6713 63.13268 253.6955C 56.17098 253.6955 42.93889 254.2049 35.86803 254.0351C 34.33984 253.9624 32.81167 253.8775 31.30774 253.5136C 30.81048 253.3923 30.31321 253.2346 29.85233 252.9557z" stroke="none" fill="#000000" fill-rule="nonzero" /></g><g clip-path="url(#16)"></g><g clip-path="url(#17)"><path id="663" transform="matrix(1 0 0 -1 0 842)" d="M29.85233 191.597C 28.70014 190.845 28.53034 189.6564 28.50608 188.9287C 28.50608 188.7104 28.2999 188.5891 28.16649 188.7104C 24.41881 191.973 25.19503 204.7806 25.23141 206.1026C 25.4376 214.0709 25.00097 212.6398 25.8257 220.5839C 25.8257 220.5839 26.18956 224.089 28.71227 224.2952C 42.4295 225.4231 51.29536 224.7075 65.04897 224.5499C 70.21568 224.4892 74.71532 222.5123 78.25681 219.1891C 81.11911 216.5087 84.29675 213.2583 85.04871 209.4743C 85.89771 205.2051 82.44111 201.991 79.51816 199.0196C 75.09129 194.5078 71.2951 192.8098 64.36978 192.822C 56.30439 192.8462 53.151 192.822 45.07349 192.7856C 39.85827 192.7734 32.03545 193.016 29.8402 191.5849L29.8402 191.5849L29.85233 191.597z" stroke="none" fill="#8EDFD2" fill-rule="nonzero" /><g><g clip-path="url(#18)"><path id="664" transform="matrix(1 0 0 -1 0 842)" d="M30.22832 205.5932C 30.41024 208.3827 30.3496 211.2329 30.62855 214.0103C 30.78622 215.5991 31.22285 217.2122 32.1446 218.2673C 33.69704 220.026 36.19549 219.7955 38.13604 219.8683C 40.7679 219.9653 43.38764 219.8319 46.0195 219.8319C 54.59428 219.8319 41.59263 220.0138 50.16742 219.9168C 54.88537 219.8562 59.77312 219.9532 64.44255 218.995C 67.05016 218.4493 69.62138 217.5882 72.04707 216.2298C 74.5819 214.7986 76.54671 212.5549 78.88749 210.7599C 80.0033 209.9109 80.8159 210.9903 80.52482 212.5063C 80.20948 214.1922 78.11127 215.5748 76.95907 216.5936C 75.10342 218.231 73.23565 219.9532 71.04041 221.0326C 67.75361 222.6457 64.15147 222.5123 60.69488 222.5729C 57.01997 222.6336 53.35719 222.9125 49.69441 222.9368C 44.01832 222.9732 38.33009 222.9732 32.64187 222.9368C 28.56673 222.9125 46.08015 222.864 42.005 222.7791C 39.9553 222.7427 37.89347 222.6942 35.84377 222.6457C 32.89657 222.5729 28.36054 222.3061 27.59645 217.5396C 27.24473 215.3201 27.19622 213.0521 27.19622 210.7841C 27.19622 208.7223 27.05067 206.5392 27.37814 204.5016C 27.74199 202.2457 29.68254 202.937 30.11916 204.732C 30.19193 205.011 30.22832 205.3021 30.24045 205.6053L30.24045 205.6053L30.22832 205.5932z" stroke="none" fill="#FFFFFF" fill-rule="nonzero" fill-opacity="0.09803922" /></g></g><path id="665" transform="matrix(1 0 0 -1 0 842)" d="M29.85233 191.597C 30.31321 191.8881 30.81048 192.0336 31.30774 192.167C 32.3144 192.4096 33.32106 192.5309 34.33984 192.6279C 37.80857 192.919 41.53199 192.9069 45.02497 192.9796C 50.64043 192.9675 53.89084 193.3313 57.04422 193.3192C 58.35409 193.3192 63.78762 193.3192 65.03684 193.3192C 65.91009 193.3313 66.80759 193.3677 67.68083 193.4648C 72.30176 193.9014 75.70984 195.6843 79.33624 199.4319C 80.70674 200.8388 82.15002 202.2093 83.31435 203.8952C 84.44229 205.5325 85.20638 207.5337 84.61209 209.7411C 84.06631 211.8636 82.87773 213.5615 81.6285 215.0897C 80.88867 215.963 80.11245 216.7877 79.31197 217.576C 78.5115 218.3522 77.6989 219.1406 76.84991 219.8198C 73.86633 222.2212 70.43398 223.5675 66.941 223.9313C 66.20116 224.0162 65.42495 224.0405 64.68512 224.0405C 52.05944 224.1982 59.91866 224.4771 47.35362 224.3922C 41.13175 224.3316 34.90988 224.2588 28.70013 223.7858C 27.91179 223.713 27.20834 223.1794 26.77172 222.3061C 26.49276 221.7603 26.29871 221.1054 26.22594 220.4505L26.22594 220.4505L26.20168 220.2079L26.20168 220.2079L26.15317 219.7228C 25.9955 218.0975 25.84996 216.4602 25.75293 214.8471C 25.68016 213.7313 25.68016 212.0697 25.6559 210.9297C 25.63165 209.2681 25.58313 207.6307 25.51036 205.9691C 25.46185 205.0231 25.40121 203.968 25.37695 203.0219C 25.27992 198.8498 25.35269 190.7359 28.51821 188.48C 28.51821 188.6255 28.51821 188.7953 28.53033 188.953C 28.56672 190.1537 29.05186 191.0876 29.88872 191.6091L29.88872 191.6091L29.85233 191.597zM29.85233 191.597C 29.41571 191.3059 29.01547 190.8814 28.78503 190.3114C 28.66375 190.0324 28.59098 189.7171 28.5546 189.4017C 28.51821 189.0864 28.51821 189.0864 28.51821 188.9287C 28.51821 188.9287 28.16649 188.6862 28.16649 188.6862C 27.85115 188.9651 27.56007 189.3047 27.3175 189.6807C 25.7408 192.2034 25.32844 195.9147 25.08587 199.0438C 24.91607 201.3482 24.90394 203.689 24.96459 205.9934C 24.98884 207.6307 24.97672 209.2923 24.96459 210.9175C 24.95246 212.2395 24.91607 213.5737 24.96459 214.8957C 25.02523 216.5573 25.19503 218.2067 25.36482 219.8441L25.36482 219.8441L25.41334 220.3292L25.41334 220.3292L25.4376 220.5717C 25.53462 221.3844 25.76506 222.1485 26.10466 222.8398C 26.56554 223.7737 27.32963 224.4892 28.17862 224.6954C 28.43331 224.7682 28.72439 224.7803 28.99122 224.8046C 48.14198 225.9689 46.24994 225.1927 65.43708 225.035C 70.80997 224.8773 75.55218 222.7306 79.76073 218.3765C 81.7983 216.3389 83.89652 214.1194 85.03659 211.0388C 86.98927 205.8115 83.22946 202.1608 80.40353 199.2743C 79.39688 198.2433 78.37809 197.2246 77.28654 196.3513C 75.74622 195.1021 74.07251 194.1197 72.32602 193.489C 69.35455 192.3975 66.20117 192.3126 63.13268 192.3368C 56.17098 192.3368 42.93889 192.8462 35.86803 192.6764C 34.33984 192.6036 32.81167 192.5187 31.30774 192.1549C 30.81048 192.0336 30.31321 191.8759 29.85233 191.597z" stroke="none" fill="#000000" fill-rule="nonzero" /></g><g clip-path="url(#19)"></g><g clip-path="url(#20)"><g transform="matrix(0.1612426 0 0 0.1614583 503.015 5.097412)"><g transform="matrix(1 0 0 1 0 0)"><image x="0" y="0" xlink:href="img_01.png" width="507" height="288" /></g></g></g></g></g></svg>