<svg xmlns="http://www.w3.org/2000/svg" xmlns:xlink="http://www.w3.org/1999/xlink" id="body_1" preserveAspectRatio="xMinYMin meet" viewBox="0 0 793 1123"><defs><clipPath id="1"><path id="" clip-rule="evenodd" transform="matrix(1 0 0 1 0 0)" d="M0 842L0 -0.25L0 -0.25L595.5 -0.25L595.5 -0.25L595.5 842L595.5 842L0 842z" /></clipPath><clipPath id="2"><path id="" clip-rule="evenodd" transform="matrix(1 0 0 1 0 0)" d="M0 -0.249939L595.5 -0.249939L595.5 -0.249939L595.5 842.0001L595.5 842.0001L0 842.0001z" /></clipPath><clipPath id="3"><path id="" clip-rule="evenodd" transform="matrix(1 0 0 1 0 0)" d="M0 -0.249939L595.5 -0.249939L595.5 -0.249939L595.5 842.0001L595.5 842.0001L0 842.0001z" /></clipPath><clipPath id="4"><path id="" clip-rule="evenodd" transform="matrix(1 0 0 1 0 0)" d="M0 -0.249939L595.5 -0.249939L595.5 -0.249939L595.5 842.0001L595.5 842.0001L0 842.0001z" /></clipPath><clipPath id="5"><path id="" clip-rule="evenodd" transform="matrix(1 0 0 1 0 0)" d="M78.71999 30.71008L522.24 30.71008L522.24 30.71008L522.24 810.9501L522.24 810.9501L78.71999 810.9501z" /></clipPath><clipPath id="6"><path id="" clip-rule="evenodd" transform="matrix(1 0 0 1 0 0)" d="M79.51787 30.75183L522.0178 30.75183L522.0178 30.75183L522.0178 810.7518L522.0178 810.7518L79.51787 810.7518z" /></clipPath><clipPath id="7"><path id="" clip-rule="evenodd" transform="matrix(1 0 0 1 0 0)" d="M17.90373 482.1949L65.90373 482.1949L65.90373 482.1949L65.90373 617.9449L65.90373 617.9449L17.90373 617.9449z" /></clipPath><clipPath id="8"><path id="" clip-rule="evenodd" transform="matrix(1 0 0 1 0 0)" d="M66.79793 482.1949L466.5479 482.1949L466.5479 482.1949L466.5479 617.9449L466.5479 617.9449L66.79793 617.9449z" /></clipPath><clipPath id="9"><path id="" clip-rule="evenodd" transform="matrix(1 0 0 1 0 0)" d="M467.5846 482.1949L565.0845 482.1949L565.0845 482.1949L565.0845 617.9449L565.0845 617.9449L467.5846 617.9449z" /></clipPath><clipPath id="10"><path id="" clip-rule="evenodd" transform="matrix(1 0 0 1 0 0)" d="M17.90373 618.6949L65.90373 618.6949L65.90373 618.6949L65.90373 700.4449L65.90373 700.4449L17.90373 700.4449z" /></clipPath><clipPath id="11"><path id="" clip-rule="evenodd" transform="matrix(1 0 0 1 0 0)" d="M66.79793 618.6949L230.2979 618.6949L230.2979 618.6949L230.2979 700.4449L230.2979 700.4449L66.79793 700.4449z" /></clipPath><clipPath id="12"><path id="" clip-rule="evenodd" transform="matrix(1 0 0 1 0 0)" d="M231.359 618.6949L311.6091 618.6949L311.6091 618.6949L311.6091 700.4449L311.6091 700.4449L231.359 700.4449z" /></clipPath><clipPath id="13"><path id="" clip-rule="evenodd" transform="matrix(1 0 0 1 0 0)" d="M312.625 618.6949L383.875 618.6949L383.875 618.6949L383.875 700.4449L383.875 700.4449L312.625 700.4449z" /></clipPath><clipPath id="14"><path id="" clip-rule="evenodd" transform="matrix(1 0 0 1 0 0)" d="M384.6359 618.6949L467.1359 618.6949L467.1359 618.6949L467.1359 700.4449L467.1359 700.4449L384.6359 700.4449z" /></clipPath><clipPath id="15"><path id="" clip-rule="evenodd" transform="matrix(1 0 0 1 0 0)" d="M467.5846 618.6949L565.0845 618.6949L565.0845 618.6949L565.0845 700.4449L565.0845 700.4449L467.5846 700.4449z" /></clipPath><clipPath id="16"><path id="" clip-rule="evenodd" transform="matrix(1 0 0 1 0 0)" d="M17.90373 701.1949L65.90373 701.1949L65.90373 701.1949L65.90373 728.9449L65.90373 728.9449L17.90373 728.9449z" /></clipPath><clipPath id="17"><path id="" clip-rule="evenodd" transform="matrix(1 0 0 1 0 0)" d="M66.79793 701.1949L230.2979 701.1949L230.2979 701.1949L230.2979 728.9449L230.2979 728.9449L66.79793 728.9449z" /></clipPath><clipPath id="18"><path id="" clip-rule="evenodd" transform="matrix(1 0 0 1 0 0)" d="M231.359 701.1949L311.6091 701.1949L311.6091 701.1949L311.6091 728.9449L311.6091 728.9449L231.359 728.9449z" /></clipPath><clipPath id="19"><path id="" clip-rule="evenodd" transform="matrix(1 0 0 1 0 0)" d="M312.625 701.1949L383.875 701.1949L383.875 701.1949L383.875 728.9449L383.875 728.9449L312.625 728.9449z" /></clipPath><clipPath id="20"><path id="" clip-rule="evenodd" transform="matrix(1 0 0 1 0 0)" d="M384.6359 701.1949L467.1359 701.1949L467.1359 701.1949L467.1359 728.9449L467.1359 728.9449L384.6359 728.9449z" /></clipPath><clipPath id="21"><path id="" clip-rule="evenodd" transform="matrix(1 0 0 1 0 0)" d="M467.5846 701.1949L565.0845 701.1949L565.0845 701.1949L565.0845 728.9449L565.0845 728.9449L467.5846 728.9449z" /></clipPath><clipPath id="22"><path id="" clip-rule="evenodd" transform="matrix(1 0 0 1 0 0)" d="M17.90373 729.6949L65.90373 729.6949L65.90373 729.6949L65.90373 757.4449L65.90373 757.4449L17.90373 757.4449z" /></clipPath><clipPath id="23"><path id="" clip-rule="evenodd" transform="matrix(1 0 0 1 0 0)" d="M66.79793 729.6949L230.2979 729.6949L230.2979 729.6949L230.2979 757.4449L230.2979 757.4449L66.79793 757.4449z" /></clipPath><clipPath id="24"><path id="" clip-rule="evenodd" transform="matrix(1 0 0 1 0 0)" d="M231.359 729.6949L311.6091 729.6949L311.6091 729.6949L311.6091 757.4449L311.6091 757.4449L231.359 757.4449z" /></clipPath><clipPath id="25"><path id="" clip-rule="evenodd" transform="matrix(1 0 0 1 0 0)" d="M312.625 729.6949L383.875 729.6949L383.875 729.6949L383.875 757.4449L383.875 757.4449L312.625 757.4449z" /></clipPath><clipPath id="26"><path id="" clip-rule="evenodd" transform="matrix(1 0 0 1 0 0)" d="M384.6359 729.6949L467.1359 729.6949L467.1359 729.6949L467.1359 757.4449L467.1359 757.4449L384.6359 757.4449z" /></clipPath><clipPath id="27"><path id="" clip-rule="evenodd" transform="matrix(1 0 0 1 0 0)" d="M467.5846 729.6949L565.0845 729.6949L565.0845 729.6949L565.0845 757.4449L565.0845 757.4449L467.5846 757.4449z" /></clipPath><clipPath id="28"><path id="" clip-rule="evenodd" transform="matrix(1 0 0 1 0 0)" d="M17.90373 758.1949L65.90373 758.1949L65.90373 758.1949L65.90373 785.9449L65.90373 785.9449L17.90373 785.9449z" /></clipPath><clipPath id="29"><path id="" clip-rule="evenodd" transform="matrix(1 0 0 1 0 0)" d="M66.79793 758.1949L230.2979 758.1949L230.2979 758.1949L230.2979 785.9449L230.2979 785.9449L66.79793 785.9449z" /></clipPath><clipPath id="30"><path id="" clip-rule="evenodd" transform="matrix(1 0 0 1 0 0)" d="M231.359 758.1949L311.6091 758.1949L311.6091 758.1949L311.6091 785.9449L311.6091 785.9449L231.359 785.9449z" /></clipPath><clipPath id="31"><path id="" clip-rule="evenodd" transform="matrix(1 0 0 1 0 0)" d="M312.625 758.1949L383.875 758.1949L383.875 758.1949L383.875 785.9449L383.875 785.9449L312.625 785.9449z" /></clipPath><clipPath id="32"><path id="" clip-rule="evenodd" transform="matrix(1 0 0 1 0 0)" d="M384.6359 758.1949L467.1359 758.1949L467.1359 758.1949L467.1359 785.9449L467.1359 785.9449L384.6359 785.9449z" /></clipPath><clipPath id="33"><path id="" clip-rule="evenodd" transform="matrix(1 0 0 1 0 0)" d="M467.5846 758.1949L565.0845 758.1949L565.0845 758.1949L565.0845 785.9449L565.0845 785.9449L467.5846 785.9449z" /></clipPath><clipPath id="34"><path id="" clip-rule="evenodd" transform="matrix(1 0 0 1 0 0)" d="M17.90373 786.6949L65.90373 786.6949L65.90373 786.6949L65.90373 814.4449L65.90373 814.4449L17.90373 814.4449z" /></clipPath><clipPath id="35"><path id="" clip-rule="evenodd" transform="matrix(1 0 0 1 0 0)" d="M66.79793 786.6949L230.2979 786.6949L230.2979 786.6949L230.2979 814.4449L230.2979 814.4449L66.79793 814.4449z" /></clipPath><clipPath id="36"><path id="" clip-rule="evenodd" transform="matrix(1 0 0 1 0 0)" d="M231.359 786.6949L311.6091 786.6949L311.6091 786.6949L311.6091 814.4449L311.6091 814.4449L231.359 814.4449z" /></clipPath><clipPath id="37"><path id="" clip-rule="evenodd" transform="matrix(1 0 0 1 0 0)" d="M312.625 786.6949L383.875 786.6949L383.875 786.6949L383.875 814.4449L383.875 814.4449L312.625 814.4449z" /></clipPath><clipPath id="38"><path id="" clip-rule="evenodd" transform="matrix(1 0 0 1 0 0)" d="M384.6359 786.6949L467.1359 786.6949L467.1359 786.6949L467.1359 814.4449L467.1359 814.4449L384.6359 814.4449z" /></clipPath><clipPath id="39"><path id="" clip-rule="evenodd" transform="matrix(1 0 0 1 0 0)" d="M467.5846 786.6949L565.0845 786.6949L565.0845 786.6949L565.0845 814.4449L565.0845 814.4449L467.5846 814.4449z" /></clipPath><clipPath id="40"><path id="" clip-rule="evenodd" transform="matrix(1 0 0 1 0 0)" d="M17.15373 481.4449L566.1537 481.4449L566.1537 481.4449L566.1537 815.1949L566.1537 815.1949L17.15373 815.1949z" /></clipPath><clipPath id="41"><path id="" clip-rule="evenodd" transform="matrix(1 0 0 1 0 0)" d="M493.2132 11.00061L577.9632 11.00061L577.9632 11.00061L577.9632 59.00061L577.9632 59.00061L493.2132 59.00061z" /></clipPath><clipPath id="42"><path id="" clip-rule="evenodd" transform="matrix(1 0 0 1 0 0)" d="M0 -0.249939L595.5 -0.249939L595.5 -0.249939L595.5 842.0001L595.5 842.0001L0 842.0001z" /></clipPath><clipPath id="43"><path id="" clip-rule="evenodd" transform="matrix(1 0 0 1 0 0)" d="M0 -0.249939L595.5 -0.249939L595.5 -0.249939L595.5 842.0001L595.5 842.0001L0 842.0001z" /></clipPath><clipPath id="44"><path id="" clip-rule="evenodd" transform="matrix(1 0 0 1 0 0)" d="M0 -0.249939L595.5 -0.249939L595.5 -0.249939L595.5 842.0001L595.5 842.0001L0 842.0001z" /></clipPath><clipPath id="45"><path id="" clip-rule="evenodd" transform="matrix(1 0 0 1 0 0)" d="M172.7473 287.4823L416.4973 287.4823L416.4973 287.4823L416.4973 468.9823L416.4973 468.9823L172.7473 468.9823z" /></clipPath><clipPath id="46"><path id="" clip-rule="evenodd" transform="matrix(1 0 0 1 0 0)" d="M172.7473 303.2323L172.7473 452.6153C 172.7473 461.3138 179.7988 468.3653 188.4973 468.3653L188.4973 468.3653L400.0062 468.3653C 408.7047 468.3653 415.7562 461.3138 415.7562 452.6153L415.7562 452.6153L415.7562 303.2323C 415.7562 294.5339 408.7047 287.4823 400.0062 287.4823L400.0062 287.4823L188.4973 287.4823C 179.7988 287.4823 172.7473 294.5339 172.7473 303.2323z" /></clipPath><clipPath id="47"><path id="" clip-rule="evenodd" transform="matrix(1 0 0 1 0 0)" d="M172.7473 287.4823L415.7473 287.4823L415.7473 287.4823L415.7473 468.2323L415.7473 468.2323L172.7473 468.2323z" /></clipPath><clipPath id="48"><path id="" clip-rule="evenodd" transform="matrix(1 0 0 1 0 0)" d="M0 -0.249939L595.5 -0.249939L595.5 -0.249939L595.5 842.0001L595.5 842.0001L0 842.0001z" /></clipPath></defs><g transform="matrix(1.333333 0 0 1.333333 0 0)"><g clip-path="url(#1)"><g clip-path="url(#2)"><path id="1" transform="matrix(1 0 0 -1 0 842)" d="M0 842.2499L595.4999 842.2499L595.4999 -6.103516E-05L0 -6.103516E-05z" stroke="none" fill="#FFFFFF" fill-rule="nonzero" /></g><g clip-path="url(#3)"><path id="2" transform="matrix(1 0 0 -1 0 842)" d="M0 842.2499L595.4999 842.2499L595.4999 -6.103516E-05L0 -6.103516E-05z" stroke="none" fill="#E9FCFF" fill-rule="nonzero" /></g><g clip-path="url(#4)"><g><g clip-path="url(#5)"><g clip-path="url(#6)"><g transform="matrix(0 0.5128205 -0.5127462 0 522.0178 30.75189)"><g transform="matrix(1 0 0 1 0 0)"><image x="0" y="0" xlink:href="img_01.png" width="1521" height="863" /></g></g></g></g></g></g><g clip-path="url(#7)"></g><g clip-path="url(#8)"></g><g clip-path="url(#9)"></g><g clip-path="url(#10)"></g><g clip-path="url(#11)"></g><g clip-path="url(#12)"></g><g clip-path="url(#13)"></g><g clip-path="url(#14)"></g><g clip-path="url(#15)"></g><g clip-path="url(#16)"></g><g clip-path="url(#17)"></g><g clip-path="url(#18)"></g><g clip-path="url(#19)"></g><g clip-path="url(#20)"></g><g clip-path="url(#21)"></g><g clip-path="url(#22)"></g><g clip-path="url(#23)"></g><g clip-path="url(#24)"></g><g clip-path="url(#25)"></g><g clip-path="url(#26)"></g><g clip-path="url(#27)"></g><g clip-path="url(#28)"></g><g clip-path="url(#29)"></g><g clip-path="url(#30)"></g><g clip-path="url(#31)"></g><g clip-path="url(#32)"></g><g clip-path="url(#33)"></g><g clip-path="url(#34)"></g><g clip-path="url(#35)"></g><g clip-path="url(#36)"></g><g clip-path="url(#37)"></g><g clip-path="url(#38)"></g><g clip-path="url(#39)"></g><g clip-path="url(#40)"><path id="251" transform="matrix(1 0 0 -1 0 842)" d="M17.15373 27.18005L566.1478 27.18005M17.15373 55.68005L566.1478 55.68005M17.15373 84.18005L566.1478 84.18005M17.15373 112.6801L566.1478 112.6801M17.15373 141.1801L566.1478 141.1801M17.15373 223.6801L566.1478 223.6801M17.15373 360.1801L566.1478 360.1801M565.7728 359.8051L565.7728 27.55505M467.2095 359.8051L467.2095 27.55505M384.2609 223.3051L384.2609 27.55505M312.2499 223.3051L312.2499 27.55505M230.984 223.3051L230.984 27.55505M66.42292 359.8051L66.42292 27.55505M17.52873 359.8051L17.52873 27.55505" stroke="none" fill="#000000" fill-rule="nonzero" /><path id="252" transform="matrix(1 0 0 -1 0 842)" d="M17.15373 27.18005L566.1478 27.18005M17.15373 55.68005L566.1478 55.68005M17.15373 84.18005L566.1478 84.18005M17.15373 112.6801L566.1478 112.6801M17.15373 141.1801L566.1478 141.1801M17.15373 223.6801L566.1478 223.6801M17.15373 360.1801L566.1478 360.1801M565.7728 359.8051L565.7728 27.55505M467.2095 359.8051L467.2095 27.55505M384.2609 223.3051L384.2609 27.55505M312.2499 223.3051L312.2499 27.55505M230.984 223.3051L230.984 27.55505M66.42292 359.8051L66.42292 27.55505M17.52873 359.8051L17.52873 27.55505" stroke="#000000" stroke-width="0.7499999" fill="none" /></g><g clip-path="url(#41)"><g transform="matrix(0.05571992 0 0 0.05561992 493.2132 11.00061)"><g transform="matrix(1 0 0 1 0 0)"><image x="0" y="0" xlink:href="img_02.png" width="1521" height="863" /></g></g></g><g clip-path="url(#42)"><path id="407" transform="matrix(1 0 0 -1 0 842)" d="M31.40373 655.472C 31.40373 655.1737 31.34664 654.8867 31.23246 654.611C 31.11827 654.3353 30.95569 654.092 30.74472 653.881C 30.53374 653.6701 30.29042 653.5075 30.01477 653.3933C 29.73911 653.2792 29.4521 653.222 29.15373 653.222C 28.85536 653.222 28.56835 653.2792 28.29269 653.3933C 28.01703 653.5075 27.77372 653.6701 27.56274 653.881C 27.35176 654.092 27.18918 654.3353 27.075 654.611C 26.96082 654.8867 26.90373 655.1737 26.90373 655.472C 26.90373 655.7704 26.96082 656.0574 27.075 656.3331C 27.18918 656.6088 27.35176 656.8521 27.56274 657.063C 27.77372 657.274 28.01703 657.4366 28.29269 657.5508C 28.56835 657.665 28.85536 657.722 29.15373 657.722C 29.4521 657.722 29.73911 657.665 30.01477 657.5508C 30.29042 657.4366 30.53374 657.274 30.74472 657.063C 30.95569 656.8521 31.11827 656.6088 31.23246 656.3331C 31.34664 656.0574 31.40373 655.7704 31.40373 655.472z" stroke="none" fill="#000000" fill-rule="nonzero" /><path id="453" transform="matrix(1 0 0 -1 0 842)" d="M31.40373 638.222C 31.40373 637.9237 31.34664 637.6367 31.23246 637.361C 31.11827 637.0853 30.95569 636.842 30.74472 636.631C 30.53374 636.4201 30.29042 636.2575 30.01477 636.1433C 29.73911 636.0292 29.4521 635.972 29.15373 635.972C 28.85536 635.972 28.56835 636.0292 28.29269 636.1433C 28.01703 636.2575 27.77372 636.4201 27.56274 636.631C 27.35176 636.842 27.18918 637.0853 27.075 637.361C 26.96082 637.6367 26.90373 637.9237 26.90373 638.222C 26.90373 638.5204 26.96082 638.8074 27.075 639.0831C 27.18918 639.3588 27.35176 639.6021 27.56274 639.813C 27.77372 640.024 28.01703 640.1866 28.29269 640.3008C 28.56835 640.415 28.85536 640.472 29.15373 640.472C 29.4521 640.472 29.73911 640.415 30.01477 640.3008C 30.29042 640.1866 30.53374 640.024 30.74472 639.813C 30.95569 639.6021 31.11827 639.3588 31.23246 639.0831C 31.34664 638.8074 31.40373 638.5204 31.40373 638.222z" stroke="none" fill="#000000" fill-rule="nonzero" /><path id="532" transform="matrix(1 0 0 -1 0 842)" d="M31.40373 603.722C 31.40373 603.4237 31.34664 603.1367 31.23246 602.861C 31.11827 602.5854 30.95569 602.342 30.74472 602.131C 30.53374 601.92 30.29042 601.7575 30.01477 601.6433C 29.73911 601.5292 29.4521 601.472 29.15373 601.472C 28.85536 601.472 28.56835 601.5292 28.29269 601.6433C 28.01703 601.7575 27.77372 601.92 27.56274 602.131C 27.35176 602.342 27.18918 602.5854 27.075 602.861C 26.96082 603.1367 26.90373 603.4237 26.90373 603.722C 26.90373 604.0204 26.96082 604.3074 27.075 604.5831C 27.18918 604.8588 27.35176 605.1021 27.56274 605.313C 27.77372 605.524 28.01703 605.6866 28.29269 605.8008C 28.56835 605.915 28.85536 605.972 29.15373 605.972C 29.4521 605.972 29.73911 605.915 30.01477 605.8008C 30.29042 605.6866 30.53374 605.524 30.74472 605.313C 30.95569 605.1021 31.11827 604.8588 31.23246 604.5831C 31.34664 604.3074 31.40373 604.0204 31.40373 603.722z" stroke="none" fill="#000000" fill-rule="nonzero" /></g><g clip-path="url(#43)"><g clip-path="url(#44)"><g clip-path="url(#45)"><g clip-path="url(#46)"><g clip-path="url(#47)"><g transform="matrix(0.759375 0 0 0.759375 172.7473 258.0991)"><g transform="matrix(1 0 0 1 0 0)"><image x="0" y="0" xlink:href="img_03.png" width="320" height="320" /></g></g></g></g></g></g></g><g clip-path="url(#48)"></g></g></g></svg>