<svg xmlns="http://www.w3.org/2000/svg" xmlns:xlink="http://www.w3.org/1999/xlink" id="body_1" preserveAspectRatio="xMinYMin meet" viewBox="0 0 793 1123"><defs><clipPath id="1"><path id="" clip-rule="evenodd" transform="matrix(1 0 0 1 0 0)" d="M0 842L0 -0.25L0 -0.25L595.5 -0.25L595.5 -0.25L595.5 842L595.5 842L0 842z" /></clipPath><clipPath id="2"><path id="" clip-rule="evenodd" transform="matrix(1 0 0 1 0 0)" d="M0 -0.249939L595.5 -0.249939L595.5 -0.249939L595.5 842.0001L595.5 842.0001L0 842.0001z" /></clipPath><clipPath id="3"><path id="" clip-rule="evenodd" transform="matrix(1 0 0 1 0 0)" d="M0 -0.249939L595.5 -0.249939L595.5 -0.249939L595.5 842.0001L595.5 842.0001L0 842.0001z" /></clipPath><clipPath id="4"><path id="" clip-rule="evenodd" transform="matrix(1 0 0 1 0 0)" d="M0 -0.249939L595.5 -0.249939L595.5 -0.249939L595.5 842.0001L595.5 842.0001L0 842.0001z" /></clipPath><clipPath id="5"><path id="" clip-rule="evenodd" transform="matrix(1 0 0 1 0 0)" d="M79.67999 32.15009L535.92 32.15009L535.92 32.15009L535.92 836.3901L535.92 836.3901L79.67999 836.3901z" /></clipPath><clipPath id="6"><path id="" clip-rule="evenodd" transform="matrix(1 0 0 1 0 0)" d="M79.74117 32.21863L535.7411 32.21863L535.7411 32.21863L535.7411 835.4686L535.7411 835.4686L79.74117 835.4686z" /></clipPath><clipPath id="7"><path id="" clip-rule="evenodd" transform="matrix(1 0 0 1 0 0)" d="M489.3922 29.22406L571.1422 29.22406L571.1422 29.22406L571.1422 75.72406L571.1422 75.72406L489.3922 75.72406z" /></clipPath><clipPath id="8"><path id="" clip-rule="evenodd" transform="matrix(1 0 0 1 0 0)" d="M7.072427 22.42804L112.0724 22.42804L112.0724 22.42804L112.0724 114.678L112.0724 114.678L7.072427 114.678z" /></clipPath><clipPath id="9"><path id="" clip-rule="evenodd" transform="matrix(1 0 0 1 0 0)" d="M0 -0.249939L595.5 -0.249939L595.5 -0.249939L595.5 842.0001L595.5 842.0001L0 842.0001z" /></clipPath><clipPath id="10"><path id="" clip-rule="evenodd" transform="matrix(1 0 0 1 0 0)" d="M41.76 457.6701L552.48 457.6701L552.48 457.6701L552.48 683.7501L552.48 683.7501L41.76 683.7501z" /></clipPath><clipPath id="11"><path id="" clip-rule="evenodd" transform="matrix(1 0 0 1 0 0)" d="M50.19722 466.1042L545.8732 466.1042L545.8732 466.1042L545.8732 676.1921L545.8732 676.1921L50.19722 676.1921z" /></clipPath><clipPath id="12"><path id="" clip-rule="evenodd" transform="matrix(1 0 0 1 0 0)" d="M79.44722 466.1042L515.8284 466.1042C 523.5859 466.1042 531.0258 469.1859 536.5112 474.6714C 541.9967 480.1568 545.0783 487.5967 545.0783 495.3542L545.0783 495.3542L545.0783 646.9421C 545.0783 654.6997 541.9967 662.1395 536.5112 667.625C 531.0258 673.1104 523.5859 676.1921 515.8284 676.1921L515.8284 676.1921L79.44722 676.1921C 71.68964 676.1921 64.24979 673.1104 58.76435 667.625C 53.27891 662.1395 50.19722 654.6997 50.19722 646.9421L50.19722 646.9421L50.19722 495.3542C 50.19722 487.5967 53.27891 480.1568 58.76435 474.6714C 64.24979 469.1859 71.68964 466.1042 79.44722 466.1042z" /></clipPath><clipPath id="13"><path id="" clip-rule="evenodd" transform="matrix(1 0 0 1 0 0)" d="M50.19722 466.1042L545.1972 466.1042L545.1972 466.1042L545.1972 676.1042L545.1972 676.1042L50.19722 676.1042z" /></clipPath><clipPath id="14"><path id="" clip-rule="evenodd" transform="matrix(1 0 0 1 0 0)" d="M50.19907 466.1042L546.8683 466.1042L546.8683 466.1042L546.8683 678.1653L546.8683 678.1653L50.19907 678.1653z" /></clipPath><clipPath id="15"><path id="" clip-rule="evenodd" transform="matrix(1 0 0 1 0 0)" d="M79.44826 466.1042L515.8172 466.1042C 523.5746 466.1042 531.0142 469.1859 536.4995 474.6711C 541.9849 480.1564 545.0665 487.5961 545.0665 495.3535L545.0665 495.3535L545.0665 646.9371C 545.0665 654.6945 541.9849 662.1341 536.4995 667.6194C 531.0142 673.1047 523.5746 676.1863 515.8172 676.1863L515.8172 676.1863L79.44826 676.1863C 71.69089 676.1863 64.25124 673.1047 58.76595 667.6194C 53.28067 662.1341 50.19907 654.6945 50.19907 646.9371L50.19907 646.9371L50.19907 495.3535C 50.19907 487.5961 53.28067 480.1564 58.76595 474.6711C 64.25124 469.1859 71.69089 466.1042 79.44826 466.1042z" /></clipPath><clipPath id="16"><path id="" clip-rule="evenodd" transform="matrix(1 0 0 1 0 0)" d="M0 -0.249939L595.5 -0.249939L595.5 -0.249939L595.5 842.0001L595.5 842.0001L0 842.0001z" /></clipPath><clipPath id="17"><path id="" clip-rule="evenodd" transform="matrix(1 0 0 1 0 0)" d="M0 -0.249939L595.5 -0.249939L595.5 -0.249939L595.5 842.0001L595.5 842.0001L0 842.0001z" /></clipPath><clipPath id="18"><path id="" clip-rule="evenodd" transform="matrix(1 0 0 1 0 0)" d="M67.2167 524.8401L286.2167 524.8401L286.2167 524.8401L286.2167 656.0901L286.2167 656.0901L67.2167 656.0901z" /></clipPath><clipPath id="19"><path id="" clip-rule="evenodd" transform="matrix(1 0 0 1 0 0)" d="M67.2167 560.0901L67.2167 620.1953C 67.2167 639.6632 82.99866 655.4453 102.4667 655.4453L102.4667 655.4453L250.4153 655.4453C 269.8834 655.4453 285.6653 639.6632 285.6653 620.1953L285.6653 620.1953L285.6653 560.0901C 285.6653 540.6221 269.8834 524.8401 250.4153 524.8401L250.4153 524.8401L102.4667 524.8401C 82.99866 524.8401 67.2167 540.6221 67.2167 560.0901z" /></clipPath><clipPath id="20"><path id="" clip-rule="evenodd" transform="matrix(1 0 0 1 0 0)" d="M67.9667 525.5901L285.4667 525.5901L285.4667 525.5901L285.4667 654.5901L285.4667 654.5901L67.9667 654.5901z" /></clipPath><clipPath id="21"><path id="" clip-rule="evenodd" transform="matrix(1 0 0 1 0 0)" d="M103.3667 525.7401L249.5153 525.7401C 268.9834 525.7401 284.7653 541.522 284.7653 560.9901L284.7653 560.9901L284.7653 619.2952C 284.7653 638.7632 268.9834 654.5452 249.5153 654.5452L249.5153 654.5452L103.3667 654.5452C 83.89866 654.5452 68.1167 638.7632 68.1167 619.2952L68.1167 619.2952L68.1167 560.9901C 68.1167 541.522 83.89866 525.7401 103.3667 525.7401z" /></clipPath><clipPath id="22"><path id="" clip-rule="evenodd" transform="matrix(1 0 0 1 0 0)" d="M0 -0.249939L595.5 -0.249939L595.5 -0.249939L595.5 842.0001L595.5 842.0001L0 842.0001z" /></clipPath><clipPath id="23"><path id="" clip-rule="evenodd" transform="matrix(1 0 0 1 0 0)" d="M0 -0.249939L595.5 -0.249939L595.5 -0.249939L595.5 842.0001L595.5 842.0001L0 842.0001z" /></clipPath><clipPath id="24"><path id="" clip-rule="evenodd" transform="matrix(1 0 0 1 0 0)" d="M67.2167 524.8401L286.2167 524.8401L286.2167 524.8401L286.2167 656.0901L286.2167 656.0901L67.2167 656.0901z" /></clipPath><clipPath id="25"><path id="" clip-rule="evenodd" transform="matrix(1 0 0 1 0 0)" d="M67.2167 560.0901L67.2167 620.1953C 67.2167 639.6632 82.99866 655.4453 102.4667 655.4453L102.4667 655.4453L250.4153 655.4453C 269.8834 655.4453 285.6653 639.6632 285.6653 620.1953L285.6653 620.1953L285.6653 560.0901C 285.6653 540.6221 269.8834 524.8401 250.4153 524.8401L250.4153 524.8401L102.4667 524.8401C 82.99866 524.8401 67.2167 540.6221 67.2167 560.0901z" /></clipPath><clipPath id="26"><path id="" clip-rule="evenodd" transform="matrix(1 0 0 1 0 0)" d="M67.2167 524.8401L285.4667 524.8401L285.4667 524.8401L285.4667 655.3401L285.4667 655.3401L67.2167 655.3401z" /></clipPath><clipPath id="27"><path id="" clip-rule="evenodd" transform="matrix(1 0 0 1 0 0)" d="M67.2167 524.8401L286.2056 524.8401L286.2056 524.8401L286.2056 656.0787L286.2056 656.0787L67.2167 656.0787z" /></clipPath><clipPath id="28"><path id="" clip-rule="evenodd" transform="matrix(1 0 0 1 0 0)" d="M67.2167 560.087L67.2167 620.1869C 67.2167 639.6533 82.99786 655.4338 102.4649 655.4338L102.4649 655.4338L250.406 655.4338C 269.873 655.4338 285.6542 639.6533 285.6542 620.1869L285.6542 620.1869L285.6542 560.087C 285.6542 540.6207 269.873 524.8401 250.406 524.8401L250.406 524.8401L102.4649 524.8401C 82.99786 524.8401 67.2167 540.6207 67.2167 560.087z" /></clipPath><clipPath id="29"><path id="" clip-rule="evenodd" transform="matrix(1 0 0 1 0 0)" d="M0 -0.249939L595.5 -0.249939L595.5 -0.249939L595.5 842.0001L595.5 842.0001L0 842.0001z" /></clipPath><clipPath id="30"><path id="" clip-rule="evenodd" transform="matrix(1 0 0 1 0 0)" d="M6.96 116.1501L587.52 116.1501L587.52 116.1501L587.52 440.1501L587.52 440.1501L6.96 440.1501z" /></clipPath><clipPath id="31"><path id="" clip-rule="evenodd" transform="matrix(1 0 0 1 0 0)" d="M15.45855 124.7055L580.6335 124.7055L580.6335 124.7055L580.6335 433.861L580.6335 433.861L15.45855 433.861z" /></clipPath><clipPath id="32"><path id="" clip-rule="evenodd" transform="matrix(1 0 0 1 0 0)" d="M25.95855 124.7055L569.3171 124.7055C 572.1018 124.7055 574.7726 125.8118 576.7418 127.7809C 578.7109 129.75 579.8171 132.4207 579.8171 135.2055L579.8171 135.2055L579.8171 423.361C 579.8171 426.1458 578.7109 428.8165 576.7418 430.7856C 574.7726 432.7548 572.1018 433.861 569.3171 433.861L569.3171 433.861L25.95855 433.861C 23.17377 433.861 20.50306 432.7548 18.53393 430.7856C 16.5648 428.8165 15.45855 426.1458 15.45855 423.361L15.45855 423.361L15.45855 135.2055C 15.45855 132.4207 16.5648 129.75 18.53393 127.7809C 20.50306 125.8118 23.17377 124.7055 25.95855 124.7055z" /></clipPath><clipPath id="33"><path id="" clip-rule="evenodd" transform="matrix(1 0 0 1 0 0)" d="M15.45855 124.7055L579.4586 124.7055L579.4586 124.7055L579.4586 433.7055L579.4586 433.7055L15.45855 433.7055z" /></clipPath><clipPath id="34"><path id="" clip-rule="evenodd" transform="matrix(1 0 0 1 0 0)" d="M15.45855 124.7058L581.8936 124.7058L581.8936 124.7058L581.8936 434.4313L581.8936 434.4313L15.45855 434.4313z" /></clipPath><clipPath id="35"><path id="" clip-rule="evenodd" transform="matrix(1 0 0 1 0 0)" d="M25.95842 124.7058L569.3103 124.7058C 572.095 124.7058 574.7657 125.8121 576.7349 127.7811C 578.7039 129.7502 579.8101 132.421 579.8101 135.2057L579.8101 135.2057L579.8101 423.3577C 579.8101 426.1424 578.7039 428.8131 576.7349 430.7822C 574.7657 432.7513 572.095 433.8575 569.3103 433.8575L569.3103 433.8575L25.95842 433.8575C 23.17368 433.8575 20.503 432.7513 18.53389 430.7822C 16.56478 428.8131 15.45855 426.1424 15.45855 423.3577L15.45855 423.3577L15.45855 135.2057C 15.45855 132.421 16.56478 129.7502 18.53389 127.7811C 20.503 125.8121 23.17368 124.7058 25.95842 124.7058z" /></clipPath><clipPath id="36"><path id="" clip-rule="evenodd" transform="matrix(1 0 0 1 0 0)" d="M0 -0.249939L595.5 -0.249939L595.5 -0.249939L595.5 842.0001L595.5 842.0001L0 842.0001z" /></clipPath><clipPath id="37"><path id="" clip-rule="evenodd" transform="matrix(1 0 0 1 0 0)" d="M0 -0.249939L595.5 -0.249939L595.5 -0.249939L595.5 842.0001L595.5 842.0001L0 842.0001z" /></clipPath><clipPath id="38"><path id="" clip-rule="evenodd" transform="matrix(1 0 0 1 0 0)" d="M267.728 259.533L554.978 259.533L554.978 259.533L554.978 405.783L554.978 405.783L267.728 405.783z" /></clipPath><clipPath id="39"><path id="" clip-rule="evenodd" transform="matrix(1 0 0 1 0 0)" d="M267.728 285.783L267.728 379.0741C 267.728 393.5716 279.4805 405.3241 293.978 405.3241L293.978 405.3241L528.0453 405.3241C 542.5428 405.3241 554.2953 393.5716 554.2953 379.0741L554.2953 379.0741L554.2953 285.783C 554.2953 271.2855 542.5428 259.533 528.0453 259.533L528.0453 259.533L293.978 259.533C 279.4805 259.533 267.728 271.2855 267.728 285.783z" /></clipPath><clipPath id="40"><path id="" clip-rule="evenodd" transform="matrix(1 0 0 1 0 0)" d="M268.478 260.283L553.478 260.283L553.478 260.283L553.478 405.033L553.478 405.033L268.478 405.033z" /></clipPath><clipPath id="41"><path id="" clip-rule="evenodd" transform="matrix(1 0 0 1 0 0)" d="M294.878 260.433L527.1453 260.433C 541.6427 260.433 553.3953 272.1855 553.3953 286.683L553.3953 286.683L553.3953 378.1741C 553.3953 392.6716 541.6427 404.4241 527.1453 404.4241L527.1453 404.4241L294.878 404.4241C 280.3805 404.4241 268.628 392.6716 268.628 378.1741L268.628 378.1741L268.628 286.683C 268.628 272.1855 280.3805 260.433 294.878 260.433z" /></clipPath><clipPath id="42"><path id="" clip-rule="evenodd" transform="matrix(1 0 0 1 0 0)" d="M0 -0.249939L595.5 -0.249939L595.5 -0.249939L595.5 842.0001L595.5 842.0001L0 842.0001z" /></clipPath><clipPath id="43"><path id="" clip-rule="evenodd" transform="matrix(1 0 0 1 0 0)" d="M0 -0.249939L595.5 -0.249939L595.5 -0.249939L595.5 842.0001L595.5 842.0001L0 842.0001z" /></clipPath><clipPath id="44"><path id="" clip-rule="evenodd" transform="matrix(1 0 0 1 0 0)" d="M267.728 259.533L554.978 259.533L554.978 259.533L554.978 405.783L554.978 405.783L267.728 405.783z" /></clipPath><clipPath id="45"><path id="" clip-rule="evenodd" transform="matrix(1 0 0 1 0 0)" d="M267.728 285.783L267.728 379.0741C 267.728 393.5716 279.4805 405.3241 293.978 405.3241L293.978 405.3241L528.0453 405.3241C 542.5428 405.3241 554.2953 393.5716 554.2953 379.0741L554.2953 379.0741L554.2953 285.783C 554.2953 271.2855 542.5428 259.533 528.0453 259.533L528.0453 259.533L293.978 259.533C 279.4805 259.533 267.728 271.2855 267.728 285.783z" /></clipPath><clipPath id="46"><path id="" clip-rule="evenodd" transform="matrix(1 0 0 1 0 0)" d="M267.728 259.533L554.228 259.533L554.228 259.533L554.228 405.033L554.228 405.033L267.728 405.033z" /></clipPath><clipPath id="47"><path id="" clip-rule="evenodd" transform="matrix(1 0 0 1 0 0)" d="M267.728 259.533L554.9693 259.533L554.9693 259.533L554.9693 405.7731L554.9693 405.7731L267.728 405.7731z" /></clipPath><clipPath id="48"><path id="" clip-rule="evenodd" transform="matrix(1 0 0 1 0 0)" d="M267.728 285.7813L267.728 379.066C 267.728 393.5625 279.4802 405.3142 293.9772 405.3142L293.9772 405.3142L528.0374 405.3142C 542.5344 405.3142 554.2866 393.5625 554.2866 379.066L554.2866 379.066L554.2866 285.7813C 554.2866 271.2847 542.5344 259.533 528.0374 259.533L528.0374 259.533L293.9772 259.533C 279.4802 259.533 267.728 271.2847 267.728 285.7813z" /></clipPath><clipPath id="49"><path id="" clip-rule="evenodd" transform="matrix(1 0 0 1 0 0)" d="M0 -0.249939L595.5 -0.249939L595.5 -0.249939L595.5 842.0001L595.5 842.0001L0 842.0001z" /></clipPath></defs><g transform="matrix(1.333333 0 0 1.333333 0 0)"><g clip-path="url(#1)"><g clip-path="url(#2)"><path id="1" transform="matrix(1 0 0 -1 0 842)" d="M0 842.2499L595.4999 842.2499L595.4999 -6.103516E-05L0 -6.103516E-05z" stroke="none" fill="#FFFFFF" fill-rule="nonzero" /></g><g clip-path="url(#3)"><path id="2" transform="matrix(1 0 0 -1 0 842)" d="M0 842.2499L595.4999 842.2499L595.4999 -6.103516E-05L0 -6.103516E-05z" stroke="none" fill="#E9FCFF" fill-rule="nonzero" /></g><g clip-path="url(#4)"><g><g clip-path="url(#5)"><g clip-path="url(#6)"><g transform="matrix(0 0.5281065 -0.5283893 0 535.7411 32.21863)"><g transform="matrix(1 0 0 1 0 0)"><image x="0" y="0" xlink:href="img_01.png" width="1521" height="863" /></g></g></g></g></g></g><g clip-path="url(#7)"><g transform="matrix(0.05374753 0 0 0.0538818 489.3922 29.22412)"><g transform="matrix(1 0 0 1 0 0)"><image x="0" y="0" xlink:href="img_02.png" width="1521" height="863" /></g></g></g><g clip-path="url(#8)"><g transform="matrix(0.4929577 0 0 0.4906914 7.072427 22.42804)"><g transform="matrix(1 0 0 1 0 0)"><image x="0" y="0" xlink:href="img_03.png" width="213" height="188" /></g></g></g><g clip-path="url(#9)"><g><g clip-path="url(#10)"><g clip-path="url(#11)"><g clip-path="url(#12)"><path id="6" transform="matrix(1 0 0 -1 0 842)" d="M50.19722 375.8957L545.0526 375.8957L545.0526 165.8079L50.19722 165.8079z" stroke="none" fill="#80EEFF" fill-rule="nonzero" fill-opacity="0.227451" /></g></g><g clip-path="url(#13)"><g clip-path="url(#14)"><g clip-path="url(#15)"><path id="7" transform="matrix(1 0 0 -1 0 842)" d="M79.44825 375.8957L515.8172 375.8957C 523.5746 375.8957 531.0142 372.8141 536.4995 367.3288C 541.9848 361.8435 545.0664 354.4039 545.0664 346.6465L545.0664 346.6465L545.0664 195.0629C 545.0664 187.3055 541.9848 179.8659 536.4995 174.3806C 531.0142 168.8953 523.5746 165.8137 515.8172 165.8137L515.8172 165.8137L79.44825 165.8137C 71.69088 165.8137 64.25124 168.8953 58.76595 174.3806C 53.28066 179.8659 50.19906 187.3055 50.19906 195.0629L50.19906 195.0629L50.19906 346.6465C 50.19906 354.4039 53.28066 361.8435 58.76595 367.3288C 64.25124 372.8141 71.69088 375.8957 79.44825 375.8957z" stroke="#000000" stroke-width="3" fill="none" /></g></g></g></g></g></g><g clip-path="url(#16)"><g clip-path="url(#17)"><g clip-path="url(#18)"><g clip-path="url(#19)"><g clip-path="url(#20)"><g clip-path="url(#21)"><g transform="matrix(0.5511363 0 0 0.5506328 67.2167 524.8401)"><g transform="matrix(1 0 0 1 0 0)"><image x="0" y="0" xlink:href="img_04.png" width="396" height="237" /></g></g></g></g></g></g></g></g><g clip-path="url(#22)"><g clip-path="url(#23)"><g clip-path="url(#24)"><g clip-path="url(#25)"><g clip-path="url(#26)"><g clip-path="url(#27)"><g clip-path="url(#28)"><path id="9" transform="matrix(1 0 0 -1 0 842)" d="M67.2167 281.9129L67.2167 221.8131C 67.2167 202.3467 82.99786 186.5661 102.4649 186.5661L102.4649 186.5661L250.406 186.5661C 269.873 186.5661 285.6542 202.3467 285.6542 221.8131L285.6542 221.8131L285.6542 281.9129C 285.6542 301.3793 269.873 317.1599 250.406 317.1599L250.406 317.1599L102.4649 317.1599C 82.99786 317.1599 67.2167 301.3793 67.2167 281.9129z" stroke="#000000" stroke-width="3" fill="none" /></g></g></g></g></g></g></g><g clip-path="url(#29)"><g><g clip-path="url(#30)"><g clip-path="url(#31)"><g clip-path="url(#32)"><path id="188" transform="matrix(1 0 0 -1 0 842)" d="M15.45855 717.2945L579.4258 717.2945L579.4258 408.1389L15.45855 408.1389z" stroke="none" fill="#80EEFF" fill-rule="nonzero" fill-opacity="0.227451" /></g></g><g clip-path="url(#33)"><g clip-path="url(#34)"><g clip-path="url(#35)"><path id="189" transform="matrix(1 0 0 -1 0 842)" d="M25.95842 717.2941L569.3102 717.2941C 572.095 717.2941 574.7657 716.1879 576.7348 714.2188C 578.7039 712.2497 579.8101 709.579 579.8101 706.7943L579.8101 706.7943L579.8101 418.6422C 579.8101 415.8575 578.7039 413.1868 576.7348 411.2177C 574.7657 409.2486 572.095 408.1424 569.3102 408.1424L569.3102 408.1424L25.95842 408.1424C 23.17368 408.1424 20.503 409.2486 18.53389 411.2177C 16.56478 413.1868 15.45855 415.8575 15.45855 418.6422L15.45855 418.6422L15.45855 706.7943C 15.45855 709.579 16.56478 712.2497 18.53389 714.2188C 20.503 716.1879 23.17368 717.2941 25.95842 717.2941z" stroke="#000000" stroke-width="3" fill="none" /></g></g></g></g></g></g><g clip-path="url(#36)"><g clip-path="url(#37)"><g clip-path="url(#38)"><g clip-path="url(#39)"><g clip-path="url(#40)"><g clip-path="url(#41)"><g transform="matrix(0.4775 0 0 0.4754902 267.728 259.533)"><g transform="matrix(1 0 0 1 0 0)"><image x="0" y="0" xlink:href="img_05.png" width="600" height="306" /></g></g></g></g></g></g></g></g><g clip-path="url(#42)"><g clip-path="url(#43)"><g clip-path="url(#44)"><g clip-path="url(#45)"><g clip-path="url(#46)"><g clip-path="url(#47)"><g clip-path="url(#48)"><path id="191" transform="matrix(1 0 0 -1 0 842)" d="M267.728 556.2188L267.728 462.934C 267.728 448.4374 279.4801 436.6857 293.9772 436.6857L293.9772 436.6857L528.0374 436.6857C 542.5343 436.6857 554.2865 448.4374 554.2865 462.934L554.2865 462.934L554.2865 556.2188C 554.2865 570.7153 542.5343 582.467 528.0374 582.467L528.0374 582.467L293.9772 582.467C 279.4801 582.467 267.728 570.7153 267.728 556.2188z" stroke="#000000" stroke-width="3" fill="none" /></g></g></g></g></g></g></g><g clip-path="url(#49)"></g></g></g></svg>