<svg xmlns="http://www.w3.org/2000/svg" xmlns:xlink="http://www.w3.org/1999/xlink" id="body_1" preserveAspectRatio="xMinYMin meet" viewBox="0 0 793 1123"><defs><clipPath id="1"><path id="" clip-rule="evenodd" transform="matrix(1 0 0 1 0 0)" d="M0 842L0 -0.25L0 -0.25L595.5 -0.25L595.5 -0.25L595.5 842L595.5 842L0 842z" /></clipPath><clipPath id="2"><path id="" clip-rule="evenodd" transform="matrix(1 0 0 1 0 0)" d="M0 -0.249939L595.5 -0.249939L595.5 -0.249939L595.5 842.0001L595.5 842.0001L0 842.0001z" /></clipPath><clipPath id="3"><path id="" clip-rule="evenodd" transform="matrix(1 0 0 1 0 0)" d="M0 -0.249939L595.5 -0.249939L595.5 -0.249939L595.5 842.0001L595.5 842.0001L0 842.0001z" /></clipPath><clipPath id="4"><path id="" clip-rule="evenodd" transform="matrix(1 0 0 1 0 0)" d="M0 -0.249939L595.5 -0.249939L595.5 -0.249939L595.5 842.0001L595.5 842.0001L0 842.0001z" /></clipPath><clipPath id="5"><path id="" clip-rule="evenodd" transform="matrix(1 0 0 1 0 0)" d="M78.71999 30.71008L522.24 30.71008L522.24 30.71008L522.24 810.9501L522.24 810.9501L78.71999 810.9501z" /></clipPath><clipPath id="6"><path id="" clip-rule="evenodd" transform="matrix(1 0 0 1 0 0)" d="M79.51787 30.75183L522.0178 30.75183L522.0178 30.75183L522.0178 810.7518L522.0178 810.7518L79.51787 810.7518z" /></clipPath><clipPath id="7"><path id="" clip-rule="evenodd" transform="matrix(1 0 0 1 0 0)" d="M0 -0.249939L595.5 -0.249939L595.5 -0.249939L595.5 842.0001L595.5 842.0001L0 842.0001z" /></clipPath><clipPath id="8"><path id="" clip-rule="evenodd" transform="matrix(1 0 0 1 0 0)" d="M0 -0.249939L595.5 -0.249939L595.5 -0.249939L595.5 842.0001L595.5 842.0001L0 842.0001z" /></clipPath><clipPath id="9"><path id="" clip-rule="evenodd" transform="matrix(1 0 0 1 0 0)" d="M146.9184 80.40076L234.7392 80.40076L234.7392 80.40076L234.7392 132.1175L234.7392 132.1175L146.9184 132.1175z" /></clipPath><clipPath id="10"><path id="" clip-rule="evenodd" transform="matrix(1 0 0 1 0 0)" d="M160.1252 81.24365L158.6952 82.00366L158.6952 82.00366L158.6152 82.1637C 156.3652 89.26367 152.8052 95.8537 147.8052 102.0337L147.8052 102.0337L149.0852 102.5237L149.0852 102.5237L149.9752 101.9937C 154.1652 96.80371 157.4752 90.96368 159.7752 84.71368C 162.0552 90.4137 165.0253 95.82373 168.6353 100.8137C 176.0353 111.0537 185.9453 119.4838 197.2753 125.1138C 202.8653 127.8938 208.8954 130.1238 215.0654 131.1638C 216.9454 131.4838 218.8654 131.6738 220.8154 131.6738C 225.0754 131.6738 229.4754 130.7638 233.9954 128.2738L233.9954 128.2738L231.6154 128.0238C 228.4554 129.7738 224.9754 130.4338 221.4454 130.4338C 218.3854 130.4338 215.2854 129.9338 212.3354 129.1938C 200.6253 126.2638 189.7253 119.9338 180.8853 111.8037C 172.4053 104.0037 165.6552 94.2937 161.5052 83.55371C 166.3253 85.58368 171.4353 86.83368 176.6553 87.2937L176.6553 87.2937L177.7353 87.38367L177.7353 87.38367L177.0253 86.02368C 171.2753 85.51367 165.6853 83.92371 160.1452 81.24365L160.1452 81.24365L160.1252 81.24365z" /></clipPath><clipPath id="11"><path id="" clip-rule="evenodd" transform="matrix(1 0 0 1 0 0)" d="M0 -0.249939L595.5 -0.249939L595.5 -0.249939L595.5 842.0001L595.5 842.0001L0 842.0001z" /></clipPath><clipPath id="12"><path id="" clip-rule="evenodd" transform="matrix(1 0 0 1 0 0)" d="M0 -0.249939L595.5 -0.249939L595.5 -0.249939L595.5 842.0001L595.5 842.0001L0 842.0001z" /></clipPath><clipPath id="13"><path id="" clip-rule="evenodd" transform="matrix(1 0 0 1 0 0)" d="M187.9014 26.73248L454.2914 26.73248L454.2914 26.73248L454.2914 266.7762L454.2914 266.7762L187.9014 266.7762z" /></clipPath><clipPath id="14"><path id="" clip-rule="evenodd" transform="matrix(1 0 0 1 0 0)" d="M318.3856 26.85352C 306.2256 26.85352 294.0356 30.15356 285.1455 37.49359C 272.6655 47.78357 272.2255 64.31366 268.6855 78.96368C 262.6355 103.9437 243.3854 121.3638 222.2454 134.6138C 211.1154 141.5838 199.7253 149.1738 193.0053 160.4539C 185.5453 173.0239 188.5353 190.3939 199.1853 200.2739C 211.5954 211.804 231.3454 207.574 245.5454 217.584C 257.6855 226.144 261.4255 240.1641 270.8555 250.9541C 277.9055 259.024 288.0655 264.0241 298.6356 265.7941C 302.0656 266.3641 305.3856 266.6441 308.6056 266.6441C 320.3456 266.6441 330.8057 262.8741 340.5557 255.264C 349.4057 248.3541 357.6657 239.894 369.1357 239.894C 370.5657 239.894 372.0557 240.024 373.5957 240.3141C 379.5258 241.4041 385.1158 243.824 391.0158 245.1041C 394.1758 245.7941 397.3458 246.124 400.4758 246.124C 414.1959 246.124 427.3659 239.834 437.0859 229.954C 456.1559 210.5439 453.5459 183.8639 452.9959 180.2239C 450.3459 162.6139 441.0759 146.8438 427.6159 135.3738C 419.6858 128.6238 410.9958 122.7638 403.7158 115.3138C 380.4857 91.64368 379.9758 52.38361 349.1157 34.54358C 340.5857 29.60358 329.4956 26.85352 318.3856 26.85352z" /></clipPath><clipPath id="15"><path id="" clip-rule="evenodd" transform="matrix(1 0 0 1 0 0)" d="M143.2616 173.9578L267.7616 173.9578L267.7616 173.9578L267.7616 298.4578L267.7616 298.4578L143.2616 298.4578z" /></clipPath><clipPath id="16"><path id="" clip-rule="evenodd" transform="matrix(1 0 0 1 0 0)" d="M0 -0.249939L595.5 -0.249939L595.5 -0.249939L595.5 842.0001L595.5 842.0001L0 842.0001z" /></clipPath><clipPath id="17"><path id="" clip-rule="evenodd" transform="matrix(1 0 0 1 0 0)" d="M0 -0.249939L595.5 -0.249939L595.5 -0.249939L595.5 842.0001L595.5 842.0001L0 842.0001z" /></clipPath><clipPath id="18"><path id="" clip-rule="evenodd" transform="matrix(1 0 0 1 0 0)" d="M117.0319 21.85352L179.7739 21.85352L179.7739 21.85352L179.7739 84.59552L179.7739 84.59552L117.0319 84.59552z" /></clipPath><clipPath id="19"><path id="" clip-rule="evenodd" transform="matrix(1 0 0 1 0 0)" d="M148.4019 21.85352C 165.7319 21.85352 179.7719 35.89355 179.7719 53.22351C 179.7719 70.55353 165.7319 84.59351 148.4019 84.59351C 131.0719 84.59351 117.0319 70.55353 117.0319 53.22351C 117.0319 35.89355 131.0719 21.85352 148.4019 21.85352z" /></clipPath><clipPath id="20"><path id="" clip-rule="evenodd" transform="matrix(1 0 0 1 0 0)" d="M30.546 298.4578L564.546 298.4578L564.546 298.4578L564.546 320.2078L564.546 320.2078L30.546 320.2078z" /></clipPath><clipPath id="21"><path id="" clip-rule="evenodd" transform="matrix(1 0 0 1 0 0)" d="M17.98228 402.8984L359.9823 402.8984L359.9823 402.8984L359.9823 746.3984L359.9823 746.3984L17.98228 746.3984z" /></clipPath><clipPath id="22"><path id="" clip-rule="evenodd" transform="matrix(1 0 0 1 0 0)" d="M0 -0.249939L595.5 -0.249939L595.5 -0.249939L595.5 842.0001L595.5 842.0001L0 842.0001z" /></clipPath><clipPath id="23"><path id="" clip-rule="evenodd" transform="matrix(1 0 0 1 0 0)" d="M0 -0.249939L595.5 -0.249939L595.5 -0.249939L595.5 842.0001L595.5 842.0001L0 842.0001z" /></clipPath><clipPath id="24"><path id="" clip-rule="evenodd" transform="matrix(1 0 0 1 0 0)" d="M62.33453 490.1463L154.0219 490.1463L154.0219 490.1463L154.0219 577.4191L154.0219 577.4191L62.33453 577.4191z" /></clipPath><clipPath id="25"><path id="" clip-rule="evenodd" transform="matrix(1 0 0 1 0 0)" d="M111.047 490.1463C 107.117 490.1463 103.8845 490.9938 100.8695 492.3888C 94.42703 494.3763 88.15703 497.5563 82.86203 501.4788C 75.92453 506.6913 70.18703 513.3963 66.74453 521.4288C 64.71203 526.1538 63.56453 531.0963 62.94953 536.2188C 62.28953 541.5138 61.93703 547.0788 63.08453 552.2913C 65.11703 561.3813 72.61703 568.6263 80.78453 572.5563C 86.68703 575.3838 93.07703 576.8538 99.54203 577.0863L99.54203 577.0863L102.887 577.0863L102.887 577.0863L108.287 576.6588C 118.217 575.3313 127.667 571.4088 136.142 566.1063C 143.777 561.3363 151.1495 554.8938 153.272 545.7588C 155.612 535.5588 151.592 525.3663 147.5795 516.1863C 143.7845 507.5763 138.4445 498.9288 129.7895 494.4663L129.7895 494.4663L127.3145 493.3638C 123.2045 491.5488 118.877 490.5738 114.422 490.4013L114.422 490.4013L113.1395 490.2213L113.1395 490.2213L111.047 490.1463z" /></clipPath><clipPath id="26"><path id="" clip-rule="evenodd" transform="matrix(1 0 0 1 0 0)" d="M62.33453 490.1463L154.0219 490.1463L154.0219 490.1463L154.0219 577.0795L154.0219 577.0795L62.33453 577.0795z" /></clipPath><clipPath id="27"><path id="" clip-rule="evenodd" transform="matrix(1 0 0 1 0 0)" d="M0 -0.249939L595.5 -0.249939L595.5 -0.249939L595.5 842.0001L595.5 842.0001L0 842.0001z" /></clipPath><clipPath id="28"><path id="" clip-rule="evenodd" transform="matrix(1 0 0 1 0 0)" d="M0 -0.249939L595.5 -0.249939L595.5 -0.249939L595.5 842.0001L595.5 842.0001L0 842.0001z" /></clipPath><clipPath id="29"><path id="" clip-rule="evenodd" transform="matrix(1 0 0 1 0 0)" d="M216.12 547.0684L307.8074 547.0684L307.8074 547.0684L307.8074 634.3412L307.8074 634.3412L216.12 634.3412z" /></clipPath><clipPath id="30"><path id="" clip-rule="evenodd" transform="matrix(1 0 0 1 0 0)" d="M264.8325 547.0684C 260.9025 547.0684 257.67 547.9158 254.655 549.3109C 248.2125 551.2983 241.9425 554.4783 236.6475 558.4009C 229.71 563.6133 223.9725 570.3184 220.53 578.3508C 218.4975 583.0759 217.35 588.0184 216.735 593.1409C 216.075 598.4359 215.7225 604.0009 216.87 609.2133C 218.9025 618.3033 226.4025 625.5483 234.57 629.4783C 240.4725 632.3058 246.8625 633.7758 253.3275 634.0084L253.3275 634.0084L256.665 634.0084L256.665 634.0084L262.065 633.5809C 271.995 632.2534 281.445 628.3309 289.92 623.0283C 297.555 618.2584 304.9275 611.8159 307.05 602.6808C 309.39 592.4808 305.37 582.2883 301.3575 573.1083C 297.5625 564.4984 292.2225 555.8508 283.5675 551.3884L283.5675 551.3884L281.0925 550.2858C 276.99 548.4708 272.6625 547.4958 268.2075 547.3234L268.2075 547.3234L266.925 547.1434L266.925 547.1434L264.8325 547.0684z" /></clipPath><clipPath id="31"><path id="" clip-rule="evenodd" transform="matrix(1 0 0 1 0 0)" d="M216.12 547.0684L307.8074 547.0684L307.8074 547.0684L307.8074 634.0016L307.8074 634.0016L216.12 634.0016z" /></clipPath><clipPath id="32"><path id="" clip-rule="evenodd" transform="matrix(1 0 0 1 0 0)" d="M0 -0.249939L595.5 -0.249939L595.5 -0.249939L595.5 842.0001L595.5 842.0001L0 842.0001z" /></clipPath><clipPath id="33"><path id="" clip-rule="evenodd" transform="matrix(1 0 0 1 0 0)" d="M0 -0.249939L595.5 -0.249939L595.5 -0.249939L595.5 842.0001L595.5 842.0001L0 842.0001z" /></clipPath><clipPath id="34"><path id="" clip-rule="evenodd" transform="matrix(1 0 0 1 0 0)" d="M0 -0.249939L595.5 -0.249939L595.5 -0.249939L595.5 842.0001L595.5 842.0001L0 842.0001z" /></clipPath><clipPath id="35"><path id="" clip-rule="evenodd" transform="matrix(1 0 0 1 0 0)" d="M27.73903 21.85352L59.98903 21.85352L59.98903 21.85352L59.98903 54.10352L59.98903 54.10352L27.73903 54.10352z" /></clipPath><clipPath id="36"><path id="" clip-rule="evenodd" transform="matrix(1 0 0 1 0 0)" d="M27.73903 37.7478L27.73903 37.75043C 27.73903 41.96582 29.4136 46.00861 32.39435 48.98932C 35.3751 51.97009 39.41787 53.64465 43.63329 53.64465C 47.84871 53.64465 51.89148 51.97009 54.87223 48.98932C 57.85299 46.00861 59.52756 41.96582 59.52756 37.75043L59.52756 37.75043L59.52756 37.7478C 59.52756 33.53235 57.85299 29.48962 54.87223 26.50885C 51.89148 23.52808 47.84871 21.85352 43.63329 21.85352C 39.41787 21.85352 35.3751 23.52808 32.39435 26.50885C 29.4136 29.48962 27.73903 33.53235 27.73903 37.7478z" /></clipPath><clipPath id="37"><path id="" clip-rule="evenodd" transform="matrix(1 0 0 1 0 0)" d="M28.48903 22.60352L59.23903 22.60352L59.23903 22.60352L59.23903 53.35352L59.23903 53.35352L28.48903 53.35352z" /></clipPath><clipPath id="38"><path id="" clip-rule="evenodd" transform="matrix(1 0 0 1 0 0)" d="M43.63329 22.75354C 47.61002 22.75354 51.42387 24.33325 54.23584 27.14526C 57.04781 29.95721 58.62756 33.77106 58.62756 37.7478L58.62756 37.7478L58.62756 37.75043C 58.62756 41.72711 57.04781 45.54095 54.23584 48.35297C 51.42387 51.16492 47.61002 52.74469 43.63329 52.74469C 39.65657 52.74469 35.84272 51.16492 33.03075 48.35297C 30.21878 45.54095 28.63903 41.72711 28.63903 37.75043L28.63903 37.75043L28.63903 37.7478C 28.63903 33.77106 30.21878 29.95721 33.03075 27.14526C 35.84272 24.33325 39.65657 22.75354 43.63329 22.75354z" /></clipPath><clipPath id="39"><path id="" clip-rule="evenodd" transform="matrix(1 0 0 1 0 0)" d="M28.48773 22.60352L59.23773 22.60352L59.23773 22.60352L59.23773 53.35352L59.23773 53.35352L28.48773 53.35352z" /></clipPath><clipPath id="40"><path id="" clip-rule="evenodd" transform="matrix(1 0 0 1 0 0)" d="M27.73103 21.84686L59.23103 21.84686L59.23103 21.84686L59.23103 53.34686L59.23103 53.34686L27.73103 53.34686z" /></clipPath><clipPath id="41"><path id="" clip-rule="evenodd" transform="matrix(1 0 0 1 0 0)" d="M0 -0.249939L595.5 -0.249939L595.5 -0.249939L595.5 842.0001L595.5 842.0001L0 842.0001z" /></clipPath><clipPath id="42"><path id="" clip-rule="evenodd" transform="matrix(1 0 0 1 0 0)" d="M0 -0.249939L595.5 -0.249939L595.5 -0.249939L595.5 842.0001L595.5 842.0001L0 842.0001z" /></clipPath><clipPath id="43"><path id="" clip-rule="evenodd" transform="matrix(1 0 0 1 0 0)" d="M27.73903 21.85352L59.98903 21.85352L59.98903 21.85352L59.98903 54.10352L59.98903 54.10352L27.73903 54.10352z" /></clipPath><clipPath id="44"><path id="" clip-rule="evenodd" transform="matrix(1 0 0 1 0 0)" d="M27.73903 37.7478L27.73903 37.75043C 27.73903 41.96582 29.4136 46.00861 32.39435 48.98932C 35.3751 51.97009 39.41787 53.64465 43.63329 53.64465C 47.84871 53.64465 51.89148 51.97009 54.87223 48.98932C 57.85299 46.00861 59.52756 41.96582 59.52756 37.75043L59.52756 37.75043L59.52756 37.7478C 59.52756 33.53235 57.85299 29.48962 54.87223 26.50885C 51.89148 23.52808 47.84871 21.85352 43.63329 21.85352C 39.41787 21.85352 35.3751 23.52808 32.39435 26.50885C 29.4136 29.48962 27.73903 33.53235 27.73903 37.7478z" /></clipPath><clipPath id="45"><path id="" clip-rule="evenodd" transform="matrix(1 0 0 1 0 0)" d="M27.73903 21.85352L59.23903 21.85352L59.23903 21.85352L59.23903 53.35352L59.23903 53.35352L27.73903 53.35352z" /></clipPath><clipPath id="46"><path id="" clip-rule="evenodd" transform="matrix(1 0 0 1 0 0)" d="M27.73903 21.85352L59.98164 21.85352L59.98164 21.85352L59.98164 54.09351L59.98164 54.09351L27.73903 54.09351z" /></clipPath><clipPath id="47"><path id="" clip-rule="evenodd" transform="matrix(1 0 0 1 0 0)" d="M27.73903 37.74286L27.73903 37.74548C 27.73903 41.95959 29.41322 46.0011 32.39329 48.9809C 35.37335 51.96075 39.4152 53.63477 43.62965 53.63477C 47.84411 53.63477 51.88595 51.96075 54.86602 48.9809C 57.84609 46.0011 59.52028 41.95959 59.52028 37.74548L59.52028 37.74548L59.52028 37.74286C 59.52028 33.52875 57.84609 29.48724 54.86602 26.50739C 51.88595 23.52759 47.84411 21.85352 43.62965 21.85352C 39.4152 21.85352 35.37335 23.52759 32.39329 26.50739C 29.41322 29.48724 27.73903 33.52875 27.73903 37.74286z" /></clipPath><clipPath id="48"><path id="" clip-rule="evenodd" transform="matrix(1 0 0 1 0 0)" d="M0 -0.249939L595.5 -0.249939L595.5 -0.249939L595.5 842.0001L595.5 842.0001L0 842.0001z" /></clipPath><clipPath id="49"><path id="" clip-rule="evenodd" transform="matrix(1 0 0 1 0 0)" d="M0 -0.249939L595.5 -0.249939L595.5 -0.249939L595.5 842.0001L595.5 842.0001L0 842.0001z" /></clipPath><clipPath id="50"><path id="" clip-rule="evenodd" transform="matrix(1 0 0 1 0 0)" d="M0 -0.249939L595.5 -0.249939L595.5 -0.249939L595.5 842.0001L595.5 842.0001L0 842.0001z" /></clipPath><clipPath id="51"><path id="" clip-rule="evenodd" transform="matrix(1 0 0 1 0 0)" d="M381.1555 466.5412L546.998 466.5412L546.998 466.5412L546.998 682.9139L546.998 682.9139L381.1555 682.9139z" /></clipPath><clipPath id="52"><path id="" clip-rule="evenodd" transform="matrix(1 0 0 1 0 0)" d="M393.9055 466.5412L534.248 466.5412C 541.2896 466.5412 546.998 472.2496 546.998 479.2912L546.998 479.2912L546.998 669.9105C 546.998 676.9521 541.2896 682.6605 534.248 682.6605L534.248 682.6605L393.9055 682.6605C 386.8639 682.6605 381.1555 676.9521 381.1555 669.9105L381.1555 669.9105L381.1555 479.2912C 381.1555 472.2496 386.8639 466.5412 393.9055 466.5412z" /></clipPath><clipPath id="53"><path id="" clip-rule="evenodd" transform="matrix(1 0 0 1 0 0)" d="M381.1555 466.5412L546.998 466.5412L546.998 466.5412L546.998 682.9139L546.998 682.9139L381.1555 682.9139z" /></clipPath><clipPath id="54"><path id="" clip-rule="evenodd" transform="matrix(1 0 0 1 0 0)" d="M0 -0.249939L595.5 -0.249939L595.5 -0.249939L595.5 842.0001L595.5 842.0001L0 842.0001z" /></clipPath><clipPath id="55"><path id="" clip-rule="evenodd" transform="matrix(1 0 0 1 0 0)" d="M0 -0.249939L595.5 -0.249939L595.5 -0.249939L595.5 842.0001L595.5 842.0001L0 842.0001z" /></clipPath><clipPath id="56"><path id="" clip-rule="evenodd" transform="matrix(1 0 0 1 0 0)" d="M381.1555 466.5412L546.9055 466.5412L546.9055 466.5412L546.9055 682.5413L546.9055 682.5413L381.1555 682.5413z" /></clipPath><clipPath id="57"><path id="" clip-rule="evenodd" transform="matrix(1 0 0 1 0 0)" d="M381.1555 466.5471L549.988 466.5471L549.988 466.5471L549.988 682.6526L549.988 682.6526L381.1555 682.6526z" /></clipPath><clipPath id="58"><path id="" clip-rule="evenodd" transform="matrix(1 0 0 1 0 0)" d="M393.9047 466.5471L534.2383 466.5471C 541.2795 466.5471 546.9875 472.2551 546.9875 479.2962L546.9875 479.2962L546.9875 669.9034C 546.9875 676.9446 541.2795 682.6526 534.2383 682.6526L534.2383 682.6526L393.9047 682.6526C 386.8635 682.6526 381.1555 676.9446 381.1555 669.9034L381.1555 669.9034L381.1555 479.2962C 381.1555 472.2551 386.8635 466.5471 393.9047 466.5471z" /></clipPath><clipPath id="59"><path id="" clip-rule="evenodd" transform="matrix(1 0 0 1 0 0)" d="M0 -0.249939L595.5 -0.249939L595.5 -0.249939L595.5 842.0001L595.5 842.0001L0 842.0001z" /></clipPath><clipPath id="60"><path id="" clip-rule="evenodd" transform="matrix(1 0 0 1 0 0)" d="M0 -0.249939L595.5 -0.249939L595.5 -0.249939L595.5 842.0001L595.5 842.0001L0 842.0001z" /></clipPath><clipPath id="61"><path id="" clip-rule="evenodd" transform="matrix(1 0 0 1 0 0)" d="M30.546 357.5452L62.796 357.5452L62.796 357.5452L62.796 389.7952L62.796 389.7952L30.546 389.7952z" /></clipPath><clipPath id="62"><path id="" clip-rule="evenodd" transform="matrix(1 0 0 1 0 0)" d="M30.546 373.4395L30.546 373.4421C 30.546 377.6575 32.22057 381.7003 35.20132 384.681C 38.18208 387.6618 42.22484 389.3363 46.44026 389.3363C 50.65569 389.3363 54.69845 387.6618 57.6792 384.681C 60.65995 381.7003 62.33453 377.6575 62.33453 373.4421L62.33453 373.4421L62.33453 373.4395C 62.33453 369.2241 60.65995 365.1813 57.6792 362.2005C 54.69845 359.2198 50.65569 357.5452 46.44026 357.5452C 42.22484 357.5452 38.18208 359.2198 35.20132 362.2005C 32.22057 365.1813 30.546 369.2241 30.546 373.4395z" /></clipPath><clipPath id="63"><path id="" clip-rule="evenodd" transform="matrix(1 0 0 1 0 0)" d="M31.296 358.2952L62.046 358.2952L62.046 358.2952L62.046 389.0452L62.046 389.0452L31.296 389.0452z" /></clipPath><clipPath id="64"><path id="" clip-rule="evenodd" transform="matrix(1 0 0 1 0 0)" d="M46.44026 358.4452C 50.41699 358.4452 54.23083 360.0249 57.04281 362.8369C 59.85478 365.6489 61.43453 369.4627 61.43453 373.4395L61.43453 373.4395L61.43453 373.4421C 61.43453 377.4188 59.85478 381.2326 57.04281 384.0446C 54.23083 386.8566 50.41699 388.4363 46.44026 388.4363C 42.46354 388.4363 38.64969 386.8566 35.83772 384.0446C 33.02575 381.2326 31.446 377.4188 31.446 373.4421L31.446 373.4421L31.446 373.4395C 31.446 369.4627 33.02575 365.6489 35.83772 362.8369C 38.64969 360.0249 42.46354 358.4452 46.44026 358.4452z" /></clipPath><clipPath id="65"><path id="" clip-rule="evenodd" transform="matrix(1 0 0 1 0 0)" d="M31.2947 358.2952L62.0447 358.2952L62.0447 358.2952L62.0447 389.0452L62.0447 389.0452L31.2947 389.0452z" /></clipPath><clipPath id="66"><path id="" clip-rule="evenodd" transform="matrix(1 0 0 1 0 0)" d="M30.538 357.5385L62.038 357.5385L62.038 357.5385L62.038 389.0385L62.038 389.0385L30.538 389.0385z" /></clipPath><clipPath id="67"><path id="" clip-rule="evenodd" transform="matrix(1 0 0 1 0 0)" d="M0 -0.249939L595.5 -0.249939L595.5 -0.249939L595.5 842.0001L595.5 842.0001L0 842.0001z" /></clipPath><clipPath id="68"><path id="" clip-rule="evenodd" transform="matrix(1 0 0 1 0 0)" d="M0 -0.249939L595.5 -0.249939L595.5 -0.249939L595.5 842.0001L595.5 842.0001L0 842.0001z" /></clipPath><clipPath id="69"><path id="" clip-rule="evenodd" transform="matrix(1 0 0 1 0 0)" d="M30.546 357.5452L62.796 357.5452L62.796 357.5452L62.796 389.7952L62.796 389.7952L30.546 389.7952z" /></clipPath><clipPath id="70"><path id="" clip-rule="evenodd" transform="matrix(1 0 0 1 0 0)" d="M30.546 373.4395L30.546 373.4421C 30.546 377.6575 32.22057 381.7003 35.20132 384.681C 38.18208 387.6618 42.22484 389.3363 46.44026 389.3363C 50.65569 389.3363 54.69845 387.6618 57.6792 384.681C 60.65995 381.7003 62.33453 377.6575 62.33453 373.4421L62.33453 373.4421L62.33453 373.4395C 62.33453 369.2241 60.65995 365.1813 57.6792 362.2005C 54.69845 359.2198 50.65569 357.5452 46.44026 357.5452C 42.22484 357.5452 38.18208 359.2198 35.20132 362.2005C 32.22057 365.1813 30.546 369.2241 30.546 373.4395z" /></clipPath><clipPath id="71"><path id="" clip-rule="evenodd" transform="matrix(1 0 0 1 0 0)" d="M30.546 357.5452L62.046 357.5452L62.046 357.5452L62.046 389.0452L62.046 389.0452L30.546 389.0452z" /></clipPath><clipPath id="72"><path id="" clip-rule="evenodd" transform="matrix(1 0 0 1 0 0)" d="M30.546 357.5452L62.78862 357.5452L62.78862 357.5452L62.78862 389.7852L62.78862 389.7852L30.546 389.7852z" /></clipPath><clipPath id="73"><path id="" clip-rule="evenodd" transform="matrix(1 0 0 1 0 0)" d="M30.546 373.4345L30.546 373.4371C 30.546 377.6512 32.22018 381.6927 35.20026 384.6726C 38.18032 387.6524 42.22217 389.3264 46.43662 389.3264C 50.65108 389.3264 54.69292 387.6524 57.67299 384.6726C 60.65306 381.6927 62.32725 377.6512 62.32725 373.4371L62.32725 373.4371L62.32725 373.4345C 62.32725 369.2204 60.65306 365.1789 57.67299 362.1991C 54.69292 359.2192 50.65108 357.5452 46.43662 357.5452C 42.22217 357.5452 38.18032 359.2192 35.20026 362.1991C 32.22018 365.1789 30.546 369.2204 30.546 373.4345z" /></clipPath><clipPath id="74"><path id="" clip-rule="evenodd" transform="matrix(1 0 0 1 0 0)" d="M0 -0.249939L595.5 -0.249939L595.5 -0.249939L595.5 842.0001L595.5 842.0001L0 842.0001z" /></clipPath><clipPath id="75"><path id="" clip-rule="evenodd" transform="matrix(1 0 0 1 0 0)" d="M475.9692 14.82153L571.9692 14.82153L571.9692 14.82153L571.9692 69.57153L571.9692 69.57153L475.9692 69.57153z" /></clipPath></defs><g transform="matrix(1.333333 0 0 1.333333 0 0)"><g clip-path="url(#1)"><g clip-path="url(#2)"><path id="1" transform="matrix(1 0 0 -1 0 842)" d="M0 842.2499L595.4999 842.2499L595.4999 -6.103516E-05L0 -6.103516E-05z" stroke="none" fill="#FFFFFF" fill-rule="nonzero" /></g><g clip-path="url(#3)"><path id="2" transform="matrix(1 0 0 -1 0 842)" d="M0 842.2499L595.4999 842.2499L595.4999 -6.103516E-05L0 -6.103516E-05z" stroke="none" fill="#FFFFFF" fill-rule="nonzero" /></g><g clip-path="url(#4)"><g><g clip-path="url(#5)"><g clip-path="url(#6)"><g transform="matrix(0 0.5128205 -0.5127462 0 522.0178 30.75189)"><g transform="matrix(1 0 0 1 0 0)"><image x="0" y="0" xlink:href="img_01.png" width="1521" height="863" /></g></g></g></g></g></g><g clip-path="url(#7)"><g clip-path="url(#8)"><g clip-path="url(#9)"><g clip-path="url(#10)"><path id="4" transform="matrix(1 0 0 -1 0 842)" d="M143.0152 820.1464L458.1945 820.1464L458.1945 570.3448L143.0152 570.3448z" stroke="none" fill="#000000" fill-rule="nonzero" /></g></g></g></g><g clip-path="url(#11)"><g clip-path="url(#12)"><g clip-path="url(#13)"><g clip-path="url(#14)"><path id="5" transform="matrix(1 0 0 -1 0 842)" d="M143.0152 820.1464L458.1945 820.1464L458.1945 570.3448L143.0152 570.3448z" stroke="none" fill="#C4C0C0" fill-rule="nonzero" /></g></g></g></g><g clip-path="url(#15)"><g transform="matrix(0.607317 0 0 0.607317 143.2616 173.9578)"><g transform="matrix(1 0 0 1 0 0)"><image x="0" y="0" xlink:href="img_02.png" width="205" height="205" /></g></g></g><g clip-path="url(#16)"><g clip-path="url(#17)"><g clip-path="url(#18)"><g clip-path="url(#19)"><path id="7" transform="matrix(1 0 0 -1 0 842)" d="M117.0319 820.1464L179.7739 820.1464L179.7739 757.4044L117.0319 757.4044z" stroke="none" fill="#C4C0C0" fill-rule="nonzero" /></g></g></g></g><g clip-path="url(#20)"><g transform="matrix(0.24 0 0 0.239011 30.546 298.4578)"><g transform="matrix(1 0 0 1 0 0)"><image x="0" y="0" xlink:href="img_03.png" width="2225" height="91" /></g></g></g><g clip-path="url(#21)"><g transform="matrix(0.24 0 0 0.2405462 17.98228 402.8985)"><g transform="matrix(1 0 0 1 0 0)"><image x="0" y="0" xlink:href="img_04.png" width="1425" height="1428" /></g></g></g><g clip-path="url(#22)"><g clip-path="url(#23)"><g clip-path="url(#24)"><g clip-path="url(#25)"><g clip-path="url(#26)"><g transform="matrix(0.5867478 0 0 0.5873869 61.82003 490.1185)"><g transform="matrix(1 0 0 1 0 0)"><image x="0" y="0" xlink:href="img_05.png" width="158" height="148" /></g></g></g></g></g></g></g><g clip-path="url(#27)"><g clip-path="url(#28)"><g clip-path="url(#29)"><g clip-path="url(#30)"><g clip-path="url(#31)"><g transform="matrix(0.5884699 0 0 0.5873869 214.5443 547.0406)"><g transform="matrix(1 0 0 1 0 0)"><image x="0" y="0" xlink:href="img_06.png" width="161" height="148" /></g></g></g></g></g></g></g><g clip-path="url(#32)"></g><g clip-path="url(#33)"><g clip-path="url(#34)"><g clip-path="url(#35)"><g clip-path="url(#36)"><g clip-path="url(#37)"><g clip-path="url(#38)"><g clip-path="url(#39)"><g clip-path="url(#40)"><path id="281" transform="matrix(1 0 0 -1 0 842)" d="M43.48103 819.9203C 34.92327 819.9203 27.96379 812.9609 27.96379 804.4031C 27.96379 795.8454 34.92327 788.8859 43.48103 788.8859C 52.03879 788.8859 58.99827 795.8454 58.99827 804.4031C 58.99827 812.9609 52.03879 819.9203 43.48103 819.9203zM43.48103 788.6531C 34.79913 788.6531 27.73103 795.7213 27.73103 804.4031C 27.73103 813.085 34.79913 820.1531 43.48103 820.1531C 52.16293 820.1531 59.23103 813.085 59.23103 804.4031C 59.23103 795.7213 52.16293 788.6531 43.48103 788.6531z" stroke="none" fill="#000000" fill-rule="nonzero" /></g></g></g></g></g></g></g></g><g clip-path="url(#41)"><g clip-path="url(#42)"><g clip-path="url(#43)"><g clip-path="url(#44)"><g clip-path="url(#45)"><g clip-path="url(#46)"><g clip-path="url(#47)"><path id="282" transform="matrix(1 0 0 -1 0 842)" d="M27.73903 804.2571L27.73903 804.2545C 27.73903 800.0404 29.41322 795.9989 32.39328 793.019C 35.37336 790.0392 39.4152 788.3652 43.62965 788.3652C 47.84411 788.3652 51.88595 790.0392 54.86602 793.019C 57.84609 795.9989 59.52028 800.0404 59.52028 804.2545L59.52028 804.2545L59.52028 804.2571C 59.52028 808.4712 57.84609 812.5127 54.86602 815.4926C 51.88595 818.4724 47.84411 820.1464 43.62965 820.1464C 39.4152 820.1464 35.37336 818.4724 32.39328 815.4926C 29.41322 812.5127 27.73903 808.4712 27.73903 804.2571z" stroke="#000000" stroke-width="1.5" fill="none" /></g></g></g></g></g></g></g><g clip-path="url(#48)"></g><g clip-path="url(#49)"><g clip-path="url(#50)"><g clip-path="url(#51)"><g clip-path="url(#52)"><g clip-path="url(#53)"><g transform="matrix(0.4146062 0 0 0.4140218 381.1555 464.3985)"><g transform="matrix(1 0 0 1 0 0)"><image x="0" y="0" xlink:href="img_07.png" width="400" height="532" /></g></g></g></g></g></g></g><g clip-path="url(#54)"><g clip-path="url(#55)"><g clip-path="url(#56)"><g clip-path="url(#57)"><g clip-path="url(#58)"><path id="285" transform="matrix(1 0 0 -1 0 842)" d="M393.9047 375.4529L534.2383 375.4529C 541.2795 375.4529 546.9875 369.7449 546.9875 362.7037L546.9875 362.7037L546.9875 172.0966C 546.9875 165.0554 541.2795 159.3474 534.2383 159.3474L534.2383 159.3474L393.9047 159.3474C 386.8635 159.3474 381.1555 165.0554 381.1555 172.0966L381.1555 172.0966L381.1555 362.7037C 381.1555 369.7449 386.8635 375.4529 393.9047 375.4529z" stroke="#D9D9D9" stroke-width="6" fill="none" /></g></g></g></g></g><g clip-path="url(#59)"><g clip-path="url(#60)"><g clip-path="url(#61)"><g clip-path="url(#62)"><g clip-path="url(#63)"><g clip-path="url(#64)"><g clip-path="url(#65)"><g clip-path="url(#66)"><path id="286" transform="matrix(1 0 0 -1 0 842)" d="M46.288 484.2287C 37.73024 484.2287 30.77076 477.2693 30.77076 468.7115C 30.77076 460.1537 37.73024 453.1942 46.288 453.1942C 54.84576 453.1942 61.80524 460.1537 61.80524 468.7115C 61.80524 477.2693 54.84576 484.2287 46.288 484.2287zM46.288 452.9615C 37.6061 452.9615 30.538 460.0296 30.538 468.7115C 30.538 477.3934 37.6061 484.4615 46.288 484.4615C 54.96989 484.4615 62.038 477.3934 62.038 468.7115C 62.038 460.0296 54.96989 452.9615 46.288 452.9615z" stroke="none" fill="#000000" fill-rule="nonzero" /></g></g></g></g></g></g></g></g><g clip-path="url(#67)"><g clip-path="url(#68)"><g clip-path="url(#69)"><g clip-path="url(#70)"><g clip-path="url(#71)"><g clip-path="url(#72)"><g clip-path="url(#73)"><path id="287" transform="matrix(1 0 0 -1 0 842)" d="M30.546 468.5655L30.546 468.5628C 30.546 464.3487 32.22018 460.3072 35.20026 457.3274C 38.18032 454.3476 42.22217 452.6735 46.43662 452.6735C 50.65108 452.6735 54.69292 454.3476 57.67299 457.3274C 60.65306 460.3072 62.32725 464.3487 62.32725 468.5628L62.32725 468.5628L62.32725 468.5655C 62.32725 472.7796 60.65306 476.8211 57.67299 479.8009C 54.69292 482.7807 50.65108 484.4548 46.43662 484.4548C 42.22217 484.4548 38.18032 482.7807 35.20026 479.8009C 32.22018 476.8211 30.546 472.7796 30.546 468.5655z" stroke="#000000" stroke-width="1.5" fill="none" /></g></g></g></g></g></g></g><g clip-path="url(#74)"></g><g clip-path="url(#75)"><g transform="matrix(0.06311637 0 0 0.06344148 475.9692 14.82153)"><g transform="matrix(1 0 0 1 0 0)"><image x="0" y="0" xlink:href="img_08.png" width="1521" height="863" /></g></g></g></g></g></svg>