<svg xmlns="http://www.w3.org/2000/svg" xmlns:xlink="http://www.w3.org/1999/xlink" id="body_1" preserveAspectRatio="xMinYMin meet" viewBox="0 0 793 1123"><defs><clipPath id="1"><path id="" clip-rule="evenodd" transform="matrix(1 0 0 1 0 0)" d="M0 842L0 -0.25L0 -0.25L595.5 -0.25L595.5 -0.25L595.5 842L595.5 842L0 842z" /></clipPath><clipPath id="2"><path id="" clip-rule="evenodd" transform="matrix(1 0 0 1 0 0)" d="M0 -0.249939L595.5 -0.249939L595.5 -0.249939L595.5 842.0001L595.5 842.0001L0 842.0001z" /></clipPath><clipPath id="3"><path id="" clip-rule="evenodd" transform="matrix(1 0 0 1 0 0)" d="M0 -0.249939L595.5 -0.249939L595.5 -0.249939L595.5 842.0001L595.5 842.0001L0 842.0001z" /></clipPath><clipPath id="4"><path id="" clip-rule="evenodd" transform="matrix(1 0 0 1 0 0)" d="M0 -0.249939L595.5 -0.249939L595.5 -0.249939L595.5 842.0001L595.5 842.0001L0 842.0001z" /></clipPath><clipPath id="5"><path id="" clip-rule="evenodd" transform="matrix(1 0 0 1 0 0)" d="M78.71999 30.71008L522.24 30.71008L522.24 30.71008L522.24 810.9501L522.24 810.9501L78.71999 810.9501z" /></clipPath><clipPath id="6"><path id="" clip-rule="evenodd" transform="matrix(1 0 0 1 0 0)" d="M79.51787 30.75183L522.0178 30.75183L522.0178 30.75183L522.0178 810.7518L522.0178 810.7518L79.51787 810.7518z" /></clipPath><clipPath id="7"><path id="" clip-rule="evenodd" transform="matrix(1 0 0 1 0 0)" d="M354.625 680.768L521.8751 680.768L521.8751 680.768L521.8751 721.268L521.8751 721.268L354.625 721.268z" /></clipPath><clipPath id="8"><path id="" clip-rule="evenodd" transform="matrix(1 0 0 1 0 0)" d="M0 -0.249939L595.5 -0.249939L595.5 -0.249939L595.5 842.0001L595.5 842.0001L0 842.0001z" /></clipPath><clipPath id="9"><path id="" clip-rule="evenodd" transform="matrix(1 0 0 1 0 0)" d="M483.8813 699.1146L518.3813 699.1146L518.3813 699.1146L518.3813 749.3646L518.3813 749.3646L483.8813 749.3646z" /></clipPath><clipPath id="10"><path id="" clip-rule="evenodd" transform="matrix(1 0 0 1 0 0)" d="M0 -0.249939L595.5 -0.249939L595.5 -0.249939L595.5 842.0001L595.5 842.0001L0 842.0001z" /></clipPath><clipPath id="11"><path id="" clip-rule="evenodd" transform="matrix(1 0 0 1 0 0)" d="M0 -0.249939L595.5 -0.249939L595.5 -0.249939L595.5 842.0001L595.5 842.0001L0 842.0001z" /></clipPath><clipPath id="12"><path id="" clip-rule="evenodd" transform="matrix(1 0 0 1 0 0)" d="M278.7066 624.8754L291.5536 593.6661L291.5536 593.6661L384.4878 631.9218L384.4878 631.9218L371.6407 663.131L371.6407 663.131L278.7066 624.8754z" /></clipPath><clipPath id="13"><path id="" clip-rule="evenodd" transform="matrix(1 0 0 1 0 0)" d="M291.5358 593.7095L278.6888 624.9186L278.6888 624.9186L371.6229 663.1743L371.6229 663.1743L384.4699 631.9651L384.4699 631.9651L291.5358 593.7095z" /></clipPath><clipPath id="14"><path id="" clip-rule="evenodd" transform="matrix(1 0 0 1 0 0)" d="M291.5358 593.7095L278.6888 624.9186L278.6888 624.9186L371.6229 663.1743L371.6229 663.1743L384.4699 631.9651L384.4699 631.9651L291.5358 593.7095z" /></clipPath><clipPath id="15"><path id="" clip-rule="evenodd" transform="matrix(1 0 0 1 0 0)" d="M0 -0.249939L595.5 -0.249939L595.5 -0.249939L595.5 842.0001L595.5 842.0001L0 842.0001z" /></clipPath><clipPath id="16"><path id="" clip-rule="evenodd" transform="matrix(1 0 0 1 0 0)" d="M0 -0.249939L595.5 -0.249939L595.5 -0.249939L595.5 842.0001L595.5 842.0001L0 842.0001z" /></clipPath><clipPath id="17"><path id="" clip-rule="evenodd" transform="matrix(1 0 0 1 0 0)" d="M88.03529 567.9041L279.2853 567.9041L279.2853 567.9041L279.2853 759.1541L279.2853 759.1541L88.03529 759.1541z" /></clipPath><clipPath id="18"><path id="" clip-rule="evenodd" transform="matrix(1 0 0 1 0 0)" d="M88.03529 616.6541L88.03529 709.8237C 88.03529 736.7476 109.8614 758.5737 136.7853 758.5737L136.7853 758.5737L229.955 758.5737C 256.8789 758.5737 278.705 736.7476 278.705 709.8237L278.705 709.8237L278.705 616.6541C 278.705 589.7302 256.8789 567.9041 229.955 567.9041L229.955 567.9041L136.7853 567.9041C 109.8614 567.9041 88.03529 589.7302 88.03529 616.6541z" /></clipPath><clipPath id="19"><path id="" clip-rule="evenodd" transform="matrix(1 0 0 1 0 0)" d="M88.03529 567.9041L278.5353 567.9041L278.5353 567.9041L278.5353 758.4041L278.5353 758.4041L88.03529 758.4041z" /></clipPath><clipPath id="20"><path id="" clip-rule="evenodd" transform="matrix(1 0 0 1 0 0)" d="M0 -0.249939L595.5 -0.249939L595.5 -0.249939L595.5 842.0001L595.5 842.0001L0 842.0001z" /></clipPath><clipPath id="21"><path id="" clip-rule="evenodd" transform="matrix(1 0 0 1 0 0)" d="M520.4518 11.0144L578.2018 11.0144L578.2018 11.0144L578.2018 44.0144L578.2018 44.0144L520.4518 44.0144z" /></clipPath></defs><g transform="matrix(1.333333 0 0 1.333333 0 0)"><g clip-path="url(#1)"><g clip-path="url(#2)"><path id="1" transform="matrix(1 0 0 -1 0 842)" d="M0 842.2499L595.4999 842.2499L595.4999 -6.103516E-05L0 -6.103516E-05z" stroke="none" fill="#FFFFFF" fill-rule="nonzero" /></g><g clip-path="url(#3)"><path id="2" transform="matrix(1 0 0 -1 0 842)" d="M0 842.2499L595.4999 842.2499L595.4999 -6.103516E-05L0 -6.103516E-05z" stroke="none" fill="#E9FCFF" fill-rule="nonzero" /></g><g clip-path="url(#4)"><g><g clip-path="url(#5)"><g clip-path="url(#6)"><g transform="matrix(0 0.5128205 -0.5127462 0 522.0178 30.75189)"><g transform="matrix(1 0 0 1 0 0)"><image x="0" y="0" xlink:href="img_01.png" width="1521" height="863" /></g></g></g></g></g></g><g clip-path="url(#7)"><path id="4" transform="matrix(1 0 0 -1 0 842)" d="M520.2424 122.8125C 522.113 124.6827 522.4285 128.005 522.4285 134.7446L522.4285 134.7446L522.4285 144.7276C 522.4285 151.4672 522.113 154.7895 520.2424 156.6599C 519.8259 157.0764 519.3373 157.416 518.7548 157.692L518.7548 157.692L518.7494 157.6945L518.7494 157.6945L513.7068 160.0784L513.7068 160.0784L513.7014 160.081C 511.6689 161.0417 508.4962 161.232 503.2628 161.232L503.2628 161.232L368.3282 161.232C 361.5891 161.232 358.267 160.9164 356.3968 159.0462C 356.1105 158.76 355.8607 158.4397 355.6428 158.0784C 354.4373 156.0792 354.211 152.8228 354.211 147.1154L354.211 147.1154L354.211 137.1334C 354.211 130.3945 354.5266 127.0726 356.3968 125.2025C 356.8121 124.7874 357.299 124.4487 357.8789 124.173C 357.8808 124.1723 357.8825 124.1712 357.8844 124.1705L357.8844 124.1705L362.9049 121.7856L362.9049 121.7856L362.9103 121.7831L362.9103 121.7831L362.9158 121.7802C 364.9482 120.8174 368.1222 120.6265 373.3607 120.6265L373.3607 120.6265L508.3097 120.6265C 515.0496 120.6265 518.3719 120.942 520.2424 122.8125z" stroke="none" fill="#000000" fill-rule="nonzero" /><path id="5" transform="matrix(1 0 0 -1 0 842)" d="M503.2631 160.9697C 516.1124 160.9697 517.1179 159.9642 517.1179 147.1154L517.1179 147.1154L517.1179 137.1334C 517.1179 124.2846 516.1124 123.2791 503.2631 123.2791L503.2631 123.2791L368.3282 123.2791C 355.4789 123.2791 354.4733 124.2846 354.4733 137.1334L354.4733 137.1334L354.4733 147.1154C 354.4733 159.9642 355.4789 160.9697 368.3282 160.9697L368.3282 160.9697L503.2631 160.9697z" stroke="none" fill="#7ED957" fill-rule="nonzero" /><path id="6" transform="matrix(1 0 0 -1 0 842)" d="M503.2631 160.9697C 516.1124 160.9697 517.1179 159.9642 517.1179 147.1154L517.1179 147.1154L517.1179 137.1334C 517.1179 124.2846 516.1124 123.2791 503.2631 123.2791L503.2631 123.2791L368.3282 123.2791C 355.4789 123.2791 354.4733 124.2846 354.4733 137.1334L354.4733 137.1334L354.4733 147.1154C 354.4733 159.9642 355.4789 160.9697 368.3282 160.9697L368.3282 160.9697L503.2631 160.9697z" stroke="#000000" stroke-width="0.3622254" fill="none" /></g><g clip-path="url(#8)"></g><g clip-path="url(#9)"><path id="15" transform="matrix(1 0 0 -1 0 842)" d="M504.0859 131.5166C 503.9789 132.0024 504.2915 132.4819 504.7846 132.5873L504.7846 132.5873L509.08 133.5092C 509.5732 133.6147 510.06 133.3067 510.167 132.8209C 510.274 132.3352 509.9613 131.8556 509.4682 131.7502L509.4682 131.7502L505.1728 130.8283C 504.6797 130.7208 504.1929 131.0309 504.0859 131.5166zM501.0033 135.8512C 500.5753 136.1158 500.4452 136.6698 500.7137 137.0914L500.7137 137.0914L503.0493 140.7605C 503.3178 141.1821 503.8802 141.3103 504.3083 141.0457C 504.7364 140.7811 504.8665 140.2272 504.5979 139.8055L504.5979 139.8055L502.2645 136.1365C 501.9959 135.7148 501.4314 135.5866 501.0033 135.8512zM490.0686 128.2465C 490.1757 127.7608 489.863 127.2812 489.3699 127.1758L489.3699 127.1758L485.0745 126.2539C 484.5814 126.1485 484.0945 126.4565 483.9875 126.9422C 483.8805 127.428 484.1931 127.9075 484.6863 128.013L484.6863 128.013L488.9817 128.9349C 489.4748 129.0403 489.9616 128.7323 490.0686 128.2465zM490.9311 133.718C 490.6625 133.2963 490.1001 133.1682 489.672 133.4328L489.672 133.4328L485.9453 135.7334C 485.5172 135.998 485.3871 136.5519 485.6557 136.9736C 485.9243 137.3953 486.4867 137.5235 486.9148 137.2589L486.9148 137.2589L490.6394 134.9603C 491.0695 134.6957 491.1976 134.1397 490.9311 133.718zM495.5266 136.7917C 495.0334 136.6863 494.5466 136.9943 494.4396 137.48L494.4396 137.48L493.5058 141.7113C 493.3988 142.1971 493.7114 142.6766 494.2046 142.782C 494.6977 142.8875 495.1845 142.5795 495.2915 142.0937L495.2915 142.0937L496.2274 137.8625C 496.3323 137.3767 496.0197 136.8971 495.5266 136.7917zM516.9973 99.02877C 516.4496 96.86871 514.6953 94.99182 512.5676 94.24355C 511.3442 93.8136 510.0201 93.72885 508.7317 93.74746C 507.3656 93.76607 505.9975 93.87355 504.6335 93.9521C 503.9411 93.99138 503.2486 94.03271 502.5582 94.07819C 501.9056 94.1216 501.2467 94.134 500.5963 94.19601C 500.0779 94.24562 499.589 94.37791 499.1798 94.70864C 498.7392 95.06418 498.3573 95.50239 497.9544 95.89926C 495.9945 97.82988 494.0346 99.76051 492.0747 101.6911C 490.3309 103.4089 488.5872 105.1266 486.8434 106.8443C 486.6126 107.0717 486.386 107.2887 486.2181 107.5698C 485.9957 107.944 485.8845 108.3698 485.8886 108.8039C 485.8991 109.7299 486.4972 110.658 487.41 110.9515C 487.9576 111.1293 488.5515 111.1148 489.0866 110.9019C 489.3636 110.7924 489.6238 110.6187 489.8819 110.472C 490.1442 110.3231 490.4065 110.1743 490.6688 110.0234C 491.7159 109.4281 492.7609 108.8328 493.808 108.2375C 493.8919 108.1899 493.9758 108.1424 494.0598 108.0949C 494.4039 107.8985 494.8488 108.1486 494.8488 108.5413C 494.8488 109.0436 494.8488 109.5459 494.8488 110.0482C 494.8488 111.3091 494.8488 112.5721 494.8488 113.833C 494.8488 115.4866 494.8488 117.1423 494.8488 118.796C 494.8488 120.4765 494.8488 122.157 494.8488 123.8354C 494.8488 125.1687 494.8488 126.5019 494.8488 127.8352C 494.8488 128.4698 494.8466 129.1044 494.8488 129.7389C 494.853 130.4975 495.1908 131.2169 495.8119 131.6758C 496.7877 132.393 498.1831 132.2649 499.0182 131.3967C 499.5135 130.882 499.6688 130.235 499.6688 129.5488C 499.6688 129.0692 499.6688 128.5897 499.6688 128.1101C 499.6688 126.4875 499.6688 124.8648 499.6688 123.2443C 499.6688 122.0185 499.6688 120.7927 499.6688 119.567C 499.6688 119.5029 499.6688 119.4368 499.6688 119.3727C 499.6688 118.7071 500.7096 118.7071 500.718 119.3727C 500.7368 120.9002 502.2204 122.0702 503.7417 121.6712C 504.5769 121.4521 505.2379 120.801 505.4582 119.9804C 505.5799 119.5298 505.538 119.0358 505.538 118.5748C 505.538 118.1056 505.538 117.6384 505.538 117.1692C 505.538 116.5036 506.5787 116.5036 506.5871 117.1692C 506.606 118.6988 508.0896 119.8605 509.613 119.4657C 510.4461 119.2487 511.1092 118.5934 511.3295 117.7748C 511.4491 117.3346 511.4071 116.8571 511.4071 116.4065C 511.4071 115.9331 511.4071 115.4598 511.4071 114.9864C 511.4071 114.3208 512.4479 114.3208 512.4563 114.9864C 512.471 116.1626 513.367 117.2105 514.5736 117.347C 516.0068 117.5082 517.2554 116.3961 517.2763 114.9864C 517.2763 112.2786 517.2763 109.5728 517.2763 106.865C 517.2763 105.478 517.2763 104.0889 517.2763 102.7019C 517.2784 101.472 517.3015 100.2256 516.9973 99.02877zM518.3276 104.2977C 518.3276 107.1544 518.3276 110.0089 518.3276 112.8656C 518.3276 113.5705 518.3276 114.2774 518.3276 114.9823C 518.3046 116.5036 517.2722 117.8803 515.7613 118.2751C 514.5694 118.5851 513.3041 118.2337 512.4417 117.4007C 512.4207 117.6963 512.3724 117.9919 512.2696 118.2771C 511.8856 119.3313 511.0001 120.1685 509.8942 120.4579C 508.9268 120.7101 507.842 120.5364 507.0257 119.9597C 506.8641 119.846 506.7151 119.7199 506.5767 119.5835C 506.5557 119.8874 506.5074 120.1892 506.4025 120.4827C 506.0227 121.5266 505.1581 122.3513 504.067 122.6531C 503.0891 122.9218 501.9854 122.7482 501.1586 122.1653C 501.0033 122.0557 500.8586 121.9338 500.7242 121.8035C 500.7242 121.9276 500.7242 122.0495 500.7242 122.1735C 500.7242 123.8706 500.7242 125.5676 500.7242 127.2626C 500.7242 127.891 500.7242 128.5173 500.7242 129.1457C 500.7242 129.557 500.7347 129.9601 500.6676 130.3673C 500.4242 131.8639 499.1106 132.9925 497.6082 133.1558C 496.3029 133.2984 494.9998 132.6411 494.3137 131.5455C 493.7807 130.6939 493.8059 129.7823 493.8059 128.8356C 493.8059 127.6843 493.8059 126.5309 493.8059 125.3795C 493.8059 123.7321 493.8059 122.0847 493.8059 120.4393C 493.8059 118.6968 493.8059 116.9542 493.8059 115.2096C 493.8059 113.771 493.8059 112.3344 493.8059 110.8957C 493.8059 110.41 493.7975 109.9201 493.7975 109.4343C 493.1302 109.8146 492.4608 110.195 491.7935 110.5732C 491.4326 110.7779 491.0717 110.9846 490.7086 111.1892C 490.1169 111.5262 489.5335 111.9106 488.8516 112.0347C 487.517 112.2765 486.2097 111.7659 485.4375 110.6642C 484.8269 109.796 484.6758 108.6095 485.0472 107.6174C 485.3347 106.8505 485.8824 106.3275 486.4531 105.7653C 487.4394 104.7938 488.4277 103.8202 489.4139 102.8487C 491.4788 100.8147 493.5415 98.78279 495.6063 96.74881C 496.1204 96.24239 496.6324 95.73802 497.1465 95.2316C 497.5746 94.80992 497.9817 94.3531 498.4454 93.96863C 498.9259 93.57175 499.461 93.32164 500.08 93.22035C 500.7641 93.10873 501.4608 93.1108 502.1512 93.06326C 503.6032 92.96404 505.0574 92.88342 506.5116 92.80488C 507.9112 92.72839 509.313 92.63332 510.7105 92.79041C 512.0535 92.9413 513.3398 93.29683 514.4834 94.0203C 515.5116 94.67142 516.3845 95.54166 517.0434 96.5545C 517.7653 97.66451 518.1283 98.89647 518.2584 100.2008C 518.3864 101.563 518.3276 102.9396 518.3276 104.2977z" stroke="none" fill="#000000" fill-rule="nonzero" /></g><g clip-path="url(#10)"><g clip-path="url(#11)"><g clip-path="url(#12)"><g clip-path="url(#13)"><g clip-path="url(#14)"><path id="16" transform="matrix(1 0 0 -1 0 842)" d="M350.037 189.7729C 355.8638 189.1568 361.5393 187.6649 366.8763 185.2915C 362.4908 197.4295 355.1883 208.4699 345.8964 217.3853C 336.2086 226.6848 324.1806 234.0015 311.167 237.5023C 304.1139 239.3983 296.2696 240.0966 289.593 236.535C 288.7153 236.0676 286.9371 236.8554 288.2771 237.5703C 294.383 240.8263 301.496 241.0053 308.1606 239.7651C 315.03 238.4875 321.7125 235.864 327.8912 232.6438C 340.4213 226.1144 351.2817 216.464 359.3086 204.8216C 363.2164 199.1545 366.4091 193.0201 368.8191 186.5735C 371.536 193.552 375.3749 200.062 380.183 205.8134C 380.5368 206.2351 381.1957 206.3927 381.7212 206.2747C 382.1021 206.1894 382.6181 205.8161 382.2585 205.3857C 376.8838 198.9606 372.7476 191.6148 370.0492 183.6816C 370.0172 183.5876 369.9604 183.5037 369.8862 183.4315C 369.8325 182.8036 368.3489 182.675 367.9658 182.8685C 362.2275 185.7912 356.0111 187.6823 349.602 188.3594C 348.0839 188.5197 348.8362 189.8987 350.037 189.7729z" stroke="none" fill="#000000" fill-rule="nonzero" /></g></g></g></g></g><g clip-path="url(#15)"><g clip-path="url(#16)"><g clip-path="url(#17)"><g clip-path="url(#18)"><g clip-path="url(#19)"><g transform="matrix(0.47625 0 0 0.47625 88.03529 567.9041)"><g transform="matrix(1 0 0 1 0 0)"><image x="0" y="0" xlink:href="img_02.png" width="400" height="400" /></g></g></g></g></g></g></g><g clip-path="url(#20)"></g><g clip-path="url(#21)"><g transform="matrix(0.03796844 0 0 0.0382387 520.4518 11.0144)"><g transform="matrix(1 0 0 1 0 0)"><image x="0" y="0" xlink:href="img_03.png" width="1521" height="863" /></g></g></g></g></g></svg>