<svg xmlns="http://www.w3.org/2000/svg" xmlns:xlink="http://www.w3.org/1999/xlink" id="body_1" preserveAspectRatio="xMinYMin meet" viewBox="0 0 793 1123"><defs><clipPath id="1"><path id="" clip-rule="evenodd" transform="matrix(1 0 0 1 0 0)" d="M0 842L0 -0.25L0 -0.25L595.5 -0.25L595.5 -0.25L595.5 842L595.5 842L0 842z" /></clipPath><clipPath id="2"><path id="" clip-rule="evenodd" transform="matrix(1 0 0 1 0 0)" d="M0 -0.249939L595.5 -0.249939L595.5 -0.249939L595.5 842.0001L595.5 842.0001L0 842.0001z" /></clipPath><clipPath id="3"><path id="" clip-rule="evenodd" transform="matrix(1 0 0 1 0 0)" d="M0 -0.249939L595.5 -0.249939L595.5 -0.249939L595.5 842.0001L595.5 842.0001L0 842.0001z" /></clipPath><clipPath id="4"><path id="" clip-rule="evenodd" transform="matrix(1 0 0 1 0 0)" d="M0 -0.249939L595.5 -0.249939L595.5 -0.249939L595.5 842.0001L595.5 842.0001L0 842.0001z" /></clipPath><clipPath id="5"><path id="" clip-rule="evenodd" transform="matrix(1 0 0 1 0 0)" d="M79.67999 23.27008L535.92 23.27008L535.92 23.27008L535.92 827.5101L535.92 827.5101L79.67999 827.5101z" /></clipPath><clipPath id="6"><path id="" clip-rule="evenodd" transform="matrix(1 0 0 1 0 0)" d="M79.74117 23.48041L535.7411 23.48041L535.7411 23.48041L535.7411 826.7303L535.7411 826.7303L79.74117 826.7303z" /></clipPath><clipPath id="7"><path id="" clip-rule="evenodd" transform="matrix(1 0 0 1 0 0)" d="M0 -0.249939L595.5 -0.249939L595.5 -0.249939L595.5 842.0001L595.5 842.0001L0 842.0001z" /></clipPath><clipPath id="8"><path id="" clip-rule="evenodd" transform="matrix(1 0 0 1 0 0)" d="M0 -0.249939L595.5 -0.249939L595.5 -0.249939L595.5 842.0001L595.5 842.0001L0 842.0001z" /></clipPath><clipPath id="9"><path id="" clip-rule="evenodd" transform="matrix(1 0 0 1 0 0)" d="M80.6729 171.1641L218.3204 171.1641L218.3204 171.1641L218.3204 333.0074L218.3204 333.0074L80.6729 333.0074z" /></clipPath><clipPath id="10"><path id="" clip-rule="evenodd" transform="matrix(1 0 0 1 0 0)" d="M96.4229 171.1641L202.5704 171.1641C 206.7476 171.1641 210.7536 172.8235 213.7073 175.7772C 216.661 178.7308 218.3204 182.7369 218.3204 186.9141L218.3204 186.9141L218.3204 316.8135C 218.3204 320.9907 216.661 324.9968 213.7073 327.9506C 210.7536 330.9042 206.7476 332.5636 202.5704 332.5636L202.5704 332.5636L96.4229 332.5636C 92.24574 332.5636 88.23967 330.9042 85.28597 327.9506C 82.33227 324.9968 80.6729 320.9907 80.6729 316.8135L80.6729 316.8135L80.6729 186.9141C 80.6729 182.7369 82.33227 178.7308 85.28597 175.7772C 88.23967 172.8235 92.24574 171.1641 96.4229 171.1641z" /></clipPath><clipPath id="11"><path id="" clip-rule="evenodd" transform="matrix(1 0 0 1 0 0)" d="M0 -0.249939L595.5 -0.249939L595.5 -0.249939L595.5 842.0001L595.5 842.0001L0 842.0001z" /></clipPath><clipPath id="12"><path id="" clip-rule="evenodd" transform="matrix(1 0 0 1 0 0)" d="M0 -0.249939L595.5 -0.249939L595.5 -0.249939L595.5 842.0001L595.5 842.0001L0 842.0001z" /></clipPath><clipPath id="13"><path id="" clip-rule="evenodd" transform="matrix(1 0 0 1 0 0)" d="M80.6729 171.1641L218.6729 171.1641L218.6729 171.1641L218.6729 332.4141L218.6729 332.4141L80.6729 332.4141z" /></clipPath><clipPath id="14"><path id="" clip-rule="evenodd" transform="matrix(1 0 0 1 0 0)" d="M80.6729 171.166L218.7368 171.166L218.7368 171.166L218.7368 333.2411L218.7368 333.2411L80.6729 333.2411z" /></clipPath><clipPath id="15"><path id="" clip-rule="evenodd" transform="matrix(1 0 0 1 0 0)" d="M96.42166 171.166L202.5609 171.166C 206.7377 171.166 210.7434 172.8252 213.6969 175.7787C 216.6504 178.7321 218.3096 182.7379 218.3096 186.9147L218.3096 186.9147L218.3096 316.804C 218.3096 320.9809 216.6504 324.9866 213.6969 327.9401C 210.7434 330.8936 206.7377 332.5528 202.5609 332.5528L202.5609 332.5528L96.42166 332.5528C 92.24483 332.5528 88.23907 330.8936 85.28561 327.9401C 82.33214 324.9866 80.6729 320.9809 80.6729 316.804L80.6729 316.804L80.6729 186.9147C 80.6729 182.7379 82.33214 178.7321 85.28561 175.7787C 88.23907 172.8252 92.24483 171.166 96.42166 171.166z" /></clipPath><clipPath id="16"><path id="" clip-rule="evenodd" transform="matrix(1 0 0 1 0 0)" d="M0 -0.249939L595.5 -0.249939L595.5 -0.249939L595.5 842.0001L595.5 842.0001L0 842.0001z" /></clipPath><clipPath id="17"><path id="" clip-rule="evenodd" transform="matrix(1 0 0 1 0 0)" d="M85.9782 222.1841L210.4782 222.1841L210.4782 222.1841L210.4782 326.4341L210.4782 326.4341L85.9782 326.4341z" /></clipPath><clipPath id="18"><path id="" clip-rule="evenodd" transform="matrix(1 0 0 1 0 0)" d="M0 -0.249939L595.5 -0.249939L595.5 -0.249939L595.5 842.0001L595.5 842.0001L0 842.0001z" /></clipPath><clipPath id="19"><path id="" clip-rule="evenodd" transform="matrix(1 0 0 1 0 0)" d="M0 -0.249939L595.5 -0.249939L595.5 -0.249939L595.5 842.0001L595.5 842.0001L0 842.0001z" /></clipPath><clipPath id="20"><path id="" clip-rule="evenodd" transform="matrix(1 0 0 1 0 0)" d="M87.19482 176.4609L224.8423 176.4609L224.8423 176.4609L224.8423 338.3043L224.8423 338.3043L87.19482 338.3043z" /></clipPath><clipPath id="21"><path id="" clip-rule="evenodd" transform="matrix(1 0 0 1 0 0)" d="M102.9448 176.4609L209.0923 176.4609C 213.2695 176.4609 217.2756 178.1203 220.2293 181.074C 223.1829 184.0277 224.8423 188.0338 224.8423 192.2109L224.8423 192.2109L224.8423 322.1104C 224.8423 326.2876 223.1829 330.2937 220.2293 333.2474C 217.2756 336.201 213.2695 337.8604 209.0923 337.8604L209.0923 337.8604L102.9448 337.8604C 98.76766 337.8604 94.76158 336.201 91.80788 333.2474C 88.85418 330.2937 87.19482 326.2876 87.19482 322.1104L87.19482 322.1104L87.19482 192.2109C 87.19482 188.0338 88.85418 184.0277 91.80788 181.074C 94.76158 178.1203 98.76766 176.4609 102.9448 176.4609z" /></clipPath><clipPath id="22"><path id="" clip-rule="evenodd" transform="matrix(1 0 0 1 0 0)" d="M0 -0.249939L595.5 -0.249939L595.5 -0.249939L595.5 842.0001L595.5 842.0001L0 842.0001z" /></clipPath><clipPath id="23"><path id="" clip-rule="evenodd" transform="matrix(1 0 0 1 0 0)" d="M0 -0.249939L595.5 -0.249939L595.5 -0.249939L595.5 842.0001L595.5 842.0001L0 842.0001z" /></clipPath><clipPath id="24"><path id="" clip-rule="evenodd" transform="matrix(1 0 0 1 0 0)" d="M87.19482 176.4609L225.1948 176.4609L225.1948 176.4609L225.1948 337.7109L225.1948 337.7109L87.19482 337.7109z" /></clipPath><clipPath id="25"><path id="" clip-rule="evenodd" transform="matrix(1 0 0 1 0 0)" d="M87.19482 176.4628L225.2588 176.4628L225.2588 176.4628L225.2588 338.5379L225.2588 338.5379L87.19482 338.5379z" /></clipPath><clipPath id="26"><path id="" clip-rule="evenodd" transform="matrix(1 0 0 1 0 0)" d="M102.9436 176.4628L209.0827 176.4628C 213.2596 176.4628 217.2654 178.1221 220.2188 181.0756C 223.1723 184.029 224.8315 188.0348 224.8315 192.2116L224.8315 192.2116L224.8315 322.1008C 224.8315 326.2777 223.1723 330.2835 220.2188 333.237C 217.2654 336.1904 213.2596 337.8497 209.0827 337.8497L209.0827 337.8497L102.9436 337.8497C 98.76675 337.8497 94.76099 336.1904 91.80752 333.237C 88.85406 330.2835 87.19482 326.2777 87.19482 322.1008L87.19482 322.1008L87.19482 192.2116C 87.19482 188.0348 88.85406 184.029 91.80752 181.0756C 94.76099 178.1221 98.76675 176.4628 102.9436 176.4628z" /></clipPath><clipPath id="27"><path id="" clip-rule="evenodd" transform="matrix(1 0 0 1 0 0)" d="M93.71673 222.1841L218.2167 222.1841L218.2167 222.1841L218.2167 326.4341L218.2167 326.4341L93.71673 326.4341z" /></clipPath><clipPath id="28"><path id="" clip-rule="evenodd" transform="matrix(1 0 0 1 0 0)" d="M0 -0.249939L595.5 -0.249939L595.5 -0.249939L595.5 842.0001L595.5 842.0001L0 842.0001z" /></clipPath><clipPath id="29"><path id="" clip-rule="evenodd" transform="matrix(1 0 0 1 0 0)" d="M0 -0.249939L595.5 -0.249939L595.5 -0.249939L595.5 842.0001L595.5 842.0001L0 842.0001z" /></clipPath><clipPath id="30"><path id="" clip-rule="evenodd" transform="matrix(1 0 0 1 0 0)" d="M59.52756 357.3566L229.0026 357.3566L229.0026 357.3566L229.0026 585.7507L229.0026 585.7507L59.52756 585.7507z" /></clipPath><clipPath id="31"><path id="" clip-rule="evenodd" transform="matrix(1 0 0 1 0 0)" d="M75.27756 357.3566L213.2526 357.3566C 221.9511 357.3566 229.0026 364.4081 229.0026 373.1066L229.0026 373.1066L229.0026 569.3873C 229.0026 578.0858 221.9511 585.1373 213.2526 585.1373L213.2526 585.1373L75.27756 585.1373C 66.57907 585.1373 59.52756 578.0858 59.52756 569.3873L59.52756 569.3873L59.52756 373.1066C 59.52756 364.4081 66.57907 357.3566 75.27756 357.3566z" /></clipPath><clipPath id="32"><path id="" clip-rule="evenodd" transform="matrix(1 0 0 1 0 0)" d="M0 -0.249939L595.5 -0.249939L595.5 -0.249939L595.5 842.0001L595.5 842.0001L0 842.0001z" /></clipPath><clipPath id="33"><path id="" clip-rule="evenodd" transform="matrix(1 0 0 1 0 0)" d="M0 -0.249939L595.5 -0.249939L595.5 -0.249939L595.5 842.0001L595.5 842.0001L0 842.0001z" /></clipPath><clipPath id="34"><path id="" clip-rule="evenodd" transform="matrix(1 0 0 1 0 0)" d="M59.52756 357.3566L229.0276 357.3566L229.0276 357.3566L229.0276 585.3566L229.0276 585.3566L59.52756 585.3566z" /></clipPath><clipPath id="35"><path id="" clip-rule="evenodd" transform="matrix(1 0 0 1 0 0)" d="M59.52756 357.3618L229.7762 357.3618L229.7762 357.3618L229.7762 585.7787L229.7762 585.7787L59.52756 585.7787z" /></clipPath><clipPath id="36"><path id="" clip-rule="evenodd" transform="matrix(1 0 0 1 0 0)" d="M75.27661 357.3618L213.2433 357.3618C 221.9413 357.3618 228.9924 364.4129 228.9924 373.1109L228.9924 373.1109L228.9924 569.3798C 228.9924 578.0777 221.9413 585.1288 213.2433 585.1288L213.2433 585.1288L75.27661 585.1288C 66.57865 585.1288 59.52756 578.0777 59.52756 569.3798L59.52756 569.3798L59.52756 373.1109C 59.52756 364.4129 66.57865 357.3618 75.27661 357.3618z" /></clipPath><clipPath id="37"><path id="" clip-rule="evenodd" transform="matrix(1 0 0 1 0 0)" d="M0 -0.249939L595.5 -0.249939L595.5 -0.249939L595.5 842.0001L595.5 842.0001L0 842.0001z" /></clipPath><clipPath id="38"><path id="" clip-rule="evenodd" transform="matrix(1 0 0 1 0 0)" d="M0 -0.249939L595.5 -0.249939L595.5 -0.249939L595.5 842.0001L595.5 842.0001L0 842.0001z" /></clipPath><clipPath id="39"><path id="" clip-rule="evenodd" transform="matrix(1 0 0 1 0 0)" d="M0 -0.249939L595.5 -0.249939L595.5 -0.249939L595.5 842.0001L595.5 842.0001L0 842.0001z" /></clipPath><clipPath id="40"><path id="" clip-rule="evenodd" transform="matrix(1 0 0 1 0 0)" d="M66.80602 362.6104L236.281 362.6104L236.281 362.6104L236.281 607.5548L236.281 607.5548L66.80602 607.5548z" /></clipPath><clipPath id="41"><path id="" clip-rule="evenodd" transform="matrix(1 0 0 1 0 0)" d="M82.55602 362.6104L220.531 362.6104C 229.2295 362.6104 236.281 369.662 236.281 378.3604L236.281 378.3604L236.281 591.3568C 236.281 600.0552 229.2295 607.1068 220.531 607.1068L220.531 607.1068L82.55602 607.1068C 73.85753 607.1068 66.80602 600.0552 66.80602 591.3568L66.80602 591.3568L66.80602 378.3604C 66.80602 369.662 73.85753 362.6104 82.55602 362.6104z" /></clipPath><clipPath id="42"><path id="" clip-rule="evenodd" transform="matrix(1 0 0 1 0 0)" d="M0 -0.249939L595.5 -0.249939L595.5 -0.249939L595.5 842.0001L595.5 842.0001L0 842.0001z" /></clipPath><clipPath id="43"><path id="" clip-rule="evenodd" transform="matrix(1 0 0 1 0 0)" d="M0 -0.249939L595.5 -0.249939L595.5 -0.249939L595.5 842.0001L595.5 842.0001L0 842.0001z" /></clipPath><clipPath id="44"><path id="" clip-rule="evenodd" transform="matrix(1 0 0 1 0 0)" d="M66.80602 362.6104L236.306 362.6104L236.306 362.6104L236.306 607.1104L236.306 607.1104L66.80602 607.1104z" /></clipPath><clipPath id="45"><path id="" clip-rule="evenodd" transform="matrix(1 0 0 1 0 0)" d="M66.80602 362.6137L237.0546 362.6137L237.0546 362.6137L237.0546 608.0555L237.0546 608.0555L66.80602 608.0555z" /></clipPath><clipPath id="46"><path id="" clip-rule="evenodd" transform="matrix(1 0 0 1 0 0)" d="M82.55507 362.6137L220.5218 362.6137C 229.2198 362.6137 236.2709 369.6648 236.2709 378.3628L236.2709 378.3628L236.2709 591.3464C 236.2709 600.0443 229.2198 607.0953 220.5218 607.0953L220.5218 607.0953L82.55507 607.0953C 73.85711 607.0953 66.80602 600.0443 66.80602 591.3464L66.80602 591.3464L66.80602 378.3628C 66.80602 369.6648 73.85711 362.6137 82.55507 362.6137z" /></clipPath><clipPath id="47"><path id="" clip-rule="evenodd" transform="matrix(1 0 0 1 0 0)" d="M0 -0.249939L595.5 -0.249939L595.5 -0.249939L595.5 842.0001L595.5 842.0001L0 842.0001z" /></clipPath><clipPath id="48"><path id="" clip-rule="evenodd" transform="matrix(1 0 0 1 0 0)" d="M66.80602 426.5625L194.306 426.5625L194.306 426.5625L194.306 482.8125L194.306 482.8125L66.80602 482.8125z" /></clipPath><clipPath id="49"><path id="" clip-rule="evenodd" transform="matrix(1 0 0 1 0 0)" d="M0 -0.249939L595.5 -0.249939L595.5 -0.249939L595.5 842.0001L595.5 842.0001L0 842.0001z" /></clipPath><clipPath id="50"><path id="" clip-rule="evenodd" transform="matrix(1 0 0 1 0 0)" d="M0 -0.249939L595.5 -0.249939L595.5 -0.249939L595.5 842.0001L595.5 842.0001L0 842.0001z" /></clipPath><clipPath id="51"><path id="" clip-rule="evenodd" transform="matrix(1 0 0 1 0 0)" d="M294.2216 197.0725L437.5262 197.0725L437.5262 197.0725L437.5262 365.5674L437.5262 365.5674L294.2216 365.5674z" /></clipPath><clipPath id="52"><path id="" clip-rule="evenodd" transform="matrix(1 0 0 1 0 0)" d="M309.9716 197.0725L421.7762 197.0725C 430.4747 197.0725 437.5262 204.124 437.5262 212.8225L437.5262 212.8225L437.5262 349.3553C 437.5262 358.0538 430.4747 365.1053 421.7762 365.1053L421.7762 365.1053L309.9716 365.1053C 301.2732 365.1053 294.2216 358.0538 294.2216 349.3553L294.2216 349.3553L294.2216 212.8225C 294.2216 204.124 301.2732 197.0725 309.9716 197.0725z" /></clipPath><clipPath id="53"><path id="" clip-rule="evenodd" transform="matrix(1 0 0 1 0 0)" d="M0 -0.249939L595.5 -0.249939L595.5 -0.249939L595.5 842.0001L595.5 842.0001L0 842.0001z" /></clipPath><clipPath id="54"><path id="" clip-rule="evenodd" transform="matrix(1 0 0 1 0 0)" d="M0 -0.249939L595.5 -0.249939L595.5 -0.249939L595.5 842.0001L595.5 842.0001L0 842.0001z" /></clipPath><clipPath id="55"><path id="" clip-rule="evenodd" transform="matrix(1 0 0 1 0 0)" d="M294.2216 197.0725L437.4716 197.0725L437.4716 197.0725L437.4716 365.0725L437.4716 365.0725L294.2216 365.0725z" /></clipPath><clipPath id="56"><path id="" clip-rule="evenodd" transform="matrix(1 0 0 1 0 0)" d="M294.2218 197.0725L437.9633 197.0725L437.9633 197.0725L437.9633 365.8125L437.9633 365.8125L294.2218 365.8125z" /></clipPath><clipPath id="57"><path id="" clip-rule="evenodd" transform="matrix(1 0 0 1 0 0)" d="M309.9709 197.0725L421.7693 197.0725C 430.4673 197.0725 437.5184 204.1237 437.5184 212.8217L437.5184 212.8217L437.5184 349.3468C 437.5184 358.0448 430.4673 365.096 421.7693 365.096L421.7693 365.096L309.9709 365.096C 301.2729 365.096 294.2218 358.0448 294.2218 349.3468L294.2218 349.3468L294.2218 212.8217C 294.2218 204.1237 301.2729 197.0725 309.9709 197.0725z" /></clipPath><clipPath id="58"><path id="" clip-rule="evenodd" transform="matrix(1 0 0 1 0 0)" d="M0 -0.249939L595.5 -0.249939L595.5 -0.249939L595.5 842.0001L595.5 842.0001L0 842.0001z" /></clipPath><clipPath id="59"><path id="" clip-rule="evenodd" transform="matrix(1 0 0 1 0 0)" d="M0 -0.249939L595.5 -0.249939L595.5 -0.249939L595.5 842.0001L595.5 842.0001L0 842.0001z" /></clipPath><clipPath id="60"><path id="" clip-rule="evenodd" transform="matrix(1 0 0 1 0 0)" d="M303.0538 171.1641L446.3584 171.1641L446.3584 171.1641L446.3584 368.7677L446.3584 368.7677L303.0538 368.7677z" /></clipPath><clipPath id="61"><path id="" clip-rule="evenodd" transform="matrix(1 0 0 1 0 0)" d="M318.8038 171.1641L430.6084 171.1641C 439.3069 171.1641 446.3584 178.2156 446.3584 186.9141L446.3584 186.9141L446.3584 352.793C 446.3584 361.4915 439.3069 368.5431 430.6084 368.5431L430.6084 368.5431L318.8038 368.5431C 310.1053 368.5431 303.0538 361.4915 303.0538 352.793L303.0538 352.793L303.0538 186.9141C 303.0538 178.2156 310.1053 171.1641 318.8038 171.1641z" /></clipPath><clipPath id="62"><path id="" clip-rule="evenodd" transform="matrix(1 0 0 1 0 0)" d="M0 -0.249939L595.5 -0.249939L595.5 -0.249939L595.5 842.0001L595.5 842.0001L0 842.0001z" /></clipPath><clipPath id="63"><path id="" clip-rule="evenodd" transform="matrix(1 0 0 1 0 0)" d="M0 -0.249939L595.5 -0.249939L595.5 -0.249939L595.5 842.0001L595.5 842.0001L0 842.0001z" /></clipPath><clipPath id="64"><path id="" clip-rule="evenodd" transform="matrix(1 0 0 1 0 0)" d="M303.0538 171.1641L446.3038 171.1641L446.3038 171.1641L446.3038 368.4141L446.3038 368.4141L303.0538 368.4141z" /></clipPath><clipPath id="65"><path id="" clip-rule="evenodd" transform="matrix(1 0 0 1 0 0)" d="M303.0538 171.1694L446.7955 171.1694L446.7955 171.1694L446.7955 369.5954L446.7955 369.5954L303.0538 369.5954z" /></clipPath><clipPath id="66"><path id="" clip-rule="evenodd" transform="matrix(1 0 0 1 0 0)" d="M318.8029 171.1694L430.6015 171.1694C 439.2995 171.1694 446.3507 178.2205 446.3507 186.9185L446.3507 186.9185L446.3507 352.7886C 446.3507 361.4866 439.2995 368.5377 430.6015 368.5377L430.6015 368.5377L318.8029 368.5377C 310.1049 368.5377 303.0538 361.4866 303.0538 352.7886L303.0538 352.7886L303.0538 186.9185C 303.0538 178.2205 310.1049 171.1694 318.8029 171.1694z" /></clipPath><clipPath id="67"><path id="" clip-rule="evenodd" transform="matrix(1 0 0 1 0 0)" d="M317.1719 220.8234L440.1719 220.8234L440.1719 220.8234L440.1719 340.8233L440.1719 340.8233L317.1719 340.8233z" /></clipPath><clipPath id="68"><path id="" clip-rule="evenodd" transform="matrix(1 0 0 1 0 0)" d="M499.3452 11.00061L584.0952 11.00061L584.0952 11.00061L584.0952 59.00061L584.0952 59.00061L499.3452 59.00061z" /></clipPath><clipPath id="69"><path id="" clip-rule="evenodd" transform="matrix(1 0 0 1 0 0)" d="M0 -0.249939L595.5 -0.249939L595.5 -0.249939L595.5 842.0001L595.5 842.0001L0 842.0001z" /></clipPath><clipPath id="70"><path id="" clip-rule="evenodd" transform="matrix(1 0 0 1 0 0)" d="M268.5436 579.1833L504.7936 579.1833L504.7936 579.1833L504.7936 719.4333L504.7936 719.4333L268.5436 719.4333z" /></clipPath><clipPath id="71"><path id="" clip-rule="evenodd" transform="matrix(1 0 0 1 0 0)" d="M0 -0.249939L595.5 -0.249939L595.5 -0.249939L595.5 842.0001L595.5 842.0001L0 842.0001z" /></clipPath><clipPath id="72"><path id="" clip-rule="evenodd" transform="matrix(1 0 0 1 0 0)" d="M104.388 611.6068L262.638 611.6068L262.638 611.6068L262.638 841.1068L262.638 841.1068L104.388 841.1068z" /></clipPath><clipPath id="73"><path id="" clip-rule="evenodd" transform="matrix(1 0 0 1 0 0)" d="M0 -0.249939L595.5 -0.249939L595.5 -0.249939L595.5 842.0001L595.5 842.0001L0 842.0001z" /></clipPath><clipPath id="74"><path id="" clip-rule="evenodd" transform="matrix(1 0 0 1 0 0)" d="M0 -0.249939L595.5 -0.249939L595.5 -0.249939L595.5 842.0001L595.5 842.0001L0 842.0001z" /></clipPath><clipPath id="75"><path id="" clip-rule="evenodd" transform="matrix(1 0 0 1 0 0)" d="M328.2474 410.543L580.6483 410.543L580.6483 410.543L580.6483 587.0857L580.6483 587.0857L328.2474 587.0857z" /></clipPath><clipPath id="76"><path id="" clip-rule="evenodd" transform="matrix(1 0 0 1 0 0)" d="M343.9974 410.543L564.5222 410.543C 568.6993 410.543 572.7054 412.2024 575.6591 415.1561C 578.6128 418.1098 580.2722 422.1159 580.2722 426.293L580.2722 426.293L580.2722 571.3357C 580.2722 575.5129 578.6128 579.519 575.6591 582.4727C 572.7054 585.4264 568.6993 587.0857 564.5222 587.0857L564.5222 587.0857L343.9974 587.0857C 339.8202 587.0857 335.8141 585.4264 332.8604 582.4727C 329.9067 579.519 328.2474 575.5129 328.2474 571.3357L328.2474 571.3357L328.2474 426.293C 328.2474 422.1159 329.9067 418.1098 332.8604 415.1561C 335.8141 412.2024 339.8202 410.543 343.9974 410.543z" /></clipPath><clipPath id="77"><path id="" clip-rule="evenodd" transform="matrix(1 0 0 1 0 0)" d="M0 -0.249939L595.5 -0.249939L595.5 -0.249939L595.5 842.0001L595.5 842.0001L0 842.0001z" /></clipPath><clipPath id="78"><path id="" clip-rule="evenodd" transform="matrix(1 0 0 1 0 0)" d="M0 -0.249939L595.5 -0.249939L595.5 -0.249939L595.5 842.0001L595.5 842.0001L0 842.0001z" /></clipPath><clipPath id="79"><path id="" clip-rule="evenodd" transform="matrix(1 0 0 1 0 0)" d="M328.2474 410.543L580.2473 410.543L580.2473 410.543L580.2473 586.793L580.2473 586.793L328.2474 586.793z" /></clipPath><clipPath id="80"><path id="" clip-rule="evenodd" transform="matrix(1 0 0 1 0 0)" d="M326.4105 408.6986L580.9383 408.6986L580.9383 408.6986L580.9383 587.6059L580.9383 587.6059L326.4105 587.6059z" /></clipPath><clipPath id="81"><path id="" clip-rule="evenodd" transform="matrix(1 0 0 1 0 0)" d="M344.0038 410.543L564.5143 410.543C 568.6912 410.543 572.6971 412.2023 575.6505 415.1558C 578.604 418.1093 580.2632 422.1151 580.2632 426.292L580.2632 426.292L580.2632 571.3253C 580.2632 575.5022 578.604 579.508 575.6505 582.4615C 572.6971 585.415 568.6912 587.0743 564.5143 587.0743L564.5143 587.0743L344.0038 587.0743C 339.827 587.0743 335.8211 585.415 332.8676 582.4615C 329.9141 579.508 328.2549 575.5022 328.2549 571.3253L328.2549 571.3253L328.2549 426.292C 328.2549 422.1151 329.9141 418.1093 332.8676 415.1558C 335.8211 412.2023 339.827 410.543 344.0038 410.543z" /></clipPath><clipPath id="82"><path id="" clip-rule="evenodd" transform="matrix(1 0 0 1 0 0)" d="M0 -0.249939L595.5 -0.249939L595.5 -0.249939L595.5 842.0001L595.5 842.0001L0 842.0001z" /></clipPath><clipPath id="83"><path id="" clip-rule="evenodd" transform="matrix(1 0 0 1 0 0)" d="M0 -0.249939L595.5 -0.249939L595.5 -0.249939L595.5 842.0001L595.5 842.0001L0 842.0001z" /></clipPath><clipPath id="84"><path id="" clip-rule="evenodd" transform="matrix(1 0 0 1 0 0)" d="M312.781 410.543L552.5822 410.543L552.5822 410.543L552.5822 595.45L552.5822 595.45L312.781 595.45z" /></clipPath><clipPath id="85"><path id="" clip-rule="evenodd" transform="matrix(1 0 0 1 0 0)" d="M328.531 410.543L536.3452 410.543C 540.5223 410.543 544.5284 412.2024 547.4821 415.1561C 550.4358 418.1098 552.0952 422.1159 552.0952 426.293L552.0952 426.293L552.0952 579.7C 552.0952 583.8771 550.4358 587.8832 547.4821 590.8369C 544.5284 593.7906 540.5223 595.45 536.3452 595.45L536.3452 595.45L328.531 595.45C 324.3539 595.45 320.3478 593.7906 317.3941 590.8369C 314.4404 587.8832 312.781 583.8771 312.781 579.7L312.781 579.7L312.781 426.293C 312.781 422.1159 314.4404 418.1098 317.3941 415.1561C 320.3478 412.2024 324.3539 410.543 328.531 410.543z" /></clipPath><clipPath id="86"><path id="" clip-rule="evenodd" transform="matrix(1 0 0 1 0 0)" d="M0 -0.249939L595.5 -0.249939L595.5 -0.249939L595.5 842.0001L595.5 842.0001L0 842.0001z" /></clipPath><clipPath id="87"><path id="" clip-rule="evenodd" transform="matrix(1 0 0 1 0 0)" d="M0 -0.249939L595.5 -0.249939L595.5 -0.249939L595.5 842.0001L595.5 842.0001L0 842.0001z" /></clipPath><clipPath id="88"><path id="" clip-rule="evenodd" transform="matrix(1 0 0 1 0 0)" d="M312.781 410.543L552.0311 410.543L552.0311 410.543L552.0311 595.793L552.0311 595.793L312.781 595.793z" /></clipPath><clipPath id="89"><path id="" clip-rule="evenodd" transform="matrix(1 0 0 1 0 0)" d="M310.9393 408.6986L552.5609 408.6986L552.5609 408.6986L552.5609 596.8314L552.5609 596.8314L310.9393 596.8314z" /></clipPath><clipPath id="90"><path id="" clip-rule="evenodd" transform="matrix(1 0 0 1 0 0)" d="M328.533 410.543L536.3376 410.543C 540.5146 410.543 544.5205 412.2023 547.4741 415.1559C 550.4276 418.1095 552.0869 422.1153 552.0869 426.2923L552.0869 426.2923L552.0869 579.6922C 552.0869 583.8691 550.4276 587.8751 547.4741 590.8286C 544.5205 593.7822 540.5146 595.4415 536.3376 595.4415L536.3376 595.4415L328.533 595.4415C 324.356 595.4415 320.3502 593.7822 317.3966 590.8286C 314.443 587.8751 312.7838 583.8691 312.7838 579.6922L312.7838 579.6922L312.7838 426.2923C 312.7838 422.1153 314.443 418.1095 317.3966 415.1559C 320.3502 412.2023 324.356 410.543 328.533 410.543z" /></clipPath><clipPath id="91"><path id="" clip-rule="evenodd" transform="matrix(1 0 0 1 0 0)" d="M401.3438 432.4216L535.5938 432.4216L535.5938 432.4216L535.5938 517.1716L535.5938 517.1716L401.3438 517.1716z" /></clipPath><clipPath id="92"><path id="" clip-rule="evenodd" transform="matrix(1 0 0 1 0 0)" d="M0 -0.249939L595.5 -0.249939L595.5 -0.249939L595.5 842.0001L595.5 842.0001L0 842.0001z" /></clipPath><clipPath id="93"><path id="" clip-rule="evenodd" transform="matrix(1 0 0 1 0 0)" d="M0 -0.249939L595.5 -0.249939L595.5 -0.249939L595.5 842.0001L595.5 842.0001L0 842.0001z" /></clipPath><clipPath id="94"><path id="" clip-rule="evenodd" transform="matrix(1 0 0 1 0 0)" d="M372.5256 509.368L443.713 524.3654L443.713 524.3654L429.0248 594.085L429.0248 594.085L357.8374 579.0876L357.8374 579.0876L372.5256 509.368z" /></clipPath><clipPath id="95"><path id="" clip-rule="evenodd" transform="matrix(1 0 0 1 0 0)" d="M0 -0.249939L595.5 -0.249939L595.5 -0.249939L595.5 842.0001L595.5 842.0001L0 842.0001z" /></clipPath><clipPath id="96"><path id="" clip-rule="evenodd" transform="matrix(1 0 0 1 0 0)" d="M121.5648 495.3322L210.8148 495.3322L210.8148 495.3322L210.8148 585.3322L210.8148 585.3322L121.5648 585.3322z" /></clipPath><clipPath id="97"><path id="" clip-rule="evenodd" transform="matrix(1 0 0 1 0 0)" d="M0 -0.249939L595.5 -0.249939L595.5 -0.249939L595.5 842.0001L595.5 842.0001L0 842.0001z" /></clipPath><clipPath id="98"><path id="" clip-rule="evenodd" transform="matrix(1 0 0 1 0 0)" d="M290.1683 747.4366L504.6683 747.4366L504.6683 747.4366L504.6683 799.1866L504.6683 799.1866L290.1683 799.1866z" /></clipPath><clipPath id="99"><path id="" clip-rule="evenodd" transform="matrix(1 0 0 1 0 0)" d="M463.6338 778.0233L492.8838 778.0233L492.8838 778.0233L492.8838 820.7733L492.8838 820.7733L463.6338 820.7733z" /></clipPath><clipPath id="100"><path id="" clip-rule="evenodd" transform="matrix(1 0 0 1 0 0)" d="M0 -0.249939L595.5 -0.249939L595.5 -0.249939L595.5 842.0001L595.5 842.0001L0 842.0001z" /></clipPath></defs><g transform="matrix(1.333333 0 0 1.333333 0 0)"><g clip-path="url(#1)"><g clip-path="url(#2)"><path id="1" transform="matrix(1 0 0 -1 0 842)" d="M0 842.2499L595.4999 842.2499L595.4999 -6.103516E-05L0 -6.103516E-05z" stroke="none" fill="#FFFFFF" fill-rule="nonzero" /></g><g clip-path="url(#3)"><path id="2" transform="matrix(1 0 0 -1 0 842)" d="M0 842.2499L595.4999 842.2499L595.4999 -6.103516E-05L0 -6.103516E-05z" stroke="none" fill="#FFFFFF" fill-rule="nonzero" /></g><g clip-path="url(#4)"><g><g clip-path="url(#5)"><g clip-path="url(#6)"><g transform="matrix(0 0.5281065 -0.5283893 0 535.7411 23.48041)"><g transform="matrix(1 0 0 1 0 0)"><image x="0" y="0" xlink:href="img_01.png" width="1521" height="863" /></g></g></g></g></g></g><g clip-path="url(#7)"><g clip-path="url(#8)"><g clip-path="url(#9)"><g clip-path="url(#10)"><path id="4" transform="matrix(1 0 0 -1 0 842)" d="M80.6729 670.8359L218.3204 670.8359L218.3204 509.5302L80.6729 509.5302z" stroke="none" fill="#323B49" fill-rule="nonzero" /></g></g></g></g><g clip-path="url(#11)"><g clip-path="url(#12)"><g clip-path="url(#13)"><g clip-path="url(#14)"><g clip-path="url(#15)"><path id="5" transform="matrix(1 0 0 -1 0 842)" d="M96.42166 670.834L202.5608 670.834C 206.7377 670.834 210.7434 669.1747 213.6969 666.2213C 216.6504 663.2678 218.3096 659.262 218.3096 655.0852L218.3096 655.0852L218.3096 525.1959C 218.3096 521.019 216.6504 517.0133 213.6969 514.0599C 210.7434 511.1064 206.7377 509.4471 202.5608 509.4471L202.5608 509.4471L96.42166 509.4471C 92.24483 509.4471 88.23907 511.1064 85.28561 514.0599C 82.33214 517.0133 80.6729 521.019 80.6729 525.1959L80.6729 525.1959L80.6729 655.0852C 80.6729 659.262 82.33214 663.2678 85.28561 666.2213C 88.23907 669.1747 92.24483 670.834 96.42166 670.834z" stroke="#000000" stroke-width="3" fill="none" /></g></g></g></g></g><g clip-path="url(#16)"><path id="6" transform="matrix(1 0 0 -1 0 842)" d="M230.4673 584.8393L249.7595 584.8393C 253.2646 584.8393 256.106 581.9979 256.106 578.4929C 256.106 574.9878 258.9474 572.1464 262.4524 572.1464L262.4524 572.1464L304.9413 572.1464" stroke="#000000" stroke-width="1.5" fill="none" /><path id="7" transform="matrix(1 0 0 -1 0 842)" d="M225.5923 587.0893L230.0923 587.0893L230.0923 587.0893L230.0923 582.5893L230.0923 582.5893L225.5923 582.5893z" stroke="#000000" stroke-width="1.5" stroke-linecap="round" fill="none" /><path id="8" transform="matrix(1 0 0 -1 0 842)" d="M309.8163 574.3964L305.3163 574.3964L305.3163 574.3964L305.3163 569.8964L305.3163 569.8964L309.8163 569.8964L309.8163 569.8964L309.8163 574.3964z" stroke="#000000" stroke-width="1.5" stroke-linecap="round" fill="none" /></g><g clip-path="url(#17)"><g transform="matrix(0.5790697 0 0 0.5790697 85.9782 211.8448)"><g transform="matrix(1 0 0 1 0 0)"><image x="0" y="0" xlink:href="img_02.png" width="215" height="215" /></g></g></g><g clip-path="url(#18)"><g clip-path="url(#19)"><g clip-path="url(#20)"><g clip-path="url(#21)"><path id="10" transform="matrix(1 0 0 -1 0 842)" d="M87.19481 665.539L224.8423 665.539L224.8423 504.2333L87.19481 504.2333z" stroke="none" fill="#A4BBCD" fill-rule="nonzero" /></g></g></g></g><g clip-path="url(#22)"><g clip-path="url(#23)"><g clip-path="url(#24)"><g clip-path="url(#25)"><g clip-path="url(#26)"><path id="11" transform="matrix(1 0 0 -1 0 842)" d="M102.9436 665.5371L209.0827 665.5371C 213.2596 665.5371 217.2653 663.8779 220.2188 660.9244C 223.1723 657.9709 224.8315 653.9651 224.8315 649.7883L224.8315 649.7883L224.8315 519.899C 224.8315 515.7222 223.1723 511.7164 220.2188 508.763C 217.2653 505.8095 213.2596 504.1503 209.0827 504.1503L209.0827 504.1503L102.9436 504.1503C 98.76674 504.1503 94.76098 505.8095 91.80752 508.763C 88.85405 511.7164 87.19481 515.7222 87.19481 519.899L87.19481 519.899L87.19481 649.7883C 87.19481 653.9651 88.85405 657.9709 91.80752 660.9244C 94.76098 663.8779 98.76674 665.5371 102.9436 665.5371z" stroke="#000000" stroke-width="3" fill="none" /></g></g></g></g></g><g clip-path="url(#27)"><g transform="matrix(0.5790697 0 0 0.5790697 93.71673 211.8448)"><g transform="matrix(1 0 0 1 0 0)"><image x="0" y="0" xlink:href="img_02.png" width="215" height="215" /></g></g></g><g clip-path="url(#28)"><g clip-path="url(#29)"><g clip-path="url(#30)"><g clip-path="url(#31)"><path id="13" transform="matrix(1 0 0 -1 0 842)" d="M59.52755 484.6434L229.0026 484.6434L229.0026 256.9113L59.52755 256.9113z" stroke="none" fill="#323B49" fill-rule="nonzero" /></g></g></g></g><g clip-path="url(#32)"><g clip-path="url(#33)"><g clip-path="url(#34)"><g clip-path="url(#35)"><g clip-path="url(#36)"><path id="14" transform="matrix(1 0 0 -1 0 842)" d="M75.2766 484.6382L213.2433 484.6382C 221.9413 484.6382 228.9924 477.5871 228.9924 468.8891L228.9924 468.8891L228.9924 272.6202C 228.9924 263.9223 221.9413 256.8712 213.2433 256.8712L213.2433 256.8712L75.2766 256.8712C 66.57864 256.8712 59.52755 263.9223 59.52755 272.6202L59.52755 272.6202L59.52755 468.8891C 59.52755 477.5871 66.57864 484.6382 75.2766 484.6382z" stroke="#000000" stroke-width="3" fill="none" /></g></g></g></g></g><g clip-path="url(#37)"></g><g clip-path="url(#38)"><g clip-path="url(#39)"><g clip-path="url(#40)"><g clip-path="url(#41)"><path id="59" transform="matrix(1 0 0 -1 0 842)" d="M66.80601 479.3896L236.281 479.3896L236.281 235.1072L66.80601 235.1072z" stroke="none" fill="#A4BBCD" fill-rule="nonzero" /></g></g></g></g><g clip-path="url(#42)"><g clip-path="url(#43)"><g clip-path="url(#44)"><g clip-path="url(#45)"><g clip-path="url(#46)"><path id="60" transform="matrix(1 0 0 -1 0 842)" d="M82.55506 479.3863L220.5218 479.3863C 229.2198 479.3863 236.2708 472.3352 236.2708 463.6372L236.2708 463.6372L236.2708 250.6537C 236.2708 241.9557 229.2198 234.9046 220.5218 234.9046L220.5218 234.9046L82.55506 234.9046C 73.8571 234.9046 66.80601 241.9557 66.80601 250.6537L66.80601 250.6537L66.80601 463.6372C 66.80601 472.3352 73.8571 479.3863 82.55506 479.3863z" stroke="#000000" stroke-width="3" fill="none" /></g></g></g></g></g><g clip-path="url(#47)"></g><g clip-path="url(#48)"><g transform="matrix(0.5609244 0 0 0.5624999 66.80601 420.9505)"><g transform="matrix(1 0 0 1 0 0)"><image x="0" y="0" xlink:href="img_03.png" width="238" height="120" /></g></g></g><g clip-path="url(#49)"><g clip-path="url(#50)"><g clip-path="url(#51)"><g clip-path="url(#52)"><path id="96" transform="matrix(1 0 0 -1 0 842)" d="M294.2216 644.9274L437.5262 644.9274L437.5262 476.9924L294.2216 476.9924z" stroke="none" fill="#323B49" fill-rule="nonzero" /></g></g></g></g><g clip-path="url(#53)"><g clip-path="url(#54)"><g clip-path="url(#55)"><g clip-path="url(#56)"><g clip-path="url(#57)"><path id="97" transform="matrix(1 0 0 -1 0 842)" d="M309.9709 644.9274L421.7693 644.9274C 430.4673 644.9274 437.5184 637.8763 437.5184 629.1783L437.5184 629.1783L437.5184 492.6531C 437.5184 483.9551 430.4673 476.904 421.7693 476.904L421.7693 476.904L309.9709 476.904C 301.2729 476.904 294.2217 483.9551 294.2217 492.6531L294.2217 492.6531L294.2217 629.1783C 294.2217 637.8763 301.2729 644.9274 309.9709 644.9274z" stroke="#000000" stroke-width="3" fill="none" /></g></g></g></g></g><g clip-path="url(#58)"><g clip-path="url(#59)"><g clip-path="url(#60)"><g clip-path="url(#61)"><path id="98" transform="matrix(1 0 0 -1 0 842)" d="M303.0538 670.8359L446.3584 670.8359L446.3584 473.2323L303.0538 473.2323z" stroke="none" fill="#A4BBCD" fill-rule="nonzero" /></g></g></g></g><g clip-path="url(#62)"><g clip-path="url(#63)"><g clip-path="url(#64)"><g clip-path="url(#65)"><g clip-path="url(#66)"><path id="99" transform="matrix(1 0 0 -1 0 842)" d="M318.8029 670.8306L430.6015 670.8306C 439.2995 670.8306 446.3506 663.7795 446.3506 655.0815L446.3506 655.0815L446.3506 489.2114C 446.3506 480.5134 439.2995 473.4623 430.6015 473.4623L430.6015 473.4623L318.8029 473.4623C 310.1049 473.4623 303.0538 480.5134 303.0538 489.2114L303.0538 489.2114L303.0538 655.0815C 303.0538 663.7795 310.1049 670.8306 318.8029 670.8306z" stroke="#000000" stroke-width="3" fill="none" /></g></g></g></g></g><g clip-path="url(#67)"><g transform="matrix(0.6119403 0 0 0.6127658 317.1719 208.897)"><g transform="matrix(1 0 0 1 0 0)"><image x="0" y="0" xlink:href="img_04.png" width="201" height="235" /></g></g></g><g clip-path="url(#68)"><g transform="matrix(0.05571992 0 0 0.05561992 499.3452 11.00061)"><g transform="matrix(1 0 0 1 0 0)"><image x="0" y="0" xlink:href="img_05.png" width="1521" height="863" /></g></g></g><g clip-path="url(#69)"><path id="102" transform="matrix(1 0 0 -1 0 842)" d="M151.5435 497.8789L151.5435 485.0146" stroke="#000000" stroke-width="1.5" fill="none" /><path id="103" transform="matrix(1 0 0 -1 0 842)" d="M149.2935 502.7539L153.7935 502.7539L153.7935 502.7539L153.7935 498.2539L153.7935 498.2539L149.2935 498.2539z" stroke="#000000" stroke-width="1.5" stroke-linecap="round" fill="none" /><path id="104" transform="matrix(1 0 0 -1 0 842)" d="M153.7935 480.1396L153.7935 484.6396L153.7935 484.6396L149.2935 484.6396L149.2935 484.6396L149.2935 480.1396L149.2935 480.1396L153.7935 480.1396z" stroke="#000000" stroke-width="1.5" stroke-linecap="round" fill="none" /><path id="105" transform="matrix(1 0 0 -1 0 842)" d="M241.906 357.1414L285.0438 357.1414C 290.0525 357.1414 294.1128 353.0811 294.1128 348.0724L294.1128 348.0724L294.1128 345.5251C 294.1128 341.9233 297.0326 339.0035 300.6344 339.0035L300.6344 339.0035L307.156 339.0035" stroke="#000000" stroke-width="1.5" fill="none" /><path id="106" transform="matrix(1 0 0 -1 0 842)" d="M237.031 359.3914L241.531 359.3914L241.531 359.3914L241.531 354.8914L241.531 354.8914L237.031 354.8914z" stroke="#000000" stroke-width="1.5" stroke-linecap="round" fill="none" /><path id="107" transform="matrix(1 0 0 -1 0 842)" d="M312.031 341.2535L307.531 341.2535L307.531 341.2535L307.531 336.7535L307.531 336.7535L312.031 336.7535L312.031 336.7535L312.031 341.2535z" stroke="#000000" stroke-width="1.5" stroke-linecap="round" fill="none" /></g><g clip-path="url(#70)"><g transform="matrix(0.5876865 0 0 0.5864197 268.5436 577.8739)"><g transform="matrix(1 0 0 1 0 0)"><image x="0" y="0" xlink:href="img_06.png" width="402" height="243" /></g></g></g><g clip-path="url(#71)"></g><g clip-path="url(#72)"><g transform="matrix(0.5651786 0 0 0.5666667 104.388 611.6068)"><g transform="matrix(1 0 0 1 0 0)"><image x="0" y="0" xlink:href="img_07.png" width="280" height="405" /></g></g></g><g clip-path="url(#73)"><g clip-path="url(#74)"><g clip-path="url(#75)"><g clip-path="url(#76)"><path id="154" transform="matrix(1 0 0 -1 0 842)" d="M328.2473 431.4569L579.9586 431.4569L579.9586 254.9142L328.2473 254.9142z" stroke="none" fill="#323B49" fill-rule="nonzero" /></g></g></g></g><g clip-path="url(#77)"><g clip-path="url(#78)"><g clip-path="url(#79)"><g clip-path="url(#80)"><g clip-path="url(#81)"><path id="155" transform="matrix(1 0 0 -1 0 842)" d="M344.0038 431.4569L564.5143 431.4569C 568.6912 431.4569 572.697 429.7977 575.6505 426.8442C 578.604 423.8907 580.2633 419.8849 580.2633 415.7079L580.2633 415.7079L580.2633 270.6747C 580.2633 266.4977 578.604 262.4919 575.6505 259.5385C 572.697 256.5849 568.6912 254.9257 564.5143 254.9257L564.5143 254.9257L344.0038 254.9257C 339.8269 254.9257 335.8211 256.5849 332.8676 259.5385C 329.9141 262.4919 328.2549 266.4977 328.2549 270.6747L328.2549 270.6747L328.2549 415.7079C 328.2549 419.8849 329.9141 423.8907 332.8676 426.8442C 335.8211 429.7977 339.8269 431.4569 344.0038 431.4569z" stroke="#000000" stroke-width="3" fill="none" /></g></g></g></g></g><g clip-path="url(#82)"><g clip-path="url(#83)"><g clip-path="url(#84)"><g clip-path="url(#85)"><path id="156" transform="matrix(1 0 0 -1 0 842)" d="M312.781 431.4569L551.8599 431.4569L551.8599 246.55L312.781 246.55z" stroke="none" fill="#A4BBCD" fill-rule="nonzero" /></g></g></g></g><g clip-path="url(#86)"><g clip-path="url(#87)"><g clip-path="url(#88)"><g clip-path="url(#89)"><g clip-path="url(#90)"><path id="157" transform="matrix(1 0 0 -1 0 842)" d="M328.533 431.4569L536.3376 431.4569C 540.5146 431.4569 544.5205 429.7976 547.474 426.8441C 550.4276 423.8905 552.0869 419.8846 552.0869 415.7077L552.0869 415.7077L552.0869 262.3077C 552.0869 258.1308 550.4276 254.1249 547.474 251.1713C 544.5205 248.2178 540.5146 246.5585 536.3376 246.5585L536.3376 246.5585L328.533 246.5585C 324.356 246.5585 320.3501 248.2178 317.3966 251.1713C 314.443 254.1249 312.7837 258.1308 312.7837 262.3077L312.7837 262.3077L312.7837 415.7077C 312.7837 419.8846 314.443 423.8905 317.3966 426.8441C 320.3501 429.7976 324.356 431.4569 328.533 431.4569z" stroke="#000000" stroke-width="3" fill="none" /></g></g></g></g></g><g clip-path="url(#91)"><g transform="matrix(0.6454327 0 0 0.6442307 401.3438 424.3875)"><g transform="matrix(1 0 0 1 0 0)"><image x="0" y="0" xlink:href="img_08.png" width="208" height="156" /></g></g></g><g clip-path="url(#92)"><g clip-path="url(#93)"><g clip-path="url(#94)"><g transform="matrix(0.6190205 0.1304119 -0.1303158 0.6185647 374.28 501.0403)"><g transform="matrix(1 0 0 1 0 0)"><image x="0" y="0" xlink:href="img_09.png" width="115" height="140" /></g></g></g></g></g><g clip-path="url(#95)"></g><g clip-path="url(#96)"><g transform="matrix(0.5613207 0 0 0.5589172 121.5648 495.3323)"><g transform="matrix(1 0 0 1 0 0)"><image x="0" y="0" xlink:href="img_10.png" width="159" height="314" /></g></g></g><g clip-path="url(#97)"></g><g clip-path="url(#98)"><path id="279" transform="matrix(1 0 0 -1 0 842)" d="M502.4904 45.31113C 504.8883 47.70861 505.2928 51.96772 505.2928 60.60759L505.2928 60.60759L505.2928 73.40547C 505.2928 82.04539 504.8883 86.30441 502.4904 88.70213C 501.9564 89.23618 501.33 89.67142 500.5833 90.02527L500.5833 90.02527L500.5763 90.02856L500.5763 90.02856L494.1119 93.08456L494.1119 93.08456L494.105 93.08786C 491.4995 94.31944 487.4321 94.56341 480.7231 94.56341L480.7231 94.56341L307.742 94.56341C 299.1027 94.56341 294.8439 94.15884 292.4464 91.76141C 292.0793 91.39443 291.7591 90.98389 291.4798 90.52068C 289.9345 87.95776 289.6443 83.78316 289.6443 76.46648L289.6443 76.46648L289.6443 63.66995C 289.6443 55.03096 290.0489 50.77237 292.4464 48.37502C 292.9788 47.84282 293.6029 47.40864 294.3464 47.05526C 294.3488 47.05433 294.3511 47.05294 294.3535 47.05201L294.3535 47.05201L300.7895 43.99467L300.7895 43.99467L300.7965 43.99142L300.7965 43.99142L300.8035 43.9877C 303.4089 42.75344 307.4779 42.50872 314.1935 42.50872L314.1935 42.50872L487.193 42.50872C 495.8333 42.50872 500.0924 42.91317 502.4904 45.31113z" stroke="none" fill="#000000" fill-rule="nonzero" /><path id="280" transform="matrix(1 0 0 -1 0 842)" d="M480.7235 94.2272C 497.1957 94.2272 498.4848 92.93813 498.4848 76.46648L498.4848 76.46648L498.4848 63.66995C 498.4848 47.19828 497.1957 45.90922 480.7235 45.90922L480.7235 45.90922L307.742 45.90922C 291.2697 45.90922 289.9806 47.19828 289.9806 63.66995L289.9806 63.66995L289.9806 76.46648C 289.9806 92.93813 291.2697 94.2272 307.742 94.2272L307.742 94.2272L480.7235 94.2272z" stroke="none" fill="#7ED957" fill-rule="nonzero" /><path id="281" transform="matrix(1 0 0 -1 0 842)" d="M480.7235 94.2272C 497.1957 94.2272 498.4848 92.93813 498.4848 76.46648L498.4848 76.46648L498.4848 63.66995C 498.4848 47.19828 497.1957 45.90922 480.7235 45.90922L480.7235 45.90922L307.742 45.90922C 291.2697 45.90922 289.9806 47.19828 289.9806 63.66995L289.9806 63.66995L289.9806 76.46648C 289.9806 92.93813 291.2697 94.2272 307.742 94.2272L307.742 94.2272L480.7235 94.2272z" stroke="#000000" stroke-width="0.4643594" fill="none" /></g><g clip-path="url(#99)"><path id="282" transform="matrix(1 0 0 -1 0 842)" d="M480.7633 54.30479C 480.6726 54.71805 480.9377 55.12603 481.3557 55.21572L481.3557 55.21572L484.997 56.00002C 485.415 56.08971 485.8277 55.82769 485.9184 55.41443C 486.0092 55.00117 485.7441 54.59319 485.3261 54.50351L485.3261 54.50351L481.6848 53.7192C 481.2668 53.62776 480.8541 53.89154 480.7633 54.30479zM478.1502 57.99244C 477.7873 58.21754 477.677 58.68882 477.9047 59.04757L477.9047 59.04757L479.8846 62.16896C 480.1123 62.52771 480.589 62.63674 480.9519 62.41164C 481.3148 62.18655 481.4251 61.71526 481.1974 61.35652L481.1974 61.35652L479.2193 58.23512C 478.9916 57.87638 478.5131 57.76735 478.1502 57.99244zM468.8806 51.52279C 468.9714 51.10954 468.7063 50.70156 468.2883 50.61187L468.2883 50.61187L464.647 49.82756C 464.229 49.73788 463.8163 49.9999 463.7256 50.41315C 463.6348 50.82641 463.8999 51.23439 464.3179 51.32408L464.3179 51.32408L467.9592 52.10838C 468.3772 52.19807 468.7899 51.93605 468.8806 51.52279zM469.6118 56.17764C 469.3841 55.81889 468.9073 55.70987 468.5444 55.93496L468.5444 55.93496L465.3852 57.89221C 465.0223 58.1173 464.912 58.58859 465.1397 58.94733C 465.3674 59.30607 465.8441 59.4151 466.207 59.19001L466.207 59.19001L469.3645 57.23452C 469.7292 57.00942 469.8377 56.53638 469.6118 56.17764zM473.5074 58.79258C 473.0894 58.70289 472.6767 58.96491 472.586 59.37817L472.586 59.37817L471.7944 62.97789C 471.7037 63.39115 471.9687 63.79913 472.3867 63.88881C 472.8048 63.9785 473.2175 63.71648 473.3082 63.30322L473.3082 63.30322L474.1016 59.7035C 474.1905 59.29025 473.9254 58.88226 473.5074 58.79258zM491.7086 26.66589C 491.2443 24.82822 489.7572 23.23147 487.9534 22.59488C 486.9164 22.22911 485.7939 22.15701 484.7017 22.17284C 483.5437 22.18866 482.3839 22.28011 481.2276 22.34693C 480.6406 22.38034 480.0536 22.41552 479.4684 22.4542C 478.9151 22.49113 478.3566 22.50168 477.8051 22.55444C 477.3658 22.59665 476.9513 22.70919 476.6044 22.99055C 476.2308 23.29303 475.9071 23.66583 475.5656 24.00347C 473.9041 25.64594 472.2427 27.28842 470.5812 28.93089C 469.103 30.39223 467.6248 31.85357 466.1466 33.31492C 465.9509 33.50835 465.7588 33.693 465.6165 33.93216C 465.4279 34.25046 465.3336 34.61272 465.3372 34.98201C 465.3461 35.76983 465.8531 36.55941 466.6269 36.80913C 467.0911 36.96036 467.5945 36.94805 468.0482 36.76692C 468.283 36.67372 468.5035 36.526 468.7223 36.40115C 468.9447 36.27453 469.1671 36.14791 469.3894 36.01954C 470.277 35.51308 471.1629 35.00663 472.0505 34.50017C 472.1217 34.45972 472.1929 34.41927 472.264 34.37883C 472.5558 34.21177 472.9329 34.42455 472.9329 34.75867C 472.9329 35.186 472.9329 35.61332 472.9329 36.04064C 472.9329 37.11335 472.9329 38.18782 472.9329 39.26052C 472.9329 40.66735 472.9329 42.07594 472.9329 43.48277C 472.9329 44.91245 472.9329 46.34215 472.9329 47.77007C 472.9329 48.90433 472.9329 50.03859 472.9329 51.17284C 472.9329 51.71271 472.9311 52.25258 472.9329 52.79245C 472.9364 53.43784 473.2228 54.0498 473.7494 54.4402C 474.5765 55.05041 475.7595 54.94138 476.4674 54.2028C 476.8872 53.76492 477.0189 53.2145 477.0189 52.63067C 477.0189 52.22269 477.0189 51.8147 477.0189 51.40673C 477.0189 50.02628 477.0189 48.64583 477.0189 47.26714C 477.0189 46.22432 477.0189 45.18151 477.0189 44.1387C 477.0189 44.08418 477.0189 44.02791 477.0189 43.9734C 477.0189 43.40715 477.9012 43.40715 477.9083 43.9734C 477.9243 45.27296 479.1819 46.26829 480.4716 45.92889C 481.1796 45.74249 481.7399 45.18855 481.9267 44.49041C 482.0299 44.10705 481.9943 43.68676 481.9943 43.2946C 481.9943 42.89542 481.9943 42.49799 481.9943 42.0988C 481.9943 41.53255 482.8766 41.53255 482.8837 42.0988C 482.8997 43.40012 484.1574 44.38841 485.4488 44.05253C 486.155 43.86788 486.7171 43.31043 486.9039 42.61405C 487.0053 42.23948 486.9697 41.83326 486.9697 41.4499C 486.9697 41.04719 486.9697 40.64449 486.9697 40.24178C 486.9697 39.67553 487.8521 39.67553 487.8592 40.24178C 487.8716 41.24239 488.6312 42.13396 489.654 42.25003C 490.869 42.3872 491.9274 41.4411 491.9452 40.24178C 491.9452 37.9381 491.9452 35.63618 491.9452 33.3325C 491.9452 32.15252 491.9452 30.97079 491.9452 29.79081C 491.9469 28.74448 491.9665 27.68409 491.7086 26.66589zM492.8364 31.1484C 492.8364 33.5787 492.8364 36.00723 492.8364 38.43753C 492.8364 39.03719 492.8364 39.63861 492.8364 40.23827C 492.8168 41.53255 491.9416 42.70374 490.6608 43.03962C 489.6505 43.3034 488.5778 43.00445 487.8467 42.29575C 487.8289 42.54723 487.788 42.7987 487.7008 43.04137C 487.3753 43.93822 486.6246 44.65044 485.6872 44.89663C 484.8671 45.11117 483.9475 44.96346 483.2555 44.47282C 483.1185 44.3761 482.9922 44.26883 482.8748 44.15277C 482.8571 44.41127 482.8161 44.66802 482.7272 44.91773C 482.4052 45.80579 481.6723 46.50745 480.7473 46.76419C 479.9184 46.99281 478.9827 46.84509 478.2819 46.34918C 478.1502 46.25598 478.0275 46.15222 477.9136 46.04144C 477.9136 46.14695 477.9136 46.2507 477.9136 46.35622C 477.9136 47.79997 477.9136 49.24373 477.9136 50.68573C 477.9136 51.22032 477.9136 51.75316 477.9136 52.28775C 477.9136 52.6377 477.9225 52.98062 477.8656 53.32705C 477.6592 54.60023 476.5457 55.56039 475.272 55.69931C 474.1656 55.82065 473.0609 55.26144 472.4792 54.32941C 472.0274 53.6049 472.0488 52.82938 472.0488 52.02398C 472.0488 51.04447 472.0488 50.06321 472.0488 49.0837C 472.0488 47.68215 472.0488 46.2806 472.0488 44.8808C 472.0488 43.39836 472.0488 41.91591 472.0488 40.43171C 472.0488 39.20776 472.0488 37.98558 472.0488 36.76164C 472.0488 36.34839 472.0417 35.93162 472.0417 35.51836C 471.476 35.84193 470.9085 36.1655 470.3429 36.48731C 470.0369 36.66141 469.7309 36.83726 469.4232 37.01135C 468.9216 37.298 468.427 37.62508 467.8489 37.73059C 466.7176 37.93634 465.6093 37.50198 464.9547 36.56468C 464.4371 35.8261 464.309 34.8167 464.6239 33.9726C 464.8676 33.32018 465.3318 32.87527 465.8157 32.39695C 466.6518 31.57044 467.4896 30.74217 468.3257 29.91566C 470.076 28.18526 471.8246 26.45662 473.575 24.72622C 474.0108 24.29538 474.4449 23.8663 474.8807 23.43546C 475.2436 23.07672 475.5887 22.68808 475.9818 22.36099C 476.3892 22.02335 476.8428 21.81057 477.3675 21.7244C 477.9474 21.62944 478.538 21.6312 479.1232 21.59076C 480.3542 21.50635 481.5869 21.43776 482.8197 21.37094C 484.0062 21.30587 485.1945 21.22498 486.3792 21.35863C 487.5176 21.487 488.6081 21.78947 489.5775 22.40496C 490.4492 22.95889 491.1891 23.69924 491.7477 24.56092C 492.3596 25.50525 492.6674 26.55334 492.7776 27.66298C 492.8862 28.82186 492.8364 29.99304 492.8364 31.1484z" stroke="none" fill="#000000" fill-rule="nonzero" /></g><g clip-path="url(#100)"></g></g></g></svg>