<svg xmlns="http://www.w3.org/2000/svg" xmlns:xlink="http://www.w3.org/1999/xlink" id="body_1" preserveAspectRatio="xMinYMin meet" viewBox="0 0 793 1123"><defs><clipPath id="1"><path id="" clip-rule="evenodd" transform="matrix(1 0 0 1 0 0)" d="M0 842L0 -0.25L0 -0.25L595.5 -0.25L595.5 -0.25L595.5 842L595.5 842L0 842z" /></clipPath><clipPath id="2"><path id="" clip-rule="evenodd" transform="matrix(1 0 0 1 0 0)" d="M0 -0.249939L595.5 -0.249939L595.5 -0.249939L595.5 842.0001L595.5 842.0001L0 842.0001z" /></clipPath><clipPath id="3"><path id="" clip-rule="evenodd" transform="matrix(1 0 0 1 0 0)" d="M0 -0.249939L595.5 -0.249939L595.5 -0.249939L595.5 842.0001L595.5 842.0001L0 842.0001z" /></clipPath><clipPath id="4"><path id="" clip-rule="evenodd" transform="matrix(1 0 0 1 0 0)" d="M0 -0.249939L595.5 -0.249939L595.5 -0.249939L595.5 842.0001L595.5 842.0001L0 842.0001z" /></clipPath><clipPath id="5"><path id="" clip-rule="evenodd" transform="matrix(1 0 0 1 0 0)" d="M79.67999 2.150085L535.92 2.150085L535.92 2.150085L535.92 806.3901L535.92 806.3901L79.67999 806.3901z" /></clipPath><clipPath id="6"><path id="" clip-rule="evenodd" transform="matrix(1 0 0 1 0 0)" d="M79.74117 2.221558L535.7411 2.221558L535.7411 2.221558L535.7411 805.4716L535.7411 805.4716L79.74117 805.4716z" /></clipPath><clipPath id="7"><path id="" clip-rule="evenodd" transform="matrix(1 0 0 1 0 0)" d="M494.7286 12.72064L576.4786 12.72064L576.4786 12.72064L576.4786 59.22064L576.4786 59.22064L494.7286 59.22064z" /></clipPath><clipPath id="8"><path id="" clip-rule="evenodd" transform="matrix(1 0 0 1 0 0)" d="M7.072427 9.718811L112.0724 9.718811L112.0724 9.718811L112.0724 101.9688L112.0724 101.9688L7.072427 101.9688z" /></clipPath><clipPath id="9"><path id="" clip-rule="evenodd" transform="matrix(1 0 0 1 0 0)" d="M0 -0.249939L595.5 -0.249939L595.5 -0.249939L595.5 842.0001L595.5 842.0001L0 842.0001z" /></clipPath><clipPath id="10"><path id="" clip-rule="evenodd" transform="matrix(1 0 0 1 0 0)" d="M15.36 124.5501L579.84 124.5501L579.84 124.5501L579.84 819.3501L579.84 819.3501L15.36 819.3501z" /></clipPath><clipPath id="11"><path id="" clip-rule="evenodd" transform="matrix(1 0 0 1 0 0)" d="M15.45855 124.7055L579.817 124.7055L579.817 124.7055L579.817 819.131L579.817 819.131L15.45855 819.131z" /></clipPath><clipPath id="12"><path id="" clip-rule="evenodd" transform="matrix(1 0 0 1 0 0)" d="M25.95855 124.7055L569.317 124.7055C 572.1018 124.7055 574.7725 125.8118 576.7416 127.7809C 578.7108 129.7501 579.817 132.4208 579.817 135.2055L579.817 135.2055L579.817 808.5414C 579.817 811.3262 578.7108 813.9968 576.7416 815.9661C 574.7725 817.9352 572.1018 819.0414 569.317 819.0414L569.317 819.0414L25.95855 819.0414C 23.17377 819.0414 20.50306 817.9352 18.53393 815.9661C 16.5648 813.9968 15.45855 811.3262 15.45855 808.5414L15.45855 808.5414L15.45855 135.2055C 15.45855 132.4208 16.5648 129.7501 18.53393 127.7809C 20.50306 125.8118 23.17377 124.7055 25.95855 124.7055z" /></clipPath><clipPath id="13"><path id="" clip-rule="evenodd" transform="matrix(1 0 0 1 0 0)" d="M0 -0.249939L595.5 -0.249939L595.5 -0.249939L595.5 842.0001L595.5 842.0001L0 842.0001z" /></clipPath><clipPath id="14"><path id="" clip-rule="evenodd" transform="matrix(1 0 0 1 0 0)" d="M0 -0.249939L595.5 -0.249939L595.5 -0.249939L595.5 842.0001L595.5 842.0001L0 842.0001z" /></clipPath><clipPath id="15"><path id="" clip-rule="evenodd" transform="matrix(1 0 0 1 0 0)" d="M145.7407 288.4662L432.9906 288.4662L432.9906 288.4662L432.9906 434.7162L432.9906 434.7162L145.7407 434.7162z" /></clipPath><clipPath id="16"><path id="" clip-rule="evenodd" transform="matrix(1 0 0 1 0 0)" d="M145.7407 302.7162L145.7407 420.0073C 145.7407 427.8773 152.1206 434.2573 159.9907 434.2573L159.9907 434.2573L418.058 434.2573C 425.928 434.2573 432.308 427.8773 432.308 420.0073L432.308 420.0073L432.308 302.7162C 432.308 294.8461 425.928 288.4662 418.058 288.4662L418.058 288.4662L159.9907 288.4662C 152.1206 288.4662 145.7407 294.8461 145.7407 302.7162z" /></clipPath><clipPath id="17"><path id="" clip-rule="evenodd" transform="matrix(1 0 0 1 0 0)" d="M145.7407 288.4662L432.2406 288.4662L432.2406 288.4662L432.2406 433.9662L432.2406 433.9662L145.7407 433.9662z" /></clipPath><clipPath id="18"><path id="" clip-rule="evenodd" transform="matrix(1 0 0 1 0 0)" d="M0 -0.249939L595.5 -0.249939L595.5 -0.249939L595.5 842.0001L595.5 842.0001L0 842.0001z" /></clipPath><clipPath id="19"><path id="" clip-rule="evenodd" transform="matrix(1 0 0 1 0 0)" d="M0 -0.249939L595.5 -0.249939L595.5 -0.249939L595.5 842.0001L595.5 842.0001L0 842.0001z" /></clipPath><clipPath id="20"><path id="" clip-rule="evenodd" transform="matrix(1 0 0 1 0 0)" d="M155.8226 622.8362L422.8226 622.8362L422.8226 622.8362L422.8226 782.5862L422.8226 782.5862L155.8226 782.5862z" /></clipPath><clipPath id="21"><path id="" clip-rule="evenodd" transform="matrix(1 0 0 1 0 0)" d="M155.8226 634.8362L155.8226 770.1122C 155.8226 776.7397 161.1952 782.1122 167.8226 782.1122L167.8226 782.1122L410.226 782.1122C 416.8534 782.1122 422.226 776.7397 422.226 770.1122L422.226 770.1122L422.226 634.8362C 422.226 628.2088 416.8534 622.8362 410.226 622.8362L410.226 622.8362L167.8226 622.8362C 161.1952 622.8362 155.8226 628.2088 155.8226 634.8362z" /></clipPath><clipPath id="22"><path id="" clip-rule="evenodd" transform="matrix(1 0 0 1 0 0)" d="M155.8226 622.8362L422.0726 622.8362L422.0726 622.8362L422.0726 781.8362L422.0726 781.8362L155.8226 781.8362z" /></clipPath><clipPath id="23"><path id="" clip-rule="evenodd" transform="matrix(1 0 0 1 0 0)" d="M0 -0.249939L595.5 -0.249939L595.5 -0.249939L595.5 842.0001L595.5 842.0001L0 842.0001z" /></clipPath></defs><g transform="matrix(1.333333 0 0 1.333333 0 0)"><g clip-path="url(#1)"><g clip-path="url(#2)"><path id="1" transform="matrix(1 0 0 -1 0 842)" d="M0 842.2499L595.4999 842.2499L595.4999 -6.103516E-05L0 -6.103516E-05z" stroke="none" fill="#FFFFFF" fill-rule="nonzero" /></g><g clip-path="url(#3)"><path id="2" transform="matrix(1 0 0 -1 0 842)" d="M0 842.2499L595.4999 842.2499L595.4999 -6.103516E-05L0 -6.103516E-05z" stroke="none" fill="#E9FCFF" fill-rule="nonzero" /></g><g clip-path="url(#4)"><g><g clip-path="url(#5)"><g clip-path="url(#6)"><g transform="matrix(0 0.5281065 -0.5283893 0 535.7411 2.221619)"><g transform="matrix(1 0 0 1 0 0)"><image x="0" y="0" xlink:href="img_01.png" width="1521" height="863" /></g></g></g></g></g></g><g clip-path="url(#7)"><g transform="matrix(0.05374753 0 0 0.0538818 494.7286 12.72064)"><g transform="matrix(1 0 0 1 0 0)"><image x="0" y="0" xlink:href="img_02.png" width="1521" height="863" /></g></g></g><g clip-path="url(#8)"><g transform="matrix(0.4929577 0 0 0.4906914 7.072427 9.718811)"><g transform="matrix(1 0 0 1 0 0)"><image x="0" y="0" xlink:href="img_03.png" width="213" height="188" /></g></g></g><g clip-path="url(#9)"><g><g clip-path="url(#10)"><g clip-path="url(#11)"><g clip-path="url(#12)"><path id="6" transform="matrix(1 0 0 -1 0 842)" d="M15.45855 717.2944L579.817 717.2944L579.817 22.8689L15.45855 22.8689z" stroke="none" fill="#80EEFF" fill-rule="nonzero" fill-opacity="0.227451" /></g></g></g></g></g><g clip-path="url(#13)"><g clip-path="url(#14)"><g clip-path="url(#15)"><g clip-path="url(#16)"><g clip-path="url(#17)"><g transform="matrix(0.4775 0 0 0.4754902 145.7406 288.4662)"><g transform="matrix(1 0 0 1 0 0)"><image x="0" y="0" xlink:href="img_04.png" width="600" height="306" /></g></g></g></g></g></g></g><g clip-path="url(#18)"><g clip-path="url(#19)"><g clip-path="url(#20)"><g clip-path="url(#21)"><g clip-path="url(#22)"><g transform="matrix(0.5762987 0 0 0.5760869 155.8226 622.8362)"><g transform="matrix(1 0 0 1 0 0)"><image x="0" y="0" xlink:href="img_05.png" width="462" height="276" /></g></g></g></g></g></g></g><g clip-path="url(#23)"></g></g></g></svg>